<svg id="图层_1" data-name="图层 1" xmlns="http://www.w3.org/2000/svg" viewBox="0 0 400 400"><defs><style>.cls-1,.cls-10,.cls-11,.cls-12,.cls-13,.cls-14,.cls-15,.cls-2,.cls-3,.cls-4,.cls-5,.cls-6{isolation:isolate;font-size:15.58px;}.cls-1,.cls-10,.cls-24,.cls-6{fill:#c2c2ff;}.cls-1,.cls-10,.cls-11,.cls-12,.cls-13,.cls-14,.cls-15,.cls-17,.cls-2,.cls-24,.cls-25,.cls-26,.cls-27,.cls-28,.cls-29,.cls-3,.cls-4,.cls-5,.cls-6{font-family:ArialMT, Arial;}.cls-2,.cls-27,.cls-3{fill:#09fefe;}.cls-14,.cls-3,.cls-4,.cls-6{letter-spacing:-0.06em;}.cls-26,.cls-4,.cls-5{fill:#ff870a;}.cls-16,.cls-18,.cls-19,.cls-22,.cls-7{fill:none;}.cls-16,.cls-18,.cls-19,.cls-7,.cls-8,.cls-9{stroke:#000;}.cls-16,.cls-18,.cls-19,.cls-22,.cls-23,.cls-7,.cls-8,.cls-9{stroke-miterlimit:1.14;}.cls-22,.cls-23,.cls-7,.cls-8,.cls-9{stroke-width:0.14px;}.cls-23,.cls-9{fill:#fff;}.cls-10,.cls-11,.cls-15{letter-spacing:-0.06em;}.cls-11,.cls-12,.cls-14,.cls-25{fill:#ffaadc;}.cls-13,.cls-15,.cls-28{fill:#80db9e;}.cls-16{stroke-width:1.34px;}.cls-17{font-size:10px;}.cls-18,.cls-19{stroke-width:0.14px;}.cls-19{stroke-dasharray:1.83 1.83;}.cls-20{letter-spacing:-0.04em;}.cls-21{fill:#ff0b0c;}.cls-22,.cls-23{stroke:#ff0b0c;}.cls-24,.cls-25,.cls-26,.cls-27,.cls-28{font-size:16px;}.cls-29{font-size:18px;}</style></defs><text class="cls-1" transform="translate(210.6 353.93)">G</text><text class="cls-1" transform="translate(210.6 338.54)">G</text><text class="cls-1" transform="translate(210.6 323.16)">G</text><text class="cls-1" transform="translate(211.03 307.77)">U</text><text class="cls-1" transform="translate(210.6 292.39)">G</text><text class="cls-2" transform="translate(207.19 253.93)">U</text><text class="cls-3" transform="translate(207.62 234.69)">A</text><text class="cls-4" transform="translate(253.77 253.93)">A</text><text class="cls-5" transform="translate(245.65 273.16)">C</text><text class="cls-1" transform="translate(241.8 292.39)">C</text><text class="cls-6" transform="translate(242.23 307.77)">A</text><text class="cls-1" transform="translate(241.8 323.16)">C</text><text class="cls-1" transform="translate(241.8 338.54)">C</text><text class="cls-1" transform="translate(241.8 353.93)">C</text><text class="cls-6" transform="translate(242.23 369.31)">A</text><text class="cls-1" transform="translate(241.37 384.69)">G</text><line class="cls-7" x1="222.81" y1="347" x2="241.27" y2="347"/><line class="cls-7" x1="222.81" y1="331.62" x2="241.27" y2="331.62"/><line class="cls-7" x1="222.81" y1="316.23" x2="241.27" y2="316.23"/><line class="cls-7" x1="222.81" y1="300.85" x2="241.27" y2="300.85"/><line class="cls-7" x1="222.81" y1="285.46" x2="241.27" y2="285.46"/><line class="cls-7" x1="206.66" y1="247" x2="176.66" y2="247"/><polygon class="cls-8" points="188.58 247 188.59 247.2 188.61 247.39 188.64 247.59 188.68 247.78 188.74 247.96 188.8 248.15 188.88 248.32 188.97 248.5 189.07 248.67 189.18 248.83 189.3 248.98 189.43 249.13 189.57 249.26 189.72 249.39 189.87 249.51 190.04 249.62 190.21 249.72 190.38 249.8 190.56 249.88 190.75 249.94 190.93 249.99 191.12 250.03 191.32 250.06 191.51 250.08 191.71 250.08 191.9 250.07 192.1 250.05 192.29 250.01 192.48 249.97 192.66 249.91 192.85 249.84 193.03 249.76 193.2 249.67 193.36 249.56 193.52 249.45 193.67 249.33 193.82 249.2 193.95 249.06 194.08 248.91 194.19 248.75 194.3 248.58 194.39 248.41 194.48 248.24 194.55 248.06 194.61 247.87 194.66 247.68 194.7 247.49 194.72 247.3 194.73 247.1 194.73 246.91 194.72 246.71 194.7 246.52 194.66 246.32 194.61 246.14 194.55 245.95 194.48 245.77 194.39 245.59 194.3 245.42 194.19 245.26 194.08 245.1 193.95 244.95 193.82 244.81 193.67 244.68 193.52 244.55 193.36 244.44 193.2 244.34 193.03 244.25 192.85 244.16 192.66 244.09 192.48 244.04 192.29 243.99 192.1 243.96 191.9 243.94 191.71 243.93 191.51 243.93 191.32 243.94 191.12 243.97 190.93 244.01 190.75 244.06 190.56 244.13 190.38 244.2 190.21 244.29 190.04 244.39 189.87 244.5 189.72 244.62 189.57 244.74 189.43 244.88 189.3 245.03 189.18 245.18 189.07 245.34 188.97 245.51 188.88 245.68 188.8 245.86 188.74 246.04 188.68 246.23 188.64 246.42 188.61 246.61 188.59 246.81 188.58 247"/><polyline class="cls-7" points="207.69 231.19 201.27 235.46 174.35 235.46 151.27 235.46 144.86 231.19"/><polygon class="cls-9" points="194.89 235.46 194.88 235.27 194.86 235.07 194.83 234.88 194.79 234.69 194.74 234.5 194.67 234.32 194.59 234.14 194.5 233.97 194.4 233.8 194.29 233.64 194.17 233.49 194.04 233.34 193.9 233.2 193.75 233.08 193.6 232.96 193.43 232.85 193.26 232.75 193.09 232.66 192.91 232.59 192.73 232.53 192.54 232.47 192.35 232.43 192.15 232.41 191.96 232.39 191.76 232.39 191.57 232.4 191.38 232.42 191.18 232.45 190.99 232.5 190.81 232.56 190.62 232.63 190.45 232.71 190.27 232.8 190.11 232.9 189.95 233.02 189.8 233.14 189.65 233.27 189.52 233.41 189.39 233.56 189.28 233.72 189.17 233.88 189.08 234.06 188.99 234.23 188.92 234.41 188.86 234.6 188.81 234.79 188.77 234.98 188.75 235.17 188.74 235.37 188.74 235.56 188.75 235.76 188.77 235.95 188.81 236.14 188.86 236.33 188.92 236.52 188.99 236.7 189.08 236.87 189.17 237.04 189.28 237.21 189.39 237.37 189.52 237.52 189.65 237.66 189.8 237.79 189.95 237.91 190.11 238.03 190.27 238.13 190.45 238.22 190.62 238.3 190.81 238.37 190.99 238.43 191.18 238.48 191.38 238.51 191.57 238.53 191.76 238.54 191.96 238.54 192.15 238.52 192.35 238.5 192.54 238.46 192.73 238.4 192.91 238.34 193.09 238.26 193.26 238.18 193.43 238.08 193.6 237.97 193.75 237.85 193.9 237.72 194.04 237.59 194.17 237.44 194.29 237.29 194.4 237.13 194.5 236.96 194.59 236.79 194.67 236.61 194.74 236.42 194.79 236.24 194.83 236.05 194.86 235.85 194.88 235.66 194.89 235.46"/><polygon class="cls-9" points="179.81 235.46 185.81 238.93 185.81 232 179.81 235.46"/><polyline class="cls-7" points="253.46 246.82 243.58 241.88 216.66 241.88 185.89 241.88 176.01 246.82"/><polygon class="cls-8" points="228.12 245.34 228.12 238.42 222.12 241.88 228.12 245.34"/><polygon class="cls-8" points="237.19 241.68 237.17 241.49 237.14 241.3 237.1 241.11 237.04 240.92 236.98 240.74 236.9 240.56 236.81 240.38 236.71 240.22 236.6 240.05 236.48 239.9 236.35 239.75 236.21 239.62 236.06 239.49 235.9 239.37 235.74 239.26 235.57 239.17 235.4 239.08 235.22 239 235.03 238.94 234.84 238.89 234.65 238.85 234.46 238.82 234.27 238.81 234.07 238.8 233.88 238.81 233.68 238.83 233.49 238.87 233.3 238.91 233.11 238.97 232.93 239.04 232.75 239.12 232.58 239.21 232.42 239.32 232.26 239.43 232.1 239.55 231.96 239.69 231.83 239.83 231.7 239.98 231.59 240.13 231.48 240.3 231.38 240.47 231.3 240.65 231.23 240.83 231.17 241.01 231.12 241.2 231.08 241.39 231.06 241.59 231.04 241.78 231.04 241.98 231.06 242.17 231.08 242.36 231.12 242.56 231.17 242.75 231.23 242.93 231.3 243.11 231.38 243.29 231.48 243.46 231.59 243.62 231.7 243.78 231.83 243.93 231.96 244.07 232.1 244.2 232.26 244.33 232.42 244.44 232.58 244.54 232.75 244.63 232.93 244.72 233.11 244.79 233.3 244.84 233.49 244.89 233.68 244.92 233.88 244.95 234.07 244.96 234.27 244.95 234.46 244.94 234.65 244.91 234.84 244.87 235.03 244.82 235.22 244.75 235.4 244.68 235.57 244.59 235.74 244.49 235.9 244.38 236.06 244.27 236.21 244.14 236.35 244 236.48 243.86 236.6 243.7 236.71 243.54 236.81 243.37 236.9 243.2 236.98 243.02 237.04 242.84 237.1 242.65 237.14 242.46 237.17 242.27 237.19 242.07 237.2 241.88 237.19 241.68"/><polyline class="cls-7" points="174.86 289.82 178.2 293.16 208.97 293.16 235.89 293.16 242.31 288.88"/><polygon class="cls-8" points="186.5 293.16 186.51 293.35 186.53 293.55 186.56 293.74 186.6 293.93 186.66 294.12 186.72 294.3 186.8 294.48 186.89 294.65 186.99 294.82 187.1 294.98 187.22 295.13 187.35 295.28 187.49 295.42 187.64 295.55 187.8 295.66 187.96 295.77 188.13 295.87 188.3 295.96 188.48 296.03 188.67 296.1 188.86 296.15 189.05 296.19 189.24 296.21 189.44 296.23 189.63 296.23 189.82 296.22 190.02 296.2 190.21 296.17 190.4 296.12 190.59 296.06 190.77 296 190.95 295.91 191.12 295.82 191.29 295.72 191.44 295.61 191.6 295.48 191.74 295.35 191.87 295.21 192 295.06 192.12 294.9 192.22 294.74 192.32 294.57 192.4 294.39 192.47 294.21 192.53 294.02 192.58 293.83 192.62 293.64 192.64 293.45 192.66 293.25 192.66 293.06 192.64 292.86 192.62 292.67 192.58 292.48 192.53 292.29 192.47 292.1 192.4 291.92 192.32 291.75 192.22 291.58 192.12 291.41 192 291.25 191.87 291.11 191.74 290.96 191.6 290.83 191.44 290.71 191.29 290.6 191.12 290.49 190.95 290.4 190.77 290.32 190.59 290.25 190.4 290.19 190.21 290.14 190.02 290.11 189.82 290.09 189.63 290.08 189.44 290.08 189.24 290.1 189.05 290.13 188.86 290.17 188.67 290.22 188.48 290.28 188.3 290.36 188.13 290.44 187.96 290.54 187.8 290.65 187.64 290.77 187.49 290.9 187.35 291.03 187.22 291.18 187.1 291.33 186.99 291.49 186.89 291.66 186.8 291.83 186.72 292.01 186.66 292.2 186.6 292.38 186.56 292.57 186.53 292.77 186.51 292.96 186.5 293.16"/><polygon class="cls-8" points="201.58 293.16 195.58 289.69 195.58 296.62 201.58 293.16"/><polyline class="cls-7" points="151.27 291.62 151.27 308.54 235.89 308.54 242.31 304.26"/><polygon class="cls-8" points="186.5 308.54 186.51 308.74 186.53 308.93 186.56 309.12 186.6 309.31 186.66 309.5 186.72 309.69 186.8 309.86 186.89 310.04 186.99 310.2 187.1 310.37 187.22 310.52 187.35 310.67 187.49 310.8 187.64 310.93 187.8 311.05 187.96 311.16 188.13 311.25 188.3 311.34 188.48 311.42 188.67 311.48 188.86 311.53 189.05 311.57 189.24 311.6 189.44 311.62 189.63 311.62 189.82 311.61 190.02 311.59 190.21 311.55 190.4 311.51 190.59 311.45 190.77 311.38 190.95 311.3 191.12 311.21 191.29 311.1 191.44 310.99 191.6 310.87 191.74 310.74 191.87 310.59 192 310.44 192.12 310.29 192.22 310.12 192.32 309.95 192.4 309.77 192.47 309.59 192.53 309.41 192.58 309.22 192.62 309.03 192.64 308.83 192.66 308.64 192.66 308.44 192.64 308.25 192.62 308.06 192.58 307.86 192.53 307.68 192.47 307.49 192.4 307.31 192.32 307.13 192.22 306.96 192.12 306.8 192 306.64 191.87 306.49 191.74 306.35 191.6 306.22 191.44 306.09 191.29 305.98 191.12 305.88 190.95 305.78 190.77 305.7 190.59 305.63 190.4 305.58 190.21 305.53 190.02 305.5 189.82 305.47 189.63 305.46 189.44 305.47 189.24 305.48 189.05 305.51 188.86 305.55 188.67 305.6 188.48 305.67 188.3 305.74 188.13 305.83 187.96 305.93 187.8 306.04 187.64 306.15 187.49 306.28 187.35 306.42 187.22 306.56 187.1 306.72 186.99 306.88 186.89 307.05 186.8 307.22 186.72 307.4 186.66 307.58 186.6 307.77 186.56 307.96 186.53 308.15 186.51 308.35 186.5 308.54"/><polygon class="cls-8" points="201.58 308.54 195.58 305.08 195.58 312 201.58 308.54"/><text class="cls-3" transform="translate(223 219.31)">A</text><text class="cls-1" transform="translate(134.11 203.93)">U</text><text class="cls-1" transform="translate(134.11 188.54)">C</text><text class="cls-1" transform="translate(134.11 173.16)">U</text><text class="cls-1" transform="translate(134.11 157.77)">C</text><text class="cls-1" transform="translate(134.11 142.39)">C</text><text class="cls-10" transform="translate(134.54 127)">A</text><text class="cls-10" transform="translate(134.54 111.62)">A</text><text class="cls-11" transform="translate(119.15 103.93)">A</text><text class="cls-11" transform="translate(130.69 96.24)">A</text><text class="cls-12" transform="translate(130.26 80.85)">U</text><text class="cls-1" transform="translate(164.88 111.62)">U</text><text class="cls-1" transform="translate(164.88 127)">U</text><text class="cls-1" transform="translate(164.44 142.39)">G</text><text class="cls-1" transform="translate(164.44 157.77)">G</text><text class="cls-1" transform="translate(164.44 173.16)">G</text><text class="cls-1" transform="translate(164.44 188.54)">G</text><text class="cls-10" transform="translate(165.31 203.93)">A</text><text class="cls-13" transform="translate(133.67 234.69)">G</text><text class="cls-13" transform="translate(134.11 253.93)">C</text><text class="cls-13" transform="translate(134.11 273.16)">C</text><text class="cls-13" transform="translate(145.65 292.39)">U</text><line class="cls-7" x1="234.35" y1="212.39" x2="252.81" y2="212.39"/><polygon class="cls-8" points="236.5 215.46 242.66 215.46 242.66 209.31 236.5 209.31 236.5 215.46"/><polygon class="cls-8" points="250.66 212.39 250.65 212.19 250.63 212 250.6 211.81 250.56 211.62 250.5 211.43 250.44 211.24 250.36 211.06 250.27 210.89 250.17 210.72 250.06 210.56 249.94 210.41 249.81 210.26 249.67 210.13 249.52 210 249.37 209.88 249.2 209.77 249.03 209.68 248.86 209.59 248.68 209.51 248.5 209.45 248.31 209.4 248.12 209.36 247.92 209.33 247.73 209.31 247.53 209.31 247.34 209.32 247.14 209.34 246.95 209.38 246.76 209.42 246.57 209.48 246.39 209.55 246.22 209.63 246.04 209.72 245.88 209.83 245.72 209.94 245.57 210.06 245.42 210.19 245.29 210.34 245.16 210.49 245.05 210.64 244.94 210.81 244.85 210.98 244.76 211.15 244.69 211.34 244.63 211.52 244.58 211.71 244.54 211.9 244.52 212.09 244.51 212.29 244.51 212.49 244.52 212.68 244.54 212.87 244.58 213.06 244.63 213.25 244.69 213.44 244.76 213.62 244.85 213.8 244.94 213.97 245.05 214.13 245.16 214.29 245.29 214.44 245.42 214.58 245.57 214.71 245.72 214.84 245.88 214.95 246.04 215.05 246.22 215.14 246.39 215.22 246.57 215.29 246.76 215.35 246.95 215.4 247.14 215.43 247.34 215.46 247.53 215.46 247.73 215.46 247.92 215.45 248.12 215.42 248.31 215.38 248.5 215.33 248.68 215.26 248.86 215.19 249.03 215.1 249.2 215 249.37 214.89 249.52 214.78 249.67 214.65 249.81 214.51 249.94 214.37 250.06 214.21 250.17 214.05 250.27 213.88 250.36 213.71 250.44 213.53 250.5 213.35 250.56 213.16 250.6 212.97 250.63 212.78 250.65 212.58 250.66 212.39"/><line class="cls-7" x1="145.89" y1="197" x2="164.35" y2="197"/><line class="cls-7" x1="145.89" y1="181.62" x2="164.35" y2="181.62"/><polygon class="cls-8" points="158.2 166.23 158.19 166.04 158.17 165.84 158.14 165.65 158.1 165.46 158.04 165.27 157.98 165.09 157.9 164.91 157.81 164.74 157.71 164.57 157.6 164.41 157.48 164.26 157.35 164.11 157.21 163.97 157.06 163.85 156.9 163.73 156.74 163.62 156.57 163.52 156.4 163.44 156.22 163.36 156.03 163.3 155.84 163.24 155.65 163.2 155.46 163.18 155.27 163.16 155.07 163.16 154.88 163.17 154.68 163.19 154.49 163.22 154.3 163.27 154.11 163.33 153.93 163.4 153.75 163.48 153.58 163.57 153.42 163.67 153.26 163.78 153.1 163.91 152.96 164.04 152.83 164.18 152.7 164.33 152.59 164.49 152.48 164.65 152.38 164.82 152.3 165 152.23 165.18 152.17 165.37 152.12 165.56 152.08 165.75 152.06 165.94 152.04 166.14 152.04 166.33 152.06 166.53 152.08 166.72 152.12 166.91 152.17 167.1 152.23 167.29 152.3 167.47 152.38 167.64 152.48 167.81 152.59 167.98 152.7 168.14 152.83 168.28 152.96 168.43 153.1 168.56 153.26 168.68 153.42 168.79 153.58 168.9 153.75 168.99 153.93 169.07 154.11 169.14 154.3 169.2 154.49 169.25 154.68 169.28 154.88 169.3 155.07 169.31 155.27 169.31 155.46 169.29 155.65 169.26 155.84 169.22 156.03 169.17 156.22 169.11 156.4 169.03 156.57 168.95 156.74 168.85 156.9 168.74 157.06 168.62 157.21 168.49 157.35 168.36 157.48 168.21 157.6 168.06 157.71 167.9 157.81 167.73 157.9 167.56 157.98 167.38 158.04 167.19 158.1 167.01 158.14 166.82 158.17 166.62 158.19 166.43 158.2 166.23"/><line class="cls-7" x1="145.89" y1="150.85" x2="164.35" y2="150.85"/><line class="cls-7" x1="145.89" y1="135.46" x2="164.35" y2="135.46"/><line class="cls-7" x1="145.89" y1="120.08" x2="164.35" y2="120.08"/><line class="cls-7" x1="145.89" y1="104.7" x2="164.35" y2="104.7"/><polyline class="cls-7" points="129.74 89.31 116.66 89.31 116.66 8.54 282.04 8.54 282.04 89.31 272.81 89.31"/><polygon class="cls-9" points="192.27 8.54 192.28 8.74 192.3 8.93 192.33 9.12 192.37 9.31 192.43 9.5 192.49 9.69 192.57 9.86 192.66 10.04 192.76 10.21 192.87 10.37 192.99 10.52 193.12 10.66 193.26 10.8 193.41 10.93 193.57 11.05 193.73 11.16 193.9 11.25 194.07 11.34 194.25 11.42 194.44 11.48 194.63 11.53 194.82 11.57 195.01 11.6 195.2 11.62 195.4 11.62 195.59 11.61 195.79 11.59 195.98 11.55 196.17 11.51 196.36 11.45 196.54 11.38 196.72 11.3 196.89 11.21 197.06 11.1 197.21 10.99 197.37 10.87 197.51 10.73 197.64 10.59 197.77 10.44 197.88 10.29 197.99 10.12 198.09 9.95 198.17 9.78 198.24 9.59 198.3 9.41 198.35 9.22 198.39 9.03 198.41 8.83 198.43 8.64 198.43 8.44 198.41 8.25 198.39 8.05 198.35 7.86 198.3 7.67 198.24 7.49 198.17 7.31 198.09 7.13 197.99 6.96 197.88 6.8 197.77 6.64 197.64 6.49 197.51 6.35 197.37 6.22 197.21 6.09 197.06 5.98 196.89 5.88 196.72 5.78 196.54 5.7 196.36 5.63 196.17 5.58 195.98 5.53 195.79 5.5 195.59 5.47 195.4 5.46 195.2 5.47 195.01 5.48 194.82 5.51 194.63 5.55 194.44 5.6 194.25 5.67 194.07 5.74 193.9 5.83 193.73 5.93 193.57 6.04 193.41 6.15 193.26 6.28 193.12 6.42 192.99 6.56 192.87 6.72 192.76 6.88 192.66 7.05 192.57 7.22 192.49 7.4 192.43 7.58 192.37 7.77 192.33 7.96 192.3 8.15 192.28 8.35 192.27 8.54"/><polygon class="cls-9" points="206.43 5.46 200.27 5.46 200.27 11.62 206.43 11.62 206.43 5.46"/><polyline class="cls-7" points="129.74 73.93 124.35 73.93 124.35 20.08 274.35 20.08 274.35 73.93 268.97 73.93"/><polygon class="cls-9" points="192.27 20.08 192.28 20.27 192.3 20.47 192.33 20.66 192.37 20.85 192.43 21.04 192.49 21.22 192.57 21.4 192.66 21.58 192.76 21.74 192.87 21.9 192.99 22.06 193.12 22.2 193.26 22.34 193.41 22.47 193.57 22.59 193.73 22.7 193.9 22.79 194.07 22.88 194.25 22.95 194.44 23.02 194.63 23.07 194.82 23.11 195.01 23.14 195.2 23.15 195.4 23.16 195.59 23.15 195.79 23.13 195.98 23.09 196.17 23.05 196.36 22.99 196.54 22.92 196.72 22.84 196.89 22.74 197.06 22.64 197.21 22.53 197.37 22.41 197.51 22.27 197.64 22.13 197.77 21.98 197.88 21.82 197.99 21.66 198.09 21.49 198.17 21.31 198.24 21.13 198.3 20.95 198.35 20.76 198.39 20.57 198.41 20.37 198.43 20.18 198.43 19.98 198.41 19.79 198.39 19.59 198.35 19.4 198.3 19.21 198.24 19.03 198.17 18.85 198.09 18.67 197.99 18.5 197.88 18.34 197.77 18.18 197.64 18.03 197.51 17.89 197.37 17.75 197.21 17.63 197.06 17.52 196.89 17.41 196.72 17.32 196.54 17.24 196.36 17.17 196.17 17.11 195.98 17.07 195.79 17.03 195.59 17.01 195.4 17 195.2 17.01 195.01 17.02 194.82 17.05 194.63 17.09 194.44 17.14 194.25 17.21 194.07 17.28 193.9 17.37 193.73 17.46 193.57 17.57 193.41 17.69 193.26 17.82 193.12 17.96 192.99 18.1 192.87 18.26 192.76 18.42 192.66 18.58 192.57 18.76 192.49 18.94 192.43 19.12 192.37 19.31 192.33 19.5 192.3 19.69 192.28 19.89 192.27 20.08"/><polygon class="cls-9" points="206.43 17 200.27 17 200.27 23.16 206.43 23.16 206.43 17"/><line class="cls-7" x1="145.89" y1="227.77" x2="164.35" y2="227.77"/><polygon class="cls-8" points="148.04 227.77 148.05 227.97 148.07 228.16 148.1 228.35 148.14 228.54 148.2 228.73 148.26 228.92 148.34 229.09 148.43 229.27 148.53 229.44 148.64 229.6 148.76 229.75 148.89 229.9 149.03 230.03 149.18 230.16 149.34 230.28 149.5 230.39 149.67 230.48 149.84 230.57 150.02 230.65 150.21 230.71 150.39 230.76 150.59 230.8 150.78 230.83 150.97 230.85 151.17 230.85 151.36 230.84 151.56 230.82 151.75 230.78 151.94 230.74 152.13 230.68 152.31 230.61 152.49 230.53 152.66 230.44 152.82 230.33 152.98 230.22 153.13 230.1 153.28 229.97 153.41 229.82 153.54 229.67 153.65 229.52 153.76 229.35 153.85 229.18 153.94 229.01 154.01 228.82 154.07 228.64 154.12 228.45 154.16 228.26 154.18 228.06 154.19 227.87 154.19 227.68 154.18 227.48 154.16 227.29 154.12 227.09 154.07 226.91 154.01 226.72 153.94 226.54 153.85 226.36 153.76 226.19 153.65 226.03 153.54 225.87 153.41 225.72 153.28 225.58 153.13 225.45 152.98 225.32 152.82 225.21 152.66 225.11 152.49 225.01 152.31 224.93 152.13 224.86 151.94 224.81 151.75 224.76 151.56 224.73 151.36 224.71 151.17 224.7 150.97 224.7 150.78 224.71 150.59 224.74 150.39 224.78 150.21 224.83 150.02 224.9 149.84 224.97 149.67 225.06 149.5 225.16 149.34 225.27 149.18 225.38 149.03 225.51 148.89 225.65 148.76 225.79 148.64 225.95 148.53 226.11 148.43 226.28 148.34 226.45 148.26 226.63 148.2 226.81 148.14 227 148.1 227.19 148.07 227.38 148.05 227.58 148.04 227.77"/><polygon class="cls-8" points="162.2 224.69 156.04 224.69 156.04 230.85 162.2 230.85 162.2 224.69"/><text class="cls-11" transform="translate(146.08 65.46)">A</text><text class="cls-12" transform="translate(164.88 65.46)">U</text><text class="cls-12" transform="translate(179.83 80.85)">G</text><text class="cls-12" transform="translate(179.83 96.24)">G</text><text class="cls-6" transform="translate(223 111.62)">A</text><text class="cls-12" transform="translate(211.03 96.24)">C</text><text class="cls-12" transform="translate(211.03 80.85)">C</text><text class="cls-12" transform="translate(214.44 65.46)">G</text><text class="cls-12" transform="translate(234.11 61.62)">U</text><text class="cls-14" transform="translate(249.92 61.62)">A</text><polyline class="cls-7" points="151.27 52.39 151.27 31.62 255.28 31.62 255.16 48.54"/><polygon class="cls-9" points="196.2 34.7 202.35 34.7 202.35 28.54 196.2 28.54 196.2 34.7"/><polygon class="cls-9" points="210.35 31.62 210.34 31.42 210.33 31.23 210.3 31.04 210.25 30.85 210.2 30.66 210.13 30.48 210.05 30.3 209.96 30.12 209.86 29.95 209.75 29.79 209.63 29.64 209.5 29.5 209.36 29.36 209.22 29.23 209.06 29.11 208.9 29 208.73 28.91 208.55 28.82 208.37 28.74 208.19 28.68 208 28.63 207.81 28.59 207.62 28.56 207.42 28.55 207.22 28.54 207.03 28.55 206.84 28.57 206.64 28.61 206.45 28.65 206.27 28.71 206.09 28.78 205.91 28.86 205.74 28.95 205.57 29.06 205.41 29.17 205.26 29.29 205.12 29.43 204.98 29.57 204.86 29.72 204.74 29.87 204.63 30.04 204.54 30.21 204.46 30.39 204.38 30.57 204.32 30.75 204.27 30.94 204.24 31.13 204.21 31.33 204.2 31.52 204.2 31.72 204.21 31.91 204.24 32.1 204.27 32.3 204.32 32.48 204.38 32.67 204.46 32.85 204.54 33.03 204.63 33.2 204.74 33.36 204.86 33.52 204.98 33.67 205.12 33.81 205.26 33.94 205.41 34.07 205.57 34.18 205.74 34.28 205.91 34.38 206.09 34.46 206.27 34.53 206.45 34.58 206.64 34.63 206.84 34.66 207.03 34.69 207.22 34.7 207.42 34.69 207.62 34.68 207.81 34.65 208 34.61 208.19 34.56 208.37 34.49 208.55 34.42 208.73 34.33 208.9 34.23 209.06 34.13 209.22 34.01 209.36 33.88 209.5 33.74 209.63 33.6 209.75 33.44 209.86 33.28 209.96 33.11 210.05 32.94 210.13 32.76 210.2 32.58 210.25 32.39 210.3 32.2 210.33 32.01 210.34 31.81 210.35 31.62"/><line class="cls-7" x1="192.04" y1="73.93" x2="210.5" y2="73.93"/><line class="cls-7" x1="192.04" y1="89.31" x2="210.5" y2="89.31"/><polyline class="cls-7" points="191.39 92.06 201.27 97 224.35 97 251.27 97 261.15 92.06"/><polygon class="cls-9" points="229.81 97 235.81 100.46 235.81 93.54 229.81 97"/><polygon class="cls-9" points="244.89 97 244.88 96.81 244.86 96.61 244.83 96.42 244.79 96.23 244.74 96.04 244.67 95.86 244.59 95.68 244.5 95.51 244.4 95.34 244.29 95.18 244.17 95.03 244.04 94.88 243.9 94.74 243.75 94.61 243.6 94.5 243.43 94.39 243.26 94.29 243.09 94.2 242.91 94.13 242.73 94.06 242.54 94.01 242.35 93.97 242.15 93.94 241.96 93.93 241.76 93.93 241.57 93.94 241.38 93.96 241.18 93.99 240.99 94.04 240.81 94.09 240.62 94.17 240.45 94.25 240.27 94.34 240.11 94.44 239.95 94.55 239.8 94.68 239.65 94.81 239.52 94.95 239.39 95.1 239.28 95.26 239.17 95.42 239.08 95.59 238.99 95.77 238.92 95.95 238.86 96.14 238.81 96.33 238.77 96.52 238.75 96.71 238.74 96.91 238.74 97.1 238.75 97.3 238.77 97.49 238.81 97.68 238.86 97.87 238.92 98.06 238.99 98.24 239.08 98.41 239.17 98.58 239.28 98.75 239.39 98.91 239.52 99.06 239.65 99.2 239.8 99.33 239.95 99.45 240.11 99.56 240.27 99.67 240.45 99.76 240.62 99.84 240.81 99.91 240.99 99.97 241.18 100.02 241.38 100.05 241.57 100.07 241.76 100.08 241.96 100.08 242.15 100.06 242.35 100.03 242.54 99.99 242.73 99.94 242.91 99.88 243.09 99.8 243.26 99.72 243.43 99.62 243.6 99.51 243.75 99.39 243.9 99.26 244.04 99.13 244.17 98.98 244.29 98.83 244.4 98.67 244.5 98.5 244.59 98.33 244.67 98.15 244.74 97.96 244.79 97.78 244.83 97.58 244.86 97.39 244.88 97.2 244.89 97"/><polyline class="cls-7" points="220.5 52.39 220.5 39.31 239.74 39.31 239.74 48.54"/><polygon class="cls-8" points="222.12 39.31 228.12 42.77 228.12 35.85 222.12 39.31"/><polygon class="cls-8" points="237.2 36.23 231.04 36.23 231.04 42.39 237.2 42.39 237.2 36.23"/><text class="cls-13" transform="translate(164.88 292.39)">C</text><text class="cls-13" transform="translate(164.88 273.16)">C</text><text class="cls-15" transform="translate(165.31 253.93)">A</text><text class="cls-13" transform="translate(164.88 234.69)">C</text><text class="cls-1" transform="translate(222.57 203.93)">C</text><text class="cls-6" transform="translate(223 188.54)">A</text><text class="cls-1" transform="translate(222.14 173.16)">G</text><text class="cls-1" transform="translate(222.57 157.77)">U</text><text class="cls-1" transform="translate(222.14 142.39)">G</text><text class="cls-6" transform="translate(223 127)">A</text><text class="cls-14" transform="translate(257.62 80.85)">A</text><text class="cls-14" transform="translate(261.46 96.24)">A</text><text class="cls-6" transform="translate(253.77 111.62)">A</text><text class="cls-1" transform="translate(253.34 127)">U</text><text class="cls-1" transform="translate(253.34 142.39)">C</text><text class="cls-1" transform="translate(252.9 157.77)">G</text><text class="cls-1" transform="translate(253.34 173.16)">C</text><text class="cls-1" transform="translate(253.34 188.54)">U</text><text class="cls-1" transform="translate(252.9 203.93)">G</text><text class="cls-5" transform="translate(253.34 219.31)">U</text><text class="cls-5" transform="translate(253.34 234.69)">C</text><line class="cls-7" x1="234.35" y1="197" x2="252.81" y2="197"/><line class="cls-7" x1="234.35" y1="181.62" x2="252.81" y2="181.62"/><line class="cls-7" x1="234.35" y1="166.23" x2="252.81" y2="166.23"/><polygon class="cls-8" points="246.66 150.85 246.65 150.65 246.63 150.46 246.6 150.27 246.56 150.08 246.5 149.89 246.44 149.71 246.36 149.53 246.27 149.35 246.17 149.19 246.06 149.03 245.94 148.87 245.81 148.73 245.67 148.59 245.52 148.46 245.37 148.34 245.2 148.24 245.03 148.14 244.86 148.05 244.68 147.97 244.5 147.91 244.31 147.86 244.12 147.82 243.92 147.79 243.73 147.78 243.53 147.77 243.34 147.78 243.14 147.8 242.95 147.84 242.76 147.88 242.57 147.94 242.39 148.01 242.22 148.09 242.04 148.18 241.88 148.29 241.72 148.4 241.57 148.52 241.42 148.66 241.29 148.8 241.16 148.95 241.05 149.1 240.94 149.27 240.85 149.44 240.76 149.62 240.69 149.8 240.63 149.98 240.58 150.17 240.54 150.36 240.52 150.56 240.51 150.75 240.51 150.95 240.52 151.14 240.54 151.34 240.58 151.53 240.63 151.72 240.69 151.9 240.76 152.08 240.85 152.26 240.94 152.43 241.05 152.59 241.16 152.75 241.29 152.9 241.42 153.04 241.57 153.18 241.72 153.3 241.88 153.41 242.04 153.51 242.22 153.61 242.39 153.69 242.57 153.76 242.76 153.81 242.95 153.86 243.14 153.9 243.34 153.92 243.53 153.93 243.73 153.92 243.92 153.91 244.12 153.88 244.31 153.84 244.5 153.79 244.68 153.72 244.86 153.65 245.03 153.56 245.2 153.46 245.37 153.35 245.52 153.24 245.67 153.11 245.81 152.97 245.94 152.83 246.06 152.67 246.17 152.51 246.27 152.34 246.36 152.17 246.44 151.99 246.5 151.81 246.56 151.62 246.6 151.43 246.63 151.24 246.65 151.04 246.66 150.85"/><line class="cls-7" x1="234.35" y1="135.46" x2="252.81" y2="135.46"/><line class="cls-7" x1="234.35" y1="120.08" x2="252.81" y2="120.08"/><polyline class="cls-16" points="222.04 212.39 139.74 212.39 139.74 203.16"/><polygon class="cls-8" points="186.02 217 183.45 214.69 180.89 213.93 178.32 213.54 173.2 212.39 178.32 211.23 180.89 210.85 183.45 210.08 186.02 207.77 186.02 217"/><line class="cls-16" x1="166.15" y1="201.35" x2="144.09" y2="223.42"/><polygon class="cls-8" points="167.45 205.86 164 206.04 161.65 207.31 159.56 208.85 155.12 211.66 157.93 207.22 159.47 205.13 160.74 202.78 160.92 199.33 167.45 205.86"/><line class="cls-16" x1="175.93" y1="224.88" x2="222.77" y2="199.9"/><polygon class="cls-8" points="206.68 203.31 210.03 204.14 212.66 203.62 215.1 202.75 220.17 201.35 216.18 204.78 214.1 206.33 212.2 208.22 211.03 211.46 206.68 203.31"/><line class="cls-16" x1="216.05" y1="279.34" x2="213.42" y2="253.13"/><polygon class="cls-8" points="211.45 279.76 213.5 276.98 214 274.36 214.13 271.77 214.77 266.55 216.43 271.54 217.07 274.05 218.09 276.52 220.64 278.85 211.45 279.76"/><text class="cls-17" transform="translate(200.27 305.08)">20</text><text class="cls-17" transform="translate(254.12 305.08)">80</text><text class="cls-17" transform="translate(265.12 140.68)">70</text><text class="cls-17" transform="translate(210.91 110.23)">60</text><line class="cls-18" x1="234.35" y1="105.94" x2="235.35" y2="105.94"/><line class="cls-19" x1="237.18" y1="105.94" x2="250.9" y2="105.94"/><line class="cls-18" x1="251.81" y1="105.94" x2="252.81" y2="105.94"/><text class="cls-17" transform="translate(176.27 124.35)">40</text><text class="cls-17" transform="translate(123.02 124.35)">30</text><text class="cls-17" transform="translate(213.42 364.41)">5<tspan class="cls-20" x="5.56" y="0">’</tspan></text><text class="cls-17" transform="translate(244.51 394.92)">3<tspan class="cls-20" x="5.56" y="0">’</tspan></text><rect class="cls-21" x="202.05" y="261.99" width="25.37" height="9.11"/><text class="cls-17" transform="translate(202.44 270.12)">2’-dG</text><line class="cls-22" x1="229.26" y1="266.55" x2="245.74" y2="266.55"/><line class="cls-22" x1="200.53" y1="266.79" x2="176.66" y2="266.79"/><polygon class="cls-23" points="181.56 266.98 181.58 267.18 181.61 267.37 181.65 267.56 181.71 267.75 181.77 267.93 181.85 268.11 181.94 268.28 182.04 268.45 182.15 268.61 182.27 268.76 182.4 268.91 182.54 269.05 182.69 269.18 182.85 269.29 183.01 269.4 183.18 269.5 183.35 269.59 183.53 269.66 183.72 269.73 183.91 269.78 184.1 269.82 184.29 269.85 184.48 269.86 184.68 269.86 184.87 269.86 185.07 269.83 185.26 269.8 185.45 269.75 185.64 269.69 185.82 269.63 186 269.54 186.17 269.45 186.33 269.35 186.49 269.24 186.65 269.11 186.79 268.98 186.92 268.84 187.05 268.69 187.16 268.53 187.27 268.37 187.37 268.2 187.45 268.02 187.52 267.84 187.58 267.65 187.63 267.46 187.67 267.27 187.69 267.08 187.71 266.88 187.71 266.69 187.69 266.5 187.67 266.3 187.63 266.11 187.58 265.92 187.52 265.74 187.45 265.55 187.37 265.38 187.27 265.21 187.16 265.04 187.05 264.88 186.92 264.74 186.79 264.59 186.65 264.46 186.49 264.34 186.33 264.23 186.17 264.12 186 264.03 185.82 263.95 185.64 263.88 185.45 263.82 185.26 263.78 185.07 263.74 184.87 263.72 184.68 263.71 184.48 263.71 184.29 263.73 184.1 263.76 183.91 263.8 183.72 263.85 183.53 263.91 183.35 263.99 183.18 264.07 183.01 264.17 182.85 264.28 182.69 264.4 182.54 264.53 182.4 264.66 182.27 264.81 182.15 264.96 182.04 265.12 181.94 265.29 181.85 265.46 181.77 265.64 181.71 265.83 181.65 266.01 181.61 266.2 181.58 266.4 181.56 266.59 181.55 266.79 181.56 266.98"/><polygon class="cls-23" points="190.63 263.33 190.63 270.25 196.63 266.79 190.63 263.33"/><text class="cls-24" transform="translate(179.83 342.58)">P1</text><text class="cls-24" transform="translate(97.63 152.32)">P2</text><text class="cls-24" transform="translate(283.27 152.32)">P3</text><text class="cls-25" transform="translate(88.99 87.94)">L2</text><text class="cls-25" transform="translate(295.12 87.94)">L3</text><text class="cls-26" transform="translate(273.29 243.93)">J3/1</text><text class="cls-27" transform="translate(182.81 201.35)">J1/2</text><text class="cls-28" transform="translate(99.83 279.34)">J2/3</text><text class="cls-29" transform="translate(16.73 28.54)">2’-dG-II</text></svg>