<svg id="图层_1" data-name="图层 1" xmlns="http://www.w3.org/2000/svg" viewBox="0 0 400 400"><defs><style>.cls-1,.cls-18,.cls-6{font-size:10.21px;}.cls-1,.cls-22{fill:#251e1c;}.cls-1,.cls-10,.cls-12,.cls-13,.cls-17,.cls-18,.cls-19,.cls-22,.cls-24,.cls-29,.cls-30,.cls-31,.cls-35,.cls-6{font-family:Arial-BoldMT, Arial;font-weight:700;}.cls-2{letter-spacing:0.94em;}.cls-3{fill:#adc8df;}.cls-4{fill:#e2af89;}.cls-12,.cls-15,.cls-16,.cls-17,.cls-18,.cls-19,.cls-21,.cls-24,.cls-5{fill:#262122;}.cls-13,.cls-14,.cls-6{fill:#b8131e;}.cls-7{letter-spacing:0.94em;}.cls-8{fill:#86b858;}.cls-9{fill:#b81a1f;}.cls-10,.cls-22,.cls-24{font-size:10.21px;}.cls-10{fill:#6f6a63;}.cls-11{fill:#e3af89;}.cls-12,.cls-13{font-size:10.2px;}.cls-15{font-size:9.19px;}.cls-15,.cls-37{font-family:ArialMT, Arial;}.cls-16{font-size:13.95px;font-family:MyriadPro-Regular, Myriad Pro;}.cls-17{font-size:10px;}.cls-19{font-size:12px;}.cls-20,.cls-25,.cls-28,.cls-34,.cls-36{fill:none;}.cls-20{stroke:#251e1c;stroke-width:1.58px;}.cls-20,.cls-25,.cls-28,.cls-34{stroke-miterlimit:10;}.cls-21{font-size:8px;font-family:Arial-ItalicMT, Arial;font-style:italic;}.cls-23{letter-spacing:0.94em;}.cls-25,.cls-28,.cls-34,.cls-36{stroke:#000;}.cls-25{stroke-width:1.42px;}.cls-26{fill:#e3ebc9;}.cls-27,.cls-29{fill:#b51116;}.cls-28{stroke-width:0.71px;}.cls-29,.cls-30,.cls-31{font-size:12.26px;}.cls-30,.cls-32{fill:#847d8a;}.cls-33{fill:#fff;}.cls-34{stroke-width:1.48px;}.cls-35,.cls-37{font-size:13.24px;}.cls-36{stroke-width:0.74px;}</style></defs><text class="cls-1" transform="translate(321.86 344.18)"><tspan class="cls-2">U</tspan><tspan x="16.99" y="0">G</tspan></text><rect class="cls-3" x="30.96" y="278.06" width="7.31" height="24.54"/><rect class="cls-4" x="96.97" y="278.49" width="7.31" height="24.53"/><rect class="cls-4" x="55.79" y="330.51" width="24.59" height="7.33"/><rect class="cls-4" x="55.79" y="330.51" width="24.59" height="7.33"/><rect class="cls-5" x="65.44" y="333.53" width="5.29" height="1.28"/><rect class="cls-4" x="55.79" y="320.22" width="24.59" height="7.33"/><rect class="cls-4" x="55.79" y="320.22" width="24.59" height="7.33"/><rect class="cls-5" x="65.44" y="323.25" width="5.29" height="1.28"/><text class="cls-6" transform="translate(56.06 337.83)">U</text><text class="cls-6" transform="translate(56.06 327.55)"><tspan class="cls-7">A</tspan><tspan x="16.96" y="0">U</tspan></text><text class="cls-6" transform="translate(73.02 337.83)">A</text><text class="cls-6" transform="translate(47.57 326.81)">C</text><text class="cls-6" transform="translate(83.72 321.95)">C</text><text class="cls-6" transform="translate(92.36 312.9)">A</text><text class="cls-6" transform="translate(38.4 320.66)">A</text><rect class="cls-5" x="33.83" y="287.63" width="1.25" height="5.28"/><rect class="cls-8" x="20.54" y="278" width="7.31" height="24.54"/><rect class="cls-5" x="23.57" y="287.63" width="1.25" height="5.28"/><rect class="cls-5" x="100.38" y="287.93" width="1.25" height="5.28"/><rect class="cls-5" x="110.44" y="287.93" width="1.25" height="5.28"/><text class="cls-6" transform="translate(35.94 273.89)">G</text><text class="cls-6" transform="translate(96.96 285.94)">C</text><text class="cls-6" transform="translate(96.59 302.64)">G</text><path class="cls-9" d="M110.93,278.87a3.47,3.47,0,1,1-3.48,3.47,3.46,3.46,0,0,1,3.48-3.47"/><path class="cls-5" d="M110.93,278.87v.31a3.16,3.16,0,1,1-3.16,3.16,3.15,3.15,0,0,1,3.16-3.16v-.63a3.79,3.79,0,1,0,3.78,3.79,3.79,3.79,0,0,0-3.78-3.79v.32"/><text class="cls-10" transform="translate(45.03 264.76)">A</text><text class="cls-10" transform="translate(54.44 261.23)">Y</text><text class="cls-6" transform="translate(64.95 259.95)">C</text><text class="cls-6" transform="translate(76.22 261.55)">Y</text><text class="cls-6" transform="translate(84.03 265.72)">G</text><text class="cls-6" transform="translate(92.7 274.64)">C</text><path class="cls-9" d="M110.93,295.06a3.48,3.48,0,1,1-3.48,3.48,3.47,3.47,0,0,1,3.48-3.48"/><path class="cls-5" d="M110.93,295.06v.32a3.16,3.16,0,1,1-3.16,3.16,3.16,3.16,0,0,1,3.16-3.16v-.63a3.79,3.79,0,1,0,3.78,3.79,3.79,3.79,0,0,0-3.78-3.79v.31"/><text class="cls-6" transform="translate(31.02 286.13)">Y</text><text class="cls-6" transform="translate(30.67 302.09)">G</text><text class="cls-6" transform="translate(20.85 286.13)">Y</text><text class="cls-6" transform="translate(20.55 302.09)">R</text><path class="cls-9" d="M37,304.75a3.48,3.48,0,1,1-3.47,3.48A3.47,3.47,0,0,1,37,304.75"/><path class="cls-5" d="M37,304.75v.32a3.16,3.16,0,1,1-3.15,3.16A3.15,3.15,0,0,1,37,305.07v-.63a3.79,3.79,0,1,0,3.79,3.79A3.79,3.79,0,0,0,37,304.44v.31"/><rect class="cls-11" x="186.35" y="345.25" width="24.59" height="7.33"/><rect class="cls-5" x="196" y="348.37" width="5.29" height="1.1"/><rect class="cls-11" x="186.35" y="334.97" width="24.59" height="7.33"/><rect class="cls-5" x="196" y="338.08" width="5.29" height="1.1"/><text class="cls-12" transform="translate(186.35 342.29)">G</text><text class="cls-13" transform="translate(186.64 352.57)">U</text><text class="cls-13" transform="translate(168.62 333.27)">A</text><text class="cls-13" transform="translate(176.91 338.94)">U</text><text class="cls-13" transform="translate(161.44 325.64)">R</text><path class="cls-14" d="M234.84,267.83a3.48,3.48,0,1,1-3.49-3.48,3.48,3.48,0,0,1,3.49,3.48"/><path class="cls-5" d="M234.84,267.83h-.28a3.21,3.21,0,1,1-3.21-3.2,3.21,3.21,0,0,1,3.21,3.2h.55a3.76,3.76,0,1,0-3.76,3.76,3.75,3.75,0,0,0,3.76-3.76h-.27"/><text class="cls-13" transform="translate(235.06 307.43)">G</text><path class="cls-5" d="M236.34,322.2a3.48,3.48,0,1,1-3.48-3.47,3.49,3.49,0,0,1,3.48,3.47"/><text class="cls-10" transform="translate(166.28 266.97)">A</text><text class="cls-13" transform="translate(176.43 261.52)">U</text><text class="cls-13" transform="translate(187.67 258)">C</text><text class="cls-13" transform="translate(199.62 257.42)">C</text><text class="cls-13" transform="translate(210.57 259.17)">A</text><text class="cls-13" transform="translate(219.37 264.73)">C</text><path class="cls-5" d="M236.34,322.2h-.27a3.21,3.21,0,1,1-3.21-3.2,3.22,3.22,0,0,1,3.21,3.2h.55a3.76,3.76,0,1,0-3.76,3.76,3.75,3.75,0,0,0,3.76-3.76h-.28"/><text class="cls-13" transform="translate(203.29 342.29)">C</text><text class="cls-13" transform="translate(213.01 338.94)">C</text><text class="cls-13" transform="translate(203.57 352.57)">A</text><text class="cls-15" transform="translate(46.98 349.16)">5´</text><text class="cls-16" transform="translate(10.97 299.42)">...</text><text class="cls-16" transform="translate(10.97 282.73)">...</text><text class="cls-16" transform="translate(116.59 282.93)">...</text><text class="cls-16" transform="translate(116.59 299.3)">...</text><text class="cls-16" transform="translate(59.34 347.84) rotate(-90)">...</text><text class="cls-16" transform="translate(78.06 347.84) rotate(-90)">...</text><text class="cls-15" transform="translate(177.36 365.43)">5</text><text class="cls-15" transform="translate(177.36 365.43)">5´</text><text class="cls-16" transform="translate(190.38 364.1) rotate(-90)">...</text><text class="cls-16" transform="translate(208.44 364.1) rotate(-90)">...</text><text class="cls-17" transform="translate(92.7 333.23)">80</text><line class="cls-5" x1="93.81" y1="324.77" x2="90.9" y2="321.86"/><polyline class="cls-5" points="94 324.59 91.08 321.68 90.71 322.05 93.62 324.96"/><text class="cls-17" transform="translate(71.85 277.08)">58</text><rect class="cls-5" x="203.13" y="260.94" width="0.53" height="4.12"/><text class="cls-17" transform="translate(222.61 350.94)">78</text><line class="cls-5" x1="223.05" y1="342.48" x2="220.13" y2="339.57"/><polyline class="cls-5" points="223.23 342.29 220.32 339.38 219.95 339.75 222.86 342.67"/><rect class="cls-8" x="155.68" y="292.21" width="7.31" height="24.53"/><rect class="cls-5" x="158.62" y="301.78" width="1.25" height="5.28"/><rect class="cls-8" x="145.21" y="292.15" width="7.31" height="24.54"/><rect class="cls-5" x="148.24" y="301.78" width="1.25" height="5.28"/><text class="cls-6" transform="translate(155.85 316.23)">Y</text><text class="cls-18" transform="translate(144.91 300.26)">G</text><text class="cls-12" transform="translate(159.71 277.08)">Y</text><text class="cls-17" transform="translate(197.98 274)">51</text><text class="cls-13" transform="translate(154.61 287.94)">G</text><text class="cls-6" transform="translate(155.63 300.27)">R</text><text class="cls-16" transform="translate(135.7 313.57)">...</text><text class="cls-6" transform="translate(145.47 316.23)">Y</text><text class="cls-16" transform="translate(135.7 296.87)">...</text><rect class="cls-8" x="241.99" y="273.01" width="7.31" height="24.54"/><text class="cls-16" transform="translate(250.52 278.17)">...</text><text class="cls-16" transform="translate(250.52 294.53)">...</text><rect class="cls-8" x="231.61" y="273.01" width="7.31" height="24.54"/><rect class="cls-5" x="234.63" y="282.64" width="1.25" height="5.28"/><text class="cls-17" transform="translate(33.6 336.6)">31</text><line class="cls-5" x1="44.37" y1="329.87" x2="47.28" y2="326.96"/><polyline class="cls-5" points="44.56 330.06 47.47 327.15 47.1 326.77 44.18 329.69"/><text class="cls-17" transform="translate(163.81 349.26)">22</text><line class="cls-5" x1="174.58" y1="342.53" x2="177.49" y2="339.62"/><polyline class="cls-5" points="174.76 342.72 177.68 339.81 177.3 339.43 174.39 342.34"/><text class="cls-19" transform="translate(49.39 245.19)">2΄-dG-I</text><text class="cls-19" transform="translate(175.21 245.19)">2΄-dG-II</text><rect class="cls-5" x="244.95" y="282.66" width="1.25" height="5.28"/><text class="cls-10" transform="translate(241.96 281.16)">Y</text><text class="cls-10" transform="translate(242.17 297.12)">R</text><text class="cls-10" transform="translate(231.24 281.15)">R</text><text class="cls-10" transform="translate(231.79 297.12)">Y</text><path class="cls-14" d="M241.8,313.83a3.48,3.48,0,1,1-3.49-3.48,3.48,3.48,0,0,1,3.49,3.48"/><path class="cls-5" d="M241.8,313.83h-.28a3.21,3.21,0,1,1-3.21-3.2,3.21,3.21,0,0,1,3.21,3.2h.55a3.76,3.76,0,1,0-3.76,3.76,3.75,3.75,0,0,0,3.76-3.76h-.27"/><path class="cls-14" d="M229.39,330.16a3.48,3.48,0,1,1-3.49-3.48,3.48,3.48,0,0,1,3.49,3.48"/><path class="cls-5" d="M229.39,330.16h-.28a3.21,3.21,0,1,1-3.21-3.2,3.21,3.21,0,0,1,3.21,3.2h.55a3.76,3.76,0,1,0-3.76,3.76,3.75,3.75,0,0,0,3.76-3.76h-.27"/><path class="cls-20" d="M334.87,340.53a.7.7,0,0,1-.7.7.7.7,0,0,1-.71-.7.71.71,0,0,1,.71-.71A.7.7,0,0,1,334.87,340.53Z"/><path class="cls-20" d="M367.65,297.12a.71.71,0,0,1-1.41,0,.71.71,0,1,1,1.41,0Z"/><text class="cls-21" transform="translate(311.62 372.78)">Conserved<tspan x="0" y="9.6">nucleotides</tspan><tspan x="0" y="19.2">not depicted</tspan></text><text class="cls-15" transform="translate(313.39 356.27)">5´</text><text class="cls-16" transform="translate(278.05 299.62)">...</text><text class="cls-16" transform="translate(278.05 282.92)">...</text><text class="cls-16" transform="translate(381.25 289.28)">...</text><text class="cls-16" transform="translate(381.48 305.78)">...</text><text class="cls-16" transform="translate(325.75 354.94) rotate(-90)">...</text><text class="cls-16" transform="translate(344.47 354.94) rotate(-90)">...</text><rect class="cls-5" x="331.52" y="329.71" width="5.29" height="1.28"/><text class="cls-22" transform="translate(358.44 319.37)">A</text><text class="cls-1" transform="translate(312.51 328.95)">U</text><text class="cls-18" transform="translate(321.98 334.01)"><tspan class="cls-23">A</tspan><tspan x="17" y="0">U</tspan></text><text class="cls-1" transform="translate(349.8 328.42)">C</text><text class="cls-1" transform="translate(304.3 321.29)">A</text><rect class="cls-5" x="301.42" y="288.07" width="1.25" height="5.28"/><text class="cls-1" transform="translate(302.02 275.84)">G</text><text class="cls-1" transform="translate(357.3 272.54)">C</text><text class="cls-24" transform="translate(361.8 282.62)">A</text><text class="cls-22" transform="translate(373.27 309.24)">U</text><text class="cls-22" transform="translate(373.27 292.74)">A</text><text class="cls-22" transform="translate(363.43 292.74)">U</text><text class="cls-1" transform="translate(309.6 266.7)">C</text><text class="cls-24" transform="translate(319.01 261.67)">A</text><text class="cls-1" transform="translate(340.07 260.39)">U</text><text class="cls-1" transform="translate(350.49 264.84)">A</text><text class="cls-22" transform="translate(363.42 309.11)">U</text><rect class="cls-5" x="376.25" y="294.47" width="1.25" height="5.28"/><text class="cls-1" transform="translate(329.43 259.92)">A</text><text class="cls-17" transform="translate(298.8 338.68)">21</text><text class="cls-17" transform="translate(336.73 275.88)">49</text><text class="cls-17" transform="translate(359.32 339.97)">73</text><line class="cls-5" x1="309.56" y1="331.95" x2="312.47" y2="329.04"/><polyline class="cls-5" points="309.75 332.14 312.66 329.23 312.29 328.85 309.37 331.76"/><line class="cls-5" x1="359.89" y1="331.81" x2="356.98" y2="328.9"/><polyline class="cls-5" points="360.08 331.63 357.17 328.71 356.79 329.09 359.71 332"/><text class="cls-19" transform="translate(312.79 245.34)">2΄-dG-III</text><rect class="cls-5" x="291.34" y="288.09" width="1.25" height="5.28"/><text class="cls-22" transform="translate(299.78 286.38)">G</text><text class="cls-22" transform="translate(288.45 286.38)">G</text><text class="cls-22" transform="translate(299.03 302.75)">C</text><text class="cls-22" transform="translate(287.69 302.75)">C</text><text class="cls-1" transform="translate(298.2 312.9)">U</text><rect class="cls-5" x="343.4" y="262.43" width="0.53" height="4.12"/><rect class="cls-5" x="79.31" y="263.66" width="0.53" height="4.12"/><line class="cls-25" x1="193.58" y1="187.79" x2="199.94" y2="187.79"/><line class="cls-25" x1="193.58" y1="175.43" x2="199.94" y2="175.43"/><rect class="cls-26" x="181.99" y="158.68" width="29.54" height="8.8"/><line class="cls-25" x1="193.58" y1="163.08" x2="199.94" y2="163.08"/><rect class="cls-26" x="181.99" y="146.32" width="29.54" height="8.8"/><line class="cls-25" x1="193.58" y1="150.72" x2="199.94" y2="150.72"/><rect class="cls-26" x="181.99" y="133.96" width="29.54" height="8.8"/><line class="cls-25" x1="193.58" y1="138.36" x2="199.94" y2="138.36"/><rect class="cls-26" x="181.99" y="121.61" width="29.54" height="8.8"/><line class="cls-25" x1="193.58" y1="126.01" x2="199.94" y2="126.01"/><rect class="cls-26" x="181.99" y="109.25" width="29.54" height="8.8"/><line class="cls-25" x1="193.58" y1="113.65" x2="199.94" y2="113.65"/><rect class="cls-26" x="181.99" y="96.89" width="29.54" height="8.8"/><line class="cls-25" x1="193.58" y1="101.29" x2="199.94" y2="101.29"/><line class="cls-25" x1="156.67" y1="59.55" x2="157.44" y2="53.25"/><line class="cls-25" x1="144.4" y1="58.04" x2="145.18" y2="51.74"/><polyline class="cls-26" points="125.58 67.59 129.23 37.91 139.47 39.17 135.82 68.85 125.58 67.59"/><line class="cls-25" x1="132.14" y1="56.53" x2="132.92" y2="50.22"/><polyline class="cls-26" points="113.32 66.08 116.97 36.4 127.21 37.66 123.56 67.34 113.32 66.08"/><line class="cls-25" x1="119.87" y1="55.02" x2="120.65" y2="48.72"/><polyline class="cls-26" points="101.05 64.57 104.71 34.89 114.94 36.15 111.29 65.83 101.05 64.57"/><line class="cls-25" x1="107.61" y1="53.51" x2="108.39" y2="47.21"/><polyline class="cls-26" points="88.79 63.06 92.44 33.38 102.68 34.63 99.02 64.32 88.79 63.06"/><line class="cls-25" x1="95.34" y1="52" x2="96.12" y2="45.69"/><line class="cls-25" x1="83.08" y1="50.49" x2="83.86" y2="44.18"/><line class="cls-25" x1="236.69" y1="65.25" x2="235.56" y2="71.51"/><polyline class="cls-26" points="256.06 56.55 250.67 86.43 240.52 84.6 245.91 54.72 256.06 56.55"/><line class="cls-25" x1="248.85" y1="67.45" x2="247.72" y2="73.7"/><polyline class="cls-26" points="268.22 58.74 262.83 88.62 252.68 86.79 258.07 56.91 268.22 58.74"/><line class="cls-25" x1="261.01" y1="69.64" x2="259.89" y2="75.89"/><polyline class="cls-26" points="280.38 60.93 274.99 90.81 264.84 88.98 270.23 59.1 280.38 60.93"/><line class="cls-25" x1="273.17" y1="71.83" x2="272.05" y2="78.08"/><polyline class="cls-26" points="292.54 63.13 287.15 93 277 91.17 282.39 61.3 292.54 63.13"/><line class="cls-25" x1="285.34" y1="74.02" x2="284.21" y2="80.28"/><line class="cls-25" x1="297.5" y1="76.21" x2="296.37" y2="82.47"/><line class="cls-25" x1="309.66" y1="78.41" x2="308.53" y2="84.66"/><path class="cls-27" d="M190.93,187.79a4.18,4.18,0,1,1-4.18-4.18,4.18,4.18,0,0,1,4.18,4.18"/><path class="cls-28" d="M190.93,187.79a4.18,4.18,0,1,1-4.18-4.18A4.18,4.18,0,0,1,190.93,187.79Z"/><path class="cls-27" d="M190.93,175.43a4.18,4.18,0,1,1-4.18-4.18,4.18,4.18,0,0,1,4.18,4.18"/><path class="cls-28" d="M190.93,175.43a4.18,4.18,0,1,1-4.18-4.18A4.18,4.18,0,0,1,190.93,175.43Z"/><text class="cls-29" transform="translate(182.33 118.05)">U</text><text class="cls-29" transform="translate(182.33 130.41)">R</text><text class="cls-30" transform="translate(182.67 142.76)">Y</text><text class="cls-31" transform="translate(182.67 155.12)">Y</text><text class="cls-30" transform="translate(182.67 167.48)">Y</text><text class="cls-29" transform="translate(170.93 100.94)">U</text><text class="cls-31" transform="translate(182.67 105.69)">A</text><text class="cls-29" transform="translate(161.8 93)">A</text><path class="cls-27" d="M163.34,78.23a4.18,4.18,0,1,1-4.18-4.18,4.18,4.18,0,0,1,4.18,4.18"/><path class="cls-28" d="M163.34,78.23a4.18,4.18,0,1,1-4.18-4.18A4.18,4.18,0,0,1,163.34,78.23Z"/><path d="M160,66.33a4.18,4.18,0,1,1-4.18-4.18A4.18,4.18,0,0,1,160,66.33"/><path class="cls-28" d="M160,66.33a4.18,4.18,0,1,1-4.18-4.18A4.18,4.18,0,0,1,160,66.33Z"/><path class="cls-27" d="M86.42,57.27a4.18,4.18,0,1,1-4.18-4.18,4.18,4.18,0,0,1,4.18,4.18"/><path class="cls-28" d="M86.42,57.27a4.18,4.18,0,1,1-4.18-4.18A4.18,4.18,0,0,1,86.42,57.27Z"/><text class="cls-31" transform="translate(55.5 67.59)">A</text><text class="cls-30" transform="translate(67.49 68.45)">R</text><text class="cls-30" transform="translate(90.08 63.18)">R</text><text class="cls-30" transform="translate(102.34 64.68)">R</text><text class="cls-30" transform="translate(114.94 66.19)">Y</text><text class="cls-30" transform="translate(127.2 67.7)">Y</text><text class="cls-30" transform="translate(139.46 69.21)">Y</text><text class="cls-30" transform="translate(45.83 59.44)">U</text><text class="cls-30" transform="translate(43.69 47.34)">A</text><path class="cls-32" d="M88.87,37.41a4.18,4.18,0,1,1-4.18-4.18,4.18,4.18,0,0,1,4.18,4.18"/><path class="cls-28" d="M88.87,37.41a4.18,4.18,0,1,1-4.18-4.18A4.18,4.18,0,0,1,88.87,37.41Z"/><text class="cls-30" transform="translate(141.59 49.36)">R</text><path class="cls-27" d="M162.46,46.47a4.18,4.18,0,1,1-4.18-4.18,4.18,4.18,0,0,1,4.18,4.18"/><path class="cls-28" d="M162.46,46.47a4.18,4.18,0,1,1-4.18-4.18A4.18,4.18,0,0,1,162.46,46.47Z"/><text class="cls-30" transform="translate(49.06 36.21)">Y</text><text class="cls-29" transform="translate(59.38 30.57)">G</text><text class="cls-29" transform="translate(71.54 32.74)">G</text><text class="cls-30" transform="translate(92.87 43.33)">Y</text><text class="cls-30" transform="translate(105.13 44.84)">Y</text><text class="cls-30" transform="translate(117.06 46.34)">R</text><text class="cls-30" transform="translate(129.32 47.85)">R</text><path class="cls-27" d="M254.24,60.73a4.18,4.18,0,1,1-4.18-4.18,4.18,4.18,0,0,1,4.18,4.18"/><path class="cls-28" d="M254.24,60.73a4.18,4.18,0,1,1-4.18-4.18A4.18,4.18,0,0,1,254.24,60.73Z"/><path class="cls-27" d="M290.73,67.3a4.19,4.19,0,1,1-4.18-4.18,4.18,4.18,0,0,1,4.18,4.18"/><text class="cls-29" transform="translate(159.63 40.13)">G</text><text class="cls-29" transform="translate(168.99 31.7)">U</text><text class="cls-31" transform="translate(180.45 26.31)">Y</text><text class="cls-29" transform="translate(192.33 24.46)">U</text><text class="cls-29" transform="translate(204.55 26.31)">C</text><text class="cls-29" transform="translate(215.67 31.7)">U</text><text class="cls-29" transform="translate(225.04 40.13)">A</text><text class="cls-29" transform="translate(230.81 50.87)">C</text><path class="cls-28" d="M290.73,67.3a4.19,4.19,0,1,1-4.18-4.18A4.18,4.18,0,0,1,290.73,67.3Z"/><text class="cls-30" transform="translate(233.81 62.94)">Y</text><text class="cls-30" transform="translate(257.8 67.32)">R</text><text class="cls-30" transform="translate(269.96 69.51)">R</text><path class="cls-27" d="M302.89,69.5a4.18,4.18,0,1,1-4.18-4.18,4.18,4.18,0,0,1,4.18,4.18"/><path class="cls-28" d="M302.89,69.5a4.18,4.18,0,1,1-4.18-4.18A4.18,4.18,0,0,1,302.89,69.5Z"/><path class="cls-33" d="M315.05,71.69a4.18,4.18,0,1,1-4.18-4.18,4.18,4.18,0,0,1,4.18,4.18"/><path class="cls-28" d="M315.05,71.69a4.18,4.18,0,1,1-4.18-4.18A4.18,4.18,0,0,1,315.05,71.69Z"/><text class="cls-29" transform="translate(317.14 69.9)">C</text><text class="cls-29" transform="translate(329.39 71.44)">C</text><text class="cls-30" transform="translate(338.22 80.09)">R</text><text class="cls-30" transform="translate(340.37 92.31)">Y</text><path class="cls-32" d="M342.68,98.73a4.18,4.18,0,1,1-4.18-4.18,4.18,4.18,0,0,1,4.18,4.18"/><path class="cls-28" d="M342.68,98.73a4.18,4.18,0,1,1-4.18-4.18A4.18,4.18,0,0,1,342.68,98.73Z"/><text class="cls-31" transform="translate(311.09 105.31)">A</text><text class="cls-31" transform="translate(323.12 108.14)">A</text><path class="cls-33" d="M311.5,91.38a4.18,4.18,0,1,1-4.18-4.18,4.18,4.18,0,0,1,4.18,4.18"/><path class="cls-28" d="M311.5,91.38a4.18,4.18,0,1,1-4.18-4.18A4.18,4.18,0,0,1,311.5,91.38Z"/><path class="cls-27" d="M299.34,89.19A4.18,4.18,0,1,1,295.16,85a4.18,4.18,0,0,1,4.18,4.19"/><path class="cls-28" d="M299.34,89.19A4.18,4.18,0,1,1,295.16,85,4.18,4.18,0,0,1,299.34,89.19Z"/><path class="cls-27" d="M287.18,87A4.18,4.18,0,1,1,283,82.81,4.19,4.19,0,0,1,287.18,87"/><path class="cls-28" d="M287.18,87A4.18,4.18,0,1,1,283,82.81,4.19,4.19,0,0,1,287.18,87Z"/><path class="cls-27" d="M250.69,80.42a4.18,4.18,0,1,1-4.18-4.18,4.18,4.18,0,0,1,4.18,4.18"/><text class="cls-30" transform="translate(229.58 82.63)">G</text><text class="cls-30" transform="translate(254.59 87)">Y</text><text class="cls-30" transform="translate(266.75 89.2)">Y</text><path class="cls-28" d="M250.69,80.42a4.18,4.18,0,1,1-4.18-4.18A4.18,4.18,0,0,1,250.69,80.42Z"/><text class="cls-31" transform="translate(213.74 100.93)">C</text><text class="cls-30" transform="translate(223.56 93.01)">A</text><text class="cls-31" transform="translate(202.34 105.7)">U</text><path class="cls-27" d="M210.94,175.43a4.18,4.18,0,1,1-4.18-4.18,4.18,4.18,0,0,1,4.18,4.18"/><path class="cls-28" d="M210.94,175.43a4.18,4.18,0,1,1-4.18-4.18A4.18,4.18,0,0,1,210.94,175.43Z"/><path class="cls-27" d="M210.94,187.79a4.18,4.18,0,1,1-4.18-4.18,4.18,4.18,0,0,1,4.18,4.18"/><text class="cls-29" transform="translate(202.67 118.05)">A</text><text class="cls-29" transform="translate(202.67 130.4)">Y</text><text class="cls-30" transform="translate(202.33 142.76)">R</text><text class="cls-31" transform="translate(202.33 155.12)">R</text><text class="cls-30" transform="translate(202.33 167.48)">R</text><path class="cls-28" d="M210.94,187.79a4.18,4.18,0,1,1-4.18-4.18A4.18,4.18,0,0,1,210.94,187.79Z"/><path class="cls-34" d="M186.75,193.61a2.91,2.91,0,0,1-2.91,2.92H178"/><text class="cls-31" transform="translate(166.41 200.93)">5´</text><text class="cls-35" transform="translate(237.3 23.88)">51</text><line class="cls-36" x1="226.61" y1="23.54" x2="235.86" y2="19.71"/><text class="cls-35" transform="translate(150.63 121.46)">22</text><line class="cls-36" x1="170.86" y1="101.63" x2="164.7" y2="109.52"/><text class="cls-35" transform="translate(228.69 121.46)">74</text><line class="cls-36" x1="222.9" y1="101.63" x2="229.06" y2="109.52"/><text class="cls-37" transform="translate(162.3 151.1)">P1</text><text class="cls-37" transform="translate(115.1 29.39)">P2</text><text class="cls-37" transform="translate(270.16 52.87)">P3</text><text class="cls-19" transform="translate(91.35 158.68)">Guanine-I</text></svg>