<svg id="图层_1" data-name="图层 1" xmlns="http://www.w3.org/2000/svg" viewBox="0 0 400 400"><defs><style>.cls-1,.cls-10,.cls-11,.cls-12,.cls-14,.cls-16,.cls-2,.cls-20,.cls-21,.cls-22,.cls-23,.cls-24,.cls-25,.cls-26,.cls-27,.cls-28,.cls-4,.cls-5,.cls-6,.cls-9{isolation:isolate;}.cls-1,.cls-10,.cls-11,.cls-12,.cls-2,.cls-5,.cls-6,.cls-9{font-size:14.9px;}.cls-1,.cls-2,.cls-21{fill:#ff870a;}.cls-1,.cls-10,.cls-11,.cls-12,.cls-14,.cls-15,.cls-16,.cls-2,.cls-20,.cls-21,.cls-22,.cls-23,.cls-24,.cls-25,.cls-27,.cls-4,.cls-5,.cls-6,.cls-9{font-family:ArialMT, Arial;}.cls-1,.cls-10,.cls-12,.cls-5{letter-spacing:-0.06em;}.cls-13,.cls-17,.cls-18,.cls-3,.cls-7{fill:none;}.cls-17,.cls-18,.cls-19,.cls-3,.cls-7,.cls-8{stroke:#000;}.cls-17,.cls-3,.cls-7,.cls-8{stroke-miterlimit:1.33;}.cls-3,.cls-8{stroke-width:0.17px;}.cls-4{font-size:10.41px;}.cls-23,.cls-25,.cls-5,.cls-6{fill:#80db9e;}.cls-7{stroke-width:1.07px;}.cls-10,.cls-20,.cls-24,.cls-9{fill:#ffaadc;}.cls-11,.cls-12,.cls-22{fill:#09fefe;}.cls-13{stroke:#ff0b0c;}.cls-13,.cls-18,.cls-19{stroke-miterlimit:1.33;}.cls-14,.cls-15,.cls-16{font-size:12.04px;fill:#ff0b0c;}.cls-16{letter-spacing:-0.02em;}.cls-17{stroke-dasharray:2;}.cls-18,.cls-19{stroke-width:0.17px;}.cls-19{fill:#fff;}.cls-20,.cls-21,.cls-22,.cls-23{font-size:28.26px;}.cls-24,.cls-25{font-size:20.82px;}.cls-27,.cls-28{font-size:20px;}.cls-28{font-family:TimesNewRomanPSMT, Times New Roman;}</style></defs><g id="ID000002"><text class="cls-1" transform="translate(227.73 256.36)">A</text></g><g id="ID000003"><text class="cls-1" transform="translate(212.65 256.36)">A</text></g><g id="ID000004"><text class="cls-2" transform="translate(197.17 256.36)">C</text></g><g id="ID000005"><text class="cls-1" transform="translate(178.73 256.36)">A</text></g><g id="ID000006"><text class="cls-1" transform="translate(159.88 252.59)">A</text></g><g id="ID000007"><text class="cls-2" transform="translate(140.63 245.05)">U</text></g><g id="ID000008"><text class="cls-2" transform="translate(181.67 211.13)">G</text></g><g id="ID000009"><text class="cls-1" transform="translate(182.5 226.21)">A</text></g><g id="ID000010"><text class="cls-2" transform="translate(196.75 226.21)">G</text></g><g id="ID000011"><text class="cls-2" transform="translate(212.24 226.21)">U</text></g><g id="ID000012"><text class="cls-2" transform="translate(227.32 226.21)">U</text></g><g id="ID000013"><line class="cls-3" x1="239.8" y1="216.48" x2="246.91" y2="209.37"/></g><g id="ID000014"><text class="cls-4" transform="translate(246.91 210.8)">60</text></g><g id="ID000015"><text class="cls-5" transform="translate(227.73 207.36)">A</text></g><g id="ID000016"><text class="cls-6" transform="translate(226.91 192.29)">G</text></g><g id="ID000017"><line class="cls-7" x1="232.7" y1="266.16" x2="232.7" y2="255.61"/></g><g id="ID000019"><line class="cls-3" x1="232.7" y1="243.54" x2="232.7" y2="225.45"/></g><g id="ID000020"><line class="cls-3" x1="217.62" y1="243.54" x2="217.62" y2="225.45"/></g><g id="ID000021"><line class="cls-3" x1="202.54" y1="243.54" x2="202.54" y2="225.45"/></g><g id="ID000022"><polyline class="cls-7" points="68.36 79.96 59.32 79.96 59.32 144.04 93.24 144.04 187.47 144.04 187.47 198.31"/></g><g id="ID000023"><polygon class="cls-8" points="191.99 166.15 189.73 168.66 188.97 171.18 188.6 173.69 187.47 178.72 186.34 173.69 185.96 171.18 185.21 168.66 182.94 166.15 191.99 166.15"/></g><g id="ID000024"><line class="cls-7" x1="236.04" y1="180.48" x2="259.51" y2="145.29"/></g><g id="ID000025"><polygon class="cls-8" points="241.22 164.56 244.5 163.72 246.52 162.05 248.23 160.17 251.96 156.61 250.11 161.42 249.03 163.72 248.26 166.23 248.75 169.57 241.22 164.56"/></g><g id="ID000027"><text class="cls-2" transform="translate(140.21 226.21)">G</text></g><g id="ID000028"><line class="cls-3" x1="140.98" y1="224.45" x2="133.87" y2="231.55"/></g><g id="ID000029"><text class="cls-4" transform="translate(122.51 238.94)">20</text></g><g id="ID000030"><text class="cls-1" transform="translate(141.04 211.13)">A</text></g><g id="ID000031"><text class="cls-9" transform="translate(69.02 116.9)">U</text></g><g id="ID000032"><text class="cls-9" transform="translate(83.68 116.9)">G</text></g><g id="ID000033"><text class="cls-10" transform="translate(99.58 116.9)">A</text></g><g id="ID000034"><text class="cls-10" transform="translate(114.66 116.9)">A</text></g><g id="ID000035"><text class="cls-9" transform="translate(129.32 116.9)">U</text></g><g id="ID000036"><text class="cls-9" transform="translate(143.98 116.9)">G</text></g><g id="ID000037"><text class="cls-9" transform="translate(159.06 116.9)">G</text></g><g id="ID000038"><text class="cls-9" transform="translate(174.13 116.9)">G</text></g><g id="ID000039"><text class="cls-9" transform="translate(189.63 116.9)">U</text></g><g id="ID000040"><line class="cls-3" x1="195.01" y1="120.17" x2="195.01" y2="130.22"/></g><g id="ID000041"><text class="cls-4" transform="translate(189.84 137.6)">30</text></g><g id="ID000042"><text class="cls-9" transform="translate(204.7 116.9)">U</text></g><g id="ID000043"><text class="cls-9" transform="translate(213.93 130.29)">U</text></g><g id="ID000044"><text class="cls-10" transform="translate(225.65 130.29)">A</text></g><g id="ID000045"><text class="cls-10" transform="translate(236.95 130.29)">A</text></g><g id="ID000046"><text class="cls-9" transform="translate(302.7 128.21)">U</text></g><g id="ID000047"><text class="cls-9" transform="translate(204.29 86.75)">G</text></g><g id="ID000048"><text class="cls-10" transform="translate(190.04 86.75)">A</text></g><g id="ID000049"><text class="cls-9" transform="translate(174.55 86.75)">C</text></g><g id="ID000050"><text class="cls-9" transform="translate(159.47 86.75)">U</text></g><g id="ID000051"><text class="cls-9" transform="translate(144.4 86.75)">C</text></g><g id="ID000052"><line class="cls-3" x1="149.78" y1="75.12" x2="149.78" y2="65.06"/></g><g id="ID000053"><text class="cls-4" transform="translate(144.61 64.42)">50</text></g><g id="ID000054"><text class="cls-10" transform="translate(129.73 86.75)">A</text></g><g id="ID000055"><text class="cls-9" transform="translate(114.24 86.75)">U</text></g><g id="ID000056"><text class="cls-9" transform="translate(99.17 86.75)">U</text></g><g id="ID000057"><text class="cls-9" transform="translate(84.09 86.75)">U</text></g><g id="ID000058"><text class="cls-9" transform="translate(69.02 86.75)">U</text></g><g id="ID000059"><polyline class="cls-7" points="139.98 204.34 138.47 204.34 74.39 204.34 74.39 116.15"/></g><g id="ID000060"><polygon class="cls-8" points="111.46 208.87 108.94 206.61 106.43 205.85 103.92 205.48 98.89 204.34 103.92 203.21 106.43 202.84 108.94 202.08 111.46 199.82 111.46 208.87"/></g><g id="ID000061"><polygon class="cls-8" points="89.47 92.02 89.28 92.03 89.09 92.05 88.9 92.08 88.71 92.12 88.53 92.17 88.35 92.24 88.17 92.32 88 92.41 87.84 92.5 87.68 92.61 87.53 92.73 87.39 92.86 87.25 92.99 87.13 93.14 87.01 93.29 86.91 93.45 86.81 93.61 86.73 93.79 86.65 93.96 86.59 94.14 86.54 94.33 86.5 94.52 86.47 94.7 86.46 94.9 86.45 95.09 86.46 95.28 86.48 95.47 86.52 95.66 86.56 95.84 86.62 96.03 86.69 96.2 86.77 96.38 86.86 96.55 86.96 96.71 87.07 96.86 87.19 97.01 87.32 97.15 87.46 97.29 87.61 97.41 87.76 97.52 87.92 97.63 88.09 97.72 88.26 97.8 88.44 97.87 88.62 97.93 88.81 97.98 88.99 98.02 89.18 98.04 89.37 98.05 89.56 98.05 89.75 98.04 89.94 98.02 90.13 97.98 90.32 97.93 90.5 97.87 90.68 97.8 90.85 97.72 91.02 97.63 91.18 97.52 91.33 97.41 91.48 97.29 91.62 97.15 91.75 97.01 91.87 96.86 91.98 96.71 92.08 96.55 92.17 96.38 92.25 96.2 92.32 96.03 92.38 95.84 92.42 95.66 92.45 95.47 92.47 95.28 92.48 95.09 92.48 94.9 92.47 94.7 92.44 94.52 92.4 94.33 92.35 94.14 92.29 93.96 92.21 93.79 92.13 93.61 92.03 93.45 91.92 93.29 91.81 93.14 91.68 92.99 91.55 92.86 91.41 92.73 91.26 92.61 91.1 92.5 90.94 92.41 90.77 92.32 90.59 92.24 90.41 92.17 90.23 92.12 90.04 92.08 89.85 92.05 89.66 92.03 89.47 92.02"/></g><g id="ID000062"><line class="cls-3" x1="104.55" y1="104.09" x2="104.55" y2="85.99"/></g><g id="ID000063"><line class="cls-3" x1="119.62" y1="104.09" x2="119.62" y2="85.99"/></g><g id="ID000064"><line class="cls-3" x1="134.7" y1="104.09" x2="134.7" y2="85.99"/></g><g id="ID000065"><line class="cls-3" x1="149.78" y1="104.09" x2="149.78" y2="85.99"/></g><g id="ID000066"><polygon class="cls-8" points="164.85 92.02 164.66 92.03 164.47 92.05 164.28 92.08 164.09 92.12 163.91 92.17 163.73 92.24 163.56 92.32 163.39 92.41 163.22 92.5 163.06 92.61 162.91 92.73 162.77 92.86 162.64 92.99 162.51 93.14 162.4 93.29 162.29 93.45 162.19 93.61 162.11 93.79 162.03 93.96 161.97 94.14 161.92 94.33 161.88 94.52 161.86 94.7 161.84 94.9 161.84 95.09 161.85 95.28 161.87 95.47 161.9 95.66 161.95 95.84 162 96.03 162.07 96.2 162.15 96.38 162.24 96.55 162.34 96.71 162.45 96.86 162.57 97.01 162.7 97.15 162.84 97.29 162.99 97.41 163.14 97.52 163.3 97.63 163.47 97.72 163.64 97.8 163.82 97.87 164 97.93 164.19 97.98 164.38 98.02 164.57 98.04 164.76 98.05 164.95 98.05 165.14 98.04 165.33 98.02 165.52 97.98 165.7 97.93 165.88 97.87 166.06 97.8 166.23 97.72 166.4 97.63 166.56 97.52 166.72 97.41 166.86 97.29 167 97.15 167.13 97.01 167.25 96.86 167.36 96.71 167.46 96.55 167.55 96.38 167.63 96.2 167.7 96.03 167.76 95.84 167.8 95.66 167.84 95.47 167.86 95.28 167.87 95.09 167.86 94.9 167.85 94.7 167.82 94.52 167.78 94.33 167.73 94.14 167.67 93.96 167.59 93.79 167.51 93.61 167.41 93.45 167.31 93.29 167.19 93.14 167.07 92.99 166.93 92.86 166.79 92.73 166.64 92.61 166.48 92.5 166.32 92.41 166.15 92.32 165.97 92.24 165.79 92.17 165.61 92.12 165.42 92.08 165.23 92.05 165.04 92.03 164.85 92.02"/></g><g id="ID000067"><line class="cls-3" x1="179.93" y1="104.09" x2="179.93" y2="85.99"/></g><g id="ID000068"><line class="cls-3" x1="195.01" y1="104.09" x2="195.01" y2="85.99"/></g><g id="ID000069"><polygon class="cls-8" points="210.08 92.02 209.89 92.03 209.7 92.05 209.51 92.08 209.32 92.12 209.14 92.17 208.96 92.24 208.79 92.32 208.62 92.41 208.45 92.5 208.29 92.61 208.14 92.73 208 92.86 207.87 92.99 207.74 93.14 207.63 93.29 207.52 93.45 207.42 93.61 207.34 93.79 207.26 93.96 207.2 94.14 207.15 94.33 207.11 94.52 207.09 94.7 207.07 94.9 207.07 95.09 207.08 95.28 207.1 95.47 207.13 95.66 207.18 95.84 207.23 96.03 207.3 96.2 207.38 96.38 207.47 96.55 207.57 96.71 207.68 96.86 207.8 97.01 207.93 97.15 208.07 97.29 208.22 97.41 208.37 97.52 208.53 97.63 208.7 97.72 208.87 97.8 209.05 97.87 209.23 97.93 209.42 97.98 209.61 98.02 209.79 98.04 209.99 98.05 210.18 98.05 210.37 98.04 210.56 98.02 210.75 97.98 210.93 97.93 211.11 97.87 211.29 97.8 211.46 97.72 211.63 97.63 211.79 97.52 211.95 97.41 212.09 97.29 212.23 97.15 212.36 97.01 212.48 96.86 212.59 96.71 212.69 96.55 212.78 96.38 212.86 96.2 212.93 96.03 212.99 95.84 213.03 95.66 213.07 95.47 213.09 95.28 213.1 95.09 213.09 94.9 213.08 94.7 213.05 94.52 213.01 94.33 212.96 94.14 212.9 93.96 212.82 93.79 212.74 93.61 212.64 93.45 212.54 93.29 212.42 93.14 212.3 92.99 212.16 92.86 212.02 92.73 211.87 92.61 211.71 92.5 211.55 92.41 211.38 92.32 211.2 92.24 211.02 92.17 210.84 92.12 210.65 92.08 210.46 92.05 210.27 92.03 210.08 92.02"/></g><line class="cls-7" x1="246.91" y1="130.23" x2="324.66" y2="130.02"/><g id="ID000071"><polygon class="cls-8" points="281.18 125.72 283.7 127.98 286.21 128.72 288.73 129.09 293.76 130.21 288.74 131.35 286.22 131.74 283.71 132.5 281.21 134.77 281.18 125.72"/></g><g id="ID000072"><polyline class="cls-7" points="308.08 115.39 308.08 79.96 216.11 79.96"/></g><g id="ID000073"><polygon class="cls-8" points="267.12 84.49 264.61 82.22 262.1 81.47 259.58 81.09 254.56 79.96 259.58 78.83 262.1 78.45 264.61 77.7 267.12 75.44 267.12 84.49"/></g><g id="ID000075"><text class="cls-10" transform="translate(325.73 135.74)">A</text></g><g id="ID000076"><text class="cls-9" transform="translate(325.71 149.95)">U</text></g><g id="ID000077"><text class="cls-9" transform="translate(325.32 222.44)">U</text></g><g id="ID000078"><text class="cls-6" transform="translate(302.29 263.9)">G</text></g><g id="ID000079"><text class="cls-6" transform="translate(302.29 248.82)">G</text></g><g id="ID000080"><text class="cls-5" transform="translate(272.96 233.75)">A</text></g><g id="ID000084"><text class="cls-6" transform="translate(272.55 263.9)">C</text></g><g id="ID000086"><line class="cls-7" x1="330.7" y1="150.13" x2="330.7" y2="209.62"/></g><g id="ID000087"><polygon class="cls-8" points="335.22 176.71 332.96 179.22 332.2 181.73 331.83 184.24 330.69 189.27 329.56 184.24 329.19 181.73 328.43 179.22 326.17 176.71 335.22 176.71"/></g><g id="ID000088"><polyline class="cls-7" points="330.69 221.68 330.69 223.19 330.69 223.19 330.69 257.11 314.11 257.11"/></g><g id="ID000089"><polygon class="cls-8" points="335.22 235.13 332.96 237.64 332.2 240.15 331.83 242.66 330.69 247.69 329.56 242.66 329.19 240.15 328.43 237.64 326.17 235.13 335.22 235.13"/></g><g id="ID000090"><line class="cls-3" x1="302.05" y1="257.11" x2="283.96" y2="257.11"/></g><g id="ID000091"><line class="cls-7" x1="308.08" y1="236.01" x2="308.08" y2="206.61"/></g><g id="ID000092"><polygon class="cls-8" points="303.56 226.33 305.82 223.82 306.57 221.31 306.95 218.79 308.08 213.77 309.21 218.79 309.59 221.31 310.34 223.82 312.6 226.33 303.56 226.33"/></g><g id="ID000093"><line class="cls-3" x1="302.05" y1="242.04" x2="283.96" y2="242.04"/></g><g id="ID000095"><text class="cls-6" transform="translate(302.29 207.36)">G</text></g><g id="ID000096"><line class="cls-3" x1="314.75" y1="201" x2="323.24" y2="206.39"/></g><g id="ID000097"><text class="cls-4" transform="translate(316.45 213.77)">40</text></g><g id="ID000098"><text class="cls-6" transform="translate(302.7 192.29)">C</text></g><g id="ID000099"><text class="cls-5" transform="translate(303.11 177.21)">A</text></g><g id="ID000100"><text class="cls-6" transform="translate(302.7 162.13)">C</text></g><g id="ID000101"><text class="cls-6" transform="translate(302.7 147.05)">U</text></g><g id="ID000102"><text class="cls-6" transform="translate(257.47 147.05)">U</text></g><g id="ID000103"><text class="cls-5" transform="translate(272.96 147.05)">A</text></g><g id="ID000104"><text class="cls-6" transform="translate(272.13 162.13)">G</text></g><g id="ID000105"><text class="cls-6" transform="translate(272.55 177.21)">U</text></g><g id="ID000106"><text class="cls-6" transform="translate(272.13 192.29)">G</text></g><g id="ID000107"><text class="cls-6" transform="translate(272.55 207.36)">C</text></g><g id="ID000108"><text class="cls-5" transform="translate(272.96 222.44)">A</text></g><g id="ID000109"><line class="cls-3" x1="302.05" y1="200.58" x2="283.96" y2="200.58"/></g><g id="ID000110"><line class="cls-3" x1="302.05" y1="185.5" x2="283.96" y2="185.5"/></g><g id="ID000111"><line class="cls-3" x1="302.05" y1="170.42" x2="283.96" y2="170.42"/></g><g id="ID000112"><line class="cls-3" x1="302.05" y1="155.35" x2="283.96" y2="155.35"/></g><g id="ID000113"><line class="cls-3" x1="302.05" y1="140.27" x2="283.96" y2="140.27"/></g><g id="ID000115"><text class="cls-11" transform="translate(226.91 369.44)">G</text></g><g id="ID000116"><text class="cls-11" transform="translate(227.32 354.36)">C</text></g><g id="ID000117"><text class="cls-11" transform="translate(226.91 339.28)">G</text></g><g id="ID000118"><text class="cls-11" transform="translate(227.32 324.21)">C</text></g><g id="ID000119"><line class="cls-3" x1="225.77" y1="317.42" x2="215.72" y2="317.42"/></g><g id="ID000120"><text class="cls-4" transform="translate(201.23 321.08)">10</text></g><g id="ID000121"><text class="cls-11" transform="translate(226.91 309.13)">G</text></g><g id="ID000122"><text class="cls-11" transform="translate(226.91 294.05)">G</text></g><g id="ID000123"><text class="cls-12" transform="translate(227.73 278.98)">A</text></g><g id="ID000124"><text class="cls-12" transform="translate(257.88 278.98)">A</text></g><g id="ID000125"><text class="cls-11" transform="translate(257.47 294.05)">C</text></g><g id="ID000126"><text class="cls-11" transform="translate(257.47 309.13)">C</text></g><g id="ID000127"><text class="cls-11" transform="translate(257.06 324.21)">G</text></g><g id="ID000128"><text class="cls-11" transform="translate(257.47 339.28)">U</text></g><g id="ID000129"><text class="cls-11" transform="translate(257.06 354.36)">G</text></g><g id="ID000130"><text class="cls-11" transform="translate(257.47 369.44)">C</text></g><g id="ID000131"><line class="cls-3" x1="268.74" y1="362.65" x2="278.79" y2="362.65"/></g><g id="ID000132"><text class="cls-4" transform="translate(279.83 366.32)">80</text></g><g id="ID000133"><text class="cls-11" transform="translate(257.47 384.51)">U</text></g><g id="ID000134"><line class="cls-3" x1="238.73" y1="362.65" x2="256.82" y2="362.65"/></g><g id="ID000135"><line class="cls-3" x1="238.73" y1="347.57" x2="256.82" y2="347.57"/></g><g id="ID000136"><polygon class="cls-8" points="250.79 332.5 250.78 332.31 250.76 332.12 250.73 331.93 250.69 331.74 250.64 331.56 250.57 331.38 250.5 331.2 250.41 331.03 250.31 330.87 250.2 330.71 250.08 330.56 249.96 330.42 249.82 330.28 249.68 330.16 249.52 330.04 249.36 329.93 249.2 329.84 249.03 329.75 248.85 329.68 248.67 329.62 248.49 329.57 248.3 329.53 248.11 329.5 247.92 329.48 247.73 329.48 247.53 329.49 247.34 329.51 247.16 329.55 246.97 329.59 246.79 329.65 246.61 329.71 246.44 329.79 246.27 329.88 246.1 329.99 245.95 330.1 245.8 330.22 245.66 330.35 245.53 330.49 245.4 330.63 245.29 330.79 245.19 330.95 245.09 331.11 245.01 331.29 244.94 331.46 244.88 331.65 244.83 331.83 244.8 332.02 244.77 332.21 244.76 332.4 244.76 332.59 244.77 332.78 244.8 332.97 244.83 333.16 244.88 333.35 244.94 333.53 245.01 333.7 245.09 333.88 245.19 334.05 245.29 334.21 245.4 334.36 245.53 334.51 245.66 334.64 245.8 334.77 245.95 334.9 246.1 335.01 246.27 335.11 246.44 335.2 246.61 335.28 246.79 335.35 246.97 335.4 247.16 335.45 247.34 335.48 247.53 335.5 247.73 335.51 247.92 335.51 248.11 335.49 248.3 335.46 248.49 335.43 248.67 335.38 248.85 335.31 249.03 335.24 249.2 335.15 249.36 335.06 249.52 334.95 249.68 334.84 249.82 334.71 249.96 334.58 250.08 334.43 250.2 334.28 250.31 334.13 250.41 333.96 250.5 333.79 250.57 333.62 250.64 333.44 250.69 333.25 250.73 333.07 250.76 332.88 250.78 332.69 250.79 332.5"/></g><g id="ID000137"><line class="cls-3" x1="238.73" y1="317.42" x2="256.82" y2="317.42"/></g><g id="ID000138"><line class="cls-3" x1="238.73" y1="302.34" x2="256.82" y2="302.34"/></g><g id="ID000139"><line class="cls-3" x1="238.73" y1="287.27" x2="256.82" y2="287.27"/></g><g id="ID000107-2" data-name="ID000107"><text class="cls-6" transform="translate(271.86 249)">C</text></g><g id="ID000109-2" data-name="ID000109"><line class="cls-3" x1="324.66" y1="216.48" x2="282.1" y2="216.48"/></g><line class="cls-13" x1="253.09" y1="226.79" x2="252.52" y2="227.36"/><g id="ID000085"><text class="cls-6" transform="translate(256.67 265.15)">G</text></g><text class="cls-14" transform="translate(250.22 226.95)">G</text><text class="cls-15" transform="translate(259.59 230.96) scale(0.58)">α</text><g id="ID000043-2" data-name="ID000043"><text class="cls-14" transform="translate(253.18 247.99)">G</text><text class="cls-15" transform="translate(262.54 252) scale(0.58)">β</text></g><line class="cls-13" x1="251.1" y1="226.24" x2="242.68" y2="231.16"/><line class="cls-13" x1="242.68" y1="230.59" x2="251.28" y2="244.11"/><text class="cls-16" transform="translate(232.86 236.66)">P</text><line class="cls-13" x1="243.16" y1="237.68" x2="242.59" y2="238.34"/><line class="cls-13" x1="244.76" y1="235.98" x2="244.2" y2="236.55"/><line class="cls-13" x1="247.13" y1="233.62" x2="246.56" y2="234.28"/><line class="cls-13" x1="248.45" y1="232.39" x2="247.79" y2="232.96"/><line class="cls-13" x1="249.87" y1="230.88" x2="249.3" y2="231.54"/><line class="cls-13" x1="251.47" y1="229.27" x2="250.81" y2="229.93"/><line class="cls-13" x1="244.48" y1="239.67" x2="243.91" y2="239.1"/><line class="cls-13" x1="246.09" y1="241.18" x2="245.42" y2="240.61"/><line class="cls-13" x1="247.69" y1="242.6" x2="247.03" y2="242.03"/><line class="cls-13" x1="249.3" y1="244.11" x2="248.64" y2="243.54"/><line class="cls-13" x1="250.72" y1="245.43" x2="250.06" y2="244.87"/><text class="cls-16" transform="translate(234.58 245.03)">P</text><line class="cls-17" x1="261.14" y1="254.76" x2="258.22" y2="247.1"/><g id="ID000060-2" data-name="ID000060"><line class="cls-18" x1="259.01" y1="222.81" x2="273.5" y2="217.29"/></g><polygon class="cls-19" points="263.13 223.69 263.13 223.58 263.23 223.48 263.34 223.27 263.34 223.17 263.34 222.96 263.44 222.75 263.44 222.65 263.44 222.44 263.44 222.34 263.44 222.13 263.34 222.02 263.34 221.81 263.34 221.71 263.23 221.5 263.23 221.4 263.13 221.19 263.03 221.09 262.92 220.98 262.82 220.77 262.71 220.67 262.61 220.56 262.5 220.46 262.4 220.36 262.19 220.25 262.09 220.15 261.88 220.15 261.78 220.04 261.67 219.94 261.46 219.94 261.26 219.94 261.15 219.84 260.94 219.84 260.84 219.84 260.63 219.84 260.53 219.84 260.32 219.94 260.22 219.94 260.01 220.04 259.9 220.04 259.69 220.15 259.59 220.25 259.38 220.25 259.28 220.36 259.18 220.46 259.07 220.56 258.97 220.67 258.76 220.88 258.76 220.98 258.65 221.09 258.55 221.29 258.45 221.4 258.45 221.5 258.34 221.71 258.34 221.81 258.24 222.02 258.24 222.23 258.24 222.34 258.24 222.54 258.24 222.65 258.24 222.85 258.34 222.96 258.34 223.17 258.34 223.27 258.45 223.48 258.55 223.58 258.65 223.79 258.65 223.9 258.76 224 258.86 224.21 258.97 224.31 259.07 224.42 259.28 224.52 259.38 224.62 259.49 224.73 259.69 224.73 259.8 224.83 260.01 224.94 260.11 224.94 260.32 225.04 260.42 225.04 260.63 225.04 260.74 225.04 260.94 225.04 261.15 225.04 261.26 225.04 261.46 224.94 261.57 224.94 261.78 224.94 261.88 224.83 262.09 224.73 262.19 224.62 262.3 224.62 262.4 224.52 262.61 224.42 262.71 224.31 262.82 224.1 262.92 224 263.03 223.9 263.13 223.69"/><g id="ID000097-2" data-name="ID000097"><polygon class="cls-19" points="273.93 216.84 268.13 215.94 270.2 221.38 273.93 216.84"/></g><text class="cls-20" transform="translate(104.55 60.48)">P3</text><text class="cls-21" transform="translate(161.84 283.21)">P2</text><text class="cls-22" transform="translate(278.79 324.38)">P1</text><text class="cls-23" transform="translate(339.58 201.01)">P4</text><text class="cls-24" transform="translate(200.92 149.95)">J3/4</text><text class="cls-25" transform="translate(188.69 196.51)">J2/4</text><g class="cls-26"><text class="cls-27" transform="translate(6.79 21.39)">c-di-GMP-</text><text class="cls-28" transform="translate(97.89 21.39)">ⅠI </text><text class="cls-27" transform="translate(104.55 21.39)"><tspan xml:space="preserve">  Riboswitch </tspan></text></g></svg>