<?xml version="1.0" encoding="utf-8"?>
<!-- Generator: Adobe Illustrator 25.4.1, SVG Export Plug-In . SVG Version: 6.00 Build 0)  -->
<svg version="1.1" id="图层_1" xmlns="http://www.w3.org/2000/svg" xmlns:xlink="http://www.w3.org/1999/xlink" x="0px" y="0px"
	 viewBox="0 0 400 400" style="enable-background:new 0 0 400 400;" xml:space="preserve">
<style type="text/css">
	.st0{fill:#FF870A;}
	.st1{font-family:'ArialMT';}
	.st2{font-size:14.9px;}
	.st3{fill:none;stroke:#000000;stroke-width:0.17;stroke-miterlimit:1.33;}
	.st4{font-size:10.41px;}
	.st5{fill:#80DB9E;}
	.st6{fill:none;stroke:#000000;stroke-width:1.07;stroke-miterlimit:1.33;}
	.st7{stroke:#000000;stroke-width:0.17;stroke-miterlimit:1.33;}
	.st8{fill:#FFAADC;}
	.st9{fill:#09FEFE;}
	.st10{fill:none;stroke:#FF0B0C;stroke-miterlimit:1.33;}
	.st11{fill:#FF0B0C;}
	.st12{font-size:12.04px;}
	.st13{font-size:6.9832px;}
	.st14{fill:none;stroke:#000000;stroke-miterlimit:1.33;stroke-dasharray:2;}
	.st15{fill:#FFFFFF;stroke:#000000;stroke-width:0.17;stroke-miterlimit:1.33;}
	.st16{font-size:28.26px;}
	.st17{font-size:20.82px;}
	.st18{font-size:12px;}
	.st19{font-size:20px;}
</style>
<g id="ID000002">
	<text transform="matrix(1 0 0 1 227.73 256.36)" class="st0 st1 st2">A</text>
</g>
<g id="ID000003">
	<text transform="matrix(1 0 0 1 212.65 256.36)" class="st0 st1 st2">A</text>
</g>
<g id="ID000004">
	<text transform="matrix(1 0 0 1 197.17 256.36)" class="st0 st1 st2">C</text>
</g>
<g id="ID000005">
	<text transform="matrix(1 0 0 1 178.73 256.36)" class="st0 st1 st2">A</text>
</g>
<g id="ID000006">
	<text transform="matrix(1 0 0 1 159.88 252.59)" class="st0 st1 st2">A</text>
</g>
<g id="ID000007">
	<text transform="matrix(1 0 0 1 140.63 245.05)" class="st0 st1 st2">U</text>
</g>
<g id="ID000008">
	<text transform="matrix(1 0 0 1 181.67 211.13)" class="st0 st1 st2">G</text>
</g>
<g id="ID000009">
	<text transform="matrix(1 0 0 1 182.5 226.21)" class="st0 st1 st2">A</text>
</g>
<g id="ID000010">
	<text transform="matrix(1 0 0 1 196.75 226.21)" class="st0 st1 st2">G</text>
</g>
<g id="ID000011">
	<text transform="matrix(1 0 0 1 212.24 226.21)" class="st0 st1 st2">U</text>
</g>
<g id="ID000012">
	<text transform="matrix(1 0 0 1 227.32 226.21)" class="st0 st1 st2">U</text>
</g>
<g id="ID000013">
	<line class="st3" x1="239.8" y1="216.5" x2="246.9" y2="209.4"/>
</g>
<g id="ID000014">
	<text transform="matrix(1 0 0 1 246.91 210.8)" class="st1 st4">60</text>
</g>
<g id="ID000015">
	<text transform="matrix(1 0 0 1 227.73 207.36)" class="st5 st1 st2">A</text>
</g>
<g id="ID000016">
	<text transform="matrix(1 0 0 1 226.91 192.29)" class="st5 st1 st2">G</text>
</g>
<g id="ID000017">
	<line class="st6" x1="232.7" y1="266.2" x2="232.7" y2="255.6"/>
</g>
<g id="ID000019">
	<line class="st3" x1="232.7" y1="243.5" x2="232.7" y2="225.4"/>
</g>
<g id="ID000020">
	<line class="st3" x1="217.6" y1="243.5" x2="217.6" y2="225.4"/>
</g>
<g id="ID000021">
	<line class="st3" x1="202.5" y1="243.5" x2="202.5" y2="225.4"/>
</g>
<g id="ID000022">
	<polyline class="st6" points="68.4,80 59.3,80 59.3,144 93.2,144 187.5,144 187.5,198.3 	"/>
</g>
<g id="ID000023">
	<polygon class="st7" points="192,166.1 189.7,168.7 189,171.2 188.6,173.7 187.5,178.7 186.3,173.7 186,171.2 185.2,168.7 
		182.9,166.1 	"/>
</g>
<g>
	<line class="st6" x1="266" y1="189.1" x2="266" y2="151.3"/>
	<g id="ID000025">
		<polygon class="st7" points="262,174.7 264,172.4 264.7,170.2 265,167.9 266,163.4 267,167.9 267.4,170.2 268,172.4 270.1,174.7 
					"/>
	</g>
</g>
<g id="ID000027">
	<text transform="matrix(1 0 0 1 140.21 226.21)" class="st0 st1 st2">G</text>
</g>
<g id="ID000028">
	<line class="st3" x1="141" y1="224.4" x2="133.9" y2="231.6"/>
</g>
<g id="ID000029">
	<text transform="matrix(1 0 0 1 122.51 238.94)" class="st1 st4">20</text>
</g>
<g id="ID000030">
	<text transform="matrix(1 0 0 1 141.04 211.13)" class="st0 st1 st2">A</text>
</g>
<g id="ID000031">
	<text transform="matrix(1 0 0 1 69.02 116.9)" class="st8 st1 st2">U</text>
</g>
<g id="ID000032">
	<text transform="matrix(1 0 0 1 83.68 116.9)" class="st8 st1 st2">G</text>
</g>
<g id="ID000033">
	<text transform="matrix(1 0 0 1 99.58 116.9)" class="st8 st1 st2">A</text>
</g>
<g id="ID000034">
	<text transform="matrix(1 0 0 1 114.66 116.9)" class="st8 st1 st2">A</text>
</g>
<g id="ID000035">
	<text transform="matrix(1 0 0 1 129.32 116.9)" class="st8 st1 st2">U</text>
</g>
<g id="ID000036">
	<text transform="matrix(1 0 0 1 143.98 116.9)" class="st8 st1 st2">G</text>
</g>
<g id="ID000037">
	<text transform="matrix(1 0 0 1 159.06 116.9)" class="st8 st1 st2">G</text>
</g>
<g id="ID000038">
	<text transform="matrix(1 0 0 1 174.13 116.9)" class="st8 st1 st2">G</text>
</g>
<g id="ID000039">
	<text transform="matrix(1 0 0 1 189.63 116.9)" class="st8 st1 st2">U</text>
</g>
<g id="ID000040">
	<line class="st3" x1="195" y1="120.2" x2="195" y2="130.2"/>
</g>
<g id="ID000041">
	<text transform="matrix(1 0 0 1 189.84 137.6)" class="st1 st4">30</text>
</g>
<g id="ID000042">
	<text transform="matrix(1 0 0 1 204.7 116.9)" class="st8 st1 st2">U</text>
</g>
<g id="ID000043">
	<text transform="matrix(1 0 0 1 213.93 130.29)" class="st8 st1 st2">U</text>
</g>
<g id="ID000044">
	<text transform="matrix(1 0 0 1 225.65 130.29)" class="st8 st1 st2">A</text>
</g>
<g id="ID000045">
	<text transform="matrix(1 0 0 1 236.95 130.29)" class="st8 st1 st2">A</text>
</g>
<g id="ID000046">
	<text transform="matrix(1 0 0 1 302.7 128.21)" class="st8 st1 st2">U</text>
</g>
<g id="ID000047">
	<text transform="matrix(1 0 0 1 204.29 86.75)" class="st8 st1 st2">G</text>
</g>
<g id="ID000048">
	<text transform="matrix(1 0 0 1 190.04 86.75)" class="st8 st1 st2">A</text>
</g>
<g id="ID000049">
	<text transform="matrix(1 0 0 1 174.55 86.75)" class="st8 st1 st2">C</text>
</g>
<g id="ID000050">
	<text transform="matrix(1 0 0 1 159.47 86.75)" class="st8 st1 st2">U</text>
</g>
<g id="ID000051">
	<text transform="matrix(1 0 0 1 144.4 86.75)" class="st8 st1 st2">C</text>
</g>
<g id="ID000052">
	<line class="st3" x1="149.8" y1="75.1" x2="149.8" y2="65.1"/>
</g>
<g id="ID000053">
	<text transform="matrix(1 0 0 1 144.61 64.42)" class="st1 st4">50</text>
</g>
<g id="ID000054">
	<text transform="matrix(1 0 0 1 129.73 86.75)" class="st8 st1 st2">A</text>
</g>
<g id="ID000055">
	<text transform="matrix(1 0 0 1 114.24 86.75)" class="st8 st1 st2">U</text>
</g>
<g id="ID000056">
	<text transform="matrix(1 0 0 1 99.17 86.75)" class="st8 st1 st2">U</text>
</g>
<g id="ID000057">
	<text transform="matrix(1 0 0 1 84.09 86.75)" class="st8 st1 st2">U</text>
</g>
<g id="ID000058">
	<text transform="matrix(1 0 0 1 69.02 86.75)" class="st8 st1 st2">U</text>
</g>
<g id="ID000059">
	<polyline class="st6" points="140,204.3 138.5,204.3 74.4,204.3 74.4,116.2 	"/>
</g>
<g id="ID000060">
	<polygon class="st7" points="111.5,208.9 108.9,206.6 106.4,205.9 103.9,205.5 98.9,204.3 103.9,203.2 106.4,202.8 108.9,202.1 
		111.5,199.8 	"/>
</g>
<g id="ID000061">
	<polygon class="st7" points="89.5,92 89.3,92 89.1,92.1 88.9,92.1 88.7,92.1 88.5,92.2 88.3,92.2 88.2,92.3 88,92.4 87.8,92.5 
		87.7,92.6 87.5,92.7 87.4,92.9 87.2,93 87.1,93.1 87,93.3 86.9,93.4 86.8,93.6 86.7,93.8 86.7,94 86.6,94.1 86.5,94.3 86.5,94.5 
		86.5,94.7 86.5,94.9 86.4,95.1 86.5,95.3 86.5,95.5 86.5,95.7 86.6,95.8 86.6,96 86.7,96.2 86.8,96.4 86.9,96.6 87,96.7 87.1,96.9 
		87.2,97 87.3,97.2 87.5,97.3 87.6,97.4 87.8,97.5 87.9,97.6 88.1,97.7 88.3,97.8 88.4,97.9 88.6,97.9 88.8,98 89,98 89.2,98 
		89.4,98.1 89.6,98.1 89.8,98 89.9,98 90.1,98 90.3,97.9 90.5,97.9 90.7,97.8 90.8,97.7 91,97.6 91.2,97.5 91.3,97.4 91.5,97.3 
		91.6,97.2 91.8,97 91.9,96.9 92,96.7 92.1,96.6 92.2,96.4 92.2,96.2 92.3,96 92.4,95.8 92.4,95.7 92.4,95.5 92.5,95.3 92.5,95.1 
		92.5,94.9 92.5,94.7 92.4,94.5 92.4,94.3 92.3,94.1 92.3,94 92.2,93.8 92.1,93.6 92,93.4 91.9,93.3 91.8,93.1 91.7,93 91.6,92.9 
		91.4,92.7 91.3,92.6 91.1,92.5 90.9,92.4 90.8,92.3 90.6,92.2 90.4,92.2 90.2,92.1 90,92.1 89.8,92.1 89.7,92 	"/>
</g>
<g id="ID000062">
	<line class="st3" x1="104.6" y1="104.1" x2="104.6" y2="86"/>
</g>
<g id="ID000063">
	<line class="st3" x1="119.6" y1="104.1" x2="119.6" y2="86"/>
</g>
<g id="ID000064">
	<line class="st3" x1="134.7" y1="104.1" x2="134.7" y2="86"/>
</g>
<g id="ID000065">
	<line class="st3" x1="149.8" y1="104.1" x2="149.8" y2="86"/>
</g>
<g id="ID000066">
	<polygon class="st7" points="164.9,92 164.7,92 164.5,92.1 164.3,92.1 164.1,92.1 163.9,92.2 163.7,92.2 163.6,92.3 163.4,92.4 
		163.2,92.5 163.1,92.6 162.9,92.7 162.8,92.9 162.6,93 162.5,93.1 162.4,93.3 162.3,93.4 162.2,93.6 162.1,93.8 162,94 162,94.1 
		161.9,94.3 161.9,94.5 161.9,94.7 161.8,94.9 161.8,95.1 161.9,95.3 161.9,95.5 161.9,95.7 161.9,95.8 162,96 162.1,96.2 
		162.1,96.4 162.2,96.6 162.3,96.7 162.4,96.9 162.6,97 162.7,97.2 162.8,97.3 163,97.4 163.1,97.5 163.3,97.6 163.5,97.7 
		163.6,97.8 163.8,97.9 164,97.9 164.2,98 164.4,98 164.6,98 164.8,98.1 164.9,98.1 165.1,98 165.3,98 165.5,98 165.7,97.9 
		165.9,97.9 166.1,97.8 166.2,97.7 166.4,97.6 166.6,97.5 166.7,97.4 166.9,97.3 167,97.2 167.1,97 167.2,96.9 167.4,96.7 
		167.5,96.6 167.6,96.4 167.6,96.2 167.7,96 167.8,95.8 167.8,95.7 167.8,95.5 167.9,95.3 167.9,95.1 167.9,94.9 167.9,94.7 
		167.8,94.5 167.8,94.3 167.7,94.1 167.7,94 167.6,93.8 167.5,93.6 167.4,93.4 167.3,93.3 167.2,93.1 167.1,93 166.9,92.9 
		166.8,92.7 166.6,92.6 166.5,92.5 166.3,92.4 166.1,92.3 166,92.2 165.8,92.2 165.6,92.1 165.4,92.1 165.2,92.1 165,92 	"/>
</g>
<g id="ID000067">
	<line class="st3" x1="179.9" y1="104.1" x2="179.9" y2="86"/>
</g>
<g id="ID000068">
	<line class="st3" x1="195" y1="104.1" x2="195" y2="86"/>
</g>
<g id="ID000069">
	<polygon class="st7" points="210.1,92 209.9,92 209.7,92.1 209.5,92.1 209.3,92.1 209.1,92.2 209,92.2 208.8,92.3 208.6,92.4 
		208.4,92.5 208.3,92.6 208.1,92.7 208,92.9 207.9,93 207.7,93.1 207.6,93.3 207.5,93.4 207.4,93.6 207.3,93.8 207.3,94 207.2,94.1 
		207.1,94.3 207.1,94.5 207.1,94.7 207.1,94.9 207.1,95.1 207.1,95.3 207.1,95.5 207.1,95.7 207.2,95.8 207.2,96 207.3,96.2 
		207.4,96.4 207.5,96.6 207.6,96.7 207.7,96.9 207.8,97 207.9,97.2 208.1,97.3 208.2,97.4 208.4,97.5 208.5,97.6 208.7,97.7 
		208.9,97.8 209.1,97.9 209.2,97.9 209.4,98 209.6,98 209.8,98 210,98.1 210.2,98.1 210.4,98 210.6,98 210.8,98 210.9,97.9 
		211.1,97.9 211.3,97.8 211.5,97.7 211.6,97.6 211.8,97.5 211.9,97.4 212.1,97.3 212.2,97.2 212.4,97 212.5,96.9 212.6,96.7 
		212.7,96.6 212.8,96.4 212.9,96.2 212.9,96 213,95.8 213,95.7 213.1,95.5 213.1,95.3 213.1,95.1 213.1,94.9 213.1,94.7 213.1,94.5 
		213,94.3 213,94.1 212.9,94 212.8,93.8 212.7,93.6 212.6,93.4 212.5,93.3 212.4,93.1 212.3,93 212.2,92.9 212,92.7 211.9,92.6 
		211.7,92.5 211.6,92.4 211.4,92.3 211.2,92.2 211,92.2 210.8,92.1 210.6,92.1 210.5,92.1 210.3,92 	"/>
</g>
<line class="st6" x1="246.9" y1="130.2" x2="324.7" y2="130"/>
<g id="ID000071">
	<polygon class="st7" points="281.2,125.7 283.7,128 286.2,128.7 288.7,129.1 293.8,130.2 288.7,131.4 286.2,131.7 283.7,132.5 
		281.2,134.8 	"/>
</g>
<g id="ID000072">
	<polyline class="st6" points="308.1,115.4 308.1,80 216.1,80 	"/>
</g>
<g id="ID000073">
	<polygon class="st7" points="267.1,84.5 264.6,82.2 262.1,81.5 259.6,81.1 254.6,80 259.6,78.8 262.1,78.4 264.6,77.7 267.1,75.4 	
		"/>
</g>
<g id="ID000075">
	<text transform="matrix(1 0 0 1 325.73 135.74)" class="st8 st1 st2">A</text>
</g>
<g id="ID000076">
	<text transform="matrix(1 0 0 1 325.71 149.95)" class="st8 st1 st2">U</text>
</g>
<g id="ID000077">
	<text transform="matrix(1 0 0 1 325.32 222.44)" class="st8 st1 st2">U</text>
</g>
<g id="ID000078">
	<text transform="matrix(1 0 0 1 302.29 263.9)" class="st5 st1 st2">G</text>
</g>
<g id="ID000079">
	<text transform="matrix(1 0 0 1 302.29 248.82)" class="st5 st1 st2">G</text>
</g>
<g id="ID000080">
	<text transform="matrix(1 0 0 1 272.96 233.75)" class="st5 st1 st2">A</text>
</g>
<g id="ID000084">
	<text transform="matrix(1 0 0 1 272.55 263.9)" class="st5 st1 st2">C</text>
</g>
<g id="ID000086">
	<line class="st6" x1="330.7" y1="150.1" x2="330.7" y2="209.6"/>
</g>
<g id="ID000087">
	<polygon class="st7" points="335.2,176.7 333,179.2 332.2,181.7 331.8,184.2 330.7,189.3 329.6,184.2 329.2,181.7 328.4,179.2 
		326.2,176.7 	"/>
</g>
<g id="ID000088">
	<polyline class="st6" points="330.7,221.7 330.7,223.2 330.7,223.2 330.7,257.1 314.1,257.1 	"/>
</g>
<g id="ID000089">
	<polygon class="st7" points="335.2,235.1 333,237.6 332.2,240.1 331.8,242.7 330.7,247.7 329.6,242.7 329.2,240.1 328.4,237.6 
		326.2,235.1 	"/>
</g>
<g id="ID000090">
	<line class="st3" x1="302" y1="257.1" x2="284" y2="257.1"/>
</g>
<g id="ID000091">
	<line class="st6" x1="308.1" y1="236" x2="308.1" y2="206.6"/>
</g>
<g id="ID000092">
	<polygon class="st7" points="303.6,226.3 305.8,223.8 306.6,221.3 307,218.8 308.1,213.8 309.2,218.8 309.6,221.3 310.3,223.8 
		312.6,226.3 	"/>
</g>
<g id="ID000093">
	<line class="st3" x1="302" y1="242" x2="284" y2="242"/>
</g>
<g id="ID000095">
	<text transform="matrix(1 0 0 1 302.29 207.36)" class="st5 st1 st2">G</text>
</g>
<g id="ID000096">
	<line class="st3" x1="314.8" y1="201" x2="323.2" y2="206.4"/>
</g>
<g id="ID000097">
	<text transform="matrix(1 0 0 1 316.45 213.77)" class="st1 st4">40</text>
</g>
<g id="ID000098">
	<text transform="matrix(1 0 0 1 302.7 192.29)" class="st5 st1 st2">C</text>
</g>
<g id="ID000099">
	<text transform="matrix(1 0 0 1 303.11 177.21)" class="st5 st1 st2">A</text>
</g>
<g id="ID000100">
	<text transform="matrix(1 0 0 1 302.7 162.13)" class="st5 st1 st2">C</text>
</g>
<g id="ID000101">
	<text transform="matrix(1 0 0 1 302.7 147.05)" class="st5 st1 st2">U</text>
</g>
<g id="ID000102">
	<text transform="matrix(1 0 0 1 261.47 148.05)" class="st5 st1 st2">U</text>
</g>
<g id="ID000103">
	<text transform="matrix(1 0 0 1 272.96 147.05)" class="st5 st1 st2">A</text>
</g>
<g id="ID000104">
	<text transform="matrix(1 0 0 1 272.13 162.13)" class="st5 st1 st2">G</text>
</g>
<g id="ID000105">
	<text transform="matrix(1 0 0 1 272.55 177.21)" class="st5 st1 st2">U</text>
</g>
<g id="ID000106">
	<text transform="matrix(1 0 0 1 272.13 192.29)" class="st5 st1 st2">G</text>
</g>
<g id="ID000107">
	<text transform="matrix(1 0 0 1 272.55 207.36)" class="st5 st1 st2">C</text>
</g>
<g id="ID000108">
	<text transform="matrix(1 0 0 1 272.96 222.44)" class="st5 st1 st2">A</text>
</g>
<g id="ID000109">
	<line class="st3" x1="302" y1="200.6" x2="284" y2="200.6"/>
</g>
<g id="ID000110">
	<line class="st3" x1="302" y1="185.5" x2="284" y2="185.5"/>
</g>
<g id="ID000111">
	<line class="st3" x1="302" y1="170.4" x2="284" y2="170.4"/>
</g>
<g id="ID000112">
	<line class="st3" x1="302" y1="155.4" x2="284" y2="155.4"/>
</g>
<g id="ID000113">
	<line class="st3" x1="302" y1="140.3" x2="284" y2="140.3"/>
</g>
<g id="ID000115">
	<text transform="matrix(1 0 0 1 226.91 369.44)" class="st9 st1 st2">G</text>
</g>
<g id="ID000116">
	<text transform="matrix(1 0 0 1 227.32 354.36)" class="st9 st1 st2">C</text>
</g>
<g id="ID000117">
	<text transform="matrix(1 0 0 1 226.91 339.28)" class="st9 st1 st2">G</text>
</g>
<g id="ID000118">
	<text transform="matrix(1 0 0 1 227.32 324.21)" class="st9 st1 st2">C</text>
</g>
<g id="ID000119">
	<line class="st3" x1="225.8" y1="317.4" x2="215.7" y2="317.4"/>
</g>
<g id="ID000120">
	<text transform="matrix(1 0 0 1 201.23 321.08)" class="st1 st4">10</text>
</g>
<g id="ID000121">
	<text transform="matrix(1 0 0 1 226.91 309.13)" class="st9 st1 st2">G</text>
</g>
<g id="ID000122">
	<text transform="matrix(1 0 0 1 226.91 294.05)" class="st9 st1 st2">G</text>
</g>
<g id="ID000123">
	<text transform="matrix(1 0 0 1 227.73 278.98)" class="st9 st1 st2">A</text>
</g>
<g id="ID000124">
	<text transform="matrix(1 0 0 1 257.88 278.98)" class="st9 st1 st2">A</text>
</g>
<g id="ID000125">
	<text transform="matrix(1 0 0 1 257.47 294.05)" class="st9 st1 st2">C</text>
</g>
<g id="ID000126">
	<text transform="matrix(1 0 0 1 257.47 309.13)" class="st9 st1 st2">C</text>
</g>
<g id="ID000127">
	<text transform="matrix(1 0 0 1 257.06 324.21)" class="st9 st1 st2">G</text>
</g>
<g id="ID000128">
	<text transform="matrix(1 0 0 1 257.47 339.28)" class="st9 st1 st2">U</text>
</g>
<g id="ID000129">
	<text transform="matrix(1 0 0 1 257.06 354.36)" class="st9 st1 st2">G</text>
</g>
<g id="ID000130">
	<text transform="matrix(1 0 0 1 257.47 369.44)" class="st9 st1 st2">C</text>
</g>
<g id="ID000131">
	<line class="st3" x1="268.7" y1="362.6" x2="278.8" y2="362.6"/>
</g>
<g id="ID000132">
	<text transform="matrix(1 0 0 1 279.83 366.32)" class="st1 st4">80</text>
</g>
<g id="ID000133">
	<text transform="matrix(1 0 0 1 257.47 384.51)" class="st9 st1 st2">U</text>
</g>
<g id="ID000134">
	<line class="st3" x1="238.7" y1="362.6" x2="256.8" y2="362.6"/>
</g>
<g id="ID000135">
	<line class="st3" x1="238.7" y1="347.6" x2="256.8" y2="347.6"/>
</g>
<g id="ID000136">
	<polygon class="st7" points="250.8,332.5 250.8,332.3 250.8,332.1 250.7,331.9 250.7,331.7 250.6,331.6 250.6,331.4 250.5,331.2 
		250.4,331 250.3,330.9 250.2,330.7 250.1,330.6 250,330.4 249.8,330.3 249.7,330.2 249.5,330 249.4,329.9 249.2,329.8 249,329.8 
		248.9,329.7 248.7,329.6 248.5,329.6 248.3,329.5 248.1,329.5 247.9,329.5 247.7,329.5 247.5,329.5 247.3,329.5 247.2,329.5 
		247,329.6 246.8,329.6 246.6,329.7 246.4,329.8 246.3,329.9 246.1,330 245.9,330.1 245.8,330.2 245.7,330.4 245.5,330.5 
		245.4,330.6 245.3,330.8 245.2,331 245.1,331.1 245,331.3 244.9,331.5 244.9,331.6 244.8,331.8 244.8,332 244.8,332.2 244.8,332.4 
		244.8,332.6 244.8,332.8 244.8,333 244.8,333.2 244.9,333.4 244.9,333.5 245,333.7 245.1,333.9 245.2,334 245.3,334.2 245.4,334.4 
		245.5,334.5 245.7,334.6 245.8,334.8 245.9,334.9 246.1,335 246.3,335.1 246.4,335.2 246.6,335.3 246.8,335.4 247,335.4 
		247.2,335.5 247.3,335.5 247.5,335.5 247.7,335.5 247.9,335.5 248.1,335.5 248.3,335.5 248.5,335.4 248.7,335.4 248.9,335.3 
		249,335.2 249.2,335.1 249.4,335.1 249.5,335 249.7,334.8 249.8,334.7 250,334.6 250.1,334.4 250.2,334.3 250.3,334.1 250.4,334 
		250.5,333.8 250.6,333.6 250.6,333.4 250.7,333.2 250.7,333.1 250.8,332.9 250.8,332.7 	"/>
</g>
<g id="ID000137">
	<line class="st3" x1="238.7" y1="317.4" x2="256.8" y2="317.4"/>
</g>
<g id="ID000138">
	<line class="st3" x1="238.7" y1="302.3" x2="256.8" y2="302.3"/>
</g>
<g id="ID000139">
	<line class="st3" x1="238.7" y1="287.3" x2="256.8" y2="287.3"/>
</g>
<g id="ID000107-2">
	<text transform="matrix(1 0 0 1 271.86 249)" class="st5 st1 st2">C</text>
</g>
<g id="ID000109-2">
	<line class="st3" x1="324.7" y1="216.5" x2="282.1" y2="216.5"/>
</g>
<line class="st10" x1="253.1" y1="226.8" x2="252.5" y2="227.4"/>
<g id="ID000085">
	<text transform="matrix(1 0 0 1 256.67 265.15)" class="st5 st1 st2">G</text>
</g>
<text transform="matrix(1 0 0 1 250.22 226.95)" class="st11 st1 st12">G</text>
<text transform="matrix(1 0 0 1 259.5898 230.96)" class="st11 st1 st13">α</text>
<g id="ID000043-2">
	<text transform="matrix(1 0 0 1 253.18 247.99)" class="st11 st1 st12">G</text>
	<text transform="matrix(1 0 0 1 262.54 252)" class="st11 st1 st13">β</text>
</g>
<line class="st10" x1="251.1" y1="226.2" x2="242.7" y2="231.2"/>
<line class="st10" x1="242.7" y1="230.6" x2="251.3" y2="244.1"/>
<text transform="matrix(1 0 0 1 232.86 236.66)" class="st11 st1 st12">P</text>
<line class="st10" x1="243.2" y1="237.7" x2="242.6" y2="238.3"/>
<line class="st10" x1="244.8" y1="236" x2="244.2" y2="236.6"/>
<line class="st10" x1="247.1" y1="233.6" x2="246.6" y2="234.3"/>
<line class="st10" x1="248.4" y1="232.4" x2="247.8" y2="233"/>
<line class="st10" x1="249.9" y1="230.9" x2="249.3" y2="231.5"/>
<line class="st10" x1="251.5" y1="229.3" x2="250.8" y2="229.9"/>
<line class="st10" x1="244.5" y1="239.7" x2="243.9" y2="239.1"/>
<line class="st10" x1="246.1" y1="241.2" x2="245.4" y2="240.6"/>
<line class="st10" x1="247.7" y1="242.6" x2="247" y2="242"/>
<line class="st10" x1="249.3" y1="244.1" x2="248.6" y2="243.5"/>
<line class="st10" x1="250.7" y1="245.4" x2="250.1" y2="244.9"/>
<text transform="matrix(1 0 0 1 234.58 245.03)" class="st11 st1 st12">P</text>
<line class="st14" x1="261.1" y1="254.8" x2="258.2" y2="247.1"/>
<g id="ID000060-2">
	<line class="st3" x1="259" y1="222.8" x2="273.5" y2="217.3"/>
</g>
<polygon class="st15" points="263.1,223.7 263.1,223.6 263.2,223.5 263.3,223.3 263.3,223.2 263.3,223 263.4,222.8 263.4,222.6 
	263.4,222.4 263.4,222.3 263.4,222.1 263.3,222 263.3,221.8 263.3,221.7 263.2,221.5 263.2,221.4 263.1,221.2 263,221.1 262.9,221 
	262.8,220.8 262.7,220.7 262.6,220.6 262.5,220.5 262.4,220.4 262.2,220.2 262.1,220.1 261.9,220.1 261.8,220 261.7,219.9 
	261.5,219.9 261.3,219.9 261.1,219.8 260.9,219.8 260.8,219.8 260.6,219.8 260.5,219.8 260.3,219.9 260.2,219.9 260,220 259.9,220 
	259.7,220.1 259.6,220.2 259.4,220.2 259.3,220.4 259.2,220.5 259.1,220.6 259,220.7 258.8,220.9 258.8,221 258.6,221.1 
	258.5,221.3 258.5,221.4 258.5,221.5 258.3,221.7 258.3,221.8 258.2,222 258.2,222.2 258.2,222.3 258.2,222.5 258.2,222.6 
	258.2,222.9 258.3,223 258.3,223.2 258.3,223.3 258.5,223.5 258.5,223.6 258.6,223.8 258.6,223.9 258.8,224 258.9,224.2 259,224.3 
	259.1,224.4 259.3,224.5 259.4,224.6 259.5,224.7 259.7,224.7 259.8,224.8 260,224.9 260.1,224.9 260.3,225 260.4,225 260.6,225 
	260.7,225 260.9,225 261.1,225 261.3,225 261.5,224.9 261.6,224.9 261.8,224.9 261.9,224.8 262.1,224.7 262.2,224.6 262.3,224.6 
	262.4,224.5 262.6,224.4 262.7,224.3 262.8,224.1 262.9,224 263,223.9 "/>
<g id="ID000097-2">
	<polygon class="st15" points="273.9,216.8 268.1,215.9 270.2,221.4 	"/>
</g>
<text transform="matrix(1 0 0 1 104.55 60.48)" class="st8 st1 st16">P3</text>
<text transform="matrix(1 0 0 1 161.84 283.21)" class="st0 st1 st16">P2</text>
<text transform="matrix(1 0 0 1 278.79 324.38)" class="st9 st1 st16">P1</text>
<text transform="matrix(1 0 0 1 339.58 201.01)" class="st5 st1 st16">P4</text>
<text transform="matrix(1 0 0 1 200.92 149.95)" class="st8 st1 st17">J3/4</text>
<text transform="matrix(1 0 0 1 188.69 196.51)" class="st5 st1 st17">J2/4</text>
<line class="st6" x1="239.9" y1="188.3" x2="265.5" y2="188.3"/>
<text transform="matrix(1 0 0 1 215.7199 369.6183)" class="st1 st18">5&apos;</text>
<text transform="matrix(1 0 0 1 272.6046 384.6884)" class="st1 st18">3&apos;</text>
<text transform="matrix(1 0 0 1 5.7359 20.2006)" class="st1 st19">c-di-GMP-II Riboswitch</text>
</svg>
