<svg id="图层_1" data-name="图层 1" xmlns="http://www.w3.org/2000/svg" viewBox="0 0 400 400"><defs><style>.cls-1,.cls-11,.cls-12,.cls-13,.cls-14,.cls-15,.cls-16,.cls-17,.cls-18,.cls-19,.cls-2,.cls-20,.cls-21,.cls-22,.cls-3,.cls-5,.cls-6{isolation:isolate;}.cls-1,.cls-11,.cls-12,.cls-13,.cls-14,.cls-15,.cls-16,.cls-17,.cls-18,.cls-19,.cls-2,.cls-20,.cls-21,.cls-22,.cls-3,.cls-6{font-size:12.22px;}.cls-1,.cls-2,.cls-24{fill:#ffaadc;}.cls-1,.cls-11,.cls-12,.cls-13,.cls-14,.cls-15,.cls-16,.cls-17,.cls-18,.cls-19,.cls-2,.cls-21,.cls-22,.cls-3,.cls-6{font-family:Arial-BoldMT, Arial;font-weight:700;}.cls-17,.cls-18,.cls-19,.cls-2,.cls-6{letter-spacing:-0.04em;}.cls-22,.cls-3,.cls-6{fill:#c2c2ff;}.cls-32,.cls-34,.cls-4,.cls-9{fill:none;}.cls-10,.cls-4,.cls-8,.cls-9{stroke:#000;}.cls-10,.cls-4,.cls-8{stroke-width:0.5px;}.cls-33,.cls-5{font-size:10px;}.cls-20,.cls-23,.cls-24,.cls-25,.cls-26,.cls-27,.cls-28,.cls-29,.cls-33,.cls-35,.cls-5{font-family:ArialMT, Arial;}.cls-7{letter-spacing:-0.07em;}.cls-10{fill:#fff;}.cls-11,.cls-12,.cls-25{fill:#ff870a;}.cls-12,.cls-14,.cls-22{letter-spacing:-0.04em;}.cls-13,.cls-14,.cls-28{fill:#80db9e;}.cls-15,.cls-17,.cls-26{fill:#09fefe;}.cls-16,.cls-18{fill:#ffdf5c;}.cls-19,.cls-21,.cls-23{fill:#0a0bff;}.cls-23,.cls-24,.cls-25,.cls-26,.cls-27,.cls-28,.cls-35{font-size:20px;}.cls-27{fill:#fedd60;}.cls-29{font-size:14px;fill:#251e1c;}.cls-30{letter-spacing:-0.04em;}.cls-31,.cls-33{fill:#c40018;}.cls-31,.cls-32{stroke:#c40018;}.cls-31,.cls-32,.cls-34{stroke-miterlimit:10;}.cls-34{stroke:#0a0bff;stroke-dasharray:4 4;}</style></defs><g id="ID000002"><text class="cls-1" transform="translate(362.84 321.42)">G</text></g><g id="ID000003"><text class="cls-1" transform="translate(350.66 321.42)">G</text></g><g id="ID000004"><text class="cls-2" transform="translate(338.81 321.42)">A</text></g><g id="ID000005"><text class="cls-1" transform="translate(326.62 321.42)">U</text></g><g id="ID000006"><text class="cls-1" transform="translate(314.43 321.42)">C</text></g><g id="ID000007"><text class="cls-1" transform="translate(302.25 321.42)">U</text></g><g id="ID000008"><text class="cls-1" transform="translate(290.06 321.42)">U</text></g><g id="ID000009"><text class="cls-1" transform="translate(277.87 321.42)">C</text></g><g id="ID000010"><text class="cls-3" transform="translate(265.34 321.42)">G</text></g><g id="ID000011"><text class="cls-3" transform="translate(146.51 199.54)">G</text></g><g id="ID000012"><line class="cls-4" x1="143.14" y1="194.06" x2="135.02" y2="194.06"/></g><g id="ID000013"><text class="cls-5" transform="translate(121.42 197.54)">10</text></g><g id="ID000014"><text class="cls-3" transform="translate(146.51 184.31)">G</text></g><g id="ID000015"><text class="cls-3" transform="translate(222.69 298.66)">G</text></g><g id="ID000016"><text class="cls-6" transform="translate(238.26 298.66)">A</text></g><g id="ID000017"><text class="cls-3" transform="translate(250.11 298.66)">G</text></g><g id="ID000018"><text class="cls-6" transform="translate(265.68 297.05)">A</text></g><g id="ID000019"><text class="cls-1" transform="translate(277.53 297.05)">G</text></g><g id="ID000020"><text class="cls-2" transform="translate(290.06 297.05)">A</text></g><g id="ID000021"><text class="cls-2" transform="translate(302.25 297.05)">A</text></g><g id="ID000022"><text class="cls-1" transform="translate(314.09 297.05)">G</text></g><g id="ID000023"><text class="cls-2" transform="translate(326.62 297.05)">A</text></g><g id="ID000024"><text class="cls-1" transform="translate(338.81 297.05)">U</text></g><g id="ID000025"><line class="cls-4" x1="343.22" y1="283.44" x2="343.22" y2="275.31"/></g><g id="ID000026"><text class="cls-5" transform="translate(333.48 274.27)"><tspan class="cls-7">1</tspan><tspan x="4.82" y="0">10</tspan></text></g><g id="ID000027"><text class="cls-1" transform="translate(351 297.05)">U</text></g><g id="ID000028"><text class="cls-1" transform="translate(363.18 297.05)">C</text></g><g id="ID000029"><line class="cls-4" x1="367.6" y1="311.06" x2="367.6" y2="296.44"/></g><g id="ID000030"><polygon class="cls-8" points="355.41 301.31 355.25 301.32 355.1 301.33 354.95 301.36 354.8 301.39 354.65 301.44 354.5 301.49 354.36 301.55 354.22 301.62 354.09 301.7 353.96 301.79 353.84 301.88 353.73 301.99 353.62 302.1 353.52 302.21 353.43 302.34 353.34 302.47 353.26 302.6 353.19 302.74 353.13 302.88 353.08 303.02 353.04 303.18 353.01 303.33 352.99 303.48 352.97 303.63 352.97 303.79 352.98 303.94 353 304.1 353.02 304.25 353.06 304.4 353.11 304.55 353.16 304.69 353.22 304.83 353.3 304.97 353.38 305.1 353.47 305.23 353.57 305.35 353.67 305.46 353.78 305.56 353.9 305.67 354.03 305.76 354.16 305.84 354.29 305.92 354.43 305.98 354.58 306.04 354.73 306.09 354.87 306.13 355.02 306.16 355.18 306.18 355.33 306.19 355.49 306.19 355.64 306.18 355.79 306.16 355.95 306.13 356.1 306.09 356.24 306.04 356.39 305.98 356.53 305.92 356.66 305.84 356.79 305.76 356.92 305.67 357.03 305.56 357.15 305.46 357.25 305.35 357.35 305.23 357.44 305.1 357.52 304.97 357.6 304.83 357.66 304.69 357.71 304.55 357.76 304.4 357.8 304.25 357.82 304.1 357.84 303.94 357.85 303.79 357.85 303.63 357.83 303.48 357.81 303.33 357.78 303.18 357.74 303.02 357.69 302.88 357.63 302.74 357.56 302.6 357.48 302.47 357.39 302.34 357.3 302.21 357.2 302.1 357.09 301.99 356.98 301.88 356.86 301.79 356.73 301.7 356.6 301.62 356.46 301.55 356.31 301.49 356.17 301.44 356.02 301.39 355.87 301.36 355.72 301.33 355.56 301.32 355.41 301.31"/></g><g id="ID000031"><line class="cls-4" x1="343.22" y1="311.06" x2="343.22" y2="296.44"/></g><g id="ID000032"><line class="cls-4" x1="331.04" y1="311.06" x2="331.04" y2="296.44"/></g><g id="ID000033"><line class="cls-4" x1="318.85" y1="311.06" x2="318.85" y2="296.44"/></g><g id="ID000034"><line class="cls-4" x1="306.66" y1="311.06" x2="306.66" y2="296.44"/></g><g id="ID000035"><line class="cls-4" x1="294.47" y1="311.06" x2="294.47" y2="296.44"/></g><g id="ID000036"><line class="cls-4" x1="282.28" y1="311.06" x2="282.28" y2="296.44"/></g><g id="ID000037"><polyline class="cls-9" points="265.22 315.95 151.27 316.19 151.27 198.94"/></g><g id="ID000038"><polygon class="cls-8" points="212.31 319.71 210.28 317.89 208.25 317.28 206.22 316.98 202.15 316.08 206.21 315.16 208.24 314.85 210.27 314.24 212.3 312.4 212.31 319.71"/></g><g id="ID000039"><line class="cls-4" x1="270.1" y1="311.06" x2="270.1" y2="296.44"/></g><g id="ID000040"><polygon class="cls-10" points="270.1 310.09 272.84 305.33 267.35 305.33 270.1 310.09"/></g><g id="ID000041"><polygon class="cls-10" points="267.66 298.14 267.66 303.02 272.53 303.02 272.53 298.14 267.66 298.14"/></g><g id="ID000042"><polyline class="cls-4" points="186.21 174.28 169.55 221.48 200.02 276.33 265.33 290.53"/></g><g id="ID000043"><polygon class="cls-10" points="186.32 251.67 186.41 246.19 181.62 248.85 186.32 251.67"/></g><g id="ID000045"><text class="cls-3" transform="translate(146.51 172.12)">G</text></g><g id="ID000046"><text class="cls-11" transform="translate(88.2 143.28)">C</text></g><g id="ID000047"><text class="cls-12" transform="translate(92.01 132.51)">A</text></g><g id="ID000048"><text class="cls-11" transform="translate(79.48 132.51)">G</text></g><g id="ID000049"><text class="cls-11" transform="translate(67.29 132.51)">G</text></g><g id="ID000050"><text class="cls-11" transform="translate(55.11 132.51)">G</text></g><g id="ID000051"><text class="cls-11" transform="translate(40.21 132.51)">U</text></g><g id="ID000052"><text class="cls-11" transform="translate(24.64 132.51)">G</text></g><g id="ID000053"><text class="cls-12" transform="translate(12.79 120.33)">A</text></g><g id="ID000054"><line class="cls-4" x1="17.88" y1="121.68" x2="12.79" y2="128.01"/></g><g id="ID000055"><text class="cls-5" transform="translate(6.05 136.2)">20</text></g><g id="ID000056"><text class="cls-12" transform="translate(24.98 108.14)">A</text></g><g id="ID000057"><text class="cls-12" transform="translate(40.21 108.14)">A</text></g><g id="ID000058"><text class="cls-11" transform="translate(43.26 95.95)">U</text></g><g id="ID000059"><text class="cls-11" transform="translate(55.45 95.95)">U</text></g><g id="ID000060"><text class="cls-11" transform="translate(55.45 108.14)">C</text></g><g id="ID000061"><text class="cls-11" transform="translate(67.63 108.14)">C</text></g><g id="ID000062"><text class="cls-11" transform="translate(79.82 108.14)">C</text></g><g id="ID000063"><text class="cls-11" transform="translate(91.67 108.14)">G</text></g><g id="ID000064"><line class="cls-9" x1="146.91" y1="164.46" x2="97.03" y2="139.55"/></g><g id="ID000065"><polygon class="cls-8" points="125.84 158.01 124.84 155.47 123.3 154.02 121.62 152.84 118.39 150.2 122.44 151.2 124.39 151.84 126.48 152.2 129.11 151.47 125.84 158.01"/></g><g id="ID000066"><line class="cls-4" x1="96.42" y1="122.15" x2="96.42" y2="107.53"/></g><g id="ID000067"><polygon class="cls-10" points="98.86 120.45 98.86 115.57 93.98 115.57 93.98 120.45 98.86 120.45"/></g><g id="ID000068"><polygon class="cls-10" points="96.42 108.51 93.68 113.26 99.17 113.26 96.42 108.51"/></g><g id="ID000069"><line class="cls-4" x1="84.23" y1="122.15" x2="84.23" y2="107.53"/></g><g id="ID000070"><line class="cls-4" x1="72.05" y1="122.15" x2="72.05" y2="107.53"/></g><g id="ID000071"><line class="cls-4" x1="59.86" y1="122.15" x2="59.86" y2="107.53"/></g><g id="ID000072"><line class="cls-4" x1="44.62" y1="122.15" x2="44.62" y2="107.53"/></g><g id="ID000073"><polygon class="cls-10" points="44.62 120.45 44.78 120.44 44.93 120.43 45.09 120.4 45.24 120.37 45.39 120.33 45.53 120.27 45.67 120.21 45.81 120.14 45.94 120.06 46.07 119.97 46.19 119.88 46.31 119.77 46.41 119.66 46.52 119.55 46.61 119.42 46.7 119.3 46.77 119.16 46.84 119.02 46.9 118.88 46.95 118.73 46.99 118.58 47.02 118.43 47.05 118.28 47.06 118.13 47.06 117.97 47.05 117.82 47.04 117.66 47.01 117.51 46.97 117.36 46.93 117.21 46.87 117.07 46.81 116.93 46.74 116.79 46.65 116.66 46.56 116.53 46.47 116.41 46.36 116.3 46.25 116.19 46.13 116.09 46.01 116 45.88 115.92 45.74 115.84 45.6 115.78 45.46 115.72 45.31 115.67 45.16 115.63 45.01 115.6 44.86 115.58 44.7 115.57 44.55 115.57 44.39 115.58 44.24 115.6 44.09 115.63 43.94 115.67 43.79 115.72 43.65 115.78 43.51 115.84 43.37 115.92 43.24 116 43.12 116.09 43 116.19 42.89 116.3 42.78 116.41 42.69 116.53 42.59 116.66 42.51 116.79 42.44 116.93 42.38 117.07 42.32 117.21 42.27 117.36 42.24 117.51 42.21 117.66 42.19 117.82 42.19 117.97 42.19 118.13 42.2 118.28 42.22 118.43 42.26 118.58 42.3 118.73 42.35 118.88 42.41 119.02 42.48 119.16 42.55 119.3 42.64 119.42 42.73 119.55 42.83 119.66 42.94 119.77 43.06 119.88 43.18 119.97 43.31 120.06 43.44 120.14 43.58 120.21 43.72 120.27 43.86 120.33 44.01 120.37 44.16 120.4 44.32 120.43 44.47 120.44 44.62 120.45"/></g><g id="ID000074"><polygon class="cls-10" points="42.19 109.23 42.19 114.11 47.06 114.11 47.06 109.23 42.19 109.23"/></g><g id="ID000075"><line class="cls-4" x1="29.39" y1="131.9" x2="29.39" y2="207.47"/></g><g id="ID000076"><polygon class="cls-10" points="29.39 163.35 26.65 168.1 32.13 168.1 29.39 163.35"/></g><g id="ID000077"><polygon class="cls-10" points="31.83 175.29 31.83 170.42 26.95 170.42 26.95 175.29 31.83 175.29"/></g><g id="ID000079"><text class="cls-12" transform="translate(107.24 108.14)">A</text></g><g id="ID000080"><text class="cls-11" transform="translate(119.43 108.14)">C</text></g><g id="ID000081"><line class="cls-4" x1="123.85" y1="94.53" x2="123.85" y2="86.4"/></g><g id="ID000082"><text class="cls-5" transform="translate(117.05 85.36)">30</text></g><g id="ID000083"><text class="cls-13" transform="translate(32.13 197.99)">G</text></g><g id="ID000084"><text class="cls-14" transform="translate(43.26 187.36)">A</text></g><g id="ID000085"><text class="cls-13" transform="translate(119.09 132.51)">G</text></g><g id="ID000086"><text class="cls-13" transform="translate(107.24 132.51)">U</text></g><g id="ID000087"><line class="cls-4" x1="111.66" y1="107.53" x2="111.66" y2="122.15"/></g><g id="ID000088"><line class="cls-9" x1="128.2" y1="104.83" x2="168.23" y2="124.85"/></g><g id="ID000089"><polygon class="cls-8" points="146.22 109.75 147.22 112.3 148.76 113.75 150.44 114.93 153.67 117.57 149.63 116.57 147.68 115.93 145.59 115.57 142.95 116.29 146.22 109.75"/></g><g id="ID000090"><line class="cls-4" x1="123.85" y1="107.53" x2="123.85" y2="122.15"/></g><g id="ID000091"><polyline class="cls-9" points="52.55 181.87 102.52 181.87 122.08 131.57"/></g><g id="ID000092"><polygon class="cls-8" points="107.42 159.18 109.86 157.95 111.16 156.28 112.18 154.5 114.51 151.04 113.89 155.16 113.43 157.16 113.27 159.28 114.23 161.83 107.42 159.18"/></g><g id="ID000093"><line class="cls-4" x1="47.67" y1="216.61" x2="47.67" y2="186.75"/></g><g id="ID000094"><polygon class="cls-10" points="47.67 207.28 47.83 207.28 47.98 207.26 48.13 207.24 48.28 207.21 48.43 207.16 48.58 207.11 48.72 207.05 48.86 206.98 48.99 206.9 49.12 206.81 49.24 206.71 49.35 206.61 49.46 206.5 49.56 206.38 49.66 206.26 49.74 206.13 49.82 206 49.89 205.86 49.95 205.72 50 205.57 50.04 205.42 50.07 205.27 50.09 205.12 50.11 204.96 50.11 204.81 50.1 204.65 50.08 204.5 50.06 204.35 50.02 204.2 49.98 204.05 49.92 203.91 49.85 203.76 49.78 203.63 49.7 203.5 49.61 203.37 49.51 203.25 49.41 203.14 49.3 203.03 49.18 202.93 49.05 202.84 48.92 202.76 48.79 202.68 48.65 202.61 48.51 202.56 48.36 202.51 48.21 202.47 48.06 202.44 47.9 202.42 47.75 202.41 47.59 202.41 47.44 202.42 47.29 202.44 47.13 202.47 46.98 202.51 46.84 202.56 46.69 202.61 46.55 202.68 46.42 202.76 46.29 202.84 46.16 202.93 46.05 203.03 45.94 203.14 45.83 203.25 45.73 203.37 45.64 203.5 45.56 203.63 45.49 203.76 45.42 203.91 45.37 204.05 45.32 204.2 45.29 204.35 45.26 204.5 45.24 204.65 45.23 204.81 45.24 204.96 45.25 205.12 45.27 205.27 45.3 205.42 45.34 205.57 45.4 205.72 45.45 205.86 45.52 206 45.6 206.13 45.69 206.26 45.78 206.38 45.88 206.5 45.99 206.61 46.1 206.71 46.23 206.81 46.35 206.9 46.49 206.98 46.62 207.05 46.77 207.11 46.91 207.16 47.06 207.21 47.21 207.24 47.36 207.26 47.52 207.28 47.67 207.28"/></g><g id="ID000095"><polygon class="cls-10" points="45.23 196.07 45.23 200.94 50.11 200.94 50.11 196.07 45.23 196.07"/></g><g id="ID000096"><line class="cls-9" x1="108.87" y1="131.03" x2="65.69" y2="193.11"/></g><g id="ID000097"><polygon class="cls-8" points="92.6 160.82 89.94 161.44 88.28 162.76 86.87 164.26 83.8 167.07 85.37 163.21 86.28 161.37 86.94 159.36 86.6 156.65 92.6 160.82"/></g><g id="ID000099"><text class="cls-15" transform="translate(168.18 132.51)">C</text></g><g id="ID000100"><text class="cls-15" transform="translate(180.03 132.51)">G</text></g><g id="ID000101"><text class="cls-16" transform="translate(180.37 108.14)">C</text></g><g id="ID000102"><text class="cls-16" transform="translate(167.84 108.14)">G</text></g><g id="ID000103"><text class="cls-14" transform="translate(95.06 223.92)">A</text></g><g id="ID000104"><line class="cls-4" x1="172.59" y1="122.15" x2="172.59" y2="107.53"/></g><g id="ID000105"><line class="cls-9" x1="185.13" y1="131.89" x2="187.48" y2="164.82"/></g><g id="ID000106"><polygon class="cls-8" points="189.66 144.04 187.98 146.2 187.52 148.27 187.36 150.32 186.74 154.44 185.54 150.45 185.09 148.44 184.34 146.46 182.37 144.56 189.66 144.04"/></g><g id="ID000107"><line class="cls-4" x1="184.78" y1="122.15" x2="184.78" y2="107.53"/></g><g id="ID000108"><line class="cls-9" x1="249.99" y1="102.65" x2="189.66" y2="102.65"/></g><g id="ID000109"><polygon class="cls-8" points="223.89 106.31 221.85 104.48 219.82 103.87 217.79 103.57 213.73 102.65 217.79 101.74 219.82 101.44 221.85 100.83 223.89 99 223.89 106.31"/></g><g id="ID000110"><line class="cls-9" x1="169.99" y1="106.77" x2="102.07" y2="214.32"/></g><g id="ID000111"><polygon class="cls-8" points="133.37 171.49 130.74 172.23 129.14 173.62 127.8 175.18 124.86 178.12 126.25 174.2 127.08 172.32 127.65 170.28 127.19 167.59 133.37 171.49"/></g><g id="ID000112"><line class="cls-4" x1="99.47" y1="213.56" x2="99.47" y2="201.98"/></g><g id="ID000113"><polygon class="cls-8" points="99.47 205.34 99.31 205.34 99.16 205.35 99.01 205.38 98.86 205.41 98.71 205.46 98.56 205.51 98.42 205.57 98.28 205.64 98.15 205.72 98.02 205.81 97.9 205.9 97.79 206.01 97.68 206.12 97.58 206.24 97.48 206.36 97.4 206.49 97.32 206.62 97.25 206.76 97.19 206.9 97.14 207.05 97.1 207.2 97.07 207.35 97.05 207.5 97.03 207.66 97.03 207.81 97.04 207.97 97.06 208.12 97.08 208.27 97.12 208.42 97.17 208.57 97.22 208.71 97.28 208.85 97.36 208.99 97.44 209.12 97.53 209.25 97.63 209.37 97.73 209.48 97.84 209.59 97.96 209.69 98.09 209.78 98.22 209.86 98.35 209.94 98.49 210 98.64 210.06 98.78 210.11 98.93 210.15 99.08 210.18 99.24 210.2 99.39 210.21 99.55 210.21 99.7 210.2 99.86 210.18 100.01 210.15 100.16 210.11 100.3 210.06 100.45 210 100.59 209.94 100.72 209.86 100.85 209.78 100.98 209.69 101.09 209.59 101.21 209.48 101.31 209.37 101.41 209.25 101.5 209.12 101.58 208.99 101.65 208.85 101.72 208.71 101.77 208.57 101.82 208.42 101.85 208.27 101.88 208.12 101.9 207.97 101.91 207.81 101.9 207.66 101.89 207.5 101.87 207.35 101.84 207.2 101.8 207.05 101.75 206.9 101.69 206.76 101.62 206.62 101.54 206.49 101.45 206.36 101.36 206.24 101.26 206.12 101.15 206.01 101.04 205.9 100.91 205.81 100.79 205.72 100.65 205.64 100.52 205.57 100.37 205.51 100.23 205.46 100.08 205.41 99.93 205.38 99.78 205.35 99.62 205.34 99.47 205.34"/></g><g id="ID000115"><text class="cls-15" transform="translate(183.08 175.17)">G</text></g><g id="ID000116"><text class="cls-15" transform="translate(195.61 175.17)">U</text></g><g id="ID000117"><text class="cls-15" transform="translate(207.45 175.17)">G</text></g><g id="ID000118"><text class="cls-15" transform="translate(219.64 175.17)">G</text></g><g id="ID000119"><text class="cls-15" transform="translate(226.42 165.73)">U</text></g><g id="ID000120"><text class="cls-17" transform="translate(235.21 154.44)">A</text></g><g id="ID000121"><text class="cls-15" transform="translate(219.98 199.54)">C</text></g><g id="ID000122"><text class="cls-15" transform="translate(207.79 199.54)">C</text></g><g id="ID000123"><text class="cls-17" transform="translate(195.61 199.54)">A</text></g><g id="ID000124"><text class="cls-15" transform="translate(183.42 199.54)">C</text></g><g id="ID000125"><text class="cls-15" transform="translate(180.03 214.78)">G</text></g><g id="ID000126"><text class="cls-17" transform="translate(195.61 220.87)">A</text></g><g id="ID000127"><line class="cls-4" x1="187.83" y1="174.56" x2="187.83" y2="189.19"/></g><g id="ID000128"><line class="cls-4" x1="200.02" y1="174.56" x2="200.02" y2="189.19"/></g><g id="ID000129"><line class="cls-4" x1="212.2" y1="174.56" x2="212.2" y2="189.19"/></g><g id="ID000130"><line class="cls-4" x1="224.39" y1="174.56" x2="224.39" y2="189.19"/></g><g id="ID000131"><line class="cls-4" x1="230.34" y1="157.37" x2="237.87" y2="132.71"/></g><g id="ID000132"><polygon class="cls-10" points="232.47 150.4 232.62 150.44 232.77 150.47 232.93 150.49 233.08 150.5 233.24 150.51 233.39 150.5 233.54 150.48 233.69 150.45 233.85 150.42 233.99 150.37 234.14 150.31 234.28 150.25 234.41 150.18 234.55 150.09 234.67 150 234.79 149.9 234.9 149.8 235.01 149.69 235.11 149.57 235.2 149.44 235.28 149.31 235.36 149.18 235.42 149.04 235.48 148.89 235.53 148.75 235.56 148.59 235.59 148.44 235.61 148.29 235.62 148.13 235.62 147.98 235.61 147.83 235.59 147.67 235.56 147.52 235.52 147.37 235.47 147.22 235.41 147.08 235.34 146.94 235.27 146.81 235.19 146.68 235.09 146.55 234.99 146.44 234.88 146.32 234.77 146.22 234.65 146.12 234.52 146.03 234.39 145.95 234.25 145.88 234.11 145.82 233.97 145.76 233.82 145.72 233.67 145.68 233.52 145.66 233.37 145.64 233.21 145.63 233.06 145.64 232.9 145.65 232.75 145.67 232.6 145.71 232.45 145.75 232.3 145.8 232.16 145.86 232.02 145.93 231.89 146 231.76 146.09 231.64 146.19 231.52 146.29 231.41 146.4 231.31 146.51 231.22 146.63 231.13 146.76 231.05 146.9 230.98 147.03 230.92 147.18 230.87 147.32 230.82 147.47 230.79 147.62 230.77 147.77 230.75 147.93 230.75 148.08 230.75 148.24 230.77 148.39 230.79 148.54 230.82 148.69 230.87 148.84 230.93 148.99 230.99 149.13 231.06 149.27 231.14 149.4 231.23 149.52 231.32 149.65 231.43 149.76 231.54 149.87 231.66 149.97 231.78 150.06 231.91 150.15 232.04 150.22 232.18 150.29 232.33 150.35 232.47 150.4"/></g><g id="ID000133"><polygon class="cls-10" points="233.41 138.97 231.99 143.63 236.65 145.05 238.08 140.39 233.41 138.97"/></g><g id="ID000134"><polyline class="cls-4" points="244.47 150.87 267.05 148.36 364.55 148.36 374.32 131.26"/></g><g id="ID000135"><polygon class="cls-10" points="310.19 150.79 315.07 150.79 315.07 145.92 310.19 145.92 310.19 150.79"/></g><g id="ID000136"><polygon class="cls-10" points="322.13 148.36 317.39 145.62 317.39 151.1 322.13 148.36"/></g><g id="ID000138"><polygon class="cls-8" points="252.57 162.42 249.97 163.27 248.44 164.74 247.16 166.35 244.35 169.42 245.58 165.44 246.32 163.53 246.8 161.46 246.22 158.79 252.57 162.42"/></g><g id="ID000140"><text class="cls-15" transform="translate(238.26 144.04)">U</text></g><g id="ID000141"><text class="cls-17" transform="translate(238.26 132.51)">A</text></g><g id="ID000142"><line class="cls-4" x1="234.55" y1="127.03" x2="226.42" y2="127.03"/></g><g id="ID000143"><text class="cls-5" transform="translate(212.83 132.51)">40</text></g><g id="ID000144"><text class="cls-15" transform="translate(250.11 132.51)">G</text></g><g id="ID000145"><text class="cls-15" transform="translate(262.64 132.51)">U</text></g><g id="ID000146"><text class="cls-18" transform="translate(262.64 108.14)">A</text></g><g id="ID000147"><text class="cls-16" transform="translate(250.45 108.14)">C</text></g><g id="ID000148"><polyline class="cls-4" points="257.04 131.39 257.91 133.12 288.38 142.26 287.98 142.66"/></g><g id="ID000149"><polygon class="cls-10" points="276.18 138.6 272.42 134.61 270.84 139.87 276.18 138.6"/></g><g id="ID000150"><line class="cls-4" x1="254.86" y1="122.15" x2="254.86" y2="107.53"/></g><g id="ID000151"><line class="cls-4" x1="267.05" y1="122.15" x2="267.05" y2="107.53"/></g><g id="ID000152"><line class="cls-9" x1="292.64" y1="102.65" x2="271.92" y2="102.65"/></g><g id="ID000153"><polygon class="cls-8" points="286.35 106.31 284.32 104.48 282.28 103.87 280.25 103.57 276.19 102.65 280.25 101.74 282.28 101.44 284.32 100.83 286.35 99 286.35 106.31"/></g><g id="ID000155"><text class="cls-19" transform="translate(207.79 220.87)">A</text></g><g id="ID000156"><text class="cls-19" transform="translate(207.79 236.11)">A</text></g><g id="ID000157"><line class="cls-4" x1="206.08" y1="230.63" x2="197.95" y2="230.63"/></g><g id="ID000158"><text class="cls-20" transform="translate(182.36 236.11)">50</text></g><g id="ID000159"><text class="cls-21" transform="translate(207.45 248.3)">G</text></g><g id="ID000160"><text class="cls-21" transform="translate(207.79 260.48)">U</text></g><g id="ID000161"><text class="cls-19" transform="translate(207.79 272.67)">A</text></g><g id="ID000162"><text class="cls-21" transform="translate(231.83 260.48)">G</text></g><g id="ID000163"><text class="cls-21" transform="translate(232.17 248.3)">C</text></g><g id="ID000164"><text class="cls-21" transform="translate(232.17 236.11)">U</text></g><g id="ID000165"><text class="cls-21" transform="translate(232.17 223.92)">U</text></g><g id="ID000166"><line class="cls-4" x1="244.71" y1="218.44" x2="252.83" y2="218.44"/></g><g id="ID000167"><text class="cls-5" transform="translate(254.83 221.92)">60</text></g><g id="ID000168"><text class="cls-16" transform="translate(287.01 172.12)">U</text></g><g id="ID000169"><line class="cls-4" x1="217.08" y1="230.63" x2="231.71" y2="230.63"/></g><g id="ID000170"><line class="cls-4" x1="217.08" y1="242.81" x2="231.71" y2="242.81"/></g><g id="ID000171"><polygon class="cls-8" points="226.83 255 226.82 254.84 226.81 254.69 226.79 254.54 226.75 254.39 226.71 254.24 226.66 254.09 226.59 253.95 226.52 253.81 226.44 253.68 226.36 253.56 226.26 253.43 226.16 253.32 226.05 253.21 225.93 253.11 225.81 253.01 225.68 252.93 225.54 252.85 225.41 252.78 225.26 252.72 225.12 252.67 224.97 252.63 224.81 252.6 224.66 252.58 224.51 252.56 224.35 252.56 224.2 252.57 224.05 252.59 223.89 252.61 223.74 252.65 223.59 252.69 223.45 252.75 223.31 252.81 223.18 252.89 223.04 252.97 222.92 253.06 222.8 253.16 222.68 253.26 222.57 253.37 222.48 253.49 222.39 253.62 222.3 253.75 222.23 253.88 222.16 254.02 222.1 254.16 222.05 254.31 222.02 254.46 221.99 254.61 221.97 254.77 221.96 254.92 221.96 255.08 221.97 255.23 221.99 255.38 222.02 255.54 222.05 255.69 222.1 255.83 222.16 255.98 222.23 256.12 222.3 256.25 222.39 256.38 222.48 256.5 222.57 256.62 222.68 256.74 222.8 256.84 222.92 256.94 223.04 257.03 223.18 257.11 223.31 257.18 223.45 257.25 223.59 257.3 223.74 257.35 223.89 257.38 224.05 257.41 224.2 257.43 224.35 257.44 224.51 257.44 224.66 257.42 224.81 257.4 224.97 257.37 225.12 257.33 225.26 257.28 225.41 257.22 225.54 257.15 225.68 257.07 225.81 256.99 225.93 256.89 226.05 256.79 226.16 256.68 226.26 256.57 226.36 256.44 226.44 256.32 226.52 256.19 226.59 256.05 226.66 255.9 226.71 255.76 226.75 255.61 226.79 255.46 226.81 255.31 226.82 255.15 226.83 255"/></g><g id="ID000172"><line class="cls-9" x1="240.12" y1="215.09" x2="287.88" y2="169.99"/></g><g id="ID000173"><polygon class="cls-8" points="258.54 192.67 261.27 192.6 263.17 191.65 264.85 190.48 268.43 188.35 266.11 191.81 264.84 193.42 263.78 195.26 263.56 197.99 258.54 192.67"/></g><g id="ID000175"><text class="cls-16" transform="translate(286.67 159.94)">G</text></g><g id="ID000176"><text class="cls-18" transform="translate(287.01 144.7)">A</text></g><g id="ID000177"><text class="cls-16" transform="translate(293.1 132.51)">U</text></g><g id="ID000178"><text class="cls-16" transform="translate(305.29 132.51)">U</text></g><g id="ID000179"><text class="cls-16" transform="translate(317.48 132.51)">U</text></g><g id="ID000180"><text class="cls-16" transform="translate(329.33 132.51)">G</text></g><g id="ID000181"><text class="cls-16" transform="translate(341.52 132.51)">G</text></g><g id="ID000182"><text class="cls-16" transform="translate(357.09 132.51)">U</text></g><g id="ID000183"><text class="cls-16" transform="translate(371.99 132.51)">G</text></g><g id="ID000184"><line class="cls-4" x1="376.74" y1="135.15" x2="376.74" y2="143.28"/></g><g id="ID000185"><text class="cls-5" transform="translate(369.94 153.66)">70</text></g><g id="ID000186"><text class="cls-18" transform="translate(387.56 123.37)">A</text></g><g id="ID000187"><text class="cls-18" transform="translate(378.42 108.14)">A</text></g><g id="ID000188"><text class="cls-18" transform="translate(363.18 108.14)">A</text></g><g id="ID000189"><text class="cls-16" transform="translate(360.14 95.95)">U</text></g><g id="ID000190"><text class="cls-16" transform="translate(347.95 95.95)">U</text></g><g id="ID000191"><text class="cls-16" transform="translate(341.86 108.14)">C</text></g><g id="ID000192"><text class="cls-16" transform="translate(329.67 108.14)">C</text></g><g id="ID000193"><text class="cls-18" transform="translate(317.48 108.14)">A</text></g><g id="ID000194"><text class="cls-18" transform="translate(305.29 108.14)">A</text></g><g id="ID000195"><text class="cls-18" transform="translate(293.1 108.14)">A</text></g><g id="ID000196"><line class="cls-4" x1="297.52" y1="94.53" x2="297.52" y2="86.4"/></g><g id="ID000197"><text class="cls-5" transform="translate(290.72 85.36)">80</text></g><g id="ID000198"><line class="cls-4" x1="297.52" y1="122.15" x2="297.52" y2="107.53"/></g><g id="ID000199"><line class="cls-4" x1="309.71" y1="122.15" x2="309.71" y2="107.53"/></g><g id="ID000200"><line class="cls-4" x1="321.89" y1="122.15" x2="321.89" y2="107.53"/></g><g id="ID000201"><line class="cls-4" x1="334.08" y1="122.15" x2="334.08" y2="107.53"/></g><g id="ID000202"><line class="cls-4" x1="346.27" y1="122.15" x2="346.27" y2="107.53"/></g><g id="ID000203"><line class="cls-4" x1="362.69" y1="122.3" x2="366.42" y2="107.38"/></g><g id="ID000204"><polygon class="cls-10" points="363.19 120.28 363.34 120.31 363.5 120.34 363.65 120.35 363.81 120.35 363.96 120.35 364.11 120.33 364.27 120.3 364.41 120.27 364.56 120.22 364.71 120.17 364.85 120.11 364.99 120.03 365.12 119.95 365.24 119.86 365.37 119.77 365.48 119.66 365.59 119.55 365.69 119.44 365.78 119.31 365.86 119.18 365.94 119.05 366.01 118.91 366.06 118.77 366.12 118.62 366.15 118.47 366.19 118.32 366.21 118.16 366.22 118.01 366.22 117.86 366.21 117.7 366.19 117.55 366.16 117.39 366.13 117.25 366.08 117.1 366.02 116.95 365.96 116.81 365.88 116.68 365.8 116.55 365.71 116.42 365.61 116.3 365.5 116.19 365.39 116.08 365.27 115.99 365.15 115.89 365.02 115.81 364.88 115.74 364.74 115.67 364.6 115.62 364.45 115.57 364.3 115.53 364.15 115.5 363.99 115.49 363.84 115.48 363.68 115.48 363.53 115.49 363.38 115.51 363.22 115.54 363.07 115.58 362.93 115.63 362.79 115.69 362.65 115.76 362.51 115.83 362.38 115.92 362.26 116.01 362.14 116.11 362.03 116.22 361.93 116.33 361.83 116.46 361.74 116.58 361.66 116.72 361.59 116.85 361.53 116.99 361.47 117.14 361.43 117.29 361.39 117.44 361.37 117.59 361.35 117.74 361.34 117.9 361.35 118.05 361.36 118.21 361.38 118.36 361.42 118.51 361.46 118.66 361.51 118.81 361.57 118.95 361.64 119.08 361.72 119.22 361.81 119.35 361.9 119.47 362.01 119.58 362.12 119.69 362.23 119.8 362.35 119.89 362.48 119.98 362.62 120.06 362.75 120.13 362.9 120.19 363.04 120.24 363.19 120.28"/></g><g id="ID000205"><polygon class="cls-10" points="363.55 108.81 362.36 113.54 367.09 114.72 368.27 109.99 363.55 108.81"/></g><g id="ID000207"><text class="cls-13" transform="translate(82.87 226.97)">C</text></g><g id="ID000208"><text class="cls-14" transform="translate(70.68 226.97)">A</text></g><g id="ID000209"><text class="cls-13" transform="translate(58.15 226.97)">G</text></g><g id="ID000210"><text class="cls-13" transform="translate(43.26 226.97)">U</text></g><g id="ID000211"><text class="cls-14" transform="translate(29.39 216.61)">A</text></g><g id="ID000212"><line class="cls-4" x1="23.64" y1="218.09" x2="17.9" y2="223.83"/></g><g id="ID000213"><text class="cls-5" transform="translate(12.79 231.19)">90</text></g><g id="ID000214"><text class="cls-13" transform="translate(58.49 202.59)">C</text></g><g id="ID000215"><text class="cls-13" transform="translate(70.68 202.59)">U</text></g><g id="ID000216"><text class="cls-13" transform="translate(82.53 202.59)">G</text></g><g id="ID000217"><text class="cls-13" transform="translate(94.71 202.59)">G</text></g><g id="ID000218"><text class="cls-22" transform="translate(192.56 298.66)">A</text></g><g id="ID000219"><text class="cls-3" transform="translate(207.79 298.66)">U</text></g><g id="ID000220"><line class="cls-4" x1="218.36" y1="305.96" x2="212.2" y2="300.66"/></g><g id="ID000221"><text class="cls-5" transform="translate(219.98 312.4)">100</text></g><g id="ID000222"><line class="cls-4" x1="87.28" y1="216.61" x2="87.28" y2="201.98"/></g><g id="ID000223"><line class="cls-4" x1="75.09" y1="216.61" x2="75.09" y2="201.98"/></g><g id="ID000224"><line class="cls-4" x1="62.91" y1="216.61" x2="62.91" y2="201.98"/></g><g id="ID000225"><line class="cls-9" x1="102.86" y1="200.61" x2="190.06" y2="290.53"/></g><g id="ID000226"><polygon class="cls-8" points="137.6 231.19 137.7 233.92 138.68 235.8 139.87 237.47 142.05 241.03 138.56 238.75 136.93 237.5 135.08 236.47 132.35 236.28 137.6 231.19"/></g><g id="ID000172-2" data-name="ID000172"><line class="cls-9" x1="229.46" y1="192" x2="267.46" y2="133.23"/></g><text class="cls-23" transform="translate(262.64 265.81)">P4</text><text class="cls-24" transform="translate(306.66 353.69)">P1</text><text class="cls-25" transform="translate(55.45 68.31)">P2</text><text class="cls-26" transform="translate(281.27 207.77)">P3</text><text class="cls-27" transform="translate(321.89 72.31)">P5</text><text class="cls-28" transform="translate(59.86 260.48)">P6</text><text class="cls-29" transform="translate(376.74 333.69)">5<tspan class="cls-30" x="7.79" y="0">’</tspan></text><text class="cls-29" transform="translate(378.42 290.53)">3<tspan class="cls-30" x="7.79" y="0">’</tspan></text><rect class="cls-31" x="159.45" y="183.48" width="18.31" height="6.11" transform="translate(-39.69 327.37) rotate(-81.95)"/><line class="cls-32" x1="167.77" y1="169.34" x2="170.71" y2="177.61"/><line class="cls-32" x1="173.4" y1="164.23" x2="167.71" y2="169.75"/><line class="cls-32" x1="170.37" y1="156.59" x2="173.31" y2="164.87"/><line class="cls-32" x1="172.73" y1="142.82" x2="175.68" y2="151.09"/><line class="cls-32" x1="175.67" y1="151.02" x2="169.98" y2="156.54"/><text class="cls-33" transform="translate(148.31 153.78)">FMN</text><path class="cls-34" d="M213.24,273.69c0,5.51,23.58,10.64,23.51-11.44"/><text class="cls-35" transform="translate(6.34 21.83)">FMN Riboswitch</text></svg>