<?xml version="1.0" encoding="UTF-8"?><svg id="_图层_1" xmlns="http://www.w3.org/2000/svg" viewBox="0 0 400 400"><defs><style>.cls-1{stroke-width:1.5px;}.cls-1,.cls-2,.cls-3,.cls-4,.cls-5,.cls-6{fill:none;}.cls-1,.cls-2,.cls-3,.cls-6{stroke:#000;}.cls-1,.cls-2,.cls-5,.cls-6{stroke-miterlimit:10;}.cls-7{fill:#d81408;}.cls-8{fill:#fff;}.cls-9{fill:#d8efb4;}.cls-10{fill:#070606;}.cls-11{fill:#d0d8e9;}.cls-12{fill:#d7efc5;}.cls-13{fill:#cad8e8;}.cls-2{stroke-width:.72px;}.cls-3{stroke-width:.5px;}.cls-14{fill:#030303;}.cls-15{fill:gray;}.cls-16{fill:#fdd2d7;}.cls-17{fill:#ce2127;}.cls-18{fill:#e5e5e5;}.cls-4{stroke:#b3b3b3;}.cls-5{stroke:#e5e5e5;stroke-width:7.2px;}.cls-6{stroke-width:1.94px;}.cls-19{fill:#d72026;}.cls-20{fill:#807c88;}.cls-21{font-family:ArialMT, Arial;font-size:20px;}.cls-22{fill:#231f20;}.cls-23{fill:#f5d8d9;}</style></defs><rect class="cls-8" x="10" y="83.75" width="384" height="234.35"/><path class="cls-18" d="M176.14,277.3c0,2.99-2.43,5.42-5.42,5.42s-5.42-2.42-5.42-5.42,2.42-5.42,5.42-5.42,5.42,2.43,5.42,5.42"/><path class="cls-18" d="M186.97,277.3c0,2.99-2.42,5.42-5.42,5.42s-5.42-2.42-5.42-5.42,2.42-5.42,5.42-5.42,5.42,2.43,5.42,5.42"/><path class="cls-18" d="M197.81,277.3c0,2.99-2.42,5.42-5.42,5.42s-5.42-2.42-5.42-5.42,2.42-5.42,5.42-5.42,5.42,2.43,5.42,5.42"/><line class="cls-5" x1="170.72" y1="277.3" x2="181.56" y2="277.3"/><line class="cls-5" x1="181.56" y1="277.3" x2="192.39" y2="277.3"/><g><path d="M25.05,256.64h-2.98l-.3,1.99c.18-.03,.35-.05,.64-.05,.61,0,1.2,.13,1.69,.42,.61,.34,1.12,1.03,1.12,2.04,0,1.53-1.22,2.67-2.92,2.67-.85,0-1.57-.24-1.95-.48l.26-.81c.33,.19,.96,.43,1.69,.43,.99,0,1.85-.65,1.84-1.71,0-1.04-.68-1.74-2.24-1.74-.46,0-.81,.03-1.1,.08l.51-3.73h3.74v.89Z"/><path d="M26.43,258.18c.28-1.01,.79-2.31,1.12-2.87l.67-.07c-.25,.71-.58,1.95-.71,2.82l-1.08,.12Z"/></g><g><path d="M170.31,254.64c-.22-.01-.49,.01-.79,.06-1.67,.26-2.54,1.48-2.72,2.78h.02c.37-.51,1.04-.91,1.9-.91,1.39,0,2.36,1.01,2.36,2.53s-.97,2.77-2.61,2.77-2.76-1.3-2.76-3.34c0-1.54,.54-2.76,1.32-3.54,.65-.64,1.52-1.04,2.5-1.16,.31-.05,.58-.06,.77-.06v.87h0Zm-1.82,6.41c.9,0,1.52-.76,1.52-1.88s-.64-1.79-1.61-1.79c-.64,0-1.24,.39-1.53,.96-.06,.12-.11,.26-.11,.46,.01,1.29,.61,2.25,1.72,2.25h.01Z"/><path d="M174.81,258.1v.77h-2.97v-.77h2.97Z"/><path d="M175.72,261.73v-.65l.83-.81c2-1.9,2.91-2.92,2.91-4.09,0-.79-.37-1.53-1.54-1.53-.71,0-1.3,.36-1.66,.66l-.34-.75c.53-.45,1.31-.79,2.22-.79,1.67,0,2.38,1.16,2.38,2.28,0,1.44-1.05,2.61-2.7,4.2l-.61,.58v.02h3.5v.88h-5Z"/><path d="M185.17,261.73v-2.13h-3.64v-.69l3.49-5.01h1.14v4.88h1.1v.82h-1.1v2.13s-1,0-1,0Zm0-2.95v-2.63c0-.41,.01-.82,.03-1.23h-.03c-.24,.46-.43,.79-.65,1.17l-1.91,2.66v.03h2.56Z"/><path d="M192.02,257.48c0-.61-.01-1.1-.05-1.58h.94l.06,.95h.03c.29-.54,.96-1.08,1.93-1.08,.81,0,2.06,.48,2.06,2.48v3.48h-1.06v-3.36c0-.94-.35-1.73-1.35-1.73-.69,0-1.23,.49-1.42,1.08-.05,.13-.07,.33-.07,.49v3.52h-1.06v-4.25Z"/><path d="M199.98,254.51v1.4h1.52v.81h-1.52v3.14c0,.72,.21,1.13,.79,1.13,.29,0,.46-.02,.61-.07l.05,.81c-.21,.07-.53,.14-.94,.14-.49,0-.89-.17-1.15-.45-.29-.33-.41-.84-.41-1.53v-3.18h-.9v-.81h.9v-1.07l1.04-.33Z"/></g><g><path d="M123.62,187.33v-.65l.83-.81c2-1.9,2.91-2.91,2.91-4.09,0-.79-.37-1.53-1.54-1.53-.71,0-1.3,.36-1.66,.66l-.34-.75c.53-.45,1.31-.79,2.22-.79,1.67,0,2.38,1.16,2.38,2.28,0,1.44-1.05,2.61-2.7,4.2l-.61,.58v.02h3.5v.88h-5Z"/><path d="M132.59,183.7v.77h-2.97v-.77h2.97Z"/><path d="M138.17,180.4h-2.99l-.3,1.99c.18-.02,.35-.05,.64-.05,.61,0,1.2,.13,1.69,.42,.61,.34,1.12,1.02,1.12,2.04,0,1.53-1.22,2.67-2.92,2.67-.85,0-1.57-.24-1.95-.48l.26-.81c.33,.19,.96,.43,1.69,.43,.99,0,1.85-.65,1.84-1.71,0-1.04-.69-1.75-2.24-1.75-.46,0-.81,.04-1.1,.08l.51-3.73h3.74v.89h0Z"/><path d="M143.62,183.08c0-.61-.01-1.1-.05-1.58h.94l.06,.95h.03c.29-.54,.96-1.08,1.93-1.08,.81,0,2.06,.48,2.06,2.48v3.48h-1.06v-3.36c0-.94-.35-1.73-1.35-1.73-.69,0-1.23,.49-1.42,1.08-.05,.13-.07,.33-.07,.49v3.52h-1.06v-4.25Z"/><path d="M151.58,180.11v1.4h1.52v.81h-1.52v3.14c0,.72,.21,1.13,.79,1.13,.29,0,.46-.02,.61-.07l.05,.81c-.21,.07-.53,.14-.94,.14-.49,0-.89-.17-1.15-.45-.29-.33-.41-.84-.41-1.53v-3.18h-.9v-.81h.9v-1.07l1.04-.33Z"/></g><rect class="cls-13" x="37.71" y="244.62" width="7.78" height="8.12"/><rect class="cls-13" x="56.13" y="244.62" width="7.78" height="8.12"/><rect class="cls-13" x="45.49" y="244.62" width="10.64" height="8.12"/><rect x="47.89" y="247.6" width="5.85" height="2.17"/><rect class="cls-13" x="37.71" y="233.78" width="7.78" height="8.12"/><rect class="cls-13" x="56.13" y="233.78" width="7.78" height="8.12"/><rect class="cls-13" x="45.49" y="233.78" width="10.64" height="8.12"/><rect x="47.89" y="236.76" width="5.85" height="2.17"/><rect class="cls-23" x="37.71" y="222.95" width="7.78" height="8.12"/><rect class="cls-23" x="56.13" y="222.95" width="7.78" height="8.12"/><rect class="cls-23" x="45.49" y="222.95" width="10.64" height="8.12"/><rect x="47.89" y="225.92" width="5.85" height="2.17"/><rect class="cls-12" x="37.71" y="212.11" width="7.78" height="8.12"/><rect class="cls-12" x="56.13" y="212.11" width="7.78" height="8.12"/><rect class="cls-12" x="45.49" y="212.11" width="10.64" height="8.12"/><rect x="47.89" y="215.08" width="5.85" height="2.17"/><rect class="cls-12" x="37.71" y="201.27" width="7.78" height="8.12"/><rect class="cls-12" x="56.13" y="201.27" width="7.78" height="8.12"/><rect class="cls-12" x="45.49" y="201.27" width="10.64" height="8.12"/><rect x="47.89" y="204.25" width="5.85" height="2.17"/><rect x="47.89" y="182.57" width="5.85" height="2.17"/><rect class="cls-12" x="37.71" y="168.76" width="7.78" height="8.12"/><rect class="cls-12" x="56.13" y="168.76" width="7.78" height="8.12"/><rect class="cls-12" x="45.49" y="168.76" width="10.64" height="8.12"/><rect x="47.89" y="171.73" width="5.85" height="2.17"/><rect class="cls-12" x="37.71" y="157.92" width="7.78" height="8.12"/><rect class="cls-12" x="56.13" y="157.92" width="7.78" height="8.12"/><rect class="cls-12" x="45.49" y="157.92" width="10.64" height="8.12"/><rect x="47.89" y="160.9" width="5.85" height="2.17"/><rect class="cls-12" x="37.71" y="147.08" width="7.78" height="8.12"/><rect class="cls-12" x="56.13" y="147.08" width="7.78" height="8.12"/><rect class="cls-12" x="45.49" y="147.08" width="10.64" height="8.12"/><rect x="47.89" y="150.06" width="5.85" height="2.17"/><rect x="154.31" y="238.71" width="2.17" height="5.85"/><rect class="cls-12" x="140.67" y="228.36" width="7.78" height="8.12"/><rect class="cls-12" x="140.67" y="246.79" width="7.78" height="8.12"/><rect class="cls-12" x="140.67" y="228.36" width="7.78" height="26.54"/><rect x="143.47" y="238.71" width="2.17" height="5.85"/><rect class="cls-12" x="129.83" y="228.36" width="7.78" height="8.12"/><rect class="cls-12" x="129.83" y="246.79" width="7.78" height="8.12"/><rect class="cls-12" x="129.83" y="228.36" width="7.78" height="26.54"/><rect x="132.64" y="238.71" width="2.17" height="5.85"/><rect class="cls-12" x="118.99" y="228.36" width="7.78" height="8.12"/><rect class="cls-12" x="118.99" y="246.79" width="7.78" height="8.12"/><rect class="cls-12" x="118.99" y="228.36" width="7.78" height="26.54"/><rect x="121.79" y="238.71" width="2.17" height="5.85"/><rect class="cls-12" x="108.15" y="228.36" width="7.78" height="8.12"/><rect class="cls-12" x="108.15" y="246.79" width="7.78" height="8.12"/><rect class="cls-12" x="108.15" y="228.36" width="7.78" height="26.54"/><rect x="110.96" y="238.71" width="2.17" height="5.85"/><rect class="cls-12" x="97.32" y="228.36" width="7.78" height="8.12"/><rect class="cls-12" x="97.32" y="246.79" width="7.78" height="8.12"/><rect class="cls-12" x="97.32" y="228.36" width="7.78" height="26.54"/><rect x="100.12" y="238.71" width="2.17" height="5.85"/><rect class="cls-12" x="86.48" y="228.36" width="7.78" height="8.12"/><rect class="cls-12" x="86.48" y="246.79" width="7.78" height="8.12"/><rect class="cls-12" x="86.48" y="228.36" width="7.78" height="26.54"/><rect x="89.29" y="238.71" width="2.17" height="5.85"/><rect class="cls-12" x="75.64" y="228.36" width="7.78" height="8.12"/><rect class="cls-12" x="75.64" y="246.79" width="7.78" height="8.12"/><rect class="cls-12" x="75.64" y="228.36" width="7.78" height="26.54"/><rect x="78.45" y="238.71" width="2.17" height="5.85"/><path class="cls-7" d="M44.68,252.49c-.37,.19-1.16,.39-2.14,.39-2.29,0-4-1.44-4-4.12s1.72-4.26,4.24-4.26c1,0,1.65,.22,1.93,.36l-.26,.85c-.39-.19-.95-.34-1.63-.34-1.9,0-3.17,1.22-3.17,3.35,0,2,1.14,3.26,3.11,3.26,.65,0,1.3-.13,1.72-.34l.21,.84Z"/><path class="cls-7" d="M44.81,241.54c-.47,.18-1.41,.45-2.5,.45-1.23,0-2.24-.31-3.03-1.07-.7-.67-1.13-1.76-1.13-3.02,0-2.42,1.67-4.19,4.4-4.19,.94,0,1.69,.2,2.04,.37l-.26,.85c-.43-.21-.97-.35-1.79-.35-1.98,0-3.26,1.23-3.26,3.26s1.23,3.28,3.13,3.28c.69,0,1.16-.1,1.4-.22v-2.42h-1.64v-.84h2.67v3.9Z"/><path class="cls-7" d="M39.67,222.95v4.82c0,1.81,.81,2.58,1.89,2.58,1.19,0,1.98-.79,1.98-2.58v-4.82h1.06v4.74c0,2.49-1.31,3.5-3.07,3.5-1.66,0-2.92-.94-2.92-3.47v-4.78h1.06Z"/><path d="M39.67,212.11v4.82c0,1.81,.81,2.58,1.89,2.58,1.19,0,1.98-.79,1.98-2.58v-4.82h1.06v4.74c0,2.49-1.31,3.5-3.07,3.5-1.66,0-2.92-.94-2.92-3.47v-4.78h1.06Z"/><path class="cls-20" d="M44.68,209.14c-.37,.19-1.16,.39-2.14,.39-2.29,0-4-1.44-4-4.12s1.72-4.26,4.24-4.26c1,0,1.65,.22,1.93,.36l-.26,.85c-.39-.19-.95-.34-1.63-.34-1.9,0-3.17,1.22-3.17,3.35,0,2,1.14,3.26,3.11,3.26,.65,0,1.3-.13,1.72-.34l.21,.84Z"/><path class="cls-20" d="M40.12,196l-.84,2.55h-1.08l2.76-8.12h1.26l2.77,8.12h-1.12l-.87-2.55h-2.88Zm2.66-.82l-.81-2.34c-.17-.53-.29-1.01-.41-1.48h-.04c-.11,.47-.24,.98-.4,1.47l-.79,2.35s2.44,0,2.44,0Z"/><path class="cls-20" d="M41.06,187.71v-3.44l-2.58-4.67h1.2l1.15,2.24c.3,.61,.55,1.11,.81,1.67h.02c.22-.53,.51-1.06,.82-1.67l1.17-2.24h1.18l-2.71,4.66v3.46h-1.06Z"/><path class="cls-20" d="M44.68,176.62c-.37,.19-1.16,.39-2.14,.39-2.29,0-4-1.44-4-4.12s1.72-4.26,4.24-4.26c1,0,1.65,.22,1.93,.36l-.26,.85c-.39-.19-.95-.34-1.63-.34-1.9,0-3.17,1.22-3.17,3.35,0,2,1.14,3.26,3.11,3.26,.65,0,1.3-.13,1.72-.34l.21,.84Z"/><path d="M41.06,166.04v-3.44l-2.58-4.67h1.2l1.15,2.24c.3,.61,.55,1.11,.81,1.67h.02c.22-.53,.51-1.06,.82-1.67l1.17-2.24h1.18l-2.71,4.66v3.46s-1.06,0-1.06,0Z"/><path class="cls-20" d="M41.06,155.2v-3.44l-2.58-4.67h1.2l1.15,2.24c.3,.61,.55,1.11,.81,1.67h.02c.22-.53,.51-1.06,.82-1.67l1.17-2.24h1.18l-2.71,4.66v3.46s-1.06,0-1.06,0Z"/><path class="cls-1" d="M41.6,128.57c-8.81-5.09-11.83-16.36-6.74-25.17,5.09-8.81,16.35-11.83,25.17-6.74,8.81,5.09,11.83,16.35,6.74,25.17-1.62,2.8-3.94,5.13-6.74,6.74"/><path d="M42.73,128.57c0,.62-.51,1.13-1.13,1.13s-1.13-.51-1.13-1.13,.51-1.13,1.13-1.13,1.13,.51,1.13,1.13"/><path d="M61.15,128.57c0,.62-.51,1.13-1.13,1.13s-1.13-.51-1.13-1.13,.51-1.13,1.13-1.13,1.13,.51,1.13,1.13"/><rect x="47.89" y="138.33" width="5.85" height="2.17"/><rect x="47.89" y="127.49" width="5.85" height="2.17"/><path class="cls-20" d="M57.7,147.21c.53-.11,1.3-.18,2.01-.18,1.12,0,1.85,.22,2.36,.67,.4,.35,.64,.9,.64,1.54,0,1.06-.69,1.77-1.53,2.06v.04c.61,.22,.99,.79,1.19,1.64,.26,1.13,.46,1.91,.61,2.23h-1.08c-.13-.23-.31-.93-.53-1.94-.24-1.12-.69-1.54-1.64-1.58h-.99v3.52h-1.05v-8h0Zm1.05,3.68h1.07c1.12,0,1.83-.61,1.83-1.54,0-1.05-.76-1.51-1.87-1.51-.51,0-.85,.05-1.04,.1v2.95h0Z"/><path d="M57.7,158.04c.53-.11,1.3-.18,2.01-.18,1.12,0,1.85,.22,2.36,.67,.4,.35,.64,.9,.64,1.54,0,1.06-.69,1.77-1.53,2.06v.04c.61,.22,.99,.79,1.19,1.64,.26,1.13,.46,1.91,.61,2.23h-1.08c-.13-.23-.31-.93-.53-1.94-.24-1.12-.69-1.54-1.64-1.58h-.99v3.52h-1.05v-8h0Zm1.05,3.68h1.07c1.12,0,1.83-.61,1.83-1.54,0-1.05-.76-1.51-1.87-1.51-.51,0-.85,.05-1.04,.1v2.95h0Z"/><path class="cls-20" d="M63.24,176.51c-.47,.18-1.41,.45-2.5,.45-1.23,0-2.24-.31-3.03-1.07-.7-.67-1.13-1.76-1.13-3.02,0-2.42,1.67-4.19,4.4-4.19,.94,0,1.69,.2,2.04,.37l-.26,.85c-.43-.2-.97-.35-1.79-.35-1.98,0-3.26,1.23-3.26,3.26s1.23,3.28,3.13,3.28c.69,0,1.16-.1,1.4-.22v-2.42h-1.64v-.84h2.67s0,3.9,0,3.9Z"/><path class="cls-20" d="M57.7,179.72c.53-.11,1.3-.18,2.01-.18,1.12,0,1.85,.22,2.36,.67,.4,.35,.64,.9,.64,1.54,0,1.06-.69,1.77-1.53,2.06v.04c.61,.22,.99,.79,1.19,1.64,.26,1.13,.46,1.91,.61,2.23h-1.08c-.13-.23-.31-.93-.53-1.94-.24-1.12-.69-1.54-1.64-1.58h-.99v3.52h-1.05v-8h0Zm1.05,3.68h1.07c1.12,0,1.83-.61,1.83-1.54,0-1.05-.76-1.51-1.87-1.51-.51,0-.85,.05-1.04,.1v2.95h0Z"/><path class="cls-20" d="M73.94,187.46c-.37,.19-1.16,.39-2.14,.39-2.29,0-4-1.44-4-4.12s1.72-4.26,4.24-4.26c1,0,1.65,.22,1.93,.36l-.26,.85c-.39-.19-.95-.34-1.63-.34-1.9,0-3.17,1.22-3.17,3.35,0,2,1.14,3.26,3.11,3.26,.65,0,1.3-.13,1.72-.34l.21,.84Z"/><path class="cls-7" d="M84.91,187.35c-.47,.18-1.41,.45-2.5,.45-1.23,0-2.24-.31-3.03-1.07-.7-.67-1.13-1.76-1.13-3.02,0-2.42,1.67-4.19,4.4-4.19,.94,0,1.69,.2,2.04,.37l-.26,.85c-.43-.2-.97-.35-1.79-.35-1.98,0-3.26,1.23-3.26,3.26s1.23,3.28,3.13,3.28c.69,0,1.16-.1,1.4-.22v-2.42h-1.64v-.84h2.67s0,3.9,0,3.9Z"/><path class="cls-7" d="M95.62,187.46c-.37,.19-1.16,.39-2.14,.39-2.29,0-4-1.44-4-4.12s1.72-4.26,4.24-4.26c1,0,1.65,.22,1.93,.36l-.26,.85c-.39-.19-.95-.34-1.63-.34-1.9,0-3.17,1.22-3.17,3.35,0,2,1.14,3.26,3.11,3.26,.65,0,1.3-.13,1.72-.34l.21,.84Z"/><path class="cls-7" d="M101.92,185.16l-.84,2.55h-1.08l2.76-8.12h1.26l2.77,8.12h-1.12l-.87-2.55h-2.88Zm2.66-.82l-.81-2.34c-.17-.53-.29-1.01-.41-1.48h-.04c-.11,.47-.24,.98-.4,1.47l-.79,2.35s2.44,0,2.44,0Z"/><path class="cls-1" d="M108.7,184.65c14.24,3.31,26.85,11.54,35.61,23.24"/><path class="cls-20" d="M145.05,208.44c.53-.11,1.3-.18,2.01-.18,1.12,0,1.85,.22,2.36,.67,.4,.35,.64,.9,.64,1.54,0,1.06-.69,1.77-1.53,2.06v.03c.61,.22,.99,.79,1.19,1.64,.26,1.13,.46,1.91,.61,2.23h-1.08c-.13-.23-.31-.93-.53-1.94-.24-1.12-.69-1.54-1.64-1.58h-.99v3.52h-1.05v-7.99h0Zm1.05,3.68h1.07c1.12,0,1.83-.61,1.83-1.54,0-1.05-.76-1.51-1.87-1.51-.51,0-.85,.05-1.04,.1v2.95h0Z"/><path class="cls-20" d="M150.8,223.55l-.84,2.55h-1.08l2.76-8.12h1.26l2.77,8.12h-1.12l-.87-2.55h-2.88Zm2.66-.82l-.81-2.34c-.17-.53-.29-1.01-.41-1.48h-.04c-.11,.47-.24,.97-.4,1.47l-.79,2.35h2.44Z"/><circle class="cls-7" cx="155.39" cy="232.42" r="3.35"/><circle class="cls-2" cx="155.39" cy="232.42" r="3.35"/><path d="M144.02,236.48v-3.44l-2.58-4.67h1.2l1.15,2.24c.3,.61,.55,1.11,.81,1.67h.02c.22-.53,.51-1.06,.82-1.67l1.17-2.24h1.18l-2.71,4.66v3.46h-1.06Z"/><path d="M133.18,236.48v-3.44l-2.58-4.67h1.2l1.15,2.24c.3,.61,.55,1.11,.81,1.67h.02c.22-.53,.51-1.06,.82-1.67l1.17-2.24h1.18l-2.71,4.66v3.46h-1.06Z"/><path class="cls-20" d="M120.56,228.48c.53-.11,1.3-.18,2.01-.18,1.12,0,1.85,.22,2.36,.67,.4,.35,.64,.9,.64,1.54,0,1.06-.69,1.77-1.53,2.06v.03c.61,.22,.99,.79,1.19,1.64,.26,1.13,.46,1.91,.61,2.23h-1.08c-.13-.23-.31-.93-.53-1.94-.24-1.12-.69-1.54-1.64-1.58h-.99v3.52h-1.04v-7.99Zm1.05,3.69h1.07c1.12,0,1.83-.61,1.83-1.54,0-1.05-.76-1.5-1.87-1.5-.51,0-.85,.05-1.04,.09v2.95h0Z"/><path class="cls-20" d="M109.72,228.48c.53-.11,1.3-.18,2.01-.18,1.12,0,1.85,.22,2.36,.67,.4,.35,.64,.9,.64,1.54,0,1.06-.69,1.77-1.53,2.06v.03c.61,.22,.99,.79,1.19,1.64,.26,1.13,.46,1.91,.61,2.23h-1.08c-.13-.23-.31-.93-.53-1.94-.24-1.12-.69-1.54-1.64-1.58h-.99v3.52h-1.04v-7.99Zm1.05,3.69h1.07c1.12,0,1.83-.61,1.83-1.54,0-1.05-.76-1.5-1.87-1.5-.51,0-.85,.05-1.04,.09v2.95h0Z"/><path class="cls-20" d="M98.88,228.48c.53-.11,1.3-.18,2.01-.18,1.12,0,1.85,.22,2.36,.67,.4,.35,.64,.9,.64,1.54,0,1.06-.69,1.77-1.53,2.06v.03c.61,.22,.99,.79,1.19,1.64,.26,1.13,.46,1.91,.61,2.23h-1.08c-.13-.23-.31-.93-.53-1.94-.24-1.12-.69-1.54-1.64-1.58h-.99v3.52h-1.04v-7.99Zm1.05,3.69h1.07c1.12,0,1.83-.61,1.83-1.54,0-1.05-.76-1.5-1.87-1.5-.51,0-.85,.05-1.04,.09v2.95h0Z"/><circle class="cls-7" cx="90.37" cy="232.42" r="3.35"/><circle class="cls-2" cx="90.37" cy="232.42" r="3.35"/><path d="M82.61,236.23c-.37,.19-1.16,.39-2.14,.39-2.29,0-4-1.44-4-4.12s1.72-4.26,4.24-4.26c1,0,1.65,.22,1.93,.36l-.26,.85c-.39-.19-.95-.34-1.63-.34-1.9,0-3.17,1.22-3.17,3.35,0,2,1.14,3.26,3.11,3.26,.65,0,1.3-.13,1.72-.34l.21,.84Z"/><path class="cls-7" d="M79.94,223.63l-.84,2.55h-1.08l2.76-8.12h1.26l2.77,8.12h-1.12l-.87-2.55h-2.88Zm2.66-.82l-.81-2.34c-.17-.53-.29-1.01-.41-1.48h-.04c-.11,.47-.24,.98-.4,1.47l-.79,2.35h2.44Z"/><circle class="cls-7" cx="78.09" cy="211.81" r="3.35"/><circle class="cls-2" cx="78.09" cy="211.81" r="3.35"/><path d="M72.57,209.09c-.47,.18-1.41,.45-2.5,.45-1.23,0-2.24-.31-3.03-1.07-.7-.67-1.13-1.76-1.13-3.02,0-2.42,1.67-4.19,4.4-4.19,.94,0,1.69,.2,2.04,.37l-.26,.85c-.43-.2-.97-.35-1.79-.35-1.98,0-3.26,1.23-3.26,3.26s1.23,3.28,3.13,3.28c.69,0,1.16-.09,1.4-.22v-2.42h-1.64v-.84h2.67v3.9Z"/><path class="cls-20" d="M63.24,209.03c-.47,.18-1.41,.45-2.5,.45-1.23,0-2.24-.31-3.03-1.07-.7-.67-1.13-1.76-1.13-3.02,0-2.42,1.67-4.19,4.4-4.19,.94,0,1.69,.2,2.04,.37l-.26,.85c-.43-.2-.97-.35-1.79-.35-1.98,0-3.26,1.23-3.26,3.26s1.23,3.28,3.13,3.28c.69,0,1.16-.1,1.4-.22v-2.42h-1.64v-.84h2.67s0,3.9,0,3.9Z"/><path d="M58.57,217.67l-.84,2.55h-1.08l2.76-8.12h1.26l2.77,8.12h-1.12l-.87-2.55h-2.88Zm2.66-.82l-.81-2.34c-.17-.53-.29-1.01-.41-1.48h-.04c-.11,.47-.24,.98-.4,1.47l-.79,2.35h2.44Z"/><path class="cls-7" d="M58.57,228.51l-.84,2.55h-1.08l2.76-8.12h1.26l2.77,8.12h-1.12l-.87-2.55h-2.88Zm2.66-.82l-.81-2.34c-.17-.53-.29-1.01-.41-1.48h-.04c-.11,.47-.24,.97-.4,1.47l-.79,2.35h2.44Z"/><path class="cls-7" d="M63.1,241.65c-.37,.19-1.16,.39-2.14,.39-2.29,0-4-1.44-4-4.12s1.72-4.26,4.24-4.26c1,0,1.65,.22,1.93,.36l-.26,.85c-.39-.19-.95-.34-1.63-.34-1.9,0-3.17,1.22-3.17,3.35,0,2,1.14,3.26,3.11,3.26,.65,0,1.3-.13,1.72-.34l.21,.84Z"/><path class="cls-7" d="M63.24,252.38c-.47,.18-1.41,.45-2.5,.45-1.23,0-2.24-.31-3.03-1.07-.7-.67-1.13-1.76-1.13-3.02,0-2.42,1.67-4.19,4.4-4.19,.94,0,1.69,.21,2.04,.37l-.26,.85c-.43-.21-.97-.35-1.79-.35-1.98,0-3.26,1.23-3.26,3.26s1.23,3.28,3.13,3.28c.69,0,1.16-.09,1.4-.22v-2.42h-1.64v-.84h2.67s0,3.9,0,3.9Z"/><path class="cls-7" d="M72.48,258.03c-.47,.18-1.41,.45-2.5,.45-1.23,0-2.24-.31-3.03-1.07-.7-.67-1.13-1.76-1.13-3.02,0-2.42,1.67-4.19,4.4-4.19,.94,0,1.69,.2,2.04,.37l-.26,.85c-.43-.2-.97-.35-1.79-.35-1.98,0-3.26,1.23-3.26,3.26s1.23,3.28,3.13,3.28c.69,0,1.16-.09,1.4-.22v-2.42h-1.64v-.84h2.67v3.9Z"/><path d="M82.74,254.54c-.47,.18-1.41,.45-2.5,.45-1.23,0-2.24-.31-3.03-1.07-.7-.67-1.13-1.76-1.13-3.02,0-2.42,1.67-4.19,4.4-4.19,.94,0,1.69,.2,2.04,.37l-.26,.85c-.43-.2-.97-.35-1.79-.35-1.98,0-3.26,1.23-3.26,3.26s1.23,3.28,3.13,3.28c.69,0,1.16-.1,1.4-.22v-2.42h-1.64v-.84h2.67s0,3.9,0,3.9Z"/><circle cx="90.37" cy="250.85" r="3.35"/><circle class="cls-2" cx="90.37" cy="250.85" r="3.35"/><circle class="cls-8" cx="95.79" cy="260.23" r="3.35"/><circle class="cls-2" cx="95.79" cy="260.23" r="3.35"/><path class="cls-20" d="M100.67,254.91v-3.44l-2.58-4.67h1.2l1.15,2.24c.3,.61,.55,1.11,.81,1.67h.02c.22-.53,.51-1.06,.82-1.67l1.17-2.24h1.18l-2.71,4.66v3.46h-1.06Z"/><path class="cls-20" d="M111.51,254.91v-3.44l-2.58-4.67h1.2l1.15,2.24c.3,.61,.55,1.11,.81,1.67h.02c.22-.53,.51-1.06,.82-1.67l1.17-2.24h1.18l-2.71,4.66v3.46h-1.06Z"/><path class="cls-20" d="M122.34,254.91v-3.44l-2.58-4.67h1.2l1.15,2.24c.3,.61,.55,1.11,.81,1.67h.02c.22-.53,.51-1.06,.82-1.67l1.17-2.24h1.18l-2.71,4.66v3.46h-1.06Z"/><path d="M131.39,246.91c.53-.11,1.3-.18,2.01-.18,1.12,0,1.85,.22,2.36,.67,.4,.35,.64,.9,.64,1.54,0,1.06-.69,1.77-1.53,2.06v.03c.61,.22,.99,.79,1.19,1.64,.26,1.13,.46,1.91,.61,2.23h-1.08c-.13-.23-.31-.93-.53-1.94-.24-1.12-.69-1.54-1.64-1.58h-.99v3.52h-1.05v-7.99h0Zm1.05,3.69h1.07c1.12,0,1.83-.61,1.83-1.54,0-1.05-.76-1.5-1.87-1.5-.51,0-.85,.05-1.04,.09v2.95h0Z"/><path d="M142.23,246.91c.53-.11,1.3-.18,2.01-.18,1.12,0,1.85,.22,2.36,.67,.4,.35,.64,.9,.64,1.54,0,1.06-.69,1.77-1.53,2.06v.03c.61,.22,.99,.79,1.19,1.64,.26,1.13,.46,1.91,.61,2.23h-1.08c-.13-.23-.31-.93-.53-1.94-.24-1.12-.69-1.54-1.64-1.58h-.99v3.52h-1.04v-7.99Zm1.05,3.69h1.07c1.12,0,1.83-.61,1.83-1.54,0-1.05-.76-1.5-1.87-1.5-.51,0-.85,.05-1.04,.09v2.95h0Z"/><circle class="cls-7" cx="155.39" cy="250.85" r="3.35"/><circle class="cls-2" cx="155.39" cy="250.85" r="3.35"/><path class="cls-7" d="M169.26,278.81l-.84,2.55h-1.08l2.76-8.12h1.26l2.77,8.12h-1.12l-.87-2.55h-2.88Zm2.66-.82l-.81-2.34c-.17-.53-.29-1.01-.41-1.48h-.04c-.11,.47-.24,.97-.4,1.47l-.79,2.35h2.44Z"/><path class="cls-7" d="M179.62,273.24v4.82c0,1.8,.81,2.58,1.89,2.58,1.19,0,1.98-.79,1.98-2.58v-4.82h1.06v4.74c0,2.49-1.31,3.5-3.07,3.5-1.66,0-2.92-.94-2.92-3.47v-4.78h1.06Z"/><path class="cls-7" d="M195.61,281c-.47,.18-1.41,.45-2.5,.45-1.23,0-2.24-.31-3.03-1.07-.7-.67-1.13-1.76-1.13-3.02,0-2.42,1.67-4.19,4.4-4.19,.94,0,1.69,.2,2.04,.37l-.26,.85c-.43-.2-.97-.35-1.79-.35-1.98,0-3.26,1.23-3.26,3.26s1.23,3.28,3.13,3.28c.69,0,1.16-.1,1.4-.22v-2.42h-1.64v-.84h2.67v3.9Z"/><line class="cls-1" x1="163.06" y1="258.51" x2="163.06" y2="269.64"/><line class="cls-1" x1="163.06" y1="258.51" x2="163.06" y2="253.4"/><line class="cls-1" x1="163.06" y1="269.64" x2="163.06" y2="274.75"/><line class="cls-1" x1="30.76" y1="259.52" x2="37.99" y2="259.52"/><path class="cls-1" d="M160.5,250.85c1.41,0,2.55,1.14,2.55,2.55"/><path class="cls-1" d="M165.61,277.3c-1.41,0-2.55-1.14-2.55-2.55"/><path class="cls-1" d="M41.6,255.9c0,1.99-1.62,3.61-3.61,3.61"/><line class="cls-1" x1="41.6" y1="144.81" x2="41.6" y2="128.57"/><line class="cls-1" x1="60.02" y1="144.81" x2="60.02" y2="128.57"/><g><path d="M21.29,159.07c.63-.12,1.46-.21,2.51-.21,1.29,0,2.24,.3,2.84,.84,.56,.48,.9,1.22,.9,2.12s-.27,1.64-.8,2.17c-.69,.74-1.82,1.11-3.1,1.11-.39,0-.75-.02-1.05-.09v4.06h-1.31s0-10.01,0-10.01Zm1.31,4.88c.29,.08,.66,.11,1.08,.11,1.6,0,2.54-.78,2.54-2.15s-.95-2-2.39-2c-.57,0-1.01,.06-1.23,.1v3.95Z"/><path d="M28.83,169.08v-.81l1.04-1.01c2.5-2.38,3.64-3.64,3.64-5.12,0-.99-.47-1.91-1.93-1.91-.89,0-1.63,.45-2.08,.83l-.42-.93c.66-.56,1.64-.99,2.77-.99,2.09,0,2.98,1.44,2.98,2.85,0,1.81-1.31,3.27-3.37,5.25l-.77,.72v.03h4.38v1.1s-6.25,0-6.25,0Z"/></g><g><path d="M96.12,219.87c0-.93-.02-1.69-.06-2.38h1.19l.08,1.25h.03c.53-.9,1.4-1.41,2.57-1.41,1.78,0,3.1,1.49,3.1,3.7,0,2.62-1.61,3.91-3.31,3.91-.98,0-1.81-.42-2.24-1.15h-.03v3.96h-1.32s0-7.89,0-7.89Zm1.32,1.94c0,.18,.02,.38,.06,.54,.23,.92,1.04,1.55,1.97,1.55,1.4,0,2.21-1.14,2.21-2.81,0-1.46-.75-2.71-2.15-2.71-.9,0-1.76,.63-2.02,1.63-.03,.18-.08,.38-.08,.54,0,0,0,1.27,0,1.27Z"/><path d="M106.01,220.83h.03c.18-.26,.42-.59,.63-.83l2.15-2.51h1.58l-2.81,3,3.21,4.29h-1.61l-2.5-3.51-.68,.77v2.74h-1.32v-10.69h1.32s0,6.74,0,6.74Z"/><path d="M112.02,219.46c0-.77-.02-1.37-.06-1.97h1.17l.08,1.19h.03c.36-.68,1.2-1.35,2.41-1.35,1.01,0,2.57,.6,2.57,3.1v4.35h-1.32v-4.2c0-1.17-.44-2.17-1.69-2.17-.86,0-1.54,.62-1.78,1.35-.06,.17-.09,.41-.09,.62v4.4h-1.32v-5.31Z"/><path d="M123.34,224.94c-1.96,0-3.49-1.44-3.49-3.75,0-2.44,1.61-3.87,3.61-3.87s3.51,1.52,3.51,3.73c0,2.71-1.88,3.88-3.61,3.88,0,0-.02,0-.02,0Zm.05-.99c1.26,0,2.21-1.19,2.21-2.85,0-1.23-.62-2.78-2.18-2.78s-2.23,1.44-2.23,2.83c0,1.6,.9,2.8,2.18,2.8h.02Z"/><path d="M130.23,215.74v1.75h1.9v1.01h-1.9v3.93c0,.9,.26,1.41,.99,1.41,.36,0,.57-.03,.77-.09l.06,1.01c-.26,.09-.66,.18-1.17,.18-.62,0-1.11-.21-1.43-.56-.36-.41-.51-1.05-.51-1.91v-3.97h-1.13v-1.01h1.13v-1.34l1.29-.41Z"/></g><g><path d="M20.91,221.91c.63-.12,1.46-.21,2.51-.21,1.29,0,2.24,.3,2.84,.84,.56,.48,.9,1.22,.9,2.12s-.27,1.64-.8,2.17c-.69,.74-1.82,1.11-3.1,1.11-.39,0-.75-.02-1.05-.09v4.06h-1.31s0-10.01,0-10.01Zm1.31,4.88c.29,.08,.66,.11,1.08,.11,1.6,0,2.54-.78,2.54-2.15s-.95-2-2.39-2c-.57,0-1.01,.06-1.23,.1v3.95Z"/><path d="M31.32,223.38h-.03l-1.7,.92-.26-1.01,2.14-1.14h1.13v9.78h-1.28s0-8.55,0-8.55Z"/></g><g><path class="cls-14" d="M251.04,187.42c.22,.01,.47,0,.81-.05,.59-.07,1.14-.33,1.56-.76,.49-.47,.85-1.16,.99-2.08h-.03c-.41,.53-1.01,.84-1.77,.84-1.34,0-2.2-1.06-2.2-2.41,0-1.47,1.03-2.77,2.56-2.77s2.47,1.29,2.47,3.3c0,1.72-.55,2.93-1.29,3.68-.57,.58-1.36,.95-2.17,1.05-.37,.05-.7,.07-.93,.06v-.87h0Zm1.83-6.42c-.85,0-1.46,.79-1.46,1.9,0,.98,.56,1.66,1.43,1.66,.68,0,1.21-.35,1.48-.82,.05-.1,.08-.22,.08-.39,.01-1.35-.47-2.36-1.53-2.36h-.01Z"/><path class="cls-14" d="M258.71,188.29c-1.46,0-2.46-1.43-2.48-4.02,0-2.64,1.09-4.07,2.6-4.07s2.47,1.47,2.47,3.96c0,2.66-.95,4.13-2.58,4.13h-.01Zm.05-.82c1.02,0,1.51-1.26,1.51-3.26s-.46-3.19-1.51-3.19c-.92,0-1.52,1.23-1.52,3.19-.02,2.04,.57,3.26,1.5,3.26h.01Z"/><path class="cls-14" d="M263.87,180.2c1.04,0,1.71,.84,1.71,2.34,0,1.65-.81,2.47-1.78,2.47s-1.73-.79-1.74-2.36c0-1.57,.8-2.44,1.8-2.44h.01Zm-.04,.64c-.62,0-.96,.78-.96,1.77-.02,.99,.34,1.76,.97,1.76,.67,0,.96-.75,.96-1.78,0-.95-.26-1.75-.96-1.75h0Zm-.11,7.47l4.4-8.12h.64l-4.4,8.12h-.64Zm5.02-4.86c1.03,0,1.71,.84,1.71,2.34,0,1.65-.81,2.47-1.78,2.47s-1.73-.79-1.74-2.36c0-1.57,.8-2.44,1.8-2.44h.01Zm-.05,.64c-.62,0-.96,.78-.96,1.77-.02,.99,.34,1.76,.98,1.76,.67,0,.96-.75,.96-1.78,0-.95-.26-1.75-.96-1.75h-.01Z"/></g><path class="cls-22" d="M246.6,184.62c0,1.85-1.5,3.35-3.35,3.35s-3.35-1.5-3.35-3.35,1.5-3.35,3.35-3.35,3.35,1.5,3.35,3.35"/><circle class="cls-2" cx="243.25" cy="184.62" r="3.35"/><g><path class="cls-14" d="M251.04,175.5c.22,.01,.47,0,.81-.05,.59-.07,1.14-.33,1.56-.76,.49-.47,.85-1.16,.99-2.08h-.03c-.41,.53-1.01,.84-1.77,.84-1.34,0-2.2-1.06-2.2-2.41,0-1.47,1.03-2.77,2.56-2.77s2.47,1.29,2.47,3.3c0,1.72-.55,2.93-1.29,3.68-.57,.58-1.36,.95-2.17,1.05-.37,.05-.7,.07-.93,.06v-.87h0Zm1.83-6.42c-.85,0-1.46,.79-1.46,1.9,0,.98,.56,1.66,1.43,1.66,.68,0,1.21-.35,1.48-.82,.05-.1,.08-.22,.08-.39,.01-1.35-.47-2.36-1.53-2.36h-.01Z"/><path class="cls-14" d="M261.18,168.41v.7l-3.25,7.13h-1.04l3.23-6.92v-.02h-3.65v-.88s4.71,0,4.71,0Z"/><path class="cls-14" d="M263.87,168.28c1.04,0,1.71,.84,1.71,2.34,0,1.65-.81,2.47-1.78,2.47s-1.73-.79-1.74-2.36c0-1.57,.8-2.44,1.8-2.44h.01Zm-.04,.64c-.62,0-.96,.78-.96,1.77-.02,.99,.34,1.76,.97,1.76,.67,0,.96-.75,.96-1.78,0-.95-.26-1.75-.96-1.75,0,0,0,0,0,0Zm-.11,7.47l4.4-8.12h.64l-4.4,8.12h-.64Zm5.02-4.86c1.03,0,1.71,.84,1.71,2.34,0,1.65-.81,2.47-1.78,2.47s-1.73-.79-1.74-2.36c0-1.57,.8-2.44,1.8-2.44h.01Zm-.05,.64c-.62,0-.96,.78-.96,1.77-.02,.99,.34,1.76,.98,1.76,.67,0,.96-.75,.96-1.78,0-.95-.26-1.75-.96-1.75h-.01Z"/></g><path class="cls-19" d="M246.6,172.7c0,1.85-1.5,3.35-3.35,3.35s-3.34-1.5-3.34-3.35,1.5-3.35,3.34-3.35c1.85,0,3.35,1.5,3.35,3.35"/><circle class="cls-2" cx="243.25" cy="172.7" r="3.35"/><g><path class="cls-14" d="M295.94,168.41v.7l-3.25,7.13h-1.04l3.23-6.92v-.02h-3.65v-.88s4.71,0,4.71,0Z"/><path class="cls-14" d="M301.43,169.3h-2.85l-.29,1.99c.17-.02,.33-.05,.61-.05,.59,0,1.15,.13,1.61,.42,.59,.34,1.07,1.02,1.07,2.04,0,1.53-1.16,2.67-2.78,2.67-.82,0-1.49-.24-1.86-.48l.25-.81c.31,.19,.92,.43,1.61,.43,.94,0,1.77-.65,1.76-1.71,0-1.04-.65-1.75-2.13-1.75-.44,0-.77,.04-1.04,.08l.48-3.73h3.57v.89h0Z"/><path class="cls-14" d="M304.51,168.28c1.04,0,1.71,.84,1.71,2.34,0,1.65-.81,2.47-1.78,2.47s-1.73-.79-1.74-2.36c0-1.57,.8-2.44,1.8-2.44h.01Zm-.04,.64c-.62,0-.96,.78-.96,1.77-.02,.99,.34,1.76,.97,1.76,.67,0,.96-.75,.96-1.78,0-.95-.26-1.75-.96-1.75,0,0,0,0,0,0Zm-.11,7.47l4.4-8.12h.64l-4.4,8.12h-.64Zm5.02-4.86c1.03,0,1.71,.84,1.71,2.34,0,1.65-.81,2.47-1.78,2.47s-1.73-.79-1.74-2.36c0-1.57,.8-2.44,1.8-2.44h.01Zm-.05,.64c-.62,0-.96,.78-.96,1.77-.02,.99,.34,1.76,.98,1.76,.67,0,.96-.75,.96-1.78,0-.95-.26-1.75-.96-1.75h-.01Z"/></g><path class="cls-20" d="M287.24,172.7c0,1.85-1.5,3.35-3.35,3.35s-3.35-1.5-3.35-3.35,1.5-3.35,3.35-3.35,3.35,1.5,3.35,3.35"/><circle class="cls-2" cx="283.89" cy="172.7" r="3.35"/><g><path class="cls-14" d="M295.54,181.22h-2.85l-.29,1.99c.17-.02,.33-.05,.61-.05,.59,0,1.15,.13,1.61,.42,.59,.34,1.07,1.02,1.07,2.04,0,1.53-1.16,2.67-2.78,2.67-.82,0-1.49-.24-1.86-.48l.25-.81c.31,.19,.92,.43,1.61,.43,.94,0,1.77-.65,1.76-1.71,0-1.04-.65-1.75-2.13-1.75-.44,0-.77,.04-1.04,.08l.48-3.73h3.57v.89h0Z"/><path class="cls-14" d="M299.35,188.29c-1.46,0-2.46-1.43-2.48-4.02,0-2.64,1.09-4.07,2.6-4.07s2.47,1.47,2.47,3.96c0,2.66-.95,4.13-2.58,4.13h-.01Zm.05-.82c1.02,0,1.51-1.26,1.51-3.26s-.46-3.19-1.51-3.19c-.92,0-1.52,1.23-1.52,3.19-.02,2.04,.57,3.26,1.5,3.26h.01Z"/><path class="cls-14" d="M304.51,180.19c1.04,0,1.71,.84,1.71,2.34,0,1.65-.81,2.47-1.78,2.47s-1.73-.79-1.74-2.36c0-1.57,.8-2.44,1.8-2.44h.01Zm-.04,.64c-.62,0-.96,.78-.96,1.77-.02,.99,.34,1.76,.97,1.76,.67,0,.96-.75,.96-1.78,0-.95-.26-1.75-.96-1.75h0Zm-.11,7.47l4.4-8.12h.64l-4.4,8.12h-.64Zm5.02-4.86c1.03,0,1.71,.84,1.71,2.34,0,1.65-.81,2.47-1.78,2.47s-1.73-.79-1.74-2.36c0-1.57,.8-2.44,1.8-2.44h.01Zm-.05,.64c-.62,0-.96,.78-.96,1.77-.02,.99,.34,1.76,.98,1.76,.67,0,.96-.75,.96-1.78,0-.95-.26-1.75-.96-1.75h-.01Z"/></g><g><path class="cls-14" d="M243.23,148.47c0-.61-.01-1.1-.04-1.58h.89l.06,.95h.02c.28-.54,.92-1.08,1.84-1.08,.77,0,1.96,.48,1.96,2.48v3.48h-1.01v-3.36c0-.94-.33-1.73-1.29-1.73-.65,0-1.17,.49-1.35,1.08-.04,.13-.07,.33-.07,.49v3.52h-1.01v-4.25h0Z"/><path class="cls-14" d="M254.25,151.13c0,.6,.01,1.13,.05,1.59h-.89l-.06-.95h-.02c-.25,.47-.85,1.08-1.83,1.08-.87,0-1.92-.52-1.92-2.55v-3.41h1.01v3.22c0,1.11,.33,1.87,1.24,1.87,.68,0,1.15-.49,1.33-.98,.06-.14,.09-.34,.09-.54v-3.56h1.01v4.24h0Z"/><path class="cls-14" d="M259.88,152.52c-.26,.13-.85,.34-1.6,.34-1.68,0-2.77-1.19-2.77-2.99s1.17-3.11,2.98-3.11c.6,0,1.13,.16,1.4,.31l-.23,.81c-.24-.13-.62-.28-1.17-.28-1.27,0-1.96,1-1.96,2.22,0,1.35,.83,2.18,1.93,2.18,.57,0,.95-.14,1.24-.28l.17,.79Z"/><path class="cls-14" d="M261.07,144.17h1.01v8.55h-1.01v-8.55Z"/><path class="cls-14" d="M264.33,149.99c.02,1.43,.88,2.02,1.89,2.02,.72,0,1.17-.13,1.54-.29l.19,.75c-.36,.17-.98,.37-1.86,.37-1.7,0-2.73-1.19-2.73-2.94s1-3.15,2.62-3.15c1.81,0,2.28,1.67,2.28,2.75,0,.22-.01,.39-.03,.51h-3.89Zm2.95-.77c.01-.66-.26-1.72-1.39-1.72-1.04,0-1.47,.99-1.55,1.72h2.94Z"/><path class="cls-14" d="M271.76,152.86c-1.49,0-2.66-1.16-2.66-3,0-1.95,1.23-3.09,2.75-3.09s2.67,1.22,2.67,2.99c0,2.17-1.43,3.11-2.75,3.11h-.01Zm.04-.79c.96,0,1.69-.95,1.69-2.28,0-.99-.47-2.23-1.66-2.23s-1.7,1.16-1.7,2.26c0,1.28,.69,2.24,1.66,2.24h.01Z"/><path class="cls-14" d="M277.02,145.5v1.4h1.45v.81h-1.45v3.14c0,.72,.2,1.13,.76,1.13,.28,0,.44-.02,.59-.07l.05,.81c-.2,.07-.5,.14-.9,.14-.47,0-.85-.17-1.09-.45-.28-.33-.39-.84-.39-1.53v-3.18h-.86v-.81h.86v-1.07l.99-.33Z"/><path class="cls-14" d="M280.09,145.82c-.38,0-.63-.31-.63-.69s.26-.67,.65-.67,.64,.3,.64,.67-.25,.69-.65,.69h-.01Zm-.48,6.9v-5.83h1.01v5.83h-1.01Z"/><path class="cls-14" d="M287.09,144.17v7.04c0,.52,.01,1.11,.05,1.51h-.91l-.05-1.01h-.02c-.31,.65-.98,1.14-1.88,1.14-1.34,0-2.39-1.19-2.39-2.96-.01-1.95,1.15-3.13,2.49-3.13,.86,0,1.43,.42,1.68,.88h.02v-3.47h1.01Zm-1.01,5.09c0-.14-.01-.31-.05-.46-.15-.66-.7-1.22-1.46-1.22-1.04,0-1.66,.96-1.66,2.24,0,1.19,.56,2.17,1.64,2.17,.68,0,1.3-.48,1.48-1.26,.03-.14,.05-.29,.05-.46v-1.01h0Z"/><path class="cls-14" d="M289.34,149.99c.02,1.43,.88,2.02,1.89,2.02,.72,0,1.17-.13,1.54-.29l.19,.75c-.36,.17-.98,.37-1.86,.37-1.7,0-2.73-1.19-2.73-2.94s1-3.15,2.62-3.15c1.81,0,2.28,1.67,2.28,2.75,0,.22-.01,.39-.03,.51h-3.89Zm2.95-.77c.01-.66-.26-1.72-1.39-1.72-1.04,0-1.47,.99-1.55,1.72h2.94Z"/></g><g><path class="cls-14" d="M250.46,160.24c0-.75-.01-1.35-.04-1.9h.91l.06,1h.02c.4-.72,1.07-1.13,1.96-1.13,1.35,0,2.36,1.19,2.36,2.96,0,2.1-1.23,3.13-2.53,3.13-.75,0-1.38-.34-1.71-.92h-.02v3.17h-1.01v-6.31Zm1.01,1.55c0,.14,.01,.3,.05,.43,.17,.73,.79,1.24,1.5,1.24,1.07,0,1.69-.92,1.69-2.25,0-1.17-.57-2.17-1.64-2.17-.69,0-1.34,.51-1.54,1.3-.02,.14-.06,.3-.06,.43v1.01Z"/><path class="cls-14" d="M257,160.15c0-.69-.01-1.28-.05-1.82h.89l.05,1.14h.03c.25-.78,.87-1.28,1.55-1.28,.1,0,.18,.01,.28,.04v.99c-.11-.01-.22-.02-.36-.02-.71,0-1.22,.57-1.35,1.35-.02,.16-.03,.33-.03,.51v3.11h-1.01v-4.01Z"/><path class="cls-14" d="M261.26,161.43c.02,1.43,.88,2.02,1.9,2.02,.72,0,1.17-.13,1.54-.29l.18,.75c-.36,.17-.98,.37-1.86,.37-1.7,0-2.73-1.19-2.73-2.94s1-3.15,2.62-3.15c1.81,0,2.28,1.67,2.28,2.75,0,.22-.01,.39-.03,.51h-3.89Zm2.95-.77c.01-.66-.26-1.72-1.39-1.72-1.03,0-1.47,.99-1.55,1.72h2.94Z"/><path class="cls-14" d="M266.3,163.09c.31,.19,.84,.41,1.34,.41,.72,0,1.07-.37,1.07-.87s-.28-.78-1.02-1.07c-1.01-.39-1.48-.95-1.48-1.65,0-.94,.73-1.71,1.92-1.71,.56,0,1.06,.16,1.35,.36l-.24,.76c-.22-.13-.62-.34-1.14-.34-.6,0-.92,.36-.92,.79,0,.49,.32,.71,1.04,1,.95,.37,1.46,.88,1.46,1.76,0,1.04-.77,1.76-2.07,1.76-.61,0-1.17-.17-1.56-.41l.24-.79Z"/><path class="cls-14" d="M271.56,161.43c.02,1.43,.88,2.02,1.89,2.02,.72,0,1.17-.13,1.54-.29l.19,.75c-.36,.17-.98,.37-1.86,.37-1.7,0-2.73-1.19-2.73-2.94s1-3.15,2.62-3.15c1.81,0,2.28,1.67,2.28,2.75,0,.22-.01,.39-.03,.51h-3.89Zm2.95-.77c.01-.66-.26-1.72-1.39-1.72-1.04,0-1.47,.99-1.55,1.72h2.94Z"/><path class="cls-14" d="M276.73,159.91c0-.61-.01-1.1-.05-1.58h.9l.06,.95h.02c.28-.54,.92-1.08,1.84-1.08,.77,0,1.96,.48,1.96,2.48v3.48h-1.01v-3.36c0-.94-.33-1.73-1.29-1.73-.65,0-1.17,.49-1.35,1.08-.05,.13-.07,.33-.07,.49v3.52h-1.01v-4.25h0Z"/><path class="cls-14" d="M284.29,156.94v1.4h1.45v.81h-1.45v3.14c0,.72,.19,1.13,.76,1.13,.28,0,.44-.02,.59-.07l.04,.81c-.19,.07-.5,.14-.89,.14-.47,0-.85-.17-1.09-.45-.28-.33-.39-.84-.39-1.53v-3.18h-.86v-.81h.86v-1.07l.99-.33Z"/></g><g><path class="cls-14" d="M322.63,148.47c0-.61-.01-1.1-.05-1.58h.9l.06,.95h.02c.28-.54,.92-1.08,1.84-1.08,.77,0,1.96,.48,1.96,2.48v3.48h-1.01v-3.36c0-.94-.33-1.73-1.29-1.73-.66,0-1.17,.49-1.35,1.08-.05,.13-.07,.33-.07,.49v3.52h-1.01v-4.25h0Z"/><path class="cls-14" d="M333.65,151.13c0,.6,.01,1.13,.05,1.59h-.9l-.06-.95h-.02c-.25,.47-.85,1.08-1.84,1.08-.87,0-1.92-.52-1.92-2.55v-3.41h1.01v3.22c0,1.11,.33,1.87,1.24,1.87,.68,0,1.15-.49,1.33-.98,.06-.14,.09-.34,.09-.54v-3.56h1.01v4.24Z"/><path class="cls-14" d="M339.28,152.52c-.26,.13-.85,.34-1.6,.34-1.68,0-2.77-1.19-2.77-2.99s1.17-3.11,2.98-3.11c.6,0,1.13,.16,1.4,.31l-.23,.81c-.24-.13-.62-.28-1.17-.28-1.27,0-1.96,1-1.96,2.22,0,1.35,.83,2.18,1.93,2.18,.57,0,.95-.14,1.24-.28l.17,.79Z"/><path class="cls-14" d="M340.47,144.17h1.01v8.55h-1.01v-8.55Z"/><path class="cls-14" d="M343.72,149.99c.02,1.43,.88,2.02,1.9,2.02,.72,0,1.17-.13,1.54-.29l.18,.75c-.36,.17-.98,.37-1.86,.37-1.7,0-2.73-1.19-2.73-2.94s1-3.15,2.62-3.15c1.81,0,2.28,1.67,2.28,2.75,0,.22-.01,.39-.03,.51h-3.89Zm2.95-.77c.01-.66-.26-1.72-1.39-1.72-1.03,0-1.47,.99-1.55,1.72h2.94Z"/><path class="cls-14" d="M351.16,152.86c-1.49,0-2.66-1.16-2.66-3,0-1.95,1.23-3.09,2.75-3.09s2.67,1.22,2.67,2.99c0,2.17-1.43,3.11-2.75,3.11h-.01Zm.03-.79c.96,0,1.69-.95,1.69-2.28,0-.99-.47-2.23-1.66-2.23s-1.7,1.16-1.7,2.26c0,1.28,.69,2.24,1.66,2.24h.01Z"/><path class="cls-14" d="M356.42,145.5v1.4h1.45v.81h-1.45v3.14c0,.72,.19,1.13,.76,1.13,.28,0,.44-.02,.59-.07l.04,.81c-.19,.07-.5,.14-.89,.14-.47,0-.85-.17-1.09-.45-.28-.33-.39-.84-.39-1.53v-3.18h-.86v-.81h.86v-1.07l.99-.33Z"/><path class="cls-14" d="M359.48,145.82c-.38,0-.63-.31-.63-.69s.26-.67,.65-.67,.64,.3,.64,.67-.25,.69-.65,.69h-.01Zm-.48,6.9v-5.83h1.01v5.83h-1.01Z"/><path class="cls-14" d="M366.49,144.17v7.04c0,.52,.01,1.11,.05,1.51h-.91l-.04-1.01h-.02c-.31,.65-.98,1.14-1.88,1.14-1.34,0-2.39-1.19-2.39-2.96-.01-1.95,1.15-3.13,2.49-3.13,.86,0,1.43,.42,1.68,.88h.02v-3.47h1.01Zm-1.01,5.09c0-.14-.01-.31-.05-.46-.15-.66-.7-1.22-1.46-1.22-1.04,0-1.66,.96-1.66,2.24,0,1.19,.56,2.17,1.64,2.17,.68,0,1.3-.48,1.48-1.26,.03-.14,.05-.29,.05-.46v-1.01Z"/><path class="cls-14" d="M368.74,149.99c.02,1.43,.88,2.02,1.9,2.02,.72,0,1.17-.13,1.54-.29l.18,.75c-.36,.17-.98,.37-1.86,.37-1.7,0-2.73-1.19-2.73-2.94s1-3.15,2.62-3.15c1.81,0,2.28,1.67,2.28,2.75,0,.22-.01,.39-.03,.51h-3.89Zm2.95-.77c.01-.66-.26-1.72-1.39-1.72-1.03,0-1.47,.99-1.55,1.72h2.94Z"/></g><g><path class="cls-14" d="M330.34,157.26c-.38,0-.63-.31-.63-.69s.26-.67,.66-.67,.64,.3,.64,.67-.25,.69-.65,.69h-.01Zm-.48,6.9v-5.83h1.01v5.83h-1.01Z"/><path class="cls-14" d="M337.34,155.61v7.04c0,.52,.01,1.11,.05,1.51h-.91l-.05-1.01h-.02c-.31,.65-.97,1.14-1.88,1.14-1.34,0-2.39-1.19-2.39-2.96-.01-1.95,1.15-3.13,2.49-3.13,.86,0,1.43,.42,1.68,.88h.02v-3.47s1.01,0,1.01,0Zm-1.01,5.09c0-.14-.01-.31-.04-.46-.15-.66-.7-1.22-1.46-1.22-1.04,0-1.66,.96-1.66,2.24,0,1.19,.56,2.17,1.64,2.17,.68,0,1.3-.48,1.48-1.26,.03-.14,.04-.29,.04-.46v-1.01Z"/><path class="cls-14" d="M339.59,161.43c.02,1.43,.89,2.02,1.89,2.02,.72,0,1.17-.13,1.54-.29l.18,.75c-.36,.17-.98,.37-1.86,.37-1.7,0-2.73-1.19-2.73-2.94s1-3.15,2.62-3.15c1.81,0,2.28,1.67,2.28,2.75,0,.22-.01,.39-.03,.51h-3.89Zm2.95-.77c.01-.66-.26-1.72-1.39-1.72-1.03,0-1.47,.99-1.55,1.72h2.94Z"/><path class="cls-14" d="M344.77,159.91c0-.61-.01-1.1-.05-1.58h.9l.06,.95h.02c.28-.54,.92-1.08,1.84-1.08,.77,0,1.96,.48,1.96,2.48v3.48h-1.01v-3.36c0-.94-.33-1.73-1.29-1.73-.66,0-1.17,.49-1.35,1.08-.05,.13-.07,.33-.07,.49v3.52h-1.01v-4.25h0Z"/><path class="cls-14" d="M352.32,156.94v1.4h1.45v.81h-1.45v3.14c0,.72,.2,1.13,.76,1.13,.28,0,.44-.02,.59-.07l.05,.81c-.2,.07-.5,.14-.9,.14-.47,0-.85-.17-1.09-.45-.28-.33-.39-.84-.39-1.53v-3.18h-.86v-.81h.86v-1.07l.99-.33Z"/><path class="cls-14" d="M355.39,157.26c-.38,0-.63-.31-.63-.69s.26-.67,.65-.67,.64,.3,.64,.67-.25,.69-.65,.69h-.01Zm-.48,6.9v-5.83h1.01v5.83h-1.01Z"/><path class="cls-14" d="M358.81,156.94v1.4h1.45v.81h-1.45v3.14c0,.72,.2,1.13,.76,1.13,.28,0,.44-.02,.59-.07l.05,.81c-.2,.07-.5,.14-.9,.14-.47,0-.85-.17-1.09-.45-.28-.33-.39-.84-.39-1.53v-3.18h-.86v-.81h.86v-1.07l.99-.33Z"/><path class="cls-14" d="M361.86,158.33l1.21,3.44c.14,.39,.28,.84,.37,1.19h.02c.1-.35,.22-.79,.36-1.22l1.1-3.42h1.07l-1.52,4.15c-.72,2-1.22,3.02-1.91,3.66-.51,.45-.99,.63-1.24,.67l-.25-.89c.25-.07,.59-.24,.89-.52,.28-.23,.61-.64,.85-1.18,.05-.11,.08-.18,.08-.25,0-.06-.02-.14-.08-.26l-2.04-5.38h1.1Z"/></g><g><path class="cls-14" d="M358.15,196.14v.7l-3.25,7.13h-1.04l3.23-6.92v-.02h-3.65v-.88h4.71Z"/><path class="cls-14" d="M363.65,197.04h-2.85l-.29,1.99c.17-.02,.33-.05,.61-.05,.59,0,1.15,.13,1.61,.42,.59,.34,1.07,1.02,1.07,2.04,0,1.53-1.16,2.67-2.78,2.67-.82,0-1.49-.24-1.86-.48l.25-.81c.31,.19,.92,.43,1.61,.43,.94,0,1.77-.65,1.76-1.71,0-1.04-.65-1.75-2.13-1.75-.44,0-.77,.04-1.04,.08l.48-3.73h3.57v.89h0Z"/><path class="cls-14" d="M366.73,196.01c1.04,0,1.71,.84,1.71,2.34,0,1.65-.81,2.47-1.78,2.47s-1.73-.79-1.74-2.36c0-1.57,.8-2.44,1.8-2.44h.01Zm-.04,.64c-.62,0-.96,.78-.96,1.77-.02,.99,.34,1.76,.97,1.76,.67,0,.96-.75,.96-1.78,0-.95-.26-1.75-.96-1.75h0Zm-.11,7.47l4.4-8.12h.64l-4.4,8.12h-.64Zm5.02-4.86c1.03,0,1.71,.84,1.71,2.34,0,1.65-.81,2.47-1.78,2.47s-1.73-.79-1.74-2.36c0-1.57,.8-2.44,1.8-2.44h.01Zm-.05,.64c-.62,0-.96,.78-.96,1.77-.02,.99,.34,1.76,.98,1.76,.67,0,.96-.75,.96-1.78,0-.95-.26-1.75-.96-1.75h-.01Z"/></g><path class="cls-15" d="M329.54,203.97v-8.12h1.1l2.47,4.11c.56,.95,1.02,1.79,1.38,2.64h.03c-.09-1.1-.11-2.08-.11-3.34v-3.41h.94v8.12h-1.01l-2.46-4.12c-.54-.9-1.06-1.83-1.43-2.71h-.03c.06,1.04,.07,2.01,.07,3.36v3.47s-.94,0-.94,0Z"/><path class="cls-17" d="M329.54,179.62v-8.12h1.1l2.47,4.11c.56,.95,1.02,1.79,1.38,2.64h.03c-.09-1.1-.11-2.08-.11-3.34v-3.41h.94v8.12h-1.01l-2.46-4.12c-.54-.9-1.06-1.83-1.43-2.71h-.03c.06,1.04,.07,2.01,.07,3.36v3.47h-.94Z"/><g><path class="cls-14" d="M353.89,178.89c.22,.01,.47,0,.81-.05,.59-.07,1.14-.33,1.56-.76,.49-.47,.85-1.16,.99-2.08h-.03c-.41,.53-1.01,.84-1.77,.84-1.34,0-2.2-1.06-2.2-2.41,0-1.47,1.03-2.77,2.56-2.77s2.47,1.29,2.47,3.3c0,1.72-.55,2.93-1.29,3.68-.57,.58-1.36,.95-2.17,1.05-.37,.05-.7,.07-.93,.06v-.87h0Zm1.83-6.42c-.85,0-1.46,.79-1.46,1.9,0,.98,.56,1.66,1.43,1.66,.68,0,1.21-.35,1.48-.82,.05-.1,.08-.22,.08-.39,.01-1.35-.47-2.36-1.53-2.36h-.01Z"/><path class="cls-14" d="M364.04,171.8v.7l-3.25,7.13h-1.04l3.23-6.92v-.02h-3.65v-.88s4.71,0,4.71,0Z"/><path class="cls-14" d="M366.73,171.66c1.04,0,1.71,.84,1.71,2.34,0,1.65-.81,2.47-1.78,2.47s-1.73-.79-1.74-2.36c0-1.57,.8-2.44,1.8-2.44h.01Zm-.04,.64c-.62,0-.96,.78-.96,1.77-.02,.99,.34,1.76,.97,1.76,.67,0,.96-.75,.96-1.78,0-.95-.26-1.75-.96-1.75h0Zm-.11,7.47l4.4-8.12h.64l-4.4,8.12h-.64Zm5.02-4.86c1.03,0,1.71,.84,1.71,2.34,0,1.65-.81,2.47-1.78,2.47s-1.73-.79-1.74-2.36c0-1.57,.8-2.44,1.8-2.44h.01Zm-.05,.64c-.62,0-.96,.78-.96,1.77-.02,.99,.34,1.76,.98,1.76,.67,0,.96-.75,.96-1.78,0-.95-.26-1.75-.96-1.75h-.01Z"/></g><path class="cls-14" d="M329.54,191.8v-8.12h1.1l2.47,4.11c.56,.95,1.02,1.79,1.38,2.64h.03c-.09-1.1-.11-2.08-.11-3.34v-3.41h.94v8.12h-1.01l-2.46-4.12c-.54-.9-1.06-1.83-1.43-2.71h-.03c.06,1.04,.07,2.01,.07,3.36v3.47s-.94,0-.94,0Z"/><g><path class="cls-14" d="M353.89,191.06c.22,.01,.47,0,.81-.05,.59-.07,1.14-.33,1.56-.76,.49-.47,.85-1.16,.99-2.08h-.03c-.41,.53-1.01,.84-1.77,.84-1.34,0-2.2-1.06-2.2-2.41,0-1.47,1.03-2.77,2.56-2.77s2.47,1.29,2.47,3.3c0,1.72-.55,2.93-1.29,3.68-.57,.58-1.36,.95-2.17,1.05-.37,.05-.7,.07-.93,.06v-.87h0Zm1.83-6.42c-.85,0-1.46,.79-1.46,1.9,0,.98,.56,1.66,1.43,1.66,.68,0,1.21-.35,1.48-.82,.05-.1,.08-.22,.08-.39,.01-1.35-.47-2.36-1.53-2.36h-.01Z"/><path class="cls-14" d="M361.57,191.93c-1.46,0-2.46-1.43-2.48-4.02,0-2.64,1.09-4.07,2.6-4.07s2.47,1.47,2.47,3.96c0,2.66-.95,4.13-2.58,4.13h-.01Zm.05-.82c1.02,0,1.51-1.26,1.51-3.26s-.46-3.19-1.51-3.19c-.92,0-1.52,1.23-1.52,3.19-.02,2.04,.57,3.26,1.5,3.26h.01Z"/><path class="cls-14" d="M366.73,183.84c1.04,0,1.71,.84,1.71,2.34,0,1.65-.81,2.47-1.78,2.47s-1.73-.79-1.74-2.36c0-1.57,.8-2.44,1.8-2.44h.01Zm-.04,.64c-.62,0-.96,.78-.96,1.77-.02,.99,.34,1.76,.97,1.76,.67,0,.96-.75,.96-1.78,0-.95-.26-1.75-.96-1.75h0Zm-.11,7.47l4.4-8.12h.64l-4.4,8.12h-.64Zm5.02-4.86c1.03,0,1.71,.84,1.71,2.34,0,1.65-.81,2.47-1.78,2.47s-1.73-.79-1.74-2.36c0-1.57,.8-2.44,1.8-2.44h.01Zm-.05,.64c-.62,0-.96,.78-.96,1.77-.02,.99,.34,1.76,.98,1.76,.67,0,.96-.75,.96-1.78,0-.95-.26-1.75-.96-1.75h-.01Z"/></g><g><path class="cls-10" d="M265.99,107.63c-.26,.13-.85,.34-1.6,.34-1.68,0-2.77-1.19-2.77-2.99s1.17-3.11,2.98-3.11c.6,0,1.12,.16,1.4,.31l-.23,.81c-.24-.13-.62-.28-1.17-.28-1.27,0-1.96,1-1.96,2.22,0,1.35,.83,2.18,1.93,2.18,.57,0,.95-.14,1.24-.28l.17,.79Z"/><path class="cls-10" d="M269.38,107.96c-1.49,0-2.66-1.16-2.66-3,0-1.95,1.23-3.09,2.75-3.09s2.67,1.22,2.67,2.99c0,2.17-1.43,3.11-2.75,3.11h-.01Zm.04-.79c.96,0,1.69-.95,1.69-2.28,0-.99-.47-2.23-1.66-2.23s-1.7,1.16-1.7,2.26c0,1.28,.69,2.24,1.66,2.24h.01Z"/><path class="cls-10" d="M273.72,102l1.09,3.26c.18,.54,.33,1.02,.45,1.51h.03c.13-.48,.28-.96,.47-1.51l1.08-3.26h1.06l-2.18,5.83h-.96l-2.11-5.83h1.08Z"/><path class="cls-10" d="M282.61,106.43c0,.51,.02,1,.08,1.4h-.91l-.09-.73h-.03c-.3,.46-.91,.87-1.7,.87-1.13,0-1.7-.83-1.7-1.67,0-1.41,1.19-2.18,3.34-2.17v-.12c0-.48-.13-1.36-1.26-1.35-.53,0-1.07,.16-1.46,.43l-.23-.71c.46-.3,1.13-.51,1.84-.51,1.71,0,2.12,1.22,2.12,2.38v2.18h0Zm-.99-1.58c-1.1-.02-2.35,.18-2.35,1.31,0,.7,.44,1.01,.94,1.01,.73,0,1.21-.48,1.36-.98,.03-.11,.05-.23,.05-.34v-1.01h0Z"/><path class="cls-10" d="M284.24,103.82c0-.69-.01-1.28-.05-1.82h.88l.05,1.14h.03c.25-.78,.87-1.28,1.55-1.28,.1,0,.18,.01,.27,.04v.99c-.11-.01-.22-.02-.36-.02-.71,0-1.22,.57-1.35,1.35-.02,.16-.03,.33-.03,.51v3.11h-1.01v-4.01Z"/><path class="cls-10" d="M288.63,102l1.21,3.44c.14,.39,.28,.84,.37,1.19h.02c.1-.35,.22-.79,.36-1.22l1.1-3.42h1.07l-1.52,4.15c-.72,2-1.22,3.02-1.91,3.66-.51,.45-.99,.63-1.24,.67l-.25-.89c.25-.07,.59-.24,.89-.52,.28-.23,.61-.64,.85-1.18,.05-.11,.08-.18,.08-.25,0-.06-.02-.14-.08-.26l-2.04-5.38h1.1Z"/><path class="cls-10" d="M294.15,100.93c-.38,0-.63-.31-.63-.69s.26-.67,.65-.67,.64,.3,.64,.67-.25,.69-.65,.69h-.01Zm-.48,6.9v-5.83h1.01v5.83h-1.01Z"/><path class="cls-10" d="M296.35,103.58c0-.61-.01-1.1-.05-1.58h.9l.06,.95h.02c.28-.54,.92-1.08,1.84-1.08,.77,0,1.96,.48,1.96,2.48v3.48h-1.01v-3.36c0-.94-.33-1.73-1.29-1.73-.65,0-1.17,.49-1.35,1.08-.05,.13-.07,.33-.07,.49v3.52h-1.01v-4.25h0Z"/><path class="cls-10" d="M307.47,106.98c0,1.35-.26,2.16-.79,2.67-.55,.52-1.33,.7-2.03,.7-.67,0-1.4-.17-1.85-.48l.25-.82c.37,.25,.94,.47,1.63,.47,1.03,0,1.79-.57,1.79-2.05v-.64h-.02c-.3,.54-.91,.98-1.77,.98-1.38,0-2.36-1.23-2.36-2.85,0-1.97,1.23-3.08,2.51-3.08,.96,0,1.48,.52,1.73,1h.02l.03-.87h.9c-.03,.41-.05,.88-.05,1.59v3.38h0Zm-1.01-2.69c0-.17-.01-.33-.06-.47-.18-.63-.67-1.13-1.41-1.13-.96,0-1.66,.85-1.66,2.22,0,1.13,.56,2.1,1.64,2.1,.63,0,1.19-.41,1.4-1.1,.06-.17,.08-.37,.08-.57v-1.05h0Z"/><path class="cls-10" d="M311.57,103.58c0-.61-.02-1.1-.05-1.58h.89l.05,.94h.03c.31-.55,.83-1.07,1.76-1.07,.75,0,1.32,.48,1.56,1.17h.02c.17-.34,.4-.58,.63-.76,.33-.26,.69-.41,1.22-.41,.75,0,1.84,.51,1.84,2.53v3.43h-.99v-3.3c0-1.13-.4-1.79-1.21-1.79-.59,0-1.02,.45-1.21,.95-.05,.16-.08,.35-.08,.53v3.61h-.99v-3.49c0-.94-.39-1.6-1.16-1.6-.62,0-1.09,.53-1.25,1.06-.06,.16-.08,.34-.08,.52v3.52h-.99v-4.25h0Z"/><path class="cls-10" d="M325.79,106.24c0,.6,.01,1.13,.05,1.59h-.89l-.06-.95h-.02c-.25,.47-.85,1.08-1.83,1.08-.87,0-1.92-.52-1.92-2.55v-3.41h1.01v3.22c0,1.11,.33,1.87,1.24,1.87,.68,0,1.15-.49,1.33-.98,.06-.14,.09-.34,.09-.54v-3.56h1.01v4.24h0Z"/><path class="cls-10" d="M328.69,100.61v1.4h1.45v.81h-1.45v3.14c0,.72,.2,1.13,.76,1.13,.28,0,.44-.02,.59-.07l.05,.81c-.2,.07-.51,.14-.9,.14-.47,0-.85-.17-1.09-.45-.27-.33-.39-.84-.39-1.53v-3.18h-.86v-.81h.86v-1.07l.99-.33Z"/><path class="cls-10" d="M335.18,106.43c0,.51,.02,1,.08,1.4h-.91l-.09-.73h-.03c-.3,.46-.91,.87-1.7,.87-1.12,0-1.7-.83-1.7-1.67,0-1.41,1.19-2.18,3.34-2.17v-.12c0-.48-.13-1.36-1.26-1.35-.53,0-1.07,.16-1.46,.43l-.23-.71c.46-.3,1.14-.51,1.84-.51,1.71,0,2.12,1.22,2.12,2.38v2.18h0Zm-.99-1.58c-1.1-.02-2.35,.18-2.35,1.31,0,.7,.44,1.01,.94,1.01,.73,0,1.21-.48,1.37-.98,.03-.11,.05-.23,.05-.34v-1.01h0Z"/><path class="cls-10" d="M337.98,100.61v1.4h1.45v.81h-1.45v3.14c0,.72,.2,1.13,.76,1.13,.28,0,.44-.02,.59-.07l.05,.81c-.2,.07-.5,.14-.9,.14-.47,0-.85-.17-1.09-.45-.28-.33-.39-.84-.39-1.53v-3.18h-.86v-.81h.86v-1.07l.99-.33Z"/><path class="cls-10" d="M341.05,100.93c-.38,0-.63-.31-.63-.69s.26-.67,.65-.67,.64,.3,.64,.67-.25,.69-.65,.69h-.01Zm-.48,6.9v-5.83h1.01v5.83h-1.01Z"/><path class="cls-10" d="M345.51,107.96c-1.49,0-2.66-1.16-2.66-3,0-1.95,1.23-3.09,2.76-3.09s2.67,1.22,2.67,2.99c0,2.17-1.43,3.11-2.76,3.11h0Zm.03-.79c.96,0,1.69-.95,1.69-2.28,0-.99-.47-2.23-1.66-2.23s-1.7,1.16-1.7,2.26c0,1.28,.69,2.24,1.66,2.24h.01Z"/><path class="cls-10" d="M349.55,103.58c0-.61-.01-1.1-.05-1.58h.9l.06,.95h.02c.28-.54,.92-1.08,1.84-1.08,.77,0,1.96,.48,1.96,2.48v3.48h-1.01v-3.36c0-.94-.33-1.73-1.29-1.73-.65,0-1.17,.49-1.35,1.08-.05,.13-.07,.33-.07,.49v3.52h-1.01v-4.25h0Z"/><path class="cls-10" d="M355.79,106.76c.31,.19,.84,.41,1.34,.41,.72,0,1.07-.37,1.07-.87s-.29-.78-1.02-1.07c-1.01-.39-1.48-.95-1.48-1.65,0-.94,.73-1.71,1.92-1.71,.56,0,1.06,.16,1.35,.36l-.24,.76c-.22-.13-.62-.34-1.14-.34-.6,0-.92,.36-.92,.79,0,.49,.32,.71,1.04,1,.95,.37,1.46,.88,1.46,1.76,0,1.04-.77,1.76-2.07,1.76-.61,0-1.17-.17-1.56-.41l.24-.79Z"/></g><g><path class="cls-10" d="M237.18,88h1.01v3.65h.02c.36-.65,1-1.06,1.89-1.06,1.38,0,2.34,1.2,2.34,2.96,0,2.1-1.26,3.13-2.5,3.13-.8,0-1.43-.33-1.86-1.1h-.02l-.06,.96h-.87c.03-.4,.05-.99,.05-1.51v-7.04h0Zm1.01,6.21c0,.13,.01,.26,.03,.39,.19,.73,.79,1.24,1.51,1.24,1.07,0,1.69-.9,1.69-2.24,0-1.18-.57-2.18-1.65-2.18-.69,0-1.33,.51-1.53,1.3-.03,.13-.06,.28-.06,.45v1.05h0Z"/><path class="cls-10" d="M247.63,95.15c0,.51,.02,1,.08,1.4h-.91l-.09-.73h-.03c-.3,.46-.91,.87-1.7,.87-1.13,0-1.7-.83-1.7-1.67,0-1.41,1.19-2.18,3.34-2.17v-.12c0-.48-.13-1.36-1.26-1.35-.53,0-1.07,.16-1.46,.43l-.23-.71c.46-.3,1.13-.51,1.84-.51,1.71,0,2.12,1.22,2.12,2.38v2.18h0Zm-.99-1.58c-1.1-.02-2.35,.18-2.35,1.31,0,.7,.44,1.01,.94,1.01,.73,0,1.21-.48,1.36-.98,.03-.11,.05-.23,.05-.34v-1.01h0Z"/><path class="cls-10" d="M249.1,95.48c.31,.19,.84,.41,1.34,.41,.72,0,1.07-.37,1.07-.87s-.29-.78-1.02-1.07c-1.01-.39-1.48-.95-1.48-1.65,0-.94,.73-1.71,1.92-1.71,.56,0,1.06,.16,1.35,.36l-.24,.76c-.22-.13-.62-.34-1.14-.34-.6,0-.92,.36-.92,.79,0,.49,.32,.71,1.04,1,.95,.37,1.46,.88,1.46,1.76,0,1.04-.77,1.76-2.07,1.76-.61,0-1.17-.17-1.56-.41l.24-.79Z"/><path class="cls-10" d="M254.36,93.82c.02,1.43,.88,2.02,1.9,2.02,.72,0,1.17-.13,1.54-.29l.18,.75c-.36,.17-.98,.37-1.86,.37-1.7,0-2.73-1.19-2.73-2.94s1-3.15,2.62-3.15c1.81,0,2.28,1.67,2.28,2.75,0,.22-.01,.39-.03,.51h-3.89Zm2.95-.77c.01-.66-.26-1.72-1.39-1.72-1.03,0-1.47,.99-1.55,1.72h2.94Z"/><path class="cls-10" d="M261.97,92.62c0-.75-.01-1.35-.04-1.9h.91l.06,1h.02c.4-.72,1.07-1.13,1.96-1.13,1.35,0,2.36,1.19,2.36,2.96,0,2.1-1.23,3.13-2.53,3.13-.75,0-1.38-.34-1.71-.92h-.02v3.17h-1.01v-6.31Zm1.01,1.55c0,.14,.01,.3,.05,.43,.17,.73,.79,1.24,1.5,1.24,1.07,0,1.69-.92,1.69-2.25,0-1.17-.57-2.17-1.64-2.17-.69,0-1.34,.51-1.54,1.3-.02,.14-.06,.3-.06,.43v1.01Z"/><path class="cls-10" d="M272.42,95.15c0,.51,.02,1,.08,1.4h-.91l-.09-.73h-.03c-.3,.46-.91,.87-1.7,.87-1.12,0-1.7-.83-1.7-1.67,0-1.41,1.19-2.18,3.34-2.17v-.12c0-.48-.13-1.36-1.26-1.35-.53,0-1.07,.16-1.46,.43l-.23-.71c.46-.3,1.14-.51,1.84-.51,1.71,0,2.12,1.22,2.12,2.38v2.18h0Zm-.99-1.58c-1.1-.02-2.35,.18-2.35,1.31,0,.7,.44,1.01,.94,1.01,.73,0,1.21-.48,1.37-.98,.03-.11,.05-.23,.05-.34v-1.01Z"/><path class="cls-10" d="M274.52,89.65c-.38,0-.63-.31-.63-.69s.26-.67,.65-.67,.64,.3,.64,.67-.25,.69-.65,.69h-.01Zm-.48,6.9v-5.83h1.01v5.83h-1.01Z"/><path class="cls-10" d="M276.73,92.54c0-.69-.01-1.28-.05-1.82h.88l.05,1.14h.03c.25-.78,.87-1.28,1.55-1.28,.1,0,.18,.01,.28,.04v.99c-.11-.01-.22-.02-.36-.02-.71,0-1.22,.57-1.35,1.35-.02,.16-.03,.33-.03,.51v3.11h-1.01v-4.01Z"/><path class="cls-10" d="M286.82,95.15c0,.51,.02,1,.08,1.4h-.91l-.09-.73h-.03c-.3,.46-.91,.87-1.7,.87-1.12,0-1.7-.83-1.7-1.67,0-1.41,1.19-2.18,3.34-2.17v-.12c0-.48-.13-1.36-1.26-1.35-.53,0-1.07,.16-1.46,.43l-.23-.71c.46-.3,1.14-.51,1.84-.51,1.71,0,2.12,1.22,2.12,2.38v2.18h0Zm-.99-1.58c-1.1-.02-2.35,.18-2.35,1.31,0,.7,.44,1.01,.94,1.01,.73,0,1.21-.48,1.37-.98,.03-.11,.05-.23,.05-.34v-1.01h0Z"/><path class="cls-10" d="M288.44,92.3c0-.61-.01-1.1-.05-1.58h.9l.06,.95h.02c.28-.54,.92-1.08,1.84-1.08,.77,0,1.96,.48,1.96,2.48v3.48h-1.01v-3.36c0-.94-.33-1.73-1.29-1.73-.66,0-1.17,.49-1.35,1.08-.05,.13-.07,.33-.07,.49v3.52h-1.01v-4.25h0Z"/><path class="cls-10" d="M294.81,92.3c0-.61-.01-1.1-.05-1.58h.9l.06,.95h.02c.28-.54,.92-1.08,1.84-1.08,.77,0,1.96,.48,1.96,2.48v3.48h-1.01v-3.36c0-.94-.33-1.73-1.29-1.73-.66,0-1.17,.49-1.35,1.08-.05,.13-.07,.33-.07,.49v3.52h-1.01v-4.25h0Z"/><path class="cls-10" d="M303.44,96.68c-1.49,0-2.66-1.16-2.66-3,0-1.95,1.23-3.09,2.76-3.09s2.67,1.22,2.67,2.99c0,2.17-1.43,3.11-2.75,3.11h-.01Zm.04-.79c.96,0,1.69-.95,1.69-2.28,0-.99-.47-2.23-1.66-2.23s-1.7,1.16-1.7,2.26c0,1.28,.69,2.24,1.66,2.24h.01Z"/><path class="cls-10" d="M308.7,89.32v1.4h1.45v.81h-1.45v3.14c0,.72,.2,1.13,.76,1.13,.28,0,.44-.02,.59-.07l.05,.81c-.2,.07-.51,.14-.9,.14-.47,0-.85-.17-1.09-.45-.27-.33-.39-.84-.39-1.53v-3.18h-.86v-.81h.86v-1.07l.99-.33Z"/><path class="cls-10" d="M315.2,95.15c0,.51,.02,1,.08,1.4h-.91l-.09-.73h-.03c-.3,.46-.91,.87-1.7,.87-1.12,0-1.7-.83-1.7-1.67,0-1.41,1.19-2.18,3.34-2.17v-.12c0-.48-.13-1.36-1.26-1.35-.53,0-1.07,.16-1.46,.43l-.23-.71c.46-.3,1.14-.51,1.84-.51,1.71,0,2.12,1.22,2.12,2.38v2.18h0Zm-.99-1.58c-1.1-.02-2.35,.18-2.35,1.31,0,.7,.44,1.01,.94,1.01,.73,0,1.21-.48,1.37-.98,.03-.11,.05-.23,.05-.34v-1.01Z"/><path class="cls-10" d="M318,89.32v1.4h1.45v.81h-1.45v3.14c0,.72,.2,1.13,.76,1.13,.28,0,.44-.02,.59-.07l.05,.81c-.2,.07-.5,.14-.9,.14-.47,0-.85-.17-1.09-.45-.28-.33-.39-.84-.39-1.53v-3.18h-.86v-.81h.86v-1.07l.99-.33Z"/><path class="cls-10" d="M321.06,89.65c-.38,0-.63-.31-.63-.69s.26-.67,.65-.67,.64,.3,.64,.67-.25,.69-.65,.69h-.01Zm-.48,6.9v-5.83h1.01v5.83h-1.01Z"/><path class="cls-10" d="M325.53,96.68c-1.49,0-2.66-1.16-2.66-3,0-1.95,1.23-3.09,2.76-3.09s2.67,1.22,2.67,2.99c0,2.17-1.43,3.11-2.76,3.11h0Zm.03-.79c.96,0,1.69-.95,1.69-2.28,0-.99-.47-2.23-1.66-2.23s-1.7,1.16-1.7,2.26c0,1.28,.69,2.24,1.66,2.24h.01Z"/><path class="cls-10" d="M329.57,92.3c0-.61-.01-1.1-.05-1.58h.9l.06,.95h.02c.28-.54,.92-1.08,1.84-1.08,.77,0,1.96,.48,1.96,2.48v3.48h-1.01v-3.36c0-.94-.33-1.73-1.29-1.73-.65,0-1.17,.49-1.35,1.08-.05,.13-.07,.33-.07,.49v3.52h-1.01v-4.25h0Z"/><path class="cls-10" d="M335.8,95.48c.31,.19,.84,.41,1.34,.41,.72,0,1.07-.37,1.07-.87s-.29-.78-1.02-1.07c-1.01-.39-1.48-.95-1.48-1.65,0-.94,.73-1.71,1.92-1.71,.56,0,1.06,.16,1.35,.36l-.24,.76c-.22-.13-.62-.34-1.14-.34-.6,0-.92,.36-.92,.79,0,.49,.32,.71,1.04,1,.95,.37,1.46,.88,1.46,1.76,0,1.04-.77,1.76-2.07,1.76-.61,0-1.17-.17-1.56-.41l.24-.79Z"/></g><g><path class="cls-10" d="M265.99,118.16c-.26,.13-.85,.34-1.6,.34-1.68,0-2.77-1.19-2.77-2.99s1.17-3.11,2.98-3.11c.6,0,1.12,.16,1.4,.31l-.23,.81c-.24-.13-.62-.28-1.17-.28-1.27,0-1.96,1-1.96,2.22,0,1.35,.83,2.18,1.93,2.18,.57,0,.95-.14,1.24-.28l.17,.79Z"/><path class="cls-10" d="M269.38,118.5c-1.49,0-2.66-1.16-2.66-3,0-1.95,1.23-3.09,2.75-3.09s2.67,1.22,2.67,2.99c0,2.17-1.43,3.11-2.75,3.11,0,0-.01,0-.01,0Zm.04-.79c.96,0,1.69-.95,1.69-2.28,0-.99-.47-2.23-1.66-2.23s-1.7,1.16-1.7,2.26c0,1.28,.69,2.24,1.66,2.24,0,0,.01,0,.01,0Z"/><path class="cls-10" d="M273.42,114.12c0-.61-.02-1.1-.04-1.58h.88l.05,.94h.03c.31-.55,.83-1.07,1.76-1.07,.75,0,1.32,.48,1.56,1.17h.02c.17-.34,.4-.58,.63-.76,.33-.26,.69-.41,1.22-.41,.75,0,1.84,.51,1.84,2.53v3.43h-.99v-3.3c0-1.13-.4-1.79-1.21-1.79-.59,0-1.02,.45-1.21,.95-.05,.16-.08,.35-.08,.53v3.61h-.99v-3.49c0-.94-.39-1.6-1.16-1.6-.62,0-1.09,.53-1.25,1.06-.06,.16-.08,.34-.08,.52v3.52h-.99v-4.25h0Z"/><path class="cls-10" d="M282.99,114.44c0-.75-.01-1.35-.05-1.9h.91l.06,1h.02c.4-.72,1.07-1.13,1.96-1.13,1.35,0,2.36,1.19,2.36,2.96,0,2.1-1.23,3.13-2.53,3.13-.75,0-1.38-.34-1.71-.92h-.02v3.17h-1.01v-6.31Zm1.01,1.55c0,.14,.01,.3,.05,.43,.17,.73,.79,1.24,1.5,1.24,1.07,0,1.69-.92,1.69-2.25,0-1.17-.57-2.17-1.64-2.17-.69,0-1.34,.51-1.54,1.3-.02,.14-.06,.3-.06,.43v1.01Z"/><path class="cls-10" d="M293.44,116.97c0,.51,.02,1,.08,1.4h-.91l-.09-.73h-.03c-.3,.46-.91,.87-1.7,.87-1.13,0-1.7-.83-1.7-1.67,0-1.41,1.19-2.18,3.34-2.17v-.12c0-.48-.13-1.36-1.26-1.35-.53,0-1.07,.16-1.46,.43l-.23-.71c.46-.3,1.13-.51,1.84-.51,1.71,0,2.12,1.22,2.12,2.38v2.18h0Zm-.99-1.58c-1.1-.02-2.35,.18-2.35,1.31,0,.7,.44,1.01,.94,1.01,.73,0,1.21-.48,1.36-.98,.03-.11,.05-.23,.05-.34v-1.01h0Z"/><path class="cls-10" d="M296.24,111.14v1.4h1.45v.81h-1.45v3.14c0,.72,.2,1.13,.76,1.13,.28,0,.44-.02,.59-.07l.05,.81c-.2,.07-.51,.14-.9,.14-.47,0-.85-.17-1.09-.45-.27-.33-.39-.84-.39-1.53v-3.18h-.86v-.81h.86v-1.07l.99-.33Z"/><path class="cls-10" d="M299.3,111.47c-.38,0-.63-.31-.63-.69s.26-.67,.66-.67,.64,.3,.64,.67-.25,.69-.65,.69h-.01Zm-.48,6.9v-5.83h1.01v5.83h-1.01Z"/><path class="cls-10" d="M301.5,109.82h1.01v3.65h.02c.36-.65,1-1.06,1.89-1.06,1.38,0,2.34,1.2,2.34,2.96,0,2.1-1.26,3.13-2.5,3.13-.8,0-1.43-.33-1.86-1.1h-.02l-.06,.96h-.87c.03-.4,.05-.99,.05-1.51v-7.04h0Zm1.01,6.21c0,.13,.01,.26,.03,.39,.19,.73,.79,1.24,1.51,1.24,1.07,0,1.69-.9,1.69-2.24,0-1.18-.57-2.18-1.65-2.18-.69,0-1.33,.51-1.53,1.3-.03,.13-.06,.28-.06,.45v1.05h0Z"/><path class="cls-10" d="M308.04,109.82h1.01v8.55h-1.01v-8.55Z"/><path class="cls-10" d="M311.3,115.64c.02,1.43,.89,2.02,1.9,2.02,.72,0,1.17-.13,1.54-.29l.18,.75c-.36,.17-.98,.37-1.86,.37-1.7,0-2.73-1.19-2.73-2.94s1-3.15,2.62-3.15c1.81,0,2.28,1.67,2.28,2.75,0,.22-.01,.39-.03,.51h-3.89Zm2.95-.77c.01-.66-.26-1.72-1.39-1.72-1.03,0-1.47,.99-1.55,1.72,0,0,2.94,0,2.94,0Z"/><path class="cls-10" d="M318.91,114.12c0-.61-.02-1.1-.05-1.58h.89l.05,.94h.03c.31-.55,.83-1.07,1.76-1.07,.75,0,1.32,.48,1.56,1.17h.02c.17-.34,.4-.58,.63-.76,.33-.26,.69-.41,1.22-.41,.75,0,1.84,.51,1.84,2.53v3.43h-.99v-3.3c0-1.13-.4-1.79-1.21-1.79-.59,0-1.02,.45-1.21,.95-.05,.16-.08,.35-.08,.53v3.61h-.99v-3.49c0-.94-.39-1.6-1.16-1.6-.62,0-1.09,.53-1.25,1.06-.06,.16-.08,.34-.08,.52v3.52h-.99v-4.25h0Z"/><path class="cls-10" d="M333.13,116.78c0,.6,.01,1.13,.05,1.59h-.89l-.06-.95h-.02c-.25,.47-.85,1.08-1.83,1.08-.87,0-1.92-.52-1.92-2.55v-3.41h1.01v3.22c0,1.11,.33,1.87,1.24,1.87,.68,0,1.15-.49,1.33-.98,.06-.14,.09-.34,.09-.54v-3.56h1.01v4.24h0Z"/><path class="cls-10" d="M336.02,111.14v1.4h1.45v.81h-1.45v3.14c0,.72,.2,1.13,.76,1.13,.28,0,.44-.02,.59-.07l.05,.81c-.2,.07-.51,.14-.9,.14-.47,0-.85-.17-1.09-.45-.27-.33-.39-.84-.39-1.53v-3.18h-.86v-.81h.86v-1.07l.99-.33Z"/><path class="cls-10" d="M342.52,116.97c0,.51,.02,1,.08,1.4h-.91l-.09-.73h-.03c-.3,.46-.91,.87-1.7,.87-1.12,0-1.7-.83-1.7-1.67,0-1.41,1.19-2.18,3.34-2.17v-.12c0-.48-.13-1.36-1.26-1.35-.53,0-1.07,.16-1.46,.43l-.23-.71c.46-.3,1.14-.51,1.84-.51,1.71,0,2.12,1.22,2.12,2.38v2.18h0Zm-.99-1.58c-1.1-.02-2.35,.18-2.35,1.31,0,.7,.44,1.01,.94,1.01,.73,0,1.21-.48,1.37-.98,.03-.11,.05-.23,.05-.34v-1.01h0Z"/><path class="cls-10" d="M345.32,111.14v1.4h1.45v.81h-1.45v3.14c0,.72,.2,1.13,.76,1.13,.28,0,.44-.02,.59-.07l.05,.81c-.2,.07-.5,.14-.9,.14-.47,0-.85-.17-1.09-.45-.28-.33-.39-.84-.39-1.53v-3.18h-.86v-.81h.86v-1.07l.99-.33Z"/><path class="cls-10" d="M348.38,111.47c-.38,0-.63-.31-.63-.69s.26-.67,.65-.67,.64,.3,.64,.67-.25,.69-.65,.69h-.01Zm-.48,6.9v-5.83h1.01v5.83h-1.01Z"/><path class="cls-10" d="M352.85,118.5c-1.49,0-2.66-1.16-2.66-3,0-1.95,1.23-3.09,2.76-3.09s2.67,1.22,2.67,2.99c0,2.17-1.43,3.11-2.76,3.11,0,0,0,0,0,0Zm.03-.79c.96,0,1.69-.95,1.69-2.28,0-.99-.47-2.23-1.66-2.23s-1.7,1.16-1.7,2.26c0,1.28,.69,2.24,1.66,2.24,0,0,.01,0,.01,0Z"/><path class="cls-10" d="M356.89,114.12c0-.61-.01-1.1-.05-1.58h.9l.06,.95h.02c.28-.54,.92-1.08,1.84-1.08,.77,0,1.96,.48,1.96,2.48v3.48h-1.01v-3.36c0-.94-.33-1.73-1.29-1.73-.65,0-1.17,.49-1.35,1.08-.05,.13-.07,.33-.07,.49v3.52h-1.01v-4.25h0Z"/><path class="cls-10" d="M363.12,117.3c.31,.19,.84,.41,1.34,.41,.72,0,1.07-.37,1.07-.87s-.29-.78-1.02-1.07c-1.01-.39-1.48-.95-1.48-1.65,0-.94,.73-1.71,1.92-1.71,.56,0,1.06,.16,1.35,.36l-.24,.76c-.22-.13-.62-.34-1.14-.34-.6,0-.92,.36-.92,.79,0,.49,.32,.71,1.04,1,.95,.37,1.46,.88,1.46,1.76,0,1.04-.77,1.76-2.07,1.76-.61,0-1.17-.17-1.56-.41l.24-.79Z"/></g><g><path class="cls-10" d="M262.03,124.65c0-.61-.01-1.1-.05-1.58h.9l.06,.95h.02c.28-.54,.92-1.08,1.84-1.08,.77,0,1.96,.48,1.96,2.48v3.48h-1.01v-3.36c0-.94-.33-1.73-1.29-1.73-.66,0-1.17,.49-1.35,1.08-.05,.13-.07,.33-.07,.49v3.52h-1.01v-4.25h0Z"/><path class="cls-10" d="M270.66,129.04c-1.49,0-2.66-1.16-2.66-3,0-1.95,1.23-3.09,2.76-3.09s2.67,1.22,2.67,2.99c0,2.17-1.43,3.11-2.75,3.11,0,0-.01,0-.01,0Zm.03-.79c.96,0,1.69-.95,1.69-2.28,0-.99-.47-2.23-1.66-2.23s-1.7,1.16-1.7,2.26c0,1.28,.69,2.24,1.66,2.24,0,0,.01,0,.01,0Z"/><path class="cls-10" d="M277.14,124.65c0-.61-.02-1.1-.04-1.58h.88l.05,.94h.03c.31-.55,.83-1.07,1.76-1.07,.75,0,1.32,.48,1.56,1.17h.02c.17-.34,.4-.58,.63-.76,.33-.26,.69-.41,1.22-.41,.75,0,1.84,.51,1.84,2.53v3.43h-.99v-3.3c0-1.13-.4-1.79-1.21-1.79-.59,0-1.02,.45-1.21,.95-.05,.16-.08,.35-.08,.53v3.61h-.99v-3.49c0-.94-.39-1.6-1.16-1.6-.62,0-1.09,.53-1.25,1.06-.06,.16-.08,.34-.08,.52v3.52h-.99v-4.25h0Z"/><path class="cls-10" d="M291.36,127.31c0,.6,.01,1.13,.05,1.59h-.9l-.06-.95h-.02c-.25,.47-.85,1.08-1.84,1.08-.87,0-1.92-.52-1.92-2.55v-3.41h1.01v3.22c0,1.11,.33,1.87,1.24,1.87,.68,0,1.15-.49,1.33-.98,.06-.14,.09-.34,.09-.54v-3.56h1.01v4.24h0Z"/><path class="cls-10" d="M294.25,121.68v1.4h1.45v.81h-1.45v3.14c0,.72,.19,1.13,.76,1.13,.28,0,.44-.02,.59-.07l.04,.81c-.19,.07-.5,.14-.89,.14-.47,0-.85-.17-1.09-.45-.28-.33-.39-.84-.39-1.53v-3.18h-.86v-.81h.86v-1.07l.99-.33Z"/><path class="cls-10" d="M300.75,127.51c0,.51,.02,1,.08,1.4h-.91l-.09-.73h-.03c-.3,.46-.91,.87-1.7,.87-1.12,0-1.7-.83-1.7-1.67,0-1.41,1.19-2.18,3.34-2.17v-.12c0-.48-.12-1.36-1.26-1.35-.53,0-1.07,.16-1.46,.43l-.23-.71c.46-.3,1.14-.51,1.84-.51,1.71,0,2.12,1.22,2.12,2.38v2.18Zm-.99-1.58c-1.1-.02-2.35,.18-2.35,1.31,0,.7,.44,1.01,.94,1.01,.73,0,1.21-.48,1.37-.98,.03-.11,.05-.23,.05-.34v-1.01h0Z"/><path class="cls-10" d="M303.55,121.68v1.4h1.45v.81h-1.45v3.14c0,.72,.19,1.13,.76,1.13,.28,0,.44-.02,.59-.07l.05,.81c-.19,.07-.51,.14-.9,.14-.47,0-.85-.17-1.09-.45-.28-.33-.39-.84-.39-1.53v-3.18h-.86v-.81h.86v-1.07l.99-.33Z"/><path class="cls-10" d="M306.61,122.01c-.38,0-.63-.31-.63-.69s.26-.67,.65-.67,.64,.3,.64,.67-.25,.69-.66,.69h-.01Zm-.48,6.9v-5.83h1.01v5.83h-1.01Z"/><path class="cls-10" d="M311.08,129.04c-1.49,0-2.66-1.16-2.66-3,0-1.95,1.23-3.09,2.75-3.09s2.67,1.22,2.67,2.99c0,2.17-1.43,3.11-2.75,3.11,0,0-.01,0-.01,0Zm.04-.79c.96,0,1.69-.95,1.69-2.28,0-.99-.47-2.23-1.66-2.23s-1.7,1.16-1.7,2.26c0,1.28,.69,2.24,1.66,2.24,0,0,.01,0,.01,0Z"/><path class="cls-10" d="M315.12,124.65c0-.61-.01-1.1-.04-1.58h.89l.06,.95h.02c.28-.54,.92-1.08,1.84-1.08,.77,0,1.96,.48,1.96,2.48v3.48h-1.01v-3.36c0-.94-.33-1.73-1.29-1.73-.65,0-1.17,.49-1.35,1.08-.04,.13-.07,.33-.07,.49v3.52h-1.01v-4.25h0Z"/><path class="cls-10" d="M321.35,127.83c.31,.19,.84,.41,1.34,.41,.72,0,1.07-.37,1.07-.87s-.28-.78-1.02-1.07c-1.01-.39-1.48-.95-1.48-1.65,0-.94,.73-1.71,1.92-1.71,.56,0,1.06,.16,1.35,.36l-.24,.76c-.22-.13-.62-.34-1.14-.34-.6,0-.92,.36-.92,.79,0,.49,.32,.71,1.04,1,.95,.37,1.46,.88,1.46,1.76,0,1.04-.77,1.76-2.07,1.76-.61,0-1.17-.17-1.56-.41l.24-.79Z"/><path class="cls-10" d="M330.73,129.04c-1.49,0-2.66-1.16-2.66-3,0-1.95,1.23-3.09,2.76-3.09s2.67,1.22,2.67,2.99c0,2.17-1.43,3.11-2.76,3.11,0,0,0,0,0,0Zm.03-.79c.96,0,1.69-.95,1.69-2.28,0-.99-.47-2.23-1.66-2.23s-1.7,1.16-1.7,2.26c0,1.28,.69,2.24,1.66,2.24,0,0,.01,0,.01,0Z"/><path class="cls-10" d="M334.77,120.35h1.01v3.65h.02c.36-.65,1-1.06,1.9-1.06,1.38,0,2.34,1.2,2.34,2.96,0,2.1-1.26,3.13-2.5,3.13-.8,0-1.43-.33-1.86-1.1h-.02l-.06,.96h-.87c.03-.4,.05-.99,.05-1.51v-7.04h0Zm1.01,6.21c0,.13,.01,.26,.03,.39,.2,.73,.79,1.24,1.52,1.24,1.07,0,1.69-.9,1.69-2.24,0-1.18-.57-2.18-1.65-2.18-.69,0-1.33,.51-1.53,1.3-.03,.13-.06,.28-.06,.45v1.05h0Z"/><path class="cls-10" d="M341.16,127.83c.31,.19,.84,.41,1.34,.41,.72,0,1.07-.37,1.07-.87s-.29-.78-1.02-1.07c-1.01-.39-1.48-.95-1.48-1.65,0-.94,.73-1.71,1.92-1.71,.56,0,1.06,.16,1.35,.36l-.24,.76c-.22-.13-.62-.34-1.13-.34-.6,0-.92,.36-.92,.79,0,.49,.32,.71,1.05,1,.95,.37,1.46,.88,1.46,1.76,0,1.04-.77,1.76-2.07,1.76-.61,0-1.17-.17-1.56-.41l.24-.79Z"/><path class="cls-10" d="M346.42,126.17c.02,1.43,.89,2.02,1.89,2.02,.72,0,1.17-.13,1.54-.29l.18,.75c-.36,.17-.98,.37-1.86,.37-1.7,0-2.73-1.19-2.73-2.94s1-3.15,2.62-3.15c1.81,0,2.28,1.67,2.28,2.75,0,.22-.01,.39-.03,.51h-3.89Zm2.95-.77c.01-.66-.26-1.72-1.39-1.72-1.03,0-1.47,.99-1.55,1.72,0,0,2.94,0,2.94,0Z"/><path class="cls-10" d="M351.61,124.89c0-.69-.01-1.28-.05-1.82h.89l.04,1.14h.03c.25-.78,.87-1.28,1.55-1.28,.1,0,.19,.01,.28,.04v.99c-.11-.01-.22-.02-.36-.02-.71,0-1.22,.57-1.35,1.35-.02,.16-.03,.33-.03,.51v3.11h-1.01v-4.01Z"/><path class="cls-10" d="M356.03,123.08l1.09,3.26c.18,.54,.33,1.02,.45,1.51h.03c.13-.48,.29-.96,.47-1.51l1.08-3.26h1.06l-2.18,5.83h-.96l-2.11-5.83h1.08Z"/><path class="cls-10" d="M361.62,126.17c.02,1.43,.88,2.02,1.9,2.02,.72,0,1.17-.13,1.54-.29l.18,.75c-.36,.17-.98,.37-1.86,.37-1.7,0-2.73-1.19-2.73-2.94s1-3.15,2.62-3.15c1.81,0,2.28,1.67,2.28,2.75,0,.22-.01,.39-.03,.51h-3.89Zm2.95-.77c.01-.66-.26-1.72-1.39-1.72-1.03,0-1.47,.99-1.55,1.72,0,0,2.94,0,2.94,0Z"/><path class="cls-10" d="M371.59,120.35v7.04c0,.52,.01,1.11,.05,1.51h-.91l-.05-1.01h-.02c-.31,.65-.98,1.14-1.88,1.14-1.34,0-2.39-1.19-2.39-2.96-.01-1.95,1.15-3.13,2.49-3.13,.86,0,1.43,.42,1.68,.88h.02v-3.47s1.01,0,1.01,0Zm-1.01,5.1c0-.14-.01-.31-.05-.46-.15-.66-.7-1.22-1.46-1.22-1.04,0-1.66,.96-1.66,2.24,0,1.19,.56,2.17,1.64,2.17,.68,0,1.3-.48,1.48-1.26,.03-.14,.05-.29,.05-.46v-1.01h0Z"/></g><rect class="cls-16" x="236.34" y="122.8" width="5.83" height="6.09"/><rect class="cls-16" x="250.16" y="122.8" width="5.84" height="6.09"/><rect class="cls-16" x="242.17" y="122.8" width="7.98" height="6.09"/><line class="cls-6" x1="246.16" y1="126.25" x2="246.16" y2="125.44"/><rect class="cls-9" x="250.16" y="101.66" width="6.09" height="5.83"/><rect class="cls-9" x="236.34" y="101.66" width="6.09" height="5.83"/><rect class="cls-9" x="242.42" y="101.66" width="7.73" height="5.83"/><line class="cls-2" x1="247.39" y1="104.58" x2="245.19" y2="104.58"/><rect class="cls-11" x="250.16" y="112.3" width="6.09" height="5.83"/><rect class="cls-11" x="236.34" y="112.3" width="6.09" height="5.83"/><rect class="cls-11" x="242.42" y="112.3" width="7.73" height="5.83"/><line class="cls-2" x1="247.39" y1="115.21" x2="245.19" y2="115.21"/><g><line class="cls-1" x1="239.92" y1="227.16" x2="257.11" y2="227.16"/><g><path class="cls-14" d="M264.94,224.86l1.09,3.26c.18,.54,.33,1.03,.45,1.51h.03c.13-.48,.28-.96,.47-1.51l1.08-3.26h1.06l-2.18,5.83h-.96l-2.11-5.83h1.08Z"/><path class="cls-14" d="M273.84,229.29c0,.51,.02,1,.08,1.4h-.91l-.09-.73h-.03c-.3,.46-.91,.87-1.7,.87-1.13,0-1.7-.83-1.7-1.67,0-1.41,1.19-2.18,3.34-2.17v-.12c0-.48-.13-1.36-1.26-1.35-.53,0-1.07,.16-1.46,.43l-.23-.71c.46-.3,1.13-.51,1.84-.51,1.71,0,2.12,1.22,2.12,2.38v2.18h0Zm-.99-1.58c-1.1-.02-2.35,.18-2.35,1.31,0,.7,.44,1.01,.94,1.01,.73,0,1.21-.48,1.36-.97,.03-.11,.05-.23,.05-.34v-1.01h0Z"/><path class="cls-14" d="M275.47,226.68c0-.69-.01-1.28-.05-1.82h.88l.05,1.15h.03c.25-.78,.87-1.28,1.55-1.28,.1,0,.18,.01,.27,.04v.99c-.11-.01-.22-.03-.36-.03-.71,0-1.22,.57-1.35,1.35-.02,.16-.03,.33-.03,.51v3.11h-1.01v-4.01Z"/><path class="cls-14" d="M279.74,223.79c-.38,0-.63-.31-.63-.69s.26-.67,.65-.67,.64,.3,.64,.67-.25,.69-.65,.69h-.01Zm-.48,6.9v-5.83h1.01v5.83h-1.01Z"/><path class="cls-14" d="M285.86,229.29c0,.51,.02,1,.08,1.4h-.91l-.09-.73h-.03c-.3,.46-.91,.87-1.7,.87-1.13,0-1.7-.83-1.7-1.67,0-1.41,1.19-2.18,3.34-2.17v-.12c0-.48-.13-1.36-1.26-1.35-.53,0-1.07,.16-1.46,.43l-.23-.71c.46-.3,1.13-.51,1.84-.51,1.71,0,2.12,1.22,2.12,2.38v2.18h0Zm-.99-1.58c-1.1-.02-2.35,.18-2.35,1.31,0,.7,.44,1.01,.94,1.01,.73,0,1.21-.48,1.36-.97,.03-.11,.05-.23,.05-.34v-1.01h0Z"/><path class="cls-14" d="M287.47,222.14h1.01v3.65h.02c.36-.65,1-1.06,1.89-1.06,1.38,0,2.34,1.21,2.34,2.96,0,2.1-1.26,3.13-2.5,3.13-.8,0-1.43-.33-1.86-1.1h-.02l-.06,.96h-.87c.03-.4,.04-.99,.04-1.51v-7.05h0Zm1.01,6.21c0,.13,.01,.26,.03,.39,.2,.73,.79,1.24,1.52,1.24,1.07,0,1.69-.9,1.69-2.24,0-1.18-.57-2.18-1.65-2.18-.69,0-1.33,.51-1.53,1.3-.03,.13-.06,.28-.06,.45v1.05h0Z"/><path class="cls-14" d="M294,222.14h1.01v8.55h-1.01v-8.55Z"/><path class="cls-14" d="M297.26,227.96c.02,1.43,.88,2.02,1.89,2.02,.72,0,1.17-.13,1.54-.29l.19,.75c-.36,.17-.98,.37-1.86,.37-1.7,0-2.73-1.19-2.73-2.94s1-3.15,2.62-3.15c1.81,0,2.28,1.67,2.28,2.75,0,.22-.01,.39-.03,.51h-3.89Zm2.95-.77c.01-.66-.26-1.72-1.39-1.72-1.04,0-1.47,.99-1.55,1.72h2.94Z"/><path class="cls-14" d="M304.78,227.06v.77h-2.83v-.77h2.83Z"/><path class="cls-14" d="M305.96,222.14h1.01v8.55h-1.01v-8.55Z"/><path class="cls-14" d="M309.22,227.96c.02,1.43,.89,2.02,1.89,2.02,.72,0,1.17-.13,1.54-.29l.19,.75c-.36,.17-.98,.37-1.86,.37-1.7,0-2.73-1.19-2.73-2.94s1-3.15,2.62-3.15c1.81,0,2.28,1.67,2.28,2.75,0,.22-.01,.39-.03,.51h-3.89Zm2.95-.77c.01-.66-.26-1.72-1.39-1.72-1.03,0-1.47,.99-1.55,1.72h2.94Z"/><path class="cls-14" d="M314.4,226.44c0-.61-.01-1.1-.04-1.58h.89l.06,.95h.02c.27-.54,.92-1.09,1.83-1.09,.77,0,1.96,.48,1.96,2.48v3.48h-1.01v-3.36c0-.94-.33-1.73-1.29-1.73-.66,0-1.17,.49-1.35,1.09-.04,.13-.07,.33-.07,.49v3.52h-1.01v-4.25h0Z"/><path class="cls-14" d="M325.52,229.84c0,1.35-.26,2.16-.79,2.67-.55,.52-1.33,.7-2.03,.7-.66,0-1.4-.17-1.85-.48l.25-.82c.36,.25,.94,.47,1.63,.47,1.03,0,1.79-.56,1.79-2.05v-.64h-.02c-.3,.54-.91,.97-1.77,.97-1.38,0-2.36-1.23-2.36-2.85,0-1.98,1.23-3.08,2.51-3.08,.96,0,1.48,.52,1.73,1h.02l.03-.87h.89c-.03,.41-.04,.88-.04,1.59v3.38h0Zm-1.01-2.69c0-.17-.01-.33-.06-.47-.19-.63-.67-1.13-1.41-1.13-.96,0-1.65,.85-1.65,2.22,0,1.13,.56,2.1,1.64,2.1,.63,0,1.2-.41,1.4-1.1,.06-.17,.08-.37,.08-.57v-1.05h0Z"/><path class="cls-14" d="M328.41,223.47v1.4h1.45v.81h-1.45v3.14c0,.72,.19,1.13,.76,1.13,.28,0,.44-.03,.59-.07l.05,.81c-.19,.07-.51,.14-.89,.14-.47,0-.85-.17-1.09-.45-.28-.32-.39-.84-.39-1.53v-3.18h-.86v-.81h.86v-1.07l.99-.33Z"/><path class="cls-14" d="M330.99,222.14h1.01v3.64h.02c.16-.3,.41-.58,.72-.75,.3-.19,.65-.3,1.03-.3,.75,0,1.94,.48,1.94,2.49v3.47h-1.01v-3.35c0-.95-.33-1.73-1.29-1.73-.66,0-1.16,.48-1.35,1.06-.06,.14-.07,.3-.07,.51v3.52h-1.01v-8.55h0Z"/><path class="cls-14" d="M339.8,226.68c0-.69-.01-1.28-.05-1.82h.89l.04,1.15h.03c.25-.78,.87-1.28,1.55-1.28,.1,0,.19,.01,.28,.04v.99c-.11-.01-.22-.03-.36-.03-.71,0-1.22,.57-1.35,1.35-.02,.16-.03,.33-.03,.51v3.11h-1.01v-4.01Z"/><path class="cls-14" d="M344.06,227.96c.02,1.43,.88,2.02,1.89,2.02,.72,0,1.17-.13,1.54-.29l.18,.75c-.36,.17-.97,.37-1.86,.37-1.7,0-2.73-1.19-2.73-2.94s1-3.15,2.62-3.15c1.81,0,2.28,1.67,2.28,2.75,0,.22-.01,.39-.03,.51h-3.89Zm2.95-.77c.01-.66-.26-1.72-1.39-1.72-1.04,0-1.47,.99-1.55,1.72h2.94Z"/><path class="cls-14" d="M353.99,229.84c0,1.35-.26,2.16-.79,2.67-.55,.52-1.33,.7-2.03,.7-.66,0-1.4-.17-1.85-.48l.25-.82c.36,.25,.94,.47,1.63,.47,1.03,0,1.79-.56,1.79-2.05v-.64h-.02c-.3,.54-.91,.97-1.77,.97-1.38,0-2.36-1.23-2.36-2.85,0-1.98,1.23-3.08,2.51-3.08,.96,0,1.48,.52,1.73,1h.02l.03-.87h.89c-.03,.41-.04,.88-.04,1.59v3.38h0Zm-1.01-2.69c0-.17-.01-.33-.06-.47-.19-.63-.67-1.13-1.41-1.13-.96,0-1.65,.85-1.65,2.22,0,1.13,.56,2.1,1.64,2.1,.63,0,1.2-.41,1.4-1.1,.06-.17,.08-.37,.08-.57v-1.05h0Z"/><path class="cls-14" d="M356.14,223.79c-.38,0-.63-.31-.63-.69s.26-.67,.66-.67,.64,.3,.64,.67-.25,.69-.65,.69h-.01Zm-.48,6.9v-5.83h1.01v5.83h-1.01Z"/><path class="cls-14" d="M360.6,230.83c-1.49,0-2.66-1.16-2.66-3,0-1.95,1.23-3.1,2.75-3.1s2.67,1.22,2.67,2.99c0,2.17-1.43,3.11-2.75,3.11h-.01Zm.03-.79c.96,0,1.69-.95,1.69-2.28,0-.99-.47-2.23-1.67-2.23s-1.7,1.16-1.7,2.26c0,1.28,.69,2.24,1.66,2.24h.01Z"/><path class="cls-14" d="M364.64,226.44c0-.61-.01-1.1-.04-1.58h.89l.06,.95h.02c.27-.54,.92-1.09,1.83-1.09,.77,0,1.96,.48,1.96,2.48v3.48h-1.01v-3.36c0-.94-.33-1.73-1.29-1.73-.66,0-1.17,.49-1.35,1.09-.04,.13-.07,.33-.07,.49v3.52h-1.01v-4.25h0Z"/></g></g><g><g><path class="cls-14" d="M264.94,247.25l1.09,3.26c.18,.54,.33,1.03,.45,1.51h.03c.13-.48,.28-.96,.47-1.51l1.08-3.26h1.06l-2.18,5.83h-.96l-2.11-5.83h1.08Z"/><path class="cls-14" d="M273.84,251.68c0,.51,.02,1,.08,1.4h-.91l-.09-.73h-.03c-.3,.46-.91,.87-1.7,.87-1.13,0-1.7-.83-1.7-1.67,0-1.41,1.19-2.18,3.34-2.17v-.12c0-.48-.13-1.36-1.26-1.35-.53,0-1.07,.16-1.46,.43l-.23-.71c.46-.3,1.13-.51,1.84-.51,1.71,0,2.12,1.22,2.12,2.38v2.18h0Zm-.99-1.58c-1.1-.02-2.35,.18-2.35,1.31,0,.7,.44,1.01,.94,1.01,.73,0,1.21-.48,1.36-.97,.03-.11,.05-.23,.05-.34v-1.01h0Z"/><path class="cls-14" d="M275.47,249.07c0-.69-.01-1.28-.05-1.82h.88l.05,1.15h.03c.25-.78,.87-1.28,1.55-1.28,.1,0,.18,.01,.27,.04v.99c-.11-.01-.22-.03-.36-.03-.71,0-1.22,.57-1.35,1.35-.02,.16-.03,.33-.03,.51v3.11h-1.01v-4.01Z"/><path class="cls-14" d="M279.74,246.18c-.38,0-.63-.31-.63-.69s.26-.67,.65-.67,.64,.3,.64,.67-.25,.69-.65,.69h-.01Zm-.48,6.9v-5.83h1.01v5.83h-1.01Z"/><path class="cls-14" d="M285.86,251.68c0,.51,.02,1,.08,1.4h-.91l-.09-.73h-.03c-.3,.46-.91,.87-1.7,.87-1.13,0-1.7-.83-1.7-1.67,0-1.41,1.19-2.18,3.34-2.17v-.12c0-.48-.13-1.36-1.26-1.35-.53,0-1.07,.16-1.46,.43l-.23-.71c.46-.3,1.13-.51,1.84-.51,1.71,0,2.12,1.22,2.12,2.38v2.18h0Zm-.99-1.58c-1.1-.02-2.35,.18-2.35,1.31,0,.7,.44,1.01,.94,1.01,.73,0,1.21-.48,1.36-.97,.03-.11,.05-.23,.05-.34v-1.01h0Z"/><path class="cls-14" d="M287.47,244.53h1.01v3.65h.02c.36-.65,1-1.06,1.89-1.06,1.38,0,2.34,1.21,2.34,2.96,0,2.1-1.26,3.13-2.5,3.13-.8,0-1.43-.33-1.86-1.1h-.02l-.06,.96h-.87c.03-.4,.04-.99,.04-1.51v-7.05h0Zm1.01,6.21c0,.13,.01,.26,.03,.39,.2,.73,.79,1.24,1.52,1.24,1.07,0,1.69-.9,1.69-2.24,0-1.18-.57-2.18-1.65-2.18-.69,0-1.33,.51-1.53,1.3-.03,.13-.06,.28-.06,.45v1.05h0Z"/><path class="cls-14" d="M294,244.53h1.01v8.55h-1.01v-8.55Z"/><path class="cls-14" d="M297.26,250.35c.02,1.43,.88,2.02,1.89,2.02,.72,0,1.17-.13,1.54-.29l.19,.75c-.36,.17-.98,.37-1.86,.37-1.7,0-2.73-1.19-2.73-2.94s1-3.15,2.62-3.15c1.81,0,2.28,1.67,2.28,2.75,0,.22-.01,.39-.03,.51h-3.89Zm2.95-.77c.01-.66-.26-1.72-1.39-1.72-1.04,0-1.47,.99-1.55,1.72h2.94Z"/><path class="cls-14" d="M304.78,249.45v.77h-2.83v-.77h2.83Z"/><path class="cls-14" d="M305.96,244.53h1.01v8.55h-1.01v-8.55Z"/><path class="cls-14" d="M309.22,250.35c.02,1.43,.89,2.02,1.89,2.02,.72,0,1.17-.13,1.54-.29l.19,.75c-.36,.17-.98,.37-1.86,.37-1.7,0-2.73-1.19-2.73-2.94s1-3.15,2.62-3.15c1.81,0,2.28,1.67,2.28,2.75,0,.22-.01,.39-.03,.51h-3.89Zm2.95-.77c.01-.66-.26-1.72-1.39-1.72-1.03,0-1.47,.99-1.55,1.72h2.94Z"/><path class="cls-14" d="M314.4,248.83c0-.61-.01-1.1-.04-1.58h.89l.06,.95h.02c.27-.54,.92-1.09,1.83-1.09,.77,0,1.96,.48,1.96,2.48v3.48h-1.01v-3.36c0-.94-.33-1.73-1.29-1.73-.66,0-1.17,.49-1.35,1.09-.04,.13-.07,.33-.07,.49v3.52h-1.01v-4.25h0Z"/><path class="cls-14" d="M325.52,252.23c0,1.35-.26,2.16-.79,2.67-.55,.52-1.33,.7-2.03,.7-.66,0-1.4-.17-1.85-.48l.25-.82c.36,.25,.94,.47,1.63,.47,1.03,0,1.79-.56,1.79-2.05v-.64h-.02c-.3,.54-.91,.97-1.77,.97-1.38,0-2.36-1.23-2.36-2.85,0-1.98,1.23-3.08,2.51-3.08,.96,0,1.48,.52,1.73,1h.02l.03-.87h.89c-.03,.41-.04,.88-.04,1.59v3.38h0Zm-1.01-2.69c0-.17-.01-.33-.06-.47-.19-.63-.67-1.13-1.41-1.13-.96,0-1.65,.85-1.65,2.22,0,1.13,.56,2.1,1.64,2.1,.63,0,1.2-.41,1.4-1.1,.06-.17,.08-.37,.08-.57v-1.05h0Z"/><path class="cls-14" d="M328.41,245.86v1.4h1.45v.81h-1.45v3.14c0,.72,.19,1.13,.76,1.13,.28,0,.44-.03,.59-.07l.05,.81c-.19,.07-.51,.14-.89,.14-.47,0-.85-.17-1.09-.45-.28-.32-.39-.84-.39-1.53v-3.18h-.86v-.81h.86v-1.07l.99-.33Z"/><path class="cls-14" d="M330.99,244.53h1.01v3.64h.02c.16-.3,.41-.58,.72-.75,.3-.19,.65-.3,1.03-.3,.75,0,1.94,.48,1.94,2.49v3.47h-1.01v-3.35c0-.95-.33-1.73-1.29-1.73-.66,0-1.16,.48-1.35,1.06-.06,.14-.07,.3-.07,.51v3.52h-1.01v-8.55h0Z"/><path class="cls-14" d="M339.65,252.01c.31,.19,.84,.41,1.34,.41,.72,0,1.07-.37,1.07-.87s-.29-.78-1.02-1.07c-1.01-.39-1.48-.95-1.48-1.65,0-.94,.73-1.71,1.92-1.71,.56,0,1.06,.16,1.35,.36l-.24,.76c-.22-.13-.62-.34-1.13-.34-.6,0-.92,.36-.92,.79,0,.49,.32,.71,1.04,1,.95,.37,1.46,.88,1.46,1.76,0,1.04-.77,1.76-2.07,1.76-.61,0-1.17-.17-1.56-.41l.24-.79Z"/><path class="cls-14" d="M345.55,245.86v1.4h1.45v.81h-1.45v3.14c0,.72,.2,1.13,.76,1.13,.28,0,.44-.03,.59-.07l.05,.81c-.2,.07-.51,.14-.9,.14-.47,0-.85-.17-1.09-.45-.28-.32-.39-.84-.39-1.53v-3.18h-.86v-.81h.86v-1.07l.99-.33Z"/><path class="cls-14" d="M348.65,250.35c.02,1.43,.89,2.02,1.89,2.02,.72,0,1.17-.13,1.54-.29l.19,.75c-.36,.17-.98,.37-1.86,.37-1.7,0-2.73-1.19-2.73-2.94s1-3.15,2.62-3.15c1.81,0,2.28,1.67,2.28,2.75,0,.22-.01,.39-.03,.51h-3.89Zm2.95-.77c.01-.66-.26-1.72-1.39-1.72-1.03,0-1.47,.99-1.55,1.72h2.94Z"/><path class="cls-14" d="M353.83,248.83c0-.61-.02-1.1-.04-1.58h.88l.05,.94h.03c.31-.55,.83-1.07,1.76-1.07,.75,0,1.32,.48,1.56,1.17h.02c.17-.34,.4-.58,.63-.76,.33-.26,.69-.41,1.21-.41,.75,0,1.84,.51,1.84,2.53v3.43h-.99v-3.3c0-1.13-.4-1.79-1.21-1.79-.59,0-1.02,.45-1.21,.95-.04,.16-.08,.35-.08,.53v3.61h-.99v-3.49c0-.94-.39-1.6-1.16-1.6-.62,0-1.09,.53-1.25,1.06-.06,.16-.08,.34-.08,.52v3.52h-.99v-4.25Z"/><path class="cls-14" d="M365.74,249.45v.77h-2.84v-.77h2.84Z"/><path class="cls-14" d="M366.93,244.53h1.01v8.55h-1.01v-8.55Z"/><path class="cls-14" d="M371.87,253.22c-1.49,0-2.66-1.16-2.66-3,0-1.95,1.23-3.1,2.75-3.1s2.67,1.22,2.67,2.99c0,2.17-1.43,3.11-2.75,3.11h-.01Zm.03-.79c.96,0,1.69-.95,1.69-2.28,0-.99-.47-2.23-1.67-2.23s-1.7,1.16-1.7,2.26c0,1.28,.69,2.24,1.66,2.24h.01Z"/><path class="cls-14" d="M378.19,253.22c-1.49,0-2.66-1.16-2.66-3,0-1.95,1.23-3.1,2.75-3.1s2.67,1.22,2.67,2.99c0,2.17-1.43,3.11-2.75,3.11h-.01Zm.04-.79c.96,0,1.69-.95,1.69-2.28,0-.99-.47-2.23-1.66-2.23s-1.7,1.16-1.7,2.26c0,1.28,.69,2.24,1.66,2.24h.01Z"/><path class="cls-14" d="M382.23,249.16c0-.75-.01-1.35-.05-1.9h.91l.06,1h.02c.4-.72,1.07-1.13,1.96-1.13,1.35,0,2.36,1.19,2.36,2.96,0,2.1-1.23,3.13-2.53,3.13-.75,0-1.38-.34-1.71-.92h-.02v3.17h-1.01v-6.31h0Zm1.01,1.55c0,.14,.01,.3,.05,.43,.17,.73,.79,1.24,1.5,1.24,1.07,0,1.69-.91,1.69-2.25,0-1.17-.57-2.17-1.64-2.17-.69,0-1.34,.51-1.54,1.3-.02,.15-.06,.3-.06,.44v1.01h0Z"/></g><g><path class="cls-1" d="M260.43,254.43h-11.95c-2.36,4.09-7.59,5.49-11.68,3.13-4.09-2.36-5.49-7.6-3.13-11.69,2.36-4.09,7.59-5.49,11.68-3.13,1.3,.75,2.38,1.83,3.13,3.13h11.95"/><rect x="258.05" y="248.79" width="1.01" height="2.72"/><rect class="cls-3" x="258.05" y="248.79" width="1.01" height="2.72"/><rect x="253.02" y="248.79" width="1.01" height="2.72"/><rect class="cls-3" x="253.02" y="248.79" width="1.01" height="2.72"/><rect x="247.98" y="248.79" width="1.01" height="2.72"/><rect class="cls-3" x="247.98" y="248.79" width="1.01" height="2.72"/></g></g><g><path d="M226.16,268.88c.53-.11,1.3-.18,2.01-.18,1.12,0,1.85,.22,2.36,.67,.4,.35,.64,.9,.64,1.54,0,1.06-.69,1.77-1.53,2.06v.03c.61,.22,.99,.79,1.19,1.64,.26,1.13,.46,1.91,.61,2.23h-1.08c-.13-.23-.31-.93-.53-1.94-.24-1.12-.69-1.54-1.64-1.58h-.99v3.52h-1.05v-7.99h0Zm1.05,3.68h1.07c1.12,0,1.83-.61,1.83-1.54,0-1.05-.76-1.51-1.86-1.51-.51,0-.85,.05-1.04,.09v2.95h0Z"/><path d="M234.75,272.81v-.72h6.21v.72h-6.21Zm0,2.36v-.72h6.21v.72h-6.21Z"/><path d="M246.23,274.32l-.84,2.55h-1.08l2.76-8.12h1.27l2.77,8.12h-1.12l-.87-2.55h-2.88Zm2.66-.82l-.81-2.34c-.17-.53-.29-1.01-.41-1.48h-.03c-.11,.47-.24,.98-.4,1.47l-.79,2.35h2.44Z"/><path d="M257.18,277.01c-1.57,0-2.79-1.16-2.79-3,0-1.95,1.29-3.09,2.89-3.09s2.8,1.22,2.8,2.99c0,2.17-1.51,3.11-2.89,3.11h-.01Zm.03-.79c1.01,0,1.77-.95,1.77-2.28,0-.99-.49-2.23-1.74-2.23s-1.78,1.16-1.78,2.26c0,1.28,.72,2.24,1.75,2.24h.01Z"/><path d="M261.43,272.86c0-.69-.01-1.28-.05-1.82h.93l.05,1.14h.04c.27-.78,.92-1.28,1.63-1.28,.11,0,.19,.01,.29,.04v.99c-.12-.01-.23-.02-.37-.02-.75,0-1.28,.57-1.42,1.35-.03,.16-.04,.33-.04,.51v3.11h-1.06v-4.01Z"/><path d="M274.13,276.51c-.47,.18-1.41,.45-2.5,.45-1.23,0-2.24-.31-3.03-1.07-.7-.67-1.13-1.76-1.13-3.02,0-2.42,1.67-4.19,4.4-4.19,.94,0,1.69,.21,2.04,.37l-.26,.85c-.43-.2-.98-.35-1.79-.35-1.98,0-3.26,1.23-3.26,3.26s1.23,3.28,3.13,3.28c.68,0,1.16-.1,1.4-.22v-2.42h-1.64v-.84h2.67v3.9Z"/><path d="M276.13,277.01c-.41,0-.7-.33-.7-.76s.3-.76,.72-.76,.71,.31,.71,.76-.29,.76-.72,.76h-.01Z"/><path d="M282.57,276.87v-3.44l-2.58-4.67h1.2l1.14,2.24c.3,.61,.56,1.11,.81,1.67h.02c.22-.53,.51-1.06,.82-1.67l1.17-2.24h1.18l-2.71,4.66v3.46h-1.06Z"/><path d="M289.4,272.81v-.72h6.21v.72h-6.21Zm0,2.36v-.72h6.21v.72h-6.21Z"/><path d="M305.22,276.62c-.37,.19-1.16,.39-2.14,.39-2.29,0-4-1.44-4-4.12s1.72-4.26,4.24-4.26c1,0,1.65,.22,1.93,.36l-.26,.85c-.39-.19-.95-.34-1.63-.34-1.9,0-3.17,1.22-3.17,3.35,0,2,1.15,3.26,3.11,3.26,.65,0,1.3-.13,1.72-.34l.21,.84Z"/><path d="M311.43,277.01c-1.57,0-2.79-1.16-2.79-3,0-1.95,1.29-3.09,2.89-3.09s2.8,1.22,2.8,2.99c0,2.17-1.51,3.11-2.89,3.11h-.01Zm.03-.79c1.01,0,1.77-.95,1.77-2.28,0-.99-.49-2.23-1.74-2.23s-1.78,1.16-1.78,2.26c0,1.28,.72,2.24,1.75,2.24h.01Z"/><path d="M315.69,272.86c0-.69-.01-1.28-.05-1.82h.93l.05,1.14h.04c.27-.78,.92-1.28,1.63-1.28,.11,0,.19,.01,.29,.04v.99c-.12-.01-.23-.02-.37-.02-.75,0-1.28,.57-1.42,1.35-.03,.16-.04,.33-.04,.51v3.11h-1.06v-4.01Z"/><path d="M323.25,268.76v4.82c0,1.81,.81,2.58,1.89,2.58,1.19,0,1.98-.79,1.98-2.58v-4.82h1.06v4.74c0,2.49-1.31,3.5-3.07,3.5-1.66,0-2.91-.94-2.91-3.47v-4.78h1.06Z"/><path d="M330.4,277.01c-.41,0-.7-.33-.7-.76s.3-.76,.72-.76,.71,.31,.71,.76-.29,.76-.72,.76h-.01Z"/><path d="M334.54,271.48c.28-1.01,.79-2.31,1.12-2.87l.67-.07c-.25,.71-.58,1.95-.71,2.82l-1.08,.12Zm1.78,0c.28-1.01,.8-2.31,1.12-2.87l.67-.07c-.26,.71-.58,1.95-.71,2.82l-1.08,.12Z"/><path d="M339.26,272.62c0-.61-.01-1.1-.05-1.58h.94l.06,.95h.02c.29-.54,.96-1.08,1.93-1.08,.81,0,2.06,.48,2.06,2.48v3.48h-1.06v-3.36c0-.94-.35-1.73-1.35-1.73-.69,0-1.23,.49-1.42,1.08-.05,.13-.07,.33-.07,.49v3.52h-1.06v-4.25Z"/><path d="M347.22,269.65v1.4h1.52v.81h-1.52v3.14c0,.72,.21,1.13,.79,1.13,.29,0,.46-.02,.61-.07l.05,.81c-.21,.07-.53,.14-.94,.14-.49,0-.89-.17-1.14-.45-.29-.33-.41-.84-.41-1.53v-3.18h-.9v-.81h.9v-1.07l1.04-.33Z"/><path d="M351.25,268.54c-.28,1.01-.79,2.31-1.12,2.87l-.67,.07c.26-.71,.58-1.95,.71-2.82l1.08-.12Zm1.78,0c-.28,1.01-.79,2.31-1.12,2.87l-.67,.07c.25-.71,.58-1.95,.71-2.82l1.08-.12Z"/><path d="M356.35,272.81v-.72h6.21v.72h-6.21Zm0,2.36v-.72h6.21v.72h-6.21Z"/><path d="M226.12,287.07c0-.61-.01-1.1-.05-1.58h.94l.06,.95h.02c.29-.54,.96-1.08,1.93-1.08,.81,0,2.06,.48,2.06,2.48v3.48h-1.06v-3.36c0-.94-.35-1.73-1.35-1.73-.69,0-1.23,.49-1.42,1.08-.05,.13-.07,.33-.07,.49v3.52h-1.06v-4.25Z"/><path d="M237.68,289.74c0,.6,.01,1.13,.05,1.59h-.94l-.06-.95h-.02c-.26,.47-.89,1.08-1.93,1.08-.92,0-2.01-.52-2.01-2.55v-3.41h1.06v3.22c0,1.11,.35,1.87,1.3,1.87,.71,0,1.21-.49,1.4-.97,.06-.15,.09-.34,.09-.54v-3.56h1.06v4.24h0Z"/><path d="M243.59,291.12c-.28,.13-.89,.34-1.67,.34-1.76,0-2.9-1.19-2.9-2.98s1.23-3.11,3.13-3.11c.63,0,1.18,.16,1.47,.31l-.24,.81c-.25-.13-.65-.28-1.23-.28-1.34,0-2.06,1-2.06,2.22,0,1.35,.87,2.18,2.02,2.18,.6,0,1-.14,1.3-.28l.18,.79Z"/><path d="M244.83,282.78h1.06v8.55h-1.06v-8.55Z"/><path d="M248.25,288.59c.02,1.43,.93,2.02,1.99,2.02,.76,0,1.23-.13,1.61-.29l.19,.75c-.37,.17-1.02,.37-1.95,.37-1.78,0-2.86-1.19-2.86-2.94s1.05-3.15,2.74-3.15c1.9,0,2.4,1.67,2.4,2.75,0,.22-.01,.39-.04,.51h-4.08Zm3.09-.77c.01-.66-.28-1.72-1.46-1.72-1.09,0-1.54,.99-1.63,1.72h3.08Z"/><path d="M256.06,291.46c-1.57,0-2.79-1.16-2.79-3,0-1.95,1.29-3.09,2.89-3.09s2.8,1.22,2.8,2.99c0,2.17-1.51,3.11-2.89,3.11h-.01Zm.03-.79c1.01,0,1.77-.95,1.77-2.28,0-.99-.49-2.23-1.74-2.23s-1.78,1.16-1.78,2.26c0,1.28,.72,2.24,1.75,2.24h.01Z"/><path d="M261.57,284.1v1.4h1.52v.81h-1.52v3.14c0,.72,.2,1.13,.79,1.13,.29,0,.46-.02,.61-.07l.05,.81c-.2,.07-.53,.14-.94,.14-.49,0-.89-.17-1.14-.45-.29-.33-.41-.84-.41-1.53v-3.18h-.9v-.81h.9v-1.07l1.04-.33Z"/><path d="M264.79,284.42c-.4,0-.66-.31-.66-.69s.28-.67,.69-.67,.67,.3,.67,.67-.26,.69-.69,.69h-.01Zm-.5,6.9v-5.83h1.06v5.83h-1.06Z"/><path d="M272.13,282.78v7.04c0,.52,.01,1.11,.05,1.51h-.95l-.05-1.01h-.03c-.32,.65-1.02,1.14-1.97,1.14-1.41,0-2.5-1.19-2.5-2.96-.01-1.95,1.2-3.13,2.61-3.13,.9,0,1.51,.42,1.76,.88h.03v-3.47h1.06Zm-1.06,5.09c0-.14-.01-.31-.05-.46-.16-.66-.73-1.22-1.53-1.22-1.1,0-1.75,.96-1.75,2.24,0,1.19,.59,2.17,1.72,2.17,.71,0,1.36-.48,1.55-1.26,.04-.14,.05-.29,.05-.46v-1.01Z"/><path d="M274.49,288.59c.02,1.43,.93,2.02,1.99,2.02,.76,0,1.23-.13,1.61-.29l.19,.75c-.37,.17-1.02,.37-1.95,.37-1.78,0-2.86-1.19-2.86-2.94s1.05-3.15,2.74-3.15c1.9,0,2.4,1.67,2.4,2.75,0,.22-.01,.39-.04,.51h-4.08Zm3.09-.77c.01-.66-.28-1.72-1.46-1.72-1.09,0-1.54,.99-1.63,1.72h3.08Z"/><path d="M279.78,290.25c.33,.19,.88,.41,1.41,.41,.76,0,1.12-.37,1.12-.87s-.3-.78-1.07-1.07c-1.06-.39-1.55-.95-1.55-1.65,0-.94,.77-1.71,2.01-1.71,.59,0,1.11,.16,1.42,.36l-.25,.76c-.23-.13-.65-.34-1.19-.34-.63,0-.96,.36-.96,.79,0,.49,.34,.71,1.1,1,1,.37,1.53,.88,1.53,1.76,0,1.04-.81,1.76-2.17,1.76-.64,0-1.23-.17-1.64-.41l.25-.79Z"/><path d="M285.14,291.46c-.41,0-.7-.33-.7-.76s.3-.76,.72-.76,.71,.31,.71,.76-.29,.76-.72,.76h-.01Z"/><path d="M291.83,285.93c.28-1.01,.79-2.31,1.12-2.87l.67-.07c-.25,.71-.58,1.95-.71,2.82l-1.08,.12Zm1.78,0c.28-1.01,.79-2.31,1.12-2.87l.67-.07c-.26,.71-.58,1.95-.71,2.82l-1.08,.12Z"/><path d="M296.59,283.32c.51-.09,1.17-.17,2.01-.17,1.04,0,1.79,.24,2.28,.67,.45,.39,.72,.98,.72,1.7s-.22,1.31-.64,1.73c-.55,.59-1.46,.89-2.48,.89-.31,0-.6-.01-.84-.07v3.25h-1.05v-8.01Zm1.05,3.9c.23,.06,.53,.08,.87,.08,1.28,0,2.04-.63,2.04-1.72s-.76-1.6-1.91-1.6c-.46,0-.81,.05-.99,.08v3.15h0Z"/><path d="M304.92,284.48h-.02l-1.36,.73-.2-.81,1.71-.92h.9v7.83h-1.02v-6.84Z"/><path d="M310.46,282.99c-.28,1.01-.79,2.31-1.12,2.87l-.67,.07c.26-.71,.58-1.95,.71-2.82l1.08-.12Zm1.78,0c-.28,1.01-.79,2.31-1.12,2.87l-.67,.07c.25-.71,.58-1.95,.71-2.82l1.08-.12Z"/><path d="M315.55,287.27v-.72h6.21v.72h-6.21Zm0,2.36v-.72h6.21v.72h-6.21Z"/><path d="M325.68,287.4c0-.75-.01-1.35-.05-1.9h.95l.06,1h.02c.42-.72,1.12-1.13,2.06-1.13,1.42,0,2.48,1.19,2.48,2.96,0,2.1-1.29,3.13-2.65,3.13-.78,0-1.44-.34-1.79-.91h-.02v3.17h-1.06v-6.31h0Zm1.06,1.55c0,.14,.01,.3,.05,.43,.18,.73,.83,1.24,1.58,1.24,1.12,0,1.77-.92,1.77-2.25,0-1.17-.6-2.17-1.72-2.17-.72,0-1.41,.51-1.61,1.3-.03,.14-.06,.3-.06,.43v1.01Z"/><path d="M336.64,289.93c0,.51,.02,1,.08,1.4h-.95l-.1-.73h-.03c-.31,.46-.95,.87-1.78,.87-1.18,0-1.78-.83-1.78-1.67,0-1.41,1.25-2.18,3.5-2.17v-.12c0-.48-.13-1.36-1.32-1.35-.56,0-1.12,.16-1.53,.43l-.24-.71c.48-.3,1.19-.51,1.93-.51,1.79,0,2.23,1.22,2.23,2.38v2.18h0Zm-1.04-1.58c-1.16-.03-2.47,.18-2.47,1.31,0,.7,.46,1.01,.99,1.01,.77,0,1.26-.48,1.43-.98,.03-.11,.05-.23,.05-.34v-1.01h0Z"/><path d="M338.84,284.42c-.4,0-.66-.31-.66-.69s.28-.67,.69-.67,.67,.3,.67,.67-.26,.69-.69,.69h-.01Zm-.51,6.9v-5.83h1.06v5.83h-1.06Z"/><path d="M341.16,287.31c0-.69-.01-1.28-.05-1.82h.93l.05,1.14h.04c.27-.78,.92-1.28,1.63-1.28,.11,0,.19,.01,.29,.04v.99c-.12-.01-.23-.02-.37-.02-.75,0-1.28,.57-1.42,1.35-.03,.16-.04,.33-.04,.51v3.11h-1.06v-4.01Z"/><path d="M345.59,284.42c-.4,0-.66-.31-.66-.69s.28-.67,.69-.67,.67,.3,.67,.67-.26,.69-.69,.69h-.01Zm-.51,6.9v-5.83h1.06v5.83h-1.06Z"/><path d="M347.91,287.07c0-.61-.01-1.1-.05-1.58h.94l.06,.95h.02c.29-.54,.96-1.08,1.93-1.08,.81,0,2.06,.48,2.06,2.48v3.48h-1.06v-3.36c0-.94-.35-1.73-1.35-1.73-.69,0-1.23,.49-1.42,1.08-.05,.13-.07,.33-.07,.49v3.52h-1.06v-4.25Z"/><path d="M359.58,290.47c0,1.35-.28,2.16-.83,2.67-.58,.52-1.4,.7-2.13,.7s-1.47-.17-1.94-.48l.26-.82c.39,.25,.99,.47,1.71,.47,1.08,0,1.88-.57,1.88-2.05v-.64h-.03c-.31,.54-.95,.98-1.85,.98-1.44,0-2.48-1.23-2.48-2.85,0-1.97,1.29-3.08,2.64-3.08,1.01,0,1.55,.52,1.82,1h.02l.04-.87h.94c-.03,.41-.05,.88-.05,1.59v3.38h0Zm-1.06-2.68c0-.17-.01-.33-.06-.47-.19-.63-.7-1.13-1.48-1.13-1.01,0-1.73,.85-1.73,2.22,0,1.13,.59,2.1,1.72,2.1,.66,0,1.25-.41,1.47-1.1,.06-.17,.08-.37,.08-.57v-1.05h0Z"/><path d="M226.72,303.04c.03,1.43,.93,2.02,1.99,2.02,.76,0,1.23-.13,1.61-.29l.19,.75c-.37,.17-1.03,.37-1.95,.37-1.78,0-2.87-1.19-2.87-2.94s1.05-3.15,2.75-3.15c1.9,0,2.4,1.67,2.4,2.75,0,.22-.01,.39-.03,.51h-4.08Zm3.1-.77c.01-.66-.28-1.72-1.46-1.72-1.08,0-1.54,.99-1.62,1.72h3.08Z"/><path d="M232.15,297.22h1.06v8.55h-1.06v-8.55Z"/><path d="M235.57,303.04c.02,1.43,.93,2.02,1.99,2.02,.76,0,1.23-.13,1.61-.29l.19,.75c-.37,.17-1.02,.37-1.95,.37-1.78,0-2.86-1.19-2.86-2.94s1.05-3.15,2.74-3.15c1.9,0,2.4,1.67,2.4,2.75,0,.22-.01,.39-.04,.51h-4.08Zm3.09-.77c.01-.66-.28-1.72-1.46-1.72-1.09,0-1.54,.99-1.63,1.72h3.08Z"/><path d="M241.01,301.52c0-.61-.02-1.1-.05-1.58h.93l.05,.94h.04c.32-.55,.87-1.07,1.84-1.07,.78,0,1.39,.48,1.64,1.17h.02c.18-.34,.42-.58,.66-.76,.35-.27,.72-.41,1.28-.41,.78,0,1.93,.51,1.93,2.53v3.43h-1.04v-3.3c0-1.13-.42-1.79-1.26-1.79-.61,0-1.07,.45-1.26,.95-.05,.16-.09,.35-.09,.53v3.61h-1.04v-3.49c0-.94-.41-1.6-1.22-1.6-.65,0-1.15,.53-1.31,1.06-.06,.16-.09,.34-.09,.52v3.52h-1.04v-4.25h0Z"/><path d="M251.65,303.04c.02,1.43,.93,2.02,1.99,2.02,.76,0,1.23-.13,1.61-.29l.19,.75c-.37,.17-1.02,.37-1.95,.37-1.78,0-2.86-1.19-2.86-2.94s1.05-3.15,2.74-3.15c1.9,0,2.4,1.67,2.4,2.75,0,.22-.01,.39-.04,.51h-4.08Zm3.09-.77c.01-.66-.28-1.72-1.46-1.72-1.09,0-1.54,.99-1.63,1.72h3.08Z"/><path d="M257.08,301.52c0-.61-.01-1.1-.05-1.58h.94l.06,.95h.02c.29-.54,.96-1.08,1.93-1.08,.81,0,2.06,.48,2.06,2.48v3.48h-1.06v-3.36c0-.94-.35-1.73-1.35-1.73-.69,0-1.23,.49-1.42,1.08-.05,.13-.07,.33-.07,.49v3.52h-1.06v-4.25Z"/><path d="M265.04,298.55v1.4h1.52v.81h-1.52v3.14c0,.72,.2,1.13,.79,1.13,.29,0,.46-.02,.61-.07l.05,.81c-.2,.07-.53,.14-.94,.14-.49,0-.89-.17-1.14-.45-.29-.33-.41-.84-.41-1.53v-3.18h-.9v-.81h.9v-1.07l1.04-.33Z"/><path d="M272.26,298.93h-.02l-1.36,.73-.2-.81,1.71-.92h.9v7.83h-1.02v-6.84Z"/><path d="M276.92,305.91c-.41,0-.7-.33-.7-.76s.3-.76,.72-.76,.71,.31,.71,.76-.29,.76-.72,.76h-.01Z"/><path d="M281.07,300.38c.28-1.01,.79-2.31,1.12-2.87l.67-.07c-.25,.71-.58,1.95-.71,2.82l-1.08,.12Zm1.78,0c.28-1.01,.8-2.31,1.12-2.87l.67-.07c-.26,.71-.58,1.95-.71,2.82l-1.08,.12Z"/><path d="M285.64,304.7c.33,.19,.88,.41,1.41,.41,.76,0,1.12-.37,1.12-.87s-.3-.78-1.07-1.07c-1.06-.39-1.55-.95-1.55-1.65,0-.94,.77-1.71,2.01-1.71,.59,0,1.11,.16,1.42,.36l-.25,.76c-.23-.13-.65-.34-1.19-.34-.63,0-.96,.36-.96,.79,0,.49,.34,.71,1.1,1,1,.37,1.53,.88,1.53,1.76,0,1.04-.81,1.76-2.17,1.76-.64,0-1.23-.17-1.64-.41l.25-.79Z"/><path d="M291.83,298.55v1.4h1.52v.81h-1.52v3.14c0,.72,.2,1.13,.79,1.13,.29,0,.46-.02,.61-.07l.05,.81c-.2,.07-.53,.14-.94,.14-.49,0-.89-.17-1.14-.45-.29-.33-.41-.84-.41-1.53v-3.18h-.9v-.81h.9v-1.07l1.04-.33Z"/><path d="M298.65,304.38c0,.51,.03,1,.09,1.4h-.95l-.09-.73h-.04c-.31,.46-.95,.87-1.78,.87-1.18,0-1.78-.83-1.78-1.67,0-1.41,1.25-2.18,3.5-2.17v-.12c0-.48-.13-1.36-1.33-1.35-.55,0-1.12,.16-1.53,.43l-.24-.71c.48-.3,1.19-.51,1.93-.51,1.79,0,2.23,1.22,2.23,2.38v2.18h0Zm-1.04-1.58c-1.16-.03-2.47,.18-2.47,1.31,0,.7,.46,1.01,.99,1.01,.77,0,1.26-.48,1.43-.98,.04-.11,.05-.23,.05-.34v-1.01h0Z"/><path d="M300.36,301.76c0-.69-.01-1.28-.05-1.82h.93l.05,1.14h.04c.27-.78,.92-1.28,1.63-1.28,.11,0,.19,.01,.29,.04v.99c-.12-.01-.23-.02-.37-.02-.75,0-1.28,.57-1.42,1.35-.03,.16-.04,.33-.04,.51v3.11h-1.06v-4.01Z"/><path d="M305.56,298.55v1.4h1.52v.81h-1.52v3.14c0,.72,.21,1.13,.79,1.13,.29,0,.46-.02,.61-.07l.05,.81c-.21,.07-.53,.14-.94,.14-.49,0-.89-.17-1.14-.45-.29-.33-.41-.84-.41-1.53v-3.18h-.9v-.81h.9v-1.07l1.04-.33Z"/><path d="M309.59,297.44c-.28,1.01-.79,2.31-1.12,2.87l-.68,.07c.26-.71,.58-1.95,.71-2.82l1.08-.12Zm1.78,0c-.28,1.01-.79,2.31-1.12,2.87l-.67,.07c.25-.71,.58-1.95,.71-2.82l1.08-.12Z"/><path d="M314.69,301.72v-.72h6.21v.72h-6.21Zm0,2.36v-.72h6.21v.72h-6.21Z"/><path d="M324.67,304.7c.33,.19,.88,.41,1.41,.41,.76,0,1.12-.37,1.12-.87s-.3-.78-1.07-1.07c-1.06-.39-1.55-.95-1.55-1.65,0-.94,.77-1.71,2.01-1.71,.59,0,1.11,.16,1.42,.36l-.25,.76c-.23-.13-.65-.34-1.19-.34-.63,0-.96,.36-.96,.79,0,.49,.34,.71,1.1,1,1,.37,1.53,.88,1.53,1.76,0,1.04-.81,1.76-2.17,1.76-.64,0-1.23-.17-1.64-.41l.25-.79Z"/><path d="M330.86,298.55v1.4h1.52v.81h-1.52v3.14c0,.72,.2,1.13,.79,1.13,.29,0,.46-.02,.61-.07l.05,.81c-.2,.07-.53,.14-.94,.14-.49,0-.89-.17-1.14-.45-.29-.33-.41-.84-.41-1.53v-3.18h-.9v-.81h.9v-1.07l1.04-.33Z"/><path d="M337.67,304.38c0,.51,.03,1,.09,1.4h-.95l-.09-.73h-.04c-.31,.46-.95,.87-1.78,.87-1.18,0-1.78-.83-1.78-1.67,0-1.41,1.25-2.18,3.5-2.17v-.12c0-.48-.13-1.36-1.33-1.35-.55,0-1.12,.16-1.53,.43l-.24-.71c.48-.3,1.19-.51,1.93-.51,1.79,0,2.23,1.22,2.23,2.38v2.18h0Zm-1.03-1.58c-1.16-.03-2.47,.18-2.47,1.31,0,.7,.46,1.01,.99,1.01,.77,0,1.26-.48,1.43-.98,.04-.11,.05-.23,.05-.34v-1.01h0Z"/><path d="M339.38,301.76c0-.69-.01-1.28-.05-1.82h.93l.05,1.14h.03c.27-.78,.92-1.28,1.63-1.28,.11,0,.19,.01,.29,.04v.99c-.12-.01-.23-.02-.37-.02-.75,0-1.28,.57-1.42,1.35-.02,.16-.03,.33-.03,.51v3.11h-1.06v-4.01Z"/><path d="M344.58,298.55v1.4h1.52v.81h-1.52v3.14c0,.72,.21,1.13,.79,1.13,.29,0,.46-.02,.61-.07l.05,.81c-.21,.07-.53,.14-.94,.14-.49,0-.89-.17-1.14-.45-.29-.33-.41-.84-.41-1.53v-3.18h-.9v-.81h.9v-1.07l1.03-.33Z"/><path d="M354,305.57c-.28,.13-.89,.34-1.67,.34-1.76,0-2.9-1.19-2.9-2.98s1.23-3.11,3.13-3.11c.63,0,1.18,.16,1.47,.31l-.24,.81c-.25-.13-.65-.28-1.23-.28-1.34,0-2.06,1-2.06,2.22,0,1.35,.87,2.18,2.02,2.18,.6,0,1-.14,1.3-.28l.18,.79Z"/><path d="M357.61,305.91c-1.57,0-2.79-1.16-2.79-3,0-1.95,1.29-3.09,2.89-3.09s2.8,1.22,2.8,2.99c0,2.17-1.51,3.11-2.89,3.11h-.01Zm.04-.79c1.01,0,1.77-.95,1.77-2.28,0-.99-.49-2.23-1.74-2.23s-1.78,1.16-1.78,2.26c0,1.28,.72,2.24,1.75,2.24h.01Z"/><path d="M366.89,297.22v7.04c0,.52,.01,1.11,.05,1.51h-.95l-.05-1.01h-.02c-.33,.65-1.02,1.14-1.98,1.14-1.41,0-2.5-1.19-2.5-2.96-.01-1.95,1.2-3.13,2.61-3.13,.9,0,1.51,.42,1.76,.88h.03v-3.47h1.06Zm-1.06,5.09c0-.14-.01-.31-.05-.46-.16-.66-.73-1.22-1.53-1.22-1.1,0-1.75,.96-1.75,2.24,0,1.19,.59,2.17,1.72,2.17,.71,0,1.36-.48,1.55-1.26,.03-.14,.05-.29,.05-.46v-1.01Z"/><path d="M371.02,305.91c-1.57,0-2.79-1.16-2.79-3,0-1.95,1.29-3.09,2.89-3.09s2.8,1.22,2.8,2.99c0,2.17-1.51,3.11-2.89,3.11h-.01Zm.03-.79c1.01,0,1.77-.95,1.77-2.28,0-.99-.49-2.23-1.74-2.23s-1.78,1.16-1.78,2.26c0,1.28,.72,2.24,1.75,2.24h.01Z"/><path d="M375.25,301.52c0-.61-.01-1.1-.05-1.58h.94l.06,.95h.02c.29-.54,.96-1.08,1.93-1.08,.81,0,2.06,.48,2.06,2.48v3.48h-1.06v-3.36c0-.94-.35-1.73-1.35-1.73-.69,0-1.23,.49-1.42,1.08-.05,.13-.07,.33-.07,.49v3.52h-1.06v-4.25Z"/><path d="M382.38,305.91c-.41,0-.7-.33-.7-.76s.3-.76,.72-.76,.71,.31,.71,.76-.29,.76-.72,.76h-.01Z"/></g><g><path d="M151.31,294.46c.37,.22,.99,.46,1.58,.46,.85,0,1.26-.42,1.26-.97s-.34-.88-1.21-1.21c-1.19-.43-1.75-1.07-1.75-1.85,0-1.06,.87-1.92,2.26-1.92,.66,0,1.24,.18,1.6,.41l-.28,.85c-.26-.15-.73-.38-1.34-.38-.7,0-1.08,.41-1.08,.89,0,.56,.38,.8,1.23,1.12,1.12,.42,1.72,.99,1.72,1.98,0,1.16-.91,1.98-2.44,1.98-.72,0-1.38-.19-1.84-.46l.28-.89Z"/><path d="M158.27,287.54v1.57h1.71v.91h-1.71v3.54c0,.81,.23,1.27,.89,1.27,.33,0,.51-.03,.69-.08l.05,.91c-.23,.08-.6,.16-1.06,.16-.56,0-1-.19-1.29-.5-.33-.36-.46-.95-.46-1.72v-3.58h-1.02v-.91h1.02v-1.21l1.17-.37Z"/><path d="M165.94,294.1c0,.57,.03,1.12,.09,1.57h-1.07l-.11-.83h-.04c-.35,.51-1.07,.97-2,.97-1.33,0-2-.93-2-1.88,0-1.58,1.41-2.45,3.94-2.44v-.14c0-.54-.15-1.53-1.49-1.52-.62,0-1.26,.18-1.72,.49l-.27-.8c.54-.34,1.34-.57,2.17-.57,2.02,0,2.51,1.37,2.51,2.68v2.45h0Zm-1.17-1.77c-1.3-.03-2.78,.2-2.78,1.48,0,.79,.51,1.14,1.11,1.14,.87,0,1.42-.54,1.61-1.1,.04-.12,.05-.26,.05-.38v-1.14h0Z"/><path d="M167.86,291.16c0-.77-.01-1.44-.05-2.05h1.04l.05,1.29h.04c.3-.88,1.03-1.44,1.83-1.44,.12,0,.22,.01,.33,.04v1.11c-.14-.01-.26-.03-.42-.03-.84,0-1.44,.64-1.6,1.52-.03,.18-.04,.37-.04,.57v3.5h-1.19v-4.51Z"/><path d="M174.04,287.54v1.57h1.71v.91h-1.71v3.54c0,.81,.23,1.27,.89,1.27,.33,0,.51-.03,.69-.08l.05,.91c-.23,.08-.6,.16-1.06,.16-.56,0-1-.19-1.29-.5-.33-.36-.46-.95-.46-1.72v-3.58h-1.02v-.91h1.02v-1.21l1.17-.37Z"/></g><line class="cls-4" x1="181.09" y1="283.63" x2="176.32" y2="288.39"/><text class="cls-21" transform="translate(4.99 22.29)"><tspan x="0" y="0">Glutamine-II Riboswitch</tspan></text></svg>