<?xml version="1.0" encoding="UTF-8"?><svg id="_图层_1" xmlns="http://www.w3.org/2000/svg" viewBox="0 0 400 400"><defs><style>.cls-1{stroke-width:1.5px;}.cls-1,.cls-2,.cls-3,.cls-4,.cls-5,.cls-6,.cls-7{fill:none;}.cls-1,.cls-3,.cls-4,.cls-7{stroke:#000;}.cls-1,.cls-3,.cls-5,.cls-7{stroke-miterlimit:10;}.cls-8{fill:#d81408;}.cls-9{fill:#fff;}.cls-10{fill:#d8efb4;}.cls-11{fill:#5c5c5c;}.cls-12{fill:#070606;}.cls-13{fill:#d0d8e9;}.cls-14{fill:#d7efc5;}.cls-15{fill:#cad8e8;}.cls-2{stroke:#bfbfbf;stroke-linecap:round;stroke-width:7.2px;}.cls-2,.cls-6{stroke-linejoin:round;}.cls-3{stroke-width:.72px;}.cls-4,.cls-5{stroke-width:.5px;}.cls-16{fill:#030303;}.cls-17{fill:gray;}.cls-18{fill:#fdd2d7;}.cls-19{fill:#ce2127;}.cls-5{stroke:#5c5c5c;}.cls-6{stroke:#d6e9c2;stroke-width:6px;}.cls-7{stroke-width:1.94px;}.cls-20{fill:#d72026;}.cls-21{fill:#807c88;}.cls-22{font-family:ArialMT, Arial;font-size:20px;}.cls-23{fill:#231f20;}.cls-24{fill:#f5d8d9;}</style></defs><rect class="cls-9" x="8" y="96.65" width="383" height="202.76"/><path class="cls-2" d="M156.77,164.48c-1.48,11.59-8.12,21.88-18.07,28"/><path class="cls-2" d="M96.8,127.56c13.08-8.84,30.21-8.84,43.29,0"/><path d="M121.84,124.84c-.5,.19-1.49,.47-2.65,.47-1.3,0-2.37-.33-3.2-1.13-.74-.71-1.2-1.86-1.2-3.19,0-2.56,1.77-4.43,4.64-4.43,.99,0,1.78,.22,2.15,.39l-.28,.9c-.46-.22-1.03-.37-1.89-.37-2.09,0-3.45,1.3-3.45,3.45s1.3,3.46,3.31,3.46c.72,0,1.22-.1,1.48-.23v-2.56h-1.73v-.89h2.82v4.12Z"/><path class="cls-8" d="M152.12,177.08l-.89,2.7h-1.14l2.91-8.57h1.34l2.92,8.57h-1.18l-.92-2.7s-3.04,0-3.04,0Zm2.81-.86l-.85-2.47c-.18-.56-.31-1.07-.43-1.56h-.04c-.11,.5-.25,1.03-.42,1.55l-.84,2.48h2.58Z"/><g><path class="cls-16" d="M244.18,215.53c.23,.01,.5,0,.86-.05,.62-.07,1.2-.34,1.65-.8,.52-.5,.9-1.22,1.04-2.2h-.03c-.44,.56-1.07,.89-1.87,.89-1.42,0-2.33-1.12-2.33-2.54,0-1.55,1.09-2.92,2.7-2.92s2.61,1.36,2.61,3.48c0,1.82-.58,3.09-1.36,3.89-.61,.61-1.44,1-2.29,1.1-.39,.05-.74,.08-.98,.06v-.91h0Zm1.93-6.78c-.9,0-1.54,.84-1.54,2.01,0,1.03,.59,1.75,1.51,1.75,.72,0,1.27-.37,1.56-.86,.05-.1,.09-.23,.09-.41,.01-1.42-.5-2.49-1.61-2.49h0Z"/><path class="cls-16" d="M252.29,216.44c-1.54,0-2.6-1.51-2.62-4.25,0-2.78,1.15-4.3,2.75-4.3s2.61,1.55,2.61,4.19c0,2.81-1.01,4.36-2.73,4.36h-.01Zm.05-.86c1.08,0,1.6-1.34,1.6-3.45s-.49-3.37-1.6-3.37c-.97,0-1.6,1.3-1.6,3.37-.03,2.15,.61,3.45,1.59,3.45h.01Z"/><path class="cls-16" d="M257.74,207.9c1.09,0,1.81,.89,1.81,2.47,0,1.74-.86,2.61-1.88,2.61s-1.83-.84-1.84-2.49c0-1.65,.85-2.58,1.9-2.58h.01Zm-.05,.67c-.65,0-1.02,.83-1.02,1.87-.02,1.04,.36,1.86,1.03,1.86,.7,0,1.02-.79,1.02-1.88,0-1-.28-1.84-1.02-1.84h-.01Zm-.11,7.89l4.64-8.57h.68l-4.64,8.57h-.68Zm5.3-5.14c1.09,0,1.81,.89,1.81,2.47,0,1.74-.86,2.61-1.88,2.61s-1.83-.84-1.84-2.49c0-1.65,.85-2.58,1.9-2.58h.01Zm-.05,.67c-.65,0-1.02,.83-1.02,1.87-.03,1.04,.36,1.86,1.03,1.86,.7,0,1.02-.79,1.02-1.88,0-1.01-.28-1.84-1.02-1.84h0Z"/></g><path class="cls-23" d="M239.5,212.57c0,1.95-1.58,3.54-3.54,3.54s-3.54-1.58-3.54-3.54,1.58-3.54,3.54-3.54,3.54,1.58,3.54,3.54"/><circle class="cls-3" cx="235.97" cy="212.57" r="3.54"/><g><path class="cls-16" d="M244.18,202.94c.23,.01,.5,0,.86-.05,.62-.07,1.2-.34,1.65-.8,.52-.5,.9-1.22,1.04-2.2h-.03c-.44,.56-1.07,.89-1.87,.89-1.42,0-2.33-1.12-2.33-2.54,0-1.55,1.09-2.92,2.7-2.92s2.61,1.36,2.61,3.48c0,1.82-.58,3.09-1.36,3.89-.61,.61-1.44,1-2.29,1.1-.39,.05-.74,.08-.98,.06v-.92h0Zm1.93-6.78c-.9,0-1.54,.84-1.54,2.01,0,1.03,.59,1.75,1.51,1.75,.72,0,1.27-.37,1.56-.86,.05-.1,.09-.23,.09-.41,.01-1.42-.5-2.49-1.61-2.49h0Z"/><path class="cls-16" d="M254.9,195.45v.74l-3.43,7.53h-1.09l3.41-7.31v-.03h-3.86v-.93s4.97,0,4.97,0Z"/><path class="cls-16" d="M257.74,195.31c1.09,0,1.81,.89,1.81,2.47,0,1.74-.86,2.61-1.88,2.61s-1.83-.84-1.84-2.49c0-1.65,.85-2.58,1.9-2.58,0,0,.01,0,.01,0Zm-.05,.68c-.65,0-1.02,.83-1.02,1.87-.02,1.04,.36,1.86,1.03,1.86,.7,0,1.02-.79,1.02-1.88,0-1-.28-1.84-1.02-1.84h-.01Zm-.11,7.89l4.64-8.57h.68l-4.64,8.57h-.68Zm5.3-5.14c1.09,0,1.81,.89,1.81,2.47,0,1.74-.86,2.61-1.88,2.61s-1.83-.84-1.84-2.49c0-1.65,.85-2.58,1.9-2.58h.01Zm-.05,.67c-.65,0-1.02,.83-1.02,1.87-.03,1.04,.36,1.86,1.03,1.86,.7,0,1.02-.79,1.02-1.88,0-1.01-.28-1.84-1.02-1.84h0Z"/></g><path class="cls-20" d="M239.5,199.99c0,1.95-1.58,3.54-3.54,3.54s-3.53-1.58-3.53-3.54,1.58-3.54,3.53-3.54,3.54,1.58,3.54,3.54"/><circle class="cls-3" cx="235.97" cy="199.99" r="3.54"/><g><path class="cls-16" d="M291.6,195.45v.74l-3.43,7.53h-1.09l3.41-7.31v-.03h-3.86v-.93s4.97,0,4.97,0Z"/><path class="cls-16" d="M297.41,196.39h-3.01l-.3,2.1c.18-.03,.35-.05,.64-.05,.62,0,1.21,.14,1.7,.45,.62,.36,1.13,1.08,1.13,2.15,0,1.62-1.22,2.82-2.93,2.82-.86,0-1.57-.25-1.96-.51l.27-.85c.33,.21,.97,.46,1.69,.46,1,0,1.87-.69,1.86-1.81,0-1.09-.69-1.84-2.26-1.84-.46,0-.81,.04-1.1,.09l.51-3.94h3.77v.94h0Z"/><path class="cls-16" d="M300.65,195.31c1.09,0,1.81,.89,1.81,2.47,0,1.74-.86,2.61-1.88,2.61s-1.83-.84-1.84-2.49c0-1.65,.85-2.58,1.9-2.58,0,0,.01,0,.01,0Zm-.05,.68c-.65,0-1.02,.83-1.02,1.87-.02,1.04,.36,1.86,1.03,1.86,.7,0,1.02-.79,1.02-1.88,0-1-.28-1.84-1.02-1.84h-.01Zm-.11,7.89l4.64-8.57h.68l-4.64,8.57h-.68Zm5.3-5.14c1.09,0,1.81,.89,1.81,2.47,0,1.74-.86,2.61-1.88,2.61s-1.83-.84-1.84-2.49c0-1.65,.85-2.58,1.9-2.58h.01Zm-.05,.67c-.65,0-1.02,.83-1.02,1.87-.03,1.04,.36,1.86,1.03,1.86,.7,0,1.02-.79,1.02-1.88,0-1.01-.28-1.84-1.02-1.84h0Z"/></g><path class="cls-21" d="M282.42,199.98c0,1.95-1.58,3.54-3.54,3.54s-3.54-1.58-3.54-3.54,1.58-3.54,3.54-3.54,3.54,1.58,3.54,3.54"/><circle class="cls-3" cx="278.88" cy="199.98" r="3.54"/><g><path class="cls-16" d="M291.19,208.98h-3.01l-.3,2.1c.18-.03,.35-.05,.64-.05,.62,0,1.21,.14,1.7,.44,.62,.36,1.13,1.08,1.13,2.15,0,1.62-1.22,2.82-2.93,2.82-.86,0-1.57-.25-1.96-.51l.27-.85c.33,.21,.97,.46,1.69,.46,1,0,1.87-.69,1.86-1.81,0-1.09-.69-1.84-2.26-1.84-.46,0-.81,.04-1.1,.09l.51-3.94h3.77v.94h0Z"/><path class="cls-16" d="M295.21,216.44c-1.54,0-2.6-1.51-2.62-4.25,0-2.78,1.15-4.3,2.75-4.3s2.61,1.55,2.61,4.19c0,2.81-1.01,4.36-2.73,4.36h-.01Zm.05-.86c1.08,0,1.6-1.34,1.6-3.45s-.49-3.37-1.6-3.37c-.97,0-1.6,1.3-1.6,3.37-.03,2.15,.61,3.45,1.59,3.45h.01Z"/><path class="cls-16" d="M300.65,207.89c1.09,0,1.81,.89,1.81,2.47,0,1.74-.86,2.61-1.88,2.61s-1.83-.84-1.84-2.49c0-1.65,.85-2.58,1.9-2.58h.01Zm-.05,.67c-.65,0-1.02,.83-1.02,1.87-.02,1.04,.36,1.86,1.03,1.86,.7,0,1.02-.79,1.02-1.88,0-1-.28-1.84-1.02-1.84h-.01Zm-.11,7.89l4.64-8.57h.68l-4.64,8.57h-.68Zm5.3-5.14c1.09,0,1.81,.89,1.81,2.47,0,1.74-.86,2.61-1.88,2.61s-1.83-.84-1.84-2.49c0-1.65,.85-2.58,1.9-2.58h.01Zm-.05,.67c-.65,0-1.02,.83-1.02,1.87-.03,1.04,.36,1.86,1.03,1.86,.7,0,1.02-.79,1.02-1.88,0-1.01-.28-1.84-1.02-1.84h0Z"/></g><g><path class="cls-16" d="M235.94,174.4c0-.65-.01-1.16-.05-1.67h.95l.06,1h.03c.29-.57,.97-1.14,1.94-1.14,.81,0,2.07,.51,2.07,2.62v3.68h-1.07v-3.55c0-.99-.35-1.83-1.36-1.83-.69,0-1.24,.52-1.43,1.14-.05,.14-.07,.34-.07,.52v3.71h-1.07v-4.49h0Z"/><path class="cls-16" d="M247.58,177.21c0,.64,.01,1.2,.05,1.68h-.95l-.06-1h-.03c-.27,.5-.9,1.14-1.94,1.14-.92,0-2.02-.55-2.02-2.7v-3.6h1.07v3.4c0,1.17,.35,1.97,1.31,1.97,.72,0,1.21-.52,1.41-1.03,.06-.15,.1-.36,.1-.57v-3.76h1.07v4.48h0Z"/><path class="cls-16" d="M253.53,178.67c-.28,.14-.89,.36-1.68,.36-1.77,0-2.92-1.26-2.92-3.15s1.24-3.28,3.15-3.28c.63,0,1.19,.17,1.48,.33l-.24,.85c-.25-.14-.65-.29-1.24-.29-1.35,0-2.07,1.06-2.07,2.34,0,1.42,.87,2.3,2.04,2.3,.61,0,1.01-.15,1.31-.29l.18,.84Z"/><path class="cls-16" d="M254.77,169.85h1.07v9.03h-1.07v-9.03Z"/><path class="cls-16" d="M258.22,176c.03,1.51,.93,2.14,2,2.14,.76,0,1.24-.14,1.62-.31l.19,.79c-.38,.18-1.03,.39-1.96,.39-1.79,0-2.89-1.26-2.89-3.1s1.06-3.33,2.76-3.33c1.92,0,2.41,1.77,2.41,2.9,0,.23-.01,.41-.03,.53h-4.11Zm3.12-.81c.01-.7-.28-1.82-1.47-1.82-1.09,0-1.55,1.04-1.64,1.82h3.1Z"/><path class="cls-16" d="M266.07,179.02c-1.58,0-2.81-1.22-2.81-3.17,0-2.06,1.3-3.27,2.91-3.27s2.82,1.28,2.82,3.15c0,2.29-1.51,3.28-2.91,3.28h0Zm.04-.84c1.02,0,1.78-1,1.78-2.4,0-1.04-.5-2.35-1.76-2.35s-1.79,1.22-1.79,2.39c0,1.35,.73,2.37,1.76,2.37h.01Z"/><path class="cls-16" d="M271.63,171.25v1.48h1.53v.85h-1.53v3.32c0,.76,.21,1.2,.8,1.2,.29,0,.46-.03,.62-.08l.05,.85c-.21,.08-.53,.15-.95,.15-.5,0-.9-.18-1.15-.47-.29-.34-.41-.89-.41-1.62v-3.36h-.91v-.85h.91v-1.13l1.04-.34Z"/><path class="cls-16" d="M274.86,171.6c-.4,0-.67-.33-.67-.72s.28-.71,.69-.71,.68,.32,.68,.71-.27,.72-.69,.72h-.01Zm-.51,7.29v-6.15h1.07v6.15h-1.07Z"/><path class="cls-16" d="M282.26,169.85v7.44c0,.55,.01,1.17,.05,1.59h-.96l-.05-1.07h-.03c-.33,.69-1.03,1.21-1.99,1.21-1.42,0-2.52-1.26-2.52-3.13-.01-2.06,1.21-3.31,2.63-3.31,.91,0,1.51,.45,1.77,.93h.02v-3.66h1.07Zm-1.07,5.38c0-.15-.01-.33-.05-.48-.16-.7-.74-1.28-1.54-1.28-1.1,0-1.76,1.02-1.76,2.37,0,1.26,.59,2.29,1.73,2.29,.71,0,1.37-.51,1.56-1.34,.03-.15,.05-.31,.05-.48v-1.07Z"/><path class="cls-16" d="M284.63,176c.03,1.51,.93,2.14,2,2.14,.76,0,1.24-.14,1.62-.31l.19,.79c-.38,.18-1.03,.39-1.96,.39-1.79,0-2.89-1.26-2.89-3.1s1.06-3.33,2.76-3.33c1.92,0,2.41,1.77,2.41,2.9,0,.23-.01,.41-.03,.53h-4.11Zm3.12-.81c.01-.7-.28-1.82-1.47-1.82-1.09,0-1.55,1.04-1.64,1.82h3.1Z"/></g><g><path class="cls-16" d="M243.58,186.82c0-.79-.01-1.42-.05-2.01h.96l.06,1.06h.03c.42-.76,1.13-1.2,2.07-1.2,1.43,0,2.5,1.26,2.5,3.13,0,2.21-1.3,3.31-2.67,3.31-.79,0-1.45-.36-1.81-.97h-.03v3.34h-1.07v-6.66Zm1.07,1.64c0,.15,.01,.32,.05,.46,.18,.78,.84,1.31,1.59,1.31,1.13,0,1.78-.97,1.78-2.38,0-1.23-.61-2.29-1.73-2.29-.73,0-1.42,.53-1.62,1.37-.03,.15-.06,.32-.06,.46v1.07Z"/><path class="cls-16" d="M250.49,186.73c0-.72-.01-1.35-.05-1.92h.93l.05,1.21h.04c.27-.83,.92-1.35,1.64-1.35,.11,0,.19,.01,.29,.04v1.04c-.12-.01-.23-.03-.38-.03-.75,0-1.28,.6-1.43,1.42-.03,.17-.04,.34-.04,.53v3.28h-1.07v-4.23Z"/><path class="cls-16" d="M254.98,188.08c.03,1.51,.93,2.14,2,2.14,.76,0,1.24-.14,1.62-.31l.19,.79c-.38,.18-1.03,.39-1.96,.39-1.79,0-2.89-1.26-2.89-3.1s1.06-3.33,2.76-3.33c1.92,0,2.41,1.77,2.41,2.9,0,.23-.01,.41-.03,.53h-4.11Zm3.12-.81c.01-.7-.28-1.82-1.47-1.82-1.09,0-1.55,1.04-1.64,1.82h3.1Z"/><path class="cls-16" d="M260.3,189.83c.33,.2,.89,.43,1.42,.43,.76,0,1.13-.39,1.13-.92s-.3-.83-1.08-1.13c-1.07-.41-1.56-1-1.56-1.74,0-.99,.77-1.81,2.02-1.81,.59,0,1.11,.17,1.43,.38l-.25,.8c-.23-.14-.65-.36-1.2-.36-.63,0-.97,.38-.97,.84,0,.52,.34,.75,1.1,1.06,1.01,.39,1.54,.93,1.54,1.86,0,1.09-.81,1.86-2.18,1.86-.64,0-1.24-.18-1.65-.43l.25-.84Z"/><path class="cls-16" d="M265.86,188.08c.03,1.51,.93,2.14,2,2.14,.76,0,1.24-.14,1.62-.31l.19,.79c-.38,.18-1.03,.39-1.96,.39-1.79,0-2.89-1.26-2.89-3.1s1.06-3.33,2.76-3.33c1.92,0,2.41,1.77,2.41,2.9,0,.23-.01,.41-.03,.53h-4.11Zm3.12-.81c.01-.7-.28-1.82-1.47-1.82-1.09,0-1.55,1.04-1.64,1.82h3.1Z"/><path class="cls-16" d="M271.32,186.48c0-.65-.01-1.16-.05-1.67h.95l.06,1h.02c.29-.57,.97-1.14,1.94-1.14,.81,0,2.07,.51,2.07,2.62v3.68h-1.07v-3.55c0-.99-.35-1.83-1.36-1.83-.69,0-1.24,.52-1.43,1.14-.05,.14-.07,.34-.07,.52v3.71h-1.07v-4.49h0Z"/><path class="cls-16" d="M279.3,183.34v1.48h1.53v.85h-1.53v3.32c0,.76,.21,1.2,.8,1.2,.29,0,.46-.03,.62-.08l.05,.85c-.21,.08-.53,.15-.95,.15-.5,0-.9-.18-1.15-.47-.29-.34-.41-.89-.41-1.62v-3.36h-.91v-.85h.91v-1.13l1.04-.34Z"/></g><g><path class="cls-16" d="M319.79,174.4c0-.65-.01-1.16-.05-1.67h.95l.06,1h.03c.29-.57,.97-1.14,1.94-1.14,.81,0,2.07,.51,2.07,2.62v3.68h-1.07v-3.55c0-.99-.35-1.83-1.36-1.83-.69,0-1.24,.52-1.43,1.14-.05,.14-.07,.34-.07,.52v3.71h-1.07v-4.49h0Z"/><path class="cls-16" d="M331.43,177.21c0,.64,.01,1.2,.05,1.68h-.95l-.06-1h-.03c-.27,.5-.89,1.14-1.94,1.14-.92,0-2.02-.55-2.02-2.7v-3.6h1.07v3.4c0,1.17,.35,1.97,1.31,1.97,.72,0,1.21-.52,1.41-1.03,.06-.15,.1-.36,.1-.57v-3.76h1.07v4.48Z"/><path class="cls-16" d="M337.38,178.67c-.28,.14-.9,.36-1.69,.36-1.77,0-2.92-1.26-2.92-3.15s1.24-3.28,3.15-3.28c.63,0,1.19,.17,1.48,.33l-.24,.85c-.25-.14-.65-.29-1.24-.29-1.35,0-2.07,1.06-2.07,2.34,0,1.42,.87,2.3,2.04,2.3,.61,0,1.01-.15,1.31-.29l.18,.84Z"/><path class="cls-16" d="M338.62,169.85h1.07v9.03h-1.07v-9.03Z"/><path class="cls-16" d="M342.07,176c.03,1.51,.93,2.14,2,2.14,.76,0,1.24-.14,1.62-.31l.19,.79c-.38,.18-1.03,.39-1.96,.39-1.79,0-2.89-1.26-2.89-3.1s1.06-3.33,2.76-3.33c1.92,0,2.41,1.77,2.41,2.9,0,.23-.01,.41-.03,.53h-4.11Zm3.12-.81c.01-.7-.28-1.82-1.47-1.82-1.09,0-1.55,1.04-1.64,1.82h3.1Z"/><path class="cls-16" d="M349.92,179.02c-1.57,0-2.81-1.22-2.81-3.17,0-2.06,1.3-3.27,2.91-3.27s2.82,1.28,2.82,3.15c0,2.29-1.51,3.28-2.91,3.28h-.01Zm.04-.84c1.02,0,1.78-1,1.78-2.4,0-1.04-.5-2.35-1.76-2.35s-1.79,1.22-1.79,2.39c0,1.35,.73,2.37,1.76,2.37h.01Z"/><path class="cls-16" d="M355.47,171.25v1.48h1.53v.85h-1.53v3.32c0,.76,.21,1.2,.8,1.2,.29,0,.46-.03,.62-.08l.05,.85c-.21,.08-.53,.15-.95,.15-.5,0-.9-.18-1.15-.47-.29-.34-.41-.89-.41-1.62v-3.36h-.91v-.85h.91v-1.13l1.04-.34Z"/><path class="cls-16" d="M358.71,171.6c-.4,0-.67-.33-.67-.72s.28-.71,.69-.71,.68,.32,.68,.71-.27,.72-.69,.72h-.01Zm-.51,7.29v-6.15h1.07v6.15h-1.07Z"/><path class="cls-16" d="M366.11,169.85v7.44c0,.55,.01,1.17,.05,1.59h-.96l-.05-1.07h-.03c-.33,.69-1.03,1.21-1.99,1.21-1.42,0-2.52-1.26-2.52-3.13-.01-2.06,1.21-3.31,2.63-3.31,.91,0,1.51,.45,1.77,.93h.03v-3.66h1.07Zm-1.07,5.38c0-.15-.01-.33-.05-.48-.16-.7-.74-1.28-1.54-1.28-1.1,0-1.76,1.02-1.76,2.37,0,1.26,.6,2.29,1.74,2.29,.71,0,1.37-.51,1.56-1.34,.03-.15,.05-.31,.05-.48v-1.07Z"/><path class="cls-16" d="M368.48,176c.03,1.51,.93,2.14,2,2.14,.76,0,1.24-.14,1.62-.31l.19,.79c-.38,.18-1.03,.39-1.96,.39-1.79,0-2.89-1.26-2.89-3.1s1.06-3.33,2.76-3.33c1.92,0,2.41,1.77,2.41,2.9,0,.23-.01,.41-.03,.53h-4.11Zm3.12-.81c.01-.7-.28-1.82-1.47-1.82-1.09,0-1.55,1.04-1.64,1.82h3.1Z"/></g><g><path class="cls-16" d="M327.93,183.68c-.4,0-.67-.33-.67-.72s.28-.71,.69-.71,.68,.32,.68,.71-.27,.72-.69,.72h-.01Zm-.51,7.29v-6.15h1.07v6.15h-1.07Z"/><path class="cls-16" d="M335.33,181.94v7.44c0,.55,.01,1.17,.05,1.59h-.96l-.05-1.07h-.03c-.33,.69-1.03,1.21-1.99,1.21-1.42,0-2.52-1.26-2.52-3.13-.01-2.06,1.21-3.31,2.63-3.31,.91,0,1.51,.45,1.77,.93h.03v-3.66s1.07,0,1.07,0Zm-1.07,5.38c0-.15-.01-.33-.05-.48-.16-.7-.74-1.28-1.54-1.28-1.1,0-1.76,1.02-1.76,2.37,0,1.26,.59,2.29,1.73,2.29,.72,0,1.37-.51,1.56-1.34,.04-.15,.05-.31,.05-.48v-1.07h0Z"/><path class="cls-16" d="M337.7,188.08c.02,1.51,.93,2.14,2,2.14,.76,0,1.24-.14,1.62-.31l.19,.79c-.38,.18-1.03,.39-1.96,.39-1.79,0-2.89-1.26-2.89-3.1s1.05-3.33,2.76-3.33c1.92,0,2.41,1.77,2.41,2.9,0,.23-.01,.41-.04,.53h-4.11Zm3.12-.81c.01-.7-.28-1.82-1.47-1.82-1.09,0-1.55,1.04-1.64,1.82h3.1Z"/><path class="cls-16" d="M343.17,186.48c0-.65-.01-1.16-.05-1.67h.95l.06,1h.03c.29-.57,.97-1.14,1.94-1.14,.81,0,2.07,.51,2.07,2.62v3.68h-1.07v-3.55c0-.99-.35-1.83-1.36-1.83-.69,0-1.24,.52-1.43,1.14-.05,.14-.07,.34-.07,.52v3.71h-1.07v-4.49h0Z"/><path class="cls-16" d="M351.15,183.34v1.48h1.53v.85h-1.53v3.32c0,.76,.21,1.2,.8,1.2,.29,0,.46-.03,.62-.08l.05,.85c-.21,.08-.53,.15-.95,.15-.5,0-.9-.18-1.15-.47-.29-.34-.41-.89-.41-1.62v-3.36h-.91v-.85h.91v-1.13l1.04-.34Z"/><path class="cls-16" d="M354.38,183.68c-.4,0-.67-.33-.67-.72s.28-.71,.69-.71,.68,.32,.68,.71-.27,.72-.69,.72h-.01Zm-.51,7.29v-6.15h1.07v6.15h-1.07Z"/><path class="cls-16" d="M358,183.34v1.48h1.53v.85h-1.53v3.32c0,.76,.21,1.2,.8,1.2,.29,0,.46-.03,.62-.08l.05,.85c-.21,.08-.53,.15-.95,.15-.5,0-.9-.18-1.15-.47-.29-.34-.41-.89-.41-1.62v-3.36h-.91v-.85h.91v-1.13l1.04-.34Z"/><path class="cls-16" d="M361.22,184.81l1.27,3.64c.15,.41,.29,.89,.39,1.26h.03c.11-.37,.23-.84,.38-1.28l1.16-3.61h1.13l-1.6,4.39c-.76,2.11-1.28,3.19-2.01,3.87-.53,.47-1.04,.66-1.31,.71l-.27-.94c.27-.08,.62-.25,.93-.55,.29-.24,.64-.67,.9-1.25,.05-.11,.09-.19,.09-.27,0-.06-.03-.15-.09-.28l-2.16-5.68h1.16Z"/></g><g><path class="cls-16" d="M357.31,224.74v.74l-3.43,7.53h-1.09l3.41-7.31v-.03h-3.86v-.93h4.97Z"/><path class="cls-16" d="M363.11,225.68h-3.01l-.3,2.1c.18-.03,.35-.05,.64-.05,.62,0,1.21,.14,1.7,.45,.62,.36,1.13,1.08,1.13,2.15,0,1.62-1.22,2.82-2.93,2.82-.86,0-1.57-.25-1.96-.51l.27-.85c.33,.2,.97,.46,1.69,.46,1,0,1.87-.69,1.86-1.81,0-1.09-.69-1.84-2.26-1.84-.46,0-.81,.04-1.1,.09l.51-3.94h3.77v.94h0Z"/><path class="cls-16" d="M366.36,224.6c1.09,0,1.81,.89,1.81,2.47,0,1.74-.86,2.61-1.88,2.61s-1.83-.84-1.84-2.49c0-1.65,.85-2.58,1.9-2.58h.01Zm-.05,.67c-.65,0-1.02,.83-1.02,1.87-.02,1.04,.36,1.86,1.03,1.86,.7,0,1.02-.79,1.02-1.88,0-1-.28-1.84-1.02-1.84,0,0-.01,0-.01,0Zm-.11,7.88l4.64-8.57h.68l-4.64,8.57h-.68Zm5.3-5.14c1.09,0,1.81,.89,1.81,2.47,0,1.74-.86,2.61-1.88,2.61s-1.83-.84-1.84-2.49c0-1.65,.85-2.58,1.9-2.58h.01Zm-.05,.67c-.65,0-1.02,.83-1.02,1.87-.03,1.04,.36,1.86,1.03,1.86,.7,0,1.02-.79,1.02-1.88,0-1-.28-1.84-1.02-1.84h0Z"/></g><path class="cls-17" d="M327.08,233.01v-8.57h1.16l2.61,4.34c.59,1.01,1.08,1.89,1.45,2.78h.04c-.1-1.16-.12-2.2-.12-3.52v-3.6h.99v8.57h-1.07l-2.59-4.35c-.57-.95-1.12-1.93-1.51-2.86h-.04c.06,1.1,.07,2.12,.07,3.55v3.66h-1Z"/><path class="cls-19" d="M327.08,207.29v-8.57h1.16l2.61,4.34c.59,1.01,1.08,1.89,1.45,2.78h.04c-.1-1.16-.12-2.2-.12-3.52v-3.6h.99v8.57h-1.07l-2.59-4.35c-.57-.95-1.12-1.93-1.51-2.86h-.04c.06,1.1,.07,2.12,.07,3.55v3.66h-1Z"/><g><path class="cls-16" d="M352.81,206.52c.23,.01,.5,0,.86-.05,.62-.08,1.2-.34,1.65-.8,.52-.5,.9-1.22,1.04-2.2h-.03c-.44,.56-1.07,.89-1.87,.89-1.42,0-2.33-1.12-2.33-2.54,0-1.55,1.09-2.93,2.7-2.93s2.61,1.36,2.61,3.48c0,1.82-.58,3.09-1.36,3.89-.61,.61-1.44,1.01-2.29,1.11-.39,.05-.74,.08-.98,.06v-.91h0Zm1.93-6.78c-.9,0-1.54,.84-1.54,2.01,0,1.03,.59,1.75,1.51,1.75,.72,0,1.27-.37,1.56-.86,.05-.1,.09-.23,.09-.41,.01-1.42-.5-2.49-1.61-2.49h0Z"/><path class="cls-16" d="M363.52,199.03v.74l-3.43,7.53h-1.09l3.41-7.31v-.03h-3.86v-.93h4.97Z"/><path class="cls-16" d="M366.36,198.89c1.09,0,1.81,.89,1.81,2.47,0,1.74-.86,2.61-1.88,2.61s-1.83-.84-1.84-2.49c0-1.65,.85-2.58,1.9-2.58h.01Zm-.05,.67c-.65,0-1.02,.83-1.02,1.87-.02,1.04,.36,1.86,1.03,1.86,.7,0,1.02-.79,1.02-1.88,0-1-.28-1.84-1.02-1.84,0,0-.01,0-.01,0Zm-.11,7.88l4.64-8.57h.68l-4.64,8.57h-.68Zm5.3-5.14c1.09,0,1.81,.89,1.81,2.47,0,1.74-.86,2.61-1.88,2.61s-1.83-.84-1.84-2.49c0-1.65,.85-2.58,1.9-2.58h.01Zm-.05,.67c-.65,0-1.02,.83-1.02,1.87-.03,1.04,.36,1.86,1.03,1.86,.7,0,1.02-.79,1.02-1.88,0-1-.28-1.84-1.02-1.84h0Z"/></g><path class="cls-16" d="M327.08,220.15v-8.57h1.16l2.61,4.34c.59,1.01,1.08,1.89,1.45,2.78h.04c-.1-1.16-.12-2.2-.12-3.52v-3.6h.99v8.57h-1.07l-2.59-4.35c-.57-.95-1.12-1.93-1.51-2.86h-.04c.06,1.1,.07,2.12,.07,3.55v3.66h-1Z"/><g><path class="cls-16" d="M352.81,219.37c.23,.01,.5,0,.86-.05,.62-.08,1.2-.34,1.65-.8,.52-.5,.9-1.22,1.04-2.2h-.03c-.44,.56-1.07,.89-1.87,.89-1.42,0-2.33-1.12-2.33-2.54,0-1.55,1.09-2.93,2.7-2.93s2.61,1.36,2.61,3.48c0,1.82-.58,3.09-1.36,3.89-.61,.61-1.44,1.01-2.29,1.11-.39,.05-.74,.08-.98,.06v-.91h0Zm1.93-6.78c-.9,0-1.54,.84-1.54,2.01,0,1.03,.59,1.75,1.51,1.75,.72,0,1.27-.37,1.56-.86,.05-.1,.09-.23,.09-.41,.01-1.42-.5-2.49-1.61-2.49h0Z"/><path class="cls-16" d="M360.92,220.29c-1.54,0-2.6-1.51-2.62-4.25,0-2.78,1.15-4.3,2.75-4.3s2.61,1.55,2.61,4.18c0,2.81-1.01,4.36-2.73,4.36h-.01Zm.05-.86c1.08,0,1.6-1.34,1.6-3.45s-.49-3.37-1.6-3.37c-.97,0-1.6,1.3-1.6,3.37-.03,2.15,.61,3.45,1.59,3.45h.01Z"/><path class="cls-16" d="M366.36,211.74c1.09,0,1.81,.89,1.81,2.47,0,1.74-.86,2.61-1.88,2.61s-1.83-.84-1.84-2.49c0-1.65,.85-2.58,1.9-2.58h.01Zm-.05,.67c-.65,0-1.02,.83-1.02,1.87-.02,1.04,.36,1.86,1.03,1.86,.7,0,1.02-.79,1.02-1.88,0-1-.28-1.84-1.02-1.84,0,0-.01,0-.01,0Zm-.11,7.88l4.64-8.57h.68l-4.64,8.57h-.68Zm5.3-5.14c1.09,0,1.81,.89,1.81,2.47,0,1.74-.86,2.61-1.88,2.61s-1.83-.84-1.84-2.49c0-1.65,.85-2.58,1.9-2.58h.01Zm-.05,.67c-.65,0-1.02,.83-1.02,1.87-.03,1.04,.36,1.86,1.03,1.86,.7,0,1.02-.79,1.02-1.88,0-1-.28-1.84-1.02-1.84h0Z"/></g><g><path class="cls-12" d="M259.98,131.26c-.28,.14-.89,.36-1.68,.36-1.77,0-2.92-1.26-2.92-3.15s1.24-3.28,3.15-3.28c.63,0,1.19,.17,1.48,.33l-.24,.85c-.25-.14-.65-.29-1.24-.29-1.34,0-2.07,1.06-2.07,2.34,0,1.42,.87,2.3,2.04,2.3,.61,0,1.01-.15,1.31-.29l.18,.84Z"/><path class="cls-12" d="M263.55,131.62c-1.58,0-2.81-1.22-2.81-3.17,0-2.06,1.3-3.27,2.91-3.27s2.82,1.28,2.82,3.15c0,2.29-1.51,3.28-2.91,3.28,0,0,0,0,0,0Zm.04-.84c1.02,0,1.78-1,1.78-2.4,0-1.04-.5-2.35-1.76-2.35s-1.79,1.22-1.79,2.39c0,1.35,.73,2.37,1.76,2.37,0,0,.01,0,.01,0Z"/><path class="cls-12" d="M268.13,125.32l1.15,3.45c.2,.57,.35,1.08,.47,1.59h.03c.13-.51,.3-1.02,.5-1.59l1.14-3.45h1.12l-2.3,6.15h-1.02l-2.23-6.15h1.14Z"/><path class="cls-12" d="M277.53,130c0,.53,.03,1.06,.09,1.48h-.96l-.1-.78h-.04c-.31,.48-.96,.92-1.79,.92-1.19,0-1.79-.88-1.79-1.77,0-1.49,1.26-2.3,3.53-2.29v-.13c0-.51-.13-1.44-1.34-1.42-.56,0-1.13,.17-1.54,.46l-.24-.75c.48-.32,1.2-.53,1.94-.53,1.81,0,2.24,1.28,2.24,2.52v2.3h0Zm-1.04-1.67c-1.16-.03-2.48,.19-2.48,1.39,0,.74,.46,1.07,.99,1.07,.78,0,1.27-.51,1.44-1.03,.03-.11,.05-.24,.05-.36v-1.07Z"/><path class="cls-12" d="M279.25,127.24c0-.72-.01-1.35-.05-1.92h.93l.05,1.21h.04c.27-.83,.92-1.35,1.64-1.35,.11,0,.2,.01,.29,.04v1.04c-.12-.01-.23-.03-.38-.03-.75,0-1.29,.6-1.43,1.42-.03,.17-.04,.34-.04,.53v3.28h-1.07v-4.23Z"/><path class="cls-12" d="M283.88,125.32l1.27,3.64c.15,.41,.29,.89,.39,1.26h.03c.11-.37,.23-.84,.38-1.28l1.16-3.61h1.13l-1.6,4.39c-.76,2.11-1.28,3.19-2.01,3.87-.53,.47-1.04,.66-1.31,.71l-.27-.94c.27-.08,.62-.25,.93-.55,.29-.24,.64-.67,.9-1.25,.05-.11,.09-.19,.09-.27,0-.06-.03-.15-.09-.28l-2.16-5.68h1.16Z"/><path class="cls-12" d="M289.71,124.19c-.4,0-.67-.33-.67-.72s.28-.71,.69-.71,.68,.32,.68,.71-.27,.72-.69,.72h-.01Zm-.51,7.29v-6.15h1.07v6.15h-1.07Z"/><path class="cls-12" d="M292.04,126.99c0-.65-.01-1.16-.05-1.67h.95l.06,1h.02c.29-.57,.97-1.14,1.94-1.14,.81,0,2.07,.51,2.07,2.62v3.68h-1.07v-3.55c0-.99-.35-1.83-1.36-1.83-.69,0-1.24,.52-1.43,1.14-.05,.14-.07,.34-.07,.52v3.71h-1.07v-4.49h0Z"/><path class="cls-12" d="M303.79,130.57c0,1.42-.28,2.28-.84,2.82-.58,.55-1.41,.74-2.15,.74s-1.48-.18-1.95-.51l.27-.86c.39,.27,1,.5,1.72,.5,1.09,0,1.89-.6,1.89-2.16v-.67h-.03c-.31,.57-.96,1.03-1.87,1.03-1.46,0-2.5-1.3-2.5-3.01,0-2.09,1.3-3.26,2.66-3.26,1.02,0,1.56,.55,1.83,1.06h.03l.03-.92h.95c-.03,.43-.05,.93-.05,1.68v3.57h0Zm-1.07-2.84c0-.18-.01-.34-.06-.5-.19-.66-.7-1.2-1.49-1.2-1.02,0-1.75,.9-1.75,2.34,0,1.2,.59,2.21,1.73,2.21,.67,0,1.26-.43,1.48-1.16,.06-.18,.09-.39,.09-.6v-1.11h0Z"/><path class="cls-12" d="M308.11,126.99c0-.65-.02-1.16-.05-1.67h.93l.05,.99h.04c.33-.58,.87-1.13,1.85-1.13,.79,0,1.39,.51,1.65,1.23h.03c.18-.36,.42-.61,.67-.8,.35-.28,.73-.43,1.29-.43,.79,0,1.94,.53,1.94,2.67v3.62h-1.04v-3.48c0-1.2-.42-1.89-1.27-1.89-.62,0-1.08,.47-1.27,1-.05,.17-.09,.37-.09,.56v3.81h-1.04v-3.69c0-.99-.41-1.69-1.22-1.69-.65,0-1.15,.56-1.32,1.12-.06,.17-.09,.36-.09,.55v3.71h-1.04v-4.49h0Z"/><path class="cls-12" d="M323.13,129.8c0,.64,.01,1.2,.05,1.68h-.95l-.06-1h-.03c-.27,.5-.9,1.14-1.94,1.14-.92,0-2.02-.55-2.02-2.7v-3.6h1.07v3.4c0,1.17,.35,1.97,1.31,1.97,.72,0,1.21-.52,1.41-1.03,.06-.15,.1-.36,.1-.57v-3.76h1.07v4.48h0Z"/><path class="cls-12" d="M326.19,123.85v1.48h1.53v.85h-1.53v3.32c0,.76,.21,1.2,.8,1.2,.29,0,.46-.03,.62-.08l.05,.85c-.21,.08-.53,.15-.94,.15-.5,0-.9-.18-1.15-.47-.29-.34-.41-.89-.41-1.62v-3.36h-.91v-.85h.91v-1.13l1.04-.34Z"/><path class="cls-12" d="M333.05,130c0,.53,.03,1.06,.08,1.48h-.96l-.1-.78h-.03c-.31,.48-.96,.92-1.79,.92-1.19,0-1.79-.88-1.79-1.77,0-1.49,1.26-2.3,3.53-2.29v-.13c0-.51-.13-1.44-1.33-1.42-.56,0-1.13,.17-1.54,.46l-.24-.75c.48-.32,1.2-.53,1.94-.53,1.81,0,2.24,1.28,2.24,2.52v2.3Zm-1.04-1.67c-1.16-.03-2.48,.19-2.48,1.39,0,.74,.46,1.07,.99,1.07,.78,0,1.27-.51,1.44-1.03,.03-.11,.05-.24,.05-.36v-1.07h0Z"/><path class="cls-12" d="M336.01,123.85v1.48h1.53v.85h-1.53v3.32c0,.76,.21,1.2,.8,1.2,.29,0,.46-.03,.62-.08l.05,.85c-.21,.08-.53,.15-.95,.15-.5,0-.9-.18-1.15-.47-.29-.34-.41-.89-.41-1.62v-3.36h-.91v-.85h.91v-1.13l1.04-.34Z"/><path class="cls-12" d="M339.24,124.19c-.4,0-.67-.33-.67-.72s.28-.71,.69-.71,.68,.32,.68,.71-.27,.72-.69,.72h-.01Zm-.51,7.29v-6.15h1.07v6.15h-1.07Z"/><path class="cls-12" d="M343.96,131.62c-1.58,0-2.81-1.22-2.81-3.17,0-2.06,1.3-3.27,2.91-3.27s2.82,1.28,2.82,3.15c0,2.29-1.51,3.28-2.91,3.28,0,0-.01,0-.01,0Zm.04-.84c1.02,0,1.78-1,1.78-2.4,0-1.04-.5-2.35-1.76-2.35s-1.79,1.22-1.79,2.39c0,1.35,.73,2.37,1.76,2.37,0,0,.01,0,.01,0Z"/><path class="cls-12" d="M348.22,126.99c0-.65-.01-1.16-.05-1.67h.94l.06,1h.02c.29-.57,.97-1.14,1.94-1.14,.81,0,2.07,.51,2.07,2.62v3.68h-1.07v-3.55c0-.99-.35-1.83-1.36-1.83-.69,0-1.24,.52-1.43,1.14-.05,.14-.07,.34-.07,.52v3.71h-1.07v-4.49h0Z"/><path class="cls-12" d="M354.81,130.34c.33,.2,.89,.43,1.42,.43,.76,0,1.13-.39,1.13-.92s-.3-.83-1.08-1.13c-1.07-.41-1.56-1-1.56-1.74,0-.99,.78-1.81,2.02-1.81,.59,0,1.12,.17,1.43,.38l-.25,.8c-.23-.14-.65-.36-1.2-.36-.63,0-.97,.38-.97,.84,0,.52,.34,.75,1.1,1.06,1.01,.39,1.54,.93,1.54,1.86,0,1.09-.81,1.86-2.18,1.86-.64,0-1.24-.18-1.65-.43l.25-.84Z"/></g><g><path class="cls-12" d="M229.55,110.53h1.07v3.85h.02c.38-.69,1.05-1.12,2-1.12,1.45,0,2.47,1.27,2.47,3.13,0,2.21-1.33,3.31-2.64,3.31-.85,0-1.51-.34-1.96-1.16h-.02l-.06,1.02h-.92c.03-.42,.05-1.04,.05-1.59v-7.44h0Zm1.07,6.56c0,.14,.01,.28,.03,.41,.21,.78,.84,1.31,1.6,1.31,1.13,0,1.78-.95,1.78-2.37,0-1.25-.61-2.3-1.75-2.3-.73,0-1.41,.53-1.61,1.37-.03,.14-.06,.29-.06,.47v1.11h0Z"/><path class="cls-12" d="M240.58,118.09c0,.53,.03,1.06,.09,1.48h-.96l-.1-.78h-.04c-.31,.48-.96,.92-1.79,.92-1.19,0-1.79-.88-1.79-1.77,0-1.49,1.26-2.3,3.53-2.29v-.13c0-.51-.13-1.44-1.34-1.42-.56,0-1.13,.17-1.54,.46l-.24-.75c.48-.32,1.2-.53,1.94-.53,1.81,0,2.24,1.28,2.24,2.52v2.3h0Zm-1.04-1.67c-1.16-.03-2.48,.19-2.48,1.39,0,.74,.46,1.07,.99,1.07,.78,0,1.27-.51,1.44-1.03,.03-.11,.05-.24,.05-.36v-1.07Z"/><path class="cls-12" d="M242.15,118.43c.33,.2,.89,.43,1.42,.43,.76,0,1.13-.39,1.13-.92s-.3-.83-1.08-1.13c-1.07-.41-1.56-1-1.56-1.74,0-.99,.77-1.81,2.02-1.81,.59,0,1.12,.17,1.43,.38l-.25,.8c-.23-.14-.65-.36-1.2-.36-.63,0-.97,.38-.97,.84,0,.52,.34,.75,1.1,1.06,1.01,.39,1.54,.93,1.54,1.86,0,1.09-.81,1.86-2.18,1.86-.64,0-1.24-.18-1.65-.43l.25-.84Z"/><path class="cls-12" d="M247.7,116.68c.03,1.51,.93,2.14,2,2.14,.76,0,1.24-.14,1.62-.31l.19,.79c-.38,.18-1.03,.39-1.96,.39-1.79,0-2.89-1.26-2.89-3.1s1.06-3.33,2.76-3.33c1.92,0,2.41,1.77,2.41,2.9,0,.23-.01,.41-.03,.53h-4.11Zm3.12-.81c.01-.7-.28-1.82-1.47-1.82-1.09,0-1.55,1.04-1.64,1.82h3.1Z"/><path class="cls-12" d="M255.73,115.42c0-.79-.01-1.42-.05-2.01h.96l.06,1.06h.03c.42-.76,1.13-1.2,2.07-1.2,1.43,0,2.5,1.26,2.5,3.13,0,2.21-1.3,3.31-2.67,3.31-.79,0-1.45-.36-1.81-.97h-.03v3.34h-1.07v-6.66Zm1.07,1.64c0,.15,.01,.32,.05,.46,.18,.78,.84,1.31,1.59,1.31,1.13,0,1.78-.97,1.78-2.38,0-1.23-.61-2.29-1.73-2.29-.73,0-1.42,.53-1.62,1.37-.03,.15-.06,.32-.06,.46v1.07Z"/><path class="cls-12" d="M266.76,118.09c0,.53,.02,1.06,.08,1.48h-.96l-.1-.78h-.03c-.32,.48-.96,.92-1.79,.92-1.19,0-1.79-.88-1.79-1.77,0-1.49,1.26-2.3,3.53-2.29v-.13c0-.51-.13-1.44-1.33-1.42-.56,0-1.13,.17-1.54,.46l-.24-.75c.48-.32,1.2-.53,1.94-.53,1.81,0,2.24,1.28,2.24,2.52v2.3h0Zm-1.04-1.67c-1.16-.03-2.48,.19-2.48,1.39,0,.74,.46,1.07,1,1.07,.77,0,1.27-.51,1.44-1.03,.04-.11,.05-.24,.05-.36v-1.07h0Z"/><path class="cls-12" d="M268.98,112.27c-.4,0-.67-.33-.67-.72s.28-.71,.69-.71,.68,.32,.68,.71-.27,.72-.69,.72h-.01Zm-.51,7.29v-6.15h1.07v6.15h-1.07Z"/><path class="cls-12" d="M271.32,115.33c0-.72-.01-1.35-.05-1.92h.93l.05,1.21h.03c.27-.83,.92-1.35,1.64-1.35,.11,0,.19,.01,.29,.04v1.04c-.12-.01-.23-.03-.38-.03-.75,0-1.29,.6-1.43,1.42-.02,.17-.03,.34-.03,.53v3.28h-1.07v-4.23Z"/><path class="cls-12" d="M281.98,118.09c0,.53,.03,1.06,.08,1.48h-.96l-.1-.78h-.03c-.31,.48-.96,.92-1.79,.92-1.19,0-1.79-.88-1.79-1.77,0-1.49,1.26-2.3,3.53-2.29v-.13c0-.51-.13-1.44-1.33-1.42-.56,0-1.13,.17-1.54,.46l-.24-.75c.48-.32,1.2-.53,1.94-.53,1.81,0,2.24,1.28,2.24,2.52v2.3Zm-1.04-1.67c-1.16-.03-2.48,.19-2.48,1.39,0,.74,.46,1.07,.99,1.07,.78,0,1.27-.51,1.44-1.03,.03-.11,.05-.24,.05-.36v-1.07h0Z"/><path class="cls-12" d="M283.69,115.07c0-.65-.01-1.16-.05-1.67h.95l.06,1h.03c.29-.57,.97-1.14,1.94-1.14,.81,0,2.07,.51,2.07,2.62v3.68h-1.07v-3.55c0-.99-.35-1.83-1.36-1.83-.69,0-1.24,.52-1.43,1.14-.05,.14-.07,.34-.07,.52v3.71h-1.07v-4.49h0Z"/><path class="cls-12" d="M290.41,115.07c0-.65-.01-1.16-.05-1.67h.95l.06,1h.03c.29-.57,.97-1.14,1.94-1.14,.81,0,2.07,.51,2.07,2.62v3.68h-1.07v-3.55c0-.99-.35-1.83-1.36-1.83-.69,0-1.24,.52-1.43,1.14-.05,.14-.07,.34-.07,.52v3.71h-1.07v-4.49h0Z"/><path class="cls-12" d="M299.53,119.7c-1.58,0-2.81-1.22-2.81-3.17,0-2.06,1.3-3.27,2.91-3.27s2.82,1.28,2.82,3.15c0,2.29-1.51,3.28-2.91,3.28,0,0-.01,0-.01,0Zm.04-.84c1.02,0,1.78-1,1.78-2.4,0-1.04-.5-2.35-1.76-2.35s-1.79,1.22-1.79,2.39c0,1.35,.73,2.37,1.76,2.37,0,0,.01,0,.01,0Z"/><path class="cls-12" d="M305.08,111.93v1.48h1.53v.85h-1.53v3.32c0,.76,.21,1.2,.8,1.2,.29,0,.46-.03,.62-.08l.05,.85c-.21,.08-.53,.15-.94,.15-.5,0-.9-.18-1.15-.47-.29-.34-.41-.89-.41-1.62v-3.36h-.91v-.85h.91v-1.13l1.04-.34Z"/><path class="cls-12" d="M311.94,118.09c0,.53,.02,1.06,.08,1.48h-.96l-.1-.78h-.03c-.32,.48-.96,.92-1.79,.92-1.19,0-1.79-.88-1.79-1.77,0-1.49,1.26-2.3,3.53-2.29v-.13c0-.51-.13-1.44-1.33-1.42-.56,0-1.13,.17-1.54,.46l-.24-.75c.48-.32,1.2-.53,1.94-.53,1.81,0,2.24,1.28,2.24,2.52v2.3h0Zm-1.04-1.67c-1.16-.03-2.48,.19-2.48,1.39,0,.74,.46,1.07,1,1.07,.77,0,1.27-.51,1.44-1.03,.04-.11,.05-.24,.05-.36v-1.07h0Z"/><path class="cls-12" d="M314.9,111.93v1.48h1.53v.85h-1.53v3.32c0,.76,.21,1.2,.8,1.2,.29,0,.46-.03,.62-.08l.05,.85c-.21,.08-.53,.15-.95,.15-.5,0-.9-.18-1.15-.47-.29-.34-.41-.89-.41-1.62v-3.36h-.91v-.85h.91v-1.13l1.04-.34Z"/><path class="cls-12" d="M318.14,112.27c-.4,0-.67-.33-.67-.72s.28-.71,.69-.71,.68,.32,.68,.71-.27,.72-.69,.72h-.01Zm-.51,7.29v-6.15h1.07v6.15h-1.07Z"/><path class="cls-12" d="M322.85,119.7c-1.58,0-2.81-1.22-2.81-3.17,0-2.06,1.3-3.27,2.91-3.27s2.82,1.28,2.82,3.15c0,2.29-1.51,3.28-2.91,3.28,0,0-.01,0-.01,0Zm.04-.84c1.02,0,1.78-1,1.78-2.4,0-1.04-.5-2.35-1.76-2.35s-1.79,1.22-1.79,2.39c0,1.35,.73,2.37,1.76,2.37,0,0,.01,0,.01,0Z"/><path class="cls-12" d="M327.12,115.07c0-.65-.01-1.16-.05-1.67h.94l.06,1h.02c.29-.57,.97-1.14,1.94-1.14,.81,0,2.07,.51,2.07,2.62v3.68h-1.07v-3.55c0-.99-.35-1.83-1.36-1.83-.69,0-1.24,.52-1.43,1.14-.05,.14-.07,.34-.07,.52v3.71h-1.07v-4.49h0Z"/><path class="cls-12" d="M333.7,118.43c.33,.2,.89,.43,1.42,.43,.76,0,1.13-.39,1.13-.92s-.3-.83-1.08-1.13c-1.07-.41-1.56-1-1.56-1.74,0-.99,.78-1.81,2.02-1.81,.59,0,1.12,.17,1.43,.38l-.25,.8c-.23-.14-.65-.36-1.2-.36-.63,0-.97,.38-.97,.84,0,.52,.34,.75,1.1,1.06,1.01,.39,1.54,.93,1.54,1.86,0,1.09-.81,1.86-2.18,1.86-.64,0-1.24-.18-1.65-.43l.25-.84Z"/></g><g><path class="cls-12" d="M259.98,142.39c-.28,.14-.89,.36-1.68,.36-1.77,0-2.92-1.26-2.92-3.15s1.24-3.28,3.15-3.28c.63,0,1.19,.17,1.48,.33l-.24,.85c-.25-.14-.65-.29-1.24-.29-1.34,0-2.07,1.06-2.07,2.34,0,1.42,.87,2.3,2.04,2.3,.61,0,1.01-.15,1.31-.29l.18,.84Z"/><path class="cls-12" d="M263.55,142.74c-1.58,0-2.81-1.22-2.81-3.17,0-2.06,1.3-3.27,2.91-3.27s2.82,1.28,2.82,3.15c0,2.29-1.51,3.28-2.91,3.28,0,0,0,0,0,0Zm.04-.84c1.02,0,1.78-1,1.78-2.4,0-1.04-.5-2.35-1.76-2.35s-1.79,1.22-1.79,2.39c0,1.35,.73,2.37,1.76,2.37,0,0,.01,0,.01,0Z"/><path class="cls-12" d="M267.82,138.11c0-.65-.03-1.16-.05-1.67h.93l.05,.99h.03c.33-.58,.87-1.13,1.86-1.13,.79,0,1.39,.51,1.65,1.23h.02c.18-.36,.43-.61,.67-.8,.35-.28,.73-.43,1.29-.43,.79,0,1.94,.53,1.94,2.67v3.62h-1.04v-3.48c0-1.2-.43-1.89-1.27-1.89-.62,0-1.08,.47-1.27,1-.05,.17-.08,.37-.08,.56v3.81h-1.04v-3.69c0-.99-.41-1.69-1.23-1.69-.65,0-1.15,.56-1.32,1.12-.06,.17-.09,.36-.09,.55v3.71h-1.04v-4.49h0Z"/><path class="cls-12" d="M277.93,138.46c0-.79-.01-1.42-.05-2.01h.96l.06,1.06h.02c.42-.76,1.13-1.2,2.07-1.2,1.43,0,2.5,1.26,2.5,3.13,0,2.21-1.3,3.31-2.67,3.31-.79,0-1.45-.36-1.81-.97h-.03v3.34h-1.07v-6.66Zm1.07,1.64c0,.15,.01,.32,.05,.46,.18,.78,.84,1.31,1.59,1.31,1.13,0,1.78-.97,1.78-2.38,0-1.23-.61-2.29-1.73-2.29-.73,0-1.42,.53-1.62,1.37-.03,.15-.06,.32-.06,.46v1.07Z"/><path class="cls-12" d="M288.96,141.13c0,.53,.03,1.06,.09,1.48h-.96l-.1-.78h-.04c-.31,.48-.96,.92-1.79,.92-1.19,0-1.79-.88-1.79-1.77,0-1.49,1.26-2.3,3.53-2.29v-.13c0-.51-.13-1.44-1.34-1.42-.56,0-1.13,.17-1.54,.46l-.24-.75c.48-.32,1.2-.53,1.94-.53,1.81,0,2.24,1.28,2.24,2.52v2.3h0Zm-1.04-1.67c-1.16-.03-2.48,.19-2.48,1.39,0,.74,.46,1.07,.99,1.07,.78,0,1.27-.51,1.44-1.03,.03-.11,.05-.24,.05-.36v-1.07Z"/><path class="cls-12" d="M291.92,134.97v1.48h1.53v.85h-1.53v3.32c0,.76,.21,1.2,.8,1.2,.29,0,.46-.03,.62-.08l.05,.85c-.21,.08-.53,.15-.94,.15-.5,0-.9-.18-1.15-.47-.29-.34-.41-.89-.41-1.62v-3.36h-.91v-.85h.91v-1.13l1.04-.34Z"/><path class="cls-12" d="M295.15,135.32c-.4,0-.67-.33-.67-.72s.28-.71,.69-.71,.68,.32,.68,.71-.27,.72-.69,.72h-.01Zm-.51,7.29v-6.15h1.07v6.15h-1.07Z"/><path class="cls-12" d="M297.48,133.57h1.07v3.85h.02c.38-.69,1.05-1.12,2-1.12,1.45,0,2.47,1.27,2.47,3.13,0,2.21-1.33,3.31-2.64,3.31-.85,0-1.51-.34-1.96-1.16h-.02l-.06,1.02h-.92c.03-.42,.05-1.04,.05-1.59v-7.44h0Zm1.07,6.56c0,.14,.01,.28,.03,.41,.21,.78,.84,1.31,1.6,1.31,1.13,0,1.78-.95,1.78-2.37,0-1.25-.61-2.3-1.75-2.3-.73,0-1.41,.53-1.61,1.37-.03,.14-.06,.29-.06,.47v1.11h0Z"/><path class="cls-12" d="M304.38,133.57h1.07v9.03h-1.07v-9.03Z"/><path class="cls-12" d="M307.82,139.72c.02,1.51,.93,2.14,2,2.14,.76,0,1.24-.14,1.62-.31l.2,.79c-.38,.18-1.03,.39-1.96,.39-1.79,0-2.88-1.26-2.88-3.1s1.05-3.33,2.76-3.33c1.92,0,2.41,1.77,2.41,2.9,0,.23-.01,.41-.03,.53h-4.11Zm3.11-.81c.01-.7-.28-1.82-1.47-1.82-1.09,0-1.55,1.04-1.64,1.82,0,0,3.1,0,3.1,0Z"/><path class="cls-12" d="M315.86,138.11c0-.65-.02-1.16-.05-1.67h.93l.05,.99h.04c.33-.58,.87-1.13,1.85-1.13,.79,0,1.39,.51,1.65,1.23h.03c.18-.36,.42-.61,.67-.8,.35-.28,.73-.43,1.29-.43,.79,0,1.94,.53,1.94,2.67v3.62h-1.04v-3.48c0-1.2-.42-1.89-1.27-1.89-.62,0-1.08,.47-1.27,1-.05,.17-.09,.37-.09,.56v3.81h-1.04v-3.69c0-.99-.41-1.69-1.22-1.69-.65,0-1.15,.56-1.32,1.12-.06,.17-.09,.36-.09,.55v3.71h-1.04v-4.49h0Z"/><path class="cls-12" d="M330.88,140.92c0,.64,.01,1.2,.05,1.68h-.95l-.06-1h-.03c-.27,.5-.9,1.14-1.94,1.14-.92,0-2.02-.55-2.02-2.7v-3.6h1.07v3.4c0,1.17,.35,1.97,1.31,1.97,.72,0,1.21-.52,1.41-1.03,.06-.15,.1-.36,.1-.57v-3.76h1.07v4.48h0Z"/><path class="cls-12" d="M333.93,134.97v1.48h1.53v.85h-1.53v3.32c0,.76,.21,1.2,.8,1.2,.29,0,.46-.03,.62-.08l.05,.85c-.21,.08-.53,.15-.94,.15-.5,0-.9-.18-1.15-.47-.29-.34-.41-.89-.41-1.62v-3.36h-.91v-.85h.91v-1.13l1.04-.34Z"/><path class="cls-12" d="M340.79,141.13c0,.53,.03,1.06,.08,1.48h-.96l-.1-.78h-.03c-.31,.48-.96,.92-1.79,.92-1.19,0-1.79-.88-1.79-1.77,0-1.49,1.26-2.3,3.53-2.29v-.13c0-.51-.13-1.44-1.33-1.42-.56,0-1.13,.17-1.54,.46l-.24-.75c.48-.32,1.2-.53,1.94-.53,1.81,0,2.24,1.28,2.24,2.52v2.3Zm-1.04-1.67c-1.16-.03-2.48,.19-2.48,1.39,0,.74,.46,1.07,.99,1.07,.78,0,1.27-.51,1.44-1.03,.03-.11,.05-.24,.05-.36v-1.07h0Z"/><path class="cls-12" d="M343.75,134.97v1.48h1.53v.85h-1.53v3.32c0,.76,.21,1.2,.8,1.2,.29,0,.46-.03,.62-.08l.05,.85c-.21,.08-.53,.15-.95,.15-.5,0-.9-.18-1.15-.47-.29-.34-.41-.89-.41-1.62v-3.36h-.91v-.85h.91v-1.13l1.04-.34Z"/><path class="cls-12" d="M346.99,135.32c-.4,0-.67-.33-.67-.72s.28-.71,.69-.71,.68,.32,.68,.71-.27,.72-.69,.72h-.01Zm-.51,7.29v-6.15h1.07v6.15h-1.07Z"/><path class="cls-12" d="M351.7,142.74c-1.58,0-2.81-1.22-2.81-3.17,0-2.06,1.3-3.27,2.91-3.27s2.82,1.28,2.82,3.15c0,2.29-1.51,3.28-2.91,3.28,0,0-.01,0-.01,0Zm.04-.84c1.02,0,1.78-1,1.78-2.4,0-1.04-.5-2.35-1.76-2.35s-1.79,1.22-1.79,2.39c0,1.35,.73,2.37,1.76,2.37,0,0,.01,0,.01,0Z"/><path class="cls-12" d="M355.97,138.11c0-.65-.01-1.16-.05-1.67h.94l.06,1h.02c.29-.57,.97-1.14,1.94-1.14,.81,0,2.07,.51,2.07,2.62v3.68h-1.07v-3.55c0-.99-.35-1.83-1.36-1.83-.69,0-1.24,.52-1.43,1.14-.05,.14-.07,.34-.07,.52v3.71h-1.07v-4.49h0Z"/><path class="cls-12" d="M362.55,141.47c.33,.2,.89,.43,1.42,.43,.76,0,1.13-.39,1.13-.92s-.3-.83-1.08-1.13c-1.07-.41-1.56-1-1.56-1.74,0-.99,.78-1.81,2.02-1.81,.59,0,1.12,.17,1.43,.38l-.25,.8c-.23-.14-.65-.36-1.2-.36-.63,0-.97,.38-.97,.84,0,.52,.34,.75,1.1,1.06,1.01,.39,1.54,.93,1.54,1.86,0,1.09-.81,1.86-2.18,1.86-.64,0-1.24-.18-1.65-.43l.25-.84Z"/></g><g><path class="cls-12" d="M255.79,149.24c0-.65-.01-1.16-.05-1.67h.95l.06,1h.03c.29-.57,.97-1.14,1.94-1.14,.81,0,2.07,.51,2.07,2.62v3.68h-1.07v-3.55c0-.99-.35-1.83-1.36-1.83-.69,0-1.24,.52-1.43,1.14-.05,.14-.07,.34-.07,.52v3.71h-1.07v-4.49h0Z"/><path class="cls-12" d="M264.91,153.87c-1.58,0-2.81-1.22-2.81-3.17,0-2.06,1.3-3.27,2.91-3.27s2.82,1.28,2.82,3.15c0,2.29-1.51,3.28-2.91,3.28h-.01Zm.03-.84c1.02,0,1.78-1,1.78-2.4,0-1.04-.5-2.35-1.76-2.35s-1.79,1.22-1.79,2.39c0,1.35,.73,2.37,1.76,2.37h.01Z"/><path class="cls-12" d="M271.75,149.24c0-.65-.03-1.16-.05-1.67h.93l.05,.99h.03c.33-.58,.87-1.13,1.86-1.13,.79,0,1.39,.51,1.65,1.23h.02c.18-.36,.43-.61,.67-.8,.35-.28,.73-.43,1.29-.43,.79,0,1.94,.53,1.94,2.67v3.62h-1.04v-3.48c0-1.2-.43-1.89-1.27-1.89-.62,0-1.08,.47-1.27,1-.05,.17-.08,.37-.08,.56v3.81h-1.04v-3.69c0-.99-.41-1.69-1.23-1.69-.65,0-1.15,.56-1.32,1.12-.06,.17-.09,.36-.09,.55v3.71h-1.04v-4.49h0Z"/><path class="cls-12" d="M286.77,152.05c0,.64,.01,1.2,.05,1.68h-.94l-.06-1h-.03c-.27,.5-.89,1.14-1.94,1.14-.92,0-2.03-.55-2.03-2.7v-3.6h1.07v3.4c0,1.17,.35,1.97,1.31,1.97,.71,0,1.21-.52,1.41-1.03,.06-.15,.1-.36,.1-.57v-3.76h1.07v4.48h0Z"/><path class="cls-12" d="M289.82,146.1v1.48h1.53v.85h-1.53v3.32c0,.76,.21,1.2,.8,1.2,.29,0,.46-.03,.62-.08l.05,.85c-.21,.08-.53,.15-.95,.15-.5,0-.9-.18-1.15-.47-.29-.34-.41-.89-.41-1.62v-3.36h-.91v-.85h.91v-1.13l1.04-.34Z"/><path class="cls-12" d="M296.68,152.26c0,.53,.02,1.06,.09,1.48h-.96l-.1-.78h-.03c-.31,.48-.96,.92-1.79,.92-1.19,0-1.79-.88-1.79-1.77,0-1.49,1.26-2.3,3.53-2.29v-.13c0-.51-.13-1.44-1.34-1.42-.56,0-1.13,.17-1.54,.46l-.24-.75c.48-.32,1.2-.53,1.94-.53,1.81,0,2.24,1.28,2.24,2.52v2.3h0Zm-1.04-1.67c-1.16-.03-2.49,.19-2.49,1.39,0,.74,.46,1.07,1,1.07,.77,0,1.27-.51,1.44-1.03,.04-.11,.05-.24,.05-.36v-1.07h0Z"/><path class="cls-12" d="M299.64,146.1v1.48h1.53v.85h-1.53v3.32c0,.76,.21,1.2,.8,1.2,.29,0,.46-.03,.62-.08l.05,.85c-.21,.08-.53,.15-.95,.15-.5,0-.9-.18-1.15-.47-.29-.34-.41-.89-.41-1.62v-3.36h-.91v-.85h.91v-1.13l1.04-.34Z"/><path class="cls-12" d="M302.88,146.44c-.4,0-.67-.33-.67-.72s.28-.71,.69-.71,.68,.32,.68,.71-.27,.72-.69,.72h-.01Zm-.51,7.29v-6.15h1.07v6.15h-1.07Z"/><path class="cls-12" d="M307.59,153.87c-1.58,0-2.81-1.22-2.81-3.17,0-2.06,1.3-3.27,2.91-3.27s2.82,1.28,2.82,3.15c0,2.29-1.51,3.28-2.91,3.28h0Zm.04-.84c1.02,0,1.78-1,1.78-2.4,0-1.04-.5-2.35-1.76-2.35s-1.79,1.22-1.79,2.39c0,1.35,.73,2.37,1.76,2.37h.01Z"/><path class="cls-12" d="M311.86,149.24c0-.65-.01-1.16-.05-1.67h.95l.06,1h.03c.29-.57,.97-1.14,1.94-1.14,.81,0,2.07,.51,2.07,2.62v3.68h-1.07v-3.55c0-.99-.35-1.83-1.36-1.83-.69,0-1.24,.52-1.43,1.14-.05,.14-.07,.34-.07,.52v3.71h-1.07v-4.49h0Z"/><path class="cls-12" d="M318.44,152.6c.33,.2,.89,.43,1.42,.43,.76,0,1.13-.39,1.13-.92s-.3-.83-1.08-1.13c-1.07-.41-1.56-1-1.56-1.74,0-.99,.77-1.81,2.02-1.81,.59,0,1.11,.17,1.43,.38l-.25,.8c-.23-.14-.65-.36-1.2-.36-.63,0-.97,.38-.97,.84,0,.52,.34,.75,1.1,1.06,1.01,.39,1.54,.93,1.54,1.86,0,1.09-.81,1.86-2.18,1.86-.64,0-1.24-.18-1.65-.43l.25-.84Z"/><path class="cls-12" d="M328.34,153.87c-1.58,0-2.81-1.22-2.81-3.17,0-2.06,1.3-3.27,2.91-3.27s2.82,1.28,2.82,3.15c0,2.29-1.51,3.28-2.91,3.28h-.01Zm.04-.84c1.02,0,1.78-1,1.78-2.4,0-1.04-.5-2.35-1.76-2.35s-1.79,1.22-1.79,2.39c0,1.35,.73,2.37,1.76,2.37h.01Z"/><path class="cls-12" d="M332.61,144.7h1.07v3.85h.03c.38-.69,1.05-1.12,2-1.12,1.45,0,2.47,1.27,2.47,3.13,0,2.21-1.33,3.31-2.64,3.31-.85,0-1.51-.34-1.96-1.16h-.03l-.06,1.02h-.92c.03-.42,.05-1.04,.05-1.59v-7.44h0Zm1.07,6.56c0,.14,.01,.28,.03,.41,.21,.78,.84,1.31,1.6,1.31,1.13,0,1.78-.95,1.78-2.37,0-1.25-.61-2.3-1.75-2.3-.73,0-1.41,.53-1.61,1.37-.03,.14-.06,.29-.06,.47v1.11h0Z"/><path class="cls-12" d="M339.36,152.6c.33,.2,.89,.43,1.42,.43,.76,0,1.13-.39,1.13-.92s-.3-.83-1.08-1.13c-1.07-.41-1.56-1-1.56-1.74,0-.99,.78-1.81,2.02-1.81,.59,0,1.11,.17,1.43,.38l-.25,.8c-.23-.14-.65-.36-1.2-.36-.63,0-.97,.38-.97,.84,0,.52,.34,.75,1.1,1.06,1.01,.39,1.54,.93,1.54,1.86,0,1.09-.81,1.86-2.18,1.86-.64,0-1.24-.18-1.65-.43l.25-.84Z"/><path class="cls-12" d="M344.92,150.84c.02,1.51,.93,2.14,2,2.14,.76,0,1.24-.14,1.62-.31l.19,.79c-.38,.18-1.03,.39-1.96,.39-1.79,0-2.89-1.26-2.89-3.1s1.05-3.33,2.76-3.33c1.92,0,2.41,1.77,2.41,2.9,0,.23-.01,.41-.04,.53h-4.11Zm3.12-.81c.01-.7-.28-1.82-1.47-1.82-1.09,0-1.55,1.04-1.64,1.82h3.1Z"/><path class="cls-12" d="M350.39,149.5c0-.72-.01-1.35-.05-1.92h.93l.05,1.21h.03c.27-.83,.92-1.35,1.64-1.35,.11,0,.19,.01,.29,.04v1.04c-.12-.01-.23-.03-.38-.03-.75,0-1.28,.6-1.43,1.42-.02,.17-.03,.34-.03,.53v3.28h-1.07v-4.23Z"/><path class="cls-12" d="M355.06,147.58l1.15,3.45c.19,.57,.35,1.08,.47,1.59h.03c.13-.51,.3-1.02,.5-1.59l1.14-3.45h1.11l-2.3,6.15h-1.02l-2.23-6.15h1.14Z"/><path class="cls-12" d="M360.97,150.84c.03,1.51,.93,2.14,2,2.14,.76,0,1.24-.14,1.62-.31l.19,.79c-.38,.18-1.03,.39-1.96,.39-1.79,0-2.89-1.26-2.89-3.1s1.06-3.33,2.76-3.33c1.92,0,2.41,1.77,2.41,2.9,0,.23-.01,.41-.03,.53h-4.11Zm3.11-.81c.01-.7-.28-1.82-1.47-1.82-1.09,0-1.55,1.04-1.64,1.82h3.1Z"/><path class="cls-12" d="M371.5,144.7v7.44c0,.55,.01,1.17,.05,1.59h-.96l-.05-1.07h-.03c-.33,.69-1.03,1.21-1.99,1.21-1.42,0-2.52-1.26-2.52-3.13-.01-2.06,1.21-3.31,2.63-3.31,.91,0,1.51,.45,1.77,.93h.02v-3.66h1.07Zm-1.07,5.38c0-.15-.01-.33-.05-.48-.16-.7-.74-1.28-1.54-1.28-1.1,0-1.76,1.02-1.76,2.37,0,1.26,.59,2.29,1.73,2.29,.71,0,1.37-.51,1.56-1.34,.03-.15,.05-.31,.05-.48v-1.07Z"/></g><rect class="cls-18" x="228.66" y="147.29" width="6.16" height="6.43"/><rect class="cls-18" x="243.25" y="147.29" width="6.16" height="6.43"/><rect class="cls-18" x="234.82" y="147.29" width="8.43" height="6.43"/><line class="cls-7" x1="239.04" y1="150.93" x2="239.04" y2="150.07"/><rect class="cls-10" x="243.25" y="124.96" width="6.43" height="6.16"/><rect class="cls-10" x="228.66" y="124.96" width="6.43" height="6.16"/><rect class="cls-10" x="235.09" y="124.96" width="8.16" height="6.16"/><line class="cls-3" x1="240.33" y1="128.04" x2="238.01" y2="128.04"/><rect class="cls-13" x="243.25" y="136.19" width="6.43" height="6.16"/><rect class="cls-13" x="228.66" y="136.19" width="6.43" height="6.16"/><rect class="cls-13" x="235.09" y="136.19" width="8.16" height="6.16"/><line class="cls-3" x1="240.33" y1="139.27" x2="238.01" y2="139.27"/><g><g><path class="cls-16" d="M246.15,242.16l1.15,3.45c.19,.57,.35,1.08,.47,1.59h.04c.13-.51,.3-1.02,.5-1.59l1.14-3.45h1.11l-2.3,6.15h-1.02l-2.23-6.15h1.14Z"/><path class="cls-16" d="M255.54,246.83c0,.54,.02,1.06,.08,1.48h-.96l-.1-.77h-.03c-.32,.48-.96,.91-1.79,.91-1.19,0-1.79-.88-1.79-1.77,0-1.49,1.26-2.3,3.53-2.29v-.13c0-.51-.13-1.44-1.33-1.42-.56,0-1.13,.17-1.54,.46l-.24-.75c.48-.32,1.2-.53,1.94-.53,1.81,0,2.24,1.29,2.24,2.52v2.3h0Zm-1.04-1.66c-1.16-.03-2.48,.19-2.48,1.38,0,.74,.46,1.07,1,1.07,.77,0,1.27-.51,1.44-1.03,.04-.11,.05-.24,.05-.36v-1.07h0Z"/><path class="cls-16" d="M257.26,244.08c0-.72-.01-1.35-.05-1.92h.93l.05,1.21h.03c.27-.83,.92-1.35,1.64-1.35,.11,0,.19,.01,.29,.04v1.04c-.12-.01-.23-.03-.38-.03-.75,0-1.28,.6-1.43,1.42-.02,.17-.03,.34-.03,.53v3.28h-1.07v-4.23Z"/><path class="cls-16" d="M261.78,241.02c-.4,0-.67-.33-.67-.72s.28-.71,.69-.71,.68,.32,.68,.71-.27,.72-.69,.72h-.01Zm-.51,7.29v-6.15h1.07v6.15h-1.07Z"/><path class="cls-16" d="M268.24,246.83c0,.54,.02,1.06,.08,1.48h-.96l-.1-.77h-.03c-.32,.48-.96,.91-1.79,.91-1.19,0-1.79-.88-1.79-1.77,0-1.49,1.26-2.3,3.53-2.29v-.13c0-.51-.13-1.44-1.33-1.42-.56,0-1.13,.17-1.54,.46l-.24-.75c.48-.32,1.2-.53,1.94-.53,1.81,0,2.24,1.29,2.24,2.52v2.3h0Zm-1.04-1.66c-1.16-.03-2.48,.19-2.48,1.38,0,.74,.46,1.07,1,1.07,.77,0,1.27-.51,1.44-1.03,.04-.11,.05-.24,.05-.36v-1.07h0Z"/><path class="cls-16" d="M269.94,239.28h1.07v3.85h.03c.38-.69,1.05-1.12,2-1.12,1.45,0,2.47,1.27,2.47,3.13,0,2.21-1.33,3.31-2.64,3.31-.85,0-1.51-.34-1.96-1.16h-.03l-.06,1.02h-.92c.03-.42,.05-1.04,.05-1.59v-7.44h0Zm1.07,6.56c0,.14,.01,.28,.03,.41,.21,.78,.84,1.31,1.6,1.31,1.13,0,1.78-.95,1.78-2.37,0-1.25-.61-2.3-1.75-2.3-.73,0-1.41,.53-1.61,1.37-.03,.14-.06,.29-.06,.47v1.11h0Z"/><path class="cls-16" d="M276.84,239.28h1.07v9.03h-1.07v-9.03Z"/><path class="cls-16" d="M280.29,245.42c.02,1.51,.93,2.14,2,2.14,.76,0,1.24-.14,1.62-.31l.2,.79c-.38,.18-1.03,.39-1.96,.39-1.79,0-2.88-1.26-2.88-3.1s1.05-3.33,2.76-3.33c1.92,0,2.41,1.77,2.41,2.9,0,.23-.01,.41-.03,.53h-4.11Zm3.11-.81c.01-.7-.28-1.82-1.47-1.82-1.09,0-1.55,1.04-1.64,1.82h3.1Z"/><path class="cls-16" d="M288.22,244.47v.82h-2.99v-.82h2.99Z"/><path class="cls-16" d="M289.47,239.28h1.07v9.03h-1.07v-9.03Z"/><path class="cls-16" d="M292.91,245.42c.03,1.51,.93,2.14,2,2.14,.76,0,1.24-.14,1.62-.31l.2,.79c-.38,.18-1.03,.39-1.96,.39-1.79,0-2.88-1.26-2.88-3.1s1.06-3.33,2.76-3.33c1.92,0,2.41,1.77,2.41,2.9,0,.23-.01,.41-.03,.53h-4.11Zm3.11-.81c.01-.7-.28-1.82-1.47-1.82-1.09,0-1.55,1.04-1.64,1.82h3.1Z"/><path class="cls-16" d="M298.38,243.82c0-.65-.01-1.16-.05-1.67h.94l.06,1.01h.03c.29-.57,.97-1.15,1.94-1.15,.81,0,2.07,.51,2.07,2.62v3.68h-1.07v-3.55c0-.99-.35-1.83-1.36-1.83-.69,0-1.24,.52-1.43,1.14-.05,.14-.07,.34-.07,.52v3.71h-1.07v-4.49h0Z"/><path class="cls-16" d="M310.13,247.41c0,1.42-.28,2.28-.84,2.82-.58,.55-1.41,.74-2.15,.74-.7,0-1.48-.18-1.95-.51l.27-.87c.38,.27,.99,.5,1.72,.5,1.09,0,1.89-.6,1.89-2.16v-.67h-.03c-.31,.57-.96,1.03-1.87,1.03-1.46,0-2.5-1.3-2.5-3.01,0-2.09,1.29-3.26,2.65-3.26,1.02,0,1.56,.55,1.83,1.06h.03l.04-.92h.94c-.03,.43-.05,.93-.05,1.68v3.57h0Zm-1.07-2.84c0-.18-.01-.34-.06-.5-.2-.66-.7-1.2-1.49-1.2-1.02,0-1.75,.9-1.75,2.34,0,1.2,.59,2.21,1.73,2.21,.67,0,1.26-.43,1.48-1.16,.06-.18,.08-.39,.08-.6v-1.11h0Z"/><path class="cls-16" d="M313.17,240.68v1.48h1.53v.85h-1.53v3.32c0,.76,.21,1.2,.8,1.2,.29,0,.46-.03,.62-.08l.05,.85c-.21,.08-.53,.15-.94,.15-.5,0-.9-.18-1.15-.47-.29-.34-.41-.89-.41-1.62v-3.36h-.91v-.85h.91v-1.13l1.04-.34Z"/><path class="cls-16" d="M315.9,239.28h1.07v3.84h.03c.17-.32,.43-.61,.76-.79,.31-.2,.69-.32,1.09-.32,.79,0,2.05,.51,2.05,2.63v3.66h-1.07v-3.54c0-1.01-.35-1.83-1.36-1.83-.69,0-1.22,.51-1.43,1.12-.06,.15-.07,.32-.07,.53v3.71h-1.07v-9.03h0Z"/><path class="cls-16" d="M325.05,247.18c.33,.2,.89,.43,1.42,.43,.76,0,1.13-.39,1.13-.92s-.3-.83-1.08-1.13c-1.07-.41-1.56-1.01-1.56-1.74,0-.99,.78-1.81,2.02-1.81,.59,0,1.11,.17,1.43,.38l-.25,.8c-.23-.14-.65-.36-1.2-.36-.63,0-.97,.38-.97,.84,0,.52,.34,.75,1.1,1.06,1.01,.39,1.54,.93,1.54,1.86,0,1.09-.81,1.86-2.18,1.86-.64,0-1.24-.18-1.65-.43l.25-.84Z"/><path class="cls-16" d="M331.28,240.68v1.48h1.53v.85h-1.53v3.32c0,.76,.21,1.2,.8,1.2,.29,0,.46-.03,.62-.08l.05,.85c-.21,.08-.53,.15-.95,.15-.5,0-.9-.18-1.15-.47-.29-.34-.41-.89-.41-1.62v-3.36h-.91v-.85h.91v-1.13l1.04-.34Z"/><path class="cls-16" d="M334.55,245.42c.03,1.51,.93,2.14,2,2.14,.76,0,1.24-.14,1.62-.31l.2,.79c-.38,.18-1.03,.39-1.96,.39-1.79,0-2.88-1.26-2.88-3.1s1.06-3.33,2.76-3.33c1.92,0,2.41,1.77,2.41,2.9,0,.23-.01,.41-.03,.53h-4.11Zm3.11-.81c.01-.7-.28-1.82-1.47-1.82-1.09,0-1.55,1.04-1.64,1.82h3.1Z"/><path class="cls-16" d="M340.02,243.82c0-.65-.03-1.16-.05-1.67h.93l.05,.99h.04c.33-.58,.87-1.13,1.85-1.13,.79,0,1.39,.51,1.65,1.23h.03c.18-.35,.43-.61,.67-.8,.35-.28,.73-.43,1.28-.43,.79,0,1.94,.53,1.94,2.67v3.62h-1.04v-3.48c0-1.2-.42-1.89-1.27-1.89-.62,0-1.08,.47-1.27,1-.05,.17-.08,.37-.08,.56v3.81h-1.04v-3.69c0-.99-.41-1.69-1.22-1.69-.65,0-1.15,.56-1.32,1.12-.06,.17-.08,.36-.08,.55v3.71h-1.04v-4.49Z"/><path class="cls-16" d="M352.6,244.47v.82h-3v-.82h3Z"/><path class="cls-16" d="M353.85,239.28h1.07v9.03h-1.07v-9.03Z"/><path class="cls-16" d="M359.08,248.45c-1.58,0-2.81-1.22-2.81-3.16,0-2.06,1.3-3.27,2.91-3.27s2.82,1.29,2.82,3.15c0,2.29-1.51,3.28-2.91,3.28h-.01Zm.04-.84c1.02,0,1.78-1,1.78-2.4,0-1.04-.5-2.35-1.76-2.35s-1.79,1.22-1.79,2.39c0,1.35,.73,2.37,1.76,2.37,0,0,.01,0,.01,0Z"/><path class="cls-16" d="M365.74,248.45c-1.57,0-2.81-1.22-2.81-3.16,0-2.06,1.29-3.27,2.91-3.27s2.82,1.29,2.82,3.15c0,2.29-1.51,3.28-2.91,3.28h-.01Zm.04-.84c1.02,0,1.78-1,1.78-2.4,0-1.04-.5-2.35-1.76-2.35s-1.79,1.22-1.79,2.39c0,1.35,.73,2.37,1.76,2.37,0,0,.01,0,.01,0Z"/><path class="cls-16" d="M370.01,244.16c0-.79-.01-1.42-.05-2.01h.96l.06,1.06h.03c.43-.76,1.13-1.2,2.07-1.2,1.43,0,2.5,1.26,2.5,3.13,0,2.21-1.3,3.31-2.67,3.31-.79,0-1.46-.36-1.81-.97h-.03v3.34h-1.07v-6.66h0Zm1.07,1.64c0,.15,.01,.32,.05,.46,.18,.78,.83,1.31,1.59,1.31,1.13,0,1.78-.96,1.78-2.38,0-1.23-.61-2.29-1.73-2.29-.73,0-1.42,.53-1.62,1.37-.03,.15-.06,.32-.06,.46v1.07h0Z"/></g><g><path class="cls-1" d="M241.39,249.73h-12.62c-2.49,4.32-8.02,5.8-12.34,3.31-4.32-2.5-5.8-8.02-3.3-12.34,2.49-4.32,8.02-5.8,12.34-3.31,1.37,.79,2.51,1.94,3.31,3.31h12.62"/><rect x="238.87" y="243.78" width="1.06" height="2.87"/><rect class="cls-4" x="238.87" y="243.78" width="1.06" height="2.87"/><rect x="233.56" y="243.78" width="1.06" height="2.87"/><rect class="cls-4" x="233.56" y="243.78" width="1.06" height="2.87"/><rect x="228.24" y="243.78" width="1.06" height="2.87"/><rect class="cls-4" x="228.24" y="243.78" width="1.06" height="2.87"/></g></g><g><line class="cls-5" x1="215.24" y1="264.67" x2="240.15" y2="264.67"/><rect class="cls-9" x="225.24" y="259.63" width="6.09" height="11.39"/><path class="cls-11" d="M227.53,267.76l-.03-.37c-.09-.77,.17-1.62,.89-2.48,.64-.76,1-1.31,1-1.94,0-.73-.46-1.23-1.36-1.23-.52,0-1.09,.16-1.44,.44l-.34-.9c.49-.36,1.29-.59,2.05-.59,1.64,0,2.39,1.03,2.39,2.12,0,.96-.54,1.67-1.23,2.47-.63,.75-.86,1.37-.82,2.1l.03,.37s-1.13,0-1.13,0Zm.53,2.89c-.49,0-.83-.38-.83-.89,0-.53,.36-.9,.84-.9,.52,0,.84,.37,.84,.9,0,.5-.33,.89-.84,.89h-.01Z"/><g><path d="M246.02,263.7c0-.79-.01-1.42-.05-2.01h1l.06,1.06h.03c.45-.76,1.18-1.2,2.17-1.2,1.5,0,2.62,1.26,2.62,3.13,0,2.21-1.36,3.31-2.8,3.31-.83,0-1.52-.36-1.89-.96h-.03v3.34h-1.12v-6.66Zm1.12,1.64c0,.15,.01,.32,.05,.46,.19,.78,.88,1.31,1.67,1.31,1.18,0,1.87-.97,1.87-2.38,0-1.23-.64-2.29-1.82-2.29-.76,0-1.49,.53-1.7,1.37-.03,.15-.06,.32-.06,.46v1.07h0Z"/><path d="M255.76,267.99c-1.65,0-2.95-1.22-2.95-3.17,0-2.06,1.36-3.27,3.05-3.27s2.96,1.28,2.96,3.15c0,2.29-1.59,3.28-3.05,3.28h-.01Zm.04-.84c1.07,0,1.87-1.01,1.87-2.41,0-1.04-.52-2.35-1.84-2.35s-1.88,1.22-1.88,2.39c0,1.35,.76,2.37,1.84,2.37h.01Z"/><path d="M260.08,266.72c.34,.2,.93,.43,1.49,.43,.8,0,1.18-.39,1.18-.92s-.32-.83-1.13-1.13c-1.12-.41-1.64-1-1.64-1.74,0-.99,.82-1.81,2.12-1.81,.62,0,1.17,.17,1.5,.38l-.27,.8c-.24-.14-.69-.36-1.26-.36-.66,0-1.02,.38-1.02,.84,0,.52,.36,.75,1.16,1.06,1.06,.39,1.62,.93,1.62,1.86,0,1.09-.85,1.86-2.29,1.86-.68,0-1.3-.18-1.73-.43l.27-.84Z"/><path d="M265.12,266.72c.34,.2,.93,.43,1.49,.43,.8,0,1.18-.39,1.18-.92s-.32-.83-1.13-1.13c-1.12-.41-1.64-1-1.64-1.74,0-.99,.82-1.81,2.12-1.81,.62,0,1.17,.17,1.5,.38l-.27,.8c-.24-.14-.69-.36-1.26-.36-.66,0-1.02,.38-1.02,.84,0,.52,.36,.75,1.16,1.06,1.06,.39,1.62,.93,1.62,1.86,0,1.09-.85,1.86-2.29,1.86-.68,0-1.3-.18-1.73-.43l.27-.84Z"/><path d="M270.84,260.56c-.42,0-.7-.33-.7-.72s.29-.71,.73-.71,.71,.32,.71,.71-.28,.72-.72,.72h-.01Zm-.53,7.29v-6.15h1.12v6.15h-1.12Z"/><path d="M273.28,258.82h1.12v3.85h.03c.39-.69,1.1-1.12,2.1-1.12,1.53,0,2.59,1.27,2.59,3.13,0,2.21-1.4,3.31-2.77,3.31-.89,0-1.59-.34-2.06-1.16h-.03l-.06,1.02h-.97c.04-.42,.05-1.04,.05-1.59v-7.44h0Zm1.12,6.56c0,.14,.01,.28,.04,.41,.21,.77,.88,1.31,1.68,1.31,1.18,0,1.87-.95,1.87-2.36,0-1.25-.63-2.3-1.83-2.3-.76,0-1.48,.53-1.69,1.37-.04,.14-.06,.29-.06,.47v1.11h0Z"/><path d="M280.52,258.82h1.12v9.03h-1.12v-9.03Z"/><path d="M284.13,264.96c.03,1.51,.98,2.14,2.1,2.14,.8,0,1.29-.14,1.7-.3l.21,.79c-.39,.18-1.08,.39-2.06,.39-1.88,0-3.02-1.26-3.02-3.1s1.1-3.33,2.9-3.33c2.01,0,2.53,1.77,2.53,2.9,0,.23-.01,.41-.04,.53h-4.31Zm3.26-.81c.02-.7-.29-1.82-1.54-1.82-1.15,0-1.63,1.04-1.72,1.82h3.25Z"/><path d="M292.56,258.82h1.12v3.85h.03c.39-.69,1.1-1.12,2.1-1.12,1.52,0,2.59,1.27,2.59,3.13,0,2.21-1.4,3.31-2.77,3.31-.89,0-1.59-.34-2.06-1.16h-.03l-.07,1.02h-.96c.04-.42,.05-1.04,.05-1.59v-7.44h0Zm1.12,6.56c0,.14,.01,.28,.04,.41,.22,.77,.88,1.31,1.68,1.31,1.18,0,1.87-.95,1.87-2.36,0-1.25-.64-2.3-1.83-2.3-.76,0-1.48,.53-1.69,1.37-.04,.14-.06,.29-.06,.47v1.11h0Z"/><path d="M304.13,266.37c0,.53,.03,1.06,.09,1.48h-1l-.1-.78h-.04c-.33,.48-1.01,.92-1.89,.92-1.24,0-1.88-.88-1.88-1.77,0-1.49,1.32-2.3,3.7-2.29v-.13c0-.51-.14-1.44-1.4-1.42-.58,0-1.18,.17-1.62,.46l-.25-.75c.51-.32,1.26-.53,2.04-.53,1.89,0,2.35,1.28,2.35,2.52v2.3h0Zm-1.09-1.67c-1.22-.03-2.61,.19-2.61,1.39,0,.74,.48,1.07,1.04,1.07,.82,0,1.34-.51,1.51-1.03,.04-.11,.05-.24,.05-.36v-1.07h0Z"/><path d="M305.77,266.72c.34,.2,.93,.43,1.49,.43,.8,0,1.18-.39,1.18-.92s-.32-.83-1.13-1.13c-1.12-.41-1.64-1-1.64-1.74,0-.99,.81-1.81,2.12-1.81,.62,0,1.17,.17,1.5,.38l-.27,.8c-.24-.14-.69-.36-1.26-.36-.66,0-1.02,.38-1.02,.84,0,.52,.36,.75,1.16,1.06,1.06,.39,1.62,.93,1.62,1.86,0,1.09-.85,1.86-2.29,1.86-.67,0-1.3-.18-1.73-.43l.27-.84Z"/><path d="M311.6,264.96c.03,1.51,.98,2.14,2.1,2.14,.8,0,1.3-.14,1.7-.3l.2,.79c-.39,.18-1.08,.39-2.06,.39-1.88,0-3.03-1.26-3.03-3.1s1.1-3.33,2.9-3.33c2.01,0,2.53,1.77,2.53,2.9,0,.23-.01,.41-.04,.53h-4.31Zm3.27-.81c.01-.7-.29-1.82-1.54-1.82-1.15,0-1.63,1.04-1.72,1.82h3.26Z"/><path d="M320.03,263.7c0-.79-.01-1.42-.05-2.01h1.01l.06,1.06h.03c.44-.76,1.18-1.2,2.17-1.2,1.5,0,2.62,1.26,2.62,3.13,0,2.21-1.36,3.31-2.8,3.31-.83,0-1.53-.36-1.9-.96h-.03v3.34h-1.12v-6.66Zm1.12,1.64c0,.15,.01,.32,.05,.46,.19,.78,.88,1.31,1.66,1.31,1.18,0,1.87-.97,1.87-2.38,0-1.23-.64-2.29-1.82-2.29-.76,0-1.49,.53-1.7,1.37-.03,.15-.07,.32-.07,.46v1.07h0Z"/><path d="M331.6,266.37c0,.53,.03,1.06,.09,1.48h-1.01l-.1-.78h-.04c-.33,.48-1.01,.92-1.88,.92-1.25,0-1.88-.88-1.88-1.77,0-1.49,1.32-2.3,3.7-2.29v-.13c0-.51-.14-1.44-1.4-1.42-.58,0-1.18,.17-1.62,.46l-.25-.75c.51-.32,1.26-.53,2.03-.53,1.9,0,2.35,1.28,2.35,2.52v2.3h0Zm-1.09-1.67c-1.22-.03-2.61,.19-2.61,1.39,0,.74,.48,1.07,1.04,1.07,.81,0,1.34-.51,1.51-1.03,.04-.11,.05-.24,.05-.36v-1.07h0Z"/><path d="M333.93,260.56c-.42,0-.7-.33-.7-.72s.29-.71,.72-.71,.71,.32,.71,.71-.28,.72-.73,.72h-.01Zm-.53,7.29v-6.15h1.12v6.15h-1.12Z"/><path d="M336.38,263.61c0-.72-.01-1.35-.05-1.92h.98l.05,1.21h.04c.28-.83,.96-1.35,1.71-1.35,.11,0,.21,.01,.31,.04v1.04c-.13-.01-.24-.03-.39-.03-.79,0-1.35,.6-1.5,1.42-.03,.17-.04,.34-.04,.53v3.28h-1.12v-4.23Z"/></g></g><g><path d="M127.11,277.97c.56-.11,1.37-.19,2.12-.19,1.18,0,1.96,.23,2.49,.71,.42,.37,.67,.95,.67,1.63,0,1.12-.72,1.87-1.62,2.18v.04c.65,.23,1.04,.84,1.26,1.73,.28,1.2,.48,2.02,.65,2.35h-1.14c-.14-.24-.33-.98-.56-2.05-.25-1.18-.72-1.63-1.73-1.66h-1.04v3.71h-1.11s0-8.44,0-8.44Zm1.11,3.89h1.13c1.18,0,1.93-.65,1.93-1.63,0-1.1-.8-1.59-1.97-1.59-.53,0-.9,.05-1.09,.1v3.11Z"/><path d="M136.19,282.13v-.76h6.56v.76h-6.56Zm0,2.49v-.76h6.56v.76h-6.56Z"/><path d="M148.3,283.72l-.89,2.7h-1.14l2.91-8.57h1.34l2.92,8.57h-1.18l-.92-2.7h-3.04Zm2.81-.86l-.85-2.47c-.18-.56-.31-1.07-.43-1.56h-.04c-.11,.5-.25,1.03-.42,1.55l-.84,2.48h2.58Z"/><path d="M159.86,286.56c-1.65,0-2.95-1.22-2.95-3.17,0-2.06,1.36-3.27,3.05-3.27s2.96,1.29,2.96,3.15c0,2.29-1.59,3.28-3.05,3.28h-.01Zm.04-.84c1.07,0,1.87-1,1.87-2.4,0-1.04-.52-2.35-1.84-2.35s-1.88,1.22-1.88,2.39c0,1.35,.76,2.36,1.84,2.36h.01Z"/><path d="M164.35,282.18c0-.73-.01-1.35-.05-1.92h.98l.05,1.21h.04c.28-.83,.97-1.35,1.72-1.35,.11,0,.2,.01,.31,.04v1.04c-.13-.01-.24-.03-.39-.03-.79,0-1.35,.6-1.5,1.42-.03,.17-.04,.34-.04,.53v3.28h-1.12v-4.23Z"/><path d="M177.77,286.04c-.5,.19-1.49,.47-2.65,.47-1.3,0-2.37-.33-3.2-1.13-.74-.71-1.2-1.86-1.2-3.19,0-2.55,1.77-4.43,4.64-4.43,.99,0,1.78,.22,2.15,.39l-.28,.9c-.46-.21-1.03-.37-1.89-.37-2.09,0-3.45,1.3-3.45,3.45s1.3,3.46,3.31,3.46c.72,0,1.22-.1,1.48-.23v-2.55h-1.73v-.89h2.82v4.12Z"/><path d="M179.88,286.56c-.43,0-.74-.34-.74-.8s.32-.8,.76-.8,.75,.33,.75,.8-.31,.8-.76,.8h-.01Z"/><path d="M186.68,286.42v-3.64l-2.72-4.93h1.27l1.21,2.37c.32,.65,.58,1.17,.85,1.77h.03c.23-.56,.53-1.12,.86-1.77l1.23-2.37h1.25l-2.86,4.92v3.65h-1.12Z"/><path d="M193.89,282.13v-.76h6.56v.76h-6.56Zm0,2.49v-.76h6.56v.76h-6.56Z"/><path d="M210.6,286.15c-.39,.2-1.22,.41-2.26,.41-2.42,0-4.22-1.53-4.22-4.35s1.82-4.5,4.48-4.5c1.06,0,1.74,.23,2.03,.38l-.28,.9c-.41-.21-1-.36-1.72-.36-2.01,0-3.34,1.29-3.34,3.54,0,2.11,1.21,3.45,3.28,3.45,.69,0,1.37-.14,1.82-.36l.22,.89Z"/><path d="M217.16,286.56c-1.65,0-2.95-1.22-2.95-3.17,0-2.06,1.36-3.27,3.05-3.27s2.96,1.29,2.96,3.15c0,2.29-1.59,3.28-3.05,3.28h-.01Zm.04-.84c1.07,0,1.87-1,1.87-2.4,0-1.04-.52-2.35-1.84-2.35s-1.88,1.22-1.88,2.39c0,1.35,.76,2.36,1.84,2.36h.01Z"/><path d="M221.65,282.18c0-.73-.01-1.35-.05-1.92h.98l.05,1.21h.04c.28-.83,.96-1.35,1.72-1.35,.11,0,.2,.01,.3,.04v1.04c-.13-.01-.24-.03-.39-.03-.79,0-1.35,.6-1.5,1.42-.03,.17-.04,.34-.04,.53v3.28h-1.12v-4.23Z"/><path d="M229.64,277.85v5.09c0,1.91,.85,2.72,2,2.72,1.26,0,2.09-.84,2.09-2.72v-5.09h1.12v5.01c0,2.63-1.39,3.7-3.24,3.7-1.75,0-3.08-.99-3.08-3.66v-5.05h1.12Z"/><path d="M237.19,286.56c-.43,0-.74-.34-.74-.8s.32-.8,.76-.8,.75,.33,.75,.8-.31,.8-.76,.8h-.01Z"/><path d="M241.57,280.72c.29-1.07,.84-2.44,1.18-3.03l.71-.08c-.27,.75-.61,2.06-.75,2.98l-1.14,.13Zm1.88,0c.29-1.07,.84-2.44,1.18-3.03l.71-.08c-.28,.75-.61,2.06-.75,2.98l-1.14,.13Z"/><path d="M246.59,277.96c.53-.1,1.23-.18,2.12-.18,1.09,0,1.89,.25,2.41,.71,.47,.41,.76,1.03,.76,1.79s-.23,1.38-.67,1.83c-.58,.62-1.54,.94-2.62,.94-.33,0-.63-.01-.89-.07v3.43h-1.11v-8.46Zm1.11,4.12c.24,.07,.56,.09,.91,.09,1.35,0,2.15-.66,2.15-1.82s-.8-1.69-2.02-1.69c-.48,0-.85,.05-1.04,.09v3.33h0Z"/><path d="M255.39,279.19h-.03l-1.44,.78-.22-.85,1.81-.97h.96v8.27h-1.08v-7.22h0Z"/><path d="M261.24,277.62c-.29,1.07-.84,2.44-1.18,3.03l-.71,.08c.28-.75,.61-2.06,.75-2.98l1.14-.13Zm1.88,0c-.29,1.07-.84,2.44-1.18,3.03l-.71,.08c.27-.75,.61-2.06,.75-2.98l1.14-.13Z"/><path d="M266.62,282.13v-.76h6.56v.76h-6.56Zm0,2.49v-.76h6.56v.76h-6.56Z"/><path d="M277.31,282.27c0-.79-.01-1.42-.05-2.01h1l.06,1.06h.03c.44-.76,1.18-1.2,2.17-1.2,1.5,0,2.62,1.26,2.62,3.13,0,2.21-1.36,3.31-2.8,3.31-.83,0-1.53-.36-1.89-.96h-.03v3.34h-1.12v-6.67Zm1.12,1.64c0,.15,.01,.32,.05,.46,.19,.78,.88,1.31,1.67,1.31,1.18,0,1.87-.96,1.87-2.38,0-1.23-.64-2.29-1.82-2.29-.76,0-1.49,.53-1.7,1.37-.03,.15-.06,.32-.06,.46v1.07Z"/><path d="M288.88,284.94c0,.53,.03,1.06,.09,1.48h-1l-.1-.78h-.04c-.33,.48-1.01,.92-1.88,.92-1.25,0-1.88-.88-1.88-1.77,0-1.49,1.32-2.3,3.7-2.29v-.13c0-.51-.14-1.44-1.4-1.42-.58,0-1.18,.17-1.62,.46l-.25-.75c.51-.32,1.26-.53,2.03-.53,1.89,0,2.35,1.29,2.35,2.52v2.3h0Zm-1.09-1.67c-1.22-.03-2.61,.19-2.61,1.39,0,.74,.48,1.07,1.04,1.07,.82,0,1.34-.51,1.51-1.03,.04-.11,.05-.24,.05-.36v-1.07h0Z"/><path d="M291.21,279.13c-.42,0-.7-.33-.7-.73s.29-.71,.72-.71,.71,.32,.71,.71-.28,.73-.72,.73h-.01Zm-.53,7.29v-6.16h1.12v6.16h-1.12Z"/><path d="M293.67,282.18c0-.73-.01-1.35-.05-1.92h.98l.05,1.21h.04c.28-.83,.96-1.35,1.72-1.35,.11,0,.21,.01,.31,.04v1.04c-.13-.01-.24-.03-.39-.03-.79,0-1.35,.6-1.5,1.42-.03,.17-.04,.34-.04,.53v3.28h-1.12v-4.23Z"/><path d="M298.34,279.13c-.42,0-.7-.33-.7-.73s.29-.71,.72-.71,.71,.32,.71,.71-.28,.73-.72,.73h-.01Zm-.53,7.29v-6.16h1.12v6.16h-1.12Z"/><path d="M300.78,281.93c0-.65-.01-1.16-.05-1.67h.99l.06,1.01h.03c.3-.57,1.02-1.15,2.03-1.15,.85,0,2.17,.51,2.17,2.62v3.68h-1.12v-3.55c0-.99-.37-1.83-1.42-1.83-.72,0-1.3,.52-1.5,1.15-.05,.14-.08,.34-.08,.52v3.71h-1.12v-4.49Z"/><path d="M313.11,285.51c0,1.42-.29,2.28-.88,2.82-.61,.55-1.48,.74-2.25,.74s-1.55-.18-2.05-.51l.28-.87c.41,.27,1.04,.5,1.81,.5,1.14,0,1.98-.6,1.98-2.16v-.67h-.03c-.33,.57-1,1.03-1.96,1.03-1.53,0-2.62-1.3-2.62-3.01,0-2.09,1.36-3.26,2.78-3.26,1.07,0,1.64,.55,1.92,1.06h.03l.04-.92h.99c-.04,.43-.05,.93-.05,1.68v3.57h0Zm-1.12-2.83c0-.18-.01-.34-.06-.5-.2-.66-.74-1.2-1.56-1.2-1.07,0-1.83,.9-1.83,2.34,0,1.2,.62,2.21,1.82,2.21,.7,0,1.32-.43,1.55-1.16,.06-.18,.09-.39,.09-.6v-1.1h0Z"/><path d="M320.98,283.53c.03,1.51,.98,2.14,2.1,2.14,.8,0,1.3-.14,1.7-.3l.2,.79c-.39,.18-1.08,.39-2.06,.39-1.88,0-3.03-1.26-3.03-3.1s1.11-3.33,2.9-3.33c2.01,0,2.53,1.77,2.53,2.9,0,.23-.01,.41-.04,.53h-4.31Zm3.27-.81c.01-.7-.29-1.82-1.54-1.82-1.15,0-1.63,1.04-1.72,1.82h3.26Z"/><path d="M326.72,277.39h1.12v9.03h-1.12v-9.03Z"/><path d="M330.33,283.53c.03,1.51,.98,2.14,2.1,2.14,.8,0,1.3-.14,1.7-.3l.2,.79c-.39,.18-1.08,.39-2.06,.39-1.88,0-3.03-1.26-3.03-3.1s1.11-3.33,2.9-3.33c2.01,0,2.53,1.77,2.53,2.9,0,.23-.01,.41-.04,.53h-4.31Zm3.27-.81c.01-.7-.29-1.82-1.54-1.82-1.15,0-1.63,1.04-1.72,1.82h3.26Z"/><path d="M336.06,281.93c0-.65-.03-1.16-.05-1.67h.98l.05,.99h.04c.34-.59,.92-1.13,1.95-1.13,.83,0,1.46,.51,1.73,1.24h.03c.19-.36,.45-.61,.7-.8,.37-.28,.76-.43,1.35-.43,.83,0,2.03,.53,2.03,2.67v3.63h-1.09v-3.49c0-1.2-.44-1.89-1.34-1.89-.65,0-1.13,.47-1.34,1.01-.05,.17-.09,.37-.09,.56v3.81h-1.09v-3.69c0-.99-.43-1.69-1.28-1.69-.69,0-1.21,.56-1.39,1.12-.06,.17-.09,.35-.09,.55v3.71h-1.09v-4.49h0Z"/><path d="M347.3,283.53c.03,1.51,.98,2.14,2.1,2.14,.8,0,1.3-.14,1.7-.3l.2,.79c-.39,.18-1.08,.39-2.06,.39-1.88,0-3.03-1.26-3.03-3.1s1.11-3.33,2.9-3.33c2.01,0,2.53,1.77,2.53,2.9,0,.23-.01,.41-.04,.53h-4.31Zm3.27-.81c.01-.7-.29-1.82-1.54-1.82-1.15,0-1.63,1.04-1.72,1.82h3.26Z"/><path d="M353.04,281.93c0-.65-.01-1.16-.05-1.67h.99l.06,1.01h.03c.3-.57,1.02-1.15,2.03-1.15,.85,0,2.17,.51,2.17,2.62v3.68h-1.12v-3.55c0-.99-.37-1.83-1.42-1.83-.72,0-1.3,.52-1.5,1.15-.05,.14-.08,.34-.08,.52v3.71h-1.12v-4.49Z"/><path d="M361.44,278.79v1.48h1.6v.85h-1.6v3.32c0,.76,.22,1.2,.84,1.2,.31,0,.48-.03,.65-.08l.05,.85c-.22,.07-.56,.15-.99,.15-.52,0-.94-.18-1.21-.47-.3-.34-.43-.89-.43-1.62v-3.36h-.96v-.85h.96v-1.13l1.09-.34Z"/><path d="M369.07,279.19h-.03l-1.44,.78-.22-.85,1.81-.97h.96v8.27h-1.08v-7.22h0Z"/><path d="M373.99,286.56c-.43,0-.74-.34-.74-.8s.32-.8,.76-.8,.75,.33,.75,.8-.31,.8-.76,.8h-.01Z"/></g><path class="cls-21" d="M91.77,139.21c-.5,.19-1.49,.47-2.65,.47-1.3,0-2.37-.33-3.2-1.13-.74-.71-1.2-1.86-1.2-3.19,0-2.56,1.77-4.43,4.64-4.43,.99,0,1.78,.22,2.15,.39l-.28,.9c-.46-.22-1.03-.37-1.89-.37-2.09,0-3.45,1.3-3.45,3.45s1.3,3.46,3.31,3.46c.72,0,1.22-.1,1.48-.23v-2.56h-1.73v-.89h2.82s0,4.12,0,4.12Z"/><path class="cls-8" d="M95.26,129.16l-.89,2.7h-1.14l2.91-8.57h1.34l2.92,8.57h-1.18l-.92-2.7h-3.04Zm2.81-.86l-.85-2.47c-.18-.56-.31-1.07-.43-1.56h-.04c-.11,.5-.25,1.03-.42,1.55l-.84,2.48h2.58Z"/><path class="cls-8" d="M105.59,124.22l-.89,2.7h-1.14l2.91-8.57h1.34l2.92,8.57h-1.18l-.92-2.7h-3.04Zm2.81-.86l-.85-2.47c-.18-.56-.31-1.07-.43-1.56h-.04c-.11,.5-.25,1.03-.42,1.55l-.84,2.48h2.58Z"/><path d="M127.72,118.34v5.09c0,1.91,.85,2.72,2,2.72,1.26,0,2.09-.84,2.09-2.72v-5.09h1.12v5.01c0,2.63-1.39,3.7-3.24,3.7-1.75,0-3.08-.99-3.08-3.66v-5.05s1.12,0,1.12,0Z"/><path class="cls-8" d="M136.96,127.57l-.89,2.7h-1.14l2.91-8.57h1.34l2.92,8.57h-1.18l-.92-2.7h-3.04Zm2.81-.86l-.85-2.47c-.18-.56-.31-1.07-.43-1.56h-.04c-.11,.5-.25,1.03-.42,1.55l-.84,2.48h2.58Z"/><path d="M160.17,168.38c-.5,.19-1.49,.47-2.65,.47-1.3,0-2.37-.33-3.2-1.13-.74-.71-1.2-1.86-1.2-3.19,0-2.56,1.77-4.43,4.64-4.43,.99,0,1.78,.22,2.15,.39l-.28,.9c-.46-.22-1.03-.37-1.89-.37-2.09,0-3.45,1.3-3.45,3.45s1.3,3.46,3.31,3.46c.72,0,1.22-.1,1.48-.23v-2.56h-1.73v-.89h2.82v4.12Z"/><path d="M145.91,186.7l-.89,2.7h-1.14l2.91-8.57h1.34l2.92,8.57h-1.18l-.92-2.7h-3.04Zm2.81-.86l-.85-2.47c-.18-.56-.31-1.07-.43-1.56h-.04c-.11,.5-.25,1.03-.42,1.55l-.84,2.48h2.58Z"/><path class="cls-8" d="M142.09,196.39c-.5,.19-1.49,.47-2.65,.47-1.3,0-2.37-.33-3.2-1.13-.74-.71-1.2-1.86-1.2-3.19,0-2.55,1.77-4.43,4.64-4.43,.99,0,1.78,.22,2.15,.39l-.28,.9c-.46-.22-1.03-.37-1.89-.37-2.09,0-3.45,1.3-3.45,3.45s1.3,3.46,3.31,3.46c.72,0,1.22-.1,1.48-.23v-2.56h-1.73v-.89h2.82v4.12Z"/><g><path d="M170.41,246.49c.32,.19,1.04,.51,1.83,.51,1.42,0,1.88-.9,1.87-1.6-.01-1.16-1.06-1.65-2.14-1.65h-.62v-.84h.62c.81,0,1.84-.42,1.84-1.4,0-.66-.42-1.24-1.45-1.24-.66,0-1.3,.29-1.65,.55l-.31-.81c.45-.32,1.28-.64,2.17-.64,1.63,0,2.37,.96,2.37,1.97,0,.86-.52,1.59-1.53,1.96v.03c1.02,.19,1.84,.95,1.84,2.11,0,1.32-1.04,2.48-3.01,2.48-.93,0-1.74-.29-2.15-.56l.31-.85Z"/><path d="M176.54,242.06c.29-1.07,.84-2.44,1.18-3.03l.71-.07c-.27,.75-.61,2.06-.75,2.97l-1.14,.13Z"/></g><line class="cls-1" x1="152.74" y1="243.05" x2="169.39" y2="243.05"/><path class="cls-5" d="M90.81,143.43c1.71-2.58,3.67-4.98,5.87-7.15"/><polyline class="cls-5" points="93.34 139.69 140.17 175.65 140.17 181.81"/><line class="cls-5" x1="140.17" y1="200.68" x2="140.17" y2="235.7"/><rect class="cls-14" x="135.93" y="238.47" width="8.21" height="8.57"/><line class="cls-5" x1="134.55" y1="235.7" x2="145.78" y2="235.7"/><path class="cls-21" d="M143.29,246.77c-.39,.2-1.22,.41-2.26,.41-2.42,0-4.22-1.53-4.22-4.35s1.82-4.5,4.48-4.5c1.06,0,1.74,.23,2.03,.38l-.28,.9c-.41-.21-1-.36-1.72-.36-2.01,0-3.34,1.29-3.34,3.54,0,2.11,1.21,3.45,3.28,3.45,.69,0,1.37-.14,1.82-.36l.22,.89Z"/><g><line class="cls-5" x1="123.52" y1="145" x2="148.72" y2="172.15"/><line class="cls-5" x1="117.36" y1="127.12" x2="118.08" y2="131.9"/><g><path class="cls-11" d="M109.34,139.32h-3.73v3.48h4.18v1.04h-5.44v-9.64h5.22v1.04h-3.96v3.05h3.73s0,1.03,0,1.03Z"/><path class="cls-11" d="M114.28,139.52v.92h-3.53v-.92h3.53Z"/><path class="cls-11" d="M115.75,133.68h1.26v10.16h-1.26v-10.16Z"/><path class="cls-11" d="M121.92,144c-1.86,0-3.32-1.37-3.32-3.56,0-2.32,1.53-3.68,3.43-3.68s3.33,1.44,3.33,3.55c0,2.58-1.79,3.69-3.43,3.69,0,0-.01,0-.01,0Zm.04-.94c1.2,0,2.1-1.13,2.1-2.7,0-1.17-.59-2.65-2.07-2.65s-2.12,1.37-2.12,2.69c0,1.52,.86,2.66,2.07,2.66h.01Z"/><path class="cls-11" d="M129.79,144c-1.86,0-3.32-1.37-3.32-3.56,0-2.32,1.53-3.68,3.43-3.68s3.33,1.44,3.33,3.55c0,2.58-1.79,3.69-3.43,3.69,0,0-.01,0-.01,0Zm.04-.94c1.2,0,2.1-1.13,2.1-2.7,0-1.17-.59-2.65-2.07-2.65s-2.12,1.37-2.12,2.69c0,1.52,.86,2.66,2.07,2.66h.01Z"/><path class="cls-11" d="M134.82,139.18c0-.89-.01-1.6-.06-2.26h1.13l.07,1.19h.03c.5-.86,1.33-1.34,2.45-1.34,1.69,0,2.95,1.42,2.95,3.52,0,2.49-1.53,3.72-3.15,3.72-.93,0-1.72-.4-2.13-1.09h-.03v3.76h-1.26v-7.5h0Zm1.26,1.85c0,.17,.01,.36,.06,.52,.21,.87,.99,1.47,1.87,1.47,1.33,0,2.1-1.09,2.1-2.68,0-1.39-.72-2.58-2.05-2.58-.86,0-1.67,.6-1.92,1.55-.03,.17-.07,.36-.07,.52v1.2Z"/></g></g><g><path d="M85,229.7c.6-.11,1.39-.2,2.39-.2,1.23,0,2.13,.29,2.7,.8,.53,.46,.86,1.16,.86,2.02s-.26,1.56-.76,2.06c-.66,.7-1.73,1.06-2.95,1.06-.37,0-.72-.01-1-.08v3.86h-1.24s0-9.52,0-9.52Zm1.24,4.64c.27,.07,.63,.1,1.03,.1,1.52,0,2.42-.75,2.42-2.05s-.9-1.9-2.27-1.9c-.54,0-.96,.06-1.17,.1v3.75Z"/><path d="M94.9,231.09h-.03l-1.62,.87-.24-.96,2.03-1.09h1.07v9.3h-1.22v-8.13Z"/></g><g><path d="M49.42,157.92c.6-.11,1.39-.2,2.39-.2,1.23,0,2.13,.29,2.7,.8,.53,.46,.86,1.16,.86,2.02s-.26,1.56-.76,2.06c-.66,.7-1.73,1.06-2.95,1.06-.37,0-.72-.01-1-.09v3.86h-1.24s0-9.51,0-9.51Zm1.24,4.64c.27,.07,.63,.1,1.03,.1,1.52,0,2.42-.74,2.42-2.05s-.9-1.9-2.27-1.9c-.54,0-.96,.06-1.17,.1v3.75Z"/><path d="M56.58,167.44v-.77l.99-.96c2.37-2.26,3.46-3.46,3.46-4.86,0-.94-.44-1.82-1.83-1.82-.84,0-1.55,.43-1.97,.79l-.4-.89c.63-.53,1.56-.94,2.63-.94,1.99,0,2.83,1.37,2.83,2.7,0,1.72-1.24,3.1-3.2,4.99l-.73,.69v.03h4.16v1.04s-5.94,0-5.94,0Z"/></g><g><path d="M159.93,107.66c.6-.11,1.39-.2,2.39-.2,1.23,0,2.13,.29,2.7,.8,.53,.46,.86,1.16,.86,2.02s-.26,1.56-.76,2.06c-.66,.7-1.73,1.06-2.95,1.06-.37,0-.72-.01-1-.09v3.86h-1.24s0-9.51,0-9.51Zm1.24,4.64c.27,.07,.63,.1,1.03,.1,1.52,0,2.42-.74,2.42-2.05s-.9-1.9-2.27-1.9c-.54,0-.96,.06-1.17,.1,0,0,0,3.75,0,3.75Z"/><path d="M167.4,115.74c.36,.21,1.17,.57,2.06,.57,1.6,0,2.12-1.02,2.1-1.8-.01-1.3-1.19-1.86-2.4-1.86h-.7v-.94h.7c.92,0,2.07-.47,2.07-1.57,0-.74-.47-1.4-1.63-1.4-.74,0-1.46,.33-1.86,.62l-.34-.92c.5-.36,1.44-.72,2.45-.72,1.83,0,2.66,1.09,2.66,2.22,0,.97-.59,1.79-1.72,2.2v.03c1.14,.21,2.07,1.07,2.07,2.37,0,1.49-1.17,2.79-3.39,2.79-1.04,0-1.96-.33-2.42-.63l.34-.96Z"/></g><g><path d="M91.23,251.16h-3.15l-.32,2.1c.19-.03,.37-.05,.67-.05,.65,0,1.27,.14,1.78,.44,.65,.36,1.18,1.08,1.18,2.15,0,1.62-1.28,2.82-3.08,2.82-.9,0-1.65-.25-2.06-.51l.28-.85c.34,.2,1.02,.46,1.78,.46,1.04,0,1.96-.69,1.95-1.81,0-1.09-.72-1.84-2.37-1.84-.48,0-.85,.04-1.16,.09l.53-3.94h3.95v.94h0Z"/><path d="M92.7,252.79c.29-1.07,.84-2.44,1.18-3.03l.71-.08c-.27,.75-.61,2.06-.75,2.98l-1.14,.13Z"/></g><rect class="cls-24" x="104.61" y="238.47" width="27.67" height="8.57"/><rect x="115.35" y="241.61" width="6.18" height="2.29"/><rect class="cls-15" x="104.61" y="227.02" width="27.67" height="8.57"/><rect x="115.35" y="230.16" width="6.18" height="2.29"/><rect class="cls-24" x="104.61" y="215.58" width="27.67" height="8.57"/><rect x="115.35" y="218.72" width="6.18" height="2.29"/><rect class="cls-15" x="104.61" y="204.13" width="27.67" height="8.57"/><rect x="115.35" y="207.28" width="6.18" height="2.29"/><rect class="cls-14" x="104.61" y="192.69" width="27.67" height="8.57"/><rect x="115.35" y="195.83" width="6.18" height="2.29"/><rect class="cls-14" x="80.32" y="161.02" width="9.46" height="30.81" transform="translate(-70.35 57.22) rotate(-26.77)"/><rect x="83.91" y="173.33" width="2.29" height="6.18" transform="translate(-70.32 57.18) rotate(-26.76)"/><rect class="cls-14" x="70.1" y="166.18" width="9.46" height="30.81" transform="translate(-73.78 53.18) rotate(-26.78)"/><rect x="73.69" y="178.49" width="2.29" height="6.18" transform="translate(-73.78 53.18) rotate(-26.78)"/><rect class="cls-14" x="59.89" y="171.33" width="9.46" height="30.81" transform="translate(-77.2 49.13) rotate(-26.78)"/><rect x="63.47" y="183.64" width="2.29" height="6.18" transform="translate(-77.16 49.1) rotate(-26.76)"/><rect class="cls-14" x="158.23" y="124.13" width="9.46" height="30.65" transform="translate(-42.97 79.48) rotate(-24.32)"/><rect x="161.81" y="136.38" width="2.29" height="6.18" transform="translate(-42.98 79.5) rotate(-24.32)"/><path class="cls-8" d="M111.97,246.77c-.39,.21-1.22,.41-2.26,.41-2.42,0-4.22-1.52-4.22-4.35s1.82-4.5,4.48-4.5c1.06,0,1.74,.23,2.03,.38l-.28,.9c-.41-.2-1-.35-1.72-.35-2.01,0-3.34,1.28-3.34,3.53,0,2.11,1.21,3.45,3.28,3.45,.69,0,1.37-.14,1.82-.35l.22,.89Z"/><path class="cls-8" d="M112.11,235.21c-.5,.19-1.49,.47-2.65,.47-1.3,0-2.37-.33-3.2-1.13-.74-.71-1.2-1.86-1.2-3.19,0-2.55,1.77-4.43,4.64-4.43,.99,0,1.78,.22,2.15,.39l-.28,.9c-.46-.21-1.03-.37-1.89-.37-2.09,0-3.45,1.3-3.45,3.45s1.3,3.46,3.31,3.46c.72,0,1.22-.1,1.48-.23v-2.55h-1.73v-.89h2.82v4.12Z"/><path class="cls-8" d="M106.67,215.58v5.09c0,1.91,.85,2.72,2,2.72,1.26,0,2.09-.84,2.09-2.72v-5.09h1.12v5.01c0,2.63-1.39,3.7-3.24,3.7-1.75,0-3.08-.99-3.08-3.66v-5.05h1.12Z"/><path class="cls-8" d="M106.67,204.13v5.09c0,1.91,.85,2.72,2,2.72,1.26,0,2.09-.84,2.09-2.72v-5.09h1.12v5.01c0,2.63-1.39,3.7-3.24,3.7-1.75,0-3.08-.99-3.08-3.66v-5.05h1.12Z"/><path d="M111.97,200.99c-.39,.2-1.22,.41-2.26,.41-2.42,0-4.22-1.53-4.22-4.35s1.82-4.5,4.48-4.5c1.06,0,1.74,.23,2.03,.38l-.28,.9c-.41-.2-1-.36-1.72-.36-2.01,0-3.34,1.28-3.34,3.54,0,2.11,1.21,3.45,3.28,3.45,.69,0,1.37-.14,1.82-.36l.22,.89Z"/><path class="cls-8" d="M96.65,194.07l-.89,2.7h-1.14l2.91-8.57h1.34l2.92,8.57h-1.18l-.92-2.7h-3.04Zm2.81-.86l-.85-2.47c-.18-.56-.31-1.07-.43-1.56h-.04c-.11,.5-.25,1.03-.42,1.55l-.84,2.48h2.58Z"/><circle class="cls-8" cx="89.44" cy="185.11" r="3.54"/><circle class="cls-3" cx="89.44" cy="185.11" r="3.54"/><path class="cls-21" d="M82.47,194.28c-.39,.2-1.22,.41-2.26,.41-2.42,0-4.22-1.53-4.22-4.35s1.82-4.5,4.48-4.5c1.06,0,1.74,.23,2.03,.38l-.28,.9c-.41-.2-1-.36-1.72-.36-2.01,0-3.34,1.28-3.34,3.54,0,2.11,1.21,3.45,3.28,3.45,.69,0,1.37-.14,1.82-.36l.22,.89Z"/><path d="M68.43,199.71v-3.64l-2.72-4.93h1.27l1.21,2.36c.32,.65,.58,1.17,.85,1.77h.03c.23-.56,.53-1.12,.86-1.77l1.23-2.36h1.25l-2.86,4.92v3.65h-1.12Z"/><g><rect x="53.37" y="189.28" width="2.29" height="6.18" transform="translate(-80.77 45.14) rotate(-26.76)"/><rect x="43.15" y="194.44" width="2.29" height="6.18" transform="translate(-84.27 41.16) rotate(-26.79)"/><path class="cls-1" d="M62.72,199.13l-14.04,7.08c-1.63,8.7-10,14.43-18.7,12.8-8.7-1.63-14.43-10-12.8-18.7,1.63-8.7,10-14.43,18.7-12.8,1.4,.26,2.75,.71,4.03,1.33l14.04-7.08"/></g><path d="M57.78,173.89c.56-.11,1.37-.19,2.12-.19,1.18,0,1.96,.23,2.49,.71,.42,.37,.67,.96,.67,1.63,0,1.12-.72,1.87-1.62,2.17v.04c.65,.23,1.04,.84,1.26,1.73,.28,1.2,.48,2.02,.65,2.35h-1.14c-.14-.24-.33-.98-.56-2.05-.25-1.18-.72-1.63-1.73-1.67h-1.04v3.71h-1.11v-8.44Zm1.11,3.89h1.13c1.18,0,1.93-.65,1.93-1.63,0-1.11-.8-1.59-1.97-1.59-.53,0-.9,.05-1.09,.1v3.12Z"/><path class="cls-21" d="M73.85,176.8c-.5,.19-1.49,.47-2.65,.47-1.3,0-2.37-.33-3.2-1.13-.74-.71-1.2-1.86-1.2-3.19,0-2.56,1.77-4.43,4.64-4.43,.99,0,1.78,.22,2.15,.39l-.28,.9c-.46-.22-1.03-.37-1.89-.37-2.09,0-3.45,1.3-3.45,3.44s1.3,3.46,3.31,3.46c.72,0,1.22-.1,1.48-.23v-2.56h-1.73v-.89h2.82s0,4.12,0,4.12Z"/><circle class="cls-8" cx="80.67" cy="167.74" r="3.54"/><circle class="cls-3" cx="80.67" cy="167.74" r="3.54"/><path class="cls-8" d="M83.19,160.33c-.39,.2-1.22,.41-2.26,.41-2.42,0-4.22-1.53-4.22-4.35s1.82-4.5,4.48-4.5c1.06,0,1.74,.23,2.03,.38l-.28,.9c-.41-.2-1-.36-1.72-.36-2.01,0-3.34,1.28-3.34,3.54,0,2.11,1.21,3.45,3.28,3.45,.69,0,1.37-.14,1.82-.36l.22,.89Z"/><path class="cls-8" d="M85.98,149.09c-.5,.19-1.49,.47-2.65,.47-1.3,0-2.37-.33-3.2-1.13-.74-.71-1.2-1.86-1.2-3.19,0-2.56,1.77-4.43,4.64-4.43,.99,0,1.78,.22,2.15,.39l-.28,.9c-.46-.22-1.03-.37-1.89-.37-2.09,0-3.45,1.3-3.45,3.45s1.3,3.46,3.31,3.46c.72,0,1.22-.1,1.48-.23v-2.56h-1.73v-.89h2.82s0,4.12,0,4.12Z"/><path class="cls-21" d="M156.49,126.44c.56-.11,1.37-.19,2.12-.19,1.18,0,1.96,.23,2.49,.71,.42,.37,.67,.95,.67,1.63,0,1.12-.72,1.87-1.62,2.17v.04c.65,.23,1.04,.84,1.26,1.73,.28,1.2,.48,2.02,.65,2.35h-1.14c-.14-.24-.33-.98-.56-2.05-.25-1.18-.72-1.63-1.73-1.67h-1.04v3.71h-1.11s0-8.44,0-8.44Zm1.11,3.89h1.13c1.18,0,1.93-.65,1.93-1.63,0-1.11-.8-1.59-1.97-1.59-.53,0-.9,.05-1.09,.1v3.12Z"/><line class="cls-1" x1="165.47" y1="127.65" x2="179.8" y2="121.17"/><line class="cls-1" x1="173.48" y1="145.38" x2="187.82" y2="138.9"/><rect x="172.24" y="131.66" width="2.29" height="6.18" transform="translate(-40.11 83.38) rotate(-24.32)"/><rect x="182.67" y="126.94" width="2.29" height="6.18" transform="translate(-37.24 87.23) rotate(-24.32)"/><path class="cls-1" d="M179.8,121.17c2-8.62,10.61-13.99,19.23-11.99,8.62,2,13.99,10.61,11.99,19.23-2,8.62-10.61,13.99-19.23,11.99-1.39-.32-2.72-.82-3.97-1.5"/><path d="M181,121.17c0,.66-.53,1.19-1.19,1.19s-1.19-.53-1.19-1.19,.53-1.19,1.19-1.19,1.19,.53,1.19,1.19"/><path d="M189.01,138.9c0,.66-.53,1.19-1.19,1.19s-1.19-.53-1.19-1.19,.53-1.19,1.19-1.19,1.19,.53,1.19,1.19"/><path class="cls-21" d="M166.39,152.61v-3.64l-2.72-4.93h1.27l1.21,2.37c.32,.65,.58,1.17,.85,1.77h.03c.23-.56,.53-1.12,.86-1.77l1.23-2.37h1.25l-2.86,4.92v3.65h-1.12Z"/><path d="M131.57,200.88c-.5,.19-1.49,.47-2.65,.47-1.3,0-2.37-.33-3.2-1.13-.74-.71-1.2-1.86-1.2-3.19,0-2.55,1.77-4.43,4.64-4.43,.99,0,1.78,.22,2.15,.39l-.28,.9c-.46-.22-1.03-.37-1.89-.37-2.09,0-3.45,1.3-3.45,3.45s1.3,3.46,3.31,3.46c.72,0,1.22-.1,1.48-.23v-2.56h-1.73v-.89h2.82v4.12Z"/><path class="cls-8" d="M126.63,210.01l-.89,2.7h-1.14l2.91-8.57h1.34l2.92,8.57h-1.18l-.92-2.7h-3.04Zm2.81-.86l-.85-2.47c-.18-.56-.31-1.07-.43-1.56h-.04c-.11,.5-.25,1.03-.42,1.55l-.84,2.48h2.58Z"/><path class="cls-8" d="M126.63,221.45l-.89,2.69h-1.14l2.91-8.57h1.34l2.92,8.57h-1.18l-.92-2.69h-3.04Zm2.81-.87l-.85-2.47c-.18-.56-.31-1.07-.43-1.56h-.04c-.11,.5-.25,1.03-.42,1.55l-.84,2.48h2.58Z"/><path class="cls-8" d="M131.43,235.33c-.39,.2-1.22,.41-2.26,.41-2.42,0-4.22-1.53-4.22-4.35s1.82-4.5,4.48-4.5c1.06,0,1.74,.23,2.03,.38l-.28,.9c-.41-.21-1-.36-1.72-.36-2.01,0-3.34,1.29-3.34,3.54,0,2.11,1.21,3.45,3.28,3.45,.69,0,1.37-.14,1.82-.36l.22,.89Z"/><path class="cls-8" d="M131.57,246.66c-.5,.19-1.49,.47-2.65,.47-1.3,0-2.37-.33-3.2-1.13-.74-.71-1.2-1.86-1.2-3.19,0-2.55,1.77-4.42,4.64-4.42,.99,0,1.78,.22,2.15,.39l-.28,.9c-.46-.22-1.03-.37-1.89-.37-2.09,0-3.45,1.3-3.45,3.45s1.3,3.46,3.31,3.46c.72,0,1.22-.1,1.48-.23v-2.55h-1.73v-.89h2.82v4.12Z"/><path d="M146.75,238.6c.56-.11,1.37-.19,2.12-.19,1.18,0,1.96,.23,2.49,.71,.42,.37,.67,.96,.67,1.63,0,1.12-.72,1.87-1.62,2.17v.04c.65,.23,1.04,.84,1.26,1.73,.28,1.2,.48,2.02,.65,2.35h-1.14c-.14-.24-.33-.98-.56-2.05-.25-1.18-.72-1.63-1.73-1.67h-1.04v3.71h-1.11s0-8.44,0-8.44Zm1.11,3.89h1.13c1.18,0,1.93-.65,1.93-1.63,0-1.11-.8-1.59-1.97-1.59-.53,0-.9,.05-1.09,.1v3.12Z"/><line class="cls-1" x1="97.27" y1="254.2" x2="104.9" y2="254.2"/><path class="cls-1" d="M108.71,250.38c0,2.11-1.71,3.81-3.81,3.81"/><rect class="cls-14" x="147.79" y="128.86" width="9.46" height="30.65" transform="translate(-45.85 75.62) rotate(-24.32)"/><rect x="151.38" y="141.09" width="2.29" height="6.18" transform="translate(-45.85 75.63) rotate(-24.32)"/><path d="M146.06,131.15c.56-.11,1.37-.19,2.12-.19,1.18,0,1.96,.23,2.49,.71,.42,.37,.67,.95,.67,1.63,0,1.12-.72,1.87-1.62,2.17v.04c.65,.23,1.04,.84,1.26,1.73,.28,1.2,.48,2.02,.65,2.35h-1.14c-.14-.24-.33-.98-.56-2.05-.25-1.18-.72-1.63-1.73-1.67h-1.04v3.71h-1.11s0-8.44,0-8.44Zm1.11,3.89h1.13c1.18,0,1.93-.65,1.93-1.63,0-1.11-.8-1.59-1.97-1.59-.53,0-.9,.05-1.09,.1v3.12Z"/><path d="M155.96,157.32v-3.64l-2.72-4.93h1.27l1.21,2.37c.32,.65,.58,1.17,.85,1.77h.03c.23-.56,.53-1.12,.86-1.77l1.23-2.37h1.25l-2.86,4.92v3.65h-1.12Z"/><path class="cls-6" d="M85.66,139.47c1.73-2.79,3.8-5.35,6.17-7.62"/><path class="cls-21" d="M91.77,139.21c-.5,.19-1.49,.47-2.65,.47-1.3,0-2.37-.33-3.2-1.13-.74-.71-1.2-1.86-1.2-3.19,0-2.56,1.77-4.43,4.64-4.43,.99,0,1.78,.22,2.15,.39l-.28,.9c-.46-.22-1.03-.37-1.89-.37-2.09,0-3.45,1.3-3.45,3.45s1.3,3.46,3.31,3.46c.72,0,1.22-.1,1.48-.23v-2.56h-1.73v-.89h2.82s0,4.12,0,4.12Z"/><rect class="cls-9" x="114.09" y="157.01" width="14.31" height="6.33" transform="translate(-79.28 172.21) rotate(-56.31)"/><path class="cls-11" d="M120.09,162.37l-.03-.37c-.09-.77,.17-1.62,.89-2.47,.64-.76,1-1.32,1-1.95,0-.73-.46-1.23-1.36-1.23-.52,0-1.09,.16-1.44,.44l-.34-.9c.49-.36,1.29-.59,2.05-.59,1.65,0,2.39,1.03,2.39,2.12,0,.96-.54,1.67-1.23,2.47-.63,.75-.86,1.37-.82,2.1l.03,.37s-1.13,0-1.13,0Zm.53,2.89c-.49,0-.83-.38-.83-.89,0-.53,.36-.9,.84-.9,.52,0,.84,.37,.84,.9,0,.5-.33,.89-.84,.89h-.01Z"/><text class="cls-22" transform="translate(2.47 23.48)"><tspan x="0" y="0">Glutamine-I Riboswitch</tspan></text></svg>