<?xml version="1.0" encoding="UTF-8"?><svg id="_图层_1" xmlns="http://www.w3.org/2000/svg" viewBox="0 0 256.32 383.47"><defs><style>.cls-1,.cls-2{letter-spacing:-.06em;}.cls-1,.cls-2,.cls-3,.cls-4,.cls-5,.cls-6,.cls-7,.cls-8,.cls-9,.cls-10{font-family:ArialMT, Arial;}.cls-1,.cls-2,.cls-3,.cls-6,.cls-7{font-size:16.21px;isolation:isolate;}.cls-1,.cls-7,.cls-8{fill:#0a0bff;}.cls-11,.cls-12,.cls-13,.cls-14,.cls-15{stroke:#000;stroke-miterlimit:1.11;}.cls-11,.cls-12,.cls-14{stroke-width:.14px;}.cls-11,.cls-13,.cls-15{fill:none;}.cls-12,.cls-10{fill:#fff;}.cls-2,.cls-3,.cls-4{fill:#80db9e;}.cls-13{stroke-width:1.03px;}.cls-4,.cls-8,.cls-9{font-size:20px;}.cls-5{fill:#231815;font-size:14px;}.cls-16{letter-spacing:-.04em;}.cls-17{fill:red;}.cls-10{font-size:10px;}</style></defs><g id="ID000002"><text class="cls-1" transform="translate(211.19 367.74)"><tspan x="0" y="0">A</tspan></text></g><g id="ID000003"><text class="cls-7" transform="translate(210.75 351.47)"><tspan x="0" y="0">U</tspan></text></g><g id="ID000004"><text class="cls-7" transform="translate(210.29 335.2)"><tspan x="0" y="0">G</tspan></text></g><g id="ID000005"><text class="cls-7" transform="translate(210.29 318.93)"><tspan x="0" y="0">G</tspan></text></g><g id="ID000006"><text class="cls-7" transform="translate(210.29 302.67)"><tspan x="0" y="0">G</tspan></text></g><g id="ID000007"><text class="cls-1" transform="translate(211.19 286.4)"><tspan x="0" y="0">A</tspan></text></g><g id="ID000008"><line class="cls-11" x1="227.45" y1="279.08" x2="238.29" y2="279.08"/></g><g id="ID000009"><text class="cls-6" transform="translate(238.29 286.4)"><tspan x="0" y="0">30</tspan></text></g><g id="ID000010"><text class="cls-7" transform="translate(210.29 270.13)"><tspan x="0" y="0">G</tspan></text></g><g id="ID000011"><text class="cls-7" transform="translate(210.75 253.86)"><tspan x="0" y="0">U</tspan></text></g><g id="ID000012"><text class="cls-1" transform="translate(211.19 237.59)"><tspan x="0" y="0">A</tspan></text></g><g id="ID000013"><text class="cls-7" transform="translate(242.83 213.19)"><tspan x="0" y="0">G</tspan></text></g><g id="ID000014"><text class="cls-7" transform="translate(177.76 237.59)"><tspan x="0" y="0">G</tspan></text></g><g id="ID000015"><text class="cls-1" transform="translate(178.66 253.86)"><tspan x="0" y="0">A</tspan></text></g><g id="ID000016"><text class="cls-7" transform="translate(178.21 270.13)"><tspan x="0" y="0">U</tspan></text></g><g id="ID000017"><text class="cls-7" transform="translate(178.21 286.4)"><tspan x="0" y="0">U</tspan></text></g><g id="ID000018"><text class="cls-7" transform="translate(178.21 302.67)"><tspan x="0" y="0">C</tspan></text></g><g id="ID000019"><text class="cls-7" transform="translate(178.21 318.93)"><tspan x="0" y="0">U</tspan></text></g><g id="ID000020"><text class="cls-7" transform="translate(178.21 335.2)"><tspan x="0" y="0">C</tspan></text></g><g id="ID000021"><text class="cls-1" transform="translate(178.66 351.47)"><tspan x="0" y="0">A</tspan></text></g><g id="ID000022"><text class="cls-7" transform="translate(178.21 367.74)"><tspan x="0" y="0">U</tspan></text></g><g id="ID000023"><line class="cls-11" x1="173.22" y1="360.42" x2="162.37" y2="360.42"/></g><g id="ID000024"><text class="cls-6" transform="translate(144.34 367.74)"><tspan x="0" y="0">50</tspan></text></g><g id="ID000025"><line class="cls-11" x1="210.09" y1="360.42" x2="190.57" y2="360.42"/></g><g id="ID000026"><line class="cls-11" x1="210.09" y1="344.15" x2="190.57" y2="344.15"/></g><g id="ID000027"><line class="cls-11" x1="210.09" y1="327.88" x2="190.57" y2="327.88"/></g><g id="ID000028"><polygon class="cls-14" points="197.08 311.61 197.09 311.82 197.1 312.02 197.14 312.23 197.18 312.43 197.24 312.63 197.31 312.82 197.39 313.01 197.49 313.19 197.6 313.37 197.71 313.54 197.84 313.7 197.98 313.86 198.12 314 198.28 314.14 198.45 314.26 198.62 314.38 198.8 314.48 198.98 314.57 199.17 314.65 199.37 314.72 199.57 314.77 199.77 314.82 199.97 314.85 200.18 314.86 200.38 314.86 200.59 314.85 200.8 314.83 201 314.8 201.2 314.75 201.4 314.69 201.59 314.61 201.78 314.53 201.96 314.43 202.13 314.32 202.3 314.2 202.46 314.07 202.61 313.93 202.76 313.78 202.89 313.62 203.01 313.46 203.12 313.28 203.22 313.1 203.31 312.92 203.39 312.72 203.45 312.53 203.51 312.33 203.54 312.13 203.57 311.92 203.58 311.72 203.58 311.51 203.57 311.3 203.54 311.1 203.51 310.9 203.45 310.7 203.39 310.5 203.31 310.31 203.22 310.12 203.12 309.94 203.01 309.77 202.89 309.6 202.76 309.44 202.61 309.29 202.46 309.15 202.3 309.02 202.13 308.9 201.96 308.79 201.78 308.7 201.59 308.61 201.4 308.54 201.2 308.48 201 308.43 200.8 308.39 200.59 308.37 200.38 308.36 200.18 308.36 199.97 308.38 199.77 308.41 199.57 308.45 199.37 308.51 199.17 308.57 198.98 308.65 198.8 308.74 198.62 308.85 198.45 308.96 198.28 309.09 198.12 309.22 197.98 309.37 197.84 309.52 197.71 309.68 197.6 309.85 197.49 310.03 197.39 310.21 197.31 310.4 197.24 310.6 197.18 310.79 197.14 311 197.1 311.2 197.09 311.41 197.08 311.61"/></g><g id="ID000029"><line class="cls-11" x1="210.09" y1="295.34" x2="190.57" y2="295.34"/></g><g id="ID000030"><line class="cls-11" x1="210.09" y1="279.08" x2="190.57" y2="279.08"/></g><g id="ID000031"><polygon class="cls-14" points="197.08 262.81 197.09 263.01 197.1 263.22 197.14 263.42 197.18 263.63 197.24 263.82 197.31 264.02 197.39 264.21 197.49 264.39 197.6 264.57 197.71 264.74 197.84 264.9 197.98 265.05 198.12 265.2 198.28 265.33 198.45 265.46 198.62 265.57 198.8 265.68 198.98 265.77 199.17 265.85 199.37 265.91 199.57 265.97 199.77 266.01 199.97 266.04 200.18 266.06 200.38 266.06 200.59 266.05 200.8 266.03 201 265.99 201.2 265.94 201.4 265.88 201.59 265.81 201.78 265.72 201.96 265.63 202.13 265.52 202.3 265.4 202.46 265.27 202.61 265.13 202.76 264.98 202.89 264.82 203.01 264.65 203.12 264.48 203.22 264.3 203.31 264.11 203.39 263.92 203.45 263.72 203.51 263.53 203.54 263.32 203.57 263.12 203.58 262.91 203.58 262.7 203.57 262.5 203.54 262.29 203.51 262.09 203.45 261.89 203.39 261.7 203.31 261.5 203.22 261.32 203.12 261.14 203.01 260.96 202.89 260.8 202.76 260.64 202.61 260.49 202.46 260.35 202.3 260.22 202.13 260.1 201.96 259.99 201.78 259.89 201.59 259.81 201.4 259.73 201.2 259.67 201 259.62 200.8 259.59 200.59 259.56 200.38 259.55 200.18 259.56 199.97 259.57 199.77 259.6 199.57 259.65 199.37 259.7 199.17 259.77 198.98 259.85 198.8 259.94 198.62 260.04 198.45 260.16 198.28 260.28 198.12 260.42 197.98 260.56 197.84 260.72 197.71 260.88 197.6 261.05 197.49 261.23 197.39 261.41 197.31 261.6 197.24 261.79 197.18 261.99 197.14 262.19 197.1 262.4 197.09 262.6 197.08 262.81"/></g><g id="ID000032"><line class="cls-11" x1="210.09" y1="246.54" x2="190.57" y2="246.54"/></g><g id="ID000033"><line class="cls-11" x1="210.09" y1="230.27" x2="190.57" y2="230.27"/></g><g id="ID000034"><polygon class="cls-14" points="197.08 230.27 197.09 230.48 197.1 230.68 197.14 230.89 197.18 231.09 197.24 231.29 197.31 231.48 197.39 231.67 197.49 231.85 197.6 232.03 197.71 232.2 197.84 232.36 197.98 232.52 198.12 232.66 198.28 232.8 198.45 232.92 198.62 233.04 198.8 233.14 198.98 233.23 199.17 233.31 199.37 233.38 199.57 233.43 199.77 233.48 199.97 233.51 200.18 233.52 200.38 233.53 200.59 233.52 200.8 233.49 201 233.46 201.2 233.41 201.4 233.35 201.59 233.27 201.78 233.19 201.96 233.09 202.13 232.98 202.3 232.86 202.46 232.73 202.61 232.59 202.76 232.44 202.89 232.28 203.01 232.12 203.12 231.94 203.22 231.76 203.31 231.58 203.39 231.39 203.45 231.19 203.51 230.99 203.54 230.79 203.57 230.58 203.58 230.38 203.58 230.17 203.57 229.96 203.54 229.76 203.51 229.56 203.45 229.36 203.39 229.16 203.31 228.97 203.22 228.78 203.12 228.6 203.01 228.43 202.89 228.26 202.76 228.1 202.61 227.95 202.46 227.81 202.3 227.68 202.13 227.56 201.96 227.45 201.78 227.36 201.59 227.27 201.4 227.2 201.2 227.14 201 227.09 200.8 227.05 200.59 227.03 200.38 227.02 200.18 227.02 199.97 227.04 199.77 227.07 199.57 227.11 199.37 227.17 199.17 227.23 198.98 227.31 198.8 227.4 198.62 227.51 198.45 227.62 198.28 227.75 198.12 227.88 197.98 228.03 197.84 228.18 197.71 228.34 197.6 228.51 197.49 228.69 197.39 228.87 197.31 229.06 197.24 229.26 197.18 229.45 197.14 229.66 197.1 229.86 197.09 230.07 197.08 230.27"/></g><g id="ID000035"><line class="cls-13" x1="246" y1="200.17" x2="207.53" y2="130.23"/></g><g id="ID000036"><polygon class="cls-14" points="225.1 172.3 225.94 168.75 225.34 165.98 224.39 163.41 222.85 158.07 226.53 162.24 228.19 164.42 230.21 166.4 233.66 167.6 225.1 172.3"/></g><g id="ID000038"><text class="cls-2" transform="translate(178.66 95.25)"><tspan x="0" y="0">A</tspan></text></g><g id="ID000039"><text class="cls-3" transform="translate(178.21 78.98)"><tspan x="0" y="0">C</tspan></text></g><g id="ID000040"><text class="cls-3" transform="translate(178.21 62.71)"><tspan x="0" y="0">C</tspan></text></g><g id="ID000041"><text class="cls-3" transform="translate(178.21 46.44)"><tspan x="0" y="0">C</tspan></text></g><g id="ID000042"><text class="cls-3" transform="translate(178.21 30.18)"><tspan x="0" y="0">U</tspan></text></g><g id="ID000043"><line class="cls-11" x1="194.91" y1="22.86" x2="205.75" y2="22.86"/></g><g id="ID000044"><text class="cls-6" transform="translate(205.75 30.18)"><tspan x="0" y="0">10</tspan></text></g><g id="ID000045"><text class="cls-3" transform="translate(170.08 13.91)"><tspan x="0" y="0">U</tspan></text></g><g id="ID000046"><text class="cls-3" transform="translate(153.81 13.91)"><tspan x="0" y="0">C</tspan></text></g><g id="ID000047"><text class="cls-3" transform="translate(145.22 30.18)"><tspan x="0" y="0">G</tspan></text></g><g id="ID000048"><text class="cls-3" transform="translate(145.22 46.44)"><tspan x="0" y="0">G</tspan></text></g><g id="ID000049"><text class="cls-3" transform="translate(145.22 62.71)"><tspan x="0" y="0">G</tspan></text></g><g id="ID000050"><text class="cls-3" transform="translate(145.22 78.98)"><tspan x="0" y="0">G</tspan></text></g><g id="ID000051"><text class="cls-3" transform="translate(145.67 95.25)"><tspan x="0" y="0">C</tspan></text></g><g id="ID000052"><text class="cls-3" transform="translate(108.62 180.66)"><tspan x="0" y="0">G</tspan></text></g><g id="ID000053"><text class="cls-3" transform="translate(145.67 217.26)"><tspan x="0" y="0">C</tspan></text></g><g id="ID000054"><line class="cls-13" x1="155.85" y1="119.67" x2="179.74" y2="92.79"/></g><g id="ID000055"><polygon class="cls-14" points="160.55 107.04 164.17 106.64 166.58 105.15 168.69 103.39 173.2 100.15 170.51 105.01 169.01 107.31 167.82 109.88 167.84 113.52 160.55 107.04"/></g><g id="ID000056"><line class="cls-11" x1="177.56" y1="87.93" x2="158.04" y2="87.93"/></g><g id="ID000057"><polygon class="cls-14" points="164.54 87.93 164.55 88.13 164.57 88.34 164.6 88.54 164.65 88.75 164.71 88.94 164.78 89.14 164.86 89.33 164.95 89.51 165.06 89.69 165.18 89.86 165.3 90.02 165.44 90.17 165.59 90.32 165.75 90.45 165.91 90.58 166.08 90.69 166.26 90.8 166.44 90.89 166.64 90.97 166.83 91.04 167.03 91.09 167.23 91.13 167.44 91.16 167.64 91.18 167.85 91.18 168.05 91.17 168.26 91.15 168.46 91.11 168.66 91.06 168.86 91 169.05 90.93 169.24 90.84 169.42 90.75 169.6 90.64 169.77 90.52 169.93 90.39 170.08 90.25 170.22 90.1 170.35 89.94 170.48 89.77 170.59 89.6 170.69 89.42 170.78 89.23 170.85 89.04 170.92 88.85 170.97 88.64 171.01 88.44 171.04 88.24 171.05 88.03 171.05 87.83 171.04 87.62 171.01 87.41 170.97 87.21 170.92 87.01 170.85 86.82 170.78 86.62 170.69 86.44 170.59 86.26 170.48 86.08 170.35 85.92 170.22 85.76 170.08 85.61 169.93 85.47 169.77 85.34 169.6 85.22 169.42 85.11 169.24 85.01 169.05 84.93 168.86 84.85 168.66 84.79 168.46 84.74 168.26 84.71 168.05 84.68 167.85 84.68 167.64 84.68 167.44 84.69 167.23 84.72 167.03 84.77 166.83 84.82 166.64 84.89 166.44 84.97 166.26 85.06 166.08 85.16 165.91 85.28 165.75 85.4 165.59 85.54 165.44 85.68 165.3 85.84 165.18 86 165.06 86.17 164.95 86.35 164.86 86.53 164.78 86.72 164.71 86.91 164.65 87.11 164.6 87.31 164.57 87.52 164.55 87.72 164.54 87.93"/></g><g id="ID000058"><line class="cls-11" x1="177.56" y1="71.66" x2="158.04" y2="71.66"/></g><g id="ID000059"><line class="cls-11" x1="177.56" y1="55.39" x2="158.04" y2="55.39"/></g><g id="ID000060"><line class="cls-11" x1="177.56" y1="39.12" x2="158.04" y2="39.12"/></g><g id="ID000061"><polyline class="cls-11" points="177.67 158.27 118.99 169.27 119.53 168.73"/></g><g id="ID000062"><polygon class="cls-12" points="155.09 159.19 148.69 160.39 149.89 166.78 156.29 165.59 155.09 159.19"/></g><g id="ID000063"><polygon class="cls-12" points="140.98 165.15 141.02 165.35 141.08 165.55 141.15 165.74 141.23 165.93 141.32 166.11 141.43 166.29 141.54 166.46 141.67 166.63 141.81 166.78 141.95 166.92 142.11 167.06 142.27 167.19 142.44 167.3 142.62 167.41 142.81 167.5 143 167.58 143.19 167.65 143.39 167.7 143.59 167.75 143.8 167.78 144 167.8 144.21 167.8 144.41 167.79 144.62 167.77 144.82 167.73 145.02 167.69 145.22 167.63 145.41 167.55 145.6 167.47 145.79 167.37 145.96 167.26 146.13 167.15 146.29 167.02 146.44 166.88 146.59 166.73 146.72 166.57 146.84 166.4 146.96 166.23 147.06 166.05 147.15 165.87 147.23 165.67 147.29 165.48 147.34 165.28 147.38 165.08 147.41 164.87 147.42 164.67 147.43 164.46 147.41 164.25 147.39 164.05 147.35 163.85 147.3 163.65 147.24 163.45 147.16 163.26 147.07 163.07 146.97 162.89 146.86 162.71 146.74 162.55 146.61 162.39 146.47 162.24 146.32 162.1 146.16 161.97 145.99 161.85 145.81 161.74 145.63 161.64 145.45 161.55 145.25 161.48 145.06 161.41 144.86 161.37 144.65 161.33 144.45 161.3 144.24 161.29 144.04 161.3 143.83 161.31 143.62 161.34 143.42 161.38 143.22 161.43 143.03 161.5 142.84 161.58 142.65 161.67 142.47 161.77 142.3 161.89 142.13 162.01 141.98 162.15 141.83 162.29 141.69 162.44 141.56 162.6 141.45 162.77 141.34 162.95 141.24 163.13 141.16 163.32 141.09 163.52 141.03 163.71 140.98 163.91 140.95 164.12 140.93 164.32 140.92 164.53 140.93 164.74 140.94 164.94 140.98 165.15"/></g><g id="ID000064"><line class="cls-11" x1="145.02" y1="173.33" x2="121.43" y2="173.33"/></g><g id="ID000065"><polygon class="cls-14" points="140.71 170.08 134.2 170.08 134.2 176.59 140.71 176.59 140.71 170.08"/></g><g id="ID000066"><polygon class="cls-14" points="125.74 173.33 125.75 173.54 125.77 173.75 125.8 173.95 125.85 174.15 125.91 174.35 125.98 174.54 126.06 174.73 126.15 174.92 126.26 175.09 126.38 175.26 126.5 175.43 126.64 175.58 126.79 175.72 126.95 175.86 127.11 175.98 127.28 176.1 127.46 176.2 127.65 176.29 127.84 176.37 128.03 176.44 128.23 176.5 128.43 176.54 128.64 176.57 128.84 176.58 129.05 176.59 129.26 176.58 129.46 176.56 129.66 176.52 129.86 176.47 130.06 176.41 130.25 176.34 130.44 176.25 130.62 176.15 130.8 176.04 130.97 175.92 131.13 175.79 131.28 175.65 131.42 175.5 131.56 175.35 131.68 175.18 131.79 175.01 131.89 174.83 131.98 174.64 132.05 174.45 132.12 174.25 132.17 174.05 132.21 173.85 132.24 173.64 132.25 173.44 132.25 173.23 132.24 173.03 132.21 172.82 132.17 172.62 132.12 172.42 132.05 172.22 131.98 172.03 131.89 171.84 131.79 171.66 131.68 171.49 131.56 171.32 131.42 171.17 131.28 171.02 131.13 170.88 130.97 170.75 130.8 170.63 130.62 170.52 130.44 170.42 130.25 170.33 130.06 170.26 129.86 170.2 129.66 170.15 129.46 170.11 129.26 170.09 129.05 170.08 128.84 170.08 128.64 170.1 128.43 170.13 128.23 170.17 128.03 170.23 127.84 170.3 127.65 170.38 127.46 170.47 127.28 170.57 127.11 170.68 126.95 170.81 126.79 170.94 126.64 171.09 126.5 171.24 126.38 171.41 126.26 171.58 126.15 171.75 126.06 171.94 125.98 172.13 125.91 172.32 125.85 172.52 125.8 172.72 125.77 172.92 125.75 173.13 125.74 173.33"/></g><g id="ID000067"><line class="cls-11" x1="177.56" y1="209.94" x2="158.04" y2="209.94"/></g><g id="ID000068"><polygon class="cls-14" points="164.54 209.94 164.55 210.14 164.57 210.35 164.6 210.55 164.65 210.75 164.71 210.95 164.78 211.15 164.86 211.34 164.95 211.52 165.06 211.7 165.18 211.87 165.3 212.03 165.44 212.18 165.59 212.33 165.75 212.46 165.91 212.59 166.08 212.7 166.26 212.81 166.44 212.9 166.64 212.98 166.83 213.04 167.03 213.1 167.23 213.14 167.44 213.17 167.64 213.19 167.85 213.19 168.05 213.18 168.26 213.16 168.46 213.12 168.66 213.07 168.86 213.01 169.05 212.94 169.24 212.85 169.42 212.75 169.6 212.65 169.77 212.53 169.93 212.4 170.08 212.26 170.22 212.11 170.35 211.95 170.48 211.78 170.59 211.61 170.69 211.43 170.78 211.24 170.85 211.05 170.92 210.85 170.97 210.65 171.01 210.45 171.04 210.25 171.05 210.04 171.05 209.83 171.04 209.63 171.01 209.42 170.97 209.22 170.92 209.02 170.85 208.82 170.78 208.63 170.69 208.45 170.59 208.27 170.48 208.09 170.35 207.93 170.22 207.77 170.08 207.62 169.93 207.48 169.77 207.35 169.6 207.23 169.42 207.12 169.24 207.02 169.05 206.94 168.86 206.86 168.66 206.8 168.46 206.75 168.26 206.72 168.05 206.69 167.85 206.68 167.64 206.69 167.44 206.7 167.23 206.73 167.03 206.78 166.83 206.83 166.64 206.9 166.44 206.98 166.26 207.07 166.08 207.17 165.91 207.29 165.75 207.41 165.59 207.55 165.44 207.69 165.3 207.85 165.18 208.01 165.06 208.18 164.95 208.36 164.86 208.54 164.78 208.73 164.71 208.92 164.65 209.12 164.6 209.32 164.57 209.53 164.55 209.73 164.54 209.94"/></g><g id="ID000070"><text class="cls-7" transform="translate(198.09 131.85)"><tspan x="0" y="0">G</tspan></text></g><g id="ID000071"><text class="cls-7" transform="translate(177.76 131.85)"><tspan x="0" y="0">G</tspan></text></g><g id="ID000072"><text class="cls-1" transform="translate(178.66 148.12)"><tspan x="0" y="0">A</tspan></text></g><g id="ID000073"><text class="cls-1" transform="translate(178.66 164.39)"><tspan x="0" y="0">A</tspan></text></g><g id="ID000074"><text class="cls-7" transform="translate(178.21 180.66)"><tspan x="0" y="0">C</tspan></text></g><g id="ID000075"><text class="cls-7" transform="translate(177.76 196.92)"><tspan x="0" y="0">G</tspan></text></g><g id="ID000076"><line class="cls-11" x1="194.91" y1="189.6" x2="205.75" y2="189.6"/></g><g id="ID000077"><text class="cls-6" transform="translate(205.75 196.92)"><tspan x="0" y="0">40</tspan></text></g><g id="ID000078"><text class="cls-7" transform="translate(177.76 217.26)"><tspan x="0" y="0">G</tspan></text></g><g id="ID000079"><text class="cls-3" transform="translate(145.67 196.92)"><tspan x="0" y="0">C</tspan></text></g><g id="ID000080"><text class="cls-3" transform="translate(145.22 180.66)"><tspan x="0" y="0">G</tspan></text></g><g id="ID000081"><text class="cls-3" transform="translate(145.67 164.39)"><tspan x="0" y="0">U</tspan></text></g><g id="ID000082"><text class="cls-3" transform="translate(145.67 148.12)"><tspan x="0" y="0">U</tspan></text></g><g id="ID000083"><text class="cls-3" transform="translate(145.67 131.85)"><tspan x="0" y="0">C</tspan></text></g><g id="ID000084"><line class="cls-11" x1="199.32" y1="128.6" x2="189.15" y2="136.73"/></g><g id="ID000085"><polygon class="cls-14" points="200.08 127.99 199.94 127.83 199.8 127.68 199.64 127.55 199.48 127.42 199.31 127.3 199.14 127.19 198.95 127.1 198.77 127.01 198.57 126.94 198.38 126.88 198.17 126.83 197.97 126.8 197.77 126.78 197.56 126.77 197.35 126.77 197.15 126.79 196.94 126.82 196.74 126.87 196.54 126.92 196.35 126.99 196.16 127.07 195.97 127.17 195.8 127.27 195.63 127.39 195.46 127.51 195.31 127.65 195.16 127.8 195.02 127.95 194.9 128.12 194.78 128.29 194.68 128.46 194.59 128.65 194.5 128.84 194.44 129.03 194.38 129.23 194.33 129.43 194.3 129.64 194.29 129.84 194.28 130.05 194.29 130.26 194.31 130.46 194.35 130.67 194.39 130.87 194.45 131.06 194.52 131.26 194.61 131.45 194.7 131.63 194.81 131.8 194.93 131.97 195.06 132.13 195.2 132.29 195.35 132.43 195.5 132.57 195.67 132.69 195.84 132.8 196.02 132.9 196.21 132.99 196.4 133.07 196.59 133.14 196.79 133.19 197 133.23 197.2 133.26 197.41 133.27 197.61 133.28 197.82 133.26 198.02 133.24 198.23 133.2 198.43 133.15 198.62 133.09 198.82 133.01 199 132.93 199.18 132.83 199.36 132.72 199.53 132.6 199.69 132.46 199.84 132.32 199.98 132.17 200.11 132.01 200.23 131.85 200.34 131.67 200.44 131.49 200.53 131.3 200.6 131.11 200.66 130.91 200.71 130.71 200.75 130.51 200.78 130.31 200.79 130.1 200.79 129.89 200.77 129.69 200.74 129.48 200.7 129.28 200.65 129.08 200.58 128.88 200.5 128.69 200.41 128.51 200.31 128.33 200.2 128.16 200.08 127.99"/></g><g id="ID000086"><polygon class="cls-14" points="190.42 139.88 195.5 135.82 191.44 130.73 186.36 134.8 190.42 139.88"/></g><g id="ID000087"><line class="cls-11" x1="177.56" y1="124.53" x2="158.04" y2="124.53"/></g><g id="ID000088"><line class="cls-11" x1="177.56" y1="140.8" x2="158.04" y2="140.8"/></g><g id="ID000089"><line class="cls-11" x1="177.56" y1="157.07" x2="158.04" y2="157.07"/></g><g id="ID000090"><line class="cls-11" x1="177.56" y1="173.33" x2="158.04" y2="173.33"/></g><g id="ID000091"><line class="cls-11" x1="177.56" y1="189.6" x2="158.04" y2="189.6"/></g><g id="ID000093"><line class="cls-15" x1="119.53" y1="177.94" x2="146.93" y2="205.34"/></g><g id="ID000094"><polygon class="cls-14" points="132.84 184.35 133.04 187.99 134.38 190.49 136.01 192.69 138.98 197.39 134.28 194.42 132.08 192.79 129.58 191.44 125.94 191.25 132.84 184.35"/></g><g id="ID000095"><line class="cls-13" x1="148.97" y1="93.91" x2="117.49" y2="167.35"/></g><g id="ID000096"><polygon class="cls-14" points="139.85 127.57 136.54 129.1 134.72 131.27 133.28 133.6 130.02 138.11 131.04 132.64 131.73 129.99 132.05 127.18 130.88 123.72 139.85 127.57"/></g><g id="ID000097"><line class="cls-13" x1="221.81" y1="226.37" x2="243.93" y2="209.77"/></g><g id="ID000098"><polygon class="cls-14" points="225.6 217.42 229.23 217.75 231.89 216.77 234.3 215.47 239.38 213.19 235.77 217.42 233.84 219.37 232.16 221.65 231.46 225.23 225.6 217.42"/></g><text class="cls-4" transform="translate(205.66 67.29)"><tspan x="0" y="0">P1</tspan></text><text class="cls-8" transform="translate(140.66 303.29)"><tspan x="0" y="0">P2</tspan></text><text class="cls-9" transform="translate(0 23.29)"><tspan x="0" y="0">Glutamine-II </tspan><tspan x="0" y="24">riboswitch</tspan></text><g><rect class="cls-17" x="158.09" y="177" width="18" height="9"/><text class="cls-10" transform="translate(159.08 185.53)"><tspan x="0" y="0">Gln</tspan></text></g><text class="cls-5" transform="translate(135.09 189.92)"><tspan x="0" y="0">5</tspan><tspan class="cls-16" x="7.79" y="0">’</tspan></text><text class="cls-5" transform="translate(133.09 218.92)"><tspan x="0" y="0">3</tspan><tspan class="cls-16" x="7.79" y="0">’</tspan></text><text class="cls-5" transform="translate(223.09 378.92)"><tspan x="0" y="0">5</tspan><tspan class="cls-16" x="7.79" y="0">’</tspan></text><text class="cls-5" transform="translate(171.09 378.92)"><tspan x="0" y="0">3</tspan><tspan class="cls-16" x="7.79" y="0">’</tspan></text></svg>