<svg id="图层_1" data-name="图层 1" xmlns="http://www.w3.org/2000/svg" viewBox="0 0 400 400"><defs><style>.cls-1,.cls-10,.cls-11,.cls-12,.cls-13,.cls-2,.cls-3,.cls-4,.cls-5,.cls-7{isolation:isolate;font-size:15.55px;}.cls-1,.cls-16,.cls-5{fill:#80db9e;}.cls-1,.cls-10,.cls-11,.cls-12,.cls-13,.cls-15,.cls-16,.cls-17,.cls-19,.cls-2,.cls-20,.cls-21,.cls-3,.cls-4,.cls-5,.cls-7{font-family:ArialMT, Arial;}.cls-10,.cls-17,.cls-2{fill:#0a0bff;}.cls-2,.cls-3,.cls-5{letter-spacing:-0.06em;}.cls-11,.cls-3,.cls-4{fill:#ffdf5c;}.cls-14,.cls-6{fill:none;}.cls-14,.cls-6,.cls-8,.cls-9{stroke:#000;stroke-miterlimit:1.11;}.cls-6,.cls-8,.cls-9{stroke-width:0.14px;}.cls-19,.cls-9{fill:#fff;}.cls-11,.cls-12{letter-spacing:-0.06em;}.cls-12,.cls-13,.cls-15{fill:#ffaadc;}.cls-14{stroke-width:0.5px;}.cls-15{font-size:21px;}.cls-16,.cls-17,.cls-20{font-size:20px;}.cls-18{fill:red;}.cls-19{font-size:10px;}.cls-21{font-size:13.04px;fill:#231815;}</style></defs><g id="ID000002"><text class="cls-1" transform="translate(45.99 282.07) scale(1.02 1)">C</text></g><g id="ID000003"><text class="cls-1" transform="translate(45.55 266.85) scale(1.02 1)">G</text></g><g id="ID000004"><text class="cls-1" transform="translate(45.99 251.62) scale(1.02 1)">U</text></g><g id="ID000005"><text class="cls-1" transform="translate(45.99 236.4) scale(1.02 1)">U</text></g><g id="ID000006"><text class="cls-1" transform="translate(45.55 221.18) scale(1.02 1)">G</text></g><g id="ID000007"><text class="cls-2" transform="translate(46.42 190.28) scale(1.02 1)">A</text></g><g id="ID000008"><text class="cls-3" transform="translate(139.15 220.56) scale(1.02 1)">A</text></g><g id="ID000009"><text class="cls-4" transform="translate(92.81 220.56) scale(1.02 1)">G</text></g><g id="ID000010"><text class="cls-1" transform="translate(76.92 221.18) scale(1.02 1)">C</text></g><g id="ID000011"><text class="cls-5" transform="translate(77.35 236.4) scale(1.02 1)">A</text></g><g id="ID000012"><text class="cls-5" transform="translate(77.35 251.62) scale(1.02 1)">A</text></g><g id="ID000013"><text class="cls-1" transform="translate(76.92 266.85) scale(1.02 1)">C</text></g><g id="ID000014"><text class="cls-1" transform="translate(76.48 282.07) scale(1.02 1)">G</text></g><g id="ID000015"><text class="cls-1" transform="translate(76.92 297.29) scale(1.02 1)">C</text></g><g id="ID000016"><line class="cls-6" x1="92.93" y1="290.44" x2="103.24" y2="290.44"/></g><g id="ID000017"><text class="cls-7" transform="translate(103.24 297.29) scale(1.02 1)">60</text></g><g id="ID000018"><text class="cls-1" transform="translate(76.48 312.52) scale(1.02 1)">G</text></g><g id="ID000019"><line class="cls-6" x1="57.88" y1="275.22" x2="76.44" y2="275.22"/></g><g id="ID000020"><polyline class="cls-6" points="68 257 68 257 68.52 203.69"/></g><polygon class="cls-8" points="71.04 236.02 71.11 229.93 64.93 229.9 64.86 236 71.04 236.02"/><polygon class="cls-8" points="68.12 221.99 67.92 221.99 67.73 222.01 67.53 222.04 67.34 222.08 67.15 222.14 66.97 222.2 66.79 222.28 66.61 222.37 66.44 222.47 66.28 222.57 66.12 222.69 65.97 222.82 65.84 222.96 65.7 223.1 65.58 223.26 65.47 223.42 65.38 223.59 65.29 223.76 65.21 223.94 65.14 224.12 65.09 224.31 65.04 224.5 65.01 224.69 65 224.88 64.99 225.07 65 225.27 65.02 225.46 65.05 225.65 65.09 225.84 65.15 226.02 65.22 226.2 65.3 226.38 65.39 226.55 65.49 226.72 65.6 226.87 65.72 227.02 65.85 227.17 65.99 227.3 66.14 227.43 66.3 227.54 66.46 227.65 66.63 227.74 66.81 227.82 66.99 227.9 67.18 227.96 67.36 228.01 67.56 228.04 67.75 228.07 67.95 228.08 68.14 228.08 68.34 228.07 68.53 228.05 68.73 228.01 68.92 227.97 69.1 227.91 69.29 227.83 69.47 227.75 69.64 227.66 69.8 227.55 69.96 227.44 70.11 227.32 70.26 227.18 70.39 227.04 70.52 226.89 70.63 226.74 70.74 226.57 70.83 226.4 70.92 226.22 70.99 226.04 71.05 225.86 71.1 225.67 71.13 225.48 71.16 225.29 71.17 225.1 71.17 224.9 71.16 224.71 71.13 224.52 71.09 224.33 71.04 224.14 70.98 223.96 70.91 223.78 70.82 223.61 70.73 223.44 70.62 223.28 70.5 223.12 70.38 222.98 70.24 222.84 70.09 222.71 69.94 222.59 69.78 222.48 69.61 222.38 69.44 222.29 69.26 222.21 69.08 222.15 68.89 222.09 68.7 222.05 68.51 222.01 68.31 222 68.12 221.99"/><g id="ID000023"><line class="cls-6" x1="57.88" y1="259.99" x2="76.44" y2="259.99"/></g><g id="ID000024"><line class="cls-6" x1="57.88" y1="244.77" x2="76.44" y2="244.77"/></g><g id="ID000025"><line class="cls-6" x1="57.88" y1="229.55" x2="76.44" y2="229.55"/></g><g id="ID000026"><line class="cls-6" x1="57.88" y1="214.32" x2="76.44" y2="214.32"/></g><g id="ID000027"><line class="cls-6" x1="57.88" y1="183.43" x2="76.44" y2="183.43"/></g><g id="ID000028"><polygon class="cls-9" points="70.25 183.43 70.24 183.24 70.22 183.05 70.19 182.85 70.15 182.67 70.09 182.48 70.03 182.3 69.95 182.12 69.86 181.95 69.76 181.78 69.65 181.63 69.53 181.47 69.39 181.33 69.25 181.19 69.11 181.07 68.95 180.95 68.79 180.84 68.62 180.75 68.44 180.66 68.26 180.59 68.07 180.52 67.89 180.47 67.69 180.43 67.5 180.41 67.3 180.39 67.11 180.39 66.91 180.4 66.72 180.42 66.52 180.45 66.33 180.5 66.14 180.55 65.96 180.62 65.78 180.7 65.61 180.79 65.44 180.9 65.28 181.01 65.13 181.13 64.99 181.26 64.85 181.4 64.72 181.55 64.61 181.71 64.5 181.87 64.41 182.04 64.32 182.21 64.25 182.39 64.19 182.57 64.14 182.76 64.1 182.95 64.08 183.14 64.06 183.33 64.06 183.53 64.08 183.72 64.1 183.91 64.14 184.1 64.19 184.29 64.25 184.47 64.32 184.65 64.41 184.83 64.5 185 64.61 185.16 64.72 185.31 64.85 185.46 64.99 185.6 65.13 185.73 65.28 185.85 65.44 185.97 65.61 186.07 65.78 186.16 65.96 186.24 66.14 186.31 66.33 186.37 66.52 186.41 66.72 186.44 66.91 186.47 67.11 186.47 67.3 186.47 67.5 186.46 67.69 186.43 67.89 186.39 68.07 186.34 68.26 186.28 68.44 186.2 68.62 186.12 68.79 186.02 68.95 185.91 69.11 185.79 69.25 185.67 69.39 185.53 69.53 185.39 69.65 185.24 69.76 185.08 69.86 184.91 69.95 184.74 70.03 184.56 70.09 184.38 70.15 184.2 70.19 184.01 70.22 183.82 70.24 183.62 70.25 183.43"/></g><g id="ID000029"><line class="cls-6" x1="144.05" y1="189.1" x2="143.87" y2="209.74"/></g><g id="ID000030"><polygon class="cls-9" points="147.01 203.12 147.06 197.01 140.9 197.03 140.84 203.14 147.01 203.12"/></g><g id="ID000031"><polyline class="cls-6" points="98.88 220.08 88.86 236.82 87.32 236.71"/></g><g id="ID000032"><polygon class="cls-8" points="97.48 222.42 97.31 222.33 97.13 222.25 96.94 222.18 96.76 222.12 96.57 222.07 96.38 222.03 96.18 222.01 95.98 222 95.79 222 95.59 222.01 95.4 222.04 95.2 222.08 95.02 222.13 94.83 222.19 94.65 222.26 94.47 222.35 94.3 222.44 94.14 222.54 93.98 222.66 93.83 222.79 93.69 222.92 93.56 223.06 93.43 223.21 93.32 223.37 93.22 223.54 93.13 223.71 93.05 223.88 92.98 224.06 92.92 224.25 92.88 224.44 92.84 224.63 92.83 224.82 92.82 225.01 92.82 225.21 92.84 225.4 92.87 225.59 92.91 225.78 92.96 225.96 93.03 226.15 93.11 226.32 93.19 226.5 93.29 226.66 93.4 226.82 93.52 226.98 93.65 227.12 93.79 227.26 93.94 227.39 94.09 227.51 94.26 227.62 94.43 227.71 94.6 227.8 94.78 227.88 94.97 227.94 95.16 228 95.35 228.04 95.54 228.07 95.74 228.08 95.93 228.09 96.13 228.08 96.33 228.06 96.52 228.03 96.71 227.99 96.9 227.93 97.08 227.87 97.26 227.79 97.43 227.7 97.6 227.6 97.76 227.49 97.92 227.37 98.06 227.24 98.2 227.1 98.33 226.95 98.44 226.8 98.55 226.64 98.65 226.47 98.73 226.29 98.81 226.12 98.87 225.93 98.92 225.75 98.96 225.56 98.99 225.37 99 225.17 99 224.98 98.99 224.79 98.97 224.59 98.93 224.41 98.88 224.22 98.82 224.03 98.75 223.85 98.67 223.68 98.58 223.51 98.47 223.34 98.36 223.19 98.23 223.04 98.1 222.9 97.95 222.76 97.8 222.64 97.64 222.53 97.48 222.42"/></g><g id="ID000033"><polygon class="cls-8" points="92.93 236.03 96.07 230.79 90.73 227.69 87.6 232.93 92.93 236.03"/></g><g id="ID000034"><polyline class="cls-6" points="114 189 113.64 282.07 88.87 289.28"/></g><g id="ID000035"><polygon class="cls-8" points="114.08 237.09 114.28 237.08 114.47 237.06 114.67 237.03 114.86 236.99 115.05 236.94 115.23 236.87 115.41 236.8 115.59 236.71 115.76 236.61 115.92 236.5 116.07 236.38 116.22 236.25 116.36 236.12 116.49 235.97 116.61 235.82 116.72 235.66 116.81 235.49 116.9 235.32 116.98 235.14 117.04 234.96 117.1 234.77 117.14 234.58 117.17 234.39 117.18 234.2 117.19 234 117.18 233.81 117.16 233.62 117.12 233.43 117.08 233.24 117.02 233.06 116.95 232.88 116.87 232.7 116.78 232.53 116.67 232.36 116.56 232.21 116.44 232.06 116.3 231.91 116.16 231.78 116.01 231.66 115.85 231.54 115.69 231.44 115.52 231.34 115.34 231.26 115.16 231.18 114.97 231.12 114.78 231.07 114.59 231.04 114.4 231.01 114.2 231 114 231 113.81 231.01 113.61 231.03 113.42 231.07 113.23 231.12 113.04 231.18 112.86 231.25 112.68 231.33 112.51 231.43 112.35 231.53 112.19 231.64 112.04 231.77 111.89 231.9 111.76 232.04 111.64 232.19 111.52 232.35 111.42 232.51 111.33 232.68 111.24 232.86 111.17 233.04 111.11 233.22 111.07 233.41 111.03 233.6 111.01 233.79 111 233.99 111 234.18 111.02 234.37 111.04 234.56 111.08 234.75 111.14 234.94 111.2 235.12 111.28 235.3 111.36 235.47 111.46 235.64 111.57 235.8 111.69 235.96 111.81 236.1 111.95 236.24 112.1 236.37 112.25 236.49 112.41 236.6 112.58 236.7 112.75 236.79 112.94 236.87 113.12 236.93 113.31 236.99 113.5 237.03 113.69 237.06 113.89 237.08 114.08 237.09"/></g><g id="ID000037"><text class="cls-10" transform="translate(45.99 171.25) scale(1.02 1)">C</text></g><g id="ID000038"><text class="cls-10" transform="translate(45.99 156.03) scale(1.02 1)">C</text></g><g id="ID000039"><text class="cls-10" transform="translate(45.99 140.81) scale(1.02 1)">C</text></g><g id="ID000040"><text class="cls-2" transform="translate(46.42 125.58) scale(1.02 1)">A</text></g><g id="ID000041"><line class="cls-6" x1="41.38" y1="118.73" x2="31.07" y2="118.73"/></g><g id="ID000042"><text class="cls-7" transform="translate(13.5 125.58) scale(1.02 1)">10</text></g><g id="ID000043"><text class="cls-10" transform="translate(45.55 110.36) scale(1.02 1)">G</text></g><g id="ID000044"><text class="cls-10" transform="translate(45.55 95.13) scale(1.02 1)">G</text></g><g id="ID000045"><text class="cls-2" transform="translate(54.15 79.91) scale(1.02 1)">A</text></g><g id="ID000046"><text class="cls-2" transform="translate(69.62 79.91) scale(1.02 1)">A</text></g><g id="ID000047"><text class="cls-2" transform="translate(77.35 95.13) scale(1.02 1)">A</text></g><g id="ID000048"><text class="cls-10" transform="translate(76.92 110.36) scale(1.02 1)">C</text></g><g id="ID000049"><text class="cls-10" transform="translate(76.92 125.58) scale(1.02 1)">U</text></g><g id="ID000050"><text class="cls-10" transform="translate(76.48 140.81) scale(1.02 1)">G</text></g><g id="ID000051"><text class="cls-10" transform="translate(76.48 156.03) scale(1.02 1)">G</text></g><g id="ID000052"><text class="cls-10" transform="translate(76.48 171.25) scale(1.02 1)">G</text></g><g id="ID000053"><line class="cls-6" x1="92.93" y1="164.4" x2="103.24" y2="164.4"/></g><g id="ID000054"><text class="cls-7" transform="translate(103.24 171.25) scale(1.02 1)">20</text></g><g id="ID000055"><text class="cls-10" transform="translate(76.92 190.28) scale(1.02 1)">C</text></g><g id="ID000056"><text class="cls-4" transform="translate(92.48 190.31) scale(1.02 1)">G</text></g><g id="ID000057"><text class="cls-4" transform="translate(107.41 190.28) scale(1.02 1)">G</text></g><g id="ID000058"><text class="cls-3" transform="translate(123.75 190.28) scale(1.02 1)">A</text></g><g id="ID000059"><line class="cls-6" x1="57.88" y1="164.4" x2="76.44" y2="164.4"/></g><g id="ID000060"><line class="cls-6" x1="57.88" y1="149.18" x2="76.44" y2="149.18"/></g><g id="ID000061"><line class="cls-6" x1="57.88" y1="133.96" x2="76.44" y2="133.96"/></g><g id="ID000062"><line class="cls-6" x1="57.88" y1="118.73" x2="76.44" y2="118.73"/></g><g id="ID000063"><line class="cls-6" x1="57.88" y1="103.51" x2="76.44" y2="103.51"/></g><g id="ID000064"><line class="cls-6" x1="57.88" y1="88.28" x2="76.44" y2="88.28"/></g><g id="ID000065"><polygon class="cls-9" points="59.12 88.28 65.14 91.71 65.14 84.86 59.12 88.28"/></g><g id="ID000066"><polygon class="cls-9" points="74.27 85.24 68.08 85.24 68.08 91.33 74.27 91.33 74.27 85.24"/></g><g id="ID000068"><text class="cls-3" transform="translate(139.22 190.28) scale(1.02 1)">A</text></g><g id="ID000069"><text class="cls-4" transform="translate(153.81 190.28) scale(1.02 1)">G</text></g><g id="ID000070"><text class="cls-4" transform="translate(192.92 190.28) scale(1.02 1)">U</text></g><g id="ID000071"><text class="cls-11" transform="translate(208.82 190.28) scale(1.02 1)">A</text></g><g id="ID000072"><text class="cls-12" transform="translate(224.28 190.28) scale(1.02 1)">A</text></g><g id="ID000073"><text class="cls-13" transform="translate(238.88 190.28) scale(1.02 1)">G</text></g><g id="ID000074"><line class="cls-6" x1="245.02" y1="173.28" x2="245.02" y2="163.13"/></g><g id="ID000075"><text class="cls-7" transform="translate(236.23 159.33) scale(1.02 1)">30</text></g><g id="ID000076"><text class="cls-13" transform="translate(254.34 190.28) scale(1.02 1)">G</text></g><g id="ID000077"><text class="cls-13" transform="translate(270.25 190.28) scale(1.02 1)">U</text></g><g id="ID000078"><text class="cls-13" transform="translate(285.71 190.28) scale(1.02 1)">C</text></g><g id="ID000079"><text class="cls-13" transform="translate(301.18 190.28) scale(1.02 1)">C</text></g><g id="ID000080"><text class="cls-12" transform="translate(317.08 190.28) scale(1.02 1)">A</text></g><g id="ID000081"><text class="cls-13" transform="translate(332.11 190.28) scale(1.02 1)">U</text></g><g id="ID000082"><text class="cls-13" transform="translate(347.58 190.28) scale(1.02 1)">U</text></g><g id="ID000083"><text class="cls-13" transform="translate(362.61 190.28) scale(1.02 1)">G</text></g><g id="ID000084"><text class="cls-13" transform="translate(378.51 197.89) scale(1.02 1)">C</text></g><g id="ID000085"><text class="cls-12" transform="translate(378.95 216.92) scale(1.02 1)">A</text></g><g id="ID000086"><line class="cls-6" x1="384.21" y1="220.22" x2="384.21" y2="230.37"/></g><g id="ID000087"><text class="cls-7" transform="translate(375.43 248.33) scale(1.02 1)">40</text></g><g id="ID000088"><text class="cls-13" transform="translate(363.05 220.73) scale(1.02 1)">C</text></g><g id="ID000089"><text class="cls-13" transform="translate(347.58 220.73) scale(1.02 1)">U</text></g><g id="ID000090"><text class="cls-13" transform="translate(332.11 220.73) scale(1.02 1)">C</text></g><g id="ID000091"><text class="cls-13" transform="translate(316.64 220.73) scale(1.02 1)">C</text></g><g id="ID000092"><text class="cls-13" transform="translate(300.74 220.73) scale(1.02 1)">G</text></g><g id="ID000093"><text class="cls-13" transform="translate(285.27 220.73) scale(1.02 1)">G</text></g><g id="ID000094"><text class="cls-13" transform="translate(269.8 220.73) scale(1.02 1)">G</text></g><g id="ID000095"><text class="cls-13" transform="translate(254.78 220.73) scale(1.02 1)">C</text></g><g id="ID000096"><text class="cls-13" transform="translate(239.31 220.73) scale(1.02 1)">C</text></g><g id="ID000097"><text class="cls-13" transform="translate(223.85 220.73) scale(1.02 1)">U</text></g><g id="ID000098"><line class="cls-6" x1="229.55" y1="224.03" x2="229.55" y2="234.18"/></g><g id="ID000099"><text class="cls-7" transform="translate(220.77 252.14) scale(1.02 1)">50</text></g><g id="ID000100"><text class="cls-4" transform="translate(208.21 220.56) scale(1.02 1)">G</text></g><g id="ID000101"><text class="cls-3" transform="translate(193.62 220.56) scale(1.02 1)">A</text></g><g id="ID000102"><line class="cls-6" x1="166.14" y1="183.43" x2="192.43" y2="183.43"/></g><g id="ID000103"><polygon class="cls-8" points="171.25 183.43 177.27 186.86 177.27 180.01 171.25 183.43"/></g><g id="ID000104"><polygon class="cls-8" points="186.4 180.39 180.22 180.39 180.22 186.48 186.4 186.48 186.4 180.39"/></g><g id="ID000105"><line class="cls-6" x1="198" y1="189" x2="198" y2="210"/></g><g id="ID000106"><polygon class="cls-9" points="198.1 193 197.91 193.01 197.71 193.03 197.52 193.07 197.33 193.11 197.15 193.17 196.96 193.24 196.79 193.32 196.61 193.42 196.45 193.52 196.29 193.64 196.14 193.76 195.99 193.89 195.86 194.03 195.73 194.18 195.61 194.34 195.51 194.51 195.41 194.68 195.32 194.85 195.25 195.03 195.19 195.22 195.14 195.41 195.1 195.6 195.07 195.8 195.06 195.99 195.05 196.19 195.06 196.38 195.09 196.57 195.12 196.76 195.17 196.95 195.23 197.14 195.3 197.32 195.38 197.5 195.47 197.66 195.57 197.83 195.69 197.99 195.81 198.13 195.94 198.27 196.09 198.41 196.24 198.53 196.39 198.64 196.56 198.74 196.73 198.83 196.9 198.91 197.08 198.98 197.27 199.04 197.46 199.09 197.65 199.12 197.84 199.14 198.04 199.15 198.23 199.14 198.42 199.13 198.62 199.1 198.81 199.06 199 199 199.18 198.94 199.36 198.86 199.53 198.78 199.7 198.68 199.87 198.57 200.02 198.45 200.17 198.32 200.31 198.18 200.44 198.04 200.56 197.88 200.68 197.72 200.78 197.56 200.87 197.38 200.95 197.2 201.02 197.02 201.07 196.83 201.12 196.64 201.15 196.45 201.17 196.25 201.18 196.06 201.18 195.86 201.16 195.67 201.13 195.48 201.09 195.29 201.04 195.1 200.97 194.92 200.9 194.74 200.81 194.57 200.71 194.4 200.6 194.24 200.49 194.09 200.36 193.94 200.22 193.81 200.07 193.68 199.92 193.56 199.76 193.45 199.59 193.36 199.42 193.27 199.24 193.2 199.06 193.13 198.87 193.08 198.68 193.04 198.49 193.02 198.3 193 198.1 193"/></g><g id="ID000107"><polygon class="cls-9" points="201.24 207.07 201.21 200.93 195.08 201.05 195.11 207.2 201.24 207.07"/></g><g id="ID000108"><polyline class="cls-6" points="213.78 188.91 213.78 188.91 213.87 188.79 213.87 188.79 213.87 188.79 213.83 209.17"/></g><g id="ID000109"><polygon class="cls-9" points="210.87 191.92 210.8 198.07 216.92 198.05 216.99 191.89 210.87 191.92"/></g><g id="ID000110"><polygon class="cls-9" points="213.76 206.98 217.27 200.97 210.38 200.99 213.76 206.98"/></g><g id="ID000111"><line class="cls-6" x1="229.55" y1="189.52" x2="229.55" y2="207.79"/></g><g id="ID000112"><line class="cls-6" x1="245.02" y1="189.52" x2="245.02" y2="207.79"/></g><g id="ID000113"><line class="cls-6" x1="260.48" y1="189.52" x2="260.48" y2="207.79"/></g><g id="ID000114"><polygon class="cls-8" points="275.95 201.7 276.15 201.69 276.34 201.68 276.54 201.64 276.73 201.6 276.92 201.55 277.1 201.48 277.28 201.4 277.45 201.31 277.62 201.22 277.79 201.11 277.94 200.99 278.08 200.86 278.22 200.72 278.35 200.57 278.47 200.42 278.58 200.26 278.68 200.09 278.76 199.92 278.84 199.74 278.9 199.56 278.96 199.37 279 199.18 279.02 198.99 279.04 198.8 279.04 198.61 279.03 198.41 279.01 198.22 278.98 198.03 278.93 197.84 278.87 197.66 278.8 197.48 278.72 197.3 278.63 197.13 278.53 196.97 278.41 196.81 278.29 196.66 278.15 196.52 278.01 196.38 277.86 196.26 277.7 196.15 277.54 196.04 277.37 195.95 277.19 195.87 277.01 195.79 276.82 195.73 276.63 195.68 276.44 195.65 276.25 195.62 276.05 195.61 275.85 195.61 275.66 195.62 275.46 195.65 275.27 195.68 275.08 195.73 274.89 195.79 274.71 195.87 274.53 195.95 274.36 196.04 274.2 196.15 274.04 196.26 273.89 196.38 273.75 196.52 273.61 196.66 273.49 196.81 273.38 196.97 273.27 197.13 273.18 197.3 273.1 197.48 273.03 197.66 272.97 197.84 272.92 198.03 272.89 198.22 272.87 198.41 272.86 198.61 272.86 198.8 272.88 198.99 272.9 199.18 272.94 199.37 273 199.56 273.06 199.74 273.14 199.92 273.22 200.09 273.32 200.26 273.43 200.42 273.55 200.57 273.68 200.72 273.82 200.86 273.96 200.99 274.12 201.11 274.28 201.22 274.45 201.31 274.62 201.4 274.8 201.48 274.99 201.55 275.17 201.6 275.37 201.64 275.56 201.68 275.75 201.69 275.95 201.7"/></g><g id="ID000115"><line class="cls-6" x1="291.42" y1="189.52" x2="291.42" y2="207.79"/></g><g id="ID000116"><line class="cls-6" x1="306.88" y1="189.52" x2="306.88" y2="207.79"/></g><g id="ID000118"><line class="cls-14" x1="51.69" y1="210" x2="51.69" y2="188"/></g><g id="ID000119"><polygon class="cls-8" points="47.05 202.95 49.37 200.41 50.14 197.88 50.53 195.34 51.69 190.27 52.85 195.34 53.24 197.88 54.01 200.41 56.33 202.95 47.05 202.95"/></g><text class="cls-15" transform="translate(301.73 246.56)">P3</text><text class="cls-16" transform="translate(11.57 255.29)">P1</text><text class="cls-17" transform="translate(9.57 154.29)">P2</text><rect class="cls-18" x="58" y="263" width="18" height="9"/><text class="cls-19" transform="translate(58.99 271.53)">Gln</text><text class="cls-20" transform="translate(3.99 20.29)">Glutamine-I Riboswitch</text><line class="cls-6" x1="68" y1="257" x2="56" y2="257"/><line class="cls-6" x1="69" y1="203.95" x2="97" y2="203.95"/><line class="cls-6" x1="97" y1="203.95" x2="97" y2="194"/><g id="ID000118-2" data-name="ID000118"><line class="cls-14" x1="195" y1="214.11" x2="148.43" y2="214.11"/></g><g id="ID000119-2" data-name="ID000119"><polygon class="cls-8" points="177.86 218.75 175.32 216.43 172.79 215.65 170.25 215.27 165.18 214.11 170.25 212.95 172.79 212.56 175.32 211.79 177.86 209.47 177.86 218.75"/></g><g id="ID000118-3" data-name="ID000118"><line class="cls-14" x1="140" y1="214.11" x2="105" y2="214.11"/></g><g id="ID000119-3" data-name="ID000119"><polygon class="cls-8" points="128.86 218.75 126.33 216.43 123.79 215.65 121.25 215.27 116.18 214.11 121.25 212.95 123.79 212.56 126.33 211.79 128.86 209.47 128.86 218.75"/></g><text class="cls-21" transform="translate(38.23 295.59)">5&apos;</text><text class="cls-21" transform="translate(87.23 323.59)">3&apos;</text></svg>