<?xml version="1.0" encoding="UTF-8"?><svg id="_图层_1" xmlns="http://www.w3.org/2000/svg" viewBox="0 0 290.61 375.31"><defs><style>.cls-1,.cls-2,.cls-3,.cls-4,.cls-5,.cls-6,.cls-7,.cls-8,.cls-9,.cls-10,.cls-11,.cls-12,.cls-13,.cls-14,.cls-15,.cls-16,.cls-17,.cls-18,.cls-19,.cls-20,.cls-21,.cls-22{font-family:ArialMT, Arial;}.cls-1,.cls-2,.cls-3,.cls-4,.cls-5,.cls-6,.cls-11,.cls-14,.cls-15,.cls-16,.cls-17,.cls-18,.cls-19,.cls-20,.cls-21,.cls-22{font-size:10.89px;isolation:isolate;}.cls-1,.cls-2,.cls-16{fill:#0a0bff;}.cls-1,.cls-21{letter-spacing:-.06em;}.cls-2,.cls-11,.cls-17{letter-spacing:-.06em;}.cls-23,.cls-24,.cls-25,.cls-26{stroke:#000;stroke-miterlimit:1.11;}.cls-23,.cls-24,.cls-26{stroke-width:.14px;}.cls-23,.cls-25{fill:none;}.cls-3,.cls-5,.cls-17,.cls-21{fill:#ffdf5c;}.cls-3,.cls-14,.cls-19,.cls-20{letter-spacing:-.06em;}.cls-4,.cls-14{fill:#c2c2ff;}.cls-24,.cls-9{fill:#fff;}.cls-6,.cls-12,.cls-19{fill:#ffaadc;}.cls-7,.cls-10,.cls-12{font-size:20px;}.cls-7,.cls-18,.cls-20{fill:#09fefe;}.cls-8{font-size:21px;}.cls-9{font-size:6.67px;}.cls-10,.cls-11,.cls-15{fill:#80db9e;}.cls-13{fill:#231815;font-size:14px;}.cls-25{stroke-width:.56px;}.cls-27{letter-spacing:-.04em;}.cls-28{fill:red;}</style></defs><g id="ID000002"><text class="cls-15" transform="translate(243.96 318.4)"><tspan x="0" y="0">G</tspan></text></g><g id="ID000003"><text class="cls-15" transform="translate(232.72 318.4)"><tspan x="0" y="0">G</tspan></text></g><g id="ID000004"><text class="cls-15" transform="translate(221.79 318.4)"><tspan x="0" y="0">C</tspan></text></g><g id="ID000005"><text class="cls-15" transform="translate(210.54 318.4)"><tspan x="0" y="0">U</tspan></text></g><g id="ID000006"><text class="cls-15" transform="translate(199.31 318.4)"><tspan x="0" y="0">C</tspan></text></g><g id="ID000007"><text class="cls-15" transform="translate(188.07 318.4)"><tspan x="0" y="0">U</tspan></text></g><g id="ID000008"><text class="cls-15" transform="translate(176.53 318.4)"><tspan x="0" y="0">G</tspan></text></g><g id="ID000009"><text class="cls-16" transform="translate(165.29 318.4)"><tspan x="0" y="0">G</tspan></text></g><g id="ID000010"><text class="cls-2" transform="translate(154.66 318.4)"><tspan x="0" y="0">A</tspan></text></g><g id="ID000011"><text class="cls-16" transform="translate(142.81 318.4)"><tspan x="0" y="0">G</tspan></text></g><g id="ID000012"><line class="cls-23" x1="147.05" y1="320.83" x2="147.05" y2="328.32"/></g><g id="ID000013"><text class="cls-22" transform="translate(140.99 341.58)"><tspan x="0" y="0">10</tspan></text></g><g id="ID000014"><text class="cls-21" transform="translate(132.18 295.92)"><tspan x="0" y="0">A</tspan></text></g><g id="ID000015"><text class="cls-5" transform="translate(142.81 295.92)"><tspan x="0" y="0">G</tspan></text></g><g id="ID000016"><text class="cls-5" transform="translate(154.05 295.92)"><tspan x="0" y="0">G</tspan></text></g><g id="ID000017"><line class="cls-23" x1="158.29" y1="283.37" x2="158.29" y2="275.88"/></g><g id="ID000018"><text class="cls-22" transform="translate(152.23 273.07)"><tspan x="0" y="0">80</tspan></text></g><g id="ID000019"><text class="cls-17" transform="translate(165.89 295.92)"><tspan x="0" y="0">A</tspan></text></g><g id="ID000020"><text class="cls-15" transform="translate(176.83 295.92)"><tspan x="0" y="0">C</tspan></text></g><g id="ID000021"><text class="cls-11" transform="translate(188.37 295.92)"><tspan x="0" y="0">A</tspan></text></g><g id="ID000022"><text class="cls-15" transform="translate(199 295.92)"><tspan x="0" y="0">G</tspan></text></g><g id="ID000023"><text class="cls-11" transform="translate(210.84 295.92)"><tspan x="0" y="0">A</tspan></text></g><g id="ID000024"><text class="cls-15" transform="translate(221.48 295.92)"><tspan x="0" y="0">G</tspan></text></g><g id="ID000025"><text class="cls-15" transform="translate(233.02 295.92)"><tspan x="0" y="0">U</tspan></text></g><g id="ID000026"><text class="cls-15" transform="translate(244.26 295.92)"><tspan x="0" y="0">C</tspan></text></g><g id="ID000027"><line class="cls-23" x1="248.19" y1="308.84" x2="248.19" y2="295.36"/></g><g id="ID000028"><polygon class="cls-26" points="236.96 299.85 236.81 299.86 236.67 299.87 236.53 299.89 236.39 299.92 236.26 299.97 236.12 300.01 235.99 300.07 235.86 300.14 235.74 300.21 235.62 300.29 235.51 300.38 235.41 300.47 235.31 300.58 235.21 300.68 235.13 300.8 235.05 300.92 234.98 301.04 234.91 301.17 234.86 301.3 234.81 301.43 234.77 301.57 234.74 301.71 234.72 301.85 234.71 301.99 234.71 302.14 234.72 302.28 234.73 302.42 234.76 302.56 234.79 302.7 234.83 302.84 234.88 302.97 234.94 303.1 235.01 303.22 235.08 303.34 235.17 303.46 235.26 303.57 235.35 303.68 235.46 303.78 235.57 303.87 235.68 303.95 235.8 304.03 235.93 304.1 236.06 304.16 236.19 304.21 236.32 304.26 236.46 304.29 236.6 304.32 236.74 304.34 236.89 304.35 237.03 304.35 237.17 304.34 237.31 304.32 237.45 304.29 237.59 304.26 237.72 304.21 237.86 304.16 237.99 304.1 238.11 304.03 238.23 303.95 238.35 303.87 238.45 303.78 238.56 303.68 238.65 303.57 238.74 303.46 238.83 303.34 238.9 303.22 238.97 303.1 239.03 302.97 239.08 302.84 239.12 302.7 239.16 302.56 239.18 302.42 239.2 302.28 239.2 302.14 239.2 301.99 239.19 301.85 239.17 301.71 239.14 301.57 239.1 301.43 239.06 301.3 239 301.17 238.94 301.04 238.87 300.92 238.79 300.8 238.7 300.68 238.61 300.58 238.51 300.47 238.4 300.38 238.29 300.29 238.17 300.21 238.05 300.14 237.92 300.07 237.79 300.01 237.66 299.97 237.52 299.92 237.38 299.89 237.24 299.87 237.1 299.86 236.96 299.85"/></g><g id="ID000029"><line class="cls-23" x1="225.72" y1="308.84" x2="225.72" y2="295.36"/></g><g id="ID000030"><line class="cls-23" x1="214.48" y1="308.84" x2="214.48" y2="295.36"/></g><g id="ID000031"><line class="cls-23" x1="203.24" y1="308.84" x2="203.24" y2="295.36"/></g><g id="ID000032"><line class="cls-23" x1="192" y1="308.84" x2="192" y2="295.36"/></g><g id="ID000033"><line class="cls-23" x1="180.77" y1="308.84" x2="180.77" y2="295.36"/></g><g id="ID000034"><line class="cls-23" x1="169.53" y1="308.84" x2="169.53" y2="295.36"/></g><g id="ID000035"><polygon class="cls-24" points="169.53 307.94 172.06 303.56 167 303.56 169.53 307.94"/></g><g id="ID000036"><polygon class="cls-24" points="167.28 296.93 167.28 301.43 171.77 301.43 171.77 296.93 167.28 296.93"/></g><g id="ID000037"><line class="cls-23" x1="158.29" y1="308.84" x2="158.29" y2="295.36"/></g><g id="ID000038"><polygon class="cls-24" points="160.54 307.27 160.54 302.77 156.04 302.77 156.04 307.27 160.54 307.27"/></g><g id="ID000039"><polygon class="cls-24" points="158.29 296.26 155.76 300.64 160.82 300.64 158.29 296.26"/></g><g id="ID000040"><line class="cls-23" x1="147.05" y1="308.84" x2="147.05" y2="295.36"/></g><g id="ID000041"><polygon class="cls-24" points="147.05 299.85 146.91 299.86 146.77 299.87 146.63 299.89 146.49 299.92 146.35 299.97 146.22 300.01 146.09 300.07 145.96 300.14 145.84 300.21 145.72 300.29 145.61 300.38 145.5 300.47 145.4 300.58 145.31 300.68 145.22 300.8 145.14 300.92 145.07 301.04 145.01 301.17 144.95 301.3 144.91 301.43 144.87 301.57 144.84 301.71 144.82 301.85 144.81 301.99 144.8 302.14 144.81 302.28 144.83 302.42 144.85 302.56 144.89 302.7 144.93 302.84 144.98 302.97 145.04 303.1 145.1 303.22 145.18 303.34 145.26 303.46 145.35 303.57 145.45 303.68 145.55 303.78 145.66 303.87 145.78 303.95 145.9 304.03 146.02 304.1 146.15 304.16 146.28 304.21 146.42 304.26 146.56 304.29 146.7 304.32 146.84 304.34 146.98 304.35 147.12 304.35 147.27 304.34 147.41 304.32 147.55 304.29 147.68 304.26 147.82 304.21 147.95 304.16 148.08 304.1 148.21 304.03 148.33 303.95 148.44 303.87 148.55 303.78 148.65 303.68 148.75 303.57 148.84 303.46 148.92 303.34 149 303.22 149.07 303.1 149.12 302.97 149.18 302.84 149.22 302.7 149.25 302.56 149.28 302.42 149.29 302.28 149.3 302.14 149.3 301.99 149.29 301.85 149.27 301.71 149.24 301.57 149.2 301.43 149.15 301.3 149.1 301.17 149.03 301.04 148.96 300.92 148.88 300.8 148.8 300.68 148.7 300.58 148.6 300.47 148.5 300.38 148.38 300.29 148.27 300.21 148.14 300.14 148.02 300.07 147.89 300.01 147.75 299.97 147.62 299.92 147.48 299.89 147.34 299.87 147.19 299.86 147.05 299.85"/></g><g id="ID000043"><text class="cls-1" transform="translate(132.18 318.4)"><tspan x="0" y="0">A</tspan></text></g><g id="ID000044"><text class="cls-6" transform="translate(64.15 281.87)"><tspan x="0" y="0">G</tspan></text></g><g id="ID000045"><text class="cls-19" transform="translate(64.75 293.11)"><tspan x="0" y="0">A</tspan></text></g><g id="ID000046"><text class="cls-19" transform="translate(64.75 304.35)"><tspan x="0" y="0">A</tspan></text></g><g id="ID000047"><text class="cls-6" transform="translate(64.45 315.59)"><tspan x="0" y="0">C</tspan></text></g><g id="ID000048"><text class="cls-6" transform="translate(64.45 326.82)"><tspan x="0" y="0">C</tspan></text></g><g id="ID000049"><text class="cls-6" transform="translate(64.15 338.06)"><tspan x="0" y="0">G</tspan></text></g><g id="ID000050"><text class="cls-4" transform="translate(64.45 349.3)"><tspan x="0" y="0">U</tspan></text></g><g id="ID000051"><text class="cls-4" transform="translate(64.45 360.54)"><tspan x="0" y="0">U</tspan></text></g><g id="ID000052"><text class="cls-4" transform="translate(58.83 371.78)"><tspan x="0" y="0">U</tspan></text></g><g id="ID000053"><line class="cls-23" x1="70.26" y1="366.72" x2="77.75" y2="366.72"/></g><g id="ID000054"><text class="cls-22" transform="translate(77.75 371.78)"><tspan x="0" y="0">20</tspan></text></g><g id="ID000055"><text class="cls-14" transform="translate(47.89 371.78)"><tspan x="0" y="0">A</tspan></text></g><g id="ID000056"><text class="cls-14" transform="translate(42.28 360.54)"><tspan x="0" y="0">A</tspan></text></g><g id="ID000057"><text class="cls-4" transform="translate(41.97 349.3)"><tspan x="0" y="0">U</tspan></text></g><g id="ID000058"><text class="cls-6" transform="translate(41.97 338.06)"><tspan x="0" y="0">C</tspan></text></g><g id="ID000059"><text class="cls-6" transform="translate(41.67 326.82)"><tspan x="0" y="0">G</tspan></text></g><g id="ID000060"><text class="cls-6" transform="translate(41.67 315.59)"><tspan x="0" y="0">G</tspan></text></g><g id="ID000061"><text class="cls-6" transform="translate(41.97 304.35)"><tspan x="0" y="0">U</tspan></text></g><g id="ID000062"><text class="cls-6" transform="translate(41.97 293.11)"><tspan x="0" y="0">C</tspan></text></g><g id="ID000063"><line class="cls-23" x1="132.43" y1="310.38" x2="71.77" y2="257.3"/></g><g id="ID000064"><polygon class="cls-24" points="99.9 281.92 101.53 286.7 104.86 282.9 99.9 281.92"/></g><g id="ID000065"><line class="cls-23" x1="64.36" y1="278.82" x2="49.93" y2="286.04"/></g><g id="ID000066"><polygon class="cls-26" points="55.14 283.44 55.2 283.56 55.28 283.69 55.36 283.8 55.45 283.91 55.55 284.02 55.65 284.11 55.76 284.21 55.88 284.29 56 284.37 56.12 284.43 56.25 284.5 56.39 284.55 56.52 284.59 56.66 284.63 56.8 284.65 56.94 284.67 57.08 284.68 57.23 284.68 57.37 284.67 57.51 284.65 57.65 284.62 57.79 284.59 57.92 284.54 58.06 284.49 58.18 284.43 58.31 284.36 58.43 284.28 58.54 284.2 58.65 284.1 58.75 284 58.85 283.9 58.94 283.79 59.02 283.67 59.1 283.55 59.16 283.42 59.22 283.29 59.27 283.16 59.32 283.03 59.35 282.89 59.37 282.75 59.39 282.6 59.39 282.46 59.39 282.32 59.38 282.18 59.36 282.04 59.33 281.9 59.29 281.76 59.24 281.62 59.19 281.49 59.12 281.37 59.05 281.24 58.97 281.12 58.89 281.01 58.79 280.9 58.69 280.8 58.59 280.71 58.47 280.62 58.36 280.54 58.23 280.47 58.11 280.4 57.98 280.34 57.84 280.3 57.7 280.26 57.56 280.23 57.42 280.2 57.28 280.19 57.14 280.19 57 280.19 56.85 280.21 56.71 280.23 56.57 280.26 56.44 280.3 56.3 280.35 56.17 280.41 56.05 280.47 55.93 280.55 55.81 280.63 55.7 280.72 55.59 280.81 55.49 280.91 55.4 281.02 55.31 281.14 55.23 281.26 55.16 281.38 55.1 281.51 55.04 281.64 55 281.77 54.96 281.91 54.93 282.05 54.91 282.19 54.9 282.33 54.9 282.48 54.91 282.62 54.92 282.76 54.95 282.9 54.98 283.04 55.03 283.18 55.08 283.31 55.14 283.44"/></g><g id="ID000067"><line class="cls-23" x1="63.89" y1="299.29" x2="50.4" y2="299.29"/></g><g id="ID000068"><line class="cls-23" x1="63.89" y1="310.53" x2="50.4" y2="310.53"/></g><g id="ID000069"><line class="cls-23" x1="63.89" y1="321.77" x2="50.4" y2="321.77"/></g><g id="ID000070"><line class="cls-23" x1="63.89" y1="333.01" x2="50.4" y2="333.01"/></g><g id="ID000071"><line class="cls-25" x1="45.91" y1="283.56" x2="45.91" y2="270.07"/></g><g id="ID000072"><polygon class="cls-26" points="42.54 280.56 44.22 278.69 44.79 276.81 45.07 274.94 45.91 271.2 46.75 274.94 47.03 276.81 47.59 278.69 49.28 280.56 42.54 280.56"/></g><g id="ID000074"><text class="cls-18" transform="translate(41.67 270.63)"><tspan x="0" y="0">G</tspan></text></g><g id="ID000075"><text class="cls-18" transform="translate(41.97 259.4)"><tspan x="0" y="0">C</tspan></text></g><g id="ID000076"><line class="cls-23" x1="38.42" y1="254.34" x2="30.92" y2="254.34"/></g><g id="ID000077"><text class="cls-22" transform="translate(18.81 259.4)"><tspan x="0" y="0">30</tspan></text></g><g id="ID000078"><text class="cls-18" transform="translate(41.97 248.16)"><tspan x="0" y="0">C</tspan></text></g><g id="ID000079"><text class="cls-18" transform="translate(41.67 236.92)"><tspan x="0" y="0">G</tspan></text></g><g id="ID000080"><text class="cls-20" transform="translate(42.28 225.68)"><tspan x="0" y="0">A</tspan></text></g><g id="ID000081"><text class="cls-18" transform="translate(64.45 225.68)"><tspan x="0" y="0">C</tspan></text></g><g id="ID000082"><line class="cls-23" x1="75.88" y1="220.62" x2="83.37" y2="220.62"/></g><g id="ID000083"><text class="cls-22" transform="translate(83.37 225.68)"><tspan x="0" y="0">70</tspan></text></g><g id="ID000084"><text class="cls-20" transform="translate(64.75 236.92)"><tspan x="0" y="0">A</tspan></text></g><g id="ID000085"><text class="cls-18" transform="translate(64.15 248.16)"><tspan x="0" y="0">G</tspan></text></g><g id="ID000086"><text class="cls-18" transform="translate(64.15 259.4)"><tspan x="0" y="0">G</tspan></text></g><g id="ID000087"><text class="cls-18" transform="translate(64.45 270.63)"><tspan x="0" y="0">C</tspan></text></g><g id="ID000088"><text class="cls-3" transform="translate(106.89 270.63)"><tspan x="0" y="0">A</tspan></text></g><g id="ID000089"><text class="cls-3" transform="translate(112.51 284.68)"><tspan x="0" y="0">A</tspan></text></g><g id="ID000090"><text class="cls-3" transform="translate(120.94 295.92)"><tspan x="0" y="0">A</tspan></text></g><g id="ID000091"><line class="cls-23" x1="50.4" y1="265.58" x2="63.89" y2="265.58"/></g><g id="ID000092"><line class="cls-23" x1="50.4" y1="254.34" x2="63.89" y2="254.34"/></g><g id="ID000093"><line class="cls-23" x1="50.4" y1="243.1" x2="63.89" y2="243.1"/></g><g id="ID000094"><line class="cls-23" x1="68.39" y1="199.83" x2="68.39" y2="216.13"/></g><g id="ID000095"><polygon class="cls-26" points="68.39 210.23 68.53 210.22 68.67 210.21 68.81 210.19 68.95 210.16 69.09 210.12 69.22 210.07 69.35 210.01 69.48 209.94 69.6 209.87 69.72 209.79 69.83 209.7 69.94 209.61 70.04 209.51 70.13 209.4 70.22 209.28 70.29 209.17 70.37 209.04 70.43 208.91 70.48 208.78 70.53 208.65 70.57 208.51 70.6 208.37 70.62 208.23 70.63 208.09 70.63 207.95 70.63 207.8 70.61 207.66 70.58 207.52 70.55 207.38 70.51 207.25 70.46 207.11 70.4 206.98 70.33 206.86 70.26 206.74 70.17 206.62 70.08 206.51 69.99 206.4 69.88 206.31 69.77 206.21 69.66 206.13 69.54 206.05 69.41 205.98 69.29 205.92 69.15 205.87 69.02 205.82 68.88 205.79 68.74 205.76 68.6 205.74 68.46 205.73 68.31 205.73 68.17 205.74 68.03 205.76 67.89 205.79 67.75 205.82 67.62 205.87 67.48 205.92 67.35 205.98 67.23 206.05 67.11 206.13 67 206.21 66.89 206.31 66.78 206.4 66.69 206.51 66.6 206.62 66.51 206.74 66.44 206.86 66.37 206.98 66.31 207.11 66.26 207.25 66.22 207.38 66.18 207.52 66.16 207.66 66.14 207.8 66.14 207.95 66.14 208.09 66.15 208.23 66.17 208.37 66.2 208.51 66.24 208.65 66.29 208.78 66.34 208.91 66.4 209.04 66.48 209.17 66.55 209.28 66.64 209.4 66.73 209.51 66.83 209.61 66.94 209.7 67.05 209.79 67.17 209.87 67.29 209.94 67.42 210.01 67.55 210.07 67.68 210.12 67.82 210.16 67.96 210.19 68.1 210.21 68.24 210.22 68.39 210.23"/></g><g id="ID000096"><line class="cls-23" x1="48.9" y1="198.7" x2="65.4" y2="217.26"/></g><g id="ID000097"><polygon class="cls-26" points="53.27 203.62 54.29 208.57 58.07 205.21 53.27 203.62"/></g><g id="ID000098"><polygon class="cls-26" points="62.26 210.35 59.27 206.99 55.92 209.98 58.9 213.34 62.26 210.35"/></g><g id="ID000099"><line class="cls-23" x1="48.9" y1="209.94" x2="65.4" y2="228.5"/></g><g id="ID000100"><polygon class="cls-24" points="52.03 216.85 55.02 220.21 58.38 217.22 55.39 213.86 52.03 216.85"/></g><g id="ID000101"><polygon class="cls-24" points="61.03 223.59 60.01 218.63 56.23 221.99 61.03 223.59"/></g><g id="ID000103"><text class="cls-20" transform="translate(42.28 211.63)"><tspan x="0" y="0">A</tspan></text></g><g id="ID000104"><text class="cls-18" transform="translate(64.15 200.4)"><tspan x="0" y="0">G</tspan></text></g><g id="ID000105"><text class="cls-18" transform="translate(64.15 189.16)"><tspan x="0" y="0">G</tspan></text></g><g id="ID000106"><text class="cls-20" transform="translate(64.75 177.92)"><tspan x="0" y="0">A</tspan></text></g><g id="ID000107"><text class="cls-18" transform="translate(64.15 166.68)"><tspan x="0" y="0">G</tspan></text></g><g id="ID000108"><text class="cls-18" transform="translate(64.45 155.44)"><tspan x="0" y="0">C</tspan></text></g><g id="ID000109"><text class="cls-20" transform="translate(64.75 141.4)"><tspan x="0" y="0">A</tspan></text></g><g id="ID000110"><line class="cls-23" x1="75.88" y1="136.34" x2="83.37" y2="136.34"/></g><g id="ID000111"><text class="cls-22" transform="translate(83.37 141.4)"><tspan x="0" y="0">40</tspan></text></g><g id="ID000112"><text class="cls-20" transform="translate(42.28 144.2)"><tspan x="0" y="0">A</tspan></text></g><g id="ID000113"><text class="cls-20" transform="translate(42.28 155.44)"><tspan x="0" y="0">A</tspan></text></g><g id="ID000114"><text class="cls-18" transform="translate(41.97 166.68)"><tspan x="0" y="0">C</tspan></text></g><g id="ID000115"><text class="cls-18" transform="translate(41.97 177.92)"><tspan x="0" y="0">U</tspan></text></g><g id="ID000116"><text class="cls-18" transform="translate(41.97 189.16)"><tspan x="0" y="0">C</tspan></text></g><g id="ID000117"><text class="cls-18" transform="translate(41.97 200.4)"><tspan x="0" y="0">U</tspan></text></g><g id="ID000118"><line class="cls-23" x1="63.89" y1="184.1" x2="50.4" y2="184.1"/></g><g id="ID000119"><line class="cls-23" x1="63.89" y1="172.86" x2="50.4" y2="172.86"/></g><g id="ID000120"><line class="cls-23" x1="63.89" y1="161.62" x2="50.4" y2="161.62"/></g><g id="ID000121"><line class="cls-23" x1="64.36" y1="148.38" x2="49.93" y2="141.16"/></g><g id="ID000122"><polygon class="cls-24" points="61.77 147.08 61.83 146.95 61.88 146.82 61.92 146.68 61.96 146.54 61.98 146.4 62 146.26 62.01 146.12 62.01 145.97 62 145.83 61.98 145.69 61.95 145.55 61.91 145.41 61.86 145.28 61.81 145.15 61.75 145.02 61.67 144.9 61.6 144.78 61.51 144.66 61.42 144.55 61.32 144.45 61.21 144.36 61.1 144.27 60.98 144.19 60.86 144.11 60.73 144.05 60.6 143.99 60.47 143.94 60.33 143.9 60.19 143.87 60.05 143.85 59.91 143.83 59.77 143.83 59.63 143.83 59.48 143.84 59.34 143.87 59.2 143.9 59.07 143.94 58.93 143.98 58.8 144.04 58.67 144.11 58.55 144.18 58.43 144.26 58.32 144.35 58.21 144.44 58.11 144.54 58.02 144.65 57.93 144.76 57.85 144.88 57.78 145.01 57.72 145.13 57.66 145.26 57.62 145.4 57.58 145.54 57.55 145.68 57.53 145.82 57.52 145.96 57.51 146.1 57.52 146.24 57.53 146.39 57.56 146.53 57.59 146.66 57.63 146.8 57.68 146.93 57.74 147.06 57.81 147.19 57.88 147.31 57.97 147.43 58.06 147.54 58.15 147.64 58.26 147.74 58.36 147.84 58.48 147.92 58.6 148 58.72 148.07 58.85 148.13 58.98 148.18 59.12 148.23 59.26 148.26 59.4 148.29 59.54 148.31 59.68 148.32 59.82 148.32 59.97 148.31 60.11 148.29 60.25 148.27 60.39 148.23 60.52 148.19 60.65 148.14 60.78 148.07 60.91 148.01 61.03 147.93 61.14 147.85 61.25 147.75 61.36 147.66 61.45 147.55 61.54 147.44 61.63 147.32 61.7 147.2 61.77 147.08"/></g><g id="ID000123"><polygon class="cls-24" points="51.52 144.47 55.54 146.48 57.55 142.46 53.53 140.44 51.52 144.47"/></g><g id="ID000125"><text class="cls-20" transform="translate(64.75 121.73)"><tspan x="0" y="0">A</tspan></text></g><g id="ID000126"><text class="cls-18" transform="translate(64.15 110.49)"><tspan x="0" y="0">G</tspan></text></g><g id="ID000127"><text class="cls-18" transform="translate(64.45 99.25)"><tspan x="0" y="0">C</tspan></text></g><g id="ID000128"><text class="cls-18" transform="translate(64.45 88.01)"><tspan x="0" y="0">U</tspan></text></g><g id="ID000129"><text class="cls-18" transform="translate(64.45 76.78)"><tspan x="0" y="0">C</tspan></text></g><g id="ID000130"><text class="cls-18" transform="translate(64.45 65.54)"><tspan x="0" y="0">U</tspan></text></g><g id="ID000131"><text class="cls-18" transform="translate(64.15 54.3)"><tspan x="0" y="0">G</tspan></text></g><g id="ID000132"><text class="cls-18" transform="translate(64.45 43.06)"><tspan x="0" y="0">C</tspan></text></g><g id="ID000133"><text class="cls-18" transform="translate(64.15 31.82)"><tspan x="0" y="0">G</tspan></text></g><g id="ID000134"><text class="cls-4" transform="translate(64.15 20.58)"><tspan x="0" y="0">G</tspan></text></g><g id="ID000135"><line class="cls-23" x1="75.88" y1="15.53" x2="83.37" y2="15.53"/></g><g id="ID000136"><text class="cls-22" transform="translate(83.37 20.58)"><tspan x="0" y="0">50</tspan></text></g><g id="ID000137"><text class="cls-14" transform="translate(59.13 9.35)"><tspan x="0" y="0">A</tspan></text></g><g id="ID000138"><text class="cls-14" transform="translate(47.89 9.35)"><tspan x="0" y="0">A</tspan></text></g><g id="ID000139"><text class="cls-14" transform="translate(42.28 20.58)"><tspan x="0" y="0">A</tspan></text></g><g id="ID000140"><text class="cls-18" transform="translate(41.97 31.82)"><tspan x="0" y="0">C</tspan></text></g><g id="ID000141"><text class="cls-18" transform="translate(41.67 43.06)"><tspan x="0" y="0">G</tspan></text></g><g id="ID000142"><text class="cls-18" transform="translate(41.97 54.3)"><tspan x="0" y="0">C</tspan></text></g><g id="ID000143"><text class="cls-20" transform="translate(42.28 65.54)"><tspan x="0" y="0">A</tspan></text></g><g id="ID000144"><text class="cls-18" transform="translate(41.67 76.78)"><tspan x="0" y="0">G</tspan></text></g><g id="ID000145"><text class="cls-20" transform="translate(42.28 88.01)"><tspan x="0" y="0">A</tspan></text></g><g id="ID000146"><text class="cls-18" transform="translate(41.67 99.25)"><tspan x="0" y="0">G</tspan></text></g><g id="ID000147"><line class="cls-23" x1="38.42" y1="94.2" x2="30.92" y2="94.2"/></g><g id="ID000148"><text class="cls-22" transform="translate(18.81 99.25)"><tspan x="0" y="0">60</tspan></text></g><g id="ID000149"><text class="cls-18" transform="translate(41.97 110.49)"><tspan x="0" y="0">U</tspan></text></g><g id="ID000150"><text class="cls-18" transform="translate(41.67 121.73)"><tspan x="0" y="0">G</tspan></text></g><g id="ID000151"><text class="cls-20" transform="translate(42.28 132.97)"><tspan x="0" y="0">A</tspan></text></g><g id="ID000152"><line class="cls-23" x1="63.89" y1="116.67" x2="50.4" y2="116.67"/></g><g id="ID000153"><polygon class="cls-24" points="62.32 114.42 57.82 114.42 57.82 118.92 62.32 118.92 62.32 114.42"/></g><g id="ID000154"><polygon class="cls-24" points="51.31 116.67 55.68 119.2 55.68 114.14 51.31 116.67"/></g><g id="ID000155"><polygon class="cls-26" points="54.9 105.43 54.9 105.58 54.92 105.72 54.94 105.86 54.97 106 55.01 106.13 55.06 106.27 55.12 106.4 55.18 106.53 55.26 106.65 55.34 106.77 55.43 106.88 55.52 106.98 55.62 107.08 55.73 107.18 55.84 107.26 55.96 107.34 56.09 107.41 56.21 107.48 56.34 107.53 56.48 107.58 56.62 107.62 56.76 107.65 56.9 107.67 57.04 107.68 57.18 107.68 57.33 107.67 57.47 107.66 57.61 107.63 57.75 107.6 57.88 107.56 58.02 107.51 58.14 107.45 58.27 107.38 58.39 107.31 58.51 107.22 58.62 107.13 58.72 107.04 58.82 106.93 58.91 106.82 59 106.71 59.08 106.59 59.14 106.46 59.21 106.33 59.26 106.2 59.3 106.07 59.34 105.93 59.37 105.79 59.38 105.65 59.39 105.5 59.39 105.36 59.38 105.22 59.37 105.08 59.34 104.94 59.3 104.8 59.26 104.67 59.21 104.53 59.14 104.4 59.08 104.28 59 104.16 58.91 104.04 58.82 103.94 58.72 103.83 58.62 103.73 58.51 103.64 58.39 103.56 58.27 103.49 58.14 103.42 58.02 103.36 57.88 103.31 57.75 103.27 57.61 103.23 57.47 103.21 57.33 103.19 57.18 103.19 57.04 103.19 56.9 103.2 56.76 103.22 56.62 103.25 56.48 103.29 56.34 103.33 56.21 103.39 56.09 103.45 55.96 103.52 55.84 103.6 55.73 103.69 55.62 103.78 55.52 103.88 55.43 103.99 55.34 104.1 55.26 104.22 55.18 104.34 55.12 104.47 55.06 104.6 55.01 104.73 54.97 104.87 54.94 105.01 54.92 105.15 54.9 105.29 54.9 105.43"/></g><g id="ID000156"><line class="cls-23" x1="63.89" y1="94.2" x2="50.4" y2="94.2"/></g><g id="ID000157"><line class="cls-23" x1="63.89" y1="82.96" x2="50.4" y2="82.96"/></g><g id="ID000158"><line class="cls-23" x1="63.89" y1="71.72" x2="50.4" y2="71.72"/></g><g id="ID000159"><line class="cls-23" x1="63.89" y1="60.48" x2="50.4" y2="60.48"/></g><g id="ID000160"><line class="cls-23" x1="63.89" y1="49.24" x2="50.4" y2="49.24"/></g><g id="ID000161"><line class="cls-23" x1="63.89" y1="38.01" x2="50.4" y2="38.01"/></g><g id="ID000162"><line class="cls-23" x1="63.89" y1="26.77" x2="50.4" y2="26.77"/></g><g id="ID000164"><line class="cls-25" x1="68.39" y1="131.84" x2="68.39" y2="121.17"/></g><g id="ID000165"><polygon points="65.01 130.25 66.7 128.38 67.26 126.5 67.54 124.63 68.39 120.89 69.23 124.63 69.51 126.5 70.07 128.38 71.76 130.25 65.01 130.25"/></g><g id="ID000166"><line class="cls-25" x1="131.86" y1="311.2" x2="72.34" y2="278.96"/></g><g id="ID000167"><polygon points="103.79 299.83 102.94 297.45 101.56 296.06 100.05 294.93 97.16 292.4 100.85 293.44 102.63 294.09 104.55 294.49 107 293.9 103.79 299.83"/></g><g id="ID000168"><line class="cls-25" x1="49.93" y1="204.57" x2="64.36" y2="197.35"/></g><g id="ID000169"><polygon points="52.29 199.62 54.72 200.29 56.64 199.95 58.45 199.37 62.17 198.44 59.2 200.87 57.65 201.96 56.23 203.3 55.3 205.65 52.29 199.62"/></g><g id="ID000170"><line class="cls-25" x1="72.88" y1="265.58" x2="106.03" y2="265.58"/></g><g id="ID000171"><polygon points="85.71 262.2 87.58 263.89 89.46 264.45 91.33 264.73 95.08 265.58 91.33 266.42 89.46 266.7 87.58 267.26 85.71 268.95 85.71 262.2"/></g><text class="cls-8" transform="translate(121.39 35.56)"><tspan x="0" y="0">Glycine riboswitch</tspan></text><text class="cls-10" transform="translate(203 273.29)"><tspan x="0" y="0">P1</tspan></text><text class="cls-12" transform="translate(6 318.29)"><tspan x="0" y="0">P2</tspan></text><text class="cls-7" transform="translate(0 153.29)"><tspan x="0" y="0">P3</tspan></text><g><rect class="cls-28" x="51.43" y="188.92" width="12" height="7.33"/><text class="cls-9" transform="translate(52.09 194.61)"><tspan x="0" y="0">Gly</tspan></text></g><text class="cls-13" transform="translate(258.43 321.92)"><tspan x="0" y="0">5</tspan><tspan class="cls-27" x="7.79" y="0">’</tspan></text><text class="cls-13" transform="translate(256.43 291.92)"><tspan x="0" y="0">3</tspan><tspan class="cls-27" x="7.79" y="0">’</tspan></text></svg>