<?xml version="1.0" encoding="utf-8"?>
<!-- Generator: Adobe Illustrator 25.4.1, SVG Export Plug-In . SVG Version: 6.00 Build 0)  -->
<svg version="1.1" id="图层_1" xmlns="http://www.w3.org/2000/svg" xmlns:xlink="http://www.w3.org/1999/xlink" x="0px" y="0px"
	 viewBox="0 0 400 400" style="enable-background:new 0 0 400 400;" xml:space="preserve">
<style type="text/css">
	.st0{fill:none;stroke:#000000;stroke-width:0.5;}
	.st1{fill:#FF870A;}
	.st2{font-family:'ArialMT';}
	.st3{font-size:9.24px;}
	.st4{fill:#80DB9E;}
	.st5{font-size:7.2731px;}
	.st6{font-size:14px;}
	.st7{font-size:10.9096px;}
	.st8{fill:#FFAADC;}
	.st9{fill:none;stroke:#000000;}
	.st10{stroke:#000000;stroke-width:0.5;}
	.st11{fill:#FFFFFF;stroke:#000000;stroke-width:0.5;}
	.st12{fill:#09FEFE;}
	.st13{font-size:9.2449px;}
	.st14{fill:#0A0BFF;}
	.st15{fill:none;stroke:#FF0B0C;stroke-width:0.5;stroke-miterlimit:10;}
	.st16{font-size:8px;}
	.st17{fill:none;stroke:#251E1C;stroke-miterlimit:10;}
	.st18{font-size:18px;}
</style>
<g id="ID000204">
	<line class="st0" x1="150.6" y1="174.5" x2="265.7" y2="151.5"/>
</g>
<g id="ID000071">
	<g>
		<g transform="translate(181.737,259.026)">
			<g transform="rotate(-0.0)">
				<text transform="matrix(1 0 0 1 -38.4939 -57.0643)" class="st1 st2 st3">G</text>
			</g>
		</g>
	</g>
</g>
<g id="ID000071_00000042723834305584145200000005489636367902942636_">
	<g>
		<g transform="translate(181.737,259.026)">
			<g transform="rotate(-0.0)">
				<text transform="matrix(1 0 0 1 -16.0833 -28.4763)" class="st1 st2 st3">G</text>
			</g>
		</g>
	</g>
</g>
<g id="ID000074">
	<g>
		<g transform="translate(194.234,259.026)">
			<g transform="rotate(-0.0)">
				<text transform="matrix(1 0 0 1 -51.0144 -9.4744)" class="st4 st2 st3">C</text>
			</g>
		</g>
	</g>
</g>
<g id="ID000077">
	<g>
		<g transform="translate(194.234,265.275)">
			<g transform="rotate(-0.0)">
				<text transform="matrix(1 0 0 1 -29.0085 -25.2048)" class="st1 st2 st3">A</text>
			</g>
		</g>
	</g>
</g>
<g id="ID000079">
	<line class="st0" x1="150.7" y1="197.6" x2="162.3" y2="197.6"/>
</g>
<g id="ID000273">
	<g>
		<g transform="translate(173.926,315.265)">
			<g transform="rotate(-0.0)">
				<text transform="matrix(1 0 0 1 -42.7176 -7.9438)" class="st4 st2 st3">A</text>
			</g>
		</g>
	</g>
</g>
<g id="ID000274">
	<g>
		<g transform="translate(181.737,312.141)">
			<g transform="rotate(-0.0)">
				<text transform="matrix(1 0 0 1 -38.4939 -9.6333)" class="st4 st2 st3">G</text>
			</g>
		</g>
	</g>
</g>
<g id="ID000275">
	<g>
		<g transform="translate(181.737,304.330)">
			<g transform="rotate(-0.0)">
				<text transform="matrix(1 0 0 1 -38.4939 -13.8574)" class="st4 st2 st3">U</text>
			</g>
		</g>
	</g>
</g>
<g id="ID000277">
	<g>
		<g transform="translate(181.737,296.519)">
			<g transform="rotate(-0.0)">
				<text transform="matrix(1 0 0 1 -38.7488 -18.0846)" class="st4 st2 st3">U</text>
			</g>
		</g>
	</g>
</g>
<g id="ID000278">
	<g>
		<g transform="translate(181.737,290.270)">
			<g transform="rotate(-0.0)">
				<text transform="matrix(1 0 0 1 -38.7488 -21.4625)" class="st4 st2 st3">U</text>
			</g>
		</g>
	</g>
</g>
<g id="ID000279">
	<line class="st0" x1="139.9" y1="264.4" x2="133.5" y2="264.4"/>
</g>
<g id="ID000280">
	<g transform="translate(173.405,290.270)">
		<g transform="rotate(-0.0)">
			<text transform="matrix(1 0 0 1 -49.7318 -23.274)" class="st2 st5">10</text>
		</g>
	</g>
</g>
<g id="ID000281">
	<g>
		<g transform="translate(181.737,284.021)">
			<g transform="rotate(-0.0)">
				<text transform="matrix(1 0 0 1 -38.7488 -24.8414)" class="st4 st2 st3">G</text>
			</g>
		</g>
	</g>
</g>
<g id="ID000283">
	<g>
		<g transform="translate(181.737,271.524)">
			<g transform="rotate(-0.0)">
				<text transform="matrix(1 0 0 1 -38.0989 -50.3053)" class="st1 st2 st3">U</text>
			</g>
		</g>
	</g>
</g>
<g id="ID000284">
	<g>
		<g transform="translate(194.234,271.524)">
			<g transform="rotate(-0.0)">
				<text transform="matrix(1 0 0 1 -31.4777 -50.3053)" class="st1 st2 st3">A</text>
			</g>
		</g>
	</g>
</g>
<g id="ID000284_00000067220351782696101890000017043637260054507428_">
	<g>
		<g transform="translate(194.234,271.524)">
			<g transform="rotate(-0.0)">
				<text transform="matrix(1 0 0 1 -31.4919 -61.2141)" class="st1 st2 st3">A</text>
			</g>
		</g>
	</g>
</g>
<g id="ID000284_00000022551892272581317650000009439519970700099472_">
	<g>
		<g transform="translate(194.234,271.524)">
			<g transform="rotate(-0.0)">
				<text transform="matrix(1 0 0 1 -50.5012 -59.7868)" class="st1 st2 st3">A</text>
			</g>
		</g>
	</g>
</g>
<g id="ID000285">
	<g>
		<g transform="translate(194.234,277.772)">
			<g transform="rotate(-0.0)">
				<text transform="matrix(1 0 0 1 -31.736 -28.2213)" class="st4 st2 st3">G</text>
			</g>
		</g>
	</g>
</g>
<g id="ID000286">
	<g>
		<g transform="translate(194.234,284.021)">
			<g transform="rotate(-0.0)">
				<text transform="matrix(1 0 0 1 -31.736 -24.8414)" class="st4 st2 st3">C</text>
			</g>
		</g>
	</g>
</g>
<g id="ID000287">
	<g>
		<g transform="translate(194.234,290.270)">
			<g transform="rotate(-0.0)">
				<text transform="matrix(1 0 0 1 -32.2492 -21.4625)" class="st4 st2 st3">A</text>
			</g>
		</g>
	</g>
</g>
<g id="ID000288">
	<g>
		<g transform="translate(194.234,296.519)">
			<g transform="rotate(-0.0)">
				<text transform="matrix(1 0 0 1 -32.2492 -18.0846)" class="st4 st2 st3">A</text>
			</g>
		</g>
	</g>
</g>
<g id="ID000289">
	<g>
		<g transform="translate(194.234,304.330)">
			<g transform="rotate(-0.0)">
				<text transform="matrix(1 0 0 1 -31.9909 -13.8574)" class="st4 st2 st3">A</text>
			</g>
		</g>
	</g>
</g>
<g id="ID000290">
	<g>
		<g transform="translate(194.234,312.141)">
			<g transform="rotate(-0.0)">
				<text transform="matrix(1 0 0 1 -31.9909 -9.6333)" class="st4 st2 st3">C</text>
			</g>
		</g>
	</g>
</g>
<g id="ID000291">
	<line class="st0" x1="150.2" y1="298.1" x2="161.8" y2="298.1"/>
</g>
<g id="ID000293">
	<line class="st0" x1="150.2" y1="274.1" x2="161.8" y2="274.1"/>
</g>
<g id="ID000294">
	<line class="st0" x1="150.2" y1="264.4" x2="161.8" y2="264.4"/>
</g>
<g id="ID000295">
	<line class="st0" x1="150.2" y1="254.8" x2="161.8" y2="254.8"/>
</g>
<g id="ID000296">
	<line class="st0" x1="150.2" y1="245.2" x2="161.8" y2="245.2"/>
</g>
<g>
	<text transform="matrix(1 0 0 1 102.1439 271.8152)" class="st4 st2 st6">P1</text>
</g>
<text transform="matrix(1 0 0 1 106.3432 305.0369)" class="st2 st7">5’</text>
<g id="ID000078_3_">
	<line class="st0" x1="150.2" y1="286.5" x2="161.8" y2="286.5"/>
</g>
<g id="ID000273_00000142169050577575377720000017537420458248031645_">
	<g>
		<g transform="translate(173.926,315.265)">
			<g transform="rotate(-0.0)">
				<text transform="matrix(1 0 0 1 -54.9046 -7.9448)" class="st4 st2 st3">A</text>
			</g>
		</g>
	</g>
</g>
<g id="ID000070_00000106861664843112305560000018179199384333661119_">
	<g>
		<g transform="translate(181.737,265.275)">
			<g transform="rotate(-0.0)">
				<text transform="matrix(1 0 0 1 -45.324 -100.3176)" class="st1 st2 st3">U</text>
			</g>
		</g>
	</g>
</g>
<g id="ID000070_00000072260827076577543450000017084316365211499956_">
	<g>
		<g transform="translate(181.737,265.275)">
			<g transform="rotate(-0.0)">
				<text transform="matrix(1 0 0 1 -13.4578 -127.49)" class="st1 st2 st3">U</text>
			</g>
		</g>
	</g>
</g>
<g id="ID000070_00000057116654473881095580000016018442215852978353_">
	<g>
		<g transform="translate(181.737,265.275)">
			<g transform="rotate(-0.0)">
				<text transform="matrix(1 0 0 1 -45.0183 -88.9007)" class="st1 st2 st3">U</text>
			</g>
		</g>
	</g>
</g>
<g id="ID000283_00000043435939229216221670000015982231714796291214_">
	<g>
		<g transform="translate(181.737,271.524)">
			<g transform="rotate(-0.0)">
				<text transform="matrix(1 0 0 1 -38.4934 -210.991)" class="st8 st2 st3">A</text>
			</g>
		</g>
	</g>
</g>
<g id="ID000283_00000155839781406525082370000008763728518096399264_">
	<g>
		<g transform="translate(181.737,271.524)">
			<g transform="rotate(-0.0)">
				<text transform="matrix(1 0 0 1 -16.9558 -210.7966)" class="st8 st2 st3">A</text>
			</g>
		</g>
	</g>
</g>
<g id="ID000074_00000055690964906518874520000007123331776187472269_">
	<g>
		<g transform="translate(194.234,259.026)">
			<g transform="rotate(-0.0)">
				<text transform="matrix(1 0 0 1 -31.5857 -57.5882)" class="st1 st2 st3">C</text>
			</g>
		</g>
	</g>
</g>
<g id="ID000109">
	<line class="st9" x1="146.8" y1="241" x2="146.8" y2="223.3"/>
</g>
<g id="ID000110">
	<polygon class="st10" points="145.2,234 146,233.1 146.3,232.2 146.4,231.2 146.8,229.4 147.2,231.2 147.4,232.2 147.7,233.1 
		148.5,234 	"/>
</g>
<g id="ID000340">
	<line class="st0" x1="150.7" y1="207.5" x2="162.3" y2="207.5"/>
</g>
<g id="ID000341">
	<polygon class="st11" points="152.1,209.5 155.9,209.5 155.9,205.6 152.1,205.6 	"/>
</g>
<g id="ID000342">
	<polygon class="st11" points="161.5,207.5 157.8,205.4 157.8,209.7 	"/>
</g>
<g id="ID000340_00000065781915833995954460000004460993974201634709_">
	<line class="st0" x1="162.3" y1="217.4" x2="150.7" y2="217.6"/>
</g>
<g id="ID000341_00000183229131417757037540000002779994989799748228_">
	<polygon class="st11" points="160.9,215.5 157.1,215.5 157.1,219.4 161,219.3 	"/>
</g>
<g id="ID000121_00000041262445257389730760000000818574207218917804_">
	<polygon class="st11" points="151.9,217.6 151.9,217.7 151.9,217.8 152,217.9 152,218.1 152,218.2 152.1,218.3 152.1,218.4 
		152.2,218.6 152.3,218.7 152.3,218.8 152.4,218.9 152.5,219 152.6,219.1 152.7,219.2 152.8,219.2 152.9,219.3 153,219.4 
		153.1,219.4 153.3,219.5 153.4,219.5 153.5,219.6 153.6,219.6 153.8,219.6 153.9,219.6 154,219.6 154.2,219.6 154.3,219.6 
		154.4,219.6 154.5,219.6 154.7,219.5 154.8,219.5 154.9,219.4 155,219.4 155.1,219.3 155.2,219.2 155.4,219.1 155.4,219 155.5,219 
		155.6,218.9 155.7,218.7 155.8,218.6 155.8,218.5 155.9,218.4 155.9,218.3 156,218.2 156,218 156,217.9 156.1,217.8 156.1,217.6 
		156.1,217.5 156.1,217.4 156,217.2 156,217.1 156,217 156,216.9 155.9,216.7 155.8,216.6 155.8,216.5 155.7,216.4 155.6,216.3 
		155.5,216.2 155.5,216.1 155.4,216 155.3,215.9 155.2,215.8 155,215.8 154.9,215.7 154.8,215.7 154.7,215.6 154.6,215.6 
		154.4,215.5 154.3,215.5 154.2,215.5 154,215.5 153.9,215.5 153.8,215.5 153.6,215.5 153.5,215.5 153.4,215.6 153.3,215.6 
		153.1,215.7 153,215.7 152.9,215.8 152.8,215.9 152.7,216 152.6,216 152.5,216.1 152.4,216.2 152.3,216.3 152.3,216.4 152.2,216.6 
		152.1,216.7 152.1,216.8 152,216.9 152,217 152,217.2 151.9,217.3 151.9,217.4 	"/>
</g>
<g id="ID000071_00000062160868718157135520000015897252264488128414_">
	<g>
		<g transform="translate(181.737,259.026)">
			<g transform="rotate(-0.0)">
				<text transform="matrix(1 0 0 1 -38.4939 -67.6366)" class="st1 st2 st3">G</text>
			</g>
		</g>
	</g>
</g>
<g id="ID000079_00000008116653862605760830000012305489093064875702_">
	<line class="st0" x1="150.7" y1="187" x2="162.3" y2="187"/>
</g>
<g id="ID000074_00000145740498555254479600000009406274064775564447_">
	<g>
		<g transform="translate(194.234,259.026)">
			<g transform="rotate(-0.0)">
				<text transform="matrix(1 0 0 1 -31.5852 -68.16)" class="st1 st2 st3">C</text>
			</g>
		</g>
	</g>
</g>
<g id="ID000071_00000002345754907713774170000005977880140162210216_">
	<g>
		<g transform="translate(181.737,259.026)">
			<g transform="rotate(-0.0)">
				<text transform="matrix(1 0 0 1 -38.4939 -78.0334)" class="st1 st2 st3">G</text>
			</g>
		</g>
	</g>
</g>
<g id="ID000074_00000052080114719379391350000007824979953155479950_">
	<g>
		<g transform="translate(194.234,259.026)">
			<g transform="rotate(-0.0)">
				<text transform="matrix(1 0 0 1 -31.5857 -78.5574)" class="st1 st2 st3">U</text>
			</g>
		</g>
	</g>
</g>
<g id="ID000071_00000007394922945814888140000012397565632627523495_">
	<g>
		<g transform="translate(181.737,259.026)">
			<g transform="rotate(-0.0)">
				<text transform="matrix(1 0 0 1 -38.4939 -101.9081)" class="st1 st2 st3">C</text>
			</g>
		</g>
	</g>
</g>
<g id="ID000079_00000123439195180491914980000003774126897251290288_">
	<line class="st0" x1="150.7" y1="152.8" x2="162.3" y2="152.8"/>
</g>
<g id="ID000074_00000164479050220660017930000007725485288665521804_">
	<g>
		<g transform="translate(194.234,259.026)">
			<g transform="rotate(-0.0)">
				<text transform="matrix(1 0 0 1 -31.5857 -102.4314)" class="st1 st2 st3">G</text>
			</g>
		</g>
	</g>
</g>
<g id="ID000063">
	<polygon class="st0" points="157.8,177.5 157.8,177.4 157.8,177.2 157.8,177.1 157.8,177 157.8,176.9 157.7,176.8 157.7,176.6 
		157.6,176.5 157.5,176.4 157.5,176.3 157.4,176.2 157.3,176.1 157.2,176.1 157.1,176 157,175.9 156.9,175.8 156.8,175.8 
		156.7,175.7 156.6,175.7 156.5,175.6 156.4,175.6 156.3,175.6 156.1,175.6 156,175.6 155.9,175.6 155.8,175.6 155.7,175.6 
		155.5,175.6 155.4,175.6 155.3,175.7 155.2,175.7 155.1,175.8 155,175.8 154.9,175.9 154.8,175.9 154.7,176 154.6,176.1 
		154.5,176.2 154.4,176.3 154.3,176.4 154.3,176.5 154.2,176.6 154.2,176.7 154.1,176.8 154.1,176.9 154,177.1 154,177.2 154,177.3 
		154,177.4 154,177.5 154,177.7 154,177.8 154,177.9 154.1,178 154.1,178.1 154.2,178.2 154.2,178.4 154.3,178.5 154.3,178.6 
		154.4,178.7 154.5,178.8 154.6,178.8 154.7,178.9 154.8,179 154.9,179.1 155,179.1 155.1,179.2 155.2,179.3 155.3,179.3 
		155.4,179.3 155.5,179.4 155.7,179.4 155.8,179.4 155.9,179.4 156,179.4 156.1,179.4 156.3,179.4 156.4,179.3 156.5,179.3 
		156.6,179.3 156.7,179.2 156.8,179.2 156.9,179.1 157,179 157.1,179 157.2,178.9 157.3,178.8 157.4,178.7 157.5,178.6 157.5,178.5 
		157.6,178.4 157.7,178.3 157.7,178.2 157.8,178.1 157.8,178 157.8,177.8 157.8,177.7 157.8,177.6 	"/>
</g>
<g id="ID000071_00000057867837011637325310000008770948015629123222_">
	<g>
		<g transform="translate(181.737,259.026)">
			<g transform="rotate(-0.0)">
				<text transform="matrix(1 0 0 1 -38.4939 -111.175)" class="st1 st2 st3">C</text>
			</g>
		</g>
	</g>
</g>
<g id="ID000079_00000013169020713971621950000017183724879747077518_">
	<line class="st0" x1="150.7" y1="143.5" x2="162.3" y2="143.5"/>
</g>
<g id="ID000074_00000176751806581862866360000003119695367492833671_">
	<g>
		<g transform="translate(194.234,259.026)">
			<g transform="rotate(-0.0)">
				<text transform="matrix(1 0 0 1 -31.5857 -111.6991)" class="st1 st2 st3">G</text>
			</g>
		</g>
	</g>
</g>
<g id="ID000070_00000182493638472019221150000015267588869614845354_">
	<g>
		<g transform="translate(181.737,265.275)">
			<g transform="rotate(-0.0)">
				<text transform="matrix(1 0 0 1 -13.3304 -147.3571)" class="st1 st2 st3">U</text>
			</g>
		</g>
	</g>
</g>
<g id="ID000071_00000078037183740402744240000014828172213788628381_">
	<g>
		<g transform="translate(181.737,259.026)">
			<g transform="rotate(-0.0)">
				<text transform="matrix(1 0 0 1 -38.367 -131.0422)" class="st1 st2 st3">G</text>
			</g>
		</g>
	</g>
</g>
<g id="ID000071_00000116216713138187026270000004328128433832562821_">
	<g>
		<g transform="translate(181.737,259.026)">
			<g transform="rotate(-0.0)">
				<text transform="matrix(1 0 0 1 -13.7508 -150.6335)" class="st1 st2 st3">G</text>
			</g>
		</g>
	</g>
</g>
<g id="ID000079_00000073683313435233190060000010617394681805179292_">
	<line class="st0" x1="150.9" y1="123.6" x2="162.4" y2="123.6"/>
</g>
<g id="ID000074_00000170966603291824689400000003845667636576861588_">
	<g>
		<g transform="translate(194.234,259.026)">
			<g transform="rotate(-0.0)">
				<text transform="matrix(1 0 0 1 -31.4582 -131.5657)" class="st1 st2 st3">C</text>
			</g>
		</g>
	</g>
</g>
<g id="ID000071_00000049917849244351979370000015701419500101961113_">
	<g>
		<g transform="translate(181.737,259.026)">
			<g transform="rotate(-0.0)">
				<text transform="matrix(1 0 0 1 -37.8767 -158.9564)" class="st8 st2 st3">C</text>
			</g>
		</g>
	</g>
</g>
<g id="ID000079_00000152234192805320184620000013654685708848739462_">
	<line class="st0" x1="151.3" y1="95.7" x2="162.9" y2="95.7"/>
</g>
<g id="ID000074_00000130615033008039380450000016337414618448233398_">
	<g>
		<g transform="translate(194.234,259.026)">
			<g transform="rotate(-0.0)">
				<text transform="matrix(1 0 0 1 -30.9685 -159.4797)" class="st8 st2 st3">G</text>
			</g>
		</g>
	</g>
</g>
<g id="ID000071_00000160903528532631396110000001347484904901597111_">
	<g>
		<g transform="translate(181.737,259.026)">
			<g transform="rotate(-0.0)">
				<text transform="matrix(1 0 0 1 -37.8767 -168.2239)" class="st8 st2 st3">G</text>
			</g>
		</g>
	</g>
</g>
<g id="ID000074_00000111172603137747597580000005835699077460798121_">
	<g>
		<g transform="translate(194.234,259.026)">
			<g transform="rotate(-0.0)">
				<text transform="matrix(1 0 0 1 -30.9685 -168.7473)" class="st8 st2 st3">U</text>
			</g>
		</g>
	</g>
</g>
<g id="ID000071_00000029766555155740345120000015987602686394462389_">
	<g>
		<g transform="translate(181.737,259.026)">
			<g transform="rotate(-0.0)">
				<text transform="matrix(1 0 0 1 -38.0042 -178.1317)" class="st8 st2 st3">U</text>
			</g>
		</g>
	</g>
</g>
<g id="ID000071_00000072277250225640126780000012306217752900989863_">
	<g>
		<g transform="translate(181.737,259.026)">
			<g transform="rotate(-0.0)">
				<text transform="matrix(1 0 0 1 -27.4558 -205.6384)" class="st8 st2 st3">U</text>
			</g>
		</g>
	</g>
</g>
<g id="ID000074_00000083070465315023849060000006128091509518512513_">
	<g>
		<g transform="translate(194.234,259.026)">
			<g transform="rotate(-0.0)">
				<text transform="matrix(1 0 0 1 -31.0954 -178.6555)" class="st8 st2 st3">G</text>
			</g>
		</g>
	</g>
</g>
<g id="ID000071_00000043451129990880435810000004955094455248094857_">
	<g>
		<g transform="translate(181.737,259.026)">
			<g transform="rotate(-0.0)">
				<text transform="matrix(1 0 0 1 -38.0042 -187.3992)" class="st8 st2 st3">C</text>
			</g>
		</g>
	</g>
</g>
<g id="ID000079_00000044141169133592521720000004412653812491394730_">
	<line class="st0" x1="151.2" y1="67.3" x2="162.8" y2="67.3"/>
</g>
<g id="ID000074_00000157989886511568207720000016001354323932798083_">
	<g>
		<g transform="translate(194.234,259.026)">
			<g transform="rotate(-0.0)">
				<text transform="matrix(1 0 0 1 -31.0954 -187.9227)" class="st8 st2 st3">G</text>
			</g>
		</g>
	</g>
</g>
<g id="ID000063_00000023248264303120183220000010714083331589632695_">
	<polygon class="st0" points="158.4,87.2 158.4,87.1 158.4,87 158.4,86.9 158.4,86.7 158.3,86.6 158.3,86.5 158.2,86.4 158.2,86.3 
		158.1,86.2 158.1,86.1 158,86 157.9,85.9 157.8,85.8 157.7,85.7 157.6,85.7 157.5,85.6 157.4,85.5 157.3,85.5 157.2,85.4 
		157.1,85.4 157,85.4 156.8,85.3 156.7,85.3 156.6,85.3 156.5,85.3 156.4,85.3 156.2,85.3 156.1,85.3 156,85.4 155.9,85.4 
		155.8,85.5 155.6,85.5 155.5,85.6 155.4,85.6 155.3,85.7 155.2,85.8 155.2,85.9 155.1,85.9 155,86 154.9,86.1 154.9,86.2 
		154.8,86.3 154.7,86.5 154.7,86.6 154.7,86.7 154.6,86.8 154.6,86.9 154.6,87 154.6,87.2 154.6,87.3 154.6,87.4 154.6,87.5 
		154.6,87.7 154.7,87.8 154.7,87.9 154.7,88 154.8,88.1 154.9,88.2 154.9,88.3 155,88.4 155.1,88.5 155.2,88.6 155.2,88.7 
		155.3,88.8 155.4,88.8 155.5,88.9 155.6,89 155.8,89 155.9,89 156,89.1 156.1,89.1 156.2,89.1 156.4,89.1 156.5,89.2 156.6,89.2 
		156.7,89.1 156.8,89.1 157,89.1 157.1,89.1 157.2,89 157.3,89 157.4,88.9 157.5,88.9 157.6,88.8 157.7,88.7 157.8,88.6 157.9,88.6 
		158,88.5 158.1,88.4 158.1,88.3 158.2,88.2 158.2,88.1 158.3,87.9 158.3,87.8 158.4,87.7 158.4,87.6 158.4,87.5 158.4,87.4 	"/>
</g>
<g id="ID000063_00000065796918868190546400000003201088720730010773_">
	<polygon class="st0" points="158.4,78.4 158.4,78.3 158.4,78.2 158.4,78 158.4,77.9 158.3,77.8 158.3,77.7 158.2,77.6 158.2,77.5 
		158.1,77.4 158.1,77.3 158,77.2 157.9,77.1 157.8,77 157.7,76.9 157.6,76.8 157.5,76.8 157.4,76.7 157.3,76.7 157.2,76.6 
		157.1,76.6 157,76.5 156.8,76.5 156.7,76.5 156.6,76.5 156.5,76.5 156.4,76.5 156.2,76.5 156.1,76.5 156,76.6 155.9,76.6 
		155.8,76.6 155.6,76.7 155.5,76.7 155.4,76.8 155.3,76.9 155.2,77 155.2,77 155.1,77.1 155,77.2 154.9,77.3 154.9,77.4 154.8,77.5 
		154.7,77.6 154.7,77.8 154.7,77.9 154.6,78 154.6,78.1 154.6,78.2 154.6,78.3 154.6,78.5 154.6,78.6 154.6,78.7 154.6,78.8 
		154.7,79 154.7,79.1 154.7,79.2 154.8,79.3 154.9,79.4 154.9,79.5 155,79.6 155.1,79.7 155.2,79.8 155.2,79.9 155.3,79.9 155.4,80 
		155.5,80.1 155.6,80.1 155.8,80.2 155.9,80.2 156,80.3 156.1,80.3 156.2,80.3 156.4,80.3 156.5,80.3 156.6,80.3 156.7,80.3 
		156.8,80.3 157,80.3 157.1,80.2 157.2,80.2 157.3,80.2 157.4,80.1 157.5,80 157.6,80 157.7,79.9 157.8,79.8 157.9,79.7 158,79.6 
		158.1,79.6 158.1,79.5 158.2,79.3 158.2,79.2 158.3,79.1 158.3,79 158.4,78.9 158.4,78.8 158.4,78.7 158.4,78.5 	"/>
</g>
<g id="ID000074_00000098193431738361614100000002964852904559164857_">
	<g transform="translate(194.234,259.026)">
		<g transform="rotate(-0.0)">
			<text transform="matrix(1 0 0 1 -50.6325 61.0999)" class="st12 st2 st13">G</text>
		</g>
	</g>
</g>
<g id="ID000274_00000163050971651096578140000001478828531679014026_">
	<g transform="translate(181.737,312.141)">
		<g transform="rotate(-0.0)">
			<text transform="matrix(1 0 0 1 -38.1121 60.9409)" class="st12 st2 st13">U</text>
		</g>
	</g>
</g>
<g id="ID000275_00000005227100503929231930000009375170740465787288_">
	<g transform="translate(181.737,304.330)">
		<g transform="rotate(-0.0)">
			<text transform="matrix(1 0 0 1 -38.1121 56.7178)" class="st12 st2 st13">U</text>
		</g>
	</g>
</g>
<g id="ID000277_00000145780351330041156330000004429070998188735117_">
	<g transform="translate(181.737,296.519)">
		<g transform="rotate(-0.0)">
			<text transform="matrix(1 0 0 1 -38.367 52.4897)" class="st12 st2 st13">U</text>
		</g>
	</g>
</g>
<g id="ID000278_00000079474189841126350890000014490976556223160972_">
	<g transform="translate(181.737,290.270)">
		<g transform="rotate(-0.0)">
			<text transform="matrix(1 0 0 1 -38.367 49.1117)" class="st12 st2 st13">C</text>
		</g>
	</g>
</g>
<g id="ID000278_00000124858328397135595020000011421419025671781506_">
	<g transform="translate(181.737,290.270)">
		<g transform="rotate(-0.0)">
			<text transform="matrix(1 0 0 1 -38.2166 93.8676)" class="st12 st2 st13">C</text>
		</g>
	</g>
</g>
<g id="ID000278_00000120527372561092021200000010474564592430944952_">
	<g transform="translate(181.737,290.270)">
		<g transform="rotate(-0.0)">
			<text transform="matrix(1 0 0 1 -18.6131 92.9789)" class="st12 st2 st13">C</text>
		</g>
	</g>
</g>
<g id="ID000281_00000073703483236704959990000011894512934658897851_">
	<g transform="translate(181.737,284.021)">
		<g transform="rotate(-0.0)">
			<text transform="matrix(1 0 0 1 -38.367 45.7328)" class="st12 st2 st13">G</text>
		</g>
	</g>
</g>
<g id="ID000285_00000177460833396196042540000010748195998873302172_">
	<g transform="translate(194.234,277.772)">
		<g transform="rotate(-0.0)">
			<text transform="matrix(1 0 0 1 -31.3542 42.3539)" class="st12 st2 st13">C</text>
		</g>
	</g>
</g>
<g id="ID000286_00000044863270407976345150000012564280976509003663_">
	<g transform="translate(194.234,284.021)">
		<g transform="rotate(-0.0)">
			<text transform="matrix(1 0 0 1 -31.3542 45.7328)" class="st12 st2 st13">C</text>
		</g>
	</g>
</g>
<g id="ID000287_00000181066232150921879900000013166079333282841764_">
	<g transform="translate(194.234,290.270)">
		<g transform="rotate(-0.0)">
			<text transform="matrix(1 0 0 1 -31.8674 49.1117)" class="st12 st2 st13">G</text>
		</g>
	</g>
</g>
<g id="ID000288_00000144333751604862242620000002937621506390568123_">
	<g transform="translate(194.234,296.519)">
		<g transform="rotate(-0.0)">
			<text transform="matrix(1 0 0 1 -31.8674 52.4897)" class="st12 st2 st13">A</text>
		</g>
	</g>
</g>
<g id="ID000289_00000167386985800436667180000007614564072492816281_">
	<g transform="translate(194.234,304.330)">
		<g transform="rotate(-0.0)">
			<text transform="matrix(1 0 0 1 -31.6091 56.7178)" class="st12 st2 st13">A</text>
		</g>
	</g>
</g>
<g id="ID000290_00000035490392376697939900000000552215319551750280_">
	<g transform="translate(194.234,312.141)">
		<g transform="rotate(-0.0)">
			<text transform="matrix(1 0 0 1 -31.6091 60.9409)" class="st12 st2 st13">A</text>
		</g>
	</g>
</g>
<g id="ID000290_00000056424608326926143740000012224408188681387172_">
	<g transform="translate(194.234,312.141)">
		<g transform="rotate(-0.0)">
			<text transform="matrix(1 0 0 1 -39.8234 76.6109)" class="st12 st2 st13">A</text>
		</g>
	</g>
</g>
<g id="ID000293_00000078006470515129900120000006930523925656435369_">
	<line class="st0" x1="150.6" y1="344.6" x2="162.1" y2="344.6"/>
</g>
<g id="ID000294_00000143614921553826709200000003786935214626790588_">
	<line class="st0" x1="150.6" y1="335" x2="162.1" y2="335"/>
</g>
<g id="ID000295_00000092431876176571895490000007935045515016580789_">
	<line class="st0" x1="150.6" y1="325.4" x2="162.1" y2="325.4"/>
</g>
<g id="ID000296_00000010269305200343181340000014294241047720367765_">
	<line class="st0" x1="150.6" y1="315.8" x2="162.1" y2="315.8"/>
</g>
<g id="ID000291_00000183962182394663217770000010845930761982140582_">
	<line class="st0" x1="150.6" y1="357.6" x2="162.2" y2="357.6"/>
</g>
<g id="ID000292">
	<polygon class="st10" points="158.3,357.6 158.3,357.5 158.3,357.4 158.3,357.3 158.2,357.1 158.2,357 158.2,356.9 158.1,356.8 
		158.1,356.7 158,356.6 157.9,356.5 157.9,356.4 157.8,356.3 157.7,356.2 157.6,356.1 157.5,356.1 157.4,356 157.3,355.9 
		157.2,355.9 157.1,355.8 157,355.8 156.8,355.8 156.7,355.7 156.6,355.7 156.5,355.7 156.3,355.7 156.2,355.7 156.1,355.7 
		156,355.7 155.9,355.8 155.7,355.8 155.6,355.9 155.5,355.9 155.4,356 155.3,356 155.2,356.1 155.1,356.2 155,356.3 154.9,356.3 
		154.9,356.4 154.8,356.5 154.7,356.6 154.7,356.7 154.6,356.9 154.6,357 154.5,357.1 154.5,357.2 154.5,357.3 154.5,357.4 
		154.5,357.6 154.5,357.7 154.5,357.8 154.5,357.9 154.5,358.1 154.5,358.2 154.6,358.3 154.6,358.4 154.7,358.5 154.7,358.6 
		154.8,358.7 154.9,358.8 154.9,358.9 155,359 155.1,359.1 155.2,359.2 155.3,359.2 155.4,359.3 155.5,359.4 155.6,359.4 
		155.7,359.4 155.9,359.5 156,359.5 156.1,359.5 156.2,359.5 156.3,359.6 156.5,359.5 156.6,359.5 156.7,359.5 156.8,359.5 
		157,359.5 157.1,359.4 157.2,359.4 157.3,359.3 157.4,359.3 157.5,359.2 157.6,359.1 157.7,359 157.8,359 157.9,358.9 157.9,358.8 
		158,358.7 158.1,358.6 158.1,358.5 158.2,358.3 158.2,358.2 158.2,358.1 158.3,358 158.3,357.9 158.3,357.7 	"/>
</g>
<g id="ID000109_00000153667799297841445980000010027078339244074910_">
	<line class="st9" x1="164.1" y1="303.1" x2="148.7" y2="311.8"/>
</g>
<g id="ID000110_00000183949476451178296910000006953148696119858106_">
	<polygon class="st10" points="158.8,308 157.6,307.7 156.6,307.9 155.8,308.2 154,308.8 155.4,307.5 156.1,306.9 156.8,306.3 
		157.2,305.1 	"/>
</g>
<line class="st0" x1="121.8" y1="298.7" x2="121.8" y2="292.3"/>
<g transform="translate(173.405,290.270)">
	<g transform="rotate(-0.0)">
		<text transform="matrix(1 0 0 1 -53.4842 0.2026)" class="st2 st5">5</text>
	</g>
</g>
<text transform="matrix(1 0 0 1 118.0023 347.746)" class="st12 st2 st6">P2</text>
<g>
	<text transform="matrix(1 0 0 1 105.6508 205.7997)" class="st1 st2 st6">P1a</text>
</g>
<g>
	<text transform="matrix(1 0 0 1 109.2357 84.0712)" class="st8 st2 st6">P1b</text>
</g>
<g id="ID000280_00000165951006525591236000000017046208732801124773_">
	<g transform="translate(173.405,290.270)">
		<g transform="rotate(-0.0)">
			<text transform="matrix(1 0 0 1 -41.3343 -137.4836)" class="st2 st5">20</text>
		</g>
	</g>
</g>
<line class="st0" x1="178.6" y1="67.3" x2="172.2" y2="67.3"/>
<g transform="translate(173.405,290.270)">
	<g transform="rotate(-0.0)">
		<text transform="matrix(1 0 0 1 6.8722 -220.4547)" class="st2 st5">30</text>
	</g>
</g>
<line class="st0" x1="177" y1="176.2" x2="170.6" y2="176.2"/>
<g transform="translate(173.405,290.270)">
	<g transform="rotate(-0.0)">
		<text transform="matrix(1 0 0 1 5.2634 -111.4986)" class="st2 st5">40</text>
	</g>
</g>
<line class="st0" x1="176.1" y1="274.1" x2="169.7" y2="274.1"/>
<g transform="translate(173.405,290.270)">
	<g transform="rotate(-0.0)">
		<text transform="matrix(1 0 0 1 4.4006 -13.6431)" class="st2 st5">50</text>
	</g>
</g>
<line class="st0" x1="168.7" y1="387.5" x2="162.3" y2="387.5"/>
<g transform="translate(173.405,290.270)">
	<g transform="rotate(-0.0)">
		<text transform="matrix(1 0 0 1 -3.0071 99.7426)" class="st2 st5">60</text>
	</g>
</g>
<g id="ID000109_00000091700547492101727240000011921734182747742859_">
	<line class="st9" x1="146.9" y1="117.9" x2="146.9" y2="101.8"/>
</g>
<g id="ID000110_00000047054235610966558370000011403394770076453005_">
	<polygon class="st10" points="145.4,111.5 146.1,110.7 146.4,109.8 146.5,109 146.9,107.3 147.3,109 147.4,109.8 147.7,110.7 
		148.4,111.5 	"/>
</g>
<g id="ID000109_00000105386702510489329400000014157359884944175489_">
	<line class="st9" x1="147" y1="139.7" x2="147" y2="130.3"/>
</g>
<g id="ID000110_00000129923044033229463630000006444553223083589280_">
	<polygon class="st10" points="146.1,136 146.6,135.5 146.7,135 146.8,134.5 147,133.5 147.2,134.5 147.3,135 147.5,135.5 
		147.9,136 	"/>
</g>
<g id="ID000079_00000149352288954463732850000014862609810569267129_">
	<line class="st0" x1="151" y1="127.8" x2="167.6" y2="134.9"/>
</g>
<line class="st0" x1="178.7" y1="103.6" x2="188.2" y2="103.6"/>
<g id="ID000079_00000110471936873587068270000012620665984155048358_">
	<line class="st0" x1="183.7" y1="107.3" x2="183.7" y2="139.7"/>
</g>
<g id="ID000079_00000039814136782804849580000004843667746721658241_">
	<line class="st0" x1="171.2" y1="143.5" x2="188.2" y2="143.5"/>
</g>
<polygon class="st10" points="179.4,103.6 179.4,103.4 179.4,103.3 179.4,103.2 179.3,103.1 179.3,103 179.3,102.8 179.2,102.7 
	179.2,102.6 179.1,102.5 179,102.4 178.9,102.3 178.9,102.2 178.8,102.1 178.7,102.1 178.6,102 178.5,101.9 178.4,101.9 
	178.3,101.8 178.2,101.8 178,101.7 177.9,101.7 177.8,101.7 177.7,101.6 177.6,101.6 177.4,101.6 177.3,101.6 177.2,101.6 
	177.1,101.7 177,101.7 176.8,101.7 176.7,101.8 176.6,101.8 176.5,101.9 176.4,101.9 176.3,102 176.2,102.1 176.1,102.2 176,102.3 
	176,102.4 175.9,102.5 175.8,102.6 175.8,102.7 175.7,102.8 175.7,102.9 175.6,103 175.6,103.1 175.6,103.2 175.6,103.4 
	175.5,103.5 175.5,103.6 175.6,103.7 175.6,103.9 175.6,104 175.6,104.1 175.7,104.2 175.7,104.3 175.8,104.4 175.8,104.5 
	175.9,104.6 176,104.7 176,104.8 176.1,104.9 176.2,105 176.3,105.1 176.4,105.2 176.5,105.2 176.6,105.3 176.7,105.3 176.8,105.4 
	177,105.4 177.1,105.4 177.2,105.5 177.3,105.5 177.4,105.5 177.6,105.5 177.7,105.5 177.8,105.4 177.9,105.4 178,105.4 
	178.2,105.4 178.3,105.3 178.4,105.2 178.5,105.2 178.6,105.1 178.7,105 178.8,105 178.9,104.9 178.9,104.8 179,104.7 179.1,104.6 
	179.2,104.5 179.2,104.4 179.3,104.3 179.3,104.2 179.3,104 179.4,103.9 179.4,103.8 179.4,103.7 "/>
<g id="ID000341_00000095337880149365290820000009381432928259859597_">
	<polygon class="st10" points="174.9,141.5 171.1,141.6 171.1,145.4 175,145.4 	"/>
</g>
<g id="ID000063_00000035524136258376215380000011786876430237905581_">
	<polygon class="st10" points="161.3,131.3 161.3,131.2 161.2,131.1 161.2,131 161.2,130.8 161.2,130.7 161.1,130.6 161.1,130.5 
		161,130.4 160.9,130.3 160.9,130.2 160.8,130.1 160.7,130 160.6,129.9 160.5,129.8 160.4,129.8 160.3,129.7 160.2,129.6 
		160.1,129.6 160,129.5 159.9,129.5 159.8,129.5 159.7,129.4 159.5,129.4 159.4,129.4 159.3,129.4 159.2,129.4 159.1,129.4 
		158.9,129.4 158.8,129.5 158.7,129.5 158.6,129.6 158.5,129.6 158.4,129.7 158.3,129.7 158.2,129.8 158.1,129.9 158,130 157.9,130 
		157.8,130.1 157.7,130.2 157.7,130.3 157.6,130.4 157.6,130.6 157.5,130.7 157.5,130.8 157.4,130.9 157.4,131 157.4,131.1 
		157.4,131.3 157.4,131.4 157.4,131.5 157.4,131.6 157.4,131.8 157.5,131.9 157.5,132 157.6,132.1 157.6,132.2 157.7,132.3 
		157.7,132.4 157.8,132.5 157.9,132.6 158,132.7 158.1,132.8 158.2,132.9 158.3,132.9 158.4,133 158.5,133.1 158.6,133.1 
		158.7,133.1 158.8,133.2 158.9,133.2 159.1,133.2 159.2,133.2 159.3,133.3 159.4,133.3 159.5,133.2 159.7,133.2 159.8,133.2 
		159.9,133.2 160,133.1 160.1,133.1 160.2,133 160.3,133 160.4,132.9 160.5,132.8 160.6,132.7 160.7,132.7 160.8,132.6 160.9,132.5 
		160.9,132.4 161,132.3 161.1,132.2 161.1,132 161.2,131.9 161.2,131.8 161.2,131.7 161.2,131.6 161.3,131.4 	"/>
</g>
<g id="ID000079_00000114045380303377758720000005715043479105868203_">
	<line class="st0" x1="188.2" y1="103.6" x2="188.2" y2="143.5"/>
</g>
<g id="ID000079_00000049932595693947104620000000853083483220577942_">
	<line class="st0" x1="157.9" y1="139.7" x2="183.7" y2="139.7"/>
</g>
<g id="ID000079_00000139982469721950735120000002820746986032554632_">
	<line class="st0" x1="175.9" y1="107.3" x2="183.7" y2="107.3"/>
</g>
<g id="ID000279_00000051367512900928267530000010277827645286430340_">
	<line class="st0" x1="158.4" y1="139.7" x2="150.7" y2="143.2"/>
</g>
<polygon class="st10" points="185.5,122.6 185.5,122.5 185.5,122.4 185.5,122.3 185.5,122.1 185.4,122 185.4,121.9 185.4,121.8 
	185.3,121.7 185.2,121.6 185.2,121.5 185.1,121.4 185,121.3 184.9,121.2 184.8,121.1 184.7,121.1 184.6,121 184.5,120.9 
	184.4,120.9 184.3,120.8 184.2,120.8 184.1,120.7 184,120.7 183.8,120.7 183.7,120.7 183.6,120.7 183.5,120.7 183.3,120.7 
	183.2,120.7 183.1,120.8 183,120.8 182.9,120.8 182.8,120.9 182.7,121 182.6,121 182.5,121.1 182.4,121.2 182.3,121.2 182.2,121.3 
	182.1,121.4 182,121.5 182,121.6 181.9,121.7 181.9,121.8 181.8,122 181.8,122.1 181.7,122.2 181.7,122.3 181.7,122.4 181.7,122.6 
	181.7,122.7 181.7,122.8 181.7,122.9 181.7,123 181.8,123.2 181.8,123.3 181.9,123.4 181.9,123.5 182,123.6 182,123.7 182.1,123.8 
	182.2,123.9 182.3,124 182.4,124.1 182.5,124.2 182.6,124.2 182.7,124.3 182.8,124.3 182.9,124.4 183,124.4 183.1,124.5 
	183.2,124.5 183.3,124.5 183.5,124.5 183.6,124.5 183.7,124.5 183.8,124.5 184,124.5 184.1,124.5 184.2,124.5 184.3,124.4 
	184.4,124.4 184.5,124.3 184.6,124.3 184.7,124.2 184.8,124.1 184.9,124 185,123.9 185.1,123.9 185.2,123.8 185.2,123.7 
	185.3,123.6 185.4,123.4 185.4,123.3 185.4,123.2 185.5,123.1 185.5,123 185.5,122.9 185.5,122.7 "/>
<g id="ID000079_00000015315938134801123720000000791201751061143178_">
	<line class="st0" x1="130.2" y1="154.6" x2="142.5" y2="154.6"/>
</g>
<g id="ID000079_00000084496185231367826660000000513089200307401615_">
	<line class="st0" x1="130.2" y1="154.3" x2="130.2" y2="173.5"/>
</g>
<g id="ID000079_00000031888135381200930120000014507560579635526061_">
	<line class="st0" x1="130.2" y1="173.5" x2="136" y2="173.5"/>
</g>
<polygon class="st10" points="132.1,164.9 132.1,164.8 132.1,164.7 132.1,164.6 132,164.4 132,164.3 132,164.2 131.9,164.1 
	131.9,164 131.8,163.9 131.7,163.8 131.7,163.7 131.6,163.6 131.5,163.5 131.4,163.4 131.3,163.4 131.2,163.3 131.1,163.2 
	131,163.2 130.9,163.1 130.8,163.1 130.6,163 130.5,163 130.4,163 130.3,163 130.2,163 130,163 129.9,163 129.8,163 129.7,163.1 
	129.6,163.1 129.4,163.1 129.3,163.2 129.2,163.3 129.1,163.3 129,163.4 128.9,163.5 128.8,163.5 128.7,163.6 128.7,163.7 
	128.6,163.8 128.5,163.9 128.5,164 128.4,164.1 128.4,164.3 128.3,164.4 128.3,164.5 128.3,164.6 128.3,164.7 128.3,164.9 
	128.3,165 128.3,165.1 128.3,165.2 128.3,165.3 128.3,165.5 128.4,165.6 128.4,165.7 128.5,165.8 128.5,165.9 128.6,166 
	128.7,166.1 128.7,166.2 128.8,166.3 128.9,166.4 129,166.5 129.1,166.5 129.2,166.6 129.3,166.6 129.4,166.7 129.6,166.7 
	129.7,166.8 129.8,166.8 129.9,166.8 130,166.8 130.2,166.8 130.3,166.8 130.4,166.8 130.5,166.8 130.6,166.8 130.8,166.8 
	130.9,166.7 131,166.7 131.1,166.6 131.2,166.6 131.3,166.5 131.4,166.4 131.5,166.3 131.6,166.3 131.7,166.2 131.7,166.1 
	131.8,166 131.9,165.9 131.9,165.7 132,165.6 132,165.5 132,165.4 132.1,165.3 132.1,165.2 132.1,165 "/>
<g id="ID000352">
	<line class="st9" x1="166.2" y1="159.7" x2="166.2" y2="170.2"/>
</g>
<g id="ID000353">
	<polygon class="st10" points="166.7,164.3 166.5,164.6 166.4,164.9 166.3,165.2 166.2,165.8 166,165.2 166,164.9 165.9,164.6 
		165.6,164.3 	"/>
</g>
<g id="ID000074_00000098912391084695103260000009359716357141194406_">
	<g>
		<g transform="translate(194.234,259.026)">
			<g transform="rotate(-0.0)">
				<text transform="matrix(1 0 0 1 51.1462 -12.2679)" class="st14 st2 st3">G</text>
			</g>
		</g>
	</g>
</g>
<g id="ID000278_00000178922474543406561040000015460657545714784642_">
	<g>
		<g transform="translate(181.737,290.270)">
			<g transform="rotate(-0.0)">
				<text transform="matrix(1 0 0 1 63.4118 -24.2551)" class="st14 st2 st3">C</text>
			</g>
		</g>
	</g>
</g>
<g id="ID000281_00000086678160052706402390000007725081234150003328_">
	<g>
		<g transform="translate(181.737,284.021)">
			<g transform="rotate(-0.0)">
				<text transform="matrix(1 0 0 1 63.4118 -27.6339)" class="st14 st2 st3">G</text>
			</g>
		</g>
	</g>
</g>
<g id="ID000285_00000147912599869716455120000007141689062978403253_">
	<g>
		<g transform="translate(194.234,277.772)">
			<g transform="rotate(-0.0)">
				<text transform="matrix(1 0 0 1 70.4245 -31.0138)" class="st14 st2 st3">G</text>
			</g>
		</g>
	</g>
</g>
<g id="ID000286_00000064311468343173290640000009272340162214003883_">
	<g>
		<g transform="translate(194.234,284.021)">
			<g transform="rotate(-0.0)">
				<text transform="matrix(1 0 0 1 70.4245 -27.6339)" class="st14 st2 st3">A</text>
			</g>
		</g>
	</g>
</g>
<g id="ID000287_00000094591912272737375820000009258030982625467811_">
	<g>
		<g transform="translate(194.234,290.270)">
			<g transform="rotate(-0.0)">
				<text transform="matrix(1 0 0 1 69.9114 -24.2551)" class="st14 st2 st3">G</text>
			</g>
		</g>
	</g>
</g>
<g id="ID000294_00000113333800744331559000000008927791321854908590_">
	<line class="st0" x1="252.4" y1="261.6" x2="263.9" y2="261.6"/>
</g>
<g id="ID000074_00000049916876493782821540000005836795789395431831_">
	<g>
		<g transform="translate(194.234,259.026)">
			<g transform="rotate(-0.0)">
				<text transform="matrix(1 0 0 1 51.6081 -58.4153)" class="st14 st2 st3">G</text>
			</g>
		</g>
	</g>
</g>
<g id="ID000277_00000147923514992725434060000015253656372567645372_">
	<g>
		<g transform="translate(181.737,296.519)">
			<g transform="rotate(-0.0)">
				<text transform="matrix(1 0 0 1 63.8737 -67.0246)" class="st14 st2 st3">A</text>
			</g>
		</g>
	</g>
</g>
<g id="ID000278_00000174574515623510318020000003292383055894379418_">
	<g>
		<g transform="translate(181.737,290.270)">
			<g transform="rotate(-0.0)">
				<text transform="matrix(1 0 0 1 63.8737 -70.4035)" class="st14 st2 st3">A</text>
			</g>
		</g>
	</g>
</g>
<g id="ID000281_00000005988933057745395510000006018839828110008733_">
	<g>
		<g transform="translate(181.737,284.021)">
			<g transform="rotate(-0.0)">
				<text transform="matrix(1 0 0 1 63.8737 -73.7814)" class="st14 st2 st3">G</text>
			</g>
		</g>
	</g>
</g>
<g id="ID000285_00000008111702398976037240000005164535984831314836_">
	<g>
		<g transform="translate(194.234,277.772)">
			<g transform="rotate(-0.0)">
				<text transform="matrix(1 0 0 1 70.8865 -77.1613)" class="st14 st2 st3">C</text>
			</g>
		</g>
	</g>
</g>
<g id="ID000286_00000014618486338418773000000004501414777445461165_">
	<g>
		<g transform="translate(194.234,284.021)">
			<g transform="rotate(-0.0)">
				<text transform="matrix(1 0 0 1 70.8865 -73.7814)" class="st14 st2 st3">C</text>
			</g>
		</g>
	</g>
</g>
<g id="ID000287_00000173145244766505256070000001013194964288302209_">
	<g>
		<g transform="translate(194.234,290.270)">
			<g transform="rotate(-0.0)">
				<text transform="matrix(1 0 0 1 70.3733 -70.4035)" class="st14 st2 st3">U</text>
			</g>
		</g>
	</g>
</g>
<g id="ID000287_00000147903027180425051020000013648236375049023392_">
	<g>
		<g transform="translate(194.234,290.270)">
			<g transform="rotate(-0.0)">
				<text transform="matrix(1 0 0 1 86.7449 -17.3683)" class="st14 st2 st3">U</text>
			</g>
		</g>
	</g>
</g>
<g id="ID000288_00000183930884530659321920000011069162119863774108_">
	<g>
		<g transform="translate(194.234,296.519)">
			<g transform="rotate(-0.0)">
				<text transform="matrix(1 0 0 1 70.3733 -67.0246)" class="st14 st2 st3">G</text>
			</g>
		</g>
	</g>
</g>
<g id="ID000288_00000056402301203718146210000010220513616028746418_">
	<g>
		<g transform="translate(194.234,296.519)">
			<g transform="rotate(-0.0)">
				<text transform="matrix(1 0 0 1 76.2351 -59.2872)" class="st14 st2 st3">G</text>
			</g>
		</g>
	</g>
</g>
<g id="ID000288_00000138547829746974993460000005637158375853072520_">
	<g>
		<g transform="translate(194.234,296.519)">
			<g transform="rotate(-0.0)">
				<text transform="matrix(1 0 0 1 75.0661 -105.2594)" class="st14 st2 st3">G</text>
			</g>
		</g>
	</g>
</g>
<g id="ID000294_00000104685350269454242870000001026404777355599756_">
	<line class="st0" x1="252.8" y1="215.5" x2="264.4" y2="215.5"/>
</g>
<g id="ID000295_00000098203297031762252790000006779217754870802580_">
	<line class="st0" x1="252.8" y1="205.9" x2="264.4" y2="205.9"/>
</g>
<g id="ID000296_00000044165221758805630560000008246618151992203665_">
	<line class="st0" x1="252.8" y1="196.2" x2="264.4" y2="196.2"/>
</g>
<g id="ID000074_00000096745561527317787750000004089952948603221932_">
	<g>
		<g transform="translate(194.234,259.026)">
			<g transform="rotate(-0.0)">
				<text transform="matrix(1 0 0 1 52.3386 -86.263)" class="st14 st2 st3">U</text>
			</g>
		</g>
	</g>
</g>
<g id="ID000281_00000160893049168593130610000001873215160451304613_">
	<g>
		<g transform="translate(181.737,284.021)">
			<g transform="rotate(-0.0)">
				<text transform="matrix(1 0 0 1 64.6042 -101.6301)" class="st14 st2 st3">A</text>
			</g>
		</g>
	</g>
</g>
<g id="ID000285_00000084502253226100004820000001341438606088202928_">
	<g>
		<g transform="translate(194.234,277.772)">
			<g transform="rotate(-0.0)">
				<text transform="matrix(1 0 0 1 71.6169 -105.0094)" class="st14 st2 st3">A</text>
			</g>
		</g>
	</g>
</g>
<g id="ID000286_00000146465564151671027510000005607324675441270434_">
	<g>
		<g transform="translate(194.234,284.021)">
			<g transform="rotate(-0.0)">
				<text transform="matrix(1 0 0 1 71.6169 -101.6301)" class="st14 st2 st3">A</text>
			</g>
		</g>
	</g>
</g>
<g id="ID000074_00000084522161555492742630000001358090803625616262_">
	<g>
		<g transform="translate(194.234,259.026)">
			<g transform="rotate(-0.0)">
				<text transform="matrix(1 0 0 1 51.6081 17.3347)" class="st14 st2 st3">A</text>
			</g>
		</g>
	</g>
</g>
<g id="ID000074_00000162321702199912918690000013779839884613231009_">
	<g>
		<g transform="translate(194.234,259.026)">
			<g transform="rotate(-0.0)">
				<text transform="matrix(1 0 0 1 77.8122 13.4333)" class="st14 st2 st3">A</text>
			</g>
		</g>
	</g>
</g>
<g id="ID000278_00000105402471450981851960000006282515674293035938_">
	<g>
		<g transform="translate(181.737,290.270)">
			<g transform="rotate(-0.0)">
				<text transform="matrix(1 0 0 1 65.4144 5.3465)" class="st14 st2 st3">A</text>
			</g>
		</g>
	</g>
</g>
<g id="ID000281_00000100372040365783629200000009399809878870260622_">
	<g>
		<g transform="translate(181.737,284.021)">
			<g transform="rotate(-0.0)">
				<text transform="matrix(1 0 0 1 65.4144 1.9676)" class="st14 st2 st3">C</text>
			</g>
		</g>
	</g>
</g>
<text transform="matrix(1 0 0 1 290.3724 270.5258)" class="st2 st7">3’</text>
<g id="ID000285_00000086682350744872763160000017281509100729748373_">
	<g>
		<g transform="translate(194.234,277.772)">
			<g transform="rotate(-0.0)">
				<text transform="matrix(1 0 0 1 71.6081 -125.1413)" class="st14 st2 st3">A</text>
			</g>
		</g>
	</g>
</g>
<g id="ID000286_00000022553792072942835690000006595555921547547056_">
	<g>
		<g transform="translate(194.234,284.021)">
			<g transform="rotate(-0.0)">
				<text transform="matrix(1 0 0 1 71.6081 -121.7619)" class="st14 st2 st3">A</text>
			</g>
		</g>
	</g>
</g>
<g id="ID000109_00000051376269392304464660000013885643083680957578_">
	<line class="st9" x1="249.6" y1="164.9" x2="249.6" y2="150.2"/>
</g>
<g id="ID000110_00000136408427556612168660000010769480309776345262_">
	<polygon class="st10" points="248.2,159.1 248.9,158.3 249.1,157.5 249.2,156.8 249.6,155.2 249.9,156.8 250,157.5 250.3,158.3 
		250.9,159.1 	"/>
</g>
<line class="st0" x1="263.9" y1="253.9" x2="253.1" y2="253.9"/>
<polygon class="st11" points="262.6,252 258.7,252 258.7,255.8 262.6,255.8 "/>
<polygon class="st11" points="253.1,253.9 256.9,256.1 256.9,251.7 "/>
<line class="st0" x1="252.8" y1="243.6" x2="264.4" y2="243.4"/>
<polygon class="st11" points="254.2,245.5 258.1,245.4 258,241.6 254.2,241.6 "/>
<polygon class="st11" points="263.2,243.4 263.2,243.3 263.2,243.1 263.2,243 263.1,242.9 263.1,242.7 263,242.6 263,242.5 
	262.9,242.4 262.9,242.3 262.8,242.2 262.7,242.1 262.6,242 262.5,241.9 262.4,241.8 262.3,241.7 262.2,241.6 262.1,241.6 
	262,241.5 261.9,241.4 261.7,241.4 261.6,241.4 261.5,241.3 261.4,241.3 261.2,241.3 261.1,241.3 261,241.3 260.8,241.3 
	260.7,241.4 260.6,241.4 260.4,241.4 260.3,241.5 260.2,241.5 260.1,241.6 260,241.6 259.9,241.7 259.8,241.8 259.7,241.9 
	259.6,242 259.5,242.1 259.4,242.2 259.3,242.3 259.3,242.4 259.2,242.5 259.2,242.7 259.1,242.8 259.1,242.9 259.1,243 
	259.1,243.2 259,243.3 259,243.4 259.1,243.6 259.1,243.7 259.1,243.8 259.1,244 259.2,244.1 259.2,244.2 259.3,244.3 259.3,244.4 
	259.4,244.5 259.5,244.7 259.6,244.8 259.7,244.8 259.8,244.9 259.9,245 260,245.1 260.1,245.2 260.2,245.2 260.3,245.3 
	260.4,245.3 260.6,245.4 260.7,245.4 260.8,245.4 260.9,245.4 261.1,245.5 261.2,245.4 261.3,245.4 261.5,245.4 261.6,245.4 
	261.7,245.4 261.8,245.3 262,245.3 262.1,245.2 262.2,245.1 262.3,245.1 262.4,245 262.5,244.9 262.6,244.8 262.7,244.7 
	262.8,244.6 262.9,244.5 262.9,244.4 263,244.3 263,244.2 263.1,244 263.1,243.9 263.1,243.8 263.2,243.6 263.2,243.5 "/>
<g id="ID000109_00000144322219482124173510000006040213073694518152_">
	<line class="st9" x1="248.8" y1="239.1" x2="248.8" y2="231.2"/>
</g>
<g id="ID000110_00000092457248737157153390000003014061294248492416_">
	<polygon class="st10" points="248.1,235.9 248.5,235.5 248.6,235.1 248.6,234.7 248.8,233.9 249,234.7 249.1,235.1 249.2,235.5 
		249.6,235.9 	"/>
</g>
<g id="ID000109_00000014634711932581186390000007965691238459898532_">
	<line class="st9" x1="249.6" y1="191.3" x2="249.6" y2="183.4"/>
</g>
<g id="ID000110_00000160880119684469641350000016987525878240728717_">
	<polygon class="st10" points="248.8,188.2 249.2,187.8 249.3,187.4 249.4,187 249.6,186.1 249.7,187 249.8,187.4 249.9,187.8 
		250.3,188.2 	"/>
</g>
<line class="st0" x1="252.5" y1="227.2" x2="264" y2="227"/>
<polygon class="st11" points="256.3,229.1 260.2,229 260.1,225.2 256.3,225.3 "/>
<line class="st0" x1="265" y1="179.2" x2="253.4" y2="179.4"/>
<polygon class="st11" points="263.6,177.3 259.8,177.3 259.8,181.2 263.7,181.1 "/>
<polygon class="st11" points="254.6,179.4 254.6,179.5 254.7,179.6 254.7,179.8 254.7,179.9 254.7,180 254.8,180.1 254.8,180.3 
	254.9,180.4 255,180.5 255,180.6 255.1,180.7 255.2,180.8 255.3,180.9 255.4,181 255.5,181.1 255.6,181.1 255.7,181.2 255.8,181.3 
	256,181.3 256.1,181.3 256.2,181.4 256.3,181.4 256.5,181.4 256.6,181.4 256.7,181.4 256.9,181.4 257,181.4 257.1,181.4 
	257.3,181.4 257.4,181.3 257.5,181.3 257.6,181.2 257.7,181.2 257.9,181.1 258,181 258.1,180.9 258.2,180.9 258.3,180.8 
	258.3,180.7 258.4,180.6 258.5,180.4 258.6,180.3 258.6,180.2 258.7,180.1 258.7,180 258.7,179.8 258.8,179.7 258.8,179.6 
	258.8,179.4 258.8,179.3 258.8,179.2 258.8,179.1 258.7,178.9 258.7,178.8 258.7,178.7 258.6,178.6 258.6,178.4 258.5,178.3 
	258.4,178.2 258.3,178.1 258.3,178 258.2,177.9 258.1,177.8 258,177.7 257.9,177.7 257.8,177.6 257.6,177.5 257.5,177.5 
	257.4,177.4 257.3,177.4 257.1,177.3 257,177.3 256.9,177.3 256.8,177.3 256.6,177.3 256.5,177.3 256.4,177.3 256.2,177.4 
	256.1,177.4 256,177.4 255.9,177.5 255.7,177.5 255.6,177.6 255.5,177.7 255.4,177.8 255.3,177.8 255.2,177.9 255.1,178 255,178.1 
	255,178.2 254.9,178.4 254.8,178.5 254.8,178.6 254.7,178.7 254.7,178.8 254.7,179 254.7,179.1 254.6,179.2 "/>
<line class="st0" x1="264.8" y1="169.3" x2="253.3" y2="169.5"/>
<polygon class="st11" points="263.5,167.4 259.6,167.5 259.7,171.3 263.5,171.3 "/>
<polygon class="st11" points="254.5,169.5 254.5,169.6 254.5,169.8 254.5,169.9 254.6,170 254.6,170.1 254.6,170.3 254.7,170.4 
	254.7,170.5 254.8,170.6 254.9,170.7 255,170.8 255.1,170.9 255.1,171 255.2,171.1 255.4,171.2 255.5,171.3 255.6,171.3 
	255.7,171.4 255.8,171.4 255.9,171.5 256.1,171.5 256.2,171.5 256.3,171.6 256.5,171.6 256.6,171.6 256.7,171.6 256.8,171.6 
	257,171.5 257.1,171.5 257.2,171.5 257.4,171.4 257.5,171.4 257.6,171.3 257.7,171.2 257.8,171.2 257.9,171.1 258,171 258.1,170.9 
	258.2,170.8 258.3,170.7 258.3,170.6 258.4,170.5 258.5,170.3 258.5,170.2 258.5,170.1 258.6,170 258.6,169.8 258.6,169.7 
	258.6,169.6 258.6,169.4 258.6,169.3 258.6,169.2 258.6,169.1 258.5,168.9 258.5,168.8 258.5,168.7 258.4,168.6 258.3,168.4 
	258.3,168.3 258.2,168.2 258.1,168.1 258,168 257.9,167.9 257.8,167.9 257.7,167.8 257.6,167.7 257.5,167.6 257.4,167.6 
	257.2,167.5 257.1,167.5 257,167.5 256.9,167.4 256.7,167.4 256.6,167.4 256.5,167.4 256.3,167.4 256.2,167.5 256.1,167.5 
	256,167.5 255.8,167.6 255.7,167.6 255.6,167.7 255.5,167.7 255.4,167.8 255.3,167.9 255.2,168 255.1,168.1 255,168.2 254.9,168.3 
	254.8,168.4 254.8,168.5 254.7,168.6 254.6,168.7 254.6,168.8 254.6,169 254.5,169.1 254.5,169.2 254.5,169.4 "/>
<polygon class="st10" points="261.3,215.5 261.3,215.4 261.3,215.3 261.3,215.1 261.2,215 261.2,214.9 261.1,214.8 261.1,214.6 
	261,214.5 261,214.4 260.9,214.3 260.8,214.2 260.7,214.1 260.6,214 260.5,213.9 260.4,213.8 260.3,213.8 260.2,213.7 260.1,213.6 
	260,213.6 259.8,213.6 259.7,213.5 259.6,213.5 259.5,213.5 259.3,213.5 259.2,213.5 259.1,213.5 258.9,213.5 258.8,213.5 
	258.7,213.5 258.5,213.6 258.4,213.6 258.3,213.7 258.2,213.7 258.1,213.8 258,213.9 257.9,214 257.8,214 257.7,214.1 257.6,214.2 
	257.5,214.3 257.4,214.5 257.4,214.6 257.3,214.7 257.3,214.8 257.2,214.9 257.2,215.1 257.2,215.2 257.2,215.3 257.1,215.5 
	257.1,215.6 257.2,215.7 257.2,215.8 257.2,216 257.2,216.1 257.3,216.2 257.3,216.4 257.4,216.5 257.4,216.6 257.5,216.7 
	257.6,216.8 257.7,216.9 257.8,217 257.9,217.1 258,217.2 258.1,217.2 258.2,217.3 258.3,217.4 258.4,217.4 258.5,217.5 
	258.7,217.5 258.8,217.6 258.9,217.6 259,217.6 259.2,217.6 259.3,217.6 259.4,217.6 259.6,217.6 259.7,217.5 259.8,217.5 
	259.9,217.5 260.1,217.4 260.2,217.4 260.3,217.3 260.4,217.2 260.5,217.1 260.6,217.1 260.7,217 260.8,216.9 260.9,216.8 
	261,216.7 261,216.5 261.1,216.4 261.1,216.3 261.2,216.2 261.2,216.1 261.2,215.9 261.3,215.8 261.3,215.7 "/>
<g id="ID000109_00000105406310798015369350000012006630540557958790_">
	<line class="st9" x1="249.6" y1="150.2" x2="265.1" y2="150.2"/>
</g>
<g id="ID000110_00000031902614715743874070000014162286184680163235_">
	<polygon class="st10" points="255.7,148.8 256.5,149.5 257.3,149.7 258.1,149.8 259.7,150.2 258.1,150.5 257.3,150.6 256.5,150.9 
		255.7,151.6 	"/>
</g>
<line class="st0" x1="279.3" y1="149" x2="272.9" y2="149"/>
<g transform="translate(173.405,290.270)">
	<g transform="rotate(-0.0)">
		<text transform="matrix(1 0 0 1 107.5665 -138.6931)" class="st2 st5">80</text>
	</g>
</g>
<line class="st0" x1="279.8" y1="242.3" x2="273.4" y2="242.3"/>
<g transform="translate(173.405,290.270)">
	<g transform="rotate(-0.0)">
		<text transform="matrix(1 0 0 1 108.0926 -45.4044)" class="st2 st5">90</text>
	</g>
</g>
<g id="ID000279_00000004518296308903185030000005333089889425627275_">
	<line class="st0" x1="243" y1="273.3" x2="236.6" y2="273.3"/>
</g>
<g id="ID000280_00000035530314665047608610000016982359934092497563_">
	<g transform="translate(173.405,290.270)">
		<g transform="rotate(-0.0)">
			<text transform="matrix(1 0 0 1 53.3435 -14.3661)" class="st2 st5">70</text>
		</g>
	</g>
</g>
<g>
	<text transform="matrix(1 0 0 1 283.6481 205.9055)" class="st14 st2 st6">P3</text>
</g>
<polygon class="st10" points="211.3,162.3 211.3,162.2 211.2,162.1 211.2,162 211.2,161.8 211.1,161.7 211,161.6 211,161.5 
	210.9,161.4 210.8,161.3 210.7,161.2 210.6,161.2 210.5,161.1 210.4,161 210.3,160.9 210.2,160.9 210.1,160.8 209.9,160.8 
	209.8,160.8 209.7,160.7 209.5,160.7 209.4,160.7 209.3,160.7 209.1,160.7 209,160.7 208.9,160.7 208.7,160.7 208.6,160.8 
	208.5,160.8 208.3,160.9 208.2,160.9 208.1,161 208,161 207.9,161.1 207.8,161.2 207.7,161.3 207.6,161.4 207.5,161.5 207.4,161.6 
	207.3,161.7 207.3,161.8 207.2,161.9 207.1,162 207.1,162.1 207.1,162.3 207,162.4 207,162.5 207,162.6 207,162.7 207,162.9 
	207,163 207.1,163.1 207.1,163.2 207.1,163.3 207.2,163.4 207.3,163.6 207.3,163.7 207.4,163.8 207.5,163.9 207.6,163.9 207.7,164 
	207.8,164.1 207.9,164.2 208,164.3 208.1,164.3 208.2,164.4 208.3,164.4 208.5,164.5 208.6,164.5 208.7,164.5 208.9,164.5 
	209,164.5 209.1,164.5 209.3,164.5 209.4,164.5 209.5,164.5 209.7,164.5 209.8,164.4 209.9,164.4 210.1,164.3 210.2,164.3 
	210.3,164.2 210.4,164.2 210.5,164.1 210.6,164 210.7,163.9 210.8,163.8 210.9,163.7 211,163.6 211,163.5 211.1,163.4 211.2,163.3 
	211.2,163.2 211.2,163 211.3,162.9 211.3,162.8 211.3,162.7 211.3,162.6 211.3,162.4 "/>
<g id="ID000204_00000163754357340313946140000009005193377770300346_">
	<line class="st0" x1="174.1" y1="230.4" x2="242.5" y2="269.7"/>
</g>
<g id="ID000109_00000168114445368640938870000005329820079170922888_">
	<line class="st9" x1="172.1" y1="316.4" x2="242.5" y2="295.6"/>
</g>
<g id="ID000110_00000120518093160008393300000015677807412301961132_">
	<polygon class="st10" points="200.5,305.9 203,306.2 205.3,305.9 207.5,305.4 212.1,304.6 207.8,306.4 205.7,307.2 203.6,308.2 
		201.7,309.9 	"/>
</g>
<g id="ID000342_00000124874138086545617560000000251739051645817018_">
	<polygon class="st11" points="209,250.7 207.1,246.8 204.7,250.5 	"/>
</g>
<g id="ID000294_00000021104977090948163890000008365142449237378435_">
	<line class="st0" x1="225.4" y1="233.9" x2="269" y2="233.9"/>
</g>
<g id="ID000294_00000003803425759008285770000006268460250009299902_">
	<line class="st0" x1="225.4" y1="283.8" x2="244.6" y2="283.8"/>
</g>
<g id="ID000294_00000032649838806314026660000015626333220041608836_">
	<line class="st0" x1="225.4" y1="234.2" x2="225.4" y2="284.1"/>
</g>
<circle class="st15" cx="169.4" cy="227.3" r="4.4"/>
<circle class="st15" cx="269" cy="226" r="4.4"/>
<circle class="st15" cx="248.8" cy="243.5" r="4.4"/>
<circle class="st15" cx="248.8" cy="253.1" r="4.4"/>
<circle class="st15" cx="203.3" cy="343.7" r="5"/>
<text transform="matrix(1 0 0 1 214.2297 342.7789)" class="st2 st16">Nucleotide directly</text>
<text transform="matrix(1 0 0 1 214.2297 352.3788)" class="st2 st16">contacts guanidinium</text>
<rect x="193.9" y="330" class="st17" width="109.9" height="27.6"/>
<text transform="matrix(1 0 0 1 20.3146 32.7158)" class="st2 st18">Guanidine-I riboswitch</text>
</svg>
