<?xml version="1.0" encoding="utf-8"?>
<!-- Generator: Adobe Illustrator 25.4.1, SVG Export Plug-In . SVG Version: 6.00 Build 0)  -->
<svg version="1.1" id="图层_1" xmlns="http://www.w3.org/2000/svg" xmlns:xlink="http://www.w3.org/1999/xlink" x="0px" y="0px"
	 viewBox="0 0 400 400" style="enable-background:new 0 0 400 400;" xml:space="preserve">
<style type="text/css">
	.st0{fill:#80DB9E;}
	.st1{font-family:'ArialMT';}
	.st2{font-size:17.14px;}
	.st3{enable-background:new    ;}
	.st4{fill:#EDCE58;}
	.st5{font-size:17.1429px;}
	.st6{fill:#BD7AA0;}
	.st7{font-size:12px;}
	.st8{fill:none;stroke:#000000;stroke-width:0.1429;stroke-miterlimit:1.1429;}
	.st9{fill:#FFFFFF;stroke:#000000;stroke-width:0.1429;stroke-miterlimit:1.1429;}
	.st10{stroke:#000000;stroke-width:0.1429;stroke-miterlimit:1.1429;}
	.st11{fill:none;stroke:#000000;stroke-width:1.4857;stroke-miterlimit:1.1429;}
	.st12{fill:#09FEFE;}
	.st13{font-size:14px;}
	.st14{font-size:20px;}
	.st15{fill:#FFFFFF;}
	.st16{font-size:8.2625px;}
	.st17{fill:#C40018;}
	.st18{font-size:9.1163px;}
	.st19{font-size:18px;}
</style>
<g transform="translate(618.684,582.923)">
	<g>
		<g transform="rotate(-0.0)">
			<text transform="matrix(1 0 0 1 -479.8186 -240.1868)" class="st0 st1 st2">C</text>
		</g>
	</g>
</g>
<g transform="translate(618.684,550.157)">
	<g>
		<g transform="rotate(-0.0)">
			<text transform="matrix(1 0 0 1 -479.8186 -224.4413)" class="st0 st1 st2">C</text>
		</g>
	</g>
</g>
<g transform="translate(618.684,517.391)">
	<g>
		<g transform="rotate(-0.0)">
			<text transform="matrix(1 0 0 1 -480.2952 -208.6958)" class="st0 st1 st2">G</text>
		</g>
	</g>
</g>
<g transform="translate(618.684,484.625)">
	<g>
		<g transform="rotate(-0.0)">
			<text transform="matrix(1 0 0 1 -480.2952 -192.9503)" class="st0 st1 st2">G</text>
		</g>
	</g>
</g>
<g transform="translate(602.301,435.476)" class="st3">
	<g transform="rotate(-0.0)">
		<text transform="matrix(1 0 0 1 -474.6895 -168.4834)" class="st4 st1 st5">A</text>
	</g>
</g>
<g transform="translate(577.726,394.519)" class="st3">
	<g transform="rotate(-0.0)">
		<text transform="matrix(1 0 0 1 -460.137 -149.6539)" class="st4 st1 st5">C</text>
	</g>
</g>
<g transform="translate(561.343,353.561)" class="st3">
	<g transform="rotate(-0.0)">
		<text transform="matrix(1 0 0 1 -452.7422 -129.9723)" class="st4 st1 st5">G</text>
	</g>
</g>
<g transform="translate(553.152,312.604)" class="st3">
	<g transform="rotate(-0.0)">
		<text transform="matrix(1 0 0 1 -447.8569 -110.2917)" class="st4 st1 st5">A</text>
	</g>
</g>
<g transform="translate(684.215,451.859)" class="st3">
	<g transform="rotate(-0.0)">
		<text transform="matrix(1 0 0 1 -511.3076 -177.2068)" class="st6 st1 st5">C</text>
	</g>
</g>
<g transform="translate(715.107,398.031)">
	<g transform="rotate(-0.0)">
		<text transform="matrix(1 0 0 1 -559.701 -123.3787)" class="st1 st7">20</text>
	</g>
</g>
<g transform="translate(684.215,484.625)">
	<g>
		<g transform="rotate(-0.0)">
			<text transform="matrix(1 0 0 1 -511.3076 -192.9503)" class="st0 st1 st2">C</text>
		</g>
	</g>
</g>
<g transform="translate(684.215,517.391)">
	<g>
		<g transform="rotate(-0.0)">
			<text transform="matrix(1 0 0 1 -511.3076 -208.6958)" class="st0 st1 st2">C</text>
		</g>
	</g>
</g>
<g transform="translate(684.215,550.157)">
	<g>
		<g transform="rotate(-0.0)">
			<text transform="matrix(1 0 0 1 -511.7842 -224.4413)" class="st0 st1 st2">G</text>
		</g>
	</g>
</g>
<g transform="translate(684.215,582.923)">
	<g>
		<g transform="rotate(-0.0)">
			<text transform="matrix(1 0 0 1 -511.7842 -240.1868)" class="st0 st1 st2">G</text>
		</g>
	</g>
</g>
<g transform="translate(733.364,607.497)" class="st3">
	<g transform="rotate(-0.0)">
		<text transform="matrix(1 0 0 1 -542.2308 -257.7017)" class="st6 st1 st5">U</text>
	</g>
</g>
<g transform="translate(766.130,566.540)" class="st3">
	<g transform="rotate(-0.0)">
		<text transform="matrix(1 0 0 1 -559.7983 -231.4625)" class="st6 st1 st5">C</text>
	</g>
</g>
<g transform="translate(749.747,525.582)" class="st3">
	<g transform="rotate(-0.0)">
		<text transform="matrix(1 0 0 1 -542.3494 -207.5258)" class="st6 st1 st5">A</text>
	</g>
</g>
<g transform="translate(766.130,492.816)" class="st3">
	<g transform="rotate(-0.0)">
		<text transform="matrix(1 0 0 1 -558.9411 -196.6001)" class="st6 st1 st5">G</text>
	</g>
</g>
<g transform="translate(749.747,451.859)" class="st3">
	<g transform="rotate(-0.0)">
		<text transform="matrix(1 0 0 1 -543.2742 -177.2068)" class="st6 st1 st5">G</text>
	</g>
</g>
<line class="st8" x1="151.9" y1="335.1" x2="172.3" y2="335.1"/>
<line class="st8" x1="151.9" y1="318.1" x2="172.3" y2="318.1"/>
<line class="st8" x1="151.9" y1="301" x2="172.3" y2="301"/>
<line class="st8" x1="151.9" y1="284" x2="172.3" y2="284"/>
<polyline class="st8" points="138.3,256 152.3,242.6 162.2,229.9 "/>
<polygon class="st9" points="141.9,253.1 142.1,253.2 142.2,253.4 142.4,253.5 142.6,253.6 142.8,253.7 143,253.8 143.2,253.9 
	143.4,254 143.6,254 143.8,254.1 144,254.1 144.3,254.1 144.5,254.1 144.7,254.1 144.9,254.1 145.1,254 145.3,254 145.5,253.9 
	145.7,253.8 145.9,253.7 146.1,253.6 146.3,253.5 146.5,253.4 146.6,253.2 146.8,253.1 146.9,252.9 147.1,252.7 147.2,252.6 
	147.3,252.4 147.4,252.2 147.5,252 147.6,251.8 147.6,251.6 147.7,251.4 147.7,251.2 147.7,250.9 147.7,250.7 147.7,250.5 
	147.7,250.3 147.7,250.1 147.6,249.9 147.6,249.7 147.5,249.5 147.4,249.3 147.3,249.1 147.2,248.9 147.1,248.7 147,248.5 
	146.8,248.4 146.7,248.2 146.5,248.1 146.3,247.9 146.2,247.8 146,247.7 145.8,247.6 145.6,247.5 145.4,247.5 145.2,247.4 
	145,247.3 144.7,247.3 144.5,247.3 144.3,247.3 144.1,247.3 143.9,247.3 143.7,247.4 143.5,247.4 143.2,247.5 143,247.5 
	142.8,247.6 142.7,247.7 142.5,247.8 142.3,248 142.1,248.1 142,248.2 141.8,248.4 141.7,248.6 141.5,248.7 141.4,248.9 
	141.3,249.1 141.2,249.3 141.1,249.5 141.1,249.7 141,249.9 141,250.1 140.9,250.3 140.9,250.6 140.9,250.8 140.9,251 141,251.2 
	141,251.4 141.1,251.6 141.1,251.8 141.2,252 141.3,252.2 141.4,252.4 141.5,252.6 141.6,252.8 141.8,252.9 "/>
<polygon class="st9" points="150.6,239.6 145.8,244.4 150.6,249.2 155.4,244.4 "/>
<polyline class="st8" points="129.4,233.4 149.3,220.2 160.9,211.5 "/>
<polygon class="st9" points="132.9,231.1 133,231.3 133.1,231.5 133.3,231.7 133.4,231.8 133.6,231.9 133.8,232.1 133.9,232.2 
	134.1,232.3 134.3,232.4 134.5,232.5 134.7,232.5 134.9,232.6 135.2,232.6 135.4,232.7 135.6,232.7 135.8,232.7 136,232.6 
	136.2,232.6 136.4,232.6 136.7,232.5 136.9,232.5 137.1,232.4 137.3,232.3 137.4,232.2 137.6,232.1 137.8,231.9 138,231.8 
	138.1,231.6 138.3,231.5 138.4,231.3 138.5,231.1 138.6,231 138.7,230.8 138.8,230.6 138.9,230.4 139,230.2 139,230 139.1,229.7 
	139.1,229.5 139.1,229.3 139.1,229.1 139.1,228.9 139,228.7 139,228.5 138.9,228.2 138.9,228 138.8,227.8 138.7,227.7 138.6,227.5 
	138.5,227.3 138.3,227.1 138.2,226.9 138,226.8 137.9,226.7 137.7,226.5 137.5,226.4 137.3,226.3 137.2,226.2 137,226.1 136.8,226 
	136.5,226 136.3,225.9 136.1,225.9 135.9,225.9 135.7,225.9 135.5,225.9 135.3,225.9 135,225.9 134.8,226 134.6,226 134.4,226.1 
	134.2,226.2 134,226.3 133.9,226.4 133.7,226.5 133.5,226.7 133.3,226.8 133.2,227 133.1,227.1 132.9,227.3 132.8,227.5 
	132.7,227.7 132.6,227.8 132.5,228 132.4,228.3 132.4,228.5 132.3,228.7 132.3,228.9 132.3,229.1 132.3,229.3 132.3,229.5 
	132.3,229.7 132.4,230 132.4,230.2 132.5,230.4 132.6,230.6 132.6,230.8 132.7,231 "/>
<polygon class="st9" points="144,219.6 138.3,223.4 142.1,229.1 147.8,225.3 "/>
<polyline class="st8" points="130.6,237.2 157.8,237.2 187.6,237.2 195.6,229.3 "/>
<polygon class="st9" points="147.6,237.2 147.6,237 147.6,236.8 147.5,236.6 147.5,236.4 147.4,236.1 147.4,235.9 147.3,235.7 
	147.2,235.6 147.1,235.4 146.9,235.2 146.8,235 146.7,234.9 146.5,234.7 146.4,234.6 146.2,234.4 146,234.3 145.8,234.2 
	145.6,234.1 145.4,234 145.2,234 145,233.9 144.8,233.9 144.6,233.8 144.4,233.8 144.1,233.8 143.9,233.8 143.7,233.8 143.5,233.9 
	143.3,233.9 143.1,234 142.9,234.1 142.7,234.2 142.5,234.3 142.3,234.4 142.1,234.5 142,234.6 141.8,234.8 141.7,234.9 
	141.5,235.1 141.4,235.3 141.3,235.5 141.2,235.6 141.1,235.8 141,236 140.9,236.2 140.9,236.5 140.8,236.7 140.8,236.9 
	140.8,237.1 140.8,237.3 140.8,237.5 140.8,237.7 140.9,238 140.9,238.2 141,238.4 141.1,238.6 141.2,238.8 141.3,239 141.4,239.1 
	141.5,239.3 141.7,239.5 141.8,239.6 142,239.8 142.1,239.9 142.3,240 142.5,240.2 142.7,240.3 142.9,240.3 143.1,240.4 
	143.3,240.5 143.5,240.5 143.7,240.6 143.9,240.6 144.1,240.6 144.4,240.6 144.6,240.6 144.8,240.6 145,240.5 145.2,240.5 
	145.4,240.4 145.6,240.3 145.8,240.2 146,240.1 146.2,240 146.4,239.8 146.5,239.7 146.7,239.6 146.8,239.4 146.9,239.2 147.1,239 
	147.2,238.9 147.3,238.7 147.4,238.5 147.4,238.3 147.5,238.1 147.5,237.8 147.6,237.6 147.6,237.4 "/>
<polyline class="st8" points="122.1,215.9 157.8,215.9 187.6,215.9 194.7,211.2 "/>
<polygon class="st10" points="175.5,215.9 175.5,216.1 175.6,216.4 175.6,216.6 175.6,216.8 175.7,217 175.8,217.2 175.9,217.4 
	176,217.6 176.1,217.8 176.2,217.9 176.3,218.1 176.5,218.3 176.6,218.4 176.8,218.6 177,218.7 177.1,218.8 177.3,218.9 177.5,219 
	177.7,219.1 177.9,219.2 178.1,219.2 178.3,219.3 178.6,219.3 178.8,219.3 179,219.3 179.2,219.3 179.4,219.3 179.6,219.3 
	179.8,219.2 180,219.1 180.2,219.1 180.4,219 180.6,218.9 180.8,218.8 181,218.6 181.2,218.5 181.3,218.4 181.5,218.2 181.6,218 
	181.7,217.9 181.8,217.7 182,217.5 182,217.3 182.1,217.1 182.2,216.9 182.2,216.7 182.3,216.5 182.3,216.3 182.3,216 182.3,215.8 
	182.3,215.6 182.3,215.4 182.2,215.2 182.2,215 182.1,214.8 182,214.6 182,214.4 181.8,214.2 181.7,214 181.6,213.8 181.5,213.7 
	181.3,213.5 181.2,213.4 181,213.2 180.8,213.1 180.6,213 180.4,212.9 180.2,212.8 180,212.7 179.8,212.6 179.6,212.6 179.4,212.6 
	179.2,212.5 179,212.5 178.8,212.5 178.6,212.5 178.3,212.6 178.1,212.6 177.9,212.7 177.7,212.7 177.5,212.8 177.3,212.9 
	177.1,213 177,213.2 176.8,213.3 176.6,213.4 176.5,213.6 176.3,213.7 176.2,213.9 176.1,214.1 176,214.3 175.9,214.5 175.8,214.7 
	175.7,214.9 175.6,215.1 175.6,215.3 175.6,215.5 175.5,215.7 "/>
<polygon class="st10" points="191.4,212.5 184.6,212.5 184.6,219.3 191.4,219.3 "/>
<polyline class="st8" points="117.1,191.6 128,186.1 153.6,186.1 187.6,186.1 193.9,188.2 "/>
<polygon class="st10" points="133,186.1 133,186.4 133,186.6 133,186.8 133.1,187 133.1,187.2 133.2,187.4 133.3,187.6 133.4,187.8 
	133.5,188 133.6,188.2 133.8,188.3 133.9,188.5 134.1,188.6 134.2,188.8 134.4,188.9 134.6,189 134.8,189.1 135,189.2 135.2,189.3 
	135.4,189.4 135.6,189.4 135.8,189.5 136,189.5 136.2,189.5 136.4,189.5 136.6,189.5 136.9,189.5 137.1,189.5 137.3,189.4 
	137.5,189.4 137.7,189.3 137.9,189.2 138.1,189.1 138.3,189 138.4,188.9 138.6,188.7 138.8,188.6 138.9,188.4 139.1,188.2 
	139.2,188.1 139.3,187.9 139.4,187.7 139.5,187.5 139.6,187.3 139.6,187.1 139.7,186.9 139.7,186.7 139.8,186.5 139.8,186.2 
	139.8,186 139.8,185.8 139.7,185.6 139.7,185.4 139.6,185.2 139.6,185 139.5,184.8 139.4,184.6 139.3,184.4 139.2,184.2 139.1,184 
	138.9,183.9 138.8,183.7 138.6,183.6 138.4,183.4 138.3,183.3 138.1,183.2 137.9,183.1 137.7,183 137.5,182.9 137.3,182.9 
	137.1,182.8 136.9,182.8 136.6,182.7 136.4,182.7 136.2,182.7 136,182.8 135.8,182.8 135.6,182.8 135.4,182.9 135.2,183 135,183 
	134.8,183.1 134.6,183.2 134.4,183.4 134.2,183.5 134.1,183.6 133.9,183.8 133.8,184 133.6,184.1 133.5,184.3 133.4,184.5 
	133.3,184.7 133.2,184.9 133.1,185.1 133.1,185.3 133,185.5 133,185.7 133,185.9 "/>
<polygon class="st10" points="148.6,182.7 141.8,182.7 141.8,189.5 148.6,189.5 "/>
<line class="st11" x1="168.3" y1="231" x2="177.1" y2="260.5"/>
<polygon class="st10" points="176,238.8 174.3,242.3 174.3,245.2 174.8,248.1 175.2,253.9 172.3,248.8 171.1,246.2 169.5,243.7 
	166.2,241.7 "/>
<line class="st8" x1="185.9" y1="267" x2="206.3" y2="267"/>
<polygon class="st10" points="199.5,267 199.5,266.8 199.5,266.6 199.5,266.3 199.4,266.1 199.4,265.9 199.3,265.7 199.2,265.5 
	199.1,265.3 199,265.2 198.9,265 198.7,264.8 198.6,264.6 198.4,264.5 198.3,264.4 198.1,264.2 197.9,264.1 197.7,264 197.5,263.9 
	197.3,263.8 197.1,263.7 196.9,263.7 196.7,263.6 196.5,263.6 196.3,263.6 196.1,263.6 195.8,263.6 195.6,263.6 195.4,263.7 
	195.2,263.7 195,263.8 194.8,263.9 194.6,263.9 194.4,264 194.2,264.2 194.1,264.3 193.9,264.4 193.7,264.6 193.6,264.7 
	193.4,264.9 193.3,265.1 193.2,265.2 193.1,265.4 193,265.6 192.9,265.8 192.9,266 192.8,266.2 192.8,266.5 192.7,266.7 
	192.7,266.9 192.7,267.1 192.7,267.3 192.8,267.5 192.8,267.7 192.9,268 192.9,268.2 193,268.4 193.1,268.6 193.2,268.7 
	193.3,268.9 193.4,269.1 193.6,269.3 193.7,269.4 193.9,269.6 194.1,269.7 194.2,269.8 194.4,269.9 194.6,270 194.8,270.1 
	195,270.2 195.2,270.3 195.4,270.3 195.6,270.4 195.8,270.4 196.1,270.4 196.3,270.4 196.5,270.4 196.7,270.3 196.9,270.3 
	197.1,270.2 197.3,270.2 197.5,270.1 197.7,270 197.9,269.9 198.1,269.8 198.3,269.6 198.4,269.5 198.6,269.3 198.7,269.2 
	198.9,269 199,268.8 199.1,268.6 199.2,268.5 199.3,268.3 199.4,268.1 199.4,267.8 199.5,267.6 199.5,267.4 199.5,267.2 "/>
<line class="st8" x1="217" y1="261.4" x2="239" y2="230"/>
<polygon class="st9" points="223,253 229.9,249.7 223.6,245.3 "/>
<polygon class="st9" points="232.5,239.3 232.3,239.2 232.2,239.1 232,239 231.8,238.9 231.6,238.8 231.3,238.8 231.1,238.7 
	230.9,238.7 230.7,238.7 230.5,238.7 230.3,238.7 230.1,238.7 229.8,238.8 229.6,238.8 229.4,238.9 229.2,239 229,239.1 
	228.8,239.2 228.7,239.3 228.5,239.4 228.3,239.5 228.2,239.7 228,239.8 227.9,240 227.8,240.2 227.6,240.4 227.5,240.6 
	227.4,240.8 227.4,241 227.3,241.2 227.2,241.4 227.2,241.6 227.2,241.8 227.2,242 227.2,242.2 227.2,242.4 227.2,242.7 
	227.3,242.9 227.3,243.1 227.4,243.3 227.5,243.5 227.6,243.7 227.7,243.9 227.8,244 227.9,244.2 228.1,244.4 228.2,244.5 
	228.4,244.7 228.5,244.8 228.7,244.9 228.9,245.1 229.1,245.2 229.3,245.2 229.5,245.3 229.7,245.4 229.9,245.4 230.1,245.5 
	230.3,245.5 230.5,245.5 230.8,245.5 231,245.5 231.2,245.4 231.4,245.4 231.6,245.3 231.8,245.3 232,245.2 232.2,245.1 232.4,245 
	232.6,244.8 232.7,244.7 232.9,244.6 233.1,244.4 233.2,244.3 233.3,244.1 233.5,243.9 233.6,243.7 233.7,243.5 233.7,243.3 
	233.8,243.1 233.9,242.9 233.9,242.7 234,242.5 234,242.3 234,242.1 234,241.8 233.9,241.6 233.9,241.4 233.9,241.2 233.8,241 
	233.7,240.8 233.6,240.6 233.5,240.4 233.4,240.2 233.3,240 233.2,239.9 233,239.7 232.9,239.6 232.7,239.4 "/>
<g transform="translate(553.152,279.838)" class="st3">
	<g transform="rotate(-0.0)">
		<text transform="matrix(1 0 0 1 -448.8061 -94.5481)" class="st4 st1 st5">G</text>
	</g>
</g>
<g transform="translate(553.152,247.072)" class="st3">
	<g transform="rotate(-0.0)">
		<text transform="matrix(1 0 0 1 -448.8061 -78.8026)" class="st4 st1 st5">G</text>
	</g>
</g>
<g transform="translate(509.464,247.072)">
	<g transform="rotate(-0.0)">
		<text transform="matrix(1 0 0 1 -422.8564 -78.5172)" class="st1 st7">10</text>
	</g>
</g>
<g transform="translate(553.152,214.306)" class="st3">
	<g transform="rotate(-0.0)">
		<text transform="matrix(1 0 0 1 -448.3286 -63.0581)" class="st4 st1 st5">U</text>
	</g>
</g>
<g transform="translate(659.641,140.582)">
	<g>
		<g transform="rotate(-0.0)">
			<text transform="matrix(1 0 0 1 -499.9758 -27.6329)" class="st12 st1 st2">G</text>
		</g>
	</g>
</g>
<g transform="translate(659.641,173.348)">
	<g>
		<g transform="rotate(-0.0)">
			<text transform="matrix(1 0 0 1 -499.4992 -43.3784)" class="st12 st1 st2">C</text>
		</g>
	</g>
</g>
<g transform="translate(659.641,206.114)">
	<g>
		<g transform="rotate(-0.0)">
			<text transform="matrix(1 0 0 1 -499.9758 -59.122)" class="st12 st1 st2">G</text>
		</g>
	</g>
</g>
<g transform="translate(659.641,238.880)">
	<g>
		<g transform="rotate(-0.0)">
			<text transform="matrix(1 0 0 1 -499.4992 -74.8655)" class="st12 st1 st2">C</text>
		</g>
	</g>
</g>
<g transform="translate(659.641,271.646)">
	<g>
		<g transform="rotate(-0.0)">
			<text transform="matrix(1 0 0 1 -499.4992 -90.611)" class="st12 st1 st2">C</text>
		</g>
	</g>
</g>
<g transform="translate(659.641,304.412)">
	<g>
		<g transform="rotate(-0.0)">
			<text transform="matrix(1 0 0 1 -499.9758 -106.3565)" class="st12 st1 st2">G</text>
		</g>
	</g>
</g>
<g transform="translate(659.641,337.178)">
	<g>
		<g transform="rotate(-0.0)">
			<text transform="matrix(0.9998 2.054273e-02 -2.054273e-02 0.9998 -500.1179 -124.6532)" class="st12 st1 st2">U</text>
		</g>
	</g>
</g>
<g transform="translate(659.641,369.944)" class="st3">
	<g transform="rotate(-0.0)">
		<text transform="matrix(1 0 0 1 -499.0256 -137.8455)" class="st6 st1 st5">A</text>
	</g>
</g>
<g transform="translate(782.513,435.476)" class="st3">
	<g transform="rotate(-0.0)">
		<text transform="matrix(1 0 0 1 -558.0685 -169.3346)" class="st6 st1 st5">A</text>
	</g>
</g>
<g transform="translate(826.201,435.476)">
	<g transform="rotate(-0.0)">
		<text transform="matrix(1 0 0 1 -592.2247 -156.2812)" class="st1 st7">30</text>
	</g>
</g>
<g transform="translate(807.088,410.902)" class="st3">
	<g transform="rotate(-0.0)">
		<text transform="matrix(1 0 0 1 -570.3495 -157.5262)" class="st6 st1 st5">C</text>
	</g>
</g>
<g transform="translate(807.088,369.944)" class="st3">
	<g transform="rotate(-0.0)">
		<text transform="matrix(1 0 0 1 -569.8779 -137.8455)" class="st6 st1 st5">A</text>
	</g>
</g>
<g transform="translate(766.130,369.944)" class="st3">
	<g transform="rotate(-0.0)">
		<text transform="matrix(1 0 0 1 -550.1962 -137.8455)" class="st6 st1 st5">A</text>
	</g>
</g>
<g transform="translate(725.173,369.944)" class="st3">
	<g transform="rotate(-0.0)">
		<text transform="matrix(1 0 0 1 -531.4658 -137.8455)" class="st6 st1 st5">G</text>
	</g>
</g>
<g transform="translate(725.173,337.178)">
	<g>
		<g transform="rotate(-0.0)">
			<text transform="matrix(1 0 0 1 -530.5156 -122.102)" class="st12 st1 st2">A</text>
		</g>
	</g>
</g>
<g transform="translate(725.173,304.412)">
	<g>
		<g transform="rotate(-0.0)">
			<text transform="matrix(1 0 0 1 -530.9882 -106.3565)" class="st12 st1 st2">C</text>
		</g>
	</g>
</g>
<g transform="translate(725.173,271.646)">
	<g>
		<g transform="rotate(-0.0)">
			<text transform="matrix(1 0 0 1 -531.4658 -90.611)" class="st12 st1 st2">G</text>
		</g>
	</g>
</g>
<g transform="translate(725.173,238.880)">
	<g>
		<g transform="rotate(-0.0)">
			<text transform="matrix(1 0 0 1 -531.4658 -74.8655)" class="st12 st1 st2">G</text>
		</g>
	</g>
</g>
<g transform="translate(725.173,206.114)">
	<g>
		<g transform="rotate(-0.0)">
			<text transform="matrix(1 0 0 1 -530.9882 -59.122)" class="st12 st1 st2">C</text>
		</g>
	</g>
</g>
<g transform="translate(725.173,173.348)">
	<g>
		<g transform="rotate(-0.0)">
			<text transform="matrix(1 0 0 1 -531.4658 -43.3784)" class="st12 st1 st2">G</text>
		</g>
	</g>
</g>
<g transform="translate(768.861,173.348)">
	<g transform="rotate(-0.0)">
		<text transform="matrix(1 0 0 1 -558.8011 -43.1731)" class="st1 st7">40</text>
	</g>
</g>
<g transform="translate(725.173,140.582)">
	<g>
		<g transform="rotate(-0.0)">
			<text transform="matrix(1 0 0 1 -530.9882 -27.6329)" class="st12 st1 st2">C</text>
		</g>
	</g>
</g>
<polyline class="st8" points="117.1,174.6 128,169.1 153.6,169.1 187.6,169.1 193.9,171.2 "/>
<polygon class="st10" points="133,169.1 133,169.3 133,169.6 133,169.8 133.1,170 133.1,170.2 133.2,170.4 133.3,170.6 133.4,170.8 
	133.5,171 133.6,171.1 133.8,171.3 133.9,171.5 134.1,171.6 134.2,171.8 134.4,171.9 134.6,172 134.8,172.1 135,172.2 135.2,172.3 
	135.4,172.4 135.6,172.4 135.8,172.5 136,172.5 136.2,172.5 136.4,172.5 136.6,172.5 136.9,172.5 137.1,172.5 137.3,172.4 
	137.5,172.3 137.7,172.3 137.9,172.2 138.1,172.1 138.3,172 138.4,171.8 138.6,171.7 138.8,171.5 138.9,171.4 139.1,171.2 
	139.2,171.1 139.3,170.9 139.4,170.7 139.5,170.5 139.6,170.3 139.6,170.1 139.7,169.9 139.7,169.7 139.8,169.4 139.8,169.2 
	139.8,169 139.8,168.8 139.7,168.6 139.7,168.4 139.6,168.2 139.6,168 139.5,167.8 139.4,167.6 139.3,167.4 139.2,167.2 139.1,167 
	138.9,166.9 138.8,166.7 138.6,166.5 138.4,166.4 138.3,166.3 138.1,166.2 137.9,166.1 137.7,166 137.5,165.9 137.3,165.8 
	137.1,165.8 136.9,165.8 136.6,165.7 136.4,165.7 136.2,165.7 136,165.7 135.8,165.8 135.6,165.8 135.4,165.9 135.2,165.9 135,166 
	134.8,166.1 134.6,166.2 134.4,166.3 134.2,166.5 134.1,166.6 133.9,166.8 133.8,166.9 133.6,167.1 133.5,167.3 133.4,167.5 
	133.3,167.7 133.2,167.9 133.1,168.1 133.1,168.3 133,168.5 133,168.7 133,168.9 "/>
<polygon class="st10" points="148.6,165.7 141.8,165.7 141.8,172.5 148.6,172.5 "/>
<polyline class="st8" points="117.1,157.6 128,152.1 153.6,152.1 187.6,152.1 193.9,154.2 "/>
<polygon class="st10" points="133,152.1 133,152.3 133,152.5 133,152.7 133.1,153 133.1,153.2 133.2,153.4 133.3,153.6 133.4,153.8 
	133.5,153.9 133.6,154.1 133.8,154.3 133.9,154.4 134.1,154.6 134.2,154.7 134.4,154.9 134.6,155 134.8,155.1 135,155.2 
	135.2,155.3 135.4,155.3 135.6,155.4 135.8,155.5 136,155.5 136.2,155.5 136.4,155.5 136.6,155.5 136.9,155.5 137.1,155.4 
	137.3,155.4 137.5,155.3 137.7,155.2 137.9,155.1 138.1,155 138.3,154.9 138.4,154.8 138.6,154.7 138.8,154.5 138.9,154.4 
	139.1,154.2 139.2,154 139.3,153.8 139.4,153.7 139.5,153.5 139.6,153.3 139.6,153.1 139.7,152.8 139.7,152.6 139.8,152.4 
	139.8,152.2 139.8,152 139.8,151.8 139.7,151.6 139.7,151.3 139.6,151.1 139.6,150.9 139.5,150.7 139.4,150.5 139.3,150.4 
	139.2,150.2 139.1,150 138.9,149.8 138.8,149.7 138.6,149.5 138.4,149.4 138.3,149.3 138.1,149.2 137.9,149 137.7,149 137.5,148.9 
	137.3,148.8 137.1,148.8 136.9,148.7 136.6,148.7 136.4,148.7 136.2,148.7 136,148.7 135.8,148.7 135.6,148.8 135.4,148.8 
	135.2,148.9 135,149 134.8,149.1 134.6,149.2 134.4,149.3 134.2,149.5 134.1,149.6 133.9,149.7 133.8,149.9 133.6,150.1 
	133.5,150.3 133.4,150.4 133.3,150.6 133.2,150.8 133.1,151 133.1,151.2 133,151.5 133,151.7 133,151.9 "/>
<polygon class="st10" points="148.6,148.7 141.8,148.7 141.8,155.5 148.6,155.5 "/>
<polyline class="st8" points="117.1,140.5 128,135.1 153.6,135.1 187.6,135.1 193.9,137.2 "/>
<polygon class="st9" points="133,135.1 133,135.3 133,135.5 133,135.7 133.1,135.9 133.1,136.1 133.2,136.3 133.3,136.5 
	133.4,136.7 133.5,136.9 133.6,137.1 133.8,137.3 133.9,137.4 134.1,137.6 134.2,137.7 134.4,137.9 134.6,138 134.8,138.1 
	135,138.2 135.2,138.3 135.4,138.3 135.6,138.4 135.8,138.4 136,138.5 136.2,138.5 136.4,138.5 136.6,138.5 136.9,138.4 
	137.1,138.4 137.3,138.4 137.5,138.3 137.7,138.2 137.9,138.1 138.1,138 138.3,137.9 138.4,137.8 138.6,137.7 138.8,137.5 
	138.9,137.3 139.1,137.2 139.2,137 139.3,136.8 139.4,136.6 139.5,136.4 139.6,136.2 139.6,136 139.7,135.8 139.7,135.6 
	139.8,135.4 139.8,135.2 139.8,135 139.8,134.8 139.7,134.5 139.7,134.3 139.6,134.1 139.6,133.9 139.5,133.7 139.4,133.5 
	139.3,133.3 139.2,133.1 139.1,133 138.9,132.8 138.8,132.7 138.6,132.5 138.4,132.4 138.3,132.2 138.1,132.1 137.9,132 
	137.7,131.9 137.5,131.9 137.3,131.8 137.1,131.7 136.9,131.7 136.6,131.7 136.4,131.7 136.2,131.7 136,131.7 135.8,131.7 
	135.6,131.8 135.4,131.8 135.2,131.9 135,132 134.8,132.1 134.6,132.2 134.4,132.3 134.2,132.4 134.1,132.6 133.9,132.7 
	133.8,132.9 133.6,133.1 133.5,133.2 133.4,133.4 133.3,133.6 133.2,133.8 133.1,134 133.1,134.2 133,134.4 133,134.6 133,134.9 "/>
<polygon class="st9" points="148.6,131.7 141.8,131.7 141.8,138.5 148.6,138.5 "/>
<line class="st8" x1="173.1" y1="105.3" x2="193.6" y2="105.3"/>
<line class="st8" x1="173.1" y1="122.3" x2="193.6" y2="122.3"/>
<line class="st8" x1="173.1" y1="139.3" x2="193.6" y2="139.3"/>
<line class="st8" x1="173.1" y1="156.4" x2="193.6" y2="156.4"/>
<line class="st8" x1="173.1" y1="173.4" x2="193.6" y2="173.4"/>
<line class="st8" x1="173.1" y1="190.4" x2="193.6" y2="190.4"/>
<line class="st8" x1="173.1" y1="207.4" x2="193.6" y2="207.4"/>
<line class="st8" x1="173.1" y1="224.4" x2="193.6" y2="224.4"/>
<polygon class="st10" points="175.5,224.4 175.5,224.7 175.6,224.9 175.6,225.1 175.6,225.3 175.7,225.5 175.8,225.7 175.9,225.9 
	176,226.1 176.1,226.3 176.2,226.5 176.3,226.6 176.5,226.8 176.6,226.9 176.8,227.1 177,227.2 177.1,227.3 177.3,227.4 
	177.5,227.5 177.7,227.6 177.9,227.7 178.1,227.7 178.3,227.8 178.5,227.8 178.8,227.8 179,227.8 179.2,227.8 179.4,227.8 
	179.6,227.8 179.8,227.7 180,227.7 180.2,227.6 180.4,227.5 180.6,227.4 180.8,227.3 181,227.1 181.2,227 181.3,226.9 181.5,226.7 
	181.6,226.5 181.7,226.4 181.8,226.2 182,226 182,225.8 182.1,225.6 182.2,225.4 182.2,225.2 182.3,225 182.3,224.8 182.3,224.5 
	182.3,224.3 182.3,224.1 182.3,223.9 182.2,223.7 182.2,223.5 182.1,223.3 182,223.1 182,222.9 181.8,222.7 181.7,222.5 
	181.6,222.3 181.5,222.2 181.3,222 181.2,221.9 181,221.7 180.8,221.6 180.6,221.5 180.4,221.4 180.2,221.3 180,221.2 179.8,221.2 
	179.6,221.1 179.4,221.1 179.2,221 179,221 178.8,221 178.5,221.1 178.3,221.1 178.1,221.1 177.9,221.2 177.7,221.3 177.5,221.3 
	177.3,221.4 177.1,221.5 177,221.7 176.8,221.8 176.6,221.9 176.5,222.1 176.3,222.3 176.2,222.4 176.1,222.6 176,222.8 175.9,223 
	175.8,223.2 175.7,223.4 175.6,223.6 175.6,223.8 175.6,224 175.5,224.2 "/>
<polygon class="st10" points="192.2,224.4 185.6,220.6 185.6,228.3 "/>
<polyline class="st11" points="111,136.8 111,105.3 159.5,105.3 "/>
<polygon class="st10" points="129.6,100.2 132.4,102.7 135.3,103.6 138.1,104 143.8,105.3 138.1,106.6 135.3,107 132.4,107.8 
	129.6,110.4 "/>
<text transform="matrix(1 0 0 1 127.5852 354.8354)" class="st1 st13">5’</text>
<text transform="matrix(1 0 0 1 211.7217 105.2899)" class="st1 st13">3’</text>
<polyline class="st8" points="152.3,315.8 159.7,313 177.5,311.5 201.1,309.5 205.5,309.9 "/>
<text transform="matrix(1 0 0 1 106.1773 322.5984)" class="st0 st1 st14">P1</text>
<text transform="matrix(1 0 0 1 215.9077 168.269)" class="st12 st1 st14">P2</text>
<text transform="matrix(1 -4.829993e-03 4.829993e-03 1 125.6227 203.1691)" class="st15 st1 st16">Guan</text>
<g>
	<path class="st17" d="M154.9,201.2c0.3,3.2-7,6.4-16.3,7.3c-9.3,0.9-17.1-1-17.4-4.1s7-6.4,16.3-7.3
		C146.9,196.2,154.6,198,154.9,201.2z"/>
	<text transform="matrix(0.9955 -9.450346e-02 9.450346e-02 0.9955 128.1553 206.5313)" class="st15 st1 st18">Guan</text>
</g>
<line class="st8" x1="154.3" y1="197.7" x2="159.7" y2="194.2"/>
<line class="st8" x1="121.2" y1="214.2" x2="126.1" y2="209.2"/>
<line class="st8" x1="128.9" y1="231.8" x2="133.7" y2="210.9"/>
<text transform="matrix(1 0 0 1 39.1101 61.4287)" class="st1 st19">Guanidine-III riboswitch</text>
</svg>
