<?xml version="1.0" encoding="utf-8"?>
<!-- Generator: Adobe Illustrator 25.4.1, SVG Export Plug-In . SVG Version: 6.00 Build 0)  -->
<svg version="1.1" id="图层_1" xmlns="http://www.w3.org/2000/svg" xmlns:xlink="http://www.w3.org/1999/xlink" x="0px" y="0px"
	 viewBox="0 0 400 400" style="enable-background:new 0 0 400 400;" xml:space="preserve">
<style type="text/css">
	.st0{fill:#0A0000;}
	.st1{fill:none;stroke:#E5E5E4;stroke-width:7.2;stroke-linecap:round;stroke-linejoin:round;stroke-miterlimit:10;}
	.st2{fill:#D1E3BF;}
	.st3{fill:none;stroke:#0A0000;stroke-width:1.44;stroke-miterlimit:10;}
	.st4{fill:#F0D5D7;}
	.st5{fill:#C7D5E4;}
	.st6{fill:#807C88;}
	.st7{fill:#C6281E;}
	.st8{fill:none;stroke:#0A0000;stroke-width:0.72;stroke-miterlimit:10;}
	.st9{fill:none;stroke:#0A0000;stroke-width:1.5;stroke-miterlimit:10;}
	.st10{fill:none;stroke:#0A0000;stroke-width:0.5;stroke-miterlimit:10;}
	.st11{fill:#221F20;}
	.st12{fill:#C72D2C;}
	.st13{fill:#808080;}
	.st14{fill:#C12B2A;}
	.st15{fill:#0B0404;}
	.st16{fill:#ECCBD2;}
	.st17{fill:none;stroke:#0A0000;stroke-width:1.944;stroke-miterlimit:10;}
	.st18{fill:#D1E2AF;}
	.st19{fill:#CFD6E7;}
	.st20{fill:none;stroke:#0A0000;stroke-width:0.5;}
	.st21{font-family:'ArialMT';}
	.st22{font-size:20px;}
</style>
<g>
	<path class="st0" d="M45.1,94.7l1.3,6.8c0.3,1.4,0.4,2.4,0.7,3.4l0,0c0.3-0.8,0.7-1.7,1.4-3.2l3.4-7.1h2.4l-4.8,9.7
		c-1.4,2.7-2.7,5-4.5,6.7c-1.4,1.4-3.1,2.1-3.6,2.2l-0.4-1.9c0.4-0.1,1.4-0.4,2.4-1.3c0.8-0.7,1.7-1.7,2.5-3.1
		c0.1-0.1,0.1-0.3,0-0.7l-2.5-11.9L45.1,94.7L45.1,94.7z"/>
	<path class="st0" d="M53.7,107.5l3.5-18.6h2.2l-2.2,11.7l0,0c0.3-0.4,0.8-1,1.1-1.3l4.5-4.5h2.7l-5.6,5.2l3.8,7.4h-2.4l-3.1-6.3
		l-1.6,1.4l-1,4.9C55.8,107.5,53.7,107.5,53.7,107.5z"/>
	<path class="st0" d="M65.8,107.5l3.5-18.6h2.2l-2.2,11.7l0,0c0.3-0.4,0.8-1,1.1-1.3l4.5-4.5h2.7L72,100l3.8,7.4h-2.2l-3.1-6.3
		l-1.6,1.4l-1,4.9C68,107.5,65.8,107.5,65.8,107.5z"/>
	<path class="st0" d="M90.1,106.8c-1,0.4-2.5,0.8-4.6,0.8c-4.5,0-7.1-2.8-7.1-7.3c0-3.4,1.3-6.5,3.8-8.5c1.9-1.6,4.1-2.4,6.7-2.4
		c1.9,0,3.4,0.4,3.8,0.8l-0.7,1.7c-0.7-0.3-1.9-0.8-3.5-0.8c-1.9,0-3.6,0.7-5,2.1c-1.6,1.6-2.7,4.1-2.7,6.8c0,3.2,1.4,5.9,5.3,5.9
		c1.3,0,2.8-0.3,3.8-0.8L90.1,106.8z"/>
	<path class="st0" d="M99.1,99.6v1.7h-6.5v-1.7H99.1z"/>
	<path class="st0" d="M104.1,89.8v17.8h-2.4V89.8H104.1z"/>
	<path class="st0" d="M110.3,89.8v17.8h-2.4V89.8H110.3z"/>
	<path class="st0" d="M116.6,89.8v17.8h-2.4V89.8H116.6z"/>
</g>
<line class="st1" x1="250.6" y1="252.9" x2="250.6" y2="189.7"/>
<line class="st1" x1="250.6" y1="146.3" x2="250.6" y2="114.8"/>
<g>
	<path class="st0" d="M21.9,230.6h-4.3l-0.4,2.8c0.3,0,0.4,0,1,0c1,0,1.7,0.1,2.5,0.7c1,0.4,1.6,1.4,1.6,3.1c0,2.2-1.7,3.9-4.3,3.9
		c-1.3,0-2.2-0.3-2.8-0.7l0.3-1.1c0.4,0.3,1.4,0.7,2.5,0.7c1.4,0,2.7-1,2.7-2.5c0-1.6-1-2.5-3.4-2.5c-0.7,0-1.1,0-1.6,0.1l0.8-5.3
		h5.3C21.9,229.3,21.9,230.6,21.9,230.6z"/>
	<path class="st0" d="M24,232.8c0.4-1.4,1.1-3.4,1.6-4.1l1-0.1c-0.3,1.1-0.8,2.8-1.1,4.1L24,232.8z"/>
</g>
<g>
	<path class="st0" d="M18.5,186.9c-2.2,0-3.8-2.1-3.8-5.9c0-3.8,1.7-5.9,3.9-5.9c2.4,0,3.8,2.2,3.8,5.7
		C22.4,184.7,21,186.9,18.5,186.9L18.5,186.9z M18.6,185.6c1.6,0,2.4-1.9,2.4-4.8s-0.7-4.6-2.4-4.6c-1.4,0-2.4,1.7-2.4,4.6
		C16.2,183.8,17,185.6,18.6,185.6L18.6,185.6z"/>
	<path class="st0" d="M28,181.3v1.1h-4.3v-1.1H28z"/>
	<path class="st0" d="M29.5,185c0.4,0.3,1.4,0.7,2.5,0.7c1.9,0,2.5-1.3,2.5-2.2c0-1.6-1.4-2.2-3.1-2.2h-0.8v-1.1h0.8
		c1.1,0,2.5-0.7,2.5-1.9c0-1-0.7-1.7-2.1-1.7c-1,0-1.7,0.4-2.2,0.8l-0.4-1.1c0.7-0.4,1.7-1,3.1-1c2.2,0,3.4,1.3,3.4,2.7
		c0,1.3-0.8,2.2-2.1,2.7l0,0c1.4,0.3,2.5,1.3,2.5,2.8c0,1.9-1.4,3.5-4.1,3.5c-1.3,0-2.4-0.4-3.1-0.8L29.5,185z"/>
	<path class="st0" d="M23.2,198c0-1,0-1.6,0-2.4h1.3l0.1,1.4l0,0c0.4-0.8,1.4-1.6,2.8-1.6c1.1,0,3.1,0.7,3.1,3.6v5h-1.6v-4.9
		c0-1.4-0.4-2.5-1.9-2.5c-1,0-1.7,0.8-2.1,1.6c0,0.1-0.1,0.4-0.1,0.8v5h-1.6C23.2,204.1,23.2,198,23.2,198z"/>
	<path class="st0" d="M34.8,193.6v2.1h2.2v1.1h-2.2v4.6c0,1.1,0.3,1.6,1.1,1.6c0.4,0,0.7,0,1-0.1v1.1c-0.3,0.1-0.8,0.1-1.4,0.1
		c-0.8,0-1.3-0.3-1.7-0.7c-0.4-0.4-0.7-1.3-0.7-2.2v-4.5h-1.3v-1.1H33v-1.6L34.8,193.6z"/>
</g>
<g>
	<path class="st0" d="M118,279.5v-1l1.3-1.1c2.8-2.8,4.3-4.3,4.3-6c0-1.1-0.4-2.2-2.2-2.2c-1.1,0-1.9,0.4-2.4,1l-0.4-1.1
		c0.8-0.7,1.9-1.1,3.2-1.1c2.4,0,3.5,1.7,3.5,3.4c0,2.1-1.6,3.8-3.9,6.2l-1,0.8l0,0h5v1.3L118,279.5L118,279.5z"/>
	<path class="st0" d="M131,274.3v1.1h-4.3v-1.1H131z"/>
	<path class="st0" d="M132.7,277.8c0.4,0.3,1.4,0.7,2.5,0.7c1.9,0,2.5-1.3,2.5-2.2c0-1.6-1.4-2.2-3.1-2.2h-0.8V273h0.8
		c1.1,0,2.5-0.7,2.5-1.9c0-1-0.7-1.7-2.1-1.7c-1,0-1.7,0.4-2.2,0.8l-0.4-1.1c0.7-0.4,1.7-1,3.1-1c2.2,0,3.4,1.3,3.4,2.7
		c0,1.3-0.8,2.2-2.1,2.7l0,0c1.4,0.3,2.5,1.3,2.5,2.8c0,1.9-1.4,3.5-4.1,3.5c-1.3,0-2.4-0.4-3.1-0.8L132.7,277.8z"/>
	<path class="st0" d="M147.1,273.3c0-1,0-1.6,0-2.4h1.4l0.1,1.4l0,0c0.4-0.8,1.4-1.6,2.8-1.6c1.1,0,3.1,0.7,3.1,3.6v5h-1.6v-4.7
		c0-1.4-0.4-2.5-1.9-2.5c-1,0-1.7,0.8-2.1,1.6c0,0.1-0.1,0.4-0.1,0.8v5h-1.6v-6.2L147.1,273.3L147.1,273.3z"/>
	<path class="st0" d="M158.6,269.1v2.1h2.2v1.1h-2.2v4.6c0,1.1,0.3,1.6,1.1,1.6c0.4,0,0.7,0,1-0.1v1.1c-0.3,0.1-0.8,0.1-1.4,0.1
		c-0.8,0-1.3-0.3-1.7-0.7c-0.4-0.4-0.7-1.3-0.7-2.2v-4.6h-1V271h1.3v-1.6L158.6,269.1z"/>
</g>
<g>
	<path class="st0" d="M15.1,126c0.4,0.3,1.4,0.7,2.5,0.7c1.9,0,2.5-1.3,2.5-2.2c0-1.6-1.4-2.2-3.1-2.2h-0.7v-1.1h0.9
		c1.1,0,2.5-0.7,2.5-1.9c0-1-0.7-1.7-2.1-1.7c-1,0-1.7,0.4-2.2,0.8l-0.4-1.1c0.7-0.4,1.7-1,3.1-1c2.2,0,3.4,1.3,3.4,2.7
		c0,1.3-0.8,2.2-2.1,2.7l0,0c1.4,0.3,2.5,1.3,2.5,2.8c0,1.9-1.4,3.5-4.1,3.5c-1.3,0-2.4-0.4-3.1-0.8L15.1,126z"/>
	<path class="st0" d="M28,122.5v1.1h-4.3v-1.1H28z"/>
	<path class="st0" d="M36.7,116.4v1l-4.9,10.5h-1.6l4.9-10.1l0,0h-5.6v-1.3H36.7L36.7,116.4z"/>
	<path class="st0" d="M23.2,139.2c0-1,0-1.6,0-2.4h1.3v1.4l0,0c0.4-0.8,1.4-1.6,2.8-1.6c1.1,0,3.1,0.7,3.1,3.6v5h-1.6v-4.9
		c0-1.4-0.4-2.5-1.9-2.5c-1,0-1.7,0.8-2.1,1.6c0,0.1-0.1,0.4-0.1,0.8v5h-1.6C23.2,145.3,23.2,139.2,23.2,139.2z"/>
	<path class="st0" d="M34.8,134.8v2.1h2.2v1.1h-2.2v4.6c0,1.1,0.3,1.6,1.1,1.6c0.4,0,0.7,0,1-0.1v1.1c-0.3,0.1-0.8,0.1-1.4,0.1
		c-0.8,0-1.3-0.3-1.7-0.7c-0.4-0.4-0.7-1.3-0.7-2.2v-4.6h-1.3v-1.1H33v-1.6L34.8,134.8z"/>
</g>
<g>
	<path class="st0" d="M193,269.5L193,269.5l-2.1,1.1l-0.3-1.1l2.5-1.3h1.3v11.4H193V269.5L193,269.5z"/>
	<path class="st0" d="M202.8,274.3v1.1h-4.3v-1.1H202.8z"/>
	<path class="st0" d="M204.4,277.8c0.4,0.3,1.4,0.7,2.5,0.7c1.9,0,2.5-1.3,2.5-2.2c0-1.6-1.4-2.2-3.1-2.2h-0.8V273h0.8
		c1.1,0,2.5-0.7,2.5-1.9c0-1-0.7-1.7-2.1-1.7c-1,0-1.7,0.4-2.2,0.8l-0.4-1.1c0.7-0.4,1.7-1,3.1-1c2.2,0,3.4,1.3,3.4,2.7
		c0,1.3-0.8,2.2-2.1,2.7l0,0c1.4,0.3,2.5,1.3,2.5,2.8c0,1.9-1.4,3.5-4.1,3.5c-1.3,0-2.4-0.4-3.1-0.8L204.4,277.8z"/>
	<path class="st0" d="M213.4,277.8c0.4,0.3,1.4,0.7,2.5,0.7c1.9,0,2.5-1.3,2.5-2.2c0-1.6-1.4-2.2-3.1-2.2h-0.7V273h0.8
		c1.1,0,2.5-0.7,2.5-1.9c0-1-0.7-1.7-2.1-1.7c-1,0-1.7,0.4-2.2,0.8l-0.4-1.1c0.7-0.4,1.7-1,3.1-1c2.2,0,3.4,1.3,3.4,2.7
		c0,1.3-0.8,2.2-2.1,2.7l0,0c1.4,0.3,2.5,1.3,2.5,2.8c0,1.9-1.4,3.5-4.1,3.5c-1.3,0-2.4-0.4-3.1-0.8L213.4,277.8z"/>
	<path class="st0" d="M227.9,273.3c0-1,0-1.6,0-2.4h1.4l0.1,1.4l0,0c0.4-0.8,1.4-1.6,2.8-1.6c1.1,0,3.1,0.7,3.1,3.6v5h-1.6v-4.7
		c0-1.4-0.4-2.5-1.9-2.5c-1,0-1.7,0.8-2.1,1.6c0,0.1-0.1,0.4-0.1,0.8v5H228C227.9,279.5,227.9,273.3,227.9,273.3z"/>
	<path class="st0" d="M239.4,269.1v2.1h2.2v1.1h-2.2v4.6c0,1.1,0.3,1.6,1.1,1.6c0.4,0,0.7,0,1-0.1v1.1c-0.3,0.1-0.8,0.1-1.4,0.1
		c-0.8,0-1.3-0.3-1.7-0.7c-0.4-0.4-0.7-1.3-0.7-2.2v-4.6h-1.3V271h1.3v-1.6L239.4,269.1z"/>
</g>
<g>
	<path class="st0" d="M215.4,224.3c0.4,0.3,1.3,0.7,2.1,0.7c1.1,0,1.9-0.7,1.9-1.6c0-0.8-0.4-1.3-1.7-1.7c-1.4-0.4-2.4-1.3-2.4-2.5
		c0-1.4,1.1-2.4,2.8-2.4c1,0,1.6,0.1,1.9,0.4l-0.3,1c-0.3-0.1-0.8-0.4-1.7-0.4c-1.3,0-1.7,0.8-1.7,1.3c0,0.8,0.4,1.3,1.7,1.7
		c1.4,0.7,2.2,1.3,2.2,2.5c0,1.4-1,2.5-3.2,2.5c-0.8,0-1.7-0.3-2.2-0.7L215.4,224.3z"/>
	<path class="st0" d="M222,217c0.7-0.1,1.6-0.1,2.4-0.1c1.6,0,2.8,0.3,3.6,1.1c0.8,0.8,1.3,1.7,1.3,3.2s-0.4,2.7-1.3,3.5
		c-0.8,0.8-2.2,1.3-3.9,1.3c-0.8,0-1.4,0-2.1-0.1C222,225.7,222,217,222,217z M223.3,224.9c0.3,0,0.7,0,1.1,0c2.4,0,3.8-1.4,3.8-3.8
		c0-2.1-1.1-3.5-3.6-3.5c-0.7,0-1.1,0-1.3,0.1V224.9L223.3,224.9z"/>
</g>
<g>
	<path class="st0" d="M219.9,154.6h-4.3l-0.4,2.8c0.3,0,0.4,0,1,0c1,0,1.7,0.1,2.5,0.7c1,0.4,1.6,1.4,1.6,3.1c0,2.2-1.7,3.9-4.3,3.9
		c-1.3,0-2.2-0.3-2.8-0.7l0.3-1.1c0.4,0.3,1.4,0.7,2.5,0.7c1.4,0,2.7-1,2.7-2.5s-1-2.5-3.4-2.5c-0.7,0-1.1,0-1.6,0.1l0.8-5.3h5.3
		V154.6L219.9,154.6z"/>
	<path class="st0" d="M226.1,159.3v1.1h-4.3v-1.1H226.1z"/>
	<path class="st0" d="M230.8,154.7L230.8,154.7l-2.1,1l-0.3-1.1l2.5-1.3h1.3v11.4h-1.4V154.7L230.8,154.7z"/>
	<path class="st0" d="M240,164.8c-2.2,0-3.8-2.1-3.8-5.9s1.7-5.9,3.9-5.9c2.4,0,3.8,2.2,3.8,5.7C244,162.7,242.6,164.8,240,164.8
		L240,164.8z M240.2,163.5c1.6,0,2.4-1.9,2.4-4.8c0-2.9-0.7-4.6-2.4-4.6c-1.4,0-2.4,1.7-2.4,4.6
		C237.8,161.8,238.5,163.5,240.2,163.5L240.2,163.5z"/>
	<path class="st0" d="M230.4,176c0-1,0-1.6,0-2.4h1.4l0.1,1.4l0,0c0.4-0.8,1.4-1.6,2.8-1.6c1.1,0,3.1,0.7,3.1,3.6v5h-1.6v-4.9
		c0-1.4-0.4-2.5-1.9-2.5c-1,0-1.7,0.8-2.1,1.6c0,0.1-0.1,0.4-0.1,0.8v5h-1.6v-6.2h-0.1L230.4,176L230.4,176z"/>
	<path class="st0" d="M241.9,171.7v2.1h2.2v1.1h-2.2v4.6c0,1.1,0.3,1.6,1.1,1.6c0.4,0,0.7,0,1-0.1v1.1c-0.3,0.1-0.8,0.1-1.4,0.1
		c-0.8,0-1.3-0.3-1.7-0.7c-0.4-0.4-0.7-1.3-0.7-2.2v-4.6h-1.3v-1.1h1.3V172L241.9,171.7z"/>
</g>
<g>
	<path class="st0" d="M206.2,133.8c0.3,0.1,1,0.4,1.6,0.4c0.8,0,1.3-0.4,1.3-1c0-0.4-0.3-0.8-1.1-1.1c-1.1-0.4-1.7-1.1-1.7-1.7
		c0-1,0.8-1.9,2.2-1.9c0.7,0,1.3,0.1,1.6,0.3l-0.3,0.8c-0.3-0.1-0.7-0.3-1.3-0.3c-0.7,0-1.1,0.3-1.1,0.8s0.3,0.8,1.3,1.1
		c1.1,0.4,1.7,1,1.7,1.9c0,1.1-1,1.9-2.4,1.9c-0.7,0-1.3-0.1-1.7-0.4L206.2,133.8L206.2,133.8z"/>
	<path class="st0" d="M212.8,127.1v1.6h1.6v1h-1.6v3.5c0,0.8,0.1,1.3,0.8,1.3c0.3,0,0.4,0,0.7,0v1c-0.1,0-0.7,0.1-1,0.1
		c-0.4,0-1-0.1-1.3-0.4c-0.3-0.3-0.4-1-0.4-1.7V130h-1v-1h1v-1.1L212.8,127.1z"/>
	<path class="st0" d="M220.2,133.4c0,0.4,0,1.1,0.1,1.6h-1.1l-0.1-0.8l0,0c-0.3,0.4-1.1,1-1.9,1c-1.3,0-1.9-1-1.9-1.9
		c0-1.6,1.4-2.4,3.8-2.4v-0.1c0-0.4-0.1-1.4-1.4-1.4c-0.7,0-1.3,0.1-1.7,0.4l-0.3-0.8c0.4-0.3,1.3-0.4,2.1-0.4
		c1.9,0,2.4,1.3,2.4,2.5v2.4l0,0L220.2,133.4L220.2,133.4z M219.1,131.8c-1.3,0-2.7,0.1-2.7,1.4c0,0.8,0.4,1.1,1.1,1.1
		c0.8,0,1.4-0.4,1.6-1.1c0-0.1,0-0.3,0-0.3V131.8z"/>
	<path class="st0" d="M222.1,130.6c0-0.8,0-1.4,0-2.1h1v1.3l0,0c0.3-0.8,1-1.4,1.7-1.4c0.1,0,0.1,0,0.3,0v1.1c-0.1,0-0.3,0-0.4,0
		c-0.8,0-1.4,0.7-1.6,1.4c0,0.1,0,0.3,0,0.4v3.4H222L222.1,130.6z"/>
	<path class="st0" d="M227.9,127.1v1.6h1.6v1h-1.6v3.5c0,0.8,0.1,1.3,0.8,1.3c0.3,0,0.4,0,0.7,0v1c-0.1,0-0.7,0.1-1,0.1
		c-0.4,0-1-0.1-1.3-0.4c-0.3-0.3-0.4-1-0.4-1.7V130h-1v-1h1v-1.1L227.9,127.1z"/>
</g>
<rect x="63.1" y="141.1" class="st2" width="11.4" height="38.6"/>
<line class="st3" x1="68.8" y1="164.7" x2="68.8" y2="156.1"/>
<rect x="78.8" y="141.1" class="st4" width="11.4" height="38.6"/>
<line class="st3" x1="84.5" y1="164.7" x2="84.5" y2="156.1"/>
<rect x="94.6" y="141.1" class="st2" width="11.4" height="38.6"/>
<line class="st3" x1="100.3" y1="164.7" x2="100.3" y2="156.1"/>
<rect x="110.4" y="141.1" class="st4" width="11.4" height="38.6"/>
<line class="st3" x1="116.2" y1="164.7" x2="116.2" y2="156.1"/>
<rect x="153.3" y="246.8" class="st5" width="38.2" height="11.9"/>
<line class="st3" x1="168" y1="252.9" x2="176.5" y2="252.9"/>
<line class="st3" x1="168" y1="237" x2="176.5" y2="237"/>
<line class="st3" x1="168" y1="221.2" x2="176.5" y2="221.2"/>
<line class="st3" x1="168" y1="205.5" x2="176.5" y2="205.5"/>
<rect x="153.3" y="183.8" class="st2" width="38.2" height="11.9"/>
<line class="st3" x1="168" y1="189.7" x2="176.5" y2="189.7"/>
<rect x="153.3" y="168" class="st4" width="38.2" height="11.9"/>
<line class="st3" x1="168" y1="173.9" x2="176.5" y2="173.9"/>
<rect x="153.3" y="152.2" class="st4" width="38.2" height="11.9"/>
<line class="st3" x1="168" y1="158.2" x2="176.5" y2="158.2"/>
<line class="st3" x1="53" y1="225.7" x2="53" y2="217.1"/>
<line class="st3" x1="68.8" y1="225.7" x2="68.8" y2="217.1"/>
<g>
	<path class="st6" d="M52.2,179.8v-5l-3.8-6.8h1.7l1.7,3.4c0.4,1,0.8,1.6,1.1,2.4l0,0c0.3-0.8,0.8-1.6,1.3-2.4L56,168h1.7l-3.9,6.8
		v5H52.2z"/>
</g>
<g>
	<path class="st7" d="M73.2,179.5c-0.4,0.3-1.7,0.7-3.2,0.7c-3.4,0-5.9-2.1-5.9-6c0-3.6,2.5-6.2,6.2-6.2c1.4,0,2.4,0.3,2.8,0.4
		l-0.3,1.3c-0.7-0.3-1.4-0.4-2.4-0.4c-2.7,0-4.6,1.7-4.6,4.9c0,2.8,1.7,4.8,4.6,4.8c1,0,1.9-0.1,2.5-0.4L73.2,179.5z"/>
</g>
<g>
	<path class="st7" d="M89.1,179.5c-0.4,0.3-1.7,0.7-3.2,0.7c-3.4,0-5.9-2.1-5.9-6c0-3.6,2.5-6.2,6.2-6.2c1.4,0,2.4,0.3,2.8,0.4
		l-0.3,1.3c-0.7-0.3-1.4-0.4-2.4-0.4c-2.7,0-4.6,1.7-4.6,4.9c0,2.8,1.7,4.8,4.6,4.8c1,0,1.9-0.1,2.5-0.4L89.1,179.5z"/>
</g>
<g>
	<path class="st6" d="M105,179.2c-0.7,0.3-2.1,0.7-3.6,0.7c-1.7,0-3.4-0.4-4.5-1.6c-1-1-1.6-2.5-1.6-4.5c0-3.5,2.4-6.2,6.3-6.2
		c1.4,0,2.5,0.3,3.1,0.4l-0.3,1.3c-0.7-0.3-1.4-0.4-2.5-0.4c-2.8,0-4.8,1.7-4.8,4.8s1.7,4.8,4.6,4.8c1,0,1.7-0.1,2.1-0.3v-3.5h-2.4
		v-1.3h3.9v5.9L105,179.2L105,179.2z"/>
</g>
<g>
	<path class="st7" d="M120.8,179.2c-0.7,0.3-2.1,0.7-3.6,0.7c-1.7,0-3.4-0.4-4.5-1.6c-1-1-1.6-2.5-1.6-4.5c0-3.5,2.4-6.2,6.3-6.2
		c1.4,0,2.5,0.3,3.1,0.4l-0.3,1.3c-0.7-0.3-1.4-0.4-2.5-0.4c-2.8,0-4.8,1.7-4.8,4.8s1.7,4.8,4.6,4.8c1,0,1.7-0.1,2.1-0.3v-3.5h-2.4
		v-1.3h3.9L120.8,179.2L120.8,179.2z"/>
</g>
<g>
	<path class="st7" d="M125.1,187.2l-1.3,3.6h-1.6l3.9-11.9h1.9l3.9,11.9h-1.6l-1.3-3.6H125.1z M129,185.9l-1.1-3.4
		c-0.3-0.8-0.4-1.4-0.7-2.2l0,0c-0.1,0.7-0.3,1.4-0.7,2.2l-1.1,3.5L129,185.9L129,185.9z"/>
</g>
<g>
	<path class="st7" d="M131.7,206.4c-0.4,0.3-1.7,0.7-3.2,0.7c-3.4,0-5.9-2.1-5.9-6c0-3.6,2.5-6.2,6.2-6.2c1.4,0,2.4,0.3,2.8,0.4
		l-0.3,1.3c-0.7-0.3-1.4-0.4-2.4-0.4c-2.7,0-4.6,1.7-4.6,4.9c0,2.8,1.7,4.8,4.6,4.8c1,0,1.9-0.1,2.5-0.4L131.7,206.4z"/>
</g>
<g>
	<path class="st7" d="M132,221.9c-0.7,0.3-2.1,0.7-3.6,0.7c-1.7,0-3.4-0.4-4.5-1.6c-1-1-1.6-2.5-1.6-4.5c0-3.5,2.4-6.2,6.3-6.2
		c1.4,0,2.5,0.3,3.1,0.4l-0.3,1.3c-0.7-0.3-1.4-0.4-2.5-0.4c-2.8,0-4.8,1.7-4.8,4.8c0,3.1,1.7,4.8,4.6,4.8c1,0,1.7-0.1,2.1-0.3v-3.4
		h-2.4v-1.3h3.9C132,216.2,132,221.9,132,221.9z"/>
</g>
<g>
	<path class="st7" d="M125.1,234.5l-1.3,3.6h-1.6l3.9-11.9h1.9l3.9,11.9h-1.6l-1.3-3.6H125.1z M129,233.3l-1.1-3.4
		c-0.3-0.8-0.4-1.4-0.7-2.2l0,0c-0.1,0.7-0.3,1.4-0.7,2.2l-1.1,3.5L129,233.3L129,233.3z"/>
</g>
<g>
	<path class="st7" d="M163.5,258.3c-0.7,0.3-2.1,0.7-3.6,0.7c-1.7,0-3.4-0.4-4.5-1.6c-1-1-1.6-2.5-1.6-4.5c0-3.5,2.4-6.2,6.3-6.2
		c1.4,0,2.5,0.3,3.1,0.4l-0.3,1.3c-0.7-0.3-1.4-0.4-2.5-0.4c-2.8,0-4.8,1.7-4.8,4.8s1.7,4.8,4.6,4.8c1,0,1.7-0.1,2.1-0.3v-3.4h-2.4
		v-1.3h3.9v5.7h-0.2V258.3z"/>
</g>
<g>
	<path class="st6" d="M158,242.9V238l-3.8-6.8h1.7l1.7,3.4c0.4,1,0.8,1.6,1.1,2.4l0,0c0.3-0.8,0.8-1.6,1.3-2.4l1.7-3.4h1.7l-3.9,6.8
		v5C159.6,242.9,158,242.9,158,242.9z"/>
</g>
<g>
	<path class="st6" d="M155.5,215.5c0.8-0.1,1.9-0.3,2.8-0.3c1.6,0,2.7,0.3,3.5,1c0.7,0.4,1,1.3,1,2.2c0,1.6-1,2.5-2.2,3.1l0,0
		c1,0.3,1.4,1.1,1.7,2.4c0.3,1.6,0.7,2.8,1,3.2h-1.6c-0.1-0.3-0.4-1.4-0.8-2.8c-0.3-1.6-1-2.2-2.4-2.4h-1.4v5h-1.6
		C155.5,227.2,155.5,215.5,155.5,215.5z M157,220.9h1.6c1.6,0,2.7-1,2.7-2.2c0-1.6-1.1-2.2-2.7-2.2c-0.8,0-1.3,0-1.6,0.1V220.9z"/>
</g>
<g>
	<path class="st6" d="M163.3,211.1c-0.4,0.3-1.7,0.7-3.2,0.7c-3.4,0-5.9-2.1-5.9-6c0-3.6,2.5-6.2,6.2-6.2c1.4,0,2.4,0.3,2.8,0.4
		l-0.3,1.3c-0.7-0.3-1.4-0.4-2.4-0.4c-2.7,0-4.6,1.7-4.6,4.9c0,2.8,1.7,4.8,4.6,4.8c1,0,1.9-0.1,2.5-0.4L163.3,211.1z"/>
</g>
<g>
	<path class="st6" d="M163.3,195.3c-0.4,0.3-1.7,0.7-3.2,0.7c-3.4,0-5.9-2.1-5.9-6c0-3.6,2.5-6.2,6.2-6.2c1.4,0,2.4,0.3,2.8,0.4
		l-0.3,1.3c-0.7-0.3-1.4-0.4-2.4-0.4c-2.7,0-4.6,1.7-4.6,4.9c0,2.8,1.7,4.8,4.6,4.8c1,0,1.9-0.1,2.5-0.4L163.3,195.3z"/>
</g>
<g>
	<path class="st7" d="M163.5,179.2c-0.7,0.3-2.1,0.7-3.6,0.7c-1.7,0-3.4-0.4-4.5-1.6c-1-1-1.6-2.5-1.6-4.5c0-3.5,2.4-6.2,6.3-6.2
		c1.4,0,2.5,0.3,3.1,0.4l-0.3,1.3c-0.7-0.3-1.4-0.4-2.5-0.4c-2.8,0-4.8,1.7-4.8,4.8s1.7,4.8,4.6,4.8c1,0,1.7-0.1,2.1-0.3v-3.5h-2.4
		v-1.3h3.9v5.9L163.5,179.2L163.5,179.2z"/>
</g>
<g>
	<path class="st7" d="M156.1,152.2v7c0,2.7,1.1,3.8,2.7,3.8c1.7,0,2.8-1.1,2.8-3.8v-7h1.6v7c0,3.6-1.9,5-4.5,5c-2.4,0-4.3-1.4-4.3-5
		v-7H156.1L156.1,152.2z"/>
</g>
<g>
	<path class="st7" d="M145.4,149.1l-1.3,3.6h-1.6l3.9-11.9h1.9l3.9,11.9h-1.6l-1.3-3.6C149.8,149.1,145.4,149.1,145.4,149.1z
		 M149.5,147.9l-1.1-3.4c-0.3-0.8-0.4-1.4-0.7-2.2l0,0c-0.1,0.7-0.3,1.4-0.7,2.2l-1.1,3.5L149.5,147.9L149.5,147.9z"/>
</g>
<g>
	<path class="st7" d="M136.5,152.5c-0.4,0.3-1.7,0.7-3.2,0.7c-3.4,0-5.9-2.1-5.9-6c0-3.6,2.5-6.2,6.2-6.2c1.4,0,2.4,0.3,2.8,0.4
		l-0.3,1.3c-0.7-0.3-1.4-0.4-2.4-0.4c-2.7,0-4.6,1.7-4.6,4.9c0,2.8,1.7,4.8,4.6,4.8c1,0,1.9-0.1,2.5-0.4L136.5,152.5z"/>
</g>
<g>
	<path class="st7" d="M120.6,152.5c-0.4,0.3-1.7,0.7-3.2,0.7c-3.4,0-5.9-2.1-5.9-6c0-3.6,2.5-6.2,6.2-6.2c1.4,0,2.4,0.3,2.8,0.4
		l-0.3,1.3c-0.7-0.3-1.4-0.4-2.4-0.4c-2.7,0-4.6,1.7-4.6,4.9c0,2.8,1.7,4.8,4.6,4.8c1,0,1.9-0.1,2.5-0.4L120.6,152.5z"/>
</g>
<g>
	<path class="st6" d="M104.8,152.5c-0.4,0.3-1.7,0.7-3.2,0.7c-3.4,0-5.9-2.1-5.9-6c0-3.6,2.5-6.2,6.2-6.2c1.4,0,2.4,0.3,2.8,0.4
		l-0.3,1.3c-0.7-0.3-1.4-0.4-2.4-0.4c-2.7,0-4.6,1.7-4.6,4.9c0,2.8,1.7,4.8,4.6,4.8c1,0,1.9-0.1,2.5-0.4L104.8,152.5z"/>
</g>
<g>
	<path class="st7" d="M89.3,152.3c-0.7,0.3-2.1,0.7-3.6,0.7c-1.7,0-3.4-0.4-4.5-1.6c-1-1-1.6-2.5-1.6-4.5c0-3.5,2.4-6.2,6.3-6.2
		c1.4,0,2.5,0.3,3.1,0.4l-0.3,1.3c-0.7-0.3-1.4-0.4-2.5-0.4c-2.8,0-4.8,1.7-4.8,4.8s1.7,4.8,4.6,4.8c1,0,1.7-0.1,2.1-0.3v-3.5h-2.4
		v-1.3h3.9v5.9L89.3,152.3L89.3,152.3z"/>
</g>
<g>
	<path class="st7" d="M73.5,152.3c-0.7,0.3-2.1,0.7-3.6,0.7c-1.7,0-3.4-0.4-4.5-1.6c-1-1-1.6-2.5-1.6-4.5c0-3.5,2.4-6.2,6.3-6.2
		c1.4,0,2.5,0.3,3.1,0.4l-0.3,1.3c-0.7-0.3-1.4-0.4-2.5-0.4c-2.8,0-4.8,1.7-4.8,4.8s1.7,4.8,4.6,4.8c1,0,1.7-0.1,2.1-0.3v-3.5h-2.4
		v-1.3h3.9C73.5,146.6,73.5,152.3,73.5,152.3z"/>
</g>
<g>
	<path class="st0" d="M131.8,120.8c-0.7,0.3-2.1,0.7-3.6,0.7c-1.7,0-3.4-0.4-4.5-1.6c-1-1-1.6-2.5-1.6-4.5c0-3.5,2.4-6.2,6.3-6.2
		c1.4,0,2.5,0.3,3.1,0.4l-0.3,1.3c-0.7-0.3-1.4-0.4-2.5-0.4c-2.8,0-4.8,1.7-4.8,4.8c0,3.1,1.7,4.8,4.6,4.8c1,0,1.7-0.1,2.1-0.3v-3.5
		h-2.4v-1.3h3.9L131.8,120.8L131.8,120.8z"/>
</g>
<g>
	<path class="st6" d="M140.8,117.6l-1.3,3.6h-1.6l3.9-11.9h1.9l3.9,11.9H146l-1.3-3.6H140.8z M144.7,116.4l-1.1-3.4
		c-0.3-0.8-0.4-1.4-0.7-2.2l0,0c-0.1,0.7-0.3,1.4-0.7,2.2l-1.1,3.5L144.7,116.4L144.7,116.4z"/>
</g>
<g>
	<path class="st6" d="M163.2,121c-0.4,0.3-1.7,0.7-3.2,0.7c-3.4,0-5.9-2.1-5.9-6c0-3.6,2.5-6.2,6.2-6.2c1.4,0,2.4,0.3,2.8,0.4
		l-0.3,1.3c-0.7-0.3-1.4-0.4-2.4-0.4c-2.7,0-4.6,1.7-4.6,4.9c0,2.8,1.7,4.8,4.6,4.8c1,0,1.9-0.1,2.5-0.4L163.2,121z"/>
</g>
<g>
	<path class="st7" d="M172.4,117.6l-1.3,3.6h-1.6l3.9-11.9h1.9l3.9,11.9h-1.6l-1-3.6H172.4z M176.2,116.4l-1.1-3.4
		c-0.3-0.8-0.4-1.4-0.7-2.2l0,0c-0.1,0.7-0.3,1.4-0.7,2.2l-1.1,3.5L176.2,116.4L176.2,116.4z"/>
</g>
<g>
	<path class="st7" d="M183.5,128.8l-1.3,3.6h-1.6l3.9-11.9h1.9l3.9,11.9h-1.6l-1.3-3.6H183.5z M187.4,127.7l-1.1-3.4
		c-0.3-0.8-0.4-1.4-0.7-2.2l0,0c-0.1,0.7-0.3,1.4-0.7,2.2l-1.1,3.5L187.4,127.7L187.4,127.7z"/>
</g>
<g>
	<path class="st7" d="M190.2,147.7c-0.7,0.3-2.1,0.7-3.6,0.7c-1.7,0-3.4-0.4-4.5-1.6c-1-1-1.6-2.5-1.6-4.5c0-3.5,2.4-6.2,6.3-6.2
		c1.4,0,2.5,0.3,3.1,0.4l-0.3,1.3c-0.7-0.3-1.4-0.4-2.5-0.4c-2.8,0-4.8,1.7-4.8,4.8c0,3.1,1.7,4.8,4.6,4.8c1,0,1.7-0.1,2.1-0.3v-3.5
		h-2.4v-1.3h3.9v5.9L190.2,147.7L190.2,147.7z"/>
</g>
<g>
	<path class="st7" d="M183.5,160.3l-1.3,3.6h-1.6l3.9-11.9h1.9l3.9,11.9h-1.6l-1.3-3.6H183.5z M187.4,159.2l-1.1-3.4
		c-0.3-0.8-0.4-1.4-0.7-2.2l0,0c-0.1,0.7-0.3,1.4-0.7,2.2l-1.1,3.5L187.4,159.2L187.4,159.2z"/>
</g>
<g>
	<path class="st7" d="M190.1,179.5c-0.4,0.3-1.7,0.7-3.2,0.7c-3.4,0-5.9-2.1-5.9-6c0-3.6,2.5-6.2,6.2-6.2c1.4,0,2.4,0.3,2.8,0.4
		l-0.3,1.3c-0.7-0.3-1.4-0.4-2.4-0.4c-2.7,0-4.6,1.7-4.6,4.9c0,2.8,1.7,4.8,4.6,4.8c1,0,1.9-0.1,2.5-0.4L190.1,179.5z"/>
</g>
<g>
	<path class="st6" d="M190.2,195c-0.7,0.3-2.1,0.7-3.6,0.7c-1.7,0-3.4-0.4-4.5-1.6c-1-1-1.6-2.5-1.6-4.5c0-3.5,2.4-6.2,6.3-6.2
		c1.4,0,2.5,0.3,3.1,0.4l-0.3,1.3c-0.7-0.3-1.4-0.4-2.5-0.4c-2.8,0-4.8,1.7-4.8,4.8c0,3.1,1.7,4.8,4.6,4.8c1,0,1.7-0.1,2.1-0.3v-3.5
		h-2.4v-1.3h3.9v5.9L190.2,195L190.2,195z"/>
</g>
<g>
	<path class="st7" d="M182.2,199.7c0.8-0.1,1.9-0.3,2.8-0.3c1.6,0,2.7,0.3,3.5,1c0.7,0.4,1,1.3,1,2.2c0,1.6-1,2.5-2.2,3.1l0,0
		c1,0.3,1.4,1.1,1.7,2.4c0.3,1.6,0.7,2.8,1,3.2h-1.6c-0.1-0.3-0.4-1.4-0.8-2.8c-0.3-1.6-1-2.2-2.4-2.4h-1.4v5h-1.6
		C182.2,211.4,182.2,199.7,182.2,199.7z M183.8,205.1h1.6c1.6,0,2.7-1,2.7-2.2c0-1.6-1.1-2.2-2.7-2.2c-0.8,0-1.3,0-1.6,0.1V205.1z"
		/>
</g>
<g>
	<path class="st6" d="M184.9,227.2v-5l-3.8-6.8h1.7l1.7,3.4c0.4,1,0.8,1.6,1.1,2.4l0,0c0.3-0.8,0.8-1.6,1.3-2.4l1.7-3.4h1.7
		l-3.9,6.8v5C186.5,227.2,184.9,227.2,184.9,227.2z"/>
</g>
<circle class="st7" cx="185.7" cy="237" r="4.9"/>
<circle class="st8" cx="185.7" cy="237" r="4.9"/>
<g>
	<path class="st0" d="M190.1,258.4c-0.4,0.3-1.7,0.7-3.2,0.7c-3.4,0-5.9-2.1-5.9-6c0-3.6,2.5-6.2,6.2-6.2c1.4,0,2.4,0.3,2.8,0.4
		l-0.3,1.3c-0.7-0.3-1.4-0.4-2.4-0.4c-2.7,0-4.6,1.7-4.6,4.9c0,2.8,1.7,4.8,4.6,4.8c1,0,1.9-0.1,2.5-0.4L190.1,258.4z"/>
</g>
<g>
	<path class="st7" d="M247.3,247.1c0.8-0.1,1.9-0.3,2.8-0.3c1.6,0,2.7,0.3,3.5,1c0.7,0.4,1,1.3,1,2.2c0,1.6-1,2.5-2.2,3.1l0,0
		c1,0.3,1.4,1.1,1.7,2.4c0.3,1.6,0.7,2.8,1,3.2h-1.6c-0.1-0.3-0.4-1.4-0.8-2.8c-0.3-1.6-1-2.2-2.4-2.4h-1.4v5h-1.6
		C247.3,258.7,247.3,247.1,247.3,247.1z M248.7,252.4h1.6c1.6,0,2.7-1,2.7-2.2c0-1.6-1.1-2.2-2.7-2.2c-0.8,0-1.3,0-1.6,0.1V252.4z"
		/>
</g>
<g>
	<path class="st7" d="M247.3,231.4c0.8-0.1,1.9-0.3,2.8-0.3c1.6,0,2.7,0.3,3.5,1c0.7,0.4,1,1.3,1,2.2c0,1.6-1,2.5-2.2,3.1l0,0
		c1,0.3,1.4,1.1,1.7,2.4c0.3,1.6,0.7,2.8,1,3.2h-1.6c-0.1-0.3-0.4-1.4-0.8-2.8c-0.3-1.6-1-2.2-2.4-2.4h-1.4v5h-1.6
		C247.3,242.9,247.3,231.4,247.3,231.4z M248.7,236.7h1.6c1.6,0,2.7-1,2.7-2.2c0-1.6-1.1-2.2-2.7-2.2c-0.8,0-1.3,0-1.6,0.1V236.7z"
		/>
</g>
<g>
	<path class="st7" d="M247.3,215.5c0.8-0.1,1.9-0.3,2.8-0.3c1.6,0,2.7,0.3,3.5,1c0.7,0.4,1,1.3,1,2.2c0,1.6-1,2.5-2.2,3.1l0,0
		c1,0.3,1.4,1.1,1.7,2.4c0.3,1.6,0.7,2.8,1,3.2h-1.6c-0.1-0.3-0.4-1.4-0.8-2.8c-0.3-1.6-1-2.2-2.4-2.4h-1.4v5h-1.6
		C247.3,227.2,247.3,215.5,247.3,215.5z M248.7,220.9h1.6c1.6,0,2.7-1,2.7-2.2c0-1.6-1.1-2.2-2.7-2.2c-0.8,0-1.3,0-1.6,0.1V220.9z"
		/>
</g>
<g>
	<path class="st7" d="M247.3,199.7c0.8-0.1,1.9-0.3,2.8-0.3c1.6,0,2.7,0.3,3.5,1c0.7,0.4,1,1.3,1,2.2c0,1.6-1,2.5-2.2,3.1l0,0
		c1,0.3,1.4,1.1,1.7,2.4c0.3,1.6,0.7,2.8,1,3.2h-1.6c-0.1-0.3-0.4-1.4-0.8-2.8c-0.3-1.6-1-2.2-2.4-2.4h-1.4v5h-1.6
		C247.3,211.4,247.3,199.7,247.3,199.7z M248.7,205.1h1.6c1.6,0,2.7-1,2.7-2.2c0-1.6-1.1-2.2-2.7-2.2c-0.8,0-1.3,0-1.6,0.1V205.1z"
		/>
</g>
<g>
	<path class="st6" d="M247.3,184c0.8-0.1,1.9-0.3,2.8-0.3c1.6,0,2.7,0.3,3.5,1c0.7,0.4,1,1.3,1,2.2c0,1.6-1,2.5-2.2,3.1l0,0
		c1,0.3,1.4,1.1,1.7,2.4c0.3,1.6,0.7,2.8,1,3.2h-1.6c-0.1-0.3-0.4-1.4-0.8-2.8c-0.3-1.6-1-2.2-2.4-2.4h-1.4v5h-1.6
		C247.3,195.6,247.3,184,247.3,184z M248.7,189.4h1.6c1.6,0,2.7-1,2.7-2.2c0-1.6-1.1-2.2-2.7-2.2c-0.8,0-1.3,0-1.6,0.1V189.4z"/>
</g>
<g>
	<path class="st6" d="M248.6,148.5l-1.3,3.6h-1.6l3.9-11.9h1.9l3.9,11.9h-1.4l-1.3-3.6C252.7,148.5,248.6,148.5,248.6,148.5z
		 M252.4,147.3l-1.1-3.4c-0.3-0.8-0.4-1.4-0.7-2.2l0,0c-0.1,0.7-0.3,1.4-0.7,2.2l-1.1,3.5L252.4,147.3L252.4,147.3z"/>
</g>
<g>
	<path class="st7" d="M247.8,124.6v7c0,2.7,1.1,3.8,2.7,3.8c1.7,0,2.8-1.1,2.8-3.8v-7h1.6v7c0,3.6-1.9,5-4.5,5c-2.4,0-4.3-1.4-4.3-5
		v-7H247.8L247.8,124.6z"/>
</g>
<g>
	<path class="st7" d="M255.3,120.1c-0.7,0.3-2.1,0.7-3.6,0.7c-1.7,0-3.4-0.4-4.5-1.6c-1-1-1.6-2.5-1.6-4.5c0-3.5,2.4-6.2,6.3-6.2
		c1.4,0,2.5,0.3,3.1,0.4l-0.3,1.3c-0.7-0.3-1.4-0.4-2.5-0.4c-2.8,0-4.8,1.7-4.8,4.8s1.7,4.8,4.6,4.8c1,0,1.7-0.1,2.1-0.3v-3.5h-2.3
		v-1.1h3.9v5.7L255.3,120.1L255.3,120.1z"/>
</g>
<path class="st9" d="M185.7,260.4c0,2.1,1.7,3.6,3.6,3.6h7.4h42.6h7.4c2.1,0,3.6-1.7,3.6-3.6"/>
<path class="st9" d="M127.2,248.1v-8v20.1c0,2.1,1.7,3.6,3.6,3.6h7.4h9.2h7.4c2.1,0,3.6-1.7,3.6-3.6"/>
<polyline class="st9" points="250.6,173.9 250.6,181.7 250.6,162.1 250.6,154.3 "/>
<path class="st9" d="M28.5,234.8H45h23.8c1.3,1.6,2.5,3.1,4.1,4.1c9.7,7.4,23.6,5.6,31.1-4.1c7.4-9.7,5.6-23.6-4.1-31.1
	c-9.7-7.4-23.6-5.6-31.1,4.1H45.6c-2.1,0-3.6-1.7-3.6-3.6v-7.4V185v-7.4c0-2.1,1.7-3.6,3.6-3.6"/>
<line class="st10" x1="241.9" y1="221.2" x2="233.1" y2="221.2"/>
<line class="st10" x1="241.9" y1="130.5" x2="233.1" y2="130.5"/>
<path class="st9" d="M53,147h8H45.6c-2.1,0-3.6-1.7-3.6-3.6V136v-9.2v-7.4c0-2.1,1.7-3.6,3.6-3.6h74.6"/>
<g>
	<path class="st0" d="M48.1,240.5c1-0.1,2.1-0.3,3.6-0.3c1.9,0,3.4,0.4,4.1,1.3c0.8,0.7,1.3,1.7,1.3,3.2c0,1.3-0.3,2.4-1.1,3.2
		c-1,1.1-2.7,1.6-4.6,1.6c-0.7,0-1.1,0-1.6-0.1v5.9H48L48.1,240.5L48.1,240.5z M50,247.5c0.4,0.1,1,0.1,1.6,0.1
		c2.4,0,3.6-1.1,3.6-3.2c0-1.9-1.4-2.8-3.5-2.8c-0.8,0-1.4,0.1-1.7,0.1C50,241.8,50,247.5,50,247.5z"/>
	<path class="st0" d="M63.3,242.6L63.3,242.6l-2.5,1.3l-0.3-1.4l3.2-1.7h1.6V255h-1.9L63.3,242.6L63.3,242.6z"/>
</g>
<g>
	<path class="st0" d="M195.8,188.6c1-0.1,2.1-0.3,3.6-0.3c1.9,0,3.4,0.4,4.1,1.3c0.8,0.7,1.3,1.7,1.3,3.2c0,1.3-0.3,2.4-1.1,3.2
		c-1,1.1-2.7,1.6-4.6,1.6c-0.7,0-1.1,0-1.6-0.1v5.9h-1.9L195.8,188.6L195.8,188.6z M197.8,195.7c0.4,0.1,1,0.1,1.6,0.1
		c2.4,0,3.6-1.1,3.6-3.2c0-1.9-1.4-2.8-3.5-2.8c-0.8,0-1.4,0.1-1.7,0.1C197.8,190,197.8,195.7,197.8,195.7z"/>
	<path class="st0" d="M207.2,201.2c0.4,0.3,1.7,1,3.2,1c2.5,0,3.2-1.6,3.2-2.7c0-2.1-1.7-2.8-3.6-2.8h-1.1V195h1.1
		c1.4,0,3.2-0.8,3.2-2.4c0-1.1-0.8-2.2-2.5-2.2c-1.1,0-2.2,0.4-2.8,1l-0.4-1.4c0.8-0.4,2.2-1.1,3.8-1.1c2.8,0,4.1,1.7,4.1,3.4
		c0,1.4-1,2.7-2.7,3.4l0,0c1.7,0.3,3.2,1.6,3.2,3.6c0,2.2-1.7,4.3-5.2,4.3c-1.6,0-3.1-0.4-3.6-1L207.2,201.2z"/>
</g>
<g>
	<path class="st0" d="M96.6,124.6c1-0.1,2.1-0.3,3.6-0.3c1.9,0,3.4,0.4,4.1,1.3c0.8,0.7,1.3,1.7,1.3,3.2c0,1.3-0.3,2.4-1.1,3.2
		c-1,1.1-2.7,1.6-4.6,1.6c-0.7,0-1.1,0-1.6-0.1v5.9h-1.9L96.6,124.6L96.6,124.6z M98.4,131.8c0.4,0.1,1,0.1,1.6,0.1
		c2.4,0,3.6-1.1,3.6-3.2c0-1.9-1.4-2.8-3.5-2.8c-0.8,0-1.4,0.1-1.7,0.1C98.4,126,98.4,131.8,98.4,131.8z"/>
	<path class="st0" d="M107.5,139.2v-1.1l1.6-1.4c3.6-3.5,5.2-5.2,5.2-7.4c0-1.4-0.7-2.8-2.8-2.8c-1.3,0-2.4,0.7-3.1,1.3l-0.7-1.4
		c1-0.8,2.4-1.4,3.9-1.4c3.1,0,4.3,2.1,4.3,4.1c0,2.7-1.9,4.8-4.9,7.6l-1.1,1.1l0,0h6.3v1.6h-8.8
		C107.5,139.4,107.5,139.2,107.5,139.2z"/>
</g>
<g>
	<path class="st0" d="M282.6,215.7c0.2,0,0.3,0,0.7,0c0.4-0.1,0.9-0.2,1.2-0.5c0.4-0.3,0.7-0.9,0.8-1.6l0,0
		c-0.3,0.4-0.8,0.7-1.4,0.7c-1.1,0-1.7-0.9-1.7-1.9c0-1.2,0.8-2.2,2-2.2s2,1,2,2.6c0,1.3-0.4,2.3-1,2.8c-0.4,0.4-1.1,0.8-1.7,0.9
		c-0.3,0-0.5,0.1-0.8,0L282.6,215.7L282.6,215.7z M284,210.6c-0.7,0-1.1,0.7-1.1,1.5c0,0.8,0.4,1.3,1.1,1.3c0.5,0,1-0.3,1.2-0.7
		c0-0.1,0.1-0.2,0.1-0.3C285.2,211.4,284.9,210.6,284,210.6L284,210.6z"/>
	<path class="st0" d="M288.6,216.3c-1.1,0-2-1.1-2-3.2s0.9-3.2,2.1-3.2s2,1.2,2,3.1C290.7,215.1,289.9,216.3,288.6,216.3
		L288.6,216.3z M288.7,215.7c0.8,0,1.2-1,1.2-2.5c0-1.5-0.3-2.5-1.2-2.5c-0.8,0-1.2,1-1.2,2.5C287.5,214.7,287.9,215.7,288.7,215.7
		L288.7,215.7z"/>
	<path class="st0" d="M292.6,210c0.8,0,1.3,0.7,1.3,1.9c0,1.3-0.7,2-1.4,2c-0.8,0-1.3-0.7-1.4-1.9C291.2,210.6,291.9,210,292.6,210
		L292.6,210L292.6,210z M292.6,210.4c-0.4,0-0.8,0.7-0.8,1.4c0,0.8,0.2,1.4,0.8,1.4c0.5,0,0.8-0.5,0.8-1.4
		C293.4,211.1,293.2,210.4,292.6,210.4L292.6,210.4z M292.5,216.3l3.5-6.3h0.5l-3.5,6.3H292.5z M296.4,212.5c0.8,0,1.3,0.7,1.3,1.9
		c0,1.3-0.7,2-1.4,2s-1.3-0.7-1.4-1.9C295,213.1,295.7,212.5,296.4,212.5L296.4,212.5L296.4,212.5z M296.4,213
		c-0.4,0-0.8,0.7-0.8,1.4c0,0.8,0.2,1.4,0.8,1.4c0.5,0,0.8-0.5,0.8-1.4S297,213,296.4,213L296.4,213z"/>
</g>
<path class="st11" d="M279.1,213.5c0,1.4-1.2,2.6-2.6,2.6c-1.4,0-2.6-1.2-2.6-2.6s1.2-2.6,2.6-2.6
	C278,210.7,279.1,211.9,279.1,213.5"/>
<circle class="st8" cx="276.5" cy="213.5" r="2.6"/>
<g>
	<path class="st0" d="M282.6,206.3c0.2,0,0.3,0,0.7,0c0.4-0.1,0.9-0.2,1.2-0.5c0.4-0.3,0.7-0.9,0.8-1.6l0,0
		c-0.3,0.4-0.8,0.7-1.4,0.7c-1.1,0-1.7-0.9-1.7-1.9c0-1.2,0.8-2.2,2-2.2s2,1,2,2.6c0,1.3-0.4,2.3-1,2.8c-0.4,0.4-1.1,0.8-1.7,0.9
		c-0.3,0-0.5,0.1-0.8,0L282.6,206.3L282.6,206.3z M284,201.3c-0.7,0-1.1,0.7-1.1,1.5c0,0.8,0.4,1.3,1.1,1.3c0.5,0,1-0.3,1.2-0.7
		c0-0.1,0.1-0.2,0.1-0.3C285.2,202,284.9,201.3,284,201.3L284,201.3z"/>
	<path class="st0" d="M290.5,200.7v0.5l-2.5,5.6h-0.8l2.5-5.5l0,0h-2.8v-0.7H290.5L290.5,200.7z"/>
	<path class="st0" d="M292.6,200.6c0.8,0,1.3,0.7,1.3,1.9c0,1.3-0.7,2-1.4,2c-0.8,0-1.3-0.7-1.4-1.9
		C291.2,201.4,291.9,200.6,292.6,200.6L292.6,200.6L292.6,200.6z M292.6,201.2c-0.4,0-0.8,0.7-0.8,1.4c0,0.8,0.2,1.4,0.8,1.4
		c0.5,0,0.8-0.5,0.8-1.4S293.2,201.2,292.6,201.2L292.6,201.2z M292.5,206.9l3.5-6.3h0.5l-3.5,6.3H292.5z M296.4,203.1
		c0.8,0,1.3,0.7,1.3,1.9c0,1.3-0.7,2-1.4,2s-1.3-0.7-1.4-1.9C295,203.9,295.7,203.1,296.4,203.1L296.4,203.1L296.4,203.1z
		 M296.4,203.7c-0.4,0-0.8,0.7-0.8,1.4c0,0.8,0.2,1.4,0.8,1.4c0.5,0,0.8-0.5,0.8-1.4C297.2,204.3,297,203.7,296.4,203.7L296.4,203.7
		z"/>
</g>
<path class="st12" d="M279.1,204.1c0,1.4-1.2,2.6-2.6,2.6c-1.4,0-2.6-1.2-2.6-2.6s1.2-2.6,2.6-2.6
	C277.9,201.5,279.1,202.7,279.1,204.1"/>
<circle class="st8" cx="276.5" cy="204.1" r="2.6"/>
<g>
	<path class="st0" d="M317.8,200.7v0.5l-2.5,5.6h-0.8l2.5-5.5l0,0h-2.8v-0.7H317.8L317.8,200.7z"/>
	<path class="st0" d="M322.1,201.5h-2.2l-0.2,1.5c0.1,0,0.2,0,0.4,0c0.4,0,0.9,0.1,1.3,0.3c0.4,0.2,0.9,0.8,0.9,1.6
		c0,1.2-0.9,2.1-2.2,2.1c-0.7,0-1.2-0.2-1.4-0.3l0.2-0.7c0.2,0.1,0.8,0.3,1.3,0.3c0.8,0,1.4-0.5,1.4-1.3c0-0.8-0.5-1.4-1.6-1.4
		c-0.3,0-0.7,0-0.8,0.1l0.3-2.9h2.8L322.1,201.5L322.1,201.5z"/>
	<path class="st0" d="M324.5,200.6c0.8,0,1.3,0.7,1.3,1.9c0,1.3-0.7,2-1.4,2c-0.8,0-1.3-0.7-1.4-1.9
		C323,201.4,323.7,200.6,324.5,200.6L324.5,200.6L324.5,200.6z M324.5,201.2c-0.4,0-0.8,0.7-0.8,1.4c0,0.8,0.2,1.4,0.8,1.4
		c0.5,0,0.8-0.5,0.8-1.4S325,201.2,324.5,201.2L324.5,201.2z M324.3,206.9l3.5-6.3h0.5l-3.5,6.3H324.3z M328.3,203.1
		c0.8,0,1.3,0.7,1.3,1.9c0,1.3-0.7,2-1.4,2c-0.8,0-1.3-0.7-1.4-1.9C326.9,203.9,327.5,203.1,328.3,203.1L328.3,203.1L328.3,203.1z
		 M328.3,203.7c-0.4,0-0.8,0.7-0.8,1.4c0,0.8,0.2,1.4,0.8,1.4c0.5,0,0.8-0.5,0.8-1.4C329,204.3,328.8,203.7,328.3,203.7L328.3,203.7
		z"/>
</g>
<path class="st6" d="M310.9,204.1c0,1.4-1.2,2.6-2.6,2.6c-1.4,0-2.6-1.2-2.6-2.6s1.2-2.6,2.6-2.6
	C309.7,201.5,310.9,202.7,310.9,204.1"/>
<circle class="st8" cx="308.3" cy="204.1" r="2.6"/>
<g>
	<path class="st0" d="M317.5,210.7h-2.2l-0.2,1.5c0.1,0,0.2,0,0.4,0c0.4,0,0.9,0.1,1.3,0.3c0.4,0.2,0.9,0.8,0.9,1.6
		c0,1.2-0.9,2.1-2.2,2.1c-0.7,0-1.2-0.2-1.4-0.3l0.2-0.7c0.2,0.1,0.8,0.3,1.3,0.3c0.8,0,1.4-0.5,1.4-1.3c0-0.8-0.5-1.4-1.6-1.4
		c-0.3,0-0.7,0-0.8,0.1l0.3-2.9h2.8L317.5,210.7L317.5,210.7z"/>
	<path class="st0" d="M320.4,216.3c-1.1,0-2-1.1-2-3.2s0.9-3.2,2.1-3.2s2,1.2,2,3.1C322.5,215.1,321.7,216.3,320.4,216.3
		L320.4,216.3z M320.5,215.7c0.8,0,1.2-1,1.2-2.5c0-1.5-0.3-2.5-1.2-2.5c-0.8,0-1.2,1-1.2,2.5C319.2,214.7,319.8,215.7,320.5,215.7
		L320.5,215.7z"/>
	<path class="st0" d="M324.5,210c0.8,0,1.3,0.7,1.3,1.9c0,1.3-0.7,2-1.4,2c-0.8,0-1.3-0.7-1.4-1.9C323,210.6,323.7,210,324.5,210
		L324.5,210L324.5,210z M324.5,210.4c-0.4,0-0.8,0.7-0.8,1.4c0,0.8,0.2,1.4,0.8,1.4c0.5,0,0.8-0.5,0.8-1.4
		C325.2,211.1,325,210.4,324.5,210.4L324.5,210.4z M324.3,216.3l3.5-6.3h0.5l-3.5,6.3H324.3z M328.3,212.5c0.8,0,1.3,0.7,1.3,1.9
		c0,1.3-0.7,2-1.4,2c-0.8,0-1.3-0.7-1.4-1.9C326.9,213.1,327.5,212.5,328.3,212.5L328.3,212.5L328.3,212.5z M328.3,213
		c-0.4,0-0.8,0.7-0.8,1.4c0,0.8,0.2,1.4,0.8,1.4c0.5,0,0.8-0.5,0.8-1.4S328.8,213,328.3,213L328.3,213z"/>
</g>
<g>
	<path class="st0" d="M276.5,185.1c0-0.4,0-0.9,0-1.2h0.7v0.8l0,0c0.2-0.4,0.8-0.9,1.4-0.9c0.7,0,1.5,0.3,1.5,2v2.7h-0.7v-2.6
		c0-0.8-0.2-1.3-1-1.3c-0.5,0-0.9,0.4-1.1,0.9c0,0.1,0,0.2,0,0.4v2.7h-0.8L276.5,185.1L276.5,185.1z"/>
	<path class="st0" d="M285.1,187.2c0,0.4,0,0.9,0,1.2h-0.7v-0.8l0,0c-0.2,0.3-0.7,0.9-1.4,0.9c-0.7,0-1.5-0.4-1.5-2v-2.6h0.8v2.5
		c0,0.9,0.2,1.4,1,1.4c0.5,0,0.9-0.4,1.1-0.8c0-0.1,0.1-0.2,0.1-0.4v-2.8h0.8L285.1,187.2L285.1,187.2z"/>
	<path class="st0" d="M289.6,188.3c-0.2,0.1-0.7,0.2-1.2,0.2c-1.3,0-2.2-1-2.2-2.3c0-1.3,0.9-2.4,2.3-2.4c0.4,0,0.9,0.1,1.1,0.2
		l-0.2,0.7c-0.2-0.1-0.4-0.2-0.9-0.2c-1,0-1.5,0.8-1.5,1.7c0,1.1,0.7,1.7,1.5,1.7c0.4,0,0.8-0.1,1-0.2L289.6,188.3z"/>
	<path class="st0" d="M290.4,181.7h0.8v6.7h-0.8V181.7z"/>
	<path class="st0" d="M293.1,186.3c0,1.1,0.7,1.6,1.5,1.6c0.5,0,0.9-0.1,1.2-0.2l0.1,0.5c-0.3,0.1-0.8,0.3-1.4,0.3
		c-1.3,0-2.2-1-2.2-2.3c0-1.4,0.8-2.5,2.1-2.5c1.4,0,1.7,1.3,1.7,2.2c0,0.2,0,0.3,0,0.4L293.1,186.3z M295.3,185.7
		c0-0.5-0.2-1.3-1.1-1.3c-0.8,0-1.2,0.8-1.2,1.3H295.3z"/>
	<path class="st0" d="M298.8,188.5c-1.2,0-2.1-0.9-2.1-2.4s1-2.4,2.2-2.4s2.1,1,2.1,2.3C301,187.8,299.9,188.5,298.8,188.5
		L298.8,188.5z M298.8,188c0.8,0,1.3-0.8,1.3-1.7c0-0.8-0.3-1.7-1.3-1.7c-0.9,0-1.3,0.9-1.3,1.7C297.5,187.2,298.1,188,298.8,188
		L298.8,188z"/>
	<path class="st0" d="M303,182.8v1.1h1.1v0.7H303v2.5c0,0.5,0.1,0.9,0.5,0.9c0.2,0,0.3,0,0.4-0.1v0.7c-0.1,0.1-0.4,0.1-0.7,0.1
		c-0.3,0-0.7-0.1-0.9-0.3c-0.2-0.2-0.3-0.7-0.3-1.2v-2.5h-0.7v-0.7h0.7v-0.9L303,182.8z"/>
	<path class="st0" d="M305.4,183.1c-0.3,0-0.5-0.2-0.5-0.5c0-0.3,0.2-0.5,0.5-0.5c0.3,0,0.5,0.2,0.5,0.5
		C305.9,182.8,305.7,183.1,305.4,183.1L305.4,183.1z M304.9,188.5v-4.6h0.8v4.6H304.9z"/>
	<path class="st0" d="M310.8,181.7v5.6c0,0.4,0,0.9,0,1.2h-0.8v-0.8l0,0c-0.2,0.5-0.8,0.9-1.5,0.9c-1.1,0-1.9-1-1.9-2.3
		c0-1.5,0.9-2.4,2-2.4c0.7,0,1.1,0.3,1.3,0.7l0,0v-2.7h0.9L310.8,181.7L310.8,181.7z M310.1,185.8c0-0.1,0-0.2,0-0.3
		c-0.1-0.5-0.5-1-1.1-1c-0.8,0-1.3,0.8-1.3,1.7c0,1,0.4,1.7,1.3,1.7c0.5,0,1-0.3,1.2-1c0-0.1,0-0.2,0-0.3L310.1,185.8L310.1,185.8z"
		/>
	<path class="st0" d="M312.6,186.3c0,1.1,0.7,1.6,1.5,1.6c0.5,0,0.9-0.1,1.2-0.2l0.1,0.5c-0.3,0.1-0.8,0.3-1.4,0.3
		c-1.3,0-2.2-1-2.2-2.3c0-1.4,0.8-2.5,2.1-2.5c1.4,0,1.7,1.3,1.7,2.2c0,0.2,0,0.3,0,0.4L312.6,186.3z M314.9,185.7
		c0-0.5-0.2-1.3-1.1-1.3c-0.8,0-1.2,0.8-1.2,1.3H314.9z"/>
</g>
<g>
	<path class="st0" d="M282.2,194.3c0-0.5,0-1.1,0-1.5h0.8v0.8l0,0c0.3-0.5,0.9-0.9,1.5-0.9c1.1,0,1.9,1,1.9,2.3c0,1.6-1,2.4-2,2.4
		c-0.5,0-1.1-0.2-1.3-0.8l0,0v2.5h-0.8v-4.8L282.2,194.3L282.2,194.3z M282.9,195.6c0,0.1,0,0.2,0,0.3c0.1,0.5,0.7,1,1.2,1
		c0.9,0,1.3-0.8,1.3-1.7c0-0.9-0.4-1.7-1.3-1.7c-0.5,0-1.1,0.4-1.2,1c0,0.1,0,0.2,0,0.3V195.6z"/>
	<path class="st0" d="M287.3,194.3c0-0.5,0-1,0-1.4h0.7v0.9l0,0c0.2-0.7,0.7-1,1.2-1c0.1,0,0.1,0,0.2,0v0.8c-0.1,0-0.2,0-0.3,0
		c-0.5,0-1,0.4-1.1,1.1c0,0.1,0,0.2,0,0.4v2.4h-0.8L287.3,194.3z"/>
	<path class="st0" d="M290.7,195.3c0,1.1,0.7,1.6,1.5,1.6c0.5,0,0.9-0.1,1.2-0.2l0.1,0.5c-0.3,0.1-0.8,0.3-1.4,0.3
		c-1.3,0-2.2-1-2.2-2.3c0-1.4,0.8-2.5,2.1-2.5c1.4,0,1.7,1.3,1.7,2.2c0,0.2,0,0.3,0,0.4L290.7,195.3z M292.9,194.7
		c0-0.5-0.2-1.3-1.1-1.3c-0.8,0-1.2,0.8-1.2,1.3H292.9z"/>
	<path class="st0" d="M294.6,196.6c0.2,0.1,0.7,0.3,1.1,0.3c0.5,0,0.9-0.3,0.9-0.7c0-0.4-0.2-0.7-0.8-0.9c-0.8-0.3-1.2-0.8-1.2-1.3
		c0-0.8,0.5-1.3,1.5-1.3c0.4,0,0.9,0.1,1.1,0.3l-0.2,0.5c-0.2-0.1-0.4-0.2-0.9-0.2c-0.4,0-0.8,0.3-0.8,0.7c0,0.4,0.2,0.5,0.8,0.8
		c0.8,0.3,1.1,0.7,1.1,1.4c0,0.8-0.7,1.4-1.6,1.4c-0.4,0-0.9-0.1-1.2-0.3L294.6,196.6z"/>
	<path class="st0" d="M298.7,195.3c0,1.1,0.7,1.6,1.5,1.6c0.5,0,0.9-0.1,1.2-0.2l0.1,0.5c-0.3,0.1-0.8,0.3-1.4,0.3
		c-1.3,0-2.2-1-2.2-2.3c0-1.4,0.8-2.5,2.1-2.5c1.4,0,1.7,1.3,1.7,2.2c0,0.2,0,0.3,0,0.4L298.7,195.3z M301,194.7
		c0-0.5-0.2-1.3-1.1-1.3c-0.8,0-1.2,0.8-1.2,1.3H301z"/>
	<path class="st0" d="M302.8,194.1c0-0.4,0-0.9,0-1.2h0.7v0.8l0,0c0.2-0.4,0.8-0.9,1.4-0.9s1.5,0.3,1.5,2v2.7h-0.8v-2.6
		c0-0.8-0.2-1.3-1-1.3c-0.5,0-0.9,0.4-1.1,0.9c0,0.1,0,0.2,0,0.4v2.7h-0.8L302.8,194.1L302.8,194.1z"/>
	<path class="st0" d="M308.6,191.8v1.1h1.1v0.7h-1.1v2.5c0,0.5,0.1,0.9,0.5,0.9c0.2,0,0.3,0,0.4-0.1v0.7c-0.1,0.1-0.4,0.1-0.7,0.1
		c-0.3,0-0.7-0.1-0.9-0.3c-0.2-0.2-0.3-0.7-0.3-1.2v-2.5h-0.7v-0.7h0.7V192L308.6,191.8z"/>
</g>
<g>
	<path class="st0" d="M338.6,185.1c0-0.4,0-0.9,0-1.2h0.7v0.8l0,0c0.2-0.4,0.8-0.9,1.4-0.9c0.7,0,1.5,0.3,1.5,2v2.7h-0.7v-2.6
		c0-0.8-0.2-1.3-1-1.3c-0.5,0-0.9,0.4-1.1,0.9c0,0.1,0,0.2,0,0.4v2.7h-0.8L338.6,185.1L338.6,185.1z"/>
	<path class="st0" d="M347.2,187.2c0,0.4,0,0.9,0,1.2h-0.7v-0.8l0,0c-0.2,0.3-0.7,0.9-1.4,0.9c-0.7,0-1.5-0.4-1.5-2v-2.6h0.8v2.5
		c0,0.9,0.2,1.4,1,1.4c0.5,0,0.9-0.4,1.1-0.8c0-0.1,0.1-0.2,0.1-0.4v-2.8h0.8L347.2,187.2L347.2,187.2z"/>
	<path class="st0" d="M351.7,188.3c-0.2,0.1-0.7,0.2-1.2,0.2c-1.3,0-2.2-1-2.2-2.3c0-1.3,0.9-2.4,2.3-2.4c0.4,0,0.9,0.1,1.1,0.2
		l-0.2,0.7c-0.2-0.1-0.4-0.2-0.9-0.2c-1,0-1.5,0.8-1.5,1.7c0,1.1,0.7,1.7,1.5,1.7c0.4,0,0.8-0.1,1-0.2L351.7,188.3z"/>
	<path class="st0" d="M352.6,181.7h0.8v6.7h-0.8V181.7z"/>
	<path class="st0" d="M355.2,186.3c0,1.1,0.7,1.6,1.5,1.6c0.5,0,0.9-0.1,1.2-0.2l0.1,0.5c-0.3,0.1-0.8,0.3-1.4,0.3
		c-1.3,0-2.2-1-2.2-2.3c0-1.4,0.8-2.5,2.1-2.5c1.4,0,1.7,1.3,1.7,2.2c0,0.2,0,0.3,0,0.4L355.2,186.3z M357.5,185.7
		c0-0.5-0.2-1.3-1.1-1.3c-0.8,0-1.2,0.8-1.2,1.3H357.5z"/>
	<path class="st0" d="M361,188.5c-1.2,0-2.1-0.9-2.1-2.4s1-2.4,2.2-2.4s2.1,1,2.1,2.3C363.2,187.8,362.1,188.5,361,188.5L361,188.5z
		 M361,188c0.8,0,1.3-0.8,1.3-1.7c0-0.8-0.3-1.7-1.3-1.7c-0.9,0-1.3,0.9-1.3,1.7C359.7,187.2,360.2,188,361,188L361,188z"/>
	<path class="st0" d="M365.1,182.8v1.1h1.1v0.7h-1.1v2.5c0,0.5,0.1,0.9,0.5,0.9c0.2,0,0.3,0,0.4-0.1v0.7c-0.1,0.1-0.4,0.1-0.7,0.1
		c-0.3,0-0.7-0.1-0.9-0.3c-0.2-0.2-0.3-0.7-0.3-1.2v-2.5h-0.7v-0.7h0.7v-0.9L365.1,182.8z"/>
	<path class="st0" d="M367.5,183.1c-0.3,0-0.5-0.2-0.5-0.5c0-0.3,0.2-0.5,0.5-0.5c0.3,0,0.5,0.2,0.5,0.5
		C368.1,182.8,367.8,183.1,367.5,183.1L367.5,183.1z M367.1,188.5v-4.6h0.8v4.6H367.1z"/>
	<path class="st0" d="M373,181.7v5.6c0,0.4,0,0.9,0,1.2h-0.8v-0.8l0,0c-0.2,0.5-0.8,0.9-1.5,0.9c-1.1,0-1.9-1-1.9-2.3
		c0-1.5,0.9-2.4,2-2.4c0.7,0,1.1,0.3,1.3,0.7l0,0v-2.7h0.9L373,181.7L373,181.7z M372.2,185.8c0-0.1,0-0.2,0-0.3
		c-0.1-0.5-0.5-1-1.1-1c-0.8,0-1.3,0.8-1.3,1.7c0,1,0.4,1.7,1.3,1.7c0.5,0,1-0.3,1.2-1c0-0.1,0-0.2,0-0.3v-0.9L372.2,185.8
		L372.2,185.8z"/>
	<path class="st0" d="M374.7,186.3c0,1.1,0.7,1.6,1.5,1.6c0.5,0,0.9-0.1,1.2-0.2l0.1,0.5c-0.3,0.1-0.8,0.3-1.4,0.3
		c-1.3,0-2.2-1-2.2-2.3c0-1.4,0.8-2.5,2.1-2.5c1.4,0,1.7,1.3,1.7,2.2c0,0.2,0,0.3,0,0.4L374.7,186.3z M377,185.7
		c0-0.5-0.2-1.3-1.1-1.3c-0.8,0-1.2,0.8-1.2,1.3H377z"/>
</g>
<g>
	<path class="st0" d="M344.7,192c-0.3,0-0.5-0.2-0.5-0.5c0-0.3,0.2-0.5,0.5-0.5c0.3,0,0.5,0.2,0.5,0.5
		C345.3,191.8,345.1,192,344.7,192L344.7,192z M344.3,197.4v-4.6h0.8v4.6H344.3z"/>
	<path class="st0" d="M350.2,190.7v5.6c0,0.4,0,0.9,0,1.2h-0.8v-0.8l0,0c-0.2,0.5-0.8,0.9-1.5,0.9c-1.1,0-1.9-1-1.9-2.3
		c0-1.5,0.9-2.4,2-2.4c0.7,0,1.1,0.3,1.3,0.7l0,0v-2.7L350.2,190.7L350.2,190.7z M349.4,194.7c0-0.1,0-0.2,0-0.3
		c-0.1-0.5-0.5-1-1.1-1c-0.8,0-1.3,0.8-1.3,1.7s0.4,1.7,1.3,1.7c0.5,0,1-0.3,1.2-1c0-0.1,0-0.2,0-0.3v-0.9L349.4,194.7L349.4,194.7z
		"/>
	<path class="st0" d="M351.9,195.3c0,1.1,0.7,1.6,1.5,1.6c0.5,0,0.9-0.1,1.2-0.2l0.1,0.5c-0.3,0.1-0.8,0.3-1.4,0.3
		c-1.3,0-2.2-1-2.2-2.3c0-1.4,0.8-2.5,2.1-2.5c1.4,0,1.7,1.3,1.7,2.2c0,0.2,0,0.3,0,0.4L351.9,195.3z M354.2,194.7
		c0-0.5-0.2-1.3-1.1-1.3c-0.8,0-1.2,0.8-1.2,1.3H354.2z"/>
	<path class="st0" d="M356,194.1c0-0.4,0-0.9,0-1.2h0.7v0.8l0,0c0.2-0.4,0.8-0.9,1.4-0.9c0.7,0,1.5,0.3,1.5,2v2.7h-0.8v-2.6
		c0-0.8-0.2-1.3-1-1.3c-0.5,0-0.9,0.4-1.1,0.9c0,0.1,0,0.2,0,0.4v2.7H356L356,194.1L356,194.1z"/>
	<path class="st0" d="M361.9,191.8v1.1h1.1v0.7h-1.1v2.5c0,0.5,0.1,0.9,0.5,0.9c0.2,0,0.3,0,0.4-0.1v0.7c-0.1,0.1-0.4,0.1-0.7,0.1
		c-0.3,0-0.7-0.1-0.9-0.3c-0.2-0.2-0.3-0.7-0.3-1.2v-2.5h-0.7v-0.7h0.7V192L361.9,191.8z"/>
	<path class="st0" d="M364.3,192c-0.3,0-0.5-0.2-0.5-0.5c0-0.3,0.2-0.5,0.5-0.5c0.3,0,0.5,0.2,0.5,0.5
		C364.8,191.8,364.6,192,364.3,192L364.3,192z M363.9,197.4v-4.6h0.8v4.6H363.9z"/>
	<path class="st0" d="M367,191.8v1.1h1.1v0.7H367v2.5c0,0.5,0.1,0.9,0.5,0.9c0.2,0,0.3,0,0.4-0.1v0.7c-0.1,0.1-0.4,0.1-0.7,0.1
		c-0.3,0-0.7-0.1-0.9-0.3c-0.2-0.2-0.3-0.7-0.3-1.2v-2.5h-0.5v-0.7h0.7V192L367,191.8z"/>
	<path class="st0" d="M369.4,192.9l1,2.7c0.1,0.3,0.2,0.7,0.3,1l0,0c0.1-0.3,0.2-0.7,0.3-1l0.9-2.7h0.9l-1.2,3.3
		c-0.5,1.5-1,2.4-1.5,2.8c-0.4,0.3-0.8,0.4-1,0.5l-0.2-0.7c0.2-0.1,0.4-0.2,0.7-0.4c0.2-0.2,0.4-0.5,0.7-0.9c0-0.1,0.1-0.1,0.1-0.2
		c0,0,0-0.1-0.1-0.2l-1.6-4.3C368.5,192.9,369.4,192.9,369.4,192.9z"/>
</g>
<g>
	<path class="st0" d="M366.4,222.4v0.5l-2.5,5.6h-0.8l2.5-5.5l0,0h-2.8v-0.7H366.4L366.4,222.4z"/>
	<path class="st0" d="M370.8,223.2h-2.2l-0.2,1.5c0.1,0,0.2,0,0.4,0c0.4,0,0.9,0.1,1.3,0.3c0.4,0.2,0.9,0.8,0.9,1.6
		c0,1.2-0.9,2.1-2.2,2.1c-0.7,0-1.2-0.2-1.4-0.3l0.2-0.7c0.2,0.1,0.8,0.3,1.3,0.3c0.8,0,1.4-0.5,1.4-1.3c0-0.8-0.5-1.4-1.6-1.4
		c-0.3,0-0.7,0-0.9,0.1l0.3-2.9h2.8L370.8,223.2L370.8,223.2z"/>
	<path class="st0" d="M373.2,222.3c0.8,0,1.3,0.7,1.3,1.9c0,1.3-0.7,2-1.4,2s-1.3-0.7-1.4-1.9C371.8,223.1,372.4,222.3,373.2,222.3
		L373.2,222.3L373.2,222.3z M373.2,222.8c-0.4,0-0.8,0.7-0.8,1.4c0,0.8,0.2,1.4,0.8,1.4c0.5,0,0.8-0.5,0.8-1.4
		C374,223.5,373.7,222.8,373.2,222.8L373.2,222.8z M373.1,228.6l3.5-6.3h0.5l-3.5,6.3H373.1z M377,224.9c0.8,0,1.3,0.7,1.3,1.9
		c0,1.3-0.7,2-1.4,2c-0.8,0-1.3-0.7-1.4-1.9C375.6,225.6,376.2,224.9,377,224.9L377,224.9L377,224.9z M376.9,225.4
		c-0.4,0-0.8,0.7-0.8,1.4c0,0.8,0.2,1.4,0.8,1.4c0.5,0,0.8-0.5,0.8-1.4C377.8,226,377.6,225.4,376.9,225.4L376.9,225.4z"/>
</g>
<g>
	<path class="st13" d="M344.1,228.5v-6.3h0.9l2,3.2c0.4,0.8,0.8,1.4,1.1,2.1l0,0c-0.1-0.9-0.1-1.6-0.1-2.6v-2.6h0.8v6.3h-0.8l-2-3.3
		c-0.4-0.7-0.9-1.4-1.1-2.1l0,0c0,0.8,0,1.5,0,2.6v2.7H344.1L344.1,228.5z"/>
</g>
<g>
	<path class="st14" d="M344.1,209.5v-6.3h0.9l2,3.2c0.4,0.8,0.8,1.4,1.1,2.1l0,0c-0.1-0.9-0.1-1.6-0.1-2.6v-2.6h0.8v6.3h-0.8l-2-3.3
		c-0.4-0.7-0.9-1.4-1.1-2.1l0,0c0,0.8,0,1.5,0,2.6v2.7H344.1L344.1,209.5z"/>
</g>
<g>
	<path class="st0" d="M363.2,208.9c0.2,0,0.3,0,0.7,0c0.4-0.1,0.9-0.2,1.2-0.5c0.4-0.3,0.7-0.9,0.8-1.6l0,0
		c-0.3,0.4-0.8,0.7-1.4,0.7c-1.1,0-1.7-0.9-1.7-1.9c0-1.2,0.8-2.2,2-2.2c1.2,0,2,1,2,2.6c0,1.3-0.4,2.3-1,2.8
		c-0.4,0.4-1.1,0.8-1.7,0.9c-0.3,0-0.5,0.1-0.8,0L363.2,208.9L363.2,208.9z M364.6,203.9c-0.7,0-1.1,0.7-1.1,1.5
		c0,0.8,0.4,1.3,1.1,1.3c0.5,0,1-0.2,1.2-0.7c0-0.1,0.1-0.2,0.1-0.3C365.8,204.7,365.4,203.9,364.6,203.9L364.6,203.9L364.6,203.9z"
		/>
	<path class="st0" d="M371.1,203.3v0.5l-2.5,5.6h-0.9l2.5-5.5l0,0h-2.8v-0.7H371.1L371.1,203.3z"/>
	<path class="st0" d="M373.2,203.2c0.8,0,1.3,0.7,1.3,1.9c0,1.3-0.7,2-1.4,2s-1.3-0.7-1.4-1.9C371.8,204,372.4,203.3,373.2,203.2
		L373.2,203.2L373.2,203.2z M373.2,203.8c-0.4,0-0.8,0.7-0.8,1.4c0,0.8,0.2,1.4,0.8,1.4c0.5,0,0.8-0.5,0.8-1.4
		C374,204.4,373.7,203.8,373.2,203.8L373.2,203.8z M373.1,209.7l3.5-6.3h0.5l-3.5,6.3H373.1z M377,205.8c0.8,0,1.3,0.7,1.3,1.9
		c0,1.3-0.7,2-1.4,2c-0.8,0-1.3-0.7-1.4-1.9C375.6,206.5,376.2,205.8,377,205.8L377,205.8L377,205.8z M376.9,206.3
		c-0.4,0-0.8,0.7-0.8,1.4c0,0.8,0.2,1.4,0.8,1.4c0.5,0,0.8-0.5,0.8-1.4C377.8,206.9,377.6,206.3,376.9,206.3L376.9,206.3z"/>
</g>
<g>
	<path class="st0" d="M344.1,219v-6.3h0.9l2,3.2c0.4,0.8,0.8,1.4,1.1,2.1l0,0c-0.1-0.9-0.1-1.6-0.1-2.6v-2.6h0.8v6.3h-0.8l-2-3.3
		c-0.4-0.7-0.9-1.4-1.1-2.1l0,0c0,0.8,0,1.5,0,2.6v2.7H344.1L344.1,219z"/>
</g>
<g>
	<path class="st0" d="M363.2,218.5c0.2,0,0.3,0,0.7,0c0.4-0.1,0.9-0.2,1.2-0.5c0.4-0.3,0.7-0.9,0.8-1.6l0,0
		c-0.3,0.4-0.8,0.7-1.4,0.7c-1.1,0-1.7-0.9-1.7-1.9c0-1.2,0.8-2.2,2-2.2c1.2,0,2,1,2,2.6c0,1.3-0.4,2.3-1,2.8
		c-0.4,0.4-1.1,0.8-1.7,0.9c-0.3,0-0.5,0.1-0.8,0L363.2,218.5L363.2,218.5z M364.6,213.5c-0.7,0-1.1,0.7-1.1,1.5
		c0,0.8,0.4,1.3,1.1,1.3c0.5,0,1-0.2,1.2-0.7c0-0.1,0.1-0.2,0.1-0.3C365.8,214.2,365.4,213.5,364.6,213.5L364.6,213.5L364.6,213.5z"
		/>
	<path class="st0" d="M369.2,219.1c-1.1,0-2-1.1-2-3.2s0.9-3.2,2.1-3.2s2,1.2,2,3.1C371.2,217.9,370.5,219.1,369.2,219.1
		L369.2,219.1z M369.2,218.5c0.8,0,1.2-1,1.2-2.5s-0.3-2.5-1.2-2.5c-0.8,0-1.2,1-1.2,2.5S368.4,218.5,369.2,218.5L369.2,218.5z"/>
	<path class="st0" d="M373.2,212.8c0.8,0,1.3,0.7,1.3,1.9c0,1.3-0.7,2-1.4,2s-1.3-0.7-1.4-1.9C371.8,213.5,372.4,212.8,373.2,212.8
		L373.2,212.8L373.2,212.8z M373.2,213.3c-0.4,0-0.8,0.7-0.8,1.4c0,0.8,0.2,1.4,0.8,1.4c0.5,0,0.8-0.5,0.8-1.4
		C374,213.9,373.7,213.3,373.2,213.3L373.2,213.3z M373.1,219.1l3.5-6.3h0.5l-3.5,6.3H373.1z M377,215.3c0.8,0,1.3,0.7,1.3,1.9
		c0,1.3-0.7,2-1.4,2c-0.8,0-1.3-0.7-1.4-1.9C375.6,216,376.2,215.3,377,215.3L377,215.3L377,215.3z M376.9,215.9
		c-0.4,0-0.8,0.7-0.8,1.4c0,0.8,0.2,1.4,0.8,1.4c0.5,0,0.8-0.5,0.8-1.4C377.8,216.4,377.6,215.9,376.9,215.9L376.9,215.9z"/>
</g>
<g>
	<path class="st15" d="M294.4,153.2c-0.2,0.1-0.7,0.2-1.2,0.2c-1.3,0-2.2-1-2.2-2.3c0-1.3,0.9-2.4,2.3-2.4c0.4,0,0.9,0.1,1.1,0.2
		l-0.2,0.7c-0.2-0.1-0.4-0.2-0.9-0.2c-1,0-1.5,0.8-1.5,1.7c0,1.1,0.7,1.7,1.5,1.7c0.4,0,0.8-0.1,1-0.2L294.4,153.2z"/>
	<path class="st15" d="M297,153.4c-1.2,0-2.1-0.9-2.1-2.4s1-2.4,2.2-2.4c1.2,0,2.1,1,2.1,2.3C299.2,152.6,298.1,153.4,297,153.4
		L297,153.4z M297,152.7c0.8,0,1.3-0.8,1.3-1.7c0-0.8-0.3-1.7-1.3-1.7c-0.9,0-1.3,0.9-1.3,1.7C295.7,152.1,296.2,152.7,297,152.7
		L297,152.7z"/>
	<path class="st15" d="M300.4,148.7l0.9,2.5c0.1,0.4,0.2,0.8,0.3,1.2l0,0c0.1-0.3,0.2-0.8,0.3-1.2l0.9-2.5h0.9l-1.7,4.6h-0.7
		l-1.6-4.6H300.4z"/>
	<path class="st15" d="M307.3,152.2c0,0.4,0,0.8,0.1,1.1h-0.8l-0.1-0.5l0,0c-0.2,0.3-0.8,0.7-1.3,0.7c-0.9,0-1.3-0.7-1.3-1.3
		c0-1.1,1-1.7,2.6-1.7v-0.1c0-0.3-0.1-1.1-1-1.1c-0.4,0-0.9,0.1-1.1,0.3l-0.2-0.5c0.3-0.2,0.9-0.4,1.4-0.4c1.3,0,1.6,1,1.6,1.9
		L307.3,152.2L307.3,152.2z M306.6,151c-0.9,0-1.9,0.1-1.9,1c0,0.5,0.3,0.8,0.8,0.8c0.5,0,1-0.3,1.1-0.8c0-0.1,0-0.2,0-0.2V151z"/>
	<path class="st15" d="M308.6,150.1c0-0.5,0-1,0-1.4h0.7v0.9l0,0c0.2-0.7,0.7-1,1.2-1c0.1,0,0.1,0,0.2,0v0.8c-0.1,0-0.2,0-0.3,0
		c-0.5,0-1,0.4-1.1,1.1c0,0.1,0,0.2,0,0.4v2.4h-0.8L308.6,150.1z"/>
	<path class="st15" d="M312,148.7l1,2.7c0.1,0.3,0.2,0.7,0.3,1l0,0c0.1-0.3,0.2-0.7,0.3-1l0.9-2.7h0.9l-1.2,3.3
		c-0.5,1.5-1,2.4-1.5,2.8c-0.4,0.3-0.8,0.4-1,0.5l-0.2-0.7c0.2-0.1,0.4-0.2,0.7-0.4c0.2-0.2,0.4-0.5,0.7-0.9c0-0.1,0.1-0.1,0.1-0.2
		c0,0,0-0.1-0.1-0.2l-1.6-4.3C311.2,148.7,312,148.7,312,148.7z"/>
	<path class="st15" d="M316.4,147.9c-0.3,0-0.5-0.2-0.5-0.5c0-0.3,0.2-0.5,0.5-0.5s0.5,0.2,0.5,0.5
		C316.9,147.6,316.7,147.9,316.4,147.9L316.4,147.9z M315.9,153.3v-4.6h0.8v4.6H315.9z"/>
	<path class="st15" d="M318.1,150c0-0.4,0-0.9,0-1.2h0.7v0.8l0,0c0.2-0.4,0.8-0.9,1.4-0.9c0.7,0,1.5,0.3,1.5,2v2.7H321v-2.6
		c0-0.8-0.2-1.3-1-1.3c-0.5,0-0.9,0.4-1.1,0.9c0,0.1,0,0.2,0,0.4v2.7h-0.8L318.1,150L318.1,150z"/>
	<path class="st15" d="M326.7,152.6c0,1.1-0.2,1.6-0.7,2.1c-0.4,0.4-1.1,0.5-1.6,0.5c-0.5,0-1.1-0.1-1.4-0.3l0.2-0.7
		c0.3,0.2,0.8,0.3,1.3,0.3c0.8,0,1.4-0.4,1.4-1.6v-0.5l0,0c-0.2,0.4-0.8,0.8-1.4,0.8c-1.1,0-1.9-1-1.9-2.2c0-1.5,1-2.4,2-2.4
		c0.8,0,1.2,0.4,1.3,0.8l0,0v-0.7h0.7c0,0.3,0,0.7,0,1.2L326.7,152.6L326.7,152.6z M326,150.6c0-0.1,0-0.2,0-0.3
		c-0.1-0.4-0.5-0.9-1.1-0.9c-0.8,0-1.3,0.7-1.3,1.7c0,0.9,0.4,1.6,1.3,1.6c0.5,0,1-0.3,1.1-0.9c0-0.1,0.1-0.3,0.1-0.4L326,150.6
		L326,150.6z"/>
	<path class="st15" d="M330,150c0-0.4,0-0.9,0-1.2h0.7v0.8l0,0c0.2-0.4,0.7-0.9,1.4-0.9c0.5,0,1,0.3,1.2,0.9l0,0
		c0.1-0.2,0.3-0.4,0.5-0.5c0.2-0.2,0.5-0.3,1-0.3c0.5,0,1.4,0.4,1.4,2v2.7h-0.8v-2.6c0-0.9-0.3-1.4-1-1.4c-0.4,0-0.8,0.3-1,0.8
		c0,0.1-0.1,0.3-0.1,0.4v2.8h-0.8v-2.7c0-0.8-0.3-1.2-0.9-1.2c-0.4,0-0.9,0.4-1,0.9c0,0.1-0.1,0.2-0.1,0.4v2.7h-0.8L330,150L330,150
		z"/>
	<path class="st15" d="M341.1,152.1c0,0.4,0,0.9,0,1.2h-0.7v-0.8l0,0c-0.2,0.3-0.7,0.9-1.4,0.9c-0.7,0-1.5-0.4-1.5-2v-2.6h0.8v2.5
		c0,0.9,0.2,1.4,1,1.4c0.5,0,0.9-0.4,1.1-0.8c0-0.1,0.1-0.2,0.1-0.4v-2.8h0.8L341.1,152.1L341.1,152.1z"/>
	<path class="st15" d="M343.4,147.6v1.1h1.1v0.7h-1.1v2.5c0,0.5,0.1,0.9,0.5,0.9c0.2,0,0.3,0,0.4-0.1v0.7c-0.1,0.1-0.4,0.1-0.7,0.1
		c-0.3,0-0.7-0.1-0.9-0.3c-0.2-0.2-0.3-0.7-0.3-1.2v-2.5h-0.7v-0.7h0.7v-0.9L343.4,147.6z"/>
	<path class="st15" d="M348.4,152.2c0,0.4,0,0.8,0.1,1.1h-0.8l-0.1-0.5l0,0c-0.2,0.3-0.8,0.7-1.3,0.7c-0.9,0-1.3-0.7-1.3-1.3
		c0-1.1,1-1.7,2.6-1.7v-0.1c0-0.3-0.1-1.1-1-1.1c-0.4,0-0.9,0.1-1.1,0.3l-0.2-0.5c0.3-0.2,0.9-0.4,1.4-0.4c1.3,0,1.6,1,1.6,1.9
		L348.4,152.2L348.4,152.2z M347.7,151c-0.9,0-1.9,0.1-1.9,1c0,0.5,0.3,0.8,0.8,0.8c0.5,0,1-0.3,1.1-0.8c0-0.1,0-0.2,0-0.2V151
		L347.7,151z"/>
	<path class="st15" d="M350.7,147.6v1.1h1.1v0.7h-1.1v2.5c0,0.5,0.1,0.9,0.5,0.9c0.2,0,0.3,0,0.4-0.1v0.7c-0.1,0.1-0.4,0.1-0.7,0.1
		c-0.3,0-0.7-0.1-0.9-0.3c-0.2-0.2-0.3-0.7-0.3-1.2v-2.5h-0.7v-0.7h0.7v-0.9L350.7,147.6z"/>
	<path class="st15" d="M353.1,147.9c-0.3,0-0.5-0.2-0.5-0.5c0-0.3,0.2-0.5,0.5-0.5c0.3,0,0.5,0.2,0.5,0.5
		C353.6,147.6,353.3,147.9,353.1,147.9L353.1,147.9z M352.7,153.3v-4.6h0.8v4.6H352.7z"/>
	<path class="st15" d="M356.6,153.4c-1.2,0-2.1-0.9-2.1-2.4s1-2.4,2.2-2.4s2.1,1,2.1,2.3C358.7,152.6,357.6,153.4,356.6,153.4
		L356.6,153.4z M356.6,152.7c0.8,0,1.3-0.8,1.3-1.7c0-0.8-0.3-1.7-1.3-1.7c-0.9,0-1.3,0.9-1.3,1.7
		C355.3,152.1,355.9,152.7,356.6,152.7L356.6,152.7z"/>
	<path class="st15" d="M359.8,150c0-0.4,0-0.9,0-1.2h0.7v0.8l0,0c0.2-0.4,0.8-0.9,1.4-0.9s1.5,0.3,1.5,2v2.7h-0.8v-2.6
		c0-0.8-0.2-1.3-1-1.3c-0.5,0-0.9,0.4-1.1,0.9c0,0.1-0.1,0.2-0.1,0.4v2.7h-0.8L359.8,150L359.8,150z"/>
	<path class="st15" d="M364.6,152.5c0.2,0.1,0.7,0.3,1.1,0.3c0.5,0,0.9-0.3,0.9-0.7c0-0.4-0.2-0.7-0.8-0.9c-0.8-0.3-1.2-0.8-1.2-1.3
		c0-0.8,0.5-1.3,1.5-1.3c0.4,0,0.9,0.1,1.1,0.3l-0.2,0.5c-0.2-0.1-0.4-0.2-0.9-0.2c-0.4,0-0.8,0.3-0.8,0.7c0,0.4,0.2,0.5,0.8,0.8
		c0.8,0.3,1.1,0.7,1.1,1.4c0,0.8-0.7,1.4-1.6,1.4c-0.4,0-0.9-0.1-1.2-0.3L364.6,152.5z"/>
</g>
<g>
	<path class="st15" d="M271.8,137.8h0.8v2.8l0,0c0.3-0.5,0.8-0.9,1.5-0.9c1.1,0,1.9,1,1.9,2.3c0,1.6-1,2.4-2,2.4
		c-0.7,0-1.1-0.2-1.4-0.9l0,0v0.8h-0.7c0-0.3,0-0.8,0-1.2L271.8,137.8L271.8,137.8z M272.6,142.6c0,0.1,0,0.2,0,0.3
		c0.1,0.5,0.7,1,1.2,1c0.9,0,1.3-0.7,1.3-1.7c0-0.9-0.4-1.7-1.3-1.7c-0.5,0-1.1,0.4-1.2,1c0,0.1,0,0.2,0,0.3V142.6z"/>
	<path class="st15" d="M280,143.4c0,0.4,0,0.8,0.1,1.1h-0.8l-0.1-0.5l0,0c-0.2,0.3-0.8,0.7-1.3,0.7c-0.9,0-1.3-0.7-1.3-1.3
		c0-1.1,1-1.7,2.6-1.7v-0.1c0-0.3-0.1-1.1-1-1.1c-0.4,0-0.9,0.1-1.1,0.3l-0.2-0.5c0.3-0.2,0.9-0.4,1.4-0.4c1.3,0,1.6,1,1.6,1.9
		L280,143.4L280,143.4z M279.2,142.2c-0.9,0-1.9,0.1-1.9,1c0,0.5,0.3,0.8,0.8,0.8c0.5,0,1-0.3,1.1-0.8c0-0.1,0-0.2,0-0.2V142.2z"/>
	<path class="st15" d="M281.1,143.7c0.2,0.1,0.7,0.3,1.1,0.3c0.5,0,0.9-0.3,0.9-0.7c0-0.4-0.2-0.7-0.8-0.9c-0.8-0.3-1.2-0.8-1.2-1.3
		c0-0.8,0.5-1.3,1.5-1.3c0.4,0,0.9,0.1,1.1,0.3l-0.2,0.5c-0.2-0.1-0.4-0.2-0.9-0.2c-0.4,0-0.8,0.3-0.8,0.7c0,0.4,0.2,0.5,0.8,0.8
		c0.8,0.3,1.1,0.7,1.1,1.4c0,0.8-0.7,1.4-1.6,1.4c-0.4,0-0.9-0.1-1.2-0.3L281.1,143.7z"/>
	<path class="st15" d="M285.2,142.4c0,1.1,0.7,1.6,1.5,1.6c0.5,0,0.9-0.1,1.2-0.2l0.1,0.5c-0.3,0.1-0.8,0.3-1.4,0.3
		c-1.3,0-2.2-1-2.2-2.3c0-1.4,0.8-2.5,2.1-2.5c1.4,0,1.7,1.3,1.7,2.2c0,0.2,0,0.3,0,0.4L285.2,142.4z M287.5,141.7
		c0-0.5-0.2-1.3-1.1-1.3c-0.8,0-1.2,0.8-1.2,1.3H287.5z"/>
	<path class="st15" d="M291.2,141.4c0-0.5,0-1.1,0-1.5h0.8v0.8l0,0c0.3-0.5,0.9-0.9,1.5-0.9c1.1,0,1.9,1,1.9,2.3c0,1.6-1,2.4-2,2.4
		c-0.5,0-1.1-0.2-1.3-0.8l0,0v2.5h-0.8v-4.8L291.2,141.4L291.2,141.4z M292,142.6c0,0.1,0,0.2,0,0.3c0.1,0.5,0.7,1,1.2,1
		c0.9,0,1.3-0.8,1.3-1.7c0-0.9-0.4-1.7-1.3-1.7c-0.5,0-1.1,0.4-1.2,1c0,0.1,0,0.2,0,0.3V142.6z"/>
	<path class="st15" d="M299.4,143.4c0,0.4,0,0.8,0.1,1.1h-0.8l-0.1-0.5l0,0c-0.2,0.3-0.8,0.7-1.3,0.7c-0.9,0-1.3-0.7-1.3-1.3
		c0-1.1,1-1.7,2.6-1.7v-0.1c0-0.3-0.1-1.1-1-1.1c-0.4,0-0.9,0.1-1.1,0.3l-0.2-0.5c0.3-0.2,0.9-0.4,1.4-0.4c1.3,0,1.6,1,1.6,1.9
		L299.4,143.4L299.4,143.4z M298.6,142.2c-0.9,0-1.9,0.1-1.9,1c0,0.5,0.3,0.8,0.8,0.8c0.5,0,1-0.3,1.1-0.8c0-0.1,0-0.2,0-0.2V142.2z
		"/>
	<path class="st15" d="M301,139.1c-0.3,0-0.5-0.2-0.5-0.5c0-0.3,0.2-0.5,0.5-0.5c0.3,0,0.5,0.2,0.5,0.5
		C301.6,138.9,301.3,139.1,301,139.1L301,139.1z M300.6,144.5v-4.6h0.8v4.6H300.6z"/>
	<path class="st15" d="M302.8,141.3c0-0.5,0-1,0-1.4h0.7v0.9l0,0c0.2-0.7,0.7-1,1.2-1c0.1,0,0.1,0,0.2,0v0.8c-0.1,0-0.2,0-0.3,0
		c-0.5,0-1,0.4-1.1,1.1c0,0.1,0,0.2,0,0.4v2.4h-0.8L302.8,141.3z"/>
	<path class="st15" d="M310.6,143.4c0,0.4,0,0.8,0.1,1.1H310v-0.5l0,0c-0.2,0.3-0.8,0.7-1.3,0.7c-0.9,0-1.3-0.7-1.3-1.3
		c0-1.1,1-1.7,2.6-1.7v-0.1c0-0.3-0.1-1.1-1-1.1c-0.4,0-0.9,0.1-1.1,0.3l-0.2-0.5c0.3-0.2,0.9-0.4,1.4-0.4c1.3,0,1.6,1,1.6,1.9
		L310.6,143.4L310.6,143.4z M309.8,142.2c-0.9,0-1.9,0.1-1.9,1c0,0.5,0.3,0.8,0.8,0.8c0.5,0,1-0.3,1.1-0.8c0-0.1,0-0.2,0-0.2V142.2
		L309.8,142.2z"/>
	<path class="st15" d="M311.9,141.2c0-0.4,0-0.9,0-1.2h0.7v0.8l0,0c0.2-0.4,0.8-0.9,1.4-0.9c0.7,0,1.5,0.3,1.5,2v2.7h-0.8v-2.6
		c0-0.8-0.2-1.3-1-1.3c-0.5,0-0.9,0.4-1.1,0.9c0,0.1,0,0.2,0,0.4v2.7h-0.8L311.9,141.2L311.9,141.2z"/>
	<path class="st15" d="M316.9,141.2c0-0.4,0-0.9,0-1.2h0.7v0.8l0,0c0.2-0.4,0.8-0.9,1.4-0.9c0.7,0,1.5,0.3,1.5,2v2.7h-0.8v-2.6
		c0-0.8-0.2-1.3-1-1.3c-0.5,0-0.9,0.4-1.1,0.9c0,0.1,0,0.2,0,0.4v2.7h-0.8L316.9,141.2L316.9,141.2z"/>
	<path class="st15" d="M323.7,144.6c-1.2,0-2.1-0.9-2.1-2.4s1-2.4,2.2-2.4s2.1,1,2.1,2.3C325.8,143.8,324.7,144.6,323.7,144.6
		L323.7,144.6z M323.7,143.9c0.8,0,1.3-0.8,1.3-1.7c0-0.8-0.3-1.7-1.3-1.7c-0.9,0-1.3,0.9-1.3,1.7
		C322.4,143.3,322.9,143.9,323.7,143.9L323.7,143.9z"/>
	<path class="st15" d="M327.7,138.8v1.1h1.1v0.7h-1.1v2.5c0,0.5,0.1,0.9,0.5,0.9c0.2,0,0.3,0,0.4-0.1v0.7c-0.1,0.1-0.4,0.1-0.7,0.1
		c-0.3,0-0.7-0.1-0.9-0.3c-0.2-0.2-0.3-0.7-0.3-1.2v-2.5h-0.5v-0.7h0.7V139L327.7,138.8z"/>
	<path class="st15" d="M332.8,143.4c0,0.4,0,0.8,0.1,1.1h-0.8l-0.1-0.5l0,0c-0.2,0.3-0.8,0.7-1.3,0.7c-0.9,0-1.3-0.7-1.3-1.3
		c0-1.1,1-1.7,2.6-1.7v-0.1c0-0.3-0.1-1.1-1-1.1c-0.4,0-0.9,0.1-1.1,0.3l-0.2-0.5c0.3-0.2,0.9-0.4,1.4-0.4c1.3,0,1.6,1,1.6,1.9
		L332.8,143.4L332.8,143.4z M332.1,142.2c-0.9,0-1.9,0.1-1.9,1c0,0.5,0.3,0.8,0.8,0.8c0.5,0,1-0.3,1.1-0.8c0-0.1,0-0.2,0-0.2V142.2z
		"/>
	<path class="st15" d="M335,138.8v1.1h1.1v0.7H335v2.5c0,0.5,0.1,0.9,0.5,0.9c0.2,0,0.3,0,0.4-0.1v0.7c-0.1,0.1-0.4,0.1-0.7,0.1
		c-0.3,0-0.7-0.1-0.9-0.3c-0.2-0.2-0.3-0.7-0.3-1.2v-2.5h-0.7v-0.7h0.7V139L335,138.8z"/>
	<path class="st15" d="M337.4,139.1c-0.3,0-0.5-0.2-0.5-0.5c0-0.3,0.2-0.5,0.5-0.5c0.3,0,0.5,0.2,0.5,0.5
		C338,138.9,337.8,139.1,337.4,139.1L337.4,139.1z M337.1,144.5v-4.6h0.8v4.6H337.1z"/>
	<path class="st15" d="M340.9,144.6c-1.2,0-2.1-0.9-2.1-2.4s1-2.4,2.2-2.4s2.1,1,2.1,2.3C343.1,143.8,342,144.6,340.9,144.6
		L340.9,144.6z M340.9,143.9c0.8,0,1.3-0.8,1.3-1.7c0-0.8-0.3-1.7-1.3-1.7c-0.9,0-1.3,0.9-1.3,1.7
		C339.6,143.3,340.2,143.9,340.9,143.9L340.9,143.9z"/>
	<path class="st15" d="M344.1,141.2c0-0.4,0-0.9,0-1.2h0.7v0.8l0,0c0.2-0.4,0.8-0.9,1.4-0.9c0.7,0,1.5,0.3,1.5,2v2.7H347v-2.6
		c0-0.8-0.2-1.3-1-1.3c-0.5,0-0.9,0.4-1.1,0.9c0,0.1-0.1,0.2-0.1,0.4v2.7h-0.8L344.1,141.2L344.1,141.2z"/>
	<path class="st15" d="M349,143.7c0.2,0.1,0.7,0.3,1.1,0.3c0.5,0,0.9-0.3,0.9-0.7c0-0.4-0.2-0.7-0.8-0.9c-0.8-0.3-1.2-0.8-1.2-1.3
		c0-0.8,0.5-1.3,1.5-1.3c0.4,0,0.9,0.1,1.1,0.3l-0.2,0.5c-0.2-0.1-0.4-0.2-0.9-0.2s-0.8,0.3-0.8,0.7c0,0.4,0.2,0.5,0.9,0.8
		c0.8,0.3,1.1,0.7,1.1,1.4c0,0.8-0.7,1.4-1.6,1.4c-0.4,0-0.9-0.1-1.2-0.3L349,143.7z"/>
</g>
<g>
	<path class="st15" d="M294.4,161.4c-0.2,0.1-0.7,0.2-1.2,0.2c-1.3,0-2.2-1-2.2-2.3c0-1.3,0.9-2.4,2.3-2.4c0.4,0,0.9,0.1,1.1,0.2
		l-0.2,0.7c-0.2-0.1-0.4-0.2-0.9-0.2c-1,0-1.5,0.8-1.5,1.7c0,1.1,0.7,1.7,1.5,1.7c0.4,0,0.8-0.1,1-0.2L294.4,161.4z"/>
	<path class="st15" d="M297,161.7c-1.2,0-2.1-0.9-2.1-2.4s1-2.4,2.2-2.4c1.2,0,2.1,1,2.1,2.3C299.2,160.9,298.1,161.7,297,161.7
		L297,161.7z M297,161c0.8,0,1.3-0.8,1.3-1.7c0-0.8-0.3-1.7-1.3-1.7c-0.9,0-1.3,0.9-1.3,1.7C295.7,160.3,296.2,161,297,161L297,161z
		"/>
	<path class="st15" d="M300.1,158.2c0-0.4,0-0.9,0-1.2h0.7v0.8l0,0c0.2-0.4,0.7-0.9,1.4-0.9c0.5,0,1,0.3,1.2,0.9l0,0
		c0.1-0.2,0.3-0.4,0.5-0.5c0.2-0.2,0.5-0.3,1-0.3c0.5,0,1.4,0.4,1.4,2v2.7h-0.8V159c0-0.9-0.3-1.4-1-1.4c-0.4,0-0.8,0.3-1,0.8
		c0,0.1-0.1,0.3-0.1,0.4v2.8h-0.8v-2.7c0-0.8-0.3-1.2-0.9-1.2c-0.4,0-0.9,0.4-1,0.9c0,0.1-0.1,0.2-0.1,0.4v2.7h-0.7L300.1,158.2
		L300.1,158.2z"/>
	<path class="st15" d="M307.7,158.5c0-0.5,0-1.1,0-1.5h0.8v0.8l0,0c0.3-0.5,0.9-0.9,1.5-0.9c1.1,0,1.9,1,1.9,2.3c0,1.6-1,2.4-2,2.4
		c-0.5,0-1.1-0.2-1.3-0.8l0,0v2.5h-0.8L307.7,158.5L307.7,158.5z M308.4,159.7c0,0.1,0,0.2,0,0.3c0.1,0.5,0.7,1,1.2,1
		c0.9,0,1.3-0.8,1.3-1.7c0-0.9-0.4-1.7-1.3-1.7c-0.5,0-1.1,0.4-1.2,1c0,0.1,0,0.2,0,0.3V159.7z"/>
	<path class="st15" d="M315.8,160.5c0,0.4,0,0.8,0.1,1.1h-0.8l-0.1-0.5l0,0c-0.2,0.3-0.8,0.7-1.3,0.7c-0.9,0-1.3-0.7-1.3-1.3
		c0-1.1,1-1.7,2.6-1.7v-0.1c0-0.3-0.1-1.1-1-1.1c-0.4,0-0.9,0.1-1.1,0.3l-0.2-0.5c0.3-0.2,0.9-0.4,1.4-0.4c1.3,0,1.6,1,1.6,1.9
		L315.8,160.5L315.8,160.5z M315.1,159.3c-0.9,0-1.9,0.1-1.9,1c0,0.5,0.3,0.8,0.8,0.8c0.5,0,1-0.3,1.1-0.8c0-0.1,0-0.2,0-0.2V159.3
		L315.1,159.3z"/>
	<path class="st15" d="M318,155.9v1.1h1.1v0.7H318v2.5c0,0.5,0.1,0.9,0.5,0.9c0.2,0,0.3,0,0.4-0.1v0.7c-0.1,0.1-0.4,0.1-0.7,0.1
		c-0.3,0-0.7-0.1-0.9-0.3c-0.2-0.2-0.3-0.7-0.3-1.2v-2.5h-0.7V157h0.7v-0.9L318,155.9z"/>
	<path class="st15" d="M320.4,156.1c-0.3,0-0.5-0.2-0.5-0.5c0-0.3,0.2-0.5,0.5-0.5s0.5,0.2,0.5,0.5
		C321,155.9,320.7,156.1,320.4,156.1L320.4,156.1z M320,161.6V157h0.8v4.6H320z"/>
	<path class="st15" d="M322.2,154.8h0.8v2.8l0,0c0.3-0.5,0.8-0.9,1.5-0.9c1.1,0,1.9,1,1.9,2.3c0,1.6-1,2.4-2,2.4
		c-0.7,0-1.1-0.2-1.4-0.9l0,0v0.8h-0.7c0-0.3,0-0.8,0-1.2L322.2,154.8L322.2,154.8z M322.9,159.7c0,0.1,0,0.2,0,0.3
		c0.1,0.5,0.7,1,1.2,1c0.9,0,1.3-0.7,1.3-1.7c0-0.9-0.4-1.7-1.3-1.7c-0.5,0-1.1,0.4-1.2,1c0,0.1,0,0.2,0,0.3V159.7L322.9,159.7z"/>
	<path class="st15" d="M327.2,154.8h0.8v6.7h-0.8V154.8z"/>
	<path class="st15" d="M329.8,159.4c0,1.1,0.7,1.6,1.5,1.6c0.5,0,0.9-0.1,1.2-0.2l0.1,0.5c-0.3,0.1-0.8,0.3-1.4,0.3
		c-1.3,0-2.2-1-2.2-2.3c0-1.4,0.8-2.5,2.1-2.5c1.4,0,1.7,1.3,1.7,2.2c0,0.2,0,0.3,0,0.4L329.8,159.4z M332.1,158.8
		c0-0.5-0.2-1.3-1.1-1.3c-0.8,0-1.2,0.8-1.2,1.3H332.1z"/>
	<path class="st15" d="M335.8,158.2c0-0.4,0-0.9,0-1.2h0.7v0.8l0,0c0.2-0.4,0.7-0.9,1.4-0.9c0.5,0,1,0.3,1.2,0.9l0,0
		c0.1-0.2,0.3-0.4,0.5-0.5c0.2-0.2,0.5-0.3,1-0.3c0.5,0,1.4,0.4,1.4,2v2.7h-0.8V159c0-0.9-0.3-1.4-1-1.4c-0.4,0-0.8,0.3-1,0.8
		c0,0.1-0.1,0.3-0.1,0.4v2.8h-0.8v-2.7c0-0.8-0.3-1.2-0.9-1.2c-0.4,0-0.9,0.4-1,0.9c0,0.1-0.1,0.2-0.1,0.4v2.7h-0.8L335.8,158.2
		L335.8,158.2z"/>
	<path class="st15" d="M346.9,160.3c0,0.4,0,0.9,0,1.2h-0.7v-0.8l0,0c-0.2,0.3-0.7,0.9-1.4,0.9c-0.7,0-1.5-0.4-1.5-2V157h0.8v2.5
		c0,0.9,0.2,1.4,1,1.4c0.5,0,0.9-0.4,1.1-0.8c0-0.1,0.1-0.2,0.1-0.4V157h0.8L346.9,160.3L346.9,160.3z"/>
	<path class="st15" d="M349.1,155.9v1.1h1.1v0.7h-1.1v2.5c0,0.5,0.1,0.9,0.5,0.9c0.2,0,0.3,0,0.4-0.1v0.7c-0.1,0.1-0.4,0.1-0.7,0.1
		c-0.3,0-0.7-0.1-0.9-0.3c-0.2-0.2-0.3-0.7-0.3-1.2v-2.5h-0.7V157h0.7v-0.9L349.1,155.9z"/>
	<path class="st15" d="M354.2,160.5c0,0.4,0,0.8,0.1,1.1h-0.8l-0.1-0.5l0,0c-0.2,0.3-0.8,0.7-1.3,0.7c-0.9,0-1.3-0.7-1.3-1.3
		c0-1.1,1-1.7,2.6-1.7v-0.1c0-0.3-0.1-1.1-1-1.1c-0.4,0-0.9,0.1-1.1,0.3l-0.2-0.5c0.3-0.2,0.9-0.4,1.4-0.4c1.3,0,1.6,1,1.6,1.9
		L354.2,160.5L354.2,160.5z M353.5,159.3c-0.9,0-1.9,0.1-1.9,1c0,0.5,0.3,0.8,0.8,0.8c0.5,0,1-0.3,1.1-0.8c0-0.1,0-0.2,0-0.2V159.3
		L353.5,159.3z"/>
	<path class="st15" d="M356.4,155.9v1.1h1.1v0.7h-1.1v2.5c0,0.5,0.1,0.9,0.5,0.9c0.2,0,0.3,0,0.4-0.1v0.7c-0.1,0.1-0.4,0.1-0.7,0.1
		c-0.3,0-0.7-0.1-0.9-0.3c-0.2-0.2-0.3-0.7-0.3-1.2v-2.5h-0.7V157h0.7v-0.9L356.4,155.9z"/>
	<path class="st15" d="M358.8,156.1c-0.3,0-0.5-0.2-0.5-0.5c0-0.3,0.2-0.5,0.5-0.5s0.5,0.2,0.5,0.5
		C359.3,155.9,359.1,156.1,358.8,156.1L358.8,156.1z M358.5,161.6V157h0.8v4.6H358.5z"/>
	<path class="st15" d="M362.3,161.7c-1.2,0-2.1-0.9-2.1-2.4s1-2.4,2.2-2.4c1.2,0,2.1,1,2.1,2.3C364.5,160.9,363.4,161.7,362.3,161.7
		L362.3,161.7z M362.3,161c0.8,0,1.3-0.8,1.3-1.7c0-0.8-0.3-1.7-1.3-1.7c-0.9,0-1.3,0.9-1.3,1.7C361,160.3,361.5,161,362.3,161
		L362.3,161z"/>
	<path class="st15" d="M365.4,158.2c0-0.4,0-0.9,0-1.2h0.7v0.8l0,0c0.2-0.4,0.8-0.9,1.4-0.9c0.7,0,1.5,0.3,1.5,2v2.7h-0.8V159
		c0-0.8-0.2-1.3-1-1.3c-0.5,0-0.9,0.4-1.1,0.9c0,0.1-0.1,0.2-0.1,0.4v2.7h-0.8L365.4,158.2L365.4,158.2z"/>
	<path class="st15" d="M370.4,160.7c0.2,0.1,0.7,0.3,1.1,0.3c0.5,0,0.9-0.3,0.9-0.7c0-0.4-0.2-0.7-0.8-0.9c-0.8-0.3-1.2-0.8-1.2-1.3
		c0-0.8,0.5-1.3,1.5-1.3c0.4,0,0.9,0.1,1.1,0.3l-0.2,0.5c-0.2-0.1-0.4-0.2-0.9-0.2c-0.4,0-0.8,0.3-0.8,0.7c0,0.4,0.2,0.5,0.8,0.8
		c0.8,0.3,1.1,0.7,1.1,1.4c0,0.8-0.7,1.4-1.6,1.4c-0.4,0-0.9-0.1-1.2-0.3L370.4,160.7z"/>
</g>
<g>
	<path class="st15" d="M291.2,166.5c0-0.4,0-0.9,0-1.2h0.7v0.8l0,0c0.2-0.4,0.8-0.9,1.4-0.9c0.7,0,1.5,0.3,1.5,2v2.7H294v-2.6
		c0-0.8-0.2-1.3-1-1.3c-0.5,0-0.9,0.4-1.1,0.9c0,0.1,0,0.2,0,0.4v2.7h-0.8L291.2,166.5L291.2,166.5z"/>
	<path class="st15" d="M298,169.9c-1.2,0-2.1-0.9-2.1-2.4s1-2.4,2.2-2.4c1.2,0,2.1,1,2.1,2.3C300.1,169.2,299.1,169.9,298,169.9
		L298,169.9z M298,169.3c0.8,0,1.3-0.8,1.3-1.7c0-0.8-0.3-1.7-1.3-1.7c-0.9,0-1.3,0.9-1.3,1.7C296.7,168.6,297.2,169.3,298,169.3
		L298,169.3z"/>
	<path class="st15" d="M303.1,166.5c0-0.4,0-0.9,0-1.2h0.7v0.8l0,0c0.2-0.4,0.7-0.9,1.4-0.9c0.5,0,1,0.3,1.2,0.9l0,0
		c0.1-0.2,0.3-0.4,0.5-0.5c0.2-0.2,0.5-0.3,1-0.3c0.5,0,1.4,0.4,1.4,2v2.7h-0.8v-2.6c0-0.9-0.3-1.4-1-1.4c-0.4,0-0.8,0.3-1,0.8
		c0,0.1-0.1,0.3-0.1,0.4v2.8h-0.8v-2.7c0-0.8-0.3-1.2-0.9-1.2c-0.4,0-0.9,0.4-1,0.9c0,0.1-0.1,0.2-0.1,0.4v2.7H303L303.1,166.5
		L303.1,166.5z"/>
	<path class="st15" d="M314.2,168.6c0,0.4,0,0.9,0,1.2h-0.7V169l0,0c-0.2,0.3-0.7,0.9-1.4,0.9c-0.7,0-1.5-0.4-1.5-2v-2.6h0.8v2.5
		c0,0.9,0.2,1.4,1,1.4c0.5,0,0.9-0.4,1.1-0.8c0-0.1,0.1-0.2,0.1-0.4v-2.8h0.8L314.2,168.6L314.2,168.6z"/>
	<path class="st15" d="M316.5,164.2v1.1h1.1v0.7h-1.1v2.5c0,0.5,0.1,0.9,0.5,0.9c0.2,0,0.3,0,0.4-0.1v0.7c-0.1,0.1-0.4,0.1-0.7,0.1
		c-0.3,0-0.7-0.1-0.9-0.3c-0.2-0.2-0.3-0.7-0.3-1.2v-2.5H315v-0.7h0.7v-0.9L316.5,164.2z"/>
	<path class="st15" d="M321.5,168.7c0,0.4,0,0.8,0.1,1.1h-0.8l-0.1-0.5l0,0c-0.2,0.3-0.8,0.7-1.3,0.7c-0.9,0-1.3-0.7-1.3-1.3
		c0-1.1,1-1.7,2.6-1.7l0,0c0-0.3-0.1-1.1-1-1.1c-0.4,0-0.9,0.1-1.1,0.3l-0.2-0.5c0.3-0.2,0.9-0.4,1.4-0.4c1.3,0,1.6,1,1.6,1.9
		L321.5,168.7L321.5,168.7z M320.7,167.5c-0.9,0-1.9,0.1-1.9,1c0,0.5,0.3,0.8,0.8,0.8c0.5,0,1-0.3,1.1-0.8c0-0.1,0-0.2,0-0.2V167.5
		L320.7,167.5z"/>
	<path class="st15" d="M323.7,164.2v1.1h1.1v0.7h-1.1v2.5c0,0.5,0.1,0.9,0.5,0.9c0.2,0,0.3,0,0.4-0.1v0.7c-0.1,0.1-0.4,0.1-0.7,0.1
		c-0.3,0-0.7-0.1-0.9-0.3c-0.2-0.2-0.3-0.7-0.3-1.2v-2.5h-0.7v-0.7h0.7v-0.9L323.7,164.2z"/>
	<path class="st15" d="M326.1,164.4c-0.3,0-0.5-0.2-0.5-0.5c0-0.3,0.2-0.5,0.5-0.5c0.3,0,0.5,0.2,0.5,0.5
		C326.6,164.2,326.4,164.4,326.1,164.4L326.1,164.4z M325.8,169.9v-4.6h0.8v4.6H325.8z"/>
	<path class="st15" d="M329.6,169.9c-1.2,0-2.1-0.9-2.1-2.4s1-2.4,2.2-2.4s2.1,1,2.1,2.3C331.8,169.2,330.7,169.9,329.6,169.9
		L329.6,169.9z M329.7,169.3c0.8,0,1.3-0.8,1.3-1.7c0-0.8-0.3-1.7-1.3-1.7c-0.9,0-1.3,0.9-1.3,1.7
		C328.4,168.6,328.9,169.3,329.7,169.3L329.7,169.3z"/>
	<path class="st15" d="M332.7,166.5c0-0.4,0-0.9,0-1.2h0.7v0.8l0,0c0.2-0.4,0.8-0.9,1.4-0.9s1.5,0.3,1.5,2v2.7h-0.8v-2.6
		c0-0.8-0.2-1.3-1-1.3c-0.5,0-0.9,0.4-1.1,0.9c0,0.1,0,0.2,0,0.4v2.7h-0.8L332.7,166.5L332.7,166.5z"/>
	<path class="st15" d="M337.6,169c0.2,0.1,0.7,0.3,1.1,0.3c0.5,0,0.9-0.3,0.9-0.7c0-0.4-0.2-0.7-0.8-0.9c-0.8-0.3-1.2-0.8-1.2-1.3
		c0-0.8,0.5-1.3,1.5-1.3c0.4,0,0.9,0.1,1.1,0.3L340,166c-0.2-0.1-0.4-0.2-0.9-0.2c-0.4,0-0.8,0.3-0.8,0.7c0,0.4,0.2,0.5,0.8,0.8
		c0.8,0.3,1.1,0.7,1.1,1.4c0,0.8-0.7,1.4-1.6,1.4c-0.4,0-0.9-0.1-1.2-0.3L337.6,169z"/>
	<path class="st15" d="M345,169.9c-1.2,0-2.1-0.9-2.1-2.4s1-2.4,2.2-2.4s2.1,1,2.1,2.3C347.1,169.2,346,169.9,345,169.9L345,169.9z
		 M345.1,169.3c0.8,0,1.3-0.8,1.3-1.7c0-0.8-0.3-1.7-1.3-1.7c-0.9,0-1.3,0.9-1.3,1.7C343.8,168.6,344.3,169.3,345.1,169.3
		L345.1,169.3z"/>
	<path class="st15" d="M348.1,163.1h0.8v2.8l0,0c0.3-0.5,0.8-0.9,1.5-0.9c1.1,0,1.9,1,1.9,2.3c0,1.6-1,2.4-2,2.4
		c-0.7,0-1.1-0.2-1.4-0.9l0,0v0.8h-0.8c0-0.3,0-0.8,0-1.2L348.1,163.1L348.1,163.1z M349,168c0,0.1,0,0.2,0,0.3c0.1,0.5,0.7,1,1.2,1
		c0.9,0,1.3-0.7,1.3-1.7c0-0.9-0.4-1.7-1.3-1.7c-0.5,0-1.1,0.4-1.2,1c0,0.1,0,0.2,0,0.3V168L349,168z"/>
	<path class="st15" d="M353.1,169c0.2,0.1,0.7,0.3,1.1,0.3c0.5,0,0.9-0.3,0.9-0.7c0-0.4-0.2-0.7-0.8-0.9c-0.8-0.3-1.2-0.8-1.2-1.3
		c0-0.8,0.5-1.3,1.5-1.3c0.4,0,0.9,0.1,1.1,0.3l-0.2,0.5c-0.2-0.1-0.4-0.2-0.9-0.2s-0.8,0.3-0.8,0.7c0,0.4,0.2,0.5,0.9,0.8
		c0.8,0.3,1.1,0.7,1.1,1.4c0,0.8-0.7,1.4-1.6,1.4c-0.4,0-0.9-0.1-1.2-0.3L353.1,169z"/>
	<path class="st15" d="M357.3,167.7c0,1.1,0.7,1.6,1.5,1.6c0.5,0,0.9-0.1,1.2-0.2l0.1,0.5c-0.3,0.1-0.8,0.3-1.4,0.3
		c-1.3,0-2.2-1-2.2-2.3c0-1.4,0.8-2.5,2.1-2.5c1.4,0,1.7,1.3,1.7,2.2c0,0.2,0,0.3,0,0.4L357.3,167.7z M359.6,167
		c0-0.5-0.2-1.3-1.1-1.3c-0.8,0-1.2,0.8-1.2,1.3H359.6z"/>
	<path class="st15" d="M361.3,166.7c0-0.5,0-1,0-1.4h0.7v0.9l0,0c0.2-0.7,0.7-1,1.2-1c0.1,0,0.1,0,0.2,0v0.8c-0.1,0-0.2,0-0.3,0
		c-0.5,0-1,0.4-1.1,1.1c0,0.1,0,0.2,0,0.4v2.4h-0.8L361.3,166.7z"/>
	<path class="st15" d="M364.8,165.3l0.9,2.5c0.1,0.4,0.2,0.8,0.3,1.2l0,0c0.1-0.3,0.2-0.8,0.3-1.2l0.9-2.5h0.9l-1.7,4.6h-0.8
		l-1.6-4.6H364.8z"/>
	<path class="st15" d="M369.2,167.7c0,1.1,0.7,1.6,1.5,1.6c0.5,0,0.9-0.1,1.2-0.2l0.1,0.5c-0.3,0.1-0.8,0.3-1.4,0.3
		c-1.3,0-2.2-1-2.2-2.3c0-1.4,0.8-2.5,2.1-2.5c1.4,0,1.7,1.3,1.7,2.2c0,0.2,0,0.3,0,0.4L369.2,167.7z M371.4,167
		c0-0.5-0.2-1.3-1.1-1.3c-0.8,0-1.2,0.8-1.2,1.3H371.4z"/>
	<path class="st15" d="M377,163.1v5.6c0,0.4,0,0.9,0,1.2h-0.8v-0.8l0,0c-0.2,0.5-0.8,0.9-1.5,0.9c-1.1,0-1.9-1-1.9-2.3
		c0-1.5,0.9-2.4,2-2.4c0.7,0,1.1,0.3,1.3,0.7l0,0v-2.7C376.2,163.1,377,163.1,377,163.1z M376.2,167.1c0-0.1,0-0.2,0-0.3
		c-0.1-0.5-0.5-1-1.1-1c-0.8,0-1.3,0.8-1.3,1.7s0.4,1.7,1.3,1.7c0.5,0,1-0.3,1.2-1c0-0.1,0-0.2,0-0.3L376.2,167.1L376.2,167.1z"/>
</g>
<rect x="271.1" y="165.1" class="st16" width="4.6" height="4.8"/>
<rect x="281.9" y="165.1" class="st16" width="4.6" height="4.8"/>
<rect x="275.7" y="165.1" class="st16" width="6.2" height="4.8"/>
<line class="st17" x1="278.8" y1="167.7" x2="278.8" y2="167.1"/>
<rect x="281.9" y="148.5" class="st18" width="4.8" height="4.6"/>
<rect x="271.1" y="148.5" class="st18" width="4.8" height="4.6"/>
<rect x="275.8" y="148.5" class="st18" width="6" height="4.6"/>
<line class="st8" x1="279.8" y1="150.8" x2="278" y2="150.8"/>
<rect x="281.9" y="156.8" class="st19" width="4.8" height="4.6"/>
<rect x="271.1" y="156.8" class="st19" width="4.8" height="4.6"/>
<rect x="275.8" y="156.8" class="st19" width="6" height="4.6"/>
<line class="st8" x1="279.8" y1="159.1" x2="278" y2="159.1"/>
<g>
	<line class="st9" x1="287.4" y1="256.2" x2="300.8" y2="256.2"/>
	<g>
		<path class="st0" d="M306.9,254.4l0.9,2.5c0.1,0.4,0.2,0.8,0.3,1.2l0,0c0.1-0.3,0.2-0.8,0.3-1.2l0.9-2.5h0.9l-1.7,4.6h-0.8
			l-1.6-4.6H306.9z"/>
		<path class="st0" d="M313.9,257.8c0,0.4,0,0.8,0.1,1.1h-0.8l-0.1-0.5l0,0c-0.2,0.3-0.8,0.7-1.3,0.7c-0.9,0-1.3-0.7-1.3-1.3
			c0-1.1,1-1.7,2.6-1.7v-0.1c0-0.3-0.1-1.1-1-1.1c-0.4,0-0.9,0.1-1.1,0.3l-0.2-0.5c0.3-0.2,0.9-0.4,1.4-0.4c1.3,0,1.6,1,1.6,1.9
			L313.9,257.8L313.9,257.8z M313.1,256.6c-0.9,0-1.9,0.1-1.9,1c0,0.5,0.3,0.8,0.8,0.8c0.5,0,1-0.3,1.1-0.8c0-0.1,0-0.2,0-0.2V256.6
			z"/>
		<path class="st0" d="M315.2,255.9c0-0.5,0-1,0-1.4h0.7v0.9l0,0c0.2-0.7,0.7-1,1.2-1c0.1,0,0.1,0,0.2,0v0.8c-0.1,0-0.2,0-0.3,0
			c-0.5,0-1,0.4-1.1,1.1c0,0.1,0,0.2,0,0.4v2.4h-0.8L315.2,255.9z"/>
		<path class="st0" d="M318.6,253.6c-0.3,0-0.5-0.2-0.5-0.5c0-0.3,0.2-0.5,0.5-0.5c0.3,0,0.5,0.2,0.5,0.5
			C319.1,253.4,318.9,253.6,318.6,253.6L318.6,253.6z M318.1,258.9v-4.6h0.8v4.6H318.1z"/>
		<path class="st0" d="M323.4,257.8c0,0.4,0,0.8,0.1,1.1h-0.8l-0.1-0.5l0,0c-0.2,0.3-0.8,0.7-1.3,0.7c-0.9,0-1.3-0.7-1.3-1.3
			c0-1.1,1-1.7,2.6-1.7v-0.1c0-0.3-0.1-1.1-1-1.1c-0.4,0-0.9,0.1-1.1,0.3l-0.2-0.5c0.3-0.2,0.9-0.4,1.4-0.4c1.3,0,1.6,1,1.6,1.9
			L323.4,257.8L323.4,257.8z M322.5,256.6c-0.9,0-1.9,0.1-1.9,1c0,0.5,0.3,0.8,0.8,0.8c0.5,0,1-0.3,1.1-0.8c0-0.1,0-0.2,0-0.2V256.6
			z"/>
		<path class="st0" d="M324.6,252.3h0.8v2.8l0,0c0.3-0.5,0.8-0.9,1.5-0.9c1.1,0,1.9,1,1.9,2.3c0,1.6-1,2.4-2,2.4
			c-0.7,0-1.1-0.2-1.4-0.9l0,0v0.8h-0.8c0-0.3,0-0.8,0-1.2L324.6,252.3L324.6,252.3z M325.3,257.2c0,0.1,0,0.2,0,0.3
			c0.1,0.5,0.7,1,1.2,1c0.9,0,1.3-0.7,1.3-1.7c0-0.9-0.4-1.7-1.3-1.7c-0.5,0-1.1,0.4-1.2,1c0,0.1,0,0.2,0,0.3V257.2L325.3,257.2z"/>
		<path class="st0" d="M329.7,252.3h0.8v6.7h-0.8V252.3z"/>
		<path class="st0" d="M332.2,256.9c0,1.1,0.7,1.6,1.5,1.6c0.5,0,0.9-0.1,1.2-0.2l0.1,0.5c-0.3,0.1-0.8,0.3-1.4,0.3
			c-1.3,0-2.2-1-2.2-2.3c0-1.4,0.8-2.5,2.1-2.5c1.4,0,1.7,1.3,1.7,2.2c0,0.2,0,0.3,0,0.4L332.2,256.9z M334.6,256.2
			c0-0.5-0.2-1.3-1.1-1.3c-0.8,0-1.2,0.8-1.2,1.3H334.6z"/>
		<path class="st0" d="M338.1,256.1v0.7h-2.2v-0.7H338.1z"/>
		<path class="st0" d="M339.1,252.3h0.8v6.7h-0.8V252.3z"/>
		<path class="st0" d="M341.6,256.9c0,1.1,0.7,1.6,1.5,1.6c0.5,0,0.9-0.1,1.2-0.2l0.1,0.5c-0.3,0.1-0.8,0.3-1.4,0.3
			c-1.3,0-2.2-1-2.2-2.3c0-1.4,0.8-2.5,2.1-2.5c1.4,0,1.7,1.3,1.7,2.2c0,0.2,0,0.3,0,0.4L341.6,256.9z M344,256.2
			c0-0.5-0.2-1.3-1.1-1.3c-0.8,0-1.2,0.8-1.2,1.3H344z"/>
		<path class="st0" d="M345.7,255.7c0-0.4,0-0.9,0-1.2h0.7v0.8l0,0c0.2-0.4,0.8-0.9,1.4-0.9c0.7,0,1.5,0.3,1.5,2v2.7h-0.8v-2.6
			c0-0.8-0.2-1.3-1-1.3c-0.5,0-0.9,0.4-1.1,0.9c0,0.1-0.1,0.2-0.1,0.4v2.7h-0.8L345.7,255.7L345.7,255.7z"/>
		<path class="st0" d="M354.3,258.3c0,1.1-0.2,1.6-0.7,2.1c-0.4,0.4-1.1,0.5-1.6,0.5c-0.5,0-1.1-0.1-1.4-0.3l0.2-0.7
			c0.3,0.2,0.8,0.3,1.3,0.3c0.8,0,1.4-0.4,1.4-1.6v-0.5l0,0c-0.2,0.4-0.8,0.8-1.4,0.8c-1.1,0-1.9-1-1.9-2.2c0-1.5,1-2.4,2-2.4
			c0.8,0,1.2,0.4,1.3,0.8l0,0v-0.7h0.7c0,0.3,0,0.7,0,1.2L354.3,258.3L354.3,258.3z M353.6,256.2c0-0.1,0-0.2,0-0.3
			c-0.1-0.4-0.5-0.9-1.1-0.9c-0.8,0-1.3,0.7-1.3,1.7c0,0.9,0.4,1.6,1.3,1.6c0.5,0,1-0.3,1.1-0.9c0-0.1,0.1-0.3,0.1-0.4v-0.9
			L353.6,256.2L353.6,256.2z"/>
		<path class="st0" d="M356.6,253.3v1.1h1.1v0.7h-1.1v2.5c0,0.5,0.1,0.9,0.5,0.9c0.2,0,0.3,0,0.4-0.1v0.7c-0.1,0.1-0.4,0.1-0.7,0.1
			c-0.3,0-0.7-0.1-0.9-0.3c-0.2-0.2-0.3-0.7-0.3-1.2V255h-0.7v-0.7h0.7v-0.9L356.6,253.3z"/>
		<path class="st0" d="M358.7,252.3h0.8v2.8l0,0c0.1-0.2,0.3-0.4,0.5-0.5c0.2-0.1,0.5-0.2,0.8-0.2c0.5,0,1.5,0.3,1.5,2v2.7h-0.8
			v-2.6c0-0.8-0.2-1.3-1-1.3c-0.5,0-0.9,0.3-1.1,0.9c0,0.1-0.1,0.2-0.1,0.4v2.7h-0.8L358.7,252.3L358.7,252.3z"/>
		<path class="st0" d="M365.6,255.9c0-0.5,0-1,0-1.4h0.7v0.9l0,0c0.2-0.7,0.7-1,1.2-1c0.1,0,0.1,0,0.2,0v0.8c-0.1,0-0.2,0-0.3,0
			c-0.5,0-1,0.4-1.1,1.1c0,0.1,0,0.2,0,0.4v2.4h-0.8L365.6,255.9z"/>
		<path class="st0" d="M368.8,256.9c0,1.1,0.7,1.6,1.5,1.6c0.5,0,0.9-0.1,1.2-0.2l0.1,0.5c-0.3,0.1-0.8,0.3-1.4,0.3
			c-1.3,0-2.2-1-2.2-2.3c0-1.4,0.8-2.5,2.1-2.5c1.4,0,1.7,1.3,1.7,2.2c0,0.2,0,0.3,0,0.4L368.8,256.9z M371.2,256.2
			c0-0.5-0.2-1.3-1.1-1.3c-0.8,0-1.2,0.8-1.2,1.3H371.2z"/>
		<path class="st0" d="M376.7,258.3c0,1.1-0.2,1.6-0.7,2.1c-0.4,0.4-1.1,0.5-1.6,0.5s-1.1-0.1-1.4-0.3l0.2-0.7
			c0.3,0.2,0.8,0.3,1.3,0.3c0.8,0,1.4-0.4,1.4-1.6v-0.5l0,0c-0.2,0.4-0.8,0.8-1.4,0.8c-1.1,0-1.9-1-1.9-2.2c0-1.5,1-2.4,2-2.4
			c0.8,0,1.2,0.4,1.3,0.8l0,0v-0.7h0.7c0,0.3,0,0.7,0,1.2L376.7,258.3L376.7,258.3z M375.9,256.2c0-0.1,0-0.2,0-0.3
			c-0.1-0.4-0.5-0.9-1.1-0.9c-0.8,0-1.3,0.7-1.3,1.7c0,0.9,0.4,1.6,1.3,1.6c0.5,0,1-0.3,1.1-0.9c0-0.1,0.1-0.3,0.1-0.4v-0.9
			L375.9,256.2L375.9,256.2z"/>
		<path class="st0" d="M378.3,253.6c-0.3,0-0.5-0.2-0.5-0.5c0-0.3,0.2-0.5,0.5-0.5c0.3,0,0.5,0.2,0.5,0.5
			C378.9,253.4,378.6,253.6,378.3,253.6L378.3,253.6z M378,258.9v-4.6h0.8v4.6H378z"/>
		<path class="st0" d="M381.8,259c-1.2,0-2.1-0.9-2.1-2.4c0-1.5,1-2.4,2.2-2.4s2.1,1,2.1,2.3C384,258.3,382.9,259,381.8,259
			L381.8,259z M381.8,258.5c0.8,0,1.3-0.8,1.3-1.7c0-0.8-0.3-1.7-1.3-1.7c-0.9,0-1.3,0.9-1.3,1.7C380.5,257.7,381,258.5,381.8,258.5
			L381.8,258.5z"/>
		<path class="st0" d="M385,255.7c0-0.4,0-0.9,0-1.2h0.7v0.8l0,0c0.2-0.4,0.8-0.9,1.4-0.9c0.7,0,1.5,0.3,1.5,2v2.7h-0.8v-2.6
			c0-0.8-0.2-1.3-1-1.3c-0.5,0-0.9,0.4-1.1,0.9c0,0.1-0.1,0.2-0.1,0.4v2.7h-0.8L385,255.7L385,255.7z"/>
	</g>
</g>
<g>
	<g>
		<path class="st0" d="M293.1,240l0.9,2.5c0.1,0.4,0.2,0.8,0.3,1.2l0,0c0.1-0.3,0.2-0.8,0.3-1.2l0.9-2.5h0.9l-1.7,4.6h-0.8l-1.6-4.6
			C292.2,240,293.1,240,293.1,240z"/>
		<path class="st0" d="M300,243.5c0,0.4,0,0.8,0.1,1.1h-0.8l-0.1-0.5l0,0c-0.2,0.3-0.8,0.7-1.3,0.7c-0.9,0-1.3-0.7-1.3-1.3
			c0-1.1,1-1.7,2.6-1.7v-0.1c0-0.3-0.1-1.1-1-1.1c-0.4,0-0.9,0.1-1.1,0.3l-0.2-0.5c0.3-0.2,0.9-0.4,1.4-0.4c1.3,0,1.6,1,1.6,1.9
			L300,243.5L300,243.5z M299.3,242.3c-0.9,0-1.9,0.1-1.9,1c0,0.5,0.3,0.8,0.8,0.8c0.5,0,1-0.3,1.1-0.8c0-0.1,0-0.2,0-0.2V242.3
			L299.3,242.3z"/>
		<path class="st0" d="M301.3,241.4c0-0.5,0-1,0-1.4h0.7v0.9l0,0c0.2-0.7,0.7-1,1.2-1c0.1,0,0.1,0,0.2,0v0.8c-0.1,0-0.2,0-0.3,0
			c-0.5,0-1,0.4-1.1,1.1c0,0.1,0,0.2,0,0.4v2.4h-0.8L301.3,241.4z"/>
		<path class="st0" d="M304.6,239.1c-0.3,0-0.5-0.2-0.5-0.5c0-0.3,0.2-0.5,0.5-0.5c0.3,0,0.5,0.2,0.5,0.5
			C305.2,238.9,304.9,239.1,304.6,239.1L304.6,239.1z M304.3,244.5V240h0.8v4.6H304.3z"/>
		<path class="st0" d="M309.4,243.5c0,0.4,0,0.8,0.1,1.1h-0.8l-0.1-0.5l0,0c-0.2,0.3-0.8,0.7-1.3,0.7c-0.9,0-1.3-0.7-1.3-1.3
			c0-1.1,1-1.7,2.6-1.7v-0.1c0-0.3-0.1-1.1-1-1.1c-0.4,0-0.9,0.1-1.1,0.3l-0.2-0.5c0.3-0.2,0.9-0.4,1.4-0.4c1.3,0,1.6,1,1.6,1.9
			L309.4,243.5L309.4,243.5z M308.6,242.3c-0.9,0-1.9,0.1-1.9,1c0,0.5,0.3,0.8,0.8,0.8c0.5,0,1-0.3,1.1-0.8c0-0.1,0-0.2,0-0.2V242.3
			L308.6,242.3z"/>
		<path class="st0" d="M310.7,237.9h0.8v2.8l0,0c0.3-0.5,0.8-0.9,1.5-0.9c1.1,0,1.9,1,1.9,2.3c0,1.6-1,2.4-2,2.4
			c-0.7,0-1.1-0.2-1.4-0.9l0,0v0.8h-0.7c0-0.3,0-0.8,0-1.2L310.7,237.9L310.7,237.9z M311.5,242.7c0,0.1,0,0.2,0,0.3
			c0.1,0.5,0.7,1,1.2,1c0.9,0,1.3-0.7,1.3-1.7c0-0.9-0.4-1.7-1.3-1.7c-0.5,0-1.1,0.4-1.2,1c0,0.1,0,0.2,0,0.3V242.7L311.5,242.7z"/>
		<path class="st0" d="M315.8,237.9h0.8v6.7h-0.8V237.9z"/>
		<path class="st0" d="M318.3,242.4c0,1.1,0.7,1.6,1.5,1.6c0.5,0,0.9-0.1,1.2-0.2l0.1,0.5c-0.3,0.1-0.8,0.3-1.4,0.3
			c-1.3,0-2.2-1-2.2-2.3c0-1.4,0.8-2.5,2.1-2.5c1.4,0,1.7,1.3,1.7,2.2c0,0.2,0,0.3,0,0.4L318.3,242.4z M320.6,241.8
			c0-0.5-0.2-1.3-1.1-1.3c-0.8,0-1.2,0.8-1.2,1.3H320.6z"/>
		<path class="st0" d="M324.2,241.7v0.7h-2.2v-0.7H324.2z"/>
		<path class="st0" d="M325.2,237.9h0.8v6.7h-0.8V237.9z"/>
		<path class="st0" d="M327.7,242.4c0,1.1,0.7,1.6,1.5,1.6c0.5,0,0.9-0.1,1.2-0.2l0.1,0.5c-0.3,0.1-0.8,0.3-1.4,0.3
			c-1.3,0-2.2-1-2.2-2.3c0-1.4,0.8-2.5,2.1-2.5c1.4,0,1.7,1.3,1.7,2.2c0,0.2,0,0.3,0,0.4L327.7,242.4z M330,241.8
			c0-0.5-0.2-1.3-1.1-1.3c-0.8,0-1.2,0.8-1.2,1.3H330z"/>
		<path class="st0" d="M331.8,241.2c0-0.4,0-0.9,0-1.2h0.7v0.8l0,0c0.2-0.4,0.8-0.9,1.4-0.9s1.5,0.3,1.5,2v2.7h-0.8v-2.6
			c0-0.8-0.2-1.3-1-1.3c-0.5,0-0.9,0.4-1.1,0.9c0,0.1,0,0.2,0,0.4v2.7h-0.8V241.2L331.8,241.2z"/>
		<path class="st0" d="M340.5,243.9c0,1.1-0.2,1.6-0.7,2.1c-0.4,0.4-1.1,0.5-1.6,0.5c-0.5,0-1.1-0.1-1.4-0.3l0.2-0.7
			c0.3,0.2,0.8,0.3,1.3,0.3c0.8,0,1.4-0.4,1.4-1.6v-0.5l0,0c-0.2,0.4-0.8,0.8-1.4,0.8c-1.1,0-1.9-1-1.9-2.2c0-1.5,1-2.4,2-2.4
			c0.8,0,1.2,0.4,1.3,0.8l0,0V240h0.7c0,0.3,0,0.7,0,1.2L340.5,243.9L340.5,243.9z M339.7,241.8c0-0.1,0-0.2,0-0.3
			c-0.1-0.4-0.5-0.9-1.1-0.9c-0.8,0-1.3,0.7-1.3,1.7c0,0.9,0.4,1.6,1.3,1.6c0.5,0,1-0.3,1.1-0.9c0-0.1,0.1-0.3,0.1-0.4L339.7,241.8
			L339.7,241.8z"/>
		<path class="st0" d="M342.8,238.9v1.1h1.1v0.7h-1.1v2.5c0,0.5,0.1,0.9,0.5,0.9c0.2,0,0.3,0,0.4-0.1v0.7c-0.1,0.1-0.4,0.1-0.7,0.1
			c-0.3,0-0.7-0.1-0.9-0.3c-0.2-0.2-0.3-0.7-0.3-1.2v-2.5h-0.7V240h0.7v-0.9L342.8,238.9z"/>
		<path class="st0" d="M344.7,237.9h0.8v2.8l0,0c0.1-0.2,0.3-0.4,0.5-0.5c0.2-0.1,0.5-0.2,0.8-0.2c0.5,0,1.5,0.3,1.5,2v2.7h-0.8V242
			c0-0.8-0.2-1.3-1-1.3c-0.5,0-0.9,0.3-1.1,0.9c0,0.1,0,0.2,0,0.4v2.7h-0.8V237.9z"/>
		<path class="st0" d="M351.5,243.7c0.2,0.1,0.7,0.3,1.1,0.3c0.5,0,0.9-0.3,0.9-0.7c0-0.4-0.2-0.7-0.8-0.9c-0.8-0.3-1.2-0.8-1.2-1.3
			c0-0.8,0.5-1.3,1.5-1.3c0.4,0,0.9,0.1,1.1,0.3l-0.2,0.5c-0.2-0.1-0.4-0.2-0.9-0.2c-0.4,0-0.8,0.3-0.8,0.7c0,0.4,0.2,0.5,0.8,0.8
			c0.8,0.3,1.1,0.7,1.1,1.4c0,0.8-0.7,1.4-1.6,1.4c-0.4,0-0.9-0.1-1.2-0.3L351.5,243.7z"/>
		<path class="st0" d="M356.2,238.9v1.1h1.1v0.7h-1.1v2.5c0,0.5,0.1,0.9,0.5,0.9c0.2,0,0.3,0,0.4-0.1v0.7c-0.1,0.1-0.4,0.1-0.7,0.1
			c-0.3,0-0.7-0.1-0.9-0.3c-0.2-0.2-0.3-0.7-0.3-1.2v-2.5h-0.7V240h0.7v-0.9L356.2,238.9z"/>
		<path class="st0" d="M358.6,242.4c0,1.1,0.7,1.6,1.5,1.6c0.5,0,0.9-0.1,1.2-0.2l0.1,0.5c-0.3,0.1-0.8,0.3-1.4,0.3
			c-1.3,0-2.2-1-2.2-2.3c0-1.4,0.8-2.5,2.1-2.5c1.4,0,1.7,1.3,1.7,2.2c0,0.2,0,0.3,0,0.4L358.6,242.4z M360.9,241.8
			c0-0.5-0.2-1.3-1.1-1.3c-0.8,0-1.2,0.8-1.2,1.3H360.9z"/>
		<path class="st0" d="M362.6,241.2c0-0.4,0-0.9,0-1.2h0.7v0.8l0,0c0.2-0.4,0.7-0.9,1.4-0.9c0.5,0,1,0.3,1.2,0.9l0,0
			c0.1-0.2,0.3-0.4,0.5-0.5c0.2-0.2,0.5-0.3,1-0.3c0.5,0,1.4,0.4,1.4,2v2.7h-0.8v-2.6c0-0.9-0.3-1.4-1-1.4c-0.4,0-0.8,0.3-1,0.8
			c0,0.1-0.1,0.3-0.1,0.4v2.8h-0.8v-2.7c0-0.8-0.3-1.2-0.9-1.2c-0.4,0-0.9,0.4-1,0.9c0,0.1-0.1,0.2-0.1,0.4v2.7h-0.8L362.6,241.2
			L362.6,241.2z"/>
		<path class="st0" d="M372,241.7v0.7h-2.2v-0.7H372z"/>
		<path class="st0" d="M372.9,237.9h0.8v6.7h-0.8V237.9z"/>
		<path class="st0" d="M376.8,244.7c-1.2,0-2.1-0.9-2.1-2.4c0-1.5,1-2.4,2.2-2.4s2.1,1,2.1,2.3C379,243.9,377.8,244.7,376.8,244.7
			L376.8,244.7z M376.8,244c0.8,0,1.3-0.8,1.3-1.7c0-0.8-0.3-1.7-1.3-1.7c-0.9,0-1.3,0.9-1.3,1.7C375.5,243.2,376,244,376.8,244
			L376.8,244z"/>
		<path class="st0" d="M381.7,244.7c-1.2,0-2.1-0.9-2.1-2.4c0-1.5,1-2.4,2.2-2.4s2.1,1,2.1,2.3C383.9,243.9,382.8,244.7,381.7,244.7
			L381.7,244.7z M381.7,244c0.8,0,1.3-0.8,1.3-1.7c0-0.8-0.3-1.7-1.3-1.7c-0.9,0-1.3,0.9-1.3,1.7C380.4,243.2,380.9,244,381.7,244
			L381.7,244z"/>
		<path class="st0" d="M384.9,241.5c0-0.5,0-1.1,0-1.5h0.8v0.8l0,0c0.3-0.5,0.9-0.9,1.5-0.9c1.1,0,1.9,1,1.9,2.3c0,1.6-1,2.4-2,2.4
			c-0.5,0-1.1-0.2-1.3-0.8l0,0v2.5H385L384.9,241.5L384.9,241.5z M385.6,242.7c0,0.1,0,0.2,0,0.3c0.1,0.5,0.7,1,1.2,1
			c0.9,0,1.3-0.8,1.3-1.7c0-0.9-0.4-1.7-1.3-1.7c-0.5,0-1.1,0.4-1.2,1c0,0.1,0,0.2,0,0.3V242.7z"/>
	</g>
	<g>
		<path class="st9" d="M289.6,245.6h-9.4c-1.9,3.2-6,4.3-9.2,2.4c-3.2-1.9-4.3-6-2.4-9.2c1.9-3.2,6-4.3,9.2-2.4
			c1,0.5,1.9,1.4,2.4,2.4h9.4"/>
		<rect x="287.7" y="241.2" class="st0" width="0.8" height="2.2"/>
		<rect x="287.7" y="241.2" class="st20" width="0.8" height="2.2"/>
		<rect x="283.7" y="241.2" class="st0" width="0.8" height="2.2"/>
		<rect x="283.7" y="241.2" class="st20" width="0.8" height="2.2"/>
		<rect x="279.8" y="241.2" class="st0" width="0.8" height="2.2"/>
		<rect x="279.8" y="241.2" class="st20" width="0.8" height="2.2"/>
	</g>
</g>
<path class="st0" d="M283,271.5c0.4-0.1,1-0.1,1.5-0.1c0.9,0,1.4,0.2,1.9,0.5c0.3,0.3,0.5,0.7,0.5,1.2c0,0.9-0.5,1.4-1.2,1.6l0,0
	c0.4,0.2,0.8,0.7,1,1.3c0.2,0.9,0.3,1.5,0.4,1.7h-0.9c-0.1-0.2-0.2-0.8-0.4-1.5c-0.2-0.9-0.5-1.2-1.3-1.2h-0.8v2.7h-0.9L283,271.5
	L283,271.5z M283.9,274.3h0.9c0.9,0,1.4-0.4,1.4-1.2c0-0.9-0.5-1.2-1.4-1.2c-0.4,0-0.7,0-0.8,0.1L283.9,274.3L283.9,274.3z"/>
<path class="st0" d="M289.8,274.5V274h4.9v0.5H289.8z M289.8,276.4v-0.5h4.9v0.5H289.8z"/>
<path class="st0" d="M298.7,275.7l-0.7,2h-0.8l2.2-6.3h1l2.2,6.3h-1l-0.7-2H298.7z M300.9,275.1l-0.7-1.9c-0.1-0.4-0.2-0.8-0.3-1.2
	l0,0c-0.1,0.3-0.2,0.8-0.3,1.2l-0.7,1.9H300.9L300.9,275.1z"/>
<path class="st0" d="M307.3,277.8c-1.2,0-2.2-0.9-2.2-2.4c0-1.5,1-2.4,2.3-2.4c1.3,0,2.2,1,2.2,2.3
	C309.6,277.1,308.4,277.8,307.3,277.8L307.3,277.8L307.3,277.8z M307.3,277.3c0.8,0,1.4-0.8,1.4-1.7c0-0.8-0.4-1.7-1.4-1.7
	s-1.4,0.9-1.4,1.7C306,276.5,306.6,277.3,307.3,277.3L307.3,277.3z"/>
<path class="st0" d="M310.7,274.6c0-0.5,0-1,0-1.4h0.8v0.9l0,0c0.2-0.7,0.8-1,1.3-1c0.1,0,0.1,0,0.2,0v0.8c-0.1,0-0.2,0-0.3,0
	c-0.5,0-1,0.4-1.1,1.1c0,0.1,0,0.2,0,0.4v2.4h-0.9L310.7,274.6L310.7,274.6z"/>
<path class="st0" d="M320.6,277.5c-0.3,0.1-1.1,0.3-2,0.3c-1,0-1.7-0.2-2.4-0.9c-0.5-0.5-0.9-1.4-0.9-2.4c0-1.9,1.3-3.3,3.5-3.3
	c0.8,0,1.3,0.1,1.6,0.3l-0.2,0.7c-0.3-0.1-0.8-0.3-1.4-0.3c-1.5,0-2.5,1-2.5,2.5c0,1.6,1,2.6,2.4,2.6c0.5,0,0.9-0.1,1.1-0.2v-1.7
	h-1.3v-0.7h2.1L320.6,277.5L320.6,277.5z"/>
<path class="st0" d="M217.5,249.7c-0.3,0-0.5-0.2-0.5-0.5s0.2-0.5,0.5-0.5c0.3,0,0.5,0.2,0.5,0.5S217.8,249.7,217.5,249.7
	L217.5,249.7z"/>
<path class="st0" d="M327.2,277.7v-2.6l-2.1-3.7h1l0.9,1.7c0.2,0.4,0.4,0.9,0.7,1.3l0,0c0.2-0.4,0.4-0.9,0.7-1.3l0.9-1.7h0.9
	l-2.1,3.6v2.7H327.2L327.2,277.7z"/>
<path class="st0" d="M332.5,274.5V274h4.9v0.5H332.5z M332.5,276.4v-0.5h4.9v0.5H332.5z"/>
<path class="st0" d="M345,277.6c-0.3,0.1-0.9,0.3-1.6,0.3c-1.7,0-3.2-1.1-3.2-3.3c0-2,1.3-3.4,3.3-3.4c0.8,0,1.3,0.2,1.5,0.3
	l-0.2,0.7c-0.3-0.1-0.8-0.2-1.3-0.2c-1.5,0-2.5,1-2.5,2.6c0,1.5,0.9,2.5,2.4,2.5c0.5,0,1-0.1,1.3-0.2L345,277.6z"/>
<path class="st0" d="M349.9,277.8c-1.2,0-2.2-0.9-2.2-2.4c0-1.5,1-2.4,2.3-2.4c1.3,0,2.2,1,2.2,2.3
	C352,277.1,350.9,277.8,349.9,277.8L349.9,277.8L349.9,277.8z M349.9,277.3c0.8,0,1.4-0.8,1.4-1.7c0-0.8-0.4-1.7-1.4-1.7
	s-1.4,0.9-1.4,1.7C348.4,276.5,349,277.3,349.9,277.3L349.9,277.3z"/>
<path class="st0" d="M353.1,274.6c0-0.5,0-1,0-1.4h0.8v0.9l0,0c0.2-0.7,0.8-1,1.3-1c0.1,0,0.1,0,0.2,0v0.8c-0.1,0-0.2,0-0.3,0
	c-0.5,0-1,0.4-1.1,1.1c0,0.1,0,0.2,0,0.4v2.4h-0.9V274.6z"/>
<path class="st0" d="M359,271.4v3.8c0,1.4,0.7,2.1,1.5,2.1c1,0,1.5-0.7,1.5-2.1v-3.8h0.9v3.7c0,2-1,2.7-2.4,2.7
	c-1.3,0-2.3-0.8-2.3-2.7v-3.7H359L359,271.4z"/>
<path class="st0" d="M260,249.7c-0.3,0-0.5-0.2-0.5-0.5s0.2-0.5,0.5-0.5c0.3,0,0.5,0.2,0.5,0.5S260.3,249.7,260,249.7L260,249.7z"/>
<text transform="matrix(1 0 0 1 7.451 26.1855)" class="st21 st22">Guanidine-III Riboswitch</text>
</svg>
