<?xml version="1.0" encoding="utf-8"?>
<!-- Generator: Adobe Illustrator 25.4.1, SVG Export Plug-In . SVG Version: 6.00 Build 0)  -->
<svg version="1.1" id="图层_1" xmlns="http://www.w3.org/2000/svg" xmlns:xlink="http://www.w3.org/1999/xlink" x="0px" y="0px"
	 viewBox="0 0 400 400" style="enable-background:new 0 0 400 400;" xml:space="preserve">
<style type="text/css">
	.st0{fill:none;stroke:#CCCCCC;stroke-width:7.56;stroke-linecap:round;stroke-linejoin:round;stroke-miterlimit:10;}
	.st1{fill:#807B87;}
	.st2{fill:#0A0000;}
	.st3{fill:#D1E3BF;}
	.st4{fill:none;stroke:#0A0000;stroke-width:1.44;stroke-miterlimit:10;}
	.st5{fill:#FFFFFF;}
	.st6{fill:none;stroke:#0A0000;stroke-width:0.72;stroke-miterlimit:10;}
	.st7{fill:#C6261E;}
	.st8{fill:none;stroke:#0A0000;stroke-width:1.5;stroke-miterlimit:10;}
	.st9{fill:none;stroke:#0A0000;stroke-width:0.5;stroke-miterlimit:10;}
	.st10{font-family:'ArialMT';}
	.st11{font-size:20px;}
	.st12{fill:#0D0407;}
	.st13{fill:#211F20;}
	.st14{fill:none;stroke:#0D0407;stroke-width:0.72;stroke-miterlimit:10;}
	.st15{fill:#BB332E;}
	.st16{fill:#807C88;}
	.st17{fill:#808080;}
	.st18{fill:#B6302C;}
	.st19{fill:#0E0609;}
	.st20{fill:#E9C9CF;}
	.st21{fill:none;stroke:#0D0407;stroke-width:1.944;stroke-miterlimit:10;}
	.st22{fill:#CCDDAC;}
	.st23{fill:#CED5E5;}
	.st24{fill:none;stroke:#0D0407;stroke-width:1.5;stroke-miterlimit:10;}
</style>
<line class="st0" x1="251.8" y1="262.1" x2="251.8" y2="217.5"/>
<line class="st0" x1="251.8" y1="177.2" x2="251.8" y2="147.4"/>
<g>
	<path class="st1" d="M247.7,222.8v-10.6h4.7c0.9,0,1.7,0.1,2.1,0.3c0.5,0.2,0.9,0.5,1.2,1c0.3,0.5,0.4,1,0.4,1.6
		c0,0.7-0.2,1.4-0.7,1.9c-0.5,0.5-1.2,0.8-2.3,1c0.4,0.2,0.7,0.4,0.8,0.5c0.4,0.4,0.8,0.8,1.2,1.4l1.8,2.9h-1.7l-1.4-2.2
		c-0.4-0.6-0.7-1.1-1-1.5c-0.3-0.3-0.5-0.6-0.7-0.7c-0.2-0.1-0.4-0.2-0.6-0.3c-0.2,0-0.4,0-0.8,0h-1.6v4.7L247.7,222.8L247.7,222.8z
		 M249.1,216.9h3c0.6,0,1.1-0.1,1.5-0.2c0.4-0.1,0.6-0.3,0.8-0.6c0.2-0.3,0.3-0.6,0.3-0.9c0-0.5-0.2-0.9-0.5-1.2
		c-0.4-0.3-0.9-0.5-1.7-0.5h-3.3L249.1,216.9L249.1,216.9z"/>
</g>
<g>
	<path class="st1" d="M246.9,182.5l4-10.6h1.5l4.3,10.6h-1.6l-1.2-3.2h-4.4l-1.1,3.2H246.9z M249.9,178.1h3.6l-1.1-2.9
		c-0.3-0.9-0.6-1.6-0.8-2.2c-0.1,0.7-0.3,1.4-0.6,2L249.9,178.1z"/>
</g>
<g>
	<path class="st2" d="M95.7,130.2v-12.3h1.9v1.7c0.4-0.6,0.9-1.1,1.5-1.5c0.6-0.4,1.4-0.6,2.2-0.6c0.9,0,1.7,0.2,2.2,0.6
		c0.6,0.4,1,0.9,1.2,1.6c1-1.4,2.2-2.2,3.8-2.2c1.2,0,2.2,0.3,2.8,1c0.7,0.7,1,1.7,1,3.1v8.4h-2.1v-7.7c0-0.8-0.1-1.4-0.2-1.8
		c-0.1-0.4-0.4-0.7-0.7-0.9c-0.4-0.2-0.8-0.3-1.2-0.3c-0.9,0-1.6,0.3-2.2,0.9c-0.6,0.6-0.9,1.5-0.9,2.7v7.1H103v-8
		c0-0.9-0.2-1.6-0.5-2.1c-0.3-0.5-0.9-0.7-1.7-0.7c-0.6,0-1.1,0.2-1.6,0.5c-0.5,0.3-0.9,0.8-1.1,1.3c-0.2,0.6-0.3,1.4-0.3,2.6v6.4
		L95.7,130.2L95.7,130.2z"/>
	<path class="st2" d="M115.4,115.7v-2.4h2.1v2.4H115.4z M115.4,130.2v-12.3h2.1v12.3H115.4z"/>
	<path class="st2" d="M120.6,130.2v-12.3h1.9v1.7c0.9-1.3,2.2-2,3.9-2c0.7,0,1.4,0.1,2,0.4s1.1,0.6,1.4,1s0.5,0.9,0.6,1.5
		c0.1,0.4,0.1,1.1,0.1,2v7.5h-2.1v-7.5c0-0.8-0.1-1.5-0.2-1.9c-0.2-0.4-0.4-0.8-0.9-1c-0.4-0.2-0.9-0.4-1.4-0.4
		c-0.9,0-1.6,0.3-2.3,0.8s-1,1.6-1,3.2v6.7L120.6,130.2L120.6,130.2z"/>
	<path class="st2" d="M133.8,115.7v-2.4h2.1v2.4H133.8z M133.8,130.2v-12.3h2.1v12.3H133.8z"/>
	<path class="st2" d="M138.2,125.1V123h6.4v2.1H138.2z"/>
	<path class="st2" d="M145.3,134.9l0.1-2c0.4,0.1,0.8,0.2,1.3,0.2c0.4,0,0.8-0.1,1-0.3c0.3-0.3,0.7-0.7,1.1-1.4l0.7-1.2l-2-12.3h2.1
		l0.9,6.2c0.2,1.2,0.3,2.4,0.5,3.7l5.5-9.8h2.2l-7.8,13.9c-0.8,1.4-1.4,2.3-2,2.7c-0.6,0.4-1.3,0.7-2,0.7
		C146.2,135.2,145.7,135.1,145.3,134.9z"/>
	<path class="st2" d="M157.9,130.2l3.5-16.9h2.1l-2.2,10.5l6.1-5.9h2.7l-5.2,4.6l3.2,7.7h-2.3l-2.5-6.3l-2.5,2.2l-0.9,4.1
		L157.9,130.2L157.9,130.2z"/>
	<path class="st2" d="M169.7,130.2l3.5-16.9h2.1l-2.2,10.5l6.1-5.9h2.7l-5.2,4.6l3.2,7.7h-2.3l-2.5-6.3l-2.5,2.2l-0.9,4.1
		L169.7,130.2L169.7,130.2z"/>
	<path class="st2" d="M194.9,124.2l2.2,0.3c-0.7,2-1.7,3.4-3.1,4.4c-1.4,1-2.9,1.5-4.6,1.5c-2.1,0-3.7-0.6-4.9-1.9
		c-1.2-1.3-1.8-3-1.8-5.4c0-3,0.9-5.6,2.7-7.5c1.6-1.8,3.7-2.7,6.1-2.7c1.8,0,3.2,0.5,4.4,1.4c1.1,1,1.8,2.3,1.9,3.9l-2.1,0.2
		c-0.2-1.2-0.7-2.1-1.4-2.7c-0.7-0.6-1.6-0.9-2.7-0.9c-2.1,0-3.7,0.9-5,2.7c-1.1,1.6-1.7,3.5-1.7,5.6c0,1.7,0.4,3.1,1.3,4
		s2,1.4,3.3,1.4c1.2,0,2.2-0.4,3.2-1.1C193.8,126.7,194.5,125.6,194.9,124.2z"/>
</g>
<rect x="37.8" y="256.8" class="st3" width="35.5" height="10.6"/>
<line class="st4" x1="51.8" y1="262.1" x2="59.4" y2="262.1"/>
<rect x="37.8" y="241.9" class="st3" width="35.5" height="10.6"/>
<line class="st4" x1="51.8" y1="247.2" x2="59.4" y2="247.2"/>
<rect x="37.8" y="227.1" class="st3" width="35.5" height="10.6"/>
<line class="st4" x1="51.8" y1="232.4" x2="59.4" y2="232.4"/>
<rect x="37.8" y="212.2" class="st3" width="35.5" height="10.6"/>
<line class="st4" x1="51.8" y1="217.5" x2="59.4" y2="217.5"/>
<rect x="37.8" y="197.3" class="st3" width="35.5" height="10.6"/>
<line class="st4" x1="51.8" y1="202.6" x2="59.4" y2="202.6"/>
<rect x="37.8" y="182.5" class="st3" width="35.5" height="10.6"/>
<line class="st4" x1="51.8" y1="187.8" x2="59.4" y2="187.8"/>
<rect x="37.8" y="167.6" class="st3" width="35.5" height="10.6"/>
<line class="st4" x1="51.8" y1="172.9" x2="59.4" y2="172.9"/>
<rect x="37.8" y="152.7" class="st3" width="35.5" height="10.6"/>
<line class="st4" x1="51.8" y1="158" x2="59.4" y2="158"/>
<rect x="128.9" y="256.8" class="st3" width="35.5" height="10.6"/>
<line class="st4" x1="142.8" y1="262.1" x2="150.5" y2="262.1"/>
<rect x="128.9" y="241.9" class="st3" width="35.5" height="10.6"/>
<line class="st4" x1="142.8" y1="247.2" x2="150.5" y2="247.2"/>
<rect x="128.9" y="227.1" class="st3" width="35.5" height="10.6"/>
<line class="st4" x1="142.8" y1="232.4" x2="150.5" y2="232.4"/>
<rect x="128.9" y="212.2" class="st3" width="35.5" height="10.6"/>
<line class="st4" x1="142.8" y1="217.5" x2="150.5" y2="217.5"/>
<rect x="128.9" y="197.3" class="st3" width="35.5" height="10.6"/>
<line class="st4" x1="142.8" y1="202.6" x2="150.5" y2="202.6"/>
<circle class="st5" cx="43.6" cy="262.1" r="5"/>
<circle class="st6" cx="43.6" cy="262.1" r="5"/>
<circle class="st5" cx="43.6" cy="247.2" r="5"/>
<circle class="st6" cx="43.6" cy="247.2" r="5"/>
<circle class="st1" cx="43.6" cy="232.4" r="5"/>
<circle class="st6" cx="43.6" cy="232.4" r="5"/>
<circle class="st2" cx="43.6" cy="217.5" r="5"/>
<circle class="st6" cx="43.6" cy="217.5" r="5"/>
<circle class="st7" cx="43.6" cy="202.6" r="5"/>
<circle class="st6" cx="43.6" cy="202.6" r="5"/>
<g>
	<path class="st1" d="M39.4,193.1v-10.6h4.7c0.9,0,1.7,0.1,2.1,0.3c0.5,0.2,0.9,0.5,1.2,1s0.4,1,0.4,1.6c0,0.7-0.2,1.4-0.7,1.9
		c-0.5,0.5-1.2,0.8-2.2,1c0.4,0.2,0.7,0.4,0.8,0.5c0.4,0.4,0.8,0.8,1.2,1.4l1.8,2.9H47l-1.4-2.2c-0.4-0.6-0.7-1.1-1-1.5
		c-0.3-0.3-0.5-0.6-0.7-0.7s-0.4-0.2-0.6-0.3c-0.2,0-0.4,0-0.8,0h-1.6v4.7L39.4,193.1L39.4,193.1z M40.8,187.2h3
		c0.6,0,1.1-0.1,1.5-0.2c0.4-0.1,0.6-0.3,0.8-0.6c0.2-0.3,0.3-0.6,0.3-0.9c0-0.5-0.2-0.9-0.5-1.2c-0.4-0.3-0.9-0.5-1.7-0.5h-3.3
		C40.8,183.7,40.8,187.2,40.8,187.2z"/>
</g>
<g>
	<path class="st2" d="M43.9,174v-1.2h4.5v3.9c-0.7,0.5-1.4,1-2.1,1.2c-0.7,0.3-1.5,0.4-2.2,0.4c-1,0-2-0.2-2.8-0.7s-1.5-1.1-1.9-1.9
		c-0.4-0.8-0.6-1.8-0.6-2.8c0-1,0.2-2,0.6-2.9c0.4-0.9,1-1.6,1.9-2c0.8-0.4,1.7-0.6,2.8-0.6c0.8,0,1.5,0.1,2.1,0.4
		c0.6,0.2,1.1,0.6,1.5,1c0.4,0.4,0.6,1,0.8,1.7l-1.3,0.3c-0.2-0.5-0.4-1-0.6-1.3c-0.2-0.3-0.6-0.6-1-0.7c-0.4-0.2-0.9-0.3-1.5-0.3
		c-0.6,0-1.2,0.1-1.7,0.3c-0.5,0.2-0.8,0.5-1.1,0.8c-0.3,0.3-0.5,0.7-0.7,1c-0.3,0.7-0.4,1.4-0.4,2.1c0,0.9,0.2,1.7,0.5,2.4
		c0.3,0.6,0.8,1.1,1.4,1.4c0.6,0.3,1.3,0.5,2,0.5c0.6,0,1.2-0.1,1.8-0.4c0.6-0.2,1-0.5,1.3-0.7v-2L43.9,174L43.9,174z"/>
</g>
<g>
	<path class="st7" d="M43.9,159.2v-1.2h4.5v3.9c-0.7,0.5-1.4,1-2.1,1.2c-0.7,0.3-1.5,0.4-2.2,0.4c-1,0-2-0.2-2.8-0.7
		s-1.5-1.1-1.9-1.9c-0.4-0.8-0.6-1.8-0.6-2.8c0-1,0.2-2,0.6-2.9c0.4-0.9,1-1.6,1.9-2c0.8-0.4,1.7-0.6,2.8-0.6c0.8,0,1.5,0.1,2.1,0.4
		c0.6,0.2,1.1,0.6,1.5,1c0.4,0.4,0.6,1,0.8,1.7l-1.3,0.3c-0.2-0.5-0.4-1-0.6-1.3c-0.2-0.3-0.6-0.6-1-0.7s-0.9-0.3-1.5-0.3
		c-0.6,0-1.2,0.1-1.7,0.3c-0.5,0.2-0.8,0.5-1.1,0.8c-0.3,0.3-0.5,0.7-0.7,1c-0.3,0.7-0.4,1.4-0.4,2.1c0,0.9,0.2,1.7,0.5,2.4
		c0.3,0.6,0.8,1.1,1.4,1.4c0.6,0.3,1.3,0.5,2,0.5c0.6,0,1.2-0.1,1.8-0.4c0.6-0.2,1-0.5,1.3-0.7v-2L43.9,159.2L43.9,159.2z"/>
</g>
<g>
	<path class="st2" d="M34.4,149.1l4-10.6h1.5l4.3,10.6h-1.6l-1.2-3.2H37l-1.1,3.2H34.4z M37.4,144.7H41l-1.1-2.9
		c-0.3-0.9-0.6-1.6-0.8-2.2c-0.1,0.7-0.3,1.4-0.6,2L37.4,144.7z"/>
</g>
<g>
	<path class="st7" d="M51.5,133.4l1.4,0.4c-0.3,1.1-0.8,2-1.6,2.6c-0.8,0.6-1.7,0.9-2.8,0.9c-1.1,0-2.1-0.2-2.8-0.7
		c-0.7-0.5-1.3-1.1-1.6-2c-0.4-0.9-0.6-1.8-0.6-2.8c0-1.1,0.2-2.1,0.6-2.9c0.4-0.8,1-1.4,1.8-1.9c0.8-0.4,1.6-0.6,2.6-0.6
		c1.1,0,1.9,0.3,2.7,0.8c0.7,0.5,1.2,1.3,1.5,2.3l-1.4,0.3c-0.2-0.8-0.6-1.3-1.1-1.7s-1-0.5-1.8-0.5c-0.8,0-1.5,0.2-2,0.6
		c-0.5,0.4-0.9,0.9-1.1,1.6c-0.2,0.7-0.3,1.3-0.3,2c0,0.9,0.1,1.7,0.4,2.3c0.3,0.7,0.7,1.2,1.2,1.5c0.6,0.3,1.1,0.5,1.8,0.5
		c0.8,0,1.4-0.2,2-0.7C51,135,51.3,134.3,51.5,133.4z"/>
</g>
<g>
	<path class="st7" d="M63.4,133v-1.2h4.5v3.9c-0.7,0.5-1.4,1-2.1,1.2c-0.7,0.3-1.5,0.4-2.2,0.4c-1,0-2-0.2-2.8-0.7s-1.5-1.1-1.9-1.9
		c-0.4-0.8-0.6-1.8-0.6-2.8c0-1,0.2-2,0.6-2.9c0.4-0.9,1-1.6,1.9-2c0.8-0.4,1.7-0.6,2.8-0.6c0.8,0,1.5,0.1,2.1,0.4
		c0.6,0.2,1.1,0.6,1.5,1c0.4,0.4,0.6,1,0.8,1.7l-1.3,0.3c-0.2-0.5-0.4-1-0.6-1.3c-0.2-0.3-0.6-0.6-1-0.7c-0.4-0.2-0.9-0.3-1.5-0.3
		c-0.6,0-1.2,0.1-1.7,0.3c-0.5,0.2-0.8,0.5-1.1,0.8c-0.3,0.3-0.5,0.7-0.7,1c-0.3,0.7-0.4,1.4-0.4,2.1c0,0.9,0.2,1.7,0.5,2.4
		c0.3,0.6,0.8,1.1,1.4,1.4c0.6,0.3,1.3,0.5,2,0.5c0.6,0,1.2-0.1,1.8-0.4c0.6-0.2,1-0.5,1.3-0.7v-2L63.4,133L63.4,133z"/>
</g>
<g>
	<path class="st1" d="M67,149.1l4.1-10.6h1.5l4.3,10.6h-1.6l-1.2-3.2h-4.4l-1.1,3.2H67z M70,144.7h3.6l-1.1-2.9
		c-0.3-0.9-0.6-1.6-0.8-2.2c-0.1,0.7-0.3,1.4-0.6,2L70,144.7z"/>
</g>
<g>
	<path class="st7" d="M71,159.6l1.4,0.4c-0.3,1.1-0.8,2-1.6,2.6c-0.8,0.6-1.7,0.9-2.8,0.9c-1.1,0-2.1-0.2-2.8-0.7s-1.3-1.1-1.6-2
		c-0.4-0.9-0.6-1.8-0.6-2.8c0-1.1,0.2-2.1,0.6-2.9c0.4-0.8,1-1.4,1.8-1.9c0.8-0.4,1.6-0.6,2.6-0.6c1.1,0,1.9,0.3,2.7,0.8
		c0.7,0.5,1.2,1.3,1.5,2.3l-1.4,0.3c-0.2-0.8-0.6-1.3-1.1-1.7c-0.5-0.4-1-0.5-1.8-0.5c-0.8,0-1.5,0.2-2,0.6
		c-0.5,0.4-0.9,0.9-1.1,1.6c-0.2,0.7-0.3,1.3-0.3,2c0,0.9,0.1,1.7,0.4,2.3c0.3,0.7,0.7,1.2,1.2,1.5c0.6,0.3,1.1,0.5,1.8,0.5
		c0.8,0,1.4-0.2,2-0.7C70.4,161.2,70.8,160.5,71,159.6z"/>
</g>
<g>
	<path class="st2" d="M71,174.5l1.4,0.4c-0.3,1.1-0.8,2-1.6,2.6c-0.8,0.6-1.7,0.9-2.8,0.9c-1.1,0-2.1-0.2-2.8-0.7s-1.3-1.1-1.6-2
		c-0.4-0.9-0.6-1.8-0.6-2.8c0-1.1,0.2-2.1,0.6-2.9c0.4-0.8,1-1.4,1.8-1.9c0.8-0.4,1.6-0.6,2.6-0.6c1.1,0,1.9,0.3,2.7,0.8
		c0.7,0.5,1.2,1.3,1.5,2.3l-1.4,0.3c-0.2-0.8-0.6-1.3-1.1-1.7c-0.5-0.4-1-0.5-1.8-0.5c-0.8,0-1.5,0.2-2,0.6s-0.9,0.9-1.1,1.6
		c-0.2,0.7-0.3,1.3-0.3,2c0,0.9,0.1,1.7,0.4,2.3c0.3,0.7,0.7,1.2,1.2,1.5c0.6,0.3,1.1,0.5,1.8,0.5c0.8,0,1.4-0.2,2-0.7
		C70.4,176,70.8,175.4,71,174.5z"/>
</g>
<g>
	<path class="st1" d="M66.8,193.1v-4.5l-4.1-6.1h1.7l2.1,3.2c0.4,0.6,0.7,1.2,1.1,1.8c0.3-0.6,0.7-1.2,1.2-1.9l2-3.1h1.6l-4.2,6.1
		v4.5H66.8z"/>
</g>
<circle class="st7" cx="67.6" cy="202.6" r="5"/>
<circle class="st6" cx="67.6" cy="202.6" r="5"/>
<circle class="st2" cx="67.6" cy="217.5" r="5"/>
<circle class="st6" cx="67.6" cy="217.5" r="5"/>
<circle class="st1" cx="67.6" cy="232.4" r="5"/>
<circle class="st6" cx="67.6" cy="232.4" r="5"/>
<circle class="st5" cx="67.6" cy="247.2" r="5"/>
<circle class="st6" cx="67.6" cy="247.2" r="5"/>
<circle class="st5" cx="67.6" cy="262.1" r="5"/>
<circle class="st6" cx="67.6" cy="262.1" r="5"/>
<circle class="st5" cx="134.6" cy="262.1" r="5"/>
<circle class="st6" cx="134.6" cy="262.1" r="5"/>
<circle class="st7" cx="134.6" cy="247.2" r="5"/>
<circle class="st6" cx="134.6" cy="247.2" r="5"/>
<g>
	<path class="st1" d="M134.9,233.5v-1.2h4.5v3.9c-0.7,0.5-1.4,1-2.1,1.2c-0.7,0.3-1.5,0.4-2.2,0.4c-1,0-2-0.2-2.8-0.7
		c-0.8-0.4-1.5-1.1-1.9-1.9c-0.4-0.8-0.6-1.8-0.6-2.8c0-1,0.2-2,0.6-2.9c0.4-0.9,1-1.5,1.9-2c0.8-0.4,1.7-0.6,2.8-0.6
		c0.8,0,1.5,0.1,2.1,0.4c0.6,0.2,1.1,0.6,1.5,1c0.4,0.4,0.6,1,0.8,1.7l-1.3,0.3c-0.2-0.5-0.4-1-0.6-1.3c-0.2-0.3-0.6-0.6-1-0.7
		c-0.4-0.2-0.9-0.3-1.5-0.3c-0.6,0-1.2,0.1-1.7,0.3c-0.5,0.2-0.8,0.5-1.1,0.8c-0.3,0.3-0.5,0.7-0.7,1c-0.3,0.7-0.4,1.4-0.4,2.1
		c0,0.9,0.2,1.7,0.5,2.4c0.3,0.6,0.8,1.1,1.4,1.4c0.6,0.3,1.3,0.5,2,0.5c0.6,0,1.2-0.1,1.8-0.4c0.6-0.2,1-0.5,1.3-0.7v-2
		L134.9,233.5L134.9,233.5z"/>
</g>
<g>
	<path class="st7" d="M134.9,218.6v-1.2h4.5v3.9c-0.7,0.5-1.4,1-2.1,1.2c-0.7,0.3-1.5,0.4-2.2,0.4c-1,0-2-0.2-2.8-0.7
		c-0.8-0.4-1.5-1.1-1.9-1.9c-0.4-0.8-0.6-1.8-0.6-2.8c0-1,0.2-2,0.6-2.9c0.4-0.9,1-1.6,1.9-2c0.8-0.4,1.7-0.6,2.8-0.6
		c0.8,0,1.5,0.1,2.1,0.4c0.6,0.2,1.1,0.6,1.5,1c0.4,0.4,0.6,1,0.8,1.7l-1.3,0.3c-0.2-0.5-0.4-1-0.6-1.3c-0.2-0.3-0.6-0.6-1-0.7
		c-0.4-0.2-0.9-0.3-1.5-0.3c-0.6,0-1.2,0.1-1.7,0.3c-0.5,0.2-0.8,0.5-1.1,0.8c-0.3,0.3-0.5,0.7-0.7,1c-0.3,0.7-0.4,1.4-0.4,2.1
		c0,0.9,0.2,1.7,0.5,2.4c0.3,0.6,0.8,1.1,1.4,1.4c0.6,0.3,1.3,0.5,2,0.5c0.6,0,1.2-0.1,1.8-0.4c0.6-0.2,1-0.5,1.3-0.7v-2
		L134.9,218.6L134.9,218.6z"/>
</g>
<g>
	<path class="st7" d="M134.9,203.8v-1.2h4.5v3.9c-0.7,0.5-1.4,1-2.1,1.2c-0.7,0.3-1.5,0.4-2.2,0.4c-1,0-2-0.2-2.8-0.7
		s-1.5-1.1-1.9-1.9c-0.4-0.8-0.6-1.8-0.6-2.8c0-1,0.2-2,0.6-2.9c0.4-0.9,1-1.6,1.9-2c0.8-0.4,1.7-0.6,2.8-0.6c0.8,0,1.5,0.1,2.1,0.4
		c0.6,0.2,1.1,0.6,1.5,1c0.4,0.4,0.6,1,0.8,1.7l-1.3,0.3c-0.2-0.5-0.4-1-0.6-1.3c-0.2-0.3-0.6-0.6-1-0.7c-0.4-0.2-0.9-0.3-1.5-0.3
		c-0.6,0-1.2,0.1-1.7,0.3c-0.5,0.2-0.8,0.5-1.1,0.8c-0.3,0.3-0.5,0.7-0.7,1c-0.3,0.7-0.4,1.4-0.4,2.1c0,0.9,0.2,1.7,0.5,2.4
		c0.3,0.6,0.8,1.1,1.4,1.4c0.6,0.3,1.3,0.5,2,0.5c0.6,0,1.2-0.1,1.8-0.4c0.6-0.2,1-0.5,1.3-0.7v-2L134.9,203.8L134.9,203.8z"/>
</g>
<g>
	<path class="st2" d="M125.4,193.7l4.1-10.6h1.5l4.3,10.6h-1.6l-1.2-3.2H128l-1.1,3.2H125.4z M128.4,189.4h3.6l-1.1-2.9
		c-0.3-0.9-0.6-1.6-0.8-2.2c-0.1,0.7-0.3,1.4-0.6,2L128.4,189.4z"/>
</g>
<g>
	<path class="st7" d="M142.5,178l1.4,0.4c-0.3,1.1-0.8,2-1.6,2.6c-0.8,0.6-1.7,0.9-2.8,0.9c-1.1,0-2.1-0.2-2.8-0.7s-1.3-1.1-1.6-2
		s-0.6-1.8-0.6-2.8c0-1.1,0.2-2.1,0.6-2.9c0.4-0.8,1-1.4,1.8-1.9c0.8-0.4,1.6-0.6,2.6-0.6c1.1,0,1.9,0.3,2.7,0.8
		c0.7,0.5,1.2,1.3,1.5,2.3l-1.4,0.3c-0.2-0.8-0.6-1.3-1.1-1.7s-1-0.5-1.8-0.5c-0.8,0-1.5,0.2-2,0.6c-0.5,0.4-0.9,0.9-1.1,1.6
		s-0.3,1.3-0.3,2c0,0.9,0.1,1.7,0.4,2.3c0.3,0.7,0.7,1.2,1.2,1.5c0.6,0.3,1.1,0.5,1.8,0.5c0.8,0,1.4-0.2,2-0.7
		C142,179.6,142.3,178.9,142.5,178z"/>
</g>
<g>
	<path class="st7" d="M154.4,177.6v-1.2h4.5v3.9c-0.7,0.5-1.4,1-2.1,1.2c-0.7,0.3-1.5,0.4-2.2,0.4c-1,0-2-0.2-2.8-0.7
		s-1.5-1.1-1.9-1.9c-0.4-0.8-0.6-1.8-0.6-2.8c0-1,0.2-2,0.6-2.9c0.4-0.9,1-1.6,1.9-2c0.8-0.4,1.7-0.6,2.8-0.6c0.8,0,1.5,0.1,2.1,0.4
		c0.6,0.2,1.1,0.6,1.5,1s0.6,1,0.8,1.7l-1.3,0.3c-0.2-0.5-0.4-1-0.6-1.3c-0.2-0.3-0.6-0.6-1-0.7c-0.4-0.2-0.9-0.3-1.5-0.3
		c-0.6,0-1.2,0.1-1.7,0.3c-0.5,0.2-0.8,0.5-1.1,0.8c-0.3,0.3-0.5,0.7-0.7,1c-0.3,0.7-0.4,1.4-0.4,2.1c0,0.9,0.2,1.7,0.5,2.4
		c0.3,0.6,0.8,1.1,1.4,1.4c0.6,0.3,1.3,0.5,2,0.5c0.6,0,1.2-0.1,1.8-0.4c0.6-0.2,1-0.5,1.3-0.7v-2L154.4,177.6L154.4,177.6z"/>
</g>
<g>
	<path class="st7" d="M158.8,193.7v-10.6h4.7c0.9,0,1.7,0.1,2.1,0.3c0.5,0.2,0.9,0.5,1.2,1c0.3,0.5,0.4,1,0.4,1.6
		c0,0.7-0.2,1.4-0.7,1.9c-0.5,0.5-1.2,0.8-2.2,1c0.4,0.2,0.7,0.4,0.8,0.5c0.4,0.4,0.8,0.8,1.2,1.4l1.8,2.9h-1.7l-1.4-2.2
		c-0.4-0.6-0.7-1.1-1-1.5c-0.3-0.3-0.5-0.6-0.7-0.7c-0.2-0.1-0.4-0.2-0.6-0.3c-0.2,0-0.4,0-0.8,0h-1.6v4.7L158.8,193.7L158.8,193.7z
		 M160.2,187.8h3c0.6,0,1.1-0.1,1.5-0.2c0.4-0.1,0.6-0.3,0.8-0.6c0.2-0.3,0.3-0.6,0.3-0.9c0-0.5-0.2-0.9-0.5-1.2
		c-0.4-0.3-0.9-0.5-1.7-0.5h-3.3L160.2,187.8L160.2,187.8z"/>
</g>
<g>
	<path class="st7" d="M162,204.2l1.4,0.4c-0.3,1.1-0.8,2-1.6,2.6c-0.8,0.6-1.7,0.9-2.8,0.9c-1.1,0-2.1-0.2-2.8-0.7
		c-0.7-0.5-1.3-1.1-1.6-2c-0.4-0.9-0.6-1.8-0.6-2.8c0-1.1,0.2-2.1,0.6-2.9c0.4-0.8,1-1.4,1.8-1.9c0.8-0.4,1.6-0.6,2.6-0.6
		c1.1,0,1.9,0.3,2.7,0.8c0.7,0.5,1.2,1.3,1.5,2.3l-1.4,0.3c-0.2-0.8-0.6-1.3-1.1-1.7s-1-0.5-1.8-0.5c-0.8,0-1.5,0.2-2,0.6
		c-0.5,0.4-0.9,0.9-1.1,1.6s-0.3,1.3-0.3,2c0,0.9,0.1,1.7,0.4,2.3c0.3,0.7,0.7,1.2,1.2,1.5c0.6,0.3,1.1,0.5,1.8,0.5
		c0.8,0,1.4-0.2,2-0.7C161.4,205.8,161.8,205.1,162,204.2z"/>
</g>
<g>
	<path class="st7" d="M162,219.1l1.4,0.4c-0.3,1.1-0.8,2-1.6,2.6c-0.8,0.6-1.7,0.9-2.8,0.9c-1.1,0-2.1-0.2-2.8-0.7
		c-0.7-0.5-1.3-1.1-1.6-2c-0.4-0.9-0.6-1.8-0.6-2.8c0-1.1,0.2-2.1,0.6-2.9c0.4-0.8,1-1.4,1.8-1.9c0.8-0.4,1.6-0.6,2.6-0.6
		c1.1,0,1.9,0.3,2.7,0.8c0.7,0.5,1.2,1.3,1.5,2.3l-1.4,0.3c-0.2-0.8-0.6-1.3-1.1-1.7s-1-0.5-1.8-0.5c-0.8,0-1.5,0.2-2,0.6
		c-0.5,0.4-0.9,0.9-1.1,1.6c-0.2,0.7-0.3,1.3-0.3,2c0,0.9,0.1,1.7,0.4,2.3c0.3,0.7,0.7,1.2,1.2,1.5c0.6,0.3,1.1,0.5,1.8,0.5
		c0.8,0,1.4-0.2,2-0.7C161.4,220.6,161.8,220,162,219.1z"/>
</g>
<g>
	<path class="st1" d="M162,234l1.4,0.4c-0.3,1.1-0.8,2-1.6,2.6c-0.8,0.6-1.7,0.9-2.8,0.9c-1.1,0-2.1-0.2-2.8-0.7
		c-0.7-0.5-1.3-1.1-1.6-2c-0.4-0.9-0.6-1.8-0.6-2.8c0-1.1,0.2-2.1,0.6-2.9c0.4-0.8,1-1.4,1.8-1.9c0.8-0.4,1.6-0.6,2.6-0.6
		c1.1,0,1.9,0.3,2.7,0.8c0.7,0.5,1.2,1.3,1.5,2.3l-1.4,0.3c-0.2-0.8-0.6-1.3-1.1-1.7s-1-0.5-1.8-0.5c-0.8,0-1.5,0.2-2,0.6
		c-0.5,0.4-0.9,0.9-1.1,1.6c-0.2,0.7-0.3,1.3-0.3,2c0,0.9,0.1,1.7,0.4,2.3s0.7,1.2,1.2,1.5c0.6,0.3,1.1,0.5,1.8,0.5
		c0.8,0,1.4-0.2,2-0.7C161.4,235.5,161.8,234.8,162,234z"/>
</g>
<circle class="st7" cx="158.7" cy="247.2" r="5"/>
<circle class="st6" cx="158.7" cy="247.2" r="5"/>
<circle class="st5" cx="158.7" cy="262.1" r="5"/>
<circle class="st6" cx="158.7" cy="262.1" r="5"/>
<g>
	<path class="st2" d="M247.7,267.4v-10.6h4.7c0.9,0,1.7,0.1,2.1,0.3c0.5,0.2,0.9,0.5,1.2,1c0.3,0.5,0.4,1,0.4,1.6
		c0,0.7-0.2,1.4-0.7,1.9c-0.5,0.5-1.2,0.8-2.3,1c0.4,0.2,0.7,0.4,0.8,0.5c0.4,0.4,0.8,0.8,1.2,1.4l1.8,2.9h-1.7l-1.4-2.2
		c-0.4-0.6-0.7-1.1-1-1.5c-0.3-0.3-0.5-0.6-0.7-0.7c-0.2-0.1-0.4-0.2-0.6-0.3c-0.2,0-0.4,0-0.8,0h-1.6v4.7L247.7,267.4L247.7,267.4z
		 M249.1,261.5h3c0.6,0,1.1-0.1,1.5-0.2c0.4-0.1,0.6-0.3,0.8-0.6c0.2-0.3,0.3-0.6,0.3-0.9c0-0.5-0.2-0.9-0.5-1.2
		c-0.4-0.3-0.9-0.5-1.7-0.5h-3.3L249.1,261.5L249.1,261.5z"/>
</g>
<g>
	<path class="st2" d="M247.7,252.5V242h4.7c0.9,0,1.7,0.1,2.1,0.3c0.5,0.2,0.9,0.5,1.2,1c0.3,0.5,0.4,1,0.4,1.6
		c0,0.7-0.2,1.4-0.7,1.9c-0.5,0.5-1.2,0.8-2.3,1c0.4,0.2,0.7,0.4,0.8,0.5c0.4,0.4,0.8,0.8,1.2,1.4l1.8,2.9h-1.7l-1.4-2.2
		c-0.4-0.6-0.7-1.1-1-1.5c-0.3-0.3-0.5-0.6-0.7-0.7c-0.2-0.1-0.4-0.2-0.6-0.3c-0.2,0-0.4,0-0.8,0h-1.6v4.7L247.7,252.5L247.7,252.5z
		 M249.1,246.6h3c0.6,0,1.1-0.1,1.5-0.2c0.4-0.1,0.6-0.3,0.8-0.6c0.2-0.3,0.3-0.6,0.3-0.9c0-0.5-0.2-0.9-0.5-1.2
		c-0.4-0.3-0.9-0.5-1.7-0.5h-3.3L249.1,246.6L249.1,246.6z"/>
</g>
<g>
	<path class="st1" d="M247.7,237.7v-10.6h4.7c0.9,0,1.7,0.1,2.1,0.3c0.5,0.2,0.9,0.5,1.2,1c0.3,0.5,0.4,1,0.4,1.6
		c0,0.7-0.2,1.4-0.7,1.9c-0.5,0.5-1.2,0.8-2.3,1c0.4,0.2,0.7,0.4,0.8,0.5c0.4,0.4,0.8,0.8,1.2,1.4l1.8,2.9h-1.7l-1.4-2.2
		c-0.4-0.6-0.7-1.1-1-1.5c-0.3-0.3-0.5-0.6-0.7-0.7c-0.2-0.1-0.4-0.2-0.6-0.3c-0.2,0-0.4,0-0.8,0h-1.6v4.7L247.7,237.7L247.7,237.7z
		 M249.1,231.8h3c0.6,0,1.1-0.1,1.5-0.2c0.4-0.1,0.6-0.3,0.8-0.6c0.2-0.3,0.3-0.6,0.3-0.9c0-0.5-0.2-0.9-0.5-1.2
		c-0.4-0.3-0.9-0.5-1.7-0.5h-3.3L249.1,231.8L249.1,231.8z"/>
</g>
<g>
	<path class="st2" d="M254.6,157h1.4v6.1c0,1.1-0.1,1.9-0.4,2.5s-0.7,1.1-1.3,1.5c-0.6,0.4-1.4,0.6-2.5,0.6c-1,0-1.8-0.2-2.4-0.5
		c-0.6-0.3-1.1-0.8-1.3-1.5c-0.3-0.6-0.4-1.5-0.4-2.6V157h1.4v6.1c0,0.9,0.1,1.6,0.3,2c0.2,0.4,0.5,0.8,0.9,1
		c0.4,0.2,0.9,0.4,1.5,0.4c1,0,1.8-0.2,2.2-0.7c0.4-0.5,0.7-1.4,0.7-2.7L254.6,157L254.6,157z"/>
</g>
<g>
	<path class="st2" d="M252.2,148.6v-1.2h4.5v3.9c-0.7,0.5-1.4,1-2.1,1.2c-0.7,0.3-1.5,0.4-2.2,0.4c-1,0-2-0.2-2.8-0.7
		c-0.8-0.4-1.5-1.1-1.9-1.9c-0.4-0.8-0.6-1.8-0.6-2.8c0-1,0.2-2,0.6-2.9c0.4-0.9,1-1.6,1.9-2c0.8-0.4,1.7-0.6,2.8-0.6
		c0.8,0,1.5,0.1,2.1,0.4c0.6,0.2,1.1,0.6,1.5,1c0.4,0.4,0.6,1,0.8,1.7l-1.3,0.3c-0.2-0.5-0.4-1-0.6-1.3c-0.2-0.3-0.6-0.6-1-0.7
		c-0.4-0.2-0.9-0.3-1.5-0.3c-0.6,0-1.2,0.1-1.7,0.3c-0.5,0.2-0.8,0.5-1.1,0.8c-0.3,0.3-0.5,0.7-0.7,1c-0.3,0.7-0.4,1.4-0.4,2.1
		c0,0.9,0.2,1.7,0.5,2.4c0.3,0.6,0.8,1.1,1.4,1.4c0.6,0.3,1.3,0.5,2,0.5c0.6,0,1.2-0.1,1.8-0.4c0.6-0.2,1-0.5,1.3-0.7v-2
		L252.2,148.6L252.2,148.6z"/>
</g>
<path class="st8" d="M67.6,269.1c0,1.9,1.6,3.5,3.5,3.5h7h45.9h7c1.9,0,3.5-1.6,3.5-3.5"/>
<path class="st8" d="M158.7,269.1c0,1.9,1.6,3.5,3.5,3.5h7h72.1h7c1.9,0,3.5-1.6,3.5-3.5"/>
<polyline class="st8" points="251.8,202.6 251.8,210.1 251.8,192 251.8,184.6 "/>
<path class="st8" d="M43.6,269.1c0,1.9-1.6,3.5-3.5,3.5h-7"/>
<line class="st9" x1="244.5" y1="247.2" x2="236.6" y2="247.2"/>
<line class="st9" x1="244.5" y1="162.3" x2="236.6" y2="162.3"/>
<g>
	<path class="st2" d="M78.9,281.9v-1.2h6.8v1c-0.7,0.7-1.3,1.7-2,2.9c-0.7,1.2-1.2,2.4-1.5,3.7c-0.3,0.9-0.4,1.9-0.5,2.9h-1.3
		c0-0.8,0.2-1.8,0.5-3c0.3-1.2,0.8-2.3,1.3-3.4c0.6-1.1,1.2-2,1.9-2.8L78.9,281.9L78.9,281.9z"/>
	<path class="st2" d="M86.8,287.9v-1.3h4v1.3H86.8z"/>
	<path class="st2" d="M91.9,288.3l1.3-0.2c0.1,0.7,0.4,1.3,0.8,1.6c0.4,0.3,0.8,0.5,1.3,0.5c0.6,0,1.1-0.2,1.5-0.6
		c0.4-0.4,0.6-0.9,0.6-1.6c0-0.6-0.2-1.1-0.6-1.5c-0.4-0.4-0.9-0.6-1.5-0.6c-0.2,0-0.5,0-0.9,0.1l0.1-1.1c0.1,0,0.2,0,0.2,0
		c0.6,0,1-0.1,1.5-0.4c0.4-0.3,0.7-0.7,0.7-1.3c0-0.5-0.2-0.9-0.5-1.2c-0.3-0.3-0.7-0.5-1.2-0.5c-0.5,0-0.9,0.2-1.3,0.5
		c-0.3,0.3-0.6,0.8-0.6,1.4l-1.3-0.2c0.2-0.9,0.5-1.5,1.1-2c0.6-0.5,1.3-0.7,2.1-0.7c0.6,0,1.1,0.1,1.6,0.4c0.5,0.2,0.9,0.6,1.1,1
		c0.3,0.4,0.4,0.9,0.4,1.4c0,0.5-0.1,0.9-0.4,1.2c-0.2,0.4-0.6,0.7-1.1,0.9c0.6,0.1,1.1,0.4,1.5,0.9c0.3,0.5,0.5,1,0.5,1.7
		c0,0.9-0.3,1.7-1,2.3c-0.7,0.6-1.5,1-2.5,1c-0.9,0-1.7-0.3-2.3-0.8C92.3,289.9,92,289.1,91.9,288.3z"/>
	<path class="st2" d="M100.3,288.6l1.2-0.1c0.1,0.6,0.3,1,0.6,1.3c0.3,0.3,0.7,0.4,1.1,0.4c0.4,0,0.7-0.1,1.1-0.3
		c0.3-0.2,0.5-0.4,0.7-0.7c0.2-0.3,0.4-0.7,0.5-1.2c0.1-0.5,0.2-1,0.2-1.6c0-0.1,0-0.1,0-0.3c-0.3,0.4-0.6,0.7-1.1,1
		c-0.5,0.3-0.9,0.4-1.5,0.4c-0.9,0-1.6-0.3-2.2-0.9c-0.6-0.6-0.9-1.5-0.9-2.5c0-1.1,0.3-1.9,0.9-2.6c0.6-0.7,1.4-1,2.4-1
		c0.7,0,1.3,0.2,1.9,0.6c0.6,0.4,1,0.9,1.3,1.6c0.3,0.7,0.4,1.7,0.4,3c0,1.3-0.1,2.4-0.4,3.2c-0.3,0.8-0.7,1.4-1.3,1.8
		s-1.3,0.6-2,0.6c-0.8,0-1.5-0.2-2-0.7C100.7,290.1,100.4,289.4,100.3,288.6z M105.6,284c0-0.7-0.2-1.3-0.6-1.8
		c-0.4-0.4-0.9-0.7-1.4-0.7c-0.6,0-1.1,0.2-1.5,0.7c-0.4,0.5-0.6,1.1-0.6,1.8c0,0.7,0.2,1.2,0.6,1.6c0.4,0.4,0.9,0.6,1.5,0.6
		c0.6,0,1.1-0.2,1.5-0.6C105.4,285.3,105.6,284.7,105.6,284z"/>
	<path class="st2" d="M112.7,291.1v-7.7h1.2v1.1c0.6-0.8,1.4-1.3,2.4-1.3c0.5,0,0.9,0.1,1.3,0.2c0.4,0.2,0.7,0.4,0.9,0.7
		s0.3,0.6,0.4,1c0,0.2,0.1,0.7,0.1,1.3v4.7h-1.3v-4.7c0-0.5-0.1-0.9-0.2-1.2c-0.1-0.3-0.3-0.5-0.5-0.6c-0.3-0.2-0.6-0.2-0.9-0.2
		c-0.6,0-1,0.2-1.4,0.5c-0.4,0.4-0.6,1-0.6,2v4.2L112.7,291.1L112.7,291.1z"/>
	<path class="st2" d="M123.8,289.9l0.2,1.1c-0.4,0.1-0.7,0.1-1,0.1c-0.5,0-0.8-0.1-1.1-0.2c-0.3-0.1-0.4-0.3-0.5-0.6
		s-0.2-0.8-0.2-1.5v-4.4h-1v-1h1v-1.9l1.3-0.8v2.7h1.3v1h-1.3v4.5c0,0.4,0,0.6,0.1,0.7c0,0.1,0.1,0.2,0.2,0.3
		c0.1,0.1,0.3,0.1,0.5,0.1C123.4,290,123.6,290,123.8,289.9z"/>
</g>
<g>
	<path class="st2" d="M174.7,291.1h-1.3v-8.2c-0.3,0.3-0.7,0.6-1.2,0.9c-0.5,0.3-1,0.5-1.4,0.7v-1.3c0.7-0.3,1.4-0.8,1.9-1.2
		c0.5-0.5,0.9-1,1.2-1.4h0.8L174.7,291.1L174.7,291.1z"/>
	<path class="st2" d="M177.8,287.9v-1.3h4v1.3H177.8z"/>
	<path class="st2" d="M189.7,289.8v1.2h-7c0-0.3,0-0.6,0.2-0.9c0.2-0.5,0.5-0.9,0.9-1.4c0.4-0.5,1-1,1.7-1.6
		c1.1-0.9,1.9-1.7,2.3-2.2c0.4-0.5,0.6-1.1,0.6-1.6c0-0.5-0.2-0.9-0.6-1.3c-0.4-0.4-0.8-0.5-1.4-0.5c-0.6,0-1.1,0.2-1.5,0.6
		c-0.4,0.4-0.6,0.9-0.6,1.6l-1.3-0.1c0.1-1,0.4-1.8,1-2.3c0.6-0.5,1.4-0.8,2.4-0.8c1,0,1.8,0.3,2.4,0.8c0.6,0.6,0.9,1.3,0.9,2.1
		c0,0.4-0.1,0.8-0.3,1.2c-0.2,0.4-0.5,0.8-0.9,1.3c-0.4,0.5-1.1,1.1-2,1.9c-0.8,0.7-1.3,1.1-1.5,1.3s-0.4,0.5-0.5,0.7L189.7,289.8
		L189.7,289.8z"/>
	<path class="st2" d="M197.9,289.8v1.2h-7c0-0.3,0-0.6,0.2-0.9c0.2-0.5,0.5-0.9,0.9-1.4c0.4-0.5,1-1,1.7-1.6
		c1.1-0.9,1.9-1.7,2.3-2.2c0.4-0.5,0.6-1.1,0.6-1.6c0-0.5-0.2-0.9-0.6-1.3c-0.4-0.4-0.8-0.5-1.4-0.5c-0.6,0-1.1,0.2-1.5,0.6
		s-0.6,0.9-0.6,1.6l-1.3-0.1c0.1-1,0.4-1.8,1-2.3c0.6-0.5,1.4-0.8,2.4-0.8c1,0,1.8,0.3,2.4,0.8c0.6,0.6,0.9,1.3,0.9,2.1
		c0,0.4-0.1,0.8-0.3,1.2c-0.2,0.4-0.5,0.8-0.9,1.3c-0.4,0.5-1.1,1.1-2,1.9c-0.8,0.7-1.3,1.1-1.5,1.3c-0.2,0.2-0.4,0.5-0.5,0.7
		L197.9,289.8L197.9,289.8z"/>
	<path class="st2" d="M201.3,285.4c-0.5-0.2-0.9-0.5-1.2-0.8c-0.3-0.4-0.4-0.8-0.4-1.3c0-0.8,0.3-1.4,0.8-1.9
		c0.6-0.5,1.3-0.8,2.2-0.8c0.9,0,1.7,0.3,2.2,0.8c0.6,0.5,0.8,1.2,0.8,1.9c0,0.5-0.1,0.9-0.4,1.3c-0.3,0.4-0.6,0.6-1.2,0.8
		c0.6,0.2,1.1,0.6,1.5,1c0.3,0.5,0.5,1,0.5,1.7c0,0.9-0.3,1.7-1,2.3c-0.6,0.6-1.5,0.9-2.5,0.9s-1.9-0.3-2.5-0.9
		c-0.6-0.6-1-1.4-1-2.3c0-0.7,0.2-1.3,0.5-1.7C200.2,285.8,200.7,285.5,201.3,285.4z M200.6,288c0,0.4,0.1,0.7,0.3,1.1
		c0.2,0.3,0.4,0.6,0.8,0.8c0.3,0.2,0.7,0.3,1.1,0.3c0.6,0,1.1-0.2,1.5-0.6c0.4-0.4,0.6-0.9,0.6-1.5c0-0.6-0.2-1.1-0.6-1.5
		c-0.4-0.4-0.9-0.6-1.6-0.6c-0.6,0-1.1,0.2-1.5,0.6C200.8,286.9,200.6,287.4,200.6,288z M201.1,283.2c0,0.5,0.2,0.9,0.5,1.2
		c0.3,0.3,0.7,0.5,1.3,0.5c0.5,0,0.9-0.2,1.2-0.5c0.3-0.3,0.5-0.7,0.5-1.2c0-0.5-0.2-0.9-0.5-1.2c-0.3-0.3-0.7-0.5-1.2-0.5
		c-0.5,0-0.9,0.2-1.2,0.5C201.2,282.3,201.1,282.7,201.1,283.2z"/>
	<path class="st2" d="M212,291.1v-7.7h1.2v1.1c0.6-0.8,1.4-1.3,2.4-1.3c0.5,0,0.9,0.1,1.3,0.2c0.4,0.2,0.7,0.4,0.9,0.7
		s0.3,0.6,0.4,1c0,0.2,0.1,0.7,0.1,1.3v4.7h-1.3v-4.7c0-0.5,0-0.9-0.2-1.2c-0.1-0.3-0.3-0.5-0.5-0.6c-0.3-0.2-0.6-0.2-0.9-0.2
		c-0.6,0-1,0.2-1.4,0.5c-0.4,0.4-0.6,1-0.6,2v4.2L212,291.1L212,291.1z"/>
	<path class="st2" d="M223,289.9l0.2,1.1c-0.4,0.1-0.7,0.1-1,0.1c-0.5,0-0.8-0.1-1.1-0.2c-0.3-0.1-0.4-0.3-0.5-0.6
		c-0.1-0.2-0.2-0.8-0.2-1.5v-4.4h-1v-1h1v-1.9l1.3-0.8v2.7h1.3v1h-1.3v4.5c0,0.4,0,0.6,0.1,0.7s0.1,0.2,0.2,0.3
		c0.1,0.1,0.3,0.1,0.5,0.1C222.6,290,222.8,290,223,289.9z"/>
</g>
<g>
	<path class="st2" d="M217.8,248.8l1.1-0.1c0,0.4,0.2,0.8,0.3,1c0.2,0.3,0.5,0.5,0.8,0.7c0.4,0.2,0.8,0.3,1.3,0.3
		c0.4,0,0.8-0.1,1.1-0.2c0.3-0.1,0.6-0.3,0.7-0.5c0.2-0.2,0.2-0.5,0.2-0.7c0-0.3-0.1-0.5-0.2-0.7c-0.2-0.2-0.4-0.4-0.8-0.5
		c-0.2-0.1-0.7-0.2-1.5-0.4c-0.8-0.2-1.3-0.4-1.6-0.5c-0.4-0.2-0.7-0.5-0.9-0.8c-0.2-0.3-0.3-0.7-0.3-1.1c0-0.4,0.1-0.8,0.4-1.2
		c0.2-0.4,0.6-0.7,1.1-0.8c0.5-0.2,1-0.3,1.5-0.3c0.6,0,1.2,0.1,1.6,0.3c0.5,0.2,0.8,0.5,1.1,0.9s0.4,0.8,0.4,1.3l-1.1,0.1
		c-0.1-0.5-0.2-0.9-0.6-1.2c-0.3-0.3-0.8-0.4-1.5-0.4c-0.7,0-1.2,0.1-1.5,0.4c-0.3,0.2-0.5,0.5-0.5,0.9c0,0.3,0.1,0.6,0.3,0.7
		c0.2,0.2,0.8,0.4,1.7,0.6c0.9,0.2,1.5,0.4,1.9,0.5c0.5,0.2,0.9,0.5,1.1,0.9c0.2,0.3,0.4,0.7,0.4,1.2c0,0.5-0.1,0.9-0.4,1.3
		c-0.3,0.4-0.6,0.7-1.1,0.9s-1,0.3-1.6,0.3c-0.8,0-1.4-0.1-1.9-0.3c-0.5-0.2-0.9-0.6-1.2-1C218,249.8,217.8,249.3,217.8,248.8z"/>
	<path class="st2" d="M226,251.5V243h2.9c0.7,0,1.2,0,1.5,0.1c0.5,0.1,0.9,0.3,1.2,0.6c0.4,0.4,0.8,0.9,1,1.4c0.2,0.6,0.3,1.3,0.3,2
		c0,0.6-0.1,1.2-0.2,1.7c-0.1,0.5-0.3,0.9-0.6,1.2c-0.2,0.3-0.5,0.6-0.8,0.8c-0.3,0.2-0.6,0.3-1,0.4c-0.4,0.1-0.8,0.1-1.4,0.1H226z
		 M227.2,250.5h1.8c0.6,0,1-0.1,1.3-0.2c0.3-0.1,0.6-0.2,0.8-0.4c0.3-0.3,0.5-0.6,0.6-1.1c0.1-0.5,0.2-1,0.2-1.6
		c0-0.9-0.1-1.6-0.4-2c-0.3-0.5-0.6-0.8-1.1-1c-0.3-0.1-0.8-0.2-1.4-0.2h-1.8V250.5z"/>
</g>
<g>
	<path class="st2" d="M203,195.5c0-1.2,0.1-2.2,0.4-3c0.3-0.8,0.6-1.3,1.1-1.8c0.5-0.4,1.1-0.6,1.9-0.6c0.6,0,1.1,0.1,1.5,0.3
		c0.4,0.2,0.8,0.6,1.1,1c0.3,0.4,0.5,0.9,0.7,1.6c0.2,0.6,0.2,1.4,0.2,2.5c0,1.2-0.1,2.2-0.4,3c-0.3,0.8-0.6,1.3-1.1,1.8
		c-0.5,0.4-1.1,0.6-1.9,0.6c-1,0-1.8-0.4-2.4-1.1C203.3,198.9,203,197.4,203,195.5z M204.3,195.5c0,1.7,0.2,2.9,0.6,3.5
		s0.9,0.9,1.5,0.9s1.1-0.3,1.5-0.9c0.4-0.6,0.6-1.7,0.6-3.5c0-1.7-0.2-2.9-0.6-3.5s-0.9-0.9-1.5-0.9c-0.6,0-1.1,0.3-1.4,0.8
		C204.5,192.5,204.3,193.7,204.3,195.5z"/>
	<path class="st2" d="M211,197.5v-1.3h4v1.3H211z"/>
	<path class="st2" d="M221,200.7h-1.3v-8.2c-0.3,0.3-0.7,0.6-1.2,0.9c-0.5,0.3-1,0.5-1.4,0.7v-1.3c0.7-0.3,1.4-0.8,1.9-1.2
		c0.5-0.5,0.9-1,1.2-1.4h0.8L221,200.7L221,200.7z"/>
	<path class="st2" d="M224.3,195.5c0-1.2,0.1-2.2,0.4-3c0.3-0.8,0.6-1.3,1.1-1.8c0.5-0.4,1.1-0.6,1.9-0.6c0.6,0,1.1,0.1,1.5,0.3
		c0.4,0.2,0.8,0.6,1.1,1c0.3,0.4,0.5,0.9,0.7,1.6c0.2,0.6,0.2,1.4,0.2,2.5c0,1.2-0.1,2.2-0.4,3c-0.3,0.8-0.6,1.3-1.1,1.8
		c-0.5,0.4-1.1,0.6-1.9,0.6c-1,0-1.8-0.4-2.4-1.1C224.6,198.9,224.3,197.4,224.3,195.5z M225.6,195.5c0,1.7,0.2,2.9,0.6,3.5
		s0.9,0.9,1.5,0.9c0.6,0,1.1-0.3,1.5-0.9c0.4-0.6,0.6-1.7,0.6-3.5c0-1.7-0.2-2.9-0.6-3.5s-0.9-0.9-1.5-0.9c-0.6,0-1.1,0.3-1.4,0.8
		C225.8,192.5,225.6,193.7,225.6,195.5z"/>
	<path class="st2" d="M236.9,200.7V193h1.2v1.1c0.6-0.8,1.4-1.3,2.4-1.3c0.5,0,0.9,0.1,1.3,0.2c0.4,0.2,0.7,0.4,0.9,0.7
		c0.2,0.3,0.3,0.6,0.4,1c0,0.2,0.1,0.7,0.1,1.3v4.7h-1.3V196c0-0.5,0-0.9-0.2-1.2s-0.3-0.5-0.5-0.6c-0.3-0.2-0.6-0.2-0.9-0.2
		c-0.6,0-1,0.2-1.4,0.5c-0.4,0.4-0.6,1-0.6,2v4.2H236.9z"/>
	<path class="st2" d="M248,199.5l0.2,1.1c-0.4,0.1-0.7,0.1-1,0.1c-0.5,0-0.8-0.1-1.1-0.2c-0.3-0.1-0.4-0.3-0.5-0.6
		c-0.1-0.2-0.2-0.8-0.2-1.5V194h-1v-1h1v-1.9l1.3-0.8v2.7h1.3v1h-1.3v4.5c0,0.4,0,0.6,0.1,0.7s0.1,0.2,0.2,0.3
		c0.1,0.1,0.3,0.1,0.5,0.1C247.5,199.6,247.7,199.5,248,199.5z"/>
</g>
<g>
	<path class="st2" d="M211.1,164.7l1-0.2c0.1,0.4,0.2,0.7,0.5,0.9c0.3,0.2,0.6,0.3,1.1,0.3c0.5,0,0.8-0.1,1.1-0.3
		c0.2-0.2,0.3-0.4,0.3-0.7c0-0.2-0.1-0.4-0.3-0.6c-0.1-0.1-0.5-0.2-1.1-0.4c-0.8-0.2-1.3-0.4-1.6-0.5c-0.3-0.1-0.5-0.3-0.7-0.6
		c-0.2-0.2-0.2-0.5-0.2-0.8c0-0.3,0.1-0.5,0.2-0.8c0.1-0.2,0.3-0.4,0.5-0.6c0.2-0.1,0.4-0.2,0.7-0.3c0.3-0.1,0.6-0.1,0.9-0.1
		c0.5,0,0.9,0.1,1.3,0.2c0.4,0.1,0.6,0.3,0.8,0.6c0.2,0.2,0.3,0.6,0.4,0.9l-1,0.1c0-0.3-0.2-0.6-0.4-0.7c-0.2-0.2-0.5-0.3-0.9-0.3
		c-0.5,0-0.8,0.1-1,0.2s-0.3,0.3-0.3,0.6c0,0.1,0,0.3,0.1,0.4c0.1,0.1,0.2,0.2,0.4,0.3c0.1,0,0.4,0.1,0.9,0.3
		c0.7,0.2,1.2,0.4,1.5,0.5c0.3,0.1,0.5,0.3,0.7,0.5c0.2,0.2,0.2,0.5,0.2,0.9c0,0.3-0.1,0.7-0.3,1c-0.2,0.3-0.5,0.5-0.9,0.7
		c-0.4,0.2-0.8,0.3-1.3,0.3c-0.8,0-1.4-0.2-1.8-0.5C211.4,165.8,211.2,165.4,211.1,164.7z"/>
	<path class="st2" d="M219.6,165.6l0.1,0.9c-0.3,0.1-0.6,0.1-0.8,0.1c-0.4,0-0.7-0.1-0.9-0.2c-0.2-0.1-0.4-0.3-0.4-0.5
		c-0.1-0.2-0.1-0.6-0.1-1.2v-3.5h-0.8v-0.8h0.8v-1.5l1-0.6v2.1h1v0.8h-1v3.6c0,0.3,0,0.5,0.1,0.6c0,0.1,0.1,0.2,0.2,0.2
		c0.1,0.1,0.2,0.1,0.4,0.1C219.3,165.6,219.4,165.6,219.6,165.6z"/>
	<path class="st2" d="M224.6,165.8c-0.4,0.3-0.7,0.6-1.1,0.7c-0.4,0.1-0.7,0.2-1.1,0.2c-0.7,0-1.2-0.2-1.6-0.5
		c-0.4-0.3-0.5-0.7-0.5-1.3c0-0.3,0.1-0.6,0.2-0.8c0.1-0.2,0.3-0.4,0.5-0.6s0.5-0.3,0.7-0.3c0.2-0.1,0.5-0.1,0.9-0.2
		c0.8-0.1,1.5-0.2,1.9-0.4c0-0.1,0-0.2,0-0.3c0-0.4-0.1-0.7-0.3-0.9c-0.3-0.2-0.7-0.4-1.2-0.4c-0.5,0-0.8,0.1-1.1,0.3
		c-0.2,0.2-0.4,0.5-0.5,0.9l-1-0.1c0.1-0.4,0.2-0.8,0.5-1.1c0.2-0.3,0.5-0.5,0.9-0.6c0.4-0.1,0.9-0.2,1.4-0.2c0.5,0,0.9,0.1,1.3,0.2
		s0.6,0.3,0.7,0.5c0.2,0.2,0.3,0.4,0.3,0.7c0,0.2,0.1,0.5,0.1,1v1.4c0,1,0,1.6,0.1,1.8c0,0.3,0.1,0.5,0.3,0.7h-1.1
		C224.7,166.3,224.7,166.1,224.6,165.8z M224.5,163.5c-0.4,0.2-0.9,0.3-1.7,0.4c-0.4,0.1-0.7,0.1-0.9,0.2c-0.2,0.1-0.3,0.2-0.4,0.3
		c-0.1,0.1-0.1,0.3-0.1,0.5c0,0.3,0.1,0.5,0.3,0.7s0.5,0.3,0.9,0.3c0.4,0,0.8-0.1,1.1-0.3c0.3-0.2,0.5-0.4,0.7-0.7
		c0.1-0.2,0.2-0.6,0.2-1L224.5,163.5z"/>
	<path class="st2" d="M227.2,166.5v-6.1h0.9v0.9c0.2-0.4,0.5-0.7,0.7-0.9c0.2-0.1,0.4-0.2,0.7-0.2c0.4,0,0.7,0.1,1.1,0.3l-0.4,1
		c-0.3-0.1-0.5-0.2-0.8-0.2c-0.2,0-0.4,0.1-0.6,0.2c-0.2,0.1-0.3,0.3-0.4,0.6c-0.1,0.4-0.2,0.8-0.2,1.2v3.2H227.2z"/>
	<path class="st2" d="M233.4,165.6l0.1,0.9c-0.3,0.1-0.6,0.1-0.8,0.1c-0.4,0-0.7-0.1-0.9-0.2c-0.2-0.1-0.4-0.3-0.4-0.5
		c-0.1-0.2-0.1-0.6-0.1-1.2v-3.5h-0.8v-0.8h0.8v-1.5l1-0.6v2.1h1v0.8h-1v3.6c0,0.3,0,0.5,0.1,0.6c0,0.1,0.1,0.2,0.2,0.2
		c0.1,0.1,0.2,0.1,0.4,0.1C233.1,165.6,233.2,165.6,233.4,165.6z"/>
</g>
<g>
	<path class="st2" d="M19.7,275.1l1.4-0.1c0.1,0.7,0.3,1.2,0.7,1.5c0.4,0.3,0.8,0.5,1.3,0.5c0.6,0,1.2-0.2,1.6-0.7
		c0.4-0.5,0.6-1.1,0.6-1.9c0-0.7-0.2-1.3-0.6-1.7c-0.4-0.4-1-0.6-1.6-0.6c-0.4,0-0.8,0.1-1.1,0.3c-0.3,0.2-0.6,0.4-0.8,0.7l-1.2-0.2
		l1-5.4h5.3v1.2H22l-0.6,2.8c0.6-0.4,1.3-0.7,2-0.7c0.9,0,1.7,0.3,2.3,1c0.6,0.6,1,1.5,1,2.5c0,1-0.3,1.8-0.8,2.5
		c-0.7,0.9-1.6,1.3-2.8,1.3c-1,0-1.7-0.3-2.4-0.8C20.1,276.7,19.8,276,19.7,275.1z"/>
	<path class="st2" d="M28.9,269.3l1-2h1.7l-1.6,2H28.9z"/>
</g>
<text transform="matrix(1 0 0 1 23.2075 74.9194)" class="st2 st10 st11">Guanidine-II riboswitch</text>
<g>
	<path class="st12" d="M280.9,224c0.2,0,0.3,0,0.6,0c0.4-0.1,0.8-0.2,1.1-0.5c0.4-0.3,0.6-0.8,0.7-1.5l0,0c-0.3,0.4-0.7,0.6-1.3,0.6
		c-1,0-1.6-0.8-1.6-1.7c0-1.1,0.7-2,1.8-2s1.8,0.9,1.8,2.4c0,1.2-0.4,2.1-0.9,2.6c-0.4,0.4-1,0.7-1.6,0.8c-0.3,0-0.5,0.1-0.7,0
		L280.9,224L280.9,224z M282.2,219.4c-0.6,0-1,0.6-1,1.4c0,0.7,0.4,1.2,1,1.2c0.5,0,0.9-0.3,1.1-0.6c0-0.1,0.1-0.2,0.1-0.3
		C283.3,220.1,283,219.4,282.2,219.4L282.2,219.4z"/>
	<path class="st12" d="M286.4,224.6c-1,0-1.8-1-1.8-2.9s0.8-2.9,1.9-2.9s1.8,1.1,1.8,2.8C288.3,223.5,287.6,224.6,286.4,224.6
		L286.4,224.6z M286.5,224c0.7,0,1.1-0.9,1.1-2.3s-0.3-2.3-1.1-2.3c-0.7,0-1.1,0.9-1.1,2.3S285.8,224,286.5,224L286.5,224z"/>
	<path class="st12" d="M290.1,218.8c0.7,0,1.2,0.6,1.2,1.7c0,1.2-0.6,1.8-1.3,1.8c-0.7,0-1.2-0.6-1.3-1.7
		C288.8,219.4,289.4,218.8,290.1,218.8L290.1,218.8L290.1,218.8z M290.1,219.2c-0.4,0-0.7,0.6-0.7,1.3s0.2,1.3,0.7,1.3
		s0.7-0.5,0.7-1.3C290.8,219.8,290.6,219.2,290.1,219.2L290.1,219.2z M290,224.6l3.2-5.8h0.5l-3.2,5.8H290z M293.6,221.1
		c0.7,0,1.2,0.6,1.2,1.7c0,1.2-0.6,1.8-1.3,1.8c-0.7,0-1.2-0.6-1.3-1.7C292.3,221.7,292.9,221.1,293.6,221.1L293.6,221.1
		L293.6,221.1z M293.6,221.6c-0.4,0-0.7,0.6-0.7,1.3s0.2,1.3,0.7,1.3s0.7-0.5,0.7-1.3S294.1,221.6,293.6,221.6L293.6,221.6z"/>
</g>
<path class="st13" d="M277.7,222c0,1.3-1.1,2.4-2.4,2.4s-2.4-1.1-2.4-2.4s1.1-2.4,2.4-2.4C276.7,219.5,277.7,220.6,277.7,222"/>
<circle class="st14" cx="275.3" cy="222" r="2.4"/>
<g>
	<path class="st12" d="M280.9,215.4c0.2,0,0.3,0,0.6,0c0.4-0.1,0.8-0.2,1.1-0.5c0.4-0.3,0.6-0.8,0.7-1.5l0,0
		c-0.3,0.4-0.7,0.6-1.3,0.6c-1,0-1.6-0.8-1.6-1.7c0-1.1,0.7-2,1.8-2s1.8,0.9,1.8,2.4c0,1.2-0.4,2.1-0.9,2.6c-0.4,0.4-1,0.7-1.6,0.8
		c-0.3,0-0.5,0.1-0.7,0L280.9,215.4L280.9,215.4z M282.2,210.8c-0.6,0-1,0.6-1,1.4c0,0.7,0.4,1.2,1,1.2c0.5,0,0.9-0.3,1.1-0.6
		c0-0.1,0.1-0.2,0.1-0.3C283.3,211.5,283,210.8,282.2,210.8L282.2,210.8z"/>
	<path class="st12" d="M288.2,210.3v0.5l-2.3,5.1h-0.7l2.3-5l0,0h-2.6v-0.6H288.2L288.2,210.3z"/>
	<path class="st12" d="M290.1,210.2c0.7,0,1.2,0.6,1.2,1.7c0,1.2-0.6,1.8-1.3,1.8c-0.7,0-1.2-0.6-1.3-1.7
		C288.8,210.9,289.4,210.2,290.1,210.2L290.1,210.2L290.1,210.2z M290.1,210.7c-0.4,0-0.7,0.6-0.7,1.3s0.2,1.3,0.7,1.3
		s0.7-0.5,0.7-1.3S290.6,210.7,290.1,210.7L290.1,210.7z M290,216l3.2-5.8h0.5l-3.2,5.8H290z M293.6,212.5c0.7,0,1.2,0.6,1.2,1.7
		c0,1.2-0.6,1.8-1.3,1.8c-0.7,0-1.2-0.6-1.3-1.7C292.3,213.2,292.9,212.5,293.6,212.5L293.6,212.5L293.6,212.5z M293.6,213
		c-0.4,0-0.7,0.6-0.7,1.3s0.2,1.3,0.7,1.3s0.7-0.5,0.7-1.3C294.3,213.6,294.1,213,293.6,213L293.6,213z"/>
</g>
<path class="st15" d="M277.7,213.4c0,1.3-1.1,2.4-2.4,2.4s-2.4-1.1-2.4-2.4s1.1-2.4,2.4-2.4C276.6,211,277.7,212.1,277.7,213.4"/>
<circle class="st14" cx="275.3" cy="213.4" r="2.4"/>
<g>
	<path class="st12" d="M313.2,210.3v0.5l-2.3,5.1h-0.7l2.3-5l0,0h-2.6v-0.6H313.2L313.2,210.3z"/>
	<path class="st12" d="M317.1,211h-2l-0.2,1.4c0.1,0,0.2,0,0.4,0c0.4,0,0.8,0.1,1.2,0.3c0.4,0.2,0.8,0.7,0.8,1.5
		c0,1.1-0.8,1.9-2,1.9c-0.6,0-1.1-0.2-1.3-0.3l0.2-0.6c0.2,0.1,0.7,0.3,1.2,0.3c0.7,0,1.3-0.5,1.3-1.2s-0.5-1.3-1.5-1.3
		c-0.3,0-0.6,0-0.7,0.1l0.3-2.7h2.6L317.1,211L317.1,211z"/>
	<path class="st12" d="M319.3,210.2c0.7,0,1.2,0.6,1.2,1.7c0,1.2-0.6,1.8-1.3,1.8s-1.2-0.6-1.3-1.7
		C318,210.9,318.6,210.2,319.3,210.2L319.3,210.2L319.3,210.2z M319.3,210.7c-0.4,0-0.7,0.6-0.7,1.3s0.2,1.3,0.7,1.3
		s0.7-0.5,0.7-1.3S319.8,210.7,319.3,210.7L319.3,210.7z M319.2,216l3.2-5.8h0.5l-3.2,5.8H319.2z M322.8,212.5
		c0.7,0,1.2,0.6,1.2,1.7c0,1.2-0.6,1.8-1.3,1.8s-1.2-0.6-1.3-1.7C321.5,213.2,322.1,212.5,322.8,212.5L322.8,212.5L322.8,212.5z
		 M322.8,213c-0.4,0-0.7,0.6-0.7,1.3s0.2,1.3,0.7,1.3s0.7-0.5,0.7-1.3C323.5,213.6,323.3,213,322.8,213L322.8,213z"/>
</g>
<path class="st16" d="M306.9,213.4c0,1.3-1.1,2.4-2.4,2.4s-2.4-1.1-2.4-2.4s1.1-2.4,2.4-2.4C305.8,211,306.9,212.1,306.9,213.4"/>
<circle class="st14" cx="304.5" cy="213.4" r="2.4"/>
<g>
	<path class="st12" d="M312.9,219.5h-2l-0.2,1.4c0.1,0,0.2,0,0.4,0c0.4,0,0.8,0.1,1.2,0.3c0.4,0.2,0.8,0.7,0.8,1.5
		c0,1.1-0.8,1.9-2,1.9c-0.6,0-1.1-0.2-1.3-0.3l0.2-0.6c0.2,0.1,0.7,0.3,1.2,0.3c0.7,0,1.3-0.5,1.3-1.2s-0.5-1.3-1.5-1.3
		c-0.3,0-0.6,0-0.7,0.1l0.3-2.7h2.6L312.9,219.5L312.9,219.5z"/>
	<path class="st12" d="M315.6,224.6c-1,0-1.8-1-1.8-2.9s0.8-2.9,1.9-2.9s1.8,1.1,1.8,2.8C317.5,223.5,316.8,224.6,315.6,224.6
		L315.6,224.6z M315.7,224c0.7,0,1.1-0.9,1.1-2.3s-0.3-2.3-1.1-2.3c-0.7,0-1.1,0.9-1.1,2.3C314.5,223.1,315,224,315.7,224L315.7,224
		z"/>
	<path class="st12" d="M319.3,218.8c0.7,0,1.2,0.6,1.2,1.7c0,1.2-0.6,1.8-1.3,1.8s-1.2-0.6-1.3-1.7
		C318,219.4,318.6,218.8,319.3,218.8L319.3,218.8L319.3,218.8z M319.3,219.2c-0.4,0-0.7,0.6-0.7,1.3s0.2,1.3,0.7,1.3
		s0.7-0.5,0.7-1.3C320,219.8,319.8,219.2,319.3,219.2L319.3,219.2z M319.2,224.6l3.2-5.8h0.5l-3.2,5.8H319.2z M322.8,221.1
		c0.7,0,1.2,0.6,1.2,1.7c0,1.2-0.6,1.8-1.3,1.8s-1.2-0.6-1.3-1.7C321.5,221.7,322.1,221.1,322.8,221.1L322.8,221.1L322.8,221.1z
		 M322.8,221.6c-0.4,0-0.7,0.6-0.7,1.3s0.2,1.3,0.7,1.3s0.7-0.5,0.7-1.3S323.3,221.6,322.8,221.6L322.8,221.6z"/>
</g>
<g>
	<path class="st12" d="M275.3,196c0-0.4,0-0.8,0-1.1h0.6v0.7l0,0c0.2-0.4,0.7-0.8,1.3-0.8s1.4,0.3,1.4,1.8v2.5H278v-2.4
		c0-0.7-0.2-1.2-0.9-1.2c-0.5,0-0.8,0.4-1,0.8c0,0.1,0,0.2,0,0.4v2.5h-0.7L275.3,196L275.3,196z"/>
	<path class="st12" d="M283.2,197.9c0,0.4,0,0.8,0,1.1h-0.6v-0.7l0,0c-0.2,0.3-0.6,0.8-1.3,0.8c-0.6,0-1.4-0.4-1.4-1.8v-2.4h0.7v2.3
		c0,0.8,0.2,1.3,0.9,1.3c0.5,0,0.8-0.4,1-0.7c0-0.1,0.1-0.2,0.1-0.4v-2.6h0.7L283.2,197.9L283.2,197.9z"/>
	<path class="st12" d="M287.3,198.9c-0.2,0.1-0.6,0.2-1.1,0.2c-1.2,0-2-0.9-2-2.1s0.8-2.2,2.1-2.2c0.4,0,0.8,0.1,1,0.2l-0.2,0.6
		c-0.2-0.1-0.4-0.2-0.8-0.2c-0.9,0-1.4,0.7-1.4,1.6c0,1,0.6,1.6,1.4,1.6c0.4,0,0.7-0.1,0.9-0.2L287.3,198.9z"/>
	<path class="st12" d="M288.1,192.9h0.7v6.1h-0.7V192.9z"/>
	<path class="st12" d="M290.5,197.1c0,1,0.6,1.5,1.4,1.5c0.5,0,0.8-0.1,1.1-0.2l0.1,0.5c-0.3,0.1-0.7,0.3-1.3,0.3
		c-1.2,0-2-0.9-2-2.1c0-1.3,0.7-2.3,1.9-2.3c1.3,0,1.6,1.2,1.6,2c0,0.2,0,0.3,0,0.4L290.5,197.1z M292.6,196.5c0-0.5-0.2-1.2-1-1.2
		c-0.7,0-1.1,0.7-1.1,1.2H292.6z"/>
	<path class="st12" d="M295.8,199.1c-1.1,0-1.9-0.8-1.9-2.2s0.9-2.2,2-2.2s1.9,0.9,1.9,2.1C297.8,198.5,296.8,199.1,295.8,199.1
		L295.8,199.1z M295.8,198.6c0.7,0,1.2-0.7,1.2-1.6c0-0.7-0.3-1.6-1.2-1.6c-0.8,0-1.2,0.8-1.2,1.6
		C294.6,197.9,295.1,198.6,295.8,198.6L295.8,198.6z"/>
	<path class="st12" d="M299.6,193.9v1h1v0.6h-1v2.3c0,0.5,0.1,0.8,0.5,0.8c0.2,0,0.3,0,0.4-0.1v0.6c-0.1,0.1-0.4,0.1-0.6,0.1
		c-0.3,0-0.6-0.1-0.8-0.3c-0.2-0.2-0.3-0.6-0.3-1.1v-2.3h-0.6v-0.6h0.6v-0.8L299.6,193.9z"/>
	<path class="st12" d="M301.8,194.1c-0.3,0-0.5-0.2-0.5-0.5s0.2-0.5,0.5-0.5s0.5,0.2,0.5,0.5S302.1,194.1,301.8,194.1L301.8,194.1z
		 M301.4,199.1v-4.2h0.7v4.2H301.4z"/>
	<path class="st12" d="M306.8,192.9v5.1c0,0.4,0,0.8,0,1.1h-0.7v-0.7l0,0c-0.2,0.5-0.7,0.8-1.4,0.8c-1,0-1.7-0.9-1.7-2.1
		c0-1.4,0.8-2.2,1.8-2.2c0.6,0,1,0.3,1.2,0.6l0,0V193h0.8L306.8,192.9L306.8,192.9z M306.1,196.6c0-0.1,0-0.2,0-0.3
		c-0.1-0.5-0.5-0.9-1-0.9c-0.7,0-1.2,0.7-1.2,1.6c0,0.9,0.4,1.6,1.2,1.6c0.5,0,0.9-0.3,1.1-0.9c0-0.1,0-0.2,0-0.3L306.1,196.6
		L306.1,196.6z"/>
	<path class="st12" d="M308.4,197.1c0,1,0.6,1.5,1.4,1.5c0.5,0,0.8-0.1,1.1-0.2l0.1,0.5c-0.3,0.1-0.7,0.3-1.3,0.3
		c-1.2,0-2-0.9-2-2.1c0-1.3,0.7-2.3,1.9-2.3c1.3,0,1.6,1.2,1.6,2c0,0.2,0,0.3,0,0.4L308.4,197.1z M310.5,196.5c0-0.5-0.2-1.2-1-1.2
		c-0.7,0-1.1,0.7-1.1,1.2H310.5z"/>
</g>
<g>
	<path class="st12" d="M280.5,204.4c0-0.5,0-1,0-1.4h0.7v0.7l0,0c0.3-0.5,0.8-0.8,1.4-0.8c1,0,1.7,0.9,1.7,2.1
		c0,1.5-0.9,2.2-1.8,2.2c-0.5,0-1-0.2-1.2-0.7l0,0v2.3h-0.7v-4.4L280.5,204.4L280.5,204.4z M281.2,205.6c0,0.1,0,0.2,0,0.3
		c0.1,0.5,0.6,0.9,1.1,0.9c0.8,0,1.2-0.7,1.2-1.6c0-0.8-0.4-1.6-1.2-1.6c-0.5,0-1,0.4-1.1,0.9c0,0.1,0,0.2,0,0.3V205.6z"/>
	<path class="st12" d="M285.2,204.4c0-0.5,0-0.9,0-1.3h0.6v0.8l0,0c0.2-0.6,0.6-0.9,1.1-0.9c0.1,0,0.1,0,0.2,0v0.7
		c-0.1,0-0.2,0-0.3,0c-0.5,0-0.9,0.4-1,1c0,0.1,0,0.2,0,0.4v2.2h-0.7L285.2,204.4z"/>
	<path class="st12" d="M288.3,205.3c0,1,0.6,1.5,1.4,1.5c0.5,0,0.8-0.1,1.1-0.2l0.1,0.5c-0.3,0.1-0.7,0.3-1.3,0.3
		c-1.2,0-2-0.9-2-2.1c0-1.3,0.7-2.3,1.9-2.3c1.3,0,1.6,1.2,1.6,2c0,0.2,0,0.3,0,0.4L288.3,205.3z M290.4,204.8c0-0.5-0.2-1.2-1-1.2
		c-0.7,0-1.1,0.7-1.1,1.2H290.4z"/>
	<path class="st12" d="M291.9,206.5c0.2,0.1,0.6,0.3,1,0.3c0.5,0,0.8-0.3,0.8-0.6c0-0.4-0.2-0.6-0.7-0.8c-0.7-0.3-1.1-0.7-1.1-1.2
		c0-0.7,0.5-1.2,1.4-1.2c0.4,0,0.8,0.1,1,0.3l-0.2,0.5c-0.2-0.1-0.4-0.2-0.8-0.2s-0.7,0.3-0.7,0.6c0,0.4,0.2,0.5,0.7,0.7
		c0.7,0.3,1,0.6,1,1.3s-0.6,1.3-1.5,1.3c-0.4,0-0.8-0.1-1.1-0.3L291.9,206.5z"/>
	<path class="st12" d="M295.7,205.3c0,1,0.6,1.5,1.4,1.5c0.5,0,0.8-0.1,1.1-0.2l0.1,0.5c-0.3,0.1-0.7,0.3-1.3,0.3
		c-1.2,0-2-0.9-2-2.1c0-1.3,0.7-2.3,1.9-2.3c1.3,0,1.6,1.2,1.6,2c0,0.2,0,0.3,0,0.4L295.7,205.3z M297.8,204.8c0-0.5-0.2-1.2-1-1.2
		c-0.7,0-1.1,0.7-1.1,1.2H297.8z"/>
	<path class="st12" d="M299.4,204.2c0-0.4,0-0.8,0-1.1h0.6v0.7l0,0c0.2-0.4,0.7-0.8,1.3-0.8s1.4,0.3,1.4,1.8v2.5H302v-2.4
		c0-0.7-0.2-1.2-0.9-1.2c-0.5,0-0.8,0.4-1,0.8c0,0.1,0,0.2,0,0.4v2.5h-0.7L299.4,204.2L299.4,204.2z"/>
	<path class="st12" d="M304.8,202.1v1h1v0.6h-1v2.3c0,0.5,0.1,0.8,0.5,0.8c0.2,0,0.3,0,0.4-0.1v0.6c-0.1,0.1-0.4,0.1-0.6,0.1
		c-0.3,0-0.6-0.1-0.8-0.3c-0.2-0.2-0.3-0.6-0.3-1.1v-2.3h-0.6v-0.6h0.6v-0.8L304.8,202.1z"/>
</g>
<g>
	<path class="st12" d="M332.3,196c0-0.4,0-0.8,0-1.1h0.6v0.7l0,0c0.2-0.4,0.7-0.8,1.3-0.8s1.4,0.3,1.4,1.8v2.5H335v-2.4
		c0-0.7-0.2-1.2-0.9-1.2c-0.5,0-0.8,0.4-1,0.8c0,0.1,0,0.2,0,0.4v2.5h-0.7L332.3,196L332.3,196z"/>
	<path class="st12" d="M340.2,197.9c0,0.4,0,0.8,0,1.1h-0.6v-0.7l0,0c-0.2,0.3-0.6,0.8-1.3,0.8c-0.6,0-1.4-0.4-1.4-1.8v-2.4h0.7v2.3
		c0,0.8,0.2,1.3,0.9,1.3c0.5,0,0.8-0.4,1-0.7c0-0.1,0.1-0.2,0.1-0.4v-2.6h0.7L340.2,197.9L340.2,197.9z"/>
	<path class="st12" d="M344.3,198.9c-0.2,0.1-0.6,0.2-1.1,0.2c-1.2,0-2-0.9-2-2.1s0.8-2.2,2.1-2.2c0.4,0,0.8,0.1,1,0.2l-0.2,0.6
		c-0.2-0.1-0.4-0.2-0.8-0.2c-0.9,0-1.4,0.7-1.4,1.6c0,1,0.6,1.6,1.4,1.6c0.4,0,0.7-0.1,0.9-0.2L344.3,198.9z"/>
	<path class="st12" d="M345.1,192.9h0.7v6.1h-0.7V192.9z"/>
	<path class="st12" d="M347.5,197.1c0,1,0.6,1.5,1.4,1.5c0.5,0,0.8-0.1,1.1-0.2l0.1,0.5c-0.3,0.1-0.7,0.3-1.3,0.3
		c-1.2,0-2-0.9-2-2.1c0-1.3,0.7-2.3,1.9-2.3c1.3,0,1.6,1.2,1.6,2c0,0.2,0,0.3,0,0.4L347.5,197.1z M349.6,196.5c0-0.5-0.2-1.2-1-1.2
		c-0.7,0-1.1,0.7-1.1,1.2H349.6z"/>
	<path class="st12" d="M352.8,199.1c-1.1,0-1.9-0.8-1.9-2.2s0.9-2.2,2-2.2s1.9,0.9,1.9,2.1C354.8,198.5,353.8,199.1,352.8,199.1
		L352.8,199.1z M352.8,198.6c0.7,0,1.2-0.7,1.2-1.6c0-0.7-0.3-1.6-1.2-1.6c-0.8,0-1.2,0.8-1.2,1.6
		C351.6,197.9,352.1,198.6,352.8,198.6L352.8,198.6z"/>
	<path class="st12" d="M356.6,193.9v1h1v0.6h-1v2.3c0,0.5,0.1,0.8,0.5,0.8c0.2,0,0.3,0,0.4-0.1v0.6c-0.1,0.1-0.4,0.1-0.6,0.1
		c-0.3,0-0.6-0.1-0.8-0.3c-0.2-0.2-0.3-0.6-0.3-1.1v-2.3h-0.6v-0.6h0.6v-0.8L356.6,193.9z"/>
	<path class="st12" d="M358.8,194.1c-0.3,0-0.5-0.2-0.5-0.5s0.2-0.5,0.5-0.5s0.5,0.2,0.5,0.5S359.1,194.1,358.8,194.1L358.8,194.1z
		 M358.4,199.1v-4.2h0.7v4.2H358.4z"/>
	<path class="st12" d="M363.8,192.9v5.1c0,0.4,0,0.8,0,1.1h-0.7v-0.7l0,0c-0.2,0.5-0.7,0.8-1.4,0.8c-1,0-1.7-0.9-1.7-2.1
		c0-1.4,0.8-2.2,1.8-2.2c0.6,0,1,0.3,1.2,0.6l0,0V193h0.8L363.8,192.9L363.8,192.9z M363.1,196.6c0-0.1,0-0.2,0-0.3
		c-0.1-0.5-0.5-0.9-1-0.9c-0.7,0-1.2,0.7-1.2,1.6c0,0.9,0.4,1.6,1.2,1.6c0.5,0,0.9-0.3,1.1-0.9c0-0.1,0-0.2,0-0.3v-0.8L363.1,196.6
		L363.1,196.6z"/>
	<path class="st12" d="M365.4,197.1c0,1,0.6,1.5,1.4,1.5c0.5,0,0.8-0.1,1.1-0.2l0.1,0.5c-0.3,0.1-0.7,0.3-1.3,0.3
		c-1.2,0-2-0.9-2-2.1c0-1.3,0.7-2.3,1.9-2.3c1.3,0,1.6,1.2,1.6,2c0,0.2,0,0.3,0,0.4L365.4,197.1z M367.5,196.5c0-0.5-0.2-1.2-1-1.2
		c-0.7,0-1.1,0.7-1.1,1.2H367.5z"/>
</g>
<g>
	<path class="st12" d="M337.9,202.3c-0.3,0-0.5-0.2-0.5-0.5s0.2-0.5,0.5-0.5s0.5,0.2,0.5,0.5S338.2,202.3,337.9,202.3L337.9,202.3z
		 M337.5,207.3v-4.2h0.7v4.2H337.5z"/>
	<path class="st12" d="M342.9,201.1v5.1c0,0.4,0,0.8,0,1.1h-0.7v-0.7l0,0c-0.2,0.5-0.7,0.8-1.4,0.8c-1,0-1.7-0.9-1.7-2.1
		c0-1.4,0.8-2.2,1.8-2.2c0.6,0,1,0.3,1.2,0.6l0,0v-2.5L342.9,201.1L342.9,201.1z M342.2,204.8c0-0.1,0-0.2,0-0.3
		c-0.1-0.5-0.5-0.9-1-0.9c-0.7,0-1.2,0.7-1.2,1.6s0.4,1.6,1.2,1.6c0.5,0,0.9-0.3,1.1-0.9c0-0.1,0-0.2,0-0.3v-0.8L342.2,204.8
		L342.2,204.8z"/>
	<path class="st12" d="M344.5,205.3c0,1,0.6,1.5,1.4,1.5c0.5,0,0.8-0.1,1.1-0.2l0.1,0.5c-0.3,0.1-0.7,0.3-1.3,0.3
		c-1.2,0-2-0.9-2-2.1c0-1.3,0.7-2.3,1.9-2.3c1.3,0,1.6,1.2,1.6,2c0,0.2,0,0.3,0,0.4L344.5,205.3z M346.6,204.8c0-0.5-0.2-1.2-1-1.2
		c-0.7,0-1.1,0.7-1.1,1.2H346.6z"/>
	<path class="st12" d="M348.2,204.2c0-0.4,0-0.8,0-1.1h0.6v0.7l0,0c0.2-0.4,0.7-0.8,1.3-0.8s1.4,0.3,1.4,1.8v2.5h-0.7v-2.4
		c0-0.7-0.2-1.2-0.9-1.2c-0.5,0-0.8,0.4-1,0.8c0,0.1,0,0.2,0,0.4v2.5h-0.7L348.2,204.2L348.2,204.2z"/>
	<path class="st12" d="M353.6,202.1v1h1v0.6h-1v2.3c0,0.5,0.1,0.8,0.5,0.8c0.2,0,0.3,0,0.4-0.1v0.6c-0.1,0.1-0.4,0.1-0.6,0.1
		c-0.3,0-0.6-0.1-0.8-0.3c-0.2-0.2-0.3-0.6-0.3-1.1v-2.3h-0.6v-0.6h0.6v-0.8L353.6,202.1z"/>
	<path class="st12" d="M355.8,202.3c-0.3,0-0.5-0.2-0.5-0.5s0.2-0.5,0.5-0.5s0.5,0.2,0.5,0.5S356.1,202.3,355.8,202.3L355.8,202.3z
		 M355.5,207.3v-4.2h0.7v4.2H355.5z"/>
	<path class="st12" d="M358.3,202.1v1h1v0.6h-1v2.3c0,0.5,0.1,0.8,0.5,0.8c0.2,0,0.3,0,0.4-0.1v0.6c-0.1,0.1-0.4,0.1-0.6,0.1
		c-0.3,0-0.6-0.1-0.8-0.3c-0.2-0.2-0.3-0.6-0.3-1.1v-2.3H357v-0.6h0.6v-0.8L358.3,202.1z"/>
	<path class="st12" d="M360.5,203.1l0.9,2.5c0.1,0.3,0.2,0.6,0.3,0.9l0,0c0.1-0.3,0.2-0.6,0.3-0.9l0.8-2.5h0.8l-1.1,3
		c-0.5,1.4-0.9,2.2-1.4,2.6c-0.4,0.3-0.7,0.4-0.9,0.5l-0.2-0.6c0.2-0.1,0.4-0.2,0.6-0.4s0.4-0.5,0.6-0.8c0-0.1,0.1-0.1,0.1-0.2
		c0,0,0-0.1-0.1-0.2l-1.5-3.9C359.7,203.1,360.5,203.1,360.5,203.1z"/>
</g>
<g>
	<path class="st12" d="M357.8,230.2v0.5l-2.3,5.1h-0.7l2.3-5l0,0h-2.6v-0.6H357.8L357.8,230.2z"/>
	<path class="st12" d="M361.8,230.9h-2l-0.2,1.4c0.1,0,0.2,0,0.4,0c0.4,0,0.8,0.1,1.2,0.3c0.4,0.2,0.8,0.7,0.8,1.5
		c0,1.1-0.8,1.9-2,1.9c-0.6,0-1.1-0.2-1.3-0.3l0.2-0.6c0.2,0.1,0.7,0.3,1.2,0.3c0.7,0,1.3-0.5,1.3-1.2s-0.5-1.3-1.5-1.3
		c-0.3,0-0.6,0-0.8,0.1l0.3-2.7h2.6L361.8,230.9L361.8,230.9z"/>
	<path class="st12" d="M364,230.1c0.7,0,1.2,0.6,1.2,1.7c0,1.2-0.6,1.8-1.3,1.8c-0.7,0-1.2-0.6-1.3-1.7
		C362.7,230.8,363.3,230.1,364,230.1L364,230.1L364,230.1z M364,230.6c-0.4,0-0.7,0.6-0.7,1.3s0.2,1.3,0.7,1.3s0.7-0.5,0.7-1.3
		C364.7,231.2,364.5,230.6,364,230.6L364,230.6z M363.9,235.9l3.2-5.8h0.5l-3.2,5.8H363.9z M367.5,232.5c0.7,0,1.2,0.6,1.2,1.7
		c0,1.2-0.6,1.8-1.3,1.8c-0.7,0-1.2-0.6-1.3-1.7C366.2,233.1,366.8,232.5,367.5,232.5L367.5,232.5L367.5,232.5z M367.4,232.9
		c-0.4,0-0.7,0.6-0.7,1.3s0.2,1.3,0.7,1.3s0.7-0.5,0.7-1.3C368.2,233.5,368,232.9,367.4,232.9L367.4,232.9z"/>
</g>
<g>
	<path class="st17" d="M337.3,235.8V230h0.8l1.8,2.9c0.4,0.7,0.7,1.3,1,1.9l0,0c-0.1-0.8-0.1-1.5-0.1-2.4V230h0.7v5.8h-0.7l-1.8-3
		c-0.4-0.6-0.8-1.3-1-1.9l0,0c0,0.7,0,1.4,0,2.4v2.5H337.3L337.3,235.8z"/>
</g>
<g>
	<path class="st18" d="M337.3,218.4v-5.8h0.8l1.8,2.9c0.4,0.7,0.7,1.3,1,1.9l0,0c-0.1-0.8-0.1-1.5-0.1-2.4v-2.4h0.7v5.8h-0.7l-1.8-3
		c-0.4-0.6-0.8-1.3-1-1.9l0,0c0,0.7,0,1.4,0,2.4v2.5H337.3L337.3,218.4z"/>
</g>
<g>
	<path class="st12" d="M354.8,217.8c0.2,0,0.3,0,0.6,0c0.4-0.1,0.8-0.2,1.1-0.5c0.4-0.3,0.6-0.8,0.7-1.5l0,0
		c-0.3,0.4-0.7,0.6-1.3,0.6c-1,0-1.6-0.8-1.6-1.7c0-1.1,0.7-2,1.8-2s1.8,0.9,1.8,2.4c0,1.2-0.4,2.1-0.9,2.6c-0.4,0.4-1,0.7-1.6,0.8
		c-0.3,0-0.5,0.1-0.7,0L354.8,217.8L354.8,217.8z M356.1,213.2c-0.6,0-1,0.6-1,1.4c0,0.7,0.4,1.2,1,1.2c0.5,0,0.9-0.2,1.1-0.6
		c0-0.1,0.1-0.2,0.1-0.3C357.2,214,356.9,213.2,356.1,213.2L356.1,213.2L356.1,213.2z"/>
	<path class="st12" d="M362.1,212.7v0.5l-2.3,5.1H359l2.3-5l0,0h-2.6v-0.6H362.1L362.1,212.7z"/>
	<path class="st12" d="M364,212.6c0.7,0,1.2,0.6,1.2,1.7c0,1.2-0.6,1.8-1.3,1.8c-0.7,0-1.2-0.6-1.3-1.7
		C362.7,213.3,363.3,212.7,364,212.6L364,212.6L364,212.6z M364,213.1c-0.4,0-0.7,0.6-0.7,1.3s0.2,1.3,0.7,1.3s0.7-0.5,0.7-1.3
		C364.7,213.7,364.5,213.1,364,213.1L364,213.1z M363.9,218.5l3.2-5.8h0.5l-3.2,5.8H363.9z M367.5,215c0.7,0,1.2,0.6,1.2,1.7
		c0,1.2-0.6,1.8-1.3,1.8c-0.7,0-1.2-0.6-1.3-1.7C366.2,215.6,366.8,215,367.5,215L367.5,215L367.5,215z M367.4,215.4
		c-0.4,0-0.7,0.6-0.7,1.3s0.2,1.3,0.7,1.3s0.7-0.5,0.7-1.3C368.2,216,368,215.4,367.4,215.4L367.4,215.4z"/>
</g>
<g>
	<path class="st12" d="M337.3,227.1v-5.8h0.8l1.8,2.9c0.4,0.7,0.7,1.3,1,1.9l0,0c-0.1-0.8-0.1-1.5-0.1-2.4v-2.4h0.7v5.8h-0.7l-1.8-3
		c-0.4-0.6-0.8-1.3-1-1.9l0,0c0,0.7,0,1.4,0,2.4v2.5H337.3L337.3,227.1z"/>
</g>
<g>
	<path class="st12" d="M354.8,226.6c0.2,0,0.3,0,0.6,0c0.4-0.1,0.8-0.2,1.1-0.5c0.4-0.3,0.6-0.8,0.7-1.5l0,0
		c-0.3,0.4-0.7,0.6-1.3,0.6c-1,0-1.6-0.8-1.6-1.7c0-1.1,0.7-2,1.8-2s1.8,0.9,1.8,2.4c0,1.2-0.4,2.1-0.9,2.6c-0.4,0.4-1,0.7-1.6,0.8
		c-0.3,0-0.5,0.1-0.7,0L354.8,226.6L354.8,226.6z M356.1,222c-0.6,0-1,0.6-1,1.4c0,0.7,0.4,1.2,1,1.2c0.5,0,0.9-0.2,1.1-0.6
		c0-0.1,0.1-0.2,0.1-0.3C357.2,222.7,356.9,222,356.1,222L356.1,222L356.1,222z"/>
	<path class="st12" d="M360.3,227.2c-1,0-1.8-1-1.8-2.9s0.8-2.9,1.9-2.9s1.8,1.1,1.8,2.8C362.2,226.1,361.5,227.2,360.3,227.2
		L360.3,227.2z M360.3,226.6c0.7,0,1.1-0.9,1.1-2.3s-0.3-2.3-1.1-2.3c-0.7,0-1.1,0.9-1.1,2.3S359.6,226.6,360.3,226.6L360.3,226.6z"
		/>
	<path class="st12" d="M364,221.4c0.7,0,1.2,0.6,1.2,1.7c0,1.2-0.6,1.8-1.3,1.8c-0.7,0-1.2-0.6-1.3-1.7
		C362.7,222,363.3,221.4,364,221.4L364,221.4L364,221.4z M364,221.8c-0.4,0-0.7,0.6-0.7,1.3s0.2,1.3,0.7,1.3s0.7-0.5,0.7-1.3
		C364.7,222.4,364.5,221.8,364,221.8L364,221.8z M363.9,227.2l3.2-5.8h0.5l-3.2,5.8H363.9z M367.5,223.7c0.7,0,1.2,0.6,1.2,1.7
		c0,1.2-0.6,1.8-1.3,1.8c-0.7,0-1.2-0.6-1.3-1.7C366.2,224.3,366.8,223.7,367.5,223.7L367.5,223.7L367.5,223.7z M367.4,224.2
		c-0.4,0-0.7,0.6-0.7,1.3s0.2,1.3,0.7,1.3s0.7-0.5,0.7-1.3C368.2,224.7,368,224.2,367.4,224.2L367.4,224.2z"/>
</g>
<g>
	<path class="st19" d="M291.7,166.7c-0.2,0.1-0.6,0.2-1.1,0.2c-1.2,0-2-0.9-2-2.1s0.8-2.2,2.1-2.2c0.4,0,0.8,0.1,1,0.2l-0.2,0.6
		c-0.2-0.1-0.4-0.2-0.8-0.2c-0.9,0-1.4,0.7-1.4,1.6c0,1,0.6,1.6,1.4,1.6c0.4,0,0.7-0.1,0.9-0.2L291.7,166.7z"/>
	<path class="st19" d="M294.1,166.9c-1.1,0-1.9-0.8-1.9-2.2s0.9-2.2,2-2.2s1.9,0.9,1.9,2.1C296.1,166.2,295.1,166.9,294.1,166.9
		L294.1,166.9z M294.1,166.3c0.7,0,1.2-0.7,1.2-1.6c0-0.7-0.3-1.6-1.2-1.6c-0.8,0-1.2,0.8-1.2,1.6
		C292.9,165.7,293.4,166.3,294.1,166.3L294.1,166.3z"/>
	<path class="st19" d="M297.2,162.6l0.8,2.3c0.1,0.4,0.2,0.7,0.3,1.1l0,0c0.1-0.3,0.2-0.7,0.3-1.1l0.8-2.3h0.8l-1.6,4.2H298
		l-1.5-4.2H297.2z"/>
	<path class="st19" d="M303.6,165.8c0,0.4,0,0.7,0.1,1H303l-0.1-0.5l0,0c-0.2,0.3-0.7,0.6-1.2,0.6c-0.8,0-1.2-0.6-1.2-1.2
		c0-1,0.9-1.6,2.4-1.6V164c0-0.3-0.1-1-0.9-1c-0.4,0-0.8,0.1-1,0.3l-0.2-0.5c0.3-0.2,0.8-0.4,1.3-0.4c1.2,0,1.5,0.9,1.5,1.7
		L303.6,165.8L303.6,165.8z M302.9,164.7c-0.8,0-1.7,0.1-1.7,0.9c0,0.5,0.3,0.7,0.7,0.7c0.5,0,0.9-0.3,1-0.7c0-0.1,0-0.2,0-0.2
		V164.7z"/>
	<path class="st19" d="M304.8,163.9c0-0.5,0-0.9,0-1.3h0.6v0.8l0,0c0.2-0.6,0.6-0.9,1.1-0.9c0.1,0,0.1,0,0.2,0v0.7
		c-0.1,0-0.2,0-0.3,0c-0.5,0-0.9,0.4-1,1c0,0.1,0,0.2,0,0.4v2.2h-0.7L304.8,163.9z"/>
	<path class="st19" d="M307.9,162.6l0.9,2.5c0.1,0.3,0.2,0.6,0.3,0.9l0,0c0.1-0.3,0.2-0.6,0.3-0.9l0.8-2.5h0.8l-1.1,3
		c-0.5,1.4-0.9,2.2-1.4,2.6c-0.4,0.3-0.7,0.4-0.9,0.5l-0.2-0.6c0.2-0.1,0.4-0.2,0.6-0.4s0.4-0.5,0.6-0.8c0-0.1,0.1-0.1,0.1-0.2
		c0,0,0-0.1-0.1-0.2l-1.5-3.9C307.1,162.6,307.9,162.6,307.9,162.6z"/>
	<path class="st19" d="M311.9,161.9c-0.3,0-0.5-0.2-0.5-0.5s0.2-0.5,0.5-0.5s0.5,0.2,0.5,0.5C312.4,161.6,312.2,161.9,311.9,161.9
		L311.9,161.9z M311.5,166.8v-4.2h0.7v4.2H311.5z"/>
	<path class="st19" d="M313.5,163.8c0-0.4,0-0.8,0-1.1h0.6v0.7l0,0c0.2-0.4,0.7-0.8,1.3-0.8c0.6,0,1.4,0.3,1.4,1.8v2.5h-0.7v-2.4
		c0-0.7-0.2-1.2-0.9-1.2c-0.5,0-0.8,0.4-1,0.8c0,0.1,0,0.2,0,0.4v2.5h-0.7L313.5,163.8L313.5,163.8z"/>
	<path class="st19" d="M321.4,166.2c0,1-0.2,1.5-0.6,1.9s-1,0.5-1.5,0.5s-1-0.1-1.3-0.3l0.2-0.6c0.3,0.2,0.7,0.3,1.2,0.3
		c0.7,0,1.3-0.4,1.3-1.5V166l0,0c-0.2,0.4-0.7,0.7-1.3,0.7c-1,0-1.7-0.9-1.7-2c0-1.4,0.9-2.2,1.8-2.2c0.7,0,1.1,0.4,1.2,0.7l0,0
		v-0.6h0.6c0,0.3,0,0.6,0,1.1L321.4,166.2L321.4,166.2z M320.7,164.3c0-0.1,0-0.2,0-0.3c-0.1-0.4-0.5-0.8-1-0.8
		c-0.7,0-1.2,0.6-1.2,1.6c0,0.8,0.4,1.5,1.2,1.5c0.5,0,0.9-0.3,1-0.8c0-0.1,0.1-0.3,0.1-0.4L320.7,164.3L320.7,164.3z"/>
	<path class="st19" d="M324.4,163.8c0-0.4,0-0.8,0-1.1h0.6v0.7l0,0c0.2-0.4,0.6-0.8,1.3-0.8c0.5,0,0.9,0.3,1.1,0.8l0,0
		c0.1-0.2,0.3-0.4,0.5-0.5c0.2-0.2,0.5-0.3,0.9-0.3c0.5,0,1.3,0.4,1.3,1.8v2.5h-0.7v-2.4c0-0.8-0.3-1.3-0.9-1.3
		c-0.4,0-0.7,0.3-0.9,0.7c0,0.1-0.1,0.3-0.1,0.4v2.6h-0.7v-2.5c0-0.7-0.3-1.1-0.8-1.1c-0.4,0-0.8,0.4-0.9,0.8c0,0.1-0.1,0.2-0.1,0.4
		v2.5h-0.7L324.4,163.8L324.4,163.8z"/>
	<path class="st19" d="M334.6,165.7c0,0.4,0,0.8,0,1.1H334v-0.7l0,0c-0.2,0.3-0.6,0.8-1.3,0.8c-0.6,0-1.4-0.4-1.4-1.8v-2.4h0.7v2.3
		c0,0.8,0.2,1.3,0.9,1.3c0.5,0,0.8-0.4,1-0.7c0-0.1,0.1-0.2,0.1-0.4v-2.6h0.7L334.6,165.7L334.6,165.7z"/>
	<path class="st19" d="M336.7,161.6v1h1v0.6h-1v2.3c0,0.5,0.1,0.8,0.5,0.8c0.2,0,0.3,0,0.4-0.1v0.6c-0.1,0.1-0.4,0.1-0.6,0.1
		c-0.3,0-0.6-0.1-0.8-0.3c-0.2-0.2-0.3-0.6-0.3-1.1v-2.3h-0.6v-0.6h0.6v-0.8L336.7,161.6z"/>
	<path class="st19" d="M341.3,165.8c0,0.4,0,0.7,0.1,1h-0.7l-0.1-0.5l0,0c-0.2,0.3-0.7,0.6-1.2,0.6c-0.8,0-1.2-0.6-1.2-1.2
		c0-1,0.9-1.6,2.4-1.6V164c0-0.3-0.1-1-0.9-1c-0.4,0-0.8,0.1-1,0.3l-0.2-0.5c0.3-0.2,0.8-0.4,1.3-0.4c1.2,0,1.5,0.9,1.5,1.7
		L341.3,165.8L341.3,165.8z M340.6,164.7c-0.8,0-1.7,0.1-1.7,0.9c0,0.5,0.3,0.7,0.7,0.7c0.5,0,0.9-0.3,1-0.7c0-0.1,0-0.2,0-0.2
		V164.7L340.6,164.7z"/>
	<path class="st19" d="M343.4,161.6v1h1v0.6h-1v2.3c0,0.5,0.1,0.8,0.5,0.8c0.2,0,0.3,0,0.4-0.1v0.6c-0.1,0.1-0.4,0.1-0.6,0.1
		c-0.3,0-0.6-0.1-0.8-0.3c-0.2-0.2-0.3-0.6-0.3-1.1v-2.3H342v-0.6h0.6v-0.8L343.4,161.6z"/>
	<path class="st19" d="M345.6,161.9c-0.3,0-0.5-0.2-0.5-0.5s0.2-0.5,0.5-0.5s0.5,0.2,0.5,0.5C346,161.6,345.8,161.9,345.6,161.9
		L345.6,161.9z M345.2,166.8v-4.2h0.7v4.2H345.2z"/>
	<path class="st19" d="M348.8,166.9c-1.1,0-1.9-0.8-1.9-2.2s0.9-2.2,2-2.2s1.9,0.9,1.9,2.1C350.7,166.2,349.7,166.9,348.8,166.9
		L348.8,166.9z M348.8,166.3c0.7,0,1.2-0.7,1.2-1.6c0-0.7-0.3-1.6-1.2-1.6c-0.8,0-1.2,0.8-1.2,1.6
		C347.6,165.7,348.1,166.3,348.8,166.3L348.8,166.3z"/>
	<path class="st19" d="M351.7,163.8c0-0.4,0-0.8,0-1.1h0.6v0.7l0,0c0.2-0.4,0.7-0.8,1.3-0.8s1.4,0.3,1.4,1.8v2.5h-0.7v-2.4
		c0-0.7-0.2-1.2-0.9-1.2c-0.5,0-0.8,0.4-1,0.8c0,0.1-0.1,0.2-0.1,0.4v2.5h-0.7L351.7,163.8L351.7,163.8z"/>
	<path class="st19" d="M356.1,166.1c0.2,0.1,0.6,0.3,1,0.3c0.5,0,0.8-0.3,0.8-0.6c0-0.4-0.2-0.6-0.7-0.8c-0.7-0.3-1.1-0.7-1.1-1.2
		c0-0.7,0.5-1.2,1.4-1.2c0.4,0,0.8,0.1,1,0.3l-0.2,0.5c-0.2-0.1-0.4-0.2-0.8-0.2s-0.7,0.3-0.7,0.6c0,0.4,0.2,0.5,0.7,0.7
		c0.7,0.3,1,0.6,1,1.3s-0.6,1.3-1.5,1.3c-0.4,0-0.8-0.1-1.1-0.3L356.1,166.1z"/>
</g>
<g>
	<path class="st19" d="M271,152.6h0.7v2.6l0,0c0.3-0.5,0.7-0.8,1.4-0.8c1,0,1.7,0.9,1.7,2.1c0,1.5-0.9,2.2-1.8,2.2
		c-0.6,0-1-0.2-1.3-0.8l0,0v0.7h-0.6c0-0.3,0-0.7,0-1.1L271,152.6L271,152.6z M271.7,157c0,0.1,0,0.2,0,0.3c0.1,0.5,0.6,0.9,1.1,0.9
		c0.8,0,1.2-0.6,1.2-1.6c0-0.8-0.4-1.6-1.2-1.6c-0.5,0-1,0.4-1.1,0.9c0,0.1,0,0.2,0,0.3V157z"/>
	<path class="st19" d="M278.5,157.7c0,0.4,0,0.7,0.1,1h-0.7l-0.1-0.5l0,0c-0.2,0.3-0.7,0.6-1.2,0.6c-0.8,0-1.2-0.6-1.2-1.2
		c0-1,0.9-1.6,2.4-1.6v-0.1c0-0.3-0.1-1-0.9-1c-0.4,0-0.8,0.1-1,0.3l-0.2-0.5c0.3-0.2,0.8-0.4,1.3-0.4c1.2,0,1.5,0.9,1.5,1.7
		L278.5,157.7L278.5,157.7z M277.8,156.6c-0.8,0-1.7,0.1-1.7,0.9c0,0.5,0.3,0.7,0.7,0.7c0.5,0,0.9-0.3,1-0.7c0-0.1,0-0.2,0-0.2
		V156.6z"/>
	<path class="st19" d="M279.5,158c0.2,0.1,0.6,0.3,1,0.3c0.5,0,0.8-0.3,0.8-0.6c0-0.4-0.2-0.6-0.7-0.8c-0.7-0.3-1.1-0.7-1.1-1.2
		c0-0.7,0.5-1.2,1.4-1.2c0.4,0,0.8,0.1,1,0.3l-0.2,0.5c-0.2-0.1-0.4-0.2-0.8-0.2s-0.7,0.3-0.7,0.6c0,0.4,0.2,0.5,0.7,0.7
		c0.7,0.3,1,0.6,1,1.3s-0.6,1.3-1.5,1.3c-0.4,0-0.8-0.1-1.1-0.3L279.5,158z"/>
	<path class="st19" d="M283.3,156.8c0,1,0.6,1.5,1.4,1.5c0.5,0,0.8-0.1,1.1-0.2l0.1,0.5c-0.3,0.1-0.7,0.3-1.3,0.3
		c-1.2,0-2-0.9-2-2.1c0-1.3,0.7-2.3,1.9-2.3c1.3,0,1.6,1.2,1.6,2c0,0.2,0,0.3,0,0.4L283.3,156.8z M285.4,156.2c0-0.5-0.2-1.2-1-1.2
		c-0.7,0-1.1,0.7-1.1,1.2H285.4z"/>
	<path class="st19" d="M288.8,155.9c0-0.5,0-1,0-1.4h0.7v0.7l0,0c0.3-0.5,0.8-0.8,1.4-0.8c1,0,1.7,0.9,1.7,2.1
		c0,1.5-0.9,2.2-1.8,2.2c-0.5,0-1-0.2-1.2-0.7l0,0v2.3h-0.7v-4.4L288.8,155.9L288.8,155.9z M289.5,157c0,0.1,0,0.2,0,0.3
		c0.1,0.5,0.6,0.9,1.1,0.9c0.8,0,1.2-0.7,1.2-1.6c0-0.8-0.4-1.6-1.2-1.6c-0.5,0-1,0.4-1.1,0.9c0,0.1,0,0.2,0,0.3V157z"/>
	<path class="st19" d="M296.3,157.7c0,0.4,0,0.7,0.1,1h-0.7l-0.1-0.5l0,0c-0.2,0.3-0.7,0.6-1.2,0.6c-0.8,0-1.2-0.6-1.2-1.2
		c0-1,0.9-1.6,2.4-1.6v-0.1c0-0.3-0.1-1-0.9-1c-0.4,0-0.8,0.1-1,0.3l-0.2-0.5c0.3-0.2,0.8-0.4,1.3-0.4c1.2,0,1.5,0.9,1.5,1.7
		L296.3,157.7L296.3,157.7z M295.6,156.6c-0.8,0-1.7,0.1-1.7,0.9c0,0.5,0.3,0.7,0.7,0.7c0.5,0,0.9-0.3,1-0.7c0-0.1,0-0.2,0-0.2
		V156.6z"/>
	<path class="st19" d="M297.8,153.8c-0.3,0-0.5-0.2-0.5-0.5s0.2-0.5,0.5-0.5s0.5,0.2,0.5,0.5S298.1,153.8,297.8,153.8L297.8,153.8z
		 M297.4,158.7v-4.2h0.7v4.2H297.4z"/>
	<path class="st19" d="M299.4,155.8c0-0.5,0-0.9,0-1.3h0.6v0.8l0,0c0.2-0.6,0.6-0.9,1.1-0.9c0.1,0,0.1,0,0.2,0v0.7
		c-0.1,0-0.2,0-0.3,0c-0.5,0-0.9,0.4-1,1c0,0.1,0,0.2,0,0.4v2.2h-0.7L299.4,155.8z"/>
	<path class="st19" d="M306.6,157.7c0,0.4,0,0.7,0.1,1H306v-0.5l0,0c-0.2,0.3-0.7,0.6-1.2,0.6c-0.8,0-1.2-0.6-1.2-1.2
		c0-1,0.9-1.6,2.4-1.6v-0.1c0-0.3-0.1-1-0.9-1c-0.4,0-0.8,0.1-1,0.3l-0.2-0.5c0.3-0.2,0.8-0.4,1.3-0.4c1.2,0,1.5,0.9,1.5,1.7
		L306.6,157.7L306.6,157.7z M305.9,156.6c-0.8,0-1.7,0.1-1.7,0.9c0,0.5,0.3,0.7,0.7,0.7c0.5,0,0.9-0.3,1-0.7c0-0.1,0-0.2,0-0.2
		V156.6L305.9,156.6z"/>
	<path class="st19" d="M307.8,155.7c0-0.4,0-0.8,0-1.1h0.6v0.7l0,0c0.2-0.4,0.7-0.8,1.3-0.8s1.4,0.3,1.4,1.8v2.5h-0.7v-2.4
		c0-0.7-0.2-1.2-0.9-1.2c-0.5,0-0.8,0.4-1,0.8c0,0.1,0,0.2,0,0.4v2.5h-0.7L307.8,155.7L307.8,155.7z"/>
	<path class="st19" d="M312.4,155.7c0-0.4,0-0.8,0-1.1h0.6v0.7l0,0c0.2-0.4,0.7-0.8,1.3-0.8s1.4,0.3,1.4,1.8v2.5H315v-2.4
		c0-0.7-0.2-1.2-0.9-1.2c-0.5,0-0.8,0.4-1,0.8c0,0.1,0,0.2,0,0.4v2.5h-0.7L312.4,155.7L312.4,155.7z"/>
	<path class="st19" d="M318.6,158.8c-1.1,0-1.9-0.8-1.9-2.2s0.9-2.2,2-2.2s1.9,0.9,1.9,2.1C320.5,158.1,319.5,158.8,318.6,158.8
		L318.6,158.8z M318.6,158.2c0.7,0,1.2-0.7,1.2-1.6c0-0.7-0.3-1.6-1.2-1.6c-0.8,0-1.2,0.8-1.2,1.6
		C317.4,157.6,317.9,158.2,318.6,158.2L318.6,158.2z"/>
	<path class="st19" d="M322.3,153.5v1h1v0.6h-1v2.3c0,0.5,0.1,0.8,0.5,0.8c0.2,0,0.3,0,0.4-0.1v0.6c-0.1,0.1-0.4,0.1-0.6,0.1
		c-0.3,0-0.6-0.1-0.8-0.3s-0.3-0.6-0.3-1.1v-2.3H321v-0.6h0.6v-0.8L322.3,153.5z"/>
	<path class="st19" d="M327,157.7c0,0.4,0,0.7,0.1,1h-0.7l-0.1-0.5l0,0c-0.2,0.3-0.7,0.6-1.2,0.6c-0.8,0-1.2-0.6-1.2-1.2
		c0-1,0.9-1.6,2.4-1.6v-0.1c0-0.3-0.1-1-0.9-1c-0.4,0-0.8,0.1-1,0.3l-0.2-0.5c0.3-0.2,0.8-0.4,1.3-0.4c1.2,0,1.5,0.9,1.5,1.7
		L327,157.7L327,157.7z M326.3,156.6c-0.8,0-1.7,0.1-1.7,0.9c0,0.5,0.3,0.7,0.7,0.7c0.5,0,0.9-0.3,1-0.7c0-0.1,0-0.2,0-0.2V156.6z"
		/>
	<path class="st19" d="M329,153.5v1h1v0.6h-1v2.3c0,0.5,0.1,0.8,0.5,0.8c0.2,0,0.3,0,0.4-0.1v0.6c-0.1,0.1-0.4,0.1-0.6,0.1
		c-0.3,0-0.6-0.1-0.8-0.3c-0.2-0.2-0.3-0.6-0.3-1.1v-2.3h-0.6v-0.6h0.6v-0.8L329,153.5z"/>
	<path class="st19" d="M331.2,153.8c-0.3,0-0.5-0.2-0.5-0.5s0.2-0.5,0.5-0.5s0.5,0.2,0.5,0.5S331.5,153.8,331.2,153.8L331.2,153.8z
		 M330.9,158.7v-4.2h0.7v4.2H330.9z"/>
	<path class="st19" d="M334.4,158.8c-1.1,0-1.9-0.8-1.9-2.2s0.9-2.2,2-2.2s1.9,0.9,1.9,2.1C336.4,158.1,335.4,158.8,334.4,158.8
		L334.4,158.8z M334.4,158.2c0.7,0,1.2-0.7,1.2-1.6c0-0.7-0.3-1.6-1.2-1.6c-0.8,0-1.2,0.8-1.2,1.6
		C333.2,157.6,333.7,158.2,334.4,158.2L334.4,158.2z"/>
	<path class="st19" d="M337.3,155.7c0-0.4,0-0.8,0-1.1h0.6v0.7l0,0c0.2-0.4,0.7-0.8,1.3-0.8s1.4,0.3,1.4,1.8v2.5H340v-2.4
		c0-0.7-0.2-1.2-0.9-1.2c-0.5,0-0.8,0.4-1,0.8c0,0.1-0.1,0.2-0.1,0.4v2.5h-0.7L337.3,155.7L337.3,155.7z"/>
	<path class="st19" d="M341.8,158c0.2,0.1,0.6,0.3,1,0.3c0.5,0,0.8-0.3,0.8-0.6c0-0.4-0.2-0.6-0.7-0.8c-0.7-0.3-1.1-0.7-1.1-1.2
		c0-0.7,0.5-1.2,1.4-1.2c0.4,0,0.8,0.1,1,0.3l-0.2,0.5c-0.2-0.1-0.4-0.2-0.8-0.2s-0.7,0.3-0.7,0.6c0,0.4,0.2,0.5,0.8,0.7
		c0.7,0.3,1,0.6,1,1.3s-0.6,1.3-1.5,1.3c-0.4,0-0.8-0.1-1.1-0.3L341.8,158z"/>
</g>
<g>
	<path class="st19" d="M291.7,174.2c-0.2,0.1-0.6,0.2-1.1,0.2c-1.2,0-2-0.9-2-2.1s0.8-2.2,2.1-2.2c0.4,0,0.8,0.1,1,0.2l-0.2,0.6
		c-0.2-0.1-0.4-0.2-0.8-0.2c-0.9,0-1.4,0.7-1.4,1.6c0,1,0.6,1.6,1.4,1.6c0.4,0,0.7-0.1,0.9-0.2L291.7,174.2z"/>
	<path class="st19" d="M294.1,174.5c-1.1,0-1.9-0.8-1.9-2.2s0.9-2.2,2-2.2s1.9,0.9,1.9,2.1C296.1,173.8,295.1,174.5,294.1,174.5
		L294.1,174.5z M294.1,173.9c0.7,0,1.2-0.7,1.2-1.6c0-0.7-0.3-1.6-1.2-1.6c-0.8,0-1.2,0.8-1.2,1.6
		C292.9,173.2,293.4,173.9,294.1,173.9L294.1,173.9z"/>
	<path class="st19" d="M297,171.3c0-0.4,0-0.8,0-1.1h0.6v0.7l0,0c0.2-0.4,0.6-0.8,1.3-0.8c0.5,0,0.9,0.3,1.1,0.8l0,0
		c0.1-0.2,0.3-0.4,0.5-0.5c0.2-0.2,0.5-0.3,0.9-0.3c0.5,0,1.3,0.4,1.3,1.8v2.5H302V172c0-0.8-0.3-1.3-0.9-1.3
		c-0.4,0-0.7,0.3-0.9,0.7c0,0.1-0.1,0.3-0.1,0.4v2.6h-0.7v-2.5c0-0.7-0.3-1.1-0.8-1.1c-0.4,0-0.8,0.4-0.9,0.8c0,0.1-0.1,0.2-0.1,0.4
		v2.5H297L297,171.3L297,171.3z"/>
	<path class="st19" d="M303.9,171.6c0-0.5,0-1,0-1.4h0.7v0.7l0,0c0.3-0.5,0.8-0.8,1.4-0.8c1,0,1.7,0.9,1.7,2.1
		c0,1.5-0.9,2.2-1.8,2.2c-0.5,0-1-0.2-1.2-0.7l0,0v2.3H304L303.9,171.6L303.9,171.6z M304.6,172.7c0,0.1,0,0.2,0,0.3
		c0.1,0.5,0.6,0.9,1.1,0.9c0.8,0,1.2-0.7,1.2-1.6c0-0.8-0.4-1.6-1.2-1.6c-0.5,0-1,0.4-1.1,0.9c0,0.1,0,0.2,0,0.3V172.7z"/>
	<path class="st19" d="M311.4,173.4c0,0.4,0,0.7,0.1,1h-0.7l-0.1-0.5l0,0c-0.2,0.3-0.7,0.6-1.2,0.6c-0.8,0-1.2-0.6-1.2-1.2
		c0-1,0.9-1.6,2.4-1.6v-0.1c0-0.3-0.1-1-0.9-1c-0.4,0-0.8,0.1-1,0.3l-0.2-0.5c0.3-0.2,0.8-0.4,1.3-0.4c1.2,0,1.5,0.9,1.5,1.7
		L311.4,173.4L311.4,173.4z M310.7,172.3c-0.8,0-1.7,0.1-1.7,0.9c0,0.5,0.3,0.7,0.7,0.7c0.5,0,0.9-0.3,1-0.7c0-0.1,0-0.2,0-0.2
		V172.3L310.7,172.3z"/>
	<path class="st19" d="M313.4,169.2v1h1v0.6h-1v2.3c0,0.5,0.1,0.8,0.5,0.8c0.2,0,0.3,0,0.4-0.1v0.6c-0.1,0.1-0.4,0.1-0.6,0.1
		c-0.3,0-0.6-0.1-0.8-0.3c-0.2-0.2-0.3-0.6-0.3-1.1v-2.3H312v-0.6h0.6v-0.8L313.4,169.2z"/>
	<path class="st19" d="M315.6,169.4c-0.3,0-0.5-0.2-0.5-0.5s0.2-0.5,0.5-0.5s0.5,0.2,0.5,0.5S315.9,169.4,315.6,169.4L315.6,169.4z
		 M315.2,174.4v-4.2h0.7v4.2H315.2z"/>
	<path class="st19" d="M317.2,168.2h0.7v2.6l0,0c0.3-0.5,0.7-0.8,1.4-0.8c1,0,1.7,0.9,1.7,2.1c0,1.5-0.9,2.2-1.8,2.2
		c-0.6,0-1-0.2-1.3-0.8l0,0v0.7h-0.6c0-0.3,0-0.7,0-1.1L317.2,168.2L317.2,168.2z M317.9,172.7c0,0.1,0,0.2,0,0.3
		c0.1,0.5,0.6,0.9,1.1,0.9c0.8,0,1.2-0.6,1.2-1.6c0-0.8-0.4-1.6-1.2-1.6c-0.5,0-1,0.4-1.1,0.9c0,0.1,0,0.2,0,0.3V172.7L317.9,172.7z
		"/>
	<path class="st19" d="M321.8,168.2h0.7v6.1h-0.7V168.2z"/>
	<path class="st19" d="M324.2,172.4c0,1,0.6,1.5,1.4,1.5c0.5,0,0.8-0.1,1.1-0.2l0.1,0.5c-0.3,0.1-0.7,0.3-1.3,0.3
		c-1.2,0-2-0.9-2-2.1c0-1.3,0.7-2.3,1.9-2.3c1.3,0,1.6,1.2,1.6,2c0,0.2,0,0.3,0,0.4L324.2,172.4z M326.3,171.9c0-0.5-0.2-1.2-1-1.2
		c-0.7,0-1.1,0.7-1.1,1.2H326.3z"/>
	<path class="st19" d="M329.7,171.3c0-0.4,0-0.8,0-1.1h0.6v0.7l0,0c0.2-0.4,0.6-0.8,1.3-0.8c0.5,0,0.9,0.3,1.1,0.8l0,0
		c0.1-0.2,0.3-0.4,0.5-0.5c0.2-0.2,0.5-0.3,0.9-0.3c0.5,0,1.3,0.4,1.3,1.8v2.5h-0.7V172c0-0.8-0.3-1.3-0.9-1.3
		c-0.4,0-0.7,0.3-0.9,0.7c0,0.1-0.1,0.3-0.1,0.4v2.6h-0.7v-2.5c0-0.7-0.3-1.1-0.8-1.1c-0.4,0-0.8,0.4-0.9,0.8c0,0.1-0.1,0.2-0.1,0.4
		v2.5h-0.7L329.7,171.3L329.7,171.3z"/>
	<path class="st19" d="M339.9,173.2c0,0.4,0,0.8,0,1.1h-0.6v-0.7l0,0c-0.2,0.3-0.6,0.8-1.3,0.8c-0.6,0-1.4-0.4-1.4-1.8v-2.4h0.7v2.3
		c0,0.8,0.2,1.3,0.9,1.3c0.5,0,0.8-0.4,1-0.7c0-0.1,0.1-0.2,0.1-0.4v-2.5h0.7L339.9,173.2L339.9,173.2z"/>
	<path class="st19" d="M341.9,169.2v1h1v0.6h-1v2.3c0,0.5,0.1,0.8,0.5,0.8c0.2,0,0.3,0,0.4-0.1v0.6c-0.1,0.1-0.4,0.1-0.6,0.1
		c-0.3,0-0.6-0.1-0.8-0.3c-0.2-0.2-0.3-0.6-0.3-1.1v-2.3h-0.6v-0.6h0.6v-0.8L341.9,169.2z"/>
	<path class="st19" d="M346.6,173.4c0,0.4,0,0.7,0.1,1H346l-0.1-0.5l0,0c-0.2,0.3-0.7,0.6-1.2,0.6c-0.8,0-1.2-0.6-1.2-1.2
		c0-1,0.9-1.6,2.4-1.6v-0.1c0-0.3-0.1-1-0.9-1c-0.4,0-0.8,0.1-1,0.3l-0.2-0.5c0.3-0.2,0.8-0.4,1.3-0.4c1.2,0,1.5,0.9,1.5,1.7
		L346.6,173.4L346.6,173.4z M345.9,172.3c-0.8,0-1.7,0.1-1.7,0.9c0,0.5,0.3,0.7,0.7,0.7c0.5,0,0.9-0.3,1-0.7c0-0.1,0-0.2,0-0.2
		V172.3L345.9,172.3z"/>
	<path class="st19" d="M348.6,169.2v1h1v0.6h-1v2.3c0,0.5,0.1,0.8,0.5,0.8c0.2,0,0.3,0,0.4-0.1v0.6c-0.1,0.1-0.4,0.1-0.6,0.1
		c-0.3,0-0.6-0.1-0.8-0.3c-0.2-0.2-0.3-0.6-0.3-1.1v-2.3h-0.6v-0.6h0.6v-0.8L348.6,169.2z"/>
	<path class="st19" d="M350.8,169.4c-0.3,0-0.5-0.2-0.5-0.5s0.2-0.5,0.5-0.5s0.5,0.2,0.5,0.5S351.1,169.4,350.8,169.4L350.8,169.4z
		 M350.5,174.4v-4.2h0.7v4.2H350.5z"/>
	<path class="st19" d="M354,174.5c-1.1,0-1.9-0.8-1.9-2.2s0.9-2.2,2-2.2s1.9,0.9,1.9,2.1C356,173.8,355,174.5,354,174.5L354,174.5z
		 M354,173.9c0.7,0,1.2-0.7,1.2-1.6c0-0.7-0.3-1.6-1.2-1.6c-0.8,0-1.2,0.8-1.2,1.6C352.8,173.2,353.3,173.9,354,173.9L354,173.9z"/>
	<path class="st19" d="M356.9,171.3c0-0.4,0-0.8,0-1.1h0.6v0.7l0,0c0.2-0.4,0.7-0.8,1.3-0.8s1.4,0.3,1.4,1.8v2.5h-0.7V172
		c0-0.7-0.2-1.2-0.9-1.2c-0.5,0-0.8,0.4-1,0.8c0,0.1-0.1,0.2-0.1,0.4v2.5h-0.7L356.9,171.3L356.9,171.3z"/>
	<path class="st19" d="M361.4,173.6c0.2,0.1,0.6,0.3,1,0.3c0.5,0,0.8-0.3,0.8-0.6c0-0.4-0.2-0.6-0.7-0.8c-0.7-0.3-1.1-0.7-1.1-1.2
		c0-0.7,0.5-1.2,1.4-1.2c0.4,0,0.8,0.1,1,0.3l-0.2,0.5c-0.2-0.1-0.4-0.2-0.8-0.2s-0.7,0.3-0.7,0.6c0,0.4,0.2,0.5,0.7,0.7
		c0.7,0.3,1,0.6,1,1.3s-0.6,1.3-1.5,1.3c-0.4,0-0.8-0.1-1.1-0.3L361.4,173.6z"/>
</g>
<g>
	<path class="st19" d="M288.8,178.9c0-0.4,0-0.8,0-1.1h0.6v0.7l0,0c0.2-0.4,0.7-0.8,1.3-0.8s1.4,0.3,1.4,1.8v2.5h-0.7v-2.4
		c0-0.7-0.2-1.2-0.9-1.2c-0.5,0-0.8,0.4-1,0.8c0,0.1,0,0.2,0,0.4v2.5h-0.7L288.8,178.9L288.8,178.9z"/>
	<path class="st19" d="M295,182c-1.1,0-1.9-0.8-1.9-2.2s0.9-2.2,2-2.2s1.9,0.9,1.9,2.1C297,181.4,296,182,295,182L295,182z
		 M295,181.5c0.7,0,1.2-0.7,1.2-1.6c0-0.7-0.3-1.6-1.2-1.6c-0.8,0-1.2,0.8-1.2,1.6C293.8,180.8,294.3,181.5,295,181.5L295,181.5z"/>
	<path class="st19" d="M299.7,178.9c0-0.4,0-0.8,0-1.1h0.6v0.7l0,0c0.2-0.4,0.6-0.8,1.3-0.8c0.5,0,0.9,0.3,1.1,0.8l0,0
		c0.1-0.2,0.3-0.4,0.5-0.5c0.2-0.2,0.5-0.3,0.9-0.3c0.5,0,1.3,0.4,1.3,1.8v2.5h-0.7v-2.4c0-0.8-0.3-1.3-0.9-1.3
		c-0.4,0-0.7,0.3-0.9,0.7c0,0.1-0.1,0.3-0.1,0.4v2.6h-0.7v-2.5c0-0.7-0.3-1.1-0.8-1.1c-0.4,0-0.8,0.4-0.9,0.8c0,0.1-0.1,0.2-0.1,0.4
		v2.5h-0.7L299.7,178.9L299.7,178.9z"/>
	<path class="st19" d="M309.9,180.8c0,0.4,0,0.8,0,1.1h-0.6v-0.7l0,0c-0.2,0.3-0.6,0.8-1.3,0.8c-0.6,0-1.4-0.4-1.4-1.8v-2.4h0.7v2.3
		c0,0.8,0.2,1.3,0.9,1.3c0.5,0,0.8-0.4,1-0.7c0-0.1,0.1-0.2,0.1-0.4v-2.6h0.7L309.9,180.8L309.9,180.8z"/>
	<path class="st19" d="M312,176.8v1h1v0.6h-1v2.3c0,0.5,0.1,0.8,0.5,0.8c0.2,0,0.3,0,0.4-0.1v0.6c-0.1,0.1-0.4,0.1-0.6,0.1
		c-0.3,0-0.6-0.1-0.8-0.3c-0.2-0.2-0.3-0.6-0.3-1.1v-2.3h-0.6v-0.6h0.6V177L312,176.8z"/>
	<path class="st19" d="M316.6,180.9c0,0.4,0,0.7,0.1,1H316l-0.1-0.5l0,0c-0.2,0.3-0.7,0.6-1.2,0.6c-0.8,0-1.2-0.6-1.2-1.2
		c0-1,0.9-1.6,2.4-1.6l0,0c0-0.3-0.1-1-0.9-1c-0.4,0-0.8,0.1-1,0.3l-0.2-0.5c0.3-0.2,0.8-0.4,1.3-0.4c1.2,0,1.5,0.9,1.5,1.7
		L316.6,180.9L316.6,180.9z M315.9,179.8c-0.8,0-1.7,0.1-1.7,0.9c0,0.5,0.3,0.7,0.7,0.7c0.5,0,0.9-0.3,1-0.7c0-0.1,0-0.2,0-0.2
		V179.8L315.9,179.8z"/>
	<path class="st19" d="M318.6,176.8v1h1v0.6h-1v2.3c0,0.5,0.1,0.8,0.5,0.8c0.2,0,0.3,0,0.4-0.1v0.6c-0.1,0.1-0.4,0.1-0.6,0.1
		c-0.3,0-0.6-0.1-0.8-0.3c-0.2-0.2-0.3-0.6-0.3-1.1v-2.3h-0.6v-0.6h0.6V177L318.6,176.8z"/>
	<path class="st19" d="M320.8,177c-0.3,0-0.5-0.2-0.5-0.5s0.2-0.5,0.5-0.5s0.5,0.2,0.5,0.5S321.1,177,320.8,177L320.8,177z
		 M320.5,182v-4.2h0.7v4.2H320.5z"/>
	<path class="st19" d="M324,182c-1.1,0-1.9-0.8-1.9-2.2s0.9-2.2,2-2.2s1.9,0.9,1.9,2.1C326,181.4,325,182,324,182L324,182z
		 M324.1,181.5c0.7,0,1.2-0.7,1.2-1.6c0-0.7-0.3-1.6-1.2-1.6c-0.8,0-1.2,0.8-1.2,1.6C322.9,180.8,323.4,181.5,324.1,181.5
		L324.1,181.5z"/>
	<path class="st19" d="M326.9,178.9c0-0.4,0-0.8,0-1.1h0.6v0.7l0,0c0.2-0.4,0.7-0.8,1.3-0.8s1.4,0.3,1.4,1.8v2.5h-0.7v-2.4
		c0-0.7-0.2-1.2-0.9-1.2c-0.5,0-0.8,0.4-1,0.8c0,0.1,0,0.2,0,0.4v2.5h-0.7L326.9,178.9L326.9,178.9z"/>
	<path class="st19" d="M331.4,181.2c0.2,0.1,0.6,0.3,1,0.3c0.5,0,0.8-0.3,0.8-0.6c0-0.4-0.2-0.6-0.7-0.8c-0.7-0.3-1.1-0.7-1.1-1.2
		c0-0.7,0.5-1.2,1.4-1.2c0.4,0,0.8,0.1,1,0.3l-0.2,0.5c-0.2-0.1-0.4-0.2-0.8-0.2s-0.7,0.3-0.7,0.6c0,0.4,0.2,0.5,0.7,0.7
		c0.7,0.3,1,0.6,1,1.3s-0.6,1.3-1.5,1.3c-0.4,0-0.8-0.1-1.1-0.3L331.4,181.2z"/>
	<path class="st19" d="M338.1,182c-1.1,0-1.9-0.8-1.9-2.2s0.9-2.2,2-2.2s1.9,0.9,1.9,2.1C340.1,181.4,339.1,182,338.1,182L338.1,182
		z M338.2,181.5c0.7,0,1.2-0.7,1.2-1.6c0-0.7-0.3-1.6-1.2-1.6c-0.8,0-1.2,0.8-1.2,1.6C337,180.8,337.5,181.5,338.2,181.5
		L338.2,181.5z"/>
	<path class="st19" d="M341,175.8h0.7v2.6l0,0c0.3-0.5,0.7-0.8,1.4-0.8c1,0,1.7,0.9,1.7,2.1c0,1.5-0.9,2.2-1.8,2.2
		c-0.6,0-1-0.2-1.3-0.8l0,0v0.7H341c0-0.3,0-0.7,0-1.1L341,175.8L341,175.8z M341.8,180.3c0,0.1,0,0.2,0,0.3
		c0.1,0.5,0.6,0.9,1.1,0.9c0.8,0,1.2-0.6,1.2-1.6c0-0.8-0.4-1.6-1.2-1.6c-0.5,0-1,0.4-1.1,0.9c0,0.1,0,0.2,0,0.3V180.3L341.8,180.3z
		"/>
	<path class="st19" d="M345.6,181.2c0.2,0.1,0.6,0.3,1,0.3c0.5,0,0.8-0.3,0.8-0.6c0-0.4-0.2-0.6-0.7-0.8c-0.7-0.3-1.1-0.7-1.1-1.2
		c0-0.7,0.5-1.2,1.4-1.2c0.4,0,0.8,0.1,1,0.3l-0.2,0.5c-0.2-0.1-0.4-0.2-0.8-0.2s-0.7,0.3-0.7,0.6c0,0.4,0.2,0.5,0.8,0.7
		c0.7,0.3,1,0.6,1,1.3s-0.6,1.3-1.5,1.3c-0.4,0-0.8-0.1-1.1-0.3L345.6,181.2z"/>
	<path class="st19" d="M349.4,180c0,1,0.6,1.5,1.4,1.5c0.5,0,0.8-0.1,1.1-0.2l0.1,0.5c-0.3,0.1-0.7,0.3-1.3,0.3c-1.2,0-2-0.9-2-2.1
		c0-1.3,0.7-2.3,1.9-2.3c1.3,0,1.6,1.2,1.6,2c0,0.2,0,0.3,0,0.4L349.4,180z M351.5,179.4c0-0.5-0.2-1.2-1-1.2
		c-0.7,0-1.1,0.7-1.1,1.2H351.5z"/>
	<path class="st19" d="M353.1,179.1c0-0.5,0-0.9,0-1.3h0.6v0.8l0,0c0.2-0.6,0.6-0.9,1.1-0.9c0.1,0,0.1,0,0.2,0v0.7
		c-0.1,0-0.2,0-0.3,0c-0.5,0-0.9,0.4-1,1c0,0.1,0,0.2,0,0.4v2.2H353L353.1,179.1z"/>
	<path class="st19" d="M356.3,177.8l0.8,2.3c0.1,0.4,0.2,0.7,0.3,1.1l0,0c0.1-0.3,0.2-0.7,0.3-1.1l0.8-2.3h0.8l-1.6,4.2H357
		l-1.5-4.2H356.3z"/>
	<path class="st19" d="M360.3,180c0,1,0.6,1.5,1.4,1.5c0.5,0,0.8-0.1,1.1-0.2l0.1,0.5c-0.3,0.1-0.7,0.3-1.3,0.3c-1.2,0-2-0.9-2-2.1
		c0-1.3,0.7-2.3,1.9-2.3c1.3,0,1.6,1.2,1.6,2c0,0.2,0,0.3,0,0.4L360.3,180z M362.4,179.4c0-0.5-0.2-1.2-1-1.2
		c-0.7,0-1.1,0.7-1.1,1.2H362.4z"/>
	<path class="st19" d="M367.5,175.8v5.1c0,0.4,0,0.8,0,1.1h-0.7v-0.7l0,0c-0.2,0.5-0.7,0.8-1.4,0.8c-1,0-1.7-0.9-1.7-2.1
		c0-1.4,0.8-2.2,1.8-2.2c0.6,0,1,0.3,1.2,0.6l0,0v-2.5C366.8,175.8,367.5,175.8,367.5,175.8z M366.8,179.5c0-0.1,0-0.2,0-0.3
		c-0.1-0.5-0.5-0.9-1-0.9c-0.7,0-1.2,0.7-1.2,1.6c0,0.9,0.4,1.6,1.2,1.6c0.5,0,0.9-0.3,1.1-0.9c0-0.1,0-0.2,0-0.3L366.8,179.5
		L366.8,179.5z"/>
</g>
<rect x="270.4" y="177.6" class="st20" width="4.2" height="4.4"/>
<rect x="280.3" y="177.6" class="st20" width="4.2" height="4.4"/>
<rect x="274.6" y="177.6" class="st20" width="5.7" height="4.4"/>
<line class="st21" x1="277.4" y1="180" x2="277.4" y2="179.5"/>
<rect x="280.3" y="162.4" class="st22" width="4.4" height="4.2"/>
<rect x="270.4" y="162.4" class="st22" width="4.4" height="4.2"/>
<rect x="274.7" y="162.4" class="st22" width="5.5" height="4.2"/>
<line class="st14" x1="278.3" y1="164.5" x2="276.7" y2="164.5"/>
<rect x="280.3" y="170" class="st23" width="4.4" height="4.2"/>
<rect x="270.4" y="170" class="st23" width="4.4" height="4.2"/>
<rect x="274.7" y="170" class="st23" width="5.5" height="4.2"/>
<line class="st14" x1="278.3" y1="172.1" x2="276.7" y2="172.1"/>
<g>
	<line class="st24" x1="277.7" y1="250.1" x2="290" y2="250.1"/>
	<g>
		<path class="st12" d="M295.6,248.4l0.8,2.3c0.1,0.4,0.2,0.7,0.3,1.1l0,0c0.1-0.3,0.2-0.7,0.3-1.1l0.8-2.3h0.8l-1.6,4.2h-0.7
			l-1.5-4.2H295.6z"/>
		<path class="st12" d="M302,251.6c0,0.4,0,0.7,0.1,1h-0.7l-0.1-0.5l0,0c-0.2,0.3-0.7,0.6-1.2,0.6c-0.8,0-1.2-0.6-1.2-1.2
			c0-1,0.9-1.6,2.4-1.6v-0.1c0-0.3-0.1-1-0.9-1c-0.4,0-0.8,0.1-1,0.3l-0.2-0.5c0.3-0.2,0.8-0.4,1.3-0.4c1.2,0,1.5,0.9,1.5,1.7
			L302,251.6L302,251.6z M301.3,250.5c-0.8,0-1.7,0.1-1.7,0.9c0,0.5,0.3,0.7,0.7,0.7c0.5,0,0.9-0.3,1-0.7c0-0.1,0-0.2,0-0.2V250.5z"
			/>
		<path class="st12" d="M303.2,249.8c0-0.5,0-0.9,0-1.3h0.6v0.8l0,0c0.2-0.6,0.6-0.9,1.1-0.9c0.1,0,0.1,0,0.2,0v0.7
			c-0.1,0-0.2,0-0.3,0c-0.5,0-0.9,0.4-1,1c0,0.1,0,0.2,0,0.4v2.2h-0.7L303.2,249.8z"/>
		<path class="st12" d="M306.3,247.7c-0.3,0-0.5-0.2-0.5-0.5s0.2-0.5,0.5-0.5s0.5,0.2,0.5,0.5S306.6,247.7,306.3,247.7L306.3,247.7z
			 M305.9,252.6v-4.2h0.7v4.2H305.9z"/>
		<path class="st12" d="M310.7,251.6c0,0.4,0,0.7,0.1,1h-0.7l-0.1-0.5l0,0c-0.2,0.3-0.7,0.6-1.2,0.6c-0.8,0-1.2-0.6-1.2-1.2
			c0-1,0.9-1.6,2.4-1.6v-0.1c0-0.3-0.1-1-0.9-1c-0.4,0-0.8,0.1-1,0.3l-0.2-0.5c0.3-0.2,0.8-0.4,1.3-0.4c1.2,0,1.5,0.9,1.5,1.7
			L310.7,251.6L310.7,251.6z M309.9,250.5c-0.8,0-1.7,0.1-1.7,0.9c0,0.5,0.3,0.7,0.7,0.7c0.5,0,0.9-0.3,1-0.7c0-0.1,0-0.2,0-0.2
			V250.5z"/>
		<path class="st12" d="M311.8,246.5h0.7v2.6l0,0c0.3-0.5,0.7-0.8,1.4-0.8c1,0,1.7,0.9,1.7,2.1c0,1.5-0.9,2.2-1.8,2.2
			c-0.6,0-1-0.2-1.3-0.8l0,0v0.7h-0.7c0-0.3,0-0.7,0-1.1L311.8,246.5L311.8,246.5z M312.5,251c0,0.1,0,0.2,0,0.3
			c0.1,0.5,0.6,0.9,1.1,0.9c0.8,0,1.2-0.6,1.2-1.6c0-0.8-0.4-1.6-1.2-1.6c-0.5,0-1,0.4-1.1,0.9c0,0.1,0,0.2,0,0.3V251L312.5,251z"/>
		<path class="st12" d="M316.5,246.5h0.7v6.1h-0.7V246.5z"/>
		<path class="st12" d="M318.8,250.7c0,1,0.6,1.5,1.4,1.5c0.5,0,0.8-0.1,1.1-0.2l0.1,0.5c-0.3,0.1-0.7,0.3-1.3,0.3
			c-1.2,0-2-0.9-2-2.1c0-1.3,0.7-2.3,1.9-2.3c1.3,0,1.6,1.2,1.6,2c0,0.2,0,0.3,0,0.4L318.8,250.7z M321,250.1c0-0.5-0.2-1.2-1-1.2
			c-0.7,0-1.1,0.7-1.1,1.2H321z"/>
		<path class="st12" d="M324.2,250v0.6h-2V250H324.2z"/>
		<path class="st12" d="M325.1,246.5h0.7v6.1h-0.7V246.5z"/>
		<path class="st12" d="M327.4,250.7c0,1,0.6,1.5,1.4,1.5c0.5,0,0.8-0.1,1.1-0.2l0.1,0.5c-0.3,0.1-0.7,0.3-1.3,0.3
			c-1.2,0-2-0.9-2-2.1c0-1.3,0.7-2.3,1.9-2.3c1.3,0,1.6,1.2,1.6,2c0,0.2,0,0.3,0,0.4L327.4,250.7z M329.6,250.1c0-0.5-0.2-1.2-1-1.2
			c-0.7,0-1.1,0.7-1.1,1.2H329.6z"/>
		<path class="st12" d="M331.2,249.6c0-0.4,0-0.8,0-1.1h0.6v0.7l0,0c0.2-0.4,0.7-0.8,1.3-0.8s1.4,0.3,1.4,1.8v2.5h-0.7v-2.4
			c0-0.7-0.2-1.2-0.9-1.2c-0.5,0-0.8,0.4-1,0.8c0,0.1-0.1,0.2-0.1,0.4v2.5h-0.7L331.2,249.6L331.2,249.6z"/>
		<path class="st12" d="M339.1,252c0,1-0.2,1.5-0.6,1.9s-1,0.5-1.5,0.5s-1-0.1-1.3-0.3l0.2-0.6c0.3,0.2,0.7,0.3,1.2,0.3
			c0.7,0,1.3-0.4,1.3-1.5v-0.5l0,0c-0.2,0.4-0.7,0.7-1.3,0.7c-1,0-1.7-0.9-1.7-2c0-1.4,0.9-2.2,1.8-2.2c0.7,0,1.1,0.4,1.2,0.7l0,0
			v-0.6h0.6c0,0.3,0,0.6,0,1.1L339.1,252L339.1,252z M338.4,250.1c0-0.1,0-0.2,0-0.3c-0.1-0.4-0.5-0.8-1-0.8c-0.7,0-1.2,0.6-1.2,1.6
			c0,0.8,0.4,1.5,1.2,1.5c0.5,0,0.9-0.3,1-0.8c0-0.1,0.1-0.3,0.1-0.4v-0.8L338.4,250.1L338.4,250.1z"/>
		<path class="st12" d="M341.2,247.4v1h1v0.6h-1v2.3c0,0.5,0.1,0.8,0.5,0.8c0.2,0,0.3,0,0.4-0.1v0.6c-0.1,0.1-0.4,0.1-0.6,0.1
			c-0.3,0-0.6-0.1-0.8-0.3c-0.2-0.2-0.3-0.6-0.3-1.1V249h-0.6v-0.6h0.6v-0.8L341.2,247.4z"/>
		<path class="st12" d="M343.1,246.5h0.7v2.6l0,0c0.1-0.2,0.3-0.4,0.5-0.5s0.5-0.2,0.7-0.2c0.5,0,1.4,0.3,1.4,1.8v2.5h-0.7v-2.4
			c0-0.7-0.2-1.2-0.9-1.2c-0.5,0-0.8,0.3-1,0.8c0,0.1-0.1,0.2-0.1,0.4v2.5H343L343.1,246.5L343.1,246.5z"/>
		<path class="st12" d="M349.4,249.8c0-0.5,0-0.9,0-1.3h0.6v0.8l0,0c0.2-0.6,0.6-0.9,1.1-0.9c0.1,0,0.1,0,0.2,0v0.7
			c-0.1,0-0.2,0-0.3,0c-0.5,0-0.9,0.4-1,1c0,0.1,0,0.2,0,0.4v2.2h-0.7L349.4,249.8z"/>
		<path class="st12" d="M352.4,250.7c0,1,0.6,1.5,1.4,1.5c0.5,0,0.8-0.1,1.1-0.2l0.1,0.5c-0.3,0.1-0.7,0.3-1.3,0.3
			c-1.2,0-2-0.9-2-2.1c0-1.3,0.7-2.3,1.9-2.3c1.3,0,1.6,1.2,1.6,2c0,0.2,0,0.3,0,0.4L352.4,250.7z M354.6,250.1c0-0.5-0.2-1.2-1-1.2
			c-0.7,0-1.1,0.7-1.1,1.2H354.6z"/>
		<path class="st12" d="M359.6,252c0,1-0.2,1.5-0.6,1.9s-1,0.5-1.5,0.5s-1-0.1-1.3-0.3l0.2-0.6c0.3,0.2,0.7,0.3,1.2,0.3
			c0.7,0,1.3-0.4,1.3-1.5v-0.5l0,0c-0.2,0.4-0.7,0.7-1.3,0.7c-1,0-1.7-0.9-1.7-2c0-1.4,0.9-2.2,1.8-2.2c0.7,0,1.1,0.4,1.2,0.7l0,0
			v-0.6h0.6c0,0.3,0,0.6,0,1.1L359.6,252L359.6,252z M358.9,250.1c0-0.1,0-0.2,0-0.3c-0.1-0.4-0.5-0.8-1-0.8c-0.7,0-1.2,0.6-1.2,1.6
			c0,0.8,0.4,1.5,1.2,1.5c0.5,0,0.9-0.3,1-0.8c0-0.1,0.1-0.3,0.1-0.4v-0.8L358.9,250.1L358.9,250.1z"/>
		<path class="st12" d="M361.1,247.7c-0.3,0-0.5-0.2-0.5-0.5s0.2-0.5,0.5-0.5s0.5,0.2,0.5,0.5S361.4,247.7,361.1,247.7L361.1,247.7z
			 M360.8,252.6v-4.2h0.7v4.2H360.8z"/>
		<path class="st12" d="M364.3,252.7c-1.1,0-1.9-0.8-1.9-2.2s0.9-2.2,2-2.2s1.9,0.9,1.9,2.1C366.3,252,365.3,252.7,364.3,252.7
			L364.3,252.7z M364.3,252.2c0.7,0,1.2-0.7,1.2-1.6c0-0.7-0.3-1.6-1.2-1.6c-0.8,0-1.2,0.8-1.2,1.6
			C363.1,251.5,363.6,252.2,364.3,252.2L364.3,252.2z"/>
		<path class="st12" d="M367.2,249.6c0-0.4,0-0.8,0-1.1h0.6v0.7l0,0c0.2-0.4,0.7-0.8,1.3-0.8c0.6,0,1.4,0.3,1.4,1.8v2.5h-0.7v-2.4
			c0-0.7-0.2-1.2-0.9-1.2c-0.5,0-0.8,0.4-1,0.8c0,0.1-0.1,0.2-0.1,0.4v2.5h-0.7L367.2,249.6L367.2,249.6z"/>
	</g>
</g>
<path class="st12" d="M273.7,264.1c0.4-0.1,0.9-0.1,1.4-0.1c0.8,0,1.3,0.2,1.7,0.5c0.3,0.3,0.5,0.6,0.5,1.1c0,0.8-0.5,1.3-1.1,1.5
	l0,0c0.4,0.2,0.7,0.6,0.9,1.2c0.2,0.8,0.3,1.4,0.4,1.6h-0.8c-0.1-0.2-0.2-0.7-0.4-1.4c-0.2-0.8-0.5-1.1-1.2-1.1h-0.7v2.5h-0.8
	L273.7,264.1L273.7,264.1z M274.5,266.7h0.8c0.8,0,1.3-0.4,1.3-1.1c0-0.8-0.5-1.1-1.3-1.1c-0.4,0-0.6,0-0.7,0.1L274.5,266.7
	L274.5,266.7z"/>
<path class="st12" d="M279.9,266.9v-0.5h4.5v0.5H279.9z M279.9,268.6v-0.5h4.5v0.5H279.9z"/>
<path class="st12" d="M288.1,268l-0.6,1.8h-0.7l2-5.8h0.9l2,5.8h-0.9l-0.6-1.8H288.1z M290.1,267.4l-0.6-1.7
	c-0.1-0.4-0.2-0.7-0.3-1.1l0,0c-0.1,0.3-0.2,0.7-0.3,1.1l-0.6,1.7H290.1L290.1,267.4z"/>
<path class="st12" d="M296,269.9c-1.1,0-2-0.8-2-2.2s0.9-2.2,2.1-2.2s2,0.9,2,2.1C298.1,269.3,297,269.9,296,269.9L296,269.9
	L296,269.9z M296,269.4c0.7,0,1.3-0.7,1.3-1.6c0-0.7-0.4-1.6-1.3-1.6s-1.3,0.8-1.3,1.6C294.8,268.7,295.3,269.4,296,269.4L296,269.4
	z"/>
<path class="st12" d="M299.1,267c0-0.5,0-0.9,0-1.3h0.7v0.8l0,0c0.2-0.6,0.7-0.9,1.2-0.9c0.1,0,0.1,0,0.2,0v0.7c-0.1,0-0.2,0-0.3,0
	c-0.5,0-0.9,0.4-1,1c0,0.1,0,0.2,0,0.4v2.2h-0.8L299.1,267L299.1,267z"/>
<path class="st12" d="M308.2,269.6c-0.3,0.1-1,0.3-1.8,0.3c-0.9,0-1.6-0.2-2.2-0.8c-0.5-0.5-0.8-1.3-0.8-2.2c0-1.7,1.2-3,3.2-3
	c0.7,0,1.2,0.1,1.5,0.3l-0.2,0.6c-0.3-0.1-0.7-0.3-1.3-0.3c-1.4,0-2.3,0.9-2.3,2.3c0,1.5,0.9,2.4,2.2,2.4c0.5,0,0.8-0.1,1-0.2v-1.6
	h-1.2v-0.6h1.9L308.2,269.6L308.2,269.6z"/>
<path class="st12" d="M314.2,269.8v-2.4l-1.9-3.4h0.9l0.8,1.6c0.2,0.4,0.4,0.8,0.6,1.2l0,0c0.2-0.4,0.4-0.8,0.6-1.2l0.8-1.6h0.8
	l-1.9,3.3v2.5H314.2L314.2,269.8z"/>
<path class="st12" d="M319.1,266.9v-0.5h4.5v0.5H319.1z M319.1,268.6v-0.5h4.5v0.5H319.1z"/>
<path class="st12" d="M330.5,269.7c-0.3,0.1-0.8,0.3-1.5,0.3c-1.6,0-2.9-1-2.9-3c0-1.8,1.2-3.1,3-3.1c0.7,0,1.2,0.2,1.4,0.3
	l-0.2,0.6c-0.3-0.1-0.7-0.2-1.2-0.2c-1.4,0-2.3,0.9-2.3,2.4c0,1.4,0.8,2.3,2.2,2.3c0.5,0,0.9-0.1,1.2-0.2L330.5,269.7z"/>
<path class="st12" d="M335,269.9c-1.1,0-2-0.8-2-2.2s0.9-2.2,2.1-2.2s2,0.9,2,2.1C337,269.3,336,269.9,335,269.9L335,269.9
	L335,269.9z M335,269.4c0.7,0,1.3-0.7,1.3-1.6c0-0.7-0.4-1.6-1.3-1.6s-1.3,0.8-1.3,1.6C333.7,268.7,334.2,269.4,335,269.4L335,269.4
	z"/>
<path class="st12" d="M338,267c0-0.5,0-0.9,0-1.3h0.7v0.8l0,0c0.2-0.6,0.7-0.9,1.2-0.9c0.1,0,0.1,0,0.2,0v0.7c-0.1,0-0.2,0-0.3,0
	c-0.5,0-0.9,0.4-1,1c0,0.1,0,0.2,0,0.4v2.2H338V267z"/>
<path class="st12" d="M343.4,264v3.5c0,1.3,0.6,1.9,1.4,1.9c0.9,0,1.4-0.6,1.4-1.9V264h0.8v3.4c0,1.8-0.9,2.5-2.2,2.5
	c-1.2,0-2.1-0.7-2.1-2.5V264H343.4L343.4,264z"/>
</svg>
