<svg id="图层_1" data-name="图层 1" xmlns="http://www.w3.org/2000/svg" viewBox="0 0 800 400"><defs><style>.cls-1{fill:#d7efc5;}.cls-15,.cls-2,.cls-27,.cls-29,.cls-31,.cls-33,.cls-34{fill:none;}.cls-10,.cls-15,.cls-2,.cls-27,.cls-29,.cls-31,.cls-34,.cls-6,.cls-8,.cls-9{stroke:#000;}.cls-2{stroke-width:1.44px;}.cls-12,.cls-13,.cls-14,.cls-16,.cls-17,.cls-19,.cls-20,.cls-21,.cls-22,.cls-23,.cls-24,.cls-3,.cls-4,.cls-7{isolation:isolate;}.cls-3,.cls-5{font-size:27.78px;}.cls-12,.cls-13,.cls-14,.cls-16,.cls-17,.cls-18,.cls-19,.cls-20,.cls-21,.cls-22,.cls-23,.cls-24,.cls-3,.cls-4,.cls-40,.cls-5,.cls-7{font-family:ArialMT, Arial;}.cls-12,.cls-13,.cls-14,.cls-4,.cls-7{font-size:17.36px;}.cls-14,.cls-17,.cls-19,.cls-20,.cls-4,.cls-6{fill:#d90000;}.cls-10,.cls-11,.cls-15,.cls-29,.cls-6,.cls-8,.cls-9{stroke-width:0.72px;}.cls-7{letter-spacing:-0.02em;}.cls-12,.cls-21,.cls-22,.cls-8{fill:#807b88;}.cls-10,.cls-11{fill:#fff;}.cls-11{stroke:#666;}.cls-14{letter-spacing:-0.06em;}.cls-16,.cls-18{font-size:25.45px;}.cls-17,.cls-19,.cls-20,.cls-21,.cls-22,.cls-23,.cls-24{font-size:15.91px;}.cls-17,.cls-24{letter-spacing:-0.06em;}.cls-20,.cls-22{letter-spacing:-0.02em;}.cls-25{fill:#070606;}.cls-26{fill:#fdd2d7;}.cls-27,.cls-29,.cls-31,.cls-33{stroke-miterlimit:10;}.cls-27{stroke-width:1.94px;}.cls-28{fill:#d8efb4;}.cls-30{fill:#d0d8e9;}.cls-31{stroke-width:1.5px;}.cls-32{fill:#030303;}.cls-33{stroke:#5c5c5c;}.cls-34{stroke-width:0.5px;}.cls-35{fill:#231f20;}.cls-36{fill:#d72026;}.cls-37{fill:#807c88;}.cls-38{fill:gray;}.cls-39{fill:#ce2127;}.cls-40{font-size:20px;}.cls-41{font-size:16px;font-family:AdobeSongStd-Light-GBpc-EUC-H, Adobe Song Std;}</style></defs><path class="cls-1" d="M106.88,251.56h41.84V264H106.88Z"/><path class="cls-2" d="M123.3,257.79h9"/><path class="cls-1" d="M106.88,234.06h41.84v12.46H106.88Z"/><path class="cls-2" d="M123.3,240.29h9"/><path class="cls-1" d="M106.88,216.56h41.84V229H106.88Z"/><path class="cls-2" d="M123.3,222.79h9"/><path class="cls-1" d="M106.88,199.06h41.84v12.46H106.88Z"/><path class="cls-2" d="M123.3,205.29h9"/><path class="cls-1" d="M106.88,181.56h41.84V194H106.88Z"/><path class="cls-2" d="M123.3,187.79h9"/><path class="cls-1" d="M106.88,164.06h41.84v12.46H106.88Z"/><path class="cls-2" d="M123.3,170.29h9"/><path class="cls-1" d="M106.88,146.56h41.84V159H106.88Z"/><path class="cls-2" d="M123.3,152.79h9"/><path class="cls-1" d="M106.88,129.06h41.84v12.46H106.88Z"/><path class="cls-2" d="M123.3,135.29h9"/><path class="cls-1" d="M106.88,111.56h41.84V124H106.88Z"/><path class="cls-2" d="M123.3,117.79h9"/><path class="cls-1" d="M300,251.56h41.85V264H300Z"/><path class="cls-2" d="M316.39,257.79h9"/><path class="cls-1" d="M300,234.06h41.85v12.46H300Z"/><path class="cls-2" d="M316.39,240.29h9"/><path class="cls-1" d="M300,216.56h41.85V229H300Z"/><path class="cls-2" d="M316.39,222.79h9"/><path class="cls-1" d="M300,199.06h41.85v12.46H300Z"/><path class="cls-2" d="M316.39,205.29h9"/><path class="cls-1" d="M300,181.56h41.85V194H300Z"/><path class="cls-2" d="M316.39,187.79h9"/><path class="cls-2" d="M316.39,170.29h9"/><path class="cls-2" d="M316.39,152.79h9"/><g id="text1002"><text class="cls-3" transform="translate(42 276.4)"><tspan xml:space="preserve">   </tspan></text><text class="cls-4" transform="translate(42 276.4)">G</text><text class="cls-5" transform="translate(55.51 276.4)"> </text></g><g id="text1004"><text class="cls-3" transform="translate(59.5 276.4)"><tspan xml:space="preserve">   </tspan></text><text class="cls-4" transform="translate(59.5 276.4)">G</text><text class="cls-5" transform="translate(73.01 276.4)"> </text></g><g id="text1006"><text class="cls-3" transform="translate(77 276.4)"><tspan xml:space="preserve">   </tspan></text><text class="cls-4" transform="translate(77 276.4)">G</text><text class="cls-5" transform="translate(90.51 276.4)"> </text></g><g id="text1008"><text class="cls-3" transform="translate(94.99 276.4)"><tspan xml:space="preserve">   </tspan></text><text class="cls-4" transform="translate(94.99 276.4)">U</text><text class="cls-5" transform="translate(107.53 276.4)"> </text></g><path class="cls-6" d="M119.55,257.79a5.92,5.92,0,1,1-5.92-5.92A5.92,5.92,0,0,1,119.55,257.79Z"/><g id="text1010"><text class="cls-3" transform="translate(107.84 246.52)"><tspan xml:space="preserve">   </tspan></text><text class="cls-7" transform="translate(107.84 246.52)">Y</text><text class="cls-5" transform="translate(119.42 246.52)"> </text></g><path class="cls-6" d="M119.55,222.79a5.92,5.92,0,1,1-11.84,0h0a5.92,5.92,0,0,1,11.84,0Z"/><path class="cls-8" d="M119.55,205.29a5.92,5.92,0,1,1-11.84,0h0a5.92,5.92,0,0,1,11.84,0Z"/><path class="cls-9" d="M119.55,187.79a5.92,5.92,0,1,1-5.92-5.92A5.92,5.92,0,0,1,119.55,187.79Z"/><path class="cls-6" d="M119.55,170.29a5.92,5.92,0,1,1-5.92-5.92A5.92,5.92,0,0,1,119.55,170.29Z"/><path class="cls-8" d="M119.55,152.79a5.92,5.92,0,1,1-11.84,0h0a5.92,5.92,0,0,1,11.84,0Z"/><path class="cls-10" d="M119.55,135.29a5.92,5.92,0,0,1-11.84,0h0a5.92,5.92,0,0,1,11.84,0Z"/><path class="cls-11" d="M119.55,117.79a5.92,5.92,0,1,1-11.84,0h0a5.92,5.92,0,0,1,11.84,0Z"/><g id="text1012"><text class="cls-3" transform="translate(99.49 108.39)"><tspan xml:space="preserve">   </tspan></text><text class="cls-12" transform="translate(99.49 108.39)">R</text><text class="cls-5" transform="translate(112.03 108.39)"> </text></g><path class="cls-6" d="M117.65,85.71a5.92,5.92,0,1,1-5.92-5.92A5.92,5.92,0,0,1,117.65,85.71Z"/><path class="cls-6" d="M133.72,78.78a5.92,5.92,0,1,1-5.91-5.92A5.92,5.92,0,0,1,133.72,78.78Z"/><path class="cls-9" d="M149.79,85.71a5.92,5.92,0,1,1-5.92-5.92A5.92,5.92,0,0,1,149.79,85.71Z"/><path class="cls-10" d="M155.76,102.16a5.92,5.92,0,1,1-5.92-5.92A5.92,5.92,0,0,1,155.76,102.16Z"/><path class="cls-11" d="M147.89,117.79a5.92,5.92,0,0,1-11.84,0h0a5.92,5.92,0,1,1,11.84,0Z"/><path class="cls-10" d="M147.89,135.29a5.92,5.92,0,0,1-11.84,0h0a5.92,5.92,0,0,1,11.84,0Z"/><path class="cls-8" d="M147.89,152.79a5.92,5.92,0,0,1-11.84,0h0a5.92,5.92,0,0,1,11.84,0Z"/><path class="cls-6" d="M147.89,170.29a5.92,5.92,0,1,1-5.92-5.92A5.92,5.92,0,0,1,147.89,170.29Z"/><path class="cls-6" d="M147.89,187.79a5.92,5.92,0,1,1-5.92-5.92A5.92,5.92,0,0,1,147.89,187.79Z"/><path class="cls-6" d="M147.89,205.29a5.92,5.92,0,0,1-11.84,0h0a5.92,5.92,0,0,1,11.84,0Z"/><path class="cls-9" d="M147.89,222.79a5.92,5.92,0,0,1-11.84,0h0a5.92,5.92,0,0,1,11.84,0Z"/><g id="text1014"><text class="cls-3" transform="translate(135.7 246.52)"><tspan xml:space="preserve">   </tspan></text><text class="cls-13" transform="translate(135.7 246.52)">R</text><text class="cls-5" transform="translate(148.24 246.52)"> </text></g><path class="cls-6" d="M147.89,257.79a5.92,5.92,0,1,1-5.92-5.92A5.92,5.92,0,0,1,147.89,257.79Z"/><g id="text1016"><text class="cls-3" transform="translate(148.55 276.4)"><tspan xml:space="preserve">   </tspan></text><text class="cls-14" transform="translate(148.55 276.4)">A</text><text class="cls-5" transform="translate(160.13 276.4)"> </text></g><g id="text1018"><text class="cls-3" transform="translate(165.09 276.4)"><tspan xml:space="preserve">   </tspan></text><text class="cls-4" transform="translate(165.09 276.4)">G</text><text class="cls-5" transform="translate(178.59 276.4)"> </text></g><g id="text1020"><text class="cls-3" transform="translate(182.59 276.4)"><tspan xml:space="preserve">   </tspan></text><text class="cls-4" transform="translate(182.59 276.4)">G</text><text class="cls-5" transform="translate(196.09 276.4)"> </text></g><path class="cls-6" d="M212.76,270.17a5.92,5.92,0,1,1-5.91-5.92A5.91,5.91,0,0,1,212.76,270.17Z"/><path class="cls-6" d="M230.26,270.17a5.92,5.92,0,1,1-5.84-5.84A5.91,5.91,0,0,1,230.26,270.17Z"/><path class="cls-6" d="M247.76,270.17a5.92,5.92,0,1,1-5.91-5.92A5.91,5.91,0,0,1,247.76,270.17Z"/><path class="cls-6" d="M265.26,270.17a5.92,5.92,0,1,1-5.92-5.92A5.92,5.92,0,0,1,265.26,270.17Z"/><path class="cls-9" d="M282.76,270.17a5.92,5.92,0,1,1-5.91-5.92A5.91,5.91,0,0,1,282.76,270.17Z"/><path class="cls-10" d="M300.26,270.17a5.92,5.92,0,1,1-5.92-5.92A5.92,5.92,0,0,1,300.26,270.17Z"/><path class="cls-6" d="M312.64,257.79a5.92,5.92,0,1,1-5.91-5.91A5.92,5.92,0,0,1,312.64,257.79Z"/><g id="text1022"><text class="cls-3" transform="translate(299.96 246.52)"><tspan xml:space="preserve">   </tspan></text><text class="cls-12" transform="translate(299.96 246.52)">G</text><text class="cls-5" transform="translate(313.47 246.52)"> </text></g><path class="cls-6" d="M312.64,222.79a5.92,5.92,0,1,1-5.91-5.91A5.92,5.92,0,0,1,312.64,222.79Z"/><path class="cls-6" d="M312.64,205.29a5.92,5.92,0,1,1-5.91-5.91A5.92,5.92,0,0,1,312.64,205.29Z"/><g id="text1024"><text class="cls-3" transform="translate(299.96 194.02)"><tspan xml:space="preserve">   </tspan></text><text class="cls-13" transform="translate(299.96 194.02)">G</text><text class="cls-5" transform="translate(313.47 194.02)"> </text></g><g id="text1026"><text class="cls-3" transform="translate(299.96 176.52)"><tspan xml:space="preserve">   </tspan></text><text class="cls-4" transform="translate(299.96 176.52)">G</text><text class="cls-5" transform="translate(313.47 176.52)"> </text></g><g id="text1028"><text class="cls-3" transform="translate(300.45 159.02)"><tspan xml:space="preserve">   </tspan></text><text class="cls-13" transform="translate(300.45 159.02)">U</text><text class="cls-5" transform="translate(312.99 159.02)"> </text></g><g id="text1030"><text class="cls-3" transform="translate(290.58 144.57)"><tspan xml:space="preserve">   </tspan></text><text class="cls-4" transform="translate(290.58 144.57)">C</text><text class="cls-5" transform="translate(303.12 144.57)"> </text></g><g id="text1032"><text class="cls-3" transform="translate(292.26 127.2)"><tspan xml:space="preserve">   </tspan></text><text class="cls-4" transform="translate(292.26 127.2)">G</text><text class="cls-5" transform="translate(305.77 127.2)"> </text></g><g id="text1034"><text class="cls-3" transform="translate(305.38 115.62)"><tspan xml:space="preserve">   </tspan></text><text class="cls-4" transform="translate(305.38 115.62)">G</text><text class="cls-5" transform="translate(318.89 115.62)"> </text></g><g id="text1036"><text class="cls-3" transform="translate(322.88 115.62)"><tspan xml:space="preserve">   </tspan></text><text class="cls-4" transform="translate(322.88 115.62)">G</text><text class="cls-5" transform="translate(336.39 115.62)"> </text></g><g id="text1038"><text class="cls-3" transform="translate(336.49 127.2)"><tspan xml:space="preserve">   </tspan></text><text class="cls-4" transform="translate(336.49 127.2)">C</text><text class="cls-5" transform="translate(349.02 127.2)"> </text></g><g id="text1040"><text class="cls-3" transform="translate(338.66 144.57)"><tspan xml:space="preserve">   </tspan></text><text class="cls-4" transform="translate(338.66 144.57)">C</text><text class="cls-5" transform="translate(351.19 144.57)"> </text></g><g id="text1042"><text class="cls-3" transform="translate(328.3 159.02)"><tspan xml:space="preserve">   </tspan></text><text class="cls-4" transform="translate(328.3 159.02)">G</text><text class="cls-5" transform="translate(341.8 159.02)"> </text></g><g id="text1044"><text class="cls-3" transform="translate(328.78 176.52)"><tspan xml:space="preserve">   </tspan></text><text class="cls-4" transform="translate(328.78 176.52)">C</text><text class="cls-5" transform="translate(341.32 176.52)"> </text></g><g id="text1046"><text class="cls-3" transform="translate(328.78 194.02)"><tspan xml:space="preserve">   </tspan></text><text class="cls-13" transform="translate(328.78 194.02)">C</text><text class="cls-5" transform="translate(341.32 194.02)"> </text></g><path class="cls-8" d="M341,205.29a5.92,5.92,0,1,1-5.92-5.92A5.92,5.92,0,0,1,341,205.29Z"/><path class="cls-9" d="M341,222.79a5.92,5.92,0,1,1-5.92-5.92,5.92,5.92,0,0,1,5.92,5.92Z"/><g id="text1048"><text class="cls-3" transform="translate(328.78 246.52)"><tspan xml:space="preserve">   </tspan></text><text class="cls-12" transform="translate(328.78 246.52)">C</text><text class="cls-5" transform="translate(341.32 246.52)"> </text></g><path class="cls-6" d="M341,257.79a5.92,5.92,0,1,1-5.92-5.92A5.92,5.92,0,0,1,341,257.79Z"/><path class="cls-15" d="M31.26,270.17H40"/><g id="text1050"><text class="cls-3" transform="translate(14.82 276.4)"><tspan xml:space="preserve">   </tspan></text><text class="cls-13" transform="translate(14.82 276.4)">5&apos;</text><text class="cls-5" transform="translate(27.79 276.4)"> </text></g><path class="cls-2" d="M564.58,261.39h8.25"/><path class="cls-2" d="M564.58,245.35h8.25"/><path class="cls-2" d="M564.58,229.32h8.25"/><path class="cls-2" d="M564.58,213.28h8.25"/><path class="cls-1" d="M549.53,191.54h38.34V203H549.53Z"/><path class="cls-2" d="M564.58,197.25h8.25"/><path class="cls-1" d="M549.53,175.5h38.34v11.42H549.53Z"/><path class="cls-2" d="M564.58,181.21h8.25"/><path class="cls-2" d="M564.58,165.18h8.25"/><path class="cls-2" d="M613.22,261.39h8.24"/><path class="cls-2" d="M613.22,245.35h8.24"/><path class="cls-2" d="M613.22,229.32h8.24"/><path class="cls-2" d="M613.22,213.28h8.24"/><path class="cls-2" d="M613.22,197.25h8.24"/><path class="cls-2" d="M613.22,181.21h8.24"/><path class="cls-2" d="M613.22,165.18h8.24"/><path class="cls-2" d="M613.22,149.14h8.24"/><path class="cls-2" d="M613.22,133.11h8.24"/><path class="cls-2" d="M613.22,117.07h8.24"/><path class="cls-2" d="M613.22,101h8.24"/><path class="cls-2" d="M613.22,85h8.24"/><path class="cls-2" d="M661.86,261.39h8.24"/><path class="cls-1" d="M646.81,239.64h38.34v11.42H646.81Z"/><path class="cls-2" d="M661.86,245.35h8.24"/><path class="cls-2" d="M661.86,229.32h8.24"/><path class="cls-2" d="M661.86,213.28h8.24"/><path class="cls-2" d="M661.86,197.25h8.24"/><path class="cls-2" d="M661.86,181.21h8.24"/><g id="text1002-2" data-name="text1002"><text class="cls-16" transform="translate(490.97 278.44)"><tspan xml:space="preserve">   </tspan></text><text class="cls-17" transform="translate(490.97 278.44)">A</text><text class="cls-18" transform="translate(501.58 278.44)"> </text></g><g id="text1004-2" data-name="text1004"><text class="cls-16" transform="translate(506.57 278.44)"><tspan xml:space="preserve">   </tspan></text><text class="cls-19" transform="translate(506.57 278.44)">U</text><text class="cls-18" transform="translate(518.06 278.44)"> </text></g><g id="text1006-2" data-name="text1006"><text class="cls-16" transform="translate(522.61 278.44)"><tspan xml:space="preserve">   </tspan></text><text class="cls-19" transform="translate(522.61 278.44)">C</text><text class="cls-18" transform="translate(534.09 278.44)"> </text></g><g id="text1008-2" data-name="text1008"><text class="cls-16" transform="translate(539.08 278.44)"><tspan xml:space="preserve">   </tspan></text><text class="cls-17" transform="translate(539.08 278.44)">A</text><text class="cls-18" transform="translate(549.69 278.44)"> </text></g><g id="text1010-2" data-name="text1010"><text class="cls-16" transform="translate(549.53 267.1)"><tspan xml:space="preserve">   </tspan></text><text class="cls-19" transform="translate(549.53 267.1)">G</text><text class="cls-18" transform="translate(561.91 267.1)"> </text></g><g id="text1012-2" data-name="text1012"><text class="cls-16" transform="translate(549.53 251.07)"><tspan xml:space="preserve">   </tspan></text><text class="cls-19" transform="translate(549.53 251.07)">G</text><text class="cls-18" transform="translate(561.91 251.07)"> </text></g><g id="text1014-2" data-name="text1014"><text class="cls-16" transform="translate(550.42 235.03)"><tspan xml:space="preserve">   </tspan></text><text class="cls-20" transform="translate(550.42 235.03)">Y</text><text class="cls-18" transform="translate(561.03 235.03)"> </text></g><g id="text1016-2" data-name="text1016"><text class="cls-16" transform="translate(549.98 218.99)"><tspan xml:space="preserve">   </tspan></text><text class="cls-21" transform="translate(549.98 218.99)">C</text><text class="cls-18" transform="translate(561.47 218.99)"> </text></g><path class="cls-8" d="M561.15,197.25a5.43,5.43,0,1,1-5.43-5.43A5.43,5.43,0,0,1,561.15,197.25Z"/><path class="cls-6" d="M561.15,181.21a5.43,5.43,0,1,1-10.85,0h0a5.43,5.43,0,0,1,10.85,0Z"/><path class="cls-10" d="M561.15,165.18a5.43,5.43,0,0,1-10.85,0h0a5.43,5.43,0,1,1,10.85,0Z"/><g id="text1018-2" data-name="text1018"><text class="cls-16" transform="translate(543.2 156.57)"><tspan xml:space="preserve">   </tspan></text><text class="cls-22" transform="translate(543.2 156.57)">Y</text><text class="cls-18" transform="translate(553.81 156.57)"> </text></g><g id="text1020-2" data-name="text1020"><text class="cls-16" transform="translate(548.68 141.5)"><tspan xml:space="preserve">   </tspan></text><text class="cls-22" transform="translate(548.68 141.5)">Y</text><text class="cls-18" transform="translate(559.29 141.5)"> </text></g><path class="cls-6" d="M574.13,129.43a5.43,5.43,0,1,1-5.42-5.42A5.44,5.44,0,0,1,574.13,129.43Z"/><path class="cls-6" d="M588.85,135.78a5.43,5.43,0,1,1-10.85,0h0a5.43,5.43,0,0,1,10.85,0Z"/><path class="cls-8" d="M594.32,150.86a5.43,5.43,0,1,1-5.42-5.43A5.42,5.42,0,0,1,594.32,150.86Z"/><path class="cls-10" d="M587.11,165.18a5.43,5.43,0,0,1-10.85,0h0a5.43,5.43,0,1,1,10.85,0Z"/><path class="cls-9" d="M587.11,181.21a5.43,5.43,0,1,1-10.85,0h0a5.43,5.43,0,0,1,10.85,0Z"/><path class="cls-9" d="M587.11,197.25a5.43,5.43,0,1,1-5.43-5.43A5.43,5.43,0,0,1,587.11,197.25Z"/><g id="text1022-2" data-name="text1022"><text class="cls-16" transform="translate(575.5 218.99)"><tspan xml:space="preserve">   </tspan></text><text class="cls-21" transform="translate(575.5 218.99)">G</text><text class="cls-18" transform="translate(587.87 218.99)"> </text></g><g id="text1024-2" data-name="text1024"><text class="cls-16" transform="translate(575.5 235.03)"><tspan xml:space="preserve">   </tspan></text><text class="cls-23" transform="translate(575.5 235.03)">G</text><text class="cls-18" transform="translate(587.87 235.03)"> </text></g><g id="text1026-2" data-name="text1026"><text class="cls-16" transform="translate(575.94 251.07)"><tspan xml:space="preserve">   </tspan></text><text class="cls-23" transform="translate(575.94 251.07)">C</text><text class="cls-18" transform="translate(587.43 251.07)"> </text></g><g id="text1028-2" data-name="text1028"><text class="cls-16" transform="translate(575.94 267.1)"><tspan xml:space="preserve">   </tspan></text><text class="cls-19" transform="translate(575.94 267.1)">C</text><text class="cls-18" transform="translate(587.43 267.1)"> </text></g><g id="text1030-2" data-name="text1030"><text class="cls-16" transform="translate(587.72 278.44)"><tspan xml:space="preserve">   </tspan></text><text class="cls-24" transform="translate(587.72 278.44)">A</text><text class="cls-18" transform="translate(598.33 278.44)"> </text></g><g id="text1032-2" data-name="text1032"><text class="cls-16" transform="translate(598.17 267.1)"><tspan xml:space="preserve">   </tspan></text><text class="cls-19" transform="translate(598.17 267.1)">G</text><text class="cls-18" transform="translate(610.55 267.1)"> </text></g><g id="text1034-2" data-name="text1034"><text class="cls-16" transform="translate(598.17 251.07)"><tspan xml:space="preserve">   </tspan></text><text class="cls-19" transform="translate(598.17 251.07)">G</text><text class="cls-18" transform="translate(610.55 251.07)"> </text></g><g id="text1036-2" data-name="text1036"><text class="cls-16" transform="translate(598.62 235.03)"><tspan xml:space="preserve">   </tspan></text><text class="cls-19" transform="translate(598.62 235.03)">C</text><text class="cls-18" transform="translate(610.11 235.03)"> </text></g><g id="text1038-2" data-name="text1038"><text class="cls-16" transform="translate(598.62 218.99)"><tspan xml:space="preserve">   </tspan></text><text class="cls-21" transform="translate(598.62 218.99)">C</text><text class="cls-18" transform="translate(610.11 218.99)"> </text></g><g id="text1040-2" data-name="text1040"><text class="cls-16" transform="translate(598.17 202.96)"><tspan xml:space="preserve">   </tspan></text><text class="cls-19" transform="translate(598.17 202.96)">G</text><text class="cls-18" transform="translate(610.55 202.96)"> </text></g><g id="text1042-2" data-name="text1042"><text class="cls-16" transform="translate(598.17 186.92)"><tspan xml:space="preserve">   </tspan></text><text class="cls-23" transform="translate(598.17 186.92)">G</text><text class="cls-18" transform="translate(610.55 186.92)"> </text></g><g id="text1044-2" data-name="text1044"><text class="cls-16" transform="translate(598.62 170.89)"><tspan xml:space="preserve">   </tspan></text><text class="cls-19" transform="translate(598.62 170.89)">C</text><text class="cls-18" transform="translate(610.11 170.89)"> </text></g><g id="text1046-2" data-name="text1046"><text class="cls-16" transform="translate(598.17 154.85)"><tspan xml:space="preserve">   </tspan></text><text class="cls-23" transform="translate(598.17 154.85)">G</text><text class="cls-18" transform="translate(610.55 154.85)"> </text></g><g id="text1048-2" data-name="text1048"><text class="cls-16" transform="translate(598.62 138.82)"><tspan xml:space="preserve">   </tspan></text><text class="cls-21" transform="translate(598.62 138.82)">C</text><text class="cls-18" transform="translate(610.11 138.82)"> </text></g><path class="cls-10" d="M609.78,117.07a5.42,5.42,0,1,1-5.41-5.42A5.42,5.42,0,0,1,609.78,117.07Z"/><path class="cls-10" d="M609.78,101a5.42,5.42,0,1,1-5.41-5.42A5.42,5.42,0,0,1,609.78,101Z"/><path class="cls-10" d="M609.78,85a5.42,5.42,0,1,1-5.41-5.42A5.42,5.42,0,0,1,609.78,85Z"/><g id="text1050-2" data-name="text1050"><text class="cls-16" transform="translate(591.84 76.39)"><tspan xml:space="preserve">   </tspan></text><text class="cls-22" transform="translate(591.84 76.39)">Y</text><text class="cls-18" transform="translate(602.45 76.39)"> </text></g><path class="cls-6" d="M608,55.61a5.43,5.43,0,1,1-5.42-5.42A5.43,5.43,0,0,1,608,55.61Z"/><path class="cls-6" d="M622.77,49.25a5.43,5.43,0,1,1-5.43-5.42A5.43,5.43,0,0,1,622.77,49.25Z"/><path class="cls-6" d="M637.49,55.61a5.43,5.43,0,1,1-5.42-5.42A5.43,5.43,0,0,1,637.49,55.61Z"/><path class="cls-10" d="M643,70.68a5.43,5.43,0,1,1-5.42-5.42A5.42,5.42,0,0,1,643,70.68Z"/><path class="cls-10" d="M635.75,85a5.43,5.43,0,1,1-5.42-5.42A5.43,5.43,0,0,1,635.75,85Z"/><path class="cls-10" d="M635.75,101a5.43,5.43,0,1,1-5.42-5.42A5.44,5.44,0,0,1,635.75,101Z"/><g id="text1052"><text class="cls-16" transform="translate(624.14 122.78)"><tspan xml:space="preserve">   </tspan></text><text class="cls-21" transform="translate(624.14 122.78)">G</text><text class="cls-18" transform="translate(636.51 122.78)"> </text></g><g id="text1054"><text class="cls-16" transform="translate(624.14 138.82)"><tspan xml:space="preserve">   </tspan></text><text class="cls-21" transform="translate(624.14 138.82)">G</text><text class="cls-18" transform="translate(636.51 138.82)"> </text></g><g id="text1056"><text class="cls-16" transform="translate(624.58 154.85)"><tspan xml:space="preserve">   </tspan></text><text class="cls-21" transform="translate(624.58 154.85)">C</text><text class="cls-18" transform="translate(636.07 154.85)"> </text></g><g id="text1058"><text class="cls-16" transform="translate(624.14 170.89)"><tspan xml:space="preserve">   </tspan></text><text class="cls-19" transform="translate(624.14 170.89)">G</text><text class="cls-18" transform="translate(636.51 170.89)"> </text></g><g id="text1060"><text class="cls-16" transform="translate(640.27 165.93)"><tspan xml:space="preserve">   </tspan></text><text class="cls-24" transform="translate(640.27 165.93)">A</text><text class="cls-18" transform="translate(650.88 165.93)"> </text></g><g id="text1062"><text class="cls-16" transform="translate(649.69 178.9)"><tspan xml:space="preserve">   </tspan></text><text class="cls-17" transform="translate(649.69 178.9)">A</text><text class="cls-18" transform="translate(660.3 178.9)"> </text></g><g id="text1064"><text class="cls-16" transform="translate(639.83 191.88)"><tspan xml:space="preserve">   </tspan></text><text class="cls-21" transform="translate(639.83 191.88)">U</text><text class="cls-18" transform="translate(651.32 191.88)"> </text></g><g id="text1066"><text class="cls-16" transform="translate(624.58 186.92)"><tspan xml:space="preserve">   </tspan></text><text class="cls-23" transform="translate(624.58 186.92)">C</text><text class="cls-18" transform="translate(636.07 186.92)"> </text></g><g id="text1068"><text class="cls-16" transform="translate(624.58 202.96)"><tspan xml:space="preserve">   </tspan></text><text class="cls-19" transform="translate(624.58 202.96)">C</text><text class="cls-18" transform="translate(636.07 202.96)"> </text></g><g id="text1070"><text class="cls-16" transform="translate(624.14 218.99)"><tspan xml:space="preserve">   </tspan></text><text class="cls-19" transform="translate(624.14 218.99)">G</text><text class="cls-18" transform="translate(636.51 218.99)"> </text></g><g id="text1072"><text class="cls-16" transform="translate(624.14 235.03)"><tspan xml:space="preserve">   </tspan></text><text class="cls-19" transform="translate(624.14 235.03)">G</text><text class="cls-18" transform="translate(636.51 235.03)"> </text></g><g id="text1074"><text class="cls-16" transform="translate(624.58 251.07)"><tspan xml:space="preserve">   </tspan></text><text class="cls-19" transform="translate(624.58 251.07)">U</text><text class="cls-18" transform="translate(636.07 251.07)"> </text></g><g id="text1076"><text class="cls-16" transform="translate(624.58 267.1)"><tspan xml:space="preserve">   </tspan></text><text class="cls-19" transform="translate(624.58 267.1)">C</text><text class="cls-18" transform="translate(636.07 267.1)"> </text></g><g id="text1078"><text class="cls-16" transform="translate(635.92 278.44)"><tspan xml:space="preserve">   </tspan></text><text class="cls-21" transform="translate(635.92 278.44)">C</text><text class="cls-18" transform="translate(647.41 278.44)"> </text></g><g id="text1080"><text class="cls-16" transform="translate(646.81 267.1)"><tspan xml:space="preserve">   </tspan></text><text class="cls-19" transform="translate(646.81 267.1)">G</text><text class="cls-18" transform="translate(659.19 267.1)"> </text></g><g id="text1082"><text class="cls-16" transform="translate(647.26 251.07)"><tspan xml:space="preserve">   </tspan></text><text class="cls-19" transform="translate(647.26 251.07)">R</text><text class="cls-18" transform="translate(658.75 251.07)"> </text></g><g id="text1084"><text class="cls-16" transform="translate(647.26 235.03)"><tspan xml:space="preserve">   </tspan></text><text class="cls-23" transform="translate(647.26 235.03)">C</text><text class="cls-18" transform="translate(658.75 235.03)"> </text></g><g id="text1086"><text class="cls-16" transform="translate(646.81 218.99)"><tspan xml:space="preserve">   </tspan></text><text class="cls-19" transform="translate(646.81 218.99)">G</text><text class="cls-18" transform="translate(659.19 218.99)"> </text></g><g id="text1088"><text class="cls-16" transform="translate(647.69 202.96)"><tspan xml:space="preserve">   </tspan></text><text class="cls-20" transform="translate(647.69 202.96)">Y</text><text class="cls-18" transform="translate(658.31 202.96)"> </text></g><g id="text1090"><text class="cls-16" transform="translate(647.26 186.92)"><tspan xml:space="preserve">   </tspan></text><text class="cls-19" transform="translate(647.26 186.92)">C</text><text class="cls-18" transform="translate(658.75 186.92)"> </text></g><g id="text1092"><text class="cls-16" transform="translate(633.73 178.32)"><tspan xml:space="preserve">   </tspan></text><text class="cls-19" transform="translate(633.73 178.32)">C</text><text class="cls-18" transform="translate(645.22 178.32)"> </text></g><g id="text1094"><text class="cls-16" transform="translate(624.56 164.86)"><tspan xml:space="preserve">   </tspan></text><text class="cls-19" transform="translate(624.56 164.86)">G</text><text class="cls-18" transform="translate(636.94 164.86)"> </text></g><g id="text1096"><text class="cls-16" transform="translate(622.68 149)"><tspan xml:space="preserve">   </tspan></text><text class="cls-19" transform="translate(622.68 149)">U</text><text class="cls-18" transform="translate(634.16 149)"> </text></g><g id="text1098"><text class="cls-16" transform="translate(627.16 133.6)"><tspan xml:space="preserve">   </tspan></text><text class="cls-19" transform="translate(627.16 133.6)">C</text><text class="cls-18" transform="translate(638.65 133.6)"> </text></g><g id="text1100"><text class="cls-16" transform="translate(637.19 121.46)"><tspan xml:space="preserve">   </tspan></text><text class="cls-19" transform="translate(637.19 121.46)">G</text><text class="cls-18" transform="translate(649.57 121.46)"> </text></g><g id="text1102"><text class="cls-16" transform="translate(652.66 114.79)"><tspan xml:space="preserve">   </tspan></text><text class="cls-17" transform="translate(652.66 114.79)">A</text><text class="cls-18" transform="translate(663.27 114.79)"> </text></g><g id="text1104"><text class="cls-16" transform="translate(668.26 114.79)"><tspan xml:space="preserve">   </tspan></text><text class="cls-19" transform="translate(668.26 114.79)">U</text><text class="cls-18" transform="translate(679.75 114.79)"> </text></g><g id="text1106"><text class="cls-16" transform="translate(683.27 121.46)"><tspan xml:space="preserve">   </tspan></text><text class="cls-17" transform="translate(683.27 121.46)">A</text><text class="cls-18" transform="translate(693.88 121.46)"> </text></g><g id="text1108"><text class="cls-16" transform="translate(693.76 133.6)"><tspan xml:space="preserve">   </tspan></text><text class="cls-17" transform="translate(693.76 133.6)">A</text><text class="cls-18" transform="translate(704.37 133.6)"> </text></g><g id="text1110"><text class="cls-16" transform="translate(697.8 149)"><tspan xml:space="preserve">   </tspan></text><text class="cls-19" transform="translate(697.8 149)">C</text><text class="cls-18" transform="translate(709.29 149)"> </text></g><g id="text1112"><text class="cls-16" transform="translate(695.47 164.86)"><tspan xml:space="preserve">   </tspan></text><text class="cls-19" transform="translate(695.47 164.86)">C</text><text class="cls-18" transform="translate(706.96 164.86)"> </text></g><path class="cls-6" d="M697.91,172.6a5.42,5.42,0,1,1-5.42-5.41A5.41,5.41,0,0,1,697.91,172.6Z"/><g id="text1114"><text class="cls-16" transform="translate(672.78 186.92)"><tspan xml:space="preserve">   </tspan></text><text class="cls-19" transform="translate(672.78 186.92)">G</text><text class="cls-18" transform="translate(685.15 186.92)"> </text></g><g id="text1116"><text class="cls-16" transform="translate(672.78 202.96)"><tspan xml:space="preserve">   </tspan></text><text class="cls-21" transform="translate(672.78 202.96)">G</text><text class="cls-18" transform="translate(685.15 202.96)"> </text></g><g id="text1118"><text class="cls-16" transform="translate(673.22 218.99)"><tspan xml:space="preserve">   </tspan></text><text class="cls-23" transform="translate(673.22 218.99)">C</text><text class="cls-18" transform="translate(684.71 218.99)"> </text></g><g id="text1120"><text class="cls-16" transform="translate(672.78 235.03)"><tspan xml:space="preserve">   </tspan></text><text class="cls-19" transform="translate(672.78 235.03)">G</text><text class="cls-18" transform="translate(685.15 235.03)"> </text></g><g id="text1122"><text class="cls-16" transform="translate(673.66 251.07)"><tspan xml:space="preserve">   </tspan></text><text class="cls-20" transform="translate(673.66 251.07)">Y</text><text class="cls-18" transform="translate(684.27 251.07)"> </text></g><g id="text1124"><text class="cls-16" transform="translate(673.22 267.1)"><tspan xml:space="preserve">   </tspan></text><text class="cls-19" transform="translate(673.22 267.1)">C</text><text class="cls-18" transform="translate(684.71 267.1)"> </text></g><g id="text1126"><text class="cls-16" transform="translate(685 278.44)"><tspan xml:space="preserve">   </tspan></text><text class="cls-24" transform="translate(685 278.44)">A</text><text class="cls-18" transform="translate(695.61 278.44)"> </text></g><g id="text1128"><text class="cls-16" transform="translate(700.59 278.44)"><tspan xml:space="preserve">   </tspan></text><text class="cls-23" transform="translate(700.59 278.44)">C</text><text class="cls-18" transform="translate(712.08 278.44)"> </text></g><g id="text1130"><text class="cls-16" transform="translate(716.18 278.44)"><tspan xml:space="preserve">   </tspan></text><text class="cls-19" transform="translate(716.18 278.44)">G</text><text class="cls-18" transform="translate(728.56 278.44)"> </text></g><path class="cls-15" d="M480.24,272.73h8"/><g id="text1132"><text class="cls-16" transform="translate(465.18 278.44)"><tspan xml:space="preserve">   </tspan></text><text class="cls-23" transform="translate(465.18 278.44)">5&apos;</text><text class="cls-18" transform="translate(477.06 278.44)"> </text></g><path class="cls-25" d="M43.87,329.08a6,6,0,0,1-2.27.5c-2.39,0-3.9-1.63-3.9-4.15A4.1,4.1,0,0,1,41.85,321a6.25,6.25,0,0,1,2,.38l-.38,1.13a4.59,4.59,0,0,0-1.64-.38c-1.76,0-2.77,1.39-2.77,3.15s1.14,3,2.65,3a5.5,5.5,0,0,0,1.76-.37Z"/><path class="cls-25" d="M48.65,329.58c-2.14,0-3.78-1.63-3.78-4.15,0-2.77,1.77-4.28,3.91-4.28s3.78,1.76,3.78,4.15c-.13,2.9-2.15,4.28-3.91,4.28Zm0-1.13c1.39,0,2.39-1.39,2.39-3.15,0-1.38-.63-3.15-2.26-3.15s-2.39,1.64-2.39,3.15c-.13,1.76.88,3.15,2.26,3.15Z"/><path class="cls-25" d="M54.7,321.27l1.51,4.54a14.09,14.09,0,0,1,.63,2.14h0a16.49,16.49,0,0,1,.63-2.14L59,321.27h1.51l-3,8.19H56.08l-2.9-8.19Z"/><path class="cls-25" d="M67.16,327.44a9.9,9.9,0,0,0,.13,2H66l-.13-1h0a2.83,2.83,0,0,1-2.39,1.26,2.31,2.31,0,0,1-2.39-2.39c0-2,1.63-3,4.66-3v-.12A1.65,1.65,0,0,0,64,322.28a3.46,3.46,0,0,0-2,.63l-.38-1a5.37,5.37,0,0,1,2.52-.75c2.39,0,3,1.76,3,3.27Zm-1.38-2.26c-1.51,0-3.28.25-3.28,1.88a1.23,1.23,0,0,0,1.26,1.39,1.92,1.92,0,0,0,1.89-1.39c0-.12.13-.37.13-.5Z"/><path class="cls-25" d="M69.43,323.79a14.82,14.82,0,0,0-.13-2.52h1.26l.13,1.64h0a2.35,2.35,0,0,1,2.14-1.76h.38v1.38H72.7a1.94,1.94,0,0,0-1.89,1.89v5.16H69.43Z"/><path class="cls-25" d="M75.47,321.27l1.64,4.79a7.82,7.82,0,0,1,.5,1.63h0a12.58,12.58,0,0,1,.51-1.76l1.51-4.78h1.51L79,326.94c-1,2.77-1.77,4.28-2.65,5.16a3.15,3.15,0,0,1-1.76.88l-.38-1.26a3.24,3.24,0,0,0,1.26-.75,4.24,4.24,0,0,0,1.14-1.64.47.47,0,0,0,.12-.38.46.46,0,0,0-.12-.37L73.71,321h1.76Z"/><path class="cls-25" d="M83.28,319.76a.9.9,0,0,1-.88-1,.79.79,0,0,1,.88-.88.86.86,0,0,1,.88.88,1,1,0,0,1-.88,1Zm-.76,9.57v-8.18h1.39v8.18Z"/><path class="cls-25" d="M86.3,323.41a12.45,12.45,0,0,0-.13-2.26h1.26l.13,1.38h0A2.81,2.81,0,0,1,90.08,321c1.13,0,2.77.63,2.77,3.53v4.91H91.46V324.8c0-1.26-.5-2.39-1.76-2.39a2,2,0,0,0-1.89,1.51c-.12.12-.12.5-.12.63v4.91H86.3Z"/><path class="cls-25" d="M101.91,328.2c0,1.89-.37,3-1.13,3.78a4.09,4.09,0,0,1-2.89,1,5.82,5.82,0,0,1-2.65-.63l.38-1.13a3.72,3.72,0,0,0,2.27.63c1.38,0,2.51-.76,2.51-2.9v-.88h0a2.7,2.7,0,0,1-2.51,1.39c-1.89,0-3.28-1.77-3.28-4,0-2.77,1.76-4.28,3.53-4.28a2.58,2.58,0,0,1,2.39,1.38h0v-1.26h1.26c0,.63-.13,1.26-.13,2.27l.25,4.66Zm-1.38-3.78a.93.93,0,0,0-.13-.63,2,2,0,0,0-2-1.64c-1.39,0-2.27,1.14-2.27,3.15,0,1.64.76,2.9,2.27,2.9a2.27,2.27,0,0,0,2-1.51,1.57,1.57,0,0,0,.13-.76Z"/><path class="cls-25" d="M107.58,323.41a12.45,12.45,0,0,0-.13-2.26h1.26l.13,1.26h0a2.65,2.65,0,0,1,2.52-1.52,2.15,2.15,0,0,1,2.14,1.64h0a2.38,2.38,0,0,1,.88-1,2.77,2.77,0,0,1,1.76-.63c1,0,2.52.76,2.52,3.53v4.79h-1.38v-4.66c0-1.64-.51-2.52-1.64-2.52a1.75,1.75,0,0,0-1.64,1.38,1.71,1.71,0,0,0-.12.76v5h-1.39v-4.92c0-1.25-.5-2.26-1.64-2.26a2,2,0,0,0-1.76,1.51,1.64,1.64,0,0,0-.12.75v4.92h-1.39Z"/><path class="cls-25" d="M127.48,327.19a12.89,12.89,0,0,0,.12,2.27h-1.26l-.12-1.39h0a2.88,2.88,0,0,1-2.52,1.51c-1.26,0-2.65-.75-2.65-3.52v-4.79h1.39v4.54c0,1.51.5,2.64,1.76,2.64a1.92,1.92,0,0,0,1.89-1.39,1.53,1.53,0,0,0,.13-.75v-5h1.38l-.12,5.92Z"/><path class="cls-25" d="M131.63,319.26v2h2v1.14h-2v4.4c0,1,.25,1.64,1,1.64a1.8,1.8,0,0,0,.88-.13l.13,1.14a3.33,3.33,0,0,1-1.26.25,2.06,2.06,0,0,1-1.51-.63,3.34,3.34,0,0,1-.51-2.14v-4.41h-1.26V321.4h1.26v-1.51Z"/><path class="cls-25" d="M140.7,327.44a10.71,10.71,0,0,0,.12,2h-1.26l-.12-1h0a2.83,2.83,0,0,1-2.39,1.26,2.31,2.31,0,0,1-2.4-2.39c0-2,1.64-3,4.66-3v-.12a1.64,1.64,0,0,0-1.76-1.89,3.49,3.49,0,0,0-2,.63l-.37-1a5.33,5.33,0,0,1,2.51-.75c2.4,0,3,1.76,3,3.27v3Zm-1.39-2.26c-1.51,0-3.27.25-3.27,1.88a1.23,1.23,0,0,0,1.26,1.39,1.94,1.94,0,0,0,1.89-1.39c0-.12.12-.37.12-.5Z"/><path class="cls-25" d="M144.6,319.26v2h2v1.14h-2v4.4c0,1,.25,1.64,1,1.64a1.8,1.8,0,0,0,.88-.13l.12,1.14a3.23,3.23,0,0,1-1.25.25,2.1,2.1,0,0,1-1.52-.63,3.41,3.41,0,0,1-.5-2.14v-4.41h-1.26V321.4h1.26v-1.51Z"/><path class="cls-25" d="M148.88,319.76a.9.9,0,0,1-.88-1,.79.79,0,0,1,.88-.88.86.86,0,0,1,.88.88,1,1,0,0,1-.88,1Zm-.75,9.57v-8.18h1.38v8.18Z"/><path class="cls-25" d="M155.05,329.58c-2.14,0-3.78-1.63-3.78-4.15,0-2.77,1.77-4.28,3.91-4.28s3.77,1.76,3.77,4.15a3.94,3.94,0,0,1-3.9,4.28Zm.13-1.13c1.38,0,2.39-1.39,2.39-3.15,0-1.38-.63-3.15-2.27-3.15s-2.39,1.64-2.39,3.15c-.13,1.76.88,3.15,2.27,3.15Z"/><path class="cls-25" d="M160.72,323.41a12.45,12.45,0,0,0-.13-2.26h1.26l.13,1.38h0a2.79,2.79,0,0,1,2.51-1.51c1.14,0,2.77.63,2.77,3.53v4.91h-1.38V324.8c0-1.26-.5-2.39-1.76-2.39a2,2,0,0,0-1.89,1.51c-.13.12-.13.5-.13.63v4.91h-1.38v-6Z"/><path class="cls-25" d="M169.53,328a3.73,3.73,0,0,0,1.89.63c1,0,1.51-.51,1.51-1.26s-.38-1.14-1.38-1.51c-1.39-.51-2-1.39-2-2.27a2.46,2.46,0,0,1,2.65-2.39,3.73,3.73,0,0,1,1.88.5l-.37,1a3.53,3.53,0,0,0-1.64-.51,1.1,1.1,0,0,0-1.26,1.14c0,.63.5,1,1.51,1.38,1.39.51,2,1.26,2,2.52,0,1.51-1.14,2.52-2.9,2.52a3.58,3.58,0,0,1-2.14-.63Z"/><path class="cls-25" d="M3.57,301.63H5v5.16H5a2.91,2.91,0,0,1,2.64-1.51c1.89,0,3.28,1.64,3.28,4.16,0,2.89-1.77,4.4-3.53,4.4a3,3,0,0,1-2.64-1.51h0l-.13,1.39H3.32c0-.51.13-1.39.13-2.14l.12-9.95ZM5,310.32v.5a2.26,2.26,0,0,0,2.14,1.76c1.51,0,2.39-1.25,2.39-3.14,0-1.64-.75-3-2.26-3a2.29,2.29,0,0,0-2.15,1.77,5.52,5.52,0,0,0-.12.63Z"/><path class="cls-25" d="M18.18,311.7a9.9,9.9,0,0,0,.13,2H17.05l-.13-1h0A2.83,2.83,0,0,1,14.53,314a2.31,2.31,0,0,1-2.39-2.39c0-2,1.63-3,4.66-3v-.13A1.65,1.65,0,0,0,15,306.54a3.46,3.46,0,0,0-2,.63l-.38-1a5.48,5.48,0,0,1,2.52-.75c2.39,0,3,1.76,3,3.27Zm-1.38-2.26c-1.52,0-3.28.25-3.28,1.89a1.22,1.22,0,0,0,1.26,1.38,1.93,1.93,0,0,0,1.89-1.38c0-.13.13-.38.13-.51Z"/><path class="cls-25" d="M20.19,312.08a3.76,3.76,0,0,0,1.89.63c1,0,1.51-.5,1.51-1.26s-.37-1.13-1.38-1.51c-1.39-.5-2-1.38-2-2.27a2.46,2.46,0,0,1,2.65-2.39,3.7,3.7,0,0,1,1.89.51l-.38,1a3.63,3.63,0,0,0-1.64-.5c-.88,0-1.26.5-1.26,1.13s.51,1,1.51,1.39a2.51,2.51,0,0,1,2,2.52c0,1.51-1.13,2.51-2.9,2.51a3.6,3.6,0,0,1-2.14-.63Z"/><path class="cls-25" d="M27.62,309.81a2.48,2.48,0,0,0,2.65,2.77,4.69,4.69,0,0,0,2.14-.37l.25,1a5.89,5.89,0,0,1-2.64.51c-2.4,0-3.78-1.64-3.78-4.16s1.38-4.4,3.65-4.4c2.52,0,3.15,2.39,3.15,3.9v.75Zm4-1.13c0-.88-.37-2.39-1.89-2.39s-2,1.38-2.14,2.39Z"/><path class="cls-25" d="M38.2,308.05a16.27,16.27,0,0,0-.13-2.64h1.26l.13,1.38h0a3,3,0,0,1,2.77-1.63c1.89,0,3.27,1.63,3.27,4.15,0,2.9-1.76,4.41-3.52,4.41a2.87,2.87,0,0,1-2.39-1.26h0v4.41H38.2Zm1.39,2.27a1.18,1.18,0,0,0,.12.63,2.28,2.28,0,0,0,2.14,1.76c1.51,0,2.39-1.26,2.39-3.15,0-1.63-.75-3-2.26-3a2.27,2.27,0,0,0-2.14,1.76c0,.26-.13.38-.13.63C39.59,308.81,39.59,310.32,39.59,310.32Z"/><path class="cls-25" d="M52.81,311.7a10.71,10.71,0,0,0,.12,2H51.67l-.12-1h0A2.83,2.83,0,0,1,49.16,314a2.31,2.31,0,0,1-2.4-2.39c0-2,1.64-3,4.66-3v-.13a1.64,1.64,0,0,0-1.76-1.89,3.49,3.49,0,0,0-2,.63l-.37-1a5.45,5.45,0,0,1,2.52-.75c2.39,0,3,1.76,3,3.27v3Zm-1.39-2.26c-1.51,0-3.27.25-3.27,1.89a1.22,1.22,0,0,0,1.26,1.38,1.94,1.94,0,0,0,1.89-1.38c0-.13.12-.38.12-.51Z"/><path class="cls-25" d="M55.83,303.9a.9.9,0,0,1-.88-1,.88.88,0,0,1,1.76,0,.9.9,0,0,1-.88,1Zm-.76,9.69v-8.18h1.39v8.18Z"/><path class="cls-25" d="M58.85,308.05a16,16,0,0,0-.12-2.52H60l.13,1.64h0a2.36,2.36,0,0,1,2.14-1.76h.38v1.38h-.51a1.93,1.93,0,0,0-1.88,1.89v5.16H58.85Z"/><path class="cls-25" d="M73,311.7a9.9,9.9,0,0,0,.13,2H71.82l-.13-1h0A2.8,2.8,0,0,1,69.3,314a2.31,2.31,0,0,1-2.39-2.39c0-2,1.64-3,4.66-3v-.13a1.64,1.64,0,0,0-1.76-1.89,3.47,3.47,0,0,0-2,.63l-.38-1a5.48,5.48,0,0,1,2.52-.75c2.39,0,3,1.76,3,3.27v3Zm-1.38-2.26c-1.51,0-3.28.25-3.28,1.89a1.22,1.22,0,0,0,1.26,1.38,1.93,1.93,0,0,0,1.89-1.38c0-.13.13-.38.13-.51Z"/><path class="cls-25" d="M75.22,307.67a12.45,12.45,0,0,0-.13-2.26h1.26l.13,1.38h0A2.81,2.81,0,0,1,79,305.28c1.13,0,2.77.63,2.77,3.53v4.91H80.38v-4.66c0-1.26-.5-2.39-1.76-2.39a2,2,0,0,0-1.89,1.51c-.12.12-.12.5-.12.63v4.91H75.22v-6.05Z"/><path class="cls-25" d="M84.16,307.67a12.45,12.45,0,0,0-.13-2.26h1.26l.13,1.38h0a2.81,2.81,0,0,1,2.52-1.51c1.13,0,2.77.63,2.77,3.53v4.91H89.32v-4.66c0-1.26-.5-2.39-1.76-2.39a2,2,0,0,0-1.89,1.51c-.12.12-.12.5-.12.63v4.91H84.16v-6.05Z"/><path class="cls-25" d="M96.25,313.84c-2.14,0-3.78-1.63-3.78-4.15,0-2.77,1.76-4.28,3.9-4.28s3.78,1.76,3.78,4.15a3.94,3.94,0,0,1-3.9,4.28Zm0-1.13c1.38,0,2.39-1.38,2.39-3.15,0-1.38-.63-3.15-2.27-3.15S94,308.05,94,309.56c0,1.77.88,3.15,2.27,3.15Z"/><path class="cls-25" d="M103.55,303.52v2h2v1.14h-2v4.4c0,1,.25,1.64,1,1.64a1.8,1.8,0,0,0,.88-.13l.13,1.14a3.33,3.33,0,0,1-1.26.25,2.06,2.06,0,0,1-1.51-.63,3.34,3.34,0,0,1-.51-2.14v-4.41H101v-1.13h1.26v-1.51Z"/><path class="cls-25" d="M112.74,311.7a9.9,9.9,0,0,0,.13,2h-1.26l-.13-1h0a2.81,2.81,0,0,1-2.39,1.26,2.31,2.31,0,0,1-2.39-2.39c0-2,1.64-3,4.66-3v-.13a1.64,1.64,0,0,0-1.76-1.89,3.47,3.47,0,0,0-2,.63l-.38-1a5.48,5.48,0,0,1,2.52-.75c2.39,0,3,1.76,3,3.27Zm-1.38-2.26c-1.51,0-3.28.25-3.28,1.89a1.22,1.22,0,0,0,1.26,1.38,1.93,1.93,0,0,0,1.89-1.38c0-.13.13-.38.13-.51Z"/><path class="cls-25" d="M116.65,303.52v2h2v1.14h-2v4.4c0,1,.25,1.64,1,1.64a1.86,1.86,0,0,0,.89-.13l.12,1.14a3.24,3.24,0,0,1-1.26.25,2.08,2.08,0,0,1-1.51-.63,3.34,3.34,0,0,1-.5-2.14v-4.41h-1.26v-1.13h1.26v-1.51Z"/><path class="cls-25" d="M120.93,303.9a.9.9,0,0,1-.88-1,.88.88,0,0,1,1.76,0,.9.9,0,0,1-.88,1Zm-.76,9.69v-8.18h1.39v8.18Z"/><path class="cls-25" d="M127.1,313.84c-2.14,0-3.78-1.63-3.78-4.15,0-2.77,1.76-4.28,3.9-4.28s3.78,1.76,3.78,4.15a3.94,3.94,0,0,1-3.9,4.28Zm.12-1.13c1.39,0,2.4-1.38,2.4-3.15,0-1.38-.63-3.15-2.27-3.15s-2.39,1.64-2.39,3.15c-.13,1.77.88,3.15,2.26,3.15Z"/><path class="cls-25" d="M132.76,307.67a13.47,13.47,0,0,0-.12-2.26h1.26l.12,1.38h0a2.81,2.81,0,0,1,2.52-1.51c1.13,0,2.77.63,2.77,3.53v4.91h-1.38v-4.66c0-1.26-.51-2.39-1.77-2.39a2,2,0,0,0-1.89,1.51c-.12.12-.12.5-.12.63v4.91h-1.39Z"/><path class="cls-25" d="M141.58,312.08a3.73,3.73,0,0,0,1.89.63c1,0,1.51-.5,1.51-1.26s-.38-1.13-1.39-1.51c-1.38-.5-2-1.38-2-2.27a2.46,2.46,0,0,1,2.64-2.39,3.67,3.67,0,0,1,1.89.51l-.38,1a3.62,3.62,0,0,0-1.63-.5c-.89,0-1.26.5-1.26,1.13s.5,1,1.51,1.39a2.52,2.52,0,0,1,2,2.52c0,1.51-1.13,2.51-2.89,2.51a3.58,3.58,0,0,1-2.14-.63Z"/><path class="cls-25" d="M43.87,343.81a5.94,5.94,0,0,1-2.27.51c-2.39,0-3.9-1.64-3.9-4.16a4.1,4.1,0,0,1,4.15-4.41,6.25,6.25,0,0,1,2,.38l-.38,1.13a4.62,4.62,0,0,0-1.64-.37c-1.76,0-2.77,1.38-2.77,3.14s1.14,3,2.65,3a5.46,5.46,0,0,0,1.76-.38Z"/><path class="cls-25" d="M48.65,344.32c-2.14,0-3.78-1.64-3.78-4.16,0-2.77,1.77-4.28,3.91-4.28s3.78,1.76,3.78,4.15c-.13,3-2.15,4.29-3.91,4.29Zm0-1.14C50,343.18,51,341.8,51,340c0-1.38-.63-3.14-2.26-3.14s-2.39,1.63-2.39,3.14c-.13,1.77.88,3.15,2.26,3.15Z"/><path class="cls-25" d="M54.19,338.15a13.54,13.54,0,0,0-.12-2.27h1.26l.12,1.26h0A2.65,2.65,0,0,1,58,335.63a2.16,2.16,0,0,1,2.14,1.63h0a2.29,2.29,0,0,1,.88-1,2.73,2.73,0,0,1,1.76-.63c1,0,2.52.75,2.52,3.52v4.79H63.89v-4.66c0-1.64-.51-2.52-1.64-2.52a1.75,1.75,0,0,0-1.64,1.39,1.64,1.64,0,0,0-.12.75v5H59.1V339c0-1.26-.5-2.27-1.63-2.27a2,2,0,0,0-1.77,1.51,1.69,1.69,0,0,0-.12.76v4.91H54.19Z"/><path class="cls-25" d="M67.67,338.65a16.46,16.46,0,0,0-.13-2.65H68.8l.12,1.39h0a3,3,0,0,1,2.77-1.64c1.89,0,3.28,1.64,3.28,4.16,0,2.89-1.76,4.41-3.53,4.41a2.88,2.88,0,0,1-2.39-1.26h0v4.4H67.67Zm1.38,2.14a1.11,1.11,0,0,0,.13.63,2.26,2.26,0,0,0,2.14,1.76c1.51,0,2.39-1.26,2.39-3.15,0-1.63-.76-3-2.27-3a2.28,2.28,0,0,0-2.14,1.77c0,.25-.12.37-.12.62C69.05,339.4,69.05,340.79,69.05,340.79Z"/><path class="cls-25" d="M82.27,342.17a9.9,9.9,0,0,0,.13,2H81.14l-.13-1h0a2.83,2.83,0,0,1-2.39,1.26,2.31,2.31,0,0,1-2.39-2.39c0-2,1.63-3,4.66-3v-.13A1.65,1.65,0,0,0,79.12,337a3.46,3.46,0,0,0-2,.63l-.38-1a5.48,5.48,0,0,1,2.52-.75c2.39,0,3,1.76,3,3.27Zm-1.38-2.26c-1.51,0-3.28.25-3.28,1.89a1.22,1.22,0,0,0,1.26,1.38,1.93,1.93,0,0,0,1.89-1.38c0-.13.13-.38.13-.51Z"/><path class="cls-25" d="M86.17,334v2h2v1.14h-2v4.41c0,1,.26,1.63,1,1.63a1.94,1.94,0,0,0,.88-.12l.13,1.13a3.1,3.1,0,0,1-1.26.25,2.08,2.08,0,0,1-1.51-.63,3.34,3.34,0,0,1-.5-2.14v-4.41H83.66v-1.13h1.26v-1.51Z"/><path class="cls-25" d="M90.46,334.49a.89.89,0,0,1-.89-1,.8.8,0,0,1,.89-.88.86.86,0,0,1,.88.88.89.89,0,0,1-.88,1Zm-.63,9.7V336h1.38v8.19Z"/><path class="cls-25" d="M93.48,332.23h1.38v5.16h0a2.94,2.94,0,0,1,2.65-1.51c1.89,0,3.27,1.64,3.27,4.15,0,2.9-1.76,4.41-3.52,4.41a3,3,0,0,1-2.65-1.51h0l-.12,1.39H93.23c0-.51.12-1.39.12-2.15l.13-9.94ZM95,340.92v.5a2.26,2.26,0,0,0,2.14,1.76c1.51,0,2.39-1.26,2.39-3.15,0-1.63-.75-3-2.26-3a2.29,2.29,0,0,0-2.15,1.77,5.26,5.26,0,0,0-.12.62Z"/><path class="cls-25" d="M102.67,332.23h1.38v12h-1.38Z"/><path class="cls-25" d="M107.2,340.29a2.48,2.48,0,0,0,2.65,2.77,4.7,4.7,0,0,0,2.14-.38l.25,1a6.09,6.09,0,0,1-2.64.5c-2.4,0-3.78-1.64-3.78-4.16s1.38-4.4,3.65-4.4c2.52,0,3.15,2.39,3.15,3.77v.76Zm4.16-1c0-.88-.38-2.39-1.89-2.39s-2,1.38-2.14,2.39Z"/><path class="cls-25" d="M117.91,338.15a12.51,12.51,0,0,0-.13-2.27H119l.12,1.26h0a2.66,2.66,0,0,1,2.52-1.51,2.16,2.16,0,0,1,2.14,1.63h0a2.37,2.37,0,0,1,.89-1,2.69,2.69,0,0,1,1.76-.63c1,0,2.52.75,2.52,3.52v4.79H127.6v-4.66c0-1.64-.5-2.52-1.64-2.52a1.73,1.73,0,0,0-1.63,1.39,1.53,1.53,0,0,0-.13.75v5h-1.38V339c0-1.26-.51-2.27-1.64-2.27a2,2,0,0,0-1.76,1.51,1.57,1.57,0,0,0-.13.76v4.91h-1.38v-5.79Z"/><path class="cls-25" d="M137.8,341.92a11.91,11.91,0,0,0,.13,2.27h-1.26l-.13-1.39h0a2.88,2.88,0,0,1-2.52,1.52c-1.26,0-2.64-.76-2.64-3.53V336h1.38v4.54c0,1.51.51,2.64,1.77,2.64a1.94,1.94,0,0,0,1.89-1.38,1.69,1.69,0,0,0,.12-.76v-5h1.39l-.13,5.92Z"/><path class="cls-25" d="M141.83,334v2h2v1.14h-2v4.41c0,1,.25,1.63,1,1.63a2,2,0,0,0,.88-.12l.12,1.13a3.05,3.05,0,0,1-1.25.25,2.1,2.1,0,0,1-1.52-.63,3.41,3.41,0,0,1-.5-2.14v-4.41h-1.26v-1.13h1.26v-1.51Z"/><path class="cls-25" d="M150.9,342.17a10.71,10.71,0,0,0,.12,2h-1.26l-.12-1h0a2.83,2.83,0,0,1-2.4,1.26,2.31,2.31,0,0,1-2.39-2.39c0-2,1.64-3,4.66-3v-.13a1.64,1.64,0,0,0-1.76-1.89,3.49,3.49,0,0,0-2,.63l-.37-1a5.44,5.44,0,0,1,2.51-.75c2.4,0,3,1.76,3,3.27v3Zm-1.39-2.26c-1.51,0-3.27.25-3.27,1.89a1.22,1.22,0,0,0,1.26,1.38,1.92,1.92,0,0,0,1.88-1.38c0-.13.13-.38.13-.51Z"/><path class="cls-25" d="M154.8,334v2h2v1.14h-2v4.41c0,1,.25,1.63,1,1.63a2,2,0,0,0,.88-.12l.12,1.13a3.07,3.07,0,0,1-1.26.25,2.09,2.09,0,0,1-1.51-.63,3.41,3.41,0,0,1-.5-2.14v-4.41h-1.26v-1.13h1.26v-1.51Z"/><path class="cls-25" d="M159.08,334.49a.89.89,0,0,1-.88-1,.79.79,0,0,1,.88-.88.86.86,0,0,1,.88.88.89.89,0,0,1-.88,1Zm-.63,9.7V336h1.39v8.19Z"/><path class="cls-25" d="M165.38,344.32c-2.14,0-3.78-1.64-3.78-4.16,0-2.77,1.76-4.28,3.9-4.28s3.78,1.76,3.78,4.15c0,3-2,4.29-3.9,4.29Zm0-1.14c1.38,0,2.39-1.38,2.39-3.15,0-1.38-.63-3.14-2.27-3.14s-2.39,1.63-2.39,3.14c0,1.77.88,3.15,2.27,3.15Z"/><path class="cls-25" d="M171,338.15a13.54,13.54,0,0,0-.12-2.27h1.26l.12,1.38h0a2.81,2.81,0,0,1,2.52-1.51c1.13,0,2.77.63,2.77,3.53v4.91h-1.38v-4.66c0-1.26-.51-2.39-1.77-2.39a2,2,0,0,0-1.89,1.51,1.18,1.18,0,0,0-.12.63v4.91H171Z"/><path class="cls-25" d="M179.73,342.68a3.73,3.73,0,0,0,1.89.63c1,0,1.51-.51,1.51-1.26s-.38-1.13-1.38-1.51c-1.39-.51-2-1.39-2-2.27a2.46,2.46,0,0,1,2.64-2.39,3.74,3.74,0,0,1,1.89.5l-.37,1a3.59,3.59,0,0,0-1.64-.5c-.88,0-1.26.5-1.26,1.13s.5,1,1.51,1.38c1.39.51,2,1.26,2,2.52,0,1.51-1.14,2.52-2.9,2.52a3.58,3.58,0,0,1-2.14-.63Z"/><path class="cls-25" d="M38.33,352.88a12.62,12.62,0,0,0-.13-2.27h1.26l.13,1.39h0a2.78,2.78,0,0,1,2.51-1.51c1.14,0,2.77.62,2.77,3.52v4.91H43.49v-4.78c0-1.26-.5-2.4-1.76-2.4a2,2,0,0,0-1.89,1.52c-.13.12-.13.5-.13.63v4.91H38.33v-5.92Z"/><path class="cls-25" d="M50.41,359.05c-2.14,0-3.77-1.64-3.77-4.16,0-2.77,1.76-4.28,3.9-4.28s3.78,1.76,3.78,4.16c0,3-2,4.28-3.91,4.28Zm0-1.14c1.39,0,2.4-1.38,2.4-3.14,0-1.39-.63-3.15-2.27-3.15s-2.39,1.64-2.39,3.15c0,1.89.88,3.14,2.26,3.14Z"/><path class="cls-25" d="M59.48,352.88a12.62,12.62,0,0,0-.13-2.27h1.26l.13,1.26h0a2.65,2.65,0,0,1,2.52-1.51A2.15,2.15,0,0,1,65.4,352h0a2.27,2.27,0,0,1,.88-1,2.71,2.71,0,0,1,1.76-.63c1,0,2.52.75,2.52,3.52v4.79H69.18V354c0-1.64-.51-2.52-1.64-2.52a1.75,1.75,0,0,0-1.64,1.39,1.64,1.64,0,0,0-.12.75v5H64.27v-4.91c0-1.26-.51-2.27-1.64-2.27A2,2,0,0,0,60.87,353a1.59,1.59,0,0,0-.13.76v4.91H59.35v-5.79Z"/><path class="cls-25" d="M79.38,356.66a12.77,12.77,0,0,0,.12,2.26H78.24l-.12-1.38h0a2.88,2.88,0,0,1-2.52,1.51c-1.26,0-2.65-.76-2.65-3.53v-4.78h1.39v4.53c0,1.51.5,2.64,1.76,2.64A1.93,1.93,0,0,0,78,356.53a1.55,1.55,0,0,0,.13-.76v-5H79.5l-.12,5.92Z"/><path class="cls-25" d="M83.4,348.72v2h2v1.13h-2v4.41c0,1,.26,1.63,1,1.63a1.94,1.94,0,0,0,.88-.12l.13,1.13a3.1,3.1,0,0,1-1.26.25,2.08,2.08,0,0,1-1.51-.63,3.34,3.34,0,0,1-.5-2.14V352H80.89v-1.14h1.26v-1.51Z"/><path class="cls-25" d="M92.47,356.91a9.85,9.85,0,0,0,.13,2H91.34l-.13-1h0a2.83,2.83,0,0,1-2.39,1.26,2.31,2.31,0,0,1-2.39-2.39c0-2,1.63-3,4.66-3v-.13a1.65,1.65,0,0,0-1.77-1.89,3.53,3.53,0,0,0-2,.63l-.38-1a5.37,5.37,0,0,1,2.52-.76c2.39,0,3,1.76,3,3.28v3Zm-1.38-2.14c-1.52,0-3.28.25-3.28,1.89A1.22,1.22,0,0,0,89.07,358,1.93,1.93,0,0,0,91,356.66c0-.13.13-.38.13-.51Z"/><path class="cls-25" d="M96.37,348.72v2h2v1.13h-2v4.41c0,1,.26,1.63,1,1.63a1.94,1.94,0,0,0,.88-.12l.13,1.13a3.1,3.1,0,0,1-1.26.25,2.08,2.08,0,0,1-1.51-.63,3.34,3.34,0,0,1-.51-2.14V352H93.86v-1.14h1.25v-1.51Z"/><path class="cls-25" d="M100.66,349.23a.9.9,0,0,1-.89-1,.8.8,0,0,1,.89-.88.86.86,0,0,1,.88.88.9.9,0,0,1-.88,1Zm-.63,9.69v-8.18h1.38v8.18Z"/><path class="cls-25" d="M107,359.05c-2.14,0-3.78-1.64-3.78-4.16,0-2.77,1.77-4.28,3.91-4.28s3.77,1.76,3.77,4.16c0,3-2,4.28-3.9,4.28Zm0-1.14c1.39,0,2.39-1.38,2.39-3.14,0-1.39-.63-3.15-2.26-3.15s-2.4,1.64-2.4,3.15c0,1.89.89,3.14,2.27,3.14Z"/><path class="cls-25" d="M112.62,352.88a12.62,12.62,0,0,0-.13-2.27h1.26l.13,1.39h0a2.78,2.78,0,0,1,2.51-1.51c1.14,0,2.77.62,2.77,3.52v4.91h-1.38v-4.78c0-1.26-.5-2.4-1.76-2.4a2,2,0,0,0-1.89,1.52c-.13.12-.13.5-.13.63v4.91h-1.38v-5.92Z"/><path class="cls-25" d="M121.31,357.41a3.69,3.69,0,0,0,1.88.63c1,0,1.52-.5,1.52-1.26s-.38-1.13-1.39-1.51c-1.38-.5-2-1.39-2-2.27a2.45,2.45,0,0,1,2.64-2.39,3.77,3.77,0,0,1,1.89.5l-.38,1a3.63,3.63,0,0,0-1.64-.5c-.88,0-1.26.5-1.26,1.13s.51,1,1.52,1.39a2.52,2.52,0,0,1,2,2.52c0,1.51-1.13,2.51-2.9,2.51a3.6,3.6,0,0,1-2.14-.63Z"/><path class="cls-25" d="M134.4,359.05c-2.14,0-3.78-1.64-3.78-4.16,0-2.77,1.77-4.28,3.91-4.28s3.77,1.76,3.77,4.16c0,3-2,4.28-3.9,4.28Zm.13-1.14c1.38,0,2.39-1.38,2.39-3.14,0-1.39-.63-3.15-2.27-3.15s-2.39,1.64-2.39,3.15c-.13,1.89.88,3.14,2.27,3.14Z"/><path class="cls-25" d="M140.07,347h1.38v5.16h0a2.94,2.94,0,0,1,2.65-1.51c1.89,0,3.27,1.64,3.27,4.16,0,2.89-1.76,4.4-3.53,4.4a3,3,0,0,1-2.64-1.51h0l-.13,1.39h-1.25c0-.51.12-1.39.12-2.14C140.07,356.78,140.07,347,140.07,347Zm1.38,8.69v.5a2.27,2.27,0,0,0,2.14,1.76c1.51,0,2.4-1.25,2.4-3.14,0-1.64-.76-3-2.27-3a2.27,2.27,0,0,0-2.14,1.77,4.76,4.76,0,0,0-.13.63Z"/><path class="cls-25" d="M149,357.41a3.7,3.7,0,0,0,1.89.63c1,0,1.51-.5,1.51-1.26s-.38-1.13-1.39-1.51c-1.38-.5-2-1.39-2-2.27a2.45,2.45,0,0,1,2.64-2.39,3.77,3.77,0,0,1,1.89.5l-.38,1a3.62,3.62,0,0,0-1.63-.5c-.89,0-1.26.5-1.26,1.13s.5,1,1.51,1.39a2.52,2.52,0,0,1,2,2.52c0,1.51-1.13,2.51-2.89,2.51a3.56,3.56,0,0,1-2.14-.63Z"/><path class="cls-25" d="M156.44,355a2.48,2.48,0,0,0,2.64,2.77,4.64,4.64,0,0,0,2.14-.38l.25,1a6.06,6.06,0,0,1-2.64.5c-2.39,0-3.78-1.64-3.78-4.15s1.39-4.41,3.65-4.41c2.52,0,3.15,2.39,3.15,3.78v.75Zm4-1c0-.88-.38-2.39-1.89-2.39s-2,1.38-2.14,2.39Z"/><path class="cls-25" d="M163.61,353.26a16,16,0,0,0-.12-2.52h1.26l.12,1.63h0a2.36,2.36,0,0,1,2.14-1.76h.38V352h-.5a1.92,1.92,0,0,0-1.89,1.88v5.17h-1.39Z"/><path class="cls-25" d="M169.78,350.74l1.51,4.53a12.64,12.64,0,0,1,.63,2.14h0a21.11,21.11,0,0,1,.63-2.14l1.51-4.53h1.52l-3,8.18h-1.26l-2.89-8.18Z"/><path class="cls-25" d="M177.59,355a2.48,2.48,0,0,0,2.64,2.77,4.64,4.64,0,0,0,2.14-.38l.26,1a6.15,6.15,0,0,1-2.65.5c-2.39,0-3.77-1.64-3.77-4.15s1.38-4.41,3.65-4.41c2.51,0,3.14,2.39,3.14,3.78v.75Zm4.16-1c0-.88-.38-2.39-1.89-2.39s-2,1.38-2.14,2.39Z"/><path class="cls-25" d="M191.57,347v9.82a12.05,12.05,0,0,0,.12,2.14h-1.26l-.12-1.38h0a2.88,2.88,0,0,1-2.65,1.63c-1.89,0-3.4-1.63-3.4-4.15,0-2.77,1.64-4.41,3.53-4.41a2.66,2.66,0,0,1,2.39,1.26h0V347ZM190.18,354a1.18,1.18,0,0,0-.12-.63,2.29,2.29,0,0,0-2-1.76c-1.51,0-2.27,1.38-2.27,3.15s.76,3,2.27,3a2,2,0,0,0,2-1.76c0-.26.12-.38.12-.63Z"/><rect class="cls-26" x="2.31" y="350.36" width="8.18" height="8.56"/><rect class="cls-26" x="21.71" y="350.36" width="8.18" height="8.56"/><rect class="cls-26" x="10.5" y="350.36" width="11.21" height="8.56"/><line class="cls-27" x1="16.17" y1="355.14" x2="16.17" y2="354.01"/><rect class="cls-28" x="21.71" y="320.77" width="8.56" height="8.18"/><rect class="cls-28" x="2.31" y="320.77" width="8.56" height="8.18"/><rect class="cls-28" x="10.88" y="320.77" width="10.83" height="8.18"/><line class="cls-29" x1="17.8" y1="324.8" x2="14.78" y2="324.8"/><rect class="cls-30" x="21.71" y="335.63" width="8.56" height="8.18"/><rect class="cls-30" x="2.31" y="335.63" width="8.56" height="8.18"/><rect class="cls-30" x="10.88" y="335.63" width="10.83" height="8.18"/><line class="cls-29" x1="17.8" y1="339.66" x2="14.78" y2="339.66"/><line class="cls-31" x1="215.4" y1="304.99" x2="235.74" y2="304.99"/><path class="cls-32" d="M245,302.22l1.28,3.83a11.25,11.25,0,0,1,.53,1.81h0a18.19,18.19,0,0,1,.53-1.81l1.28-3.83h1.28l-2.56,6.92h-1.17l-2.45-6.92Z"/><path class="cls-32" d="M255.56,307.44a9.1,9.1,0,0,0,.1,1.7H254.6l-.11-.85h0a2.38,2.38,0,0,1-2,1.06,1.89,1.89,0,0,1-2-2c0-1.7,1.39-2.56,3.95-2.56v-.1a1.39,1.39,0,0,0-1.5-1.6,3,3,0,0,0-1.7.53l-.32-.85a4.56,4.56,0,0,1,2.13-.64c2,0,2.56,1.49,2.56,2.77v2.56Zm-1.17-1.81c-1.28,0-2.77.21-2.77,1.59a1,1,0,0,0,1.06,1.18,1.64,1.64,0,0,0,1.6-1.18c0-.1.11-.32.11-.42v-1.17Z"/><path class="cls-32" d="M257.48,304.35a12.52,12.52,0,0,0-.11-2.13h1.06l.11,1.38h0a2,2,0,0,1,1.81-1.49h.32v1.17h-.42a1.63,1.63,0,0,0-1.6,1.6v4.37h-1.17Z"/><path class="cls-32" d="M262.59,300.94a.76.76,0,0,1-.75-.85.67.67,0,0,1,.75-.75.73.73,0,0,1,.74.75.83.83,0,0,1-.74.85Zm-.64,8.2v-6.92h1.17v6.92Z"/><path class="cls-32" d="M269.83,307.44a8.28,8.28,0,0,0,.11,1.7h-1.07l-.1-.85h0a2.4,2.4,0,0,1-2,1.06,1.89,1.89,0,0,1-2-2c0-1.7,1.38-2.56,3.94-2.56v-.1a1.39,1.39,0,0,0-1.49-1.6,2.91,2.91,0,0,0-1.7.53l-.32-.85a4.52,4.52,0,0,1,2.13-.64c2,0,2.55,1.49,2.55,2.77v2.56Zm-1.17-1.81c-1.28,0-2.77.21-2.77,1.59A1,1,0,0,0,267,308.4a1.62,1.62,0,0,0,1.59-1.18c0-.1.11-.32.11-.42v-1.17Z"/><path class="cls-32" d="M271.75,299h1.17v4.37h0a2.47,2.47,0,0,1,2.24-1.28c1.6,0,2.77,1.39,2.77,3.52,0,2.45-1.49,3.72-3,3.72a2.5,2.5,0,0,1-2.24-1.27h0l-.11,1.17h-1.06v-1.81l.21-8.42Zm1.17,7.35v.43a1.93,1.93,0,0,0,1.81,1.49c1.28,0,2-1.07,2-2.66,0-1.39-.64-2.56-1.92-2.56a1.92,1.92,0,0,0-1.81,1.49,4.72,4.72,0,0,0-.11.53v1.28Z"/><path class="cls-32" d="M279.42,299h1.17v10.12h-1.17Z"/><path class="cls-32" d="M283.36,306a2.1,2.1,0,0,0,2.24,2.34,4,4,0,0,0,1.81-.32l.21.85a5,5,0,0,1-2.23.43c-2,0-3.2-1.39-3.2-3.52s1.17-3.73,3.09-3.73c2.13,0,2.66,2,2.66,3.31V306Zm3.41-1c0-.75-.32-2-1.6-2s-1.7,1.17-1.81,2Z"/><path class="cls-32" d="M292.2,304.88v1h-3.3v-1Z"/><path class="cls-32" d="M293.59,299h1.17v10.12h-1.17Z"/><path class="cls-32" d="M297.42,306a2.1,2.1,0,0,0,2.24,2.34,4,4,0,0,0,1.81-.32l.22.85a5.06,5.06,0,0,1-2.24.43c-2,0-3.2-1.39-3.2-3.52s1.17-3.73,3.09-3.73c2.13,0,2.67,2,2.67,3.31V306Zm3.52-1c0-.75-.32-2-1.6-2s-1.7,1.17-1.81,2Z"/><path class="cls-32" d="M303.6,304.13v-1.91h1.07l.11,1.17h0a2.36,2.36,0,0,1,2.13-1.28c1,0,2.34.53,2.34,3v4.16h-1.17v-3.94c0-1.07-.43-2-1.49-2a1.69,1.69,0,0,0-1.6,1.28c0,.11-.11.43-.11.53v4.16h-1.17l-.11-5.12Z"/><path class="cls-32" d="M316.81,308.08a4.24,4.24,0,0,1-1,3.19,3.42,3.42,0,0,1-2.45.85,4.93,4.93,0,0,1-2.23-.53l.32-1a3.13,3.13,0,0,0,1.91.54c1.18,0,2.14-.64,2.14-2.45V308h0a2.3,2.3,0,0,1-2.14,1.17c-1.59,0-2.77-1.49-2.77-3.41,0-2.34,1.5-3.62,3-3.62a2.18,2.18,0,0,1,2,1.17h0v-1.06h1.07v1.91l.1,3.95ZM315.54,305a.79.79,0,0,0-.11-.54,1.73,1.73,0,0,0-1.71-1.38c-1.17,0-1.91,1-1.91,2.66,0,1.39.64,2.45,1.91,2.45a1.93,1.93,0,0,0,1.71-1.28,1.28,1.28,0,0,0,.11-.63V305Z"/><path class="cls-32" d="M320.22,300.62v1.7h1.71v1h-1.71V307c0,.85.22,1.39.86,1.39a1.52,1.52,0,0,0,.74-.11l.11,1a2.84,2.84,0,0,1-1.07.21,1.77,1.77,0,0,1-1.28-.53,2.86,2.86,0,0,1-.42-1.81v-3.73h-1.07v-1h1.07v-1.28Z"/><path class="cls-32" d="M323.21,299h1.17v4.26h0a3.13,3.13,0,0,1,.85-.85,2.18,2.18,0,0,1,1.17-.32c.85,0,2.35.53,2.35,3v4.16h-1.07v-3.94c0-1.18-.43-2-1.49-2a1.69,1.69,0,0,0-1.6,1.28,1.12,1.12,0,0,0-.11.64v4.15h-1.17l-.1-10.33Z"/><path class="cls-32" d="M333.65,304.35a12.52,12.52,0,0,0-.11-2.13h1.06v1.38h0a2,2,0,0,1,1.82-1.49h.32v1.17h-.43a1.64,1.64,0,0,0-1.6,1.6v4.37h-1.17Z"/><path class="cls-32" d="M338.76,306a2.1,2.1,0,0,0,2.24,2.34,4,4,0,0,0,1.81-.32l.21.85a5,5,0,0,1-2.24.43c-2,0-3.19-1.39-3.19-3.52s1.17-3.73,3.09-3.73c2.13,0,2.66,2,2.66,3.31V306Zm3.41-1c0-.75-.32-2-1.6-2s-1.7,1.17-1.81,2Z"/><path class="cls-32" d="M350.48,308.08a4.24,4.24,0,0,1-1,3.19,3.45,3.45,0,0,1-2.45.85,4.94,4.94,0,0,1-2.24-.53l.32-1a3.18,3.18,0,0,0,1.92.54c1.17,0,2.13-.64,2.13-2.45V308h0a2.3,2.3,0,0,1-2.13,1.17c-1.6,0-2.77-1.49-2.77-3.41,0-2.34,1.49-3.62,3-3.62a2.2,2.2,0,0,1,2,1.17h0v-1.06h1.06v1.91l.11,3.95ZM349.31,305a.79.79,0,0,0-.11-.54,1.73,1.73,0,0,0-1.71-1.38c-1.17,0-1.91,1-1.91,2.66,0,1.39.64,2.45,1.91,2.45a1.93,1.93,0,0,0,1.71-1.28,1.28,1.28,0,0,0,.11-.63V305Z"/><path class="cls-32" d="M353,300.94a.76.76,0,0,1-.74-.85.67.67,0,0,1,.74-.75.73.73,0,0,1,.75.75.83.83,0,0,1-.75.85Zm-.63,8.2v-6.92h1.17v6.92Z"/><path class="cls-32" d="M358.25,309.25a3.23,3.23,0,0,1-3.19-3.52,3.28,3.28,0,0,1,3.3-3.62,3.23,3.23,0,0,1,3.2,3.52,3.28,3.28,0,0,1-3.31,3.62Zm.11-.85c1.17,0,2-1.18,2-2.67,0-1.17-.54-2.66-2-2.66s-2,1.38-2,2.66c0,1.49.85,2.67,2,2.67Z"/><path class="cls-32" d="M363.05,304.13v-1.91h1.06l.11,1.17h0a2.37,2.37,0,0,1,2.13-1.28c1,0,2.34.53,2.34,3v4.16h-1.17v-3.94c0-1.07-.42-2-1.49-2a1.71,1.71,0,0,0-1.6,1.28c0,.11-.1.43-.1.53v4.16h-1.17l-.11-5.12Z"/><path class="cls-32" d="M244.58,355.8a11.55,11.55,0,0,0-.1-1.91h1.06l.11,1.06h0a2.25,2.25,0,0,1,2.13-1.28,1.82,1.82,0,0,1,1.81,1.39h0a2,2,0,0,1,.75-.86,2.34,2.34,0,0,1,1.49-.53c.85,0,2.13.64,2.13,3v4.05h-1.17v-3.94c0-1.38-.43-2.13-1.39-2.13A1.47,1.47,0,0,0,250,355.8a1.34,1.34,0,0,0-.11.64v4.26h-1.17v-4.15c0-1.07-.43-1.92-1.39-1.92a1.71,1.71,0,0,0-1.49,1.28,1.43,1.43,0,0,0-.1.64v4.15h-1.18v-4.9Z"/><path class="cls-32" d="M258.65,360.92a3.24,3.24,0,0,1-3.2-3.52,3.28,3.28,0,0,1,3.3-3.62,3.22,3.22,0,0,1,3.2,3.51c-.11,2.56-1.81,3.63-3.3,3.63Zm0-.86c1.17,0,2-1.17,2-2.66,0-1.17-.53-2.66-1.92-2.66s-2,1.38-2,2.66c-.11,1.49.75,2.66,1.92,2.66Z"/><path class="cls-32" d="M269.09,350.69V359a10.34,10.34,0,0,0,.1,1.81h-1.06v-1.17h0a2.44,2.44,0,0,1-2.24,1.38c-1.6,0-2.88-1.38-2.88-3.51,0-2.35,1.39-3.73,3-3.73a2.25,2.25,0,0,1,2,1.06h0v-4.15Zm-1.17,6.07a.93.93,0,0,0-.11-.53,1.91,1.91,0,0,0-1.71-1.49c-1.27,0-1.91,1.17-1.91,2.66s.64,2.56,1.91,2.56a1.71,1.71,0,0,0,1.71-1.49c0-.22.11-.32.11-.54Z"/><path class="cls-32" d="M276.54,358.89a10,10,0,0,0,.11,1.92h-1.06l-.11-1.17h0a2.44,2.44,0,0,1-2.13,1.28c-1.07,0-2.24-.64-2.24-3v-4h1.17v3.83c0,1.28.43,2.24,1.49,2.24a1.63,1.63,0,0,0,1.6-1.17,1.34,1.34,0,0,0,.11-.64v-4.26h1.17v5Z"/><path class="cls-32" d="M278.57,350.69h1.17v10.12h-1.17Z"/><path class="cls-32" d="M286.35,359.11a9.15,9.15,0,0,0,.1,1.7h-1.06l-.11-.85h0a2.4,2.4,0,0,1-2,1.06,2,2,0,0,1-2-2c0-1.71,1.39-2.56,3.94-2.56v-.1a1.38,1.38,0,0,0-1.49-1.6,2.91,2.91,0,0,0-1.7.53l-.32-.85a4.52,4.52,0,0,1,2.13-.64c2,0,2.56,1.49,2.56,2.77v2.56Zm-1.18-1.82c-1.27,0-2.77.22-2.77,1.6a1,1,0,0,0,1.07,1.17,1.64,1.64,0,0,0,1.6-1.17c0-.1.1-.32.1-.42v-1.18Z"/><path class="cls-32" d="M288.26,356a13.63,13.63,0,0,0-.1-2.13h1.06l.11,1.38h0a2,2,0,0,1,1.81-1.49h.32V355H291a1.64,1.64,0,0,0-1.6,1.6v4.37h-1.17Z"/><path class="cls-32" d="M295.4,359.53a3.18,3.18,0,0,0,1.6.53c.85,0,1.28-.42,1.28-1.06s-.32-1-1.17-1.28c-1.18-.43-1.71-1.17-1.71-1.92a2.08,2.08,0,0,1,2.24-2,3.22,3.22,0,0,1,1.6.42l-.32.86a3,3,0,0,0-1.39-.43.93.93,0,0,0-1.06,1c0,.53.42.85,1.27,1.17a2.13,2.13,0,0,1,1.71,2.13A2.17,2.17,0,0,1,297,361a3,3,0,0,1-1.81-.53Z"/><path class="cls-32" d="M306.48,358.89a10,10,0,0,0,.11,1.92h-1.07l-.11-1.17h0a2.41,2.41,0,0,1-2.13,1.28c-1.06,0-2.23-.64-2.23-3v-4h1.17v3.83c0,1.28.42,2.24,1.49,2.24a1.64,1.64,0,0,0,1.6-1.17,1.46,1.46,0,0,0,.1-.64v-4.26h1.18l-.11,5Z"/><path class="cls-32" d="M308.5,350.69h1.18v4.37h0a2.45,2.45,0,0,1,2.23-1.28c1.6,0,2.77,1.38,2.77,3.51,0,2.45-1.49,3.73-3,3.73a2.5,2.5,0,0,1-2.24-1.28h0l-.1,1.18h-1.07v-1.81l.21-8.42Zm1.18,7.35v.43a1.91,1.91,0,0,0,1.81,1.49c1.28,0,2-1.07,2-2.67,0-1.38-.64-2.55-1.92-2.55a1.93,1.93,0,0,0-1.81,1.49,5.14,5.14,0,0,0-.1.53V358Z"/><path class="cls-32" d="M318.94,356.55v1h-3.3v-1Z"/><path class="cls-32" d="M320.22,359.53a3.18,3.18,0,0,0,1.6.53c.85,0,1.28-.42,1.28-1.06s-.32-1-1.17-1.28c-1.17-.43-1.71-1.17-1.71-1.92a2.09,2.09,0,0,1,2.24-2,3.22,3.22,0,0,1,1.6.42l-.32.86a3,3,0,0,0-1.39-.43.93.93,0,0,0-1.06,1c0,.53.42.85,1.28,1.17a2.13,2.13,0,0,1,1.7,2.13,2.17,2.17,0,0,1-2.45,2.13,3.06,3.06,0,0,1-1.81-.53Z"/><path class="cls-32" d="M327.15,352.29V354h1.7v1h-1.7v3.73c0,.85.21,1.38.85,1.38a1.71,1.71,0,0,0,.75-.1l.1,1a2.78,2.78,0,0,1-1.06.21,1.75,1.75,0,0,1-1.28-.53,2.85,2.85,0,0,1-.43-1.81v-3.73H325v-1h1.06v-1.28Z"/><path class="cls-32" d="M330.24,356a12.4,12.4,0,0,0-.11-2.13h1.07v1.38h0a2,2,0,0,1,1.81-1.49h.32V355h-.43a1.64,1.64,0,0,0-1.6,1.6v4.37h-1.17Z"/><path class="cls-32" d="M340.14,358.89a10,10,0,0,0,.11,1.92h-1.06l-.11-1.17h0a2.44,2.44,0,0,1-2.13,1.28c-1.07,0-2.24-.64-2.24-3v-4h1.17v3.83c0,1.28.43,2.24,1.49,2.24a1.63,1.63,0,0,0,1.6-1.17,1.34,1.34,0,0,0,.11-.64v-4.26h1.17l-.11,5Z"/><path class="cls-32" d="M346.86,360.6a5.25,5.25,0,0,1-1.92.42,3.18,3.18,0,0,1-3.3-3.51,3.47,3.47,0,0,1,3.51-3.73,6,6,0,0,1,1.71.32l-.32,1a3.74,3.74,0,0,0-1.39-.32,2.38,2.38,0,0,0-2.34,2.66A2.28,2.28,0,0,0,345,360a4.7,4.7,0,0,0,1.5-.32Z"/><path class="cls-32" d="M349.84,352.29V354h1.7v1h-1.7v3.73c0,.85.21,1.38.85,1.38a1.71,1.71,0,0,0,.75-.1l.1,1a2.78,2.78,0,0,1-1.06.21,1.77,1.77,0,0,1-1.28-.53,2.85,2.85,0,0,1-.43-1.81v-3.73h-1.06v-1h1.06v-1.28Z"/><path class="cls-32" d="M358.47,358.89a11,11,0,0,0,.1,1.92h-1.06l-.11-1.17h0a2.44,2.44,0,0,1-2.13,1.28c-1.06,0-2.24-.64-2.24-3v-4h1.18v3.83c0,1.28.42,2.24,1.49,2.24a1.65,1.65,0,0,0,1.6-1.17,1.46,1.46,0,0,0,.1-.64v-4.26h1.17l-.1,5Z"/><path class="cls-32" d="M360.39,356v-2.13h1.06l.11,1.38h0a2,2,0,0,1,1.81-1.49h.32V355h-.43a1.64,1.64,0,0,0-1.6,1.6v4.37h-1.17Z"/><path class="cls-32" d="M365.5,357.61a2.1,2.1,0,0,0,2.24,2.35,4,4,0,0,0,1.81-.32l.21.85a5.17,5.17,0,0,1-2.24.43c-2,0-3.19-1.39-3.19-3.52s1.17-3.73,3.09-3.73c2.13,0,2.66,2,2.66,3.3v.64Zm3.41-1c0-.74-.32-2-1.6-2s-1.7,1.17-1.81,2Z"/><rect class="cls-33" x="214.76" y="348.13" width="21.73" height="16.94"/><path class="cls-32" d="M245,325.23l1.28,3.83a11.25,11.25,0,0,1,.53,1.81h0a18.19,18.19,0,0,1,.53-1.81l1.28-3.83h1.28l-2.56,6.92h-1.17l-2.45-6.92Z"/><path class="cls-32" d="M255.56,330.45a9.1,9.1,0,0,0,.1,1.7H254.6l-.11-.85h0a2.39,2.39,0,0,1-2,1.07,1.9,1.9,0,0,1-2-2c0-1.7,1.39-2.56,3.95-2.56v-.1a1.4,1.4,0,0,0-1.5-1.6,3,3,0,0,0-1.7.53l-.32-.85a4.56,4.56,0,0,1,2.13-.64c2,0,2.56,1.49,2.56,2.77v2.56Zm-1.17-1.92c-1.28,0-2.77.21-2.77,1.6a1,1,0,0,0,1.06,1.17,1.63,1.63,0,0,0,1.6-1.17c0-.11.11-.32.11-.43v-1.17Z"/><path class="cls-32" d="M257.48,327.36a12.52,12.52,0,0,0-.11-2.13h1.06l.11,1.38h0a2,2,0,0,1,1.81-1.49h.32v1.17h-.42a1.63,1.63,0,0,0-1.6,1.6v4.37h-1.17Z"/><path class="cls-32" d="M262.59,324a.76.76,0,0,1-.75-.85.75.75,0,1,1,1.49,0,.83.83,0,0,1-.74.85Zm-.64,8.1v-6.82h1.17v6.92H262Z"/><path class="cls-32" d="M269.83,330.45a8.28,8.28,0,0,0,.11,1.7h-1.07l-.1-.85h0a2.41,2.41,0,0,1-2,1.07,1.9,1.9,0,0,1-2-2c0-1.7,1.38-2.56,3.94-2.56v-.1a1.39,1.39,0,0,0-1.49-1.6,2.91,2.91,0,0,0-1.7.53l-.32-.85a4.52,4.52,0,0,1,2.13-.64c2,0,2.55,1.49,2.55,2.77v2.56Zm-1.17-1.92c-1.28,0-2.77.21-2.77,1.6A1,1,0,0,0,267,331.3a1.62,1.62,0,0,0,1.59-1.17c0-.11.11-.32.11-.43v-1.17Z"/><path class="cls-32" d="M271.75,321.93h1.17v4.36h0a2.49,2.49,0,0,1,2.24-1.28c1.6,0,2.77,1.39,2.77,3.52,0,2.45-1.49,3.73-3,3.73a2.51,2.51,0,0,1-2.24-1.28h0l-.11,1.17h-1.06v-1.81l.21-8.41Zm1.17,7.35v.42a1.93,1.93,0,0,0,1.81,1.49c1.28,0,2-1.06,2-2.66,0-1.38-.64-2.56-1.92-2.56a1.92,1.92,0,0,0-1.81,1.5,3.9,3.9,0,0,0-.11.53v1.28Z"/><path class="cls-32" d="M279.42,321.93h1.17v10.12h-1.17Z"/><path class="cls-32" d="M283.36,328.85a2.1,2.1,0,0,0,2.24,2.34,3.85,3.85,0,0,0,1.81-.32l.21.86a5.15,5.15,0,0,1-2.23.42c-2,0-3.2-1.38-3.2-3.51s1.17-3.73,3.09-3.73c2.13,0,2.66,2,2.66,3.3v.64Zm3.41-1c0-.74-.32-2-1.6-2s-1.7,1.17-1.81,2Z"/><path class="cls-32" d="M292.2,327.78v1h-3.3v-1Z"/><path class="cls-32" d="M293.59,321.93h1.17v10.12h-1.17Z"/><path class="cls-32" d="M297.42,328.85a2.1,2.1,0,0,0,2.24,2.34,3.83,3.83,0,0,0,1.81-.32l.22.86a5.24,5.24,0,0,1-2.24.42c-2,0-3.2-1.38-3.2-3.51s1.17-3.73,3.09-3.73c2.13,0,2.67,2,2.67,3.3v.64Zm3.52-1c0-.74-.32-2-1.6-2s-1.7,1.17-1.81,2Z"/><path class="cls-32" d="M303.6,327v-1.92h1.07l.11,1.17h0a2.36,2.36,0,0,1,2.13-1.28c1,0,2.34.54,2.34,3v4.15h-1.17v-3.94c0-1.06-.43-2-1.49-2a1.69,1.69,0,0,0-1.6,1.28c0,.1-.11.42-.11.53v4.15h-1.17L303.6,327Z"/><path class="cls-32" d="M316.81,331.09a4.22,4.22,0,0,1-1,3.19,3.43,3.43,0,0,1-2.45.86,4.93,4.93,0,0,1-2.23-.54l.32-1a3.13,3.13,0,0,0,1.91.54c1.18,0,2.14-.64,2.14-2.45V331h0a2.3,2.3,0,0,1-2.14,1.17c-1.59,0-2.77-1.49-2.77-3.41,0-2.34,1.5-3.62,3-3.62a2.18,2.18,0,0,1,2,1.17h0v-1.06h1.07v1.92l.1,3.94Zm-1.27-3.2a.78.78,0,0,0-.11-.53,1.73,1.73,0,0,0-1.71-1.39c-1.17,0-1.91,1-1.91,2.67,0,1.38.64,2.45,1.91,2.45a2,2,0,0,0,1.71-1.28,1.32,1.32,0,0,0,.11-.64v-1.28Z"/><path class="cls-32" d="M320.22,323.52v1.71h1.71v1h-1.71v3.73c0,.85.22,1.38.86,1.38a1.52,1.52,0,0,0,.74-.11l.11,1a2.64,2.64,0,0,1-1.07.22,1.78,1.78,0,0,1-1.28-.54,2.84,2.84,0,0,1-.42-1.81v-3.73h-1.07v-1.06h1.07V324Z"/><path class="cls-32" d="M323.21,321.93h1.17v4.26h0a3.31,3.31,0,0,1,.85-.86,2.18,2.18,0,0,1,1.17-.32c.85,0,2.35.54,2.35,3v4.15h-1.07v-3.94c0-1.17-.43-2-1.49-2a1.69,1.69,0,0,0-1.6,1.28,1.08,1.08,0,0,0-.11.63v4.16h-1.17l-.1-10.33Z"/><path class="cls-32" d="M333.54,330.77a3.18,3.18,0,0,0,1.6.53c.85,0,1.28-.43,1.28-1.07s-.32-1-1.18-1.27c-1.17-.43-1.7-1.18-1.7-1.92a2.08,2.08,0,0,1,2.24-2,3.17,3.17,0,0,1,1.59.43l-.32.85a3.06,3.06,0,0,0-1.38-.42c-.75,0-1.07.42-1.07,1s.43.85,1.28,1.17a2.13,2.13,0,0,1,1.71,2.13,2.17,2.17,0,0,1-2.45,2.13,3,3,0,0,1-1.81-.53Z"/><path class="cls-32" d="M340.46,323.52v1.71h1.71v1h-1.71v3.73c0,.85.22,1.38.86,1.38a1.5,1.5,0,0,0,.74-.11l.11,1a2.6,2.6,0,0,1-1.07.22,1.78,1.78,0,0,1-1.28-.54,2.9,2.9,0,0,1-.42-1.81v-3.73h-1.07v-1.06h1.07V324Z"/><path class="cls-32" d="M344.09,328.85a2.09,2.09,0,0,0,2.23,2.34,3.8,3.8,0,0,0,1.81-.32l.22.86a5.2,5.2,0,0,1-2.24.42c-2,0-3.2-1.38-3.2-3.51s1.18-3.73,3.09-3.73c2.13,0,2.67,2,2.67,3.3v.64Zm3.51-1c0-.74-.32-2-1.6-2s-1.7,1.17-1.81,2Z"/><path class="cls-32" d="M350.26,327v-1.92h1.07l.11,1.07h0a2.25,2.25,0,0,1,2.13-1.28,1.82,1.82,0,0,1,1.81,1.38h0a2,2,0,0,1,.74-.85,2.27,2.27,0,0,1,1.39-.53c.85,0,2.13.64,2.13,3v4.05h-1.17V328c0-1.39-.43-2.13-1.39-2.13A1.47,1.47,0,0,0,355.7,327c0,.21-.11.43-.11.64v4.26h-1.17v-4.16c0-1.06-.43-1.91-1.39-1.91a1.71,1.71,0,0,0-1.49,1.28,1.39,1.39,0,0,0-.1.63v4.16h-1.18V327Z"/><path class="cls-32" d="M364.33,327.78v1h-3.41v-1Z"/><path class="cls-32" d="M365.82,321.93H367v10.12h-1.17Z"/><path class="cls-32" d="M371.68,332.26a3.24,3.24,0,0,1-3.2-3.52,3.28,3.28,0,0,1,3.3-3.62,3.23,3.23,0,0,1,3.2,3.52,3.46,3.46,0,0,1-3.3,3.62Zm0-1c1.17,0,2-1.17,2-2.66,0-1.17-.53-2.67-2-2.67s-2,1.39-2,2.67c0,1.49.86,2.66,2,2.66Z"/><path class="cls-32" d="M379.14,332.26a3.23,3.23,0,0,1-3.2-3.52,3.28,3.28,0,0,1,3.3-3.62,3.23,3.23,0,0,1,3.2,3.52,3.46,3.46,0,0,1-3.3,3.62Zm0-1c1.17,0,2-1.17,2-2.66,0-1.17-.53-2.67-1.92-2.67s-2,1.39-2,2.67c-.11,1.49.74,2.66,1.92,2.66Z"/><path class="cls-32" d="M383.93,327.47a13.85,13.85,0,0,0-.11-2.24h1.07l.1,1.17h0a2.55,2.55,0,0,1,2.35-1.39c1.6,0,2.77,1.39,2.77,3.52,0,2.45-1.49,3.73-3,3.73a2.43,2.43,0,0,1-2-1.07h0v3.73h-1.17v-7.45Zm1.17,1.81a.93.93,0,0,0,.11.53A1.92,1.92,0,0,0,387,331.3c1.28,0,2-1.07,2-2.66,0-1.39-.64-2.56-1.91-2.56a1.93,1.93,0,0,0-1.82,1.49c0,.21-.1.32-.1.53l-.11,1.18Z"/><path class="cls-31" d="M239.68,333.64H225.52a10.14,10.14,0,1,1-3.73-13.85,10.57,10.57,0,0,1,3.73,3.73h14.16"/><rect x="236.91" y="327.04" width="1.17" height="3.2"/><rect class="cls-34" x="236.91" y="327.04" width="1.17" height="3.2"/><rect x="230.95" y="327.04" width="1.17" height="3.2"/><rect class="cls-34" x="230.95" y="327.04" width="1.17" height="3.2"/><rect x="224.98" y="327.04" width="1.17" height="3.2"/><rect class="cls-34" x="224.98" y="327.04" width="1.17" height="3.2"/><path class="cls-32" d="M426.25,357.29a4.44,4.44,0,0,0,1.12-.12,3.76,3.76,0,0,0,2.11-1,5.64,5.64,0,0,0,1.37-2.86h0a3,3,0,0,1-2.49,1.12c-1.86,0-3-1.49-3-3.35a3.64,3.64,0,0,1,3.47-3.85c2.11,0,3.35,1.74,3.35,4.6a7.07,7.07,0,0,1-1.74,5.08,5.18,5.18,0,0,1-3,1.49,4.88,4.88,0,0,1-1.24.13v-1.25Zm2.49-8.93c-1.12,0-2,1.12-2,2.61a2,2,0,0,0,2,2.23,2.19,2.19,0,0,0,2-1.12c.13-.12.13-.24.13-.49,0-1.74-.63-3.23-2.11-3.23Z"/><path class="cls-32" d="M436.8,358.41c-2,0-3.35-2-3.47-5.58s1.49-5.59,3.6-5.59,3.35,2,3.35,5.46c.12,3.73-1.25,5.71-3.48,5.71Zm.13-1.12c1.36,0,2.1-1.73,2.1-4.46s-.62-4.35-2.1-4.35c-1.25,0-2.11,1.74-2.11,4.35-.13,2.85.74,4.46,2.11,4.46Z"/><path class="cls-32" d="M443.87,347.37c1.37,0,2.36,1.11,2.36,3.22s-1.12,3.35-2.48,3.35-2.36-1.11-2.36-3.22,1.12-3.35,2.48-3.35Zm0,.87c-.86,0-1.36,1.11-1.36,2.48s.5,2.48,1.36,2.48,1.37-1,1.37-2.48-.37-2.48-1.37-2.48Zm-.12,10.3,6.08-11.17h.87l-6.08,11.17Zm6.82-6.83c1.37,0,2.36,1.12,2.36,3.23s-1.11,3.35-2.48,3.35-2.36-1.12-2.36-3.23,1.12-3.22,2.48-3.35Zm0,1c-.86,0-1.36,1.12-1.36,2.49s.5,2.48,1.36,2.48,1.37-1,1.37-2.48-.37-2.49-1.37-2.49Z"/><path class="cls-35" d="M420.05,353.45a4.59,4.59,0,0,1-9.18,0,4.66,4.66,0,0,1,4.59-4.59,4.43,4.43,0,0,1,4.59,4.59"/><circle class="cls-29" cx="415.46" cy="353.45" r="4.59"/><path class="cls-32" d="M426.25,340.79a4.44,4.44,0,0,0,1.12-.12,3.83,3.83,0,0,0,2.11-1,5.68,5.68,0,0,0,1.37-2.86h0a3,3,0,0,1-2.49,1.12c-1.86,0-3-1.49-3-3.35a3.63,3.63,0,0,1,3.47-3.85c2.11,0,3.35,1.74,3.35,4.59a7.08,7.08,0,0,1-1.74,5.09,6.29,6.29,0,0,1-4.22,1.61v-1.24Zm2.49-8.81c-1.12,0-2,1.12-2,2.61a2,2,0,0,0,2,2.23,2.19,2.19,0,0,0,2-1.12c.13-.12.13-.24.13-.49,0-1.86-.63-3.23-2.11-3.23Z"/><path class="cls-32" d="M440.15,331.11v1l-4.47,9.8h-1.36l4.47-9.56H433.7v-1.24Z"/><path class="cls-32" d="M443.87,330.87c1.37,0,2.36,1.11,2.36,3.22s-1.12,3.35-2.48,3.35-2.36-1.12-2.36-3.22,1.12-3.35,2.48-3.35Zm0,.86c-.86,0-1.36,1.12-1.36,2.49s.5,2.48,1.36,2.48,1.37-1,1.37-2.48-.37-2.49-1.37-2.49Zm-.12,10.3,6.08-11.16h.87L444.62,342Zm6.82-6.7c1.37,0,2.36,1.12,2.36,3.23s-1.11,3.35-2.48,3.35-2.36-1.12-2.36-3.23,1.12-3.35,2.48-3.35Zm0,.87c-.86,0-1.36,1.12-1.36,2.48s.5,2.48,1.36,2.48,1.37-1,1.37-2.48-.37-2.48-1.37-2.48Z"/><path class="cls-36" d="M420.05,337a4.59,4.59,0,1,1-4.59-4.6,4.58,4.58,0,0,1,4.59,4.6"/><circle class="cls-29" cx="415.46" cy="336.95" r="4.59"/><path class="cls-32" d="M488.17,331.11v1l-4.47,9.8h-1.36l4.47-9.56h-5.09v-1.24Z"/><path class="cls-32" d="M495.74,332.23h-4L491.4,335c.25,0,.49-.12.87-.12a3.37,3.37,0,0,1,2.23.62,3,3,0,0,1,1.49,2.85,3.68,3.68,0,0,1-3.85,3.72,6.09,6.09,0,0,1-2.6-.62l.37-1.11a4.44,4.44,0,0,0,2.23.62,2.38,2.38,0,0,0,2.48-2.36c0-1.49-.87-2.36-3-2.36a5.28,5.28,0,0,0-1.49.12l.62-5.08h5v1Z"/><path class="cls-32" d="M500,330.87c1.36,0,2.36,1.11,2.36,3.22s-1.12,3.35-2.49,3.35-2.35-1.12-2.35-3.22,1.11-3.35,2.48-3.35Zm-.13.86c-.86,0-1.36,1.12-1.36,2.49s.5,2.48,1.36,2.48,1.37-1,1.37-2.48-.37-2.49-1.37-2.49Zm-.12,10.3,6.08-11.16h.87L500.58,342Zm7-6.7c1.36,0,2.36,1.12,2.36,3.23s-1.12,3.35-2.48,3.35-2.36-1.12-2.36-3.23,1.11-3.35,2.48-3.35Zm-.12.87c-.87,0-1.37,1.12-1.37,2.48s.5,2.48,1.37,2.48,1.36-1,1.36-2.48-.37-2.48-1.36-2.48Z"/><path class="cls-37" d="M476.14,337a4.59,4.59,0,0,1-4.6,4.59,4.6,4.6,0,1,1,4.6-4.59"/><circle class="cls-29" cx="471.54" cy="336.95" r="4.59"/><path class="cls-32" d="M487.55,348.73h-4l-.37,2.73c.25,0,.49-.12.87-.12a3.35,3.35,0,0,1,2.23.62,3,3,0,0,1,1.49,2.85,3.69,3.69,0,0,1-3.85,3.73,6.24,6.24,0,0,1-2.6-.62l.37-1.12a4.34,4.34,0,0,0,2.23.62,2.38,2.38,0,0,0,2.48-2.36c0-1.49-.86-2.36-3-2.36a4.89,4.89,0,0,0-1.49.13l.62-5.09h5v1Z"/><path class="cls-32" d="M492.89,358.41c-2,0-3.35-2-3.48-5.58s1.49-5.59,3.6-5.59,3.35,2,3.35,5.46c0,3.73-1.24,5.71-3.47,5.71Zm0-1.12c1.36,0,2.11-1.73,2.11-4.46s-.62-4.35-2.11-4.35c-1.24,0-2.11,1.74-2.11,4.35,0,2.85.87,4.46,2.11,4.46Z"/><path class="cls-32" d="M500,347.24c1.36,0,2.36,1.12,2.36,3.23s-1.12,3.35-2.49,3.35-2.35-1.12-2.35-3.23,1.11-3.35,2.48-3.35Zm-.13,1c-.86,0-1.36,1.11-1.36,2.48s.5,2.48,1.36,2.48,1.37-1,1.37-2.48-.37-2.48-1.37-2.48Zm-.12,10.3,6.08-11.17h.87l-6.08,11.17Zm7-6.83c1.36,0,2.36,1.12,2.36,3.23s-1.12,3.35-2.48,3.35-2.36-1.12-2.36-3.23,1.11-3.35,2.48-3.35Zm-.12,1c-.87,0-1.37,1.12-1.37,2.49s.5,2.48,1.37,2.48,1.36-1,1.36-2.48-.37-2.49-1.36-2.49Z"/><path class="cls-32" d="M415.46,303.57a12.28,12.28,0,0,0-.13-2.24h1.25l.12,1.37h0a2.74,2.74,0,0,1,2.48-1.49c1.12,0,2.73.62,2.73,3.47v4.84h-1.36v-4.59c0-1.24-.5-2.36-1.74-2.36a2,2,0,0,0-1.86,1.49c-.13.13-.13.5-.13.62v4.84h-1.36Z"/><path class="cls-32" d="M430.6,307.29a12.42,12.42,0,0,0,.12,2.23h-1.24l-.12-1.36h0a2.85,2.85,0,0,1-2.49,1.49c-1.24,0-2.6-.75-2.6-3.48v-4.71h1.36v4.46c0,1.49.5,2.61,1.74,2.61a1.9,1.9,0,0,0,1.86-1.36,1.53,1.53,0,0,0,.13-.75v-5h1.36l-.12,5.83Z"/><path class="cls-32" d="M438.41,309.15a5.92,5.92,0,0,1-2.23.5c-2.36,0-3.85-1.62-3.85-4.1a4,4,0,0,1,4.1-4.34,6.29,6.29,0,0,1,2,.37L438,302.7a4.28,4.28,0,0,0-1.61-.37c-1.74,0-2.73,1.36-2.73,3.1s1.12,3,2.6,3A5,5,0,0,0,438,308Z"/><path class="cls-32" d="M440,297.61h1.36V309.4H440Z"/><path class="cls-32" d="M444.49,305.68a2.45,2.45,0,0,0,2.61,2.73,4.56,4.56,0,0,0,2.11-.38l.25,1a6.15,6.15,0,0,1-2.61.49c-2.36,0-3.72-1.61-3.72-4.09s1.36-4.34,3.6-4.34c2.48,0,3.1,2.35,3.1,3.72v.74Zm4.1-1.12c0-.87-.37-2.36-1.86-2.36s-2,1.37-2.11,2.36Z"/><path class="cls-32" d="M454.79,309.65c-2.11,0-3.72-1.62-3.72-4.1,0-2.73,1.74-4.22,3.85-4.22s3.72,1.74,3.72,4.1a3.89,3.89,0,0,1-3.85,4.22Zm0-1.12c1.37,0,2.36-1.36,2.36-3.1,0-1.37-.62-3.1-2.23-3.1s-2.36,1.61-2.36,3.1c0,1.74.87,3.1,2.23,3.1Z"/><path class="cls-32" d="M462,299.47v2h2v1.11h-2v4.35c0,1,.25,1.61,1,1.61a1.91,1.91,0,0,0,.87-.12l.13,1.11a3.05,3.05,0,0,1-1.25.25,2,2,0,0,1-1.48-.62,3.28,3.28,0,0,1-.5-2.11V302.7h-1.24v-1.12h1.24v-1.49Z"/><path class="cls-32" d="M466.21,300a.88.88,0,0,1-.87-1,.78.78,0,0,1,.87-.87.85.85,0,0,1,.87.87.88.88,0,0,1-.87,1Zm-.62,9.43v-8.07H467v8.07Z"/><path class="cls-32" d="M475.89,297.61v9.68a11.76,11.76,0,0,0,.12,2.11h-1.24l-.12-1.37h0a2.85,2.85,0,0,1-2.61,1.62c-1.86,0-3.35-1.62-3.35-4.1,0-2.73,1.61-4.34,3.47-4.34a2.61,2.61,0,0,1,2.36,1.24h0v-4.84Zm-1.37,7.07a1.17,1.17,0,0,0-.12-.62,2.23,2.23,0,0,0-2-1.73c-1.49,0-2.23,1.36-2.23,3.1s.74,3,2.23,3a2,2,0,0,0,2-1.74c0-.25.12-.37.12-.62Z"/><path class="cls-32" d="M479,305.68a2.44,2.44,0,0,0,2.6,2.73,4.5,4.5,0,0,0,2.11-.38l.25,1a6.06,6.06,0,0,1-2.6.49c-2.36,0-3.73-1.61-3.73-4.09s1.37-4.34,3.6-4.34c2.48,0,3.1,2.35,3.1,3.72v.74Zm4.09-1.12c0-.87-.37-2.36-1.86-2.36s-2,1.37-2.11,2.36Z"/><path class="cls-32" d="M425.39,319.82a15.82,15.82,0,0,0-.13-2.6h1.24l.13,1.36h0a2.94,2.94,0,0,1,2.73-1.61c1.86,0,3.22,1.61,3.22,4.09,0,2.86-1.73,4.35-3.47,4.35a2.83,2.83,0,0,1-2.36-1.25h0v4.35h-1.36Zm1.48,2.11a1.07,1.07,0,0,0,.13.62,2.25,2.25,0,0,0,2.11,1.74c1.49,0,2.36-1.24,2.36-3.1,0-1.62-.75-3-2.24-3a2.24,2.24,0,0,0-2.11,1.74c0,.24-.12.37-.12.62C426.87,320.57,426.87,321.93,426.87,321.93Z"/><path class="cls-32" d="M434.44,319.7a15.51,15.51,0,0,0-.12-2.48h1.24l.12,1.61h0a2.34,2.34,0,0,1,2.11-1.74h.38v1.37h-.5a1.9,1.9,0,0,0-1.86,1.86v5.09h-1.37Z"/><path class="cls-32" d="M440.28,321.43a2.44,2.44,0,0,0,2.6,2.73,4.58,4.58,0,0,0,2.11-.37l.25,1a6.15,6.15,0,0,1-2.61.49c-2.35,0-3.72-1.61-3.72-4.09s1.37-4.35,3.6-4.35c2.48,0,3.1,2.36,3.1,3.85v.75Zm4.09-1c0-.87-.37-2.36-1.86-2.36s-2,1.37-2.11,2.36Z"/><path class="cls-32" d="M447.22,323.67a3.69,3.69,0,0,0,1.87.62c1,0,1.48-.5,1.48-1.24s-.37-1.12-1.36-1.49c-1.37-.5-2-1.37-2-2.23a2.42,2.42,0,0,1,2.61-2.36,3.79,3.79,0,0,1,1.86.49l-.37,1a3.44,3.44,0,0,0-1.61-.5,1.09,1.09,0,0,0-1.25,1.12c0,.62.5,1,1.49,1.36,1.37.5,2,1.24,2,2.48,0,1.49-1.12,2.49-2.85,2.49a3.55,3.55,0,0,1-2.11-.62Z"/><path class="cls-32" d="M454.54,321.43a2.45,2.45,0,0,0,2.61,2.73,4.58,4.58,0,0,0,2.11-.37l.25,1a6.15,6.15,0,0,1-2.61.49c-2.36,0-3.72-1.61-3.72-4.09s1.36-4.35,3.6-4.35c2.48,0,3.1,2.36,3.1,3.85v.75Zm4.1-1c0-.87-.37-2.36-1.86-2.36s-2,1.37-2.11,2.36Z"/><path class="cls-32" d="M461.62,319.33a12.28,12.28,0,0,0-.13-2.24h1.24l.13,1.37h0a2.74,2.74,0,0,1,2.48-1.49c1.12,0,2.73.62,2.73,3.47v4.84H466.7v-4.59c0-1.24-.49-2.36-1.73-2.36a2,2,0,0,0-1.86,1.49c-.13.13-.13.5-.13.62v4.84h-1.36v-5.95Z"/><path class="cls-32" d="M472,315.23v2h2v1.11h-2v4.35c0,1,.25,1.61,1,1.61a1.76,1.76,0,0,0,.87-.13l.13,1.12a3.05,3.05,0,0,1-1.25.25,2,2,0,0,1-1.48-.62,3.28,3.28,0,0,1-.5-2.11v-4.34h-1.24v-1.12h1.24v-1.49Z"/><path class="cls-32" d="M524.9,303.57a13.29,13.29,0,0,0-.12-2.24H526l.12,1.37h0a2.74,2.74,0,0,1,2.48-1.49c1.12,0,2.73.62,2.73,3.47v4.84H530v-4.59c0-1.24-.5-2.36-1.74-2.36a2,2,0,0,0-1.86,1.49c-.13.13-.13.5-.13.62v4.84H524.9v-5.95Z"/><path class="cls-32" d="M540.16,307.29a11.48,11.48,0,0,0,.13,2.23H539l-.12-1.36h0a2.83,2.83,0,0,1-2.48,1.49c-1.24,0-2.61-.75-2.61-3.48v-4.71h1.37v4.46c0,1.49.49,2.61,1.74,2.61a1.9,1.9,0,0,0,1.86-1.36,1.64,1.64,0,0,0,.12-.75v-5h1.37l-.13,5.83Z"/><path class="cls-32" d="M547.85,309.15a5.92,5.92,0,0,1-2.23.5c-2.36,0-3.85-1.62-3.85-4.1a4,4,0,0,1,4.1-4.34,6.29,6.29,0,0,1,2,.37l-.37,1.12a4.28,4.28,0,0,0-1.61-.37c-1.74,0-2.73,1.36-2.73,3.1s1.12,3,2.61,3a5,5,0,0,0,1.73-.38Z"/><path class="cls-32" d="M549.47,297.61h1.36V309.4h-1.36Z"/><path class="cls-32" d="M554.06,305.68a2.44,2.44,0,0,0,2.6,2.73,4.5,4.5,0,0,0,2.11-.38l.25,1a6.06,6.06,0,0,1-2.6.49c-2.36,0-3.73-1.61-3.73-4.09s1.37-4.34,3.6-4.34c2.48,0,3.1,2.35,3.1,3.72v.74Zm4-1.12c0-.87-.37-2.36-1.86-2.36s-2,1.37-2.11,2.36Z"/><path class="cls-32" d="M564.23,309.65c-2.11,0-3.72-1.62-3.72-4.1,0-2.73,1.74-4.22,3.85-4.22s3.72,1.74,3.72,4.1a3.89,3.89,0,0,1-3.85,4.22Zm.13-1.12c1.36,0,2.36-1.36,2.36-3.1,0-1.37-.63-3.1-2.24-3.1s-2.36,1.61-2.36,3.1c-.12,1.74.87,3.1,2.24,3.1Z"/><path class="cls-32" d="M571.55,299.47v2h2v1.11h-2v4.35c0,1,.25,1.61,1,1.61a1.91,1.91,0,0,0,.87-.12l.12,1.11a3,3,0,0,1-1.24.25,2.06,2.06,0,0,1-1.49-.62,3.34,3.34,0,0,1-.5-2.11V302.7h-1.24v-1.12h1.24v-1.49Z"/><path class="cls-32" d="M575.77,300a.89.89,0,0,1-.87-1,.79.79,0,0,1,.87-.87.85.85,0,0,1,.87.87,1,1,0,0,1-.87,1ZM575,309.4v-8.07h1.36v8.07Z"/><path class="cls-32" d="M585.33,297.61v9.68a11.76,11.76,0,0,0,.12,2.11h-1.24l-.12-1.37h0a2.85,2.85,0,0,1-2.61,1.62c-1.86,0-3.35-1.62-3.35-4.1,0-2.73,1.61-4.34,3.48-4.34a2.61,2.61,0,0,1,2.35,1.24h0v-4.84ZM584,304.68a1.17,1.17,0,0,0-.12-.62,2.23,2.23,0,0,0-2-1.73c-1.49,0-2.23,1.36-2.23,3.1s.74,3,2.23,3a2,2,0,0,0,2-1.74c0-.25.12-.37.12-.62Z"/><path class="cls-32" d="M588.43,305.68a2.45,2.45,0,0,0,2.61,2.73,4.49,4.49,0,0,0,2.1-.38l.25,1a6.06,6.06,0,0,1-2.6.49c-2.36,0-3.73-1.61-3.73-4.09s1.37-4.34,3.6-4.34c2.48,0,3.11,2.35,3.11,3.72v.74Zm4.09-1.12c0-.87-.37-2.36-1.86-2.36s-2,1.37-2.11,2.36Z"/><path class="cls-32" d="M535.57,315.73a.89.89,0,0,1-.87-1,.87.87,0,0,1,1.74,0,1,1,0,0,1-.87,1Zm-.62,9.43v-8.07h1.37v8.07Z"/><path class="cls-32" d="M545.25,313.37v9.68a11.76,11.76,0,0,0,.12,2.11h-1.24l-.12-1.37h0a2.84,2.84,0,0,1-2.61,1.62c-1.86,0-3.35-1.62-3.35-4.1,0-2.73,1.62-4.34,3.48-4.34a2.61,2.61,0,0,1,2.35,1.24h0v-4.84Zm-1.49,7.07a1.15,1.15,0,0,0-.12-.62,2.25,2.25,0,0,0-2-1.74c-1.49,0-2.23,1.37-2.23,3.11s.74,3,2.23,3a2,2,0,0,0,2-1.73c0-.25.12-.37.12-.62Z"/><path class="cls-32" d="M548.35,321.43a2.44,2.44,0,0,0,2.61,2.73,4.58,4.58,0,0,0,2.11-.37l.24,1a6.06,6.06,0,0,1-2.6.49c-2.36,0-3.72-1.61-3.72-4.09s1.36-4.35,3.59-4.35c2.49,0,3.11,2.36,3.11,3.85v.75Zm4-1c0-.87-.37-2.36-1.86-2.36s-2,1.37-2.11,2.36Z"/><path class="cls-32" d="M555.42,319.33a13.29,13.29,0,0,0-.12-2.24h1.24l.12,1.37h0a2.77,2.77,0,0,1,2.49-1.49c1.11,0,2.73.62,2.73,3.47v4.84h-1.37v-4.59c0-1.24-.5-2.36-1.74-2.36a2,2,0,0,0-1.86,1.49,1.17,1.17,0,0,0-.12.62v4.84h-1.37v-5.95Z"/><path class="cls-32" d="M565.85,315.23v2h2v1.11h-2v4.35c0,1,.24,1.61,1,1.61a1.78,1.78,0,0,0,.87-.13l.12,1.12a3,3,0,0,1-1.24.25,2.06,2.06,0,0,1-1.49-.62,3.35,3.35,0,0,1-.49-2.11v-4.34h-1.24v-1.12h1.24v-1.49Z"/><path class="cls-32" d="M570.07,315.73a.89.89,0,0,1-.87-1,.87.87,0,0,1,1.73,0,.81.81,0,0,1-.86,1Zm-.62,9.43v-8.07h1.36v8.07Z"/><path class="cls-32" d="M574.78,315.23v2h2v1.11h-2v4.35c0,1,.25,1.61,1,1.61a1.76,1.76,0,0,0,.87-.13l.13,1.12a3,3,0,0,1-1.24.25,2,2,0,0,1-1.49-.62,3.28,3.28,0,0,1-.5-2.11v-4.34H572.3v-1.12h1.24v-1.49Z"/><path class="cls-32" d="M579,317.22l1.61,4.71a8.5,8.5,0,0,1,.5,1.61h0a12.14,12.14,0,0,1,.5-1.73l1.48-4.72h1.49l-2.11,5.71c-1,2.73-1.73,4.22-2.6,5.09a5.21,5.21,0,0,1-1.74,1l-.37-1.24a3.17,3.17,0,0,0,1.24-.75,4.09,4.09,0,0,0,1.12-1.61.63.63,0,0,0,0-.74l-2.86-7.45,1.74.13Z"/><path class="cls-32" d="M573.91,369.33v1l-4.46,9.81h-1.37l4.47-9.56h-5.09v-1.24Z"/><path class="cls-32" d="M581.48,370.57h-4l-.37,2.73c.25,0,.49-.12.87-.12a3.35,3.35,0,0,1,2.23.62,3,3,0,0,1,1.49,2.85,3.68,3.68,0,0,1-3.85,3.72,6.09,6.09,0,0,1-2.6-.62l.37-1.11a4.34,4.34,0,0,0,2.23.62,2.38,2.38,0,0,0,2.48-2.36c0-1.49-.86-2.36-3-2.36a4.89,4.89,0,0,0-1.49.13l.62-5.09h5v1Z"/><path class="cls-32" d="M585.7,369.08c1.36,0,2.36,1.12,2.36,3.23s-1.12,3.35-2.48,3.35-2.36-1.12-2.36-3.23,1.12-3.35,2.48-3.35Zm0,.87c-.87,0-1.36,1.12-1.36,2.48s.49,2.48,1.36,2.48,1.36-1,1.36-2.48-.37-2.48-1.36-2.48Zm-.12,10.3,6.08-11.17h.86l-6.08,11.17Zm6.82-6.7c1.37,0,2.36,1.12,2.36,3.23s-1.12,3.35-2.48,3.35-2.36-1.12-2.36-3.23,1.12-3.35,2.48-3.35Zm0,.87c-.87,0-1.36,1.11-1.36,2.48s.49,2.48,1.36,2.48,1.37-1,1.37-2.48-.38-2.48-1.37-2.48Z"/><path class="cls-38" d="M534.45,380.13V369h1.49l3.35,5.71c.75,1.36,1.37,2.48,1.86,3.59h0c-.12-1.48-.12-2.85-.12-4.59V369h1.24v11.17h-1.36l-3.35-5.71a26.94,26.94,0,0,1-2-3.72h0c.12,1.36.12,2.73.12,4.59v4.84Z"/><path class="cls-39" d="M534.45,346.5V335.33h1.49l3.35,5.71c.75,1.36,1.37,2.48,1.86,3.6h0c-.12-1.49-.12-2.86-.12-4.59v-4.72h1.24V346.5h-1.36l-3.35-5.71a26.94,26.94,0,0,1-2-3.72h0c.12,1.36.12,2.73.12,4.59v4.84Z"/><path class="cls-32" d="M568.08,345.51a4.12,4.12,0,0,0,1.12-.13,3.7,3.7,0,0,0,2.11-1,5.6,5.6,0,0,0,1.36-2.85h0a3,3,0,0,1-2.48,1.11c-1.86,0-3-1.49-3-3.35a3.64,3.64,0,0,1,3.48-3.84c2.11,0,3.35,1.73,3.35,4.59a7.12,7.12,0,0,1-1.74,5.08,5.21,5.21,0,0,1-3,1.49,4.92,4.92,0,0,1-1.24.13v-1.24Zm2.48-8.81c-1.11,0-2,1.11-2,2.6a2,2,0,0,0,2,2.24,2.22,2.22,0,0,0,2-1.12c.12-.12.12-.25.12-.5,0-1.86-.62-3.22-2.11-3.22Z"/><path class="cls-32" d="M582,335.7v1l-4.47,9.8h-1.36l4.46-9.55h-5.08V335.7Z"/><path class="cls-32" d="M585.7,335.58c1.36,0,2.36,1.12,2.36,3.23s-1.12,3.35-2.48,3.35-2.36-1.12-2.36-3.23,1.12-3.35,2.48-3.35Zm0,.87c-.87,0-1.36,1.12-1.36,2.48s.49,2.48,1.36,2.48,1.36-1,1.36-2.48-.37-2.48-1.36-2.48Zm-.12,10.3,6.08-11.17h.86l-6.08,11.17Zm6.82-6.7c1.37,0,2.36,1.11,2.36,3.22s-1.12,3.35-2.48,3.35-2.36-1.11-2.36-3.22,1.12-3.35,2.48-3.35Zm0,.87c-.87,0-1.36,1.11-1.36,2.48s.49,2.48,1.36,2.48,1.37-1,1.37-2.48-.38-2.48-1.37-2.48Z"/><path class="cls-32" d="M534.45,363.25V352.08h1.49l3.35,5.71c.75,1.37,1.37,2.48,1.86,3.6h0c-.12-1.49-.12-2.85-.12-4.59v-4.72h1.24v11.17h-1.36l-3.35-5.71a26.94,26.94,0,0,1-2-3.72h0c.12,1.37.12,2.73.12,4.59v4.84Z"/><path class="cls-32" d="M568.08,362.26a4.12,4.12,0,0,0,1.12-.13,3.7,3.7,0,0,0,2.11-1,5.6,5.6,0,0,0,1.36-2.85h0a3,3,0,0,1-2.48,1.11c-1.86,0-3-1.48-3-3.35a3.64,3.64,0,0,1,3.48-3.84c2.11,0,3.35,1.73,3.35,4.59a7.15,7.15,0,0,1-1.74,5.09,5.26,5.26,0,0,1-3,1.48,4.92,4.92,0,0,1-1.24.13v-1.24Zm2.48-8.81c-1.11,0-2,1.11-2,2.6a2,2,0,0,0,2,2.24,2.22,2.22,0,0,0,2-1.12c.12-.12.12-.25.12-.5,0-1.86-.62-3.22-2.11-3.22Z"/><path class="cls-32" d="M578.63,363.5c-2,0-3.35-2-3.48-5.58s1.49-5.59,3.6-5.59,3.35,2,3.35,5.46c.13,3.72-1.24,5.71-3.47,5.71Zm0-1.12c1.36,0,2.11-1.73,2.11-4.46s-.62-4.35-2.11-4.35c-1.24,0-2.11,1.74-2.11,4.35s.87,4.46,2.11,4.46Z"/><path class="cls-32" d="M585.7,352.33c1.36,0,2.36,1.12,2.36,3.23s-1.12,3.35-2.48,3.35-2.36-1.12-2.36-3.23,1.12-3.35,2.48-3.35Zm0,.87c-.87,0-1.36,1.12-1.36,2.48s.49,2.48,1.36,2.48,1.36-1,1.36-2.48-.37-2.48-1.36-2.48Zm-.12,10.3,6.08-11.17h.86l-6.08,11.17Zm6.82-6.7c1.37,0,2.36,1.12,2.36,3.22s-1.12,3.35-2.48,3.35-2.36-1.11-2.36-3.22,1.12-3.35,2.48-3.35Zm0,.87c-.87,0-1.36,1.11-1.36,2.48s.49,2.48,1.36,2.48,1.37-1,1.37-2.48-.38-2.48-1.37-2.48Z"/><path d="M622.33,299.28a15.32,15.32,0,0,1,2.54-.23,4.3,4.3,0,0,1,3,.8,2.82,2.82,0,0,1,.8,2,2.77,2.77,0,0,1-2,2.65h0a2.48,2.48,0,0,1,1.5,2.08,16.8,16.8,0,0,0,.81,2.88h-1.38c-.12-.35-.35-1.15-.7-2.54s-.92-2-2.07-2.07H623.6v4.5h-1.39l.12-10Zm1.38,4.73h1.39a2,2,0,0,0,2.3-2c0-1.39-.92-2-2.42-2-.69,0-1,.11-1.38.11V304Z"/><path d="M633.4,304.35v-.92h8v.92Zm0,3v-.92h8v.92Z"/><path d="M648.06,306.32l-1,3.23h-1.39l3.58-10.39h1.62l3.57,10.39h-1.5l-1.15-3.23Zm3.46-1-1-3c-.23-.69-.35-1.27-.58-1.85h0c-.11.58-.34,1.27-.46,1.85l-1,3Z"/><path d="M662.13,309.78a3.87,3.87,0,0,1,.12-7.73,3.51,3.51,0,0,1,3.57,3.8,3.63,3.63,0,0,1-3.69,3.93Zm0-1a2.64,2.64,0,0,0,2.31-2.89c0-1.26-.58-2.88-2.19-2.88s-2.31,1.5-2.31,2.88c0,1.62.92,2.89,2.19,2.89Z"/><path d="M667.56,304.47a13.49,13.49,0,0,0-.12-2.31h1.15l.12,1.5h0a2.18,2.18,0,0,1,2.08-1.61h.34v1.27h-.46a2,2,0,0,0-1.85,1.73v4.73h-1.38Z"/><path d="M683.82,309.08a9.21,9.21,0,0,1-3.23.58,5.13,5.13,0,0,1-3.92-1.38,5.32,5.32,0,0,1-1.5-3.93,5.27,5.27,0,0,1,5.65-5.42,6.86,6.86,0,0,1,2.66.46l-.35,1a5.83,5.83,0,0,0-2.31-.46,3.88,3.88,0,0,0-4.15,4.15,3.79,3.79,0,0,0,4,4.16,6,6,0,0,0,1.84-.23v-3.12h-2.07v-1h3.46v5.19Z"/><path d="M686.48,309.78a.91.91,0,0,1-.93-.93.93.93,0,0,1,1.85,0,.91.91,0,0,1-.92.93Z"/><path d="M694.67,309.55v-4.39l-3.35-6h1.5l1.5,2.89c.35.8.69,1.38,1,2.19h0c.23-.69.69-1.39,1-2.19l1.5-2.89h1.5l-3.46,6v4.39Z"/><path d="M703.44,304.35v-.92h8v.92Zm0,3v-.92h8v.92Z"/><path d="M723.74,309.2a7.08,7.08,0,0,1-2.77.46c-2.88,0-5.07-1.84-5.07-5.31a5.14,5.14,0,0,1,5.42-5.42,4.79,4.79,0,0,1,2.42.46l-.34,1a5,5,0,0,0-2.08-.46c-2.42,0-4,1.62-4,4.27a3.79,3.79,0,0,0,4,4.15,4.32,4.32,0,0,0,2.19-.46Z"/><path d="M731.7,309.78a3.87,3.87,0,0,1,.12-7.73,3.51,3.51,0,0,1,3.58,3.8,3.7,3.7,0,0,1-3.7,3.93Zm0-1a2.64,2.64,0,0,0,2.31-2.89c0-1.26-.58-2.88-2.19-2.88s-2.31,1.5-2.31,2.88c0,1.62.92,2.89,2.19,2.89Z"/><path d="M737.13,304.47a13.49,13.49,0,0,0-.12-2.31h1.15l.12,1.5h0a2.18,2.18,0,0,1,2.08-1.61h.34v1.27h-.46a2,2,0,0,0-1.84,1.73v4.73h-1.27Z"/><path d="M746.82,299.16v6.23c0,2.31,1,3.35,2.42,3.35s2.54-1,2.54-3.35v-6.23h1.38v6.12c0,3.23-1.73,4.5-3.92,4.5s-3.69-1.16-3.69-4.5v-6.12Z"/><path d="M756.05,309.78a.91.91,0,0,1-.93-.93.93.93,0,0,1,1.85,0,.91.91,0,0,1-.92.93Z"/><path d="M761.35,302.62a25.12,25.12,0,0,1,1.39-3.69l.81-.11a31,31,0,0,0-.93,3.57Zm2.2,0a25.23,25.23,0,0,1,1.38-3.69l.81-.11a31,31,0,0,0-.92,3.57Z"/><path d="M767.35,304.12a12.39,12.39,0,0,0-.11-2.07h1.15l.12,1.27h0a2.74,2.74,0,0,1,2.42-1.39c1,0,2.65.58,2.65,3.23v4.5H772.2v-4.27c0-1.15-.46-2.19-1.73-2.19a1.88,1.88,0,0,0-1.85,1.39c-.11.11-.11.46-.11.57v4.5h-1.39l.23-5.54Z"/><path d="M777.51,300.32v1.84h2v1h-2v4c0,.92.23,1.5,1,1.5a1.63,1.63,0,0,0,.8-.12l.12,1a2.82,2.82,0,0,1-1.16.23,2.19,2.19,0,0,1-1.49-.57,3.06,3.06,0,0,1-.58-2v-4.26h-1.16v-1h1.16v-1.39Z"/><path d="M782.7,298.82a25.12,25.12,0,0,1-1.39,3.69l-.8.11a33.21,33.21,0,0,0,.92-3.57Zm2.31,0a25.12,25.12,0,0,1-1.39,3.69l-.81.11a31,31,0,0,0,.93-3.57Z"/><path d="M789.28,304.35v-.92h8v.92Zm0,3v-.92h8v.92Z"/><path d="M622.33,322.58a11.37,11.37,0,0,0-.12-2.07h1.16l.11,1.27h0a2.76,2.76,0,0,1,2.43-1.39c1,0,2.65.58,2.65,3.23v4.5h-1.39v-4.27c0-1.15-.46-2.19-1.73-2.19a1.87,1.87,0,0,0-1.84,1.39c-.12.11-.12.46-.12.57v4.5H622.1l.23-5.54Z"/><path d="M637.1,326a11.8,11.8,0,0,0,.11,2.08h-1.15l-.12-1.27h0a2.82,2.82,0,0,1-2.42,1.39c-1.15,0-2.54-.7-2.54-3.23v-4.39h1.39v4.16c0,1.38.46,2.42,1.61,2.42a2,2,0,0,0,1.85-1.27,1.52,1.52,0,0,0,.11-.69v-4.62h1.39L637.1,326Z"/><path d="M644.71,327.78a6.36,6.36,0,0,1-2.19.46,3.48,3.48,0,0,1-3.69-3.81,3.87,3.87,0,0,1,4-4,5.61,5.61,0,0,1,1.84.35l-.34,1a4.16,4.16,0,0,0-1.62-.35,2.6,2.6,0,0,0-2.65,2.88,2.55,2.55,0,0,0,2.53,2.77,4.39,4.39,0,0,0,1.62-.34Z"/><path d="M646.33,317.16h1.38v11h-1.38Z"/><path d="M650.71,324.55a2.3,2.3,0,0,0,2.54,2.53,4.9,4.9,0,0,0,2.08-.34l.23.92a5.81,5.81,0,0,1-2.54.46,3.48,3.48,0,0,1-3.69-3.81c0-2.3,1.38-4,3.57-4,2.43,0,3.12,2.19,3.12,3.57v.7Zm3.92-.93a1.94,1.94,0,0,0-1.84-2.19,2.24,2.24,0,0,0-2.08,2.19Z"/><path d="M660.75,328.24a3.87,3.87,0,0,1,.11-7.73,3.51,3.51,0,0,1,3.58,3.8,3.63,3.63,0,0,1-3.69,3.93Zm0-1a2.64,2.64,0,0,0,2.31-2.89c0-1.26-.58-2.88-2.2-2.88s-2.3,1.5-2.3,2.88c-.12,1.73.8,2.89,2.19,2.89Z"/><path d="M667.79,318.78v1.84h2v1h-2v4c0,.92.23,1.5,1,1.5a1.65,1.65,0,0,0,.81-.12l.12,1a2.82,2.82,0,0,1-1.16.23,2.24,2.24,0,0,1-1.5-.57,3.12,3.12,0,0,1-.57-2v-4h-1.16v-1h1.16v-1.5Z"/><path d="M671.94,319.24a.83.83,0,0,1-.81-.93c0-.57.35-.8.92-.8a.72.72,0,0,1,.81.8,1,1,0,0,1-.92.93Zm-.69,8.88v-7.5h1.38v7.5Z"/><path d="M681.28,317.16v9a10.17,10.17,0,0,0,.12,2h-1.27l-.11-1.27h0a2.82,2.82,0,0,1-2.54,1.5c-1.85,0-3.23-1.5-3.23-3.8,0-2.54,1.5-4,3.34-4a2.65,2.65,0,0,1,2.31,1.15h0v-4.5Zm-1.38,6.46a1.06,1.06,0,0,0-.11-.57,2.12,2.12,0,0,0-2-1.62c-1.38,0-2.19,1.27-2.19,2.88s.81,2.77,2.19,2.77a2,2,0,0,0,2-1.61c0-.23.11-.35.11-.58Z"/><path d="M684.28,324.55a2.3,2.3,0,0,0,2.54,2.53,4.84,4.84,0,0,0,2.08-.34l.23.92a5.78,5.78,0,0,1-2.54.46,3.48,3.48,0,0,1-3.69-3.81c0-2.3,1.38-4,3.58-4,2.42,0,3.11,2.19,3.11,3.57v.7Zm4-.93a1.94,1.94,0,0,0-1.84-2.19,2.24,2.24,0,0,0-2.08,2.19Z"/><path d="M691.09,326.74a4.38,4.38,0,0,0,1.85.57c.92,0,1.38-.46,1.38-1.15s-.34-1-1.38-1.38c-1.39-.47-2-1.27-2-2.08a2.35,2.35,0,0,1,2.53-2.19,4,4,0,0,1,1.85.46l-.35.92a3.85,3.85,0,0,0-1.5-.46c-.8,0-1.26.46-1.26,1s.46.92,1.38,1.27c1.27.46,2,1.15,2,2.3,0,1.39-1,2.31-2.77,2.31a3.71,3.71,0,0,1-2.07-.57Z"/><path d="M698,328.24a.91.91,0,0,1-.92-.93.93.93,0,0,1,1.85,0,.91.91,0,0,1-.93.93Z"/><path d="M706.55,321.2a25.12,25.12,0,0,1,1.39-3.69l.92-.12a31.19,31.19,0,0,0-.92,3.58Zm2.31,0a26.44,26.44,0,0,1,1.38-3.69l.81-.12a33.4,33.4,0,0,0-.92,3.58Z"/><path d="M712.67,317.85a15.24,15.24,0,0,1,2.54-.23,4.54,4.54,0,0,1,2.88.81,2.76,2.76,0,0,1,.92,2.19,2.69,2.69,0,0,1-.81,2.19A4.09,4.09,0,0,1,715,324a2.73,2.73,0,0,1-1-.12V328h-1.39V317.85Zm1.38,5a3.45,3.45,0,0,0,1.16.12c1.61,0,2.65-.81,2.65-2.19s-.92-2.08-2.42-2.08c-.58,0-1,.12-1.27.12l-.12,4Z"/><path d="M723.28,319.35h0l-1.73.93-.23-1,2.19-1.16h1.16v10h-1.39Z"/><path d="M730.43,317.39a24.13,24.13,0,0,1-1.38,3.69l-.81.12a33.39,33.39,0,0,0,.93-3.58Zm2.31,0a25.23,25.23,0,0,1-1.38,3.69l-.81.12a31.19,31.19,0,0,0,.92-3.58Z"/><path d="M737,322.93V322h8v.92Zm0,3V325h8v.92Z"/><path d="M749.93,323.05a16.27,16.27,0,0,0-.11-2.43h1.27l.11,1.27h0a2.94,2.94,0,0,1,2.66-1.5c1.84,0,3.23,1.5,3.23,3.81,0,2.65-1.62,4-3.35,4a2.67,2.67,0,0,1-2.31-1.16h0v4h-1.38l-.12-8.07Zm1.39,2a1.06,1.06,0,0,0,.11.57,2.11,2.11,0,0,0,2.08,1.62c1.38,0,2.31-1.16,2.31-2.89,0-1.5-.81-2.76-2.2-2.76a2.21,2.21,0,0,0-2.07,1.61c0,.23-.12.35-.12.58V325Z"/><path d="M764,326.28a9.74,9.74,0,0,0,.11,1.84h-1.27l-.11-.92h0a2.81,2.81,0,0,1-2.31,1.15,2.15,2.15,0,0,1-2.31-2.19c0-1.85,1.62-2.77,4.5-2.77v-.11a1.53,1.53,0,0,0-1.73-1.73,4,4,0,0,0-2,.57l-.34-.92a4.94,4.94,0,0,1,2.42-.69c2.31,0,2.88,1.61,2.88,3l.12,2.77Zm-1.39-2c-1.5,0-3.11.24-3.11,1.73a1.15,1.15,0,0,0,1.27,1.27,1.79,1.79,0,0,0,1.84-1.27c0-.11.12-.34.12-.46l-.12-1.27Z"/><path d="M766.78,319.24a.83.83,0,0,1-.81-.93c0-.57.35-.8.92-.8a.72.72,0,0,1,.81.8.91.91,0,0,1-.92.93Zm-.58,8.88v-7.5h1.39v7.5Z"/><path d="M769.78,322.93a13.49,13.49,0,0,0-.12-2.31h1.16l.11,1.5h0a2.18,2.18,0,0,1,2.08-1.61h.34v1.27h-.46a2,2,0,0,0-1.84,1.73v4.73h-1.39Z"/><path d="M775.43,319.24a.83.83,0,0,1-.81-.93c0-.57.35-.8.93-.8a.72.72,0,0,1,.8.8.91.91,0,0,1-.92.93Zm-.58,8.88v-7.5h1.39v7.5Z"/><path d="M778.43,322.58a11.37,11.37,0,0,0-.12-2.07h1.16l.11,1.27h0a2.76,2.76,0,0,1,2.43-1.39c1,0,2.65.58,2.65,3.23v4.5h-1.38v-4.27c0-1.15-.47-2.19-1.73-2.19a1.87,1.87,0,0,0-1.85,1.39c-.12.11-.12.46-.12.57v4.5H778.2v-5.54Z"/><path d="M793.43,327a4.6,4.6,0,0,1-1,3.46,4,4,0,0,1-2.77.92,6,6,0,0,1-2.54-.57l.35-1a3.87,3.87,0,0,0,2.19.57c1.39,0,2.42-.69,2.42-2.65v-.81h0a2.67,2.67,0,0,1-2.42,1.27,3.42,3.42,0,0,1-3.23-3.69c0-2.54,1.62-3.92,3.35-3.92a2.54,2.54,0,0,1,2.3,1.27h0v-1.16h1.16c0,.58-.12,1.16-.12,2.08l.35,4.27ZM792,323.51a.92.92,0,0,0-.11-.58,2,2,0,0,0-1.85-1.5c-1.27,0-2.19,1-2.19,2.88,0,1.5.81,2.66,2.19,2.66a2,2,0,0,0,1.85-1.39,1.52,1.52,0,0,0,.11-.69v-1.38Z"/><path d="M623.14,343.12a2.3,2.3,0,0,0,2.53,2.54,4.81,4.81,0,0,0,2.08-.35l.23.93a5.78,5.78,0,0,1-2.54.46,3.49,3.49,0,0,1-3.69-3.81c0-2.31,1.39-4,3.46-4,2.43,0,3.12,2.19,3.12,3.58v.69Zm3.92-1a2,2,0,0,0-1.85-2.19,2.23,2.23,0,0,0-2.07,2.19Z"/><path d="M630.06,335.62h1.38v11h-1.38Z"/><path d="M634.44,343.12a2.31,2.31,0,0,0,2.54,2.54,4.84,4.84,0,0,0,2.08-.35l.23.93a5.78,5.78,0,0,1-2.54.46,3.48,3.48,0,0,1-3.69-3.81c0-2.31,1.38-4,3.57-4,2.43,0,3.12,2.19,3.12,3.58v.69Zm3.93-1a2,2,0,0,0-1.85-2.19,2.25,2.25,0,0,0-2.08,2.19Z"/><path d="M641.37,341.16a11.42,11.42,0,0,0-.12-2.08h1.15l.12,1.16h0a2.69,2.69,0,0,1,2.31-1.39,2.11,2.11,0,0,1,2.07,1.5h0a3.29,3.29,0,0,1,.81-.92,2.48,2.48,0,0,1,1.62-.58c1,0,2.42.69,2.42,3.23v4.39h-1.39V342.2c0-1.5-.57-2.31-1.61-2.31a1.74,1.74,0,0,0-1.62,1.27,1.52,1.52,0,0,0-.11.69v4.62h-1.39V342c0-1.16-.57-2.08-1.61-2.08a2,2,0,0,0-1.73,1.38,1.46,1.46,0,0,0-.12.7v4.5h-.8v-5.31Z"/><path d="M655.09,343.12a2.31,2.31,0,0,0,2.54,2.54,4.81,4.81,0,0,0,2.08-.35l.23.93a5.78,5.78,0,0,1-2.54.46,3.48,3.48,0,0,1-3.69-3.81c0-2.31,1.38-4,3.58-4,2.42,0,3.11,2.19,3.11,3.58v.69Zm3.93-1a2,2,0,0,0-1.85-2.19,2.25,2.25,0,0,0-2.08,2.19Z"/><path d="M662,341.16a11.42,11.42,0,0,0-.12-2.08h1.16l.11,1.27h0a2.76,2.76,0,0,1,2.42-1.38c1,0,2.66.57,2.66,3.23v4.5h-1.39v-4.39c0-1.15-.46-2.19-1.73-2.19a1.87,1.87,0,0,0-1.84,1.39c-.12.11-.12.46-.12.57v4.5h-1.38l.23-5.42Z"/><path d="M672.17,337.35v1.85h2v1h-2v4c0,.93.23,1.5,1,1.5a1.81,1.81,0,0,0,.81-.11l.11,1a3,3,0,0,1-1.15.23,2.16,2.16,0,0,1-1.5-.58,3,3,0,0,1-.58-2v-4h-1.15v-1h1.15v-1.38Z"/><path d="M681.52,337.81h0l-1.73.93-.35-1,2.19-1.16h1.15v10h-1.26Z"/><path d="M687.4,346.81a.9.9,0,0,1-.92-.92.92.92,0,1,1,1.84,0c.12.46-.34.92-.92.92Z"/><text class="cls-40" transform="translate(5.9 25.4)">Li -I riboswitch</text><text class="cls-40" transform="translate(412.67 24.84)">Li -II riboswitch</text><text class="cls-41" transform="translate(21.15 13.91)">+</text><text class="cls-41" transform="translate(427.43 14.46)">+</text></svg>