<svg id="图层_1" data-name="图层 1" xmlns="http://www.w3.org/2000/svg" viewBox="0 0 400 400"><defs><style>.cls-1,.cls-11,.cls-12,.cls-13,.cls-14,.cls-15,.cls-16,.cls-2,.cls-4,.cls-7,.cls-8,.cls-9{isolation:isolate;font-size:8.39px;}.cls-1,.cls-2,.cls-21{fill:#80db9e;}.cls-1,.cls-11,.cls-12,.cls-13,.cls-14,.cls-15,.cls-16,.cls-18,.cls-19,.cls-2,.cls-20,.cls-21,.cls-22,.cls-23,.cls-26,.cls-29,.cls-4,.cls-7,.cls-8,.cls-9{font-family:ArialMT, Arial;}.cls-12,.cls-14,.cls-15,.cls-2,.cls-8{letter-spacing:-0.06em;}.cls-10,.cls-28,.cls-3{fill:none;}.cls-10,.cls-3,.cls-5,.cls-6{stroke:#000;stroke-miterlimit:1.11;}.cls-3,.cls-5,.cls-6{stroke-width:0.14px;}.cls-26,.cls-6{fill:#fff;}.cls-20,.cls-7,.cls-8{fill:#ffaadc;}.cls-14,.cls-22,.cls-9{fill:#09fefe;}.cls-10{stroke-width:0.61px;}.cls-11,.cls-12,.cls-18{fill:#0a0bff;}.cls-13,.cls-15,.cls-19{fill:#ffdf5c;}.cls-16{letter-spacing:-0.07em;}.cls-17{letter-spacing:0em;}.cls-18,.cls-21{font-size:18.37px;}.cls-19,.cls-20,.cls-22{font-size:19.29px;}.cls-23{font-size:20px;}.cls-24{letter-spacing:-0.04em;}.cls-25{fill:red;}.cls-26{font-size:9.19px;}.cls-27{letter-spacing:-0.04em;}.cls-28{stroke:red;stroke-miterlimit:10;}.cls-29{font-size:12.86px;fill:#231815;}.cls-30{letter-spacing:-0.04em;}</style></defs><g id="ID000000"><g id="ID000002"><text class="cls-1" transform="translate(123.3 374.48)">G</text></g><g id="ID000003"><text class="cls-1" transform="translate(123.3 366.36)">G</text></g><g id="ID000004"><text class="cls-1" transform="translate(123.53 358.23)">C</text></g><g id="ID000005"><text class="cls-1" transform="translate(123.53 350.11)">C</text></g><g id="ID000006"><text class="cls-1" transform="translate(123.3 341.99)">G</text></g><g id="ID000007"><text class="cls-2" transform="translate(123.76 333.86)">A</text></g><g id="ID000008"><text class="cls-1" transform="translate(123.53 325.74)">C</text></g><g id="ID000009"><text class="cls-1" transform="translate(123.3 317.62)">G</text></g><g id="ID000010"><text class="cls-1" transform="translate(123.3 309.5)">G</text></g><g id="ID000011"><text class="cls-2" transform="translate(123.76 301.37)">A</text></g><g id="ID000012"><line class="cls-3" x1="121.15" y1="297.72" x2="115.73" y2="297.72"/></g><g id="ID000013"><text class="cls-4" transform="translate(106.4 301.37)">10</text></g><g id="ID000014"><text class="cls-1" transform="translate(123.3 293.25)">G</text></g><g id="ID000015"><text class="cls-2" transform="translate(148.13 301.37)">A</text></g><g id="ID000016"><text class="cls-1" transform="translate(139.54 301.37)">G</text></g><g id="ID000017"><text class="cls-1" transform="translate(139.78 309.5)">C</text></g><g id="ID000018"><text class="cls-1" transform="translate(139.78 317.62)">C</text></g><g id="ID000019"><text class="cls-1" transform="translate(139.54 325.74)">G</text></g><g id="ID000020"><text class="cls-1" transform="translate(139.78 333.86)">U</text></g><g id="ID000021"><text class="cls-1" transform="translate(139.78 341.99)">C</text></g><g id="ID000022"><line class="cls-3" x1="148.22" y1="338.33" x2="153.64" y2="338.33"/></g><g id="ID000023"><text class="cls-4" transform="translate(153.64 341.99)">170</text></g><g id="ID000024"><text class="cls-1" transform="translate(139.54 350.11)">G</text></g><g id="ID000025"><text class="cls-1" transform="translate(139.54 358.23)">G</text></g><g id="ID000026"><text class="cls-1" transform="translate(139.78 366.36)">U</text></g><g id="ID000027"><text class="cls-1" transform="translate(139.78 374.48)">C</text></g><g id="ID000028"><line class="cls-3" x1="129.81" y1="370.83" x2="139.56" y2="370.83"/></g><g id="ID000029"><polygon class="cls-5" points="136.31 362.7 136.31 362.6 136.3 362.5 136.28 362.39 136.26 362.3 136.23 362.2 136.19 362.1 136.15 362 136.1 361.91 136.05 361.82 135.99 361.74 135.93 361.66 135.86 361.58 135.79 361.51 135.71 361.44 135.63 361.38 135.54 361.32 135.45 361.27 135.36 361.23 135.26 361.19 135.17 361.15 135.07 361.12 134.97 361.1 134.87 361.09 134.76 361.08 134.66 361.08 134.56 361.08 134.45 361.09 134.35 361.11 134.25 361.14 134.15 361.17 134.06 361.2 133.96 361.25 133.87 361.3 133.79 361.35 133.7 361.41 133.62 361.48 133.55 361.55 133.47 361.62 133.41 361.7 133.35 361.78 133.29 361.87 133.24 361.96 133.2 362.05 133.16 362.15 133.13 362.25 133.1 362.35 133.08 362.45 133.07 362.55 133.06 362.65 133.06 362.75 133.07 362.86 133.08 362.96 133.1 363.06 133.13 363.16 133.16 363.26 133.2 363.35 133.24 363.45 133.29 363.54 133.35 363.62 133.41 363.71 133.47 363.79 133.55 363.86 133.62 363.93 133.7 364 133.79 364.06 133.87 364.11 133.96 364.16 134.06 364.2 134.15 364.24 134.25 364.27 134.35 364.29 134.45 364.31 134.56 364.32 134.66 364.33 134.76 364.33 134.87 364.32 134.97 364.3 135.07 364.28 135.17 364.25 135.26 364.22 135.36 364.18 135.45 364.13 135.54 364.08 135.63 364.03 135.71 363.96 135.79 363.9 135.86 363.82 135.93 363.75 135.99 363.67 136.05 363.58 136.1 363.49 136.15 363.4 136.19 363.31 136.23 363.21 136.26 363.11 136.28 363.01 136.3 362.91 136.31 362.81 136.31 362.7"/></g><g id="ID000030"><line class="cls-3" x1="129.81" y1="354.58" x2="139.56" y2="354.58"/></g><g id="ID000031"><line class="cls-3" x1="129.81" y1="346.46" x2="139.56" y2="346.46"/></g><g id="ID000032"><line class="cls-3" x1="129.81" y1="338.33" x2="139.56" y2="338.33"/></g><g id="ID000033"><line class="cls-3" x1="129.81" y1="330.21" x2="139.56" y2="330.21"/></g><g id="ID000034"><line class="cls-3" x1="129.81" y1="322.09" x2="139.56" y2="322.09"/></g><g id="ID000035"><line class="cls-3" x1="129.81" y1="313.96" x2="139.56" y2="313.96"/></g><g id="ID000036"><line class="cls-3" x1="129.81" y1="305.84" x2="139.56" y2="305.84"/></g><g id="ID000037"><line class="cls-3" x1="129.81" y1="297.72" x2="139.56" y2="297.72"/></g><g id="ID000038"><polygon class="cls-5" points="136.31 297.72 136.31 297.61 136.3 297.51 136.28 297.41 136.26 297.31 136.23 297.21 136.19 297.11 136.15 297.02 136.1 296.93 136.05 296.84 135.99 296.75 135.93 296.67 135.86 296.6 135.79 296.52 135.71 296.46 135.63 296.39 135.54 296.34 135.45 296.29 135.36 296.24 135.26 296.2 135.17 296.17 135.07 296.14 134.97 296.12 134.87 296.1 134.76 296.09 134.66 296.09 134.56 296.1 134.45 296.11 134.35 296.13 134.25 296.15 134.15 296.18 134.06 296.22 133.96 296.26 133.87 296.31 133.79 296.36 133.7 296.42 133.62 296.49 133.55 296.56 133.47 296.63 133.41 296.71 133.35 296.8 133.29 296.88 133.24 296.97 133.2 297.06 133.16 297.16 133.13 297.26 133.1 297.36 133.08 297.46 133.07 297.56 133.06 297.67 133.06 297.77 133.07 297.87 133.08 297.97 133.1 298.07 133.13 298.17 133.16 298.27 133.2 298.37 133.24 298.46 133.29 298.55 133.35 298.64 133.41 298.72 133.47 298.8 133.55 298.88 133.62 298.94 133.7 299.01 133.79 299.07 133.87 299.12 133.96 299.17 134.06 299.21 134.15 299.25 134.25 299.28 134.35 299.31 134.45 299.32 134.56 299.34 134.66 299.34 134.76 299.34 134.87 299.33 134.97 299.32 135.07 299.3 135.17 299.27 135.26 299.23 135.36 299.19 135.45 299.15 135.54 299.1 135.63 299.04 135.71 298.98 135.79 298.91 135.86 298.84 135.93 298.76 135.99 298.68 136.05 298.6 136.1 298.51 136.15 298.42 136.19 298.32 136.23 298.22 136.26 298.13 136.28 298.02 136.3 297.92 136.31 297.82 136.31 297.72"/></g><g id="ID000039"><line class="cls-3" x1="129.81" y1="289.59" x2="139.56" y2="289.59"/></g><g id="ID000040"><polygon class="cls-6" points="130.95 291.22 134.2 291.22 134.2 287.97 130.95 287.97 130.95 291.22"/></g><g id="ID000041"><polygon class="cls-6" points="138.42 289.59 138.42 289.49 138.41 289.39 138.39 289.29 138.37 289.19 138.34 289.09 138.31 288.99 138.26 288.89 138.22 288.8 138.16 288.71 138.1 288.63 138.04 288.55 137.97 288.47 137.9 288.4 137.82 288.33 137.74 288.27 137.65 288.21 137.56 288.16 137.47 288.12 137.38 288.08 137.28 288.04 137.18 288.01 137.08 287.99 136.98 287.98 136.88 287.97 136.77 287.97 136.67 287.97 136.57 287.99 136.47 288 136.37 288.03 136.27 288.06 136.17 288.1 136.08 288.14 135.99 288.19 135.9 288.24 135.81 288.3 135.73 288.37 135.66 288.44 135.59 288.51 135.52 288.59 135.46 288.67 135.4 288.76 135.35 288.85 135.31 288.94 135.27 289.04 135.24 289.14 135.21 289.24 135.19 289.34 135.18 289.44 135.17 289.54 135.17 289.64 135.18 289.75 135.19 289.85 135.21 289.95 135.24 290.05 135.27 290.15 135.31 290.25 135.35 290.34 135.4 290.43 135.46 290.51 135.52 290.6 135.59 290.68 135.66 290.75 135.73 290.82 135.81 290.89 135.9 290.95 135.99 291 136.08 291.05 136.17 291.09 136.27 291.13 136.37 291.16 136.47 291.18 136.57 291.2 136.67 291.21 136.77 291.22 136.88 291.22 136.98 291.21 137.08 291.19 137.18 291.17 137.28 291.14 137.38 291.11 137.47 291.07 137.56 291.03 137.65 290.97 137.74 290.92 137.82 290.85 137.9 290.79 137.97 290.71 138.04 290.64 138.1 290.56 138.16 290.47 138.22 290.38 138.26 290.29 138.31 290.2 138.34 290.1 138.37 290 138.39 289.9 138.41 289.8 138.42 289.7 138.42 289.59"/></g><g id="ID000043"><text class="cls-7" transform="translate(202.5 274.97)">G</text></g><g id="ID000044"><text class="cls-7" transform="translate(202.5 266.85)">G</text></g><g id="ID000045"><text class="cls-7" transform="translate(202.5 258.72)">G</text></g><g id="ID000046"><text class="cls-8" transform="translate(186.72 258.72)">A</text></g><g id="ID000047"><text class="cls-7" transform="translate(186.49 266.85)">C</text></g><g id="ID000048"><text class="cls-7" transform="translate(186.49 274.97)">U</text></g><g id="ID000049"><line class="cls-3" x1="184.1" y1="271.32" x2="178.69" y2="271.32"/></g><g id="ID000050"><text class="cls-4" transform="translate(164.68 274.97)">140</text></g><g id="ID000051"><text class="cls-9" transform="translate(190.31 303.4)">G</text></g><g id="ID000052"><line class="cls-10" x1="257.36" y1="275.14" x2="209" y2="271.56"/></g><g id="ID000053"><polygon class="cls-5" points="235.7 275.98 234.44 274.66 233.12 274.16 231.78 273.86 229.13 273.05 231.88 272.64 233.24 272.54 234.62 272.23 236.06 271.12 235.7 275.98"/></g><g id="ID000054"><polygon class="cls-5" points="196.02 271.32 196.02 271.42 196.03 271.52 196.05 271.62 196.07 271.72 196.1 271.82 196.13 271.92 196.17 272.01 196.22 272.11 196.27 272.19 196.33 272.28 196.4 272.36 196.47 272.44 196.54 272.51 196.62 272.58 196.7 272.64 196.78 272.7 196.87 272.75 196.97 272.79 197.06 272.83 197.16 272.87 197.26 272.89 197.36 272.92 197.46 272.93 197.56 272.94 197.67 272.94 197.77 272.94 197.87 272.92 197.97 272.91 198.07 272.88 198.17 272.85 198.27 272.81 198.36 272.77 198.45 272.72 198.54 272.67 198.63 272.61 198.7 272.54 198.78 272.47 198.85 272.4 198.92 272.32 198.98 272.24 199.03 272.15 199.09 272.06 199.13 271.97 199.17 271.87 199.2 271.77 199.22 271.67 199.25 271.57 199.26 271.47 199.26 271.37 199.26 271.26 199.26 271.16 199.25 271.06 199.22 270.96 199.2 270.86 199.17 270.76 199.13 270.67 199.09 270.57 199.03 270.48 198.98 270.39 198.92 270.31 198.85 270.23 198.78 270.16 198.7 270.09 198.63 270.02 198.54 269.96 198.45 269.91 198.36 269.86 198.27 269.82 198.17 269.78 198.07 269.75 197.97 269.73 197.87 269.71 197.77 269.7 197.67 269.69 197.56 269.69 197.46 269.7 197.36 269.72 197.26 269.74 197.16 269.76 197.06 269.8 196.97 269.84 196.87 269.88 196.78 269.94 196.7 269.99 196.62 270.06 196.54 270.12 196.47 270.19 196.4 270.27 196.33 270.35 196.27 270.44 196.22 270.53 196.17 270.62 196.13 270.71 196.1 270.81 196.07 270.91 196.05 271.01 196.03 271.11 196.02 271.21 196.02 271.32"/></g><g id="ID000055"><line class="cls-3" x1="202.51" y1="263.19" x2="192.77" y2="263.19"/></g><g id="ID000056"><line class="cls-3" x1="202.51" y1="255.07" x2="192.77" y2="255.07"/></g><g id="ID000057"><polygon class="cls-5" points="196.02 255.07 196.02 255.17 196.03 255.28 196.05 255.38 196.07 255.48 196.1 255.58 196.13 255.67 196.17 255.77 196.22 255.86 196.27 255.95 196.33 256.03 196.4 256.11 196.47 256.19 196.54 256.26 196.62 256.33 196.7 256.39 196.78 256.45 196.87 256.5 196.97 256.55 197.06 256.59 197.16 256.62 197.26 256.65 197.36 256.67 197.46 256.68 197.56 256.69 197.67 256.69 197.77 256.69 197.87 256.68 197.97 256.66 198.07 256.64 198.17 256.61 198.27 256.57 198.36 256.53 198.45 256.48 198.54 256.42 198.63 256.36 198.7 256.3 198.78 256.23 198.85 256.15 198.92 256.07 198.98 255.99 199.03 255.91 199.09 255.81 199.13 255.72 199.17 255.63 199.2 255.53 199.22 255.43 199.25 255.33 199.26 255.22 199.26 255.12 199.26 255.02 199.26 254.91 199.25 254.81 199.22 254.71 199.2 254.61 199.17 254.51 199.13 254.42 199.09 254.33 199.03 254.24 198.98 254.15 198.92 254.06 198.85 253.99 198.78 253.91 198.7 253.84 198.63 253.78 198.54 253.72 198.45 253.66 198.36 253.61 198.27 253.57 198.17 253.53 198.07 253.5 197.97 253.48 197.87 253.46 197.77 253.45 197.67 253.45 197.56 253.45 197.46 253.46 197.36 253.47 197.26 253.49 197.16 253.52 197.06 253.55 196.97 253.59 196.87 253.64 196.78 253.69 196.7 253.75 196.62 253.81 196.54 253.88 196.47 253.95 196.4 254.03 196.33 254.11 196.27 254.19 196.22 254.28 196.17 254.37 196.13 254.47 196.1 254.56 196.07 254.66 196.05 254.76 196.03 254.86 196.02 254.97 196.02 255.07"/></g><g id="ID000058"><line class="cls-3" x1="190.33" y1="299.75" x2="180.58" y2="299.75"/></g><g id="ID000059"><polygon class="cls-5" points="183.83 299.75 183.83 299.85 183.84 299.95 183.86 300.06 183.88 300.16 183.91 300.25 183.95 300.35 183.99 300.45 184.04 300.54 184.09 300.63 184.15 300.71 184.21 300.79 184.28 300.87 184.35 300.94 184.43 301.01 184.51 301.07 184.6 301.13 184.69 301.18 184.78 301.23 184.88 301.26 184.97 301.3 185.07 301.33 185.17 301.35 185.28 301.36 185.38 301.37 185.48 301.37 185.58 301.37 185.69 301.36 185.79 301.34 185.89 301.31 185.99 301.28 186.08 301.25 186.18 301.2 186.27 301.15 186.36 301.1 186.44 301.04 186.52 300.98 186.6 300.91 186.67 300.83 186.73 300.75 186.79 300.67 186.85 300.58 186.9 300.49 186.94 300.4 186.98 300.3 187.01 300.2 187.04 300.11 187.06 300 187.07 299.9 187.08 299.8 187.08 299.7 187.07 299.59 187.06 299.49 187.04 299.39 187.01 299.29 186.98 299.19 186.94 299.1 186.9 299 186.85 298.91 186.79 298.83 186.73 298.74 186.67 298.66 186.6 298.59 186.52 298.52 186.44 298.45 186.36 298.39 186.27 298.34 186.18 298.29 186.08 298.25 185.99 298.21 185.89 298.18 185.79 298.16 185.69 298.14 185.58 298.13 185.48 298.12 185.38 298.13 185.28 298.13 185.17 298.15 185.07 298.17 184.97 298.2 184.88 298.23 184.78 298.27 184.69 298.31 184.6 298.37 184.51 298.42 184.43 298.49 184.35 298.55 184.28 298.63 184.21 298.7 184.15 298.78 184.09 298.87 184.04 298.96 183.99 299.05 183.95 299.14 183.91 299.24 183.88 299.34 183.86 299.44 183.84 299.54 183.83 299.64 183.83 299.75"/></g><g id="ID000060"><line class="cls-3" x1="190.39" y1="299.11" x2="146" y2="290.23"/></g><g id="ID000061"><polygon class="cls-6" points="172.33 295.5 169.59 293.09 168.87 296.67 172.33 295.5"/></g><g id="ID000062"><polygon class="cls-6" points="164.21 295.53 167.4 296.17 168.03 292.98 164.85 292.35 164.21 295.53"/></g><g id="ID000064"><text class="cls-7" transform="translate(202.5 250.6)">G</text></g><g id="ID000065"><text class="cls-7" transform="translate(202.5 242.48)">G</text></g><g id="ID000066"><text class="cls-7" transform="translate(202.73 234.36)">U</text></g><g id="ID000067"><text class="cls-8" transform="translate(202.96 226.23)">A</text></g><g id="ID000068"><line class="cls-3" x1="211.18" y1="222.58" x2="216.59" y2="222.58"/></g><g id="ID000069"><text class="cls-4" transform="translate(216.6 226.23)">120</text></g><g id="ID000070"><text class="cls-7" transform="translate(202.73 218.11)">U</text></g><g id="ID000071"><text class="cls-7" transform="translate(202.5 209.99)">G</text></g><g id="ID000072"><text class="cls-7" transform="translate(202.5 201.86)">G</text></g><g id="ID000073"><text class="cls-7" transform="translate(202.5 193.74)">G</text></g><g id="ID000074"><text class="cls-7" transform="translate(202.5 185.62)">G</text></g><g id="ID000075"><text class="cls-8" transform="translate(202.96 177.49)">A</text></g><g id="ID000076"><text class="cls-8" transform="translate(186.72 157.19)">A</text></g><g id="ID000077"><text class="cls-7" transform="translate(186.49 177.49)">U</text></g><g id="ID000078"><text class="cls-8" transform="translate(186.72 185.62)">A</text></g><g id="ID000079"><text class="cls-7" transform="translate(186.49 193.74)">C</text></g><g id="ID000080"><line class="cls-3" x1="184.1" y1="190.08" x2="178.69" y2="190.08"/></g><g id="ID000081"><text class="cls-4" transform="translate(164.68 193.74)">130</text></g><g id="ID000082"><text class="cls-7" transform="translate(186.49 201.86)">C</text></g><g id="ID000083"><text class="cls-7" transform="translate(186.49 209.99)">C</text></g><g id="ID000084"><text class="cls-8" transform="translate(186.72 218.11)">A</text></g><g id="ID000085"><text class="cls-7" transform="translate(186.49 226.23)">U</text></g><g id="ID000086"><text class="cls-8" transform="translate(186.72 234.36)">A</text></g><g id="ID000087"><text class="cls-7" transform="translate(186.49 242.48)">C</text></g><g id="ID000088"><text class="cls-7" transform="translate(186.49 250.6)">C</text></g><g id="ID000089"><line class="cls-3" x1="202.51" y1="246.95" x2="192.77" y2="246.95"/></g><g id="ID000090"><line class="cls-3" x1="202.51" y1="238.82" x2="192.77" y2="238.82"/></g><g id="ID000091"><line class="cls-3" x1="202.51" y1="230.7" x2="192.77" y2="230.7"/></g><g id="ID000092"><line class="cls-3" x1="202.51" y1="222.58" x2="192.77" y2="222.58"/></g><g id="ID000093"><line class="cls-3" x1="202.51" y1="214.45" x2="192.77" y2="214.45"/></g><g id="ID000094"><line class="cls-3" x1="202.51" y1="206.33" x2="192.77" y2="206.33"/></g><g id="ID000095"><line class="cls-3" x1="202.51" y1="198.21" x2="192.77" y2="198.21"/></g><g id="ID000096"><line class="cls-3" x1="202.51" y1="190.08" x2="192.77" y2="190.08"/></g><g id="ID000097"><line class="cls-3" x1="202.51" y1="181.96" x2="192.77" y2="181.96"/></g><g id="ID000098"><polygon class="cls-6" points="201.86 181.96 198.7 180.13 198.7 183.79 201.86 181.96"/></g><g id="ID000099"><polygon class="cls-6" points="193.9 183.59 197.15 183.59 197.15 180.34 193.9 180.34 193.9 183.59"/></g><g id="ID000100"><line class="cls-3" x1="145.95" y1="189.27" x2="202.62" y2="174.65"/></g><g id="ID000101"><polygon class="cls-5" points="170.67 182.89 170.7 182.99 170.73 183.09 170.77 183.18 170.82 183.28 170.87 183.37 170.93 183.45 171 183.53 171.06 183.61 171.14 183.68 171.22 183.75 171.3 183.81 171.38 183.87 171.47 183.92 171.56 183.97 171.66 184 171.76 184.04 171.86 184.07 171.96 184.09 172.06 184.1 172.16 184.11 172.26 184.11 172.37 184.11 172.47 184.1 172.57 184.08 172.67 184.06 172.77 184.02 172.87 183.99 172.96 183.94 173.05 183.9 173.14 183.84 173.22 183.78 173.3 183.72 173.38 183.65 173.45 183.57 173.52 183.49 173.58 183.41 173.63 183.32 173.68 183.24 173.73 183.14 173.77 183.05 173.8 182.95 173.83 182.85 173.84 182.75 173.86 182.65 173.87 182.54 173.87 182.44 173.86 182.34 173.85 182.23 173.83 182.13 173.8 182.03 173.77 181.94 173.73 181.84 173.69 181.75 173.64 181.66 173.58 181.57 173.52 181.49 173.45 181.41 173.38 181.33 173.31 181.26 173.23 181.2 173.14 181.14 173.06 181.08 172.97 181.03 172.87 180.99 172.78 180.95 172.68 180.92 172.58 180.9 172.47 180.88 172.37 180.87 172.27 180.86 172.17 180.87 172.06 180.87 171.96 180.89 171.86 180.91 171.76 180.94 171.66 180.97 171.57 181.01 171.48 181.06 171.39 181.11 171.3 181.16 171.22 181.23 171.14 181.29 171.07 181.37 171 181.44 170.93 181.52 170.88 181.61 170.82 181.7 170.78 181.79 170.73 181.88 170.7 181.98 170.67 182.08 170.65 182.18 170.63 182.28 170.62 182.38 170.62 182.49 170.62 182.59 170.63 182.69 170.65 182.79 170.67 182.89"/></g><g id="ID000102"><polygon class="cls-5" points="177.5 179.45 174.35 180.27 175.16 183.41 178.31 182.6 177.5 179.45"/></g><g id="ID000103"><line class="cls-3" x1="145.16" y1="195.96" x2="187.17" y2="155.77"/></g><g id="ID000104"><polygon class="cls-6" points="163.11 178.79 166.66 177.92 164.14 175.28 163.11 178.79"/></g><g id="ID000105"><polygon class="cls-6" points="168.86 173.28 168.79 173.21 168.71 173.15 168.63 173.08 168.54 173.03 168.45 172.97 168.36 172.93 168.27 172.89 168.17 172.86 168.07 172.83 167.97 172.81 167.87 172.79 167.76 172.78 167.66 172.78 167.56 172.79 167.46 172.8 167.35 172.82 167.25 172.84 167.16 172.87 167.06 172.91 166.97 172.95 166.88 173 166.79 173.06 166.7 173.12 166.62 173.18 166.55 173.25 166.48 173.33 166.41 173.41 166.35 173.49 166.29 173.58 166.24 173.67 166.2 173.76 166.16 173.85 166.13 173.95 166.1 174.05 166.09 174.15 166.07 174.26 166.06 174.36 166.06 174.46 166.07 174.56 166.09 174.67 166.1 174.77 166.13 174.87 166.16 174.97 166.2 175.06 166.25 175.16 166.3 175.25 166.35 175.33 166.41 175.41 166.48 175.49 166.55 175.57 166.63 175.64 166.71 175.7 166.79 175.76 166.88 175.82 166.97 175.87 167.06 175.91 167.16 175.94 167.26 175.97 167.36 176 167.46 176.02 167.56 176.03 167.67 176.03 167.77 176.03 167.87 176.02 167.97 176.01 168.07 175.99 168.17 175.96 168.27 175.93 168.37 175.88 168.46 175.84 168.55 175.79 168.63 175.73 168.72 175.67 168.79 175.6 168.87 175.53 168.94 175.45 169 175.37 169.06 175.28 169.11 175.2 169.16 175.1 169.2 175.01 169.23 174.91 169.26 174.81 169.28 174.71 169.3 174.61 169.31 174.51 169.31 174.41 169.31 174.3 169.3 174.2 169.28 174.1 169.26 174 169.23 173.9 169.2 173.8 169.16 173.71 169.11 173.62 169.05 173.53 169 173.44 168.93 173.36 168.86 173.28"/></g><g id="ID000106"><line class="cls-3" x1="189.52" y1="156.78" x2="189.52" y2="170.59"/></g><g id="ID000107"><polygon class="cls-5" points="189.52 159.46 187.69 162.63 191.34 162.63 189.52 159.46"/></g><g id="ID000108"><polygon class="cls-5" points="189.52 167.42 189.62 167.42 189.72 167.41 189.82 167.39 189.93 167.37 190.03 167.34 190.12 167.3 190.22 167.26 190.31 167.22 190.4 167.16 190.48 167.1 190.56 167.04 190.64 166.97 190.71 166.9 190.78 166.82 190.84 166.74 190.9 166.65 190.95 166.56 191 166.47 191.03 166.38 191.07 166.28 191.1 166.18 191.12 166.08 191.13 165.97 191.14 165.87 191.14 165.77 191.14 165.67 191.13 165.56 191.11 165.46 191.08 165.36 191.05 165.26 191.02 165.17 190.97 165.07 190.92 164.98 190.87 164.9 190.81 164.81 190.75 164.73 190.68 164.66 190.6 164.58 190.52 164.52 190.44 164.46 190.35 164.4 190.26 164.35 190.17 164.31 190.07 164.27 189.97 164.24 189.88 164.21 189.77 164.19 189.67 164.18 189.57 164.17 189.47 164.17 189.36 164.18 189.26 164.19 189.16 164.21 189.06 164.24 188.96 164.27 188.87 164.31 188.77 164.35 188.68 164.4 188.6 164.46 188.51 164.52 188.43 164.58 188.36 164.66 188.29 164.73 188.22 164.81 188.16 164.9 188.11 164.98 188.06 165.07 188.02 165.17 187.98 165.26 187.95 165.36 187.93 165.46 187.91 165.56 187.9 165.67 187.89 165.77 187.9 165.87 187.9 165.97 187.92 166.08 187.94 166.18 187.97 166.28 188 166.38 188.04 166.47 188.09 166.56 188.14 166.65 188.19 166.74 188.26 166.82 188.32 166.9 188.4 166.97 188.47 167.04 188.55 167.1 188.64 167.16 188.73 167.22 188.82 167.26 188.91 167.3 189.01 167.34 189.11 167.37 189.21 167.39 189.31 167.41 189.41 167.42 189.52 167.42"/></g><g id="ID000110"><text class="cls-11" transform="translate(123.3 283.09)">G</text></g><g id="ID000111"><text class="cls-11" transform="translate(115.41 279.03)">C</text></g><g id="ID000112"><text class="cls-11" transform="translate(123.3 274.97)">G</text></g><g id="ID000113"><text class="cls-11" transform="translate(123.53 266.85)">C</text></g><g id="ID000114"><text class="cls-11" transform="translate(123.3 258.72)">G</text></g><g id="ID000115"><text class="cls-11" transform="translate(123.53 250.6)">C</text></g><g id="ID000116"><text class="cls-11" transform="translate(123.53 242.48)">C</text></g><g id="ID000117"><text class="cls-11" transform="translate(123.53 234.36)">C</text></g><g id="ID000118"><text class="cls-11" transform="translate(123.3 226.23)">G</text></g><g id="ID000119"><line class="cls-3" x1="121.15" y1="222.58" x2="115.73" y2="222.58"/></g><g id="ID000120"><text class="cls-4" transform="translate(106.4 226.23)">20</text></g><g id="ID000121"><text class="cls-12" transform="translate(123.76 218.11)">A</text></g><g id="ID000122"><text class="cls-11" transform="translate(123.3 209.99)">G</text></g><g id="ID000123"><text class="cls-12" transform="translate(123.76 201.86)">A</text></g><g id="ID000124"><text class="cls-11" transform="translate(123.53 193.74)">U</text></g><g id="ID000125"><text class="cls-11" transform="translate(139.54 193.74)">G</text></g><g id="ID000126"><text class="cls-11" transform="translate(139.54 201.86)">G</text></g><g id="ID000127"><text class="cls-11" transform="translate(139.78 209.99)">C</text></g><g id="ID000128"><line class="cls-3" x1="148.22" y1="206.33" x2="153.64" y2="206.33"/></g><g id="ID000129"><text class="cls-4" transform="translate(153.64 209.99)">70</text></g><g id="ID000130"><text class="cls-11" transform="translate(139.54 218.11)">G</text></g><g id="ID000131"><text class="cls-12" transform="translate(140.01 226.23)">A</text></g><g id="ID000132"><text class="cls-11" transform="translate(139.54 234.36)">G</text></g><g id="ID000133"><text class="cls-11" transform="translate(139.54 242.48)">G</text></g><g id="ID000134"><text class="cls-11" transform="translate(139.54 250.6)">G</text></g><g id="ID000135"><text class="cls-11" transform="translate(139.78 258.72)">C</text></g><g id="ID000136"><text class="cls-11" transform="translate(139.54 266.85)">G</text></g><g id="ID000137"><text class="cls-11" transform="translate(139.78 274.97)">C</text></g><g id="ID000138"><text class="cls-11" transform="translate(139.78 283.09)">C</text></g><g id="ID000139"><text class="cls-13" transform="translate(273.58 295.28)">G</text></g><g id="ID000140"><line class="cls-3" x1="282.26" y1="291.62" x2="287.67" y2="291.62"/></g><g id="ID000141"><text class="cls-4" transform="translate(287.67 295.28)">80</text></g><g id="ID000142"><line class="cls-3" x1="129.81" y1="279.44" x2="139.56" y2="279.44"/></g><g id="ID000143"><polygon class="cls-5" points="136.31 279.44 136.31 279.34 136.3 279.23 136.28 279.13 136.26 279.03 136.23 278.93 136.19 278.84 136.15 278.74 136.1 278.65 136.05 278.56 135.99 278.48 135.93 278.39 135.86 278.32 135.79 278.25 135.71 278.18 135.63 278.12 135.54 278.06 135.45 278.01 135.36 277.96 135.26 277.92 135.17 277.89 135.07 277.86 134.97 277.84 134.87 277.82 134.76 277.82 134.66 277.81 134.56 277.82 134.45 277.83 134.35 277.85 134.25 277.87 134.15 277.9 134.06 277.94 133.96 277.98 133.87 278.03 133.79 278.09 133.7 278.15 133.62 278.21 133.55 278.28 133.47 278.36 133.41 278.44 133.35 278.52 133.29 278.61 133.24 278.69 133.2 278.79 133.16 278.88 133.13 278.98 133.1 279.08 133.08 279.18 133.07 279.29 133.06 279.39 133.06 279.49 133.07 279.59 133.08 279.7 133.1 279.8 133.13 279.9 133.16 280 133.2 280.09 133.24 280.18 133.29 280.27 133.35 280.36 133.41 280.44 133.47 280.52 133.55 280.6 133.62 280.67 133.7 280.73 133.79 280.79 133.87 280.85 133.96 280.89 134.06 280.94 134.15 280.98 134.25 281.01 134.35 281.03 134.45 281.05 134.56 281.06 134.66 281.06 134.76 281.06 134.87 281.05 134.97 281.04 135.07 281.02 135.17 280.99 135.26 280.96 135.36 280.92 135.45 280.87 135.54 280.82 135.63 280.76 135.71 280.7 135.79 280.63 135.86 280.56 135.93 280.48 135.99 280.4 136.05 280.32 136.1 280.23 136.15 280.14 136.19 280.04 136.23 279.95 136.26 279.85 136.28 279.75 136.3 279.64 136.31 279.54 136.31 279.44"/></g><g id="ID000144"><line class="cls-3" x1="129.81" y1="271.32" x2="139.56" y2="271.32"/></g><g id="ID000145"><line class="cls-3" x1="129.8" y1="271.58" x2="273.6" y2="283.24"/></g><g id="ID000146"><polygon class="cls-6" points="203.81 277.58 200.8 275.5 200.5 279.14 203.81 277.58"/></g><g id="ID000147"><line class="cls-3" x1="129.81" y1="263.19" x2="139.56" y2="263.19"/></g><g id="ID000148"><line class="cls-3" x1="129.81" y1="255.07" x2="139.56" y2="255.07"/></g><g id="ID000149"><line class="cls-3" x1="129.81" y1="246.95" x2="139.56" y2="246.95"/></g><g id="ID000150"><line class="cls-3" x1="129.81" y1="238.82" x2="139.56" y2="238.82"/></g><g id="ID000151"><line class="cls-3" x1="129.81" y1="230.7" x2="139.56" y2="230.7"/></g><g id="ID000152"><line class="cls-3" x1="129.81" y1="222.58" x2="139.56" y2="222.58"/></g><g id="ID000153"><polygon class="cls-6" points="130.46 222.58 133.63 224.41 133.63 220.75 130.46 222.58"/></g><g id="ID000154"><polygon class="cls-6" points="138.42 220.95 135.17 220.95 135.17 224.2 138.42 224.2 138.42 220.95"/></g><g id="ID000155"><line class="cls-3" x1="129.81" y1="214.45" x2="139.56" y2="214.45"/></g><g id="ID000156"><polygon class="cls-6" points="130.95 216.08 134.2 216.08 134.2 212.83 130.95 212.83 130.95 216.08"/></g><g id="ID000157"><polygon class="cls-6" points="138.91 214.45 135.74 212.63 135.74 216.28 138.91 214.45"/></g><g id="ID000158"><line class="cls-3" x1="129.81" y1="206.33" x2="139.56" y2="206.33"/></g><g id="ID000159"><polygon class="cls-5" points="136.31 206.33 136.31 206.23 136.3 206.12 136.28 206.02 136.26 205.92 136.23 205.82 136.19 205.73 136.15 205.63 136.1 205.54 136.05 205.45 135.99 205.37 135.93 205.29 135.86 205.21 135.79 205.14 135.71 205.07 135.63 205.01 135.54 204.95 135.45 204.9 135.36 204.85 135.26 204.81 135.17 204.78 135.07 204.75 134.97 204.73 134.87 204.72 134.76 204.71 134.66 204.71 134.56 204.71 134.45 204.72 134.35 204.74 134.25 204.76 134.15 204.79 134.06 204.83 133.96 204.88 133.87 204.92 133.79 204.98 133.7 205.04 133.62 205.1 133.55 205.17 133.47 205.25 133.41 205.33 133.35 205.41 133.29 205.5 133.24 205.59 133.2 205.68 133.16 205.77 133.13 205.87 133.1 205.97 133.08 206.07 133.07 206.18 133.06 206.28 133.06 206.38 133.07 206.49 133.08 206.59 133.1 206.69 133.13 206.79 133.16 206.89 133.2 206.98 133.24 207.07 133.29 207.16 133.35 207.25 133.41 207.34 133.47 207.41 133.55 207.49 133.62 207.56 133.7 207.62 133.79 207.68 133.87 207.74 133.96 207.79 134.06 207.83 134.15 207.87 134.25 207.9 134.35 207.92 134.45 207.94 134.56 207.95 134.66 207.96 134.76 207.95 134.87 207.94 134.97 207.93 135.07 207.91 135.17 207.88 135.26 207.85 135.36 207.81 135.45 207.76 135.54 207.71 135.63 207.65 135.71 207.59 135.79 207.52 135.86 207.45 135.93 207.37 135.99 207.29 136.05 207.21 136.1 207.12 136.15 207.03 136.19 206.93 136.23 206.84 136.26 206.74 136.28 206.64 136.3 206.54 136.31 206.43 136.31 206.33"/></g><g id="ID000160"><line class="cls-3" x1="129.81" y1="198.21" x2="139.56" y2="198.21"/></g><g id="ID000161"><polygon class="cls-5" points="136.31 198.21 136.31 198.1 136.3 198 136.28 197.9 136.26 197.8 136.23 197.7 136.19 197.6 136.15 197.51 136.1 197.42 136.05 197.33 135.99 197.24 135.93 197.16 135.86 197.09 135.79 197.01 135.71 196.95 135.63 196.88 135.54 196.83 135.45 196.78 135.36 196.73 135.26 196.69 135.17 196.66 135.07 196.63 134.97 196.61 134.87 196.59 134.76 196.58 134.66 196.58 134.56 196.59 134.45 196.6 134.35 196.62 134.25 196.64 134.15 196.67 134.06 196.71 133.96 196.75 133.87 196.8 133.79 196.85 133.7 196.91 133.62 196.98 133.55 197.05 133.47 197.12 133.41 197.2 133.35 197.29 133.29 197.37 133.24 197.46 133.2 197.56 133.16 197.65 133.13 197.75 133.1 197.85 133.08 197.95 133.07 198.05 133.06 198.16 133.06 198.26 133.07 198.36 133.08 198.46 133.1 198.56 133.13 198.66 133.16 198.76 133.2 198.86 133.24 198.95 133.29 199.04 133.35 199.13 133.41 199.21 133.47 199.29 133.55 199.37 133.62 199.44 133.7 199.5 133.79 199.56 133.87 199.61 133.96 199.66 134.06 199.71 134.15 199.74 134.25 199.77 134.35 199.8 134.45 199.81 134.56 199.83 134.66 199.83 134.76 199.83 134.87 199.82 134.97 199.81 135.07 199.79 135.17 199.76 135.26 199.72 135.36 199.69 135.45 199.64 135.54 199.59 135.63 199.53 135.71 199.47 135.79 199.4 135.86 199.33 135.93 199.25 135.99 199.17 136.05 199.09 136.1 199 136.15 198.91 136.19 198.81 136.23 198.71 136.26 198.62 136.28 198.51 136.3 198.41 136.31 198.31 136.31 198.21"/></g><g id="ID000163"><text class="cls-9" transform="translate(190.55 311.53)">U</text></g><g id="ID000164"><text class="cls-9" transform="translate(190.55 319.65)">C</text></g><g id="ID000165"><text class="cls-14" transform="translate(190.78 327.77)">A</text></g><g id="ID000166"><text class="cls-9" transform="translate(190.55 335.9)">C</text></g><g id="ID000167"><text class="cls-9" transform="translate(190.31 344.02)">G</text></g><g id="ID000168"><text class="cls-9" transform="translate(190.31 352.14)">G</text></g><g id="ID000169"><text class="cls-14" transform="translate(190.78 360.26)">A</text></g><g id="ID000170"><text class="cls-9" transform="translate(190.31 368.39)">G</text></g><g id="ID000171"><text class="cls-9" transform="translate(190.31 376.51)">G</text></g><g id="ID000172"><line class="cls-3" x1="198.99" y1="372.86" x2="204.41" y2="372.86"/></g><g id="ID000173"><text class="cls-4" transform="translate(204.41 376.51)">150</text></g><g id="ID000174"><text class="cls-9" transform="translate(186.49 384.63)">U</text></g><g id="ID000175"><text class="cls-9" transform="translate(178.36 384.63)">C</text></g><g id="ID000176"><text class="cls-9" transform="translate(174.3 376.51)">U</text></g><g id="ID000177"><text class="cls-9" transform="translate(174.3 368.39)">C</text></g><g id="ID000178"><text class="cls-9" transform="translate(174.3 360.26)">U</text></g><g id="ID000179"><text class="cls-9" transform="translate(174.3 352.14)">C</text></g><g id="ID000180"><text class="cls-9" transform="translate(174.3 344.02)">C</text></g><g id="ID000181"><text class="cls-9" transform="translate(174.07 335.9)">G</text></g><g id="ID000182"><text class="cls-9" transform="translate(174.3 327.77)">U</text></g><g id="ID000183"><text class="cls-9" transform="translate(174.07 319.65)">G</text></g><g id="ID000184"><line class="cls-3" x1="171.92" y1="315.99" x2="166.5" y2="315.99"/></g><g id="ID000185"><text class="cls-4" transform="translate(152.5 319.65)">160</text></g><g id="ID000186"><text class="cls-9" transform="translate(174.07 311.53)">G</text></g><g id="ID000187"><text class="cls-14" transform="translate(174.53 303.4)">A</text></g><g id="ID000188"><text class="cls-1" transform="translate(139.54 293.25)">G</text></g><g id="ID000189"><polygon class="cls-5" points="183.83 307.87 183.83 307.97 183.84 308.08 183.86 308.18 183.88 308.28 183.91 308.38 183.95 308.48 183.99 308.57 184.04 308.66 184.09 308.75 184.15 308.83 184.21 308.92 184.28 308.99 184.35 309.06 184.43 309.13 184.51 309.19 184.6 309.25 184.69 309.3 184.78 309.35 184.88 309.39 184.97 309.42 185.07 309.45 185.17 309.47 185.28 309.49 185.38 309.49 185.48 309.5 185.58 309.49 185.69 309.48 185.79 309.46 185.89 309.44 185.99 309.41 186.08 309.37 186.18 309.33 186.27 309.28 186.36 309.22 186.44 309.16 186.52 309.1 186.6 309.03 186.67 308.95 186.73 308.88 186.79 308.79 186.85 308.7 186.9 308.62 186.94 308.52 186.98 308.43 187.01 308.33 187.04 308.23 187.06 308.13 187.07 308.02 187.08 307.92 187.08 307.82 187.07 307.72 187.06 307.61 187.04 307.51 187.01 307.41 186.98 307.31 186.94 307.22 186.9 307.13 186.85 307.04 186.79 306.95 186.73 306.87 186.67 306.79 186.6 306.71 186.52 306.64 186.44 306.58 186.36 306.52 186.27 306.46 186.18 306.42 186.08 306.37 185.99 306.34 185.89 306.31 185.79 306.28 185.69 306.26 185.58 306.25 185.48 306.25 185.38 306.25 185.28 306.26 185.17 306.27 185.07 306.29 184.97 306.32 184.88 306.35 184.78 306.39 184.69 306.44 184.6 306.49 184.51 306.55 184.43 306.61 184.35 306.68 184.28 306.75 184.21 306.83 184.15 306.91 184.09 306.99 184.04 307.08 183.99 307.17 183.95 307.27 183.91 307.36 183.88 307.46 183.86 307.56 183.84 307.67 183.83 307.77 183.83 307.87"/></g><g id="ID000190"><line class="cls-3" x1="190.33" y1="315.99" x2="180.58" y2="315.99"/></g><g id="ID000191"><line class="cls-3" x1="190.33" y1="324.12" x2="180.58" y2="324.12"/></g><g id="ID000192"><line class="cls-3" x1="190.33" y1="332.24" x2="180.58" y2="332.24"/></g><g id="ID000193"><line class="cls-3" x1="190.33" y1="340.36" x2="180.58" y2="340.36"/></g><g id="ID000194"><line class="cls-3" x1="190.33" y1="348.49" x2="180.58" y2="348.49"/></g><g id="ID000195"><line class="cls-3" x1="190.33" y1="356.61" x2="180.58" y2="356.61"/></g><g id="ID000196"><line class="cls-3" x1="190.33" y1="364.73" x2="180.58" y2="364.73"/></g><g id="ID000198"><text class="cls-11" transform="translate(123.3 183.59)">G</text></g><g id="ID000199"><text class="cls-12" transform="translate(123.76 175.46)">A</text></g><g id="ID000200"><text class="cls-11" transform="translate(113.14 173.43)">G</text></g><g id="ID000201"><text class="cls-11" transform="translate(123.53 165.31)">U</text></g><g id="ID000202"><text class="cls-12" transform="translate(123.76 157.19)">A</text></g><g id="ID000203"><text class="cls-11" transform="translate(123.3 149.06)">G</text></g><g id="ID000204"><line class="cls-3" x1="121.15" y1="145.41" x2="115.73" y2="145.41"/></g><g id="ID000205"><text class="cls-4" transform="translate(106.4 149.06)">30</text></g><g id="ID000206"><text class="cls-11" transform="translate(123.3 140.94)">G</text></g><g id="ID000207"><text class="cls-11" transform="translate(123.53 132.81)">C</text></g><g id="ID000208"><text class="cls-11" transform="translate(123.53 124.69)">U</text></g><g id="ID000209"><text class="cls-11" transform="translate(123.3 116.57)">G</text></g><g id="ID000210"><text class="cls-11" transform="translate(123.53 108.44)">U</text></g><g id="ID000211"><text class="cls-11" transform="translate(123.53 100.32)">C</text></g><g id="ID000212"><text class="cls-11" transform="translate(123.53 92.2)">C</text></g><g id="ID000213"><text class="cls-11" transform="translate(123.53 84.08)">C</text></g><g id="ID000214"><text class="cls-12" transform="translate(123.76 75.95)">A</text></g><g id="ID000215"><text class="cls-11" transform="translate(123.53 67.83)">U</text></g><g id="ID000216"><line class="cls-3" x1="121.15" y1="64.17" x2="115.73" y2="64.17"/></g><g id="ID000217"><text class="cls-4" transform="translate(106.4 67.83)">40</text></g><g id="ID000218"><text class="cls-11" transform="translate(123.53 57.67)">C</text></g><g id="ID000219"><text class="cls-11" transform="translate(139.78 57.67)">U</text></g><g id="ID000220"><text class="cls-11" transform="translate(139.78 67.83)">C</text></g><g id="ID000221"><text class="cls-11" transform="translate(139.54 75.95)">G</text></g><g id="ID000222"><text class="cls-11" transform="translate(139.54 84.08)">G</text></g><g id="ID000223"><text class="cls-11" transform="translate(139.54 92.2)">G</text></g><g id="ID000224"><text class="cls-11" transform="translate(139.54 100.32)">G</text></g><g id="ID000225"><text class="cls-12" transform="translate(140.01 108.44)">A</text></g><g id="ID000226"><text class="cls-11" transform="translate(139.78 116.57)">C</text></g><g id="ID000227"><text class="cls-11" transform="translate(139.54 124.69)">G</text></g><g id="ID000228"><line class="cls-3" x1="148.22" y1="121.04" x2="153.64" y2="121.04"/></g><g id="ID000229"><text class="cls-4" transform="translate(153.64 124.69)">60</text></g><g id="ID000230"><text class="cls-11" transform="translate(139.54 132.81)">G</text></g><g id="ID000231"><text class="cls-11" transform="translate(139.78 140.94)">C</text></g><g id="ID000232"><text class="cls-11" transform="translate(139.78 149.06)">U</text></g><g id="ID000233"><text class="cls-11" transform="translate(139.54 157.19)">G</text></g><g id="ID000234"><text class="cls-12" transform="translate(140.01 165.31)">A</text></g><g id="ID000235"><text class="cls-12" transform="translate(140.01 175.46)">A</text></g><g id="ID000236"><text class="cls-12" transform="translate(140.01 183.59)">A</text></g><g id="ID000237"><line class="cls-3" x1="129.81" y1="179.93" x2="139.56" y2="179.93"/></g><g id="ID000238"><polygon class="cls-6" points="130.46 179.93 133.63 181.76 133.63 178.1 130.46 179.93"/></g><g id="ID000239"><polygon class="cls-6" points="138.42 178.31 135.17 178.31 135.17 181.56 138.42 181.56 138.42 178.31"/></g><g id="ID000240"><line class="cls-3" x1="129.81" y1="171.81" x2="139.56" y2="171.81"/></g><g id="ID000241"><polygon class="cls-6" points="136.31 170.18 133.06 170.18 133.06 173.43 136.31 173.43 136.31 170.18"/></g><g id="ID000242"><line class="cls-3" x1="118.95" y1="167.75" x2="124.03" y2="163.68"/></g><g id="ID000243"><polygon class="cls-5" points="118.19 168.35 121.8 167.8 119.52 164.95 118.19 168.35"/></g><g id="ID000244"><polygon class="cls-5" points="123.39 162.11 120.85 164.14 122.88 166.68 125.42 164.65 123.39 162.11"/></g><g id="ID000245"><line class="cls-3" x1="129.81" y1="161.65" x2="139.56" y2="161.65"/></g><g id="ID000246"><polygon class="cls-6" points="130.95 161.65 130.95 161.75 130.96 161.86 130.98 161.96 131 162.06 131.03 162.16 131.06 162.26 131.11 162.35 131.15 162.44 131.21 162.53 131.26 162.62 131.33 162.7 131.4 162.77 131.47 162.85 131.55 162.91 131.63 162.98 131.72 163.03 131.81 163.08 131.9 163.13 131.99 163.17 132.09 163.2 132.19 163.23 132.29 163.25 132.39 163.27 132.5 163.28 132.6 163.28 132.7 163.27 132.8 163.26 132.91 163.24 133.01 163.22 133.1 163.19 133.2 163.15 133.29 163.11 133.39 163.06 133.47 163 133.56 162.94 133.64 162.88 133.71 162.81 133.78 162.74 133.85 162.66 133.91 162.57 133.97 162.49 134.02 162.4 134.06 162.3 134.1 162.21 134.13 162.11 134.16 162.01 134.18 161.91 134.19 161.81 134.2 161.7 134.2 161.6 134.19 161.5 134.18 161.4 134.16 161.29 134.13 161.19 134.1 161.1 134.06 161 134.02 160.91 133.97 160.82 133.91 160.73 133.85 160.65 133.78 160.57 133.71 160.49 133.64 160.42 133.56 160.36 133.47 160.3 133.39 160.25 133.29 160.2 133.2 160.15 133.1 160.12 133.01 160.09 132.91 160.06 132.8 160.04 132.7 160.03 132.6 160.03 132.5 160.03 132.39 160.04 132.29 160.05 132.19 160.07 132.09 160.1 131.99 160.13 131.9 160.17 131.81 160.22 131.72 160.27 131.63 160.33 131.55 160.39 131.47 160.46 131.4 160.53 131.33 160.61 131.26 160.69 131.21 160.77 131.15 160.86 131.11 160.95 131.06 161.05 131.03 161.15 131 161.24 130.98 161.34 130.96 161.45 130.95 161.55 130.95 161.65"/></g><g id="ID000247"><polygon class="cls-6" points="138.42 160.03 135.17 160.03 135.17 163.28 138.42 163.28 138.42 160.03"/></g><g id="ID000248"><line class="cls-3" x1="129.81" y1="153.53" x2="139.56" y2="153.53"/></g><g id="ID000249"><polygon class="cls-6" points="130.95 155.15 134.2 155.15 134.2 151.91 130.95 151.91 130.95 155.15"/></g><g id="ID000250"><polygon class="cls-6" points="138.91 153.53 135.74 151.7 135.74 155.36 138.91 153.53"/></g><g id="ID000251"><polygon class="cls-5" points="136.31 145.41 136.31 145.3 136.3 145.2 136.28 145.1 136.26 145 136.23 144.9 136.19 144.8 136.15 144.71 136.1 144.62 136.05 144.53 135.99 144.44 135.93 144.36 135.86 144.28 135.79 144.21 135.71 144.15 135.63 144.08 135.54 144.03 135.45 143.97 135.36 143.93 135.26 143.89 135.17 143.85 135.07 143.83 134.97 143.81 134.87 143.79 134.76 143.78 134.66 143.78 134.56 143.79 134.45 143.8 134.35 143.81 134.25 143.84 134.15 143.87 134.06 143.91 133.96 143.95 133.87 144 133.79 144.05 133.7 144.11 133.62 144.18 133.55 144.25 133.47 144.32 133.41 144.4 133.35 144.48 133.29 144.57 133.24 144.66 133.2 144.75 133.16 144.85 133.13 144.95 133.1 145.05 133.08 145.15 133.07 145.25 133.06 145.35 133.06 145.46 133.07 145.56 133.08 145.66 133.1 145.76 133.13 145.86 133.16 145.96 133.2 146.06 133.24 146.15 133.29 146.24 133.35 146.33 133.41 146.41 133.47 146.49 133.55 146.56 133.62 146.63 133.7 146.7 133.79 146.76 133.87 146.81 133.96 146.86 134.06 146.9 134.15 146.94 134.25 146.97 134.35 147 134.45 147.01 134.56 147.03 134.66 147.03 134.76 147.03 134.87 147.02 134.97 147.01 135.07 146.99 135.17 146.96 135.26 146.92 135.36 146.88 135.45 146.84 135.54 146.79 135.63 146.73 135.71 146.67 135.79 146.6 135.86 146.53 135.93 146.45 135.99 146.37 136.05 146.28 136.1 146.2 136.15 146.1 136.19 146.01 136.23 145.91 136.26 145.81 136.28 145.71 136.3 145.61 136.31 145.51 136.31 145.41"/></g><g id="ID000252"><line class="cls-3" x1="129.81" y1="137.28" x2="139.56" y2="137.28"/></g><g id="ID000253"><line class="cls-3" x1="129.81" y1="129.16" x2="139.56" y2="129.16"/></g><g id="ID000254"><polygon class="cls-5" points="136.31 121.04 136.31 120.93 136.3 120.83 136.28 120.73 136.26 120.63 136.23 120.53 136.19 120.43 136.15 120.34 136.1 120.25 136.05 120.16 135.99 120.07 135.93 119.99 135.86 119.92 135.79 119.84 135.71 119.78 135.63 119.71 135.54 119.66 135.45 119.6 135.36 119.56 135.26 119.52 135.17 119.48 135.07 119.46 134.97 119.44 134.87 119.42 134.76 119.41 134.66 119.41 134.56 119.42 134.45 119.43 134.35 119.45 134.25 119.47 134.15 119.5 134.06 119.54 133.96 119.58 133.87 119.63 133.79 119.68 133.7 119.74 133.62 119.81 133.55 119.88 133.47 119.95 133.41 120.03 133.35 120.11 133.29 120.2 133.24 120.29 133.2 120.38 133.16 120.48 133.13 120.58 133.1 120.68 133.08 120.78 133.07 120.88 133.06 120.98 133.06 121.09 133.07 121.19 133.08 121.29 133.1 121.39 133.13 121.49 133.16 121.59 133.2 121.69 133.24 121.78 133.29 121.87 133.35 121.96 133.41 122.04 133.47 122.12 133.55 122.19 133.62 122.26 133.7 122.33 133.79 122.39 133.87 122.44 133.96 122.49 134.06 122.53 134.15 122.57 134.25 122.6 134.35 122.63 134.45 122.64 134.56 122.66 134.66 122.66 134.76 122.66 134.87 122.65 134.97 122.64 135.07 122.61 135.17 122.59 135.26 122.55 135.36 122.51 135.45 122.47 135.54 122.42 135.63 122.36 135.71 122.3 135.79 122.23 135.86 122.16 135.93 122.08 135.99 122 136.05 121.91 136.1 121.83 136.15 121.73 136.19 121.64 136.23 121.54 136.26 121.44 136.28 121.34 136.3 121.24 136.31 121.14 136.31 121.04"/></g><g id="ID000255"><line class="cls-3" x1="129.81" y1="112.91" x2="139.56" y2="112.91"/></g><g id="ID000256"><line class="cls-3" x1="129.81" y1="104.79" x2="139.56" y2="104.79"/></g><g id="ID000257"><line class="cls-3" x1="129.81" y1="96.67" x2="139.56" y2="96.67"/></g><g id="ID000258"><line class="cls-3" x1="129.81" y1="88.54" x2="139.56" y2="88.54"/></g><g id="ID000259"><line class="cls-3" x1="129.81" y1="80.42" x2="139.56" y2="80.42"/></g><g id="ID000260"><line class="cls-3" x1="129.32" y1="62.45" x2="140.05" y2="55.74"/></g><g id="ID000261"><polygon class="cls-6" points="136.06 58.23 136.01 58.15 135.94 58.07 135.88 57.99 135.8 57.92 135.73 57.85 135.65 57.78 135.56 57.73 135.47 57.67 135.38 57.63 135.28 57.59 135.19 57.55 135.09 57.52 134.99 57.5 134.89 57.48 134.78 57.48 134.68 57.47 134.58 57.48 134.47 57.49 134.37 57.5 134.27 57.52 134.17 57.55 134.08 57.59 133.98 57.63 133.89 57.68 133.8 57.73 133.72 57.79 133.64 57.85 133.56 57.92 133.49 58 133.42 58.08 133.36 58.16 133.3 58.24 133.25 58.33 133.21 58.43 133.17 58.52 133.13 58.62 133.1 58.72 133.08 58.82 133.07 58.92 133.06 59.02 133.06 59.13 133.07 59.23 133.08 59.33 133.1 59.43 133.12 59.53 133.15 59.63 133.19 59.73 133.23 59.82 133.28 59.91 133.34 60 133.4 60.08 133.46 60.16 133.53 60.24 133.61 60.31 133.69 60.38 133.77 60.44 133.85 60.49 133.95 60.54 134.04 60.59 134.13 60.63 134.23 60.66 134.33 60.68 134.43 60.7 134.54 60.71 134.64 60.72 134.74 60.72 134.84 60.71 134.95 60.7 135.05 60.68 135.15 60.65 135.25 60.62 135.34 60.58 135.44 60.54 135.53 60.49 135.61 60.43 135.69 60.37 135.77 60.3 135.85 60.23 135.92 60.16 135.98 60.08 136.04 59.99 136.09 59.9 136.14 59.81 136.19 59.72 136.22 59.62 136.25 59.52 136.28 59.42 136.29 59.32 136.31 59.22 136.31 59.12 136.31 59.01 136.3 58.91 136.28 58.81 136.26 58.71 136.24 58.61 136.2 58.51 136.16 58.42 136.12 58.32 136.06 58.23"/></g><g id="ID000262"><line class="cls-3" x1="128.72" y1="56.45" x2="140.65" y2="69.87"/></g><g id="ID000263"><polygon class="cls-5" points="135.76 64.37 135.84 64.3 135.91 64.23 135.97 64.15 136.03 64.06 136.09 63.98 136.14 63.88 136.18 63.79 136.22 63.69 136.25 63.6 136.28 63.5 136.29 63.4 136.31 63.29 136.31 63.19 136.31 63.09 136.3 62.98 136.29 62.88 136.27 62.78 136.24 62.68 136.21 62.58 136.17 62.49 136.12 62.4 136.07 62.31 136.01 62.22 135.95 62.14 135.88 62.06 135.81 61.99 135.73 61.92 135.65 61.85 135.57 61.79 135.48 61.74 135.39 61.69 135.29 61.65 135.2 61.62 135.1 61.59 135 61.56 134.9 61.55 134.79 61.54 134.69 61.53 134.59 61.54 134.49 61.55 134.38 61.56 134.28 61.58 134.18 61.61 134.09 61.65 133.99 61.69 133.9 61.74 133.81 61.79 133.73 61.85 133.65 61.91 133.57 61.98 133.5 62.05 133.43 62.13 133.37 62.21 133.31 62.3 133.26 62.39 133.21 62.48 133.17 62.57 133.14 62.67 133.11 62.77 133.09 62.87 133.07 62.97 133.06 63.08 133.06 63.18 133.07 63.28 133.08 63.38 133.09 63.49 133.12 63.59 133.15 63.68 133.19 63.78 133.23 63.88 133.28 63.97 133.33 64.05 133.39 64.14 133.45 64.22 133.52 64.29 133.6 64.36 133.68 64.43 133.76 64.49 133.85 64.55 133.94 64.6 134.03 64.64 134.13 64.68 134.22 64.72 134.32 64.74 134.42 64.76 134.53 64.78 134.63 64.78 134.73 64.78 134.84 64.78 134.94 64.76 135.04 64.74 135.14 64.72 135.24 64.69 135.33 64.65 135.43 64.6 135.51 64.56 135.6 64.5 135.69 64.44 135.76 64.37"/></g><g id="ID000265"><text class="cls-12" transform="translate(229.37 73.92)">A</text></g><g id="ID000266"><text class="cls-11" transform="translate(228.9 82.04)">G</text></g><g id="ID000267"><text class="cls-11" transform="translate(241.08 104.38)">G</text></g><g id="ID000268"><text class="cls-11" transform="translate(232.96 104.38)">G</text></g><g id="ID000269"><text class="cls-11" transform="translate(224.84 104.38)">G</text></g><g id="ID000270"><text class="cls-12" transform="translate(217.18 104.38)">A</text></g><g id="ID000271"><text class="cls-11" transform="translate(208.59 104.38)">G</text></g><g id="ID000272"><text class="cls-11" transform="translate(200.47 104.38)">G</text></g><g id="ID000273"><text class="cls-12" transform="translate(192.81 104.38)">A</text></g><g id="ID000274"><line class="cls-3" x1="195.61" y1="95.31" x2="195.61" y2="89.9"/></g><g id="ID000275"><text class="cls-4" transform="translate(190.94 87.87)">50</text></g><g id="ID000276"><text class="cls-12" transform="translate(184.69 104.38)">A</text></g><g id="ID000277"><text class="cls-13" transform="translate(212.89 151.09)">U</text></g><g id="ID000278"><text class="cls-13" transform="translate(200.7 120.63)">C</text></g><g id="ID000279"><text class="cls-13" transform="translate(208.83 120.63)">C</text></g><g id="ID000280"><text class="cls-13" transform="translate(216.95 120.63)">U</text></g><g id="ID000281"><text class="cls-13" transform="translate(225.07 120.63)">C</text></g><g id="ID000282"><text class="cls-13" transform="translate(233.19 120.63)">C</text></g><g id="ID000283"><text class="cls-13" transform="translate(241.32 120.63)">C</text></g><g id="ID000284"><line class="cls-3" x1="244.35" y1="122.39" x2="244.35" y2="127.81"/></g><g id="ID000285"><text class="cls-4" transform="translate(237.35 137.39)">100</text></g><g id="ID000286"><line class="cls-3" x1="229.67" y1="72.35" x2="198.11" y2="98.65"/></g><g id="ID000287"><polygon class="cls-6" points="215.72 81.86 213.22 83.94 215.3 86.43 217.8 84.35 215.72 81.86"/></g><g id="ID000288"><polygon class="cls-6" points="211.02 87.89 211.09 87.97 211.16 88.04 211.24 88.11 211.32 88.17 211.4 88.23 211.49 88.28 211.58 88.33 211.68 88.36 211.78 88.4 211.88 88.43 211.98 88.45 212.08 88.46 212.18 88.47 212.28 88.47 212.39 88.47 212.49 88.46 212.59 88.44 212.69 88.42 212.79 88.39 212.89 88.35 212.98 88.31 213.07 88.26 213.16 88.2 213.24 88.14 213.32 88.08 213.4 88.01 213.47 87.94 213.54 87.86 213.6 87.78 213.66 87.69 213.71 87.6 213.75 87.5 213.79 87.41 213.82 87.31 213.85 87.21 213.87 87.11 213.88 87.01 213.89 86.91 213.89 86.8 213.88 86.7 213.87 86.6 213.85 86.5 213.82 86.4 213.79 86.3 213.75 86.2 213.71 86.11 213.66 86.02 213.61 85.93 213.54 85.85 213.48 85.77 213.41 85.69 213.33 85.63 213.25 85.56 213.17 85.5 213.08 85.44 212.99 85.4 212.9 85.35 212.8 85.31 212.7 85.28 212.6 85.26 212.5 85.24 212.4 85.23 212.3 85.22 212.19 85.23 212.09 85.23 211.99 85.25 211.89 85.27 211.79 85.3 211.69 85.33 211.59 85.37 211.5 85.41 211.41 85.47 211.33 85.52 211.25 85.58 211.17 85.65 211.09 85.72 211.02 85.8 210.96 85.88 210.9 85.97 210.85 86.05 210.8 86.15 210.76 86.24 210.72 86.34 210.69 86.44 210.67 86.54 210.65 86.64 210.64 86.74 210.64 86.84 210.64 86.95 210.65 87.05 210.67 87.15 210.69 87.25 210.72 87.35 210.75 87.45 210.8 87.54 210.84 87.63 210.9 87.72 210.95 87.81 211.02 87.89"/></g><g id="ID000289"><line class="cls-3" x1="232.75" y1="81.59" x2="235.64" y2="97.53"/></g><g id="ID000290"><polygon class="cls-5" points="233.53 85.88 233.43 85.9 233.33 85.93 233.23 85.97 233.13 86.01 233.04 86.05 232.95 86.1 232.87 86.16 232.79 86.22 232.71 86.29 232.64 86.37 232.57 86.44 232.5 86.52 232.45 86.61 232.39 86.7 232.35 86.79 232.31 86.89 232.27 86.98 232.24 87.08 232.22 87.18 232.21 87.28 232.2 87.39 232.19 87.49 232.2 87.59 232.21 87.69 232.22 87.8 232.25 87.9 232.28 88 232.31 88.09 232.35 88.19 232.4 88.28 232.46 88.37 232.51 88.45 232.58 88.53 232.65 88.61 232.72 88.68 232.8 88.75 232.88 88.81 232.97 88.86 233.06 88.92 233.15 88.96 233.25 89 233.34 89.03 233.44 89.06 233.54 89.08 233.65 89.1 233.75 89.1 233.85 89.11 233.96 89.1 234.06 89.09 234.16 89.07 234.26 89.04 234.36 89.01 234.45 88.98 234.55 88.93 234.64 88.88 234.72 88.83 234.81 88.77 234.89 88.7 234.96 88.63 235.03 88.56 235.1 88.48 235.16 88.39 235.22 88.31 235.26 88.22 235.31 88.12 235.35 88.03 235.38 87.93 235.4 87.83 235.42 87.73 235.44 87.63 235.44 87.52 235.44 87.42 235.43 87.32 235.42 87.22 235.4 87.11 235.37 87.01 235.34 86.92 235.3 86.82 235.26 86.73 235.21 86.64 235.15 86.55 235.09 86.47 235.02 86.39 234.95 86.32 234.88 86.25 234.79 86.18 234.71 86.12 234.62 86.07 234.53 86.02 234.44 85.98 234.34 85.94 234.24 85.91 234.14 85.89 234.04 85.87 233.94 85.86 233.83 85.86 233.73 85.86 233.63 85.87 233.53 85.88"/></g><g id="ID000291"><polygon class="cls-5" points="236.46 92.94 235.88 89.75 232.68 90.33 233.26 93.53 236.46 92.94"/></g><g id="ID000292"><line class="cls-3" x1="231.58" y1="81.59" x2="228.68" y2="97.53"/></g><g id="ID000293"><polygon class="cls-5" points="230.8 85.88 230.7 85.87 230.6 85.86 230.49 85.86 230.39 85.86 230.29 85.87 230.19 85.89 230.09 85.91 229.99 85.94 229.89 85.98 229.8 86.02 229.71 86.07 229.62 86.12 229.53 86.18 229.45 86.25 229.38 86.32 229.31 86.39 229.24 86.47 229.18 86.55 229.12 86.64 229.07 86.73 229.03 86.82 228.99 86.92 228.96 87.01 228.93 87.11 228.91 87.22 228.9 87.32 228.89 87.42 228.89 87.52 228.89 87.63 228.91 87.73 228.93 87.83 228.95 87.93 228.98 88.03 229.02 88.12 229.06 88.22 229.11 88.31 229.17 88.39 229.23 88.48 229.29 88.56 229.37 88.63 229.44 88.7 229.52 88.77 229.6 88.83 229.69 88.88 229.78 88.93 229.88 88.98 229.97 89.01 230.07 89.04 230.17 89.07 230.27 89.09 230.37 89.1 230.48 89.11 230.58 89.1 230.68 89.1 230.78 89.08 230.89 89.06 230.99 89.03 231.08 89 231.18 88.96 231.27 88.92 231.36 88.86 231.45 88.81 231.53 88.75 231.61 88.68 231.68 88.61 231.75 88.53 231.81 88.45 231.87 88.37 231.93 88.28 231.97 88.19 232.02 88.09 232.05 88 232.08 87.9 232.1 87.8 232.12 87.69 232.13 87.59 232.14 87.49 232.13 87.39 232.12 87.28 232.11 87.18 232.09 87.08 232.06 86.98 232.02 86.89 231.98 86.79 231.94 86.7 231.88 86.61 231.82 86.52 231.76 86.44 231.69 86.37 231.62 86.29 231.54 86.22 231.46 86.16 231.38 86.1 231.29 86.05 231.19 86.01 231.1 85.97 231 85.93 230.9 85.9 230.8 85.88"/></g><g id="ID000294"><polygon class="cls-5" points="231.06 93.53 231.65 90.33 228.45 89.75 227.87 92.94 231.06 93.53"/></g><g id="ID000295"><line class="cls-3" x1="230.61" y1="81.24" x2="221.54" y2="97.88"/></g><g id="ID000296"><polygon class="cls-5" points="227.86 86.28 227.77 86.23 227.67 86.19 227.58 86.16 227.48 86.13 227.38 86.11 227.28 86.09 227.17 86.08 227.07 86.08 226.97 86.08 226.86 86.09 226.76 86.11 226.66 86.14 226.56 86.17 226.47 86.2 226.37 86.24 226.28 86.29 226.19 86.34 226.11 86.4 226.03 86.47 225.95 86.54 225.88 86.61 225.81 86.69 225.75 86.77 225.69 86.86 225.65 86.95 225.6 87.04 225.56 87.14 225.53 87.23 225.5 87.33 225.48 87.44 225.47 87.54 225.46 87.64 225.46 87.74 225.47 87.85 225.48 87.95 225.5 88.05 225.52 88.15 225.55 88.25 225.59 88.34 225.63 88.44 225.68 88.53 225.74 88.61 225.8 88.7 225.87 88.78 225.94 88.85 226.01 88.92 226.09 88.99 226.17 89.05 226.26 89.11 226.35 89.15 226.44 89.2 226.54 89.23 226.64 89.27 226.74 89.29 226.84 89.31 226.94 89.32 227.04 89.33 227.15 89.33 227.25 89.32 227.35 89.31 227.45 89.29 227.55 89.26 227.65 89.23 227.75 89.19 227.84 89.14 227.93 89.09 228.02 89.03 228.1 88.97 228.18 88.91 228.25 88.83 228.32 88.76 228.38 88.68 228.44 88.59 228.5 88.5 228.54 88.41 228.59 88.32 228.62 88.22 228.65 88.12 228.68 88.02 228.69 87.92 228.7 87.82 228.71 87.72 228.71 87.61 228.7 87.51 228.68 87.41 228.66 87.31 228.63 87.21 228.6 87.11 228.56 87.02 228.51 86.92 228.46 86.84 228.4 86.75 228.34 86.67 228.27 86.59 228.19 86.52 228.12 86.45 228.04 86.39 227.95 86.33 227.86 86.28"/></g><g id="ID000297"><polygon class="cls-5" points="225.71 93.62 227.26 90.77 224.41 89.21 222.86 92.06 225.71 93.62"/></g><g id="ID000298"><line class="cls-3" x1="244.35" y1="103.98" x2="244.35" y2="113.72"/></g><g id="ID000299"><line class="cls-3" x1="236.23" y1="103.98" x2="236.23" y2="113.72"/></g><g id="ID000300"><line class="cls-3" x1="228.1" y1="103.98" x2="228.1" y2="113.72"/></g><g id="ID000301"><line class="cls-3" x1="219.98" y1="103.98" x2="219.98" y2="113.72"/></g><g id="ID000302"><line class="cls-3" x1="211.86" y1="103.98" x2="211.86" y2="113.72"/></g><g id="ID000303"><line class="cls-3" x1="203.73" y1="103.98" x2="203.73" y2="113.72"/></g><g id="ID000304"><line class="cls-10" x1="214.71" y1="144.42" x2="204.94" y2="119.99"/></g><g id="ID000305"><polygon class="cls-5" points="208.57 135.63 209.2 133.91 209.07 132.51 208.76 131.18 208.32 128.43 209.89 130.72 210.58 131.9 211.46 133.01 213.09 133.81 208.57 135.63"/></g><g id="ID000306"><line class="cls-3" x1="215.49" y1="144.22" x2="212.29" y2="120.2"/></g><g id="ID000307"><polygon class="cls-6" points="214.38 135.91 214.48 135.89 214.58 135.87 214.68 135.84 214.78 135.8 214.87 135.76 214.96 135.71 215.05 135.66 215.14 135.6 215.22 135.54 215.29 135.47 215.37 135.4 215.43 135.32 215.5 135.23 215.55 135.15 215.6 135.06 215.65 134.97 215.69 134.87 215.72 134.77 215.75 134.67 215.77 134.57 215.78 134.47 215.79 134.37 215.79 134.26 215.78 134.16 215.77 134.06 215.75 133.96 215.73 133.86 215.7 133.76 215.66 133.66 215.62 133.57 215.57 133.48 215.51 133.39 215.45 133.31 215.39 133.23 215.32 133.15 215.24 133.08 215.16 133.02 215.08 132.96 214.99 132.9 214.9 132.85 214.81 132.81 214.71 132.77 214.62 132.74 214.51 132.71 214.41 132.69 214.31 132.68 214.21 132.68 214.11 132.68 214 132.68 213.9 132.7 213.8 132.72 213.7 132.74 213.6 132.78 213.51 132.81 213.41 132.86 213.32 132.91 213.24 132.97 213.16 133.03 213.08 133.09 213 133.17 212.93 133.24 212.87 133.32 212.81 133.41 212.75 133.5 212.71 133.59 212.66 133.68 212.63 133.78 212.6 133.88 212.57 133.97 212.56 134.08 212.55 134.18 212.54 134.28 212.54 134.39 212.55 134.49 212.57 134.59 212.59 134.69 212.62 134.79 212.65 134.89 212.69 134.98 212.74 135.07 212.79 135.16 212.85 135.25 212.91 135.33 212.98 135.41 213.05 135.48 213.13 135.55 213.21 135.61 213.29 135.67 213.38 135.72 213.48 135.77 213.57 135.81 213.67 135.84 213.77 135.87 213.87 135.9 213.97 135.91 214.07 135.92 214.18 135.92 214.28 135.92 214.38 135.91"/></g><g id="ID000308"><polygon class="cls-6" points="211.78 128.72 212.21 131.94 215.43 131.51 215 128.29 211.78 128.72"/></g><g id="ID000309"><line class="cls-3" x1="216.35" y1="144.22" x2="219.55" y2="120.2"/></g><g id="ID000310"><polygon class="cls-6" points="217.46 135.91 217.56 135.92 217.66 135.92 217.76 135.92 217.87 135.91 217.97 135.9 218.07 135.87 218.17 135.84 218.26 135.81 218.36 135.77 218.45 135.72 218.54 135.67 218.63 135.61 218.71 135.55 218.78 135.48 218.86 135.41 218.93 135.33 218.99 135.25 219.05 135.16 219.1 135.07 219.14 134.98 219.18 134.89 219.22 134.79 219.25 134.69 219.27 134.59 219.28 134.49 219.29 134.39 219.29 134.28 219.29 134.18 219.28 134.08 219.26 133.97 219.24 133.88 219.21 133.78 219.17 133.68 219.13 133.59 219.08 133.5 219.03 133.41 218.97 133.32 218.9 133.24 218.83 133.17 218.76 133.09 218.68 133.03 218.6 132.97 218.51 132.91 218.42 132.86 218.33 132.81 218.23 132.78 218.14 132.74 218.04 132.72 217.94 132.7 217.83 132.68 217.73 132.68 217.63 132.68 217.52 132.68 217.42 132.69 217.32 132.71 217.22 132.74 217.12 132.77 217.03 132.81 216.93 132.85 216.84 132.9 216.76 132.96 216.67 133.02 216.59 133.08 216.52 133.15 216.45 133.23 216.38 133.31 216.32 133.39 216.27 133.48 216.22 133.57 216.18 133.66 216.14 133.76 216.11 133.86 216.08 133.96 216.06 134.06 216.05 134.16 216.04 134.26 216.05 134.37 216.05 134.47 216.07 134.57 216.09 134.67 216.12 134.77 216.15 134.87 216.19 134.97 216.23 135.06 216.28 135.15 216.34 135.23 216.4 135.32 216.47 135.4 216.54 135.47 216.62 135.54 216.7 135.6 216.78 135.66 216.87 135.71 216.96 135.76 217.06 135.8 217.15 135.84 217.25 135.87 217.35 135.89 217.46 135.91"/></g><g id="ID000311"><polygon class="cls-6" points="216.83 128.29 216.4 131.51 219.62 131.94 220.05 128.72 216.83 128.29"/></g><g id="ID000312"><line class="cls-3" x1="217.12" y1="144.42" x2="226.9" y2="119.99"/></g><g id="ID000313"><polygon class="cls-6" points="220.62 135.68 220.72 135.71 220.82 135.74 220.92 135.76 221.02 135.78 221.12 135.79 221.23 135.79 221.33 135.79 221.43 135.78 221.53 135.76 221.63 135.74 221.73 135.71 221.83 135.68 221.93 135.63 222.02 135.59 222.1 135.53 222.19 135.47 222.27 135.41 222.35 135.34 222.42 135.27 222.49 135.19 222.55 135.11 222.61 135.02 222.66 134.93 222.7 134.84 222.74 134.75 222.78 134.65 222.81 134.55 222.83 134.45 222.84 134.35 222.85 134.24 222.85 134.14 222.85 134.04 222.83 133.94 222.82 133.83 222.79 133.73 222.76 133.63 222.72 133.54 222.68 133.44 222.63 133.35 222.58 133.27 222.52 133.18 222.45 133.1 222.38 133.03 222.31 132.96 222.23 132.89 222.15 132.83 222.06 132.77 221.97 132.72 221.88 132.68 221.78 132.64 221.68 132.61 221.58 132.58 221.48 132.56 221.38 132.55 221.28 132.54 221.17 132.54 221.07 132.55 220.97 132.56 220.87 132.58 220.77 132.61 220.67 132.64 220.57 132.68 220.48 132.72 220.39 132.77 220.3 132.83 220.22 132.89 220.14 132.96 220.07 133.03 220 133.1 219.93 133.18 219.87 133.27 219.82 133.35 219.77 133.45 219.73 133.54 219.69 133.64 219.66 133.73 219.63 133.83 219.62 133.94 219.61 134.04 219.6 134.14 219.6 134.24 219.61 134.35 219.63 134.45 219.65 134.55 219.68 134.65 219.71 134.75 219.75 134.84 219.79 134.93 219.85 135.02 219.9 135.11 219.97 135.19 220.03 135.27 220.1 135.34 220.18 135.41 220.26 135.47 220.35 135.53 220.44 135.59 220.53 135.63 220.62 135.68"/></g><g id="ID000314"><polygon class="cls-6" points="221.89 128.13 220.68 131.15 223.7 132.36 224.91 129.34 221.89 128.13"/></g><g id="ID000315"><line class="cls-10" x1="245.88" y1="119.84" x2="275.31" y2="175.03"/></g><g id="ID000316"><polygon class="cls-5" points="261.47 143.9 261.03 145.67 261.31 147.05 261.77 148.34 262.51 151.02 260.7 148.92 259.88 147.82 258.88 146.81 257.17 146.19 261.47 143.9"/></g><g id="ID000318"><text class="cls-15" transform="translate(274.04 287.16)">A</text></g><g id="ID000319"><text class="cls-15" transform="translate(274.04 279.03)">A</text></g><g id="ID000320"><text class="cls-13" transform="translate(273.58 270.91)">G</text></g><g id="ID000321"><text class="cls-13" transform="translate(273.58 262.79)">G</text></g><g id="ID000322"><text class="cls-13" transform="translate(257.33 254.66)">G</text></g><g id="ID000323"><line class="cls-3" x1="255.18" y1="251.01" x2="249.76" y2="251.01"/></g><g id="ID000324"><text class="cls-16" transform="translate(236.38 254.66)">1<tspan class="cls-17" x="4.04" y="0">10</tspan></text></g><g id="ID000325"><text class="cls-13" transform="translate(257.56 262.79)">C</text></g><g id="ID000326"><text class="cls-13" transform="translate(257.56 270.91)">C</text></g><g id="ID000327"><text class="cls-13" transform="translate(257.56 279.03)">U</text></g><g id="ID000328"><line class="cls-3" x1="273.59" y1="275.38" x2="263.85" y2="275.38"/></g><g id="ID000329"><line class="cls-3" x1="273.59" y1="267.25" x2="263.85" y2="267.25"/></g><g id="ID000330"><line class="cls-10" x1="274.54" y1="256.83" x2="262.89" y2="245.18"/></g><g id="ID000331"><polygon class="cls-5" points="268.91 254.65 268.81 252.83 268.14 251.58 267.33 250.48 265.85 248.14 268.19 249.62 269.29 250.43 270.54 251.1 272.36 251.2 268.91 254.65"/></g><g id="ID000332"><line class="cls-3" x1="273.59" y1="259.13" x2="263.85" y2="259.13"/></g><g id="ID000334"><text class="cls-13" transform="translate(257.33 246.54)">G</text></g><g id="ID000335"><text class="cls-13" transform="translate(257.56 238.42)">U</text></g><g id="ID000336"><text class="cls-13" transform="translate(257.33 230.29)">G</text></g><g id="ID000337"><text class="cls-13" transform="translate(257.56 222.17)">C</text></g><g id="ID000338"><text class="cls-15" transform="translate(257.8 214.05)">A</text></g><g id="ID000339"><text class="cls-13" transform="translate(257.33 205.93)">G</text></g><g id="ID000340"><line class="cls-3" x1="255.18" y1="202.27" x2="249.76" y2="202.27"/></g><g id="ID000341"><text class="cls-4" transform="translate(240.43 205.93)">90</text></g><g id="ID000342"><text class="cls-15" transform="translate(257.8 197.8)">A</text></g><g id="ID000343"><text class="cls-13" transform="translate(257.33 189.68)">G</text></g><g id="ID000344"><text class="cls-13" transform="translate(257.56 181.56)">U</text></g><g id="ID000345"><text class="cls-13" transform="translate(273.58 181.56)">G</text></g><g id="ID000346"><text class="cls-13" transform="translate(273.81 189.68)">C</text></g><g id="ID000347"><text class="cls-13" transform="translate(273.81 197.8)">U</text></g><g id="ID000348"><text class="cls-13" transform="translate(273.81 205.93)">C</text></g><g id="ID000349"><text class="cls-13" transform="translate(273.81 214.05)">U</text></g><g id="ID000350"><text class="cls-13" transform="translate(273.58 222.17)">G</text></g><g id="ID000351"><text class="cls-13" transform="translate(273.81 230.29)">C</text></g><g id="ID000352"><text class="cls-15" transform="translate(274.04 238.42)">A</text></g><g id="ID000353"><text class="cls-13" transform="translate(273.81 246.54)">U</text></g><g id="ID000354"><polygon class="cls-5" points="270.34 242.88 270.34 242.78 270.33 242.68 270.31 242.58 270.29 242.48 270.26 242.38 270.23 242.28 270.19 242.19 270.14 242.09 270.09 242.01 270.03 241.92 269.96 241.84 269.89 241.76 269.82 241.69 269.74 241.62 269.66 241.56 269.58 241.5 269.49 241.45 269.39 241.41 269.3 241.37 269.2 241.33 269.1 241.31 269 241.28 268.9 241.27 268.8 241.26 268.69 241.26 268.59 241.26 268.49 241.28 268.39 241.29 268.29 241.32 268.19 241.35 268.09 241.39 268 241.43 267.91 241.48 267.82 241.53 267.74 241.59 267.65 241.66 267.58 241.73 267.51 241.8 267.44 241.88 267.38 241.96 267.32 242.05 267.27 242.14 267.23 242.23 267.19 242.33 267.16 242.43 267.13 242.53 267.12 242.63 267.1 242.73 267.1 242.83 267.1 242.94 267.1 243.04 267.12 243.14 267.13 243.24 267.16 243.34 267.19 243.44 267.23 243.54 267.27 243.63 267.32 243.72 267.38 243.81 267.44 243.89 267.51 243.97 267.58 244.04 267.65 244.11 267.74 244.18 267.82 244.24 267.91 244.29 268 244.34 268.09 244.38 268.19 244.42 268.29 244.45 268.39 244.47 268.49 244.49 268.59 244.5 268.69 244.51 268.8 244.51 268.9 244.5 269 244.49 269.1 244.46 269.2 244.44 269.3 244.4 269.39 244.36 269.49 244.32 269.58 244.26 269.66 244.21 269.74 244.15 269.82 244.08 269.89 244.01 269.96 243.93 270.03 243.85 270.09 243.76 270.14 243.68 270.19 243.58 270.23 243.49 270.26 243.39 270.29 243.29 270.31 243.19 270.33 243.09 270.34 242.99 270.34 242.88"/></g><g id="ID000355"><line class="cls-3" x1="263.85" y1="234.76" x2="273.59" y2="234.76"/></g><g id="ID000356"><line class="cls-3" x1="263.85" y1="226.64" x2="273.59" y2="226.64"/></g><g id="ID000357"><line class="cls-3" x1="263.85" y1="218.51" x2="273.59" y2="218.51"/></g><g id="ID000358"><line class="cls-3" x1="263.85" y1="210.39" x2="273.59" y2="210.39"/></g><g id="ID000359"><line class="cls-3" x1="263.85" y1="202.27" x2="273.59" y2="202.27"/></g><g id="ID000360"><line class="cls-3" x1="263.85" y1="194.15" x2="273.59" y2="194.15"/></g><g id="ID000361"><line class="cls-3" x1="263.85" y1="186.02" x2="273.59" y2="186.02"/></g><g id="ID000362"><polygon class="cls-5" points="270.34 177.9 270.34 177.8 270.33 177.69 270.31 177.59 270.29 177.49 270.26 177.39 270.23 177.29 270.19 177.2 270.14 177.11 270.09 177.02 270.03 176.94 269.96 176.85 269.89 176.78 269.82 176.71 269.74 176.64 269.66 176.57 269.58 176.52 269.49 176.47 269.39 176.42 269.3 176.38 269.2 176.35 269.1 176.32 269 176.3 268.9 176.28 268.8 176.28 268.69 176.27 268.59 176.28 268.49 176.29 268.39 176.31 268.29 176.33 268.19 176.36 268.09 176.4 268 176.44 267.91 176.49 267.82 176.55 267.74 176.61 267.65 176.67 267.58 176.74 267.51 176.82 267.44 176.9 267.38 176.98 267.32 177.06 267.27 177.15 267.23 177.25 267.19 177.34 267.16 177.44 267.13 177.54 267.12 177.64 267.1 177.74 267.1 177.85 267.1 177.95 267.1 178.05 267.12 178.16 267.13 178.26 267.16 178.36 267.19 178.46 267.23 178.55 267.27 178.64 267.32 178.73 267.38 178.82 267.44 178.9 267.51 178.98 267.58 179.06 267.65 179.13 267.74 179.19 267.82 179.25 267.91 179.31 268 179.35 268.09 179.4 268.19 179.43 268.29 179.47 268.39 179.49 268.49 179.51 268.59 179.52 268.69 179.52 268.8 179.52 268.9 179.51 269 179.5 269.1 179.48 269.2 179.45 269.3 179.42 269.39 179.38 269.49 179.33 269.58 179.28 269.66 179.22 269.74 179.16 269.82 179.09 269.89 179.02 269.96 178.94 270.03 178.86 270.09 178.78 270.14 178.69 270.19 178.6 270.23 178.5 270.26 178.41 270.29 178.31 270.31 178.21 270.33 178.1 270.34 178 270.34 177.9"/></g><g id="ID000364"><polyline class="cls-10" points="177.33 296.5 177.33 289.59 146.06 289.59"/></g><g id="ID000365"><polygon class="cls-5" points="164.4 292.03 163.05 290.81 161.69 290.41 160.34 290.2 157.63 289.59 160.34 288.98 161.69 288.78 163.05 288.38 164.4 287.16 164.4 292.03"/></g><g id="ID000366"><line class="cls-10" x1="233.72" y1="81.24" x2="242.79" y2="97.88"/></g><g id="ID000367"><polygon class="cls-5" points="239.1 86.01 238.68 87.79 238.97 89.17 239.44 90.45 240.2 93.12 238.37 91.04 237.54 89.95 236.54 88.95 234.82 88.35 239.1 86.01"/></g><g id="ID000368"><line class="cls-10" x1="146.04" y1="279.73" x2="273.61" y2="291.33"/></g><g id="ID000369"><polygon class="cls-5" points="207.35 282.86 208.59 284.2 209.9 284.72 211.23 285.05 213.87 285.9 211.12 286.26 209.75 286.34 208.37 286.62 206.91 287.71 207.35 282.86"/></g><g id="ID000370"><line class="cls-10" x1="185.24" y1="98.38" x2="145.05" y2="56.37"/></g><g id="ID000371"><polygon class="cls-5" points="165.26 81.02 165.2 79.19 164.56 77.94 163.77 76.82 162.34 74.44 164.65 75.97 165.74 76.81 166.96 77.51 168.78 77.65 165.26 81.02"/></g><g id="ID000372"><line class="cls-10" x1="189.98" y1="274.53" x2="193.12" y2="296.53"/></g><g id="ID000373"><polygon class="cls-5" points="193.58 282.51 192.56 284.02 192.35 285.42 192.34 286.79 192.12 289.55 191.14 286.96 190.74 285.65 190.15 284.36 188.75 283.2 193.58 282.51"/></g><g id="ID000374"><line class="cls-10" x1="203.73" y1="171.3" x2="191.55" y2="156.07"/></g><g id="ID000375"><polygon class="cls-5" points="197.43 167.32 197.53 165.5 197.01 164.19 196.32 163.01 195.1 160.51 197.27 162.25 198.28 163.18 199.44 163.98 201.24 164.28 197.43 167.32"/></g><g id="ID000376"><line class="cls-10" x1="273.94" y1="244.34" x2="263.5" y2="249.55"/></g><g id="ID000377"><polygon class="cls-5" points="272.23 247.91 270.48 247.43 269.08 247.67 267.78 248.1 265.09 248.76 267.24 247.01 268.36 246.22 269.38 245.25 270.05 243.56 272.23 247.91"/></g><g id="ID000378"><polygon class="cls-5" points="176.44 37.37 177.79 38.59 179.15 38.99 180.5 39.19 183.21 39.8 180.5 40.41 179.15 40.62 177.79 41.02 176.44 42.24 176.44 37.37"/></g><g id="ID000379"><polyline class="cls-10" points="126.59 50.77 126.67 39.8 231.63 39.8 232.11 67.02"/></g><g id="ID000380"><polygon class="cls-5" points="234.26 50.66 233.06 52.03 232.68 53.4 232.5 54.75 231.94 57.47 231.28 54.77 231.06 53.42 230.63 52.08 229.38 50.75 234.26 50.66"/></g><g id="ID000381"><line class="cls-10" x1="257.91" y1="176.07" x2="218.6" y2="149.27"/></g><g id="ID000382"><polygon class="cls-5" points="239.12 166.21 238.69 164.44 237.8 163.34 236.79 162.41 234.9 160.38 237.48 161.4 238.72 162 240.06 162.42 241.87 162.18 239.12 166.21"/></g></g><text class="cls-18" transform="translate(81.57 140.52)">P2</text><text class="cls-19" transform="translate(288.4 236.3)">P3</text><text class="cls-20" transform="translate(157.96 229.87)">P4</text><text class="cls-21" transform="translate(90.76 332.51)">P1</text><text class="cls-22" transform="translate(204.81 340.11)">P5</text><text class="cls-23" transform="translate(7.03 20.29)"><tspan class="cls-24">L</tspan><tspan x="10.38" y="0">ysine Riboswitch</tspan></text><rect class="cls-25" x="101.26" y="281.72" width="16.54" height="8.27"/><text class="cls-26" transform="translate(103.08 288.63)"><tspan class="cls-27">L</tspan><tspan x="4.77" y="0">ys</tspan></text><line class="cls-25" x1="117.79" y1="287.23" x2="132.49" y2="284.48"/><line class="cls-28" x1="117.79" y1="287.23" x2="131.1" y2="284.74"/><polygon class="cls-25" points="128.49 286.84 128.23 286.41 131.05 284.74 127.82 284.21 127.9 283.72 132.49 284.48 128.49 286.84"/><text class="cls-29" transform="translate(118.56 387.25)">5<tspan class="cls-30" x="7.15" y="0">’</tspan></text><text class="cls-29" transform="translate(142.45 387.25)">3<tspan class="cls-30" x="7.15" y="0">’</tspan></text></svg>