<svg id="图层_1" data-name="图层 1" xmlns="http://www.w3.org/2000/svg" xmlns:xlink="http://www.w3.org/1999/xlink" viewBox="0 0 400 400"><defs><style>.cls-1,.cls-12,.cls-13,.cls-25,.cls-28,.cls-29,.cls-3,.cls-30,.cls-4{fill:none;}.cls-2{clip-path:url(#clip-path);}.cls-12,.cls-13,.cls-25,.cls-28,.cls-3,.cls-30,.cls-4{stroke:#000;}.cls-3{stroke-linecap:round;}.cls-12,.cls-13,.cls-25,.cls-28,.cls-29,.cls-3,.cls-4{stroke-miterlimit:10;}.cls-5{fill:#c6dcbb;}.cls-6{fill:#f0cbcb;}.cls-7{fill:#bacbe2;}.cls-8{fill:#c6dcbc;}.cls-9{fill:#de1c31;}.cls-10{fill:#7d7f82;}.cls-11{fill:#fff;}.cls-12,.cls-30{stroke-width:0.5px;}.cls-13{stroke-width:0.72px;}.cls-14{fill:#de1d32;}.cls-15{font-size:20px;font-family:ArialMT, Arial;}.cls-16{letter-spacing:-0.04em;}.cls-17{fill:#030303;}.cls-18{fill:#231f20;}.cls-19{fill:#d72026;}.cls-20{fill:#807c88;}.cls-21{fill:gray;}.cls-22{fill:#ce2127;}.cls-23{fill:#070606;}.cls-24{fill:#fdd2d7;}.cls-25{stroke-width:1.94px;}.cls-26{fill:#d8efb4;}.cls-27{fill:#d0d8e9;}.cls-28{stroke-width:1.5px;}.cls-29{stroke:#5c5c5c;}</style><clipPath id="clip-path"><rect class="cls-1" x="47.19" y="-2.09" width="723.32" height="396.61"/></clipPath></defs><g class="cls-2"><path class="cls-3" d="M114.65,101.83l.08-8.89a23.48,23.48,0,1,1,23.5.21l-.08,8.68"/><line class="cls-4" x1="122.01" y1="97.03" x2="131.3" y2="97.03"/></g><g class="cls-2"><rect class="cls-5" x="105.41" y="159.62" width="42.82" height="12.76"/><rect class="cls-5" x="105.41" y="195.45" width="42.82" height="12.76"/><rect class="cls-6" x="105.41" y="213.36" width="42.82" height="12.76"/><line class="cls-4" x1="122.22" y1="219.74" x2="131.43" y2="219.74"/><line class="cls-4" x1="122.22" y1="201.83" x2="131.43" y2="201.83"/><rect class="cls-7" x="105.41" y="177.54" width="42.82" height="12.76"/><line class="cls-4" x1="122.22" y1="183.91" x2="131.43" y2="183.91"/><rect class="cls-8" x="105.28" y="142.89" width="42.82" height="12.76"/><line class="cls-4" x1="122.08" y1="149.27" x2="131.29" y2="149.27"/><rect class="cls-8" x="105.28" y="124.98" width="42.82" height="12.76"/><line class="cls-4" x1="122.08" y1="131.35" x2="131.29" y2="131.35"/><rect class="cls-8" x="105.28" y="107.06" width="42.82" height="12.76"/><line class="cls-4" x1="122.08" y1="113.44" x2="131.29" y2="113.44"/><path class="cls-9" d="M107.18,220.18a16,16,0,0,0,.25,3.23,3.64,3.64,0,0,0,.72,1.41,4,4,0,0,0,1.49,1.1,7.08,7.08,0,0,0,2.77.42,6.42,6.42,0,0,0,2.44-.39,3.87,3.87,0,0,0,1.5-1,3.59,3.59,0,0,0,.77-1.59,17.28,17.28,0,0,0,.2-3.24V213.4h-2.56v7a13.56,13.56,0,0,1-.12,2.16,1.71,1.71,0,0,1-.66,1.09,2.58,2.58,0,0,1-1.65.45,2.77,2.77,0,0,1-1.7-.47,2.13,2.13,0,0,1-.79-1.26,15,15,0,0,1-.09-2.12V213.4h-2.57Z"/><path class="cls-9" d="M107.18,202.27a16.08,16.08,0,0,0,.25,3.23,3.64,3.64,0,0,0,.72,1.41,4,4,0,0,0,1.49,1.09,7.08,7.08,0,0,0,2.77.42,6.64,6.64,0,0,0,2.44-.38,4,4,0,0,0,1.5-1,3.63,3.63,0,0,0,.77-1.6,17.22,17.22,0,0,0,.2-3.23v-6.68h-2.56v7a13.39,13.39,0,0,1-.12,2.16,1.73,1.73,0,0,1-.66,1.1,2.58,2.58,0,0,1-1.65.45,2.77,2.77,0,0,1-1.7-.47,2.16,2.16,0,0,1-.79-1.26,15,15,0,0,1-.09-2.12v-6.89h-2.57Z"/><path class="cls-9" d="M115.56,185.62v1.61a5.58,5.58,0,0,1-1.39.77,4.45,4.45,0,0,1-1.62.32,3.37,3.37,0,0,1-2.64-1.13,5,5,0,0,1-1-3.4,4.51,4.51,0,0,1,1-3.17,3.48,3.48,0,0,1,2.68-1.07,3,3,0,0,1,1.85.55,2.7,2.7,0,0,1,1,1.48l2.55-.48a4.49,4.49,0,0,0-1.71-2.75,6.11,6.11,0,0,0-3.7-1,6.63,6.63,0,0,0-3,.63,5.64,5.64,0,0,0-2.44,2.37,7.39,7.39,0,0,0-.83,3.53,7.72,7.72,0,0,0,.75,3.39,5.22,5.22,0,0,0,2.23,2.39,6.89,6.89,0,0,0,3.47.84,8.66,8.66,0,0,0,3.11-.59,6.92,6.92,0,0,0,2.33-1.38v-5.06h-5.53v2.14Z"/><path class="cls-10" d="M115.56,167.71v1.61a5.58,5.58,0,0,1-1.39.77,4.43,4.43,0,0,1-1.62.31,3.34,3.34,0,0,1-2.64-1.13,5,5,0,0,1-1-3.4,4.5,4.5,0,0,1,1-3.16,3.48,3.48,0,0,1,2.68-1.07,3.07,3.07,0,0,1,1.85.54,2.77,2.77,0,0,1,1,1.48l2.55-.47a4.49,4.49,0,0,0-1.71-2.75,6.11,6.11,0,0,0-3.7-1,6.63,6.63,0,0,0-3,.63,5.64,5.64,0,0,0-2.44,2.37,7.39,7.39,0,0,0-.83,3.53,7.72,7.72,0,0,0,.75,3.39,5.27,5.27,0,0,0,2.23,2.39,6.89,6.89,0,0,0,3.47.84,8.47,8.47,0,0,0,3.11-.6,6.76,6.76,0,0,0,2.33-1.37v-5.07h-5.53v2.15Z"/><path class="cls-9" d="M101,232.1v1.62a5.26,5.26,0,0,1-1.39.76,4.25,4.25,0,0,1-1.62.32,3.37,3.37,0,0,1-2.64-1.13,5,5,0,0,1-1-3.4,4.48,4.48,0,0,1,1-3.16A3.48,3.48,0,0,1,98.06,226a3.07,3.07,0,0,1,1.85.54,2.73,2.73,0,0,1,1,1.48l2.55-.48a4.43,4.43,0,0,0-1.71-2.74,6,6,0,0,0-3.7-1,6.5,6.5,0,0,0-3,.64,5.64,5.64,0,0,0-2.44,2.37,7.36,7.36,0,0,0-.83,3.53,7.72,7.72,0,0,0,.75,3.39,5.37,5.37,0,0,0,2.23,2.39,7,7,0,0,0,3.48.84,8.45,8.45,0,0,0,3.1-.6,6.91,6.91,0,0,0,2.34-1.37V230H98.1v2.14Z"/><path class="cls-9" d="M160.66,232.1v1.62a5.26,5.26,0,0,1-1.39.76,4.25,4.25,0,0,1-1.62.32,3.37,3.37,0,0,1-2.64-1.13,5,5,0,0,1-1-3.4,4.48,4.48,0,0,1,1-3.16,3.48,3.48,0,0,1,2.68-1.07,3.07,3.07,0,0,1,1.85.54,2.73,2.73,0,0,1,1,1.48l2.55-.48a4.47,4.47,0,0,0-1.71-2.74,6,6,0,0,0-3.7-1,6.5,6.5,0,0,0-3.05.64,5.64,5.64,0,0,0-2.44,2.37,7.36,7.36,0,0,0-.83,3.53,7.72,7.72,0,0,0,.75,3.39,5.32,5.32,0,0,0,2.23,2.39,6.89,6.89,0,0,0,3.47.84,8.51,8.51,0,0,0,3.11-.6,6.76,6.76,0,0,0,2.33-1.37V230h-5.53v2.14Z"/><path d="M109.15,145.08h2c1,0,1.66,0,1.87,0a1.54,1.54,0,0,1,1,.5,1.52,1.52,0,0,1,.34,1,1.61,1.61,0,0,1-.26,1,1.41,1.41,0,0,1-.72.54,10.14,10.14,0,0,1-2.31.15h-1.9Zm0,10.56v-5.31h.52a4.09,4.09,0,0,1,1.3.15,1.88,1.88,0,0,1,.77.53,17.72,17.72,0,0,1,1.35,1.87l1.86,2.76H118l-1.55-2.48A14.58,14.58,0,0,0,115,151.1a5.94,5.94,0,0,0-1.38-1.07,4,4,0,0,0,2.52-1.18,3.39,3.39,0,0,0,.84-2.36,3.65,3.65,0,0,0-.56-2,2.84,2.84,0,0,0-1.48-1.22,9.12,9.12,0,0,0-3-.35h-5.4v12.72Z"/><polygon class="cls-10" points="112.97 137.73 112.97 132.4 117.65 125.01 114.69 125.01 111.76 130.04 108.77 125.01 105.75 125.01 110.41 132.38 110.41 137.73 112.97 137.73"/><path class="cls-10" d="M138.15,127.16h2c1,0,1.66,0,1.87,0a1.54,1.54,0,0,1,1,.5,1.51,1.51,0,0,1,.34,1,1.62,1.62,0,0,1-.26,1,1.41,1.41,0,0,1-.72.54,10.14,10.14,0,0,1-2.31.15h-1.9Zm0,10.57v-5.31h.52a4.09,4.09,0,0,1,1.3.15,2,2,0,0,1,.77.52,20.34,20.34,0,0,1,1.35,1.87l1.86,2.77H147l-1.55-2.48a14.58,14.58,0,0,0-1.46-2.06,5.94,5.94,0,0,0-1.38-1.07,4,4,0,0,0,2.52-1.18,3.39,3.39,0,0,0,.84-2.36,3.65,3.65,0,0,0-.56-2,2.84,2.84,0,0,0-1.48-1.22,9.12,9.12,0,0,0-3-.35h-5.4v12.72Z"/><polygon class="cls-10" points="142.47 155.64 142.47 150.31 147.15 142.92 144.19 142.92 141.26 147.96 138.26 142.92 135.25 142.92 139.91 150.29 139.91 155.64 142.47 155.64"/><path class="cls-10" d="M301.48,99.93v1.62a5.39,5.39,0,0,1-1.39.76,4.25,4.25,0,0,1-1.62.32,3.4,3.4,0,0,1-2.64-1.13,5.06,5.06,0,0,1-1-3.4,4.53,4.53,0,0,1,1-3.17,3.5,3.5,0,0,1,2.68-1.06,3,3,0,0,1,1.85.54,2.65,2.65,0,0,1,1,1.48l2.55-.48a4.43,4.43,0,0,0-1.71-2.74,6,6,0,0,0-3.7-1,6.5,6.5,0,0,0-3.05.64A5.59,5.59,0,0,0,293,94.68a7.36,7.36,0,0,0-.83,3.53,7.72,7.72,0,0,0,.75,3.39,5.37,5.37,0,0,0,2.23,2.39,7,7,0,0,0,3.48.84,8.45,8.45,0,0,0,3.1-.6,6.91,6.91,0,0,0,2.34-1.37V97.79h-5.54v2.14Z"/><path class="cls-9" d="M136.18,166.45a16.08,16.08,0,0,0,.25,3.23,3.64,3.64,0,0,0,.72,1.41,4.06,4.06,0,0,0,1.49,1.09,7.08,7.08,0,0,0,2.77.42,6.42,6.42,0,0,0,2.44-.39,3.78,3.78,0,0,0,1.5-1,3.68,3.68,0,0,0,.77-1.6,17.28,17.28,0,0,0,.2-3.24v-6.68h-2.56v7a13.39,13.39,0,0,1-.12,2.16A1.73,1.73,0,0,1,143,170a2.58,2.58,0,0,1-1.65.45,2.71,2.71,0,0,1-1.7-.48,2,2,0,0,1-.78-1.25,13.28,13.28,0,0,1-.1-2.13v-6.89h-2.57Z"/><path class="cls-9" d="M143.28,187.67a2.59,2.59,0,0,1-1.76.65,2.8,2.8,0,0,1-2.26-1,5.32,5.32,0,0,1-.86-3.43,5,5,0,0,1,.87-3.29,2.91,2.91,0,0,1,2.3-1,2.64,2.64,0,0,1,2.68,2.14l2.54-.61a5,5,0,0,0-1.3-2.34,5.28,5.28,0,0,0-3.79-1.38,5.59,5.59,0,0,0-4.31,1.76,6.91,6.91,0,0,0-1.64,4.93,6.6,6.6,0,0,0,1.63,4.73,5.48,5.48,0,0,0,4.16,1.73,5.39,5.39,0,0,0,3.38-1,5.54,5.54,0,0,0,1.91-3.09l-2.49-.79a3.87,3.87,0,0,1-1.06,2"/><path class="cls-9" d="M139,203.17l1.72-4.72,1.75,4.72Zm3.11-7.68h-2.72l-5,12.72h2.72l1.05-2.89h5.09l1.11,2.89h2.79Z"/><path class="cls-9" d="M139,221.09l1.72-4.72,1.75,4.72Zm3.11-7.69h-2.72l-5,12.72h2.72l1.05-2.89h5.09l1.11,2.89h2.79Z"/><path d="M129.05,166a2.35,2.35,0,1,1-2.35-2.34,2.35,2.35,0,0,1,2.35,2.34"/><path class="cls-11" d="M163.51,166.33a6.06,6.06,0,1,1-6.06-6.06,6.06,6.06,0,0,1,6.06,6.06"/><path class="cls-10" d="M172.12,226.21h2a16.58,16.58,0,0,1,1.87,0,1.42,1.42,0,0,1,1.31,1.53,1.64,1.64,0,0,1-.26,1,1.35,1.35,0,0,1-.72.53,9.3,9.3,0,0,1-2.3.16h-1.91Zm0,10.57v-5.31h.53a4.41,4.41,0,0,1,1.29.14,2,2,0,0,1,.77.53,18.94,18.94,0,0,1,1.35,1.87l1.86,2.77H181l-1.55-2.48a14.61,14.61,0,0,0-1.46-2.07,6,6,0,0,0-1.38-1.06,4.09,4.09,0,0,0,2.52-1.18,3.39,3.39,0,0,0,.84-2.36,3.68,3.68,0,0,0-.55-2,3,3,0,0,0-1.49-1.22,9.18,9.18,0,0,0-3-.34h-5.4v12.72Z"/><line class="cls-4" x1="274.23" y1="221.26" x2="283.44" y2="221.26"/><rect class="cls-8" x="257.43" y="196.97" width="42.82" height="12.76"/><line class="cls-4" x1="274.23" y1="203.35" x2="283.44" y2="203.35"/><rect class="cls-8" x="257.43" y="179.06" width="42.82" height="12.76"/><line class="cls-4" x1="274.23" y1="185.44" x2="283.44" y2="185.44"/><rect class="cls-8" x="257.43" y="161.15" width="42.82" height="12.76"/><rect class="cls-8" x="257.29" y="144.41" width="42.82" height="12.76"/><line class="cls-4" x1="274.1" y1="150.79" x2="283.31" y2="150.79"/><rect class="cls-8" x="257.29" y="126.5" width="42.82" height="12.76"/><line class="cls-4" x1="274.1" y1="132.88" x2="283.31" y2="132.88"/><line class="cls-4" x1="274.1" y1="114.97" x2="283.31" y2="114.97"/><polygon points="265.04 139.04 265.04 133.7 269.72 126.32 266.76 126.32 263.82 131.35 260.83 126.32 257.82 126.32 262.48 133.69 262.48 139.04 265.04 139.04"/><path class="cls-10" d="M291.55,168.87l1.72-4.72,1.75,4.72Zm3.11-7.69H292l-5,12.72h2.72l1.05-2.88h5.09L297,173.9h2.79Z"/><path class="cls-9" d="M270.4,221.23a6.06,6.06,0,1,1-6.06-6.06,6.06,6.06,0,0,1,6.06,6.06"/><path class="cls-9" d="M270.4,203.35a6.06,6.06,0,1,1-6.06-6.06,6.06,6.06,0,0,1,6.06,6.06"/><path class="cls-9" d="M299,203.35a6.06,6.06,0,1,1-6.06-6.06,6.06,6.06,0,0,1,6.06,6.06"/><polygon class="cls-10" points="265.04 120.51 265.04 115.18 269.72 107.79 266.76 107.79 263.82 112.83 260.83 107.79 257.82 107.79 262.48 115.16 262.48 120.51 265.04 120.51"/><path class="cls-9" d="M265.25,98.55a6.06,6.06,0,1,1-6.06-6.06,6.07,6.07,0,0,1,6.06,6.06"/><path class="cls-12" d="M265.25,98.55a6.06,6.06,0,1,1-6.06-6.06A6.07,6.07,0,0,1,265.25,98.55Z"/><path class="cls-9" d="M260.09,83.13v1.61a5.58,5.58,0,0,1-1.39.77,4.43,4.43,0,0,1-1.62.31,3.34,3.34,0,0,1-2.64-1.13,5,5,0,0,1-1-3.4,4.5,4.5,0,0,1,1-3.16,3.48,3.48,0,0,1,2.68-1.07,3.07,3.07,0,0,1,1.85.54,2.73,2.73,0,0,1,1,1.48l2.55-.47a4.45,4.45,0,0,0-1.71-2.75,6.09,6.09,0,0,0-3.7-1,6.63,6.63,0,0,0-3.05.63,5.64,5.64,0,0,0-2.44,2.37,7.36,7.36,0,0,0-.83,3.53,7.72,7.72,0,0,0,.75,3.39,5.27,5.27,0,0,0,2.23,2.39,7,7,0,0,0,3.48.84,8.45,8.45,0,0,0,3.1-.6,6.91,6.91,0,0,0,2.34-1.37V81h-5.54v2.15Z"/><path class="cls-9" d="M273.37,71v1.62a5.46,5.46,0,0,1-1.4.76,4.24,4.24,0,0,1-1.61.32,3.37,3.37,0,0,1-2.64-1.13,5,5,0,0,1-1-3.4,4.48,4.48,0,0,1,1-3.17,3.5,3.5,0,0,1,2.67-1.06,3,3,0,0,1,1.85.54,2.65,2.65,0,0,1,1,1.48l2.55-.48a4.43,4.43,0,0,0-1.71-2.74,6,6,0,0,0-3.7-1,6.45,6.45,0,0,0-3,.64,5.54,5.54,0,0,0-2.44,2.37,7.25,7.25,0,0,0-.83,3.53,7.71,7.71,0,0,0,.74,3.39A5.37,5.37,0,0,0,267,75a7,7,0,0,0,3.48.84,8.42,8.42,0,0,0,3.1-.6A6.91,6.91,0,0,0,276,73.88V68.81h-5.54V71Z"/><path class="cls-9" d="M289.41,71v1.62a5.56,5.56,0,0,1-1.39.76,4.25,4.25,0,0,1-1.62.32,3.37,3.37,0,0,1-2.64-1.13,5,5,0,0,1-1-3.4,4.53,4.53,0,0,1,1-3.17,3.51,3.51,0,0,1,2.68-1.06,3.07,3.07,0,0,1,1.85.54,2.7,2.7,0,0,1,1,1.48l2.55-.48a4.43,4.43,0,0,0-1.71-2.74,6,6,0,0,0-3.7-1,6.5,6.5,0,0,0-3.05.64,5.64,5.64,0,0,0-2.44,2.37,7.36,7.36,0,0,0-.83,3.53,7.72,7.72,0,0,0,.75,3.39A5.32,5.32,0,0,0,283.09,75a7,7,0,0,0,3.48.84,8.45,8.45,0,0,0,3.1-.6A6.91,6.91,0,0,0,292,73.88V68.81h-5.54V71Z"/><line class="cls-4" x1="273.72" y1="167.52" x2="282.93" y2="167.52"/><path d="M299,221.26A6.06,6.06,0,1,1,293,215.2a6.06,6.06,0,0,1,6.06,6.06"/><path class="cls-9" d="M83.06,232.1v1.62a5.46,5.46,0,0,1-1.4.76,4.24,4.24,0,0,1-1.61.32,3.37,3.37,0,0,1-2.64-1.13,5,5,0,0,1-1-3.4,4.48,4.48,0,0,1,1-3.17A3.47,3.47,0,0,1,80.07,226a3.1,3.1,0,0,1,1.86.54,2.63,2.63,0,0,1,1,1.48l2.56-.48a4.48,4.48,0,0,0-1.72-2.74,6,6,0,0,0-3.7-1,6.45,6.45,0,0,0-3,.64,5.57,5.57,0,0,0-2.44,2.36,7.32,7.32,0,0,0-.83,3.54,7.64,7.64,0,0,0,.74,3.38,5.35,5.35,0,0,0,2.23,2.4,7,7,0,0,0,3.48.84,8.42,8.42,0,0,0,3.1-.6A6.91,6.91,0,0,0,85.65,235V230H80.12v2.14Z"/><path class="cls-13" d="M164.08,183.44a6.06,6.06,0,1,1-6.06-6.06A6.06,6.06,0,0,1,164.08,183.44Z"/><path class="cls-14" d="M153.24,166.36a15.3,15.3,0,0,0,.25,3.23,3.39,3.39,0,0,0,.72,1.41,3.88,3.88,0,0,0,1.49,1.09,7,7,0,0,0,2.76.42,6.49,6.49,0,0,0,2.45-.38,3.83,3.83,0,0,0,1.49-1,3.48,3.48,0,0,0,.77-1.59,17.12,17.12,0,0,0,.21-3.24v-6.68h-2.57v7a15.08,15.08,0,0,1-.11,2.16,1.78,1.78,0,0,1-.67,1.1,2.58,2.58,0,0,1-1.65.45,2.76,2.76,0,0,1-1.69-.47,2.07,2.07,0,0,1-.79-1.26,15,15,0,0,1-.09-2.12v-6.89h-2.57Z"/><path class="cls-11" d="M118.25,113.66a6.06,6.06,0,1,1-6.06-6.06,6.06,6.06,0,0,1,6.06,6.06"/><path class="cls-13" d="M118.25,113a6.06,6.06,0,1,1-6.06-6.06A6.06,6.06,0,0,1,118.25,113Z"/><path class="cls-11" d="M147.25,113.66a6.06,6.06,0,1,1-6.06-6.06,6.06,6.06,0,0,1,6.06,6.06"/><path class="cls-13" d="M147.25,113.66a6.06,6.06,0,1,1-6.06-6.06A6.06,6.06,0,0,1,147.25,113.66Z"/><path class="cls-14" d="M199,231.15a6.06,6.06,0,1,1-6.06-6.06,6.06,6.06,0,0,1,6.06,6.06"/><path class="cls-13" d="M199,231.15a6.06,6.06,0,1,1-6.06-6.06A6.06,6.06,0,0,1,199,231.15Z"/><path class="cls-14" d="M216.9,231.15a6.06,6.06,0,1,1-6.06-6.06,6.06,6.06,0,0,1,6.06,6.06"/><path class="cls-13" d="M216.9,231.15a6.06,6.06,0,1,1-6.06-6.06A6.06,6.06,0,0,1,216.9,231.15Z"/><path d="M234.81,231.15a6.06,6.06,0,1,1-6.06-6.06,6.06,6.06,0,0,1,6.06,6.06"/><path class="cls-13" d="M234.81,231.15a6.06,6.06,0,1,1-6.06-6.06A6.06,6.06,0,0,1,234.81,231.15Z"/><path class="cls-10" d="M252.72,231.15a6.06,6.06,0,1,1-6.06-6.06,6.06,6.06,0,0,1,6.06,6.06"/><path class="cls-13" d="M252.72,231.15a6.06,6.06,0,1,1-6.06-6.06A6.06,6.06,0,0,1,252.72,231.15Z"/><path class="cls-13" d="M299,220.94a6.06,6.06,0,1,1-6.06-6.06A6.06,6.06,0,0,1,299,220.94Z"/><path class="cls-13" d="M299,203.35a6.06,6.06,0,1,1-6.06-6.06A6.06,6.06,0,0,1,299,203.35Z"/><path class="cls-13" d="M270.4,221.26a6.06,6.06,0,1,1-6.06-6.06A6.06,6.06,0,0,1,270.4,221.26Z"/><path class="cls-13" d="M270.4,203.35a6.06,6.06,0,1,1-6.06-6.06A6.06,6.06,0,0,1,270.4,203.35Z"/><polygon class="cls-10" points="265.47 191.82 265.47 186.48 270.14 179.1 267.19 179.1 264.25 184.13 261.26 179.1 258.25 179.1 262.91 186.46 262.91 191.82 265.47 191.82"/><path class="cls-10" d="M290.86,181.25h2c1,0,1.67,0,1.88,0a1.62,1.62,0,0,1,1,.5,1.57,1.57,0,0,1,.34,1,1.66,1.66,0,0,1-.26.95,1.39,1.39,0,0,1-.72.54,9.45,9.45,0,0,1-2.31.16h-1.9Zm0,10.57v-5.31h.52a4.41,4.41,0,0,1,1.29.14,2,2,0,0,1,.77.53,16.92,16.92,0,0,1,1.36,1.87l1.86,2.77h3.07l-1.56-2.48a14.61,14.61,0,0,0-1.46-2.07,6.15,6.15,0,0,0-1.37-1.07,4,4,0,0,0,2.51-1.17,3.4,3.4,0,0,0,.84-2.37,3.64,3.64,0,0,0-.55-2,2.94,2.94,0,0,0-1.48-1.22,9.26,9.26,0,0,0-3-.34h-5.41v12.72Z"/><path class="cls-10" d="M258.57,168a15.17,15.17,0,0,0,.26,3.23,3.39,3.39,0,0,0,.72,1.41A3.92,3.92,0,0,0,261,173.7a7.08,7.08,0,0,0,2.77.42,6.44,6.44,0,0,0,2.44-.38,3.8,3.8,0,0,0,1.5-1,3.64,3.64,0,0,0,.77-1.59,17.12,17.12,0,0,0,.21-3.24v-6.68h-2.57v7a15.08,15.08,0,0,1-.11,2.16,1.78,1.78,0,0,1-.67,1.1,2.58,2.58,0,0,1-1.65.45,2.79,2.79,0,0,1-1.7-.47,2.1,2.1,0,0,1-.78-1.26,13.13,13.13,0,0,1-.1-2.12v-6.89h-2.57Z"/><polygon class="cls-10" points="265.04 157.17 265.04 151.83 269.72 144.45 266.76 144.45 263.83 149.48 260.83 144.45 257.82 144.45 262.48 151.81 262.48 157.17 265.04 157.17"/><path class="cls-10" d="M290.86,146.6h2c1,0,1.67,0,1.88.05a1.56,1.56,0,0,1,1,.49,1.59,1.59,0,0,1,.34,1,1.66,1.66,0,0,1-.26.95,1.39,1.39,0,0,1-.72.54,9.45,9.45,0,0,1-2.31.16h-1.9Zm0,10.57v-5.31h.52a4.41,4.41,0,0,1,1.29.14,2.09,2.09,0,0,1,.77.53,16.92,16.92,0,0,1,1.36,1.87l1.86,2.77h3.07l-1.56-2.48a14.61,14.61,0,0,0-1.46-2.07,6.12,6.12,0,0,0-1.37-1.06,4.09,4.09,0,0,0,2.51-1.18,3.4,3.4,0,0,0,.84-2.37,3.67,3.67,0,0,0-.55-2,2.94,2.94,0,0,0-1.48-1.22,9.26,9.26,0,0,0-3-.34h-5.41v12.72Z"/><path d="M290.86,128.69h2c1,0,1.67,0,1.88,0a1.62,1.62,0,0,1,1,.5,1.59,1.59,0,0,1,.34,1,1.66,1.66,0,0,1-.26.95,1.39,1.39,0,0,1-.72.54,9.45,9.45,0,0,1-2.31.16h-1.9Zm0,10.57V134h.52a4.41,4.41,0,0,1,1.29.14,2,2,0,0,1,.77.53,16.92,16.92,0,0,1,1.36,1.87l1.86,2.77h3.07l-1.56-2.48a14.61,14.61,0,0,0-1.46-2.07,5.85,5.85,0,0,0-1.37-1.06,4.09,4.09,0,0,0,2.51-1.18,3.4,3.4,0,0,0,.84-2.37,3.64,3.64,0,0,0-.55-2,2.94,2.94,0,0,0-1.48-1.22,9.26,9.26,0,0,0-3-.34h-5.41v12.72Z"/><path class="cls-10" d="M297.14,115.84v1.61a5.58,5.58,0,0,1-1.39.77,4.43,4.43,0,0,1-1.62.31,3.34,3.34,0,0,1-2.64-1.13,5,5,0,0,1-1-3.39,4.51,4.51,0,0,1,1-3.17,3.48,3.48,0,0,1,2.68-1.07,3.07,3.07,0,0,1,1.85.54,2.73,2.73,0,0,1,1,1.48l2.55-.47a4.49,4.49,0,0,0-1.71-2.75,6.11,6.11,0,0,0-3.7-1,6.63,6.63,0,0,0-3.05.63,5.64,5.64,0,0,0-2.44,2.37,7.36,7.36,0,0,0-.83,3.53,7.72,7.72,0,0,0,.75,3.39,5.27,5.27,0,0,0,2.23,2.39,6.89,6.89,0,0,0,3.47.84,8.47,8.47,0,0,0,3.11-.6,6.91,6.91,0,0,0,2.34-1.37v-5.07H294.2v2.15Z"/><path class="cls-10" d="M295.3,81.87a15.9,15.9,0,0,0,.25,3.22,3.57,3.57,0,0,0,.72,1.41,4,4,0,0,0,1.49,1.1,7.08,7.08,0,0,0,2.77.42,6.42,6.42,0,0,0,2.44-.39,3.8,3.8,0,0,0,1.5-1,3.59,3.59,0,0,0,.77-1.59,17.28,17.28,0,0,0,.2-3.24V75.08h-2.56v7a13.56,13.56,0,0,1-.12,2.16,1.71,1.71,0,0,1-.66,1.09,2.58,2.58,0,0,1-1.65.45,2.77,2.77,0,0,1-1.7-.47A2,2,0,0,1,298,84.1a13.37,13.37,0,0,1-.1-2.13V75.08H295.3Z"/></g><text class="cls-15" transform="translate(135.45 31.02)">DUF1646 motif</text><text class="cls-15" transform="translate(70.5 191.56)">P1</text><text class="cls-15" transform="translate(222.85 191.56)">P2</text><text class="cls-15" transform="translate(56.54 233.67)">5<tspan class="cls-16" x="11.12" y="0">’</tspan></text><path class="cls-17" d="M52.9,364.05a3.44,3.44,0,0,0,.9-.1,3,3,0,0,0,1.7-.8,4.51,4.51,0,0,0,1.1-2.3h0a2.38,2.38,0,0,1-2,.9,2.45,2.45,0,0,1-2.4-2.7A2.93,2.93,0,0,1,55,356c1.7,0,2.7,1.4,2.7,3.7a5.74,5.74,0,0,1-1.4,4.1,4.24,4.24,0,0,1-2.4,1.2,4.14,4.14,0,0,1-1,.1v-1Zm2-7.2c-.9,0-1.6.9-1.6,2.1a1.58,1.58,0,0,0,1.6,1.8,1.77,1.77,0,0,0,1.6-.9c.1-.1.1-.2.1-.4,0-1.4-.5-2.6-1.7-2.6Z"/><path class="cls-17" d="M61.4,365c-1.6,0-2.7-1.6-2.8-4.5s1.2-4.5,2.9-4.5,2.7,1.6,2.7,4.4c.1,3-1,4.6-2.8,4.6Zm.1-.9c1.1,0,1.7-1.4,1.7-3.6s-.5-3.5-1.7-3.5c-1,0-1.7,1.4-1.7,3.5-.1,2.3.6,3.6,1.7,3.6Z"/><path class="cls-17" d="M67.1,356.05c1.1,0,1.9.9,1.9,2.6s-.9,2.7-2,2.7-1.9-.9-1.9-2.6.9-2.7,2-2.7Zm0,.7c-.7,0-1.1.9-1.1,2s.4,2,1.1,2,1.1-.8,1.1-2-.3-2-1.1-2Zm-.1,8.3,4.9-9h.7l-4.9,9Zm5.5-5.5c1.1,0,1.9.9,1.9,2.6s-.9,2.7-2,2.7-1.9-.9-1.9-2.6.9-2.6,2-2.7Zm0,.8c-.7,0-1.1.9-1.1,2s.4,2,1.1,2,1.1-.8,1.1-2-.3-2-1.1-2Z"/><path class="cls-18" d="M47.9,361a3.7,3.7,0,0,1-7.4,0,3.76,3.76,0,0,1,3.7-3.7,3.57,3.57,0,0,1,3.7,3.7"/><circle class="cls-13" cx="44.2" cy="360.95" r="3.7"/><path class="cls-17" d="M52.9,350.75a3.44,3.44,0,0,0,.9-.1,3,3,0,0,0,1.7-.8,4.51,4.51,0,0,0,1.1-2.3h0a2.38,2.38,0,0,1-2,.9,2.45,2.45,0,0,1-2.4-2.7,2.93,2.93,0,0,1,2.8-3.1c1.7,0,2.7,1.4,2.7,3.7a5.74,5.74,0,0,1-1.4,4.1,4.24,4.24,0,0,1-2.4,1.2,4.14,4.14,0,0,1-1,.1v-1Zm2-7.1c-.9,0-1.6.9-1.6,2.1a1.58,1.58,0,0,0,1.6,1.8,1.77,1.77,0,0,0,1.6-.9c.1-.1.1-.2.1-.4,0-1.5-.5-2.6-1.7-2.6Z"/><path class="cls-17" d="M64.1,343v.8l-3.6,7.9H59.4L63,344H58.9v-1Z"/><path class="cls-17" d="M67.1,342.75c1.1,0,1.9.9,1.9,2.6s-.9,2.7-2,2.7-1.9-.9-1.9-2.6.9-2.7,2-2.7Zm0,.7c-.7,0-1.1.9-1.1,2s.4,2,1.1,2,1.1-.8,1.1-2-.3-2-1.1-2Zm-.1,8.3,4.9-9h.7l-4.9,9Zm5.5-5.4c1.1,0,1.9.9,1.9,2.6s-.9,2.7-2,2.7-1.9-.9-1.9-2.6.9-2.7,2-2.7Zm0,.7c-.7,0-1.1.9-1.1,2s.4,2,1.1,2,1.1-.8,1.1-2-.3-2-1.1-2Z"/><path class="cls-19" d="M47.9,347.65a3.7,3.7,0,1,1-3.7-3.7,3.69,3.69,0,0,1,3.7,3.7"/><circle class="cls-13" cx="44.2" cy="347.65" r="3.7"/><path class="cls-17" d="M102.8,343v.8l-3.6,7.9H98.1l3.6-7.7H97.6v-1Z"/><path class="cls-17" d="M108.9,343.85h-3.2l-.3,2.2c.2,0,.4-.1.7-.1a2.73,2.73,0,0,1,1.8.5,2.43,2.43,0,0,1,1.2,2.3,3,3,0,0,1-3.1,3,5,5,0,0,1-2.1-.5l.3-.9a3.52,3.52,0,0,0,1.8.5,1.92,1.92,0,0,0,2-1.9c0-1.2-.7-1.9-2.4-1.9a4.12,4.12,0,0,0-1.2.1l.5-4.1h4v.8Z"/><path class="cls-17" d="M112.3,342.75c1.1,0,1.9.9,1.9,2.6s-.9,2.7-2,2.7-1.9-.9-1.9-2.6.9-2.7,2-2.7Zm-.1.7c-.7,0-1.1.9-1.1,2s.4,2,1.1,2,1.1-.8,1.1-2-.3-2-1.1-2Zm-.1,8.3,4.9-9h.7l-4.9,9Zm5.6-5.4c1.1,0,1.9.9,1.9,2.6s-.9,2.7-2,2.7-1.9-.9-1.9-2.6.9-2.7,2-2.7Zm-.1.7c-.7,0-1.1.9-1.1,2s.4,2,1.1,2,1.1-.8,1.1-2-.3-2-1.1-2Z"/><path class="cls-20" d="M93.1,347.65a3.69,3.69,0,0,1-3.7,3.7,3.7,3.7,0,1,1,3.7-3.7"/><circle class="cls-13" cx="89.4" cy="347.65" r="3.7"/><path class="cls-17" d="M102.3,357.15H99.1l-.3,2.2c.2,0,.4-.1.7-.1a2.73,2.73,0,0,1,1.8.5,2.43,2.43,0,0,1,1.2,2.3,3,3,0,0,1-3.1,3,5,5,0,0,1-2.1-.5l.3-.9a3.52,3.52,0,0,0,1.8.5,1.92,1.92,0,0,0,2-1.9c0-1.2-.7-1.9-2.4-1.9a4.12,4.12,0,0,0-1.2.1l.5-4.1h4v.8Z"/><path class="cls-17" d="M106.6,365c-1.6,0-2.7-1.6-2.8-4.5s1.2-4.5,2.9-4.5,2.7,1.6,2.7,4.4c0,3-1,4.6-2.8,4.6Zm0-.9c1.1,0,1.7-1.4,1.7-3.6s-.5-3.5-1.7-3.5c-1,0-1.7,1.4-1.7,3.5,0,2.3.7,3.6,1.7,3.6Z"/><path class="cls-17" d="M112.3,356c1.1,0,1.9.9,1.9,2.6s-.9,2.7-2,2.7-1.9-.9-1.9-2.6.9-2.7,2-2.7Zm-.1.8c-.7,0-1.1.9-1.1,2s.4,2,1.1,2,1.1-.8,1.1-2-.3-2-1.1-2Zm-.1,8.3,4.9-9h.7l-4.9,9Zm5.6-5.5c1.1,0,1.9.9,1.9,2.6s-.9,2.7-2,2.7-1.9-.9-1.9-2.6.9-2.7,2-2.7Zm-.1.8c-.7,0-1.1.9-1.1,2s.4,2,1.1,2,1.1-.8,1.1-2-.3-2-1.1-2Z"/><path class="cls-17" d="M44.2,320.75a10.28,10.28,0,0,0-.1-1.8h1l.1,1.1h0a2.22,2.22,0,0,1,2-1.2c.9,0,2.2.5,2.2,2.8v3.9H48.3v-3.7c0-1-.4-1.9-1.4-1.9a1.59,1.59,0,0,0-1.5,1.2c-.1.1-.1.4-.1.5v3.9H44.2Z"/><path class="cls-17" d="M56.4,323.75a9.72,9.72,0,0,0,.1,1.8h-1l-.1-1.1h0a2.28,2.28,0,0,1-2,1.2c-1,0-2.1-.6-2.1-2.8v-3.8h1.1v3.6c0,1.2.4,2.1,1.4,2.1a1.53,1.53,0,0,0,1.5-1.1,1.27,1.27,0,0,0,.1-.6v-4h1.1l-.1,4.7Z"/><path class="cls-17" d="M62.7,325.25a4.76,4.76,0,0,1-1.8.4,3,3,0,0,1-3.1-3.3,3.26,3.26,0,0,1,3.3-3.5,5,5,0,0,1,1.6.3l-.3.9a3.55,3.55,0,0,0-1.3-.3,2.24,2.24,0,0,0-2.2,2.5,2.14,2.14,0,0,0,2.1,2.4,4.2,4.2,0,0,0,1.4-.3Z"/><path class="cls-17" d="M64,316h1.1v9.5H64Z"/><path class="cls-17" d="M67.6,322.45a2,2,0,0,0,2.1,2.2,3.69,3.69,0,0,0,1.7-.3l.2.8a4.81,4.81,0,0,1-2.1.4c-1.9,0-3-1.3-3-3.3s1.1-3.5,2.9-3.5c2,0,2.5,1.9,2.5,3v.6Zm3.3-.9c0-.7-.3-1.9-1.5-1.9s-1.6,1.1-1.7,1.9Z"/><path class="cls-17" d="M75.9,325.65a3,3,0,0,1-3-3.3A3.08,3.08,0,0,1,76,319a3,3,0,0,1,3,3.3,3.13,3.13,0,0,1-3.1,3.4Zm0-.9c1.1,0,1.9-1.1,1.9-2.5,0-1.1-.5-2.5-1.8-2.5s-1.9,1.3-1.9,2.5c0,1.4.7,2.5,1.8,2.5Z"/><path class="cls-17" d="M81.7,317.45v1.6h1.6v.9H81.7v3.5c0,.8.2,1.3.8,1.3a1.48,1.48,0,0,0,.7-.1l.1.9a2.51,2.51,0,0,1-1,.2,1.66,1.66,0,0,1-1.2-.5,2.67,2.67,0,0,1-.4-1.7v-3.5h-1v-.9h1V318Z"/><path class="cls-17" d="M85.1,317.85a.71.71,0,0,1-.7-.8.63.63,0,0,1,.7-.7.68.68,0,0,1,.7.7.71.71,0,0,1-.7.8Zm-.5,7.6V319h1.1v6.5Z"/><path class="cls-17" d="M92.9,316v7.8a9.15,9.15,0,0,0,.1,1.7H92l-.1-1.1h0a2.28,2.28,0,0,1-2.1,1.3c-1.5,0-2.7-1.3-2.7-3.3,0-2.2,1.3-3.5,2.8-3.5a2.11,2.11,0,0,1,1.9,1h0V316Zm-1.1,5.7a.9.9,0,0,0-.1-.5,1.81,1.81,0,0,0-1.6-1.4c-1.2,0-1.8,1.1-1.8,2.5s.6,2.4,1.8,2.4a1.6,1.6,0,0,0,1.6-1.4c0-.2.1-.3.1-.5Z"/><path class="cls-17" d="M95.4,322.45a2,2,0,0,0,2.1,2.2,3.69,3.69,0,0,0,1.7-.3l.2.8a4.81,4.81,0,0,1-2.1.4c-1.9,0-3-1.3-3-3.3s1.1-3.5,2.9-3.5c2,0,2.5,1.9,2.5,3v.6Zm3.3-.9c0-.7-.3-1.9-1.5-1.9s-1.6,1.1-1.7,1.9Z"/><path class="cls-17" d="M52.2,333.85a13.42,13.42,0,0,0-.1-2.1h1l.1,1.1h0a2.37,2.37,0,0,1,2.2-1.3c1.5,0,2.6,1.3,2.6,3.3,0,2.3-1.4,3.5-2.8,3.5a2.28,2.28,0,0,1-1.9-1h0v3.5H52.2Zm1.2,1.7a.9.9,0,0,0,.1.5,1.81,1.81,0,0,0,1.7,1.4c1.2,0,1.9-1,1.9-2.5,0-1.3-.6-2.4-1.8-2.4a1.81,1.81,0,0,0-1.7,1.4c0,.2-.1.3-.1.5C53.4,334.45,53.4,335.55,53.4,335.55Z"/><path class="cls-17" d="M59.5,333.75a12.12,12.12,0,0,0-.1-2h1l.1,1.3h0a1.87,1.87,0,0,1,1.7-1.4h.3v1.1h-.4a1.54,1.54,0,0,0-1.5,1.5v4.1H59.5Z"/><path class="cls-17" d="M64.2,335.15a2,2,0,0,0,2.1,2.2,3.69,3.69,0,0,0,1.7-.3l.2.8a4.81,4.81,0,0,1-2.1.4c-1.9,0-3-1.3-3-3.3s1.1-3.5,2.9-3.5c2,0,2.5,1.9,2.5,3.1v.6Zm3.3-.8c0-.7-.3-1.9-1.5-1.9s-1.6,1.1-1.7,1.9Z"/><path class="cls-17" d="M69.8,337a3,3,0,0,0,1.5.5c.8,0,1.2-.4,1.2-1s-.3-.9-1.1-1.2c-1.1-.4-1.6-1.1-1.6-1.8a2,2,0,0,1,2.1-1.9,3,3,0,0,1,1.5.4l-.3.8a2.83,2.83,0,0,0-1.3-.4.87.87,0,0,0-1,.9c0,.5.4.8,1.2,1.1a2,2,0,0,1,1.6,2,2,2,0,0,1-2.3,2,2.86,2.86,0,0,1-1.7-.5Z"/><path class="cls-17" d="M75.7,335.15a2,2,0,0,0,2.1,2.2,3.69,3.69,0,0,0,1.7-.3l.2.8a4.81,4.81,0,0,1-2.1.4c-1.9,0-3-1.3-3-3.3s1.1-3.5,2.9-3.5c2,0,2.5,1.9,2.5,3.1v.6Zm3.3-.8c0-.7-.3-1.9-1.5-1.9s-1.6,1.1-1.7,1.9Z"/><path class="cls-17" d="M81.4,333.45a10.28,10.28,0,0,0-.1-1.8h1l.1,1.1h0a2.22,2.22,0,0,1,2-1.2c.9,0,2.2.5,2.2,2.8v3.9H85.5v-3.7c0-1-.4-1.9-1.4-1.9a1.59,1.59,0,0,0-1.5,1.2c-.1.1-.1.4-.1.5v3.9H81.4v-4.8Z"/><path class="cls-17" d="M89.8,330.15v1.6h1.6v.9H89.8v3.5c0,.8.2,1.3.8,1.3a1.48,1.48,0,0,0,.7-.1l.1.9a2.51,2.51,0,0,1-1,.2,1.66,1.66,0,0,1-1.2-.5,2.67,2.67,0,0,1-.4-1.7v-3.5h-1v-.9h1v-1.2Z"/><path class="cls-17" d="M132.4,320.75a10.28,10.28,0,0,0-.1-1.8h1l.1,1.1h0a2.22,2.22,0,0,1,2-1.2c.9,0,2.2.5,2.2,2.8v3.9h-1.1v-3.7c0-1-.4-1.9-1.4-1.9a1.59,1.59,0,0,0-1.5,1.2c-.1.1-.1.4-.1.5v3.9h-1.1v-4.8Z"/><path class="cls-17" d="M144.7,323.75a9.72,9.72,0,0,0,.1,1.8h-1l-.1-1.1h0a2.28,2.28,0,0,1-2,1.2c-1,0-2.1-.6-2.1-2.8v-3.8h1.1v3.6c0,1.2.4,2.1,1.4,2.1a1.53,1.53,0,0,0,1.5-1.1,1.27,1.27,0,0,0,.1-.6v-4h1.1l-.1,4.7Z"/><path class="cls-17" d="M150.9,325.25a4.76,4.76,0,0,1-1.8.4,3,3,0,0,1-3.1-3.3,3.26,3.26,0,0,1,3.3-3.5,5,5,0,0,1,1.6.3l-.3.9a3.55,3.55,0,0,0-1.3-.3,2.24,2.24,0,0,0-2.2,2.5,2.14,2.14,0,0,0,2.1,2.4,4.2,4.2,0,0,0,1.4-.3Z"/><path class="cls-17" d="M152.2,316h1.1v9.5h-1.1Z"/><path class="cls-17" d="M155.9,322.45a2,2,0,0,0,2.1,2.2,3.69,3.69,0,0,0,1.7-.3l.2.8a4.81,4.81,0,0,1-2.1.4c-1.9,0-3-1.3-3-3.3s1.1-3.5,2.9-3.5c2,0,2.5,1.9,2.5,3v.6Zm3.2-.9c0-.7-.3-1.9-1.5-1.9s-1.6,1.1-1.7,1.9Z"/><path class="cls-17" d="M164.1,325.65a3,3,0,0,1-3-3.3,3.08,3.08,0,0,1,3.1-3.4,3,3,0,0,1,3,3.3,3.13,3.13,0,0,1-3.1,3.4Zm.1-.9c1.1,0,1.9-1.1,1.9-2.5,0-1.1-.5-2.5-1.8-2.5s-1.9,1.3-1.9,2.5c-.1,1.4.7,2.5,1.8,2.5Z"/><path class="cls-17" d="M170,317.45v1.6h1.6v.9H170v3.5c0,.8.2,1.3.8,1.3a1.48,1.48,0,0,0,.7-.1l.1.9a2.51,2.51,0,0,1-1,.2,1.66,1.66,0,0,1-1.2-.5,2.67,2.67,0,0,1-.4-1.7v-3.5h-1v-.9h1V318Z"/><path class="cls-17" d="M173.4,317.85a.71.71,0,0,1-.7-.8.63.63,0,0,1,.7-.7.68.68,0,0,1,.7.7.77.77,0,0,1-.7.8Zm-.6,7.6V319h1.1v6.5Z"/><path class="cls-17" d="M181.1,316v7.8a9.15,9.15,0,0,0,.1,1.7h-1l-.1-1.1h0a2.28,2.28,0,0,1-2.1,1.3c-1.5,0-2.7-1.3-2.7-3.3,0-2.2,1.3-3.5,2.8-3.5a2.11,2.11,0,0,1,1.9,1h0V316Zm-1.1,5.7a.9.9,0,0,0-.1-.5,1.81,1.81,0,0,0-1.6-1.4c-1.2,0-1.8,1.1-1.8,2.5s.6,2.4,1.8,2.4a1.6,1.6,0,0,0,1.6-1.4c0-.2.1-.3.1-.5Z"/><path class="cls-17" d="M183.6,322.45a2,2,0,0,0,2.1,2.2,3.69,3.69,0,0,0,1.7-.3l.2.8a4.81,4.81,0,0,1-2.1.4c-1.9,0-3-1.3-3-3.3s1.1-3.5,2.9-3.5c2,0,2.5,1.9,2.5,3v.6Zm3.3-.9c0-.7-.3-1.9-1.5-1.9s-1.6,1.1-1.7,1.9Z"/><path class="cls-17" d="M141,330.55a.71.71,0,0,1-.7-.8.7.7,0,0,1,1.4,0,.77.77,0,0,1-.7.8Zm-.5,7.6v-6.5h1.1v6.5Z"/><path class="cls-17" d="M148.8,328.65v7.8a9.15,9.15,0,0,0,.1,1.7h-1l-.1-1.1h0a2.28,2.28,0,0,1-2.1,1.3c-1.5,0-2.7-1.3-2.7-3.3,0-2.2,1.3-3.5,2.8-3.5a2.11,2.11,0,0,1,1.9,1h0v-3.9Zm-1.2,5.7a.9.9,0,0,0-.1-.5,1.81,1.81,0,0,0-1.6-1.4c-1.2,0-1.8,1.1-1.8,2.5s.6,2.4,1.8,2.4a1.6,1.6,0,0,0,1.6-1.4c0-.2.1-.3.1-.5Z"/><path class="cls-17" d="M151.3,335.15a2,2,0,0,0,2.1,2.2,3.69,3.69,0,0,0,1.7-.3l.2.8a4.81,4.81,0,0,1-2.1.4c-1.9,0-3-1.3-3-3.3s1.1-3.5,2.9-3.5c2,0,2.5,1.9,2.5,3.1v.6Zm3.2-.8c0-.7-.3-1.9-1.5-1.9s-1.6,1.1-1.7,1.9Z"/><path class="cls-17" d="M157,333.45a10.28,10.28,0,0,0-.1-1.8h1l.1,1.1h0a2.22,2.22,0,0,1,2-1.2c.9,0,2.2.5,2.2,2.8v3.9h-1.1v-3.7c0-1-.4-1.9-1.4-1.9a1.59,1.59,0,0,0-1.5,1.2c-.1.1-.1.4-.1.5v3.9H157v-4.8Z"/><path class="cls-17" d="M165.4,330.15v1.6H167v.9h-1.6v3.5c0,.8.2,1.3.8,1.3a1.48,1.48,0,0,0,.7-.1l.1.9a2.51,2.51,0,0,1-1,.2,1.66,1.66,0,0,1-1.2-.5,2.67,2.67,0,0,1-.4-1.7v-3.5h-1v-.9h1v-1.2Z"/><path class="cls-17" d="M168.8,330.55a.71.71,0,0,1-.7-.8.7.7,0,1,1,1.4,0,.66.66,0,0,1-.7.8Zm-.5,7.6v-6.5h1.1v6.5Z"/><path class="cls-17" d="M172.6,330.15v1.6h1.6v.9h-1.6v3.5c0,.8.2,1.3.8,1.3a1.48,1.48,0,0,0,.7-.1l.1.9a2.51,2.51,0,0,1-1,.2,1.66,1.66,0,0,1-1.2-.5,2.67,2.67,0,0,1-.4-1.7v-3.5h-1v-.9h1v-1.2Z"/><path class="cls-17" d="M176,331.75l1.3,3.8a6.47,6.47,0,0,1,.4,1.3h0a10.26,10.26,0,0,1,.4-1.4l1.2-3.8h1.2l-1.7,4.6a11.41,11.41,0,0,1-2.1,4.1,4.21,4.21,0,0,1-1.4.8l-.3-1a2.66,2.66,0,0,0,1-.6,3.32,3.32,0,0,0,.9-1.3.5.5,0,0,0,0-.6l-2.3-6,1.4.1Z"/><path class="cls-17" d="M171.9,373.75v.8l-3.6,7.9h-1.1l3.6-7.7h-4.1v-1Z"/><path class="cls-17" d="M178,374.75h-3.2l-.3,2.2c.2,0,.4-.1.7-.1a2.73,2.73,0,0,1,1.8.5,2.43,2.43,0,0,1,1.2,2.3,3,3,0,0,1-3.1,3,5,5,0,0,1-2.1-.5l.3-.9a3.52,3.52,0,0,0,1.8.5,1.92,1.92,0,0,0,2-1.9c0-1.2-.7-1.9-2.4-1.9a4.12,4.12,0,0,0-1.2.1l.5-4.1h4v.8Z"/><path class="cls-17" d="M181.4,373.55c1.1,0,1.9.9,1.9,2.6s-.9,2.7-2,2.7-1.9-.9-1.9-2.6.9-2.7,2-2.7Zm0,.7c-.7,0-1.1.9-1.1,2s.4,2,1.1,2,1.1-.8,1.1-2-.3-2-1.1-2Zm-.1,8.3,4.9-9h.7l-4.9,9Zm5.5-5.4c1.1,0,1.9.9,1.9,2.6s-.9,2.7-2,2.7-1.9-.9-1.9-2.6.9-2.7,2-2.7Zm0,.7c-.7,0-1.1.9-1.1,2s.4,2,1.1,2,1.1-.8,1.1-2-.3-2-1.1-2Z"/><path class="cls-21" d="M140.1,382.45v-9h1.2l2.7,4.6c.6,1.1,1.1,2,1.5,2.9h0c-.1-1.2-.1-2.3-.1-3.7v-3.8h1v9h-1.1l-2.7-4.6a21.86,21.86,0,0,1-1.6-3h0c.1,1.1.1,2.2.1,3.7v3.9Z"/><path class="cls-22" d="M140.1,355.35v-9h1.2L144,351c.6,1.1,1.1,2,1.5,2.9h0c-.1-1.2-.1-2.3-.1-3.7v-3.8h1v9h-1.1l-2.7-4.6a21.86,21.86,0,0,1-1.6-3h0c.1,1.1.1,2.2.1,3.7v3.9Z"/><path class="cls-17" d="M167.2,354.55a3.44,3.44,0,0,0,.9-.1,3,3,0,0,0,1.7-.8,4.51,4.51,0,0,0,1.1-2.3h0a2.38,2.38,0,0,1-2,.9,2.45,2.45,0,0,1-2.4-2.7,2.93,2.93,0,0,1,2.8-3.1c1.7,0,2.7,1.4,2.7,3.7a5.74,5.74,0,0,1-1.4,4.1,4.24,4.24,0,0,1-2.4,1.2,4.14,4.14,0,0,1-1,.1v-1Zm2-7.1c-.9,0-1.6.9-1.6,2.1a1.58,1.58,0,0,0,1.6,1.8,1.77,1.77,0,0,0,1.6-.9c.1-.1.1-.2.1-.4,0-1.5-.5-2.6-1.7-2.6Z"/><path class="cls-17" d="M178.4,346.65v.8l-3.6,7.9h-1.1l3.6-7.7h-4.1v-1Z"/><path class="cls-17" d="M181.4,346.55c1.1,0,1.9.9,1.9,2.6s-.9,2.7-2,2.7-1.9-.9-1.9-2.6.9-2.7,2-2.7Zm0,.7c-.7,0-1.1.9-1.1,2s.4,2,1.1,2,1.1-.8,1.1-2-.3-2-1.1-2Zm-.1,8.3,4.9-9h.7l-4.9,9Zm5.5-5.4c1.1,0,1.9.9,1.9,2.6s-.9,2.7-2,2.7-1.9-.9-1.9-2.6.9-2.7,2-2.7Zm0,.7c-.7,0-1.1.9-1.1,2s.4,2,1.1,2,1.1-.8,1.1-2-.3-2-1.1-2Z"/><path class="cls-17" d="M140.1,368.85v-9h1.2l2.7,4.6c.6,1.1,1.1,2,1.5,2.9h0c-.1-1.2-.1-2.3-.1-3.7v-3.8h1v9h-1.1l-2.7-4.6a21.86,21.86,0,0,1-1.6-3h0c.1,1.1.1,2.2.1,3.7v3.9Z"/><path class="cls-17" d="M167.2,368.05a3.44,3.44,0,0,0,.9-.1,3,3,0,0,0,1.7-.8,4.51,4.51,0,0,0,1.1-2.3h0a2.38,2.38,0,0,1-2,.9,2.45,2.45,0,0,1-2.4-2.7,2.93,2.93,0,0,1,2.8-3.1c1.7,0,2.7,1.4,2.7,3.7a5.74,5.74,0,0,1-1.4,4.1,4.24,4.24,0,0,1-2.4,1.2,4.14,4.14,0,0,1-1,.1v-1Zm2-7.1c-.9,0-1.6.9-1.6,2.1a1.58,1.58,0,0,0,1.6,1.8,1.77,1.77,0,0,0,1.6-.9c.1-.1.1-.2.1-.4,0-1.5-.5-2.6-1.7-2.6Z"/><path class="cls-17" d="M175.7,369.05c-1.6,0-2.7-1.6-2.8-4.5s1.2-4.5,2.9-4.5,2.7,1.6,2.7,4.4c.1,3-1,4.6-2.8,4.6Zm0-.9c1.1,0,1.7-1.4,1.7-3.6s-.5-3.5-1.7-3.5c-1,0-1.7,1.4-1.7,3.5s.7,3.6,1.7,3.6Z"/><path class="cls-17" d="M181.4,360.05c1.1,0,1.9.9,1.9,2.6s-.9,2.7-2,2.7-1.9-.9-1.9-2.6.9-2.7,2-2.7Zm0,.7c-.7,0-1.1.9-1.1,2s.4,2,1.1,2,1.1-.8,1.1-2-.3-2-1.1-2Zm-.1,8.3,4.9-9h.7l-4.9,9Zm5.5-5.4c1.1,0,1.9.9,1.9,2.6s-.9,2.7-2,2.7-1.9-.9-1.9-2.6.9-2.7,2-2.7Zm0,.7c-.7,0-1.1.9-1.1,2s.4,2,1.1,2,1.1-.8,1.1-2-.3-2-1.1-2Z"/><path class="cls-23" d="M69.5,275.35a4.76,4.76,0,0,1-1.8.4,3,3,0,0,1-3.1-3.3,3.26,3.26,0,0,1,3.3-3.5,5,5,0,0,1,1.6.3l-.3.9a3.55,3.55,0,0,0-1.3-.3,2.24,2.24,0,0,0-2.2,2.5,2.14,2.14,0,0,0,2.1,2.4,4.2,4.2,0,0,0,1.4-.3Z"/><path class="cls-23" d="M73.3,275.75a3,3,0,0,1-3-3.3,3.08,3.08,0,0,1,3.1-3.4,3,3,0,0,1,3,3.3,3.25,3.25,0,0,1-3.1,3.4Zm0-.9c1.1,0,1.9-1.1,1.9-2.5,0-1.1-.5-2.5-1.8-2.5s-1.9,1.3-1.9,2.5c-.1,1.4.7,2.5,1.8,2.5Z"/><path class="cls-23" d="M78.1,269.15l1.2,3.6a10.93,10.93,0,0,1,.5,1.7h0a15.43,15.43,0,0,1,.5-1.7l1.2-3.6h1.2l-2.4,6.5H79.2l-2.3-6.5Z"/><path class="cls-23" d="M88,274.05a8.08,8.08,0,0,0,.1,1.6h-1l-.1-.8h0a2.24,2.24,0,0,1-1.9,1,1.84,1.84,0,0,1-1.9-1.9c0-1.6,1.3-2.4,3.7-2.4v-.1a1.3,1.3,0,0,0-1.4-1.5,2.77,2.77,0,0,0-1.6.5l-.3-.8a4.27,4.27,0,0,1,2-.6,2.29,2.29,0,0,1,2.4,2.6Zm-1.1-1.8c-1.2,0-2.6.2-2.6,1.5a1,1,0,0,0,1,1.1,1.53,1.53,0,0,0,1.5-1.1c0-.1.1-.3.1-.4Z"/><path class="cls-23" d="M89.8,271.15a12.12,12.12,0,0,0-.1-2h1l.1,1.3h0a1.87,1.87,0,0,1,1.7-1.4h.3v1.1h-.4a1.54,1.54,0,0,0-1.5,1.5v4.1H89.8Z"/><path class="cls-23" d="M94.6,269.15l1.3,3.8a6.47,6.47,0,0,1,.4,1.3h0a10.26,10.26,0,0,1,.4-1.4l1.2-3.8h1.2l-1.7,4.6a11.41,11.41,0,0,1-2.1,4.1,2.53,2.53,0,0,1-1.4.7l-.3-1a2.66,2.66,0,0,0,1-.6,3.32,3.32,0,0,0,.9-1.3.5.5,0,0,0,0-.6l-2.3-6h1.4Z"/><path class="cls-23" d="M100.8,268a.71.71,0,0,1-.7-.8.63.63,0,0,1,.7-.7.68.68,0,0,1,.7.7.77.77,0,0,1-.7.8Zm-.6,7.6v-6.5h1.1v6.5Z"/><path class="cls-23" d="M103.2,270.85a10.28,10.28,0,0,0-.1-1.8h1l.1,1.1h0a2.22,2.22,0,0,1,2-1.2c.9,0,2.2.5,2.2,2.8v3.9h-1.1V272c0-1-.4-1.9-1.4-1.9a1.59,1.59,0,0,0-1.5,1.2c-.1.1-.1.4-.1.5v3.9h-1.1Z"/><path class="cls-23" d="M115.6,274.65a4,4,0,0,1-.9,3,3.24,3.24,0,0,1-2.3.8,4.65,4.65,0,0,1-2.1-.5l.3-.9a3,3,0,0,0,1.8.5c1.1,0,2-.6,2-2.3v-.7h0a2.15,2.15,0,0,1-2,1.1c-1.5,0-2.6-1.4-2.6-3.2,0-2.2,1.4-3.4,2.8-3.4a2,2,0,0,1,1.9,1.1h0v-1h1c0,.5-.1,1-.1,1.8l.2,3.7Zm-1.1-3a.75.75,0,0,0-.1-.5,1.62,1.62,0,0,0-1.6-1.3c-1.1,0-1.8.9-1.8,2.5,0,1.3.6,2.3,1.8,2.3a1.81,1.81,0,0,0,1.6-1.2,1.27,1.27,0,0,0,.1-.6Z"/><path class="cls-23" d="M120.1,270.85a10.28,10.28,0,0,0-.1-1.8h1l.1,1h0a2.11,2.11,0,0,1,2-1.2,1.71,1.71,0,0,1,1.7,1.3h0a1.85,1.85,0,0,1,.7-.8,2.17,2.17,0,0,1,1.4-.5c.8,0,2,.6,2,2.8v3.8h-1.1v-3.7c0-1.3-.4-2-1.3-2a1.38,1.38,0,0,0-1.3,1.1,1.27,1.27,0,0,0-.1.6v4H124v-3.9c0-1-.4-1.8-1.3-1.8a1.6,1.6,0,0,0-1.4,1.2,1.27,1.27,0,0,0-.1.6v3.9h-1.1Z"/><path class="cls-23" d="M135.9,273.85a9.72,9.72,0,0,0,.1,1.8h-1l-.1-1.1h0a2.28,2.28,0,0,1-2,1.2c-1,0-2.1-.6-2.1-2.8v-3.8h1.1v3.6c0,1.2.4,2.1,1.4,2.1a1.53,1.53,0,0,0,1.5-1.1,1.27,1.27,0,0,0,.1-.6v-4H136l-.1,4.7Z"/><path class="cls-23" d="M139.2,267.55v1.6h1.6v.9h-1.6v3.5c0,.8.2,1.3.8,1.3a1.48,1.48,0,0,0,.7-.1l.1.9a2.51,2.51,0,0,1-1,.2,1.66,1.66,0,0,1-1.2-.5,2.67,2.67,0,0,1-.4-1.7v-3.5h-1v-.9h1v-1.2Z"/><path class="cls-23" d="M146.4,274.05a8.08,8.08,0,0,0,.1,1.6h-1l-.1-.8h0a2.24,2.24,0,0,1-1.9,1,1.84,1.84,0,0,1-1.9-1.9c0-1.6,1.3-2.4,3.7-2.4v-.1a1.3,1.3,0,0,0-1.4-1.5,2.77,2.77,0,0,0-1.6.5l-.3-.8a4.27,4.27,0,0,1,2-.6,2.29,2.29,0,0,1,2.4,2.6v2.4Zm-1.1-1.8c-1.2,0-2.6.2-2.6,1.5a1,1,0,0,0,1,1.1,1.53,1.53,0,0,0,1.5-1.1c0-.1.1-.3.1-.4Z"/><path class="cls-23" d="M149.5,267.55v1.6h1.6v.9h-1.6v3.5c0,.8.2,1.3.8,1.3a1.48,1.48,0,0,0,.7-.1l.1.9a2.51,2.51,0,0,1-1,.2,1.66,1.66,0,0,1-1.2-.5,2.67,2.67,0,0,1-.4-1.7v-3.5h-1v-.9h1v-1.2Z"/><path class="cls-23" d="M152.9,268a.71.71,0,0,1-.7-.8.63.63,0,0,1,.7-.7.68.68,0,0,1,.7.7.77.77,0,0,1-.7.8Zm-.6,7.6v-6.5h1.1v6.5Z"/><path class="cls-23" d="M157.8,275.75a3,3,0,0,1-3-3.3,3.08,3.08,0,0,1,3.1-3.4,3,3,0,0,1,3,3.3,3.13,3.13,0,0,1-3.1,3.4Zm.1-.9c1.1,0,1.9-1.1,1.9-2.5,0-1.1-.5-2.5-1.8-2.5s-1.9,1.3-1.9,2.5c-.1,1.4.7,2.5,1.8,2.5Z"/><path class="cls-23" d="M162.3,270.85a10.28,10.28,0,0,0-.1-1.8h1l.1,1.1h0a2.22,2.22,0,0,1,2-1.2c.9,0,2.2.5,2.2,2.8v3.9h-1.1V272c0-1-.4-1.9-1.4-1.9a1.59,1.59,0,0,0-1.5,1.2c-.1.1-.1.4-.1.5v3.9h-1.1v-4.8Z"/><path class="cls-23" d="M169.3,274.45a3,3,0,0,0,1.5.5c.8,0,1.2-.4,1.2-1s-.3-.9-1.1-1.2c-1.1-.4-1.6-1.1-1.6-1.8a2,2,0,0,1,2.1-1.9,3,3,0,0,1,1.5.4l-.3.8a2.83,2.83,0,0,0-1.3-.4.87.87,0,0,0-1,.9c0,.5.4.8,1.2,1.1a2,2,0,0,1,1.6,2,2,2,0,0,1-2.3,2,2.86,2.86,0,0,1-1.7-.5Z"/><path class="cls-23" d="M37.5,253.55h1.1v4.1h0a2.32,2.32,0,0,1,2.1-1.2c1.5,0,2.6,1.3,2.6,3.3,0,2.3-1.4,3.5-2.8,3.5a2.35,2.35,0,0,1-2.1-1.2h0l-.1,1.1h-1c0-.4.1-1.1.1-1.7l.1-7.9Zm1.1,6.9v.4a1.81,1.81,0,0,0,1.7,1.4c1.2,0,1.9-1,1.9-2.5,0-1.3-.6-2.4-1.8-2.4a1.81,1.81,0,0,0-1.7,1.4,4.33,4.33,0,0,0-.1.5Z"/><path class="cls-23" d="M49.1,261.55a8.08,8.08,0,0,0,.1,1.6h-1l-.1-.8h0a2.24,2.24,0,0,1-1.9,1,1.84,1.84,0,0,1-1.9-1.9c0-1.6,1.3-2.4,3.7-2.4V259a1.3,1.3,0,0,0-1.4-1.5,2.77,2.77,0,0,0-1.6.5l-.3-.8a4.27,4.27,0,0,1,2-.6,2.29,2.29,0,0,1,2.4,2.6Zm-1.1-1.8c-1.2,0-2.6.2-2.6,1.5a1,1,0,0,0,1,1.1,1.53,1.53,0,0,0,1.5-1.1c0-.1.1-.3.1-.4Z"/><path class="cls-23" d="M50.7,261.85a3,3,0,0,0,1.5.5c.8,0,1.2-.4,1.2-1s-.3-.9-1.1-1.2c-1.1-.4-1.6-1.1-1.6-1.8a2,2,0,0,1,2.1-1.9,3,3,0,0,1,1.5.4l-.3.8a2.83,2.83,0,0,0-1.3-.4.87.87,0,0,0-1,.9c0,.5.4.8,1.2,1.1a2,2,0,0,1,1.6,2,2,2,0,0,1-2.3,2,2.86,2.86,0,0,1-1.7-.5Z"/><path class="cls-23" d="M56.6,260.05a2,2,0,0,0,2.1,2.2,3.69,3.69,0,0,0,1.7-.3l.2.8a4.81,4.81,0,0,1-2.1.4c-1.9,0-3-1.3-3-3.3s1.1-3.5,2.9-3.5c2,0,2.5,1.9,2.5,3.1v.6Zm3.2-.9c0-.7-.3-1.9-1.5-1.9s-1.6,1.1-1.7,1.9Z"/><path class="cls-23" d="M65,258.65a13.42,13.42,0,0,0-.1-2.1h1l.1,1.1h0a2.37,2.37,0,0,1,2.2-1.3c1.5,0,2.6,1.3,2.6,3.3,0,2.3-1.4,3.5-2.8,3.5a2.28,2.28,0,0,1-1.9-1h0v3.5H65Zm1.1,1.8a.9.9,0,0,0,.1.5,1.81,1.81,0,0,0,1.7,1.4c1.2,0,1.9-1,1.9-2.5,0-1.3-.6-2.4-1.8-2.4a1.81,1.81,0,0,0-1.7,1.4c0,.2-.1.3-.1.5C66.1,259.25,66.1,260.45,66.1,260.45Z"/><path class="cls-23" d="M76.6,261.55a8.08,8.08,0,0,0,.1,1.6h-1l-.1-.8h0a2.24,2.24,0,0,1-1.9,1,1.84,1.84,0,0,1-1.9-1.9c0-1.6,1.3-2.4,3.7-2.4V259a1.3,1.3,0,0,0-1.4-1.5,2.77,2.77,0,0,0-1.6.5l-.3-.8a4.27,4.27,0,0,1,2-.6,2.29,2.29,0,0,1,2.4,2.6v2.4Zm-1.1-1.8c-1.2,0-2.6.2-2.6,1.5a1,1,0,0,0,1,1.1,1.53,1.53,0,0,0,1.5-1.1c0-.1.1-.3.1-.4Z"/><path class="cls-23" d="M79,255.35a.71.71,0,0,1-.7-.8.7.7,0,1,1,1.4,0,.71.71,0,0,1-.7.8Zm-.6,7.7v-6.5h1.1v6.5Z"/><path class="cls-23" d="M81.4,258.65a12.12,12.12,0,0,0-.1-2h1l.1,1.3h0a1.87,1.87,0,0,1,1.7-1.4h.3v1.1H84a1.54,1.54,0,0,0-1.5,1.5v4.1H81.4Z"/><path class="cls-23" d="M92.6,261.55a8.08,8.08,0,0,0,.1,1.6h-1l-.1-.8h0a2.24,2.24,0,0,1-1.9,1,1.84,1.84,0,0,1-1.9-1.9c0-1.6,1.3-2.4,3.7-2.4V259a1.3,1.3,0,0,0-1.4-1.5,2.77,2.77,0,0,0-1.6.5l-.3-.8a4.27,4.27,0,0,1,2-.6,2.29,2.29,0,0,1,2.4,2.6v2.4Zm-1.1-1.8c-1.2,0-2.6.2-2.6,1.5a1,1,0,0,0,1,1.1,1.53,1.53,0,0,0,1.5-1.1c0-.1.1-.3.1-.4Z"/><path class="cls-23" d="M94.4,258.35a10.28,10.28,0,0,0-.1-1.8h1l.1,1.1h0a2.22,2.22,0,0,1,2-1.2c.9,0,2.2.5,2.2,2.8v3.9H98.5v-3.7c0-1-.4-1.9-1.4-1.9a1.59,1.59,0,0,0-1.5,1.2c-.1.1-.1.4-.1.5v3.9H94.4v-4.8Z"/><path class="cls-23" d="M101.5,258.35a10.28,10.28,0,0,0-.1-1.8h1l.1,1.1h0a2.22,2.22,0,0,1,2-1.2c.9,0,2.2.5,2.2,2.8v3.9h-1.1v-3.7c0-1-.4-1.9-1.4-1.9a1.59,1.59,0,0,0-1.5,1.2c-.1.1-.1.4-.1.5v3.9h-1.1v-4.8Z"/><path class="cls-23" d="M111.1,263.25a3,3,0,0,1-3-3.3,3.08,3.08,0,0,1,3.1-3.4,3,3,0,0,1,3,3.3,3.13,3.13,0,0,1-3.1,3.4Zm0-.9c1.1,0,1.9-1.1,1.9-2.5,0-1.1-.5-2.5-1.8-2.5s-1.9,1.3-1.9,2.5c0,1.4.7,2.5,1.8,2.5Z"/><path class="cls-23" d="M116.9,255.05v1.6h1.6v.9h-1.6v3.5c0,.8.2,1.3.8,1.3a1.48,1.48,0,0,0,.7-.1l.1.9a2.51,2.51,0,0,1-1,.2,1.66,1.66,0,0,1-1.2-.5,2.67,2.67,0,0,1-.4-1.7v-3.5h-1v-.9h1v-1.2Z"/><path class="cls-23" d="M124.2,261.55a8.08,8.08,0,0,0,.1,1.6h-1l-.1-.8h0a2.24,2.24,0,0,1-1.9,1,1.84,1.84,0,0,1-1.9-1.9c0-1.6,1.3-2.4,3.7-2.4V259a1.3,1.3,0,0,0-1.4-1.5,2.77,2.77,0,0,0-1.6.5l-.3-.8a4.27,4.27,0,0,1,2-.6,2.29,2.29,0,0,1,2.4,2.6Zm-1.1-1.8c-1.2,0-2.6.2-2.6,1.5a1,1,0,0,0,1,1.1,1.53,1.53,0,0,0,1.5-1.1c0-.1.1-.3.1-.4Z"/><path class="cls-23" d="M127.3,255.05v1.6h1.6v.9h-1.6v3.5c0,.8.2,1.3.8,1.3a1.48,1.48,0,0,0,.7-.1l.1.9a2.51,2.51,0,0,1-1,.2,1.66,1.66,0,0,1-1.2-.5,2.67,2.67,0,0,1-.4-1.7v-3.5h-1v-.9h1v-1.2Z"/><path class="cls-23" d="M130.7,255.35a.71.71,0,0,1-.7-.8.7.7,0,1,1,1.4,0,.71.71,0,0,1-.7.8Zm-.6,7.7v-6.5h1.1v6.5Z"/><path class="cls-23" d="M135.6,263.25a3,3,0,0,1-3-3.3,3.08,3.08,0,0,1,3.1-3.4,3,3,0,0,1,3,3.3,3.13,3.13,0,0,1-3.1,3.4Zm.1-.9c1.1,0,1.9-1.1,1.9-2.5,0-1.1-.5-2.5-1.8-2.5s-1.9,1.3-1.9,2.5c-.1,1.4.7,2.5,1.8,2.5Z"/><path class="cls-23" d="M140.1,258.35a10.28,10.28,0,0,0-.1-1.8h1l.1,1.1h0a2.22,2.22,0,0,1,2-1.2c.9,0,2.2.5,2.2,2.8v3.9h-1.1v-3.7c0-1-.4-1.9-1.4-1.9a1.59,1.59,0,0,0-1.5,1.2c-.1.1-.1.4-.1.5v3.9h-1.1Z"/><path class="cls-23" d="M147.1,261.85a3,3,0,0,0,1.5.5c.8,0,1.2-.4,1.2-1s-.3-.9-1.1-1.2c-1.1-.4-1.6-1.1-1.6-1.8a2,2,0,0,1,2.1-1.9,3,3,0,0,1,1.5.4l-.3.8a2.83,2.83,0,0,0-1.3-.4.87.87,0,0,0-1,.9c0,.5.4.8,1.2,1.1a2,2,0,0,1,1.6,2,2,2,0,0,1-2.3,2,2.86,2.86,0,0,1-1.7-.5Z"/><path class="cls-23" d="M69.5,287.05a4.76,4.76,0,0,1-1.8.4,3,3,0,0,1-3.1-3.3,3.26,3.26,0,0,1,3.3-3.5,5,5,0,0,1,1.6.3l-.3.9a3.55,3.55,0,0,0-1.3-.3,2.24,2.24,0,0,0-2.2,2.5,2.14,2.14,0,0,0,2.1,2.4,4.2,4.2,0,0,0,1.4-.3Z"/><path class="cls-23" d="M73.3,287.45a3,3,0,0,1-3-3.3,3.08,3.08,0,0,1,3.1-3.4,3,3,0,0,1,3,3.3c-.1,2.4-1.7,3.4-3.1,3.4Zm0-.9c1.1,0,1.9-1.1,1.9-2.5,0-1.1-.5-2.5-1.8-2.5s-1.9,1.3-1.9,2.5c-.1,1.4.7,2.5,1.8,2.5Z"/><path class="cls-23" d="M77.7,282.55a10.28,10.28,0,0,0-.1-1.8h1l.1,1h0a2.11,2.11,0,0,1,2-1.2,1.71,1.71,0,0,1,1.7,1.3h0a1.85,1.85,0,0,1,.7-.8,2.17,2.17,0,0,1,1.4-.5c.8,0,2,.6,2,2.8v3.8H85.4v-3.7c0-1.3-.4-2-1.3-2a1.38,1.38,0,0,0-1.3,1.1,1.27,1.27,0,0,0-.1.6v4H81.6v-3.9c0-1-.4-1.8-1.3-1.8a1.6,1.6,0,0,0-1.4,1.2,1.27,1.27,0,0,0-.1.6v3.9H77.7Z"/><path class="cls-23" d="M88.4,283a13.42,13.42,0,0,0-.1-2.1h1l.1,1.1h0a2.37,2.37,0,0,1,2.2-1.3c1.5,0,2.6,1.3,2.6,3.3,0,2.3-1.4,3.5-2.8,3.5a2.28,2.28,0,0,1-1.9-1h0V290H88.4Zm1.1,1.7a.9.9,0,0,0,.1.5,1.81,1.81,0,0,0,1.7,1.4c1.2,0,1.9-1,1.9-2.5,0-1.3-.6-2.4-1.8-2.4a1.81,1.81,0,0,0-1.7,1.4c0,.2-.1.3-.1.5C89.5,283.55,89.5,284.65,89.5,284.65Z"/><path class="cls-23" d="M100,285.75a8.08,8.08,0,0,0,.1,1.6h-1l-.1-.8h0a2.24,2.24,0,0,1-1.9,1,1.84,1.84,0,0,1-1.9-1.9c0-1.6,1.3-2.4,3.7-2.4v-.1a1.3,1.3,0,0,0-1.4-1.5,2.77,2.77,0,0,0-1.6.5l-.3-.8a4.27,4.27,0,0,1,2-.6,2.29,2.29,0,0,1,2.4,2.6ZM98.9,284c-1.2,0-2.6.2-2.6,1.5a1,1,0,0,0,1,1.1,1.53,1.53,0,0,0,1.5-1.1c0-.1.1-.3.1-.4Z"/><path class="cls-23" d="M103.1,279.25v1.6h1.6v.9h-1.6v3.5c0,.8.2,1.3.8,1.3a1.48,1.48,0,0,0,.7-.1l.1.9a2.51,2.51,0,0,1-1,.2,1.66,1.66,0,0,1-1.2-.5,2.67,2.67,0,0,1-.4-1.7v-3.5h-1V281h1v-1.2Z"/><path class="cls-23" d="M106.5,279.65a.71.71,0,0,1-.7-.8.63.63,0,0,1,.7-.7.68.68,0,0,1,.7.7.71.71,0,0,1-.7.8Zm-.5,7.7v-6.5h1.1v6.5Z"/><path class="cls-23" d="M108.9,277.85H110V282h0a2.32,2.32,0,0,1,2.1-1.2c1.5,0,2.6,1.3,2.6,3.3,0,2.3-1.4,3.5-2.8,3.5a2.35,2.35,0,0,1-2.1-1.2h0l-.1,1.1h-1c0-.4.1-1.1.1-1.7l.1-7.9Zm1.2,6.9v.4a1.81,1.81,0,0,0,1.7,1.4c1.2,0,1.9-1,1.9-2.5,0-1.3-.6-2.4-1.8-2.4a1.81,1.81,0,0,0-1.7,1.4,4.33,4.33,0,0,0-.1.5Z"/><path class="cls-23" d="M116.2,277.85h1.1v9.5h-1.1Z"/><path class="cls-23" d="M119.8,284.25a2,2,0,0,0,2.1,2.2,3.69,3.69,0,0,0,1.7-.3l.2.8a4.81,4.81,0,0,1-2.1.4c-1.9,0-3-1.3-3-3.3s1.1-3.5,2.9-3.5c2,0,2.5,1.9,2.5,3v.6Zm3.3-.8c0-.7-.3-1.9-1.5-1.9s-1.6,1.1-1.7,1.9Z"/><path class="cls-23" d="M128.3,282.55a10.28,10.28,0,0,0-.1-1.8h1l.1,1h0a2.11,2.11,0,0,1,2-1.2,1.71,1.71,0,0,1,1.7,1.3h0a1.85,1.85,0,0,1,.7-.8,2.17,2.17,0,0,1,1.4-.5c.8,0,2,.6,2,2.8v3.8H136v-3.7c0-1.3-.4-2-1.3-2a1.38,1.38,0,0,0-1.3,1.1,1.27,1.27,0,0,0-.1.6v4h-1.1v-3.9c0-1-.4-1.8-1.3-1.8a1.6,1.6,0,0,0-1.4,1.2,1.27,1.27,0,0,0-.1.6v3.9h-1.1v-4.6Z"/><path class="cls-23" d="M144.1,285.55a9.72,9.72,0,0,0,.1,1.8h-1l-.1-1.1h0a2.28,2.28,0,0,1-2,1.2c-1,0-2.1-.6-2.1-2.8v-3.8h1.1v3.6c0,1.2.4,2.1,1.4,2.1a1.53,1.53,0,0,0,1.5-1.1,1.27,1.27,0,0,0,.1-.6v-4h1.1l-.1,4.7Z"/><path class="cls-23" d="M147.3,279.25v1.6h1.6v.9h-1.6v3.5c0,.8.2,1.3.8,1.3a1.48,1.48,0,0,0,.7-.1l.1.9a2.51,2.51,0,0,1-1,.2,1.66,1.66,0,0,1-1.2-.5,2.67,2.67,0,0,1-.4-1.7v-3.5h-1V281h1v-1.2Z"/><path class="cls-23" d="M154.5,285.75a8.08,8.08,0,0,0,.1,1.6h-1l-.1-.8h0a2.24,2.24,0,0,1-1.9,1,1.84,1.84,0,0,1-1.9-1.9c0-1.6,1.3-2.4,3.7-2.4v-.1a1.3,1.3,0,0,0-1.4-1.5,2.77,2.77,0,0,0-1.6.5l-.3-.8a4.27,4.27,0,0,1,2-.6,2.29,2.29,0,0,1,2.4,2.6v2.4Zm-1.1-1.8c-1.2,0-2.6.2-2.6,1.5a1,1,0,0,0,1,1.1,1.53,1.53,0,0,0,1.5-1.1c0-.1.1-.3.1-.4Z"/><path class="cls-23" d="M157.6,279.25v1.6h1.6v.9h-1.6v3.5c0,.8.2,1.3.8,1.3a1.48,1.48,0,0,0,.7-.1l.1.9a2.51,2.51,0,0,1-1,.2,1.66,1.66,0,0,1-1.2-.5,2.67,2.67,0,0,1-.4-1.7v-3.5h-1V281h1v-1.2Z"/><path class="cls-23" d="M161,279.65a.71.71,0,0,1-.7-.8.63.63,0,0,1,.7-.7.68.68,0,0,1,.7.7.71.71,0,0,1-.7.8Zm-.5,7.7v-6.5h1.1v6.5Z"/><path class="cls-23" d="M166,287.45a3,3,0,0,1-3-3.3,3.08,3.08,0,0,1,3.1-3.4,3,3,0,0,1,3,3.3,3.07,3.07,0,0,1-3.1,3.4Zm0-.9c1.1,0,1.9-1.1,1.9-2.5,0-1.1-.5-2.5-1.8-2.5s-1.9,1.3-1.9,2.5c0,1.4.7,2.5,1.8,2.5Z"/><path class="cls-23" d="M170.5,282.55a10.28,10.28,0,0,0-.1-1.8h1l.1,1.1h0a2.22,2.22,0,0,1,2-1.2c.9,0,2.2.5,2.2,2.8v3.9h-1.1v-3.7c0-1-.4-1.9-1.4-1.9a1.59,1.59,0,0,0-1.5,1.2c-.1.1-.1.4-.1.5v3.9h-1.1Z"/><path class="cls-23" d="M177.4,286.15a3,3,0,0,0,1.5.5c.8,0,1.2-.4,1.2-1s-.3-.9-1.1-1.2c-1.1-.4-1.6-1.1-1.6-1.8a2,2,0,0,1,2.1-1.9,3,3,0,0,1,1.5.4l-.3.8a2.83,2.83,0,0,0-1.3-.4.87.87,0,0,0-1,.9c0,.5.4.8,1.2,1.1a2,2,0,0,1,1.6,2,2,2,0,0,1-2.3,2,2.86,2.86,0,0,1-1.7-.5Z"/><path class="cls-23" d="M65.1,294.25a10.28,10.28,0,0,0-.1-1.8h1l.1,1.1h0a2.22,2.22,0,0,1,2-1.2c.9,0,2.2.5,2.2,2.8v3.9H69.2v-3.8c0-1-.4-1.9-1.4-1.9a1.59,1.59,0,0,0-1.5,1.2c-.1.1-.1.4-.1.5V299H65.1v-4.7Z"/><path class="cls-23" d="M74.7,299.15a3,3,0,0,1-3-3.3,3.08,3.08,0,0,1,3.1-3.4,3,3,0,0,1,3,3.3,3.07,3.07,0,0,1-3.1,3.4Zm0-.9c1.1,0,1.9-1.1,1.9-2.5,0-1.1-.5-2.5-1.8-2.5s-1.9,1.3-1.9,2.5c0,1.5.7,2.5,1.8,2.5Z"/><path class="cls-23" d="M81.9,294.25a10.28,10.28,0,0,0-.1-1.8h1l.1,1h0a2.11,2.11,0,0,1,2-1.2,1.71,1.71,0,0,1,1.7,1.3h0a1.85,1.85,0,0,1,.7-.8,2.17,2.17,0,0,1,1.4-.5c.8,0,2,.6,2,2.8v3.8H89.6v-3.7c0-1.3-.4-2-1.3-2a1.38,1.38,0,0,0-1.3,1.1,1.27,1.27,0,0,0-.1.6v4H85.7V295c0-1-.4-1.8-1.3-1.8a1.6,1.6,0,0,0-1.4,1.2,1.27,1.27,0,0,0-.1.6v3.9H81.8v-4.6Z"/><path class="cls-23" d="M97.7,297.25a9.72,9.72,0,0,0,.1,1.8h-1l-.1-1.1h0a2.28,2.28,0,0,1-2,1.2c-1,0-2.1-.6-2.1-2.8v-3.8h1.1v3.6c0,1.2.4,2.1,1.4,2.1a1.53,1.53,0,0,0,1.5-1.1,1.27,1.27,0,0,0,.1-.6v-4h1.1l-.1,4.7Z"/><path class="cls-23" d="M100.9,291v1.6h1.6v.9h-1.6V297c0,.8.2,1.3.8,1.3a1.48,1.48,0,0,0,.7-.1l.1.9a2.51,2.51,0,0,1-1,.2,1.66,1.66,0,0,1-1.2-.5,2.67,2.67,0,0,1-.4-1.7v-3.5h-1v-.9h1v-1.2Z"/><path class="cls-23" d="M108.1,297.45a8.08,8.08,0,0,0,.1,1.6h-1l-.1-.8h0a2.24,2.24,0,0,1-1.9,1,1.84,1.84,0,0,1-1.9-1.9c0-1.6,1.3-2.4,3.7-2.4v-.1a1.3,1.3,0,0,0-1.4-1.5,2.77,2.77,0,0,0-1.6.5l-.3-.8a4.27,4.27,0,0,1,2-.6,2.29,2.29,0,0,1,2.4,2.6v2.4Zm-1.1-1.7c-1.2,0-2.6.2-2.6,1.5a1,1,0,0,0,1,1.1,1.53,1.53,0,0,0,1.5-1.1c0-.1.1-.3.1-.4Z"/><path class="cls-23" d="M111.2,291v1.6h1.6v.9h-1.6V297c0,.8.2,1.3.8,1.3a1.48,1.48,0,0,0,.7-.1l.1.9a2.51,2.51,0,0,1-1,.2,1.66,1.66,0,0,1-1.2-.5,2.67,2.67,0,0,1-.4-1.7v-3.5h-1v-.9h1v-1.2Z"/><path class="cls-23" d="M114.6,291.35a.71.71,0,0,1-.7-.8.63.63,0,0,1,.7-.7.68.68,0,0,1,.7.7.71.71,0,0,1-.7.8Zm-.5,7.7v-6.5h1.1v6.5Z"/><path class="cls-23" d="M119.6,299.15a3,3,0,0,1-3-3.3,3.08,3.08,0,0,1,3.1-3.4,3,3,0,0,1,3,3.3,3.07,3.07,0,0,1-3.1,3.4Zm0-.9c1.1,0,1.9-1.1,1.9-2.5,0-1.1-.5-2.5-1.8-2.5s-1.9,1.3-1.9,2.5c0,1.5.7,2.5,1.8,2.5Z"/><path class="cls-23" d="M124.1,294.25a10.28,10.28,0,0,0-.1-1.8h1l.1,1.1h0a2.22,2.22,0,0,1,2-1.2c.9,0,2.2.5,2.2,2.8v3.9h-1.1v-3.8c0-1-.4-1.9-1.4-1.9a1.59,1.59,0,0,0-1.5,1.2c-.1.1-.1.4-.1.5V299h-1.1v-4.7Z"/><path class="cls-23" d="M131,297.85a3,3,0,0,0,1.5.5c.8,0,1.2-.4,1.2-1s-.3-.9-1.1-1.2c-1.1-.4-1.6-1.1-1.6-1.8a2,2,0,0,1,2.1-1.9,3,3,0,0,1,1.5.4l-.3.8a2.83,2.83,0,0,0-1.3-.4.87.87,0,0,0-1,.9c0,.5.4.8,1.2,1.1a2,2,0,0,1,1.6,2,2,2,0,0,1-2.3,2,2.86,2.86,0,0,1-1.7-.5Z"/><path class="cls-23" d="M141.4,299.15a3,3,0,0,1-3-3.3,3.08,3.08,0,0,1,3.1-3.4,3,3,0,0,1,3,3.3,3.07,3.07,0,0,1-3.1,3.4Zm.1-.9c1.1,0,1.9-1.1,1.9-2.5,0-1.1-.5-2.5-1.8-2.5s-1.9,1.3-1.9,2.5c-.1,1.5.7,2.5,1.8,2.5Z"/><path class="cls-23" d="M145.9,289.55H147v4.1h0a2.32,2.32,0,0,1,2.1-1.2c1.5,0,2.6,1.3,2.6,3.3,0,2.3-1.4,3.5-2.8,3.5a2.35,2.35,0,0,1-2.1-1.2h0l-.1,1.1h-1c0-.4.1-1.1.1-1.7C145.9,297.35,145.9,289.55,145.9,289.55Zm1.1,6.9v.4a1.81,1.81,0,0,0,1.7,1.4c1.2,0,1.9-1,1.9-2.5,0-1.3-.6-2.4-1.8-2.4a1.81,1.81,0,0,0-1.7,1.4,4.33,4.33,0,0,0-.1.5Z"/><path class="cls-23" d="M153,297.85a3,3,0,0,0,1.5.5c.8,0,1.2-.4,1.2-1s-.3-.9-1.1-1.2c-1.1-.4-1.6-1.1-1.6-1.8a2,2,0,0,1,2.1-1.9,3,3,0,0,1,1.5.4l-.3.8a2.83,2.83,0,0,0-1.3-.4.87.87,0,0,0-1,.9c0,.5.4.8,1.2,1.1a2,2,0,0,1,1.6,2,2,2,0,0,1-2.3,2,2.86,2.86,0,0,1-1.7-.5Z"/><path class="cls-23" d="M158.9,296a2,2,0,0,0,2.1,2.2,3.69,3.69,0,0,0,1.7-.3l.2.8a4.81,4.81,0,0,1-2.1.4c-1.9,0-3-1.3-3-3.3s1.1-3.5,2.9-3.5c2,0,2.5,1.9,2.5,3v.6Zm3.2-.8c0-.7-.3-1.9-1.5-1.9s-1.6,1.1-1.7,1.9Z"/><path class="cls-23" d="M164.6,294.55a12.12,12.12,0,0,0-.1-2h1l.1,1.3h0a1.87,1.87,0,0,1,1.7-1.4h.3v1.1h-.4a1.54,1.54,0,0,0-1.5,1.5v4.1h-1.1Z"/><path class="cls-23" d="M169.5,292.55l1.2,3.6a10.93,10.93,0,0,1,.5,1.7h0a15.43,15.43,0,0,1,.5-1.7l1.2-3.6h1.2l-2.4,6.5h-1l-2.3-6.5Z"/><path class="cls-23" d="M175.7,296a2,2,0,0,0,2.1,2.2,3.69,3.69,0,0,0,1.7-.3l.2.8a4.81,4.81,0,0,1-2.1.4c-1.9,0-3-1.3-3-3.3s1.1-3.5,2.9-3.5c2,0,2.5,1.9,2.5,3v.6Zm3.3-.8c0-.7-.3-1.9-1.5-1.9s-1.6,1.1-1.7,1.9Z"/><path class="cls-23" d="M186.8,289.55v7.8a9.15,9.15,0,0,0,.1,1.7h-1l-.1-1.1h0a2.28,2.28,0,0,1-2.1,1.3c-1.5,0-2.7-1.3-2.7-3.3,0-2.2,1.3-3.5,2.8-3.5a2.11,2.11,0,0,1,1.9,1h0v-3.9Zm-1.1,5.6a.9.9,0,0,0-.1-.5,1.81,1.81,0,0,0-1.6-1.4c-1.2,0-1.8,1.1-1.8,2.5s.6,2.4,1.8,2.4a1.6,1.6,0,0,0,1.6-1.4c0-.2.1-.3.1-.5Z"/><rect class="cls-24" x="36.5" y="292.25" width="6.5" height="6.8"/><rect class="cls-24" x="51.9" y="292.25" width="6.5" height="6.8"/><rect class="cls-24" x="43" y="292.25" width="8.9" height="6.8"/><line class="cls-25" x1="47.5" y1="296.05" x2="47.5" y2="295.15"/><rect class="cls-26" x="51.9" y="268.75" width="6.8" height="6.5"/><rect class="cls-26" x="36.5" y="268.75" width="6.8" height="6.5"/><rect class="cls-26" x="43.3" y="268.75" width="8.6" height="6.5"/><line class="cls-13" x1="48.8" y1="271.95" x2="46.4" y2="271.95"/><rect class="cls-27" x="51.9" y="280.55" width="6.8" height="6.5"/><rect class="cls-27" x="36.5" y="280.55" width="6.8" height="6.5"/><rect class="cls-27" x="43.3" y="280.55" width="8.6" height="6.5"/><line class="cls-13" x1="48.8" y1="283.75" x2="46.4" y2="283.75"/><line class="cls-28" x1="213.3" y1="258.25" x2="232.4" y2="258.25"/><path class="cls-17" d="M241.1,255.65l1.2,3.6a10.93,10.93,0,0,1,.5,1.7h0a15.43,15.43,0,0,1,.5-1.7l1.2-3.6h1.2l-2.4,6.5h-1.1l-2.3-6.5Z"/><path class="cls-17" d="M251,260.55a8.08,8.08,0,0,0,.1,1.6h-1l-.1-.8h0a2.24,2.24,0,0,1-1.9,1,1.78,1.78,0,0,1-1.9-1.9c0-1.6,1.3-2.4,3.7-2.4V258a1.3,1.3,0,0,0-1.4-1.5,2.77,2.77,0,0,0-1.6.5l-.3-.8a4.27,4.27,0,0,1,2-.6,2.29,2.29,0,0,1,2.4,2.6v2.4Zm-1.1-1.7c-1.2,0-2.6.2-2.6,1.5a1,1,0,0,0,1,1.1,1.53,1.53,0,0,0,1.5-1.1c0-.1.1-.3.1-.4v-1.1Z"/><path class="cls-17" d="M252.8,257.65a12.12,12.12,0,0,0-.1-2h1l.1,1.3h0a1.87,1.87,0,0,1,1.7-1.4h.3v1.1h-.4a1.54,1.54,0,0,0-1.5,1.5v4.1h-1.1Z"/><path class="cls-17" d="M257.6,254.45a.71.71,0,0,1-.7-.8.63.63,0,0,1,.7-.7.68.68,0,0,1,.7.7.77.77,0,0,1-.7.8Zm-.6,7.7v-6.5h1.1v6.5Z"/><path class="cls-17" d="M264.4,260.55a8.08,8.08,0,0,0,.1,1.6h-1l-.1-.8h0a2.24,2.24,0,0,1-1.9,1,1.78,1.78,0,0,1-1.9-1.9c0-1.6,1.3-2.4,3.7-2.4V258a1.3,1.3,0,0,0-1.4-1.5,2.77,2.77,0,0,0-1.6.5l-.3-.8a4.27,4.27,0,0,1,2-.6,2.29,2.29,0,0,1,2.4,2.6v2.4Zm-1.1-1.7c-1.2,0-2.6.2-2.6,1.5a1,1,0,0,0,1,1.1,1.53,1.53,0,0,0,1.5-1.1c0-.1.1-.3.1-.4v-1.1Z"/><path class="cls-17" d="M266.2,252.65h1.1v4.1h0a2.32,2.32,0,0,1,2.1-1.2c1.5,0,2.6,1.3,2.6,3.3,0,2.3-1.4,3.5-2.8,3.5a2.35,2.35,0,0,1-2.1-1.2h0l-.1,1.1h-1v-1.7l.2-7.9Zm1.1,6.9v.4a1.81,1.81,0,0,0,1.7,1.4c1.2,0,1.9-1,1.9-2.5,0-1.3-.6-2.4-1.8-2.4a1.81,1.81,0,0,0-1.7,1.4,4.33,4.33,0,0,0-.1.5v1.2Z"/><path class="cls-17" d="M273.4,252.65h1.1v9.5h-1.1Z"/><path class="cls-17" d="M277.1,259.15a2,2,0,0,0,2.1,2.2,3.69,3.69,0,0,0,1.7-.3l.2.8a4.81,4.81,0,0,1-2.1.4c-1.9,0-3-1.3-3-3.3s1.1-3.5,2.9-3.5c2,0,2.5,1.9,2.5,3.1v.6Zm3.2-.9c0-.7-.3-1.9-1.5-1.9s-1.6,1.1-1.7,1.9Z"/><path class="cls-17" d="M285.4,258.15v.9h-3.1v-.9Z"/><path class="cls-17" d="M286.7,252.65h1.1v9.5h-1.1Z"/><path class="cls-17" d="M290.3,259.15a2,2,0,0,0,2.1,2.2,3.69,3.69,0,0,0,1.7-.3l.2.8a4.81,4.81,0,0,1-2.1.4c-1.9,0-3-1.3-3-3.3s1.1-3.5,2.9-3.5c2,0,2.5,1.9,2.5,3.1v.6Zm3.3-.9c0-.7-.3-1.9-1.5-1.9s-1.6,1.1-1.7,1.9Z"/><path class="cls-17" d="M296.1,257.45v-1.8h1l.1,1.1h0a2.22,2.22,0,0,1,2-1.2c.9,0,2.2.5,2.2,2.8v3.9h-1.1v-3.7c0-1-.4-1.9-1.4-1.9a1.59,1.59,0,0,0-1.5,1.2c0,.1-.1.4-.1.5v3.9h-1.1l-.1-4.8Z"/><path class="cls-17" d="M308.5,261.15a4,4,0,0,1-.9,3,3.24,3.24,0,0,1-2.3.8,4.65,4.65,0,0,1-2.1-.5l.3-.9a3,3,0,0,0,1.8.5c1.1,0,2-.6,2-2.3v-.7h0a2.15,2.15,0,0,1-2,1.1c-1.5,0-2.6-1.4-2.6-3.2,0-2.2,1.4-3.4,2.8-3.4a2,2,0,0,1,1.9,1.1h0v-1h1v1.8l.1,3.7Zm-1.2-2.9a.75.75,0,0,0-.1-.5,1.62,1.62,0,0,0-1.6-1.3c-1.1,0-1.8.9-1.8,2.5,0,1.3.6,2.3,1.8,2.3a1.81,1.81,0,0,0,1.6-1.2,1.27,1.27,0,0,0,.1-.6v-1.2Z"/><path class="cls-17" d="M311.7,254.15v1.6h1.6v.9h-1.6v3.5c0,.8.2,1.3.8,1.3a1.48,1.48,0,0,0,.7-.1l.1.9a2.51,2.51,0,0,1-1,.2,1.66,1.66,0,0,1-1.2-.5,2.67,2.67,0,0,1-.4-1.7v-3.5h-1v-.9h1v-1.2Z"/><path class="cls-17" d="M314.5,252.65h1.1v4h0a3,3,0,0,1,.8-.8,2,2,0,0,1,1.1-.3c.8,0,2.2.5,2.2,2.8v3.9h-1v-3.7c0-1.1-.4-1.9-1.4-1.9a1.59,1.59,0,0,0-1.5,1.2,1.08,1.08,0,0,0-.1.6v3.9h-1.1l-.1-9.7Z"/><path class="cls-17" d="M324.3,257.65a12.12,12.12,0,0,0-.1-2h1V257h0a1.87,1.87,0,0,1,1.7-1.4h.3v1.1h-.4a1.54,1.54,0,0,0-1.5,1.5v4.1h-1.1Z"/><path class="cls-17" d="M329.1,259.15a2,2,0,0,0,2.1,2.2,3.69,3.69,0,0,0,1.7-.3l.2.8a4.81,4.81,0,0,1-2.1.4c-1.9,0-3-1.3-3-3.3s1.1-3.5,2.9-3.5c2,0,2.5,1.9,2.5,3.1v.6Zm3.2-.9c0-.7-.3-1.9-1.5-1.9s-1.6,1.1-1.7,1.9Z"/><path class="cls-17" d="M340.1,261.15a4,4,0,0,1-.9,3,3.24,3.24,0,0,1-2.3.8,4.65,4.65,0,0,1-2.1-.5l.3-.9a3,3,0,0,0,1.8.5c1.1,0,2-.6,2-2.3v-.7h0a2.15,2.15,0,0,1-2,1.1c-1.5,0-2.6-1.4-2.6-3.2,0-2.2,1.4-3.4,2.8-3.4a2,2,0,0,1,1.9,1.1h0v-1h1v1.8l.1,3.7Zm-1.1-2.9a.75.75,0,0,0-.1-.5,1.62,1.62,0,0,0-1.6-1.3c-1.1,0-1.8.9-1.8,2.5,0,1.3.6,2.3,1.8,2.3a1.81,1.81,0,0,0,1.6-1.2,1.27,1.27,0,0,0,.1-.6v-1.2Z"/><path class="cls-17" d="M342.5,254.45a.71.71,0,0,1-.7-.8.63.63,0,0,1,.7-.7.68.68,0,0,1,.7.7.77.77,0,0,1-.7.8Zm-.6,7.7v-6.5H343v6.5Z"/><path class="cls-17" d="M347.4,262.25a3,3,0,0,1-3-3.3,3.08,3.08,0,0,1,3.1-3.4,3,3,0,0,1,3,3.3,3.07,3.07,0,0,1-3.1,3.4Zm.1-.8c1.1,0,1.9-1.1,1.9-2.5,0-1.1-.5-2.5-1.9-2.5s-1.9,1.3-1.9,2.5c0,1.4.8,2.5,1.9,2.5Z"/><path class="cls-17" d="M351.9,257.45v-1.8h1l.1,1.1h0a2.22,2.22,0,0,1,2-1.2c.9,0,2.2.5,2.2,2.8v3.9h-1.1v-3.7c0-1-.4-1.9-1.4-1.9a1.59,1.59,0,0,0-1.5,1.2c0,.1-.1.4-.1.5v3.9H352l-.1-4.8Z"/><path class="cls-17" d="M240.7,306a10.28,10.28,0,0,0-.1-1.8h1l.1,1h0a2.11,2.11,0,0,1,2-1.2,1.71,1.71,0,0,1,1.7,1.3h0a1.85,1.85,0,0,1,.7-.8,2.17,2.17,0,0,1,1.4-.5c.8,0,2,.6,2,2.8v3.8h-1.1v-3.7c0-1.3-.4-2-1.3-2a1.38,1.38,0,0,0-1.3,1.1,1.27,1.27,0,0,0-.1.6v4h-1.1v-3.9c0-1-.4-1.8-1.3-1.8a1.6,1.6,0,0,0-1.4,1.2,1.27,1.27,0,0,0-.1.6v3.9h-1.1V306Z"/><path class="cls-17" d="M253.9,310.75a3,3,0,0,1-3-3.3,3.08,3.08,0,0,1,3.1-3.4,3,3,0,0,1,3,3.3c-.1,2.4-1.7,3.4-3.1,3.4Zm0-.8c1.1,0,1.9-1.1,1.9-2.5,0-1.1-.5-2.5-1.8-2.5s-1.9,1.3-1.9,2.5c-.1,1.4.7,2.5,1.8,2.5Z"/><path class="cls-17" d="M263.7,301.15V309a9.15,9.15,0,0,0,.1,1.7h-1v-1.1h0a2.28,2.28,0,0,1-2.1,1.3c-1.5,0-2.7-1.3-2.7-3.3,0-2.2,1.3-3.5,2.8-3.5a2.11,2.11,0,0,1,1.9,1h0v-3.9Zm-1.1,5.7a.9.9,0,0,0-.1-.5,1.81,1.81,0,0,0-1.6-1.4c-1.2,0-1.8,1.1-1.8,2.5s.6,2.4,1.8,2.4a1.6,1.6,0,0,0,1.6-1.4c0-.2.1-.3.1-.5Z"/><path class="cls-17" d="M270.7,308.85a9.72,9.72,0,0,0,.1,1.8h-1l-.1-1.1h0a2.28,2.28,0,0,1-2,1.2c-1,0-2.1-.6-2.1-2.8v-3.8h1.1v3.6c0,1.2.4,2.1,1.4,2.1a1.53,1.53,0,0,0,1.5-1.1,1.27,1.27,0,0,0,.1-.6v-4h1.1v4.7Z"/><path class="cls-17" d="M272.6,301.15h1.1v9.5h-1.1Z"/><path class="cls-17" d="M279.9,309.05a8.08,8.08,0,0,0,.1,1.6h-1l-.1-.8h0a2.24,2.24,0,0,1-1.9,1,1.84,1.84,0,0,1-1.9-1.9c0-1.6,1.3-2.4,3.7-2.4v-.1a1.3,1.3,0,0,0-1.4-1.5,2.77,2.77,0,0,0-1.6.5l-.3-.8a4.27,4.27,0,0,1,2-.6,2.29,2.29,0,0,1,2.4,2.6v2.4Zm-1.1-1.7c-1.2,0-2.6.2-2.6,1.5a1,1,0,0,0,1,1.1,1.53,1.53,0,0,0,1.5-1.1c0-.1.1-.3.1-.4v-1.1Z"/><path class="cls-17" d="M281.7,306.15a12.12,12.12,0,0,0-.1-2h1l.1,1.3h0a1.87,1.87,0,0,1,1.7-1.4h.3v1.1h-.4a1.54,1.54,0,0,0-1.5,1.5v4.1h-1.1Z"/><path class="cls-17" d="M288.4,309.45a3,3,0,0,0,1.5.5c.8,0,1.2-.4,1.2-1s-.3-.9-1.1-1.2c-1.1-.4-1.6-1.1-1.6-1.8a2,2,0,0,1,2.1-1.9,3,3,0,0,1,1.5.4l-.3.8a2.83,2.83,0,0,0-1.3-.4.87.87,0,0,0-1,.9c0,.5.4.8,1.2,1.1a2,2,0,0,1,1.6,2,2,2,0,0,1-2.3,2,2.86,2.86,0,0,1-1.7-.5Z"/><path class="cls-17" d="M298.8,308.85a9.72,9.72,0,0,0,.1,1.8h-1l-.1-1.1h0a2.28,2.28,0,0,1-2,1.2c-1,0-2.1-.6-2.1-2.8v-3.8h1.1v3.6c0,1.2.4,2.1,1.4,2.1a1.53,1.53,0,0,0,1.5-1.1,1.27,1.27,0,0,0,.1-.6v-4h1.1l-.1,4.7Z"/><path class="cls-17" d="M300.7,301.15h1.1v4.1h0a2.32,2.32,0,0,1,2.1-1.2c1.5,0,2.6,1.3,2.6,3.3,0,2.3-1.4,3.5-2.8,3.5a2.35,2.35,0,0,1-2.1-1.2h0l-.1,1.1h-1v-1.7l.2-7.9Zm1.1,6.9v.4a1.81,1.81,0,0,0,1.7,1.4c1.2,0,1.9-1,1.9-2.5,0-1.3-.6-2.4-1.8-2.4a1.81,1.81,0,0,0-1.7,1.4,4.33,4.33,0,0,0-.1.5v1.2Z"/><path class="cls-17" d="M310.5,306.65v.9h-3.1v-.9Z"/><path class="cls-17" d="M311.7,309.45a3,3,0,0,0,1.5.5c.8,0,1.2-.4,1.2-1s-.3-.9-1.1-1.2c-1.1-.4-1.6-1.1-1.6-1.8a2,2,0,0,1,2.1-1.9,3,3,0,0,1,1.5.4l-.3.8a2.83,2.83,0,0,0-1.3-.4.87.87,0,0,0-1,.9c0,.5.4.8,1.2,1.1a2,2,0,0,1,1.6,2,2,2,0,0,1-2.3,2,2.86,2.86,0,0,1-1.7-.5Z"/><path class="cls-17" d="M318.2,302.65v1.6h1.6v.9h-1.6v3.5c0,.8.2,1.3.8,1.3a1.48,1.48,0,0,0,.7-.1l.1.9a2.51,2.51,0,0,1-1,.2,1.66,1.66,0,0,1-1.2-.5,2.67,2.67,0,0,1-.4-1.7v-3.5h-1v-.9h1v-1.2Z"/><path class="cls-17" d="M321.1,306.15a12.12,12.12,0,0,0-.1-2h1v1.3h0a1.87,1.87,0,0,1,1.7-1.4h.3v1.1h-.4a1.54,1.54,0,0,0-1.5,1.5v4.1H321Z"/><path class="cls-17" d="M330.4,308.85a9.72,9.72,0,0,0,.1,1.8h-1l-.1-1.1h0a2.28,2.28,0,0,1-2,1.2c-1,0-2.1-.6-2.1-2.8v-3.8h1.1v3.6c0,1.2.4,2.1,1.4,2.1a1.53,1.53,0,0,0,1.5-1.1,1.27,1.27,0,0,0,.1-.6v-4h1.1l-.1,4.7Z"/><path class="cls-17" d="M336.7,310.45a4.76,4.76,0,0,1-1.8.4,3,3,0,0,1-3.1-3.3,3.26,3.26,0,0,1,3.3-3.5,5.69,5.69,0,0,1,1.6.3l-.3.9a3.55,3.55,0,0,0-1.3-.3,2.24,2.24,0,0,0-2.2,2.5,2.14,2.14,0,0,0,2.1,2.4,4.2,4.2,0,0,0,1.4-.3Z"/><path class="cls-17" d="M339.5,302.65v1.6h1.6v.9h-1.6v3.5c0,.8.2,1.3.8,1.3a1.48,1.48,0,0,0,.7-.1l.1.9a2.51,2.51,0,0,1-1,.2,1.66,1.66,0,0,1-1.2-.5,2.67,2.67,0,0,1-.4-1.7v-3.5h-1v-.9h1v-1.2Z"/><path class="cls-17" d="M347.6,308.85a9.72,9.72,0,0,0,.1,1.8h-1l-.1-1.1h0a2.28,2.28,0,0,1-2,1.2c-1,0-2.1-.6-2.1-2.8v-3.8h1.1v3.6c0,1.2.4,2.1,1.4,2.1a1.53,1.53,0,0,0,1.5-1.1,1.27,1.27,0,0,0,.1-.6v-4h1.1l-.1,4.7Z"/><path class="cls-17" d="M349.4,306.15v-2h1l.1,1.3h0a1.87,1.87,0,0,1,1.7-1.4h.3v1.1h-.4a1.54,1.54,0,0,0-1.5,1.5v4.1h-1.1Z"/><path class="cls-17" d="M354.2,307.65a2,2,0,0,0,2.1,2.2,3.69,3.69,0,0,0,1.7-.3l.2.8a4.81,4.81,0,0,1-2.1.4c-1.9,0-3-1.3-3-3.3s1.1-3.5,2.9-3.5c2,0,2.5,1.9,2.5,3.1v.6Zm3.2-.9c0-.7-.3-1.9-1.5-1.9s-1.6,1.1-1.7,1.9Z"/><rect class="cls-29" x="212.7" y="298.75" width="20.4" height="15.9"/><path class="cls-17" d="M241.1,277.25l1.2,3.6a10.93,10.93,0,0,1,.5,1.7h0a15.43,15.43,0,0,1,.5-1.7l1.2-3.6h1.2l-2.4,6.5h-1.1l-2.3-6.5Z"/><path class="cls-17" d="M251,282.15a8.08,8.08,0,0,0,.1,1.6h-1l-.1-.8h0a2.24,2.24,0,0,1-1.9,1,1.78,1.78,0,0,1-1.9-1.9c0-1.6,1.3-2.4,3.7-2.4v-.1a1.3,1.3,0,0,0-1.4-1.5,2.77,2.77,0,0,0-1.6.5l-.3-.8a4.27,4.27,0,0,1,2-.6,2.29,2.29,0,0,1,2.4,2.6v2.4Zm-1.1-1.8c-1.2,0-2.6.2-2.6,1.5a1,1,0,0,0,1,1.1,1.53,1.53,0,0,0,1.5-1.1c0-.1.1-.3.1-.4v-1.1Z"/><path class="cls-17" d="M252.8,279.25a12.12,12.12,0,0,0-.1-2h1l.1,1.3h0a1.87,1.87,0,0,1,1.7-1.4h.3v1.1h-.4a1.54,1.54,0,0,0-1.5,1.5v4.1h-1.1Z"/><path class="cls-17" d="M257.6,276.05a.71.71,0,0,1-.7-.8.7.7,0,0,1,1.4,0,.77.77,0,0,1-.7.8Zm-.6,7.6v-6.4h1.1v6.5H257Z"/><path class="cls-17" d="M264.4,282.15a8.08,8.08,0,0,0,.1,1.6h-1l-.1-.8h0a2.24,2.24,0,0,1-1.9,1,1.78,1.78,0,0,1-1.9-1.9c0-1.6,1.3-2.4,3.7-2.4v-.1a1.3,1.3,0,0,0-1.4-1.5,2.77,2.77,0,0,0-1.6.5l-.3-.8a4.27,4.27,0,0,1,2-.6,2.29,2.29,0,0,1,2.4,2.6v2.4Zm-1.1-1.8c-1.2,0-2.6.2-2.6,1.5a1,1,0,0,0,1,1.1,1.53,1.53,0,0,0,1.5-1.1c0-.1.1-.3.1-.4v-1.1Z"/><path class="cls-17" d="M266.2,274.15h1.1v4.1h0a2.32,2.32,0,0,1,2.1-1.2c1.5,0,2.6,1.3,2.6,3.3,0,2.3-1.4,3.5-2.8,3.5a2.35,2.35,0,0,1-2.1-1.2h0l-.1,1.1h-1v-1.7l.2-7.9Zm1.1,6.9v.4a1.81,1.81,0,0,0,1.7,1.4c1.2,0,1.9-1,1.9-2.5,0-1.3-.6-2.4-1.8-2.4a1.81,1.81,0,0,0-1.7,1.4,4.33,4.33,0,0,0-.1.5v1.2Z"/><path class="cls-17" d="M273.4,274.15h1.1v9.5h-1.1Z"/><path class="cls-17" d="M277.1,280.65a2,2,0,0,0,2.1,2.2,3.69,3.69,0,0,0,1.7-.3l.2.8a4.81,4.81,0,0,1-2.1.4c-1.9,0-3-1.3-3-3.3s1.1-3.5,2.9-3.5c2,0,2.5,1.9,2.5,3.1v.6Zm3.2-.9c0-.7-.3-1.9-1.5-1.9s-1.6,1.1-1.7,1.9Z"/><path class="cls-17" d="M285.4,279.65v.9h-3.1v-.9Z"/><path class="cls-17" d="M286.7,274.15h1.1v9.5h-1.1Z"/><path class="cls-17" d="M290.3,280.65a2,2,0,0,0,2.1,2.2,3.69,3.69,0,0,0,1.7-.3l.2.8a4.81,4.81,0,0,1-2.1.4c-1.9,0-3-1.3-3-3.3s1.1-3.5,2.9-3.5c2,0,2.5,1.9,2.5,3.1v.6Zm3.3-.9c0-.7-.3-1.9-1.5-1.9s-1.6,1.1-1.7,1.9Z"/><path class="cls-17" d="M296.1,279v-1.8h1l.1,1.1h0a2.22,2.22,0,0,1,2-1.2c.9,0,2.2.5,2.2,2.8v3.9h-1.1v-3.7c0-1-.4-1.9-1.4-1.9a1.59,1.59,0,0,0-1.5,1.2c0,.1-.1.4-.1.5v3.9h-1.1l-.1-4.8Z"/><path class="cls-17" d="M308.5,282.75a4,4,0,0,1-.9,3,3.24,3.24,0,0,1-2.3.8,4.65,4.65,0,0,1-2.1-.5l.3-.9a3,3,0,0,0,1.8.5c1.1,0,2-.6,2-2.3v-.7h0a2.15,2.15,0,0,1-2,1.1c-1.5,0-2.6-1.4-2.6-3.2,0-2.2,1.4-3.4,2.8-3.4a2,2,0,0,1,1.9,1.1h0v-1h1v1.8l.1,3.7Zm-1.2-3a.75.75,0,0,0-.1-.5,1.62,1.62,0,0,0-1.6-1.3c-1.1,0-1.8.9-1.8,2.5,0,1.3.6,2.3,1.8,2.3a1.81,1.81,0,0,0,1.6-1.2,1.27,1.27,0,0,0,.1-.6v-1.2Z"/><path class="cls-17" d="M311.7,275.65v1.6h1.6v.9h-1.6v3.5c0,.8.2,1.3.8,1.3a1.48,1.48,0,0,0,.7-.1l.1.9a2.51,2.51,0,0,1-1,.2,1.66,1.66,0,0,1-1.2-.5,2.67,2.67,0,0,1-.4-1.7v-3.5h-1v-1h1v-1.2Z"/><path class="cls-17" d="M314.5,274.15h1.1v4h0a3,3,0,0,1,.8-.8,2,2,0,0,1,1.1-.3c.8,0,2.2.5,2.2,2.8v3.9h-1v-3.7c0-1.1-.4-1.9-1.4-1.9a1.59,1.59,0,0,0-1.5,1.2,1.08,1.08,0,0,0-.1.6v3.9h-1.1l-.1-9.7Z"/><path class="cls-17" d="M324.2,282.45a3,3,0,0,0,1.5.5c.8,0,1.2-.4,1.2-1s-.3-.9-1.1-1.2c-1.1-.4-1.6-1.1-1.6-1.8a2,2,0,0,1,2.1-1.9,3,3,0,0,1,1.5.4l-.3.8a2.83,2.83,0,0,0-1.3-.4.87.87,0,0,0-1,.9c0,.5.4.8,1.2,1.1a2,2,0,0,1,1.6,2,2,2,0,0,1-2.3,2,2.86,2.86,0,0,1-1.7-.5Z"/><path class="cls-17" d="M330.7,275.65v1.6h1.6v.9h-1.6v3.5c0,.8.2,1.3.8,1.3a1.48,1.48,0,0,0,.7-.1l.1.9a2.51,2.51,0,0,1-1,.2,1.66,1.66,0,0,1-1.2-.5,2.67,2.67,0,0,1-.4-1.7v-3.5h-1v-1h1v-1.2Z"/><path class="cls-17" d="M334.1,280.65a2,2,0,0,0,2.1,2.2,3.69,3.69,0,0,0,1.7-.3l.2.8a4.81,4.81,0,0,1-2.1.4c-1.9,0-3-1.3-3-3.3s1.1-3.5,2.9-3.5c2,0,2.5,1.9,2.5,3.1v.6Zm3.3-.9c0-.7-.3-1.9-1.5-1.9s-1.6,1.1-1.7,1.9Z"/><path class="cls-17" d="M339.9,279v-1.8h1l.1,1h0a2.11,2.11,0,0,1,2-1.2,1.71,1.71,0,0,1,1.7,1.3h0a1.85,1.85,0,0,1,.7-.8,2.11,2.11,0,0,1,1.3-.5c.8,0,2,.6,2,2.8v3.8h-1.1v-3.7c0-1.3-.4-2-1.3-2A1.38,1.38,0,0,0,345,279c0,.2-.1.4-.1.6v4h-1.1v-3.9c0-1-.4-1.8-1.3-1.8a1.6,1.6,0,0,0-1.4,1.2,1.27,1.27,0,0,0-.1.6v3.9h-1.1V279Z"/><path class="cls-17" d="M353.1,279.65v.9h-3.2v-.9Z"/><path class="cls-17" d="M354.5,274.15h1.1v9.5h-1.1Z"/><path class="cls-17" d="M360,283.85a3,3,0,0,1-3-3.3,3.08,3.08,0,0,1,3.1-3.4,3,3,0,0,1,3,3.3,3.25,3.25,0,0,1-3.1,3.4Zm0-.9c1.1,0,1.9-1.1,1.9-2.5,0-1.1-.5-2.5-1.9-2.5s-1.9,1.3-1.9,2.5c0,1.4.8,2.5,1.9,2.5Z"/><path class="cls-17" d="M367,283.85a3,3,0,0,1-3-3.3,3.08,3.08,0,0,1,3.1-3.4,3,3,0,0,1,3,3.3,3.25,3.25,0,0,1-3.1,3.4Zm0-.9c1.1,0,1.9-1.1,1.9-2.5,0-1.1-.5-2.5-1.8-2.5s-1.9,1.3-1.9,2.5c-.1,1.4.7,2.5,1.8,2.5Z"/><path class="cls-17" d="M371.5,279.35a13.42,13.42,0,0,0-.1-2.1h1l.1,1.1h0a2.37,2.37,0,0,1,2.2-1.3c1.5,0,2.6,1.3,2.6,3.3,0,2.3-1.4,3.5-2.8,3.5a2.28,2.28,0,0,1-1.9-1h0v3.5h-1.1v-7Zm1.1,1.7a.9.9,0,0,0,.1.5,1.81,1.81,0,0,0,1.7,1.4c1.2,0,1.9-1,1.9-2.5,0-1.3-.6-2.4-1.8-2.4a1.81,1.81,0,0,0-1.7,1.4c0,.2-.1.3-.1.5l-.1,1.1Z"/><path class="cls-28" d="M236.1,285.15H222.8a9.52,9.52,0,1,1-3.5-13,9.78,9.78,0,0,1,3.5,3.5h13.3"/><rect x="233.5" y="278.95" width="1.1" height="3"/><rect class="cls-30" x="233.5" y="278.95" width="1.1" height="3"/><rect x="227.9" y="278.95" width="1.1" height="3"/><rect class="cls-30" x="227.9" y="278.95" width="1.1" height="3"/><rect x="222.3" y="278.95" width="1.1" height="3"/><rect class="cls-30" x="222.3" y="278.95" width="1.1" height="3"/><path d="M216.2,340a13.79,13.79,0,0,1,2.2-.2,3.68,3.68,0,0,1,2.6.7,2.41,2.41,0,0,1-1,4h0a2.15,2.15,0,0,1,1.3,1.8,14.36,14.36,0,0,0,.7,2.5h-1.2c-.1-.3-.3-1-.6-2.2s-.8-1.7-1.8-1.8h-1.1v3.9h-1.2l.1-8.7Zm1.2,4.1h1.2a1.77,1.77,0,0,0,2-1.7c0-1.2-.8-1.7-2.1-1.7-.6,0-.9.1-1.2.1v3.3Z"/><path d="M225.8,344.35v-.8h6.9v.8Zm0,2.6v-.8h6.9v.8Z"/><path d="M238.5,346.05l-.9,2.8h-1.2l3.1-9h1.4l3.1,9h-1.3l-1-2.8Zm3-.9-.9-2.6c-.2-.6-.3-1.1-.5-1.6h0c-.1.5-.3,1.1-.4,1.6l-.9,2.6Z"/><path d="M250.7,349.05a3.36,3.36,0,0,1,.1-6.7,3,3,0,0,1,3.1,3.3,3.15,3.15,0,0,1-3.2,3.4Zm0-.9a2.28,2.28,0,0,0,2-2.5c0-1.1-.5-2.5-1.9-2.5s-2,1.3-2,2.5c0,1.4.8,2.5,1.9,2.5Z"/><path d="M255.4,344.45a12.12,12.12,0,0,0-.1-2h1l.1,1.3h0a1.89,1.89,0,0,1,1.8-1.4h.3v1.1h-.4a1.7,1.7,0,0,0-1.6,1.5v4.1h-1.2Z"/><path d="M269.5,348.45a8.24,8.24,0,0,1-2.8.5,4.45,4.45,0,0,1-3.4-1.2,4.81,4.81,0,0,1,3.6-8.1,5.92,5.92,0,0,1,2.3.4l-.3.9a5,5,0,0,0-2-.4,3.36,3.36,0,0,0-3.6,3.6,3.28,3.28,0,0,0,3.5,3.6,5.14,5.14,0,0,0,1.6-.2v-2.7h-1.8V344h3v4.5Z"/><path d="M271.8,349.05a.79.79,0,0,1-.8-.8.8.8,0,0,1,1.6,0,.79.79,0,0,1-.8.8Z"/><path d="M278.9,348.85v-3.8l-2.9-5.2h1.3l1.3,2.5c.3.7.6,1.2.9,1.9h0c.2-.6.6-1.2.9-1.9l1.3-2.5H283l-3,5.2v3.8Z"/><path d="M286.5,344.35v-.8h6.9v.8Zm0,2.6v-.8h6.9v.8Z"/><path d="M304.1,348.55a6.12,6.12,0,0,1-2.4.4c-2.5,0-4.4-1.6-4.4-4.6a4.46,4.46,0,0,1,4.7-4.7,4.17,4.17,0,0,1,2.1.4l-.3.9a4.36,4.36,0,0,0-1.8-.4,3.36,3.36,0,0,0-3.5,3.7,3.28,3.28,0,0,0,3.5,3.6,3.81,3.81,0,0,0,1.9-.4Z"/><path d="M311,349.05a3.36,3.36,0,0,1,.1-6.7,3,3,0,0,1,3.1,3.3,3.2,3.2,0,0,1-3.2,3.4Zm0-.9a2.28,2.28,0,0,0,2-2.5c0-1.1-.5-2.5-1.9-2.5s-2,1.3-2,2.5c0,1.4.8,2.5,1.9,2.5Z"/><path d="M315.7,344.45a12.12,12.12,0,0,0-.1-2h1l.1,1.3h0a1.89,1.89,0,0,1,1.8-1.4h.3v1.1h-.4a1.7,1.7,0,0,0-1.6,1.5v4.1h-1.1Z"/><path d="M324.1,339.85v5.4c0,2,.9,2.9,2.1,2.9s2.2-.9,2.2-2.9v-5.4h1.2v5.3c0,2.8-1.5,3.9-3.4,3.9s-3.2-1-3.2-3.9v-5.3Z"/><path d="M332.1,349.05a.79.79,0,0,1-.8-.8.8.8,0,0,1,1.6,0,.79.79,0,0,1-.8.8Z"/><path d="M336.7,342.85a22,22,0,0,1,1.2-3.2l.7-.1a28.06,28.06,0,0,0-.8,3.1Zm1.9,0a22,22,0,0,1,1.2-3.2l.7-.1a28.06,28.06,0,0,0-.8,3.1Z"/><path d="M341.9,344.15a10.28,10.28,0,0,0-.1-1.8h1l.1,1.1h0a2.39,2.39,0,0,1,2.1-1.2c.9,0,2.3.5,2.3,2.8V349h-1.2v-3.7c0-1-.4-1.9-1.5-1.9a1.62,1.62,0,0,0-1.6,1.2c-.1.1-.1.4-.1.5V349h-1.2l.2-4.8Z"/><path d="M350.7,340.85v1.6h1.7v.9h-1.7v3.5c0,.8.2,1.3.9,1.3a1.48,1.48,0,0,0,.7-.1l.1.9a2.51,2.51,0,0,1-1,.2,1.9,1.9,0,0,1-1.3-.5,2.65,2.65,0,0,1-.5-1.7v-3.7h-1v-.9h1v-1.2Z"/><path d="M355.2,339.55a22,22,0,0,1-1.2,3.2l-.7.1a28.06,28.06,0,0,0,.8-3.1Zm2,0a22,22,0,0,1-1.2,3.2l-.7.1a28.06,28.06,0,0,0,.8-3.1Z"/><path d="M360.9,344.35v-.8h6.9v.8Zm0,2.6v-.8h6.9v.8Z"/><path d="M216.2,360.15a10.28,10.28,0,0,0-.1-1.8h1l.1,1.1h0a2.39,2.39,0,0,1,2.1-1.2c.9,0,2.3.5,2.3,2.8V365h-1.2v-3.7c0-1-.4-1.9-1.5-1.9a1.62,1.62,0,0,0-1.6,1.2c-.1.1-.1.4-.1.5V365H216l.2-4.8Z"/><path d="M229,363.15a9.72,9.72,0,0,0,.1,1.8h-1l-.1-1.1h0a2.46,2.46,0,0,1-2.1,1.2c-1,0-2.2-.6-2.2-2.8v-3.8h1.2v3.6c0,1.2.4,2.1,1.4,2.1a1.76,1.76,0,0,0,1.6-1.1,1.27,1.27,0,0,0,.1-.6v-4h1.2l-.2,4.7Z"/><path d="M235.6,364.65a5.45,5.45,0,0,1-1.9.4,3,3,0,0,1-3.2-3.3,3.36,3.36,0,0,1,3.5-3.5,5,5,0,0,1,1.6.3l-.3.9a3.66,3.66,0,0,0-1.4-.3,2.26,2.26,0,0,0-2.3,2.5,2.21,2.21,0,0,0,2.2,2.4,3.66,3.66,0,0,0,1.4-.3Z"/><path d="M237,355.45h1.2V365H237Z"/><path d="M240.8,361.85a2,2,0,0,0,2.2,2.2,4.18,4.18,0,0,0,1.8-.3l.2.8a5,5,0,0,1-2.2.4,3,3,0,0,1-3.2-3.3c0-2,1.2-3.5,3.1-3.5,2.1,0,2.7,1.9,2.7,3.1v.6Zm3.4-.8a1.69,1.69,0,0,0-1.6-1.9,1.94,1.94,0,0,0-1.8,1.9Z"/><path d="M249.5,365.05a3.36,3.36,0,0,1,.1-6.7,3,3,0,0,1,3.1,3.3,3.14,3.14,0,0,1-3.2,3.4Zm0-.9a2.28,2.28,0,0,0,2-2.5c0-1.1-.5-2.5-1.9-2.5s-2,1.3-2,2.5c-.1,1.5.7,2.5,1.9,2.5Z"/><path d="M255.6,356.85v1.6h1.7v.9h-1.7v3.5c0,.8.2,1.3.9,1.3a1.48,1.48,0,0,0,.7-.1l.1.9a2.51,2.51,0,0,1-1,.2,1.9,1.9,0,0,1-1.3-.5,2.65,2.65,0,0,1-.5-1.7v-3.5h-1v-.9h1v-1.3Z"/><path d="M259.2,357.25a.71.71,0,0,1-.7-.8c0-.5.3-.7.8-.7a.63.63,0,0,1,.7.7.86.86,0,0,1-.8.8Zm-.6,7.7v-6.5h1.2V365Z"/><path d="M267.3,355.45v7.8a9.15,9.15,0,0,0,.1,1.7h-1.1l-.1-1.1h0a2.44,2.44,0,0,1-2.2,1.3c-1.6,0-2.8-1.3-2.8-3.3,0-2.2,1.3-3.5,2.9-3.5a2.3,2.3,0,0,1,2,1h0v-3.9Zm-1.2,5.6a.9.9,0,0,0-.1-.5,1.82,1.82,0,0,0-1.7-1.4c-1.2,0-1.9,1.1-1.9,2.5s.7,2.4,1.9,2.4a1.7,1.7,0,0,0,1.7-1.4c0-.2.1-.3.1-.5Z"/><path d="M269.9,361.85a2,2,0,0,0,2.2,2.2,4.18,4.18,0,0,0,1.8-.3l.2.8a5,5,0,0,1-2.2.4,3,3,0,0,1-3.2-3.3c0-2,1.2-3.5,3.1-3.5,2.1,0,2.7,1.9,2.7,3.1v.6Zm3.5-.8a1.69,1.69,0,0,0-1.6-1.9,1.94,1.94,0,0,0-1.8,1.9Z"/><path d="M275.8,363.75a3.77,3.77,0,0,0,1.6.5c.8,0,1.2-.4,1.2-1s-.3-.9-1.2-1.2c-1.2-.4-1.7-1.1-1.7-1.8a2,2,0,0,1,2.2-1.9,3.41,3.41,0,0,1,1.6.4l-.3.8a3.32,3.32,0,0,0-1.3-.4c-.7,0-1.1.4-1.1.9s.4.8,1.2,1.1c1.1.4,1.7,1,1.7,2,0,1.2-.9,2-2.4,2a3.2,3.2,0,0,1-1.8-.5Z"/><path d="M281.8,365.05a.79.79,0,0,1-.8-.8.8.8,0,0,1,1.6,0,.79.79,0,0,1-.8.8Z"/><path d="M289.2,359a22,22,0,0,1,1.2-3.2l.8-.1a28.06,28.06,0,0,0-.8,3.1Zm2,0a22,22,0,0,1,1.2-3.2l.7-.1a28.06,28.06,0,0,0-.8,3.1Z"/><path d="M294.5,356.05a12.73,12.73,0,0,1,2.2-.2,3.92,3.92,0,0,1,2.5.7,2.41,2.41,0,0,1,.8,1.9,2.35,2.35,0,0,1-.7,1.9,3.56,3.56,0,0,1-2.8,1,2.48,2.48,0,0,1-.9-.1v3.6h-1.2v-8.8Zm1.2,4.3a3.08,3.08,0,0,0,1,.1c1.4,0,2.3-.7,2.3-1.9s-.8-1.8-2.1-1.8c-.5,0-.9.1-1.1.1l-.1,3.5Z"/><path d="M303.7,357.35h0l-1.5.8-.2-.9,1.9-1h1V365h-1.2Z"/><path d="M309.9,355.65a22,22,0,0,1-1.2,3.2l-.7.1a28.06,28.06,0,0,0,.8-3.1Zm2,0a22,22,0,0,1-1.2,3.2l-.7.1a28.06,28.06,0,0,0,.8-3.1Z"/><path d="M315.6,360.45v-.8h6.9v.8Zm0,2.6v-.8h6.9v.8Z"/><path d="M326.8,360.55a13.42,13.42,0,0,0-.1-2.1h1.1l.1,1.1h0a2.53,2.53,0,0,1,2.3-1.3c1.6,0,2.8,1.3,2.8,3.3,0,2.3-1.4,3.5-2.9,3.5a2.33,2.33,0,0,1-2-1h0v3.5h-1.2l-.1-7Zm1.2,1.7a.9.9,0,0,0,.1.5,1.83,1.83,0,0,0,1.8,1.4c1.2,0,2-1,2-2.5,0-1.3-.7-2.4-1.9-2.4a1.92,1.92,0,0,0-1.8,1.4c0,.2-.1.3-.1.5v1.1Z"/><path d="M339,363.35a8.08,8.08,0,0,0,.1,1.6H338l-.1-.8h0a2.44,2.44,0,0,1-2,1,1.86,1.86,0,0,1-2-1.9c0-1.6,1.4-2.4,3.9-2.4v-.1a1.33,1.33,0,0,0-1.5-1.5,3.37,3.37,0,0,0-1.7.5l-.3-.8a4.34,4.34,0,0,1,2.1-.6,2.32,2.32,0,0,1,2.5,2.6l.1,2.4Zm-1.2-1.7c-1.3,0-2.7.2-2.7,1.5a1,1,0,0,0,1.1,1.1,1.57,1.57,0,0,0,1.6-1.1c0-.1.1-.3.1-.4l-.1-1.1Z"/><path d="M341.4,357.25a.71.71,0,0,1-.7-.8c0-.5.3-.7.8-.7a.63.63,0,0,1,.7.7.79.79,0,0,1-.8.8Zm-.5,7.7v-6.5h1.2V365Z"/><path d="M344,360.45a12.12,12.12,0,0,0-.1-2h1l.1,1.3h0a1.89,1.89,0,0,1,1.8-1.4h.3v1.1h-.4a1.7,1.7,0,0,0-1.6,1.5v4.1h-1.2Z"/><path d="M348.9,357.25a.71.71,0,0,1-.7-.8c0-.5.3-.7.8-.7a.63.63,0,0,1,.7.7.79.79,0,0,1-.8.8Zm-.5,7.7v-6.5h1.2V365Z"/><path d="M351.5,360.15a10.28,10.28,0,0,0-.1-1.8h1l.1,1.1h0a2.39,2.39,0,0,1,2.1-1.2c.9,0,2.3.5,2.3,2.8V365h-1.2v-3.7c0-1-.4-1.9-1.5-1.9a1.62,1.62,0,0,0-1.6,1.2c-.1.1-.1.4-.1.5V365h-1.2v-4.8Z"/><path d="M364.5,364a4,4,0,0,1-.9,3,3.49,3.49,0,0,1-2.4.8,5.09,5.09,0,0,1-2.2-.5l.3-.9a3.31,3.31,0,0,0,1.9.5c1.2,0,2.1-.6,2.1-2.3v-.7h0a2.33,2.33,0,0,1-2.1,1.1,3,3,0,0,1-2.8-3.2c0-2.2,1.4-3.4,2.9-3.4a2.22,2.22,0,0,1,2,1.1h0v-1h1c0,.5-.1,1-.1,1.8l.3,3.7Zm-1.2-3a.75.75,0,0,0-.1-.5,1.71,1.71,0,0,0-1.6-1.3c-1.1,0-1.9.9-1.9,2.5,0,1.3.7,2.3,1.9,2.3a1.71,1.71,0,0,0,1.6-1.2,1.27,1.27,0,0,0,.1-.6V361Z"/><path d="M216.9,378a2,2,0,0,0,2.2,2.2,4.18,4.18,0,0,0,1.8-.3l.2.8a5,5,0,0,1-2.2.4,3,3,0,0,1-3.2-3.3c0-2,1.2-3.5,3-3.5,2.1,0,2.7,1.9,2.7,3.1v.6Zm3.4-.9a1.69,1.69,0,0,0-1.6-1.9,1.94,1.94,0,0,0-1.8,1.9Z"/><path d="M222.9,371.45h1.2V381h-1.2Z"/><path d="M226.7,378a2,2,0,0,0,2.2,2.2,4.18,4.18,0,0,0,1.8-.3l.2.8a5,5,0,0,1-2.2.4,3,3,0,0,1-3.2-3.3c0-2,1.2-3.5,3.1-3.5,2.1,0,2.7,1.9,2.7,3.1v.6Zm3.4-.9a1.69,1.69,0,0,0-1.6-1.9,1.94,1.94,0,0,0-1.8,1.9Z"/><path d="M232.7,376.25a10.28,10.28,0,0,0-.1-1.8h1l.1,1h0a2.35,2.35,0,0,1,2-1.2,1.83,1.83,0,0,1,1.8,1.3h0a2.85,2.85,0,0,1,.7-.8,2.17,2.17,0,0,1,1.4-.5c.9,0,2.1.6,2.1,2.8v3.8h-1.2v-3.7c0-1.3-.5-2-1.4-2a1.5,1.5,0,0,0-1.4,1.1,1.27,1.27,0,0,0-.1.6v4h-1.2V377c0-1-.5-1.8-1.4-1.8a1.72,1.72,0,0,0-1.5,1.2,1.27,1.27,0,0,0-.1.6v3.9h-.7v-4.6Z"/><path d="M244.6,378a2,2,0,0,0,2.2,2.2,4.18,4.18,0,0,0,1.8-.3l.2.8a5,5,0,0,1-2.2.4,3,3,0,0,1-3.2-3.3c0-2,1.2-3.5,3.1-3.5,2.1,0,2.7,1.9,2.7,3.1v.6Zm3.4-.9a1.69,1.69,0,0,0-1.6-1.9,1.94,1.94,0,0,0-1.8,1.9Z"/><path d="M250.6,376.25a10.28,10.28,0,0,0-.1-1.8h1l.1,1.1h0a2.39,2.39,0,0,1,2.1-1.2c.9,0,2.3.5,2.3,2.8v3.9h-1.2v-3.8c0-1-.4-1.9-1.5-1.9a1.62,1.62,0,0,0-1.6,1.2c-.1.1-.1.4-.1.5V381h-1.2l.2-4.7Z"/><path d="M259.4,373v1.6h1.7v.9h-1.7V379c0,.8.2,1.3.9,1.3a1.48,1.48,0,0,0,.7-.1l.1.9a2.51,2.51,0,0,1-1,.2,1.9,1.9,0,0,1-1.3-.5,2.65,2.65,0,0,1-.5-1.7v-3.5h-1v-.9h1v-1.2Z"/><path d="M267.5,373.35h0l-1.5.8-.3-.9,1.9-1h1V381h-1.1Z"/><path d="M272.6,381.15a.79.79,0,0,1-.8-.8.8.8,0,0,1,1.6,0c.1.4-.3.8-.8.8Z"/></svg>