<svg id="图层_1" data-name="图层 1" xmlns="http://www.w3.org/2000/svg" viewBox="0 0 400 400"><defs><style>.cls-1,.cls-10,.cls-11,.cls-12,.cls-13,.cls-14,.cls-15,.cls-16,.cls-17,.cls-18,.cls-19,.cls-2,.cls-20,.cls-21,.cls-22,.cls-23,.cls-24,.cls-25,.cls-26,.cls-28,.cls-4,.cls-8,.cls-9{isolation:isolate;font-family:ArialMT, Arial;}.cls-1,.cls-10,.cls-11,.cls-12,.cls-13,.cls-14,.cls-15,.cls-16,.cls-17,.cls-2,.cls-4,.cls-8,.cls-9{font-size:11.28px;}.cls-1,.cls-2,.cls-24,.cls-25{fill:#ffaadc;}.cls-10,.cls-11,.cls-14,.cls-16,.cls-2,.cls-8{letter-spacing:-0.11em;}.cls-3,.cls-6{fill:none;}.cls-3,.cls-5,.cls-6,.cls-7{stroke:#000;stroke-miterlimit:1.11;}.cls-3,.cls-5,.cls-7{stroke-width:0.14px;}.cls-6{stroke-width:0.75px;}.cls-28,.cls-7{fill:#fff;}.cls-17,.cls-20,.cls-8{fill:#ffdf5c;}.cls-10,.cls-19,.cls-9{fill:#0a0bff;}.cls-11,.cls-12,.cls-23{fill:#80db9e;}.cls-13,.cls-14,.cls-22{fill:#ff870a;}.cls-15,.cls-16,.cls-21{fill:#09fefe;}.cls-18,.cls-19,.cls-20,.cls-21,.cls-22,.cls-23,.cls-24{font-size:20px;}.cls-18{fill:#231815;}.cls-25{font-size:23.12px;}.cls-26,.cls-28{font-size:12px;}.cls-27{fill:#e50012;}</style></defs><g id="ID000006"><text class="cls-1" transform="translate(237.92 280.24)">G</text></g><g id="ID000007"><text class="cls-2" transform="translate(269 258.86)">A</text></g><g id="ID000002"><text class="cls-1" transform="translate(246.22 315.53)">G</text></g><g id="ID000003"><text class="cls-1" transform="translate(246.22 304.46)">G</text></g><g id="ID000004"><text class="cls-2" transform="translate(246.85 293.38)">A</text></g><g id="ID000005"><text class="cls-2" transform="translate(246.85 282.31)">A</text></g><g id="ID000008"><text class="cls-1" transform="translate(268.37 271.24)">G</text></g><g id="ID000009"><text class="cls-1" transform="translate(268.69 282.31)">U</text></g><g id="ID000010"><text class="cls-1" transform="translate(268.69 293.38)">U</text></g><g id="ID000011"><line class="cls-3" x1="277.14" y1="289.4" x2="284.52" y2="289.4"/></g><g id="ID000012"><text class="cls-4" transform="translate(283.52 293.38)">100</text></g><g id="ID000013"><text class="cls-1" transform="translate(268.69 304.46)">U</text></g><g id="ID000014"><text class="cls-1" transform="translate(268.69 315.53)">C</text></g><g id="ID000015"><line class="cls-3" x1="255.04" y1="310.55" x2="268.33" y2="310.55"/></g><g id="ID000016"><polygon class="cls-5" points="263.9 299.47 263.9 299.33 263.88 299.19 263.86 299.06 263.83 298.92 263.79 298.78 263.74 298.65 263.69 298.52 263.62 298.4 263.55 298.28 263.47 298.16 263.38 298.05 263.29 297.95 263.19 297.85 263.08 297.75 262.97 297.67 262.85 297.59 262.73 297.52 262.61 297.46 262.48 297.4 262.34 297.36 262.21 297.32 262.07 297.29 261.93 297.27 261.79 297.26 261.65 297.26 261.51 297.27 261.37 297.28 261.23 297.31 261.1 297.34 260.96 297.38 260.83 297.43 260.7 297.49 260.58 297.56 260.46 297.63 260.35 297.71 260.24 297.8 260.13 297.9 260.04 298 259.94 298.11 259.86 298.22 259.79 298.34 259.72 298.46 259.66 298.59 259.6 298.72 259.56 298.85 259.52 298.99 259.5 299.12 259.48 299.26 259.47 299.4 259.47 299.54 259.48 299.69 259.5 299.82 259.52 299.96 259.56 300.1 259.6 300.23 259.66 300.36 259.72 300.49 259.79 300.61 259.86 300.73 259.94 300.84 260.04 300.95 260.13 301.05 260.24 301.15 260.35 301.24 260.46 301.32 260.58 301.39 260.7 301.46 260.83 301.52 260.96 301.57 261.1 301.61 261.23 301.64 261.37 301.67 261.51 301.68 261.65 301.69 261.79 301.69 261.93 301.68 262.07 301.65 262.21 301.63 262.34 301.59 262.48 301.54 262.61 301.49 262.73 301.43 262.85 301.36 262.97 301.28 263.08 301.19 263.19 301.1 263.29 301 263.38 300.9 263.47 300.79 263.55 300.67 263.62 300.55 263.69 300.43 263.74 300.3 263.79 300.17 263.83 300.03 263.86 299.89 263.88 299.75 263.9 299.62 263.9 299.47"/></g><g id="ID000017"><line class="cls-3" x1="255.04" y1="288.4" x2="268.33" y2="288.4"/></g><g id="ID000018"><line class="cls-3" x1="255.04" y1="277.33" x2="268.33" y2="277.33"/></g><g id="ID000019"><line class="cls-6" x1="237.98" y1="276.53" x2="166.94" y2="277.13"/></g><g id="ID000020"><polygon class="cls-5" points="206.77 280.15 204.96 278.45 203.13 277.86 201.29 277.54 197.62 276.63 201.32 275.88 203.18 275.64 205.03 275.13 206.91 273.51 206.77 280.15"/></g><g id="ID000021"><line class="cls-3" x1="242.31" y1="270.82" x2="242.31" y2="257.53"/></g><g id="ID000022"><polygon class="cls-7" points="242.31 269.94 244.8 265.62 239.81 265.62 242.31 269.94"/></g><g id="ID000023"><polygon class="cls-7" points="242.31 259.08 242.17 259.09 242.03 259.1 241.89 259.12 241.75 259.16 241.62 259.19 241.48 259.24 241.35 259.3 241.23 259.36 241.11 259.44 240.99 259.52 240.88 259.6 240.78 259.7 240.68 259.8 240.59 259.9 240.5 260.01 240.42 260.13 240.35 260.25 240.29 260.38 240.24 260.51 240.19 260.64 240.15 260.78 240.13 260.91 240.1 261.05 240.09 261.19 240.09 261.33 240.1 261.48 240.11 261.61 240.14 261.75 240.17 261.89 240.21 262.02 240.26 262.15 240.32 262.28 240.39 262.41 240.46 262.53 240.54 262.64 240.63 262.75 240.73 262.85 240.83 262.95 240.94 263.04 241.05 263.12 241.17 263.2 241.29 263.27 241.42 263.33 241.55 263.38 241.68 263.42 241.82 263.46 241.96 263.49 242.09 263.5 242.24 263.51 242.38 263.51 242.52 263.5 242.66 263.49 242.79 263.46 242.93 263.42 243.06 263.38 243.19 263.33 243.32 263.27 243.44 263.2 243.56 263.12 243.68 263.04 243.78 262.95 243.88 262.85 243.98 262.75 244.07 262.64 244.15 262.53 244.22 262.41 244.29 262.28 244.35 262.15 244.4 262.02 244.44 261.89 244.47 261.75 244.5 261.61 244.51 261.48 244.52 261.33 244.52 261.19 244.51 261.05 244.49 260.91 244.46 260.78 244.42 260.64 244.38 260.51 244.32 260.38 244.26 260.25 244.19 260.13 244.11 260.01 244.03 259.9 243.93 259.8 243.83 259.7 243.73 259.6 243.62 259.52 243.5 259.44 243.38 259.36 243.26 259.3 243.13 259.24 243 259.19 242.86 259.16 242.72 259.12 242.59 259.1 242.45 259.09 242.31 259.08"/></g><g id="ID000033"><line class="cls-3" x1="197.09" y1="158.98" x2="204.47" y2="158.98"/></g><g id="ID000034"><text class="cls-4" transform="translate(204.47 163.96)">40</text></g><g id="ID000045"><polygon class="cls-5" points="206.52 121 211.46 121.68 209.58 117.07 206.52 121"/></g><g id="ID000046"><polygon class="cls-5" points="216.57 116.92 216.51 116.79 216.45 116.66 216.38 116.54 216.3 116.43 216.21 116.32 216.12 116.21 216.01 116.11 215.91 116.02 215.79 115.94 215.68 115.86 215.56 115.79 215.43 115.73 215.3 115.68 215.17 115.63 215.03 115.59 214.89 115.57 214.75 115.55 214.62 115.54 214.47 115.53 214.33 115.54 214.19 115.56 214.06 115.58 213.92 115.62 213.78 115.66 213.65 115.71 213.53 115.77 213.4 115.84 213.28 115.91 213.17 115.99 213.06 116.08 212.96 116.18 212.86 116.28 212.77 116.39 212.69 116.5 212.61 116.62 212.55 116.74 212.49 116.87 212.44 117 212.39 117.14 212.36 117.27 212.33 117.41 212.31 117.55 212.31 117.69 212.31 117.83 212.32 117.97 212.34 118.11 212.36 118.25 212.4 118.38 212.44 118.52 212.5 118.65 212.56 118.77 212.63 118.9 212.7 119.01 212.79 119.13 212.88 119.23 212.97 119.33 213.08 119.43 213.19 119.52 213.3 119.6 213.42 119.67 213.55 119.74 213.68 119.8 213.81 119.84 213.94 119.89 214.08 119.92 214.22 119.94 214.36 119.96 214.5 119.96 214.64 119.96 214.78 119.95 214.92 119.93 215.05 119.9 215.19 119.86 215.32 119.81 215.45 119.76 215.58 119.7 215.7 119.63 215.81 119.55 215.93 119.46 216.03 119.37 216.13 119.27 216.22 119.16 216.31 119.05 216.39 118.94 216.46 118.82 216.53 118.69 216.58 118.56 216.63 118.43 216.67 118.29 216.7 118.16 216.72 118.02 216.73 117.88 216.74 117.74 216.73 117.6 216.72 117.46 216.69 117.32 216.66 117.18 216.62 117.05 216.57 116.92"/></g><g id="ID000059"><text class="cls-8" transform="translate(196.02 107.82)">A</text></g><g id="ID000076"><line class="cls-3" x1="195.09" y1="51.24" x2="202.47" y2="51.24"/></g><g id="ID000077"><text class="cls-4" transform="translate(202.47 55.22)">30</text></g><g id="ID000057"><text class="cls-4" transform="translate(140.25 116.12)">20</text></g><g id="ID000069"><text class="cls-9" transform="translate(163.48 66.29)">U</text></g><g id="ID000070"><text class="cls-9" transform="translate(163.48 55.22)">C</text></g><g id="ID000071"><text class="cls-9" transform="translate(163.17 41.38)">G</text></g><g id="ID000072"><text class="cls-10" transform="translate(169.33 27.54)">A</text></g><g id="ID000073"><text class="cls-9" transform="translate(179.78 27.54)">G</text></g><g id="ID000074"><text class="cls-10" transform="translate(185.94 41.38)">A</text></g><g id="ID000075"><text class="cls-9" transform="translate(185.32 55.22)">G</text></g><g id="ID000078"><text class="cls-10" transform="translate(185.94 66.29)">A</text></g><g id="ID000083"><line class="cls-3" x1="171.99" y1="72.38" x2="185.28" y2="72.38"/></g><g id="ID000084"><line class="cls-3" x1="171.99" y1="61.31" x2="185.28" y2="61.31"/></g><g id="ID000085"><line class="cls-3" x1="171.99" y1="50.24" x2="185.28" y2="50.24"/></g><g id="ID000086"><line class="cls-3" x1="171.99" y1="36.39" x2="185.28" y2="36.39"/></g><g id="ID000087"><polygon class="cls-7" points="172.88 36.39 177.19 38.89 177.19 33.9 172.88 36.39"/></g><g id="ID000088"><polygon class="cls-7" points="183.72 34.18 179.29 34.18 179.29 38.61 183.72 38.61 183.72 34.18"/></g><g id="ID000100"><line class="cls-3" x1="191.55" y1="385.99" x2="198.93" y2="385.99"/></g><g id="ID000101"><text class="cls-4" transform="translate(198.93 390.97)">60</text></g><g id="ID000110"><text class="cls-11" transform="translate(238.54 258.09)">A</text></g><g id="ID000111"><text class="cls-12" transform="translate(238.23 247.01)">C</text></g><g id="ID000112"><line class="cls-3" x1="231.38" y1="243.22" x2="238.76" y2="243.22"/></g><g id="ID000113"><text class="cls-4" transform="translate(219.34 247.15)">70</text></g><g id="ID000114"><line class="cls-6" x1="186.94" y1="275.17" x2="170.32" y2="295.94"/></g><g id="ID000115"><polygon class="cls-5" points="183.53 284.75 181.08 285.15 179.5 286.25 178.13 287.52 175.17 289.88 176.83 286.48 177.77 284.87 178.49 283.08 178.34 280.6 183.53 284.75"/></g><g id="ID000090"><text class="cls-13" transform="translate(163.17 302.38)">G</text></g><g id="ID000091"><text class="cls-13" transform="translate(163.17 313.46)">G</text></g><g id="ID000092"><text class="cls-13" transform="translate(163.48 324.53)">C</text></g><g id="ID000093"><text class="cls-13" transform="translate(163.48 335.6)">C</text></g><g id="ID000094"><text class="cls-13" transform="translate(163.48 346.68)">U</text></g><g id="ID000095"><text class="cls-14" transform="translate(163.8 357.75)">A</text></g><g id="ID000096"><text class="cls-13" transform="translate(163.48 368.83)">C</text></g><g id="ID000097"><text class="cls-13" transform="translate(163.48 379.9)">U</text></g><g id="ID000098"><text class="cls-13" transform="translate(169.02 390.97)">U</text></g><g id="ID000099"><text class="cls-13" transform="translate(180.1 390.97)">C</text></g><g id="ID000102"><text class="cls-13" transform="translate(185.32 379.9)">G</text></g><g id="ID000103"><text class="cls-13" transform="translate(185.32 368.83)">G</text></g><g id="ID000104"><text class="cls-13" transform="translate(185.63 357.75)">U</text></g><g id="ID000105"><text class="cls-14" transform="translate(185.94 346.68)">A</text></g><g id="ID000106"><text class="cls-13" transform="translate(185.32 335.6)">G</text></g><g id="ID000107"><text class="cls-13" transform="translate(185.32 324.53)">G</text></g><g id="ID000108"><text class="cls-13" transform="translate(185.63 313.46)">U</text></g><g id="ID000109"><text class="cls-13" transform="translate(185.63 302.38)">U</text></g><g id="ID000116"><polygon class="cls-5" points="180.85 297.4 180.84 297.26 180.83 297.12 180.81 296.98 180.78 296.84 180.74 296.71 180.69 296.58 180.63 296.45 180.57 296.32 180.49 296.2 180.41 296.09 180.33 295.98 180.23 295.87 180.13 295.77 180.03 295.68 179.92 295.6 179.8 295.52 179.68 295.45 179.55 295.39 179.42 295.33 179.29 295.29 179.15 295.25 179.01 295.22 178.88 295.2 178.74 295.19 178.6 295.19 178.46 295.19 178.31 295.21 178.18 295.23 178.04 295.27 177.91 295.31 177.78 295.36 177.65 295.42 177.52 295.48 177.4 295.56 177.29 295.64 177.18 295.73 177.08 295.82 176.98 295.92 176.89 296.03 176.81 296.14 176.73 296.26 176.66 296.38 176.6 296.51 176.55 296.64 176.51 296.78 176.47 296.91 176.44 297.05 176.43 297.19 176.42 297.33 176.42 297.47 176.43 297.61 176.44 297.75 176.47 297.89 176.51 298.02 176.55 298.16 176.6 298.29 176.66 298.42 176.73 298.54 176.81 298.66 176.89 298.77 176.98 298.88 177.08 298.98 177.18 299.07 177.29 299.16 177.4 299.24 177.52 299.32 177.65 299.38 177.78 299.44 177.91 299.49 178.04 299.54 178.18 299.57 178.31 299.59 178.46 299.61 178.6 299.61 178.74 299.61 178.88 299.6 179.01 299.58 179.15 299.55 179.29 299.51 179.42 299.47 179.55 299.42 179.68 299.35 179.8 299.28 179.92 299.2 180.03 299.12 180.13 299.03 180.23 298.93 180.33 298.82 180.41 298.71 180.49 298.6 180.57 298.48 180.63 298.35 180.69 298.22 180.74 298.09 180.78 297.96 180.81 297.82 180.83 297.68 180.84 297.54 180.85 297.4"/></g><g id="ID000117"><polygon class="cls-5" points="180.85 308.47 180.84 308.33 180.83 308.19 180.81 308.06 180.78 307.92 180.74 307.78 180.69 307.65 180.63 307.52 180.57 307.4 180.49 307.28 180.41 307.16 180.33 307.05 180.23 306.95 180.13 306.85 180.03 306.75 179.92 306.67 179.8 306.59 179.68 306.52 179.55 306.46 179.42 306.4 179.29 306.36 179.15 306.32 179.01 306.29 178.88 306.27 178.74 306.26 178.6 306.26 178.46 306.27 178.31 306.28 178.18 306.31 178.04 306.34 177.91 306.38 177.78 306.43 177.65 306.49 177.52 306.56 177.4 306.63 177.29 306.71 177.18 306.8 177.08 306.9 176.98 307 176.89 307.11 176.81 307.22 176.73 307.34 176.66 307.46 176.6 307.59 176.55 307.72 176.51 307.85 176.47 307.99 176.44 308.12 176.43 308.26 176.42 308.4 176.42 308.54 176.43 308.69 176.44 308.82 176.47 308.96 176.51 309.1 176.55 309.23 176.6 309.36 176.66 309.49 176.73 309.61 176.81 309.73 176.89 309.84 176.98 309.95 177.08 310.05 177.18 310.15 177.29 310.24 177.4 310.32 177.52 310.39 177.65 310.46 177.78 310.52 177.91 310.57 178.04 310.61 178.18 310.64 178.31 310.67 178.46 310.68 178.6 310.69 178.74 310.69 178.88 310.68 179.01 310.65 179.15 310.63 179.29 310.59 179.42 310.54 179.55 310.49 179.68 310.43 179.8 310.36 179.92 310.28 180.03 310.19 180.13 310.1 180.23 310 180.33 309.9 180.41 309.79 180.49 309.67 180.57 309.55 180.63 309.43 180.69 309.3 180.74 309.17 180.78 309.03 180.81 308.89 180.83 308.75 180.84 308.62 180.85 308.47"/></g><g id="ID000118"><line class="cls-3" x1="171.99" y1="319.55" x2="185.28" y2="319.55"/></g><g id="ID000119"><line class="cls-3" x1="171.99" y1="330.62" x2="185.28" y2="330.62"/></g><g id="ID000120"><line class="cls-3" x1="171.99" y1="341.7" x2="185.28" y2="341.7"/></g><g id="ID000121"><line class="cls-3" x1="171.99" y1="352.77" x2="185.28" y2="352.77"/></g><g id="ID000122"><line class="cls-3" x1="171.99" y1="363.84" x2="185.28" y2="363.84"/></g><g id="ID000123"><line class="cls-6" x1="193.09" y1="294.55" x2="238.92" y2="255.96"/></g><g id="ID000124"><polygon class="cls-5" points="218.67 268.88 221.15 268.96 222.92 268.19 224.51 267.21 227.87 265.47 225.58 268.49 224.34 269.89 223.29 271.5 222.95 273.96 218.67 268.88"/></g><g id="ID000126"><text class="cls-15" transform="translate(163.48 274.7)">U</text></g><g id="ID000127"><text class="cls-15" transform="translate(163.17 263.62)">G</text></g><g id="ID000128"><text class="cls-15" transform="translate(163.48 252.55)">U</text></g><g id="ID000129"><text class="cls-16" transform="translate(163.8 241.48)">A</text></g><g id="ID000130"><text class="cls-15" transform="translate(163.48 230.4)">C</text></g><g id="ID000131"><line class="cls-3" x1="160.17" y1="225.42" x2="152.79" y2="225.42"/></g><g id="ID000132"><text class="cls-4" transform="translate(140.25 230.4)">10</text></g><g id="ID000133"><text class="cls-15" transform="translate(163.48 219.33)">C</text></g><g id="ID000137"><text class="cls-15" transform="translate(185.32 219.33)">G</text></g><g id="ID000138"><text class="cls-15" transform="translate(185.32 230.4)">G</text></g><g id="ID000139"><text class="cls-15" transform="translate(185.63 241.48)">U</text></g><g id="ID000140"><text class="cls-16" transform="translate(185.94 252.55)">A</text></g><g id="ID000141"><text class="cls-15" transform="translate(185.63 263.62)">C</text></g><g id="ID000142"><text class="cls-16" transform="translate(185.94 274.7)">A</text></g><g id="ID000143"><line class="cls-3" x1="191.93" y1="269.49" x2="197.15" y2="264.27"/></g><g id="ID000144"><text class="cls-4" transform="translate(194.15 263.5)">50</text></g><g id="ID000145"><line class="cls-3" x1="171.99" y1="269.72" x2="185.28" y2="269.72"/></g><g id="ID000146"><line class="cls-3" x1="171.99" y1="258.64" x2="185.28" y2="258.64"/></g><g id="ID000147"><line class="cls-3" x1="171.99" y1="247.57" x2="185.28" y2="247.57"/></g><g id="ID000148"><line class="cls-3" x1="171.99" y1="236.49" x2="185.28" y2="236.49"/></g><g id="ID000149"><line class="cls-3" x1="171.99" y1="225.42" x2="185.28" y2="225.42"/></g><g id="ID000025"><text class="cls-8" transform="translate(163.8 175.03)">A</text></g><g id="ID000026"><text class="cls-17" transform="translate(163.17 163.96)">G</text></g><g id="ID000027"><text class="cls-17" transform="translate(163.17 152.88)">G</text></g><g id="ID000028"><text class="cls-17" transform="translate(163.17 141.81)">G</text></g><g id="ID000029"><text class="cls-8" transform="translate(153.72 139.04)">A</text></g><g id="ID000030"><text class="cls-8" transform="translate(185.94 141.81)">A</text></g><g id="ID000031"><text class="cls-17" transform="translate(185.63 152.88)">C</text></g><g id="ID000032"><text class="cls-17" transform="translate(185.63 163.96)">C</text></g><g id="ID000035"><text class="cls-8" transform="translate(185.94 175.03)">A</text></g><g id="ID000036"><text class="cls-8" transform="translate(186.2 185.55)">A</text></g><g id="ID000037"><line class="cls-3" x1="171.99" y1="170.05" x2="185.28" y2="170.05"/></g><g id="ID000038"><polygon class="cls-7" points="173.54 172.26 177.97 172.26 177.97 167.84 173.54 167.84 173.54 172.26"/></g><g id="ID000039"><polygon class="cls-7" points="184.39 170.05 180.07 167.56 180.07 172.54 184.39 170.05"/></g><g id="ID000040"><line class="cls-3" x1="171.99" y1="158.98" x2="185.28" y2="158.98"/></g><g id="ID000041"><line class="cls-3" x1="171.99" y1="147.9" x2="185.28" y2="147.9"/></g><g id="ID000042"><line class="cls-3" x1="171.99" y1="136.83" x2="185.28" y2="136.83"/></g><g id="ID000043"><polygon class="cls-7" points="180.85 136.83 180.84 136.69 180.83 136.55 180.81 136.41 180.78 136.27 180.74 136.14 180.69 136 180.63 135.88 180.57 135.75 180.49 135.63 180.41 135.51 180.33 135.4 180.23 135.3 180.13 135.2 180.03 135.11 179.92 135.02 179.8 134.95 179.68 134.88 179.55 134.81 179.42 134.76 179.29 134.71 179.15 134.68 179.01 134.65 178.88 134.63 178.74 134.62 178.6 134.61 178.46 134.62 178.31 134.63 178.18 134.66 178.04 134.69 177.91 134.74 177.78 134.78 177.65 134.84 177.52 134.91 177.4 134.98 177.29 135.06 177.18 135.15 177.08 135.25 176.98 135.35 176.89 135.46 176.81 135.57 176.73 135.69 176.66 135.81 176.6 135.94 176.55 136.07 176.51 136.2 176.47 136.34 176.44 136.48 176.43 136.62 176.42 136.76 176.42 136.9 176.43 137.04 176.44 137.18 176.47 137.32 176.51 137.45 176.55 137.59 176.6 137.72 176.66 137.84 176.73 137.97 176.81 138.08 176.89 138.2 176.98 138.31 177.08 138.41 177.18 138.5 177.29 138.59 177.4 138.67 177.52 138.75 177.65 138.81 177.78 138.87 177.91 138.92 178.04 138.96 178.18 139 178.31 139.02 178.46 139.04 178.6 139.04 178.74 139.04 178.88 139.03 179.01 139.01 179.15 138.98 179.29 138.94 179.42 138.9 179.55 138.84 179.68 138.78 179.8 138.71 179.92 138.63 180.03 138.55 180.13 138.46 180.23 138.36 180.33 138.25 180.41 138.14 180.49 138.03 180.57 137.91 180.63 137.78 180.69 137.65 180.74 137.52 180.78 137.38 180.81 137.25 180.83 137.11 180.84 136.97 180.85 136.83"/></g><g id="ID000044"><line class="cls-3" x1="171.66" y1="135.16" x2="252.04" y2="102.5"/></g><g id="ID000049"><line class="cls-3" x1="171.26" y1="181.53" x2="184.72" y2="181.82"/></g><g id="ID000050"><polygon class="cls-7" points="172.58 180.88 172.56 181.02 172.56 181.16 172.56 181.3 172.58 181.44 172.6 181.58 172.63 181.71 172.67 181.85 172.72 181.98 172.78 182.11 172.84 182.23 172.91 182.35 172.99 182.47 173.08 182.58 173.18 182.68 173.28 182.78 173.38 182.87 173.49 182.96 173.61 183.04 173.73 183.11 173.86 183.17 173.99 183.22 174.12 183.27 174.26 183.31 174.4 183.33 174.53 183.35 174.67 183.36 174.81 183.37 174.96 183.36 175.09 183.34 175.23 183.32 175.37 183.28 175.5 183.24 175.63 183.19 175.76 183.13 175.89 183.07 176.01 182.99 176.12 182.91 176.23 182.82 176.33 182.73 176.43 182.62 176.52 182.51 176.6 182.4 176.68 182.28 176.75 182.16 176.81 182.03 176.86 181.9 176.9 181.77 176.94 181.63 176.96 181.5 176.98 181.36 176.99 181.22 176.99 181.07 176.98 180.93 176.96 180.79 176.93 180.66 176.9 180.52 176.85 180.39 176.8 180.26 176.74 180.13 176.67 180.01 176.59 179.89 176.51 179.78 176.42 179.67 176.32 179.57 176.22 179.47 176.11 179.38 176 179.3 175.88 179.23 175.75 179.16 175.62 179.11 175.49 179.06 175.36 179.01 175.22 178.98 175.08 178.96 174.94 178.94 174.8 178.94 174.66 178.94 174.52 178.95 174.38 178.97 174.25 179 174.11 179.04 173.98 179.08 173.85 179.14 173.72 179.2 173.6 179.27 173.49 179.35 173.37 179.44 173.27 179.53 173.17 179.63 173.07 179.73 172.99 179.84 172.91 179.96 172.84 180.08 172.77 180.2 172.72 180.33 172.67 180.47 172.63 180.6 172.6 180.74 172.58 180.88"/></g><g id="ID000051"><polygon class="cls-7" points="183.75 179.69 179.32 179.61 179.23 184.04 183.66 184.12 183.75 179.69"/></g><g id="ID000062"><line class="cls-3" x1="171.99" y1="120.22" x2="185.28" y2="120.22"/></g><g id="ID000053"><text class="cls-17" transform="translate(153.41 129.97)">U</text></g><g id="ID000054"><text class="cls-17" transform="translate(163.48 127.2)">C</text></g><g id="ID000055"><text class="cls-17" transform="translate(163.48 116.12)">C</text></g><g id="ID000056"><line class="cls-3" x1="162.17" y1="112.14" x2="154.79" y2="112.14"/></g><g id="ID000058"><text class="cls-8" transform="translate(163.8 102.28)">A</text></g><g id="ID000060"><text class="cls-17" transform="translate(185.32 116.12)">G</text></g><g id="ID000061"><text class="cls-17" transform="translate(185.32 127.2)">G</text></g><g id="ID000063"><line class="cls-3" x1="171.99" y1="111.14" x2="185.28" y2="111.14"/></g><g id="ID000064"><line class="cls-3" x1="171.99" y1="97.3" x2="185.28" y2="97.3"/></g><g id="ID000065"><polygon class="cls-7" points="180.85 97.3 180.84 97.16 180.83 97.02 180.81 96.88 180.78 96.74 180.74 96.61 180.69 96.48 180.63 96.35 180.57 96.22 180.49 96.1 180.41 95.99 180.33 95.88 180.23 95.77 180.13 95.67 180.03 95.58 179.92 95.5 179.8 95.42 179.68 95.35 179.55 95.29 179.42 95.23 179.29 95.19 179.15 95.15 179.01 95.12 178.88 95.1 178.74 95.09 178.6 95.09 178.46 95.09 178.31 95.11 178.18 95.13 178.04 95.17 177.91 95.21 177.78 95.26 177.65 95.32 177.52 95.38 177.4 95.46 177.29 95.54 177.18 95.63 177.08 95.72 176.98 95.82 176.89 95.93 176.81 96.04 176.73 96.16 176.66 96.29 176.6 96.41 176.55 96.54 176.51 96.68 176.47 96.81 176.44 96.95 176.43 97.09 176.42 97.23 176.42 97.37 176.43 97.51 176.44 97.65 176.47 97.79 176.51 97.92 176.55 98.06 176.6 98.19 176.66 98.31 176.73 98.44 176.81 98.56 176.89 98.67 176.98 98.78 177.08 98.88 177.18 98.97 177.29 99.06 177.4 99.14 177.52 99.22 177.65 99.28 177.78 99.34 177.91 99.39 178.04 99.44 178.18 99.47 178.31 99.49 178.46 99.51 178.6 99.52 178.74 99.51 178.88 99.5 179.01 99.48 179.15 99.45 179.29 99.42 179.42 99.37 179.55 99.31 179.68 99.25 179.8 99.18 179.92 99.11 180.03 99.02 180.13 98.93 180.23 98.83 180.33 98.72 180.41 98.61 180.49 98.5 180.57 98.38 180.63 98.25 180.69 98.12 180.74 97.99 180.78 97.86 180.81 97.72 180.83 97.58 180.84 97.44 180.85 97.3"/></g><g id="ID000067"><text class="cls-17" transform="translate(163.48 88.44)">C</text></g><g id="ID000068"><text class="cls-17" transform="translate(163.48 77.37)">C</text></g><g id="ID000079"><text class="cls-17" transform="translate(185.32 77.37)">G</text></g><g id="ID000080"><text class="cls-17" transform="translate(185.32 88.44)">G</text></g><g id="ID000081"><text class="cls-8" transform="translate(185.94 102.28)">A</text></g><g id="ID000082"><line class="cls-3" x1="171.99" y1="83.46" x2="185.28" y2="83.46"/></g><g id="ID000134"><text class="cls-17" transform="translate(163.48 186.11)">U</text></g><g id="ID000135"><text class="cls-17" transform="translate(185.63 196.81)">G</text></g><g id="ID000136"><text class="cls-17" transform="translate(185.32 208.25)">C</text></g><g id="ID000150"><line class="cls-6" x1="167.56" y1="209.92" x2="167.56" y2="185.55"/></g><g id="ID000151"><polygon class="cls-5" points="164.24 201.43 165.9 199.58 166.45 197.74 166.73 195.89 167.56 192.2 168.39 195.89 168.66 197.74 169.22 199.58 170.88 201.43 164.24 201.43"/></g><g id="ID000152"><line class="cls-3" x1="171.99" y1="214.35" x2="185.28" y2="214.35"/></g><g id="ID000153"><line class="cls-3" x1="194.93" y1="186.66" x2="238.97" y2="228.04"/></g><g id="ID000154"><polygon class="cls-7" points="222.41 212.51 220.8 207.79 217.52 211.54 222.41 212.51"/></g><g id="ID000156"><text class="cls-11" transform="translate(238.54 235.94)">A</text></g><g id="ID000157"><text class="cls-12" transform="translate(246.54 224.87)">C</text></g><g id="ID000158"><text class="cls-12" transform="translate(246.54 213.79)">C</text></g><g id="ID000159"><text class="cls-12" transform="translate(246.22 202.72)">G</text></g><g id="ID000160"><text class="cls-12" transform="translate(246.54 191.64)">U</text></g><g id="ID000161"><text class="cls-12" transform="translate(246.22 180.57)">G</text></g><g id="ID000162"><text class="cls-12" transform="translate(246.22 169.5)">G</text></g><g id="ID000163"><text class="cls-12" transform="translate(246.22 158.42)">G</text></g><g id="ID000164"><text class="cls-12" transform="translate(246.22 147.35)">G</text></g><g id="ID000165"><text class="cls-11" transform="translate(246.85 133.51)">A</text></g><g id="ID000166"><line class="cls-3" x1="246.23" y1="129.52" x2="238.85" y2="129.52"/></g><g id="ID000167"><text class="cls-4" transform="translate(225.3 133.51)">80</text></g><g id="ID000168"><text class="cls-12" transform="translate(246.54 119.66)">U</text></g><g id="ID000169"><text class="cls-11" transform="translate(252.38 105.82)">A</text></g><g id="ID000170"><text class="cls-11" transform="translate(263.46 105.82)">A</text></g><g id="ID000171"><text class="cls-11" transform="translate(269 119.66)">A</text></g><g id="ID000172"><text class="cls-11" transform="translate(269 133.51)">A</text></g><g id="ID000173"><text class="cls-12" transform="translate(276.68 141.81)">G</text></g><g id="ID000174"><text class="cls-11" transform="translate(269 147.35)">A</text></g><g id="ID000175"><text class="cls-12" transform="translate(268.69 158.42)">C</text></g><g id="ID000176"><text class="cls-12" transform="translate(268.69 169.5)">C</text></g><g id="ID000177"><text class="cls-12" transform="translate(268.69 180.57)">C</text></g><g id="ID000178"><line class="cls-3" x1="277.14" y1="176.59" x2="284.52" y2="176.59"/></g><g id="ID000179"><text class="cls-4" transform="translate(285.52 181.57)">90</text></g><g id="ID000180"><text class="cls-12" transform="translate(268.37 191.64)">G</text></g><g id="ID000181"><text class="cls-12" transform="translate(268.69 202.72)">U</text></g><g id="ID000182"><text class="cls-12" transform="translate(268.37 213.79)">G</text></g><g id="ID000183"><text class="cls-12" transform="translate(268.37 224.87)">G</text></g><g id="ID000184"><text class="cls-12" transform="translate(268.69 235.94)">C</text></g><g id="ID000185"><text class="cls-2" transform="translate(269 247.01)">A</text></g><g id="ID000186"><line class="cls-3" x1="255.04" y1="219.88" x2="268.33" y2="219.88"/></g><g id="ID000187"><line class="cls-3" x1="255.04" y1="208.81" x2="268.33" y2="208.81"/></g><g id="ID000188"><polygon class="cls-5" points="263.9 197.74 263.9 197.59 263.88 197.45 263.86 197.31 263.83 197.18 263.79 197.04 263.74 196.91 263.69 196.78 263.62 196.66 263.55 196.54 263.47 196.42 263.38 196.31 263.29 196.21 263.19 196.11 263.08 196.02 262.97 195.93 262.85 195.85 262.73 195.78 262.61 195.72 262.48 195.66 262.34 195.62 262.21 195.58 262.07 195.55 261.93 195.53 261.79 195.52 261.65 195.52 261.51 195.53 261.37 195.54 261.23 195.57 261.1 195.6 260.96 195.64 260.83 195.69 260.7 195.75 260.58 195.82 260.46 195.89 260.35 195.97 260.24 196.06 260.13 196.16 260.04 196.26 259.94 196.37 259.86 196.48 259.79 196.6 259.72 196.72 259.66 196.85 259.6 196.98 259.56 197.11 259.52 197.25 259.5 197.38 259.48 197.52 259.47 197.66 259.47 197.81 259.48 197.94 259.5 198.08 259.52 198.22 259.56 198.36 259.6 198.49 259.66 198.62 259.72 198.75 259.79 198.87 259.86 198.99 259.94 199.1 260.04 199.21 260.13 199.31 260.24 199.41 260.35 199.5 260.46 199.58 260.58 199.65 260.7 199.72 260.83 199.78 260.96 199.83 261.1 199.87 261.23 199.9 261.37 199.93 261.51 199.94 261.65 199.95 261.79 199.95 261.93 199.94 262.07 199.92 262.21 199.89 262.34 199.85 262.48 199.8 262.61 199.75 262.73 199.69 262.85 199.62 262.97 199.54 263.08 199.45 263.19 199.36 263.29 199.26 263.38 199.16 263.47 199.05 263.55 198.93 263.62 198.81 263.69 198.69 263.74 198.56 263.79 198.43 263.83 198.29 263.86 198.15 263.88 198.01 263.9 197.88 263.9 197.74"/></g><g id="ID000189"><polygon class="cls-5" points="263.9 186.66 263.9 186.52 263.88 186.38 263.86 186.24 263.83 186.1 263.79 185.97 263.74 185.84 263.69 185.71 263.62 185.58 263.55 185.46 263.47 185.35 263.38 185.24 263.29 185.13 263.19 185.03 263.08 184.94 262.97 184.86 262.85 184.78 262.73 184.71 262.61 184.65 262.48 184.59 262.34 184.55 262.21 184.51 262.07 184.48 261.93 184.46 261.79 184.45 261.65 184.45 261.51 184.45 261.37 184.47 261.23 184.49 261.1 184.53 260.96 184.57 260.83 184.62 260.7 184.68 260.58 184.74 260.46 184.82 260.35 184.9 260.24 184.99 260.13 185.08 260.04 185.18 259.94 185.29 259.86 185.41 259.79 185.52 259.72 185.65 259.66 185.77 259.6 185.9 259.56 186.04 259.52 186.17 259.5 186.31 259.48 186.45 259.47 186.59 259.47 186.73 259.48 186.87 259.5 187.01 259.52 187.15 259.56 187.28 259.6 187.42 259.66 187.55 259.72 187.68 259.79 187.8 259.86 187.92 259.94 188.03 260.04 188.14 260.13 188.24 260.24 188.34 260.35 188.42 260.46 188.5 260.58 188.58 260.7 188.65 260.83 188.7 260.96 188.75 261.1 188.8 261.23 188.83 261.37 188.85 261.51 188.87 261.65 188.88 261.79 188.87 261.93 188.86 262.07 188.84 262.21 188.81 262.34 188.78 262.48 188.73 262.61 188.68 262.73 188.61 262.85 188.54 262.97 188.47 263.08 188.38 263.19 188.29 263.29 188.19 263.38 188.08 263.47 187.97 263.55 187.86 263.62 187.74 263.69 187.61 263.74 187.48 263.79 187.35 263.83 187.22 263.86 187.08 263.88 186.94 263.9 186.8 263.9 186.66"/></g><g id="ID000190"><line class="cls-3" x1="255.04" y1="175.59" x2="268.33" y2="175.59"/></g><g id="ID000191"><line class="cls-3" x1="255.04" y1="164.51" x2="268.33" y2="164.51"/></g><g id="ID000192"><line class="cls-3" x1="255.04" y1="153.44" x2="268.33" y2="153.44"/></g><g id="ID000193"><line class="cls-3" x1="255.04" y1="142.37" x2="268.33" y2="142.37"/></g><g id="ID000194"><polygon class="cls-5" points="263.9 142.37 263.9 142.22 263.88 142.08 263.86 141.95 263.83 141.81 263.79 141.67 263.74 141.54 263.69 141.41 263.62 141.29 263.55 141.17 263.47 141.05 263.38 140.94 263.29 140.84 263.19 140.74 263.08 140.65 262.97 140.56 262.85 140.48 262.73 140.41 262.61 140.35 262.48 140.3 262.34 140.25 262.21 140.21 262.07 140.18 261.93 140.16 261.79 140.15 261.65 140.15 261.51 140.16 261.37 140.17 261.23 140.2 261.1 140.23 260.96 140.27 260.83 140.32 260.7 140.38 260.58 140.45 260.46 140.52 260.35 140.6 260.24 140.69 260.13 140.79 260.04 140.89 259.94 141 259.86 141.11 259.79 141.23 259.72 141.35 259.66 141.48 259.6 141.61 259.56 141.74 259.52 141.88 259.5 142.01 259.48 142.15 259.47 142.29 259.47 142.44 259.48 142.57 259.5 142.72 259.52 142.85 259.56 142.99 259.6 143.12 259.66 143.25 259.72 143.38 259.79 143.5 259.86 143.62 259.94 143.73 260.04 143.84 260.13 143.94 260.24 144.04 260.35 144.13 260.46 144.21 260.58 144.28 260.7 144.35 260.83 144.41 260.96 144.46 261.1 144.5 261.23 144.53 261.37 144.56 261.51 144.57 261.65 144.58 261.79 144.58 261.93 144.57 262.07 144.55 262.21 144.52 262.34 144.48 262.48 144.43 262.61 144.38 262.73 144.32 262.85 144.25 262.97 144.17 263.08 144.08 263.19 143.99 263.29 143.89 263.38 143.79 263.47 143.68 263.55 143.56 263.62 143.44 263.69 143.32 263.74 143.19 263.79 143.06 263.83 142.92 263.86 142.78 263.88 142.65 263.9 142.5 263.9 142.37"/></g><g id="ID000195"><line class="cls-3" x1="255.04" y1="128.52" x2="268.33" y2="128.52"/></g><g id="ID000196"><polygon class="cls-7" points="256.59 128.52 256.6 128.66 256.61 128.8 256.63 128.94 256.66 129.08 256.7 129.21 256.75 129.35 256.81 129.47 256.87 129.6 256.94 129.72 257.02 129.84 257.11 129.95 257.2 130.05 257.3 130.15 257.41 130.24 257.52 130.33 257.64 130.41 257.76 130.47 257.89 130.54 258.02 130.59 258.15 130.64 258.28 130.68 258.42 130.7 258.56 130.72 258.7 130.73 258.84 130.74 258.98 130.73 259.12 130.72 259.26 130.69 259.4 130.66 259.53 130.62 259.66 130.56 259.79 130.51 259.91 130.44 260.03 130.37 260.15 130.28 260.26 130.2 260.36 130.1 260.46 130 260.55 129.89 260.63 129.78 260.71 129.66 260.77 129.54 260.83 129.41 260.89 129.28 260.93 129.15 260.97 129.01 260.99 128.87 261.01 128.73 261.02 128.59 261.02 128.45 261.01 128.31 260.99 128.17 260.97 128.03 260.93 127.9 260.89 127.77 260.83 127.63 260.77 127.51 260.71 127.39 260.63 127.27 260.55 127.15 260.46 127.05 260.36 126.94 260.26 126.85 260.15 126.76 260.03 126.68 259.91 126.61 259.79 126.54 259.66 126.48 259.53 126.43 259.4 126.39 259.26 126.35 259.12 126.33 258.98 126.31 258.84 126.31 258.7 126.31 258.56 126.32 258.42 126.34 258.28 126.37 258.15 126.41 258.02 126.45 257.89 126.51 257.76 126.57 257.64 126.64 257.52 126.72 257.41 126.8 257.3 126.9 257.2 126.99 257.11 127.1 257.02 127.21 256.94 127.33 256.87 127.45 256.81 127.57 256.75 127.7 256.7 127.83 256.66 127.97 256.63 128.1 256.61 128.24 256.6 128.38 256.59 128.52"/></g><g id="ID000197"><polygon class="cls-7" points="266.78 126.31 262.35 126.31 262.35 130.74 266.78 130.74 266.78 126.31"/></g><g id="ID000198"><line class="cls-3" x1="255.04" y1="114.68" x2="268.33" y2="114.68"/></g><g id="ID000199"><polygon class="cls-7" points="256.59 114.68 256.6 114.82 256.61 114.96 256.63 115.1 256.66 115.24 256.7 115.37 256.75 115.5 256.81 115.63 256.87 115.76 256.94 115.88 257.02 115.99 257.11 116.1 257.2 116.21 257.3 116.31 257.41 116.4 257.52 116.48 257.64 116.56 257.76 116.63 257.89 116.69 258.02 116.75 258.15 116.8 258.28 116.83 258.42 116.86 258.56 116.88 258.7 116.89 258.84 116.89 258.98 116.89 259.12 116.87 259.26 116.85 259.4 116.81 259.53 116.77 259.66 116.72 259.79 116.66 259.91 116.6 260.03 116.52 260.15 116.44 260.26 116.35 260.36 116.26 260.46 116.16 260.55 116.05 260.63 115.94 260.71 115.82 260.77 115.69 260.83 115.57 260.89 115.44 260.93 115.3 260.97 115.17 260.99 115.03 261.01 114.89 261.02 114.75 261.02 114.61 261.01 114.47 260.99 114.33 260.97 114.19 260.93 114.06 260.89 113.92 260.83 113.79 260.77 113.67 260.71 113.54 260.63 113.42 260.55 113.31 260.46 113.2 260.36 113.1 260.26 113.01 260.15 112.92 260.03 112.84 259.91 112.76 259.79 112.7 259.66 112.64 259.53 112.59 259.4 112.55 259.26 112.51 259.12 112.49 258.98 112.47 258.84 112.47 258.7 112.47 258.56 112.48 258.42 112.5 258.28 112.53 258.15 112.56 258.02 112.61 257.89 112.67 257.76 112.73 257.64 112.8 257.52 112.88 257.41 112.96 257.3 113.05 257.2 113.15 257.11 113.26 257.02 113.37 256.94 113.48 256.87 113.6 256.81 113.73 256.75 113.86 256.7 113.99 256.66 114.12 256.63 114.26 256.61 114.4 256.6 114.54 256.59 114.68"/></g><g id="ID000200"><polygon class="cls-7" points="266.78 112.47 262.35 112.47 262.35 116.89 266.78 116.89 266.78 112.47"/></g><text class="cls-18" transform="translate(5.67 19.46)">ppGpp Riboswitch</text><text class="cls-19" transform="translate(120.4 51.24)">P2c</text><text class="cls-20" transform="translate(121.94 161.29)">P2b</text><text class="cls-21" transform="translate(121.94 255.96)">P2a</text><text class="cls-22" transform="translate(121.94 357.75)">P3</text><text class="cls-23" transform="translate(290.3 161.51)">P4</text><text class="cls-24" transform="translate(284.52 267.78)">J4-1</text><text class="cls-25" transform="translate(291.84 319.55) scale(0.82 1)">P1</text><text class="cls-26" transform="translate(235.07 319.82)">5&apos;</text><text class="cls-26" transform="translate(280.83 319.55)">3&apos;</text><ellipse class="cls-27" cx="257.53" cy="248.6" rx="10.3" ry="24.8"/><text class="cls-28" transform="translate(260.88 266.36) rotate(-90)">ppGpp</text></svg>