<?xml version="1.0" encoding="UTF-8"?><svg id="_图层_1" xmlns="http://www.w3.org/2000/svg" viewBox="0 0 385.49 381.59"><defs><style>.cls-1{font-size:12.53px;}.cls-1,.cls-2,.cls-3,.cls-4{font-family:ArialMT, Arial;}.cls-5{fill:#fff;}.cls-6{letter-spacing:-.05em;}.cls-7{letter-spacing:.23em;}.cls-8,.cls-9,.cls-10,.cls-11,.cls-12,.cls-13,.cls-14,.cls-15,.cls-16,.cls-17,.cls-18,.cls-19,.cls-20{font-family:Arial-BoldMT, Arial;font-weight:700;}.cls-8,.cls-10,.cls-13,.cls-15,.cls-20{font-size:12.5px;}.cls-8,.cls-14,.cls-21{fill:#d3090f;}.cls-22{fill:#fadde0;}.cls-23{stroke-width:.31px;}.cls-23,.cls-24,.cls-25,.cls-26,.cls-27{fill:none;stroke:#000;}.cls-23,.cls-24,.cls-25,.cls-27{stroke-miterlimit:10;}.cls-9,.cls-2,.cls-16,.cls-3{font-size:12.54px;}.cls-9,.cls-3{fill:#202020;}.cls-10,.cls-11,.cls-28{fill:#877e8b;}.cls-11,.cls-12,.cls-14,.cls-17,.cls-19{font-size:12.5px;}.cls-29{letter-spacing:0em;}.cls-30{letter-spacing:.29em;}.cls-31{letter-spacing:.29em;}.cls-32{letter-spacing:.26em;}.cls-33{letter-spacing:.28em;}.cls-12,.cls-20{fill:#89808d;}.cls-24{stroke-width:.62px;}.cls-25,.cls-26{stroke-width:.43px;}.cls-15,.cls-19{fill:#d42917;}.cls-34{letter-spacing:.99em;}.cls-35{letter-spacing:0em;}.cls-27{stroke-width:.86px;}.cls-36{letter-spacing:.01em;}.cls-4{font-size:20px;}.cls-37{fill:#e0ebc8;}.cls-18{font-size:15px;}.cls-38{letter-spacing:.88em;}</style></defs><g><rect class="cls-37" x="214.89" y="191.98" width="29.46" height="9.73"/><line class="cls-24" x1="226.37" y1="196.85" x2="232.86" y2="196.85"/><rect class="cls-37" x="214.89" y="179.38" width="29.46" height="9.73"/><line class="cls-24" x1="226.37" y1="184.24" x2="232.86" y2="184.24"/><rect class="cls-37" x="214.89" y="166.79" width="29.46" height="9.72"/><line class="cls-24" x1="226.37" y1="171.64" x2="232.86" y2="171.64"/><rect class="cls-37" x="139.21" y="271.14" width="30.21" height="8.98"/><line class="cls-24" x1="151.07" y1="275.62" x2="157.56" y2="275.62"/><rect class="cls-37" x="139.21" y="283.73" width="30.21" height="8.98"/><line class="cls-24" x1="151.07" y1="288.22" x2="157.56" y2="288.22"/><rect class="cls-37" x="139.21" y="308.94" width="30.21" height="8.98"/><line class="cls-24" x1="151.07" y1="313.43" x2="157.56" y2="313.43"/><line class="cls-24" x1="226.37" y1="254.81" x2="232.86" y2="254.81"/><rect class="cls-37" x="214.51" y="237.73" width="30.2" height="8.98"/><line class="cls-24" x1="226.37" y1="242.21" x2="232.86" y2="242.21"/><text class="cls-10" transform="translate(139.64 280.11)"><tspan x="0" y="0">R</tspan></text><text class="cls-10" transform="translate(139.98 292.71)"><tspan x="0" y="0">Y</tspan></text><text class="cls-10" transform="translate(139.64 317.92)"><tspan class="cls-34" x="0" y="0">Y</tspan><tspan class="cls-29" x="20.75" y="0">R</tspan></text><text class="cls-10" transform="translate(160.45 280.11)"><tspan x="0" y="0">Y</tspan></text><text class="cls-10" transform="translate(160.1 292.71)"><tspan x="0" y="0">R</tspan></text><text class="cls-10" transform="translate(168.61 268.22)"><tspan x="0" y="0">U</tspan></text><text class="cls-8" transform="translate(193.6 268.22)"><tspan class="cls-30" x="0" y="0">C</tspan><tspan x="12.63" y="0">A</tspan></text><text class="cls-13" transform="translate(214.85 246.7)"><tspan x="0" y="0">C</tspan></text><text class="cls-8" transform="translate(214.85 259.31)"><tspan x="0" y="0">C</tspan></text><text class="cls-10" transform="translate(214.5 201.25)"><tspan x="0" y="0">G</tspan></text><text class="cls-13" transform="translate(214.85 188.65)"><tspan x="0" y="0">G</tspan></text><text class="cls-10" transform="translate(215.21 176.05)"><tspan x="0" y="0">G</tspan></text><text class="cls-8" transform="translate(207.04 166.43)"><tspan x="0" y="0">A</tspan></text><text class="cls-8" transform="translate(244.5 153.84)"><tspan x="0" y="0">A</tspan></text><text class="cls-10" transform="translate(234.96 176.05)"><tspan x="0" y="0">C</tspan></text><text class="cls-13" transform="translate(235.66 188.65)"><tspan x="0" y="0">C</tspan></text><text class="cls-8" transform="translate(213.46 143.42)"><tspan x="0" y="0">A</tspan></text><text class="cls-14" transform="translate(213.46 143.42)"><tspan x="0" y="0"> </tspan></text><text class="cls-8" transform="translate(225.44 139.39)"><tspan x="0" y="0">A</tspan></text><text class="cls-14" transform="translate(225.44 139.39)"><tspan x="0" y="0"> </tspan></text><text class="cls-8" transform="translate(237.41 143.42)"><tspan x="0" y="0">A</tspan></text><text class="cls-8" transform="translate(235.31 201.25)"><tspan x="0" y="0">Y</tspan></text><text class="cls-8" transform="translate(234.96 246.7)"><tspan x="0" y="0">G</tspan></text><text class="cls-10" transform="translate(234.96 259.31)"><tspan x="0" y="0">G</tspan></text><rect class="cls-37" x="100.82" y="237.41" width="30.21" height="8.98"/><line class="cls-24" x1="112.68" y1="241.9" x2="119.18" y2="241.9"/><rect class="cls-37" x="100.82" y="224.81" width="30.21" height="8.98"/><line class="cls-24" x1="112.68" y1="229.3" x2="119.18" y2="229.3"/><rect class="cls-37" x="100.82" y="212.2" width="30.21" height="8.98"/><line class="cls-24" x1="112.68" y1="216.69" x2="119.18" y2="216.69"/><rect class="cls-37" x="100.82" y="199.61" width="30.21" height="8.98"/><text class="cls-13" transform="translate(269.13 268.22)"><tspan x="0" y="0">A</tspan></text><text class="cls-17" transform="translate(269.13 268.22)"><tspan x="0" y="0"> </tspan></text><text class="cls-8" transform="translate(281.07 268.22)"><tspan class="cls-33" x="0" y="0">R</tspan><tspan class="cls-32" x="12.59" y="0">G</tspan><tspan class="cls-33" x="25.54" y="0">U</tspan><tspan x="38.13" y="0">Y</tspan></text><text class="cls-14" transform="translate(306.69 268.22)"><tspan x="0" y="0"> </tspan></text><text class="cls-10" transform="translate(331.96 268.22)"><tspan x="0" y="0">C</tspan></text><text class="cls-11" transform="translate(331.96 268.22)"><tspan x="0" y="0"> </tspan></text><text class="cls-8" transform="translate(344.95 268.22)"><tspan x="0" y="0">Y</tspan></text><line class="cls-24" x1="112.68" y1="204.09" x2="119.18" y2="204.09"/><rect class="cls-22" x="100.82" y="100.96" width="30.21" height="8.98"/><line class="cls-24" x1="112.68" y1="105.44" x2="119.18" y2="105.44"/><rect class="cls-37" x="100.82" y="77.97" width="30.21" height="8.98"/><line class="cls-24" x1="112.68" y1="82.46" x2="119.18" y2="82.46"/><rect class="cls-37" x="100.82" y="65.37" width="30.21" height="8.98"/><line class="cls-24" x1="112.68" y1="69.86" x2="119.18" y2="69.86"/><rect class="cls-37" x="100.82" y="52.77" width="30.21" height="8.98"/><line class="cls-24" x1="112.68" y1="57.25" x2="119.18" y2="57.25"/><text class="cls-13" transform="translate(101.51 208.58)"><tspan x="0" y="0">Y</tspan></text><text class="cls-13" transform="translate(101.16 221.18)"><tspan x="0" y="0">R</tspan></text><text class="cls-8" transform="translate(101.51 233.78)"><tspan x="0" y="0">Y</tspan></text><text class="cls-10" transform="translate(100.81 246.39)"><tspan x="0" y="0">G</tspan></text><text class="cls-8" transform="translate(101.16 109.93)"><tspan x="0" y="0">C</tspan></text><text class="cls-8" transform="translate(41.34 268.21)"><tspan x="0" y="0">R</tspan></text><text class="cls-14" transform="translate(41.34 268.22)"><tspan x="0" y="0"> </tspan></text><text class="cls-10" transform="translate(54.33 268.22)"><tspan x="0" y="0">G</tspan></text><text class="cls-11" transform="translate(54.33 268.22)"><tspan x="0" y="0"> </tspan></text><text class="cls-8" transform="translate(67.3 268.22)"><tspan class="cls-31" x="0" y="0">R</tspan><tspan class="cls-7" x="12.6" y="0">A</tspan><tspan class="cls-29" x="24.5" y="0">G</tspan></text><text class="cls-13" transform="translate(95.64 98.45)"><tspan x="0" y="0">G</tspan></text><path d="M109.97,82.46c0,2.35-1.91,4.26-4.27,4.26s-4.27-1.91-4.27-4.26,1.91-4.26,4.27-4.26,4.27,1.91,4.27,4.26"/><path class="cls-23" d="M109.97,82.46c0,2.35-1.91,4.26-4.27,4.26s-4.27-1.91-4.27-4.26,1.91-4.26,4.27-4.26,4.27,1.91,4.27,4.26Z"/><path d="M109.97,69.86c0,2.36-1.91,4.27-4.27,4.27s-4.27-1.91-4.27-4.27,1.91-4.26,4.27-4.26,4.27,1.91,4.27,4.26"/><path class="cls-23" d="M109.97,69.86c0,2.36-1.91,4.27-4.27,4.27s-4.27-1.91-4.27-4.27,1.91-4.26,4.27-4.26,4.27,1.91,4.27,4.26Z"/><path class="cls-28" d="M109.97,57.25c0,2.36-1.91,4.26-4.27,4.26s-4.27-1.91-4.27-4.26,1.91-4.26,4.27-4.26,4.27,1.91,4.27,4.26"/><path class="cls-23" d="M109.97,57.25c0,2.36-1.91,4.26-4.27,4.26s-4.27-1.91-4.27-4.26,1.91-4.26,4.27-4.26,4.27,1.91,4.27,4.26Z"/><path class="cls-28" d="M130.43,57.25c0,2.36-1.91,4.26-4.27,4.26s-4.27-1.91-4.27-4.26,1.91-4.26,4.27-4.26,4.27,1.91,4.27,4.26"/><path class="cls-23" d="M130.43,57.25c0,2.36-1.91,4.26-4.27,4.26s-4.27-1.91-4.27-4.26,1.91-4.26,4.27-4.26,4.27,1.91,4.27,4.26Z"/><path d="M130.43,69.86c0,2.36-1.91,4.27-4.27,4.27s-4.27-1.91-4.27-4.27,1.91-4.26,4.27-4.26,4.27,1.91,4.27,4.26"/><path class="cls-23" d="M130.43,69.86c0,2.36-1.91,4.27-4.27,4.27s-4.27-1.91-4.27-4.27,1.91-4.26,4.27-4.26,4.27,1.91,4.27,4.26Z"/><path d="M130.43,82.46c0,2.35-1.91,4.26-4.27,4.26s-4.27-1.91-4.27-4.26,1.91-4.26,4.27-4.26,4.27,1.91,4.27,4.26"/><path class="cls-23" d="M130.43,82.46c0,2.35-1.91,4.26-4.27,4.26s-4.27-1.91-4.27-4.26,1.91-4.26,4.27-4.26,4.27,1.91,4.27,4.26Z"/><text class="cls-13" transform="translate(133.45 85.9)"><tspan x="0" y="0">G</tspan></text><path d="M152.62,87.65c0,2.35-1.91,4.26-4.27,4.26s-4.27-1.91-4.27-4.26,1.91-4.26,4.27-4.26,4.27,1.91,4.27,4.26"/><path class="cls-23" d="M152.62,87.65c0,2.35-1.91,4.26-4.27,4.26s-4.27-1.91-4.27-4.26,1.91-4.26,4.27-4.26,4.27,1.91,4.27,4.26Z"/><text class="cls-8" transform="translate(121.27 109.93)"><tspan x="0" y="0">G</tspan></text><text class="cls-14" transform="translate(121.27 109.92)"><tspan x="0" y="0"> </tspan></text><text class="cls-10" transform="translate(133.8 111.13)"><tspan x="0" y="0">U</tspan></text><text class="cls-10" transform="translate(144.16 104.74)"><tspan x="0" y="0">C</tspan></text><text class="cls-13" transform="translate(27.46 267.9)"><tspan x="0" y="0">5´</tspan></text><text class="cls-13" transform="translate(131.03 268.21)"><tspan x="0" y="0">R</tspan></text><rect class="cls-37" x="139.59" y="321.16" width="29.46" height="9.73"/><text class="cls-13" transform="translate(121.63 208.58)"><tspan x="0" y="0">R</tspan></text><text class="cls-13" transform="translate(121.96 221.18)"><tspan x="0" y="0">Y</tspan></text><text class="cls-8" transform="translate(121.63 233.78)"><tspan x="0" y="0">R</tspan></text><text class="cls-10" transform="translate(121.63 246.38)"><tspan x="0" y="0">C</tspan></text><text class="cls-10" transform="translate(121.63 258.98)"><tspan x="0" y="0">R</tspan></text><line class="cls-24" x1="151.07" y1="326.03" x2="157.56" y2="326.03"/><path class="cls-28" d="M144.08,330.29c2.36,0,4.28-1.91,4.28-4.26s-1.92-4.26-4.28-4.26-4.27,1.91-4.27,4.26,1.92,4.26,4.27,4.26"/><path class="cls-23" d="M144.08,330.29c2.36,0,4.28-1.91,4.28-4.26s-1.92-4.26-4.28-4.26-4.27,1.91-4.27,4.26,1.92,4.26,4.27,4.26Z"/><path class="cls-28" d="M164.55,330.29c2.36,0,4.27-1.91,4.27-4.26s-1.91-4.26-4.27-4.26-4.28,1.91-4.28,4.26,1.92,4.26,4.28,4.26"/><rect class="cls-37" x="139.59" y="295.96" width="29.46" height="9.73"/><line class="cls-24" x1="151.07" y1="300.82" x2="157.56" y2="300.82"/><path class="cls-21" d="M144.08,305.09c2.36,0,4.28-1.91,4.28-4.27s-1.92-4.26-4.28-4.26-4.27,1.91-4.27,4.26,1.92,4.27,4.27,4.27"/><path class="cls-23" d="M144.08,305.09c2.36,0,4.28-1.91,4.28-4.27s-1.92-4.26-4.28-4.26-4.27,1.91-4.27,4.26,1.92,4.27,4.27,4.27Z"/><path class="cls-21" d="M164.55,305.09c2.36,0,4.27-1.91,4.27-4.27s-1.91-4.26-4.27-4.26-4.28,1.91-4.28,4.26,1.91,4.27,4.28,4.27"/><path class="cls-23" d="M164.55,305.09c2.36,0,4.27-1.91,4.27-4.27s-1.91-4.26-4.27-4.26-4.28,1.91-4.28,4.26,1.91,4.27,4.28,4.27Z"/><text class="cls-8" transform="translate(180.93 268.22)"><tspan x="0" y="0">A</tspan></text><path class="cls-21" d="M214.91,150.52c0,2.35-1.91,4.26-4.27,4.26s-4.28-1.91-4.28-4.26,1.91-4.27,4.28-4.27,4.27,1.91,4.27,4.27"/><path class="cls-23" d="M214.91,150.52c0,2.35-1.91,4.26-4.27,4.26s-4.28-1.91-4.28-4.26,1.91-4.27,4.28-4.27,4.27,1.91,4.27,4.27Z"/><text class="cls-10" transform="translate(243.74 167.17)"><tspan x="0" y="0">G</tspan></text><path class="cls-5" d="M212.34,202.1c2.36,0,4.27,1.91,4.27,4.27s-1.91,4.26-4.27,4.26-4.27-1.91-4.27-4.26,1.91-4.27,4.27-4.27"/><path class="cls-23" d="M212.34,202.1c2.36,0,4.27,1.91,4.27,4.27s-1.91,4.26-4.27,4.26-4.27-1.91-4.27-4.26,1.91-4.27,4.27-4.27Z"/><path d="M252.45,196.79c2.36,0,4.27,1.91,4.27,4.26s-1.91,4.27-4.27,4.27-4.28-1.91-4.28-4.27,1.91-4.26,4.28-4.26"/><path class="cls-23" d="M251.73,196.79c2.36,0,4.28,1.91,4.28,4.26s-1.91,4.27-4.28,4.27-4.27-1.91-4.27-4.27,1.91-4.26,4.27-4.26Z"/><text class="cls-10" transform="translate(247.21 228.86)"><tspan x="0" y="0">G</tspan></text><path class="cls-5" d="M248.99,259.31c2.36,0,4.28,1.91,4.28,4.26s-1.91,4.27-4.28,4.27-4.28-1.91-4.28-4.27,1.91-4.26,4.28-4.26"/><path class="cls-23" d="M248.99,259.31c2.36,0,4.28,1.91,4.28,4.26s-1.91,4.27-4.28,4.27-4.28-1.91-4.28-4.27,1.91-4.26,4.28-4.26Z"/><path class="cls-21" d="M261.63,259.31c2.36,0,4.28,1.91,4.28,4.26s-1.92,4.27-4.28,4.27-4.27-1.91-4.27-4.27,1.91-4.26,4.27-4.26"/><path class="cls-23" d="M261.63,259.31c2.36,0,4.28,1.91,4.28,4.26s-1.92,4.27-4.28,4.27-4.27-1.91-4.27-4.27,1.91-4.26,4.27-4.26Z"/><rect class="cls-22" x="100.47" y="187.52" width="30.21" height="8.98"/><line class="cls-24" x1="112.32" y1="192.01" x2="118.82" y2="192.01"/><rect class="cls-22" x="100.47" y="112.42" width="30.21" height="8.98"/><line class="cls-24" x1="112.32" y1="116.9" x2="118.82" y2="116.9"/><text class="cls-8" transform="translate(90.39 192.01)"><tspan x="0" y="0">U</tspan></text><text class="cls-8" transform="translate(100.82 196.5)"><tspan x="0" y="0">C</tspan></text><text class="cls-8" transform="translate(81.62 181.74)"><tspan x="0" y="0">A</tspan></text><text class="cls-8" transform="translate(74.56 170.72)"><tspan x="0" y="0">G</tspan></text><text class="cls-8" transform="translate(72.05 158.77)"><tspan x="0" y="0">G</tspan></text><text class="cls-8" transform="translate(74.56 145.76)"><tspan x="0" y="0">G</tspan></text><path class="cls-21" d="M141.08,121.39c0,2.35-1.91,4.27-4.27,4.27s-4.28-1.91-4.28-4.27,1.91-4.26,4.28-4.26,4.27,1.91,4.27,4.26"/><path class="cls-23" d="M141.08,121.39c0,2.35-1.91,4.27-4.27,4.27s-4.28-1.91-4.28-4.27,1.91-4.26,4.28-4.26,4.27,1.91,4.27,4.26Z"/><text class="cls-8" transform="translate(150.94 158.79)"><tspan x="0" y="0">R</tspan></text><text class="cls-8" transform="translate(146.93 170.74)"><tspan x="0" y="0">A</tspan></text><text class="cls-8" transform="translate(141.09 181.75)"><tspan x="0" y="0">G</tspan></text><text class="cls-8" transform="translate(120.93 196.52)"><tspan x="0" y="0">G</tspan></text><text class="cls-14" transform="translate(120.93 196.52)"><tspan x="0" y="0"> </tspan></text><text class="cls-8" transform="translate(132.54 192.03)"><tspan x="0" y="0">Y</tspan></text><path class="cls-27" d="M104.04,50.51v-13.93c-4.51-3.45-7.42-8.88-7.42-15,0-10.44,8.48-18.9,18.95-18.9s18.96,8.46,18.96,18.9c0,6.11-2.9,11.54-7.42,15v13.93"/><text class="cls-10" transform="translate(81.62 135.29)"><tspan x="0" y="0">U</tspan></text><text class="cls-8" transform="translate(90.39 127.27)"><tspan x="0" y="0">U</tspan></text><text class="cls-8" transform="translate(100.82 121.38)"><tspan x="0" y="0">C</tspan></text><text class="cls-14" transform="translate(100.82 121.38)"><tspan x="0" y="0"> </tspan></text><text class="cls-13" transform="translate(120.93 121.38)"><tspan x="0" y="0">G</tspan></text><text class="cls-17" transform="translate(120.93 121.38)"><tspan x="0" y="0"> </tspan></text><text class="cls-8" transform="translate(141.92 135.3)"><tspan x="0" y="0">C</tspan></text><text class="cls-8" transform="translate(147.62 145.35)"><tspan x="0" y="0">C</tspan></text><line class="cls-24" x1="111.91" y1="43.77" x2="119.23" y2="43.77"/><path class="cls-27" d="M165.85,333.33v13.93c4.51,3.45,7.42,8.88,7.42,15,0,10.44-8.49,18.9-18.95,18.9s-18.95-8.46-18.95-18.9c0-6.11,2.9-11.54,7.41-15v-3.25s0-10.68,0-10.68"/><line class="cls-24" x1="157.98" y1="340.07" x2="150.65" y2="340.07"/><text class="cls-15" transform="translate(165.19 42.7)"><tspan x="0" y="0">N</tspan></text><text class="cls-19" transform="translate(165.19 42.7)"><tspan x="0" y="0"> </tspan></text><text class="cls-2" transform="translate(180.97 42.7) scale(1 1.05)"><tspan x="0" y="0">97%</tspan></text><text class="cls-1" transform="translate(180.97 42.7) scale(1 1.05)"><tspan x="0" y="0"> </tspan></text><text class="cls-20" transform="translate(221.25 42.7)"><tspan x="0" y="0">N</tspan></text><text class="cls-12" transform="translate(221.25 42.7)"><tspan x="0" y="0"> </tspan></text><text class="cls-2" transform="translate(236.26 42.7) scale(1 1.05)"><tspan x="0" y="0">75%</tspan></text><text class="cls-3" transform="translate(304.32 26.05) scale(1 1.05)"><tspan x="0" y="0">covariation</tspan></text><text class="cls-13" transform="translate(165.18 57.89)"><tspan x="0" y="0">N</tspan></text><text class="cls-17" transform="translate(165.19 57.89)"><tspan x="0" y="0"> </tspan></text><text class="cls-2" transform="translate(180.97 57.89) scale(1 1.05)"><tspan x="0" y="0">90%</tspan></text><text class="cls-2" transform="translate(180.97 102.25) scale(1 1.05)"><tspan x="0" y="0">90%</tspan></text><text class="cls-2" transform="translate(180.97 87.82) scale(1 1.05)"><tspan x="0" y="0">97%</tspan></text><text class="cls-2" transform="translate(236.26 87.82) scale(1 1.05)"><tspan x="0" y="0">75%</tspan></text><text class="cls-2" transform="translate(236.26 102.25) scale(1 1.05)"><tspan x="0" y="0">50%</tspan></text><text class="cls-3" transform="translate(163.62 27.17) scale(1 1.05)"><tspan x="0" y="0">Nucleotide identity</tspan></text><text class="cls-3" transform="translate(162.42 72.79) scale(1 1.05)"><tspan x="0" y="0">Nucleotide present</tspan></text><rect class="cls-26" x="158.95" y="13.64" width="226.32" height="95.76"/><line class="cls-25" x1="307.82" y1="58.15" x2="310.78" y2="46.93"/><line class="cls-25" x1="366.51" y1="58.39" x2="369.48" y2="47.17"/><path class="cls-27" d="M324.51,95.83h-13.96c-3.47,4.5-8.91,7.4-15.04,7.4-10.47,0-18.95-8.46-18.95-18.9s8.48-18.9,18.95-18.9c6.12,0,11.57,2.9,15.04,7.4h3.26s10.7,0,10.7,0"/><line class="cls-24" x1="317.75" y1="87.98" x2="317.75" y2="80.67"/><text class="cls-3" transform="translate(331.65 73.51) scale(1 1.05)"><tspan x="0" y="0">variable</tspan></text><text class="cls-3" transform="translate(337.23 88.14) scale(1 1.05)"><tspan x="0" y="0">length</tspan></text><text class="cls-3" transform="translate(335.23 102.76) scale(1 1.05)"><tspan x="0" y="0">hairpin</tspan></text><text class="cls-3" transform="translate(304.32 41.05) scale(1 1.05)"><tspan x="0" y="0">no covariation</tspan></text><rect class="cls-37" x="272.05" y="18.06" width="30.21" height="8.98"/><rect class="cls-22" x="272.05" y="33.08" width="30.21" height="8.98"/><path class="cls-21" d="M169.71,78.83c2.36,0,4.27,1.91,4.27,4.26s-1.91,4.27-4.27,4.27-4.28-1.91-4.28-4.27,1.92-4.26,4.28-4.26"/><text class="cls-13" transform="translate(272.18 57.48)"><tspan x="0" y="0">R</tspan></text><text class="cls-17" transform="translate(272.18 57.48)"><tspan x="0" y="0"> </tspan></text><text class="cls-16" transform="translate(285.57 57.48) scale(1 1.05)"><tspan x="0" y="0">=</tspan></text><text class="cls-13" transform="translate(293.61 57.48)"><tspan x="0" y="0" xml:space="preserve"> A</tspan><tspan class="cls-6" x="12.5" y="0"> </tspan><tspan x="15.31" y="0" xml:space="preserve"> G</tspan></text><text class="cls-17" transform="translate(308.96 57.48)"><tspan x="0" y="0"> </tspan></text><text class="cls-13" transform="translate(331.28 57.48)"><tspan x="0" y="0">Y</tspan></text><text class="cls-17" transform="translate(331.28 57.48)"><tspan x="0" y="0"> </tspan></text><text class="cls-9" transform="translate(343.93 57.48) scale(1 1.05)"><tspan x="0" y="0">=</tspan></text><text class="cls-13" transform="translate(352.32 57.39)"><tspan x="0" y="0" xml:space="preserve"> C</tspan><tspan class="cls-35" x="12.5" y="0"> </tspan><tspan x="16.07" y="0" xml:space="preserve"> U</tspan></text><path class="cls-23" d="M169.71,78.83c2.36,0,4.27,1.91,4.27,4.26s-1.91,4.27-4.27,4.27-4.28-1.91-4.28-4.27,1.92-4.26,4.28-4.26Z"/><path d="M169.71,92.81c2.36,0,4.27,1.91,4.27,4.26s-1.91,4.27-4.27,4.27-4.28-1.91-4.28-4.27,1.92-4.26,4.28-4.26"/><path class="cls-23" d="M169.71,92.81c2.36,0,4.27,1.91,4.27,4.26s-1.91,4.27-4.27,4.27-4.28-1.91-4.28-4.27,1.92-4.26,4.28-4.26Z"/><path class="cls-28" d="M225.77,78.83c2.36,0,4.27,1.91,4.27,4.26s-1.91,4.27-4.27,4.27-4.28-1.91-4.28-4.27,1.92-4.26,4.28-4.26"/><path class="cls-23" d="M225.77,78.83c2.36,0,4.27,1.91,4.27,4.26s-1.91,4.27-4.27,4.27-4.28-1.91-4.28-4.27,1.92-4.26,4.28-4.26Z"/><path class="cls-5" d="M225.77,92.81c2.36,0,4.27,1.91,4.27,4.26s-1.91,4.27-4.27,4.27-4.28-1.91-4.28-4.27,1.92-4.26,4.28-4.26"/><path class="cls-23" d="M225.77,92.81c2.36,0,4.27,1.91,4.27,4.26s-1.91,4.27-4.27,4.27-4.28-1.91-4.28-4.27,1.92-4.26,4.28-4.26Z"/><text class="cls-18" transform="translate(77.14 227.56)"><tspan class="cls-36" x="0" y="0">P</tspan><tspan x="10.17" y="0">1</tspan></text><text class="cls-18" transform="translate(68.62 74.89)"><tspan class="cls-36" x="0" y="0">P1</tspan><tspan x="18.68" y="0">a</tspan></text><text class="cls-18" transform="translate(112.45 307.07)"><tspan class="cls-36" x="0" y="0">P</tspan><tspan x="10.17" y="0">2</tspan></text><text class="cls-18" transform="translate(189.75 189.32)"><tspan class="cls-36" x="0" y="0">P</tspan><tspan x="10.17" y="0">3</tspan></text><rect class="cls-37" x="101.19" y="249.64" width="29.46" height="9.72"/><line class="cls-24" x1="112.68" y1="254.5" x2="119.18" y2="254.5"/><path class="cls-21" d="M105.69,258.76c2.36,0,4.27-1.91,4.27-4.27s-1.91-4.26-4.27-4.26-4.27,1.91-4.27,4.26,1.91,4.27,4.27,4.27"/><path class="cls-23" d="M105.69,258.76c2.36,0,4.27-1.91,4.27-4.27s-1.91-4.26-4.27-4.26-4.27,1.91-4.27,4.26,1.91,4.27,4.27,4.27Z"/><path class="cls-21" d="M126.15,258.76c2.36,0,4.27-1.91,4.27-4.27s-1.91-4.26-4.27-4.26-4.27,1.91-4.27,4.26,1.91,4.27,4.27,4.27"/><path class="cls-23" d="M126.15,258.76c2.36,0,4.27-1.91,4.27-4.27s-1.91-4.26-4.27-4.26-4.27,1.91-4.27,4.26,1.91,4.27,4.27,4.27Z"/><rect class="cls-37" x="101.19" y="77.59" width="29.46" height="9.73"/><line class="cls-24" x1="112.68" y1="82.46" x2="119.18" y2="82.46"/><path class="cls-21" d="M105.69,86.72c2.36,0,4.27-1.91,4.27-4.26s-1.91-4.27-4.27-4.27-4.27,1.91-4.27,4.27,1.91,4.26,4.27,4.26"/><path class="cls-23" d="M105.69,86.72c2.36,0,4.27-1.91,4.27-4.26s-1.91-4.27-4.27-4.27-4.27,1.91-4.27,4.27,1.91,4.26,4.27,4.26Z"/><path class="cls-21" d="M126.15,86.72c2.36,0,4.27-1.91,4.27-4.26s-1.91-4.27-4.27-4.27-4.27,1.91-4.27,4.27,1.91,4.26,4.27,4.26"/><path class="cls-23" d="M126.15,86.72c2.36,0,4.27-1.91,4.27-4.26s-1.91-4.27-4.27-4.27-4.27,1.91-4.27,4.27,1.91,4.26,4.27,4.26Z"/><rect class="cls-37" x="101.19" y="64.99" width="29.46" height="9.73"/><line class="cls-24" x1="112.68" y1="69.86" x2="119.18" y2="69.86"/><path class="cls-21" d="M105.69,74.12c2.36,0,4.27-1.91,4.27-4.27s-1.91-4.26-4.27-4.26-4.27,1.91-4.27,4.26,1.91,4.27,4.27,4.27"/><path class="cls-23" d="M105.69,74.12c2.36,0,4.27-1.91,4.27-4.27s-1.91-4.26-4.27-4.26-4.27,1.91-4.27,4.26,1.91,4.27,4.27,4.27Z"/><path class="cls-21" d="M126.15,74.12c2.36,0,4.27-1.91,4.27-4.27s-1.91-4.26-4.27-4.26-4.27,1.91-4.27,4.26,1.91,4.27,4.27,4.27"/><path class="cls-23" d="M126.15,74.12c2.36,0,4.27-1.91,4.27-4.27s-1.91-4.26-4.27-4.26-4.27,1.91-4.27,4.26,1.91,4.27,4.27,4.27Z"/><rect class="cls-37" x="139.59" y="283.36" width="29.46" height="9.73"/><line class="cls-24" x1="151.07" y1="288.22" x2="157.56" y2="288.22"/><path class="cls-21" d="M144.08,292.49c2.36,0,4.28-1.91,4.28-4.27s-1.92-4.26-4.28-4.26-4.27,1.91-4.27,4.26,1.92,4.27,4.27,4.27"/><path class="cls-23" d="M144.08,292.49c2.36,0,4.28-1.91,4.28-4.27s-1.92-4.26-4.28-4.26-4.27,1.91-4.27,4.26,1.92,4.27,4.27,4.27Z"/><path class="cls-21" d="M164.55,292.49c2.36,0,4.27-1.91,4.27-4.27s-1.91-4.26-4.27-4.26-4.28,1.91-4.28,4.26,1.92,4.27,4.28,4.27"/><path class="cls-23" d="M164.55,292.49c2.36,0,4.27-1.91,4.27-4.27s-1.91-4.26-4.27-4.26-4.28,1.91-4.28,4.26,1.92,4.27,4.28,4.27Z"/><rect class="cls-37" x="139.59" y="308.56" width="29.46" height="9.73"/><line class="cls-24" x1="151.07" y1="313.43" x2="157.56" y2="313.43"/><path class="cls-21" d="M144.08,317.69c2.36,0,4.28-1.91,4.28-4.27s-1.92-4.26-4.28-4.26-4.27,1.91-4.27,4.26,1.92,4.27,4.27,4.27"/><path class="cls-23" d="M144.08,317.69c2.36,0,4.28-1.91,4.28-4.27s-1.92-4.26-4.28-4.26-4.27,1.91-4.27,4.26,1.92,4.27,4.27,4.27Z"/><path class="cls-21" d="M164.55,317.69c2.36,0,4.27-1.91,4.27-4.27s-1.91-4.26-4.27-4.26-4.28,1.91-4.28,4.26,1.92,4.27,4.28,4.27"/><path class="cls-23" d="M164.55,317.69c2.36,0,4.27-1.91,4.27-4.27s-1.91-4.26-4.27-4.26-4.28,1.91-4.28,4.26,1.92,4.27,4.28,4.27Z"/><rect class="cls-37" x="215.07" y="224.75" width="29.46" height="9.73"/><line class="cls-24" x1="226.55" y1="229.61" x2="233.05" y2="229.61"/><text class="cls-10" transform="translate(214.7 234.02)"><tspan class="cls-38" x="0" y="0">G</tspan><tspan x="20.75" y="0">C</tspan></text><text class="cls-10" transform="translate(208.07 223.23)"><tspan x="0" y="0">U</tspan></text><path class="cls-21" d="M260.28,212.03c0,2.36-1.91,4.27-4.27,4.27s-4.28-1.91-4.28-4.27,1.92-4.26,4.28-4.26,4.27,1.91,4.27,4.26"/><path class="cls-23" d="M260.28,212.03c0,2.36-1.91,4.27-4.27,4.27s-4.28-1.91-4.28-4.27,1.92-4.26,4.28-4.26,4.27,1.91,4.27,4.26Z"/></g><text class="cls-4" transform="translate(0 17.16)"><tspan x="0" y="0">ppGpp</tspan><tspan x="0" y="24">riboswitch</tspan></text></svg>