<svg id="图层_1" data-name="图层 1" xmlns="http://www.w3.org/2000/svg" viewBox="0 0 400 400"><defs><style>.cls-1{fill:#ff0b0c;}.cls-10,.cls-12,.cls-13,.cls-14,.cls-15,.cls-16,.cls-17,.cls-18,.cls-2,.cls-3,.cls-6,.cls-7,.cls-8,.cls-9{isolation:isolate;font-size:12.99px;}.cls-2,.cls-24,.cls-3{fill:#0a0bff;}.cls-10,.cls-12,.cls-13,.cls-14,.cls-15,.cls-16,.cls-17,.cls-18,.cls-2,.cls-21,.cls-23,.cls-24,.cls-25,.cls-26,.cls-27,.cls-28,.cls-29,.cls-3,.cls-30,.cls-6,.cls-7,.cls-8,.cls-9{font-family:ArialMT, Arial;}.cls-12,.cls-15,.cls-3,.cls-6{letter-spacing:-0.06em;}.cls-19,.cls-20,.cls-31,.cls-4{fill:none;}.cls-11,.cls-19,.cls-20,.cls-4,.cls-5{stroke:#000;}.cls-11,.cls-19,.cls-20,.cls-31,.cls-32,.cls-4,.cls-5{stroke-miterlimit:1.14;}.cls-11,.cls-31,.cls-32,.cls-4,.cls-5{stroke-width:0.14px;}.cls-32,.cls-5{fill:#fff;}.cls-23,.cls-6,.cls-7{fill:#c2c2ff;}.cls-12,.cls-27,.cls-8{fill:#80db9e;}.cls-10,.cls-28,.cls-9{fill:#ffdf5c;}.cls-10,.cls-14,.cls-17{letter-spacing:-0.06em;}.cls-13,.cls-15,.cls-26{fill:#ffaadc;}.cls-14,.cls-18,.cls-29{fill:#09fefe;}.cls-16,.cls-17,.cls-25{fill:#ff870a;}.cls-19{stroke-width:1.11px;}.cls-20{stroke-width:0.75px;}.cls-21{font-size:12px;}.cls-22{letter-spacing:-0.04em;}.cls-23,.cls-24,.cls-25,.cls-26,.cls-27,.cls-28,.cls-29{font-size:16px;}.cls-30{font-size:8px;fill:#251e1c;}.cls-31,.cls-32{stroke:#ff0b0c;}.cls-33,.cls-34{font-size:20px;fill:#322d2e;font-family:Arial-BoldMT, Arial;font-weight:700;}.cls-34{letter-spacing:0em;}</style></defs><rect class="cls-1" x="152.43" y="133.91" width="21.06" height="9.45"/><text class="cls-2" transform="translate(184.15 274.56)">G</text><text class="cls-2" transform="translate(184.15 287.36)">G</text><text class="cls-3" transform="translate(184.87 300.16)">A</text><text class="cls-3" transform="translate(184.87 312.96)">A</text><text class="cls-2" transform="translate(184.51 325.76)">C</text><text class="cls-2" transform="translate(184.51 338.56)">C</text><text class="cls-2" transform="translate(184.15 351.36)">G</text><text class="cls-2" transform="translate(184.51 364.16)">C</text><text class="cls-2" transform="translate(190.55 376.96)">G</text><text class="cls-3" transform="translate(178.47 389.76)">A</text><text class="cls-3" transform="translate(165.67 389.76)">A</text><text class="cls-3" transform="translate(152.87 376.96)">A</text><text class="cls-2" transform="translate(158.55 364.16)">G</text><text class="cls-2" transform="translate(158.91 351.36)">C</text><text class="cls-2" transform="translate(158.55 338.56)">G</text><text class="cls-2" transform="translate(158.55 325.76)">G</text><text class="cls-2" transform="translate(158.91 312.96)">U</text><text class="cls-2" transform="translate(158.91 300.16)">U</text><text class="cls-2" transform="translate(158.91 287.36)">C</text><text class="cls-2" transform="translate(158.91 274.56)">C</text><line class="cls-4" x1="184.08" y1="268.8" x2="168.72" y2="268.8"/><line class="cls-4" x1="184.08" y1="281.6" x2="168.72" y2="281.6"/><line class="cls-4" x1="184.08" y1="294.4" x2="168.72" y2="294.4"/><line class="cls-4" x1="184.08" y1="307.2" x2="168.72" y2="307.2"/><line class="cls-4" x1="184.08" y1="320" x2="168.72" y2="320"/><line class="cls-4" x1="184.08" y1="332.8" x2="168.72" y2="332.8"/><line class="cls-4" x1="184.08" y1="345.6" x2="168.72" y2="345.6"/><line class="cls-4" x1="184.08" y1="358.4" x2="168.72" y2="358.4"/><line class="cls-4" x1="190.48" y1="371.2" x2="162.32" y2="371.2"/><polygon class="cls-5" points="183.05 371.2 178.06 368.32 178.06 374.08 183.05 371.2"/><polygon class="cls-5" points="170.51 373.76 175.63 373.76 175.63 368.64 170.51 368.64 170.51 373.76"/><text class="cls-6" transform="translate(159.27 258.56)">A</text><text class="cls-7" transform="translate(158.91 245.76)">C</text><text class="cls-7" transform="translate(158.55 232.96)">G</text><text class="cls-6" transform="translate(159.27 220.16)">A</text><text class="cls-7" transform="translate(158.91 207.36)">C</text><text class="cls-7" transform="translate(158.55 194.56)">G</text><text class="cls-6" transform="translate(159.27 181.76)">A</text><text class="cls-7" transform="translate(158.91 168.96)">U</text><text class="cls-6" transform="translate(159.27 156.16)">A</text><text class="cls-8" transform="translate(130.11 143.36)">C</text><text class="cls-8" transform="translate(130.11 130.56)">U</text><text class="cls-8" transform="translate(130.11 117.76)">U</text><text class="cls-7" transform="translate(184.15 156.16)">G</text><text class="cls-6" transform="translate(184.87 168.96)">A</text><text class="cls-7" transform="translate(184.51 181.76)">U</text><text class="cls-7" transform="translate(184.51 194.56)">C</text><text class="cls-7" transform="translate(184.15 207.36)">G</text><text class="cls-7" transform="translate(184.51 220.16)">U</text><text class="cls-7" transform="translate(184.51 232.96)">C</text><text class="cls-7" transform="translate(184.15 245.76)">G</text><text class="cls-7" transform="translate(184.51 258.56)">U</text><text class="cls-9" transform="translate(235.71 258.56)">U</text><text class="cls-10" transform="translate(248.87 255.36)">A</text><text class="cls-9" transform="translate(248.51 242.56)">U</text><line class="cls-4" x1="168.72" y1="252.8" x2="184.08" y2="252.8"/><line class="cls-4" x1="168.72" y1="240" x2="184.08" y2="240"/><line class="cls-4" x1="168.72" y1="227.2" x2="184.08" y2="227.2"/><line class="cls-4" x1="168.72" y1="214.4" x2="184.08" y2="214.4"/><line class="cls-4" x1="168.72" y1="201.6" x2="184.08" y2="201.6"/><line class="cls-4" x1="168.72" y1="188.8" x2="184.08" y2="188.8"/><line class="cls-4" x1="168.72" y1="176" x2="184.08" y2="176"/><line class="cls-4" x1="168.72" y1="163.2" x2="184.08" y2="163.2"/><line class="cls-4" x1="168.72" y1="150.4" x2="184.08" y2="150.4"/><polygon class="cls-11" points="178.96 150.4 178.96 150.24 178.94 150.08 178.91 149.91 178.88 149.76 178.83 149.6 178.78 149.45 178.71 149.3 178.64 149.16 178.55 149.02 178.46 148.88 178.36 148.75 178.25 148.63 178.14 148.52 178.01 148.41 177.88 148.31 177.75 148.22 177.61 148.14 177.46 148.07 177.31 148.01 177.16 147.96 177 147.91 176.84 147.88 176.68 147.86 176.52 147.84 176.36 147.84 176.2 147.85 176.04 147.87 175.88 147.89 175.72 147.93 175.56 147.98 175.41 148.04 175.26 148.11 175.12 148.18 174.98 148.27 174.85 148.36 174.72 148.47 174.6 148.58 174.49 148.69 174.39 148.82 174.29 148.95 174.2 149.09 174.13 149.23 174.06 149.37 173.99 149.53 173.94 149.68 173.9 149.84 173.87 150 173.85 150.16 173.84 150.32 173.84 150.48 173.85 150.64 173.87 150.81 173.9 150.96 173.94 151.12 173.99 151.28 174.06 151.43 174.13 151.57 174.2 151.72 174.29 151.85 174.39 151.98 174.49 152.11 174.6 152.22 174.72 152.34 174.85 152.44 174.98 152.53 175.12 152.62 175.26 152.69 175.41 152.76 175.56 152.82 175.72 152.87 175.88 152.91 176.04 152.93 176.2 152.95 176.36 152.96 176.52 152.96 176.68 152.94 176.84 152.92 177 152.89 177.16 152.84 177.31 152.79 177.46 152.73 177.61 152.66 177.75 152.57 177.88 152.49 178.01 152.39 178.14 152.28 178.25 152.17 178.36 152.05 178.46 151.92 178.55 151.78 178.64 151.65 178.71 151.5 178.78 151.35 178.83 151.2 178.88 151.04 178.91 150.88 178.94 150.72 178.96 150.56 178.96 150.4"/><polyline class="cls-4" points="139.38 122.51 147.6 118.4 202 118.4 210.22 122.51"/><polygon class="cls-11" points="168.91 118.4 168.92 118.56 168.93 118.72 168.96 118.89 168.99 119.04 169.04 119.2 169.1 119.35 169.16 119.5 169.24 119.64 169.32 119.78 169.41 119.92 169.51 120.05 169.62 120.17 169.74 120.28 169.86 120.39 169.99 120.48 170.12 120.58 170.26 120.66 170.41 120.73 170.56 120.79 170.71 120.84 170.87 120.89 171.03 120.92 171.19 120.94 171.35 120.96 171.51 120.96 171.68 120.95 171.84 120.93 172 120.91 172.15 120.87 172.31 120.82 172.46 120.76 172.61 120.69 172.75 120.62 172.89 120.53 173.02 120.44 173.15 120.33 173.27 120.22 173.38 120.11 173.48 119.98 173.58 119.85 173.67 119.72 173.75 119.57 173.82 119.43 173.88 119.28 173.93 119.12 173.97 118.96 174 118.81 174.02 118.64 174.03 118.48 174.03 118.32 174.02 118.16 174 118 173.97 117.84 173.93 117.68 173.88 117.53 173.82 117.37 173.75 117.23 173.67 117.08 173.58 116.95 173.48 116.82 173.38 116.69 173.27 116.58 173.15 116.47 173.02 116.36 172.89 116.27 172.75 116.18 172.61 116.11 172.46 116.04 172.31 115.98 172.15 115.93 172 115.89 171.84 115.87 171.68 115.85 171.51 115.84 171.35 115.84 171.19 115.86 171.03 115.88 170.87 115.91 170.71 115.95 170.56 116.01 170.41 116.07 170.26 116.14 170.12 116.22 169.99 116.31 169.86 116.41 169.74 116.52 169.62 116.63 169.51 116.75 169.41 116.88 169.32 117.02 169.24 117.16 169.16 117.3 169.1 117.45 169.04 117.6 168.99 117.76 168.96 117.92 168.93 118.08 168.92 118.24 168.91 118.4"/><polygon class="cls-11" points="180.69 115.84 175.57 115.84 175.57 120.96 180.69 120.96 180.69 115.84"/><polyline class="cls-4" points="139.38 109.71 147.6 105.6 202 105.6 210.22 109.71"/><polygon class="cls-11" points="168.91 105.6 168.92 105.76 168.93 105.92 168.96 106.08 168.99 106.24 169.04 106.4 169.1 106.55 169.16 106.7 169.24 106.84 169.32 106.98 169.41 107.12 169.51 107.25 169.62 107.37 169.74 107.48 169.86 107.59 169.99 107.69 170.12 107.78 170.26 107.86 170.41 107.93 170.56 107.99 170.71 108.05 170.87 108.09 171.03 108.12 171.19 108.14 171.35 108.16 171.51 108.16 171.68 108.15 171.84 108.13 172 108.11 172.15 108.07 172.31 108.02 172.46 107.96 172.61 107.89 172.75 107.82 172.89 107.73 173.02 107.64 173.15 107.53 173.27 107.42 173.38 107.31 173.48 107.18 173.58 107.05 173.67 106.92 173.75 106.77 173.82 106.63 173.88 106.47 173.93 106.32 173.97 106.16 174 106 174.02 105.84 174.03 105.68 174.03 105.52 174.02 105.36 174 105.19 173.97 105.04 173.93 104.88 173.88 104.72 173.82 104.57 173.75 104.43 173.67 104.28 173.58 104.15 173.48 104.02 173.38 103.89 173.27 103.78 173.15 103.67 173.02 103.56 172.89 103.47 172.75 103.38 172.61 103.31 172.46 103.24 172.31 103.18 172.15 103.13 172 103.09 171.84 103.07 171.68 103.05 171.51 103.04 171.35 103.04 171.19 103.06 171.03 103.08 170.87 103.11 170.71 103.16 170.56 103.21 170.41 103.27 170.26 103.34 170.12 103.42 169.99 103.52 169.86 103.61 169.74 103.72 169.62 103.83 169.51 103.95 169.41 104.08 169.32 104.22 169.24 104.36 169.16 104.5 169.1 104.65 169.04 104.8 168.99 104.96 168.96 105.11 168.93 105.28 168.92 105.44 168.91 105.6"/><polygon class="cls-11" points="180.69 103.04 175.57 103.04 175.57 108.16 180.69 108.16 180.69 103.04"/><text class="cls-12" transform="translate(130.47 104.96)">A</text><text class="cls-13" transform="translate(184.51 53.76)">U</text><text class="cls-13" transform="translate(184.51 66.56)">U</text><text class="cls-13" transform="translate(184.51 79.36)">U</text><text class="cls-13" transform="translate(184.51 92.16)">C</text><text class="cls-13" transform="translate(184.51 104.96)">C</text><text class="cls-13" transform="translate(184.51 117.76)">U</text><text class="cls-13" transform="translate(184.51 130.56)">U</text><text class="cls-13" transform="translate(184.51 143.36)">U</text><text class="cls-14" transform="translate(220.07 143.36)">A</text><text class="cls-15" transform="translate(210.47 130.56)">A</text><text class="cls-15" transform="translate(210.47 117.76)">A</text><text class="cls-13" transform="translate(209.75 104.96)">G</text><text class="cls-13" transform="translate(209.75 92.16)">G</text><text class="cls-15" transform="translate(210.47 79.36)">A</text><text class="cls-13" transform="translate(209.75 66.56)">G</text><text class="cls-15" transform="translate(210.47 53.76)">A</text><line class="cls-4" x1="194.32" y1="60.8" x2="209.68" y2="60.8"/><polygon class="cls-5" points="196.11 63.36 201.23 63.36 201.23 58.24 196.11 58.24 196.11 63.36"/><polygon class="cls-5" points="208.65 60.8 203.66 57.92 203.66 63.68 208.65 60.8"/><line class="cls-4" x1="194.32" y1="73.6" x2="209.68" y2="73.6"/><line class="cls-4" x1="194.32" y1="86.4" x2="209.68" y2="86.4"/><line class="cls-4" x1="194.32" y1="99.2" x2="209.68" y2="99.2"/><line class="cls-4" x1="194.32" y1="112" x2="209.68" y2="112"/><line class="cls-4" x1="194.32" y1="124.8" x2="209.68" y2="124.8"/><text class="cls-9" transform="translate(248.51 229.76)">U</text><text class="cls-10" transform="translate(248.87 216.96)">A</text><text class="cls-9" transform="translate(248.51 204.16)">C</text><text class="cls-16" transform="translate(248.51 191.36)">U</text><text class="cls-16" transform="translate(260.95 191.36)">G</text><text class="cls-16" transform="translate(273.75 191.36)">G</text><text class="cls-16" transform="translate(286.91 191.36)">C</text><text class="cls-16" transform="translate(299.71 194.56)">U</text><text class="cls-16" transform="translate(312.51 184.96)">U</text><text class="cls-16" transform="translate(312.51 172.16)">C</text><text class="cls-16" transform="translate(299.35 162.56)">G</text><text class="cls-16" transform="translate(286.55 165.76)">G</text><text class="cls-16" transform="translate(274.11 165.76)">C</text><text class="cls-16" transform="translate(261.31 165.76)">C</text><text class="cls-17" transform="translate(248.87 165.76)">A</text><text class="cls-18" transform="translate(232.51 156.16)">C</text><polyline class="cls-4" points="248.08 211.2 234 211.2 234 154.02 233.81 154.24"/><polygon class="cls-5" points="236.56 188.5 236.56 183.38 231.44 183.38 231.44 188.5 236.56 188.5"/><polygon class="cls-5" points="234 176.72 233.84 176.73 233.68 176.74 233.51 176.77 233.36 176.8 233.2 176.85 233.05 176.91 232.9 176.97 232.75 177.04 232.62 177.13 232.48 177.22 232.35 177.32 232.23 177.43 232.12 177.54 232.01 177.67 231.91 177.8 231.82 177.93 231.74 178.07 231.67 178.22 231.61 178.37 231.56 178.52 231.51 178.68 231.48 178.84 231.46 179 231.44 179.16 231.44 179.32 231.45 179.49 231.47 179.65 231.49 179.81 231.53 179.96 231.58 180.12 231.64 180.27 231.71 180.42 231.78 180.56 231.87 180.7 231.96 180.83 232.06 180.96 232.18 181.08 232.29 181.19 232.42 181.29 232.55 181.39 232.69 181.48 232.83 181.56 232.97 181.63 233.13 181.69 233.28 181.74 233.44 181.78 233.59 181.81 233.76 181.83 233.92 181.84 234.08 181.84 234.24 181.83 234.41 181.81 234.56 181.78 234.72 181.74 234.88 181.69 235.03 181.63 235.17 181.56 235.31 181.48 235.45 181.39 235.58 181.29 235.71 181.19 235.82 181.08 235.94 180.96 236.04 180.83 236.13 180.7 236.22 180.56 236.29 180.42 236.36 180.27 236.42 180.12 236.47 179.96 236.51 179.81 236.53 179.65 236.55 179.49 236.56 179.32 236.56 179.16 236.54 179 236.52 178.84 236.49 178.68 236.44 178.52 236.39 178.37 236.33 178.22 236.26 178.07 236.18 177.93 236.09 177.8 235.99 177.67 235.88 177.54 235.77 177.43 235.65 177.32 235.52 177.22 235.38 177.13 235.25 177.04 235.1 176.97 234.95 176.91 234.8 176.85 234.64 176.8 234.49 176.77 234.32 176.74 234.16 176.73 234 176.72"/><polyline class="cls-4" points="248.08 198.4 240.4 198.4 240.4 154.02 240.59 154.24"/><polygon class="cls-11" points="240.4 173.65 240.24 173.66 240.08 173.67 239.91 173.7 239.76 173.73 239.6 173.78 239.45 173.83 239.3 173.9 239.16 173.97 239.02 174.06 238.88 174.15 238.75 174.25 238.63 174.36 238.52 174.47 238.41 174.6 238.31 174.72 238.22 174.86 238.14 175 238.07 175.15 238.01 175.3 237.96 175.45 237.91 175.61 237.88 175.77 237.86 175.93 237.84 176.09 237.84 176.25 237.85 176.41 237.87 176.57 237.89 176.74 237.93 176.89 237.98 177.05 238.04 177.2 238.11 177.35 238.18 177.49 238.27 177.63 238.36 177.76 238.47 177.89 238.58 178.01 238.69 178.12 238.82 178.22 238.95 178.32 239.09 178.41 239.23 178.49 239.37 178.56 239.53 178.62 239.68 178.67 239.84 178.71 240 178.74 240.16 178.76 240.32 178.77 240.48 178.77 240.64 178.76 240.81 178.74 240.96 178.71 241.12 178.67 241.28 178.62 241.43 178.56 241.57 178.49 241.72 178.41 241.85 178.32 241.98 178.22 242.11 178.12 242.22 178.01 242.34 177.89 242.44 177.76 242.53 177.63 242.62 177.49 242.69 177.35 242.76 177.2 242.82 177.05 242.87 176.89 242.91 176.74 242.93 176.57 242.95 176.41 242.96 176.25 242.96 176.09 242.94 175.93 242.92 175.77 242.89 175.61 242.84 175.45 242.79 175.3 242.73 175.15 242.66 175 242.57 174.86 242.49 174.72 242.39 174.6 242.28 174.47 242.17 174.36 242.05 174.25 241.92 174.15 241.78 174.06 241.65 173.97 241.5 173.9 241.35 173.83 241.2 173.78 241.04 173.73 240.88 173.7 240.72 173.67 240.56 173.66 240.4 173.65"/><line class="cls-4" x1="253.2" y1="180.48" x2="253.2" y2="165.12"/><line class="cls-4" x1="266" y1="180.48" x2="266" y2="165.12"/><line class="cls-4" x1="278.8" y1="180.48" x2="278.8" y2="165.12"/><line class="cls-4" x1="291.6" y1="180.48" x2="291.6" y2="165.12"/><line class="cls-19" x1="194.32" y1="252.8" x2="235.28" y2="252.8"/><polygon class="cls-11" points="210.53 248.96 212.67 250.88 214.8 251.52 216.93 251.84 221.2 252.8 216.93 253.76 214.8 254.08 212.67 254.72 210.53 256.64 210.53 248.96"/><polyline class="cls-19" points="158.48 150.4 134.8 150.4 134.8 142.72"/><polygon class="cls-11" points="150.91 154.24 148.77 152.32 146.64 151.68 144.51 151.36 140.24 150.4 144.51 149.44 146.64 149.12 148.77 148.48 150.91 146.56 150.91 154.24"/><polyline class="cls-19" points="134.8 94.08 134.8 48 184.08 48"/><polygon class="cls-11" points="130.96 75.31 132.88 73.17 133.52 71.04 133.84 68.91 134.8 64.64 135.76 68.91 136.08 71.04 136.72 73.17 138.64 75.31 130.96 75.31"/><line class="cls-20" x1="195.78" y1="270.15" x2="206.68" y2="270.15"/><line class="cls-20" x1="220.55" y1="48" x2="231.45" y2="48"/><text class="cls-21" transform="translate(209.68 274.72)">5<tspan class="cls-22" x="6.67" y="0">’</tspan></text><text class="cls-21" transform="translate(234 53.76)">3<tspan class="cls-22" x="6.67" y="0">’</tspan></text><text class="cls-21" transform="translate(187.16 389.76)">10</text><text class="cls-21" transform="translate(145.57 274.56)">20</text><text class="cls-21" transform="translate(116.29 143.52)">30</text><text class="cls-21" transform="translate(193.56 134.06)">40</text><text class="cls-21" transform="translate(193.43 262.78)">50</text><text class="cls-21" transform="translate(285.18 201.6)">60</text><text class="cls-21" transform="translate(228.76 142.72)">70</text><text class="cls-23" transform="translate(128.28 219.41)">P2</text><text class="cls-24" transform="translate(128.28 332.8)">P1</text><text class="cls-25" transform="translate(268.52 216)">P4</text><text class="cls-26" transform="translate(226 82.71)">P3</text><text class="cls-27" transform="translate(95 125.44)">J2/3</text><text class="cls-28" transform="translate(256.83 268.8)">J2/4</text><text class="cls-29" transform="translate(240.4 131.95)">J4/3</text><text class="cls-30" transform="translate(152.24 140.08)">PreQ</text><text class="cls-30" transform="translate(170.91 142.75) scale(0.58)">1</text><line class="cls-31" x1="174.12" y1="138.79" x2="184.87" y2="138.79"/><polygon class="cls-32" points="179.1 141.67 179.11 135.91 174.12 138.78 179.1 141.67"/><polygon class="cls-32" points="182.6 136.23 182.44 136.23 182.28 136.25 182.12 136.27 181.96 136.31 181.8 136.36 181.65 136.41 181.5 136.48 181.36 136.55 181.22 136.63 181.08 136.73 180.95 136.83 180.83 136.94 180.72 137.05 180.61 137.17 180.51 137.3 180.43 137.44 180.34 137.58 180.27 137.72 180.21 137.87 180.16 138.03 180.11 138.18 180.08 138.34 180.06 138.5 180.04 138.67 180.04 138.83 180.05 138.99 180.07 139.15 180.09 139.31 180.13 139.47 180.18 139.63 180.24 139.78 180.31 139.93 180.38 140.07 180.47 140.21 180.56 140.34 180.67 140.46 180.78 140.58 180.89 140.7 181.02 140.8 181.15 140.9 181.28 140.98 181.43 141.06 181.57 141.13 181.72 141.19 181.88 141.24 182.04 141.28 182.19 141.32 182.36 141.34 182.52 141.35 182.68 141.35 182.84 141.34 183 141.32 183.16 141.28 183.32 141.24 183.48 141.19 183.63 141.13 183.77 141.06 183.91 140.98 184.05 140.9 184.18 140.8 184.31 140.7 184.43 140.58 184.53 140.46 184.64 140.34 184.73 140.21 184.82 140.07 184.89 139.93 184.96 139.78 185.02 139.63 185.07 139.47 185.11 139.31 185.13 139.15 185.15 138.99 185.16 138.83 185.16 138.67 185.15 138.5 185.12 138.34 185.09 138.18 185.04 138.03 184.99 137.87 184.93 137.72 184.86 137.58 184.78 137.44 184.69 137.3 184.59 137.17 184.48 137.05 184.37 136.94 184.25 136.83 184.12 136.73 183.98 136.63 183.84 136.55 183.7 136.48 183.55 136.41 183.4 136.36 183.24 136.31 183.09 136.27 182.92 136.25 182.76 136.23 182.6 136.23"/><line class="cls-31" x1="139.32" y1="138.79" x2="150.91" y2="138.79"/><text class="cls-33" transform="translate(3.47 19.67) scale(0.94 1)">PreQ</text><text class="cls-34" transform="translate(48.3 26.33) scale(0.55 0.58)">1</text><text class="cls-33" transform="translate(54.38 19.67) scale(0.94 1)">-II Riboswitch</text></svg>