<svg id="图层_1" data-name="图层 1" xmlns="http://www.w3.org/2000/svg" viewBox="0 0 400 400"><defs><style>.cls-1{fill:#ff0b0c;}.cls-12,.cls-13,.cls-14,.cls-2,.cls-3,.cls-4,.cls-5,.cls-6,.cls-7,.cls-8{isolation:isolate;font-size:24.42px;}.cls-2,.cls-20,.cls-3{fill:#c2c2ff;}.cls-12,.cls-13,.cls-14,.cls-18,.cls-2,.cls-20,.cls-21,.cls-22,.cls-23,.cls-24,.cls-3,.cls-4,.cls-5,.cls-6,.cls-7,.cls-8{font-family:ArialMT, Arial;}.cls-13,.cls-2,.cls-6{letter-spacing:-0.06em;}.cls-22,.cls-4{fill:#09fefe;}.cls-23,.cls-5,.cls-6{fill:#80db9e;}.cls-21,.cls-7,.cls-8{fill:#ff870a;}.cls-14,.cls-7{letter-spacing:-0.06em;}.cls-15,.cls-17,.cls-25,.cls-27,.cls-28,.cls-9{fill:none;}.cls-10,.cls-11,.cls-15,.cls-16,.cls-17,.cls-9{stroke:#000;}.cls-10,.cls-11,.cls-15,.cls-16,.cls-17,.cls-25,.cls-26,.cls-27,.cls-28,.cls-9{stroke-miterlimit:1.14;}.cls-10,.cls-11,.cls-25,.cls-26,.cls-9{stroke-width:0.14px;}.cls-10,.cls-26{fill:#fff;}.cls-12,.cls-13,.cls-14,.cls-24{fill:#ffaadc;}.cls-15{stroke-width:1.5px;}.cls-16{stroke-width:0.14px;}.cls-18{font-size:18px;}.cls-19{letter-spacing:-0.04em;}.cls-20,.cls-21,.cls-22,.cls-23,.cls-24,.cls-29,.cls-30{font-size:20px;}.cls-25,.cls-26,.cls-27,.cls-28{stroke:#ff0b0c;}.cls-27,.cls-28{stroke-width:0.14px;}.cls-28{stroke-dasharray:1.98 1.98;}.cls-29,.cls-30{fill:#322d2e;font-family:Arial-BoldMT, Arial;font-weight:700;}.cls-30{letter-spacing:0em;}</style></defs><rect class="cls-1" x="160.58" y="190.61" width="48.2" height="22.33"/><g id="ID000002"><text class="cls-2" transform="translate(199.86 344.92)">A</text></g><g id="ID000003"><text class="cls-3" transform="translate(198.5 320.31)">G</text></g><g id="ID000004"><text class="cls-2" transform="translate(199.86 295.69)">A</text></g><g id="ID000005"><text class="cls-3" transform="translate(198.5 271.08)">G</text></g><g id="ID000006"><text class="cls-3" transform="translate(198.5 246.46)">G</text></g><g id="ID000007"><text class="cls-4" transform="translate(309.95 215.69)">U</text></g><g id="ID000008"><text class="cls-4" transform="translate(309.95 191.08)">U</text></g><g id="ID000009"><text class="cls-5" transform="translate(88.41 166.46)">C</text></g><g id="ID000010"><text class="cls-6" transform="translate(107.55 191.08)">A</text></g><g id="ID000011"><text class="cls-5" transform="translate(106.88 215.69)">C</text></g><g id="ID000012"><text class="cls-3" transform="translate(149.95 246.46)">C</text></g><g id="ID000013"><text class="cls-3" transform="translate(149.95 271.08)">C</text></g><g id="ID000014"><text class="cls-3" transform="translate(149.95 295.69)">U</text></g><g id="ID000015"><text class="cls-3" transform="translate(149.95 320.31)">C</text></g><g id="ID000016"><text class="cls-3" transform="translate(149.95 344.92)">U</text></g><g id="ID000017"><text class="cls-7" transform="translate(249.09 344.92)">A</text></g><g id="ID000018"><text class="cls-8" transform="translate(248.41 320.31)">U</text></g><g id="ID000019"><text class="cls-7" transform="translate(249.09 295.69)">A</text></g><g id="ID000020"><text class="cls-7" transform="translate(267.55 283.38)">A</text></g><g id="ID000021"><line class="cls-9" x1="198.15" y1="333.85" x2="168.62" y2="333.85"/></g><g id="ID000022"><line class="cls-9" x1="198.15" y1="309.23" x2="168.62" y2="309.23"/></g><g id="ID000023"><line class="cls-9" x1="198.15" y1="284.62" x2="168.62" y2="284.62"/></g><g id="ID000024"><line class="cls-9" x1="217.85" y1="284.62" x2="247.38" y2="284.62"/></g><g id="ID000025"><polygon class="cls-10" points="219.82 284.62 229.41 290.15 229.41 279.08 219.82 284.62"/></g><g id="ID000026"><polygon class="cls-10" points="243.94 279.69 234.09 279.69 234.09 289.54 243.94 289.54 243.94 279.69"/></g><g id="ID000027"><line class="cls-9" x1="198.15" y1="260" x2="168.62" y2="260"/></g><g id="ID000028"><line class="cls-9" x1="198.15" y1="235.38" x2="168.62" y2="235.38"/></g><g id="ID000029"><line class="cls-9" x1="217.85" y1="235.38" x2="247.38" y2="235.38"/></g><g id="ID000030"><polygon class="cls-10" points="219.82 235.38 229.41 240.92 229.41 229.85 219.82 235.38"/></g><g id="ID000031"><polygon class="cls-10" points="243.94 235.38 243.93 235.07 243.9 234.76 243.85 234.45 243.78 234.15 243.69 233.85 243.59 233.56 243.46 233.27 243.32 232.99 243.16 232.72 242.98 232.47 242.79 232.22 242.58 231.99 242.36 231.77 242.12 231.56 241.87 231.38 241.61 231.2 241.34 231.04 241.06 230.91 240.77 230.79 240.48 230.68 240.18 230.6 239.87 230.54 239.56 230.49 239.25 230.47 238.94 230.46 238.63 230.48 238.31 230.51 238.01 230.57 237.7 230.64 237.41 230.73 237.11 230.84 236.83 230.97 236.55 231.12 236.29 231.29 236.03 231.47 235.79 231.66 235.56 231.88 235.35 232.1 235.15 232.34 234.96 232.59 234.79 232.86 234.64 233.13 234.5 233.41 234.39 233.7 234.29 234 234.21 234.3 234.15 234.61 234.12 234.92 234.09 235.23 234.09 235.54 234.12 235.85 234.15 236.16 234.21 236.47 234.29 236.77 234.39 237.07 234.5 237.36 234.64 237.64 234.79 237.91 234.96 238.18 235.15 238.43 235.35 238.67 235.56 238.89 235.79 239.1 236.03 239.3 236.29 239.48 236.55 239.65 236.83 239.8 237.11 239.93 237.41 240.04 237.7 240.13 238.01 240.2 238.31 240.26 238.63 240.29 238.94 240.31 239.25 240.3 239.56 240.28 239.87 240.23 240.18 240.17 240.48 240.09 240.77 239.98 241.06 239.86 241.34 239.72 241.61 239.57 241.87 239.4 242.12 239.21 242.36 239 242.58 238.78 242.79 238.55 242.98 238.3 243.16 238.05 243.32 237.78 243.46 237.5 243.59 237.22 243.69 236.92 243.78 236.62 243.85 236.32 243.9 236.01 243.93 235.7 243.94 235.38"/></g><g id="ID000032"><line class="cls-9" x1="308.92" y1="204.62" x2="267.08" y2="204.62"/></g><g id="ID000033"><polygon class="cls-11" points="299.32 204.62 299.31 204.3 299.28 203.99 299.23 203.68 299.17 203.38 299.08 203.08 298.97 202.78 298.85 202.5 298.7 202.22 298.54 201.95 298.36 201.7 298.17 201.45 297.96 201.22 297.74 201 297.5 200.79 297.26 200.6 297 200.43 296.73 200.28 296.44 200.14 296.16 200.02 295.86 199.91 295.56 199.83 295.25 199.77 294.94 199.72 294.63 199.7 294.32 199.69 294.01 199.71 293.7 199.74 293.39 199.8 293.09 199.87 292.79 199.96 292.5 200.07 292.21 200.2 291.94 200.35 291.67 200.52 291.42 200.7 291.18 200.9 290.95 201.11 290.73 201.33 290.53 201.57 290.35 201.82 290.18 202.09 290.02 202.36 289.89 202.64 289.77 202.93 289.68 203.23 289.6 203.53 289.54 203.84 289.5 204.15 289.48 204.46 289.48 204.77 289.5 205.08 289.54 205.39 289.6 205.7 289.68 206 289.77 206.3 289.89 206.59 290.02 206.87 290.18 207.14 290.35 207.41 290.53 207.66 290.73 207.9 290.95 208.12 291.18 208.34 291.42 208.53 291.67 208.71 291.94 208.88 292.21 209.03 292.5 209.16 292.79 209.27 293.09 209.36 293.39 209.43 293.7 209.49 294.01 209.52 294.32 209.54 294.63 209.53 294.94 209.51 295.25 209.46 295.56 209.4 295.86 209.32 296.16 209.21 296.44 209.09 296.73 208.96 297 208.8 297.26 208.63 297.5 208.44 297.74 208.23 297.96 208.01 298.17 207.78 298.36 207.53 298.54 207.28 298.7 207.01 298.85 206.73 298.97 206.44 299.08 206.15 299.17 205.85 299.23 205.55 299.28 205.24 299.31 204.93 299.32 204.62"/></g><g id="ID000034"><polygon class="cls-11" points="276.68 209.54 286.52 209.54 286.52 199.69 276.68 199.69 276.68 209.54"/></g><g id="ID000035"><line class="cls-9" x1="308.92" y1="180" x2="267.08" y2="180"/></g><g id="ID000036"><polygon class="cls-11" points="299.32 180 299.31 179.69 299.28 179.38 299.23 179.07 299.17 178.76 299.08 178.46 298.97 178.17 298.85 177.88 298.7 177.61 298.54 177.34 298.36 177.08 298.17 176.84 297.96 176.6 297.74 176.38 297.5 176.18 297.26 175.99 297 175.82 296.73 175.66 296.44 175.52 296.16 175.4 295.86 175.3 295.56 175.22 295.25 175.15 294.94 175.11 294.63 175.08 294.32 175.08 294.01 175.09 293.7 175.13 293.39 175.18 293.09 175.25 292.79 175.35 292.5 175.46 292.21 175.59 291.94 175.74 291.67 175.9 291.42 176.08 291.18 176.28 290.95 176.49 290.73 176.72 290.53 176.96 290.35 177.21 290.18 177.47 290.02 177.74 289.89 178.03 289.77 178.32 289.68 178.61 289.6 178.91 289.54 179.22 289.5 179.53 289.48 179.84 289.48 180.16 289.5 180.47 289.54 180.78 289.6 181.09 289.68 181.39 289.77 181.68 289.89 181.97 290.02 182.26 290.18 182.53 290.35 182.79 290.53 183.04 290.73 183.28 290.95 183.51 291.18 183.72 291.42 183.92 291.67 184.1 291.94 184.26 292.21 184.41 292.5 184.54 292.79 184.65 293.09 184.75 293.39 184.82 293.7 184.87 294.01 184.91 294.32 184.92 294.63 184.92 294.94 184.89 295.25 184.85 295.56 184.78 295.86 184.7 296.16 184.6 296.44 184.48 296.73 184.34 297 184.18 297.26 184.01 297.5 183.82 297.74 183.62 297.96 183.4 298.17 183.16 298.36 182.92 298.54 182.66 298.7 182.39 298.85 182.12 298.97 181.83 299.08 181.54 299.17 181.24 299.23 180.93 299.28 180.62 299.31 180.31 299.32 180"/></g><g id="ID000037"><polygon class="cls-11" points="276.68 184.92 286.52 184.92 286.52 175.08 276.68 175.08 276.68 184.92"/></g><g id="ID000038"><line class="cls-9" x1="198.49" y1="157.92" x2="125.21" y2="177.46"/></g><g id="ID000039"><polygon class="cls-10" points="174.21 164.4 163.51 161.52 166.37 172.22 174.21 164.4"/></g><g id="ID000040"><polygon class="cls-10" points="150.91 170.61 151 170.91 151.1 171.2 151.23 171.49 151.38 171.76 151.54 172.03 151.72 172.29 151.91 172.53 152.12 172.76 152.35 172.98 152.58 173.18 152.83 173.37 153.09 173.54 153.37 173.7 153.65 173.83 153.94 173.95 154.23 174.05 154.53 174.13 154.84 174.19 155.15 174.24 155.46 174.26 155.77 174.26 156.09 174.25 156.4 174.21 156.7 174.15 157.01 174.08 157.3 173.98 157.59 173.87 157.88 173.74 158.15 173.59 158.42 173.42 158.67 173.24 158.91 173.04 159.14 172.83 159.35 172.6 159.55 172.36 159.74 172.1 159.9 171.84 160.05 171.57 160.19 171.28 160.3 170.99 160.4 170.7 160.47 170.39 160.53 170.09 160.57 169.78 160.58 169.46 160.58 169.15 160.56 168.84 160.52 168.53 160.46 168.22 160.38 167.92 160.28 167.63 160.16 167.34 160.02 167.06 159.87 166.78 159.7 166.52 159.51 166.27 159.31 166.03 159.09 165.81 158.86 165.6 158.62 165.4 158.36 165.22 158.09 165.06 157.82 164.92 157.53 164.79 157.24 164.68 156.94 164.59 156.64 164.52 156.33 164.46 156.02 164.43 155.71 164.42 155.4 164.43 155.08 164.45 154.78 164.5 154.47 164.56 154.17 164.65 153.87 164.75 153.59 164.88 153.31 165.02 153.04 165.18 152.78 165.35 152.53 165.54 152.3 165.75 152.08 165.97 151.87 166.2 151.68 166.45 151.5 166.71 151.34 166.98 151.2 167.26 151.08 167.54 150.97 167.84 150.89 168.14 150.82 168.44 150.78 168.75 150.75 169.06 150.74 169.38 150.75 169.69 150.78 170 150.83 170.31 150.91 170.61"/></g><g id="ID000041"><line class="cls-9" x1="168.17" y1="232.45" x2="247.83" y2="207.55"/></g><g id="ID000042"><polygon class="cls-11" points="195.79 223.82 206.59 226.24 203.29 215.67 195.79 223.82"/></g><g id="ID000043"><polygon class="cls-11" points="218.81 216.62 218.71 216.33 218.58 216.04 218.44 215.76 218.29 215.49 218.12 215.23 217.93 214.98 217.72 214.75 217.5 214.52 217.27 214.31 217.02 214.12 216.76 213.94 216.5 213.78 216.22 213.64 215.93 213.52 215.64 213.41 215.34 213.32 215.03 213.26 214.72 213.21 214.41 213.18 214.1 213.17 213.79 213.18 213.48 213.21 213.17 213.26 212.87 213.33 212.57 213.42 212.27 213.52 211.99 213.65 211.71 213.79 211.44 213.95 211.18 214.13 210.94 214.32 210.71 214.53 210.49 214.76 210.28 214.99 210.09 215.24 209.92 215.5 209.77 215.77 209.63 216.05 209.51 216.34 209.41 216.64 209.32 216.94 209.26 217.24 209.22 217.55 209.19 217.86 209.19 218.18 209.2 218.49 209.24 218.8 209.29 219.11 209.37 219.41 209.46 219.71 209.57 220 209.7 220.28 209.85 220.56 210.01 220.82 210.19 221.08 210.39 221.32 210.6 221.55 210.83 221.76 211.07 221.97 211.32 222.15 211.59 222.32 211.86 222.47 212.14 222.6 212.43 222.72 212.73 222.82 213.03 222.9 213.34 222.95 213.65 222.99 213.96 223.01 214.27 223.01 214.58 222.99 214.89 222.95 215.2 222.89 215.5 222.81 215.8 222.72 216.09 222.6 216.37 222.46 216.64 222.31 216.91 222.14 217.16 221.96 217.4 221.75 217.62 221.54 217.83 221.31 218.03 221.07 218.21 220.81 218.38 220.55 218.52 220.27 218.65 219.99 218.76 219.69 218.86 219.4 218.93 219.09 218.98 218.78 219.02 218.47 219.03 218.16 219.03 217.85 219 217.54 218.96 217.23 218.89 216.92 218.81 216.62"/></g><g id="ID000045"><text class="cls-12" transform="translate(199.18 92.62)">C</text></g><g id="ID000046"><text class="cls-12" transform="translate(199.18 117.23)">U</text></g><g id="ID000047"><text class="cls-13" transform="translate(199.86 141.85)">A</text></g><g id="ID000048"><text class="cls-12" transform="translate(198.5 166.46)">G</text></g><g id="ID000049"><text class="cls-7" transform="translate(267.55 258.77)">A</text></g><g id="ID000050"><text class="cls-7" transform="translate(249.09 246.46)">A</text></g><g id="ID000051"><text class="cls-7" transform="translate(249.09 215.69)">A</text></g><g id="ID000052"><text class="cls-7" transform="translate(249.09 191.08)">A</text></g><g id="ID000053"><text class="cls-12" transform="translate(248.41 166.46)">C</text></g><g id="ID000054"><text class="cls-12" transform="translate(248.41 141.85)">U</text></g><g id="ID000055"><text class="cls-14" transform="translate(249.09 117.23)">A</text></g><g id="ID000056"><text class="cls-14" transform="translate(249.09 92.62)">A</text></g><g id="ID000057"><line class="cls-9" x1="217.85" y1="81.54" x2="247.38" y2="81.54"/></g><g id="ID000058"><polygon class="cls-11" points="237.54 81.54 237.53 81.23 237.5 80.92 237.45 80.61 237.38 80.3 237.29 80 237.19 79.71 237.06 79.42 236.92 79.14 236.76 78.88 236.58 78.62 236.39 78.37 236.18 78.14 235.96 77.92 235.72 77.72 235.47 77.53 235.21 77.36 234.94 77.2 234.66 77.06 234.37 76.94 234.08 76.84 233.78 76.75 233.47 76.69 233.16 76.65 232.85 76.62 232.54 76.62 232.22 76.63 231.91 76.67 231.61 76.72 231.3 76.79 231 76.89 230.71 77 230.43 77.13 230.15 77.28 229.89 77.44 229.63 77.62 229.39 77.82 229.16 78.03 228.95 78.26 228.75 78.5 228.56 78.75 228.39 79.01 228.24 79.28 228.1 79.56 227.99 79.86 227.89 80.15 227.81 80.45 227.75 80.76 227.72 81.07 227.69 81.38 227.69 81.69 227.72 82.01 227.75 82.32 227.81 82.62 227.89 82.92 227.99 83.22 228.1 83.51 228.24 83.79 228.39 84.07 228.56 84.33 228.75 84.58 228.95 84.82 229.16 85.05 229.39 85.26 229.63 85.46 229.89 85.64 230.15 85.8 230.43 85.95 230.71 86.08 231 86.19 231.3 86.28 231.61 86.36 231.91 86.41 232.22 86.45 232.54 86.46 232.85 86.46 233.16 86.43 233.47 86.39 233.78 86.32 234.08 86.24 234.37 86.14 234.66 86.02 234.94 85.88 235.21 85.72 235.47 85.55 235.72 85.36 235.96 85.16 236.18 84.94 236.39 84.7 236.58 84.46 236.76 84.2 236.92 83.93 237.06 83.66 237.19 83.37 237.29 83.08 237.38 82.78 237.45 82.47 237.5 82.16 237.53 81.85 237.54 81.54"/></g><g id="ID000059"><line class="cls-9" x1="217.85" y1="106.15" x2="247.38" y2="106.15"/></g><g id="ID000060"><line class="cls-9" x1="217.85" y1="130.77" x2="247.38" y2="130.77"/></g><g id="ID000061"><line class="cls-9" x1="217.85" y1="155.38" x2="247.38" y2="155.38"/></g><g id="ID000063"><polyline class="cls-15" points="318.77 170.15 318.77 38.46 208 38.46 208 71.69"/></g><g id="ID000064"><polygon class="cls-16" points="271.59 45.85 267.49 42.15 263.38 40.92 259.28 40.31 251.08 38.46 259.28 36.62 263.38 36 267.49 34.77 271.59 31.08 271.59 45.85"/></g><g id="ID000065"><line class="cls-15" x1="217.49" y1="232.75" x2="309.28" y2="207.25"/></g><g id="ID000066"><polygon class="cls-16" points="247 216.89 251.95 219.34 256.23 219.43 260.35 218.93 268.75 218.51 261.33 222.49 257.55 224.18 253.92 226.46 250.96 231.12 247 216.89"/></g><g id="ID000067"><polyline class="cls-15" points="158.77 343.69 158.77 383.08 257.23 383.08 257.23 343.69"/></g><g id="ID000068"><polygon class="cls-16" points="199.79 375.69 203.9 379.38 208 380.62 212.1 381.23 220.31 383.08 212.1 384.92 208 385.54 203.9 386.77 199.79 390.46 199.79 375.69"/></g><g id="ID000069"><polyline class="cls-15" points="115.69 214.46 115.69 235.38 148.92 235.38"/></g><g id="ID000070"><polygon class="cls-16" points="124.1 228 128.21 231.69 132.31 232.92 136.41 233.54 144.62 235.38 136.41 237.23 132.31 237.85 128.21 239.08 124.1 242.77 124.1 228"/></g><path class="cls-17" d="M95.94,147.39c-3.43-29.5,27.59-59,102.55,6.38"/><text class="cls-18" transform="translate(202.84 362.02)">5<tspan class="cls-19" x="10.01" y="0">’</tspan></text><text class="cls-18" transform="translate(252.65 71.06)">3<tspan class="cls-19" x="10.01" y="0">’</tspan></text><text class="cls-18" transform="translate(266.22 164.42)">31</text><text class="cls-18" transform="translate(181.09 138.97)">10</text><text class="cls-18" transform="translate(215.65 342.15)">1</text><text class="cls-18" transform="translate(129.6 293.31)">20</text><text class="cls-20" transform="translate(116.61 325.42)">S1</text><text class="cls-21" transform="translate(294.4 298.64)">L3</text><text class="cls-22" transform="translate(338.22 202.27)">L1</text><text class="cls-23" transform="translate(67.88 194.65)">L2</text><text class="cls-24" transform="translate(166.61 104.31)">S2</text><text class="cls-18" transform="translate(160.58 205.38)">PreQ</text><text class="cls-18" transform="translate(202.6 211.38) scale(0.58)">1</text><g id="ID000038-2" data-name="ID000038"><line class="cls-25" x1="210.36" y1="192.22" x2="250.26" y2="181.58"/></g><g id="ID000039-2" data-name="ID000039"><polygon class="cls-26" points="217.49 190.27 228.18 193.15 225.33 182.45 217.49 190.27"/></g><g id="ID000040-2" data-name="ID000040"><polygon class="cls-26" points="239.47 184.42 239.38 184.12 239.28 183.83 239.15 183.54 239 183.27 238.84 183 238.66 182.74 238.47 182.5 238.26 182.27 238.03 182.05 237.8 181.85 237.55 181.66 237.28 181.49 237.01 181.33 236.73 181.2 236.44 181.08 236.15 180.98 235.85 180.9 235.54 180.84 235.23 180.79 234.92 180.77 234.61 180.77 234.29 180.78 233.98 180.82 233.68 180.88 233.37 180.95 233.08 181.05 232.78 181.16 232.5 181.29 232.23 181.44 231.96 181.61 231.71 181.79 231.47 181.99 231.24 182.2 231.03 182.43 230.83 182.67 230.64 182.93 230.48 183.19 230.33 183.46 230.19 183.75 230.08 184.04 229.99 184.33 229.91 184.64 229.85 184.94 229.81 185.25 229.8 185.57 229.8 185.88 229.82 186.19 229.86 186.5 229.92 186.81 230 187.11 230.1 187.4 230.22 187.69 230.36 187.97 230.51 188.25 230.68 188.51 230.87 188.76 231.07 189 231.29 189.22 231.52 189.43 231.76 189.63 232.02 189.81 232.28 189.97 232.56 190.11 232.85 190.24 233.14 190.35 233.44 190.44 233.74 190.51 234.05 190.57 234.36 190.6 234.67 190.61 234.99 190.6 235.3 190.58 235.6 190.53 235.91 190.47 236.21 190.38 236.51 190.28 236.79 190.15 237.07 190.01 237.34 189.85 237.6 189.68 237.85 189.49 238.08 189.28 238.3 189.06 238.51 188.83 238.7 188.58 238.88 188.32 239.03 188.05 239.18 187.78 239.3 187.49 239.41 187.19 239.49 186.89 239.56 186.59 239.6 186.28 239.63 185.97 239.64 185.66 239.63 185.34 239.6 185.03 239.55 184.72 239.47 184.42"/></g><g id="ID000061-2" data-name="ID000061"><line class="cls-25" x1="127.78" y1="207.25" x2="157.32" y2="207.25"/></g><line class="cls-27" x1="210.36" y1="196.55" x2="211.36" y2="196.61"/><line class="cls-28" x1="213.34" y1="196.72" x2="307.29" y2="202.16"/><line class="cls-27" x1="308.28" y1="202.21" x2="309.28" y2="202.27"/><text class="cls-29" transform="translate(3.49 20.01) scale(0.94 1)">PreQ</text><text class="cls-30" transform="translate(48.32 26.67) scale(0.55 0.58)">1</text><text class="cls-29" transform="translate(54.4 20.01) scale(0.94 1)">-I type 2 Riboswitch</text></svg>