<?xml version="1.0" encoding="utf-8"?>
<!-- Generator: Adobe Illustrator 26.0.0, SVG Export Plug-In . SVG Version: 6.00 Build 0)  -->
<svg version="1.1" id="图层_1" xmlns="http://www.w3.org/2000/svg" xmlns:xlink="http://www.w3.org/1999/xlink" x="0px" y="0px"
	 viewBox="0 0 400 400" style="enable-background:new 0 0 400 400;" xml:space="preserve">
<style type="text/css">
	.st0{fill:#FF0B0C;stroke:#FF0B0C;stroke-miterlimit:10;}
	.st1{fill:#FFFFFF;}
	.st2{font-family:'ArialMT';}
	.st3{font-size:20.7349px;}
	.st4{fill:#80DB9E;}
	.st5{font-size:15.25px;}
	.st6{fill:#C2C2FF;}
	.st7{fill:none;stroke:#000000;stroke-width:0.14;stroke-miterlimit:1.11;}
	.st8{font-size:10px;}
	.st9{stroke:#000000;stroke-width:0.14;stroke-miterlimit:1.11;}
	.st10{fill:#FFAADC;}
	.st11{fill:none;stroke:#000000;stroke-width:0.5;stroke-miterlimit:1.11;}
	.st12{fill:#FFFFFF;stroke:#000000;stroke-width:0.14;stroke-miterlimit:1.11;}
	.st13{fill:#FFDF5C;}
	.st14{fill:#09FEFE;}
	.st15{font-size:18px;}
	.st16{fill:#251E1C;}
	.st17{font-size:14px;}
	.st18{font-size:20px;}
</style>
<path class="st0" d="M182,259.2c0,10.6-12.4,19.1-27.7,19.1s-27.9-8.6-27.9-19.1c0-10.6,12.4-19.1,27.9-19.1S182,248.5,182,259.2z"
	/>
<text transform="matrix(0.9307 0 0 1 131.5996 266)" class="st1 st2 st3">SAM</text>
<g>
	<g id="ID000002">
		<text transform="matrix(1.01 0 0 1 98.6499 311.0996)" class="st4 st2 st5">G</text>
	</g>
	<g id="ID000003">
		<text transform="matrix(1.01 0 0 1 98.6499 296.0596)" class="st4 st2 st5">G</text>
	</g>
	<g id="ID000004">
		<text transform="matrix(1.01 0 0 1 99.0801 281.0303)" class="st4 st2 st5">C</text>
	</g>
	<g id="ID000005">
		<text transform="matrix(1.01 0 0 1 99.0801 266)" class="st4 st2 st5">U</text>
	</g>
	<g id="ID000006">
		<text transform="matrix(1.01 0 0 1 99.0801 250.9697)" class="st4 st2 st5">U</text>
	</g>
	<g id="ID000007">
		<text transform="matrix(1.01 0 0 1 99.5098 235.9404)" class="st4 st2 st5">A</text>
	</g>
	<g id="ID000008">
		<text transform="matrix(1.01 0 0 1 99.0801 220.9102)" class="st4 st2 st5">U</text>
	</g>
	<g id="ID000009">
		<text transform="matrix(1.01 0 0 1 99.0801 205.8799)" class="st4 st2 st5">C</text>
	</g>
	<g id="ID000010">
		<text transform="matrix(1.01 0 0 1 118.5098 205.8799)" class="st6 st2 st5">A</text>
	</g>
	<g id="ID000011">
		<text transform="matrix(1.01 0 0 1 133.7202 205.8799)" class="st6 st2 st5">A</text>
	</g>
	<g id="ID000012">
		<line class="st7" x1="138.9" y1="209.1" x2="138.9" y2="219.2"/>
	</g>
	<g id="ID000013">
		<text transform="matrix(1.01 0 0 1 133.7202 230.7754)" class="st2 st8">10</text>
	</g>
	<g id="ID000014">
		<text transform="matrix(1.01 0 0 1 148.0601 205.8799)" class="st6 st2 st5">G</text>
	</g>
	<g id="ID000015">
		<text transform="matrix(1.01 0 0 1 65.2998 172.0601)" class="st6 st2 st5">A</text>
	</g>
	<g id="ID000016">
		<text transform="matrix(1.01 0 0 1 69.1001 190.8501)" class="st6 st2 st5">A</text>
	</g>
	<g id="ID000017">
		<text transform="matrix(1.01 0 0 1 68.25 205.8799)" class="st4 st2 st5">G</text>
	</g>
	<g id="ID000018">
		<text transform="matrix(1.01 0 0 1 69.1001 220.9102)" class="st4 st2 st5">A</text>
	</g>
	<g id="ID000019">
		<text transform="matrix(1.01 0 0 1 68.6802 235.9404)" class="st4 st2 st5">U</text>
	</g>
	<g id="ID000020">
		<text transform="matrix(1.01 0 0 1 68.25 250.9697)" class="st4 st2 st5">G</text>
	</g>
	<g id="ID000021">
		<text transform="matrix(1.01 0 0 1 69.1001 266)" class="st4 st2 st5">A</text>
	</g>
	<g id="ID000022">
		<line class="st7" x1="64.1" y1="259.2" x2="54" y2="259.2"/>
	</g>
	<g id="ID000023">
		<text transform="matrix(1.01 0 0 1 40.4888 263)" class="st2 st8">90</text>
	</g>
	<g id="ID000024">
		<text transform="matrix(1.01 0 0 1 68.25 281.0303)" class="st4 st2 st5">G</text>
	</g>
	<g id="ID000025">
		<text transform="matrix(1.01 0 0 1 68.6802 296.0596)" class="st4 st2 st5">C</text>
	</g>
	<g id="ID000026">
		<text transform="matrix(1.01 0 0 1 68.6802 311.0996)" class="st4 st2 st5">C</text>
	</g>
	<g id="ID000027">
		<text transform="matrix(1.01 0 0 1 69.1001 326.1201)" class="st4 st2 st5">A</text>
	</g>
	<g id="ID000028">
		<line class="st7" x1="98.6" y1="304.3" x2="80.3" y2="304.3"/>
	</g>
	<g id="ID000029">
		<line class="st7" x1="98.6" y1="289.3" x2="80.3" y2="289.3"/>
	</g>
	<g id="ID000030">
		<line class="st7" x1="98.6" y1="274.3" x2="80.3" y2="274.3"/>
	</g>
	<g id="ID000031">
		<line class="st7" x1="98.6" y1="259.2" x2="80.3" y2="259.2"/>
	</g>
	<g id="ID000032">
		<polygon class="st9" points="86.4,244.2 86.4,244.4 86.4,244.6 86.5,244.8 86.5,245 86.6,245.1 86.6,245.3 86.7,245.5 86.8,245.7 
			86.9,245.8 87,246 87.1,246.1 87.2,246.3 87.4,246.4 87.5,246.5 87.7,246.7 87.8,246.8 88,246.9 88.2,246.9 88.4,247 88.6,247.1 
			88.7,247.1 88.9,247.2 89.1,247.2 89.3,247.2 89.5,247.2 89.7,247.2 89.9,247.2 90.1,247.1 90.3,247.1 90.4,247.1 90.6,247 
			90.8,246.9 91,246.8 91.1,246.7 91.3,246.6 91.4,246.5 91.6,246.4 91.7,246.2 91.8,246.1 91.9,245.9 92.1,245.8 92.2,245.6 
			92.2,245.4 92.3,245.2 92.4,245.1 92.4,244.9 92.4,244.7 92.5,244.5 92.5,244.3 92.5,244.1 92.5,243.9 92.4,243.7 92.4,243.6 
			92.4,243.4 92.3,243.2 92.2,243 92.2,242.8 92.1,242.7 91.9,242.5 91.8,242.4 91.7,242.2 91.6,242.1 91.4,241.9 91.3,241.8 
			91.1,241.7 91,241.6 90.8,241.5 90.6,241.4 90.4,241.4 90.3,241.3 90.1,241.3 89.9,241.2 89.7,241.2 89.5,241.2 89.3,241.2 
			89.1,241.2 88.9,241.2 88.7,241.3 88.6,241.3 88.4,241.4 88.2,241.5 88,241.6 87.8,241.7 87.7,241.8 87.5,241.9 87.4,242 
			87.2,242.1 87.1,242.3 87,242.4 86.9,242.6 86.8,242.8 86.7,242.9 86.6,243.1 86.6,243.3 86.5,243.5 86.5,243.6 86.4,243.8 
			86.4,244 		"/>
	</g>
	<g id="ID000033">
		<line class="st7" x1="98.6" y1="229.2" x2="80.3" y2="229.2"/>
	</g>
	<g id="ID000034">
		<line class="st7" x1="98.6" y1="214.1" x2="80.3" y2="214.1"/>
	</g>
	<g id="ID000035">
		<line class="st7" x1="98.6" y1="199.1" x2="80.3" y2="199.1"/>
	</g>
	<g id="ID000036">
		<polyline class="st7" points="176.9,175.1 176.9,183.6 80.3,184.1 		"/>
	</g>
	<g id="ID000037">
		<polygon class="st9" points="125.6,183.9 125.6,184.1 125.6,184.2 125.6,184.4 125.7,184.6 125.7,184.8 125.8,185 125.9,185.2 
			125.9,185.3 126.1,185.5 126.2,185.6 126.3,185.8 126.4,185.9 126.5,186.1 126.7,186.2 126.8,186.3 127,186.4 127.2,186.5 
			127.3,186.6 127.5,186.7 127.7,186.7 127.9,186.8 128.1,186.8 128.3,186.8 128.5,186.9 128.7,186.9 128.9,186.9 129,186.8 
			129.2,186.8 129.4,186.8 129.6,186.7 129.8,186.6 130,186.5 130.1,186.4 130.3,186.4 130.4,186.2 130.6,186.1 130.7,186 
			130.9,185.9 131,185.7 131.1,185.6 131.2,185.4 131.3,185.2 131.4,185 131.5,184.9 131.5,184.7 131.6,184.5 131.6,184.3 
			131.6,184.1 131.6,183.9 131.6,183.7 131.6,183.6 131.6,183.4 131.6,183.2 131.5,183 131.4,182.8 131.4,182.6 131.3,182.5 
			131.2,182.3 131.1,182.1 131,182 130.9,181.8 130.7,181.7 130.6,181.6 130.4,181.4 130.3,181.3 130.1,181.2 129.9,181.1 
			129.8,181.1 129.6,181 129.4,180.9 129.2,180.9 129,180.9 128.8,180.9 128.6,180.9 128.4,180.9 128.2,180.9 128.1,180.9 
			127.9,180.9 127.7,181 127.5,181.1 127.3,181.1 127.2,181.2 127,181.3 126.8,181.4 126.7,181.5 126.5,181.6 126.4,181.8 
			126.3,181.9 126.1,182.1 126,182.2 125.9,182.4 125.8,182.6 125.8,182.8 125.7,182.9 125.7,183.1 125.6,183.3 125.6,183.5 
			125.6,183.7 		"/>
	</g>
	<g id="ID000039">
		<text transform="matrix(1.01 0 0 1 164.1201 205.8799)" class="st6 st2 st5">A</text>
	</g>
	<g id="ID000040">
		<text transform="matrix(1.01 0 0 1 281.0801 205.8799)" class="st10 st2 st5">G</text>
	</g>
	<g id="ID000041">
		<text transform="matrix(1.01 0 0 1 266.7402 190.8501)" class="st10 st2 st5">A</text>
	</g>
	<g id="ID000042">
		<text transform="matrix(1.01 0 0 1 281.0801 183.3398)" class="st10 st2 st5">G</text>
	</g>
	<g id="ID000043">
		<text transform="matrix(1.01 0 0 1 281.0801 168.2998)" class="st10 st2 st5">G</text>
	</g>
	<g id="ID000044">
		<text transform="matrix(1.01 0 0 1 281.5195 153.27)" class="st10 st2 st5">U</text>
	</g>
	<g id="ID000045">
		<text transform="matrix(1.01 0 0 1 254.4805 115.7002)" class="st10 st2 st5">G</text>
	</g>
	<g id="ID000046">
		<text transform="matrix(1.01 0 0 1 235.4805 115.7002)" class="st10 st2 st5">G</text>
	</g>
	<g id="ID000047">
		<text transform="matrix(1.01 0 0 1 311.5 104.4199)" class="st10 st2 st5">G</text>
	</g>
	<g id="ID000048">
		<text transform="matrix(1.01 0 0 1 312.3398 123.21)" class="st10 st2 st5">A</text>
	</g>
	<g id="ID000049">
		<text transform="matrix(1.01 0 0 1 312.3398 138.2402)" class="st10 st2 st5">A</text>
	</g>
	<g id="ID000050">
		<text transform="matrix(1.01 0 0 1 312.3398 153.27)" class="st10 st2 st5">A</text>
	</g>
	<g id="ID000051">
		<text transform="matrix(1.01 0 0 1 311.9199 168.2998)" class="st10 st2 st5">C</text>
	</g>
	<g id="ID000052">
		<text transform="matrix(1.01 0 0 1 311.9199 183.3398)" class="st10 st2 st5">C</text>
	</g>
	<g id="ID000053">
		<line class="st7" x1="327.6" y1="176.6" x2="337.8" y2="176.6"/>
	</g>
	<g id="ID000054">
		<text transform="matrix(1.01 0 0 1 339.2881 180.8501)" class="st2 st8">40</text>
	</g>
	<g id="ID000055">
		<text transform="matrix(1.01 0 0 1 311.9199 202.1201)" class="st10 st2 st5">C</text>
	</g>
	<g id="ID000056">
		<polyline class="st7" points="169.3,205.1 169.7,248.1 311.4,248 		"/>
	</g>
	<g id="ID000057">
		<polygon class="st9" points="244.5,248 238.6,244.7 238.6,251.4 		"/>
	</g>
	<g id="ID000058">
		<line class="st7" x1="293.1" y1="198.4" x2="311.5" y2="196.1"/>
	</g>
	<g id="ID000059">
		<polygon class="st9" points="305.3,196.9 305.3,196.7 305.2,196.5 305.2,196.3 305.1,196.1 305,195.9 305,195.8 304.9,195.6 
			304.7,195.5 304.6,195.3 304.5,195.2 304.4,195 304.2,194.9 304.1,194.8 303.9,194.7 303.7,194.6 303.6,194.5 303.4,194.4 
			303.2,194.4 303,194.3 302.8,194.3 302.6,194.2 302.4,194.2 302.2,194.2 302.1,194.2 301.9,194.3 301.7,194.3 301.5,194.3 
			301.3,194.4 301.1,194.5 300.9,194.5 300.8,194.6 300.6,194.7 300.5,194.8 300.3,195 300.2,195.1 300,195.2 299.9,195.4 
			299.8,195.5 299.7,195.7 299.6,195.9 299.5,196 299.4,196.2 299.4,196.4 299.3,196.6 299.3,196.8 299.3,196.9 299.2,197.1 
			299.2,197.3 299.3,197.5 299.3,197.7 299.3,197.9 299.4,198.1 299.4,198.3 299.5,198.4 299.6,198.6 299.7,198.8 299.8,198.9 
			299.9,199.1 300,199.2 300.1,199.4 300.3,199.5 300.4,199.6 300.6,199.7 300.8,199.8 300.9,199.9 301.1,200 301.3,200.1 
			301.5,200.1 301.7,200.2 301.9,200.2 302,200.2 302.2,200.2 302.4,200.2 302.6,200.2 302.8,200.2 303,200.2 303.2,200.1 
			303.4,200.1 303.5,200 303.7,199.9 303.9,199.8 304,199.7 304.2,199.6 304.4,199.4 304.5,199.3 304.6,199.2 304.7,199 
			304.8,198.9 304.9,198.7 305,198.5 305.1,198.4 305.2,198.2 305.2,198 305.3,197.8 305.3,197.6 305.3,197.4 305.3,197.2 
			305.3,197.1 		"/>
	</g>
	<g id="ID000060">
		<line class="st7" x1="293.2" y1="176.6" x2="311.4" y2="176.6"/>
	</g>
	<g id="ID000061">
		<line class="st7" x1="293.2" y1="161.5" x2="311.4" y2="161.5"/>
	</g>
	<g id="ID000062">
		<line class="st11" x1="283.6" y1="141.6" x2="264" y2="113.9"/>
	</g>
	<g id="ID000063">
		<polygon class="st9" points="273,134.4 273.4,131.1 272.5,128.6 271.4,126.3 269.4,121.6 273.3,125 275,126.9 277.1,128.5 
			280.4,129.2 		"/>
	</g>
	<g id="ID000064">
		<line class="st7" x1="293.2" y1="146.5" x2="311.4" y2="146.5"/>
	</g>
	<g id="ID000065">
		<polyline class="st7" points="266.6,108.8 294.7,108.3 313.2,127.2 		"/>
	</g>
	<g id="ID000066">
		<polygon class="st12" points="298.5,112.1 300.1,118.7 305,114 		"/>
	</g>
	<g id="ID000067">
		<polygon class="st12" points="311,120.6 306.8,116.3 302.4,120.5 306.7,124.8 		"/>
	</g>
	<g id="ID000068">
		<polyline class="st7" points="241.5,102.9 241.5,82.6 298.5,82.6 314.5,111.2 		"/>
	</g>
	<g id="ID000069">
		<polygon class="st12" points="262.1,82.6 268,86 268,79.2 		"/>
	</g>
	<g id="ID000070">
		<polygon class="st12" points="277,79.6 270.9,79.6 270.9,85.6 277,85.6 		"/>
	</g>
	<g id="ID000071">
		<line class="st11" x1="258" y1="135.7" x2="312.4" y2="100.9"/>
	</g>
	<g id="ID000072">
		<polygon class="st9" points="278.5,117.3 281.8,117.8 284.4,117.1 286.7,116 291.6,114.2 287.9,117.9 286,119.6 284.3,121.6 
			283.4,124.8 		"/>
	</g>
	<g id="ID000073">
		<polyline class="st7" points="222.5,102.9 222.5,67.6 317.5,67.6 317.5,91.7 		"/>
	</g>
	<g id="ID000074">
		<polygon class="st12" points="263,70.6 269.1,70.6 269.1,64.6 263,64.6 		"/>
	</g>
	<g id="ID000075">
		<polygon class="st12" points="277.9,67.6 272,64.2 272,71 		"/>
	</g>
	<g id="ID000077">
		<text transform="matrix(1.01 0 0 1 217.3301 115.7002)" class="st10 st2 st5">A</text>
	</g>
	<g id="ID000078">
		<line class="st7" x1="215.3" y1="101.8" x2="208.1" y2="94.8"/>
	</g>
	<g id="ID000079">
		<text transform="matrix(1.01 0 0 1 196.5098 93.1499)" class="st2 st8">20</text>
	</g>
	<g id="ID000080">
		<text transform="matrix(1.01 0 0 1 201.2695 115.7002)" class="st10 st2 st5">G</text>
	</g>
	<g id="ID000081">
		<text transform="matrix(1.01 0 0 1 186.0698 115.7002)" class="st10 st2 st5">G</text>
	</g>
	<g id="ID000082">
		<text transform="matrix(1.01 0 0 1 170.8701 115.7002)" class="st10 st2 st5">G</text>
	</g>
	<g id="ID000083">
		<text transform="matrix(1.01 0 0 1 156.52 115.7002)" class="st10 st2 st5">A</text>
	</g>
	<g id="ID000084">
		<text transform="matrix(1.01 0 0 1 140.8901 115.7002)" class="st10 st2 st5">C</text>
	</g>
	<g id="ID000085">
		<text transform="matrix(1.01 0 0 1 170.7202 146.3301)" class="st10 st2 st5">C</text>
	</g>
	<g id="ID000086">
		<text transform="matrix(1.01 0 0 1 186.5 145.7598)" class="st10 st2 st5">C</text>
	</g>
	<g id="ID000087">
		<text transform="matrix(1.01 0 0 1 201.7002 145.7598)" class="st10 st2 st5">C</text>
	</g>
	<g id="ID000088">
		<text transform="matrix(1.01 0 0 1 216.4697 145.7598)" class="st10 st2 st5">G</text>
	</g>
	<g id="ID000089">
		<text transform="matrix(1.01 0 0 1 232.5303 145.7598)" class="st10 st2 st5">A</text>
	</g>
	<g id="ID000090">
		<text transform="matrix(1.01 0 0 1 247.3096 145.7598)" class="st10 st2 st5">U</text>
	</g>
	<g id="ID000091">
		<line class="st7" x1="207.3" y1="114.9" x2="207.3" y2="133"/>
	</g>
	<g id="ID000092">
		<line class="st7" x1="192.1" y1="114.9" x2="192.1" y2="133"/>
	</g>
	<g id="ID000093">
		<line class="st7" x1="176.9" y1="114.9" x2="176.9" y2="133"/>
	</g>
	<g id="ID000094">
		<polyline class="st7" points="178.1,114.8 184.5,146.5 203,164.8 		"/>
	</g>
	<g id="ID000095">
		<polygon class="st12" points="188.1,150.1 189.9,156.7 194.7,151.9 		"/>
	</g>
	<g id="ID000096">
		<polygon class="st12" points="198.7,160.6 198.8,160.4 198.9,160.3 199,160.1 199.1,159.9 199.2,159.8 199.3,159.6 199.4,159.4 
			199.4,159.2 199.5,159.1 199.5,158.9 199.5,158.7 199.6,158.5 199.6,158.3 199.5,158.1 199.5,157.9 199.5,157.7 199.4,157.6 
			199.4,157.4 199.3,157.2 199.2,157 199.1,156.9 199,156.7 198.9,156.5 198.8,156.4 198.6,156.3 198.5,156.1 198.3,156 
			198.2,155.9 198,155.8 197.8,155.7 197.7,155.6 197.5,155.6 197.3,155.5 197.1,155.5 196.9,155.4 196.7,155.4 196.5,155.4 
			196.3,155.4 196.1,155.4 196,155.5 195.8,155.5 195.6,155.6 195.4,155.6 195.2,155.7 195.1,155.8 194.9,155.9 194.7,156 
			194.6,156.1 194.4,156.2 194.3,156.4 194.2,156.5 194.1,156.7 193.9,156.8 193.9,157 193.8,157.1 193.7,157.3 193.6,157.5 
			193.6,157.7 193.5,157.9 193.5,158.1 193.5,158.2 193.5,158.4 193.5,158.6 193.5,158.8 193.5,159 193.6,159.2 193.6,159.4 
			193.7,159.6 193.8,159.7 193.9,159.9 194,160.1 194.1,160.2 194.2,160.4 194.3,160.5 194.5,160.6 194.6,160.8 194.8,160.9 
			194.9,161 195.1,161.1 195.3,161.2 195.4,161.2 195.6,161.3 195.8,161.4 196,161.4 196.2,161.4 196.4,161.4 196.6,161.4 
			196.8,161.4 197,161.4 197.2,161.4 197.4,161.3 197.5,161.2 197.7,161.2 197.9,161.1 198.1,161 198.2,160.9 198.4,160.8 
			198.5,160.7 		"/>
	</g>
	<g id="ID000097">
		<polyline class="st11" points="140.4,108.9 126.7,108.9 127.3,133 		"/>
	</g>
	<g id="ID000098">
		<polygon class="st9" points="131.4,115.8 129.2,118.4 128.5,120.9 128.2,123.4 127.2,128.5 125.9,123.5 125.5,121 124.7,118.5 
			122.3,116.1 		"/>
	</g>
	<g id="ID000099">
		<polyline class="st7" points="140.4,109.1 119.9,109.8 103.4,144.8 		"/>
	</g>
	<g id="ID000100">
		<polygon class="st9" points="110.3,130 110.5,130.1 110.7,130.2 110.9,130.2 111.1,130.3 111.3,130.3 111.5,130.3 111.7,130.3 
			111.9,130.3 112.1,130.3 112.2,130.2 112.4,130.2 112.6,130.1 112.8,130.1 113,130 113.1,129.9 113.3,129.8 113.5,129.7 
			113.6,129.6 113.8,129.4 113.9,129.3 114,129.2 114.1,129 114.2,128.9 114.3,128.7 114.4,128.5 114.5,128.3 114.6,128.2 
			114.6,128 114.6,127.8 114.7,127.6 114.7,127.4 114.7,127.2 114.7,127 114.6,126.8 114.6,126.7 114.6,126.5 114.5,126.3 
			114.4,126.1 114.3,125.9 114.2,125.8 114.2,125.6 114,125.5 113.9,125.3 113.8,125.2 113.6,125 113.5,124.9 113.3,124.8 
			113.2,124.7 113,124.6 112.8,124.5 112.6,124.5 112.5,124.4 112.3,124.4 112.1,124.3 111.9,124.3 111.7,124.3 111.5,124.3 
			111.3,124.3 111.1,124.3 110.9,124.4 110.8,124.4 110.6,124.5 110.4,124.6 110.2,124.6 110.1,124.7 109.9,124.8 109.7,124.9 
			109.6,125.1 109.4,125.2 109.3,125.3 109.2,125.5 109.1,125.7 109,125.8 108.9,126 108.8,126.2 108.8,126.3 108.7,126.5 
			108.7,126.7 108.6,126.9 108.6,127.1 108.6,127.3 108.6,127.5 108.6,127.7 108.6,127.8 108.7,128 108.7,128.2 108.8,128.4 
			108.9,128.6 109,128.8 109.1,128.9 109.2,129.1 109.3,129.2 109.4,129.4 109.6,129.5 109.7,129.6 109.9,129.7 110,129.8 
			110.2,129.9 		"/>
	</g>
	<g id="ID000101">
		<line class="st7" x1="196.4" y1="143.2" x2="218.2" y2="164.8"/>
	</g>
	<g id="ID000102">
		<polygon class="st9" points="201.7,148.5 203.4,155 208.3,150.2 		"/>
	</g>
	<g id="ID000103">
		<polygon class="st9" points="212.2,158.9 212.4,158.8 212.5,158.6 212.6,158.5 212.7,158.3 212.8,158.1 212.9,158 212.9,157.8 
			213,157.6 213,157.4 213.1,157.2 213.1,157.1 213.1,156.9 213.1,156.7 213.1,156.5 213.1,156.3 213,156.1 213,155.9 212.9,155.7 
			212.8,155.6 212.8,155.4 212.7,155.2 212.6,155.1 212.4,154.9 212.3,154.8 212.2,154.6 212,154.5 211.9,154.4 211.7,154.3 
			211.6,154.2 211.4,154.1 211.2,154 211,153.9 210.9,153.9 210.7,153.8 210.5,153.8 210.3,153.8 210.1,153.8 209.9,153.8 
			209.7,153.8 209.5,153.8 209.3,153.9 209.1,153.9 209,154 208.8,154.1 208.6,154.1 208.4,154.2 208.3,154.4 208.1,154.5 
			208,154.6 207.9,154.7 207.7,154.9 207.6,155 207.5,155.2 207.4,155.4 207.3,155.5 207.2,155.7 207.2,155.9 207.1,156.1 
			207.1,156.2 207.1,156.4 207,156.6 207,156.8 207,157 207.1,157.2 207.1,157.4 207.1,157.6 207.2,157.8 207.2,157.9 207.3,158.1 
			207.4,158.3 207.5,158.4 207.6,158.6 207.8,158.7 207.9,158.9 208,159 208.2,159.1 208.3,159.2 208.5,159.4 208.6,159.4 
			208.8,159.5 209,159.6 209.2,159.7 209.4,159.7 209.6,159.8 209.8,159.8 209.9,159.8 210.1,159.8 210.3,159.8 210.5,159.8 
			210.7,159.7 210.9,159.7 211.1,159.6 211.3,159.6 211.4,159.5 211.6,159.4 211.8,159.3 211.9,159.2 212.1,159 		"/>
	</g>
	<g id="ID000105">
		<text transform="matrix(1.01 0 0 1 121.8901 145.7598)" class="st10 st2 st5">U</text>
	</g>
	<g id="ID000106">
		<text transform="matrix(1.01 0 0 1 136.6602 145.7598)" class="st10 st2 st5">G</text>
	</g>
	<g id="ID000107">
		<text transform="matrix(1.01 0 0 1 154.1802 145.7598)" class="st10 st2 st5">G</text>
	</g>
	<g id="ID000108">
		<text transform="matrix(1.01 0 0 1 186.5 175.8198)" class="st6 st2 st5">U</text>
	</g>
	<g id="ID000109">
		<text transform="matrix(1.01 0 0 1 171.29 175.8198)" class="st6 st2 st5">U</text>
	</g>
	<g id="ID000110">
		<text transform="matrix(1.01 0 0 1 152.2998 175.8198)" class="st6 st2 st5">C</text>
	</g>
	<g id="ID000111">
		<text transform="matrix(1.01 0 0 1 137.0898 175.8198)" class="st6 st2 st5">C</text>
	</g>
	<g id="ID000112">
		<text transform="matrix(1.01 0 0 1 95.2798 175.8198)" class="st6 st2 st5">U</text>
	</g>
	<g id="ID000113">
		<line class="st7" x1="123.4" y1="143.5" x2="104.9" y2="164.5"/>
	</g>
	<g id="ID000114">
		<polygon class="st9" points="112.2,156.3 112.3,156.4 112.5,156.5 112.6,156.6 112.8,156.7 113,156.8 113.2,156.9 113.3,156.9 
			113.5,157 113.7,157 113.9,157 114.1,157 114.3,157 114.5,157 114.7,157 114.9,156.9 115,156.9 115.2,156.8 115.4,156.8 
			115.6,156.7 115.8,156.6 115.9,156.5 116.1,156.4 116.2,156.2 116.3,156.1 116.5,156 116.6,155.8 116.7,155.7 116.8,155.5 
			116.9,155.3 117,155.2 117,155 117.1,154.8 117.1,154.6 117.2,154.4 117.2,154.2 117.2,154 117.2,153.9 117.2,153.7 117.1,153.5 
			117.1,153.3 117.1,153.1 117,152.9 116.9,152.8 116.8,152.6 116.7,152.4 116.6,152.2 116.5,152.1 116.4,152 116.2,151.8 
			116.1,151.7 115.9,151.6 115.8,151.5 115.6,151.4 115.4,151.3 115.2,151.2 115.1,151.2 114.9,151.1 114.7,151.1 114.5,151 
			114.3,151 114.1,151 113.9,151 113.7,151.1 113.6,151.1 113.4,151.1 113.2,151.2 113,151.2 112.8,151.3 112.7,151.4 112.5,151.5 
			112.3,151.6 112.2,151.7 112,151.9 111.9,152 111.8,152.2 111.7,152.3 111.6,152.5 111.5,152.6 111.4,152.8 111.3,153 
			111.2,153.2 111.2,153.4 111.2,153.5 111.1,153.7 111.1,153.9 111.1,154.1 111.1,154.3 111.2,154.5 111.2,154.7 111.2,154.9 
			111.3,155 111.4,155.2 111.4,155.4 111.5,155.6 111.6,155.7 111.8,155.9 111.9,156 112,156.2 		"/>
	</g>
	<g id="ID000115">
		<line class="st7" x1="142.7" y1="145" x2="142.7" y2="163"/>
	</g>
	<g id="ID000116">
		<line class="st7" x1="157.9" y1="145" x2="157.9" y2="163"/>
	</g>
	<g id="ID000117">
		<line class="st11" x1="136.6" y1="169.1" x2="106.9" y2="169.1"/>
	</g>
	<g id="ID000118">
		<polygon class="st9" points="126.8,173.6 124.3,171.3 121.8,170.6 119.2,170.2 114.2,169.1 119.2,167.9 121.8,167.6 124.3,166.8 
			126.8,164.6 		"/>
	</g>
	<g id="ID000120">
		<text transform="matrix(1.01 0 0 1 311.5 239.7002)" class="st13 st2 st5">G</text>
	</g>
	<g id="ID000121">
		<text transform="matrix(1.01 0 0 1 311.5 254.7305)" class="st13 st2 st5">G</text>
	</g>
	<g id="ID000122">
		<text transform="matrix(1.01 0 0 1 311.9199 269.7598)" class="st13 st2 st5">C</text>
	</g>
	<g id="ID000123">
		<text transform="matrix(1.01 0 0 1 312.3398 284.79)" class="st13 st2 st5">A</text>
	</g>
	<g id="ID000124">
		<text transform="matrix(1.01 0 0 1 281.5195 284.79)" class="st13 st2 st5">U</text>
	</g>
	<g id="ID000125">
		<text transform="matrix(1.01 0 0 1 281.0801 269.7598)" class="st13 st2 st5">G</text>
	</g>
	<g id="ID000126">
		<text transform="matrix(1.01 0 0 1 281.5195 254.7305)" class="st13 st2 st5">C</text>
	</g>
	<g id="ID000127">
		<text transform="matrix(1.01 0 0 1 281.5195 239.7002)" class="st13 st2 st5">C</text>
	</g>
	<g id="ID000128">
		<text transform="matrix(1.01 0 0 1 217.3301 175.8198)" class="st6 st2 st5">A</text>
	</g>
	<g id="ID000129">
		<text transform="matrix(1.01 0 0 1 202.1299 175.8198)" class="st6 st2 st5">A</text>
	</g>
	<g id="ID000130">
		<line class="st7" x1="311.4" y1="232.9" x2="293.2" y2="232.9"/>
	</g>
	<g id="ID000131">
		<line class="st7" x1="311.4" y1="248" x2="293.2" y2="248"/>
	</g>
	<g id="ID000132">
		<line class="st7" x1="311.4" y1="263" x2="293.2" y2="263"/>
	</g>
	<g id="ID000133">
		<polyline class="st11" points="281,232.9 211.1,232.9 221.4,175 		"/>
	</g>
	<g id="ID000134">
		<polygon class="st9" points="251.1,237.4 248.6,235.2 246,234.4 243.5,234.1 238.4,232.9 243.5,231.8 246,231.4 248.6,230.7 
			251.1,228.4 		"/>
	</g>
	<g id="ID000136">
		<text transform="matrix(1.01 0 0 1 312.3398 299.8203)" class="st13 st2 st5">A</text>
	</g>
	<g id="ID000137">
		<text transform="matrix(1.01 0 0 1 311.9199 314.8496)" class="st13 st2 st5">C</text>
	</g>
	<g id="ID000138">
		<text transform="matrix(1.01 0 0 1 311.9199 329.8799)" class="st13 st2 st5">C</text>
	</g>
	<g id="ID000139">
		<text transform="matrix(1.01 0 0 1 312.3398 344.9102)" class="st13 st2 st5">A</text>
	</g>
	<g id="ID000140">
		<text transform="matrix(1.01 0 0 1 319.0898 359.9404)" class="st13 st2 st5">G</text>
	</g>
	<g id="ID000141">
		<line class="st7" x1="335.2" y1="353.2" x2="345.4" y2="353.2"/>
	</g>
	<g id="ID000142">
		<text transform="matrix(1.01 0 0 1 348.8398 356.1904)" class="st2 st8">50</text>
	</g>
	<g id="ID000143">
		<text transform="matrix(1.01 0 0 1 304.7402 374.9697)" class="st13 st2 st5">A</text>
	</g>
	<g id="ID000144">
		<text transform="matrix(1.01 0 0 1 289.5498 374.9697)" class="st13 st2 st5">A</text>
	</g>
	<g id="ID000145">
		<text transform="matrix(1.01 0 0 1 274.3301 359.9404)" class="st13 st2 st5">A</text>
	</g>
	<g id="ID000146">
		<text transform="matrix(1.01 0 0 1 281.5195 344.9102)" class="st13 st2 st5">U</text>
	</g>
	<g id="ID000147">
		<text transform="matrix(1.01 0 0 1 281.0801 329.8799)" class="st13 st2 st5">G</text>
	</g>
	<g id="ID000148">
		<text transform="matrix(1.01 0 0 1 281.0801 314.8496)" class="st13 st2 st5">G</text>
	</g>
	<g id="ID000149">
		<line class="st7" x1="311.4" y1="308.1" x2="293.2" y2="308.1"/>
	</g>
	<g id="ID000150">
		<line class="st7" x1="311.4" y1="323.1" x2="293.2" y2="323.1"/>
	</g>
	<g id="ID000151">
		<line class="st7" x1="311.4" y1="338.1" x2="293.2" y2="338.1"/>
	</g>
	<g id="ID000152">
		<line class="st7" x1="319" y1="353.2" x2="285.6" y2="353.2"/>
	</g>
	<g id="ID000153">
		<polygon class="st12" points="310.2,353.2 304.3,349.8 304.3,356.6 		"/>
	</g>
	<g id="ID000154">
		<polygon class="st12" points="295.3,356.2 301.4,356.2 301.4,350.2 295.3,350.2 		"/>
	</g>
	<g id="ID000156">
		<text transform="matrix(1.01 0 0 1 94.8501 157.0298)" class="st6 st2 st5">G</text>
	</g>
	<g id="ID000157">
		<text transform="matrix(1.01 0 0 1 95.2798 142)" class="st14 st2 st5">C</text>
	</g>
	<g id="ID000158">
		<text transform="matrix(1.01 0 0 1 95.71 126.9702)" class="st14 st2 st5">A</text>
	</g>
	<g id="ID000159">
		<text transform="matrix(1.01 0 0 1 95.2798 96.9102)" class="st14 st2 st5">C</text>
	</g>
	<g id="ID000160">
		<text transform="matrix(1.01 0 0 1 94.8501 81.8799)" class="st14 st2 st5">G</text>
	</g>
	<g id="ID000161">
		<text transform="matrix(1.01 0 0 1 98.6499 66.8501)" class="st14 st2 st5">G</text>
	</g>
	<g id="ID000162">
		<text transform="matrix(1.01 0 0 1 91.9102 51.8198)" class="st14 st2 st5">A</text>
	</g>
	<g id="ID000163">
		<text transform="matrix(1.01 0 0 1 72.8999 51.8198)" class="st14 st2 st5">A</text>
	</g>
	<g id="ID000164">
		<text transform="matrix(1.01 0 0 1 57.7002 66.8501)" class="st14 st2 st5">A</text>
	</g>
	<g id="ID000165">
		<text transform="matrix(1.01 0 0 1 64.8799 81.8799)" class="st14 st2 st5">C</text>
	</g>
	<g id="ID000166">
		<text transform="matrix(1.01 0 0 1 64.4502 96.9102)" class="st14 st2 st5">G</text>
	</g>
	<g id="ID000167">
		<text transform="matrix(1.01 0 0 1 64.8799 111.9399)" class="st14 st2 st5">U</text>
	</g>
	<g id="ID000168">
		<line class="st7" x1="60.3" y1="105.2" x2="50.2" y2="105.2"/>
	</g>
	<g id="ID000169">
		<text transform="matrix(1.01 0 0 1 34.8545 108.1802)" class="st2 st8">80</text>
	</g>
	<g id="ID000170">
		<text transform="matrix(1.01 0 0 1 64.8799 126.9702)" class="st14 st2 st5">U</text>
	</g>
	<g id="ID000171">
		<text transform="matrix(1.01 0 0 1 64.4502 142)" class="st14 st2 st5">G</text>
	</g>
	<g id="ID000172">
		<text transform="matrix(1.01 0 0 1 65.2998 157.0298)" class="st6 st2 st5">A</text>
	</g>
	<g id="ID000173">
		<line class="st7" x1="94.8" y1="135.2" x2="76.5" y2="135.2"/>
	</g>
	<g id="ID000174">
		<line class="st7" x1="94.8" y1="120.2" x2="76.5" y2="120.2"/>
	</g>
	<g id="ID000175">
		<polygon class="st9" points="82.6,105.2 82.6,105.4 82.6,105.6 82.7,105.8 82.7,105.9 82.8,106.1 82.8,106.3 82.9,106.5 83,106.6 
			83.1,106.8 83.2,107 83.3,107.1 83.4,107.2 83.6,107.4 83.7,107.5 83.9,107.6 84.1,107.7 84.2,107.8 84.4,107.9 84.6,108 
			84.8,108.1 84.9,108.1 85.1,108.1 85.3,108.2 85.5,108.2 85.7,108.2 85.9,108.2 86.1,108.2 86.3,108.1 86.5,108.1 86.6,108 
			86.8,107.9 87,107.9 87.2,107.8 87.3,107.7 87.5,107.6 87.6,107.4 87.8,107.3 87.9,107.2 88,107 88.2,106.9 88.3,106.7 
			88.3,106.6 88.4,106.4 88.5,106.2 88.6,106 88.6,105.8 88.7,105.7 88.7,105.5 88.7,105.3 88.7,105.1 88.7,104.9 88.7,104.7 
			88.6,104.5 88.6,104.3 88.5,104.2 88.4,104 88.3,103.8 88.3,103.6 88.2,103.5 88,103.3 87.9,103.2 87.8,103 87.6,102.9 
			87.5,102.8 87.3,102.7 87.2,102.6 87,102.5 86.8,102.4 86.6,102.3 86.5,102.3 86.3,102.2 86.1,102.2 85.9,102.2 85.7,102.2 
			85.5,102.2 85.3,102.2 85.1,102.2 84.9,102.2 84.8,102.3 84.6,102.4 84.4,102.4 84.2,102.5 84.1,102.6 83.9,102.7 83.7,102.8 
			83.6,103 83.4,103.1 83.3,103.2 83.2,103.4 83.1,103.6 83,103.7 82.9,103.9 82.8,104.1 82.8,104.2 82.7,104.4 82.7,104.6 
			82.6,104.8 82.6,105 		"/>
	</g>
	<g id="ID000176">
		<line class="st7" x1="94.8" y1="90.2" x2="76.5" y2="90.2"/>
	</g>
	<g id="ID000177">
		<line class="st7" x1="94.8" y1="75.1" x2="76.5" y2="75.1"/>
	</g>
	<g id="ID000178">
		<line class="st7" x1="98.6" y1="60.1" x2="68.9" y2="60.1"/>
	</g>
	<g id="ID000179">
		<polygon class="st12" points="91.7,60.1 85.7,56.7 85.7,63.5 		"/>
	</g>
	<g id="ID000180">
		<polygon class="st12" points="76.8,63.1 82.8,63.1 82.8,57.1 76.8,57.1 		"/>
	</g>
	<g id="ID000182">
		<line class="st11" x1="317.5" y1="201.4" x2="317.5" y2="226.9"/>
	</g>
	<g id="ID000183">
		<polygon class="st9" points="322,209.1 319.8,211.6 319,214.1 318.6,216.6 317.5,221.7 316.4,216.6 316,214.1 315.2,211.6 
			312.9,209.1 		"/>
	</g>
	<g id="ID000184">
		<line class="st11" x1="287.1" y1="302.1" x2="287.1" y2="284"/>
	</g>
	<g id="ID000185">
		<polygon class="st9" points="282.5,298.1 284.8,295.6 285.6,293.1 285.9,290.5 287.1,285.5 288.2,290.5 288.6,293.1 289.4,295.6 
			291.6,298.1 		"/>
	</g>
	<g id="ID000186">
		<line class="st11" x1="175.3" y1="199.1" x2="281" y2="199.1"/>
	</g>
	<g id="ID000187">
		<polygon class="st9" points="223.1,194.6 225.6,196.9 228.2,197.6 230.7,198 235.8,199.1 230.7,200.2 228.2,200.6 225.6,201.4 
			223.1,203.6 		"/>
	</g>
	<g id="ID000188">
		<line class="st7" x1="279.9" y1="225.9" x2="272.8" y2="218.8"/>
	</g>
	<g id="ID000189">
		<text transform="matrix(1.01 0 0 1 263.0098 217.1396)" class="st2 st8">60</text>
	</g>
	<g id="ID000190">
		<text transform="matrix(1.01 0 0 1 95.4302 111.9399)" class="st14 st2 st5">G</text>
	</g>
</g>
<text transform="matrix(1 0 0 1 20.02 75.12)" class="st14 st2 st15">P4</text>
<text transform="matrix(1 0 0 1 20.02 241.2)" class="st4 st2 st15">P1</text>
<text transform="matrix(1 0 0 1 348.84 304.33)" class="st13 st2 st15">P3</text>
<text transform="matrix(1 0 0 1 345.36 126.97)" class="st10 st2 st15">P2</text>
<text transform="matrix(0.99 0 0 1 65.2998 344.9102)" class="st16 st2 st17">3</text>
<text transform="matrix(0.99 0 0 1 73.0122 344.9102)" class="st16 st2 st17">’</text>
<text transform="matrix(0.99 0 0 1 103.4102 329.8799)" class="st16 st2 st17">5</text>
<text transform="matrix(0.99 0 0 1 111.1221 329.8799)" class="st16 st2 st17">’</text>
<text transform="matrix(1.06 0 0 1 5.999 24.8345)" class="st2 st18">SAM-I Riboswitch</text>
</svg>
