<?xml version="1.0" encoding="utf-8"?>
<!-- Generator: Adobe Illustrator 26.0.0, SVG Export Plug-In . SVG Version: 6.00 Build 0)  -->
<svg version="1.1" id="图层_1" xmlns="http://www.w3.org/2000/svg" xmlns:xlink="http://www.w3.org/1999/xlink" x="0px" y="0px"
	 viewBox="0 0 400 400" style="enable-background:new 0 0 400 400;" xml:space="preserve">
<style type="text/css">
	.st0{fill:#FF870A;}
	.st1{font-family:'ArialMT';}
	.st2{font-size:21.7143px;}
	.st3{letter-spacing:-0.8;}
	.st4{fill:none;stroke:#000000;stroke-width:0.14;stroke-miterlimit:1.11;}
	.st5{fill:#FFFFFF;stroke:#000000;stroke-width:0.14;stroke-miterlimit:1.11;}
	.st6{fill:#09FEFE;}
	.st7{fill:none;stroke:#000000;stroke-width:0.5;stroke-miterlimit:1.11;}
	.st8{stroke:#000000;stroke-width:0.14;stroke-miterlimit:1.11;}
	.st9{font-size:21px;}
	.st10{font-size:21.5501px;}
	.st11{font-size:18px;}
	.st12{font-size:18.4715px;}
	.st13{font-size:12px;}
	.st14{fill:#FF0B0C;stroke:#FF0B0C;stroke-miterlimit:10;}
	.st15{fill:#FFFFFF;}
	.st16{font-size:15.0337px;}
	.st17{font-size:20px;}
</style>
<g id="ID000000">
	<g>
		<g id="ID000002">
			<text transform="matrix(1.2826 0 0 1 201.0062 377.8266)" class="st0 st1 st2">G</text>
		</g>
		<g id="ID000003">
			<text transform="matrix(1.2826 0 0 1 201.0062 356.0307)" class="st0 st1 st2">G</text>
		</g>
		<g id="ID000004">
			<text transform="matrix(1.2826 0 0 1 201.7776 334.2348)" class="st0 st1 st2">U</text>
		</g>
		<g id="ID000005">
			<text transform="matrix(1.2826 0 0 1 201.7776 312.4477)" class="st0 st1 st2">C</text>
		</g>
		<g id="ID000006">
			<text transform="matrix(1.2826 0 0 1 202.5511 290.6518)" class="st0 st1 st2 st3">A</text>
		</g>
		<g id="ID000007">
			<text transform="matrix(1.2826 0 0 1 201.7776 268.8559)" class="st0 st1 st2">C</text>
		</g>
		<g id="ID000008">
			<text transform="matrix(1.2826 0 0 1 202.5511 247.059)" class="st0 st1 st2 st3">A</text>
		</g>
		<g id="ID000009">
			<text transform="matrix(1.2826 0 0 1 202.5511 225.2621)" class="st0 st1 st2 st3">A</text>
		</g>
		<g id="ID000010">
			<text transform="matrix(1.2826 0 0 1 256.9075 225.2621)" class="st0 st1 st2">G</text>
		</g>
		<g id="ID000011">
			<text transform="matrix(1.2826 0 0 1 257.679 247.059)" class="st0 st1 st2">C</text>
		</g>
		<g id="ID000012">
			<text transform="matrix(1.2826 0 0 1 256.9075 268.8559)" class="st0 st1 st2">G</text>
		</g>
		<g id="ID000013">
			<text transform="matrix(1.2826 0 0 1 257.679 290.6518)" class="st0 st1 st2">U</text>
		</g>
		<g id="ID000014">
			<text transform="matrix(1.2826 0 0 1 256.9075 312.4477)" class="st0 st1 st2">G</text>
		</g>
		<g id="ID000015">
			<text transform="matrix(1.2826 0 0 1 258.4525 334.2348)" class="st0 st1 st2 st3">A</text>
		</g>
		<g id="ID000016">
			<text transform="matrix(1.2826 0 0 1 257.679 356.0307)" class="st0 st1 st2">C</text>
		</g>
		<g id="ID000017">
			<text transform="matrix(1.2826 0 0 1 257.679 377.8266)" class="st0 st1 st2">C</text>
		</g>
		<g id="ID000018">
			<line class="st4" x1="223" y1="368" x2="256.5" y2="368"/>
		</g>
		<g id="ID000019">
			<line class="st4" x1="223" y1="346.2" x2="256.5" y2="346.2"/>
		</g>
		<g id="ID000020">
			<line class="st4" x1="223" y1="324.4" x2="256.5" y2="324.4"/>
		</g>
		<g id="ID000021">
			<line class="st4" x1="223" y1="302.6" x2="256.5" y2="302.6"/>
		</g>
		<g id="ID000022">
			<line class="st4" x1="223" y1="280.9" x2="256.5" y2="280.9"/>
		</g>
		<g id="ID000023">
			<line class="st4" x1="223" y1="259.1" x2="256.5" y2="259.1"/>
		</g>
		<g id="ID000024">
			<line class="st4" x1="223" y1="237.3" x2="256.5" y2="237.3"/>
		</g>
		<g id="ID000025">
			<polygon class="st5" points="225.2,237.3 236.1,242.2 236.1,232.4 			"/>
		</g>
		<g id="ID000026">
			<polygon class="st5" points="252.6,232.9 241.5,232.9 241.5,241.6 252.6,241.6 			"/>
		</g>
		<g id="ID000027">
			<line class="st4" x1="223" y1="215.5" x2="256.5" y2="215.5"/>
		</g>
		<g id="ID000028">
			<polygon class="st5" points="226.9,219.8 238.1,219.8 238.1,211.1 226.9,211.1 			"/>
		</g>
		<g id="ID000029">
			<polygon class="st5" points="254.3,215.5 243.4,210.6 243.4,220.4 			"/>
		</g>
		<g id="ID000031">
			<text transform="matrix(1.2826 0 0 1 201.7776 203.477)" class="st0 st1 st2">C</text>
		</g>
		<g id="ID000032">
			<text transform="matrix(1.2826 0 0 1 256.9075 29.1156)" class="st6 st1 st2">G</text>
		</g>
		<g id="ID000033">
			<text transform="matrix(1.2826 0 0 1 256.9075 50.9125)" class="st6 st1 st2">G</text>
		</g>
		<g id="ID000034">
			<text transform="matrix(1.2826 0 0 1 257.679 72.7089)" class="st6 st1 st2">C</text>
		</g>
		<g id="ID000035">
			<text transform="matrix(1.2826 0 0 1 257.679 94.5043)" class="st6 st1 st2">U</text>
		</g>
		<g id="ID000036">
			<text transform="matrix(1.2826 0 0 1 257.679 116.3012)" class="st6 st1 st2">U</text>
		</g>
		<g id="ID000037">
			<text transform="matrix(1.2826 0 0 1 314.3441 94.5043)" class="st6 st1 st2 st3">A</text>
		</g>
		<g id="ID000038">
			<text transform="matrix(1.2826 0 0 1 312.7991 72.7089)" class="st6 st1 st2">G</text>
		</g>
		<g id="ID000039">
			<text transform="matrix(1.2826 0 0 1 313.5726 50.9125)" class="st6 st1 st2">C</text>
		</g>
		<g id="ID000040">
			<text transform="matrix(1.2826 0 0 1 314.3441 29.1156)" class="st6 st1 st2 st3">A</text>
		</g>
		<g id="ID000041">
			<polyline class="st7" points="211.8,185 211.1,19.3 256.5,19.3 			"/>
		</g>
		<g id="ID000042">
			<polygon class="st8" points="224.5,12.8 229.2,16.1 233.8,17.1 238.5,17.7 247.8,19.3 238.5,21 233.8,21.5 229.2,22.6 
				224.5,25.9 			"/>
		</g>
		<g id="ID000043">
			<line class="st4" x1="223" y1="193.7" x2="256.5" y2="193.7"/>
		</g>
		<g id="ID000044">
			<polygon class="st8" points="245.4,193.7 245.4,193.4 245.3,193.1 245.3,192.9 245.2,192.6 245.1,192.3 245,192.1 244.8,191.8 
				244.7,191.6 244.5,191.3 244.3,191.1 244.1,190.9 243.8,190.7 243.6,190.5 243.3,190.3 243,190.1 242.7,190 242.4,189.8 
				242.1,189.7 241.8,189.6 241.4,189.5 241.1,189.4 240.7,189.4 240.4,189.3 240,189.3 239.7,189.3 239.3,189.3 239,189.4 
				238.6,189.4 238.3,189.5 237.9,189.6 237.6,189.7 237.3,189.8 237,189.9 236.7,190 236.4,190.2 236.1,190.4 235.9,190.6 
				235.6,190.8 235.4,191 235.2,191.2 235,191.4 234.8,191.7 234.7,191.9 234.5,192.2 234.4,192.4 234.3,192.7 234.3,193 
				234.2,193.3 234.2,193.5 234.2,193.8 234.2,194.1 234.3,194.4 234.3,194.6 234.4,194.9 234.5,195.2 234.7,195.4 234.8,195.7 
				235,195.9 235.2,196.1 235.4,196.4 235.6,196.6 235.9,196.8 236.1,197 236.4,197.1 236.7,197.3 237,197.5 237.3,197.6 
				237.6,197.7 237.9,197.8 238.3,197.9 238.6,197.9 239,198 239.3,198 239.7,198 240,198 240.4,198 240.7,198 241.1,197.9 
				241.4,197.8 241.8,197.7 242.1,197.6 242.4,197.5 242.7,197.4 243,197.2 243.3,197.1 243.6,196.9 243.8,196.7 244.1,196.5 
				244.3,196.3 244.5,196 244.7,195.8 244.8,195.5 245,195.3 245.1,195 245.2,194.8 245.3,194.5 245.3,194.2 245.4,194 			"/>
		</g>
		<g id="ID000045">
			<line class="st4" x1="271.9" y1="27.4" x2="319.5" y2="120.2"/>
		</g>
		<g id="ID000046">
			<polygon class="st8" points="290.9,64.5 290.6,64.6 290.3,64.7 290,64.9 289.7,65 289.4,65.2 289.1,65.4 288.9,65.6 288.6,65.8 
				288.4,66 288.2,66.2 288,66.5 287.9,66.7 287.7,67 287.6,67.2 287.5,67.5 287.5,67.8 287.4,68.1 287.4,68.3 287.4,68.6 
				287.4,68.9 287.4,69.2 287.5,69.4 287.6,69.7 287.7,70 287.8,70.2 288,70.5 288.1,70.7 288.3,71 288.5,71.2 288.8,71.4 289,71.6 
				289.2,71.8 289.5,72 289.8,72.1 290.1,72.3 290.4,72.4 290.7,72.5 291.1,72.6 291.4,72.7 291.7,72.8 292.1,72.9 292.4,72.9 
				292.8,72.9 293.1,72.9 293.5,72.9 293.9,72.9 294.2,72.8 294.5,72.7 294.9,72.6 295.2,72.5 295.5,72.4 295.8,72.3 296.1,72.1 
				296.4,72 296.7,71.8 297,71.6 297.2,71.4 297.4,71.2 297.6,71 297.8,70.7 298,70.5 298.1,70.2 298.3,70 298.4,69.7 298.4,69.4 
				298.5,69.2 298.5,68.9 298.6,68.6 298.6,68.3 298.5,68.1 298.5,67.8 298.4,67.5 298.3,67.2 298.2,67 298.1,66.7 297.9,66.5 
				297.7,66.3 297.5,66 297.3,65.8 297.1,65.6 296.8,65.4 296.6,65.2 296.3,65 296,64.9 295.7,64.7 295.4,64.6 295,64.5 294.7,64.4 
				294.4,64.3 294,64.3 293.7,64.2 293.3,64.2 293,64.2 292.6,64.2 292.3,64.2 291.9,64.3 291.6,64.3 291.2,64.4 			"/>
		</g>
		<g id="ID000047">
			<polygon class="st8" points="305.6,81.5 301.5,73.4 291.1,76.6 295.3,84.7 			"/>
		</g>
		<g id="ID000048">
			<line class="st4" x1="278.9" y1="41.1" x2="312.4" y2="41.1"/>
		</g>
		<g id="ID000049">
			<line class="st4" x1="278.9" y1="62.9" x2="312.4" y2="62.9"/>
		</g>
		<g id="ID000050">
			<line class="st4" x1="278.9" y1="84.7" x2="312.4" y2="84.7"/>
		</g>
		<g id="ID000051">
			<line class="st7" x1="323.6" y1="119.6" x2="323.6" y2="93.4"/>
		</g>
		<g id="ID000052">
			<polygon class="st8" points="315.2,113.8 319.4,110.1 320.8,106.5 321.5,102.9 323.6,95.6 325.7,102.9 326.4,106.5 327.8,110.1 
				332,113.8 			"/>
		</g>
		<g id="ID000054">
			<text transform="matrix(1.2826 0 0 1 257.679 138.0878)" class="st6 st1 st2">C</text>
		</g>
		<g id="ID000055">
			<text transform="matrix(1.2826 0 0 1 257.679 159.8837)" class="st6 st1 st2">C</text>
		</g>
		<g id="ID000056">
			<text transform="matrix(1.2826 0 0 1 257.679 181.6801)" class="st6 st1 st2">U</text>
		</g>
		<g id="ID000057">
			<text transform="matrix(1.2826 0 0 1 256.9075 203.477)" class="st0 st1 st2">G</text>
		</g>
		<g id="ID000058">
			<text transform="matrix(1.2826 0 0 1 314.3441 225.2621)" class="st6 st1 st2 st3">A</text>
		</g>
		<g id="ID000059">
			<text transform="matrix(1.2826 0 0 1 313.5726 203.477)" class="st6 st1 st2">U</text>
		</g>
		<g id="ID000060">
			<text transform="matrix(1.2826 0 0 1 313.5726 181.6801)" class="st6 st1 st2">U</text>
		</g>
		<g id="ID000061">
			<text transform="matrix(1.2826 0 0 1 312.7991 159.8837)" class="st6 st1 st2">G</text>
		</g>
		<g id="ID000062">
			<text transform="matrix(1.2826 0 0 1 312.7991 138.0878)" class="st6 st1 st2">G</text>
		</g>
		<g id="ID000063">
			<line class="st4" x1="278.9" y1="128.3" x2="312.4" y2="128.3"/>
		</g>
		<g id="ID000064">
			<line class="st4" x1="278.9" y1="150.1" x2="312.4" y2="150.1"/>
		</g>
	</g>
</g>
<text transform="matrix(1 0 0 1 367.332 108.1112)" class="st6 st1 st9">PK</text>
<text transform="matrix(0.9294 0 0 1 295.678 334.2348)" class="st0 st1 st10">P1</text>
<text transform="matrix(0.894 0 0 1 195.0862 397.5912)" class="st1 st11">5’</text>
<text transform="matrix(0.894 0 0 1 274.3118 397.5912)" class="st1 st11">3’</text>
<text transform="matrix(0.9294 0 0 1 336.9954 247.059)" class="st1 st11">5</text>
<text transform="matrix(0.9294 0 0 1 346.5423 247.059)" class="st1 st12">’</text>
<text transform="matrix(0.9294 0 0 1 341.8118 19.3158)" class="st1 st11">3</text>
<text transform="matrix(0.9294 0 0 1 351.3597 19.3158)" class="st1 st12">’</text>
<g id="ID000013-2-4">
	<text transform="matrix(0.9387 0 0 1 175.9105 373.7426)" class="st1 st13">7</text>
</g>
<g id="ID000141-4">
	<line class="st4" x1="187" y1="371" x2="199.7" y2="371.4"/>
</g>
<g id="ID000013-2-4-2">
	<text transform="matrix(0.9387 0 0 1 298.3773 268.8559)" class="st1 st13">27</text>
</g>
<g id="ID000141-4-2">
	<line class="st4" x1="280.8" y1="263.1" x2="293.9" y2="263.5"/>
</g>
<g id="ID000013-2-4-3">
	<text transform="matrix(1.01 0 0 1 351.3597 225.2621)" class="st1 st13">43</text>
</g>
<g id="ID000141-4-3">
	<line class="st4" x1="333" y1="216.9" x2="346.1" y2="217.3"/>
</g>
<g id="ID000013-2-4-4">
	<text transform="matrix(1.01 0 0 1 356.3001 47.0785)" class="st1 st13">51</text>
</g>
<g id="ID000141-4-4">
	<line class="st4" x1="335.9" y1="24.2" x2="350.7" y2="32.8"/>
</g>
<path class="st14" d="M312.6,180.3c0,7.4-7.5,13.3-16.9,13.3s-16.9-6-16.9-13.3c0-7.4,7.5-13.3,16.9-13.3S312.6,172.9,312.6,180.3z"
	/>
<text transform="matrix(0.7986 0 0 1 283.5101 184.4237)" class="st15 st1 st16">SAH</text>
<text transform="matrix(1 0 0 1 6.2815 19.2913)" class="st1 st17">SAM/SAH Riboswitch</text>
</svg>
