<?xml version="1.0" encoding="utf-8"?>
<!-- Generator: Adobe Illustrator 26.0.0, SVG Export Plug-In . SVG Version: 6.00 Build 0)  -->
<svg version="1.1" id="svg2403" xmlns="http://www.w3.org/2000/svg" xmlns:xlink="http://www.w3.org/1999/xlink" x="0px" y="0px"
	 viewBox="0 0 370.2 321.6" style="enable-background:new 0 0 370.2 321.6;" xml:space="preserve">
<style type="text/css">
	.st0{fill:#D7EFC5;}
	.st1{fill:none;stroke:#000000;stroke-width:1.44;}
	.st2{fill:#D90000;stroke:#000000;stroke-width:0.72;}
	.st3{stroke:#000000;stroke-width:0.72;}
	.st4{font-family:'ArialMT';}
	.st5{font-size:17.07px;}
	.st6{font-size:10.67px;}
	.st7{fill:#D90000;}
	.st8{fill:#807B88;}
	.st9{fill:#FFFFFF;stroke:#000000;stroke-width:0.72;}
	.st10{fill:#807B88;stroke:#000000;stroke-width:0.72;}
	.st11{fill:none;stroke:#000000;stroke-width:0.72;}
	.st12{font-size:10px;}
	.st13{fill:#D90000;stroke:#251E1C;}
	.st14{fill:#FFFFFF;stroke:#251E1C;}
	.st15{letter-spacing:-1;}
	.st16{font-size:18.42px;}
</style>
<path class="st0" d="M216.2,202.3h24.3v7.7h-24.3V202.3z"/>
<path class="st1" d="M225.7,206.1h5.2"/>
<path class="st1" d="M225.7,195.4h5.2"/>
<path class="st1" d="M225.7,184.6h5.2"/>
<path class="st1" d="M225.7,173.9h5.2"/>
<path class="st1" d="M225.7,163.1h5.2"/>
<path class="st1" d="M208.7,131.9l2.6-4.8"/>
<path class="st1" d="M199.9,126.5l2.6-4.8"/>
<path class="st1" d="M191.1,121.1l2.6-4.8"/>
<path class="st1" d="M182.3,115.8l2.6-4.8"/>
<path class="st1" d="M166.3,106l2.6-4.8"/>
<path class="st1" d="M157.5,100.6l2.6-4.8"/>
<path class="st1" d="M148.7,95.2l2.6-4.8"/>
<path class="st0" d="M130.9,97.4L130.9,97.4L144.2,73l7.3,4.5l-13.3,24.4L130.9,97.4z"/>
<path class="st1" d="M139.9,89.8l2.6-4.8"/>
<path class="st0" d="M122.1,92L122.1,92l13.3-24.4l7.3,4.5l-13.3,24.4L122.1,92z"/>
<path class="st1" d="M131.2,84.4l2.6-4.8"/>
<path class="st1" d="M248.9,146.4l-1.9,5.1"/>
<path class="st1" d="M258.4,150.4l-1.9,5.1"/>
<path class="st1" d="M64,38.4"/>
<path class="st1" d="M64,38.4"/>
<path class="st1" d="M64,38.4"/>
<path class="st1" d="M64,38.4"/>
<path class="st1" d="M64,38.4"/>
<path class="st1" d="M64,38.4"/>
<path class="st1" d="M64,38.4"/>
<path class="st1" d="M64,38.4"/>
<path class="st1" d="M64,38.4"/>
<path class="st1" d="M64,38.4"/>
<path class="st1" d="M64,38.4"/>
<path class="st1" d="M64,38.4"/>
<path class="st1" d="M64,38.4"/>
<path class="st1" d="M64,38.4"/>
<path class="st1" d="M64,38.4"/>
<path class="st1" d="M64,38.4"/>
<path class="st1" d="M64,38.4"/>
<path class="st1" d="M64,38.4"/>
<path class="st1" d="M64,38.4"/>
<path class="st1" d="M64,38.4"/>
<path class="st1" d="M64,38.4"/>
<path class="st1" d="M64,38.4"/>
<path class="st1" d="M64,38.4"/>
<path class="st1" d="M64,38.4"/>
<path class="st1" d="M64,38.4"/>
<path class="st1" d="M64,38.4"/>
<path class="st1" d="M64,38.4"/>
<path class="st1" d="M64,38.4"/>
<path class="st1" d="M64,38.4"/>
<path class="st1" d="M64,38.4"/>
<path class="st1" d="M64,38.4"/>
<path class="st1" d="M64,38.4"/>
<path class="st1" d="M64,38.4"/>
<path class="st1" d="M64,38.4"/>
<path class="st1" d="M64,38.4"/>
<path class="st1" d="M64,38.4"/>
<path class="st1" d="M64,38.4"/>
<path class="st1" d="M64,38.4"/>
<path class="st1" d="M64,38.4"/>
<path class="st1" d="M64,38.4"/>
<path class="st1" d="M64,38.4"/>
<path class="st1" d="M64,38.4"/>
<path class="st1" d="M64,38.4"/>
<path class="st1" d="M64,38.4"/>
<path class="st1" d="M64,38.4"/>
<path class="st1" d="M64,38.4"/>
<path class="st1" d="M64,38.4"/>
<path class="st1" d="M64,38.4"/>
<path class="st1" d="M64,38.4"/>
<path class="st1" d="M64,38.4"/>
<path class="st1" d="M64,38.4"/>
<path class="st1" d="M64,38.4"/>
<path class="st1" d="M64,38.4"/>
<path class="st1" d="M64,38.4"/>
<path class="st1" d="M64,38.4"/>
<path class="st1" d="M64,38.4"/>
<path class="st1" d="M64,38.4"/>
<path class="st1" d="M64,38.4"/>
<path class="st1" d="M64,38.4"/>
<path class="st1" d="M64,38.4"/>
<path class="st1" d="M64,38.4"/>
<path class="st1" d="M64,38.4"/>
<path class="st1" d="M64,38.4"/>
<path class="st1" d="M64,38.4"/>
<path class="st1" d="M64,38.4"/>
<path class="st1" d="M64,38.4"/>
<path class="st1" d="M64,38.4"/>
<path class="st1" d="M64,38.4"/>
<path class="st1" d="M64,38.4"/>
<path class="st1" d="M64,38.4"/>
<path class="st1" d="M64,38.4"/>
<path class="st1" d="M64,38.4"/>
<path class="st1" d="M64,38.4"/>
<path class="st1" d="M64,38.4"/>
<path class="st1" d="M64,38.4"/>
<path class="st1" d="M64,38.4"/>
<path class="st1" d="M64,38.4"/>
<path class="st1" d="M64,38.4"/>
<path class="st1" d="M64,38.4"/>
<path class="st1" d="M64,38.4"/>
<path class="st1" d="M64,38.4"/>
<path class="st1" d="M64,38.4"/>
<path class="st1" d="M64,38.4"/>
<path class="st1" d="M64,38.4"/>
<path class="st1" d="M64,38.4"/>
<path class="st1" d="M64,38.4"/>
<path class="st1" d="M64,38.4"/>
<path class="st1" d="M64,38.4"/>
<path class="st1" d="M64,38.4"/>
<path class="st1" d="M64,38.4"/>
<path class="st1" d="M64,38.4"/>
<path class="st1" d="M64,38.4"/>
<path class="st1" d="M64,38.4"/>
<path class="st1" d="M64,38.4"/>
<path class="st1" d="M64,38.4"/>
<path class="st1" d="M64,38.4"/>
<path class="st1" d="M64,38.4"/>
<path class="st1" d="M64,38.4"/>
<path class="st1" d="M64,38.4"/>
<path class="st1" d="M64,38.4"/>
<path class="st1" d="M64,38.4"/>
<path class="st1" d="M64,38.4"/>
<path class="st1" d="M64,38.4"/>
<path class="st1" d="M64,38.4"/>
<path class="st1" d="M64,38.4"/>
<path class="st1" d="M64,38.4"/>
<path class="st1" d="M64,38.4"/>
<path class="st1" d="M64,38.4"/>
<path class="st1" d="M64,38.4"/>
<path class="st1" d="M64,38.4"/>
<path class="st1" d="M64,38.4"/>
<path class="st1" d="M64,38.4"/>
<path class="st1" d="M64,38.4"/>
<path class="st1" d="M64,38.4"/>
<path class="st1" d="M64,38.4"/>
<path class="st1" d="M64,38.4"/>
<path class="st1" d="M64,38.4"/>
<path class="st1" d="M64,38.4"/>
<path class="st1" d="M64,38.4"/>
<path class="st1" d="M64,38.4"/>
<path class="st1" d="M64,38.4"/>
<path class="st1" d="M64,38.4"/>
<path class="st1" d="M64,38.4"/>
<path class="st1" d="M64,38.4"/>
<path class="st1" d="M64,38.4"/>
<path class="st1" d="M64,38.4"/>
<path class="st1" d="M64,38.4"/>
<path class="st1" d="M64,38.4"/>
<path class="st1" d="M64,38.4"/>
<path class="st1" d="M64,38.4"/>
<path class="st1" d="M64,38.4"/>
<path class="st1" d="M64,38.4"/>
<path class="st1" d="M64,38.4"/>
<path class="st1" d="M64,38.4"/>
<path class="st1" d="M64,38.4"/>
<path class="st1" d="M64,38.4"/>
<path class="st1" d="M64,38.4"/>
<path class="st1" d="M64,38.4"/>
<path class="st1" d="M64,38.4"/>
<path class="st1" d="M64,38.4"/>
<path class="st1" d="M64,38.4"/>
<path class="st1" d="M64,38.4"/>
<path class="st1" d="M64,38.4"/>
<path class="st1" d="M64,38.4"/>
<path class="st1" d="M64,38.4"/>
<path class="st1" d="M64,38.4"/>
<path class="st1" d="M64,38.4"/>
<path class="st1" d="M64,38.4"/>
<path class="st1" d="M64,38.4"/>
<path class="st1" d="M64,38.4"/>
<path class="st1" d="M64,38.4"/>
<path class="st1" d="M64,38.4"/>
<path class="st1" d="M64,38.4"/>
<path class="st1" d="M64,38.4"/>
<path class="st1" d="M64,38.4"/>
<path class="st1" d="M64,38.4"/>
<path class="st1" d="M64,38.4"/>
<path class="st1" d="M64,38.4"/>
<path class="st1" d="M64,38.4"/>
<path class="st1" d="M64,38.4"/>
<path class="st1" d="M64,38.4"/>
<path class="st1" d="M64,38.4"/>
<path class="st1" d="M64,38.4"/>
<path class="st1" d="M64,38.4"/>
<path class="st2" d="M94.6,213.7c-0.1,1.9-1.7,3.3-3.6,3.2c-1.9-0.1-3.3-1.7-3.2-3.6c0.1-1.8,1.6-3.2,3.4-3.2
	C93.1,210.2,94.6,211.8,94.6,213.7z"/>
<path class="st3" d="M104.7,213.7c-0.1,1.9-1.7,3.3-3.6,3.2c-1.9-0.1-3.3-1.7-3.2-3.6c0.1-1.8,1.6-3.3,3.5-3.2
	C103.2,210.2,104.8,211.8,104.7,213.7z"/>
<path class="st3" d="M114.9,213.7c-0.1,1.9-1.7,3.3-3.6,3.2c-1.9-0.1-3.3-1.7-3.2-3.6c0.1-1.8,1.6-3.2,3.4-3.2
	C113.4,210.1,114.9,211.8,114.9,213.7z"/>
<path class="st2" d="M125,213.7c-0.1,1.9-1.7,3.3-3.6,3.2c-1.9-0.1-3.3-1.7-3.2-3.6c0.1-1.8,1.6-3.3,3.4-3.2
	C123.6,210.2,125.1,211.8,125,213.7z"/>
<g id="text1002">
	<text transform="matrix(0.94 0 0 1 127.835 217.56)" class="st4 st5">   </text>
	<text transform="matrix(0.94 0 0 1 127.835 217.56)" class="st4 st6">G</text>
</g>
<g id="text1004">
	<text transform="matrix(0.94 0 0 1 138.2646 217.56)" class="st4 st5">   </text>
	<text transform="matrix(0.94 0 0 1 138.2646 217.56)" class="st4 st6">U</text>
</g>
<g id="text1006">
	<text transform="matrix(0.94 0 0 1 148.415 217.56)" class="st4 st5">   </text>
	<text transform="matrix(0.94 0 0 1 148.415 217.56)" class="st7 st4 st6">U</text>
</g>
<g id="text1008">
	<text transform="matrix(0.94 0 0 1 158.5649 217.56)" class="st4 st5">   </text>
	<text transform="matrix(0.94 0 0 1 158.5649 217.56)" class="st8 st4 st6">R</text>
</g>
<g id="text1010">
	<text transform="matrix(0.94 0 0 1 168.9849 217.56)" class="st4 st5">   </text>
	<text transform="matrix(0.94 0 0 1 168.9849 217.56)" class="st8 st4 st6">Y</text>
</g>
<g id="text1012">
	<text transform="matrix(0.94 0 0 1 179.1348 217.56)" class="st4 st5">   </text>
	<text transform="matrix(0.94 0 0 1 179.1348 217.56)" class="st8 st4 st6">A</text>
</g>
<g id="text1014">
	<text transform="matrix(0.94 0 0 1 189.2847 217.56)" class="st4 st5">   </text>
	<text transform="matrix(0.94 0 0 1 189.2847 217.56)" class="st7 st4 st6">A</text>
</g>
<path class="st9" d="M206.2,213.7c-0.1,1.9-1.7,3.3-3.6,3.2c-1.9-0.1-3.3-1.7-3.2-3.6c0.1-1.8,1.6-3.2,3.4-3.2
	C204.7,210.1,206.3,211.8,206.2,213.7z"/>
<path class="st9" d="M216.4,213.7c-0.1,1.9-1.7,3.3-3.6,3.2s-3.3-1.7-3.2-3.6c0.1-1.8,1.6-3.2,3.4-3.2
	C214.9,210.1,216.4,211.8,216.4,213.7C216.4,213.7,216.4,213.7,216.4,213.7z"/>
<path class="st2" d="M223.5,206.1c-0.1,1.9-1.7,3.3-3.6,3.2c-1.9-0.1-3.3-1.7-3.2-3.6c0.1-1.8,1.6-3.2,3.4-3.2
	C222.1,202.5,223.6,204.1,223.5,206.1z"/>
<g id="text1016">
	<text transform="matrix(0.94 0 0 1 216.4849 199.2001)" class="st4 st5">   </text>
	<text transform="matrix(0.94 0 0 1 216.4849 199.2001)" class="st7 st4 st6">U</text>
</g>
<g id="text1018">
	<text transform="matrix(0.94 0 0 1 216.4849 188.4398)" class="st4 st5">   </text>
	<text transform="matrix(0.94 0 0 1 216.4849 188.4398)" class="st7 st4 st6">C</text>
</g>
<g id="text1020">
	<text transform="matrix(0.94 0 0 1 216.4849 177.6898)" class="st4 st5">   </text>
	<text transform="matrix(0.94 0 0 1 216.4849 177.6898)" class="st7 st4 st6">C</text>
</g>
<g id="text1022">
	<text transform="matrix(0.94 0 0 1 216.4849 166.9398)" class="st4 st5">   </text>
	<text transform="matrix(0.94 0 0 1 216.4849 166.9398)" class="st8 st4 st6">C</text>
</g>
<g id="text1024">
	<text transform="matrix(0.94 0 0 1 207.8047 160.8998)" class="st4 st5">   </text>
	<text transform="matrix(0.94 0 0 1 207.8047 160.8998)" class="st7 st4 st6">G</text>
</g>
<g id="text1026">
	<text transform="matrix(0.94 0 0 1 203.2847 151.5902)" class="st4 st5">   </text>
	<text transform="matrix(0.94 0 0 1 203.2847 151.5902)" class="st7 st4 st6">A</text>
</g>
<path class="st2" d="M209.3,137c-0.1,1.9-1.7,3.3-3.6,3.2c-1.9-0.1-3.3-1.7-3.2-3.6c0.1-1.8,1.6-3.2,3.4-3.2
	C207.9,133.5,209.4,135.1,209.3,137z"/>
<g id="text1028">
	<text transform="matrix(0.94 0 0 1 193.7646 135.4901)" class="st4 st5">   </text>
	<text transform="matrix(0.94 0 0 1 193.7646 135.4901)" class="st8 st4 st6">A</text>
</g>
<g id="text1030">
	<text transform="matrix(0.94 0 0 1 184.415 130.1103)" class="st4 st5">   </text>
	<text transform="matrix(0.94 0 0 1 184.415 130.1103)" class="st7 st4 st6">G</text>
</g>
<g id="text1032">
	<text transform="matrix(0.94 0 0 1 175.625 124.7299)" class="st4 st5">   </text>
	<text transform="matrix(0.94 0 0 1 175.625 124.7299)" class="st7 st4 st6">G</text>
</g>
<g id="text1034">
	<text transform="matrix(0.94 0 0 1 166.085 123.6498)" class="st4 st5">   </text>
	<text transform="matrix(0.94 0 0 1 166.085 123.6498)" class="st4 st6">A</text>
</g>
<g id="text1036">
	<text transform="matrix(0.94 0 0 1 159.875 114.9198)" class="st4 st5">   </text>
	<text transform="matrix(0.94 0 0 1 159.875 114.9198)" class="st7 st4 st6">U</text>
</g>
<g id="text1038">
	<text transform="matrix(0.94 0 0 1 151.085 109.5502)" class="st4 st5">   </text>
	<text transform="matrix(0.94 0 0 1 151.085 109.5502)" class="st8 st4 st6">U</text>
</g>
<g id="text1040">
	<text transform="matrix(0.94 0 0 1 142.2949 104.1698)" class="st4 st5">   </text>
	<text transform="matrix(0.94 0 0 1 142.2949 104.1698)" class="st8 st4 st6">C</text>
</g>
<g id="text1042">
	<text transform="matrix(0.94 0 0 1 133.5049 98.7899)" class="st4 st5">   </text>
	<text transform="matrix(0.94 0 0 1 133.5049 98.7899)" class="st7 st4 st6">R</text>
</g>
<g id="text1044">
	<text transform="matrix(0.94 0 0 1 124.9946 93.4198)" class="st4 st5">   </text>
	<text transform="matrix(0.94 0 0 1 124.9946 93.4198)" class="st4 st6">Y</text>
</g>
<path class="st9" d="M121.7,90.4c-0.1,1.9-1.7,3.3-3.6,3.2c-1.9-0.1-3.3-1.7-3.2-3.6c0.1-1.8,1.6-3.2,3.4-3.2
	C120.2,86.8,121.8,88.4,121.7,90.4z"/>
<path class="st9" d="M113.6,83.9c-0.1,1.9-1.7,3.3-3.6,3.2c-1.9-0.1-3.3-1.7-3.2-3.6c0.1-1.8,1.6-3.2,3.4-3.2
	C112.1,80.3,113.6,82,113.6,83.9z"/>
<path class="st10" d="M111.6,73.4c-0.1,1.9-1.7,3.3-3.6,3.2s-3.3-1.7-3.2-3.6c0.1-1.8,1.6-3.2,3.4-3.2
	C110.1,69.8,111.6,71.4,111.6,73.4C111.6,73.4,111.6,73.4,111.6,73.4z"/>
<path class="st2" d="M116.6,64.1c-0.1,1.9-1.7,3.3-3.6,3.2c-1.9-0.1-3.3-1.7-3.2-3.6c0.1-1.8,1.6-3.2,3.4-3.2
	C115.2,60.5,116.7,62.1,116.6,64.1C116.6,64.1,116.6,64.1,116.6,64.1z"/>
<path class="st2" d="M126.3,60.6c-0.1,1.9-1.7,3.3-3.6,3.2c-1.9-0.1-3.3-1.7-3.2-3.6c0.1-1.8,1.6-3.2,3.4-3.2
	C124.8,57.1,126.3,58.7,126.3,60.6z"/>
<path class="st2" d="M135.6,64.8c-0.1,1.9-1.7,3.3-3.6,3.2c-1.9-0.1-3.3-1.7-3.2-3.6c0.1-1.8,1.6-3.2,3.4-3.2
	C134.1,61.2,135.7,62.9,135.6,64.8z"/>
<g id="text1046">
	<text transform="matrix(0.94 0 0 1 132.9346 78.3402)" class="st4 st5">   </text>
	<text transform="matrix(0.94 0 0 1 132.9346 78.3402)" class="st4 st6">R</text>
</g>
<g id="text1048">
	<text transform="matrix(0.94 0 0 1 142.0049 83.7099)" class="st4 st5">   </text>
	<text transform="matrix(0.94 0 0 1 142.0049 83.7099)" class="st4 st6">Y</text>
</g>
<g id="text1050">
	<text transform="matrix(0.94 0 0 1 150.2349 89.0902)" class="st4 st5">   </text>
	<text transform="matrix(0.94 0 0 1 150.2349 89.0902)" class="st8 st4 st6">G</text>
</g>
<g id="text1052">
	<text transform="matrix(0.94 0 0 1 159.5747 94.4701)" class="st4 st5">   </text>
	<text transform="matrix(0.94 0 0 1 159.5747 94.4701)" class="st8 st4 st6">A</text>
</g>
<g id="text1054">
	<text transform="matrix(0.94 0 0 1 168.3647 99.85)" class="st4 st5">   </text>
	<text transform="matrix(0.94 0 0 1 168.3647 99.85)" class="st7 st4 st6">A</text>
</g>
<g id="text1056">
	<text transform="matrix(0.94 0 0 1 170.875 89.6)" class="st4 st5">   </text>
	<text transform="matrix(0.94 0 0 1 170.875 89.6)" class="st4 st6">G</text>
</g>
<g id="text1058">
	<text transform="matrix(0.94 0 0 1 180.9048 85.7099)" class="st4 st5">   </text>
	<text transform="matrix(0.94 0 0 1 180.9048 85.7099)" class="st4 st6">A</text>
</g>
<g id="text1060">
	<text transform="matrix(0.94 0 0 1 189.415 91.0902)" class="st4 st5">   </text>
	<text transform="matrix(0.94 0 0 1 189.415 91.0902)" class="st8 st4 st6">U</text>
</g>
<g id="text1062">
	<text transform="matrix(0.94 0 0 1 190.6846 101.7099)" class="st4 st5">   </text>
	<text transform="matrix(0.94 0 0 1 190.6846 101.7099)" class="st4 st6">G</text>
</g>
<g id="text1064">
	<text transform="matrix(0.94 0 0 1 184.125 109.6498)" class="st4 st5">   </text>
	<text transform="matrix(0.94 0 0 1 184.125 109.6498)" class="st7 st4 st6">C</text>
</g>
<g id="text1066">
	<text transform="matrix(0.94 0 0 1 192.915 115.0302)" class="st4 st5">   </text>
	<text transform="matrix(0.94 0 0 1 192.915 115.0302)" class="st7 st4 st6">C</text>
</g>
<g id="text1068">
	<text transform="matrix(0.94 0 0 1 201.7046 120.4101)" class="st4 st5">   </text>
	<text transform="matrix(0.94 0 0 1 201.7046 120.4101)" class="st7 st4 st6">U</text>
</g>
<g id="text1070">
	<text transform="matrix(0.94 0 0 1 210.4946 125.7802)" class="st4 st5">   </text>
	<text transform="matrix(0.94 0 0 1 210.4946 125.7802)" class="st7 st4 st6">U</text>
</g>
<g id="text1072">
	<text transform="matrix(0.94 0 0 1 219.3447 121.1)" class="st4 st5">   </text>
	<text transform="matrix(0.94 0 0 1 219.3447 121.1)" class="st7 st4 st6">G</text>
</g>
<g id="text1074">
	<text transform="matrix(0.94 0 0 1 229.7749 121.1)" class="st4 st5">   </text>
	<text transform="matrix(0.94 0 0 1 229.7749 121.1)" class="st7 st4 st6">U</text>
</g>
<g id="text1076">
	<text transform="matrix(0.94 0 0 1 239.1846 125.7802)" class="st4 st5">   </text>
	<text transform="matrix(0.94 0 0 1 239.1846 125.7802)" class="st7 st4 st6">A</text>
</g>
<g id="text1078">
	<text transform="matrix(0.94 0 0 1 245.4746 134.2201)" class="st4 st5">   </text>
	<text transform="matrix(0.94 0 0 1 245.4746 134.2201)" class="st7 st4 st6">A</text>
</g>
<g id="text1080">
	<text transform="matrix(0.94 0 0 1 247.3848 144.7201)" class="st4 st5">   </text>
	<text transform="matrix(0.94 0 0 1 247.3848 144.7201)" class="st7 st4 st6">C</text>
</g>
<g id="text1082">
	<text transform="matrix(0.94 0 0 1 256.8149 148.7001)" class="st4 st5">   </text>
	<text transform="matrix(0.94 0 0 1 256.8149 148.7001)" class="st7 st4 st6">C</text>
</g>
<g id="text1084">
	<text transform="matrix(0.94 0 0 1 265.2847 142.7699)" class="st4 st5">   </text>
	<text transform="matrix(0.94 0 0 1 265.2847 142.7699)" class="st4 st6">R</text>
</g>
<g id="text1086">
	<text transform="matrix(0.94 0 0 1 275.6348 141.4599)" class="st4 st5">   </text>
	<text transform="matrix(0.94 0 0 1 275.6348 141.4599)" class="st8 st4 st6">A</text>
</g>
<g id="text1088">
	<text transform="matrix(0.94 0 0 1 285.2046 145.0199)" class="st4 st5">   </text>
	<text transform="matrix(0.94 0 0 1 285.2046 145.0199)" class="st8 st4 st6">A</text>
</g>
<path class="st3" d="M299.1,148.9c-0.1,1.9-1.7,3.3-3.6,3.2c-1.9-0.1-3.3-1.7-3.2-3.6c0.1-1.8,1.6-3.2,3.4-3.2
	C297.6,145.3,299.1,146.9,299.1,148.9C299.1,148.9,299.1,148.9,299.1,148.9z"/>
<path class="st3" d="M302.2,159.1c0.1,1.9-1.4,3.5-3.2,3.6c-1.9,0.1-3.5-1.4-3.6-3.2c0-0.1,0-0.2,0-0.4l0,0
	c-0.1-1.9,1.4-3.5,3.2-3.6c1.9-0.1,3.5,1.4,3.6,3.2C302.2,158.9,302.2,159,302.2,159.1z"/>
<g id="text1090">
	<text transform="matrix(0.94 0 0 1 293.6348 173.5902)" class="st4 st5">   </text>
	<text transform="matrix(0.94 0 0 1 293.6348 173.5902)" class="st4 st6">U</text>
</g>
<g id="text1092">
	<text transform="matrix(0.94 0 0 1 288.105 182.4101)" class="st4 st5">   </text>
	<text transform="matrix(0.94 0 0 1 288.105 182.4101)" class="st8 st4 st6">A</text>
</g>
<path class="st10" d="M286,183.8c0.1,1.9-1.4,3.5-3.2,3.6c-1.9,0.1-3.5-1.4-3.6-3.2c0-0.1,0-0.2,0-0.4l0,0c-0.1-1.9,1.4-3.5,3.2-3.6
	c1.9-0.1,3.5,1.4,3.6,3.2C286,183.5,286,183.6,286,183.8z"/>
<path class="st3" d="M275.9,184.2c-0.1,1.9-1.7,3.3-3.6,3.2s-3.3-1.7-3.2-3.6c0.1-1.8,1.6-3.2,3.4-3.2
	C274.4,180.6,275.9,182.2,275.9,184.2z"/>
<path class="st2" d="M266.6,179.8c-0.1,1.9-1.7,3.3-3.6,3.2s-3.3-1.7-3.2-3.6c0.1-1.8,1.6-3.2,3.4-3.2
	C265.1,176.2,266.6,177.8,266.6,179.8C266.6,179.8,266.6,179.8,266.6,179.8z"/>
<path class="st2" d="M260.1,171.5c0.1,1.9-1.4,3.5-3.2,3.6c-1.9,0.1-3.5-1.4-3.6-3.2c0-0.1,0-0.2,0-0.4l0,0
	c-0.1-1.9,1.4-3.5,3.2-3.6c1.9-0.1,3.5,1.4,3.6,3.2C260.1,171.3,260.1,171.4,260.1,171.5z"/>
<g id="text1094">
	<text transform="matrix(0.94 0 0 1 250.4546 164.8803)" class="st4 st5">   </text>
	<text transform="matrix(0.94 0 0 1 250.4546 164.8803)" class="st7 st4 st6">G</text>
</g>
<g id="text1096">
	<text transform="matrix(0.94 0 0 1 241.0249 160.8998)" class="st4 st5">   </text>
	<text transform="matrix(0.94 0 0 1 241.0249 160.8998)" class="st7 st4 st6">G</text>
</g>
<g id="text1098">
	<text transform="matrix(0.94 0 0 1 232.6348 166.9398)" class="st4 st5">   </text>
	<text transform="matrix(0.94 0 0 1 232.6348 166.9398)" class="st7 st4 st6">G</text>
</g>
<g id="text1100">
	<text transform="matrix(0.94 0 0 1 232.6348 177.6898)" class="st4 st5">   </text>
	<text transform="matrix(0.94 0 0 1 232.6348 177.6898)" class="st7 st4 st6">G</text>
</g>
<g id="text1102">
	<text transform="matrix(0.94 0 0 1 232.6348 188.4398)" class="st4 st5">   </text>
	<text transform="matrix(0.94 0 0 1 232.6348 188.4398)" class="st7 st4 st6">G</text>
</g>
<g id="text1104">
	<text transform="matrix(0.94 0 0 1 233.1846 199.2001)" class="st4 st5">   </text>
	<text transform="matrix(0.94 0 0 1 233.1846 199.2001)" class="st7 st4 st6">A</text>
</g>
<path class="st2" d="M240,206.1c-0.1,1.9-1.7,3.3-3.6,3.2c-1.9-0.1-3.3-1.7-3.2-3.6c0.1-1.8,1.6-3.3,3.4-3.2
	C238.5,202.5,240,204.2,240,206.1z"/>
<path class="st9" d="M247.2,213.7c-0.1,1.9-1.7,3.3-3.6,3.2c-1.9-0.1-3.3-1.7-3.2-3.6c0.1-1.8,1.6-3.2,3.4-3.2
	C245.7,210.1,247.2,211.8,247.2,213.7C247.2,213.7,247.2,213.7,247.2,213.7z"/>
<path class="st9" d="M257.3,213.7c-0.1,1.9-1.7,3.3-3.6,3.2s-3.3-1.7-3.2-3.6c0.1-1.8,1.6-3.2,3.4-3.2
	C255.8,210.1,257.4,211.8,257.3,213.7z"/>
<path class="st3" d="M267.5,213.7c-0.1,1.9-1.7,3.3-3.6,3.2c-1.9-0.1-3.3-1.7-3.2-3.6c0.1-1.8,1.6-3.3,3.4-3.2
	C266,210.2,267.5,211.8,267.5,213.7z"/>
<g id="text1106">
	<text transform="matrix(0.94 0 0 1 270.5347 217.56)" class="st4 st5">   </text>
	<text transform="matrix(0.94 0 0 1 270.5347 217.56)" class="st8 st4 st6">R</text>
</g>
<path class="st2" d="M287.7,213.7c-0.1,1.9-1.7,3.3-3.6,3.2c-1.9-0.1-3.3-1.7-3.2-3.6c0.1-1.8,1.6-3.3,3.4-3.2
	C286.2,210.2,287.8,211.8,287.7,213.7z"/>
<path class="st3" d="M297.9,213.7c-0.1,1.9-1.7,3.3-3.6,3.2s-3.3-1.7-3.2-3.6c0.1-1.8,1.6-3.2,3.4-3.2
	C296.4,210.1,298,211.8,297.9,213.7z"/>
<g id="text1108">
	<text transform="matrix(0.94 0 0 1 301.2549 217.56)" class="st4 st5">   </text>
	<text transform="matrix(0.94 0 0 1 301.2549 217.56)" class="st4 st6">A</text>
</g>
<g id="text1110">
	<text transform="matrix(0.94 0 0 1 311.125 217.56)" class="st4 st5">   </text>
	<text transform="matrix(0.94 0 0 1 311.125 217.56)" class="st4 st6">U</text>
</g>
<g id="text1112">
	<text transform="matrix(0.94 0 0 1 320.9946 217.56)" class="st4 st5">   </text>
	<text transform="matrix(0.94 0 0 1 320.9946 217.56)" class="st8 st4 st6">G</text>
</g>
<path class="st11" d="M81,213.7h5.1"/>
<g id="text1114">
	<text transform="matrix(0.94 0 0 1 71.4746 217.56)" class="st4 st5">   </text>
	<text transform="matrix(0.94 0 0 1 71.4746 217.56)" class="st4 st6">5&apos;</text>
</g>
<rect x="144.7" y="232.4" class="st0" width="8.8" height="8.8"/>
<text transform="matrix(1 0 0 1 160.12 240.7)" class="st4 st12">Statistically significant basepair with covariation</text>
<rect x="144.7" y="251.7" class="st13" width="8.8" height="8.8"/>
<text transform="matrix(1 0 0 1 162.43 260.48)" class="st4 st12">97% conserved nucleotide</text>
<rect x="144.8" y="271" class="st3" width="8.8" height="8.8"/>
<rect x="144.5" y="290.3" class="st8" width="8.8" height="8.8"/>
<text transform="matrix(1 0 0 1 160.58 278.63)" class="st4 st12">90% conserved nucleotide</text>
<text transform="matrix(1 0 0 1 161 299.08)" class="st4 st12">75% conserved nucleotide</text>
<rect x="144.5" y="309.6" class="st14" width="8.8" height="8.8"/>
<text transform="matrix(1 0 0 1 162.39 318.38)" class="st4 st12">50% conserved nucleotide</text>
<text transform="matrix(1 0 0 1 42.32 263.38)" class="st4 st12">Nucleotides</text>
<text transform="matrix(1 0 0 1 42.32 275.38)" class="st4 st12">R:</text>
<g>
	<text transform="matrix(1 0 0 1 52.32 275.38)" class="st4 st12 st15"> A</text>
</g>
<g>
	<text transform="matrix(1 0 0 1 60.66 275.38)" class="st4 st12"> or G</text>
</g>
<text transform="matrix(1 0 0 1 42.32 287.38)" class="st4 st12 st15">Y</text>
<text transform="matrix(1 0 0 1 48.44 287.38)" class="st4 st12">: C or U</text>
<text transform="matrix(1.06 0 0 1 3.7114 22.5227)" class="st4 st16">SAM-III Riboswitch</text>
</svg>
