<svg id="图层_1" data-name="图层 1" xmlns="http://www.w3.org/2000/svg" viewBox="0 0 400 400">
  <defs>
    <style>
      .cls-1 {
        fill: #ff0b0c;
        stroke: #ff0b0c;
      }

      .cls-1, .cls-14, .cls-15 {
        stroke-miterlimit: 10;
      }

      .cls-2 {
        isolation: isolate;
      }

      .cls-3, .cls-7 {
        fill: #fff;
      }

      .cls-4 {
        fill: #ffdf5c;
      }

      .cls-5 {
        fill: #ff870a;
      }

      .cls-10, .cls-14, .cls-15, .cls-6 {
        fill: none;
      }

      .cls-10, .cls-14, .cls-15, .cls-6, .cls-7, .cls-8 {
        stroke: #000;
      }

      .cls-10, .cls-6, .cls-7, .cls-8 {
        stroke-miterlimit: 1.11;
      }

      .cls-6, .cls-7, .cls-8 {
        stroke-width: 0.14px;
      }

      .cls-9 {
        fill: #09fefe;
      }

      .cls-10 {
        stroke-width: 0.5px;
      }

      .cls-11 {
        fill: #c2c2ff;
      }

      .cls-12 {
        fill: #ffaadc;
      }

      .cls-13 {
        fill: #251e1c;
      }

      .cls-15 {
        stroke-dasharray: 11.88 11.88;
      }
    </style>
  </defs>
  <path class="cls-1" d="M321.6,138.3c0,7.9-16.6,14.5-36.9,14.5s-37.1-6.4-37.1-14.5,16.6-14.5,37.1-14.5S321.6,130.1,321.6,138.3Z"/>
  <g class="cls-2">
    <path class="cls-3" d="M279.12,137.4l1.49-.13a3.32,3.32,0,0,0,.49,1.49,2.72,2.72,0,0,0,1.2,1,4.54,4.54,0,0,0,1.84.36,4.23,4.23,0,0,0,1.6-.28,2.22,2.22,0,0,0,1-.75,1.76,1.76,0,0,0,.34-1,1.56,1.56,0,0,0-.33-1,2.46,2.46,0,0,0-1.08-.72c-.32-.12-1-.32-2.12-.59a10.7,10.7,0,0,1-2.31-.76,3.24,3.24,0,0,1-1.28-1.13,2.79,2.79,0,0,1-.42-1.51,3,3,0,0,1,.52-1.71,3.16,3.16,0,0,1,1.5-1.22,5.7,5.7,0,0,1,2.19-.41,5.85,5.85,0,0,1,2.34.43,3.45,3.45,0,0,1,1.57,1.28,3.67,3.67,0,0,1,.58,1.91l-1.51.12a2.53,2.53,0,0,0-.83-1.74,3.21,3.21,0,0,0-2.09-.59,3.29,3.29,0,0,0-2.09.54,1.61,1.61,0,0,0-.65,1.29,1.38,1.38,0,0,0,.46,1.07,6.37,6.37,0,0,0,2.39.87,15.37,15.37,0,0,1,2.64.77,3.63,3.63,0,0,1,1.54,1.24,3,3,0,0,1,.5,1.72,3.3,3.3,0,0,1-.55,1.83,3.59,3.59,0,0,1-1.56,1.33,5.39,5.39,0,0,1-2.31.48,6.79,6.79,0,0,1-2.72-.48,3.82,3.82,0,0,1-1.72-1.45A4.16,4.16,0,0,1,279.12,137.4Z"/>
    <path class="cls-3" d="M289.48,141.3l4.59-12.13h1.7l4.9,12.13h-1.8l-1.4-3.68h-5l-1.31,3.68Zm3.45-5H297L295.73,133q-.57-1.53-.84-2.52a16.38,16.38,0,0,1-.65,2.32Z"/>
    <path class="cls-3" d="M301.88,141.3V129.17h2.38l2.83,8.59c.26.8.45,1.4.57,1.79.14-.44.35-1.09.64-1.94l2.86-8.44h2.13V141.3h-1.53V131.14l-3.47,10.16h-1.43L303.41,131V141.3Z"/>
  </g>
  <g id="ID000002">
    <g class="cls-2">
      <path class="cls-4" d="M213.55,310.69l6.28-13.36h2.33l6.69,13.36h-2.46l-1.91-4.05h-6.84l-1.79,4.05Zm4.72-5.49h5.54l-1.7-3.7a28.57,28.57,0,0,1-1.16-2.76,15.18,15.18,0,0,1-.89,2.55Z"/>
    </g>
  </g>
  <g id="ID000003">
    <g class="cls-2">
      <path class="cls-4" d="M221.73,286.61V285h6.93v5a13.33,13.33,0,0,1-3.29,1.56,11.69,11.69,0,0,1-3.48.52,11,11,0,0,1-4.38-.84,6.3,6.3,0,0,1-3-2.44,6.54,6.54,0,0,1-1-3.56,7.1,7.1,0,0,1,1-3.64,6.07,6.07,0,0,1,2.87-2.51,10.81,10.81,0,0,1,4.32-.82,10.41,10.41,0,0,1,3.21.47,4.92,4.92,0,0,1,3.48,3.49l-1.95.44a4.59,4.59,0,0,0-.92-1.6,3.8,3.8,0,0,0-1.56-.94,6.9,6.9,0,0,0-2.25-.35,8.09,8.09,0,0,0-2.56.37,4.94,4.94,0,0,0-1.75,1,4.69,4.69,0,0,0-1,1.32,5.88,5.88,0,0,0-.63,2.69,5.47,5.47,0,0,0,.76,3,4.42,4.42,0,0,0,2.19,1.78,8,8,0,0,0,3,.59,8.84,8.84,0,0,0,2.75-.44,7.59,7.59,0,0,0,2-1v-2.48Z"/>
    </g>
  </g>
  <g id="ID000004">
    <g class="cls-2">
      <path class="cls-4" d="M221.73,267.76V266.2h6.93v4.95a13.37,13.37,0,0,1-3.29,1.57,12,12,0,0,1-3.48.52,11,11,0,0,1-4.38-.84,6.41,6.41,0,0,1-3-2.44,6.54,6.54,0,0,1-1-3.56,7.1,7.1,0,0,1,1-3.64,6.07,6.07,0,0,1,2.87-2.51,10.64,10.64,0,0,1,4.32-.82,10.41,10.41,0,0,1,3.21.47,5.37,5.37,0,0,1,2.24,1.31,5.21,5.21,0,0,1,1.24,2.18l-1.95.44a4.5,4.5,0,0,0-.92-1.6,3.8,3.8,0,0,0-1.56-.94,6.9,6.9,0,0,0-2.25-.35,7.82,7.82,0,0,0-2.56.37,4.94,4.94,0,0,0-1.75,1,4.55,4.55,0,0,0-1,1.32,5.85,5.85,0,0,0-.63,2.69,5.49,5.49,0,0,0,.76,3,4.48,4.48,0,0,0,2.19,1.78,8,8,0,0,0,3,.58,8.56,8.56,0,0,0,2.75-.44,7.61,7.61,0,0,0,2-.94v-2.49Z"/>
    </g>
  </g>
  <g id="ID000005">
    <g class="cls-2">
      <path class="cls-4" d="M226.38,249.48l2.17.44a5.92,5.92,0,0,1-2.45,3.32,7.82,7.82,0,0,1-4.32,1.15,9.2,9.2,0,0,1-4.3-.88A5.86,5.86,0,0,1,215,251a7.61,7.61,0,0,1-.87-3.58,6.72,6.72,0,0,1,1-3.64,6.18,6.18,0,0,1,2.77-2.36,9.74,9.74,0,0,1,4-.8,7.81,7.81,0,0,1,4.13,1,5.38,5.38,0,0,1,2.33,2.87l-2.13.41a4.18,4.18,0,0,0-1.65-2.13,5.15,5.15,0,0,0-2.72-.66,6.13,6.13,0,0,0-3.16.74,4.1,4.1,0,0,0-1.78,2,6.68,6.68,0,0,0-.51,2.56,6.78,6.78,0,0,0,.61,3,4,4,0,0,0,1.89,1.9,6.36,6.36,0,0,0,2.78.62,5.36,5.36,0,0,0,3.08-.85A4.22,4.22,0,0,0,226.38,249.48Z"/>
    </g>
  </g>
  <g id="ID000006">
    <g class="cls-2">
      <path class="cls-5" d="M221.73,197.1v-1.57h6.93v5a13.33,13.33,0,0,1-3.29,1.56,11.7,11.7,0,0,1-3.48.53,10.87,10.87,0,0,1-4.38-.85,6.34,6.34,0,0,1-3-2.43,6.57,6.57,0,0,1-1-3.57,7.06,7.06,0,0,1,1-3.63,6,6,0,0,1,2.87-2.51,10.64,10.64,0,0,1,4.32-.82,10.12,10.12,0,0,1,3.21.47,4.88,4.88,0,0,1,3.48,3.49l-1.95.44a4.64,4.64,0,0,0-.92-1.61,3.68,3.68,0,0,0-1.56-.93,6.9,6.9,0,0,0-2.25-.35,7.82,7.82,0,0,0-2.56.37,4.79,4.79,0,0,0-1.75,1,4.55,4.55,0,0,0-1,1.32,5.82,5.82,0,0,0-.63,2.69,5.43,5.43,0,0,0,.76,3,4.49,4.49,0,0,0,2.19,1.79,8,8,0,0,0,3,.58,8.84,8.84,0,0,0,2.75-.44,7.61,7.61,0,0,0,2-.94V197.1Z"/>
    </g>
  </g>
  <g id="ID000007">
    <g class="cls-2">
      <path class="cls-5" d="M209.08,183.52l2.16.45a5.88,5.88,0,0,1-2.45,3.32,7.79,7.79,0,0,1-4.32,1.14,9.26,9.26,0,0,1-4.3-.87,6,6,0,0,1-2.52-2.55,7.63,7.63,0,0,1-.86-3.58,6.71,6.71,0,0,1,1-3.64,6.21,6.21,0,0,1,2.78-2.36,9.54,9.54,0,0,1,4-.81,7.78,7.78,0,0,1,4.13,1,5.35,5.35,0,0,1,2.33,2.86l-2.13.41a4.19,4.19,0,0,0-1.65-2.12,5.15,5.15,0,0,0-2.72-.66,6.07,6.07,0,0,0-3.15.74,4.05,4.05,0,0,0-1.78,2,7.11,7.11,0,0,0,.1,5.53,3.92,3.92,0,0,0,1.89,1.9,6.19,6.19,0,0,0,2.77.63,5.36,5.36,0,0,0,3.08-.85A4.27,4.27,0,0,0,209.08,183.52Z"/>
    </g>
  </g>
  <g id="ID000008">
    <g class="cls-2">
      <path class="cls-5" d="M213.55,169.36,219.83,156h2.33l6.69,13.35h-2.46l-1.91-4h-6.84l-1.79,4Zm4.72-5.48h5.54l-1.7-3.7a28.58,28.58,0,0,1-1.16-2.77,14.58,14.58,0,0,1-.89,2.55Z"/>
    </g>
  </g>
  <g id="ID000009">
    <g class="cls-2">
      <path class="cls-5" d="M225.45,137.17h2.16v7.71a7.65,7.65,0,0,1-.56,3.2,4.24,4.24,0,0,1-2,1.93,8.52,8.52,0,0,1-3.82.74,9.37,9.37,0,0,1-3.76-.65,4.11,4.11,0,0,1-2.09-1.87,7.55,7.55,0,0,1-.62-3.35v-7.71h2.16v7.7a6.16,6.16,0,0,0,.4,2.57,2.69,2.69,0,0,0,1.36,1.27,5.71,5.71,0,0,0,2.36.44,5.18,5.18,0,0,0,3.4-.88c.68-.59,1-1.72,1-3.4Z"/>
    </g>
  </g>
  <g id="ID000010">
    <g class="cls-2">
      <path class="cls-5" d="M225.45,113.61h2.16v7.72a7.6,7.6,0,0,1-.56,3.19,4.24,4.24,0,0,1-2,1.93,8.52,8.52,0,0,1-3.82.74,9.2,9.2,0,0,1-3.76-.65,4.11,4.11,0,0,1-2.09-1.87,7.51,7.51,0,0,1-.62-3.34v-7.72h2.16v7.71a6.11,6.11,0,0,0,.4,2.56,2.69,2.69,0,0,0,1.36,1.27,5.55,5.55,0,0,0,2.36.45,5.17,5.17,0,0,0,3.4-.89q1-.88,1-3.39Z"/>
    </g>
  </g>
  <g id="ID000011">
    <g class="cls-2">
      <path class="cls-5" d="M225.45,94.77h2.16v7.71a7.62,7.62,0,0,1-.56,3.2,4.24,4.24,0,0,1-2,1.93,8.52,8.52,0,0,1-3.82.74,9.37,9.37,0,0,1-3.76-.65,4.11,4.11,0,0,1-2.09-1.87,7.55,7.55,0,0,1-.62-3.35V94.77h2.16v7.7a6.16,6.16,0,0,0,.4,2.57,2.69,2.69,0,0,0,1.36,1.27,5.55,5.55,0,0,0,2.36.45,5.17,5.17,0,0,0,3.4-.89c.68-.59,1-1.72,1-3.4Z"/>
    </g>
  </g>
  <g id="ID000012">
    <g class="cls-2">
      <path class="cls-5" d="M216,84V82.47h6.93v5A13.16,13.16,0,0,1,219.6,89a11.7,11.7,0,0,1-3.48.53,11,11,0,0,1-4.38-.85,6.34,6.34,0,0,1-3-2.43,6.56,6.56,0,0,1-1-3.57,7.05,7.05,0,0,1,1-3.63,6.07,6.07,0,0,1,2.87-2.51A10.64,10.64,0,0,1,216,75.7a10.12,10.12,0,0,1,3.21.47,4.83,4.83,0,0,1,3.48,3.49l-1.95.44a4.63,4.63,0,0,0-.91-1.61,3.81,3.81,0,0,0-1.56-.93,7,7,0,0,0-2.26-.35,7.82,7.82,0,0,0-2.56.37,4.87,4.87,0,0,0-1.75,1,4.73,4.73,0,0,0-1,1.32,5.82,5.82,0,0,0-.62,2.69,5.51,5.51,0,0,0,.75,3,4.49,4.49,0,0,0,2.19,1.79,8,8,0,0,0,3.06.58,8.83,8.83,0,0,0,2.74-.44,7.61,7.61,0,0,0,2-.94V84Z"/>
    </g>
  </g>
  <g id="ID000013">
    <g class="cls-2">
      <path class="cls-4" d="M267.88,248.92v-1.57h6.93v5a13.33,13.33,0,0,1-3.29,1.56,11.7,11.7,0,0,1-3.48.53,10.87,10.87,0,0,1-4.38-.85,6.34,6.34,0,0,1-3-2.43,6.57,6.57,0,0,1-1-3.57,7,7,0,0,1,1-3.63,6,6,0,0,1,2.87-2.51,10.64,10.64,0,0,1,4.32-.82,10.12,10.12,0,0,1,3.21.47,4.88,4.88,0,0,1,3.48,3.49l-1.95.44a4.8,4.8,0,0,0-.91-1.61,3.79,3.79,0,0,0-1.57-.93,6.9,6.9,0,0,0-2.25-.35,7.92,7.92,0,0,0-2.57.37,4.82,4.82,0,0,0-1.74,1,4.55,4.55,0,0,0-1,1.32,5.82,5.82,0,0,0-.63,2.69,5.43,5.43,0,0,0,.76,3,4.44,4.44,0,0,0,2.19,1.79,8,8,0,0,0,3.05.58,8.84,8.84,0,0,0,2.75-.44,7.61,7.61,0,0,0,2-.94v-2.49Z"/>
    </g>
  </g>
  <g id="ID000014">
    <g class="cls-2">
      <path class="cls-4" d="M272.53,268.32l2.17.45a6,6,0,0,1-2.45,3.32,7.82,7.82,0,0,1-4.33,1.14,9.13,9.13,0,0,1-4.3-.88,5.91,5.91,0,0,1-2.52-2.55,7.72,7.72,0,0,1-.86-3.58,6.71,6.71,0,0,1,1-3.64,6.18,6.18,0,0,1,2.78-2.35,9.59,9.59,0,0,1,4-.81,7.77,7.77,0,0,1,4.12,1,5.39,5.39,0,0,1,2.34,2.87l-2.13.41a4.11,4.11,0,0,0-1.66-2.12,5,5,0,0,0-2.72-.67,6.22,6.22,0,0,0-3.15.74,4.1,4.1,0,0,0-1.78,2,6.68,6.68,0,0,0-.51,2.56,6.78,6.78,0,0,0,.61,3,3.92,3.92,0,0,0,1.89,1.9,6.2,6.2,0,0,0,2.78.63,5.33,5.33,0,0,0,3.07-.86A4.27,4.27,0,0,0,272.53,268.32Z"/>
    </g>
  </g>
  <g id="ID000015">
    <g class="cls-2">
      <path class="cls-4" d="M272.53,287.16l2.17.45a6,6,0,0,1-2.45,3.32,7.82,7.82,0,0,1-4.33,1.14,9.13,9.13,0,0,1-4.3-.88,5.89,5.89,0,0,1-2.52-2.54,7.75,7.75,0,0,1-.86-3.58,6.69,6.69,0,0,1,1-3.64,6.2,6.2,0,0,1,2.78-2.36,9.59,9.59,0,0,1,4-.81,7.77,7.77,0,0,1,4.12,1,5.39,5.39,0,0,1,2.34,2.87l-2.13.41a4.11,4.11,0,0,0-1.66-2.12,5.12,5.12,0,0,0-2.72-.67,6.22,6.22,0,0,0-3.15.74,4.15,4.15,0,0,0-1.78,2,7.14,7.14,0,0,0,.1,5.54,3.92,3.92,0,0,0,1.89,1.9,6.2,6.2,0,0,0,2.78.63,5.33,5.33,0,0,0,3.07-.86A4.24,4.24,0,0,0,272.53,287.16Z"/>
    </g>
  </g>
  <g id="ID000016">
    <g class="cls-2">
      <path class="cls-4" d="M271.59,297.33h2.17v7.72a7.65,7.65,0,0,1-.56,3.2,4.18,4.18,0,0,1-2,1.92,8.38,8.38,0,0,1-3.82.74,9.35,9.35,0,0,1-3.76-.64,4.11,4.11,0,0,1-2.09-1.87,7.58,7.58,0,0,1-.62-3.35v-7.72h2.16V305a6.11,6.11,0,0,0,.4,2.56,2.61,2.61,0,0,0,1.36,1.27,5.55,5.55,0,0,0,2.36.45,5.18,5.18,0,0,0,3.4-.88c.68-.59,1-1.73,1-3.4Z"/>
    </g>
  </g>
  <g id="ID000017">
    <line class="cls-6" x1="230.4" y1="302.2" x2="258.1" y2="302.2"/>
  </g>
  <g id="ID000018">
    <line class="cls-6" x1="230.4" y1="283.4" x2="258.1" y2="283.4"/>
  </g>
  <g id="ID000019">
    <line class="cls-6" x1="230.4" y1="264.6" x2="258.1" y2="264.6"/>
  </g>
  <g id="ID000020">
    <line class="cls-6" x1="230.4" y1="264.6" x2="310" y2="264.6"/>
  </g>
  <g id="ID000021">
    <polygon class="cls-7" points="293.95 264.6 284.85 260.4 284.85 268.8 293.95 264.6"/>
  </g>
  <g id="ID000022">
    <line class="cls-6" x1="230.4" y1="245.7" x2="258.1" y2="245.7"/>
  </g>
  <g id="ID000023">
    <line class="cls-6" x1="230.1" y1="191.9" x2="275.7" y2="181.7"/>
  </g>
  <g id="ID000024">
    <polygon class="cls-8" points="242.7 189.1 242.8 189.3 242.9 189.6 243 189.8 243.2 190 243.2 190.2 243.4 190.4 243.6 190.6 243.9 190.8 244.1 190.9 244.2 191.1 244.5 191.2 244.8 191.3 245 191.5 245.3 191.6 245.6 191.6 245.8 191.7 246.1 191.8 246.4 191.8 246.7 191.8 247 191.9 247.3 191.9 247.5 191.8 247.8 191.8 248.1 191.8 248.4 191.7 248.7 191.6 249 191.6 249.3 191.5 249.5 191.3 249.7 191.2 250 191.1 250.2 190.9 250.4 190.8 250.6 190.6 250.8 190.4 251 190.2 251.1 190 251.2 189.8 251.4 189.6 251.5 189.3 251.6 189.1 251.7 188.9 251.7 188.6 251.8 188.4 251.8 188.2 251.8 187.9 251.7 187.7 251.7 187.5 251.6 187.3 251.5 187 251.4 186.8 251.3 186.6 251.2 186.4 251 186.2 250.9 186 250.7 185.7 250.5 185.5 250.3 185.4 250.2 185.2 249.9 185.1 249.6 184.9 249.3 184.8 249.2 184.7 248.9 184.6 248.6 184.5 248.3 184.5 248 184.4 247.7 184.4 247.5 184.3 247.2 184.3 246.8 184.3 246.6 184.4 246.3 184.4 246 184.5 245.7 184.5 245.4 184.6 245.1 184.7 244.9 184.8 244.7 184.9 244.4 185 244.1 185.2 244 185.3 243.8 185.5 243.6 185.7 243.4 186 243.2 186.2 243.1 186.4 243 186.6 242.8 186.8 242.7 187 242.6 187.2 242.6 187.5 242.5 187.7 242.5 187.9 242.5 188.1 242.5 188.4 242.5 188.6 242.6 188.8 242.7 189.1"/>
  </g>
  <g id="ID000025">
    <polygon class="cls-8" points="261.9 180.9 253 182.9 255.4 190.2 264.4 188.2 261.9 180.9"/>
  </g>
  <g id="ID000026">
    <line class="cls-6" x1="230.4" y1="160.9" x2="275.5" y2="160.9"/>
  </g>
  <g id="ID000027">
    <polygon class="cls-8" points="242.3 160.9 242.3 161.1 242.3 161.4 242.3 161.7 242.4 161.9 242.5 162.1 242.6 162.3 242.8 162.5 242.9 162.8 243.1 163 243.2 163.1 243.4 163.3 243.6 163.5 243.8 163.7 244.1 163.8 244.2 164 244.5 164.1 244.8 164.2 245 164.3 245.3 164.4 245.6 164.5 245.8 164.5 246.1 164.6 246.4 164.6 246.7 164.6 247 164.6 247.3 164.6 247.5 164.6 247.8 164.6 248.2 164.5 248.4 164.4 248.7 164.3 249 164.3 249.3 164.1 249.4 164 249.7 163.9 250 163.7 250.2 163.6 250.3 163.4 250.5 163.2 250.7 163 250.9 162.9 251 162.6 251.1 162.4 251.2 162.2 251.3 162 251.4 161.8 251.5 161.6 251.5 161.3 251.5 161 251.5 160.8 251.5 160.5 251.5 160.3 251.4 160.1 251.3 159.8 251.2 159.6 251.1 159.4 251 159.2 250.9 159 250.7 158.8 250.5 158.6 250.3 158.4 250.2 158.3 250 158.1 249.7 158 249.4 157.8 249.3 157.6 249 157.5 248.7 157.4 248.4 157.3 248.2 157.2 247.8 157.2 247.5 157.1 247.3 157.1 247 157.1 246.7 157.1 246.4 157.1 246.1 157.2 245.8 157.2 245.6 157.3 245.3 157.4 245 157.4 244.8 157.5 244.5 157.8 244.2 157.9 244.1 158 243.8 158.2 243.6 158.3 243.4 158.5 243.2 158.7 243.1 158.9 242.9 159.1 242.8 159.3 242.6 159.5 242.5 159.7 242.4 160 242.3 160.2 242.3 160.4 242.3 160.6 242.3 160.9"/>
  </g>
  <g id="ID000028">
    <polygon class="cls-8" points="263.5 157.1 254.3 157.1 254.3 164.6 263.5 164.6 263.5 157.1"/>
  </g>
  <g id="ID000029">
    <line class="cls-6" x1="230.4" y1="142.1" x2="275.5" y2="142.1"/>
  </g>
  <g id="ID000030">
    <polygon class="cls-8" points="242.3 142.1 242.3 142.3 242.3 142.5 242.3 142.8 242.4 143 242.5 143.2 242.6 143.4 242.8 143.7 242.9 143.9 243.1 144.1 243.2 144.3 243.4 144.5 243.6 144.7 243.8 144.9 244.1 145 244.2 145.1 244.5 145.3 244.8 145.4 245 145.5 245.3 145.6 245.6 145.7 245.8 145.7 246.1 145.8 246.4 145.8 246.7 145.8 247 145.8 247.3 145.8 247.5 145.8 247.8 145.7 248.2 145.7 248.4 145.6 248.7 145.5 249 145.4 249.3 145.3 249.4 145.2 249.7 145.1 250 144.9 250.2 144.8 250.3 144.6 250.5 144.4 250.7 144.2 250.9 144 251 143.8 251.1 143.6 251.2 143.3 251.3 143.1 251.4 142.9 251.5 142.6 251.5 142.4 251.5 142.2 251.5 141.9 251.5 141.7 251.5 141.5 251.4 141.3 251.3 141 251.2 140.8 251.1 140.6 251 140.4 250.9 140.2 250.7 139.9 250.5 139.7 250.3 139.5 250.2 139.4 250 139.2 249.7 139 249.4 138.9 249.3 138.8 249 138.7 248.7 138.6 248.4 138.5 248.2 138.4 247.8 138.4 247.5 138.3 247.3 138.3 247 138.3 246.7 138.3 246.4 138.3 246.1 138.4 245.8 138.4 245.6 138.5 245.3 138.5 245 138.6 244.8 138.7 244.5 138.8 244.2 139 244.1 139.1 243.8 139.3 243.6 139.4 243.4 139.6 243.2 139.8 243.1 140.1 242.9 140.3 242.8 140.5 242.6 140.7 242.5 140.9 242.4 141.1 242.3 141.4 242.3 141.6 242.3 141.8 242.3 142.1"/>
  </g>
  <g id="ID000031">
    <polygon class="cls-8" points="263.5 138.3 254.3 138.3 254.3 145.8 263.5 145.8 263.5 138.3"/>
  </g>
  <g id="ID000032">
    <line class="cls-6" x1="230.4" y1="118.5" x2="275.5" y2="118.5"/>
  </g>
  <g id="ID000033">
    <polygon class="cls-8" points="242.3 118.5 242.3 118.7 242.3 119 242.3 119.3 242.4 119.5 242.5 119.7 242.6 119.9 242.8 120.1 242.9 120.4 243.1 120.6 243.2 120.7 243.4 120.9 243.6 121.1 243.8 121.3 244.1 121.4 244.2 121.6 244.5 121.7 244.8 121.8 245 121.9 245.3 122 245.6 122.1 245.8 122.1 246.1 122.2 246.4 122.2 246.7 122.2 247 122.2 247.3 122.2 247.5 122.2 247.8 122.2 248.2 122.1 248.4 122 248.7 122 249 121.9 249.3 121.7 249.4 121.6 249.7 121.5 250 121.3 250.2 121.2 250.3 121 250.5 120.8 250.7 120.6 250.9 120.5 251 120.3 251.1 120 251.2 119.8 251.3 119.6 251.4 119.4 251.5 119.2 251.5 118.9 251.5 118.6 251.5 118.4 251.5 118.1 251.5 117.9 251.4 117.7 251.3 117.4 251.2 117.2 251.1 117 251 116.8 250.9 116.6 250.7 116.4 250.5 116.2 250.3 116 250.2 115.9 250 115.7 249.7 115.6 249.4 115.4 249.3 115.3 249 115.1 248.7 115 248.4 114.9 248.2 114.8 247.8 114.8 247.5 114.7 247.3 114.7 247 114.7 246.7 114.7 246.4 114.7 246.1 114.8 245.8 114.8 245.6 114.9 245.3 115 245 115 244.8 115.1 244.5 115.4 244.2 115.5 244.1 115.6 243.8 115.8 243.6 115.9 243.4 116.1 243.2 116.3 243.1 116.5 242.9 116.7 242.8 116.9 242.6 117.1 242.5 117.3 242.4 117.6 242.3 117.8 242.3 118 242.3 118.2 242.3 118.5"/>
  </g>
  <g id="ID000034">
    <polygon class="cls-8" points="263.5 114.7 254.3 114.7 254.3 122.2 263.5 122.2 263.5 114.7"/>
  </g>
  <g id="ID000035">
    <line class="cls-6" x1="230.4" y1="99.7" x2="275.5" y2="99.7"/>
  </g>
  <g id="ID000036">
    <polygon class="cls-8" points="242.3 99.7 242.3 99.9 242.3 100.1 242.3 100.4 242.4 100.6 242.5 100.8 242.6 101 242.8 101.3 242.9 101.5 243.1 101.7 243.2 101.9 243.4 102.1 243.6 102.3 243.8 102.5 244.1 102.6 244.2 102.7 244.5 102.9 244.8 103 245 103.1 245.3 103.2 245.6 103.3 245.8 103.3 246.1 103.4 246.4 103.4 246.7 103.4 247 103.4 247.3 103.4 247.5 103.4 247.8 103.3 248.2 103.3 248.4 103.2 248.7 103.1 249 103 249.3 102.9 249.4 102.8 249.7 102.7 250 102.5 250.2 102.4 250.3 102.2 250.5 102 250.7 101.8 250.9 101.6 251 101.4 251.1 101.2 251.2 100.9 251.3 100.7 251.4 100.5 251.5 100.2 251.5 100 251.5 99.8 251.5 99.5 251.5 99.3 251.5 99.1 251.4 98.9 251.3 98.6 251.2 98.4 251.1 98.2 251 98 250.9 97.8 250.7 97.6 250.5 97.3 250.3 97.1 250.2 97 250 96.8 249.7 96.6 249.4 96.5 249.3 96.4 249 96.3 248.7 96.2 248.4 96.1 248.2 96 247.8 96 247.5 95.9 247.3 95.9 247 95.9 246.7 95.9 246.4 95.9 246.1 96 245.8 96 245.6 96.1 245.3 96.1 245 96.2 244.8 96.3 244.5 96.5 244.2 96.6 244.1 96.7 243.8 96.9 243.6 97 243.4 97.2 243.2 97.4 243.1 97.7 242.9 97.9 242.8 98.1 242.6 98.3 242.5 98.5 242.4 98.7 242.3 99 242.3 99.2 242.3 99.4 242.3 99.7"/>
  </g>
  <g id="ID000037">
    <polygon class="cls-8" points="263.5 95.9 254.3 95.9 254.3 103.4 263.5 103.4 263.5 95.9"/>
  </g>
  <g id="ID000038">
    <line class="cls-6" x1="224.5" y1="79.3" x2="321.7" y2="63.5"/>
  </g>
  <g id="ID000039">
    <polygon class="cls-7" points="246.34 75.65 246.44 75.95 246.54 76.15 246.64 76.35 246.74 76.55 246.94 76.75 246.94 76.95 247.14 77.15 247.34 77.35 247.54 77.55 247.74 77.65 247.94 77.85 248.24 77.95 248.44 78.15 248.64 78.25 248.94 78.35 249.24 78.45 249.54 78.45 249.84 78.55 250.14 78.55 250.34 78.65 250.64 78.65 250.94 78.65 251.24 78.65 251.54 78.65 251.84 78.55 252.14 78.55 252.34 78.45 252.74 78.35 252.94 78.25 253.14 78.15 253.44 78.05 253.74 77.85 253.84 77.75 254.14 77.55 254.34 77.45 254.54 77.25 254.74 77.05 254.84 76.85 254.94 76.65 255.14 76.45 255.24 76.25 255.34 75.95 255.44 75.75 255.44 75.55 255.54 75.25 255.54 74.95 255.54 74.75 255.44 74.55 255.44 74.25 255.34 74.05 255.34 73.85 255.24 73.65 255.04 73.35 254.94 73.15 254.74 72.95 254.64 72.75 254.54 72.55 254.24 72.45 254.04 72.25 253.84 72.05 253.64 71.95 253.34 71.85 253.14 71.55 252.94 71.45 252.64 71.35 252.34 71.35 252.14 71.25 251.74 71.15 251.44 71.15 251.24 71.15 250.94 71.15 250.54 71.15 250.34 71.15 250.04 71.15 249.74 71.25 249.54 71.25 249.24 71.35 248.94 71.45 248.64 71.55 248.44 71.65 248.14 71.95 247.94 72.05 247.74 72.25 247.54 72.35 247.34 72.55 247.14 72.75 246.94 72.95 246.84 73.15 246.74 73.35 246.54 73.55 246.44 73.75 246.34 73.95 246.34 74.25 246.24 74.45 246.24 74.65 246.24 74.95 246.24 75.15 246.24 75.45 246.34 75.65"/>
  </g>
  <g id="ID000040">
    <polygon class="cls-7" points="265.55 68.3 256.55 69.7 258.35 77.1 267.35 75.6 265.55 68.3"/>
  </g>
  <g id="ID000042">
    <g class="cls-2">
      <path class="cls-5" d="M196.25,70.44l6.28-13.36h2.33l6.69,13.36h-2.47l-1.9-4h-6.84l-1.8,4ZM201,65h5.55l-1.71-3.7c-.52-1.12-.91-2-1.16-2.77a14.54,14.54,0,0,1-.88,2.55Z"/>
    </g>
  </g>
  <g id="ID000043">
    <g class="cls-2">
      <path class="cls-5" d="M207.78,46.88l6.28-13.35h2.33l6.69,13.35h-2.46l-1.91-4h-6.83l-1.8,4Zm4.72-5.48H218l-1.7-3.7c-.52-1.12-.91-2.05-1.16-2.77a14.58,14.58,0,0,1-.89,2.55Z"/>
    </g>
  </g>
  <g id="ID000044">
    <g class="cls-2">
      <path class="cls-5" d="M237.92,18.64l2.16.45a5.91,5.91,0,0,1-2.44,3.32,7.82,7.82,0,0,1-4.33,1.14,9.13,9.13,0,0,1-4.3-.88,5.89,5.89,0,0,1-2.52-2.54,7.75,7.75,0,0,1-.86-3.58,6.71,6.71,0,0,1,1-3.64,6.15,6.15,0,0,1,2.78-2.36,9.55,9.55,0,0,1,4-.81,7.77,7.77,0,0,1,4.12,1,5.33,5.33,0,0,1,2.33,2.87l-2.13.41A4.1,4.1,0,0,0,236,11.92a5.12,5.12,0,0,0-2.72-.66,6.2,6.2,0,0,0-3.15.73,4.12,4.12,0,0,0-1.78,2,6.64,6.64,0,0,0-.51,2.56,6.7,6.7,0,0,0,.61,3,3.92,3.92,0,0,0,1.89,1.9,6.19,6.19,0,0,0,2.77.63,5.34,5.34,0,0,0,3.08-.85A4.3,4.3,0,0,0,237.92,18.64Z"/>
    </g>
  </g>
  <g id="ID000045">
    <g class="cls-2">
      <path class="cls-9" d="M260.06,14.68h2.16V22.4a7.57,7.57,0,0,1-.56,3.19,4.2,4.2,0,0,1-2,1.93,8.35,8.35,0,0,1-3.82.74,9.38,9.38,0,0,1-3.76-.64A4.12,4.12,0,0,1,250,25.74a7.51,7.51,0,0,1-.62-3.34V14.68h2.16v7.71a6.28,6.28,0,0,0,.4,2.56,2.65,2.65,0,0,0,1.36,1.27,5.55,5.55,0,0,0,2.36.45,5.16,5.16,0,0,0,3.4-.88c.68-.59,1-1.73,1-3.4Z"/>
    </g>
  </g>
  <g id="ID000046">
    <g class="cls-2">
      <path class="cls-9" d="M331.33,41.64V40.08h6.93v5A12.86,12.86,0,0,1,335,46.59a12,12,0,0,1-3.48.52,11,11,0,0,1-4.38-.84,6.35,6.35,0,0,1-3-2.44,6.54,6.54,0,0,1-1-3.56,7.1,7.1,0,0,1,1-3.64A6.12,6.12,0,0,1,327,34.12a10.64,10.64,0,0,1,4.32-.82,10.41,10.41,0,0,1,3.21.47,5.47,5.47,0,0,1,2.25,1.31A5.3,5.3,0,0,1,338,37.26l-1.95.44a4.58,4.58,0,0,0-.91-1.6,3.94,3.94,0,0,0-1.56-.94,7,7,0,0,0-2.26-.35,8.09,8.09,0,0,0-2.56.37,4.94,4.94,0,0,0-1.75,1,4.55,4.55,0,0,0-1,1.32,5.85,5.85,0,0,0-.62,2.69,5.55,5.55,0,0,0,.75,3,4.48,4.48,0,0,0,2.19,1.78,8.06,8.06,0,0,0,3.06.59,8.55,8.55,0,0,0,2.74-.45,7.61,7.61,0,0,0,2-.94V41.64Z"/>
    </g>
  </g>
  <g id="ID000047">
    <g class="cls-2">
      <path class="cls-9" d="M335,57.08h2.17V64.8a7.6,7.6,0,0,1-.56,3.19,4.2,4.2,0,0,1-2,1.93,8.38,8.38,0,0,1-3.82.74,9.38,9.38,0,0,1-3.76-.64A4.13,4.13,0,0,1,325,68.14a7.51,7.51,0,0,1-.62-3.34V57.08h2.16v7.71a6.11,6.11,0,0,0,.4,2.56,2.69,2.69,0,0,0,1.36,1.27,5.55,5.55,0,0,0,2.36.45,5.23,5.23,0,0,0,3.4-.88c.68-.59,1-1.73,1-3.4Z"/>
    </g>
  </g>
  <g id="ID000048">
    <g class="cls-2">
      <path class="cls-9" d="M323.15,89.28l6.28-13.36h2.33l6.7,13.36H336l-1.91-4h-6.83l-1.8,4Zm4.72-5.49h5.54l-1.7-3.69c-.52-1.13-.91-2-1.16-2.77a16.06,16.06,0,0,1-.88,2.55Z"/>
    </g>
  </g>
  <g id="ID000049">
    <g class="cls-2">
      <path class="cls-9" d="M335,94.77h2.17v7.71a7.62,7.62,0,0,1-.56,3.2,4.24,4.24,0,0,1-2,1.93,8.52,8.52,0,0,1-3.82.74,9.37,9.37,0,0,1-3.76-.65,4.07,4.07,0,0,1-2.09-1.87,7.55,7.55,0,0,1-.62-3.35V94.77h2.16v7.7a6.16,6.16,0,0,0,.4,2.57,2.69,2.69,0,0,0,1.36,1.27,5.55,5.55,0,0,0,2.36.45,5.17,5.17,0,0,0,3.4-.89c.68-.59,1-1.72,1-3.4Z"/>
    </g>
  </g>
  <g id="ID000050">
    <g class="cls-2">
      <path class="cls-9" d="M335,113.61h2.17v7.72a7.6,7.6,0,0,1-.56,3.19,4.24,4.24,0,0,1-2,1.93,8.52,8.52,0,0,1-3.82.74,9.2,9.2,0,0,1-3.76-.65,4.07,4.07,0,0,1-2.09-1.87,7.51,7.51,0,0,1-.62-3.34v-7.72h2.16v7.71a6.11,6.11,0,0,0,.4,2.56,2.69,2.69,0,0,0,1.36,1.27,5.55,5.55,0,0,0,2.36.45,5.17,5.17,0,0,0,3.4-.89c.68-.59,1-1.72,1-3.39Z"/>
    </g>
  </g>
  <g id="ID000051">
    <g class="cls-2">
      <path class="cls-9" d="M288.9,137.17h2.16v7.71a7.67,7.67,0,0,1-.55,3.2,4.32,4.32,0,0,1-2,1.93,8.49,8.49,0,0,1-3.82.74,9.4,9.4,0,0,1-3.76-.65,4,4,0,0,1-2.08-1.87,7.4,7.4,0,0,1-.63-3.35v-7.71h2.17v7.7a6.36,6.36,0,0,0,.39,2.57,2.73,2.73,0,0,0,1.36,1.27,5.75,5.75,0,0,0,2.36.44,5.16,5.16,0,0,0,3.4-.88c.68-.59,1-1.72,1-3.4Z"/>
    </g>
  </g>
  <g id="ID000052">
    <g class="cls-2">
      <path class="cls-9" d="M277,127l6.28-13.35h2.33L292.3,127h-2.46l-1.91-4H281.1l-1.8,4Zm4.72-5.48h5.54l-1.7-3.7c-.52-1.12-.91-2-1.16-2.77a15.4,15.4,0,0,1-.88,2.55Z"/>
    </g>
  </g>
  <g id="ID000053">
    <g class="cls-2">
      <path class="cls-9" d="M277,108.12l6.28-13.35h2.33l6.69,13.35h-2.46l-1.91-4H281.1l-1.8,4Zm4.72-5.48h5.54l-1.7-3.7c-.52-1.12-.91-2-1.16-2.77a15.4,15.4,0,0,1-.88,2.55Z"/>
    </g>
  </g>
  <g id="ID000054">
    <g class="cls-2">
      <path class="cls-9" d="M277,89.28l6.28-13.36h2.33l6.69,13.36h-2.46l-1.91-4H281.1l-1.8,4Zm4.72-5.49h5.54l-1.7-3.69c-.52-1.13-.91-2-1.16-2.77a16.06,16.06,0,0,1-.88,2.55Z"/>
    </g>
  </g>
  <g id="ID000055">
    <g class="cls-2">
      <path class="cls-9" d="M277,70.44l6.28-13.36h2.33l6.69,13.36h-2.46l-1.91-4H281.1l-1.8,4ZM281.72,65h5.54l-1.7-3.7c-.52-1.12-.91-2-1.16-2.77a15.4,15.4,0,0,1-.88,2.55Z"/>
    </g>
  </g>
  <g id="ID000056">
    <g class="cls-2">
      <path class="cls-9" d="M277,46.88l6.28-13.35h2.33l6.69,13.35h-2.46l-1.91-4H281.1l-1.8,4Zm4.72-5.48h5.54l-1.7-3.7c-.52-1.12-.91-2.05-1.16-2.77a15.4,15.4,0,0,1-.88,2.55Z"/>
    </g>
  </g>
  <g id="ID000057">
    <line class="cls-6" x1="260.3" y1="27.52" x2="278.37" y2="60.69"/>
  </g>
  <g id="ID000058">
    <polygon class="cls-7" points="263.32 34.19 263.12 34.29 262.92 34.39 262.62 34.59 262.42 34.69 262.22 34.99 262.02 35.19 261.82 35.39 261.72 35.49 261.62 35.69 261.42 35.99 261.32 36.19 261.22 36.39 261.12 36.59 261.12 36.79 261.02 37.09 261.02 37.29 261.02 37.49 261.02 37.79 261.02 37.99 261.12 38.19 261.22 38.59 261.32 38.79 261.42 38.99 261.52 39.19 261.62 39.39 261.72 39.59 261.92 39.79 262.12 39.99 262.42 40.09 262.52 40.29 262.72 40.49 263.02 40.59 263.32 40.69 263.52 40.79 263.82 40.89 264.12 40.99 264.32 41.09 264.62 41.19 264.92 41.19 265.12 41.19 265.52 41.19 265.82 41.19 266.02 41.19 266.32 41.19 266.72 41.19 266.92 41.09 267.22 40.99 267.52 40.89 267.72 40.79 268.02 40.69 268.22 40.59 268.52 40.49 268.72 40.29 268.92 40.19 269.12 39.99 269.32 39.79 269.42 39.59 269.62 39.39 269.72 39.19 269.92 38.99 270.02 38.79 270.12 38.59 270.22 38.19 270.22 37.99 270.32 37.79 270.32 37.49 270.32 37.29 270.22 37.09 270.22 36.79 270.12 36.59 270.02 36.39 269.92 36.19 269.82 35.99 269.72 35.79 269.52 35.59 269.42 35.39 269.22 35.19 269.02 34.99 268.82 34.69 268.52 34.59 268.42 34.39 268.12 34.29 267.82 34.19 267.62 34.09 267.32 33.99 267.02 33.89 266.82 33.79 266.52 33.79 266.22 33.69 265.92 33.69 265.62 33.69 265.32 33.69 265.02 33.69 264.82 33.79 264.42 33.79 264.22 33.89 263.92 33.99 263.62 34.09 263.32 34.19"/>
  </g>
  <g id="ID000059">
    <polygon class="cls-7" points="277.04 48.33 272.54 41.73 264.44 45.43 268.94 52.03 277.04 48.33"/>
  </g>
  <g id="ID000060">
    <line class="cls-6" x1="323" y1="58" x2="292.5" y2="42.4"/>
  </g>
  <g id="ID000061">
    <polygon class="cls-7" points="303.8 48.3 303.6 48.5 303.5 48.7 303.4 48.9 303.4 49.1 303.3 49.3 303.2 49.5 303.2 49.8 303.1 50 303.1 50.2 303.1 50.5 303.2 50.7 303.2 50.9 303.3 51.2 303.4 51.4 303.4 51.7 303.5 51.9 303.7 52.1 303.9 52.3 304.1 52.5 304.3 52.7 304.4 52.9 304.6 53 304.9 53.2 305.1 53.3 305.3 53.4 305.6 53.5 305.9 53.6 306.1 53.7 306.4 53.8 306.7 53.9 306.9 53.9 307.3 53.9 307.6 54 307.8 54 308.1 53.9 308.5 53.9 308.7 53.9 309 53.8 309.3 53.7 309.5 53.7 309.8 53.6 310.1 53.4 310.4 53.3 310.5 53.2 310.8 53 311 52.9 311.2 52.7 311.3 52.5 311.5 52.3 311.7 52.1 311.9 51.9 312 51.7 312.1 51.4 312.1 51.2 312.2 51 312.3 50.7 312.3 50.5 312.3 50.3 312.3 50 312.3 49.8 312.2 49.6 312.2 49.3 312.1 49.1 312.1 48.9 312 48.7 311.8 48.5 311.6 48.3 311.5 48.1 311.3 47.8 311.2 47.6 310.9 47.5 310.7 47.3 310.4 47.2 310.3 47 310 46.9 309.7 46.8 309.5 46.7 309.2 46.6 308.9 46.6 308.6 46.5 308.3 46.5 308 46.4 307.7 46.4 307.5 46.4 307.1 46.5 306.9 46.5 306.6 46.5 306.3 46.6 306 46.7 305.8 46.8 305.5 46.9 305.2 47 305 47.1 304.8 47.3 304.5 47.4 304.3 47.6 304.2 47.8 304 48.1 303.8 48.3"/>
  </g>
  <g id="ID000062">
    <line class="cls-6" x1="321.6" y1="80.9" x2="293.8" y2="80.9"/>
  </g>
  <g id="ID000063">
    <polygon class="cls-7" points="318.3 77.1 309.1 77.1 309.1 84.6 318.3 84.6 318.3 77.1"/>
  </g>
  <g id="ID000064">
    <polygon class="cls-7" points="295.7 80.9 304.7 85.1 304.7 76.6 295.7 80.9"/>
  </g>
  <g id="ID000065">
    <line class="cls-6" x1="321.6" y1="99.7" x2="293.8" y2="99.7"/>
  </g>
  <g id="ID000066">
    <line class="cls-10" x1="330.8" y1="126.1" x2="330.8" y2="153.3"/>
  </g>
  <g id="ID000067">
    <polygon class="cls-8" points="337.7 133.5 334.2 136.6 333.1 139.7 332.5 142.8 330.8 149.1 329.1 142.8 328.5 139.7 327.3 136.6 323.9 133.5 337.7 133.5"/>
  </g>
  <g id="ID000068">
    <line class="cls-6" x1="321.6" y1="118.5" x2="293.8" y2="118.5"/>
  </g>
  <g id="ID000070">
    <g class="cls-2">
      <path class="cls-9" d="M331.33,164.12v-1.56h6.93v4.95a12.86,12.86,0,0,1-3.29,1.57,11.69,11.69,0,0,1-3.48.52,11,11,0,0,1-4.38-.84,6.35,6.35,0,0,1-3-2.44,6.54,6.54,0,0,1-1-3.56,7.1,7.1,0,0,1,1-3.64A6.12,6.12,0,0,1,327,156.6a10.64,10.64,0,0,1,4.32-.82,10.41,10.41,0,0,1,3.21.47,4.88,4.88,0,0,1,3.48,3.49l-1.95.44a4.58,4.58,0,0,0-.91-1.6,3.94,3.94,0,0,0-1.56-.94,7,7,0,0,0-2.26-.35,8.09,8.09,0,0,0-2.56.37,4.94,4.94,0,0,0-1.75,1,4.55,4.55,0,0,0-1,1.32,5.85,5.85,0,0,0-.62,2.69,5.55,5.55,0,0,0,.75,3,4.48,4.48,0,0,0,2.19,1.78,8.06,8.06,0,0,0,3.06.59,8.55,8.55,0,0,0,2.74-.45,7.31,7.31,0,0,0,2-.94v-2.49Z"/>
    </g>
  </g>
  <g id="ID000071">
    <g class="cls-2">
      <path class="cls-9" d="M335,174.85h2.17v7.72a7.65,7.65,0,0,1-.56,3.2,4.23,4.23,0,0,1-2,1.92,8.38,8.38,0,0,1-3.82.74,9.38,9.38,0,0,1-3.76-.64,4.11,4.11,0,0,1-2.09-1.87,7.58,7.58,0,0,1-.62-3.35v-7.72h2.16v7.71a6.11,6.11,0,0,0,.4,2.56,2.65,2.65,0,0,0,1.36,1.27,5.55,5.55,0,0,0,2.36.45A5.18,5.18,0,0,0,334,186c.68-.59,1-1.73,1-3.4Z"/>
    </g>
  </g>
  <g id="ID000072">
    <g class="cls-2">
      <path class="cls-9" d="M323.15,207.05l6.28-13.36h2.33l6.7,13.36H336L334.08,203h-6.83l-1.8,4.05Zm4.72-5.49h5.54l-1.7-3.69c-.52-1.13-.91-2.05-1.16-2.77a16.06,16.06,0,0,1-.88,2.55Z"/>
    </g>
  </g>
  <g id="ID000073">
    <g class="cls-2">
      <path class="cls-9" d="M336,221.21l2.17.45A6,6,0,0,1,335.7,225a7.81,7.81,0,0,1-4.32,1.14,9.07,9.07,0,0,1-4.3-.88,5.88,5.88,0,0,1-2.53-2.55,7.72,7.72,0,0,1-.86-3.58,6.66,6.66,0,0,1,1-3.63,6.06,6.06,0,0,1,2.77-2.36,9.59,9.59,0,0,1,4-.81,7.83,7.83,0,0,1,4.13,1,5.42,5.42,0,0,1,2.33,2.87l-2.13.41a4.15,4.15,0,0,0-1.65-2.12,5.06,5.06,0,0,0-2.72-.67,6.23,6.23,0,0,0-3.16.74,4.1,4.1,0,0,0-1.78,2,6.69,6.69,0,0,0-.51,2.57,6.76,6.76,0,0,0,.61,3,3.92,3.92,0,0,0,1.89,1.9,6.23,6.23,0,0,0,2.78.63,5.37,5.37,0,0,0,3.08-.86A4.22,4.22,0,0,0,336,221.21Z"/>
    </g>
  </g>
  <g id="ID000074">
    <g class="cls-2">
      <path class="cls-11" d="M328.92,287.13l6.28-13.35h2.33l6.69,13.35h-2.46l-1.91-4H333l-1.79,4Zm4.72-5.48h5.54l-1.71-3.7c-.52-1.12-.9-2.05-1.16-2.77a13.76,13.76,0,0,1-.88,2.55Z"/>
    </g>
  </g>
  <g id="ID000075">
    <g class="cls-2">
      <path class="cls-11" d="M311.62,273l6.27-13.35h2.34L326.92,273h-2.47l-1.9-4h-6.84l-1.8,4Zm4.71-5.48h5.55l-1.71-3.7c-.52-1.12-.91-2.05-1.16-2.77a14.54,14.54,0,0,1-.88,2.55Z"/>
    </g>
  </g>
  <g id="ID000076">
    <g class="cls-2">
      <path class="cls-9" d="M285.18,220.65v-1.56h6.93V224a12.86,12.86,0,0,1-3.29,1.57,12,12,0,0,1-3.48.52,11,11,0,0,1-4.38-.84,6.41,6.41,0,0,1-3-2.44,6.53,6.53,0,0,1-1-3.56,7.09,7.09,0,0,1,1-3.64,6.1,6.1,0,0,1,2.88-2.51,10.59,10.59,0,0,1,4.31-.82,10.36,10.36,0,0,1,3.21.47,4.91,4.91,0,0,1,3.49,3.49l-2,.44a4.58,4.58,0,0,0-.91-1.6,3.94,3.94,0,0,0-1.56-.94,7,7,0,0,0-2.26-.35,8.14,8.14,0,0,0-2.56.37,5.12,5.12,0,0,0-1.75,1,4.73,4.73,0,0,0-1,1.32,5.85,5.85,0,0,0-.62,2.69,5.55,5.55,0,0,0,.75,3,4.48,4.48,0,0,0,2.19,1.78,8.06,8.06,0,0,0,3.06.59,8.55,8.55,0,0,0,2.74-.45,7.61,7.61,0,0,0,2-.94v-2.49Z"/>
    </g>
  </g>
  <g id="ID000077">
    <g class="cls-2">
      <path class="cls-9" d="M288.9,193.69h2.16v7.72a7.67,7.67,0,0,1-.55,3.2,4.25,4.25,0,0,1-2,1.92,8.34,8.34,0,0,1-3.82.75,9.4,9.4,0,0,1-3.76-.65,4.09,4.09,0,0,1-2.08-1.87,7.43,7.43,0,0,1-.63-3.35v-7.72h2.17v7.71a6.27,6.27,0,0,0,.39,2.56,2.75,2.75,0,0,0,1.36,1.28,5.75,5.75,0,0,0,2.36.44,5.16,5.16,0,0,0,3.4-.88c.68-.59,1-1.72,1-3.4Z"/>
    </g>
  </g>
  <g id="ID000078">
    <g class="cls-2">
      <path class="cls-9" d="M277,188.21l6.28-13.36h2.33l6.69,13.36h-2.46l-1.91-4.05H281.1l-1.8,4.05Zm4.72-5.49h5.54l-1.7-3.7c-.52-1.12-.91-2-1.16-2.76a16.06,16.06,0,0,1-.88,2.55Z"/>
    </g>
  </g>
  <g id="ID000079">
    <g class="cls-2">
      <path class="cls-9" d="M289.84,164.68l2.16.45a5.88,5.88,0,0,1-2.45,3.32,7.81,7.81,0,0,1-4.32,1.14,9.13,9.13,0,0,1-4.3-.88,5.89,5.89,0,0,1-2.52-2.54,7.67,7.67,0,0,1-.87-3.58,6.69,6.69,0,0,1,1-3.64,6.09,6.09,0,0,1,2.78-2.36,9.54,9.54,0,0,1,4-.81,7.78,7.78,0,0,1,4.13,1,5.37,5.37,0,0,1,2.33,2.87l-2.13.41a4.15,4.15,0,0,0-1.65-2.12,5.15,5.15,0,0,0-2.72-.67,6.17,6.17,0,0,0-3.15.74,4,4,0,0,0-1.78,2,6.73,6.73,0,0,0-.51,2.57,6.91,6.91,0,0,0,.6,3,4,4,0,0,0,1.89,1.9,6.23,6.23,0,0,0,2.78.63,5.37,5.37,0,0,0,3.08-.86A4.27,4.27,0,0,0,289.84,164.68Z"/>
    </g>
  </g>
  <g id="ID000080">
    <line class="cls-6" x1="321.6" y1="160.9" x2="293.8" y2="160.9"/>
  </g>
  <g id="ID000081">
    <line class="cls-6" x1="321.6" y1="179.8" x2="293.8" y2="179.8"/>
  </g>
  <g id="ID000082">
    <line class="cls-6" x1="321.6" y1="198.6" x2="293.8" y2="198.6"/>
  </g>
  <g id="ID000083">
    <line class="cls-6" x1="321.6" y1="217.4" x2="293.8" y2="217.4"/>
  </g>
  <g id="ID000084">
    <line class="cls-10" x1="314.5" y1="258.1" x2="289.4" y2="223.9"/>
  </g>
  <g id="ID000085">
    <polygon class="cls-8" points="295.73 243.42 296.73 239.22 295.73 236.02 294.33 233.22 291.83 227.02 297.33 231.72 299.73 234.12 302.73 236.32 307.73 237.62 295.73 243.42"/>
  </g>
  <g id="ID000087">
    <g class="cls-2">
      <path class="cls-12" d="M288.9,311.46h2.16v7.72a7.67,7.67,0,0,1-.55,3.2,4.25,4.25,0,0,1-2,1.92,8.34,8.34,0,0,1-3.82.75,9.4,9.4,0,0,1-3.76-.65,4.09,4.09,0,0,1-2.08-1.87,7.43,7.43,0,0,1-.63-3.35v-7.72h2.17v7.71a6.36,6.36,0,0,0,.39,2.57,2.77,2.77,0,0,0,1.36,1.27,5.75,5.75,0,0,0,2.36.44,5.16,5.16,0,0,0,3.4-.88c.68-.59,1-1.72,1-3.4Z"/>
    </g>
  </g>
  <g id="ID000088">
    <g class="cls-2">
      <path class="cls-12" d="M285.18,338.42v-1.56h6.93v4.95a12.86,12.86,0,0,1-3.29,1.57,12,12,0,0,1-3.48.52,11,11,0,0,1-4.38-.84,6.35,6.35,0,0,1-3-2.44,6.53,6.53,0,0,1-1-3.56,7.09,7.09,0,0,1,1-3.64,6.1,6.1,0,0,1,2.88-2.51,10.59,10.59,0,0,1,4.31-.82,10.36,10.36,0,0,1,3.21.47,4.91,4.91,0,0,1,3.49,3.49l-2,.44a4.58,4.58,0,0,0-.91-1.6,3.94,3.94,0,0,0-1.56-.94,7,7,0,0,0-2.26-.35,8.14,8.14,0,0,0-2.56.37,5.12,5.12,0,0,0-1.75,1,4.73,4.73,0,0,0-1,1.32,5.85,5.85,0,0,0-.62,2.69,5.55,5.55,0,0,0,.75,3,4.48,4.48,0,0,0,2.19,1.78,8.06,8.06,0,0,0,3.06.59,8.55,8.55,0,0,0,2.74-.45,7.31,7.31,0,0,0,2-.94v-2.49Z"/>
    </g>
  </g>
  <g id="ID000089">
    <g class="cls-2">
      <path class="cls-12" d="M289.84,357.83l2.16.44a5.88,5.88,0,0,1-2.45,3.32,7.81,7.81,0,0,1-4.32,1.14,9.26,9.26,0,0,1-4.3-.87,6,6,0,0,1-2.52-2.55,7.64,7.64,0,0,1-.87-3.58,6.72,6.72,0,0,1,1-3.64,6.21,6.21,0,0,1,2.78-2.36,9.53,9.53,0,0,1,4-.8,7.78,7.78,0,0,1,4.13,1,5.34,5.34,0,0,1,2.33,2.87l-2.13.4a4.19,4.19,0,0,0-1.65-2.12,5.15,5.15,0,0,0-2.72-.66,6.07,6.07,0,0,0-3.15.74,4,4,0,0,0-1.78,2,6.68,6.68,0,0,0-.51,2.56,6.84,6.84,0,0,0,.6,3,4,4,0,0,0,1.89,1.9,6.23,6.23,0,0,0,2.78.63,5.36,5.36,0,0,0,3.08-.85A4.27,4.27,0,0,0,289.84,357.83Z"/>
    </g>
  </g>
  <g id="ID000090">
    <g class="cls-2">
      <path class="cls-12" d="M277,381.35,283.28,368h2.33l6.69,13.35h-2.46l-1.91-4H281.1l-1.8,4Zm4.72-5.48h5.54l-1.7-3.7c-.52-1.13-.91-2.05-1.16-2.77a15.73,15.73,0,0,1-.88,2.55Z"/>
    </g>
  </g>
  <g id="ID000091">
    <g class="cls-2">
      <path class="cls-12" d="M331.33,357.27V355.7h6.93v5a13.16,13.16,0,0,1-3.29,1.56,11.69,11.69,0,0,1-3.48.52,11,11,0,0,1-4.38-.84,6.34,6.34,0,0,1-3-2.43,6.57,6.57,0,0,1-1-3.57,7.1,7.1,0,0,1,1-3.64,6.1,6.1,0,0,1,2.87-2.5,10.64,10.64,0,0,1,4.32-.82,10.42,10.42,0,0,1,3.21.46,5.58,5.58,0,0,1,2.25,1.31,5.41,5.41,0,0,1,1.23,2.19l-1.95.44a4.63,4.63,0,0,0-.91-1.61,3.81,3.81,0,0,0-1.56-.93,6.74,6.74,0,0,0-2.26-.35,7.82,7.82,0,0,0-2.56.37,4.79,4.79,0,0,0-1.75,1,4.55,4.55,0,0,0-1,1.32,5.8,5.8,0,0,0-.62,2.68,5.55,5.55,0,0,0,.75,3,4.49,4.49,0,0,0,2.19,1.79,8,8,0,0,0,3.06.58,8.83,8.83,0,0,0,2.74-.44,7.94,7.94,0,0,0,2-.94v-2.49Z"/>
    </g>
  </g>
  <g id="ID000092">
    <g class="cls-2">
      <path class="cls-12" d="M336,339l2.17.45a6,6,0,0,1-2.45,3.32,7.81,7.81,0,0,1-4.32,1.14,9.07,9.07,0,0,1-4.3-.88,5.88,5.88,0,0,1-2.53-2.55,7.72,7.72,0,0,1-.86-3.58,6.66,6.66,0,0,1,1-3.63,6.06,6.06,0,0,1,2.77-2.36,9.59,9.59,0,0,1,4-.81,7.83,7.83,0,0,1,4.13,1,5.42,5.42,0,0,1,2.33,2.87l-2.13.41a4.15,4.15,0,0,0-1.65-2.12,5.06,5.06,0,0,0-2.72-.67,6.23,6.23,0,0,0-3.16.74,4.1,4.1,0,0,0-1.78,2,7.14,7.14,0,0,0,.1,5.54,3.92,3.92,0,0,0,1.89,1.9,6.23,6.23,0,0,0,2.78.63,5.37,5.37,0,0,0,3.08-.86A4.22,4.22,0,0,0,336,339Z"/>
    </g>
  </g>
  <g id="ID000093">
    <g class="cls-2">
      <path class="cls-12" d="M323.15,324.82l6.28-13.36h2.33l6.7,13.36H336l-1.91-4.05h-6.83l-1.8,4.05Zm4.72-5.49h5.54l-1.7-3.69c-.52-1.13-.91-2.05-1.16-2.77a16.06,16.06,0,0,1-.88,2.55Z"/>
    </g>
  </g>
  <g id="ID000094">
    <g class="cls-2">
      <path class="cls-11" d="M323.15,306l6.28-13.36h2.33l6.7,13.36H336l-1.91-4.05h-6.83l-1.8,4.05Zm4.72-5.49h5.54l-1.7-3.7c-.52-1.12-.91-2-1.16-2.76a16.06,16.06,0,0,1-.88,2.55Z"/>
    </g>
  </g>
  <g id="ID000095">
    <line class="cls-6" x1="293.8" y1="316.3" x2="321.6" y2="316.3"/>
  </g>
  <g id="ID000096">
    <line class="cls-6" x1="293.8" y1="335.2" x2="321.6" y2="335.2"/>
  </g>
  <g id="ID000098">
    <line class="cls-10" x1="332.87" y1="246.96" x2="275.5" y2="246.96"/>
  </g>
  <g id="ID000100">
    <polyline class="cls-10" points="265 19.5 330.8 19.5 330.8 30.9"/>
  </g>
  <g id="ID000101">
    <polygon class="cls-8" points="290.3 13.9 294 16.8 297.9 17.7 301.7 18.2 309.5 19.5 301.7 21 297.9 21.5 294 22.4 290.3 25.2 290.3 13.9"/>
  </g>
  <g id="ID000102">
    <line class="cls-10" x1="221.2" y1="238.1" x2="221.2" y2="201.4"/>
  </g>
  <g id="ID000103">
    <polygon class="cls-8" points="214.3 226.1 217.8 222.9 218.8 219.8 219.5 216.6 221.2 210.3 222.9 216.6 223.5 219.8 224.7 222.9 228.1 226.1 214.3 226.1"/>
  </g>
  <g class="cls-2">
    <path class="cls-5" d="M148.09,95.51v-15h2V93.74h7.4v1.77Z"/>
    <path class="cls-5" d="M166.05,95.51h-1.84V83.75A9.8,9.8,0,0,1,162.46,85a12.63,12.63,0,0,1-1.94,1V84.19a11,11,0,0,0,2.7-1.77,6.88,6.88,0,0,0,1.64-2h1.19Z"/>
  </g>
  <g class="cls-2">
    <path class="cls-4" d="M159.86,274.36v-15h5.68a14.43,14.43,0,0,1,2.28.14,4.72,4.72,0,0,1,1.86.7,3.64,3.64,0,0,1,1.2,1.46,4.51,4.51,0,0,1,.46,2.05,4.61,4.61,0,0,1-1.22,3.24c-.82.89-2.29,1.33-4.41,1.33h-3.86v6.11Zm2-7.88h3.89a4.11,4.11,0,0,0,2.74-.72,2.56,2.56,0,0,0,.81-2,2.72,2.72,0,0,0-.48-1.62,2.25,2.25,0,0,0-1.26-.88,8.22,8.22,0,0,0-1.85-.14h-3.85Z"/>
    <path class="cls-4" d="M180.08,274.36h-1.85V262.6a9.45,9.45,0,0,1-1.75,1.27,12.78,12.78,0,0,1-1.94,1V263a11.2,11.2,0,0,0,2.71-1.76,7.11,7.11,0,0,0,1.64-2h1.19Z"/>
  </g>
  <g class="cls-2">
    <path class="cls-9" d="M366.92,114.71v-15h5.67a13.17,13.17,0,0,1,2.29.15,4.34,4.34,0,0,1,1.85.7,3.71,3.71,0,0,1,1.21,1.45,4.89,4.89,0,0,1-.76,5.3q-1.23,1.32-4.41,1.32h-3.86v6.12Zm2-7.89h3.89a4.13,4.13,0,0,0,2.74-.72,2.55,2.55,0,0,0,.8-2,2.69,2.69,0,0,0-.47-1.61,2.22,2.22,0,0,0-1.26-.89,8.41,8.41,0,0,0-1.85-.13h-3.85Z"/>
    <path class="cls-9" d="M389.88,112.93v1.78h-9.94a3.31,3.31,0,0,1,.22-1.29,6.81,6.81,0,0,1,1.22-2,19,19,0,0,1,2.41-2.27A20.09,20.09,0,0,0,387.1,106a3.76,3.76,0,0,0,.86-2.22,2.49,2.49,0,0,0-.78-1.85,2.84,2.84,0,0,0-2.05-.75,2.88,2.88,0,0,0-2.13.8,3,3,0,0,0-.81,2.21l-1.9-.19a4.68,4.68,0,0,1,1.47-3.24,5,5,0,0,1,3.41-1.11,4.76,4.76,0,0,1,3.43,1.2,3.94,3.94,0,0,1,1.26,3,4.43,4.43,0,0,1-.37,1.77,6.92,6.92,0,0,1-1.22,1.83,29.5,29.5,0,0,1-2.85,2.65q-1.67,1.39-2.13,1.89a5.67,5.67,0,0,0-.78,1Z"/>
  </g>
  <g class="cls-2">
    <path class="cls-12" d="M374.49,343.15v-15h5.67a14.49,14.49,0,0,1,2.29.14,4.73,4.73,0,0,1,1.85.7,3.74,3.74,0,0,1,1.21,1.46,4.63,4.63,0,0,1,.45,2.05,4.57,4.57,0,0,1-1.22,3.24c-.81.89-2.28,1.33-4.41,1.33h-3.85v6.11Zm2-7.88h3.88a4.11,4.11,0,0,0,2.74-.72,2.56,2.56,0,0,0,.81-2,2.72,2.72,0,0,0-.48-1.62,2.2,2.2,0,0,0-1.25-.88,8.33,8.33,0,0,0-1.86-.14h-3.84Z"/>
    <path class="cls-12" d="M387.76,339.18l1.84-.24a4.06,4.06,0,0,0,1.08,2.26,2.69,2.69,0,0,0,1.87.69,3,3,0,0,0,2.2-.9,3.08,3.08,0,0,0,.89-2.24,2.8,2.8,0,0,0-.83-2.09,2.87,2.87,0,0,0-2.11-.83,5.16,5.16,0,0,0-1.3.21l.2-1.62.3,0a3.79,3.79,0,0,0,2.12-.62,2.11,2.11,0,0,0,1-1.9,2.25,2.25,0,0,0-.69-1.68,2.46,2.46,0,0,0-1.78-.66,2.52,2.52,0,0,0-1.79.67,3.35,3.35,0,0,0-.92,2l-1.85-.33a4.77,4.77,0,0,1,1.54-2.87,4.44,4.44,0,0,1,3-1,4.84,4.84,0,0,1,2.27.53,3.75,3.75,0,0,1,1.58,1.44,3.62,3.62,0,0,1,.55,1.93,3.17,3.17,0,0,1-.52,1.78,3.59,3.59,0,0,1-1.55,1.27,3.44,3.44,0,0,1,2.07,1.28,3.87,3.87,0,0,1,.74,2.42,4.46,4.46,0,0,1-1.43,3.34,5.07,5.07,0,0,1-3.63,1.37,4.71,4.71,0,0,1-3.29-1.18A4.57,4.57,0,0,1,387.76,339.18Z"/>
  </g>
  <g class="cls-2">
    <path class="cls-13" d="M299.65,37.58l1.28-.14a2.29,2.29,0,0,0,.75,1.32,2,2,0,0,0,1.29.41,2.22,2.22,0,0,0,1.52-.53,1.66,1.66,0,0,0,.62-1.31,1.57,1.57,0,0,0-.57-1.24,2.21,2.21,0,0,0-1.46-.48,4.3,4.3,0,0,0-.91.12l.15-.95h.2a3,3,0,0,0,1.47-.36,1.19,1.19,0,0,0,.65-1.12,1.24,1.24,0,0,0-.47-1,2.13,2.13,0,0,0-2.47,0,1.85,1.85,0,0,0-.64,1.19l-1.28-.19a2.69,2.69,0,0,1,1.07-1.69,3.42,3.42,0,0,1,2.06-.6,3.86,3.86,0,0,1,1.57.31,2.59,2.59,0,0,1,1.1.85,1.92,1.92,0,0,1,.38,1.13,1.64,1.64,0,0,1-.37,1.05,2.44,2.44,0,0,1-1.07.75,2.5,2.5,0,0,1,1.44.75,2,2,0,0,1,.51,1.42,2.45,2.45,0,0,1-1,2,3.89,3.89,0,0,1-2.51.8,3.63,3.63,0,0,1-2.27-.69A2.57,2.57,0,0,1,299.65,37.58Z"/>
  </g>
  <g class="cls-2">
    <path class="cls-13" d="M308.61,28.8V27.54H310v1a2.37,2.37,0,0,1-.22,1.16,1.89,1.89,0,0,1-.95.74l-.32-.43a1.11,1.11,0,0,0,.58-.42,1.65,1.65,0,0,0,.21-.79Z"/>
  </g>
  <g class="cls-2">
    <path class="cls-13" d="M202.81,329l1.34-.1a1.93,1.93,0,0,0,.69,1.25,2.1,2.1,0,0,0,1.31.42,2.17,2.17,0,0,0,1.56-.59,2,2,0,0,0,.64-1.57,1.83,1.83,0,0,0-.61-1.46,2.36,2.36,0,0,0-1.61-.54,2.51,2.51,0,0,0-1.11.24,2.13,2.13,0,0,0-.78.62l-1.2-.13,1-4.54h5.17v1h-4.15l-.56,2.38a3.79,3.79,0,0,1,2-.56,3.38,3.38,0,0,1,2.3.81,2.57,2.57,0,0,1,.94,2.06,2.9,2.9,0,0,1-.82,2.07,3.55,3.55,0,0,1-2.74,1.07,3.74,3.74,0,0,1-2.31-.67A2.53,2.53,0,0,1,202.81,329Z"/>
  </g>
  <g class="cls-2">
    <path class="cls-13" d="M211.77,320.16V318.9h1.37v1a2.26,2.26,0,0,1-.22,1.16,1.85,1.85,0,0,1-.95.74l-.31-.43a1.13,1.13,0,0,0,.57-.42,1.65,1.65,0,0,0,.21-.79Z"/>
  </g>
  <g>
    <path class="cls-14" d="M284.8,386.1a28.63,28.63,0,0,0,4,3.8"/>
    <path class="cls-15" d="M299.3,395.1c7.7,2.1,15.8.9,21.9-3.6a25.11,25.11,0,0,0,9.6-15.5"/>
    <path class="cls-14" d="M331.4,370.2a35.14,35.14,0,0,0-.5-5.5"/>
  </g>
  <g id="ID000058-2" data-name="ID000058">
    <g class="cls-2">
      <path d="M208.43,288.69v1h-5.85a1.85,1.85,0,0,1,.13-.73,3.9,3.9,0,0,1,.71-1.14,11.33,11.33,0,0,1,1.42-1.3,11.3,11.3,0,0,0,1.95-1.82,2.14,2.14,0,0,0,.51-1.27,1.39,1.39,0,0,0-.46-1.06,1.74,1.74,0,0,0-1.21-.43,1.69,1.69,0,0,0-1.25.46,1.74,1.74,0,0,0-.48,1.26l-1.11-.11a2.62,2.62,0,0,1,.86-1.85,3,3,0,0,1,2-.63,2.86,2.86,0,0,1,2,.68,2.22,2.22,0,0,1,.75,1.7,2.6,2.6,0,0,1-.22,1,4.29,4.29,0,0,1-.72,1A19.24,19.24,0,0,1,205.8,287c-.65.53-1.07.89-1.25,1.08a3.29,3.29,0,0,0-.46.57Z"/>
    </g>
  </g>
  <g id="ID000058-3" data-name="ID000058">
    <g class="cls-2">
      <path d="M185.58,66H184.5V59.31a5.73,5.73,0,0,1-1,.72,6.47,6.47,0,0,1-1.14.55v-1a6.54,6.54,0,0,0,1.59-1,4.06,4.06,0,0,0,1-1.15h.69Z"/>
      <path d="M194.07,65v1h-5.84a1.78,1.78,0,0,1,.12-.73,3.91,3.91,0,0,1,.72-1.15,12.21,12.21,0,0,1,1.42-1.3A11.69,11.69,0,0,0,192.44,61a2.12,2.12,0,0,0,.51-1.26,1.38,1.38,0,0,0-.47-1.06,1.67,1.67,0,0,0-1.2-.43,1.73,1.73,0,0,0-1.25.45,1.68,1.68,0,0,0-.48,1.27l-1.12-.11A2.64,2.64,0,0,1,189.3,58a3,3,0,0,1,2-.64,2.86,2.86,0,0,1,2,.69,2.23,2.23,0,0,1,.74,1.7,2.42,2.42,0,0,1-.22,1,3.8,3.8,0,0,1-.72,1.05,16.17,16.17,0,0,1-1.67,1.51q-1,.8-1.26,1.08a3.36,3.36,0,0,0-.45.58Z"/>
    </g>
  </g>
  <g id="ID000058-4" data-name="ID000058">
    <g class="cls-2">
      <path d="M347.17,183.29v1h-5.84a1.66,1.66,0,0,1,.13-.73,3.67,3.67,0,0,1,.71-1.15,12.21,12.21,0,0,1,1.42-1.3,11.69,11.69,0,0,0,2-1.82,2.12,2.12,0,0,0,.51-1.26,1.4,1.4,0,0,0-.47-1.06,1.65,1.65,0,0,0-1.2-.43,1.73,1.73,0,0,0-1.25.45,1.68,1.68,0,0,0-.48,1.27l-1.12-.11a2.64,2.64,0,0,1,.87-1.85,3,3,0,0,1,2-.64,2.84,2.84,0,0,1,2,.69,2.2,2.2,0,0,1,.74,1.7,2.58,2.58,0,0,1-.21,1,3.93,3.93,0,0,1-.73,1.05,16.17,16.17,0,0,1-1.67,1.51c-.65.54-1.07.9-1.25,1.08a3,3,0,0,0-.46.58Z"/>
      <path d="M354.05,183.29v1H348.2a1.66,1.66,0,0,1,.13-.73,3.86,3.86,0,0,1,.71-1.15,12.21,12.21,0,0,1,1.42-1.3,11.69,11.69,0,0,0,2-1.82,2.12,2.12,0,0,0,.51-1.26,1.42,1.42,0,0,0-.46-1.06,1.69,1.69,0,0,0-1.21-.43,1.6,1.6,0,0,0-1.73,1.72l-1.11-.11a2.6,2.6,0,0,1,.86-1.85,3,3,0,0,1,2-.64,2.82,2.82,0,0,1,2,.69,2.2,2.2,0,0,1,.74,1.7,2.58,2.58,0,0,1-.21,1,4.11,4.11,0,0,1-.72,1.05,17.73,17.73,0,0,1-1.68,1.51c-.65.54-1.07.9-1.25,1.08a3,3,0,0,0-.46.58Z"/>
    </g>
  </g>
  <g id="ID000058-5" data-name="ID000058">
    <g class="cls-2">
      <path d="M262.47,340.88l1.08-.14a2.37,2.37,0,0,0,.64,1.3,1.63,1.63,0,0,0,1.1.39,1.78,1.78,0,0,0,1.29-.51,1.74,1.74,0,0,0,.53-1.28,1.6,1.6,0,0,0-.49-1.2,1.7,1.7,0,0,0-1.24-.47,3.63,3.63,0,0,0-.77.11l.12-.92h.18a2.3,2.3,0,0,0,1.24-.35,1.21,1.21,0,0,0,.56-1.08,1.29,1.29,0,0,0-.41-1,1.45,1.45,0,0,0-1-.38,1.48,1.48,0,0,0-1.05.39,1.87,1.87,0,0,0-.55,1.16l-1.08-.19a2.54,2.54,0,0,1,2.66-2.22,3,3,0,0,1,1.33.3,2.14,2.14,0,0,1,.93.82,2.05,2.05,0,0,1,.33,1.11,1.8,1.8,0,0,1-.31,1,2.1,2.1,0,0,1-.91.73,2.09,2.09,0,0,1,1.22.73,2.17,2.17,0,0,1,.43,1.38,2.51,2.51,0,0,1-.84,1.91,3,3,0,0,1-2.14.78,2.8,2.8,0,0,1-1.93-.67A2.54,2.54,0,0,1,262.47,340.88Z"/>
      <path d="M269.33,338.92a7.53,7.53,0,0,1,.33-2.46,3,3,0,0,1,1-1.43,2.45,2.45,0,0,1,1.6-.5,2.77,2.77,0,0,1,1.25.27,2.43,2.43,0,0,1,.88.81,4,4,0,0,1,.55,1.27,8,8,0,0,1,.2,2,7.8,7.8,0,0,1-.32,2.44,3.08,3.08,0,0,1-.95,1.43,2.5,2.5,0,0,1-1.61.51,2.48,2.48,0,0,1-2-.89A5.5,5.5,0,0,1,269.33,338.92Zm1.12,0a5.24,5.24,0,0,0,.51,2.81,1.48,1.48,0,0,0,2.52,0,8,8,0,0,0,0-5.63,1.52,1.52,0,0,0-1.27-.7,1.41,1.41,0,0,0-1.2.61A5.39,5.39,0,0,0,270.45,338.92Z"/>
    </g>
  </g>
  <g id="ID000058-6" data-name="ID000058">
    <g class="cls-2">
      <path d="M341.47,358.1l1.09-.14a2.24,2.24,0,0,0,.64,1.29,1.61,1.61,0,0,0,1.09.4,1.83,1.83,0,0,0,1.3-.52,1.71,1.71,0,0,0,.52-1.28,1.56,1.56,0,0,0-.49-1.19,1.69,1.69,0,0,0-1.24-.48,3.09,3.09,0,0,0-.76.12l.12-.92h.17a2.33,2.33,0,0,0,1.25-.35,1.2,1.2,0,0,0,.55-1.09,1.25,1.25,0,0,0-.4-1,1.62,1.62,0,0,0-2.1,0,1.89,1.89,0,0,0-.54,1.16l-1.09-.19a2.69,2.69,0,0,1,.91-1.64,2.65,2.65,0,0,1,1.75-.59,3,3,0,0,1,1.34.3,2.35,2.35,0,0,1,.93.83,2.07,2.07,0,0,1,.32,1.1,1.75,1.75,0,0,1-.31,1,2,2,0,0,1-.91.72,2.1,2.1,0,0,1,1.22.73,2.2,2.2,0,0,1,.44,1.39,2.52,2.52,0,0,1-.85,1.91,3,3,0,0,1-2.13.78,2.88,2.88,0,0,1-1.94-.67A2.65,2.65,0,0,1,341.47,358.1Z"/>
      <path d="M348.41,352.9v-1h5.73v.82a11.52,11.52,0,0,0-1.68,2.32,13.88,13.88,0,0,0-1.28,3,11,11,0,0,0-.42,2.36h-1.11a10.21,10.21,0,0,1,.41-2.45,13,13,0,0,1,1.12-2.77,12,12,0,0,1,1.56-2.25Z"/>
    </g>
  </g>
  <g id="ID000058-7" data-name="ID000058">
    <g class="cls-2">
      <path d="M262.46,86.11,263.6,86a2,2,0,0,0,.59,1.21,1.64,1.64,0,0,0,1.11.41,1.75,1.75,0,0,0,1.33-.57,2.15,2.15,0,0,0,.54-1.53,1.91,1.91,0,0,0-.52-1.42,1.83,1.83,0,0,0-1.36-.52,1.88,1.88,0,0,0-1,.23,1.74,1.74,0,0,0-.66.6l-1-.13.85-4.41h4.4v1h-3.53l-.48,2.3a3,3,0,0,1,1.68-.53,2.68,2.68,0,0,1,2.75,2.78,3.07,3.07,0,0,1-.7,2,2.84,2.84,0,0,1-2.33,1.05,2.91,2.91,0,0,1-2-.66A2.61,2.61,0,0,1,262.46,86.11Z"/>
      <path d="M269.33,84.12a7.51,7.51,0,0,1,.33-2.45,3,3,0,0,1,1-1.43,2.45,2.45,0,0,1,1.6-.5,2.77,2.77,0,0,1,1.25.27,2.36,2.36,0,0,1,.88.81,4,4,0,0,1,.55,1.27,8,8,0,0,1,.2,2,7.43,7.43,0,0,1-.32,2.44,3.07,3.07,0,0,1-.95,1.44,2.5,2.5,0,0,1-1.61.51,2.48,2.48,0,0,1-2-.89A5.58,5.58,0,0,1,269.33,84.12Zm1.12,0a5.28,5.28,0,0,0,.51,2.82,1.48,1.48,0,0,0,2.52,0,5.28,5.28,0,0,0,.51-2.82,5.21,5.21,0,0,0-.51-2.81,1.52,1.52,0,0,0-1.27-.7,1.41,1.41,0,0,0-1.2.61A5.37,5.37,0,0,0,270.45,84.12Z"/>
    </g>
  </g>
  <g class="cls-2">
    <path d="M10.84,20.57l1.79-.16a3.94,3.94,0,0,0,.59,1.76,3.29,3.29,0,0,0,1.44,1.12,5.53,5.53,0,0,0,2.2.42,5.13,5.13,0,0,0,1.91-.32A2.63,2.63,0,0,0,20,22.51a2.08,2.08,0,0,0,.4-1.23A1.88,1.88,0,0,0,20,20.1a3,3,0,0,0-1.29-.84,25.83,25.83,0,0,0-2.54-.7,12.77,12.77,0,0,1-2.77-.89,3.89,3.89,0,0,1-1.53-1.34,3.29,3.29,0,0,1-.5-1.78,3.61,3.61,0,0,1,.62-2A3.78,3.78,0,0,1,13.8,11.1a6.77,6.77,0,0,1,2.63-.49,7.22,7.22,0,0,1,2.81.51,4,4,0,0,1,1.87,1.51,4.33,4.33,0,0,1,.7,2.25L20,15a2.88,2.88,0,0,0-1-2,3.85,3.85,0,0,0-2.49-.69,4,4,0,0,0-2.51.63,1.89,1.89,0,0,0-.78,1.52,1.64,1.64,0,0,0,.55,1.27,7.68,7.68,0,0,0,2.86,1,18.15,18.15,0,0,1,3.17.91,4.36,4.36,0,0,1,1.85,1.46,3.61,3.61,0,0,1,.59,2,4,4,0,0,1-.65,2.16,4.36,4.36,0,0,1-1.88,1.57,6.64,6.64,0,0,1-2.76.56,8.4,8.4,0,0,1-3.26-.56,4.62,4.62,0,0,1-2.06-1.71A4.84,4.84,0,0,1,10.84,20.57Z"/>
    <path d="M23.26,25.17l5.49-14.32H30.8l5.85,14.32H34.5l-1.67-4.34h-6l-1.57,4.34Zm4.13-5.88h4.85l-1.49-4c-.46-1.2-.8-2.19-1-3A18.6,18.6,0,0,1,29,15.09Z"/>
    <path d="M38.11,25.17V10.85H41L44.35,21c.31.94.54,1.65.68,2.12.17-.52.42-1.29.77-2.3l3.42-10h2.55V25.17H50v-12l-4.16,12H44.08L39.94,13V25.17Z"/>
    <path d="M53.92,20.87V19.1h5.4v1.77Z"/>
    <path d="M65.58,25.17,60,10.85h2l3.73,10.4c.29.83.55,1.62.75,2.35.22-.79.48-1.57.77-2.35l3.87-10.4h1.93L67.52,25.17Z"/>
    <path d="M80.41,25.17V10.85h6.35a8.33,8.33,0,0,1,2.91.39,3.09,3.09,0,0,1,1.59,1.36,4,4,0,0,1,.6,2.16,3.61,3.61,0,0,1-1,2.57,4.94,4.94,0,0,1-3,1.32,5,5,0,0,1,1.14.72,9.87,9.87,0,0,1,1.57,1.9L93,25.17H90.65l-1.9-3c-.55-.86-1-1.52-1.36-2a4.29,4.29,0,0,0-1-1,3,3,0,0,0-.87-.38,5.26,5.26,0,0,0-1-.07h-2.2v6.36Zm1.9-8h4.07a6.06,6.06,0,0,0,2-.27A2.17,2.17,0,0,0,89.53,16a2.34,2.34,0,0,0,.38-1.28,2.13,2.13,0,0,0-.74-1.67,3.43,3.43,0,0,0-2.33-.66H82.31Z"/>
    <path d="M94.61,12.87v-2h1.76v2Zm0,12.3V14.8h1.76V25.17Z"/>
    <path d="M100.67,25.17H99V10.85h1.76V16a3.47,3.47,0,0,1,2.84-1.4,4.3,4.3,0,0,1,1.81.39,3.69,3.69,0,0,1,1.4,1.08,5.29,5.29,0,0,1,.87,1.69,6.86,6.86,0,0,1,.31,2.11A5.93,5.93,0,0,1,106.71,24a4.11,4.11,0,0,1-3.16,1.45,3.31,3.31,0,0,1-2.88-1.53Zm0-5.27a5.36,5.36,0,0,0,.51,2.7A2.53,2.53,0,0,0,103.4,24a2.58,2.58,0,0,0,2-1,4.58,4.58,0,0,0,.83-3,4.64,4.64,0,0,0-.8-3,2.47,2.47,0,0,0-2-1,2.51,2.51,0,0,0-2,1A4.39,4.39,0,0,0,100.65,19.9Z"/>
    <path d="M109.52,20a5.35,5.35,0,0,1,1.6-4.27,4.86,4.86,0,0,1,3.26-1.15,4.68,4.68,0,0,1,3.5,1.4,5.37,5.37,0,0,1,1.35,3.88,6.9,6.9,0,0,1-.6,3.15,4.29,4.29,0,0,1-1.75,1.78,5.1,5.1,0,0,1-2.5.63A4.65,4.65,0,0,1,110.86,24,5.57,5.57,0,0,1,109.52,20Zm1.8,0a4.45,4.45,0,0,0,.87,3,2.9,2.9,0,0,0,4.37,0,4.52,4.52,0,0,0,.87-3,4.29,4.29,0,0,0-.88-2.91,2.77,2.77,0,0,0-2.17-1,2.81,2.81,0,0,0-2.19,1A4.4,4.4,0,0,0,111.32,20Z"/>
    <path d="M120.59,22.07l1.74-.27a2.45,2.45,0,0,0,.81,1.6A2.86,2.86,0,0,0,125,24a2.74,2.74,0,0,0,1.8-.5,1.47,1.47,0,0,0,.59-1.15,1.08,1.08,0,0,0-.52-.94,7.32,7.32,0,0,0-1.8-.6,15.76,15.76,0,0,1-2.68-.84,2.62,2.62,0,0,1-1.13-1,2.58,2.58,0,0,1-.39-1.39,2.67,2.67,0,0,1,.32-1.28,2.8,2.8,0,0,1,.86-1,3.54,3.54,0,0,1,1.12-.52,5.37,5.37,0,0,1,1.52-.21,6.13,6.13,0,0,1,2.15.35,3,3,0,0,1,1.36,1,3.72,3.72,0,0,1,.6,1.6l-1.72.24a1.84,1.84,0,0,0-.67-1.25,2.51,2.51,0,0,0-1.59-.45,2.86,2.86,0,0,0-1.73.4,1.15,1.15,0,0,0-.52.94.94.94,0,0,0,.22.61,1.51,1.51,0,0,0,.67.47c.18.07.69.21,1.55.45a22.15,22.15,0,0,1,2.61.81,2.66,2.66,0,0,1,1.15.93,2.55,2.55,0,0,1,.42,1.5,3,3,0,0,1-.51,1.66,3.37,3.37,0,0,1-1.48,1.2,5.41,5.41,0,0,1-2.19.42,4.89,4.89,0,0,1-3.08-.84A4,4,0,0,1,120.59,22.07Z"/>
    <path d="M133.21,25.17,130,14.8h1.82l1.65,6,.62,2.23c0-.11.2-.82.53-2.14l1.65-6.07h1.81l1.55,6,.52,2,.6-2,1.77-6h1.71L141,25.17h-1.83L137.54,19l-.4-1.77-2.1,8Z"/>
    <path d="M145.75,12.87v-2h1.75v2Zm0,12.3V14.8h1.75V25.17Z"/>
    <path d="M154,23.6l.25,1.55a6.76,6.76,0,0,1-1.33.15,3,3,0,0,1-1.48-.3,1.66,1.66,0,0,1-.74-.79,6.08,6.08,0,0,1-.22-2.08v-6h-1.29V14.8h1.29V12.23l1.75-1.06V14.8H154v1.36h-1.77v6.07a3.22,3.22,0,0,0,.09,1,.84.84,0,0,0,.31.34,1.22,1.22,0,0,0,.6.12A6.57,6.57,0,0,0,154,23.6Z"/>
    <path d="M162.5,21.37l1.73.22a4.45,4.45,0,0,1-1.45,2.8,4.19,4.19,0,0,1-2.86,1A4.47,4.47,0,0,1,156.49,24a5.67,5.67,0,0,1-1.29-4,7.24,7.24,0,0,1,.56-2.94,3.86,3.86,0,0,1,1.69-1.89,5,5,0,0,1,2.48-.63,4.31,4.31,0,0,1,2.76.86,3.9,3.9,0,0,1,1.38,2.42l-1.71.27a2.76,2.76,0,0,0-.87-1.57A2.19,2.19,0,0,0,160,16a2.73,2.73,0,0,0-2.15.95,4.47,4.47,0,0,0-.83,3,4.63,4.63,0,0,0,.8,3,2.61,2.61,0,0,0,2.09.95,2.45,2.45,0,0,0,1.73-.64A3.12,3.12,0,0,0,162.5,21.37Z"/>
    <path d="M165.74,25.17V10.85h1.75V16a3.94,3.94,0,0,1,3.11-1.43,4.08,4.08,0,0,1,2,.46,2.68,2.68,0,0,1,1.22,1.25,5.91,5.91,0,0,1,.36,2.33v6.57h-1.75V18.6a2.67,2.67,0,0,0-.58-1.92,2.1,2.1,0,0,0-1.61-.6,2.85,2.85,0,0,0-1.47.4,2.27,2.27,0,0,0-1,1.1,4.92,4.92,0,0,0-.3,1.91v5.68Z"/>
  </g>
  <g id="ID000098-2" data-name="ID000098">
    <line class="cls-10" x1="332.98" y1="247.34" x2="332.77" y2="227.02"/>
  </g>
  <g id="ID000067-2" data-name="ID000067">
    <polygon class="cls-8" points="328.18 253.07 324.94 249.69 321.8 248.72 318.68 248.24 312.31 246.79 318.54 244.84 321.62 244.12 324.67 242.8 327.63 239.28 328.18 253.07"/>
  </g>
</svg>
