<?xml version="1.0" encoding="utf-8"?>
<!-- Generator: Adobe Illustrator 26.0.0, SVG Export Plug-In . SVG Version: 6.00 Build 0)  -->
<svg version="1.1" id="图层_1" xmlns="http://www.w3.org/2000/svg" xmlns:xlink="http://www.w3.org/1999/xlink" x="0px" y="0px"
	 viewBox="0 0 400 400" style="enable-background:new 0 0 400 400;" xml:space="preserve">
<style type="text/css">
	.st0{fill:#D7EFC5;}
	.st1{fill:none;stroke:#000000;stroke-width:1.44;}
	.st2{fill:none;stroke:#5C5C5C;stroke-width:0.5;}
	.st3{fill:#D90000;stroke:#000000;stroke-width:0.72;}
	.st4{font-family:'ArialMT';}
	.st5{font-size:14.3px;}
	.st6{fill:#807B88;}
	.st7{font-size:8.94px;}
	.st8{fill:#D90000;}
	.st9{fill:#FFFFFF;stroke:#000000;stroke-width:0.72;}
	.st10{stroke:#000000;stroke-width:0.72;}
	.st11{fill:#807B88;stroke:#000000;stroke-width:0.72;}
	.st12{fill:none;stroke:#000000;stroke-width:0.72;}
	.st13{fill:none;stroke:#000000;stroke-width:0.5;}
	.st14{font-size:7.15px;}
	.st15{font-size:12px;}
	.st16{font-size:7.5px;}
	.st17{font-size:10px;}
	.st18{fill:#D90000;stroke:#251E1C;}
	.st19{fill:#FFFFFF;stroke:#251E1C;}
	.st20{font-size:20px;}
</style>
<path class="st0" d="M154.4,259h22.8v6.4h-22.8V259z"/>
<path class="st1" d="M163.4,262.2h4.9"/>
<path class="st0" d="M154.4,250h22.8v6.4h-22.8V250z"/>
<path class="st1" d="M163.4,253.2h4.9"/>
<path class="st0" d="M154.4,241h22.8v6.4h-22.8V241z"/>
<path class="st1" d="M163.4,244.2h4.9"/>
<path class="st1" d="M163.4,235.2h4.9"/>
<path class="st0" d="M154.4,223h22.8v6.4h-22.8V223z"/>
<path class="st1" d="M163.4,226.2h4.9"/>
<path class="st1" d="M163.4,217.2h4.9"/>
<path class="st1" d="M163.4,208.2h4.9"/>
<path class="st0" d="M154.4,196h22.8v6.4h-22.8V196z"/>
<path class="st1" d="M163.4,199.2h4.9"/>
<path class="st0" d="M136.2,163.1L136.2,163.1l18.4-16.6l5.5,5.4l-18.4,16.6L136.2,163.1z"/>
<path class="st1" d="M146.4,159.1l3.5-3.2"/>
<path class="st0" d="M129.6,156.6L129.6,156.6L148,140l5.5,5.4L135.1,162L129.6,156.6z"/>
<path class="st1" d="M139.8,152.6l3.5-3.2"/>
<path class="st0" d="M123,150.1L123,150.1l18.4-16.6l5.5,5.4l-18.4,16.6L123,150.1z"/>
<path class="st1" d="M133.1,146.1l3.5-3.2"/>
<path class="st0" d="M116.4,143.6L116.4,143.6l18.4-16.7l5.5,5.4L121.9,149L116.4,143.6z"/>
<path class="st1" d="M126.6,139.6l3.5-3.2"/>
<path class="st0" d="M109.8,137.1L109.8,137.1l18.4-16.7l5.5,5.4l-18.4,16.6L109.8,137.1z"/>
<path class="st1" d="M120,133.1l3.5-3.2"/>
<path class="st1" d="M98.4,111.8l3.5-3.2"/>
<path class="st0" d="M81.6,109.3L81.6,109.3L100,92.7l5.5,5.4l-18.4,16.7L81.6,109.3z"/>
<path class="st1" d="M91.8,105.3l3.5-3.2"/>
<path class="st0" d="M75,102.8L75,102.8l18.4-16.7l5.5,5.4l-18.4,16.7L75,102.8z"/>
<path class="st1" d="M85.2,98.8l3.5-3.2"/>
<path class="st0" d="M159.4,145.4L159.4,145.4l23.5,4l-1.4,7.4l-23.5-4L159.4,145.4z"/>
<path class="st1" d="M168,150.7l4.8,0.8"/>
<path class="st1" d="M169.7,141.9l4.8,0.8"/>
<path class="st1" d="M171.4,133l4.8,0.8"/>
<path class="st1" d="M173.1,124.1l4.8,0.8"/>
<path class="st1" d="M174.8,115.3l4.8,0.8"/>
<path class="st0" d="M167.9,101.1L167.9,101.1l23.5,4l-1.4,7.4l-23.5-4L167.9,101.1z"/>
<path class="st1" d="M176.5,106.4l4.8,0.8"/>
<path class="st0" d="M169.6,92.2L169.6,92.2l23.5,4l-1.4,7.4l-23.5-4L169.6,92.2z"/>
<path class="st1" d="M178.2,97.5l4.8,0.8"/>
<path class="st0" d="M171.3,83.3L171.3,83.3l23.5,4l-1.4,7.4l-23.5-4L171.3,83.3z"/>
<path class="st1" d="M179.9,88.7l4.8,0.8"/>
<path class="st0" d="M173,74.5L173,74.5l23.5,4l-1.5,7.4l-23.5-4L173,74.5z"/>
<path class="st1" d="M181.6,79.8l4.8,0.8"/>
<path class="st0" d="M174.7,65.6L174.7,65.6l23.5,4l-1.4,7.4l-23.5-4L174.7,65.6z"/>
<path class="st1" d="M183.3,70.9l4.8,0.8"/>
<path class="st0" d="M197.2,181.7L197.2,181.7L182.4,201l-6.4-4.4l14.8-19.3L197.2,181.7z"/>
<path class="st1" d="M188,187.3l-2.9,3.7"/>
<path class="st0" d="M217,195.3L217,195.3l-14.8,19.3l-6.4-4.4l14.8-19.3L217,195.3z"/>
<path class="st1" d="M207.8,200.9l-2.8,3.8"/>
<path class="st0" d="M224.7,200.6L224.7,200.6l-14.8,19.3l-6.4-4.4l14.8-19.3L224.7,200.6z"/>
<path class="st1" d="M215.6,206.1l-2.9,3.8"/>
<path class="st0" d="M232.5,205.9L232.5,205.9l-14.8,19.3l-6.4-4.4l14.8-19.3L232.5,205.9z"/>
<path class="st1" d="M223.3,211.4l-2.9,3.8"/>
<path class="st0" d="M240.2,211.1L240.2,211.1l-14.8,19.3L219,226l14.8-19.3L240.2,211.1z"/>
<path class="st1" d="M231,216.7l-2.9,3.8"/>
<path class="st0" d="M247.9,216.4L247.9,216.4l-14.8,19.3l-6.4-4.4l14.8-19.3L247.9,216.4z"/>
<path class="st1" d="M238.7,222l-2.9,3.8"/>
<path class="st0" d="M255.6,221.7L255.6,221.7L240.8,241l-6.4-4.4l14.8-19.3L255.6,221.7z"/>
<path class="st1" d="M246.4,227.3l-2.9,3.7"/>
<path class="st2" d="M65.2,97.3c-3.8-8,0.1-17.3,8.6-20.9s18.4,0.1,22.1,8.1c0.3,0.6,0.5,1.2,0.7,1.8"/>
<path class="st2" d="M189.7,176.4c6.4-7.2,17.2-8.2,24.8-2.4c6.9,5.1,8.6,14.8,3.7,21.9"/>
<path class="st3" d="M161.4,262.2c0.1,1.8-1.3,3.3-3,3.4c-1.8,0.1-3.3-1.3-3.4-3c-0.1-1.8,1.3-3.3,3-3.4c0.1,0,0.1,0,0.2,0
	C159.9,259.2,161.3,260.5,161.4,262.2z"/>
<path class="st3" d="M161.4,253.2c0.1,1.8-1.3,3.3-3,3.4c-1.8,0.1-3.3-1.3-3.4-3c-0.1-1.8,1.3-3.3,3-3.4c0.1,0,0.1,0,0.2,0
	C159.9,250.1,161.3,251.5,161.4,253.2z"/>
<g id="text1002">
	<text transform="matrix(1.06 0 0 1 154.71 247.4297)" class="st4 st5">   </text>
	<text transform="matrix(1.06 0 0 1 154.71 247.4297)" class="st6 st4 st7">C</text>
</g>
<g id="text1004">
	<text transform="matrix(1.06 0 0 1 154.71 238.4199)" class="st4 st5">   </text>
	<text transform="matrix(1.06 0 0 1 154.71 238.4199)" class="st4 st7">U</text>
</g>
<g id="text1006">
	<text transform="matrix(1.06 0 0 1 154.71 229.4102)" class="st4 st5">   </text>
	<text transform="matrix(1.06 0 0 1 154.71 229.4102)" class="st6 st4 st7">U</text>
</g>
<g id="text1008">
	<text transform="matrix(1.06 0 0 1 154.9697 220.4004)" class="st4 st5">   </text>
	<text transform="matrix(1.06 0 0 1 154.9697 220.4004)" class="st8 st4 st7">A</text>
</g>
<g id="text1010">
	<text transform="matrix(1.06 0 0 1 154.71 211.3896)" class="st4 st5">   </text>
	<text transform="matrix(1.06 0 0 1 154.71 211.3896)" class="st8 st4 st7">U</text>
</g>
<g id="text1012">
	<text transform="matrix(1.06 0 0 1 154.71 202.3799)" class="st4 st5">   </text>
	<text transform="matrix(1.06 0 0 1 154.71 202.3799)" class="st6 st4 st7">C</text>
</g>
<path class="st3" d="M152.9,195.1c0.1,1.8-1.2,3.3-3,3.5c-1.8,0.1-3.3-1.2-3.5-3c-0.1-1.8,1.2-3.3,3-3.5c0.1,0,0.2,0,0.2,0
	C151.3,192,152.8,193.4,152.9,195.1z"/>
<g id="text1014">
	<text transform="matrix(1.06 0 0 1 140.0498 191.6299)" class="st4 st5">   </text>
	<text transform="matrix(1.06 0 0 1 140.0498 191.6299)" class="st4 st7">A</text>
</g>
<g id="text1016">
	<text transform="matrix(1.06 0 0 1 135.96 183.27)" class="st4 st5">   </text>
	<text transform="matrix(1.06 0 0 1 135.96 183.27)" class="st8 st4 st7">G</text>
</g>
<g id="text1018">
	<text transform="matrix(1.06 0 0 1 136.2598 174.2598)" class="st4 st5">   </text>
	<text transform="matrix(1.06 0 0 1 136.2598 174.2598)" class="st8 st4 st7">A</text>
</g>
<g id="text1020">
	<text transform="matrix(1.06 0 0 1 138.8701 165.75)" class="st4 st5">   </text>
	<text transform="matrix(1.06 0 0 1 138.8701 165.75)" class="st6 st4 st7">G</text>
</g>
<path class="st3" d="M139.2,156c0.1,1.8-1.2,3.3-3,3.5c-1.8,0.1-3.3-1.2-3.5-3c-0.1-1.8,1.2-3.3,3-3.5c0.1,0,0.2,0,0.2,0
	C137.7,152.9,139.1,154.3,139.2,156z"/>
<g id="text1022">
	<text transform="matrix(1.06 0 0 1 125.6699 152.7402)" class="st4 st5">   </text>
	<text transform="matrix(1.06 0 0 1 125.6699 152.7402)" class="st6 st4 st7">G</text>
</g>
<g id="text1024">
	<text transform="matrix(1.06 0 0 1 119.0698 146.2402)" class="st4 st5">   </text>
	<text transform="matrix(1.06 0 0 1 119.0698 146.2402)" class="st6 st4 st7">G</text>
</g>
<g id="text1026">
	<text transform="matrix(1.06 0 0 1 112.9902 139.73)" class="st4 st5">   </text>
	<text transform="matrix(1.06 0 0 1 112.9902 139.73)" class="st4 st7">Y</text>
</g>
<g id="text1028">
	<text transform="matrix(1.06 0 0 1 103.2002 139.98)" class="st4 st5">   </text>
	<text transform="matrix(1.06 0 0 1 103.2002 139.98)" class="st6 st4 st7">R</text>
</g>
<g id="text1030">
	<text transform="matrix(1.06 0 0 1 94.7002 135.4302)" class="st4 st5">   </text>
	<text transform="matrix(1.06 0 0 1 94.7002 135.4302)" class="st8 st4 st7">G</text>
</g>
<g id="text1032">
	<text transform="matrix(1.06 0 0 1 90.77 127.4702)" class="st4 st5">   </text>
	<text transform="matrix(1.06 0 0 1 90.77 127.4702)" class="st8 st4 st7">A</text>
</g>
<g id="text1034">
	<text transform="matrix(1.06 0 0 1 90.8999 118.48)" class="st4 st5">   </text>
	<text transform="matrix(1.06 0 0 1 90.8999 118.48)" class="st8 st4 st7">G</text>
</g>
<g id="text1036">
	<text transform="matrix(1.06 0 0 1 84.2998 111.9702)" class="st4 st5">   </text>
	<text transform="matrix(1.06 0 0 1 84.2998 111.9702)" class="st4 st7">G</text>
</g>
<g id="text1038">
	<text transform="matrix(1.06 0 0 1 77.7002 105.4702)" class="st4 st5">   </text>
	<text transform="matrix(1.06 0 0 1 77.7002 105.4702)" class="st4 st7">G</text>
</g>
<g id="text1040">
	<text transform="matrix(1.06 0 0 1 69.23 102.4702)" class="st4 st5">   </text>
	<text transform="matrix(1.06 0 0 1 69.23 102.4702)" class="st4 st7">A</text>
</g>
<g id="text1042">
	<text transform="matrix(1.06 0 0 1 65.3799 94.23)" class="st4 st5">   </text>
	<text transform="matrix(1.06 0 0 1 65.3799 94.23)" class="st6 st4 st7">Y</text>
</g>
<path class="st3" d="M75.5,82.7c0.1,1.8-1.2,3.3-3,3.5c-1.8,0.1-3.3-1.2-3.5-3c-0.1-1.8,1.2-3.3,3-3.5c0.1,0,0.2,0,0.2,0
	C74,79.7,75.4,81,75.5,82.7z"/>
<g id="text1044">
	<text transform="matrix(1.06 0 0 1 77.4902 82.77)" class="st4 st5">   </text>
	<text transform="matrix(1.06 0 0 1 77.4902 82.77)" class="st4 st7">G</text>
</g>
<g id="text1046">
	<text transform="matrix(1.06 0 0 1 86.04 86.75)" class="st4 st5">   </text>
	<text transform="matrix(1.06 0 0 1 86.04 86.75)" class="st4 st7">G</text>
</g>
<g id="text1048">
	<text transform="matrix(1.06 0 0 1 89.1001 95.3701)" class="st4 st5">   </text>
	<text transform="matrix(1.06 0 0 1 89.1001 95.3701)" class="st4 st7">C</text>
</g>
<g id="text1050">
	<text transform="matrix(1.06 0 0 1 95.7002 101.8701)" class="st4 st5">   </text>
	<text transform="matrix(1.06 0 0 1 95.7002 101.8701)" class="st4 st7">C</text>
</g>
<g id="text1052">
	<text transform="matrix(1.06 0 0 1 102.2998 108.3799)" class="st4 st5">   </text>
	<text transform="matrix(1.06 0 0 1 102.2998 108.3799)" class="st8 st4 st7">C</text>
</g>
<path class="st3" d="M114.9,98.1c0.1,1.8-1.2,3.3-3,3.5s-3.3-1.2-3.5-3c-0.1-1.8,1.2-3.3,3-3.5c0.1,0,0.1,0,0.2,0
	C113.4,95.1,114.8,96.4,114.9,98.1z"/>
<g id="text1054">
	<text transform="matrix(1.06 0 0 1 117.2798 98.4302)" class="st4 st5">   </text>
	<text transform="matrix(1.06 0 0 1 117.2798 98.4302)" class="st6 st4 st7">R</text>
</g>
<g id="text1056">
	<text transform="matrix(1.06 0 0 1 126.54 100.5601)" class="st4 st5">   </text>
	<text transform="matrix(1.06 0 0 1 126.54 100.5601)" class="st6 st4 st7">U</text>
</g>
<g id="text1058">
	<text transform="matrix(1.06 0 0 1 132.8799 107.0698)" class="st4 st5">   </text>
	<text transform="matrix(1.06 0 0 1 132.8799 107.0698)" class="st8 st4 st7">G</text>
</g>
<g id="text1060">
	<text transform="matrix(1.06 0 0 1 135.27 115.8999)" class="st4 st5">   </text>
	<text transform="matrix(1.06 0 0 1 135.27 115.8999)" class="st8 st4 st7">A</text>
</g>
<g id="text1062">
	<text transform="matrix(1.06 0 0 1 131.8198 124.2998)" class="st4 st5">   </text>
	<text transform="matrix(1.06 0 0 1 131.8198 124.2998)" class="st6 st4 st7">A</text>
</g>
<g id="text1064">
	<text transform="matrix(1.06 0 0 1 123.8701 129.6299)" class="st4 st5">   </text>
	<text transform="matrix(1.06 0 0 1 123.8701 129.6299)" class="st4 st7">R</text>
</g>
<g id="text1066">
	<text transform="matrix(1.06 0 0 1 130.4697 136.1401)" class="st4 st5">   </text>
	<text transform="matrix(1.06 0 0 1 130.4697 136.1401)" class="st6 st4 st7">C</text>
</g>
<g id="text1068">
	<text transform="matrix(1.06 0 0 1 137.0698 142.6401)" class="st4 st5">   </text>
	<text transform="matrix(1.06 0 0 1 137.0698 142.6401)" class="st6 st4 st7">C</text>
</g>
<path class="st9" d="M150.3,145.9c0.1,1.8-1.2,3.3-3,3.5c-1.8,0.1-3.3-1.2-3.5-3c-0.1-1.8,1.2-3.3,3-3.5c0.1,0,0.2,0,0.2,0
	C148.8,142.9,150.2,144.2,150.3,145.9z"/>
<g id="text1070">
	<text transform="matrix(1.06 0 0 1 150.27 155.6499)" class="st4 st5">   </text>
	<text transform="matrix(1.06 0 0 1 150.27 155.6499)" class="st6 st4 st7">C</text>
</g>
<g id="text1072">
	<text transform="matrix(1.06 0 0 1 159.3999 153.0498)" class="st4 st5">   </text>
	<text transform="matrix(1.06 0 0 1 159.3999 153.0498)" class="st8 st4 st7">R</text>
</g>
<g id="text1074">
	<text transform="matrix(1.06 0 0 1 160.8301 144.1802)" class="st4 st5">   </text>
	<text transform="matrix(1.06 0 0 1 160.8301 144.1802)" class="st8 st4 st7">G</text>
</g>
<g id="text1076">
	<text transform="matrix(1.06 0 0 1 162.7998 135.3101)" class="st4 st5">   </text>
	<text transform="matrix(1.06 0 0 1 162.7998 135.3101)" class="st8 st4 st7">C</text>
</g>
<g id="text1078">
	<text transform="matrix(1.06 0 0 1 164.7598 126.4502)" class="st4 st5">   </text>
	<text transform="matrix(1.06 0 0 1 164.7598 126.4502)" class="st8 st4 st7">A</text>
</g>
<g id="text1080">
	<text transform="matrix(1.06 0 0 1 157.48 120.6201)" class="st4 st5">   </text>
	<text transform="matrix(1.06 0 0 1 157.48 120.6201)" class="st4 st7">A</text>
</g>
<g id="text1082">
	<text transform="matrix(1.06 0 0 1 166.2002 117.5801)" class="st4 st5">   </text>
	<text transform="matrix(1.06 0 0 1 166.2002 117.5801)" class="st8 st4 st7">C</text>
</g>
<g id="text1084">
	<text transform="matrix(1.06 0 0 1 167.8901 108.71)" class="st4 st5">   </text>
	<text transform="matrix(1.06 0 0 1 167.8901 108.71)" class="st6 st4 st7">C</text>
</g>
<path class="st10" d="M176.2,96.6c0.1,1.8-1.2,3.3-3,3.5c-1.8,0.1-3.3-1.2-3.5-3c-0.1-1.8,1.2-3.3,3-3.5c0.1,0,0.2,0,0.3,0
	C174.7,93.6,176.1,94.9,176.2,96.6z"/>
<path class="st3" d="M177.9,87.8c-0.1,1.8-1.6,3.1-3.4,3c-1.6-0.1-3-1.4-3-3l0,0c0.1-1.8,1.6-3.1,3.4-3
	C176.5,84.8,177.8,86.1,177.9,87.8z"/>
<g id="text1086">
	<text transform="matrix(1.06 0 0 1 173.25 82.1099)" class="st4 st5">   </text>
	<text transform="matrix(1.06 0 0 1 173.25 82.1099)" class="st6 st4 st7">Y</text>
</g>
<path class="st3" d="M181.3,70c0.1,1.8-1.2,3.3-3,3.5c-1.8,0.1-3.3-1.2-3.5-3s1.2-3.3,3-3.5c0.1,0,0.2,0,0.2,0
	C179.8,67,181.3,68.3,181.3,70z"/>
<path class="st3" d="M176.6,62.2c0.1,1.8-1.2,3.3-3,3.5c-1.8,0.1-3.3-1.2-3.5-3c-0.1-1.8,1.2-3.3,3-3.5c0.1,0,0.2,0,0.2,0
	C175.1,59.2,176.5,60.5,176.6,62.2z"/>
<path class="st3" d="M177.8,53.3c0.1,1.8-1.2,3.3-3,3.5c-1.8,0.1-3.3-1.2-3.5-3c-0.1-1.8,1.2-3.3,3-3.5c0.1,0,0.1,0,0.2,0
	C176.2,50.2,177.7,51.6,177.8,53.3z"/>
<path class="st10" d="M184.4,46.8c0.1,1.8-1.2,3.3-3,3.5c-1.8,0.1-3.3-1.2-3.5-3s1.2-3.3,3-3.5c0.1,0,0.2,0,0.2,0
	C182.9,43.8,184.4,45.1,184.4,46.8z"/>
<path class="st9" d="M193.9,45.5c0.1,1.8-1.2,3.3-3,3.5c-1.8,0.1-3.3-1.2-3.5-3c-0.1-1.8,1.2-3.3,3-3.5c0.1,0,0.2,0,0.2,0
	C192.4,42.5,193.8,43.8,193.9,45.5z"/>
<path class="st9" d="M202.2,49.9c0.1,1.8-1.2,3.3-3,3.5c-1.8,0.1-3.3-1.2-3.5-3s1.2-3.3,3-3.5c0.1,0,0.2,0,0.2,0
	C200.7,46.8,202.1,48.2,202.2,49.9z"/>
<path class="st11" d="M206.1,58.1c0.1,1.8-1.2,3.3-3,3.5c-1.8,0.1-3.3-1.2-3.5-3c-0.1-1.8,1.2-3.3,3-3.5c0.1,0,0.1,0,0.2,0
	C204.6,55.1,206,56.4,206.1,58.1z"/>
<path class="st11" d="M203.9,66.9c0.1,1.8-1.2,3.3-3,3.5c-1.8,0.1-3.3-1.2-3.5-3s1.2-3.3,3-3.5c0.1,0,0.2,0,0.2,0
	C202.4,63.9,203.8,65.2,203.9,66.9z"/>
<path class="st11" d="M196.5,72.6c0.1,1.8-1.2,3.3-3,3.5c-1.8,0.1-3.3-1.2-3.5-3s1.2-3.3,3-3.5c0.1,0,0.2,0,0.2,0
	C195,69.6,196.4,70.9,196.5,72.6z"/>
<g id="text1088">
	<text transform="matrix(1.06 0 0 1 188.1802 84.71)" class="st4 st5">   </text>
	<text transform="matrix(1.06 0 0 1 188.1802 84.71)" class="st6 st4 st7">R</text>
</g>
<path class="st10" d="M193.1,90.4c0.1,1.8-1.3,3.3-3,3.4c-1.8,0.1-3.3-1.3-3.4-3c-0.1-1.8,1.3-3.3,3-3.4c0.1,0,0.1,0,0.2,0
	C191.6,87.3,193.1,88.6,193.1,90.4z"/>
<path class="st10" d="M191.4,99.2c0.1,1.8-1.2,3.3-3,3.5c-1.8,0.1-3.3-1.2-3.5-3s1.2-3.3,3-3.5c0.1,0,0.2,0,0.2,0
	C189.9,96.2,191.3,97.5,191.4,99.2z"/>
<g id="text1090">
	<text transform="matrix(1.06 0 0 1 194.4199 104.0498)" class="st4 st5">   </text>
	<text transform="matrix(1.06 0 0 1 194.4199 104.0498)" class="st6 st4 st7">A</text>
</g>
<path class="st9" d="M199.1,109.7c0.1,1.8-1.2,3.3-3,3.5c-1.8,0.1-3.3-1.2-3.5-3s1.2-3.3,3-3.5c0.1,0,0.2,0,0.2,0
	C197.6,106.7,199,108,199.1,109.7z"/>
<g id="text1092">
	<text transform="matrix(1.06 0 0 1 182.8198 111.3101)" class="st4 st5">   </text>
	<text transform="matrix(1.06 0 0 1 182.8198 111.3101)" class="st6 st4 st7">G</text>
</g>
<g id="text1094">
	<text transform="matrix(1.06 0 0 1 181.1201 120.1802)" class="st4 st5">   </text>
	<text transform="matrix(1.06 0 0 1 181.1201 120.1802)" class="st8 st4 st7">G</text>
</g>
<g id="text1096">
	<text transform="matrix(1.06 0 0 1 179.6802 129.0498)" class="st4 st5">   </text>
	<text transform="matrix(1.06 0 0 1 179.6802 129.0498)" class="st8 st4 st7">U</text>
</g>
<g id="text1098">
	<text transform="matrix(1.06 0 0 1 177.7197 137.9102)" class="st4 st5">   </text>
	<text transform="matrix(1.06 0 0 1 177.7197 137.9102)" class="st8 st4 st7">G</text>
</g>
<g id="text1100">
	<text transform="matrix(1.06 0 0 1 176.29 146.7798)" class="st4 st5">   </text>
	<text transform="matrix(1.06 0 0 1 176.29 146.7798)" class="st8 st4 st7">C</text>
</g>
<g id="text1102">
	<text transform="matrix(1.06 0 0 1 174.8501 155.6499)" class="st4 st5">   </text>
	<text transform="matrix(1.06 0 0 1 174.8501 155.6499)" class="st8 st4 st7">Y</text>
</g>
<g id="text1104">
	<text transform="matrix(1.06 0 0 1 182.4302 161.1099)" class="st4 st5">   </text>
	<text transform="matrix(1.06 0 0 1 182.4302 161.1099)" class="st8 st4 st7">A</text>
</g>
<g id="text1106">
	<text transform="matrix(1.06 0 0 1 187.5098 168.7402)" class="st4 st5">   </text>
	<text transform="matrix(1.06 0 0 1 187.5098 168.7402)" class="st4 st7">A</text>
</g>
<path class="st3" d="M195.8,174.4c0.1,1.8-1.2,3.3-3,3.5c-1.8,0.1-3.3-1.2-3.5-3c-0.1-1.8,1.2-3.3,3-3.5c0.1,0,0.2,0,0.2,0
	C194.3,171.3,195.7,172.6,195.8,174.4z"/>
<g id="text1108">
	<text transform="matrix(1.06 0 0 1 187.7002 186.4702)" class="st4 st5">   </text>
	<text transform="matrix(1.06 0 0 1 187.7002 186.4702)" class="st6 st4 st7">U</text>
</g>
<g id="text1110">
	<text transform="matrix(1.06 0 0 1 193.71 179.48)" class="st4 st5">   </text>
	<text transform="matrix(1.06 0 0 1 193.71 179.48)" class="st6 st4 st7">C</text>
</g>
<g id="text1112">
	<text transform="matrix(1.06 0 0 1 203.1699 178.3101)" class="st4 st5">   </text>
	<text transform="matrix(1.06 0 0 1 203.1699 178.3101)" class="st6 st4 st7">C</text>
</g>
<path class="st3" d="M217.5,180.4c0.1,1.8-1.2,3.3-3,3.5c-1.8,0.1-3.3-1.2-3.5-3c-0.1-1.8,1.2-3.3,3-3.5c0.1,0,0.1,0,0.2,0
	C216,177.3,217.5,178.7,217.5,180.4z"/>
<g id="text1114">
	<text transform="matrix(1.06 0 0 1 212.6499 192.4502)" class="st4 st5">   </text>
	<text transform="matrix(1.06 0 0 1 212.6499 192.4502)" class="st6 st4 st7">R</text>
</g>
<g id="text1116">
	<text transform="matrix(1.06 0 0 1 207.5 200.0303)" class="st4 st5">   </text>
	<text transform="matrix(1.06 0 0 1 207.5 200.0303)" class="st6 st4 st7">C</text>
</g>
<path class="st10" d="M221.9,202.1c0.1,1.8-1.2,3.3-3,3.5c-1.8,0.1-3.3-1.2-3.5-3c-0.1-1.8,1.2-3.3,3-3.5c0.1,0,0.2,0,0.2,0
	C220.4,199.1,221.8,200.4,221.9,202.1z"/>
<g id="text1118">
	<text transform="matrix(1.06 0 0 1 222.9399 210.6104)" class="st4 st5">   </text>
	<text transform="matrix(1.06 0 0 1 222.9399 210.6104)" class="st6 st4 st7">R</text>
</g>
<path class="st10" d="M237.3,212.7c0.1,1.8-1.3,3.3-3,3.4c-1.8,0.1-3.3-1.3-3.4-3c-0.1-1.8,1.3-3.3,3-3.4c0.1,0,0.1,0,0.2,0
	C235.8,209.6,237.3,211,237.3,212.7z"/>
<path class="st10" d="M245,218c0.1,1.8-1.3,3.3-3,3.4c-1.8,0.1-3.3-1.3-3.4-3c-0.1-1.8,1.3-3.3,3-3.4c0.1,0,0.1,0,0.2,0
	C243.5,214.9,244.9,216.3,245,218L245,218z"/>
<path class="st9" d="M252.7,223.3c0.1,1.8-1.2,3.3-3,3.5c-1.8,0.1-3.3-1.2-3.5-3c-0.1-1.8,1.2-3.3,3-3.5c0.1,0,0.2,0,0.2,0
	C251.2,220.2,252.7,221.5,252.7,223.3z"/>
<path class="st9" d="M262.1,224.7c0.1,1.8-1.2,3.3-3,3.5c-1.8,0.1-3.3-1.2-3.5-3c-0.1-1.8,1.2-3.3,3-3.5c0.1,0,0.2,0,0.2,0
	C260.6,221.7,262.1,223,262.1,224.7z"/>
<path class="st9" d="M267.5,232.2c0.1,1.8-1.2,3.3-3,3.5c-1.8,0.1-3.3-1.2-3.5-3c-0.1-1.8,1.2-3.3,3-3.5c0.1,0,0.2,0,0.2,0
	C266,229.1,267.4,230.4,267.5,232.2z"/>
<path class="st11" d="M265.4,241c0.1,1.8-1.3,3.3-3,3.4c-1.8,0.1-3.3-1.3-3.4-3c-0.1-1.8,1.3-3.3,3-3.4c0.1,0,0.1,0,0.2,0
	C263.9,237.9,265.4,239.3,265.4,241z"/>
<path class="st11" d="M257.2,245.6c0.1,1.8-1.3,3.3-3,3.4c-1.8,0.1-3.3-1.3-3.4-3c-0.1-1.8,1.3-3.3,3-3.4c0.1,0,0.1,0,0.2,0
	C255.7,242.5,257.2,243.8,257.2,245.6z"/>
<path class="st11" d="M248.1,243.1c0.1,1.8-1.2,3.3-3,3.5c-1.8,0.1-3.3-1.2-3.5-3c-0.1-1.8,1.2-3.3,3-3.5c0.1,0,0.2,0,0.2,0
	C246.6,240,248,241.4,248.1,243.1z"/>
<path class="st11" d="M243.7,235.1c0.1,1.8-1.2,3.3-3,3.5c-1.8,0.1-3.3-1.2-3.5-3c-0.1-1.8,1.2-3.3,3-3.5c0.1,0,0.2,0,0.2,0
	C242.2,232,243.6,233.4,243.7,235.1z"/>
<path class="st10" d="M236,229.8c0.1,1.8-1.2,3.3-3,3.5c-1.8,0.1-3.3-1.2-3.5-3c-0.1-1.8,1.2-3.3,3-3.5c0.1,0,0.2,0,0.2,0
	C234.5,226.7,235.9,228.1,236,229.8z"/>
<path class="st10" d="M228.2,224.5c0.1,1.8-1.3,3.3-3,3.4c-1.8,0.1-3.3-1.3-3.4-3c-0.1-1.8,1.3-3.3,3-3.4c0.1,0,0.1,0,0.2,0
	C226.8,221.4,228.2,222.8,228.2,224.5z"/>
<g id="text1120">
	<text transform="matrix(1.06 0 0 1 214.1401 222.4199)" class="st4 st5">   </text>
	<text transform="matrix(1.06 0 0 1 214.1401 222.4199)" class="st6 st4 st7">Y</text>
</g>
<path class="st10" d="M212.8,213.9c0.1,1.8-1.2,3.3-3,3.5c-1.8,0.1-3.3-1.2-3.5-3c-0.1-1.8,1.2-3.3,3-3.5c0.1,0,0.2,0,0.2,0
	C211.3,210.9,212.7,212.2,212.8,213.9z"/>
<g id="text1122">
	<text transform="matrix(1.06 0 0 1 198.1802 211.8496)" class="st4 st5">   </text>
	<text transform="matrix(1.06 0 0 1 198.1802 211.8496)" class="st6 st4 st7">G</text>
</g>
<g id="text1124">
	<text transform="matrix(1.06 0 0 1 188.9199 212.25)" class="st4 st5">   </text>
	<text transform="matrix(1.06 0 0 1 188.9199 212.25)" class="st4 st7">R</text>
</g>
<g id="text1126">
	<text transform="matrix(1.06 0 0 1 181.2002 206.96)" class="st4 st5">   </text>
	<text transform="matrix(1.06 0 0 1 181.2002 206.96)" class="st6 st4 st7">R</text>
</g>
<g id="text1128">
	<text transform="matrix(1.06 0 0 1 178.8999 198.2798)" class="st4 st5">   </text>
	<text transform="matrix(1.06 0 0 1 178.8999 198.2798)" class="st6 st4 st7">A</text>
</g>
<g id="text1130">
	<text transform="matrix(1.06 0 0 1 169.8799 202.3799)" class="st4 st5">   </text>
	<text transform="matrix(1.06 0 0 1 169.8799 202.3799)" class="st4 st7">G</text>
</g>
<g id="text1132">
	<text transform="matrix(1.06 0 0 1 170.4102 211.3896)" class="st4 st5">   </text>
	<text transform="matrix(1.06 0 0 1 170.4102 211.3896)" class="st8 st4 st7">A</text>
</g>
<g id="text1134">
	<text transform="matrix(1.06 0 0 1 170.1499 220.4004)" class="st4 st5">   </text>
	<text transform="matrix(1.06 0 0 1 170.1499 220.4004)" class="st8 st4 st7">U</text>
</g>
<g id="text1136">
	<text transform="matrix(1.06 0 0 1 170.1499 229.4102)" class="st4 st5">   </text>
	<text transform="matrix(1.06 0 0 1 170.1499 229.4102)" class="st8 st4 st7">R</text>
</g>
<g id="text1138">
	<text transform="matrix(1.06 0 0 1 170.4102 238.4199)" class="st4 st5">   </text>
	<text transform="matrix(1.06 0 0 1 170.4102 238.4199)" class="st4 st7">A</text>
</g>
<g id="text1140">
	<text transform="matrix(1.06 0 0 1 169.8799 247.4297)" class="st4 st5">   </text>
	<text transform="matrix(1.06 0 0 1 169.8799 247.4297)" class="st6 st4 st7">G</text>
</g>
<g id="text1142">
	<text transform="matrix(1.06 0 0 1 170.1499 256.4502)" class="st4 st5">   </text>
	<text transform="matrix(1.06 0 0 1 170.1499 256.4502)" class="st6 st4 st7">R</text>
</g>
<g id="text1144">
	<text transform="matrix(1.06 0 0 1 170.1499 265.46)" class="st4 st5">   </text>
	<text transform="matrix(1.06 0 0 1 170.1499 265.46)" class="st6 st4 st7">R</text>
</g>
<path class="st12" d="M158.1,266.5c0,1.2-1,2.2-2.2,2.1h-4.5"/>
<path class="st13" d="M69,79.5L65.5,76"/>
<path class="st13" d="M207.8,170.8l1.2-4.6"/>
<g id="text1146">
	<text transform="matrix(1.06 0 0 1 55.96 73.27)" class="st4 st5">   </text>
	<text transform="matrix(1.06 0 0 1 55.96 73.27)" class="st4 st14">pk_1</text>
</g>
<g id="text1148">
	<text transform="matrix(1.06 0 0 1 201.25 162.9302)" class="st4 st5">   </text>
	<text transform="matrix(1.06 0 0 1 201.25 162.9302)" class="st4 st14">pk_1</text>
</g>
<g id="text1150">
	<text transform="matrix(1.06 0 0 1 142.4302 271.8301)" class="st4 st5">   </text>
	<text transform="matrix(1.06 0 0 1 142.4302 271.8301)" class="st4 st7">5&apos;</text>
</g>
<g id="text1152">
	<text transform="matrix(1.06 0 0 1 46.5 291.04)" class="st4 st5">   </text>
	<text transform="matrix(1.06 0 0 1 46.5 291.04)" class="st4 st5">pk_1</text>
</g>
<path class="st0" d="M68.5,302.9h18.1v5.4H68.5V302.9z"/>
<path class="st1" d="M75.6,305.5h3.9"/>
<path class="st0" d="M68.5,310.4h18.1v5.4H68.5V310.4z"/>
<path class="st1" d="M75.6,313.1h3.9"/>
<path class="st0" d="M68.5,318h18.1v5.4H68.5V318z"/>
<path class="st1" d="M75.6,320.7h3.9"/>
<path class="st0" d="M68.5,325.5h18.1v5.4H68.5V325.5z"/>
<path class="st1" d="M75.6,328.2h3.9"/>
<path class="st2" d="M67.7,301.8V332"/>
<path class="st2" d="M87.4,332v-30.2"/>
<g id="text1154">
	<text transform="matrix(1 0 0 1 68.95 308.24)" class="st4 st15">   </text>
	<text transform="matrix(1 0 0 1 68.95 308.24)" class="st6 st4 st16">Y</text>
</g>
<path class="st3" d="M74,313.1c0,1.4-1.1,2.6-2.6,2.6s-2.6-1.1-2.6-2.6c0-1.4,1.1-2.6,2.6-2.6l0,0C72.9,310.5,74,311.7,74,313.1z"/>
<g id="text1156">
	<text transform="matrix(1 0 0 1 68.53 323.36)" class="st4 st15">   </text>
	<text transform="matrix(1 0 0 1 68.53 323.36)" class="st4 st16">G</text>
</g>
<g id="text1158">
	<text transform="matrix(1 0 0 1 68.53 330.92)" class="st4 st15">   </text>
	<text transform="matrix(1 0 0 1 68.53 330.92)" class="st4 st16">G</text>
</g>
<g id="text1160">
	<text transform="matrix(1 0 0 1 80.98 330.92)" class="st4 st15">   </text>
	<text transform="matrix(1 0 0 1 80.98 330.92)" class="st6 st4 st16">C</text>
</g>
<g id="text1162">
	<text transform="matrix(1 0 0 1 80.98 323.36)" class="st4 st15">   </text>
	<text transform="matrix(1 0 0 1 80.98 323.36)" class="st6 st4 st16">C</text>
</g>
<path class="st3" d="M86.2,313.1c0,1.4-1.1,2.6-2.6,2.6s-2.6-1.1-2.6-2.6c0-1.4,1.1-2.6,2.6-2.6l0,0
	C85.1,310.5,86.2,311.7,86.2,313.1z"/>
<g id="text1164">
	<text transform="matrix(1 0 0 1 80.98 308.24)" class="st4 st15">   </text>
	<text transform="matrix(1 0 0 1 80.98 308.24)" class="st6 st4 st16">R</text>
</g>
<rect x="145.6" y="301.8" class="st0" width="8.8" height="8.8"/>
<text transform="matrix(1 0 0 1 161 310.08)" class="st4 st17">Statistically significant basepair with covariation</text>
<rect x="145.6" y="321.1" class="st18" width="8.8" height="8.8"/>
<text transform="matrix(1 0 0 1 163.31 329.86)" class="st4 st17">97% conserved nucleotide</text>
<rect x="145.7" y="340.4" class="st10" width="8.8" height="8.8"/>
<rect x="145.4" y="359.7" class="st6" width="8.8" height="8.8"/>
<text transform="matrix(1 0 0 1 161.46 348.01)" class="st4 st17">90% conserved nucleotide</text>
<text transform="matrix(1 0 0 1 161.88 368.46)" class="st4 st17">75% conserved nucleotide</text>
<rect x="145.4" y="379" class="st19" width="8.8" height="8.8"/>
<text transform="matrix(1 0 0 1 163.27 387.76)" class="st4 st17">50% conserved nucleotide</text>
<text transform="matrix(1 0 0 1 53.08 351.59)" class="st4 st17">Nucleotides</text>
<text transform="matrix(1 0 0 1 53.08 363.59)" class="st4 st17">R:</text>
<text transform="matrix(1 0 0 1 63.08 363.59)" class="st4 st17"> A</text>
<text transform="matrix(1 0 0 1 71.42 363.59)" class="st4 st17"> or G</text>
<text transform="matrix(1 0 0 1 53.08 375.59)" class="st4 st17">Y</text>
<text transform="matrix(1 0 0 1 59.2 375.59)" class="st4 st17">: C or U</text>
<text transform="matrix(1.06 0 0 1 6.6904 23.2515)" class="st4 st20">SAM-I Riboswitch</text>
</svg>
