<?xml version="1.0" encoding="utf-8"?>
<!-- Generator: Adobe Illustrator 26.0.0, SVG Export Plug-In . SVG Version: 6.00 Build 0)  -->
<svg version="1.1" id="图层_1" xmlns="http://www.w3.org/2000/svg" xmlns:xlink="http://www.w3.org/1999/xlink" x="0px" y="0px"
	 viewBox="0 0 400 400" style="enable-background:new 0 0 400 400;" xml:space="preserve">
<style type="text/css">
	.st0{fill:#FF0B0C;stroke:#FF0B0C;stroke-miterlimit:10;}
	.st1{fill:#FFFFFF;}
	.st2{font-family:'ArialMT';}
	.st3{font-size:16.9521px;}
	.st4{fill:#FFDF5C;}
	.st5{font-size:18.655px;}
	.st6{fill:#FF870A;}
	.st7{fill:none;stroke:#000000;stroke-width:0.1389;stroke-miterlimit:1.1111;}
	.st8{fill:#FFFFFF;stroke:#000000;stroke-width:0.1389;stroke-miterlimit:1.1111;}
	.st9{stroke:#000000;stroke-width:0.1389;stroke-miterlimit:1.1111;}
	.st10{fill:#09FEFE;}
	.st11{fill:none;stroke:#000000;stroke-width:0.5;stroke-miterlimit:1.1111;}
	.st12{fill:#C2C2FF;}
	.st13{fill:#FFAADC;}
	.st14{font-size:21px;}
	.st15{fill:#251E1C;}
	.st16{font-size:12.3492px;}
	.st17{fill:none;stroke:#000000;stroke-miterlimit:10;}
	.st18{fill:none;stroke:#000000;stroke-miterlimit:10;stroke-dasharray:11.877,11.877;}
	.st19{font-size:12px;}
	.st20{font-size:20px;}
</style>
<path class="st0" d="M321.6,138.3c0,7.9-16.6,14.5-36.9,14.5s-37.1-6.4-37.1-14.5c0-8,16.6-14.5,37.1-14.5
	C305.2,123.8,321.6,130.1,321.6,138.3z"/>
<text transform="matrix(0.9851 0 0 1 266.6877 142.0795)" class="st1 st2 st3">SAM</text>
<desc>Matlab Figure Converted by PLOT2SVG written by Juerg Schwizer</desc>
<g id="ID000000_00000137119614795535705720000003518398503222769559_">
	<g>
		<g id="ID000002_00000112615382375636624340000013070315774017755063_">
			<g transform="translate(376.867,474.856)">
				<g transform="rotate(-0.0)">
					<text transform="matrix(1.2245 0 0 1 -163.2833 -164.1691)" class="st4 st2 st5">A</text>
				</g>
			</g>
		</g>
		<g id="ID000003_00000183237042701608321280000012723099640097456051_">
			<g transform="translate(376.867,450.613)">
				<g transform="rotate(-0.0)">
					<text transform="matrix(1.2245 0 0 1 -164.5504 -158.7688)" class="st4 st2 st5">G</text>
				</g>
			</g>
		</g>
		<g id="ID000004_00000170244250380046617110000009418602198886441890_">
			<g transform="translate(376.867,426.371)">
				<g transform="rotate(-0.0)">
					<text transform="matrix(1.2245 0 0 1 -164.5504 -153.3696)" class="st4 st2 st5">G</text>
				</g>
			</g>
		</g>
		<g id="ID000005_00000046326029568105037190000000763607885085191870_">
			<g transform="translate(376.867,402.129)">
				<g transform="rotate(-0.0)">
					<text transform="matrix(1.2245 0 0 1 -163.9137 -147.9704)" class="st4 st2 st5">C</text>
				</g>
			</g>
		</g>
		<g id="ID000006_00000038380183845249490780000017567680470942276766_">
			<g transform="translate(376.867,335.462)">
				<g transform="rotate(-0.0)">
					<text transform="matrix(1.2245 0 0 1 -164.5504 -133.1237)" class="st6 st2 st5">G</text>
				</g>
			</g>
		</g>
		<g id="ID000007_00000134937923271322584850000009521633498996230021_">
			<g transform="translate(358.685,317.280)">
				<g transform="rotate(-0.0)">
					<text transform="matrix(1.2245 0 0 1 -163.0364 -129.0735)" class="st6 st2 st5">C</text>
				</g>
			</g>
		</g>
		<g id="ID000008_00000007416653420063530790000017833959440304813227_">
			<g transform="translate(376.867,293.038)">
				<g transform="rotate(-0.0)">
					<text transform="matrix(1.2245 0 0 1 -163.2833 -123.6753)" class="st6 st2 st5">A</text>
				</g>
			</g>
		</g>
		<g id="ID000009_00000088131262653355909600000010385844311557825955_">
			<g transform="translate(376.867,268.795)">
				<g transform="rotate(-0.0)">
					<text transform="matrix(1.2245 0 0 1 -163.9137 -118.2751)" class="st6 st2 st5">U</text>
				</g>
			</g>
		</g>
		<g id="ID000010_00000140707224954963963290000008729582320494187395_">
			<g transform="translate(376.867,238.492)">
				<g transform="rotate(-0.0)">
					<text transform="matrix(1.2245 0 0 1 -163.9137 -111.5287)" class="st6 st2 st5">U</text>
				</g>
			</g>
		</g>
		<g id="ID000011_00000023998500643695287370000017661974012974718640_">
			<g transform="translate(376.867,214.250)">
				<g transform="rotate(-0.0)">
					<text transform="matrix(1.2245 0 0 1 -163.9137 -106.1285)" class="st6 st2 st5">U</text>
				</g>
			</g>
		</g>
		<g id="ID000012_00000050629514452156840370000010013887797300881577_">
			<g transform="translate(370.806,190.007)">
				<g transform="rotate(-0.0)">
					<text transform="matrix(1.2245 0 0 1 -164.257 -100.7292)" class="st6 st2 st5">G</text>
				</g>
			</g>
		</g>
		<g id="ID000013_00000132055098578742064370000001904437296101321885_">
			<g transform="translate(425.352,402.129)">
				<g transform="rotate(-0.0)">
					<text transform="matrix(1.2245 0 0 1 -166.886 -147.9704)" class="st4 st2 st5">G</text>
				</g>
			</g>
		</g>
		<g id="ID000014_00000012435873940727427900000012947249148631206061_">
			<g transform="translate(425.352,426.371)">
				<g transform="rotate(-0.0)">
					<text transform="matrix(1.2245 0 0 1 -166.2507 -153.3696)" class="st4 st2 st5">C</text>
				</g>
			</g>
		</g>
		<g id="ID000015_00000182513613217489833620000017025112014900900757_">
			<g transform="translate(425.352,450.613)">
				<g transform="rotate(-0.0)">
					<text transform="matrix(1.2245 0 0 1 -166.2507 -158.7688)" class="st4 st2 st5">C</text>
				</g>
			</g>
		</g>
		<g id="ID000016_00000079473600599909700280000013524401642443135671_">
			<g transform="translate(425.352,474.856)">
				<g transform="rotate(-0.0)">
					<text transform="matrix(1.2245 0 0 1 -166.2507 -164.1691)" class="st4 st2 st5">U</text>
				</g>
			</g>
		</g>
		<g id="ID000017_00000114757101659785719760000011152737412179186314_">
			<line class="st7" x1="230.4" y1="302.2" x2="258.1" y2="302.2"/>
		</g>
		<g id="ID000018_00000114780364521408964190000014784853331612555416_">
			<line class="st7" x1="230.4" y1="283.4" x2="258.1" y2="283.4"/>
		</g>
		<g id="ID000019_00000008834334968285107870000004102741573274847136_">
			<line class="st7" x1="230.4" y1="264.6" x2="258.1" y2="264.6"/>
		</g>
		<g id="ID000020_00000046310699183743103360000001597304927171039882_">
			<line class="st7" x1="230.4" y1="264.6" x2="310" y2="264.6"/>
		</g>
		<g id="ID000021_00000164493622910766327800000008607394530834939043_">
			<polygon class="st8" points="276.3,264.6 267.2,260.4 267.2,268.8 			"/>
		</g>
		<g id="ID000022_00000033338025709412959210000014269195181968218274_">
			<line class="st7" x1="230.4" y1="245.7" x2="258.1" y2="245.7"/>
		</g>
		<g id="ID000023_00000167366487895720773810000004177759528676103558_">
			<line class="st7" x1="230.1" y1="191.9" x2="275.7" y2="181.7"/>
		</g>
		<g id="ID000024_00000060731663133564797110000013037872810898863498_">
			<polygon class="st9" points="242.7,189.1 242.8,189.3 242.9,189.6 243,189.8 243.2,190 243.2,190.2 243.4,190.4 243.6,190.6 
				243.9,190.8 244.1,190.9 244.2,191.1 244.5,191.2 244.8,191.3 245,191.5 245.3,191.6 245.6,191.6 245.8,191.7 246.1,191.8 
				246.4,191.8 246.7,191.8 247,191.9 247.3,191.9 247.5,191.8 247.8,191.8 248.1,191.8 248.4,191.7 248.7,191.6 249,191.6 
				249.3,191.5 249.5,191.3 249.7,191.2 250,191.1 250.2,190.9 250.4,190.8 250.6,190.6 250.8,190.4 251,190.2 251.1,190 
				251.2,189.8 251.4,189.6 251.5,189.3 251.6,189.1 251.7,188.9 251.7,188.6 251.8,188.4 251.8,188.2 251.8,187.9 251.7,187.7 
				251.7,187.5 251.6,187.3 251.5,187 251.4,186.8 251.3,186.6 251.2,186.4 251,186.2 250.9,186 250.7,185.7 250.5,185.5 
				250.3,185.4 250.2,185.2 249.9,185.1 249.6,184.9 249.3,184.8 249.2,184.7 248.9,184.6 248.6,184.5 248.3,184.5 248,184.4 
				247.7,184.4 247.5,184.3 247.2,184.3 246.8,184.3 246.6,184.4 246.3,184.4 246,184.5 245.7,184.5 245.4,184.6 245.1,184.7 
				244.9,184.8 244.7,184.9 244.4,185 244.1,185.2 244,185.3 243.8,185.5 243.6,185.7 243.4,186 243.2,186.2 243.1,186.4 243,186.6 
				242.8,186.8 242.7,187 242.6,187.2 242.6,187.5 242.5,187.7 242.5,187.9 242.5,188.1 242.5,188.4 242.5,188.6 242.6,188.8 			"/>
		</g>
		<g id="ID000025_00000010270905743238638170000007078843714453134721_">
			<polygon class="st9" points="261.9,180.9 253,182.9 255.4,190.2 264.4,188.2 			"/>
		</g>
		<g id="ID000026_00000094607343906714894990000008595837259165609122_">
			<line class="st7" x1="230.4" y1="160.9" x2="275.5" y2="160.9"/>
		</g>
		<g id="ID000027_00000095337342434176496630000004759327627120878219_">
			<polygon class="st9" points="242.3,160.9 242.3,161.1 242.3,161.4 242.3,161.7 242.4,161.9 242.5,162.1 242.6,162.3 242.8,162.5 
				242.9,162.8 243.1,163 243.2,163.1 243.4,163.3 243.6,163.5 243.8,163.7 244.1,163.8 244.2,164 244.5,164.1 244.8,164.2 
				245,164.3 245.3,164.4 245.6,164.5 245.8,164.5 246.1,164.6 246.4,164.6 246.7,164.6 247,164.6 247.3,164.6 247.5,164.6 
				247.8,164.6 248.2,164.5 248.4,164.4 248.7,164.3 249,164.3 249.3,164.1 249.4,164 249.7,163.9 250,163.7 250.2,163.6 
				250.3,163.4 250.5,163.2 250.7,163 250.9,162.9 251,162.6 251.1,162.4 251.2,162.2 251.3,162 251.4,161.8 251.5,161.6 
				251.5,161.3 251.5,161 251.5,160.8 251.5,160.5 251.5,160.3 251.4,160.1 251.3,159.8 251.2,159.6 251.1,159.4 251,159.2 
				250.9,159 250.7,158.8 250.5,158.6 250.3,158.4 250.2,158.3 250,158.1 249.7,158 249.4,157.8 249.3,157.6 249,157.5 248.7,157.4 
				248.4,157.3 248.2,157.2 247.8,157.2 247.5,157.1 247.3,157.1 247,157.1 246.7,157.1 246.4,157.1 246.1,157.2 245.8,157.2 
				245.6,157.3 245.3,157.4 245,157.4 244.8,157.5 244.5,157.8 244.2,157.9 244.1,158 243.8,158.2 243.6,158.3 243.4,158.5 
				243.2,158.7 243.1,158.9 242.9,159.1 242.8,159.3 242.6,159.5 242.5,159.7 242.4,160 242.3,160.2 242.3,160.4 242.3,160.6 			"/>
		</g>
		<g id="ID000028_00000023979166152494971620000006788208145598316734_">
			<polygon class="st9" points="263.5,157.1 254.3,157.1 254.3,164.6 263.5,164.6 			"/>
		</g>
		<g id="ID000029_00000130613338637062900500000011624742693500119430_">
			<line class="st7" x1="230.4" y1="142.1" x2="275.5" y2="142.1"/>
		</g>
		<g id="ID000030_00000139267592466414660330000000479068508462188473_">
			<polygon class="st9" points="242.3,142.1 242.3,142.3 242.3,142.5 242.3,142.8 242.4,143 242.5,143.2 242.6,143.4 242.8,143.7 
				242.9,143.9 243.1,144.1 243.2,144.3 243.4,144.5 243.6,144.7 243.8,144.9 244.1,145 244.2,145.1 244.5,145.3 244.8,145.4 
				245,145.5 245.3,145.6 245.6,145.7 245.8,145.7 246.1,145.8 246.4,145.8 246.7,145.8 247,145.8 247.3,145.8 247.5,145.8 
				247.8,145.7 248.2,145.7 248.4,145.6 248.7,145.5 249,145.4 249.3,145.3 249.4,145.2 249.7,145.1 250,144.9 250.2,144.8 
				250.3,144.6 250.5,144.4 250.7,144.2 250.9,144 251,143.8 251.1,143.6 251.2,143.3 251.3,143.1 251.4,142.9 251.5,142.6 
				251.5,142.4 251.5,142.2 251.5,141.9 251.5,141.7 251.5,141.5 251.4,141.3 251.3,141 251.2,140.8 251.1,140.6 251,140.4 
				250.9,140.2 250.7,139.9 250.5,139.7 250.3,139.5 250.2,139.4 250,139.2 249.7,139 249.4,138.9 249.3,138.8 249,138.7 
				248.7,138.6 248.4,138.5 248.2,138.4 247.8,138.4 247.5,138.3 247.3,138.3 247,138.3 246.7,138.3 246.4,138.3 246.1,138.4 
				245.8,138.4 245.6,138.5 245.3,138.5 245,138.6 244.8,138.7 244.5,138.8 244.2,139 244.1,139.1 243.8,139.3 243.6,139.4 
				243.4,139.6 243.2,139.8 243.1,140.1 242.9,140.3 242.8,140.5 242.6,140.7 242.5,140.9 242.4,141.1 242.3,141.4 242.3,141.6 
				242.3,141.8 			"/>
		</g>
		<g id="ID000031_00000090270644597479567010000006624297020311164074_">
			<polygon class="st9" points="263.5,138.3 254.3,138.3 254.3,145.8 263.5,145.8 			"/>
		</g>
		<g id="ID000032_00000022544006841411658850000017700388679608882313_">
			<line class="st7" x1="230.4" y1="118.5" x2="275.5" y2="118.5"/>
		</g>
		<g id="ID000033_00000103231693013600759360000016858567309753847735_">
			<polygon class="st9" points="242.3,118.5 242.3,118.7 242.3,119 242.3,119.3 242.4,119.5 242.5,119.7 242.6,119.9 242.8,120.1 
				242.9,120.4 243.1,120.6 243.2,120.7 243.4,120.9 243.6,121.1 243.8,121.3 244.1,121.4 244.2,121.6 244.5,121.7 244.8,121.8 
				245,121.9 245.3,122 245.6,122.1 245.8,122.1 246.1,122.2 246.4,122.2 246.7,122.2 247,122.2 247.3,122.2 247.5,122.2 
				247.8,122.2 248.2,122.1 248.4,122 248.7,122 249,121.9 249.3,121.7 249.4,121.6 249.7,121.5 250,121.3 250.2,121.2 250.3,121 
				250.5,120.8 250.7,120.6 250.9,120.5 251,120.3 251.1,120 251.2,119.8 251.3,119.6 251.4,119.4 251.5,119.2 251.5,118.9 
				251.5,118.6 251.5,118.4 251.5,118.1 251.5,117.9 251.4,117.7 251.3,117.4 251.2,117.2 251.1,117 251,116.8 250.9,116.6 
				250.7,116.4 250.5,116.2 250.3,116 250.2,115.9 250,115.7 249.7,115.6 249.4,115.4 249.3,115.3 249,115.1 248.7,115 248.4,114.9 
				248.2,114.8 247.8,114.8 247.5,114.7 247.3,114.7 247,114.7 246.7,114.7 246.4,114.7 246.1,114.8 245.8,114.8 245.6,114.9 
				245.3,115 245,115 244.8,115.1 244.5,115.4 244.2,115.5 244.1,115.6 243.8,115.8 243.6,115.9 243.4,116.1 243.2,116.3 
				243.1,116.5 242.9,116.7 242.8,116.9 242.6,117.1 242.5,117.3 242.4,117.6 242.3,117.8 242.3,118 242.3,118.2 			"/>
		</g>
		<g id="ID000034_00000019661594622632378700000008351660717234968207_">
			<polygon class="st9" points="263.5,114.7 254.3,114.7 254.3,122.2 263.5,122.2 			"/>
		</g>
		<g id="ID000035_00000085246907523844191310000016311749520885922695_">
			<line class="st7" x1="230.4" y1="99.7" x2="275.5" y2="99.7"/>
		</g>
		<g id="ID000036_00000095303164643979286200000016836363769341532583_">
			<polygon class="st9" points="242.3,99.7 242.3,99.9 242.3,100.1 242.3,100.4 242.4,100.6 242.5,100.8 242.6,101 242.8,101.3 
				242.9,101.5 243.1,101.7 243.2,101.9 243.4,102.1 243.6,102.3 243.8,102.5 244.1,102.6 244.2,102.7 244.5,102.9 244.8,103 
				245,103.1 245.3,103.2 245.6,103.3 245.8,103.3 246.1,103.4 246.4,103.4 246.7,103.4 247,103.4 247.3,103.4 247.5,103.4 
				247.8,103.3 248.2,103.3 248.4,103.2 248.7,103.1 249,103 249.3,102.9 249.4,102.8 249.7,102.7 250,102.5 250.2,102.4 
				250.3,102.2 250.5,102 250.7,101.8 250.9,101.6 251,101.4 251.1,101.2 251.2,100.9 251.3,100.7 251.4,100.5 251.5,100.2 
				251.5,100 251.5,99.8 251.5,99.5 251.5,99.3 251.5,99.1 251.4,98.9 251.3,98.6 251.2,98.4 251.1,98.2 251,98 250.9,97.8 
				250.7,97.6 250.5,97.3 250.3,97.1 250.2,97 250,96.8 249.7,96.6 249.4,96.5 249.3,96.4 249,96.3 248.7,96.2 248.4,96.1 248.2,96 
				247.8,96 247.5,95.9 247.3,95.9 247,95.9 246.7,95.9 246.4,95.9 246.1,96 245.8,96 245.6,96.1 245.3,96.1 245,96.2 244.8,96.3 
				244.5,96.5 244.2,96.6 244.1,96.7 243.8,96.9 243.6,97 243.4,97.2 243.2,97.4 243.1,97.7 242.9,97.9 242.8,98.1 242.6,98.3 
				242.5,98.5 242.4,98.7 242.3,99 242.3,99.2 242.3,99.4 			"/>
		</g>
		<g id="ID000037_00000008110547291041786670000017063625524040873346_">
			<polygon class="st9" points="263.5,95.9 254.3,95.9 254.3,103.4 263.5,103.4 			"/>
		</g>
		<g id="ID000038_00000015330314716041456210000003071278504261484938_">
			<line class="st7" x1="224.5" y1="79.3" x2="321.7" y2="63.5"/>
		</g>
		<g id="ID000039_00000079463924516462064860000009056063675983370160_">
			<polygon class="st8" points="262.7,73.1 262.8,73.4 262.9,73.6 263,73.8 263.1,74 263.3,74.2 263.3,74.4 263.5,74.6 263.7,74.8 
				263.9,75 264.1,75.1 264.3,75.3 264.6,75.4 264.8,75.6 265,75.7 265.3,75.8 265.6,75.9 265.9,75.9 266.2,76 266.5,76 266.7,76.1 
				267,76.1 267.3,76.1 267.6,76.1 267.9,76.1 268.2,76 268.5,76 268.7,75.9 269.1,75.8 269.3,75.7 269.5,75.6 269.8,75.5 
				270.1,75.3 270.2,75.2 270.5,75 270.7,74.9 270.9,74.7 271.1,74.5 271.2,74.3 271.3,74.1 271.5,73.9 271.6,73.7 271.7,73.4 
				271.8,73.2 271.8,73 271.9,72.7 271.9,72.4 271.9,72.2 271.8,72 271.8,71.7 271.7,71.5 271.7,71.3 271.6,71.1 271.4,70.8 
				271.3,70.6 271.1,70.4 271,70.2 270.9,70 270.6,69.9 270.4,69.7 270.2,69.5 270,69.4 269.7,69.3 269.5,69 269.3,68.9 269,68.8 
				268.7,68.8 268.5,68.7 268.1,68.6 267.8,68.6 267.6,68.6 267.3,68.6 266.9,68.6 266.7,68.6 266.4,68.6 266.1,68.7 265.9,68.7 
				265.6,68.8 265.3,68.9 265,69 264.8,69.1 264.5,69.4 264.3,69.5 264.1,69.7 263.9,69.8 263.7,70 263.5,70.2 263.3,70.4 
				263.2,70.6 263.1,70.8 262.9,71 262.8,71.2 262.7,71.4 262.7,71.7 262.6,71.9 262.6,72.1 262.6,72.4 262.6,72.6 262.6,72.9 			
				"/>
		</g>
		<g id="ID000040_00000026123580586809803320000005738523870618153918_">
			<polygon class="st8" points="282.6,66.1 273.6,67.5 275.4,74.9 284.4,73.4 			"/>
		</g>
		<g id="ID000041_00000030474884434720871020000011741125262645234309_">
		</g>
		<g id="ID000042_00000122702013851785170630000016564158869374441097_">
			<g transform="translate(358.685,165.765)">
				<g transform="rotate(-0.0)">
					<text transform="matrix(1.2245 0 0 1 -162.4065 -95.33)" class="st6 st2 st5">A</text>
				</g>
			</g>
		</g>
		<g id="ID000043_00000169554159713470988220000015875707784286132621_">
			<g transform="translate(370.806,135.462)">
				<g transform="rotate(-0.0)">
					<text transform="matrix(1.2245 0 0 1 -162.9914 -88.5807)" class="st6 st2 st5">A</text>
				</g>
			</g>
		</g>
		<g id="ID000044_00000014623173271816479300000007407386149988399235_">
			<g transform="translate(388.988,105.159)">
				<g transform="rotate(-0.0)">
					<text transform="matrix(1.2245 0 0 1 -164.4976 -81.8334)" class="st6 st2 st5">C</text>
				</g>
			</g>
		</g>
		<g id="ID000045_00000043432184800756523800000015086823408905691021_">
			<g transform="translate(413.230,111.220)">
				<g transform="rotate(-0.0)">
					<text transform="matrix(1.2245 0 0 1 -165.6664 -83.1844)" class="st10 st2 st5">U</text>
				</g>
			</g>
		</g>
		<g id="ID000046_00000060018179563045161660000008630738978268731563_">
			<g transform="translate(492.018,135.462)">
				<g transform="rotate(-0.0)">
					<text transform="matrix(1.2245 0 0 1 -170.0999 -88.5807)" class="st10 st2 st5">G</text>
				</g>
			</g>
		</g>
		<g id="ID000047_00000091006947784133716590000011045464112158975636_">
			<g transform="translate(492.018,165.765)">
				<g transform="rotate(-0.0)">
					<text transform="matrix(1.2245 0 0 1 -169.4651 -95.33)" class="st10 st2 st5">U</text>
				</g>
			</g>
		</g>
		<g id="ID000048_00000149375270637324283240000013794136068900935318_">
			<g transform="translate(492.018,190.007)">
				<g transform="rotate(-0.0)">
					<text transform="matrix(1.2245 0 0 1 -168.8323 -100.7292)" class="st10 st2 st5">A</text>
				</g>
			</g>
		</g>
		<g id="ID000049_00000114065328137362307110000012404075050740118148_">
			<g transform="translate(492.018,214.250)">
				<g transform="rotate(-0.0)">
					<text transform="matrix(1.2245 0 0 1 -169.4651 -106.1285)" class="st10 st2 st5">U</text>
				</g>
			</g>
		</g>
		<g id="ID000050_00000168109151542205518830000002107772188871365799_">
			<g transform="translate(492.018,238.492)">
				<g transform="rotate(-0.0)">
					<text transform="matrix(1.2245 0 0 1 -169.4651 -111.5287)" class="st10 st2 st5">U</text>
				</g>
			</g>
		</g>
		<g id="ID000051_00000144338343199008325070000013261058596284689580_">
			<g transform="translate(443.533,268.795)">
				<g transform="rotate(-0.0)">
					<text transform="matrix(1.2245 0 0 1 -167.1256 -118.2751)" class="st10 st2 st5">U</text>
				</g>
			</g>
		</g>
		<g id="ID000052_00000047757519284119462420000012231028987427876785_">
			<g transform="translate(443.533,238.492)">
				<g transform="rotate(-0.0)">
					<text transform="matrix(1.2245 0 0 1 -166.4981 -111.5287)" class="st10 st2 st5">A</text>
				</g>
			</g>
		</g>
		<g id="ID000053_00000041983468354710110520000014655592137190240172_">
			<g transform="translate(443.533,214.250)">
				<g transform="rotate(-0.0)">
					<text transform="matrix(1.2245 0 0 1 -166.4981 -106.1285)" class="st10 st2 st5">A</text>
				</g>
			</g>
		</g>
		<g id="ID000054_00000058566014928826762250000007747590476216202161_">
			<g transform="translate(443.533,190.007)">
				<g transform="rotate(-0.0)">
					<text transform="matrix(1.2245 0 0 1 -166.4981 -100.7292)" class="st10 st2 st5">A</text>
				</g>
			</g>
		</g>
		<g id="ID000055_00000090270334196103914370000015874138884673385404_">
			<g transform="translate(443.533,165.765)">
				<g transform="rotate(-0.0)">
					<text transform="matrix(1.2245 0 0 1 -166.4981 -95.33)" class="st10 st2 st5">A</text>
				</g>
			</g>
		</g>
		<g id="ID000056_00000060032351859211026320000012919807577048364984_">
			<g transform="translate(443.533,135.462)">
				<g transform="rotate(-0.0)">
					<text transform="matrix(1.2245 0 0 1 -166.4981 -88.5807)" class="st10 st2 st5">A</text>
				</g>
			</g>
		</g>
		<g id="ID000057_00000081612987850284682220000005532356181076779649_">
			<line class="st7" x1="260.3" y1="26.1" x2="280.2" y2="55.4"/>
		</g>
		<g id="ID000058_00000065040878354841676450000014677607703990239669_">
			<polygon class="st8" points="265,33.2 264.8,33.3 264.6,33.4 264.3,33.6 264.1,33.7 263.9,34 263.7,34.2 263.5,34.4 263.4,34.5 
				263.3,34.7 263.1,35 263,35.2 262.9,35.4 262.8,35.6 262.8,35.8 262.7,36.1 262.7,36.3 262.7,36.5 262.7,36.8 262.7,37 
				262.8,37.2 262.9,37.6 263,37.8 263.1,38 263.2,38.2 263.3,38.4 263.4,38.6 263.6,38.8 263.8,39 264.1,39.1 264.2,39.3 
				264.4,39.5 264.7,39.6 265,39.7 265.2,39.8 265.5,39.9 265.8,40 266,40.1 266.3,40.2 266.6,40.2 266.8,40.2 267.2,40.2 
				267.5,40.2 267.7,40.2 268,40.2 268.4,40.2 268.6,40.1 268.9,40 269.2,39.9 269.4,39.8 269.7,39.7 269.9,39.6 270.2,39.5 
				270.4,39.3 270.6,39.2 270.8,39 271,38.8 271.1,38.6 271.3,38.4 271.4,38.2 271.6,38 271.7,37.8 271.8,37.6 271.9,37.2 271.9,37 
				272,36.8 272,36.5 272,36.3 271.9,36.1 271.9,35.8 271.8,35.6 271.7,35.4 271.6,35.2 271.5,35 271.4,34.8 271.2,34.6 271.1,34.4 
				270.9,34.2 270.7,34 270.5,33.7 270.2,33.6 270.1,33.4 269.8,33.3 269.5,33.2 269.3,33.1 269,33 268.7,32.9 268.5,32.8 
				268.2,32.8 267.9,32.7 267.6,32.7 267.3,32.7 267,32.7 266.7,32.7 266.5,32.8 266.1,32.8 265.9,32.9 265.6,33 265.3,33.1 			"/>
		</g>
		<g id="ID000059_00000134243920594248130990000016587952932581674943_">
			<polygon class="st8" points="279.4,46.5 274.9,39.9 266.8,43.6 271.3,50.2 			"/>
		</g>
		<g id="ID000060_00000021801763828988768490000003058471505447189422_">
			<line class="st7" x1="323" y1="58" x2="292.5" y2="42.4"/>
		</g>
		<g id="ID000061_00000070830321247347580020000000882429202976866749_">
			<polygon class="st8" points="303.8,48.3 303.6,48.5 303.5,48.7 303.4,48.9 303.4,49.1 303.3,49.3 303.2,49.5 303.2,49.8 
				303.1,50 303.1,50.2 303.1,50.5 303.2,50.7 303.2,50.9 303.3,51.2 303.4,51.4 303.4,51.7 303.5,51.9 303.7,52.1 303.9,52.3 
				304.1,52.5 304.3,52.7 304.4,52.9 304.6,53 304.9,53.2 305.1,53.3 305.3,53.4 305.6,53.5 305.9,53.6 306.1,53.7 306.4,53.8 
				306.7,53.9 306.9,53.9 307.3,53.9 307.6,54 307.8,54 308.1,53.9 308.5,53.9 308.7,53.9 309,53.8 309.3,53.7 309.5,53.7 
				309.8,53.6 310.1,53.4 310.4,53.3 310.5,53.2 310.8,53 311,52.9 311.2,52.7 311.3,52.5 311.5,52.3 311.7,52.1 311.9,51.9 
				312,51.7 312.1,51.4 312.1,51.2 312.2,51 312.3,50.7 312.3,50.5 312.3,50.3 312.3,50 312.3,49.8 312.2,49.6 312.2,49.3 
				312.1,49.1 312.1,48.9 312,48.7 311.8,48.5 311.6,48.3 311.5,48.1 311.3,47.8 311.2,47.6 310.9,47.5 310.7,47.3 310.4,47.2 
				310.3,47 310,46.9 309.7,46.8 309.5,46.7 309.2,46.6 308.9,46.6 308.6,46.5 308.3,46.5 308,46.4 307.7,46.4 307.5,46.4 
				307.1,46.5 306.9,46.5 306.6,46.5 306.3,46.6 306,46.7 305.8,46.8 305.5,46.9 305.2,47 305,47.1 304.8,47.3 304.5,47.4 
				304.3,47.6 304.2,47.8 304,48.1 			"/>
		</g>
		<g id="ID000062_00000180329087155744889850000004229095767554996147_">
			<line class="st7" x1="321.6" y1="80.9" x2="293.8" y2="80.9"/>
		</g>
		<g id="ID000063_00000046326315266626577270000008938303230368939924_">
			<polygon class="st8" points="318.3,77.1 309.1,77.1 309.1,84.6 318.3,84.6 			"/>
		</g>
		<g id="ID000064_00000178200522352565108850000002238905570856369829_">
			<polygon class="st8" points="295.7,80.9 304.7,85.1 304.7,76.6 			"/>
		</g>
		<g id="ID000065_00000041984832352821529590000000789905750238604730_">
			<line class="st7" x1="321.6" y1="99.7" x2="293.8" y2="99.7"/>
		</g>
		<g id="ID000066_00000016762168454214440030000013276245620282535587_">
			<line class="st11" x1="330.8" y1="126.1" x2="330.8" y2="153.3"/>
		</g>
		<g id="ID000067_00000043457339254947850340000015464766148706315965_">
			<polygon class="st9" points="337.7,133.5 334.2,136.6 333.1,139.7 332.5,142.8 330.8,149.1 329.1,142.8 328.5,139.7 327.3,136.6 
				323.9,133.5 			"/>
		</g>
		<g id="ID000068_00000034793156246357499070000005308812123153936786_">
			<line class="st7" x1="321.6" y1="118.5" x2="293.8" y2="118.5"/>
		</g>
		<g id="ID000069_00000150104127906588262100000006803002639471370903_">
		</g>
		<g id="ID000070_00000125593706855470173730000011732646052119110839_">
			<g transform="translate(492.018,293.038)">
				<g transform="rotate(-0.0)">
					<text transform="matrix(1.2245 0 0 1 -170.0999 -123.6753)" class="st10 st2 st5">G</text>
				</g>
			</g>
		</g>
		<g id="ID000071_00000070088782949332129080000006414237232843064981_">
			<g transform="translate(492.018,317.280)">
				<g transform="rotate(-0.0)">
					<text transform="matrix(1.2245 0 0 1 -169.4651 -129.0735)" class="st10 st2 st5">U</text>
				</g>
			</g>
		</g>
		<g id="ID000072_00000145038447032393842370000006807748392404468881_">
			<g transform="translate(492.018,341.523)">
				<g transform="rotate(-0.0)">
					<text transform="matrix(1.2245 0 0 1 -168.8323 -134.4747)" class="st10 st2 st5">A</text>
				</g>
			</g>
		</g>
		<g id="ID000073_00000008111780533949697570000015448448880416050069_">
			<g transform="translate(492.018,365.765)">
				<g transform="rotate(-0.0)">
					<text transform="matrix(1.2245 0 0 1 -169.4651 -139.873)" class="st10 st2 st5">C</text>
				</g>
			</g>
		</g>
		<g id="ID000074_00000102512959922474532540000001548198794779821229_">
			<g transform="translate(498.079,444.553)">
				<g transform="rotate(-0.0)">
					<text transform="matrix(1.2245 0 0 1 -169.1267 -157.4198)" class="st12 st2 st5">A</text>
				</g>
			</g>
		</g>
		<g id="ID000075_00000092421441252286409110000000959325510011767983_">
			<g transform="translate(479.897,426.371)">
				<g transform="rotate(-0.0)">
					<text transform="matrix(1.2245 0 0 1 -168.2484 -153.3696)" class="st12 st2 st5">A</text>
				</g>
			</g>
		</g>
		<g id="ID000076_00000088818152217103333100000012737020989183283363_">
			<g transform="translate(443.533,365.765)">
				<g transform="rotate(-0.0)">
					<text transform="matrix(1.2245 0 0 1 -167.7633 -139.873)" class="st10 st2 st5">G</text>
				</g>
			</g>
		</g>
		<g id="ID000077_00000167386342929238217210000005549211820878974848_">
			<g transform="translate(443.533,341.523)">
				<g transform="rotate(-0.0)">
					<text transform="matrix(1.2245 0 0 1 -167.1256 -134.4747)" class="st10 st2 st5">U</text>
				</g>
			</g>
		</g>
		<g id="ID000078_00000031890876311474470070000013723870707124915619_">
			<g transform="translate(443.533,317.280)">
				<g transform="rotate(-0.0)">
					<text transform="matrix(1.2245 0 0 1 -166.4981 -129.0735)" class="st10 st2 st5">A</text>
				</g>
			</g>
		</g>
		<g id="ID000079_00000027589000737034679930000016478631301990494865_">
			<g transform="translate(443.533,293.038)">
				<g transform="rotate(-0.0)">
					<text transform="matrix(1.2245 0 0 1 -167.1256 -123.6753)" class="st10 st2 st5">C</text>
				</g>
			</g>
		</g>
		<g id="ID000080_00000029745350093436098860000011332758701325514403_">
			<line class="st7" x1="321.6" y1="160.9" x2="293.8" y2="160.9"/>
		</g>
		<g id="ID000081_00000157298033157224493490000002306659466341609889_">
			<line class="st7" x1="321.6" y1="179.8" x2="293.8" y2="179.8"/>
		</g>
		<g id="ID000082_00000093159844363332934550000004485710109834385562_">
			<line class="st7" x1="321.6" y1="198.6" x2="293.8" y2="198.6"/>
		</g>
		<g id="ID000083_00000155864250178930271370000000735456183273073053_">
			<line class="st7" x1="321.6" y1="217.4" x2="293.8" y2="217.4"/>
		</g>
		<g id="ID000084_00000114066388218269822680000010078916420284487313_">
			<line class="st11" x1="314.5" y1="258.1" x2="289.4" y2="223.9"/>
		</g>
		<g id="ID000085_00000001645076466780809000000016003404205570863777_">
			<polygon class="st9" points="299.9,249.3 300.9,245.1 299.9,241.9 298.5,239.1 296,232.9 301.5,237.6 303.9,240 306.9,242.2 
				311.9,243.5 			"/>
		</g>
		<g id="ID000086_00000063614948132634660440000005638049629736115361_">
		</g>
		<g id="ID000087_00000116218045082876553370000000991658019077806470_">
			<g transform="translate(443.533,493.038)">
				<g transform="rotate(-0.0)">
					<text transform="matrix(1.2245 0 0 1 -167.1256 -168.2192)" class="st13 st2 st5">U</text>
				</g>
			</g>
		</g>
		<g id="ID000088_00000011728216401491304720000009171345331270244271_">
			<g transform="translate(443.533,517.280)">
				<g transform="rotate(-0.0)">
					<text transform="matrix(1.2245 0 0 1 -167.7633 -173.6175)" class="st13 st2 st5">G</text>
				</g>
			</g>
		</g>
		<g id="ID000089_00000077320370440370291360000005068619523571209863_">
			<g transform="translate(443.533,541.523)">
				<g transform="rotate(-0.0)">
					<text transform="matrix(1.2245 0 0 1 -167.1256 -179.0157)" class="st13 st2 st5">C</text>
				</g>
			</g>
		</g>
		<g id="ID000090_00000078750713016767054580000004106596990518416815_">
			<g transform="translate(443.533,565.765)">
				<g transform="rotate(-0.0)">
					<text transform="matrix(1.2245 0 0 1 -166.4981 -184.415)" class="st13 st2 st5">A</text>
				</g>
			</g>
		</g>
		<g id="ID000091_00000127736850999209756880000001572208853842219146_">
			<g transform="translate(492.018,541.523)">
				<g transform="rotate(-0.0)">
					<text transform="matrix(1.2245 0 0 1 -170.0999 -179.0157)" class="st13 st2 st5">G</text>
				</g>
			</g>
		</g>
		<g id="ID000092_00000049930627968755509130000003663327461869958283_">
			<g transform="translate(492.018,517.280)">
				<g transform="rotate(-0.0)">
					<text transform="matrix(1.2245 0 0 1 -169.4651 -173.6175)" class="st13 st2 st5">C</text>
				</g>
			</g>
		</g>
		<g id="ID000093_00000166648690836111721800000011984536944092429748_">
			<g transform="translate(492.018,493.038)">
				<g transform="rotate(-0.0)">
					<text transform="matrix(1.2245 0 0 1 -168.8323 -168.2192)" class="st13 st2 st5">A</text>
				</g>
			</g>
		</g>
		<g id="ID000094_00000005975411218266150720000006547509583338716290_">
			<g transform="translate(492.018,468.795)">
				<g transform="rotate(-0.0)">
					<text transform="matrix(1.2245 0 0 1 -168.8323 -162.818)" class="st12 st2 st5">A</text>
				</g>
			</g>
		</g>
		<g id="ID000095_00000031165997649157808650000009412679403175179910_">
			<line class="st7" x1="293.8" y1="316.3" x2="321.6" y2="316.3"/>
		</g>
		<g id="ID000096_00000150101919711031925690000007436415741881102485_">
			<line class="st7" x1="293.8" y1="335.2" x2="321.6" y2="335.2"/>
		</g>
		<g id="ID000097_00000160898909226973709310000010100778660212242592_">
		</g>
		<g id="ID000098_00000038411197589973235120000000550753881736277132_">
			<line class="st11" x1="322.7" y1="221" x2="275.5" y2="242.1"/>
		</g>
		<g id="ID000099_00000008829568269911678720000015188117631237803913_">
			<polygon class="st9" points="309.1,233.5 304.1,232.6 300.2,233.2 296.5,234.3 288.9,236.1 294.8,231.8 298,229.9 300.8,227.6 
				302.5,223.6 			"/>
		</g>
		<g id="ID000100_00000026147640110013956200000003035691068414986165_">
			<polyline class="st11" points="265,19.5 330.8,19.5 330.8,30.9 			"/>
		</g>
		<g id="ID000101_00000036249414033153604410000004079320428969408700_">
			<polygon class="st9" points="290.3,13.9 294,16.8 297.9,17.7 301.7,18.2 309.5,19.5 301.7,21 297.9,21.5 294,22.4 290.3,25.2 			
				"/>
		</g>
		<g id="ID000102_00000007387772314433202610000017297732011168396701_">
			<line class="st11" x1="221.2" y1="238.1" x2="221.2" y2="201.4"/>
		</g>
		<g id="ID000103_00000010301843144919725400000005622617577572106171_">
			<polygon class="st9" points="214.3,226.1 217.8,222.9 218.8,219.8 219.5,216.6 221.2,210.3 222.9,216.6 223.5,219.8 224.7,222.9 
				228.1,226.1 			"/>
		</g>
	</g>
</g>
<text transform="matrix(1 0 0 1 146.55 95.5087)" class="st6 st2 st14">L1</text>
<text transform="matrix(1 0 0 1 158.2444 274.3618)" class="st4 st2 st14">P1</text>
<text transform="matrix(1 0 0 1 365.3017 114.7049)" class="st10 st2 st14">P2</text>
<text transform="matrix(1 0 0 1 372.8686 343.1517)" class="st13 st2 st14">P3</text>
<text transform="matrix(1.1769 0 0 1 299.0441 39.9135)" class="st15 st2 st16">3</text>
<text transform="matrix(1.1769 0 0 1 307.7277 36.4721)" class="st15 st2 st16">’</text>
<text transform="matrix(1.1769 0 0 1 202.2082 331.2748)" class="st15 st2 st16">5</text>
<text transform="matrix(1.1769 0 0 1 210.8908 327.8325)" class="st15 st2 st16">’</text>
<g>
	<g>
		<path class="st17" d="M284.8,386.1c1.2,1.4,2.6,2.7,4,3.8"/>
		<path class="st18" d="M299.3,395.1c7.7,2.1,15.8,0.9,21.9-3.6c5-3.6,8.3-9.2,9.6-15.5"/>
		<path class="st17" d="M331.4,370.2c0-1.8-0.2-3.6-0.5-5.5"/>
	</g>
</g>
<g id="ID000057">
	<line class="st7" x1="202.1" y1="287.2" x2="212.2" y2="287.2"/>
</g>
<g id="ID000058">
	<g transform="translate(664.457,233.062)">
		<g transform="rotate(-0.0)">
			<text transform="matrix(1.0296 0 0 1 -471.9812 56.6425)" class="st2 st19">2</text>
		</g>
	</g>
</g>
<g id="ID000057_00000057840357918857459880000010062967752490833316_">
	<line class="st7" x1="187.4" y1="63.5" x2="197.5" y2="63.5"/>
</g>
<g id="ID000058_00000094585528432850526830000012828712811762436487_">
	<g transform="translate(664.457,233.062)">
		<g transform="rotate(-0.0)">
			<text transform="matrix(1.0296 0 0 1 -495.3987 -167.0332)" class="st2 st19">12</text>
		</g>
	</g>
</g>
<g id="ID000057_00000065068006253869374030000002809358337961952702_">
	<line class="st7" x1="340" y1="180.9" x2="350.1" y2="180.9"/>
</g>
<g id="ID000058_00000133489066827069427480000001156867933150156422_">
	<g transform="translate(664.457,233.062)">
		<g transform="rotate(-0.0)">
			<text transform="matrix(1.0296 0 0 1 -312.6492 -48.7901)" class="st2 st19">22</text>
		</g>
	</g>
</g>
<g id="ID000057_00000039855351391897074760000001593715334025199252_">
	<line class="st7" x1="265.2" y1="339.1" x2="275.3" y2="339.1"/>
</g>
<g id="ID000058_00000139282175473788664430000015181019815219859616_">
	<g transform="translate(664.457,233.062)">
		<g transform="rotate(-0.0)">
			<text transform="matrix(1.0296 0 0 1 -415.3757 110.0898)" class="st2 st19">30</text>
		</g>
	</g>
</g>
<g id="ID000057_00000088834398198087938950000002978845320255879601_">
	<line class="st7" x1="340" y1="355.9" x2="350.1" y2="355.9"/>
</g>
<g id="ID000058_00000028294577858633194710000002487478963335045031_">
	<g transform="translate(664.457,233.062)">
		<g transform="rotate(-0.0)">
			<text transform="matrix(1.0296 0 0 1 -312.6501 127.3056)" class="st2 st19">37</text>
		</g>
	</g>
</g>
<g id="ID000057_00000135669082397003742130000012087688909859945658_">
	<line class="st7" x1="266.7" y1="84.6" x2="276.8" y2="84.6"/>
</g>
<g id="ID000058_00000031900945152213050210000004005107483803310728_">
	<g transform="translate(664.457,233.062)">
		<g transform="rotate(-0.0)">
			<text transform="matrix(1.0296 0 0 1 -414.1526 -143.7842)" class="st2 st19">50</text>
		</g>
	</g>
</g>
<text transform="matrix(1 0 0 1 9.9456 25.1682)" class="st2 st20">SAM-V Riboswitch</text>
</svg>
