<?xml version="1.0" encoding="utf-8"?>
<!-- Generator: Adobe Illustrator 26.0.0, SVG Export Plug-In . SVG Version: 6.00 Build 0)  -->
<svg version="1.1" id="svg2403" xmlns:svg="http://www.w3.org/2000/svg"
	 xmlns="http://www.w3.org/2000/svg" xmlns:xlink="http://www.w3.org/1999/xlink" x="0px" y="0px" viewBox="0 0 400 400"
	 style="enable-background:new 0 0 400 400;" xml:space="preserve">
<style type="text/css">
	.st0{fill:#D7EFC5;}
	.st1{fill:none;stroke:#000000;stroke-width:1.44;}
	.st2{font-family:'ArialMT';}
	.st3{font-size:13.4425px;}
	.st4{fill:#D90000;}
	.st5{font-size:8.4016px;}
	.st6{fill:#D90000;stroke:#000000;stroke-width:0.72;}
	.st7{fill:#807B88;}
	.st8{fill:#FFFFFF;stroke:#000000;stroke-width:0.72;}
	.st9{fill:none;stroke:#000000;stroke-width:0.72;}
	.st10{font-size:10px;}
	.st11{fill:#D90000;stroke:#251E1C;}
	.st12{stroke:#000000;stroke-width:0.72;}
	.st13{fill:#FFFFFF;stroke:#251E1C;}
	.st14{letter-spacing:-2;}
	.st15{letter-spacing:-1;}
	.st16{font-size:21px;}
</style>
<path class="st0" d="M98.9,154.6L98.9,154.6h19.2v6H98.9V154.6z"/>
<path class="st1" d="M106.5,157.6h4.1"/>
<path class="st1" d="M106.5,149.1h4.1"/>
<path class="st1" d="M106.5,140.7h4.1"/>
<path class="st0" d="M98.9,129.2L98.9,129.2h19.2v6H98.9V129.2z"/>
<path class="st1" d="M106.5,132.2h4.1"/>
<path class="st1" d="M14,183.6"/>
<path class="st1" d="M14,183.6"/>
<path class="st1" d="M14,183.6"/>
<path class="st1" d="M14,183.6"/>
<path class="st1" d="M14,183.6"/>
<path class="st1" d="M14,183.6"/>
<path class="st1" d="M14,183.6"/>
<path class="st1" d="M14,183.6"/>
<path class="st1" d="M14,183.6"/>
<path class="st1" d="M14,183.6"/>
<path class="st1" d="M14,183.6"/>
<path class="st1" d="M14,183.6"/>
<path class="st1" d="M14,183.6"/>
<path class="st1" d="M14,183.6"/>
<path class="st1" d="M14,183.6"/>
<path class="st1" d="M14,183.6"/>
<path class="st1" d="M14,183.6"/>
<path class="st1" d="M14,183.6"/>
<path class="st1" d="M14,183.6"/>
<path class="st1" d="M14,183.6"/>
<path class="st1" d="M14,183.6"/>
<path class="st1" d="M14,183.6"/>
<path class="st1" d="M14,183.6"/>
<path class="st1" d="M14,183.6"/>
<path class="st1" d="M14,183.6"/>
<path class="st1" d="M14,183.6"/>
<path class="st1" d="M14,183.6"/>
<path class="st1" d="M14,183.6"/>
<path class="st1" d="M14,183.6"/>
<path class="st1" d="M14,183.6"/>
<path class="st1" d="M14,183.6"/>
<path class="st1" d="M14,183.6"/>
<path class="st1" d="M14,183.6"/>
<path class="st1" d="M14,183.6"/>
<path class="st1" d="M14,183.6"/>
<path class="st1" d="M14,183.6"/>
<path class="st1" d="M14,183.6"/>
<path class="st1" d="M14,183.6"/>
<path class="st1" d="M14,183.6"/>
<path class="st1" d="M14,183.6"/>
<path class="st1" d="M14,183.6"/>
<path class="st1" d="M14,183.6"/>
<path class="st1" d="M14,183.6"/>
<path class="st1" d="M14,183.6"/>
<path class="st1" d="M14,183.6"/>
<path class="st1" d="M14,183.6"/>
<path class="st1" d="M14,183.6"/>
<path class="st1" d="M14,183.6"/>
<path class="st1" d="M14,183.6"/>
<path class="st1" d="M14,183.6"/>
<path class="st1" d="M14,183.6"/>
<path class="st1" d="M14,183.6"/>
<path class="st1" d="M14,183.6"/>
<path class="st1" d="M14,183.6"/>
<path class="st1" d="M14,183.6"/>
<path class="st1" d="M14,183.6"/>
<path class="st1" d="M14,183.6"/>
<path class="st1" d="M14,183.6"/>
<path class="st1" d="M14,183.6"/>
<path class="st1" d="M14,183.6"/>
<path class="st1" d="M14,183.6"/>
<path class="st1" d="M14,183.6"/>
<path class="st1" d="M14,183.6"/>
<path class="st1" d="M14,183.6"/>
<path class="st1" d="M14,183.6"/>
<path class="st1" d="M14,183.6"/>
<path class="st1" d="M14,183.6"/>
<path class="st1" d="M14,183.6"/>
<path class="st1" d="M14,183.6"/>
<path class="st1" d="M14,183.6"/>
<path class="st1" d="M14,183.6"/>
<path class="st1" d="M14,183.6"/>
<path class="st1" d="M14,183.6"/>
<path class="st1" d="M14,183.6"/>
<path class="st1" d="M14,183.6"/>
<path class="st1" d="M14,183.6"/>
<path class="st1" d="M14,183.6"/>
<path class="st1" d="M14,183.6"/>
<path class="st1" d="M14,183.6"/>
<path class="st1" d="M14,183.6"/>
<path class="st1" d="M14,183.6"/>
<path class="st1" d="M14,183.6"/>
<path class="st1" d="M14,183.6"/>
<path class="st1" d="M14,183.6"/>
<path class="st1" d="M14,183.6"/>
<path class="st1" d="M14,183.6"/>
<path class="st1" d="M14,183.6"/>
<path class="st1" d="M14,183.6"/>
<path class="st1" d="M14,183.6"/>
<path class="st1" d="M14,183.6"/>
<path class="st1" d="M14,183.6"/>
<path class="st1" d="M14,183.6"/>
<path class="st1" d="M14,183.6"/>
<path class="st1" d="M14,183.6"/>
<path class="st1" d="M14,183.6"/>
<path class="st1" d="M14,183.6"/>
<path class="st1" d="M14,183.6"/>
<path class="st1" d="M14,183.6"/>
<path class="st1" d="M14,183.6"/>
<path class="st1" d="M14,183.6"/>
<path class="st1" d="M14,183.6"/>
<path class="st1" d="M14,183.6"/>
<path class="st1" d="M14,183.6"/>
<path class="st1" d="M14,183.6"/>
<path class="st1" d="M14,183.6"/>
<path class="st1" d="M14,183.6"/>
<path class="st1" d="M14,183.6"/>
<path class="st1" d="M14,183.6"/>
<path class="st1" d="M14,183.6"/>
<path class="st1" d="M14,183.6"/>
<path class="st1" d="M14,183.6"/>
<path class="st1" d="M14,183.6"/>
<path class="st1" d="M14,183.6"/>
<path class="st1" d="M14,183.6"/>
<path class="st1" d="M14,183.6"/>
<path class="st1" d="M14,183.6"/>
<path class="st1" d="M14,183.6"/>
<path class="st1" d="M14,183.6"/>
<path class="st1" d="M14,183.6"/>
<path class="st1" d="M14,183.6"/>
<path class="st1" d="M14,183.6"/>
<path class="st1" d="M14,183.6"/>
<path class="st1" d="M14,183.6"/>
<path class="st1" d="M14,183.6"/>
<path class="st1" d="M14,183.6"/>
<path class="st1" d="M14,183.6"/>
<path class="st1" d="M14,183.6"/>
<path class="st1" d="M14,183.6"/>
<path class="st1" d="M14,183.6"/>
<path class="st1" d="M14,183.6"/>
<path class="st1" d="M14,183.6"/>
<path class="st1" d="M14,183.6"/>
<text transform="matrix(0.9474 0 0 1 29.5088 166.6104)" class="st2 st3">   </text>
<text transform="matrix(0.9474 0 0 1 29.5088 166.6104)" class="st4 st2 st5">A</text>
<text transform="matrix(0.9474 0 0 1 34.8179 166.6104)" class="st2 st3"> </text>
<path class="st6" d="M42.9,163.6c0,1.6-1.2,2.9-2.7,2.9s-2.7-1.3-2.7-2.9c0-1.6,1.2-2.9,2.7-2.9C41.7,160.7,42.9,162,42.9,163.6z"/>
<text transform="matrix(0.9474 0 0 1 45.3364 166.6104)" class="st2 st3">   </text>
<text transform="matrix(0.9474 0 0 1 45.3364 166.6104)" class="st7 st2 st5">U</text>
<text transform="matrix(0.9474 0 0 1 51.0845 166.6104)" class="st2 st3"> </text>
<path class="st6" d="M58.9,163.6c0,1.6-1.2,2.9-2.7,2.9s-2.7-1.3-2.7-2.9c0-1.6,1.2-2.9,2.7-2.9C57.7,160.7,58.9,162,58.9,163.6z"/>
<path class="st6" d="M67,163.6c0,1.6-1.2,2.9-2.7,2.9s-2.7-1.3-2.7-2.9c0-1.6,1.2-2.9,2.7-2.9C65.8,160.7,67,162,67,163.6z"/>
<path class="st6" d="M75,163.6c0,1.6-1.2,2.9-2.7,2.9s-2.7-1.3-2.7-2.9c0-1.6,1.2-2.9,2.7-2.9C73.8,160.7,75,162,75,163.6z"/>
<path class="st6" d="M83,163.6c0,1.6-1.2,2.9-2.7,2.9s-2.7-1.3-2.7-2.9c0-1.6,1.2-2.9,2.7-2.9S83,162,83,163.6L83,163.6z"/>
<path class="st6" d="M91,163.6c0,1.6-1.2,2.9-2.7,2.9s-2.7-1.3-2.7-2.9c0-1.6,1.2-2.9,2.7-2.9C89.8,160.7,91,162,91,163.6z"/>
<path class="st6" d="M99.1,163.6c0,1.6-1.2,2.9-2.7,2.9s-2.7-1.3-2.7-2.9c0-1.6,1.2-2.9,2.7-2.9C97.8,160.7,99.1,162,99.1,163.6z"/>
<text transform="matrix(0.9474 0 0 1 99.1484 160.6221)" class="st2 st3">   </text>
<text transform="matrix(0.9474 0 0 1 99.1484 160.6221)" class="st4 st2 st5">R</text>
<text transform="matrix(0.9474 0 0 1 104.8965 160.6221)" class="st2 st3"> </text>
<text transform="matrix(0.9474 0 0 1 98.9258 152.1528)" class="st2 st3">   </text>
<text transform="matrix(0.9474 0 0 1 98.9258 152.1528)" class="st4 st2 st5">G</text>
<text transform="matrix(0.9474 0 0 1 105.1167 152.1528)" class="st2 st3"> </text>
<text transform="matrix(0.9474 0 0 1 98.9258 143.6841)" class="st2 st3">   </text>
<text transform="matrix(0.9474 0 0 1 98.9258 143.6841)" class="st4 st2 st5">G</text>
<text transform="matrix(0.9474 0 0 1 105.1167 143.6841)" class="st2 st3"> </text>
<text transform="matrix(0.9474 0 0 1 99.3672 135.2153)" class="st2 st3">   </text>
<text transform="matrix(0.9474 0 0 1 99.3672 135.2153)" class="st4 st2 st5">Y</text>
<text transform="matrix(0.9474 0 0 1 104.6763 135.2153)" class="st2 st3"> </text>
<text transform="matrix(0.9474 0 0 1 91.979 131.9146)" class="st2 st3">   </text>
<text transform="matrix(0.9474 0 0 1 91.979 131.9146)" class="st4 st2 st5">A</text>
<text transform="matrix(0.9474 0 0 1 97.2876 131.9146)" class="st2 st3"> </text>
<path class="st6" d="M91.2,123.4c0,1.6-1.2,2.9-2.7,2.9s-2.7-1.3-2.7-2.9s1.2-2.9,2.7-2.9S91.2,121.8,91.2,123.4z"/>
<text transform="matrix(0.9474 0 0 1 81.3794 119.2563)" class="st2 st3">   </text>
<text transform="matrix(0.9474 0 0 1 81.3794 119.2563)" class="st4 st2 st5">U</text>
<text transform="matrix(0.9474 0 0 1 87.1274 119.2563)" class="st2 st3"> </text>
<text transform="matrix(0.9474 0 0 1 79.3428 111.0649)" class="st2 st3">   </text>
<text transform="matrix(0.9474 0 0 1 79.3428 111.0649)" class="st4 st2 st5">U</text>
<text transform="matrix(0.9474 0 0 1 85.0908 111.0649)" class="st2 st3"> </text>
<text transform="matrix(0.9474 0 0 1 79.5044 102.606)" class="st2 st3">   </text>
<text transform="matrix(0.9474 0 0 1 79.5044 102.606)" class="st4 st2 st5">G</text>
<text transform="matrix(0.9474 0 0 1 85.6958 102.606)" class="st2 st3"> </text>
<text transform="matrix(0.9474 0 0 1 82.7163 94.6582)" class="st2 st3">   </text>
<text transform="matrix(0.9474 0 0 1 82.7163 94.6582)" class="st4 st2 st5">A</text>
<text transform="matrix(0.9474 0 0 1 88.0249 94.6582)" class="st2 st3"> </text>
<text transform="matrix(0.9474 0 0 1 87.6167 87.9526)" class="st2 st3">   </text>
<text transform="matrix(0.9474 0 0 1 87.6167 87.9526)" class="st4 st2 st5">A</text>
<text transform="matrix(0.9474 0 0 1 92.9258 87.9526)" class="st2 st3"> </text>
<text transform="matrix(0.9474 0 0 1 93.978 83.1069)" class="st2 st3">   </text>
<text transform="matrix(0.9474 0 0 1 93.978 83.1069)" class="st4 st2 st5">C</text>
<text transform="matrix(0.9474 0 0 1 99.7261 83.1069)" class="st2 st3"> </text>
<text transform="matrix(0.9474 0 0 1 101.8506 80.5674)" class="st2 st3">   </text>
<text transform="matrix(0.9474 0 0 1 101.8506 80.5674)" class="st4 st2 st5">Y</text>
<text transform="matrix(0.9474 0 0 1 107.1597 80.5674)" class="st2 st3"> </text>
<text transform="matrix(0.9474 0 0 1 109.4321 80.5674)" class="st2 st3">   </text>
<text transform="matrix(0.9474 0 0 1 109.4321 80.5674)" class="st7 st2 st5">G</text>
<text transform="matrix(0.9474 0 0 1 115.623 80.5674)" class="st2 st3"> </text>
<text transform="matrix(0.9474 0 0 1 117.3091 83.1069)" class="st2 st3">   </text>
<text transform="matrix(0.9474 0 0 1 117.3091 83.1069)" class="st4 st2 st5">U</text>
<text transform="matrix(0.9474 0 0 1 123.0571 83.1069)" class="st2 st3"> </text>
<text transform="matrix(0.9474 0 0 1 124.1074 87.9526)" class="st2 st3">   </text>
<text transform="matrix(0.9474 0 0 1 124.1074 87.9526)" class="st4 st2 st5">A</text>
<text transform="matrix(0.9474 0 0 1 129.4165 87.9526)" class="st2 st3"> </text>
<text transform="matrix(0.9474 0 0 1 128.79 94.6582)" class="st2 st3">   </text>
<text transform="matrix(0.9474 0 0 1 128.79 94.6582)" class="st4 st2 st5">U</text>
<text transform="matrix(0.9474 0 0 1 134.5381 94.6582)" class="st2 st3"> </text>
<text transform="matrix(0.9474 0 0 1 131.5596 102.606)" class="st2 st3">   </text>
<text transform="matrix(0.9474 0 0 1 131.5596 102.606)" class="st4 st2 st5">U</text>
<text transform="matrix(0.9474 0 0 1 137.3076 102.606)" class="st2 st3"> </text>
<text transform="matrix(0.9474 0 0 1 131.7212 111.0649)" class="st2 st3">   </text>
<text transform="matrix(0.9474 0 0 1 131.7212 111.0649)" class="st4 st2 st5">G</text>
<text transform="matrix(0.9474 0 0 1 137.9121 111.0649)" class="st2 st3"> </text>
<text transform="matrix(0.9474 0 0 1 129.9072 119.2563)" class="st2 st3">   </text>
<text transform="matrix(0.9474 0 0 1 129.9072 119.2563)" class="st4 st2 st5">U</text>
<text transform="matrix(0.9474 0 0 1 135.6553 119.2563)" class="st2 st3"> </text>
<text transform="matrix(0.9474 0 0 1 125.4141 126.4263)" class="st2 st3">   </text>
<text transform="matrix(0.9474 0 0 1 125.4141 126.4263)" class="st7 st2 st5">G</text>
<text transform="matrix(0.9474 0 0 1 131.605 126.4263)" class="st2 st3"> </text>
<text transform="matrix(0.9474 0 0 1 119.5273 131.9146)" class="st2 st3">   </text>
<text transform="matrix(0.9474 0 0 1 119.5273 131.9146)" class="st4 st2 st5">C</text>
<text transform="matrix(0.9474 0 0 1 125.2754 131.9146)" class="st2 st3"> </text>
<text transform="matrix(0.9474 0 0 1 112.1382 135.2153)" class="st2 st3">   </text>
<text transform="matrix(0.9474 0 0 1 112.1382 135.2153)" class="st4 st2 st5">R</text>
<text transform="matrix(0.9474 0 0 1 117.8862 135.2153)" class="st2 st3"> </text>
<text transform="matrix(0.9474 0 0 1 112.1382 143.6841)" class="st2 st3">   </text>
<text transform="matrix(0.9474 0 0 1 112.1382 143.6841)" class="st4 st2 st5">C</text>
<text transform="matrix(0.9474 0 0 1 117.8862 143.6841)" class="st2 st3"> </text>
<text transform="matrix(0.9474 0 0 1 112.1382 152.1528)" class="st2 st3">   </text>
<text transform="matrix(0.9474 0 0 1 112.1382 152.1528)" class="st4 st2 st5">C</text>
<text transform="matrix(0.9474 0 0 1 117.8862 152.1528)" class="st2 st3"> </text>
<text transform="matrix(0.9474 0 0 1 112.3574 160.6221)" class="st2 st3">   </text>
<text transform="matrix(0.9474 0 0 1 112.3574 160.6221)" class="st4 st2 st5">Y</text>
<text transform="matrix(0.9474 0 0 1 117.666 160.6221)" class="st2 st3"> </text>
<text transform="matrix(0.9474 0 0 1 117.811 166.6104)" class="st2 st3">   </text>
<text transform="matrix(0.9474 0 0 1 117.811 166.6104)" class="st7 st2 st5">U</text>
<text transform="matrix(0.9474 0 0 1 123.5591 166.6104)" class="st2 st3"> </text>
<text transform="matrix(0.9474 0 0 1 125.6113 166.6104)" class="st2 st3">   </text>
<text transform="matrix(0.9474 0 0 1 125.6113 166.6104)" class="st7 st2 st5">G</text>
<text transform="matrix(0.9474 0 0 1 131.8027 166.6104)" class="st2 st3"> </text>
<text transform="matrix(0.9474 0 0 1 133.8574 166.6104)" class="st2 st3">   </text>
<text transform="matrix(0.9474 0 0 1 133.8574 166.6104)" class="st4 st2 st5">C</text>
<text transform="matrix(0.9474 0 0 1 139.6055 166.6104)" class="st2 st3"> </text>
<text transform="matrix(0.9474 0 0 1 142.1001 166.6104)" class="st2 st3">   </text>
<text transform="matrix(0.9474 0 0 1 142.1001 166.6104)" class="st4 st2 st5">A</text>
<text transform="matrix(0.9474 0 0 1 147.4092 166.6104)" class="st2 st3"> </text>
<text transform="matrix(0.9474 0 0 1 149.9038 166.6104)" class="st2 st3">   </text>
<text transform="matrix(0.9474 0 0 1 149.9038 166.6104)" class="st4 st2 st5">U</text>
<text transform="matrix(0.9474 0 0 1 155.6519 166.6104)" class="st2 st3"> </text>
<path class="st6" d="M163.5,163.6c0,1.6-1.2,2.9-2.7,2.9s-2.7-1.3-2.7-2.9c0-1.6,1.2-2.9,2.7-2.9C162.3,160.7,163.5,162,163.5,163.6
	L163.5,163.6z"/>
<path class="st8" d="M171.5,163.6c0,1.6-1.2,2.9-2.7,2.9s-2.7-1.3-2.7-2.9c0-1.6,1.2-2.9,2.7-2.9C170.3,160.7,171.5,162,171.5,163.6
	z"/>
<path class="st6" d="M179.6,163.6c0,1.6-1.2,2.9-2.7,2.9s-2.7-1.3-2.7-2.9c0-1.6,1.2-2.9,2.7-2.9C178.3,160.7,179.6,162,179.6,163.6
	z"/>
<text transform="matrix(0.9474 0 0 1 181.7734 166.6104)" class="st2 st3">   </text>
<text transform="matrix(0.9474 0 0 1 181.7734 166.6104)" class="st4 st2 st5">G</text>
<text transform="matrix(0.9474 0 0 1 187.9648 166.6104)" class="st2 st3"> </text>
<text transform="matrix(0.9474 0 0 1 190.0195 166.6104)" class="st2 st3">   </text>
<text transform="matrix(0.9474 0 0 1 190.0195 166.6104)" class="st7 st2 st5">C</text>
<text transform="matrix(0.9474 0 0 1 195.7676 166.6104)" class="st2 st3"> </text>
<text transform="matrix(0.9474 0 0 1 198.043 166.6104)" class="st2 st3">   </text>
<text transform="matrix(0.9474 0 0 1 198.043 166.6104)" class="st7 st2 st5">U</text>
<text transform="matrix(0.9474 0 0 1 203.791 166.6104)" class="st2 st3"> </text>
<text transform="matrix(0.9474 0 0 1 206.2852 166.6104)" class="st2 st3">   </text>
<text transform="matrix(0.9474 0 0 1 206.2852 166.6104)" class="st7 st2 st5">A</text>
<text transform="matrix(0.9474 0 0 1 211.5947 166.6104)" class="st2 st3"> </text>
<text transform="matrix(0.9474 0 0 1 214.3086 166.6104)" class="st2 st3">   </text>
<text transform="matrix(0.9474 0 0 1 214.3086 166.6104)" class="st4 st2 st5">A</text>
<text transform="matrix(0.9474 0 0 1 219.6172 166.6104)" class="st2 st3"> </text>
<text transform="matrix(0.9474 0 0 1 222.332 166.6104)" class="st2 st3">   </text>
<text transform="matrix(0.9474 0 0 1 222.332 166.6104)" class="st4 st2 st5">A</text>
<text transform="matrix(0.9474 0 0 1 227.6406 166.6104)" class="st2 st3"> </text>
<text transform="matrix(0.9474 0 0 1 229.9121 166.6104)" class="st2 st3">   </text>
<text transform="matrix(0.9474 0 0 1 229.9121 166.6104)" class="st4 st2 st5">G</text>
<text transform="matrix(0.9474 0 0 1 236.1035 166.6104)" class="st2 st3"> </text>
<text transform="matrix(0.9474 0 0 1 238.1582 166.6104)" class="st2 st3">   </text>
<text transform="matrix(0.9474 0 0 1 238.1582 166.6104)" class="st7 st2 st5">C</text>
<text transform="matrix(0.9474 0 0 1 243.9062 166.6104)" class="st2 st3"> </text>
<text transform="matrix(0.9474 0 0 1 246.4014 166.6104)" class="st2 st3">   </text>
<text transform="matrix(0.9474 0 0 1 246.4014 166.6104)" class="st4 st2 st5">A</text>
<text transform="matrix(0.9474 0 0 1 251.71 166.6104)" class="st2 st3"> </text>
<text transform="matrix(0.9474 0 0 1 254.2051 166.6104)" class="st2 st3">   </text>
<text transform="matrix(0.9474 0 0 1 254.2051 166.6104)" class="st4 st2 st5">C</text>
<text transform="matrix(0.9474 0 0 1 259.9531 166.6104)" class="st2 st3"> </text>
<text transform="matrix(0.9474 0 0 1 262.2275 166.6104)" class="st2 st3">   </text>
<text transform="matrix(0.9474 0 0 1 262.2275 166.6104)" class="st4 st2 st5">U</text>
<text transform="matrix(0.9474 0 0 1 267.9756 166.6104)" class="st2 st3"> </text>
<text transform="matrix(0.9474 0 0 1 270.4707 166.6104)" class="st2 st3">   </text>
<text transform="matrix(0.9474 0 0 1 270.4707 166.6104)" class="st4 st2 st5">A</text>
<text transform="matrix(0.9474 0 0 1 275.7793 166.6104)" class="st2 st3"> </text>
<text transform="matrix(0.9474 0 0 1 278.4941 166.6104)" class="st2 st3">   </text>
<text transform="matrix(0.9474 0 0 1 278.4941 166.6104)" class="st4 st2 st5">A</text>
<text transform="matrix(0.9474 0 0 1 283.8027 166.6104)" class="st2 st3"> </text>
<text transform="matrix(0.9474 0 0 1 286.5166 166.6104)" class="st2 st3">   </text>
<text transform="matrix(0.9474 0 0 1 286.5166 166.6104)" class="st4 st2 st5">A</text>
<text transform="matrix(0.9474 0 0 1 291.8262 166.6104)" class="st2 st3"> </text>
<text transform="matrix(0.9474 0 0 1 294.54 166.6104)" class="st2 st3">   </text>
<text transform="matrix(0.9474 0 0 1 294.54 166.6104)" class="st4 st2 st5">A</text>
<text transform="matrix(0.9474 0 0 1 299.8486 166.6104)" class="st2 st3"> </text>
<text transform="matrix(0.9474 0 0 1 302.5635 166.6104)" class="st2 st3">   </text>
<text transform="matrix(0.9474 0 0 1 302.5635 166.6104)" class="st4 st2 st5">A</text>
<text transform="matrix(0.9474 0 0 1 307.8721 166.6104)" class="st2 st3"> </text>
<path class="st8" d="M316,163.6c0,1.6-1.2,2.9-2.7,2.9s-2.7-1.3-2.7-2.9c0-1.6,1.2-2.9,2.7-2.9C314.7,160.7,316,162,316,163.6
	L316,163.6z"/>
<path class="st8" d="M324,163.6c0,1.6-1.2,2.9-2.7,2.9s-2.7-1.3-2.7-2.9c0-1.6,1.2-2.9,2.7-2.9S324,162,324,163.6L324,163.6z"/>
<text transform="matrix(0.9474 0 0 1 326.6328 166.6104)" class="st2 st3">   </text>
<text transform="matrix(0.9474 0 0 1 326.6328 166.6104)" class="st4 st2 st5">A</text>
<text transform="matrix(0.9474 0 0 1 331.9414 166.6104)" class="st2 st3"> </text>
<text transform="matrix(0.9474 0 0 1 334.2129 166.6104)" class="st2 st3">   </text>
<text transform="matrix(0.9474 0 0 1 334.2129 166.6104)" class="st4 st2 st5">G</text>
<text transform="matrix(0.9474 0 0 1 340.4043 166.6104)" class="st2 st3"> </text>
<path class="st6" d="M348,163.6c0,1.6-1.2,2.9-2.7,2.9s-2.7-1.3-2.7-2.9c0-1.6,1.2-2.9,2.7-2.9C346.8,160.7,348,162,348,163.6z"/>
<text transform="matrix(0.9474 0 0 1 350.7021 166.6104)" class="st2 st3">   </text>
<text transform="matrix(0.9474 0 0 1 350.7021 166.6104)" class="st4 st2 st5">A</text>
<text transform="matrix(0.9474 0 0 1 356.0107 166.6104)" class="st2 st3"> </text>
<text transform="matrix(0.9474 0 0 1 358.7256 166.6104)" class="st2 st3">   </text>
<text transform="matrix(0.9474 0 0 1 358.7256 166.6104)" class="st7 st2 st5">A</text>
<text transform="matrix(0.9474 0 0 1 364.0342 166.6104)" class="st2 st3"> </text>
<path class="st9" d="M24.1,163.6h4"/>
<text transform="matrix(0.9474 0 0 1 16.6025 166.6104)" class="st2 st3">   </text>
<text transform="matrix(0.9474 0 0 1 16.6025 166.6104)" class="st2 st5">5&apos;</text>
<text transform="matrix(0.9474 0 0 1 22.5488 166.6104)" class="st2 st3"> </text>
<rect x="147.6" y="214.1" class="st0" width="8.8" height="8.8"/>
<text transform="matrix(1 0 0 1 163.0942 222.3903)" class="st2 st10">Statistically significant basepair with covariation</text>
<rect x="147.6" y="233.4" class="st11" width="8.8" height="8.8"/>
<text transform="matrix(1 0 0 1 165.4042 242.1703)" class="st2 st10">97% conserved nucleotide</text>
<rect x="147.8" y="252.7" class="st12" width="8.8" height="8.8"/>
<rect x="147.4" y="272" class="st7" width="8.8" height="8.8"/>
<text transform="matrix(1 0 0 1 163.5542 260.3203)" class="st2 st10">90% conserved nucleotide</text>
<text transform="matrix(1 0 0 1 163.9742 280.7703)" class="st2 st10">75% conserved nucleotide</text>
<rect x="146.9" y="295" class="st13" width="8.8" height="8.8"/>
<text transform="matrix(1 0 0 1 164.8442 303.7403)" class="st2 st10">50% conserved nucleotide</text>
<text transform="matrix(1 0 0 1 43.0342 276.3803)" class="st2 st10">Nucleotides</text>
<text transform="matrix(1 0 0 1 43.0342 288.3803)" class="st2 st10">R:</text>
<g>
	<text transform="matrix(1 0 0 1 52.9607 288.3803)" class="st2 st10 st14"> A</text>
</g>
<g>
	<text transform="matrix(1 0 0 1 61.3742 288.3803)" class="st2 st10"> or G</text>
</g>
<text transform="matrix(1 0 0 1 43.0342 300.3803)" class="st2 st10 st15">Y</text>
<text transform="matrix(1 0 0 1 49.1542 300.3803)" class="st2 st10">: C or U</text>
<text transform="matrix(1 0 0 1 208.3497 97.486)" class="st2 st16">SAM-V Riboswitch</text>
</svg>
