<?xml version="1.0" encoding="utf-8"?>
<!-- Generator: Adobe Illustrator 26.0.0, SVG Export Plug-In . SVG Version: 6.00 Build 0)  -->
<svg version="1.1" id="图层_1" xmlns="http://www.w3.org/2000/svg" xmlns:xlink="http://www.w3.org/1999/xlink" x="0px" y="0px"
	 viewBox="0 0 400 400" style="enable-background:new 0 0 400 400;" xml:space="preserve">
<style type="text/css">
	.st0{fill:none;stroke:#000000;stroke-width:3.82;stroke-miterlimit:10.61;}
	.st1{fill:#D7EFC5;}
	.st2{font-family:'ArialMT';}
	.st3{font-size:21.15px;}
	.st4{fill:#D90000;}
	.st5{font-size:13.22px;}
	.st6{fill:#807B88;}
	.st7{fill:#FFFFFF;stroke:#000000;stroke-width:1.91;stroke-miterlimit:10.61;}
	.st8{fill:#807B88;stroke:#000000;stroke-width:1.91;stroke-miterlimit:10.61;}
	.st9{fill:#D90000;stroke:#000000;stroke-width:1.91;stroke-miterlimit:10.61;}
	.st10{fill:none;stroke:#000000;stroke-width:1.91;stroke-miterlimit:10.61;}
	.st11{font-size:21px;}
	.st12{font-size:10px;}
	.st13{fill:#D90000;stroke:#251E1C;}
	.st14{stroke:#000000;stroke-width:0.72;}
	.st15{fill:#FFFFFF;stroke:#251E1C;}
	.st16{letter-spacing:-2;}
	.st17{letter-spacing:-1;}
</style>
<g id="viewport-20230512093450499">
	<path class="st0" d="M251.5,247.2h6.9"/>
	<path class="st0" d="M251.5,234h6.9"/>
	<path class="st0" d="M251.5,220.7h6.9"/>
	<path class="st0" d="M251.5,207.4h6.9"/>
	<path class="st0" d="M251.5,194.1h6.9"/>
	<path class="st0" d="M251.5,180.8h6.9"/>
	<path class="st0" d="M251.5,167.5h6.9"/>
	<path class="st0" d="M251.5,154.2h6.9"/>
	<path class="st0" d="M251.5,140.9h6.9"/>
	<path class="st0" d="M224.2,115.6l-0.3-6.8"/>
	<path class="st0" d="M210.4,116.1l-0.3-6.8"/>
	<path class="st0" d="M196.6,116.6l-0.3-6.8"/>
	<path class="st0" d="M182.8,117.1l-0.3-6.8"/>
	<path class="st0" d="M169,117.6l-0.3-6.8"/>
	<path class="st0" d="M155.2,118.1l-0.3-6.8"/>
	<path class="st0" d="M141.4,118.6l-0.3-6.8"/>
	<path class="st0" d="M127.6,119.1l-0.3-6.8"/>
	<path class="st1" d="M108.8,132.1L108.8,132.1l-1.2-31.4l11-0.4l1.2,31.4L108.8,132.1z"/>
	<path class="st0" d="M113.8,119.6l-0.3-6.8"/>
	<path class="st0" d="M88.6,120.5l-0.3-6.8"/>
	<path class="st0" d="M74.8,121l-0.3-6.8"/>
	<path class="st0" d="M284.6,121.2l-3.1,6.1"/>
	<path class="st0" d="M297,127.1l-3.1,6.1"/>
	<path class="st0" d="M45.5,41.6"/>
	<path class="st0" d="M45.5,41.6"/>
	<path class="st0" d="M45.5,41.6"/>
	<path class="st0" d="M45.5,41.6"/>
	<path class="st0" d="M45.5,41.6"/>
	<path class="st0" d="M45.5,41.6"/>
	<path class="st0" d="M45.5,41.6"/>
	<path class="st0" d="M45.5,41.6"/>
	<path class="st0" d="M45.5,41.6"/>
	<path class="st0" d="M45.5,41.6"/>
	<path class="st0" d="M45.5,41.6"/>
	<path class="st0" d="M45.5,41.6"/>
	<path class="st0" d="M45.5,41.6"/>
	<path class="st0" d="M45.5,41.6"/>
	<path class="st0" d="M45.5,41.6"/>
	<path class="st0" d="M45.5,41.6"/>
	<path class="st0" d="M45.5,41.6"/>
	<path class="st0" d="M45.5,41.6"/>
	<path class="st0" d="M45.5,41.6"/>
	<path class="st0" d="M45.5,41.6"/>
	<path class="st0" d="M45.5,41.6"/>
	<path class="st0" d="M45.5,41.6"/>
	<path class="st0" d="M45.5,41.6"/>
	<path class="st0" d="M45.5,41.6"/>
	<path class="st0" d="M45.5,41.6"/>
	<path class="st0" d="M45.5,41.6"/>
	<path class="st0" d="M45.5,41.6"/>
	<path class="st0" d="M45.5,41.6"/>
	<path class="st0" d="M45.5,41.6"/>
	<path class="st0" d="M45.5,41.6"/>
	<path class="st0" d="M45.5,41.6"/>
	<path class="st0" d="M45.5,41.6"/>
	<path class="st0" d="M45.5,41.6"/>
	<path class="st0" d="M45.5,41.6"/>
	<path class="st0" d="M45.5,41.6"/>
	<path class="st0" d="M45.5,41.6"/>
	<path class="st0" d="M45.5,41.6"/>
	<path class="st0" d="M45.5,41.6"/>
	<path class="st0" d="M45.5,41.6"/>
	<path class="st0" d="M45.5,41.6"/>
	<path class="st0" d="M45.5,41.6"/>
	<path class="st0" d="M45.5,41.6"/>
	<path class="st0" d="M45.5,41.6"/>
	<path class="st0" d="M45.5,41.6"/>
	<path class="st0" d="M45.5,41.6"/>
	<path class="st0" d="M45.5,41.6"/>
	<path class="st0" d="M45.5,41.6"/>
	<path class="st0" d="M45.5,41.6"/>
	<path class="st0" d="M45.5,41.6"/>
	<path class="st0" d="M45.5,41.6"/>
	<path class="st0" d="M45.5,41.6"/>
	<path class="st0" d="M45.5,41.6"/>
	<path class="st0" d="M45.5,41.6"/>
	<path class="st0" d="M45.5,41.6"/>
	<path class="st0" d="M45.5,41.6"/>
	<path class="st0" d="M45.5,41.6"/>
	<path class="st0" d="M45.5,41.6"/>
	<path class="st0" d="M45.5,41.6"/>
	<path class="st0" d="M45.5,41.6"/>
	<path class="st0" d="M45.5,41.6"/>
	<path class="st0" d="M45.5,41.6"/>
	<path class="st0" d="M45.5,41.6"/>
	<path class="st0" d="M45.5,41.6"/>
	<path class="st0" d="M45.5,41.6"/>
	<path class="st0" d="M45.5,41.6"/>
	<path class="st0" d="M45.5,41.6"/>
	<path class="st0" d="M45.5,41.6"/>
	<path class="st0" d="M45.5,41.6"/>
	<path class="st0" d="M45.5,41.6"/>
	<path class="st0" d="M45.5,41.6"/>
	<path class="st0" d="M45.5,41.6"/>
	<path class="st0" d="M45.5,41.6"/>
	<path class="st0" d="M45.5,41.6"/>
	<path class="st0" d="M45.5,41.6"/>
	<path class="st0" d="M45.5,41.6"/>
	<path class="st0" d="M45.5,41.6"/>
	<path class="st0" d="M45.5,41.6"/>
	<path class="st0" d="M45.5,41.6"/>
	<path class="st0" d="M45.5,41.6"/>
	<path class="st0" d="M45.5,41.6"/>
	<path class="st0" d="M45.5,41.6"/>
	<path class="st0" d="M45.5,41.6"/>
	<path class="st0" d="M45.5,41.6"/>
	<path class="st0" d="M45.5,41.6"/>
	<path class="st0" d="M45.5,41.6"/>
	<path class="st0" d="M45.5,41.6"/>
	<path class="st0" d="M45.5,41.6"/>
	<path class="st0" d="M45.5,41.6"/>
	<path class="st0" d="M45.5,41.6"/>
	<path class="st0" d="M45.5,41.6"/>
	<path class="st0" d="M45.5,41.6"/>
	<path class="st0" d="M45.5,41.6"/>
	<path class="st0" d="M45.5,41.6"/>
	<path class="st0" d="M45.5,41.6"/>
	<path class="st0" d="M45.5,41.6"/>
	<path class="st0" d="M45.5,41.6"/>
	<path class="st0" d="M45.5,41.6"/>
	<path class="st0" d="M45.5,41.6"/>
	<path class="st0" d="M45.5,41.6"/>
	<path class="st0" d="M45.5,41.6"/>
	<path class="st0" d="M45.5,41.6"/>
	<path class="st0" d="M45.5,41.6"/>
	<path class="st0" d="M45.5,41.6"/>
	<path class="st0" d="M45.5,41.6"/>
	<path class="st0" d="M45.5,41.6"/>
	<path class="st0" d="M45.5,41.6"/>
	<path class="st0" d="M45.5,41.6"/>
	<path class="st0" d="M45.5,41.6"/>
	<path class="st0" d="M45.5,41.6"/>
	<path class="st0" d="M45.5,41.6"/>
	<path class="st0" d="M45.5,41.6"/>
	<path class="st0" d="M45.5,41.6"/>
	<path class="st0" d="M45.5,41.6"/>
	<path class="st0" d="M45.5,41.6"/>
	<path class="st0" d="M45.5,41.6"/>
	<path class="st0" d="M45.5,41.6"/>
	<path class="st0" d="M45.5,41.6"/>
	<path class="st0" d="M45.5,41.6"/>
	<path class="st0" d="M45.5,41.6"/>
	<path class="st0" d="M45.5,41.6"/>
	<path class="st0" d="M45.5,41.6"/>
	<path class="st0" d="M45.5,41.6"/>
	<path class="st0" d="M45.5,41.6"/>
	<path class="st0" d="M45.5,41.6"/>
	<g id="text1002">
		<text transform="matrix(1.04 0 0 1 239.0098 252.3046)" class="st2 st3">   </text>
		<text transform="matrix(1.04 0 0 1 239.0098 252.3046)" class="st4 st2 st5">C</text>
	</g>
	<g id="text1004">
		<text transform="matrix(1.04 0 0 1 238.6299 238.9853)" class="st2 st3">   </text>
		<text transform="matrix(1.04 0 0 1 238.6299 238.9853)" class="st4 st2 st5">G</text>
	</g>
	<g id="text1006">
		<text transform="matrix(1.04 0 0 1 239.0098 225.665)" class="st2 st3">   </text>
		<text transform="matrix(1.04 0 0 1 239.0098 225.665)" class="st4 st2 st5">U</text>
	</g>
	<g id="text1008">
		<text transform="matrix(1.04 0 0 1 239.3902 212.3349)" class="st2 st3">   </text>
		<text transform="matrix(1.04 0 0 1 239.3902 212.3349)" class="st4 st2 st5">A</text>
	</g>
	<g id="text1010">
		<text transform="matrix(1.04 0 0 1 239.0098 199.0151)" class="st2 st3">   </text>
		<text transform="matrix(1.04 0 0 1 239.0098 199.0151)" class="st4 st2 st5">U</text>
	</g>
	<g id="text1012">
		<text transform="matrix(1.04 0 0 1 239.0098 185.6952)" class="st2 st3">   </text>
		<text transform="matrix(1.04 0 0 1 239.0098 185.6952)" class="st4 st2 st5">C</text>
	</g>
	<g id="text1014">
		<text transform="matrix(1.04 0 0 1 239.3902 172.3652)" class="st2 st3">   </text>
		<text transform="matrix(1.04 0 0 1 239.3902 172.3652)" class="st4 st2 st5">A</text>
	</g>
	<g id="text1016">
		<text transform="matrix(1.04 0 0 1 239.0098 159.0448)" class="st2 st3">   </text>
		<text transform="matrix(1.04 0 0 1 239.0098 159.0448)" class="st4 st2 st5">U</text>
	</g>
	<g id="text1018">
		<text transform="matrix(1.04 0 0 1 239.0098 145.725)" class="st2 st3">   </text>
		<text transform="matrix(1.04 0 0 1 239.0098 145.725)" class="st4 st2 st5">U</text>
	</g>
	<g id="text1020">
		<text transform="matrix(1.04 0 0 1 226.8999 138.6952)" class="st2 st3">   </text>
		<text transform="matrix(1.04 0 0 1 226.8999 138.6952)" class="st4 st2 st5">G</text>
	</g>
	<g id="text1022">
		<text transform="matrix(1.04 0 0 1 219.5498 127.6552)" class="st2 st3">   </text>
		<text transform="matrix(1.04 0 0 1 219.5498 127.6552)" class="st4 st2 st5">U</text>
	</g>
	<g id="text1024">
		<text transform="matrix(1.04 0 0 1 205.3701 128.1552)" class="st2 st3">   </text>
		<text transform="matrix(1.04 0 0 1 205.3701 128.1552)" class="st4 st2 st5">G</text>
	</g>
	<g id="text1026">
		<text transform="matrix(1.04 0 0 1 191.9502 128.665)" class="st2 st3">   </text>
		<text transform="matrix(1.04 0 0 1 191.9502 128.665)" class="st4 st2 st5">C</text>
	</g>
	<g id="text1028">
		<text transform="matrix(1.04 0 0 1 178.1402 129.165)" class="st2 st3">   </text>
		<text transform="matrix(1.04 0 0 1 178.1402 129.165)" class="st4 st2 st5">C</text>
	</g>
	<g id="text1030">
		<text transform="matrix(1.04 0 0 1 164.3399 129.6752)" class="st2 st3">   </text>
		<text transform="matrix(1.04 0 0 1 164.3399 129.6752)" class="st6 st2 st5">U</text>
	</g>
	<g id="text1032">
		<text transform="matrix(1.04 0 0 1 150.5401 130.1752)" class="st2 st3">   </text>
		<text transform="matrix(1.04 0 0 1 150.5401 130.1752)" class="st6 st2 st5">C</text>
	</g>
	<path class="st7" d="M146.3,125.9c0.1,2.6-1.9,4.7-4.5,4.8c-2.6,0.1-4.7-1.9-4.8-4.5c-0.1-2.6,1.9-4.7,4.5-4.8c0.1,0,0.1,0,0.2,0
		C144.2,121.4,146.3,123.4,146.3,125.9z"/>
	<path class="st7" d="M132.5,126.4c0.1,2.6-1.9,4.7-4.5,4.8c-2.6,0.1-4.7-1.9-4.8-4.5c-0.1-2.6,1.9-4.7,4.5-4.8c0.1,0,0.1,0,0.2,0
		C130.4,121.9,132.5,123.9,132.5,126.4C132.5,126.4,132.5,126.4,132.5,126.4z"/>
	<path class="st7" d="M118.7,126.9c0.1,2.6-1.9,4.8-4.5,4.9s-4.8-1.9-4.9-4.5s1.9-4.8,4.5-4.9c0.1,0,0.1,0,0.2,0
		C116.6,122.4,118.7,124.4,118.7,126.9z"/>
	<path class="st7" d="M106.4,132.9c0.1,2.6-1.9,4.7-4.5,4.8c-2.6,0.1-4.7-1.9-4.8-4.5c-0.1-2.6,1.9-4.7,4.5-4.8c0.1,0,0.1,0,0.2,0
		C104.2,128.3,106.3,130.3,106.4,132.9z"/>
	<path class="st8" d="M93.6,127.9c0.1,2.6-1.9,4.8-4.5,4.8c-2.6,0.1-4.8-1.9-4.8-4.5c-0.1-2.6,1.9-4.8,4.5-4.8c0,0,0.1,0,0.1,0
		C91.4,123.3,93.5,125.3,93.6,127.9C93.6,127.8,93.6,127.9,93.6,127.9z"/>
	<path class="st7" d="M79.8,128.4c0.1,2.6-1.9,4.8-4.5,4.9s-4.8-1.9-4.9-4.5c-0.1-2.6,1.9-4.8,4.5-4.9c0.1,0,0.1,0,0.2,0
		C77.6,123.8,79.7,125.8,79.8,128.4z"/>
	<path class="st7" d="M68.6,120.6c0.1,2.6-1.9,4.8-4.5,4.8c-2.6,0.1-4.8-1.9-4.8-4.5c-0.1-2.6,1.9-4.8,4.5-4.8c0.1,0,0.1,0,0.2,0
		C66.5,116,68.5,118.1,68.6,120.6C68.6,120.6,68.6,120.6,68.6,120.6z"/>
	<g id="text1034">
		<text transform="matrix(1.04 0 0 1 68.9102 111.5649)" class="st2 st3">   </text>
		<text transform="matrix(1.04 0 0 1 68.9102 111.5649)" class="st4 st2 st5">G</text>
	</g>
	<g id="text1036">
		<text transform="matrix(1.04 0 0 1 83.48 111.0649)" class="st2 st3">   </text>
		<text transform="matrix(1.04 0 0 1 83.48 111.0649)" class="st6 st2 st5">Y</text>
	</g>
	<path class="st7" d="M105.1,100.4c0.1,2.6-1.9,4.8-4.5,4.9c-2.6,0.1-4.8-1.9-4.9-4.5s1.9-4.8,4.5-4.9c0.1,0,0.1,0,0.2,0
		C103,95.9,105.1,97.9,105.1,100.4z"/>
	<path class="st7" d="M117.9,105.4c-0.1,2.6-2.3,4.6-4.9,4.5c-2.4-0.1-4.3-2-4.5-4.5l0,0c0.1-2.6,2.3-4.6,4.9-4.5
		C115.8,101,117.8,103,117.9,105.4z"/>
	<path class="st7" d="M131.7,104.9c0.1,2.6-1.9,4.7-4.5,4.8c-2.6,0.1-4.7-1.9-4.8-4.5s1.9-4.7,4.5-4.8c0.1,0,0.1,0,0.2,0
		C129.6,100.3,131.7,102.4,131.7,104.9z"/>
	<path class="st7" d="M145.5,104.4c0.1,2.6-1.9,4.8-4.5,4.8c-2.6,0.1-4.8-1.9-4.8-4.5c-0.1-2.6,1.9-4.8,4.5-4.8c0.1,0,0.1,0,0.2,0
		C143.4,99.8,145.5,101.8,145.5,104.4C145.5,104.4,145.5,104.4,145.5,104.4z"/>
	<g id="text1038">
		<text transform="matrix(1.04 0 0 1 149.3101 108.6249)" class="st2 st3">   </text>
		<text transform="matrix(1.04 0 0 1 149.3101 108.6249)" class="st6 st2 st5">G</text>
	</g>
	<g id="text1040">
		<text transform="matrix(1.04 0 0 1 163.1099 108.1152)" class="st2 st3">   </text>
		<text transform="matrix(1.04 0 0 1 163.1099 108.1152)" class="st6 st2 st5">G</text>
	</g>
	<g id="text1042">
		<text transform="matrix(1.04 0 0 1 176.9102 107.6152)" class="st2 st3">   </text>
		<text transform="matrix(1.04 0 0 1 176.9102 107.6152)" class="st4 st2 st5">G</text>
	</g>
	<g id="text1044">
		<text transform="matrix(1.04 0 0 1 190.71 107.1049)" class="st2 st3">   </text>
		<text transform="matrix(1.04 0 0 1 190.71 107.1049)" class="st4 st2 st5">G</text>
	</g>
	<g id="text1046">
		<text transform="matrix(1.04 0 0 1 204.8999 106.5951)" class="st2 st3">   </text>
		<text transform="matrix(1.04 0 0 1 204.8999 106.5951)" class="st4 st2 st5">C</text>
	</g>
	<g id="text1048">
		<text transform="matrix(1.04 0 0 1 218.3198 106.0951)" class="st2 st3">   </text>
		<text transform="matrix(1.04 0 0 1 218.3198 106.0951)" class="st4 st2 st5">G</text>
	</g>
	<g id="text1050">
		<text transform="matrix(1.04 0 0 1 225.9199 94.5151)" class="st2 st3">   </text>
		<text transform="matrix(1.04 0 0 1 225.9199 94.5151)" class="st4 st2 st5">A</text>
	</g>
	<g id="text1052">
		<text transform="matrix(1.04 0 0 1 236.69 86.6552)" class="st2 st3">   </text>
		<text transform="matrix(1.04 0 0 1 236.69 86.6552)" class="st4 st2 st5">U</text>
	</g>
	<g id="text1054">
		<text transform="matrix(1.04 0 0 1 250.5698 83.8652)" class="st2 st3">   </text>
		<text transform="matrix(1.04 0 0 1 250.5698 83.8652)" class="st4 st2 st5">A</text>
	</g>
	<g id="text1056">
		<text transform="matrix(1.04 0 0 1 264.0801 86.6552)" class="st2 st3">   </text>
		<text transform="matrix(1.04 0 0 1 264.0801 86.6552)" class="st4 st2 st5">A</text>
	</g>
	<g id="text1058">
		<text transform="matrix(1.04 0 0 1 274.4702 94.5151)" class="st2 st3">   </text>
		<text transform="matrix(1.04 0 0 1 274.4702 94.5151)" class="st4 st2 st5">G</text>
	</g>
	<g id="text1060">
		<text transform="matrix(1.04 0 0 1 281.6899 106.0951)" class="st2 st3">   </text>
		<text transform="matrix(1.04 0 0 1 281.6899 106.0951)" class="st4 st2 st5">U</text>
	</g>
	<g id="text1062">
		<text transform="matrix(1.04 0 0 1 283.02 119.3549)" class="st2 st3">   </text>
		<text transform="matrix(1.04 0 0 1 283.02 119.3549)" class="st4 st2 st5">C</text>
	</g>
	<g id="text1064">
		<text transform="matrix(1.04 0 0 1 295.4102 125.2548)" class="st2 st3">   </text>
		<text transform="matrix(1.04 0 0 1 295.4102 125.2548)" class="st4 st2 st5">C</text>
	</g>
	<path class="st9" d="M318.7,118.7c0.1,2.6-1.9,4.7-4.5,4.8s-4.7-1.9-4.8-4.5c-0.1-2.6,1.9-4.7,4.5-4.8c0.1,0,0.1,0,0.2,0
		C316.6,114.1,318.7,116.1,318.7,118.7C318.7,118.7,318.7,118.7,318.7,118.7z"/>
	<g id="text1066">
		<text transform="matrix(1.04 0 0 1 320.6099 130.7348)" class="st2 st3">   </text>
		<text transform="matrix(1.04 0 0 1 320.6099 130.7348)" class="st4 st2 st5">R</text>
	</g>
	<g id="text1068">
		<text transform="matrix(1.04 0 0 1 324.5898 143.5951)" class="st2 st3">   </text>
		<text transform="matrix(1.04 0 0 1 324.5898 143.5951)" class="st4 st2 st5">A</text>
	</g>
	<g id="text1070">
		<text transform="matrix(1.04 0 0 1 318.4697 155.5448)" class="st2 st3">   </text>
		<text transform="matrix(1.04 0 0 1 318.4697 155.5448)" class="st4 st2 st5">A</text>
	</g>
	<g id="text1072">
		<text transform="matrix(1.04 0 0 1 304.9302 160.5849)" class="st2 st3">   </text>
		<text transform="matrix(1.04 0 0 1 304.9302 160.5849)" class="st4 st2 st5">G</text>
	</g>
	<g id="text1074">
		<text transform="matrix(1.04 0 0 1 292.6401 156.205)" class="st2 st3">   </text>
		<text transform="matrix(1.04 0 0 1 292.6401 156.205)" class="st4 st2 st5">A</text>
	</g>
	<g id="text1076">
		<text transform="matrix(1.04 0 0 1 285.1099 144.5951)" class="st2 st3">   </text>
		<text transform="matrix(1.04 0 0 1 285.1099 144.5951)" class="st4 st2 st5">G</text>
	</g>
	<g id="text1078">
		<text transform="matrix(1.04 0 0 1 272.73 138.6952)" class="st2 st3">   </text>
		<text transform="matrix(1.04 0 0 1 272.73 138.6952)" class="st4 st2 st5">G</text>
	</g>
	<g id="text1080">
		<text transform="matrix(1.04 0 0 1 261 145.725)" class="st2 st3">   </text>
		<text transform="matrix(1.04 0 0 1 261 145.725)" class="st4 st2 st5">G</text>
	</g>
	<g id="text1082">
		<text transform="matrix(1.04 0 0 1 261.75 159.0448)" class="st2 st3">   </text>
		<text transform="matrix(1.04 0 0 1 261.75 159.0448)" class="st4 st2 st5">A</text>
	</g>
	<g id="text1084">
		<text transform="matrix(1.04 0 0 1 261.3799 172.3652)" class="st2 st3">   </text>
		<text transform="matrix(1.04 0 0 1 261.3799 172.3652)" class="st4 st2 st5">U</text>
	</g>
	<g id="text1086">
		<text transform="matrix(1.04 0 0 1 261 185.6952)" class="st2 st3">   </text>
		<text transform="matrix(1.04 0 0 1 261 185.6952)" class="st4 st2 st5">G</text>
	</g>
	<g id="text1088">
		<text transform="matrix(1.04 0 0 1 261.75 199.0151)" class="st2 st3">   </text>
		<text transform="matrix(1.04 0 0 1 261.75 199.0151)" class="st4 st2 st5">A</text>
	</g>
	<g id="text1090">
		<text transform="matrix(1.04 0 0 1 261.3799 212.3349)" class="st2 st3">   </text>
		<text transform="matrix(1.04 0 0 1 261.3799 212.3349)" class="st4 st2 st5">U</text>
	</g>
	<g id="text1092">
		<text transform="matrix(1.04 0 0 1 261.75 225.665)" class="st2 st3">   </text>
		<text transform="matrix(1.04 0 0 1 261.75 225.665)" class="st4 st2 st5">A</text>
	</g>
	<g id="text1094">
		<text transform="matrix(1.04 0 0 1 261.3799 238.9853)" class="st2 st3">   </text>
		<text transform="matrix(1.04 0 0 1 261.3799 238.9853)" class="st4 st2 st5">U</text>
	</g>
	<g id="text1096">
		<text transform="matrix(1.04 0 0 1 261 252.3046)" class="st2 st3">   </text>
		<text transform="matrix(1.04 0 0 1 261 252.3046)" class="st4 st2 st5">G</text>
	</g>
	<g id="text1098">
		<text transform="matrix(1.04 0 0 1 271.52 261.7245)" class="st2 st3">   </text>
		<text transform="matrix(1.04 0 0 1 271.52 261.7245)" class="st4 st2 st5">A</text>
	</g>
	<g id="text1100">
		<text transform="matrix(1.04 0 0 1 284.96 261.7245)" class="st2 st3">   </text>
		<text transform="matrix(1.04 0 0 1 284.96 261.7245)" class="st4 st2 st5">C</text>
	</g>
	<path class="st10" d="M244,254.1c0,1.8-1.5,3.2-3.2,3.1h-6.4"/>
	<g id="text1102">
		<text transform="matrix(1.04 0 0 1 221.2202 261.7245)" class="st2 st3">   </text>
		<text transform="matrix(1.04 0 0 1 221.2202 261.7245)" class="st2 st5">5&apos;</text>
	</g>
</g>
<text transform="matrix(1 0 0 1 8.48 24.975)" class="st2 st11">SAM-VI Riboswitch</text>
<rect x="152.9" y="284.2" class="st1" width="8.8" height="8.8"/>
<text transform="matrix(1 0 0 1 168.42 292.445)" class="st2 st12">Statistically significant basepair with covariation</text>
<rect x="152.9" y="303.5" class="st13" width="8.8" height="8.8"/>
<text transform="matrix(1 0 0 1 170.73 312.225)" class="st2 st12">97% conserved nucleotide</text>
<rect x="153.1" y="322.8" class="st14" width="8.8" height="8.8"/>
<rect x="152.8" y="342.1" class="st6" width="8.8" height="8.8"/>
<text transform="matrix(1 0 0 1 168.88 330.375)" class="st2 st12">90% conserved nucleotide</text>
<text transform="matrix(1 0 0 1 169.3 350.825)" class="st2 st12">75% conserved nucleotide</text>
<rect x="152.2" y="365.1" class="st15" width="8.8" height="8.8"/>
<text transform="matrix(1 0 0 1 170.17 373.795)" class="st2 st12">50% conserved nucleotide</text>
<text transform="matrix(1 0 0 1 48.36 346.435)" class="st2 st12">Nucleotides</text>
<text transform="matrix(1 0 0 1 48.36 358.435)" class="st2 st12">R:</text>
<text transform="matrix(1 0 0 1 57.9165 358.435)" class="st2 st12 st16"> A</text>
<text transform="matrix(1 0 0 1 66.7 358.435)" class="st2 st12"> or G</text>
<text transform="matrix(1 0 0 1 48.36 370.435)" class="st2 st12 st17">Y</text>
<text transform="matrix(1 0 0 1 54.48 370.435)" class="st2 st12">: C or U</text>
</svg>
