<?xml version="1.0" encoding="utf-8"?>
<!-- Generator: Adobe Illustrator 25.0.1, SVG Export Plug-In . SVG Version: 6.00 Build 0)  -->
<svg version="1.1" id="图层_1" xmlns="http://www.w3.org/2000/svg" xmlns:xlink="http://www.w3.org/1999/xlink" x="0px" y="0px"
	 viewBox="0 0 400 400" style="enable-background:new 0 0 400 400;" xml:space="preserve">
<style type="text/css">
	.st0{fill:#D7EFC5;}
	.st1{fill:none;stroke:#000000;stroke-width:1.42;}
	.st2{fill:#D90000;stroke:#000000;stroke-width:0.71;}
	.st3{font-family:'ArialMT';}
	.st4{font-size:13.78px;}
	.st5{fill:#807B88;}
	.st6{font-size:8.62px;}
	.st7{fill:#807B88;stroke:#000000;stroke-width:0.71;}
	.st8{fill:#D90000;}
	.st9{stroke:#000000;stroke-width:0.71;}
	.st10{fill:#FFFFFF;stroke:#000000;stroke-width:0.71;}
	.st11{fill:none;stroke:#000000;stroke-width:0.71;}
	.st12{font-size:12px;}
	.st13{fill:none;stroke:#000000;stroke-width:0.25;}
	.st14{stroke:#000000;}
	.st15{fill:#D7EFC5;stroke:#000000;stroke-width:0.51;stroke-miterlimit:10;}
	.st16{opacity:0.91;enable-background:new    ;}
	.st17{font-size:20px;}
</style>
<g id="viewport-20230509130702449">
	<path class="st0" d="M66,362.3h20.8v6.2H66V362.3z"/>
	<path class="st1" d="M74.2,365.4h4.5"/>
	<path class="st0" d="M66,353.6h20.8v6.2H66V353.6z"/>
	<path class="st1" d="M74.2,356.7h4.5"/>
	<path class="st0" d="M66,325.3h20.8v6.2H66V325.3z"/>
	<path class="st1" d="M74.2,328.4h4.5"/>
	<path class="st0" d="M66,316.6h20.8v6.2H66V316.6z"/>
	<path class="st1" d="M74.2,319.7h4.5"/>
	<path class="st0" d="M66,307.9h20.8v6.2H66V307.9z"/>
	<path class="st1" d="M74.2,311h4.5"/>
	<path class="st0" d="M66,299.2h20.8v6.2H66V299.2z"/>
	<path class="st1" d="M74.2,302.3h4.5"/>
	<path class="st0" d="M66,247.6h20.8v6.2H66V247.6z"/>
	<path class="st1" d="M74.2,250.7h4.5"/>
	<path class="st0" d="M66,238.9h20.8v6.2H66V238.9z"/>
	<path class="st1" d="M74.2,242h4.5"/>
	<path class="st0" d="M66,230.2h20.8v6.2H66V230.2z"/>
	<path class="st1" d="M74.2,233.3h4.5"/>
	<path class="st0" d="M66,221.6h20.8v6.2H66V221.6z"/>
	<path class="st1" d="M74.2,224.6h4.5"/>
	<path class="st0" d="M66,212.9h20.8v6.2H66V212.9z"/>
	<path class="st1" d="M74.2,216h4.5"/>
	<path class="st0" d="M66,204.2h20.8v6.2H66V204.2z"/>
	<path class="st1" d="M74.2,207.3h4.5"/>
	<path class="st0" d="M66,164.1h20.8v6.2H66V164.1z"/>
	<path class="st1" d="M74.2,167.1h4.5"/>
	<path class="st0" d="M66,155.4h20.8v6.2H66V155.4z"/>
	<path class="st1" d="M74.2,158.5h4.5"/>
	<path class="st0" d="M66,146.7h20.8v6.2H66V146.7z"/>
	<path class="st1" d="M74.2,149.8h4.5"/>
	<path class="st1" d="M74.2,141.1h4.5"/>
	<path class="st0" d="M66,129.3h20.8v6.2H66V129.3z"/>
	<path class="st1" d="M74.2,132.4h4.5"/>
	<path class="st0" d="M66,120.6h20.8v6.2H66V120.6z"/>
	<path class="st1" d="M74.2,123.7h4.5"/>
	<path class="st0" d="M66,111.9h20.8v6.2H66V111.9z"/>
	<path class="st1" d="M74.2,115h4.5"/>
	<path class="st0" d="M66,103.3h20.8v6.2H66V103.3z"/>
	<path class="st1" d="M74.2,106.4h4.5"/>
	<path class="st0" d="M66,94.6h20.8v6.2H66V94.6z"/>
	<path class="st1" d="M74.2,97.7h4.5"/>
	<path class="st0" d="M101,362.3h20.8v6.2H101V362.3z"/>
	<path class="st1" d="M109.2,365.4h4.5"/>
	<path class="st0" d="M101,353.6h20.8v6.2H101V353.6z"/>
	<path class="st1" d="M109.2,356.7h4.5"/>
	<path class="st0" d="M101,345h20.8v6.2H101V345z"/>
	<path class="st1" d="M109.2,348h4.5"/>
	<path class="st0" d="M101,336.3h20.8v6.2H101V336.3z"/>
	<path class="st1" d="M109.2,339.4h4.5"/>
	<path class="st0" d="M101,327.6h20.8v6.2H101V327.6z"/>
	<path class="st1" d="M109.2,330.7h4.5"/>
	<path class="st0" d="M101,318.9h20.8v6.2H101V318.9z"/>
	<path class="st1" d="M109.2,322h4.5"/>
	<path class="st1" d="M109.2,313.3h4.5"/>
	<path class="st0" d="M127.4,362.3h20.8v6.2h-20.8C127.4,368.5,127.4,362.3,127.4,362.3z"/>
	<path class="st1" d="M135.5,365.4h4.5"/>
	<path class="st1" d="M135.5,356.7h4.5"/>
	<path class="st0" d="M127.4,345h20.8v6.2h-20.8C127.4,351.2,127.4,345,127.4,345z"/>
	<path class="st1" d="M135.5,348h4.5"/>
	<path class="st0" d="M301.3,362.3h20.8v6.2h-20.8V362.3z"/>
	<path class="st1" d="M309.5,365.4h4.5"/>
	<path class="st0" d="M301.3,353.6h20.8v6.2h-20.8V353.6z"/>
	<path class="st1" d="M309.5,356.7h4.5"/>
	<path class="st0" d="M301.3,345h20.8v6.2h-20.8V345z"/>
	<path class="st1" d="M309.5,348h4.5"/>
	<path class="st0" d="M301.3,336.3h20.8v6.2h-20.8V336.3z"/>
	<path class="st1" d="M309.5,339.4h4.5"/>
	<path class="st0" d="M301.3,327.6h20.8v6.2h-20.8V327.6z"/>
	<path class="st1" d="M309.5,330.7h4.5"/>
	<path class="st0" d="M301.3,318.9h20.8v6.2h-20.8V318.9z"/>
	<path class="st1" d="M309.5,322h4.5"/>
	<path class="st0" d="M301.3,310.2h20.8v6.2h-20.8V310.2z"/>
	<path class="st1" d="M309.5,313.3h4.5"/>
	<path class="st0" d="M353.7,362.3h20.8v6.2h-20.8V362.3z"/>
	<path class="st1" d="M361.9,365.4h4.5"/>
	<path class="st0" d="M353.7,353.6h20.8v6.2h-20.8V353.6z"/>
	<path class="st1" d="M361.9,356.7h4.5"/>
	<path class="st0" d="M353.7,345h20.8v6.2h-20.8V345z"/>
	<path class="st1" d="M361.9,348h4.5"/>
	<path class="st1" d="M361.9,339.4h4.5"/>
	<path class="st1" d="M361.9,330.7h4.5"/>
	<path class="st1" d="M361.9,322h4.5"/>
	<path class="st1" d="M361.9,313.3h4.5"/>
	<path class="st0" d="M353.7,301.5h20.8v6.2h-20.8V301.5z"/>
	<path class="st1" d="M361.9,304.6h4.5"/>
	<path class="st0" d="M353.7,292.9h20.8v6.1h-20.8V292.9z"/>
	<path class="st1" d="M361.9,296h4.5"/>
	<path class="st2" d="M22.7,371.6c0,1.6-1.3,2.9-2.9,2.9s-2.9-1.3-2.9-2.9s1.3-2.9,2.9-2.9S22.7,369.9,22.7,371.6L22.7,371.6z"/>
	<path class="st2" d="M31.4,371.6c0,1.6-1.3,2.9-2.9,2.9s-2.9-1.3-2.9-2.9s1.3-2.9,2.9-2.9S31.4,369.9,31.4,371.6L31.4,371.6z"/>
	<g id="text1002">
		<text transform="matrix(1 0 0 1 34.05 374.66)" class="st3 st4">   </text>
		<text transform="matrix(1 0 0 1 34.05 374.66)" class="st5 st3 st6">R</text>
	</g>
	<g id="text1004">
		<text transform="matrix(1 0 0 1 42.97 374.66)" class="st3 st4">   </text>
		<text transform="matrix(1 0 0 1 42.97 374.66)" class="st5 st3 st6">A</text>
	</g>
	<path class="st2" d="M57.5,371.6c0,1.6-1.3,2.9-2.9,2.9s-2.9-1.3-2.9-2.9s1.3-2.9,2.9-2.9S57.5,369.9,57.5,371.6L57.5,371.6z"/>
	<path class="st2" d="M66.2,371.6c0,1.6-1.3,2.9-2.9,2.9s-2.9-1.3-2.9-2.9s1.3-2.9,2.9-2.9C64.8,368.6,66.2,369.9,66.2,371.6
		L66.2,371.6z"/>
	<g id="text1006">
		<text transform="matrix(1 0 0 1 66.24 368.52)" class="st3 st4">   </text>
		<text transform="matrix(1 0 0 1 66.24 368.52)" class="st5 st3 st6">R</text>
	</g>
	<g id="text1008">
		<text transform="matrix(1 0 0 1 66.48 359.83)" class="st3 st4">   </text>
		<text transform="matrix(1 0 0 1 66.48 359.83)" class="st3 st6">Y</text>
	</g>
	<path class="st7" d="M63.7,357.9c0,1.6-1.3,2.9-2.9,2.9s-2.9-1.3-2.9-2.9s1.3-2.9,2.9-2.9S63.7,356.3,63.7,357.9L63.7,357.9z"/>
	<path class="st7" d="M55.8,354.2c0,1.6-1.3,2.9-2.9,2.9s-2.9-1.3-2.9-2.9s1.3-2.9,2.9-2.9S55.8,352.6,55.8,354.2L55.8,354.2z"/>
	<g id="text1010">
		<text transform="matrix(1 0 0 1 45.09 349.98)" class="st3 st4">   </text>
		<text transform="matrix(1 0 0 1 45.09 349.98)" class="st5 st3 st6">U</text>
	</g>
	<g id="text1012">
		<text transform="matrix(1 0 0 1 45.09 341.3)" class="st3 st4">   </text>
		<text transform="matrix(1 0 0 1 45.09 341.3)" class="st5 st3 st6">R</text>
	</g>
	<g id="text1014">
		<text transform="matrix(1 0 0 1 50 333.97)" class="st3 st4">   </text>
		<text transform="matrix(1 0 0 1 50 333.97)" class="st5 st3 st6">A</text>
	</g>
	<path class="st7" d="M63.7,327.2c0,1.6-1.3,2.9-2.9,2.9c-1.6,0-2.9-1.3-2.9-2.9l0,0l0,0c0-1.6,1.3-2.9,2.9-2.9
		C62.4,324.3,63.7,325.6,63.7,327.2z"/>
	<path class="st2" d="M72.3,328.4c0,1.6-1.3,2.9-2.9,2.9s-2.9-1.3-2.9-2.9s1.3-2.9,2.9-2.9S72.3,326.7,72.3,328.4L72.3,328.4z"/>
	<g id="text1016">
		<text transform="matrix(1 0 0 1 66.24 322.76)" class="st3 st4">   </text>
		<text transform="matrix(1 0 0 1 66.24 322.76)" class="st3 st6">R</text>
	</g>
	<g id="text1018">
		<text transform="matrix(1 0 0 1 66.24 314.08)" class="st3 st4">   </text>
		<text transform="matrix(1 0 0 1 66.24 314.08)" class="st8 st3 st6">R</text>
	</g>
	<g id="text1020">
		<text transform="matrix(1 0 0 1 66.24 305.39)" class="st3 st4">   </text>
		<text transform="matrix(1 0 0 1 66.24 305.39)" class="st8 st3 st6">R</text>
	</g>
	<g id="text1022">
		<text transform="matrix(1 0 0 1 58.35 301.78)" class="st3 st4">   </text>
		<text transform="matrix(1 0 0 1 58.35 301.78)" class="st5 st3 st6">R</text>
	</g>
	<g id="text1024">
		<text transform="matrix(1 0 0 1 52.02 295.83)" class="st3 st4">   </text>
		<text transform="matrix(1 0 0 1 52.02 295.83)" class="st5 st3 st6">R</text>
	</g>
	<path class="st9" d="M54,285.1c0,1.6-1.3,2.9-2.9,2.9s-2.9-1.3-2.9-2.9s1.3-2.9,2.9-2.9S54,283.4,54,285.1L54,285.1z"/>
	<g id="text1026">
		<text transform="matrix(1 0 0 1 46.77 279.59)" class="st3 st4">   </text>
		<text transform="matrix(1 0 0 1 46.77 279.59)" class="st8 st3 st6">A</text>
	</g>
	<g id="text1028">
		<text transform="matrix(1 0 0 1 47.7 271.03)" class="st3 st4">   </text>
		<text transform="matrix(1 0 0 1 47.7 271.03)" class="st8 st3 st6">G</text>
	</g>
	<g id="text1030">
		<text transform="matrix(1 0 0 1 52.02 263.36)" class="st3 st4">   </text>
		<text transform="matrix(1 0 0 1 52.02 263.36)" class="st3 st6">U</text>
	</g>
	<g id="text1032">
		<text transform="matrix(1 0 0 1 58.58 257.41)" class="st3 st4">   </text>
		<text transform="matrix(1 0 0 1 58.58 257.41)" class="st8 st3 st6">A</text>
	</g>
	<g id="text1034">
		<text transform="matrix(1 0 0 1 66.24 253.79)" class="st3 st4">   </text>
		<text transform="matrix(1 0 0 1 66.24 253.79)" class="st5 st3 st6">R</text>
	</g>
	<path class="st2" d="M72.3,242c0,1.6-1.3,2.9-2.9,2.9s-2.9-1.3-2.9-2.9c0-1.6,1.3-2.9,2.9-2.9S72.3,240.4,72.3,242L72.3,242z"/>
	<path class="st2" d="M72.3,233.3c0,1.6-1.3,2.9-2.9,2.9s-2.9-1.3-2.9-2.9c0-1.6,1.3-2.9,2.9-2.9S72.3,231.7,72.3,233.3L72.3,233.3z
		"/>
	<path class="st2" d="M72.3,224.6c0,1.6-1.3,2.9-2.9,2.9s-2.9-1.3-2.9-2.9c0-1.6,1.3-2.9,2.9-2.9S72.3,223,72.3,224.6L72.3,224.6z"
		/>
	<path class="st2" d="M72.3,216c0,1.6-1.4,2.9-3,2.9s-2.9-1.4-2.9-3s1.3-2.9,2.9-2.9C71,213,72.3,214.3,72.3,216L72.3,216z"/>
	<path class="st2" d="M72.3,207.3c0,1.6-1.3,2.9-2.9,2.9s-2.9-1.3-2.9-2.9c0-1.6,1.3-2.9,2.9-2.9S72.3,205.7,72.3,207.3L72.3,207.3z
		"/>
	<path class="st2" d="M63.6,206.7c0,1.6-1.3,2.9-2.9,2.9c-1.6,0-2.9-1.3-2.9-2.9l0,0c0-1.6,1.3-2.9,2.9-2.9S63.6,205.1,63.6,206.7z"
		/>
	<path class="st9" d="M56,202.6c0,1.6-1.3,2.9-2.9,2.9c-1.6,0-2.9-1.3-2.9-2.9c0-1.6,1.3-2.9,2.9-2.9C54.6,199.7,56,200.9,56,202.6
		L56,202.6z"/>
	<path class="st10" d="M50.7,195.7c0,1.6-1.3,2.9-2.9,2.9s-2.9-1.3-2.9-2.9c0-1.6,1.3-2.9,2.9-2.9S50.7,194.1,50.7,195.7L50.7,195.7
		z"/>
	<path class="st10" d="M48.9,187.2c0,1.6-1.3,2.9-2.9,2.9c-1.6,0-2.9-1.3-2.9-2.9c0-1.6,1.3-2.9,2.9-2.9c0,0,0,0,0.1,0
		C47.6,184.3,48.9,185.6,48.9,187.2z"/>
	<path class="st2" d="M50.7,178.7c0,1.6-1.3,2.9-2.9,2.9s-2.9-1.3-2.9-2.9c0-1.6,1.3-2.9,2.9-2.9S50.7,177.1,50.7,178.7L50.7,178.7z
		"/>
	<path class="st2" d="M56,171.8c0,1.6-1.3,2.9-2.9,2.9c-1.6,0-2.9-1.3-2.9-2.9c0-1.6,1.3-2.9,2.9-2.9C54.6,168.8,56,170.1,56,171.8
		L56,171.8z"/>
	<path class="st2" d="M63.6,167.7c0,1.6-1.3,2.9-2.9,2.9s-2.9-1.3-2.9-2.9c0-1.6,1.3-2.9,2.9-2.9S63.6,166.1,63.6,167.7L63.6,167.7z
		"/>
	<path class="st2" d="M72.3,167.1c0,1.6-1.3,2.9-2.9,2.9s-2.9-1.3-2.9-2.9c0-1.6,1.3-2.9,2.9-2.9S72.3,165.5,72.3,167.1L72.3,167.1z
		"/>
	<path class="st2" d="M72.3,158.5c0,1.6-1.3,2.9-2.9,2.9s-2.9-1.3-2.9-2.9c0-1.6,1.3-2.9,2.9-2.9S72.3,156.8,72.3,158.5L72.3,158.5z
		"/>
	<g id="text1036">
		<text transform="matrix(1 0 0 1 66.48 152.87)" class="st3 st4">   </text>
		<text transform="matrix(1 0 0 1 66.48 152.87)" class="st5 st3 st6">Y</text>
	</g>
	<g id="text1038">
		<text transform="matrix(1 0 0 1 61.37 159.9)" class="st3 st4">   </text>
		<text transform="matrix(1 0 0 1 61.37 159.9)" class="st5 st3 st6">Y</text>
	</g>
	<path class="st2" d="M58.9,159.5c0,1.6-1.3,2.9-2.9,2.9c-1.6,0-2.9-1.3-2.9-2.9c0-1.6,1.3-2.9,2.9-2.9l0,0
		C57.6,156.6,58.9,157.9,58.9,159.5z"/>
	<path class="st2" d="M50.7,156.8c0,1.6-1.3,2.9-2.9,2.9s-2.9-1.3-2.9-2.9c0-1.6,1.3-2.9,2.9-2.9S50.7,155.2,50.7,156.8L50.7,156.8z
		"/>
	<g id="text1040">
		<text transform="matrix(1 0 0 1 39.75 152.87)" class="st3 st4">   </text>
		<text transform="matrix(1 0 0 1 39.75 152.87)" class="st8 st3 st6">A</text>
	</g>
	<g id="text1042">
		<text transform="matrix(1 0 0 1 39.27 144.19)" class="st3 st4">   </text>
		<text transform="matrix(1 0 0 1 39.27 144.19)" class="st8 st3 st6">G</text>
	</g>
	<g id="text1044">
		<text transform="matrix(1 0 0 1 44.86 137.16)" class="st3 st4">   </text>
		<text transform="matrix(1 0 0 1 44.86 137.16)" class="st5 st3 st6">A</text>
	</g>
	<g id="text1046">
		<text transform="matrix(1 0 0 1 52.64 134.48)" class="st3 st4">   </text>
		<text transform="matrix(1 0 0 1 52.64 134.48)" class="st8 st3 st6">G</text>
	</g>
	<g id="text1048">
		<text transform="matrix(1 0 0 1 61.37 137.16)" class="st3 st4">   </text>
		<text transform="matrix(1 0 0 1 61.37 137.16)" class="st3 st6">A</text>
	</g>
	<g id="text1050">
		<text transform="matrix(1 0 0 1 66 144.19)" class="st3 st4">   </text>
		<text transform="matrix(1 0 0 1 66 144.19)" class="st5 st3 st6">G</text>
	</g>
	<path class="st2" d="M72.3,132.4c0,1.6-1.3,2.9-2.9,2.9s-2.9-1.3-2.9-2.9c0-1.6,1.3-2.9,2.9-2.9S72.3,130.8,72.3,132.4L72.3,132.4z
		"/>
	<path class="st2" d="M72.3,123.7c0,1.6-1.3,2.9-2.9,2.9s-2.9-1.3-2.9-2.9s1.3-2.9,2.9-2.9S72.3,122.1,72.3,123.7L72.3,123.7z"/>
	<path class="st2" d="M72.3,115c0,1.6-1.3,2.9-2.9,2.9s-2.9-1.3-2.9-2.9s1.3-2.9,2.9-2.9S72.3,113.4,72.3,115L72.3,115z"/>
	<g id="text1052">
		<text transform="matrix(1 0 0 1 66.24 109.45)" class="st3 st4">   </text>
		<text transform="matrix(1 0 0 1 66.24 109.45)" class="st5 st3 st6">R</text>
	</g>
	<path class="st2" d="M72.3,97.7c0,1.6-1.3,2.9-2.9,2.9s-2.9-1.3-2.9-2.9s1.3-2.9,2.9-2.9S72.3,96,72.3,97.7L72.3,97.7z"/>
	<g id="text1054">
		<text transform="matrix(1 0 0 1 58.88 95.8)" class="st3 st4">   </text>
		<text transform="matrix(1 0 0 1 58.88 95.8)" class="st5 st3 st6">G</text>
	</g>
	<g id="text1056">
		<text transform="matrix(1 0 0 1 54.94 88.19)" class="st3 st4">   </text>
		<text transform="matrix(1 0 0 1 54.94 88.19)" class="st5 st3 st6">R</text>
	</g>
	<g id="text1058">
		<text transform="matrix(1 0 0 1 54.59 79.51)" class="st3 st4">   </text>
		<text transform="matrix(1 0 0 1 54.59 79.51)" class="st5 st3 st6">U</text>
	</g>
	<path class="st7" d="M64.2,68.5c0,1.6-1.3,2.9-2.9,2.9s-2.9-1.3-2.9-2.9s1.3-2.9,2.9-2.9l0,0C62.9,65.5,64.2,66.9,64.2,68.5z"/>
	<g id="text1060">
		<text transform="matrix(1 0 0 1 64.58 66.04)" class="st3 st4">   </text>
		<text transform="matrix(1 0 0 1 64.58 66.04)" class="st5 st3 st6">G</text>
	</g>
	<path class="st2" d="M79.3,61c0,1.6-1.4,2.9-3,2.9s-2.9-1.4-2.9-3s1.3-2.9,2.9-2.9C78,58,79.3,59.3,79.3,61L79.3,61z"/>
	<g id="text1062">
		<text transform="matrix(1 0 0 1 81.73 66.04)" class="st3 st4">   </text>
		<text transform="matrix(1 0 0 1 81.73 66.04)" class="st8 st3 st6">U</text>
	</g>
	<g id="text1064">
		<text transform="matrix(1 0 0 1 88.18 71.58)" class="st3 st4">   </text>
		<text transform="matrix(1 0 0 1 88.18 71.58)" class="st8 st3 st6">G</text>
	</g>
	<path class="st2" d="M98,76.4c0,1.6-1.3,2.9-2.9,2.9s-2.9-1.3-2.9-2.9s1.3-2.9,2.9-2.9S98,74.8,98,76.4L98,76.4z"/>
	<g id="text1066">
		<text transform="matrix(1 0 0 1 91.6 88.19)" class="st3 st4">   </text>
		<text transform="matrix(1 0 0 1 91.6 88.19)" class="st8 st3 st6">R</text>
	</g>
	<g id="text1068">
		<text transform="matrix(1 0 0 1 87.66 95.8)" class="st3 st4">   </text>
		<text transform="matrix(1 0 0 1 87.66 95.8)" class="st8 st3 st6">A</text>
	</g>
	<g id="text1070">
		<text transform="matrix(1 0 0 1 80.3 100.77)" class="st3 st4">   </text>
		<text transform="matrix(1 0 0 1 80.3 100.77)" class="st5 st3 st6">R</text>
	</g>
	<g id="text1072">
		<text transform="matrix(1 0 0 1 80.54 109.45)" class="st3 st4">   </text>
		<text transform="matrix(1 0 0 1 80.54 109.45)" class="st5 st3 st6">Y</text>
	</g>
	<path class="st2" d="M86.3,115c0,1.6-1.3,2.9-2.9,2.9s-2.9-1.3-2.9-2.9s1.3-2.9,2.9-2.9S86.3,113.4,86.3,115L86.3,115z"/>
	<path class="st2" d="M86.3,123.7c0,1.6-1.3,2.9-2.9,2.9s-2.9-1.3-2.9-2.9s1.3-2.9,2.9-2.9S86.3,122.1,86.3,123.7L86.3,123.7z"/>
	<path class="st2" d="M86.3,132.4c0,1.6-1.3,2.9-2.9,2.9s-2.9-1.3-2.9-2.9c0-1.6,1.3-2.9,2.9-2.9S86.3,130.8,86.3,132.4L86.3,132.4z
		"/>
	<g id="text1074">
		<text transform="matrix(1 0 0 1 80.54 144.19)" class="st3 st4">   </text>
		<text transform="matrix(1 0 0 1 80.54 144.19)" class="st3 st6">Y</text>
	</g>
	<path class="st2" d="M86.3,149.8c0,1.6-1.3,2.9-2.9,2.9s-2.9-1.3-2.9-2.9c0-1.6,1.3-2.9,2.9-2.9S86.3,148.2,86.3,149.8L86.3,149.8z
		"/>
	<path class="st2" d="M86.3,158.5c0,1.6-1.3,2.9-2.9,2.9s-2.9-1.3-2.9-2.9c0-1.6,1.3-2.9,2.9-2.9S86.3,156.8,86.3,158.5L86.3,158.5z
		"/>
	<path class="st2" d="M86.3,167.1c0,1.6-1.3,2.9-2.9,2.9s-2.9-1.3-2.9-2.9c0-1.6,1.3-2.9,2.9-2.9S86.3,165.5,86.3,167.1L86.3,167.1z
		"/>
	<path class="st2" d="M93.8,171.6c0,1.6-1.3,2.9-2.9,2.9s-2.9-1.3-2.9-2.9c0-1.6,1.3-2.9,2.9-2.9S93.8,170,93.8,171.6L93.8,171.6z"
		/>
	<g id="text1076">
		<text transform="matrix(1 0 0 1 92.76 181.81)" class="st3 st4">   </text>
		<text transform="matrix(1 0 0 1 92.76 181.81)" class="st5 st3 st6">R</text>
	</g>
	<path class="st2" d="M100.6,187.2c0,1.6-1.3,2.9-2.9,2.9s-2.9-1.3-2.9-2.9c0-1.6,1.3-2.9,2.9-2.9S100.6,185.6,100.6,187.2
		L100.6,187.2z"/>
	<path class="st7" d="M98.8,195.7c0,1.6-1.3,2.9-2.9,2.9s-2.9-1.3-2.9-2.9c0-1.6,1.3-2.9,2.9-2.9S98.8,194.1,98.8,195.7L98.8,195.7z
		"/>
	<path class="st2" d="M93.8,202.8c0,1.6-1.3,2.9-2.9,2.9s-2.9-1.3-2.9-2.9c0-1.6,1.3-2.9,2.9-2.9S93.8,201.2,93.8,202.8L93.8,202.8z
		"/>
	<path class="st2" d="M86.3,207.3c0,1.6-1.3,2.9-2.9,2.9s-2.9-1.3-2.9-2.9c0-1.6,1.3-2.9,2.9-2.9S86.3,205.7,86.3,207.3L86.3,207.3z
		"/>
	<path class="st2" d="M86.3,216c0,1.6-1.4,2.9-3,2.9s-2.9-1.4-2.9-3s1.3-2.9,2.9-2.9C85,213,86.4,214.3,86.3,216
		C86.4,216,86.4,216,86.3,216z"/>
	<path class="st2" d="M86.3,224.6c0,1.6-1.3,2.9-2.9,2.9s-2.9-1.3-2.9-2.9c0-1.6,1.3-2.9,2.9-2.9S86.3,223,86.3,224.6L86.3,224.6z"
		/>
	<path class="st2" d="M86.3,233.3c0,1.6-1.3,2.9-2.9,2.9s-2.9-1.3-2.9-2.9c0-1.6,1.3-2.9,2.9-2.9S86.3,231.7,86.3,233.3L86.3,233.3z
		"/>
	<path class="st2" d="M86.3,242c0,1.6-1.3,2.9-2.9,2.9s-2.9-1.3-2.9-2.9c0-1.6,1.3-2.9,2.9-2.9S86.3,240.4,86.3,242L86.3,242z"/>
	<g id="text1078">
		<text transform="matrix(1 0 0 1 80.54 253.79)" class="st3 st4">   </text>
		<text transform="matrix(1 0 0 1 80.54 253.79)" class="st5 st3 st6">Y</text>
	</g>
	<g id="text1080">
		<text transform="matrix(1 0 0 1 88.54 255.69)" class="st3 st4">   </text>
		<text transform="matrix(1 0 0 1 88.54 255.69)" class="st8 st3 st6">G</text>
	</g>
	<g id="text1082">
		<text transform="matrix(1 0 0 1 96.38 260.28)" class="st3 st4">   </text>
		<text transform="matrix(1 0 0 1 96.38 260.28)" class="st8 st3 st6">A</text>
	</g>
	<g id="text1084">
		<text transform="matrix(1 0 0 1 101.81 267.06)" class="st3 st4">   </text>
		<text transform="matrix(1 0 0 1 101.81 267.06)" class="st3 st6">A</text>
	</g>
	<path class="st10" d="M110.5,272.2c0,1.6-1.3,3-2.9,3s-3-1.3-3-2.9s1.3-3,2.9-3h0.1C109.2,269.3,110.5,270.6,110.5,272.2z"/>
	<path class="st2" d="M110.5,280.9c0,1.6-1.3,3-2.9,3s-3-1.3-3-2.9s1.3-3,2.9-3h0.1C109.2,278,110.5,279.3,110.5,280.9z"/>
	<path class="st2" d="M107.6,289c0,1.6-1.3,2.9-2.9,2.9s-2.9-1.3-2.9-2.9s1.3-2.9,2.9-2.9S107.6,287.4,107.6,289L107.6,289z"/>
	<path class="st2" d="M102.2,295.8c0,1.6-1.3,2.9-2.9,2.9s-2.9-1.3-2.9-2.9s1.3-2.9,2.9-2.9S102.2,294.2,102.2,295.8L102.2,295.8z"
		/>
	<g id="text1086">
		<text transform="matrix(1 0 0 1 88.78 303.5)" class="st3 st4">   </text>
		<text transform="matrix(1 0 0 1 88.78 303.5)" class="st3 st6">R</text>
	</g>
	<g id="text1088">
		<text transform="matrix(1 0 0 1 80.3 305.39)" class="st3 st4">   </text>
		<text transform="matrix(1 0 0 1 80.3 305.39)" class="st5 st3 st6">C</text>
	</g>
	<g id="text1090">
		<text transform="matrix(1 0 0 1 80.54 314.08)" class="st3 st4">   </text>
		<text transform="matrix(1 0 0 1 80.54 314.08)" class="st8 st3 st6">Y</text>
	</g>
	<g id="text1092">
		<text transform="matrix(1 0 0 1 80.54 322.76)" class="st3 st4">   </text>
		<text transform="matrix(1 0 0 1 80.54 322.76)" class="st3 st6">Y</text>
	</g>
	<path class="st2" d="M86.3,328.4c0,1.6-1.3,2.9-2.9,2.9s-2.9-1.3-2.9-2.9s1.3-2.9,2.9-2.9S86.3,326.7,86.3,328.4L86.3,328.4z"/>
	<path class="st7" d="M92.8,334.2c0,1.6-1.3,2.9-2.9,2.9s-2.9-1.3-2.9-2.9s1.3-2.9,2.9-2.9S92.8,332.6,92.8,334.2L92.8,334.2z"/>
	<g id="text1094">
		<text transform="matrix(1 0 0 1 88.87 345.64)" class="st3 st4">   </text>
		<text transform="matrix(1 0 0 1 88.87 345.64)" class="st5 st3 st6">G</text>
	</g>
	<g id="text1096">
		<text transform="matrix(1 0 0 1 86.96 353.99)" class="st3 st4">   </text>
		<text transform="matrix(1 0 0 1 86.96 353.99)" class="st5 st3 st6">A</text>
	</g>
	<g id="text1098">
		<text transform="matrix(1 0 0 1 80.06 359.83)" class="st3 st4">   </text>
		<text transform="matrix(1 0 0 1 80.06 359.83)" class="st5 st3 st6">G</text>
	</g>
	<g id="text1100">
		<text transform="matrix(1 0 0 1 80.54 368.52)" class="st3 st4">   </text>
		<text transform="matrix(1 0 0 1 80.54 368.52)" class="st5 st3 st6">Y</text>
	</g>
	<path class="st7" d="M92.5,371.6c0,1.6-1.3,2.9-2.9,2.9s-2.9-1.3-2.9-2.9s1.3-2.9,2.9-2.9S92.5,369.9,92.5,371.6L92.5,371.6z"/>
	<path class="st2" d="M101.2,371.6c0,1.6-1.3,2.9-2.9,2.9s-2.9-1.3-2.9-2.9s1.3-2.9,2.9-2.9S101.2,369.9,101.2,371.6L101.2,371.6z"
		/>
	<path class="st9" d="M107.3,365.4c0,1.6-1.3,2.9-2.9,2.9s-2.9-1.3-2.9-2.9s1.3-2.9,2.9-2.9S107.3,363.8,107.3,365.4L107.3,365.4z"
		/>
	<path class="st9" d="M107.3,356.7c0,1.6-1.3,2.9-2.9,2.9s-2.9-1.3-2.9-2.9s1.3-2.9,2.9-2.9S107.3,355.1,107.3,356.7L107.3,356.7z"
		/>
	<path class="st7" d="M107.3,348c0,1.6-1.3,2.9-2.9,2.9s-2.9-1.3-2.9-2.9s1.3-2.9,2.9-2.9S107.3,346.4,107.3,348L107.3,348z"/>
	<path class="st9" d="M107.3,339.4c0,1.6-1.3,2.9-2.9,2.9s-2.9-1.3-2.9-2.9s1.3-2.9,2.9-2.9S107.3,337.7,107.3,339.4L107.3,339.4z"
		/>
	<path class="st9" d="M107.3,330.7c0,1.6-1.3,2.9-2.9,2.9s-2.9-1.3-2.9-2.9s1.3-2.9,2.9-2.9S107.3,329.1,107.3,330.7L107.3,330.7z"
		/>
	<g id="text1102">
		<text transform="matrix(1 0 0 1 101.5 325.1)" class="st3 st4">   </text>
		<text transform="matrix(1 0 0 1 101.5 325.1)" class="st5 st3 st6">Y</text>
	</g>
	<path class="st7" d="M107.3,313.3c0,1.6-1.3,2.9-2.9,2.9s-2.9-1.3-2.9-2.9s1.3-2.9,2.9-2.9S107.3,311.7,107.3,313.3L107.3,313.3z"
		/>
	<g id="text1104">
		<text transform="matrix(1 0 0 1 93.77 312.02)" class="st3 st4">   </text>
		<text transform="matrix(1 0 0 1 93.77 312.02)" class="st5 st3 st6">R</text>
	</g>
	<g id="text1106">
		<text transform="matrix(1 0 0 1 88.59 305.05)" class="st3 st4">   </text>
		<text transform="matrix(1 0 0 1 88.59 305.05)" class="st5 st3 st6">R</text>
	</g>
	<g id="text1108">
		<text transform="matrix(1 0 0 1 86.79 296.61)" class="st3 st4">   </text>
		<text transform="matrix(1 0 0 1 86.79 296.61)" class="st5 st3 st6">A</text>
	</g>
	<path class="st10" d="M94,285c0,1.6-1.4,2.9-3,2.9s-2.9-1.4-2.9-3s1.4-2.9,3-2.9S94,283.3,94,285L94,285z"/>
	<path class="st10" d="M98.7,277.6c0,1.6-1.3,2.9-2.9,2.9s-2.9-1.3-2.9-2.9s1.3-2.9,2.9-2.9S98.7,276,98.7,277.6L98.7,277.6z"/>
	<path class="st10" d="M105.8,272.7c0,1.6-1.3,2.9-2.9,2.9s-2.9-1.3-2.9-2.9s1.3-2.9,2.9-2.9S105.8,271.1,105.8,272.7L105.8,272.7z"
		/>
	<path class="st10" d="M114.3,271c0,1.6-1.3,3-2.9,3s-3-1.3-3-2.9s1.3-3,2.9-3c0,0,0,0,0.1,0C113,268.1,114.3,269.4,114.3,271z"/>
	<path class="st7" d="M122.8,272.7c0,1.6-1.3,2.9-2.9,2.9s-2.9-1.3-2.9-2.9s1.3-2.9,2.9-2.9S122.8,271.1,122.8,272.7L122.8,272.7z"
		/>
	<path class="st7" d="M130,277.6c0,1.6-1.3,2.9-2.9,2.9s-2.9-1.3-2.9-2.9s1.3-2.9,2.9-2.9S130,276,130,277.6L130,277.6z"/>
	<path class="st7" d="M134.7,285c0,1.6-1.3,2.9-2.9,2.9s-2.9-1.3-2.9-2.9s1.3-2.9,2.9-2.9S134.7,283.4,134.7,285L134.7,285z"/>
	<path class="st7" d="M136.1,293.5c0,1.6-1.3,2.9-2.9,2.9s-2.9-1.3-2.9-2.9s1.3-2.9,2.9-2.9S136.1,291.9,136.1,293.5L136.1,293.5z"
		/>
	<path class="st7" d="M134,302c0,1.6-1.3,2.9-2.9,2.9s-2.9-1.3-2.9-2.9s1.3-2.9,2.9-2.9S134,300.4,134,302L134,302z"/>
	<g id="text1110">
		<text transform="matrix(1 0 0 1 123.06 312.02)" class="st3 st4">   </text>
		<text transform="matrix(1 0 0 1 123.06 312.02)" class="st5 st3 st6">A</text>
	</g>
	<g id="text1112">
		<text transform="matrix(1 0 0 1 115.33 316.41)" class="st3 st4">   </text>
		<text transform="matrix(1 0 0 1 115.33 316.41)" class="st5 st3 st6">R</text>
	</g>
	<g id="text1114">
		<text transform="matrix(1 0 0 1 115.33 325.1)" class="st3 st4">   </text>
		<text transform="matrix(1 0 0 1 115.33 325.1)" class="st5 st3 st6">R</text>
	</g>
	<path class="st9" d="M121.4,330.7c0,1.6-1.3,2.9-2.9,2.9s-2.9-1.3-2.9-2.9s1.3-2.9,2.9-2.9S121.4,329.1,121.4,330.7L121.4,330.7z"
		/>
	<path class="st9" d="M121.4,339.4c0,1.6-1.3,2.9-2.9,2.9s-2.9-1.3-2.9-2.9s1.3-2.9,2.9-2.9S121.4,337.7,121.4,339.4L121.4,339.4z"
		/>
	<path class="st7" d="M121.4,348c0,1.6-1.3,2.9-2.9,2.9s-2.9-1.3-2.9-2.9s1.3-2.9,2.9-2.9S121.4,346.4,121.4,348L121.4,348z"/>
	<path class="st9" d="M121.4,356.7c0,1.6-1.3,2.9-2.9,2.9s-2.9-1.3-2.9-2.9s1.3-2.9,2.9-2.9S121.4,355.1,121.4,356.7L121.4,356.7z"
		/>
	<path class="st9" d="M121.4,365.4c0,1.6-1.3,2.9-2.9,2.9s-2.9-1.3-2.9-2.9s1.3-2.9,2.9-2.9S121.4,363.8,121.4,365.4L121.4,365.4z"
		/>
	<path class="st7" d="M127.5,371.6c0,1.6-1.3,2.9-2.9,2.9s-2.9-1.3-2.9-2.9s1.3-2.9,2.9-2.9S127.5,369.9,127.5,371.6L127.5,371.6z"
		/>
	<g id="text1116">
		<text transform="matrix(1 0 0 1 127.61 368.52)" class="st3 st4">   </text>
		<text transform="matrix(1 0 0 1 127.61 368.52)" class="st5 st3 st6">C</text>
	</g>
	<g id="text1118">
		<text transform="matrix(1 0 0 1 127.37 359.83)" class="st3 st4">   </text>
		<text transform="matrix(1 0 0 1 127.37 359.83)" class="st3 st6">G</text>
	</g>
	<path class="st9" d="M133.7,348c0,1.6-1.3,2.9-2.9,2.9s-2.9-1.3-2.9-2.9s1.3-2.9,2.9-2.9S133.7,346.4,133.7,348L133.7,348z"/>
	<path class="st9" d="M128.8,340.9c0,1.6-1.3,2.9-2.9,2.9s-2.9-1.3-2.9-2.9s1.3-2.9,2.9-2.9S128.8,339.3,128.8,340.9L128.8,340.9z"
		/>
	<path class="st9" d="M129.8,332.3c0,1.6-1.3,2.9-2.9,2.9s-2.9-1.3-2.9-2.9s1.3-2.9,2.9-2.9S129.8,330.6,129.8,332.3L129.8,332.3z"
		/>
	<path class="st9" d="M136.3,326.5c0,1.6-1.3,2.9-2.9,2.9s-2.9-1.3-2.9-2.9s1.3-2.9,2.9-2.9S136.3,324.9,136.3,326.5L136.3,326.5z"
		/>
	<path class="st7" d="M145,326.5c0,1.6-1.3,2.9-2.9,2.9s-2.9-1.3-2.9-2.9s1.3-2.9,2.9-2.9S145,324.9,145,326.5L145,326.5z"/>
	<path class="st2" d="M151.5,332.3c0,1.6-1.3,2.9-2.9,2.9s-2.9-1.3-2.9-2.9s1.3-2.9,2.9-2.9S151.5,330.6,151.5,332.3L151.5,332.3z"
		/>
	<path class="st2" d="M152.6,340.9c0,1.6-1.3,2.9-2.9,2.9s-2.9-1.3-2.9-2.9s1.3-2.9,2.9-2.9S152.6,339.3,152.6,340.9L152.6,340.9z"
		/>
	<path class="st9" d="M147.7,348c0,1.6-1.3,2.9-2.9,2.9s-2.9-1.3-2.9-2.9s1.3-2.9,2.9-2.9S147.7,346.4,147.7,348L147.7,348z"/>
	<g id="text1120">
		<text transform="matrix(1 0 0 1 141.67 359.83)" class="st3 st4">   </text>
		<text transform="matrix(1 0 0 1 141.67 359.83)" class="st3 st6">C</text>
	</g>
	<g id="text1122">
		<text transform="matrix(1 0 0 1 141.43 368.52)" class="st3 st4">   </text>
		<text transform="matrix(1 0 0 1 141.43 368.52)" class="st5 st3 st6">G</text>
	</g>
	<g id="text1124">
		<text transform="matrix(1 0 0 1 147.81 374.66)" class="st3 st4">   </text>
		<text transform="matrix(1 0 0 1 147.81 374.66)" class="st8 st3 st6">U</text>
	</g>
	<g id="text1126">
		<text transform="matrix(1 0 0 1 156.49 374.66)" class="st3 st4">   </text>
		<text transform="matrix(1 0 0 1 156.49 374.66)" class="st8 st3 st6">U</text>
	</g>
	<g id="text1128">
		<text transform="matrix(1 0 0 1 165.41 374.66)" class="st3 st4">   </text>
		<text transform="matrix(1 0 0 1 165.41 374.66)" class="st8 st3 st6">A</text>
	</g>
	<path class="st10" d="M179.9,371.6c0,1.6-1.3,2.9-2.9,2.9s-2.9-1.3-2.9-2.9s1.3-2.9,2.9-2.9S179.9,369.9,179.9,371.6L179.9,371.6z"
		/>
	<path class="st10" d="M188.6,371.6c0,1.6-1.3,2.9-2.9,2.9s-2.9-1.3-2.9-2.9s1.3-2.9,2.9-2.9S188.6,369.9,188.6,371.6L188.6,371.6z"
		/>
	<path class="st7" d="M197.3,371.6c0,1.6-1.3,2.9-2.9,2.9s-2.9-1.3-2.9-2.9s1.3-2.9,2.9-2.9l0,0C196,368.6,197.3,369.9,197.3,371.6z
		"/>
	<path class="st9" d="M206,371.6c0,1.6-1.3,2.9-2.9,2.9s-2.9-1.3-2.9-2.9s1.3-2.9,2.9-2.9l0,0C204.7,368.6,206,369.9,206,371.6z"/>
	<path class="st2" d="M214.6,371.6c0,1.6-1.3,2.9-2.9,2.9s-2.9-1.3-2.9-2.9s1.3-2.9,2.9-2.9S214.6,369.9,214.6,371.6L214.6,371.6z"
		/>
	<path class="st2" d="M223.3,371.6c0,1.6-1.3,2.9-2.9,2.9s-2.9-1.3-2.9-2.9s1.3-2.9,2.9-2.9S223.3,369.9,223.3,371.6L223.3,371.6z"
		/>
	<path class="st2" d="M232,371.6c0,1.6-1.3,2.9-2.9,2.9s-2.9-1.3-2.9-2.9s1.3-2.9,2.9-2.9S232,369.9,232,371.6L232,371.6z"/>
	<path class="st2" d="M240.7,371.6c0,1.6-1.3,2.9-2.9,2.9s-2.9-1.3-2.9-2.9s1.3-2.9,2.9-2.9S240.7,369.9,240.7,371.6L240.7,371.6z"
		/>
	<path class="st2" d="M249.4,371.6c0,1.6-1.3,2.9-2.9,2.9s-2.9-1.3-2.9-2.9s1.3-2.9,2.9-2.9l0,0
		C248.1,368.6,249.4,369.9,249.4,371.6z"/>
	<path class="st2" d="M258.1,371.6c0,1.6-1.3,2.9-2.9,2.9s-2.9-1.3-2.9-2.9s1.3-2.9,2.9-2.9l0,0
		C256.7,368.6,258.1,369.9,258.1,371.6z"/>
	<g id="text1130">
		<text transform="matrix(1 0 0 1 260.7 374.66)" class="st3 st4">   </text>
		<text transform="matrix(1 0 0 1 260.7 374.66)" class="st5 st3 st6">R</text>
	</g>
	<g id="text1132">
		<text transform="matrix(1 0 0 1 269.62 374.66)" class="st3 st4">   </text>
		<text transform="matrix(1 0 0 1 269.62 374.66)" class="st5 st3 st6">A</text>
	</g>
	<g id="text1134">
		<text transform="matrix(1 0 0 1 277.83 374.66)" class="st3 st4">   </text>
		<text transform="matrix(1 0 0 1 277.83 374.66)" class="st3 st6">G</text>
	</g>
	<path class="st2" d="M292.8,371.6c0,1.6-1.3,2.9-2.9,2.9s-2.9-1.3-2.9-2.9s1.3-2.9,2.9-2.9S292.8,369.9,292.8,371.6L292.8,371.6z"
		/>
	<g id="text1136">
		<text transform="matrix(1 0 0 1 295.2 374.66)" class="st3 st4">   </text>
		<text transform="matrix(1 0 0 1 295.2 374.66)" class="st3 st6">G</text>
	</g>
	<path class="st2" d="M307.6,365.4c0,1.6-1.3,2.9-2.9,2.9s-2.9-1.3-2.9-2.9s1.3-2.9,2.9-2.9l0,0
		C306.3,362.5,307.6,363.8,307.6,365.4z"/>
	<path class="st2" d="M307.6,356.7c0,1.6-1.3,2.9-2.9,2.9s-2.9-1.3-2.9-2.9s1.3-2.9,2.9-2.9l0,0
		C306.3,353.8,307.6,355.1,307.6,356.7z"/>
	<path class="st2" d="M307.6,348c0,1.6-1.3,2.9-2.9,2.9s-2.9-1.3-2.9-2.9s1.3-2.9,2.9-2.9l0,0C306.3,345.1,307.6,346.4,307.6,348z"
		/>
	<path class="st2" d="M307.6,339.4c0,1.6-1.3,2.9-2.9,2.9s-2.9-1.3-2.9-2.9s1.3-2.9,2.9-2.9l0,0
		C306.3,336.4,307.6,337.8,307.6,339.4z"/>
	<path class="st2" d="M307.6,330.7c0,1.6-1.3,2.9-2.9,2.9s-2.9-1.3-2.9-2.9s1.3-2.9,2.9-2.9l0,0
		C306.3,327.8,307.6,329.1,307.6,330.7z"/>
	<path class="st2" d="M307.6,322c0,1.6-1.3,2.9-2.9,2.9s-2.9-1.3-2.9-2.9s1.3-2.9,2.9-2.9l0,0C306.3,319.1,307.6,320.4,307.6,322z"
		/>
	<path class="st2" d="M307.6,313.3c0,1.6-1.3,2.9-2.9,2.9s-2.9-1.3-2.9-2.9s1.3-2.9,2.9-2.9l0,0
		C306.3,310.4,307.6,311.7,307.6,313.3z"/>
	<path class="st10" d="M303.7,305.6c0,1.6-1.3,2.9-2.9,2.9s-2.9-1.3-2.9-2.9s1.3-2.9,2.9-2.9l0,0
		C302.4,302.6,303.7,303.9,303.7,305.6z"/>
	<path class="st10" d="M306.7,297.4c0,1.6-1.3,2.9-2.9,2.9s-2.9-1.3-2.9-2.9s1.3-2.9,2.9-2.9S306.7,295.8,306.7,297.4L306.7,297.4z"
		/>
	<path class="st10" d="M314.7,294c0,1.6-1.3,2.9-2.9,2.9s-2.9-1.3-2.9-2.9s1.3-2.9,2.9-2.9l0,0C313.3,291.1,314.7,292.4,314.7,294z"
		/>
	<path class="st7" d="M322.6,297.4c0,1.6-1.3,2.9-2.9,2.9s-2.9-1.3-2.9-2.9s1.3-2.9,2.9-2.9l0,0
		C321.3,294.5,322.6,295.8,322.6,297.4z"/>
	<path class="st9" d="M325.6,305.6c0,1.6-1.3,2.9-2.9,2.9s-2.9-1.3-2.9-2.9s1.3-2.9,2.9-2.9S325.6,303.9,325.6,305.6L325.6,305.6z"
		/>
	<path class="st2" d="M321.7,313.3c0,1.6-1.3,2.9-2.9,2.9s-2.9-1.3-2.9-2.9s1.3-2.9,2.9-2.9S321.7,311.7,321.7,313.3L321.7,313.3z"
		/>
	<path class="st2" d="M321.7,322c0,1.6-1.3,2.9-2.9,2.9s-2.9-1.3-2.9-2.9s1.3-2.9,2.9-2.9S321.7,320.4,321.7,322L321.7,322z"/>
	<path class="st2" d="M321.7,330.7c0,1.6-1.3,2.9-2.9,2.9s-2.9-1.3-2.9-2.9s1.3-2.9,2.9-2.9S321.7,329.1,321.7,330.7L321.7,330.7z"
		/>
	<path class="st2" d="M321.7,339.4c0,1.6-1.3,2.9-2.9,2.9s-2.9-1.3-2.9-2.9s1.3-2.9,2.9-2.9S321.7,337.7,321.7,339.4L321.7,339.4z"
		/>
	<path class="st2" d="M321.7,348c0,1.6-1.3,2.9-2.9,2.9s-2.9-1.3-2.9-2.9s1.3-2.9,2.9-2.9S321.7,346.4,321.7,348L321.7,348z"/>
	<path class="st2" d="M321.7,356.7c0,1.6-1.3,2.9-2.9,2.9s-2.9-1.3-2.9-2.9s1.3-2.9,2.9-2.9S321.7,355.1,321.7,356.7L321.7,356.7z"
		/>
	<g id="text1138">
		<text transform="matrix(1 0 0 1 315.87 368.52)" class="st3 st4">   </text>
		<text transform="matrix(1 0 0 1 315.87 368.52)" class="st5 st3 st6">Y</text>
	</g>
	<g id="text1140">
		<text transform="matrix(1 0 0 1 322.02 374.66)" class="st3 st4">   </text>
		<text transform="matrix(1 0 0 1 322.02 374.66)" class="st3 st6">A</text>
	</g>
	<g id="text1142">
		<text transform="matrix(1 0 0 1 330.7 374.66)" class="st3 st4">   </text>
		<text transform="matrix(1 0 0 1 330.7 374.66)" class="st8 st3 st6">A</text>
	</g>
	<path class="st2" d="M345.2,371.6c0,1.6-1.3,2.9-2.9,2.9s-2.9-1.3-2.9-2.9s1.3-2.9,2.9-2.9S345.2,369.9,345.2,371.6L345.2,371.6z"
		/>
	<g id="text1144">
		<text transform="matrix(1 0 0 1 348.07 374.66)" class="st3 st4">   </text>
		<text transform="matrix(1 0 0 1 348.07 374.66)" class="st5 st3 st6">Y</text>
	</g>
	<g id="text1146">
		<text transform="matrix(1 0 0 1 353.97 368.52)" class="st3 st4">   </text>
		<text transform="matrix(1 0 0 1 353.97 368.52)" class="st5 st3 st6">R</text>
	</g>
	<g id="text1148">
		<text transform="matrix(1 0 0 1 353.97 359.83)" class="st3 st4">   </text>
		<text transform="matrix(1 0 0 1 353.97 359.83)" class="st8 st3 st6">R</text>
	</g>
	<g id="text1150">
		<text transform="matrix(1 0 0 1 353.73 351.15)" class="st3 st4">   </text>
		<text transform="matrix(1 0 0 1 353.73 351.15)" class="st3 st6">G</text>
	</g>
	<g id="text1152">
		<text transform="matrix(1 0 0 1 353.73 342.46)" class="st3 st4">   </text>
		<text transform="matrix(1 0 0 1 353.73 342.46)" class="st8 st3 st6">G</text>
	</g>
	<g id="text1154">
		<text transform="matrix(1 0 0 1 348.39 349.12)" class="st3 st4">   </text>
		<text transform="matrix(1 0 0 1 348.39 349.12)" class="st8 st3 st6">U</text>
	</g>
	<g id="text1156">
		<text transform="matrix(1 0 0 1 339.6 350.62)" class="st3 st4">   </text>
		<text transform="matrix(1 0 0 1 339.6 350.62)" class="st8 st3 st6">G</text>
	</g>
	<g id="text1158">
		<text transform="matrix(1 0 0 1 332.08 346.28)" class="st3 st4">   </text>
		<text transform="matrix(1 0 0 1 332.08 346.28)" class="st8 st3 st6">G</text>
	</g>
	<g id="text1160">
		<text transform="matrix(1 0 0 1 329.58 338.12)" class="st3 st4">   </text>
		<text transform="matrix(1 0 0 1 329.58 338.12)" class="st5 st3 st6">Y</text>
	</g>
	<g id="text1162">
		<text transform="matrix(1 0 0 1 332.55 329.96)" class="st3 st4">   </text>
		<text transform="matrix(1 0 0 1 332.55 329.96)" class="st8 st3 st6">A</text>
	</g>
	<g id="text1164">
		<text transform="matrix(1 0 0 1 339.84 325.62)" class="st3 st4">   </text>
		<text transform="matrix(1 0 0 1 339.84 325.62)" class="st5 st3 st6">C</text>
	</g>
	<g id="text1166">
		<text transform="matrix(1 0 0 1 348.39 327.13)" class="st3 st4">   </text>
		<text transform="matrix(1 0 0 1 348.39 327.13)" class="st8 st3 st6">C</text>
	</g>
	<g id="text1168">
		<text transform="matrix(1 0 0 1 353.73 333.78)" class="st3 st4">   </text>
		<text transform="matrix(1 0 0 1 353.73 333.78)" class="st5 st3 st6">G</text>
	</g>
	<g id="text1170">
		<text transform="matrix(1 0 0 1 353.97 325.1)" class="st3 st4">   </text>
		<text transform="matrix(1 0 0 1 353.97 325.1)" class="st8 st3 st6">C</text>
	</g>
	<g id="text1172">
		<text transform="matrix(1 0 0 1 353.73 316.41)" class="st3 st4">   </text>
		<text transform="matrix(1 0 0 1 353.73 316.41)" class="st8 st3 st6">G</text>
	</g>
	<g id="text1174">
		<text transform="matrix(1 0 0 1 353.97 307.73)" class="st3 st4">   </text>
		<text transform="matrix(1 0 0 1 353.97 307.73)" class="st5 st3 st6">R</text>
	</g>
	<path class="st9" d="M360,296c0,1.6-1.3,2.9-2.9,2.9s-2.9-1.3-2.9-2.9s1.3-2.9,2.9-2.9l0,0C358.7,293.1,360,294.4,360,296z"/>
	<path class="st10" d="M356.1,288.2c0,1.6-1.3,2.9-2.9,2.9s-2.9-1.3-2.9-2.9s1.3-2.9,2.9-2.9S356.1,286.6,356.1,288.2L356.1,288.2z"
		/>
	<path class="st7" d="M359.1,280c0,1.6-1.3,2.9-2.9,2.9s-2.9-1.3-2.9-2.9s1.3-2.9,2.9-2.9S359.1,278.4,359.1,280L359.1,280z"/>
	<path class="st2" d="M367,276.6c0,1.6-1.3,2.9-2.9,2.9s-2.9-1.3-2.9-2.9s1.3-2.9,2.9-2.9l0,0C365.7,273.7,367,275,367,276.6z"/>
	<path class="st2" d="M375,280c0,1.6-1.3,2.9-2.9,2.9s-2.9-1.3-2.9-2.9s1.3-2.9,2.9-2.9l0,0C373.7,277.1,375,278.4,375,280z"/>
	<path class="st2" d="M378,288.2c0,1.6-1.3,2.9-2.9,2.9s-2.9-1.3-2.9-2.9s1.3-2.9,2.9-2.9S378,286.6,378,288.2L378,288.2z"/>
	<path class="st9" d="M374.1,296c0,1.6-1.3,2.9-2.9,2.9s-2.9-1.3-2.9-2.9s1.3-2.9,2.9-2.9S374.1,294.4,374.1,296L374.1,296z"/>
	<g id="text1176">
		<text transform="matrix(1 0 0 1 368.03 307.73)" class="st3 st4">   </text>
		<text transform="matrix(1 0 0 1 368.03 307.73)" class="st5 st3 st6">U</text>
	</g>
	<g id="text1178">
		<text transform="matrix(1 0 0 1 368.03 316.41)" class="st3 st4">   </text>
		<text transform="matrix(1 0 0 1 368.03 316.41)" class="st8 st3 st6">C</text>
	</g>
	<g id="text1180">
		<text transform="matrix(1 0 0 1 367.79 325.1)" class="st3 st4">   </text>
		<text transform="matrix(1 0 0 1 367.79 325.1)" class="st8 st3 st6">G</text>
	</g>
	<g id="text1182">
		<text transform="matrix(1 0 0 1 368.03 333.78)" class="st3 st4">   </text>
		<text transform="matrix(1 0 0 1 368.03 333.78)" class="st5 st3 st6">U</text>
	</g>
	<g id="text1184">
		<text transform="matrix(1 0 0 1 368.03 342.46)" class="st3 st4">   </text>
		<text transform="matrix(1 0 0 1 368.03 342.46)" class="st8 st3 st6">C</text>
	</g>
	<g id="text1186">
		<text transform="matrix(1 0 0 1 368.03 351.15)" class="st3 st4">   </text>
		<text transform="matrix(1 0 0 1 368.03 351.15)" class="st3 st6">C</text>
	</g>
	<g id="text1188">
		<text transform="matrix(1 0 0 1 368.27 359.83)" class="st3 st4">   </text>
		<text transform="matrix(1 0 0 1 368.27 359.83)" class="st8 st3 st6">Y</text>
	</g>
	<g id="text1190">
		<text transform="matrix(1 0 0 1 368.03 368.52)" class="st3 st4">   </text>
		<text transform="matrix(1 0 0 1 368.03 368.52)" class="st5 st3 st6">U</text>
	</g>
	<path class="st2" d="M380.2,371.6c0,1.6-1.3,2.9-2.9,2.9s-2.9-1.3-2.9-2.9s1.3-2.9,2.9-2.9S380.2,369.9,380.2,371.6L380.2,371.6z"
		/>
	<path class="st2" d="M388.9,371.6c0,1.6-1.3,2.9-2.9,2.9s-2.9-1.3-2.9-2.9s1.3-2.9,2.9-2.9S388.9,369.9,388.9,371.6L388.9,371.6z"
		/>
	<path class="st2" d="M397.6,371.6c0,1.6-1.3,2.9-2.9,2.9s-2.9-1.3-2.9-2.9s1.3-2.9,2.9-2.9S397.6,369.9,397.6,371.6L397.6,371.6z"
		/>
	<path class="st11" d="M11.1,371.6h4.3"/>
	<g id="text1192">
		<text transform="matrix(1 0 0 1 2.95 374.66)" class="st3 st4">   </text>
		<text transform="matrix(1 0 0 1 2.95 374.66)" class="st3 st6">5&apos;</text>
	</g>
</g>
<text transform="matrix(1 0 0 1 124.17 107.17)" class="st3 st12">Colours</text>
<text transform="matrix(1 0 0 1 124.17 107.17)" class="st13 st3 st12">Colours</text>
<text transform="matrix(1 0 0 1 124.17 121.57)" class="st3 st12">    Statistically significant basepair with covariation</text>
<text transform="matrix(1 0 0 1 124.17 135.97)" class="st3 st12">    97% conserved nucleotide</text>
<text transform="matrix(1 0 0 1 124.17 150.37)" class="st3 st12">    90% conserved nucleotide</text>
<text transform="matrix(1 0 0 1 124.17 164.77)" class="st3 st12">    75% conserved nucleotide</text>
<text transform="matrix(1 0 0 1 124.17 179.17)" class="st3 st12">    50% conserved nucleotide</text>
<text transform="matrix(1 0 0 1 124.17 207.97)" class="st3 st12">Nucleotides</text>
<text transform="matrix(1 0 0 1 124.17 207.97)" class="st13 st3 st12">Nucleotides</text>
<text transform="matrix(1 0 0 1 124.17 222.37)" class="st3 st12">R</text>
<text transform="matrix(1 0 0 1 124.17 222.37)" class="st13 st3 st12">R</text>
<text transform="matrix(1 0 0 1 132.84 222.37)" class="st3 st12">:</text>
<text transform="matrix(1 0 0 1 136.17 222.37)" class="st3 st12"> A</text>
<text transform="matrix(1 0 0 1 146.18 222.37)" class="st3 st12"> or G</text>
<text transform="matrix(1 0 0 1 124.17 236.77)" class="st3 st12">Y</text>
<text transform="matrix(1 0 0 1 124.17 236.77)" class="st13 st3 st12">Y</text>
<text transform="matrix(1 0 0 1 131.51 236.77)" class="st3 st12">: C or U</text>
<rect x="124.8" y="170.4" class="st10" width="9" height="9"/>
<rect x="124.8" y="156.3" class="st7" width="9" height="9"/>
<rect x="124.8" y="141.3" class="st14" width="9" height="9"/>
<rect x="124.7" y="127.3" class="st2" width="9" height="9"/>
<rect x="124.6" y="112.4" class="st15" width="9" height="9"/>
<text transform="matrix(1 0 0 1 16.8499 28.6554)" class="st16 st3 st17">T-box Riboswitch</text>
</svg>
