<?xml version="1.0" encoding="utf-8"?>
<!-- Generator: Adobe Illustrator 16.0.0, SVG Export Plug-In . SVG Version: 6.00 Build 0)  -->
<!DOCTYPE svg PUBLIC "-//W3C//DTD SVG 1.1//EN" "http://www.w3.org/Graphics/SVG/1.1/DTD/svg11.dtd">
<svg version="1.1" id="svg2403" xmlns:svg="http://www.w3.org/2000/svg"
	 xmlns="http://www.w3.org/2000/svg" xmlns:xlink="http://www.w3.org/1999/xlink" x="0px" y="0px" width="400px" height="400px"
	 viewBox="0 0 400 400" enable-background="new 0 0 400 400" xml:space="preserve">
<path fill="none" stroke="#000000" stroke-width="1.44" d="M215.309,169.735h6.512"/>
<path fill="#D7EFC5" d="M203.428,152.559L203.428,152.559h30.276v9.022h-30.276V152.559z"/>
<path fill="none" stroke="#000000" stroke-width="1.44" d="M215.309,157.072h6.512"/>
<path fill="#D7EFC5" d="M203.428,139.896L203.428,139.896h30.276v9.021h-30.276V139.896z"/>
<path fill="none" stroke="#000000" stroke-width="1.44" d="M215.309,144.406h6.512"/>
<path fill="#D7EFC5" d="M203.428,127.233L203.428,127.233h30.276v9.02h-30.276V127.233z"/>
<path fill="none" stroke="#000000" stroke-width="1.44" d="M215.309,131.743h6.512"/>
<path fill="none" stroke="#000000" stroke-width="1.44" d="M215.309,119.077h6.512"/>
<path fill="#D7EFC5" d="M203.428,101.904L203.428,101.904h30.276v9.021h-30.276V101.904z"/>
<path fill="none" stroke="#000000" stroke-width="1.44" d="M215.309,106.414h6.512"/>
<path fill="#D7EFC5" d="M203.428,89.239L203.428,89.239h30.276v9.021h-30.276V89.239z"/>
<path fill="none" stroke="#000000" stroke-width="1.44" d="M215.309,93.748h6.512"/>
<path fill="none" stroke="#000000" stroke-width="1.44" d="M27.59,46.887"/>
<path fill="none" stroke="#000000" stroke-width="1.44" d="M27.59,46.887"/>
<path fill="none" stroke="#000000" stroke-width="1.44" d="M27.59,46.887"/>
<path fill="none" stroke="#000000" stroke-width="1.44" d="M27.59,46.887"/>
<path fill="none" stroke="#000000" stroke-width="1.44" d="M27.59,46.887"/>
<path fill="none" stroke="#000000" stroke-width="1.44" d="M27.59,46.887"/>
<path fill="none" stroke="#000000" stroke-width="1.44" d="M27.59,46.887"/>
<path fill="none" stroke="#000000" stroke-width="1.44" d="M27.59,46.887"/>
<path fill="none" stroke="#000000" stroke-width="1.44" d="M27.59,46.887"/>
<path fill="none" stroke="#000000" stroke-width="1.44" d="M27.59,46.887"/>
<path fill="none" stroke="#000000" stroke-width="1.44" d="M27.59,46.887"/>
<path fill="none" stroke="#000000" stroke-width="1.44" d="M27.59,46.887"/>
<path fill="none" stroke="#000000" stroke-width="1.44" d="M27.59,46.887"/>
<path fill="none" stroke="#000000" stroke-width="1.44" d="M27.59,46.887"/>
<path fill="none" stroke="#000000" stroke-width="1.44" d="M27.59,46.887"/>
<path fill="none" stroke="#000000" stroke-width="1.44" d="M27.59,46.887"/>
<path fill="none" stroke="#000000" stroke-width="1.44" d="M27.59,46.887"/>
<path fill="none" stroke="#000000" stroke-width="1.44" d="M27.59,46.887"/>
<path fill="none" stroke="#000000" stroke-width="1.44" d="M27.59,46.887"/>
<path fill="none" stroke="#000000" stroke-width="1.44" d="M27.59,46.887"/>
<path fill="none" stroke="#000000" stroke-width="1.44" d="M27.59,46.887"/>
<path fill="none" stroke="#000000" stroke-width="1.44" d="M27.59,46.887"/>
<path fill="none" stroke="#000000" stroke-width="1.44" d="M27.59,46.887"/>
<path fill="none" stroke="#000000" stroke-width="1.44" d="M27.59,46.887"/>
<path fill="none" stroke="#000000" stroke-width="1.44" d="M27.59,46.887"/>
<path fill="none" stroke="#000000" stroke-width="1.44" d="M27.59,46.887"/>
<path fill="none" stroke="#000000" stroke-width="1.44" d="M27.59,46.887"/>
<path fill="none" stroke="#000000" stroke-width="1.44" d="M27.59,46.887"/>
<path fill="none" stroke="#000000" stroke-width="1.44" d="M27.59,46.887"/>
<path fill="none" stroke="#000000" stroke-width="1.44" d="M27.59,46.887"/>
<path fill="none" stroke="#000000" stroke-width="1.44" d="M27.59,46.887"/>
<path fill="none" stroke="#000000" stroke-width="1.44" d="M27.59,46.887"/>
<path fill="none" stroke="#000000" stroke-width="1.44" d="M27.59,46.887"/>
<path fill="none" stroke="#000000" stroke-width="1.44" d="M27.59,46.887"/>
<path fill="none" stroke="#000000" stroke-width="1.44" d="M27.59,46.887"/>
<path fill="none" stroke="#000000" stroke-width="1.44" d="M27.59,46.887"/>
<path fill="none" stroke="#000000" stroke-width="1.44" d="M27.59,46.887"/>
<path fill="none" stroke="#000000" stroke-width="1.44" d="M27.59,46.887"/>
<path fill="none" stroke="#000000" stroke-width="1.44" d="M27.59,46.887"/>
<path fill="none" stroke="#000000" stroke-width="1.44" d="M27.59,46.887"/>
<path fill="none" stroke="#000000" stroke-width="1.44" d="M27.59,46.887"/>
<path fill="none" stroke="#000000" stroke-width="1.44" d="M27.59,46.887"/>
<path fill="none" stroke="#000000" stroke-width="1.44" d="M27.59,46.887"/>
<path fill="none" stroke="#000000" stroke-width="1.44" d="M27.59,46.887"/>
<path fill="none" stroke="#000000" stroke-width="1.44" d="M27.59,46.887"/>
<path fill="none" stroke="#000000" stroke-width="1.44" d="M27.59,46.887"/>
<path fill="none" stroke="#000000" stroke-width="1.44" d="M27.59,46.887"/>
<path fill="none" stroke="#000000" stroke-width="1.44" d="M27.59,46.887"/>
<path fill="none" stroke="#000000" stroke-width="1.44" d="M27.59,46.887"/>
<path fill="none" stroke="#000000" stroke-width="1.44" d="M27.59,46.887"/>
<path fill="none" stroke="#000000" stroke-width="1.44" d="M27.59,46.887"/>
<path fill="none" stroke="#000000" stroke-width="1.44" d="M27.59,46.887"/>
<path fill="none" stroke="#000000" stroke-width="1.44" d="M27.59,46.887"/>
<path fill="none" stroke="#000000" stroke-width="1.44" d="M27.59,46.887"/>
<path fill="none" stroke="#000000" stroke-width="1.44" d="M27.59,46.887"/>
<path fill="none" stroke="#000000" stroke-width="1.44" d="M27.59,46.887"/>
<path fill="none" stroke="#000000" stroke-width="1.44" d="M27.59,46.887"/>
<path fill="none" stroke="#000000" stroke-width="1.44" d="M27.59,46.887"/>
<path fill="none" stroke="#000000" stroke-width="1.44" d="M27.59,46.887"/>
<path fill="none" stroke="#000000" stroke-width="1.44" d="M27.59,46.887"/>
<path fill="none" stroke="#000000" stroke-width="1.44" d="M27.59,46.887"/>
<path fill="none" stroke="#000000" stroke-width="1.44" d="M27.59,46.887"/>
<path fill="none" stroke="#000000" stroke-width="1.44" d="M27.59,46.887"/>
<path fill="none" stroke="#000000" stroke-width="1.44" d="M27.59,46.887"/>
<path fill="none" stroke="#000000" stroke-width="1.44" d="M27.59,46.887"/>
<path fill="none" stroke="#000000" stroke-width="1.44" d="M27.59,46.887"/>
<path fill="none" stroke="#000000" stroke-width="1.44" d="M27.59,46.887"/>
<path fill="none" stroke="#000000" stroke-width="1.44" d="M27.59,46.887"/>
<path fill="none" stroke="#000000" stroke-width="1.44" d="M27.59,46.887"/>
<path fill="none" stroke="#000000" stroke-width="1.44" d="M27.59,46.887"/>
<path fill="none" stroke="#000000" stroke-width="1.44" d="M27.59,46.887"/>
<path fill="none" stroke="#000000" stroke-width="1.44" d="M27.59,46.887"/>
<path fill="none" stroke="#000000" stroke-width="1.44" d="M27.59,46.887"/>
<path fill="none" stroke="#000000" stroke-width="1.44" d="M27.59,46.887"/>
<path fill="none" stroke="#000000" stroke-width="1.44" d="M27.59,46.887"/>
<path fill="none" stroke="#000000" stroke-width="1.44" d="M27.59,46.887"/>
<path fill="none" stroke="#000000" stroke-width="1.44" d="M27.59,46.887"/>
<path fill="none" stroke="#000000" stroke-width="1.44" d="M27.59,46.887"/>
<text transform="matrix(1 0 0 1 68.1797 183.1997)" font-family="'ArialMT'" font-size="20.1019">   </text>
<text transform="matrix(1 0 0 1 68.1797 183.1997)" fill="#D90000" font-family="'ArialMT'" font-size="12.5637">C</text>
<text transform="matrix(1 0 0 1 77.2524 183.1997)" font-family="'ArialMT'" font-size="20.1019"> </text>
<text transform="matrix(1 0 0 1 80.8438 183.1997)" font-family="'ArialMT'" font-size="20.1019">   </text>
<text transform="matrix(1 0 0 1 80.8438 183.1997)" fill="#D90000" font-family="'ArialMT'" font-size="12.5637">C</text>
<text transform="matrix(1 0 0 1 89.9165 183.1997)" font-family="'ArialMT'" font-size="20.1019"> </text>
<text transform="matrix(1 0 0 1 93.1567 183.1997)" font-family="'ArialMT'" font-size="20.1019">   </text>
<text transform="matrix(1 0 0 1 93.1567 183.1997)" fill="#D90000" font-family="'ArialMT'" font-size="12.5637">G</text>
<text transform="matrix(1 0 0 1 102.9287 183.1997)" font-family="'ArialMT'" font-size="20.1019"> </text>
<text transform="matrix(1 0 0 1 106.1719 183.1997)" font-family="'ArialMT'" font-size="20.1019">   </text>
<text transform="matrix(1 0 0 1 106.1719 183.1997)" fill="#D90000" font-family="'ArialMT'" font-size="12.5637">U</text>
<text transform="matrix(1 0 0 1 115.2451 183.1997)" font-family="'ArialMT'" font-size="20.1019"> </text>
<text transform="matrix(1 0 0 1 118.8359 183.1997)" font-family="'ArialMT'" font-size="20.1019">   </text>
<text transform="matrix(1 0 0 1 118.8359 183.1997)" fill="#D90000" font-family="'ArialMT'" font-size="12.5637">U</text>
<text transform="matrix(1 0 0 1 127.9097 183.1997)" font-family="'ArialMT'" font-size="20.1019"> </text>
<text transform="matrix(1 0 0 1 131.5 183.1997)" font-family="'ArialMT'" font-size="20.1019">   </text>
<text transform="matrix(1 0 0 1 131.5 183.1997)" fill="#807B88" font-family="'ArialMT'" font-size="12.5637">C</text>
<text transform="matrix(1 0 0 1 140.5742 183.1997)" font-family="'ArialMT'" font-size="20.1019"> </text>
<text transform="matrix(1 0 0 1 144.5098 183.1997)" font-family="'ArialMT'" font-size="20.1019">   </text>
<text transform="matrix(1 0 0 1 144.5098 183.1997)" fill="#D90000" font-family="'ArialMT'" font-size="12.5637">A</text>
<text transform="matrix(1 0 0 1 152.8896 183.1997)" font-family="'ArialMT'" font-size="20.1019"> </text>
<text transform="matrix(1 0 0 1 157.1738 183.1997)" font-family="'ArialMT'" font-size="20.1019">   </text>
<text transform="matrix(1 0 0 1 157.1738 183.1997)" fill="#D90000" font-family="'ArialMT'" font-size="12.5637">A</text>
<text transform="matrix(1 0 0 1 165.5547 183.1997)" font-family="'ArialMT'" font-size="20.1019"> </text>
<text transform="matrix(1 0 0 1 169.4941 183.1997)" font-family="'ArialMT'" font-size="20.1019">   </text>
<text transform="matrix(1 0 0 1 169.4941 183.1997)" fill="#D90000" font-family="'ArialMT'" font-size="12.5637">C</text>
<text transform="matrix(1 0 0 1 178.5664 183.1997)" font-family="'ArialMT'" font-size="20.1019"> </text>
<text transform="matrix(1 0 0 1 182.1582 183.1997)" font-family="'ArialMT'" font-size="20.1019">   </text>
<text transform="matrix(1 0 0 1 182.1582 183.1997)" fill="#D90000" font-family="'ArialMT'" font-size="12.5637">U</text>
<text transform="matrix(1 0 0 1 191.2305 183.1997)" font-family="'ArialMT'" font-size="20.1019"> </text>
<text transform="matrix(1 0 0 1 194.8223 183.1997)" font-family="'ArialMT'" font-size="20.1019">   </text>
<text transform="matrix(1 0 0 1 194.8223 183.1997)" fill="#D90000" font-family="'ArialMT'" font-size="12.5637">C</text>
<text transform="matrix(1 0 0 1 203.8945 183.1997)" font-family="'ArialMT'" font-size="20.1019"> </text>
<text transform="matrix(1 0 0 1 203.4258 174.2437)" font-family="'ArialMT'" font-size="20.1019">   </text>
<text transform="matrix(1 0 0 1 203.4258 174.2437)" fill="#D90000" font-family="'ArialMT'" font-size="12.5637">G</text>
<text transform="matrix(1 0 0 1 213.1982 174.2437)" font-family="'ArialMT'" font-size="20.1019"> </text>
<text transform="matrix(1 0 0 1 203.7773 161.5815)" font-family="'ArialMT'" font-size="20.1019">   </text>
<text transform="matrix(1 0 0 1 203.7773 161.5815)" fill="#807B88" font-family="'ArialMT'" font-size="12.5637">U</text>
<text transform="matrix(1 0 0 1 212.8506 161.5815)" font-family="'ArialMT'" font-size="20.1019"> </text>
<text transform="matrix(1 0 0 1 204.123 148.9155)" font-family="'ArialMT'" font-size="20.1019">   </text>
<text transform="matrix(1 0 0 1 204.123 148.9155)" fill="#D90000" font-family="'ArialMT'" font-size="12.5637">Y</text>
<text transform="matrix(1 0 0 1 212.502 148.9155)" font-family="'ArialMT'" font-size="20.1019"> </text>
<text transform="matrix(1 0 0 1 204.123 136.2524)" font-family="'ArialMT'" font-size="20.1019">   </text>
<text transform="matrix(1 0 0 1 204.123 136.2524)" fill="#807B88" font-family="'ArialMT'" font-size="12.5637">Y</text>
<text transform="matrix(1 0 0 1 212.502 136.2524)" font-family="'ArialMT'" font-size="20.1019"> </text>
<text transform="matrix(1 0 0 1 203.7773 123.5894)" font-family="'ArialMT'" font-size="20.1019">   </text>
<text transform="matrix(1 0 0 1 203.7773 123.5894)" font-family="'ArialMT'" font-size="12.5637">C</text>
<text transform="matrix(1 0 0 1 212.8506 123.5894)" font-family="'ArialMT'" font-size="20.1019"> </text>
<text transform="matrix(1 0 0 1 204.123 110.9233)" font-family="'ArialMT'" font-size="20.1019">   </text>
<text transform="matrix(1 0 0 1 204.123 110.9233)" font-family="'ArialMT'" font-size="12.5637">Y</text>
<text transform="matrix(1 0 0 1 212.502 110.9233)" font-family="'ArialMT'" font-size="20.1019"> </text>
<path stroke="#000000" stroke-width="0.72" d="M212.598,93.748c-0.004,2.367-1.922,4.283-4.289,4.281
	c-2.362-0.001-4.276-1.917-4.28-4.281c0.004-2.365,1.923-4.282,4.29-4.279C210.68,89.471,212.594,91.386,212.598,93.748z"/>
<text transform="matrix(1 0 0 1 196.6348 87.8022)" font-family="'ArialMT'" font-size="20.1019">   </text>
<text transform="matrix(1 0 0 1 196.6348 87.8022)" fill="#D90000" font-family="'ArialMT'" font-size="12.5637">C</text>
<text transform="matrix(1 0 0 1 205.708 87.8022)" font-family="'ArialMT'" font-size="20.1019"> </text>
<path fill="#807B88" stroke="#000000" stroke-width="0.72" d="M207.024,70.725c0,2.366-1.919,4.285-4.285,4.285
	c-2.365,0-4.284-1.919-4.284-4.285l0,0c0-2.367,1.919-4.286,4.284-4.286C205.105,66.439,207.024,68.358,207.024,70.725z"/>
<path fill="#D90000" stroke="#000000" stroke-width="0.72" d="M216.518,62.343c-0.002,2.366-1.922,4.283-4.289,4.28
	c-2.363-0.002-4.277-1.917-4.28-4.28c0.003-2.367,1.922-4.283,4.289-4.281C214.6,58.063,216.516,59.979,216.518,62.343z"/>
<text transform="matrix(1 0 0 1 220.707 66.853)" font-family="'ArialMT'" font-size="20.1019">   </text>
<text transform="matrix(1 0 0 1 220.707 66.853)" fill="#807B88" font-family="'ArialMT'" font-size="12.5637">Y</text>
<text transform="matrix(1 0 0 1 229.0859 66.853)" font-family="'ArialMT'" font-size="20.1019"> </text>
<text transform="matrix(1 0 0 1 229.502 75.2349)" font-family="'ArialMT'" font-size="20.1019">   </text>
<text transform="matrix(1 0 0 1 229.502 75.2349)" fill="#D90000" font-family="'ArialMT'" font-size="12.5637">G</text>
<text transform="matrix(1 0 0 1 239.2754 75.2349)" font-family="'ArialMT'" font-size="20.1019"> </text>
<text transform="matrix(1 0 0 1 231.7676 87.8022)" font-family="'ArialMT'" font-size="20.1019">   </text>
<text transform="matrix(1 0 0 1 231.7676 87.8022)" font-family="'ArialMT'" font-size="12.5637">A</text>
<text transform="matrix(1 0 0 1 240.1465 87.8022)" font-family="'ArialMT'" font-size="20.1019"> </text>
<path stroke="#000000" stroke-width="0.72" d="M233.102,93.748c-0.004,2.367-1.922,4.283-4.289,4.281
	c-2.362-0.001-4.277-1.917-4.279-4.281c0.002-2.365,1.922-4.282,4.287-4.279C231.184,89.471,233.098,91.386,233.102,93.748z"/>
<text transform="matrix(1 0 0 1 224.2813 110.9233)" font-family="'ArialMT'" font-size="20.1019">   </text>
<text transform="matrix(1 0 0 1 224.2813 110.9233)" font-family="'ArialMT'" font-size="12.5637">R</text>
<text transform="matrix(1 0 0 1 233.3545 110.9233)" font-family="'ArialMT'" font-size="20.1019"> </text>
<text transform="matrix(1 0 0 1 223.9297 123.5894)" font-family="'ArialMT'" font-size="20.1019">   </text>
<text transform="matrix(1 0 0 1 223.9297 123.5894)" font-family="'ArialMT'" font-size="12.5637">G</text>
<text transform="matrix(1 0 0 1 233.7021 123.5894)" font-family="'ArialMT'" font-size="20.1019"> </text>
<text transform="matrix(1 0 0 1 224.2813 136.2524)" font-family="'ArialMT'" font-size="20.1019">   </text>
<text transform="matrix(1 0 0 1 224.2813 136.2524)" fill="#807B88" font-family="'ArialMT'" font-size="12.5637">R</text>
<text transform="matrix(1 0 0 1 233.3545 136.2524)" font-family="'ArialMT'" font-size="20.1019"> </text>
<text transform="matrix(1 0 0 1 224.2813 148.9155)" font-family="'ArialMT'" font-size="20.1019">   </text>
<text transform="matrix(1 0 0 1 224.2813 148.9155)" fill="#D90000" font-family="'ArialMT'" font-size="12.5637">R</text>
<text transform="matrix(1 0 0 1 233.3545 148.9155)" font-family="'ArialMT'" font-size="20.1019"> </text>
<text transform="matrix(1 0 0 1 224.627 161.5815)" font-family="'ArialMT'" font-size="20.1019">   </text>
<text transform="matrix(1 0 0 1 224.627 161.5815)" fill="#807B88" font-family="'ArialMT'" font-size="12.5637">A</text>
<text transform="matrix(1 0 0 1 233.0068 161.5815)" font-family="'ArialMT'" font-size="20.1019"> </text>
<text transform="matrix(1 0 0 1 224.2813 174.2437)" font-family="'ArialMT'" font-size="20.1019">   </text>
<text transform="matrix(1 0 0 1 224.2813 174.2437)" fill="#D90000" font-family="'ArialMT'" font-size="12.5637">C</text>
<text transform="matrix(1 0 0 1 233.3545 174.2437)" font-family="'ArialMT'" font-size="20.1019"> </text>
<text transform="matrix(1 0 0 1 233.2344 183.1997)" font-family="'ArialMT'" font-size="20.1019">   </text>
<text transform="matrix(1 0 0 1 233.2344 183.1997)" font-family="'ArialMT'" font-size="12.5637">U</text>
<text transform="matrix(1 0 0 1 242.3086 183.1997)" font-family="'ArialMT'" font-size="20.1019"> </text>
<text transform="matrix(1 0 0 1 246.2461 183.1997)" font-family="'ArialMT'" font-size="20.1019">   </text>
<text transform="matrix(1 0 0 1 246.2461 183.1997)" fill="#D90000" font-family="'ArialMT'" font-size="12.5637">A</text>
<text transform="matrix(1 0 0 1 254.625 183.1997)" font-family="'ArialMT'" font-size="20.1019"> </text>
<text transform="matrix(1 0 0 1 258.5635 183.1997)" font-family="'ArialMT'" font-size="20.1019">   </text>
<text transform="matrix(1 0 0 1 258.5635 183.1997)" fill="#D90000" font-family="'ArialMT'" font-size="12.5637">C</text>
<text transform="matrix(1 0 0 1 267.6367 183.1997)" font-family="'ArialMT'" font-size="20.1019"> </text>
<text transform="matrix(1 0 0 1 270.876 183.1997)" font-family="'ArialMT'" font-size="20.1019">   </text>
<text transform="matrix(1 0 0 1 270.876 183.1997)" font-family="'ArialMT'" font-size="12.5637">G</text>
<text transform="matrix(1 0 0 1 280.6484 183.1997)" font-family="'ArialMT'" font-size="20.1019"> </text>
<text transform="matrix(1 0 0 1 283.54 183.1997)" font-family="'ArialMT'" font-size="20.1019">   </text>
<text transform="matrix(1 0 0 1 283.54 183.1997)" fill="#D90000" font-family="'ArialMT'" font-size="12.5637">G</text>
<text transform="matrix(1 0 0 1 293.3125 183.1997)" font-family="'ArialMT'" font-size="20.1019"> </text>
<text transform="matrix(1 0 0 1 296.2051 183.1997)" font-family="'ArialMT'" font-size="20.1019">   </text>
<text transform="matrix(1 0 0 1 296.2051 183.1997)" fill="#D90000" font-family="'ArialMT'" font-size="12.5637">G</text>
<text transform="matrix(1 0 0 1 305.9766 183.1997)" font-family="'ArialMT'" font-size="20.1019"> </text>
<text transform="matrix(1 0 0 1 309.5674 183.1997)" font-family="'ArialMT'" font-size="20.1019">   </text>
<text transform="matrix(1 0 0 1 309.5674 183.1997)" fill="#D90000" font-family="'ArialMT'" font-size="12.5637">A</text>
<text transform="matrix(1 0 0 1 317.9473 183.1997)" font-family="'ArialMT'" font-size="20.1019"> </text>
<text transform="matrix(1 0 0 1 321.5322 183.1997)" font-family="'ArialMT'" font-size="20.1019">   </text>
<text transform="matrix(1 0 0 1 321.5322 183.1997)" fill="#D90000" font-family="'ArialMT'" font-size="12.5637">G</text>
<text transform="matrix(1 0 0 1 331.3057 183.1997)" font-family="'ArialMT'" font-size="20.1019"> </text>
<path fill="none" stroke="#000000" stroke-width="0.72" d="M60.051,178.69h6.332"/>
<text transform="matrix(1 0 0 1 48.1528 183.1997)" font-family="'ArialMT'" font-size="20.1019">   </text>
<text transform="matrix(1 0 0 1 48.1528 183.1997)" font-family="'ArialMT'" font-size="12.5637">5&apos;</text>
<text transform="matrix(1 0 0 1 57.5391 183.1997)" font-family="'ArialMT'" font-size="20.1019"> </text>
<g>
	<path fill="#0A0303" d="M77.85,240.358l1.523,0.22c-0.165,1.104-0.593,1.967-1.278,2.593c-0.687,0.626-1.53,0.936-2.528,0.936
		c-1.252,0-2.257-0.431-3.019-1.299c-0.76-0.863-1.14-2.104-1.14-3.721c0-1.044,0.166-1.957,0.491-2.743
		c0.33-0.784,0.825-1.372,1.495-1.763c0.669-0.393,1.398-0.588,2.184-0.588c0.995,0,1.806,0.271,2.437,0.807
		c0.635,0.536,1.035,1.299,1.216,2.287l-1.527,0.219c-0.143-0.652-0.396-1.143-0.758-1.471c-0.361-0.329-0.8-0.492-1.312-0.492
		c-0.78,0-1.408,0.297-1.895,0.887c-0.484,0.592-0.724,1.53-0.724,2.813c0,1.303,0.232,2.245,0.704,2.837
		c0.468,0.591,1.082,0.888,1.836,0.888c0.607,0,1.115-0.197,1.521-0.593C77.48,241.778,77.739,241.173,77.85,240.358z"/>
	<path fill="#0A0303" d="M80.051,239.05c0-1.793,0.475-3.115,1.423-3.98c0.789-0.715,1.753-1.073,2.896-1.073
		c1.262,0,2.295,0.435,3.097,1.31c0.804,0.873,1.207,2.076,1.207,3.613c0,1.245-0.18,2.227-0.534,2.936
		c-0.353,0.717-0.869,1.267-1.548,1.662c-0.68,0.396-1.42,0.592-2.221,0.592c-1.292,0-2.333-0.436-3.124-1.303
		C80.451,241.935,80.051,240.685,80.051,239.05z M81.653,239.043c0,1.241,0.258,2.174,0.772,2.789
		c0.515,0.618,1.163,0.929,1.945,0.929c0.774,0,1.414-0.313,1.933-0.932c0.515-0.623,0.771-1.567,0.771-2.838
		c0-1.2-0.259-2.108-0.775-2.725c-0.521-0.619-1.161-0.929-1.929-0.929c-0.78,0-1.431,0.308-1.945,0.924
		C81.91,236.878,81.653,237.806,81.653,239.043z"/>
	<path fill="#0A0303" d="M92.901,243.884l-3.479-9.673h1.67l1.972,5.792c0.216,0.63,0.41,1.275,0.595,1.951
		c0.138-0.512,0.332-1.123,0.583-1.844l2.048-5.899h1.602l-3.476,9.673H92.901L92.901,243.884z"/>
	<path fill="#0A0303" d="M105.045,242.687c-0.568,0.52-1.123,0.885-1.659,1.099c-0.535,0.212-1.116,0.317-1.729,0.317
		c-1.016,0-1.795-0.261-2.341-0.779c-0.548-0.52-0.82-1.184-0.82-1.992c0-0.475,0.105-0.907,0.312-1.301
		c0.207-0.389,0.478-0.705,0.809-0.943c0.335-0.238,0.709-0.418,1.126-0.538c0.312-0.087,0.774-0.167,1.394-0.247
		c1.263-0.158,2.194-0.344,2.793-0.566c0.005-0.227,0.007-0.366,0.007-0.426c0-0.672-0.146-1.143-0.44-1.416
		c-0.401-0.371-0.991-0.558-1.778-0.558c-0.73,0-1.275,0.138-1.623,0.408c-0.348,0.272-0.61,0.755-0.777,1.448l-1.566-0.219
		c0.145-0.688,0.368-1.246,0.692-1.666c0.317-0.422,0.778-0.746,1.386-0.975c0.604-0.229,1.302-0.344,2.097-0.344
		c0.786,0,1.43,0.101,1.922,0.293c0.492,0.193,0.855,0.438,1.087,0.734c0.234,0.295,0.396,0.668,0.486,1.113
		c0.055,0.279,0.077,0.783,0.077,1.514v2.192c0,1.524,0.033,2.487,0.097,2.894c0.064,0.405,0.19,0.785,0.378,1.152h-1.605
		C105.205,243.543,105.099,243.144,105.045,242.687z M104.937,239.015c-0.568,0.243-1.422,0.453-2.561,0.622
		c-0.643,0.099-1.098,0.212-1.369,0.332c-0.265,0.124-0.473,0.302-0.617,0.537c-0.147,0.235-0.219,0.498-0.219,0.786
		c0,0.438,0.156,0.807,0.477,1.104c0.314,0.291,0.778,0.438,1.386,0.438c0.602,0,1.137-0.137,1.603-0.412
		c0.472-0.277,0.819-0.656,1.035-1.143c0.17-0.373,0.256-0.928,0.256-1.655L104.937,239.015z"/>
	<path fill="#0A0303" d="M108.885,243.884v-9.673h1.415v1.481c0.354-0.69,0.682-1.149,0.982-1.369
		c0.299-0.219,0.631-0.33,0.993-0.33c0.525,0,1.05,0.178,1.593,0.531l-0.552,1.502c-0.377-0.217-0.751-0.326-1.126-0.326
		c-0.34,0-0.639,0.109-0.908,0.324c-0.266,0.215-0.457,0.515-0.574,0.896c-0.172,0.58-0.259,1.217-0.259,1.909v5.053
		L108.885,243.884L108.885,243.884z"/>
	<path fill="#0A0303" d="M115.147,247.618l-0.216-1.516c0.346,0.1,0.657,0.146,0.92,0.146c0.359,0,0.646-0.059,0.859-0.186
		c0.217-0.121,0.393-0.291,0.531-0.511c0.102-0.165,0.26-0.573,0.491-1.225c0.032-0.091,0.078-0.224,0.144-0.401l-3.526-9.717h1.673
		l1.939,5.59c0.252,0.705,0.478,1.45,0.676,2.232c0.174-0.729,0.387-1.453,0.633-2.17l1.953-5.652h1.559l-3.447,9.854
		c-0.381,1.059-0.68,1.789-0.889,2.188c-0.283,0.535-0.606,0.929-0.972,1.183c-0.363,0.25-0.8,0.379-1.304,0.379
		C115.866,247.813,115.524,247.748,115.147,247.618z"/>
	<path fill="#0A0303" d="M124.17,232.394v-1.854h1.562v1.854H124.17z M124.17,243.884v-9.673h1.562v9.673H124.17z"/>
	<path fill="#0A0303" d="M128.039,243.884v-9.673h1.417v1.372c0.671-1.063,1.642-1.594,2.912-1.594c0.548,0,1.06,0.104,1.517,0.316
		c0.466,0.206,0.813,0.483,1.04,0.82c0.228,0.341,0.39,0.744,0.481,1.214c0.058,0.304,0.089,0.835,0.089,1.597v5.946h-1.602v-5.888
		c0-0.668-0.059-1.17-0.178-1.499c-0.119-0.33-0.335-0.593-0.636-0.789c-0.303-0.202-0.661-0.3-1.069-0.3
		c-0.654,0-1.221,0.223-1.695,0.668c-0.48,0.445-0.714,1.283-0.714,2.525v5.285L128.039,243.884L128.039,243.884z"/>
	<path fill="#0A0303" d="M137.633,244.687l1.562,0.219c0.063,0.504,0.243,0.869,0.526,1.099c0.385,0.312,0.911,0.464,1.574,0.464
		c0.714,0,1.268-0.152,1.657-0.457c0.391-0.304,0.653-0.729,0.791-1.281c0.08-0.338,0.116-1.039,0.111-2.113
		c-0.684,0.849-1.536,1.271-2.557,1.271c-1.27,0-2.254-0.48-2.949-1.441c-0.695-0.957-1.041-2.108-1.041-3.451
		c0-0.922,0.156-1.771,0.476-2.555c0.322-0.785,0.781-1.383,1.39-1.809c0.605-0.429,1.313-0.639,2.134-0.639
		c1.087,0,1.986,0.473,2.693,1.419v-1.201h1.418v8.364c0,1.504-0.146,2.57-0.438,3.201c-0.291,0.629-0.751,1.123-1.385,1.49
		c-0.631,0.36-1.408,0.547-2.331,0.547c-1.098,0-1.978-0.261-2.656-0.781C137.932,246.515,137.61,245.731,137.633,244.687z
		 M138.906,238.876c0,1.273,0.243,2.203,0.725,2.789c0.484,0.585,1.091,0.877,1.817,0.877c0.722,0,1.327-0.289,1.815-0.873
		c0.489-0.581,0.736-1.492,0.736-2.736c0-1.187-0.254-2.082-0.757-2.686c-0.504-0.605-1.113-0.908-1.82-0.908
		c-0.699,0-1.294,0.296-1.783,0.891C139.149,236.827,138.906,237.708,138.906,238.876z"/>
	<path fill="#0A0303" d="M152.725,243.884v-9.673h1.381v1.356c0.288-0.473,0.673-0.854,1.152-1.143
		c0.48-0.288,1.022-0.434,1.639-0.434c0.682,0,1.239,0.148,1.676,0.447c0.437,0.297,0.746,0.713,0.924,1.246
		c0.73-1.125,1.684-1.693,2.85-1.693c0.92,0,1.619,0.267,2.115,0.799c0.492,0.531,0.735,1.348,0.735,2.454v6.639h-1.562v-6.097
		c0-0.653-0.053-1.129-0.153-1.417c-0.104-0.287-0.281-0.521-0.55-0.695c-0.264-0.18-0.579-0.267-0.936-0.267
		c-0.645,0-1.184,0.227-1.608,0.682c-0.43,0.452-0.642,1.18-0.642,2.174v5.624h-1.563v-6.288c0-0.729-0.125-1.275-0.381-1.642
		c-0.254-0.363-0.667-0.546-1.241-0.546c-0.437,0-0.844,0.119-1.214,0.363c-0.372,0.244-0.64,0.601-0.807,1.065
		c-0.167,0.47-0.249,1.142-0.249,2.022v5.02h-1.566V243.884L152.725,243.884z"/>
	<path fill="#0A0303" d="M173.541,243.884v-1.426c-0.718,1.096-1.691,1.646-2.925,1.646c-0.544,0-1.052-0.109-1.521-0.33
		c-0.471-0.219-0.822-0.492-1.049-0.824c-0.23-0.331-0.391-0.734-0.481-1.219c-0.064-0.32-0.098-0.828-0.098-1.529v-5.994h1.565
		v5.361c0,0.854,0.033,1.43,0.098,1.729c0.096,0.432,0.304,0.771,0.62,1.016c0.318,0.244,0.708,0.369,1.174,0.369
		c0.467,0,0.908-0.125,1.315-0.375c0.406-0.254,0.695-0.596,0.865-1.031c0.167-0.435,0.254-1.063,0.254-1.89v-5.179h1.565v9.674
		h-1.383L173.541,243.884L173.541,243.884z"/>
	<path fill="#0A0303" d="M180.794,242.437l0.218,1.446c-0.435,0.099-0.829,0.146-1.179,0.146c-0.563,0-1.004-0.094-1.316-0.28
		c-0.314-0.19-0.532-0.438-0.656-0.745c-0.128-0.307-0.189-0.952-0.189-1.939v-5.578h-1.165v-1.273h1.165v-2.392l1.563-0.981v3.373
		h1.565v1.273h-1.565v5.646c0,0.469,0.028,0.77,0.082,0.9c0.052,0.133,0.143,0.24,0.266,0.318c0.122,0.078,0.303,0.121,0.534,0.121
		C180.285,242.469,180.513,242.458,180.794,242.437z"/>
	<path fill="#0A0303" d="M188.345,242.687c-0.57,0.52-1.124,0.885-1.661,1.099c-0.536,0.212-1.117,0.317-1.728,0.317
		c-1.019,0-1.796-0.261-2.34-0.779c-0.55-0.52-0.821-1.184-0.821-1.992c0-0.475,0.104-0.907,0.308-1.301
		c0.211-0.389,0.479-0.705,0.813-0.943s0.708-0.418,1.125-0.538c0.312-0.087,0.772-0.167,1.395-0.247
		c1.263-0.158,2.191-0.344,2.791-0.566c0.006-0.227,0.008-0.366,0.008-0.426c0-0.672-0.148-1.143-0.439-1.416
		c-0.4-0.371-0.992-0.558-1.78-0.558c-0.729,0-1.274,0.138-1.621,0.408c-0.348,0.272-0.611,0.755-0.778,1.448l-1.563-0.219
		c0.141-0.688,0.368-1.246,0.688-1.666c0.318-0.422,0.781-0.746,1.384-0.975c0.604-0.229,1.303-0.344,2.1-0.344
		c0.787,0,1.428,0.101,1.92,0.293c0.494,0.193,0.857,0.438,1.09,0.734c0.233,0.295,0.395,0.668,0.484,1.113
		c0.055,0.279,0.078,0.783,0.078,1.514v2.192c0,1.524,0.033,2.487,0.098,2.894c0.059,0.405,0.189,0.785,0.377,1.152h-1.604
		C188.508,243.543,188.394,243.144,188.345,242.687z M188.234,239.015c-0.566,0.243-1.422,0.453-2.56,0.622
		c-0.642,0.099-1.099,0.212-1.37,0.332c-0.265,0.124-0.472,0.302-0.617,0.537c-0.148,0.235-0.22,0.498-0.22,0.786
		c0,0.438,0.157,0.807,0.475,1.104c0.318,0.291,0.777,0.438,1.388,0.438c0.603,0,1.138-0.137,1.605-0.412
		c0.469-0.277,0.819-0.656,1.036-1.143c0.17-0.373,0.252-0.928,0.252-1.655L188.234,239.015z"/>
	<path fill="#0A0303" d="M195.549,242.437l0.217,1.446c-0.438,0.099-0.832,0.146-1.182,0.146c-0.564,0-1.004-0.094-1.313-0.28
		c-0.314-0.19-0.533-0.438-0.66-0.745c-0.123-0.307-0.188-0.952-0.188-1.939v-5.578h-1.164v-1.273h1.164v-2.392l1.563-0.981v3.373
		h1.564v1.273h-1.564v5.646c0,0.469,0.027,0.77,0.082,0.9c0.055,0.133,0.146,0.24,0.268,0.318c0.119,0.078,0.301,0.121,0.533,0.121
		C195.037,242.469,195.264,242.458,195.549,242.437z"/>
	<path fill="#0A0303" d="M197.133,232.394v-1.854h1.564v1.854H197.133z M197.133,243.884v-9.673h1.564v9.673H197.133z"/>
	<path fill="#0A0303" d="M200.422,239.05c0-1.793,0.476-3.115,1.422-3.98c0.789-0.715,1.754-1.073,2.896-1.073
		c1.262,0,2.295,0.435,3.101,1.31c0.801,0.873,1.205,2.076,1.205,3.613c0,1.245-0.179,2.227-0.533,2.936
		c-0.354,0.717-0.869,1.267-1.549,1.662c-0.679,0.396-1.421,0.592-2.222,0.592c-1.291,0-2.332-0.436-3.123-1.303
		C200.824,241.935,200.422,240.685,200.422,239.05z M202.021,239.043c0,1.241,0.256,2.174,0.773,2.789
		c0.512,0.618,1.161,0.929,1.942,0.929c0.772,0,1.416-0.313,1.935-0.932c0.516-0.623,0.77-1.567,0.77-2.838
		c0-1.2-0.258-2.108-0.775-2.725c-0.52-0.619-1.16-0.929-1.928-0.929c-0.781,0-1.432,0.308-1.943,0.924
		C202.283,236.876,202.021,237.806,202.021,239.043z"/>
	<path fill="#0A0303" d="M210.879,243.884v-9.673h1.418v1.372c0.672-1.063,1.641-1.594,2.91-1.594c0.549,0,1.059,0.104,1.518,0.316
		c0.466,0.206,0.813,0.483,1.039,0.82c0.228,0.341,0.394,0.744,0.482,1.214c0.057,0.304,0.086,0.835,0.086,1.597v5.946h-1.604
		v-5.888c0-0.668-0.055-1.17-0.178-1.499c-0.123-0.33-0.334-0.593-0.636-0.789c-0.305-0.202-0.659-0.3-1.069-0.3
		c-0.656,0-1.222,0.223-1.695,0.668c-0.477,0.445-0.713,1.283-0.713,2.525v5.285L210.879,243.884L210.879,243.884z"/>
	<path fill="#0A0303" d="M220.168,240.976l1.527-0.219c0.084,0.645,0.326,1.141,0.719,1.484c0.393,0.345,0.943,0.519,1.65,0.519
		c0.711,0,1.24-0.153,1.592-0.463c0.338-0.306,0.516-0.667,0.516-1.078c0-0.368-0.158-0.663-0.473-0.874
		c-0.219-0.146-0.748-0.332-1.586-0.555c-1.135-0.305-1.92-0.566-2.357-0.788c-0.437-0.222-0.771-0.53-0.996-0.92
		c-0.227-0.392-0.338-0.824-0.338-1.298c0-0.432,0.088-0.83,0.275-1.195c0.186-0.369,0.443-0.675,0.762-0.919
		c0.244-0.188,0.57-0.345,0.984-0.476c0.418-0.133,0.861-0.195,1.338-0.195c0.721,0,1.348,0.109,1.893,0.33
		c0.539,0.22,0.938,0.52,1.197,0.891c0.262,0.374,0.439,0.877,0.535,1.504l-1.525,0.223c-0.067-0.504-0.268-0.896-0.6-1.176
		c-0.33-0.283-0.793-0.426-1.396-0.426c-0.709,0-1.213,0.127-1.516,0.377c-0.305,0.248-0.455,0.54-0.455,0.875
		c0,0.215,0.061,0.405,0.189,0.574c0.121,0.178,0.322,0.323,0.592,0.438c0.154,0.062,0.607,0.199,1.363,0.418
		c1.092,0.312,1.856,0.563,2.299,0.762c0.439,0.197,0.785,0.482,1.033,0.859c0.252,0.379,0.377,0.847,0.377,1.4
		c0,0.551-0.15,1.064-0.451,1.549c-0.303,0.484-0.736,0.854-1.307,1.117c-0.568,0.264-1.211,0.395-1.933,0.395
		c-1.188,0-2.094-0.263-2.717-0.787C220.734,242.796,220.34,242.01,220.168,240.976z"/>
</g>
<g>
	<path fill="#0A0303" d="M34.832,226.439h-1.456v-13.349h1.565v4.755c0.663-0.863,1.506-1.301,2.532-1.301
		c0.565,0,1.103,0.123,1.61,0.359c0.504,0.242,0.923,0.576,1.25,1.015c0.329,0.435,0.584,0.956,0.771,1.569
		c0.184,0.613,0.274,1.271,0.274,1.969c0,1.656-0.393,2.939-1.172,3.843c-0.781,0.906-1.72,1.358-2.812,1.358
		c-1.088,0-1.944-0.477-2.563-1.428L34.832,226.439L34.832,226.439z M34.794,221.525c0,1.162,0.151,2,0.454,2.518
		c0.494,0.842,1.16,1.266,2.003,1.266c0.683,0,1.278-0.311,1.777-0.932c0.498-0.624,0.748-1.551,0.748-2.786
		c0-1.264-0.24-2.194-0.718-2.796c-0.48-0.602-1.056-0.904-1.735-0.904c-0.689,0-1.28,0.313-1.781,0.934
		C35.043,219.445,34.794,220.35,34.794,221.525z"/>
	<path fill="#0A0303" d="M49.328,225.236c-0.572,0.521-1.127,0.887-1.667,1.101c-0.536,0.216-1.109,0.321-1.724,0.321
		c-1.017,0-1.796-0.258-2.344-0.779c-0.542-0.52-0.814-1.186-0.814-1.992c0-0.477,0.101-0.908,0.306-1.301
		c0.205-0.393,0.477-0.706,0.812-0.941c0.334-0.236,0.709-0.416,1.125-0.539c0.306-0.084,0.772-0.168,1.391-0.244
		c1.266-0.156,2.196-0.348,2.794-0.563c0.003-0.226,0.009-0.368,0.009-0.431c0-0.668-0.148-1.141-0.442-1.412
		c-0.398-0.37-0.991-0.559-1.775-0.559c-0.735,0-1.28,0.14-1.627,0.41c-0.348,0.271-0.609,0.754-0.774,1.444l-1.562-0.22
		c0.136-0.687,0.362-1.24,0.685-1.664c0.316-0.424,0.779-0.747,1.383-0.973c0.603-0.229,1.302-0.346,2.101-0.346
		c0.786,0,1.426,0.1,1.919,0.292c0.496,0.196,0.852,0.442,1.089,0.735c0.231,0.294,0.396,0.666,0.488,1.115
		c0.049,0.279,0.079,0.783,0.079,1.515v2.188c0,1.525,0.033,2.489,0.096,2.894c0.063,0.403,0.186,0.786,0.375,1.153h-1.6
		C49.481,226.098,49.375,225.697,49.328,225.236z M49.219,221.566c-0.57,0.244-1.421,0.451-2.563,0.623
		c-0.643,0.098-1.097,0.207-1.367,0.33c-0.266,0.121-0.475,0.303-0.623,0.535c-0.144,0.236-0.215,0.497-0.215,0.782
		c0,0.44,0.158,0.808,0.473,1.103s0.777,0.439,1.386,0.439c0.605,0,1.141-0.141,1.608-0.415c0.471-0.274,0.814-0.657,1.035-1.144
		c0.167-0.371,0.25-0.924,0.25-1.653L49.219,221.566z"/>
	<path fill="#0A0303" d="M52.578,223.527l1.527-0.219c0.087,0.646,0.327,1.141,0.72,1.482c0.393,0.348,0.943,0.52,1.652,0.52
		c0.713,0,1.238-0.154,1.587-0.461c0.341-0.307,0.517-0.668,0.517-1.078c0-0.373-0.155-0.664-0.468-0.877
		c-0.219-0.148-0.748-0.334-1.591-0.557c-1.134-0.303-1.918-0.566-2.356-0.786c-0.437-0.223-0.769-0.528-0.993-0.92
		c-0.229-0.392-0.337-0.823-0.337-1.299c0-0.433,0.094-0.828,0.278-1.2c0.188-0.365,0.438-0.671,0.758-0.914
		c0.245-0.188,0.567-0.348,0.991-0.48c0.41-0.129,0.855-0.193,1.332-0.193c0.72,0,1.346,0.111,1.89,0.33
		c0.539,0.223,0.941,0.521,1.202,0.895c0.261,0.375,0.44,0.877,0.534,1.504l-1.527,0.22c-0.068-0.503-0.264-0.896-0.596-1.177
		c-0.331-0.283-0.793-0.426-1.395-0.426c-0.708,0-1.214,0.127-1.519,0.375c-0.304,0.248-0.456,0.543-0.456,0.875
		c0,0.213,0.064,0.405,0.19,0.576c0.125,0.176,0.323,0.321,0.591,0.438c0.153,0.061,0.612,0.199,1.365,0.422
		c1.092,0.31,1.861,0.563,2.301,0.759c0.437,0.198,0.782,0.485,1.035,0.86c0.249,0.377,0.372,0.844,0.372,1.404
		c0,0.545-0.148,1.063-0.447,1.545c-0.303,0.484-0.739,0.856-1.31,1.119c-0.571,0.264-1.214,0.395-1.93,0.395
		c-1.193,0-2.094-0.26-2.718-0.787C53.148,225.344,52.748,224.563,52.578,223.527z"/>
	<path fill="#0A0303" d="M68.419,223.311l1.569,0.219c-0.258,0.992-0.728,1.763-1.418,2.309s-1.57,0.82-2.643,0.82
		c-1.352,0-2.421-0.436-3.214-1.309c-0.793-0.871-1.188-2.094-1.188-3.666c0-1.627,0.401-2.89,1.203-3.789
		c0.797-0.897,1.836-1.349,3.111-1.349c1.232,0,2.241,0.442,3.025,1.326c0.781,0.882,1.172,2.125,1.172,3.729
		c0,0.098-0.003,0.242-0.01,0.438h-6.9c0.056,1.061,0.344,1.867,0.869,2.431c0.523,0.563,1.176,0.843,1.955,0.843
		c0.582,0,1.078-0.158,1.492-0.479C67.858,224.516,68.176,224.008,68.419,223.311z M63.164,220.691h5.276
		c-0.071-0.82-0.275-1.438-0.608-1.847c-0.512-0.635-1.171-0.954-1.984-0.954c-0.734,0-1.354,0.254-1.853,0.762
		C63.49,219.163,63.215,219.842,63.164,220.691z"/>
	<path fill="#0A0303" d="M76.805,230.15v-13.385h1.415v1.246c0.338-0.488,0.715-0.855,1.138-1.1
		c0.423-0.241,0.938-0.366,1.539-0.366c0.786,0,1.479,0.214,2.083,0.638c0.605,0.428,1.058,1.026,1.367,1.803
		c0.306,0.774,0.459,1.621,0.459,2.545c0,0.992-0.167,1.882-0.506,2.672c-0.34,0.795-0.832,1.4-1.477,1.824
		c-0.647,0.422-1.322,0.631-2.036,0.631c-0.521,0-0.99-0.114-1.405-0.344c-0.412-0.228-0.75-0.521-1.016-0.873v4.711h-1.562
		L76.805,230.15L76.805,230.15z M78.186,221.652c0,1.248,0.245,2.168,0.727,2.765c0.481,0.595,1.066,0.894,1.753,0.894
		c0.699,0,1.295-0.31,1.795-0.927c0.495-0.618,0.745-1.571,0.745-2.87c0-1.232-0.245-2.16-0.729-2.773
		c-0.483-0.615-1.068-0.924-1.743-0.924c-0.667,0-1.261,0.328-1.775,0.982C78.443,219.454,78.186,220.404,78.186,221.652z"/>
	<path fill="#0A0303" d="M92.752,225.236c-0.572,0.521-1.125,0.887-1.666,1.101c-0.535,0.216-1.109,0.321-1.727,0.321
		c-1.014,0-1.793-0.258-2.339-0.779c-0.542-0.52-0.817-1.186-0.817-1.992c0-0.477,0.103-0.908,0.31-1.301
		c0.202-0.393,0.477-0.706,0.809-0.941c0.334-0.236,0.708-0.416,1.127-0.539c0.31-0.084,0.772-0.168,1.392-0.244
		c1.264-0.156,2.194-0.348,2.791-0.563c0.007-0.226,0.01-0.368,0.01-0.431c0-0.668-0.146-1.141-0.441-1.412
		c-0.399-0.37-0.994-0.559-1.779-0.559c-0.729,0-1.274,0.14-1.624,0.41c-0.346,0.272-0.608,0.754-0.775,1.444l-1.564-0.22
		c0.143-0.687,0.368-1.24,0.689-1.664c0.32-0.424,0.781-0.747,1.385-0.973c0.605-0.229,1.301-0.346,2.096-0.346
		c0.789,0,1.429,0.1,1.925,0.292c0.49,0.196,0.854,0.442,1.087,0.735c0.234,0.294,0.396,0.666,0.484,1.115
		c0.056,0.279,0.08,0.783,0.08,1.515v2.188c0,1.525,0.035,2.489,0.098,2.894c0.063,0.403,0.187,0.786,0.377,1.153h-1.602
		C92.909,226.098,92.798,225.697,92.752,225.236z M92.643,221.566c-0.57,0.244-1.424,0.451-2.562,0.623
		c-0.644,0.098-1.103,0.207-1.366,0.33c-0.267,0.121-0.477,0.303-0.621,0.535c-0.146,0.236-0.219,0.497-0.219,0.782
		c0,0.44,0.156,0.808,0.475,1.103c0.314,0.295,0.78,0.439,1.388,0.439c0.6,0,1.135-0.141,1.606-0.415
		c0.472-0.272,0.813-0.657,1.033-1.144c0.167-0.371,0.25-0.924,0.25-1.653L92.643,221.566z"/>
	<path fill="#0A0303" d="M96.658,214.945v-1.854h1.564v1.854H96.658z M96.658,226.439v-9.674h1.564v9.674H96.658z"/>
	<path fill="#0A0303" d="M100.529,226.439v-9.674h1.421v1.482c0.352-0.691,0.682-1.15,0.982-1.37
		c0.301-0.22,0.632-0.331,0.991-0.331c0.523,0,1.051,0.178,1.593,0.532l-0.551,1.504c-0.376-0.216-0.753-0.327-1.125-0.327
		c-0.338,0-0.637,0.107-0.909,0.323c-0.269,0.216-0.46,0.515-0.574,0.897c-0.174,0.58-0.258,1.217-0.258,1.908v5.055h-1.568l0,0
		H100.529z"/>
	<path fill="#0A0303" d="M117.41,225.236c-0.566,0.521-1.123,0.887-1.66,1.101c-0.539,0.216-1.113,0.321-1.729,0.321
		c-1.015,0-1.797-0.258-2.339-0.779c-0.546-0.52-0.819-1.186-0.819-1.992c0-0.477,0.103-0.908,0.31-1.301
		c0.205-0.393,0.475-0.706,0.811-0.941c0.334-0.236,0.707-0.416,1.125-0.539c0.308-0.084,0.771-0.168,1.393-0.244
		c1.265-0.156,2.191-0.348,2.789-0.563c0.007-0.226,0.009-0.368,0.009-0.431c0-0.668-0.143-1.141-0.438-1.412
		c-0.399-0.37-0.992-0.559-1.776-0.559c-0.734,0-1.276,0.14-1.624,0.41c-0.35,0.271-0.611,0.754-0.776,1.444l-1.564-0.22
		c0.137-0.687,0.366-1.24,0.688-1.664c0.32-0.424,0.78-0.747,1.382-0.973c0.604-0.229,1.303-0.346,2.098-0.346
		c0.789,0,1.43,0.1,1.925,0.292c0.492,0.196,0.854,0.442,1.089,0.735c0.231,0.294,0.395,0.666,0.485,1.115
		c0.05,0.279,0.078,0.783,0.078,1.515v2.188c0,1.525,0.034,2.489,0.094,2.894c0.064,0.403,0.188,0.786,0.377,1.153h-1.598
		C117.567,226.098,117.457,225.697,117.41,225.236z M117.301,221.566c-0.57,0.244-1.423,0.451-2.562,0.623
		c-0.646,0.098-1.103,0.207-1.368,0.33c-0.269,0.121-0.477,0.303-0.623,0.535c-0.146,0.236-0.216,0.497-0.216,0.782
		c0,0.44,0.157,0.808,0.475,1.103c0.315,0.295,0.777,0.439,1.385,0.439c0.604,0,1.141-0.141,1.608-0.415
		c0.472-0.272,0.813-0.657,1.035-1.144c0.165-0.371,0.25-0.924,0.25-1.653L117.301,221.566z"/>
	<path fill="#0A0303" d="M121.245,226.439v-9.674h1.419v1.371c0.673-1.061,1.642-1.591,2.91-1.591c0.55,0,1.058,0.104,1.521,0.313
		c0.462,0.209,0.809,0.483,1.038,0.824c0.228,0.34,0.391,0.74,0.481,1.213c0.058,0.303,0.087,0.832,0.087,1.594v5.951h-1.602v-5.887
		c0-0.668-0.058-1.164-0.181-1.498c-0.118-0.33-0.332-0.596-0.632-0.793c-0.304-0.195-0.664-0.297-1.072-0.297
		c-0.656,0-1.219,0.223-1.697,0.666c-0.479,0.441-0.71,1.285-0.71,2.523v5.285h-1.56v-0.002H121.245z"/>
	<path fill="#0A0303" d="M131.115,226.439v-9.674h1.419v1.371c0.671-1.061,1.642-1.591,2.912-1.591c0.55,0,1.056,0.104,1.519,0.313
		c0.464,0.209,0.809,0.483,1.038,0.824c0.228,0.34,0.391,0.74,0.483,1.213c0.056,0.303,0.087,0.832,0.087,1.594v5.951h-1.602v-5.887
		c0-0.668-0.06-1.164-0.181-1.498c-0.118-0.33-0.334-0.596-0.635-0.793c-0.305-0.195-0.657-0.297-1.068-0.297
		c-0.653,0-1.221,0.223-1.698,0.666c-0.477,0.441-0.71,1.285-0.71,2.523v5.285h-1.56v-0.002H131.115z"/>
	<path fill="#0A0303" d="M140.409,221.604c0-1.793,0.47-3.121,1.418-3.98c0.791-0.717,1.758-1.076,2.894-1.076
		c1.264,0,2.297,0.438,3.1,1.309c0.801,0.873,1.205,2.078,1.205,3.614c0,1.245-0.175,2.222-0.531,2.935
		c-0.356,0.718-0.872,1.271-1.552,1.664c-0.68,0.395-1.419,0.59-2.222,0.59c-1.291,0-2.332-0.434-3.124-1.303
		C140.801,224.486,140.409,223.236,140.409,221.604z M142.008,221.598c0,1.242,0.257,2.172,0.773,2.788
		c0.515,0.617,1.158,0.927,1.94,0.927c0.774,0,1.419-0.31,1.934-0.933c0.517-0.618,0.772-1.563,0.772-2.838
		c0-1.197-0.258-2.104-0.777-2.722c-0.517-0.616-1.158-0.926-1.929-0.926c-0.78,0-1.426,0.305-1.94,0.92
		C142.265,219.428,142.008,220.355,142.008,221.598z"/>
	<path fill="#0A0303" d="M154.284,224.988l0.22,1.447c-0.442,0.098-0.839,0.148-1.182,0.148c-0.566,0-1.01-0.098-1.317-0.285
		c-0.312-0.188-0.532-0.438-0.661-0.744c-0.127-0.306-0.186-0.953-0.186-1.938v-5.58h-1.164v-1.271h1.164v-2.391l1.566-0.982v3.375
		h1.563v1.271h-1.562v5.648c0,0.465,0.027,0.769,0.078,0.899c0.056,0.136,0.146,0.24,0.267,0.317
		c0.125,0.078,0.301,0.117,0.535,0.117C153.772,225.018,153.999,225.01,154.284,224.988z"/>
	<path fill="#0A0303" d="M161.831,225.236c-0.566,0.521-1.121,0.887-1.662,1.101c-0.535,0.216-1.111,0.321-1.725,0.321
		c-1.016,0-1.795-0.258-2.343-0.779c-0.543-0.52-0.815-1.186-0.815-1.992c0-0.477,0.103-0.908,0.308-1.301
		c0.203-0.393,0.479-0.706,0.809-0.941c0.336-0.236,0.71-0.416,1.125-0.539c0.312-0.084,0.775-0.168,1.395-0.244
		c1.265-0.156,2.193-0.348,2.791-0.563c0.007-0.226,0.011-0.368,0.011-0.431c0-0.668-0.146-1.141-0.441-1.412
		c-0.398-0.37-0.993-0.559-1.779-0.559c-0.73,0-1.274,0.14-1.622,0.41c-0.35,0.272-0.61,0.754-0.776,1.444l-1.564-0.22
		c0.139-0.687,0.367-1.24,0.69-1.664c0.318-0.424,0.778-0.747,1.382-0.973c0.605-0.229,1.301-0.346,2.098-0.346
		c0.787,0,1.428,0.1,1.923,0.292c0.49,0.196,0.854,0.442,1.087,0.735c0.235,0.294,0.398,0.666,0.487,1.115
		c0.052,0.279,0.076,0.783,0.076,1.515v2.188c0,1.525,0.035,2.489,0.098,2.894c0.063,0.403,0.188,0.786,0.375,1.153h-1.598
		C161.99,226.098,161.88,225.697,161.831,225.236z M161.724,221.566c-0.57,0.244-1.421,0.451-2.562,0.623
		c-0.644,0.098-1.099,0.207-1.367,0.33c-0.27,0.121-0.477,0.303-0.622,0.535c-0.145,0.236-0.218,0.497-0.218,0.782
		c0,0.44,0.157,0.808,0.475,1.103c0.313,0.295,0.781,0.439,1.388,0.439c0.602,0,1.136-0.141,1.607-0.415
		c0.471-0.272,0.812-0.657,1.032-1.144c0.167-0.371,0.251-0.924,0.251-1.653L161.724,221.566z"/>
	<path fill="#0A0303" d="M169.032,224.988l0.218,1.447c-0.438,0.098-0.833,0.148-1.178,0.148c-0.565,0-1.007-0.098-1.318-0.285
		s-0.532-0.438-0.657-0.744c-0.129-0.306-0.192-0.953-0.192-1.938v-5.58h-1.162v-1.271h1.162v-2.391l1.568-0.982v3.375h1.563v1.271
		h-1.563v5.648c0,0.465,0.027,0.769,0.078,0.899c0.054,0.136,0.147,0.24,0.268,0.317c0.125,0.078,0.303,0.117,0.534,0.117
		C168.523,225.018,168.749,225.01,169.032,224.988z"/>
	<path fill="#0A0303" d="M170.618,214.945v-1.854h1.565v1.854H170.618z M170.618,226.439v-9.674h1.565v9.674H170.618z"/>
	<path fill="#0A0303" d="M173.907,221.604c0-1.793,0.475-3.121,1.421-3.98c0.789-0.717,1.755-1.076,2.892-1.076
		c1.263,0,2.298,0.438,3.101,1.309c0.806,0.873,1.207,2.078,1.207,3.614c0,1.245-0.178,2.222-0.534,2.935
		c-0.353,0.718-0.871,1.271-1.551,1.664c-0.677,0.395-1.415,0.59-2.221,0.59c-1.288,0-2.33-0.434-3.123-1.303
		C174.307,224.486,173.907,223.236,173.907,221.604z M175.508,221.598c0,1.242,0.258,2.172,0.772,2.788
		c0.518,0.617,1.163,0.927,1.942,0.927c0.775,0,1.421-0.31,1.934-0.933c0.517-0.618,0.773-1.563,0.773-2.838
		c0-1.197-0.259-2.104-0.777-2.722c-0.52-0.616-1.159-0.926-1.93-0.926c-0.779,0-1.425,0.305-1.942,0.92
		C175.764,219.428,175.508,220.355,175.508,221.598z"/>
	<path fill="#0A0303" d="M184.362,226.439v-9.674h1.417v1.371c0.673-1.061,1.641-1.591,2.911-1.591c0.551,0,1.059,0.104,1.52,0.313
		c0.465,0.209,0.811,0.483,1.042,0.824c0.225,0.34,0.389,0.74,0.479,1.213c0.055,0.303,0.088,0.832,0.088,1.594v5.951h-1.604v-5.887
		c0-0.668-0.057-1.164-0.18-1.498c-0.119-0.33-0.332-0.596-0.631-0.793c-0.307-0.195-0.664-0.297-1.072-0.297
		c-0.656,0-1.221,0.223-1.696,0.666c-0.48,0.441-0.712,1.285-0.712,2.523v5.285h-1.559v-0.002H184.362z"/>
	<path fill="#0A0303" d="M193.65,223.527l1.527-0.219c0.086,0.646,0.326,1.141,0.721,1.482c0.393,0.348,0.941,0.52,1.65,0.52
		c0.711,0,1.243-0.154,1.588-0.461c0.344-0.307,0.518-0.668,0.518-1.078c0-0.373-0.156-0.664-0.471-0.877
		c-0.221-0.148-0.748-0.334-1.588-0.557c-1.135-0.303-1.92-0.566-2.354-0.786c-0.438-0.223-0.772-0.528-0.998-0.92
		c-0.229-0.392-0.34-0.823-0.34-1.299c0-0.433,0.092-0.828,0.276-1.2c0.187-0.365,0.441-0.671,0.767-0.914
		c0.237-0.188,0.563-0.348,0.981-0.48c0.414-0.129,0.861-0.193,1.336-0.193c0.72,0,1.347,0.111,1.892,0.33
		c0.543,0.223,0.94,0.521,1.198,0.895c0.259,0.375,0.438,0.877,0.535,1.504l-1.528,0.22c-0.065-0.503-0.265-0.896-0.599-1.177
		c-0.328-0.283-0.791-0.426-1.393-0.426c-0.709,0-1.219,0.127-1.52,0.375c-0.303,0.248-0.451,0.543-0.451,0.875
		c0,0.213,0.059,0.405,0.184,0.576c0.127,0.176,0.328,0.321,0.594,0.438c0.152,0.061,0.609,0.199,1.367,0.422
		c1.092,0.31,1.857,0.563,2.297,0.759c0.439,0.198,0.781,0.485,1.035,0.86c0.252,0.377,0.375,0.844,0.375,1.404
		c0,0.545-0.152,1.063-0.453,1.545c-0.303,0.484-0.729,0.856-1.303,1.119c-0.57,0.264-1.215,0.395-1.934,0.395
		c-1.189,0-2.094-0.26-2.719-0.787C194.223,225.344,193.826,224.563,193.65,223.527z"/>
</g>
<rect x="53.613" y="234.345" fill="#D0E1AE" width="9.416" height="9.021"/>
<rect x="32.246" y="234.345" fill="#D0E1AE" width="9.415" height="9.021"/>
<rect x="41.661" y="234.345" fill="#D0E1AE" width="11.955" height="9.021"/>
<line fill="none" stroke="#060000" stroke-width="0.72" stroke-miterlimit="10" x1="49.335" y1="238.854" x2="45.942" y2="238.854"/>
<g>
	<path fill="#070000" d="M81.105,313.481l1.351-0.133c0.116,0.67,0.329,1.153,0.654,1.453c0.32,0.305,0.732,0.452,1.236,0.452
		c0.431,0,0.808-0.103,1.14-0.31c0.329-0.205,0.591-0.483,0.793-0.832c0.203-0.348,0.374-0.813,0.515-1.403
		c0.137-0.589,0.209-1.19,0.209-1.806c0-0.066-0.003-0.166-0.008-0.299c-0.28,0.473-0.66,0.855-1.144,1.147
		c-0.485,0.291-1.008,0.438-1.574,0.438c-0.942,0-1.736-0.362-2.387-1.084c-0.657-0.726-0.977-1.681-0.977-2.865
		c0-1.225,0.341-2.209,1.025-2.955c0.684-0.745,1.541-1.118,2.574-1.118c0.745,0,1.427,0.208,2.045,0.631
		c0.617,0.423,1.086,1.021,1.404,1.806c0.321,0.781,0.484,1.908,0.484,3.387c0,1.539-0.16,2.769-0.48,3.678
		c-0.313,0.911-0.791,1.605-1.422,2.085c-0.627,0.478-1.365,0.714-2.207,0.714c-0.901,0-1.631-0.265-2.2-0.787
		C81.562,315.162,81.222,314.431,81.105,313.481z M86.861,308.167c0-0.85-0.215-1.527-0.635-2.025
		c-0.426-0.5-0.94-0.752-1.552-0.752c-0.637,0-1.181,0.271-1.635,0.811c-0.458,0.537-0.686,1.234-0.686,2.09
		c0,0.77,0.218,1.395,0.653,1.874c0.43,0.481,0.974,0.721,1.627,0.721s1.184-0.239,1.599-0.721
		C86.652,309.683,86.861,309.015,86.861,308.167z"/>
	<path fill="#070000" d="M89.836,310.329c0-1.422,0.139-2.571,0.421-3.445c0.28-0.872,0.7-1.543,1.253-2.011
		c0.555-0.466,1.252-0.7,2.09-0.7c0.619,0,1.168,0.133,1.64,0.393c0.47,0.26,0.86,0.638,1.16,1.125
		c0.301,0.492,0.533,1.09,0.706,1.793c0.175,0.703,0.263,1.651,0.263,2.848c0,1.412-0.138,2.557-0.417,3.432
		c-0.282,0.873-0.695,1.543-1.25,2.016c-0.552,0.469-1.253,0.699-2.099,0.699c-1.111,0-1.986-0.41-2.624-1.23
		C90.215,314.229,89.836,312.591,89.836,310.329z M91.282,310.325c0,1.988,0.222,3.31,0.667,3.96
		c0.447,0.649,0.997,0.973,1.648,0.973c0.655,0,1.203-0.325,1.651-0.979c0.443-0.65,0.667-1.969,0.667-3.953
		c0-1.981-0.222-3.301-0.664-3.954c-0.441-0.649-1.002-0.978-1.671-0.978c-0.651,0-1.174,0.287-1.574,0.86
		C91.525,306.989,91.282,308.347,91.282,310.325z"/>
	<path fill="#070000" d="M98.992,307.112c0-0.86,0.205-1.594,0.618-2.197c0.411-0.604,1.005-0.905,1.788-0.905
		c0.723,0,1.313,0.269,1.788,0.812c0.47,0.539,0.708,1.334,0.708,2.381c0,1.021-0.239,1.809-0.715,2.361
		c-0.479,0.551-1.066,0.826-1.764,0.826c-0.689,0-1.27-0.271-1.729-0.814C99.224,309.032,98.992,308.214,98.992,307.112z
		 M101.438,305.063c-0.353,0-0.648,0.16-0.879,0.473c-0.232,0.313-0.35,0.889-0.35,1.729c0,0.762,0.119,1.299,0.354,1.609
		c0.236,0.311,0.527,0.466,0.876,0.466c0.358,0,0.652-0.157,0.887-0.469c0.234-0.313,0.351-0.888,0.351-1.72
		c0-0.769-0.12-1.305-0.352-1.616C102.084,305.219,101.79,305.063,101.438,305.063z M101.445,316.737l6.346-12.729h1.174
		l-6.351,12.729H101.445z M106.491,313.462c0-0.867,0.208-1.602,0.616-2.203c0.411-0.598,1.01-0.9,1.795-0.9
		c0.717,0,1.313,0.271,1.782,0.811c0.475,0.541,0.707,1.335,0.707,2.383c0,1.021-0.237,1.809-0.715,2.357
		c-0.475,0.551-1.066,0.828-1.766,0.828c-0.695,0-1.269-0.271-1.729-0.818C106.723,315.374,106.491,314.553,106.491,313.462z
		 M108.939,311.409c-0.355,0-0.649,0.156-0.884,0.472c-0.234,0.313-0.349,0.888-0.349,1.729c0,0.759,0.12,1.289,0.352,1.606
		c0.234,0.312,0.527,0.47,0.873,0.47c0.361,0,0.661-0.158,0.893-0.47c0.231-0.313,0.348-0.89,0.348-1.721
		c0-0.769-0.118-1.308-0.354-1.618C109.583,311.565,109.288,311.409,108.939,311.409z"/>
</g>
<path fill="#221E1F" d="M75.589,311.335c0,2.587-2.097,4.684-4.675,4.684c-2.59,0-4.686-2.096-4.686-4.684
	c0-2.586,2.095-4.686,4.686-4.686C73.493,306.649,75.589,308.749,75.589,311.335"/>
<circle fill="none" stroke="#060000" stroke-width="0.72" stroke-miterlimit="10" cx="70.909" cy="311.335" r="4.682"/>
<g>
	<path fill="#070000" d="M81.105,296.817l1.351-0.133c0.116,0.67,0.329,1.151,0.654,1.453c0.32,0.301,0.732,0.451,1.236,0.451
		c0.431,0,0.808-0.102,1.14-0.311c0.329-0.203,0.591-0.48,0.793-0.83c0.203-0.346,0.374-0.813,0.515-1.402
		c0.137-0.59,0.209-1.191,0.209-1.807c0-0.063-0.003-0.164-0.008-0.297c-0.28,0.472-0.66,0.854-1.144,1.147
		c-0.485,0.292-1.008,0.44-1.574,0.44c-0.942,0-1.736-0.365-2.387-1.088c-0.657-0.725-0.977-1.681-0.977-2.863
		c0-1.225,0.341-2.207,1.025-2.955c0.684-0.745,1.541-1.119,2.574-1.119c0.745,0,1.427,0.21,2.045,0.633
		c0.617,0.424,1.086,1.021,1.404,1.805c0.321,0.781,0.484,1.91,0.484,3.39c0,1.539-0.16,2.765-0.48,3.674
		c-0.313,0.912-0.791,1.606-1.422,2.085c-0.627,0.479-1.365,0.715-2.207,0.715c-0.901,0-1.631-0.266-2.2-0.787
		C81.566,298.499,81.222,297.767,81.105,296.817z M86.861,291.501c0-0.85-0.215-1.525-0.635-2.025
		c-0.426-0.498-0.94-0.748-1.552-0.748c-0.637,0-1.181,0.27-1.635,0.807c-0.458,0.537-0.686,1.234-0.686,2.093
		c0,0.771,0.218,1.394,0.653,1.874c0.43,0.48,0.974,0.721,1.627,0.721s1.184-0.238,1.599-0.721
		C86.652,293.017,86.861,292.351,86.861,291.501z"/>
	<path fill="#070000" d="M89.935,289.12v-1.413h7.43v1.144c-0.729,0.817-1.451,1.901-2.173,3.26
		c-0.715,1.354-1.271,2.748-1.66,4.184c-0.287,1.01-0.464,2.115-0.543,3.32h-1.445c0.013-0.949,0.193-2.098,0.531-3.442
		s0.824-2.642,1.457-3.892c0.636-1.248,1.31-2.303,2.025-3.155h-5.623L89.935,289.12L89.935,289.12z"/>
	<path fill="#070000" d="M98.992,290.45c0-0.861,0.205-1.594,0.618-2.198c0.411-0.604,1.005-0.905,1.788-0.905
		c0.723,0,1.313,0.271,1.788,0.813c0.47,0.539,0.708,1.332,0.708,2.38c0,1.022-0.239,1.81-0.715,2.362
		c-0.479,0.549-1.066,0.824-1.764,0.824c-0.689,0-1.27-0.271-1.729-0.813C99.224,292.368,98.992,291.549,98.992,290.45z
		 M101.438,288.399c-0.353,0-0.648,0.156-0.879,0.473c-0.232,0.313-0.35,0.887-0.35,1.727c0,0.762,0.119,1.299,0.354,1.609
		c0.236,0.313,0.527,0.467,0.876,0.467c0.358,0,0.652-0.158,0.887-0.47s0.351-0.888,0.351-1.72c0-0.77-0.12-1.308-0.352-1.617
		C102.084,288.552,101.79,288.399,101.438,288.399z M101.445,300.071l6.346-12.725h1.174l-6.351,12.725H101.445z M106.491,296.797
		c0-0.864,0.208-1.599,0.616-2.202c0.411-0.597,1.01-0.898,1.795-0.898c0.717,0,1.313,0.271,1.782,0.812
		c0.475,0.541,0.707,1.334,0.707,2.382c0,1.021-0.237,1.809-0.715,2.357c-0.475,0.552-1.066,0.826-1.766,0.826
		c-0.695,0-1.269-0.273-1.729-0.817C106.723,298.71,106.491,297.89,106.491,296.797z M108.939,294.746
		c-0.355,0-0.649,0.157-0.884,0.47c-0.234,0.313-0.349,0.889-0.349,1.729c0,0.759,0.12,1.293,0.352,1.606
		c0.234,0.313,0.527,0.472,0.873,0.472c0.361,0,0.661-0.156,0.893-0.472c0.231-0.312,0.348-0.887,0.348-1.719
		c0-0.769-0.118-1.306-0.354-1.617C109.583,294.899,109.288,294.746,108.939,294.746z"/>
</g>
<path fill="#C62B2B" d="M75.589,294.672c0,2.587-2.097,4.685-4.682,4.685c-2.586,0-4.679-2.098-4.679-4.685
	c0-2.588,2.093-4.685,4.679-4.685S75.589,292.084,75.589,294.672"/>
<circle fill="none" stroke="#060000" stroke-width="0.72" stroke-miterlimit="10" cx="70.909" cy="294.672" r="4.681"/>
<g>
	<path fill="#070000" d="M137.834,289.12v-1.413h7.432v1.144c-0.734,0.817-1.456,1.901-2.173,3.26
		c-0.717,1.354-1.27,2.748-1.662,4.184c-0.282,1.01-0.46,2.115-0.541,3.32h-1.448c0.017-0.949,0.193-2.098,0.533-3.442
		c0.34-1.344,0.827-2.642,1.456-3.892c0.634-1.25,1.31-2.303,2.023-3.155h-5.621L137.834,289.12L137.834,289.12z"/>
	<path fill="#070000" d="M146.661,296.456l1.45-0.135c0.108,0.754,0.36,1.32,0.753,1.701c0.394,0.377,0.88,0.568,1.452,0.568
		c0.695,0,1.273-0.268,1.734-0.803c0.46-0.534,0.693-1.243,0.693-2.131c0-0.844-0.22-1.508-0.661-1.994
		c-0.438-0.482-1.028-0.73-1.771-0.73c-0.46,0-0.872,0.108-1.226,0.319c-0.36,0.216-0.64,0.492-0.849,0.831l-1.314-0.198
		l1.118-6.185h5.69v1.414h-4.566l-0.625,3.26c0.688-0.508,1.406-0.764,2.162-0.764c0.997,0,1.836,0.367,2.521,1.094
		c0.685,0.729,1.029,1.667,1.029,2.808c0,1.093-0.303,2.032-0.906,2.827c-0.739,0.975-1.741,1.462-3.011,1.462
		c-1.039,0-1.891-0.305-2.553-0.918C147.131,298.276,146.752,297.47,146.661,296.456z"/>
	<path fill="#070000" d="M155.819,290.45c0-0.861,0.205-1.594,0.617-2.198c0.41-0.604,1.006-0.905,1.789-0.905
		c0.722,0,1.313,0.271,1.788,0.813c0.468,0.539,0.708,1.332,0.708,2.38c0,1.022-0.24,1.81-0.717,2.362
		c-0.479,0.549-1.066,0.824-1.764,0.824c-0.689,0-1.269-0.271-1.729-0.813C156.049,292.368,155.819,291.549,155.819,290.45z
		 M158.263,288.399c-0.353,0-0.646,0.156-0.879,0.473c-0.232,0.313-0.349,0.887-0.349,1.727c0,0.762,0.118,1.299,0.352,1.609
		c0.235,0.313,0.528,0.467,0.876,0.467c0.358,0,0.652-0.158,0.887-0.47c0.234-0.312,0.35-0.888,0.35-1.72
		c0-0.77-0.119-1.308-0.352-1.617C158.907,288.552,158.615,288.399,158.263,288.399z M158.272,300.071l6.346-12.725h1.173
		l-6.349,12.725H158.272z M163.316,296.797c0-0.864,0.208-1.599,0.617-2.202c0.412-0.597,1.009-0.898,1.797-0.898
		c0.715,0,1.311,0.271,1.78,0.812c0.475,0.541,0.708,1.334,0.708,2.382c0,1.021-0.237,1.809-0.715,2.357
		c-0.475,0.552-1.064,0.826-1.766,0.826c-0.695,0-1.269-0.273-1.728-0.817C163.548,298.71,163.316,297.89,163.316,296.797z
		 M165.765,294.746c-0.357,0-0.648,0.157-0.884,0.47c-0.232,0.313-0.35,0.889-0.35,1.729c0,0.759,0.12,1.293,0.354,1.606
		c0.236,0.313,0.525,0.472,0.871,0.472c0.363,0,0.66-0.156,0.893-0.472c0.233-0.312,0.351-0.887,0.351-1.719
		c0-0.769-0.12-1.306-0.355-1.617C166.41,294.899,166.115,294.746,165.765,294.746z"/>
</g>
<g>
	<path fill="#7F7B86" d="M132.416,294.667c0,2.588-2.097,4.684-4.682,4.684c-2.583,0-4.678-2.096-4.678-4.684
		c0-2.587,2.095-4.684,4.678-4.684C130.319,289.983,132.416,292.08,132.416,294.667"/>
	<circle fill="none" stroke="#060000" stroke-width="0.72" stroke-miterlimit="10" cx="127.737" cy="294.667" r="4.68"/>
</g>
<circle fill="none" stroke="#060000" stroke-width="0.72" stroke-miterlimit="10" cx="127.737" cy="311.336" r="4.679"/>
<g>
	<path fill="#070000" d="M137.734,313.118l1.448-0.135c0.108,0.754,0.36,1.317,0.756,1.699c0.393,0.381,0.877,0.571,1.451,0.571
		c0.692,0,1.272-0.269,1.734-0.804c0.462-0.535,0.694-1.243,0.694-2.131c0-0.842-0.218-1.51-0.659-1.994
		c-0.438-0.485-1.029-0.729-1.773-0.729c-0.462,0-0.87,0.107-1.227,0.319c-0.36,0.214-0.64,0.487-0.844,0.831l-1.316-0.197
		l1.117-6.188h5.688v1.416h-4.564l-0.625,3.262c0.688-0.506,1.407-0.764,2.162-0.764c0.997,0,1.841,0.363,2.524,1.093
		c0.682,0.728,1.028,1.665,1.028,2.808c0,1.092-0.303,2.031-0.907,2.825c-0.734,0.976-1.738,1.462-3.009,1.462
		c-1.041,0-1.893-0.305-2.553-0.918C138.205,314.938,137.831,314.129,137.734,313.118z"/>
	<path fill="#070000" d="M146.661,310.325c0-1.424,0.142-2.572,0.421-3.444c0.282-0.872,0.7-1.543,1.253-2.01
		c0.557-0.466,1.251-0.698,2.091-0.698c0.618,0,1.168,0.129,1.64,0.391c0.469,0.26,0.858,0.635,1.159,1.125
		c0.302,0.492,0.535,1.088,0.708,1.791c0.171,0.703,0.26,1.652,0.26,2.849c0,1.411-0.138,2.556-0.415,3.431
		c-0.283,0.874-0.695,1.545-1.251,2.016c-0.552,0.47-1.253,0.699-2.099,0.699c-1.112,0-1.986-0.41-2.621-1.229
		C147.04,314.226,146.661,312.587,146.661,310.325z M148.107,310.321c0,1.988,0.22,3.307,0.667,3.957
		c0.448,0.652,0.997,0.977,1.647,0.977c0.656,0,1.204-0.324,1.651-0.979c0.443-0.65,0.668-1.973,0.668-3.955
		c0-1.984-0.224-3.301-0.665-3.955c-0.442-0.652-1.001-0.979-1.67-0.979c-0.653,0-1.176,0.29-1.576,0.865
		C148.351,306.983,148.107,308.344,148.107,310.321z"/>
	<path fill="#070000" d="M155.819,307.108c0-0.859,0.205-1.592,0.617-2.196c0.41-0.604,1.006-0.905,1.789-0.905
		c0.722,0,1.313,0.27,1.788,0.811c0.468,0.541,0.708,1.336,0.708,2.381c0,1.021-0.24,1.809-0.717,2.359
		c-0.479,0.551-1.066,0.826-1.764,0.826c-0.689,0-1.269-0.271-1.729-0.813C156.049,309.028,155.819,308.208,155.819,307.108z
		 M158.263,305.06c-0.353,0-0.646,0.158-0.879,0.471c-0.232,0.316-0.349,0.891-0.349,1.728c0,0.765,0.118,1.302,0.352,1.61
		c0.235,0.313,0.528,0.468,0.876,0.468c0.358,0,0.652-0.158,0.887-0.468c0.234-0.313,0.35-0.891,0.35-1.721
		c0-0.771-0.119-1.309-0.352-1.619C158.907,305.213,158.615,305.06,158.263,305.06z M158.272,316.731l6.346-12.726h1.173
		l-6.349,12.726H158.272z M163.316,313.458c0-0.867,0.208-1.6,0.617-2.201c0.412-0.6,1.009-0.9,1.797-0.9
		c0.715,0,1.311,0.271,1.78,0.812c0.475,0.541,0.708,1.333,0.708,2.38c0,1.021-0.237,1.811-0.715,2.361
		c-0.475,0.551-1.064,0.826-1.766,0.826c-0.695,0-1.269-0.272-1.728-0.819C163.548,315.371,163.316,314.549,163.316,313.458z
		 M165.765,311.403c-0.357,0-0.648,0.158-0.884,0.471c-0.232,0.314-0.35,0.891-0.35,1.729c0,0.758,0.12,1.293,0.354,1.607
		c0.236,0.313,0.525,0.471,0.871,0.471c0.363,0,0.66-0.158,0.893-0.471c0.233-0.314,0.351-0.889,0.351-1.721
		c0-0.768-0.12-1.307-0.355-1.618C166.41,311.56,166.115,311.403,165.765,311.403z"/>
</g>
<g>
	<path fill="#070000" d="M81.281,266.733v-8.75h1.278v1.244c0.608-0.961,1.484-1.44,2.635-1.44c0.499,0,0.956,0.096,1.374,0.284
		s0.734,0.438,0.939,0.744c0.206,0.308,0.354,0.674,0.436,1.094c0.047,0.277,0.077,0.757,0.077,1.445v5.377h-1.448v-5.324
		c0-0.604-0.052-1.057-0.163-1.355c-0.107-0.298-0.3-0.535-0.571-0.717c-0.274-0.176-0.599-0.268-0.968-0.268
		c-0.593,0-1.104,0.199-1.535,0.603c-0.434,0.401-0.643,1.162-0.643,2.28v4.781L81.281,266.733L81.281,266.733z"/>
	<path fill="#070000" d="M95.664,266.733v-1.291c-0.646,0.99-1.532,1.485-2.644,1.485c-0.494,0-0.95-0.098-1.379-0.295
		c-0.426-0.198-0.743-0.446-0.947-0.745c-0.208-0.302-0.351-0.666-0.436-1.101c-0.057-0.291-0.088-0.753-0.088-1.388v-5.42h1.414
		v4.849c0,0.772,0.031,1.292,0.088,1.563c0.088,0.389,0.277,0.697,0.564,0.918c0.286,0.219,0.638,0.334,1.061,0.334
		c0.422,0,0.817-0.115,1.186-0.343c0.369-0.228,0.633-0.534,0.783-0.931c0.157-0.395,0.232-0.963,0.232-1.709v-4.686h1.415v8.748
		h-1.25L95.664,266.733L95.664,266.733z"/>
	<path fill="#070000" d="M104.558,263.541l1.38,0.2c-0.151,0.996-0.538,1.775-1.155,2.342c-0.621,0.566-1.382,0.846-2.287,0.846
		c-1.133,0-2.042-0.389-2.729-1.172c-0.689-0.783-1.032-1.904-1.032-3.369c0-0.941,0.148-1.771,0.443-2.478
		c0.297-0.708,0.747-1.24,1.351-1.593c0.606-0.354,1.266-0.53,1.975-0.53c0.899,0,1.634,0.241,2.203,0.729
		c0.574,0.481,0.938,1.174,1.099,2.065l-1.38,0.198c-0.13-0.59-0.359-1.035-0.686-1.33c-0.326-0.299-0.725-0.446-1.185-0.446
		c-0.705,0-1.273,0.269-1.711,0.804c-0.44,0.535-0.662,1.385-0.662,2.543c0,1.176,0.216,2.027,0.639,2.563
		c0.426,0.533,0.978,0.801,1.663,0.801c0.549,0,1.006-0.178,1.373-0.533C104.223,264.825,104.458,264.278,104.558,263.541z"/>
	<path fill="#070000" d="M107.123,266.733v-12.068h1.414v12.068H107.123z"/>
	<path fill="#070000" d="M116.498,263.903l1.417,0.199c-0.232,0.896-0.66,1.59-1.282,2.084c-0.625,0.496-1.421,0.741-2.391,0.741
		c-1.22,0-2.187-0.394-2.904-1.182c-0.716-0.789-1.074-1.894-1.074-3.313c0-1.473,0.362-2.615,1.085-3.425
		c0.723-0.813,1.662-1.222,2.814-1.222c1.117,0,2.028,0.4,2.736,1.197c0.707,0.797,1.062,1.922,1.062,3.371
		c0,0.09-0.003,0.221-0.008,0.396h-6.24c0.05,0.959,0.314,1.688,0.786,2.198c0.473,0.508,1.063,0.761,1.769,0.761
		c0.522,0,0.974-0.144,1.348-0.433C115.981,264.995,116.275,264.536,116.498,263.903z M111.744,261.535h4.771
		c-0.066-0.741-0.247-1.298-0.549-1.669c-0.462-0.575-1.06-0.863-1.794-0.863c-0.665,0-1.223,0.229-1.676,0.691
		C112.039,260.149,111.791,260.765,111.744,261.535z"/>
	<path fill="#070000" d="M119.124,262.358c0-1.621,0.428-2.816,1.287-3.6c0.715-0.646,1.584-0.97,2.613-0.97
		c1.146,0,2.08,0.394,2.807,1.185c0.725,0.789,1.086,1.877,1.086,3.264c0,1.125-0.161,2.013-0.481,2.656
		c-0.322,0.646-0.789,1.146-1.402,1.504c-0.612,0.354-1.281,0.535-2.009,0.535c-1.163,0-2.104-0.396-2.824-1.18
		C119.481,264.965,119.124,263.834,119.124,262.358z M120.568,262.353c0,1.123,0.236,1.967,0.701,2.521
		c0.466,0.562,1.051,0.84,1.755,0.84c0.703,0,1.281-0.28,1.75-0.843c0.463-0.563,0.698-1.416,0.698-2.563
		c0-1.084-0.236-1.908-0.703-2.463c-0.469-0.561-1.05-0.839-1.745-0.839c-0.704,0-1.289,0.278-1.755,0.835
		C120.803,260.394,120.568,261.229,120.568,262.353z"/>
	<path fill="#070000" d="M131.669,265.422l0.198,1.306c-0.397,0.088-0.754,0.135-1.065,0.135c-0.511,0-0.914-0.086-1.192-0.256
		c-0.282-0.17-0.484-0.396-0.598-0.674c-0.112-0.275-0.168-0.861-0.168-1.754v-5.046h-1.052v-1.151h1.052v-2.162l1.415-0.887v3.051
		h1.412v1.15h-1.412v5.105c0,0.427,0.025,0.695,0.072,0.814c0.049,0.12,0.133,0.219,0.244,0.287c0.108,0.072,0.27,0.107,0.478,0.107
		C131.204,265.448,131.41,265.438,131.669,265.422z"/>
	<path fill="#070000" d="M133.102,256.338v-1.676h1.413v1.676H133.102z M133.102,266.733v-8.75h1.413v8.75H133.102z"/>
	<path fill="#070000" d="M141.994,266.733v-1.102c-0.528,0.866-1.307,1.296-2.329,1.296c-0.666,0-1.276-0.19-1.833-0.575
		c-0.561-0.387-0.992-0.92-1.297-1.609c-0.307-0.69-0.458-1.48-0.458-2.377c0-0.872,0.137-1.663,0.414-2.377
		c0.279-0.711,0.693-1.256,1.249-1.635c0.553-0.379,1.174-0.568,1.858-0.568c0.503,0,0.95,0.107,1.343,0.33
		c0.393,0.222,0.71,0.509,0.956,0.861v-4.315h1.414v12.069h-1.316L141.994,266.733L141.994,266.733z M137.521,262.36
		c0,1.121,0.227,1.961,0.678,2.515c0.451,0.558,0.984,0.835,1.599,0.835c0.619,0,1.146-0.266,1.578-0.795
		c0.431-0.529,0.649-1.338,0.649-2.428c0-1.199-0.22-2.08-0.66-2.644c-0.44-0.56-0.983-0.84-1.629-0.84
		c-0.632,0-1.159,0.269-1.579,0.808C137.732,260.349,137.521,261.2,137.521,262.36z"/>
	<path fill="#070000" d="M151.301,263.903l1.418,0.199c-0.231,0.896-0.66,1.59-1.28,2.084c-0.625,0.496-1.424,0.741-2.391,0.741
		c-1.22,0-2.189-0.394-2.904-1.182c-0.717-0.789-1.074-1.894-1.074-3.313c0-1.473,0.358-2.615,1.085-3.425
		c0.723-0.813,1.66-1.222,2.813-1.222c1.113,0,2.03,0.4,2.736,1.197c0.706,0.799,1.061,1.922,1.061,3.371
		c0,0.09-0.004,0.221-0.008,0.396h-6.239c0.047,0.959,0.311,1.688,0.786,2.198c0.473,0.508,1.062,0.761,1.767,0.761
		c0.525,0,0.975-0.144,1.347-0.433C150.789,264.995,151.082,264.536,151.301,263.903z M146.547,261.535h4.772
		c-0.066-0.741-0.247-1.298-0.55-1.669c-0.46-0.575-1.06-0.863-1.794-0.863c-0.662,0-1.222,0.229-1.676,0.691
		C146.845,260.149,146.595,260.765,146.547,261.535z"/>
</g>
<g>
	<path fill="#070000" d="M91.358,286.083v-12.104h1.28v1.127c0.308-0.438,0.649-0.771,1.028-0.992
		c0.383-0.221,0.847-0.33,1.392-0.33c0.71,0,1.338,0.191,1.885,0.574c0.544,0.385,0.955,0.926,1.236,1.627
		c0.275,0.701,0.414,1.468,0.414,2.302c0,0.896-0.15,1.702-0.458,2.419c-0.305,0.717-0.749,1.268-1.334,1.646
		c-0.585,0.381-1.197,0.57-1.84,0.57c-0.47,0-0.895-0.104-1.271-0.311c-0.375-0.205-0.678-0.473-0.921-0.787v4.258H91.358
		L91.358,286.083z M92.609,278.399c0,1.125,0.22,1.959,0.657,2.498c0.436,0.537,0.964,0.808,1.583,0.808
		c0.635,0,1.173-0.276,1.623-0.836c0.446-0.56,0.673-1.425,0.673-2.595c0-1.117-0.22-1.955-0.659-2.51
		c-0.437-0.555-0.963-0.834-1.575-0.834c-0.604,0-1.14,0.299-1.605,0.889C92.839,276.41,92.609,277.272,92.609,278.399z"/>
	<path fill="#070000" d="M100.318,282.729v-8.75h1.282v1.342c0.321-0.629,0.618-1.041,0.892-1.239
		c0.272-0.2,0.571-0.298,0.896-0.298c0.471,0,0.951,0.158,1.439,0.48l-0.497,1.359c-0.339-0.199-0.681-0.296-1.02-0.296
		c-0.302,0-0.576,0.095-0.819,0.292c-0.244,0.195-0.417,0.465-0.519,0.811c-0.157,0.525-0.234,1.102-0.234,1.725v4.574H100.318
		L100.318,282.729z"/>
	<path fill="#070000" d="M111.354,279.897l1.417,0.201c-0.231,0.896-0.66,1.59-1.282,2.084c-0.624,0.493-1.419,0.742-2.388,0.742
		c-1.223,0-2.192-0.395-2.909-1.184c-0.712-0.785-1.07-1.893-1.07-3.316c0-1.469,0.361-2.609,1.085-3.425
		c0.723-0.812,1.66-1.218,2.813-1.218c1.117,0,2.03,0.4,2.736,1.199c0.709,0.797,1.063,1.92,1.063,3.371
		c0,0.088-0.005,0.219-0.008,0.396h-6.245c0.055,0.958,0.316,1.688,0.791,2.196c0.475,0.51,1.058,0.763,1.767,0.763
		c0.525,0,0.975-0.142,1.347-0.433C110.846,280.987,111.137,280.528,111.354,279.897z M106.599,277.532h4.769
		c-0.065-0.745-0.246-1.301-0.547-1.67c-0.461-0.573-1.058-0.864-1.794-0.864c-0.662,0-1.221,0.231-1.677,0.69
		C106.901,276.146,106.65,276.765,106.599,277.532z"/>
	<path fill="#070000" d="M113.983,280.097l1.38-0.199c0.077,0.582,0.294,1.031,0.651,1.344c0.355,0.311,0.851,0.465,1.492,0.465
		c0.644,0,1.121-0.139,1.434-0.414c0.314-0.279,0.47-0.604,0.47-0.977c0-0.336-0.143-0.603-0.426-0.791
		c-0.195-0.135-0.676-0.303-1.437-0.504c-1.023-0.273-1.732-0.514-2.13-0.711c-0.395-0.201-0.697-0.479-0.903-0.832
		c-0.203-0.354-0.303-0.746-0.303-1.175c0-0.39,0.083-0.747,0.25-1.083c0.168-0.33,0.399-0.607,0.689-0.828
		c0.222-0.168,0.514-0.313,0.889-0.433c0.379-0.118,0.779-0.175,1.211-0.175c0.649,0,1.217,0.098,1.711,0.298
		c0.489,0.2,0.849,0.469,1.084,0.808c0.235,0.34,0.395,0.793,0.481,1.358l-1.381,0.198c-0.063-0.455-0.24-0.811-0.539-1.064
		c-0.3-0.254-0.718-0.384-1.262-0.384c-0.641,0-1.096,0.114-1.372,0.339c-0.276,0.229-0.41,0.491-0.41,0.793
		c0,0.189,0.055,0.367,0.167,0.52c0.116,0.16,0.293,0.293,0.536,0.396c0.142,0.057,0.552,0.182,1.236,0.383
		c0.988,0.279,1.681,0.508,2.077,0.686c0.397,0.179,0.709,0.436,0.936,0.777c0.226,0.34,0.341,0.764,0.341,1.271
		c0,0.49-0.135,0.959-0.409,1.396c-0.273,0.438-0.667,0.772-1.181,1.008c-0.518,0.238-1.098,0.359-1.747,0.359
		c-1.075,0-1.893-0.236-2.461-0.714C114.498,281.737,114.138,281.032,113.983,280.097z"/>
	<path fill="#070000" d="M128.306,279.897l1.418,0.201c-0.229,0.896-0.657,1.59-1.282,2.084c-0.621,0.493-1.421,0.742-2.389,0.742
		c-1.222,0-2.188-0.395-2.906-1.184c-0.717-0.785-1.074-1.893-1.074-3.316c0-1.469,0.362-2.609,1.088-3.425
		c0.724-0.812,1.659-1.218,2.813-1.218c1.115,0,2.028,0.4,2.736,1.199c0.706,0.797,1.06,1.92,1.06,3.371
		c0,0.088-0.002,0.219-0.008,0.396h-6.239c0.049,0.958,0.313,1.688,0.788,2.196c0.47,0.51,1.06,0.763,1.769,0.763
		c0.523,0,0.972-0.142,1.344-0.433C127.795,280.987,128.089,280.528,128.306,279.897z M123.554,277.532h4.769
		c-0.064-0.745-0.247-1.301-0.549-1.67c-0.459-0.573-1.058-0.864-1.792-0.864c-0.666,0-1.225,0.231-1.677,0.69
		C123.85,276.146,123.602,276.765,123.554,277.532z"/>
	<path fill="#070000" d="M131.46,282.729v-8.75h1.283v1.242c0.605-0.96,1.484-1.441,2.633-1.441c0.497,0,0.955,0.095,1.373,0.283
		c0.418,0.191,0.733,0.438,0.939,0.746c0.204,0.309,0.352,0.672,0.435,1.096c0.052,0.272,0.079,0.754,0.079,1.441v5.383h-1.448
		v-5.322c0-0.604-0.053-1.057-0.162-1.357c-0.107-0.298-0.302-0.539-0.574-0.718c-0.275-0.177-0.596-0.269-0.969-0.269
		c-0.589,0-1.102,0.201-1.533,0.604c-0.43,0.398-0.643,1.161-0.643,2.279v4.781h-1.413V282.729z"/>
	<path fill="#070000" d="M143.428,281.416l0.198,1.31c-0.398,0.088-0.751,0.135-1.066,0.135c-0.51,0-0.908-0.088-1.19-0.256
		c-0.285-0.172-0.48-0.396-0.594-0.676c-0.116-0.275-0.173-0.863-0.173-1.753v-5.046h-1.052v-1.15h1.052v-2.16l1.413-0.887v3.051
		h1.417v1.149h-1.417v5.104c0,0.422,0.029,0.695,0.076,0.813c0.049,0.122,0.13,0.216,0.243,0.289
		c0.111,0.071,0.27,0.106,0.482,0.106C142.969,281.444,143.177,281.435,143.428,281.416z"/>
</g>
<g>
	<path fill="#070000" d="M284.092,224.639v-8.75h1.279v1.243c0.607-0.963,1.484-1.44,2.635-1.44c0.494,0,0.953,0.095,1.373,0.283
		c0.418,0.188,0.73,0.438,0.938,0.745c0.206,0.308,0.351,0.675,0.437,1.097c0.049,0.272,0.08,0.756,0.08,1.44v5.378h-1.449v-5.322
		c0-0.604-0.053-1.056-0.164-1.355c-0.106-0.301-0.299-0.537-0.57-0.717c-0.273-0.178-0.6-0.268-0.969-0.268
		c-0.592,0-1.104,0.201-1.532,0.604c-0.435,0.401-0.644,1.161-0.644,2.282v4.779H284.092L284.092,224.639z"/>
	<path fill="#070000" d="M298.471,224.639v-1.294c-0.646,0.994-1.527,1.492-2.644,1.492c-0.487,0-0.946-0.103-1.377-0.301
		c-0.426-0.197-0.742-0.445-0.949-0.742c-0.204-0.306-0.352-0.668-0.436-1.104c-0.056-0.289-0.087-0.75-0.087-1.383v-5.421h1.414
		v4.851c0,0.771,0.031,1.291,0.086,1.562c0.09,0.392,0.277,0.694,0.566,0.916c0.287,0.222,0.641,0.332,1.062,0.332
		c0.422,0,0.817-0.11,1.186-0.34c0.367-0.226,0.636-0.537,0.783-0.931c0.156-0.393,0.231-0.961,0.231-1.709v-4.684h1.412v8.749
		h-1.248V224.639L298.471,224.639z"/>
	<path fill="#070000" d="M307.369,221.445l1.382,0.199c-0.153,0.998-0.538,1.78-1.159,2.344c-0.621,0.564-1.381,0.849-2.285,0.849
		c-1.133,0-2.041-0.396-2.727-1.176c-0.689-0.781-1.033-1.904-1.033-3.365c0-0.944,0.148-1.769,0.443-2.479
		c0.297-0.711,0.746-1.242,1.352-1.594c0.604-0.353,1.265-0.527,1.977-0.527c0.898,0,1.634,0.242,2.201,0.726
		c0.574,0.483,0.939,1.177,1.103,2.067l-1.383,0.197c-0.131-0.588-0.354-1.033-0.687-1.328c-0.328-0.297-0.723-0.445-1.188-0.445
		c-0.704,0-1.271,0.268-1.711,0.802c-0.439,0.535-0.656,1.382-0.656,2.544c0,1.176,0.211,2.029,0.637,2.564
		c0.426,0.529,0.979,0.801,1.66,0.801c0.549,0,1.008-0.18,1.377-0.535C307.034,222.73,307.27,222.182,307.369,221.445z"/>
	<path fill="#070000" d="M309.934,224.639V212.57h1.412v12.068H309.934z"/>
	<path fill="#070000" d="M319.305,221.807l1.42,0.201c-0.232,0.895-0.66,1.59-1.281,2.084c-0.623,0.496-1.422,0.744-2.391,0.744
		c-1.222,0-2.188-0.395-2.904-1.182c-0.717-0.791-1.076-1.894-1.076-3.317c0-1.47,0.361-2.612,1.088-3.424
		c0.721-0.813,1.66-1.22,2.813-1.22c1.117,0,2.026,0.401,2.736,1.197c0.706,0.799,1.063,1.924,1.063,3.371
		c0,0.09-0.004,0.223-0.01,0.396h-6.24c0.051,0.957,0.313,1.689,0.785,2.197c0.475,0.512,1.063,0.762,1.77,0.762
		c0.527,0,0.973-0.141,1.346-0.43C318.795,222.896,319.088,222.439,319.305,221.807z M314.551,219.443h4.771
		c-0.064-0.741-0.248-1.299-0.548-1.67c-0.464-0.576-1.06-0.865-1.798-0.865c-0.662,0-1.221,0.229-1.674,0.691
		C314.848,218.057,314.6,218.672,314.551,219.443z"/>
	<path fill="#070000" d="M321.932,220.264c0-1.619,0.429-2.818,1.283-3.6c0.717-0.646,1.59-0.971,2.616-0.971
		c1.144,0,2.078,0.394,2.804,1.183c0.727,0.791,1.09,1.879,1.09,3.269c0,1.125-0.156,2.012-0.48,2.657
		c-0.32,0.646-0.788,1.146-1.4,1.502c-0.613,0.354-1.285,0.533-2.012,0.533c-1.165,0-2.105-0.396-2.822-1.179
		C322.295,222.874,321.932,221.74,321.932,220.264z M323.381,220.26c0,1.121,0.232,1.961,0.697,2.52
		c0.465,0.56,1.049,0.838,1.756,0.838c0.701,0,1.281-0.28,1.748-0.842c0.467-0.563,0.699-1.416,0.699-2.566
		c0-1.084-0.236-1.905-0.704-2.461c-0.468-0.557-1.048-0.837-1.743-0.837c-0.705,0-1.291,0.276-1.756,0.831
		C323.612,218.297,323.381,219.136,323.381,220.26z"/>
	<path fill="#070000" d="M334.477,223.327l0.197,1.309c-0.396,0.089-0.752,0.134-1.065,0.134c-0.513,0-0.91-0.084-1.19-0.256
		c-0.283-0.171-0.482-0.396-0.598-0.671c-0.111-0.278-0.169-0.864-0.169-1.758v-5.044h-1.054v-1.15h1.054v-2.162l1.413-0.889v3.051
		h1.416v1.15h-1.416v5.107c0,0.424,0.027,0.692,0.074,0.813c0.051,0.119,0.131,0.215,0.242,0.287
		c0.11,0.069,0.271,0.104,0.481,0.104C334.014,223.35,334.221,223.345,334.477,223.327z"/>
	<path fill="#070000" d="M335.91,214.244v-1.678h1.416v1.678H335.91z M335.91,224.639v-8.75h1.416v8.75H335.91z"/>
	<path fill="#070000" d="M344.803,224.639v-1.101c-0.524,0.864-1.308,1.299-2.328,1.299c-0.666,0-1.274-0.192-1.834-0.578
		c-0.559-0.385-0.991-0.922-1.293-1.608c-0.309-0.691-0.463-1.481-0.463-2.377c0-0.873,0.138-1.666,0.418-2.377
		c0.277-0.711,0.689-1.258,1.246-1.633c0.555-0.381,1.174-0.57,1.857-0.57c0.504,0,0.947,0.106,1.342,0.328
		c0.395,0.226,0.711,0.51,0.957,0.862v-4.315h1.416v12.068L344.803,224.639L344.803,224.639z M340.332,220.268
		c0,1.123,0.229,1.961,0.678,2.514c0.449,0.558,0.982,0.836,1.6,0.836c0.619,0,1.145-0.268,1.579-0.797
		c0.432-0.528,0.649-1.338,0.649-2.428c0-1.197-0.222-2.078-0.66-2.641c-0.44-0.563-0.983-0.841-1.629-0.841
		c-0.635,0-1.16,0.267-1.582,0.808C340.543,218.258,340.332,219.107,340.332,220.268z"/>
	<path fill="#070000" d="M354.109,221.807l1.418,0.201c-0.232,0.895-0.656,1.59-1.281,2.084c-0.621,0.496-1.42,0.744-2.389,0.744
		c-1.221,0-2.188-0.395-2.906-1.182c-0.716-0.791-1.074-1.894-1.074-3.317c0-1.47,0.363-2.612,1.088-3.424
		c0.723-0.813,1.66-1.22,2.813-1.22c1.114,0,2.026,0.401,2.735,1.197c0.705,0.799,1.062,1.924,1.062,3.371
		c0,0.09-0.002,0.223-0.01,0.396h-6.24c0.051,0.957,0.313,1.689,0.789,2.197c0.471,0.512,1.063,0.762,1.769,0.762
		c0.524,0,0.973-0.141,1.346-0.43C353.6,222.896,353.891,222.439,354.109,221.807z M349.357,219.443h4.771
		c-0.063-0.741-0.248-1.299-0.549-1.67c-0.463-0.576-1.061-0.865-1.795-0.865c-0.664,0-1.225,0.229-1.676,0.691
		C349.655,218.057,349.405,218.672,349.357,219.443z"/>
</g>
<g>
	<path fill="#070000" d="M294.268,230.238v-1.678h1.416v1.678H294.268z M294.268,240.634v-8.745h1.416v8.745H294.268z"/>
	<path fill="#070000" d="M303.158,240.634v-1.1c-0.527,0.867-1.305,1.297-2.328,1.297c-0.666,0-1.277-0.189-1.834-0.578
		c-0.558-0.383-0.986-0.92-1.295-1.609c-0.307-0.686-0.459-1.479-0.459-2.377c0-0.871,0.137-1.664,0.416-2.375
		c0.277-0.709,0.695-1.256,1.247-1.635c0.554-0.381,1.173-0.569,1.856-0.569c0.504,0,0.951,0.114,1.345,0.332
		c0.392,0.218,0.71,0.505,0.956,0.86v-4.317h1.414v12.069h-1.318V240.634L303.158,240.634z M298.688,236.263
		c0,1.123,0.226,1.963,0.678,2.516c0.451,0.558,0.981,0.838,1.599,0.838c0.621,0,1.148-0.268,1.578-0.797
		c0.434-0.53,0.65-1.344,0.65-2.432c0-1.199-0.223-2.08-0.662-2.641s-0.982-0.842-1.627-0.842c-0.633,0-1.16,0.27-1.578,0.809
		C298.899,234.253,298.688,235.103,298.688,236.263z"/>
	<path fill="#070000" d="M312.469,237.804l1.414,0.197c-0.229,0.898-0.66,1.592-1.279,2.088c-0.625,0.494-1.424,0.742-2.393,0.742
		c-1.219,0-2.185-0.391-2.902-1.182c-0.717-0.787-1.073-1.894-1.073-3.314c0-1.473,0.358-2.615,1.084-3.426
		c0.724-0.814,1.659-1.22,2.813-1.22c1.115,0,2.028,0.4,2.736,1.197c0.704,0.798,1.061,1.925,1.061,3.371
		c0,0.091-0.004,0.22-0.008,0.396h-6.238c0.05,0.957,0.313,1.689,0.785,2.195c0.474,0.512,1.063,0.762,1.769,0.762
		c0.524,0,0.974-0.143,1.348-0.432C311.952,238.894,312.25,238.437,312.469,237.804z M307.713,235.438h4.771
		c-0.064-0.744-0.245-1.302-0.549-1.67c-0.463-0.574-1.061-0.863-1.795-0.863c-0.664,0-1.223,0.229-1.678,0.686
		C308.012,234.052,307.762,234.669,307.713,235.438z"/>
	<path fill="#070000" d="M315.619,240.634v-8.745h1.283v1.239c0.607-0.959,1.484-1.438,2.633-1.438c0.502,0,0.956,0.097,1.375,0.283
		c0.418,0.188,0.73,0.438,0.936,0.744c0.211,0.308,0.354,0.67,0.436,1.097c0.055,0.272,0.079,0.754,0.079,1.44v5.381h-1.445v-5.321
		c0-0.605-0.054-1.056-0.161-1.355c-0.107-0.301-0.302-0.541-0.574-0.717c-0.274-0.18-0.599-0.268-0.971-0.268
		c-0.588,0-1.099,0.2-1.529,0.602c-0.435,0.4-0.646,1.16-0.646,2.283v4.778L315.619,240.634L315.619,240.634z"/>
	<path fill="#070000" d="M327.588,239.323l0.197,1.305c-0.395,0.088-0.75,0.137-1.068,0.137c-0.51,0-0.903-0.086-1.187-0.258
		c-0.282-0.168-0.481-0.395-0.595-0.676c-0.117-0.275-0.172-0.859-0.172-1.75v-5.045h-1.049v-1.15h1.049v-2.161l1.412-0.887v3.049
		h1.418v1.15h-1.418v5.104c0,0.426,0.026,0.696,0.078,0.813c0.045,0.123,0.131,0.219,0.237,0.289
		c0.113,0.069,0.272,0.104,0.481,0.104C327.129,239.349,327.336,239.343,327.588,239.323z"/>
	<path fill="#070000" d="M329.025,230.238v-1.678h1.412v1.678H329.025z M329.025,240.634v-8.745h1.412v8.745H329.025z"/>
	<path fill="#070000" d="M335.611,239.323l0.199,1.305c-0.396,0.088-0.75,0.137-1.063,0.137c-0.51,0-0.909-0.086-1.192-0.258
		c-0.281-0.168-0.482-0.395-0.596-0.676c-0.113-0.275-0.172-0.859-0.172-1.75v-5.045h-1.051v-1.15h1.051v-2.161l1.416-0.887v3.049
		h1.413v1.15h-1.413v5.104c0,0.426,0.026,0.696,0.072,0.813c0.049,0.123,0.133,0.219,0.244,0.289
		c0.109,0.069,0.271,0.104,0.479,0.104C335.152,239.349,335.355,239.343,335.611,239.323z"/>
	<path fill="#070000" d="M337.059,244.009l-0.195-1.371c0.316,0.09,0.598,0.133,0.833,0.133c0.323,0,0.582-0.055,0.776-0.162
		c0.194-0.112,0.354-0.266,0.479-0.463c0.091-0.149,0.235-0.518,0.444-1.106c0.027-0.082,0.066-0.205,0.128-0.365l-3.188-8.787
		h1.514l1.75,5.052c0.228,0.641,0.436,1.313,0.615,2.02c0.157-0.658,0.35-1.313,0.569-1.959l1.769-5.113h1.408l-3.113,8.908
		c-0.347,0.959-0.614,1.619-0.808,1.977c-0.255,0.488-0.547,0.844-0.877,1.074c-0.329,0.225-0.724,0.34-1.181,0.34
		C337.707,244.185,337.4,244.124,337.059,244.009z"/>
</g>
<g>
	<path fill="#070000" d="M316.623,285.806v-1.416h7.434v1.145c-0.734,0.818-1.457,1.902-2.174,3.259
		c-0.719,1.354-1.271,2.75-1.662,4.183c-0.283,1.012-0.461,2.116-0.543,3.321h-1.443c0.017-0.948,0.191-2.099,0.529-3.442
		c0.34-1.347,0.826-2.642,1.457-3.892c0.633-1.25,1.31-2.306,2.023-3.155h-5.621V285.806z"/>
	<path fill="#070000" d="M325.449,293.14l1.447-0.131c0.109,0.752,0.359,1.318,0.754,1.699c0.395,0.379,0.88,0.57,1.451,0.57
		c0.697,0,1.273-0.269,1.734-0.801c0.463-0.539,0.693-1.248,0.693-2.134c0-0.842-0.221-1.508-0.661-1.991
		c-0.438-0.486-1.026-0.732-1.771-0.732c-0.461,0-0.873,0.107-1.227,0.32c-0.359,0.217-0.641,0.49-0.846,0.834l-1.314-0.197
		l1.114-6.188h5.69v1.416h-4.566l-0.622,3.26c0.687-0.506,1.403-0.76,2.16-0.76c0.997,0,1.838,0.36,2.521,1.092
		c0.688,0.725,1.031,1.664,1.031,2.807c0,1.09-0.304,2.029-0.908,2.824c-0.738,0.975-1.738,1.463-3.01,1.463
		c-1.039,0-1.892-0.303-2.554-0.92C325.922,294.962,325.543,294.149,325.449,293.14z"/>
	<path fill="#070000" d="M334.605,287.136c0-0.865,0.205-1.594,0.615-2.199c0.41-0.604,1.008-0.906,1.791-0.906
		c0.721,0,1.313,0.271,1.789,0.813c0.471,0.539,0.705,1.334,0.705,2.384c0,1.02-0.238,1.807-0.718,2.354
		c-0.478,0.556-1.063,0.83-1.761,0.83c-0.691,0-1.271-0.271-1.732-0.813C334.836,289.054,334.605,288.229,334.605,287.136z
		 M337.051,285.081c-0.352,0-0.645,0.158-0.879,0.471c-0.232,0.313-0.35,0.889-0.35,1.729c0,0.765,0.118,1.302,0.352,1.609
		c0.24,0.311,0.53,0.469,0.877,0.469c0.359,0,0.653-0.16,0.89-0.473c0.233-0.313,0.352-0.887,0.352-1.717
		c0-0.77-0.12-1.307-0.354-1.619C337.696,285.237,337.404,285.081,337.051,285.081z M337.059,296.755l6.348-12.727h1.174
		l-6.349,12.727H337.059z M342.104,293.481c0-0.869,0.207-1.601,0.619-2.203c0.408-0.601,1.007-0.898,1.795-0.898
		c0.717,0,1.313,0.268,1.779,0.811c0.475,0.539,0.707,1.332,0.707,2.383c0,1.021-0.236,1.808-0.716,2.357
		c-0.475,0.553-1.063,0.826-1.766,0.826c-0.695,0-1.271-0.273-1.729-0.816C342.336,295.396,342.104,294.573,342.104,293.481z
		 M344.553,291.431c-0.356,0-0.646,0.16-0.883,0.473c-0.231,0.312-0.352,0.888-0.352,1.726c0,0.761,0.12,1.293,0.354,1.606
		c0.235,0.313,0.526,0.47,0.873,0.47c0.361,0,0.658-0.156,0.893-0.47s0.35-0.887,0.35-1.717c0-0.77-0.117-1.311-0.355-1.619
		C345.198,291.581,344.904,291.431,344.553,291.431z"/>
</g>
<g>
	<path fill="#808080" d="M283.346,296.296v-12.066h1.551l6.08,9.49v-9.49h1.445v12.066h-1.548l-6.079-9.49v9.49H283.346z"/>
</g>
<g>
	<path fill="#C0292A" d="M283.346,262.253v-12.07h1.551l6.08,9.492v-9.492h1.445v12.07h-1.548l-6.079-9.492v9.492H283.346z"/>
</g>
<g>
	<path fill="#070000" d="M316.719,259.456l1.351-0.131c0.116,0.668,0.33,1.152,0.655,1.453c0.32,0.303,0.73,0.451,1.236,0.451
		c0.428,0,0.807-0.103,1.137-0.308c0.33-0.209,0.597-0.483,0.799-0.836c0.201-0.347,0.371-0.813,0.511-1.399
		c0.14-0.593,0.209-1.191,0.209-1.81c0-0.063-0.004-0.164-0.006-0.295c-0.28,0.474-0.662,0.854-1.146,1.146
		c-0.482,0.295-1.009,0.442-1.57,0.442c-0.942,0-1.74-0.364-2.391-1.088c-0.652-0.724-0.979-1.681-0.979-2.863
		c0-1.229,0.343-2.209,1.027-2.957c0.685-0.743,1.541-1.118,2.576-1.118c0.742,0,1.426,0.209,2.043,0.635
		c0.616,0.422,1.086,1.021,1.404,1.801c0.32,0.781,0.484,1.912,0.484,3.389c0,1.539-0.162,2.764-0.479,3.676
		c-0.317,0.91-0.794,1.605-1.424,2.084c-0.629,0.48-1.365,0.715-2.209,0.715c-0.897,0-1.631-0.266-2.199-0.787
		C317.176,261.136,316.834,260.401,316.719,259.456z M322.475,254.14c0-0.85-0.213-1.525-0.637-2.025
		c-0.421-0.498-0.938-0.75-1.552-0.75c-0.636,0-1.18,0.271-1.636,0.808c-0.454,0.539-0.684,1.235-0.684,2.093
		c0,0.77,0.217,1.393,0.65,1.875c0.432,0.483,0.975,0.719,1.628,0.719c0.651,0,1.185-0.238,1.599-0.719
		C322.264,255.657,322.475,254.993,322.475,254.14z"/>
	<path fill="#070000" d="M325.549,251.759v-1.414h7.433v1.145c-0.732,0.818-1.452,1.902-2.175,3.259
		c-0.715,1.354-1.271,2.752-1.659,4.185c-0.286,1.012-0.464,2.116-0.539,3.317h-1.449c0.017-0.944,0.192-2.097,0.532-3.44
		c0.337-1.345,0.826-2.64,1.456-3.892c0.637-1.25,1.309-2.304,2.022-3.158L325.549,251.759L325.549,251.759z"/>
	<path fill="#070000" d="M334.605,253.089c0-0.861,0.205-1.594,0.615-2.199c0.41-0.604,1.008-0.904,1.791-0.904
		c0.721,0,1.313,0.269,1.789,0.81c0.471,0.543,0.705,1.336,0.705,2.386c0,1.02-0.238,1.805-0.718,2.356
		c-0.478,0.553-1.063,0.825-1.761,0.825c-0.691,0-1.271-0.27-1.732-0.811C334.836,255.009,334.605,254.188,334.605,253.089z
		 M337.051,251.038c-0.352,0-0.645,0.158-0.879,0.473c-0.232,0.313-0.35,0.891-0.35,1.729c0,0.763,0.118,1.298,0.352,1.609
		c0.24,0.309,0.53,0.465,0.877,0.465c0.359,0,0.653-0.158,0.89-0.469c0.233-0.313,0.352-0.887,0.352-1.717
		c0-0.77-0.12-1.307-0.354-1.619C337.696,251.19,337.404,251.038,337.051,251.038z M337.059,262.712l6.348-12.727h1.174
		l-6.349,12.727H337.059z M342.104,259.435c0-0.865,0.207-1.597,0.619-2.199c0.408-0.601,1.007-0.902,1.795-0.902
		c0.717,0,1.313,0.271,1.779,0.813c0.475,0.537,0.707,1.334,0.707,2.381c0,1.021-0.236,1.81-0.716,2.359
		c-0.475,0.553-1.063,0.83-1.766,0.83c-0.695,0-1.271-0.275-1.729-0.822C342.336,261.349,342.104,260.528,342.104,259.435z
		 M344.553,257.384c-0.356,0-0.646,0.158-0.883,0.471c-0.231,0.313-0.352,0.89-0.352,1.729c0,0.758,0.12,1.293,0.354,1.604
		c0.235,0.313,0.526,0.474,0.873,0.474c0.361,0,0.658-0.16,0.893-0.474c0.234-0.309,0.35-0.887,0.35-1.717
		c0-0.77-0.117-1.311-0.355-1.619C345.198,257.54,344.904,257.384,344.553,257.384z"/>
</g>
<g>
	<path fill="#070000" d="M283.346,279.276v-12.068h1.551l6.08,9.49v-9.49h1.445v12.068h-1.548l-6.079-9.492v9.492H283.346z"/>
</g>
<g>
	<path fill="#070000" d="M316.719,276.476l1.351-0.132c0.116,0.668,0.33,1.152,0.655,1.453c0.32,0.302,0.73,0.451,1.236,0.451
		c0.428,0,0.807-0.101,1.137-0.31c0.33-0.205,0.597-0.483,0.799-0.834c0.201-0.346,0.371-0.811,0.511-1.401
		c0.14-0.587,0.209-1.188,0.209-1.806c0-0.063-0.004-0.166-0.006-0.299c-0.28,0.473-0.662,0.855-1.146,1.15
		c-0.482,0.291-1.009,0.439-1.57,0.439c-0.942,0-1.74-0.363-2.391-1.088c-0.652-0.726-0.979-1.681-0.979-2.863
		c0-1.228,0.343-2.207,1.027-2.955c0.685-0.746,1.541-1.119,2.576-1.119c0.742,0,1.426,0.211,2.043,0.633
		c0.616,0.424,1.086,1.021,1.404,1.801c0.32,0.783,0.484,1.912,0.484,3.389c0,1.539-0.162,2.767-0.479,3.677
		c-0.317,0.911-0.794,1.606-1.424,2.086c-0.629,0.479-1.365,0.713-2.209,0.713c-0.897,0-1.631-0.267-2.199-0.787
		C317.176,278.153,316.834,277.425,316.719,276.476z M322.475,271.165c0-0.85-0.213-1.525-0.637-2.025
		c-0.421-0.5-0.938-0.748-1.552-0.748c-0.636,0-1.18,0.268-1.636,0.803c-0.454,0.539-0.684,1.236-0.684,2.093
		c0,0.771,0.217,1.396,0.65,1.875c0.432,0.479,0.975,0.719,1.628,0.719c0.651,0,1.185-0.239,1.599-0.719
		C322.264,272.683,322.475,272.015,322.475,271.165z"/>
	<path fill="#070000" d="M325.449,273.325c0-1.422,0.139-2.572,0.419-3.447c0.282-0.871,0.7-1.543,1.253-2.01
		c0.557-0.465,1.252-0.699,2.092-0.699c0.621,0,1.168,0.131,1.641,0.391c0.472,0.262,0.857,0.637,1.158,1.123
		c0.302,0.494,0.533,1.092,0.707,1.793c0.174,0.705,0.263,1.65,0.263,2.85c0,1.412-0.142,2.558-0.418,3.433
		c-0.282,0.873-0.694,1.545-1.251,2.011c-0.553,0.471-1.254,0.703-2.1,0.703c-1.111,0-1.986-0.41-2.619-1.23
		C325.829,277.224,325.449,275.587,325.449,273.325z M326.896,273.321c0,1.988,0.221,3.311,0.667,3.959
		c0.446,0.65,0.995,0.973,1.647,0.973c0.655,0,1.204-0.324,1.647-0.979c0.444-0.652,0.669-1.972,0.669-3.953
		c0-1.984-0.223-3.303-0.663-3.953c-0.44-0.652-1-0.979-1.672-0.979c-0.652,0-1.177,0.286-1.574,0.86
		C327.141,269.987,326.896,271.343,326.896,273.321z"/>
	<path fill="#070000" d="M334.605,270.112c0-0.863,0.205-1.596,0.615-2.197c0.41-0.605,1.008-0.908,1.791-0.908
		c0.721,0,1.313,0.271,1.789,0.813c0.471,0.541,0.705,1.332,0.705,2.381c0,1.021-0.238,1.812-0.718,2.361
		c-0.478,0.551-1.063,0.826-1.761,0.826c-0.691,0-1.271-0.271-1.732-0.814C334.836,272.03,334.605,271.21,334.605,270.112z
		 M337.051,268.06c-0.352,0-0.645,0.157-0.879,0.471c-0.232,0.313-0.35,0.889-0.35,1.729c0,0.762,0.118,1.297,0.352,1.609
		c0.24,0.313,0.53,0.469,0.877,0.469c0.359,0,0.653-0.16,0.89-0.471c0.233-0.313,0.352-0.887,0.352-1.719
		c0-0.771-0.12-1.308-0.354-1.619C337.696,268.214,337.404,268.06,337.051,268.06z M337.059,279.733l6.348-12.728h1.174
		l-6.349,12.728H337.059z M342.104,276.458c0-0.865,0.207-1.6,0.619-2.199c0.408-0.602,1.007-0.9,1.795-0.9
		c0.717,0,1.313,0.269,1.779,0.808c0.475,0.541,0.707,1.336,0.707,2.383c0,1.021-0.236,1.81-0.716,2.361
		c-0.475,0.551-1.063,0.825-1.766,0.825c-0.695,0-1.271-0.272-1.729-0.817S342.104,277.55,342.104,276.458z M344.553,274.407
		c-0.356,0-0.646,0.156-0.883,0.471c-0.231,0.314-0.352,0.889-0.352,1.727c0,0.76,0.12,1.293,0.354,1.609
		c0.235,0.309,0.526,0.469,0.873,0.469c0.361,0,0.658-0.16,0.893-0.469c0.234-0.314,0.35-0.889,0.35-1.721
		c0-0.766-0.117-1.307-0.355-1.617C345.196,274.562,344.904,274.407,344.553,274.407z"/>
</g>
<text transform="matrix(0.8717 0 0 1 222.1465 316.7363)" font-family="'Arial-BoldMT'" font-size="16">R = A or G. Y = C or U.</text>
<text transform="matrix(1 0 0 1 15.5 35.5)" font-family="'Arial-BoldMT'" font-size="20">folE RNA motif</text>
</svg>
