<svg id="svg2403" xmlns="http://www.w3.org/2000/svg" viewBox="0 0 400 400"><defs><style>.cls-1,.cls-17,.cls-20{fill:none;}.cls-1,.cls-11,.cls-12,.cls-13,.cls-17{stroke:#000;}.cls-1{stroke-width:1.44px;}.cls-2{fill:#d7efc5;}.cls-10,.cls-14,.cls-15,.cls-16,.cls-27,.cls-3,.cls-30,.cls-4,.cls-5,.cls-6,.cls-7,.cls-8,.cls-9{isolation:isolate;}.cls-3{font-size:21.82px;}.cls-10,.cls-14,.cls-15,.cls-16,.cls-3,.cls-30,.cls-4,.cls-5,.cls-6,.cls-7,.cls-8,.cls-9{font-family:ArialMT, Arial;}.cls-10,.cls-14,.cls-15,.cls-16,.cls-4,.cls-5,.cls-6,.cls-7,.cls-8,.cls-9{font-size:13.64px;}.cls-13,.cls-16,.cls-4,.cls-6,.cls-7{fill:#d90000;}.cls-12,.cls-15,.cls-5,.cls-8{fill:#807b88;}.cls-6{letter-spacing:-0.06em;}.cls-10,.cls-7,.cls-8{letter-spacing:-0.02em;}.cls-11,.cls-12,.cls-13,.cls-17,.cls-20{stroke-width:0.72px;}.cls-14,.cls-15,.cls-16{letter-spacing:-0.06em;}.cls-18{fill:#0a0303;}.cls-19{fill:#d0e1ae;}.cls-20{stroke:#060000;stroke-miterlimit:10;}.cls-21{fill:#070000;}.cls-22{fill:#221e1f;}.cls-23{fill:#c62b2b;}.cls-24{fill:#7f7b86;}.cls-25{fill:gray;}.cls-26{fill:#c0292a;}.cls-27{font-size:17.37px;font-family:Arial-BoldMT, Arial;font-weight:700;}.cls-28{letter-spacing:-0.04em;}.cls-29{letter-spacing:-0.02em;}.cls-30{font-size:20px;}.cls-31{letter-spacing:-0.06em;}</style></defs><path class="cls-1" d="M214,180h7.07"/><path class="cls-2" d="M201.09,161.38H234v9.8H201.09Z"/><path class="cls-1" d="M214,166.28h7.07"/><path class="cls-2" d="M201.09,147.63H234v9.8H201.09Z"/><path class="cls-1" d="M214,152.53h7.07"/><path class="cls-2" d="M201.09,133.89H234v9.79H201.09Z"/><path class="cls-1" d="M214,138.78h7.07"/><path class="cls-1" d="M214,125h7.07"/><path class="cls-2" d="M201.09,106.39H234v9.79H201.09Z"/><path class="cls-1" d="M214,111.28h7.07"/><path class="cls-2" d="M201.09,92.64H234v9.79H201.09Z"/><path class="cls-1" d="M214,97.53h7.07"/><text class="cls-3" transform="translate(54.25 194.65)"><tspan xml:space="preserve">   </tspan></text><text class="cls-4" transform="translate(54.25 194.65)">C</text><text class="cls-3" transform="translate(64.1 194.65)"> </text><text class="cls-3" transform="translate(68 194.65)"><tspan xml:space="preserve">   </tspan></text><text class="cls-4" transform="translate(68 194.65)">C</text><text class="cls-3" transform="translate(77.85 194.65)"> </text><text class="cls-3" transform="translate(81.37 194.65)"><tspan xml:space="preserve">   </tspan></text><text class="cls-4" transform="translate(81.37 194.65)">G</text><text class="cls-3" transform="translate(91.98 194.65)"> </text><text class="cls-3" transform="translate(95.5 194.65)"><tspan xml:space="preserve">   </tspan></text><text class="cls-4" transform="translate(95.5 194.65)">U</text><text class="cls-3" transform="translate(105.35 194.65)"> </text><text class="cls-3" transform="translate(109.25 194.65)"><tspan xml:space="preserve">   </tspan></text><text class="cls-4" transform="translate(109.25 194.65)">U</text><text class="cls-3" transform="translate(119.1 194.65)"> </text><text class="cls-3" transform="translate(123 194.65)"><tspan xml:space="preserve">   </tspan></text><text class="cls-5" transform="translate(123 194.65)">C</text><text class="cls-3" transform="translate(132.85 194.65)"> </text><text class="cls-3" transform="translate(137.12 194.65)"><tspan xml:space="preserve">   </tspan></text><text class="cls-6" transform="translate(137.12 194.65)">A</text><text class="cls-3" transform="translate(146.22 194.65)"> </text><text class="cls-3" transform="translate(150.87 194.65)"><tspan xml:space="preserve">   </tspan></text><text class="cls-6" transform="translate(150.87 194.65)">A</text><text class="cls-3" transform="translate(159.97 194.65)"> </text><text class="cls-3" transform="translate(164.25 194.65)"><tspan xml:space="preserve">   </tspan></text><text class="cls-4" transform="translate(164.25 194.65)">C</text><text class="cls-3" transform="translate(174.1 194.65)"> </text><text class="cls-3" transform="translate(178 194.65)"><tspan xml:space="preserve">   </tspan></text><text class="cls-4" transform="translate(178 194.65)">U</text><text class="cls-3" transform="translate(187.85 194.65)"> </text><text class="cls-3" transform="translate(191.75 194.65)"><tspan xml:space="preserve">   </tspan></text><text class="cls-4" transform="translate(191.75 194.65)">C</text><text class="cls-3" transform="translate(201.6 194.65)"> </text><text class="cls-3" transform="translate(201.09 184.93)"><tspan xml:space="preserve">   </tspan></text><text class="cls-4" transform="translate(201.09 184.93)">G</text><text class="cls-3" transform="translate(211.7 184.93)"> </text><text class="cls-3" transform="translate(201.47 171.18)"><tspan xml:space="preserve">   </tspan></text><text class="cls-5" transform="translate(201.47 171.18)">U</text><text class="cls-3" transform="translate(211.32 171.18)"> </text><text class="cls-3" transform="translate(201.84 157.43)"><tspan xml:space="preserve">   </tspan></text><text class="cls-7" transform="translate(201.84 157.43)">Y</text><text class="cls-3" transform="translate(210.94 157.43)"> </text><text class="cls-3" transform="translate(201.84 143.68)"><tspan xml:space="preserve">   </tspan></text><text class="cls-8" transform="translate(201.84 143.68)">Y</text><text class="cls-3" transform="translate(210.94 143.68)"> </text><text class="cls-3" transform="translate(201.47 129.93)"><tspan xml:space="preserve">   </tspan></text><text class="cls-9" transform="translate(201.47 129.93)">C</text><text class="cls-3" transform="translate(211.32 129.93)"> </text><text class="cls-3" transform="translate(201.84 116.18)"><tspan xml:space="preserve">   </tspan></text><text class="cls-10" transform="translate(201.84 116.18)">Y</text><text class="cls-3" transform="translate(210.94 116.18)"> </text><path class="cls-11" d="M211.05,97.53a4.66,4.66,0,1,1-4.65-4.64A4.66,4.66,0,0,1,211.05,97.53Z"/><text class="cls-3" transform="translate(193.71 91.08)"><tspan xml:space="preserve">   </tspan></text><text class="cls-4" transform="translate(193.71 91.08)">C</text><text class="cls-3" transform="translate(203.57 91.08)"> </text><path class="cls-12" d="M205,72.54a4.65,4.65,0,0,1-9.3,0h0a4.65,4.65,0,1,1,9.3,0Z"/><path class="cls-13" d="M215.3,63.43a4.65,4.65,0,1,1-4.65-4.64A4.65,4.65,0,0,1,215.3,63.43Z"/><text class="cls-3" transform="translate(219.85 68.33)"><tspan xml:space="preserve">   </tspan></text><text class="cls-8" transform="translate(219.85 68.33)">Y</text><text class="cls-3" transform="translate(228.95 68.33)"> </text><text class="cls-3" transform="translate(229.4 77.43)"><tspan xml:space="preserve">   </tspan></text><text class="cls-4" transform="translate(229.4 77.43)">G</text><text class="cls-3" transform="translate(240.01 77.43)"> </text><text class="cls-3" transform="translate(231.86 91.08)"><tspan xml:space="preserve">   </tspan></text><text class="cls-14" transform="translate(231.86 91.08)">A</text><text class="cls-3" transform="translate(240.96 91.08)"> </text><path class="cls-11" d="M233.31,97.53a4.66,4.66,0,1,1-4.65-4.64A4.66,4.66,0,0,1,233.31,97.53Z"/><text class="cls-3" transform="translate(223.73 116.18)"><tspan xml:space="preserve">   </tspan></text><text class="cls-9" transform="translate(223.73 116.18)">R</text><text class="cls-3" transform="translate(233.58 116.18)"> </text><text class="cls-3" transform="translate(223.35 129.93)"><tspan xml:space="preserve">   </tspan></text><text class="cls-9" transform="translate(223.35 129.93)">G</text><text class="cls-3" transform="translate(233.96 129.93)"> </text><text class="cls-3" transform="translate(223.73 143.68)"><tspan xml:space="preserve">   </tspan></text><text class="cls-5" transform="translate(223.73 143.68)">R</text><text class="cls-3" transform="translate(233.58 143.68)"> </text><text class="cls-3" transform="translate(223.73 157.43)"><tspan xml:space="preserve">   </tspan></text><text class="cls-4" transform="translate(223.73 157.43)">R</text><text class="cls-3" transform="translate(233.58 157.43)"> </text><text class="cls-3" transform="translate(224.11 171.18)"><tspan xml:space="preserve">   </tspan></text><text class="cls-15" transform="translate(224.11 171.18)">A</text><text class="cls-3" transform="translate(233.2 171.18)"> </text><text class="cls-3" transform="translate(223.73 184.93)"><tspan xml:space="preserve">   </tspan></text><text class="cls-4" transform="translate(223.73 184.93)">C</text><text class="cls-3" transform="translate(233.58 184.93)"> </text><text class="cls-3" transform="translate(233.45 194.65)"><tspan xml:space="preserve">   </tspan></text><text class="cls-9" transform="translate(233.45 194.65)">U</text><text class="cls-3" transform="translate(243.3 194.65)"> </text><text class="cls-3" transform="translate(247.58 194.65)"><tspan xml:space="preserve">   </tspan></text><text class="cls-16" transform="translate(247.58 194.65)">A</text><text class="cls-3" transform="translate(256.67 194.65)"> </text><text class="cls-3" transform="translate(260.95 194.65)"><tspan xml:space="preserve">   </tspan></text><text class="cls-4" transform="translate(260.95 194.65)">C</text><text class="cls-3" transform="translate(270.8 194.65)"> </text><text class="cls-3" transform="translate(274.32 194.65)"><tspan xml:space="preserve">   </tspan></text><text class="cls-9" transform="translate(274.32 194.65)">G</text><text class="cls-3" transform="translate(284.93 194.65)"> </text><text class="cls-3" transform="translate(288.07 194.65)"><tspan xml:space="preserve">   </tspan></text><text class="cls-4" transform="translate(288.07 194.65)">G</text><text class="cls-3" transform="translate(298.68 194.65)"> </text><text class="cls-3" transform="translate(301.82 194.65)"><tspan xml:space="preserve">   </tspan></text><text class="cls-4" transform="translate(301.82 194.65)">G</text><text class="cls-3" transform="translate(312.43 194.65)"> </text><text class="cls-3" transform="translate(316.33 194.65)"><tspan xml:space="preserve">   </tspan></text><text class="cls-16" transform="translate(316.33 194.65)">A</text><text class="cls-3" transform="translate(325.42 194.65)"> </text><text class="cls-3" transform="translate(329.32 194.65)"><tspan xml:space="preserve">   </tspan></text><text class="cls-4" transform="translate(329.32 194.65)">G</text><text class="cls-3" transform="translate(339.93 194.65)"> </text><path class="cls-17" d="M45.43,189.75H52.3"/><text class="cls-3" transform="translate(32.51 194.65)"><tspan xml:space="preserve">   </tspan></text><text class="cls-9" transform="translate(32.51 194.65)">5&apos;</text><text class="cls-3" transform="translate(42.7 194.65)"> </text><path class="cls-18" d="M64.75,256.71l1.65.23A4.62,4.62,0,0,1,65,259.76a3.93,3.93,0,0,1-2.75,1A4.16,4.16,0,0,1,59,259.37a6,6,0,0,1-1.23-4,7.77,7.77,0,0,1,.53-3,3.9,3.9,0,0,1,1.62-1.92,4.68,4.68,0,0,1,2.37-.64,4,4,0,0,1,2.65.88,4.08,4.08,0,0,1,1.32,2.48l-1.66.24a2.94,2.94,0,0,0-.82-1.6,2.07,2.07,0,0,0-1.43-.53,2.54,2.54,0,0,0-2.05,1,4.79,4.79,0,0,0-.79,3.06,4.91,4.91,0,0,0,.77,3.08,2.41,2.41,0,0,0,2,1,2.26,2.26,0,0,0,1.65-.64A3.3,3.3,0,0,0,64.75,256.71Z"/><path class="cls-18" d="M67.14,255.28A5.6,5.6,0,0,1,68.68,251a4.56,4.56,0,0,1,3.15-1.16,4.35,4.35,0,0,1,3.36,1.42,5.59,5.59,0,0,1,1.31,3.92,7.16,7.16,0,0,1-.58,3.19,4.14,4.14,0,0,1-1.68,1.81,4.7,4.7,0,0,1-2.41.64,4.35,4.35,0,0,1-3.39-1.42A5.8,5.8,0,0,1,67.14,255.28Zm1.74,0a4.66,4.66,0,0,0,.84,3,2.71,2.71,0,0,0,4.21,0,4.74,4.74,0,0,0,.83-3.08,4.52,4.52,0,0,0-.84-3,2.69,2.69,0,0,0-4.2,0A4.61,4.61,0,0,0,68.88,255.28Z"/><path class="cls-18" d="M81.09,260.53,77.31,250h1.82l2.14,6.29c.23.68.44,1.38.64,2.12.15-.56.36-1.22.64-2L84.77,250h1.74l-3.77,10.5Z"/><path class="cls-18" d="M94.28,259.23a6.1,6.1,0,0,1-1.81,1.2,5,5,0,0,1-1.87.34,3.54,3.54,0,0,1-2.54-.84,2.85,2.85,0,0,1-.89-2.17,3.05,3.05,0,0,1,.33-1.41,2.93,2.93,0,0,1,.88-1,4,4,0,0,1,1.23-.59,12.77,12.77,0,0,1,1.51-.27,14.73,14.73,0,0,0,3-.61c0-.25,0-.4,0-.46a2,2,0,0,0-.48-1.54,2.76,2.76,0,0,0-1.93-.61,2.83,2.83,0,0,0-1.76.45,2.78,2.78,0,0,0-.85,1.57l-1.7-.24a4.36,4.36,0,0,1,.76-1.81,3.21,3.21,0,0,1,1.5-1.06,6.6,6.6,0,0,1,2.28-.37,5.75,5.75,0,0,1,2.08.32,2.61,2.61,0,0,1,1.18.8,2.75,2.75,0,0,1,.53,1.2,10,10,0,0,1,.09,1.65v2.38a27.83,27.83,0,0,0,.1,3.14,4.27,4.27,0,0,0,.41,1.25H94.63A3.81,3.81,0,0,1,94.28,259.23Zm-.12-4a12.11,12.11,0,0,1-2.78.67,6.69,6.69,0,0,0-1.49.36,1.54,1.54,0,0,0-.67.59,1.64,1.64,0,0,0,.28,2.05,2.18,2.18,0,0,0,1.51.47,3.46,3.46,0,0,0,1.74-.44,2.66,2.66,0,0,0,1.12-1.25,4.36,4.36,0,0,0,.28-1.79Z"/><path class="cls-18" d="M98.44,260.53V250H100v1.61a4.41,4.41,0,0,1,1.07-1.49,1.82,1.82,0,0,1,1.08-.36,3.14,3.14,0,0,1,1.72.58l-.59,1.63a2.5,2.5,0,0,0-1.23-.35,1.53,1.53,0,0,0-1,.35,2,2,0,0,0-.63,1,7.53,7.53,0,0,0-.28,2.08v5.48Z"/><path class="cls-18" d="M105.24,264.59l-.23-1.65a3.56,3.56,0,0,0,1,.16,1.78,1.78,0,0,0,.93-.2,1.56,1.56,0,0,0,.58-.56,9.51,9.51,0,0,0,.53-1.33,4.41,4.41,0,0,1,.16-.43L104.38,250h1.81l2.11,6.07c.27.76.52,1.57.73,2.42.19-.79.42-1.58.69-2.36l2.12-6.13h1.69l-3.74,10.7a22.07,22.07,0,0,1-1,2.37,3.6,3.6,0,0,1-1.06,1.29,2.44,2.44,0,0,1-1.41.41A3.48,3.48,0,0,1,105.24,264.59Z"/><path class="cls-18" d="M115,248.06v-2h1.7v2Zm0,12.47V250h1.7v10.5Z"/><path class="cls-18" d="M119.24,260.53V250h1.54v1.49a3.52,3.52,0,0,1,3.16-1.73,3.9,3.9,0,0,1,1.65.34,2.72,2.72,0,0,1,1.13.89,3.72,3.72,0,0,1,.52,1.32,10.93,10.93,0,0,1,.1,1.74v6.45H125.6v-6.39a5.07,5.07,0,0,0-.2-1.63,1.71,1.71,0,0,0-.69-.86,2.12,2.12,0,0,0-1.16-.32,2.62,2.62,0,0,0-1.84.72,3.74,3.74,0,0,0-.77,2.75v5.73Z"/><path class="cls-18" d="M129.66,261.41l1.69.23a1.8,1.8,0,0,0,.57,1.2,2.7,2.7,0,0,0,1.71.5,2.86,2.86,0,0,0,1.8-.5,2.41,2.41,0,0,0,.86-1.39,11.56,11.56,0,0,0,.12-2.29,3.43,3.43,0,0,1-2.78,1.38,3.72,3.72,0,0,1-3.2-1.57,6.19,6.19,0,0,1-1.13-3.74,7.24,7.24,0,0,1,.52-2.78,4.3,4.3,0,0,1,1.51-2,3.86,3.86,0,0,1,2.32-.69,3.5,3.5,0,0,1,2.92,1.54V250h1.54v9.08a9,9,0,0,1-.48,3.48,3.55,3.55,0,0,1-1.5,1.62,5.06,5.06,0,0,1-2.53.59,4.6,4.6,0,0,1-2.89-.85A2.9,2.9,0,0,1,129.66,261.41ZM131,255.1a4.67,4.67,0,0,0,.79,3,2.44,2.44,0,0,0,2,1,2.48,2.48,0,0,0,2-.95,4.56,4.56,0,0,0,.8-3,4.52,4.52,0,0,0-.82-2.92,2.49,2.49,0,0,0-2-1,2.45,2.45,0,0,0-1.94,1A4.48,4.48,0,0,0,131,255.1Z"/><path class="cls-18" d="M146,260.53V250h1.5v1.47a3.71,3.71,0,0,1,1.25-1.24,3.4,3.4,0,0,1,1.78-.47,3.1,3.1,0,0,1,1.82.49,2.5,2.5,0,0,1,1,1.35,3.6,3.6,0,0,1,3.1-1.84,2.94,2.94,0,0,1,2.29.87,3.78,3.78,0,0,1,.8,2.66v7.21h-1.69v-6.62a5.12,5.12,0,0,0-.17-1.54,1.42,1.42,0,0,0-.6-.75,1.71,1.71,0,0,0-1-.29,2.31,2.31,0,0,0-1.75.74,3.33,3.33,0,0,0-.7,2.36v6.11H152v-6.83a3.08,3.08,0,0,0-.42-1.78,1.5,1.5,0,0,0-1.34-.6,2.3,2.3,0,0,0-1.32.4,2.19,2.19,0,0,0-.88,1.15,6.91,6.91,0,0,0-.27,2.2v5.45Z"/><path class="cls-18" d="M168.64,260.53V259a3.62,3.62,0,0,1-3.17,1.78,3.87,3.87,0,0,1-1.66-.36,2.6,2.6,0,0,1-1.13-.89,3.42,3.42,0,0,1-.53-1.32,9.45,9.45,0,0,1-.1-1.66V250h1.7v5.82a11,11,0,0,0,.1,1.88,1.89,1.89,0,0,0,.68,1.1,2,2,0,0,0,1.27.4,2.7,2.7,0,0,0,1.43-.41,2.24,2.24,0,0,0,.94-1.12,6,6,0,0,0,.27-2V250h1.7v10.5Z"/><path class="cls-18" d="M176.52,259l.23,1.57a5.66,5.66,0,0,1-1.28.16,2.84,2.84,0,0,1-1.43-.3,1.73,1.73,0,0,1-.71-.81,6.78,6.78,0,0,1-.2-2.11v-6.05h-1.27V250h1.27v-2.59l1.69-1.07V250h1.7v1.39h-1.7v6.13a3.13,3.13,0,0,0,.09,1,.76.76,0,0,0,.29.35,1.13,1.13,0,0,0,.58.13C176,259,176.21,259,176.52,259Z"/><path class="cls-18" d="M184.71,259.23a6.07,6.07,0,0,1-1.8,1.2,5.06,5.06,0,0,1-1.88.34,3.55,3.55,0,0,1-2.54-.84,2.89,2.89,0,0,1-.89-2.17,3.06,3.06,0,0,1,.34-1.41,2.93,2.93,0,0,1,.88-1,4,4,0,0,1,1.22-.59,13,13,0,0,1,1.52-.27,14.88,14.88,0,0,0,3-.61v-.46a2.08,2.08,0,0,0-.47-1.54,3.5,3.5,0,0,0-3.69-.16,2.72,2.72,0,0,0-.85,1.57l-1.7-.24a4.49,4.49,0,0,1,.75-1.81,3.32,3.32,0,0,1,1.5-1.06,6.65,6.65,0,0,1,2.28-.37,5.81,5.81,0,0,1,2.09.32,2.67,2.67,0,0,1,1.18.8,2.87,2.87,0,0,1,.53,1.2,10.36,10.36,0,0,1,.08,1.65v2.38a26.89,26.89,0,0,0,.11,3.14,3.75,3.75,0,0,0,.41,1.25h-1.74A4.05,4.05,0,0,1,184.71,259.23Zm-.12-4a11.85,11.85,0,0,1-2.78.67,6.57,6.57,0,0,0-1.48.36,1.49,1.49,0,0,0-.67.59,1.56,1.56,0,0,0-.24.85,1.59,1.59,0,0,0,.51,1.2,2.2,2.2,0,0,0,1.51.47,3.41,3.41,0,0,0,1.74-.44,2.74,2.74,0,0,0,1.13-1.25,4.57,4.57,0,0,0,.27-1.79Z"/><path class="cls-18" d="M192.54,259l.23,1.57a5.66,5.66,0,0,1-1.28.16,2.84,2.84,0,0,1-1.43-.3,1.67,1.67,0,0,1-.71-.81,6.68,6.68,0,0,1-.21-2.11v-6.05h-1.26V250h1.26v-2.59l1.7-1.07V250h1.7v1.39h-1.7v6.13a3.13,3.13,0,0,0,.09,1,.76.76,0,0,0,.29.35,1.13,1.13,0,0,0,.58.13C192,259,192.23,259,192.54,259Z"/><path class="cls-18" d="M194.26,248.06v-2H196v2Zm0,12.47V250H196v10.5Z"/><path class="cls-18" d="M197.83,255.28a5.57,5.57,0,0,1,1.54-4.32,4.53,4.53,0,0,1,3.14-1.16,4.37,4.37,0,0,1,3.37,1.42,5.59,5.59,0,0,1,1.31,3.92,7.3,7.3,0,0,1-.58,3.19,4.14,4.14,0,0,1-1.68,1.81,4.7,4.7,0,0,1-2.41.64,4.32,4.32,0,0,1-3.39-1.42A5.8,5.8,0,0,1,197.83,255.28Zm1.73,0a4.66,4.66,0,0,0,.84,3,2.71,2.71,0,0,0,4.21,0,4.74,4.74,0,0,0,.84-3.08,4.52,4.52,0,0,0-.84-3,2.7,2.7,0,0,0-4.21,0A4.65,4.65,0,0,0,199.56,255.28Z"/><path class="cls-18" d="M209.18,260.53V250h1.54v1.49a3.52,3.52,0,0,1,3.16-1.73,3.93,3.93,0,0,1,1.65.34,2.63,2.63,0,0,1,1.12.89,3.55,3.55,0,0,1,.53,1.32,11.28,11.28,0,0,1,.09,1.74v6.45h-1.74v-6.39a5.12,5.12,0,0,0-.19-1.63,1.82,1.82,0,0,0-.69-.86,2.15,2.15,0,0,0-1.16-.32,2.62,2.62,0,0,0-1.85.72,3.78,3.78,0,0,0-.77,2.75v5.73Z"/><path class="cls-18" d="M219.26,257.38l1.66-.24a2.49,2.49,0,0,0,.78,1.61,2.66,2.66,0,0,0,1.79.56,2.52,2.52,0,0,0,1.73-.5,1.53,1.53,0,0,0,.56-1.17,1.09,1.09,0,0,0-.51-.95,7.09,7.09,0,0,0-1.72-.6,14.87,14.87,0,0,1-2.56-.86,2.44,2.44,0,0,1-1.08-1,2.7,2.7,0,0,1-.37-1.41,2.85,2.85,0,0,1,1.13-2.29,3.61,3.61,0,0,1,1.06-.52,5,5,0,0,1,1.46-.21,5.4,5.4,0,0,1,2.05.36,2.77,2.77,0,0,1,1.3,1,3.68,3.68,0,0,1,.58,1.63l-1.65.24a1.93,1.93,0,0,0-.65-1.27,2.27,2.27,0,0,0-1.52-.47,2.62,2.62,0,0,0-1.65.41,1.2,1.2,0,0,0-.49,1,1,1,0,0,0,.21.62,1.31,1.31,0,0,0,.64.48c.17.07.66.22,1.48.45A22.49,22.49,0,0,1,226,255a2.6,2.6,0,0,1,1.13.93,2.73,2.73,0,0,1,.4,1.52,3.13,3.13,0,0,1-.49,1.69,3.18,3.18,0,0,1-1.41,1.21,4.9,4.9,0,0,1-2.1.43,4.46,4.46,0,0,1-2.95-.86A4.06,4.06,0,0,1,219.26,257.38Z"/><path class="cls-18" d="M18.05,241.59H16.46V227.1h1.7v5.16a3.35,3.35,0,0,1,2.75-1.41,4,4,0,0,1,1.75.39,3.66,3.66,0,0,1,1.36,1.1,5.46,5.46,0,0,1,.84,1.71,7.72,7.72,0,0,1,.29,2.13,6.22,6.22,0,0,1-1.27,4.18,3.91,3.91,0,0,1-3.05,1.47A3.18,3.18,0,0,1,18,240.28v1.31ZM18,236.26a5.62,5.62,0,0,0,.5,2.73,2.37,2.37,0,0,0,4.1.36,4.75,4.75,0,0,0,.81-3,4.87,4.87,0,0,0-.78-3,2.33,2.33,0,0,0-1.88-1,2.4,2.4,0,0,0-1.93,1A4.53,4.53,0,0,0,18,236.26Z"/><path class="cls-18" d="M33.78,240.29A6.05,6.05,0,0,1,32,241.48a4.82,4.82,0,0,1-1.87.35,3.55,3.55,0,0,1-2.54-.84,3.09,3.09,0,0,1-.55-3.58,2.66,2.66,0,0,1,.88-1,4.18,4.18,0,0,1,1.22-.59,11.29,11.29,0,0,1,1.51-.26,15.44,15.44,0,0,0,3-.61c0-.25,0-.4,0-.47a2,2,0,0,0-.48-1.53,2.68,2.68,0,0,0-1.92-.61,2.92,2.92,0,0,0-1.77.44,2.75,2.75,0,0,0-.84,1.57l-1.7-.24a4.37,4.37,0,0,1,.75-1.8,3.21,3.21,0,0,1,1.5-1.06,6.33,6.33,0,0,1,2.28-.38,5.75,5.75,0,0,1,2.08.32,2.69,2.69,0,0,1,1.18.8,2.74,2.74,0,0,1,.53,1.21,9.93,9.93,0,0,1,.09,1.65v2.37a30.51,30.51,0,0,0,.1,3.14,4.17,4.17,0,0,0,.41,1.25H34.13A4.05,4.05,0,0,1,33.78,240.29Zm-.11-4a12,12,0,0,1-2.79.68,5.93,5.93,0,0,0-1.48.36,1.55,1.55,0,0,0-.68.58,1.64,1.64,0,0,0-.23.85A1.57,1.57,0,0,0,29,240a2.09,2.09,0,0,0,1.51.48,3.34,3.34,0,0,0,1.74-.45,2.71,2.71,0,0,0,1.13-1.24,4.59,4.59,0,0,0,.27-1.8Z"/><path class="cls-18" d="M37.31,238.43l1.66-.24a2.47,2.47,0,0,0,.78,1.61,2.63,2.63,0,0,0,1.8.57,2.56,2.56,0,0,0,1.72-.5,1.56,1.56,0,0,0,.56-1.17,1.11,1.11,0,0,0-.51-1,7.05,7.05,0,0,0-1.73-.6,14.89,14.89,0,0,1-2.55-.85,2.56,2.56,0,0,1-1.08-1,2.75,2.75,0,0,1-.37-1.41,2.93,2.93,0,0,1,.3-1.31,3.05,3.05,0,0,1,.83-1,3.33,3.33,0,0,1,1.07-.52,4.84,4.84,0,0,1,1.45-.21,5.4,5.4,0,0,1,2,.36,2.93,2.93,0,0,1,1.31,1,4,4,0,0,1,.58,1.63l-1.66.24a2,2,0,0,0-.65-1.27,2.24,2.24,0,0,0-1.51-.47,2.62,2.62,0,0,0-1.65.41,1.21,1.21,0,0,0-.5.95,1,1,0,0,0,.21.63,1.48,1.48,0,0,0,.64.47c.17.07.66.22,1.48.46a22.64,22.64,0,0,1,2.5.82,2.59,2.59,0,0,1,1.12.94,2.69,2.69,0,0,1,.41,1.52,3.1,3.1,0,0,1-.49,1.68,3.2,3.2,0,0,1-1.42,1.21,4.88,4.88,0,0,1-2.09.43,4.48,4.48,0,0,1-3-.85A4.09,4.09,0,0,1,37.31,238.43Z"/><path class="cls-18" d="M54.51,238.2l1.7.23a4.52,4.52,0,0,1-1.54,2.51,5,5,0,0,1-6.35-.53,5.69,5.69,0,0,1-1.29-4,5.94,5.94,0,0,1,1.3-4.11,4.31,4.31,0,0,1,3.38-1.47A4.18,4.18,0,0,1,55,232.29a5.91,5.91,0,0,1,1.28,4.05c0,.11,0,.26,0,.48h-7.5a4.13,4.13,0,0,0,1,2.64,2.77,2.77,0,0,0,2.12.91,2.56,2.56,0,0,0,1.62-.52A3.4,3.4,0,0,0,54.51,238.2Zm-5.7-2.85h5.72a3.5,3.5,0,0,0-.66-2,2.63,2.63,0,0,0-2.15-1,2.71,2.71,0,0,0-2,.83A3.26,3.26,0,0,0,48.81,235.35Z"/><path class="cls-18" d="M63.62,245.62V231.09h1.53v1.35a3.87,3.87,0,0,1,1.24-1.19,3.35,3.35,0,0,1,1.67-.4,3.85,3.85,0,0,1,2.26.69,4.22,4.22,0,0,1,1.48,2,7.92,7.92,0,0,1,0,5.67,4.34,4.34,0,0,1-1.6,2,4,4,0,0,1-2.21.68,3.09,3.09,0,0,1-1.53-.37,3.62,3.62,0,0,1-1.1-1v5.11H63.62Zm1.5-9.22a4.76,4.76,0,0,0,.78,3,2.41,2.41,0,0,0,1.91,1,2.45,2.45,0,0,0,2-1,5,5,0,0,0,.81-3.11,4.77,4.77,0,0,0-.8-3,2.34,2.34,0,0,0-1.89-1A2.44,2.44,0,0,0,66,233.3,4.92,4.92,0,0,0,65.12,236.4Z"/><path class="cls-18" d="M80.93,240.29a6.05,6.05,0,0,1-1.81,1.19,4.82,4.82,0,0,1-1.87.35,3.54,3.54,0,0,1-2.54-.84,3.09,3.09,0,0,1-.55-3.58,2.64,2.64,0,0,1,.87-1,4.24,4.24,0,0,1,1.23-.59,11.29,11.29,0,0,1,1.51-.26,15.44,15.44,0,0,0,3-.61c0-.25,0-.4,0-.47a2,2,0,0,0-.48-1.53,2.71,2.71,0,0,0-1.93-.61,2.9,2.9,0,0,0-1.76.44,2.75,2.75,0,0,0-.84,1.57l-1.7-.24a4.37,4.37,0,0,1,.75-1.8,3.21,3.21,0,0,1,1.5-1.06,6.35,6.35,0,0,1,2.27-.38,5.77,5.77,0,0,1,2.09.32,2.69,2.69,0,0,1,1.18.8,2.74,2.74,0,0,1,.53,1.21,9.93,9.93,0,0,1,.09,1.65v2.37a27.71,27.71,0,0,0,.1,3.14,4.17,4.17,0,0,0,.41,1.25H81.28A3.81,3.81,0,0,1,80.93,240.29Zm-.12-4A12,12,0,0,1,78,237a5.81,5.81,0,0,0-1.48.36,1.59,1.59,0,0,0-.4,2.62,2.09,2.09,0,0,0,1.51.48A3.37,3.37,0,0,0,79.4,240a2.64,2.64,0,0,0,1.12-1.24,4.59,4.59,0,0,0,.27-1.8Z"/><path class="cls-18" d="M85.17,229.11v-2h1.7v2Zm0,12.48v-10.5h1.7v10.5Z"/><path class="cls-18" d="M89.37,241.59v-10.5h1.55v1.61A4.41,4.41,0,0,1,92,231.21a1.8,1.8,0,0,1,1.08-.36,3.19,3.19,0,0,1,1.73.58l-.6,1.63a2.5,2.5,0,0,0-1.22-.35,1.52,1.52,0,0,0-1,.35,1.88,1.88,0,0,0-.62,1,7.15,7.15,0,0,0-.28,2.07v5.49Z"/><path class="cls-18" d="M107.7,240.29a6,6,0,0,1-1.8,1.19,4.91,4.91,0,0,1-1.88.35,3.55,3.55,0,0,1-2.54-.84,3.09,3.09,0,0,1-.55-3.58,2.66,2.66,0,0,1,.88-1,4.18,4.18,0,0,1,1.22-.59,11.6,11.6,0,0,1,1.51-.26,15.28,15.28,0,0,0,3-.61c0-.25,0-.4,0-.47a2,2,0,0,0-.47-1.53,2.73,2.73,0,0,0-1.93-.61,2.92,2.92,0,0,0-1.77.44,2.75,2.75,0,0,0-.84,1.57l-1.7-.24a4.37,4.37,0,0,1,.75-1.8,3.32,3.32,0,0,1,1.5-1.06,6.41,6.41,0,0,1,2.28-.38,5.81,5.81,0,0,1,2.09.32,2.76,2.76,0,0,1,1.18.8,2.86,2.86,0,0,1,.53,1.21,11.66,11.66,0,0,1,.08,1.65v2.37a30.51,30.51,0,0,0,.1,3.14,4.17,4.17,0,0,0,.41,1.25h-1.73A3.6,3.6,0,0,1,107.7,240.29Zm-.12-4a11.89,11.89,0,0,1-2.78.68,5.81,5.81,0,0,0-1.48.36,1.5,1.5,0,0,0-.68.58,1.62,1.62,0,0,0,.28,2,2.07,2.07,0,0,0,1.5.48,3.38,3.38,0,0,0,1.75-.45,2.64,2.64,0,0,0,1.12-1.24,4.59,4.59,0,0,0,.27-1.8Z"/><path class="cls-18" d="M111.86,241.59v-10.5h1.54v1.49a3.55,3.55,0,0,1,3.16-1.73,4,4,0,0,1,1.66.34,2.63,2.63,0,0,1,1.12.9,3.28,3.28,0,0,1,.52,1.31,9.77,9.77,0,0,1,.1,1.73v6.46h-1.74V235.2a4.77,4.77,0,0,0-.2-1.62,1.65,1.65,0,0,0-.68-.86,2.06,2.06,0,0,0-1.17-.33,2.63,2.63,0,0,0-1.84.73,3.68,3.68,0,0,0-.77,2.74v5.73h-1.7Z"/><path class="cls-18" d="M122.58,241.59v-10.5h1.54v1.49a3.52,3.52,0,0,1,3.16-1.73,3.9,3.9,0,0,1,1.65.34,2.66,2.66,0,0,1,1.13.9,3.43,3.43,0,0,1,.52,1.31,10.87,10.87,0,0,1,.1,1.73v6.46h-1.74V235.2a5,5,0,0,0-.2-1.62,1.67,1.67,0,0,0-.69-.86,2,2,0,0,0-1.16-.33,2.63,2.63,0,0,0-1.84.73,3.68,3.68,0,0,0-.77,2.74v5.73Z"/><path class="cls-18" d="M132.67,236.34a5.57,5.57,0,0,1,1.54-4.32,4.51,4.51,0,0,1,3.14-1.17,4.37,4.37,0,0,1,3.37,1.43A5.56,5.56,0,0,1,142,236.2a7.22,7.22,0,0,1-.58,3.19,4.15,4.15,0,0,1-1.69,1.8,4.67,4.67,0,0,1-2.41.64,4.38,4.38,0,0,1-3.39-1.41A5.86,5.86,0,0,1,132.67,236.34Zm1.74,0a4.59,4.59,0,0,0,.84,3,2.6,2.6,0,0,0,2.1,1,2.63,2.63,0,0,0,2.1-1,4.74,4.74,0,0,0,.84-3.08,4.52,4.52,0,0,0-.84-3,2.71,2.71,0,0,0-4.2,0A4.64,4.64,0,0,0,134.41,236.34Z"/><path class="cls-18" d="M147.73,240l.24,1.57a5.8,5.8,0,0,1-1.28.16,2.81,2.81,0,0,1-1.43-.31,1.7,1.7,0,0,1-.72-.81,6.66,6.66,0,0,1-.2-2.1v-6.06h-1.26v-1.38h1.26v-2.6l1.7-1.06v3.66h1.7v1.38H146v6.13a3.21,3.21,0,0,0,.09,1,.65.65,0,0,0,.29.34,1,1,0,0,0,.58.13Z"/><path class="cls-18" d="M155.93,240.29a6.05,6.05,0,0,1-1.81,1.19,4.82,4.82,0,0,1-1.87.35,3.55,3.55,0,0,1-2.54-.84,3.09,3.09,0,0,1-.55-3.58,2.82,2.82,0,0,1,.87-1,4.37,4.37,0,0,1,1.23-.59,11.6,11.6,0,0,1,1.51-.26,15.44,15.44,0,0,0,3-.61c0-.25,0-.4,0-.47a2,2,0,0,0-.48-1.53,2.69,2.69,0,0,0-1.93-.61,2.9,2.9,0,0,0-1.76.44,2.75,2.75,0,0,0-.84,1.57l-1.7-.24a4.37,4.37,0,0,1,.75-1.8,3.32,3.32,0,0,1,1.5-1.06,6.37,6.37,0,0,1,2.28-.38,5.85,5.85,0,0,1,2.09.32,2.82,2.82,0,0,1,1.18.8,2.86,2.86,0,0,1,.53,1.21,11.66,11.66,0,0,1,.08,1.65v2.37a30.51,30.51,0,0,0,.1,3.14,4.17,4.17,0,0,0,.41,1.25h-1.73A3.6,3.6,0,0,1,155.93,240.29Zm-.12-4A11.89,11.89,0,0,1,153,237a5.93,5.93,0,0,0-1.48.36,1.5,1.5,0,0,0-.68.58,1.62,1.62,0,0,0,.28,2,2.09,2.09,0,0,0,1.51.48,3.37,3.37,0,0,0,1.74-.45,2.64,2.64,0,0,0,1.12-1.24,4.59,4.59,0,0,0,.27-1.8Z"/><path class="cls-18" d="M163.75,240l.23,1.57a5.66,5.66,0,0,1-1.28.16,2.84,2.84,0,0,1-1.43-.31,1.73,1.73,0,0,1-.71-.81,6.56,6.56,0,0,1-.21-2.1v-6.06h-1.26v-1.38h1.26v-2.6l1.7-1.06v3.66h1.7v1.38h-1.7v6.13a3.21,3.21,0,0,0,.09,1,.69.69,0,0,0,.29.34,1,1,0,0,0,.58.13Z"/><path class="cls-18" d="M165.47,229.11v-2h1.7v2Zm0,12.48v-10.5h1.7v10.5Z"/><path class="cls-18" d="M169,236.34a5.57,5.57,0,0,1,1.54-4.32,4.51,4.51,0,0,1,3.14-1.17,4.37,4.37,0,0,1,3.37,1.43,5.56,5.56,0,0,1,1.31,3.92,7.22,7.22,0,0,1-.58,3.19,4.12,4.12,0,0,1-1.68,1.8,4.71,4.71,0,0,1-2.42.64,4.39,4.39,0,0,1-3.39-1.41A5.86,5.86,0,0,1,169,236.34Zm1.74,0a4.59,4.59,0,0,0,.84,3,2.63,2.63,0,0,0,2.1,1,2.6,2.6,0,0,0,2.1-1,4.74,4.74,0,0,0,.84-3.08,4.52,4.52,0,0,0-.84-3,2.71,2.71,0,0,0-4.2,0A4.64,4.64,0,0,0,170.78,236.34Z"/><path class="cls-18" d="M180.39,241.59v-10.5h1.54v1.49a3.52,3.52,0,0,1,3.16-1.73,3.9,3.9,0,0,1,1.65.34,2.66,2.66,0,0,1,1.13.9,3.6,3.6,0,0,1,.52,1.31,10.87,10.87,0,0,1,.1,1.73v6.46h-1.75V235.2a5.09,5.09,0,0,0-.19-1.62,1.67,1.67,0,0,0-.69-.86,2,2,0,0,0-1.16-.33,2.61,2.61,0,0,0-1.84.73,3.68,3.68,0,0,0-.77,2.74v5.73Z"/><path class="cls-18" d="M190.47,238.43l1.66-.24a2.52,2.52,0,0,0,.78,1.61,2.63,2.63,0,0,0,1.8.57,2.54,2.54,0,0,0,1.72-.5,1.56,1.56,0,0,0,.56-1.17,1.11,1.11,0,0,0-.51-1,7.09,7.09,0,0,0-1.72-.6,14.77,14.77,0,0,1-2.56-.85,2.62,2.62,0,0,1-1.08-1,2.75,2.75,0,0,1-.37-1.41,2.81,2.81,0,0,1,1.13-2.3,3.33,3.33,0,0,1,1.07-.52,4.84,4.84,0,0,1,1.45-.21,5.4,5.4,0,0,1,2,.36,2.84,2.84,0,0,1,1.3,1,3.86,3.86,0,0,1,.58,1.63l-1.66.24a1.87,1.87,0,0,0-.65-1.27,2.22,2.22,0,0,0-1.51-.47,2.62,2.62,0,0,0-1.65.41,1.2,1.2,0,0,0-.49.95,1,1,0,0,0,.2.63,1.59,1.59,0,0,0,.65.47c.16.07.66.22,1.48.46a22.28,22.28,0,0,1,2.49.82,2.49,2.49,0,0,1,1.53,2.46,3.1,3.1,0,0,1-.49,1.68,3.17,3.17,0,0,1-1.41,1.21,4.9,4.9,0,0,1-2.1.43,4.46,4.46,0,0,1-2.95-.85A4.14,4.14,0,0,1,190.47,238.43Z"/><rect class="cls-19" x="38.44" y="250.18" width="10.22" height="9.79"/><rect class="cls-19" x="15.24" y="250.18" width="10.22" height="9.79"/><rect class="cls-19" x="25.46" y="250.18" width="12.98" height="9.79"/><line class="cls-20" x1="33.79" y1="255.07" x2="30.11" y2="255.07"/><path class="cls-21" d="M68.28,336.09l1.47-.14a2.77,2.77,0,0,0,.71,1.58,1.88,1.88,0,0,0,1.34.49,2.24,2.24,0,0,0,1.24-.34,2.48,2.48,0,0,0,.86-.9,5.59,5.59,0,0,0,.56-1.52,8.63,8.63,0,0,0,.23-2c0-.07,0-.18,0-.32a3.71,3.71,0,0,1-1.24,1.25,3.4,3.4,0,0,1-4.3-.71,4.4,4.4,0,0,1-1.06-3.11,4.57,4.57,0,0,1,1.11-3.21A3.65,3.65,0,0,1,72,326a3.84,3.84,0,0,1,2.22.69,4.22,4.22,0,0,1,1.53,2,10,10,0,0,1,.52,3.67,12.35,12.35,0,0,1-.52,4,4.66,4.66,0,0,1-1.54,2.26,3.84,3.84,0,0,1-2.4.78,3.39,3.39,0,0,1-2.39-.86A3.69,3.69,0,0,1,68.28,336.09Zm6.25-5.76a3.28,3.28,0,0,0-.69-2.2,2.11,2.11,0,0,0-1.68-.82,2.26,2.26,0,0,0-1.78.88,3.41,3.41,0,0,0-.74,2.27,2.9,2.9,0,0,0,.71,2,2.24,2.24,0,0,0,1.76.79,2.17,2.17,0,0,0,1.74-.79A3.14,3.14,0,0,0,74.53,330.33Z"/><path class="cls-21" d="M77.76,332.67a12.39,12.39,0,0,1,.46-3.74,4.64,4.64,0,0,1,1.36-2.18,3.39,3.39,0,0,1,2.27-.76,3.55,3.55,0,0,1,1.78.43,3.42,3.42,0,0,1,1.26,1.22,6.77,6.77,0,0,1,.77,1.94,13.47,13.47,0,0,1,.28,3.1,12.66,12.66,0,0,1-.45,3.72,4.7,4.7,0,0,1-1.36,2.19,3.39,3.39,0,0,1-2.28.76A3.44,3.44,0,0,1,79,338Q77.76,336.36,77.76,332.67Zm1.57,0c0,2.16.24,3.59.73,4.3a2,2,0,0,0,3.58,0c.48-.7.72-2.14.72-4.29s-.24-3.58-.72-4.29a2.14,2.14,0,0,0-1.81-1.07,2,2,0,0,0-1.71.94A8.74,8.74,0,0,0,79.33,332.67Z"/><path class="cls-21" d="M87.7,329.18a4.22,4.22,0,0,1,.67-2.39,2.23,2.23,0,0,1,1.95-1,2.47,2.47,0,0,1,1.94.88,3.85,3.85,0,0,1,.77,2.59,3.79,3.79,0,0,1-.78,2.56,2.44,2.44,0,0,1-1.92.9,2.37,2.37,0,0,1-1.87-.89A4,4,0,0,1,87.7,329.18ZM90.36,327a1.14,1.14,0,0,0-1,.51,3.26,3.26,0,0,0-.38,1.88,2.93,2.93,0,0,0,.38,1.74,1.15,1.15,0,0,0,1.91,0,3.24,3.24,0,0,0,.38-1.87,3,3,0,0,0-.38-1.75A1.15,1.15,0,0,0,90.36,327Zm0,12.67,6.89-13.82h1.27l-6.89,13.82Zm5.48-3.56a4.17,4.17,0,0,1,.66-2.39,2.23,2.23,0,0,1,1.95-1,2.46,2.46,0,0,1,1.94.89,4.65,4.65,0,0,1,0,5.14,2.44,2.44,0,0,1-1.92.9,2.34,2.34,0,0,1-1.88-.89A4.11,4.11,0,0,1,95.85,336.07Zm2.65-2.23a1.16,1.16,0,0,0-1,.52,3.32,3.32,0,0,0-.38,1.87,3.05,3.05,0,0,0,.39,1.75,1.14,1.14,0,0,0,.94.51,1.15,1.15,0,0,0,1-.51,3.26,3.26,0,0,0,.38-1.87,3.06,3.06,0,0,0-.38-1.76A1.17,1.17,0,0,0,98.5,333.84Z"/><path class="cls-22" d="M62.3,333.76a5.09,5.09,0,1,1-5.08-5.08,5.09,5.09,0,0,1,5.08,5.08"/><circle class="cls-20" cx="57.21" cy="333.76" r="5.08"/><path class="cls-21" d="M68.28,318l1.47-.14a2.77,2.77,0,0,0,.71,1.58,1.92,1.92,0,0,0,1.34.49,2.33,2.33,0,0,0,1.24-.34,2.48,2.48,0,0,0,.86-.9,5.68,5.68,0,0,0,.56-1.53,8.54,8.54,0,0,0,.23-2c0-.07,0-.18,0-.32a3.71,3.71,0,0,1-1.24,1.25,3.4,3.4,0,0,1-4.3-.71,4.42,4.42,0,0,1-1.06-3.11,4.55,4.55,0,0,1,1.11-3.2A3.62,3.62,0,0,1,72,307.89a3.84,3.84,0,0,1,2.22.69,4.27,4.27,0,0,1,1.53,2,10,10,0,0,1,.52,3.68,12.32,12.32,0,0,1-.52,4,4.66,4.66,0,0,1-1.54,2.26,3.84,3.84,0,0,1-2.4.78,3.39,3.39,0,0,1-2.39-.86A3.72,3.72,0,0,1,68.28,318Zm6.25-5.77a3.31,3.31,0,0,0-.69-2.2,2.13,2.13,0,0,0-1.68-.81,2.26,2.26,0,0,0-1.78.88,3.41,3.41,0,0,0-.74,2.27,2.9,2.9,0,0,0,.71,2,2.27,2.27,0,0,0,1.76.79,2.17,2.17,0,0,0,1.74-.79A3.17,3.17,0,0,0,74.53,312.23Z"/><path class="cls-21" d="M77.87,309.65v-1.54h8.07v1.24a18.21,18.21,0,0,0-2.36,3.54,21.76,21.76,0,0,0-1.8,4.55,16.31,16.31,0,0,0-.59,3.6H79.62a16.87,16.87,0,0,1,.57-3.74,20.11,20.11,0,0,1,1.59-4.22A18.47,18.47,0,0,1,84,309.65Z"/><path class="cls-21" d="M87.7,311.09a4.22,4.22,0,0,1,.67-2.39,2.23,2.23,0,0,1,1.95-1,2.5,2.5,0,0,1,1.94.88,3.85,3.85,0,0,1,.77,2.59,3.79,3.79,0,0,1-.78,2.56,2.44,2.44,0,0,1-1.92.9,2.37,2.37,0,0,1-1.87-.89A4,4,0,0,1,87.7,311.09Zm2.66-2.23a1.13,1.13,0,0,0-1,.52,3.24,3.24,0,0,0-.38,1.87,3,3,0,0,0,.38,1.75,1.15,1.15,0,0,0,1,.51,1.17,1.17,0,0,0,1-.51,3.26,3.26,0,0,0,.38-1.87,3.06,3.06,0,0,0-.38-1.76A1.17,1.17,0,0,0,90.36,308.86Zm0,12.68,6.89-13.82h1.27l-6.89,13.82ZM95.85,318a4.17,4.17,0,0,1,.66-2.39,2.22,2.22,0,0,1,1.95-1,2.45,2.45,0,0,1,1.94.88,4.65,4.65,0,0,1,0,5.14,2.44,2.44,0,0,1-1.92.9,2.37,2.37,0,0,1-1.88-.89A4.11,4.11,0,0,1,95.85,318Zm2.65-2.23a1.17,1.17,0,0,0-1,.51,3.36,3.36,0,0,0-.38,1.88,3,3,0,0,0,.39,1.75,1.16,1.16,0,0,0,.94.51,1.15,1.15,0,0,0,1-.51,3.26,3.26,0,0,0,.38-1.87,3.06,3.06,0,0,0-.38-1.76A1.17,1.17,0,0,0,98.5,315.75Z"/><path class="cls-23" d="M62.3,315.67a5.09,5.09,0,1,1-5.09-5.08,5.09,5.09,0,0,1,5.09,5.08"/><circle class="cls-20" cx="57.21" cy="315.67" r="5.08"/><path class="cls-21" d="M129.87,309.65v-1.54h8.07v1.24a18.21,18.21,0,0,0-2.36,3.54,22.91,22.91,0,0,0-1.8,4.55,17.58,17.58,0,0,0-.59,3.6h-1.57a17,17,0,0,1,.58-3.74,20.64,20.64,0,0,1,1.58-4.22,18,18,0,0,1,2.2-3.43Z"/><path class="cls-21" d="M139.46,317.61l1.57-.15a3.1,3.1,0,0,0,.82,1.85,2.21,2.21,0,0,0,1.58.62,2.38,2.38,0,0,0,1.88-.87,3.42,3.42,0,0,0,.75-2.32,3.08,3.08,0,0,0-.72-2.16,2.44,2.44,0,0,0-1.92-.8,2.54,2.54,0,0,0-1.33.35,2.65,2.65,0,0,0-.92.9l-1.43-.21L141,308.1h6.17v1.54h-4.95l-.68,3.54a3.87,3.87,0,0,1,2.34-.83,3.6,3.6,0,0,1,2.74,1.19,4.24,4.24,0,0,1,1.12,3,4.89,4.89,0,0,1-1,3.07,3.87,3.87,0,0,1-3.26,1.59,3.78,3.78,0,0,1-4-3.63Z"/><path class="cls-21" d="M149.4,311.09a4.15,4.15,0,0,1,.67-2.39,2.21,2.21,0,0,1,1.94-1,2.47,2.47,0,0,1,1.94.88,3.85,3.85,0,0,1,.77,2.59,3.79,3.79,0,0,1-.78,2.56,2.42,2.42,0,0,1-1.91.9,2.37,2.37,0,0,1-1.88-.89A4.05,4.05,0,0,1,149.4,311.09Zm2.65-2.23a1.13,1.13,0,0,0-1,.52,3.32,3.32,0,0,0-.38,1.87,3,3,0,0,0,.38,1.75,1.17,1.17,0,0,0,1,.51,1.2,1.2,0,0,0,1-.51,3.35,3.35,0,0,0,.38-1.87,3.06,3.06,0,0,0-.38-1.76A1.19,1.19,0,0,0,152.05,308.86Zm0,12.68L159,307.72h1.28l-6.9,13.82Zm5.48-3.56a4.18,4.18,0,0,1,.67-2.39,2.22,2.22,0,0,1,1.95-1,2.43,2.43,0,0,1,1.93.88,4.67,4.67,0,0,1,0,5.14,2.44,2.44,0,0,1-1.92.9,2.36,2.36,0,0,1-1.88-.89A4.05,4.05,0,0,1,157.54,318Zm2.66-2.23a1.16,1.16,0,0,0-1,.51,3.36,3.36,0,0,0-.38,1.88,3,3,0,0,0,.38,1.75,1.18,1.18,0,0,0,.95.51,1.16,1.16,0,0,0,1-.51,3.35,3.35,0,0,0,.38-1.87,3,3,0,0,0-.39-1.76A1.14,1.14,0,0,0,160.2,315.75Z"/><path class="cls-24" d="M124,315.67a5.08,5.08,0,1,1-5.08-5.09,5.07,5.07,0,0,1,5.08,5.09"/><circle class="cls-20" cx="118.91" cy="315.67" r="5.08"/><circle class="cls-20" cx="118.91" cy="333.77" r="5.08"/><path class="cls-21" d="M129.77,335.7l1.57-.15a3.12,3.12,0,0,0,.82,1.85,2.19,2.19,0,0,0,1.57.62,2.39,2.39,0,0,0,1.89-.87,3.44,3.44,0,0,0,.75-2.32,3.08,3.08,0,0,0-.72-2.16,2.43,2.43,0,0,0-1.92-.79,2.57,2.57,0,0,0-2.25,1.24l-1.43-.21,1.22-6.72h6.17v1.54h-4.95l-.68,3.54a3.87,3.87,0,0,1,2.34-.83,3.6,3.6,0,0,1,2.74,1.19,4.25,4.25,0,0,1,1.12,3.05,4.93,4.93,0,0,1-1,3.06,4,4,0,0,1-7.26-2Z"/><path class="cls-21" d="M139.46,332.67a12.35,12.35,0,0,1,.46-3.74,4.54,4.54,0,0,1,1.36-2.18,3.37,3.37,0,0,1,2.27-.76,3.69,3.69,0,0,1,1.78.42,3.4,3.4,0,0,1,1.25,1.22,6.67,6.67,0,0,1,.77,1.95,13.23,13.23,0,0,1,.29,3.09,12.36,12.36,0,0,1-.46,3.73,4.66,4.66,0,0,1-1.35,2.19,3.77,3.77,0,0,1-5.13-.58Q139.46,336.35,139.46,332.67Zm1.57,0c0,2.16.24,3.59.72,4.3a2,2,0,0,0,3.58,0c.48-.71.73-2.14.73-4.3s-.25-3.58-.72-4.29a2.13,2.13,0,0,0-1.82-1.06,2,2,0,0,0-1.71.94A8.72,8.72,0,0,0,141,332.66Z"/><path class="cls-21" d="M149.4,329.18a4.12,4.12,0,0,1,.67-2.39,2.21,2.21,0,0,1,1.94-1,2.44,2.44,0,0,1,1.94.88,4.67,4.67,0,0,1,0,5.15,2.45,2.45,0,0,1-1.91.89,2.36,2.36,0,0,1-1.88-.88A4.05,4.05,0,0,1,149.4,329.18Zm2.65-2.23a1.14,1.14,0,0,0-1,.51,3.39,3.39,0,0,0-.38,1.88,3,3,0,0,0,.38,1.75,1.17,1.17,0,0,0,1,.51,1.2,1.2,0,0,0,1-.51,3.35,3.35,0,0,0,.38-1.87,3.06,3.06,0,0,0-.38-1.76A1.19,1.19,0,0,0,152.05,327Zm0,12.67L159,325.81h1.28l-6.9,13.81Zm5.48-3.55a4.18,4.18,0,0,1,.67-2.39,2.23,2.23,0,0,1,1.95-1,2.46,2.46,0,0,1,1.93.88,4.69,4.69,0,0,1,0,5.15,2.44,2.44,0,0,1-1.92.9,2.36,2.36,0,0,1-1.88-.89A4.07,4.07,0,0,1,157.54,336.07Zm2.66-2.23a1.16,1.16,0,0,0-1,.51,3.36,3.36,0,0,0-.38,1.88,3,3,0,0,0,.38,1.74,1.16,1.16,0,0,0,1.92,0,3.32,3.32,0,0,0,.38-1.87,2.93,2.93,0,0,0-.39-1.75A1.14,1.14,0,0,0,160.2,333.84Z"/><path class="cls-21" d="M68.48,285.34v-9.5h1.38v1.35a3.18,3.18,0,0,1,2.86-1.56,3.53,3.53,0,0,1,1.5.31,2.3,2.3,0,0,1,1,.8,3.24,3.24,0,0,1,.48,1.19,10.81,10.81,0,0,1,.08,1.57v5.84H74.22v-5.78a4.47,4.47,0,0,0-.18-1.47,1.48,1.48,0,0,0-.62-.78,1.9,1.9,0,0,0-1-.29,2.32,2.32,0,0,0-1.66.65,3.31,3.31,0,0,0-.7,2.48v5.19Z"/><path class="cls-21" d="M84.09,285.34v-1.4a3.27,3.27,0,0,1-2.87,1.61,3.61,3.61,0,0,1-1.5-.32,2.46,2.46,0,0,1-1-.81,3.19,3.19,0,0,1-.47-1.19,9,9,0,0,1-.09-1.51v-5.88h1.53v5.26a9,9,0,0,0,.1,1.7,1.65,1.65,0,0,0,.61,1,1.82,1.82,0,0,0,1.15.37,2.4,2.4,0,0,0,1.29-.38,2,2,0,0,0,.85-1,5.23,5.23,0,0,0,.25-1.85v-5.09h1.54v9.5H84.09Z"/><path class="cls-21" d="M93.75,281.87l1.5.22A4.19,4.19,0,0,1,94,284.63a3.51,3.51,0,0,1-2.48.92,3.73,3.73,0,0,1-3-1.27,5.36,5.36,0,0,1-1.13-3.66,7,7,0,0,1,.49-2.69,3.53,3.53,0,0,1,1.46-1.73,4.24,4.24,0,0,1,2.15-.57,3.55,3.55,0,0,1,2.39.79,3.63,3.63,0,0,1,1.19,2.24l-1.5.22a2.7,2.7,0,0,0-.74-1.45,1.88,1.88,0,0,0-1.29-.48,2.3,2.3,0,0,0-1.86.87,4.37,4.37,0,0,0-.71,2.76,4.47,4.47,0,0,0,.69,2.78,2.19,2.19,0,0,0,1.81.87,2.09,2.09,0,0,0,1.49-.57A3.06,3.06,0,0,0,93.75,281.87Z"/><path class="cls-21" d="M96.53,285.34v-13.1h1.54v13.1Z"/><path class="cls-21" d="M106.71,282.27l1.54.21a3.81,3.81,0,0,1-4,3.07,4.07,4.07,0,0,1-3.15-1.28,5.17,5.17,0,0,1-1.17-3.6,5.43,5.43,0,0,1,1.18-3.72,3.89,3.89,0,0,1,3.06-1.32,3.78,3.78,0,0,1,3,1.3,5.35,5.35,0,0,1,1.15,3.66c0,.09,0,.23,0,.42h-6.77a3.65,3.65,0,0,0,.85,2.39,2.51,2.51,0,0,0,1.92.83,2.32,2.32,0,0,0,1.46-.47A3.11,3.11,0,0,0,106.71,282.27Zm-5.16-2.57h5.18a3.32,3.32,0,0,0-.6-1.82,2.39,2.39,0,0,0-1.95-.93,2.43,2.43,0,0,0-1.81.75A2.93,2.93,0,0,0,101.55,279.7Z"/><path class="cls-21" d="M109.56,280.59a5,5,0,0,1,1.4-3.91,4.07,4.07,0,0,1,2.84-1.05,3.94,3.94,0,0,1,3,1.29,5,5,0,0,1,1.18,3.54,6.53,6.53,0,0,1-.52,2.88A3.89,3.89,0,0,1,116,285a4.34,4.34,0,0,1-2.18.58,4,4,0,0,1-3.07-1.28A5.31,5.31,0,0,1,109.56,280.59Zm1.57,0a4.22,4.22,0,0,0,.76,2.74,2.45,2.45,0,0,0,3.81,0,4.33,4.33,0,0,0,.75-2.78,4.06,4.06,0,0,0-.76-2.68,2.44,2.44,0,0,0-3.8,0A4.11,4.11,0,0,0,111.13,280.58Z"/><path class="cls-21" d="M123.18,283.92l.22,1.41a5.2,5.2,0,0,1-1.16.15,2.45,2.45,0,0,1-1.29-.28,1.48,1.48,0,0,1-.65-.73,6.14,6.14,0,0,1-.19-1.9v-5.48H119v-1.25h1.14v-2.35l1.54-1v3.31h1.53v1.25h-1.53v5.54a3.07,3.07,0,0,0,.08.89.65.65,0,0,0,.26.31,1,1,0,0,0,.52.11C122.68,284,122.9,283.93,123.18,283.92Z"/><path class="cls-21" d="M124.74,274.05v-1.82h1.53v1.82Zm0,11.29v-9.5h1.53v9.5Z"/><path class="cls-21" d="M134.39,285.34v-1.2a2.78,2.78,0,0,1-2.53,1.41,3.49,3.49,0,0,1-2-.62,4.11,4.11,0,0,1-1.41-1.75,6.35,6.35,0,0,1-.49-2.58,7.06,7.06,0,0,1,.45-2.58,3.72,3.72,0,0,1,1.35-1.78,3.51,3.51,0,0,1,2-.61,2.92,2.92,0,0,1,1.46.35,3.36,3.36,0,0,1,1,.94v-4.69h1.53v13.11Zm-4.86-4.75a4.26,4.26,0,0,0,.74,2.73,2.17,2.17,0,0,0,1.74.91,2.15,2.15,0,0,0,1.71-.86,4.14,4.14,0,0,0,.7-2.64,4.64,4.64,0,0,0-.71-2.87,2.17,2.17,0,0,0-1.77-.91,2.06,2.06,0,0,0-1.71.88A4.37,4.37,0,0,0,129.53,280.59Z"/><path class="cls-21" d="M144.5,282.27l1.54.21a4.18,4.18,0,0,1-1.39,2.27,4.11,4.11,0,0,1-2.6.8,4.06,4.06,0,0,1-3.15-1.28,5.17,5.17,0,0,1-1.17-3.6,5.38,5.38,0,0,1,1.18-3.72,3.89,3.89,0,0,1,3.05-1.32,3.77,3.77,0,0,1,3,1.3,5.3,5.3,0,0,1,1.16,3.66c0,.09,0,.23,0,.42H139.3a3.6,3.6,0,0,0,.86,2.39,2.51,2.51,0,0,0,1.91.83,2.37,2.37,0,0,0,1.47-.47A3.11,3.11,0,0,0,144.5,282.27Zm-5.17-2.57h5.19a3.4,3.4,0,0,0-.6-1.82A2.39,2.39,0,0,0,142,277a2.45,2.45,0,0,0-1.82.75A3,3,0,0,0,139.33,279.7Z"/><path class="cls-21" d="M79.42,306.35V293.21h1.39v1.22a3.66,3.66,0,0,1,1.11-1.08,3,3,0,0,1,1.51-.35,3.45,3.45,0,0,1,2,.62,3.79,3.79,0,0,1,1.34,1.77,6.72,6.72,0,0,1,.45,2.49,6.49,6.49,0,0,1-.5,2.63,3.86,3.86,0,0,1-1.44,1.79,3.64,3.64,0,0,1-2,.62,2.88,2.88,0,0,1-1.38-.34,3,3,0,0,1-1-.86v4.63ZM80.77,298a4.24,4.24,0,0,0,.72,2.71,2.15,2.15,0,0,0,1.72.88,2.18,2.18,0,0,0,1.76-.91,4.53,4.53,0,0,0,.73-2.82,4.31,4.31,0,0,0-.72-2.72,2.09,2.09,0,0,0-1.71-.91,2.2,2.2,0,0,0-1.74,1A4.46,4.46,0,0,0,80.77,298Z"/><path class="cls-21" d="M89.14,302.71v-9.5h1.4v1.45a3.8,3.8,0,0,1,1-1.34,1.6,1.6,0,0,1,1-.32,2.82,2.82,0,0,1,1.56.52L93.5,295a2.24,2.24,0,0,0-1.11-.32,1.35,1.35,0,0,0-.89.32,1.7,1.7,0,0,0-.56.88,6.51,6.51,0,0,0-.25,1.87v5Z"/><path class="cls-21" d="M101.13,299.63l1.53.22a4.25,4.25,0,0,1-7.14,1.78,5.18,5.18,0,0,1-1.16-3.6,5.41,5.41,0,0,1,1.18-3.72,3.89,3.89,0,0,1,3-1.32,3.8,3.8,0,0,1,3,1.3,5.34,5.34,0,0,1,1.16,3.66c0,.1,0,.24,0,.43H95.93a3.68,3.68,0,0,0,.86,2.39,2.49,2.49,0,0,0,1.91.83,2.37,2.37,0,0,0,1.47-.47A3.15,3.15,0,0,0,101.13,299.63ZM96,297.06h5.18a3.36,3.36,0,0,0-.59-1.81,2.4,2.4,0,0,0-2-.94,2.45,2.45,0,0,0-1.82.75A3.07,3.07,0,0,0,96,297.06Z"/><path class="cls-21" d="M104,299.85l1.5-.22a2.25,2.25,0,0,0,.7,1.46,2.38,2.38,0,0,0,1.62.51,2.31,2.31,0,0,0,1.56-.45,1.38,1.38,0,0,0,.51-1.06,1,1,0,0,0-.46-.86,6,6,0,0,0-1.56-.55,14.61,14.61,0,0,1-2.31-.77,2.32,2.32,0,0,1-1-.9,2.54,2.54,0,0,1-.33-1.28,2.65,2.65,0,0,1,.27-1.18,2.57,2.57,0,0,1,.75-.89,3,3,0,0,1,1-.47,4.34,4.34,0,0,1,1.32-.19,4.81,4.81,0,0,1,1.85.32,2.5,2.5,0,0,1,1.18.88,3.4,3.4,0,0,1,.52,1.47l-1.5.22a1.75,1.75,0,0,0-.58-1.16,2,2,0,0,0-1.37-.42,2.39,2.39,0,0,0-1.49.37,1.09,1.09,0,0,0-.45.86.91.91,0,0,0,.19.57,1.28,1.28,0,0,0,.58.43c.15.06.6.19,1.34.41a18.36,18.36,0,0,1,2.25.75,2.29,2.29,0,0,1,1,.84,2.41,2.41,0,0,1,.37,1.38,2.82,2.82,0,0,1-1.73,2.61,4.44,4.44,0,0,1-1.89.39,4.07,4.07,0,0,1-2.67-.77A3.71,3.71,0,0,1,104,299.85Z"/><path class="cls-21" d="M119.53,299.63l1.54.22a4.26,4.26,0,0,1-7.14,1.78,5.13,5.13,0,0,1-1.17-3.6,5.46,5.46,0,0,1,1.18-3.72A3.92,3.92,0,0,1,117,293a3.81,3.81,0,0,1,3,1.3,5.34,5.34,0,0,1,1.15,3.66c0,.1,0,.24,0,.43h-6.77a3.67,3.67,0,0,0,.85,2.39,2.51,2.51,0,0,0,1.92.83,2.32,2.32,0,0,0,1.46-.47A3.08,3.08,0,0,0,119.53,299.63Zm-5.16-2.57h5.18a3.28,3.28,0,0,0-.6-1.81,2.39,2.39,0,0,0-1.94-.94,2.44,2.44,0,0,0-1.82.75A3,3,0,0,0,114.37,297.06Z"/><path class="cls-21" d="M123,302.71v-9.5h1.4v1.35a3.16,3.16,0,0,1,2.86-1.57,3.52,3.52,0,0,1,1.49.31,2.41,2.41,0,0,1,1,.81,3.26,3.26,0,0,1,.47,1.19,10.65,10.65,0,0,1,.08,1.56v5.85H128.7v-5.78a4.82,4.82,0,0,0-.17-1.47,1.51,1.51,0,0,0-.63-.78,1.83,1.83,0,0,0-1.05-.3,2.33,2.33,0,0,0-1.66.66,3.33,3.33,0,0,0-.7,2.47v5.19H123Z"/><path class="cls-21" d="M136,301.28l.21,1.42a5.12,5.12,0,0,1-1.15.15,2.59,2.59,0,0,1-1.3-.28,1.46,1.46,0,0,1-.64-.73,5.87,5.87,0,0,1-.19-1.9v-5.48h-1.14v-1.25h1.14v-2.35l1.54-1v3.31H136v1.25h-1.53V300a3,3,0,0,0,.08.88.63.63,0,0,0,.26.32.94.94,0,0,0,.52.11Z"/><path class="cls-21" d="M288.67,239.64v-9.5h1.39v1.35a3.15,3.15,0,0,1,2.86-1.56,3.71,3.71,0,0,1,1.49.3,2.39,2.39,0,0,1,1,.81,3.17,3.17,0,0,1,.48,1.19,10.42,10.42,0,0,1,.09,1.57v5.83h-1.58v-5.77a4.21,4.21,0,0,0-.18-1.47,1.48,1.48,0,0,0-.61-.78,1.88,1.88,0,0,0-1.06-.29,2.33,2.33,0,0,0-1.66.65,3.36,3.36,0,0,0-.7,2.48v5.19Z"/><path class="cls-21" d="M304.28,239.64v-1.41a3.26,3.26,0,0,1-2.87,1.62,3.64,3.64,0,0,1-1.5-.32,2.62,2.62,0,0,1-1-.81,3.17,3.17,0,0,1-.47-1.2,8.55,8.55,0,0,1-.1-1.5v-5.88h1.54v5.26a10.33,10.33,0,0,0,.09,1.7,1.67,1.67,0,0,0,.62,1,1.82,1.82,0,0,0,1.15.36,2.39,2.39,0,0,0,1.29-.37,2,2,0,0,0,.85-1,5.19,5.19,0,0,0,.25-1.85v-5.09h1.53v9.5h-1.35Z"/><path class="cls-21" d="M313.94,236.17l1.5.22a4.19,4.19,0,0,1-1.26,2.54,3.56,3.56,0,0,1-2.48.92,3.76,3.76,0,0,1-3-1.27,5.36,5.36,0,0,1-1.12-3.66,7,7,0,0,1,.48-2.69,3.45,3.45,0,0,1,1.47-1.73,4.18,4.18,0,0,1,2.14-.57,3.52,3.52,0,0,1,2.39.79,3.67,3.67,0,0,1,1.2,2.24l-1.5.22a2.64,2.64,0,0,0-.75-1.45,1.84,1.84,0,0,0-1.29-.48,2.3,2.3,0,0,0-1.86.87,4.37,4.37,0,0,0-.71,2.76,4.5,4.5,0,0,0,.69,2.79,2.25,2.25,0,0,0,1.81.87,2.09,2.09,0,0,0,1.49-.58A3.06,3.06,0,0,0,313.94,236.17Z"/><path class="cls-21" d="M316.72,239.64v-13.1h1.54v13.1Z"/><path class="cls-21" d="M326.9,236.56l1.54.22a4.16,4.16,0,0,1-1.39,2.27,4.11,4.11,0,0,1-2.6.8,4.07,4.07,0,0,1-3.15-1.28,5.17,5.17,0,0,1-1.17-3.6,5.38,5.38,0,0,1,1.18-3.72,3.91,3.91,0,0,1,3.06-1.32,3.78,3.78,0,0,1,3,1.3,5.35,5.35,0,0,1,1.15,3.66c0,.09,0,.24,0,.43h-6.77a3.67,3.67,0,0,0,.85,2.38,2.48,2.48,0,0,0,1.92.83,2.26,2.26,0,0,0,1.46-.47A3.15,3.15,0,0,0,326.9,236.56ZM321.74,234h5.18a3.32,3.32,0,0,0-.6-1.82,2.39,2.39,0,0,0-1.95-.93,2.41,2.41,0,0,0-1.82.75A3,3,0,0,0,321.74,234Z"/><path class="cls-21" d="M329.75,234.89a5,5,0,0,1,1.39-3.91,4.11,4.11,0,0,1,2.84-1,4,4,0,0,1,3,1.28,5,5,0,0,1,1.18,3.55,6.53,6.53,0,0,1-.52,2.88,3.83,3.83,0,0,1-1.52,1.64,4.36,4.36,0,0,1-2.19.57,4,4,0,0,1-3.06-1.28A5.26,5.26,0,0,1,329.75,234.89Zm1.57,0a4.19,4.19,0,0,0,.76,2.74,2.36,2.36,0,0,0,1.91.91,2.34,2.34,0,0,0,1.89-.91,4.28,4.28,0,0,0,.76-2.79,4,4,0,0,0-.76-2.67,2.45,2.45,0,0,0-3.8,0A4.14,4.14,0,0,0,331.32,234.88Z"/><path class="cls-21" d="M343.37,238.21l.21,1.43a5.69,5.69,0,0,1-1.15.14,2.49,2.49,0,0,1-1.3-.28,1.5,1.5,0,0,1-.64-.73,6.14,6.14,0,0,1-.19-1.9v-5.48h-1.14v-1.25h1.14v-2.35l1.54-1v3.31h1.53v1.25h-1.53v5.54a3.12,3.12,0,0,0,.08.89.65.65,0,0,0,.26.31,1,1,0,0,0,.52.11Z"/><path class="cls-21" d="M344.93,228.35v-1.82h1.53v1.82Zm0,11.29v-9.5h1.53v9.5Z"/><path class="cls-21" d="M354.58,239.64v-1.2a2.78,2.78,0,0,1-2.53,1.41,3.42,3.42,0,0,1-2-.62,4,4,0,0,1-1.4-1.75,6.19,6.19,0,0,1-.51-2.58,6.85,6.85,0,0,1,.46-2.58,3.65,3.65,0,0,1,1.35-1.77,3.45,3.45,0,0,1,2-.62,2.88,2.88,0,0,1,1.45.35,3.15,3.15,0,0,1,1,.94v-4.69H356v13.11Zm-4.85-4.75a4.26,4.26,0,0,0,.73,2.73,2.17,2.17,0,0,0,1.74.91,2.15,2.15,0,0,0,1.71-.86,4.14,4.14,0,0,0,.71-2.64,4.64,4.64,0,0,0-.72-2.87,2.17,2.17,0,0,0-1.77-.91,2.06,2.06,0,0,0-1.71.88A4.44,4.44,0,0,0,349.73,234.89Z"/><path class="cls-21" d="M364.68,236.56l1.54.22a4.26,4.26,0,0,1-7.14,1.79,5.21,5.21,0,0,1-1.16-3.6,5.38,5.38,0,0,1,1.18-3.72,3.89,3.89,0,0,1,3-1.32,3.78,3.78,0,0,1,3,1.3,5.3,5.3,0,0,1,1.16,3.66c0,.09,0,.24,0,.43h-6.77a3.62,3.62,0,0,0,.86,2.38,2.48,2.48,0,0,0,1.92.83,2.28,2.28,0,0,0,1.46-.47A3.07,3.07,0,0,0,364.68,236.56ZM359.52,234h5.18a3.32,3.32,0,0,0-.59-1.82,2.39,2.39,0,0,0-1.95-.93,2.41,2.41,0,0,0-1.82.75A3,3,0,0,0,359.52,234Z"/><path class="cls-21" d="M299.71,245.72V243.9h1.54v1.82Zm0,11.28v-9.49h1.54V257Z"/><path class="cls-21" d="M309.37,257v-1.19a2.79,2.79,0,0,1-2.53,1.41,3.41,3.41,0,0,1-2-.63,4.05,4.05,0,0,1-1.41-1.75,6.28,6.28,0,0,1-.5-2.58,7.13,7.13,0,0,1,.45-2.58,3.83,3.83,0,0,1,1.36-1.77,3.49,3.49,0,0,1,2-.62,3,3,0,0,1,1.46.36,3,3,0,0,1,1,.94V243.9h1.54V257Zm-4.86-4.74a4.26,4.26,0,0,0,.74,2.73,2.12,2.12,0,0,0,3.45,0,4.15,4.15,0,0,0,.7-2.65,4.68,4.68,0,0,0-.71-2.86,2.18,2.18,0,0,0-1.77-.92,2.09,2.09,0,0,0-1.71.88A4.42,4.42,0,0,0,304.51,252.26Z"/><path class="cls-21" d="M319.48,253.93l1.53.22a4.13,4.13,0,0,1-1.39,2.26,4.54,4.54,0,0,1-5.75-.47,5.16,5.16,0,0,1-1.16-3.6,5.42,5.42,0,0,1,1.17-3.72,3.9,3.9,0,0,1,3.06-1.33,3.81,3.81,0,0,1,3,1.3,5.39,5.39,0,0,1,1.15,3.66c0,.1,0,.24,0,.43h-6.77a3.67,3.67,0,0,0,.85,2.39,2.53,2.53,0,0,0,1.92.82,2.31,2.31,0,0,0,1.47-.47A3.14,3.14,0,0,0,319.48,253.93Zm-5.17-2.57h5.18a3.28,3.28,0,0,0-.59-1.81,2.42,2.42,0,0,0-1.95-.94,2.49,2.49,0,0,0-1.83.75A3.06,3.06,0,0,0,314.31,251.36Z"/><path class="cls-21" d="M322.9,257v-9.49h1.39v1.35a3.17,3.17,0,0,1,2.86-1.57,3.68,3.68,0,0,1,1.49.31,2.49,2.49,0,0,1,1,.81,3.26,3.26,0,0,1,.47,1.19,9.45,9.45,0,0,1,.08,1.56V257h-1.56v-5.78a4.47,4.47,0,0,0-.18-1.47,1.49,1.49,0,0,0-.62-.78,1.85,1.85,0,0,0-1.06-.29,2.4,2.4,0,0,0-1.66.65,3.36,3.36,0,0,0-.7,2.48V257Z"/><path class="cls-21" d="M335.89,255.58l.21,1.42a5.77,5.77,0,0,1-1.16.15,2.51,2.51,0,0,1-1.28-.28,1.5,1.5,0,0,1-.65-.74,5.83,5.83,0,0,1-.19-1.9v-5.47h-1.14v-1.25h1.14v-2.35l1.54-1v3.31h1.54v1.25h-1.54v5.54a2.7,2.7,0,0,0,.08.88.61.61,0,0,0,.26.31.93.93,0,0,0,.52.12Z"/><path class="cls-21" d="M337.45,245.72V243.9H339v1.82Zm0,11.28v-9.49H339V257Z"/><path class="cls-21" d="M344.6,255.58l.22,1.42a5.86,5.86,0,0,1-1.16.15,2.57,2.57,0,0,1-1.29-.28,1.5,1.5,0,0,1-.65-.74,6.14,6.14,0,0,1-.19-1.9v-5.47h-1.14v-1.25h1.14v-2.35l1.54-1v3.31h1.54v1.25h-1.54v5.54a3,3,0,0,0,.08.88.61.61,0,0,0,.26.31,1,1,0,0,0,.52.12Z"/><path class="cls-21" d="M346.17,260.67l-.21-1.49a3.26,3.26,0,0,0,.91.14,1.7,1.7,0,0,0,.84-.17,1.55,1.55,0,0,0,.52-.5,10.27,10.27,0,0,0,.48-1.2c0-.09.07-.23.14-.4l-3.46-9.54H347l1.9,5.48c.25.7.47,1.43.67,2.2.17-.72.38-1.43.62-2.13l1.92-5.55h1.53l-3.38,9.67a19.32,19.32,0,0,1-.88,2.15,3.16,3.16,0,0,1-1,1.16,2.2,2.2,0,0,1-1.29.37A3.36,3.36,0,0,1,346.17,260.67Z"/><path class="cls-21" d="M324,306.05v-1.54h8.07v1.24a17.35,17.35,0,0,0-2.36,3.54,22.51,22.51,0,0,0-1.81,4.54,17.79,17.79,0,0,0-.59,3.61h-1.56a16.3,16.3,0,0,1,.57-3.74,20.64,20.64,0,0,1,1.58-4.22,17.66,17.66,0,0,1,2.2-3.43Z"/><path class="cls-21" d="M333.57,314l1.57-.14a3.09,3.09,0,0,0,.82,1.84,2.19,2.19,0,0,0,1.57.62,2.4,2.4,0,0,0,1.89-.87,3.41,3.41,0,0,0,.75-2.31,3.11,3.11,0,0,0-.72-2.17,2.48,2.48,0,0,0-1.92-.79,2.51,2.51,0,0,0-1.34.35,2.61,2.61,0,0,0-.91.9l-1.43-.21,1.21-6.72h6.18v1.54h-5l-.68,3.54a3.92,3.92,0,0,1,2.35-.83,3.6,3.6,0,0,1,2.74,1.19,4.25,4.25,0,0,1,1.12,3,4.89,4.89,0,0,1-1,3.07,4.23,4.23,0,0,1-6,.59A4,4,0,0,1,333.57,314Z"/><path class="cls-21" d="M343.51,307.49a4.12,4.12,0,0,1,.67-2.39,2.2,2.2,0,0,1,1.94-1,2.45,2.45,0,0,1,1.94.88,3.85,3.85,0,0,1,.77,2.59,3.79,3.79,0,0,1-.78,2.56,2.44,2.44,0,0,1-1.91.9,2.39,2.39,0,0,1-1.88-.88A4.1,4.1,0,0,1,343.51,307.49Zm2.65-2.23a1.14,1.14,0,0,0-1,.51,3.36,3.36,0,0,0-.38,1.88,3,3,0,0,0,.38,1.75,1.15,1.15,0,0,0,1.92,0,3.31,3.31,0,0,0,.38-1.86,3.06,3.06,0,0,0-.38-1.76A1.19,1.19,0,0,0,346.16,305.26Zm0,12.68,6.89-13.82h1.28l-6.89,13.82Zm5.48-3.56a4.1,4.1,0,0,1,.67-2.39,2.22,2.22,0,0,1,1.95-1,2.42,2.42,0,0,1,1.93.88,4.67,4.67,0,0,1,0,5.15,2.41,2.41,0,0,1-1.91.9,2.36,2.36,0,0,1-1.88-.89A4.05,4.05,0,0,1,351.65,314.38Zm2.66-2.23a1.17,1.17,0,0,0-1,.52,3.32,3.32,0,0,0-.38,1.87,3,3,0,0,0,.38,1.75,1.15,1.15,0,0,0,.95.51,1.17,1.17,0,0,0,1-.51,3.35,3.35,0,0,0,.38-1.87,3,3,0,0,0-.39-1.76A1.14,1.14,0,0,0,354.31,312.15Z"/><path class="cls-25" d="M287.86,317.44v-13.1h1.68l6.6,10.3v-10.3h1.57v13.1H296l-6.6-10.31v10.31Z"/><path class="cls-26" d="M287.86,280.48V267.37h1.68l6.6,10.31V267.37h1.57v13.11H296l-6.6-10.31v10.31Z"/><path class="cls-21" d="M324.09,277.44l1.47-.14a2.62,2.62,0,0,0,.71,1.57,1.84,1.84,0,0,0,1.34.49,2.29,2.29,0,0,0,1.23-.33,2.53,2.53,0,0,0,.87-.91,5.81,5.81,0,0,0,.56-1.52,8.54,8.54,0,0,0,.22-2v-.32a3.54,3.54,0,0,1-1.25,1.24,3.19,3.19,0,0,1-1.7.48,3.35,3.35,0,0,1-2.6-1.18,4.45,4.45,0,0,1-1.06-3.11,4.57,4.57,0,0,1,1.11-3.21,3.68,3.68,0,0,1,2.8-1.21A3.84,3.84,0,0,1,330,268a4.21,4.21,0,0,1,1.52,2,10.05,10.05,0,0,1,.53,3.68,12.6,12.6,0,0,1-.52,4,4.7,4.7,0,0,1-1.55,2.27,3.83,3.83,0,0,1-2.4.77,3.4,3.4,0,0,1-2.38-.85A3.69,3.69,0,0,1,324.09,277.44Zm6.25-5.77a3.29,3.29,0,0,0-.69-2.2,2.13,2.13,0,0,0-1.69-.81,2.24,2.24,0,0,0-1.77.87,3.38,3.38,0,0,0-.75,2.27,2.93,2.93,0,0,0,.71,2,2.25,2.25,0,0,0,1.77.78,2.19,2.19,0,0,0,1.73-.78A3.18,3.18,0,0,0,330.34,271.67Z"/><path class="cls-21" d="M333.68,269.08v-1.53h8.07v1.24a18.21,18.21,0,0,0-2.37,3.54,22.47,22.47,0,0,0-1.8,4.54,17.15,17.15,0,0,0-.58,3.6h-1.57a16.3,16.3,0,0,1,.57-3.73,21,21,0,0,1,1.58-4.23,18.37,18.37,0,0,1,2.2-3.42Z"/><path class="cls-21" d="M343.51,270.53a4.12,4.12,0,0,1,.67-2.39,2.18,2.18,0,0,1,1.94-1,2.45,2.45,0,0,1,1.94.88,3.85,3.85,0,0,1,.77,2.59,3.79,3.79,0,0,1-.78,2.56,2.43,2.43,0,0,1-1.91.89,2.36,2.36,0,0,1-1.88-.88A4.05,4.05,0,0,1,343.51,270.53Zm2.65-2.23a1.14,1.14,0,0,0-1,.51,3.36,3.36,0,0,0-.38,1.88,3,3,0,0,0,.38,1.75,1.16,1.16,0,0,0,1.92,0,3.31,3.31,0,0,0,.38-1.86,3.06,3.06,0,0,0-.38-1.76A1.19,1.19,0,0,0,346.16,268.3Zm0,12.67,6.89-13.81h1.28L347.45,281Zm5.48-3.55a4.1,4.1,0,0,1,.67-2.39,2.22,2.22,0,0,1,1.95-1,2.42,2.42,0,0,1,1.93.88,4.67,4.67,0,0,1,0,5.15,2.41,2.41,0,0,1-1.91.9,2.36,2.36,0,0,1-1.88-.89A4.09,4.09,0,0,1,351.65,277.42Zm2.66-2.23a1.16,1.16,0,0,0-1,.51,3.36,3.36,0,0,0-.38,1.88,3,3,0,0,0,.38,1.74,1.15,1.15,0,0,0,.95.51,1.17,1.17,0,0,0,1-.51,3.31,3.31,0,0,0,.38-1.86,3,3,0,0,0-.39-1.76A1.14,1.14,0,0,0,354.31,275.19Z"/><path class="cls-21" d="M287.86,299v-13.1h1.68l6.6,10.3v-10.3h1.57V299H296l-6.6-10.31V299Z"/><path class="cls-21" d="M324.09,295.92l1.47-.15a2.62,2.62,0,0,0,.71,1.58,1.84,1.84,0,0,0,1.34.49,2.29,2.29,0,0,0,1.23-.33,2.62,2.62,0,0,0,.87-.91,6,6,0,0,0,.56-1.52,8.54,8.54,0,0,0,.22-2v-.33a3.56,3.56,0,0,1-1.25,1.25,3.19,3.19,0,0,1-1.7.48,3.38,3.38,0,0,1-2.6-1.18,4.48,4.48,0,0,1-1.06-3.11A4.57,4.57,0,0,1,325,287a3.65,3.65,0,0,1,2.8-1.21,3.9,3.9,0,0,1,2.22.68,4.19,4.19,0,0,1,1.52,2,10,10,0,0,1,.53,3.68,12.6,12.6,0,0,1-.52,4,4.67,4.67,0,0,1-1.55,2.26,3.84,3.84,0,0,1-2.4.78,3.36,3.36,0,0,1-2.38-.86A3.64,3.64,0,0,1,324.09,295.92Zm6.25-5.77a3.31,3.31,0,0,0-.69-2.2,2.13,2.13,0,0,0-1.69-.81,2.24,2.24,0,0,0-1.77.87,3.4,3.4,0,0,0-.75,2.28,2.92,2.92,0,0,0,.71,2,2.29,2.29,0,0,0,1.77.78,2.19,2.19,0,0,0,1.73-.78A3.18,3.18,0,0,0,330.34,290.15Z"/><path class="cls-21" d="M333.57,292.5a12.79,12.79,0,0,1,.45-3.75,4.72,4.72,0,0,1,1.36-2.18,3.46,3.46,0,0,1,2.27-.76,3.7,3.7,0,0,1,1.79.43,3.32,3.32,0,0,1,1.25,1.22,6.77,6.77,0,0,1,.77,1.94,13.39,13.39,0,0,1,.29,3.1,12.69,12.69,0,0,1-.46,3.73,4.56,4.56,0,0,1-1.36,2.18,3.74,3.74,0,0,1-5.12-.57Q333.57,296.18,333.57,292.5Zm1.57,0c0,2.16.24,3.6.72,4.3a2.12,2.12,0,0,0,1.79,1.06,2.1,2.1,0,0,0,1.79-1.07c.48-.7.73-2.14.73-4.29s-.25-3.58-.72-4.29a2.13,2.13,0,0,0-1.82-1.06,2,2,0,0,0-1.71.93A8.79,8.79,0,0,0,335.14,292.49Z"/><path class="cls-21" d="M343.51,289a4.12,4.12,0,0,1,.67-2.39,2.2,2.2,0,0,1,1.94-1,2.45,2.45,0,0,1,1.94.88,3.85,3.85,0,0,1,.77,2.59,3.8,3.8,0,0,1-.78,2.56,2.44,2.44,0,0,1-1.91.9,2.37,2.37,0,0,1-1.88-.89A4.05,4.05,0,0,1,343.51,289Zm2.65-2.23a1.14,1.14,0,0,0-1,.51,3.36,3.36,0,0,0-.38,1.88,3,3,0,0,0,.38,1.75,1.17,1.17,0,0,0,1,.51,1.18,1.18,0,0,0,1-.52,3.31,3.31,0,0,0,.38-1.86,3.06,3.06,0,0,0-.38-1.76A1.19,1.19,0,0,0,346.16,286.78Zm0,12.67,6.89-13.81h1.28l-6.89,13.81Zm5.48-3.55a4.1,4.1,0,0,1,.67-2.39,2.22,2.22,0,0,1,1.95-1,2.45,2.45,0,0,1,1.93.88,4.67,4.67,0,0,1,0,5.15,2.41,2.41,0,0,1-1.91.9,2.36,2.36,0,0,1-1.88-.89A4.07,4.07,0,0,1,351.65,295.9Zm2.66-2.23a1.16,1.16,0,0,0-1,.51,3.36,3.36,0,0,0-.38,1.88,3.09,3.09,0,0,0,.38,1.75,1.17,1.17,0,0,0,.95.5,1.19,1.19,0,0,0,1-.5,3.37,3.37,0,0,0,.38-1.87,3,3,0,0,0-.39-1.76A1.14,1.14,0,0,0,354.31,293.67Z"/><text class="cls-27" transform="translate(221.41 339.63) scale(0.87 1)">R =<tspan class="cls-28" x="27.52" y="0" xml:space="preserve"> A</tspan><tspan x="43.6" y="0" xml:space="preserve"> or G.</tspan><tspan class="cls-29" x="88.96" y="0" xml:space="preserve"> Y</tspan><tspan x="104.74" y="0" xml:space="preserve"> = C or U.</tspan></text><text class="cls-30" transform="translate(2.83 18.32)">folE RN<tspan class="cls-31" x="68.91" y="0">A</tspan><tspan x="81.14" y="0" xml:space="preserve"> motif</tspan></text></svg>