<?xml version="1.0" encoding="utf-8"?>
<!-- Generator: Adobe Illustrator 16.0.0, SVG Export Plug-In . SVG Version: 6.00 Build 0)  -->
<!DOCTYPE svg PUBLIC "-//W3C//DTD SVG 1.1//EN" "http://www.w3.org/Graphics/SVG/1.1/DTD/svg11.dtd">
<svg version="1.1" id="图层_1" xmlns="http://www.w3.org/2000/svg" xmlns:xlink="http://www.w3.org/1999/xlink" x="0px" y="0px"
	 width="400px" height="400px" viewBox="0 0 400 400" enable-background="new 0 0 400 400" xml:space="preserve">
<g id="ID000002">
	<g transform="translate(97.299,404.330)">
		<g transform="rotate(-0.0)">
			<text transform="matrix(1 0 0 1 -82.2878 -170.9394)" fill="#FFAADC" font-family="'ArialMT'" font-size="12.4644">G</text>
		</g>
	</g>
</g>
<g id="ID000003">
	<line fill="none" stroke="#000000" stroke-width="0.5" x1="19.859" y1="234.068" x2="19.859" y2="242.311"/>
</g>
<g id="ID000004">
	<g transform="translate(97.299,459.585)">
		<g transform="rotate(-0.0)">
			<text transform="matrix(1 0 0 1 -84.3718 -208.6875)" font-family="'ArialMT'" font-size="10">10</text>
		</g>
	</g>
</g>
<g id="ID000005">
	<g transform="translate(124.078,404.330)">
		<g transform="rotate(-0.0)">
			<text transform="matrix(1 0 0 1 -96.704 -170.9394)" fill="#FFAADC" font-family="'ArialMT'" font-size="12.4644">G</text>
		</g>
	</g>
</g>
<g id="ID000006">
	<g transform="translate(150.858,404.330)">
		<g transform="rotate(-0.0)">
			<text transform="matrix(1 0 0 1 -110.4308 -170.9394)" fill="#FFAADC" font-family="'ArialMT'" font-size="12.4644">A</text>
		</g>
	</g>
</g>
<g id="ID000007">
	<g transform="translate(177.637,404.330)">
		<g transform="rotate(-0.0)">
			<text transform="matrix(1 0 0 1 -125.1917 -170.9394)" fill="#FFAADC" font-family="'ArialMT'" font-size="12.4644">C</text>
		</g>
	</g>
</g>
<g id="ID000008">
	<g transform="translate(204.417,404.330)">
		<g transform="rotate(-0.0)">
			<text transform="matrix(1 0 0 1 -139.6089 -170.9394)" fill="#FFAADC" font-family="'ArialMT'" font-size="12.4644">U</text>
		</g>
	</g>
</g>
<g id="ID000009">
	<g transform="translate(231.196,350.771)">
		<g transform="rotate(-0.0)">
			<text transform="matrix(1 0 0 1 -153.6799 -142.1069)" fill="#C2C2FF" font-family="'ArialMT'" font-size="12.4644">A</text>
		</g>
	</g>
</g>
<g id="ID000010">
	<g transform="translate(204.417,350.771)">
		<g transform="rotate(-0.0)">
			<text transform="matrix(1 0 0 1 -139.2642 -142.1069)" fill="#FFAADC" font-family="'ArialMT'" font-size="12.4644">A</text>
		</g>
	</g>
</g>
<g id="ID000011">
	<g transform="translate(177.637,350.771)">
		<g transform="rotate(-0.0)">
			<text transform="matrix(1 0 0 1 -125.5374 -142.1069)" fill="#FFAADC" font-family="'ArialMT'" font-size="12.4644">G</text>
		</g>
	</g>
</g>
<g id="ID000012">
	<g transform="translate(150.858,350.771)">
		<g transform="rotate(-0.0)">
			<text transform="matrix(1 0 0 1 -110.7745 -142.1069)" fill="#FFAADC" font-family="'ArialMT'" font-size="12.4644">U</text>
		</g>
	</g>
</g>
<g id="ID000013">
	<g transform="translate(124.078,350.771)">
		<g transform="rotate(-0.0)">
			<text transform="matrix(1 0 0 1 -96.3563 -142.1069)" fill="#FFAADC" font-family="'ArialMT'" font-size="12.4644">U</text>
		</g>
	</g>
</g>
<g id="ID000014">
	<g transform="translate(97.299,350.771)">
		<g transform="rotate(-0.0)">
			<text transform="matrix(1 0 0 1 -81.9406 -142.1069)" fill="#FFAADC" font-family="'ArialMT'" font-size="12.4644">C</text>
		</g>
	</g>
</g>
<g id="ID000015">
	<line fill="none" stroke="#000000" stroke-width="0.5" x1="19.859" y1="222.881" x2="19.859" y2="208.047"/>
</g>
<g id="ID000016">
	<polygon stroke="#000000" stroke-width="0.5" points="32.222,212.99 32.065,212.996 31.908,213.012 31.754,213.035 31.601,213.07 
		31.45,213.115 31.302,213.168 31.159,213.23 31.019,213.303 30.885,213.385 30.756,213.473 30.632,213.568 30.515,213.674 
		30.405,213.785 30.302,213.904 30.208,214.029 30.121,214.16 30.042,214.295 29.972,214.436 29.912,214.582 29.86,214.729 
		29.819,214.881 29.787,215.033 29.764,215.189 29.752,215.346 29.75,215.502 29.756,215.66 29.774,215.816 29.802,215.971 
		29.838,216.123 29.885,216.271 29.941,216.42 30.006,216.563 30.08,216.699 30.163,216.834 30.254,216.961 30.353,217.082 
		30.459,217.197 30.573,217.307 30.693,217.406 30.819,217.5 30.951,217.584 31.088,217.662 31.23,217.729 31.376,217.787 
		31.525,217.836 31.677,217.875 31.831,217.906 31.986,217.924 32.143,217.936 32.3,217.936 32.457,217.924 32.612,217.906 
		32.766,217.875 32.917,217.836 33.067,217.787 33.213,217.729 33.354,217.662 33.492,217.584 33.624,217.5 33.75,217.406 
		33.871,217.307 33.984,217.197 34.09,217.082 34.189,216.961 34.28,216.834 34.363,216.699 34.437,216.563 34.502,216.42 
		34.558,216.271 34.605,216.123 34.642,215.971 34.669,215.816 34.686,215.66 34.694,215.502 34.691,215.346 34.679,215.189 
		34.657,215.033 34.625,214.881 34.583,214.729 34.531,214.582 34.471,214.436 34.4,214.295 34.323,214.16 34.235,214.029 
		34.14,213.904 34.038,213.785 33.928,213.674 33.811,213.568 33.688,213.473 33.559,213.385 33.423,213.303 33.284,213.23 
		33.141,213.168 32.994,213.115 32.842,213.07 32.689,213.035 32.534,213.012 32.378,212.996 	"/>
</g>
<g id="ID000017">
	<line fill="none" stroke="#000000" stroke-width="0.5" x1="44.584" y1="222.881" x2="44.584" y2="208.047"/>
</g>
<g id="ID000018">
	<line fill="none" stroke="#000000" stroke-width="0.5" x1="56.946" y1="222.881" x2="56.946" y2="208.047"/>
</g>
<g id="ID000019">
	<line fill="none" stroke="#000000" x1="74.254" y1="227.826" x2="119.997" y2="227.826"/>
</g>
<g id="ID000020">
	<polygon stroke="#000000" stroke-width="0.5" points="93.004,224.117 95.065,225.973 97.125,226.59 99.186,226.898 
		103.307,227.826 99.186,228.754 97.125,229.063 95.065,229.68 93.004,231.535 	"/>
</g>
<g id="ID000021">
	<line fill="none" stroke="#000000" stroke-width="0.5" x1="69.31" y1="222.881" x2="69.31" y2="208.047"/>
</g>
<g id="ID000022">
	<polyline fill="none" stroke="#000000" points="119.997,132.016 81.672,132.016 81.672,198.156 	"/>
</g>
<g id="ID000023">
	<polygon stroke="#000000" stroke-width="0.5" points="85.381,160.965 83.526,163.026 82.908,165.086 82.599,167.146 
		81.672,171.268 80.745,167.146 80.436,165.086 79.818,163.026 77.963,160.965 	"/>
</g>
<g id="ID000024">
	<line fill="none" stroke="#000000" stroke-width="0.5" x1="108.156" y1="189.86" x2="86.095" y2="200.889"/>
</g>
<g id="ID000025">
	<polygon fill="#FFFFFF" stroke="#000000" stroke-width="0.5" points="96.02,198.692 100.443,196.481 98.231,192.057 
		93.808,194.269 	"/>
</g>
<g id="ID000027">
	<g transform="translate(324.925,404.330)">
		<g transform="rotate(-0.0)">
			<text transform="matrix(1 0 0 1 -204.4846 -170.9394)" fill="#09FEFE" font-family="'ArialMT'" font-size="12.4644">C</text>
		</g>
	</g>
</g>
<g id="ID000028">
	<g transform="translate(351.704,404.330)">
		<g transform="rotate(-0.0)">
			<text transform="matrix(1 0 0 1 -219.248 -170.9394)" fill="#09FEFE" font-family="'ArialMT'" font-size="12.4644">G</text>
		</g>
	</g>
</g>
<g id="ID000029">
	<g transform="translate(378.484,404.330)">
		<g transform="rotate(-0.0)">
			<text transform="matrix(1 0 0 1 -233.6652 -170.9394)" fill="#09FEFE" font-family="'ArialMT'" font-size="12.4644">G</text>
		</g>
	</g>
</g>
<g id="ID000030">
	<g transform="translate(405.263,404.330)">
		<g transform="rotate(-0.0)">
			<text transform="matrix(1 0 0 1 -248.0814 -170.9394)" fill="#09FEFE" font-family="'ArialMT'" font-size="12.4644">G</text>
		</g>
	</g>
</g>
<g id="ID000031">
	<g transform="translate(432.043,404.330)">
		<g transform="rotate(-0.0)">
			<text transform="matrix(1 0 0 1 -262.4981 -170.9394)" fill="#09FEFE" font-family="'ArialMT'" font-size="12.4644">G</text>
		</g>
	</g>
</g>
<g id="ID000032">
	<g transform="translate(519.076,377.550)">
		<g transform="rotate(-0.0)">
			<text transform="matrix(1 0 0 1 -308.6619 -156.5236)" fill="#FF870A" font-family="'ArialMT'" font-size="12.4644">A</text>
		</g>
	</g>
</g>
<g id="ID000033">
	<g transform="translate(492.297,350.771)">
		<g transform="rotate(-0.0)">
			<text transform="matrix(1 0 0 1 -294.2462 -142.1069)" fill="#FF870A" font-family="'ArialMT'" font-size="12.4644">A</text>
		</g>
	</g>
</g>
<g id="ID000034">
	<g transform="translate(465.517,350.771)">
		<g transform="rotate(-0.0)">
			<text transform="matrix(1 0 0 1 -279.8295 -142.1069)" fill="#09FEFE" font-family="'ArialMT'" font-size="12.4644">A</text>
		</g>
	</g>
</g>
<g id="ID000035">
	<g transform="translate(452.127,323.991)">
		<g transform="rotate(-0.0)">
			<text transform="matrix(1 0 0 1 -272.9649 -127.6902)" fill="#09FEFE" font-family="'ArialMT'" font-size="12.4644">U</text>
		</g>
	</g>
</g>
<g id="ID000036">
	<g transform="translate(432.043,350.771)">
		<g transform="rotate(-0.0)">
			<text transform="matrix(1 0 0 1 -261.8081 -142.1069)" fill="#09FEFE" font-family="'ArialMT'" font-size="12.4644">A</text>
		</g>
	</g>
</g>
<g id="ID000037">
	<g transform="translate(405.263,350.771)">
		<g transform="rotate(-0.0)">
			<text transform="matrix(1 0 0 1 -247.7347 -142.1069)" fill="#09FEFE" font-family="'ArialMT'" font-size="12.4644">C</text>
		</g>
	</g>
</g>
<g id="ID000038">
	<g transform="translate(378.484,350.771)">
		<g transform="rotate(-0.0)">
			<text transform="matrix(1 0 0 1 -233.3195 -142.1069)" fill="#09FEFE" font-family="'ArialMT'" font-size="12.4644">C</text>
		</g>
	</g>
</g>
<g id="ID000039">
	<g transform="translate(351.704,350.771)">
		<g transform="rotate(-0.0)">
			<text transform="matrix(1 0 0 1 -218.9013 -142.1069)" fill="#09FEFE" font-family="'ArialMT'" font-size="12.4644">C</text>
		</g>
	</g>
</g>
<g id="ID000040">
	<line fill="none" stroke="#000000" stroke-width="0.5" x1="134.605" y1="200.24" x2="131" y2="192.829"/>
</g>
<g id="ID000041">
	<g transform="translate(351.704,296.319)">
		<g transform="rotate(-0.0)">
			<text transform="matrix(1 0 0 1 -229.5443 -104.2619)" font-family="'ArialMT'" font-size="10">50</text>
		</g>
	</g>
</g>
<g id="ID000042">
	<g transform="translate(324.925,350.771)">
		<g transform="rotate(-0.0)">
			<text transform="matrix(1 0 0 1 -204.8307 -142.1069)" fill="#09FEFE" font-family="'ArialMT'" font-size="12.4644">G</text>
		</g>
	</g>
</g>
<g id="ID000043">
	<g transform="translate(298.145,350.771)">
		<g transform="rotate(-0.0)">
			<text transform="matrix(1 0 0 1 -190.0659 -142.1069)" fill="#C2C2FF" font-family="'ArialMT'" font-size="12.4644">U</text>
		</g>
	</g>
</g>
<g id="ID000044">
	<g transform="translate(298.145,317.296)">
		<g transform="rotate(-0.0)">
			<text transform="matrix(1 0 0 1 -189.7231 -124.0851)" fill="#C2C2FF" font-family="'ArialMT'" font-size="12.4644">A</text>
		</g>
	</g>
</g>
<g id="ID000045">
	<g transform="translate(298.145,283.822)">
		<g transform="rotate(-0.0)">
			<text transform="matrix(1 0 0 1 -190.0659 -106.0642)" fill="#C2C2FF" font-family="'ArialMT'" font-size="12.4644">U</text>
		</g>
	</g>
</g>
<g id="ID000046">
	<line fill="none" stroke="#000000" stroke-width="0.5" x1="124.941" y1="222.881" x2="124.941" y2="208.047"/>
</g>
<g id="ID000047">
	<line fill="none" stroke="#000000" stroke-width="0.5" x1="137.304" y1="222.881" x2="137.304" y2="208.047"/>
</g>
<g id="ID000048">
	<line fill="none" stroke="#000000" stroke-width="0.5" x1="149.666" y1="222.881" x2="149.666" y2="208.047"/>
</g>
<g id="ID000049">
	<line fill="none" stroke="#000000" stroke-width="0.5" x1="148.833" y1="222.852" x2="128.074" y2="162.923"/>
</g>
<g id="ID000050">
	<polygon fill="#FFFFFF" stroke="#000000" stroke-width="0.5" points="137.738,191.043 136.847,196.535 142.048,194.56 	"/>
</g>
<g id="ID000051">
	<line fill="none" stroke="#000000" stroke-width="0.5" x1="162.029" y1="222.881" x2="162.029" y2="208.047"/>
</g>
<g id="ID000052">
	<line fill="none" stroke="#000000" stroke-width="0.5" x1="178.754" y1="225.5" x2="216.388" y2="205.428"/>
</g>
<g id="ID000053">
	<polygon fill="#FFFFFF" stroke="#000000" stroke-width="0.5" points="200.405,213.951 194.845,213.766 197.463,218.674 	"/>
</g>
<g id="ID000054">
	<line fill="none" stroke="#000000" stroke-width="0.5" x1="174.392" y1="222.881" x2="174.392" y2="208.047"/>
</g>
<g id="ID000055">
	<polygon stroke="#000000" stroke-width="0.5" points="174.392,212.99 174.235,212.996 174.079,213.012 173.924,213.035 
		173.771,213.07 173.621,213.115 173.473,213.168 173.329,213.23 173.189,213.303 173.055,213.385 172.925,213.473 172.802,213.568 
		172.686,213.674 172.575,213.785 172.473,213.904 172.377,214.029 172.291,214.16 172.212,214.295 172.143,214.436 
		172.082,214.582 172.03,214.729 171.989,214.881 171.957,215.033 171.935,215.189 171.922,215.346 171.919,215.502 171.927,215.66 
		171.944,215.816 171.971,215.971 172.008,216.123 172.055,216.271 172.111,216.42 172.176,216.563 172.25,216.699 172.333,216.834 
		172.424,216.961 172.523,217.082 172.63,217.197 172.743,217.307 172.863,217.406 172.99,217.5 173.122,217.584 173.259,217.662 
		173.4,217.729 173.546,217.787 173.695,217.836 173.847,217.875 174.001,217.906 174.156,217.924 174.313,217.936 174.47,217.936 
		174.626,217.924 174.782,217.906 174.936,217.875 175.088,217.836 175.237,217.787 175.383,217.729 175.525,217.662 
		175.662,217.584 175.794,217.5 175.92,217.406 176.041,217.307 176.154,217.197 176.26,217.082 176.359,216.961 176.45,216.834 
		176.533,216.699 176.607,216.563 176.672,216.42 176.728,216.271 176.774,216.123 176.812,215.971 176.839,215.816 176.857,215.66 
		176.864,215.502 176.862,215.346 176.849,215.189 176.827,215.033 176.794,214.881 176.752,214.729 176.702,214.582 
		176.641,214.436 176.571,214.295 176.493,214.16 176.406,214.029 176.311,213.904 176.208,213.785 176.098,213.674 175.98,213.568 
		175.857,213.473 175.728,213.385 175.593,213.303 175.455,213.23 175.31,213.168 175.163,213.115 175.013,213.07 174.859,213.035 
		174.705,213.012 174.548,212.996 	"/>
</g>
<g id="ID000056">
	<line fill="none" stroke="#000000" stroke-width="0.5" x1="243.92" y1="204.791" x2="219.217" y2="213.773"/>
</g>
<g id="ID000057">
	<polygon fill="#FFFFFF" stroke="#000000" stroke-width="0.5" points="236.913,207.34 236.855,207.193 236.787,207.051 
		236.712,206.914 236.626,206.781 236.533,206.656 236.433,206.535 236.324,206.422 236.209,206.316 236.087,206.217 
		235.96,206.127 235.826,206.043 235.688,205.969 235.546,205.904 235.398,205.848 235.249,205.801 235.097,205.764 
		234.941,205.736 234.786,205.719 234.629,205.711 234.473,205.715 234.315,205.727 234.16,205.748 234.007,205.781 
		233.855,205.822 233.708,205.873 233.563,205.934 233.422,206.004 233.286,206.082 233.155,206.17 233.031,206.264 
		232.912,206.367 232.8,206.477 232.696,206.594 232.599,206.717 232.511,206.846 232.43,206.982 232.357,207.121 232.294,207.264 
		232.24,207.412 232.196,207.563 232.162,207.715 232.137,207.869 232.122,208.027 232.117,208.184 232.122,208.34 232.136,208.496 
		232.161,208.65 232.196,208.805 232.24,208.955 232.294,209.102 232.356,209.246 232.428,209.387 232.509,209.52 232.599,209.648 
		232.695,209.773 232.799,209.889 232.911,210 233.029,210.104 233.154,210.197 233.285,210.285 233.421,210.363 233.562,210.432 
		233.706,210.492 233.854,210.545 234.006,210.586 234.159,210.619 234.314,210.641 234.471,210.654 234.628,210.656 
		234.784,210.648 234.94,210.631 235.096,210.604 235.248,210.568 235.397,210.521 235.544,210.465 235.687,210.4 235.825,210.324 
		235.958,210.242 236.086,210.152 236.208,210.053 236.323,209.947 236.432,209.832 236.532,209.713 236.626,209.586 
		236.711,209.455 236.786,209.318 236.854,209.176 236.912,209.031 236.962,208.881 237.001,208.73 237.031,208.576 237.051,208.42 
		237.061,208.264 237.061,208.105 237.051,207.949 237.031,207.793 237.001,207.641 236.962,207.488 	"/>
</g>
<g id="ID000058">
	<polygon fill="#FFFFFF" stroke="#000000" stroke-width="0.5" points="227.068,213.549 231.716,211.859 230.026,207.213 
		225.379,208.902 	"/>
</g>
<g id="ID000059">
	<line fill="none" stroke="#000000" stroke-width="0.5" x1="189.845" y1="222.881" x2="189.845" y2="208.047"/>
</g>
<g id="ID000060">
	<polygon stroke="#000000" stroke-width="0.5" points="189.845,212.99 189.688,212.996 189.532,213.012 189.377,213.035 
		189.224,213.07 189.073,213.115 188.926,213.168 188.782,213.23 188.643,213.303 188.508,213.385 188.379,213.473 188.255,213.568 
		188.138,213.674 188.029,213.785 187.926,213.904 187.831,214.029 187.744,214.16 187.666,214.295 187.595,214.436 
		187.535,214.582 187.484,214.729 187.442,214.881 187.41,215.033 187.387,215.189 187.375,215.346 187.373,215.502 187.38,215.66 
		187.398,215.816 187.425,215.971 187.461,216.123 187.508,216.271 187.564,216.42 187.63,216.563 187.703,216.699 187.786,216.834 
		187.877,216.961 187.976,217.082 188.083,217.197 188.196,217.307 188.316,217.406 188.443,217.5 188.575,217.584 188.712,217.662 
		188.854,217.729 188.999,217.787 189.148,217.836 189.3,217.875 189.455,217.906 189.61,217.924 189.766,217.936 189.923,217.936 
		190.08,217.924 190.236,217.906 190.39,217.875 190.541,217.836 190.69,217.787 190.836,217.729 190.978,217.662 191.115,217.584 
		191.247,217.5 191.373,217.406 191.493,217.307 191.607,217.197 191.713,217.082 191.812,216.961 191.903,216.834 191.986,216.699 
		192.061,216.563 192.125,216.42 192.181,216.271 192.228,216.123 192.265,215.971 192.292,215.816 192.31,215.66 192.317,215.502 
		192.314,215.346 192.302,215.189 192.28,215.033 192.248,214.881 192.206,214.729 192.154,214.582 192.094,214.436 
		192.024,214.295 191.946,214.16 191.859,214.029 191.764,213.904 191.661,213.785 191.551,213.674 191.435,213.568 
		191.311,213.473 191.182,213.385 191.047,213.303 190.907,213.23 190.764,213.168 190.616,213.115 190.466,213.07 190.313,213.035 
		190.158,213.012 190.001,212.996 	"/>
</g>
<g id="ID000062">
	<g transform="translate(465.517,404.330)">
		<g transform="rotate(-0.0)">
			<text transform="matrix(1 0 0 1 -280.1718 -170.9394)" fill="#09FEFE" font-family="'ArialMT'" font-size="12.4644">U</text>
		</g>
	</g>
</g>
<g id="ID000063">
	<line fill="none" stroke="#000000" stroke-width="0.5" x1="189.845" y1="234.068" x2="189.845" y2="242.311"/>
</g>
<g id="ID000064">
	<g transform="translate(465.517,459.585)">
		<g transform="rotate(-0.0)">
			<text transform="matrix(1 0 0 1 -282.6039 -208.6875)" font-family="'ArialMT'" font-size="10">20</text>
		</g>
	</g>
</g>
<g id="ID000065">
	<g transform="translate(619.499,404.330)">
		<g transform="rotate(-0.0)">
			<text transform="matrix(1 0 0 1 -363.417 -170.9394)" fill="#FFDF5C" font-family="'ArialMT'" font-size="12.4644">G</text>
		</g>
	</g>
</g>
<g id="ID000066">
	<g transform="translate(646.279,404.330)">
		<g transform="rotate(-0.0)">
			<text transform="matrix(1 0 0 1 -377.486 -170.9394)" fill="#FFDF5C" font-family="'ArialMT'" font-size="12.4644">C</text>
		</g>
	</g>
</g>
<g id="ID000067">
	<g transform="translate(673.058,404.330)">
		<g transform="rotate(-0.0)">
			<text transform="matrix(1 0 0 1 -391.9037 -170.9394)" fill="#FFDF5C" font-family="'ArialMT'" font-size="12.4644">C</text>
		</g>
	</g>
</g>
<g id="ID000068">
	<g transform="translate(733.312,404.330)">
		<g transform="rotate(-0.0)">
			<text transform="matrix(1 0 0 1 -424.3413 -170.9394)" fill="#FFDF5C" font-family="'ArialMT'" font-size="12.4644">C</text>
		</g>
	</g>
</g>
<g id="ID000069">
	<g transform="translate(673.058,350.771)">
		<g transform="rotate(-0.0)">
			<text transform="matrix(1 0 0 1 -392.2494 -142.1069)" fill="#FFDF5C" font-family="'ArialMT'" font-size="12.4644">G</text>
		</g>
	</g>
</g>
<g id="ID000070">
	<g transform="translate(646.279,350.771)">
		<g transform="rotate(-0.0)">
			<text transform="matrix(1 0 0 1 -377.8337 -142.1069)" fill="#FFDF5C" font-family="'ArialMT'" font-size="12.4644">G</text>
		</g>
	</g>
</g>
<g id="ID000071">
	<g transform="translate(619.499,350.771)">
		<g transform="rotate(-0.0)">
			<text transform="matrix(1 0 0 1 -363.0693 -142.1069)" fill="#FFDF5C" font-family="'ArialMT'" font-size="12.4644">C</text>
		</g>
	</g>
</g>
<g id="ID000072">
	<g transform="translate(592.720,350.771)">
		<g transform="rotate(-0.0)">
			<text transform="matrix(1 0 0 1 -348.6536 -142.1069)" fill="#FF870A" font-family="'ArialMT'" font-size="12.4644">U</text>
		</g>
	</g>
</g>
<g id="ID000073">
	<g transform="translate(579.330,317.296)">
		<g transform="rotate(-0.0)">
			<text transform="matrix(1 0 0 1 -341.791 -124.0851)" fill="#FF870A" font-family="'ArialMT'" font-size="12.4644">G</text>
		</g>
	</g>
</g>
<g id="ID000074">
	<line fill="none" stroke="#000000" stroke-width="0.5" x1="242.386" y1="182.789" x2="238.265" y2="175.652"/>
</g>
<g id="ID000075">
	<g transform="translate(579.330,262.845)">
		<g transform="rotate(-0.0)">
			<text transform="matrix(1 0 0 1 -352.912 -86.573)" font-family="'ArialMT'" font-size="10">40</text>
		</g>
	</g>
</g>
<g id="ID000076">
	<g transform="translate(545.856,317.296)">
		<g transform="rotate(-0.0)">
			<text transform="matrix(1 0 0 1 -323.0787 -124.0851)" fill="#FF870A" font-family="'ArialMT'" font-size="12.4644">A</text>
		</g>
	</g>
</g>
<g id="ID000077">
	<g transform="translate(532.466,350.771)">
		<g transform="rotate(-0.0)">
			<text transform="matrix(1 0 0 1 -316.5617 -142.1069)" fill="#FF870A" font-family="'ArialMT'" font-size="12.4644">G</text>
		</g>
	</g>
</g>
<g id="ID000078">
	<line fill="none" stroke="#000000" x1="194.79" y1="227.826" x2="255.985" y2="227.826"/>
</g>
<g id="ID000079">
	<polygon stroke="#000000" stroke-width="0.5" points="221.267,224.117 223.327,225.973 225.387,226.59 227.448,226.898 
		231.569,227.826 227.448,228.754 225.387,229.063 223.327,229.68 221.267,231.535 	"/>
</g>
<g id="ID000080">
	<line fill="none" stroke="#000000" stroke-width="0.5" x1="260.93" y1="222.881" x2="260.93" y2="208.047"/>
</g>
<g>
	<g id="ID000081">
		<line fill="none" stroke="#000000" stroke-width="0.5" x1="263.718" y1="222.943" x2="277.596" y2="136.898"/>
	</g>
	<g id="ID000082">
		<polygon stroke="#000000" stroke-width="0.5" points="269.633,186.265 273.146,181.952 267.654,181.066 		"/>
	</g>
	<g id="ID000083">
		<polygon stroke="#000000" stroke-width="0.5" points="271.563,174.307 271.406,174.287 271.249,174.277 271.093,174.277 
			270.938,174.286 270.781,174.306 270.627,174.335 270.475,174.375 270.325,174.423 270.18,174.481 270.038,174.549 
			269.901,174.625 269.769,174.709 269.643,174.802 269.522,174.903 269.408,175.011 269.302,175.126 269.202,175.248 
			269.111,175.375 269.028,175.509 268.954,175.647 268.889,175.79 268.833,175.936 268.786,176.086 268.749,176.239 
			268.722,176.393 268.704,176.548 268.696,176.706 268.698,176.863 268.711,177.018 268.732,177.174 268.765,177.329 
			268.807,177.479 268.857,177.627 268.919,177.772 268.987,177.913 269.065,178.048 269.152,178.179 269.247,178.304 
			269.35,178.422 269.46,178.535 269.576,178.64 269.699,178.737 269.829,178.826 269.964,178.907 270.104,178.979 270.246,179.042 
			270.395,179.096 270.545,179.14 270.697,179.175 270.853,179.201 271.009,179.215 271.166,179.22 271.322,179.215 
			271.478,179.201 271.633,179.176 271.787,179.141 271.938,179.098 272.085,179.044 272.228,178.981 272.368,178.91 
			272.502,178.83 272.631,178.741 272.756,178.644 272.871,178.54 272.983,178.427 273.086,178.31 273.181,178.185 273.268,178.054 
			273.347,177.918 273.415,177.778 273.477,177.633 273.529,177.485 273.571,177.333 273.604,177.18 273.625,177.025 
			273.639,176.869 273.641,176.711 273.633,176.555 273.615,176.399 273.59,176.245 273.553,176.092 273.507,175.942 
			273.449,175.795 273.385,175.653 273.313,175.514 273.229,175.381 273.138,175.253 273.039,175.13 272.933,175.015 
			272.82,174.907 272.7,174.806 272.574,174.713 272.44,174.628 272.305,174.551 272.162,174.484 272.016,174.425 271.867,174.376 
			271.716,174.336 		"/>
	</g>
</g>
<g id="ID000084">
	<line fill="none" stroke="#000000" stroke-width="0.5" x1="273.292" y1="222.881" x2="273.292" y2="208.047"/>
</g>
<g id="ID000085">
	<line fill="none" stroke="#000000" stroke-width="0.5" x1="290.601" y1="227.826" x2="308.526" y2="227.826"/>
</g>
<g id="ID000086">
	<polygon stroke="#000000" stroke-width="0.5" points="293.137,227.826 297.954,230.607 297.954,225.045 	"/>
</g>
<g id="ID000087">
	<polygon stroke="#000000" stroke-width="0.5" points="305.25,225.354 300.305,225.354 300.305,230.299 305.25,230.299 	"/>
</g>
<g id="ID000088">
	<line fill="none" stroke="#000000" stroke-width="0.5" x1="285.656" y1="222.881" x2="285.656" y2="208.047"/>
</g>
<g id="ID000089">
	<line fill="none" stroke="#000000" stroke-width="0.5" x1="309.259" y1="225.234" x2="277.504" y2="205.693"/>
</g>
<g id="ID000090">
	<polygon fill="#FFFFFF" stroke="#000000" stroke-width="0.5" points="299.521,216.338 295.31,213.746 292.718,217.959 
		296.93,220.551 	"/>
</g>
<g id="ID000091">
	<polygon fill="#FFFFFF" stroke="#000000" stroke-width="0.5" points="287.908,212.096 290.555,216.99 293.47,212.252 	"/>
</g>
<g id="ID000092">
	<line fill="none" stroke="#000000" x1="320.889" y1="203.102" x2="290.601" y2="203.102"/>
</g>
<g id="ID000093">
	<polygon stroke="#000000" stroke-width="0.5" points="309.865,206.811 307.806,204.955 305.745,204.338 303.684,204.027 
		299.562,203.102 303.684,202.174 305.745,201.865 307.806,201.246 309.865,199.392 	"/>
</g>
<g id="ID000094">
	<line fill="none" stroke="#000000" stroke-width="0.5" x1="274.938" y1="198.438" x2="290.191" y2="155.223"/>
</g>
<g id="ID000095">
	<polygon fill="#FFFFFF" stroke="#000000" stroke-width="0.5" points="280.426,182.891 284.651,179.273 279.407,177.421 	"/>
</g>
<g id="ID000096">
	<polygon fill="#FFFFFF" stroke="#000000" stroke-width="0.5" points="284.457,171.468 284.309,171.42 284.156,171.382 
		284.001,171.354 283.845,171.335 283.688,171.328 283.533,171.329 283.375,171.34 283.22,171.363 283.066,171.393 282.915,171.434 
		282.766,171.485 282.62,171.544 282.479,171.613 282.344,171.691 282.212,171.777 282.088,171.871 281.968,171.973 
		281.856,172.082 281.75,172.199 281.653,172.322 281.563,172.451 281.481,172.584 281.408,172.723 281.344,172.867 
		281.289,173.013 281.245,173.165 281.209,173.317 281.184,173.471 281.168,173.627 281.161,173.785 281.166,173.941 
		281.181,174.098 281.204,174.252 281.238,174.406 281.281,174.557 281.332,174.705 281.396,174.849 281.467,174.989 
		281.547,175.124 281.635,175.253 281.73,175.376 281.835,175.495 281.944,175.606 282.063,175.708 282.188,175.804 
		282.316,175.892 282.454,175.972 282.595,176.042 282.737,176.104 282.886,176.156 283.036,176.199 283.189,176.232 
		283.346,176.255 283.501,176.269 283.658,176.272 283.816,176.265 283.971,176.25 284.125,176.223 284.278,176.187 
		284.429,176.141 284.576,176.085 284.719,176.021 284.857,175.949 284.992,175.866 285.119,175.776 285.241,175.678 
		285.358,175.572 285.467,175.459 285.568,175.339 285.662,175.214 285.747,175.083 285.824,174.946 285.894,174.804 
		285.952,174.66 286.002,174.51 286.042,174.359 286.073,174.206 286.094,174.049 286.105,173.893 286.105,173.736 286.097,173.58 
		286.078,173.424 286.049,173.269 286.011,173.117 285.962,172.967 285.905,172.822 285.839,172.68 285.764,172.542 285.679,172.41 
		285.587,172.283 285.487,172.162 285.378,172.047 285.264,171.94 285.144,171.841 285.017,171.75 284.884,171.666 284.746,171.59 
		284.603,171.525 	"/>
</g>
<g id="ID000098">
	<g transform="translate(760.092,404.330)">
		<g transform="rotate(-0.0)">
			<text transform="matrix(1 0 0 1 -438.759 -170.9394)" fill="#FFDF5C" font-family="'ArialMT'" font-size="12.4644">U</text>
		</g>
	</g>
</g>
<g id="ID000099">
	<g transform="translate(786.871,404.330)">
		<g transform="rotate(-0.0)">
			<text transform="matrix(1 0 0 1 -453.1757 -170.9394)" fill="#FFDF5C" font-family="'ArialMT'" font-size="12.4644">U</text>
		</g>
	</g>
</g>
<g id="ID000100">
	<g transform="translate(813.651,404.330)">
		<g transform="rotate(-0.0)">
			<text transform="matrix(1 0 0 1 -467.5924 -170.9394)" fill="#FFDF5C" font-family="'ArialMT'" font-size="12.4644">C</text>
		</g>
	</g>
</g>
<g id="ID000101">
	<g transform="translate(840.430,404.330)">
		<g transform="rotate(-0.0)">
			<text transform="matrix(1 0 0 1 -482.0101 -170.9394)" fill="#FFDF5C" font-family="'ArialMT'" font-size="12.4644">U</text>
		</g>
	</g>
</g>
<g id="ID000102">
	<g transform="translate(867.210,404.330)">
		<g transform="rotate(-0.0)">
			<text transform="matrix(1 0 0 1 -496.7725 -170.9394)" fill="#FFDF5C" font-family="'ArialMT'" font-size="12.4644">G</text>
		</g>
	</g>
</g>
<g id="ID000103">
	<g transform="translate(887.294,377.550)">
		<g transform="rotate(-0.0)">
			<text transform="matrix(1 0 0 1 -507.2393 -156.5236)" fill="#FFDF5C" font-family="'ArialMT'" font-size="12.4644">C</text>
		</g>
	</g>
</g>
<g id="ID000104">
	<line fill="none" stroke="#000000" stroke-width="0.5" x1="387.125" y1="221.901" x2="388.438" y2="230.143"/>
</g>
<g id="ID000105">
	<g transform="translate(887.294,432.805)">
		<g transform="rotate(-0.0)">
			<text transform="matrix(1 0 0 1 -502.7393 -194.053)" font-family="'ArialMT'" font-size="10">30</text>
		</g>
	</g>
</g>
<g id="ID000106">
	<g transform="translate(867.210,350.771)">
		<g transform="rotate(-0.0)">
			<text transform="matrix(1 0 0 1 -496.7725 -142.1069)" fill="#FFDF5C" font-family="'ArialMT'" font-size="12.4644">G</text>
		</g>
	</g>
</g>
<g id="ID000107">
	<g transform="translate(840.430,350.771)">
		<g transform="rotate(-0.0)">
			<text transform="matrix(1 0 0 1 -482.0101 -142.1069)" fill="#FFDF5C" font-family="'ArialMT'" font-size="12.4644">U</text>
		</g>
	</g>
</g>
<g id="ID000108">
	<g transform="translate(813.651,350.771)">
		<g transform="rotate(-0.0)">
			<text transform="matrix(1 0 0 1 -467.9381 -142.1069)" fill="#FFDF5C" font-family="'ArialMT'" font-size="12.4644">G</text>
		</g>
	</g>
</g>
<g id="ID000109">
	<g transform="translate(786.871,350.771)">
		<g transform="rotate(-0.0)">
			<text transform="matrix(1 0 0 1 -452.8319 -142.1069)" fill="#FFDF5C" font-family="'ArialMT'" font-size="12.4644">A</text>
		</g>
	</g>
</g>
<g id="ID000110">
	<g transform="translate(760.092,350.771)">
		<g transform="rotate(-0.0)">
			<text transform="matrix(1 0 0 1 -438.4142 -142.1069)" fill="#FFDF5C" font-family="'ArialMT'" font-size="12.4644">A</text>
		</g>
	</g>
</g>
<g id="ID000111">
	<line fill="none" stroke="#000000" stroke-width="0.5" x1="325.835" y1="222.881" x2="325.835" y2="208.047"/>
</g>
<g id="ID000112">
	<line fill="none" stroke="#000000" stroke-width="0.5" x1="338.195" y1="222.881" x2="338.195" y2="208.047"/>
</g>
<g id="ID000113">
	<line fill="none" stroke="#000000" stroke-width="0.5" x1="350.56" y1="222.881" x2="350.56" y2="208.047"/>
</g>
<g id="ID000114">
	<line fill="none" stroke="#000000" stroke-width="0.5" x1="362.92" y1="222.881" x2="362.92" y2="208.047"/>
</g>
<g id="ID000115">
	<polygon fill="#FFFFFF" stroke="#000000" stroke-width="0.5" points="362.92,212.99 362.766,212.996 362.608,213.012 
		362.454,213.035 362.3,213.07 362.15,213.115 362.002,213.168 361.858,213.23 361.719,213.303 361.584,213.385 361.455,213.473 
		361.332,213.568 361.215,213.674 361.106,213.785 361.003,213.904 360.907,214.029 360.82,214.16 360.743,214.295 360.671,214.436 
		360.611,214.582 360.56,214.729 360.519,214.881 360.486,215.033 360.464,215.189 360.451,215.346 360.449,215.502 360.457,215.66 
		360.474,215.816 360.501,215.971 360.538,216.123 360.586,216.271 360.64,216.42 360.706,216.563 360.78,216.699 360.863,216.834 
		360.955,216.961 361.054,217.082 361.159,217.197 361.272,217.307 361.393,217.406 361.519,217.5 361.651,217.584 361.789,217.662 
		361.931,217.729 362.076,217.787 362.225,217.836 362.377,217.875 362.531,217.906 362.686,217.924 362.843,217.936 363,217.936 
		363.156,217.924 363.313,217.906 363.467,217.875 363.618,217.836 363.768,217.787 363.913,217.729 364.054,217.662 
		364.19,217.584 364.322,217.5 364.449,217.406 364.57,217.307 364.683,217.197 364.79,217.082 364.889,216.961 364.98,216.834 
		365.063,216.699 365.137,216.563 365.201,216.42 365.258,216.271 365.304,216.123 365.341,215.971 365.369,215.816 365.387,215.66 
		365.393,215.502 365.391,215.346 365.378,215.189 365.356,215.033 365.324,214.881 365.282,214.729 365.23,214.582 
		365.171,214.436 365.101,214.295 365.021,214.16 364.935,214.029 364.84,213.904 364.737,213.785 364.629,213.674 364.512,213.568 
		364.389,213.473 364.258,213.385 364.123,213.303 363.984,213.23 363.84,213.168 363.693,213.115 363.541,213.07 363.39,213.035 
		363.235,213.012 363.078,212.996 	"/>
</g>
<g id="ID000117">
	<g transform="translate(298.145,250.347)">
		<g transform="rotate(-0.0)">
			<text transform="matrix(1 0 0 1 -190.0659 -88.0418)" fill="#C2C2FF" font-family="'ArialMT'" font-size="12.4644">C</text>
		</g>
	</g>
</g>
<g id="ID000118">
	<g transform="translate(324.925,250.347)">
		<g transform="rotate(-0.0)">
			<text transform="matrix(1 0 0 1 -204.1408 -88.0418)" fill="#80DB9E" font-family="'ArialMT'" font-size="12.4644">A</text>
		</g>
	</g>
</g>
<g id="ID000119">
	<g transform="translate(351.704,250.347)">
		<g transform="rotate(-0.0)">
			<text transform="matrix(1 0 0 1 -218.9013 -88.0418)" fill="#80DB9E" font-family="'ArialMT'" font-size="12.4644">C</text>
		</g>
	</g>
</g>
<g id="ID000120">
	<g transform="translate(378.484,250.347)">
		<g transform="rotate(-0.0)">
			<text transform="matrix(1 0 0 1 -233.3195 -88.0418)" fill="#80DB9E" font-family="'ArialMT'" font-size="12.4644">C</text>
		</g>
	</g>
</g>
<g id="ID000121">
	<g transform="translate(405.263,250.347)">
		<g transform="rotate(-0.0)">
			<text transform="matrix(1 0 0 1 -247.7347 -88.0418)" fill="#80DB9E" font-family="'ArialMT'" font-size="12.4644">U</text>
		</g>
	</g>
</g>
<g id="ID000122">
	<g transform="translate(432.043,250.347)">
		<g transform="rotate(-0.0)">
			<text transform="matrix(1 0 0 1 -262.4981 -88.0418)" fill="#80DB9E" font-family="'ArialMT'" font-size="12.4644">G</text>
		</g>
	</g>
</g>
<g id="ID000123">
	<line fill="none" stroke="#000000" stroke-width="0.5" x1="174.392" y1="162.983" x2="174.392" y2="171.225"/>
</g>
<g id="ID000124">
	<g transform="translate(432.043,305.602)">
		<g transform="rotate(-0.0)">
			<text transform="matrix(1 0 0 1 -264.583 -125.789)" font-family="'ArialMT'" font-size="10">60</text>
		</g>
	</g>
</g>
<g id="ID000125">
	<g transform="translate(458.822,250.347)">
		<g transform="rotate(-0.0)">
			<text transform="matrix(1 0 0 1 -276.2243 -88.0418)" fill="#80DB9E" font-family="'ArialMT'" font-size="12.4644">A</text>
		</g>
	</g>
</g>
<g id="ID000126">
	<g transform="translate(458.822,196.788)">
		<g transform="rotate(-0.0)">
			<text transform="matrix(1 0 0 1 -276.9153 -59.2089)" fill="#80DB9E" font-family="'ArialMT'" font-size="12.4644">G</text>
		</g>
	</g>
</g>
<g id="ID000127">
	<g transform="translate(432.043,196.788)">
		<g transform="rotate(-0.0)">
			<text transform="matrix(1 0 0 1 -262.1519 -59.2089)" fill="#80DB9E" font-family="'ArialMT'" font-size="12.4644">U</text>
		</g>
	</g>
</g>
<g id="ID000128">
	<g transform="translate(405.263,196.788)">
		<g transform="rotate(-0.0)">
			<text transform="matrix(1 0 0 1 -247.3904 -59.2089)" fill="#80DB9E" font-family="'ArialMT'" font-size="12.4644">A</text>
		</g>
	</g>
</g>
<g id="ID000129">
	<line fill="none" stroke="#000000" stroke-width="0.5" x1="162.029" y1="127.774" x2="162.029" y2="119.533"/>
</g>
<g id="ID000130">
	<g transform="translate(405.263,142.337)">
		<g transform="rotate(-0.0)">
			<text transform="matrix(1 0 0 1 -250.1658 -23.8951)" font-family="'ArialMT'" font-size="10">80</text>
		</g>
	</g>
</g>
<g id="ID000131">
	<g transform="translate(378.484,196.788)">
		<g transform="rotate(-0.0)">
			<text transform="matrix(1 0 0 1 -233.6652 -59.2089)" fill="#80DB9E" font-family="'ArialMT'" font-size="12.4644">G</text>
		</g>
	</g>
</g>
<g id="ID000132">
	<g transform="translate(351.704,196.788)">
		<g transform="rotate(-0.0)">
			<text transform="matrix(1 0 0 1 -219.248 -59.2089)" fill="#80DB9E" font-family="'ArialMT'" font-size="12.4644">G</text>
		</g>
	</g>
</g>
<g id="ID000133">
	<g transform="translate(324.925,196.788)">
		<g transform="rotate(-0.0)">
			<text transform="matrix(1 0 0 1 -204.8307 -59.2089)" fill="#80DB9E" font-family="'ArialMT'" font-size="12.4644">G</text>
		</g>
	</g>
</g>
<g id="ID000134">
	<line fill="none" stroke="#000000" stroke-width="0.5" x1="124.941" y1="151.796" x2="124.941" y2="136.96"/>
</g>
<g id="ID000135">
	<polygon fill="#FFFFFF" stroke="#000000" stroke-width="0.5" points="127.414,150.065 127.414,145.121 122.469,145.121 
		122.469,150.065 	"/>
</g>
<g id="ID000136">
	<polygon fill="#FFFFFF" stroke="#000000" stroke-width="0.5" points="124.941,137.953 122.16,142.771 127.723,142.771 	"/>
</g>
<g id="ID000137">
	<line fill="none" stroke="#000000" stroke-width="0.5" x1="137.304" y1="151.796" x2="137.304" y2="136.96"/>
</g>
<g id="ID000138">
	<line fill="none" stroke="#000000" stroke-width="0.5" x1="149.666" y1="151.796" x2="149.666" y2="136.96"/>
</g>
<g id="ID000139">
	<line fill="none" stroke="#000000" stroke-width="0.5" x1="162.029" y1="151.796" x2="162.029" y2="136.96"/>
</g>
<g id="ID000140">
	<line fill="none" stroke="#000000" stroke-width="0.5" x1="176.603" y1="152.319" x2="184.543" y2="136.439"/>
</g>
<g id="ID000141">
	<polygon stroke="#000000" stroke-width="0.5" points="178.029,149.464 178.172,149.53 178.318,149.587 178.468,149.634 
		178.62,149.672 178.775,149.699 178.931,149.718 179.088,149.726 179.245,149.724 179.401,149.712 179.557,149.69 179.709,149.659 
		179.861,149.618 180.01,149.566 180.154,149.506 180.295,149.438 180.431,149.359 180.562,149.272 180.688,149.178 
		180.807,149.076 180.919,148.966 181.023,148.85 181.121,148.727 181.211,148.598 181.292,148.463 181.364,148.324 
		181.428,148.181 181.481,148.033 181.526,147.883 181.562,147.73 181.587,147.575 181.602,147.419 181.608,147.263 
		181.604,147.105 181.589,146.949 181.565,146.794 181.531,146.641 181.487,146.49 181.434,146.343 181.372,146.199 181.3,146.059 
		181.22,145.924 181.131,145.794 181.035,145.67 180.931,145.553 180.82,145.443 180.701,145.34 180.577,145.245 180.446,145.158 
		180.311,145.078 180.171,145.008 180.026,144.947 179.877,144.895 179.727,144.853 179.573,144.82 179.418,144.797 
		179.262,144.784 179.105,144.781 178.948,144.788 178.792,144.805 178.637,144.832 178.485,144.868 178.335,144.915 
		178.188,144.969 178.045,145.035 177.907,145.108 177.773,145.19 177.645,145.281 177.523,145.379 177.407,145.485 
		177.299,145.599 177.197,145.718 177.104,145.844 177.019,145.976 176.942,146.113 176.874,146.254 176.814,146.399 
		176.765,146.549 176.726,146.701 176.695,146.854 176.675,147.01 176.665,147.166 176.664,147.324 176.673,147.48 176.692,147.635 
		176.722,147.789 176.76,147.942 176.809,148.091 176.867,148.237 176.934,148.379 177.01,148.516 177.094,148.648 177.187,148.775 
		177.288,148.896 177.395,149.01 177.51,149.116 177.631,149.216 177.759,149.307 177.891,149.391 	"/>
</g>
<g id="ID000142">
	<polygon stroke="#000000" stroke-width="0.5" points="180.905,138.187 178.693,142.609 183.117,144.821 185.328,140.398 	"/>
</g>
<g id="ID000144">
	<g transform="translate(485.602,250.347)">
		<g transform="rotate(-0.0)">
			<text transform="matrix(1 0 0 1 -290.9858 -88.0418)" fill="#80DB9E" font-family="'ArialMT'" font-size="12.4644">U</text>
		</g>
	</g>
</g>
<g id="ID000145">
	<g transform="translate(512.381,250.347)">
		<g transform="rotate(-0.0)">
			<text transform="matrix(1 0 0 1 -305.4015 -88.0418)" fill="#80DB9E" font-family="'ArialMT'" font-size="12.4644">C</text>
		</g>
	</g>
</g>
<g id="ID000146">
	<g transform="translate(539.161,250.347)">
		<g transform="rotate(-0.0)">
			<text transform="matrix(1 0 0 1 -319.8192 -88.0418)" fill="#80DB9E" font-family="'ArialMT'" font-size="12.4644">U</text>
		</g>
	</g>
</g>
<g id="ID000147">
	<g transform="translate(565.940,250.347)">
		<g transform="rotate(-0.0)">
			<text transform="matrix(1 0 0 1 -334.5826 -88.0418)" fill="#80DB9E" font-family="'ArialMT'" font-size="12.4644">G</text>
		</g>
	</g>
</g>
<g id="ID000148">
	<g transform="translate(592.720,250.347)">
		<g transform="rotate(-0.0)">
			<text transform="matrix(1 0 0 1 -348.9993 -88.0418)" fill="#80DB9E" font-family="'ArialMT'" font-size="12.4644">G</text>
		</g>
	</g>
</g>
<g id="ID000149">
	<g transform="translate(626.194,250.347)">
		<g transform="rotate(-0.0)">
			<text transform="matrix(1 0 0 1 -366.3307 -88.0418)" fill="#0A0BFF" font-family="'ArialMT'" font-size="12.4644">A</text>
		</g>
	</g>
</g>
<g id="ID000150">
	<g transform="translate(659.669,250.347)">
		<g transform="rotate(-0.0)">
			<text transform="matrix(1 0 0 1 -384.6964 -88.0418)" fill="#0A0BFF" font-family="'ArialMT'" font-size="12.4644">U</text>
		</g>
	</g>
</g>
<g id="ID000151">
	<g transform="translate(686.448,236.958)">
		<g transform="rotate(-0.0)">
			<text transform="matrix(1 0 0 1 -398.7683 -80.8349)" fill="#0A0BFF" font-family="'ArialMT'" font-size="12.4644">A</text>
		</g>
	</g>
</g>
<g id="ID000152">
	<g transform="translate(679.753,203.483)">
		<g transform="rotate(-0.0)">
			<text transform="matrix(1 0 0 1 -395.1631 -62.8131)" fill="#0A0BFF" font-family="'ArialMT'" font-size="12.4644">A</text>
		</g>
	</g>
</g>
<g id="ID000153">
	<line fill="none" stroke="#000000" stroke-width="0.5" x1="288.746" y1="130.864" x2="288.746" y2="122.623"/>
</g>
<g id="ID000154">
	<g transform="translate(679.753,149.032)">
		<g transform="rotate(-0.0)">
			<text transform="matrix(1 0 0 1 -397.9385 -29.4988)" font-family="'ArialMT'" font-size="10">70</text>
		</g>
	</g>
</g>
<g id="ID000155">
	<g transform="translate(652.974,196.788)">
		<g transform="rotate(-0.0)">
			<text transform="matrix(1 0 0 1 -381.0912 -59.2089)" fill="#0A0BFF" font-family="'ArialMT'" font-size="12.4644">U</text>
		</g>
	</g>
</g>
<g id="ID000156">
	<g transform="translate(619.499,196.788)">
		<g transform="rotate(-0.0)">
			<text transform="matrix(1 0 0 1 -363.417 -59.2089)" fill="#80DB9E" font-family="'ArialMT'" font-size="12.4644">G</text>
		</g>
	</g>
</g>
<g id="ID000157">
	<g transform="translate(592.720,196.788)">
		<g transform="rotate(-0.0)">
			<text transform="matrix(1 0 0 1 -348.6536 -59.2089)" fill="#80DB9E" font-family="'ArialMT'" font-size="12.4644">C</text>
		</g>
	</g>
</g>
<g id="ID000158">
	<g transform="translate(565.940,196.788)">
		<g transform="rotate(-0.0)">
			<text transform="matrix(1 0 0 1 -334.2369 -59.2089)" fill="#80DB9E" font-family="'ArialMT'" font-size="12.4644">C</text>
		</g>
	</g>
</g>
<g id="ID000159">
	<g transform="translate(539.161,196.788)">
		<g transform="rotate(-0.0)">
			<text transform="matrix(1 0 0 1 -319.4755 -59.2089)" fill="#80DB9E" font-family="'ArialMT'" font-size="12.4644">A</text>
		</g>
	</g>
</g>
<g id="ID000160">
	<g transform="translate(512.381,196.788)">
		<g transform="rotate(-0.0)">
			<text transform="matrix(1 0 0 1 -305.7501 -59.2089)" fill="#80DB9E" font-family="'ArialMT'" font-size="12.4644">G</text>
		</g>
	</g>
</g>
<g id="ID000161">
	<g transform="translate(485.602,196.788)">
		<g transform="rotate(-0.0)">
			<text transform="matrix(1 0 0 1 -290.9858 -59.2089)" fill="#80DB9E" font-family="'ArialMT'" font-size="12.4644">C</text>
		</g>
	</g>
</g>
<g id="ID000162">
	<line fill="none" stroke="#000000" stroke-width="0.5" x1="211.479" y1="151.796" x2="211.479" y2="136.96"/>
</g>
<g id="ID000163">
	<line fill="none" stroke="#000000" stroke-width="0.5" x1="223.842" y1="151.796" x2="223.842" y2="136.96"/>
</g>
<g id="ID000164">
	<line fill="none" stroke="#000000" stroke-width="0.5" x1="236.204" y1="151.796" x2="236.204" y2="136.96"/>
</g>
<g id="ID000165">
	<line fill="none" stroke="#000000" stroke-width="0.5" x1="248.567" y1="151.796" x2="248.567" y2="136.96"/>
</g>
<text transform="matrix(1 0 0 1 123.8496 116.4419)" fill="#80DB9E" font-family="'ArialMT'" font-size="20">P4</text>
<text transform="matrix(1 0 0 1 211.0703 116.4419)" fill="#80DB9E" font-family="'ArialMT'" font-size="20">P5</text>
<text transform="matrix(1 0 0 1 46.043 258.6328)" fill="#FFAADC" font-family="'ArialMT'" font-size="20">P1 </text>
<text transform="matrix(1 0 0 1 158.7202 276.6484)" fill="#09FEFE" font-family="'ArialMT'" font-size="20">P2</text>
<text transform="matrix(1 0 0 1 327.6416 276.6484)" fill="#FFDF5C" font-family="'ArialMT'" font-size="20">P3</text>
<text transform="matrix(1 0 0 1 304.7139 152.8379)" fill="#0A0BFF" font-family="'ArialMT'" font-size="20">L5</text>
<text transform="matrix(1 0 0 1 370.4102 196.2549)" fill="#FFDF5C" font-family="'ArialMT'" font-size="20">L3</text>
<text transform="matrix(1 0 0 1 4.5 238.752)" font-family="'ArialMT'" font-size="10">5’</text>
<text transform="matrix(1 0 0 1 4.5 204.791)" font-family="'ArialMT'" font-size="10">3’</text>
<g>
	
		<rect x="205.301" y="190.075" transform="matrix(0.7215 -0.6924 0.6924 0.7215 -77.5276 198.2255)" fill="#C40018" width="4.689" height="10.821"/>
	<line fill="none" stroke="#C40018" stroke-miterlimit="10" x1="203.949" y1="191.535" x2="202.527" y2="186.864"/>
	
		<rect x="200.785" y="179.766" transform="matrix(0.9866 -0.1632 0.1632 0.9866 -27.2111 35.4503)" fill="#C40018" width="2.831" height="7.218"/>
	
		<text transform="matrix(0.9397 -0.342 0.342 0.9397 195.9966 176.1592)" fill="#C40018" font-family="'ArialMT'" font-size="8.0777">p</text>
	
		<text transform="matrix(0.9397 -0.342 0.342 0.9397 185.3306 173.2739)" fill="#C40018" font-family="'ArialMT'" font-size="8.0777">p</text>
	<line fill="none" stroke="#C40018" stroke-miterlimit="10" x1="198.763" y1="177.288" x2="201.971" y2="180.016"/>
	<line fill="none" stroke="#C40018" stroke-miterlimit="10" x1="190.246" y1="171.518" x2="194.236" y2="172.857"/>
</g>
<text transform="matrix(1 0 0 1 200.875 180.8169)" fill="#C40018" font-family="'ArialMT'" font-size="12">TPP</text>
</svg>
