<svg id="图层_1" data-name="图层 1" xmlns="http://www.w3.org/2000/svg" viewBox="0 0 400 400"><defs><style>.cls-1{fill:#d1e3c0;}.cls-2,.cls-20,.cls-23,.cls-30{fill:none;}.cls-11,.cls-12,.cls-13,.cls-2,.cls-20,.cls-23,.cls-3,.cls-30{stroke:#0a0000;}.cls-2{stroke-width:1.44px;}.cls-14,.cls-17,.cls-3,.cls-9{fill:#c6241e;}.cls-11,.cls-12,.cls-13,.cls-20,.cls-23,.cls-3{stroke-width:0.72px;}.cls-10,.cls-14,.cls-15,.cls-16,.cls-17,.cls-18,.cls-19,.cls-4,.cls-5,.cls-7,.cls-8,.cls-9{isolation:isolate;}.cls-4,.cls-6{font-size:20.83px;}.cls-11,.cls-16,.cls-19,.cls-33,.cls-34,.cls-4,.cls-6,.cls-8{fill:#0a0000;}.cls-10,.cls-14,.cls-15,.cls-16,.cls-17,.cls-18,.cls-19,.cls-34,.cls-4,.cls-5,.cls-6,.cls-7,.cls-8,.cls-9{font-family:ArialMT, Arial;}.cls-10,.cls-14,.cls-15,.cls-16,.cls-17,.cls-18,.cls-19,.cls-5,.cls-7,.cls-8,.cls-9{font-size:13.02px;}.cls-10,.cls-12,.cls-15,.cls-18,.cls-5,.cls-7{fill:#807b87;}.cls-16,.cls-5{letter-spacing:-0.02em;}.cls-10{letter-spacing:-0.02em;}.cls-13{fill:#fff;}.cls-14,.cls-15{letter-spacing:-0.06em;}.cls-17,.cls-18,.cls-19{letter-spacing:-0.06em;}.cls-21{fill:#0b0404;}.cls-22{fill:#221f20;}.cls-23,.cls-30{stroke-miterlimit:10;}.cls-24{fill:#c72d2c;}.cls-25{fill:#807c88;}.cls-26{fill:gray;}.cls-27{fill:#c12b2a;}.cls-28{fill:#0d0909;}.cls-29{fill:#eccbd2;}.cls-30{stroke-width:1.94px;}.cls-31{fill:#d1e2af;}.cls-32{fill:#cfd6e7;}.cls-34{font-size:20px;}.cls-35{letter-spacing:-0.02em;}</style></defs><path class="cls-1" d="M178.63,176.17H210v9.34H178.63Z"/><path class="cls-2" d="M191,180.84h6.74"/><path class="cls-1" d="M178.63,163H210v9.35H178.63Z"/><path class="cls-2" d="M191,167.72h6.74"/><path class="cls-1" d="M178.63,149.92H210v9.35H178.63Z"/><path class="cls-2" d="M191,154.6h6.74"/><path class="cls-1" d="M178.63,136.81H210v9.34H178.63Z"/><path class="cls-2" d="M191,141.48h6.74"/><path class="cls-1" d="M178.63,123.68H210V133H178.63Z"/><path class="cls-2" d="M191,128.36h6.74"/><path class="cls-1" d="M170.5,129.63h0L155.38,99.05l9.82-4.85,15.11,30.58Z"/><path class="cls-2" d="M169.34,114.94l-3-6"/><path class="cls-1" d="M158.73,135.44h0l-15.11-30.57,9.82-4.86,15.11,30.58Z"/><path class="cls-2" d="M157.58,120.75l-3-6"/><path class="cls-1" d="M147,141.26h0l-15.11-30.58,9.81-4.85,15.12,30.57Z"/><path class="cls-2" d="M145.82,126.57l-3-6"/><path class="cls-1" d="M135.21,147.07h0L120.1,116.5l9.81-4.86L145,142.22Z"/><path class="cls-2" d="M134.06,132.38l-3-6"/><path class="cls-2" d="M112.6,143l-3-6.05"/><path class="cls-2" d="M109.17,167.87l-4.51,5"/><path class="cls-1" d="M132.43,169.83h0l-23.39,26-8.14-7.33,23.39-26Z"/><path class="cls-2" d="M118.92,176.65l-4.51,5"/><path class="cls-1" d="M142.18,178.61h0l-23.39,26-8.14-7.33,23.39-26Z"/><path class="cls-2" d="M128.67,185.43l-4.51,5"/><path class="cls-1" d="M151.93,187.39h0l-23.39,26L120.4,206l23.39-26Z"/><path class="cls-2" d="M138.42,194.21l-4.51,5"/><path class="cls-1" d="M161.68,196.16h0l-23.39,26-8.14-7.33,23.39-26Z"/><path class="cls-2" d="M148.17,203l-4.51,5"/><path class="cls-1" d="M68,121.07h0l32-2.58.82,10.1-32,2.57Z"/><path class="cls-2" d="M81,125.1l6.73-.55"/><path class="cls-1" d="M66.94,108h0l32-2.58.81,10.1-32,2.58Z"/><path class="cls-2" d="M80,112l6.72-.54"/><path class="cls-1" d="M65.89,94.91h0l32-2.58.82,10.1L66.7,105Z"/><path class="cls-2" d="M78.92,98.94l6.73-.54"/><path class="cls-1" d="M64.83,81.84h0l32-2.59.81,10.1-32,2.58Z"/><path class="cls-2" d="M77.87,85.86l6.73-.54"/><path class="cls-2" d="M76.81,72.79l6.73-.55"/><path class="cls-2" d="M220.45,84.65,223,90.91"/><path class="cls-2" d="M232.62,79.75,235.14,86"/><path class="cls-2" d="M244.79,74.84l2.52,6.26"/><path class="cls-2" d="M257,69.94l2.53,6.26"/><path class="cls-1" d="M288.21,42.81h0l12.6,31.25-10.16,4.1L278.05,46.9Z"/><path class="cls-2" d="M288.17,57.35l2.53,6.26"/><path class="cls-1" d="M300.38,37.9h0L313,69.16l-10.16,4.09L290.22,42Z"/><path class="cls-2" d="M300.34,52.45l2.52,6.26"/><path class="cls-1" d="M312.55,33h0l12.6,31.25L315,68.34l-12.6-31.25Z"/><path class="cls-2" d="M312.51,47.54,315,53.8"/><path class="cls-2" d="M324.68,42.64l2.52,6.25"/><path class="cls-3" d="M126.38,190.12a4.44,4.44,0,1,1-4.44-4.44,4.44,4.44,0,0,1,4.44,4.44Z"/><path class="cls-3" d="M139.5,190.12a4.44,4.44,0,1,1-4.44-4.44A4.43,4.43,0,0,1,139.5,190.12Z"/><path class="cls-3" d="M152.62,190.12a4.44,4.44,0,1,1-4.44-4.44A4.43,4.43,0,0,1,152.62,190.12Z"/><path class="cls-3" d="M165.74,190.12a4.44,4.44,0,1,1-4.44-4.44A4.43,4.43,0,0,1,165.74,190.12Z"/><path class="cls-3" d="M178.86,190.12a4.44,4.44,0,1,1-4.44-4.44A4.43,4.43,0,0,1,178.86,190.12Z"/><path class="cls-3" d="M188.14,180.84a4.44,4.44,0,0,1-8.88,0h0a4.44,4.44,0,1,1,8.88,0Z"/><g id="text1002"><text class="cls-4" transform="translate(179.36 172.39)"><tspan xml:space="preserve">   </tspan></text><text class="cls-5" transform="translate(179.36 172.39)">Y</text><text class="cls-6" transform="translate(188.04 172.39)"> </text></g><path class="cls-3" d="M188.14,154.6a4.44,4.44,0,1,1-4.44-4.44A4.44,4.44,0,0,1,188.14,154.6Z"/><path class="cls-3" d="M188.14,141.48A4.44,4.44,0,1,1,183.7,137,4.44,4.44,0,0,1,188.14,141.48Z"/><path class="cls-3" d="M188.14,128.36a4.44,4.44,0,0,1-8.88,0h0a4.44,4.44,0,0,1,8.88,0Z"/><path class="cls-3" d="M177,121.43a4.44,4.44,0,1,1-4.43-4.43A4.44,4.44,0,0,1,177,121.43Z"/><g id="text1004"><text class="cls-4" transform="translate(155.73 131.92)"><tspan xml:space="preserve">   </tspan></text><text class="cls-7" transform="translate(155.73 131.92)">G</text><text class="cls-6" transform="translate(165.85 131.92)"> </text></g><g id="text1006"><text class="cls-4" transform="translate(143.97 137.74)"><tspan xml:space="preserve">   </tspan></text><text class="cls-8" transform="translate(143.97 137.74)">G</text><text class="cls-6" transform="translate(154.09 137.74)"> </text></g><g id="text1008"><text class="cls-4" transform="translate(132.2 143.55)"><tspan xml:space="preserve">   </tspan></text><text class="cls-8" transform="translate(132.2 143.55)">G</text><text class="cls-6" transform="translate(142.33 143.55)"> </text></g><g id="text1010"><text class="cls-4" transform="translate(123.86 153.67)"><tspan xml:space="preserve">   </tspan></text><text class="cls-9" transform="translate(123.86 153.67)">G</text><text class="cls-6" transform="translate(133.98 153.67)"> </text></g><path class="cls-3" d="M120.25,149.48a4.44,4.44,0,1,1-4.43-4.43A4.44,4.44,0,0,1,120.25,149.48Z"/><g id="text1012"><text class="cls-4" transform="translate(108.96 167.15)"><tspan xml:space="preserve">   </tspan></text><text class="cls-8" transform="translate(108.96 167.15)">G</text><text class="cls-6" transform="translate(119.08 167.15)"> </text></g><g id="text1014"><text class="cls-4" transform="translate(119.07 175.94)"><tspan xml:space="preserve">   </tspan></text><text class="cls-7" transform="translate(119.07 175.94)">C</text><text class="cls-6" transform="translate(128.47 175.94)"> </text></g><g id="text1016"><text class="cls-4" transform="translate(129.18 184.71)"><tspan xml:space="preserve">   </tspan></text><text class="cls-10" transform="translate(129.18 184.71)">Y</text><text class="cls-6" transform="translate(137.86 184.71)"> </text></g><path class="cls-3" d="M147.71,188.82a4.44,4.44,0,1,1-4.44-4.44A4.44,4.44,0,0,1,147.71,188.82Z"/><path class="cls-11" d="M157.46,197.6a4.44,4.44,0,1,1-4.44-4.44A4.44,4.44,0,0,1,157.46,197.6Z"/><path class="cls-12" d="M170.12,201.05a4.44,4.44,0,0,1-8.88,0h0a4.44,4.44,0,0,1,8.88,0Z"/><path class="cls-13" d="M176.29,212.63a4.44,4.44,0,1,1-4.44-4.43A4.44,4.44,0,0,1,176.29,212.63Z"/><path class="cls-13" d="M172.09,225.06a4.44,4.44,0,1,1-4.44-4.44A4.44,4.44,0,0,1,172.09,225.06Z"/><path class="cls-13" d="M160.17,230.54a4.44,4.44,0,1,1-4.44-4.44A4.43,4.43,0,0,1,160.17,230.54Z"/><path class="cls-12" d="M148,225.61a4.44,4.44,0,1,1-4.44-4.43A4.46,4.46,0,0,1,148,225.61Z"/><path class="cls-3" d="M143.25,213.38a4.44,4.44,0,1,1-4.44-4.43A4.44,4.44,0,0,1,143.25,213.38Z"/><path class="cls-3" d="M133.5,204.61a4.44,4.44,0,1,1-4.44-4.44A4.43,4.43,0,0,1,133.5,204.61Z"/><g id="text1018"><text class="cls-4" transform="translate(114.61 200.5)"><tspan xml:space="preserve">   </tspan></text><text class="cls-7" transform="translate(114.61 200.5)">R</text><text class="cls-6" transform="translate(124.01 200.5)"> </text></g><g id="text1020"><text class="cls-4" transform="translate(104.49 191.72)"><tspan xml:space="preserve">   </tspan></text><text class="cls-7" transform="translate(104.49 191.72)">G</text><text class="cls-6" transform="translate(114.62 191.72)"> </text></g><g id="text1022"><text class="cls-4" transform="translate(95.11 182.94)"><tspan xml:space="preserve">   </tspan></text><text class="cls-8" transform="translate(95.11 182.94)">C</text><text class="cls-6" transform="translate(104.51 182.94)"> </text></g><g id="text1024"><text class="cls-4" transform="translate(82.37 186.08)"><tspan xml:space="preserve">   </tspan></text><text class="cls-9" transform="translate(82.37 186.08)">U</text><text class="cls-6" transform="translate(91.77 186.08)"> </text></g><g id="text1026"><text class="cls-4" transform="translate(69.17 183.35)"><tspan xml:space="preserve">   </tspan></text><text class="cls-9" transform="translate(69.17 183.35)">G</text><text class="cls-6" transform="translate(79.3 183.35)"> </text></g><g id="text1028"><text class="cls-4" transform="translate(59.53 175.3)"><tspan xml:space="preserve">   </tspan></text><text class="cls-14" transform="translate(59.53 175.3)">A</text><text class="cls-6" transform="translate(68.22 175.3)"> </text></g><g id="text1030"><text class="cls-4" transform="translate(53 163.54)"><tspan xml:space="preserve">   </tspan></text><text class="cls-9" transform="translate(53 163.54)">G</text><text class="cls-6" transform="translate(63.12 163.54)"> </text></g><g id="text1032"><text class="cls-4" transform="translate(53.61 150.42)"><tspan xml:space="preserve">   </tspan></text><text class="cls-14" transform="translate(53.61 150.42)">A</text><text class="cls-6" transform="translate(62.29 150.42)"> </text></g><path class="cls-3" d="M68,133.9a4.44,4.44,0,1,1-4.44-4.44A4.43,4.43,0,0,1,68,133.9Z"/><path class="cls-12" d="M78.25,125.68a4.44,4.44,0,1,1-4.44-4.44A4.44,4.44,0,0,1,78.25,125.68Z"/><path class="cls-13" d="M77.19,112.6a4.44,4.44,0,1,1-4.44-4.44,4.43,4.43,0,0,1,4.44,4.44Z"/><path class="cls-13" d="M76.14,99.52a4.44,4.44,0,1,1-4.44-4.43A4.44,4.44,0,0,1,76.14,99.52Z"/><path class="cls-13" d="M75.08,86.45A4.44,4.44,0,1,1,70.65,82,4.43,4.43,0,0,1,75.08,86.45Z"/><path class="cls-13" d="M74,73.37a4.44,4.44,0,1,1-4.44-4.44A4.44,4.44,0,0,1,74,73.37Z"/><path class="cls-13" d="M81.28,62.43A4.44,4.44,0,1,1,76.84,58,4.44,4.44,0,0,1,81.28,62.43Z"/><path class="cls-13" d="M95.2,71.66a4.44,4.44,0,1,1-4.44-4.44A4.44,4.44,0,0,1,95.2,71.66Z"/><path class="cls-13" d="M96.26,84.74a4.44,4.44,0,1,1-4.44-4.44A4.44,4.44,0,0,1,96.26,84.74Z"/><path class="cls-13" d="M97.31,97.82a4.44,4.44,0,1,1-4.44-4.44A4.44,4.44,0,0,1,97.31,97.82Z"/><path class="cls-13" d="M98.37,110.89a4.44,4.44,0,1,1-4.44-4.43A4.44,4.44,0,0,1,98.37,110.89Z"/><path class="cls-13" d="M99.42,124A4.44,4.44,0,1,1,95,119.53,4.44,4.44,0,0,1,99.42,124Z"/><path class="cls-11" d="M110.84,130.44A4.44,4.44,0,1,1,106.4,126,4.45,4.45,0,0,1,110.84,130.44Z"/><g id="text1034"><text class="cls-4" transform="translate(101.25 122)"><tspan xml:space="preserve">   </tspan></text><text class="cls-7" transform="translate(101.25 122)">R</text><text class="cls-6" transform="translate(110.65 122)"> </text></g><g id="text1036"><text class="cls-4" transform="translate(113.37 116.19)"><tspan xml:space="preserve">   </tspan></text><text class="cls-15" transform="translate(113.37 116.19)">A</text><text class="cls-6" transform="translate(122.05 116.19)"> </text></g><g id="text1038"><text class="cls-4" transform="translate(123.15 124.51)"><tspan xml:space="preserve">   </tspan></text><text class="cls-8" transform="translate(123.15 124.51)">C</text><text class="cls-6" transform="translate(132.55 124.51)"> </text></g><g id="text1040"><text class="cls-4" transform="translate(134.92 118.69)"><tspan xml:space="preserve">   </tspan></text><text class="cls-8" transform="translate(134.92 118.69)">C</text><text class="cls-6" transform="translate(144.32 118.69)"> </text></g><g id="text1042"><text class="cls-4" transform="translate(146.68 112.88)"><tspan xml:space="preserve">   </tspan></text><text class="cls-7" transform="translate(146.68 112.88)">C</text><text class="cls-6" transform="translate(156.08 112.88)"> </text></g><path class="cls-3" d="M167.58,102.39A4.44,4.44,0,1,1,163.14,98,4.44,4.44,0,0,1,167.58,102.39Z"/><g id="text1044"><text class="cls-4" transform="translate(160.06 94)"><tspan xml:space="preserve">   </tspan></text><text class="cls-16" transform="translate(160.06 94)">Y</text><text class="cls-6" transform="translate(168.75 94)"> </text></g><path class="cls-3" d="M175.34,77.93a4.44,4.44,0,1,1-4.44-4.43A4.44,4.44,0,0,1,175.34,77.93Z"/><g id="text1046"><text class="cls-4" transform="translate(176.79 74.86)"><tspan xml:space="preserve">   </tspan></text><text class="cls-7" transform="translate(176.79 74.86)">R</text><text class="cls-6" transform="translate(186.19 74.86)"> </text></g><g id="text1048"><text class="cls-4" transform="translate(189.62 72.11)"><tspan xml:space="preserve">   </tspan></text><text class="cls-7" transform="translate(189.62 72.11)">R</text><text class="cls-6" transform="translate(199.02 72.11)"> </text></g><g id="text1050"><text class="cls-4" transform="translate(202.81 74.86)"><tspan xml:space="preserve">   </tspan></text><text class="cls-17" transform="translate(202.81 74.86)">A</text><text class="cls-6" transform="translate(211.49 74.86)"> </text></g><g id="text1052"><text class="cls-4" transform="translate(213.04 82.6)"><tspan xml:space="preserve">   </tspan></text><text class="cls-9" transform="translate(213.04 82.6)">C</text><text class="cls-6" transform="translate(222.44 82.6)"> </text></g><g id="text1054"><text class="cls-4" transform="translate(225.21 77.7)"><tspan xml:space="preserve">   </tspan></text><text class="cls-8" transform="translate(225.21 77.7)">C</text><text class="cls-6" transform="translate(234.61 77.7)"> </text></g><g id="text1056"><text class="cls-4" transform="translate(237.38 72.79)"><tspan xml:space="preserve">   </tspan></text><text class="cls-8" transform="translate(237.38 72.79)">U</text><text class="cls-6" transform="translate(246.78 72.79)"> </text></g><g id="text1058"><text class="cls-4" transform="translate(249.18 67.89)"><tspan xml:space="preserve">   </tspan></text><text class="cls-9" transform="translate(249.18 67.89)">G</text><text class="cls-6" transform="translate(259.31 67.89)"> </text></g><g id="text1060"><text class="cls-4" transform="translate(256.37 56.47)"><tspan xml:space="preserve">   </tspan></text><text class="cls-18" transform="translate(256.37 56.47)">A</text><text class="cls-6" transform="translate(265.06 56.47)"> </text></g><g id="text1062"><text class="cls-4" transform="translate(268.19 51.57)"><tspan xml:space="preserve">   </tspan></text><text class="cls-7" transform="translate(268.19 51.57)">U</text><text class="cls-6" transform="translate(277.58 51.57)"> </text></g><g id="text1064"><text class="cls-4" transform="translate(280.76 55.3)"><tspan xml:space="preserve">   </tspan></text><text class="cls-7" transform="translate(280.76 55.3)">C</text><text class="cls-6" transform="translate(290.16 55.3)"> </text></g><g id="text1066"><text class="cls-4" transform="translate(293.29 50.4)"><tspan xml:space="preserve">   </tspan></text><text class="cls-5" transform="translate(293.29 50.4)">Y</text><text class="cls-6" transform="translate(301.97 50.4)"> </text></g><g id="text1068"><text class="cls-4" transform="translate(305.1 45.49)"><tspan xml:space="preserve">   </tspan></text><text class="cls-8" transform="translate(305.1 45.49)">R</text><text class="cls-6" transform="translate(314.5 45.49)"> </text></g><g id="text1070"><text class="cls-4" transform="translate(316.9 40.59)"><tspan xml:space="preserve">   </tspan></text><text class="cls-9" transform="translate(316.9 40.59)">G</text><text class="cls-6" transform="translate(327.03 40.59)"> </text></g><path class="cls-3" d="M333.69,25a4.44,4.44,0,1,1-4.43-4.43A4.44,4.44,0,0,1,333.69,25Z"/><g id="text1072"><text class="cls-4" transform="translate(337.23 26.31)"><tspan xml:space="preserve">   </tspan></text><text class="cls-9" transform="translate(337.23 26.31)">U</text><text class="cls-6" transform="translate(346.63 26.31)"> </text></g><path class="cls-3" d="M358.1,27.51a4.44,4.44,0,1,1-4.43-4.43A4.42,4.42,0,0,1,358.1,27.51Z"/><g id="text1074"><text class="cls-4" transform="translate(354.23 44.36)"><tspan xml:space="preserve">   </tspan></text><text class="cls-18" transform="translate(354.23 44.36)">A</text><text class="cls-6" transform="translate(362.91 44.36)"> </text></g><g id="text1076"><text class="cls-4" transform="translate(349.49 56.72)"><tspan xml:space="preserve">   </tspan></text><text class="cls-7" transform="translate(349.49 56.72)">U</text><text class="cls-6" transform="translate(358.9 56.72)"> </text></g><g id="text1078"><text class="cls-4" transform="translate(338.03 63.1)"><tspan xml:space="preserve">   </tspan></text><text class="cls-9" transform="translate(338.03 63.1)">R</text><text class="cls-6" transform="translate(347.43 63.1)"> </text></g><g id="text1080"><text class="cls-4" transform="translate(325.21 60.29)"><tspan xml:space="preserve">   </tspan></text><text class="cls-9" transform="translate(325.21 60.29)">C</text><text class="cls-6" transform="translate(334.61 60.29)"> </text></g><g id="text1082"><text class="cls-4" transform="translate(313.4 65.19)"><tspan xml:space="preserve">   </tspan></text><text class="cls-16" transform="translate(313.4 65.19)">Y</text><text class="cls-6" transform="translate(322.08 65.19)"> </text></g><g id="text1084"><text class="cls-4" transform="translate(300.87 70.1)"><tspan xml:space="preserve">   </tspan></text><text class="cls-7" transform="translate(300.87 70.1)">R</text><text class="cls-6" transform="translate(310.27 70.1)"> </text></g><g id="text1086"><text class="cls-4" transform="translate(288.34 75)"><tspan xml:space="preserve">   </tspan></text><text class="cls-7" transform="translate(288.34 75)">G</text><text class="cls-6" transform="translate(298.47 75)"> </text></g><g id="text1088"><text class="cls-4" transform="translate(282.23 86.42)"><tspan xml:space="preserve">   </tspan></text><text class="cls-9" transform="translate(282.23 86.42)">C</text><text class="cls-6" transform="translate(291.63 86.42)"> </text></g><g id="text1090"><text class="cls-4" transform="translate(269.7 91.32)"><tspan xml:space="preserve">   </tspan></text><text class="cls-9" transform="translate(269.7 91.32)">G</text><text class="cls-6" transform="translate(279.83 91.32)"> </text></g><path class="cls-3" d="M266.63,82.92a4.44,4.44,0,1,1-4.44-4.44A4.44,4.44,0,0,1,266.63,82.92Z"/><g id="text1092"><text class="cls-4" transform="translate(245.68 92.5)"><tspan xml:space="preserve">   </tspan></text><text class="cls-19" transform="translate(245.68 92.5)">A</text><text class="cls-6" transform="translate(254.36 92.5)"> </text></g><g id="text1094"><text class="cls-4" transform="translate(232.79 97.4)"><tspan xml:space="preserve">   </tspan></text><text class="cls-8" transform="translate(232.79 97.4)">G</text><text class="cls-6" transform="translate(242.91 97.4)"> </text></g><g id="text1096"><text class="cls-4" transform="translate(220.62 102.31)"><tspan xml:space="preserve">   </tspan></text><text class="cls-9" transform="translate(220.62 102.31)">G</text><text class="cls-6" transform="translate(230.74 102.31)"> </text></g><g id="text1098"><text class="cls-4" transform="translate(218.36 115.23)"><tspan xml:space="preserve">   </tspan></text><text class="cls-7" transform="translate(218.36 115.23)">G</text><text class="cls-6" transform="translate(228.49 115.23)"> </text></g><g id="text1100"><text class="cls-4" transform="translate(211.74 126.11)"><tspan xml:space="preserve">   </tspan></text><text class="cls-17" transform="translate(211.74 126.11)">A</text><text class="cls-6" transform="translate(220.43 126.11)"> </text></g><path class="cls-3" d="M209.38,128.36a4.44,4.44,0,1,1-4.44-4.44A4.43,4.43,0,0,1,209.38,128.36Z"/><path class="cls-3" d="M209.38,141.48a4.44,4.44,0,1,1-4.44-4.44A4.43,4.43,0,0,1,209.38,141.48Z"/><path class="cls-3" d="M209.38,154.6a4.44,4.44,0,1,1-4.44-4.44A4.43,4.43,0,0,1,209.38,154.6Z"/><g id="text1102"><text class="cls-4" transform="translate(200.24 172.39)"><tspan xml:space="preserve">   </tspan></text><text class="cls-7" transform="translate(200.24 172.39)">R</text><text class="cls-6" transform="translate(209.64 172.39)"> </text></g><path class="cls-3" d="M209.38,180.84a4.44,4.44,0,1,1-4.44-4.44A4.43,4.43,0,0,1,209.38,180.84Z"/><path class="cls-3" d="M218.66,190.12a4.44,4.44,0,0,1-8.88,0h0a4.44,4.44,0,0,1,8.88,0Z"/><path class="cls-3" d="M231.78,190.12a4.44,4.44,0,1,1-4.44-4.44A4.43,4.43,0,0,1,231.78,190.12Z"/><path class="cls-3" d="M244.9,190.12a4.44,4.44,0,1,1-4.44-4.44A4.44,4.44,0,0,1,244.9,190.12Z"/><path class="cls-3" d="M258,190.12a4.44,4.44,0,1,1-4.44-4.44,4.44,4.44,0,0,1,4.44,4.44Z"/><path class="cls-3" d="M271.14,190.12a4.44,4.44,0,1,1-4.44-4.44,4.44,4.44,0,0,1,4.44,4.44Z"/><path class="cls-3" d="M284.26,190.12a4.44,4.44,0,1,1-4.43-4.43A4.43,4.43,0,0,1,284.26,190.12Z"/><path class="cls-3" d="M297.38,190.12a4.44,4.44,0,1,1-4.43-4.43A4.43,4.43,0,0,1,297.38,190.12Z"/><path class="cls-3" d="M310.5,190.12a4.44,4.44,0,1,1-4.43-4.43A4.43,4.43,0,0,1,310.5,190.12Z"/><path class="cls-3" d="M323.62,190.12a4.44,4.44,0,1,1-4.44-4.44,4.44,4.44,0,0,1,4.44,4.44Z"/><path class="cls-3" d="M336.74,190.12a4.44,4.44,0,1,1-4.44-4.44,4.44,4.44,0,0,1,4.44,4.44Z"/><path class="cls-3" d="M349.86,190.12a4.44,4.44,0,1,1-4.44-4.44,4.44,4.44,0,0,1,4.44,4.44Z"/><path class="cls-11" d="M363,190.12a4.44,4.44,0,1,1-4.44-4.44,4.44,4.44,0,0,1,4.44,4.44Z"/><path class="cls-20" d="M108.82,190.12h6.56"/><g id="text1104"><text class="cls-4" transform="translate(96.49 194.79)"><tspan xml:space="preserve">   </tspan></text><text class="cls-8" transform="translate(96.49 194.79)">5&apos;</text><text class="cls-6" transform="translate(106.22 194.79)"> </text></g><path class="cls-21" d="M211.93,320.36l1.12-.11a2.1,2.1,0,0,0,.53,1.2,1.45,1.45,0,0,0,1,.38,1.72,1.72,0,0,0,.94-.26,2,2,0,0,0,.66-.69,4.67,4.67,0,0,0,.42-1.15,6.25,6.25,0,0,0,.17-1.49V318a2.7,2.7,0,0,1-.95.95,2.46,2.46,0,0,1-1.29.36,2.53,2.53,0,0,1-2-.9,3.36,3.36,0,0,1-.81-2.35,3.44,3.44,0,0,1,.85-2.44,2.73,2.73,0,0,1,2.12-.92,2.88,2.88,0,0,1,1.68.52,3.16,3.16,0,0,1,1.16,1.48,7.58,7.58,0,0,1,.4,2.8,9.52,9.52,0,0,1-.39,3,3.64,3.64,0,0,1-1.17,1.72,3,3,0,0,1-1.83.59,2.57,2.57,0,0,1-1.81-.65A2.86,2.86,0,0,1,211.93,320.36Zm4.75-4.38a2.55,2.55,0,0,0-.52-1.67,1.6,1.6,0,0,0-1.28-.62,1.7,1.7,0,0,0-1.35.66,2.58,2.58,0,0,0-.57,1.73,2.19,2.19,0,0,0,.54,1.54,1.73,1.73,0,0,0,1.34.6,1.65,1.65,0,0,0,1.32-.6A2.37,2.37,0,0,0,216.68,316Z"/><path class="cls-21" d="M219.13,317.76a9.57,9.57,0,0,1,.35-2.84,3.58,3.58,0,0,1,1-1.66,2.61,2.61,0,0,1,1.73-.57,2.7,2.7,0,0,1,1.35.32,2.49,2.49,0,0,1,.95.93,5.24,5.24,0,0,1,.59,1.47,10.54,10.54,0,0,1,.21,2.35,9.54,9.54,0,0,1-.34,2.83,3.5,3.5,0,0,1-1,1.66,2.84,2.84,0,0,1-3.9-.44A6.88,6.88,0,0,1,219.13,317.76Zm1.19,0a6.49,6.49,0,0,0,.55,3.26,1.56,1.56,0,0,0,2.73,0,9.94,9.94,0,0,0,0-6.52,1.63,1.63,0,0,0-1.38-.81,1.52,1.52,0,0,0-1.3.71A6.58,6.58,0,0,0,220.32,317.76Z"/><path class="cls-21" d="M226.68,315.11a3.11,3.11,0,0,1,.51-1.81,1.67,1.67,0,0,1,1.48-.75,1.86,1.86,0,0,1,1.47.67,3.56,3.56,0,0,1,0,3.91,1.84,1.84,0,0,1-1.45.68,1.79,1.79,0,0,1-1.43-.67A3.09,3.09,0,0,1,226.68,315.11Zm2-1.69a.89.89,0,0,0-.73.39,2.52,2.52,0,0,0-.28,1.42,2.24,2.24,0,0,0,.29,1.33.87.87,0,0,0,.72.38.89.89,0,0,0,.73-.38,2.55,2.55,0,0,0,.29-1.42,2.33,2.33,0,0,0-.29-1.34A.91.91,0,0,0,228.7,313.42Zm0,9.62,5.23-10.49h1L229.67,323Zm4.16-2.7a3.18,3.18,0,0,1,.5-1.81,1.69,1.69,0,0,1,1.48-.75,1.86,1.86,0,0,1,1.47.67,2.92,2.92,0,0,1,.59,2,2.88,2.88,0,0,1-.59,1.94,1.86,1.86,0,0,1-1.46.69,1.77,1.77,0,0,1-1.42-.68A3.09,3.09,0,0,1,232.87,320.34Zm2-1.69a.86.86,0,0,0-.72.39,2.44,2.44,0,0,0-.29,1.42,2.24,2.24,0,0,0,.29,1.33.87.87,0,0,0,1.45,0,2.53,2.53,0,0,0,.29-1.42,2.29,2.29,0,0,0-.29-1.33A.89.89,0,0,0,234.88,318.65Z"/><path class="cls-22" d="M207.38,318.59a3.86,3.86,0,1,1-3.85-3.87,3.85,3.85,0,0,1,3.85,3.87"/><path class="cls-23" d="M203.53,314.73a3.86,3.86,0,1,1-3.86,3.86A3.85,3.85,0,0,1,203.53,314.73Z"/><path class="cls-21" d="M211.93,306.62l1.12-.11a2.1,2.1,0,0,0,.53,1.2,1.44,1.44,0,0,0,1,.37,1.72,1.72,0,0,0,.94-.26,1.87,1.87,0,0,0,.66-.68,4.67,4.67,0,0,0,.42-1.15,6.25,6.25,0,0,0,.17-1.49v-.25a2.79,2.79,0,0,1-.95.95,2.46,2.46,0,0,1-1.29.36,2.53,2.53,0,0,1-2-.9,3.37,3.37,0,0,1-.81-2.36,3.41,3.41,0,0,1,.85-2.43,2.74,2.74,0,0,1,2.12-.93,3,3,0,0,1,1.68.52,3.23,3.23,0,0,1,1.16,1.49,7.55,7.55,0,0,1,.4,2.8,9.56,9.56,0,0,1-.39,3,3.56,3.56,0,0,1-1.17,1.71,2.91,2.91,0,0,1-1.83.59,2.57,2.57,0,0,1-1.81-.64A2.86,2.86,0,0,1,211.93,306.62Zm4.75-4.38a2.56,2.56,0,0,0-.52-1.68,1.62,1.62,0,0,0-1.28-.61,1.7,1.7,0,0,0-1.35.66,2.58,2.58,0,0,0-.57,1.73,2.19,2.19,0,0,0,.54,1.54,1.73,1.73,0,0,0,1.34.6,1.65,1.65,0,0,0,1.32-.6A2.37,2.37,0,0,0,216.68,302.24Z"/><path class="cls-21" d="M219.21,300.27V299.1h6.13v.95a13.46,13.46,0,0,0-1.79,2.69,16.65,16.65,0,0,0-1.37,3.45,13.89,13.89,0,0,0-.45,2.73h-1.19a12.65,12.65,0,0,1,.44-2.84,15.75,15.75,0,0,1,1.2-3.21,13.42,13.42,0,0,1,1.67-2.6Z"/><path class="cls-21" d="M226.68,301.37a3.17,3.17,0,0,1,.51-1.82,1.69,1.69,0,0,1,1.48-.74,1.86,1.86,0,0,1,1.47.67,3.56,3.56,0,0,1,0,3.91,1.84,1.84,0,0,1-1.45.68,1.79,1.79,0,0,1-1.43-.67A3.09,3.09,0,0,1,226.68,301.37Zm2-1.69a.88.88,0,0,0-.73.38,2.58,2.58,0,0,0-.28,1.43,2.24,2.24,0,0,0,.29,1.33.87.87,0,0,0,.72.38.89.89,0,0,0,.73-.38,2.55,2.55,0,0,0,.29-1.42,2.33,2.33,0,0,0-.29-1.34A.88.88,0,0,0,228.7,299.68Zm0,9.62,5.23-10.49h1l-5.23,10.49Zm4.16-2.7a3.24,3.24,0,0,1,.5-1.82,1.7,1.7,0,0,1,1.48-.74,1.83,1.83,0,0,1,1.47.67,2.92,2.92,0,0,1,.59,2,2.88,2.88,0,0,1-.59,1.94,1.88,1.88,0,0,1-1.46.68,1.76,1.76,0,0,1-1.42-.67A3.09,3.09,0,0,1,232.87,306.6Zm2-1.69a.86.86,0,0,0-.72.39,2.44,2.44,0,0,0-.29,1.42,2.24,2.24,0,0,0,.29,1.33.89.89,0,0,0,.72.39.86.86,0,0,0,.73-.39,2.53,2.53,0,0,0,.29-1.42,2.35,2.35,0,0,0-.29-1.34A.91.91,0,0,0,234.88,304.91Z"/><path class="cls-24" d="M207.38,304.85a3.86,3.86,0,1,1-3.86-3.87,3.86,3.86,0,0,1,3.86,3.87"/><path class="cls-23" d="M203.53,301a3.86,3.86,0,1,1-3.86,3.86A3.85,3.85,0,0,1,203.53,301Z"/><path class="cls-21" d="M258.71,300.27V299.1h6.13v.95a13,13,0,0,0-1.79,2.69,16.65,16.65,0,0,0-1.37,3.45,12.55,12.55,0,0,0-.45,2.73H260a13.16,13.16,0,0,1,.43-2.84,15.78,15.78,0,0,1,1.21-3.21,13.9,13.9,0,0,1,1.66-2.6Z"/><path class="cls-21" d="M266,306.32l1.19-.11a2.38,2.38,0,0,0,.63,1.4,1.66,1.66,0,0,0,1.2.47,1.83,1.83,0,0,0,1.43-.66,2.61,2.61,0,0,0,.57-1.76,2.32,2.32,0,0,0-.55-1.64,2.08,2.08,0,0,0-2.47-.34,2,2,0,0,0-.7.69l-1.08-.17.92-5.1h4.69v1.17h-3.76l-.52,2.69a3,3,0,0,1,1.78-.63,2.76,2.76,0,0,1,2.09.9,3.29,3.29,0,0,1,.84,2.32,3.77,3.77,0,0,1-.74,2.33,3.24,3.24,0,0,1-4.59.45A3.06,3.06,0,0,1,266,306.32Z"/><path class="cls-21" d="M273.54,301.37a3.17,3.17,0,0,1,.51-1.82,1.69,1.69,0,0,1,1.48-.74,1.86,1.86,0,0,1,1.47.67,3.56,3.56,0,0,1,0,3.91,1.86,1.86,0,0,1-1.45.68,1.79,1.79,0,0,1-1.43-.67A3.09,3.09,0,0,1,273.54,301.37Zm2-1.69a.87.87,0,0,0-.73.38,2.57,2.57,0,0,0-.29,1.43,2.32,2.32,0,0,0,.29,1.33.89.89,0,0,0,1.46,0,2.55,2.55,0,0,0,.29-1.42,2.33,2.33,0,0,0-.29-1.34A.88.88,0,0,0,275.56,299.68Zm0,9.62,5.24-10.49h1l-5.23,10.49Zm4.16-2.7a3.17,3.17,0,0,1,.51-1.82,1.69,1.69,0,0,1,1.48-.74,1.84,1.84,0,0,1,1.47.67,2.91,2.91,0,0,1,.58,2,2.88,2.88,0,0,1-.58,1.94,1.88,1.88,0,0,1-1.46.68,1.79,1.79,0,0,1-1.43-.67A3.15,3.15,0,0,1,279.72,306.6Zm2-1.69a.86.86,0,0,0-.72.39,2.44,2.44,0,0,0-.29,1.42,2.24,2.24,0,0,0,.29,1.33.89.89,0,0,0,.72.39.86.86,0,0,0,.73-.39,2.53,2.53,0,0,0,.29-1.42,2.35,2.35,0,0,0-.29-1.34A.91.91,0,0,0,281.74,304.91Z"/><path class="cls-25" d="M254.24,304.84a3.86,3.86,0,1,1-3.86-3.86,3.86,3.86,0,0,1,3.86,3.86"/><path class="cls-23" d="M250.38,301a3.86,3.86,0,1,1-3.85,3.85A3.85,3.85,0,0,1,250.38,301Z"/><path class="cls-23" d="M250.38,314.73a3.86,3.86,0,1,1-3.85,3.86A3.86,3.86,0,0,1,250.38,314.73Z"/><path class="cls-21" d="M258.63,320.06l1.19-.11a2.32,2.32,0,0,0,.63,1.4,1.65,1.65,0,0,0,1.19.47,1.8,1.8,0,0,0,1.43-.66,2.58,2.58,0,0,0,.58-1.76,2.4,2.4,0,0,0-.55-1.65,1.91,1.91,0,0,0-1.46-.6,1.88,1.88,0,0,0-1,.27,2,2,0,0,0-.7.68l-1.08-.16.92-5.1h4.69V314H260.7l-.52,2.69a3,3,0,0,1,1.78-.63,2.73,2.73,0,0,1,2.08.9,3.22,3.22,0,0,1,.85,2.32,3.74,3.74,0,0,1-.75,2.33,3.21,3.21,0,0,1-4.58.44A3,3,0,0,1,258.63,320.06Z"/><path class="cls-21" d="M266,317.76a9.65,9.65,0,0,1,.35-2.85,3.42,3.42,0,0,1,1-1.65,2.62,2.62,0,0,1,1.73-.58,2.7,2.7,0,0,1,1.35.33,2.54,2.54,0,0,1,.95.92,5.44,5.44,0,0,1,.59,1.48,10.41,10.41,0,0,1,.21,2.35,9.58,9.58,0,0,1-.34,2.83,3.58,3.58,0,0,1-1,1.66,2.64,2.64,0,0,1-1.73.58,2.6,2.6,0,0,1-2.17-1A6.83,6.83,0,0,1,266,317.76Zm1.19,0a6.56,6.56,0,0,0,.55,3.27,1.63,1.63,0,0,0,1.36.8,1.6,1.6,0,0,0,1.36-.81,6.41,6.41,0,0,0,.55-3.26,6.57,6.57,0,0,0-.54-3.26,1.62,1.62,0,0,0-1.38-.8,1.5,1.5,0,0,0-1.3.71A6.54,6.54,0,0,0,267.18,317.75Z"/><path class="cls-21" d="M273.54,315.11a3.17,3.17,0,0,1,.51-1.82,1.67,1.67,0,0,1,1.48-.75,1.89,1.89,0,0,1,1.47.67,2.93,2.93,0,0,1,.58,2,2.83,2.83,0,0,1-.59,1.94,1.86,1.86,0,0,1-2.88,0A3.09,3.09,0,0,1,273.54,315.11Zm2-1.69a.87.87,0,0,0-.73.38,2.57,2.57,0,0,0-.29,1.43,2.28,2.28,0,0,0,.29,1.32.88.88,0,0,0,1.46,0,2.51,2.51,0,0,0,.29-1.41,2.33,2.33,0,0,0-.29-1.34A.88.88,0,0,0,275.56,313.42Zm0,9.62,5.24-10.49h1L276.53,323Zm4.16-2.7a3.14,3.14,0,0,1,.51-1.82,1.69,1.69,0,0,1,1.48-.74,1.84,1.84,0,0,1,1.47.67,2.89,2.89,0,0,1,.58,2,2.93,2.93,0,0,1-.58,1.95,1.88,1.88,0,0,1-1.46.68,1.82,1.82,0,0,1-1.43-.67A3.15,3.15,0,0,1,279.72,320.34Zm2-1.69a.84.84,0,0,0-.72.39,2.42,2.42,0,0,0-.29,1.42,2.26,2.26,0,0,0,.29,1.33.87.87,0,0,0,1.45,0,2.55,2.55,0,0,0,.29-1.42,2.33,2.33,0,0,0-.29-1.34A.88.88,0,0,0,281.74,318.65Z"/><path class="cls-21" d="M203.4,281.81V274.6h1.06v1a2.42,2.42,0,0,1,2.17-1.19,2.66,2.66,0,0,1,1.13.24,1.85,1.85,0,0,1,.77.61,2.55,2.55,0,0,1,.36.91,7.47,7.47,0,0,1,.07,1.19v4.43h-1.2v-4.39a3.52,3.52,0,0,0-.13-1.12,1.2,1.2,0,0,0-.48-.59,1.46,1.46,0,0,0-.79-.22,1.82,1.82,0,0,0-1.27.5,2.57,2.57,0,0,0-.53,1.88v3.94Z"/><path class="cls-21" d="M215.26,281.81v-1.06a2.49,2.49,0,0,1-2.18,1.22,2.66,2.66,0,0,1-1.13-.24,1.89,1.89,0,0,1-.79-.62,2.43,2.43,0,0,1-.36-.9,7.43,7.43,0,0,1-.07-1.15V274.6h1.17v4a7.22,7.22,0,0,0,.07,1.29,1.29,1.29,0,0,0,.46.76,1.36,1.36,0,0,0,.88.28,1.86,1.86,0,0,0,1-.29,1.49,1.49,0,0,0,.64-.76,4,4,0,0,0,.19-1.41V274.6h1.17v7.21Z"/><path class="cls-21" d="M222.59,279.18l1.14.16a3.09,3.09,0,0,1-.95,1.93,2.67,2.67,0,0,1-1.88.7,2.82,2.82,0,0,1-2.25-1,4,4,0,0,1-.85-2.77,5.4,5.4,0,0,1,.36-2.05,2.69,2.69,0,0,1,1.12-1.31,3.18,3.18,0,0,1,1.62-.44,2.72,2.72,0,0,1,1.82.6,2.79,2.79,0,0,1,.9,1.7l-1.13.17a2.06,2.06,0,0,0-.57-1.1,1.44,1.44,0,0,0-1-.37,1.73,1.73,0,0,0-1.41.66,4.45,4.45,0,0,0,0,4.21,1.65,1.65,0,0,0,1.37.67,1.58,1.58,0,0,0,1.14-.44A2.23,2.23,0,0,0,222.59,279.18Z"/><path class="cls-21" d="M224.71,281.81v-9.95h1.17v9.95Z"/><path class="cls-21" d="M232.44,279.48l1.16.16a3.24,3.24,0,0,1-5.42,1.36,3.92,3.92,0,0,1-.88-2.74,4.08,4.08,0,0,1,.89-2.82,3,3,0,0,1,2.32-1,2.89,2.89,0,0,1,2.26,1,4.08,4.08,0,0,1,.87,2.78v.33h-5.15a2.83,2.83,0,0,0,.65,1.81,1.92,1.92,0,0,0,1.46.63,1.76,1.76,0,0,0,1.11-.36A2.36,2.36,0,0,0,232.44,279.48Zm-3.92-2h3.93a2.44,2.44,0,0,0-.45-1.37,1.79,1.79,0,0,0-1.48-.71,1.84,1.84,0,0,0-1.38.56A2.27,2.27,0,0,0,228.52,277.52Z"/><path class="cls-21" d="M234.6,278.2a3.87,3.87,0,0,1,1.06-3,3.12,3.12,0,0,1,2.16-.8,3,3,0,0,1,2.31,1,3.82,3.82,0,0,1,.9,2.69,4.89,4.89,0,0,1-.4,2.19,2.82,2.82,0,0,1-1.15,1.24,3.21,3.21,0,0,1-1.66.45,3,3,0,0,1-2.33-1A4,4,0,0,1,234.6,278.2Zm1.2,0a3.23,3.23,0,0,0,.57,2.08,1.82,1.82,0,0,0,1.45.69,1.77,1.77,0,0,0,1.44-.7,3.2,3.2,0,0,0,.58-2.11,3.05,3.05,0,0,0-.58-2,1.79,1.79,0,0,0-1.44-.69,1.81,1.81,0,0,0-1.44.68A3.15,3.15,0,0,0,235.8,278.2Z"/><path class="cls-21" d="M245,280.73l.16,1.08a4.31,4.31,0,0,1-.88.11,1.9,1.9,0,0,1-1-.21,1.15,1.15,0,0,1-.49-.56,4.48,4.48,0,0,1-.14-1.45v-4.15h-.87v-.95h.87v-1.79l1.16-.73v2.52H245v.95h-1.17v4.21a2.31,2.31,0,0,0,.06.67.52.52,0,0,0,.2.24.88.88,0,0,0,.4.09Z"/><path class="cls-21" d="M246.13,273.24v-1.38h1.17v1.38Zm0,8.57V274.6h1.17v7.21Z"/><path class="cls-21" d="M253.46,281.81v-.91a2.09,2.09,0,0,1-1.92,1.07,2.64,2.64,0,0,1-1.51-.47,3.09,3.09,0,0,1-1.07-1.33,4.83,4.83,0,0,1-.38-2,5.34,5.34,0,0,1,.35-2,2.82,2.82,0,0,1,1-1.35,2.69,2.69,0,0,1,1.54-.47,2.33,2.33,0,0,1,1.1.27,2.39,2.39,0,0,1,.79.72v-3.56h1.17v9.95Zm-3.68-3.6a3.24,3.24,0,0,0,.55,2.07,1.68,1.68,0,0,0,1.32.69,1.64,1.64,0,0,0,1.31-.66,3.16,3.16,0,0,0,.53-2,3.55,3.55,0,0,0-.54-2.18,1.68,1.68,0,0,0-1.35-.69,1.6,1.6,0,0,0-1.3.66A3.43,3.43,0,0,0,249.78,278.21Z"/><path class="cls-21" d="M261.14,279.48l1.17.16a3.13,3.13,0,0,1-1.06,1.72,3.47,3.47,0,0,1-4.37-.36,3.92,3.92,0,0,1-.88-2.74,4.13,4.13,0,0,1,.89-2.82,3,3,0,0,1,2.32-1,2.88,2.88,0,0,1,2.26,1,4.08,4.08,0,0,1,.87,2.78v.33h-5.15a2.83,2.83,0,0,0,.65,1.81,1.92,1.92,0,0,0,1.46.63,1.72,1.72,0,0,0,1.11-.36A2.36,2.36,0,0,0,261.14,279.48Zm-3.92-2h3.93a2.44,2.44,0,0,0-.45-1.37,1.79,1.79,0,0,0-1.48-.71,1.84,1.84,0,0,0-1.38.56A2.27,2.27,0,0,0,257.22,277.52Z"/><path class="cls-21" d="M211.71,297.77v-10h1.06v.92a2.83,2.83,0,0,1,.84-.82,2.3,2.3,0,0,1,1.15-.27,2.62,2.62,0,0,1,1.56.48,2.88,2.88,0,0,1,1,1.34,5.37,5.37,0,0,1,0,3.89,3.05,3.05,0,0,1-1.1,1.36,2.77,2.77,0,0,1-1.52.47,2.15,2.15,0,0,1-1.05-.26,2.41,2.41,0,0,1-.76-.65v3.51h-1.16Zm1-6.34a3.23,3.23,0,0,0,.54,2.06,1.63,1.63,0,0,0,1.31.67,1.69,1.69,0,0,0,1.34-.69,3.4,3.4,0,0,0,.55-2.14,3.32,3.32,0,0,0-.54-2.07,1.6,1.6,0,0,0-1.3-.69,1.66,1.66,0,0,0-1.32.74A3.31,3.31,0,0,0,212.74,291.43Z"/><path class="cls-21" d="M219.1,295v-7.21h1.05v1.1a3,3,0,0,1,.74-1,1.24,1.24,0,0,1,.73-.25,2.1,2.1,0,0,1,1.19.4l-.41,1.12a1.68,1.68,0,0,0-.84-.24,1.09,1.09,0,0,0-.68.24,1.31,1.31,0,0,0-.42.67,4.87,4.87,0,0,0-.2,1.42V295Z"/><path class="cls-21" d="M228.2,292.67l1.17.16a3.13,3.13,0,0,1-1.06,1.72,3.47,3.47,0,0,1-4.37-.36,4,4,0,0,1-.88-2.73,4.14,4.14,0,0,1,.89-2.83,3,3,0,0,1,2.32-1,2.88,2.88,0,0,1,2.26,1,4.08,4.08,0,0,1,.87,2.78v.33h-5.15a2.83,2.83,0,0,0,.65,1.81,1.92,1.92,0,0,0,1.46.63,1.72,1.72,0,0,0,1.11-.36A2.34,2.34,0,0,0,228.2,292.67Zm-3.92-2h3.93a2.44,2.44,0,0,0-.45-1.37,1.79,1.79,0,0,0-1.48-.71,1.88,1.88,0,0,0-1.38.56A2.32,2.32,0,0,0,224.28,290.71Z"/><path class="cls-21" d="M230.37,292.83l1.13-.17a1.73,1.73,0,0,0,.54,1.11,1.78,1.78,0,0,0,1.23.39,1.82,1.82,0,0,0,1.19-.34,1.07,1.07,0,0,0,.38-.81.74.74,0,0,0-.35-.65,4.94,4.94,0,0,0-1.19-.42,10,10,0,0,1-1.75-.59,1.69,1.69,0,0,1-.74-.68,2,2,0,0,1,.52-2.55,2.36,2.36,0,0,1,.73-.35,3.27,3.27,0,0,1,1-.15,3.62,3.62,0,0,1,1.41.25,1.88,1.88,0,0,1,.89.66,2.59,2.59,0,0,1,.4,1.13l-1.14.16a1.35,1.35,0,0,0-.44-.88,1.56,1.56,0,0,0-1-.32,1.81,1.81,0,0,0-1.13.28.83.83,0,0,0-.34.65.64.64,0,0,0,.14.43,1,1,0,0,0,.44.33c.11,0,.45.15,1,.31a13.71,13.71,0,0,1,1.71.57,1.74,1.74,0,0,1,.77.64,1.83,1.83,0,0,1,.28,1.05,2.14,2.14,0,0,1-1.31,2,3.3,3.3,0,0,1-1.43.3,3.07,3.07,0,0,1-2-.59A2.71,2.71,0,0,1,230.37,292.83Z"/><path class="cls-21" d="M242.18,292.67l1.17.16a3.19,3.19,0,0,1-1.06,1.72,3.47,3.47,0,0,1-4.37-.36,3.91,3.91,0,0,1-.88-2.73,4.14,4.14,0,0,1,.89-2.83,3,3,0,0,1,2.32-1,2.88,2.88,0,0,1,2.26,1,4.08,4.08,0,0,1,.88,2.78c0,.07,0,.18,0,.33h-5.15a2.83,2.83,0,0,0,.65,1.81,1.92,1.92,0,0,0,1.46.63,1.74,1.74,0,0,0,1.11-.36A2.34,2.34,0,0,0,242.18,292.67Zm-3.92-2h3.93a2.44,2.44,0,0,0-.45-1.37,1.79,1.79,0,0,0-1.48-.71,1.88,1.88,0,0,0-1.38.56A2.27,2.27,0,0,0,238.26,290.71Z"/><path class="cls-21" d="M244.78,295v-7.21h1.05v1a2.44,2.44,0,0,1,2.18-1.19,2.66,2.66,0,0,1,1.13.24,1.78,1.78,0,0,1,.77.61,2.41,2.41,0,0,1,.36.91,7.77,7.77,0,0,1,.06,1.18V295h-1.19v-4.39a3.52,3.52,0,0,0-.13-1.12,1.2,1.2,0,0,0-.48-.59,1.39,1.39,0,0,0-.8-.22,1.81,1.81,0,0,0-1.26.5,2.56,2.56,0,0,0-.53,1.88V295Z"/><path class="cls-21" d="M254.65,293.92l.16,1.08a4.31,4.31,0,0,1-.88.11,1.8,1.8,0,0,1-1-.22,1.13,1.13,0,0,1-.49-.55,4.48,4.48,0,0,1-.14-1.45v-4.16h-.87v-.94h.87V286l1.16-.73v2.52h1.17v.94h-1.17v4.21a2.34,2.34,0,0,0,.06.68.45.45,0,0,0,.2.23.74.74,0,0,0,.4.09Z"/><path class="cls-21" d="M295,281.81V274.6H296v1a2.43,2.43,0,0,1,2.17-1.19,2.63,2.63,0,0,1,1.13.24,1.82,1.82,0,0,1,.78.61,2.55,2.55,0,0,1,.36.91,7.84,7.84,0,0,1,.06,1.19v4.43h-1.19v-4.39a3.84,3.84,0,0,0-.13-1.12,1.2,1.2,0,0,0-.48-.59,1.5,1.5,0,0,0-.8-.22,1.81,1.81,0,0,0-1.26.5,2.53,2.53,0,0,0-.53,1.88v3.94Z"/><path class="cls-21" d="M306.81,281.81v-1.06a2.5,2.5,0,0,1-2.18,1.22,2.71,2.71,0,0,1-1.14-.24,1.92,1.92,0,0,1-.78-.62,2.43,2.43,0,0,1-.36-.9,6.34,6.34,0,0,1-.07-1.15V274.6h1.17v4a7.22,7.22,0,0,0,.07,1.29,1.25,1.25,0,0,0,.46.76,1.42,1.42,0,0,0,.88.28,1.83,1.83,0,0,0,1-.29,1.49,1.49,0,0,0,.64-.76,4,4,0,0,0,.19-1.41V274.6h1.17v7.21Z"/><path class="cls-21" d="M314.14,279.18l1.14.16a3.14,3.14,0,0,1-.95,1.93,2.7,2.7,0,0,1-1.89.7,2.84,2.84,0,0,1-2.25-1,4,4,0,0,1-.85-2.77,5.21,5.21,0,0,1,.37-2.05,2.62,2.62,0,0,1,1.11-1.31,3.19,3.19,0,0,1,1.63-.44,2.73,2.73,0,0,1,1.82.6,2.79,2.79,0,0,1,.9,1.7l-1.14.17a2,2,0,0,0-.56-1.1,1.44,1.44,0,0,0-1-.37,1.73,1.73,0,0,0-1.41.66,4.37,4.37,0,0,0,0,4.21,1.65,1.65,0,0,0,1.37.67,1.57,1.57,0,0,0,1.13-.44A2.17,2.17,0,0,0,314.14,279.18Z"/><path class="cls-21" d="M316.26,281.81v-9.95h1.16v9.95Z"/><path class="cls-21" d="M324,279.48l1.17.16a3.12,3.12,0,0,1-1,1.72,3.47,3.47,0,0,1-4.37-.36,3.92,3.92,0,0,1-.88-2.74,4.08,4.08,0,0,1,.89-2.82,3,3,0,0,1,2.32-1,2.89,2.89,0,0,1,2.26,1,4.08,4.08,0,0,1,.87,2.78v.33H320a2.78,2.78,0,0,0,.65,1.81,1.92,1.92,0,0,0,1.46.63,1.76,1.76,0,0,0,1.11-.36A2.28,2.28,0,0,0,324,279.48Zm-3.91-2H324a2.52,2.52,0,0,0-.45-1.37,1.8,1.8,0,0,0-1.48-.71,1.84,1.84,0,0,0-1.38.56A2.27,2.27,0,0,0,320.07,277.52Z"/><path class="cls-21" d="M326.15,278.2a3.83,3.83,0,0,1,1.06-3,3.12,3.12,0,0,1,2.16-.8,3,3,0,0,1,2.31,1,3.82,3.82,0,0,1,.9,2.69,4.89,4.89,0,0,1-.4,2.19,2.82,2.82,0,0,1-1.15,1.24,3.21,3.21,0,0,1-1.66.45,3,3,0,0,1-2.33-1A4,4,0,0,1,326.15,278.2Zm1.19,0a3.22,3.22,0,0,0,.58,2.08,1.82,1.82,0,0,0,1.45.69,1.78,1.78,0,0,0,1.44-.7,3.2,3.2,0,0,0,.58-2.11,3.11,3.11,0,0,0-.58-2,1.82,1.82,0,0,0-1.44-.69,1.84,1.84,0,0,0-1.45.68A3.21,3.21,0,0,0,327.34,278.2Z"/><path class="cls-21" d="M336.5,280.73l.16,1.08a4.31,4.31,0,0,1-.88.11,1.9,1.9,0,0,1-1-.21,1.1,1.1,0,0,1-.49-.56,4.39,4.39,0,0,1-.15-1.45v-4.15h-.86v-.95h.86v-1.79l1.17-.73v2.52h1.17v.95h-1.17v4.21a2.31,2.31,0,0,0,.06.67.52.52,0,0,0,.2.24.84.84,0,0,0,.4.09Z"/><path class="cls-21" d="M337.68,273.24v-1.38h1.16v1.38Zm0,8.57V274.6h1.16v7.21Z"/><path class="cls-21" d="M345,281.81v-.91a2.1,2.1,0,0,1-1.92,1.07,2.64,2.64,0,0,1-1.51-.47,3.09,3.09,0,0,1-1.07-1.33,4.66,4.66,0,0,1-.38-2,5.34,5.34,0,0,1,.34-2,2.83,2.83,0,0,1,1-1.35,2.69,2.69,0,0,1,1.54-.47,2.33,2.33,0,0,1,1.1.27,2.49,2.49,0,0,1,.79.72v-3.56h1.17v9.95Zm-3.69-3.6a3.24,3.24,0,0,0,.56,2.07,1.66,1.66,0,0,0,1.32.69,1.61,1.61,0,0,0,1.3-.66,3.1,3.1,0,0,0,.54-2,3.48,3.48,0,0,0-.55-2.18,1.65,1.65,0,0,0-1.34-.69,1.6,1.6,0,0,0-1.3.66A3.42,3.42,0,0,0,341.32,278.21Z"/><path class="cls-21" d="M352.68,279.48l1.17.16a3.12,3.12,0,0,1-1.05,1.72,3.47,3.47,0,0,1-4.37-.36,3.92,3.92,0,0,1-.88-2.74,4.13,4.13,0,0,1,.89-2.82,3,3,0,0,1,2.32-1,2.88,2.88,0,0,1,2.26,1,4.08,4.08,0,0,1,.87,2.78v.33h-5.15a2.83,2.83,0,0,0,.65,1.81,1.92,1.92,0,0,0,1.46.63,1.76,1.76,0,0,0,1.11-.36A2.28,2.28,0,0,0,352.68,279.48Zm-3.91-2h3.93a2.52,2.52,0,0,0-.45-1.37,1.79,1.79,0,0,0-1.48-.71,1.84,1.84,0,0,0-1.38.56A2.22,2.22,0,0,0,348.77,277.52Z"/><path class="cls-21" d="M303.34,286.43v-1.38h1.16v1.38Zm0,8.57v-7.21h1.16V295Z"/><path class="cls-21" d="M310.67,295v-.91a2.1,2.1,0,0,1-1.92,1.07,2.64,2.64,0,0,1-1.51-.47,3.09,3.09,0,0,1-1.07-1.33,4.83,4.83,0,0,1-.38-2,5.56,5.56,0,0,1,.34-2,2.85,2.85,0,0,1,1-1.35,2.68,2.68,0,0,1,1.53-.47,2.23,2.23,0,0,1,1.11.27,2.35,2.35,0,0,1,.79.71V285h1.17v10ZM307,291.39a3.27,3.27,0,0,0,.56,2.08,1.66,1.66,0,0,0,1.32.69,1.61,1.61,0,0,0,1.3-.66,3.12,3.12,0,0,0,.54-2,3.48,3.48,0,0,0-.55-2.18,1.62,1.62,0,0,0-1.34-.69,1.6,1.6,0,0,0-1.3.66A3.41,3.41,0,0,0,307,291.39Z"/><path class="cls-21" d="M318.34,292.67l1.17.16a3.12,3.12,0,0,1-1.05,1.72,3.47,3.47,0,0,1-4.37-.36,3.91,3.91,0,0,1-.88-2.73,4.09,4.09,0,0,1,.89-2.83,3,3,0,0,1,2.32-1,2.86,2.86,0,0,1,2.25,1,4,4,0,0,1,.88,2.78c0,.07,0,.18,0,.33H314.4a2.78,2.78,0,0,0,.65,1.81,1.9,1.9,0,0,0,1.46.63,1.76,1.76,0,0,0,1.11-.36A2.4,2.4,0,0,0,318.34,292.67Zm-3.91-2h3.93a2.6,2.6,0,0,0-.45-1.37,1.8,1.8,0,0,0-1.48-.71,1.92,1.92,0,0,0-1.39.56A2.26,2.26,0,0,0,314.43,290.71Z"/><path class="cls-21" d="M321,295v-7.21H322v1a2.43,2.43,0,0,1,2.17-1.19,2.63,2.63,0,0,1,1.13.24,1.75,1.75,0,0,1,.78.61,2.41,2.41,0,0,1,.36.91,7.77,7.77,0,0,1,.06,1.18V295h-1.19v-4.39a3.47,3.47,0,0,0-.14-1.12,1.13,1.13,0,0,0-.47-.59,1.41,1.41,0,0,0-.8-.22,1.79,1.79,0,0,0-1.26.5,2.51,2.51,0,0,0-.53,1.88V295Z"/><path class="cls-21" d="M330.81,293.92,331,295a4.31,4.31,0,0,1-.88.11,1.8,1.8,0,0,1-1-.22,1.08,1.08,0,0,1-.49-.55,4.39,4.39,0,0,1-.15-1.45v-4.16h-.86v-.94h.86V286l1.17-.73v2.52h1.17v.94h-1.17v4.21a2.34,2.34,0,0,0,.06.68.45.45,0,0,0,.2.23.72.72,0,0,0,.4.09Z"/><path class="cls-21" d="M332,286.43v-1.38h1.17v1.38Zm0,8.57v-7.21h1.17V295Z"/><path class="cls-21" d="M337.43,293.92l.17,1.08a4.39,4.39,0,0,1-.88.11,1.8,1.8,0,0,1-1-.22,1.15,1.15,0,0,1-.5-.55,4.8,4.8,0,0,1-.14-1.45v-4.16h-.87v-.94h.87V286l1.17-.73v2.52h1.16v.94h-1.16v4.21a2.34,2.34,0,0,0,.06.68.45.45,0,0,0,.2.23.7.7,0,0,0,.39.09Z"/><path class="cls-21" d="M338.63,297.78l-.17-1.13a2.44,2.44,0,0,0,.69.11,1.3,1.3,0,0,0,.64-.13,1.21,1.21,0,0,0,.4-.38,7.88,7.88,0,0,0,.36-.92c0-.07.06-.17.11-.3L338,287.79h1.25l1.44,4.16c.19.53.36,1.09.51,1.67a16.47,16.47,0,0,1,.47-1.62l1.45-4.21h1.16l-2.56,7.34a15,15,0,0,1-.67,1.63,2.34,2.34,0,0,1-.72.88,1.67,1.67,0,0,1-1,.29A2.26,2.26,0,0,1,338.63,297.78Z"/><path class="cls-21" d="M330.45,332.25v-1.17h6.13V332a13,13,0,0,0-1.79,2.68,16.32,16.32,0,0,0-1.37,3.45,12.75,12.75,0,0,0-.45,2.74h-1.19a12.57,12.57,0,0,1,.43-2.84,15,15,0,0,1,1.21-3.21,13.41,13.41,0,0,1,1.66-2.6Z"/><path class="cls-21" d="M337.73,338.29l1.19-.1a2.37,2.37,0,0,0,.62,1.4,1.69,1.69,0,0,0,1.2.47,1.8,1.8,0,0,0,1.43-.66,2.61,2.61,0,0,0,.58-1.76,2.37,2.37,0,0,0-.55-1.64,2,2,0,0,0-2.47-.34,1.9,1.9,0,0,0-.7.68l-1.08-.16.92-5.1h4.69v1.17h-3.77l-.51,2.69a3,3,0,0,1,1.78-.63,2.74,2.74,0,0,1,2.08.9,3.22,3.22,0,0,1,.85,2.32,3.74,3.74,0,0,1-.75,2.33,2.93,2.93,0,0,1-2.48,1.2,3,3,0,0,1-2.1-.75A3.07,3.07,0,0,1,337.73,338.29Z"/><path class="cls-21" d="M345.28,333.34a3.13,3.13,0,0,1,.51-1.81,1.67,1.67,0,0,1,1.47-.75,1.9,1.9,0,0,1,1.48.67,2.91,2.91,0,0,1,.58,2,2.88,2.88,0,0,1-.59,1.94,1.83,1.83,0,0,1-1.45.68,1.79,1.79,0,0,1-1.43-.67A3.07,3.07,0,0,1,345.28,333.34Zm2-1.69a.88.88,0,0,0-.73.39,2.53,2.53,0,0,0-.29,1.42,2.32,2.32,0,0,0,.29,1.33.88.88,0,0,0,1.46,0,2.53,2.53,0,0,0,.29-1.42A2.29,2.29,0,0,0,348,332,.89.89,0,0,0,347.3,331.65Zm0,9.63,5.24-10.5h1l-5.23,10.5Zm4.16-2.7a3.14,3.14,0,0,1,.51-1.82,1.69,1.69,0,0,1,1.48-.74,1.84,1.84,0,0,1,1.47.67,3.56,3.56,0,0,1,0,3.91,1.84,1.84,0,0,1-1.45.68,1.77,1.77,0,0,1-1.43-.68A3.06,3.06,0,0,1,351.46,338.58Zm2-1.69a.88.88,0,0,0-.73.38,2.58,2.58,0,0,0-.28,1.43,2.22,2.22,0,0,0,.29,1.32.86.86,0,0,0,.72.39.88.88,0,0,0,.73-.39,2.49,2.49,0,0,0,.29-1.41,2.33,2.33,0,0,0-.29-1.34A.88.88,0,0,0,353.48,336.89Z"/><path class="cls-26" d="M303,340.9V331h1.28l5,7.83V331h1.19v9.95h-1.27l-5-7.83v7.83Z"/><path class="cls-27" d="M303,312.83v-10h1.28l5,7.83v-7.83h1.19v10h-1.27l-5-7.83v7.83Z"/><path class="cls-21" d="M330.53,310.52l1.11-.11a2.17,2.17,0,0,0,.54,1.2,1.45,1.45,0,0,0,1,.38,1.75,1.75,0,0,0,.94-.26,1.93,1.93,0,0,0,.65-.68,4.5,4.5,0,0,0,.43-1.16,6.74,6.74,0,0,0,.17-1.49c0-.06,0-.14,0-.25a2.67,2.67,0,0,1-.94,1,2.47,2.47,0,0,1-1.3.36,2.58,2.58,0,0,1-2-.89,3.92,3.92,0,0,1,0-4.8,2.75,2.75,0,0,1,2.13-.92,2.9,2.9,0,0,1,1.68.52,3.18,3.18,0,0,1,1.16,1.49,7.49,7.49,0,0,1,.4,2.79,9.52,9.52,0,0,1-.39,3A3.61,3.61,0,0,1,335,312.4a2.94,2.94,0,0,1-1.82.59,2.57,2.57,0,0,1-1.81-.65A2.86,2.86,0,0,1,330.53,310.52Zm4.75-4.38a2.5,2.5,0,0,0-.53-1.67,1.6,1.6,0,0,0-1.28-.62,1.73,1.73,0,0,0-1.35.66,2.62,2.62,0,0,0-.56,1.73,2.23,2.23,0,0,0,.54,1.55,1.74,1.74,0,0,0,1.34.59,1.67,1.67,0,0,0,1.32-.59A2.47,2.47,0,0,0,335.28,306.14Z"/><path class="cls-21" d="M337.81,304.17V303h6.13V304a13.76,13.76,0,0,0-1.79,2.69,16.32,16.32,0,0,0-1.37,3.45,12.55,12.55,0,0,0-.45,2.73h-1.19a12.49,12.49,0,0,1,.44-2.83,15.53,15.53,0,0,1,1.2-3.21,13.83,13.83,0,0,1,1.67-2.61Z"/><path class="cls-21" d="M345.28,305.27a3.13,3.13,0,0,1,.51-1.81,1.67,1.67,0,0,1,1.47-.75,1.86,1.86,0,0,1,1.48.67,3.56,3.56,0,0,1,0,3.91,1.86,1.86,0,0,1-1.45.68,1.79,1.79,0,0,1-1.43-.67A3.09,3.09,0,0,1,345.28,305.27Zm2-1.69a.88.88,0,0,0-.73.39,2.5,2.5,0,0,0-.29,1.42,2.32,2.32,0,0,0,.29,1.33.89.89,0,0,0,1.46,0,2.53,2.53,0,0,0,.29-1.42A2.29,2.29,0,0,0,348,304,.89.89,0,0,0,347.3,303.58Zm0,9.63,5.24-10.5h1l-5.23,10.5Zm4.16-2.71a3.11,3.11,0,0,1,.51-1.81,1.67,1.67,0,0,1,1.48-.75,1.88,1.88,0,0,1,1.47.67,2.91,2.91,0,0,1,.58,2,2.83,2.83,0,0,1-.59,1.94,1.82,1.82,0,0,1-1.45.69,1.8,1.8,0,0,1-1.43-.68A3.07,3.07,0,0,1,351.46,310.5Zm2-1.69a.89.89,0,0,0-.73.39,2.56,2.56,0,0,0-.28,1.43,2.22,2.22,0,0,0,.29,1.32.86.86,0,0,0,.72.39.88.88,0,0,0,.73-.39,2.53,2.53,0,0,0,.29-1.42,2.32,2.32,0,0,0-.29-1.33A.89.89,0,0,0,353.48,308.81Z"/><path class="cls-21" d="M303,326.86v-9.95h1.28l5,7.83v-7.83h1.19v9.95h-1.27l-5-7.82v7.82Z"/><path class="cls-21" d="M330.53,324.56l1.11-.11a2.17,2.17,0,0,0,.54,1.2,1.44,1.44,0,0,0,1,.37,1.83,1.83,0,0,0,.94-.25,2,2,0,0,0,.65-.69,4.23,4.23,0,0,0,.43-1.16,6.65,6.65,0,0,0,.17-1.48c0-.06,0-.14,0-.25a2.76,2.76,0,0,1-.94.95,2.47,2.47,0,0,1-1.3.36,2.56,2.56,0,0,1-2-.9,3.41,3.41,0,0,1-.8-2.36,3.45,3.45,0,0,1,.84-2.43,2.76,2.76,0,0,1,2.13-.93,2.91,2.91,0,0,1,1.68.53,3.16,3.16,0,0,1,1.16,1.48,7.58,7.58,0,0,1,.4,2.8,9.61,9.61,0,0,1-.39,3,3.65,3.65,0,0,1-1.18,1.72,2.93,2.93,0,0,1-1.82.58,2.57,2.57,0,0,1-1.81-.64A2.86,2.86,0,0,1,330.53,324.56Zm4.75-4.39a2.51,2.51,0,0,0-.53-1.67,1.6,1.6,0,0,0-1.28-.62,1.74,1.74,0,0,0-1.35.67,2.62,2.62,0,0,0-.56,1.73,2.21,2.21,0,0,0,.54,1.54,1.72,1.72,0,0,0,1.34.6,1.65,1.65,0,0,0,1.32-.6A2.47,2.47,0,0,0,335.28,320.17Z"/><path class="cls-21" d="M337.73,322a9.21,9.21,0,0,1,.35-2.84,3.45,3.45,0,0,1,1-1.66,2.61,2.61,0,0,1,1.72-.58,2.7,2.7,0,0,1,1.35.33,2.56,2.56,0,0,1,1,.92,5.44,5.44,0,0,1,.58,1.48,9.84,9.84,0,0,1,.22,2.35,9.5,9.5,0,0,1-.35,2.83,3.5,3.5,0,0,1-1,1.66,2.83,2.83,0,0,1-3.89-.44A6.83,6.83,0,0,1,337.73,322Zm1.19,0a6.45,6.45,0,0,0,.55,3.27,1.63,1.63,0,0,0,1.36.8,1.6,1.6,0,0,0,1.36-.81,6.38,6.38,0,0,0,.55-3.26,6.57,6.57,0,0,0-.54-3.26,1.66,1.66,0,0,0-1.38-.81,1.51,1.51,0,0,0-1.3.72A6.54,6.54,0,0,0,338.92,322Z"/><path class="cls-21" d="M345.28,319.31a3.17,3.17,0,0,1,.51-1.82,1.68,1.68,0,0,1,1.47-.74,1.86,1.86,0,0,1,1.48.67,2.89,2.89,0,0,1,.58,2,2.93,2.93,0,0,1-.59,1.95,1.86,1.86,0,0,1-1.45.68,1.82,1.82,0,0,1-1.43-.67A3.09,3.09,0,0,1,345.28,319.31Zm2-1.69a.88.88,0,0,0-.73.39,2.5,2.5,0,0,0-.29,1.42,2.32,2.32,0,0,0,.29,1.33.89.89,0,0,0,1.46,0,2.55,2.55,0,0,0,.29-1.42A2.33,2.33,0,0,0,348,318,.88.88,0,0,0,347.3,317.62Zm0,9.62,5.24-10.49h1l-5.23,10.49Zm4.16-2.7a3.17,3.17,0,0,1,.51-1.82,1.69,1.69,0,0,1,1.48-.74,1.84,1.84,0,0,1,1.47.67,2.91,2.91,0,0,1,.58,2,2.83,2.83,0,0,1-.59,1.94,1.84,1.84,0,0,1-1.45.68,1.79,1.79,0,0,1-1.43-.67A3.09,3.09,0,0,1,351.46,324.54Zm2-1.69a.89.89,0,0,0-.73.39,2.54,2.54,0,0,0-.28,1.42,2.26,2.26,0,0,0,.29,1.33.85.85,0,0,0,.72.38.87.87,0,0,0,.73-.38,2.55,2.55,0,0,0,.29-1.42,2.35,2.35,0,0,0-.29-1.34A.91.91,0,0,0,353.48,322.85Z"/><path class="cls-28" d="M51.44,296.6l1.13.16a3.09,3.09,0,0,1-1,1.93,2.67,2.67,0,0,1-1.88.7,2.82,2.82,0,0,1-2.25-1,4,4,0,0,1-.85-2.77,5.31,5.31,0,0,1,.36-2,2.67,2.67,0,0,1,1.12-1.32,3.15,3.15,0,0,1,1.62-.44,2.72,2.72,0,0,1,1.82.6,2.85,2.85,0,0,1,.91,1.7l-1.14.17a2.06,2.06,0,0,0-.57-1.1,1.42,1.42,0,0,0-1-.37,1.76,1.76,0,0,0-1.41.66,3.34,3.34,0,0,0-.54,2.1,3.42,3.42,0,0,0,.52,2.12,1.69,1.69,0,0,0,1.38.66,1.57,1.57,0,0,0,1.13-.44A2.29,2.29,0,0,0,51.44,296.6Z"/><path class="cls-28" d="M53.08,295.62a3.83,3.83,0,0,1,1.06-3,3.12,3.12,0,0,1,2.16-.8,3,3,0,0,1,2.31,1,3.82,3.82,0,0,1,.9,2.69,5,5,0,0,1-.4,2.19A2.84,2.84,0,0,1,58,299a3.16,3.16,0,0,1-1.65.44,3,3,0,0,1-2.33-1A4,4,0,0,1,53.08,295.62Zm1.19,0a3.17,3.17,0,0,0,.58,2.08,1.85,1.85,0,0,0,2.89,0,3.26,3.26,0,0,0,.57-2.11,3.1,3.1,0,0,0-.58-2,1.8,1.8,0,0,0-1.43-.68,1.83,1.83,0,0,0-1.45.68A3.17,3.17,0,0,0,54.27,295.62Z"/><path class="cls-28" d="M62.66,299.23,60.06,292h1.25l1.47,4.31c.16.47.31,1,.44,1.46.11-.38.25-.84.43-1.37l1.53-4.4h1.2l-2.59,7.21Z"/><path class="cls-28" d="M71.71,298.33a4,4,0,0,1-1.24.82,3.35,3.35,0,0,1-1.28.24,2.43,2.43,0,0,1-1.75-.58,2,2,0,0,1-.61-1.48,2.07,2.07,0,0,1,.83-1.68,3,3,0,0,1,.84-.4,9.23,9.23,0,0,1,1-.18,10.57,10.57,0,0,0,2.08-.42c0-.17,0-.27,0-.32a1.42,1.42,0,0,0-.33-1.06,1.91,1.91,0,0,0-1.32-.41,2,2,0,0,0-1.22.31,1.84,1.84,0,0,0-.57,1.08L67,294.08a2.94,2.94,0,0,1,.51-1.24,2.22,2.22,0,0,1,1-.73,4.46,4.46,0,0,1,1.57-.25,3.84,3.84,0,0,1,1.43.22,1.8,1.8,0,0,1,.81.54,1.92,1.92,0,0,1,.37.83,9.13,9.13,0,0,1,.05,1.13v1.63a17.61,17.61,0,0,0,.08,2.16,2.63,2.63,0,0,0,.28.86H72A2.89,2.89,0,0,1,71.71,298.33Zm-.08-2.73a8.44,8.44,0,0,1-1.91.46,4.13,4.13,0,0,0-1,.25,1,1,0,0,0-.62,1,1.08,1.08,0,0,0,.36.83,1.48,1.48,0,0,0,1,.32,2.28,2.28,0,0,0,1.2-.31,1.77,1.77,0,0,0,.77-.85,3,3,0,0,0,.19-1.23Z"/><path class="cls-28" d="M74.57,299.23V292h1.06v1.1a2.89,2.89,0,0,1,.73-1,1.27,1.27,0,0,1,.74-.25,2.12,2.12,0,0,1,1.19.4l-.41,1.12a1.68,1.68,0,0,0-.84-.24,1,1,0,0,0-.68.24,1.33,1.33,0,0,0-.43.67,4.88,4.88,0,0,0-.19,1.42v3.77Z"/><path class="cls-28" d="M79.24,302l-.16-1.13a2.34,2.34,0,0,0,.69.11,1.32,1.32,0,0,0,.64-.13,1.09,1.09,0,0,0,.39-.38,6,6,0,0,0,.37-.92l.11-.3L78.65,292h1.24l1.45,4.16a16.28,16.28,0,0,1,.5,1.67,16.55,16.55,0,0,1,.48-1.62L83.77,292h1.16l-2.57,7.34A12.87,12.87,0,0,1,81.7,301a2.55,2.55,0,0,1-.72.89,1.74,1.74,0,0,1-1,.28A2.36,2.36,0,0,1,79.24,302Z"/><path class="cls-28" d="M86,290.66v-1.38h1.17v1.38Zm0,8.57V292h1.17v7.21Z"/><path class="cls-28" d="M88.86,299.23V292h1v1a2.43,2.43,0,0,1,2.17-1.19,2.71,2.71,0,0,1,1.14.24,1.78,1.78,0,0,1,.77.61,2.55,2.55,0,0,1,.36.91,7.77,7.77,0,0,1,.06,1.18v4.44H93.22v-4.39a3.84,3.84,0,0,0-.13-1.12,1.2,1.2,0,0,0-.48-.59,1.47,1.47,0,0,0-.8-.22,1.79,1.79,0,0,0-1.26.5,2.57,2.57,0,0,0-.53,1.88v3.94Z"/><path class="cls-28" d="M96,299.83l1.16.16a1.19,1.19,0,0,0,.4.82,1.79,1.79,0,0,0,1.17.35,1.94,1.94,0,0,0,1.23-.35,1.64,1.64,0,0,0,.59-.95,8.56,8.56,0,0,0,.09-1.58,2.37,2.37,0,0,1-1.91,1,2.57,2.57,0,0,1-2.2-1.07,4.28,4.28,0,0,1-.77-2.58,4.94,4.94,0,0,1,.35-1.9,3,3,0,0,1,1-1.35,2.67,2.67,0,0,1,1.59-.47,2.39,2.39,0,0,1,2,1.05V292h1.06v6.23a6.36,6.36,0,0,1-.32,2.39,2.42,2.42,0,0,1-1,1.11,3.43,3.43,0,0,1-1.73.41,3.19,3.19,0,0,1-2-.58A2,2,0,0,1,96,299.83Zm.95-4.34a3.26,3.26,0,0,0,.54,2.08,1.68,1.68,0,0,0,1.35.66,1.73,1.73,0,0,0,1.36-.65,3.2,3.2,0,0,0,.54-2.05,3,3,0,0,0-.56-2,1.72,1.72,0,0,0-1.36-.67,1.68,1.68,0,0,0-1.33.66A3.07,3.07,0,0,0,97,295.49Z"/><path class="cls-28" d="M107.26,299.23V292h1v1a2.53,2.53,0,0,1,.86-.86,2.39,2.39,0,0,1,1.22-.32,2.17,2.17,0,0,1,1.25.33,1.72,1.72,0,0,1,.69.93,2.45,2.45,0,0,1,2.13-1.26,2,2,0,0,1,1.57.6,2.58,2.58,0,0,1,.55,1.83v5H115.4v-4.55a3.25,3.25,0,0,0-.12-1.05,1,1,0,0,0-.41-.52,1.22,1.22,0,0,0-.69-.2,1.59,1.59,0,0,0-1.21.51,2.32,2.32,0,0,0-.47,1.62v4.19h-1.17v-4.69a2.14,2.14,0,0,0-.28-1.22,1.06,1.06,0,0,0-.93-.41,1.63,1.63,0,0,0-.9.27,1.49,1.49,0,0,0-.6.8,4.54,4.54,0,0,0-.19,1.51v3.74Z"/><path class="cls-28" d="M122.78,299.23v-1.06a2.49,2.49,0,0,1-2.18,1.22,2.56,2.56,0,0,1-1.13-.25,1.77,1.77,0,0,1-.78-.61,2.26,2.26,0,0,1-.36-.91,6,6,0,0,1-.08-1.14V292h1.17v4a7.22,7.22,0,0,0,.07,1.29,1.26,1.26,0,0,0,.47.76,1.31,1.31,0,0,0,.87.27,1.82,1.82,0,0,0,1-.28,1.56,1.56,0,0,0,.65-.76,4.26,4.26,0,0,0,.19-1.41V292h1.16v7.21Z"/><path class="cls-28" d="M128.19,298.15l.16,1.07a3.7,3.7,0,0,1-.88.12,1.9,1.9,0,0,1-1-.22,1.13,1.13,0,0,1-.49-.55,4.8,4.8,0,0,1-.14-1.45V293H125V292h.87v-1.79l1.17-.73V292h1.16V293H127v4.21a1.94,1.94,0,0,0,.07.68.45.45,0,0,0,.19.24.89.89,0,0,0,.4.08Z"/><path class="cls-28" d="M133.82,298.33a4.21,4.21,0,0,1-1.24.82,3.44,3.44,0,0,1-1.29.24,2.42,2.42,0,0,1-1.74-.58,2,2,0,0,1-.61-1.48,2.07,2.07,0,0,1,.23-1,2,2,0,0,1,.6-.71,3,3,0,0,1,.84-.4,9.23,9.23,0,0,1,1-.18,10.57,10.57,0,0,0,2.08-.42c0-.17,0-.27,0-.32a1.42,1.42,0,0,0-.33-1.06,2.43,2.43,0,0,0-2.54-.1,1.9,1.9,0,0,0-.58,1.08l-1.16-.17a2.94,2.94,0,0,1,.51-1.24,2.22,2.22,0,0,1,1-.73,4.42,4.42,0,0,1,1.57-.25,3.87,3.87,0,0,1,1.43.22,1.8,1.8,0,0,1,.81.54,2,2,0,0,1,.36.83,7.09,7.09,0,0,1,.06,1.13v1.63a21.23,21.23,0,0,0,.07,2.16,3.21,3.21,0,0,0,.28.86h-1.19A2.89,2.89,0,0,1,133.82,298.33Zm-.08-2.73a8.58,8.58,0,0,1-1.91.46,4.13,4.13,0,0,0-1,.25,1,1,0,0,0-.46.4,1.06,1.06,0,0,0-.16.58,1.07,1.07,0,0,0,.35.83,1.51,1.51,0,0,0,1,.32,2.28,2.28,0,0,0,1.2-.31,1.84,1.84,0,0,0,.78-.85,3.26,3.26,0,0,0,.18-1.23Z"/><path class="cls-28" d="M139.19,298.15l.16,1.07a3.7,3.7,0,0,1-.88.12,1.9,1.9,0,0,1-1-.22,1.13,1.13,0,0,1-.49-.55,4.48,4.48,0,0,1-.14-1.45V293H136V292h.87v-1.79l1.16-.73V292h1.17V293H138v4.21a2.34,2.34,0,0,0,.06.68.52.52,0,0,0,.2.24.89.89,0,0,0,.4.08Z"/><path class="cls-28" d="M140.37,290.66v-1.38h1.17v1.38Zm0,8.57V292h1.17v7.21Z"/><path class="cls-28" d="M142.82,295.62a3.87,3.87,0,0,1,1.06-3,3.12,3.12,0,0,1,2.16-.8,3,3,0,0,1,2.31,1,3.82,3.82,0,0,1,.9,2.69,4.89,4.89,0,0,1-.4,2.19A2.82,2.82,0,0,1,147.7,299a3.2,3.2,0,0,1-1.66.44,3,3,0,0,1-2.33-1A4,4,0,0,1,142.82,295.62Zm1.2,0a3.23,3.23,0,0,0,.57,2.08,1.82,1.82,0,0,0,1.45.69,1.77,1.77,0,0,0,1.44-.7,3.2,3.2,0,0,0,.58-2.11,3.1,3.1,0,0,0-.58-2,1.82,1.82,0,0,0-1.44-.68,1.84,1.84,0,0,0-1.45.68A3.23,3.23,0,0,0,144,295.62Z"/><path class="cls-28" d="M150.62,299.23V292h1.06v1a2.42,2.42,0,0,1,2.17-1.19,2.66,2.66,0,0,1,1.13.24,1.78,1.78,0,0,1,.77.61,2.55,2.55,0,0,1,.36.91,7.41,7.41,0,0,1,.07,1.18v4.44H155v-4.39a3.52,3.52,0,0,0-.13-1.12,1.23,1.23,0,0,0-.47-.59,1.52,1.52,0,0,0-.8-.22,1.82,1.82,0,0,0-1.27.5,2.57,2.57,0,0,0-.53,1.88v3.94Z"/><path class="cls-28" d="M157.54,297.06l1.14-.16a1.72,1.72,0,0,0,.54,1.1,2.17,2.17,0,0,0,2.41.05,1.05,1.05,0,0,0,.39-.81.75.75,0,0,0-.35-.65,5.12,5.12,0,0,0-1.19-.42,9.19,9.19,0,0,1-1.75-.59,1.71,1.71,0,0,1-.75-.68,2,2,0,0,1,0-1.86,2,2,0,0,1,.57-.69,2.16,2.16,0,0,1,.73-.35,3.22,3.22,0,0,1,1-.15,3.66,3.66,0,0,1,1.41.25,1.88,1.88,0,0,1,.89.66,2.88,2.88,0,0,1,.4,1.13l-1.14.16a1.32,1.32,0,0,0-.45-.88,1.54,1.54,0,0,0-1-.32,1.83,1.83,0,0,0-1.13.28.86.86,0,0,0-.34.66.71.71,0,0,0,.14.42,1.06,1.06,0,0,0,.45.33c.11,0,.45.15,1,.31a13.43,13.43,0,0,1,1.72.57,1.86,1.86,0,0,1,.77.64,1.83,1.83,0,0,1,.28,1.05,2.11,2.11,0,0,1-.34,1.15,2.14,2.14,0,0,1-1,.83,3.37,3.37,0,0,1-1.44.3,3.09,3.09,0,0,1-2-.59A2.8,2.8,0,0,1,157.54,297.06Z"/><path class="cls-28" d="M19.36,286.22H18.28v-10h1.16v3.54a2.31,2.31,0,0,1,1.89-1,2.77,2.77,0,0,1,1.2.27,2.39,2.39,0,0,1,.93.76A3.56,3.56,0,0,1,24,281a5,5,0,0,1,.21,1.46,4.26,4.26,0,0,1-.88,2.87,2.66,2.66,0,0,1-2.1,1,2.17,2.17,0,0,1-1.91-1.06v.9Zm0-3.66a3.88,3.88,0,0,0,.34,1.88,1.65,1.65,0,0,0,1.49.94,1.63,1.63,0,0,0,1.32-.7,3.2,3.2,0,0,0,.56-2.07,3.4,3.4,0,0,0-.53-2.09,1.61,1.61,0,0,0-1.3-.67,1.65,1.65,0,0,0-1.32.69A3.14,3.14,0,0,0,19.34,282.56Z"/><path class="cls-28" d="M30.17,285.33a4.65,4.65,0,0,1-1.24.82,3.44,3.44,0,0,1-1.29.23,2.39,2.39,0,0,1-1.74-.58,2.12,2.12,0,0,1-.38-2.45,1.79,1.79,0,0,1,.6-.7,2.51,2.51,0,0,1,.84-.4,6.85,6.85,0,0,1,1-.19,10,10,0,0,0,2.08-.42c0-.17,0-.27,0-.32a1.38,1.38,0,0,0-.33-1.05,1.88,1.88,0,0,0-1.33-.42,1.54,1.54,0,0,0-1.79,1.39l-1.16-.17a3,3,0,0,1,.51-1.24,2.29,2.29,0,0,1,1-.73,4.4,4.4,0,0,1,1.56-.25,3.89,3.89,0,0,1,1.44.22,1.8,1.8,0,0,1,.81.54,2,2,0,0,1,.36.83,7.09,7.09,0,0,1,.06,1.13v1.63a18.48,18.48,0,0,0,.07,2.16,2.89,2.89,0,0,0,.28.86H30.41A2.82,2.82,0,0,1,30.17,285.33Zm-.08-2.74a8.58,8.58,0,0,1-1.91.46,4.65,4.65,0,0,0-1,.25,1.06,1.06,0,0,0-.46.4,1.09,1.09,0,0,0-.16.59,1.07,1.07,0,0,0,.35.82,1.45,1.45,0,0,0,1,.32,2.28,2.28,0,0,0,1.2-.31,1.79,1.79,0,0,0,.77-.84,3.09,3.09,0,0,0,.19-1.24Z"/><path class="cls-28" d="M32.59,284.05l1.14-.16a1.73,1.73,0,0,0,.54,1.11,1.83,1.83,0,0,0,1.23.38,1.72,1.72,0,0,0,1.18-.34,1.05,1.05,0,0,0,.39-.81.75.75,0,0,0-.35-.65,4.94,4.94,0,0,0-1.19-.42,10.18,10.18,0,0,1-1.75-.58,1.71,1.71,0,0,1-.74-.69A2,2,0,0,1,33,280a2,2,0,0,1,.57-.69,2.62,2.62,0,0,1,.73-.35,3.22,3.22,0,0,1,1-.15,3.66,3.66,0,0,1,1.41.25,1.88,1.88,0,0,1,.89.66,2.59,2.59,0,0,1,.4,1.13l-1.14.16a1.38,1.38,0,0,0-.44-.88,1.56,1.56,0,0,0-1-.32,1.87,1.87,0,0,0-1.14.28.85.85,0,0,0-.33.66.63.63,0,0,0,.14.42.9.9,0,0,0,.44.33c.11,0,.45.15,1,.31a13.43,13.43,0,0,1,1.72.57,1.8,1.8,0,0,1,.77.64,1.83,1.83,0,0,1,.28,1.05,2.14,2.14,0,0,1-1.31,2,3.31,3.31,0,0,1-1.44.3,3.06,3.06,0,0,1-2-.59A2.76,2.76,0,0,1,32.59,284.05Z"/><path class="cls-28" d="M44.41,283.89l1.16.16a3.12,3.12,0,0,1-1,1.72,3.47,3.47,0,0,1-4.37-.36,3.91,3.91,0,0,1-.88-2.73,4.14,4.14,0,0,1,.89-2.83,3,3,0,0,1,2.32-1,2.88,2.88,0,0,1,2.26,1,4.08,4.08,0,0,1,.87,2.78v.33H40.46a2.83,2.83,0,0,0,.65,1.81,1.9,1.9,0,0,0,1.46.63,1.76,1.76,0,0,0,1.11-.36A2.36,2.36,0,0,0,44.41,283.89Zm-3.92-1.95h3.93a2.47,2.47,0,0,0-.45-1.38,1.83,1.83,0,0,0-1.48-.71,1.85,1.85,0,0,0-1.38.57A2.23,2.23,0,0,0,40.49,281.94Z"/><path class="cls-28" d="M50.66,289V279h1.05v.92a2.7,2.7,0,0,1,.85-.81,2.2,2.2,0,0,1,1.15-.28,2.59,2.59,0,0,1,1.55.48,2.9,2.9,0,0,1,1,1.34,5.1,5.1,0,0,1,.34,1.9,4.87,4.87,0,0,1-.38,2,3,3,0,0,1-1.1,1.36,2.74,2.74,0,0,1-1.51.47,2.15,2.15,0,0,1-1.05-.26,2.41,2.41,0,0,1-.76-.65V289H50.66Zm1-6.34a3.23,3.23,0,0,0,.54,2.06,1.61,1.61,0,0,0,1.31.67,1.65,1.65,0,0,0,1.33-.69,4.3,4.3,0,0,0,0-4.21,1.6,1.6,0,0,0-1.3-.68,1.64,1.64,0,0,0-1.32.73A3.31,3.31,0,0,0,51.69,282.65Z"/><path class="cls-28" d="M62.55,285.33a4.65,4.65,0,0,1-1.24.82,3.44,3.44,0,0,1-1.29.23,2.43,2.43,0,0,1-1.75-.58,2.09,2.09,0,0,1-.37-2.45,1.79,1.79,0,0,1,.6-.7,2.51,2.51,0,0,1,.84-.4,6.85,6.85,0,0,1,1-.19,10,10,0,0,0,2.08-.42v-.32a1.38,1.38,0,0,0-.32-1.05,1.88,1.88,0,0,0-1.33-.42A1.54,1.54,0,0,0,59,281.24l-1.16-.17a3,3,0,0,1,.51-1.24,2.24,2.24,0,0,1,1-.73,4.4,4.4,0,0,1,1.56-.25,3.89,3.89,0,0,1,1.44.22,1.8,1.8,0,0,1,.81.54,2,2,0,0,1,.36.83,7.09,7.09,0,0,1,.06,1.13v1.63a18.48,18.48,0,0,0,.07,2.16,2.89,2.89,0,0,0,.28.86H62.79A2.38,2.38,0,0,1,62.55,285.33Zm-.09-2.74a8.47,8.47,0,0,1-1.9.46,4.5,4.5,0,0,0-1,.25,1,1,0,0,0-.46.4,1.1,1.1,0,0,0-.17.59,1.08,1.08,0,0,0,.36.82,1.45,1.45,0,0,0,1,.32,2.28,2.28,0,0,0,1.2-.31,1.79,1.79,0,0,0,.77-.84,3.09,3.09,0,0,0,.19-1.24Z"/><path class="cls-28" d="M65.46,277.65v-1.38h1.16v1.38Zm0,8.57V279h1.16v7.21Z"/><path class="cls-28" d="M68.35,286.22V279H69.4v1.1a3,3,0,0,1,.74-1,1.24,1.24,0,0,1,.74-.25,2.11,2.11,0,0,1,1.18.4l-.41,1.12a1.68,1.68,0,0,0-.84-.24,1.09,1.09,0,0,0-.68.24,1.25,1.25,0,0,0-.42.67,4.56,4.56,0,0,0-.2,1.42v3.77Z"/><path class="cls-28" d="M80.93,285.33a4.65,4.65,0,0,1-1.24.82,3.42,3.42,0,0,1-1.28.23,2.43,2.43,0,0,1-1.75-.58,2,2,0,0,1-.61-1.48,2.07,2.07,0,0,1,.23-1,1.79,1.79,0,0,1,.6-.7,2.51,2.51,0,0,1,.84-.4,7.11,7.11,0,0,1,1-.19,9.74,9.74,0,0,0,2.08-.42c0-.17,0-.27,0-.32a1.38,1.38,0,0,0-.33-1.05,1.87,1.87,0,0,0-1.32-.42,1.91,1.91,0,0,0-1.21.31,1.79,1.79,0,0,0-.58,1.08l-1.17-.17a3.29,3.29,0,0,1,.51-1.24,2.29,2.29,0,0,1,1-.73,4.5,4.5,0,0,1,1.57-.25,3.8,3.8,0,0,1,1.43.22,1.8,1.8,0,0,1,.81.54,1.92,1.92,0,0,1,.37.83,8.58,8.58,0,0,1,.06,1.13v1.63a18.48,18.48,0,0,0,.07,2.16,2.63,2.63,0,0,0,.28.86h-1.2A2.82,2.82,0,0,1,80.93,285.33Zm-.08-2.74a8.44,8.44,0,0,1-1.91.46,4.65,4.65,0,0,0-1,.25,1.06,1.06,0,0,0-.46.4,1.09,1.09,0,0,0-.16.59,1.1,1.1,0,0,0,.35.82,1.47,1.47,0,0,0,1,.32,2.31,2.31,0,0,0,1.2-.31,1.84,1.84,0,0,0,.77-.84,3.31,3.31,0,0,0,.18-1.24Z"/><path class="cls-28" d="M83.79,286.22V279h1.06v1A2.42,2.42,0,0,1,87,278.84a2.63,2.63,0,0,1,1.13.24,1.72,1.72,0,0,1,.77.61,2.48,2.48,0,0,1,.36.91,6.42,6.42,0,0,1,.07,1.19v4.43h-1.2v-4.39a3.52,3.52,0,0,0-.13-1.12,1.23,1.23,0,0,0-.47-.59,1.52,1.52,0,0,0-.8-.22,1.82,1.82,0,0,0-1.27.5,2.57,2.57,0,0,0-.53,1.88v3.94Z"/><path class="cls-28" d="M91.15,286.22V279h1.06v1a2.42,2.42,0,0,1,2.17-1.19,2.63,2.63,0,0,1,1.13.24,1.72,1.72,0,0,1,.77.61,2.32,2.32,0,0,1,.36.91,6.42,6.42,0,0,1,.07,1.19v4.43h-1.2v-4.39a3.52,3.52,0,0,0-.13-1.12,1.23,1.23,0,0,0-.47-.59,1.52,1.52,0,0,0-.8-.22,1.82,1.82,0,0,0-1.27.5,2.57,2.57,0,0,0-.53,1.88v3.94Z"/><path class="cls-28" d="M98.08,282.61a3.79,3.79,0,0,1,1.06-3,3.06,3.06,0,0,1,2.15-.81,3,3,0,0,1,2.31,1,3.82,3.82,0,0,1,.9,2.69,5.05,5.05,0,0,1-.39,2.19,2.9,2.9,0,0,1-1.16,1.24,3.2,3.2,0,0,1-1.66.44,3,3,0,0,1-2.33-1A4,4,0,0,1,98.08,282.61Zm1.19,0a3.17,3.17,0,0,0,.58,2.08,1.85,1.85,0,0,0,2.89,0,3.26,3.26,0,0,0,.57-2.11,3.11,3.11,0,0,0-.57-2,1.87,1.87,0,0,0-2.89,0A3.17,3.17,0,0,0,99.27,282.61Z"/><path class="cls-28" d="M108.42,285.14l.17,1.08a4.39,4.39,0,0,1-.88.11,1.9,1.9,0,0,1-1-.21,1.22,1.22,0,0,1-.5-.56,4.8,4.8,0,0,1-.14-1.45V280h-.87V279h.87v-1.79l1.17-.73V279h1.16V280h-1.16v4.21a2.26,2.26,0,0,0,.06.67.52.52,0,0,0,.2.24.8.8,0,0,0,.39.09Z"/><path class="cls-28" d="M114.05,285.33a4.65,4.65,0,0,1-1.24.82,3.44,3.44,0,0,1-1.29.23,2.42,2.42,0,0,1-1.74-.58,2,2,0,0,1-.61-1.48,2.07,2.07,0,0,1,.23-1,1.79,1.79,0,0,1,.6-.7,2.51,2.51,0,0,1,.84-.4,7.11,7.11,0,0,1,1-.19,9.88,9.88,0,0,0,2.08-.42c0-.17,0-.27,0-.32a1.38,1.38,0,0,0-.33-1.05,1.87,1.87,0,0,0-1.32-.42,1.94,1.94,0,0,0-1.22.31,1.84,1.84,0,0,0-.57,1.08l-1.17-.17a3,3,0,0,1,.51-1.24,2.29,2.29,0,0,1,1-.73,4.46,4.46,0,0,1,1.57-.25,3.87,3.87,0,0,1,1.43.22,1.8,1.8,0,0,1,.81.54,1.91,1.91,0,0,1,.36.83,7.09,7.09,0,0,1,.06,1.13v1.63a21.23,21.23,0,0,0,.07,2.16,2.91,2.91,0,0,0,.29.86h-1.2A2.82,2.82,0,0,1,114.05,285.33Zm-.08-2.74a8.44,8.44,0,0,1-1.91.46,4.65,4.65,0,0,0-1,.25,1.06,1.06,0,0,0-.46.4,1.09,1.09,0,0,0-.16.59,1.1,1.1,0,0,0,.35.82,1.47,1.47,0,0,0,1,.32,2.31,2.31,0,0,0,1.2-.31,1.84,1.84,0,0,0,.77-.84A3.31,3.31,0,0,0,114,283Z"/><path class="cls-28" d="M119.42,285.14l.16,1.08a4.22,4.22,0,0,1-.87.11,1.94,1.94,0,0,1-1-.21,1.25,1.25,0,0,1-.49-.56,4.8,4.8,0,0,1-.14-1.45V280h-.87V279h.87v-1.79l1.17-.73V279h1.16V280h-1.16v4.21a2.26,2.26,0,0,0,.06.67.47.47,0,0,0,.2.24.8.8,0,0,0,.39.09Z"/><path class="cls-28" d="M120.6,277.65v-1.38h1.17v1.38Zm0,8.57V279h1.17v7.21Z"/><path class="cls-28" d="M123.05,282.61a3.83,3.83,0,0,1,1.06-3,3.08,3.08,0,0,1,2.16-.81,3,3,0,0,1,2.31,1,3.82,3.82,0,0,1,.9,2.69,4.89,4.89,0,0,1-.4,2.19,2.87,2.87,0,0,1-1.15,1.24,3.2,3.2,0,0,1-1.66.44,3,3,0,0,1-2.33-1A4,4,0,0,1,123.05,282.61Zm1.2,0a3.23,3.23,0,0,0,.57,2.08,1.82,1.82,0,0,0,1.45.69,1.77,1.77,0,0,0,1.44-.7,3.2,3.2,0,0,0,.58-2.11,3.05,3.05,0,0,0-.58-2,1.79,1.79,0,0,0-1.44-.69,1.81,1.81,0,0,0-1.44.68A3.17,3.17,0,0,0,124.25,282.61Z"/><path class="cls-28" d="M130.85,286.22V279h1.06v1a2.42,2.42,0,0,1,2.17-1.19,2.66,2.66,0,0,1,1.13.24,1.78,1.78,0,0,1,.77.61,2.48,2.48,0,0,1,.36.91,7.47,7.47,0,0,1,.07,1.19v4.43h-1.2v-4.39a3.52,3.52,0,0,0-.13-1.12,1.23,1.23,0,0,0-.47-.59,1.5,1.5,0,0,0-.8-.22,1.78,1.78,0,0,0-1.26.5,2.53,2.53,0,0,0-.53,1.88v3.94Z"/><path class="cls-28" d="M137.78,284.05l1.13-.16a1.78,1.78,0,0,0,.54,1.11,1.85,1.85,0,0,0,1.23.38,1.72,1.72,0,0,0,1.18-.34,1.05,1.05,0,0,0,.39-.81.75.75,0,0,0-.35-.65,4.94,4.94,0,0,0-1.19-.42,10.18,10.18,0,0,1-1.75-.58,1.71,1.71,0,0,1-.74-.69,2,2,0,0,1-.05-1.86,2,2,0,0,1,.57-.69,2.62,2.62,0,0,1,.73-.35,3.27,3.27,0,0,1,1-.15,3.66,3.66,0,0,1,1.41.25,1.88,1.88,0,0,1,.89.66,2.73,2.73,0,0,1,.4,1.13L142,281a1.38,1.38,0,0,0-.44-.88,1.58,1.58,0,0,0-1-.32,1.81,1.81,0,0,0-1.13.28.83.83,0,0,0-.34.66.63.63,0,0,0,.14.42.9.9,0,0,0,.44.33c.11,0,.45.15,1,.31a13.71,13.71,0,0,1,1.71.57,1.8,1.8,0,0,1,.77.64,1.83,1.83,0,0,1,.28,1.05,2.14,2.14,0,0,1-1.31,2,3.31,3.31,0,0,1-1.44.3,3.09,3.09,0,0,1-2-.59A2.79,2.79,0,0,1,137.78,284.05Z"/><path class="cls-28" d="M51.44,308.75l1.13.16a3.09,3.09,0,0,1-1,1.93,2.67,2.67,0,0,1-1.88.7,2.82,2.82,0,0,1-2.25-1,4,4,0,0,1-.85-2.77,5.4,5.4,0,0,1,.36-2.05,2.69,2.69,0,0,1,1.12-1.31,3.06,3.06,0,0,1,1.62-.44,2.72,2.72,0,0,1,1.82.6,2.85,2.85,0,0,1,.91,1.7l-1.14.17a2.06,2.06,0,0,0-.57-1.1,1.38,1.38,0,0,0-1-.37,1.76,1.76,0,0,0-1.41.66,3.34,3.34,0,0,0-.54,2.1,3.42,3.42,0,0,0,.52,2.12,1.69,1.69,0,0,0,1.38.66,1.54,1.54,0,0,0,1.13-.45A2.26,2.26,0,0,0,51.44,308.75Z"/><path class="cls-28" d="M53.08,307.77a3.82,3.82,0,0,1,1.06-3,3.12,3.12,0,0,1,2.16-.8,3,3,0,0,1,2.31,1,3.8,3.8,0,0,1,.9,2.69,5,5,0,0,1-.4,2.19A2.9,2.9,0,0,1,58,311.1a3.26,3.26,0,0,1-1.65.44,3,3,0,0,1-2.33-1A4,4,0,0,1,53.08,307.77Zm1.19,0a3.12,3.12,0,0,0,.58,2.07,1.8,1.8,0,0,0,1.45.7,1.83,1.83,0,0,0,1.44-.7,3.28,3.28,0,0,0,.57-2.11,3.08,3.08,0,0,0-.58-2A1.78,1.78,0,0,0,56.3,305a1.81,1.81,0,0,0-1.45.69A3.15,3.15,0,0,0,54.27,307.77Z"/><path class="cls-28" d="M60.88,311.38v-7.21h1v1a2.44,2.44,0,0,1,.86-.86A2.36,2.36,0,0,1,64,304a2.17,2.17,0,0,1,1.25.33,1.72,1.72,0,0,1,.69.93A2.44,2.44,0,0,1,68.06,304a2.06,2.06,0,0,1,1.57.59,2.62,2.62,0,0,1,.55,1.83v5H69v-4.55a3.64,3.64,0,0,0-.11-1.05,1,1,0,0,0-.41-.52,1.18,1.18,0,0,0-.7-.2,1.58,1.58,0,0,0-1.2.51,2.27,2.27,0,0,0-.48,1.62v4.19H65v-4.69a2.13,2.13,0,0,0-.29-1.22,1,1,0,0,0-.92-.41,1.64,1.64,0,0,0-.91.27,1.6,1.6,0,0,0-.6.8,4.87,4.87,0,0,0-.18,1.51v3.74Z"/><path class="cls-28" d="M71.87,314.14v-10h1.06v.92a2.75,2.75,0,0,1,.85-.82,2.24,2.24,0,0,1,1.14-.27,2.62,2.62,0,0,1,1.56.48,2.77,2.77,0,0,1,1,1.34,5.37,5.37,0,0,1,0,3.89,3,3,0,0,1-1.1,1.36,2.77,2.77,0,0,1-1.52.47,2.08,2.08,0,0,1-1-.26,2.41,2.41,0,0,1-.76-.65v3.51Zm1-6.33a3.23,3.23,0,0,0,.54,2.06,1.63,1.63,0,0,0,1.31.67,1.67,1.67,0,0,0,1.34-.69,3.4,3.4,0,0,0,.56-2.14,3.32,3.32,0,0,0-.55-2.07,1.6,1.6,0,0,0-1.3-.69,1.67,1.67,0,0,0-1.32.74A3.31,3.31,0,0,0,72.9,307.81Z"/><path class="cls-28" d="M83.76,310.48a4.21,4.21,0,0,1-1.24.82,3.44,3.44,0,0,1-1.29.24,2.41,2.41,0,0,1-1.74-.58,2,2,0,0,1-.61-1.49,2,2,0,0,1,.23-1,2,2,0,0,1,.6-.7,3,3,0,0,1,.84-.4,9.23,9.23,0,0,1,1-.18,10.74,10.74,0,0,0,2.08-.42c0-.17,0-.28,0-.32a1.42,1.42,0,0,0-.33-1.06A1.92,1.92,0,0,0,82,305a2,2,0,0,0-1.21.3,2,2,0,0,0-.58,1.08l-1.16-.16a2.94,2.94,0,0,1,.51-1.24,2.22,2.22,0,0,1,1-.73,4.42,4.42,0,0,1,1.57-.25,4.11,4.11,0,0,1,1.43.21,1.89,1.89,0,0,1,.81.55,2,2,0,0,1,.36.83,7.09,7.09,0,0,1,.06,1.13v1.63a21.23,21.23,0,0,0,.07,2.16,2.65,2.65,0,0,0,.29.86H84A2.89,2.89,0,0,1,83.76,310.48Zm-.08-2.74a8.49,8.49,0,0,1-1.91.47,4.13,4.13,0,0,0-1,.25,1,1,0,0,0-.46.4,1.13,1.13,0,0,0,.19,1.4,1.48,1.48,0,0,0,1,.33,2.27,2.27,0,0,0,1.19-.31,1.83,1.83,0,0,0,.78-.85,3.26,3.26,0,0,0,.18-1.23Z"/><path class="cls-28" d="M89.13,310.3l.16,1.07a3.7,3.7,0,0,1-.88.12,1.9,1.9,0,0,1-1-.22,1.13,1.13,0,0,1-.49-.55,4.8,4.8,0,0,1-.14-1.45v-4.16h-.87v-.94h.87v-1.79l1.16-.73v2.52h1.17v.94H88v4.21A2.79,2.79,0,0,0,88,310a.59.59,0,0,0,.21.24.81.81,0,0,0,.39.08Z"/><path class="cls-28" d="M90.31,302.81v-1.38h1.17v1.38Zm0,8.57v-7.21h1.17v7.21Z"/><path class="cls-28" d="M94.26,311.38H93.17v-9.95h1.17V305a2.26,2.26,0,0,1,1.88-1,2.77,2.77,0,0,1,1.2.27,2.57,2.57,0,0,1,.94.75,3.93,3.93,0,0,1,.57,1.18,4.91,4.91,0,0,1,.21,1.46,4.23,4.23,0,0,1-.88,2.87,2.68,2.68,0,0,1-2.09,1,2.18,2.18,0,0,1-1.91-1.06v.9Zm0-3.66a3.81,3.81,0,0,0,.34,1.87,1.62,1.62,0,0,0,2.81.25,3.21,3.21,0,0,0,.56-2.07,3.31,3.31,0,0,0-.53-2.09,1.62,1.62,0,0,0-1.3-.68,1.66,1.66,0,0,0-1.32.7A3.12,3.12,0,0,0,94.23,307.72Z"/><path class="cls-28" d="M100.53,311.38v-9.95h1.17v9.95Z"/><path class="cls-28" d="M108.26,309.05l1.17.16a3.13,3.13,0,0,1-1.06,1.72,3,3,0,0,1-2,.61,3,3,0,0,1-2.39-1,3.88,3.88,0,0,1-.89-2.73A4.13,4.13,0,0,1,104,305a3,3,0,0,1,2.33-1,2.87,2.87,0,0,1,2.25,1,4.08,4.08,0,0,1,.88,2.78c0,.07,0,.18,0,.33h-5.15a2.84,2.84,0,0,0,.66,1.81,1.89,1.89,0,0,0,1.45.63,1.72,1.72,0,0,0,1.11-.36A2.39,2.39,0,0,0,108.26,309.05Zm-3.92-2h3.93a2.44,2.44,0,0,0-.45-1.37,1.82,1.82,0,0,0-1.48-.72,1.85,1.85,0,0,0-1.38.57A2.32,2.32,0,0,0,104.34,307.09Z"/><path class="cls-28" d="M114.54,311.38v-7.21h1v1a2.53,2.53,0,0,1,.86-.86,2.39,2.39,0,0,1,1.22-.32,2.23,2.23,0,0,1,1.26.33,1.75,1.75,0,0,1,.68.93,2.47,2.47,0,0,1,2.13-1.26,2.06,2.06,0,0,1,1.57.59,2.62,2.62,0,0,1,.55,1.83v5h-1.16v-4.55a3.25,3.25,0,0,0-.12-1.05,1,1,0,0,0-.41-.52,1.15,1.15,0,0,0-.69-.2,1.55,1.55,0,0,0-1.2.51,2.27,2.27,0,0,0-.48,1.62v4.19h-1.17v-4.69a2.14,2.14,0,0,0-.28-1.22,1.06,1.06,0,0,0-.93-.41,1.63,1.63,0,0,0-.9.27,1.49,1.49,0,0,0-.6.8,4.54,4.54,0,0,0-.19,1.51v3.74Z"/><path class="cls-28" d="M130.06,311.38v-1.07a2.47,2.47,0,0,1-2.18,1.23,2.56,2.56,0,0,1-1.13-.25,1.82,1.82,0,0,1-.78-.61,2.26,2.26,0,0,1-.36-.91,6,6,0,0,1-.08-1.14v-4.46h1.17v4a8.37,8.37,0,0,0,.07,1.29,1.31,1.31,0,0,0,.47.76,1.37,1.37,0,0,0,.87.27,1.8,1.8,0,0,0,1-.28,1.56,1.56,0,0,0,.65-.76,4.26,4.26,0,0,0,.19-1.41v-3.86h1.16v7.21Z"/><path class="cls-28" d="M135.47,310.3l.16,1.07a3.7,3.7,0,0,1-.88.12,1.9,1.9,0,0,1-1-.22,1.18,1.18,0,0,1-.49-.55,4.8,4.8,0,0,1-.14-1.45v-4.16h-.87v-.94h.87v-1.79l1.17-.73v2.52h1.16v.94h-1.16v4.21a2.34,2.34,0,0,0,.06.68.56.56,0,0,0,.2.24.81.81,0,0,0,.39.08Z"/><path class="cls-28" d="M141.1,310.48a4.21,4.21,0,0,1-1.24.82,3.44,3.44,0,0,1-1.29.24,2.42,2.42,0,0,1-1.74-.58,2,2,0,0,1-.61-1.49,2,2,0,0,1,.23-1,2,2,0,0,1,.6-.7,3,3,0,0,1,.84-.4,9.23,9.23,0,0,1,1-.18,10.57,10.57,0,0,0,2.08-.42c0-.17,0-.28,0-.32a1.42,1.42,0,0,0-.33-1.06,1.92,1.92,0,0,0-1.33-.41,2,2,0,0,0-1.21.3,1.91,1.91,0,0,0-.57,1.08l-1.17-.16a2.94,2.94,0,0,1,.51-1.24,2.22,2.22,0,0,1,1-.73,4.42,4.42,0,0,1,1.57-.25,4.11,4.11,0,0,1,1.43.21,1.89,1.89,0,0,1,.81.55,1.8,1.8,0,0,1,.36.83,7.09,7.09,0,0,1,.06,1.13v1.63a21.23,21.23,0,0,0,.07,2.16,2.91,2.91,0,0,0,.29.86h-1.2A2.89,2.89,0,0,1,141.1,310.48Zm-.08-2.74a8.49,8.49,0,0,1-1.91.47,4.13,4.13,0,0,0-1,.25,1,1,0,0,0-.46.4,1.13,1.13,0,0,0,.19,1.4,1.48,1.48,0,0,0,1,.33,2.28,2.28,0,0,0,1.2-.31,1.87,1.87,0,0,0,.77-.85,3.26,3.26,0,0,0,.18-1.23Z"/><path class="cls-28" d="M146.47,310.3l.16,1.07a3.69,3.69,0,0,1-.87.12,1.94,1.94,0,0,1-1-.22,1.18,1.18,0,0,1-.49-.55,4.8,4.8,0,0,1-.14-1.45v-4.16h-.87v-.94h.87v-1.79l1.17-.73v2.52h1.16v.94h-1.16v4.21a2.34,2.34,0,0,0,.06.68.56.56,0,0,0,.2.24.81.81,0,0,0,.39.08Z"/><path class="cls-28" d="M147.65,302.81v-1.38h1.17v1.38Zm0,8.57v-7.21h1.17v7.21Z"/><path class="cls-28" d="M150.1,307.77a3.85,3.85,0,0,1,1.06-3,3.12,3.12,0,0,1,2.16-.8,3,3,0,0,1,2.31,1,3.8,3.8,0,0,1,.9,2.69,4.89,4.89,0,0,1-.4,2.19A2.87,2.87,0,0,1,155,311.1a3.3,3.3,0,0,1-1.66.44,3,3,0,0,1-2.33-1A4,4,0,0,1,150.1,307.77Zm1.2,0a3.18,3.18,0,0,0,.57,2.07,1.83,1.83,0,0,0,1.45.7,1.8,1.8,0,0,0,1.44-.7,3.22,3.22,0,0,0,.58-2.11,3.08,3.08,0,0,0-.58-2,1.79,1.79,0,0,0-1.44-.69,1.82,1.82,0,0,0-1.45.69A3.21,3.21,0,0,0,151.3,307.77Z"/><path class="cls-28" d="M157.9,311.38v-7.21H159v1a2.42,2.42,0,0,1,2.17-1.19,2.63,2.63,0,0,1,1.13.24,1.72,1.72,0,0,1,.77.61,2.33,2.33,0,0,1,.36.9,7.66,7.66,0,0,1,.07,1.19v4.44h-1.2V307a3.52,3.52,0,0,0-.13-1.12,1.19,1.19,0,0,0-.47-.59,1.44,1.44,0,0,0-.8-.22,1.81,1.81,0,0,0-1.27.49,2.59,2.59,0,0,0-.53,1.89v3.94Z"/><path class="cls-28" d="M164.82,309.21,166,309a1.75,1.75,0,0,0,.54,1.11,1.78,1.78,0,0,0,1.23.39,1.73,1.73,0,0,0,1.18-.35,1,1,0,0,0,.39-.8.77.77,0,0,0-.35-.66,5.28,5.28,0,0,0-1.19-.41,10.49,10.49,0,0,1-1.76-.59,1.74,1.74,0,0,1-.74-.68,2,2,0,0,1-.25-1,2,2,0,0,1,.78-1.58,2.36,2.36,0,0,1,.73-.36,3.55,3.55,0,0,1,1-.14,3.66,3.66,0,0,1,1.41.25,1.88,1.88,0,0,1,.89.66,2.88,2.88,0,0,1,.4,1.13l-1.14.16a1.32,1.32,0,0,0-.45-.88,1.54,1.54,0,0,0-1-.32,1.85,1.85,0,0,0-1.13.28.85.85,0,0,0-.34.65.68.68,0,0,0,.15.43,1,1,0,0,0,.44.33c.11,0,.45.15,1,.31a13.43,13.43,0,0,1,1.72.57,1.86,1.86,0,0,1,.77.64,1.82,1.82,0,0,1,.28,1,2.06,2.06,0,0,1-.34,1.15,2.16,2.16,0,0,1-1,.84,3.34,3.34,0,0,1-1.44.3,3.09,3.09,0,0,1-2-.59A2.85,2.85,0,0,1,164.82,309.21Z"/><path class="cls-28" d="M47,323.53v-7.22H48v1a2.4,2.4,0,0,1,2.17-1.19,2.78,2.78,0,0,1,1.13.23,1.81,1.81,0,0,1,.77.62,2.27,2.27,0,0,1,.36.9,6.49,6.49,0,0,1,.07,1.19v4.44h-1.2v-4.39a3.52,3.52,0,0,0-.13-1.12,1.19,1.19,0,0,0-.47-.59,1.44,1.44,0,0,0-.8-.22,1.77,1.77,0,0,0-1.26.49,2.53,2.53,0,0,0-.54,1.88v3.95Z"/><path class="cls-28" d="M53.89,319.92A3.8,3.8,0,0,1,55,317a3.11,3.11,0,0,1,2.15-.8,3,3,0,0,1,2.32,1,3.83,3.83,0,0,1,.89,2.7,5.05,5.05,0,0,1-.39,2.19,2.9,2.9,0,0,1-1.16,1.24,3.27,3.27,0,0,1-1.66.44,3,3,0,0,1-2.32-1A4,4,0,0,1,53.89,319.92Zm1.19,0a3.14,3.14,0,0,0,.58,2.07,1.76,1.76,0,0,0,1.44.69,1.82,1.82,0,0,0,1.45-.69,3.29,3.29,0,0,0,.57-2.12,3.07,3.07,0,0,0-.58-2,1.85,1.85,0,0,0-2.88,0A3.15,3.15,0,0,0,55.08,319.92Z"/><path class="cls-28" d="M65.36,323.53v-7.22h1v1a2.56,2.56,0,0,1,.85-.85,2.4,2.4,0,0,1,1.23-.32,2.19,2.19,0,0,1,1.25.33,1.82,1.82,0,0,1,.69.93,2.44,2.44,0,0,1,2.12-1.26,2,2,0,0,1,1.57.59,2.62,2.62,0,0,1,.56,1.83v5H73.5V319a3.77,3.77,0,0,0-.11-1.06,1.08,1.08,0,0,0-.41-.51,1.2,1.2,0,0,0-.7-.2,1.61,1.61,0,0,0-1.2.5,2.32,2.32,0,0,0-.48,1.63v4.19H69.43v-4.69a2.14,2.14,0,0,0-.28-1.22,1.05,1.05,0,0,0-.92-.41,1.64,1.64,0,0,0-.91.27,1.49,1.49,0,0,0-.6.8,4.54,4.54,0,0,0-.19,1.51v3.74Z"/><path class="cls-28" d="M80.89,323.53v-1.07a2.49,2.49,0,0,1-2.18,1.23,2.57,2.57,0,0,1-1.14-.25,1.9,1.9,0,0,1-.78-.61,2.41,2.41,0,0,1-.36-.91,6.28,6.28,0,0,1-.07-1.14v-4.47h1.17v4a7.22,7.22,0,0,0,.07,1.29,1.28,1.28,0,0,0,.46.76,1.42,1.42,0,0,0,.88.27,1.82,1.82,0,0,0,1-.28,1.47,1.47,0,0,0,.64-.77,3.94,3.94,0,0,0,.19-1.41v-3.86h1.17v7.22Z"/><path class="cls-28" d="M86.29,322.44l.17,1.08a3.7,3.7,0,0,1-.88.11,1.9,1.9,0,0,1-1-.21,1.08,1.08,0,0,1-.49-.55,4.39,4.39,0,0,1-.15-1.45v-4.16H83.1v-.95H84v-1.78l1.17-.73v2.51H86.3v.95H85.13v4.21a2.26,2.26,0,0,0,.06.67.52.52,0,0,0,.2.24.7.7,0,0,0,.39.09Z"/><path class="cls-28" d="M91.92,322.63a4,4,0,0,1-1.24.82,3.43,3.43,0,0,1-1.28.24,2.43,2.43,0,0,1-1.75-.58,2,2,0,0,1-.61-1.49,2.13,2.13,0,0,1,.23-1,2.08,2.08,0,0,1,.61-.7,2.51,2.51,0,0,1,.84-.4,9,9,0,0,1,1-.18,10.71,10.71,0,0,0,2.09-.42v-.32a1.42,1.42,0,0,0-.33-1.06,1.85,1.85,0,0,0-1.32-.41,2,2,0,0,0-1.21.3,1.88,1.88,0,0,0-.58,1.08l-1.17-.16a3.15,3.15,0,0,1,.51-1.24,2.27,2.27,0,0,1,1-.73,4.5,4.5,0,0,1,1.57-.25,4,4,0,0,1,1.43.21,1.89,1.89,0,0,1,.81.55,1.92,1.92,0,0,1,.37.83,8.46,8.46,0,0,1,.06,1.13v1.63a18.48,18.48,0,0,0,.07,2.16,2.71,2.71,0,0,0,.28.86h-1.2A3,3,0,0,1,91.92,322.63Zm-.08-2.74a8.35,8.35,0,0,1-1.91.47,3.53,3.53,0,0,0-1,.25,1,1,0,0,0-.47.4,1.12,1.12,0,0,0,.2,1.4,1.43,1.43,0,0,0,1,.33,2.28,2.28,0,0,0,1.2-.31,1.86,1.86,0,0,0,.77-.85,3.25,3.25,0,0,0,.19-1.24Z"/><path class="cls-28" d="M97.29,322.44l.17,1.08a3.7,3.7,0,0,1-.88.11,1.9,1.9,0,0,1-1-.21,1.15,1.15,0,0,1-.5-.55,4.8,4.8,0,0,1-.14-1.45v-4.16h-.87v-.95H95v-1.78l1.17-.73v2.51h1.16v.95H96.13v4.21a2.26,2.26,0,0,0,.06.67.52.52,0,0,0,.2.24.7.7,0,0,0,.39.09Z"/><path class="cls-28" d="M98.47,315v-1.39h1.17V315Zm0,8.57v-7.22h1.17v7.22Z"/><path class="cls-28" d="M100.93,319.92a3.8,3.8,0,0,1,1.06-3,3.1,3.1,0,0,1,2.15-.8,3,3,0,0,1,2.31,1,3.83,3.83,0,0,1,.9,2.7A5.05,5.05,0,0,1,107,322a2.9,2.9,0,0,1-1.16,1.24,3.27,3.27,0,0,1-1.66.44,3,3,0,0,1-2.33-1A4,4,0,0,1,100.93,319.92Zm1.19,0a3.14,3.14,0,0,0,.58,2.07,1.79,1.79,0,0,0,1.44.69,1.82,1.82,0,0,0,1.45-.69,3.29,3.29,0,0,0,.57-2.12,3.07,3.07,0,0,0-.58-2,1.85,1.85,0,0,0-2.88,0A3.15,3.15,0,0,0,102.12,319.92Z"/><path class="cls-28" d="M108.72,323.53v-7.22h1.06v1a2.4,2.4,0,0,1,2.17-1.19,2.78,2.78,0,0,1,1.13.23,1.9,1.9,0,0,1,.78.62,2.26,2.26,0,0,1,.35.9,6.49,6.49,0,0,1,.07,1.19v4.44h-1.19v-4.39A3.47,3.47,0,0,0,113,318a1.09,1.09,0,0,0-.47-.59,1.41,1.41,0,0,0-.8-.22,1.77,1.77,0,0,0-1.26.49,2.53,2.53,0,0,0-.53,1.88v3.95Z"/><path class="cls-28" d="M115.65,321.35l1.14-.16a1.68,1.68,0,0,0,.54,1.11,1.78,1.78,0,0,0,1.23.39,1.73,1.73,0,0,0,1.18-.35,1,1,0,0,0,.38-.8.74.74,0,0,0-.35-.66,4.51,4.51,0,0,0-1.18-.41,10.17,10.17,0,0,1-1.76-.59,1.74,1.74,0,0,1-.74-.68,1.92,1.92,0,0,1-.25-1,2.12,2.12,0,0,1,.2-.9,2,2,0,0,1,.57-.68,2.43,2.43,0,0,1,.74-.36,3.53,3.53,0,0,1,1-.14,3.78,3.78,0,0,1,1.41.24,1.94,1.94,0,0,1,.9.67,2.68,2.68,0,0,1,.39,1.12l-1.13.17a1.36,1.36,0,0,0-.45-.88,1.54,1.54,0,0,0-1-.32,1.77,1.77,0,0,0-1.13.28.82.82,0,0,0-.34.65.74.74,0,0,0,.14.43,1.11,1.11,0,0,0,.44.33c.12,0,.46.15,1,.31a12.62,12.62,0,0,1,1.71.57,1.76,1.76,0,0,1,.78.64,1.9,1.9,0,0,1,.28,1,2.21,2.21,0,0,1-1.31,2,3.53,3.53,0,0,1-1.44.3,3.09,3.09,0,0,1-2-.59A2.75,2.75,0,0,1,115.65,321.35Z"/><path class="cls-28" d="M125.94,319.92a3.84,3.84,0,0,1,1.06-3,3.12,3.12,0,0,1,2.16-.8,3,3,0,0,1,2.31,1,3.83,3.83,0,0,1,.9,2.7A4.89,4.89,0,0,1,132,322a2.87,2.87,0,0,1-1.15,1.24,3.3,3.3,0,0,1-1.66.44,3,3,0,0,1-2.33-1A4,4,0,0,1,125.94,319.92Zm1.2,0a3.19,3.19,0,0,0,.57,2.07,1.86,1.86,0,0,0,2.89,0,3.23,3.23,0,0,0,.58-2.12,3.07,3.07,0,0,0-.58-2,1.79,1.79,0,0,0-1.44-.69,1.82,1.82,0,0,0-1.45.69A3.21,3.21,0,0,0,127.14,319.92Z"/><path class="cls-28" d="M134.8,323.53h-1.09v-10h1.17v3.55a2.26,2.26,0,0,1,1.88-1,2.74,2.74,0,0,1,1.2.27,2.57,2.57,0,0,1,.94.75,3.87,3.87,0,0,1,.57,1.17,5,5,0,0,1,.21,1.47,4.23,4.23,0,0,1-.88,2.87,2.68,2.68,0,0,1-2.09,1,2.17,2.17,0,0,1-1.91-1.07v.91Zm0-3.66a3.83,3.83,0,0,0,.34,1.87,1.67,1.67,0,0,0,1.49.95,1.69,1.69,0,0,0,1.33-.7,4.21,4.21,0,0,0,0-4.16,1.62,1.62,0,0,0-1.3-.68,1.66,1.66,0,0,0-1.32.7A3.18,3.18,0,0,0,134.77,319.87Z"/><path class="cls-28" d="M140.66,321.35l1.14-.16a1.6,1.6,0,0,0,1.77,1.5,1.71,1.71,0,0,0,1.18-.35,1,1,0,0,0,.39-.8.77.77,0,0,0-.35-.66,4.8,4.8,0,0,0-1.19-.41,10,10,0,0,1-1.75-.59,1.64,1.64,0,0,1-.74-.68,1.93,1.93,0,0,1-.26-1,2,2,0,0,1,.78-1.58,2.36,2.36,0,0,1,.73-.36,3.55,3.55,0,0,1,1-.14,3.86,3.86,0,0,1,1.41.24,2,2,0,0,1,.89.67,2.55,2.55,0,0,1,.4,1.12l-1.14.17a1.35,1.35,0,0,0-.44-.88,1.56,1.56,0,0,0-1-.32,1.8,1.8,0,0,0-1.14.28.83.83,0,0,0-.33.65.67.67,0,0,0,.14.43,1,1,0,0,0,.44.33c.11,0,.45.15,1,.31a13.43,13.43,0,0,1,1.72.57,1.73,1.73,0,0,1,.77.64,1.82,1.82,0,0,1,.28,1,2.16,2.16,0,0,1-.33,1.15,2.19,2.19,0,0,1-1,.84,3.46,3.46,0,0,1-1.44.3,3.06,3.06,0,0,1-2-.59A2.76,2.76,0,0,1,140.66,321.35Z"/><path class="cls-28" d="M152.48,321.2l1.16.16a2.88,2.88,0,0,1-3,2.33,3.08,3.08,0,0,1-2.4-1,3.9,3.9,0,0,1-.88-2.73,4.13,4.13,0,0,1,.89-2.82,2.94,2.94,0,0,1,2.32-1,2.88,2.88,0,0,1,2.26,1,4.06,4.06,0,0,1,.87,2.78v.33h-5.15a2.83,2.83,0,0,0,.65,1.81,1.92,1.92,0,0,0,1.46.63,1.76,1.76,0,0,0,1.11-.36A2.39,2.39,0,0,0,152.48,321.2Zm-3.92-2h3.93a2.44,2.44,0,0,0-.45-1.37,1.81,1.81,0,0,0-1.48-.72,1.85,1.85,0,0,0-1.38.57A2.27,2.27,0,0,0,148.56,319.24Z"/><path class="cls-28" d="M155.08,323.53v-7.22h1v1.11a2.89,2.89,0,0,1,.74-1,1.17,1.17,0,0,1,.73-.25,2.18,2.18,0,0,1,1.19.39l-.41,1.13a1.6,1.6,0,0,0-.84-.25,1,1,0,0,0-.68.25,1.26,1.26,0,0,0-.42.66,5,5,0,0,0-.2,1.43v3.77Z"/><path class="cls-28" d="M161.7,323.53l-2.59-7.22h1.25l1.47,4.32c.16.47.31.95.44,1.46.1-.39.25-.84.43-1.38l1.54-4.4h1.19l-2.59,7.22Z"/><path class="cls-28" d="M171.06,321.2l1.17.16a3.08,3.08,0,0,1-1.06,1.72,3.11,3.11,0,0,1-2,.61,3.08,3.08,0,0,1-2.39-1,3.9,3.9,0,0,1-.89-2.73,4.08,4.08,0,0,1,.9-2.82,2.91,2.91,0,0,1,2.32-1,2.86,2.86,0,0,1,2.25,1,4,4,0,0,1,.88,2.78c0,.07,0,.18,0,.33h-5.15a2.78,2.78,0,0,0,.66,1.81,1.89,1.89,0,0,0,1.45.63,1.72,1.72,0,0,0,1.11-.36A2.39,2.39,0,0,0,171.06,321.2Zm-3.92-2h3.93a2.44,2.44,0,0,0-.45-1.37,1.79,1.79,0,0,0-1.47-.72,1.89,1.89,0,0,0-1.39.57A2.32,2.32,0,0,0,167.14,319.24Z"/><path class="cls-28" d="M178.11,323.53v-.91a2.13,2.13,0,0,1-1.92,1.07,2.61,2.61,0,0,1-1.52-.48,3,3,0,0,1-1.06-1.32,4.7,4.7,0,0,1-.38-2,5.3,5.3,0,0,1,.34-2,2.79,2.79,0,0,1,1-1.35,2.68,2.68,0,0,1,1.53-.47,2.28,2.28,0,0,1,1.11.27,2.35,2.35,0,0,1,.79.71v-3.56h1.17v9.95h-1.09Zm-3.69-3.61A3.27,3.27,0,0,0,175,322a1.67,1.67,0,0,0,1.32.68,1.64,1.64,0,0,0,1.3-.65,3.13,3.13,0,0,0,.54-2,3.51,3.51,0,0,0-.55-2.17,1.62,1.62,0,0,0-2.65,0A3.42,3.42,0,0,0,174.42,319.92Z"/><rect class="cls-29" x="17.43" y="316.49" width="6.73" height="7.02"/><rect class="cls-29" x="33.37" y="316.49" width="6.73" height="7.02"/><rect class="cls-29" x="24.16" y="316.49" width="9.2" height="7.02"/><line class="cls-30" x1="28.76" y1="320.47" x2="28.76" y2="319.53"/><rect class="cls-31" x="33.37" y="292.12" width="7.02" height="6.73"/><rect class="cls-31" x="17.43" y="292.12" width="7.02" height="6.73"/><rect class="cls-31" x="24.45" y="292.12" width="8.91" height="6.73"/><line class="cls-23" x1="30.18" y1="295.48" x2="27.64" y2="295.48"/><rect class="cls-32" x="33.37" y="304.38" width="7.02" height="6.73"/><rect class="cls-32" x="17.43" y="304.38" width="7.02" height="6.73"/><rect class="cls-32" x="24.45" y="304.38" width="8.91" height="6.73"/><line class="cls-23" x1="30.18" y1="307.74" x2="27.64" y2="307.74"/><path class="cls-33" d="M15.77,368.73v-10h4.4a5.77,5.77,0,0,1,2,.27,2.23,2.23,0,0,1,1.1.94,2.92,2.92,0,0,1,.41,1.5,2.53,2.53,0,0,1-.68,1.79,3.45,3.45,0,0,1-2.1.92,3.38,3.38,0,0,1,.79.5A6.7,6.7,0,0,1,22.78,366l1.72,2.71H22.86l-1.31-2.07c-.38-.6-.7-1.05-.94-1.37a3,3,0,0,0-.67-.67,2,2,0,0,0-.59-.26,4,4,0,0,0-.73-.05H17.1v4.42Zm1.33-5.58h2.81a4.28,4.28,0,0,0,1.4-.19,1.46,1.46,0,0,0,.76-.59,1.62,1.62,0,0,0,.26-.88,1.46,1.46,0,0,0-.51-1.15,2.35,2.35,0,0,0-1.6-.45H17.1Z"/><path class="cls-33" d="M35.86,362.9H29.3v-1.14h6.56v1.14Zm0,3H29.3v-1.14h6.56v1.14Z"/><path class="cls-33" d="M40.49,368.73l3.81-10h1.46l4,10H48.27l-1.14-3H43l-1.08,3Zm2.86-4.09h3.38l-1-2.74c-.31-.84-.54-1.53-.7-2.06a10.68,10.68,0,0,1-.54,1.89Z"/><path class="cls-33" d="M54.09,365.12a3.71,3.71,0,0,1,1.11-3,3.34,3.34,0,0,1,2.27-.81,3.24,3.24,0,0,1,2.43,1,3.71,3.71,0,0,1,.94,2.69,4.74,4.74,0,0,1-.42,2.19,2.9,2.9,0,0,1-1.21,1.24,3.47,3.47,0,0,1-1.74.45,3.24,3.24,0,0,1-2.45-1A3.88,3.88,0,0,1,54.09,365.12Zm1.24,0a3.09,3.09,0,0,0,.61,2.08,1.94,1.94,0,0,0,1.53.69A1.91,1.91,0,0,0,59,367.2a3.14,3.14,0,0,0,.61-2.12,3,3,0,0,0-.61-2,1.93,1.93,0,0,0-1.51-.69,2,2,0,0,0-1.53.68A3.11,3.11,0,0,0,55.33,365.12Z"/><path class="cls-33" d="M62.24,368.73v-7.21h1.09v1.1a3.23,3.23,0,0,1,.77-1,1.4,1.4,0,0,1,.79-.25,2.45,2.45,0,0,1,1.26.4l-.43,1.12a1.86,1.86,0,0,0-.89-.24,1.15,1.15,0,0,0-.71.24,1.29,1.29,0,0,0-.45.67,4.6,4.6,0,0,0-.21,1.42v3.77Z"/><path class="cls-33" d="M75.55,364.83v-1.17h4.2v3.68a6.93,6.93,0,0,1-2,1.16,5.89,5.89,0,0,1-2.11.39,5.7,5.7,0,0,1-2.66-.62,4.16,4.16,0,0,1-1.81-1.81,5.85,5.85,0,0,1-.61-2.66,6.11,6.11,0,0,1,.61-2.71,4,4,0,0,1,1.74-1.86,5.42,5.42,0,0,1,2.62-.61,5.06,5.06,0,0,1,2,.35,3.21,3.21,0,0,1,1.37,1,4.37,4.37,0,0,1,.75,1.64l-1.22.32a3.77,3.77,0,0,0-.55-1.19,2.23,2.23,0,0,0-1-.69,3.3,3.3,0,0,0-1.36-.26A4.09,4.09,0,0,0,74,360a2.9,2.9,0,0,0-1,.73,3.25,3.25,0,0,0-.62,1,5.06,5.06,0,0,0-.38,2,4.9,4.9,0,0,0,.45,2.22,3,3,0,0,0,1.33,1.33,4.07,4.07,0,0,0,1.85.44,4.34,4.34,0,0,0,1.65-.33,4.29,4.29,0,0,0,1.23-.71v-1.86Z"/><path class="cls-33" d="M81.87,368.73v-1.38h1.39v1.38Z"/><path class="cls-33" d="M92.21,368.73v-4.21l-3.82-5.74H90l1.94,3c.37.55.72,1.12,1,1.68.32-.52.68-1.11,1.1-1.76L96,358.78H97.5l-4,5.74v4.21Z"/><path class="cls-33" d="M108.78,362.9h-6.56v-1.14h6.56Zm0,3h-6.56v-1.14h6.56Z"/><path class="cls-33" d="M121.59,365.23l1.33.33a4.43,4.43,0,0,1-1.49,2.48,4.09,4.09,0,0,1-2.63.85,4.76,4.76,0,0,1-2.61-.65,4.11,4.11,0,0,1-1.53-1.9,6.72,6.72,0,0,1-.53-2.66,5.92,5.92,0,0,1,.59-2.71,4.16,4.16,0,0,1,1.69-1.76,5,5,0,0,1,2.42-.6,4.13,4.13,0,0,1,2.51.76,3.9,3.9,0,0,1,1.41,2.14l-1.3.31a3.07,3.07,0,0,0-1-1.58,2.74,2.74,0,0,0-1.65-.49,3.18,3.18,0,0,0-1.92.55,2.88,2.88,0,0,0-1.08,1.47,5.82,5.82,0,0,0-.31,1.9,6.11,6.11,0,0,0,.36,2.2,2.76,2.76,0,0,0,1.15,1.41,3.15,3.15,0,0,0,1.69.47,2.83,2.83,0,0,0,1.86-.63A3.23,3.23,0,0,0,121.59,365.23Z"/><path class="cls-33" d="M127.77,365.12a3.68,3.68,0,0,1,1.12-3,3.3,3.3,0,0,1,2.26-.81,3.24,3.24,0,0,1,2.43,1,3.71,3.71,0,0,1,.94,2.69,4.75,4.75,0,0,1-.41,2.19,2.92,2.92,0,0,1-1.22,1.24,3.47,3.47,0,0,1-1.74.45,3.22,3.22,0,0,1-2.44-1A3.84,3.84,0,0,1,127.77,365.12Zm1.25,0a3,3,0,0,0,.61,2.08,2,2,0,0,0,3,0,3.14,3.14,0,0,0,.61-2.12,3,3,0,0,0-.61-2,2,2,0,0,0-3,0A3.06,3.06,0,0,0,129,365.12Z"/><path class="cls-33" d="M135.93,368.73v-7.21H137v1.1a3.09,3.09,0,0,1,.78-1,1.39,1.39,0,0,1,.78-.25,2.42,2.42,0,0,1,1.26.4l-.43,1.12a1.82,1.82,0,0,0-.88-.24,1.18,1.18,0,0,0-.72.24,1.29,1.29,0,0,0-.45.67,4.6,4.6,0,0,0-.2,1.42v3.77Z"/><path class="cls-33" d="M151.11,358.78h1.33v5.75a6.94,6.94,0,0,1-.34,2.38,2.92,2.92,0,0,1-1.23,1.43,4.31,4.31,0,0,1-2.32.55,4.76,4.76,0,0,1-2.28-.48A2.71,2.71,0,0,1,145,367a6.53,6.53,0,0,1-.38-2.5v-5.74H146v5.72a5.57,5.57,0,0,0,.24,1.9,1.8,1.8,0,0,0,.82.94,2.84,2.84,0,0,0,1.42.33,2.76,2.76,0,0,0,2.06-.65,3.79,3.79,0,0,0,.61-2.52v-5.72Z"/><path class="cls-33" d="M154.79,368.73v-1.38h1.38v1.38Z"/><path class="cls-33" d="M163.15,360.49v1.38h-1.3v-1.11a3.24,3.24,0,0,1,.2-1.32,1.82,1.82,0,0,1,.86-.83l.32.48a1,1,0,0,0-.52.47,2,2,0,0,0-.19.92h.63Zm2.09,0v1.38h-1.3v-1.11a3.24,3.24,0,0,1,.2-1.32,1.78,1.78,0,0,1,.86-.83l.32.48a1.11,1.11,0,0,0-.53.47,2.16,2.16,0,0,0-.18.92h.63Z"/><path class="cls-33" d="M166.8,368.73v-7.21h1.08v1a2.62,2.62,0,0,1,2.31-1.19,3,3,0,0,1,1.2.24,2,2,0,0,1,.82.62,2.29,2.29,0,0,1,.38.9,7.47,7.47,0,0,1,.07,1.19v4.43h-1.25v-4.39a3.4,3.4,0,0,0-.14-1.11,1.22,1.22,0,0,0-.5-.6,1.71,1.71,0,0,0-.85-.22,2,2,0,0,0-1.34.5,2.48,2.48,0,0,0-.56,1.88v3.94Z"/><path class="cls-33" d="M177.21,367.65l.16,1.08a4.85,4.85,0,0,1-.93.11,2.08,2.08,0,0,1-1-.21,1.17,1.17,0,0,1-.52-.56,4.36,4.36,0,0,1-.15-1.44v-4.16h-.9v-1h.9v-1.79L176,359v2.52h1.25v.94H176v4.22a2.31,2.31,0,0,0,.06.67.56.56,0,0,0,.22.24,1,1,0,0,0,.42.08C176.8,367.67,177,367.67,177.21,367.65Z"/><path class="cls-33" d="M178.08,360.08V358.7h1.3v1.11a3.15,3.15,0,0,1-.2,1.31,1.78,1.78,0,0,1-.88.83l-.33-.48a1,1,0,0,0,.54-.48,2,2,0,0,0,.2-.91Zm2.09,0V358.7h1.3v1.11a3.15,3.15,0,0,1-.2,1.31,1.82,1.82,0,0,1-.88.83l-.33-.48a1.06,1.06,0,0,0,.54-.48,2,2,0,0,0,.2-.91Z"/><path class="cls-33" d="M193.26,362.9H186.7v-1.14h6.56Zm0,3H186.7v-1.14h6.56Z"/><path class="cls-33" d="M198.83,368.73v-7.21h1.08v1a2.61,2.61,0,0,1,2.3-1.19,3,3,0,0,1,1.2.24,1.84,1.84,0,0,1,.82.62,2.3,2.3,0,0,1,.39.9,7.84,7.84,0,0,1,.06,1.19v4.43h-1.25v-4.39a3.14,3.14,0,0,0-.14-1.11,1.17,1.17,0,0,0-.5-.6,1.64,1.64,0,0,0-.84-.22,2,2,0,0,0-1.34.5,2.44,2.44,0,0,0-.57,1.88v3.94Z"/><path class="cls-33" d="M211.26,368.73v-1.06a2.62,2.62,0,0,1-2.28,1.22,3,3,0,0,1-1.19-.24A1.92,1.92,0,0,1,207,368a2.17,2.17,0,0,1-.38-.9,6.28,6.28,0,0,1-.07-1.14v-4.47h1.22v4a7.3,7.3,0,0,0,.07,1.29,1.26,1.26,0,0,0,.49.75,1.48,1.48,0,0,0,.92.28,2.07,2.07,0,0,0,1-.28,1.59,1.59,0,0,0,.68-.77,3.91,3.91,0,0,0,.2-1.41v-3.86h1.22v7.21Z"/><path class="cls-33" d="M219,366.1l1.2.16a3.18,3.18,0,0,1-1,1.94,2.91,2.91,0,0,1-2,.69,3,3,0,0,1-2.36-1,4,4,0,0,1-.89-2.77,5,5,0,0,1,.38-2,2.73,2.73,0,0,1,1.17-1.31,3.51,3.51,0,0,1,1.71-.44,2.93,2.93,0,0,1,1.91.6,2.75,2.75,0,0,1,1,1.71l-1.2.16a2,2,0,0,0-.59-1.1,1.57,1.57,0,0,0-1-.36,1.86,1.86,0,0,0-1.48.66,3.11,3.11,0,0,0-.57,2.09,3.28,3.28,0,0,0,.55,2.12,1.79,1.79,0,0,0,1.44.66,1.74,1.74,0,0,0,1.2-.44A2.18,2.18,0,0,0,219,366.1Z"/><path class="cls-33" d="M221.18,368.73v-10h1.22v10Z"/><path class="cls-33" d="M229.27,366.4l1.22.16a3.08,3.08,0,0,1-1.1,1.72,3.35,3.35,0,0,1-2.07.61,3.31,3.31,0,0,1-2.51-1,3.85,3.85,0,0,1-.92-2.74,4,4,0,0,1,.93-2.82,3.19,3.19,0,0,1,2.43-1,3.13,3.13,0,0,1,2.37,1,4,4,0,0,1,.91,2.78c0,.08,0,.18,0,.33h-5.38a2.69,2.69,0,0,0,.68,1.81,2,2,0,0,0,1.52.63,1.89,1.89,0,0,0,1.17-.36A2.32,2.32,0,0,0,229.27,366.4Zm-4.11-1.95h4.13a2.47,2.47,0,0,0-.48-1.38,1.92,1.92,0,0,0-1.55-.71,2,2,0,0,0-1.45.57A2.2,2.2,0,0,0,225.16,364.45Z"/><path class="cls-33" d="M231.56,365.12a3.71,3.71,0,0,1,1.11-3,3.34,3.34,0,0,1,2.27-.81,3.24,3.24,0,0,1,2.43,1,3.75,3.75,0,0,1,.94,2.69,4.74,4.74,0,0,1-.42,2.19,2.9,2.9,0,0,1-1.21,1.24,3.5,3.5,0,0,1-1.74.45,3.24,3.24,0,0,1-2.45-1A3.88,3.88,0,0,1,231.56,365.12Zm1.24,0a3,3,0,0,0,.61,2.08,1.94,1.94,0,0,0,1.53.69,1.91,1.91,0,0,0,1.51-.69,3.14,3.14,0,0,0,.61-2.12,3,3,0,0,0-.61-2,1.94,1.94,0,0,0-1.51-.69,2,2,0,0,0-1.53.68A3.06,3.06,0,0,0,232.8,365.12Z"/><path class="cls-33" d="M242.42,367.65l.16,1.08a4.67,4.67,0,0,1-.92.11,2.13,2.13,0,0,1-1-.21,1.27,1.27,0,0,1-.52-.56,4.45,4.45,0,0,1-.14-1.44v-4.16h-.9v-1h.9v-1.79l1.22-.73v2.52h1.24v.94h-1.24v4.22a2.31,2.31,0,0,0,.06.67.49.49,0,0,0,.21.24,1,1,0,0,0,.43.08C242,367.67,242.2,367.67,242.42,367.65Z"/><path class="cls-33" d="M243.62,360.16v-1.38h1.22v1.38Zm0,8.57v-7.21h1.22v7.21Z"/><path class="cls-33" d="M251.34,368.73v-.91a2.21,2.21,0,0,1-2,1.07,2.8,2.8,0,0,1-1.59-.47,3.12,3.12,0,0,1-1.12-1.33,4.52,4.52,0,0,1-.4-2,5.14,5.14,0,0,1,.36-2,2.83,2.83,0,0,1,2.69-1.82,2.47,2.47,0,0,1,1.17.28,2.59,2.59,0,0,1,.83.71v-3.56h1.22v10Zm-3.87-3.6a3.06,3.06,0,0,0,.59,2.07,1.76,1.76,0,0,0,1.38.69,1.74,1.74,0,0,0,1.37-.66,3,3,0,0,0,.56-2,3.43,3.43,0,0,0-.57-2.18,1.76,1.76,0,0,0-1.41-.69A1.68,1.68,0,0,0,248,363,3.24,3.24,0,0,0,247.47,365.13Z"/><path class="cls-33" d="M259.38,366.4l1.22.16a3.09,3.09,0,0,1-1.11,1.72,3.75,3.75,0,0,1-4.57-.36,3.85,3.85,0,0,1-.92-2.74,4,4,0,0,1,.93-2.82,3.19,3.19,0,0,1,2.43-1,3.09,3.09,0,0,1,2.36,1,4,4,0,0,1,.92,2.78c0,.08,0,.18,0,.33h-5.39a2.74,2.74,0,0,0,.68,1.81,2.05,2.05,0,0,0,1.53.63,1.91,1.91,0,0,0,1.17-.36A2.32,2.32,0,0,0,259.38,366.4Zm-4.11-1.95h4.12a2.4,2.4,0,0,0-.47-1.38,1.94,1.94,0,0,0-1.55-.71,2,2,0,0,0-1.45.57A2.2,2.2,0,0,0,255.27,364.45Z"/><path class="cls-33" d="M261.66,366.56l1.22-.16a1.74,1.74,0,0,0,.56,1.11,2,2,0,0,0,1.3.38,1.84,1.84,0,0,0,1.23-.34,1,1,0,0,0,.41-.81.75.75,0,0,0-.36-.65,5,5,0,0,0-1.24-.41,12.55,12.55,0,0,1-1.84-.59,1.85,1.85,0,0,1-.79-.69,1.89,1.89,0,0,1,0-1.86,2,2,0,0,1,.6-.68,2.41,2.41,0,0,1,.77-.36,3.49,3.49,0,0,1,1-.15,4.23,4.23,0,0,1,1.49.25,2,2,0,0,1,.94.67,2.63,2.63,0,0,1,.42,1.12l-1.2.16a1.35,1.35,0,0,0-.46-.88,1.68,1.68,0,0,0-1.09-.31,2,2,0,0,0-1.19.28.81.81,0,0,0-.35.65.68.68,0,0,0,.15.43,1,1,0,0,0,.46.32c.12,0,.47.15,1.06.32a16.93,16.93,0,0,1,1.79.56,1.83,1.83,0,0,1,.8.64,1.78,1.78,0,0,1,.29,1.05,2,2,0,0,1-.35,1.15,2.37,2.37,0,0,1-1,.84,3.89,3.89,0,0,1-1.52.29,3.3,3.3,0,0,1-2.13-.59A2.75,2.75,0,0,1,261.66,366.56Z"/><path class="cls-33" d="M269.39,368.73v-1.38h1.38v1.38Z"/><text class="cls-34" transform="translate(2.83 20.41)">TP<tspan class="cls-35" x="25.56" y="0">P</tspan><tspan x="38.54" y="0" xml:space="preserve"> Riboswitch</tspan></text></svg>