<?xml version="1.0" encoding="utf-8"?>
<!-- Generator: Adobe Illustrator 26.3.1, SVG Export Plug-In . SVG Version: 6.00 Build 0)  -->
<svg version="1.1" id="Layer_1" xmlns="http://www.w3.org/2000/svg" xmlns:xlink="http://www.w3.org/1999/xlink" x="0px" y="0px"
	 viewBox="0 0 400 400" style="enable-background:new 0 0 400 400;" xml:space="preserve">
<style type="text/css">
	.st0{fill:#FFAADC;}
	.st1{fill:#C2C2FF;}
	.st2{fill:none;stroke:#000000;stroke-width:0.5;stroke-linejoin:round;stroke-miterlimit:10;}
	.st3{fill:none;stroke:#000000;stroke-width:1.5;stroke-linejoin:round;stroke-miterlimit:10;}
	.st4{fill:none;stroke:#000000;stroke-width:0.5;stroke-linecap:square;stroke-miterlimit:10;}
	.st5{fill:#80DB9E;}
	.st6{fill:#FFDF5C;}
	.st7{fill:#0A0BFF;}
	.st8{fill:#FFFFFF;}
	.st9{fill:none;}
	.st10{font-family:'ArialMT';}
	.st11{font-size:20px;}
	.st12{fill:#FF0B0C;}
	.st13{font-family:'Arial-BoldMT';}
	.st14{font-size:14px;}
</style>
<g>
	<g transform="translate(381.8034,122.9143)">
		<path class="st0" d="M-115.9-55.3l0.2,1.2h1.4v-5.5h-4.3v1.7h2.3c-0.1,0.7-0.3,1.3-0.7,1.6c-0.4,0.4-1,0.6-1.7,0.6
			c-0.5,0-0.9-0.1-1.3-0.3c-0.4-0.2-0.6-0.5-0.9-0.8c-0.2-0.3-0.4-0.7-0.5-1.1c-0.1-0.4-0.2-0.8-0.2-1.3c0-0.5,0.1-0.9,0.2-1.3
			c0.1-0.4,0.3-0.8,0.5-1.1s0.5-0.6,0.9-0.8s0.8-0.3,1.3-0.3c0.5,0,1,0.1,1.4,0.4c0.4,0.3,0.6,0.7,0.8,1.3h2.2
			c-0.1-0.6-0.2-1.1-0.5-1.6c-0.3-0.5-0.6-0.8-1-1.1c-0.4-0.3-0.8-0.5-1.3-0.7c-0.5-0.2-1-0.2-1.5-0.2c-0.8,0-1.5,0.1-2.1,0.4
			s-1.2,0.7-1.6,1.1c-0.4,0.5-0.8,1.1-1,1.7c-0.2,0.7-0.3,1.4-0.3,2.1c0,0.7,0.1,1.4,0.3,2.1c0.2,0.6,0.6,1.2,1,1.7
			c0.4,0.5,1,0.9,1.6,1.1s1.3,0.4,2.1,0.4c0.5,0,1-0.1,1.5-0.3C-116.8-54.4-116.3-54.8-115.9-55.3z"/>
	</g>
	<g transform="translate(381.8034,143.1709)">
		<path class="st0" d="M-115.9-59.4l0.2,1.2h1.4v-5.5h-4.3v1.7h2.3c-0.1,0.7-0.3,1.3-0.7,1.6c-0.4,0.4-1,0.6-1.7,0.6
			c-0.5,0-0.9-0.1-1.3-0.3s-0.6-0.5-0.9-0.8c-0.2-0.3-0.4-0.7-0.5-1.1s-0.2-0.8-0.2-1.3c0-0.5,0.1-0.9,0.2-1.3
			c0.1-0.4,0.3-0.8,0.5-1.1s0.5-0.6,0.9-0.8c0.4-0.2,0.8-0.3,1.3-0.3c0.5,0,1,0.1,1.4,0.4c0.4,0.3,0.6,0.7,0.8,1.3h2.2
			c-0.1-0.6-0.2-1.1-0.5-1.6c-0.3-0.5-0.6-0.8-1-1.1c-0.4-0.3-0.8-0.5-1.3-0.7s-1-0.2-1.5-0.2c-0.8,0-1.5,0.1-2.1,0.4
			s-1.2,0.7-1.6,1.1c-0.4,0.5-0.8,1.1-1,1.7c-0.2,0.7-0.3,1.4-0.3,2.1c0,0.7,0.1,1.4,0.3,2.1c0.2,0.6,0.6,1.2,1,1.7
			c0.4,0.5,1,0.9,1.6,1.1c0.6,0.3,1.3,0.4,2.1,0.4c0.5,0,1-0.1,1.5-0.3S-116.3-58.9-115.9-59.4z"/>
	</g>
	<g transform="translate(381.8034,163.4275)">
		<path class="st0" d="M-115.9-63.5l0.2,1.2h1.4v-5.5h-4.3v1.7h2.3c-0.1,0.7-0.3,1.3-0.7,1.6c-0.4,0.4-1,0.6-1.7,0.6
			c-0.5,0-0.9-0.1-1.3-0.3c-0.4-0.2-0.6-0.5-0.9-0.8s-0.4-0.7-0.5-1.1s-0.2-0.8-0.2-1.3c0-0.5,0.1-0.9,0.2-1.3
			c0.1-0.4,0.3-0.8,0.5-1.1s0.5-0.6,0.9-0.8c0.4-0.2,0.8-0.3,1.3-0.3c0.5,0,1,0.1,1.4,0.4s0.6,0.7,0.8,1.3h2.2
			c-0.1-0.6-0.2-1.1-0.5-1.6c-0.3-0.5-0.6-0.8-1-1.1c-0.4-0.3-0.8-0.5-1.3-0.7s-1-0.2-1.5-0.2c-0.8,0-1.5,0.1-2.1,0.4
			s-1.2,0.7-1.6,1.1c-0.4,0.5-0.8,1.1-1,1.7c-0.2,0.7-0.3,1.4-0.3,2.1c0,0.7,0.1,1.4,0.3,2.1c0.2,0.6,0.6,1.2,1,1.7
			c0.4,0.5,1,0.9,1.6,1.1c0.6,0.3,1.3,0.4,2.1,0.4c0.5,0,1-0.1,1.5-0.3S-116.3-62.9-115.9-63.5z"/>
	</g>
	<g transform="translate(381.8034,183.6841)">
		<path class="st0" d="M-120.4-70.4l1.3-3.8h0l1.3,3.8H-120.4z M-120.1-76.6l-3.9,10.3h2.3l0.8-2.3h3.8l0.8,2.3h2.3l-3.8-10.3
			H-120.1z"/>
	</g>
	<g transform="translate(381.8034,203.9407)">
		<path class="st0" d="M-114.6-74.3v-6.4h-2.3v6.4c0,0.8-0.2,1.3-0.5,1.7c-0.3,0.4-0.9,0.5-1.7,0.5c-0.5,0-0.8-0.1-1.1-0.2
			c-0.3-0.1-0.5-0.3-0.6-0.5s-0.3-0.4-0.3-0.7c0-0.3-0.1-0.5-0.1-0.8v-6.4h-2.3v6.4c0,1.4,0.4,2.4,1.1,3.1c0.8,0.7,1.8,1,3.2,1
			c1.4,0,2.4-0.3,3.2-1S-114.6-73-114.6-74.3z"/>
	</g>
	<g transform="translate(381.8034,224.1973)">
		<path class="st0" d="M-120.4-78.5l1.3-3.8h0l1.3,3.8H-120.4z M-120.1-84.8l-3.9,10.3h2.3l0.8-2.3h3.8l0.8,2.3h2.3l-3.8-10.3
			H-120.1z"/>
	</g>
	<g transform="translate(422.3166,224.1973)">
		<path class="st0" d="M-122.8-78.4v-6.4h-2.3v6.4c0,0.8-0.2,1.3-0.5,1.7c-0.3,0.4-0.9,0.5-1.7,0.5c-0.5,0-0.8-0.1-1.1-0.2
			c-0.3-0.1-0.5-0.3-0.6-0.5s-0.3-0.4-0.3-0.7c0-0.3-0.1-0.5-0.1-0.8v-6.4h-2.3v6.4c0,1.4,0.4,2.4,1.1,3.1c0.8,0.7,1.8,1,3.2,1
			c1.4,0,2.4-0.3,3.2-1C-123.2-76-122.8-77-122.8-78.4z"/>
	</g>
	<g transform="translate(422.3166,203.9407)">
		<path class="st0" d="M-128.5-74.4l1.3-3.8h0l1.3,3.8H-128.5z M-128.3-80.7l-3.9,10.3h2.3l0.8-2.3h3.8l0.8,2.3h2.3l-3.8-10.3
			H-128.3z"/>
	</g>
	<g transform="translate(422.3166,183.6841)">
		<path class="st0" d="M-122.8-70.3v-6.4h-2.3v6.4c0,0.8-0.2,1.3-0.5,1.7c-0.3,0.4-0.9,0.5-1.7,0.5c-0.5,0-0.8-0.1-1.1-0.2
			c-0.3-0.1-0.5-0.3-0.6-0.5c-0.2-0.2-0.3-0.4-0.3-0.7c0-0.3-0.1-0.5-0.1-0.8v-6.4h-2.3v6.4c0,1.4,0.4,2.4,1.1,3.1
			c0.8,0.7,1.8,1,3.2,1c1.4,0,2.4-0.3,3.2-1S-122.8-68.9-122.8-70.3z"/>
	</g>
	<g transform="translate(422.3166,163.4275)">
		<path class="st0" d="M-124.7-69.1h2.2c-0.1-0.6-0.2-1.1-0.5-1.6s-0.6-0.8-1-1.2c-0.4-0.3-0.8-0.5-1.4-0.7s-1-0.2-1.6-0.2
			c-0.8,0-1.5,0.1-2.1,0.4s-1.2,0.7-1.6,1.1s-0.8,1.1-1,1.7s-0.3,1.4-0.3,2.1c0,0.7,0.1,1.4,0.3,2.1s0.6,1.2,1,1.7s1,0.9,1.6,1.1
			c0.6,0.3,1.3,0.4,2.1,0.4c0.6,0,1.2-0.1,1.7-0.3c0.5-0.2,1-0.5,1.4-0.8s0.7-0.8,0.9-1.3c0.2-0.5,0.4-1.1,0.4-1.7h-2.2
			c-0.1,0.7-0.3,1.2-0.7,1.7c-0.4,0.4-0.9,0.6-1.6,0.6c-0.5,0-0.9-0.1-1.3-0.3c-0.4-0.2-0.6-0.5-0.9-0.8s-0.4-0.7-0.5-1.1
			s-0.2-0.8-0.2-1.3c0-0.5,0.1-0.9,0.2-1.3c0.1-0.4,0.3-0.8,0.5-1.1s0.5-0.6,0.9-0.8c0.4-0.2,0.8-0.3,1.3-0.3c0.3,0,0.5,0,0.8,0.1
			c0.3,0.1,0.5,0.2,0.7,0.4c0.2,0.2,0.4,0.4,0.5,0.6C-124.8-69.6-124.7-69.4-124.7-69.1z"/>
	</g>
	<g transform="translate(422.3166,143.1709)">
		<path class="st0" d="M-124.7-65h2.2c-0.1-0.6-0.2-1.1-0.5-1.6c-0.3-0.5-0.6-0.8-1-1.2c-0.4-0.3-0.8-0.5-1.4-0.7s-1-0.2-1.6-0.2
			c-0.8,0-1.5,0.1-2.1,0.4s-1.2,0.7-1.6,1.1c-0.4,0.5-0.8,1.1-1,1.7c-0.2,0.7-0.3,1.4-0.3,2.1c0,0.7,0.1,1.4,0.3,2.1s0.6,1.2,1,1.7
			s1,0.9,1.6,1.1c0.6,0.3,1.3,0.4,2.1,0.4c0.6,0,1.2-0.1,1.7-0.3c0.5-0.2,1-0.5,1.4-0.8s0.7-0.8,0.9-1.3c0.2-0.5,0.4-1.1,0.4-1.7
			h-2.2c-0.1,0.7-0.3,1.2-0.7,1.7s-0.9,0.6-1.6,0.6c-0.5,0-0.9-0.1-1.3-0.3c-0.4-0.2-0.6-0.5-0.9-0.8c-0.2-0.3-0.4-0.7-0.5-1.1
			s-0.2-0.8-0.2-1.3c0-0.5,0.1-0.9,0.2-1.3c0.1-0.4,0.3-0.8,0.5-1.1s0.5-0.6,0.9-0.8c0.4-0.2,0.8-0.3,1.3-0.3c0.3,0,0.5,0,0.8,0.1
			c0.3,0.1,0.5,0.2,0.7,0.4c0.2,0.2,0.4,0.4,0.5,0.6C-124.8-65.5-124.7-65.3-124.7-65z"/>
	</g>
	<g transform="translate(422.3166,122.9143)">
		<path class="st0" d="M-124.1-55.3l0.2,1.2h1.4v-5.5h-4.3v1.7h2.3c-0.1,0.7-0.3,1.3-0.7,1.6c-0.4,0.4-1,0.6-1.7,0.6
			c-0.5,0-0.9-0.1-1.3-0.3c-0.4-0.2-0.6-0.5-0.9-0.8c-0.2-0.3-0.4-0.7-0.5-1.1c-0.1-0.4-0.2-0.8-0.2-1.3c0-0.5,0.1-0.9,0.2-1.3
			c0.1-0.4,0.3-0.8,0.5-1.1s0.5-0.6,0.9-0.8c0.4-0.2,0.8-0.3,1.3-0.3c0.5,0,1,0.1,1.4,0.4c0.4,0.3,0.6,0.7,0.8,1.3h2.2
			c-0.1-0.6-0.2-1.1-0.5-1.6c-0.3-0.5-0.6-0.8-1-1.1c-0.4-0.3-0.8-0.5-1.3-0.7c-0.5-0.2-1-0.2-1.5-0.2c-0.8,0-1.5,0.1-2.1,0.4
			s-1.2,0.7-1.6,1.1s-0.8,1.1-1,1.7c-0.2,0.7-0.3,1.4-0.3,2.1c0,0.7,0.1,1.4,0.3,2.1c0.2,0.6,0.6,1.2,1,1.7c0.4,0.5,1,0.9,1.6,1.1
			s1.3,0.4,2.1,0.4c0.5,0,1-0.1,1.5-0.3C-124.9-54.4-124.5-54.8-124.1-55.3z"/>
	</g>
	<g transform="translate(422.3166,102.6577)">
		<path class="st1" d="M-128.5-54l1.3-3.8h0l1.3,3.8H-128.5z M-128.3-60.3l-3.9,10.3h2.3l0.8-2.3h3.8l0.8,2.3h2.3l-3.8-10.3H-128.3z
			"/>
	</g>
	<g transform="translate(290.6487,102.6577)">
		<path class="st1" d="M-102-54l1.3-3.8h0l1.3,3.8H-102z M-101.8-60.3l-3.9,10.3h2.3l0.8-2.3h3.8l0.8,2.3h2.3l-3.8-10.3H-101.8z"/>
	</g>
	<g>
		<line class="st2" x1="190.3" y1="36.2" x2="190.3" y2="25.5"/>
	</g>
	<g transform="translate(290.6487,75.6489)">
		<path d="M-102-62.3v-1.1h-5l-0.9,5.3l1,0.1c0.2-0.3,0.5-0.5,0.8-0.7c0.3-0.2,0.7-0.3,1.1-0.3c0.3,0,0.7,0.1,0.9,0.2
			s0.5,0.3,0.7,0.5c0.2,0.2,0.4,0.5,0.5,0.7c0.1,0.3,0.2,0.6,0.2,0.9c0,0.4-0.1,0.8-0.2,1.1s-0.3,0.6-0.5,0.8s-0.4,0.4-0.7,0.5
			c-0.3,0.1-0.5,0.2-0.8,0.2c-0.3,0-0.6,0-0.8-0.1c-0.3-0.1-0.5-0.2-0.7-0.4c-0.2-0.2-0.3-0.4-0.4-0.6s-0.2-0.5-0.2-0.7h-1.2
			c0,0.5,0.1,0.9,0.3,1.2s0.4,0.7,0.7,0.9s0.6,0.4,1,0.6s0.8,0.2,1.2,0.2c0.6,0,1.1-0.1,1.6-0.3s0.8-0.4,1.1-0.8
			c0.3-0.3,0.5-0.7,0.7-1.1c0.1-0.4,0.2-0.8,0.2-1.3c0-0.6-0.1-1.1-0.3-1.5c-0.2-0.4-0.4-0.8-0.7-1.1c-0.3-0.3-0.6-0.5-1-0.7
			c-0.4-0.1-0.8-0.2-1.3-0.2c-0.3,0-0.7,0.1-1,0.2c-0.3,0.1-0.6,0.3-0.9,0.6l0,0l0.5-2.9H-102z M-98.9-58.4c0-0.2,0-0.5,0-0.8
			s0-0.6,0.1-0.9c0-0.3,0.1-0.6,0.2-0.9c0.1-0.3,0.2-0.5,0.4-0.8c0.2-0.2,0.4-0.4,0.6-0.5c0.2-0.1,0.5-0.2,0.9-0.2s0.6,0.1,0.9,0.2
			c0.2,0.1,0.4,0.3,0.6,0.5c0.2,0.2,0.3,0.5,0.4,0.8c0.1,0.3,0.1,0.6,0.2,0.9s0.1,0.6,0.1,0.9c0,0.3,0,0.6,0,0.8c0,0.4,0,0.8,0,1.3
			c0,0.5-0.1,0.9-0.2,1.3c-0.1,0.4-0.3,0.8-0.6,1.1c-0.3,0.3-0.7,0.4-1.2,0.4c-0.5,0-0.9-0.1-1.2-0.4s-0.5-0.6-0.6-1.1
			s-0.2-0.9-0.2-1.3C-98.9-57.6-98.9-58-98.9-58.4z M-100.2-58.4c0,0.4,0,0.8,0,1.2c0,0.4,0.1,0.8,0.1,1.2c0.1,0.4,0.2,0.7,0.3,1.1
			c0.1,0.3,0.3,0.6,0.6,0.9c0.2,0.3,0.6,0.5,0.9,0.6c0.4,0.1,0.8,0.2,1.4,0.2c0.5,0,1-0.1,1.4-0.2c0.4-0.1,0.7-0.4,0.9-0.6
			c0.2-0.3,0.4-0.6,0.6-0.9c0.1-0.3,0.3-0.7,0.3-1.1c0.1-0.4,0.1-0.8,0.1-1.2c0-0.4,0-0.8,0-1.2c0-0.4,0-0.8,0-1.2
			c0-0.4-0.1-0.8-0.1-1.2c-0.1-0.4-0.2-0.7-0.3-1.1c-0.1-0.3-0.3-0.6-0.6-0.9c-0.2-0.3-0.6-0.5-0.9-0.6c-0.4-0.2-0.8-0.2-1.4-0.2
			c-0.5,0-1,0.1-1.4,0.2c-0.4,0.2-0.7,0.4-0.9,0.6c-0.2,0.3-0.4,0.6-0.6,0.9c-0.1,0.3-0.3,0.7-0.3,1.1s-0.1,0.8-0.1,1.2
			C-100.1-59.2-100.2-58.8-100.2-58.4z"/>
	</g>
	<g transform="translate(270.3921,102.6577)">
		<path class="st1" d="M-97.9-54l1.3-3.8h0l1.3,3.8H-97.9z M-97.7-60.3l-3.9,10.3h2.3l0.8-2.3h3.8l0.8,2.3h2.3l-3.8-10.3H-97.7z"/>
	</g>
	<g>
		<line class="st2" x1="269.5" y1="79.4" x2="288.9" y2="79.4"/>
		<line class="st2" x1="269.5" y1="95.5" x2="288.9" y2="95.5"/>
		<line class="st2" x1="269.5" y1="111.7" x2="288.9" y2="111.7"/>
		<line class="st2" x1="269.5" y1="127.9" x2="288.9" y2="127.9"/>
		<line class="st3" x1="174.1" y1="53.5" x2="174.1" y2="105.2"/>
	</g>
	<g>
		<path d="M175.7,79.4l0.8-2.7L179,74h-9.7l2.4,2.7l0.8,2.7l0.4,2.7l1.2,5.4l1.2-5.4L175.7,79.4z"/>
	</g>
	<g>
		<path class="st4" d="M179,74l-2.4,2.7l-0.8,2.7l-0.4,2.7l-1.2,5.4l-1.2-5.4l-0.4-2.7l-0.8-2.7l-2.4-2.7H179"/>
	</g>
	<g transform="translate(381.8034,244.4539)">
		<path class="st0" d="M-116.5-85.4h2.2c-0.1-0.6-0.2-1.1-0.5-1.6s-0.6-0.8-1-1.2c-0.4-0.3-0.8-0.5-1.4-0.7s-1-0.2-1.6-0.2
			c-0.8,0-1.5,0.1-2.1,0.4s-1.2,0.7-1.6,1.1c-0.4,0.5-0.8,1.1-1,1.7c-0.2,0.7-0.3,1.4-0.3,2.1c0,0.7,0.1,1.4,0.3,2.1
			c0.2,0.6,0.6,1.2,1,1.7c0.4,0.5,1,0.9,1.6,1.1s1.3,0.4,2.1,0.4c0.6,0,1.2-0.1,1.7-0.3c0.5-0.2,1-0.5,1.4-0.8
			c0.4-0.4,0.7-0.8,0.9-1.3c0.2-0.5,0.4-1.1,0.4-1.7h-2.2c-0.1,0.7-0.3,1.2-0.7,1.7c-0.4,0.4-0.9,0.6-1.6,0.6
			c-0.5,0-0.9-0.1-1.3-0.3c-0.4-0.2-0.6-0.5-0.9-0.8s-0.4-0.7-0.5-1.1s-0.2-0.8-0.2-1.3c0-0.5,0.1-0.9,0.2-1.3
			c0.1-0.4,0.3-0.8,0.5-1.1s0.5-0.6,0.9-0.8c0.4-0.2,0.8-0.3,1.3-0.3c0.3,0,0.5,0,0.8,0.1c0.3,0.1,0.5,0.2,0.7,0.4
			c0.2,0.2,0.4,0.4,0.5,0.6C-116.6-85.9-116.5-85.7-116.5-85.4z"/>
	</g>
	<g transform="translate(381.8034,264.7105)">
		<path class="st0" d="M-120.4-86.7l1.3-3.8h0l1.3,3.8H-120.4z M-120.1-93l-3.9,10.3h2.3l0.8-2.3h3.8l0.8,2.3h2.3l-3.8-10.3H-120.1z
			"/>
	</g>
	<g transform="translate(381.8034,284.9671)">
		<path class="st0" d="M-115.9-88l0.2,1.2h1.4v-5.5h-4.3v1.7h2.3c-0.1,0.7-0.3,1.3-0.7,1.6c-0.4,0.4-1,0.6-1.7,0.6
			c-0.5,0-0.9-0.1-1.3-0.3c-0.4-0.2-0.6-0.5-0.9-0.8s-0.4-0.7-0.5-1.1c-0.1-0.4-0.2-0.8-0.2-1.3c0-0.5,0.1-0.9,0.2-1.3
			c0.1-0.4,0.3-0.8,0.5-1.1s0.5-0.6,0.9-0.8c0.4-0.2,0.8-0.3,1.3-0.3c0.5,0,1,0.1,1.4,0.4s0.6,0.7,0.8,1.3h2.2
			c-0.1-0.6-0.2-1.1-0.5-1.6c-0.3-0.5-0.6-0.8-1-1.1c-0.4-0.3-0.8-0.5-1.3-0.7s-1-0.2-1.5-0.2c-0.8,0-1.5,0.1-2.1,0.4
			s-1.2,0.7-1.6,1.1c-0.4,0.5-0.8,1.1-1,1.7c-0.2,0.7-0.3,1.4-0.3,2.1c0,0.7,0.1,1.4,0.3,2.1c0.2,0.6,0.6,1.2,1,1.7
			c0.4,0.5,1,0.9,1.6,1.1s1.3,0.4,2.1,0.4c0.5,0,1-0.1,1.5-0.3S-116.3-87.4-115.9-88z"/>
	</g>
	<g transform="translate(381.8034,305.2237)">
		<path class="st0" d="M-115.9-92l0.2,1.2h1.4v-5.5h-4.3v1.7h2.3c-0.1,0.7-0.3,1.3-0.7,1.6c-0.4,0.4-1,0.6-1.7,0.6
			c-0.5,0-0.9-0.1-1.3-0.3c-0.4-0.2-0.6-0.5-0.9-0.8c-0.2-0.3-0.4-0.7-0.5-1.1c-0.1-0.4-0.2-0.8-0.2-1.3c0-0.5,0.1-0.9,0.2-1.3
			c0.1-0.4,0.3-0.8,0.5-1.1s0.5-0.6,0.9-0.8c0.4-0.2,0.8-0.3,1.3-0.3c0.5,0,1,0.1,1.4,0.4c0.4,0.3,0.6,0.7,0.8,1.3h2.2
			c-0.1-0.6-0.2-1.1-0.5-1.6c-0.3-0.5-0.6-0.8-1-1.1c-0.4-0.3-0.8-0.5-1.3-0.7s-1-0.2-1.5-0.2c-0.8,0-1.5,0.1-2.1,0.4
			s-1.2,0.7-1.6,1.1c-0.4,0.5-0.8,1.1-1,1.7c-0.2,0.7-0.3,1.4-0.3,2.1c0,0.7,0.1,1.4,0.3,2.1c0.2,0.6,0.6,1.2,1,1.7
			c0.4,0.5,1,0.9,1.6,1.1s1.3,0.4,2.1,0.4c0.5,0,1-0.1,1.5-0.3S-116.3-91.5-115.9-92z"/>
	</g>
	<g>
		<line class="st2" x1="252.3" y1="208.8" x2="241.5" y2="208.8"/>
	</g>
	<g transform="translate(354.7946,305.2237)">
		<path d="M-124.9-90.9v-10.2h-0.9c-0.1,0.4-0.2,0.7-0.4,0.9c-0.2,0.2-0.4,0.4-0.7,0.6c-0.3,0.1-0.6,0.2-0.9,0.3
			c-0.3,0.1-0.7,0.1-1,0.1v1h2.6v7.3H-124.9z M-120.2-95.9c0-0.2,0-0.5,0-0.8c0-0.3,0-0.6,0.1-0.9c0-0.3,0.1-0.6,0.2-0.9
			c0.1-0.3,0.2-0.5,0.4-0.8c0.2-0.2,0.4-0.4,0.6-0.5c0.2-0.1,0.5-0.2,0.9-0.2c0.3,0,0.6,0.1,0.9,0.2c0.2,0.1,0.4,0.3,0.6,0.5
			c0.2,0.2,0.3,0.5,0.4,0.8c0.1,0.3,0.1,0.6,0.2,0.9c0,0.3,0.1,0.6,0.1,0.9c0,0.3,0,0.6,0,0.8c0,0.4,0,0.8,0,1.3
			c0,0.5-0.1,0.9-0.2,1.3c-0.1,0.4-0.3,0.8-0.6,1.1c-0.3,0.3-0.7,0.4-1.2,0.4c-0.5,0-0.9-0.1-1.2-0.4c-0.3-0.3-0.5-0.6-0.6-1.1
			c-0.1-0.4-0.2-0.9-0.2-1.3C-120.2-95.1-120.2-95.5-120.2-95.9z M-121.5-95.9c0,0.4,0,0.8,0,1.2c0,0.4,0.1,0.8,0.1,1.2
			c0.1,0.4,0.2,0.7,0.3,1.1c0.1,0.3,0.3,0.6,0.6,0.9c0.2,0.3,0.6,0.5,0.9,0.6c0.4,0.1,0.8,0.2,1.4,0.2c0.5,0,1-0.1,1.4-0.2
			c0.4-0.1,0.7-0.4,0.9-0.6c0.2-0.3,0.4-0.6,0.6-0.9c0.1-0.3,0.3-0.7,0.3-1.1c0.1-0.4,0.1-0.8,0.1-1.2c0-0.4,0-0.8,0-1.2
			c0-0.4,0-0.8,0-1.2c0-0.4-0.1-0.8-0.1-1.2c-0.1-0.4-0.2-0.7-0.3-1.1c-0.1-0.3-0.3-0.6-0.6-0.9c-0.2-0.3-0.6-0.5-0.9-0.6
			c-0.4-0.2-0.8-0.2-1.4-0.2c-0.5,0-1,0.1-1.4,0.2c-0.4,0.2-0.7,0.4-0.9,0.6c-0.2,0.3-0.4,0.6-0.6,0.9c-0.1,0.3-0.3,0.7-0.3,1.1
			c-0.1,0.4-0.1,0.8-0.1,1.2C-121.5-96.6-121.5-96.3-121.5-95.9z"/>
	</g>
	<g transform="translate(381.8034,325.4803)">
		<path class="st0" d="M-120.4-98.9l1.3-3.8h0l1.3,3.8H-120.4z M-120.1-105.2L-124-95h2.3l0.8-2.3h3.8l0.8,2.3h2.3l-3.8-10.3H-120.1
			z"/>
	</g>
	<g transform="translate(422.3166,345.7369)">
		<path class="st0" d="M-124.1-100.2l0.2,1.2h1.4v-5.5h-4.3v1.7h2.3c-0.1,0.7-0.3,1.3-0.7,1.6c-0.4,0.4-1,0.6-1.7,0.6
			c-0.5,0-0.9-0.1-1.3-0.3c-0.4-0.2-0.6-0.5-0.9-0.8s-0.4-0.7-0.5-1.1c-0.1-0.4-0.2-0.8-0.2-1.3c0-0.5,0.1-0.9,0.2-1.3
			c0.1-0.4,0.3-0.8,0.5-1.1s0.5-0.6,0.9-0.8c0.4-0.2,0.8-0.3,1.3-0.3c0.5,0,1,0.1,1.4,0.4s0.6,0.7,0.8,1.3h2.2
			c-0.1-0.6-0.2-1.1-0.5-1.6c-0.3-0.5-0.6-0.8-1-1.1c-0.4-0.3-0.8-0.5-1.3-0.7c-0.5-0.2-1-0.2-1.5-0.2c-0.8,0-1.5,0.1-2.1,0.4
			s-1.2,0.7-1.6,1.1c-0.4,0.5-0.8,1.1-1,1.7c-0.2,0.7-0.3,1.4-0.3,2.1c0,0.7,0.1,1.4,0.3,2.1c0.2,0.6,0.6,1.2,1,1.7
			c0.4,0.5,1,0.9,1.6,1.1s1.3,0.4,2.1,0.4c0.5,0,1-0.1,1.5-0.3S-124.5-99.7-124.1-100.2z"/>
	</g>
	<g transform="translate(422.3166,325.4803)">
		<path class="st0" d="M-124.1-96.1l0.2,1.2h1.4v-5.5h-4.3v1.7h2.3c-0.1,0.7-0.3,1.3-0.7,1.6c-0.4,0.4-1,0.6-1.7,0.6
			c-0.5,0-0.9-0.1-1.3-0.3c-0.4-0.2-0.6-0.5-0.9-0.8c-0.2-0.3-0.4-0.7-0.5-1.1c-0.1-0.4-0.2-0.8-0.2-1.3c0-0.5,0.1-0.9,0.2-1.3
			c0.1-0.4,0.3-0.8,0.5-1.1s0.5-0.6,0.9-0.8c0.4-0.2,0.8-0.3,1.3-0.3c0.5,0,1,0.1,1.4,0.4c0.4,0.3,0.6,0.7,0.8,1.3h2.2
			c-0.1-0.6-0.2-1.1-0.5-1.6c-0.3-0.5-0.6-0.8-1-1.1c-0.4-0.3-0.8-0.5-1.3-0.7s-1-0.2-1.5-0.2c-0.8,0-1.5,0.1-2.1,0.4
			s-1.2,0.7-1.6,1.1s-0.8,1.1-1,1.7c-0.2,0.7-0.3,1.4-0.3,2.1c0,0.7,0.1,1.4,0.3,2.1c0.2,0.6,0.6,1.2,1,1.7s1,0.9,1.6,1.1
			s1.3,0.4,2.1,0.4c0.5,0,1-0.1,1.5-0.3S-124.5-95.6-124.1-96.1z"/>
	</g>
	<g transform="translate(422.3166,305.2237)">
		<path class="st0" d="M-128.5-94.8l1.3-3.8h0l1.3,3.8H-128.5z M-128.3-101.1l-3.9,10.3h2.3l0.8-2.3h3.8l0.8,2.3h2.3l-3.8-10.3
			H-128.3z"/>
	</g>
	<g transform="translate(422.3166,284.9671)">
		<path class="st0" d="M-124.7-93.6h2.2c-0.1-0.6-0.2-1.1-0.5-1.6c-0.3-0.5-0.6-0.8-1-1.2c-0.4-0.3-0.8-0.5-1.4-0.7s-1-0.2-1.6-0.2
			c-0.8,0-1.5,0.1-2.1,0.4s-1.2,0.7-1.6,1.1c-0.4,0.5-0.8,1.1-1,1.7c-0.2,0.7-0.3,1.4-0.3,2.1c0,0.7,0.1,1.4,0.3,2.1
			c0.2,0.6,0.6,1.2,1,1.7s1,0.9,1.6,1.1s1.3,0.4,2.1,0.4c0.6,0,1.2-0.1,1.7-0.3c0.5-0.2,1-0.5,1.4-0.8c0.4-0.4,0.7-0.8,0.9-1.3
			c0.2-0.5,0.4-1.1,0.4-1.7h-2.2c-0.1,0.7-0.3,1.2-0.7,1.7c-0.4,0.4-0.9,0.6-1.6,0.6c-0.5,0-0.9-0.1-1.3-0.3
			c-0.4-0.2-0.6-0.5-0.9-0.8s-0.4-0.7-0.5-1.1c-0.1-0.4-0.2-0.8-0.2-1.3c0-0.5,0.1-0.9,0.2-1.3c0.1-0.4,0.3-0.8,0.5-1.1
			s0.5-0.6,0.9-0.8c0.4-0.2,0.8-0.3,1.3-0.3c0.3,0,0.5,0,0.8,0.1c0.3,0.1,0.5,0.2,0.7,0.4c0.2,0.2,0.4,0.4,0.5,0.6
			C-124.8-94.1-124.7-93.9-124.7-93.6z"/>
	</g>
	<g>
		<line class="st2" x1="306.2" y1="192.6" x2="317" y2="192.6"/>
	</g>
	<g transform="translate(449.3254,284.9671)">
		<path d="M-127.5-90.3h-3.4l3.4-5h0V-90.3z M-126.3-90.3V-97h-1l-4.6,6.6v1.2h4.5v2.4h1.1v-2.4h1.4v-1.1H-126.3z M-122.5-91.8
			c0-0.2,0-0.5,0-0.8c0-0.3,0-0.6,0.1-0.9s0.1-0.6,0.2-0.9c0.1-0.3,0.2-0.5,0.4-0.8c0.2-0.2,0.4-0.4,0.6-0.5
			c0.2-0.1,0.5-0.2,0.9-0.2s0.6,0.1,0.9,0.2c0.2,0.1,0.4,0.3,0.6,0.5c0.2,0.2,0.3,0.5,0.4,0.8c0.1,0.3,0.1,0.6,0.2,0.9
			c0,0.3,0.1,0.6,0.1,0.9c0,0.3,0,0.6,0,0.8c0,0.4,0,0.8,0,1.3c0,0.5-0.1,0.9-0.2,1.3c-0.1,0.4-0.3,0.8-0.6,1.1
			c-0.3,0.3-0.7,0.4-1.2,0.4s-0.9-0.1-1.2-0.4c-0.3-0.3-0.5-0.6-0.6-1.1c-0.1-0.4-0.2-0.9-0.2-1.3C-122.5-91-122.5-91.4-122.5-91.8z
			 M-123.8-91.8c0,0.4,0,0.8,0,1.2c0,0.4,0.1,0.8,0.1,1.2c0.1,0.4,0.2,0.7,0.3,1.1c0.1,0.3,0.3,0.6,0.6,0.9c0.2,0.3,0.6,0.5,0.9,0.6
			c0.4,0.1,0.8,0.2,1.4,0.2c0.5,0,1-0.1,1.4-0.2c0.4-0.1,0.7-0.4,0.9-0.6c0.2-0.3,0.4-0.6,0.6-0.9c0.1-0.3,0.3-0.7,0.3-1.1
			c0.1-0.4,0.1-0.8,0.1-1.2c0-0.4,0-0.8,0-1.2c0-0.4,0-0.8,0-1.2c0-0.4-0.1-0.8-0.1-1.2s-0.2-0.7-0.3-1.1c-0.1-0.3-0.3-0.6-0.6-0.9
			c-0.2-0.3-0.6-0.5-0.9-0.6c-0.4-0.2-0.8-0.2-1.4-0.2s-1,0.1-1.4,0.2c-0.4,0.2-0.7,0.4-0.9,0.6c-0.2,0.3-0.4,0.6-0.6,0.9
			c-0.1,0.3-0.3,0.7-0.3,1.1c-0.1,0.4-0.1,0.8-0.1,1.2C-123.7-92.6-123.8-92.2-123.8-91.8z"/>
	</g>
	<g transform="translate(422.3166,264.7105)">
		<path class="st0" d="M-122.8-86.6V-93h-2.3v6.4c0,0.8-0.2,1.3-0.5,1.7c-0.3,0.4-0.9,0.5-1.7,0.5c-0.5,0-0.8-0.1-1.1-0.2
			c-0.3-0.1-0.5-0.3-0.6-0.5s-0.3-0.4-0.3-0.7c0-0.3-0.1-0.5-0.1-0.8V-93h-2.3v6.4c0,1.4,0.4,2.4,1.1,3.1c0.8,0.7,1.8,1,3.2,1
			c1.4,0,2.4-0.3,3.2-1S-122.8-85.2-122.8-86.6z"/>
	</g>
	<g transform="translate(422.3166,244.4539)">
		<path class="st0" d="M-124.1-79.8l0.2,1.2h1.4v-5.5h-4.3v1.7h2.3c-0.1,0.7-0.3,1.3-0.7,1.6c-0.4,0.4-1,0.6-1.7,0.6
			c-0.5,0-0.9-0.1-1.3-0.3c-0.4-0.2-0.6-0.5-0.9-0.8s-0.4-0.7-0.5-1.1s-0.2-0.8-0.2-1.3c0-0.5,0.1-0.9,0.2-1.3
			c0.1-0.4,0.3-0.8,0.5-1.1s0.5-0.6,0.9-0.8c0.4-0.2,0.8-0.3,1.3-0.3c0.5,0,1,0.1,1.4,0.4s0.6,0.7,0.8,1.3h2.2
			c-0.1-0.6-0.2-1.1-0.5-1.6c-0.3-0.5-0.6-0.8-1-1.1c-0.4-0.3-0.8-0.5-1.3-0.7s-1-0.2-1.5-0.2c-0.8,0-1.5,0.1-2.1,0.4
			s-1.2,0.7-1.6,1.1s-0.8,1.1-1,1.7s-0.3,1.4-0.3,2.1c0,0.7,0.1,1.4,0.3,2.1s0.6,1.2,1,1.7c0.4,0.5,1,0.9,1.6,1.1s1.3,0.4,2.1,0.4
			c0.5,0,1-0.1,1.5-0.3C-124.9-78.9-124.5-79.3-124.1-79.8z"/>
	</g>
	<g>
		<line class="st2" x1="269.5" y1="160.2" x2="288.9" y2="160.2"/>
		<line class="st2" x1="269.5" y1="176.4" x2="288.9" y2="176.4"/>
		<line class="st2" x1="269.5" y1="192.6" x2="288.9" y2="192.6"/>
	</g>
	<g transform="translate(381.8034,345.7369)">
		<path class="st5" d="M-116.5-105.9h2.2c-0.1-0.6-0.2-1.1-0.5-1.6c-0.3-0.5-0.6-0.8-1-1.2c-0.4-0.3-0.8-0.5-1.4-0.7s-1-0.2-1.6-0.2
			c-0.8,0-1.5,0.1-2.1,0.4s-1.2,0.7-1.6,1.1c-0.4,0.5-0.8,1.1-1,1.7c-0.2,0.7-0.3,1.4-0.3,2.1c0,0.7,0.1,1.4,0.3,2.1
			c0.2,0.6,0.6,1.2,1,1.7c0.4,0.5,1,0.9,1.6,1.1s1.3,0.4,2.1,0.4c0.6,0,1.2-0.1,1.7-0.3c0.5-0.2,1-0.5,1.4-0.8
			c0.4-0.4,0.7-0.8,0.9-1.3c0.2-0.5,0.4-1.1,0.4-1.7h-2.2c-0.1,0.7-0.3,1.2-0.7,1.7c-0.4,0.4-0.9,0.6-1.6,0.6
			c-0.5,0-0.9-0.1-1.3-0.3c-0.4-0.2-0.6-0.5-0.9-0.8s-0.4-0.7-0.5-1.1c-0.1-0.4-0.2-0.8-0.2-1.3c0-0.5,0.1-0.9,0.2-1.3
			c0.1-0.4,0.3-0.8,0.5-1.1s0.5-0.6,0.9-0.8c0.4-0.2,0.8-0.3,1.3-0.3c0.3,0,0.5,0,0.8,0.1c0.3,0.1,0.5,0.2,0.7,0.4
			c0.2,0.2,0.4,0.4,0.5,0.6C-116.6-106.4-116.5-106.1-116.5-105.9z"/>
	</g>
	<g transform="translate(381.8034,365.9935)">
		<path class="st5" d="M-114.6-107v-6.4h-2.3v6.4c0,0.8-0.2,1.3-0.5,1.7c-0.3,0.4-0.9,0.5-1.7,0.5c-0.5,0-0.8-0.1-1.1-0.2
			c-0.3-0.1-0.5-0.3-0.6-0.5s-0.3-0.4-0.3-0.7c0-0.3-0.1-0.5-0.1-0.8v-6.4h-2.3v6.4c0,1.4,0.4,2.4,1.1,3.1c0.8,0.7,1.8,1,3.2,1
			c1.4,0,2.4-0.3,3.2-1S-114.6-105.6-114.6-107z"/>
	</g>
	<g transform="translate(310.9053,406.5067)">
		<path class="st5" d="M-101.6-112.5l0.2,1.2h1.4v-5.5h-4.3v1.7h2.3c-0.1,0.7-0.3,1.3-0.7,1.6c-0.4,0.4-1,0.6-1.7,0.6
			c-0.5,0-0.9-0.1-1.3-0.3c-0.4-0.2-0.6-0.5-0.9-0.8s-0.4-0.7-0.5-1.1c-0.1-0.4-0.2-0.8-0.2-1.3c0-0.5,0.1-0.9,0.2-1.3
			c0.1-0.4,0.3-0.8,0.5-1.1s0.5-0.6,0.9-0.8c0.4-0.2,0.8-0.3,1.3-0.3c0.5,0,1,0.1,1.4,0.4s0.6,0.7,0.8,1.3h2.2
			c-0.1-0.6-0.2-1.1-0.5-1.6c-0.3-0.5-0.6-0.8-1-1.1c-0.4-0.3-0.8-0.5-1.3-0.7c-0.5-0.2-1-0.2-1.5-0.2c-0.8,0-1.5,0.1-2.1,0.4
			c-0.6,0.3-1.2,0.7-1.6,1.1c-0.4,0.5-0.8,1.1-1,1.7c-0.2,0.7-0.3,1.4-0.3,2.1c0,0.7,0.1,1.4,0.3,2.1c0.2,0.6,0.6,1.2,1,1.7
			c0.4,0.5,1,0.9,1.6,1.1c0.6,0.3,1.3,0.4,2.1,0.4c0.5,0,1-0.1,1.5-0.3C-102.5-111.6-102-111.9-101.6-112.5z"/>
	</g>
	<g transform="translate(290.6487,406.5067)">
		<path class="st5" d="M-97.6-112.5l0.2,1.2h1.4v-5.5h-4.3v1.7h2.3c-0.1,0.7-0.3,1.3-0.7,1.6c-0.4,0.4-1,0.6-1.7,0.6
			c-0.5,0-0.9-0.1-1.3-0.3c-0.4-0.2-0.6-0.5-0.9-0.8s-0.4-0.7-0.5-1.1c-0.1-0.4-0.2-0.8-0.2-1.3c0-0.5,0.1-0.9,0.2-1.3
			c0.1-0.4,0.3-0.8,0.5-1.1s0.5-0.6,0.9-0.8c0.4-0.2,0.8-0.3,1.3-0.3c0.5,0,1,0.1,1.4,0.4s0.6,0.7,0.8,1.3h2.2
			c-0.1-0.6-0.2-1.1-0.5-1.6c-0.3-0.5-0.6-0.8-1-1.1c-0.4-0.3-0.8-0.5-1.3-0.7c-0.5-0.2-1-0.2-1.5-0.2c-0.8,0-1.5,0.1-2.1,0.4
			c-0.6,0.3-1.2,0.7-1.6,1.1c-0.4,0.5-0.8,1.1-1,1.7c-0.2,0.7-0.3,1.4-0.3,2.1c0,0.7,0.1,1.4,0.3,2.1c0.2,0.6,0.6,1.2,1,1.7
			c0.4,0.5,1,0.9,1.6,1.1c0.6,0.3,1.3,0.4,2.1,0.4c0.5,0,1-0.1,1.5-0.3C-98.4-111.6-98-111.9-97.6-112.5z"/>
	</g>
	<g transform="translate(270.3921,406.5067)">
		<path class="st5" d="M-94-118.1h2.2c-0.1-0.6-0.2-1.1-0.5-1.6c-0.3-0.5-0.6-0.8-1-1.2c-0.4-0.3-0.8-0.5-1.4-0.7s-1-0.2-1.6-0.2
			c-0.8,0-1.5,0.1-2.1,0.4c-0.6,0.3-1.2,0.7-1.6,1.1c-0.4,0.5-0.8,1.1-1,1.7c-0.2,0.7-0.3,1.4-0.3,2.1c0,0.7,0.1,1.4,0.3,2.1
			c0.2,0.6,0.6,1.2,1,1.7c0.4,0.5,1,0.9,1.6,1.1c0.6,0.3,1.3,0.4,2.1,0.4c0.6,0,1.2-0.1,1.7-0.3c0.5-0.2,1-0.5,1.4-0.8
			c0.4-0.4,0.7-0.8,0.9-1.3c0.2-0.5,0.4-1.1,0.4-1.7H-94c-0.1,0.7-0.3,1.2-0.7,1.7c-0.4,0.4-0.9,0.6-1.6,0.6c-0.5,0-0.9-0.1-1.3-0.3
			c-0.4-0.2-0.6-0.5-0.9-0.8s-0.4-0.7-0.5-1.1c-0.1-0.4-0.2-0.8-0.2-1.3c0-0.5,0.1-0.9,0.2-1.3c0.1-0.4,0.3-0.8,0.5-1.1
			s0.5-0.6,0.9-0.8c0.4-0.2,0.8-0.3,1.3-0.3c0.3,0,0.5,0,0.8,0.1c0.3,0.1,0.5,0.2,0.7,0.4c0.2,0.2,0.4,0.4,0.5,0.6
			C-94.2-118.6-94.1-118.4-94-118.1z"/>
	</g>
	<g transform="translate(250.1355,406.5067)">
		<path class="st5" d="M-89.4-112.5l0.2,1.2h1.4v-5.5H-92v1.7h2.3c-0.1,0.7-0.3,1.3-0.7,1.6c-0.4,0.4-1,0.6-1.7,0.6
			c-0.5,0-0.9-0.1-1.3-0.3c-0.4-0.2-0.6-0.5-0.9-0.8s-0.4-0.7-0.5-1.1c-0.1-0.4-0.2-0.8-0.2-1.3c0-0.5,0.1-0.9,0.2-1.3
			c0.1-0.4,0.3-0.8,0.5-1.1s0.5-0.6,0.9-0.8c0.4-0.2,0.8-0.3,1.3-0.3c0.5,0,1,0.1,1.4,0.4s0.6,0.7,0.8,1.3h2.2
			c-0.1-0.6-0.2-1.1-0.5-1.6c-0.3-0.5-0.6-0.8-1-1.1c-0.4-0.3-0.8-0.5-1.3-0.7c-0.5-0.2-1-0.2-1.5-0.2c-0.8,0-1.5,0.1-2.1,0.4
			c-0.6,0.3-1.2,0.7-1.6,1.1c-0.4,0.5-0.8,1.1-1,1.7c-0.2,0.7-0.3,1.4-0.3,2.1c0,0.7,0.1,1.4,0.3,2.1c0.2,0.6,0.6,1.2,1,1.7
			c0.4,0.5,1,0.9,1.6,1.1c0.6,0.3,1.3,0.4,2.1,0.4c0.5,0,1-0.1,1.5-0.3C-90.2-111.6-89.8-111.9-89.4-112.5z"/>
	</g>
	<g transform="translate(229.8789,406.5067)">
		<path class="st5" d="M-85.3-112.5l0.2,1.2h1.4v-5.5h-4.3v1.7h2.3c-0.1,0.7-0.3,1.3-0.7,1.6c-0.4,0.4-1,0.6-1.7,0.6
			c-0.5,0-0.9-0.1-1.3-0.3c-0.4-0.2-0.6-0.5-0.9-0.8s-0.4-0.7-0.5-1.1c-0.1-0.4-0.2-0.8-0.2-1.3c0-0.5,0.1-0.9,0.2-1.3
			c0.1-0.4,0.3-0.8,0.5-1.1s0.5-0.6,0.9-0.8c0.4-0.2,0.8-0.3,1.3-0.3c0.5,0,1,0.1,1.4,0.4s0.6,0.7,0.8,1.3h2.2
			c-0.1-0.6-0.2-1.1-0.5-1.6c-0.3-0.5-0.6-0.8-1-1.1c-0.4-0.3-0.8-0.5-1.3-0.7c-0.5-0.2-1-0.2-1.5-0.2c-0.8,0-1.5,0.1-2.1,0.4
			c-0.6,0.3-1.2,0.7-1.6,1.1c-0.4,0.5-0.8,1.1-1,1.7c-0.2,0.7-0.3,1.4-0.3,2.1c0,0.7,0.1,1.4,0.3,2.1c0.2,0.6,0.6,1.2,1,1.7
			c0.4,0.5,1,0.9,1.6,1.1c0.6,0.3,1.3,0.4,2.1,0.4c0.5,0,1-0.1,1.5-0.3C-86.1-111.6-85.7-111.9-85.3-112.5z"/>
	</g>
	<g transform="translate(209.6223,406.5067)">
		<path class="st5" d="M-85.6-115.3l1.3-3.8h0l1.3,3.8H-85.6z M-85.4-121.6l-3.9,10.3h2.3l0.8-2.3h3.8l0.8,2.3h2.3l-3.8-10.3H-85.4z
			"/>
	</g>
	<g transform="translate(255.1997,487.5331)">
		<path class="st5" d="M-89.1-131.5v-6.4h-2.3v6.4c0,0.8-0.2,1.3-0.5,1.7c-0.3,0.4-0.9,0.5-1.7,0.5c-0.5,0-0.8-0.1-1.1-0.2
			c-0.3-0.1-0.5-0.3-0.6-0.5c-0.2-0.2-0.3-0.4-0.3-0.7c0-0.3-0.1-0.5-0.1-0.8v-6.4h-2.3v6.4c0,1.4,0.4,2.4,1.1,3.1
			c0.8,0.7,1.8,1,3.2,1c1.4,0,2.4-0.3,3.2-1S-89.1-130.1-89.1-131.5z"/>
	</g>
	<g>
		<line class="st2" x1="162" y1="365.1" x2="162" y2="375.9"/>
	</g>
	<g transform="translate(255.1997,514.5419)">
		<path d="M-101-130.9h1.2c0-0.3,0-0.6,0.1-0.9c0.1-0.3,0.2-0.6,0.4-0.8c0.2-0.2,0.4-0.4,0.6-0.6c0.3-0.1,0.6-0.2,0.9-0.2
			c0.3,0,0.5,0,0.8,0.1c0.2,0.1,0.4,0.2,0.6,0.4c0.2,0.2,0.3,0.4,0.4,0.6s0.2,0.5,0.2,0.8c0,0.4-0.1,0.7-0.2,0.9s-0.3,0.5-0.5,0.7
			s-0.5,0.5-0.8,0.7s-0.7,0.5-1.1,0.7c-0.4,0.2-0.7,0.4-1,0.7c-0.3,0.2-0.6,0.5-0.9,0.8c-0.3,0.3-0.5,0.7-0.6,1.1
			c-0.2,0.4-0.3,0.9-0.3,1.5h6.7v-1.1h-5.2c0.1-0.3,0.2-0.6,0.4-0.8c0.2-0.2,0.4-0.5,0.7-0.7c0.3-0.2,0.6-0.4,0.9-0.6
			c0.3-0.2,0.6-0.4,0.9-0.6c0.3-0.2,0.6-0.4,0.9-0.6c0.3-0.2,0.6-0.5,0.8-0.7c0.2-0.3,0.4-0.6,0.6-0.9c0.1-0.3,0.2-0.7,0.2-1.2
			c0-0.5-0.1-0.9-0.3-1.3c-0.2-0.4-0.4-0.7-0.7-0.9s-0.6-0.4-1-0.6s-0.8-0.2-1.2-0.2c-0.5,0-1,0.1-1.4,0.3c-0.4,0.2-0.8,0.4-1.1,0.8
			s-0.5,0.7-0.6,1.1C-101-131.9-101-131.4-101-130.9z M-91.7-129.3c0-0.2,0-0.5,0-0.8c0-0.3,0-0.6,0.1-0.9c0-0.3,0.1-0.6,0.2-0.9
			c0.1-0.3,0.2-0.5,0.4-0.8s0.4-0.4,0.6-0.5s0.5-0.2,0.9-0.2s0.6,0.1,0.9,0.2c0.2,0.1,0.4,0.3,0.6,0.5s0.3,0.5,0.4,0.8
			c0.1,0.3,0.1,0.6,0.2,0.9c0,0.3,0.1,0.6,0.1,0.9c0,0.3,0,0.6,0,0.8c0,0.4,0,0.8,0,1.3c0,0.5-0.1,0.9-0.2,1.3
			c-0.1,0.4-0.3,0.8-0.6,1.1c-0.3,0.3-0.7,0.4-1.2,0.4c-0.5,0-0.9-0.1-1.2-0.4s-0.5-0.6-0.6-1.1c-0.1-0.4-0.2-0.9-0.2-1.3
			C-91.7-128.5-91.7-128.9-91.7-129.3z M-93-129.3c0,0.4,0,0.8,0,1.2c0,0.4,0.1,0.8,0.1,1.2s0.2,0.7,0.3,1.1
			c0.1,0.3,0.3,0.6,0.6,0.9c0.2,0.3,0.6,0.5,0.9,0.6c0.4,0.1,0.8,0.2,1.4,0.2c0.5,0,1-0.1,1.4-0.2c0.4-0.1,0.7-0.4,0.9-0.6
			c0.2-0.3,0.4-0.6,0.6-0.9c0.1-0.3,0.3-0.7,0.3-1.1c0.1-0.4,0.1-0.8,0.1-1.2c0-0.4,0-0.8,0-1.2s0-0.8,0-1.2c0-0.4-0.1-0.8-0.1-1.2
			c-0.1-0.4-0.2-0.7-0.3-1.1c-0.1-0.3-0.3-0.6-0.6-0.9c-0.2-0.3-0.6-0.5-0.9-0.6c-0.4-0.2-0.8-0.2-1.4-0.2c-0.5,0-1,0.1-1.4,0.2
			c-0.4,0.2-0.7,0.4-0.9,0.6c-0.2,0.3-0.4,0.6-0.6,0.9c-0.1,0.3-0.3,0.7-0.3,1.1s-0.1,0.8-0.1,1.2C-93-130.1-93-129.7-93-129.3z"/>
	</g>
	<g transform="translate(209.6223,365.9935)">
		<path class="st5" d="M-85.6-107.1l1.3-3.8h0l1.3,3.8H-85.6z M-85.4-113.4l-3.9,10.3h2.3l0.8-2.3h3.8l0.8,2.3h2.3l-3.8-10.3H-85.4z
			"/>
	</g>
	<g>
		<line class="st2" x1="125.6" y1="246.5" x2="125.6" y2="235.7"/>
	</g>
	<g transform="translate(209.6223,338.9847)">
		<path d="M-86.5-114.1h1.2c-0.1-0.8-0.4-1.5-0.9-1.9s-1.2-0.7-2-0.7c-0.7,0-1.3,0.2-1.8,0.5c-0.5,0.3-0.9,0.7-1.1,1.2
			c-0.3,0.5-0.5,1.1-0.6,1.7s-0.2,1.3-0.2,2c0,0.5,0,1.1,0.1,1.7c0.1,0.6,0.2,1.1,0.5,1.6c0.2,0.5,0.6,0.9,1.1,1.2
			c0.5,0.3,1.1,0.5,1.8,0.5c0.6,0,1.2-0.1,1.6-0.3s0.8-0.5,1-0.8c0.3-0.3,0.5-0.7,0.6-1.1s0.2-0.8,0.2-1.2c0-0.5-0.1-0.9-0.2-1.3
			c-0.1-0.4-0.3-0.8-0.6-1s-0.6-0.5-1-0.7s-0.8-0.3-1.3-0.3c-0.6,0-1,0.1-1.5,0.3c-0.4,0.2-0.8,0.6-1.1,1l0,0c0-0.4,0-0.8,0.1-1.3
			c0.1-0.5,0.2-0.9,0.4-1.3s0.4-0.7,0.7-1c0.3-0.3,0.7-0.4,1.3-0.4c0.5,0,0.9,0.1,1.2,0.4C-86.7-114.9-86.5-114.5-86.5-114.1z
			 M-88.3-111.9c0.3,0,0.6,0.1,0.9,0.2c0.3,0.1,0.5,0.3,0.6,0.5c0.2,0.2,0.3,0.5,0.4,0.7c0.1,0.3,0.1,0.6,0.1,0.9
			c0,0.3,0,0.6-0.1,0.9c-0.1,0.3-0.2,0.5-0.4,0.7s-0.4,0.4-0.6,0.5c-0.3,0.1-0.5,0.2-0.9,0.2s-0.6-0.1-0.9-0.2
			c-0.3-0.1-0.5-0.3-0.7-0.5c-0.2-0.2-0.3-0.4-0.4-0.7c-0.1-0.3-0.1-0.6-0.1-0.9c0-0.3,0-0.6,0.1-0.9c0.1-0.3,0.2-0.5,0.4-0.7
			c0.2-0.2,0.4-0.4,0.7-0.5C-89-111.9-88.7-111.9-88.3-111.9z M-82.5-111.5c0-0.2,0-0.5,0-0.8c0-0.3,0-0.6,0.1-0.9
			c0-0.3,0.1-0.6,0.2-0.9c0.1-0.3,0.2-0.5,0.4-0.8s0.4-0.4,0.6-0.5c0.2-0.1,0.5-0.2,0.9-0.2c0.3,0,0.6,0.1,0.9,0.2
			c0.2,0.1,0.4,0.3,0.6,0.5s0.3,0.5,0.4,0.8c0.1,0.3,0.1,0.6,0.2,0.9c0,0.3,0.1,0.6,0.1,0.9c0,0.3,0,0.6,0,0.8c0,0.4,0,0.8,0,1.3
			c0,0.5-0.1,0.9-0.2,1.3c-0.1,0.4-0.3,0.8-0.6,1.1s-0.7,0.4-1.2,0.4c-0.5,0-0.9-0.1-1.2-0.4s-0.5-0.6-0.6-1.1
			c-0.1-0.4-0.2-0.9-0.2-1.3C-82.5-110.7-82.5-111.1-82.5-111.5z M-83.8-111.5c0,0.4,0,0.8,0,1.2c0,0.4,0.1,0.8,0.1,1.2
			c0.1,0.4,0.2,0.7,0.3,1.1c0.1,0.3,0.3,0.6,0.6,0.9c0.2,0.3,0.6,0.5,0.9,0.6c0.4,0.1,0.8,0.2,1.4,0.2c0.5,0,1-0.1,1.4-0.2
			c0.4-0.1,0.7-0.4,0.9-0.6c0.2-0.3,0.4-0.6,0.6-0.9c0.1-0.3,0.3-0.7,0.3-1.1c0.1-0.4,0.1-0.8,0.1-1.2c0-0.4,0-0.8,0-1.2
			c0-0.4,0-0.8,0-1.2s-0.1-0.8-0.1-1.2c-0.1-0.4-0.2-0.7-0.3-1.1c-0.1-0.3-0.3-0.6-0.6-0.9c-0.2-0.3-0.6-0.5-0.9-0.6
			c-0.4-0.2-0.8-0.2-1.4-0.2c-0.5,0-1,0.1-1.4,0.2c-0.4,0.2-0.7,0.4-0.9,0.6c-0.2,0.3-0.4,0.6-0.6,0.9c-0.1,0.3-0.3,0.7-0.3,1.1
			c-0.1,0.4-0.1,0.8-0.1,1.2S-83.8-111.8-83.8-111.5z"/>
	</g>
	<g transform="translate(229.8789,365.9935)">
		<path class="st5" d="M-85.9-109.9h2.2c-0.1-0.6-0.2-1.1-0.5-1.6c-0.3-0.5-0.6-0.8-1-1.2c-0.4-0.3-0.8-0.5-1.4-0.7s-1-0.2-1.6-0.2
			c-0.8,0-1.5,0.1-2.1,0.4c-0.6,0.3-1.2,0.7-1.6,1.1c-0.4,0.5-0.8,1.1-1,1.7c-0.2,0.7-0.3,1.4-0.3,2.1c0,0.7,0.1,1.4,0.3,2.1
			c0.2,0.6,0.6,1.2,1,1.7s1,0.9,1.6,1.1c0.6,0.3,1.3,0.4,2.1,0.4c0.6,0,1.2-0.1,1.7-0.3c0.5-0.2,1-0.5,1.4-0.8
			c0.4-0.4,0.7-0.8,0.9-1.3c0.2-0.5,0.4-1.1,0.4-1.7h-2.2c-0.1,0.7-0.3,1.2-0.7,1.7c-0.4,0.4-0.9,0.6-1.6,0.6
			c-0.5,0-0.9-0.1-1.3-0.3c-0.4-0.2-0.6-0.5-0.9-0.8s-0.4-0.7-0.5-1.1c-0.1-0.4-0.2-0.8-0.2-1.3c0-0.5,0.1-0.9,0.2-1.3
			c0.1-0.4,0.3-0.8,0.5-1.1s0.5-0.6,0.9-0.8c0.4-0.2,0.8-0.3,1.3-0.3c0.3,0,0.5,0,0.8,0.1c0.3,0.1,0.5,0.2,0.7,0.4
			c0.2,0.2,0.4,0.4,0.5,0.6C-86-110.4-85.9-110.2-85.9-109.9z"/>
	</g>
	<g transform="translate(250.1355,365.9935)">
		<path class="st5" d="M-90-109.9h2.2c-0.1-0.6-0.2-1.1-0.5-1.6c-0.3-0.5-0.6-0.8-1-1.2c-0.4-0.3-0.8-0.5-1.4-0.7s-1-0.2-1.6-0.2
			c-0.8,0-1.5,0.1-2.1,0.4c-0.6,0.3-1.2,0.7-1.6,1.1c-0.4,0.5-0.8,1.1-1,1.7c-0.2,0.7-0.3,1.4-0.3,2.1c0,0.7,0.1,1.4,0.3,2.1
			c0.2,0.6,0.6,1.2,1,1.7s1,0.9,1.6,1.1c0.6,0.3,1.3,0.4,2.1,0.4c0.6,0,1.2-0.1,1.7-0.3c0.5-0.2,1-0.5,1.4-0.8
			c0.4-0.4,0.7-0.8,0.9-1.3c0.2-0.5,0.4-1.1,0.4-1.7h-2.2c-0.1,0.7-0.3,1.2-0.7,1.7c-0.4,0.4-0.9,0.6-1.6,0.6
			c-0.5,0-0.9-0.1-1.3-0.3c-0.4-0.2-0.6-0.5-0.9-0.8s-0.4-0.7-0.5-1.1c-0.1-0.4-0.2-0.8-0.2-1.3c0-0.5,0.1-0.9,0.2-1.3
			c0.1-0.4,0.3-0.8,0.5-1.1s0.5-0.6,0.9-0.8c0.4-0.2,0.8-0.3,1.3-0.3c0.3,0,0.5,0,0.8,0.1c0.3,0.1,0.5,0.2,0.7,0.4
			c0.2,0.2,0.4,0.4,0.5,0.6C-90.1-110.4-90-110.2-90-109.9z"/>
	</g>
	<g transform="translate(270.3921,365.9935)">
		<path class="st5" d="M-93.5-104.3l0.2,1.2h1.4v-5.5h-4.3v1.7h2.3c-0.1,0.7-0.3,1.3-0.7,1.6c-0.4,0.4-1,0.6-1.7,0.6
			c-0.5,0-0.9-0.1-1.3-0.3c-0.4-0.2-0.6-0.5-0.9-0.8s-0.4-0.7-0.5-1.1c-0.1-0.4-0.2-0.8-0.2-1.3c0-0.5,0.1-0.9,0.2-1.3
			c0.1-0.4,0.3-0.8,0.5-1.1s0.5-0.6,0.9-0.8c0.4-0.2,0.8-0.3,1.3-0.3c0.5,0,1,0.1,1.4,0.4s0.6,0.7,0.8,1.3h2.2
			c-0.1-0.6-0.2-1.1-0.5-1.6s-0.6-0.8-1-1.1c-0.4-0.3-0.8-0.5-1.3-0.7c-0.5-0.2-1-0.2-1.5-0.2c-0.8,0-1.5,0.1-2.1,0.4
			c-0.6,0.3-1.2,0.7-1.6,1.1c-0.4,0.5-0.8,1.1-1,1.7c-0.2,0.7-0.3,1.4-0.3,2.1c0,0.7,0.1,1.4,0.3,2.1c0.2,0.6,0.6,1.2,1,1.7
			s1,0.9,1.6,1.1c0.6,0.3,1.3,0.4,2.1,0.4c0.5,0,1-0.1,1.5-0.3C-94.3-103.4-93.9-103.8-93.5-104.3z"/>
	</g>
	<g transform="translate(290.6487,365.9935)">
		<path class="st5" d="M-98.1-109.9h2.2c-0.1-0.6-0.2-1.1-0.5-1.6c-0.3-0.5-0.6-0.8-1-1.2c-0.4-0.3-0.8-0.5-1.4-0.7
			c-0.5-0.2-1-0.2-1.6-0.2c-0.8,0-1.5,0.1-2.1,0.4c-0.6,0.3-1.2,0.7-1.6,1.1c-0.4,0.5-0.8,1.1-1,1.7c-0.2,0.7-0.3,1.4-0.3,2.1
			c0,0.7,0.1,1.4,0.3,2.1c0.2,0.6,0.6,1.2,1,1.7s1,0.9,1.6,1.1c0.6,0.3,1.3,0.4,2.1,0.4c0.6,0,1.2-0.1,1.7-0.3
			c0.5-0.2,1-0.5,1.4-0.8c0.4-0.4,0.7-0.8,0.9-1.3c0.2-0.5,0.4-1.1,0.4-1.7H-98c-0.1,0.7-0.3,1.2-0.7,1.7c-0.4,0.4-0.9,0.6-1.6,0.6
			c-0.5,0-0.9-0.1-1.3-0.3c-0.4-0.2-0.6-0.5-0.9-0.8s-0.4-0.7-0.5-1.1c-0.1-0.4-0.2-0.8-0.2-1.3c0-0.5,0.1-0.9,0.2-1.3
			c0.1-0.4,0.3-0.8,0.5-1.1s0.5-0.6,0.9-0.8c0.4-0.2,0.8-0.3,1.3-0.3c0.3,0,0.5,0,0.8,0.1s0.5,0.2,0.7,0.4c0.2,0.2,0.4,0.4,0.5,0.6
			C-98.2-110.4-98.2-110.2-98.1-109.9z"/>
	</g>
	<g transform="translate(310.9053,365.9935)">
		<path class="st5" d="M-102.2-109.9h2.2c-0.1-0.6-0.2-1.1-0.5-1.6c-0.3-0.5-0.6-0.8-1-1.2c-0.4-0.3-0.8-0.5-1.4-0.7s-1-0.2-1.6-0.2
			c-0.8,0-1.5,0.1-2.1,0.4c-0.6,0.3-1.2,0.7-1.6,1.1c-0.4,0.5-0.8,1.1-1,1.7c-0.2,0.7-0.3,1.4-0.3,2.1c0,0.7,0.1,1.4,0.3,2.1
			c0.2,0.6,0.6,1.2,1,1.7s1,0.9,1.6,1.1c0.6,0.3,1.3,0.4,2.1,0.4c0.6,0,1.2-0.1,1.7-0.3c0.5-0.2,1-0.5,1.4-0.8
			c0.4-0.4,0.7-0.8,0.9-1.3c0.2-0.5,0.4-1.1,0.4-1.7h-2.2c-0.1,0.7-0.3,1.2-0.7,1.7c-0.4,0.4-0.9,0.6-1.6,0.6
			c-0.5,0-0.9-0.1-1.3-0.3c-0.4-0.2-0.6-0.5-0.9-0.8s-0.4-0.7-0.5-1.1c-0.1-0.4-0.2-0.8-0.2-1.3c0-0.5,0.1-0.9,0.2-1.3
			c0.1-0.4,0.3-0.8,0.5-1.1s0.5-0.6,0.9-0.8c0.4-0.2,0.8-0.3,1.3-0.3c0.3,0,0.5,0,0.8,0.1c0.3,0.1,0.5,0.2,0.7,0.4
			c0.2,0.2,0.4,0.4,0.5,0.6C-102.3-110.4-102.2-110.2-102.2-109.9z"/>
	</g>
	<g transform="translate(305.8412,345.7369)">
		<path class="st5" d="M-99.3-102.9v-6.4h-2.3v6.4c0,0.8-0.2,1.3-0.5,1.7c-0.3,0.4-0.9,0.5-1.7,0.5c-0.5,0-0.8-0.1-1.1-0.2
			c-0.3-0.1-0.5-0.3-0.6-0.5s-0.3-0.4-0.3-0.7s-0.1-0.5-0.1-0.8v-6.4h-2.3v6.4c0,1.4,0.4,2.4,1.1,3.1c0.8,0.7,1.8,1,3.2,1
			c1.4,0,2.4-0.3,3.2-1S-99.3-101.5-99.3-102.9z"/>
	</g>
	<g>
		<line class="st2" x1="206.5" y1="283.2" x2="206.5" y2="263.7"/>
		<line class="st2" x1="190.3" y1="283.2" x2="190.3" y2="263.7"/>
		<line class="st2" x1="174.1" y1="283.2" x2="174.1" y2="263.7"/>
		<line class="st2" x1="157.9" y1="283.2" x2="157.9" y2="263.7"/>
		<line class="st2" x1="141.8" y1="283.2" x2="141.8" y2="263.7"/>
		<line class="st3" x1="168.4" y1="354.3" x2="208.1" y2="354.3"/>
	</g>
	<g>
		<path d="M185.6,351.9l-2.7-2.4v9.7l2.7-2.4l2.7-0.8l2.7-0.4l5.4-1.2l-5.4-1.2l-2.7-0.4L185.6,351.9z"/>
	</g>
	<g>
		<path class="st4" d="M182.9,349.5l2.7,2.4l2.7,0.8l2.7,0.4l5.4,1.2l-5.4,1.2l-2.7,0.4l-2.7,0.8l-2.7,2.4V349.5"/>
	</g>
	<g transform="translate(321.0336,487.5331)">
		<path class="st6" d="M-102.4-131.5v-6.4h-2.3v6.4c0,0.8-0.2,1.3-0.5,1.7c-0.3,0.4-0.9,0.5-1.7,0.5c-0.5,0-0.8-0.1-1.1-0.2
			c-0.3-0.1-0.5-0.3-0.6-0.5s-0.3-0.4-0.3-0.7c0-0.3-0.1-0.5-0.1-0.8v-6.4h-2.3v6.4c0,1.4,0.4,2.4,1.1,3.1c0.8,0.7,1.8,1,3.2,1
			c1.4,0,2.4-0.3,3.2-1S-102.4-130.1-102.4-131.5z"/>
	</g>
	<g transform="translate(356.4827,406.5067)">
		<path class="st6" d="M-115.3-115.3l1.3-3.8h0l1.3,3.8H-115.3z M-115-121.6l-3.9,10.3h2.3l0.8-2.3h3.8l0.8,2.3h2.3l-3.8-10.3H-115z
			"/>
	</g>
	<g transform="translate(381.8034,406.5067)">
		<path class="st6" d="M-115.9-112.5l0.2,1.2h1.4v-5.5h-4.3v1.7h2.3c-0.1,0.7-0.3,1.3-0.7,1.6c-0.4,0.4-1,0.6-1.7,0.6
			c-0.5,0-0.9-0.1-1.3-0.3c-0.4-0.2-0.6-0.5-0.9-0.8s-0.4-0.7-0.5-1.1c-0.1-0.4-0.2-0.8-0.2-1.3c0-0.5,0.1-0.9,0.2-1.3
			c0.1-0.4,0.3-0.8,0.5-1.1s0.5-0.6,0.9-0.8c0.4-0.2,0.8-0.3,1.3-0.3c0.5,0,1,0.1,1.4,0.4s0.6,0.7,0.8,1.3h2.2
			c-0.1-0.6-0.2-1.1-0.5-1.6c-0.3-0.5-0.6-0.8-1-1.1c-0.4-0.3-0.8-0.5-1.3-0.7c-0.5-0.2-1-0.2-1.5-0.2c-0.8,0-1.5,0.1-2.1,0.4
			s-1.2,0.7-1.6,1.1c-0.4,0.5-0.8,1.1-1,1.7c-0.2,0.7-0.3,1.4-0.3,2.1c0,0.7,0.1,1.4,0.3,2.1c0.2,0.6,0.6,1.2,1,1.7
			c0.4,0.5,1,0.9,1.6,1.1s1.3,0.4,2.1,0.4c0.5,0,1-0.1,1.5-0.3S-116.3-111.9-115.9-112.5z"/>
	</g>
	<g transform="translate(381.8034,426.7633)">
		<path class="st6" d="M-114.6-119.3v-6.4h-2.3v6.4c0,0.8-0.2,1.3-0.5,1.7c-0.3,0.4-0.9,0.5-1.7,0.5c-0.5,0-0.8-0.1-1.1-0.2
			c-0.3-0.1-0.5-0.3-0.6-0.5s-0.3-0.4-0.3-0.7c0-0.3-0.1-0.5-0.1-0.8v-6.4h-2.3v6.4c0,1.4,0.4,2.4,1.1,3.1c0.8,0.7,1.8,1,3.2,1
			c1.4,0,2.4-0.3,3.2-1S-114.6-117.9-114.6-119.3z"/>
	</g>
	<g transform="translate(381.8034,447.0199)">
		<path class="st6" d="M-115.9-120.6l0.2,1.2h1.4v-5.5h-4.3v1.7h2.3c-0.1,0.7-0.3,1.3-0.7,1.6c-0.4,0.4-1,0.6-1.7,0.6
			c-0.5,0-0.9-0.1-1.3-0.3c-0.4-0.2-0.6-0.5-0.9-0.8s-0.4-0.7-0.5-1.1c-0.1-0.4-0.2-0.8-0.2-1.3c0-0.5,0.1-0.9,0.2-1.3
			c0.1-0.4,0.3-0.8,0.5-1.1s0.5-0.6,0.9-0.8c0.4-0.2,0.8-0.3,1.3-0.3c0.5,0,1,0.1,1.4,0.4s0.6,0.7,0.8,1.3h2.2
			c-0.1-0.6-0.2-1.1-0.5-1.6c-0.3-0.5-0.6-0.8-1-1.1c-0.4-0.3-0.8-0.5-1.3-0.7c-0.5-0.2-1-0.2-1.5-0.2c-0.8,0-1.5,0.1-2.1,0.4
			c-0.6,0.3-1.2,0.7-1.6,1.1c-0.4,0.5-0.8,1.1-1,1.7c-0.2,0.7-0.3,1.4-0.3,2.1c0,0.7,0.1,1.4,0.3,2.1c0.2,0.6,0.6,1.2,1,1.7
			c0.4,0.5,1,0.9,1.6,1.1s1.3,0.4,2.1,0.4c0.5,0,1-0.1,1.5-0.3S-116.3-120.1-115.9-120.6z"/>
	</g>
	<g transform="translate(381.8034,467.2765)">
		<path class="st6" d="M-115.9-124.7l0.2,1.2h1.4v-5.5h-4.3v1.7h2.3c-0.1,0.7-0.3,1.3-0.7,1.6c-0.4,0.4-1,0.6-1.7,0.6
			c-0.5,0-0.9-0.1-1.3-0.3c-0.4-0.2-0.6-0.5-0.9-0.8s-0.4-0.7-0.5-1.1c-0.1-0.4-0.2-0.8-0.2-1.3c0-0.5,0.1-0.9,0.2-1.3
			c0.1-0.4,0.3-0.8,0.5-1.1c0.2-0.3,0.5-0.6,0.9-0.8c0.4-0.2,0.8-0.3,1.3-0.3c0.5,0,1,0.1,1.4,0.4c0.4,0.3,0.6,0.7,0.8,1.3h2.2
			c-0.1-0.6-0.2-1.1-0.5-1.6c-0.3-0.5-0.6-0.8-1-1.1s-0.8-0.5-1.3-0.7c-0.5-0.2-1-0.2-1.5-0.2c-0.8,0-1.5,0.1-2.1,0.4
			c-0.6,0.3-1.2,0.7-1.6,1.1c-0.4,0.5-0.8,1.1-1,1.7c-0.2,0.7-0.3,1.4-0.3,2.1c0,0.7,0.1,1.4,0.3,2.1c0.2,0.6,0.6,1.2,1,1.7
			c0.4,0.5,1,0.9,1.6,1.1s1.3,0.4,2.1,0.4c0.5,0,1-0.1,1.5-0.3S-116.3-124.2-115.9-124.7z"/>
	</g>
	<g transform="translate(371.6751,487.5331)">
		<path class="st6" d="M-113.9-128.8l0.2,1.2h1.4v-5.5h-4.3v1.7h2.3c-0.1,0.7-0.3,1.3-0.7,1.6c-0.4,0.4-1,0.6-1.7,0.6
			c-0.5,0-0.9-0.1-1.3-0.3c-0.4-0.2-0.6-0.5-0.9-0.8s-0.4-0.7-0.5-1.1c-0.1-0.4-0.2-0.8-0.2-1.3c0-0.5,0.1-0.9,0.2-1.3
			c0.1-0.4,0.3-0.8,0.5-1.1s0.5-0.6,0.9-0.8c0.4-0.2,0.8-0.3,1.3-0.3c0.5,0,1,0.1,1.4,0.4c0.4,0.3,0.6,0.7,0.8,1.3h2.2
			c-0.1-0.6-0.2-1.1-0.5-1.6s-0.6-0.8-1-1.1s-0.8-0.5-1.3-0.7c-0.5-0.2-1-0.2-1.5-0.2c-0.8,0-1.5,0.1-2.1,0.4
			c-0.6,0.3-1.2,0.7-1.6,1.1c-0.4,0.5-0.8,1.1-1,1.7s-0.3,1.4-0.3,2.1c0,0.7,0.1,1.4,0.3,2.1s0.6,1.2,1,1.7c0.4,0.5,1,0.9,1.6,1.1
			c0.6,0.3,1.3,0.4,2.1,0.4c0.5,0,1-0.1,1.5-0.3C-114.7-127.9-114.3-128.3-113.9-128.8z"/>
	</g>
	<g transform="translate(391.9317,507.7897)">
		<path class="st6" d="M-122.4-135.7l1.3-3.8h0l1.3,3.8H-122.4z M-122.2-142l-3.9,10.3h2.3l0.8-2.3h3.8l0.8,2.3h2.3l-3.8-10.3
			H-122.2z"/>
	</g>
	<g transform="translate(417.2525,507.7897)">
		<path class="st6" d="M-127.5-135.7l1.3-3.8h0l1.3,3.8H-127.5z M-127.3-142l-3.9,10.3h2.3l0.8-2.3h3.8l0.8,2.3h2.3L-125-142H-127.3
			z"/>
	</g>
	<g transform="translate(432.4449,487.5331)">
		<path class="st6" d="M-130.6-131.6l1.3-3.8h0l1.3,3.8H-130.6z M-130.3-137.9l-3.9,10.3h2.3l0.8-2.3h3.8l0.8,2.3h2.3l-3.8-10.3
			H-130.3z"/>
	</g>
	<g>
		<line class="st2" x1="314.3" y1="354.3" x2="325.1" y2="354.3"/>
	</g>
	<g transform="translate(459.4537,487.5331)">
		<path d="M-131.3-133.4v1c0.2,0,0.5,0,0.7,0c0.3,0,0.6,0,0.9,0.1s0.5,0.2,0.7,0.4c0.2,0.2,0.3,0.4,0.5,0.6s0.2,0.5,0.2,0.8
			c0,0.3-0.1,0.6-0.2,0.8s-0.3,0.5-0.5,0.6c-0.2,0.2-0.4,0.3-0.7,0.4c-0.3,0.1-0.6,0.1-0.8,0.1c-0.7,0-1.2-0.2-1.6-0.6
			c-0.4-0.4-0.6-1-0.6-1.6h-1.2c0,0.5,0.1,1,0.2,1.4c0.2,0.4,0.4,0.8,0.7,1c0.3,0.3,0.7,0.5,1.1,0.6c0.4,0.1,0.9,0.2,1.4,0.2
			c0.5,0,0.9-0.1,1.4-0.2c0.4-0.1,0.8-0.3,1.1-0.6c0.3-0.3,0.6-0.6,0.8-1c0.2-0.4,0.3-0.8,0.3-1.3c0-0.6-0.2-1.1-0.5-1.6
			c-0.3-0.5-0.8-0.7-1.4-0.9v0c0.4-0.2,0.7-0.5,1-0.8c0.3-0.4,0.4-0.8,0.4-1.2c0-0.5-0.1-0.9-0.2-1.2s-0.4-0.6-0.7-0.8
			c-0.3-0.2-0.6-0.4-1-0.5c-0.4-0.1-0.8-0.2-1.2-0.2c-0.5,0-1,0.1-1.3,0.2c-0.4,0.2-0.7,0.4-1,0.7c-0.3,0.3-0.5,0.6-0.6,1
			c-0.1,0.4-0.2,0.8-0.2,1.3h1.2c0-0.3,0-0.6,0.1-0.8c0.1-0.3,0.2-0.5,0.4-0.7c0.2-0.2,0.4-0.4,0.6-0.5s0.5-0.2,0.9-0.2
			c0.5,0,0.9,0.1,1.3,0.4c0.3,0.3,0.5,0.7,0.5,1.2c0,0.3-0.1,0.5-0.2,0.7c-0.1,0.2-0.2,0.4-0.4,0.5c-0.2,0.1-0.4,0.2-0.6,0.3
			s-0.5,0.1-0.7,0.1h-0.3c0,0-0.1,0-0.1,0C-131.2-133.4-131.2-133.4-131.3-133.4z M-124.5-132.6c0-0.2,0-0.5,0-0.8
			c0-0.3,0-0.6,0.1-0.9c0-0.3,0.1-0.6,0.2-0.9c0.1-0.3,0.2-0.5,0.4-0.8s0.4-0.4,0.6-0.5s0.5-0.2,0.9-0.2c0.3,0,0.6,0.1,0.9,0.2
			c0.2,0.1,0.4,0.3,0.6,0.5s0.3,0.5,0.4,0.8c0.1,0.3,0.1,0.6,0.2,0.9c0,0.3,0.1,0.6,0.1,0.9c0,0.3,0,0.6,0,0.8c0,0.4,0,0.8,0,1.3
			c0,0.5-0.1,0.9-0.2,1.3c-0.1,0.4-0.3,0.8-0.6,1.1c-0.3,0.3-0.7,0.4-1.2,0.4c-0.5,0-0.9-0.1-1.2-0.4c-0.3-0.3-0.5-0.6-0.6-1.1
			c-0.1-0.4-0.2-0.9-0.2-1.3C-124.5-131.8-124.5-132.3-124.5-132.6z M-125.8-132.6c0,0.4,0,0.8,0,1.2c0,0.4,0.1,0.8,0.1,1.2
			c0.1,0.4,0.2,0.7,0.3,1.1c0.1,0.3,0.3,0.6,0.6,0.9c0.2,0.3,0.6,0.5,0.9,0.6s0.8,0.2,1.4,0.2c0.5,0,1-0.1,1.4-0.2s0.7-0.4,0.9-0.6
			s0.4-0.6,0.6-0.9c0.1-0.3,0.3-0.7,0.3-1.1c0.1-0.4,0.1-0.8,0.1-1.2c0-0.4,0-0.8,0-1.2c0-0.4,0-0.8,0-1.2c0-0.4-0.1-0.8-0.1-1.2
			c-0.1-0.4-0.2-0.7-0.3-1.1c-0.1-0.3-0.3-0.6-0.6-0.9s-0.6-0.5-0.9-0.6c-0.4-0.2-0.8-0.2-1.4-0.2c-0.5,0-1,0.1-1.4,0.2
			c-0.4,0.2-0.7,0.4-0.9,0.6c-0.2,0.3-0.4,0.6-0.6,0.9c-0.1,0.3-0.3,0.7-0.3,1.1c-0.1,0.4-0.1,0.8-0.1,1.2
			C-125.8-133.4-125.8-133-125.8-132.6z"/>
	</g>
	<g transform="translate(422.3166,467.2765)">
		<path class="st6" d="M-124.7-130.4h2.2c-0.1-0.6-0.2-1.1-0.5-1.6s-0.6-0.8-1-1.2c-0.4-0.3-0.8-0.5-1.4-0.7c-0.5-0.2-1-0.2-1.6-0.2
			c-0.8,0-1.5,0.1-2.1,0.4c-0.6,0.3-1.2,0.7-1.6,1.1c-0.4,0.5-0.8,1.1-1,1.7s-0.3,1.4-0.3,2.1c0,0.7,0.1,1.4,0.3,2.1
			c0.2,0.6,0.6,1.2,1,1.7c0.4,0.5,1,0.9,1.6,1.1s1.3,0.4,2.1,0.4c0.6,0,1.2-0.1,1.7-0.3c0.5-0.2,1-0.5,1.4-0.8
			c0.4-0.4,0.7-0.8,0.9-1.3c0.2-0.5,0.4-1.1,0.4-1.7h-2.2c-0.1,0.7-0.3,1.2-0.7,1.7c-0.4,0.4-0.9,0.6-1.6,0.6
			c-0.5,0-0.9-0.1-1.3-0.3c-0.4-0.2-0.6-0.5-0.9-0.8s-0.4-0.7-0.5-1.1c-0.1-0.4-0.2-0.8-0.2-1.3c0-0.5,0.1-0.9,0.2-1.3
			c0.1-0.4,0.3-0.8,0.5-1.1c0.2-0.3,0.5-0.6,0.9-0.8c0.4-0.2,0.8-0.3,1.3-0.3c0.3,0,0.5,0,0.8,0.1c0.3,0.1,0.5,0.2,0.7,0.4
			c0.2,0.2,0.4,0.4,0.5,0.6C-124.8-130.9-124.7-130.6-124.7-130.4z"/>
	</g>
	<g transform="translate(422.3166,447.0199)">
		<path class="st6" d="M-124.7-126.3h2.2c-0.1-0.6-0.2-1.1-0.5-1.6c-0.3-0.5-0.6-0.8-1-1.2c-0.4-0.3-0.8-0.5-1.4-0.7
			c-0.5-0.2-1-0.2-1.6-0.2c-0.8,0-1.5,0.1-2.1,0.4c-0.6,0.3-1.2,0.7-1.6,1.1c-0.4,0.5-0.8,1.1-1,1.7c-0.2,0.7-0.3,1.4-0.3,2.1
			c0,0.7,0.1,1.4,0.3,2.1c0.2,0.6,0.6,1.2,1,1.7c0.4,0.5,1,0.9,1.6,1.1s1.3,0.4,2.1,0.4c0.6,0,1.2-0.1,1.7-0.3
			c0.5-0.2,1-0.5,1.4-0.8c0.4-0.4,0.7-0.8,0.9-1.3c0.2-0.5,0.4-1.1,0.4-1.7h-2.2c-0.1,0.7-0.3,1.2-0.7,1.7c-0.4,0.4-0.9,0.6-1.6,0.6
			c-0.5,0-0.9-0.1-1.3-0.3c-0.4-0.2-0.6-0.5-0.9-0.8s-0.4-0.7-0.5-1.1c-0.1-0.4-0.2-0.8-0.2-1.3c0-0.5,0.1-0.9,0.2-1.3
			c0.1-0.4,0.3-0.8,0.5-1.1s0.5-0.6,0.9-0.8c0.4-0.2,0.8-0.3,1.3-0.3c0.3,0,0.5,0,0.8,0.1c0.3,0.1,0.5,0.2,0.7,0.4
			c0.2,0.2,0.4,0.4,0.5,0.6C-124.8-126.8-124.7-126.5-124.7-126.3z"/>
	</g>
	<g transform="translate(422.3166,426.7633)">
		<path class="st6" d="M-128.5-119.3l1.3-3.8h0l1.3,3.8H-128.5z M-128.3-125.6l-3.9,10.3h2.3l0.8-2.3h3.8l0.8,2.3h2.3l-3.8-10.3
			H-128.3z"/>
	</g>
	<g transform="translate(422.3166,406.5067)">
		<path class="st6" d="M-124.7-118.1h2.2c-0.1-0.6-0.2-1.1-0.5-1.6c-0.3-0.5-0.6-0.8-1-1.2c-0.4-0.3-0.8-0.5-1.4-0.7s-1-0.2-1.6-0.2
			c-0.8,0-1.5,0.1-2.1,0.4s-1.2,0.7-1.6,1.1c-0.4,0.5-0.8,1.1-1,1.7c-0.2,0.7-0.3,1.4-0.3,2.1c0,0.7,0.1,1.4,0.3,2.1
			c0.2,0.6,0.6,1.2,1,1.7c0.4,0.5,1,0.9,1.6,1.1s1.3,0.4,2.1,0.4c0.6,0,1.2-0.1,1.7-0.3c0.5-0.2,1-0.5,1.4-0.8
			c0.4-0.4,0.7-0.8,0.9-1.3c0.2-0.5,0.4-1.1,0.4-1.7h-2.2c-0.1,0.7-0.3,1.2-0.7,1.7c-0.4,0.4-0.9,0.6-1.6,0.6
			c-0.5,0-0.9-0.1-1.3-0.3c-0.4-0.2-0.6-0.5-0.9-0.8s-0.4-0.7-0.5-1.1c-0.1-0.4-0.2-0.8-0.2-1.3c0-0.5,0.1-0.9,0.2-1.3
			c0.1-0.4,0.3-0.8,0.5-1.1s0.5-0.6,0.9-0.8c0.4-0.2,0.8-0.3,1.3-0.3c0.3,0,0.5,0,0.8,0.1c0.3,0.1,0.5,0.2,0.7,0.4
			c0.2,0.2,0.4,0.4,0.5,0.6C-124.8-118.6-124.7-118.4-124.7-118.1z"/>
	</g>
	<g transform="translate(422.3166,386.2501)">
		<path class="st6" d="M-124.1-108.4l0.2,1.2h1.4v-5.5h-4.3v1.7h2.3c-0.1,0.7-0.3,1.3-0.7,1.6c-0.4,0.4-1,0.6-1.7,0.6
			c-0.5,0-0.9-0.1-1.3-0.3c-0.4-0.2-0.6-0.5-0.9-0.8c-0.2-0.3-0.4-0.7-0.5-1.1c-0.1-0.4-0.2-0.8-0.2-1.3c0-0.5,0.1-0.9,0.2-1.3
			c0.1-0.4,0.3-0.8,0.5-1.1s0.5-0.6,0.9-0.8c0.4-0.2,0.8-0.3,1.3-0.3c0.5,0,1,0.1,1.4,0.4c0.4,0.3,0.6,0.7,0.8,1.3h2.2
			c-0.1-0.6-0.2-1.1-0.5-1.6c-0.3-0.5-0.6-0.8-1-1.1c-0.4-0.3-0.8-0.5-1.3-0.7s-1-0.2-1.5-0.2c-0.8,0-1.5,0.1-2.1,0.4
			s-1.2,0.7-1.6,1.1c-0.4,0.5-0.8,1.1-1,1.7c-0.2,0.7-0.3,1.4-0.3,2.1c0,0.7,0.1,1.4,0.3,2.1c0.2,0.6,0.6,1.2,1,1.7s1,0.9,1.6,1.1
			s1.3,0.4,2.1,0.4c0.5,0,1-0.1,1.5-0.3S-124.5-107.9-124.1-108.4z"/>
	</g>
	<g transform="translate(422.3166,365.9935)">
		<path class="st6" d="M-122.8-107v-6.4h-2.3v6.4c0,0.8-0.2,1.3-0.5,1.7c-0.3,0.4-0.9,0.5-1.7,0.5c-0.5,0-0.8-0.1-1.1-0.2
			c-0.3-0.1-0.5-0.3-0.6-0.5s-0.3-0.4-0.3-0.7c0-0.3-0.1-0.5-0.1-0.8v-6.4h-2.3v6.4c0,1.4,0.4,2.4,1.1,3.1c0.8,0.7,1.8,1,3.2,1
			c1.4,0,2.4-0.3,3.2-1S-122.8-105.6-122.8-107z"/>
	</g>
	<g>
		<line class="st2" x1="269.5" y1="289.6" x2="288.9" y2="289.6"/>
		<line class="st2" x1="269.5" y1="305.8" x2="288.9" y2="305.8"/>
		<line class="st2" x1="269.5" y1="322" x2="288.9" y2="322"/>
		<line class="st2" x1="269.5" y1="338.1" x2="288.9" y2="338.1"/>
	</g>
	<g transform="translate(270.3921,183.6841)">
		<path class="st1" d="M-97.9-70.4l1.3-3.8h0l1.3,3.8H-97.9z M-97.7-76.6l-3.9,10.3h2.3l0.8-2.3h3.8l0.8,2.3h2.3l-3.8-10.3H-97.7z"
			/>
	</g>
	<g transform="translate(270.3921,203.9407)">
		<path class="st1" d="M-97.9-74.4l1.3-3.8h0l1.3,3.8H-97.9z M-97.7-80.7l-3.9,10.3h2.3l0.8-2.3h3.8l0.8,2.3h2.3l-3.8-10.3H-97.7z"
			/>
	</g>
	<g transform="translate(270.3921,224.1973)">
		<path class="st1" d="M-97.9-78.5l1.3-3.8h0l1.3,3.8H-97.9z M-97.7-84.8l-3.9,10.3h2.3l0.8-2.3h3.8l0.8,2.3h2.3l-3.8-10.3H-97.7z"
			/>
	</g>
	<g transform="translate(270.3921,244.4539)">
		<path class="st1" d="M-97.9-82.6l1.3-3.8h0l1.3,3.8H-97.9z M-97.7-88.9l-3.9,10.3h2.3l0.8-2.3h3.8l0.8,2.3h2.3l-3.8-10.3H-97.7z"
			/>
	</g>
	<g transform="translate(270.3921,264.7105)">
		<path class="st7" d="M-93.5-83.9l0.2,1.2h1.4v-5.5h-4.3v1.7h2.3c-0.1,0.7-0.3,1.3-0.7,1.6c-0.4,0.4-1,0.6-1.7,0.6
			c-0.5,0-0.9-0.1-1.3-0.3c-0.4-0.2-0.6-0.5-0.9-0.8s-0.4-0.7-0.5-1.1c-0.1-0.4-0.2-0.8-0.2-1.3c0-0.5,0.1-0.9,0.2-1.3
			c0.1-0.4,0.3-0.8,0.5-1.1s0.5-0.6,0.9-0.8c0.4-0.2,0.8-0.3,1.3-0.3c0.5,0,1,0.1,1.4,0.4s0.6,0.7,0.8,1.3h2.2
			c-0.1-0.6-0.2-1.1-0.5-1.6c-0.3-0.5-0.6-0.8-1-1.1c-0.4-0.3-0.8-0.5-1.3-0.7c-0.5-0.2-1-0.2-1.5-0.2c-0.8,0-1.5,0.1-2.1,0.4
			c-0.6,0.3-1.2,0.7-1.6,1.1c-0.4,0.5-0.8,1.1-1,1.7c-0.2,0.7-0.3,1.4-0.3,2.1c0,0.7,0.1,1.4,0.3,2.1c0.2,0.6,0.6,1.2,1,1.7
			c0.4,0.5,1,0.9,1.6,1.1c0.6,0.3,1.3,0.4,2.1,0.4c0.5,0,1-0.1,1.5-0.3C-94.3-83-93.9-83.4-93.5-83.9z"/>
	</g>
	<g transform="translate(270.3921,284.9671)">
		<path class="st7" d="M-94-93.6h2.2c-0.1-0.6-0.2-1.1-0.5-1.6c-0.3-0.5-0.6-0.8-1-1.2c-0.4-0.3-0.8-0.5-1.4-0.7s-1-0.2-1.6-0.2
			c-0.8,0-1.5,0.1-2.1,0.4c-0.6,0.3-1.2,0.7-1.6,1.1c-0.4,0.5-0.8,1.1-1,1.7c-0.2,0.7-0.3,1.4-0.3,2.1c0,0.7,0.1,1.4,0.3,2.1
			c0.2,0.6,0.6,1.2,1,1.7s1,0.9,1.6,1.1c0.6,0.3,1.3,0.4,2.1,0.4c0.6,0,1.2-0.1,1.7-0.3c0.5-0.2,1-0.5,1.4-0.8
			c0.4-0.4,0.7-0.8,0.9-1.3c0.2-0.5,0.4-1.1,0.4-1.7H-94c-0.1,0.7-0.3,1.2-0.7,1.7c-0.4,0.4-0.9,0.6-1.6,0.6c-0.5,0-0.9-0.1-1.3-0.3
			c-0.4-0.2-0.6-0.5-0.9-0.8s-0.4-0.7-0.5-1.1c-0.1-0.4-0.2-0.8-0.2-1.3c0-0.5,0.1-0.9,0.2-1.3c0.1-0.4,0.3-0.8,0.5-1.1
			s0.5-0.6,0.9-0.8c0.4-0.2,0.8-0.3,1.3-0.3c0.3,0,0.5,0,0.8,0.1c0.3,0.1,0.5,0.2,0.7,0.4c0.2,0.2,0.4,0.4,0.5,0.6
			C-94.2-94.1-94.1-93.9-94-93.6z"/>
	</g>
	<g transform="translate(270.3921,305.2237)">
		<path class="st7" d="M-94-97.7h2.2c-0.1-0.6-0.2-1.1-0.5-1.6c-0.3-0.5-0.6-0.8-1-1.2c-0.4-0.3-0.8-0.5-1.4-0.7s-1-0.2-1.6-0.2
			c-0.8,0-1.5,0.1-2.1,0.4c-0.6,0.3-1.2,0.7-1.6,1.1c-0.4,0.5-0.8,1.1-1,1.7c-0.2,0.7-0.3,1.4-0.3,2.1c0,0.7,0.1,1.4,0.3,2.1
			c0.2,0.6,0.6,1.2,1,1.7s1,0.9,1.6,1.1c0.6,0.3,1.3,0.4,2.1,0.4c0.6,0,1.2-0.1,1.7-0.3c0.5-0.2,1-0.5,1.4-0.8
			c0.4-0.4,0.7-0.8,0.9-1.3c0.2-0.5,0.4-1.1,0.4-1.7H-94c-0.1,0.7-0.3,1.2-0.7,1.7c-0.4,0.4-0.9,0.6-1.6,0.6c-0.5,0-0.9-0.1-1.3-0.3
			c-0.4-0.2-0.6-0.5-0.9-0.8c-0.2-0.3-0.4-0.7-0.5-1.1c-0.1-0.4-0.2-0.8-0.2-1.3c0-0.5,0.1-0.9,0.2-1.3c0.1-0.4,0.3-0.8,0.5-1.1
			s0.5-0.6,0.9-0.8c0.4-0.2,0.8-0.3,1.3-0.3c0.3,0,0.5,0,0.8,0.1c0.3,0.1,0.5,0.2,0.7,0.4c0.2,0.2,0.4,0.4,0.5,0.6
			C-94.2-98.2-94.1-98-94-97.7z"/>
	</g>
	<g transform="translate(270.3921,325.4803)">
		<path class="st7" d="M-93.5-96.1l0.2,1.2h1.4v-5.5h-4.3v1.7h2.3c-0.1,0.7-0.3,1.3-0.7,1.6c-0.4,0.4-1,0.6-1.7,0.6
			c-0.5,0-0.9-0.1-1.3-0.3c-0.4-0.2-0.6-0.5-0.9-0.8c-0.2-0.3-0.4-0.7-0.5-1.1c-0.1-0.4-0.2-0.8-0.2-1.3c0-0.5,0.1-0.9,0.2-1.3
			c0.1-0.4,0.3-0.8,0.5-1.1s0.5-0.6,0.9-0.8c0.4-0.2,0.8-0.3,1.3-0.3c0.5,0,1,0.1,1.4,0.4c0.4,0.3,0.6,0.7,0.8,1.3h2.2
			c-0.1-0.6-0.2-1.1-0.5-1.6s-0.6-0.8-1-1.1c-0.4-0.3-0.8-0.5-1.3-0.7c-0.5-0.2-1-0.2-1.5-0.2c-0.8,0-1.5,0.1-2.1,0.4
			c-0.6,0.3-1.2,0.7-1.6,1.1s-0.8,1.1-1,1.7c-0.2,0.7-0.3,1.4-0.3,2.1c0,0.7,0.1,1.4,0.3,2.1c0.2,0.6,0.6,1.2,1,1.7s1,0.9,1.6,1.1
			c0.6,0.3,1.3,0.4,2.1,0.4c0.5,0,1-0.1,1.5-0.3C-94.3-95.2-93.9-95.6-93.5-96.1z"/>
	</g>
	<g transform="translate(310.9053,325.4803)">
		<path class="st7" d="M-101.6-96.1l0.2,1.2h1.4v-5.5h-4.3v1.7h2.3c-0.1,0.7-0.3,1.3-0.7,1.6c-0.4,0.4-1,0.6-1.7,0.6
			c-0.5,0-0.9-0.1-1.3-0.3c-0.4-0.2-0.6-0.5-0.9-0.8c-0.2-0.3-0.4-0.7-0.5-1.1c-0.1-0.4-0.2-0.8-0.2-1.3c0-0.5,0.1-0.9,0.2-1.3
			c0.1-0.4,0.3-0.8,0.5-1.1s0.5-0.6,0.9-0.8c0.4-0.2,0.8-0.3,1.3-0.3c0.5,0,1,0.1,1.4,0.4c0.4,0.3,0.6,0.7,0.8,1.3h2.2
			c-0.1-0.6-0.2-1.1-0.5-1.6s-0.6-0.8-1-1.1c-0.4-0.3-0.8-0.5-1.3-0.7s-1-0.2-1.5-0.2c-0.8,0-1.5,0.1-2.1,0.4
			c-0.6,0.3-1.2,0.7-1.6,1.1s-0.8,1.1-1,1.7c-0.2,0.7-0.3,1.4-0.3,2.1c0,0.7,0.1,1.4,0.3,2.1c0.2,0.6,0.6,1.2,1,1.7s1,0.9,1.6,1.1
			c0.6,0.3,1.3,0.4,2.1,0.4c0.5,0,1-0.1,1.5-0.3C-102.5-95.2-102-95.6-101.6-96.1z"/>
	</g>
	<g transform="translate(310.9053,305.2237)">
		<path class="st7" d="M-101.6-92l0.2,1.2h1.4v-5.5h-4.3v1.7h2.3c-0.1,0.7-0.3,1.3-0.7,1.6c-0.4,0.4-1,0.6-1.7,0.6
			c-0.5,0-0.9-0.1-1.3-0.3c-0.4-0.2-0.6-0.5-0.9-0.8c-0.2-0.3-0.4-0.7-0.5-1.1c-0.1-0.4-0.2-0.8-0.2-1.3c0-0.5,0.1-0.9,0.2-1.3
			c0.1-0.4,0.3-0.8,0.5-1.1s0.5-0.6,0.9-0.8c0.4-0.2,0.8-0.3,1.3-0.3c0.5,0,1,0.1,1.4,0.4c0.4,0.3,0.6,0.7,0.8,1.3h2.2
			c-0.1-0.6-0.2-1.1-0.5-1.6s-0.6-0.8-1-1.1c-0.4-0.3-0.8-0.5-1.3-0.7s-1-0.2-1.5-0.2c-0.8,0-1.5,0.1-2.1,0.4
			c-0.6,0.3-1.2,0.7-1.6,1.1c-0.4,0.5-0.8,1.1-1,1.7c-0.2,0.7-0.3,1.4-0.3,2.1c0,0.7,0.1,1.4,0.3,2.1c0.2,0.6,0.6,1.2,1,1.7
			s1,0.9,1.6,1.1c0.6,0.3,1.3,0.4,2.1,0.4c0.5,0,1-0.1,1.5-0.3C-102.5-91.2-102-91.5-101.6-92z"/>
	</g>
	<g transform="translate(310.9053,284.9671)">
		<path class="st7" d="M-101.6-88l0.2,1.2h1.4v-5.5h-4.3v1.7h2.3c-0.1,0.7-0.3,1.3-0.7,1.6c-0.4,0.4-1,0.6-1.7,0.6
			c-0.5,0-0.9-0.1-1.3-0.3c-0.4-0.2-0.6-0.5-0.9-0.8s-0.4-0.7-0.5-1.1c-0.1-0.4-0.2-0.8-0.2-1.3c0-0.5,0.1-0.9,0.2-1.3
			c0.1-0.4,0.3-0.8,0.5-1.1s0.5-0.6,0.9-0.8c0.4-0.2,0.8-0.3,1.3-0.3c0.5,0,1,0.1,1.4,0.4s0.6,0.7,0.8,1.3h2.2
			c-0.1-0.6-0.2-1.1-0.5-1.6s-0.6-0.8-1-1.1c-0.4-0.3-0.8-0.5-1.3-0.7s-1-0.2-1.5-0.2c-0.8,0-1.5,0.1-2.1,0.4
			c-0.6,0.3-1.2,0.7-1.6,1.1c-0.4,0.5-0.8,1.1-1,1.7c-0.2,0.7-0.3,1.4-0.3,2.1c0,0.7,0.1,1.4,0.3,2.1c0.2,0.6,0.6,1.2,1,1.7
			s1,0.9,1.6,1.1c0.6,0.3,1.3,0.4,2.1,0.4c0.5,0,1-0.1,1.5-0.3C-102.5-87.1-102-87.4-101.6-88z"/>
	</g>
	<g transform="translate(310.9053,264.7105)">
		<path class="st7" d="M-102.2-89.5h2.2c-0.1-0.6-0.2-1.1-0.5-1.6c-0.3-0.5-0.6-0.8-1-1.2c-0.4-0.3-0.8-0.5-1.4-0.7s-1-0.2-1.6-0.2
			c-0.8,0-1.5,0.1-2.1,0.4c-0.6,0.3-1.2,0.7-1.6,1.1c-0.4,0.5-0.8,1.1-1,1.7c-0.2,0.7-0.3,1.4-0.3,2.1c0,0.7,0.1,1.4,0.3,2.1
			c0.2,0.6,0.6,1.2,1,1.7c0.4,0.5,1,0.9,1.6,1.1c0.6,0.3,1.3,0.4,2.1,0.4c0.6,0,1.2-0.1,1.7-0.3c0.5-0.2,1-0.5,1.4-0.8
			c0.4-0.4,0.7-0.8,0.9-1.3c0.2-0.5,0.4-1.1,0.4-1.7h-2.2c-0.1,0.7-0.3,1.2-0.7,1.7c-0.4,0.4-0.9,0.6-1.6,0.6
			c-0.5,0-0.9-0.1-1.3-0.3c-0.4-0.2-0.6-0.5-0.9-0.8s-0.4-0.7-0.5-1.1c-0.1-0.4-0.2-0.8-0.2-1.3c0-0.5,0.1-0.9,0.2-1.3
			c0.1-0.4,0.3-0.8,0.5-1.1s0.5-0.6,0.9-0.8c0.4-0.2,0.8-0.3,1.3-0.3c0.3,0,0.5,0,0.8,0.1c0.3,0.1,0.5,0.2,0.7,0.4
			c0.2,0.2,0.4,0.4,0.5,0.6C-102.3-90-102.2-89.8-102.2-89.5z"/>
	</g>
	<g>
		<line class="st2" x1="217.2" y1="176.4" x2="228" y2="176.4"/>
	</g>
	<g transform="translate(337.9141,264.7105)">
		<path d="M-102.6-91.7v-1h-6.6v1.1h5.3c-0.5,0.6-1,1.2-1.5,1.9c-0.5,0.7-0.9,1.4-1.2,2.1c-0.4,0.8-0.6,1.5-0.9,2.4
			s-0.4,1.7-0.4,2.5h1.4c0-0.8,0.2-1.6,0.4-2.5s0.5-1.7,0.9-2.5s0.7-1.5,1.2-2.2C-103.6-90.6-103.1-91.2-102.6-91.7z M-100-87.7
			c0-0.2,0-0.5,0-0.8c0-0.3,0-0.6,0.1-0.9c0-0.3,0.1-0.6,0.2-0.9c0.1-0.3,0.2-0.5,0.4-0.8c0.2-0.2,0.4-0.4,0.6-0.5s0.5-0.2,0.9-0.2
			c0.3,0,0.6,0.1,0.9,0.2c0.2,0.1,0.4,0.3,0.6,0.5c0.2,0.2,0.3,0.5,0.4,0.8c0.1,0.3,0.1,0.6,0.2,0.9s0.1,0.6,0.1,0.9
			c0,0.3,0,0.6,0,0.8c0,0.4,0,0.8,0,1.3c0,0.5-0.1,0.9-0.2,1.3c-0.1,0.4-0.3,0.8-0.6,1.1c-0.3,0.3-0.7,0.4-1.2,0.4s-0.9-0.1-1.2-0.4
			s-0.5-0.6-0.6-1.1c-0.1-0.4-0.2-0.9-0.2-1.3C-100-86.9-100-87.3-100-87.7z M-101.3-87.7c0,0.4,0,0.8,0,1.2c0,0.4,0.1,0.8,0.1,1.2
			c0.1,0.4,0.2,0.7,0.3,1.1c0.1,0.3,0.3,0.6,0.6,0.9c0.2,0.3,0.6,0.5,0.9,0.6c0.4,0.1,0.8,0.2,1.4,0.2c0.5,0,1-0.1,1.4-0.2
			c0.4-0.1,0.7-0.4,0.9-0.6c0.2-0.3,0.4-0.6,0.6-0.9c0.1-0.3,0.3-0.7,0.3-1.1c0.1-0.4,0.1-0.8,0.1-1.2c0-0.4,0-0.8,0-1.2
			c0-0.4,0-0.8,0-1.2c0-0.4-0.1-0.8-0.1-1.2c-0.1-0.4-0.2-0.7-0.3-1.1c-0.1-0.3-0.3-0.6-0.6-0.9c-0.2-0.3-0.6-0.5-0.9-0.6
			s-0.8-0.2-1.4-0.2c-0.5,0-1,0.1-1.4,0.2s-0.7,0.4-0.9,0.6c-0.2,0.3-0.4,0.6-0.6,0.9c-0.1,0.3-0.3,0.7-0.3,1.1
			c-0.1,0.4-0.1,0.8-0.1,1.2C-101.3-88.5-101.3-88.1-101.3-87.7z"/>
	</g>
	<g transform="translate(310.9053,244.4539)">
		<path class="st7" d="M-106.1-82.6l1.3-3.8h0l1.3,3.8H-106.1z M-105.8-88.9l-3.9,10.3h2.3l0.8-2.3h3.8l0.8,2.3h2.3l-3.8-10.3
			H-105.8z"/>
	</g>
	<g transform="translate(310.9053,224.1973)">
		<path class="st7" d="M-100.3-78.4v-6.4h-2.3v6.4c0,0.8-0.2,1.3-0.5,1.7c-0.3,0.4-0.9,0.5-1.7,0.5c-0.5,0-0.8-0.1-1.1-0.2
			c-0.3-0.1-0.5-0.3-0.6-0.5c-0.2-0.2-0.3-0.4-0.3-0.7c0-0.3-0.1-0.5-0.1-0.8v-6.4h-2.3v6.4c0,1.4,0.4,2.4,1.1,3.1
			c0.8,0.7,1.8,1,3.2,1c1.4,0,2.4-0.3,3.2-1C-100.7-76-100.3-77-100.3-78.4z"/>
	</g>
	<g transform="translate(310.9053,203.9407)">
		<path class="st7" d="M-102.2-77.3h2.2c-0.1-0.6-0.2-1.1-0.5-1.6c-0.3-0.5-0.6-0.8-1-1.2c-0.4-0.3-0.8-0.5-1.4-0.7s-1-0.2-1.6-0.2
			c-0.8,0-1.5,0.1-2.1,0.4c-0.6,0.3-1.2,0.7-1.6,1.1c-0.4,0.5-0.8,1.1-1,1.7c-0.2,0.7-0.3,1.4-0.3,2.1c0,0.7,0.1,1.4,0.3,2.1
			c0.2,0.6,0.6,1.2,1,1.7s1,0.9,1.6,1.1c0.6,0.3,1.3,0.4,2.1,0.4c0.6,0,1.2-0.1,1.7-0.3c0.5-0.2,1-0.5,1.4-0.8
			c0.4-0.4,0.7-0.8,0.9-1.3c0.2-0.5,0.4-1.1,0.4-1.7h-2.2c-0.1,0.7-0.3,1.2-0.7,1.7c-0.4,0.4-0.9,0.6-1.6,0.6
			c-0.5,0-0.9-0.1-1.3-0.3c-0.4-0.2-0.6-0.5-0.9-0.8s-0.4-0.7-0.5-1.1c-0.1-0.4-0.2-0.8-0.2-1.3c0-0.5,0.1-0.9,0.2-1.3
			c0.1-0.4,0.3-0.8,0.5-1.1s0.5-0.6,0.9-0.8c0.4-0.2,0.8-0.3,1.3-0.3c0.3,0,0.5,0,0.8,0.1c0.3,0.1,0.5,0.2,0.7,0.4
			c0.2,0.2,0.4,0.4,0.5,0.6C-102.3-77.8-102.2-77.5-102.2-77.3z"/>
	</g>
	<g>
		<line class="st2" x1="180.6" y1="176.4" x2="200" y2="176.4"/>
		<line class="st2" x1="180.6" y1="192.6" x2="200" y2="192.6"/>
		<line class="st2" x1="180.6" y1="208.8" x2="200" y2="208.8"/>
		<line class="st3" x1="128.8" y1="295.3" x2="158.8" y2="348.7"/>
	</g>
	<g>
		<path d="M144.6,318.4l0.8-3.5l-8.5,4.8l3.4,1.2l2,2l1.7,2.2l3.7,4.1l-1.6-5.3l-1-2.5L144.6,318.4z"/>
	</g>
	<g>
		<path class="st4" d="M145.4,314.9l-0.8,3.5l0.6,2.7l1,2.5l1.6,5.3l-3.7-4.1l-1.7-2.2l-2-2l-3.4-1.2L145.4,314.9"/>
		<line class="st3" x1="217.1" y1="348.4" x2="240.3" y2="295.5"/>
	</g>
	<g>
		<path d="M230.9,320l1-5.4l-3.3,4.5l-1.5,2.3l-1.8,2.1l-3.3,1.5l8.9,3.9l-1.1-3.4l0.3-2.8L230.9,320z"/>
	</g>
	<g>
		<path class="st4" d="M222.1,325l3.3-1.5l1.8-2.1l1.5-2.3l3.3-4.5l-1,5.4l-0.7,2.6l-0.3,2.8l1.1,3.4L222.1,325"/>
		<line class="st3" x1="257.4" y1="260.5" x2="212.1" y2="286.4"/>
	</g>
	<g>
		<path d="M227.7,277.5l5.3-1.6l2.5-1l2.7-0.6l3.5,0.8l-4.8-8.4l-1.1,3.4l-1.9,2l-2.1,1.7L227.7,277.5z"/>
	</g>
	<g>
		<path class="st4" d="M241.8,275l-3.5-0.8l-2.7,0.6l-2.5,1l-5.3,1.6l4.1-3.7l2.1-1.7l1.9-2l1.1-3.4L241.8,275"/>
		<line class="st2" x1="269.5" y1="208.8" x2="288.9" y2="208.8"/>
	</g>
	<g>
		<path class="st8" d="M270.8,208.8l6.3,3.6v-7.3L270.8,208.8z"/>
	</g>
	<g>
		<path class="st4" d="M270.8,208.8l6.3,3.6v-7.3L270.8,208.8"/>
	</g>
	<g>
		<path class="st8" d="M286.7,205.5h-6.5v6.5h6.5V205.5z"/>
	</g>
	<g>
		<path class="st4" d="M286.7,205.5h-6.5v6.5h6.5V205.5"/>
		<line class="st2" x1="269.5" y1="224.9" x2="288.9" y2="224.9"/>
	</g>
	<g>
		<path class="st8" d="M271.8,228.2h6.5v-6.5h-6.5V228.2z"/>
	</g>
	<g>
		<path class="st4" d="M271.8,228.2h6.5v-6.5h-6.5V228.2"/>
	</g>
	<g>
		<path class="st8" d="M287.6,224.9l-6.3-3.6v7.3L287.6,224.9z"/>
	</g>
	<g>
		<path class="st4" d="M287.6,224.9l-6.3-3.6v7.3L287.6,224.9"/>
		<line class="st2" x1="269.5" y1="241.1" x2="288.9" y2="241.1"/>
	</g>
	<g>
		<path d="M276.6,242.9l0.1,0.2l0.1,0.2l0.1,0.1l0.2,0.1l0.2,0.1l0.2,0.1l0.2,0.1l0.2,0.1l0.2,0.1l0.2,0.1l0.2,0.1l0.2,0l0.2,0
			l0.2,0l0.2,0l0.2,0l0.2,0l0.2,0l0.2,0l0.2-0.1l0.2-0.1l0.2-0.1l0.2-0.1l0.2-0.1l0.2-0.1l0.2-0.1l0.2-0.1l0.1-0.1l0.1-0.2l0.1-0.2
			l0.1-0.2l0.1-0.2l0.1-0.2l0.1-0.2l0.1-0.2l0.1-0.2l0-0.2l0-0.2l0-0.2l0-0.2l0-0.2l0-0.2l0-0.2l0-0.2l-0.1-0.2l-0.1-0.2l-0.1-0.2
			l-0.1-0.2l-0.1-0.2l-0.1-0.2l-0.1-0.2l-0.1-0.2l-0.1-0.1l-0.2-0.1l-0.2-0.1l-0.2-0.1l-0.2-0.1l-0.2-0.1l-0.2-0.1l-0.2-0.1L280,238
			l-0.2,0l-0.2,0l-0.2,0l-0.2,0l-0.2,0l-0.2,0l-0.2,0l-0.2,0l-0.2,0.1l-0.2,0.1l-0.2,0.1l-0.2,0.1l-0.2,0.1l-0.2,0.1l-0.2,0.1
			l-0.2,0.1l-0.1,0.1l-0.1,0.2l-0.1,0.2l-0.1,0.2l-0.1,0.2l-0.1,0.2l-0.1,0.2l-0.1,0.2l-0.1,0.2l0,0.2l0,0.2l0,0.2v0.2l0,0.2l0,0.2
			l0,0.2l0.1,0.2l0.1,0.2l0.1,0.2l0.1,0.2l0.1,0.2L276.6,242.9z"/>
	</g>
	<g>
		<path class="st4" d="M282.5,241.1l0-0.2l0-0.2l0-0.2l0-0.2l-0.1-0.2l-0.1-0.2l-0.1-0.2l-0.1-0.2l-0.1-0.2l-0.1-0.2l-0.1-0.2
			l-0.1-0.2l-0.1-0.1l-0.2-0.1l-0.2-0.1l-0.2-0.1l-0.2-0.1l-0.2-0.1l-0.2-0.1l-0.2-0.1L280,238l-0.2,0l-0.2,0l-0.2,0l-0.2,0l-0.2,0
			l-0.2,0l-0.2,0l-0.2,0l-0.2,0.1l-0.2,0.1l-0.2,0.1l-0.2,0.1l-0.2,0.1l-0.2,0.1l-0.2,0.1l-0.2,0.1l-0.1,0.1l-0.1,0.2l-0.1,0.2
			l-0.1,0.2l-0.1,0.2l-0.1,0.2l-0.1,0.2l-0.1,0.2l-0.1,0.2l0,0.2l0,0.2l0,0.2v0.2l0,0.2l0,0.2l0,0.2l0.1,0.2l0.1,0.2l0.1,0.2
			l0.1,0.2l0.1,0.2l0.1,0.2l0.1,0.2l0.1,0.2l0.1,0.1l0.2,0.1l0.2,0.1l0.2,0.1l0.2,0.1l0.2,0.1l0.2,0.1l0.2,0.1l0.2,0.1l0.2,0l0.2,0
			l0.2,0l0.2,0l0.2,0l0.2,0l0.2,0l0.2,0l0.2-0.1l0.2-0.1l0.2-0.1l0.2-0.1l0.2-0.1l0.2-0.1l0.2-0.1l0.2-0.1l0.1-0.1l0.1-0.2l0.1-0.2
			l0.1-0.2l0.1-0.2l0.1-0.2l0.1-0.2l0.1-0.2l0.1-0.2l0-0.2l0-0.2l0-0.2L282.5,241.1L282.5,241.1"/>
		<line class="st2" x1="269.5" y1="257.3" x2="288.9" y2="257.3"/>
	</g>
	<g>
		<path d="M276.6,259.1l0.1,0.2l0.1,0.2l0.1,0.1l0.2,0.1l0.2,0.1l0.2,0.1l0.2,0.1l0.2,0.1l0.2,0.1l0.2,0.1l0.2,0.1l0.2,0l0.2,0
			l0.2,0l0.2,0l0.2,0l0.2,0l0.2,0l0.2,0l0.2-0.1l0.2-0.1l0.2-0.1l0.2-0.1l0.2-0.1l0.2-0.1l0.2-0.1l0.2-0.1l0.1-0.1l0.1-0.2l0.1-0.2
			l0.1-0.2l0.1-0.2l0.1-0.2l0.1-0.2l0.1-0.2l0.1-0.2l0-0.2l0-0.2l0-0.2l0-0.2l0-0.2l0-0.2l0-0.2l0-0.2l-0.1-0.2l-0.1-0.2l-0.1-0.2
			l-0.1-0.2l-0.1-0.2l-0.1-0.2l-0.1-0.2l-0.1-0.2l-0.1-0.1l-0.2-0.1l-0.2-0.1l-0.2-0.1l-0.2-0.1l-0.2-0.1l-0.2-0.1l-0.2-0.1
			l-0.2-0.1l-0.2,0l-0.2,0l-0.2,0l-0.2,0l-0.2,0l-0.2,0l-0.2,0l-0.2,0l-0.2,0.1l-0.2,0.1l-0.2,0.1l-0.2,0.1l-0.2,0.1l-0.2,0.1
			l-0.2,0.1L277,255l-0.1,0.1l-0.1,0.2l-0.1,0.2l-0.1,0.2l-0.1,0.2l-0.1,0.2l-0.1,0.2l-0.1,0.2l-0.1,0.2l0,0.2l0,0.2l0,0.2v0.2
			l0,0.2l0,0.2l0,0.2l0.1,0.2l0.1,0.2l0.1,0.2l0.1,0.2l0.1,0.2L276.6,259.1z"/>
	</g>
	<g>
		<path class="st4" d="M282.5,257.3l0-0.2l0-0.2l0-0.2l0-0.2l-0.1-0.2l-0.1-0.2l-0.1-0.2l-0.1-0.2l-0.1-0.2l-0.1-0.2l-0.1-0.2
			l-0.1-0.2l-0.1-0.1l-0.2-0.1l-0.2-0.1l-0.2-0.1l-0.2-0.1l-0.2-0.1l-0.2-0.1l-0.2-0.1l-0.2-0.1l-0.2,0l-0.2,0l-0.2,0l-0.2,0l-0.2,0
			l-0.2,0l-0.2,0l-0.2,0l-0.2,0.1l-0.2,0.1l-0.2,0.1l-0.2,0.1l-0.2,0.1l-0.2,0.1l-0.2,0.1L277,255l-0.1,0.1l-0.1,0.2l-0.1,0.2
			l-0.1,0.2l-0.1,0.2l-0.1,0.2l-0.1,0.2l-0.1,0.2l-0.1,0.2l0,0.2l0,0.2l0,0.2v0.2l0,0.2l0,0.2l0,0.2l0.1,0.2l0.1,0.2l0.1,0.2
			l0.1,0.2l0.1,0.2l0.1,0.2l0.1,0.2l0.1,0.2l0.1,0.1l0.2,0.1l0.2,0.1l0.2,0.1l0.2,0.1l0.2,0.1l0.2,0.1l0.2,0.1l0.2,0.1l0.2,0l0.2,0
			l0.2,0l0.2,0l0.2,0l0.2,0l0.2,0l0.2,0l0.2-0.1l0.2-0.1l0.2-0.1l0.2-0.1l0.2-0.1l0.2-0.1l0.2-0.1l0.2-0.1l0.1-0.1l0.1-0.2l0.1-0.2
			l0.1-0.2l0.1-0.2l0.1-0.2l0.1-0.2l0.1-0.2l0.1-0.2l0-0.2l0-0.2l0-0.2L282.5,257.3L282.5,257.3"/>
		<line class="st2" x1="184.5" y1="286.7" x2="131.4" y2="260.2"/>
	</g>
	<g>
		<path class="st8" d="M166,273.9l-5.8-2.9l-2.9,5.8l5.8,2.9L166,273.9z"/>
	</g>
	<g>
		<path class="st4" d="M166,273.9l-5.8-2.9l-2.9,5.8l5.8,2.9L166,273.9"/>
	</g>
	<g>
		<path class="st8" d="M151.8,273.8l0.1,0.1l0.2,0.1l0.2,0.1l0.2,0.1l0.2,0.1l0.2,0.1l0.2,0.1l0.2,0.1l0.2,0.1l0.2,0l0.2,0l0.2,0
			l0.2,0l0.2,0l0.2,0l0.2,0l0.2,0l0.2-0.1l0.2-0.1l0.2-0.1l0.2-0.1l0.2-0.1l0.2-0.1l0.2-0.1l0.2-0.1l0.1-0.1l0.1-0.2l0.1-0.2
			l0.1-0.2l0.1-0.2l0.1-0.2l0.1-0.2l0.1-0.2l0.1-0.2l0-0.2l0-0.2l0-0.2l0-0.2l0-0.2l0-0.2l0-0.2l0-0.2l-0.1-0.2l-0.1-0.2l-0.1-0.2
			L157,270l-0.1-0.2l-0.1-0.2l-0.1-0.2l-0.1-0.2l-0.1-0.1l-0.2-0.1l-0.2-0.1l-0.2-0.1l-0.2-0.1l-0.2-0.1l-0.2-0.1l-0.2-0.1l-0.2-0.1
			l-0.2,0l-0.2,0l-0.2,0l-0.2,0l-0.2,0l-0.2,0l-0.2,0l-0.2,0.1l-0.2,0.1l-0.2,0.1l-0.2,0.1l-0.2,0.1l-0.2,0.1l-0.2,0.1l-0.2,0.1
			l-0.1,0.1l-0.1,0.2l-0.1,0.2l-0.1,0.2l-0.1,0.2l-0.1,0.2l-0.1,0.2l-0.1,0.2l-0.1,0.2l0,0.2l0,0.2l0,0.2l0,0.2l0,0.2l0,0.2l0,0.2
			l0,0.2l0.1,0.2l0.1,0.2l0.1,0.2l0.1,0.2l0.1,0.2l0.1,0.2l0.1,0.2L151.8,273.8z"/>
	</g>
	<g>
		<path class="st4" d="M151.3,270.1l-0.1,0.2l-0.1,0.2l-0.1,0.2l0,0.2l0,0.2l0,0.2l0,0.2l0,0.2l0,0.2l0,0.2l0,0.2l0.1,0.2l0.1,0.2
			l0.1,0.2l0.1,0.2l0.1,0.2l0.1,0.2l0.1,0.2l0.1,0.2l0.1,0.1l0.2,0.1l0.2,0.1l0.2,0.1l0.2,0.1l0.2,0.1l0.2,0.1l0.2,0.1l0.2,0.1
			l0.2,0l0.2,0l0.2,0l0.2,0l0.2,0l0.2,0l0.2,0l0.2,0l0.2-0.1l0.2-0.1l0.2-0.1l0.2-0.1l0.2-0.1l0.2-0.1l0.2-0.1l0.2-0.1l0.1-0.1
			l0.1-0.2l0.1-0.2l0.1-0.2l0.1-0.2l0.1-0.2l0.1-0.2l0.1-0.2l0.1-0.2l0-0.2l0-0.2l0-0.2l0-0.2l0-0.2l0-0.2l0-0.2l0-0.2l-0.1-0.2
			l-0.1-0.2l-0.1-0.2L157,270l-0.1-0.2l-0.1-0.2l-0.1-0.2l-0.1-0.2l-0.1-0.1l-0.2-0.1l-0.2-0.1l-0.2-0.1l-0.2-0.1l-0.2-0.1l-0.2-0.1
			l-0.2-0.1l-0.2-0.1l-0.2,0l-0.2,0l-0.2,0l-0.2,0l-0.2,0l-0.2,0l-0.2,0l-0.2,0.1l-0.2,0.1l-0.2,0.1l-0.2,0.1l-0.2,0.1l-0.2,0.1
			l-0.2,0.1l-0.2,0.1l-0.1,0.1l-0.1,0.2l-0.1,0.2l-0.1,0.2l-0.1,0.2L151.3,270.1L151.3,270.1"/>
		<line class="st3" x1="168.7" y1="228.5" x2="131" y2="253.7"/>
	</g>
	<g>
		<path d="M143.1,245.6l5.2-2l2.5-1.2l2.7-0.8l3.6,0.5l-5.4-8.1l-0.9,3.5l-1.8,2.2l-2,1.8L143.1,245.6z"/>
	</g>
	<g>
		<path class="st4" d="M157,242.1l-3.6-0.5l-2.7,0.8l-2.5,1.2l-5.2,2l3.8-4l2-1.8l1.8-2.2l0.9-3.5L157,242.1"/>
		<line class="st3" x1="288.9" y1="47" x2="196.7" y2="47"/>
	</g>
	<g>
		<path d="M234.8,47l5.4,1.2l2.7,0.4l2.7,0.8l2.7,2.4v-9.7l-2.7,2.4l-2.7,0.8l-2.7,0.4L234.8,47z"/>
	</g>
	<g>
		<path class="st4" d="M248.2,51.9l-2.7-2.4l-2.7-0.8l-2.7-0.4l-5.4-1.2l5.4-1.2l2.7-0.4l2.7-0.8l2.7-2.4V51.9"/>
	</g>
</g>
<rect x="1.1" y="2.3" class="st9" width="143.3" height="21.7"/>
<text transform="matrix(1 0 0 1 1.1127 16.6245)" class="st10 st11">ZTP Riboswitch</text>
<rect x="319.5" y="140.6" class="st9" width="30.9" height="17"/>
<text transform="matrix(1 0 0 1 319.4832 154.9684)" class="st0 st10 st11">P1</text>
<rect x="124.7" y="187.7" class="st9" width="30.9" height="17"/>
<text transform="matrix(1 0 0 1 124.7478 201.9826)" class="st7 st10 st11">P3</text>
<rect x="3.9" y="264.3" class="st9" width="109.6" height="18.3"/>
<text transform="matrix(1 0 0 1 3.9279 278.6073)" class="st5 st10 st11">Pseudoknot</text>
<rect x="321.6" y="313.2" class="st9" width="30.9" height="17"/>
<text transform="matrix(1 0 0 1 321.5815 327.5498)" class="st6 st10 st11">P2</text>
<rect x="212.4" y="235.9" class="st9" width="44.9" height="17"/>
<text transform="matrix(1 0 0 1 212.3501 245.8824)" class="st12 st13 st14">ZMP</text>
<rect x="174.1" y="314.9" class="st9" width="43.8" height="21.4"/>
<text transform="matrix(1 0 0 1 174.0768 324.9317)" class="st12 st13 st14">Mg</text>
<text transform="matrix(0.583 0 0 0.583 194.2906 320.2696)" class="st12 st13 st14">2+</text>
<rect x="224" y="252.2" class="st9" width="43" height="21.2"/>
<text transform="matrix(1 0 0 1 223.9909 262.2663)" class="st12 st13 st14">Mg</text>
<text transform="matrix(0.583 0 0 0.583 244.2048 257.6042)" class="st12 st13 st14">2+</text>
</svg>
