<?xml version="1.0" encoding="utf-8"?>
<!-- Generator: Adobe Illustrator 26.3.1, SVG Export Plug-In . SVG Version: 6.00 Build 0)  -->
<svg version="1.1" id="Layer_1" xmlns="http://www.w3.org/2000/svg" xmlns:xlink="http://www.w3.org/1999/xlink" x="0px" y="0px"
	 viewBox="0 0 400 400" style="enable-background:new 0 0 400 400;" xml:space="preserve">
<style type="text/css">
	.st0{opacity:0.39;fill:#FFDF1E;enable-background:new    ;}
	.st1{fill:#FFAADC;}
	.st2{fill:#80DB9E;}
	.st3{fill:#C2C2FF;}
	.st4{fill:none;stroke:#000000;stroke-width:0.5;stroke-linejoin:round;stroke-miterlimit:10;}
	.st5{fill:none;stroke:#000000;stroke-width:0.5;stroke-linecap:square;stroke-miterlimit:10;}
	.st6{fill:none;stroke:#000000;stroke-width:1.5;stroke-linejoin:round;stroke-miterlimit:10;}
	.st7{fill:#FFFFFF;}
	.st8{fill:#FFDF5C;}
	.st9{fill:#0A0BFF;}
	.st10{font-family:'ArialMT';}
	.st11{font-size:20px;}
	.st12{fill:#FF0B0C;}
	.st13{font-size:15px;}
	.st14{fill:none;}
	.st15{font-size:8.745px;}
	.st16{font-size:18px;}
</style>
<rect x="193.8" y="228.5" class="st0" width="75" height="20"/>
<g>
	<g transform="translate(574.625,429.75)">
		<path class="st1" d="M-309.8-192.7h2.7c-0.1-0.7-0.3-1.4-0.6-1.9s-0.7-1-1.2-1.4s-1-0.7-1.6-0.9s-1.3-0.3-1.9-0.3
			c-1,0-1.8,0.2-2.6,0.5c-0.8,0.3-1.4,0.8-1.9,1.4c-0.5,0.6-0.9,1.3-1.2,2.1c-0.3,0.8-0.4,1.7-0.4,2.6c0,0.9,0.1,1.8,0.4,2.5
			c0.3,0.8,0.7,1.5,1.2,2.1s1.2,1,1.9,1.4c0.8,0.3,1.6,0.5,2.6,0.5c0.8,0,1.5-0.1,2.1-0.3s1.2-0.6,1.7-1s0.9-1,1.2-1.6
			c0.3-0.6,0.5-1.3,0.5-2.1h-2.7c-0.1,0.8-0.4,1.5-0.9,2s-1.1,0.8-2,0.8c-0.6,0-1.1-0.1-1.6-0.4c-0.4-0.2-0.8-0.6-1-1
			c-0.3-0.4-0.5-0.8-0.6-1.3s-0.2-1-0.2-1.5s0.1-1.1,0.2-1.6s0.3-1,0.6-1.4c0.3-0.4,0.6-0.7,1-1c0.4-0.2,1-0.4,1.6-0.4
			c0.3,0,0.7,0.1,1,0.2c0.3,0.1,0.6,0.3,0.8,0.5c0.2,0.2,0.4,0.4,0.6,0.7C-310-193.3-309.9-193-309.8-192.7z"/>
	</g>
	<g transform="translate(574.625,461.5833)">
		<path class="st1" d="M-307.6-203.5v-7.8h-2.7v7.8c0,0.9-0.2,1.6-0.6,2.1c-0.4,0.4-1,0.7-2,0.7c-0.6,0-1-0.1-1.3-0.2
			c-0.3-0.2-0.6-0.4-0.8-0.6c-0.2-0.3-0.3-0.5-0.4-0.9s-0.1-0.7-0.1-1v-7.8h-2.7v7.8c0,1.7,0.5,3,1.4,3.8s2.2,1.2,3.9,1.2
			c1.7,0,3-0.4,3.9-1.2C-308-200.6-307.6-201.8-307.6-203.5z"/>
	</g>
	<g transform="translate(463.2083,525.25)">
		<path class="st2" d="M-259.1-229l0.3,1.4h1.7v-6.7h-5.2v2h2.8c-0.1,0.9-0.4,1.5-0.9,2s-1.2,0.7-2.1,0.7c-0.6,0-1.1-0.1-1.6-0.4
			c-0.4-0.2-0.8-0.6-1-1c-0.3-0.4-0.5-0.8-0.6-1.3s-0.2-1-0.2-1.5s0.1-1.1,0.2-1.6s0.3-1,0.6-1.4c0.3-0.4,0.6-0.7,1-1
			c0.4-0.2,1-0.4,1.6-0.4c0.7,0,1.2,0.2,1.7,0.5s0.8,0.9,0.9,1.6h2.6c-0.1-0.7-0.3-1.3-0.6-1.9c-0.3-0.5-0.7-1-1.2-1.4
			s-1-0.7-1.6-0.8c-0.6-0.2-1.2-0.3-1.9-0.3c-1,0-1.8,0.2-2.6,0.5c-0.8,0.3-1.4,0.8-1.9,1.4s-0.9,1.3-1.2,2.1
			c-0.3,0.8-0.4,1.7-0.4,2.6c0,0.9,0.1,1.8,0.4,2.5c0.3,0.8,0.7,1.5,1.2,2.1s1.2,1,1.9,1.4c0.8,0.3,1.6,0.5,2.6,0.5
			c0.6,0,1.2-0.1,1.8-0.4C-260.1-227.9-259.6-228.3-259.1-229z"/>
	</g>
	<g transform="translate(431.375,525.25)">
		<path class="st2" d="M-244.7-229l0.3,1.4h1.7v-6.7h-5.2v2h2.8c-0.1,0.9-0.4,1.5-0.9,2s-1.2,0.7-2.1,0.7c-0.6,0-1.1-0.1-1.6-0.4
			c-0.4-0.2-0.8-0.6-1-1c-0.3-0.4-0.5-0.8-0.6-1.3s-0.2-1-0.2-1.5s0.1-1.1,0.2-1.6c0.1-0.5,0.3-1,0.6-1.4s0.6-0.7,1-1
			c0.4-0.2,1-0.4,1.6-0.4c0.7,0,1.2,0.2,1.7,0.5s0.8,0.9,0.9,1.6h2.6c-0.1-0.7-0.3-1.3-0.6-1.9c-0.3-0.5-0.7-1-1.2-1.4
			s-1-0.7-1.6-0.8c-0.6-0.2-1.2-0.3-1.9-0.3c-1,0-1.8,0.2-2.6,0.5s-1.4,0.8-1.9,1.4c-0.5,0.6-0.9,1.3-1.2,2.1s-0.4,1.7-0.4,2.6
			c0,0.9,0.1,1.8,0.4,2.5c0.3,0.8,0.7,1.5,1.2,2.1s1.2,1,1.9,1.4c0.8,0.3,1.6,0.5,2.6,0.5c0.6,0,1.2-0.1,1.8-0.4
			C-245.8-227.9-245.2-228.3-244.7-229z"/>
	</g>
	<g transform="translate(399.5417,525.25)">
		<path class="st2" d="M-230.8-235.8h2.7c-0.1-0.7-0.3-1.4-0.6-1.9c-0.3-0.6-0.7-1-1.2-1.4s-1-0.7-1.6-0.9s-1.3-0.3-1.9-0.3
			c-1,0-1.8,0.2-2.6,0.5s-1.4,0.8-1.9,1.4c-0.5,0.6-0.9,1.3-1.2,2.1s-0.4,1.7-0.4,2.6c0,0.9,0.1,1.8,0.4,2.5
			c0.3,0.8,0.7,1.5,1.2,2.1s1.2,1,1.9,1.4c0.8,0.3,1.6,0.5,2.6,0.5c0.8,0,1.5-0.1,2.1-0.3s1.2-0.6,1.7-1s0.9-1,1.2-1.6
			s0.5-1.3,0.5-2.1h-2.7c-0.1,0.8-0.4,1.5-0.9,2s-1.1,0.8-2,0.8c-0.6,0-1.1-0.1-1.6-0.4c-0.4-0.2-0.8-0.6-1-1
			c-0.3-0.4-0.5-0.8-0.6-1.3s-0.2-1-0.2-1.5s0.1-1.1,0.2-1.6c0.1-0.5,0.3-1,0.6-1.4s0.6-0.7,1-1c0.4-0.2,1-0.4,1.6-0.4
			c0.3,0,0.7,0.1,1,0.2c0.3,0.1,0.6,0.3,0.8,0.5s0.4,0.4,0.6,0.7C-230.9-236.4-230.8-236.1-230.8-235.8z"/>
	</g>
	<g transform="translate(367.7083,525.25)">
		<path class="st2" d="M-216-229l0.3,1.4h1.7v-6.7h-5.2v2h2.8c-0.1,0.9-0.4,1.5-0.9,2s-1.2,0.7-2.1,0.7c-0.6,0-1.1-0.1-1.6-0.4
			c-0.4-0.2-0.8-0.6-1-1c-0.3-0.4-0.5-0.8-0.6-1.3s-0.2-1-0.2-1.5s0.1-1.1,0.2-1.6c0.1-0.5,0.3-1,0.6-1.4s0.6-0.7,1-1
			c0.4-0.2,1-0.4,1.6-0.4c0.7,0,1.2,0.2,1.7,0.5s0.8,0.9,0.9,1.6h2.6c-0.1-0.7-0.3-1.3-0.6-1.9c-0.3-0.5-0.7-1-1.2-1.4
			s-1-0.7-1.6-0.8c-0.6-0.2-1.2-0.3-1.9-0.3c-1,0-1.8,0.2-2.6,0.5s-1.4,0.8-1.9,1.4c-0.5,0.6-0.9,1.3-1.2,2.1s-0.4,1.7-0.4,2.6
			c0,0.9,0.1,1.8,0.4,2.5c0.3,0.8,0.7,1.5,1.2,2.1s1.2,1,1.9,1.4c0.8,0.3,1.6,0.5,2.6,0.5c0.6,0,1.2-0.1,1.8-0.4
			C-217-227.9-216.5-228.3-216-229z"/>
	</g>
	<g transform="translate(335.875,525.25)">
		<path class="st2" d="M-201.6-229l0.3,1.4h1.7v-6.7h-5.2v2h2.8c-0.1,0.9-0.4,1.5-0.9,2s-1.2,0.7-2.1,0.7c-0.6,0-1.1-0.1-1.6-0.4
			c-0.4-0.2-0.8-0.6-1-1c-0.3-0.4-0.5-0.8-0.6-1.3s-0.2-1-0.2-1.5s0.1-1.1,0.2-1.6c0.1-0.5,0.3-1,0.6-1.4s0.6-0.7,1-1
			c0.4-0.2,1-0.4,1.6-0.4c0.7,0,1.2,0.2,1.7,0.5s0.8,0.9,0.9,1.6h2.6c-0.1-0.7-0.3-1.3-0.6-1.9c-0.3-0.5-0.7-1-1.2-1.4
			s-1-0.7-1.6-0.8c-0.6-0.2-1.2-0.3-1.9-0.3c-1,0-1.8,0.2-2.6,0.5s-1.4,0.8-1.9,1.4c-0.5,0.6-0.9,1.3-1.2,2.1s-0.4,1.7-0.4,2.6
			c0,0.9,0.1,1.8,0.4,2.5c0.3,0.8,0.7,1.5,1.2,2.1s1.2,1,1.9,1.4c0.8,0.3,1.6,0.5,2.6,0.5c0.6,0,1.2-0.1,1.8-0.4
			C-202.6-227.9-202.1-228.3-201.6-229z"/>
	</g>
	<g transform="translate(335.875,557.0833)">
		<path class="st3" d="M-206.7-246.7l1.6-4.6l0,0l1.6,4.6H-206.7z M-206.4-254.4l-4.7,12.5h2.8l1-2.8h4.7l0.9,2.8h2.8l-4.7-12.5
			H-206.4z"/>
	</g>
	<g transform="translate(367.7083,588.9167)">
		<path class="st3" d="M-214.1-261v-7.8h-2.7v7.8c0,0.9-0.2,1.6-0.6,2.1c-0.4,0.4-1,0.7-2,0.7c-0.6,0-1-0.1-1.3-0.2
			c-0.3-0.2-0.6-0.4-0.8-0.6c-0.2-0.3-0.3-0.5-0.4-0.9s-0.1-0.7-0.1-1v-7.8h-2.7v7.8c0,1.7,0.5,3,1.4,3.8s2.2,1.2,3.9,1.2
			s3-0.4,3.9-1.2C-214.6-258.1-214.1-259.3-214.1-261z"/>
	</g>
	<g>
		<line class="st4" x1="136.7" y1="325.8" x2="125.1" y2="325.8"/>
	</g>
	<g transform="translate(325.2639,588.9167)">
		<path d="M-219.2-264.6h1.5c0-0.4,0-0.7,0.1-1.1s0.2-0.7,0.4-1s0.5-0.5,0.8-0.7s0.7-0.3,1.1-0.3c0.3,0,0.6,0.1,0.9,0.2
			c0.3,0.1,0.5,0.3,0.8,0.5c0.2,0.2,0.4,0.4,0.5,0.7c0.1,0.3,0.2,0.6,0.2,0.9c0,0.4-0.1,0.8-0.2,1.1c-0.1,0.3-0.3,0.6-0.6,0.9
			s-0.6,0.6-1,0.8c-0.4,0.3-0.9,0.6-1.4,0.9c-0.4,0.3-0.8,0.5-1.2,0.8s-0.8,0.6-1.1,1s-0.6,0.8-0.8,1.4c-0.2,0.5-0.3,1.1-0.4,1.9
			h8.1v-1.3h-6.4c0.1-0.4,0.2-0.7,0.4-1s0.5-0.6,0.8-0.8c0.3-0.3,0.7-0.5,1.1-0.7c0.4-0.2,0.8-0.5,1.2-0.7s0.8-0.5,1.1-0.8
			c0.4-0.3,0.7-0.6,1-0.9s0.5-0.7,0.7-1.1s0.3-0.9,0.3-1.4c0-0.6-0.1-1.1-0.3-1.5s-0.5-0.8-0.8-1.1c-0.3-0.3-0.8-0.5-1.2-0.7
			c-0.5-0.2-1-0.2-1.5-0.2c-0.7,0-1.2,0.1-1.7,0.3c-0.5,0.2-0.9,0.5-1.3,0.9c-0.3,0.4-0.6,0.9-0.8,1.4
			C-219.1-265.8-219.2-265.2-219.2-264.6z M-207.9-262.7c0-0.3,0-0.6,0-1s0-0.7,0.1-1.1s0.1-0.7,0.2-1.1c0.1-0.3,0.2-0.7,0.4-0.9
			c0.2-0.3,0.4-0.5,0.7-0.6c0.3-0.2,0.6-0.2,1.1-0.2c0.4,0,0.8,0.1,1.1,0.2c0.3,0.2,0.5,0.4,0.7,0.6c0.2,0.3,0.3,0.6,0.4,0.9
			c0.1,0.3,0.2,0.7,0.2,1.1c0.1,0.4,0.1,0.7,0.1,1.1s0,0.7,0,1c0,0.5,0,1,0,1.6s-0.1,1.1-0.3,1.6s-0.4,0.9-0.8,1.3
			c-0.3,0.3-0.8,0.5-1.5,0.5c-0.6,0-1.1-0.2-1.5-0.5c-0.3-0.3-0.6-0.8-0.8-1.3s-0.3-1-0.3-1.6C-207.9-261.7-207.9-262.2-207.9-262.7
			z M-209.5-262.6c0,0.5,0,0.9,0,1.4s0.1,1,0.2,1.4c0.1,0.5,0.2,0.9,0.4,1.3s0.4,0.8,0.7,1.1c0.3,0.3,0.7,0.6,1.1,0.7
			c0.5,0.2,1,0.3,1.6,0.3c0.7,0,1.2-0.1,1.7-0.3s0.8-0.4,1.1-0.7c0.3-0.3,0.5-0.7,0.7-1.1s0.3-0.9,0.4-1.3c0.1-0.5,0.2-0.9,0.2-1.4
			s0-1,0-1.4s0-0.9,0-1.4s-0.1-1-0.2-1.4c-0.1-0.5-0.2-0.9-0.4-1.3s-0.4-0.8-0.7-1.1c-0.3-0.3-0.7-0.6-1.1-0.8
			c-0.5-0.2-1-0.3-1.6-0.3s-1.2,0.1-1.6,0.3c-0.5,0.2-0.8,0.4-1.1,0.8c-0.3,0.3-0.5,0.7-0.7,1.1s-0.3,0.9-0.4,1.3
			c-0.1,0.5-0.2,0.9-0.2,1.4C-209.5-263.6-209.5-263.1-209.5-262.6z"/>
	</g>
	<g transform="translate(335.875,421.7917)">
		<path class="st3" d="M-206.7-185.6l1.6-4.6l0,0l1.6,4.6H-206.7z M-206.4-193.3l-4.7,12.5h2.8l1-2.8h4.7l0.9,2.8h2.8l-4.7-12.5
			H-206.4z"/>
	</g>
	<g>
		<line class="st4" x1="119.3" y1="234.1" x2="107.6" y2="234.1"/>
	</g>
	<g transform="translate(293.4305,421.7917)">
		<path d="M-198.3-190.3h1.5c-0.1-1-0.4-1.8-1-2.3s-1.4-0.8-2.4-0.8c-0.9,0-1.6,0.2-2.2,0.6c-0.6,0.4-1,0.9-1.4,1.5
			c-0.3,0.6-0.6,1.3-0.7,2.1c-0.1,0.8-0.2,1.6-0.2,2.5c0,0.7,0,1.3,0.1,2s0.3,1.3,0.6,1.9c0.3,0.6,0.7,1.1,1.3,1.4s1.3,0.6,2.2,0.6
			c0.8,0,1.4-0.1,2-0.4c0.5-0.3,1-0.6,1.3-1s0.5-0.8,0.7-1.3c0.1-0.5,0.2-1,0.2-1.4c0-0.6-0.1-1.1-0.3-1.6s-0.4-0.9-0.7-1.3
			c-0.3-0.4-0.7-0.6-1.2-0.8s-1-0.3-1.6-0.3c-0.7,0-1.3,0.1-1.8,0.4c-0.5,0.3-1,0.7-1.3,1.2l0,0c0-0.5,0.1-1,0.1-1.5
			c0.1-0.5,0.2-1.1,0.4-1.5c0.2-0.5,0.5-0.9,0.9-1.2s0.9-0.5,1.5-0.5s1.1,0.2,1.4,0.5C-198.6-191.3-198.4-190.9-198.3-190.3z
			 M-200.6-187.8c0.4,0,0.8,0.1,1.1,0.2c0.3,0.2,0.6,0.4,0.8,0.6c0.2,0.3,0.4,0.5,0.5,0.9c0.1,0.3,0.1,0.7,0.1,1.1
			c0,0.4-0.1,0.7-0.2,1c-0.1,0.3-0.3,0.6-0.5,0.9c-0.2,0.3-0.5,0.5-0.8,0.6s-0.7,0.2-1.1,0.2c-0.4,0-0.8-0.1-1.1-0.2
			c-0.3-0.1-0.6-0.3-0.8-0.6c-0.2-0.2-0.4-0.5-0.5-0.9c-0.1-0.3-0.2-0.7-0.2-1.1s0.1-0.7,0.2-1.1c0.1-0.3,0.3-0.6,0.5-0.9
			c0.2-0.3,0.5-0.4,0.8-0.6C-201.3-187.7-201-187.8-200.6-187.8z M-193.5-187.2c0-0.3,0-0.6,0-1s0-0.7,0.1-1.1
			c0.1-0.4,0.1-0.7,0.2-1.1c0.1-0.3,0.2-0.7,0.4-0.9c0.2-0.3,0.4-0.5,0.7-0.6c0.3-0.2,0.6-0.2,1.1-0.2c0.4,0,0.8,0.1,1.1,0.2
			c0.3,0.2,0.5,0.4,0.7,0.6c0.2,0.3,0.3,0.6,0.4,0.9c0.1,0.3,0.2,0.7,0.2,1.1c0.1,0.4,0.1,0.7,0.1,1.1c0,0.4,0,0.7,0,1
			c0,0.5,0,1,0,1.6s-0.1,1.1-0.3,1.6s-0.4,0.9-0.8,1.3s-0.8,0.5-1.5,0.5c-0.6,0-1.1-0.2-1.5-0.5s-0.6-0.8-0.8-1.3s-0.3-1-0.3-1.6
			C-193.5-186.2-193.5-186.7-193.5-187.2z M-195.1-187.2c0,0.5,0,0.9,0,1.4s0.1,1,0.2,1.4c0.1,0.5,0.2,0.9,0.4,1.3
			c0.2,0.4,0.4,0.8,0.7,1.1s0.7,0.6,1.1,0.7c0.5,0.2,1,0.3,1.6,0.3c0.7,0,1.2-0.1,1.7-0.3s0.8-0.4,1.1-0.7s0.5-0.7,0.7-1.1
			c0.2-0.4,0.3-0.9,0.4-1.3c0.1-0.5,0.2-0.9,0.2-1.4s0-1,0-1.4s0-0.9,0-1.4s-0.1-1-0.2-1.4c-0.1-0.5-0.2-0.9-0.4-1.3
			c-0.2-0.4-0.4-0.8-0.7-1.1s-0.7-0.6-1.1-0.8c-0.5-0.2-1-0.3-1.6-0.3s-1.2,0.1-1.6,0.3c-0.5,0.2-0.8,0.4-1.1,0.8
			c-0.3,0.3-0.5,0.7-0.7,1.1c-0.2,0.4-0.3,0.9-0.4,1.3c-0.1,0.5-0.2,0.9-0.2,1.4C-195.1-188.1-195.1-187.6-195.1-187.2z"/>
	</g>
	<g transform="translate(335.875,461.5833)">
		<path class="st2" d="M-202-207.1h2.7c-0.1-0.7-0.3-1.4-0.6-1.9c-0.3-0.6-0.7-1-1.2-1.4s-1-0.7-1.6-0.9s-1.3-0.3-1.9-0.3
			c-1,0-1.8,0.2-2.6,0.5s-1.4,0.8-1.9,1.4c-0.5,0.6-0.9,1.3-1.2,2.1s-0.4,1.7-0.4,2.6c0,0.9,0.1,1.8,0.4,2.5
			c0.3,0.8,0.7,1.5,1.2,2.1s1.2,1,1.9,1.4c0.8,0.3,1.6,0.5,2.6,0.5c0.8,0,1.5-0.1,2.1-0.3s1.2-0.6,1.7-1s0.9-1,1.2-1.6
			s0.5-1.3,0.5-2.1h-2.7c-0.1,0.8-0.4,1.5-0.9,2s-1.1,0.8-2,0.8c-0.6,0-1.1-0.1-1.6-0.4c-0.4-0.2-0.8-0.6-1-1
			c-0.3-0.4-0.5-0.8-0.6-1.3s-0.2-1-0.2-1.5s0.1-1.1,0.2-1.6c0.1-0.5,0.3-1,0.6-1.4s0.6-0.7,1-1c0.4-0.2,1-0.4,1.6-0.4
			c0.3,0,0.7,0.1,1,0.2c0.3,0.1,0.6,0.3,0.8,0.5s0.4,0.4,0.6,0.7C-202.2-207.7-202.1-207.4-202-207.1z"/>
	</g>
	<g transform="translate(367.7083,461.5833)">
		<path class="st2" d="M-216.4-207.1h2.7c-0.1-0.7-0.3-1.4-0.6-1.9c-0.3-0.6-0.7-1-1.2-1.4s-1-0.7-1.6-0.9s-1.3-0.3-1.9-0.3
			c-1,0-1.8,0.2-2.6,0.5s-1.4,0.8-1.9,1.4c-0.5,0.6-0.9,1.3-1.2,2.1s-0.4,1.7-0.4,2.6c0,0.9,0.1,1.8,0.4,2.5
			c0.3,0.8,0.7,1.5,1.2,2.1s1.2,1,1.9,1.4c0.8,0.3,1.6,0.5,2.6,0.5c0.8,0,1.5-0.1,2.1-0.3s1.2-0.6,1.7-1s0.9-1,1.2-1.6
			s0.5-1.3,0.5-2.1h-2.7c-0.1,0.8-0.4,1.5-0.9,2s-1.1,0.8-2,0.8c-0.6,0-1.1-0.1-1.6-0.4c-0.4-0.2-0.8-0.6-1-1
			c-0.3-0.4-0.5-0.8-0.6-1.3s-0.2-1-0.2-1.5s0.1-1.1,0.2-1.6c0.1-0.5,0.3-1,0.6-1.4s0.6-0.7,1-1c0.4-0.2,1-0.4,1.6-0.4
			c0.3,0,0.7,0.1,1,0.2c0.3,0.1,0.6,0.3,0.8,0.5s0.4,0.4,0.6,0.7C-216.6-207.7-216.5-207.4-216.4-207.1z"/>
	</g>
	<g transform="translate(399.5417,461.5833)">
		<path class="st2" d="M-230.4-200.2l0.3,1.4h1.7v-6.7h-5.2v2h2.8c-0.1,0.9-0.4,1.5-0.9,2s-1.2,0.7-2.1,0.7c-0.6,0-1.1-0.1-1.6-0.4
			c-0.4-0.2-0.8-0.6-1-1c-0.3-0.4-0.5-0.8-0.6-1.3s-0.2-1-0.2-1.5s0.1-1.1,0.2-1.6c0.1-0.5,0.3-1,0.6-1.4s0.6-0.7,1-1
			c0.4-0.2,1-0.4,1.6-0.4c0.7,0,1.2,0.2,1.7,0.5s0.8,0.9,0.9,1.6h2.6c-0.1-0.7-0.3-1.3-0.6-1.9c-0.3-0.5-0.7-1-1.2-1.4
			s-1-0.7-1.6-0.8c-0.6-0.2-1.2-0.3-1.9-0.3c-1,0-1.8,0.2-2.6,0.5s-1.4,0.8-1.9,1.4c-0.5,0.6-0.9,1.3-1.2,2.1s-0.4,1.7-0.4,2.6
			c0,0.9,0.1,1.8,0.4,2.5c0.3,0.8,0.7,1.5,1.2,2.1s1.2,1,1.9,1.4c0.8,0.3,1.6,0.5,2.6,0.5c0.6,0,1.2-0.1,1.8-0.4
			C-231.4-199.1-230.8-199.6-230.4-200.2z"/>
	</g>
	<g transform="translate(431.375,461.5833)">
		<path class="st2" d="M-245.2-207.1h2.7c-0.1-0.7-0.3-1.4-0.6-1.9c-0.3-0.6-0.7-1-1.2-1.4s-1-0.7-1.6-0.9s-1.3-0.3-1.9-0.3
			c-1,0-1.8,0.2-2.6,0.5s-1.4,0.8-1.9,1.4c-0.5,0.6-0.9,1.3-1.2,2.1s-0.4,1.7-0.4,2.6c0,0.9,0.1,1.8,0.4,2.5
			c0.3,0.8,0.7,1.5,1.2,2.1s1.2,1,1.9,1.4c0.8,0.3,1.6,0.5,2.6,0.5c0.8,0,1.5-0.1,2.1-0.3s1.2-0.6,1.7-1s0.9-1,1.2-1.6
			s0.5-1.3,0.5-2.1h-2.7c-0.1,0.8-0.4,1.5-0.9,2s-1.1,0.8-2,0.8c-0.6,0-1.1-0.1-1.6-0.4c-0.4-0.2-0.8-0.6-1-1
			c-0.3-0.4-0.5-0.8-0.6-1.3s-0.2-1-0.2-1.5s0.1-1.1,0.2-1.6c0.1-0.5,0.3-1,0.6-1.4s0.6-0.7,1-1c0.4-0.2,1-0.4,1.6-0.4
			c0.3,0,0.7,0.1,1,0.2c0.3,0.1,0.6,0.3,0.8,0.5s0.4,0.4,0.6,0.7C-245.3-207.7-245.2-207.4-245.2-207.1z"/>
	</g>
	<g transform="translate(463.2083,461.5833)">
		<path class="st2" d="M-259.5-207.1h2.7c-0.1-0.7-0.3-1.4-0.6-1.9c-0.3-0.6-0.7-1-1.2-1.4s-1-0.7-1.6-0.9s-1.3-0.3-1.9-0.3
			c-1,0-1.8,0.2-2.6,0.5s-1.4,0.8-1.9,1.4s-0.9,1.3-1.2,2.1c-0.3,0.8-0.4,1.7-0.4,2.6c0,0.9,0.1,1.8,0.4,2.5
			c0.3,0.8,0.7,1.5,1.2,2.1s1.2,1,1.9,1.4c0.8,0.3,1.6,0.5,2.6,0.5c0.8,0,1.5-0.1,2.1-0.3s1.2-0.6,1.7-1s0.9-1,1.2-1.6
			c0.3-0.6,0.5-1.3,0.5-2.1h-2.7c-0.1,0.8-0.4,1.5-0.9,2s-1.1,0.8-2,0.8c-0.6,0-1.1-0.1-1.6-0.4c-0.4-0.2-0.8-0.6-1-1
			c-0.3-0.4-0.5-0.8-0.6-1.3s-0.2-1-0.2-1.5s0.1-1.1,0.2-1.6s0.3-1,0.6-1.4c0.3-0.4,0.6-0.7,1-1s1-0.4,1.6-0.4c0.3,0,0.7,0.1,1,0.2
			c0.3,0.1,0.6,0.3,0.8,0.5c0.2,0.2,0.4,0.4,0.6,0.7C-259.7-207.7-259.6-207.4-259.5-207.1z"/>
	</g>
	<g transform="translate(463.2083,429.75)">
		<path class="st3" d="M-257.3-189.1v-7.8h-2.7v7.8c0,0.9-0.2,1.6-0.6,2.1c-0.4,0.4-1,0.7-2,0.7c-0.6,0-1-0.1-1.3-0.2
			c-0.3-0.2-0.6-0.4-0.8-0.6c-0.2-0.3-0.3-0.5-0.4-0.9c-0.1-0.3-0.1-0.7-0.1-1v-7.8h-2.7v7.8c0,1.7,0.5,3,1.4,3.8s2.2,1.2,3.9,1.2
			c1.7,0,3-0.4,3.9-1.2C-257.7-186.2-257.3-187.4-257.3-189.1z"/>
	</g>
	<g>
		<line class="st4" x1="268.8" y1="238.5" x2="289.8" y2="238.5"/>
	</g>
	<g>
		<path d="M276.4,240.5l0.1,0.2l0.1,0.2l0.2,0.2l0.2,0.2l0.2,0.1l0.2,0.1l0.2,0.1l0.2,0.1l0.2,0.1l0.2,0.1l0.2,0.1l0.2,0.1h0.2h0.2
			h0.2h0.2h0.2h0.2h0.2l0.2-0.1l0.2-0.1l0.2-0.1l0.2-0.1l0.2-0.1l0.2-0.1l0.2-0.1l0.2-0.1l0.2-0.2l0.1-0.2l0.1-0.2l0.1-0.2l0.1-0.2
			l0.1-0.2l0.1-0.2l0.1-0.2l0.1-0.2v-0.2v-0.2v-0.2v-0.2v-0.2v-0.2v-0.2v-0.2l-0.1-0.2l-0.1-0.2l-0.1-0.2l-0.1-0.2l-0.1-0.2
			l-0.1-0.2l-0.1-0.2l-0.1-0.2l-0.2-0.2l-0.2-0.1l-0.2-0.1l-0.2-0.1l-0.2-0.1l-0.2-0.1l-0.2-0.1l-0.2-0.1l-0.2-0.1h-0.2h-0.2h-0.2
			h-0.2H279h-0.2h-0.2l-0.2,0.1l-0.2,0.1l-0.2,0.1l-0.2,0.1l-0.2,0.1l-0.2,0.1l-0.2,0.1l-0.2,0.1l-0.2,0.2l-0.2,0.2l-0.1,0.2
			l-0.1,0.2l-0.1,0.2l-0.1,0.2l-0.1,0.2l-0.1,0.2l-0.1,0.2l-0.1,0.2v0.2v0.2v0.2v0.2v0.2v0.2v0.2l0.1,0.2l0.1,0.2l0.1,0.2l0.1,0.2
			l0.1,0.2H276.4z"/>
	</g>
	<g>
		<path class="st5" d="M282.8,238.5v-0.2v-0.2v-0.2v-0.2l-0.1-0.2l-0.1-0.2l-0.1-0.2l-0.1-0.2l-0.1-0.2l-0.1-0.2l-0.1-0.2l-0.1-0.2
			l-0.2-0.2l-0.2-0.1l-0.2-0.1l-0.2-0.1l-0.2-0.1l-0.2-0.1l-0.2-0.1l-0.2-0.1l-0.2-0.1H280h-0.2h-0.2h-0.2h-0.2H279h-0.2l-0.2,0.1
			l-0.2,0.1l-0.2,0.1l-0.2,0.1l-0.2,0.1l-0.2,0.1l-0.2,0.1l-0.2,0.1l-0.2,0.2l-0.2,0.2l-0.1,0.2l-0.1,0.2l-0.1,0.2l-0.1,0.2
			l-0.1,0.2l-0.1,0.2l-0.1,0.2l-0.1,0.2v0.2v0.2v0.2v0.2v0.2v0.2v0.2l0.1,0.2l0.1,0.2l0.1,0.2l0.1,0.2l0.1,0.2l0.1,0.2l0.1,0.2
			l0.1,0.2l0.2,0.2l0.2,0.2l0.2,0.1l0.2,0.1l0.2,0.1l0.2,0.1l0.2,0.1l0.2,0.1l0.2,0.1l0.2,0.1h0.2h0.2h0.2h0.2h0.2h0.2h0.2l0.2-0.1
			l0.2-0.1l0.2-0.1l0.2-0.1l0.2-0.1l0.2-0.1l0.2-0.1l0.2-0.1l0.2-0.2l0.1-0.2l0.1-0.2l0.1-0.2l0.1-0.2l0.1-0.2l0.1-0.2l0.1-0.2
			l0.1-0.2v-0.2v-0.2v-0.2L282.8,238.5L282.8,238.5"/>
		<path class="st6" d="M261.8,262.9v10.5h-39.3v17.5h-14.8"/>
	</g>
	<g>
		<path d="M233.5,273.4l5.8,1.3l2.9,0.4l2.9,0.9l2.9,2.6v-10.5l-2.9,2.6l-2.9,0.9l-2.9,0.4L233.5,273.4z"/>
	</g>
	<g>
		<path class="st5" d="M248,278.6l-2.9-2.6l-2.9-0.9l-2.9-0.4l-5.8-1.3l5.8-1.3l2.9-0.4l2.9-0.9l2.9-2.6V278.6"/>
		<line class="st4" x1="268.8" y1="255.9" x2="289.8" y2="255.9"/>
	</g>
	<g>
		<path d="M276.4,257.9l0.1,0.2l0.1,0.2l0.2,0.2l0.2,0.2l0.2,0.1l0.2,0.1l0.2,0.1l0.2,0.1l0.2,0.1l0.2,0.1l0.2,0.1l0.2,0.1h0.2h0.2
			h0.2h0.2h0.2h0.2h0.2l0.2-0.1l0.2-0.1l0.2-0.1l0.2-0.1l0.2-0.1l0.2-0.1l0.2-0.1l0.2-0.1l0.2-0.2l0.1-0.2l0.1-0.2l0.1-0.2l0.1-0.2
			l0.1-0.2l0.1-0.2l0.1-0.2l0.1-0.2v-0.2v-0.2v-0.2v-0.2v-0.2v-0.2v-0.2v-0.2l-0.1-0.2l-0.1-0.2l-0.1-0.2l-0.1-0.2l-0.1-0.2
			l-0.1-0.2l-0.1-0.2l-0.1-0.2l-0.2-0.2l-0.2-0.1l-0.2-0.1l-0.2-0.1l-0.2-0.1l-0.2-0.1l-0.2-0.1l-0.2-0.1l-0.2-0.1h-0.2h-0.2h-0.2
			h-0.2H279h-0.2h-0.2l-0.2,0.1l-0.2,0.1L278,253l-0.2,0.1l-0.2,0.1l-0.2,0.1l-0.2,0.1l-0.2,0.1l-0.2,0.2l-0.2,0.2l-0.1,0.2
			l-0.1,0.2l-0.1,0.2l-0.1,0.2l-0.1,0.2l-0.1,0.2l-0.1,0.2l-0.1,0.2v0.2v0.2v0.2v0.2v0.2v0.2v0.2l0.1,0.2l0.1,0.2l0.1,0.2l0.1,0.2
			l0.1,0.2L276.4,257.9L276.4,257.9z"/>
	</g>
	<g>
		<path class="st5" d="M282.8,255.9v-0.2v-0.2v-0.2v-0.2l-0.1-0.2l-0.1-0.2l-0.1-0.2l-0.1-0.2l-0.1-0.2l-0.1-0.2l-0.1-0.2l-0.1-0.2
			l-0.2-0.2l-0.2-0.1l-0.2-0.1l-0.2-0.1l-0.2-0.1l-0.2-0.1l-0.2-0.1l-0.2-0.1l-0.2-0.1H280h-0.2h-0.2h-0.2h-0.2H279h-0.2l-0.2,0.1
			l-0.2,0.1l-0.2,0.1l-0.2,0.1l-0.2,0.1l-0.2,0.1l-0.2,0.1l-0.2,0.1l-0.2,0.2l-0.2,0.2l-0.1,0.2l-0.1,0.2l-0.1,0.2l-0.1,0.2
			l-0.1,0.2l-0.1,0.2l-0.1,0.2l-0.1,0.2v0.2v0.2v0.2v0.2v0.2v0.2v0.2l0.1,0.2l0.1,0.2l0.1,0.2l0.1,0.2l0.1,0.2l0.1,0.2l0.1,0.2
			l0.1,0.2l0.2,0.2l0.2,0.2l0.2,0.1l0.2,0.1l0.2,0.1l0.2,0.1l0.2,0.1l0.2,0.1l0.2,0.1l0.2,0.1h0.2h0.2h0.2h0.2h0.2h0.2h0.2l0.2-0.1
			l0.2-0.1l0.2-0.1l0.2-0.1l0.2-0.1l0.2-0.1l0.2-0.1l0.2-0.1l0.2-0.2l0.1-0.2l0.1-0.2l0.1-0.2l0.1-0.2l0.1-0.2l0.1-0.2l0.1-0.2
			l0.1-0.2v-0.2v-0.2v-0.2L282.8,255.9L282.8,255.9"/>
		<line class="st4" x1="200.7" y1="283.9" x2="200.7" y2="262.9"/>
		<line class="st4" x1="178.5" y1="285.7" x2="135.6" y2="239.2"/>
	</g>
	<g>
		<path class="st7" d="M165.1,266l-4.7-5.1l-5.1,4.7l4.7,5.1L165.1,266z"/>
	</g>
	<g>
		<path class="st5" d="M165.1,266l-4.7-5.1l-5.1,4.7l4.7,5.1L165.1,266"/>
	</g>
	<g>
		<path class="st7" d="M151.2,261.2l0.1,0.2l0.1,0.2l0.2,0.2l0.2,0.1l0.2,0.1l0.2,0.1l0.2,0.1l0.2,0.1l0.2,0.1l0.2,0.1l0.2,0.1h0.2
			h0.2h0.2h0.2h0.2h0.2h0.2l0.2-0.1l0.2-0.1l0.2-0.1l0.2-0.1l0.2-0.1l0.2-0.1l0.2-0.1l0.2-0.1l0.2-0.2l0.2-0.2l0.1-0.2l0.1-0.2
			l0.1-0.2l0.1-0.2l0.1-0.2l0.1-0.2l0.1-0.2l0.1-0.2v-0.2v-0.2v-0.2V259v-0.2v-0.2v-0.2l-0.1-0.2l-0.1-0.2l-0.1-0.2l-0.1-0.2
			l-0.1-0.2l-0.1-0.2l-0.1-0.2l-0.1-0.2l-0.2-0.2l-0.2-0.2l-0.2-0.1l-0.2-0.1l-0.2-0.1l-0.2-0.1l-0.2-0.1l-0.2-0.1l-0.2-0.1
			l-0.2-0.1h-0.2h-0.2H154h-0.2h-0.2h-0.2h-0.2l-0.2,0.1l-0.2,0.1l-0.2,0.1l-0.2,0.1l-0.2,0.1l-0.2,0.1l-0.2,0.1l-0.2,0.1l-0.2,0.2
			l-0.1,0.2l-0.1,0.2l-0.1,0.2l-0.1,0.2l-0.1,0.2l-0.1,0.2l-0.1,0.2l-0.1,0.2v0.2v0.2v0.2v0.2v0.2v0.2v0.2v0.2l0.1,0.2l0.1,0.2
			l0.1,0.2l0.1,0.2l0.1,0.2L151.2,261.2z"/>
	</g>
	<g>
		<path class="st5" d="M151.6,256.6l-0.2,0.2l-0.1,0.2l-0.1,0.2l-0.1,0.2l-0.1,0.2l-0.1,0.2l-0.1,0.2l-0.1,0.2l-0.1,0.2v0.2v0.2v0.2
			v0.2v0.2v0.2v0.2v0.2l0.1,0.2l0.1,0.2l0.1,0.2l0.1,0.2l0.1,0.2l0.1,0.2l0.1,0.2l0.1,0.2l0.2,0.2l0.2,0.1l0.2,0.1l0.2,0.1l0.2,0.1
			l0.2,0.1l0.2,0.1l0.2,0.1l0.2,0.1h0.2h0.2h0.2h0.2h0.2h0.2h0.2l0.2-0.1l0.2-0.1l0.2-0.1l0.2-0.1l0.2-0.1l0.2-0.1l0.2-0.1l0.2-0.1
			l0.2-0.2l0.2-0.2l0.1-0.2l0.1-0.2l0.1-0.2l0.1-0.2l0.1-0.2l0.1-0.2l0.1-0.2l0.1-0.2v-0.2v-0.2v-0.2V259v-0.2v-0.2v-0.2l-0.1-0.2
			l-0.1-0.2l-0.1-0.2l-0.1-0.2l-0.1-0.2l-0.1-0.2l-0.1-0.2l-0.1-0.2l-0.2-0.2l-0.2-0.2l-0.2-0.1l-0.2-0.1l-0.2-0.1l-0.2-0.1
			l-0.2-0.1l-0.2-0.1l-0.2-0.1l-0.2-0.1h-0.2h-0.2H154h-0.2h-0.2h-0.2h-0.2l-0.2,0.1l-0.2,0.1l-0.2,0.1l-0.2,0.1l-0.2,0.1l-0.2,0.1
			l-0.2,0.1L151.6,256.6L151.6,256.6"/>
		<line class="st4" x1="183.3" y1="283.9" x2="183.3" y2="262.9"/>
		<line class="st4" x1="165.8" y1="283.9" x2="165.8" y2="262.9"/>
		<line class="st4" x1="148.4" y1="283.9" x2="148.4" y2="262.9"/>
		<line class="st4" x1="130.9" y1="283.9" x2="130.9" y2="262.9"/>
	</g>
	<g transform="translate(574.625,79.5833)">
		<path class="st1" d="M-309.4-27.7l0.3,1.4h1.7V-33h-5.2v2h2.8c-0.1,0.9-0.4,1.5-0.9,2s-1.2,0.7-2.1,0.7c-0.6,0-1.1-0.1-1.6-0.4
			c-0.4-0.2-0.8-0.6-1-1c-0.3-0.4-0.5-0.8-0.6-1.3s-0.2-1-0.2-1.5c0-0.5,0.1-1.1,0.2-1.6s0.3-1,0.6-1.4c0.3-0.4,0.6-0.7,1-1
			s1-0.4,1.6-0.4c0.7,0,1.2,0.2,1.7,0.5s0.8,0.9,0.9,1.6h2.6c-0.1-0.7-0.3-1.3-0.6-1.9c-0.3-0.5-0.7-1-1.2-1.4s-1-0.7-1.6-0.8
			c-0.6-0.2-1.2-0.3-1.9-0.3c-1,0-1.8,0.2-2.6,0.5c-0.8,0.3-1.4,0.8-1.9,1.4s-0.9,1.3-1.2,2.1c-0.3,0.8-0.4,1.7-0.4,2.6
			c0,0.9,0.1,1.8,0.4,2.5c0.3,0.8,0.7,1.5,1.2,2.1s1.2,1,1.9,1.4c0.8,0.3,1.6,0.5,2.6,0.5c0.6,0,1.2-0.1,1.8-0.4
			C-310.5-26.6-309.9-27.1-309.4-27.7z"/>
	</g>
	<g transform="translate(574.625,111.4167)">
		<path class="st1" d="M-309.4-42.1l0.3,1.4h1.7v-6.7h-5.2v2h2.8c-0.1,0.9-0.4,1.5-0.9,2s-1.2,0.7-2.1,0.7c-0.6,0-1.1-0.1-1.6-0.4
			c-0.4-0.2-0.8-0.6-1-1c-0.3-0.4-0.5-0.8-0.6-1.3s-0.2-1-0.2-1.5s0.1-1.1,0.2-1.6s0.3-1,0.6-1.4c0.3-0.4,0.6-0.7,1-1s1-0.4,1.6-0.4
			c0.7,0,1.2,0.2,1.7,0.5s0.8,0.9,0.9,1.6h2.6c-0.1-0.7-0.3-1.3-0.6-1.9c-0.3-0.5-0.7-1-1.2-1.4s-1-0.7-1.6-0.8
			c-0.6-0.2-1.2-0.3-1.9-0.3c-1,0-1.8,0.2-2.6,0.5c-0.8,0.3-1.4,0.8-1.9,1.4s-0.9,1.3-1.2,2.1c-0.3,0.8-0.4,1.7-0.4,2.6
			c0,0.9,0.1,1.8,0.4,2.5c0.3,0.8,0.7,1.5,1.2,2.1s1.2,1,1.9,1.4c0.8,0.3,1.6,0.5,2.6,0.5c0.6,0,1.2-0.1,1.8-0.4
			C-310.5-41-309.9-41.5-309.4-42.1z"/>
	</g>
	<g transform="translate(574.625,143.25)">
		<path class="st1" d="M-309.4-56.5l0.3,1.4h1.7v-6.7h-5.2v2h2.8c-0.1,0.9-0.4,1.5-0.9,2s-1.2,0.7-2.1,0.7c-0.6,0-1.1-0.1-1.6-0.4
			s-0.8-0.6-1-1c-0.3-0.4-0.5-0.8-0.6-1.3s-0.2-1-0.2-1.5s0.1-1.1,0.2-1.6s0.3-1,0.6-1.4c0.3-0.4,0.6-0.7,1-1s1-0.4,1.6-0.4
			c0.7,0,1.2,0.2,1.7,0.5s0.8,0.9,0.9,1.6h2.6c-0.1-0.7-0.3-1.3-0.6-1.9c-0.3-0.5-0.7-1-1.2-1.4s-1-0.7-1.6-0.8
			c-0.6-0.2-1.2-0.3-1.9-0.3c-1,0-1.8,0.2-2.6,0.5c-0.8,0.3-1.4,0.8-1.9,1.4s-0.9,1.3-1.2,2.1c-0.3,0.8-0.4,1.7-0.4,2.6
			c0,0.9,0.1,1.8,0.4,2.5c0.3,0.8,0.7,1.5,1.2,2.1s1.2,1,1.9,1.4c0.8,0.3,1.6,0.5,2.6,0.5c0.6,0,1.2-0.1,1.8-0.4
			C-310.5-55.4-309.9-55.8-309.4-56.5z"/>
	</g>
	<g transform="translate(574.625,175.0833)">
		<path class="st1" d="M-314.5-74.2l1.6-4.6l0,0l1.6,4.6H-314.5z M-314.2-81.9l-4.7,12.5h2.8l1-2.8h4.7l0.9,2.8h2.8l-4.7-12.5
			H-314.2z"/>
	</g>
	<g transform="translate(574.625,206.9167)">
		<path class="st1" d="M-307.6-88.5v-7.8h-2.7v7.8c0,0.9-0.2,1.6-0.6,2.1c-0.4,0.4-1,0.7-2,0.7c-0.6,0-1-0.1-1.3-0.2
			c-0.3-0.2-0.6-0.4-0.8-0.6c-0.2-0.3-0.3-0.5-0.4-0.9s-0.1-0.7-0.1-1v-7.8h-2.7v7.8c0,1.7,0.5,3,1.4,3.8s2.2,1.2,3.9,1.2
			c1.7,0,3-0.4,3.9-1.2C-308-85.6-307.6-86.8-307.6-88.5z"/>
	</g>
	<g transform="translate(574.625,238.75)">
		<path class="st1" d="M-314.5-103l1.6-4.6l0,0l1.6,4.6H-314.5z M-314.2-110.6l-4.7,12.5h2.8l1-2.8h4.7l0.9,2.8h2.8l-4.7-12.5
			H-314.2z"/>
	</g>
	<g transform="translate(638.2917,238.75)">
		<path class="st1" d="M-336.3-102.9v-7.8h-2.7v7.8c0,0.9-0.2,1.6-0.6,2.1c-0.4,0.4-1,0.7-2,0.7c-0.6,0-1-0.1-1.3-0.2
			c-0.3-0.2-0.6-0.4-0.8-0.6c-0.2-0.3-0.3-0.5-0.4-0.9c-0.1-0.3-0.1-0.7-0.1-1v-7.8h-2.7v7.8c0,1.7,0.5,3,1.4,3.8s2.2,1.2,3.9,1.2
			c1.7,0,3-0.4,3.9-1.2C-336.8-99.9-336.3-101.2-336.3-102.9z"/>
	</g>
	<g transform="translate(638.2917,206.9167)">
		<path class="st1" d="M-343.2-88.6l1.6-4.6l0,0l1.6,4.6H-343.2z M-343-96.3l-4.7,12.5h2.8l1-2.8h4.7l0.9,2.8h2.8l-4.7-12.5H-343z"
			/>
	</g>
	<g transform="translate(638.2917,175.0833)">
		<path class="st1" d="M-336.3-74.1v-7.8h-2.7v7.8c0,0.9-0.2,1.6-0.6,2.1c-0.4,0.4-1,0.7-2,0.7c-0.6,0-1-0.1-1.3-0.2
			c-0.3-0.2-0.6-0.4-0.8-0.6c-0.2-0.3-0.3-0.5-0.4-0.9c-0.1-0.3-0.1-0.7-0.1-1v-7.8h-2.7v7.8c0,1.7,0.5,3,1.4,3.8s2.2,1.2,3.9,1.2
			c1.7,0,3-0.4,3.9-1.2C-336.8-71.2-336.3-72.5-336.3-74.1z"/>
	</g>
	<g transform="translate(638.2917,143.25)">
		<path class="st1" d="M-338.6-63.3h2.7c-0.1-0.7-0.3-1.4-0.6-1.9c-0.3-0.6-0.7-1-1.2-1.4s-1-0.7-1.6-0.9c-0.6-0.2-1.3-0.3-1.9-0.3
			c-1,0-1.8,0.2-2.6,0.5c-0.8,0.3-1.4,0.8-1.9,1.4s-0.9,1.3-1.2,2.1c-0.3,0.8-0.4,1.7-0.4,2.6c0,0.9,0.1,1.8,0.4,2.5
			c0.3,0.8,0.7,1.5,1.2,2.1s1.2,1,1.9,1.4c0.8,0.3,1.6,0.5,2.6,0.5c0.8,0,1.5-0.1,2.1-0.3s1.2-0.6,1.7-1s0.9-1,1.2-1.6
			c0.3-0.6,0.5-1.3,0.5-2.1h-2.7c-0.1,0.8-0.4,1.5-0.9,2s-1.1,0.8-2,0.8c-0.6,0-1.1-0.1-1.6-0.4c-0.4-0.2-0.8-0.6-1-1
			c-0.3-0.4-0.5-0.8-0.6-1.3s-0.2-1-0.2-1.5s0.1-1.1,0.2-1.6s0.3-1,0.6-1.4c0.3-0.4,0.6-0.7,1-1c0.4-0.2,1-0.4,1.6-0.4
			c0.3,0,0.7,0.1,1,0.2s0.6,0.3,0.8,0.5c0.2,0.2,0.4,0.4,0.6,0.7C-338.7-63.9-338.6-63.6-338.6-63.3z"/>
	</g>
	<g transform="translate(638.2917,111.4167)">
		<path class="st1" d="M-338.6-49h2.7c-0.1-0.7-0.3-1.4-0.6-1.9c-0.3-0.6-0.7-1-1.2-1.4s-1-0.7-1.6-0.9s-1.3-0.3-1.9-0.3
			c-1,0-1.8,0.2-2.6,0.5c-0.8,0.3-1.4,0.8-1.9,1.4s-0.9,1.3-1.2,2.1c-0.3,0.8-0.4,1.7-0.4,2.6c0,0.9,0.1,1.8,0.4,2.5
			c0.3,0.8,0.7,1.5,1.2,2.1s1.2,1,1.9,1.4c0.8,0.3,1.6,0.5,2.6,0.5c0.8,0,1.5-0.1,2.1-0.3s1.2-0.6,1.7-1s0.9-1,1.2-1.6
			c0.3-0.6,0.5-1.3,0.5-2.1h-2.7c-0.1,0.8-0.4,1.5-0.9,2s-1.1,0.8-2,0.8c-0.6,0-1.1-0.1-1.6-0.4c-0.4-0.2-0.8-0.6-1-1
			c-0.3-0.4-0.5-0.8-0.6-1.3s-0.2-1-0.2-1.5s0.1-1.1,0.2-1.6s0.3-1,0.6-1.4c0.3-0.4,0.6-0.7,1-1c0.4-0.2,1-0.4,1.6-0.4
			c0.3,0,0.7,0.1,1,0.2c0.3,0.1,0.6,0.3,0.8,0.5c0.2,0.2,0.4,0.4,0.6,0.7C-338.7-49.6-338.6-49.3-338.6-49z"/>
	</g>
	<g transform="translate(638.2917,79.5833)">
		<path class="st1" d="M-338.2-27.7l0.3,1.4h1.7V-33h-5.2v2h2.8c-0.1,0.9-0.4,1.5-0.9,2s-1.2,0.7-2.1,0.7c-0.6,0-1.1-0.1-1.6-0.4
			c-0.4-0.2-0.8-0.6-1-1c-0.3-0.4-0.5-0.8-0.6-1.3s-0.2-1-0.2-1.5c0-0.5,0.1-1.1,0.2-1.6s0.3-1,0.6-1.4c0.3-0.4,0.6-0.7,1-1
			c0.4-0.2,1-0.4,1.6-0.4c0.7,0,1.2,0.2,1.7,0.5s0.8,0.9,0.9,1.6h2.6c-0.1-0.7-0.3-1.3-0.6-1.9c-0.3-0.5-0.7-1-1.2-1.4
			s-1-0.7-1.6-0.8c-0.6-0.2-1.2-0.3-1.9-0.3c-1,0-1.8,0.2-2.6,0.5c-0.8,0.3-1.4,0.8-1.9,1.4c-0.5,0.6-0.9,1.3-1.2,2.1
			c-0.3,0.8-0.4,1.7-0.4,2.6c0,0.9,0.1,1.8,0.4,2.5c0.3,0.8,0.7,1.5,1.2,2.1s1.2,1,1.9,1.4c0.8,0.3,1.6,0.5,2.6,0.5
			c0.6,0,1.2-0.1,1.8-0.4C-339.2-26.6-338.7-27.1-338.2-27.7z"/>
	</g>
	<g transform="translate(399.5417,79.5833)">
		<path class="st3" d="M-235.4-31.1l1.6-4.6l0,0l1.6,4.6H-235.4z M-235.1-38.8l-4.7,12.5h2.8l1-2.8h4.7l0.9,2.8h2.8l-4.7-12.5
			H-235.1z"/>
	</g>
	<g transform="translate(399.5417,111.4167)">
		<path class="st3" d="M-235.4-45.5l1.6-4.6l0,0l1.6,4.6H-235.4z M-235.1-53.1l-4.7,12.5h2.8l1-2.8h4.7l0.9,2.8h2.8l-4.7-12.5
			H-235.1z"/>
	</g>
	<g>
		<line class="st4" x1="154.2" y1="63.9" x2="142.5" y2="63.9"/>
	</g>
	<g transform="translate(357.0972,111.4167)">
		<path d="M-226.1-51.8v-1.3h-6.1l-1.2,6.4l1.3,0.1c0.3-0.3,0.6-0.6,1-0.8s0.8-0.3,1.3-0.3c0.4,0,0.8,0.1,1.1,0.2
			c0.3,0.1,0.6,0.3,0.9,0.6c0.2,0.3,0.4,0.5,0.6,0.9c0.1,0.3,0.2,0.7,0.2,1.1c0,0.5-0.1,0.9-0.2,1.3c-0.1,0.4-0.3,0.7-0.6,0.9
			c-0.2,0.2-0.5,0.4-0.8,0.5s-0.7,0.2-1,0.2c-0.4,0-0.7-0.1-1-0.2c-0.3-0.1-0.6-0.3-0.8-0.5s-0.4-0.4-0.5-0.7s-0.2-0.6-0.2-0.9h-1.5
			c0,0.6,0.1,1.1,0.3,1.5s0.5,0.8,0.9,1.1s0.8,0.5,1.2,0.7c0.5,0.2,1,0.2,1.5,0.2c0.7,0,1.4-0.1,1.9-0.3s1-0.5,1.4-0.9
			s0.6-0.8,0.8-1.3s0.3-1,0.3-1.5c0-0.7-0.1-1.3-0.3-1.9s-0.5-1-0.9-1.3c-0.4-0.4-0.8-0.6-1.3-0.8s-1-0.3-1.6-0.3
			c-0.4,0-0.8,0.1-1.3,0.2c-0.4,0.1-0.8,0.4-1,0.7l0,0l0.7-3.6C-231-51.8-226.1-51.8-226.1-51.8z M-222.3-47c0-0.3,0-0.6,0-1
			s0-0.7,0.1-1.1c0.1-0.4,0.1-0.7,0.2-1.1c0.1-0.3,0.2-0.7,0.4-0.9c0.2-0.3,0.4-0.5,0.7-0.6c0.3-0.2,0.6-0.2,1.1-0.2
			c0.4,0,0.8,0.1,1.1,0.2c0.3,0.2,0.5,0.4,0.7,0.6c0.2,0.3,0.3,0.6,0.4,0.9c0.1,0.3,0.2,0.7,0.2,1.1c0.1,0.4,0.1,0.7,0.1,1.1
			c0,0.4,0,0.7,0,1c0,0.5,0,1,0,1.6s-0.1,1.1-0.3,1.6s-0.4,0.9-0.8,1.3c-0.3,0.3-0.8,0.5-1.5,0.5c-0.6,0-1.1-0.2-1.5-0.5
			c-0.3-0.3-0.6-0.8-0.8-1.3s-0.3-1-0.3-1.6C-222.3-46.1-222.3-46.6-222.3-47z M-223.9-47c0,0.5,0,0.9,0,1.4s0.1,1,0.2,1.4
			c0.1,0.5,0.2,0.9,0.4,1.3c0.2,0.4,0.4,0.8,0.7,1.1s0.7,0.6,1.1,0.7c0.5,0.2,1,0.3,1.6,0.3c0.7,0,1.2-0.1,1.7-0.3s0.8-0.4,1.1-0.7
			s0.5-0.7,0.7-1.1c0.2-0.4,0.3-0.9,0.4-1.3c0.1-0.5,0.2-0.9,0.2-1.4s0-1,0-1.4c0-0.5,0-0.9,0-1.4s-0.1-1-0.2-1.4
			c-0.1-0.5-0.2-0.9-0.4-1.3c-0.2-0.4-0.4-0.8-0.7-1.1s-0.7-0.6-1.1-0.8c-0.5-0.2-1-0.3-1.6-0.3s-1.2,0.1-1.6,0.3
			c-0.5,0.2-0.8,0.4-1.1,0.8c-0.3,0.3-0.5,0.7-0.7,1.1c-0.2,0.4-0.3,0.9-0.4,1.3c-0.1,0.5-0.2,0.9-0.2,1.4
			C-223.8-48-223.9-47.5-223.9-47z"/>
	</g>
	<g transform="translate(399.5417,143.25)">
		<path class="st3" d="M-235.4-59.9l1.6-4.6l0,0l1.6,4.6H-235.4z M-235.1-67.5l-4.7,12.5h2.8l1-2.8h4.7l0.9,2.8h2.8l-4.7-12.5
			H-235.1z"/>
	</g>
	<g>
		<line class="st4" x1="268.8" y1="63.9" x2="289.8" y2="63.9"/>
		<line class="st4" x1="268.8" y1="81.3" x2="289.8" y2="81.3"/>
		<line class="st4" x1="268.8" y1="98.8" x2="289.8" y2="98.8"/>
		<line class="st4" x1="268.8" y1="116.3" x2="289.8" y2="116.3"/>
		<path class="st6" d="M296.8,39.4V20.2h-131v19.2"/>
	</g>
	<g>
		<path d="M222.6,20.2l5.8,1.3l2.9,0.4l2.9,0.9l2.9,2.6V15l-2.9,2.6l-2.9,0.9l-2.9,0.4L222.6,20.2z"/>
	</g>
	<g>
		<path class="st5" d="M237.1,25.5l-2.9-2.6l-2.9-0.9l-2.9-0.4l-5.8-1.3l5.8-1.3l2.9-0.4l2.9-0.9l2.9-2.6V25.5"/>
	</g>
	<g transform="translate(399.5417,588.9167)">
		<path class="st3" d="M-228.5-261v-7.8h-2.7v7.8c0,0.9-0.2,1.6-0.6,2.1c-0.4,0.4-1,0.7-2,0.7c-0.6,0-1-0.1-1.3-0.2
			c-0.3-0.2-0.6-0.4-0.8-0.6c-0.2-0.3-0.3-0.5-0.4-0.9c-0.1-0.3-0.1-0.7-0.1-1v-7.8h-2.7v7.8c0,1.7,0.5,3,1.4,3.8s2.2,1.2,3.9,1.2
			s3-0.4,3.9-1.2C-229-258.1-228.5-259.3-228.5-261z"/>
	</g>
	<g transform="translate(431.375,588.9167)">
		<path class="st3" d="M-249.8-261.1l1.6-4.6l0,0l1.6,4.6H-249.8z M-249.5-268.8l-4.7,12.5h2.8l1-2.8h4.7l0.9,2.8h2.8l-4.7-12.5
			H-249.5z"/>
	</g>
	<g transform="translate(574.625,525.25)">
		<path class="st8" d="M-309.4-229l0.3,1.4h1.7v-6.7h-5.2v2h2.8c-0.1,0.9-0.4,1.5-0.9,2s-1.2,0.7-2.1,0.7c-0.6,0-1.1-0.1-1.6-0.4
			s-0.8-0.6-1-1c-0.3-0.4-0.5-0.8-0.6-1.3s-0.2-1-0.2-1.5s0.1-1.1,0.2-1.6s0.3-1,0.6-1.4c0.3-0.4,0.6-0.7,1-1c0.4-0.2,1-0.4,1.6-0.4
			c0.7,0,1.2,0.2,1.7,0.5s0.8,0.9,0.9,1.6h2.6c-0.1-0.7-0.3-1.3-0.6-1.9c-0.3-0.5-0.7-1-1.2-1.4s-1-0.7-1.6-0.8
			c-0.6-0.2-1.2-0.3-1.9-0.3c-1,0-1.8,0.2-2.6,0.5s-1.4,0.8-1.9,1.4s-0.9,1.3-1.2,2.1c-0.3,0.8-0.4,1.7-0.4,2.6
			c0,0.9,0.1,1.8,0.4,2.5c0.3,0.8,0.7,1.5,1.2,2.1s1.2,1,1.9,1.4c0.8,0.3,1.6,0.5,2.6,0.5c0.6,0,1.2-0.1,1.8-0.4
			C-310.5-227.9-309.9-228.3-309.4-229z"/>
	</g>
	<g transform="translate(574.625,557.0833)">
		<path class="st8" d="M-307.6-246.6v-7.8h-2.7v7.8c0,0.9-0.2,1.6-0.6,2.1c-0.4,0.4-1,0.7-2,0.7c-0.6,0-1-0.1-1.3-0.2
			c-0.3-0.2-0.6-0.4-0.8-0.6c-0.2-0.3-0.3-0.5-0.4-0.9c-0.1-0.3-0.1-0.7-0.1-1v-7.8h-2.7v7.8c0,1.7,0.5,3,1.4,3.8s2.2,1.2,3.9,1.2
			c1.7,0,3-0.4,3.9-1.2C-308-243.7-307.6-244.9-307.6-246.6z"/>
	</g>
	<g transform="translate(574.625,588.9167)">
		<path class="st8" d="M-309.4-257.7l0.3,1.4h1.7v-6.7h-5.2v2h2.8c-0.1,0.9-0.4,1.5-0.9,2s-1.2,0.7-2.1,0.7c-0.6,0-1.1-0.1-1.6-0.4
			c-0.4-0.2-0.8-0.6-1-1c-0.3-0.4-0.5-0.8-0.6-1.3s-0.2-1-0.2-1.5s0.1-1.1,0.2-1.6s0.3-1,0.6-1.4c0.3-0.4,0.6-0.7,1-1s1-0.4,1.6-0.4
			c0.7,0,1.2,0.2,1.7,0.5s0.8,0.9,0.9,1.6h2.6c-0.1-0.7-0.3-1.3-0.6-1.9c-0.3-0.5-0.7-1-1.2-1.4s-1-0.7-1.6-0.8
			c-0.6-0.2-1.2-0.3-1.9-0.3c-1,0-1.8,0.2-2.6,0.5s-1.4,0.8-1.9,1.4s-0.9,1.3-1.2,2.1c-0.3,0.8-0.4,1.7-0.4,2.6s0.1,1.8,0.4,2.5
			c0.3,0.8,0.7,1.5,1.2,2.1s1.2,1,1.9,1.4c0.8,0.3,1.6,0.5,2.6,0.5c0.6,0,1.2-0.1,1.8-0.4C-310.5-256.6-309.9-257.1-309.4-257.7z"/>
	</g>
	<g transform="translate(574.625,620.75)">
		<path class="st8" d="M-309.4-272.1l0.3,1.4h1.7v-6.7h-5.2v2h2.8c-0.1,0.9-0.4,1.5-0.9,2s-1.2,0.7-2.1,0.7c-0.6,0-1.1-0.1-1.6-0.4
			s-0.8-0.6-1-1c-0.3-0.4-0.5-0.8-0.6-1.3s-0.2-1-0.2-1.5s0.1-1.1,0.2-1.6s0.3-1,0.6-1.4c0.3-0.4,0.6-0.7,1-1s1-0.4,1.6-0.4
			c0.7,0,1.2,0.2,1.7,0.5s0.8,0.9,0.9,1.6h2.6c-0.1-0.7-0.3-1.3-0.6-1.9c-0.3-0.5-0.7-1-1.2-1.4s-1-0.7-1.6-0.8
			c-0.6-0.2-1.2-0.3-1.9-0.3c-1,0-1.8,0.2-2.6,0.5s-1.4,0.8-1.9,1.4s-0.9,1.3-1.2,2.1c-0.3,0.8-0.4,1.7-0.4,2.6s0.1,1.8,0.4,2.5
			c0.3,0.8,0.7,1.5,1.2,2.1s1.2,1,1.9,1.4c0.8,0.3,1.6,0.5,2.6,0.5c0.6,0,1.2-0.1,1.8-0.4C-310.5-271-309.9-271.5-309.4-272.1z"/>
	</g>
	<g transform="translate(558.7083,652.5833)">
		<path class="st3" d="M-302.2-286.5l0.3,1.4h1.7v-6.7h-5.2v2h2.8c-0.1,0.9-0.4,1.5-0.9,2s-1.2,0.7-2.1,0.7c-0.6,0-1.1-0.1-1.6-0.4
			c-0.4-0.2-0.8-0.6-1-1c-0.3-0.4-0.5-0.8-0.6-1.3s-0.2-1-0.2-1.5s0.1-1.1,0.2-1.6s0.3-1,0.6-1.4c0.3-0.4,0.6-0.7,1-1
			c0.4-0.2,1-0.4,1.6-0.4c0.7,0,1.2,0.2,1.7,0.5s0.8,0.9,0.9,1.6h2.6c-0.1-0.7-0.3-1.3-0.6-1.9c-0.3-0.5-0.7-1-1.2-1.4
			s-1-0.7-1.6-0.8c-0.6-0.2-1.2-0.3-1.9-0.3c-1,0-1.8,0.2-2.6,0.5c-0.8,0.3-1.4,0.8-1.9,1.4s-0.9,1.3-1.2,2.1
			c-0.3,0.8-0.4,1.7-0.4,2.6s0.1,1.8,0.4,2.5c0.3,0.8,0.7,1.5,1.2,2.1s1.2,1,1.9,1.4c0.8,0.3,1.6,0.5,2.6,0.5c0.6,0,1.2-0.1,1.8-0.4
			C-303.3-285.4-302.7-285.8-302.2-286.5z"/>
	</g>
	<g transform="translate(590.5417,684.4167)">
		<path class="st3" d="M-321.7-304.2l1.6-4.6l0,0l1.6,4.6H-321.7z M-321.4-311.9l-4.7,12.5h2.8l1-2.8h4.7l0.9,2.8h2.8l-4.7-12.5
			H-321.4z"/>
	</g>
	<g transform="translate(630.3333,684.4167)">
		<path class="st3" d="M-339.6-304.2l1.6-4.6l0,0l1.6,4.6H-339.6z M-339.4-311.9l-4.7,12.5h2.8l1-2.8h4.7l0.9,2.8h2.8l-4.7-12.5
			H-339.4z"/>
	</g>
	<g transform="translate(654.2083,652.5833)">
		<path class="st3" d="M-350.4-289.9l1.6-4.6l0,0l1.6,4.6H-350.4z M-350.1-297.5l-4.7,12.5h2.8l1-2.8h4.7l0.9,2.8h2.8l-4.7-12.5
			H-350.1z"/>
	</g>
	<g>
		<line class="st4" x1="317.1" y1="360.7" x2="328.8" y2="360.7"/>
	</g>
	<g transform="translate(696.6528,652.5833)">
		<path d="M-364.1-292.4v1.3c0.3,0,0.6-0.1,0.9-0.1c0.4,0,0.7,0,1,0.1s0.6,0.3,0.8,0.5c0.2,0.2,0.4,0.5,0.6,0.8
			c0.1,0.3,0.2,0.6,0.2,1s-0.1,0.7-0.2,1s-0.3,0.5-0.6,0.8c-0.2,0.2-0.5,0.4-0.9,0.5s-0.7,0.2-1,0.2c-0.8,0-1.5-0.3-1.9-0.8
			s-0.7-1.2-0.7-2h-1.5c0,0.6,0.1,1.2,0.3,1.7c0.2,0.5,0.5,0.9,0.8,1.3c0.4,0.3,0.8,0.6,1.3,0.8s1.1,0.3,1.7,0.3s1.1-0.1,1.6-0.2
			c0.5-0.2,1-0.4,1.4-0.7s0.7-0.7,0.9-1.2c0.2-0.5,0.3-1,0.3-1.6c0-0.7-0.2-1.4-0.5-1.9s-0.9-0.9-1.7-1.1l0,0c0.5-0.2,0.9-0.5,1.2-1
			c0.3-0.4,0.5-0.9,0.5-1.5s-0.1-1.1-0.3-1.5c-0.2-0.4-0.5-0.8-0.8-1c-0.3-0.3-0.7-0.5-1.2-0.6s-1-0.2-1.5-0.2
			c-0.6,0-1.2,0.1-1.6,0.3c-0.5,0.2-0.9,0.5-1.2,0.8s-0.6,0.8-0.7,1.3c-0.2,0.5-0.3,1-0.3,1.6h1.5c0-0.4,0-0.7,0.1-1
			s0.2-0.6,0.4-0.9c0.2-0.2,0.4-0.4,0.7-0.6c0.3-0.1,0.6-0.2,1-0.2c0.6,0,1.2,0.2,1.6,0.5s0.6,0.8,0.6,1.5c0,0.3-0.1,0.6-0.2,0.9
			s-0.3,0.5-0.5,0.6s-0.5,0.3-0.8,0.4s-0.6,0.1-0.9,0.1h-0.3c-0.1,0-0.1,0-0.2,0C-364-292.4-364-292.4-364.1-292.4z M-355.9-291.4
			c0-0.3,0-0.6,0-1s0-0.7,0.1-1.1s0.1-0.7,0.2-1.1c0.1-0.3,0.2-0.7,0.4-0.9c0.2-0.3,0.4-0.5,0.7-0.6c0.3-0.2,0.6-0.2,1.1-0.2
			s0.8,0.1,1.1,0.2c0.3,0.2,0.5,0.4,0.7,0.6c0.2,0.3,0.3,0.6,0.4,0.9s0.2,0.7,0.2,1.1c0.1,0.4,0.1,0.7,0.1,1.1s0,0.7,0,1
			c0,0.5,0,1,0,1.6s-0.1,1.1-0.3,1.6c-0.2,0.5-0.4,0.9-0.8,1.3s-0.8,0.5-1.5,0.5s-1.1-0.2-1.5-0.5s-0.6-0.8-0.8-1.3
			c-0.2-0.5-0.3-1-0.3-1.6C-355.9-290.4-355.9-290.9-355.9-291.4z M-357.4-291.4c0,0.5,0,0.9,0,1.4s0.1,1,0.2,1.4
			c0.1,0.5,0.2,0.9,0.4,1.3c0.2,0.4,0.4,0.8,0.7,1.1c0.3,0.3,0.7,0.6,1.1,0.7c0.5,0.2,1,0.3,1.6,0.3c0.7,0,1.2-0.1,1.7-0.3
			c0.5-0.2,0.8-0.4,1.1-0.7c0.3-0.3,0.5-0.7,0.7-1.1s0.3-0.9,0.4-1.3s0.2-0.9,0.2-1.4s0-1,0-1.4c0-0.5,0-0.9,0-1.4s-0.1-1-0.2-1.4
			c-0.1-0.5-0.2-0.9-0.4-1.3s-0.4-0.8-0.7-1.1c-0.3-0.3-0.7-0.6-1.1-0.8c-0.5-0.2-1-0.3-1.6-0.3s-1.2,0.1-1.6,0.3
			c-0.5,0.2-0.8,0.4-1.1,0.8c-0.3,0.3-0.5,0.7-0.7,1.1s-0.3,0.9-0.4,1.3c-0.1,0.5-0.2,0.9-0.2,1.4
			C-357.4-292.3-357.4-291.8-357.4-291.4z"/>
	</g>
	<g transform="translate(638.2917,620.75)">
		<path class="st8" d="M-338.6-278.9h2.7c-0.1-0.7-0.3-1.4-0.6-1.9c-0.3-0.6-0.7-1-1.2-1.4s-1-0.7-1.6-0.9c-0.6-0.2-1.3-0.3-1.9-0.3
			c-1,0-1.8,0.2-2.6,0.5c-0.8,0.3-1.4,0.8-1.9,1.4s-0.9,1.3-1.2,2.1c-0.3,0.8-0.4,1.7-0.4,2.6s0.1,1.8,0.4,2.5
			c0.3,0.8,0.7,1.5,1.2,2.1s1.2,1,1.9,1.4c0.8,0.3,1.6,0.5,2.6,0.5c0.8,0,1.5-0.1,2.1-0.3c0.6-0.2,1.2-0.6,1.7-1s0.9-1,1.2-1.6
			c0.3-0.6,0.5-1.3,0.5-2.1h-2.7c-0.1,0.8-0.4,1.5-0.9,2s-1.1,0.8-2,0.8c-0.6,0-1.1-0.1-1.6-0.4c-0.4-0.2-0.8-0.6-1-1
			c-0.3-0.4-0.5-0.8-0.6-1.3s-0.2-1-0.2-1.5s0.1-1.1,0.2-1.6s0.3-1,0.6-1.4c0.3-0.4,0.6-0.7,1-1c0.4-0.2,1-0.4,1.6-0.4
			c0.3,0,0.7,0.1,1,0.2s0.6,0.3,0.8,0.5c0.2,0.2,0.4,0.4,0.6,0.7C-338.7-279.5-338.6-279.3-338.6-278.9z"/>
	</g>
	<g transform="translate(638.2917,588.9167)">
		<path class="st8" d="M-338.6-264.6h2.7c-0.1-0.7-0.3-1.4-0.6-1.9c-0.3-0.6-0.7-1-1.2-1.4s-1-0.7-1.6-0.9c-0.6-0.2-1.3-0.3-1.9-0.3
			c-1,0-1.8,0.2-2.6,0.5c-0.8,0.3-1.4,0.8-1.9,1.4s-0.9,1.3-1.2,2.1c-0.3,0.8-0.4,1.7-0.4,2.6s0.1,1.8,0.4,2.5
			c0.3,0.8,0.7,1.5,1.2,2.1s1.2,1,1.9,1.4c0.8,0.3,1.6,0.5,2.6,0.5c0.8,0,1.5-0.1,2.1-0.3c0.6-0.2,1.2-0.6,1.7-1s0.9-1,1.2-1.6
			c0.3-0.6,0.5-1.3,0.5-2.1h-2.7c-0.1,0.8-0.4,1.5-0.9,2s-1.1,0.8-2,0.8c-0.6,0-1.1-0.1-1.6-0.4c-0.4-0.2-0.8-0.6-1-1
			c-0.3-0.4-0.5-0.8-0.6-1.3s-0.2-1-0.2-1.5s0.1-1.1,0.2-1.6s0.3-1,0.6-1.4c0.3-0.4,0.6-0.7,1-1c0.4-0.2,1-0.4,1.6-0.4
			c0.3,0,0.7,0.1,1,0.2s0.6,0.3,0.8,0.5c0.2,0.2,0.4,0.4,0.6,0.7C-338.7-265.2-338.6-264.9-338.6-264.6z"/>
	</g>
	<g transform="translate(638.2917,557.0833)">
		<path class="st8" d="M-343.2-246.7l1.6-4.6l0,0l1.6,4.6H-343.2z M-343-254.4l-4.7,12.5h2.8l1-2.8h4.7l0.9,2.8h2.8l-4.7-12.5H-343z
			"/>
	</g>
	<g transform="translate(638.2917,525.25)">
		<path class="st8" d="M-338.6-235.8h2.7c-0.1-0.7-0.3-1.4-0.6-1.9c-0.3-0.6-0.7-1-1.2-1.4s-1-0.7-1.6-0.9s-1.3-0.3-1.9-0.3
			c-1,0-1.8,0.2-2.6,0.5c-0.8,0.3-1.4,0.8-1.9,1.4s-0.9,1.3-1.2,2.1c-0.3,0.8-0.4,1.7-0.4,2.6c0,0.9,0.1,1.8,0.4,2.5
			c0.3,0.8,0.7,1.5,1.2,2.1s1.2,1,1.9,1.4c0.8,0.3,1.6,0.5,2.6,0.5c0.8,0,1.5-0.1,2.1-0.3s1.2-0.6,1.7-1s0.9-1,1.2-1.6
			c0.3-0.6,0.5-1.3,0.5-2.1h-2.7c-0.1,0.8-0.4,1.5-0.9,2s-1.1,0.8-2,0.8c-0.6,0-1.1-0.1-1.6-0.4c-0.4-0.2-0.8-0.6-1-1
			c-0.3-0.4-0.5-0.8-0.6-1.3s-0.2-1-0.2-1.5s0.1-1.1,0.2-1.6s0.3-1,0.6-1.4c0.3-0.4,0.6-0.7,1-1c0.4-0.2,1-0.4,1.6-0.4
			c0.3,0,0.7,0.1,1,0.2c0.3,0.1,0.6,0.3,0.8,0.5c0.2,0.2,0.4,0.4,0.6,0.7C-338.7-236.4-338.6-236.1-338.6-235.8z"/>
	</g>
	<g transform="translate(638.2917,493.4167)">
		<path class="st3" d="M-338.2-214.6l0.3,1.4h1.7v-6.7h-5.2v2h2.8c-0.1,0.9-0.4,1.5-0.9,2s-1.2,0.7-2.1,0.7c-0.6,0-1.1-0.1-1.6-0.4
			c-0.4-0.2-0.8-0.6-1-1c-0.3-0.4-0.5-0.8-0.6-1.3s-0.2-1-0.2-1.5s0.1-1.1,0.2-1.6s0.3-1,0.6-1.4c0.3-0.4,0.6-0.7,1-1
			c0.4-0.2,1-0.4,1.6-0.4c0.7,0,1.2,0.2,1.7,0.5s0.8,0.9,0.9,1.6h2.6c-0.1-0.7-0.3-1.3-0.6-1.9c-0.3-0.5-0.7-1-1.2-1.4
			s-1-0.7-1.6-0.8c-0.6-0.2-1.2-0.3-1.9-0.3c-1,0-1.8,0.2-2.6,0.5c-0.8,0.3-1.4,0.8-1.9,1.4c-0.5,0.6-0.9,1.3-1.2,2.1
			c-0.3,0.8-0.4,1.7-0.4,2.6c0,0.9,0.1,1.8,0.4,2.5c0.3,0.8,0.7,1.5,1.2,2.1s1.2,1,1.9,1.4c0.8,0.3,1.6,0.5,2.6,0.5
			c0.6,0,1.2-0.1,1.8-0.4C-339.2-213.5-338.7-214-338.2-214.6z"/>
	</g>
	<g transform="translate(638.2917,461.5833)">
		<path class="st1" d="M-336.3-203.5v-7.8h-2.7v7.8c0,0.9-0.2,1.6-0.6,2.1c-0.4,0.4-1,0.7-2,0.7c-0.6,0-1-0.1-1.3-0.2
			c-0.3-0.2-0.6-0.4-0.8-0.6c-0.2-0.3-0.3-0.5-0.4-0.9c-0.1-0.3-0.1-0.7-0.1-1v-7.8h-2.7v7.8c0,1.7,0.5,3,1.4,3.8s2.2,1.2,3.9,1.2
			c1.7,0,3-0.4,3.9-1.2C-336.8-200.6-336.3-201.8-336.3-203.5z"/>
	</g>
	<g>
		<path class="st6" d="M190.3,325.8H240v-34.9h14.8"/>
	</g>
	<g>
		<path d="M238.7,305.4l-0.4,2.9l-0.9,2.9l-2.6,2.9h10.5l-2.6-2.9l-0.9-2.9l-0.4-2.9l-1.3-5.8L238.7,305.4z"/>
	</g>
	<g>
		<path class="st5" d="M234.8,314.1l2.6-2.9l0.9-2.9l0.4-2.9l1.3-5.8l1.3,5.8l0.4,2.9l0.9,2.9l2.6,2.9H234.8"/>
		<line class="st4" x1="268.8" y1="290.9" x2="289.8" y2="290.9"/>
		<line class="st4" x1="268.8" y1="308.3" x2="289.8" y2="308.3"/>
		<line class="st4" x1="268.8" y1="325.8" x2="289.8" y2="325.8"/>
		<line class="st4" x1="268.8" y1="343.2" x2="289.8" y2="343.2"/>
	</g>
	<g transform="translate(399.5417,175.0833)">
		<path class="st3" d="M-235.4-74.2l1.6-4.6l0,0l1.6,4.6H-235.4z M-235.1-81.9l-4.7,12.5h2.8l1-2.8h4.7l0.9,2.8h2.8l-4.7-12.5
			H-235.1z"/>
	</g>
	<g transform="translate(399.5417,206.9167)">
		<path class="st3" d="M-235.4-88.6l1.6-4.6l0,0l1.6,4.6H-235.4z M-235.1-96.3l-4.7,12.5h2.8l1-2.8h4.7l0.9,2.8h2.8l-4.7-12.5
			H-235.1z"/>
	</g>
	<g transform="translate(399.5417,238.75)">
		<path class="st3" d="M-235.4-103l1.6-4.6l0,0l1.6,4.6H-235.4z M-235.1-110.6l-4.7,12.5h2.8l1-2.8h4.7l0.9,2.8h2.8l-4.7-12.5
			H-235.1z"/>
	</g>
	<g transform="translate(399.5417,270.5833)">
		<path class="st3" d="M-235.4-117.4l1.6-4.6l0,0l1.6,4.6H-235.4z M-235.1-125l-4.7,12.5h2.8l1-2.8h4.7l0.9,2.8h2.8l-4.7-12.5
			H-235.1z"/>
	</g>
	<g transform="translate(399.5417,302.4167)">
		<path class="st9" d="M-230.4-128.3l0.3,1.4h1.7v-6.7h-5.2v2h2.8c-0.1,0.9-0.4,1.5-0.9,2s-1.2,0.7-2.1,0.7c-0.6,0-1.1-0.1-1.6-0.4
			c-0.4-0.2-0.8-0.6-1-1c-0.3-0.4-0.5-0.8-0.6-1.3s-0.2-1-0.2-1.5s0.1-1.1,0.2-1.6c0.1-0.5,0.3-1,0.6-1.4s0.6-0.7,1-1
			c0.4-0.2,1-0.4,1.6-0.4c0.7,0,1.2,0.2,1.7,0.5s0.8,0.9,0.9,1.6h2.6c-0.1-0.7-0.3-1.3-0.6-1.9c-0.3-0.5-0.7-1-1.2-1.4
			s-1-0.7-1.6-0.8c-0.6-0.2-1.2-0.3-1.9-0.3c-1,0-1.8,0.2-2.6,0.5s-1.4,0.8-1.9,1.4c-0.5,0.6-0.9,1.3-1.2,2.1s-0.4,1.7-0.4,2.6
			c0,0.9,0.1,1.8,0.4,2.5c0.3,0.8,0.7,1.5,1.2,2.1c0.5,0.6,1.2,1,1.9,1.4c0.8,0.3,1.6,0.5,2.6,0.5c0.6,0,1.2-0.1,1.8-0.4
			C-231.4-127.3-230.8-127.7-230.4-128.3z"/>
	</g>
	<g transform="translate(399.5417,334.25)">
		<path class="st9" d="M-230.8-149.6h2.7c-0.1-0.7-0.3-1.4-0.6-1.9c-0.3-0.6-0.7-1-1.2-1.4s-1-0.7-1.6-0.9s-1.3-0.3-1.9-0.3
			c-1,0-1.8,0.2-2.6,0.5s-1.4,0.8-1.9,1.4c-0.5,0.6-0.9,1.3-1.2,2.1s-0.4,1.7-0.4,2.6c0,0.9,0.1,1.8,0.4,2.5
			c0.3,0.8,0.7,1.5,1.2,2.1s1.2,1,1.9,1.4c0.8,0.3,1.6,0.5,2.6,0.5c0.8,0,1.5-0.1,2.1-0.3s1.2-0.6,1.7-1s0.9-1,1.2-1.6
			s0.5-1.3,0.5-2.1h-2.7c-0.1,0.8-0.4,1.5-0.9,2s-1.1,0.8-2,0.8c-0.6,0-1.1-0.1-1.6-0.4c-0.4-0.2-0.8-0.6-1-1
			c-0.3-0.4-0.5-0.8-0.6-1.3s-0.2-1-0.2-1.5s0.1-1.1,0.2-1.6c0.1-0.5,0.3-1,0.6-1.4s0.6-0.7,1-1c0.4-0.2,1-0.4,1.6-0.4
			c0.3,0,0.7,0.1,1,0.2c0.3,0.1,0.6,0.3,0.8,0.5s0.4,0.4,0.6,0.7C-230.9-150.2-230.8-149.9-230.8-149.6z"/>
	</g>
	<g transform="translate(399.5417,366.0833)">
		<path class="st9" d="M-230.8-163.9h2.7c-0.1-0.7-0.3-1.4-0.6-1.9c-0.3-0.6-0.7-1-1.2-1.4s-1-0.7-1.6-0.9s-1.3-0.3-1.9-0.3
			c-1,0-1.8,0.2-2.6,0.5s-1.4,0.8-1.9,1.4c-0.5,0.6-0.9,1.3-1.2,2.1s-0.4,1.7-0.4,2.6c0,0.9,0.1,1.8,0.4,2.5
			c0.3,0.8,0.7,1.5,1.2,2.1s1.2,1,1.9,1.4c0.8,0.3,1.6,0.5,2.6,0.5c0.8,0,1.5-0.1,2.1-0.3s1.2-0.6,1.7-1s0.9-1,1.2-1.6
			s0.5-1.3,0.5-2.1h-2.7c-0.1,0.8-0.4,1.5-0.9,2s-1.1,0.8-2,0.8c-0.6,0-1.1-0.1-1.6-0.4c-0.4-0.2-0.8-0.6-1-1
			c-0.3-0.4-0.5-0.8-0.6-1.3s-0.2-1-0.2-1.5s0.1-1.1,0.2-1.6c0.1-0.5,0.3-1,0.6-1.4s0.6-0.7,1-1c0.4-0.2,1-0.4,1.6-0.4
			c0.3,0,0.7,0.1,1,0.2c0.3,0.1,0.6,0.3,0.8,0.5s0.4,0.4,0.6,0.7C-230.9-164.5-230.8-164.3-230.8-163.9z"/>
	</g>
	<g transform="translate(367.7083,397.9167)">
		<path class="st3" d="M-216-171.5l0.3,1.4h1.7v-6.7h-5.2v2h2.8c-0.1,0.9-0.4,1.5-0.9,2s-1.2,0.7-2.1,0.7c-0.6,0-1.1-0.1-1.6-0.4
			c-0.4-0.2-0.8-0.6-1-1c-0.3-0.4-0.5-0.8-0.6-1.3s-0.2-1-0.2-1.5s0.1-1.1,0.2-1.6c0.1-0.5,0.3-1,0.6-1.4s0.6-0.7,1-1
			c0.4-0.2,1-0.4,1.6-0.4c0.7,0,1.2,0.2,1.7,0.5s0.8,0.9,0.9,1.6h2.6c-0.1-0.7-0.3-1.3-0.6-1.9c-0.3-0.5-0.7-1-1.2-1.4
			s-1-0.7-1.6-0.8c-0.6-0.2-1.2-0.3-1.9-0.3c-1,0-1.8,0.2-2.6,0.5s-1.4,0.8-1.9,1.4c-0.5,0.6-0.9,1.3-1.2,2.1s-0.4,1.7-0.4,2.6
			c0,0.9,0.1,1.8,0.4,2.5c0.3,0.8,0.7,1.5,1.2,2.1s1.2,1,1.9,1.4c0.8,0.3,1.6,0.5,2.6,0.5c0.6,0,1.2-0.1,1.8-0.4
			C-217-170.4-216.5-170.8-216-171.5z"/>
	</g>
	<g transform="translate(463.2083,397.9167)">
		<path class="st3" d="M-259.1-171.5l0.3,1.4h1.7v-6.7h-5.2v2h2.8c-0.1,0.9-0.4,1.5-0.9,2s-1.2,0.7-2.1,0.7c-0.6,0-1.1-0.1-1.6-0.4
			c-0.4-0.2-0.8-0.6-1-1c-0.3-0.4-0.5-0.8-0.6-1.3s-0.2-1-0.2-1.5s0.1-1.1,0.2-1.6s0.3-1,0.6-1.4c0.3-0.4,0.6-0.7,1-1
			c0.4-0.2,1-0.4,1.6-0.4c0.7,0,1.2,0.2,1.7,0.5s0.8,0.9,0.9,1.6h2.6c-0.1-0.7-0.3-1.3-0.6-1.9c-0.3-0.5-0.7-1-1.2-1.4
			s-1-0.7-1.6-0.8c-0.6-0.2-1.2-0.3-1.9-0.3c-1,0-1.8,0.2-2.6,0.5c-0.8,0.3-1.4,0.8-1.9,1.4s-0.9,1.3-1.2,2.1
			c-0.3,0.8-0.4,1.7-0.4,2.6c0,0.9,0.1,1.8,0.4,2.5c0.3,0.8,0.7,1.5,1.2,2.1s1.2,1,1.9,1.4c0.8,0.3,1.6,0.5,2.6,0.5
			c0.6,0,1.2-0.1,1.8-0.4C-260.1-170.4-259.6-170.8-259.1-171.5z"/>
	</g>
	<g transform="translate(463.2083,366.0833)">
		<path class="st9" d="M-259.1-157.1l0.3,1.4h1.7v-6.7h-5.2v2h2.8c-0.1,0.9-0.4,1.5-0.9,2s-1.2,0.7-2.1,0.7c-0.6,0-1.1-0.1-1.6-0.4
			c-0.4-0.2-0.8-0.6-1-1c-0.3-0.4-0.5-0.8-0.6-1.3s-0.2-1-0.2-1.5s0.1-1.1,0.2-1.6s0.3-1,0.6-1.4c0.3-0.4,0.6-0.7,1-1
			c0.4-0.2,1-0.4,1.6-0.4c0.7,0,1.2,0.2,1.7,0.5s0.8,0.9,0.9,1.6h2.6c-0.1-0.7-0.3-1.3-0.6-1.9c-0.3-0.5-0.7-1-1.2-1.4
			s-1-0.7-1.6-0.8c-0.6-0.2-1.2-0.3-1.9-0.3c-1,0-1.8,0.2-2.6,0.5c-0.8,0.3-1.4,0.8-1.9,1.4c-0.5,0.6-0.9,1.3-1.2,2.1
			c-0.3,0.8-0.4,1.7-0.4,2.6c0,0.9,0.1,1.8,0.4,2.5c0.3,0.8,0.7,1.5,1.2,2.1s1.2,1,1.9,1.4c0.8,0.3,1.6,0.5,2.6,0.5
			c0.6,0,1.2-0.1,1.8-0.4S-259.6-156.5-259.1-157.1z"/>
	</g>
	<g transform="translate(463.2083,334.25)">
		<path class="st9" d="M-259.1-142.7l0.3,1.4h1.7v-6.7h-5.2v2h2.8c-0.1,0.9-0.4,1.5-0.9,2s-1.2,0.7-2.1,0.7c-0.6,0-1.1-0.1-1.6-0.4
			c-0.4-0.2-0.8-0.6-1-1c-0.3-0.4-0.5-0.8-0.6-1.3s-0.2-1-0.2-1.5s0.1-1.1,0.2-1.6s0.3-1,0.6-1.4c0.3-0.4,0.6-0.7,1-1
			c0.4-0.2,1-0.4,1.6-0.4c0.7,0,1.2,0.2,1.7,0.5s0.8,0.9,0.9,1.6h2.6c-0.1-0.7-0.3-1.3-0.6-1.9c-0.3-0.5-0.7-1-1.2-1.4
			s-1-0.7-1.6-0.8c-0.6-0.2-1.2-0.3-1.9-0.3c-1,0-1.8,0.2-2.6,0.5c-0.8,0.3-1.4,0.8-1.9,1.4s-0.9,1.3-1.2,2.1
			c-0.3,0.8-0.4,1.7-0.4,2.6c0,0.9,0.1,1.8,0.4,2.5c0.3,0.8,0.7,1.5,1.2,2.1s1.2,1,1.9,1.4c0.8,0.3,1.6,0.5,2.6,0.5
			c0.6,0,1.2-0.1,1.8-0.4C-260.1-141.6-259.6-142.1-259.1-142.7z"/>
	</g>
	<g transform="translate(463.2083,302.4167)">
		<path class="st9" d="M-259.5-135.2h2.7c-0.1-0.7-0.3-1.4-0.6-1.9c-0.3-0.6-0.7-1-1.2-1.4s-1-0.7-1.6-0.9s-1.3-0.3-1.9-0.3
			c-1,0-1.8,0.2-2.6,0.5c-0.8,0.3-1.4,0.8-1.9,1.4c-0.5,0.6-0.9,1.3-1.2,2.1c-0.3,0.8-0.4,1.7-0.4,2.6c0,0.9,0.1,1.8,0.4,2.5
			c0.3,0.8,0.7,1.5,1.2,2.1c0.5,0.6,1.2,1,1.9,1.4c0.8,0.3,1.6,0.5,2.6,0.5c0.8,0,1.5-0.1,2.1-0.3c0.6-0.2,1.2-0.6,1.7-1
			s0.9-1,1.2-1.6c0.3-0.6,0.5-1.3,0.5-2.1h-2.7c-0.1,0.8-0.4,1.5-0.9,2s-1.1,0.8-2,0.8c-0.6,0-1.1-0.1-1.6-0.4c-0.4-0.2-0.8-0.6-1-1
			c-0.3-0.4-0.5-0.8-0.6-1.3s-0.2-1-0.2-1.5s0.1-1.1,0.2-1.6s0.3-1,0.6-1.4c0.3-0.4,0.6-0.7,1-1c0.4-0.2,1-0.4,1.6-0.4
			c0.3,0,0.7,0.1,1,0.2c0.3,0.1,0.6,0.3,0.8,0.5c0.2,0.2,0.4,0.4,0.6,0.7C-259.7-135.8-259.6-135.5-259.5-135.2z"/>
	</g>
	<g>
		<line class="st4" x1="212.4" y1="168.6" x2="224" y2="168.6"/>
	</g>
	<g transform="translate(505.6528,302.4167)">
		<path d="M-272.7-138.1v-1.3h-8v1.4h6.5c-0.7,0.7-1.3,1.4-1.8,2.3c-0.6,0.8-1.1,1.7-1.5,2.6c-0.4,0.9-0.8,1.9-1.1,2.9
			c-0.3,1-0.4,2-0.5,3.1h1.7c0.1-1,0.2-2,0.5-3s0.6-2,1-3s0.9-1.9,1.5-2.7C-274-136.7-273.4-137.5-272.7-138.1z M-269.6-133.3
			c0-0.3,0-0.6,0-1s0-0.7,0.1-1.1c0.1-0.4,0.1-0.7,0.2-1.1c0.1-0.3,0.2-0.7,0.4-0.9c0.2-0.3,0.4-0.5,0.7-0.6
			c0.3-0.2,0.6-0.2,1.1-0.2s0.8,0.1,1.1,0.2c0.3,0.2,0.5,0.4,0.7,0.6c0.2,0.3,0.3,0.6,0.4,0.9c0.1,0.3,0.2,0.7,0.2,1.1
			c0.1,0.4,0.1,0.7,0.1,1.1c0,0.4,0,0.7,0,1c0,0.5,0,1,0,1.6s-0.1,1.1-0.3,1.6c-0.2,0.5-0.4,0.9-0.8,1.3s-0.8,0.5-1.5,0.5
			s-1.1-0.2-1.5-0.5s-0.6-0.8-0.8-1.3c-0.2-0.5-0.3-1-0.3-1.6C-269.6-132.3-269.6-132.8-269.6-133.3z M-271.2-133.3
			c0,0.5,0,0.9,0,1.4s0.1,1,0.2,1.4c0.1,0.5,0.2,0.9,0.4,1.3c0.2,0.4,0.4,0.8,0.7,1.1c0.3,0.3,0.7,0.6,1.1,0.7
			c0.5,0.2,1,0.3,1.6,0.3c0.7,0,1.2-0.1,1.7-0.3c0.5-0.2,0.8-0.4,1.1-0.7c0.3-0.3,0.5-0.7,0.7-1.1c0.2-0.4,0.3-0.9,0.4-1.3
			c0.1-0.5,0.2-0.9,0.2-1.4s0-1,0-1.4s0-0.9,0-1.4s-0.1-1-0.2-1.4c-0.1-0.5-0.2-0.9-0.4-1.3s-0.4-0.8-0.7-1.1
			c-0.3-0.3-0.7-0.6-1.1-0.8c-0.5-0.2-1-0.3-1.6-0.3s-1.2,0.1-1.6,0.3c-0.5,0.2-0.8,0.4-1.1,0.8c-0.3,0.3-0.5,0.7-0.7,1.1
			c-0.2,0.4-0.3,0.9-0.4,1.3c-0.1,0.5-0.2,0.9-0.2,1.4C-271.2-134.2-271.2-133.7-271.2-133.3z"/>
	</g>
	<g transform="translate(463.2083,270.5833)">
		<path class="st3" d="M-264.2-117.4l1.6-4.6l0,0l1.6,4.6H-264.2z M-263.9-125l-4.7,12.5h2.8l1-2.8h4.7l0.9,2.8h2.8l-4.7-12.5
			H-263.9z"/>
	</g>
	<g transform="translate(463.2083,238.75)">
		<path class="st3" d="M-257.3-102.9v-7.8h-2.7v7.8c0,0.9-0.2,1.6-0.6,2.1c-0.4,0.4-1,0.7-2,0.7c-0.6,0-1-0.1-1.3-0.2
			c-0.3-0.2-0.6-0.4-0.8-0.6c-0.2-0.3-0.3-0.5-0.4-0.9c-0.1-0.3-0.1-0.7-0.1-1v-7.8h-2.7v7.8c0,1.7,0.5,3,1.4,3.8s2.2,1.2,3.9,1.2
			c1.7,0,3-0.4,3.9-1.2C-257.7-99.9-257.3-101.2-257.3-102.9z"/>
	</g>
	<g transform="translate(463.2083,206.9167)">
		<path class="st3" d="M-259.5-92.1h2.7c-0.1-0.7-0.3-1.4-0.6-1.9c-0.3-0.6-0.7-1-1.2-1.4s-1-0.7-1.6-0.9c-0.6-0.2-1.3-0.3-1.9-0.3
			c-1,0-1.8,0.2-2.6,0.5s-1.4,0.8-1.9,1.4s-0.9,1.3-1.2,2.1c-0.3,0.8-0.4,1.7-0.4,2.6s0.1,1.8,0.4,2.5c0.3,0.8,0.7,1.5,1.2,2.1
			s1.2,1,1.9,1.4c0.8,0.3,1.6,0.5,2.6,0.5c0.8,0,1.5-0.1,2.1-0.3c0.6-0.2,1.2-0.6,1.7-1s0.9-1,1.2-1.6c0.3-0.6,0.5-1.3,0.5-2.1h-2.7
			c-0.1,0.8-0.4,1.5-0.9,2s-1.1,0.8-2,0.8c-0.6,0-1.1-0.1-1.6-0.4s-0.8-0.6-1-1c-0.3-0.4-0.5-0.8-0.6-1.3s-0.2-1-0.2-1.5
			s0.1-1.1,0.2-1.6s0.3-1,0.6-1.4c0.3-0.4,0.6-0.7,1-1s1-0.4,1.6-0.4c0.3,0,0.7,0.1,1,0.2s0.6,0.3,0.8,0.5c0.2,0.2,0.4,0.4,0.6,0.7
			C-259.7-92.7-259.6-92.4-259.5-92.1z"/>
	</g>
	<g>
		<line class="st4" x1="172.8" y1="168.6" x2="193.8" y2="168.6"/>
		<line class="st4" x1="172.8" y1="186.1" x2="193.8" y2="186.1"/>
		<line class="st4" x1="172.8" y1="203.6" x2="193.8" y2="203.6"/>
	</g>
	<g transform="translate(574.625,270.5833)">
		<path class="st1" d="M-309.8-120.8h2.7c-0.1-0.7-0.3-1.4-0.6-1.9c-0.3-0.6-0.7-1-1.2-1.4s-1-0.7-1.6-0.9c-0.6-0.2-1.3-0.3-1.9-0.3
			c-1,0-1.8,0.2-2.6,0.5c-0.8,0.3-1.4,0.8-1.9,1.4s-0.9,1.3-1.2,2.1c-0.3,0.8-0.4,1.7-0.4,2.6s0.1,1.8,0.4,2.5
			c0.3,0.8,0.7,1.5,1.2,2.1s1.2,1,1.9,1.4c0.8,0.3,1.6,0.5,2.6,0.5c0.8,0,1.5-0.1,2.1-0.3c0.6-0.2,1.2-0.6,1.7-1s0.9-1,1.2-1.6
			c0.3-0.6,0.5-1.3,0.5-2.1h-2.7c-0.1,0.8-0.4,1.5-0.9,2s-1.1,0.8-2,0.8c-0.6,0-1.1-0.1-1.6-0.4c-0.4-0.2-0.8-0.6-1-1
			c-0.3-0.4-0.5-0.8-0.6-1.3s-0.2-1-0.2-1.5s0.1-1.1,0.2-1.6s0.3-1,0.6-1.4c0.3-0.4,0.6-0.7,1-1c0.4-0.2,1-0.4,1.6-0.4
			c0.3,0,0.7,0.1,1,0.2s0.6,0.3,0.8,0.5c0.2,0.2,0.4,0.4,0.6,0.7C-310-121.4-309.9-121.1-309.8-120.8z"/>
	</g>
	<g transform="translate(574.625,302.4167)">
		<path class="st1" d="M-314.5-131.7l1.6-4.6l0,0l1.6,4.6H-314.5z M-314.2-139.4l-4.7,12.5h2.8l1-2.8h4.7l0.9,2.8h2.8l-4.7-12.5
			H-314.2z"/>
	</g>
	<g transform="translate(574.625,334.25)">
		<path class="st1" d="M-309.4-142.7l0.3,1.4h1.7v-6.7h-5.2v2h2.8c-0.1,0.9-0.4,1.5-0.9,2s-1.2,0.7-2.1,0.7c-0.6,0-1.1-0.1-1.6-0.4
			c-0.4-0.2-0.8-0.6-1-1c-0.3-0.4-0.5-0.8-0.6-1.3s-0.2-1-0.2-1.5s0.1-1.1,0.2-1.6s0.3-1,0.6-1.4c0.3-0.4,0.6-0.7,1-1s1-0.4,1.6-0.4
			c0.7,0,1.2,0.2,1.7,0.5s0.8,0.9,0.9,1.6h2.6c-0.1-0.7-0.3-1.3-0.6-1.9c-0.3-0.5-0.7-1-1.2-1.4s-1-0.7-1.6-0.8
			c-0.6-0.2-1.2-0.3-1.9-0.3c-1,0-1.8,0.2-2.6,0.5s-1.4,0.8-1.9,1.4s-0.9,1.3-1.2,2.1c-0.3,0.8-0.4,1.7-0.4,2.6
			c0,0.9,0.1,1.8,0.4,2.5c0.3,0.8,0.7,1.5,1.2,2.1s1.2,1,1.9,1.4c0.8,0.3,1.6,0.5,2.6,0.5c0.6,0,1.2-0.1,1.8-0.4
			C-310.5-141.6-309.9-142.1-309.4-142.7z"/>
	</g>
	<g transform="translate(574.625,366.0833)">
		<path class="st1" d="M-309.4-157.1l0.3,1.4h1.7v-6.7h-5.2v2h2.8c-0.1,0.9-0.4,1.5-0.9,2s-1.2,0.7-2.1,0.7c-0.6,0-1.1-0.1-1.6-0.4
			c-0.4-0.2-0.8-0.6-1-1c-0.3-0.4-0.5-0.8-0.6-1.3s-0.2-1-0.2-1.5s0.1-1.1,0.2-1.6s0.3-1,0.6-1.4c0.3-0.4,0.6-0.7,1-1
			c0.4-0.2,1-0.4,1.6-0.4c0.7,0,1.2,0.2,1.7,0.5s0.8,0.9,0.9,1.6h2.6c-0.1-0.7-0.3-1.3-0.6-1.9c-0.3-0.5-0.7-1-1.2-1.4
			s-1-0.7-1.6-0.8c-0.6-0.2-1.2-0.3-1.9-0.3c-1,0-1.8,0.2-2.6,0.5c-0.8,0.3-1.4,0.8-1.9,1.4c-0.5,0.6-0.9,1.3-1.2,2.1
			c-0.3,0.8-0.4,1.7-0.4,2.6c0,0.9,0.1,1.8,0.4,2.5c0.3,0.8,0.7,1.5,1.2,2.1s1.2,1,1.9,1.4c0.8,0.3,1.6,0.5,2.6,0.5
			c0.6,0,1.2-0.1,1.8-0.4C-310.5-156-309.9-156.5-309.4-157.1z"/>
	</g>
	<g>
		<line class="st4" x1="250.2" y1="203.6" x2="238.6" y2="203.6"/>
	</g>
	<g transform="translate(532.1805,366.0833)">
		<path d="M-307.1-155.9v-12.4h-1.1c-0.1,0.5-0.2,0.8-0.5,1.2c-0.2,0.3-0.5,0.5-0.8,0.7s-0.7,0.3-1.1,0.4c-0.4,0.1-0.8,0.1-1.2,0.1
			v1.2h3.2v8.9L-307.1-155.9L-307.1-155.9z M-301.3-162c0-0.3,0-0.6,0-1s0-0.7,0.1-1.1c0.1-0.4,0.1-0.7,0.2-1.1
			c0.1-0.3,0.2-0.7,0.4-0.9c0.2-0.3,0.4-0.5,0.7-0.6c0.3-0.2,0.6-0.2,1.1-0.2c0.4,0,0.8,0.1,1.1,0.2c0.3,0.2,0.5,0.4,0.7,0.6
			c0.2,0.3,0.3,0.6,0.4,0.9c0.1,0.3,0.2,0.7,0.2,1.1c0.1,0.4,0.1,0.7,0.1,1.1c0,0.4,0,0.7,0,1c0,0.5,0,1,0,1.6s-0.1,1.1-0.3,1.6
			c-0.2,0.5-0.4,0.9-0.8,1.3s-0.8,0.5-1.5,0.5c-0.6,0-1.1-0.2-1.5-0.5s-0.6-0.8-0.8-1.3c-0.2-0.5-0.3-1-0.3-1.6
			C-301.3-161.1-301.3-161.6-301.3-162z M-302.9-162c0,0.5,0,0.9,0,1.4s0.1,1,0.2,1.4c0.1,0.5,0.2,0.9,0.4,1.3
			c0.2,0.4,0.4,0.8,0.7,1.1c0.3,0.3,0.7,0.6,1.1,0.7c0.5,0.2,1,0.3,1.6,0.3c0.7,0,1.2-0.1,1.7-0.3s0.8-0.4,1.1-0.7
			c0.3-0.3,0.5-0.7,0.7-1.1c0.2-0.4,0.3-0.9,0.4-1.3c0.1-0.5,0.2-0.9,0.2-1.4s0-1,0-1.4s0-0.9,0-1.4s-0.1-1-0.2-1.4
			c-0.1-0.5-0.2-0.9-0.4-1.3c-0.2-0.4-0.4-0.8-0.7-1.1c-0.3-0.3-0.7-0.6-1.1-0.8c-0.5-0.2-1-0.3-1.6-0.3s-1.2,0.1-1.6,0.3
			c-0.5,0.2-0.8,0.4-1.1,0.8c-0.3,0.3-0.5,0.7-0.7,1.1c-0.2,0.4-0.3,0.9-0.4,1.3c-0.1,0.5-0.2,0.9-0.2,1.4S-302.9-162.5-302.9-162z"
			/>
	</g>
	<g transform="translate(574.625,397.9167)">
		<path class="st1" d="M-314.5-174.9l1.6-4.6l0,0l1.6,4.6H-314.5z M-314.2-182.5l-4.7,12.5h2.8l1-2.8h4.7l0.9,2.8h2.8l-4.7-12.5
			H-314.2z"/>
	</g>
	<g transform="translate(638.2917,429.75)">
		<path class="st1" d="M-338.2-185.8l0.3,1.4h1.7v-6.7h-5.2v2h2.8c-0.1,0.9-0.4,1.5-0.9,2s-1.2,0.7-2.1,0.7c-0.6,0-1.1-0.1-1.6-0.4
			c-0.4-0.2-0.8-0.6-1-1c-0.3-0.4-0.5-0.8-0.6-1.3s-0.2-1-0.2-1.5s0.1-1.1,0.2-1.6s0.3-1,0.6-1.4c0.3-0.4,0.6-0.7,1-1
			c0.4-0.2,1-0.4,1.6-0.4c0.7,0,1.2,0.2,1.7,0.5s0.8,0.9,0.9,1.6h2.6c-0.1-0.7-0.3-1.3-0.6-1.9c-0.3-0.5-0.7-1-1.2-1.4
			s-1-0.7-1.6-0.8c-0.6-0.2-1.2-0.3-1.9-0.3c-1,0-1.8,0.2-2.6,0.5c-0.8,0.3-1.4,0.8-1.9,1.4c-0.5,0.6-0.9,1.3-1.2,2.1
			c-0.3,0.8-0.4,1.7-0.4,2.6c0,0.9,0.1,1.8,0.4,2.5c0.3,0.8,0.7,1.5,1.2,2.1s1.2,1,1.9,1.4c0.8,0.3,1.6,0.5,2.6,0.5
			c0.6,0,1.2-0.1,1.8-0.4C-339.2-184.8-338.7-185.2-338.2-185.8z"/>
	</g>
	<g transform="translate(638.2917,397.9167)">
		<path class="st1" d="M-338.2-171.5l0.3,1.4h1.7v-6.7h-5.2v2h2.8c-0.1,0.9-0.4,1.5-0.9,2s-1.2,0.7-2.1,0.7c-0.6,0-1.1-0.1-1.6-0.4
			c-0.4-0.2-0.8-0.6-1-1c-0.3-0.4-0.5-0.8-0.6-1.3s-0.2-1-0.2-1.5s0.1-1.1,0.2-1.6s0.3-1,0.6-1.4c0.3-0.4,0.6-0.7,1-1
			c0.4-0.2,1-0.4,1.6-0.4c0.7,0,1.2,0.2,1.7,0.5s0.8,0.9,0.9,1.6h2.6c-0.1-0.7-0.3-1.3-0.6-1.9c-0.3-0.5-0.7-1-1.2-1.4
			s-1-0.7-1.6-0.8c-0.6-0.2-1.2-0.3-1.9-0.3c-1,0-1.8,0.2-2.6,0.5c-0.8,0.3-1.4,0.8-1.9,1.4c-0.5,0.6-0.9,1.3-1.2,2.1
			c-0.3,0.8-0.4,1.7-0.4,2.6c0,0.9,0.1,1.8,0.4,2.5c0.3,0.8,0.7,1.5,1.2,2.1s1.2,1,1.9,1.4c0.8,0.3,1.6,0.5,2.6,0.5
			c0.6,0,1.2-0.1,1.8-0.4C-339.2-170.4-338.7-170.8-338.2-171.5z"/>
	</g>
	<g transform="translate(638.2917,366.0833)">
		<path class="st1" d="M-343.2-160.5l1.6-4.6l0,0l1.6,4.6H-343.2z M-343-168.1l-4.7,12.5h2.8l1-2.8h4.7l0.9,2.8h2.8l-4.7-12.5H-343z
			"/>
	</g>
	<g transform="translate(638.2917,334.25)">
		<path class="st1" d="M-338.6-149.6h2.7c-0.1-0.7-0.3-1.4-0.6-1.9c-0.3-0.6-0.7-1-1.2-1.4s-1-0.7-1.6-0.9s-1.3-0.3-1.9-0.3
			c-1,0-1.8,0.2-2.6,0.5c-0.8,0.3-1.4,0.8-1.9,1.4s-0.9,1.3-1.2,2.1c-0.3,0.8-0.4,1.7-0.4,2.6c0,0.9,0.1,1.8,0.4,2.5
			c0.3,0.8,0.7,1.5,1.2,2.1s1.2,1,1.9,1.4c0.8,0.3,1.6,0.5,2.6,0.5c0.8,0,1.5-0.1,2.1-0.3s1.2-0.6,1.7-1s0.9-1,1.2-1.6
			c0.3-0.6,0.5-1.3,0.5-2.1h-2.7c-0.1,0.8-0.4,1.5-0.9,2s-1.1,0.8-2,0.8c-0.6,0-1.1-0.1-1.6-0.4c-0.4-0.2-0.8-0.6-1-1
			c-0.3-0.4-0.5-0.8-0.6-1.3s-0.2-1-0.2-1.5s0.1-1.1,0.2-1.6s0.3-1,0.6-1.4c0.3-0.4,0.6-0.7,1-1c0.4-0.2,1-0.4,1.6-0.4
			c0.3,0,0.7,0.1,1,0.2c0.3,0.1,0.6,0.3,0.8,0.5c0.2,0.2,0.4,0.4,0.6,0.7C-338.7-150.2-338.6-149.9-338.6-149.6z"/>
	</g>
	<g>
		<line class="st4" x1="308.4" y1="186.1" x2="320" y2="186.1"/>
	</g>
	<g transform="translate(680.7361,334.25)">
		<path d="M-354.8-145.8h-4.2l4.1-6.1l0,0v6.1H-354.8z M-353.4-145.8v-8.2h-1.2l-5.6,8v1.4h5.4v2.9h1.4v-2.9h1.7v-1.3h-1.7
			L-353.4-145.8L-353.4-145.8z M-348.7-147.7c0-0.3,0-0.6,0-1s0-0.7,0.1-1.1c0.1-0.4,0.1-0.7,0.2-1.1c0.1-0.3,0.2-0.7,0.4-0.9
			c0.2-0.3,0.4-0.5,0.7-0.6c0.3-0.2,0.6-0.2,1.1-0.2c0.4,0,0.8,0.1,1.1,0.2c0.3,0.2,0.5,0.4,0.7,0.6c0.2,0.3,0.3,0.6,0.4,0.9
			c0.1,0.3,0.2,0.7,0.2,1.1c0.1,0.4,0.1,0.7,0.1,1.1c0,0.4,0,0.7,0,1c0,0.5,0,1,0,1.6s-0.1,1.1-0.3,1.6c-0.2,0.5-0.4,0.9-0.8,1.3
			c-0.3,0.3-0.8,0.5-1.5,0.5c-0.6,0-1.1-0.2-1.5-0.5c-0.3-0.3-0.6-0.8-0.8-1.3c-0.2-0.5-0.3-1-0.3-1.6
			C-348.7-146.7-348.7-147.2-348.7-147.7z M-350.3-147.6c0,0.5,0,0.9,0,1.4s0.1,1,0.2,1.4c0.1,0.5,0.2,0.9,0.4,1.3
			c0.2,0.4,0.4,0.8,0.7,1.1c0.3,0.3,0.7,0.6,1.1,0.7c0.5,0.2,1,0.3,1.6,0.3c0.7,0,1.2-0.1,1.7-0.3s0.8-0.4,1.1-0.7
			c0.3-0.3,0.5-0.7,0.7-1.1c0.2-0.4,0.3-0.9,0.4-1.3c0.1-0.5,0.2-0.9,0.2-1.4s0-1,0-1.4c0-0.5,0-0.9,0-1.4s-0.1-1-0.2-1.4
			c-0.1-0.5-0.2-0.9-0.4-1.3c-0.2-0.4-0.4-0.8-0.7-1.1c-0.3-0.3-0.7-0.6-1.1-0.8c-0.5-0.2-1-0.3-1.6-0.3s-1.2,0.1-1.6,0.3
			c-0.5,0.2-0.8,0.4-1.1,0.8c-0.3,0.3-0.5,0.7-0.7,1.1c-0.2,0.4-0.3,0.9-0.4,1.3c-0.1,0.5-0.2,0.9-0.2,1.4S-350.3-148.1-350.3-147.6
			z"/>
	</g>
	<g transform="translate(638.2917,302.4167)">
		<path class="st1" d="M-336.3-131.6v-7.8h-2.7v7.8c0,0.9-0.2,1.6-0.6,2.1c-0.4,0.4-1,0.7-2,0.7c-0.6,0-1-0.1-1.3-0.2
			c-0.3-0.2-0.6-0.4-0.8-0.6c-0.2-0.3-0.3-0.5-0.4-0.9c-0.1-0.3-0.1-0.7-0.1-1v-7.8h-2.7v7.8c0,1.7,0.5,3,1.4,3.8s2.2,1.2,3.9,1.2
			c1.7,0,3-0.4,3.9-1.2C-336.8-128.7-336.3-129.9-336.3-131.6z"/>
	</g>
	<g transform="translate(638.2917,270.5833)">
		<path class="st1" d="M-338.2-114l0.3,1.4h1.7v-6.7h-5.2v2h2.8c-0.1,0.9-0.4,1.5-0.9,2s-1.2,0.7-2.1,0.7c-0.6,0-1.1-0.1-1.6-0.4
			c-0.4-0.2-0.8-0.6-1-1c-0.3-0.4-0.5-0.8-0.6-1.3s-0.2-1-0.2-1.5s0.1-1.1,0.2-1.6s0.3-1,0.6-1.4c0.3-0.4,0.6-0.7,1-1
			c0.4-0.2,1-0.4,1.6-0.4c0.7,0,1.2,0.2,1.7,0.5s0.8,0.9,0.9,1.6h2.6c-0.1-0.7-0.3-1.3-0.6-1.9c-0.3-0.5-0.7-1-1.2-1.4
			s-1-0.7-1.6-0.8c-0.6-0.2-1.2-0.3-1.9-0.3c-1,0-1.8,0.2-2.6,0.5c-0.8,0.3-1.4,0.8-1.9,1.4s-0.9,1.3-1.2,2.1
			c-0.3,0.8-0.4,1.7-0.4,2.6s0.1,1.8,0.4,2.5c0.3,0.8,0.7,1.5,1.2,2.1s1.2,1,1.9,1.4c0.8,0.3,1.6,0.5,2.6,0.5c0.6,0,1.2-0.1,1.8-0.4
			S-338.7-113.3-338.2-114z"/>
	</g>
	<g>
		<line class="st4" x1="268.8" y1="151.2" x2="289.8" y2="151.2"/>
		<line class="st4" x1="268.8" y1="168.6" x2="289.8" y2="168.6"/>
		<line class="st4" x1="268.8" y1="186.1" x2="289.8" y2="186.1"/>
		<line class="st4" x1="268.8" y1="203.6" x2="289.8" y2="203.6"/>
	</g>
	<g>
		<path class="st7" d="M270.2,203.6l6.8,3.9v-7.9L270.2,203.6z"/>
	</g>
	<g>
		<path class="st5" d="M270.2,203.6l6.8,3.9v-7.9L270.2,203.6"/>
	</g>
	<g>
		<path class="st7" d="M287.3,200.1h-7v7h7V200.1z"/>
	</g>
	<g>
		<path class="st5" d="M287.3,200.1h-7v7h7V200.1"/>
		<line class="st4" x1="268.8" y1="221" x2="289.8" y2="221"/>
	</g>
	<g>
		<path class="st7" d="M271.3,224.5h7v-7h-7V224.5z"/>
	</g>
	<g>
		<path class="st5" d="M271.3,224.5h7v-7h-7V224.5"/>
	</g>
	<g>
		<path class="st7" d="M288.4,221l-6.8-3.9v7.9L288.4,221z"/>
	</g>
	<g>
		<path class="st5" d="M288.4,221l-6.8-3.9v7.9L288.4,221"/>
	</g>
</g>
<text transform="matrix(1 0 0 1 3.335 17.7973)" class="st10 st11">ZTP Riboswitch</text>
<text transform="matrix(1 0 0 1 119.9027 188.4709)" class="st9 st10 st11">P3</text>
<text transform="matrix(1 0 0 1 317.1334 153.216)" class="st1 st10 st11">P1</text>
<text transform="matrix(1 0 0 1 318.6736 327.8046)" class="st8 st10 st11">P2</text>
<text transform="matrix(1 0 0 1 215.9957 244.6088)" class="st12 st10 st13">ZMP</text>
<rect x="155.8" y="302.5" class="st14" width="43.8" height="21.4"/>
<text transform="matrix(1 0 0 1 155.791 313.2603)" class="st12 st10 st13">Mg</text>
<text transform="matrix(1 0 0 1 176.6282 308.265)" class="st12 st10 st15">2+</text>
<rect x="220.8" y="250.2" class="st14" width="43.8" height="21.4"/>
<text transform="matrix(1 0 0 1 220.3802 262.4497)" class="st12 st10 st13">Mg</text>
<text transform="matrix(1 0 0 1 241.626 255.9331)" class="st12 st10 st15">2+</text>
<text transform="matrix(1 0 0 1 9.5793 280.5266)" class="st2 st10 st11">Pseudoknot</text>
<text transform="matrix(1 0 0 1 240.0498 53.4833)" class="st10 st16">5&apos;</text>
<text transform="matrix(1 0 0 1 210.2667 123.1168)" class="st10 st16">3&apos;</text>
</svg>
