<svg id="图层_1" data-name="图层 1" xmlns="http://www.w3.org/2000/svg" viewBox="0 0 400 400"><defs><style>.cls-1,.cls-10,.cls-11,.cls-12,.cls-13,.cls-14,.cls-15,.cls-2,.cls-3,.cls-4,.cls-5,.cls-6{isolation:isolate;font-size:14.61px;}.cls-1,.cls-10,.cls-24,.cls-6{fill:#c2c2ff;}.cls-1,.cls-10,.cls-11,.cls-12,.cls-13,.cls-14,.cls-15,.cls-17,.cls-2,.cls-24,.cls-25,.cls-26,.cls-27,.cls-28,.cls-29,.cls-3,.cls-4,.cls-5,.cls-6{font-family:ArialMT, Arial;}.cls-2,.cls-27,.cls-3{fill:#09fefe;}.cls-14,.cls-3,.cls-4,.cls-6{letter-spacing:-0.06em;}.cls-26,.cls-4,.cls-5{fill:#ff870a;}.cls-16,.cls-18,.cls-19,.cls-22,.cls-7{fill:none;}.cls-16,.cls-18,.cls-19,.cls-7,.cls-8,.cls-9{stroke:#000;}.cls-16,.cls-18,.cls-19,.cls-22,.cls-23,.cls-7,.cls-8,.cls-9{stroke-miterlimit:1.14;}.cls-22,.cls-23,.cls-7,.cls-8,.cls-9{stroke-width:0.14px;}.cls-23,.cls-9{fill:#fff;}.cls-10,.cls-11,.cls-15{letter-spacing:-0.06em;}.cls-11,.cls-12,.cls-14,.cls-25{fill:#ffaadc;}.cls-13,.cls-15,.cls-28{fill:#80db9e;}.cls-16{stroke-width:1.34px;}.cls-17{font-size:9.38px;}.cls-18,.cls-19{stroke-width:0.14px;}.cls-19{stroke-dasharray:2.19 2.19;}.cls-20{letter-spacing:-0.04em;}.cls-21{fill:#ff0b0c;}.cls-22,.cls-23{stroke:#ff0b0c;}.cls-24,.cls-25,.cls-26,.cls-27,.cls-28{font-size:15px;}.cls-29{font-size:20px;}</style></defs><text class="cls-1" transform="translate(203.03 356.68)">G</text><text class="cls-1" transform="translate(203.03 342.25)">G</text><text class="cls-1" transform="translate(203.03 327.83)">G</text><text class="cls-1" transform="translate(203.43 313.4)">U</text><text class="cls-1" transform="translate(203.03 298.97)">G</text><text class="cls-2" transform="translate(199.83 262.91)">U</text><text class="cls-3" transform="translate(200.23 244.87)">A</text><text class="cls-4" transform="translate(243.51 262.91)">A</text><text class="cls-5" transform="translate(235.89 280.94)">C</text><text class="cls-1" transform="translate(232.29 298.97)">C</text><text class="cls-6" transform="translate(232.69 313.4)">A</text><text class="cls-1" transform="translate(232.29 327.83)">C</text><text class="cls-1" transform="translate(232.29 342.25)">C</text><text class="cls-1" transform="translate(232.29 356.68)">C</text><text class="cls-6" transform="translate(232.69 371.11)">A</text><text class="cls-1" transform="translate(231.88 385.53)">G</text><line class="cls-7" x1="214.48" y1="350.19" x2="231.79" y2="350.19"/><line class="cls-7" x1="214.48" y1="335.76" x2="231.79" y2="335.76"/><line class="cls-7" x1="214.48" y1="321.33" x2="231.79" y2="321.33"/><line class="cls-7" x1="214.48" y1="306.91" x2="231.79" y2="306.91"/><line class="cls-7" x1="214.48" y1="292.48" x2="231.79" y2="292.48"/><line class="cls-7" x1="199.33" y1="256.41" x2="171.2" y2="256.41"/><polygon class="cls-8" points="182.38 256.41 182.39 256.6 182.4 256.78 182.43 256.96 182.47 257.14 182.53 257.31 182.59 257.49 182.66 257.65 182.75 257.82 182.84 257.97 182.94 258.13 183.06 258.27 183.18 258.4 183.31 258.53 183.45 258.65 183.59 258.76 183.75 258.87 183.9 258.96 184.07 259.04 184.24 259.11 184.41 259.17 184.59 259.22 184.77 259.26 184.95 259.28 185.13 259.3 185.31 259.3 185.5 259.29 185.68 259.27 185.86 259.24 186.04 259.19 186.21 259.14 186.38 259.07 186.55 259 186.71 258.91 186.87 258.82 187.01 258.71 187.16 258.59 187.29 258.47 187.42 258.34 187.53 258.2 187.64 258.05 187.74 257.9 187.83 257.74 187.91 257.57 187.98 257.4 188.03 257.23 188.08 257.05 188.12 256.87 188.14 256.69 188.15 256.51 188.15 256.32 188.14 256.14 188.12 255.96 188.08 255.78 188.03 255.6 187.98 255.43 187.91 255.26 187.83 255.09 187.74 254.93 187.64 254.78 187.53 254.63 187.42 254.49 187.29 254.36 187.16 254.23 187.01 254.12 186.87 254.01 186.71 253.91 186.55 253.83 186.38 253.75 186.21 253.69 186.04 253.63 185.86 253.59 185.68 253.56 185.5 253.54 185.31 253.53 185.13 253.53 184.95 253.55 184.77 253.57 184.59 253.61 184.41 253.66 184.24 253.72 184.07 253.79 183.9 253.87 183.75 253.96 183.59 254.06 183.45 254.18 183.31 254.29 183.18 254.42 183.06 254.56 182.94 254.7 182.84 254.85 182.75 255.01 182.66 255.17 182.59 255.34 182.53 255.51 182.47 255.69 182.43 255.87 182.4 256.05 182.39 256.23 182.38 256.41"/><polyline class="cls-7" points="200.3 241.58 194.28 245.59 169.04 245.59 147.4 245.59 141.38 241.58"/><polygon class="cls-9" points="188.3 245.59 188.29 245.41 188.27 245.23 188.24 245.05 188.2 244.87 188.15 244.69 188.09 244.52 188.02 244.35 187.93 244.19 187.84 244.03 187.73 243.88 187.62 243.74 187.5 243.6 187.37 243.47 187.23 243.35 187.08 243.24 186.93 243.14 186.77 243.05 186.61 242.97 186.44 242.9 186.27 242.84 186.09 242.79 185.91 242.75 185.73 242.73 185.55 242.71 185.37 242.71 185.18 242.72 185 242.74 184.82 242.77 184.64 242.81 184.47 242.87 184.3 242.93 184.13 243.01 183.97 243.09 183.81 243.19 183.66 243.3 183.52 243.41 183.39 243.54 183.26 243.67 183.14 243.81 183.03 243.96 182.94 244.11 182.85 244.27 182.77 244.44 182.7 244.61 182.64 244.78 182.6 244.96 182.56 245.14 182.54 245.32 182.53 245.5 182.53 245.69 182.54 245.87 182.56 246.05 182.6 246.23 182.64 246.41 182.7 246.58 182.77 246.75 182.85 246.92 182.94 247.08 183.03 247.23 183.14 247.38 183.26 247.52 183.39 247.65 183.52 247.78 183.66 247.89 183.81 248 183.97 248.09 184.13 248.18 184.3 248.25 184.47 248.32 184.64 248.38 184.82 248.42 185 248.45 185.18 248.47 185.37 248.48 185.55 248.48 185.73 248.46 185.91 248.44 186.09 248.4 186.27 248.35 186.44 248.29 186.61 248.22 186.77 248.14 186.93 248.04 187.08 247.94 187.23 247.83 187.37 247.71 187.5 247.59 187.62 247.45 187.73 247.31 187.84 247.15 187.93 247 188.02 246.83 188.09 246.67 188.15 246.49 188.2 246.32 188.24 246.14 188.27 245.96 188.29 245.78 188.3 245.59"/><polygon class="cls-9" points="174.16 245.59 179.78 248.84 179.78 242.35 174.16 245.59"/><polyline class="cls-7" points="243.22 256.24 233.96 251.61 208.71 251.61 179.86 251.61 170.59 256.24"/><polygon class="cls-8" points="219.46 254.85 219.46 248.36 213.83 251.61 219.46 254.85"/><polygon class="cls-8" points="227.96 251.43 227.95 251.24 227.92 251.06 227.88 250.88 227.83 250.71 227.76 250.54 227.69 250.37 227.61 250.21 227.51 250.05 227.41 249.9 227.29 249.75 227.17 249.62 227.04 249.49 226.9 249.37 226.76 249.26 226.61 249.16 226.45 249.06 226.28 248.98 226.11 248.91 225.94 248.85 225.76 248.8 225.59 248.77 225.4 248.74 225.22 248.73 225.04 248.72 224.86 248.73 224.67 248.75 224.49 248.78 224.31 248.83 224.14 248.88 223.97 248.95 223.8 249.02 223.64 249.11 223.49 249.21 223.34 249.31 223.19 249.43 223.06 249.55 222.93 249.68 222.82 249.82 222.71 249.97 222.61 250.13 222.52 250.29 222.44 250.45 222.37 250.62 222.32 250.79 222.27 250.97 222.24 251.15 222.21 251.33 222.2 251.52 222.2 251.7 222.21 251.88 222.24 252.06 222.27 252.24 222.32 252.42 222.37 252.59 222.44 252.76 222.52 252.93 222.61 253.09 222.71 253.24 222.82 253.39 222.93 253.53 223.06 253.66 223.19 253.79 223.34 253.9 223.49 254.01 223.64 254.11 223.8 254.19 223.97 254.27 224.14 254.34 224.31 254.39 224.49 254.43 224.67 254.46 224.86 254.49 225.04 254.49 225.22 254.49 225.4 254.48 225.59 254.45 225.76 254.41 225.94 254.36 226.11 254.3 226.28 254.23 226.45 254.15 226.61 254.06 226.76 253.96 226.9 253.85 227.04 253.73 227.17 253.6 227.29 253.46 227.41 253.32 227.51 253.17 227.61 253.01 227.69 252.85 227.76 252.68 227.83 252.51 227.88 252.33 227.92 252.15 227.95 251.97 227.96 251.79 227.97 251.61 227.96 251.43"/><polyline class="cls-7" points="169.51 296.56 172.64 299.69 201.5 299.69 226.74 299.69 232.76 295.68"/><polygon class="cls-8" points="180.43 299.69 180.44 299.88 180.46 300.06 180.49 300.24 180.53 300.42 180.58 300.6 180.64 300.77 180.71 300.94 180.8 301.1 180.89 301.25 181 301.4 181.11 301.55 181.23 301.69 181.36 301.81 181.5 301.93 181.65 302.05 181.8 302.15 181.96 302.24 182.12 302.32 182.29 302.39 182.46 302.45 182.64 302.5 182.82 302.54 183 302.56 183.18 302.58 183.37 302.58 183.55 302.57 183.73 302.55 183.91 302.52 184.09 302.48 184.26 302.42 184.43 302.36 184.6 302.28 184.76 302.19 184.92 302.1 185.07 301.99 185.21 301.88 185.34 301.75 185.47 301.62 185.59 301.48 185.7 301.33 185.79 301.18 185.88 301.02 185.96 300.85 186.03 300.68 186.09 300.51 186.13 300.33 186.17 300.15 186.19 299.97 186.2 299.79 186.2 299.6 186.19 299.42 186.17 299.24 186.13 299.06 186.09 298.88 186.03 298.71 185.96 298.54 185.88 298.37 185.79 298.21 185.7 298.06 185.59 297.91 185.47 297.77 185.34 297.64 185.21 297.51 185.07 297.4 184.92 297.29 184.76 297.19 184.6 297.11 184.43 297.03 184.26 296.97 184.09 296.91 183.91 296.87 183.73 296.84 183.55 296.82 183.37 296.81 183.18 296.81 183 296.83 182.82 296.85 182.64 296.89 182.46 296.94 182.29 297 182.12 297.07 181.96 297.15 181.8 297.24 181.65 297.34 181.5 297.45 181.36 297.57 181.23 297.7 181.11 297.84 181 297.98 180.89 298.13 180.8 298.29 180.71 298.45 180.64 298.62 180.58 298.79 180.53 298.97 180.49 299.15 180.46 299.33 180.44 299.51 180.43 299.69"/><polygon class="cls-8" points="194.57 299.69 188.95 296.45 188.95 302.94 194.57 299.69"/><polyline class="cls-7" points="147.4 298.25 147.4 314.12 226.74 314.12 232.76 310.11"/><polygon class="cls-8" points="180.43 314.12 180.44 314.3 180.46 314.49 180.49 314.67 180.53 314.85 180.58 315.02 180.64 315.19 180.71 315.36 180.8 315.52 180.89 315.68 181 315.83 181.11 315.98 181.23 316.11 181.36 316.24 181.5 316.36 181.65 316.47 181.8 316.57 181.96 316.66 182.12 316.75 182.29 316.82 182.46 316.88 182.64 316.93 182.82 316.96 183 316.99 183.18 317 183.37 317.01 183.55 317 183.73 316.98 183.91 316.94 184.09 316.9 184.26 316.85 184.43 316.78 184.6 316.71 184.76 316.62 184.92 316.52 185.07 316.42 185.21 316.3 185.34 316.18 185.47 316.05 185.59 315.9 185.7 315.76 185.79 315.6 185.88 315.44 185.96 315.28 186.03 315.11 186.09 314.93 186.13 314.76 186.17 314.58 186.19 314.39 186.2 314.21 186.2 314.03 186.19 313.85 186.17 313.67 186.13 313.49 186.09 313.31 186.03 313.13 185.96 312.96 185.88 312.8 185.79 312.64 185.7 312.49 185.59 312.34 185.47 312.2 185.34 312.06 185.21 311.94 185.07 311.82 184.92 311.72 184.76 311.62 184.6 311.54 184.43 311.46 184.26 311.39 184.09 311.34 183.91 311.3 183.73 311.26 183.55 311.25 183.37 311.24 183.18 311.24 183 311.25 182.82 311.28 182.64 311.32 182.46 311.37 182.29 311.43 182.12 311.5 181.96 311.58 181.8 311.67 181.65 311.77 181.5 311.88 181.36 312 181.23 312.13 181.11 312.27 181 312.41 180.89 312.56 180.8 312.72 180.71 312.88 180.64 313.05 180.58 313.22 180.53 313.4 180.49 313.57 180.46 313.76 180.44 313.94 180.43 314.12"/><polygon class="cls-8" points="194.57 314.12 188.95 310.88 188.95 317.37 194.57 314.12"/><text class="cls-3" transform="translate(214.66 230.45)">A</text><text class="cls-1" transform="translate(131.3 216.02)">U</text><text class="cls-1" transform="translate(131.3 201.59)">C</text><text class="cls-1" transform="translate(131.3 187.17)">U</text><text class="cls-1" transform="translate(131.3 172.74)">C</text><text class="cls-1" transform="translate(131.3 158.31)">C</text><text class="cls-10" transform="translate(131.7 143.88)">A</text><text class="cls-10" transform="translate(131.7 129.46)">A</text><text class="cls-11" transform="translate(117.28 122.25)">A</text><text class="cls-11" transform="translate(128.1 115.03)">A</text><text class="cls-12" transform="translate(127.69 100.61)">U</text><text class="cls-1" transform="translate(160.15 129.46)">U</text><text class="cls-1" transform="translate(160.15 143.88)">U</text><text class="cls-1" transform="translate(159.75 158.31)">G</text><text class="cls-1" transform="translate(159.75 172.74)">G</text><text class="cls-1" transform="translate(159.75 187.17)">G</text><text class="cls-1" transform="translate(159.75 201.59)">G</text><text class="cls-10" transform="translate(160.56 216.02)">A</text><text class="cls-13" transform="translate(130.89 244.87)">G</text><text class="cls-13" transform="translate(131.3 262.91)">C</text><text class="cls-13" transform="translate(131.3 280.94)">C</text><text class="cls-13" transform="translate(142.12 298.97)">U</text><line class="cls-7" x1="225.3" y1="223.95" x2="242.61" y2="223.95"/><polygon class="cls-8" points="227.32 226.84 233.09 226.84 233.09 221.07 227.32 221.07 227.32 226.84"/><polygon class="cls-8" points="240.59 223.95 240.59 223.77 240.57 223.59 240.54 223.41 240.5 223.23 240.45 223.05 240.39 222.88 240.31 222.71 240.23 222.55 240.13 222.39 240.03 222.24 239.92 222.1 239.8 221.96 239.67 221.83 239.53 221.71 239.38 221.6 239.23 221.5 239.07 221.41 238.91 221.33 238.74 221.26 238.56 221.2 238.39 221.15 238.21 221.11 238.03 221.09 237.84 221.07 237.66 221.07 237.48 221.08 237.3 221.1 237.12 221.13 236.94 221.17 236.76 221.23 236.59 221.29 236.43 221.37 236.26 221.46 236.11 221.55 235.96 221.66 235.82 221.77 235.68 221.9 235.56 222.03 235.44 222.17 235.33 222.32 235.23 222.47 235.14 222.63 235.06 222.8 235 222.97 234.94 223.14 234.89 223.32 234.86 223.5 234.84 223.68 234.82 223.86 234.82 224.04 234.84 224.23 234.86 224.41 234.89 224.59 234.94 224.77 235 224.94 235.06 225.11 235.14 225.28 235.23 225.44 235.33 225.59 235.44 225.74 235.56 225.88 235.68 226.01 235.82 226.13 235.96 226.25 236.11 226.36 236.26 226.45 236.43 226.54 236.59 226.62 236.76 226.68 236.94 226.74 237.12 226.78 237.3 226.81 237.48 226.83 237.66 226.84 237.84 226.84 238.03 226.82 238.21 226.79 238.39 226.76 238.56 226.71 238.74 226.65 238.91 226.58 239.07 226.5 239.23 226.41 239.38 226.3 239.53 226.19 239.67 226.07 239.8 225.94 239.92 225.81 240.03 225.66 240.13 225.51 240.23 225.36 240.31 225.19 240.39 225.03 240.45 224.85 240.5 224.68 240.54 224.5 240.57 224.32 240.59 224.14 240.59 223.95"/><line class="cls-7" x1="142.35" y1="209.53" x2="159.66" y2="209.53"/><line class="cls-7" x1="142.35" y1="195.1" x2="159.66" y2="195.1"/><polygon class="cls-8" points="153.89 180.67 153.88 180.49 153.87 180.31 153.84 180.13 153.8 179.95 153.74 179.77 153.68 179.6 153.61 179.43 153.52 179.27 153.43 179.11 153.33 178.96 153.21 178.82 153.09 178.68 152.96 178.55 152.82 178.43 152.68 178.32 152.52 178.22 152.37 178.13 152.2 178.05 152.03 177.98 151.86 177.92 151.68 177.87 151.5 177.83 151.32 177.81 151.14 177.79 150.96 177.79 150.77 177.8 150.59 177.82 150.41 177.85 150.23 177.89 150.06 177.95 149.89 178.01 149.72 178.09 149.56 178.17 149.41 178.27 149.26 178.38 149.11 178.49 148.98 178.62 148.85 178.75 148.74 178.89 148.63 179.04 148.53 179.19 148.44 179.35 148.36 179.52 148.29 179.69 148.24 179.86 148.19 180.04 148.15 180.22 148.13 180.4 148.12 180.58 148.12 180.76 148.13 180.95 148.15 181.13 148.19 181.31 148.24 181.49 148.29 181.66 148.36 181.83 148.44 182 148.53 182.16 148.63 182.31 148.74 182.46 148.85 182.6 148.98 182.73 149.11 182.85 149.26 182.97 149.41 183.07 149.56 183.17 149.72 183.26 149.89 183.33 150.06 183.4 150.23 183.45 150.41 183.5 150.59 183.53 150.77 183.55 150.96 183.56 151.14 183.56 151.32 183.54 151.5 183.51 151.68 183.48 151.86 183.43 152.03 183.37 152.2 183.3 152.37 183.22 152.52 183.13 152.68 183.02 152.82 182.91 152.96 182.79 153.09 182.66 153.21 182.53 153.33 182.38 153.43 182.23 153.52 182.08 153.61 181.91 153.68 181.75 153.74 181.57 153.8 181.4 153.84 181.22 153.87 181.04 153.88 180.86 153.89 180.67"/><line class="cls-7" x1="142.35" y1="166.25" x2="159.66" y2="166.25"/><line class="cls-7" x1="142.35" y1="151.82" x2="159.66" y2="151.82"/><line class="cls-7" x1="142.35" y1="137.39" x2="159.66" y2="137.39"/><line class="cls-7" x1="142.35" y1="122.97" x2="159.66" y2="122.97"/><polyline class="cls-7" points="127.2 108.54 114.94 108.54 114.94 32.8 270.02 32.8 270.02 108.54 261.37 108.54"/><polygon class="cls-9" points="185.84 32.8 185.85 32.98 185.87 33.16 185.9 33.34 185.94 33.52 185.99 33.7 186.05 33.87 186.12 34.04 186.21 34.2 186.3 34.36 186.41 34.51 186.52 34.65 186.64 34.79 186.77 34.92 186.91 35.04 187.06 35.15 187.21 35.25 187.37 35.34 187.53 35.42 187.7 35.49 187.87 35.55 188.05 35.6 188.23 35.64 188.41 35.67 188.59 35.68 188.78 35.68 188.96 35.67 189.14 35.65 189.32 35.62 189.5 35.58 189.67 35.52 189.84 35.46 190.01 35.38 190.17 35.3 190.33 35.2 190.48 35.09 190.62 34.98 190.75 34.85 190.88 34.72 191 34.58 191.11 34.44 191.21 34.28 191.29 34.12 191.37 33.95 191.44 33.78 191.5 33.61 191.54 33.43 191.58 33.25 191.6 33.07 191.61 32.89 191.61 32.71 191.6 32.52 191.58 32.34 191.54 32.16 191.5 31.99 191.44 31.81 191.37 31.64 191.29 31.48 191.21 31.32 191.11 31.16 191 31.02 190.88 30.88 190.75 30.74 190.62 30.62 190.48 30.5 190.33 30.4 190.17 30.3 190.01 30.21 189.84 30.14 189.67 30.07 189.5 30.02 189.32 29.97 189.14 29.94 188.96 29.92 188.78 29.91 188.59 29.92 188.41 29.93 188.23 29.96 188.05 29.99 187.87 30.04 187.7 30.1 187.53 30.17 187.37 30.25 187.21 30.35 187.06 30.45 186.91 30.56 186.77 30.68 186.64 30.81 186.52 30.94 186.41 31.09 186.3 31.24 186.21 31.4 186.12 31.56 186.05 31.73 185.99 31.9 185.94 32.07 185.9 32.25 185.87 32.43 185.85 32.62 185.84 32.8"/><polygon class="cls-9" points="199.12 29.91 193.35 29.91 193.35 35.68 199.12 35.68 199.12 29.91"/><polyline class="cls-7" points="127.2 94.11 122.15 94.11 122.15 43.62 262.81 43.62 262.81 94.11 257.76 94.11"/><polygon class="cls-9" points="185.84 43.62 185.85 43.8 185.87 43.98 185.9 44.16 185.94 44.34 185.99 44.52 186.05 44.69 186.12 44.86 186.21 45.02 186.3 45.18 186.41 45.33 186.52 45.47 186.64 45.61 186.77 45.74 186.91 45.86 187.06 45.97 187.21 46.07 187.37 46.16 187.53 46.24 187.7 46.31 187.87 46.37 188.05 46.42 188.23 46.46 188.41 46.49 188.59 46.5 188.78 46.5 188.96 46.49 189.14 46.48 189.32 46.44 189.5 46.4 189.67 46.34 189.84 46.28 190.01 46.2 190.17 46.12 190.33 46.02 190.48 45.91 190.62 45.8 190.75 45.67 190.88 45.54 191 45.4 191.11 45.26 191.21 45.1 191.29 44.94 191.37 44.78 191.44 44.61 191.5 44.43 191.54 44.25 191.58 44.08 191.6 43.89 191.61 43.71 191.61 43.53 191.6 43.34 191.58 43.16 191.54 42.98 191.5 42.81 191.44 42.63 191.37 42.46 191.29 42.3 191.21 42.14 191.11 41.98 191 41.84 190.88 41.7 190.75 41.56 190.62 41.44 190.48 41.32 190.33 41.22 190.17 41.12 190.01 41.03 189.84 40.96 189.67 40.89 189.5 40.84 189.32 40.79 189.14 40.76 188.96 40.74 188.78 40.73 188.59 40.74 188.41 40.75 188.23 40.78 188.05 40.81 187.87 40.86 187.7 40.92 187.53 40.99 187.37 41.08 187.21 41.17 187.06 41.27 186.91 41.38 186.77 41.5 186.64 41.63 186.52 41.76 186.41 41.91 186.3 42.06 186.21 42.22 186.12 42.38 186.05 42.55 185.99 42.72 185.94 42.89 185.9 43.07 185.87 43.25 185.85 43.44 185.84 43.62"/><polygon class="cls-9" points="199.12 40.73 193.35 40.73 193.35 46.5 199.12 46.5 199.12 40.73"/><line class="cls-7" x1="142.35" y1="238.38" x2="159.66" y2="238.38"/><polygon class="cls-8" points="144.37 238.38 144.37 238.56 144.39 238.75 144.42 238.93 144.46 239.1 144.51 239.28 144.57 239.45 144.65 239.62 144.73 239.78 144.82 239.94 144.93 240.09 145.04 240.24 145.16 240.37 145.29 240.5 145.43 240.62 145.58 240.73 145.73 240.83 145.89 240.92 146.05 241 146.22 241.08 146.4 241.13 146.57 241.19 146.75 241.22 146.93 241.25 147.12 241.26 147.3 241.26 147.48 241.26 147.66 241.24 147.84 241.21 148.02 241.16 148.2 241.11 148.37 241.04 148.53 240.97 148.69 240.88 148.85 240.78 149 240.68 149.14 240.56 149.28 240.44 149.4 240.3 149.52 240.16 149.63 240.02 149.73 239.86 149.82 239.7 149.9 239.54 149.96 239.37 150.02 239.19 150.07 239.02 150.1 238.84 150.12 238.66 150.14 238.47 150.14 238.29 150.12 238.11 150.1 237.93 150.07 237.75 150.02 237.57 149.96 237.39 149.9 237.22 149.82 237.06 149.73 236.9 149.63 236.74 149.52 236.6 149.4 236.46 149.28 236.32 149.14 236.2 149 236.08 148.85 235.98 148.69 235.88 148.53 235.79 148.37 235.72 148.2 235.65 148.02 235.6 147.84 235.56 147.66 235.53 147.48 235.5 147.3 235.5 147.12 235.5 146.93 235.51 146.75 235.54 146.57 235.58 146.4 235.63 146.22 235.69 146.05 235.76 145.89 235.84 145.73 235.93 145.58 236.03 145.43 236.14 145.29 236.26 145.16 236.39 145.04 236.53 144.93 236.67 144.82 236.82 144.73 236.98 144.65 237.14 144.57 237.31 144.51 237.48 144.46 237.66 144.42 237.84 144.39 238.01 144.37 238.2 144.37 238.38"/><polygon class="cls-8" points="157.64 235.5 151.87 235.5 151.87 241.27 157.64 241.27 157.64 235.5"/><text class="cls-11" transform="translate(142.52 86.18)">A</text><text class="cls-12" transform="translate(160.15 86.18)">U</text><text class="cls-12" transform="translate(174.17 100.61)">G</text><text class="cls-12" transform="translate(174.17 115.03)">G</text><text class="cls-6" transform="translate(214.66 129.46)">A</text><text class="cls-12" transform="translate(203.43 115.03)">C</text><text class="cls-12" transform="translate(203.43 100.61)">C</text><text class="cls-12" transform="translate(206.63 86.18)">G</text><text class="cls-12" transform="translate(225.07 82.57)">U</text><text class="cls-14" transform="translate(239.9 82.57)">A</text><polyline class="cls-7" points="147.4 73.92 147.4 54.44 244.92 54.44 244.82 70.31"/><polygon class="cls-9" points="189.52 57.32 195.29 57.32 195.29 51.55 189.52 51.55 189.52 57.32"/><polygon class="cls-9" points="202.8 54.44 202.79 54.26 202.77 54.07 202.74 53.89 202.7 53.71 202.65 53.54 202.59 53.37 202.52 53.2 202.43 53.04 202.34 52.88 202.23 52.73 202.12 52.58 202 52.45 201.87 52.32 201.73 52.2 201.58 52.09 201.43 51.99 201.27 51.9 201.11 51.81 200.94 51.74 200.77 51.68 200.59 51.63 200.41 51.6 200.23 51.57 200.05 51.56 199.87 51.55 199.68 51.56 199.5 51.58 199.32 51.61 199.14 51.66 198.97 51.71 198.79 51.78 198.63 51.85 198.47 51.94 198.31 52.04 198.16 52.14 198.02 52.26 197.89 52.38 197.76 52.52 197.64 52.66 197.53 52.8 197.44 52.96 197.35 53.12 197.27 53.28 197.2 53.45 197.14 53.63 197.1 53.8 197.06 53.98 197.04 54.16 197.03 54.35 197.03 54.53 197.04 54.71 197.06 54.89 197.1 55.07 197.14 55.25 197.2 55.42 197.27 55.59 197.35 55.76 197.44 55.92 197.53 56.08 197.64 56.22 197.76 56.36 197.89 56.49 198.02 56.62 198.16 56.73 198.31 56.84 198.47 56.94 198.63 57.02 198.79 57.1 198.97 57.16 199.14 57.22 199.32 57.26 199.5 57.29 199.68 57.31 199.87 57.32 200.05 57.32 200.23 57.31 200.41 57.28 200.59 57.24 200.77 57.19 200.94 57.13 201.11 57.06 201.27 56.98 201.43 56.89 201.58 56.79 201.73 56.68 201.87 56.56 202 56.43 202.12 56.29 202.23 56.15 202.34 56 202.43 55.84 202.52 55.68 202.59 55.51 202.65 55.34 202.7 55.16 202.74 54.98 202.77 54.8 202.79 54.62 202.8 54.44"/><line class="cls-7" x1="185.63" y1="94.11" x2="202.94" y2="94.11"/><line class="cls-7" x1="185.63" y1="108.54" x2="202.94" y2="108.54"/><polyline class="cls-7" points="185.02 111.12 194.28 115.75 215.92 115.75 241.17 115.75 250.44 111.12"/><polygon class="cls-9" points="221.05 115.75 226.67 119 226.67 112.51 221.05 115.75"/><polygon class="cls-9" points="235.18 115.75 235.18 115.57 235.16 115.39 235.13 115.21 235.09 115.03 235.04 114.85 234.98 114.68 234.9 114.51 234.82 114.35 234.72 114.19 234.62 114.04 234.51 113.9 234.39 113.76 234.26 113.63 234.12 113.51 233.97 113.4 233.82 113.3 233.66 113.21 233.5 113.13 233.33 113.06 233.16 113 232.98 112.95 232.8 112.91 232.62 112.89 232.44 112.87 232.25 112.87 232.07 112.88 231.89 112.9 231.71 112.93 231.53 112.97 231.35 113.03 231.18 113.09 231.02 113.17 230.85 113.25 230.7 113.35 230.55 113.46 230.41 113.57 230.27 113.7 230.15 113.83 230.03 113.97 229.92 114.12 229.82 114.27 229.73 114.43 229.66 114.6 229.59 114.77 229.53 114.94 229.48 115.12 229.45 115.3 229.43 115.48 229.41 115.66 229.41 115.84 229.43 116.03 229.45 116.21 229.48 116.39 229.53 116.56 229.59 116.74 229.66 116.91 229.73 117.08 229.82 117.23 229.92 117.39 230.03 117.54 230.15 117.68 230.27 117.81 230.41 117.93 230.55 118.05 230.7 118.16 230.85 118.25 231.02 118.34 231.18 118.41 231.35 118.48 231.53 118.53 231.71 118.58 231.89 118.61 232.07 118.63 232.25 118.64 232.44 118.64 232.62 118.62 232.8 118.59 232.98 118.56 233.16 118.51 233.33 118.45 233.5 118.38 233.66 118.3 233.82 118.2 233.97 118.1 234.12 117.99 234.26 117.87 234.39 117.74 234.51 117.61 234.62 117.46 234.72 117.31 234.82 117.16 234.9 116.99 234.98 116.83 235.04 116.65 235.09 116.48 235.13 116.3 235.16 116.12 235.18 115.94 235.18 115.75"/><polyline class="cls-7" points="212.32 73.92 212.32 61.65 230.35 61.65 230.35 70.31"/><polygon class="cls-8" points="213.83 61.65 219.46 64.9 219.46 58.41 213.83 61.65"/><polygon class="cls-8" points="227.97 58.77 222.2 58.77 222.2 64.54 227.97 64.54 227.97 58.77"/><text class="cls-13" transform="translate(160.15 298.97)">C</text><text class="cls-13" transform="translate(160.15 280.94)">C</text><text class="cls-15" transform="translate(160.56 262.91)">A</text><text class="cls-13" transform="translate(160.15 244.87)">C</text><text class="cls-1" transform="translate(214.25 216.02)">C</text><text class="cls-6" transform="translate(214.66 201.59)">A</text><text class="cls-1" transform="translate(213.85 187.17)">G</text><text class="cls-1" transform="translate(214.25 172.74)">U</text><text class="cls-1" transform="translate(213.85 158.31)">G</text><text class="cls-6" transform="translate(214.66 143.88)">A</text><text class="cls-14" transform="translate(247.12 100.61)">A</text><text class="cls-14" transform="translate(250.72 115.03)">A</text><text class="cls-6" transform="translate(243.51 129.46)">A</text><text class="cls-1" transform="translate(243.11 143.88)">U</text><text class="cls-1" transform="translate(243.11 158.31)">C</text><text class="cls-1" transform="translate(242.7 172.74)">G</text><text class="cls-1" transform="translate(243.11 187.17)">C</text><text class="cls-1" transform="translate(243.11 201.59)">U</text><text class="cls-1" transform="translate(242.7 216.02)">G</text><text class="cls-5" transform="translate(243.11 230.45)">U</text><text class="cls-5" transform="translate(243.11 244.87)">C</text><line class="cls-7" x1="225.3" y1="209.53" x2="242.61" y2="209.53"/><line class="cls-7" x1="225.3" y1="195.1" x2="242.61" y2="195.1"/><line class="cls-7" x1="225.3" y1="180.67" x2="242.61" y2="180.67"/><polygon class="cls-8" points="236.84 166.25 236.84 166.06 236.82 165.88 236.79 165.7 236.75 165.52 236.7 165.35 236.64 165.17 236.56 165.01 236.48 164.84 236.38 164.69 236.28 164.54 236.17 164.39 236.04 164.25 235.91 164.13 235.78 164.01 235.63 163.9 235.48 163.79 235.32 163.7 235.16 163.62 234.99 163.55 234.81 163.49 234.64 163.44 234.46 163.41 234.28 163.38 234.09 163.36 233.91 163.36 233.73 163.37 233.55 163.39 233.37 163.42 233.19 163.47 233.01 163.52 232.84 163.59 232.68 163.66 232.51 163.75 232.36 163.84 232.21 163.95 232.07 164.07 231.93 164.19 231.81 164.32 231.69 164.46 231.58 164.61 231.48 164.76 231.39 164.92 231.31 165.09 231.25 165.26 231.19 165.43 231.14 165.61 231.11 165.79 231.09 165.97 231.07 166.16 231.07 166.34 231.09 166.52 231.11 166.7 231.14 166.88 231.19 167.06 231.25 167.23 231.31 167.4 231.39 167.57 231.48 167.73 231.58 167.88 231.69 168.03 231.81 168.17 231.93 168.3 232.07 168.43 232.21 168.54 232.36 168.65 232.51 168.75 232.68 168.83 232.84 168.91 233.01 168.97 233.19 169.03 233.37 169.07 233.55 169.1 233.73 169.12 233.91 169.13 234.09 169.13 234.28 169.11 234.46 169.09 234.64 169.05 234.81 169 234.99 168.94 235.16 168.87 235.32 168.79 235.48 168.7 235.63 168.6 235.78 168.49 235.91 168.37 236.04 168.24 236.17 168.1 236.28 167.96 236.38 167.81 236.48 167.65 236.56 167.49 236.64 167.32 236.7 167.15 236.75 166.97 236.79 166.79 236.82 166.61 236.84 166.43 236.84 166.25"/><line class="cls-7" x1="225.3" y1="151.82" x2="242.61" y2="151.82"/><line class="cls-7" x1="225.3" y1="137.39" x2="242.61" y2="137.39"/><polyline class="cls-16" points="213.76 223.95 136.58 223.95 136.58 215.3"/><polygon class="cls-8" points="179.98 228.28 177.57 226.12 175.17 225.4 172.76 225.03 167.95 223.95 172.76 222.87 175.17 222.51 177.57 221.79 179.98 219.63 179.98 228.28"/><line class="cls-16" x1="161.35" y1="213.61" x2="140.66" y2="234.3"/><polygon class="cls-8" points="162.56 217.83 159.34 218 157.13 219.19 155.17 220.64 151 223.27 153.64 219.11 155.08 217.15 156.28 214.94 156.44 211.71 162.56 217.83"/><line class="cls-16" x1="170.52" y1="235.66" x2="214.44" y2="212.24"/><polygon class="cls-8" points="199.35 215.45 202.5 216.22 204.96 215.73 207.25 214.92 212 213.61 208.26 216.82 206.31 218.27 204.53 220.04 203.43 223.08 199.35 215.45"/><line class="cls-16" x1="208.14" y1="286.74" x2="205.68" y2="262.16"/><polygon class="cls-8" points="203.83 287.14 205.74 284.53 206.22 282.06 206.34 279.63 206.94 274.74 208.5 279.42 209.09 281.78 210.05 284.1 212.44 286.27 203.83 287.14"/><text class="cls-17" transform="translate(193.35 310.88)">20</text><text class="cls-17" transform="translate(243.84 310.88)">80</text><text class="cls-17" transform="translate(254.16 156.71)">70</text><text class="cls-17" transform="translate(203.32 128.16)">60</text><line class="cls-18" x1="225.3" y1="124.13" x2="226.3" y2="124.13"/><line class="cls-19" x1="228.49" y1="124.13" x2="240.52" y2="124.13"/><line class="cls-18" x1="241.61" y1="124.13" x2="242.61" y2="124.13"/><text class="cls-17" transform="translate(170.84 141.39)">40</text><text class="cls-17" transform="translate(120.9 141.39)">30</text><text class="cls-17" transform="translate(205.68 366.51)">5<tspan class="cls-20" x="5.21" y="0">’</tspan></text><text class="cls-17" transform="translate(234.82 395.12)">3<tspan class="cls-20" x="5.21" y="0">’</tspan></text><rect class="cls-21" x="195.01" y="270.47" width="23.79" height="8.54"/><text class="cls-17" transform="translate(195.38 278.09)">2’-dG</text><line class="cls-22" x1="220.52" y1="274.74" x2="235.98" y2="274.74"/><line class="cls-22" x1="193.59" y1="274.97" x2="171.2" y2="274.97"/><polygon class="cls-23" points="175.8 275.15 175.81 275.33 175.84 275.51 175.88 275.69 175.94 275.87 176 276.04 176.07 276.21 176.16 276.37 176.25 276.53 176.35 276.68 176.47 276.82 176.59 276.96 176.72 277.09 176.86 277.21 177 277.32 177.16 277.42 177.31 277.51 177.48 277.59 177.65 277.66 177.82 277.72 178 277.77 178.18 277.81 178.36 277.83 178.54 277.85 178.72 277.85 178.91 277.84 179.09 277.82 179.27 277.79 179.44 277.75 179.62 277.69 179.79 277.63 179.96 277.55 180.12 277.46 180.27 277.37 180.42 277.26 180.56 277.15 180.7 277.02 180.83 276.89 180.94 276.75 181.05 276.6 181.15 276.45 181.24 276.29 181.32 276.12 181.39 275.95 181.44 275.78 181.49 275.6 181.53 275.42 181.55 275.24 181.56 275.06 181.56 274.88 181.55 274.69 181.53 274.51 181.49 274.33 181.44 274.15 181.39 273.98 181.32 273.81 181.24 273.64 181.15 273.48 181.05 273.33 180.94 273.18 180.83 273.04 180.7 272.91 180.56 272.79 180.42 272.67 180.27 272.56 180.12 272.47 179.96 272.38 179.79 272.31 179.62 272.24 179.44 272.19 179.27 272.14 179.09 272.11 178.91 272.09 178.72 272.08 178.54 272.08 178.36 272.1 178.18 272.13 178 272.16 177.82 272.21 177.65 272.27 177.48 272.34 177.31 272.42 177.16 272.51 177 272.62 176.86 272.73 176.72 272.85 176.59 272.98 176.47 273.11 176.35 273.25 176.25 273.41 176.16 273.56 176.07 273.73 176 273.89 175.94 274.07 175.88 274.24 175.84 274.42 175.81 274.6 175.8 274.78 175.79 274.97 175.8 275.15"/><polygon class="cls-23" points="184.3 271.72 184.3 278.21 189.93 274.97 184.3 271.72"/><text class="cls-24" transform="translate(174.17 346.04)">P1</text><text class="cls-24" transform="translate(97.09 167.63)">P2</text><text class="cls-24" transform="translate(271.18 167.63)">P3</text><text class="cls-25" transform="translate(88.99 107.26)">L2</text><text class="cls-25" transform="translate(282.29 107.26)">L3</text><text class="cls-26" transform="translate(261.81 253.53)">J3/1</text><text class="cls-27" transform="translate(176.97 213.61)">J1/2</text><text class="cls-28" transform="translate(99.15 286.74)">J2/3</text><text class="cls-29" transform="translate(3.54 19.35)">2’-dG-II Riboswitch</text></svg>