<?xml version="1.0" encoding="utf-8"?>
<!-- Generator: Adobe Illustrator 16.0.0, SVG Export Plug-In . SVG Version: 6.00 Build 0)  -->
<!DOCTYPE svg PUBLIC "-//W3C//DTD SVG 1.1//EN" "http://www.w3.org/Graphics/SVG/1.1/DTD/svg11.dtd">
<svg version="1.1" id="图层_1" xmlns="http://www.w3.org/2000/svg" xmlns:xlink="http://www.w3.org/1999/xlink" x="0px" y="0px"
	 width="400px" height="400px" viewBox="0 0 400 400" enable-background="new 0 0 400 400" xml:space="preserve">
<g id="ID000002">
	<g transform="translate(183.299,110.617)">
		<g transform="rotate(-0.0)">
			<text transform="matrix(1 0 0 1 -41.9142 -63.2195)" fill="#FFAADC" font-family="'ArialMT'" font-size="10.169">C</text>
		</g>
	</g>
</g>
<g id="ID000003">
	<g transform="translate(177.050,110.617)">
		<g transform="rotate(-0.0)">
			<text transform="matrix(1 0 0 1 -46.257 -63.2195)" fill="#FFAADC" font-family="'ArialMT'" font-size="10.169">C</text>
		</g>
	</g>
</g>
<g id="ID000004">
	<g transform="translate(170.801,110.617)">
		<g transform="rotate(-0.0)">
			<text transform="matrix(1 0 0 1 -50.5988 -63.2195)" fill="#FFAADC" font-family="'ArialMT'" font-size="10.169">C</text>
		</g>
	</g>
</g>
<g id="ID000005">
	<g transform="translate(162.990,110.617)">
		<g transform="rotate(-0.0)">
			<text transform="matrix(1 0 0 1 -53.5784 -63.2195)" fill="#FFAADC" font-family="'ArialMT'" font-size="10.169">U</text>
		</g>
	</g>
</g>
<g id="ID000006">
	<g transform="translate(155.179,110.617)">
		<g transform="rotate(-0.0)">
			<text transform="matrix(1 0 0 1 -57.7796 -62.8958)" fill="#FFAADC" font-family="'ArialMT'" font-size="10.169">A</text>
		</g>
	</g>
</g>
<g id="ID000007">
	<g transform="translate(144.244,123.115)">
		<g transform="rotate(-0.0)">
			<text transform="matrix(1 0 0 1 -68.7704 -54.5339)" fill="#FFAADC" font-family="'ArialMT'" font-size="10.169">A</text>
		</g>
	</g>
</g>
<g id="ID000008">
	<line fill="none" stroke="#000000" stroke-width="0.5" x1="75.552" y1="70.224" x2="69.824" y2="74.352"/>
</g>
<g id="ID000009">
	<g transform="translate(135.912,123.115)">
		<g transform="rotate(-0.0)">
			<text transform="matrix(1 0 0 1 -75.0453 -41.6096)" font-family="'ArialMT'" font-size="8">110</text>
		</g>
	</g>
</g>
<g id="ID000010">
	<g transform="translate(148.931,129.364)">
		<g transform="rotate(-0.0)">
			<text transform="matrix(1 0 0 1 -66.0775 -50.1921)" fill="#FFAADC" font-family="'ArialMT'" font-size="10.169">G</text>
		</g>
	</g>
</g>
<g id="ID000011">
	<g transform="translate(148.931,135.612)">
		<g transform="rotate(-0.0)">
			<text transform="matrix(1 0 0 1 -65.7953 -45.8513)" fill="#FFAADC" font-family="'ArialMT'" font-size="10.169">C</text>
		</g>
	</g>
</g>
<g id="ID000012">
	<g transform="translate(148.931,141.861)">
		<g transform="rotate(-0.0)">
			<text transform="matrix(1 0 0 1 -65.7953 -41.5094)" fill="#FFAADC" font-family="'ArialMT'" font-size="10.169">C</text>
		</g>
	</g>
</g>
<g id="ID000013">
	<g transform="translate(144.244,148.110)">
		<g transform="rotate(-0.0)">
			<text transform="matrix(1 0 0 1 -68.7704 -37.1666)" fill="#FFAADC" font-family="'ArialMT'" font-size="10.169">A</text>
		</g>
	</g>
</g>
<g id="ID000014">
	<g transform="translate(170.801,148.110)">
		<g transform="rotate(-0.0)">
			<text transform="matrix(1 0 0 1 -50.3186 -37.1666)" fill="#FFAADC" font-family="'ArialMT'" font-size="10.169">A</text>
		</g>
	</g>
</g>
<g id="ID000015">
	<line fill="none" stroke="#000000" stroke-width="0.5" x1="126.628" y1="103.466" x2="129.948" y2="97.237"/>
</g>
<g id="ID000016">
	<g transform="translate(176.693,158.563)">
		<g transform="rotate(-0.0)">
			<text transform="matrix(1 0 0 1 -53.1642 -62.9761)" font-family="'ArialMT'" font-size="8">130</text>
		</g>
	</g>
</g>
<g id="ID000017">
	<g transform="translate(166.115,143.423)">
		<g transform="rotate(-0.0)">
			<text transform="matrix(1 0 0 1 -53.575 -40.424)" fill="#FFAADC" font-family="'ArialMT'" font-size="10.169">A</text>
		</g>
	</g>
</g>
<g id="ID000018">
	<g transform="translate(161.428,141.861)">
		<g transform="rotate(-0.0)">
			<text transform="matrix(1 0 0 1 -57.3948 -41.5094)" fill="#FFAADC" font-family="'ArialMT'" font-size="10.169">G</text>
		</g>
	</g>
</g>
<g id="ID000019">
	<g transform="translate(161.428,135.612)">
		<g transform="rotate(-0.0)">
			<text transform="matrix(1 0 0 1 -57.3948 -45.8513)" fill="#FFAADC" font-family="'ArialMT'" font-size="10.169">G</text>
		</g>
	</g>
</g>
<g id="ID000020">
	<g transform="translate(161.428,129.364)">
		<g transform="rotate(-0.0)">
			<text transform="matrix(1 0 0 1 -57.1106 -50.1921)" fill="#FFAADC" font-family="'ArialMT'" font-size="10.169">C</text>
		</g>
	</g>
</g>
<g id="ID000021">
	<g transform="translate(162.990,123.115)">
		<g transform="rotate(-0.0)">
			<text transform="matrix(1 0 0 1 -53.5784 -54.5339)" fill="#FFAADC" font-family="'ArialMT'" font-size="10.169">A</text>
		</g>
	</g>
</g>
<g id="ID000022">
	<g transform="translate(170.801,123.115)">
		<g transform="rotate(-0.0)">
			<text transform="matrix(1 0 0 1 -50.8811 -54.5339)" fill="#FFAADC" font-family="'ArialMT'" font-size="10.169">G</text>
		</g>
	</g>
</g>
<g id="ID000023">
	<g transform="translate(177.050,123.115)">
		<g transform="rotate(-0.0)">
			<text transform="matrix(1 0 0 1 -46.5393 -54.5339)" fill="#FFAADC" font-family="'ArialMT'" font-size="10.169">G</text>
		</g>
	</g>
</g>
<g id="ID000024">
	<g transform="translate(183.299,123.115)">
		<g transform="rotate(-0.0)">
			<text transform="matrix(1 0 0 1 -42.1984 -54.5339)" fill="#FFAADC" font-family="'ArialMT'" font-size="10.169">G</text>
		</g>
	</g>
</g>
<g id="ID000025">
	<g transform="translate(189.548,123.115)">
		<g transform="rotate(-0.0)">
			<text transform="matrix(1 0 0 1 -37.5724 -54.5339)" fill="#FFAADC" font-family="'ArialMT'" font-size="10.169">U</text>
		</g>
	</g>
</g>
<g id="ID000026">
	<g transform="translate(195.797,123.115)">
		<g transform="rotate(-0.0)">
			<text transform="matrix(1 0 0 1 -33.5128 -54.5339)" fill="#FFAADC" font-family="'ArialMT'" font-size="10.169">G</text>
		</g>
	</g>
</g>
<g id="ID000027">
	<line fill="none" stroke="#000000" stroke-width="0.5" x1="166.239" y1="70.876" x2="166.239" y2="77.938"/>
</g>
<g id="ID000028">
	<g transform="translate(195.797,136.008)">
		<g transform="rotate(-0.0)">
			<text transform="matrix(1 0 0 1 -38.0421 -51.0114)" font-family="'ArialMT'" font-size="8">140</text>
		</g>
	</g>
</g>
<g id="ID000029">
	<g transform="translate(202.045,123.115)">
		<g transform="rotate(-0.0)">
			<text transform="matrix(1 0 0 1 -29.172 -54.5339)" fill="#FFAADC" font-family="'ArialMT'" font-size="10.169">G</text>
		</g>
	</g>
</g>
<g id="ID000030">
	<g transform="translate(208.294,123.115)">
		<g transform="rotate(-0.0)">
			<text transform="matrix(1 0 0 1 -24.2667 -54.5339)" fill="#FFAADC" font-family="'ArialMT'" font-size="10.169">A</text>
		</g>
	</g>
</g>
<g id="ID000031">
	<line fill="none" stroke="#000000" stroke-width="0.5" x1="91.044" y1="74.406" x2="103.754" y2="74.406"/>
</g>
<g id="ID000032">
	<line fill="none" stroke="#000000" stroke-width="0.5" x1="91.044" y1="84.997" x2="103.754" y2="84.997"/>
</g>
<g id="ID000033">
	<line fill="none" stroke="#000000" stroke-width="0.5" x1="91.044" y1="95.587" x2="103.754" y2="95.587"/>
</g>
<g id="ID000034">
	<line fill="none" stroke="#000000" stroke-width="0.5" x1="166.239" y1="46.872" x2="166.239" y2="59.58"/>
</g>
<g id="ID000035">
	<polygon fill="#FFFFFF" stroke="#000000" stroke-width="0.5" points="164.12,48.354 164.12,52.588 168.355,52.588 168.355,48.354 	
		"/>
</g>
<g id="ID000036">
	<polygon fill="#FFFFFF" stroke="#000000" stroke-width="0.5" points="166.239,58.729 168.62,54.603 163.855,54.603 	"/>
</g>
<g id="ID000037">
	<line fill="none" stroke="#000000" stroke-width="0.5" x1="176.828" y1="46.872" x2="176.828" y2="59.58"/>
</g>
<g id="ID000038">
	<polygon fill="#FFFFFF" stroke="#000000" stroke-width="0.5" points="174.71,48.354 174.71,52.588 178.947,52.588 178.947,48.354 	
		"/>
</g>
<g id="ID000039">
	<polygon fill="#FFFFFF" stroke="#000000" stroke-width="0.5" points="176.828,58.729 179.211,54.603 174.444,54.603 	"/>
</g>
<g id="ID000040">
	<line fill="none" stroke="#000000" stroke-width="0.5" x1="187.419" y1="46.872" x2="187.419" y2="59.58"/>
</g>
<g id="ID000041">
	<polygon fill="#FFFFFF" stroke="#000000" stroke-width="0.5" points="187.419,47.721 185.036,51.847 189.802,51.847 	"/>
</g>
<g id="ID000042">
	<polygon fill="#FFFFFF" stroke="#000000" stroke-width="0.5" points="189.537,58.095 189.537,53.86 185.301,53.86 185.301,58.095 	
		"/>
</g>
<g id="ID000044">
	<g transform="translate(148.931,155.921)">
		<g transform="rotate(-0.0)">
			<text transform="matrix(1 0 0 1 -65.7953 -31.7413)" fill="#FFAADC" font-family="'ArialMT'" font-size="10.169">C</text>
		</g>
	</g>
</g>
<g id="ID000045">
	<g transform="translate(148.931,162.170)">
		<g transform="rotate(-0.0)">
			<text transform="matrix(1 0 0 1 -65.7953 -27.3975)" fill="#FFAADC" font-family="'ArialMT'" font-size="10.169">U</text>
		</g>
	</g>
</g>
<g id="ID000046">
	<g transform="translate(148.931,168.418)">
		<g transform="rotate(-0.0)">
			<text transform="matrix(1 0 0 1 -66.0775 -23.0557)" fill="#FFAADC" font-family="'ArialMT'" font-size="10.169">G</text>
		</g>
	</g>
</g>
<g id="ID000047">
	<g transform="translate(148.931,174.667)">
		<g transform="rotate(-0.0)">
			<text transform="matrix(1 0 0 1 -65.7953 -18.7149)" fill="#FFAADC" font-family="'ArialMT'" font-size="10.169">C</text>
		</g>
	</g>
</g>
<g id="ID000048">
	<g transform="translate(148.931,180.916)">
		<g transform="rotate(-0.0)">
			<text transform="matrix(1 0 0 1 -65.7953 -14.373)" fill="#FFAADC" font-family="'ArialMT'" font-size="10.169">C</text>
		</g>
	</g>
</g>
<g id="ID000049">
	<g transform="translate(148.931,187.165)">
		<g transform="rotate(-0.0)">
			<text transform="matrix(1 0 0 1 -66.0775 -10.0322)" fill="#FFAADC" font-family="'ArialMT'" font-size="10.169">G</text>
		</g>
	</g>
</g>
<g id="ID000050">
	<line fill="none" stroke="#000000" stroke-width="0.5" x1="79.749" y1="172.37" x2="72.688" y2="172.37"/>
</g>
<g id="ID000051">
	<g transform="translate(140.599,187.165)">
		<g transform="rotate(-0.0)">
			<text transform="matrix(1 0 0 1 -84.8783 -12.4121)" font-family="'ArialMT'" font-size="8">120</text>
		</g>
	</g>
</g>
<g id="ID000052">
	<g transform="translate(152.055,194.976)">
		<g transform="rotate(-0.0)">
			<text transform="matrix(1 0 0 1 -63.3421 -4.603)" fill="#FFAADC" font-family="'ArialMT'" font-size="10.169">A</text>
		</g>
	</g>
</g>
<g id="ID000053">
	<g transform="translate(159.866,194.976)">
		<g transform="rotate(-0.0)">
			<text transform="matrix(1 0 0 1 -57.9158 -4.603)" fill="#FFAADC" font-family="'ArialMT'" font-size="10.169">A</text>
		</g>
	</g>
</g>
<g id="ID000054">
	<g transform="translate(161.428,187.165)">
		<g transform="rotate(-0.0)">
			<text transform="matrix(1 0 0 1 -56.8303 -10.0322)" fill="#FFAADC" font-family="'ArialMT'" font-size="10.169">A</text>
		</g>
	</g>
</g>
<g id="ID000055">
	<g transform="translate(161.428,180.916)">
		<g transform="rotate(-0.0)">
			<text transform="matrix(1 0 0 1 -57.3948 -14.373)" fill="#FFAADC" font-family="'ArialMT'" font-size="10.169">G</text>
		</g>
	</g>
</g>
<g id="ID000056">
	<g transform="translate(161.428,174.667)">
		<g transform="rotate(-0.0)">
			<text transform="matrix(1 0 0 1 -57.3948 -18.7149)" fill="#FFAADC" font-family="'ArialMT'" font-size="10.169">G</text>
		</g>
	</g>
</g>
<g id="ID000057">
	<g transform="translate(161.428,168.418)">
		<g transform="rotate(-0.0)">
			<text transform="matrix(1 0 0 1 -57.1106 -23.0557)" fill="#FFAADC" font-family="'ArialMT'" font-size="10.169">U</text>
		</g>
	</g>
</g>
<g id="ID000058">
	<g transform="translate(161.428,162.170)">
		<g transform="rotate(-0.0)">
			<text transform="matrix(1 0 0 1 -57.3948 -27.3975)" fill="#FFAADC" font-family="'ArialMT'" font-size="10.169">G</text>
		</g>
	</g>
</g>
<g id="ID000059">
	<g transform="translate(161.428,155.921)">
		<g transform="rotate(-0.0)">
			<text transform="matrix(1 0 0 1 -57.3948 -31.7413)" fill="#FFAADC" font-family="'ArialMT'" font-size="10.169">G</text>
		</g>
	</g>
</g>
<g id="ID000060">
	<g transform="translate(166.115,152.797)">
		<g transform="rotate(-0.0)">
			<text transform="matrix(1 0 0 1 -54.1375 -33.9122)" fill="#FFAADC" font-family="'ArialMT'" font-size="10.169">G</text>
		</g>
	</g>
</g>
<g id="ID000061">
	<line fill="none" stroke="#000000" stroke-width="0.5" x1="91.044" y1="119.416" x2="103.754" y2="119.416"/>
</g>
<g id="ID000062">
	<polygon stroke="#000000" stroke-width="0.5" points="99.517,130.007 99.514,129.871 99.5,129.739 99.48,129.605 99.449,129.475 
		99.412,129.347 99.366,129.22 99.312,129.097 99.249,128.976 99.182,128.861 99.105,128.752 99.022,128.645 98.933,128.545 
		98.836,128.452 98.733,128.364 98.628,128.282 98.516,128.208 98.4,128.14 98.28,128.08 98.154,128.028 98.027,127.984 
		97.898,127.948 97.767,127.92 97.633,127.902 97.5,127.89 97.367,127.889 97.23,127.896 97.098,127.911 96.964,127.933 
		96.835,127.965 96.707,128.006 96.582,128.053 96.457,128.11 96.339,128.172 96.227,128.243 96.118,128.321 96.011,128.406 
		95.913,128.498 95.821,128.594 95.734,128.697 95.654,128.806 95.583,128.919 95.517,129.036 95.458,129.158 95.408,129.281 
		95.366,129.411 95.332,129.539 95.308,129.671 95.29,129.806 95.281,129.94 95.281,130.074 95.29,130.209 95.308,130.341 
		95.332,130.473 95.366,130.604 95.408,130.732 95.458,130.857 95.517,130.977 95.583,131.095 95.654,131.208 95.734,131.316 
		95.821,131.419 95.913,131.516 96.011,131.606 96.118,131.692 96.227,131.77 96.339,131.841 96.457,131.906 96.582,131.96 
		96.707,132.008 96.835,132.048 96.964,132.081 97.098,132.103 97.23,132.119 97.367,132.124 97.5,132.123 97.633,132.112 
		97.767,132.094 97.898,132.065 98.027,132.029 98.154,131.985 98.28,131.935 98.4,131.874 98.516,131.807 98.628,131.733 
		98.733,131.651 98.836,131.563 98.933,131.468 99.022,131.368 99.105,131.263 99.182,131.15 99.249,131.036 99.312,130.917 
		99.366,130.793 99.412,130.668 99.449,130.54 99.48,130.407 99.5,130.275 99.514,130.141 	"/>
</g>
<g id="ID000063">
	<polygon stroke="#000000" stroke-width="0.5" points="99.517,140.598 99.514,140.462 99.5,140.329 99.48,140.196 99.449,140.066 
		99.412,139.937 99.366,139.81 99.312,139.686 99.249,139.567 99.182,139.452 99.105,139.342 99.022,139.235 98.933,139.135 
		98.836,139.041 98.733,138.954 98.628,138.873 98.516,138.798 98.4,138.73 98.28,138.671 98.154,138.62 98.027,138.575 
		97.898,138.539 97.767,138.512 97.633,138.491 97.5,138.482 97.367,138.48 97.23,138.486 97.098,138.5 96.964,138.523 
		96.835,138.556 96.707,138.596 96.582,138.645 96.457,138.7 96.339,138.763 96.227,138.834 96.118,138.911 96.011,138.996 
		95.913,139.088 95.821,139.185 95.734,139.289 95.654,139.397 95.583,139.51 95.517,139.627 95.458,139.748 95.408,139.873 
		95.366,140 95.332,140.13 95.308,140.263 95.29,140.396 95.281,140.53 95.281,140.664 95.29,140.798 95.308,140.932 
		95.332,141.064 95.366,141.195 95.408,141.321 95.458,141.447 95.517,141.568 95.583,141.687 95.654,141.798 95.734,141.907 
		95.821,142.011 95.913,142.107 96.011,142.198 96.118,142.283 96.227,142.361 96.339,142.432 96.457,142.495 96.582,142.551 
		96.707,142.6 96.835,142.639 96.964,142.671 97.098,142.695 97.23,142.708 97.367,142.715 97.5,142.713 97.633,142.703 
		97.767,142.683 97.898,142.655 98.027,142.621 98.154,142.576 98.28,142.524 98.4,142.464 98.516,142.396 98.628,142.323 
		98.733,142.243 98.836,142.154 98.933,142.06 99.022,141.959 99.105,141.854 99.182,141.742 99.249,141.627 99.312,141.508 
		99.366,141.385 99.412,141.258 99.449,141.128 99.48,140.998 99.5,140.866 99.514,140.732 	"/>
</g>
<g id="ID000064">
	<line fill="none" stroke="#000000" stroke-width="0.5" x1="91.044" y1="151.187" x2="103.754" y2="151.187"/>
</g>
<g id="ID000065">
	<line fill="none" stroke="#000000" stroke-width="0.5" x1="91.044" y1="161.778" x2="103.754" y2="161.778"/>
</g>
<g id="ID000066">
	<line fill="none" stroke="#000000" stroke-width="0.5" x1="91.044" y1="172.37" x2="103.754" y2="172.37"/>
</g>
<g id="ID000067">
	<polygon fill="#FFFFFF" stroke="#000000" stroke-width="0.5" points="91.893,172.37 96.021,174.753 96.021,169.987 	"/>
</g>
<g id="ID000068">
	<polygon fill="#FFFFFF" stroke="#000000" stroke-width="0.5" points="102.271,170.25 98.034,170.25 98.034,174.487 
		102.271,174.487 	"/>
</g>
<g id="ID000070">
	<g transform="translate(181.737,265.275)">
		<g transform="rotate(-0.0)">
			<text transform="matrix(1 0 0 1 -42.9997 44.2445)" fill="#09FEFE" font-family="'ArialMT'" font-size="10.169">U</text>
		</g>
	</g>
</g>
<g id="ID000071">
	<g transform="translate(181.737,259.026)">
		<g transform="rotate(-0.0)">
			<text transform="matrix(1 0 0 1 -43.2839 39.9008)" fill="#09FEFE" font-family="'ArialMT'" font-size="10.169">G</text>
		</g>
	</g>
</g>
<g id="ID000072">
	<g transform="translate(181.737,252.777)">
		<g transform="rotate(-0.0)">
			<text transform="matrix(1 0 0 1 -43.2839 35.558)" fill="#09FEFE" font-family="'ArialMT'" font-size="10.169">G</text>
		</g>
	</g>
</g>
<g id="ID000073">
	<g transform="translate(194.234,252.777)">
		<g transform="rotate(-0.0)">
			<text transform="matrix(1 0 0 1 -34.317 35.558)" fill="#09FEFE" font-family="'ArialMT'" font-size="10.169">C</text>
		</g>
	</g>
</g>
<g id="ID000074">
	<g transform="translate(194.234,259.026)">
		<g transform="rotate(-0.0)">
			<text transform="matrix(1 0 0 1 -34.317 39.9008)" fill="#09FEFE" font-family="'ArialMT'" font-size="10.169">C</text>
		</g>
	</g>
</g>
<g id="ID000075">
	<line fill="none" stroke="#000000" stroke-width="0.5" x1="170.651" y1="294.162" x2="177.71" y2="294.162"/>
</g>
<g id="ID000076">
	<g transform="translate(202.566,259.026)">
		<g transform="rotate(-0.0)">
			<text transform="matrix(1 0 0 1 -24.8551 39.9008)" font-family="'ArialMT'" font-size="8">170</text>
		</g>
	</g>
</g>
<g id="ID000077">
	<g transform="translate(194.234,265.275)">
		<g transform="rotate(-0.0)">
			<text transform="matrix(1 0 0 1 -34.0367 44.2445)" fill="#09FEFE" font-family="'ArialMT'" font-size="10.169">A</text>
		</g>
	</g>
</g>
<g id="ID000078">
	<line fill="none" stroke="#000000" stroke-width="0.5" x1="146.645" y1="304.752" x2="159.354" y2="304.752"/>
</g>
<g id="ID000079">
	<line fill="none" stroke="#000000" stroke-width="0.5" x1="146.645" y1="294.162" x2="159.354" y2="294.162"/>
</g>
<g id="ID000080">
	<line fill="none" stroke="#000000" stroke-width="0.5" x1="146.248" y1="281.78" x2="178.285" y2="266.83"/>
</g>
<g id="ID000081">
	<polygon fill="#FFFFFF" stroke="#000000" stroke-width="0.5" points="158.562,275.999 153.814,275.585 155.829,279.904 	"/>
</g>
<g id="ID000082">
	<line fill="none" stroke="#000000" x1="225.576" y1="276.132" x2="167.796" y2="283.065"/>
</g>
<g id="ID000083">
	<polygon stroke="#000000" stroke-width="0.5" points="200.569,282.333 198.627,280.964 196.812,280.65 195.029,280.597 
		191.429,280.229 194.838,279.02 196.559,278.548 198.25,277.811 199.813,276.023 	"/>
</g>
<g id="ID000085">
	<g transform="translate(181.737,246.528)">
		<g transform="rotate(-0.0)">
			<text transform="matrix(1 0 0 1 -42.9997 31.2161)" fill="#09FEFE" font-family="'ArialMT'" font-size="10.169">U</text>
		</g>
	</g>
</g>
<g id="ID000086">
	<g transform="translate(181.737,221.533)">
		<g transform="rotate(-0.0)">
			<text transform="matrix(1 0 0 1 -42.9997 13.8488)" fill="#80DB9E" font-family="'ArialMT'" font-size="10.169">C</text>
		</g>
	</g>
</g>
<g id="ID000087">
	<g transform="translate(181.737,215.284)">
		<g transform="rotate(-0.0)">
			<text transform="matrix(1 0 0 1 -43.2839 9.507)" fill="#80DB9E" font-family="'ArialMT'" font-size="10.169">G</text>
		</g>
	</g>
</g>
<g id="ID000088">
	<g transform="translate(181.737,209.036)">
		<g transform="rotate(-0.0)">
			<text transform="matrix(1 0 0 1 -42.9997 5.1662)" fill="#80DB9E" font-family="'ArialMT'" font-size="10.169">C</text>
		</g>
	</g>
</g>
<g id="ID000089">
	<line fill="none" stroke="#000000" stroke-width="0.5" x1="135.349" y1="209.438" x2="128.288" y2="209.438"/>
</g>
<g id="ID000090">
	<g transform="translate(173.405,209.036)">
		<g transform="rotate(-0.0)">
			<text transform="matrix(1 0 0 1 -56.4294 5.1662)" font-family="'ArialMT'" font-size="8">20</text>
		</g>
	</g>
</g>
<g id="ID000091">
	<g transform="translate(181.737,202.787)">
		<g transform="rotate(-0.0)">
			<text transform="matrix(1 0 0 1 -42.9997 0.8243)" fill="#80DB9E" font-family="'ArialMT'" font-size="10.169">U</text>
		</g>
	</g>
</g>
<g id="ID000092">
	<g transform="translate(181.737,196.538)">
		<g transform="rotate(-0.0)">
			<text transform="matrix(1 0 0 1 -42.7194 -3.5175)" fill="#80DB9E" font-family="'ArialMT'" font-size="10.169">A</text>
		</g>
	</g>
</g>
<g id="ID000093">
	<g transform="translate(181.737,190.289)">
		<g transform="rotate(-0.0)">
			<text transform="matrix(1 0 0 1 -42.9997 -7.8613)" fill="#80DB9E" font-family="'ArialMT'" font-size="10.169">C</text>
		</g>
	</g>
</g>
<g id="ID000094">
	<g transform="translate(181.737,184.040)">
		<g transform="rotate(-0.0)">
			<text transform="matrix(1 0 0 1 -42.9997 -12.2021)" fill="#80DB9E" font-family="'ArialMT'" font-size="10.169">C</text>
		</g>
	</g>
</g>
<g id="ID000095">
	<g transform="translate(194.234,171.543)">
		<g transform="rotate(-0.0)">
			<text transform="matrix(1 0 0 1 -34.317 -20.8858)" fill="#80DB9E" font-family="'ArialMT'" font-size="10.169">C</text>
		</g>
	</g>
</g>
<g id="ID000096">
	<g transform="translate(194.234,177.792)">
		<g transform="rotate(-0.0)">
			<text transform="matrix(1 0 0 1 -34.317 -16.544)" fill="#80DB9E" font-family="'ArialMT'" font-size="10.169">C</text>
		</g>
	</g>
</g>
<g id="ID000097">
	<g transform="translate(194.234,184.040)">
		<g transform="rotate(-0.0)">
			<text transform="matrix(1 0 0 1 -34.6012 -12.2021)" fill="#80DB9E" font-family="'ArialMT'" font-size="10.169">G</text>
		</g>
	</g>
</g>
<g id="ID000098">
	<g transform="translate(194.234,190.289)">
		<g transform="rotate(-0.0)">
			<text transform="matrix(1 0 0 1 -34.6012 -7.8613)" fill="#80DB9E" font-family="'ArialMT'" font-size="10.169">G</text>
		</g>
	</g>
</g>
<g id="ID000099">
	<g transform="translate(194.234,196.538)">
		<g transform="rotate(-0.0)">
			<text transform="matrix(1 0 0 1 -34.317 -3.5175)" fill="#80DB9E" font-family="'ArialMT'" font-size="10.169">U</text>
		</g>
	</g>
</g>
<g id="ID000100">
	<g transform="translate(194.234,202.787)">
		<g transform="rotate(-0.0)">
			<text transform="matrix(1 0 0 1 -34.0367 0.8243)" fill="#80DB9E" font-family="'ArialMT'" font-size="10.169">A</text>
		</g>
	</g>
</g>
<g id="ID000101">
	<g transform="translate(194.234,209.036)">
		<g transform="rotate(-0.0)">
			<text transform="matrix(1 0 0 1 -34.6012 5.1662)" fill="#80DB9E" font-family="'ArialMT'" font-size="10.169">G</text>
		</g>
	</g>
</g>
<g id="ID000102">
	<g transform="translate(194.234,215.284)">
		<g transform="rotate(-0.0)">
			<text transform="matrix(1 0 0 1 -34.317 9.507)" fill="#80DB9E" font-family="'ArialMT'" font-size="10.169">C</text>
		</g>
	</g>
</g>
<g id="ID000103">
	<line fill="none" stroke="#000000" stroke-width="0.5" x1="170.651" y1="220.024" x2="177.71" y2="220.024"/>
</g>
<g id="ID000104">
	<g transform="translate(202.566,215.284)">
		<g transform="rotate(-0.0)">
			<text transform="matrix(1 0 0 1 -24.8551 9.507)" font-family="'ArialMT'" font-size="8">40</text>
		</g>
	</g>
</g>
<g id="ID000105">
	<g transform="translate(194.234,221.533)">
		<g transform="rotate(-0.0)">
			<text transform="matrix(1 0 0 1 -34.6012 13.8488)" fill="#80DB9E" font-family="'ArialMT'" font-size="10.169">G</text>
		</g>
	</g>
</g>
<g id="ID000106">
	<g transform="translate(194.234,227.782)">
		<g transform="rotate(-0.0)">
			<text transform="matrix(1 0 0 1 -34.317 18.1897)" fill="#80DB9E" font-family="'ArialMT'" font-size="10.169">U</text>
		</g>
	</g>
</g>
<g id="ID000107">
	<g transform="translate(194.234,235.593)">
		<g transform="rotate(-0.0)">
			<text transform="matrix(1 0 0 1 -34.317 23.6189)" fill="#80DB9E" font-family="'ArialMT'" font-size="10.169">U</text>
		</g>
	</g>
</g>
<g id="ID000108">
	<g transform="translate(198.921,240.280)">
		<g transform="rotate(-0.0)">
			<text transform="matrix(1 0 0 1 -30.7794 26.8753)" fill="#80DB9E" font-family="'ArialMT'" font-size="10.169">A</text>
		</g>
	</g>
</g>
<g id="ID000109">
	<line fill="none" stroke="#000000" x1="142.41" y1="268.743" x2="142.41" y2="234.854"/>
</g>
<g id="ID000110">
	<polygon stroke="#000000" stroke-width="0.5" points="139.232,255.33 140.819,253.563 141.351,251.799 141.615,250.032 
		142.41,246.504 143.202,250.032 143.469,251.799 143.998,253.563 145.585,255.33 	"/>
</g>
<g id="ID000111">
	<polyline fill="none" stroke="#000000" stroke-width="0.5" points="146.645,272.98 227.134,272.98 226.787,272.633 	"/>
</g>
<g id="ID000112">
	<polygon stroke="#000000" stroke-width="0.5" points="189.007,272.98 189.004,272.846 188.99,272.713 188.97,272.579 
		188.94,272.447 188.902,272.317 188.856,272.193 188.802,272.069 188.741,271.951 188.671,271.834 188.595,271.724 
		188.512,271.618 188.422,271.517 188.327,271.423 188.226,271.334 188.119,271.252 188.006,271.18 187.89,271.113 187.771,271.052 
		187.646,271.001 187.519,270.958 187.389,270.923 187.258,270.894 187.124,270.874 186.99,270.863 186.857,270.862 
		186.723,270.869 186.588,270.884 186.457,270.905 186.326,270.94 186.197,270.979 186.071,271.026 185.95,271.083 185.831,271.147 
		185.716,271.217 185.607,271.295 185.501,271.38 185.404,271.47 185.311,271.568 185.224,271.669 185.145,271.778 185.072,271.891 
		185.008,272.009 184.95,272.13 184.899,272.257 184.858,272.383 184.825,272.512 184.799,272.646 184.782,272.779 184.773,272.913 
		184.773,273.047 184.782,273.182 184.799,273.317 184.825,273.446 184.858,273.577 184.899,273.705 184.95,273.83 185.008,273.952 
		185.072,274.069 185.145,274.181 185.224,274.289 185.311,274.395 185.404,274.49 185.501,274.581 185.607,274.665 
		185.716,274.743 185.831,274.815 185.95,274.876 186.071,274.933 186.197,274.98 186.326,275.022 186.457,275.055 186.588,275.076 
		186.723,275.091 186.857,275.098 186.99,275.098 187.124,275.084 187.258,275.066 187.389,275.04 187.519,275.002 187.646,274.958 
		187.771,274.906 187.89,274.846 188.006,274.78 188.119,274.705 188.226,274.624 188.327,274.534 188.422,274.441 188.512,274.342 
		188.595,274.234 188.671,274.124 188.741,274.009 188.802,273.891 188.856,273.77 188.902,273.641 188.94,273.513 188.97,273.381 
		188.99,273.249 189.004,273.117 	"/>
</g>
<g id="ID000113">
	<line fill="none" stroke="#000000" stroke-width="0.5" x1="146.645" y1="230.618" x2="159.354" y2="230.618"/>
</g>
<g id="ID000114">
	<line fill="none" stroke="#000000" stroke-width="0.5" x1="146.645" y1="220.024" x2="159.354" y2="220.024"/>
</g>
<g id="ID000115">
	<line fill="none" stroke="#000000" stroke-width="0.5" x1="146.645" y1="209.438" x2="159.354" y2="209.438"/>
</g>
<g id="ID000116">
	<line fill="none" stroke="#000000" stroke-width="0.5" x1="146.645" y1="198.845" x2="159.354" y2="198.845"/>
</g>
<g id="ID000117">
	<line fill="none" stroke="#000000" stroke-width="0.5" x1="146.645" y1="188.255" x2="159.354" y2="188.255"/>
</g>
<g id="ID000118">
	<line fill="none" stroke="#000000" stroke-width="0.5" x1="146.645" y1="177.665" x2="159.354" y2="177.665"/>
</g>
<g id="ID000119">
	<line fill="none" stroke="#000000" stroke-width="0.5" x1="146.645" y1="167.075" x2="159.354" y2="167.075"/>
</g>
<g id="ID000120">
	<line fill="none" stroke="#000000" stroke-width="0.5" x1="166.979" y1="243.751" x2="191.974" y2="262.495"/>
</g>
<g id="ID000121">
	<polygon fill="#FFFFFF" stroke="#000000" stroke-width="0.5" points="175.579,250.197 175.5,250.308 175.431,250.424 
		175.37,250.544 175.315,250.666 175.267,250.795 175.229,250.92 175.198,251.053 175.174,251.185 175.161,251.32 175.155,251.451 
		175.159,251.584 175.17,251.719 175.191,251.853 175.218,251.984 175.255,252.115 175.3,252.241 175.354,252.361 175.413,252.483 
		175.48,252.599 175.557,252.709 175.639,252.818 175.727,252.918 175.823,253.014 175.923,253.104 176.03,253.186 176.14,253.262 
		176.256,253.326 176.377,253.387 176.499,253.443 176.626,253.488 176.754,253.525 176.888,253.553 177.02,253.575 
		177.154,253.586 177.29,253.589 177.423,253.582 177.557,253.569 177.689,253.549 177.819,253.519 177.948,253.479 178.074,253.43 
		178.198,253.376 178.315,253.313 178.431,253.244 178.542,253.166 178.646,253.083 178.747,252.994 178.84,252.896 
		178.926,252.794 179.008,252.688 179.081,252.575 179.146,252.458 179.206,252.336 179.256,252.212 179.301,252.084 
		179.334,251.955 179.362,251.823 179.38,251.691 179.389,251.559 179.39,251.423 179.384,251.285 179.367,251.155 179.343,251.023 
		179.311,250.893 179.271,250.764 179.221,250.638 179.165,250.515 179.101,250.398 179.029,250.286 178.95,250.178 
		178.864,250.072 178.772,249.972 178.673,249.881 178.57,249.794 178.461,249.719 178.349,249.645 178.231,249.581 178.11,249.525 
		177.984,249.476 177.855,249.434 177.725,249.401 177.593,249.377 177.459,249.36 177.327,249.354 177.191,249.354 
		177.057,249.364 176.924,249.383 176.792,249.408 176.662,249.443 176.535,249.486 176.411,249.537 176.289,249.596 
		176.172,249.66 176.06,249.733 175.951,249.813 175.85,249.903 175.754,249.996 175.663,250.094 	"/>
</g>
<g id="ID000122">
	<polygon fill="#FFFFFF" stroke="#000000" stroke-width="0.5" points="184.645,254.353 181.255,251.81 178.715,255.199 
		182.103,257.742 	"/>
</g>
<g id="ID000124">
	<g transform="translate(302.026,285.583)">
		<g transform="rotate(-0.0)">
			<text transform="matrix(1 0 0 1 40.8627 58.3535)" fill="#FF870A" font-family="'ArialMT'" font-size="10.169">A</text>
		</g>
	</g>
</g>
<g id="ID000125">
	<g transform="translate(302.026,279.335)">
		<g transform="rotate(-0.0)">
			<text transform="matrix(1 0 0 1 40.2972 54.0117)" fill="#FF870A" font-family="'ArialMT'" font-size="10.169">G</text>
		</g>
	</g>
</g>
<g id="ID000126">
	<g transform="translate(302.026,273.086)">
		<g transform="rotate(-0.0)">
			<text transform="matrix(1 0 0 1 40.5804 49.6699)" fill="#FF870A" font-family="'ArialMT'" font-size="10.169">U</text>
		</g>
	</g>
</g>
<g id="ID000127">
	<g transform="translate(302.026,266.837)">
		<g transform="rotate(-0.0)">
			<text transform="matrix(1 0 0 1 40.5804 45.3271)" fill="#FF870A" font-family="'ArialMT'" font-size="10.169">U</text>
		</g>
	</g>
</g>
<g id="ID000128">
	<g transform="translate(302.026,260.588)">
		<g transform="rotate(-0.0)">
			<text transform="matrix(1 0 0 1 40.5804 40.9843)" fill="#FF870A" font-family="'ArialMT'" font-size="10.169">C</text>
		</g>
	</g>
</g>
<g id="ID000129">
	<g transform="translate(289.528,260.588)">
		<g transform="rotate(-0.0)">
			<text transform="matrix(1 0 0 1 31.6136 40.9843)" fill="#FF870A" font-family="'ArialMT'" font-size="10.169">G</text>
		</g>
	</g>
</g>
<g id="ID000130">
	<g transform="translate(289.528,266.837)">
		<g transform="rotate(-0.0)">
			<text transform="matrix(1 0 0 1 32.178 45.3271)" fill="#FF870A" font-family="'ArialMT'" font-size="10.169">A</text>
		</g>
	</g>
</g>
<g id="ID000131">
	<g transform="translate(289.528,273.086)">
		<g transform="rotate(-0.0)">
			<text transform="matrix(1 0 0 1 32.178 49.6699)" fill="#FF870A" font-family="'ArialMT'" font-size="10.169">A</text>
		</g>
	</g>
</g>
<g id="ID000132">
	<g transform="translate(289.528,279.335)">
		<g transform="rotate(-0.0)">
			<text transform="matrix(1 0 0 1 31.8958 54.0117)" fill="#FF870A" font-family="'ArialMT'" font-size="10.169">C</text>
		</g>
	</g>
</g>
<g id="ID000133">
	<g transform="translate(289.528,285.583)">
		<g transform="rotate(-0.0)">
			<text transform="matrix(1 0 0 1 32.178 58.3535)" fill="#FF870A" font-family="'ArialMT'" font-size="10.169">A</text>
		</g>
	</g>
</g>
<g id="ID000134">
	<line fill="none" stroke="#000000" stroke-width="0.5" x1="318.034" y1="339.17" x2="310.977" y2="339.17"/>
</g>
<g id="ID000135">
	<g transform="translate(281.197,285.583)">
		<g transform="rotate(-0.0)">
			<text transform="matrix(1 0 0 1 15.2171 55.7061)" font-family="'ArialMT'" font-size="8">210</text>
		</g>
	</g>
</g>
<g id="ID000136">
	<line fill="none" stroke="#000000" stroke-width="0.5" x1="342.042" y1="328.58" x2="329.335" y2="328.58"/>
</g>
<g id="ID000137">
	<line fill="none" stroke="#000000" stroke-width="0.5" x1="342.042" y1="317.99" x2="329.335" y2="317.99"/>
</g>
<g id="ID000139">
	<g transform="translate(302.026,252.777)">
		<g transform="rotate(-0.0)">
			<text transform="matrix(1 0 0 1 40.2972 35.558)" fill="#FF870A" font-family="'ArialMT'" font-size="10.169">G</text>
		</g>
	</g>
</g>
<g id="ID000140">
	<g transform="translate(302.026,246.528)">
		<g transform="rotate(-0.0)">
			<text transform="matrix(1 0 0 1 40.5804 31.2161)" fill="#FF870A" font-family="'ArialMT'" font-size="10.169">C</text>
		</g>
	</g>
</g>
<g id="ID000141">
	<line fill="none" stroke="#000000" stroke-width="0.5" x1="353.339" y1="272.98" x2="360.398" y2="272.98"/>
</g>
<g id="ID000142">
	<g transform="translate(310.358,246.528)">
		<g transform="rotate(-0.0)">
			<text transform="matrix(1 0 0 1 50.0404 31.2161)" font-family="'ArialMT'" font-size="8">190</text>
		</g>
	</g>
</g>
<g id="ID000143">
	<g transform="translate(302.026,240.280)">
		<g transform="rotate(-0.0)">
			<text transform="matrix(1 0 0 1 40.5804 26.8753)" fill="#FF870A" font-family="'ArialMT'" font-size="10.169">C</text>
		</g>
	</g>
</g>
<g id="ID000144">
	<g transform="translate(302.026,234.031)">
		<g transform="rotate(-0.0)">
			<text transform="matrix(1 0 0 1 40.5804 22.5334)" fill="#FF870A" font-family="'ArialMT'" font-size="10.169">U</text>
		</g>
	</g>
</g>
<g id="ID000145">
	<g transform="translate(302.026,227.782)">
		<g transform="rotate(-0.0)">
			<text transform="matrix(1 0 0 1 40.5804 18.1897)" fill="#FF870A" font-family="'ArialMT'" font-size="10.169">U</text>
		</g>
	</g>
</g>
<g id="ID000146">
	<g transform="translate(283.280,229.344)">
		<g transform="rotate(-0.0)">
			<text transform="matrix(1 0 0 1 27.2718 19.2751)" fill="#FF870A" font-family="'ArialMT'" font-size="10.169">G</text>
		</g>
	</g>
</g>
<g id="ID000147">
	<line fill="none" stroke="#000000" stroke-width="0.5" x1="309.515" y1="248.847" x2="304.522" y2="253.843"/>
</g>
<g id="ID000148">
	<g transform="translate(277.388,239.797)">
		<g transform="rotate(-0.0)">
			<text transform="matrix(1 0 0 1 16.6218 22.6981)" font-family="'ArialMT'" font-size="8">200</text>
		</g>
	</g>
</g>
<g id="ID000149">
	<g transform="translate(289.528,227.782)">
		<g transform="rotate(-0.0)">
			<text transform="matrix(1 0 0 1 32.178 18.1897)" fill="#FF870A" font-family="'ArialMT'" font-size="10.169">A</text>
		</g>
	</g>
</g>
<g id="ID000150">
	<g transform="translate(289.528,234.031)">
		<g transform="rotate(-0.0)">
			<text transform="matrix(1 0 0 1 32.178 22.5334)" fill="#FF870A" font-family="'ArialMT'" font-size="10.169">A</text>
		</g>
	</g>
</g>
<g id="ID000151">
	<g transform="translate(289.528,240.280)">
		<g transform="rotate(-0.0)">
			<text transform="matrix(1 0 0 1 31.6136 26.8753)" fill="#FF870A" font-family="'ArialMT'" font-size="10.169">G</text>
		</g>
	</g>
</g>
<g id="ID000152">
	<g transform="translate(289.528,246.528)">
		<g transform="rotate(-0.0)">
			<text transform="matrix(1 0 0 1 31.6136 31.2161)" fill="#FF870A" font-family="'ArialMT'" font-size="10.169">G</text>
		</g>
	</g>
</g>
<g id="ID000153">
	<g transform="translate(289.528,252.777)">
		<g transform="rotate(-0.0)">
			<text transform="matrix(1 0 0 1 31.8958 35.558)" fill="#FF870A" font-family="'ArialMT'" font-size="10.169">U</text>
		</g>
	</g>
</g>
<g id="ID000154">
	<line fill="none" stroke="#000000" stroke-width="0.5" x1="342.042" y1="309.52" x2="329.335" y2="309.52"/>
</g>
<g id="ID000155">
	<line fill="none" stroke="#000000" stroke-width="0.5" x1="342.042" y1="262.389" x2="329.335" y2="262.389"/>
</g>
<g id="ID000156">
	<line fill="none" stroke="#000000" stroke-width="0.5" x1="342.042" y1="251.799" x2="329.335" y2="251.799"/>
</g>
<g id="ID000159">
	<line fill="none" stroke="#000000" stroke-width="0.5" x1="342.042" y1="241.209" x2="329.335" y2="241.209"/>
</g>
<g id="ID000163">
	<g transform="translate(205.170,241.842)">
		<g transform="rotate(-0.0)">
			<text transform="matrix(1 0 0 1 -26.4386 27.9598)" fill="#80DB9E" font-family="'ArialMT'" font-size="10.169">A</text>
		</g>
	</g>
</g>
<g id="ID000164">
	<g transform="translate(212.981,241.842)">
		<g transform="rotate(-0.0)">
			<text transform="matrix(1 0 0 1 -21.0123 27.9598)" fill="#80DB9E" font-family="'ArialMT'" font-size="10.169">A</text>
		</g>
	</g>
</g>
<g id="ID000165">
	<g transform="translate(220.792,241.842)">
		<g transform="rotate(-0.0)">
			<text transform="matrix(1 0 0 1 -15.582 27.9598)" fill="#09FEFE" font-family="'ArialMT'" font-size="10.169">A</text>
		</g>
	</g>
</g>
<g id="ID000166">
	<g transform="translate(220.792,235.593)">
		<g transform="rotate(-0.0)">
			<text transform="matrix(1 0 0 1 -16.1475 23.6189)" fill="#09FEFE" font-family="'ArialMT'" font-size="10.169">G</text>
		</g>
	</g>
</g>
<g id="ID000167">
	<g transform="translate(220.792,229.344)">
		<g transform="rotate(-0.0)">
			<text transform="matrix(1 0 0 1 -16.1475 19.2751)" fill="#09FEFE" font-family="'ArialMT'" font-size="10.169">G</text>
		</g>
	</g>
</g>
<g id="ID000168">
	<g transform="translate(220.792,223.095)">
		<g transform="rotate(-0.0)">
			<text transform="matrix(1 0 0 1 -16.1475 14.9343)" fill="#09FEFE" font-family="'ArialMT'" font-size="10.169">G</text>
		</g>
	</g>
</g>
<g id="ID000169">
	<line fill="none" stroke="#000000" stroke-width="0.5" x1="201.54" y1="233.263" x2="194.48" y2="233.263"/>
</g>
<g id="ID000170">
	<g transform="translate(212.460,223.095)">
		<g transform="rotate(-0.0)">
			<text transform="matrix(1 0 0 1 -29.294 14.9343)" font-family="'ArialMT'" font-size="8">50</text>
		</g>
	</g>
</g>
<g id="ID000171">
	<g transform="translate(220.792,216.847)">
		<g transform="rotate(-0.0)">
			<text transform="matrix(1 0 0 1 -15.582 10.5925)" fill="#09FEFE" font-family="'ArialMT'" font-size="10.169">A</text>
		</g>
	</g>
</g>
<g id="ID000172">
	<g transform="translate(241.100,218.409)">
		<g transform="rotate(-0.0)">
			<text transform="matrix(1 0 0 1 -2.0365 11.6779)" fill="#09FEFE" font-family="'ArialMT'" font-size="10.169">G</text>
		</g>
	</g>
</g>
<g id="ID000173">
	<g transform="translate(241.100,226.220)">
		<g transform="rotate(-0.0)">
			<text transform="matrix(1 0 0 1 -1.4731 17.1042)" fill="#09FEFE" font-family="'ArialMT'" font-size="10.169">A</text>
		</g>
	</g>
</g>
<g id="ID000174">
	<g transform="translate(233.289,229.344)">
		<g transform="rotate(-0.0)">
			<text transform="matrix(1 0 0 1 -7.1816 19.2751)" fill="#09FEFE" font-family="'ArialMT'" font-size="10.169">C</text>
		</g>
	</g>
</g>
<g id="ID000175">
	<g transform="translate(233.289,235.593)">
		<g transform="rotate(-0.0)">
			<text transform="matrix(1 0 0 1 -7.1816 23.6189)" fill="#09FEFE" font-family="'ArialMT'" font-size="10.169">C</text>
		</g>
	</g>
</g>
<g id="ID000176">
	<g transform="translate(233.289,241.842)">
		<g transform="rotate(-0.0)">
			<text transform="matrix(1 0 0 1 -7.1816 27.9598)" fill="#09FEFE" font-family="'ArialMT'" font-size="10.169">U</text>
		</g>
	</g>
</g>
<g id="ID000177">
	<g transform="translate(233.289,248.091)">
		<g transform="rotate(-0.0)">
			<text transform="matrix(1 0 0 1 -7.4638 32.3016)" fill="#09FEFE" font-family="'ArialMT'" font-size="10.169">G</text>
		</g>
	</g>
</g>
<g id="ID000178">
	<line fill="none" stroke="#000000" stroke-width="0.5" x1="212.836" y1="265.038" x2="225.545" y2="265.038"/>
</g>
<g id="ID000179">
	<line fill="none" stroke="#000000" stroke-width="0.5" x1="212.836" y1="254.448" x2="225.545" y2="254.448"/>
</g>
<g id="ID000181">
	<g transform="translate(220.792,210.598)">
		<g transform="rotate(-0.0)">
			<text transform="matrix(1 0 0 1 -15.582 6.2506)" fill="#09FEFE" font-family="'ArialMT'" font-size="10.169">A</text>
		</g>
	</g>
</g>
<g id="ID000182">
	<g transform="translate(220.792,204.349)">
		<g transform="rotate(-0.0)">
			<text transform="matrix(1 0 0 1 -16.1475 1.9098)" fill="#09FEFE" font-family="'ArialMT'" font-size="10.169">G</text>
		</g>
	</g>
</g>
<g id="ID000183">
	<g transform="translate(220.792,198.100)">
		<g transform="rotate(-0.0)">
			<text transform="matrix(1 0 0 1 -15.582 -2.432)" fill="#09FEFE" font-family="'ArialMT'" font-size="10.169">A</text>
		</g>
	</g>
</g>
<g id="ID000184">
	<g transform="translate(220.792,191.851)">
		<g transform="rotate(-0.0)">
			<text transform="matrix(1 0 0 1 -15.8633 -6.7758)" fill="#09FEFE" font-family="'ArialMT'" font-size="10.169">C</text>
		</g>
	</g>
</g>
<g id="ID000185">
	<g transform="translate(220.792,185.603)">
		<g transform="rotate(-0.0)">
			<text transform="matrix(1 0 0 1 -16.1475 -11.1157)" fill="#09FEFE" font-family="'ArialMT'" font-size="10.169">G</text>
		</g>
	</g>
</g>
<g id="ID000186">
	<g transform="translate(220.792,179.354)">
		<g transform="rotate(-0.0)">
			<text transform="matrix(1 0 0 1 -16.1475 -15.4585)" fill="#09FEFE" font-family="'ArialMT'" font-size="10.169">G</text>
		</g>
	</g>
</g>
<g id="ID000187">
	<g transform="translate(220.792,173.105)">
		<g transform="rotate(-0.0)">
			<text transform="matrix(1 0 0 1 -16.1475 -19.7993)" fill="#09FEFE" font-family="'ArialMT'" font-size="10.169">G</text>
		</g>
	</g>
</g>
<g id="ID000188">
	<g transform="translate(220.792,162.170)">
		<g transform="rotate(-0.0)">
			<text transform="matrix(1 0 0 1 -15.8633 -23.3975)" fill="#09FEFE" font-family="'ArialMT'" font-size="10.169">U</text>
		</g>
	</g>
</g>
<g id="ID000189">
	<g transform="translate(220.792,154.359)">
		<g transform="rotate(-0.0)">
			<text transform="matrix(1 0 0 1 -16.1475 -28.8238)" fill="#09FEFE" font-family="'ArialMT'" font-size="10.169">G</text>
		</g>
	</g>
</g>
<g id="ID000190">
	<line fill="none" stroke="#000000" stroke-width="0.5" x1="201.54" y1="120.769" x2="194.48" y2="120.769"/>
</g>
<g id="ID000191">
	<g transform="translate(212.460,154.359)">
		<g transform="rotate(-0.0)">
			<text transform="matrix(1 0 0 1 -29.294 -28.8238)" font-family="'ArialMT'" font-size="8">60</text>
		</g>
	</g>
</g>
<g id="ID000192">
	<g transform="translate(227.040,148.110)">
		<g transform="rotate(-0.0)">
			<text transform="matrix(1 0 0 1 -11.2402 -33.1666)" fill="#09FEFE" font-family="'ArialMT'" font-size="10.169">A</text>
		</g>
	</g>
</g>
<g id="ID000193">
	<g transform="translate(233.289,154.359)">
		<g transform="rotate(-0.0)">
			<text transform="matrix(1 0 0 1 -7.4638 -28.8238)" fill="#09FEFE" font-family="'ArialMT'" font-size="10.169">G</text>
		</g>
	</g>
</g>
<g id="ID000194">
	<g transform="translate(233.289,162.170)">
		<g transform="rotate(-0.0)">
			<text transform="matrix(1 0 0 1 -6.8994 -23.3975)" fill="#09FEFE" font-family="'ArialMT'" font-size="10.169">A</text>
		</g>
	</g>
</g>
<g id="ID000195">
	<g transform="translate(239.538,165.294)">
		<g transform="rotate(-0.0)">
			<text transform="matrix(1 0 0 1 -2.5585 -23.2266)" fill="#09FEFE" font-family="'ArialMT'" font-size="10.169">A</text>
		</g>
	</g>
</g>
<g id="ID000196">
	<g transform="translate(239.538,171.543)">
		<g transform="rotate(-0.0)">
			<text transform="matrix(1 0 0 1 -2.8368 -18.8858)" fill="#09FEFE" font-family="'ArialMT'" font-size="10.169">U</text>
		</g>
	</g>
</g>
<g id="ID000197">
	<g transform="translate(233.289,173.105)">
		<g transform="rotate(-0.0)">
			<text transform="matrix(1 0 0 1 -7.1816 -19.7993)" fill="#09FEFE" font-family="'ArialMT'" font-size="10.169">C</text>
		</g>
	</g>
</g>
<g id="ID000198">
	<g transform="translate(233.289,179.354)">
		<g transform="rotate(-0.0)">
			<text transform="matrix(1 0 0 1 -7.1816 -15.4585)" fill="#09FEFE" font-family="'ArialMT'" font-size="10.169">C</text>
		</g>
	</g>
</g>
<g id="ID000199">
	<g transform="translate(233.289,185.603)">
		<g transform="rotate(-0.0)">
			<text transform="matrix(1 0 0 1 -7.1816 -11.1157)" fill="#09FEFE" font-family="'ArialMT'" font-size="10.169">C</text>
		</g>
	</g>
</g>
<g id="ID000200">
	<g transform="translate(233.289,191.851)">
		<g transform="rotate(-0.0)">
			<text transform="matrix(1 0 0 1 -7.4638 -6.7758)" fill="#09FEFE" font-family="'ArialMT'" font-size="10.169">G</text>
		</g>
	</g>
</g>
<g id="ID000201">
	<g transform="translate(242.662,194.976)">
		<g transform="rotate(-0.0)">
			<text transform="matrix(1 0 0 1 -0.3876 -4.603)" fill="#09FEFE" font-family="'ArialMT'" font-size="10.169">C</text>
		</g>
	</g>
</g>
<g id="ID000202">
	<line fill="none" stroke="#000000" stroke-width="0.5" x1="244.491" y1="192.279" x2="239.499" y2="197.269"/>
</g>
<g id="ID000203">
	<g transform="translate(236.771,205.429)">
		<g transform="rotate(-0.0)">
			<text transform="matrix(1 0 0 1 -5.6499 -1.2874)" font-family="'ArialMT'" font-size="8">70</text>
		</g>
	</g>
</g>
<g id="ID000204">
	<line fill="none" stroke="#000000" stroke-width="0.5" x1="211.797" y1="209.305" x2="266.299" y2="161.912"/>
</g>
<g id="ID000205">
	<polygon fill="#FFFFFF" stroke="#000000" stroke-width="0.5" points="241.124,183.803 236.447,184.713 239.574,188.308 	"/>
</g>
<g id="ID000206">
	<line fill="none" stroke="#000000" stroke-width="0.5" x1="212.836" y1="180.313" x2="225.545" y2="180.313"/>
</g>
<g id="ID000207">
	<line fill="none" stroke="#000000" stroke-width="0.5" x1="212.836" y1="169.723" x2="225.545" y2="169.723"/>
</g>
<g id="ID000208">
	<line fill="none" stroke="#000000" stroke-width="0.5" x1="212.836" y1="159.131" x2="225.545" y2="159.131"/>
</g>
<g id="ID000211">
	<line fill="none" stroke="#000000" stroke-width="0.5" x1="212.836" y1="148.539" x2="225.545" y2="148.539"/>
</g>
<g id="ID000213">
	<g transform="translate(250.473,191.851)">
		<g transform="rotate(-0.0)">
			<text transform="matrix(1 0 0 1 4.4752 -6.7758)" fill="#09FEFE" font-family="'ArialMT'" font-size="10.169">G</text>
		</g>
	</g>
</g>
<g id="ID000214">
	<g transform="translate(256.722,191.851)">
		<g transform="rotate(-0.0)">
			<text transform="matrix(1 0 0 1 9.1013 -6.7758)" fill="#09FEFE" font-family="'ArialMT'" font-size="10.169">C</text>
		</g>
	</g>
</g>
<g id="ID000215">
	<g transform="translate(256.722,171.543)">
		<g transform="rotate(-0.0)">
			<text transform="matrix(1 0 0 1 9.3835 -20.8858)" fill="#09FEFE" font-family="'ArialMT'" font-size="10.169">A</text>
		</g>
	</g>
</g>
<g id="ID000216">
	<g transform="translate(256.722,179.354)">
		<g transform="rotate(-0.0)">
			<text transform="matrix(1 0 0 1 8.819 -15.4585)" fill="#09FEFE" font-family="'ArialMT'" font-size="10.169">G</text>
		</g>
	</g>
</g>
<g id="ID000217">
	<g transform="translate(250.473,179.354)">
		<g transform="rotate(-0.0)">
			<text transform="matrix(1 0 0 1 4.7604 -15.4585)" fill="#09FEFE" font-family="'ArialMT'" font-size="10.169">C</text>
		</g>
	</g>
</g>
<g id="ID000218">
	<line fill="none" stroke="#000000" stroke-width="0.5" x1="258.905" y1="176.075" x2="258.905" y2="163.366"/>
</g>
<g id="ID000219">
	<line fill="none" stroke="#000000" x1="273.733" y1="180.313" x2="320.862" y2="180.313"/>
</g>
<g id="ID000220">
	<polygon stroke="#000000" stroke-width="0.5" points="287.587,177.136 289.355,178.724 291.119,179.252 292.882,179.519 
		296.414,180.312 292.882,181.107 291.119,181.37 289.355,181.9 287.587,183.49 	"/>
</g>
<g id="ID000221">
	<line fill="none" stroke="#000000" stroke-width="0.5" x1="269.496" y1="176.075" x2="269.496" y2="163.366"/>
</g>
<g id="ID000222">
	<polyline fill="none" stroke="#000000" points="258.905,154.894 258.905,119.416 325.097,119.416 325.097,133.714 	"/>
</g>
<g id="ID000223">
	<polygon stroke="#000000" stroke-width="0.5" points="288.471,116.239 290.237,117.827 292.002,118.357 293.766,118.622 
		297.298,119.416 293.766,120.21 292.002,120.476 290.237,121.004 288.471,122.594 	"/>
</g>
<g id="ID000225">
	<g transform="translate(289.528,191.851)">
		<g transform="rotate(-0.0)">
			<text transform="matrix(1 0 0 1 32.178 -6.7758)" fill="#FF870A" font-family="'ArialMT'" font-size="10.169">A</text>
		</g>
	</g>
</g>
<g id="ID000226">
	<g transform="translate(289.528,198.100)">
		<g transform="rotate(-0.0)">
			<text transform="matrix(1 0 0 1 31.6136 -2.432)" fill="#FF870A" font-family="'ArialMT'" font-size="10.169">G</text>
		</g>
	</g>
</g>
<g id="ID000227">
	<g transform="translate(280.155,196.538)">
		<g transform="rotate(-0.0)">
			<text transform="matrix(1 0 0 1 26.8636 -1.7641)" fill="#FF870A" font-family="'ArialMT'" font-size="10.169">C</text>
		</g>
	</g>
</g>
<g id="ID000228">
	<g transform="translate(302.026,198.100)">
		<g transform="rotate(-0.0)">
			<text transform="matrix(1 0 0 1 40.5804 -2.432)" fill="#FF870A" font-family="'ArialMT'" font-size="10.169">C</text>
		</g>
	</g>
</g>
<g id="ID000229">
	<g transform="translate(302.026,191.851)">
		<g transform="rotate(-0.0)">
			<text transform="matrix(1 0 0 1 40.5804 -6.7758)" fill="#FF870A" font-family="'ArialMT'" font-size="10.169">U</text>
		</g>
	</g>
</g>
<g id="ID000230">
	<g transform="translate(302.026,185.603)">
		<g transform="rotate(-0.0)">
			<text transform="matrix(1 0 0 1 40.8627 -11.1157)" fill="#09FEFE" font-family="'ArialMT'" font-size="10.169">A</text>
		</g>
	</g>
</g>
<g id="ID000231">
	<line fill="none" stroke="#000000" stroke-width="0.5" x1="329.335" y1="180.313" x2="342.042" y2="180.313"/>
</g>
<g id="ID000232">
	<line fill="none" stroke="#000000" stroke-width="0.5" x1="329.335" y1="190.902" x2="342.042" y2="190.902"/>
</g>
<g id="ID000233">
	<line fill="none" stroke="#000000" stroke-width="0.5" x1="342.042" y1="169.723" x2="329.335" y2="169.723"/>
</g>
<g id="ID000234">
	<polygon stroke="#000000" stroke-width="0.5" points="333.569,169.723 333.575,169.855 333.585,169.99 333.607,170.122 
		333.637,170.254 333.675,170.383 333.724,170.509 333.774,170.632 333.835,170.751 333.906,170.866 333.983,170.979 
		334.066,171.083 334.156,171.184 334.251,171.278 334.353,171.367 334.459,171.447 334.569,171.522 334.688,171.588 
		334.81,171.649 334.93,171.7 335.059,171.743 335.189,171.78 335.319,171.808 335.452,171.828 335.587,171.838 335.722,171.838 
		335.856,171.834 335.99,171.818 336.121,171.795 336.253,171.763 336.382,171.722 336.506,171.674 336.629,171.619 
		336.747,171.556 336.859,171.483 336.971,171.407 337.077,171.322 337.172,171.23 337.268,171.133 337.355,171.03 337.434,170.921 
		337.506,170.809 337.569,170.692 337.628,170.57 337.678,170.445 337.72,170.318 337.756,170.188 337.78,170.056 337.795,169.922 
		337.806,169.788 337.806,169.653 337.795,169.521 337.78,169.387 337.756,169.254 337.72,169.125 337.678,168.997 337.628,168.873 
		337.569,168.751 337.506,168.634 337.434,168.521 337.355,168.411 337.268,168.309 337.172,168.211 337.077,168.12 
		336.971,168.037 336.859,167.958 336.747,167.888 336.629,167.824 336.506,167.767 336.382,167.721 336.253,167.679 
		336.121,167.649 335.99,167.625 335.856,167.61 335.722,167.604 335.587,167.605 335.452,167.619 335.319,167.636 335.189,167.663 
		335.059,167.699 334.93,167.744 334.81,167.794 334.688,167.854 334.569,167.921 334.459,167.997 334.353,168.078 334.251,168.167 
		334.156,168.259 334.066,168.359 333.983,168.466 333.906,168.577 333.835,168.692 333.774,168.813 333.724,168.934 
		333.675,169.061 333.637,169.19 333.607,169.32 333.585,169.453 333.575,169.586 	"/>
</g>
<g id="ID000236">
	<g transform="translate(277.031,205.911)">
		<g transform="rotate(-0.0)">
			<text transform="matrix(1 0 0 1 23.2131 2.9943)" fill="#FF870A" font-family="'ArialMT'" font-size="10.169">C</text>
		</g>
	</g>
</g>
<g id="ID000237">
	<g transform="translate(283.280,205.911)">
		<g transform="rotate(-0.0)">
			<text transform="matrix(1 0 0 1 27.554 2.9943)" fill="#FF870A" font-family="'ArialMT'" font-size="10.169">C</text>
		</g>
	</g>
</g>
<g id="ID000238">
	<g transform="translate(289.528,205.911)">
		<g transform="rotate(-0.0)">
			<text transform="matrix(1 0 0 1 31.8958 2.9943)" fill="#FF870A" font-family="'ArialMT'" font-size="10.169">C</text>
		</g>
	</g>
</g>
<g id="ID000239">
	<g transform="translate(295.777,205.911)">
		<g transform="rotate(-0.0)">
			<text transform="matrix(1 0 0 1 36.2367 2.9943)" fill="#FF870A" font-family="'ArialMT'" font-size="10.169">C</text>
		</g>
	</g>
</g>
<g id="ID000240">
	<g transform="translate(302.026,205.911)">
		<g transform="rotate(-0.0)">
			<text transform="matrix(1 0 0 1 40.2972 2.9943)" fill="#FF870A" font-family="'ArialMT'" font-size="10.169">G</text>
		</g>
	</g>
</g>
<g id="ID000241">
	<line fill="none" stroke="#000000" stroke-width="0.5" x1="351.439" y1="204.142" x2="356.869" y2="199.63"/>
</g>
<g id="ID000242">
	<g transform="translate(310.358,205.911)">
		<g transform="rotate(-0.0)">
			<text transform="matrix(1 0 0 1 46.5111 -8.642)" font-family="'ArialMT'" font-size="8">80</text>
		</g>
	</g>
</g>
<g id="ID000243">
	<g transform="translate(302.026,218.409)">
		<g transform="rotate(-0.0)">
			<text transform="matrix(1 0 0 1 40.5804 11.6779)" fill="#FF870A" font-family="'ArialMT'" font-size="10.169">C</text>
		</g>
	</g>
</g>
<g id="ID000244">
	<g transform="translate(295.777,218.409)">
		<g transform="rotate(-0.0)">
			<text transform="matrix(1 0 0 1 35.9544 11.6779)" fill="#FF870A" font-family="'ArialMT'" font-size="10.169">G</text>
		</g>
	</g>
</g>
<g id="ID000245">
	<g transform="translate(289.528,218.409)">
		<g transform="rotate(-0.0)">
			<text transform="matrix(1 0 0 1 31.6136 11.6779)" fill="#FF870A" font-family="'ArialMT'" font-size="10.169">G</text>
		</g>
	</g>
</g>
<g id="ID000246">
	<g transform="translate(283.280,218.409)">
		<g transform="rotate(-0.0)">
			<text transform="matrix(1 0 0 1 27.2718 11.6779)" fill="#FF870A" font-family="'ArialMT'" font-size="10.169">G</text>
		</g>
	</g>
</g>
<g id="ID000247">
	<g transform="translate(277.031,218.409)">
		<g transform="rotate(-0.0)">
			<text transform="matrix(1 0 0 1 22.929 11.6779)" fill="#FF870A" font-family="'ArialMT'" font-size="10.169">G</text>
		</g>
	</g>
</g>
<g id="ID000248">
	<g transform="translate(275.469,226.220)">
		<g transform="rotate(-0.0)">
			<text transform="matrix(1 0 0 1 21.8455 17.1042)" fill="#FF870A" font-family="'ArialMT'" font-size="10.169">G</text>
		</g>
	</g>
</g>
<g id="ID000249">
	<line fill="none" stroke="#000000" stroke-width="0.5" x1="303.917" y1="208.377" x2="303.917" y2="221.085"/>
</g>
<g id="ID000250">
	<line fill="none" stroke="#000000" stroke-width="0.5" x1="314.507" y1="208.377" x2="314.507" y2="221.085"/>
</g>
<g id="ID000251">
	<line fill="none" stroke="#000000" stroke-width="0.5" x1="325.097" y1="208.377" x2="325.097" y2="221.085"/>
</g>
<g id="ID000252">
	<line fill="none" stroke="#000000" stroke-width="0.5" x1="335.687" y1="208.377" x2="335.687" y2="221.085"/>
</g>
<g id="ID000253">
	<line fill="none" stroke="#000000" stroke-width="0.5" x1="346.279" y1="208.377" x2="346.279" y2="221.085"/>
</g>
<g id="ID000255">
	<g transform="translate(302.026,179.354)">
		<g transform="rotate(-0.0)">
			<text transform="matrix(1 0 0 1 40.5804 -15.4585)" fill="#09FEFE" font-family="'ArialMT'" font-size="10.169">C</text>
		</g>
	</g>
</g>
<g id="ID000256">
	<g transform="translate(302.026,173.105)">
		<g transform="rotate(-0.0)">
			<text transform="matrix(1 0 0 1 40.5804 -19.7993)" fill="#09FEFE" font-family="'ArialMT'" font-size="10.169">U</text>
		</g>
	</g>
</g>
<g id="ID000257">
	<g transform="translate(302.026,166.856)">
		<g transform="rotate(-0.0)">
			<text transform="matrix(1 0 0 1 40.2972 -24.1412)" fill="#09FEFE" font-family="'ArialMT'" font-size="10.169">G</text>
		</g>
	</g>
</g>
<g id="ID000258">
	<g transform="translate(302.026,160.607)">
		<g transform="rotate(-0.0)">
			<text transform="matrix(1 0 0 1 40.5804 -28.4849)" fill="#09FEFE" font-family="'ArialMT'" font-size="10.169">U</text>
		</g>
	</g>
</g>
<g id="ID000259">
	<g transform="translate(302.026,154.359)">
		<g transform="rotate(-0.0)">
			<text transform="matrix(1 0 0 1 40.2972 -32.8238)" fill="#09FEFE" font-family="'ArialMT'" font-size="10.169">G</text>
		</g>
	</g>
</g>
<g id="ID000260">
	<g transform="translate(289.528,166.856)">
		<g transform="rotate(-0.0)">
			<text transform="matrix(1 0 0 1 31.8958 -24.1412)" fill="#09FEFE" font-family="'ArialMT'" font-size="10.169">C</text>
		</g>
	</g>
</g>
<g id="ID000261">
	<g transform="translate(289.528,173.105)">
		<g transform="rotate(-0.0)">
			<text transform="matrix(1 0 0 1 32.178 -19.7993)" fill="#09FEFE" font-family="'ArialMT'" font-size="10.169">A</text>
		</g>
	</g>
</g>
<g id="ID000262">
	<g transform="translate(289.528,179.354)">
		<g transform="rotate(-0.0)">
			<text transform="matrix(1 0 0 1 31.6136 -15.4585)" fill="#09FEFE" font-family="'ArialMT'" font-size="10.169">G</text>
		</g>
	</g>
</g>
<g id="ID000263">
	<line fill="none" stroke="#000000" stroke-width="0.5" x1="318.034" y1="159.131" x2="310.977" y2="159.131"/>
</g>
<g id="ID000264">
	<g transform="translate(281.197,179.354)">
		<g transform="rotate(-0.0)">
			<text transform="matrix(1 0 0 1 12.8128 -17.4424)" font-family="'ArialMT'" font-size="8">160</text>
		</g>
	</g>
</g>
<g id="ID000265">
	<g transform="translate(289.528,185.603)">
		<g transform="rotate(-0.0)">
			<text transform="matrix(1 0 0 1 31.6136 -11.1157)" fill="#09FEFE" font-family="'ArialMT'" font-size="10.169">G</text>
		</g>
	</g>
</g>
<g id="ID000266">
	<g transform="translate(241.100,212.160)">
		<g transform="rotate(-0.0)">
			<text transform="matrix(1 0 0 1 -1.4731 7.3361)" fill="#09FEFE" font-family="'ArialMT'" font-size="10.169">A</text>
		</g>
	</g>
</g>
<g id="ID000267">
	<line fill="none" stroke="#000000" stroke-width="0.5" x1="342.042" y1="159.131" x2="329.335" y2="159.131"/>
</g>
<g id="ID000268">
	<line fill="none" stroke="#000000" stroke-width="0.5" x1="342.042" y1="148.539" x2="329.335" y2="148.539"/>
</g>
<g id="ID000269">
	<line fill="none" stroke="#000000" stroke-width="0.5" x1="342.042" y1="137.949" x2="329.335" y2="137.949"/>
</g>
<g id="ID000271">
	<g transform="translate(159.866,315.265)">
		<g transform="rotate(-0.0)">
			<text transform="matrix(1 0 0 1 -58.1961 78.9772)" fill="#09FEFE" font-family="'ArialMT'" font-size="10.169">U</text>
		</g>
	</g>
</g>
<g id="ID000272">
	<g transform="translate(167.677,315.265)">
		<g transform="rotate(-0.0)">
			<text transform="matrix(1 0 0 1 -52.7688 78.9772)" fill="#09FEFE" font-family="'ArialMT'" font-size="10.169">U</text>
		</g>
	</g>
</g>
<g id="ID000273">
	<g transform="translate(173.926,315.265)">
		<g transform="rotate(-0.0)">
			<text transform="matrix(1 0 0 1 -48.1457 78.9772)" fill="#09FEFE" font-family="'ArialMT'" font-size="10.169">A</text>
		</g>
	</g>
</g>
<g id="ID000274">
	<g transform="translate(181.737,312.141)">
		<g transform="rotate(-0.0)">
			<text transform="matrix(1 0 0 1 -42.7194 76.8063)" fill="#09FEFE" font-family="'ArialMT'" font-size="10.169">A</text>
		</g>
	</g>
</g>
<g id="ID000275">
	<g transform="translate(181.737,304.330)">
		<g transform="rotate(-0.0)">
			<text transform="matrix(1 0 0 1 -42.7194 71.38)" fill="#09FEFE" font-family="'ArialMT'" font-size="10.169">A</text>
		</g>
	</g>
</g>
<g id="ID000276">
	<g transform="translate(175.488,301.205)">
		<g transform="rotate(-0.0)">
			<text transform="matrix(1 0 0 1 -47.6257 69.2061)" fill="#09FEFE" font-family="'ArialMT'" font-size="10.169">G</text>
		</g>
	</g>
</g>
<g id="ID000277">
	<g transform="translate(181.737,296.519)">
		<g transform="rotate(-0.0)">
			<text transform="matrix(1 0 0 1 -42.9997 65.9497)" fill="#09FEFE" font-family="'ArialMT'" font-size="10.169">C</text>
		</g>
	</g>
</g>
<g id="ID000278">
	<g transform="translate(181.737,290.270)">
		<g transform="rotate(-0.0)">
			<text transform="matrix(1 0 0 1 -42.9997 61.6089)" fill="#09FEFE" font-family="'ArialMT'" font-size="10.169">C</text>
		</g>
	</g>
</g>
<g id="ID000279">
	<line fill="none" stroke="#000000" stroke-width="0.5" x1="135.349" y1="347.114" x2="128.288" y2="347.114"/>
</g>
<g id="ID000280">
	<g transform="translate(173.405,290.270)">
		<g transform="rotate(-0.0)">
			<text transform="matrix(1 0 0 1 -56.4294 61.6089)" font-family="'ArialMT'" font-size="8">10</text>
		</g>
	</g>
</g>
<g id="ID000281">
	<g transform="translate(181.737,284.021)">
		<g transform="rotate(-0.0)">
			<text transform="matrix(1 0 0 1 -42.9997 57.2681)" fill="#09FEFE" font-family="'ArialMT'" font-size="10.169">U</text>
		</g>
	</g>
</g>
<g id="ID000282">
	<g transform="translate(181.737,277.772)">
		<g transform="rotate(-0.0)">
			<text transform="matrix(1 0 0 1 -42.9997 52.9262)" fill="#09FEFE" font-family="'ArialMT'" font-size="10.169">U</text>
		</g>
	</g>
</g>
<g id="ID000283">
	<g transform="translate(181.737,271.524)">
		<g transform="rotate(-0.0)">
			<text transform="matrix(1 0 0 1 -42.7194 48.5844)" fill="#09FEFE" font-family="'ArialMT'" font-size="10.169">A</text>
		</g>
	</g>
</g>
<g id="ID000284">
	<g transform="translate(194.234,271.524)">
		<g transform="rotate(-0.0)">
			<text transform="matrix(1 0 0 1 -34.317 48.5844)" fill="#09FEFE" font-family="'ArialMT'" font-size="10.169">U</text>
		</g>
	</g>
</g>
<g id="ID000285">
	<g transform="translate(194.234,277.772)">
		<g transform="rotate(-0.0)">
			<text transform="matrix(1 0 0 1 -34.0367 52.9262)" fill="#09FEFE" font-family="'ArialMT'" font-size="10.169">A</text>
		</g>
	</g>
</g>
<g id="ID000286">
	<g transform="translate(194.234,284.021)">
		<g transform="rotate(-0.0)">
			<text transform="matrix(1 0 0 1 -34.0367 57.2681)" fill="#09FEFE" font-family="'ArialMT'" font-size="10.169">A</text>
		</g>
	</g>
</g>
<g id="ID000287">
	<g transform="translate(194.234,290.270)">
		<g transform="rotate(-0.0)">
			<text transform="matrix(1 0 0 1 -34.6012 61.6089)" fill="#09FEFE" font-family="'ArialMT'" font-size="10.169">G</text>
		</g>
	</g>
</g>
<g id="ID000288">
	<g transform="translate(194.234,296.519)">
		<g transform="rotate(-0.0)">
			<text transform="matrix(1 0 0 1 -34.6012 65.9497)" fill="#09FEFE" font-family="'ArialMT'" font-size="10.169">G</text>
		</g>
	</g>
</g>
<g id="ID000289">
	<g transform="translate(194.234,304.330)">
		<g transform="rotate(-0.0)">
			<text transform="matrix(1 0 0 1 -34.317 71.38)" fill="#09FEFE" font-family="'ArialMT'" font-size="10.169">U</text>
		</g>
	</g>
</g>
<g id="ID000290">
	<g transform="translate(194.234,312.141)">
		<g transform="rotate(-0.0)">
			<text transform="matrix(1 0 0 1 -34.317 76.8063)" fill="#09FEFE" font-family="'ArialMT'" font-size="10.169">U</text>
		</g>
	</g>
</g>
<g id="ID000291">
	<line fill="none" stroke="#000000" stroke-width="0.5" x1="146.645" y1="384.184" x2="159.354" y2="384.184"/>
</g>
<g id="ID000292">
	<polygon stroke="#000000" stroke-width="0.5" points="155.118,384.184 155.114,384.046 155.101,383.914 155.08,383.778 
		155.049,383.648 155.012,383.523 154.966,383.396 154.913,383.271 154.852,383.152 154.782,383.036 154.706,382.928 
		154.622,382.818 154.533,382.719 154.436,382.628 154.335,382.538 154.228,382.457 154.117,382.382 154,382.314 153.88,382.254 
		153.757,382.201 153.629,382.158 153.5,382.125 153.368,382.096 153.234,382.076 153.101,382.064 152.967,382.063 152.831,382.071 
		152.699,382.085 152.566,382.107 152.435,382.14 152.308,382.18 152.181,382.229 152.06,382.285 151.942,382.346 151.826,382.419 
		151.719,382.497 151.612,382.579 151.514,382.671 151.422,382.769 151.334,382.871 151.255,382.98 151.182,383.092 151.118,383.21 
		151.06,383.331 151.009,383.457 150.967,383.586 150.933,383.714 150.907,383.848 150.891,383.979 150.882,384.113 
		150.882,384.248 150.891,384.383 150.907,384.516 150.933,384.648 150.967,384.778 151.009,384.905 151.06,385.029 
		151.118,385.151 151.182,385.269 151.255,385.383 151.334,385.491 151.422,385.596 151.514,385.69 151.612,385.782 
		151.719,385.867 151.826,385.945 151.942,386.018 152.06,386.078 152.181,386.135 152.308,386.184 152.435,386.222 
		152.566,386.256 152.699,386.276 152.831,386.294 152.967,386.299 153.101,386.296 153.234,386.286 153.368,386.268 153.5,386.238 
		153.629,386.203 153.757,386.16 153.88,386.108 154,386.047 154.117,385.982 154.228,385.908 154.335,385.825 154.436,385.738 
		154.533,385.643 154.622,385.543 154.706,385.439 154.782,385.326 154.852,385.211 154.913,385.091 154.966,384.969 
		155.012,384.844 155.049,384.713 155.08,384.583 155.101,384.449 155.114,384.315 	"/>
</g>
<g id="ID000293">
	<line fill="none" stroke="#000000" stroke-width="0.5" x1="146.645" y1="357.708" x2="159.354" y2="357.708"/>
</g>
<g id="ID000294">
	<line fill="none" stroke="#000000" stroke-width="0.5" x1="146.645" y1="347.114" x2="159.354" y2="347.114"/>
</g>
<g id="ID000295">
	<line fill="none" stroke="#000000" stroke-width="0.5" x1="146.645" y1="336.522" x2="159.354" y2="336.522"/>
</g>
<g id="ID000296">
	<line fill="none" stroke="#000000" stroke-width="0.5" x1="146.645" y1="325.933" x2="159.354" y2="325.933"/>
</g>
<g id="ID000298">
	<g transform="translate(302.026,148.110)">
		<g transform="rotate(-0.0)">
			<text transform="matrix(1 0 0 1 40.8627 -37.1666)" fill="#09FEFE" font-family="'ArialMT'" font-size="10.169">A</text>
		</g>
	</g>
</g>
<g id="ID000299">
	<g transform="translate(261.409,110.617)">
		<g transform="rotate(-0.0)">
			<text transform="matrix(1 0 0 1 12.0744 -63.2195)" fill="#FFAADC" font-family="'ArialMT'" font-size="10.169">G</text>
		</g>
	</g>
</g>
<g id="ID000300">
	<line fill="none" stroke="#000000" stroke-width="0.5" x1="277.552" y1="38.675" x2="277.329" y2="31.618"/>
</g>
<g id="ID000301">
	<g transform="translate(255.517,100.352)">
		<g transform="rotate(-0.0)">
			<text transform="matrix(1 0 0 1 18.357 -70.351)" font-family="'ArialMT'" font-size="8">90</text>
		</g>
	</g>
</g>
<g id="ID000302">
	<g transform="translate(255.160,110.617)">
		<g transform="rotate(-0.0)">
			<text transform="matrix(1 0 0 1 7.7336 -63.2195)" fill="#FFAADC" font-family="'ArialMT'" font-size="10.169">G</text>
		</g>
	</g>
</g>
<g id="ID000303">
	<g transform="translate(248.911,110.617)">
		<g transform="rotate(-0.0)">
			<text transform="matrix(1 0 0 1 3.3927 -63.2195)" fill="#FFAADC" font-family="'ArialMT'" font-size="10.169">G</text>
		</g>
	</g>
</g>
<g id="ID000304">
	<g transform="translate(242.662,110.617)">
		<g transform="rotate(-0.0)">
			<text transform="matrix(1 0 0 1 -0.3876 -63.2195)" fill="#FFAADC" font-family="'ArialMT'" font-size="10.169">A</text>
		</g>
	</g>
</g>
<g id="ID000305">
	<g transform="translate(236.414,110.617)">
		<g transform="rotate(-0.0)">
			<text transform="matrix(1 0 0 1 -5.2929 -63.2195)" fill="#FFAADC" font-family="'ArialMT'" font-size="10.169">G</text>
		</g>
	</g>
</g>
<g id="ID000306">
	<g transform="translate(230.165,110.617)">
		<g transform="rotate(-0.0)">
			<text transform="matrix(1 0 0 1 -9.6347 -63.2195)" fill="#FFAADC" font-family="'ArialMT'" font-size="10.169">G</text>
		</g>
	</g>
</g>
<g id="ID000307">
	<g transform="translate(223.916,110.617)">
		<g transform="rotate(-0.0)">
			<text transform="matrix(1 0 0 1 -13.4131 -63.2195)" fill="#FFAADC" font-family="'ArialMT'" font-size="10.169">A</text>
		</g>
	</g>
</g>
<g id="ID000308">
	<g transform="translate(216.105,110.617)">
		<g transform="rotate(-0.0)">
			<text transform="matrix(1 0 0 1 -19.1196 -63.2195)" fill="#FFAADC" font-family="'ArialMT'" font-size="10.169">C</text>
		</g>
	</g>
</g>
<g id="ID000309">
	<g transform="translate(208.294,110.617)">
		<g transform="rotate(-0.0)">
			<text transform="matrix(1 0 0 1 -24.8311 -63.2195)" fill="#FFAADC" font-family="'ArialMT'" font-size="10.169">G</text>
		</g>
	</g>
</g>
<g id="ID000310">
	<g transform="translate(202.045,110.617)">
		<g transform="rotate(-0.0)">
			<text transform="matrix(1 0 0 1 -28.6095 -63.2195)" fill="#FFAADC" font-family="'ArialMT'" font-size="10.169">A</text>
		</g>
	</g>
</g>
<g id="ID000311">
	<g transform="translate(195.797,110.617)">
		<g transform="rotate(-0.0)">
			<text transform="matrix(1 0 0 1 -32.9503 -63.2195)" fill="#FFAADC" font-family="'ArialMT'" font-size="10.169">A</text>
		</g>
	</g>
</g>
<g id="ID000313">
	<g transform="translate(201.688,100.352)">
		<g transform="rotate(-0.0)">
			<text transform="matrix(1 0 0 1 -43.9331 -70.351)" font-family="'ArialMT'" font-size="8">100</text>
		</g>
	</g>
</g>
<g id="ID000314">
	<g transform="translate(189.548,110.617)">
		<g transform="rotate(-0.0)">
			<text transform="matrix(1 0 0 1 -37.8546 -63.2195)" fill="#FFAADC" font-family="'ArialMT'" font-size="10.169">G</text>
		</g>
	</g>
</g>
<g id="ID000315">
	<g transform="translate(214.543,123.115)">
		<g transform="rotate(-0.0)">
			<text transform="matrix(1 0 0 1 -20.4883 -54.5339)" fill="#FFAADC" font-family="'ArialMT'" font-size="10.169">G</text>
		</g>
	</g>
</g>
<g id="ID000316">
	<g transform="translate(214.543,129.364)">
		<g transform="rotate(-0.0)">
			<text transform="matrix(1 0 0 1 -20.4883 -50.1921)" fill="#FFAADC" font-family="'ArialMT'" font-size="10.169">G</text>
		</g>
	</g>
</g>
<g id="ID000317">
	<g transform="translate(220.792,132.488)">
		<g transform="rotate(-0.0)">
			<text transform="matrix(1 0 0 1 -15.582 -48.0212)" fill="#FFAADC" font-family="'ArialMT'" font-size="10.169">A</text>
		</g>
	</g>
</g>
<g id="ID000318">
	<g transform="translate(225.478,129.364)">
		<g transform="rotate(-0.0)">
			<text transform="matrix(1 0 0 1 -12.6089 -50.1921)" fill="#FFAADC" font-family="'ArialMT'" font-size="10.169">U</text>
		</g>
	</g>
</g>
<g id="ID000319">
	<g transform="translate(223.916,123.115)">
		<g transform="rotate(-0.0)">
			<text transform="matrix(1 0 0 1 -13.9765 -54.5339)" fill="#FFAADC" font-family="'ArialMT'" font-size="10.169">G</text>
		</g>
	</g>
</g>
<g id="ID000320">
	<g transform="translate(230.165,123.115)">
		<g transform="rotate(-0.0)">
			<text transform="matrix(1 0 0 1 -9.0703 -54.5339)" fill="#FFAADC" font-family="'ArialMT'" font-size="10.169">A</text>
		</g>
	</g>
</g>
<g id="ID000321">
	<g transform="translate(236.414,123.115)">
		<g transform="rotate(-0.0)">
			<text transform="matrix(1 0 0 1 -5.2929 -54.5339)" fill="#FFAADC" font-family="'ArialMT'" font-size="10.169">G</text>
		</g>
	</g>
</g>
<g id="ID000322">
	<g transform="translate(242.662,123.115)">
		<g transform="rotate(-0.0)">
			<text transform="matrix(1 0 0 1 -0.6669 -54.5339)" fill="#FFAADC" font-family="'ArialMT'" font-size="10.169">U</text>
		</g>
	</g>
</g>
<g id="ID000323">
	<line fill="none" stroke="#000000" stroke-width="0.5" x1="245.666" y1="70.876" x2="245.666" y2="77.938"/>
</g>
<g id="ID000324">
	<g transform="translate(242.662,136.008)">
		<g transform="rotate(-0.0)">
			<text transform="matrix(1 0 0 1 -5.4804 -51.0114)" font-family="'ArialMT'" font-size="8">150</text>
		</g>
	</g>
</g>
<g id="ID000325">
	<g transform="translate(248.911,123.115)">
		<g transform="rotate(-0.0)">
			<text transform="matrix(1 0 0 1 3.6749 -54.5339)" fill="#FFAADC" font-family="'ArialMT'" font-size="10.169">C</text>
		</g>
	</g>
</g>
<g id="ID000326">
	<g transform="translate(255.160,123.115)">
		<g transform="rotate(-0.0)">
			<text transform="matrix(1 0 0 1 8.0158 -54.5339)" fill="#FFAADC" font-family="'ArialMT'" font-size="10.169">C</text>
		</g>
	</g>
</g>
<g id="ID000327">
	<g transform="translate(261.409,123.115)">
		<g transform="rotate(-0.0)">
			<text transform="matrix(1 0 0 1 12.3566 -54.5339)" fill="#FFAADC" font-family="'ArialMT'" font-size="10.169">C</text>
		</g>
	</g>
</g>
<g id="ID000328">
	<g transform="translate(256.722,163.732)">
		<g transform="rotate(-0.0)">
			<text transform="matrix(1 0 0 1 8.819 -26.3121)" fill="#09FEFE" font-family="'ArialMT'" font-size="10.169">G</text>
		</g>
	</g>
</g>
<g id="ID000329">
	<polyline fill="none" stroke="#000000" points="346.279,101.94 346.279,100.883 346.279,42.644 281.674,42.635 	"/>
</g>
<g id="ID000330">
	<polygon stroke="#000000" stroke-width="0.5" points="343.102,75.292 344.691,73.529 345.219,71.763 345.484,69.999 
		346.279,66.468 347.075,69.999 347.339,71.763 347.867,73.529 349.454,75.292 	"/>
</g>
<g id="ID000331">
	<line fill="none" stroke="#000000" stroke-width="0.5" x1="277.44" y1="46.872" x2="277.44" y2="59.58"/>
</g>
<g id="ID000332">
	<line fill="none" stroke="#000000" stroke-width="0.5" x1="266.849" y1="46.872" x2="266.849" y2="59.58"/>
</g>
<g id="ID000333">
	<line fill="none" stroke="#000000" stroke-width="0.5" x1="256.258" y1="46.872" x2="256.258" y2="59.58"/>
</g>
<g id="ID000334">
	<line fill="none" stroke="#000000" stroke-width="0.5" x1="235.078" y1="46.872" x2="235.078" y2="59.58"/>
</g>
<g id="ID000335">
	<polygon fill="#FFFFFF" stroke="#000000" stroke-width="0.5" points="235.078,47.721 232.694,51.847 237.461,51.847 	"/>
</g>
<g id="ID000336">
	<polygon fill="#FFFFFF" stroke="#000000" stroke-width="0.5" points="237.195,58.095 237.195,53.86 232.959,53.86 232.959,58.095 	
		"/>
</g>
<g id="ID000337">
	<line fill="none" stroke="#000000" stroke-width="0.5" x1="224.486" y1="46.872" x2="224.486" y2="59.58"/>
</g>
<g id="ID000338">
	<polygon fill="#FFFFFF" stroke="#000000" stroke-width="0.5" points="224.486,47.721 222.104,51.847 226.869,51.847 	"/>
</g>
<g id="ID000339">
	<polygon fill="#FFFFFF" stroke="#000000" stroke-width="0.5" points="226.606,58.095 226.606,53.86 222.369,53.86 222.369,58.095 	
		"/>
</g>
<g id="ID000340">
	<line fill="none" stroke="#000000" stroke-width="0.5" x1="213.896" y1="46.872" x2="213.896" y2="59.58"/>
</g>
<g id="ID000341">
	<polygon fill="#FFFFFF" stroke="#000000" stroke-width="0.5" points="211.777,48.354 211.777,52.588 216.014,52.588 
		216.014,48.354 	"/>
</g>
<g id="ID000342">
	<polygon fill="#FFFFFF" stroke="#000000" stroke-width="0.5" points="213.896,58.729 216.278,54.603 211.513,54.603 	"/>
</g>
<g id="ID000343">
	<line fill="none" stroke="#000000" stroke-width="0.5" x1="200.132" y1="46.838" x2="198.536" y2="59.613"/>
</g>
<g id="ID000344">
	<polygon stroke="#000000" stroke-width="0.5" points="199.071,55.327 199.205,55.339 199.338,55.343 199.472,55.339 
		199.606,55.325 199.74,55.304 199.87,55.273 200,55.234 200.125,55.189 200.249,55.134 200.367,55.073 200.482,55.004 
		200.594,54.926 200.7,54.843 200.799,54.754 200.893,54.659 200.981,54.557 201.063,54.449 201.137,54.336 201.204,54.22 
		201.262,54.1 201.314,53.976 201.357,53.848 201.393,53.719 201.419,53.588 201.438,53.453 201.449,53.319 201.452,53.187 
		201.445,53.051 201.431,52.918 201.406,52.787 201.375,52.655 201.334,52.527 201.284,52.401 201.229,52.279 201.166,52.161 
		201.096,52.047 201.018,51.938 200.93,51.834 200.838,51.735 200.742,51.642 200.639,51.557 200.53,51.477 200.417,51.405 
		200.3,51.339 200.178,51.284 200.052,51.233 199.925,51.19 199.795,51.157 199.662,51.132 199.53,51.117 199.396,51.108 
		199.26,51.108 199.126,51.117 198.993,51.134 198.861,51.161 198.732,51.195 198.604,51.236 198.479,51.286 198.357,51.345 
		198.241,51.409 198.128,51.483 198.02,51.563 197.917,51.65 197.82,51.743 197.729,51.841 197.646,51.947 197.568,52.055 
		197.496,52.17 197.434,52.289 197.378,52.412 197.33,52.537 197.291,52.666 197.26,52.796 197.235,52.929 197.221,53.063 
		197.215,53.196 197.218,53.332 197.229,53.465 197.249,53.598 197.276,53.73 197.314,53.859 197.358,53.985 197.409,54.11 
		197.469,54.229 197.537,54.348 197.611,54.458 197.693,54.565 197.781,54.666 197.877,54.762 197.976,54.85 198.083,54.933 
		198.193,55.009 198.308,55.079 198.428,55.14 198.552,55.192 198.678,55.238 198.807,55.277 198.938,55.307 	"/>
</g>
<g id="ID000346">
	<line fill="none" stroke="#000000" x1="321.385" y1="171.759" x2="246.734" y2="212.696"/>
</g>
<g id="ID000347">
	<polygon stroke="#000000" stroke-width="0.5" points="288.683,193.316 286.369,192.769 284.567,193.154 282.891,193.771 
		279.417,194.774 282.13,192.378 283.551,191.296 284.841,189.985 285.625,187.743 	"/>
</g>
<g id="ID000352">
	<line fill="none" stroke="#000000" x1="276.953" y1="68.024" x2="269.981" y2="128.446"/>
</g>
<g id="ID000353">
	<polygon stroke="#000000" stroke-width="0.5" points="277.03,95.093 275.248,96.663 274.519,98.356 274.056,100.08 272.86,103.495 
		272.478,99.897 272.417,98.114 272.093,96.299 270.718,94.363 	"/>
</g>
<text transform="matrix(1 0 0 1 6 21.1465)" font-family="'ArialMT'" font-size="20">AdoCbl riboswitch</text>
<g id="ID000211_1_">
	<line fill="none" stroke="#000000" stroke-width="0.5" x1="212.836" y1="134.772" x2="225.545" y2="134.772"/>
</g>
<g id="ID000154_1_">
	<line fill="none" stroke="#000000" stroke-width="0.5" x1="342.04" y1="298.927" x2="329.333" y2="298.927"/>
</g>
<g id="ID000154_2_">
	<line fill="none" stroke="#000000" stroke-width="0.5" x1="342.04" y1="274.305" x2="329.333" y2="274.305"/>
</g>
<g id="ID000063_1_">
	<polygon stroke="#000000" stroke-width="0.5" points="337.888,285.199 337.884,285.064 337.87,284.93 337.851,284.798 
		337.819,284.668 337.782,284.538 337.736,284.411 337.683,284.287 337.619,284.169 337.552,284.054 337.476,283.943 
		337.393,283.836 337.303,283.736 337.206,283.643 337.104,283.555 336.998,283.475 336.886,283.399 336.771,283.332 
		336.65,283.273 336.524,283.221 336.397,283.176 336.269,283.141 336.137,283.113 336.003,283.093 335.87,283.084 335.737,283.082 
		335.601,283.088 335.468,283.102 335.335,283.125 335.205,283.157 335.077,283.197 334.952,283.246 334.827,283.301 
		334.709,283.364 334.597,283.436 334.487,283.513 334.382,283.598 334.283,283.689 334.19,283.787 334.104,283.891 
		334.024,283.998 333.952,284.111 333.887,284.229 333.828,284.35 333.778,284.475 333.735,284.602 333.702,284.731 
		333.678,284.864 333.66,284.998 333.651,285.132 333.651,285.266 333.66,285.399 333.678,285.533 333.702,285.666 333.735,285.797 
		333.778,285.923 333.828,286.049 333.887,286.17 333.952,286.288 334.024,286.4 334.104,286.509 334.19,286.612 334.283,286.709 
		334.382,286.8 334.487,286.885 334.597,286.963 334.709,287.033 334.827,287.096 334.952,287.152 335.077,287.201 335.205,287.24 
		335.335,287.272 335.468,287.297 335.601,287.311 335.737,287.316 335.87,287.314 336.003,287.305 336.137,287.285 
		336.269,287.257 336.397,287.223 336.524,287.178 336.65,287.126 336.771,287.065 336.886,286.998 336.998,286.925 
		337.104,286.844 337.206,286.756 337.303,286.661 337.393,286.561 337.476,286.455 337.552,286.344 337.619,286.229 
		337.683,286.109 337.736,285.986 337.782,285.859 337.819,285.73 337.851,285.6 337.87,285.468 337.884,285.334 	"/>
</g>
<g>
	<g>
		<path fill="none" stroke="#FFAADC" d="M78.75,60c0-0.101,0-0.201,0.001-0.3"/>
		<path fill="none" stroke="#FFAADC" stroke-dasharray="0.5853,1.9509" d="M78.826,57.75c0.658-9.405,5.633-14.699,16.244-13.342"/>
		<path fill="none" stroke="#FFAADC" d="M96.037,44.548c0.098,0.016,0.197,0.032,0.296,0.049"/>
	</g>
</g>
<line fill="none" stroke="#80DB9E" stroke-dasharray="0.6,2" x1="142.41" y1="144.25" x2="142.41" y2="163.366"/>
<ellipse transform="matrix(0.9755 -0.2201 0.2201 0.9755 -41.9494 65.7106)" fill="#C40018" cx="273.875" cy="221.086" rx="24.08" ry="10.972"/>
<text transform="matrix(0.9755 -0.2201 0.2201 0.9755 255.834 229.6309)" fill="#FFFFFF" font-family="'ArialMT'" font-size="12">AdoCbl</text>
<text transform="matrix(1 0 0 1 94.0059 304.752)" fill="#09FEFE" font-family="'ArialMT'" font-size="16">P1</text>
<text transform="matrix(1 0 0 1 375.373 208.377)" fill="#FF870A" font-family="'ArialMT'" font-size="16">L5</text>
<text transform="matrix(1 0 0 1 371.041 241.209)" fill="#FF870A" font-family="'ArialMT'" font-size="16">L13</text>
<text transform="matrix(1 0 0 1 360.3984 224.791)" fill="#FF870A" font-family="'ArialMT'" font-size="16">KL</text>
<text transform="matrix(1 0 0 1 365.373 312.1641)" fill="#FF870A" font-family="'ArialMT'" font-size="16">P13</text>
<text transform="matrix(1 0 0 1 181.6792 171.7593)" fill="#09FEFE" font-family="'ArialMT'" font-size="16">P4</text>
<text transform="matrix(1 0 0 1 375.373 187.7432)" fill="#FF870A" font-family="'ArialMT'" font-size="16">P5</text>
<text transform="matrix(1 0 0 1 4 42.6353)"><tspan x="0" y="0" fill="#FFAADC" font-family="'ArialMT'" font-size="16">     P6 </tspan><tspan x="0" y="19.2" fill="#FFAADC" font-family="'ArialMT'" font-size="16">extension</tspan></text>
<text transform="matrix(1 0 0 1 100.1523 234.8535)" fill="#80DB9E" font-family="'ArialMT'" font-size="16">P2</text>
<text transform="matrix(1 0 0 1 375.373 163.3662)" fill="#09FEFE" font-family="'ArialMT'" font-size="16">P6</text>
<text transform="matrix(1 0 0 1 250.2578 269.8008)" fill="#09FEFE" font-family="'ArialMT'" font-size="16">P3</text>
<g id="ID000300_1_">
	<line fill="none" stroke="#000000" stroke-width="0.5" x1="166.349" y1="38.675" x2="166.126" y2="31.618"/>
</g>
<text transform="matrix(1 0 0 1 87.52 387.833)" font-family="'ArialMT'" font-size="12">5’</text>
<text transform="matrix(1 0 0 1 309.5156 357.707)" font-family="'ArialMT'" font-size="12">3’</text>
<path fill="none" stroke="#80DB9E" stroke-dasharray="0.6,2" d="M142.334,141.827c0-6.002,4.866-10.868,10.868-10.868
	s10.868,4.866,10.868,10.868"/>
<line fill="none" stroke="#80DB9E" stroke-dasharray="0.6,4" x1="170.651" y1="386.299" x2="346.279" y2="386.299"/>
<line fill="none" stroke="#FF870A" stroke-dasharray="0.6,4" x1="346.279" y1="347.114" x2="346.279" y2="386.299"/>
<g id="ID000333_1_">
	<line fill="none" stroke="#000000" stroke-width="0.5" x1="245.666" y1="47.506" x2="245.666" y2="60.214"/>
</g>
<g id="ID000331_1_">
	<line fill="none" stroke="#000000" stroke-width="0.5" x1="144.711" y1="47.824" x2="144.711" y2="60.532"/>
</g>
<g id="ID000332_1_">
	<line fill="none" stroke="#000000" stroke-width="0.5" x1="134.12" y1="47.824" x2="134.12" y2="60.532"/>
</g>
<line fill="none" stroke="#000000" stroke-width="0.5" x1="123.529" y1="47.824" x2="123.529" y2="60.532"/>
<g id="ID000333_2_">
	<line fill="none" stroke="#000000" stroke-width="0.5" x1="112.54" y1="47.824" x2="112.54" y2="60.532"/>
</g>
<g id="ID000062_1_">
	<polygon stroke="#000000" stroke-width="0.5" points="157.438,54.178 157.435,54.042 157.421,53.911 157.401,53.776 157.37,53.646 
		157.333,53.518 157.287,53.391 157.233,53.268 157.17,53.147 157.103,53.033 157.026,52.923 156.943,52.816 156.854,52.716 
		156.757,52.624 156.654,52.535 156.549,52.453 156.437,52.379 156.321,52.312 156.201,52.251 156.075,52.199 155.948,52.155 
		155.819,52.119 155.688,52.092 155.554,52.074 155.421,52.062 155.288,52.061 155.151,52.067 155.019,52.083 154.885,52.104 
		154.756,52.136 154.628,52.177 154.502,52.224 154.378,52.281 154.26,52.343 154.147,52.414 154.039,52.493 153.932,52.578 
		153.834,52.669 153.742,52.765 153.655,52.868 153.575,52.977 153.503,53.091 153.438,53.208 153.379,53.329 153.329,53.453 
		153.287,53.582 153.253,53.71 153.229,53.843 153.211,53.978 153.202,54.111 153.202,54.245 153.211,54.381 153.229,54.513 
		153.253,54.644 153.287,54.775 153.329,54.903 153.379,55.028 153.438,55.148 153.503,55.267 153.575,55.379 153.655,55.487 
		153.742,55.59 153.834,55.687 153.932,55.778 154.039,55.863 154.147,55.941 154.26,56.013 154.378,56.077 154.502,56.131 
		154.628,56.18 154.756,56.219 154.885,56.252 155.019,56.274 155.151,56.29 155.288,56.295 155.421,56.294 155.554,56.283 
		155.688,56.265 155.819,56.237 155.948,56.201 156.075,56.156 156.201,56.106 156.321,56.045 156.437,55.978 156.549,55.905 
		156.654,55.823 156.757,55.735 156.854,55.639 156.943,55.539 157.026,55.434 157.103,55.322 157.17,55.208 157.233,55.089 
		157.287,54.964 157.333,54.839 157.37,54.711 157.401,54.579 157.421,54.447 157.435,54.313 	"/>
</g>
<g id="ID000078_1_">
	<line fill="none" stroke="#000000" stroke-width="0.5" x1="146.645" y1="285.199" x2="159.354" y2="285.199"/>
</g>
<g id="ID000078_2_">
	<line fill="none" stroke="#000000" stroke-width="0.5" x1="146.645" y1="315.334" x2="159.354" y2="315.334"/>
</g>
<g id="ID000078_3_">
	<line fill="none" stroke="#000000" stroke-width="0.5" x1="146.645" y1="371.333" x2="159.354" y2="371.333"/>
</g>
<g id="ID000078_4_">
	<line fill="none" stroke="#000000" stroke-width="0.5" x1="212.836" y1="243.751" x2="225.546" y2="243.751"/>
</g>
</svg>
