<svg id="svg2403" xmlns="http://www.w3.org/2000/svg" viewBox="0 0 400 400"><defs><style>.cls-1{fill:#d7efc5;}.cls-17,.cls-18,.cls-2,.cls-22,.cls-3{fill:none;}.cls-10,.cls-11,.cls-17,.cls-18,.cls-2,.cls-4,.cls-8{stroke:#000;}.cls-2{stroke-width:1.44px;}.cls-3{stroke:#5c5c5c;}.cls-18,.cls-3{stroke-width:0.5px;}.cls-15,.cls-16,.cls-4,.cls-7{fill:#d90000;}.cls-10,.cls-11,.cls-17,.cls-22,.cls-4,.cls-8{stroke-width:0.72px;}.cls-12,.cls-13,.cls-14,.cls-15,.cls-16,.cls-19,.cls-30,.cls-5,.cls-6,.cls-7,.cls-9{isolation:isolate;font-family:ArialMT, Arial;}.cls-5{font-size:13.85px;}.cls-12,.cls-13,.cls-14,.cls-15,.cls-16,.cls-6,.cls-7,.cls-9{font-size:8.65px;}.cls-8{fill:#fff;}.cls-10,.cls-12,.cls-13,.cls-9{fill:#807b88;}.cls-16,.cls-9{letter-spacing:-0.02em;}.cls-13,.cls-14,.cls-15{letter-spacing:-0.06em;}.cls-19{font-size:6.92px;}.cls-20{fill:#070000;}.cls-21{fill:#221e1f;}.cls-22{stroke:#060000;stroke-miterlimit:10;}.cls-23{fill:#c62b2b;}.cls-24{fill:#7f7b86;}.cls-25{fill:gray;}.cls-26{fill:#c0292a;}.cls-27{fill:#0a0303;}.cls-28{fill:#d0e1ae;}.cls-29{fill:#060000;}.cls-30{font-size:20px;}</style></defs><path class="cls-1" d="M222.23,132.32h20.85v6.21H222.23Z"/><path class="cls-2" d="M230.41,135.43h4.49"/><path class="cls-1" d="M222.23,123.6h20.85v6.21H222.23Z"/><path class="cls-2" d="M230.41,126.7h4.49"/><path class="cls-1" d="M222.23,114.87h20.85v6.22H222.23Z"/><path class="cls-2" d="M230.41,118h4.49"/><path class="cls-1" d="M222.23,106.15h20.85v6.21H222.23Z"/><path class="cls-2" d="M230.41,109.26h4.49"/><path class="cls-1" d="M222.23,97.43h20.85v6.21H222.23Z"/><path class="cls-2" d="M230.41,100.53h4.49"/><path class="cls-2" d="M230.41,91.81h4.49"/><path class="cls-2" d="M230.41,83.08h4.49"/><path class="cls-1" d="M210.2,73.71h0L211.7,53l7.15.52-1.51,20.75Z"/><path class="cls-2" d="M214.36,65.82l.32-4.47"/><path class="cls-1" d="M201.49,73.07h0L203,52.32l7.15.52-1.51,20.75Z"/><path class="cls-2" d="M205.66,65.19l.32-4.47"/><path class="cls-1" d="M192.79,72.44h0l1.51-20.75,7.15.52L199.94,73Z"/><path class="cls-2" d="M197,64.56l.32-4.47"/><path class="cls-1" d="M257.07,62.57h0l-8.28,20.8L242,80.68l8.28-20.8Z"/><path class="cls-2" d="M250.38,69.54l-1.66,4.17"/><path class="cls-1" d="M265.17,65.79h0L256.9,86.6l-6.77-2.7,8.28-20.8Z"/><path class="cls-2" d="M258.48,72.76l-1.66,4.17"/><path class="cls-2" d="M266.59,76l-1.66,4.17"/><path class="cls-1" d="M297.46,55.44h0l19.9,11.7-3.7,6.28-19.89-11.7Z"/><path class="cls-2" d="M303.63,63.29l3.87,2.28"/><path class="cls-1" d="M301.89,47.92h0l19.89,11.7-3.69,6.28L298.2,54.2Z"/><path class="cls-2" d="M308.05,55.77l3.87,2.28"/><path class="cls-1" d="M306.31,40.4h0L326.2,52.1l-3.69,6.28-19.89-11.7Z"/><path class="cls-2" d="M312.48,48.26l3.86,2.27"/><path class="cls-1" d="M310.73,32.88h0l19.89,11.71-3.69,6.27L307,39.16Z"/><path class="cls-2" d="M316.9,40.74,320.76,43"/><path class="cls-1" d="M315.15,25.36h0l19.9,11.71-3.69,6.27-19.89-11.7Z"/><path class="cls-2" d="M321.32,33.22l3.87,2.27"/><path class="cls-1" d="M324.78,89.51h0l-8.27,20.8-6.77-2.69L318,86.82Z"/><path class="cls-2" d="M318.09,96.48l-1.66,4.17"/><path class="cls-1" d="M332.89,92.73h0l-8.28,20.8-6.76-2.69L326.12,90Z"/><path class="cls-2" d="M326.2,99.7l-1.66,4.17"/><path class="cls-2" d="M334.3,102.93l-1.66,4.17"/><path class="cls-2" d="M296,115.76l-4.47.36"/><path class="cls-1" d="M305.35,127.14h0l-21.27,1.72-.54-6.72,21.27-1.72Z"/><path class="cls-2" d="M296.68,124.46l-4.47.36"/><path class="cls-2" d="M297.39,133.15l-4.48.36"/><path class="cls-1" d="M308.35,164.25h0L287.09,166l-.55-6.71,21.27-1.72Z"/><path class="cls-2" d="M299.69,161.57l-4.48.37"/><path class="cls-1" d="M309.06,173h0l-21.27,1.72-.54-6.72,21.27-1.72Z"/><path class="cls-2" d="M300.39,170.27l-4.47.36"/><path class="cls-1" d="M309.76,181.64h0l-21.27,1.72-.54-6.71,21.27-1.72Z"/><path class="cls-2" d="M301.09,179l-4.47.37"/><path class="cls-1" d="M310.46,190.34h0l-21.26,1.72-.55-6.72,21.27-1.71Z"/><path class="cls-2" d="M301.8,187.66l-4.48.36"/><path class="cls-1" d="M314.18,236.29h0L292.91,238l-.54-6.71,21.27-1.72Z"/><path class="cls-2" d="M305.51,233.61,301,234"/><path class="cls-1" d="M314.88,245h0l-21.27,1.72-.54-6.72,21.27-1.72Z"/><path class="cls-2" d="M306.21,242.31l-4.47.36"/><path class="cls-1" d="M315.59,253.68h0l-21.27,1.72-.54-6.71L315,247Z"/><path class="cls-2" d="M306.92,251l-4.47.37"/><path class="cls-1" d="M316.29,262.38h0L295,264.1l-.54-6.72,21.27-1.72Z"/><path class="cls-2" d="M307.62,259.7l-4.47.36"/><path class="cls-1" d="M317,271.07h0l-21.27,1.72-.54-6.71,21.27-1.72Z"/><path class="cls-2" d="M308.33,268.4l-4.48.36"/><path class="cls-1" d="M317.7,279.77h0l-21.27,1.72-.54-6.71,21.26-1.72Z"/><path class="cls-2" d="M309,277.09l-4.48.36"/><path class="cls-1" d="M318.4,288.46h0l-21.27,1.72-.54-6.71,21.27-1.72Z"/><path class="cls-2" d="M309.73,285.79l-4.47.36"/><path class="cls-1" d="M319.1,297.16h0l-21.27,1.72-.54-6.71,21.27-1.72Z"/><path class="cls-2" d="M310.43,294.48l-4.47.36"/><path class="cls-2" d="M311.14,303.18l-4.48.36"/><path class="cls-1" d="M321.09,321.72h0l-21.27,1.72-.54-6.72L320.55,315Z"/><path class="cls-2" d="M312.42,319l-4.47.36"/><path class="cls-1" d="M321.79,330.41h0l-21.27,1.72-.54-6.71,21.27-1.72Z"/><path class="cls-2" d="M313.12,327.73l-4.47.36"/><path class="cls-1" d="M322.5,339.11h0l-21.27,1.72-.55-6.72L322,332.39Z"/><path class="cls-2" d="M313.83,336.43l-4.48.36"/><path class="cls-1" d="M323.2,347.81h0l-21.27,1.72-.54-6.72,21.27-1.72Z"/><path class="cls-2" d="M314.53,345.13l-4.47.36"/><path class="cls-1" d="M323.9,356.5h0l-21.27,1.72-.54-6.71,21.27-1.73Z"/><path class="cls-2" d="M315.23,353.82l-4.47.36"/><path class="cls-1" d="M324.61,365.2h0l-21.27,1.72-.55-6.72,21.27-1.72Z"/><path class="cls-2" d="M315.94,362.52l-4.48.36"/><path class="cls-3" d="M318,68.75a33,33,0,0,1,6.44,18.78"/><path class="cls-3" d="M271,149.59A18.59,18.59,0,0,1,282.12,131"/><path class="cls-4" d="M109,141.6a3,3,0,1,1-2.95-3A2.95,2.95,0,0,1,109,141.6Z"/><path class="cls-4" d="M117.69,141.6a2.95,2.95,0,1,1-3-2.95A2.94,2.94,0,0,1,117.69,141.6Z"/><path class="cls-4" d="M126.41,141.6a3,3,0,1,1-3-3A2.95,2.95,0,0,1,126.41,141.6Z"/><path class="cls-4" d="M135.13,141.6a3,3,0,1,1-2.95-3A2.95,2.95,0,0,1,135.13,141.6Z"/><path class="cls-4" d="M143.86,141.6a2.95,2.95,0,1,1-3-2.95A2.93,2.93,0,0,1,143.86,141.6Z"/><path class="cls-4" d="M152.58,141.6a3,3,0,1,1-3-3A2.95,2.95,0,0,1,152.58,141.6Z"/><path class="cls-4" d="M161.31,141.6a3,3,0,1,1-2.95-3A2.95,2.95,0,0,1,161.31,141.6Z"/><path class="cls-4" d="M170,141.6a3,3,0,1,1-2.95-2.95A2.93,2.93,0,0,1,170,141.6Z"/><path class="cls-4" d="M178.76,141.6a3,3,0,1,1-2.95-2.95A2.95,2.95,0,0,1,178.76,141.6Z"/><path class="cls-4" d="M187.48,141.6a3,3,0,1,1-2.95-3A2.95,2.95,0,0,1,187.48,141.6Z"/><path class="cls-4" d="M196.2,141.6a2.95,2.95,0,1,1-2.95-2.95A2.93,2.93,0,0,1,196.2,141.6Z"/><path class="cls-4" d="M204.93,141.6a3,3,0,1,1-3-2.95A2.94,2.94,0,0,1,204.93,141.6Z"/><path class="cls-4" d="M213.65,141.6a3,3,0,1,1-3-3A2.95,2.95,0,0,1,213.65,141.6Z"/><path class="cls-4" d="M222.38,141.6a3,3,0,1,1-2.95-2.95A2.94,2.94,0,0,1,222.38,141.6Z"/><path class="cls-4" d="M228.54,135.43a3,3,0,0,1-5.9,0,3,3,0,1,1,5.9,0Z"/><path class="cls-4" d="M228.54,126.7a3,3,0,1,1-2.94-2.94A2.95,2.95,0,0,1,228.54,126.7Z"/><path class="cls-4" d="M228.54,118a3,3,0,0,1-5.9,0,3,3,0,1,1,5.9,0Z"/><path class="cls-4" d="M228.54,109.26a3,3,0,1,1-2.94-3A2.94,2.94,0,0,1,228.54,109.26Z"/><text class="cls-5" transform="translate(222.23 103.64)"><tspan xml:space="preserve">   </tspan></text><text class="cls-6" transform="translate(222.23 103.64)">G</text><text class="cls-5" transform="translate(228.96 103.64)"> </text><text class="cls-5" transform="translate(222.23 94.92)"><tspan xml:space="preserve">   </tspan></text><text class="cls-7" transform="translate(222.23 94.92)">G</text><text class="cls-5" transform="translate(228.96 94.92)"> </text><text class="cls-5" transform="translate(222.47 86.19)"><tspan xml:space="preserve">   </tspan></text><text class="cls-6" transform="translate(222.47 86.19)">U</text><text class="cls-5" transform="translate(228.72 86.19)"> </text><path class="cls-8" d="M221.32,78.19a3,3,0,1,1-2.94-3A2.95,2.95,0,0,1,221.32,78.19Z"/><text class="cls-5" transform="translate(211.13 73.74)"><tspan xml:space="preserve">   </tspan></text><text class="cls-9" transform="translate(211.13 73.74)">Y</text><text class="cls-5" transform="translate(216.9 73.74)"> </text><text class="cls-5" transform="translate(202.42 73.11)"><tspan xml:space="preserve">   </tspan></text><text class="cls-9" transform="translate(202.42 73.11)">Y</text><text class="cls-5" transform="translate(208.2 73.11)"> </text><text class="cls-5" transform="translate(193.72 72.48)"><tspan xml:space="preserve">   </tspan></text><text class="cls-9" transform="translate(193.72 72.48)">Y</text><text class="cls-5" transform="translate(199.5 72.48)"> </text><path class="cls-4" d="M194.36,76.37a3,3,0,1,1-3-3A3,3,0,0,1,194.36,76.37Z"/><path class="cls-4" d="M186.71,80.57a3,3,0,1,1-3-2.95A2.95,2.95,0,0,1,186.71,80.57Z"/><path class="cls-10" d="M178,81.21a2.95,2.95,0,1,1-2.95-2.95A2.95,2.95,0,0,1,178,81.21Z"/><path class="cls-8" d="M169.83,78.17a3,3,0,1,1-3-3A2.95,2.95,0,0,1,169.83,78.17Z"/><path class="cls-11" d="M163.66,72a3,3,0,1,1-2.95-3A2.95,2.95,0,0,1,163.66,72Z"/><path class="cls-11" d="M160.62,63.83a3,3,0,1,1-3-2.95A3,3,0,0,1,160.62,63.83Z"/><path class="cls-11" d="M161.25,55.13a2.95,2.95,0,1,1-2.95-3A3,3,0,0,1,161.25,55.13Z"/><path class="cls-10" d="M165.44,47.48a2.95,2.95,0,1,1-2.95-2.95A2.95,2.95,0,0,1,165.44,47.48Z"/><path class="cls-8" d="M172.44,42.27a2.95,2.95,0,1,1-2.95-3A2.95,2.95,0,0,1,172.44,42.27Z"/><path class="cls-8" d="M181,40.45a3,3,0,1,1-2.95-3A2.95,2.95,0,0,1,181,40.45Z"/><path class="cls-8" d="M189.49,42.34a2.95,2.95,0,1,1-3-3A3,3,0,0,1,189.49,42.34Z"/><path class="cls-8" d="M196.44,47.6a3,3,0,1,1-2.91-2.92A2.94,2.94,0,0,1,196.44,47.6Z"/><text class="cls-5" transform="translate(194.51 58.39)"><tspan xml:space="preserve">   </tspan></text><text class="cls-12" transform="translate(194.51 58.39)">R</text><text class="cls-5" transform="translate(200.76 58.39)"> </text><text class="cls-5" transform="translate(203.21 59.02)"><tspan xml:space="preserve">   </tspan></text><text class="cls-12" transform="translate(203.21 59.02)">R</text><text class="cls-5" transform="translate(209.46 59.02)"> </text><text class="cls-5" transform="translate(211.91 59.65)"><tspan xml:space="preserve">   </tspan></text><text class="cls-12" transform="translate(211.91 59.65)">R</text><text class="cls-5" transform="translate(218.16 59.65)"> </text><text class="cls-5" transform="translate(217.55 52.81)"><tspan xml:space="preserve">   </tspan></text><text class="cls-9" transform="translate(217.55 52.81)">Y</text><text class="cls-5" transform="translate(223.33 52.81)"> </text><path class="cls-11" d="M231.24,45.9a3,3,0,1,1-3-3A2.95,2.95,0,0,1,231.24,45.9Z"/><text class="cls-5" transform="translate(234.13 49)"><tspan xml:space="preserve">   </tspan></text><text class="cls-13" transform="translate(234.13 49)">A</text><text class="cls-5" transform="translate(239.9 49)"> </text><text class="cls-5" transform="translate(241.98 52.81)"><tspan xml:space="preserve">   </tspan></text><text class="cls-14" transform="translate(241.98 52.81)">A</text><text class="cls-5" transform="translate(247.75 52.81)"> </text><path class="cls-11" d="M253.23,56.54a3,3,0,1,1-2.95-2.94A3,3,0,0,1,253.23,56.54Z"/><text class="cls-5" transform="translate(249.03 68.17)"><tspan xml:space="preserve">   </tspan></text><text class="cls-12" transform="translate(249.03 68.17)">R</text><text class="cls-5" transform="translate(255.28 68.17)"> </text><text class="cls-5" transform="translate(256.9 71.39)"><tspan xml:space="preserve">   </tspan></text><text class="cls-6" transform="translate(256.9 71.39)">G</text><text class="cls-5" transform="translate(263.63 71.39)"> </text><text class="cls-5" transform="translate(265 74.62)"><tspan xml:space="preserve">   </tspan></text><text class="cls-7" transform="translate(265 74.62)">G</text><text class="cls-5" transform="translate(271.73 74.62)"> </text><text class="cls-5" transform="translate(271.15 68.42)"><tspan xml:space="preserve">   </tspan></text><text class="cls-7" transform="translate(271.15 68.42)">G</text><text class="cls-5" transform="translate(277.88 68.42)"> </text><text class="cls-5" transform="translate(279.35 64.37)"><tspan xml:space="preserve">   </tspan></text><text class="cls-15" transform="translate(279.35 64.37)">A</text><text class="cls-5" transform="translate(285.12 64.37)"> </text><text class="cls-5" transform="translate(287.94 62.83)"><tspan xml:space="preserve">   </tspan></text><text class="cls-15" transform="translate(287.94 62.83)">A</text><text class="cls-5" transform="translate(293.71 62.83)"> </text><path class="cls-4" d="M302.43,60.85a2.95,2.95,0,1,1-2.95-3A2.95,2.95,0,0,1,302.43,60.85Z"/><path class="cls-4" d="M306.85,53.33a3,3,0,1,1-3-2.95A2.95,2.95,0,0,1,306.85,53.33Z"/><text class="cls-5" transform="translate(305.44 48.92)"><tspan xml:space="preserve">   </tspan></text><text class="cls-9" transform="translate(305.44 48.92)">Y</text><text class="cls-5" transform="translate(311.21 48.92)"> </text><text class="cls-5" transform="translate(309.38 41.4)"><tspan xml:space="preserve">   </tspan></text><text class="cls-6" transform="translate(309.38 41.4)">G</text><text class="cls-5" transform="translate(316.11 41.4)"> </text><text class="cls-5" transform="translate(313.8 33.88)"><tspan xml:space="preserve">   </tspan></text><text class="cls-6" transform="translate(313.8 33.88)">G</text><text class="cls-5" transform="translate(320.53 33.88)"> </text><text class="cls-5" transform="translate(312.56 25.28)"><tspan xml:space="preserve">   </tspan></text><text class="cls-12" transform="translate(312.56 25.28)">U</text><text class="cls-5" transform="translate(318.81 25.28)"> </text><text class="cls-5" transform="translate(316.33 17.54)"><tspan xml:space="preserve">   </tspan></text><text class="cls-12" transform="translate(316.33 17.54)">G</text><text class="cls-5" transform="translate(323.06 17.54)"> </text><path class="cls-4" d="M330.53,10.69a3,3,0,1,1-2.94-2.94A2.95,2.95,0,0,1,330.53,10.69Z"/><text class="cls-5" transform="translate(332.99 15.59)"><tspan xml:space="preserve">   </tspan></text><text class="cls-12" transform="translate(332.99 15.59)">R</text><text class="cls-5" transform="translate(339.25 15.59)"> </text><text class="cls-5" transform="translate(338.95 22.19)"><tspan xml:space="preserve">   </tspan></text><text class="cls-14" transform="translate(338.95 22.19)">A</text><text class="cls-5" transform="translate(344.72 22.19)"> </text><path class="cls-4" d="M345.35,27.78a3,3,0,1,1-3-3A3,3,0,0,1,345.35,27.78Z"/><path class="cls-4" d="M340.53,35.06a2.95,2.95,0,1,1-2.95-3A2.95,2.95,0,0,1,340.53,35.06Z"/><text class="cls-5" transform="translate(326.22 41.04)"><tspan xml:space="preserve">   </tspan></text><text class="cls-6" transform="translate(326.22 41.04)">C</text><text class="cls-5" transform="translate(332.47 41.04)"> </text><text class="cls-5" transform="translate(321.8 48.56)"><tspan xml:space="preserve">   </tspan></text><text class="cls-6" transform="translate(321.8 48.56)">C</text><text class="cls-5" transform="translate(328.05 48.56)"> </text><text class="cls-5" transform="translate(317.37 56.08)"><tspan xml:space="preserve">   </tspan></text><text class="cls-12" transform="translate(317.37 56.08)">R</text><text class="cls-5" transform="translate(323.62 56.08)"> </text><path class="cls-4" d="M319,60.49a2.95,2.95,0,1,1-2.95-3A2.95,2.95,0,0,1,319,60.49Z"/><path class="cls-4" d="M314.6,68a3,3,0,1,1-2.94-2.94A3,3,0,0,1,314.6,68Z"/><text class="cls-5" transform="translate(313.71 78.13)"><tspan xml:space="preserve">   </tspan></text><text class="cls-7" transform="translate(313.71 78.13)">R</text><text class="cls-5" transform="translate(319.96 78.13)"> </text><text class="cls-5" transform="translate(316.54 86.39)"><tspan xml:space="preserve">   </tspan></text><text class="cls-7" transform="translate(316.54 86.39)">C</text><text class="cls-5" transform="translate(322.79 86.39)"> </text><path class="cls-4" d="M322.83,92a3,3,0,0,1-5.91,0h0a3,3,0,0,1,5.91,0Z"/><text class="cls-5" transform="translate(324.61 98.33)"><tspan xml:space="preserve">   </tspan></text><text class="cls-6" transform="translate(324.61 98.33)">G</text><text class="cls-5" transform="translate(331.34 98.33)"> </text><text class="cls-5" transform="translate(333.2 101.56)"><tspan xml:space="preserve">   </tspan></text><text class="cls-9" transform="translate(333.2 101.56)">Y</text><text class="cls-5" transform="translate(338.97 101.56)"> </text><path class="cls-8" d="M347.73,99.21a3,3,0,1,1-3-2.95A3,3,0,0,1,347.73,99.21Z"/><text class="cls-5" transform="translate(346.23 109.75)"><tspan xml:space="preserve">   </tspan></text><text class="cls-7" transform="translate(346.23 109.75)">C</text><text class="cls-5" transform="translate(352.48 109.75)"> </text><text class="cls-5" transform="translate(343 117.85)"><tspan xml:space="preserve">   </tspan></text><text class="cls-6" transform="translate(343 117.85)">C</text><text class="cls-5" transform="translate(349.25 117.85)"> </text><text class="cls-5" transform="translate(334.58 120.1)"><tspan xml:space="preserve">   </tspan></text><text class="cls-6" transform="translate(334.58 120.1)">C</text><text class="cls-5" transform="translate(340.83 120.1)"> </text><text class="cls-5" transform="translate(327.5 114.68)"><tspan xml:space="preserve">   </tspan></text><text class="cls-7" transform="translate(327.5 114.68)">G</text><text class="cls-5" transform="translate(334.23 114.68)"> </text><text class="cls-5" transform="translate(319.63 111.46)"><tspan xml:space="preserve">   </tspan></text><text class="cls-6" transform="translate(319.63 111.46)">C</text><text class="cls-5" transform="translate(325.88 111.46)"> </text><path class="cls-4" d="M317.6,105.13a3,3,0,1,1-2.94-2.95A2.94,2.94,0,0,1,317.6,105.13Z"/><text class="cls-5" transform="translate(305.62 114.43)"><tspan xml:space="preserve">   </tspan></text><text class="cls-13" transform="translate(305.62 114.43)">A</text><text class="cls-5" transform="translate(311.39 114.43)"> </text><text class="cls-5" transform="translate(297.66 118.48)"><tspan xml:space="preserve">   </tspan></text><text class="cls-7" transform="translate(297.66 118.48)">C</text><text class="cls-5" transform="translate(303.91 118.48)"> </text><text class="cls-5" transform="translate(298.36 127.18)"><tspan xml:space="preserve">   </tspan></text><text class="cls-12" transform="translate(298.36 127.18)">U</text><text class="cls-5" transform="translate(304.61 127.18)"> </text><text class="cls-5" transform="translate(298.82 135.87)"><tspan xml:space="preserve">   </tspan></text><text class="cls-7" transform="translate(298.82 135.87)">G</text><text class="cls-5" transform="translate(305.55 135.87)"> </text><text class="cls-5" transform="translate(305.97 141.2)"><tspan xml:space="preserve">   </tspan></text><text class="cls-7" transform="translate(305.97 141.2)">U</text><text class="cls-5" transform="translate(312.22 141.2)"> </text><text class="cls-5" transform="translate(309.03 149.37)"><tspan xml:space="preserve">   </tspan></text><text class="cls-6" transform="translate(309.03 149.37)">R</text><text class="cls-5" transform="translate(315.28 149.37)"> </text><text class="cls-5" transform="translate(307.56 157.92)"><tspan xml:space="preserve">   </tspan></text><text class="cls-13" transform="translate(307.56 157.92)">A</text><text class="cls-5" transform="translate(313.34 157.92)"> </text><text class="cls-5" transform="translate(301.36 164.29)"><tspan xml:space="preserve">   </tspan></text><text class="cls-12" transform="translate(301.36 164.29)">R</text><text class="cls-5" transform="translate(307.61 164.29)"> </text><text class="cls-5" transform="translate(302.31 172.99)"><tspan xml:space="preserve">   </tspan></text><text class="cls-9" transform="translate(302.31 172.99)">Y</text><text class="cls-5" transform="translate(308.08 172.99)"> </text><text class="cls-5" transform="translate(302.53 181.68)"><tspan xml:space="preserve">   </tspan></text><text class="cls-12" transform="translate(302.53 181.68)">G</text><text class="cls-5" transform="translate(309.26 181.68)"> </text><text class="cls-5" transform="translate(303.47 190.38)"><tspan xml:space="preserve">   </tspan></text><text class="cls-12" transform="translate(303.47 190.38)">R</text><text class="cls-5" transform="translate(309.72 190.38)"> </text><path class="cls-4" d="M317.59,190.66a2.95,2.95,0,1,1-2.95-2.95A2.95,2.95,0,0,1,317.59,190.66Z"/><text class="cls-5" transform="translate(317.82 199.79)"><tspan xml:space="preserve">   </tspan></text><text class="cls-12" transform="translate(317.82 199.79)">R</text><text class="cls-5" transform="translate(324.07 199.79)"> </text><text class="cls-5" transform="translate(321.58 207.67)"><tspan xml:space="preserve">   </tspan></text><text class="cls-12" transform="translate(321.58 207.67)">R</text><text class="cls-5" transform="translate(327.83 207.67)"> </text><path class="cls-4" d="M328.35,213.26a3,3,0,1,1-2.94-2.95A2.95,2.95,0,0,1,328.35,213.26Z"/><path class="cls-4" d="M325.92,221.63a3,3,0,1,1-2.95-2.94A3,3,0,0,1,325.92,221.63Z"/><path class="cls-4" d="M320.66,228.59a2.95,2.95,0,0,1-5.9,0h0a3,3,0,0,1,5.9,0Z"/><path class="cls-4" d="M313.27,233.23a3,3,0,1,1-2.95-3A3,3,0,0,1,313.27,233.23Z"/><path class="cls-4" d="M314,241.92a3,3,0,1,1-3-2.94A3,3,0,0,1,314,241.92Z"/><path class="cls-4" d="M314.67,250.62a3,3,0,1,1-2.94-3A2.94,2.94,0,0,1,314.67,250.62Z"/><path class="cls-4" d="M315.38,259.31a3,3,0,1,1-2.95-2.95A3,3,0,0,1,315.38,259.31Z"/><path class="cls-4" d="M316.08,268a2.95,2.95,0,1,1-2.95-2.95A2.95,2.95,0,0,1,316.08,268Z"/><path class="cls-4" d="M316.78,276.7a3,3,0,1,1-2.94-2.94A2.95,2.95,0,0,1,316.78,276.7Z"/><path class="cls-4" d="M323.14,270.73a2.95,2.95,0,1,1-5.9,0h0a2.95,2.95,0,1,1,5.9,0Z"/><path class="cls-11" d="M331.78,272a3,3,0,0,1-5.91,0h0a3,3,0,0,1,5.91,0Z"/><path class="cls-4" d="M336.18,279.51a3,3,0,0,1-5.9,0,3,3,0,1,1,5.9,0Z"/><path class="cls-11" d="M333,287.65a2.95,2.95,0,1,1-3-2.95A2.95,2.95,0,0,1,333,287.65Z"/><path class="cls-8" d="M324.72,290.27a3,3,0,1,1-2.94-2.95A3,3,0,0,1,324.72,290.27Z"/><text class="cls-5" transform="translate(311.17 288.51)"><tspan xml:space="preserve">   </tspan></text><text class="cls-12" transform="translate(311.17 288.51)">G</text><text class="cls-5" transform="translate(317.9 288.51)"> </text><text class="cls-5" transform="translate(312.11 297.2)"><tspan xml:space="preserve">   </tspan></text><text class="cls-12" transform="translate(312.11 297.2)">C</text><text class="cls-5" transform="translate(318.36 297.2)"> </text><text class="cls-5" transform="translate(312.82 305.9)"><tspan xml:space="preserve">   </tspan></text><text class="cls-7" transform="translate(312.82 305.9)">C</text><text class="cls-5" transform="translate(319.07 305.9)"> </text><text class="cls-5" transform="translate(317.26 313.54)"><tspan xml:space="preserve">   </tspan></text><text class="cls-15" transform="translate(317.26 313.54)">A</text><text class="cls-5" transform="translate(323.03 313.54)"> </text><text class="cls-5" transform="translate(314.1 321.76)"><tspan xml:space="preserve">   </tspan></text><text class="cls-7" transform="translate(314.1 321.76)">C</text><text class="cls-5" transform="translate(320.35 321.76)"> </text><text class="cls-5" transform="translate(314.8 330.45)"><tspan xml:space="preserve">   </tspan></text><text class="cls-6" transform="translate(314.8 330.45)">U</text><text class="cls-5" transform="translate(321.05 330.45)"> </text><text class="cls-5" transform="translate(315.26 339.15)"><tspan xml:space="preserve">   </tspan></text><text class="cls-6" transform="translate(315.26 339.15)">G</text><text class="cls-5" transform="translate(322 339.15)"> </text><text class="cls-5" transform="translate(316.21 347.84)"><tspan xml:space="preserve">   </tspan></text><text class="cls-12" transform="translate(316.21 347.84)">R</text><text class="cls-5" transform="translate(322.46 347.84)"> </text><path class="cls-11" d="M323,353.43a3,3,0,1,1-5.9,0h0a2.95,2.95,0,0,1,5.9,0Z"/><path class="cls-10" d="M323.69,362.13a2.95,2.95,0,1,1-2.95-2.95A2.94,2.94,0,0,1,323.69,362.13Z"/><path class="cls-8" d="M329.17,368.91a2.95,2.95,0,1,1-5.9,0h0a2.95,2.95,0,1,1,5.9,0Z"/><path class="cls-10" d="M328.8,377.63a3,3,0,1,1-2.95-2.95A2.95,2.95,0,0,1,328.8,377.63Z"/><path class="cls-11" d="M322.74,383.91a3,3,0,1,1-2.94-3A2.95,2.95,0,0,1,322.74,383.91Z"/><path class="cls-11" d="M314.05,384.61a3,3,0,1,1-2.95-2.94A3,3,0,0,1,314.05,384.61Z"/><path class="cls-11" d="M307.06,379.39a2.95,2.95,0,1,1-2.95-2.95A2.95,2.95,0,0,1,307.06,379.39Z"/><path class="cls-8" d="M305.29,370.84a3,3,0,1,1-2.94-2.94A3,3,0,0,1,305.29,370.84Z"/><path class="cls-10" d="M309.61,363.27a3,3,0,1,1-2.95-2.95A2.95,2.95,0,0,1,309.61,363.27Z"/><path class="cls-11" d="M308.91,354.57a2.95,2.95,0,1,1-3-2.95,2.95,2.95,0,0,1,3,2.95Z"/><text class="cls-5" transform="translate(302.37 348.98)"><tspan xml:space="preserve">   </tspan></text><text class="cls-9" transform="translate(302.37 348.98)">Y</text><text class="cls-5" transform="translate(308.14 348.98)"> </text><text class="cls-5" transform="translate(301.67 340.29)"><tspan xml:space="preserve">   </tspan></text><text class="cls-16" transform="translate(301.67 340.29)">Y</text><text class="cls-5" transform="translate(307.44 340.29)"> </text><text class="cls-5" transform="translate(300.48 331.59)"><tspan xml:space="preserve">   </tspan></text><text class="cls-7" transform="translate(300.48 331.59)">G</text><text class="cls-5" transform="translate(307.21 331.59)"> </text><text class="cls-5" transform="translate(299.78 322.9)"><tspan xml:space="preserve">   </tspan></text><text class="cls-7" transform="translate(299.78 322.9)">G</text><text class="cls-5" transform="translate(306.51 322.9)"> </text><text class="cls-5" transform="translate(291.06 323.25)"><tspan xml:space="preserve">   </tspan></text><text class="cls-7" transform="translate(291.06 323.25)">G</text><text class="cls-5" transform="translate(297.79 323.25)"> </text><text class="cls-5" transform="translate(286.68 316.01)"><tspan xml:space="preserve">   </tspan></text><text class="cls-15" transform="translate(286.68 316.01)">A</text><text class="cls-5" transform="translate(292.45 316.01)"> </text><text class="cls-5" transform="translate(290.31 308.08)"><tspan xml:space="preserve">   </tspan></text><text class="cls-15" transform="translate(290.31 308.08)">A</text><text class="cls-5" transform="translate(296.09 308.08)"> </text><text class="cls-5" transform="translate(298.5 307.03)"><tspan xml:space="preserve">   </tspan></text><text class="cls-7" transform="translate(298.5 307.03)">G</text><text class="cls-5" transform="translate(305.23 307.03)"> </text><text class="cls-5" transform="translate(297.79 298.34)"><tspan xml:space="preserve">   </tspan></text><text class="cls-12" transform="translate(297.79 298.34)">G</text><text class="cls-5" transform="translate(304.53 298.34)"> </text><text class="cls-5" transform="translate(297.57 289.64)"><tspan xml:space="preserve">   </tspan></text><text class="cls-9" transform="translate(297.57 289.64)">Y</text><text class="cls-5" transform="translate(303.34 289.64)"> </text><path class="cls-4" d="M302.7,277.84a2.95,2.95,0,1,1-2.95-2.95A2.95,2.95,0,0,1,302.7,277.84Z"/><path class="cls-4" d="M302,269.15a2.95,2.95,0,1,1-2.95-2.95A2.95,2.95,0,0,1,302,269.15Z"/><path class="cls-4" d="M301.3,260.45a2.95,2.95,0,1,1-2.95-2.95A2.95,2.95,0,0,1,301.3,260.45Z"/><path class="cls-4" d="M300.6,251.76a3,3,0,1,1-3-2.95A3,3,0,0,1,300.6,251.76Z"/><path class="cls-4" d="M299.89,243.06a2.95,2.95,0,1,1-2.95-2.95A3,3,0,0,1,299.89,243.06Z"/><path class="cls-4" d="M299.19,234.36a2.95,2.95,0,1,1-2.95-3A2.95,2.95,0,0,1,299.19,234.36Z"/><path class="cls-4" d="M290.8,236.77a2.95,2.95,0,1,1-2.95-3A2.95,2.95,0,0,1,290.8,236.77Z"/><path class="cls-4" d="M282.1,236.12a3,3,0,1,1-5.9,0h0a3,3,0,0,1,5.9,0Z"/><path class="cls-4" d="M274.17,232.5a2.95,2.95,0,1,1-5.9,0h0a2.95,2.95,0,0,1,5.9,0Z"/><path class="cls-4" d="M268,226.35a3,3,0,1,1-3-2.95A2.95,2.95,0,0,1,268,226.35Z"/><text class="cls-5" transform="translate(258.23 221.54)"><tspan xml:space="preserve">   </tspan></text><text class="cls-12" transform="translate(258.23 221.54)">R</text><text class="cls-5" transform="translate(264.48 221.54)"> </text><path class="cls-11" d="M263.6,209.74a3,3,0,1,1-5.9,0h0a3,3,0,0,1,5.9,0Z"/><path class="cls-11" d="M266,201.34a3,3,0,1,1-2.95-3A2.95,2.95,0,0,1,266,201.34Z"/><path class="cls-11" d="M271.08,194.27a3,3,0,1,1-3-3A3,3,0,0,1,271.08,194.27Z"/><path class="cls-10" d="M278.33,189.42a3,3,0,1,1-2.95-2.94A3,3,0,0,1,278.33,189.42Z"/><path class="cls-8" d="M286.81,187.38a2.95,2.95,0,1,1-2.95-2.95A3,3,0,0,1,286.81,187.38Z"/><text class="cls-5" transform="translate(289.63 191.52)"><tspan xml:space="preserve">   </tspan></text><text class="cls-9" transform="translate(289.63 191.52)">Y</text><text class="cls-5" transform="translate(295.41 191.52)"> </text><text class="cls-5" transform="translate(288.69 182.82)"><tspan xml:space="preserve">   </tspan></text><text class="cls-12" transform="translate(288.69 182.82)">C</text><text class="cls-5" transform="translate(294.94 182.82)"> </text><text class="cls-5" transform="translate(287.99 174.13)"><tspan xml:space="preserve">   </tspan></text><text class="cls-12" transform="translate(287.99 174.13)">R</text><text class="cls-5" transform="translate(294.24 174.13)"> </text><text class="cls-5" transform="translate(287.52 165.43)"><tspan xml:space="preserve">   </tspan></text><text class="cls-9" transform="translate(287.52 165.43)">Y</text><text class="cls-5" transform="translate(293.3 165.43)"> </text><text class="cls-5" transform="translate(278.82 163.3)"><tspan xml:space="preserve">   </tspan></text><text class="cls-6" transform="translate(278.82 163.3)">R</text><text class="cls-5" transform="translate(285.08 163.3)"> </text><text class="cls-5" transform="translate(273.43 156.64)"><tspan xml:space="preserve">   </tspan></text><text class="cls-15" transform="translate(273.43 156.64)">A</text><text class="cls-5" transform="translate(279.2 156.64)"> </text><text class="cls-5" transform="translate(272.24 147.95)"><tspan xml:space="preserve">   </tspan></text><text class="cls-7" transform="translate(272.24 147.95)">G</text><text class="cls-5" transform="translate(278.97 147.95)"> </text><text class="cls-5" transform="translate(277.22 140.47)"><tspan xml:space="preserve">   </tspan></text><text class="cls-16" transform="translate(277.22 140.47)">Y</text><text class="cls-5" transform="translate(282.99 140.47)"> </text><text class="cls-5" transform="translate(284.99 137.01)"><tspan xml:space="preserve">   </tspan></text><text class="cls-7" transform="translate(284.99 137.01)">C</text><text class="cls-5" transform="translate(291.24 137.01)"> </text><text class="cls-5" transform="translate(284.52 128.32)"><tspan xml:space="preserve">   </tspan></text><text class="cls-13" transform="translate(284.52 128.32)">A</text><text class="cls-5" transform="translate(290.29 128.32)"> </text><text class="cls-5" transform="translate(283.34 119.62)"><tspan xml:space="preserve">   </tspan></text><text class="cls-7" transform="translate(283.34 119.62)">G</text><text class="cls-5" transform="translate(290.07 119.62)"> </text><text class="cls-5" transform="translate(275.06 116.86)"><tspan xml:space="preserve">   </tspan></text><text class="cls-12" transform="translate(275.06 116.86)">G</text><text class="cls-5" transform="translate(281.79 116.86)"> </text><text class="cls-5" transform="translate(268.48 111.73)"><tspan xml:space="preserve">   </tspan></text><text class="cls-15" transform="translate(268.48 111.73)">A</text><text class="cls-5" transform="translate(274.26 111.73)"> </text><text class="cls-5" transform="translate(262.82 104.72)"><tspan xml:space="preserve">   </tspan></text><text class="cls-12" transform="translate(262.82 104.72)">G</text><text class="cls-5" transform="translate(269.55 104.72)"> </text><text class="cls-5" transform="translate(260.47 96.47)"><tspan xml:space="preserve">   </tspan></text><text class="cls-15" transform="translate(260.47 96.47)">A</text><text class="cls-5" transform="translate(266.24 96.47)"> </text><text class="cls-5" transform="translate(260.02 87.74)"><tspan xml:space="preserve">   </tspan></text><text class="cls-7" transform="translate(260.02 87.74)">C</text><text class="cls-5" transform="translate(266.27 87.74)"> </text><text class="cls-5" transform="translate(251.92 84.52)"><tspan xml:space="preserve">   </tspan></text><text class="cls-6" transform="translate(251.92 84.52)">C</text><text class="cls-5" transform="translate(258.17 84.52)"> </text><text class="cls-5" transform="translate(244.05 81.29)"><tspan xml:space="preserve">   </tspan></text><text class="cls-9" transform="translate(244.05 81.29)">Y</text><text class="cls-5" transform="translate(249.82 81.29)"> </text><text class="cls-5" transform="translate(236.35 86.19)"><tspan xml:space="preserve">   </tspan></text><text class="cls-6" transform="translate(236.35 86.19)">G</text><text class="cls-5" transform="translate(243.08 86.19)"> </text><text class="cls-5" transform="translate(236.59 94.92)"><tspan xml:space="preserve">   </tspan></text><text class="cls-7" transform="translate(236.59 94.92)">C</text><text class="cls-5" transform="translate(242.84 94.92)"> </text><text class="cls-5" transform="translate(236.59 103.64)"><tspan xml:space="preserve">   </tspan></text><text class="cls-6" transform="translate(236.59 103.64)">C</text><text class="cls-5" transform="translate(242.84 103.64)"> </text><path class="cls-4" d="M242.67,109.26a2.95,2.95,0,1,1-2.95-3A2.95,2.95,0,0,1,242.67,109.26Z"/><path class="cls-4" d="M242.67,118a3,3,0,1,1-5.9,0h0a2.95,2.95,0,1,1,5.9,0Z"/><path class="cls-4" d="M242.67,126.7a3,3,0,1,1-5.9,0h0a2.95,2.95,0,1,1,5.9,0Z"/><path class="cls-4" d="M242.67,135.43a2.95,2.95,0,1,1-2.95-3A2.95,2.95,0,0,1,242.67,135.43Z"/><path class="cls-4" d="M248.84,141.6a3,3,0,1,1-3-3A3,3,0,0,1,248.84,141.6Z"/><path class="cls-4" d="M257.56,141.6a3,3,0,1,1-2.94-2.95A2.95,2.95,0,0,1,257.56,141.6Z"/><path class="cls-4" d="M266.28,141.6a3,3,0,1,1-2.94-2.95A2.94,2.94,0,0,1,266.28,141.6Z"/><path class="cls-4" d="M275,141.6a2.95,2.95,0,1,1-2.95-2.95A3,3,0,0,1,275,141.6Z"/><path class="cls-4" d="M283.73,141.6a3,3,0,1,1-3-3A2.95,2.95,0,0,1,283.73,141.6Z"/><path class="cls-4" d="M292.46,141.6a3,3,0,1,1-2.95-3A3,3,0,0,1,292.46,141.6Z"/><path class="cls-4" d="M301.18,141.6a3,3,0,1,1-2.95-3A2.95,2.95,0,0,1,301.18,141.6Z"/><path class="cls-4" d="M309.9,141.6a3,3,0,1,1-2.95-3A2.95,2.95,0,0,1,309.9,141.6Z"/><path class="cls-4" d="M318.63,141.6a2.95,2.95,0,1,1-2.95-2.95A3,3,0,0,1,318.63,141.6Z"/><path class="cls-4" d="M327.35,141.6a3,3,0,1,1-2.94-2.95A2.95,2.95,0,0,1,327.35,141.6Z"/><path class="cls-4" d="M336.08,141.6a3,3,0,1,1-3-3A3,3,0,0,1,336.08,141.6Z"/><path class="cls-4" d="M344.8,141.6a3,3,0,1,1-2.95-3A2.95,2.95,0,0,1,344.8,141.6Z"/><path class="cls-4" d="M353.52,141.6a3,3,0,1,1-2.95-3A2.95,2.95,0,0,1,353.52,141.6Z"/><path class="cls-17" d="M97.29,141.6h4.36"/><path class="cls-18" d="M271.4,143.85l-4.5-1"/><path class="cls-18" d="M320.67,73l4.08-2.15"/><text class="cls-5" transform="translate(250.21 140.97)"><tspan xml:space="preserve">   </tspan></text><text class="cls-19" transform="translate(250.21 140.97)">pk_1</text><text class="cls-5" transform="translate(265.22 140.97)"> </text><text class="cls-5" transform="translate(326.29 68.64)"><tspan xml:space="preserve">   </tspan></text><text class="cls-19" transform="translate(326.29 68.64)">pk_1</text><text class="cls-5" transform="translate(341.3 68.64)"> </text><text class="cls-5" transform="translate(89.09 144.7)"><tspan xml:space="preserve">   </tspan></text><text class="cls-6" transform="translate(89.09 144.7)">5&apos;</text><text class="cls-5" transform="translate(95.56 144.7)"> </text><text class="cls-5" transform="translate(80.41 366.08)"><tspan xml:space="preserve">   </tspan></text><text class="cls-5" transform="translate(80.41 366.08)">pk_1</text><text class="cls-5" transform="translate(110.43 366.08)"> </text><path class="cls-1" d="M90.31,378.86h20.86v6.21H90.31Z"/><path class="cls-2" d="M98.5,382H103"/><path class="cls-2" d="M98.5,390.69H103"/><path class="cls-3" d="M89.35,377.6v17.45"/><path class="cls-3" d="M112.13,395.05V377.61"/><text class="cls-5" transform="translate(90.55 385.07)"><tspan xml:space="preserve">   </tspan></text><text class="cls-7" transform="translate(90.55 385.07)">R</text><text class="cls-5" transform="translate(96.8 385.07)"> </text><text class="cls-5" transform="translate(90.55 393.8)"><tspan xml:space="preserve">   </tspan></text><text class="cls-7" transform="translate(90.55 393.8)">C</text><text class="cls-5" transform="translate(96.8 393.8)"> </text><text class="cls-5" transform="translate(104.43 393.8)"><tspan xml:space="preserve">   </tspan></text><text class="cls-7" transform="translate(104.43 393.8)">G</text><text class="cls-5" transform="translate(111.16 393.8)"> </text><text class="cls-5" transform="translate(104.91 385.07)"><tspan xml:space="preserve">   </tspan></text><text class="cls-16" transform="translate(104.91 385.07)">Y</text><text class="cls-5" transform="translate(110.69 385.07)"> </text><path class="cls-20" d="M79.65,254.59l.84-.09a1.46,1.46,0,0,0,.41.9,1,1,0,0,0,.76.29,1.28,1.28,0,0,0,.71-.2,1.33,1.33,0,0,0,.49-.51,3,3,0,0,0,.32-.87,4.72,4.72,0,0,0,.13-1.13v-.18a2.1,2.1,0,0,1-.71.71,1.95,1.95,0,0,1-2.46-.4,2.53,2.53,0,0,1-.61-1.78,2.61,2.61,0,0,1,.64-1.84,2.08,2.08,0,0,1,1.6-.69,2.24,2.24,0,0,1,1.27.39,2.52,2.52,0,0,1,.87,1.12,5.79,5.79,0,0,1,.3,2.11,7,7,0,0,1-.3,2.28A2.64,2.64,0,0,1,83,256a2.24,2.24,0,0,1-1.37.44,1.93,1.93,0,0,1-1.37-.49A2.13,2.13,0,0,1,79.65,254.59Zm3.58-3.31a1.89,1.89,0,0,0-.4-1.25,1.21,1.21,0,0,0-1-.47,1.31,1.31,0,0,0-1,.5,2,2,0,0,0-.42,1.3,1.65,1.65,0,0,0,.4,1.16,1.31,1.31,0,0,0,1,.45,1.23,1.23,0,0,0,1-.45A1.76,1.76,0,0,0,83.23,251.28Z"/><path class="cls-20" d="M85.07,252.63a6.93,6.93,0,0,1,.27-2.14,2.6,2.6,0,0,1,.77-1.25,2.17,2.17,0,0,1,2.32-.19,1.9,1.9,0,0,1,.72.69,4,4,0,0,1,.44,1.12,7.51,7.51,0,0,1,.16,1.77,7,7,0,0,1-.26,2.13,2.65,2.65,0,0,1-.77,1.25,2.16,2.16,0,0,1-2.94-.33A5.17,5.17,0,0,1,85.07,252.63Zm.9,0a4.79,4.79,0,0,0,.42,2.46,1.17,1.17,0,0,0,2,0,7.56,7.56,0,0,0,0-4.91,1.22,1.22,0,0,0-1-.61,1.15,1.15,0,0,0-1,.54A4.94,4.94,0,0,0,86,252.62Z"/><path class="cls-20" d="M90.76,250.63a2.37,2.37,0,0,1,.39-1.37,1.26,1.26,0,0,1,1.11-.56,1.41,1.41,0,0,1,1.11.51,2.19,2.19,0,0,1,.44,1.47,2.15,2.15,0,0,1-.45,1.47,1.42,1.42,0,0,1-2.17,0A2.31,2.31,0,0,1,90.76,250.63Zm1.52-1.27a.68.68,0,0,0-.55.29,1.93,1.93,0,0,0-.21,1.07,1.66,1.66,0,0,0,.22,1,.65.65,0,0,0,.54.29.68.68,0,0,0,.55-.29,1.83,1.83,0,0,0,.22-1.07,1.66,1.66,0,0,0-.22-1A.65.65,0,0,0,92.28,249.36Zm0,7.25,3.94-7.91H97L93,256.61Zm3.13-2a2.42,2.42,0,0,1,.38-1.37,1.28,1.28,0,0,1,1.12-.55,1.38,1.38,0,0,1,1.1.5,2.68,2.68,0,0,1,0,2.94,1.38,1.38,0,0,1-1.1.52,1.33,1.33,0,0,1-1.07-.51A2.31,2.31,0,0,1,95.42,254.57Zm1.52-1.27a.68.68,0,0,0-.55.29,1.83,1.83,0,0,0-.22,1.07,1.76,1.76,0,0,0,.22,1,.68.68,0,0,0,.54.29.68.68,0,0,0,.56-.29,1.91,1.91,0,0,0,.22-1.07,1.76,1.76,0,0,0-.22-1A.65.65,0,0,0,96.94,253.3Z"/><path class="cls-21" d="M76.23,253.25a2.91,2.91,0,1,1-2.91-2.91,2.91,2.91,0,0,1,2.91,2.91"/><circle class="cls-22" cx="73.32" cy="253.25" r="2.91"/><path class="cls-20" d="M79.65,244.24l.84-.09a1.46,1.46,0,0,0,.41.9,1,1,0,0,0,.76.28,1.28,1.28,0,0,0,.71-.19,1.33,1.33,0,0,0,.49-.51,3,3,0,0,0,.32-.88,4.58,4.58,0,0,0,.13-1.12v-.18a2.1,2.1,0,0,1-.71.71,1.95,1.95,0,0,1-2.46-.4,2.53,2.53,0,0,1-.61-1.78,2.61,2.61,0,0,1,.64-1.84,2.08,2.08,0,0,1,1.6-.69,2.24,2.24,0,0,1,1.27.39,2.52,2.52,0,0,1,.87,1.12,5.79,5.79,0,0,1,.3,2.11,7,7,0,0,1-.3,2.28,2.57,2.57,0,0,1-.88,1.29,2.19,2.19,0,0,1-1.37.45,1.93,1.93,0,0,1-1.37-.49A2.13,2.13,0,0,1,79.65,244.24Zm3.58-3.31a1.89,1.89,0,0,0-.4-1.25,1.18,1.18,0,0,0-1-.47,1.31,1.31,0,0,0-1,.5,2,2,0,0,0-.42,1.3,1.64,1.64,0,0,0,.4,1.16,1.31,1.31,0,0,0,1,.45,1.23,1.23,0,0,0,1-.45A1.78,1.78,0,0,0,83.23,240.93Z"/><path class="cls-20" d="M85.14,239.45v-.88h4.61v.72a10.37,10.37,0,0,0-1.35,2,12.79,12.79,0,0,0-1,2.6A9.85,9.85,0,0,0,87,246h-.89a9.73,9.73,0,0,1,.33-2.14,12,12,0,0,1,.9-2.42,10.87,10.87,0,0,1,1.26-2Z"/><path class="cls-20" d="M90.76,240.28a2.35,2.35,0,0,1,.39-1.37,1.26,1.26,0,0,1,1.11-.56,1.41,1.41,0,0,1,1.11.51,2.18,2.18,0,0,1,.44,1.48,2.14,2.14,0,0,1-.45,1.46,1.41,1.41,0,0,1-1.09.52,1.36,1.36,0,0,1-1.08-.51A2.37,2.37,0,0,1,90.76,240.28ZM92.28,239a.65.65,0,0,0-.55.29,1.93,1.93,0,0,0-.21,1.07,1.66,1.66,0,0,0,.22,1,.65.65,0,0,0,.54.29.68.68,0,0,0,.55-.29,1.85,1.85,0,0,0,.22-1.07,1.66,1.66,0,0,0-.22-1A.65.65,0,0,0,92.28,239Zm0,7.25,3.94-7.91H97L93,246.26Zm3.13-2a2.37,2.37,0,0,1,.38-1.36,1.26,1.26,0,0,1,1.12-.56,1.38,1.38,0,0,1,1.1.5,2.68,2.68,0,0,1,0,2.94,1.38,1.38,0,0,1-1.1.52,1.33,1.33,0,0,1-1.07-.51A2.31,2.31,0,0,1,95.42,244.22ZM96.94,243a.68.68,0,0,0-.55.29,1.83,1.83,0,0,0-.22,1.07,1.76,1.76,0,0,0,.22,1,.68.68,0,0,0,.54.29.66.66,0,0,0,.56-.29,1.91,1.91,0,0,0,.22-1.07,1.76,1.76,0,0,0-.22-1A.65.65,0,0,0,96.94,243Z"/><path class="cls-23" d="M76.23,242.9A2.91,2.91,0,1,1,73.32,240a2.91,2.91,0,0,1,2.91,2.91"/><circle class="cls-22" cx="73.32" cy="242.9" r="2.91"/><path class="cls-20" d="M114.89,239.45v-.88h4.61v.72a10.37,10.37,0,0,0-1.35,2,12.79,12.79,0,0,0-1,2.6,9.86,9.86,0,0,0-.33,2.06h-.9a9.73,9.73,0,0,1,.33-2.14,12,12,0,0,1,.9-2.42,10.36,10.36,0,0,1,1.26-2Z"/><path class="cls-20" d="M120.37,244l.9-.08a1.74,1.74,0,0,0,.47,1,1.24,1.24,0,0,0,.9.36,1.38,1.38,0,0,0,1.08-.5,2,2,0,0,0,.43-1.32,1.78,1.78,0,0,0-.41-1.24,1.41,1.41,0,0,0-1.1-.45,1.45,1.45,0,0,0-.76.19,1.55,1.55,0,0,0-.53.52l-.82-.12.7-3.84h3.53v.87h-2.83l-.39,2a2.2,2.2,0,0,1,1.34-.48,2.09,2.09,0,0,1,1.57.68,2.5,2.5,0,0,1,.64,1.75,2.78,2.78,0,0,1-.57,1.75,2.21,2.21,0,0,1-1.87.91,2.24,2.24,0,0,1-1.58-.57A2.26,2.26,0,0,1,120.37,244Z"/><path class="cls-20" d="M126.06,240.28a2.35,2.35,0,0,1,.38-1.37,1.28,1.28,0,0,1,1.11-.56,1.39,1.39,0,0,1,1.11.51,2.68,2.68,0,0,1,0,2.94,1.43,1.43,0,0,1-1.1.52,1.33,1.33,0,0,1-1.07-.51A2.31,2.31,0,0,1,126.06,240.28Zm1.52-1.27a.64.64,0,0,0-.55.29,1.91,1.91,0,0,0-.22,1.07,1.74,1.74,0,0,0,.22,1,.67.67,0,0,0,1.1,0,1.94,1.94,0,0,0,.22-1.07,1.74,1.74,0,0,0-.22-1A.67.67,0,0,0,127.58,239Zm0,7.25,3.94-7.91h.73l-3.94,7.91Zm3.13-2a2.3,2.3,0,0,1,.39-1.36,1.23,1.23,0,0,1,1.11-.56,1.39,1.39,0,0,1,1.11.5,2.2,2.2,0,0,1,.44,1.48,2.14,2.14,0,0,1-.45,1.46,1.4,1.4,0,0,1-2.17,0A2.37,2.37,0,0,1,130.71,244.22Zm1.53-1.27a.65.65,0,0,0-.55.29,1.83,1.83,0,0,0-.22,1.07,1.68,1.68,0,0,0,.22,1,.65.65,0,0,0,.54.29.63.63,0,0,0,.55-.29,1.83,1.83,0,0,0,.22-1.07,1.68,1.68,0,0,0-.22-1A.64.64,0,0,0,132.24,243Z"/><path class="cls-24" d="M111.52,242.9a2.91,2.91,0,1,1-2.91-2.91,2.91,2.91,0,0,1,2.91,2.91"/><circle class="cls-22" cx="108.61" cy="242.9" r="2.91"/><circle class="cls-22" cx="108.61" cy="253.25" r="2.91"/><path class="cls-20" d="M114.82,254.36l.9-.08a1.83,1.83,0,0,0,.47,1.05,1.26,1.26,0,0,0,.91.36,1.35,1.35,0,0,0,1.07-.5,1.93,1.93,0,0,0,.43-1.32,1.74,1.74,0,0,0-.41-1.24,1.42,1.42,0,0,0-1.1-.46,1.49,1.49,0,0,0-.76.2,1.52,1.52,0,0,0-.52.52l-.82-.12.69-3.84h3.54v.87h-2.84l-.39,2a2.22,2.22,0,0,1,1.34-.48,2.07,2.07,0,0,1,1.57.68,2.48,2.48,0,0,1,.64,1.75,2.84,2.84,0,0,1-.56,1.75,2.21,2.21,0,0,1-1.87.91,2.25,2.25,0,0,1-1.59-.57A2.36,2.36,0,0,1,114.82,254.36Z"/><path class="cls-20" d="M120.37,252.62a7.38,7.38,0,0,1,.26-2.14,2.7,2.7,0,0,1,.78-1.24,2,2,0,0,1,1.3-.44,2.11,2.11,0,0,1,1,.24,2,2,0,0,1,.72.7,4,4,0,0,1,.44,1.11,8.22,8.22,0,0,1,.16,1.77,7.38,7.38,0,0,1-.26,2.14A2.71,2.71,0,0,1,124,256a1.92,1.92,0,0,1-1.3.43,2,2,0,0,1-1.63-.76A5.11,5.11,0,0,1,120.37,252.62Zm.9,0a4.81,4.81,0,0,0,.41,2.46,1.18,1.18,0,0,0,2,0,4.84,4.84,0,0,0,.42-2.46,4.77,4.77,0,0,0-.42-2.45,1.21,1.21,0,0,0-1-.61,1.13,1.13,0,0,0-1,.53A5,5,0,0,0,121.27,252.62Z"/><path class="cls-20" d="M126.06,250.63a2.35,2.35,0,0,1,.38-1.37,1.28,1.28,0,0,1,1.11-.56,1.42,1.42,0,0,1,1.11.5,2.69,2.69,0,0,1,0,3,1.42,1.42,0,0,1-1.1.51,1.33,1.33,0,0,1-1.07-.51A2.26,2.26,0,0,1,126.06,250.63Zm1.52-1.28a.65.65,0,0,0-.55.3,1.91,1.91,0,0,0-.22,1.07,1.76,1.76,0,0,0,.22,1,.67.67,0,0,0,1.1,0,1.91,1.91,0,0,0,.22-1.07,1.74,1.74,0,0,0-.22-1A.68.68,0,0,0,127.58,249.35Zm0,7.25,3.94-7.9h.73l-3.94,7.9Zm3.13-2a2.35,2.35,0,0,1,.39-1.37,1.26,1.26,0,0,1,1.11-.56,1.39,1.39,0,0,1,1.11.51,2.2,2.2,0,0,1,.44,1.48,2.14,2.14,0,0,1-.45,1.46,1.4,1.4,0,0,1-2.17,0A2.37,2.37,0,0,1,130.71,254.57Zm1.53-1.28a.64.64,0,0,0-.55.3,1.83,1.83,0,0,0-.22,1.07,1.7,1.7,0,0,0,.22,1,.66.66,0,0,0,1.09,0,1.85,1.85,0,0,0,.22-1.07,1.66,1.66,0,0,0-.22-1A.65.65,0,0,0,132.24,253.29Z"/><path class="cls-20" d="M79.76,225.55v-5.44h.8v.77a1.82,1.82,0,0,1,1.63-.89,2,2,0,0,1,.86.18,1.3,1.3,0,0,1,.58.46,1.8,1.8,0,0,1,.27.68,5.77,5.77,0,0,1,0,.89v3.34h-.9v-3.3a2.51,2.51,0,0,0-.1-.84.89.89,0,0,0-.36-.45,1.08,1.08,0,0,0-.6-.17,1.33,1.33,0,0,0-.95.38,1.91,1.91,0,0,0-.4,1.42v3Z"/><path class="cls-20" d="M88.69,225.55v-.8a1.87,1.87,0,0,1-1.64.92,2.07,2.07,0,0,1-.86-.18,1.4,1.4,0,0,1-.58-.47,1.67,1.67,0,0,1-.27-.68,4.41,4.41,0,0,1-.06-.86v-3.37h.88v3a6.64,6.64,0,0,0,0,1,1,1,0,0,0,.35.56,1,1,0,0,0,.66.21,1.38,1.38,0,0,0,.74-.21,1.16,1.16,0,0,0,.49-.58,3.18,3.18,0,0,0,.14-1.06v-2.91h.88v5.43h-.78Z"/><path class="cls-20" d="M94.22,223.57l.86.12a2.42,2.42,0,0,1-.72,1.45,2,2,0,0,1-1.42.53,2.14,2.14,0,0,1-1.7-.73,3.11,3.11,0,0,1-.64-2.09,3.85,3.85,0,0,1,.28-1.54,2,2,0,0,1,.84-1,2.35,2.35,0,0,1,1.22-.33,2,2,0,0,1,1.37.45,2.08,2.08,0,0,1,.68,1.29l-.85.12a1.56,1.56,0,0,0-.43-.83,1.07,1.07,0,0,0-.74-.27,1.29,1.29,0,0,0-1.06.5,2.49,2.49,0,0,0-.41,1.58,2.53,2.53,0,0,0,.4,1.59,1.24,1.24,0,0,0,1,.49,1.14,1.14,0,0,0,.85-.33A1.67,1.67,0,0,0,94.22,223.57Z"/><path class="cls-20" d="M95.81,225.55v-7.5h.88v7.5Z"/><path class="cls-20" d="M101.64,223.79l.87.12a2.36,2.36,0,0,1-.79,1.3,2.61,2.61,0,0,1-3.29-.27,3,3,0,0,1-.67-2.06,3.08,3.08,0,0,1,.68-2.13,2.22,2.22,0,0,1,1.75-.76,2.15,2.15,0,0,1,1.69.74,3.07,3.07,0,0,1,.66,2.1v.24H98.66a2.13,2.13,0,0,0,.49,1.37,1.45,1.45,0,0,0,1.1.47,1.36,1.36,0,0,0,.84-.27A1.85,1.85,0,0,0,101.64,223.79Zm-3-1.47h3a1.88,1.88,0,0,0-.34-1,1.36,1.36,0,0,0-1.11-.53,1.39,1.39,0,0,0-1,.43A1.66,1.66,0,0,0,98.68,222.32Z"/><path class="cls-20" d="M103.27,222.83a2.83,2.83,0,0,1,.8-2.23,2.33,2.33,0,0,1,1.62-.61,2.26,2.26,0,0,1,1.74.74,2.87,2.87,0,0,1,.68,2,3.74,3.74,0,0,1-.3,1.65,2.26,2.26,0,0,1-.87.94,2.46,2.46,0,0,1-1.25.33,2.3,2.3,0,0,1-1.76-.73A3,3,0,0,1,103.27,222.83Zm.89,0a2.36,2.36,0,0,0,.44,1.56,1.35,1.35,0,0,0,1.09.52,1.36,1.36,0,0,0,1.09-.52,2.51,2.51,0,0,0,.43-1.59,2.31,2.31,0,0,0-.44-1.53,1.39,1.39,0,0,0-2.17,0A2.36,2.36,0,0,0,104.16,222.83Z"/><path class="cls-20" d="M111.06,224.73l.12.82a3.46,3.46,0,0,1-.66.08,1.48,1.48,0,0,1-.74-.16.83.83,0,0,1-.37-.42,3.45,3.45,0,0,1-.11-1.09v-3.13h-.65v-.72h.65v-1.34l.88-.55v1.89h.88v.72h-.88V224a1.73,1.73,0,0,0,0,.51.35.35,0,0,0,.15.17.51.51,0,0,0,.3.07Z"/><path class="cls-20" d="M112,219.09v-1h.87v1Zm0,6.46v-5.44h.87v5.44Z"/><path class="cls-20" d="M117.47,225.55v-.69a1.59,1.59,0,0,1-1.44.81,1.93,1.93,0,0,1-1.14-.36,2.31,2.31,0,0,1-.81-1,3.6,3.6,0,0,1-.28-1.47,4.07,4.07,0,0,1,.25-1.48,2.19,2.19,0,0,1,.78-1A2,2,0,0,1,116,220a1.77,1.77,0,0,1,.84.2,1.8,1.8,0,0,1,.59.54v-2.68h.88v7.49h-.82Zm-2.78-2.72a2.47,2.47,0,0,0,.42,1.57,1.26,1.26,0,0,0,1,.51,1.23,1.23,0,0,0,1-.49,2.41,2.41,0,0,0,.4-1.51,2.69,2.69,0,0,0-.41-1.64,1.23,1.23,0,0,0-1-.52,1.2,1.2,0,0,0-1,.5A2.5,2.5,0,0,0,114.69,222.83Z"/><path class="cls-20" d="M123.25,223.79l.88.12a2.36,2.36,0,0,1-.79,1.3,2.32,2.32,0,0,1-1.49.46,2.29,2.29,0,0,1-1.8-.73,2.94,2.94,0,0,1-.67-2.06,3,3,0,0,1,.68-2.13,2.35,2.35,0,0,1,3.44,0,3.07,3.07,0,0,1,.66,2.1,2.27,2.27,0,0,1,0,.24h-3.87a2.08,2.08,0,0,0,.49,1.37,1.45,1.45,0,0,0,1.1.47,1.31,1.31,0,0,0,.83-.27A1.77,1.77,0,0,0,123.25,223.79Zm-3-1.47h3a1.88,1.88,0,0,0-.34-1,1.45,1.45,0,0,0-2.15-.1A1.66,1.66,0,0,0,120.3,222.32Z"/><path class="cls-20" d="M86,237.57v-7.52h.79v.7a2.33,2.33,0,0,1,.64-.62,1.7,1.7,0,0,1,.87-.2,2,2,0,0,1,1.17.35,2.26,2.26,0,0,1,.77,1,4,4,0,0,1,.25,1.43,3.83,3.83,0,0,1-.28,1.51,2.28,2.28,0,0,1-.83,1,2.09,2.09,0,0,1-1.14.35,1.59,1.59,0,0,1-.79-.19,1.81,1.81,0,0,1-.57-.49v2.65Zm.78-4.78a2.49,2.49,0,0,0,.4,1.56,1.24,1.24,0,0,0,2,0,2.63,2.63,0,0,0,.41-1.61,2.51,2.51,0,0,0-.4-1.56,1.22,1.22,0,0,0-1-.52,1.27,1.27,0,0,0-1,.55A2.56,2.56,0,0,0,86.8,232.79Z"/><path class="cls-20" d="M91.58,235.48v-5.43h.8v.83a2.3,2.3,0,0,1,.55-.77,1,1,0,0,1,.56-.18,1.73,1.73,0,0,1,.9.29l-.31.85a1.31,1.31,0,0,0-.64-.19.83.83,0,0,0-.51.19,1,1,0,0,0-.32.5,3.69,3.69,0,0,0-.14,1.07v2.84Z"/><path class="cls-20" d="M98.44,233.73l.88.12a2.44,2.44,0,0,1-4.09,1,3,3,0,0,1-.66-2.06,3.06,3.06,0,0,1,.67-2.12,2.22,2.22,0,0,1,1.75-.76,2.19,2.19,0,0,1,1.7.74,3.07,3.07,0,0,1,.66,2.1s0,.13,0,.24H95.47a2.08,2.08,0,0,0,.49,1.37,1.43,1.43,0,0,0,1.09.47,1.32,1.32,0,0,0,.84-.27A1.75,1.75,0,0,0,98.44,233.73Zm-3-1.47h3a1.85,1.85,0,0,0-.34-1,1.37,1.37,0,0,0-1.12-.54,1.44,1.44,0,0,0-1,.43A1.74,1.74,0,0,0,95.49,232.26Z"/><path class="cls-20" d="M100.07,233.85l.86-.12a1.28,1.28,0,0,0,.4.83,1.38,1.38,0,0,0,.93.29,1.31,1.31,0,0,0,.89-.26.76.76,0,0,0,.29-.6.59.59,0,0,0-.26-.5,4,4,0,0,0-.89-.31,8.36,8.36,0,0,1-1.33-.44,1.41,1.41,0,0,1-.56-.52,1.5,1.5,0,0,1-.19-.73,1.54,1.54,0,0,1,.16-.67,1.45,1.45,0,0,1,.43-.52,2,2,0,0,1,.55-.27,2.57,2.57,0,0,1,.75-.1,2.87,2.87,0,0,1,1.06.18,1.51,1.51,0,0,1,.68.5,2.23,2.23,0,0,1,.3.85l-.86.12a1,1,0,0,0-.33-.66,1.18,1.18,0,0,0-.79-.24,1.34,1.34,0,0,0-.85.21.66.66,0,0,0-.26.5.56.56,0,0,0,.11.32.71.71,0,0,0,.33.24,7.83,7.83,0,0,0,.77.24,8.93,8.93,0,0,1,1.29.43,1.31,1.31,0,0,1,.58.48,1.39,1.39,0,0,1,.21.79,1.59,1.59,0,0,1-.25.86,1.67,1.67,0,0,1-.73.63,2.59,2.59,0,0,1-1.09.23,2.29,2.29,0,0,1-1.53-.45A2.09,2.09,0,0,1,100.07,233.85Z"/><path class="cls-20" d="M109,233.73l.88.12a2.44,2.44,0,0,1-4.09,1,3,3,0,0,1-.66-2.06,3.06,3.06,0,0,1,.67-2.12,2.22,2.22,0,0,1,1.75-.76,2.19,2.19,0,0,1,1.7.74,3.07,3.07,0,0,1,.66,2.1s0,.13,0,.24H106a2.08,2.08,0,0,0,.49,1.37,1.44,1.44,0,0,0,1.1.47,1.31,1.31,0,0,0,.83-.27A1.82,1.82,0,0,0,109,233.73Zm-3-1.47h3a1.85,1.85,0,0,0-.34-1,1.36,1.36,0,0,0-1.11-.54,1.43,1.43,0,0,0-1,.43A1.74,1.74,0,0,0,106,232.26Z"/><path class="cls-20" d="M110.93,235.48v-5.43h.8v.77a1.81,1.81,0,0,1,1.63-.9,2,2,0,0,1,.85.18,1.4,1.4,0,0,1,.59.46,2,2,0,0,1,.27.68,5.83,5.83,0,0,1,.05.9v3.34h-.9v-3.3a2.61,2.61,0,0,0-.1-.85.91.91,0,0,0-.36-.44,1.08,1.08,0,0,0-.6-.17,1.35,1.35,0,0,0-1,.38,1.9,1.9,0,0,0-.4,1.41v3Z"/><path class="cls-20" d="M118.36,234.67l.12.81a2.74,2.74,0,0,1-.66.09,1.51,1.51,0,0,1-.74-.16.93.93,0,0,1-.37-.42,3.6,3.6,0,0,1-.1-1.09v-3.14H116v-.71h.66v-1.34l.87-.55v1.89h.88v.72h-.88v3.17a1.6,1.6,0,0,0,0,.5.34.34,0,0,0,.15.18.51.51,0,0,0,.3.07Z"/><path class="cls-20" d="M79.43,283.07v-5.44h.8v.77a1.81,1.81,0,0,1,1.63-.89,2.2,2.2,0,0,1,.86.17,1.31,1.31,0,0,1,.58.47,1.8,1.8,0,0,1,.27.68,5.77,5.77,0,0,1,.05.89v3.35h-.9v-3.31a2.51,2.51,0,0,0-.1-.84.82.82,0,0,0-.35-.45,1.08,1.08,0,0,0-.6-.16,1.36,1.36,0,0,0-1,.37,1.91,1.91,0,0,0-.4,1.42v3Z"/><path class="cls-20" d="M88.36,283.07v-.81a1.85,1.85,0,0,1-1.64.93,1.89,1.89,0,0,1-.85-.19,1.34,1.34,0,0,1-.59-.46,1.73,1.73,0,0,1-.27-.68A4.41,4.41,0,0,1,85,281v-3.37h.88v3a5,5,0,0,0,.06,1,.92.92,0,0,0,.35.57,1,1,0,0,0,.66.21,1.37,1.37,0,0,0,.73-.21,1.19,1.19,0,0,0,.49-.58,3,3,0,0,0,.14-1.06v-2.91h.88v5.43h-.78Z"/><path class="cls-20" d="M93.89,281.08l.86.13a2.37,2.37,0,0,1-.72,1.45,2,2,0,0,1-1.42.53,2.15,2.15,0,0,1-1.69-.73,3.07,3.07,0,0,1-.64-2.09,4,4,0,0,1,.27-1.54,2,2,0,0,1,.84-1,2.39,2.39,0,0,1,1.23-.33A2.06,2.06,0,0,1,94,278a2.13,2.13,0,0,1,.68,1.28l-.86.13a1.5,1.5,0,0,0-.43-.83,1,1,0,0,0-.73-.27,1.33,1.33,0,0,0-1.07.49,2.52,2.52,0,0,0-.4,1.58,2.63,2.63,0,0,0,.39,1.6,1.26,1.26,0,0,0,1,.49,1.2,1.2,0,0,0,.86-.33A1.72,1.72,0,0,0,93.89,281.08Z"/><path class="cls-20" d="M95.48,283.07v-7.5h.88v7.5Z"/><path class="cls-20" d="M101.31,281.31l.88.12a2.37,2.37,0,0,1-.8,1.3,2.3,2.3,0,0,1-1.48.46,2.33,2.33,0,0,1-1.81-.73,3,3,0,0,1-.66-2.06,3.07,3.07,0,0,1,.67-2.13,2.22,2.22,0,0,1,1.75-.76,2.19,2.19,0,0,1,1.7.74,3.07,3.07,0,0,1,.66,2.1c0,.06,0,.14,0,.24H98.34a2.13,2.13,0,0,0,.48,1.37,1.43,1.43,0,0,0,1.1.47,1.32,1.32,0,0,0,.84-.27A1.82,1.82,0,0,0,101.31,281.31Zm-3-1.47h3a2,2,0,0,0-.34-1,1.46,1.46,0,0,0-2.16-.1A1.7,1.7,0,0,0,98.35,279.84Z"/><path class="cls-20" d="M102.94,280.35a2.9,2.9,0,0,1,.79-2.24,2.36,2.36,0,0,1,1.63-.6,2.25,2.25,0,0,1,1.74.73,2.91,2.91,0,0,1,.68,2,3.74,3.74,0,0,1-.3,1.65,2.26,2.26,0,0,1-.87.94,2.46,2.46,0,0,1-1.25.33,2.28,2.28,0,0,1-1.75-.73A3,3,0,0,1,102.94,280.35Zm.9,0a2.38,2.38,0,0,0,.43,1.56,1.4,1.4,0,0,0,2.18,0,2.47,2.47,0,0,0,.43-1.6,2.24,2.24,0,0,0-.44-1.52,1.34,1.34,0,0,0-1.08-.52,1.37,1.37,0,0,0-1.09.51A2.41,2.41,0,0,0,103.84,280.35Z"/><path class="cls-20" d="M110.73,282.25l.12.81a2.8,2.8,0,0,1-.66.09,1.48,1.48,0,0,1-.74-.16.88.88,0,0,1-.37-.42,3.49,3.49,0,0,1-.11-1.09v-3.13h-.65v-.72H109v-1.34l.88-.55v1.89h.88v.72h-.88v3.17a1.6,1.6,0,0,0,.05.5.34.34,0,0,0,.15.18.51.51,0,0,0,.3.07Z"/><path class="cls-20" d="M111.62,276.61v-1h.88v1Zm0,6.46v-5.44h.88v5.44Z"/><path class="cls-20" d="M117.14,283.07v-.69a1.58,1.58,0,0,1-1.44.81,1.93,1.93,0,0,1-1.14-.36,2.31,2.31,0,0,1-.81-1,3.6,3.6,0,0,1-.28-1.47,3.87,3.87,0,0,1,.26-1.48,2.11,2.11,0,0,1,.77-1,2,2,0,0,1,1.15-.35,1.66,1.66,0,0,1,.84.2,1.8,1.8,0,0,1,.59.54v-2.68H118v7.49Zm-2.78-2.72a2.42,2.42,0,0,0,.43,1.56,1.21,1.21,0,0,0,2,0,2.35,2.35,0,0,0,.4-1.51,2.69,2.69,0,0,0-.41-1.64,1.23,1.23,0,0,0-1-.52,1.18,1.18,0,0,0-1,.5A2.56,2.56,0,0,0,114.36,280.35Z"/><path class="cls-20" d="M122.92,281.31l.88.12a2.44,2.44,0,0,1-4.08,1,2.94,2.94,0,0,1-.67-2.06,3.08,3.08,0,0,1,.68-2.13,2.21,2.21,0,0,1,1.74-.76,2.18,2.18,0,0,1,1.7.74,3.07,3.07,0,0,1,.66,2.1v.24H120a2.08,2.08,0,0,0,.49,1.37,1.42,1.42,0,0,0,1.1.47,1.31,1.31,0,0,0,.83-.27A1.68,1.68,0,0,0,122.92,281.31Zm-3-1.47h3a1.88,1.88,0,0,0-.34-1,1.36,1.36,0,0,0-1.11-.53,1.39,1.39,0,0,0-1,.43A1.7,1.7,0,0,0,120,279.84Z"/><path class="cls-20" d="M85.75,286.55V285.5h.88v1.05Zm0,6.45v-5.43h.88V293Z"/><path class="cls-20" d="M91.28,293v-.68a1.59,1.59,0,0,1-1.45.8,2,2,0,0,1-1.14-.35,2.29,2.29,0,0,1-.8-1,3.62,3.62,0,0,1-.29-1.48,4.14,4.14,0,0,1,.26-1.48,2.09,2.09,0,0,1,.77-1,2,2,0,0,1,1.16-.36,1.63,1.63,0,0,1,.83.21,1.8,1.8,0,0,1,.6.53V285.5h.87V293Zm-2.78-2.71a2.44,2.44,0,0,0,.42,1.56,1.21,1.21,0,0,0,2,0,2.38,2.38,0,0,0,.41-1.52,2.69,2.69,0,0,0-.41-1.64,1.27,1.27,0,0,0-1-.52,1.16,1.16,0,0,0-1,.51A2.5,2.5,0,0,0,88.5,290.29Z"/><path class="cls-20" d="M97.06,291.24l.88.13a2.38,2.38,0,0,1-.8,1.29,2.3,2.3,0,0,1-1.48.46,2.33,2.33,0,0,1-1.81-.73,3,3,0,0,1-.66-2.06,3.11,3.11,0,0,1,.67-2.13,2.24,2.24,0,0,1,1.75-.75,2.16,2.16,0,0,1,1.7.74,3,3,0,0,1,.66,2.09c0,.06,0,.14,0,.25H94.09a2.1,2.1,0,0,0,.48,1.36,1.44,1.44,0,0,0,1.1.48,1.32,1.32,0,0,0,.84-.27A1.81,1.81,0,0,0,97.06,291.24Zm-3-1.47h3a1.82,1.82,0,0,0-.34-1,1.37,1.37,0,0,0-1.12-.54,1.43,1.43,0,0,0-1,.43A1.72,1.72,0,0,0,94.11,289.77Z"/><path class="cls-20" d="M99,293v-5.43h.79v.77a1.83,1.83,0,0,1,1.64-.9,2,2,0,0,1,.85.18,1.31,1.31,0,0,1,.58.46,1.8,1.8,0,0,1,.27.68,4.76,4.76,0,0,1,0,.9V293h-.89v-3.3a2.93,2.93,0,0,0-.1-.85.91.91,0,0,0-.36-.44,1.08,1.08,0,0,0-.6-.17,1.33,1.33,0,0,0-1,.38,1.9,1.9,0,0,0-.4,1.41v3Z"/><path class="cls-20" d="M106.45,292.19l.12.81a3.29,3.29,0,0,1-.66.08,1.51,1.51,0,0,1-.74-.15.93.93,0,0,1-.37-.42,3.64,3.64,0,0,1-.1-1.09v-3.14h-.65v-.71h.65v-1.34l.87-.55v1.89h.88v.72h-.88v3.17a1.6,1.6,0,0,0,.05.5.34.34,0,0,0,.15.18.51.51,0,0,0,.3.07Z"/><path class="cls-20" d="M107.34,286.55V285.5h.88v1.05Zm0,6.45v-5.43h.88V293Z"/><path class="cls-20" d="M111.43,292.19l.13.81a3.46,3.46,0,0,1-.66.08,1.49,1.49,0,0,1-.74-.15.88.88,0,0,1-.37-.42,3.54,3.54,0,0,1-.11-1.09v-3.14H109v-.71h.65v-1.34l.88-.55v1.89h.88v.72h-.88v3.17a2.21,2.21,0,0,0,0,.5.38.38,0,0,0,.15.18.51.51,0,0,0,.3.07Z"/><path class="cls-20" d="M112.33,295.1l-.12-.85a2.2,2.2,0,0,0,.52.08,1.07,1.07,0,0,0,.48-.1.92.92,0,0,0,.3-.29,3.65,3.65,0,0,0,.27-.69c0-.05,0-.13.08-.23l-2-5.45h.93l1.09,3.13c.14.4.27.82.38,1.26.1-.41.22-.82.36-1.22l1.1-3.17h.87l-1.93,5.53a13.1,13.1,0,0,1-.5,1.23,1.76,1.76,0,0,1-.55.66,1.26,1.26,0,0,1-.73.21A1.61,1.61,0,0,1,112.33,295.1Z"/><path class="cls-20" d="M99.64,321.06v-.88h4.62v.71a9.81,9.81,0,0,0-1.35,2,13.07,13.07,0,0,0-1,2.6,10.57,10.57,0,0,0-.33,2.06h-.9a9.57,9.57,0,0,1,.33-2.13,11.54,11.54,0,0,1,.9-2.42,10.71,10.71,0,0,1,1.26-2Z"/><path class="cls-20" d="M105.12,325.61l.9-.08a1.83,1.83,0,0,0,.47,1.06,1.27,1.27,0,0,0,.9.35,1.35,1.35,0,0,0,1.08-.5,1.93,1.93,0,0,0,.43-1.32,1.8,1.8,0,0,0-.41-1.24,1.41,1.41,0,0,0-1.1-.45,1.46,1.46,0,0,0-.76.2,1.39,1.39,0,0,0-.53.52l-.81-.13.69-3.84h3.53v.88h-2.83l-.39,2a2.25,2.25,0,0,1,1.34-.47,2.09,2.09,0,0,1,1.57.68,2.45,2.45,0,0,1,.64,1.74,2.81,2.81,0,0,1-.57,1.76,2.42,2.42,0,0,1-3.45.34A2.36,2.36,0,0,1,105.12,325.61Z"/><path class="cls-20" d="M110.81,321.88a2.39,2.39,0,0,1,.38-1.36,1.26,1.26,0,0,1,1.11-.56,1.39,1.39,0,0,1,1.11.5,2.16,2.16,0,0,1,.44,1.48,2.19,2.19,0,0,1-.44,1.46,1.38,1.38,0,0,1-1.1.52,1.33,1.33,0,0,1-1.07-.51A2.29,2.29,0,0,1,110.81,321.88Zm1.52-1.27a.68.68,0,0,0-.55.29,2,2,0,0,0-.21,1.07,1.75,1.75,0,0,0,.21,1,.65.65,0,0,0,.55.29.68.68,0,0,0,.55-.29,1.83,1.83,0,0,0,.22-1.07,1.76,1.76,0,0,0-.22-1A.65.65,0,0,0,112.33,320.61Zm0,7.25,3.94-7.9H117l-3.94,7.9Zm3.14-2a2.4,2.4,0,0,1,.38-1.37,1.26,1.26,0,0,1,1.12-.56,1.41,1.41,0,0,1,1.1.5,2.69,2.69,0,0,1,0,3,1.42,1.42,0,0,1-1.1.51,1.33,1.33,0,0,1-1.07-.51A2.28,2.28,0,0,1,115.47,325.83Zm1.52-1.28a.64.64,0,0,0-.55.3,1.83,1.83,0,0,0-.22,1.07,1.7,1.7,0,0,0,.22,1,.68.68,0,0,0,.54.29.68.68,0,0,0,.56-.29,2,2,0,0,0,.21-1.07,1.72,1.72,0,0,0-.22-1A.65.65,0,0,0,117,324.55Z"/><path class="cls-25" d="M79,327.57v-7.49h1L83.71,326v-5.89h.9v7.49h-1l-3.78-5.89v5.89Z"/><path class="cls-26" d="M79,306.43v-7.5h1l3.78,5.9v-5.9h.9v7.5h-1l-3.78-5.9v5.9Z"/><path class="cls-20" d="M99.7,304.69l.84-.08a1.51,1.51,0,0,0,.4.9,1.07,1.07,0,0,0,.77.28,1.3,1.3,0,0,0,.71-.19,1.44,1.44,0,0,0,.49-.52,2.79,2.79,0,0,0,.32-.87,4.64,4.64,0,0,0,.13-1.12v-.18a2.1,2.1,0,0,1-.71.71,1.88,1.88,0,0,1-1,.27,1.93,1.93,0,0,1-1.48-.67,2.55,2.55,0,0,1-.61-1.78,2.61,2.61,0,0,1,.64-1.84,2.07,2.07,0,0,1,1.6-.69,2.24,2.24,0,0,1,1.27.39,2.47,2.47,0,0,1,.87,1.12,5.73,5.73,0,0,1,.3,2.1,7.09,7.09,0,0,1-.3,2.29,2.66,2.66,0,0,1-.88,1.29,2.18,2.18,0,0,1-1.37.44,2,2,0,0,1-1.37-.48A2.09,2.09,0,0,1,99.7,304.69Zm3.57-3.3a1.9,1.9,0,0,0-.39-1.26,1.21,1.21,0,0,0-1-.46,1.26,1.26,0,0,0-1,.5,2,2,0,0,0-.43,1.3,1.66,1.66,0,0,0,.41,1.16,1.29,1.29,0,0,0,1,.45,1.25,1.25,0,0,0,1-.45A1.82,1.82,0,0,0,103.27,301.39Z"/><path class="cls-20" d="M105.18,299.91V299h4.62v.71a10.33,10.33,0,0,0-1.35,2,12.24,12.24,0,0,0-1,2.6,9.74,9.74,0,0,0-.34,2.06h-.9a9.65,9.65,0,0,1,.33-2.14,11.79,11.79,0,0,1,.91-2.42,10,10,0,0,1,1.26-2Z"/><path class="cls-20" d="M110.81,300.74a2.42,2.42,0,0,1,.38-1.37,1.28,1.28,0,0,1,1.11-.56,1.42,1.42,0,0,1,1.11.5,2.16,2.16,0,0,1,.44,1.48,2.22,2.22,0,0,1-.44,1.47,1.4,1.4,0,0,1-1.1.51,1.35,1.35,0,0,1-1.07-.5A2.31,2.31,0,0,1,110.81,300.74Zm1.52-1.28a.66.66,0,0,0-.55.3,1.93,1.93,0,0,0-.21,1.07,1.77,1.77,0,0,0,.21,1,.67.67,0,0,0,1.1,0,1.85,1.85,0,0,0,.22-1.07,1.74,1.74,0,0,0-.22-1A.66.66,0,0,0,112.33,299.46Zm0,7.25,3.94-7.9H117l-3.94,7.9Zm3.14-2a2.42,2.42,0,0,1,.38-1.37,1.29,1.29,0,0,1,1.12-.56,1.39,1.39,0,0,1,1.1.51,2.68,2.68,0,0,1,0,2.94,1.43,1.43,0,0,1-1.1.52,1.33,1.33,0,0,1-1.07-.51A2.31,2.31,0,0,1,115.47,304.68ZM117,303.4a.64.64,0,0,0-.55.3,1.83,1.83,0,0,0-.22,1.07,1.7,1.7,0,0,0,.22,1,.68.68,0,0,0,.54.29.68.68,0,0,0,.56-.29,1.93,1.93,0,0,0,.21-1.07,1.66,1.66,0,0,0-.22-1A.63.63,0,0,0,117,303.4Z"/><path class="cls-20" d="M79,317v-7.49h1l3.78,5.89v-5.89h.9V317h-1l-3.78-5.89V317Z"/><path class="cls-20" d="M99.7,315.26l.84-.08a1.51,1.51,0,0,0,.4.9,1.07,1.07,0,0,0,.77.28,1.3,1.3,0,0,0,.71-.19,1.37,1.37,0,0,0,.49-.52,2.79,2.79,0,0,0,.32-.87,4.64,4.64,0,0,0,.13-1.12v-.18a2.1,2.1,0,0,1-.71.71,1.95,1.95,0,0,1-2.46-.4,2.55,2.55,0,0,1-.61-1.78,2.61,2.61,0,0,1,.64-1.84,2.07,2.07,0,0,1,1.6-.69,2.24,2.24,0,0,1,1.27.39A2.52,2.52,0,0,1,104,311a5.79,5.79,0,0,1,.3,2.11,7.07,7.07,0,0,1-.3,2.28,2.66,2.66,0,0,1-.88,1.29,2.18,2.18,0,0,1-1.37.44,2,2,0,0,1-1.37-.48A2.09,2.09,0,0,1,99.7,315.26Zm3.57-3.3a1.89,1.89,0,0,0-.39-1.25,1.19,1.19,0,0,0-1-.47,1.29,1.29,0,0,0-1,.5,2,2,0,0,0-.43,1.3,1.64,1.64,0,0,0,.41,1.16,1.29,1.29,0,0,0,1,.45,1.25,1.25,0,0,0,1-.45A1.81,1.81,0,0,0,103.27,312Z"/><path class="cls-20" d="M105.12,313.31a7.29,7.29,0,0,1,.26-2.14,2.69,2.69,0,0,1,.78-1.25,2.06,2.06,0,0,1,3,.5,4,4,0,0,1,.44,1.11,7.66,7.66,0,0,1,.16,1.78,7.36,7.36,0,0,1-.26,2.13,2.58,2.58,0,0,1-.78,1.25,1.92,1.92,0,0,1-1.3.43,2,2,0,0,1-1.63-.76A5.17,5.17,0,0,1,105.12,313.31Zm.9,0a4.79,4.79,0,0,0,.42,2.46,1.16,1.16,0,0,0,2,0,4.77,4.77,0,0,0,.42-2.45,4.93,4.93,0,0,0-.41-2.46,1.25,1.25,0,0,0-1-.61,1.14,1.14,0,0,0-1,.54A4.94,4.94,0,0,0,106,313.3Z"/><path class="cls-20" d="M110.81,311.31a2.39,2.39,0,0,1,.38-1.36,1.27,1.27,0,0,1,1.11-.57,1.39,1.39,0,0,1,1.11.51,2.16,2.16,0,0,1,.44,1.48,2.19,2.19,0,0,1-.44,1.46,1.38,1.38,0,0,1-1.1.52,1.33,1.33,0,0,1-1.07-.51A2.31,2.31,0,0,1,110.81,311.31Zm1.52-1.27a.65.65,0,0,0-.55.29,1.93,1.93,0,0,0-.21,1.07,1.77,1.77,0,0,0,.21,1,.67.67,0,0,0,1.1,0,1.85,1.85,0,0,0,.22-1.07,1.74,1.74,0,0,0-.22-1A.65.65,0,0,0,112.33,310Zm0,7.25,3.94-7.91H117l-3.94,7.91Zm3.14-2a2.37,2.37,0,0,1,.38-1.36,1.26,1.26,0,0,1,1.12-.56,1.38,1.38,0,0,1,1.1.5,2.68,2.68,0,0,1,0,2.94,1.4,1.4,0,0,1-1.1.52,1.33,1.33,0,0,1-1.07-.51A2.31,2.31,0,0,1,115.47,315.25ZM117,314a.65.65,0,0,0-.55.29,1.85,1.85,0,0,0-.22,1.07,1.66,1.66,0,0,0,.22,1,.68.68,0,0,0,.54.29.68.68,0,0,0,.56-.29,1.91,1.91,0,0,0,.21-1.06,1.69,1.69,0,0,0-.22-1A.62.62,0,0,0,117,314Z"/><path class="cls-27" d="M70.07,207.4l.85.12a2.36,2.36,0,0,1-.71,1.45,2,2,0,0,1-1.42.53,2.14,2.14,0,0,1-1.7-.73,3.06,3.06,0,0,1-.64-2.09,3.85,3.85,0,0,1,.28-1.54,2,2,0,0,1,.84-1,2.35,2.35,0,0,1,1.22-.33,2,2,0,0,1,1.37.45,2.08,2.08,0,0,1,.68,1.29l-.85.12a1.56,1.56,0,0,0-.43-.83,1.07,1.07,0,0,0-.74-.27,1.29,1.29,0,0,0-1.06.5,2.46,2.46,0,0,0-.41,1.57,2.52,2.52,0,0,0,.4,1.6,1.26,1.26,0,0,0,1,.5,1.13,1.13,0,0,0,.85-.34A1.67,1.67,0,0,0,70.07,207.4Z"/><path class="cls-27" d="M71.31,206.66a2.86,2.86,0,0,1,.79-2.23,2.32,2.32,0,0,1,1.63-.61,2.29,2.29,0,0,1,1.74.73,2.9,2.9,0,0,1,.68,2,3.74,3.74,0,0,1-.3,1.65,2.26,2.26,0,0,1-.87.94,2.46,2.46,0,0,1-1.25.33,2.26,2.26,0,0,1-1.75-.73A3,3,0,0,1,71.31,206.66Zm.9,0a2.38,2.38,0,0,0,.43,1.56,1.4,1.4,0,0,0,2.18,0,2.45,2.45,0,0,0,.43-1.59,2.37,2.37,0,0,0-.43-1.53,1.41,1.41,0,0,0-2.18,0A2.41,2.41,0,0,0,72.21,206.66Z"/><path class="cls-27" d="M78.52,209.38l-2-5.44h.94l1.1,3.26c.12.35.23.71.34,1.09.07-.28.18-.63.32-1l1.15-3.32h.9l-1.95,5.44Z"/><path class="cls-27" d="M85.34,208.7a3.2,3.2,0,0,1-.93.62,2.61,2.61,0,0,1-1,.18,1.86,1.86,0,0,1-1.32-.44,1.49,1.49,0,0,1-.46-1.12,1.52,1.52,0,0,1,.18-.73,1.55,1.55,0,0,1,.45-.53,2.22,2.22,0,0,1,.64-.3,6.4,6.4,0,0,1,.78-.14,7.38,7.38,0,0,0,1.57-.32v-.24a1,1,0,0,0-.25-.79,1.39,1.39,0,0,0-1-.31,1.51,1.51,0,0,0-.91.22,1.48,1.48,0,0,0-.43.82l-.88-.13a2.33,2.33,0,0,1,.38-.93A1.7,1.7,0,0,1,83,204a3.28,3.28,0,0,1,1.18-.19,3.24,3.24,0,0,1,1.08.16,1.37,1.37,0,0,1,.61.42,1.41,1.41,0,0,1,.27.62,5.17,5.17,0,0,1,0,.85v1.23a13.71,13.71,0,0,0,0,1.63,2.29,2.29,0,0,0,.21.64h-.9A2.12,2.12,0,0,1,85.34,208.7Zm-.06-2.06a5.78,5.78,0,0,1-1.44.35,3.53,3.53,0,0,0-.77.19.77.77,0,0,0-.34.3.76.76,0,0,0-.13.44.8.8,0,0,0,.27.62,1.09,1.09,0,0,0,.78.25,1.77,1.77,0,0,0,.9-.23,1.41,1.41,0,0,0,.58-.65,2.24,2.24,0,0,0,.14-.93Z"/><path class="cls-27" d="M87.5,209.38v-5.44h.79v.83a2.3,2.3,0,0,1,.56-.77.91.91,0,0,1,.55-.18,1.64,1.64,0,0,1,.9.3L90,205a1.27,1.27,0,0,0-.64-.18.81.81,0,0,0-.51.18,1.11,1.11,0,0,0-.32.5,4.07,4.07,0,0,0-.14,1.07v2.84H87.5Z"/><path class="cls-27" d="M91,211.47l-.12-.85a1.78,1.78,0,0,0,.52.08,1,1,0,0,0,.48-.1.92.92,0,0,0,.3-.29,4.2,4.2,0,0,0,.28-.69l.08-.22-2-5.46h.94l1.09,3.14c.14.4.26.82.37,1.26.1-.41.22-.82.36-1.22l1.1-3.18h.87l-1.93,5.53c-.22.6-.39,1-.5,1.23a1.8,1.8,0,0,1-.55.67,1.26,1.26,0,0,1-.73.21A1.68,1.68,0,0,1,91,211.47Z"/><path class="cls-27" d="M96.08,202.92v-1H97v1Zm0,6.46v-5.44H97v5.44Z"/><path class="cls-27" d="M98.25,209.38v-5.44h.8v.77a1.83,1.83,0,0,1,1.64-.89,2.19,2.19,0,0,1,.85.17,1.38,1.38,0,0,1,.58.47,1.73,1.73,0,0,1,.27.68,5.77,5.77,0,0,1,0,.89v3.34h-.9v-3.3a2.61,2.61,0,0,0-.1-.85.84.84,0,0,0-.35-.44,1.08,1.08,0,0,0-.6-.17,1.37,1.37,0,0,0-1,.38,1.91,1.91,0,0,0-.4,1.42v3Z"/><path class="cls-27" d="M103.64,209.83l.88.12a.93.93,0,0,0,.29.62,1.43,1.43,0,0,0,.89.26,1.49,1.49,0,0,0,.93-.26,1.22,1.22,0,0,0,.44-.72,6,6,0,0,0,.07-1.19,1.78,1.78,0,0,1-1.44.72,1.94,1.94,0,0,1-1.65-.81,3.17,3.17,0,0,1-.59-1.94,3.77,3.77,0,0,1,.27-1.44,2.23,2.23,0,0,1,.78-1,2,2,0,0,1,1.2-.36,1.8,1.8,0,0,1,1.51.8v-.68H108v4.7a4.72,4.72,0,0,1-.24,1.79,1.76,1.76,0,0,1-.78.84,2.62,2.62,0,0,1-1.31.31,2.4,2.4,0,0,1-1.49-.44A1.51,1.51,0,0,1,103.64,209.83Zm.72-3.27a2.46,2.46,0,0,0,.4,1.57,1.27,1.27,0,0,0,1,.49,1.26,1.26,0,0,0,1-.49,2.34,2.34,0,0,0,.42-1.54,2.29,2.29,0,0,0-.43-1.5,1.26,1.26,0,0,0-2,0A2.3,2.3,0,0,0,104.36,206.56Z"/><path class="cls-27" d="M112.12,209.38v-5.44h.77v.77a2,2,0,0,1,.65-.65,1.75,1.75,0,0,1,.92-.24,1.6,1.6,0,0,1,.94.25,1.32,1.32,0,0,1,.52.7,1.85,1.85,0,0,1,1.6-1,1.54,1.54,0,0,1,1.19.45,2,2,0,0,1,.41,1.38v3.73h-.87V206a2.57,2.57,0,0,0-.09-.8.79.79,0,0,0-.31-.39.91.91,0,0,0-.52-.15,1.18,1.18,0,0,0-.91.39,1.73,1.73,0,0,0-.36,1.22v3.16h-.88v-3.53a1.68,1.68,0,0,0-.21-.93.79.79,0,0,0-.7-.3,1.2,1.2,0,0,0-.68.2,1.15,1.15,0,0,0-.45.6,3.37,3.37,0,0,0-.14,1.14v2.81Z"/><path class="cls-27" d="M123.81,209.38v-.81a1.88,1.88,0,0,1-1.64.93,1.9,1.9,0,0,1-.86-.19,1.4,1.4,0,0,1-.59-.46,1.72,1.72,0,0,1-.27-.69,5.53,5.53,0,0,1,0-.85v-3.37h.88v3a5.25,5.25,0,0,0,0,1,.92.92,0,0,0,.35.57,1,1,0,0,0,.66.21,1.41,1.41,0,0,0,.74-.21,1.18,1.18,0,0,0,.48-.58,2.94,2.94,0,0,0,.14-1.06v-2.91h.88v5.43h-.77Z"/><path class="cls-27" d="M127.88,208.56l.12.82a3.29,3.29,0,0,1-.66.08,1.4,1.4,0,0,1-.74-.16.83.83,0,0,1-.37-.42,3.55,3.55,0,0,1-.1-1.09v-3.13h-.66v-.72h.66V202.6l.88-.55v1.89h.87v.72H127v3.17a1.81,1.81,0,0,0,0,.51.43.43,0,0,0,.15.18.61.61,0,0,0,.3.06Z"/><path class="cls-27" d="M132.12,208.7a3.2,3.2,0,0,1-.93.62,2.61,2.61,0,0,1-1,.18,1.86,1.86,0,0,1-1.32-.44,1.49,1.49,0,0,1-.46-1.12,1.52,1.52,0,0,1,.18-.73,1.67,1.67,0,0,1,.45-.53,2.22,2.22,0,0,1,.64-.3,6.4,6.4,0,0,1,.78-.14,7.38,7.38,0,0,0,1.57-.32v-.24a1,1,0,0,0-.25-.79,1.39,1.39,0,0,0-1-.31,1.51,1.51,0,0,0-.91.22,1.48,1.48,0,0,0-.43.82l-.88-.13a2.33,2.33,0,0,1,.38-.93,1.7,1.7,0,0,1,.78-.55,3.28,3.28,0,0,1,1.18-.19A3.24,3.24,0,0,1,132,204a1.37,1.37,0,0,1,.61.42,1.41,1.41,0,0,1,.27.62,5.17,5.17,0,0,1,.05.85v1.23a13.71,13.71,0,0,0,.05,1.63,2,2,0,0,0,.21.64h-.9A2.12,2.12,0,0,1,132.12,208.7Zm-.06-2.06a5.78,5.78,0,0,1-1.44.35,3.38,3.38,0,0,0-.77.19.85.85,0,0,0-.35.3.83.83,0,0,0-.12.44.8.8,0,0,0,.27.62,1.08,1.08,0,0,0,.78.25,1.8,1.8,0,0,0,.9-.23,1.41,1.41,0,0,0,.58-.65,2.42,2.42,0,0,0,.14-.93Z"/><path class="cls-27" d="M136.17,208.56l.12.82a3.46,3.46,0,0,1-.66.08,1.38,1.38,0,0,1-.74-.16.83.83,0,0,1-.37-.42,3.45,3.45,0,0,1-.11-1.09v-3.13h-.65v-.72h.65V202.6l.88-.55v1.89h.88v.72h-.88v3.17a1.68,1.68,0,0,0,.05.51.43.43,0,0,0,.15.18.59.59,0,0,0,.3.06Z"/><path class="cls-27" d="M137.06,202.92v-1h.87v1Zm0,6.46v-5.44h.87v5.44Z"/><path class="cls-27" d="M138.9,206.66a2.86,2.86,0,0,1,.8-2.23,2.46,2.46,0,0,1,3.37.12,2.9,2.9,0,0,1,.68,2,3.89,3.89,0,0,1-.3,1.65,2.26,2.26,0,0,1-.87.94,2.46,2.46,0,0,1-1.25.33,2.3,2.3,0,0,1-1.76-.73A3.05,3.05,0,0,1,138.9,206.66Zm.9,0a2.38,2.38,0,0,0,.44,1.56,1.39,1.39,0,0,0,2.17,0,2.45,2.45,0,0,0,.44-1.59,2.31,2.31,0,0,0-.44-1.53,1.4,1.4,0,0,0-2.17,0A2.41,2.41,0,0,0,139.8,206.66Z"/><path class="cls-27" d="M144.77,209.38v-5.44h.8v.77a1.83,1.83,0,0,1,1.64-.89,2.19,2.19,0,0,1,.85.17,1.38,1.38,0,0,1,.58.47,1.73,1.73,0,0,1,.27.68,5.77,5.77,0,0,1,.05.89v3.34h-.9v-3.3a2.61,2.61,0,0,0-.1-.85.91.91,0,0,0-.36-.44,1.08,1.08,0,0,0-.6-.17,1.35,1.35,0,0,0-.95.38,1.91,1.91,0,0,0-.4,1.42v3Z"/><path class="cls-27" d="M150,207.74l.86-.12a1.28,1.28,0,0,0,.4.83,1.33,1.33,0,0,0,.93.29,1.26,1.26,0,0,0,.89-.26.79.79,0,0,0,.29-.6.55.55,0,0,0-.26-.49,3.56,3.56,0,0,0-.89-.31,8.12,8.12,0,0,1-1.33-.45,1.32,1.32,0,0,1-.56-.51,1.53,1.53,0,0,1-.19-.73,1.38,1.38,0,0,1,.16-.67,1.45,1.45,0,0,1,.43-.52,2,2,0,0,1,.55-.27,2.56,2.56,0,0,1,.75-.11,2.83,2.83,0,0,1,1.06.19,1.44,1.44,0,0,1,.68.5,2.17,2.17,0,0,1,.3.84l-.86.13a1,1,0,0,0-.33-.66,1.18,1.18,0,0,0-.79-.24,1.34,1.34,0,0,0-.85.21.64.64,0,0,0-.26.49.57.57,0,0,0,.11.33.71.71,0,0,0,.33.24c.09,0,.34.11.77.23a12.48,12.48,0,0,1,1.29.43,1.31,1.31,0,0,1,.58.48,1.43,1.43,0,0,1,.21.79,1.6,1.6,0,0,1-.25.87,1.7,1.7,0,0,1-.74.63,2.48,2.48,0,0,1-1.08.22,2.35,2.35,0,0,1-1.53-.44A2.15,2.15,0,0,1,150,207.74Z"/><path class="cls-27" d="M45.91,199.58h-.82v-7.5H46v2.67A1.75,1.75,0,0,1,47.4,194a2.18,2.18,0,0,1,.9.2,2,2,0,0,1,.7.57,2.68,2.68,0,0,1,.43.88,3.68,3.68,0,0,1,.16,1.11,3.21,3.21,0,0,1-.66,2.16,2,2,0,0,1-1.58.76,1.64,1.64,0,0,1-1.44-.8v.68Zm0-2.76a2.93,2.93,0,0,0,.25,1.41,1.24,1.24,0,0,0,2.13.19,3.16,3.16,0,0,0,0-3.13,1.2,1.2,0,0,0-1-.51,1.24,1.24,0,0,0-1,.52A2.39,2.39,0,0,0,45.89,196.82Z"/><path class="cls-27" d="M54.05,198.9a2.93,2.93,0,0,1-.94.62,2.56,2.56,0,0,1-1,.18,1.82,1.82,0,0,1-1.32-.44,1.57,1.57,0,0,1-.28-1.84,1.37,1.37,0,0,1,.45-.53,2.06,2.06,0,0,1,.63-.31,7.75,7.75,0,0,1,.78-.13,7.91,7.91,0,0,0,1.57-.32c0-.13,0-.21,0-.24a1.05,1.05,0,0,0-.25-.8,1.46,1.46,0,0,0-1-.31,1.48,1.48,0,0,0-.91.23,1.41,1.41,0,0,0-.44.81l-.87-.12a2.18,2.18,0,0,1,.38-.94,1.76,1.76,0,0,1,.78-.54,3.28,3.28,0,0,1,1.18-.19,3,3,0,0,1,1.08.16,1.59,1.59,0,0,1,.61.41,1.51,1.51,0,0,1,.27.63,5.52,5.52,0,0,1,0,.85v1.23a12.69,12.69,0,0,0,.06,1.62,1.91,1.91,0,0,0,.21.65h-.9A2.18,2.18,0,0,1,54.05,198.9ZM54,196.84a5.78,5.78,0,0,1-1.44.35,3.38,3.38,0,0,0-.77.19.79.79,0,0,0-.35.3.83.83,0,0,0-.12.44.81.81,0,0,0,.27.62,1.09,1.09,0,0,0,.77.24,1.71,1.71,0,0,0,.91-.23,1.38,1.38,0,0,0,.58-.64,2.45,2.45,0,0,0,.14-.93Z"/><path class="cls-27" d="M55.88,197.94l.85-.12a1.29,1.29,0,0,0,.41.83,1.32,1.32,0,0,0,.92.29,1.34,1.34,0,0,0,.9-.25.82.82,0,0,0,.29-.61.56.56,0,0,0-.27-.49,3.18,3.18,0,0,0-.89-.31,6.81,6.81,0,0,1-1.32-.45,1.21,1.21,0,0,1-.56-.51,1.42,1.42,0,0,1-.19-.73,1.45,1.45,0,0,1,.16-.68,1.48,1.48,0,0,1,.42-.51,1.83,1.83,0,0,1,.56-.27,2.56,2.56,0,0,1,.75-.11,2.71,2.71,0,0,1,1.06.19,1.41,1.41,0,0,1,.67.5,1.89,1.89,0,0,1,.3.84l-.85.13a1,1,0,0,0-.34-.66,1.14,1.14,0,0,0-.78-.24,1.34,1.34,0,0,0-.85.21.59.59,0,0,0-.26.49.52.52,0,0,0,.11.32.8.8,0,0,0,.33.25l.76.24a10.54,10.54,0,0,1,1.3.42,1.37,1.37,0,0,1,.58.48,1.43,1.43,0,0,1,.21.79,1.63,1.63,0,0,1-1,1.5,2.51,2.51,0,0,1-1.08.22,2.29,2.29,0,0,1-1.53-.44A2.1,2.1,0,0,1,55.88,197.94Z"/><path class="cls-27" d="M64.77,197.82l.88.13a2.44,2.44,0,0,1-4.08,1,2.94,2.94,0,0,1-.67-2.06,3.11,3.11,0,0,1,.68-2.13,2.23,2.23,0,0,1,1.74-.76,2.15,2.15,0,0,1,1.7.75,3,3,0,0,1,.66,2.09v.25H61.8a2,2,0,0,0,.49,1.36,1.43,1.43,0,0,0,1.1.48,1.31,1.31,0,0,0,.83-.27A1.71,1.71,0,0,0,64.77,197.82Zm-2.95-1.47h3a1.88,1.88,0,0,0-.34-1,1.45,1.45,0,0,0-2.15-.1A1.66,1.66,0,0,0,61.82,196.35Z"/><path class="cls-27" d="M69.48,201.66v-7.51h.8v.7a2,2,0,0,1,.64-.62,1.64,1.64,0,0,1,.86-.21,2,2,0,0,1,1.17.36,2.26,2.26,0,0,1,.77,1,3.91,3.91,0,0,1,.25,1.43,3.75,3.75,0,0,1-.28,1.5,2.26,2.26,0,0,1-.83,1,2.09,2.09,0,0,1-1.14.35,1.59,1.59,0,0,1-.79-.19,2,2,0,0,1-.57-.49v2.64Zm.78-4.77a2.43,2.43,0,0,0,.41,1.55,1.19,1.19,0,0,0,1,.5,1.26,1.26,0,0,0,1-.52,3.23,3.23,0,0,0,0-3.17,1.23,1.23,0,0,0-1-.51,1.25,1.25,0,0,0-1,.55A2.52,2.52,0,0,0,70.26,196.89Z"/><path class="cls-27" d="M78.44,198.9a2.93,2.93,0,0,1-.94.62,2.58,2.58,0,0,1-1,.18,1.79,1.79,0,0,1-1.31-.44,1.45,1.45,0,0,1-.46-1.11,1.6,1.6,0,0,1,.17-.73,1.49,1.49,0,0,1,.46-.53,2.06,2.06,0,0,1,.63-.31,7.75,7.75,0,0,1,.78-.13,8.07,8.07,0,0,0,1.57-.32c0-.13,0-.21,0-.24a1.09,1.09,0,0,0-.25-.8,1.83,1.83,0,0,0-1.91-.08,1.36,1.36,0,0,0-.44.81l-.88-.12a2.32,2.32,0,0,1,.39-.94,1.76,1.76,0,0,1,.78-.54,3.23,3.23,0,0,1,1.17-.19,2.93,2.93,0,0,1,1.08.16,1.45,1.45,0,0,1,.61.41,1.4,1.4,0,0,1,.28.63,5.52,5.52,0,0,1,0,.85v1.23a12.69,12.69,0,0,0,.06,1.62,1.91,1.91,0,0,0,.21.65h-.9A1.94,1.94,0,0,1,78.44,198.9Zm-.06-2.06a5.78,5.78,0,0,1-1.44.35,3.38,3.38,0,0,0-.77.19.79.79,0,0,0-.35.3.87.87,0,0,0,.14,1.06,1.14,1.14,0,0,0,.78.24,1.74,1.74,0,0,0,.91-.23,1.44,1.44,0,0,0,.58-.64,2.45,2.45,0,0,0,.14-.93Z"/><path class="cls-27" d="M80.63,193.12v-1h.88v1Zm0,6.46v-5.43h.88v5.43Z"/><path class="cls-27" d="M82.81,199.58v-5.43h.79V195a2.34,2.34,0,0,1,.55-.77,1,1,0,0,1,.56-.19,1.64,1.64,0,0,1,.9.3l-.31.85a1.21,1.21,0,0,0-.64-.19.84.84,0,0,0-.51.18,1,1,0,0,0-.32.51,3.6,3.6,0,0,0-.14,1.07v2.84Z"/><path class="cls-27" d="M92.29,198.9a2.93,2.93,0,0,1-.94.62,2.58,2.58,0,0,1-1,.18,1.78,1.78,0,0,1-1.31-.44,1.45,1.45,0,0,1-.46-1.11,1.6,1.6,0,0,1,.17-.73,1.49,1.49,0,0,1,.46-.53,2.06,2.06,0,0,1,.63-.31,6.85,6.85,0,0,1,.78-.13,8.07,8.07,0,0,0,1.57-.32v-.24a1.09,1.09,0,0,0-.24-.8,1.83,1.83,0,0,0-1.91-.08,1.36,1.36,0,0,0-.44.81l-.88-.12a2.32,2.32,0,0,1,.39-.94,1.76,1.76,0,0,1,.78-.54,3.23,3.23,0,0,1,1.17-.19,2.93,2.93,0,0,1,1.08.16,1.56,1.56,0,0,1,.62.41,1.51,1.51,0,0,1,.27.63,5.52,5.52,0,0,1,0,.85v1.23c0,.85,0,1.4.05,1.62a2.17,2.17,0,0,0,.22.65h-.9A1.75,1.75,0,0,1,92.29,198.9Zm-.07-2.06a5.8,5.8,0,0,1-1.43.35,3.24,3.24,0,0,0-.77.19.79.79,0,0,0-.35.3.75.75,0,0,0-.12.44.8.8,0,0,0,.26.62,1.14,1.14,0,0,0,.78.24,1.68,1.68,0,0,0,.9-.23,1.33,1.33,0,0,0,.58-.64,2.27,2.27,0,0,0,.14-.93Z"/><path class="cls-27" d="M94.44,199.58v-5.43h.8v.77a1.81,1.81,0,0,1,1.63-.9,2,2,0,0,1,.85.18,1.4,1.4,0,0,1,.59.46,2,2,0,0,1,.27.68,5.83,5.83,0,0,1,0,.9v3.34h-.9v-3.31a2.59,2.59,0,0,0-.1-.84.91.91,0,0,0-.36-.44,1.08,1.08,0,0,0-.6-.17,1.32,1.32,0,0,0-1,.37,1.91,1.91,0,0,0-.4,1.42v3Z"/><path class="cls-27" d="M100,199.58v-5.43h.8v.77a1.81,1.81,0,0,1,1.63-.9,2,2,0,0,1,.86.18,1.37,1.37,0,0,1,.58.46,1.8,1.8,0,0,1,.27.68,5.83,5.83,0,0,1,0,.9v3.34h-.9v-3.31a2.59,2.59,0,0,0-.1-.84.91.91,0,0,0-.36-.44,1.08,1.08,0,0,0-.6-.17,1.35,1.35,0,0,0-.95.37,1.91,1.91,0,0,0-.4,1.42v3H100Z"/><path class="cls-27" d="M105.2,196.86a2.88,2.88,0,0,1,.8-2.23,2.35,2.35,0,0,1,1.62-.61,2.26,2.26,0,0,1,1.74.74,2.88,2.88,0,0,1,.68,2,3.74,3.74,0,0,1-.3,1.65,2.17,2.17,0,0,1-.87.93,2.46,2.46,0,0,1-1.25.33,2.24,2.24,0,0,1-1.75-.73A3,3,0,0,1,105.2,196.86Zm.9,0a2.41,2.41,0,0,0,.43,1.57,1.38,1.38,0,0,0,1.09.52,1.36,1.36,0,0,0,1.09-.53,2.45,2.45,0,0,0,.43-1.59,2.34,2.34,0,0,0-.43-1.53,1.35,1.35,0,0,0-1.09-.52,1.36,1.36,0,0,0-1.09.52A2.36,2.36,0,0,0,106.1,196.86Z"/><path class="cls-27" d="M113,198.76l.13.82a3.47,3.47,0,0,1-.67.08,1.43,1.43,0,0,1-.74-.16.89.89,0,0,1-.37-.42,3.52,3.52,0,0,1-.1-1.08v-3.14h-.65v-.71h.65v-1.34l.88-.56v1.9H113v.71h-.88V198a2.21,2.21,0,0,0,0,.5.38.38,0,0,0,.15.18.6.6,0,0,0,.3.07Z"/><path class="cls-27" d="M117.23,198.9a3,3,0,0,1-.93.62,2.61,2.61,0,0,1-1,.18,1.82,1.82,0,0,1-1.32-.44,1.57,1.57,0,0,1,.17-2.37,2.06,2.06,0,0,1,.63-.31,7.55,7.55,0,0,1,.79-.13,7.78,7.78,0,0,0,1.56-.32c0-.13,0-.21,0-.24a1.05,1.05,0,0,0-.25-.8,1.46,1.46,0,0,0-1-.31,1.5,1.5,0,0,0-.91.23,1.41,1.41,0,0,0-.43.81l-.88-.12a2.32,2.32,0,0,1,.38-.94,1.76,1.76,0,0,1,.78-.54A3.28,3.28,0,0,1,116,194a3,3,0,0,1,1.08.16,1.25,1.25,0,0,1,.88,1,5.17,5.17,0,0,1,0,.85v1.23c0,.85,0,1.4,0,1.62a2.47,2.47,0,0,0,.21.65h-.9A2.18,2.18,0,0,1,117.23,198.9Zm-.06-2.06a5.78,5.78,0,0,1-1.44.35,3.53,3.53,0,0,0-.77.19.85.85,0,0,0-.35.3.83.83,0,0,0-.12.44.81.81,0,0,0,.27.62,1.14,1.14,0,0,0,.78.24,1.68,1.68,0,0,0,.9-.23,1.38,1.38,0,0,0,.58-.64,2.45,2.45,0,0,0,.14-.93Z"/><path class="cls-27" d="M121.28,198.76l.12.82a3.46,3.46,0,0,1-.66.08,1.38,1.38,0,0,1-.74-.16.8.8,0,0,1-.37-.42,3.42,3.42,0,0,1-.11-1.08v-3.14h-.65v-.71h.65v-1.34l.88-.56v1.9h.88v.71h-.88V198a2.21,2.21,0,0,0,0,.5.38.38,0,0,0,.15.18.6.6,0,0,0,.3.07Z"/><path class="cls-27" d="M122.17,193.12v-1h.88v1Zm0,6.46v-5.43h.88v5.43Z"/><path class="cls-27" d="M124,196.86a2.88,2.88,0,0,1,.8-2.23,2.35,2.35,0,0,1,1.62-.61,2.3,2.3,0,0,1,1.75.74,2.87,2.87,0,0,1,.67,2,3.74,3.74,0,0,1-.3,1.65,2.11,2.11,0,0,1-.87.93,2.42,2.42,0,0,1-1.24.33,2.26,2.26,0,0,1-1.76-.73A3.05,3.05,0,0,1,124,196.86Zm.9,0a2.41,2.41,0,0,0,.44,1.57,1.38,1.38,0,0,0,1.09.52,1.34,1.34,0,0,0,1.08-.53,2.45,2.45,0,0,0,.44-1.59,2.35,2.35,0,0,0-.44-1.53,1.39,1.39,0,0,0-2.17,0A2.36,2.36,0,0,0,124.91,196.86Z"/><path class="cls-27" d="M129.88,199.58v-5.43h.8v.77a1.82,1.82,0,0,1,1.64-.9,2,2,0,0,1,.85.18,1.37,1.37,0,0,1,.58.46,1.8,1.8,0,0,1,.27.68,5.83,5.83,0,0,1,0,.9v3.34h-.9v-3.31a2.59,2.59,0,0,0-.1-.84.84.84,0,0,0-.35-.44,1.08,1.08,0,0,0-.6-.17,1.36,1.36,0,0,0-1,.37,1.91,1.91,0,0,0-.4,1.42v3h-.88Z"/><path class="cls-27" d="M135.1,197.94l.86-.12a1.28,1.28,0,0,0,.4.83,1.33,1.33,0,0,0,.93.29,1.31,1.31,0,0,0,.89-.25.82.82,0,0,0,.29-.61.57.57,0,0,0-.26-.49,3.32,3.32,0,0,0-.89-.31,7.25,7.25,0,0,1-1.33-.45,1.32,1.32,0,0,1-.56-.51,1.42,1.42,0,0,1-.19-.73,1.45,1.45,0,0,1,.16-.68,1.5,1.5,0,0,1,.43-.51,1.66,1.66,0,0,1,.55-.27,2.56,2.56,0,0,1,.75-.11,2.68,2.68,0,0,1,1.06.19,1.44,1.44,0,0,1,.68.5,2.17,2.17,0,0,1,.3.84l-.86.13A1,1,0,0,0,138,195a1.14,1.14,0,0,0-.78-.24,1.34,1.34,0,0,0-.85.21.62.62,0,0,0-.26.49.52.52,0,0,0,.11.32.8.8,0,0,0,.33.25l.77.24a10.84,10.84,0,0,1,1.29.42,1.31,1.31,0,0,1,.58.48,1.43,1.43,0,0,1,.21.79,1.6,1.6,0,0,1-.25.87,1.65,1.65,0,0,1-.74.63,2.51,2.51,0,0,1-1.08.22,2.29,2.29,0,0,1-1.53-.44A2.15,2.15,0,0,1,135.1,197.94Z"/><rect class="cls-28" x="56.46" y="204.02" width="5.29" height="5.07"/><rect class="cls-28" x="44.46" y="204.02" width="5.29" height="5.07"/><rect class="cls-28" x="49.75" y="204.02" width="6.71" height="5.07"/><line class="cls-22" x1="54.06" y1="206.55" x2="52.15" y2="206.55"/><path class="cls-29" d="M47.43,344.58v-7.5h3.31a4.53,4.53,0,0,1,1.52.2,1.66,1.66,0,0,1,.82.71,2.14,2.14,0,0,1,.31,1.13,1.91,1.91,0,0,1-.51,1.35,2.56,2.56,0,0,1-1.58.69,2.51,2.51,0,0,1,.59.38,5.2,5.2,0,0,1,.82,1L54,344.58H52.76l-1-1.57c-.29-.44-.52-.79-.71-1a2.33,2.33,0,0,0-.5-.5,1.48,1.48,0,0,0-.45-.2,3.45,3.45,0,0,0-.55,0H48.43v3.33Zm1-4.21h2.12a3.2,3.2,0,0,0,1.05-.14,1.13,1.13,0,0,0,.58-.44,1.24,1.24,0,0,0,.19-.67,1.14,1.14,0,0,0-.38-.87,1.8,1.8,0,0,0-1.21-.33H48.43v2.45Z"/><path class="cls-29" d="M62.56,340.18H57.62v-.85h4.94Zm0,2.27H57.62v-.85h4.94Z"/><path class="cls-29" d="M66,344.58l2.88-7.5H70l3,7.5H71.9l-.85-2.27H67.92l-.81,2.27Zm2.16-3.09h2.55L70,339.43c-.23-.64-.41-1.15-.53-1.56a8.38,8.38,0,0,1-.41,1.44Z"/><path class="cls-29" d="M76.29,341.86a2.81,2.81,0,0,1,.84-2.24,2.53,2.53,0,0,1,1.71-.6,2.49,2.49,0,0,1,1.83.73,2.82,2.82,0,0,1,.71,2,3.58,3.58,0,0,1-.32,1.65,2.15,2.15,0,0,1-.91.93,2.59,2.59,0,0,1-1.31.34A2.45,2.45,0,0,1,77,344,2.93,2.93,0,0,1,76.29,341.86Zm.94,0a2.27,2.27,0,0,0,.46,1.56,1.52,1.52,0,0,0,2.29,0,2.35,2.35,0,0,0,.46-1.6,2.29,2.29,0,0,0-.46-1.53,1.49,1.49,0,0,0-1.14-.52,1.47,1.47,0,0,0-1.15.52A2.3,2.3,0,0,0,77.23,341.86Z"/><path class="cls-29" d="M82.43,344.58v-5.44h.82V340a2.29,2.29,0,0,1,.59-.77,1,1,0,0,1,.59-.18,1.76,1.76,0,0,1,.94.3l-.32.84a1.4,1.4,0,0,0-.67-.18.83.83,0,0,0-.53.18.94.94,0,0,0-.34.5,3.38,3.38,0,0,0-.16,1.07v2.84Z"/><path class="cls-29" d="M92.46,341.64v-.88h3.16v2.77a5.36,5.36,0,0,1-1.5.87,4.41,4.41,0,0,1-1.6.3,4.3,4.3,0,0,1-2-.47,3.16,3.16,0,0,1-1.36-1.37,4.27,4.27,0,0,1-.46-2,4.58,4.58,0,0,1,.46-2,3,3,0,0,1,1.31-1.4,4.08,4.08,0,0,1,2-.46,3.76,3.76,0,0,1,1.46.26,2.37,2.37,0,0,1,1,.74,3.19,3.19,0,0,1,.57,1.23l-.92.24a2.7,2.7,0,0,0-.42-.9,1.71,1.71,0,0,0-.71-.52,2.61,2.61,0,0,0-1-.19,3.18,3.18,0,0,0-1.17.2,2.27,2.27,0,0,0-.8.55,2.86,2.86,0,0,0-.46.74,3.94,3.94,0,0,0-.29,1.51,3.63,3.63,0,0,0,.34,1.67,2.27,2.27,0,0,0,1,1,3,3,0,0,0,1.39.32,3.35,3.35,0,0,0,1.25-.24,3.18,3.18,0,0,0,.92-.54v-1.4Z"/><path class="cls-29" d="M97.22,344.58v-1.05h1v1.05Z"/><path class="cls-29" d="M105,344.58V341.4l-2.88-4.32h1.2l1.46,2.28c.28.41.54.84.77,1.26l.83-1.32,1.45-2.22H109l-3,4.32v3.18Z"/><path class="cls-29" d="M117.49,340.18h-4.95v-.85h4.95Zm0,2.27h-4.95v-.85h4.95Z"/><path class="cls-29" d="M127.13,341.94l1,.25a3.34,3.34,0,0,1-1.13,1.86,3,3,0,0,1-2,.65,3.61,3.61,0,0,1-2-.49,3.07,3.07,0,0,1-1.16-1.43,5.18,5.18,0,0,1-.39-2,4.51,4.51,0,0,1,.44-2,3.08,3.08,0,0,1,1.28-1.32,3.71,3.71,0,0,1,1.81-.45,3.07,3.07,0,0,1,1.89.57,3,3,0,0,1,1.07,1.61l-1,.23a2.32,2.32,0,0,0-.76-1.19,2.05,2.05,0,0,0-1.24-.37,2.48,2.48,0,0,0-1.45.41,2.27,2.27,0,0,0-.81,1.11,4.9,4.9,0,0,0,0,3.09,2.12,2.12,0,0,0,.87,1.07,2.45,2.45,0,0,0,1.27.35,2.11,2.11,0,0,0,1.4-.48A2.38,2.38,0,0,0,127.13,341.94Z"/><path class="cls-29" d="M131.79,341.86a2.81,2.81,0,0,1,.84-2.24,2.55,2.55,0,0,1,1.71-.6,2.47,2.47,0,0,1,1.83.73,2.82,2.82,0,0,1,.71,2,3.58,3.58,0,0,1-.32,1.65,2.15,2.15,0,0,1-.91.93,2.59,2.59,0,0,1-1.31.34,2.46,2.46,0,0,1-1.84-.73A2.93,2.93,0,0,1,131.79,341.86Zm.94,0a2.27,2.27,0,0,0,.46,1.56,1.52,1.52,0,0,0,2.29,0,2.35,2.35,0,0,0,.46-1.6,2.24,2.24,0,0,0-.46-1.53,1.5,1.5,0,0,0-1.15-.52,1.46,1.46,0,0,0-1.14.52A2.3,2.3,0,0,0,132.73,341.86Z"/><path class="cls-29" d="M137.93,344.58v-5.44h.82V340a2.29,2.29,0,0,1,.59-.77,1,1,0,0,1,.59-.18,1.82,1.82,0,0,1,.95.3l-.33.84a1.38,1.38,0,0,0-.67-.18.87.87,0,0,0-.53.18,1,1,0,0,0-.34.5,3.38,3.38,0,0,0-.16,1.07v2.84Z"/><path class="cls-29" d="M52.31,349.63h1V354a5.12,5.12,0,0,1-.25,1.79,2.14,2.14,0,0,1-.92,1.08,3.24,3.24,0,0,1-1.75.42,3.63,3.63,0,0,1-1.72-.36,2.09,2.09,0,0,1-1-1.06,5,5,0,0,1-.29-1.87v-4.33h1v4.31a4,4,0,0,0,.19,1.43,1.37,1.37,0,0,0,.61.71,2.12,2.12,0,0,0,1.07.25,2,2,0,0,0,1.55-.49,2.83,2.83,0,0,0,.47-1.9v-4.31Z"/><path class="cls-29" d="M55.08,357.12v-1h1.05v1Z"/><text class="cls-30" transform="translate(6.08 19.09)">AdoCbl Riboswitch</text></svg>