<svg id="图层_1" data-name="图层 1" xmlns="http://www.w3.org/2000/svg" viewBox="0 0 400 400"><defs><style>.cls-1{fill:#c2c2ff;}.cls-2,.cls-8{fill:#80db9e;}.cls-3,.cls-5{fill:none;stroke:#000;}.cls-3{stroke-linejoin:round;}.cls-10,.cls-4{fill:#0a0bff;}.cls-5{stroke-linecap:square;}.cls-11,.cls-5{stroke-miterlimit:10;}.cls-12,.cls-13,.cls-6{fill:#fff;}.cls-7,.cls-9{fill:#ffdf5c;}.cls-10,.cls-12,.cls-13,.cls-14,.cls-8,.cls-9{isolation:isolate;font-family:ArialMT, Arial;}.cls-10,.cls-8,.cls-9{font-size:27.15px;}.cls-11{fill:#ba2e24;stroke:#ba2e24;}.cls-12,.cls-13{font-size:16.29px;}.cls-13{letter-spacing:-0.02em;}.cls-14{font-size:20px;}.cls-15{letter-spacing:-0.02em;}</style></defs><path class="cls-1" d="M132.2,253l3.8-9.9h1.4l4,9.9H140l-1.1-3h-4.2l-1.1,3Zm2.9-4h3.3l-1-2.7a16.45,16.45,0,0,1-.7-2,13.32,13.32,0,0,1-.5,1.9Z"/><path class="cls-1" d="M149.1,231h1.3v5.7a9.86,9.86,0,0,1-.3,2.4,2.76,2.76,0,0,1-1.2,1.4,4.65,4.65,0,0,1-2.3.6,4.56,4.56,0,0,1-2.3-.5,3,3,0,0,1-1.3-1.4,6.9,6.9,0,0,1-.4-2.5V231h1.3v5.7a12.25,12.25,0,0,0,.2,1.9,1.76,1.76,0,0,0,.8.9,3.19,3.19,0,0,0,1.4.3,2.61,2.61,0,0,0,2-.7,3.61,3.61,0,0,0,.6-2.5Z"/><path class="cls-1" d="M155.3,233l3.8-9.9h1.4l4,9.9H163l-1.2-3h-4.1l-1.1,3Zm2.8-4.1h3.3l-1-2.7a11.76,11.76,0,0,1-.7-2,13.32,13.32,0,0,1-.5,1.9Z"/><path class="cls-2" d="M173.4,224.2l1.3.3a3.84,3.84,0,0,1-1.5,2.4,4.11,4.11,0,0,1-2.6.9,5.83,5.83,0,0,1-2.6-.6,4,4,0,0,1-1.5-1.9,5.75,5.75,0,0,1-.5-2.6,6.26,6.26,0,0,1,.6-2.7,4,4,0,0,1,1.7-1.7,5,5,0,0,1,2.4-.6,3.78,3.78,0,0,1,3.9,2.9l-1.3.3a3.36,3.36,0,0,0-1-1.6,3.06,3.06,0,0,0-3.5.1,3.27,3.27,0,0,0-1.1,1.5,6.4,6.4,0,0,0,.1,4.1,2.59,2.59,0,0,0,1.1,1.4,3.37,3.37,0,0,0,1.7.5,3.29,3.29,0,0,0,1.9-.6A5.58,5.58,0,0,0,173.4,224.2Z"/><path class="cls-2" d="M172.8,207.3h1.3V213a9.86,9.86,0,0,1-.3,2.4,2.76,2.76,0,0,1-1.2,1.4,4.65,4.65,0,0,1-2.3.6,4.56,4.56,0,0,1-2.3-.5,3,3,0,0,1-1.3-1.4,6.9,6.9,0,0,1-.4-2.5v-5.7h1.3V213a12.25,12.25,0,0,0,.2,1.9,1.76,1.76,0,0,0,.8.9,3.19,3.19,0,0,0,1.4.3,3,3,0,0,0,2-.6,3.61,3.61,0,0,0,.6-2.5Z"/><path class="cls-2" d="M165.8,206.7l3.8-9.9H171l4,9.9h-1.5l-1.1-3h-4.1l-1.1,3Zm2.9-4H172l-1-2.7a16.45,16.45,0,0,1-.7-2,13.32,13.32,0,0,1-.5,1.9Z"/><path class="cls-2" d="M165.8,196.1l3.8-9.9H171l4,9.9h-1.5l-1.1-3h-4.1l-1.1,3Zm2.9-4H172l-1-2.7a16.45,16.45,0,0,1-.7-2,13.32,13.32,0,0,1-.5,1.9Z"/><path class="cls-2" d="M191.7,192.3v-1.2h4.2v3.7a8.17,8.17,0,0,1-2,1.2,5.22,5.22,0,0,1-2.1.4,5.83,5.83,0,0,1-2.6-.6,3.92,3.92,0,0,1-1.8-1.8,5.83,5.83,0,0,1-.6-2.6,6.26,6.26,0,0,1,.6-2.7,5.19,5.19,0,0,1,1.7-1.9,5.83,5.83,0,0,1,2.6-.6,4.06,4.06,0,0,1,1.9.4,4.51,4.51,0,0,1,1.4,1,3.29,3.29,0,0,1,.7,1.6l-1.2.3a3.38,3.38,0,0,0-.6-1.2,3.59,3.59,0,0,0-1-.7,3.19,3.19,0,0,0-1.4-.3,4.53,4.53,0,0,0-1.6.3,3.59,3.59,0,0,0-1,.7,2.07,2.07,0,0,0-.6,1,4.48,4.48,0,0,0-.4,2,5.38,5.38,0,0,0,.4,2.2,3.25,3.25,0,0,0,1.3,1.3,4.28,4.28,0,0,0,3.5.1,4.73,4.73,0,0,0,1.2-.7v-1.8Z"/><path class="cls-2" d="M194.4,203.2l1.3.3a3.84,3.84,0,0,1-1.5,2.4,4.11,4.11,0,0,1-2.6.9,5.83,5.83,0,0,1-2.6-.6,4,4,0,0,1-1.5-1.9,5.75,5.75,0,0,1-.5-2.6,6.26,6.26,0,0,1,.6-2.7,4.9,4.9,0,0,1,1.7-1.8,5,5,0,0,1,2.4-.6,3.9,3.9,0,0,1,3.9,2.9l-1.3.3a3.36,3.36,0,0,0-1-1.6,3.32,3.32,0,0,0-1.6-.5,4.14,4.14,0,0,0-1.9.5,3.27,3.27,0,0,0-1.1,1.5,5.82,5.82,0,0,0-.3,1.9,5.38,5.38,0,0,0,.4,2.2,2.59,2.59,0,0,0,1.1,1.4,3.37,3.37,0,0,0,1.7.5,3.29,3.29,0,0,0,1.9-.6A4.2,4.2,0,0,0,194.4,203.2Z"/><path class="cls-2" d="M191.7,213.3v-1.2h4.2v3.7a8.17,8.17,0,0,1-2,1.2,5.22,5.22,0,0,1-2.1.4,5.83,5.83,0,0,1-2.6-.6,3.92,3.92,0,0,1-1.8-1.8,5.83,5.83,0,0,1-.6-2.6,6.6,6.6,0,0,1,.6-2.7,5.19,5.19,0,0,1,1.7-1.9,5.83,5.83,0,0,1,2.6-.6,4.06,4.06,0,0,1,1.9.4,4.51,4.51,0,0,1,1.4,1,3.29,3.29,0,0,1,.7,1.6l-1.2.3a3.38,3.38,0,0,0-.6-1.2,2.29,2.29,0,0,0-1-.7,3.19,3.19,0,0,0-1.4-.3,4.53,4.53,0,0,0-1.6.3,3.59,3.59,0,0,0-1,.7,2.07,2.07,0,0,0-.6,1,4.48,4.48,0,0,0-.4,2,5.38,5.38,0,0,0,.4,2.2,3.25,3.25,0,0,0,1.3,1.3,4.06,4.06,0,0,0,1.9.4,4.15,4.15,0,0,0,1.6-.3,4.73,4.73,0,0,0,1.2-.7v-1.8Z"/><path class="cls-2" d="M191.7,223.8v-1.2h4.2v3.7a8.17,8.17,0,0,1-2,1.2,5.22,5.22,0,0,1-2.1.4,5.83,5.83,0,0,1-2.6-.6,3.92,3.92,0,0,1-1.8-1.8,5.83,5.83,0,0,1-.6-2.6,6.26,6.26,0,0,1,.6-2.7,5.19,5.19,0,0,1,1.7-1.9,5.83,5.83,0,0,1,2.6-.6,4.06,4.06,0,0,1,1.9.4,4.51,4.51,0,0,1,1.4,1,3.29,3.29,0,0,1,.7,1.6l-1.2.3a3.38,3.38,0,0,0-.6-1.2,2.29,2.29,0,0,0-1-.7,3.19,3.19,0,0,0-1.4-.3,4.53,4.53,0,0,0-1.6.3,3.59,3.59,0,0,0-1,.7,2.07,2.07,0,0,0-.6,1,4.48,4.48,0,0,0-.4,2,5.38,5.38,0,0,0,.4,2.2,3.25,3.25,0,0,0,1.3,1.3,4.06,4.06,0,0,0,1.9.4,4.15,4.15,0,0,0,1.6-.3,4.73,4.73,0,0,0,1.2-.7v-1.8Z"/><line class="cls-3" x1="191.6" y1="229.2" x2="191.6" y2="236.2"/><path d="M188,250.6v-2.4h-4.3v-1.1l4.5-6.4h1v6.4h1.3v1.1h-1.3v2.4Zm0-3.5v-4.5l-3.1,4.5Zm3.9-1.4a8.63,8.63,0,0,1,.4-2.8,3.55,3.55,0,0,1,1.1-1.6,2.79,2.79,0,0,1,1.8-.6,3.19,3.19,0,0,1,1.4.3,2.19,2.19,0,0,1,1,.9,4,4,0,0,1,.6,1.5,11.26,11.26,0,0,1-.2,5.1,3.55,3.55,0,0,1-1.1,1.6,3.06,3.06,0,0,1-4-.4,7,7,0,0,1-1-4Zm1.3,0a5.92,5.92,0,0,0,.6,3.2,1.66,1.66,0,0,0,2.2.6,1.7,1.7,0,0,0,.6-.6,9.1,9.1,0,0,0,0-6.5,1.6,1.6,0,0,0-1.4-.8,1.71,1.71,0,0,0-1.3.7,6,6,0,0,0-.7,3.4Z"/><path class="cls-1" d="M209.5,235.6l3.8-9.9h1.4l4.1,9.9h-1.5l-1.2-3H212l-1.1,3Zm2.9-4h3.4l-1-2.8a16.45,16.45,0,0,1-.7-2,13.32,13.32,0,0,1-.5,1.9Z"/><path class="cls-4" d="M228.9,222.4l3.8-9.9h1.4l4,9.9h-1.5l-1.1-3h-4.1l-1.1,3Zm2.9-4h3.3l-1-2.7a16.45,16.45,0,0,1-.7-2,13.32,13.32,0,0,1-.5,1.9Z"/><line class="cls-3" x1="174.7" y1="222.2" x2="187.4" y2="222.2"/><path d="M179.4,213l.1.1.1.1.1.1.1.1.1.1.1.1.1.1.1.1h1.7l.1-.1.1-.1.1-.1.1-.1.1-.1.1-.1.1-.1.1-.1.1-.1.1-.1.1-.1.1-.1V211l-.1-.1-.1-.1-.1-.1-.1-.1-.1-.1-.1-.1-.1-.1-.1-.1-.1-.1-.1-.1-.1-.1-.1-.1h-1.7l-.1.1-.1.1-.1.1-.1.1-.1.1-.1.1-.1.1-.1.1-.1.1-.1.1-.1.1-.1.1v1.5l.1.1.1.1.1.1Z"/><path class="cls-5" d="M183.1,211.7v-.8l-.1-.1-.1-.1-.1-.1-.1-.1-.1-.1-.1-.1-.1-.1-.1-.1-.1-.1-.1-.1-.1-.1-.1-.1h-1.7l-.1.1-.1.1v.1l-.1.1-.1.1-.1.1-.1.1-.1.1-.1.1-.1.1-.1.1-.1.1v.1l-.1.1v1.1l.1.1v.1l.1.1.1.1.1.1.1.1.1.1.1.1.1.1.1.1.1.1.1.1.1.1.1.1H182l.1-.1.1-.1.1-.1.1-.1.1-.1.1-.1.1-.1.1-.1.1-.1.1-.1.1-.1.1-.1-.1-.7h0"/><line class="cls-3" x1="174.7" y1="201.1" x2="187.4" y2="201.1"/><path class="cls-6" d="M175.6,201.1l4.1,2.4v-4.7Z"/><path class="cls-5" d="M175.6,201.1l4.1,2.4v-4.7l-4.1,2.3"/><path class="cls-6" d="M185.9,199.1h-4.2v4.2h4.2Z"/><path class="cls-5" d="M185.9,199.1h-4.2v4.2h4.2v-4.2"/><path class="cls-3" d="M193.6,197.5l8.4-14.8,61-39.5-.4-19.5"/><path d="M231.9,165h1.4l.1-.1.1-.1.1-.1.1-.1.1-.1.1-.1.1-.1.1-.1.1-.1.1-.1.1-.1.1-.1.1-.1v-1.6l-.1-.1-.1-.1-.1-.1-.1-.1-.1-.1-.1-.1-.1-.1-.1-.1-.1-.1-.1-.1-.1-.1-.1-.1-.1-.1h-1.6l-.1.1-.1.1-.1.1-.1.1-.1.1-.1.1-.1.1-.1.1-.1.1-.1.1-.1.1-.1.1v1.6l.1.1.1.1.1.1.1.1.1.1.1.1.1.1.1.1.1.1.1.1.1.1.1.1Z"/><path class="cls-5" d="M234.3,161.9l-.1-.1-.1-.1-.1-.1-.1-.1-.1-.1-.1-.1-.1-.1-.1-.1-.1-.1-.1-.1h-1.6l-.1.1-.1.1-.1.1-.1.1-.1.1-.1.1-.1.1-.1.1-.1.1-.1.1-.1.1-.1.1v1.6l.1.1.1.1.1.1.1.1.1.1.1.1.1.1.1.1.1.1.1.1.1.1.1.1.1.1h1.4l.1-.1.1-.1.1-.1.1-.1.1-.1.1-.1.1-.1.1-.1.1-.1.1-.1.1-.1.1-.1.1-.1v-1.6l-.1-.1-.1-.1h0"/><line class="cls-3" x1="195.8" y1="211.7" x2="218.9" y2="211.7"/><path class="cls-6" d="M210.1,211.7l-4.1-2.4V214Z"/><path class="cls-5" d="M210.1,211.7l-4.1-2.4V214l4.1-2.3"/><line class="cls-3" x1="195.8" y1="225.2" x2="211.1" y2="231.1"/><path d="M202.4,226.1l-1-2.1-2.2,5.8,2.2-.8,1.8.1,1.7.4,3.5.5-3-1.9-1.5-.9Z"/><path class="cls-5" d="M201.4,224l1.1,2.1,1.4,1.1,1.5.9,3,2-3.5-.5-1.7-.4-1.8-.1-2.2.8,2.2-5.9"/><line class="cls-3" x1="217.5" y1="231.4" x2="229" y2="223.1"/><path d="M220.82,232.7l.5-2.3,1.1-1.4,1.3-1.2,2.4-2.7-3.3,1.4-1.6.8-1.7.6-2.4-.3Z"/><path class="cls-5" d="M217.12,227.6l2.4.3,1.7-.6,1.6-.8,3.3-1.4-2.4,2.7-1.3,1.2-1.1,1.4-.5,2.3-3.7-5.1"/><path class="cls-3" d="M172.6,302.2l-.2-.5,14,16.9h.1"/><path d="M175.6,305.6l.8,4.7,3.7-3Z"/><path d="M179.3,312.7v.2l.1.1v.1l.1.1.1.1.1.1.3.4.1.1.1.1.1.1.1.1.1.1h1.2l.1-.1.1-.1.1-.1.1-.1.1-.1.4-.3.1-.1.1-.1.1-.1.1-.1.1-.1v-.1l.1-.1v-1l-.1-.1-.1-.1-.1-.1-.1-.1-.1-.1-.2-.3-.1-.1-.1-.1-.1-.1-.1-.1-.1-.1-.1-.1h-1.2l-.1.1-.1.1-.1.1-.1.1-.1.1-.2.1-.1.1-.1.1-.1.1-.1.1-.1.1-.1.1-.1.1v1Z"/><path class="cls-2" d="M165.8,185.6l3.8-9.9H171l4,9.9h-1.5l-1.1-3h-4.1l-1.1,3Zm2.9-4H172l-1-2.7a16.45,16.45,0,0,1-.7-2,13.32,13.32,0,0,1-.5,1.9Z"/><path class="cls-2" d="M173.4,171.6l1.3.3a3.84,3.84,0,0,1-1.5,2.4,4.11,4.11,0,0,1-2.6.9,5.83,5.83,0,0,1-2.6-.6,4,4,0,0,1-1.5-1.9,5.75,5.75,0,0,1-.5-2.6,6.26,6.26,0,0,1,.6-2.7,4.21,4.21,0,0,1,1.7-1.8,5,5,0,0,1,2.4-.6,3.9,3.9,0,0,1,3.9,2.9l-1.3.3a3.36,3.36,0,0,0-1-1.6,3.32,3.32,0,0,0-1.6-.5,4.14,4.14,0,0,0-1.9.5,3.27,3.27,0,0,0-1.1,1.5,6.4,6.4,0,0,0,.1,4.1,2.59,2.59,0,0,0,1.1,1.4,3.37,3.37,0,0,0,1.7.5,3.29,3.29,0,0,0,1.9-.6A3.75,3.75,0,0,0,173.4,171.6Z"/><line class="cls-3" x1="163.5" y1="169.6" x2="156.5" y2="169.6"/><path d="M147.4,173.9v1.2h-6.5a2.77,2.77,0,0,1,.1-.9,5.67,5.67,0,0,1,.8-1.3c.5-.5,1-1,1.6-1.5a14.46,14.46,0,0,0,2.2-2.1,3.39,3.39,0,0,0,.6-1.5,1.66,1.66,0,0,0-.5-1.2,2.11,2.11,0,0,0-1.3-.5,2.39,2.39,0,0,0-1.4.5,2,2,0,0,0-.5,1.5l-1.2-.1a2.81,2.81,0,0,1,1-2.1,2.93,2.93,0,0,1,2.2-.7,3,3,0,0,1,2.2.8,2.44,2.44,0,0,1,.8,2,5,5,0,0,1-.2,1.2,8.34,8.34,0,0,1-.8,1.2c-.6.6-1.2,1.1-1.9,1.7a17.41,17.41,0,0,0-1.4,1.2,1.79,1.79,0,0,0-.5.7Zm1.4-3.7a8.63,8.63,0,0,1,.4-2.8,3.55,3.55,0,0,1,1.1-1.6,2.79,2.79,0,0,1,1.8-.6,3.19,3.19,0,0,1,1.4.3,2.19,2.19,0,0,1,1,.9,4,4,0,0,1,.6,1.5,11.26,11.26,0,0,1-.2,5.1,4.52,4.52,0,0,1-1.1,1.7,3.06,3.06,0,0,1-4-.4,8,8,0,0,1-1-4.1Zm1.3,0a5.92,5.92,0,0,0,.6,3.2,1.63,1.63,0,0,0,2.8,0,9.1,9.1,0,0,0,0-6.5,1.6,1.6,0,0,0-1.4-.8,1.71,1.71,0,0,0-1.3.7A6,6,0,0,0,150.1,170.2Z"/><path class="cls-2" d="M173.4,161.1l1.3.3a3.84,3.84,0,0,1-1.5,2.4,4.11,4.11,0,0,1-2.6.9,5.83,5.83,0,0,1-2.6-.6,4,4,0,0,1-1.5-1.9,5.75,5.75,0,0,1-.5-2.6,6.26,6.26,0,0,1,.6-2.7,4.21,4.21,0,0,1,1.7-1.8,5,5,0,0,1,2.4-.6,3.9,3.9,0,0,1,3.9,2.9l-1.3.3a2.75,2.75,0,0,0-1-1.6,3.32,3.32,0,0,0-1.6-.5,4.14,4.14,0,0,0-1.9.5,3.27,3.27,0,0,0-1.1,1.5,6.4,6.4,0,0,0,.1,4.1,2.59,2.59,0,0,0,1.1,1.4,3.37,3.37,0,0,0,1.7.5,3.29,3.29,0,0,0,1.9-.6A4.2,4.2,0,0,0,173.4,161.1Z"/><path class="cls-2" d="M165.8,154.1l3.8-9.9H171l4,9.9h-1.5l-1.1-3h-4.1l-1.1,3Zm2.9-4.1H172l-1-2.7a16.45,16.45,0,0,1-.7-2,13.32,13.32,0,0,1-.5,1.9Z"/><path class="cls-2" d="M172.8,133.7h1.3v5.7a9.86,9.86,0,0,1-.3,2.4,2.76,2.76,0,0,1-1.2,1.4,4.65,4.65,0,0,1-2.3.6,4.56,4.56,0,0,1-2.3-.5,3,3,0,0,1-1.3-1.4,6.9,6.9,0,0,1-.4-2.5v-5.7h1.3v5.7a12.25,12.25,0,0,0,.2,1.9,1.76,1.76,0,0,0,.8.9,3.19,3.19,0,0,0,1.4.3,3,3,0,0,0,2-.6,3.61,3.61,0,0,0,.6-2.5Z"/><path class="cls-2" d="M173.4,129.5l1.3.3a3.84,3.84,0,0,1-1.5,2.4,4.11,4.11,0,0,1-2.6.9,5.83,5.83,0,0,1-2.6-.6,4,4,0,0,1-1.5-1.9,7.51,7.51,0,0,1-.5-2.6,6.26,6.26,0,0,1,.6-2.7,4.21,4.21,0,0,1,1.7-1.8,5,5,0,0,1,2.4-.6,3.9,3.9,0,0,1,3.9,2.9l-1.3.3a3.36,3.36,0,0,0-1-1.6,3.32,3.32,0,0,0-1.6-.5,4.14,4.14,0,0,0-1.9.5,3.27,3.27,0,0,0-1.1,1.5,6.4,6.4,0,0,0,.1,4.1,2.59,2.59,0,0,0,1.1,1.4,3.37,3.37,0,0,0,1.7.5,3.29,3.29,0,0,0,1.9-.6A3.75,3.75,0,0,0,173.4,129.5Z"/><path class="cls-2" d="M173.4,119l1.3.3a4.36,4.36,0,0,1-1.5,2.5,3.53,3.53,0,0,1-2.6.8,5.83,5.83,0,0,1-2.6-.6,4,4,0,0,1-1.5-1.9,5.75,5.75,0,0,1-.5-2.6,6.26,6.26,0,0,1,.6-2.7,4,4,0,0,1,1.7-1.7,5,5,0,0,1,2.4-.6,3.78,3.78,0,0,1,3.9,2.9l-1.3.3a3.36,3.36,0,0,0-1-1.6,3.06,3.06,0,0,0-3.5.1,3.27,3.27,0,0,0-1.1,1.5,6.4,6.4,0,0,0,.1,4.1,2.59,2.59,0,0,0,1.1,1.4,3.37,3.37,0,0,0,1.7.5,3.29,3.29,0,0,0,1.9-.6A6.35,6.35,0,0,0,173.4,119Z"/><path class="cls-2" d="M170.7,108.1v-1.2h4.2v3.7a8.17,8.17,0,0,1-2,1.2,5.22,5.22,0,0,1-2.1.4,5.83,5.83,0,0,1-2.6-.6,3.92,3.92,0,0,1-1.8-1.8,5.83,5.83,0,0,1-.6-2.6,6.26,6.26,0,0,1,.6-2.7,4.24,4.24,0,0,1,1.7-1.8,6,6,0,0,1,4.5-.3,4.51,4.51,0,0,1,1.4,1,3.29,3.29,0,0,1,.7,1.6l-1.2.3a6.12,6.12,0,0,0-.5-1.2,3.11,3.11,0,0,0-.9-.7,3.19,3.19,0,0,0-1.4-.3,4,4,0,0,0-1.5.3,3.59,3.59,0,0,0-1,.7,2.07,2.07,0,0,0-.6,1,4.48,4.48,0,0,0-.4,2,4.19,4.19,0,0,0,.5,2.2,2.74,2.74,0,0,0,1.3,1.3,4.06,4.06,0,0,0,1.9.4,5.08,5.08,0,0,0,2.9-1v-1.8Z"/><path class="cls-2" d="M178.6,95.3l1.3.3a3.84,3.84,0,0,1-1.5,2.4,3.53,3.53,0,0,1-2.6.8,4.84,4.84,0,0,1-2.6-.7,4,4,0,0,1-1.5-1.9,5.92,5.92,0,0,1-.5-2.7,6.26,6.26,0,0,1,.6-2.7,4.21,4.21,0,0,1,1.7-1.8,5,5,0,0,1,2.4-.6,3.9,3.9,0,0,1,3.9,2.9l-1.3.3a3.36,3.36,0,0,0-1-1.6,3.32,3.32,0,0,0-1.6-.5,4.14,4.14,0,0,0-1.9.5,3.27,3.27,0,0,0-1.1,1.5,6.28,6.28,0,0,0-.3,1.9,5.7,5.7,0,0,0,.4,2.2,2.59,2.59,0,0,0,1.1,1.4,3.37,3.37,0,0,0,1.7.5,3.29,3.29,0,0,0,1.9-.6A2.08,2.08,0,0,0,178.6,95.3Z"/><path class="cls-2" d="M186.5,94.9V93.7h4.2v3.7a8.17,8.17,0,0,1-2,1.2,5.22,5.22,0,0,1-2.1.4,5.83,5.83,0,0,1-2.6-.6,3.92,3.92,0,0,1-1.8-1.8,5.83,5.83,0,0,1-.6-2.6,6.26,6.26,0,0,1,.6-2.7,5.19,5.19,0,0,1,1.7-1.9,6,6,0,0,1,4.5-.3,4.51,4.51,0,0,1,1.4,1,3.29,3.29,0,0,1,.7,1.6l-1.2.3a3.38,3.38,0,0,0-.6-1.2,3.11,3.11,0,0,0-.9-.7,3.19,3.19,0,0,0-1.4-.3,4.53,4.53,0,0,0-1.6.3,3.59,3.59,0,0,0-1,.7,2.07,2.07,0,0,0-.6,1,4.48,4.48,0,0,0-.4,2,5.38,5.38,0,0,0,.4,2.2,3.25,3.25,0,0,0,1.3,1.3,3.92,3.92,0,0,0,1.8.4,5.08,5.08,0,0,0,1.7-.3,4.73,4.73,0,0,0,1.2-.7V95Z"/><path class="cls-2" d="M186.9,112l3.8-9.9h1.4l4,9.9h-1.4l-1.2-3h-4.1l-1.1,3Zm2.8-4H193l-1-2.7a16.45,16.45,0,0,1-.7-2,13.32,13.32,0,0,1-.5,1.9Z"/><path class="cls-2" d="M191.7,118.6v-1.2h4.2v3.7a8.17,8.17,0,0,1-2,1.2,5.22,5.22,0,0,1-2.1.4,5.83,5.83,0,0,1-2.6-.6,3.92,3.92,0,0,1-1.8-1.8,5.83,5.83,0,0,1-.6-2.6,6.26,6.26,0,0,1,.6-2.7,5.19,5.19,0,0,1,1.7-1.9,6,6,0,0,1,4.5-.3,4.51,4.51,0,0,1,1.4,1,3.29,3.29,0,0,1,.7,1.6l-1.2.3a3.38,3.38,0,0,0-.6-1.2,2.29,2.29,0,0,0-1-.7,3.19,3.19,0,0,0-1.4-.3,4.53,4.53,0,0,0-1.6.3,3.59,3.59,0,0,0-1,.7,2.07,2.07,0,0,0-.6,1,4.48,4.48,0,0,0-.4,2,5.38,5.38,0,0,0,.4,2.2,3,3,0,0,0,1.3,1.2,4.06,4.06,0,0,0,1.9.4,4.15,4.15,0,0,0,1.6-.3,4.73,4.73,0,0,0,1.2-.7v-1.8Z"/><line class="cls-3" x1="198.6" y1="117" x2="205.6" y2="117"/><path d="M206.2,119.9l1.2-.2a2.63,2.63,0,0,0,.7,1.5,1.85,1.85,0,0,0,1.2.5,1.82,1.82,0,0,0,1.4-.6,2,2,0,0,0,.6-1.5,2.39,2.39,0,0,0-.5-1.4,2,2,0,0,0-1.4-.6c-.3,0-.6.1-.9.1l.1-1.1h.2a2.3,2.3,0,0,0,1.4-.4,1.56,1.56,0,0,0,.6-1.2,2.1,2.1,0,0,0-.4-1.1,1.69,1.69,0,0,0-2.3,0,1.76,1.76,0,0,0-.6,1.3l-1.2-.2a3.52,3.52,0,0,1,1-1.9,3.06,3.06,0,0,1,2-.7,4,4,0,0,1,1.5.3,2.58,2.58,0,0,1,1.4,2.2,1.92,1.92,0,0,1-.4,1.2,1.59,1.59,0,0,1-1,.8,2.85,2.85,0,0,1,1.4.8,3,3,0,0,1,.5,1.6,3.1,3.1,0,0,1-.9,2.2,3.41,3.41,0,0,1-2.4.9,3.49,3.49,0,0,1-2.2-.8A1.94,1.94,0,0,1,206.2,119.9Zm7.7-2.3a9,9,0,0,1,.4-2.8,4.52,4.52,0,0,1,1.1-1.7,2.79,2.79,0,0,1,1.8-.6,3.19,3.19,0,0,1,1.4.3,2.19,2.19,0,0,1,1,.9,4.71,4.71,0,0,1,.6,1.5,11.26,11.26,0,0,1-.2,5.1,4.52,4.52,0,0,1-1.1,1.7,2.79,2.79,0,0,1-1.8.6,2.57,2.57,0,0,1-2.2-1,7.44,7.44,0,0,1-1-4Zm1.3,0a5.92,5.92,0,0,0,.6,3.2,1.61,1.61,0,0,0,2.2.6.9.9,0,0,0,.6-.6,9.1,9.1,0,0,0,0-6.5,1.6,1.6,0,0,0-1.4-.8,1.71,1.71,0,0,0-1.3.7A6,6,0,0,0,215.2,117.6Z"/><path class="cls-2" d="M191.7,129.1V128h4.2v3.7a5.64,5.64,0,0,1-2,1.1,5.22,5.22,0,0,1-2.1.4,5.83,5.83,0,0,1-2.6-.6,3.92,3.92,0,0,1-1.8-1.8,5.83,5.83,0,0,1-.6-2.6,6.26,6.26,0,0,1,.6-2.7,5.19,5.19,0,0,1,1.7-1.9,6,6,0,0,1,4.5-.3,4.51,4.51,0,0,1,1.4,1,3.29,3.29,0,0,1,.7,1.6l-1.2.3a3.1,3.1,0,0,0-.6-1.3,5.5,5.5,0,0,0-.9-.7,2.2,2.2,0,0,0-1.4-.2,4.53,4.53,0,0,0-1.6.3,3.59,3.59,0,0,0-1,.7,2.07,2.07,0,0,0-.6,1,4.48,4.48,0,0,0-.4,2,5.38,5.38,0,0,0,.4,2.2,3.25,3.25,0,0,0,1.3,1.3,4.28,4.28,0,0,0,3.5.1,4.73,4.73,0,0,0,1.2-.7v-1.8Z"/><path class="cls-2" d="M186.9,143.5l3.8-9.9h1.4l4,9.9h-1.4l-1.2-3h-4.1l-1.1,3Zm2.8-4H193l-1-2.7a16.45,16.45,0,0,1-.7-2,13.32,13.32,0,0,1-.5,1.9Z"/><path class="cls-2" d="M193.9,144.2h1.3v5.7a9.86,9.86,0,0,1-.3,2.4,2.76,2.76,0,0,1-1.2,1.4,4.65,4.65,0,0,1-2.3.6,4.56,4.56,0,0,1-2.3-.5,3,3,0,0,1-1.3-1.4,6.9,6.9,0,0,1-.4-2.5v-5.7h1.3v5.7a12.25,12.25,0,0,0,.2,1.9,2.36,2.36,0,0,0,.8.9,3.74,3.74,0,0,0,3.5-.3,3.61,3.61,0,0,0,.6-2.5l.1-5.7Z"/><path class="cls-2" d="M191.7,160.7v-1.2h4.2v3.7a5.64,5.64,0,0,1-2,1.1,5.22,5.22,0,0,1-2.1.4,5.83,5.83,0,0,1-2.6-.6,3.92,3.92,0,0,1-1.8-1.8,5.83,5.83,0,0,1-.6-2.6,6.26,6.26,0,0,1,.6-2.7,5.19,5.19,0,0,1,1.7-1.9,6,6,0,0,1,4.5-.3,4.51,4.51,0,0,1,1.4,1,3.29,3.29,0,0,1,.7,1.6l-1.2.3a3.38,3.38,0,0,0-.6-1.2,3.59,3.59,0,0,0-1-.7,2.2,2.2,0,0,0-1.4-.2,4.53,4.53,0,0,0-1.6.3,3.59,3.59,0,0,0-1,.7,2.07,2.07,0,0,0-.6,1,4.48,4.48,0,0,0-.4,2,5.38,5.38,0,0,0,.4,2.2,3.25,3.25,0,0,0,1.3,1.3,4.28,4.28,0,0,0,3.5.1,4.73,4.73,0,0,0,1.2-.7v-1.8Z"/><path class="cls-2" d="M191.7,171.2V170h4.2v3.7a5.64,5.64,0,0,1-2,1.1,5.22,5.22,0,0,1-2.1.4,5.83,5.83,0,0,1-2.6-.6,3.92,3.92,0,0,1-1.8-1.8,5.83,5.83,0,0,1-.6-2.6,6.26,6.26,0,0,1,.6-2.7,5.19,5.19,0,0,1,1.7-1.9,5.83,5.83,0,0,1,2.6-.6,4.06,4.06,0,0,1,1.9.4,4.51,4.51,0,0,1,1.4,1,3.29,3.29,0,0,1,.7,1.6l-1.2.3a3.38,3.38,0,0,0-.6-1.2,2.29,2.29,0,0,0-1-.7,3.19,3.19,0,0,0-1.4-.3,4.53,4.53,0,0,0-1.6.3,3.59,3.59,0,0,0-1,.7,2.07,2.07,0,0,0-.6,1,4.48,4.48,0,0,0-.4,2,5.38,5.38,0,0,0,.4,2.2,3.25,3.25,0,0,0,1.3,1.3,4.06,4.06,0,0,0,1.9.4,4.15,4.15,0,0,0,1.6-.3,4.73,4.73,0,0,0,1.2-.7v-1.8Z"/><path class="cls-2" d="M191.7,181.8v-1.2h4.2v3.7a8.17,8.17,0,0,1-2,1.2,5.22,5.22,0,0,1-2.1.4,5.83,5.83,0,0,1-2.6-.6,3.92,3.92,0,0,1-1.8-1.8,5.83,5.83,0,0,1-.6-2.6,6.26,6.26,0,0,1,.6-2.7,5.19,5.19,0,0,1,1.7-1.9,5.83,5.83,0,0,1,2.6-.6,4.06,4.06,0,0,1,1.9.4,3.26,3.26,0,0,1,2.1,2.6l-1.2.3a3.38,3.38,0,0,0-.6-1.2,2.29,2.29,0,0,0-1-.7,3.19,3.19,0,0,0-1.4-.3,4.53,4.53,0,0,0-1.6.3,3.59,3.59,0,0,0-1,.7,2.07,2.07,0,0,0-.6,1,4.48,4.48,0,0,0-.4,2,5.38,5.38,0,0,0,.4,2.2,3.25,3.25,0,0,0,1.3,1.3,4.06,4.06,0,0,0,1.9.4,4.15,4.15,0,0,0,1.6-.3,4.73,4.73,0,0,0,1.2-.7v-1.8Z"/><line class="cls-3" x1="174.7" y1="180.1" x2="187.4" y2="180.1"/><path class="cls-6" d="M176.2,182.2h4.2V178h-4.2Z"/><path class="cls-5" d="M176.2,182.2h4.2V178h-4.2v4.2"/><path class="cls-6" d="M186.5,180.1l-4.1-2.4v4.7Z"/><path class="cls-5" d="M186.5,180.1l-4.1-2.4v4.7l4.1-2.3"/><line class="cls-3" x1="174.7" y1="169.6" x2="187.4" y2="169.6"/><line class="cls-3" x1="174.7" y1="159.1" x2="187.4" y2="159.1"/><line class="cls-3" x1="174.7" y1="148.5" x2="187.4" y2="148.5"/><line class="cls-3" x1="174.7" y1="138" x2="187.4" y2="138"/><line class="cls-3" x1="174.7" y1="127.5" x2="187.4" y2="127.5"/><line class="cls-3" x1="174.7" y1="117" x2="187.4" y2="117"/><line class="cls-3" x1="174.7" y1="106.4" x2="187.4" y2="106.4"/><path class="cls-6" d="M175.6,106.4l4.1,2.4v-4.7Z"/><path class="cls-5" d="M175.6,106.4l4.1,2.4v-4.7l-4.1,2.3"/><path class="cls-6" d="M185.9,104.3h-4.2v4.2h4.2Z"/><path class="cls-5" d="M185.9,104.3h-4.2v4.2h4.2v-4.2"/><path class="cls-3" d="M193.4,102.7l6-12,51.2-12.2"/><path class="cls-6" d="M227.7,83.9l-4.5-1.4,1.1,4.6Z"/><path class="cls-5" d="M227.7,83.9l-4.5-1.4,1.1,4.6,3.4-3.2"/><path class="cls-4" d="M218.4,217.2l3.8-9.9h1.4l4,9.9h-1.5l-1.2-3h-4.1l-1.1,3Zm2.9-4.1h3.4l-1-2.7a16.45,16.45,0,0,1-.7-2,13.32,13.32,0,0,1-.5,1.9Z"/><path class="cls-4" d="M233.8,202.8v-1.2H238v3.7a5.64,5.64,0,0,1-2,1.1,5.22,5.22,0,0,1-2.1.4,5.83,5.83,0,0,1-2.6-.6,3.92,3.92,0,0,1-1.8-1.8,5.83,5.83,0,0,1-.6-2.6,6.6,6.6,0,0,1,.6-2.7,5.19,5.19,0,0,1,1.7-1.9,5.83,5.83,0,0,1,2.6-.6,4.06,4.06,0,0,1,1.9.4,4.51,4.51,0,0,1,1.4,1,4.81,4.81,0,0,1,.8,1.6l-1.2.3a3.38,3.38,0,0,0-.6-1.2,2.29,2.29,0,0,0-1-.7,3.19,3.19,0,0,0-1.4-.3,4,4,0,0,0-1.5.3,4.13,4.13,0,0,0-1.1.7,2.07,2.07,0,0,0-.6,1,4.48,4.48,0,0,0-.4,2,4.19,4.19,0,0,0,.5,2.2,2.74,2.74,0,0,0,1.3,1.3,4.06,4.06,0,0,0,1.9.4,4.15,4.15,0,0,0,1.6-.3,4.73,4.73,0,0,0,1.2-.7v-1.9Z"/><path class="cls-4" d="M236.5,192.7l1.3.3a3.84,3.84,0,0,1-1.5,2.4,4.32,4.32,0,0,1-2.6.9,5.83,5.83,0,0,1-2.6-.6,4,4,0,0,1-1.5-1.9,5.75,5.75,0,0,1-.5-2.6,6.26,6.26,0,0,1,.6-2.7,4.62,4.62,0,0,1,1.7-1.7,5,5,0,0,1,2.4-.6,3.9,3.9,0,0,1,3.9,2.9l-1.3.3a3.36,3.36,0,0,0-1-1.6,3.06,3.06,0,0,0-3.5.1,3.27,3.27,0,0,0-1.1,1.5,6.28,6.28,0,0,0-.3,1.9,5.38,5.38,0,0,0,.4,2.2,2.59,2.59,0,0,0,1.1,1.4,3.37,3.37,0,0,0,1.7.5,3.29,3.29,0,0,0,1.9-.6A6.35,6.35,0,0,0,236.5,192.7Z"/><path class="cls-4" d="M236.5,182.2l1.3.3a4.36,4.36,0,0,1-1.5,2.5,3.66,3.66,0,0,1-2.6.8,5.83,5.83,0,0,1-2.6-.6,4,4,0,0,1-1.5-1.9,5.75,5.75,0,0,1-.5-2.6,6.26,6.26,0,0,1,.6-2.7,4,4,0,0,1,1.7-1.7,5,5,0,0,1,2.4-.6,3.78,3.78,0,0,1,3.9,2.9l-1.3.3a3.36,3.36,0,0,0-1-1.6,3.32,3.32,0,0,0-1.6-.5,4.14,4.14,0,0,0-1.9.5,3.27,3.27,0,0,0-1.1,1.5,6.28,6.28,0,0,0-.3,1.9,5.7,5.7,0,0,0,.4,2.2,2.59,2.59,0,0,0,1.1,1.4,3.37,3.37,0,0,0,1.7.5,3.29,3.29,0,0,0,1.9-.6A5.9,5.9,0,0,0,236.5,182.2Z"/><path class="cls-4" d="M236,165.2h1.3v5.7a9.86,9.86,0,0,1-.3,2.4,2.76,2.76,0,0,1-1.2,1.4,4.65,4.65,0,0,1-2.3.6,4.56,4.56,0,0,1-2.3-.5,3,3,0,0,1-1.3-1.4,6.9,6.9,0,0,1-.4-2.5v-5.7h1.3v5.7a12.25,12.25,0,0,0,.2,1.9,1.76,1.76,0,0,0,.8.9,3.19,3.19,0,0,0,1.4.3,3,3,0,0,0,2-.6,3.61,3.61,0,0,0,.6-2.5Z"/><path class="cls-4" d="M218.4,164.6l3.8-9.9h1.4l4,9.9h-1.5l-1.2-3h-4.1l-1.1,3Zm2.9-4.1h3.4l-1-2.8a16.45,16.45,0,0,1-.7-2,13.32,13.32,0,0,1-.5,1.9Z"/><path class="cls-4" d="M254.9,171.2V170h4.2v3.7a5.64,5.64,0,0,1-2,1.1,5.22,5.22,0,0,1-2.1.4,5.83,5.83,0,0,1-2.6-.6,3.92,3.92,0,0,1-1.8-1.8,5.83,5.83,0,0,1-.6-2.6,6.26,6.26,0,0,1,.6-2.7,5.19,5.19,0,0,1,1.7-1.9,5.83,5.83,0,0,1,2.6-.6,4.06,4.06,0,0,1,1.9.4,4.51,4.51,0,0,1,1.4,1,3.29,3.29,0,0,1,.7,1.6l-1.2.3a3.38,3.38,0,0,0-.6-1.2,3.11,3.11,0,0,0-.9-.7,3.19,3.19,0,0,0-1.4-.3,4.53,4.53,0,0,0-1.6.3,4.13,4.13,0,0,0-1.1.7,2.07,2.07,0,0,0-.6,1,4.48,4.48,0,0,0-.4,2,5.38,5.38,0,0,0,.4,2.2,3.25,3.25,0,0,0,1.3,1.3,3.92,3.92,0,0,0,1.8.4,5.08,5.08,0,0,0,1.7-.3,4.73,4.73,0,0,0,1.2-.7v-1.8Z"/><path class="cls-4" d="M254.9,181.8v-1.2h4.2v3.7a8.17,8.17,0,0,1-2,1.2,5.22,5.22,0,0,1-2.1.4,5.83,5.83,0,0,1-2.6-.6,3.92,3.92,0,0,1-1.8-1.8,5.83,5.83,0,0,1-.6-2.6,6.26,6.26,0,0,1,.6-2.7,5.19,5.19,0,0,1,1.7-1.9,5.83,5.83,0,0,1,2.6-.6,4.06,4.06,0,0,1,1.9.4,3.26,3.26,0,0,1,2.1,2.6l-1.2.3a3.38,3.38,0,0,0-.6-1.2,3.11,3.11,0,0,0-.9-.7,3.19,3.19,0,0,0-1.4-.3,4.53,4.53,0,0,0-1.6.3,4.13,4.13,0,0,0-1.1.7,2.07,2.07,0,0,0-.6,1,4.48,4.48,0,0,0-.4,2,5.38,5.38,0,0,0,.4,2.2,3.25,3.25,0,0,0,1.3,1.3,3.92,3.92,0,0,0,1.8.4,5.08,5.08,0,0,0,1.7-.3,4.73,4.73,0,0,0,1.2-.7v-1.8Z"/><line class="cls-3" x1="261.7" y1="180.1" x2="268.7" y2="180.1"/><path d="M269.4,177.1v-1.2h6.4v.9a13.09,13.09,0,0,0-1.9,2.7,14.34,14.34,0,0,0-1.4,3.4,12.82,12.82,0,0,0-.5,2.7h-1.2a8.68,8.68,0,0,1,.5-2.8,17.55,17.55,0,0,1,1.2-3.2,15.1,15.1,0,0,1,1.8-2.6Zm7.7,3.7a8.63,8.63,0,0,1,.4-2.8,3.55,3.55,0,0,1,1.1-1.6,2.79,2.79,0,0,1,1.8-.6,3.19,3.19,0,0,1,1.4.3,2.19,2.19,0,0,1,1,.9,4,4,0,0,1,.6,1.5,11.26,11.26,0,0,1-.2,5.1,3.55,3.55,0,0,1-1.1,1.6,3.06,3.06,0,0,1-4-.4A6.32,6.32,0,0,1,277.1,180.8Zm1.2,0a5.92,5.92,0,0,0,.6,3.2,1.63,1.63,0,0,0,2.8,0,9.1,9.1,0,0,0,0-6.5,1.6,1.6,0,0,0-1.4-.8,1.71,1.71,0,0,0-1.3.7A6.72,6.72,0,0,0,278.3,180.8Z"/><path class="cls-4" d="M254.9,192.3v-1.2h4.2v3.7a8.17,8.17,0,0,1-2,1.2,5.22,5.22,0,0,1-2.1.4,5.83,5.83,0,0,1-2.6-.6,3.92,3.92,0,0,1-1.8-1.8,5.83,5.83,0,0,1-.6-2.6,6.26,6.26,0,0,1,.6-2.7,5.19,5.19,0,0,1,1.7-1.9,5.83,5.83,0,0,1,2.6-.6,4.06,4.06,0,0,1,1.9.4,4.51,4.51,0,0,1,1.4,1,3.29,3.29,0,0,1,.7,1.6l-1.2.3a3.38,3.38,0,0,0-.6-1.2,5.5,5.5,0,0,0-.9-.7,3.19,3.19,0,0,0-1.4-.3,4.53,4.53,0,0,0-1.6.3,4.13,4.13,0,0,0-1.1.7,2.07,2.07,0,0,0-.6,1,4.48,4.48,0,0,0-.4,2,5.38,5.38,0,0,0,.4,2.2,3.25,3.25,0,0,0,1.3,1.3,3.92,3.92,0,0,0,1.8.4,5.08,5.08,0,0,0,1.7-.3,4.73,4.73,0,0,0,1.2-.7v-1.8Z"/><path class="cls-4" d="M257.6,203.2l1.3.3a3.84,3.84,0,0,1-1.5,2.4,4.11,4.11,0,0,1-2.6.9,5.83,5.83,0,0,1-2.6-.6,4,4,0,0,1-1.5-1.9,7.51,7.51,0,0,1-.5-2.6,6.26,6.26,0,0,1,.6-2.7,4.9,4.9,0,0,1,1.7-1.8,5,5,0,0,1,2.4-.6,3.9,3.9,0,0,1,3.9,2.9l-1.3.3a3.36,3.36,0,0,0-1-1.6,3.32,3.32,0,0,0-1.6-.5,4.14,4.14,0,0,0-1.9.5,3.27,3.27,0,0,0-1.1,1.5,5.82,5.82,0,0,0-.3,1.9,5.7,5.7,0,0,0,.4,2.2,2.59,2.59,0,0,0,1.1,1.4,3.37,3.37,0,0,0,1.7.5,3.29,3.29,0,0,0,1.9-.6A5.57,5.57,0,0,0,257.6,203.2Z"/><path class="cls-4" d="M257.2,212.2h1.3v5.7a8.52,8.52,0,0,1-.3,2.3,2.76,2.76,0,0,1-1.2,1.4,4.65,4.65,0,0,1-2.3.6,4.56,4.56,0,0,1-2.3-.5,2.36,2.36,0,0,1-1.2-1.4,6.9,6.9,0,0,1-.4-2.5v-5.6h1.3v5.7a12.25,12.25,0,0,0,.2,1.9,2.36,2.36,0,0,0,.8.9,2.23,2.23,0,0,0,1.4.3,3.22,3.22,0,0,0,2.1-.6,3.61,3.61,0,0,0,.6-2.5Z"/><line class="cls-3" x1="237.9" y1="201.1" x2="250.5" y2="201.1"/><line class="cls-3" x1="237.9" y1="190.6" x2="250.5" y2="190.6"/><line class="cls-3" x1="237.9" y1="180.1" x2="250.5" y2="180.1"/><path d="M242.5,170.9l.1.1.1.1.1.1.1.1.1.1.1.1.1.1.1.1h1.6l.1-.1.1-.1.1-.1.1-.1.1-.1.1-.1.1-.1.1-.1.1-.1.1-.1.1-.1.1-.1.1-.1v-1.6l-.1-.1-.1-.1-.1-.1-.1-.1-.1-.1-.1-.1-.1-.1-.1-.1-.1-.1-.1-.1-.1-.1-.1-.1h-1.6l-.1.1-.1.1-.1.1-.1.1-.1.1-.1.1-.1.1-.1.1-.1.1-.1.1-.1.1-.1.1-.1.1v1.4l.1.1.1.1.1.1.1.1v.2Z"/><path class="cls-5" d="M246.3,169.6v-.8l-.1-.1-.1-.1-.1-.1-.1-.1-.1-.1-.1-.1-.1-.1-.1-.1-.1-.1-.1-.1-.1-.1-.1-.1h-1.8l-.1.1-.1.1-.1.1-.1.1-.1.1-.1.1-.1.1-.1.1-.1.1-.1.1-.1.1-.1.1-.1.1v1.4l.1.1.1.1.1.1.1.1.1.1.1.1.1.1.1.1.1.1.1.1.1.1.1.1.1.1h1.6l.1-.1.1-.1.1-.1.1-.1.1-.1.1-.1.1-.1.1-.1.1-.1.1-.1.1-.1.1-.1.1-.1v-.8h0"/><line class="cls-3" x1="254.7" y1="144.9" x2="254.7" y2="165.4"/><path d="M256.1,156.6l.7-2.8L259,151h-8.7l2.2,2.8.7,2.8.4,2.8,1.1,5.6,1.1-5.6Z"/><line class="cls-3" x1="250.5" y1="220.4" x2="206.3" y2="257.6"/><path class="cls-4" d="M218.4,154.1l3.8-9.9h1.4l4,9.9h-1.5l-1.2-3h-4.1l-1.1,3Zm2.9-4.1h3.4l-1-2.7a16.45,16.45,0,0,1-.7-2,13.32,13.32,0,0,1-.5,1.9Z"/><path class="cls-4" d="M233.8,142.3v-1.2H238v3.7a5.64,5.64,0,0,1-2,1.1,5.22,5.22,0,0,1-2.1.4,5.83,5.83,0,0,1-2.6-.6,3.92,3.92,0,0,1-1.8-1.8,5.83,5.83,0,0,1-.6-2.6,6.6,6.6,0,0,1,.6-2.7,5.19,5.19,0,0,1,1.7-1.9,5.83,5.83,0,0,1,2.6-.6,4.06,4.06,0,0,1,1.9.4,4.51,4.51,0,0,1,1.4,1,4.81,4.81,0,0,1,.8,1.6l-1.2.3a3.38,3.38,0,0,0-.6-1.2,2.29,2.29,0,0,0-1-.7,3.19,3.19,0,0,0-1.4-.3,4,4,0,0,0-1.5.3,4.13,4.13,0,0,0-1.1.7,2.07,2.07,0,0,0-.6,1,4.48,4.48,0,0,0-.4,2,4.19,4.19,0,0,0,.5,2.2,2.74,2.74,0,0,0,1.3,1.3,4.06,4.06,0,0,0,1.9.4,5.08,5.08,0,0,0,2.9-1v-1.8Z"/><line class="cls-3" x1="226.6" y1="140.6" x2="219.6" y2="140.6"/><path d="M204.2,143.6l1.3-.1a2.51,2.51,0,0,0,.6,1.4,1.85,1.85,0,0,0,1.2.5,1.8,1.8,0,0,0,1.5-.7,2.79,2.79,0,0,0,.6-1.8,2.27,2.27,0,0,0-.6-1.6,2.2,2.2,0,0,0-1.5-.6,2.14,2.14,0,0,0-1.8.9l-1.1-.1,1-5.1h4.9v1.2h-3.9l-.5,2.6a3.21,3.21,0,0,1,4.1.3,3.34,3.34,0,0,1,.9,2.3,3.78,3.78,0,0,1-.8,2.3,3.22,3.22,0,0,1-2.6,1.2,3,3,0,0,1-2.2-.8A2.52,2.52,0,0,1,204.2,143.6Zm7.8-2.3a8.63,8.63,0,0,1,.4-2.8,3.55,3.55,0,0,1,1.1-1.6,2.79,2.79,0,0,1,1.8-.6,3.19,3.19,0,0,1,1.4.3,2.19,2.19,0,0,1,1,.9,4,4,0,0,1,.6,1.5,11.26,11.26,0,0,1-.2,5.1,3.55,3.55,0,0,1-1.1,1.6,3.06,3.06,0,0,1-4-.4,6.32,6.32,0,0,1-1-4Zm1.2,0a5.92,5.92,0,0,0,.6,3.2,1.66,1.66,0,0,0,2.2.6,1.7,1.7,0,0,0,.6-.6,9.1,9.1,0,0,0,0-6.5,1.6,1.6,0,0,0-1.4-.8,1.71,1.71,0,0,0-1.3.7,5.82,5.82,0,0,0-.7,3.4Z"/><path class="cls-4" d="M233.8,131.8v-1.2H238v3.7a5.64,5.64,0,0,1-2,1.1,5.22,5.22,0,0,1-2.1.4,5.83,5.83,0,0,1-2.6-.6,3.92,3.92,0,0,1-1.8-1.8,5.83,5.83,0,0,1-.6-2.6,6.26,6.26,0,0,1,.6-2.7,5.19,5.19,0,0,1,1.7-1.9,6,6,0,0,1,4.5-.3,4.51,4.51,0,0,1,1.4,1,4.81,4.81,0,0,1,.8,1.6l-1.2.3a3.38,3.38,0,0,0-.6-1.2,2.29,2.29,0,0,0-1-.7,3.19,3.19,0,0,0-1.4-.3,4,4,0,0,0-1.5.3,4.13,4.13,0,0,0-1.1.7,2.07,2.07,0,0,0-.6,1,4.48,4.48,0,0,0-.4,2,4.19,4.19,0,0,0,.5,2.2A2.36,2.36,0,0,0,232,134a4.06,4.06,0,0,0,1.9.4,4.15,4.15,0,0,0,1.6-.3,4.73,4.73,0,0,0,1.2-.7v-1.8Z"/><path class="cls-4" d="M262.8,121.2V120H267v3.7a8.17,8.17,0,0,1-2,1.2,5.22,5.22,0,0,1-2.1.4,5.83,5.83,0,0,1-2.6-.6,3.92,3.92,0,0,1-1.8-1.8,5.83,5.83,0,0,1-.6-2.6,6.26,6.26,0,0,1,.6-2.7,5.19,5.19,0,0,1,1.7-1.9,6,6,0,0,1,4.5-.3,4.51,4.51,0,0,1,1.4,1,3.29,3.29,0,0,1,.7,1.6l-1.2.3a6.12,6.12,0,0,0-.5-1.2,3.59,3.59,0,0,0-1-.7,3.19,3.19,0,0,0-1.4-.3,3.65,3.65,0,0,0-1.5.3,2.55,2.55,0,0,0-1,.7,2.07,2.07,0,0,0-.6,1,4.48,4.48,0,0,0-.4,2,4.19,4.19,0,0,0,.5,2.2,3.25,3.25,0,0,0,1.3,1.3,4.06,4.06,0,0,0,1.9.4,4.15,4.15,0,0,0,1.6-.3,4.73,4.73,0,0,0,1.2-.7v-1.8Z"/><path class="cls-4" d="M257.6,132.2l1.3.3a3.84,3.84,0,0,1-1.5,2.4,4.11,4.11,0,0,1-2.6.9,5.83,5.83,0,0,1-2.6-.6,4,4,0,0,1-1.5-1.9,7.51,7.51,0,0,1-.5-2.6,6.26,6.26,0,0,1,.6-2.7,4.9,4.9,0,0,1,1.7-1.8,5,5,0,0,1,2.4-.6,3.9,3.9,0,0,1,3.9,2.9l-1.3.3a3.36,3.36,0,0,0-1-1.6,3.32,3.32,0,0,0-1.6-.5,4.14,4.14,0,0,0-1.9.5,3.27,3.27,0,0,0-1.1,1.5,5.82,5.82,0,0,0-.3,1.9,5.7,5.7,0,0,0,.4,2.2,2.59,2.59,0,0,0,1.1,1.4,3.37,3.37,0,0,0,1.7.5,3.29,3.29,0,0,0,1.9-.6A5.57,5.57,0,0,0,257.6,132.2Z"/><path class="cls-4" d="M257.6,142.7l1.3.3a3.84,3.84,0,0,1-1.5,2.4,4.11,4.11,0,0,1-2.6.9,5.83,5.83,0,0,1-2.6-.6,4,4,0,0,1-1.5-1.9,5.75,5.75,0,0,1-.5-2.6,6.26,6.26,0,0,1,.6-2.7,4.9,4.9,0,0,1,1.7-1.8,5,5,0,0,1,2.4-.6,3.9,3.9,0,0,1,3.9,2.9l-1.3.3a3.36,3.36,0,0,0-1-1.6,3.32,3.32,0,0,0-1.6-.5,4.14,4.14,0,0,0-1.9.5,3.27,3.27,0,0,0-1.1,1.5,5.82,5.82,0,0,0-.3,1.9,5.7,5.7,0,0,0,.4,2.2,2.59,2.59,0,0,0,1.1,1.4,3.37,3.37,0,0,0,1.7.5,3.29,3.29,0,0,0,1.9-.6A5.57,5.57,0,0,0,257.6,142.7Z"/><line class="cls-3" x1="237.9" y1="140.6" x2="250.5" y2="140.6"/><line class="cls-3" x1="233.6" y1="125.9" x2="233.6" y2="102.8"/><path d="M232.9,112.6l-.3,1.8-.5,1.8-1.6,1.8h6.3l-1.6-1.8-.5-1.8-.3-1.8-.8-3.5Z"/><path class="cls-5" d="M230.5,117.8l1.6-1.8.5-1.8.3-1.8.8-3.5.8,3.5.3,1.8.5,1.8,1.6,1.8h-6.4"/><line class="cls-3" x1="237.9" y1="130.1" x2="250.5" y2="130.1"/><path class="cls-4" d="M233.8,100.2V99H238v3.7a8.17,8.17,0,0,1-2,1.2,5.22,5.22,0,0,1-2.1.4,5.83,5.83,0,0,1-2.6-.6,3.92,3.92,0,0,1-1.8-1.8,5.83,5.83,0,0,1-.6-2.6,6.6,6.6,0,0,1,.6-2.7,4.24,4.24,0,0,1,1.7-1.8,6,6,0,0,1,4.5-.3,4.51,4.51,0,0,1,1.4,1,4.81,4.81,0,0,1,.8,1.6l-1.2.3a3.38,3.38,0,0,0-.6-1.2,2.29,2.29,0,0,0-1-.7,3.19,3.19,0,0,0-1.4-.3,4,4,0,0,0-1.5.3,4.13,4.13,0,0,0-1.1.7,2.07,2.07,0,0,0-.6,1,4.48,4.48,0,0,0-.4,2,4.19,4.19,0,0,0,.5,2.2,2.74,2.74,0,0,0,1.3,1.3,4.06,4.06,0,0,0,1.9.4,4.15,4.15,0,0,0,1.6-.3,4.73,4.73,0,0,0,1.2-.7v-1.9Z"/><path class="cls-4" d="M236,83.7h1.3v5.7a9.86,9.86,0,0,1-.3,2.4,2.76,2.76,0,0,1-1.2,1.4,4.65,4.65,0,0,1-2.3.6,4.56,4.56,0,0,1-2.3-.5,3,3,0,0,1-1.3-1.4,6.9,6.9,0,0,1-.4-2.5V83.7h1.3v5.7a12.25,12.25,0,0,0,.2,1.9,1.76,1.76,0,0,0,.8.9,3.4,3.4,0,0,0,3.5-.3,3.61,3.61,0,0,0,.6-2.5l.1-5.7Z"/><path class="cls-4" d="M236.5,79.6l1.3.3a4.36,4.36,0,0,1-1.5,2.5,3.66,3.66,0,0,1-2.6.8,4.84,4.84,0,0,1-2.6-.7,4,4,0,0,1-1.5-1.9,5.92,5.92,0,0,1-.5-2.7,6.26,6.26,0,0,1,.6-2.7,4,4,0,0,1,1.7-1.7,5,5,0,0,1,2.4-.6,3.78,3.78,0,0,1,3.9,2.9l-1.3.3a3.36,3.36,0,0,0-1-1.6,3.32,3.32,0,0,0-1.6-.5,4.14,4.14,0,0,0-1.9.5,3.27,3.27,0,0,0-1.1,1.5,6.28,6.28,0,0,0-.3,1.9,5.7,5.7,0,0,0,.4,2.2,2.36,2.36,0,0,0,1.2,1.4,3.37,3.37,0,0,0,1.7.5,3.29,3.29,0,0,0,1.9-.6A3.7,3.7,0,0,0,236.5,79.6Z"/><path class="cls-4" d="M236,62.6h1.3v5.7a9.86,9.86,0,0,1-.3,2.4,2.76,2.76,0,0,1-1.2,1.4,4.65,4.65,0,0,1-2.3.6,4.56,4.56,0,0,1-2.3-.5,3,3,0,0,1-1.3-1.4,6.9,6.9,0,0,1-.4-2.5V62.6h1.3v5.7a12.25,12.25,0,0,0,.2,1.9,1.76,1.76,0,0,0,.8.9,3.19,3.19,0,0,0,1.4.3,2.61,2.61,0,0,0,2-.7,3.61,3.61,0,0,0,.6-2.5Z"/><path class="cls-4" d="M236.5,58.5l1.3.3a4.36,4.36,0,0,1-1.5,2.5,3.53,3.53,0,0,1-2.6.8,4.84,4.84,0,0,1-2.6-.7,4,4,0,0,1-1.5-1.9,7.51,7.51,0,0,1-.5-2.6,6.26,6.26,0,0,1,.6-2.7,4.9,4.9,0,0,1,1.7-1.8,5,5,0,0,1,2.4-.6,3.9,3.9,0,0,1,3.9,2.9l-1.3.3a2.75,2.75,0,0,0-1-1.6,3.32,3.32,0,0,0-1.6-.5,4.14,4.14,0,0,0-1.9.5,3.27,3.27,0,0,0-1.1,1.5,6.28,6.28,0,0,0-.3,1.9,5.38,5.38,0,0,0,.4,2.2,2.59,2.59,0,0,0,1.1,1.4,3.37,3.37,0,0,0,1.7.5,3.29,3.29,0,0,0,1.9-.6A3.42,3.42,0,0,0,236.5,58.5Z"/><path class="cls-4" d="M236.5,48l1.3.3a4.36,4.36,0,0,1-1.5,2.5,3.66,3.66,0,0,1-2.6.8,4.84,4.84,0,0,1-2.6-.7,4,4,0,0,1-1.5-1.9,5.75,5.75,0,0,1-.5-2.6,6.26,6.26,0,0,1,.6-2.7,4.9,4.9,0,0,1,1.7-1.8,5,5,0,0,1,2.4-.6,3.78,3.78,0,0,1,3.9,2.9l-1.3.3a3.36,3.36,0,0,0-1-1.6,3.32,3.32,0,0,0-1.6-.5,4.14,4.14,0,0,0-1.9.5,3.27,3.27,0,0,0-1.1,1.5,6.28,6.28,0,0,0-.3,1.9,5.7,5.7,0,0,0,.4,2.2,2.76,2.76,0,0,0,1.2,1.4,3.37,3.37,0,0,0,1.7.5,3.29,3.29,0,0,0,1.9-.6A4.94,4.94,0,0,0,236.5,48Z"/><path class="cls-4" d="M247,37.5l1.3.3a4.36,4.36,0,0,1-1.5,2.5,3.53,3.53,0,0,1-2.6.8,4.84,4.84,0,0,1-2.6-.7,4,4,0,0,1-1.5-1.9,5.92,5.92,0,0,1-.5-2.7,6.26,6.26,0,0,1,.6-2.7,4.21,4.21,0,0,1,1.7-1.8,5,5,0,0,1,2.4-.6,3.9,3.9,0,0,1,3.9,2.9l-1.3.3a3.36,3.36,0,0,0-1-1.6,3.32,3.32,0,0,0-1.6-.5,4.14,4.14,0,0,0-1.9.5,3.07,3.07,0,0,0-1,1.5,5.82,5.82,0,0,0-.3,1.9,5.7,5.7,0,0,0,.4,2.2,2.59,2.59,0,0,0,1.1,1.4,3.37,3.37,0,0,0,1.7.5,3.29,3.29,0,0,0,1.9-.6A3.85,3.85,0,0,0,247,37.5Z"/><path class="cls-4" d="M257,41.6h1.3v5.7a9.86,9.86,0,0,1-.3,2.4,2.76,2.76,0,0,1-1.2,1.4,4.65,4.65,0,0,1-2.3.6,4.56,4.56,0,0,1-2.3-.5,2.36,2.36,0,0,1-1.2-1.4,6.9,6.9,0,0,1-.4-2.5V41.6h1.3v5.7a12.25,12.25,0,0,0,.2,1.9,2.36,2.36,0,0,0,.8.9,3.19,3.19,0,0,0,1.4.3,2.61,2.61,0,0,0,2-.7,3.61,3.61,0,0,0,.6-2.5Z"/><path class="cls-4" d="M254.9,58.1V56.9h4.2v3.7a8.17,8.17,0,0,1-2,1.2,5.22,5.22,0,0,1-2.1.4,5.83,5.83,0,0,1-2.6-.6,3.92,3.92,0,0,1-1.8-1.8,5.83,5.83,0,0,1-.6-2.6,6.26,6.26,0,0,1,.6-2.7,5.19,5.19,0,0,1,1.7-1.9,6,6,0,0,1,4.5-.3,4.51,4.51,0,0,1,1.4,1,3.29,3.29,0,0,1,.7,1.6l-1.2.3a3.38,3.38,0,0,0-.6-1.2,5.5,5.5,0,0,0-.9-.7,2.2,2.2,0,0,0-1.4-.2,4.53,4.53,0,0,0-1.6.3,4.13,4.13,0,0,0-1.1.7,2.07,2.07,0,0,0-.6,1,4.48,4.48,0,0,0-.4,2,5.38,5.38,0,0,0,.4,2.2,2.54,2.54,0,0,0,1.3,1.2,3.92,3.92,0,0,0,1.8.4,5.08,5.08,0,0,0,1.7-.3,4.73,4.73,0,0,0,1.2-.7V58.1Z"/><line class="cls-3" x1="261.7" y1="56.5" x2="268.7" y2="56.5"/><path d="M275.6,54.5l-1.2.1a1.91,1.91,0,0,0-.5-1,1.66,1.66,0,0,0-1.2-.5,1.69,1.69,0,0,0-1,.3,2.73,2.73,0,0,0-.9,1.2,5.83,5.83,0,0,0-.3,2.3,2.88,2.88,0,0,1,3.9-.9,2.65,2.65,0,0,1,.6.5,3.34,3.34,0,0,1,.9,2.3,3.29,3.29,0,0,1-.4,1.7,3.09,3.09,0,0,1-5.2.5,6.09,6.09,0,0,1-1-3.7,7,7,0,0,1,1.1-4.2,3,3,0,0,1,2.5-1.2,2.8,2.8,0,0,1,2.7,2.6Zm-5,4.3a2.66,2.66,0,0,0,.3,1.2,2.18,2.18,0,0,0,.7.9,1.69,1.69,0,0,0,1,.3,1.61,1.61,0,0,0,1.3-.6,2.72,2.72,0,0,0,.6-1.7,2.77,2.77,0,0,0-.5-1.6,1.93,1.93,0,0,0-2.8,0,2,2,0,0,0-.6,1.5Zm6.5-1.7a8.63,8.63,0,0,1,.4-2.8,4.52,4.52,0,0,1,1.1-1.7,2.79,2.79,0,0,1,1.8-.6,3.19,3.19,0,0,1,1.4.3,2.19,2.19,0,0,1,1,.9,4,4,0,0,1,.6,1.5,11.26,11.26,0,0,1-.2,5.1,4.52,4.52,0,0,1-1.1,1.7,3.06,3.06,0,0,1-4-.4A6.32,6.32,0,0,1,277.1,57.1Zm1.2,0a5.92,5.92,0,0,0,.6,3.2,1.61,1.61,0,0,0,2.2.6.9.9,0,0,0,.6-.6,5.92,5.92,0,0,0,.6-3.2,5.92,5.92,0,0,0-.6-3.2,1.6,1.6,0,0,0-1.4-.8,1.71,1.71,0,0,0-1.3.7A6.36,6.36,0,0,0,278.3,57.1Z"/><path class="cls-4" d="M250,72.5l3.8-9.9h1.4l4,9.9h-1.5l-1.2-3h-4.1l-1.1,3Zm2.8-4h3.4l-1-2.7a16.45,16.45,0,0,1-.7-2,13.32,13.32,0,0,1-.5,1.9Z"/><path class="cls-4" d="M254.9,79.2V78h4.2v3.7a8.17,8.17,0,0,1-2,1.2,5.22,5.22,0,0,1-2.1.4,5.83,5.83,0,0,1-2.6-.6,3.92,3.92,0,0,1-1.8-1.8,5.83,5.83,0,0,1-.6-2.6,6.26,6.26,0,0,1,.6-2.7,5.19,5.19,0,0,1,1.7-1.9,6,6,0,0,1,4.5-.3,3.26,3.26,0,0,1,2.1,2.6l-1.2.3a3.38,3.38,0,0,0-.6-1.2,3.11,3.11,0,0,0-.9-.7,3.19,3.19,0,0,0-1.4-.3,4.53,4.53,0,0,0-1.6.3,4.13,4.13,0,0,0-1.1.7,2.07,2.07,0,0,0-.6,1,4.48,4.48,0,0,0-.4,2,5.38,5.38,0,0,0,.4,2.2,2.54,2.54,0,0,0,1.3,1.2,3.92,3.92,0,0,0,1.8.4,5.08,5.08,0,0,0,1.7-.3,4.73,4.73,0,0,0,1.2-.7V79.1l-2.6.1Z"/><path class="cls-4" d="M250,93.6l3.8-9.9h1.4l4,9.9h-1.5l-1.2-3h-4.1l-1.1,3Zm2.8-4.1h3.4l-1-2.7a16.45,16.45,0,0,1-.7-2,13.32,13.32,0,0,1-.5,1.9Z"/><path class="cls-4" d="M257.6,100.6l1.3.3a3.84,3.84,0,0,1-1.5,2.4,3.53,3.53,0,0,1-2.6.8,4.84,4.84,0,0,1-2.6-.7,4,4,0,0,1-1.5-1.9,7.63,7.63,0,0,1-.5-2.7,6.26,6.26,0,0,1,.6-2.7,4.9,4.9,0,0,1,1.7-1.8,5,5,0,0,1,2.4-.6,3.9,3.9,0,0,1,3.9,2.9l-1.3.3a3.36,3.36,0,0,0-1-1.6,3.32,3.32,0,0,0-1.6-.5,4.14,4.14,0,0,0-1.9.5,3.27,3.27,0,0,0-1.1,1.5,5.82,5.82,0,0,0-.3,1.9,5.7,5.7,0,0,0,.4,2.2,2.59,2.59,0,0,0,1.1,1.4,3.37,3.37,0,0,0,1.7.5,3.29,3.29,0,0,0,1.9-.6A2.71,2.71,0,0,0,257.6,100.6Z"/><path class="cls-4" d="M257.9,114.6l3.8-9.9h1.4l4,9.9h-1.5l-1.2-3h-4.1l-1.1,3Zm2.8-4H264l-1-2.7c-.3-.8-.5-1.5-.7-2a13.32,13.32,0,0,1-.5,1.9Z"/><line class="cls-3" x1="237.9" y1="98.6" x2="250.5" y2="98.6"/><line class="cls-3" x1="237.9" y1="88" x2="250.5" y2="88"/><line class="cls-3" x1="237.9" y1="77.5" x2="250.5" y2="77.5"/><line class="cls-3" x1="237.9" y1="67" x2="250.5" y2="67"/><line class="cls-3" x1="237.9" y1="56.5" x2="250.5" y2="56.5"/><path class="cls-7" d="M173.4,341l1.3.3a4.36,4.36,0,0,1-1.5,2.5,3.53,3.53,0,0,1-2.6.8,5.83,5.83,0,0,1-2.6-.6,4,4,0,0,1-1.5-1.9,5.75,5.75,0,0,1-.5-2.6,6.26,6.26,0,0,1,.6-2.7,3.72,3.72,0,0,1,1.7-1.8,5,5,0,0,1,2.4-.6,3.9,3.9,0,0,1,3.9,2.9l-1.3.3a3.36,3.36,0,0,0-1-1.6,3.32,3.32,0,0,0-1.6-.5,4.14,4.14,0,0,0-1.9.5,3.27,3.27,0,0,0-1.1,1.5,6.4,6.4,0,0,0,.1,4.1,3,3,0,0,0,1.1,1.4,3.37,3.37,0,0,0,1.7.5,3.29,3.29,0,0,0,1.9-.6A5.57,5.57,0,0,0,173.4,341Z"/><path class="cls-7" d="M186.7,333.9l3.8-9.9h1.4l4,9.9h-1.5l-1.1-3h-4.1l-1.1,3Zm2.9-4h3.3l-1-2.7a16.45,16.45,0,0,1-.7-2,13.32,13.32,0,0,1-.5,1.9Z"/><path class="cls-7" d="M186.7,344l3.8-9.9h1.4l4,9.9h-1.5l-1.1-3h-4.1l-1.1,3Zm2.9-4h3.3l-1-2.7a16.45,16.45,0,0,1-.7-2,13.32,13.32,0,0,1-.5,1.9Z"/><line class="cls-3" x1="198.5" y1="338.5" x2="205.5" y2="338.5"/><path d="M208.9,337.7a2.1,2.1,0,0,1-1.1-.8,2.84,2.84,0,0,1-.4-1.2,2.5,2.5,0,0,1,.8-1.8,2.7,2.7,0,0,1,2.1-.7,2.78,2.78,0,0,1,2.1.8,2.5,2.5,0,0,1,.8,1.8,1.92,1.92,0,0,1-.4,1.2,2.84,2.84,0,0,1-1.1.8,2.81,2.81,0,0,1,1.4,1,3,3,0,0,1,.5,1.6,2.72,2.72,0,0,1-.9,2.1,3.76,3.76,0,0,1-4.7,0,2.94,2.94,0,0,1-.9-2.2,3,3,0,0,1,.5-1.6A1.82,1.82,0,0,1,208.9,337.7Zm-.2-2a1.5,1.5,0,0,0,.4,1.1,1.29,1.29,0,0,0,1.2.4,1.5,1.5,0,0,0,1.1-.4,1.19,1.19,0,0,0,.4-1.1,1.72,1.72,0,0,0-1.6-1.6,1.5,1.5,0,0,0-1.1.4,1.75,1.75,0,0,0-.4,1.2Zm-.4,4.5a3.55,3.55,0,0,0,.2,1,2.7,2.7,0,0,0,.7.8,2,2,0,0,0,1.1.3,1.82,1.82,0,0,0,1.4-.6,2,2,0,0,0,.6-1.4,1.82,1.82,0,0,0-.6-1.4,2,2,0,0,0-1.5-.6,2,2,0,0,0-1.4.6A1.9,1.9,0,0,0,208.3,340.2Zm6.5-2a8.63,8.63,0,0,1,.4-2.8,3.55,3.55,0,0,1,1.1-1.6,2.79,2.79,0,0,1,1.8-.6,3.19,3.19,0,0,1,1.4.3,2.19,2.19,0,0,1,1,.9,4,4,0,0,1,.6,1.5,11.26,11.26,0,0,1-.2,5.1,3.55,3.55,0,0,1-1.1,1.6,3.06,3.06,0,0,1-4-.4,7,7,0,0,1-1-4Zm1.3,0a5.92,5.92,0,0,0,.6,3.2,1.66,1.66,0,0,0,2.2.6,1.7,1.7,0,0,0,.6-.6,9.1,9.1,0,0,0,0-6.5,1.6,1.6,0,0,0-1.4-.8,1.71,1.71,0,0,0-1.3.7,5.82,5.82,0,0,0-.7,3.4Z"/><path class="cls-7" d="M170.6,382.6v-1.2h4.2v3.7a8.17,8.17,0,0,1-2,1.2,5.22,5.22,0,0,1-2.1.4,5.83,5.83,0,0,1-2.6-.6,3.92,3.92,0,0,1-1.8-1.8,5.83,5.83,0,0,1-.6-2.6,6.26,6.26,0,0,1,.6-2.7,5.19,5.19,0,0,1,1.7-1.9,5.83,5.83,0,0,1,2.6-.6,4.06,4.06,0,0,1,1.9.4,4.51,4.51,0,0,1,1.4,1,3.29,3.29,0,0,1,.7,1.6l-1.2.3a3.38,3.38,0,0,0-.6-1.2,3.11,3.11,0,0,0-.9-.7,3.19,3.19,0,0,0-1.4-.3,3.65,3.65,0,0,0-1.5.3,3.59,3.59,0,0,0-1,.7,2.07,2.07,0,0,0-.6,1,4.48,4.48,0,0,0-.4,2,4.19,4.19,0,0,0,.5,2.2,2.74,2.74,0,0,0,1.3,1.3,4.06,4.06,0,0,0,1.9.4,4.15,4.15,0,0,0,1.6-.3,4.73,4.73,0,0,0,1.2-.7v-1.8Z"/><path class="cls-7" d="M170.6,372.1V371h4.2v3.7a8.17,8.17,0,0,1-2,1.2,5.22,5.22,0,0,1-2.1.4,5.83,5.83,0,0,1-2.6-.6,3.92,3.92,0,0,1-1.8-1.8,5.83,5.83,0,0,1-.6-2.6,6.6,6.6,0,0,1,.6-2.7,5.19,5.19,0,0,1,1.7-1.9,5.83,5.83,0,0,1,2.6-.6,4.06,4.06,0,0,1,1.9.4,4.51,4.51,0,0,1,1.4,1,3.29,3.29,0,0,1,.7,1.6l-1.2.3a3,3,0,0,0-.5-1.3,3.11,3.11,0,0,0-.9-.7,3.19,3.19,0,0,0-1.4-.3,4,4,0,0,0-1.5.3,3.59,3.59,0,0,0-1,.7,2.07,2.07,0,0,0-.6,1,4.48,4.48,0,0,0-.4,2,4.19,4.19,0,0,0,.5,2.2,2.74,2.74,0,0,0,1.3,1.3,4.06,4.06,0,0,0,1.9.4,5.08,5.08,0,0,0,2.9-1v-1.8Z"/><path class="cls-7" d="M172.8,355.6h1.3v5.7a9.86,9.86,0,0,1-.3,2.4,2.76,2.76,0,0,1-1.2,1.4,3.72,3.72,0,0,1-2.3.5,4.56,4.56,0,0,1-2.3-.5,3,3,0,0,1-1.3-1.4,6.9,6.9,0,0,1-.4-2.5v-5.7h1.3v5.7a12.25,12.25,0,0,0,.2,1.9,1.76,1.76,0,0,0,.8.9,3.19,3.19,0,0,0,1.4.3,2.49,2.49,0,0,0,2-.7,3.61,3.61,0,0,0,.6-2.5Z"/><path class="cls-7" d="M165.8,354.9l3.8-9.9H171l4,9.9h-1.5l-1.1-3h-4.1l-1.1,3Zm2.8-4H172l-1-2.7a16.45,16.45,0,0,1-.7-2,13.32,13.32,0,0,1-.5,1.9Z"/><path class="cls-7" d="M193.7,345.1H195v5.7a9.86,9.86,0,0,1-.3,2.4,2.76,2.76,0,0,1-1.2,1.4,3.72,3.72,0,0,1-2.3.5,4.56,4.56,0,0,1-2.3-.5,3,3,0,0,1-1.3-1.4,6.9,6.9,0,0,1-.4-2.5V345h1.3v5.7a12.25,12.25,0,0,0,.2,1.9,2.36,2.36,0,0,0,.8.9,3.4,3.4,0,0,0,3.5-.3,3.61,3.61,0,0,0,.6-2.5l.1-5.6Z"/><path class="cls-7" d="M186.7,365.5l3.8-9.9h1.4l4,9.9h-1.4l-1.2-3h-4.1l-1.1,3Zm2.9-4.1h3.3l-1-2.7a16.45,16.45,0,0,1-.7-2,13.32,13.32,0,0,1-.5,1.9Z"/><path class="cls-7" d="M193.7,366.1H195v5.7a9.86,9.86,0,0,1-.3,2.4,2.76,2.76,0,0,1-1.2,1.4,3.72,3.72,0,0,1-2.3.5,4.56,4.56,0,0,1-2.3-.5,3,3,0,0,1-1.3-1.4,6.9,6.9,0,0,1-.4-2.5V366h1.3v5.7a12.25,12.25,0,0,0,.2,1.9,2.36,2.36,0,0,0,.8.9,3.74,3.74,0,0,0,3.5-.3,3.61,3.61,0,0,0,.6-2.5l.1-5.6Z"/><path class="cls-7" d="M194.3,383l1.3.3a4.36,4.36,0,0,1-1.5,2.5,4.11,4.11,0,0,1-2.6.9,5.83,5.83,0,0,1-2.6-.6,4,4,0,0,1-1.5-1.9,7.51,7.51,0,0,1-.5-2.6,6.26,6.26,0,0,1,.6-2.7,4.62,4.62,0,0,1,1.7-1.7,5,5,0,0,1,2.4-.6,3.9,3.9,0,0,1,3.9,2.9l-1.3.3a2.75,2.75,0,0,0-1-1.6,3.32,3.32,0,0,0-1.6-.5,4.14,4.14,0,0,0-1.9.5,3.27,3.27,0,0,0-1.1,1.5,6.4,6.4,0,0,0,.1,4.1,2.59,2.59,0,0,0,1.1,1.4,3.37,3.37,0,0,0,1.7.5,3.29,3.29,0,0,0,1.9-.6A5.58,5.58,0,0,0,194.3,383Z"/><path d="M179.4,371.8l.1.1.1.1.1.1.1.1.1.1.1.1.1.1.1.1h1.7l.1-.1.1-.1.1-.1.1-.1.1-.1.1-.1.1-.1.1-.1.1-.1.1-.1.1-.1.1-.1v-1.6l-.1-.1-.1-.1-.1-.1-.1-.1-.1-.1-.1-.1-.1-.1-.1-.1-.1-.1-.1-.1-.1-.1-.1-.1h-1.7l-.1.1-.1.1-.1.1-.1.1-.1.1-.1.1-.1.1-.1.1-.1.1-.1.1-.1.1-.1.1v1.6l.1.1.1.1.1.1Z"/><path class="cls-5" d="M183.1,370.5v-.8l-.1-.1-.1-.1-.1-.1-.1-.1-.1-.1-.1-.1-.1-.1-.1-.1-.1-.1-.1-.1-.1-.1-.1-.1h-1.7l-.1.1-.1.1-.1.1-.1.1-.1.1-.1.1-.1.1-.1.1-.1.1-.1.1-.1.1-.1.1v.1l-.1.1v1.2l.1.1v.1l.1.1.1.1.1.1.1.1.1.1.1.1.1.1.1.1.1.1.1.1.1.1.1.1h1.7l.1-.1.1-.1.1-.1.1-.1.1-.1.1-.1.1-.1.1-.1.1-.1.1-.1.1-.1.1-.1v-.8h0"/><line class="cls-3" x1="174.7" y1="360" x2="187.4" y2="360"/><line class="cls-3" x1="173.7" y1="349.4" x2="186.4" y2="349.4"/><path class="cls-7" d="M165.7,334.9l3.8-9.9h1.4l4,9.9h-1.5l-1.2-3h-4.1l-1.1,3Zm2.9-4h3.3l-1-2.7a16.45,16.45,0,0,1-.7-2,13.32,13.32,0,0,1-.5,1.9Z"/><path class="cls-7" d="M173.4,297.9l1.3.3a4.36,4.36,0,0,1-1.5,2.5,4.11,4.11,0,0,1-2.6.9,5.83,5.83,0,0,1-2.6-.6,4,4,0,0,1-1.5-1.9,5.75,5.75,0,0,1-.5-2.6,6.26,6.26,0,0,1,.6-2.7,4,4,0,0,1,1.7-1.7,5,5,0,0,1,2.4-.6,3.9,3.9,0,0,1,3.9,2.9l-1.3.3a2.75,2.75,0,0,0-1-1.6,3.32,3.32,0,0,0-1.6-.5,4.14,4.14,0,0,0-1.9.5,3.27,3.27,0,0,0-1.1,1.5,6.4,6.4,0,0,0,.1,4.1,2.59,2.59,0,0,0,1.1,1.4,3.37,3.37,0,0,0,1.7.5,3.29,3.29,0,0,0,1.9-.6A6.35,6.35,0,0,0,173.4,297.9Z"/><path class="cls-7" d="M170.7,287v-1.2h4.2v3.7a8.17,8.17,0,0,1-2,1.2,5.22,5.22,0,0,1-2.1.4,5.83,5.83,0,0,1-2.6-.6,3.92,3.92,0,0,1-1.8-1.8,5.83,5.83,0,0,1-.6-2.6,6.26,6.26,0,0,1,.6-2.7,4.51,4.51,0,0,1,1.7-1.9,5.83,5.83,0,0,1,2.6-.6,4.06,4.06,0,0,1,1.9.4,4.51,4.51,0,0,1,1.4,1,3.29,3.29,0,0,1,.7,1.6l-1.2.3a3.38,3.38,0,0,0-.6-1.2,3.11,3.11,0,0,0-.9-.7,3.19,3.19,0,0,0-1.4-.3,4,4,0,0,0-1.5.3,3.59,3.59,0,0,0-1,.7,2.07,2.07,0,0,0-.6,1,4.48,4.48,0,0,0-.4,2,4.19,4.19,0,0,0,.5,2.2,2.74,2.74,0,0,0,1.3,1.3,4.06,4.06,0,0,0,1.9.4,4.15,4.15,0,0,0,1.6-.3,4.73,4.73,0,0,0,1.2-.7V287Z"/><path class="cls-1" d="M142.1,290.9l3.8-9.9h1.4l4.1,9.9h-1.5l-1.2-3h-4.1l-1.1,3Zm2.9-4.1h3.4l-1-2.7a16.45,16.45,0,0,1-.7-2,13.32,13.32,0,0,1-.5,1.9Z"/><path class="cls-1" d="M141.8,276.9l1.3.3a4.36,4.36,0,0,1-1.5,2.5,4.11,4.11,0,0,1-2.6.9,5.83,5.83,0,0,1-2.6-.6,4,4,0,0,1-1.5-1.9,5.75,5.75,0,0,1-.5-2.6,6.26,6.26,0,0,1,.6-2.7,4.21,4.21,0,0,1,1.7-1.8,5,5,0,0,1,2.4-.6,3.9,3.9,0,0,1,3.9,2.9l-1.3.3a3.36,3.36,0,0,0-1-1.6,3.32,3.32,0,0,0-1.6-.5,4.14,4.14,0,0,0-1.9.5,3.27,3.27,0,0,0-1.1,1.5,6.4,6.4,0,0,0,.1,4.1,2.59,2.59,0,0,0,1.1,1.4,3.37,3.37,0,0,0,1.7.5,3.29,3.29,0,0,0,1.9-.6A5.15,5.15,0,0,0,141.8,276.9Z"/><line class="cls-3" x1="131.9" y1="274.8" x2="124.9" y2="274.8"/><path d="M114.1,280.3h-1.2v-7.7a5,5,0,0,1-1.2.8,3.1,3.1,0,0,1-1.3.6v-1.2a17.39,17.39,0,0,0,1.8-1.1,6.89,6.89,0,0,0,1.1-1.3h.8Zm3.2-4.8a8.63,8.63,0,0,1,.4-2.8,3.55,3.55,0,0,1,1.1-1.6,2.79,2.79,0,0,1,1.8-.6,3.19,3.19,0,0,1,1.4.3,2.19,2.19,0,0,1,1,.9,4,4,0,0,1,.6,1.5,9,9,0,0,1,.2,2.3,13.33,13.33,0,0,1-.3,2.8,3.55,3.55,0,0,1-1.1,1.6,3.06,3.06,0,0,1-4-.4A5.83,5.83,0,0,1,117.3,275.5Zm1.2,0a5.92,5.92,0,0,0,.6,3.2,1.63,1.63,0,0,0,2.2.6,1.7,1.7,0,0,0,.6-.6,9.1,9.1,0,0,0,0-6.5,1.6,1.6,0,0,0-1.4-.8,1.71,1.71,0,0,0-1.3.7A5.82,5.82,0,0,0,118.5,275.5Z"/><path class="cls-1" d="M129,267.2l3.8-9.9h1.4l4,9.9h-1.5l-1.1-3h-4.1l-1.1,3Zm2.9-4.1h3.3l-1-2.7a16.45,16.45,0,0,1-.7-2,13.32,13.32,0,0,1-.5,1.9Z"/><path class="cls-1" d="M202.2,263.3v-1.2h4.2v3.7a5.64,5.64,0,0,1-2,1.1,5.22,5.22,0,0,1-2.1.4,5.83,5.83,0,0,1-2.6-.6,3.92,3.92,0,0,1-1.8-1.8,5.83,5.83,0,0,1-.6-2.6,6.26,6.26,0,0,1,.6-2.7,5.19,5.19,0,0,1,1.7-1.9,5.83,5.83,0,0,1,2.6-.6,4.06,4.06,0,0,1,1.9.4,4.51,4.51,0,0,1,1.4,1,3.29,3.29,0,0,1,.7,1.6l-1.2.3a3.38,3.38,0,0,0-.6-1.2,3.59,3.59,0,0,0-1-.7,2.2,2.2,0,0,0-1.4-.2,4,4,0,0,0-1.5.3,4.13,4.13,0,0,0-1.1.7,2.07,2.07,0,0,0-.6,1,4.48,4.48,0,0,0-.4,2,4.19,4.19,0,0,0,.5,2.2,2.74,2.74,0,0,0,1.3,1.3,4.28,4.28,0,0,0,3.5.1,4.73,4.73,0,0,0,1.2-.7v-1.8Z"/><path class="cls-1" d="M199.7,276.9l1.3.3a4.36,4.36,0,0,1-1.5,2.5,4.11,4.11,0,0,1-2.6.9,5.83,5.83,0,0,1-2.6-.6,4,4,0,0,1-1.5-1.9,5.75,5.75,0,0,1-.5-2.6,6.26,6.26,0,0,1,.6-2.7,4.9,4.9,0,0,1,1.7-1.8,5,5,0,0,1,2.4-.6,3.9,3.9,0,0,1,3.9,2.9l-1.3.3a3.36,3.36,0,0,0-1-1.6,3.06,3.06,0,0,0-3.5.1,3.27,3.27,0,0,0-1.1,1.5,5.82,5.82,0,0,0-.3,1.9,5.38,5.38,0,0,0,.4,2.2,2.59,2.59,0,0,0,1.1,1.4,3.37,3.37,0,0,0,1.7.5,3.29,3.29,0,0,0,1.9-.6A6.35,6.35,0,0,0,199.7,276.9Z"/><path class="cls-7" d="M194.4,287.4l1.3.3a4.36,4.36,0,0,1-1.5,2.5,3.53,3.53,0,0,1-2.6.8,5.83,5.83,0,0,1-2.6-.6,4,4,0,0,1-1.5-1.9,5.75,5.75,0,0,1-.5-2.6,6.26,6.26,0,0,1,.6-2.7,4,4,0,0,1,1.7-1.7,5,5,0,0,1,2.4-.6,3.9,3.9,0,0,1,3.9,2.9l-1.3.3a3.36,3.36,0,0,0-1-1.6,3.32,3.32,0,0,0-1.6-.5,4.14,4.14,0,0,0-1.9.5,3.27,3.27,0,0,0-1.1,1.5,6.4,6.4,0,0,0,.1,4.1,2.59,2.59,0,0,0,1.1,1.4,3.37,3.37,0,0,0,1.7.5,3.29,3.29,0,0,0,1.9-.6A5.15,5.15,0,0,0,194.4,287.4Z"/><path class="cls-7" d="M191.7,297.5v-1.2h4.2V300a5.64,5.64,0,0,1-2,1.1,5.22,5.22,0,0,1-2.1.4,5.83,5.83,0,0,1-2.6-.6,3.92,3.92,0,0,1-1.8-1.8,5.83,5.83,0,0,1-.6-2.6,6.26,6.26,0,0,1,.6-2.7,5.19,5.19,0,0,1,1.7-1.9,5.83,5.83,0,0,1,2.6-.6,4.06,4.06,0,0,1,1.9.4,4.51,4.51,0,0,1,1.4,1,3.29,3.29,0,0,1,.7,1.6l-1.2.3a3.38,3.38,0,0,0-.6-1.2,3.59,3.59,0,0,0-1-.7,2.2,2.2,0,0,0-1.4-.2,4.53,4.53,0,0,0-1.6.3,3.59,3.59,0,0,0-1,.7,2.07,2.07,0,0,0-.6,1,4.48,4.48,0,0,0-.4,2,5.38,5.38,0,0,0,.4,2.2,3.25,3.25,0,0,0,1.3,1.3,4.28,4.28,0,0,0,3.5.1,4.73,4.73,0,0,0,1.2-.7v-1.8Z"/><path class="cls-7" d="M186.7,324.4l3.8-9.9h1.4l4,9.9h-1.5l-1.2-3h-4.1l-1.1,3Zm2.9-4.1H193l-1-2.7a16.45,16.45,0,0,1-.7-2,13.32,13.32,0,0,1-.5,1.9Z"/><line class="cls-3" x1="174.7" y1="295.9" x2="186.5" y2="295.9"/><path class="cls-3" d="M165.3,285.3H150"/><path d="M164.4,285.3l-4.8-2.8v5.6Z"/><path d="M152.4,288h5.2v-5.2h-5.2Z"/><line class="cls-3" x1="174.7" y1="285.3" x2="186.5" y2="285.3"/><path d="M191.5,301.8l-2.7,4.4,5.2.1Z"/><path d="M193.7,312.6v-4.5H189v4.5Z"/><text class="cls-8" transform="translate(125.81 84.89)">L2</text><text class="cls-8" transform="translate(123.72 154.23)">P2</text><text class="cls-8" transform="translate(112.23 222.2)">P2a</text><text class="cls-9" transform="translate(125.81 347.42)">P1</text><text class="cls-10" transform="translate(268.73 36)">L3</text><text class="cls-10" transform="translate(266.78 164.75)">P3</text><path class="cls-11" d="M193.7,263.1c0-5.6-12-10.2-26.8-10.2s-26.8,4.6-26.8,10.2,12,10.2,26.8,10.2S193.7,268.7,193.7,263.1Z"/><text class="cls-12" transform="translate(150.32 268.71) scale(0.52 1)">c-GAM</text><text class="cls-13" transform="translate(176.67 268.71) scale(0.52 1)">P</text><line class="cls-3" x1="236.8" y1="216.6" x2="249.6" y2="216.7"/><path class="cls-5" d="M241.9,218.8v-4.2h-4.2v4.2h4.2"/><path class="cls-6" d="M243.6,217.8l.1.1.1.1.1.1.1.1.1.1.1.1.1.1.1.1h.1l.1.1H246l.1-.1.1-.1.1-.1.1-.1.1-.1.1-.1.1-.1.1-.1.1-.1.1-.1.1-.1.1-.1.1-.1v-1.6l-.1-.1-.1-.1-.1-.1-.1-.1-.1-.1-.1-.1-.1-.1-.1-.1-.1-.1-.1-.1-.1-.1-.1-.1h-1.7l-.1.1-.1.1-.1.1-.1.1-.1.1-.1.1-.1.1-.1.1-.1.1-.1.1-.1.1-.1.1v1.4l.1.1v.1l.1.1Z"/><path class="cls-5" d="M247.2,216.4v-.5l-.1-.1-.1-.1-.1-.1-.1-.1-.1-.1-.1-.1-.1-.1-.1-.1-.1-.1-.1-.1-.1-.1-.1-.1h-1.6l-.1.1-.1.1-.2.1-.1.1-.1.1-.1.1-.1.1-.1.1-.1.1-.1.1-.1.1-.1.1v1.4l.1.1v.1l.1.1.1.1.1.1.1.1.1.1.1.1.1.1.1.1.1.1.1.1.1.1H246l.1-.1.1-.1.1-.1.1-.1.1-.1.1-.1.1-.1.1-.1.1-.1.1-.1.1-.1.1-.1v-1h0"/><rect class="cls-6" x="238.1" y="215.2" width="3.2" height="2.9"/><line class="cls-3" x1="170.1" y1="324.6" x2="170.1" y2="302.2"/><path d="M170.2,305.4l1.2,3.8.4,1.9.8,1.9,2.4,1.9-9.5-.2,2.4-1.9.8-1.9.4-1.9Z"/><line class="cls-3" x1="191.4" y1="301.8" x2="191.4" y2="314.2"/><text class="cls-14" transform="translate(5.5 20.18)">c-AMP-GM<tspan class="cls-15" x="98.88" y="0">P</tspan><tspan x="111.86" y="0" xml:space="preserve"> Riboswitch</tspan></text><path class="cls-5" d="M225.13,237.23l-.21,2.41-.93,1.54-1.12,1.4-2.05,2.93,3.14-1.78,1.44-1,1.6-.78h2.35l-4.22-4.68"/><path d="M229.48,241.71l-2.35.09-1.57.83-1.41,1.07-3.09,1.88,2-3,1.07-1.43.89-1.57.13-2.41Z"/></svg>