<?xml version="1.0" encoding="utf-8"?>
<!-- Generator: Adobe Illustrator 25.4.1, SVG Export Plug-In . SVG Version: 6.00 Build 0)  -->
<svg version="1.1" id="图层_1" xmlns="http://www.w3.org/2000/svg" xmlns:xlink="http://www.w3.org/1999/xlink" x="0px" y="0px"
	 viewBox="0 0 400 400" style="enable-background:new 0 0 400 400;" xml:space="preserve">
<style type="text/css">
	.st0{fill:#FFAADC;}
	.st1{font-family:'ArialMT';}
	.st2{font-size:12.74px;}
	.st3{fill:none;stroke:#000000;stroke-width:0.17;stroke-miterlimit:1.33;}
	.st4{fill:#09FEFE;}
	.st5{fill:#80DB9E;}
	.st6{fill:#FF870A;}
	.st7{fill:none;stroke:#000000;stroke-width:0.9;stroke-miterlimit:1.33;}
	.st8{stroke:#000000;stroke-width:0.17;stroke-miterlimit:1.33;}
	.st9{fill:#FFFFFF;stroke:#000000;stroke-width:0.17;stroke-miterlimit:1.33;}
	.st10{fill:#FF0B0C;}
	.st11{fill:none;stroke:#FF0B0C;stroke-miterlimit:1.33;}
	.st12{font-size:27.15px;}
	.st13{fill:#6B6554;}
	.st14{font-size:12px;}
	.st15{font-size:20px;}
</style>
<g id="ID000002">
	<text transform="matrix(1 0 0 1 159.02 394.66)" class="st0 st1 st2">G</text>
</g>
<g id="ID000003">
	<text transform="matrix(1 0 0 1 159.02 382.21)" class="st0 st1 st2">G</text>
</g>
<g id="ID000004">
	<text transform="matrix(1 0 0 1 159.38 369.77)" class="st0 st1 st2">U</text>
</g>
<g id="ID000005">
	<line class="st3" x1="155.7" y1="364.2" x2="147.4" y2="364.2"/>
</g>
<g id="ID000006">
	<text transform="matrix(1 0 0 1 133.21 369.77)" class="st1 st2">10</text>
</g>
<g id="ID000007">
	<text transform="matrix(1 0 0 1 159.38 357.32)" class="st0 st1 st2">C</text>
</g>
<g id="ID000008">
	<text transform="matrix(1 0 0 1 159.73 343.88)" class="st0 st1 st2">A</text>
</g>
<g id="ID000009">
	<text transform="matrix(1 0 0 1 197.07 335.54)" class="st0 st1 st2">A</text>
</g>
<g id="ID000010">
	<text transform="matrix(1 0 0 1 184.27 344.88)" class="st0 st1 st2">U</text>
</g>
<g id="ID000011">
	<text transform="matrix(1 0 0 1 183.92 357.32)" class="st0 st1 st2">G</text>
</g>
<g id="ID000024">
	<line class="st3" x1="169" y1="351.7" x2="183.9" y2="351.7"/>
</g>
<g id="ID000025">
	<line class="st3" x1="169" y1="339.3" x2="183.9" y2="339.3"/>
</g>
<g id="ID000027">
	<text transform="matrix(1 0 0 1 159.38 329.32)" class="st0 st1 st2">C</text>
</g>
<g id="ID000028">
	<text transform="matrix(1 0 0 1 159.02 316.87)" class="st0 st1 st2">G</text>
</g>
<g id="ID000029">
	<text transform="matrix(1 0 0 1 146.93 310.65)" class="st4 st1 st2">C</text>
</g>
<g id="ID000030">
	<text transform="matrix(1 0 0 1 134.84 301.31)" class="st4 st1 st2">A</text>
</g>
<g id="ID000031">
	<text transform="matrix(1 0 0 1 125.15 291.98)" class="st4 st1 st2">C</text>
</g>
<g id="ID000032">
	<text transform="matrix(1 0 0 1 287.3 307.54)" class="st5 st1 st2">A</text>
</g>
<g id="ID000033">
	<text transform="matrix(1 0 0 1 184.27 306.17)" class="st6 st1 st2">C</text>
</g>
<g id="ID000034">
	<text transform="matrix(1 0 0 1 184.27 316.87)" class="st0 st1 st2">C</text>
</g>
<g id="ID000035">
	<text transform="matrix(1 0 0 1 183.92 329.32)" class="st0 st1 st2">G</text>
</g>
<g id="ID000036">
	<line class="st3" x1="169" y1="323.7" x2="183.9" y2="323.7"/>
</g>
<g id="ID000037">
	<line class="st3" x1="169" y1="311.3" x2="183.9" y2="311.3"/>
</g>
<g id="ID000038">
	<line class="st7" x1="286.7" y1="302.2" x2="193.8" y2="301.3"/>
</g>
<g id="ID000039">
	<polygon class="st8" points="244.3,305.4 242.3,303.5 240.2,302.9 238.1,302.6 234,301.8 238.1,300.8 240.2,300.4 242.3,299.8 
		244.3,297.9 	"/>
</g>
<g id="ID000041">
	<text transform="matrix(1 0 0 1 125.5 276.42)" class="st4 st1 st2">A</text>
</g>
<g id="ID000042">
	<text transform="matrix(1 0 0 1 134.13 263.97)" class="st4 st1 st2">G</text>
</g>
<g id="ID000043">
	<text transform="matrix(1 0 0 1 146.58 254.64)" class="st6 st1 st2">G</text>
</g>
<g id="ID000044">
	<line class="st3" x1="147.7" y1="246.2" x2="141.8" y2="240.3"/>
</g>
<g id="ID000045">
	<text transform="matrix(1 0 0 1 129.63 239.19)" class="st1 st2">20</text>
</g>
<g id="ID000046">
	<text transform="matrix(1 0 0 1 159.02 251.53)" class="st4 st1 st2">G</text>
</g>
<g id="ID000047">
	<text transform="matrix(1 0 0 1 159.38 239.08)" class="st4 st1 st2">C</text>
</g>
<g id="ID000048">
	<text transform="matrix(1 0 0 1 159.73 226.64)" class="st4 st1 st2">A</text>
</g>
<g id="ID000049">
	<text transform="matrix(1 0 0 1 159.73 214.19)" class="st4 st1 st2">A</text>
</g>
<g id="ID000050">
	<text transform="matrix(1 0 0 1 184.62 214.19)" class="st4 st1 st2">A</text>
</g>
<g id="ID000051">
	<text transform="matrix(1 0 0 1 184.27 226.64)" class="st4 st1 st2">C</text>
</g>
<g id="ID000052">
	<text transform="matrix(1 0 0 1 183.92 239.08)" class="st4 st1 st2">G</text>
</g>
<g id="ID000053">
	<text transform="matrix(1 0 0 1 184.27 251.53)" class="st4 st1 st2">C</text>
</g>
<g id="ID000054">
	<text transform="matrix(1 0 0 1 184.62 265.09)" class="st6 st1 st2">A</text>
</g>
<g id="ID000055">
	<text transform="matrix(1 0 0 1 262.41 295.09)" class="st5 st1 st2">A</text>
</g>
<g id="ID000056">
	<line class="st3" x1="144" y1="259.9" x2="186" y2="260.4"/>
</g>
<g id="ID000057">
	<polygon class="st8" points="160.1,260.3 160.1,260.1 160.1,260 160,259.8 160,259.7 160,259.5 159.9,259.3 159.9,259.2 
		159.8,259.1 159.7,258.9 159.7,258.8 159.6,258.7 159.5,258.5 159.4,258.4 159.3,258.3 159.2,258.2 159,258.1 158.9,258 
		158.7,257.9 158.6,257.9 158.5,257.8 158.3,257.7 158.2,257.7 158,257.7 157.8,257.7 157.7,257.6 157.5,257.6 157.4,257.7 
		157.2,257.7 157.1,257.7 156.9,257.7 156.8,257.8 156.6,257.8 156.5,257.9 156.3,258 156.2,258.1 156.1,258.2 156,258.2 
		155.8,258.4 155.7,258.5 155.6,258.6 155.5,258.7 155.4,258.8 155.4,259 155.3,259.1 155.2,259.3 155.2,259.4 155.2,259.6 
		155.1,259.7 155.1,259.9 155.1,260.1 155.1,260.2 155.1,260.4 155.1,260.5 155.2,260.7 155.2,260.8 155.2,261 155.3,261.1 
		155.4,261.3 155.4,261.4 155.5,261.5 155.6,261.7 155.7,261.8 155.8,261.9 156,262 156.1,262.1 156.2,262.2 156.3,262.3 
		156.5,262.4 156.6,262.4 156.8,262.5 156.9,262.5 157.1,262.6 157.2,262.6 157.4,262.6 157.5,262.6 157.7,262.6 157.9,262.6 
		158,262.6 158.2,262.6 158.3,262.5 158.5,262.4 158.6,262.4 158.8,262.3 158.9,262.2 159,262.2 159.2,262.1 159.3,262 159.4,261.8 
		159.5,261.7 159.6,261.6 159.7,261.5 159.8,261.3 159.8,261.2 159.9,261.1 159.9,260.9 160,260.7 160,260.6 160,260.4 	"/>
</g>
<g id="ID000058">
	<line class="st3" x1="169" y1="245.9" x2="183.9" y2="245.9"/>
</g>
<g id="ID000059">
	<line class="st3" x1="169" y1="233.5" x2="183.9" y2="233.5"/>
</g>
<g id="ID000060">
	<line class="st3" x1="169" y1="221" x2="183.9" y2="221"/>
</g>
<g id="ID000061">
	<polygon class="st9" points="170,221 174.8,223.8 174.8,218.2 	"/>
</g>
<g id="ID000062">
	<polygon class="st9" points="182.1,218.6 177.2,218.6 177.2,223.5 182.1,223.5 	"/>
</g>
<g id="ID000065">
	<line class="st3" x1="193.1" y1="236.1" x2="253.1" y2="274.4"/>
</g>
<g id="ID000066">
	<polygon class="st9" points="225.8,257 223.2,252 220.2,256.8 	"/>
</g>
<g id="ID000067">
	<line class="st7" x1="193.9" y1="262.1" x2="263.6" y2="289.5"/>
</g>
<g id="ID000068">
	<polygon class="st8" points="224.9,270.2 226.2,272.8 227.8,274.1 229.6,275.1 233.1,277.6 228.9,276.9 226.9,276.4 224.7,276.2 
		222.1,277.1 	"/>
</g>
<g id="ID000069">
	<line class="st3" x1="271.6" y1="289.5" x2="286.6" y2="289.5"/>
</g>
<g id="ID000070">
	<polygon class="st9" points="273.4,292 278.4,292 278.4,287 273.4,287 	"/>
</g>
<g id="ID000071">
	<polygon class="st9" points="284.8,289.5 284.8,289.3 284.8,289.2 284.8,289 284.8,288.9 284.7,288.7 284.6,288.6 284.6,288.4 
		284.5,288.3 284.4,288.1 284.4,288 284.2,287.9 284.1,287.8 284,287.7 283.9,287.6 283.8,287.5 283.6,287.4 283.5,287.3 
		283.4,287.2 283.2,287.2 283.1,287.1 282.9,287.1 282.8,287 282.6,287 282.5,287 282.3,287 282.1,287 282,287 281.8,287 
		281.7,287.1 281.5,287.1 281.4,287.2 281.2,287.3 281.1,287.3 281,287.4 280.8,287.5 280.7,287.6 280.6,287.7 280.5,287.8 
		280.4,288 280.3,288.1 280.2,288.2 280.1,288.4 280.1,288.5 280,288.6 280,288.8 279.9,288.9 279.9,289.1 279.9,289.2 279.9,289.4 
		279.9,289.6 279.9,289.7 279.9,289.9 279.9,290 280,290.2 280,290.3 280.1,290.5 280.1,290.6 280.2,290.8 280.3,290.9 280.4,291 
		280.5,291.1 280.6,291.3 280.7,291.4 280.8,291.5 281,291.6 281.1,291.6 281.2,291.7 281.4,291.8 281.5,291.8 281.7,291.9 
		281.8,291.9 282,292 282.1,292 282.3,292 282.5,292 282.6,292 282.8,291.9 282.9,291.9 283.1,291.9 283.2,291.8 283.4,291.8 
		283.5,291.7 283.6,291.6 283.8,291.5 283.9,291.4 284,291.3 284.1,291.2 284.2,291.1 284.4,291 284.4,290.8 284.5,290.7 
		284.6,290.6 284.6,290.4 284.7,290.3 284.8,290.1 284.8,290 284.8,289.8 284.8,289.6 	"/>
</g>
<g id="ID000073">
	<text transform="matrix(1 0 0 1 159.73 201.74)" class="st4 st1 st2">A</text>
</g>
<g id="ID000074">
	<text transform="matrix(1 0 0 1 159.38 186.19)" class="st4 st1 st2">C</text>
</g>
<g id="ID000075">
	<text transform="matrix(1 0 0 1 159.38 173.74)" class="st4 st1 st2">C</text>
</g>
<g id="ID000076">
	<text transform="matrix(1 0 0 1 159.73 161.29)" class="st4 st1 st2">A</text>
</g>
<g id="ID000077">
	<text transform="matrix(1 0 0 1 159.38 148.85)" class="st4 st1 st2">U</text>
</g>
<g id="ID000078">
	<text transform="matrix(1 0 0 1 159.38 136.4)" class="st4 st1 st2">U</text>
</g>
<g id="ID000079">
	<line class="st3" x1="158.7" y1="131.8" x2="150.4" y2="131.8"/>
</g>
<g id="ID000080">
	<text transform="matrix(1 0 0 1 136.21 136.4)" class="st1 st2">30</text>
</g>
<g id="ID000081">
	<text transform="matrix(1 0 0 1 159.38 123.96)" class="st4 st1 st2">C</text>
</g>
<g id="ID000082">
	<text transform="matrix(1 0 0 1 159.02 111.51)" class="st4 st1 st2">G</text>
</g>
<g id="ID000083">
	<text transform="matrix(1 0 0 1 165.95 99.06)" class="st4 st1 st2">A</text>
</g>
<g id="ID000084">
	<text transform="matrix(1 0 0 1 178.4 99.06)" class="st4 st1 st2">A</text>
</g>
<g id="ID000085">
	<text transform="matrix(1 0 0 1 184.62 111.51)" class="st4 st1 st2">A</text>
</g>
<g id="ID000086">
	<text transform="matrix(1 0 0 1 183.92 123.96)" class="st4 st1 st2">G</text>
</g>
<g id="ID000087">
	<text transform="matrix(1 0 0 1 184.62 136.4)" class="st4 st1 st2">A</text>
</g>
<g id="ID000088">
	<text transform="matrix(1 0 0 1 183.92 148.85)" class="st4 st1 st2">G</text>
</g>
<g id="ID000089">
	<text transform="matrix(1 0 0 1 184.27 161.29)" class="st4 st1 st2">U</text>
</g>
<g id="ID000090">
	<text transform="matrix(1 0 0 1 183.92 173.74)" class="st4 st1 st2">G</text>
</g>
<g id="ID000091">
	<line class="st3" x1="195.2" y1="170.1" x2="203.5" y2="170.1"/>
</g>
<g id="ID000092">
	<text transform="matrix(1 0 0 1 204.46 174.74)" class="st1 st2">40</text>
</g>
<g id="ID000093">
	<text transform="matrix(1 0 0 1 183.92 186.19)" class="st4 st1 st2">G</text>
</g>
<g id="ID000094">
	<text transform="matrix(1 0 0 1 183.92 201.74)" class="st4 st1 st2">G</text>
</g>
<g id="ID000095">
	<line class="st3" x1="169" y1="196.1" x2="183.9" y2="196.1"/>
</g>
<g id="ID000096">
	<polygon class="st9" points="170.7,198.6 175.7,198.6 175.7,193.6 170.7,193.6 	"/>
</g>
<g id="ID000097">
	<polygon class="st9" points="182.9,196.1 178,193.3 178,198.9 	"/>
</g>
<g id="ID000098">
	<line class="st3" x1="169" y1="180.6" x2="183.9" y2="180.6"/>
</g>
<g id="ID000099">
	<line class="st3" x1="169" y1="168.1" x2="183.9" y2="168.1"/>
</g>
<g id="ID000100">
	<line class="st3" x1="169" y1="155.7" x2="183.9" y2="155.7"/>
</g>
<g id="ID000101">
	<polygon class="st8" points="178.9,143.2 178.9,143.1 178.9,142.9 178.9,142.8 178.8,142.6 178.8,142.5 178.7,142.3 178.7,142.2 
		178.6,142 178.5,141.9 178.4,141.8 178.3,141.6 178.2,141.5 178.1,141.4 178,141.3 177.9,141.2 177.7,141.1 177.6,141.1 177.5,141 
		177.3,140.9 177.2,140.9 177,140.8 176.9,140.8 176.7,140.8 176.5,140.8 176.4,140.8 176.2,140.8 176.1,140.8 175.9,140.8 
		175.8,140.9 175.6,140.9 175.5,140.9 175.3,141 175.2,141.1 175.1,141.2 174.9,141.3 174.8,141.4 174.7,141.5 174.6,141.6 
		174.5,141.7 174.4,141.8 174.3,142 174.2,142.1 174.1,142.2 174.1,142.4 174,142.5 174,142.7 174,142.9 173.9,143 173.9,143.2 
		173.9,143.3 173.9,143.5 174,143.6 174,143.8 174,143.9 174.1,144.1 174.1,144.2 174.2,144.4 174.3,144.5 174.4,144.7 174.5,144.8 
		174.6,144.9 174.7,145 174.8,145.1 174.9,145.2 175.1,145.3 175.2,145.4 175.3,145.5 175.5,145.5 175.6,145.6 175.8,145.6 
		175.9,145.7 176.1,145.7 176.2,145.7 176.4,145.7 176.5,145.7 176.7,145.7 176.9,145.7 177,145.7 177.2,145.6 177.3,145.6 
		177.5,145.5 177.6,145.4 177.7,145.4 177.9,145.3 178,145.2 178.1,145.1 178.2,145 178.3,144.9 178.4,144.7 178.5,144.6 
		178.6,144.5 178.7,144.3 178.7,144.2 178.8,144 178.8,143.9 178.9,143.7 178.9,143.6 178.9,143.4 	"/>
</g>
<g id="ID000102">
	<line class="st3" x1="169" y1="130.8" x2="183.9" y2="130.8"/>
</g>
<g id="ID000103">
	<line class="st3" x1="169" y1="118.3" x2="183.9" y2="118.3"/>
</g>
<g id="ID000104">
	<line class="st3" x1="169" y1="105.9" x2="183.9" y2="105.9"/>
</g>
<g id="ID000105">
	<polygon class="st9" points="170,105.9 174.8,108.7 174.8,103.1 	"/>
</g>
<g id="ID000106">
	<polygon class="st9" points="182.1,103.4 177.2,103.4 177.2,108.4 182.1,108.4 	"/>
</g>
<g id="ID000110">
	<text transform="matrix(1 0 0 1 253.08 282.64)" class="st5 st1 st2">A</text>
</g>
<g id="ID000111">
	<text transform="matrix(1 0 0 1 261.71 276.42)" class="st5 st1 st2">G</text>
</g>
<g id="ID000112">
	<line class="st3" x1="260.8" y1="269" x2="254.9" y2="263.1"/>
</g>
<g id="ID000113">
	<text transform="matrix(1 0 0 1 240.75 261.97)" class="st1 st2">50</text>
</g>
<g id="ID000114">
	<text transform="matrix(1 0 0 1 262.06 263.97)" class="st5 st1 st2">C</text>
</g>
<g id="ID000115">
	<text transform="matrix(1 0 0 1 262.06 251.53)" class="st5 st1 st2">C</text>
</g>
<g id="ID000116">
	<text transform="matrix(1 0 0 1 249.61 242.19)" class="st5 st1 st2">U</text>
</g>
<g id="ID000117">
	<text transform="matrix(1 0 0 1 286.6 251.53)" class="st5 st1 st2">G</text>
</g>
<g id="ID000118">
	<text transform="matrix(1 0 0 1 286.6 263.97)" class="st5 st1 st2">G</text>
</g>
<g id="ID000119">
	<text transform="matrix(1 0 0 1 286.95 276.42)" class="st5 st1 st2">U</text>
</g>
<g id="ID000120">
	<text transform="matrix(1 0 0 1 286.95 295.09)" class="st5 st1 st2">U</text>
</g>
<g id="ID000121">
	<line class="st3" x1="299.9" y1="289.5" x2="308.1" y2="289.5"/>
</g>
<g id="ID000122">
	<text transform="matrix(1 0 0 1 308.15 295.09)" class="st1 st2">90</text>
</g>
<g id="ID000123">
	<polygon class="st8" points="281.6,270.8 281.6,270.7 281.6,270.5 281.5,270.4 281.5,270.2 281.5,270 281.4,269.9 281.4,269.8 
		281.3,269.6 281.2,269.5 281.1,269.4 281,269.2 280.9,269.1 280.8,269 280.7,268.9 280.5,268.8 280.4,268.7 280.3,268.6 
		280.1,268.6 280,268.5 279.9,268.4 279.7,268.4 279.5,268.4 279.4,268.4 279.2,268.3 279.1,268.3 278.9,268.3 278.8,268.4 
		278.6,268.4 278.4,268.4 278.3,268.5 278.1,268.5 278,268.6 277.9,268.7 277.7,268.8 277.6,268.8 277.5,268.9 277.4,269 
		277.2,269.2 277.1,269.3 277.1,269.4 277,269.5 276.9,269.7 276.8,269.8 276.8,270 276.7,270.1 276.7,270.3 276.6,270.4 
		276.6,270.6 276.6,270.7 276.6,270.9 276.6,271.1 276.6,271.2 276.7,271.4 276.7,271.5 276.8,271.7 276.8,271.8 276.9,272 
		277,272.1 277.1,272.2 277.1,272.4 277.2,272.5 277.4,272.6 277.5,272.7 277.6,272.8 277.7,272.9 277.9,273 278,273 278.1,273.1 
		278.3,273.2 278.4,273.2 278.6,273.3 278.8,273.3 278.9,273.3 279.1,273.3 279.2,273.3 279.4,273.3 279.5,273.3 279.7,273.2 
		279.9,273.2 280,273.1 280.1,273.1 280.3,273 280.4,272.9 280.5,272.9 280.7,272.8 280.8,272.6 280.9,272.5 281,272.4 281.1,272.3 
		281.2,272.2 281.3,272 281.4,271.9 281.4,271.8 281.5,271.6 281.5,271.5 281.5,271.3 281.6,271.1 281.6,271 	"/>
</g>
<g id="ID000124">
	<line class="st3" x1="271.6" y1="258.4" x2="286.6" y2="258.4"/>
</g>
<g id="ID000125">
	<line class="st3" x1="271.6" y1="245.9" x2="286.6" y2="245.9"/>
</g>
<g id="ID000129">
	<text transform="matrix(1 0 0 1 262.06 235.97)" class="st5 st1 st2">C</text>
</g>
<g id="ID000130">
	<text transform="matrix(1 0 0 1 262.06 223.53)" class="st5 st1 st2">C</text>
</g>
<g id="ID000131">
	<text transform="matrix(1 0 0 1 261.71 211.08)" class="st5 st1 st2">G</text>
</g>
<g id="ID000132">
	<text transform="matrix(1 0 0 1 286.6 198.63)" class="st5 st1 st2">G</text>
</g>
<g id="ID000133">
	<text transform="matrix(1 0 0 1 286.95 211.08)" class="st5 st1 st2">C</text>
</g>
<g id="ID000134">
	<text transform="matrix(1 0 0 1 286.6 223.53)" class="st5 st1 st2">G</text>
</g>
<g id="ID000135">
	<text transform="matrix(1 0 0 1 286.6 235.97)" class="st5 st1 st2">G</text>
</g>
<g id="ID000136">
	<polyline class="st3" points="270.2,226.9 269.8,227.3 276,211.7 288.4,183.7 288.4,183.7 288,184.1 	"/>
</g>
<g id="ID000137">
	<polygon class="st9" points="275.9,216.5 277.3,213.3 274.1,211.9 272.8,215.1 	"/>
</g>
<g id="ID000138">
	<polygon class="st9" points="278,207.6 277.9,207.6 277.7,207.5 277.6,207.5 277.5,207.5 277.4,207.5 277.2,207.5 277.1,207.5 
		277,207.5 276.8,207.5 276.7,207.5 276.5,207.5 276.4,207.6 276.3,207.6 276.2,207.7 276.1,207.8 276,207.8 275.8,207.9 275.7,208 
		275.6,208.1 275.5,208.2 275.5,208.3 275.4,208.4 275.3,208.5 275.2,208.6 275.2,208.7 275.1,208.9 275.1,209 275.1,209.1 
		275,209.3 275,209.4 275,209.5 275,209.7 275,209.8 275,209.9 275.1,210.1 275.1,210.2 275.2,210.3 275.2,210.4 275.3,210.6 
		275.3,210.7 275.4,210.8 275.5,210.9 275.6,211 275.7,211.1 275.8,211.2 275.9,211.3 276,211.3 276.1,211.4 276.2,211.5 
		276.3,211.5 276.5,211.6 276.6,211.6 276.7,211.6 276.9,211.7 277,211.7 277.1,211.7 277.3,211.7 277.4,211.7 277.5,211.6 
		277.6,211.6 277.8,211.6 277.9,211.5 278,211.5 278.1,211.4 278.3,211.4 278.4,211.3 278.5,211.2 278.6,211.1 278.7,211 
		278.8,210.9 278.9,210.8 278.9,210.7 279,210.6 279,210.5 279.1,210.3 279.1,210.2 279.2,210.1 279.2,209.9 279.2,209.8 
		279.2,209.7 279.2,209.6 279.2,209.4 279.2,209.3 279.2,209.1 279.2,209 279.1,208.9 279.1,208.8 279,208.6 279,208.5 278.9,208.4 
		278.8,208.3 278.7,208.2 278.6,208.1 278.5,208 278.5,207.9 278.3,207.8 278.2,207.8 278.1,207.7 	"/>
</g>
<g id="ID000139">
	<line class="st3" x1="271.6" y1="230.4" x2="286.6" y2="230.4"/>
</g>
<g id="ID000140">
	<line class="st3" x1="271.6" y1="217.9" x2="286.6" y2="217.9"/>
</g>
<g id="ID000141">
	<line class="st7" x1="266.7" y1="200.5" x2="266.7" y2="173.1"/>
</g>
<g id="ID000142">
	<polygon class="st8" points="262.9,191 264.8,188.9 265.4,186.8 265.7,184.7 266.7,180.6 267.6,184.7 267.9,186.8 268.5,188.9 
		270.4,191 	"/>
</g>
<g id="ID000143">
	<line class="st3" x1="271.6" y1="205.5" x2="286.6" y2="205.5"/>
</g>
<g id="ID000145">
	<text transform="matrix(1 0 0 1 261.71 173.74)" class="st5 st1 st2">G</text>
</g>
<g id="ID000146">
	<text transform="matrix(1 0 0 1 262.06 161.29)" class="st5 st1 st2">C</text>
</g>
<g id="ID000147">
	<text transform="matrix(1 0 0 1 262.06 148.85)" class="st5 st1 st2">C</text>
</g>
<g id="ID000148">
	<text transform="matrix(1 0 0 1 262.06 136.4)" class="st5 st1 st2">U</text>
</g>
<g id="ID000149">
	<line class="st3" x1="263.3" y1="133.8" x2="255.2" y2="135.8"/>
</g>
<g id="ID000150">
	<text transform="matrix(1 0 0 1 240.89 142.4)" class="st1 st2">60</text>
</g>
<g id="ID000151">
	<text transform="matrix(1 0 0 1 262.41 124.96)" class="st5 st1 st2">A</text>
</g>
<g id="ID000153">
	<text transform="matrix(1 0 0 1 286.95 124.96)" class="st5 st1 st2">U</text>
</g>
<g id="ID000154">
	<text transform="matrix(1 0 0 1 287.3 136.4)" class="st5 st1 st2">A</text>
</g>
<g id="ID000155">
	<text transform="matrix(1 0 0 1 286.6 148.85)" class="st5 st1 st2">G</text>
</g>
<g id="ID000156">
	<text transform="matrix(1 0 0 1 286.6 161.29)" class="st5 st1 st2">G</text>
</g>
<g id="ID000157">
	<line class="st3" x1="297.9" y1="155.7" x2="306.1" y2="155.7"/>
</g>
<g id="ID000158">
	<text transform="matrix(1 0 0 1 306.15 161.29)" class="st1 st2">80</text>
</g>
<g id="ID000159">
	<text transform="matrix(1 0 0 1 286.95 173.74)" class="st5 st1 st2">U</text>
</g>
<g id="ID000160">
	<text transform="matrix(1 0 0 1 287.3 186.19)" class="st5 st1 st2">A</text>
</g>
<g id="ID000161">
	<polygon class="st8" points="281.6,168.1 281.6,168 281.6,167.8 281.5,167.7 281.5,167.5 281.5,167.4 281.4,167.2 281.4,167.1 
		281.3,166.9 281.2,166.8 281.1,166.7 281,166.5 280.9,166.4 280.8,166.3 280.7,166.2 280.5,166.1 280.4,166 280.3,165.9 
		280.1,165.9 280,165.8 279.9,165.8 279.7,165.7 279.5,165.7 279.4,165.7 279.2,165.6 279.1,165.6 278.9,165.7 278.8,165.7 
		278.6,165.7 278.4,165.7 278.3,165.8 278.1,165.8 278,165.9 277.9,166 277.7,166.1 277.6,166.2 277.5,166.3 277.4,166.4 
		277.2,166.5 277.1,166.6 277.1,166.7 277,166.9 276.9,167 276.8,167.1 276.8,167.3 276.7,167.4 276.7,167.6 276.6,167.8 
		276.6,167.9 276.6,168.1 276.6,168.2 276.6,168.4 276.6,168.5 276.7,168.7 276.7,168.8 276.8,169 276.8,169.1 276.9,169.3 
		277,169.4 277.1,169.6 277.1,169.7 277.2,169.8 277.4,169.9 277.5,170 277.6,170.1 277.7,170.2 277.9,170.3 278,170.4 278.1,170.4 
		278.3,170.5 278.4,170.5 278.6,170.6 278.8,170.6 278.9,170.6 279.1,170.6 279.2,170.6 279.4,170.6 279.5,170.6 279.7,170.6 
		279.9,170.5 280,170.5 280.1,170.4 280.3,170.3 280.4,170.2 280.5,170.2 280.7,170.1 280.8,170 280.9,169.9 281,169.7 281.1,169.6 
		281.2,169.5 281.3,169.4 281.4,169.2 281.4,169.1 281.5,168.9 281.5,168.8 281.5,168.6 281.6,168.4 281.6,168.3 	"/>
</g>
<g id="ID000162">
	<line class="st3" x1="271.6" y1="155.7" x2="286.6" y2="155.7"/>
</g>
<g id="ID000163">
	<line class="st3" x1="271.6" y1="143.2" x2="286.6" y2="143.2"/>
</g>
<g id="ID000164">
	<line class="st3" x1="271.6" y1="130.8" x2="286.6" y2="130.8"/>
</g>
<g id="ID000011-2">
	<text transform="matrix(1 0 0 1 184.27 369.77)" class="st0 st1 st2">G</text>
</g>
<text transform="matrix(1 0 0 1 167.47 265.44)" class="st10 st1 st2">Gα</text>
<g id="ID000043-2">
	<text transform="matrix(1 0 0 1 167.81 292.71)" class="st10 st1 st2">Gβ</text>
</g>
<line class="st11" x1="168.4" y1="264.7" x2="159.5" y2="269.9"/>
<line class="st11" x1="159.5" y1="269.3" x2="168.6" y2="283.6"/>
<text transform="matrix(1 0 0 1 149.11 275.72)" class="st10 st1 st2">P</text>
<line class="st11" x1="160" y1="276.8" x2="159.4" y2="277.5"/>
<line class="st11" x1="161.7" y1="275" x2="161.1" y2="275.6"/>
<line class="st11" x1="164.2" y1="272.5" x2="163.6" y2="273.2"/>
<line class="st11" x1="165.6" y1="271.2" x2="164.9" y2="271.8"/>
<line class="st11" x1="167.1" y1="269.6" x2="166.5" y2="270.3"/>
<line class="st11" x1="168.8" y1="267.9" x2="168.1" y2="268.6"/>
<line class="st11" x1="170.1" y1="266.6" x2="169.5" y2="267.2"/>
<line class="st11" x1="161.4" y1="278.9" x2="160.8" y2="278.3"/>
<line class="st11" x1="163.1" y1="280.5" x2="162.4" y2="279.9"/>
<line class="st11" x1="164.8" y1="282" x2="164.1" y2="281.4"/>
<line class="st11" x1="166.5" y1="283.6" x2="165.8" y2="283"/>
<line class="st11" x1="168" y1="285" x2="167.3" y2="284.4"/>
<text transform="matrix(1 0 0 1 150.92 284.58)" class="st10 st1 st2">P</text>
<line class="st3" x1="156.2" y1="252" x2="169.2" y2="259.4"/>
<polygon class="st9" points="162.5,258.3 166.9,260.8 169.3,256.5 165,254 "/>
<polygon class="st9" points="162.3,255.2 162.3,255.1 162.4,255 162.5,254.8 162.5,254.7 162.5,254.5 162.6,254.3 162.6,254.2 
	162.6,254 162.6,253.9 162.6,253.7 162.5,253.6 162.5,253.4 162.5,253.3 162.4,253.1 162.4,253 162.3,252.8 162.2,252.7 
	162.1,252.6 162,252.4 161.9,252.3 161.8,252.2 161.7,252.1 161.6,252 161.4,251.9 161.3,251.8 161.1,251.8 161,251.7 160.9,251.6 
	160.7,251.6 160.5,251.6 160.4,251.5 160.2,251.5 160.1,251.5 159.9,251.5 159.8,251.5 159.6,251.6 159.5,251.6 159.3,251.7 
	159.2,251.7 159,251.8 158.9,251.9 158.7,251.9 158.6,252 158.5,252.1 158.4,252.2 158.3,252.3 158.1,252.5 158.1,252.6 158,252.7 
	157.9,252.9 157.8,253 157.8,253.1 157.7,253.3 157.7,253.4 157.6,253.6 157.6,253.8 157.6,253.9 157.6,254.1 157.6,254.2 
	157.6,254.4 157.7,254.5 157.7,254.7 157.7,254.8 157.8,255 157.9,255.1 158,255.3 158,255.4 158.1,255.5 158.2,255.7 158.3,255.8 
	158.4,255.9 158.6,256 158.7,256.1 158.8,256.2 159,256.2 159.1,256.3 159.3,256.4 159.4,256.4 159.6,256.5 159.7,256.5 
	159.9,256.5 160,256.5 160.2,256.5 160.4,256.5 160.5,256.5 160.7,256.4 160.8,256.4 161,256.4 161.1,256.3 161.3,256.2 
	161.4,256.1 161.5,256.1 161.6,256 161.8,255.9 161.9,255.8 162,255.6 162.1,255.5 162.2,255.4 "/>
<g id="ID000037-2">
	<line class="st3" x1="174.3" y1="293" x2="185" y2="303.5"/>
</g>
<text transform="matrix(1 0 0 1 98.33 161.44)" class="st4 st1 st12">P2</text>
<text transform="matrix(1 0 0 1 205.61 377.99)" class="st0 st1 st12">P1</text>
<text transform="matrix(1 0 0 1 305.88 136.55)" class="st5 st1 st12">P3</text>
<text transform="matrix(1 0 0 1 65.88 293)" class="st4 st1 st12">J1/2</text>
<g id="ID000152">
	<text transform="matrix(1 0 0 1 254.41 121.51)" class="st5 st1 st2">A</text>
</g>
<g id="ID000168">
	<text transform="matrix(1 0 0 1 254.41 112.06)" class="st5 st1 st2">A</text>
</g>
<g id="ID000173">
	<line class="st3" x1="271.6" y1="89" x2="286.6" y2="89"/>
</g>
<g id="ID000169">
	<text transform="matrix(1 0 0 1 262.06 107.62)" class="st5 st1 st2">C</text>
</g>
<g id="ID000170">
	<text transform="matrix(1 0 0 1 262.06 95.17)" class="st5 st1 st2">C</text>
</g>
<g id="ID000171">
	<text transform="matrix(1 0 0 1 286.6 95.17)" class="st5 st1 st2">G</text>
</g>
<g id="ID000172">
	<text transform="matrix(1 0 0 1 286.6 109.62)" class="st5 st1 st2">G</text>
</g>
<g id="ID000174">
	<line class="st3" x1="271.6" y1="89.6" x2="286.6" y2="89.6"/>
</g>
<g id="ID000032-2">
	<text transform="matrix(1 0 0 1 254.31 85.89)" class="st13 st1 st2">A</text>
</g>
<g id="ID000119-2">
	<text transform="matrix(1 0 0 1 247.63 75.93)" class="st13 st1 st2">U</text>
</g>
<g id="ID000119-3">
	<text transform="matrix(1 0 0 1 250.13 63.38)" class="st13 st1 st2">U</text>
</g>
<g id="ID000171-2">
	<text transform="matrix(1 0 0 1 256.79 52.85)" class="st13 st1 st2">G</text>
</g>
<g id="ID000147-2">
	<text transform="matrix(1 0 0 1 268.66 46.25)" class="st13 st1 st2">C</text>
</g>
<g id="ID000032-3">
	<text transform="matrix(1 0 0 1 281.34 46.4)" class="st13 st1 st2">A</text>
</g>
<g id="ID000147-3">
	<text transform="matrix(1 0 0 1 291.31 52.85)" class="st13 st1 st2">C</text>
</g>
<g id="ID000119-4">
	<text transform="matrix(1 0 0 1 300.49 63.84)" class="st13 st1 st2">U</text>
</g>
<g id="ID000170-2">
	<text transform="matrix(1 0 0 1 302.24 76.77)" class="st13 st1 st2">C</text>
</g>
<g id="ID000170-3">
	<text transform="matrix(1 0 0 1 293.55 85.89)" class="st13 st1 st2">C</text>
</g>
<text transform="matrix(1 0 0 1 269.3 72.98)" class="st13 st1 st14">U1</text>
<text transform="matrix(1 0 0 1 284.64 72.98)" class="st13 st1 st14">A</text>
<text transform="matrix(1 0 0 1 6.44 18.53)" class="st1 st15">c-di-GMP-I Riboswitch</text>
<g>
	<g id="ID000065_00000041998477225739811940000007993784883947252119_">
		<line class="st3" x1="194.1" y1="107.9" x2="286.7" y2="140.3"/>
	</g>
	<g id="ID000066_00000004539095606701983510000003292548539393744274_">
		<polygon class="st9" points="244.6,125.6 239.5,119.7 237,127.1 		"/>
	</g>
</g>
<g>
	<g id="ID000064">
		<polygon class="st8" points="233.1,209.5 233.1,209.4 232.9,209.3 232.9,209.2 232.7,209.1 232.6,209 232.5,208.9 232.4,208.8 
			232.2,208.7 232.1,208.6 231.9,208.6 231.8,208.5 231.6,208.5 231.5,208.4 231.3,208.4 231.2,208.4 231,208.4 230.9,208.4 
			230.7,208.4 230.5,208.4 230.4,208.5 230.2,208.5 230.1,208.6 229.9,208.7 229.8,208.7 229.7,208.8 229.5,208.9 229.4,209 
			229.3,209.1 229.2,209.2 229.1,209.3 229,209.5 228.9,209.6 228.8,209.8 228.8,209.9 228.7,210 228.7,210.2 228.6,210.3 
			228.6,210.5 228.6,210.6 228.6,210.8 228.6,211 228.6,211.1 228.6,211.3 228.6,211.4 228.7,211.6 228.7,211.7 228.8,211.9 
			228.8,212 228.9,212.2 229,212.3 229.1,212.4 229.2,212.6 229.3,212.7 229.4,212.8 229.5,212.9 229.7,213 229.8,213 229.9,213.1 
			230.1,213.2 230.2,213.2 230.4,213.3 230.5,213.3 230.7,213.3 230.9,213.4 231,213.4 231.2,213.4 231.3,213.4 231.5,213.3 
			231.6,213.3 231.8,213.3 231.9,213.2 232.1,213.1 232.2,213.1 232.4,213 232.5,212.9 232.6,212.8 232.7,212.7 232.9,212.6 
			232.9,212.5 233.1,212.4 233.1,212.2 233.2,212.1 233.3,212 233.4,211.8 233.4,211.7 233.5,211.5 233.5,211.4 233.5,211.2 
			233.5,211.1 233.5,210.9 233.5,210.7 233.5,210.6 233.5,210.4 233.5,210.3 233.4,210.1 233.4,210 233.3,209.8 233.2,209.7 		"/>
	</g>
	<g id="ID000065_00000109738033598043151040000012685412205721132210_">
		<line class="st3" x1="193" y1="222.2" x2="285.8" y2="195.5"/>
	</g>
</g>
<text transform="matrix(1 0 0 1 146.7671 394.6602)" class="st1 st14">5&apos;</text>
<text transform="matrix(1 0 0 1 195.2 369.7697)" class="st1 st14">3&apos;</text>
</svg>
