<?xml version="1.0" encoding="utf-8"?>
<!-- Generator: Adobe Illustrator 26.0.0, SVG Export Plug-In . SVG Version: 6.00 Build 0)  -->
<svg version="1.1" id="图层_1" xmlns="http://www.w3.org/2000/svg" xmlns:xlink="http://www.w3.org/1999/xlink" x="0px" y="0px"
	 viewBox="0 0 400 400" style="enable-background:new 0 0 400 400;" xml:space="preserve">
<style type="text/css">
	.st0{fill:#070000;}
	.st1{fill:#221E1F;}
	.st2{fill:none;stroke:#060000;stroke-width:0.72;stroke-miterlimit:10;}
	.st3{fill:#C62B2B;}
	.st4{fill:#7F7B86;}
	.st5{fill:#808080;}
	.st6{fill:#C0292A;}
	.st7{fill:#0A0303;}
	.st8{fill:#EBCAD1;}
	.st9{fill:none;stroke:#060000;stroke-width:1.94;stroke-miterlimit:10;}
	.st10{fill:#D0E1AE;}
	.st11{fill:#CED5E5;}
	.st12{font-family:'ArialMT';}
	.st13{font-size:11px;}
	.st14{letter-spacing:-1;}
	.st15{fill:#D7EFC5;}
	.st16{fill:none;stroke:#000000;stroke-width:2.71;}
	.st17{fill:#D90000;stroke:#000000;stroke-width:1.35;}
	.st18{font-size:22.36px;}
	.st19{fill:#807B88;}
	.st20{font-size:13.97px;}
	.st21{fill:#D90000;}
	.st22{fill:#807B88;stroke:#000000;stroke-width:1.35;}
	.st23{stroke:#000000;stroke-width:1.35;}
	.st24{fill:#FFFFFF;stroke:#000000;stroke-width:1.35;}
	.st25{fill:none;stroke:#000000;stroke-width:1.35;}
	.st26{font-size:20px;}
</style>
<path class="st0" d="M42.7,154.5h0.8c0.1,0.3,0.2,0.6,0.4,0.9l0.8,0.2c0.3,0.1,0.5,0,0.7-0.2c0.2-0.1,0.4-0.3,0.5-0.5l0.3-0.8
	c0.1-0.4,0.2-0.8,0.2-1.2h-0.1l-0.7,0.7l-0.9,0.2c-0.6,0-1.1-0.2-1.5-0.6c-0.4-0.5-0.6-1.1-0.6-1.8c0-0.7,0.2-1.4,0.6-1.9
	c0.4-0.4,1-0.6,1.6-0.6c0.5,0,0.9,0.1,1.3,0.3c0.4,0.3,0.7,0.7,0.8,1.2c0.2,0.7,0.3,1.4,0.3,2.1c0,0.8-0.1,1.5-0.2,2.3
	c-0.2,0.5-0.5,0.9-0.9,1.2c-0.4,0.3-0.9,0.5-1.4,0.5c-0.5,0-1-0.2-1.4-0.5C42.9,155.6,42.7,155.1,42.7,154.5z M46.3,151.2
	c0-0.4-0.1-0.8-0.4-1.2c-0.4-0.5-1.1-0.7-1.7-0.3c-0.1,0.1-0.3,0.2-0.3,0.3c-0.3,0.4-0.4,0.8-0.4,1.3c0,0.4,0.1,0.9,0.4,1.2
	c0.3,0.3,0.6,0.4,1,0.4c0.4,0,0.7-0.1,1-0.4C46.2,152.1,46.3,151.7,46.3,151.2z"/>
<path class="st0" d="M48.1,152.6c0-0.7,0.1-1.5,0.3-2.2c0.1-0.5,0.4-0.9,0.8-1.2c0.3-0.3,0.8-0.4,1.2-0.4c0.4,0,0.8,0,1.1,0.2
	l0.7,0.7c0.2,0.3,0.3,0.7,0.4,1.1c0.1,0.6,0.2,1.2,0.2,1.8c0,0.7-0.1,1.4-0.3,2.1c-0.1,0.5-0.3,1-0.7,1.3c-0.4,0.3-0.9,0.4-1.4,0.4
	c-0.6,0-1.2-0.3-1.6-0.8C48.2,154.7,48,153.7,48.1,152.6z M49,152.6c-0.1,0.8,0,1.7,0.4,2.4c0.2,0.4,0.6,0.6,1,0.6
	c0.4,0,0.9-0.2,1.1-0.6c0.3-0.8,0.4-1.6,0.4-2.4c0.1-0.9,0-1.7-0.4-2.5c-0.2-0.4-0.7-0.6-1.1-0.6c-0.4,0-0.7,0.2-0.9,0.5
	C49.1,150.8,48.9,151.7,49,152.6z"/>
<path class="st0" d="M53.8,150.6c0-0.5,0.1-1,0.4-1.4c0.2-0.4,0.6-0.5,1.1-0.5c0.4,0,0.8,0.2,1.1,0.5c0.3,0.4,0.4,0.9,0.4,1.4
	c0.1,0.5-0.1,1.1-0.4,1.5c-0.6,0.6-1.5,0.6-2.1,0.1c0,0,0,0,0,0l-0.1-0.1C53.9,151.7,53.7,151.1,53.8,150.6z M55.3,149.3
	c-0.2,0-0.4,0.1-0.5,0.3c-0.2,0.2-0.2,0.6-0.2,1.1c-0.1,0.3,0,0.7,0.2,1c0.1,0.2,0.3,0.3,0.5,0.3c0.2,0,0.4-0.1,0.6-0.3
	c0.1-0.3,0.2-0.7,0.2-1.1c0-0.3-0.1-0.7-0.2-1L55.3,149.3z M55.3,156.6l4-7.9H60l-3.9,7.9H55.3z M58.5,154.5c0-0.5,0.1-0.9,0.3-1.3
	c0.3-0.4,0.7-0.6,1.2-0.6c0.4,0,0.8,0.2,1.1,0.5c0.3,0.4,0.5,1,0.4,1.5c0,0.5-0.1,1-0.4,1.4c-0.4,0.6-1.3,0.8-1.9,0.4
	c-0.1-0.1-0.2-0.2-0.3-0.3C58.6,155.6,58.4,155.1,58.5,154.5z M60,153.3c-0.2,0-0.4,0-0.6,0.2c-0.1,0.3-0.2,0.7-0.2,1.1
	c0,0.3,0.1,0.7,0.2,1c0.2,0.2,0.4,0.3,0.6,0.3c0.2,0,0.4-0.1,0.5-0.3c0.2-0.2,0.2-0.5,0.2-1.1c0.1-0.3,0-0.7-0.2-1
	C60.4,153.3,60.2,153.3,60,153.3z"/>
<path class="st1" d="M39.3,153.2c0,1.6-1.3,2.9-2.9,2.9s-2.9-1.3-2.9-2.9s1.3-2.9,2.9-2.9h0C38,150.3,39.3,151.6,39.3,153.2"/>
<path class="st2" d="M36.4,150.3c1.6,0,2.9,1.3,2.9,2.9c0,1.6-1.3,2.9-2.9,2.9c-1.6,0-2.9-1.3-2.9-2.9l0,0l0,0
	C33.5,151.6,34.8,150.3,36.4,150.3z"/>
<path class="st0" d="M42.7,144.2h0.8c0.1,0.3,0.2,0.6,0.4,0.9c0.2,0.2,0.5,0.3,0.8,0.3l0.7-0.2c0.2-0.1,0.4-0.3,0.5-0.5
	c0.1-0.3,0.2-0.6,0.3-0.9c0.1-0.4,0.2-0.7,0.2-1.1v-0.2c-0.2,0.3-0.4,0.5-0.7,0.7c-0.3,0.2-0.6,0.3-0.9,0.3c-0.6,0-1.1-0.2-1.5-0.7
	c-0.4-0.5-0.7-1.1-0.6-1.8c0-0.7,0.2-1.3,0.6-1.8c0.8-0.8,2-0.9,2.9-0.3c0.4,0.2,0.7,0.6,0.8,1.1c0.2,0.7,0.3,1.4,0.3,2.1
	c0,0.8-0.1,1.5-0.2,2.3c-0.2,0.5-0.5,1-0.9,1.3c-0.4,0.3-0.9,0.4-1.4,0.4c-0.5,0-1-0.1-1.4-0.4C43,145.3,42.8,144.8,42.7,144.2z
	 M46.3,140.9c0-0.5-0.1-0.9-0.4-1.3c-0.3-0.3-0.6-0.4-1-0.4c-0.4,0-0.8,0.2-1,0.5c-0.3,0.4-0.5,0.8-0.4,1.3c0,0.4,0.1,0.8,0.4,1.1
	c0.2,0.3,0.6,0.5,1,0.5c0.4,0,0.8-0.2,1-0.5C46.2,141.7,46.3,141.3,46.3,140.9z"/>
<path class="st0" d="M48.2,139.4v-0.9h4.6v0.7c-0.6,0.6-1,1.3-1.4,2.1c-0.4,0.8-0.8,1.7-1,2.6c-0.2,0.6-0.3,1.3-0.3,2h-0.9
	c0-0.7,0.1-1.4,0.3-2.1c0.2-0.8,0.5-1.6,0.9-2.4c0.3-0.7,0.8-1.4,1.3-2L48.2,139.4z"/>
<path class="st0" d="M53.8,140.2c0-0.5,0.1-0.9,0.4-1.3c0.2-0.4,0.6-0.6,1.1-0.6c0.4,0,0.8,0.2,1.1,0.5c0.3,0.4,0.5,1,0.4,1.5
	c0,0.5-0.1,1.1-0.4,1.5c-0.6,0.6-1.5,0.6-2.1,0.1c0,0,0,0,0,0l-0.1-0.1C53.9,141.3,53.7,140.8,53.8,140.2z M55.3,139
	c-0.2,0-0.4,0.1-0.5,0.3c-0.2,0.1-0.2,0.5-0.2,1s0,0.8,0.2,1c0.1,0.2,0.3,0.3,0.5,0.3l0.6-0.3c0.1-0.3,0.2-0.7,0.2-1
	c0-0.4-0.1-0.8-0.2-1.1L55.3,139z M55.3,146.2l4-7.9H60l-4,7.9H55.3z M58.5,144.2c0-0.5,0.1-1,0.3-1.4c0.3-0.4,0.7-0.6,1.2-0.6
	c0.4,0,0.8,0.2,1.1,0.6c0.3,0.4,0.4,0.9,0.4,1.4c0.1,0.5-0.1,1.1-0.4,1.5c-0.3,0.3-0.7,0.5-1.1,0.5c-0.4,0-0.8-0.2-1.1-0.5
	C58.6,145.3,58.4,144.7,58.5,144.2z M60,142.9l-0.6,0.3c-0.2,0.3-0.2,0.7-0.2,1.1c0,0.3,0.1,0.7,0.2,1l0.6,0.3
	c0.2,0,0.4-0.1,0.5-0.3c0.2-0.2,0.2-0.6,0.2-1.1s0-0.8-0.2-1C60.4,143,60.2,142.9,60,142.9z"/>
<path class="st3" d="M39.3,142.9c-0.3,1.6-1.9,2.7-3.5,2.4c-1.6-0.3-2.7-1.9-2.4-3.5s1.9-2.7,3.5-2.4c1.2,0.2,2.2,1.2,2.4,2.4
	C39.4,142.2,39.4,142.5,39.3,142.9"/>
<path class="st2" d="M36.4,139.9c1.7-0.1,3,1.2,3.1,2.9c0.1,1.7-1.2,3-2.9,3.1c-1.7,0.1-3-1.2-3.1-2.9v-0.1c-0.1-1.6,1.2-2.9,2.8-3
	c0,0,0,0,0,0H36.4z"/>
<path class="st0" d="M77.9,139.4v-0.9h4.6v0.7c-0.5,0.6-1,1.3-1.3,2.1c-0.5,0.8-0.8,1.7-1,2.6c-0.2,0.7-0.3,1.3-0.4,2h-0.9
	c0-0.7,0.1-1.4,0.4-2.1c0.2-0.8,0.5-1.6,0.9-2.4c0.3-0.7,0.7-1.4,1.2-2L77.9,139.4z"/>
<path class="st0" d="M83.4,144h0.9c0,0.4,0.2,0.7,0.5,1c0.2,0.3,0.6,0.4,0.9,0.4c0.4,0,0.8-0.2,1.1-0.5c0.3-0.4,0.4-0.8,0.4-1.3
	c0-0.5-0.1-0.9-0.4-1.3c-0.3-0.3-0.7-0.4-1.1-0.4c-0.3,0-0.6,0-0.8,0.2l-0.5,0.5h-0.8l0.7-3.9h3.5v0.9H85l-0.4,2
	c0.4-0.3,0.8-0.4,1.3-0.4c0.6,0,1.2,0.2,1.6,0.6c0.4,0.5,0.6,1.1,0.6,1.8c0,0.6-0.2,1.2-0.5,1.7c-0.5,0.6-1.2,0.9-1.9,0.9
	c-0.6,0.1-1.2-0.1-1.6-0.5C83.7,145.2,83.4,144.6,83.4,144z"/>
<path class="st0" d="M89.1,140.2c0-0.5,0.1-0.9,0.4-1.3c0.2-0.4,0.6-0.6,1.1-0.6c0.4,0,0.8,0.2,1.1,0.5c0.3,0.4,0.5,1,0.4,1.5
	c0,0.5-0.1,1.1-0.4,1.5c-0.6,0.6-1.5,0.6-2.1,0.1c0,0,0,0,0,0l-0.1-0.1C89.2,141.3,89,140.8,89.1,140.2z M90.6,139
	c-0.2,0-0.4,0.1-0.5,0.3c-0.2,0.1-0.2,0.5-0.2,1s0,0.8,0.2,1c0.1,0.2,0.3,0.3,0.5,0.3l0.6-0.3c0.1-0.3,0.2-0.7,0.2-1
	c0-0.4-0.1-0.8-0.2-1.1L90.6,139z M90.6,146.2l4-7.9h0.7l-4,7.9H90.6z M93.8,144.2c0-0.5,0.1-1,0.3-1.4c0.3-0.4,0.7-0.6,1.2-0.6
	c0.4,0,0.8,0.2,1.1,0.6c0.3,0.4,0.4,0.9,0.4,1.4c0,0.5-0.1,1.1-0.4,1.5c-0.3,0.3-0.7,0.5-1.1,0.5c-0.4,0-0.8-0.2-1.1-0.5
	C93.9,145.3,93.7,144.7,93.8,144.2z M95.3,142.9l-0.6,0.3c-0.2,0.3-0.2,0.7-0.2,1.1c0,0.3,0.1,0.7,0.2,1l0.6,0.3
	c0.2,0,0.4-0.1,0.5-0.3c0.2-0.2,0.2-0.6,0.2-1.1s0-0.8-0.2-1C95.7,143,95.5,142.9,95.3,142.9z"/>
<path class="st4" d="M74.6,142.9c-0.3,1.6-1.9,2.7-3.5,2.4c-1.6-0.3-2.7-1.9-2.4-3.5s1.9-2.7,3.5-2.4c1.2,0.2,2.2,1.2,2.4,2.4
	C74.7,142.2,74.7,142.5,74.6,142.9"/>
<path class="st2" d="M71.7,139.9c1.7,0,3,1.3,3,3s-1.3,3-3,3s-3-1.3-3-3c-0.1-1.6,1.2-2.9,2.8-3c0,0,0,0,0,0H71.7z"/>
<path class="st2" d="M71.7,150.3c1.7,0,3,1.4,2.9,3c0,1.7-1.4,3-3,2.9c-1.7,0-3-1.4-2.9-3C68.7,151.6,70,150.3,71.7,150.3
	L71.7,150.3z"/>
<path class="st0" d="M77.9,154.3h0.9c0,0.4,0.1,0.8,0.4,1.1l0.9,0.3c0.4,0,0.8-0.1,1.1-0.5c0.3-0.4,0.5-0.8,0.4-1.3
	c0-0.4-0.1-0.9-0.4-1.2c-0.3-0.3-0.7-0.5-1.1-0.5l-0.7,0.2l-0.6,0.5H78l0.7-3.8h3.6v0.9h-2.9l-0.4,2c0.4-0.3,0.9-0.5,1.4-0.5
	c0.6,0,1.1,0.2,1.5,0.7c0.5,0.4,0.7,1.1,0.7,1.7c0,0.7-0.2,1.3-0.6,1.8c-0.4,0.6-1.2,0.9-1.9,0.9c-0.6,0-1.1-0.2-1.5-0.6
	C78.1,155.6,77.9,154.9,77.9,154.3z"/>
<path class="st0" d="M83.4,152.6c0-0.7,0.1-1.5,0.3-2.2c0.1-0.5,0.4-0.9,0.7-1.2c0.4-0.3,0.8-0.4,1.3-0.4c0.4,0,0.8,0,1.1,0.2
	l0.7,0.7c0.2,0.3,0.3,0.7,0.4,1.1c0.1,0.6,0.2,1.2,0.2,1.8c0,0.7-0.1,1.4-0.3,2.1c-0.1,0.5-0.4,1-0.8,1.3c-0.4,0.3-0.8,0.5-1.3,0.4
	c-0.6,0-1.2-0.3-1.6-0.8C83.5,154.7,83.3,153.7,83.4,152.6z M84.3,152.6c-0.1,0.8,0,1.7,0.4,2.4c0.2,0.4,0.6,0.6,1,0.6
	c0.4,0,0.9-0.2,1.1-0.6c0.3-0.8,0.4-1.6,0.4-2.4c0-0.9-0.1-1.7-0.4-2.5c-0.3-0.4-0.7-0.6-1.1-0.6c-0.4,0-0.7,0.2-0.9,0.5
	C84.4,150.8,84.2,151.7,84.3,152.6z"/>
<path class="st0" d="M89.1,150.6c0-0.5,0.1-1,0.4-1.4c0.2-0.4,0.6-0.5,1.1-0.5c0.4,0,0.8,0.2,1.1,0.5c0.3,0.4,0.4,0.9,0.4,1.4
	c0.1,0.5-0.1,1.1-0.4,1.5c-0.6,0.6-1.5,0.6-2.1,0.1c0,0,0,0,0,0l-0.1-0.1C89.2,151.7,89,151.1,89.1,150.6z M90.6,149.3
	c-0.2,0-0.4,0.1-0.5,0.3c-0.2,0.2-0.2,0.6-0.2,1.1c-0.1,0.3,0,0.7,0.2,1c0.1,0.2,0.3,0.3,0.5,0.3c0.2,0,0.4-0.1,0.6-0.3
	c0.1-0.3,0.2-0.7,0.2-1.1c0-0.3-0.1-0.7-0.2-1L90.6,149.3z M90.6,156.6l4-7.9h0.7l-4,7.9H90.6z M93.8,154.5c0-0.5,0.1-0.9,0.3-1.3
	c0.3-0.4,0.7-0.6,1.2-0.6c0.4,0,0.8,0.2,1.1,0.5c0.3,0.4,0.5,1,0.4,1.5c0,0.5-0.1,1-0.4,1.4c-0.3,0.4-0.7,0.6-1.1,0.6
	c-0.4,0-0.9-0.2-1.1-0.6C93.9,155.6,93.7,155,93.8,154.5z M95.3,153.2l-0.6,0.3c-0.1,0.3-0.2,0.7-0.2,1.1c0,0.3,0.1,0.7,0.2,1
	c0.2,0.2,0.4,0.3,0.6,0.3c0.2,0,0.4-0.1,0.5-0.3c0.2-0.2,0.2-0.5,0.2-1.1c0.1-0.3,0-0.7-0.2-1C95.7,153.3,95.5,153.2,95.3,153.2z"/>
<path class="st0" d="M42.8,125.5v-5.4h0.8v0.7c0.3-0.6,0.9-0.9,1.6-0.9l0.9,0.2l0.6,0.5c0.1,0.2,0.2,0.5,0.2,0.7
	c0.1,0.1,0.1,0.4,0.1,0.9v3.3h-0.9v-3.3c0-0.4,0-0.7-0.1-0.8c-0.1-0.2-0.2-0.4-0.4-0.5l-0.6-0.2c-0.3,0-0.7,0.2-0.9,0.4
	c-0.3,0.4-0.5,0.9-0.4,1.4v3L42.8,125.5z"/>
<path class="st0" d="M51.7,125.5v-0.8c-0.3,0.6-0.9,0.9-1.6,0.9c-0.3,0-0.6,0-0.9-0.2l-0.6-0.4c-0.1-0.2-0.2-0.5-0.2-0.7
	c-0.1-0.3-0.1-0.6-0.1-0.9v-3.3h0.9v3c0,0.5,0,0.8,0.1,0.9c0,0.2,0.1,0.5,0.3,0.6c0.2,0.2,0.4,0.3,0.7,0.2c0.3,0,0.5,0,0.7-0.2
	c0.2-0.1,0.4-0.3,0.5-0.6c0.1-0.3,0.1-0.7,0.1-1v-2.9h0.9v5.4H51.7z"/>
<path class="st0" d="M57.3,123.5h0.8c0,0.6-0.3,1.1-0.7,1.5c-0.4,0.3-0.9,0.5-1.4,0.5c-0.6,0-1.3-0.2-1.7-0.7
	c-0.5-0.6-0.7-1.3-0.7-2.1c0-0.5,0.1-1,0.3-1.5c0.2-0.4,0.5-0.8,0.9-1c0.4-0.3,0.8-0.4,1.2-0.4c1,0,1.9,0.8,2,1.8h-0.8
	c0-0.3-0.2-0.6-0.5-0.8c-0.2-0.2-0.4-0.3-0.7-0.3c-0.4,0-0.8,0.2-1,0.5c-0.4,0.5-0.5,1-0.5,1.6c0,0.6,0.1,1.1,0.4,1.6
	c0.3,0.3,0.7,0.5,1.1,0.5c0.3,0,0.6-0.1,0.8-0.4C57,124.1,57.2,123.8,57.3,123.5z"/>
<path class="st0" d="M58.8,125.5V118h0.9v7.5H58.8z"/>
<path class="st0" d="M64.7,123.7l0.9,0.2c-0.2,0.5-0.5,0.9-0.8,1.3c-0.4,0.3-1,0.4-1.5,0.4c-0.7,0.1-1.3-0.2-1.8-0.7
	c-0.9-1.2-0.9-3,0-4.2c0.8-0.9,2.2-1.1,3.1-0.3c0,0,0,0,0,0c0.1,0.1,0.2,0.2,0.3,0.3c0.5,0.6,0.8,1.3,0.7,2.1v0.2h-3.9
	c0,0.5,0.2,1,0.5,1.4c0.3,0.3,0.7,0.5,1.1,0.5c0.3,0,0.6-0.1,0.8-0.3C64.4,124.4,64.6,124,64.7,123.7z M61.7,122.3h3
	c-0.1-0.4-0.2-0.8-0.4-1.1c-0.6-0.6-1.5-0.6-2.1-0.1C61.9,121.4,61.7,121.8,61.7,122.3z"/>
<path class="st0" d="M66.3,122.8c0-0.8,0.2-1.7,0.8-2.3c0.4-0.4,1-0.6,1.6-0.6c0.7,0,1.3,0.3,1.8,0.8c0.4,0.6,0.6,1.3,0.6,2
	c0,0.6-0.1,1.2-0.3,1.7c-0.2,0.4-0.4,0.7-0.8,0.9c-0.4,0.2-0.8,0.3-1.3,0.3c-0.6,0-1.3-0.2-1.7-0.7
	C66.5,124.3,66.2,123.6,66.3,122.8z M67.2,122.8c-0.1,0.5,0.1,1.1,0.4,1.5c0.3,0.4,0.7,0.6,1.1,0.6c0.4,0,0.9-0.2,1.1-0.6
	c0.3-0.4,0.5-1,0.4-1.5c0.1-0.6-0.1-1.1-0.4-1.6c-0.3-0.3-0.7-0.5-1.1-0.5c-0.4,0-0.8,0.2-1.1,0.5C67.3,121.7,67.1,122.2,67.2,122.8
	z"/>
<path class="st0" d="M74.1,124.7v0.8h-0.6l-0.8-0.2c-0.2-0.1-0.3-0.2-0.4-0.4c-0.1-0.4-0.1-0.7-0.1-1.1v-3.1h-0.6V120h0.6v-1.4
	l0.9-0.5v1.9H74v0.7h-0.9v3.3c0,0.2,0,0.4,0.1,0.5H74L74.1,124.7z"/>
<path class="st0" d="M75,119v-1h0.9v1H75z M75,125.5v-5.4h0.9v5.4H75z"/>
<path class="st0" d="M80.5,125.5v-0.7c-0.2,0.5-0.8,0.9-1.4,0.8c-0.4,0-0.8-0.1-1.2-0.3c-0.7-0.6-1.2-1.5-1.1-2.5
	c0-0.5,0.1-1,0.3-1.5c0.1-0.4,0.4-0.8,0.8-1c0.3-0.2,0.7-0.4,1.1-0.4l0.9,0.2l0.5,0.6V118h0.9v7.5H80.5z M77.7,122.8
	c0,0.5,0.1,1.1,0.5,1.5c0.2,0.3,0.5,0.6,0.9,0.6c0.4,0,0.8-0.2,1-0.5c0.3-0.4,0.4-1,0.4-1.5c0.1-0.6-0.1-1.2-0.4-1.7
	c-0.4-0.5-1.1-0.7-1.7-0.3c-0.1,0.1-0.3,0.2-0.3,0.3C77.8,121.7,77.7,122.2,77.7,122.8z"/>
<path class="st0" d="M86.3,123.7l0.9,0.2c-0.1,0.5-0.4,0.9-0.8,1.3c-0.4,0.3-1,0.4-1.5,0.4c-0.7,0.1-1.3-0.2-1.8-0.7
	c-0.9-1.2-0.9-3,0-4.2c0.8-0.9,2.2-1.1,3.1-0.3c0,0,0,0,0,0c0.1,0.1,0.2,0.2,0.3,0.3c0.5,0.6,0.8,1.3,0.7,2.1v0.2h-3.9
	c0,0.5,0.2,1,0.5,1.4c0.3,0.3,0.7,0.5,1.1,0.5c0.3,0,0.6-0.1,0.8-0.3C86,124.4,86.2,124.1,86.3,123.7z M83.3,122.3h3
	c0-0.4-0.1-0.8-0.3-1.1c-0.3-0.3-0.7-0.5-1.2-0.5c-0.4,0-0.7,0.1-1,0.4C83.5,121.4,83.3,121.9,83.3,122.3z"/>
<path class="st0" d="M49.1,137.5V130h0.8v0.7c0.1-0.3,0.3-0.5,0.6-0.6c0.2-0.2,0.5-0.2,0.9-0.2c0.4,0,0.8,0.1,1.1,0.3
	c0.3,0.3,0.6,0.6,0.8,1c0.4,1,0.4,2,0,3c-0.2,0.4-0.5,0.8-0.9,1c-0.3,0.2-0.7,0.4-1.1,0.4l-0.8-0.2l-0.6-0.5v2.6H49.1z M49.8,132.7
	c0,0.6,0.1,1.1,0.4,1.6c0.2,0.3,0.6,0.5,1,0.5c0.4,0,0.8-0.2,1-0.5c0.7-1,0.7-2.2,0-3.2c-0.2-0.3-0.5-0.5-0.9-0.5
	c-0.4,0-0.8,0.2-1,0.5C50,131.6,49.8,132.1,49.8,132.7z"/>
<path class="st0" d="M54.6,135.4V130h0.8v0.8c0.1-0.3,0.3-0.5,0.6-0.7c0.1-0.2,0.3-0.2,0.5-0.2l0.9,0.3l-0.3,0.8l-0.6-0.2L56,131
	c-0.2,0.1-0.3,0.3-0.4,0.5c0,0.4-0.1,0.7-0.1,1.1v2.8L54.6,135.4z"/>
<path class="st0" d="M61.5,133.7h0.9c-0.2,0.5-0.4,0.9-0.8,1.3c-0.4,0.3-1,0.5-1.5,0.5c-0.7,0-1.4-0.3-1.8-0.8
	c-0.5-0.5-0.8-1.3-0.7-2c-0.1-0.8,0.2-1.6,0.7-2.2c0.9-0.9,2.5-0.9,3.4,0l0,0c0.5,0.6,0.8,1.3,0.7,2.1v0.3h-3.9c0,0.5,0.2,1,0.5,1.3
	c0.3,0.3,0.7,0.5,1.1,0.5c0.3,0,0.6-0.1,0.8-0.3C61.2,134.4,61.3,134.1,61.5,133.7z M58.5,132.2h3c0-0.4-0.2-0.7-0.4-1
	c-0.2-0.4-0.6-0.6-1.1-0.6c-0.4,0-0.8,0.2-1,0.5C58.7,131.4,58.5,131.8,58.5,132.2z"/>
<path class="st0" d="M63.1,133.8H64c0.2,0.7,0.9,1.2,1.7,1c0.2,0,0.4-0.1,0.5-0.2c0.2-0.1,0.3-0.4,0.3-0.6c0-0.2-0.1-0.3-0.3-0.5
	l-0.9-0.3l-1.3-0.4l-0.6-0.5c-0.1-0.3-0.1-0.5-0.1-0.8c0-0.2,0-0.4,0.1-0.6l0.4-0.5l0.6-0.3h0.7c0.4,0,0.8,0,1.1,0.2
	c0.3,0.1,0.5,0.3,0.7,0.5l0.3,0.8h-0.9c0-0.2-0.1-0.5-0.3-0.6c-0.2-0.2-0.5-0.3-0.8-0.3l-0.9,0.2c-0.1,0.2-0.2,0.3-0.2,0.5
	c0,0.2,0,0.3,0.1,0.4l0.3,0.2l0.8,0.2l1.3,0.5c0.2,0.1,0.5,0.3,0.6,0.5c0.1,0.2,0.2,0.5,0.2,0.7c0,0.3-0.1,0.6-0.3,0.9
	c-0.1,0.3-0.4,0.5-0.7,0.6c-0.3,0.2-0.7,0.3-1.1,0.3c-0.5,0-1.1-0.1-1.5-0.5C63.4,134.8,63.1,134.3,63.1,133.8z"/>
<path class="st0" d="M72,133.7h0.9c-0.1,0.5-0.4,1-0.8,1.3c-0.4,0.3-1,0.5-1.5,0.5c-0.7,0-1.4-0.3-1.8-0.8c-0.5-0.6-0.7-1.3-0.7-2
	c0-0.8,0.2-1.6,0.7-2.2c0.5-0.5,1.1-0.7,1.8-0.7c0.6,0,1.3,0.2,1.7,0.7c0.4,0.6,0.6,1.4,0.6,2.1v0.3H69c0,0.5,0.2,0.9,0.5,1.3
	c0.3,0.3,0.7,0.5,1.1,0.5l0.9-0.3C71.8,134.2,71.9,134,72,133.7z M69.1,132.2H72c0-0.4-0.1-0.7-0.3-1c-0.3-0.4-0.7-0.6-1.1-0.6
	c-0.4,0-0.8,0.2-1.1,0.5C69.2,131.4,69,131.8,69.1,132.2z"/>
<path class="st0" d="M74,135.4V130h0.8v0.8c0.3-0.6,0.9-0.9,1.6-0.9c0.3,0,0.6,0,0.9,0.2c0.2,0.1,0.4,0.2,0.5,0.4
	c0.2,0.2,0.3,0.4,0.3,0.7c0,0.2,0.1,0.5,0.1,0.9v3.3h-0.9v-3.3c0-0.3-0.1-0.6-0.1-0.8l-0.4-0.5h-0.6c-0.4,0-0.7,0.1-1,0.4
	c-0.3,0.4-0.4,0.9-0.4,1.4v2.9L74,135.4z"/>
<path class="st0" d="M81.4,134.6v0.8h-1.3c-0.2-0.1-0.3-0.3-0.3-0.5c-0.2-0.3-0.2-0.7-0.2-1v-3.2H79V130h0.6v-1.3l0.9-0.6v1.9h0.9
	v0.7h-0.9v3.2c0,0.3,0,0.4,0.1,0.5v0.2L81.4,134.6L81.4,134.6z"/>
<path class="st0" d="M42.5,183v-5.4h0.8v0.8c0.3-0.6,0.9-0.9,1.6-0.9h0.9l0.5,0.5c0.2,0.2,0.3,0.4,0.3,0.7c0,0.2,0.1,0.5,0.1,0.9
	v3.4h-0.9v-3.3c0-0.4-0.1-0.6-0.1-0.8c-0.1-0.2-0.2-0.4-0.4-0.5h-0.6c-0.4,0-0.7,0.1-1,0.3c-0.3,0.4-0.4,1-0.4,1.5v2.8H42.5z"/>
<path class="st0" d="M51.4,183v-0.8c-0.3,0.6-0.9,0.9-1.6,0.9h-0.9c-0.3-0.2-0.5-0.3-0.6-0.5l-0.3-0.7v-4.2h0.9v4
	c0.1,0.2,0.2,0.4,0.4,0.5c0.2,0.2,0.4,0.2,0.6,0.2c0.5,0,1-0.2,1.3-0.7c0.1-0.4,0.1-0.7,0.1-1.1v-2.9h0.9v5.3H51.4z"/>
<path class="st0" d="M56.9,181l0.9,0.2c0,0.5-0.3,1-0.7,1.4c-0.4,0.4-1,0.5-1.5,0.5c-0.6,0-1.2-0.2-1.6-0.7
	c-0.5-0.6-0.8-1.3-0.7-2.1c0-0.5,0.1-1,0.3-1.5c0.2-0.4,0.4-0.8,0.8-1c0.4-0.2,0.8-0.3,1.3-0.3c1-0.1,1.9,0.7,2,1.7h-0.9
	c0-0.3-0.2-0.6-0.4-0.8c-0.2-0.2-0.4-0.3-0.7-0.3c-0.4,0-0.8,0.2-1.1,0.5c-0.3,0.5-0.5,1-0.4,1.6c-0.1,0.6,0.1,1.1,0.4,1.6
	c0.2,0.3,0.6,0.5,1,0.5c0.3,0,0.7-0.1,0.9-0.3C56.7,181.7,56.9,181.4,56.9,181z"/>
<path class="st0" d="M58.5,183v-7.5h0.9v7.5H58.5z"/>
<path class="st0" d="M64.3,181.3h0.9c-0.1,0.5-0.4,1-0.8,1.3c-1,0.6-2.4,0.5-3.3-0.3c-0.8-1.3-0.8-2.9,0-4.2
	c0.5-0.5,1.1-0.7,1.8-0.7c0.6,0,1.3,0.2,1.7,0.7c0.5,0.6,0.7,1.3,0.7,2.1v0.2h-3.9c0,0.5,0.2,1,0.5,1.4c0.3,0.3,0.7,0.5,1.1,0.5
	c0.3,0,0.6-0.1,0.8-0.3C64,181.8,64.2,181.6,64.3,181.3z M61.4,179.8h3c0-0.4-0.2-0.7-0.4-1c-0.2-0.4-0.7-0.6-1.1-0.6
	c-0.4,0-0.7,0.1-1,0.4C61.6,178.9,61.4,179.3,61.4,179.8z"/>
<path class="st0" d="M66,180.3c-0.1-0.8,0.2-1.6,0.8-2.2c0.4-0.4,1-0.6,1.6-0.6c0.6,0,1.3,0.2,1.7,0.7c0.5,0.5,0.8,1.3,0.7,2
	c0,0.6-0.1,1.2-0.3,1.7c-0.2,0.4-0.5,0.7-0.9,0.9c-1,0.5-2.2,0.4-3-0.4C66.2,181.8,66,181,66,180.3z M66.9,180.3
	c-0.1,0.6,0.1,1.1,0.4,1.6c0.6,0.6,1.5,0.6,2.1,0.1c0,0,0,0,0,0l0.1-0.1c0.5-1,0.5-2.2,0-3.2c-0.6-0.6-1.5-0.6-2.1-0.1c0,0,0,0,0,0
	l-0.1,0.1C67,179.2,66.8,179.7,66.9,180.3z"/>
<path class="st0" d="M73.8,182.2v0.8h-0.7l-0.7-0.2c-0.2-0.1-0.3-0.2-0.4-0.4c-0.1-0.4-0.1-0.7-0.1-1.1v-3.1h-0.6v-0.7H72v-1.4
	l0.9-0.5v1.9h0.9v0.7h-0.9v3.8l0.2,0.2H73.8z"/>
<path class="st0" d="M74.7,176.6v-1.1h0.8v1.1H74.7z M74.7,183v-5.4h0.8v5.4H74.7z"/>
<path class="st0" d="M80.2,183v-0.7c-0.3,0.6-0.9,0.9-1.5,0.8c-0.4,0-0.8-0.1-1.1-0.3c-0.3-0.3-0.6-0.6-0.8-1
	c-0.2-0.5-0.3-1-0.3-1.5c0-0.5,0.1-1,0.3-1.5c0.1-0.4,0.4-0.7,0.7-1c0.4-0.2,0.8-0.3,1.2-0.3c0.3,0,0.6,0,0.8,0.2
	c0.3,0.1,0.5,0.3,0.6,0.5v-2.7H81v7.5H80.2z M77.4,180.3c-0.1,0.6,0.1,1.1,0.4,1.6c0.5,0.6,1.3,0.6,1.8,0.2c0.1-0.1,0.1-0.1,0.2-0.2
	c0.3-0.4,0.5-1,0.4-1.5c0.1-0.6-0.1-1.2-0.4-1.7c-0.5-0.6-1.3-0.6-1.8-0.2c-0.1,0.1-0.1,0.1-0.2,0.2
	C77.5,179.2,77.3,179.7,77.4,180.3z"/>
<path class="st0" d="M86,181.3h0.8c-0.1,0.5-0.4,1-0.8,1.3c-0.4,0.3-0.9,0.4-1.4,0.4c-0.7,0.1-1.3-0.2-1.8-0.7c-0.9-1.2-0.9-3,0-4.2
	c0.9-0.9,2.5-0.9,3.4,0l0,0c0.5,0.6,0.8,1.3,0.7,2.1v0.2H83c0,0.5,0.2,1,0.5,1.4c0.3,0.3,0.7,0.5,1.1,0.5c0.3,0,0.6-0.1,0.8-0.3
	C85.6,181.8,85.8,181.6,86,181.3z M83,179.8h3c0-0.4-0.2-0.7-0.4-1c-0.2-0.4-0.7-0.6-1.1-0.6c-0.4,0-0.7,0.2-1,0.4
	C83.2,178.9,83,179.3,83,179.8z"/>
<path class="st0" d="M48.8,186.5v-1h0.9v1H48.8z M48.8,193v-5.5h0.9v5.5H48.8z"/>
<path class="st0" d="M54.3,193v-0.7c-0.3,0.5-0.8,0.8-1.4,0.8c-0.4,0-0.9-0.1-1.2-0.4c-0.3-0.3-0.6-0.6-0.8-1c-0.4-0.9-0.4-2,0-2.9
	c0.1-0.4,0.4-0.8,0.8-1c0.3-0.3,0.7-0.4,1.1-0.4l0.9,0.2l0.6,0.5v-2.6h0.8v7.5H54.3z M51.5,190.2c0,0.6,0.1,1.1,0.5,1.6
	c0.2,0.3,0.6,0.5,1,0.5c0.4,0,0.7-0.2,0.9-0.5c0.3-0.4,0.5-1,0.4-1.5c0.1-0.6-0.1-1.1-0.4-1.6c-0.2-0.4-0.6-0.6-1-0.5
	c-0.4,0-0.8,0.2-1,0.5C51.6,189.1,51.5,189.7,51.5,190.2z"/>
<path class="st0" d="M60.1,191.2H61c-0.1,0.5-0.4,1-0.8,1.3c-0.4,0.3-1,0.5-1.5,0.5c-0.7,0-1.4-0.3-1.8-0.8c-0.5-0.5-0.8-1.3-0.7-2
	c-0.1-0.8,0.2-1.5,0.7-2.1c0.4-0.5,1-0.8,1.7-0.8c0.6,0,1.3,0.2,1.7,0.7c0.5,0.6,0.8,1.3,0.7,2.1v0.3h-3.9c0,0.5,0.2,0.9,0.5,1.3
	c0.3,0.3,0.7,0.5,1.1,0.5l0.8-0.2C59.8,191.8,60,191.5,60.1,191.2z M57.1,189.7h3c0-0.4-0.1-0.7-0.3-1c-0.3-0.3-0.7-0.5-1.1-0.5
	c-0.4,0-0.8,0.1-1.1,0.4C57.3,188.9,57.1,189.3,57.1,189.7z"/>
<path class="st0" d="M62.1,193v-5.5h0.8v0.8c0.3-0.6,0.9-0.9,1.6-0.9l0.8,0.2c0.2,0,0.5,0.2,0.6,0.4c0.2,0.2,0.2,0.5,0.3,0.7v4.3
	h-0.9v-3.4c0-0.3,0-0.5-0.1-0.8c0-0.2-0.1-0.3-0.3-0.4l-0.6-0.2c-0.4,0-0.7,0.1-1,0.4c-0.3,0.4-0.4,0.9-0.4,1.4v3H62.1z"/>
<path class="st0" d="M69.5,192.1v0.9h-1.3c-0.2-0.1-0.3-0.3-0.4-0.4c-0.1-0.4-0.1-0.7-0.1-1.1v-3.2h-0.6v-0.7h0.6v-1.3l0.9-0.6v1.9
	h0.9v0.7h-0.9v3.2c0,0.3,0,0.4,0.1,0.5v0.2h0.7L69.5,192.1z"/>
<path class="st0" d="M70.4,186.5v-1h0.9v1H70.4z M70.4,193v-5.5h0.9v5.5H70.4z"/>
<path class="st0" d="M74.5,192.1v0.9h-1.3c-0.2-0.1-0.3-0.3-0.4-0.4c-0.1-0.4-0.1-0.7-0.1-1.1v-3.2h-0.6v-0.7h0.6v-1.3l0.9-0.6v1.9
	h0.9v0.7h-0.9v3.7l0.2,0.2L74.5,192.1L74.5,192.1z"/>
<path class="st0" d="M75.4,195l-0.2-0.8h1l0.3-0.3c0.2-0.2,0.3-0.4,0.3-0.7V193l-2-5.5h1l1.1,3.2l0.3,1.2c0.1-0.4,0.2-0.8,0.4-1.2
	l1.1-3.2h0.9l-2,5.6l-0.5,1.2c-0.1,0.3-0.3,0.5-0.5,0.6c-0.2,0.2-0.5,0.3-0.8,0.3L75.4,195z"/>
<path class="st0" d="M62.7,221v-0.9h4.6v0.7c-0.5,0.7-1,1.4-1.4,2.1c-0.4,0.8-0.7,1.7-1,2.6c-0.2,0.6-0.3,1.3-0.3,2h-0.9
	c0-0.7,0.1-1.4,0.3-2.1c0.2-0.8,0.5-1.6,0.9-2.4c0.3-0.7,0.8-1.4,1.3-2L62.7,221z"/>
<path class="st0" d="M68.2,225.6h0.9c0,0.4,0.1,0.7,0.4,1c0.2,0.3,0.6,0.4,0.9,0.4c0.4,0,0.8-0.2,1.1-0.5c0.5-0.8,0.5-1.8,0-2.6
	c-0.3-0.3-0.7-0.5-1.1-0.4c-0.3-0.1-0.5,0-0.7,0.2c-0.3,0.1-0.4,0.3-0.6,0.5h-0.8l0.7-3.9h3.5v0.9h-2.8l-0.4,2
	c0.4-0.3,0.9-0.4,1.4-0.4c0.6,0,1.1,0.2,1.5,0.6c0.5,0.5,0.7,1.1,0.7,1.8c0,0.6-0.2,1.2-0.6,1.7c-0.4,0.6-1.2,0.9-1.9,0.9
	c-0.5,0-1.1-0.1-1.5-0.5C68.4,226.9,68.2,226.2,68.2,225.6z"/>
<path class="st0" d="M73.8,221.8c0-0.5,0.1-0.9,0.4-1.3c0.3-0.4,0.7-0.6,1.1-0.6c0.5,0,0.9,0.2,1.2,0.5c0.3,0.4,0.4,1,0.4,1.5
	c0,0.5-0.2,1.1-0.5,1.5c-0.2,0.3-0.6,0.5-1,0.5c-0.4,0-0.8-0.2-1.1-0.5C74,222.9,73.8,222.4,73.8,221.8z M75.4,220.6
	c-0.2,0-0.5,0.1-0.6,0.3c-0.2,0.3-0.2,0.7-0.2,1c0,0.3,0.1,0.7,0.2,1l0.6,0.3c0.2,0,0.4-0.1,0.5-0.3c0.2-0.2,0.2-0.5,0.2-1
	s0-0.9-0.2-1C75.8,220.7,75.6,220.6,75.4,220.6z M75.4,227.8l3.9-7.9H80l-3.9,7.9H75.4z M78.5,225.8c0-0.5,0.1-1,0.4-1.4
	c0.2-0.4,0.6-0.5,1.1-0.5c0.4,0,0.8,0.2,1.1,0.5c0.3,0.4,0.4,0.9,0.4,1.4c0.1,0.5-0.1,1.1-0.4,1.5c-0.6,0.6-1.5,0.6-2.1,0.1
	c0,0,0,0,0,0l-0.1-0.1C78.6,226.9,78.4,226.3,78.5,225.8z M80,224.5c-0.2,0-0.4,0.1-0.5,0.3c-0.2,0.2-0.2,0.5-0.2,1.1
	c-0.1,0.3,0,0.7,0.2,1c0.1,0.2,0.3,0.3,0.5,0.3l0.6-0.3c0.1-0.3,0.2-0.7,0.2-1.1c0-0.3-0.1-0.7-0.2-1
	C80.4,224.6,80.2,224.5,80,224.5z"/>
<path class="st5" d="M42,227.5V220h1l3.7,5.9V220h0.9v7.5h-0.9l-3.8-5.9v5.9H42z"/>
<path class="st6" d="M42,206.4v-7.5h1l3.7,5.9v-5.9h0.9v7.5h-0.9l-3.8-5.9v5.9H42z"/>
<path class="st0" d="M62.7,204.6h0.9c0,0.3,0.2,0.7,0.4,0.9c0.2,0.2,0.4,0.2,0.8,0.2h0.7l0.5-0.6l0.3-0.8c0.1-0.4,0.1-0.8,0.1-1.2
	l0,0l-0.7,0.7c-0.3,0.2-0.7,0.2-1,0.2c-0.6,0-1.1-0.2-1.5-0.6c-0.4-0.5-0.6-1.1-0.6-1.8c-0.1-0.7,0.2-1.3,0.7-1.8
	c0.4-0.5,1-0.7,1.6-0.7c0.4,0,0.9,0.1,1.2,0.4c0.4,0.2,0.7,0.6,0.9,1.1c0.2,0.7,0.3,1.4,0.3,2.1c0,0.8-0.1,1.6-0.3,2.3
	c-0.2,0.5-0.5,1-0.9,1.3c-0.4,0.3-0.9,0.4-1.4,0.4c-0.5,0-0.9-0.2-1.3-0.5C62.9,205.8,62.7,205.2,62.7,204.6z M66.3,201.3
	c0-0.4-0.1-0.9-0.4-1.2c-0.2-0.3-0.5-0.5-0.9-0.5c-0.4,0-0.8,0.2-1.1,0.5c-0.2,0.4-0.4,0.8-0.4,1.3c0,0.4,0.1,0.9,0.4,1.2
	c0.3,0.3,0.6,0.4,1,0.4c0.4,0,0.7-0.1,1-0.4C66.2,202.2,66.4,201.8,66.3,201.3z"/>
<path class="st0" d="M68.2,199.9V199h4.6v0.7c-0.5,0.6-0.9,1.3-1.3,2c-0.5,0.8-0.8,1.7-1,2.6c-0.2,0.7-0.3,1.4-0.4,2.1h-0.9
	c0-0.8,0.1-1.5,0.4-2.2c0.2-0.8,0.5-1.6,0.9-2.4c0.4-0.7,0.8-1.3,1.2-1.9L68.2,199.9z"/>
<path class="st0" d="M73.8,200.7c0-0.5,0.2-1,0.4-1.4c0.6-0.6,1.6-0.7,2.2-0.1c0,0,0.1,0.1,0.1,0.1c0.3,0.4,0.4,0.9,0.4,1.4
	c0,0.5-0.1,1.1-0.5,1.5c-0.2,0.3-0.6,0.5-1,0.5c-0.4,0-0.8-0.1-1.1-0.5C73.9,201.8,73.8,201.2,73.8,200.7z M75.4,199.4
	c-0.2,0-0.5,0.1-0.6,0.3c-0.1,0.3-0.2,0.7-0.2,1.1c0,0.3,0.1,0.7,0.2,1l0.6,0.3c0.2,0,0.4-0.1,0.5-0.3c0.2-0.2,0.2-0.6,0.2-1.1
	s0-0.8-0.2-1C75.8,199.5,75.6,199.4,75.4,199.4z M75.4,206.7l3.9-7.9H80l-3.9,7.9H75.4z M78.5,204.6c0-0.5,0.1-0.9,0.4-1.3
	c0.2-0.4,0.6-0.6,1.1-0.6c0.4,0,0.8,0.2,1.1,0.5c0.3,0.4,0.5,1,0.4,1.5c0,0.5-0.1,1.1-0.4,1.5c-0.6,0.6-1.5,0.6-2.1,0.1c0,0,0,0,0,0
	l-0.1-0.1C78.6,205.7,78.4,205.2,78.5,204.6L78.5,204.6z M80,203.4c-0.2,0-0.4,0.1-0.5,0.3c-0.2,0.1-0.2,0.5-0.2,1s0,0.8,0.2,1
	c0.1,0.2,0.3,0.3,0.5,0.3c0.2,0,0.4-0.1,0.6-0.3c0.1-0.3,0.2-0.7,0.2-1c0-0.4-0.1-0.8-0.2-1.1L80,203.4z"/>
<path class="st0" d="M42,217v-7.5h1l3.7,5.9v-5.9h0.9v7.5h-0.9l-3.8-5.9v5.9H42z"/>
<path class="st0" d="M62.7,215.2h0.9c0,0.3,0.1,0.7,0.4,0.9c0.4,0.4,1,0.4,1.5,0.1c0.2-0.1,0.3-0.3,0.5-0.5c0.1-0.3,0.2-0.6,0.3-0.9
	c0.1-0.4,0.1-0.7,0.1-1.1v-0.2c-0.2,0.3-0.4,0.5-0.7,0.7c-0.3,0.2-0.6,0.3-1,0.3c-0.6,0-1.1-0.2-1.5-0.7c-0.4-0.5-0.6-1.1-0.6-1.7
	c0-0.7,0.2-1.4,0.7-1.9c0.4-0.4,1-0.7,1.6-0.7c0.4,0,0.8,0.2,1.2,0.4c0.4,0.3,0.7,0.7,0.9,1.1c0.2,0.7,0.3,1.4,0.3,2.1
	c0,0.8-0.1,1.6-0.3,2.3c-0.2,0.5-0.5,1-0.9,1.3c-0.4,0.3-0.9,0.5-1.4,0.5c-0.5,0-0.9-0.2-1.3-0.5C63,216.3,62.7,215.8,62.7,215.2z
	 M66.3,211.9c0-0.4-0.1-0.9-0.4-1.2c-0.2-0.3-0.5-0.5-0.9-0.5c-0.4,0-0.8,0.2-1.1,0.5c-0.3,0.4-0.4,0.8-0.4,1.3
	c0,0.4,0.1,0.9,0.4,1.2c0.3,0.3,0.6,0.4,1,0.4c0.4,0,0.7-0.1,1-0.4C66.2,212.8,66.3,212.4,66.3,211.9z"/>
<path class="st0" d="M68.2,213.3c0-0.7,0-1.5,0.2-2.2c0.2-0.4,0.5-0.9,0.8-1.2c0.4-0.3,0.8-0.5,1.3-0.5c0.4,0,0.7,0.1,1,0.3
	c0.3,0.2,0.5,0.4,0.7,0.7c0.2,0.3,0.4,0.7,0.5,1.1c0.1,0.6,0.1,1.2,0.1,1.8c0,0.7-0.1,1.4-0.2,2.1c-0.2,0.5-0.4,0.9-0.8,1.2
	c-0.8,0.7-2.1,0.6-2.8-0.2c0,0-0.1-0.1-0.1-0.1C68.3,215.4,68.1,214.4,68.2,213.3z M69.1,213.3c-0.1,0.8,0,1.7,0.4,2.4
	c0.2,0.4,0.6,0.6,1,0.6c0.4,0,0.8-0.2,1-0.6c0.4-0.7,0.5-1.6,0.4-2.4c0.1-0.9,0-1.7-0.4-2.5c-0.2-0.4-0.6-0.6-1-0.6
	c-0.4,0-0.8,0.2-1,0.5C69.2,211.5,69,212.4,69.1,213.3z"/>
<path class="st0" d="M73.8,211.3c0-0.5,0.1-1,0.4-1.4c0.3-0.4,0.7-0.6,1.1-0.6c0.5,0,0.9,0.2,1.2,0.5c0.3,0.5,0.4,1,0.4,1.5
	c0,0.5-0.2,1.1-0.5,1.5c-0.2,0.3-0.6,0.5-1,0.5c-0.4,0-0.8-0.2-1.1-0.5C74,212.4,73.8,211.8,73.8,211.3z M75.4,210
	c-0.2,0-0.5,0.1-0.6,0.3c-0.2,0.3-0.2,0.7-0.2,1.1c0,0.3,0.1,0.7,0.2,1l0.6,0.2l0.5-0.2c0.2-0.2,0.2-0.6,0.2-1.1s0-0.8-0.2-1
	C75.8,210.1,75.6,210,75.4,210z M75.4,217.2l3.9-7.9H80l-3.9,7.9H75.4z M78.5,215.2c0-0.5,0.1-1,0.4-1.4c0.5-0.6,1.5-0.7,2.1-0.1
	c0,0,0.1,0.1,0.1,0.1c0.3,0.4,0.5,1,0.4,1.5c0,0.5-0.1,1-0.4,1.4c-0.6,0.6-1.5,0.6-2.1,0.1c0,0,0,0,0,0l-0.1-0.1
	C78.6,216.3,78.4,215.7,78.5,215.2z M80,213.9c-0.2,0-0.4,0.1-0.5,0.3c-0.2,0.2-0.2,0.6-0.2,1.1s0,0.8,0.2,1
	c0.1,0.2,0.3,0.3,0.5,0.3l0.6-0.3c0.1-0.3,0.2-0.7,0.2-1.1c0-0.3-0.1-0.7-0.2-1L80,213.9z"/>
<path class="st7" d="M56.7,67.1h0.9c0,0.6-0.3,1.1-0.7,1.5c-0.4,0.3-0.9,0.5-1.4,0.5c-0.6,0-1.3-0.2-1.7-0.7
	c-0.5-0.6-0.8-1.3-0.7-2.1c0-0.5,0.1-1,0.3-1.5c0.2-0.4,0.4-0.8,0.8-1c0.4-0.3,0.8-0.4,1.3-0.4c1,0,1.9,0.8,2,1.8h-0.8
	c-0.1-0.3-0.3-0.6-0.5-0.8c-0.2-0.2-0.4-0.3-0.7-0.3c-0.4,0-0.8,0.2-1.1,0.5c-0.3,0.5-0.4,1-0.4,1.6c0,0.6,0.1,1.1,0.4,1.6
	c0.3,0.3,0.7,0.5,1.1,0.5c0.3,0,0.6-0.1,0.8-0.4C56.5,67.7,56.7,67.4,56.7,67.1z"/>
<path class="st7" d="M58,66.4c-0.1-0.8,0.2-1.7,0.8-2.3c0.4-0.4,1-0.6,1.6-0.6c0.7,0,1.3,0.3,1.7,0.8c0.5,0.5,0.8,1.3,0.7,2
	c0,0.6-0.1,1.2-0.3,1.7c-0.2,0.4-0.5,0.7-0.8,0.9c-0.4,0.2-0.8,0.3-1.3,0.3c-0.6,0-1.3-0.2-1.7-0.7C58.2,67.9,57.9,67.2,58,66.4z
	 M58.9,66.4c-0.1,0.5,0.1,1.1,0.4,1.5c0.4,0.6,1.2,0.8,1.8,0.4c0.2-0.1,0.3-0.2,0.4-0.4c0.3-0.5,0.5-1,0.4-1.6
	c0-0.5-0.1-1.1-0.4-1.5c-0.6-0.6-1.5-0.6-2.1-0.1c0,0,0,0,0,0l-0.1,0.1C59,65.3,58.8,65.8,58.9,66.4z"/>
<path class="st7" d="M65.2,69.1l-2-5.4h1l1.1,3.2l0.3,1.1l0.4-1l1.1-3.3H68l-2,5.4L65.2,69.1z"/>
<path class="st7" d="M72,68.4c-0.2,0.3-0.6,0.5-0.9,0.6c-0.3,0.2-0.7,0.2-1,0.2c-0.5,0.1-0.9-0.1-1.3-0.4c-0.3-0.3-0.5-0.7-0.5-1.1
	c0-0.3,0.1-0.6,0.2-0.8c0.1-0.2,0.3-0.4,0.5-0.5l0.6-0.3h0.8l1.6-0.4v-0.2c0-0.3-0.1-0.6-0.3-0.8c-0.3-0.2-0.6-0.3-1-0.3l-0.9,0.2
	c-0.2,0.2-0.3,0.5-0.4,0.8h-0.9c0.1-0.3,0.2-0.6,0.4-0.9c0.1-0.3,0.4-0.4,0.7-0.6l1.2-0.2l1.1,0.2c0.2,0,0.5,0.2,0.6,0.4l0.3,0.6V67
	c0,0.9,0.1,1.4,0.1,1.6c0,0.2,0.1,0.5,0.2,0.7h-0.9C72,69,72,68.7,72,68.4z M72,66.4l-1.5,0.3l-0.8,0.2l-0.3,0.3
	c-0.1,0.1-0.1,0.3-0.1,0.4c0,0.2,0.1,0.5,0.2,0.7l0.8,0.2l0.9-0.2c0.3-0.2,0.5-0.4,0.6-0.7c0.1-0.3,0.2-0.6,0.2-0.9L72,66.4z"/>
<path class="st7" d="M74.2,69.1v-5.4H75v0.8l0.5-0.8l0.6-0.2c0.3,0,0.6,0.1,0.9,0.3l-0.3,0.9L76,64.5l-0.5,0.2l-0.3,0.5
	c-0.1,0.4-0.1,0.7-0.1,1.1v2.8H74.2z"/>
<path class="st7" d="M77.7,71.2v-0.9h1L79,70l0.2-0.7c0.1,0,0.1-0.1,0.1-0.2l-2-5.4h1l1.1,3.1c0.1,0.4,0.2,0.9,0.4,1.3
	c0-0.4,0.1-0.9,0.3-1.3l1.1-3.1H82l-2,5.5c-0.1,0.4-0.3,0.8-0.5,1.2c-0.1,0.3-0.3,0.5-0.5,0.7l-0.7,0.2L77.7,71.2z"/>
<path class="st7" d="M82.8,62.6v-1h0.8v1H82.8z M82.8,69.1v-5.4h0.8v5.4H82.8z"/>
<path class="st7" d="M84.9,69.1v-5.4h0.8v0.7c0.4-0.6,1-0.9,1.7-0.9l0.8,0.2c0.3,0.1,0.5,0.3,0.6,0.5l0.3,0.7v4.2h-0.9v-3.3
	c0-0.3,0-0.6-0.1-0.9c0-0.1-0.2-0.3-0.3-0.4l-0.6-0.2c-0.8,0-1.4,0.6-1.4,1.4c0,0.1,0,0.2,0,0.4v3L84.9,69.1z"/>
<path class="st7" d="M90.3,69.5l0.9,0.2c0,0.2,0.1,0.5,0.3,0.6c0.2,0.2,0.5,0.2,0.9,0.2s0.7,0,0.9-0.2c0.2-0.2,0.4-0.4,0.4-0.7
	c0.1-0.4,0.1-0.8,0.1-1.2c-0.3,0.5-0.8,0.7-1.4,0.7c-0.7,0-1.3-0.3-1.7-0.8c-0.4-0.6-0.6-1.3-0.6-2c0-0.5,0.1-1,0.3-1.4
	c0.1-0.4,0.4-0.8,0.8-1c0.4-0.3,0.8-0.4,1.2-0.4c0.6,0,1.2,0.3,1.5,0.8v-0.6h0.8v4.7c0,0.6-0.1,1.2-0.3,1.8
	c-0.1,0.3-0.4,0.6-0.7,0.8c-0.4,0.2-0.8,0.3-1.3,0.3c-0.5,0.1-1.1-0.1-1.5-0.4C90.5,70.6,90.3,70,90.3,69.5z M91,66.3
	c0,0.5,0.1,1.1,0.4,1.5c0.3,0.3,0.7,0.5,1.1,0.5c0.4,0,0.8-0.2,1-0.5c0.5-0.9,0.5-2.1,0-3c-0.5-0.6-1.4-0.6-2-0.1c0,0,0,0,0,0
	c0,0-0.1,0.1-0.1,0.1C91.1,65.3,91,65.8,91,66.3z"/>
<path class="st7" d="M98.8,69.1v-5.4h0.8v0.7c0.1-0.3,0.3-0.5,0.6-0.6c0.3-0.2,0.6-0.3,0.9-0.3c0.4,0,0.7,0.1,1,0.3
	c0.2,0.2,0.4,0.4,0.5,0.7c0.3-0.6,0.9-1,1.6-1c0.5,0,0.9,0.2,1.2,0.5c0.3,0.4,0.5,0.9,0.4,1.4v3.7h-0.9v-3.4c0-0.4,0-0.7-0.1-0.8
	s-0.1-0.3-0.3-0.4l-0.5-0.2c-0.3,0-0.7,0.2-0.9,0.4c-0.3,0.4-0.4,0.8-0.4,1.2v3.2h-0.8v-3.5c0-0.4-0.1-0.7-0.3-1
	c-0.1-0.2-0.3-0.3-0.7-0.3l-0.6,0.2l-0.5,0.6c-0.1,0.4-0.1,0.8-0.1,1.2v2.8L98.8,69.1z"/>
<path class="st7" d="M110.5,69.1v-0.8c-0.4,0.6-1,0.9-1.7,0.9c-0.3,0-0.6,0-0.8-0.2c-0.2,0-0.5-0.2-0.6-0.4l-0.3-0.7v-4.2h0.9v3.9
	c0,0.2,0.2,0.5,0.4,0.6l0.6,0.2l0.8-0.2c0.2-0.1,0.4-0.4,0.4-0.6c0.1-0.3,0.2-0.7,0.2-1v-2.9h0.9v5.4H110.5z"/>
<path class="st7" d="M114.6,68.3v0.8H114l-0.7-0.2c-0.2-0.1-0.3-0.2-0.4-0.4c-0.1-0.4-0.1-0.7-0.1-1.1v-3h-0.7v-0.7h0.7v-1.4
	l0.9-0.5v1.9h0.9v0.7h-0.9v3.7h0.9L114.6,68.3z"/>
<path class="st7" d="M118.8,68.4c-0.2,0.3-0.6,0.5-0.9,0.6c-0.3,0.2-0.7,0.2-1,0.2c-0.5,0.1-0.9-0.1-1.3-0.4
	c-0.3-0.3-0.5-0.7-0.5-1.1c0-0.3,0.1-0.6,0.2-0.8l0.4-0.5l0.7-0.3h0.8c0.5,0,1-0.2,1.5-0.4v-0.2c0-0.4,0-0.6-0.2-0.8
	c-0.3-0.2-0.6-0.3-1-0.3l-0.9,0.2c-0.2,0.2-0.4,0.5-0.5,0.8h-0.8c0-0.3,0.2-0.7,0.4-0.9c0.1-0.3,0.4-0.4,0.7-0.6l1.2-0.2l1.1,0.2
	c0.2,0,0.5,0.2,0.6,0.4l0.3,0.6V67c0,0.5,0,1.1,0.1,1.6c0,0.2,0.1,0.5,0.2,0.7H119C118.8,69,118.8,68.7,118.8,68.4z M118.7,66.4
	l-1.4,0.3l-0.8,0.2l-0.3,0.3c-0.1,0.1-0.1,0.3-0.1,0.4c-0.1,0.3,0,0.5,0.2,0.7l0.8,0.2l0.9-0.2c0.3-0.2,0.5-0.4,0.6-0.7
	c0.1-0.3,0.1-0.6,0.1-0.9L118.7,66.4z"/>
<path class="st7" d="M122.8,68.3l0.2,0.8h-0.7l-0.7-0.2c-0.2-0.1-0.3-0.2-0.4-0.4c-0.1-0.4-0.1-0.7-0.1-1.1v-3h-0.7v-0.7h0.7v-1.4
	l0.9-0.5v1.9h0.8v0.7H122v3.7h0.8V68.3z"/>
<path class="st7" d="M123.7,62.6v-1h0.9v1H123.7z M123.7,69.1v-5.4h0.9v5.4H123.7z"/>
<path class="st7" d="M125.6,66.4c-0.1-0.8,0.2-1.7,0.8-2.3c0.4-0.4,1-0.6,1.6-0.6c0.7,0,1.3,0.3,1.7,0.8c0.5,0.5,0.8,1.3,0.7,2
	c0,0.6-0.1,1.2-0.3,1.7c-0.2,0.4-0.5,0.7-0.8,0.9c-0.4,0.2-0.8,0.3-1.3,0.3c-0.6,0-1.3-0.2-1.7-0.7
	C125.8,67.9,125.5,67.2,125.6,66.4z M126.5,66.4c-0.1,0.5,0.1,1.1,0.4,1.5c0.4,0.6,1.2,0.8,1.8,0.4c0.2-0.1,0.3-0.2,0.4-0.4
	c0.3-0.5,0.5-1,0.4-1.6c0-0.5-0.1-1.1-0.4-1.5c-0.6-0.6-1.5-0.6-2.1-0.1c0,0,0,0,0,0l-0.1,0.1C126.6,65.3,126.4,65.8,126.5,66.4z"/>
<path class="st7" d="M131.5,69.1v-5.4h0.7v0.7c0.4-0.6,1-0.9,1.7-0.9l0.8,0.2c0.3,0.1,0.5,0.3,0.6,0.5l0.3,0.7v4.2h-0.9v-3.3
	c0-0.3,0-0.6-0.1-0.9c0-0.2-0.1-0.3-0.3-0.4l-0.6-0.2c-0.4,0-0.7,0.2-1,0.4c-0.3,0.4-0.4,0.9-0.4,1.4v3L131.5,69.1z"/>
<path class="st7" d="M136.7,67.5l0.8-0.2c0.1,0.3,0.2,0.6,0.4,0.9c0.3,0.2,0.6,0.3,1,0.3c0.3,0,0.7-0.1,0.9-0.3
	c0.1-0.2,0.2-0.4,0.2-0.6c0-0.2,0-0.4-0.2-0.5l-0.9-0.3l-1.3-0.4c-0.3-0.2-0.5-0.3-0.6-0.6c-0.1-0.2-0.2-0.5-0.2-0.7
	c0-0.2,0.1-0.5,0.2-0.7l0.4-0.5l0.5-0.2l0.8-0.2l1.1,0.2c0.3,0.2,0.5,0.3,0.6,0.5c0.2,0.2,0.3,0.6,0.3,0.9h-0.8
	c-0.1-0.3-0.2-0.5-0.4-0.7l-0.7-0.2l-0.9,0.2c-0.2,0.1-0.3,0.3-0.3,0.5l0.2,0.3c0,0.1,0.1,0.2,0.3,0.3l0.8,0.2l1.2,0.4
	c0.3,0.1,0.5,0.3,0.6,0.5c0.2,0.2,0.2,0.5,0.2,0.8c0,0.3,0,0.6-0.2,0.9c-0.2,0.3-0.5,0.5-0.8,0.6l-1,0.2c-0.6,0.1-1.1-0.1-1.6-0.4
	C137,68.4,136.8,67.9,136.7,67.5z"/>
<path class="st7" d="M32.6,59.3h-0.8v-7.5h0.8v2.7c0.3-0.5,0.9-0.8,1.5-0.8l0.9,0.2l0.7,0.6c0.2,0.3,0.3,0.6,0.4,0.9
	c0.4,1.1,0.2,2.4-0.5,3.3c-0.4,0.5-1,0.7-1.6,0.7c-0.6,0.1-1.2-0.3-1.4-0.8L32.6,59.3z M32.6,56.5c0,0.5,0.1,1,0.2,1.5
	c0.2,0.4,0.6,0.6,1.1,0.7c0.4,0,0.8-0.2,1-0.6c0.4-0.4,0.5-1,0.5-1.5c0-0.6-0.1-1.1-0.4-1.6c-0.5-0.6-1.3-0.6-1.8-0.2
	c-0.1,0.1-0.1,0.1-0.2,0.2C32.7,55.4,32.6,56,32.6,56.5z"/>
<path class="st7" d="M40.7,58.6c-0.2,0.3-0.6,0.5-0.9,0.6c-0.3,0.2-0.7,0.2-1,0.2c-0.5,0-0.9-0.1-1.3-0.4c-0.3-0.3-0.5-0.7-0.5-1.1
	c0-0.3,0.1-0.5,0.2-0.8c0.1-0.2,0.3-0.4,0.5-0.5l0.6-0.3h0.8c0.6,0,1.1-0.2,1.6-0.4v-0.2c0-0.3-0.1-0.6-0.3-0.8
	c-0.3-0.2-0.6-0.3-1-0.3l-0.9,0.2c-0.2,0.2-0.3,0.5-0.4,0.8h-0.9c0.1-0.3,0.2-0.6,0.4-0.9c0.2-0.3,0.5-0.5,0.8-0.6l1.1-0.2l1.1,0.2
	l0.6,0.4c0.2,0.2,0.2,0.4,0.3,0.6V57c0,0.9,0.1,1.4,0.1,1.6c0,0.2,0.1,0.5,0.2,0.7h-0.9C40.8,59.1,40.8,58.8,40.7,58.6z M40.7,56.6
	l-1.5,0.3l-0.7,0.2l-0.4,0.3C38,57.5,38,57.7,38,57.8c0,0.3,0.1,0.5,0.3,0.7l0.7,0.2l0.9-0.2c0.3-0.2,0.5-0.4,0.6-0.7
	c0.1-0.3,0.2-0.6,0.2-0.9V56.6z"/>
<path class="st7" d="M42.6,57.7l0.8-0.2c0.1,0.3,0.2,0.6,0.4,0.9c0.5,0.4,1.3,0.4,1.8,0c0.2-0.2,0.3-0.4,0.3-0.6
	c0-0.2-0.1-0.4-0.2-0.5L44.8,57l-1.4-0.4c-0.2-0.2-0.4-0.3-0.5-0.6c-0.1-0.2-0.2-0.5-0.2-0.7c0-0.3,0-0.5,0.2-0.7l0.4-0.5l0.5-0.3
	h0.8l1,0.2c0.3,0.2,0.6,0.3,0.7,0.5c0.2,0.2,0.3,0.6,0.3,0.9h-0.8c-0.1-0.3-0.2-0.5-0.4-0.7c-0.5-0.3-1.1-0.3-1.6,0
	c-0.2,0.1-0.3,0.3-0.3,0.5c0,0.1,0.1,0.2,0.1,0.3l0.4,0.3l0.7,0.2l1.3,0.4c0.3,0.1,0.5,0.3,0.6,0.5c0.2,0.2,0.2,0.5,0.2,0.8
	c0,0.3-0.1,0.6-0.2,0.9c-0.2,0.2-0.5,0.5-0.8,0.6l-1,0.2c-0.6,0.1-1.1-0.1-1.6-0.4C42.8,58.7,42.6,58.2,42.6,57.7z"/>
<path class="st7" d="M51.4,57.5l0.9,0.2c-0.2,1.1-1.2,1.8-2.3,1.7c-0.7,0-1.3-0.2-1.8-0.7c-0.4-0.6-0.6-1.4-0.6-2.1
	c-0.1-0.8,0.2-1.5,0.7-2.1c0.8-0.9,2.2-1.1,3.1-0.3c0,0,0,0,0,0c0.1,0.1,0.2,0.2,0.3,0.3c0.5,0.6,0.7,1.3,0.7,2.1v0.2h-3.9
	c0,0.5,0.2,1,0.5,1.4c0.3,0.3,0.7,0.5,1.1,0.5c0.3,0,0.6-0.1,0.8-0.3C51.1,58.2,51.3,57.8,51.4,57.5z M48.5,56.1h3
	c-0.1-0.4-0.2-0.8-0.4-1.1c-0.3-0.3-0.7-0.5-1.1-0.5c-0.4,0-0.7,0.1-1,0.4C48.7,55.2,48.5,55.6,48.5,56.1z"/>
<path class="st7" d="M56.2,61.4v-7.5H57v0.7c0.1-0.3,0.4-0.5,0.6-0.7l0.9-0.2c0.4,0,0.8,0.2,1.1,0.4c0.4,0.2,0.7,0.6,0.8,1
	c0.4,0.9,0.4,2,0,2.9c-0.2,0.4-0.5,0.8-0.9,1.1c-0.3,0.2-0.7,0.3-1.1,0.3c-0.3,0-0.6,0-0.8-0.2L57,58.7v2.7H56.2z M56.9,56.6
	c0,0.6,0.1,1.1,0.4,1.6c0.2,0.3,0.6,0.5,1,0.5c0.4,0,0.8-0.2,1-0.6c0.4-0.4,0.5-1,0.5-1.6c0-0.5-0.1-1.1-0.5-1.5
	c-0.2-0.3-0.5-0.5-0.9-0.5c-0.4,0-0.8,0.2-1,0.5C57.1,55.5,56.9,56,56.9,56.6z"/>
<path class="st7" d="M65.1,58.6c-0.2,0.3-0.6,0.5-0.9,0.6c-0.3,0.2-0.7,0.2-1,0.2c-0.5,0.1-0.9-0.1-1.3-0.4
	c-0.3-0.3-0.5-0.7-0.5-1.1c0-0.3,0.1-0.5,0.2-0.8c0.1-0.2,0.3-0.4,0.5-0.5l0.6-0.3h0.8c0.5,0,1-0.2,1.5-0.4v-0.2
	c0-0.3-0.1-0.6-0.3-0.8c-0.3-0.2-0.6-0.3-1-0.3l-0.9,0.2c-0.2,0.2-0.3,0.5-0.4,0.8h-0.9c0.1-0.3,0.2-0.6,0.4-0.9
	c0.1-0.3,0.4-0.4,0.7-0.6l1.2-0.2l1.1,0.2l0.6,0.4l0.3,0.6V57c0,0.5,0,1.1,0.1,1.6c0,0.2,0.1,0.5,0.2,0.7h-0.9
	C65.1,59.1,65.1,58.8,65.1,58.6z M65.1,56.6l-1.5,0.3l-0.8,0.2l-0.3,0.3c-0.1,0.1-0.1,0.3-0.1,0.4c0,0.2,0.1,0.5,0.2,0.7l0.8,0.2
	l0.9-0.2c0.3-0.2,0.5-0.4,0.6-0.7c0.1-0.3,0.1-0.6,0.1-0.9L65.1,56.6z"/>
<path class="st7" d="M67.3,52.8v-1h0.9v1H67.3z M67.3,59.3v-5.4h0.9v5.4L67.3,59.3z"/>
<path class="st7" d="M69.5,59.3v-5.4h0.8v0.8l0.5-0.8l0.6-0.2c0.3,0,0.6,0.1,0.9,0.3L72,54.9l-0.7-0.2l-0.5,0.2l-0.3,0.5
	c-0.1,0.4-0.1,0.7-0.1,1.1v2.8H69.5z"/>
<path class="st7" d="M79,58.6l-1,0.6c-0.3,0.2-0.6,0.2-0.9,0.2c-0.5,0-1-0.1-1.4-0.4c-0.3-0.3-0.4-0.7-0.4-1.1c0-0.3,0-0.6,0.2-0.8
	c0.1-0.2,0.2-0.4,0.4-0.5l0.6-0.3h0.8c0.6,0,1.1-0.2,1.6-0.4v-0.2c0-0.3-0.1-0.6-0.2-0.8c-0.3-0.2-0.6-0.3-1-0.3
	c-0.3,0-0.7,0.1-1,0.2c-0.2,0.2-0.3,0.5-0.4,0.8h-0.9c0.1-0.3,0.2-0.6,0.4-0.9c0.2-0.3,0.5-0.5,0.8-0.6l1.2-0.2l1.1,0.2l0.6,0.4
	c0.1,0.2,0.2,0.4,0.2,0.6c0.1,0.3,0.1,0.6,0.1,0.9v2.8c0.1,0.2,0.1,0.5,0.2,0.7h-0.9C79,59.2,78.9,58.9,79,58.6z M78.9,56.6
	l-1.4,0.3l-0.8,0.2l-0.4,0.3c0,0.1-0.1,0.3-0.1,0.4c0,0.3,0.1,0.5,0.3,0.7c0.2,0.1,0.5,0.2,0.8,0.2l0.9-0.2l0.6-0.7
	c0-0.2,0.1-0.5,0.1-0.9V56.6z"/>
<path class="st7" d="M81.1,59.3v-5.4h0.8v0.7c0.3-0.6,0.9-0.9,1.6-0.9l0.9,0.2c0.3,0.1,0.5,0.3,0.6,0.5l0.3,0.7v4.2h-0.9V56
	c0-0.3,0-0.6-0.1-0.9l-0.4-0.4c-0.2-0.1-0.4-0.2-0.6-0.2c-0.8,0-1.4,0.7-1.4,1.4c0,0,0,0,0,0c0,0.1,0,0.2,0.1,0.4v3L81.1,59.3z"/>
<path class="st7" d="M86.7,59.3v-5.4h0.8v0.7c0.3-0.6,0.9-0.9,1.6-0.9l0.8,0.2c0.3,0.1,0.5,0.3,0.6,0.5c0.2,0.2,0.2,0.4,0.3,0.7v4.2
	h-0.9V56c0-0.3,0-0.6-0.1-0.9c0-0.2-0.1-0.3-0.3-0.4l-0.6-0.2c-0.4,0-0.7,0.2-1,0.4c-0.3,0.4-0.4,0.9-0.4,1.4v3H86.7z"/>
<path class="st7" d="M91.9,56.6c-0.1-0.8,0.2-1.7,0.8-2.3c0.4-0.4,1-0.6,1.6-0.6c0.7,0,1.3,0.3,1.7,0.8c0.5,0.5,0.8,1.3,0.7,2
	c0,0.6-0.1,1.2-0.3,1.7c-0.2,0.4-0.5,0.7-0.9,0.9c-1,0.5-2.2,0.4-3-0.4C92.1,58.1,91.9,57.3,91.9,56.6z M92.8,56.6
	c-0.1,0.5,0.1,1.1,0.4,1.5c0.4,0.6,1.2,0.8,1.8,0.4c0.2-0.1,0.3-0.2,0.4-0.4c0.3-0.5,0.5-1,0.4-1.6c0-0.5-0.1-1.1-0.4-1.5
	c-0.6-0.6-1.5-0.6-2.1-0.1c0,0,0,0,0,0L93.2,55C92.9,55.5,92.7,56,92.8,56.6z"/>
<path class="st7" d="M99.7,58.5v0.8H99l-0.7-0.2c-0.2-0.1-0.3-0.2-0.4-0.4c-0.1-0.4-0.1-0.7-0.1-1.1v-3h-0.6v-0.7h0.6v-1.4l0.9-0.5
	v1.9h0.9v0.7h-0.9v3.7h0.9L99.7,58.5z"/>
<path class="st7" d="M103.9,58.6l-0.9,0.6c-0.3,0.2-0.7,0.2-1,0.2c-0.5,0.1-0.9-0.1-1.3-0.4c-0.3-0.3-0.5-0.7-0.5-1.1
	c0-0.3,0.1-0.5,0.2-0.8c0.1-0.2,0.3-0.4,0.5-0.5l0.6-0.3h0.8c0.5,0,1-0.2,1.5-0.4v-0.2c0-0.4,0-0.6-0.2-0.8c-0.3-0.2-0.6-0.3-1-0.3
	l-0.9,0.2c-0.2,0.2-0.4,0.5-0.4,0.8h-0.9c0.1-0.3,0.2-0.6,0.4-0.9c0.1-0.3,0.4-0.4,0.7-0.6l1.2-0.2l1.1,0.2l0.6,0.4l0.3,0.6V57
	c0,0.5,0,1.1,0.1,1.6c0,0.2,0.1,0.5,0.2,0.7h-0.9C104,59.1,103.9,58.8,103.9,58.6z M103.8,56.6l-1.4,0.3l-0.8,0.2l-0.3,0.3
	c-0.1,0.1-0.1,0.3-0.1,0.4c0,0.2,0.1,0.5,0.2,0.7l0.8,0.2l0.9-0.2c0.3-0.2,0.5-0.4,0.6-0.7c0.1-0.3,0.1-0.6,0.1-0.9L103.8,56.6z"/>
<path class="st7" d="M108,58.5v0.8h-0.7l-0.7-0.2c-0.2-0.1-0.3-0.2-0.4-0.4c-0.1-0.4-0.1-0.7-0.1-1.1v-3h-0.7v-0.7h0.7v-1.4L107,52
	v1.9h0.9v0.7H107v3.7h0.2c0,0.1,0.1,0.1,0.3,0.1L108,58.5z"/>
<path class="st7" d="M108.8,52.8v-1h0.9v1H108.8z M108.8,59.3v-5.4h0.9v5.4L108.8,59.3z"/>
<path class="st7" d="M110.7,56.6c0-0.8,0.2-1.7,0.8-2.3c0.4-0.4,1-0.6,1.6-0.6c0.7,0,1.3,0.3,1.8,0.8c0.4,0.6,0.6,1.3,0.6,2
	c0,0.6-0.1,1.2-0.3,1.7c-0.2,0.4-0.5,0.7-0.8,0.9c-0.4,0.2-0.8,0.3-1.3,0.3c-0.6,0-1.3-0.2-1.7-0.7
	C110.9,58.1,110.6,57.4,110.7,56.6z M111.6,56.6c-0.1,0.5,0.1,1.1,0.4,1.5c0.4,0.6,1.2,0.8,1.8,0.4c0.2-0.1,0.3-0.2,0.4-0.4
	c0.3-0.5,0.5-1,0.4-1.6c0-0.5-0.1-1.1-0.4-1.5c-0.6-0.6-1.5-0.6-2.1-0.1c0,0,0,0,0,0L112,55C111.7,55.5,111.5,56,111.6,56.6z"/>
<path class="st7" d="M116.6,59.3v-5.4h0.8v0.7c0.3-0.6,0.9-0.9,1.6-0.9l0.8,0.2c0.3,0.1,0.5,0.3,0.6,0.5c0.2,0.2,0.2,0.4,0.3,0.7
	v4.2h-0.9V56c0-0.3,0-0.6-0.1-0.9c0-0.2-0.1-0.3-0.3-0.4l-0.6-0.2c-0.4,0-0.7,0.2-1,0.4c-0.3,0.4-0.4,0.9-0.4,1.4v3H116.6z"/>
<path class="st7" d="M121.8,57.7l0.8-0.2c0.1,0.3,0.2,0.6,0.4,0.9c0.3,0.2,0.6,0.3,1,0.3c0.3,0,0.7-0.1,0.9-0.3
	c0.2-0.2,0.2-0.4,0.2-0.6c0-0.2,0-0.4-0.2-0.5L124,57l-1.3-0.4c-0.3-0.2-0.5-0.3-0.6-0.6c-0.1-0.2-0.2-0.5-0.2-0.7
	c0-0.2,0.1-0.5,0.2-0.7l0.4-0.5l0.6-0.3h0.7l1.1,0.2c0.3,0.2,0.5,0.3,0.6,0.5c0.2,0.2,0.3,0.6,0.3,0.9H125c-0.1-0.3-0.2-0.5-0.4-0.7
	l-0.7-0.2l-0.9,0.2c-0.2,0.1-0.2,0.3-0.2,0.5c0,0.1,0,0.2,0.1,0.3c0,0.1,0.1,0.2,0.3,0.3L124,56l1.3,0.4c0.2,0.1,0.4,0.3,0.5,0.5
	c0.2,0.2,0.2,0.5,0.2,0.8c0,0.3,0,0.6-0.2,0.9l-0.7,0.6l-1.1,0.2c-0.6,0.1-1.1-0.1-1.6-0.4C122.1,58.6,121.9,58.2,121.8,57.7z"/>
<path class="st7" d="M56.7,76.3h0.9c0,0.5-0.3,1-0.7,1.4c-0.4,0.4-0.9,0.6-1.4,0.6c-0.7,0-1.3-0.3-1.7-0.8c-0.6-0.6-0.8-1.3-0.7-2.1
	c0-0.5,0.1-1,0.3-1.5c0.2-0.4,0.5-0.7,0.8-1c0.4-0.2,0.8-0.3,1.3-0.3c0.5,0,0.9,0.1,1.3,0.4c0.4,0.3,0.6,0.8,0.7,1.3h-0.8
	c-0.1-0.3-0.3-0.6-0.5-0.8c-0.2-0.2-0.4-0.3-0.7-0.3c-0.4,0-0.8,0.2-1.1,0.5c-0.3,0.5-0.4,1-0.4,1.6c0,0.6,0.1,1.1,0.4,1.6
	c0.3,0.3,0.7,0.5,1.1,0.5c0.3,0,0.6-0.1,0.8-0.3C56.5,76.9,56.6,76.6,56.7,76.3z"/>
<path class="st7" d="M58,75.5c-0.1-0.8,0.2-1.6,0.8-2.2c0.4-0.4,1-0.6,1.6-0.6c0.6,0,1.3,0.2,1.7,0.7c0.5,0.6,0.8,1.3,0.7,2.1
	c0,0.5-0.1,1.1-0.3,1.6c-0.2,0.4-0.5,0.7-0.8,0.9c-0.4,0.3-0.8,0.4-1.3,0.4c-0.7,0-1.3-0.3-1.7-0.8C58.2,77,57.9,76.3,58,75.5z
	 M58.9,75.5c-0.1,0.6,0.1,1.1,0.4,1.6c0.6,0.6,1.5,0.6,2.1,0.1c0,0,0,0,0,0l0.1-0.1c0.3-0.5,0.5-1,0.4-1.6c0.1-0.5-0.1-1.1-0.4-1.5
	c-0.4-0.6-1.2-0.8-1.8-0.4c-0.2,0.1-0.3,0.2-0.4,0.4C59,74.4,58.8,75,58.9,75.5z"/>
<path class="st7" d="M63.9,78.2v-5.4h0.7v0.8c0.2-0.3,0.4-0.5,0.7-0.7l0.9-0.2l0.9,0.2c0.3,0.2,0.5,0.4,0.6,0.7
	c0.3-0.6,0.9-0.9,1.6-0.9c0.4-0.1,0.8,0.1,1.1,0.4c0.3,0.4,0.5,0.9,0.5,1.4v3.7H70v-3.4c0-0.3,0-0.5-0.1-0.8l-0.3-0.4h-0.5
	c-0.3,0-0.7,0.1-0.9,0.4c-0.3,0.2-0.4,0.6-0.4,1.2v3.1h-0.9v-3.6c0-0.4,0-0.7-0.2-0.9c-0.2-0.2-0.4-0.3-0.7-0.3l-0.7,0.2
	c-0.2,0.1-0.4,0.4-0.4,0.6c-0.1,0.4-0.2,0.7-0.2,1.1v2.8L63.9,78.2z"/>
<path class="st7" d="M72.1,80.3v-7.5h0.8v0.7c0.2-0.3,0.4-0.5,0.7-0.6l0.8-0.2c0.4,0,0.8,0.1,1.2,0.3c0.3,0.3,0.6,0.7,0.8,1.1
	c0.1,0.5,0.2,0.9,0.2,1.4c0,0.5-0.1,1-0.3,1.5c-0.1,0.4-0.4,0.8-0.8,1c-0.3,0.2-0.7,0.4-1.1,0.4l-0.8-0.2L73,77.7v2.6L72.1,80.3z
	 M72.9,75.6c0,0.5,0.1,1.1,0.4,1.5c0.5,0.6,1.3,0.6,1.8,0.2c0.1-0.1,0.1-0.1,0.2-0.2c0.5-1,0.5-2.2,0-3.2c-0.2-0.3-0.6-0.5-1-0.5
	c-0.4,0-0.8,0.3-1,0.6C73,74.5,72.9,75,72.9,75.6z"/>
<path class="st7" d="M81.1,77.6c-0.2,0.3-0.6,0.5-0.9,0.6l-1,0.2c-0.5,0-1-0.2-1.3-0.5c-0.5-0.4-0.7-1.2-0.3-1.8l0.4-0.6l0.7-0.3
	h0.8l1.5-0.3v-0.2c0-0.3-0.1-0.6-0.2-0.8c-0.3-0.3-0.6-0.4-1-0.4c-0.7,0-1.3,0.4-1.4,1.1h-0.8c0-0.3,0.1-0.7,0.3-1l0.8-0.5l1.2-0.2
	c0.4,0,0.8,0,1.1,0.2c0.2,0,0.5,0.2,0.6,0.4c0.1,0.2,0.2,0.4,0.3,0.6V76c0,0.5,0,1.1,0.1,1.6c0,0.2,0.1,0.4,0.2,0.6h-0.9
	C81.2,78,81.1,77.8,81.1,77.6z M81,75.5l-1.4,0.4h-0.8l-0.3,0.3c-0.1,0.2-0.1,0.3-0.1,0.5c0,0.2,0,0.4,0.2,0.6
	c0.2,0.2,0.5,0.3,0.8,0.3l0.9-0.3c0.3-0.1,0.5-0.3,0.6-0.6c0.1-0.3,0.1-0.6,0.1-0.9L81,75.5z"/>
<path class="st7" d="M85.1,77.4l0.2,0.8h-1.4l-0.4-0.4c-0.1-0.4-0.1-0.7-0.1-1.1v-3.2h-0.7v-0.7h0.7v-1.3l0.9-0.6v1.9h0.8v0.7h-0.8
	v3.7l0.2,0.2L85.1,77.4z"/>
<path class="st7" d="M86,71.8v-1.1h0.9v1.1L86,71.8z M86,78.2v-5.4h0.9v5.4H86z"/>
<path class="st7" d="M89,78.2h-0.8v-7.5h0.9v2.7c0.3-0.5,0.8-0.8,1.4-0.7l0.9,0.2c0.3,0.1,0.5,0.3,0.7,0.6c0.2,0.2,0.3,0.5,0.4,0.8
	c0.1,0.4,0.2,0.7,0.2,1.1c0.1,0.8-0.2,1.6-0.7,2.2c-0.4,0.5-1,0.8-1.6,0.8c-0.6,0-1.1-0.3-1.4-0.8V78.2z M89,75.5
	c0,0.5,0.1,0.9,0.2,1.4c0.2,0.4,0.7,0.7,1.2,0.7c0.4,0,0.7-0.2,1-0.5c0.3-0.5,0.4-1,0.4-1.6c0-0.5-0.1-1.1-0.4-1.5
	c-0.3-0.5-0.9-0.8-1.5-0.5c-0.2,0.1-0.4,0.3-0.5,0.5C89.1,74.4,88.9,75,89,75.5z"/>
<path class="st7" d="M93.7,78.2v-7.5h0.9v7.5H93.7z"/>
<path class="st7" d="M99.5,76.5h0.9c-0.1,0.5-0.4,1-0.8,1.3c-1,0.8-2.4,0.6-3.3-0.3c-0.4-0.6-0.6-1.3-0.6-2c0-0.8,0.2-1.5,0.6-2.2
	c0.5-0.5,1.1-0.7,1.8-0.7c0.6,0,1.3,0.2,1.7,0.7c0.5,0.6,0.7,1.3,0.7,2.1v0.3h-3.9c0,0.5,0.2,1,0.5,1.3c0.3,0.4,0.7,0.5,1.1,0.5
	c0.3,0,0.6-0.1,0.8-0.3C99.3,77,99.4,76.8,99.5,76.5z M96.6,75h3c-0.1-0.4-0.2-0.7-0.4-1c-0.2-0.4-0.7-0.6-1.1-0.6
	c-0.4,0-0.8,0.2-1,0.5C96.8,74.2,96.6,74.6,96.6,75z"/>
<path class="st7" d="M104.3,78.2v-5.4h0.8v0.8c0.1-0.3,0.3-0.5,0.6-0.7l0.9-0.2l1,0.2c0.2,0.2,0.4,0.4,0.5,0.7
	c0.3-0.6,0.9-0.9,1.6-0.9c0.4,0,0.9,0.1,1.2,0.4c0.3,0.4,0.4,0.9,0.4,1.4v3.7h-0.9v-3.4c0-0.3,0-0.5-0.1-0.8c0-0.2-0.1-0.3-0.3-0.4
	h-0.5c-0.3,0-0.7,0.1-0.9,0.4c-0.3,0.2-0.4,0.6-0.4,1.2v3.1h-0.9v-3.6c0-0.4,0-0.7-0.2-0.9c-0.2-0.2-0.4-0.3-0.7-0.3l-0.6,0.2
	c-0.3,0.1-0.4,0.3-0.5,0.6c-0.1,0.4-0.1,0.7-0.1,1.1v2.8L104.3,78.2z"/>
<path class="st7" d="M116,78.2v-0.8c-0.3,0.6-1,1-1.7,1l-0.8-0.2c-0.3-0.1-0.5-0.3-0.6-0.5l-0.3-0.7v-4.2h0.8v3c0,0.5,0.1,0.8,0.1,1
	s0.2,0.4,0.3,0.6l0.7,0.2l0.7-0.2c0.2-0.1,0.4-0.4,0.5-0.6c0.1-0.4,0.2-0.7,0.2-1.1v-2.9h0.8v5.4L116,78.2z"/>
<path class="st7" d="M120,77.4l0.2,0.8h-1.4l-0.4-0.4c-0.1-0.4-0.1-0.7-0.1-1.1v-3.2h-0.7v-0.7h0.7v-1.3l0.9-0.6v1.9h0.8v0.7h-0.8
	v3.7l0.2,0.2L120,77.4z"/>
<path class="st7" d="M124.3,77.6c-0.3,0.3-0.6,0.5-1,0.6l-0.9,0.2c-0.5,0-1-0.2-1.3-0.5c-0.5-0.4-0.7-1.2-0.3-1.8l0.4-0.6l0.7-0.3
	h0.7l1.6-0.3v-0.2c0.1-0.5-0.2-1.1-0.7-1.2c0,0,0,0,0,0c-0.1,0-0.3,0-0.4,0c-0.7,0-1.3,0.4-1.4,1.1h-0.9c0.1-0.3,0.2-0.7,0.4-1
	l0.8-0.5l1.2-0.2c0.4,0,0.8,0,1.1,0.2l0.6,0.4c0.1,0.2,0.2,0.4,0.3,0.6V76c0,0.5,0,1.1,0.1,1.6c0,0.2,0.1,0.4,0.2,0.6h-0.9
	C124.4,78,124.3,77.8,124.3,77.6z M124.2,75.5l-1.4,0.4H122l-0.3,0.3c-0.1,0.2-0.2,0.3-0.2,0.5c0,0.2,0.1,0.4,0.3,0.6
	c0.2,0.2,0.5,0.3,0.8,0.3c0.3,0,0.6-0.1,0.9-0.3c0.3-0.1,0.5-0.3,0.6-0.6c0.1-0.3,0.1-0.6,0.1-0.9V75.5z"/>
<path class="st7" d="M128.3,77.4v0.8H127c-0.1-0.1-0.3-0.3-0.3-0.4c-0.1-0.4-0.1-0.7-0.1-1.1v-3.2h-0.7v-0.7h0.7v-1.3l0.9-0.6v1.9
	h0.8v0.7h-0.8v3.7c0,0.1,0.1,0.1,0.1,0.2L128.3,77.4z"/>
<path class="st7" d="M129.2,71.8v-1.1h0.9v1.1L129.2,71.8z M129.2,78.2v-5.4h0.9v5.4H129.2z"/>
<path class="st7" d="M131.1,75.5c-0.1-0.8,0.2-1.6,0.8-2.2c0.4-0.4,1-0.6,1.6-0.6c0.6,0,1.3,0.2,1.7,0.7c0.5,0.6,0.8,1.3,0.7,2.1
	c0,0.5-0.1,1.1-0.3,1.6c-0.2,0.4-0.5,0.7-0.9,0.9c-0.3,0.3-0.8,0.4-1.2,0.4c-0.7,0-1.3-0.3-1.8-0.8C131.3,77,131.1,76.2,131.1,75.5z
	 M132,75.5c-0.1,0.6,0.1,1.1,0.4,1.6c0.3,0.3,0.7,0.5,1.1,0.5c0.4,0,0.8-0.2,1.1-0.5c0.3-0.5,0.5-1,0.4-1.6c0.1-0.5-0.1-1.1-0.4-1.5
	c-0.3-0.4-0.7-0.6-1.1-0.6c-0.4,0-0.9,0.2-1.1,0.6C132.1,74.4,131.9,75,132,75.5z"/>
<path class="st7" d="M136.9,78.2v-5.4h0.8v0.8c0.4-0.6,1-0.9,1.7-0.9c0.3,0,0.6,0,0.8,0.2c0.2,0,0.5,0.2,0.6,0.4l0.3,0.7v4.2h-0.9
	v-3.3c0-0.3,0-0.5-0.1-0.8c0-0.2-0.2-0.3-0.3-0.4c-0.2-0.2-0.4-0.2-0.6-0.2c-0.4,0-0.7,0.1-1,0.4c-0.3,0.2-0.4,0.7-0.4,1.4v2.9
	L136.9,78.2z"/>
<path class="st7" d="M142.2,76.6h0.8c0.1,0.3,0.2,0.6,0.4,0.8c0.2,0.2,0.6,0.3,0.9,0.3l0.9-0.2c0.2-0.2,0.3-0.4,0.3-0.7
	c0-0.2-0.1-0.3-0.2-0.4l-0.9-0.4l-1.4-0.4c-0.2-0.1-0.4-0.3-0.5-0.5c-0.1-0.2-0.2-0.5-0.2-0.7c0-0.2,0-0.5,0.1-0.7
	c0.2-0.2,0.3-0.4,0.5-0.5l0.5-0.3h0.8l1,0.2c0.3,0.1,0.5,0.3,0.7,0.5c0.2,0.2,0.3,0.5,0.3,0.8h-0.8c-0.1-0.2-0.2-0.5-0.4-0.6
	c-0.5-0.4-1.1-0.4-1.6,0c-0.2,0.1-0.3,0.2-0.3,0.4c0,0.2,0.1,0.3,0.1,0.4l0.4,0.2l0.7,0.3c0.5,0.1,0.9,0.2,1.3,0.4
	c0.3,0.1,0.5,0.3,0.6,0.5c0.2,0.2,0.2,0.4,0.2,0.8c0,0.3-0.1,0.5-0.2,0.8c-0.2,0.3-0.5,0.5-0.8,0.6c-0.3,0.2-0.7,0.3-1.1,0.3
	c-0.5,0-1.1-0.2-1.5-0.5C142.4,77.6,142.2,77.1,142.2,76.6z"/>
<path class="st7" d="M53.4,87.4V82h0.8v0.7c0.3-0.6,0.9-0.9,1.6-0.9l0.9,0.2c0.2,0.1,0.4,0.3,0.5,0.5c0.2,0.2,0.3,0.4,0.3,0.7
	c0.1,0.3,0.1,0.6,0.1,0.9v3.3h-0.9v-3.3c0-0.4-0.1-0.7-0.1-0.9l-0.4-0.4l-0.6-0.2c-0.3,0-0.7,0.2-0.9,0.4c-0.3,0.4-0.5,0.9-0.4,1.4
	v3H53.4z"/>
<path class="st7" d="M58.6,84.7c0-0.8,0.2-1.7,0.8-2.3c0.4-0.4,1-0.6,1.6-0.6c0.7,0,1.3,0.3,1.8,0.8c0.4,0.6,0.6,1.3,0.6,2
	c0,0.6-0.1,1.2-0.3,1.7c-0.2,0.4-0.5,0.7-0.8,0.9c-0.4,0.2-0.8,0.3-1.3,0.3c-0.6,0-1.3-0.2-1.7-0.7C58.8,86.2,58.5,85.5,58.6,84.7z
	 M59.5,84.7c-0.1,0.5,0.1,1.1,0.4,1.5c0.3,0.4,0.7,0.6,1.1,0.6c0.4,0,0.9-0.2,1.1-0.6c0.3-0.5,0.5-1,0.4-1.6c0-0.5-0.1-1.1-0.4-1.5
	c-0.6-0.6-1.5-0.6-2.1-0.1l-0.1,0.1C59.6,83.6,59.5,84.1,59.5,84.7z"/>
<path class="st7" d="M67.2,87.4V82H68v0.7c0.2-0.2,0.4-0.5,0.7-0.6c0.5-0.4,1.3-0.4,1.8,0c0.3,0.2,0.4,0.4,0.5,0.7
	c0.4-0.6,0.9-0.9,1.6-1c0.5,0,0.9,0.2,1.2,0.5c0.3,0.4,0.5,0.9,0.4,1.4v3.7h-0.8V84c0-0.3,0-0.5-0.1-0.8L73,82.8l-0.6-0.2
	c-0.3,0.1-0.6,0.2-0.9,0.4c-0.2,0.4-0.3,0.8-0.3,1.2v3.2h-0.9v-3.5c0-0.3-0.1-0.7-0.2-1c-0.2-0.2-0.4-0.3-0.7-0.3l-0.7,0.2l-0.4,0.6
	c-0.1,0.4-0.2,0.8-0.2,1.2v2.8L67.2,87.4z"/>
<path class="st7" d="M78.9,87.4v-0.8c-0.3,0.6-0.9,0.9-1.6,0.9c-0.3,0-0.6,0-0.9-0.2l-0.6-0.4c-0.1-0.2-0.2-0.5-0.2-0.7
	c-0.1-0.3-0.1-0.6-0.1-0.9V82h0.9v3.9c0,0.2,0.2,0.5,0.4,0.6l0.7,0.2l0.7-0.2c0.2-0.1,0.4-0.3,0.5-0.6c0.1-0.3,0.1-0.7,0.1-1V82h0.9
	v5.4H78.9z"/>
<path class="st7" d="M83,86.6v0.8h-0.6c-0.3,0-0.6-0.1-0.8-0.2c-0.2-0.1-0.3-0.2-0.3-0.4c-0.2-0.3-0.2-0.7-0.2-1.1v-3h-0.6V82h0.6
	v-1.4l0.9-0.5V82h1v0.7h-0.9v3.1c0,0.3,0,0.5,0.1,0.6H83V86.6z"/>
<path class="st7" d="M87.2,86.7c-0.2,0.3-0.6,0.5-0.9,0.6c-0.3,0.2-0.7,0.2-1,0.2c-0.5,0-0.9-0.1-1.3-0.4c-0.3-0.3-0.4-0.7-0.4-1.1
	c0-0.3,0-0.5,0.1-0.8c0.2-0.2,0.3-0.4,0.5-0.5l0.6-0.3h0.8l1.6-0.4v-0.2c0-0.3-0.1-0.6-0.3-0.8c-0.3-0.2-0.6-0.3-1-0.3L85,82.9
	c-0.2,0.2-0.3,0.5-0.4,0.8h-0.9c0.1-0.3,0.2-0.6,0.4-0.9c0.2-0.3,0.5-0.5,0.8-0.6L86,82l1.1,0.2c0.2,0,0.5,0.2,0.6,0.4
	c0.2,0.2,0.3,0.4,0.3,0.6c0,0.2,0.1,0.5,0.1,0.9v2.8c0,0.2,0.1,0.5,0.2,0.7h-0.9C87.3,87.3,87.2,87,87.2,86.7z M87.2,84.7L85.7,85
	L85,85.2l-0.4,0.3c-0.1,0.1-0.1,0.3-0.1,0.4c0,0.3,0.1,0.5,0.3,0.7l0.7,0.2l1-0.2c0.2-0.2,0.4-0.4,0.5-0.7c0.1-0.3,0.2-0.6,0.2-0.9
	V84.7z"/>
<path class="st7" d="M91.3,86.6v0.8h-0.7l-0.7-0.2c-0.2-0.1-0.3-0.2-0.4-0.4c-0.1-0.4-0.1-0.7-0.1-1.1v-3h-0.6V82h0.6v-1.4l0.9-0.5
	V82h0.9v0.7h-0.9v3.1c0,0.3,0,0.5,0.1,0.6h0.8L91.3,86.6z"/>
<path class="st7" d="M92.2,80.9v-1h0.9v1H92.2z M92.2,87.4V82h0.9v5.4H92.2z"/>
<path class="st7" d="M94,84.7c0-0.8,0.2-1.7,0.8-2.3c0.4-0.4,1-0.6,1.6-0.6c0.7,0,1.4,0.3,1.8,0.8c0.5,0.6,0.7,1.3,0.7,2
	c0,0.6-0.1,1.2-0.3,1.7c-0.2,0.4-0.5,0.7-0.9,0.9c-0.4,0.2-0.8,0.3-1.3,0.3c-0.6,0-1.3-0.2-1.7-0.7C94.2,86.2,93.9,85.5,94,84.7z
	 M94.9,84.7c0,0.5,0.1,1.1,0.5,1.5c0.2,0.4,0.6,0.6,1,0.6c0.4,0,0.9-0.2,1.1-0.6c0.4-0.4,0.5-1,0.5-1.6c0-0.5-0.2-1.1-0.5-1.5
	c-0.3-0.3-0.7-0.5-1.1-0.5c-0.4,0-0.8,0.2-1,0.5C95.1,83.6,94.9,84.1,94.9,84.7z"/>
<path class="st7" d="M99.9,87.4V82h0.8v0.7c0.3-0.6,0.9-0.9,1.6-0.9l0.9,0.2l0.6,0.5c0.1,0.2,0.2,0.5,0.2,0.7
	c0.1,0.1,0.1,0.4,0.1,0.9v3.3h-0.9v-3.3c0-0.4-0.1-0.7-0.1-0.9l-0.4-0.4c-0.2-0.1-0.4-0.2-0.6-0.2c-0.3,0-0.7,0.2-0.9,0.4
	c-0.3,0.4-0.5,0.9-0.4,1.4v3H99.9z"/>
<path class="st7" d="M105.1,85.8l0.9-0.2c0,0.3,0.2,0.7,0.4,0.9c0.5,0.4,1.3,0.4,1.8,0c0.2-0.2,0.3-0.4,0.3-0.6
	c0-0.2-0.1-0.4-0.3-0.5l-0.9-0.3c-0.5-0.1-0.9-0.3-1.3-0.5c-0.2-0.1-0.5-0.3-0.6-0.5c-0.1-0.2-0.1-0.5-0.1-0.7c0-0.2,0-0.5,0.1-0.7
	l0.4-0.5l0.6-0.3h0.7l1.1,0.2c0.3,0.1,0.5,0.3,0.7,0.5l0.3,0.9h-0.9c0-0.3-0.1-0.5-0.3-0.7l-0.8-0.2l-0.9,0.2
	c-0.1,0.1-0.2,0.3-0.2,0.5c0,0.1,0,0.2,0.1,0.3l0.3,0.3l0.8,0.2l1.3,0.4l0.6,0.5c0.1,0.2,0.2,0.5,0.2,0.8c0,0.3-0.1,0.6-0.3,0.9
	c-0.2,0.2-0.4,0.5-0.7,0.6l-1.1,0.2c-1,0.2-2-0.5-2.2-1.6c0,0,0,0,0,0C105.1,85.9,105.1,85.8,105.1,85.8L105.1,85.8z"/>
<path class="st7" d="M53,96.6c0-0.8,0.2-1.6,0.8-2.2c0.5-0.4,1.1-0.6,1.7-0.6c0.6,0,1.3,0.2,1.7,0.7c0.5,0.6,0.8,1.3,0.7,2.1
	c0,0.5-0.1,1.1-0.3,1.6c-0.2,0.4-0.5,0.7-0.9,1c-1,0.5-2.2,0.4-3-0.4C53.2,98.2,53,97.4,53,96.6z M53.9,96.6c0,0.6,0.1,1.1,0.5,1.6
	c0.3,0.4,0.7,0.5,1.1,0.5c0.4,0,0.8-0.2,1.1-0.5c0.3-0.5,0.4-1,0.4-1.6c0-0.5-0.1-1.1-0.4-1.5c-0.3-0.3-0.7-0.5-1.1-0.5
	c-0.4,0-0.8,0.1-1.1,0.5C54,95.5,53.9,96.1,53.9,96.6z"/>
<path class="st7" d="M59.7,99.4h-0.8v-7.5h0.9v2.6c0.3-0.5,0.8-0.8,1.4-0.7l0.9,0.2c0.3,0.1,0.5,0.3,0.7,0.6
	c0.2,0.3,0.3,0.6,0.4,0.9c0.1,0.4,0.2,0.7,0.2,1.1c0.1,0.8-0.2,1.5-0.7,2.1c-0.3,0.5-0.9,0.8-1.5,0.8c-0.6,0-1.2-0.3-1.5-0.8
	L59.7,99.4z M59.7,96.6c0,0.5,0.1,0.9,0.2,1.4c0.2,0.4,0.7,0.7,1.2,0.7c0.4,0,0.8-0.2,1-0.5c0.3-0.5,0.5-1,0.4-1.6
	c0.1-0.5-0.1-1.1-0.4-1.5c-0.4-0.5-1.1-0.7-1.7-0.3c-0.1,0.1-0.3,0.2-0.3,0.3C59.8,95.5,59.6,96.1,59.7,96.6z"/>
<path class="st7" d="M64.1,97.7H65c0,0.3,0.1,0.6,0.4,0.8c0.2,0.2,0.6,0.3,0.9,0.3l0.9-0.2c0.2-0.2,0.3-0.4,0.3-0.6
	c0-0.2-0.1-0.4-0.3-0.5l-0.8-0.3L65,96.6c-0.2-0.1-0.4-0.3-0.5-0.5c-0.2-0.2-0.2-0.4-0.2-0.7c0-0.2,0-0.5,0.1-0.7
	c0.1-0.2,0.3-0.4,0.5-0.5l0.5-0.3h0.8l1,0.2c0.3,0.1,0.5,0.3,0.7,0.5l0.3,0.8l-0.9,0.2c0-0.3-0.1-0.5-0.3-0.7
	c-0.2-0.2-0.4-0.2-0.8-0.2s-0.7,0-0.8,0.2c-0.2,0.1-0.3,0.3-0.3,0.5c0,0.1,0.1,0.2,0.1,0.3l0.4,0.2c0,0.1,0.3,0.1,0.7,0.3l1.3,0.4
	c0.3,0.1,0.5,0.3,0.6,0.5c0.3,0.5,0.3,1.1,0,1.6c-0.2,0.3-0.5,0.5-0.8,0.7l-1.1,0.2c-0.5,0-1.1-0.2-1.5-0.5
	C64.4,98.7,64.2,98.2,64.1,97.7z"/>
<path class="st7" d="M73,97.6h0.9c-0.1,0.5-0.4,1-0.8,1.3c-1,0.8-2.4,0.6-3.3-0.3c-0.5-0.6-0.7-1.3-0.6-2c0-0.7,0.2-1.5,0.6-2.1
	c0.5-0.5,1.1-0.8,1.8-0.8c0.6,0,1.2,0.3,1.7,0.7c0.4,0.6,0.6,1.4,0.6,2.1v0.3h-3.8c0,0.5,0.1,1,0.4,1.4c0.3,0.3,0.7,0.4,1.1,0.4
	l0.9-0.2C72.7,98.2,72.9,97.9,73,97.6z M70.1,96.1H73c0-0.4-0.1-0.7-0.3-1c-0.3-0.3-0.7-0.5-1.1-0.5c-0.4,0-0.8,0.1-1.1,0.4
	C70.3,95.3,70.1,95.7,70.1,96.1z"/>
<path class="st7" d="M75,99.4v-5.5h0.8v0.9l0.5-0.8l0.6-0.2l0.9,0.3l-0.3,0.8h-1.2L76,95.4c-0.1,0.4-0.1,0.7-0.1,1.1v2.9L75,99.4z"
	/>
<path class="st7" d="M80,99.4l-2-5.5h1l1.1,3.3l0.3,1.1l0.3-1.1l1.2-3.3h0.9l-2,5.5H80z"/>
<path class="st7" d="M87,97.6h0.9c-0.1,0.5-0.4,1-0.8,1.3c-1,0.8-2.4,0.6-3.3-0.3c-0.5-0.6-0.7-1.3-0.6-2c0-0.7,0.2-1.5,0.6-2.1
	c0.5-0.5,1.1-0.8,1.8-0.8c0.6,0,1.2,0.3,1.7,0.7c0.4,0.6,0.6,1.4,0.6,2.1v0.3h-3.8c0,0.5,0.1,1,0.4,1.4c0.3,0.3,0.7,0.4,1.1,0.4
	l0.9-0.2C86.7,98.2,86.9,97.9,87,97.6z M84.1,96.1H87c0-0.4-0.1-0.7-0.3-1c-0.3-0.3-0.7-0.5-1.1-0.5c-0.4,0-0.8,0.1-1.1,0.4
	C84.3,95.3,84.1,95.7,84.1,96.1z"/>
<path class="st7" d="M92.3,99.4v-0.7c-0.3,0.5-0.8,0.8-1.4,0.8c-0.4,0-0.8-0.1-1.1-0.4c-0.4-0.2-0.7-0.6-0.9-1
	c-0.1-0.5-0.2-1-0.2-1.5c0-0.5,0-1,0.2-1.4c0.2-0.4,0.4-0.8,0.8-1c0.3-0.3,0.8-0.4,1.2-0.4l0.8,0.2l0.6,0.5v-2.6h0.9v7.5H92.3z
	 M89.6,96.6c-0.1,0.6,0.1,1.1,0.4,1.6c0.5,0.6,1.3,0.6,1.8,0.2c0.1-0.1,0.1-0.1,0.2-0.2c0.3-0.4,0.4-1,0.4-1.5
	c0-0.6-0.1-1.1-0.5-1.6c-0.2-0.4-0.6-0.6-1-0.5c-0.4,0-0.7,0.2-0.9,0.5C89.7,95.5,89.5,96.1,89.6,96.6z"/>
<rect x="31.1" y="82.1" class="st8" width="5.1" height="5.3"/>
<rect x="43.1" y="82.1" class="st8" width="5.1" height="5.3"/>
<rect x="36.2" y="82.1" class="st8" width="6.9" height="5.3"/>
<line class="st9" x1="39.7" y1="85.1" x2="39.7" y2="84.4"/>
<rect x="43.1" y="63.7" class="st10" width="5.3" height="5.1"/>
<rect x="31.1" y="63.7" class="st10" width="5.3" height="5.1"/>
<rect x="36.4" y="63.7" class="st10" width="6.7" height="5.1"/>
<line class="st2" x1="40.7" y1="66.3" x2="38.8" y2="66.3"/>
<rect x="43.1" y="73" class="st11" width="5.3" height="5.1"/>
<rect x="31.1" y="73" class="st11" width="5.3" height="5.1"/>
<rect x="36.4" y="73" class="st11" width="6.7" height="5.1"/>
<line class="st2" x1="40.7" y1="75.5" x2="38.8" y2="75.5"/>
<g>
	<text transform="matrix(1 0 0 1 32.3 265.8)" class="st12 st13">R=</text>
	<text transform="matrix(1 0 0 1 46.7 265.8)" class="st12 st13 st14">A</text>
	<text transform="matrix(1 0 0 1 53.4 265.8)" class="st12 st13"> or G.</text>
	<text transform="matrix(1 0 0 1 83.8 265.8)" class="st12 st13">Y=C or U.</text>
</g>
<path class="st15" d="M206.8,316.2H241v10.1h-34.2V316.2z"/>
<path class="st16" d="M220.2,321.3h7.4"/>
<path class="st16" d="M220.2,307.2h7.4"/>
<path class="st15" d="M206.8,256.1H241v10.1h-34.2V256.1z"/>
<path class="st16" d="M220.2,261.1h7.4"/>
<path class="st15" d="M206.8,242H241v10.1h-34.2V242z"/>
<path class="st16" d="M220.2,247.1h7.4"/>
<path class="st15" d="M206.8,228H241v10h-34.2V228z"/>
<path class="st16" d="M220.2,233h7.4"/>
<path class="st15" d="M206.8,213.9H241v10h-34.2V213.9z"/>
<path class="st16" d="M220.2,218.9h7.4"/>
<path class="st15" d="M206.8,199.8H241v10h-34.2V199.8z"/>
<path class="st16" d="M220.2,204.8h7.4"/>
<path class="st15" d="M206.8,185.7H241v10h-34.2V185.7z"/>
<path class="st16" d="M220.2,190.7h7.4"/>
<path class="st16" d="M278,321.3h7.4"/>
<path class="st16" d="M278,307.2h7.4"/>
<path class="st15" d="M264.6,288.1h34.3v10h-34.3V288.1z"/>
<path class="st16" d="M278,293.1h7.4"/>
<path class="st15" d="M264.6,274h34.3v10h-34.3V274z"/>
<path class="st16" d="M278,279h7.4"/>
<path class="st15" d="M264.6,259.9h34.3v10h-34.3V259.9z"/>
<path class="st16" d="M278,264.9h7.4"/>
<path class="st15" d="M264.6,245.8h34.3v10h-34.3V245.8z"/>
<path class="st16" d="M278,250.8h7.4"/>
<path class="st15" d="M264.6,231.7h34.3v10.1h-34.3V231.7z"/>
<path class="st16" d="M278,236.7h7.4"/>
<path class="st16" d="M278,222.7h7.4"/>
<path class="st15" d="M264.6,203.6h34.3v10h-34.3V203.6z"/>
<path class="st16" d="M278,208.6h7.4"/>
<path class="st16" d="M278,194.5h7.4"/>
<path class="st15" d="M264.6,143.4h34.3v10.1h-34.3V143.4z"/>
<path class="st16" d="M278,148.5h7.4"/>
<path class="st15" d="M264.6,129.4h34.3v10h-34.3V129.4z"/>
<path class="st16" d="M278,134.4h7.4"/>
<path class="st15" d="M264.6,115.3h34.3v10h-34.3V115.3z"/>
<path class="st16" d="M278,120.3h7.4"/>
<path class="st15" d="M264.6,101.2h34.3v10h-34.3V101.2z"/>
<path class="st16" d="M278,106.2h7.4"/>
<path class="st17" d="M63.6,331.2c0,2.7-2.1,4.8-4.8,4.8s-4.8-2.1-4.8-4.8c0-2.7,2.1-4.8,4.8-4.8c0,0,0,0,0,0l0,0
	C61.5,326.4,63.6,328.5,63.6,331.2z"/>
<path class="st17" d="M78,331.2c0,2.7-2.2,4.8-4.9,4.8c-2.7,0-4.8-2.1-4.8-4.8c0-2.6,2.1-4.7,4.7-4.7c0,0,0,0,0,0h0.1
	C75.8,326.4,77.9,328.5,78,331.2C78,331.2,78,331.2,78,331.2z"/>
<path class="st17" d="M92.3,331.2c-0.4,2.7-2.9,4.5-5.5,4.2c-2.2-0.3-3.8-2-4.2-4.2l0,0c0.4-2.7,2.9-4.5,5.5-4.2
	C90.3,327.4,92,329,92.3,331.2z"/>
<path class="st17" d="M106.6,331.2c0,2.7-2.1,4.8-4.8,4.8c-2.7,0-4.9-2.1-4.9-4.8l0,0c0-2.7,2.2-4.8,4.9-4.8
	C104.5,326.4,106.6,328.5,106.6,331.2z"/>
<path class="st17" d="M121,331.2c-0.4,2.7-2.9,4.5-5.5,4.2c-2.2-0.3-3.8-2-4.2-4.2c0-2.6,2.1-4.7,4.7-4.7c0,0,0,0,0,0h0.1
	C118.8,326.4,120.9,328.5,121,331.2C121,331.2,121,331.2,121,331.2z"/>
<path class="st17" d="M135.3,331.2c-0.4,2.7-2.9,4.5-5.5,4.2c-2.2-0.3-3.8-2-4.2-4.2l0,0c0.4-2.7,2.9-4.5,5.5-4.2
	C133.3,327.4,135,329,135.3,331.2z"/>
<path class="st17" d="M149.7,331.2c0,2.7-2.2,4.8-4.9,4.8c-2.7,0-4.8-2.1-4.8-4.8c0-2.7,2.1-4.8,4.8-4.8l0,0l0,0
	C147.5,326.4,149.7,328.5,149.7,331.2L149.7,331.2z"/>
<g id="text1002">
	<g>
		<text transform="matrix(1.02 0 0 1 154.3999 336.2002)" class="st12 st18">   </text>
	</g>
	<text transform="matrix(1.02 0 0 1 154.3999 336.2002)" class="st19 st12 st20 st14">A</text>
</g>
<g id="text1004">
	<g>
		<text transform="matrix(1.02 0 0 1 168.7002 336.2002)" class="st12 st18">   </text>
	</g>
	<text transform="matrix(1.02 0 0 1 168.7002 336.2002)" class="st19 st12 st20 st14">A</text>
</g>
<g id="text1006">
	<g>
		<text transform="matrix(1.02 0 0 1 182.7002 336.2002)" class="st12 st18">   </text>
	</g>
	<text transform="matrix(1.02 0 0 1 182.7002 336.2002)" class="st19 st12 st20">R</text>
</g>
<g id="text1008">
	<g>
		<text transform="matrix(1.02 0 0 1 196.6001 336.2002)" class="st12 st18">   </text>
	</g>
	<text transform="matrix(1.02 0 0 1 196.6001 336.2002)" class="st19 st12 st20">G</text>
</g>
<g id="text1010">
	<g>
		<text transform="matrix(1.02 0 0 1 206.7998 326.2998)" class="st12 st18">   </text>
	</g>
	<text transform="matrix(1.02 0 0 1 206.7998 326.2998)" class="st12 st20">G</text>
</g>
<g id="text1012">
	<g>
		<text transform="matrix(1.02 0 0 1 207.2002 312.2002)" class="st12 st18">   </text>
	</g>
	<text transform="matrix(1.02 0 0 1 207.2002 312.2002)" class="st12 st20">C</text>
</g>
<g id="text1014">
	<g>
		<text transform="matrix(1.02 0 0 1 196.8999 302.7002)" class="st12 st18">   </text>
	</g>
	<text transform="matrix(1.02 0 0 1 196.8999 302.7002)" class="st12 st20 st14">A</text>
</g>
<g id="text1016">
	<g>
		<text transform="matrix(1.02 0 0 1 193 289.2002)" class="st12 st18">   </text>
	</g>
	<text transform="matrix(1.02 0 0 1 193 289.2002)" class="st12 st20 st14">A</text>
</g>
<g id="text1018">
	<g>
		<text transform="matrix(1.02 0 0 1 196.8999 275.5996)" class="st12 st18">   </text>
	</g>
	<text transform="matrix(1.02 0 0 1 196.8999 275.5996)" class="st12 st20 st14">A</text>
</g>
<g id="text1020">
	<g>
		<text transform="matrix(1.02 0 0 1 207.5996 266.2002)" class="st12 st18">   </text>
	</g>
	<text transform="matrix(1.02 0 0 1 207.5996 266.2002)" class="st19 st12 st20">Y</text>
</g>
<g id="text1022">
	<g>
		<text transform="matrix(1.02 0 0 1 207.5996 252.0996)" class="st12 st18">   </text>
	</g>
	<text transform="matrix(1.02 0 0 1 207.5996 252.0996)" class="st21 st12 st20">Y</text>
</g>
<path class="st17" d="M217.1,233c0,2.6-2.1,4.7-4.7,4.7c0,0,0,0,0,0h-0.1c-2.6,0.4-5.1-1.4-5.5-4c-0.4-2.6,1.4-5.1,4-5.5
	c0,0,0,0,0.1,0c0.5-0.1,0.9-0.1,1.4,0c2.6-0.1,4.7,2,4.8,4.6c0,0,0,0,0,0V233z"/>
<path class="st17" d="M217.1,218.9c0,2.6-2.1,4.7-4.7,4.7c0,0,0,0,0,0h-0.1c-2.7,0.1-4.8-2-4.9-4.7c0,0,0,0,0,0l0,0
	c0-2.7,2.2-4.8,4.9-4.8C215,214.1,217.1,216.2,217.1,218.9L217.1,218.9z"/>
<path class="st17" d="M217.1,204.8c0,2.7-2.1,4.8-4.8,4.8l0,0l0,0c-2.7,0-4.8-2.1-4.8-4.8s2.1-4.8,4.8-4.8l0,0l0,0
	C215,200,217.1,202.1,217.1,204.8L217.1,204.8z"/>
<path class="st17" d="M217.1,190.7c0,2.7-2.1,4.8-4.8,4.8l0,0l0,0c-2.7,0-4.9-2.1-4.9-4.8c0.1-2.7,2.2-4.8,4.9-4.7c0,0,0,0,0,0l0,0
	c2.6-0.1,4.7,2,4.8,4.6C217.1,190.6,217.1,190.6,217.1,190.7L217.1,190.7z"/>
<g id="text1024">
	<g>
		<text transform="matrix(1.02 0 0 1 202.5996 182.2002)" class="st12 st18">   </text>
	</g>
	<text transform="matrix(1.02 0 0 1 202.5996 182.2002)" class="st12 st20">G</text>
</g>
<path class="st17" d="M221.6,165.9c0.1,2.7-2,5-4.7,5.1c-2.7,0.1-5-2-5.1-4.7c-0.1-2.7,2-5,4.7-5.1h0.2
	C219.4,161.1,221.5,163.2,221.6,165.9C221.6,165.9,221.6,165.9,221.6,165.9L221.6,165.9z"/>
<g id="text1026">
	<g>
		<text transform="matrix(1.02 0 0 1 226.2998 170.8999)" class="st12 st18">   </text>
	</g>
	<text transform="matrix(1.02 0 0 1 226.2998 170.8999)" class="st19 st12 st20 st14">A</text>
</g>
<g id="text1028">
	<g>
		<text transform="matrix(1.02 0 0 1 234.9004 182.2002)" class="st12 st18">   </text>
	</g>
	<text transform="matrix(1.02 0 0 1 234.9004 182.2002)" class="st21 st12 st20 st14">A</text>
</g>
<path class="st17" d="M240.4,190.7c0,2.7-2.2,4.8-4.9,4.8c-2.7,0-4.8-2.1-4.8-4.8l0,0l0,0c0-2.6,2.1-4.7,4.7-4.7c0,0,0,0,0,0h0.1
	C238.2,185.9,240.3,188,240.4,190.7C240.4,190.7,240.4,190.7,240.4,190.7z"/>
<path class="st17" d="M240.4,204.8c0,2.7-2.2,4.8-4.9,4.8c-2.7,0-4.8-2.1-4.8-4.8s2.1-4.8,4.8-4.8
	C238.2,200,240.4,202.1,240.4,204.8z"/>
<path class="st17" d="M240.4,218.9c-0.1,2.7-2.2,4.8-4.9,4.7c0,0,0,0,0,0l0,0c-2.6,0.1-4.7-2-4.8-4.6c0,0,0,0,0,0v-0.1
	c0-2.7,2.1-4.8,4.8-4.8l0,0l0,0C238.2,214.1,240.4,216.2,240.4,218.9z"/>
<path class="st17" d="M240.4,233c-0.1,2.7-2.2,4.8-4.9,4.7c0,0,0,0,0,0l0,0c-2.6,0.4-5.1-1.4-5.5-4c-0.4-2.6,1.4-5.1,4-5.5
	c0,0,0,0,0.1,0c0.5-0.1,0.9-0.1,1.4,0c2.7-0.1,4.8,2,4.9,4.7c0,0,0,0,0,0V233z"/>
<g id="text1030">
	<g>
		<text transform="matrix(1.02 0 0 1 230.4004 252.0996)" class="st12 st18">   </text>
	</g>
	<text transform="matrix(1.02 0 0 1 230.4004 252.0996)" class="st21 st12 st20">R</text>
</g>
<g id="text1032">
	<g>
		<text transform="matrix(1.02 0 0 1 230.4004 266.2002)" class="st12 st18">   </text>
	</g>
	<text transform="matrix(1.02 0 0 1 230.4004 266.2002)" class="st19 st12 st20">R</text>
</g>
<g id="text1034">
	<g>
		<text transform="matrix(1.02 0 0 1 240.5996 275.5996)" class="st12 st18">   </text>
	</g>
	<text transform="matrix(1.02 0 0 1 240.5996 275.5996)" class="st12 st20">G</text>
</g>
<g id="text1036">
	<g>
		<text transform="matrix(1.02 0 0 1 245.2998 289.2002)" class="st12 st18">   </text>
	</g>
	<text transform="matrix(1.02 0 0 1 245.2998 289.2002)" class="st19 st12 st20 st14">A</text>
</g>
<g id="text1038">
	<g>
		<text transform="matrix(1.02 0 0 1 241 302.7002)" class="st12 st18">   </text>
	</g>
	<text transform="matrix(1.02 0 0 1 241 302.7002)" class="st21 st12 st20">C</text>
</g>
<g id="text1040">
	<g>
		<text transform="matrix(1.02 0 0 1 230 312.2002)" class="st12 st18">   </text>
	</g>
	<text transform="matrix(1.02 0 0 1 230 312.2002)" class="st12 st20">G</text>
</g>
<g id="text1042">
	<g>
		<text transform="matrix(1.02 0 0 1 230.4004 326.2998)" class="st12 st18">   </text>
	</g>
	<text transform="matrix(1.02 0 0 1 230.4004 326.2998)" class="st12 st20">C</text>
</g>
<g id="text1044">
	<g>
		<text transform="matrix(1.02 0 0 1 240.9004 336.2002)" class="st12 st18">   </text>
	</g>
	<text transform="matrix(1.02 0 0 1 240.9004 336.2002)" class="st21 st12 st20 st14">A</text>
</g>
<g id="text1046">
	<g>
		<text transform="matrix(1.02 0 0 1 255.2002 336.2002)" class="st12 st18">   </text>
	</g>
	<text transform="matrix(1.02 0 0 1 255.2002 336.2002)" class="st21 st12 st20 st14">A</text>
</g>
<g id="text1048">
	<g>
		<text transform="matrix(1.02 0 0 1 265.4004 326.2998)" class="st12 st18">   </text>
	</g>
	<text transform="matrix(1.02 0 0 1 265.4004 326.2998)" class="st21 st12 st20 st14">A</text>
</g>
<g id="text1050">
	<g>
		<text transform="matrix(1.02 0 0 1 264.5996 312.2002)" class="st12 st18">   </text>
	</g>
	<text transform="matrix(1.02 0 0 1 264.5996 312.2002)" class="st19 st12 st20">G</text>
</g>
<g id="text1052">
	<g>
		<text transform="matrix(1.02 0 0 1 265 298.0996)" class="st12 st18">   </text>
	</g>
	<text transform="matrix(1.02 0 0 1 265 298.0996)" class="st12 st20">C</text>
</g>
<g id="text1054">
	<g>
		<text transform="matrix(1.02 0 0 1 265.4004 284)" class="st12 st18">   </text>
	</g>
	<text transform="matrix(1.02 0 0 1 265.4004 284)" class="st12 st20">Y</text>
</g>
<g id="text1056">
	<g>
		<text transform="matrix(1.02 0 0 1 252.5996 277)" class="st12 st18">   </text>
	</g>
	<text transform="matrix(1.02 0 0 1 252.5996 277)" class="st19 st12 st20">R</text>
</g>
<g id="text1058">
	<g>
		<text transform="matrix(1.02 0 0 1 265.4004 269.9004)" class="st12 st18">   </text>
	</g>
	<text transform="matrix(1.02 0 0 1 265.4004 269.9004)" class="st19 st12 st20">Y</text>
</g>
<path class="st17" d="M275,250.8c0,2.7-2.1,4.8-4.8,4.8h-0.1c-2.6,0.4-5.1-1.4-5.5-4c-0.4-2.6,1.4-5.1,4-5.5c0,0,0,0,0.1,0
	c0.5-0.1,0.9-0.1,1.4,0C272.8,246,274.9,248.1,275,250.8C275,250.8,275,250.8,275,250.8z"/>
<g id="text1060">
	<g>
		<text transform="matrix(1.02 0 0 1 264.5996 241.7998)" class="st12 st18">   </text>
	</g>
	<text transform="matrix(1.02 0 0 1 264.5996 241.7998)" class="st19 st12 st20">G</text>
</g>
<g id="text1062">
	<g>
		<text transform="matrix(1.02 0 0 1 264.5996 227.7002)" class="st12 st18">   </text>
	</g>
	<text transform="matrix(1.02 0 0 1 264.5996 227.7002)" class="st19 st12 st20">G</text>
</g>
<g id="text1064">
	<g>
		<text transform="matrix(1.02 0 0 1 265.4004 213.5996)" class="st12 st18">   </text>
	</g>
	<text transform="matrix(1.02 0 0 1 265.4004 213.5996)" class="st19 st12 st20">Y</text>
</g>
<g id="text1066">
	<g>
		<text transform="matrix(1.02 0 0 1 265 199.5)" class="st12 st18">   </text>
	</g>
	<text transform="matrix(1.02 0 0 1 265 199.5)" class="st12 st20">C</text>
</g>
<g id="text1068">
	<g>
		<text transform="matrix(1.02 0 0 1 251.7998 195)" class="st12 st18">   </text>
	</g>
	<text transform="matrix(1.02 0 0 1 251.7998 195)" class="st19 st12 st20">Y</text>
</g>
<path class="st22" d="M253,178.5c0.1,2.6-2,4.7-4.6,4.8c0,0,0,0,0,0h-0.2c-2.7,0-4.9-2.1-4.9-4.8c0.1-2.7,2.2-4.8,4.9-4.7
	c0,0,0,0,0,0l0,0c2.6-0.1,4.7,2,4.8,4.6C253,178.4,253,178.4,253,178.5L253,178.5z"/>
<path class="st22" d="M253,164.4c0.1,2.6-2,4.7-4.6,4.8c0,0,0,0,0,0h-0.2c-2.6,0.4-5-1.5-5.4-4.1c-0.4-2.6,1.4-5,4-5.4
	c0.5-0.1,0.9-0.1,1.4,0c2.6-0.1,4.7,2,4.8,4.6C253,164.3,253,164.3,253,164.4L253,164.4z"/>
<path class="st22" d="M261.4,153c0.4,2.7-1.5,5.2-4.1,5.5c-2.7,0.4-5.2-1.5-5.5-4.1c-0.4-2.7,1.5-5.2,4.1-5.5c0.5-0.1,0.9-0.1,1.4,0
	C259.4,149.2,261.1,150.8,261.4,153z"/>
<path class="st23" d="M275,148.5c-0.1,2.7-2.2,4.8-4.9,4.7c0,0,0,0,0,0l0,0c-2.6,0.1-4.7-2-4.8-4.6c0,0,0,0,0,0v-0.1
	c0.4-2.7,2.9-4.5,5.5-4.2C273,144.7,274.7,146.3,275,148.5L275,148.5z"/>
<path class="st23" d="M275,134.4c-0.1,2.7-2.2,4.8-4.9,4.7c0,0,0,0,0,0l0,0c-2.6,0.1-4.7-2-4.8-4.6c0,0,0,0,0,0v-0.1
	c0-2.7,2.1-4.8,4.8-4.8C272.8,129.6,275,131.7,275,134.4z"/>
<path class="st22" d="M275,120.3c-0.4,2.7-2.9,4.5-5.5,4.2c-2.2-0.3-3.8-2-4.2-4.2c0.4-2.7,2.9-4.5,5.5-4.2
	C273,116.5,274.7,118.1,275,120.3z"/>
<path class="st22" d="M275,106.2c0,2.7-2.2,4.8-4.9,4.8c-2.7,0-4.8-2.1-4.8-4.8c0-2.6,2.1-4.7,4.7-4.7c0,0,0,0,0,0h0.1
	C272.8,101.4,274.9,103.5,275,106.2C275,106.2,275,106.2,275,106.2L275,106.2z"/>
<path class="st23" d="M270.9,92.7c0,2.7-2.2,4.8-4.9,4.8c-2.7,0-4.8-2.1-4.8-4.8c0-2.6,2.1-4.7,4.7-4.7c0,0,0,0,0,0h0.1
	C268.7,87.9,270.8,90,270.9,92.7C270.9,92.7,270.9,92.7,270.9,92.7L270.9,92.7z"/>
<path class="st23" d="M279.4,81.4c-0.4,2.7-2.9,4.5-5.5,4.2c-2.2-0.3-3.8-2-4.2-4.2c0.4-2.7,2.9-4.5,5.5-4.2
	C277.4,77.6,279.1,79.2,279.4,81.4z"/>
<path class="st23" d="M293.8,81.4c0,2.7-2.2,4.8-4.9,4.8c-2.7,0-4.8-2.1-4.8-4.8c0-2.6,2.1-4.7,4.7-4.7c0,0,0,0,0,0h0.1
	C291.6,76.6,293.7,78.7,293.8,81.4C293.8,81.4,293.8,81.4,293.8,81.4L293.8,81.4z"/>
<path class="st22" d="M302.3,92.7c-0.4,2.7-2.9,4.5-5.5,4.2c-2.2-0.3-3.8-2-4.2-4.2c0.4-2.7,2.9-4.5,5.5-4.2
	C300.3,88.9,302,90.5,302.3,92.7z"/>
<path class="st22" d="M298.2,106.2c0.1,2.7-2.1,4.9-4.8,5c-2.7,0.1-4.9-2.1-5-4.8c-0.1-2.7,2.1-4.9,4.8-5h0.1
	C296,101.4,298.2,103.5,298.2,106.2z"/>
<path class="st22" d="M298.2,120.3c0.1,2.7-2.1,4.9-4.8,5c-2.7,0.1-4.9-2.1-5-4.8c-0.1-2.7,2.1-4.9,4.8-5h0.1
	C296,115.5,298.2,117.6,298.2,120.3z"/>
<path class="st23" d="M298.2,134.4c0.1,2.7-2.1,4.9-4.8,5c-2.7,0.1-4.9-2.1-5-4.8c-0.1-2.7,2.1-4.9,4.8-5h0.1c2.7-0.1,4.8,2,4.9,4.7
	c0,0,0,0,0,0V134.4z"/>
<path class="st23" d="M298.2,148.5c0.1,2.7-2.1,4.9-4.8,5c-2.7,0.1-4.9-2.1-5-4.8c-0.1-2.7,2.1-4.9,4.8-5h0.1c2.7-0.1,4.8,2,4.9,4.7
	c0,0,0,0,0,0V148.5z"/>
<path class="st24" d="M308.8,157.9c0.1,2.7-2,5-4.7,5.1c-2.7,0.1-5-2-5.1-4.7c-0.1-2.7,2-5,4.7-5.1h0.2
	C306.6,153.1,308.7,155.2,308.8,157.9C308.8,157.9,308.8,157.9,308.8,157.9z"/>
<path class="st22" d="M312.7,171.5c0,2.6-2.1,4.7-4.7,4.7c0,0,0,0,0,0h-0.1c-2.6,0.4-5.1-1.4-5.5-4c-0.4-2.6,1.4-5.1,4-5.5
	c0,0,0,0,0.1,0c0.5-0.1,0.9-0.1,1.4,0c2.6-0.1,4.7,2,4.8,4.6c0,0,0,0,0,0L312.7,171.5z"/>
<path class="st22" d="M308.8,185c0.1,2.7-2,5-4.7,5.1c-2.7,0.1-5-2-5.1-4.7c-0.1-2.7,2-5,4.7-5.1h0.2
	C306.6,180.2,308.7,182.3,308.8,185C308.8,185,308.8,185,308.8,185z"/>
<g id="text1070">
	<g>
		<text transform="matrix(1.02 0 0 1 287.7998 199.5)" class="st12 st18">   </text>
	</g>
	<text transform="matrix(1.02 0 0 1 287.7998 199.5)" class="st21 st12 st20">G</text>
</g>
<g id="text1072">
	<g>
		<text transform="matrix(1.02 0 0 1 288.2002 213.5996)" class="st12 st18">   </text>
	</g>
	<text transform="matrix(1.02 0 0 1 288.2002 213.5996)" class="st19 st12 st20">R</text>
</g>
<g id="text1074">
	<g>
		<text transform="matrix(1.02 0 0 1 288.5996 227.7002)" class="st12 st18">   </text>
	</g>
	<text transform="matrix(1.02 0 0 1 288.5996 227.7002)" class="st12 st20">Y</text>
</g>
<g id="text1076">
	<g>
		<text transform="matrix(1.02 0 0 1 302.5 227.7002)" class="st12 st18">   </text>
	</g>
	<text transform="matrix(1.02 0 0 1 302.5 227.7002)" class="st19 st12 st20">R</text>
</g>
<g id="text1078">
	<g>
		<text transform="matrix(1.02 0 0 1 302.0996 241.7998)" class="st12 st18">   </text>
	</g>
	<text transform="matrix(1.02 0 0 1 302.0996 241.7998)" class="st21 st12 st20">G</text>
</g>
<g id="text1080">
	<g>
		<text transform="matrix(1.02 0 0 1 288.2002 241.7998)" class="st12 st18">   </text>
	</g>
	<text transform="matrix(1.02 0 0 1 288.2002 241.7998)" class="st19 st12 st20">C</text>
</g>
<path class="st17" d="M298.2,250.8c0.1,2.7-2,5-4.7,5.1c-2.7,0.1-5-2-5.1-4.7c-0.1-2.7,2-5,4.7-5.1h0.2
	C296,246,298.1,248.1,298.2,250.8C298.2,250.8,298.2,250.8,298.2,250.8z"/>
<path class="st22" d="M298.2,264.9c0.4,2.7-1.5,5.2-4.1,5.5s-5.2-1.5-5.5-4.1c-0.4-2.7,1.5-5.2,4.1-5.5c0.5-0.1,0.9-0.1,1.4,0
	C296.2,261.1,297.9,262.7,298.2,264.9z"/>
<g id="text1082">
	<g>
		<text transform="matrix(1.02 0 0 1 288.2002 284)" class="st12 st18">   </text>
	</g>
	<text transform="matrix(1.02 0 0 1 288.2002 284)" class="st21 st12 st20">R</text>
</g>
<g id="text1084">
	<g>
		<text transform="matrix(1.02 0 0 1 287.7998 298.0996)" class="st12 st18">   </text>
	</g>
	<text transform="matrix(1.02 0 0 1 287.7998 298.0996)" class="st12 st20">G</text>
</g>
<g id="text1086">
	<g>
		<text transform="matrix(1.02 0 0 1 288.5996 312.2002)" class="st12 st18">   </text>
	</g>
	<text transform="matrix(1.02 0 0 1 288.5996 312.2002)" class="st21 st12 st20">Y</text>
</g>
<g id="text1088">
	<g>
		<text transform="matrix(1.02 0 0 1 288.2002 326.2998)" class="st12 st18">   </text>
	</g>
	<text transform="matrix(1.02 0 0 1 288.2002 326.2998)" class="st12 st20">U</text>
</g>
<g id="text1090">
	<g>
		<text transform="matrix(1.02 0 0 1 298.2998 336.2002)" class="st12 st18">   </text>
	</g>
	<text transform="matrix(1.02 0 0 1 298.2998 336.2002)" class="st21 st12 st20">R</text>
</g>
<g id="text1092">
	<g>
		<text transform="matrix(1.02 0 0 1 312.7002 336.2002)" class="st12 st18">   </text>
	</g>
	<text transform="matrix(1.02 0 0 1 312.7002 336.2002)" class="st12 st20">C</text>
</g>
<g id="text1094">
	<g>
		<text transform="matrix(1.02 0 0 1 327 336.2002)" class="st12 st18">   </text>
	</g>
	<text transform="matrix(1.02 0 0 1 327 336.2002)" class="st19 st12 st20">C</text>
</g>
<g id="text1096">
	<g>
		<text transform="matrix(1.02 0 0 1 341.4004 336.2002)" class="st12 st18">   </text>
	</g>
	<text transform="matrix(1.02 0 0 1 341.4004 336.2002)" class="st19 st12 st20">R</text>
</g>
<g id="text1098">
	<g>
		<text transform="matrix(1.02 0 0 1 355.7002 336.2002)" class="st12 st18">   </text>
	</g>
	<text transform="matrix(1.02 0 0 1 355.7002 336.2002)" class="st19 st12 st20">R</text>
</g>
<g id="text1100">
	<g>
		<text transform="matrix(1.02 0 0 1 370 336.2002)" class="st12 st18">   </text>
	</g>
	<text transform="matrix(1.02 0 0 1 370 336.2002)" class="st19 st12 st20">R</text>
</g>
<path class="st25" d="M44.4,331.2h7.2"/>
<g id="text1102">
	<g>
		<text transform="matrix(1.02 0 0 1 31 336.2002)" class="st12 st18">   </text>
	</g>
	<text transform="matrix(1.02 0 0 1 31 336.2002)" class="st12 st20">5&apos;</text>
</g>
<text transform="matrix(1 0 0 1 5.5032 19.2612)" class="st12 st26">c-di-GMP-I Riboswitch</text>
</svg>
