<?xml version="1.0" encoding="utf-8"?>
<!-- Generator: Adobe Illustrator 26.0.0, SVG Export Plug-In . SVG Version: 6.00 Build 0)  -->
<svg version="1.1" id="图层_1" xmlns="http://www.w3.org/2000/svg" xmlns:xlink="http://www.w3.org/1999/xlink" x="0px" y="0px"
	 viewBox="0 0 400 400" style="enable-background:new 0 0 400 400;" xml:space="preserve">
<style type="text/css">
	.st0{fill:#F5D8D9;}
	.st1{fill:#D7EFC5;}
	.st2{fill:none;stroke:#5C5C5C;stroke-width:0.5;stroke-miterlimit:10;}
	.st3{fill:#D81408;}
	.st4{fill:none;stroke:#000000;stroke-width:0.72;stroke-miterlimit:10;}
	.st5{fill:#807C88;}
	.st6{fill:#FFFFFF;}
	.st7{fill:none;stroke:#000000;stroke-width:1.5;stroke-miterlimit:10;}
	.st8{fill:none;stroke:#5C5C5C;stroke-miterlimit:10;}
	.st9{fill:#5C5C5C;}
	.st10{fill:none;stroke:#000000;stroke-width:0.5;stroke-miterlimit:10;}
	.st11{fill:#030303;}
	.st12{fill:#231F20;}
	.st13{fill:#D72026;}
	.st14{fill:#808080;}
	.st15{fill:#CE2127;}
	.st16{fill:#070606;}
	.st17{fill:#FDD2D7;}
	.st18{fill:none;stroke:#000000;stroke-width:1.944;stroke-miterlimit:10;}
	.st19{fill:#D8EFB4;}
	.st20{fill:#D0D8E9;}
	.st21{fill:none;stroke:#000000;stroke-width:0.5;}
</style>
<g>
	<g>
		<path d="M156.1,32.7c-0.5,0.3-1.6,0.6-3,0.6c-2.7,0-4-1.8-4-4c0-3.6,2.6-6.9,6.4-6.9c1,0,1.9,0.3,2.2,0.5l-0.5,1.4
			c-0.4-0.2-1-0.4-1.8-0.4c-2.7,0-4.4,2.7-4.4,5.2c0,1.7,0.9,2.8,2.6,2.8c1.1,0,1.9-0.3,2.4-0.6L156.1,32.7z"/>
		<path d="M158.1,33.1l1.3-6.7c0.3-1.4,0.4-2.7,0.5-3.7h1.6c-0.1,0.7-0.2,1.4-0.3,2.3h0.1c0.7-1.4,1.8-2.5,3.2-2.5
			c0.2,0,0.4,0,0.5,0l-0.3,1.8c-0.1,0-0.3,0-0.5,0c-1.5,0-2.9,1.9-3.4,4.3l-0.9,4.6C159.9,33.1,158.1,33.1,158.1,33.1z"/>
		<path d="M172.1,32.7c-0.5,0.3-1.6,0.6-3,0.6c-2.7,0-4-1.8-4-4c0-3.6,2.6-6.9,6.4-6.9c1,0,1.9,0.3,2.2,0.5l-0.5,1.4
			c-0.4-0.2-1-0.4-1.8-0.4c-2.7,0-4.4,2.7-4.4,5.2c0,1.7,0.9,2.8,2.6,2.8c1.1,0,1.9-0.3,2.4-0.6L172.1,32.7z"/>
		<path d="M176.8,18.8c0.9-0.2,1.9-0.3,3.1-0.3c1.5,0,2.6,0.3,3.3,1c0.7,0.6,1.1,1.3,1.1,2.3c0,1.8-1.5,3.2-3.1,3.6v0
			c1.3,0.4,2.4,1.5,2.4,3.2c0,1.5-0.8,2.7-1.7,3.4c-1.2,0.9-2.8,1.2-4.7,1.2c-1.2,0-2.3-0.1-3-0.2L176.8,18.8z M176.2,31.7
			c0.5,0.1,1,0.1,1.5,0.1c2.1,0,4.1-0.9,4.1-3.2c0-1.7-1.4-2.5-3.1-2.5h-1.5L176.2,31.7z M177.5,24.8h1.3c2.1,0,3.7-1.1,3.7-2.8
			c0-1.4-1.1-2-2.6-2c-0.7,0-1.2,0-1.5,0.1L177.5,24.8z"/>
	</g>
	<g>
		<path d="M86,226.4h-3.6l-0.4,2.4c0.2,0,0.4-0.1,0.8-0.1c0.7,0,1.4,0.2,2,0.5c0.7,0.4,1.3,1.2,1.3,2.4c0,1.8-1.5,3.2-3.5,3.2
			c-1,0-1.9-0.3-2.3-0.6l0.3-1c0.4,0.2,1.2,0.5,2,0.5c1.2,0,2.2-0.8,2.2-2c0-1.2-0.8-2.1-2.7-2.1c-0.5,0-1,0-1.3,0.1l0.6-4.5H86
			L86,226.4L86,226.4z"/>
		<path d="M87.6,228.3c0.3-1.2,0.9-2.8,1.3-3.4l0.8-0.1c-0.3,0.8-0.7,2.3-0.8,3.4L87.6,228.3z"/>
	</g>
	<rect x="200.9" y="215.9" class="st0" width="31.3" height="9.7"/>
	<rect x="213.1" y="219.4" width="7" height="2.6"/>
	<rect x="200.9" y="202.9" class="st1" width="31.3" height="9.7"/>
	<rect x="213.1" y="206.5" width="7" height="2.6"/>
	<rect x="200.9" y="190" class="st1" width="31.3" height="9.7"/>
	<rect x="213.1" y="193.5" width="7" height="2.6"/>
	<rect x="200.9" y="177" class="st1" width="31.3" height="9.7"/>
	<rect x="213.1" y="180.6" width="7" height="2.6"/>
	<rect x="200.9" y="164.1" class="st1" width="31.3" height="9.7"/>
	<rect x="213.1" y="167.6" width="7" height="2.6"/>
	<rect x="213.1" y="154.7" width="7" height="2.6"/>
	<rect x="267" y="85" class="st1" width="9.3" height="31.7"/>
	<rect x="270.3" y="97.3" width="2.6" height="7"/>
	<rect x="279.9" y="85" class="st1" width="9.3" height="31.7"/>
	<rect x="283.3" y="97.3" width="2.6" height="7"/>
	<rect x="292.9" y="85" class="st1" width="9.3" height="31.7"/>
	<rect x="296.2" y="97.3" width="2.6" height="7"/>
	<line class="st2" x1="99.3" y1="222.7" x2="177" y2="222.7"/>
	<path class="st2" d="M197.5,160.4c-29.2-8.9-47.9-37.5-44.1-67.9"/>
	<circle class="st3" cx="105.8" cy="229.9" r="4"/>
	<circle class="st4" cx="105.8" cy="229.9" r="4"/>
	<circle class="st3" cx="118.7" cy="229.9" r="4"/>
	<circle class="st4" cx="118.7" cy="229.9" r="4"/>
	<g>
		<path d="M135.5,234.3c-0.6,0.2-1.7,0.5-3,0.5c-1.5,0-2.7-0.4-3.6-1.3c-0.8-0.8-1.4-2.1-1.4-3.6c0-2.9,2-5,5.3-5
			c1.1,0,2,0.2,2.4,0.4l-0.3,1c-0.5-0.2-1.2-0.4-2.1-0.4c-2.4,0-3.9,1.5-3.9,3.9c0,2.5,1.5,3.9,3.7,3.9c0.8,0,1.4-0.1,1.7-0.3v-2.9
			h-2v-1h3.2C135.5,229.6,135.5,234.3,135.5,234.3z"/>
	</g>
	<g>
		<path class="st3" d="M148.5,234.3c-0.6,0.2-1.7,0.5-3,0.5c-1.5,0-2.7-0.4-3.6-1.3c-0.8-0.8-1.4-2.1-1.4-3.6c0-2.9,2-5,5.3-5
			c1.1,0,2,0.2,2.4,0.4l-0.3,1c-0.5-0.2-1.2-0.4-2.1-0.4c-2.4,0-3.9,1.5-3.9,3.9c0,2.5,1.5,3.9,3.7,3.9c0.8,0,1.4-0.1,1.7-0.3v-2.9
			h-2v-1h3.2V234.3z"/>
	</g>
	<circle class="st3" cx="157.6" cy="229.9" r="4"/>
	<circle class="st4" cx="157.6" cy="229.9" r="4"/>
	<g>
		<path class="st5" d="M174.4,234.3c-0.6,0.2-1.7,0.5-3,0.5c-1.5,0-2.7-0.4-3.6-1.3c-0.8-0.8-1.4-2.1-1.4-3.6c0-2.9,2-5,5.3-5
			c1.1,0,2,0.2,2.4,0.4l-0.3,1c-0.5-0.2-1.2-0.4-2.1-0.4c-2.4,0-3.9,1.5-3.9,3.9c0,2.5,1.5,3.9,3.7,3.9c0.8,0,1.4-0.1,1.7-0.3v-2.9
			h-2v-1h3.2V234.3z"/>
	</g>
	<g>
		<path class="st3" d="M181.7,231.7l-1,3h-1.3l3.3-9.7h1.5l3.3,9.7h-1.3l-1-3H181.7z M184.9,230.7l-1-2.8c-0.2-0.6-0.3-1.2-0.5-1.8
			h0c-0.1,0.6-0.3,1.2-0.5,1.8l-0.9,2.8L184.9,230.7L184.9,230.7z"/>
	</g>
	<g>
		<path class="st3" d="M194.1,225v5.8c0,2.2,1,3.1,2.3,3.1c1.4,0,2.4-0.9,2.4-3.1V225h1.3v5.7c0,3-1.6,4.2-3.7,4.2
			c-2,0-3.5-1.1-3.5-4.1V225L194.1,225L194.1,225z"/>
	</g>
	<g>
		<path class="st3" d="M209.4,225.1c-0.6,0.2-1.7,0.5-3,0.5c-1.5,0-2.7-0.4-3.6-1.3c-0.8-0.8-1.4-2.1-1.4-3.6c0-2.9,2-5,5.3-5
			c1.1,0,2,0.2,2.4,0.4l-0.3,1c-0.5-0.2-1.2-0.4-2.1-0.4c-2.4,0-3.9,1.5-3.9,3.9c0,2.5,1.5,3.9,3.7,3.9c0.8,0,1.4-0.1,1.7-0.3v-2.9
			h-2v-1h3.2V225.1z"/>
	</g>
	<g>
		<path class="st3" d="M202.8,203.1c0.6-0.1,1.6-0.2,2.4-0.2c1.3,0,2.2,0.3,2.8,0.8c0.5,0.4,0.8,1.1,0.8,1.8c0,1.3-0.8,2.1-1.8,2.5
			v0c0.7,0.3,1.2,0.9,1.4,2c0.3,1.4,0.5,2.3,0.7,2.7h-1.3c-0.2-0.3-0.4-1.1-0.6-2.3c-0.3-1.3-0.8-1.8-2-1.9h-1.2v4.2h-1.3
			C202.8,212.6,202.8,203.1,202.8,203.1z M204.1,207.5h1.3c1.3,0,2.2-0.7,2.2-1.8c0-1.3-0.9-1.8-2.2-1.8c-0.6,0-1,0.1-1.2,0.1V207.5
			z"/>
	</g>
	<circle class="st3" cx="205.6" cy="194.8" r="4"/>
	<circle class="st4" cx="205.6" cy="194.8" r="4"/>
	<g>
		<path class="st5" d="M209.4,186.3c-0.6,0.2-1.7,0.5-3,0.5c-1.5,0-2.7-0.4-3.6-1.3c-0.8-0.8-1.4-2.1-1.4-3.6c0-2.9,2-5,5.3-5
			c1.1,0,2,0.2,2.4,0.4l-0.3,1c-0.5-0.2-1.2-0.4-2.1-0.4c-2.4,0-3.9,1.5-3.9,3.9c0,2.5,1.5,3.9,3.7,3.9c0.8,0,1.4-0.1,1.7-0.3v-2.9
			h-2v-1h3.2V186.3z"/>
	</g>
	<g>
		<path class="st5" d="M203.3,164.1v5.8c0,2.2,1,3.1,2.3,3.1c1.4,0,2.4-0.9,2.4-3.1v-5.8h1.3v5.7c0,3-1.6,4.2-3.7,4.2
			c-2,0-3.5-1.1-3.5-4.1v-5.7H203.3z"/>
	</g>
	<g>
		<path d="M205,160.8v-4.1l-3.1-5.6h1.4l1.4,2.7c0.4,0.7,0.7,1.3,1,2h0c0.3-0.6,0.6-1.3,1-2l1.4-2.7h1.4l-3.2,5.6v4.1H205z"/>
	</g>
	<g>
		<path class="st5" d="M197.2,155.8c-0.4,0.2-1.4,0.5-2.6,0.5c-2.7,0-4.8-1.7-4.8-4.9c0-3.1,2.1-5.1,5.1-5.1c1.2,0,2,0.3,2.3,0.4
			l-0.3,1c-0.5-0.2-1.1-0.4-1.9-0.4c-2.3,0-3.8,1.5-3.8,4c0,2.4,1.4,3.9,3.7,3.9c0.8,0,1.6-0.2,2.1-0.4L197.2,155.8z"/>
	</g>
	<circle class="st3" cx="182.3" cy="144.8" r="4"/>
	<circle class="st4" cx="182.3" cy="144.8" r="4"/>
	<g>
		<path class="st3" d="M176.6,140.4c-0.4,0.2-1.4,0.5-2.6,0.5c-2.7,0-4.8-1.7-4.8-4.9c0-3.1,2.1-5.1,5.1-5.1c1.2,0,2,0.3,2.3,0.4
			l-0.3,1c-0.5-0.2-1.1-0.4-1.9-0.4c-2.3,0-3.8,1.5-3.8,4c0,2.4,1.4,3.9,3.7,3.9c0.8,0,1.6-0.2,2.1-0.4L176.6,140.4z"/>
	</g>
	<g>
		<path d="M169.6,129.5c-0.4,0.2-1.4,0.5-2.6,0.5c-2.7,0-4.8-1.7-4.8-4.9c0-3.1,2.1-5.1,5.1-5.1c1.2,0,2,0.3,2.3,0.4l-0.3,1
			c-0.5-0.2-1.1-0.4-1.9-0.4c-2.3,0-3.8,1.5-3.8,4c0,2.4,1.4,3.9,3.7,3.9c0.8,0,1.6-0.2,2.1-0.4L169.6,129.5z"/>
	</g>
	<circle class="st3" cx="161.5" cy="112.8" r="4"/>
	<circle class="st4" cx="161.5" cy="112.8" r="4"/>
	<circle class="st6" cx="160.1" cy="99.9" r="4"/>
	<circle class="st4" cx="160.1" cy="99.9" r="4"/>
	<path class="st7" d="M160.5,93.4c3.7-30.6,31.6-52.3,62.1-48.6c4.1,0.5,8.1,1.4,12,2.8"/>
	<g>
		<path class="st3" d="M238.8,52l-1,3.1h-1.3l3.3-9.7h1.5l3.3,9.7h-1.3l-1-3.1C242.2,52,238.8,52,238.8,52z M242,51l-1-2.8
			c-0.2-0.6-0.3-1.2-0.5-1.8h0c-0.1,0.6-0.3,1.2-0.5,1.8l-0.9,2.8C239.1,51,242,51,242,51z"/>
	</g>
	<g>
		<path class="st3" d="M249.7,59l-1,3.1h-1.3l3.3-9.7h1.5l3.3,9.7h-1.3l-1-3.1C253.1,59,249.7,59,249.7,59z M252.8,58l-1-2.8
			c-0.2-0.6-0.3-1.2-0.5-1.8h0c-0.1,0.6-0.3,1.2-0.5,1.8l-0.9,2.8C249.9,58,252.8,58,252.8,58z"/>
	</g>
	<g>
		<path class="st5" d="M264,71.1c-0.4,0.2-1.4,0.5-2.6,0.5c-2.7,0-4.8-1.7-4.8-4.9c0-3.1,2.1-5.1,5.1-5.1c1.2,0,2,0.3,2.3,0.4
			l-0.3,1c-0.5-0.2-1.1-0.4-1.9-0.4c-2.3,0-3.8,1.5-3.8,4c0,2.4,1.4,3.9,3.7,3.9c0.8,0,1.6-0.2,2.1-0.4L264,71.1z"/>
	</g>
	<g>
		<path class="st5" d="M270.6,82.3c-0.4,0.2-1.4,0.5-2.6,0.5c-2.7,0-4.8-1.7-4.8-4.9c0-3.1,2.1-5.1,5.1-5.1c1.2,0,2,0.3,2.3,0.4
			l-0.3,1c-0.5-0.2-1.1-0.4-1.9-0.4c-2.3,0-3.8,1.5-3.8,4c0,2.4,1.4,3.9,3.7,3.9c0.8,0,1.6-0.2,2.1-0.4L270.6,82.3z"/>
	</g>
	<g>
		<path d="M275.5,94.2c-0.6,0.2-1.7,0.5-3,0.5c-1.5,0-2.7-0.4-3.6-1.3c-0.8-0.8-1.4-2.1-1.4-3.6c0-2.9,2-5,5.3-5
			c1.1,0,2,0.2,2.4,0.4l-0.3,1c-0.5-0.2-1.2-0.4-2.1-0.4c-2.4,0-3.9,1.5-3.9,3.9c0,2.5,1.5,3.9,3.7,3.9c0.8,0,1.4-0.1,1.7-0.3v-2.9
			h-2v-1h3.2V94.2z"/>
	</g>
	<g>
		<path class="st5" d="M288.3,94.4c-0.4,0.2-1.4,0.5-2.6,0.5c-2.7,0-4.8-1.7-4.8-4.9c0-3.1,2.1-5.1,5.1-5.1c1.2,0,2,0.3,2.3,0.4
			l-0.3,1c-0.5-0.2-1.1-0.4-1.9-0.4c-2.3,0-3.8,1.5-3.8,4c0,2.4,1.4,3.9,3.7,3.9c0.8,0,1.6-0.2,2.1-0.4L288.3,94.4z"/>
	</g>
	<g>
		<path class="st5" d="M296.9,94.7v-4.1l-3.1-5.6h1.4l1.4,2.7c0.4,0.7,0.7,1.3,1,2h0c0.3-0.6,0.6-1.3,1-2L300,85h1.4l-3.2,5.6v4.1
			C298.1,94.7,296.9,94.7,296.9,94.7z"/>
	</g>
	<line class="st7" x1="305.6" y1="89.8" x2="336.4" y2="89.8"/>
	<line class="st7" x1="305.6" y1="111.8" x2="336.4" y2="111.8"/>
	<rect x="309.2" y="97.3" width="2.6" height="7"/>
	<rect x="322.1" y="97.3" width="2.6" height="7"/>
	<rect x="335.1" y="97.3" width="2.6" height="7"/>
	<path class="st7" d="M336.4,89.8c6.1-10.5,19.5-14.1,30.1-8.1c10.5,6.1,14.1,19.5,8.1,30.1c-6.1,10.5-19.5,14.1-30.1,8.1
		c-3.3-1.9-6.1-4.7-8.1-8.1"/>
	<path d="M337.7,89.8c0,0.7-0.6,1.3-1.3,1.3s-1.3-0.6-1.3-1.3c0-0.7,0.6-1.3,1.3-1.3S337.7,89.1,337.7,89.8"/>
	<path d="M337.7,111.8c0,0.7-0.6,1.3-1.3,1.3s-1.3-0.6-1.3-1.3c0-0.7,0.6-1.3,1.3-1.3S337.7,111.1,337.7,111.8"/>
	<g>
		<path class="st5" d="M294.7,107.1c0.6-0.1,1.6-0.2,2.4-0.2c1.3,0,2.2,0.3,2.8,0.8c0.5,0.4,0.8,1.1,0.8,1.8c0,1.3-0.8,2.1-1.8,2.5
			v0c0.7,0.3,1.2,0.9,1.4,2c0.3,1.4,0.5,2.3,0.7,2.7h-1.3c-0.2-0.3-0.4-1.1-0.6-2.3c-0.3-1.3-0.8-1.8-2-1.9H296v4.2h-1.3
			L294.7,107.1L294.7,107.1z M296,111.5h1.3c1.3,0,2.2-0.7,2.2-1.8c0-1.3-0.9-1.8-2.2-1.8c-0.6,0-1,0.1-1.2,0.1L296,111.5L296,111.5
			z"/>
	</g>
	<g>
		<path class="st5" d="M288.4,116.3c-0.6,0.2-1.7,0.5-3,0.5c-1.5,0-2.7-0.4-3.6-1.3c-0.8-0.8-1.4-2.1-1.4-3.6c0-2.9,2-5,5.3-5
			c1.1,0,2,0.2,2.4,0.4l-0.3,1c-0.5-0.2-1.2-0.4-2.1-0.4c-2.4,0-3.9,1.5-3.9,3.9c0,2.5,1.5,3.9,3.7,3.9c0.8,0,1.4-0.1,1.7-0.3v-2.9
			h-2v-1h3.2V116.3z"/>
	</g>
	<g>
		<path d="M275.3,116.4c-0.4,0.2-1.4,0.5-2.6,0.5c-2.7,0-4.8-1.7-4.8-4.9c0-3.1,2.1-5.1,5.1-5.1c1.2,0,2,0.3,2.3,0.4l-0.3,1
			c-0.5-0.2-1.1-0.4-1.9-0.4c-2.3,0-3.8,1.5-3.8,4c0,2.4,1.4,3.9,3.7,3.9c0.8,0,1.6-0.2,2.1-0.4L275.3,116.4z"/>
	</g>
	<g>
		<path class="st3" d="M264.1,118.9v5.8c0,2.2,1,3.1,2.3,3.1c1.4,0,2.4-0.9,2.4-3.1v-5.8h1.3v5.7c0,3-1.6,4.2-3.7,4.2
			c-2,0-3.5-1.1-3.5-4.1v-5.7H264.1z"/>
	</g>
	<g>
		<path class="st5" d="M263.5,139.2c-0.6,0.2-1.7,0.5-3,0.5c-1.5,0-2.7-0.4-3.6-1.3c-0.8-0.8-1.4-2.1-1.4-3.6c0-2.9,2-5,5.3-5
			c1.1,0,2,0.2,2.4,0.4l-0.3,1c-0.5-0.2-1.2-0.4-2.1-0.4c-2.4,0-3.9,1.5-3.9,3.9c0,2.5,1.5,3.9,3.7,3.9c0.8,0,1.4-0.1,1.7-0.3v-2.9
			h-2v-1h3.2V139.2z"/>
	</g>
	<g>
		<path class="st3" d="M248.7,145.7l-1,3.1h-1.3l3.3-9.7h1.5l3.3,9.7h-1.3l-1-3.1H248.7z M251.9,144.7l-1-2.8
			c-0.2-0.6-0.3-1.2-0.5-1.8h0c-0.1,0.6-0.3,1.2-0.5,1.8l-0.9,2.8C249,144.7,251.9,144.7,251.9,144.7z"/>
	</g>
	<g>
		<path class="st3" d="M237.2,145.9v5.8c0,2.2,1,3.1,2.3,3.1c1.4,0,2.4-0.9,2.4-3.1v-5.8h1.3v5.7c0,3-1.6,4.2-3.7,4.2
			c-2,0-3.5-1.1-3.5-4.1v-5.7H237.2z"/>
	</g>
	<g>
		<path class="st5" d="M231.5,160.4c-0.6,0.2-1.7,0.5-3,0.5c-1.5,0-2.7-0.4-3.6-1.3c-0.8-0.8-1.4-2.1-1.4-3.6c0-2.9,2-5,5.3-5
			c1.1,0,2,0.2,2.4,0.4l-0.3,1c-0.5-0.2-1.2-0.4-2.1-0.4c-2.4,0-3.9,1.5-3.9,3.9c0,2.5,1.5,3.9,3.7,3.9c0.8,0,1.4-0.1,1.7-0.3v-2.9
			h-2v-1h3.2V160.4z"/>
	</g>
	<g>
		<path class="st5" d="M225.9,170.7l-1,3.1h-1.3l3.3-9.7h1.5l3.3,9.7h-1.3l-1-3.1H225.9z M229.1,169.7l-1-2.8
			c-0.2-0.6-0.3-1.2-0.5-1.8h0c-0.1,0.6-0.3,1.2-0.5,1.8l-0.9,2.8C226.1,169.7,229.1,169.7,229.1,169.7z"/>
	</g>
	<g>
		<path class="st5" d="M231.3,186.4c-0.4,0.2-1.4,0.5-2.6,0.5c-2.7,0-4.8-1.7-4.8-4.9c0-3.1,2.1-5.1,5.1-5.1c1.2,0,2,0.3,2.3,0.4
			l-0.3,1c-0.5-0.2-1.1-0.4-1.9-0.4c-2.3,0-3.8,1.5-3.8,4c0,2.4,1.4,3.9,3.7,3.9c0.8,0,1.6-0.2,2.1-0.4L231.3,186.4z"/>
	</g>
	<circle class="st3" cx="227.6" cy="194.8" r="4"/>
	<circle class="st4" cx="227.6" cy="194.8" r="4"/>
	<g>
		<path class="st3" d="M227,212.6v-4.1l-3.1-5.6h1.4l1.4,2.7c0.4,0.7,0.7,1.3,1,2h0c0.3-0.6,0.6-1.3,1-2l1.4-2.7h1.4l-3.2,5.6v4.1
			H227z"/>
	</g>
	<g>
		<path class="st3" d="M231.3,225.3c-0.4,0.2-1.4,0.5-2.6,0.5c-2.7,0-4.8-1.7-4.8-4.9c0-3.1,2.1-5.1,5.1-5.1c1.2,0,2,0.3,2.3,0.4
			l-0.3,1c-0.5-0.2-1.1-0.4-1.9-0.4c-2.3,0-3.8,1.5-3.8,4c0,2.4,1.4,3.9,3.7,3.9c0.8,0,1.6-0.2,2.1-0.4L231.3,225.3z"/>
	</g>
	<g>
		<path class="st3" d="M234.5,225v5.8c0,2.2,1,3.1,2.3,3.1c1.4,0,2.4-0.9,2.4-3.1V225h1.3v5.7c0,3-1.6,4.2-3.7,4.2
			c-2,0-3.5-1.1-3.5-4.1V225L234.5,225L234.5,225z"/>
	</g>
	<g>
		<path class="st3" d="M246.9,225.2c0.6-0.1,1.6-0.2,2.4-0.2c1.3,0,2.2,0.3,2.8,0.8c0.5,0.4,0.8,1.1,0.8,1.8c0,1.3-0.8,2.1-1.8,2.5
			v0c0.7,0.3,1.2,0.9,1.4,2c0.3,1.4,0.5,2.3,0.7,2.7H252c-0.2-0.3-0.4-1.1-0.6-2.3c-0.3-1.3-0.8-1.8-2-1.9h-1.2v4.2h-1.3
			L246.9,225.2L246.9,225.2z M248.2,229.6h1.3c1.3,0,2.2-0.7,2.2-1.8c0-1.3-0.9-1.8-2.2-1.8c-0.6,0-1,0.1-1.2,0.1V229.6z"/>
	</g>
	<g>
		<path class="st5" d="M266.4,234.4c-0.4,0.2-1.4,0.5-2.6,0.5c-2.7,0-4.8-1.7-4.8-4.9c0-3,2.1-5.1,5.1-5.1c1.2,0,2,0.3,2.3,0.4
			l-0.3,1c-0.5-0.2-1.1-0.4-1.9-0.4c-2.3,0-3.8,1.5-3.8,4c0,2.4,1.4,3.9,3.7,3.9c0.8,0,1.6-0.2,2.1-0.4L266.4,234.4z"/>
	</g>
	<line class="st7" x1="92.8" y1="229.9" x2="99.3" y2="229.9"/>
	<g>
		<rect x="104.5" y="185.6" width="2.6" height="7"/>
		<rect x="117.4" y="185.6" width="2.6" height="7"/>
		<rect x="127" y="173.3" class="st1" width="9.3" height="31.7"/>
		<rect x="130.4" y="185.6" width="2.6" height="7"/>
		<rect x="140" y="173.3" class="st1" width="9.3" height="31.7"/>
		<rect x="143.3" y="185.6" width="2.6" height="7"/>
		<rect x="152.9" y="173.3" class="st1" width="9.3" height="31.7"/>
		<rect x="156.3" y="185.6" width="2.6" height="7"/>
		<rect x="165.9" y="173.3" class="st1" width="9.3" height="31.7"/>
		<rect x="169.2" y="185.6" width="2.6" height="7"/>
		<line class="st2" x1="99.3" y1="207.3" x2="177" y2="207.3"/>
		<line class="st2" x1="177" y1="170.9" x2="99.3" y2="170.9"/>
		<circle class="st3" cx="105.8" cy="200.1" r="4"/>
		<circle class="st4" cx="105.8" cy="200.1" r="4"/>
		<circle class="st3" cx="118.7" cy="200.1" r="4"/>
		<circle class="st4" cx="118.7" cy="200.1" r="4"/>
		<g>
			<path d="M135.5,204.5c-0.6,0.2-1.7,0.5-3,0.5c-1.5,0-2.7-0.4-3.6-1.3c-0.8-0.8-1.4-2.1-1.4-3.6c0-2.9,2-5,5.3-5
				c1.1,0,2,0.2,2.4,0.4l-0.3,1c-0.5-0.2-1.2-0.4-2.1-0.4c-2.4,0-3.9,1.5-3.9,3.9c0,2.5,1.5,3.9,3.7,3.9c0.8,0,1.4-0.1,1.7-0.3v-2.9
				h-2v-1h3.2C135.5,199.9,135.5,204.5,135.5,204.5z"/>
		</g>
		<g>
			<path class="st3" d="M148.5,204.5c-0.6,0.2-1.7,0.5-3,0.5c-1.5,0-2.7-0.4-3.6-1.3c-0.8-0.8-1.4-2.1-1.4-3.6c0-2.9,2-5,5.3-5
				c1.1,0,2,0.2,2.4,0.4l-0.3,1c-0.5-0.2-1.2-0.4-2.1-0.4c-2.4,0-3.9,1.5-3.9,3.9c0,2.5,1.5,3.9,3.7,3.9c0.8,0,1.4-0.1,1.7-0.3v-2.9
				h-2v-1h3.2V204.5z"/>
		</g>
		<circle class="st3" cx="157.6" cy="200.1" r="4"/>
		<circle class="st4" cx="157.6" cy="200.1" r="4"/>
		<g>
			<path class="st5" d="M174.4,204.5c-0.6,0.2-1.7,0.5-3,0.5c-1.5,0-2.7-0.4-3.6-1.3c-0.8-0.8-1.4-2.1-1.4-3.6c0-2.9,2-5,5.3-5
				c1.1,0,2,0.2,2.4,0.4l-0.3,1c-0.5-0.2-1.2-0.4-2.1-0.4c-2.4,0-3.9,1.5-3.9,3.9c0,2.5,1.5,3.9,3.7,3.9c0.8,0,1.4-0.1,1.7-0.3v-2.9
				h-2v-1h3.2V204.5z"/>
		</g>
		<g>
			<path class="st5" d="M174.2,182.7c-0.4,0.2-1.4,0.5-2.6,0.5c-2.7,0-4.8-1.7-4.8-4.9c0-3,2.1-5.1,5.1-5.1c1.2,0,2,0.3,2.3,0.4
				l-0.3,1c-0.5-0.2-1.1-0.4-1.9-0.4c-2.3,0-3.8,1.5-3.8,4c0,2.4,1.4,3.9,3.7,3.9c0.8,0,1.6-0.2,2.1-0.4L174.2,182.7z"/>
		</g>
		<circle class="st3" cx="157.6" cy="178.1" r="4"/>
		<circle class="st4" cx="157.6" cy="178.1" r="4"/>
		<g>
			<path class="st3" d="M148.3,182.7c-0.4,0.2-1.4,0.5-2.6,0.5c-2.7,0-4.8-1.7-4.8-4.9c0-3,2.1-5.1,5.1-5.1c1.2,0,2,0.3,2.3,0.4
				l-0.3,1c-0.5-0.2-1.1-0.4-1.9-0.4c-2.3,0-3.8,1.5-3.8,4c0,2.4,1.4,3.9,3.7,3.9c0.8,0,1.6-0.2,2.1-0.4L148.3,182.7z"/>
		</g>
		<g>
			<path d="M135.4,182.7c-0.4,0.2-1.4,0.5-2.6,0.5c-2.7,0-4.8-1.7-4.8-4.9c0-3,2.1-5.1,5.1-5.1c1.2,0,2,0.3,2.3,0.4l-0.3,1
				c-0.5-0.2-1.1-0.4-1.9-0.4c-2.3,0-3.8,1.5-3.8,4c0,2.4,1.4,3.9,3.7,3.9c0.8,0,1.6-0.2,2.1-0.4L135.4,182.7z"/>
		</g>
		<circle class="st3" cx="118.7" cy="178.1" r="4"/>
		<circle class="st4" cx="118.7" cy="178.1" r="4"/>
		<circle class="st6" cx="105.8" cy="178.1" r="4"/>
		<circle class="st4" cx="105.8" cy="178.1" r="4"/>
	</g>
	<g>
		<rect x="92.4" y="126.6" width="7" height="2.6"/>
		<rect x="80.3" y="110.1" class="st1" width="31.3" height="9.7"/>
		<rect x="92.4" y="113.7" width="7" height="2.6"/>
		<rect x="80.3" y="97.2" class="st1" width="31.3" height="9.7"/>
		<rect x="92.4" y="100.7" width="7" height="2.6"/>
		<circle class="st3" cx="84.9" cy="127.9" r="4"/>
		<circle class="st4" cx="84.9" cy="127.9" r="4"/>
		<g>
			<path class="st5" d="M82.1,110.3c0.6-0.1,1.6-0.2,2.4-0.2c1.3,0,2.2,0.3,2.8,0.8c0.5,0.4,0.8,1.1,0.8,1.8c0,1.3-0.8,2.1-1.8,2.5
				v0c0.7,0.3,1.2,0.9,1.4,2c0.3,1.4,0.5,2.3,0.7,2.7h-1.3c-0.2-0.3-0.4-1.1-0.6-2.3c-0.3-1.3-0.8-1.8-2-1.9h-1.2v4.2h-1.3
				L82.1,110.3L82.1,110.3z M83.4,114.7h1.3c1.3,0,2.2-0.7,2.2-1.8c0-1.3-0.9-1.8-2.2-1.8c-0.6,0-1,0.1-1.2,0.1L83.4,114.7
				L83.4,114.7z"/>
		</g>
		<g>
			<path class="st5" d="M82.1,97.3c0.6-0.1,1.6-0.2,2.4-0.2c1.3,0,2.2,0.3,2.8,0.8c0.5,0.4,0.8,1.1,0.8,1.8c0,1.3-0.8,2.1-1.8,2.5v0
				c0.7,0.3,1.2,0.9,1.4,2c0.3,1.4,0.5,2.3,0.7,2.7h-1.3c-0.2-0.3-0.4-1.1-0.6-2.3c-0.3-1.3-0.8-1.8-2-1.9h-1.2v4.2h-1.3L82.1,97.3
				L82.1,97.3z M83.4,101.7h1.3c1.3,0,2.2-0.7,2.2-1.8c0-1.3-0.9-1.8-2.2-1.8c-0.6,0-1,0.1-1.2,0.1L83.4,101.7L83.4,101.7z"/>
		</g>
		<rect x="92.4" y="87.9" width="7" height="2.6"/>
		<rect x="92.4" y="74.9" width="7" height="2.6"/>
		<path class="st7" d="M84.9,76.2c-10.5-6.1-14.1-19.5-8.1-30.1c6.1-10.5,19.5-14.1,30.1-8.1c10.5,6.1,14.1,19.5,8.1,30.1
			c-1.9,3.3-4.7,6.1-8.1,8.1"/>
		<path d="M86.2,76.2c0,0.7-0.6,1.3-1.3,1.3c-0.7,0-1.3-0.6-1.3-1.3c0-0.7,0.6-1.3,1.3-1.3C85.6,74.9,86.2,75.5,86.2,76.2"/>
		<path d="M108.3,76.2c0,0.7-0.6,1.3-1.3,1.3s-1.3-0.6-1.3-1.3c0-0.7,0.6-1.3,1.3-1.3S108.3,75.5,108.3,76.2"/>
		<g>
			<path class="st5" d="M106.3,106.9v-4.1l-3.1-5.6h1.4l1.4,2.7c0.4,0.7,0.7,1.3,1,2h0c0.3-0.6,0.6-1.3,1-2l1.4-2.7h1.4l-3.2,5.6
				v4.1H106.3z"/>
		</g>
		<g>
			<path class="st5" d="M106.3,119.8v-4.1l-3.1-5.6h1.4l1.4,2.7c0.4,0.7,0.7,1.3,1,2h0c0.3-0.6,0.6-1.3,1-2l1.4-2.7h1.4l-3.2,5.6
				v4.1H106.3z"/>
		</g>
		<circle class="st3" cx="106.9" cy="127.9" r="4"/>
		<circle class="st4" cx="106.9" cy="127.9" r="4"/>
		<line class="st7" x1="84.9" y1="95.3" x2="84.9" y2="76.2"/>
		<line class="st7" x1="106.9" y1="95.3" x2="106.9" y2="76.2"/>
		<g>
			<rect x="67" y="26.7" class="st8" width="57.9" height="112.8"/>
			<rect x="71" y="20.8" class="st6" width="28.2" height="10.6"/>
			<g>
				<path d="M72.9,30.2c0.4,0.2,1.2,0.6,2.1,0.6c1.6,0,2.1-1,2.1-1.8c0-1.3-1.2-1.9-2.4-1.9H74v-0.9h0.7c0.9,0,2.1-0.5,2.1-1.6
					c0-0.7-0.5-1.4-1.6-1.4c-0.7,0-1.5,0.3-1.9,0.6l-0.3-0.9c0.5-0.4,1.5-0.7,2.5-0.7c1.8,0,2.7,1.1,2.7,2.2c0,1-0.6,1.8-1.7,2.2v0
					c1.2,0.2,2.1,1.1,2.1,2.4c0,1.5-1.2,2.8-3.4,2.8c-1.1,0-2-0.3-2.4-0.6L72.9,30.2z"/>
				<path d="M82.7,23.5L82.7,23.5l-1.7,0.9l-0.2-1l2-1.1H84v9.4h-1.2C82.7,31.6,82.7,23.5,82.7,23.5z"/>
				<path d="M89.4,22.1c1.3,0,2.1,1,2.1,2.8c0,2-1,3-2.2,3c-1.2,0-2.2-0.9-2.2-2.8C87.2,23.2,88.2,22.1,89.4,22.1
					C89.4,22.1,89.4,22.1,89.4,22.1z M89.4,22.9c-0.8,0-1.2,0.9-1.2,2.1c0,1.2,0.4,2.1,1.2,2.1c0.8,0,1.2-0.9,1.2-2.1
					C90.6,23.8,90.3,22.9,89.4,22.9L89.4,22.9z M89.2,31.8l5.5-9.7h0.8L90,31.8H89.2z M95.5,26c1.3,0,2.1,1,2.1,2.8c0,2-1,3-2.2,3
					c-1.2,0-2.2-0.9-2.2-2.8C93.3,27,94.3,26,95.5,26C95.5,26,95.5,26,95.5,26z M95.5,26.8c-0.8,0-1.2,0.9-1.2,2.1
					c0,1.2,0.4,2.1,1.2,2.1c0.8,0,1.2-0.9,1.2-2.1C96.7,27.7,96.4,26.8,95.5,26.8L95.5,26.8z"/>
			</g>
		</g>
	</g>
	<g>
		<path class="st9" d="M66.1,162.4c0-1,0-1.8-0.1-2.6h1.3l0.1,1.3h0c0.6-1,1.5-1.5,2.8-1.5c1.9,0,3.3,1.6,3.3,4
			c0,2.8-1.7,4.2-3.6,4.2c-1.1,0-1.9-0.5-2.4-1.2h0v4.3h-1.4C66.1,170.9,66.1,162.4,66.1,162.4z M67.5,164.5c0,0.2,0,0.4,0.1,0.6
			c0.2,1,1.1,1.7,2.1,1.7c1.5,0,2.4-1.2,2.4-3c0-1.6-0.8-2.9-2.3-2.9c-1,0-1.9,0.7-2.2,1.7c0,0.2-0.1,0.4-0.1,0.6V164.5z"/>
		<path class="st9" d="M75.1,166.3c0.4,0.3,1.2,0.6,1.9,0.6c1,0,1.5-0.5,1.5-1.2c0-0.7-0.4-1.1-1.4-1.4c-1.4-0.5-2.1-1.3-2.1-2.2
			c0-1.3,1-2.3,2.7-2.3c0.8,0,1.5,0.2,1.9,0.5l-0.3,1c-0.3-0.2-0.9-0.5-1.6-0.5c-0.8,0-1.3,0.5-1.3,1.1c0,0.7,0.5,1,1.5,1.3
			c1.3,0.5,2.1,1.2,2.1,2.4c0,1.4-1.1,2.4-2.9,2.4c-0.9,0-1.7-0.2-2.2-0.6L75.1,166.3z"/>
		<path class="st9" d="M82.5,164c0,1.9,1.2,2.7,2.7,2.7c1,0,1.7-0.2,2.2-0.4l0.3,1c-0.5,0.2-1.4,0.5-2.6,0.5c-2.4,0-3.9-1.6-3.9-4
			c0-2.4,1.4-4.2,3.7-4.2c2.6,0,3.2,2.3,3.2,3.7c0,0.3,0,0.5,0,0.7L82.5,164z M86.7,163c0-0.9-0.4-2.3-2-2.3c-1.5,0-2.1,1.3-2.2,2.3
			H86.7z"/>
		<path class="st9" d="M96.4,165.6c0,0.8,0,1.5,0.1,2.1h-1.3l-0.1-1.3h0c-0.4,0.6-1.2,1.5-2.6,1.5c-1.2,0-2.7-0.7-2.7-3.4v-4.6h1.4
			v4.3c0,1.5,0.5,2.5,1.7,2.5c1,0,1.6-0.7,1.9-1.3c0.1-0.2,0.1-0.5,0.1-0.7v-4.8h1.4V165.6z"/>
		<path class="st9" d="M105.5,156.2v9.5c0,0.7,0,1.5,0.1,2h-1.3l-0.1-1.4h0c-0.4,0.9-1.4,1.5-2.7,1.5c-1.9,0-3.4-1.6-3.4-4
			c0-2.6,1.6-4.2,3.5-4.2c1.2,0,2,0.6,2.4,1.2h0v-4.7L105.5,156.2L105.5,156.2z M104.1,163.1c0-0.2,0-0.4-0.1-0.6
			c-0.2-0.9-1-1.6-2.1-1.6c-1.5,0-2.3,1.3-2.3,3c0,1.6,0.8,2.9,2.3,2.9c1,0,1.8-0.6,2.1-1.7c0-0.2,0.1-0.4,0.1-0.6
			C104.1,164.4,104.1,163.1,104.1,163.1z"/>
		<path class="st9" d="M111,167.9c-2.1,0-3.8-1.6-3.8-4c0-2.6,1.7-4.2,3.9-4.2c2.3,0,3.8,1.6,3.8,4
			C114.9,166.6,112.9,167.9,111,167.9L111,167.9z M111.1,166.8c1.4,0,2.4-1.3,2.4-3.1c0-1.3-0.7-3-2.3-3c-1.7,0-2.4,1.6-2.4,3
			C108.7,165.5,109.7,166.8,111.1,166.8C111.1,166.8,111.1,166.8,111.1,166.8z"/>
		<path class="st9" d="M120,162.8v1h-4v-1H120z"/>
		<path class="st9" d="M67.5,179.7L67.5,179.7c0.2-0.3,0.5-0.6,0.7-0.9l2.3-2.7h1.7l-3,3.2l3.4,4.6h-1.7l-2.7-3.8l-0.7,0.8v2.9h-1.4
			v-11.5h1.4V179.7z"/>
		<path class="st9" d="M73.9,178.2c0-0.8,0-1.5-0.1-2.1h1.3l0.1,1.3h0c0.4-0.7,1.3-1.5,2.6-1.5c1.1,0,2.8,0.6,2.8,3.3v4.7h-1.4v-4.5
			c0-1.3-0.5-2.3-1.8-2.3c-0.9,0-1.7,0.7-1.9,1.5c-0.1,0.2-0.1,0.4-0.1,0.7v4.7h-1.4C73.9,183.9,73.9,178.2,73.9,178.2z"/>
		<path class="st9" d="M86.1,184.1c-2.1,0-3.8-1.6-3.8-4c0-2.6,1.7-4.2,3.9-4.2c2.3,0,3.8,1.6,3.8,4C90,182.8,88,184.1,86.1,184.1
			L86.1,184.1z M86.2,183c1.4,0,2.4-1.3,2.4-3.1c0-1.3-0.7-3-2.3-3c-1.7,0-2.4,1.6-2.4,3C83.8,181.7,84.8,183,86.2,183
			C86.2,183,86.2,183,86.2,183z"/>
		<path class="st9" d="M93.5,174.2v1.9h2v1.1h-2v4.2c0,1,0.3,1.5,1.1,1.5c0.4,0,0.6,0,0.8-0.1l0.1,1.1c-0.3,0.1-0.7,0.2-1.3,0.2
			c-0.7,0-1.2-0.2-1.5-0.6c-0.4-0.4-0.6-1.1-0.6-2.1v-4.3h-1.2v-1.1h1.2v-1.4L93.5,174.2z"/>
	</g>
	<polyline class="st2" points="138.5,171.1 138.5,161.8 165.9,138.5 	"/>
	<path class="st2" d="M138.5,171.1"/>
	<line class="st2" x1="138.5" y1="222.7" x2="138.5" y2="207.3"/>
	<polyline class="st10" points="127.4,56.6 168.1,56.6 171.8,60.3 	"/>
	<g>
		<path d="M184.1,89.7c-1.8,0-3.1-1.7-3.1-4.8c0-3.2,1.4-4.9,3.3-4.9c2,0,3.1,1.8,3.1,4.7C187.4,87.9,186.2,89.7,184.1,89.7
			L184.1,89.7z M184.2,88.7c1.3,0,1.9-1.5,1.9-3.9c0-2.3-0.6-3.8-1.9-3.8c-1.2,0-1.9,1.5-1.9,3.8C182.3,87.2,183,88.7,184.2,88.7
			L184.2,88.7z"/>
		<path d="M191.9,85.2v0.9h-3.6v-0.9H191.9z"/>
		<path d="M196.9,89.5V87h-4.3v-0.8l4.2-6h1.4V86h1.3v1h-1.3v2.5H196.9z M196.9,86v-3.1c0-0.5,0-1,0-1.5h0c-0.3,0.5-0.5,0.9-0.8,1.4
			l-2.3,3.2v0C193.8,86,196.9,86,196.9,86z"/>
		<path d="M203.5,80c1.8,0,2.7,1.1,2.7,2.3c0,0.8-0.4,1.7-1.6,2.2v0c1.2,0.5,1.9,1.3,1.9,2.4c0,1.6-1.4,2.7-3.2,2.7
			c-2,0-3.1-1.2-3.1-2.5c0-1.2,0.7-2,1.8-2.5v0c-1.1-0.5-1.5-1.3-1.5-2.1C200.6,81,201.8,80,203.5,80L203.5,80z M203.4,88.8
			c1.1,0,1.9-0.7,1.9-1.7c0-1.1-0.8-1.7-2.1-2c-1.1,0.3-1.7,1.1-1.7,1.9C201.5,87.9,202.2,88.8,203.4,88.8L203.4,88.8z M203.4,80.9
			c-1.1,0-1.6,0.7-1.6,1.5c0,0.9,0.7,1.4,1.8,1.7c0.8-0.3,1.4-0.8,1.4-1.7C205,81.7,204.6,80.9,203.4,80.9L203.4,80.9z"/>
		<path d="M211.2,84.4c0-0.7,0-1.3-0.1-1.9h1.1l0.1,1.1h0c0.3-0.6,1.2-1.3,2.3-1.3c1,0,2.5,0.6,2.5,3v4.2h-1.3v-4
			c0-1.1-0.4-2.1-1.6-2.1c-0.8,0-1.5,0.6-1.7,1.3c-0.1,0.2-0.1,0.4-0.1,0.6v4.2h-1.3C211.2,89.5,211.2,84.4,211.2,84.4z"/>
		<path d="M220.6,80.9v1.7h1.8v1h-1.8v3.8c0,0.9,0.2,1.4,0.9,1.4c0.3,0,0.5,0,0.7-0.1l0.1,1c-0.2,0.1-0.6,0.2-1.1,0.2
			c-0.6,0-1.1-0.2-1.4-0.5c-0.3-0.4-0.5-1-0.5-1.8v-3.8h-1.1v-1h1.1v-1.3L220.6,80.9z"/>
		<path d="M229.6,79.5c-1.1,1.4-1.8,3.3-1.8,5.9c0,2.6,0.8,4.4,1.8,5.8h-1c-0.9-1.2-1.9-3-1.9-5.8c0-2.8,1-4.7,1.9-5.9H229.6z"/>
		<path d="M231,79.3h1.3v4.3h0c0.2-0.4,0.5-0.7,0.9-0.9c0.4-0.2,0.8-0.4,1.3-0.4c0.9,0,2.4,0.6,2.4,3v4.1h-1.3v-4
			c0-1.1-0.4-2.1-1.6-2.1c-0.8,0-1.5,0.6-1.7,1.3c-0.1,0.2-0.1,0.4-0.1,0.6v4.2H231L231,79.3L231,79.3z"/>
		<path d="M243.9,87.9c0,0.6,0,1.2,0.1,1.7h-1.1l-0.1-0.9h0c-0.4,0.5-1.1,1-2.1,1c-1.4,0-2.1-1-2.1-2c0-1.7,1.5-2.6,4.2-2.6v-0.1
			c0-0.6-0.2-1.6-1.6-1.6c-0.7,0-1.3,0.2-1.8,0.5l-0.3-0.8c0.6-0.4,1.4-0.6,2.3-0.6c2.1,0,2.7,1.5,2.7,2.8L243.9,87.9L243.9,87.9z
			 M242.7,86c-1.4,0-3,0.2-3,1.6c0,0.8,0.5,1.2,1.2,1.2c0.9,0,1.5-0.6,1.7-1.2c0-0.1,0.1-0.3,0.1-0.4L242.7,86L242.7,86z"/>
		<path d="M245.7,88.2c0.4,0.2,1.1,0.5,1.7,0.5c0.9,0,1.3-0.4,1.3-1c0-0.6-0.4-0.9-1.3-1.3c-1.3-0.5-1.9-1.1-1.9-2
			c0-1.1,0.9-2,2.4-2c0.7,0,1.3,0.2,1.7,0.4l-0.3,0.9c-0.3-0.2-0.8-0.4-1.4-0.4c-0.7,0-1.2,0.4-1.2,0.9c0,0.6,0.4,0.8,1.3,1.2
			c1.2,0.4,1.8,1.1,1.8,2.1c0,1.2-1,2.1-2.6,2.1c-0.8,0-1.5-0.2-2-0.5L245.7,88.2z"/>
		<path d="M181.4,102.6c0.4,0.2,1.1,0.5,1.7,0.5c0.9,0,1.3-0.4,1.3-1c0-0.6-0.4-0.9-1.3-1.3c-1.3-0.5-1.9-1.1-1.9-2
			c0-1.1,0.9-2,2.4-2c0.7,0,1.3,0.2,1.7,0.4l-0.3,0.9c-0.3-0.2-0.8-0.4-1.4-0.4c-0.7,0-1.2,0.4-1.2,0.9c0,0.6,0.4,0.8,1.3,1.2
			c1.2,0.4,1.8,1.1,1.8,2.1c0,1.2-1,2.1-2.6,2.1c-0.8,0-1.5-0.2-2-0.5L181.4,102.6z"/>
		<path d="M188.8,95.3v1.7h1.8v1h-1.8v3.8c0,0.9,0.2,1.4,0.9,1.4c0.3,0,0.5,0,0.7-0.1l0.1,1c-0.2,0.1-0.6,0.2-1.1,0.2
			c-0.6,0-1.1-0.2-1.4-0.5c-0.3-0.4-0.5-1-0.5-1.8v-3.8h-1.1v-1h1.1v-1.3L188.8,95.3z"/>
		<path d="M192.6,100.6c0,1.7,1.1,2.4,2.4,2.4c0.9,0,1.5-0.2,1.9-0.3l0.2,0.9c-0.4,0.2-1.2,0.4-2.3,0.4c-2.1,0-3.4-1.4-3.4-3.5
			c0-2.1,1.3-3.8,3.3-3.8c2.3,0,2.9,2,2.9,3.3c0,0.3,0,0.5,0,0.6L192.6,100.6z M196.3,99.7c0-0.8-0.3-2.1-1.7-2.1
			c-1.3,0-1.8,1.2-1.9,2.1H196.3z"/>
		<path d="M199.1,98.8c0-0.7,0-1.3-0.1-1.9h1.1l0.1,1.1h0c0.4-0.7,1-1.3,2.2-1.3c0.9,0,1.7,0.6,2,1.4h0c0.2-0.4,0.5-0.7,0.8-0.9
			c0.4-0.3,0.9-0.5,1.5-0.5c0.9,0,2.3,0.6,2.3,3v4.1h-1.2V100c0-1.4-0.5-2.1-1.5-2.1c-0.7,0-1.3,0.5-1.5,1.1
			c-0.1,0.2-0.1,0.4-0.1,0.6v4.3h-1.2v-4.2c0-1.1-0.5-1.9-1.5-1.9c-0.8,0-1.4,0.6-1.6,1.3c-0.1,0.2-0.1,0.4-0.1,0.6v4.2h-1.2
			C199.1,103.9,199.1,98.8,199.1,98.8z"/>
		<path d="M214.7,96.9l0.9,3.5c0.2,0.8,0.4,1.5,0.5,2.2h0c0.2-0.7,0.4-1.5,0.6-2.2l1.1-3.5h1.1l1.1,3.5c0.3,0.8,0.5,1.6,0.6,2.3h0
			c0.1-0.7,0.3-1.4,0.5-2.3l1-3.5h1.3l-2.2,7h-1.2l-1.1-3.3c-0.2-0.8-0.4-1.5-0.6-2.3h0c-0.2,0.8-0.4,1.6-0.6,2.3l-1.1,3.3h-1.2
			l-2.1-7C213.4,96.9,214.7,96.9,214.7,96.9z"/>
		<path d="M224.8,93.7h1.3V98h0c0.2-0.4,0.5-0.7,0.9-0.9c0.4-0.2,0.8-0.4,1.3-0.4c0.9,0,2.4,0.6,2.4,3v4.1h-1.3v-4
			c0-1.1-0.4-2.1-1.6-2.1c-0.8,0-1.5,0.6-1.7,1.3c-0.1,0.2-0.1,0.4-0.1,0.6v4.2h-1.3C224.8,103.9,224.8,93.7,224.8,93.7z"/>
		<path d="M233.5,100.6c0,1.7,1.1,2.4,2.4,2.4c0.9,0,1.5-0.2,1.9-0.3l0.2,0.9c-0.4,0.2-1.2,0.4-2.3,0.4c-2.1,0-3.4-1.4-3.4-3.5
			c0-2.1,1.3-3.8,3.3-3.8c2.3,0,2.9,2,2.9,3.3c0,0.3,0,0.5,0,0.6L233.5,100.6z M237.2,99.7c0-0.8-0.3-2.1-1.7-2.1
			c-1.3,0-1.8,1.2-1.9,2.1H237.2z"/>
		<path d="M240,98.8c0-0.7,0-1.3-0.1-1.9h1.1l0.1,1.1h0c0.3-0.6,1.2-1.3,2.3-1.3c1,0,2.5,0.6,2.5,3v4.2h-1.3v-4
			c0-1.1-0.4-2.1-1.6-2.1c-0.8,0-1.5,0.6-1.7,1.3c-0.1,0.2-0.1,0.4-0.1,0.6v4.2H240V98.8z"/>
		<path d="M188.1,114.9l-6.7,3.4v-1l5.7-2.8v0l-5.7-2.8v-1l6.7,3.4V114.9z"/>
		<path d="M195.5,110.1L195.5,110.1l-1.7,0.9l-0.2-1l2-1.1h1.1v9.4h-1.2V110.1z"/>
		<path d="M200.2,118.3v-0.8l1-1c2.4-2.3,3.5-3.5,3.5-4.9c0-0.9-0.4-1.8-1.8-1.8c-0.8,0-1.6,0.4-2,0.8l-0.4-0.9
			c0.6-0.5,1.6-0.9,2.6-0.9c2,0,2.8,1.4,2.8,2.7c0,1.7-1.3,3.1-3.2,5l-0.7,0.7v0h4.2v1.1H200.2z"/>
		<path d="M211,113.2c0-0.7,0-1.3-0.1-1.9h1.1l0.1,1.1h0c0.3-0.6,1.2-1.3,2.3-1.3c1,0,2.5,0.6,2.5,3v4.2h-1.3v-4
			c0-1.1-0.4-2.1-1.6-2.1c-0.8,0-1.5,0.6-1.7,1.3c-0.1,0.2-0.1,0.4-0.1,0.6v4.2H211C211,118.3,211,113.2,211,113.2z"/>
		<path d="M220.4,109.7v1.7h1.8v1h-1.8v3.8c0,0.9,0.2,1.4,0.9,1.4c0.3,0,0.5,0,0.7-0.1l0.1,1c-0.2,0.1-0.6,0.2-1.1,0.2
			c-0.6,0-1.1-0.2-1.4-0.5c-0.3-0.4-0.5-1-0.5-1.8v-3.8h-1.1v-1h1.1v-1.3L220.4,109.7z"/>
		<path d="M222.9,120c1-1.4,1.8-3.3,1.8-5.9c0-2.6-0.8-4.4-1.8-5.9h1c0.9,1.2,1.9,3,1.9,5.9c0,2.8-1,4.6-1.9,5.9H222.9z"/>
	</g>
	<line class="st10" x1="206.4" y1="77.2" x2="206.4" y2="47.8"/>
	<g>
		<path d="M239.3,185.1c0.7-0.1,1.6-0.2,2.7-0.2c1.4,0,2.4,0.3,3.1,0.9c0.6,0.5,1,1.3,1,2.3c0,1-0.3,1.8-0.9,2.3
			c-0.7,0.8-2,1.2-3.3,1.2c-0.4,0-0.8,0-1.1-0.1v4.4h-1.4C239.3,195.9,239.3,185.1,239.3,185.1z M240.7,190.4
			c0.3,0.1,0.7,0.1,1.2,0.1c1.7,0,2.7-0.8,2.7-2.3c0-1.5-1-2.2-2.6-2.2c-0.6,0-1.1,0.1-1.3,0.1C240.7,186.1,240.7,190.4,240.7,190.4
			z"/>
		<path d="M250.5,186.7L250.5,186.7l-1.9,1l-0.3-1.1l2.3-1.2h1.2v10.5h-1.4V186.7z"/>
	</g>
	<g>
		<path d="M131.4,65.5c0.7-0.1,1.6-0.2,2.7-0.2c1.4,0,2.4,0.3,3.1,0.9c0.6,0.5,1,1.3,1,2.3c0,1-0.3,1.8-0.9,2.3
			c-0.7,0.8-2,1.2-3.3,1.2c-0.4,0-0.8,0-1.1-0.1v4.4h-1.4C131.4,76.3,131.4,65.5,131.4,65.5z M132.8,70.7c0.3,0.1,0.7,0.1,1.2,0.1
			c1.7,0,2.7-0.8,2.7-2.3c0-1.5-1-2.2-2.6-2.2c-0.6,0-1.1,0.1-1.3,0.1V70.7z"/>
		<path d="M139.5,76.3v-0.9l1.1-1.1c2.7-2.6,3.9-3.9,3.9-5.5c0-1.1-0.5-2.1-2.1-2.1c-1,0-1.7,0.5-2.2,0.9l-0.5-1
			c0.7-0.6,1.8-1.1,3-1.1c2.3,0,3.2,1.6,3.2,3.1c0,1.9-1.4,3.5-3.6,5.7l-0.8,0.8v0h4.7v1.2C146.2,76.3,139.5,76.3,139.5,76.3z"/>
	</g>
	<g>
		<path d="M288.8,65.5c0.7-0.1,1.6-0.2,2.7-0.2c1.4,0,2.4,0.3,3.1,0.9c0.6,0.5,1,1.3,1,2.3c0,1-0.3,1.8-0.9,2.3
			c-0.7,0.8-2,1.2-3.3,1.2c-0.4,0-0.8,0-1.1-0.1v4.4h-1.4L288.8,65.5L288.8,65.5z M290.2,70.7c0.3,0.1,0.7,0.1,1.2,0.1
			c1.7,0,2.7-0.8,2.7-2.3c0-1.5-1-2.2-2.6-2.2c-0.6,0-1.1,0.1-1.3,0.1L290.2,70.7L290.2,70.7z"/>
		<path d="M297.2,74.6c0.4,0.2,1.3,0.6,2.3,0.6c1.8,0,2.4-1.1,2.4-2c0-1.5-1.3-2.1-2.7-2.1h-0.8v-1.1h0.8c1,0,2.3-0.5,2.3-1.8
			c0-0.8-0.5-1.6-1.8-1.6c-0.8,0-1.7,0.4-2.1,0.7l-0.4-1c0.6-0.4,1.6-0.8,2.8-0.8c2.1,0,3,1.2,3,2.5c0,1.1-0.7,2-1.9,2.5v0
			c1.3,0.2,2.3,1.2,2.3,2.7c0,1.7-1.3,3.2-3.8,3.2c-1.2,0-2.2-0.4-2.7-0.7L297.2,74.6z"/>
	</g>
</g>
<g>
	<g>
		<path class="st11" d="M57.2,366.8c0.2,0,0.5,0,0.9-0.1c0.7-0.1,1.3-0.4,1.7-0.8c0.5-0.5,0.9-1.3,1.1-2.3h0c-0.5,0.6-1.1,0.9-2,0.9
			c-1.5,0-2.4-1.2-2.4-2.7c0-1.6,1.1-3.1,2.8-3.1c1.7,0,2.7,1.4,2.7,3.7c0,1.9-0.6,3.3-1.4,4.1c-0.6,0.6-1.5,1.1-2.4,1.2
			c-0.4,0.1-0.8,0.1-1,0.1L57.2,366.8L57.2,366.8z M59.2,359.6c-0.9,0-1.6,0.9-1.6,2.1c0,1.1,0.6,1.8,1.6,1.8c0.8,0,1.3-0.4,1.6-0.9
			c0.1-0.1,0.1-0.2,0.1-0.4C60.9,360.8,60.4,359.6,59.2,359.6L59.2,359.6L59.2,359.6z"/>
		<path class="st11" d="M65.7,367.7c-1.6,0-2.7-1.6-2.8-4.5c0-2.9,1.2-4.5,2.9-4.5c1.7,0,2.7,1.6,2.7,4.4
			C68.6,366.1,67.5,367.7,65.7,367.7L65.7,367.7z M65.8,366.8c1.1,0,1.7-1.4,1.7-3.6c0-2.1-0.5-3.5-1.7-3.5c-1,0-1.7,1.4-1.7,3.5
			C64,365.5,64.7,366.8,65.8,366.8L65.8,366.8z"/>
		<path class="st11" d="M71.4,358.8c1.1,0,1.9,0.9,1.9,2.6c0,1.8-0.9,2.7-2,2.7c-1,0-1.9-0.9-1.9-2.6
			C69.4,359.7,70.3,358.8,71.4,358.8L71.4,358.8L71.4,358.8z M71.4,359.5c-0.7,0-1.1,0.9-1.1,2c0,1.1,0.4,2,1.1,2
			c0.7,0,1.1-0.8,1.1-2C72.5,360.3,72.2,359.5,71.4,359.5L71.4,359.5L71.4,359.5z M71.3,367.8l4.9-9h0.7l-4.9,9H71.3z M76.8,362.3
			c1.1,0,1.9,0.9,1.9,2.6c0,1.8-0.9,2.7-2,2.7c-1,0-1.9-0.9-1.9-2.6C74.8,363.3,75.7,362.4,76.8,362.3L76.8,362.3L76.8,362.3z
			 M76.8,363.1c-0.7,0-1.1,0.9-1.1,2c0,1.1,0.4,2,1.1,2c0.7,0,1.1-0.8,1.1-2C77.9,363.9,77.6,363.1,76.8,363.1L76.8,363.1
			L76.8,363.1z"/>
	</g>
	<path class="st12" d="M52.2,363.7c0,2.1-1.7,3.7-3.7,3.7c-2.1,0-3.7-1.7-3.7-3.7s1.7-3.7,3.7-3.7C50.6,359.9,52.2,361.6,52.2,363.7
		"/>
	<circle class="st4" cx="48.5" cy="363.7" r="3.7"/>
	<g>
		<path class="st11" d="M57.2,353.5c0.2,0,0.5,0,0.9-0.1c0.7-0.1,1.3-0.4,1.7-0.8c0.5-0.5,0.9-1.3,1.1-2.3h0c-0.5,0.6-1.1,0.9-2,0.9
			c-1.5,0-2.4-1.2-2.4-2.7c0-1.6,1.1-3.1,2.8-3.1c1.7,0,2.7,1.4,2.7,3.7c0,1.9-0.6,3.3-1.4,4.1c-0.6,0.6-1.5,1.1-2.4,1.2
			c-0.4,0.1-0.8,0.1-1,0.1L57.2,353.5L57.2,353.5z M59.2,346.4c-0.9,0-1.6,0.9-1.6,2.1c0,1.1,0.6,1.8,1.6,1.8c0.8,0,1.3-0.4,1.6-0.9
			c0.1-0.1,0.1-0.2,0.1-0.4C60.9,347.5,60.4,346.4,59.2,346.4L59.2,346.4L59.2,346.4z"/>
		<path class="st11" d="M68.4,345.7v0.8l-3.6,7.9h-1.1l3.6-7.7v0h-4.1v-1L68.4,345.7L68.4,345.7z"/>
		<path class="st11" d="M71.4,345.5c1.1,0,1.9,0.9,1.9,2.6c0,1.8-0.9,2.7-2,2.7c-1,0-1.9-0.9-1.9-2.6
			C69.4,346.5,70.3,345.5,71.4,345.5L71.4,345.5L71.4,345.5z M71.4,346.2c-0.7,0-1.1,0.9-1.1,2c0,1.1,0.4,2,1.1,2
			c0.7,0,1.1-0.8,1.1-2C72.5,347.1,72.2,346.2,71.4,346.2L71.4,346.2L71.4,346.2z M71.3,354.5l4.9-9h0.7l-4.9,9H71.3z M76.8,349.1
			c1.1,0,1.9,0.9,1.9,2.6c0,1.8-0.9,2.7-2,2.7c-1,0-1.9-0.9-1.9-2.6C74.8,350.1,75.7,349.1,76.8,349.1L76.8,349.1L76.8,349.1z
			 M76.8,349.8c-0.7,0-1.1,0.9-1.1,2c0,1.1,0.4,2,1.1,2c0.7,0,1.1-0.8,1.1-2C77.9,350.7,77.6,349.8,76.8,349.8L76.8,349.8
			L76.8,349.8z"/>
	</g>
	<path class="st13" d="M52.2,350.4c0,2.1-1.7,3.7-3.7,3.7c-2.1,0-3.7-1.7-3.7-3.7c0-2.1,1.7-3.7,3.7-3.7
		C50.6,346.7,52.2,348.4,52.2,350.4"/>
	<circle class="st4" cx="48.5" cy="350.4" r="3.7"/>
	<g>
		<path class="st11" d="M107.1,345.7v0.8l-3.6,7.9h-1.1l3.6-7.7v0h-4.1v-1L107.1,345.7L107.1,345.7z"/>
		<path class="st11" d="M113.2,346.6H110l-0.3,2.2c0.2,0,0.4-0.1,0.7-0.1c0.7,0,1.3,0.1,1.8,0.5c0.7,0.4,1.2,1.1,1.2,2.3
			c0,1.7-1.3,3-3.1,3c-0.9,0-1.7-0.3-2.1-0.5l0.3-0.9c0.3,0.2,1,0.5,1.8,0.5c1,0,2-0.7,2-1.9c0-1.2-0.7-1.9-2.4-1.9
			c-0.5,0-0.9,0-1.2,0.1l0.5-4.1h4L113.2,346.6L113.2,346.6z"/>
		<path class="st11" d="M116.6,345.5c1.1,0,1.9,0.9,1.9,2.6c0,1.8-0.9,2.7-2,2.7c-1,0-1.9-0.9-1.9-2.6
			C114.6,346.5,115.5,345.5,116.6,345.5L116.6,345.5L116.6,345.5z M116.5,346.2c-0.7,0-1.1,0.9-1.1,2c0,1.1,0.4,2,1.1,2
			c0.7,0,1.1-0.8,1.1-2C117.6,347.1,117.3,346.2,116.5,346.2L116.5,346.2L116.5,346.2z M116.4,354.5l4.9-9h0.7l-4.9,9H116.4z
			 M122,349.1c1.1,0,1.9,0.9,1.9,2.6c0,1.8-0.9,2.7-2,2.7c-1,0-1.9-0.9-1.9-2.6C120,350.1,120.9,349.1,122,349.1L122,349.1
			L122,349.1z M121.9,349.8c-0.7,0-1.1,0.9-1.1,2c0,1.1,0.4,2,1.1,2c0.7,0,1.1-0.8,1.1-2C123,350.7,122.7,349.8,121.9,349.8
			L121.9,349.8L121.9,349.8z"/>
	</g>
	<path class="st5" d="M97.4,350.4c0,2.1-1.7,3.7-3.7,3.7s-3.7-1.7-3.7-3.7s1.7-3.7,3.7-3.7S97.4,348.4,97.4,350.4"/>
	<circle class="st4" cx="93.7" cy="350.4" r="3.7"/>
	<g>
		<path class="st11" d="M106.6,359.9h-3.2l-0.3,2.2c0.2,0,0.4-0.1,0.7-0.1c0.7,0,1.3,0.1,1.8,0.5c0.7,0.4,1.2,1.1,1.2,2.3
			c0,1.7-1.3,3-3.1,3c-0.9,0-1.7-0.3-2.1-0.5l0.3-0.9c0.3,0.2,1,0.5,1.8,0.5c1,0,2-0.7,2-1.9c0-1.2-0.7-1.9-2.4-1.9
			c-0.5,0-0.9,0-1.2,0.1l0.5-4.1h4L106.6,359.9L106.6,359.9z"/>
		<path class="st11" d="M110.9,367.7c-1.6,0-2.7-1.6-2.8-4.5c0-2.9,1.2-4.5,2.9-4.5c1.7,0,2.7,1.6,2.7,4.4
			C113.7,366.1,112.7,367.7,110.9,367.7L110.9,367.7z M110.9,366.8c1.1,0,1.7-1.4,1.7-3.6c0-2.1-0.5-3.5-1.7-3.5
			c-1,0-1.7,1.4-1.7,3.5C109.2,365.5,109.9,366.8,110.9,366.8L110.9,366.8z"/>
		<path class="st11" d="M116.6,358.7c1.1,0,1.9,0.9,1.9,2.6c0,1.8-0.9,2.7-2,2.7c-1,0-1.9-0.9-1.9-2.6
			C114.6,359.7,115.5,358.7,116.6,358.7L116.6,358.7L116.6,358.7z M116.5,359.5c-0.7,0-1.1,0.9-1.1,2c0,1.1,0.4,2,1.1,2
			c0.7,0,1.1-0.8,1.1-2C117.6,360.3,117.3,359.5,116.5,359.5L116.5,359.5L116.5,359.5z M116.4,367.8l4.9-9h0.7l-4.9,9H116.4z
			 M122,362.3c1.1,0,1.9,0.9,1.9,2.6c0,1.8-0.9,2.7-2,2.7c-1,0-1.9-0.9-1.9-2.6C120,363.3,120.9,362.3,122,362.3L122,362.3
			L122,362.3z M121.9,363.1c-0.7,0-1.1,0.9-1.1,2c0,1.1,0.4,2,1.1,2c0.7,0,1.1-0.8,1.1-2C123,363.9,122.7,363.1,121.9,363.1
			L121.9,363.1L121.9,363.1z"/>
	</g>
	<g>
		<path class="st11" d="M48.5,323.5c0-0.7,0-1.2-0.1-1.8h1l0.1,1.1h0c0.3-0.6,1-1.2,2-1.2c0.9,0,2.2,0.5,2.2,2.8v3.9h-1.1v-3.7
			c0-1-0.4-1.9-1.4-1.9c-0.7,0-1.3,0.5-1.5,1.2c-0.1,0.1-0.1,0.4-0.1,0.5v3.9h-1.1C48.5,328.2,48.5,323.5,48.5,323.5z"/>
		<path class="st11" d="M60.7,326.5c0,0.7,0,1.3,0.1,1.8h-1l-0.1-1.1h0c-0.3,0.5-0.9,1.2-2,1.2c-1,0-2.1-0.6-2.1-2.8v-3.8h1.1v3.6
			c0,1.2,0.4,2.1,1.4,2.1c0.8,0,1.3-0.5,1.5-1.1c0.1-0.2,0.1-0.4,0.1-0.6v-4h1.1L60.7,326.5L60.7,326.5z"/>
		<path class="st11" d="M67,328c-0.3,0.1-0.9,0.4-1.8,0.4c-1.9,0-3.1-1.3-3.1-3.3s1.3-3.5,3.3-3.5c0.7,0,1.3,0.2,1.6,0.3l-0.3,0.9
			c-0.3-0.1-0.7-0.3-1.3-0.3c-1.4,0-2.2,1.1-2.2,2.5c0,1.5,0.9,2.4,2.1,2.4c0.6,0,1.1-0.2,1.4-0.3L67,328z"/>
		<path class="st11" d="M68.3,318.7h1.1v9.5h-1.1V318.7z"/>
		<path class="st11" d="M71.9,325.2c0,1.6,1,2.2,2.1,2.2c0.8,0,1.3-0.1,1.7-0.3l0.2,0.8c-0.4,0.2-1.1,0.4-2.1,0.4
			c-1.9,0-3-1.3-3-3.3c0-2,1.1-3.5,2.9-3.5c2,0,2.5,1.9,2.5,3c0,0.2,0,0.4,0,0.6L71.9,325.2z M75.2,324.3c0-0.7-0.3-1.9-1.5-1.9
			c-1.1,0-1.6,1.1-1.7,1.9H75.2z"/>
		<path class="st11" d="M80.2,328.4c-1.7,0-3-1.3-3-3.3c0-2.2,1.4-3.4,3.1-3.4c1.8,0,3,1.4,3,3.3C83.3,327.3,81.7,328.4,80.2,328.4
			L80.2,328.4L80.2,328.4z M80.2,327.5c1.1,0,1.9-1.1,1.9-2.5c0-1.1-0.5-2.5-1.8-2.5c-1.3,0-1.9,1.3-1.9,2.5
			C78.4,326.4,79.1,327.5,80.2,327.5L80.2,327.5L80.2,327.5z"/>
		<path class="st11" d="M86,320.2v1.6h1.6v0.9H86v3.5c0,0.8,0.2,1.3,0.8,1.3c0.3,0,0.5,0,0.7-0.1l0.1,0.9c-0.2,0.1-0.6,0.2-1,0.2
			c-0.5,0-0.9-0.2-1.2-0.5c-0.3-0.4-0.4-0.9-0.4-1.7v-3.5h-1v-0.9h1v-1.2L86,320.2z"/>
		<path class="st11" d="M89.4,320.6c-0.4,0-0.7-0.3-0.7-0.8s0.3-0.7,0.7-0.7c0.4,0,0.7,0.3,0.7,0.7S89.9,320.6,89.4,320.6
			L89.4,320.6z M88.9,328.2v-6.5H90v6.5H88.9z"/>
		<path class="st11" d="M97.2,318.7v7.8c0,0.6,0,1.2,0.1,1.7h-1l-0.1-1.1h0c-0.3,0.7-1.1,1.3-2.1,1.3c-1.5,0-2.7-1.3-2.7-3.3
			c0-2.2,1.3-3.5,2.8-3.5c1,0,1.6,0.5,1.9,1h0v-3.9H97.2z M96.1,324.4c0-0.2,0-0.3-0.1-0.5c-0.2-0.7-0.8-1.4-1.6-1.4
			c-1.2,0-1.8,1.1-1.8,2.5c0,1.3,0.6,2.4,1.8,2.4c0.8,0,1.4-0.5,1.6-1.4c0-0.2,0.1-0.3,0.1-0.5V324.4z"/>
		<path class="st11" d="M99.7,325.2c0,1.6,1,2.2,2.1,2.2c0.8,0,1.3-0.1,1.7-0.3l0.2,0.8c-0.4,0.2-1.1,0.4-2.1,0.4
			c-1.9,0-3-1.3-3-3.3c0-2,1.1-3.5,2.9-3.5c2,0,2.5,1.9,2.5,3c0,0.2,0,0.4,0,0.6L99.7,325.2z M103,324.3c0-0.7-0.3-1.9-1.5-1.9
			c-1.1,0-1.6,1.1-1.7,1.9H103z"/>
	</g>
	<g>
		<path class="st11" d="M56.5,336.6c0-0.8,0-1.5-0.1-2.1h1l0.1,1.1h0c0.4-0.8,1.2-1.3,2.2-1.3c1.5,0,2.6,1.3,2.6,3.3
			c0,2.3-1.4,3.5-2.8,3.5c-0.8,0-1.5-0.4-1.9-1h0v3.5h-1.1C56.5,343.6,56.5,336.6,56.5,336.6z M57.7,338.3c0,0.2,0,0.3,0.1,0.5
			c0.2,0.8,0.9,1.4,1.7,1.4c1.2,0,1.9-1,1.9-2.5c0-1.3-0.6-2.4-1.8-2.4c-0.8,0-1.5,0.6-1.7,1.4c0,0.2-0.1,0.3-0.1,0.5
			C57.7,337.2,57.7,338.3,57.7,338.3z"/>
		<path class="st11" d="M63.8,336.5c0-0.8,0-1.4-0.1-2h1l0.1,1.3h0c0.3-0.9,1-1.4,1.7-1.4c0.1,0,0.2,0,0.3,0v1.1c-0.1,0-0.2,0-0.4,0
			c-0.8,0-1.4,0.6-1.5,1.5c0,0.2,0,0.4,0,0.6v3.5h-1.1L63.8,336.5z"/>
		<path class="st11" d="M68.5,337.9c0,1.6,1,2.2,2.1,2.2c0.8,0,1.3-0.1,1.7-0.3l0.2,0.8c-0.4,0.2-1.1,0.4-2.1,0.4
			c-1.9,0-3-1.3-3-3.3c0-2,1.1-3.5,2.9-3.5c2,0,2.5,1.9,2.5,3.1c0,0.2,0,0.4,0,0.6L68.5,337.9z M71.8,337.1c0-0.7-0.3-1.9-1.5-1.9
			c-1.1,0-1.6,1.1-1.7,1.9H71.8z"/>
		<path class="st11" d="M74.1,339.7c0.3,0.2,0.9,0.5,1.5,0.5c0.8,0,1.2-0.4,1.2-1c0-0.6-0.3-0.9-1.1-1.2c-1.1-0.4-1.6-1.1-1.6-1.8
			c0-1,0.8-1.9,2.1-1.9c0.6,0,1.2,0.2,1.5,0.4l-0.3,0.8c-0.2-0.1-0.7-0.4-1.3-0.4c-0.7,0-1,0.4-1,0.9c0,0.5,0.4,0.8,1.2,1.1
			c1.1,0.4,1.6,1,1.6,2c0,1.2-0.9,2-2.3,2c-0.7,0-1.3-0.2-1.7-0.5L74.1,339.7z"/>
		<path class="st11" d="M80,337.9c0,1.6,1,2.2,2.1,2.2c0.8,0,1.3-0.1,1.7-0.3l0.2,0.8c-0.4,0.2-1.1,0.4-2.1,0.4c-1.9,0-3-1.3-3-3.3
			c0-2,1.1-3.5,2.9-3.5c2,0,2.5,1.9,2.5,3.1c0,0.2,0,0.4,0,0.6L80,337.9z M83.3,337.1c0-0.7-0.3-1.9-1.5-1.9c-1.1,0-1.6,1.1-1.7,1.9
			H83.3z"/>
		<path class="st11" d="M85.7,336.2c0-0.7,0-1.2-0.1-1.8h1l0.1,1.1h0c0.3-0.6,1-1.2,2-1.2c0.9,0,2.2,0.5,2.2,2.8v3.9h-1.1v-3.7
			c0-1-0.4-1.9-1.4-1.9c-0.7,0-1.3,0.5-1.5,1.2c-0.1,0.1-0.1,0.4-0.1,0.5v3.9h-1.1L85.7,336.2L85.7,336.2z"/>
		<path class="st11" d="M94.1,332.9v1.6h1.6v0.9h-1.6v3.5c0,0.8,0.2,1.3,0.8,1.3c0.3,0,0.5,0,0.7-0.1l0.1,0.9
			c-0.2,0.1-0.6,0.2-1,0.2c-0.5,0-0.9-0.2-1.2-0.5c-0.3-0.4-0.4-0.9-0.4-1.7v-3.5h-1v-0.9h1v-1.2L94.1,332.9z"/>
	</g>
	<g>
		<path class="st11" d="M136.7,323.5c0-0.7,0-1.2-0.1-1.8h1l0.1,1.1h0c0.3-0.6,1-1.2,2-1.2c0.9,0,2.2,0.5,2.2,2.8v3.9h-1.1v-3.7
			c0-1-0.4-1.9-1.4-1.9c-0.7,0-1.3,0.5-1.5,1.2c-0.1,0.1-0.1,0.4-0.1,0.5v3.9h-1.1L136.7,323.5L136.7,323.5z"/>
		<path class="st11" d="M149,326.5c0,0.7,0,1.3,0.1,1.8h-1l-0.1-1.1h0c-0.3,0.5-0.9,1.2-2,1.2c-1,0-2.1-0.6-2.1-2.8v-3.8h1.1v3.6
			c0,1.2,0.4,2.1,1.4,2.1c0.8,0,1.3-0.5,1.5-1.1c0.1-0.2,0.1-0.4,0.1-0.6v-4h1.1L149,326.5L149,326.5z"/>
		<path class="st11" d="M155.2,328c-0.3,0.1-0.9,0.4-1.8,0.4c-1.9,0-3.1-1.3-3.1-3.3s1.3-3.5,3.3-3.5c0.7,0,1.3,0.2,1.6,0.3
			l-0.3,0.9c-0.3-0.1-0.7-0.3-1.3-0.3c-1.4,0-2.2,1.1-2.2,2.5c0,1.5,0.9,2.4,2.1,2.4c0.6,0,1.1-0.2,1.4-0.3L155.2,328z"/>
		<path class="st11" d="M156.5,318.7h1.1v9.5h-1.1V318.7z"/>
		<path class="st11" d="M160.2,325.2c0,1.6,1,2.2,2.1,2.2c0.8,0,1.3-0.1,1.7-0.3l0.2,0.8c-0.4,0.2-1.1,0.4-2.1,0.4
			c-1.9,0-3-1.3-3-3.3c0-2,1.1-3.5,2.9-3.5c2,0,2.5,1.9,2.5,3c0,0.2,0,0.4,0,0.6L160.2,325.2z M163.4,324.3c0-0.7-0.3-1.9-1.5-1.9
			c-1.1,0-1.6,1.1-1.7,1.9H163.4z"/>
		<path class="st11" d="M168.4,328.4c-1.7,0-3-1.3-3-3.3c0-2.2,1.4-3.4,3.1-3.4c1.8,0,3,1.4,3,3.3
			C171.5,327.3,169.9,328.4,168.4,328.4L168.4,328.4L168.4,328.4z M168.5,327.5c1.1,0,1.9-1.1,1.9-2.5c0-1.1-0.5-2.5-1.8-2.5
			c-1.3,0-1.9,1.3-1.9,2.5C166.6,326.4,167.4,327.5,168.5,327.5L168.5,327.5L168.5,327.5z"/>
		<path class="st11" d="M174.3,320.2v1.6h1.6v0.9h-1.6v3.5c0,0.8,0.2,1.3,0.8,1.3c0.3,0,0.5,0,0.7-0.1l0.1,0.9
			c-0.2,0.1-0.6,0.2-1,0.2c-0.5,0-0.9-0.2-1.2-0.5c-0.3-0.4-0.4-0.9-0.4-1.7v-3.5h-1v-0.9h1v-1.2L174.3,320.2z"/>
		<path class="st11" d="M177.7,320.6c-0.4,0-0.7-0.3-0.7-0.8s0.3-0.7,0.7-0.7c0.4,0,0.7,0.3,0.7,0.7S178.1,320.6,177.7,320.6
			L177.7,320.6z M177.1,328.2v-6.5h1.1v6.5H177.1z"/>
		<path class="st11" d="M185.4,318.7v7.8c0,0.6,0,1.2,0.1,1.7h-1l-0.1-1.1h0c-0.3,0.7-1.1,1.3-2.1,1.3c-1.5,0-2.7-1.3-2.7-3.3
			c0-2.2,1.3-3.5,2.8-3.5c1,0,1.6,0.5,1.9,1h0v-3.9H185.4z M184.3,324.4c0-0.2,0-0.3-0.1-0.5c-0.2-0.7-0.8-1.4-1.6-1.4
			c-1.2,0-1.8,1.1-1.8,2.5c0,1.3,0.6,2.4,1.8,2.4c0.8,0,1.4-0.5,1.6-1.4c0-0.2,0.1-0.3,0.1-0.5V324.4z"/>
		<path class="st11" d="M187.9,325.2c0,1.6,1,2.2,2.1,2.2c0.8,0,1.3-0.1,1.7-0.3l0.2,0.8c-0.4,0.2-1.1,0.4-2.1,0.4
			c-1.9,0-3-1.3-3-3.3c0-2,1.1-3.5,2.9-3.5c2,0,2.5,1.9,2.5,3c0,0.2,0,0.4,0,0.6L187.9,325.2z M191.2,324.3c0-0.7-0.3-1.9-1.5-1.9
			c-1.1,0-1.6,1.1-1.7,1.9H191.2z"/>
	</g>
	<g>
		<path class="st11" d="M145.3,333.3c-0.4,0-0.7-0.3-0.7-0.8c0-0.4,0.3-0.7,0.7-0.7c0.4,0,0.7,0.3,0.7,0.7
			C146,332.9,145.7,333.3,145.3,333.3L145.3,333.3z M144.8,340.9v-6.5h1.1v6.5H144.8z"/>
		<path class="st11" d="M153.1,331.4v7.8c0,0.6,0,1.2,0.1,1.7h-1l-0.1-1.1h0c-0.3,0.7-1.1,1.3-2.1,1.3c-1.5,0-2.7-1.3-2.7-3.3
			c0-2.2,1.3-3.5,2.8-3.5c1,0,1.6,0.5,1.9,1h0v-3.9H153.1L153.1,331.4z M151.9,337.1c0-0.2,0-0.3-0.1-0.5c-0.2-0.7-0.8-1.4-1.6-1.4
			c-1.2,0-1.8,1.1-1.8,2.5c0,1.3,0.6,2.4,1.8,2.4c0.8,0,1.4-0.5,1.6-1.4c0-0.2,0.1-0.3,0.1-0.5C151.9,338.2,151.9,337.1,151.9,337.1
			z"/>
		<path class="st11" d="M155.6,337.9c0,1.6,1,2.2,2.1,2.2c0.8,0,1.3-0.1,1.7-0.3l0.2,0.8c-0.4,0.2-1.1,0.4-2.1,0.4
			c-1.9,0-3-1.3-3-3.3c0-2,1.1-3.5,2.9-3.5c2,0,2.5,1.9,2.5,3.1c0,0.2,0,0.4,0,0.6L155.6,337.9z M158.8,337.1c0-0.7-0.3-1.9-1.5-1.9
			c-1.1,0-1.6,1.1-1.7,1.9H158.8z"/>
		<path class="st11" d="M161.3,336.2c0-0.7,0-1.2-0.1-1.8h1l0.1,1.1h0c0.3-0.6,1-1.2,2-1.2c0.9,0,2.2,0.5,2.2,2.8v3.9h-1.1v-3.7
			c0-1-0.4-1.9-1.4-1.9c-0.7,0-1.3,0.5-1.5,1.2c-0.1,0.1-0.1,0.4-0.1,0.5v3.9h-1.1L161.3,336.2L161.3,336.2z"/>
		<path class="st11" d="M169.7,332.9v1.6h1.6v0.9h-1.6v3.5c0,0.8,0.2,1.3,0.8,1.3c0.3,0,0.5,0,0.7-0.1l0.1,0.9
			c-0.2,0.1-0.6,0.2-1,0.2c-0.5,0-0.9-0.2-1.2-0.5c-0.3-0.4-0.4-0.9-0.4-1.7v-3.5h-1v-0.9h1v-1.2L169.7,332.9z"/>
		<path class="st11" d="M173.1,333.3c-0.4,0-0.7-0.3-0.7-0.8c0-0.4,0.3-0.7,0.7-0.7c0.4,0,0.7,0.3,0.7,0.7
			C173.9,332.9,173.6,333.3,173.1,333.3L173.1,333.3z M172.6,340.9v-6.5h1.1v6.5H172.6z"/>
		<path class="st11" d="M176.9,332.9v1.6h1.6v0.9h-1.6v3.5c0,0.8,0.2,1.3,0.8,1.3c0.3,0,0.5,0,0.7-0.1l0.1,0.9
			c-0.2,0.1-0.6,0.2-1,0.2c-0.5,0-0.9-0.2-1.2-0.5c-0.3-0.4-0.4-0.9-0.4-1.7v-3.5h-1v-0.9h1v-1.2L176.9,332.9z"/>
		<path class="st11" d="M180.3,334.5l1.3,3.8c0.2,0.4,0.3,0.9,0.4,1.3h0c0.1-0.4,0.2-0.9,0.4-1.4l1.2-3.8h1.2l-1.7,4.6
			c-0.8,2.2-1.4,3.4-2.1,4.1c-0.6,0.5-1.1,0.7-1.4,0.8l-0.3-1c0.3-0.1,0.7-0.3,1-0.6c0.3-0.3,0.7-0.7,0.9-1.3
			c0.1-0.1,0.1-0.2,0.1-0.3c0-0.1,0-0.2-0.1-0.3l-2.3-6L180.3,334.5L180.3,334.5z"/>
	</g>
	<g>
		<path class="st11" d="M176.2,376.5v0.8l-3.6,7.9h-1.1l3.6-7.7v0H171v-1L176.2,376.5L176.2,376.5z"/>
		<path class="st11" d="M182.3,377.5h-3.2l-0.3,2.2c0.2,0,0.4-0.1,0.7-0.1c0.7,0,1.3,0.1,1.8,0.5c0.7,0.4,1.2,1.1,1.2,2.3
			c0,1.7-1.3,3-3.1,3c-0.9,0-1.7-0.3-2.1-0.5l0.3-0.9c0.3,0.2,1,0.5,1.8,0.5c1,0,2-0.7,2-1.9c0-1.2-0.7-1.9-2.4-1.9
			c-0.5,0-0.9,0-1.2,0.1l0.5-4.1h4L182.3,377.5L182.3,377.5z"/>
		<path class="st11" d="M185.7,376.3c1.1,0,1.9,0.9,1.9,2.6c0,1.8-0.9,2.7-2,2.7c-1,0-1.9-0.9-1.9-2.6
			C183.7,377.3,184.6,376.3,185.7,376.3L185.7,376.3L185.7,376.3z M185.7,377c-0.7,0-1.1,0.9-1.1,2c0,1.1,0.4,2,1.1,2
			c0.7,0,1.1-0.8,1.1-2C186.7,377.9,186.5,377,185.7,377L185.7,377z M185.6,385.3l4.9-9h0.7l-4.9,9H185.6z M191.1,379.9
			c1.1,0,1.9,0.9,1.9,2.6c0,1.8-0.9,2.7-2,2.7c-1,0-1.9-0.9-1.9-2.6C189.1,380.9,190,379.9,191.1,379.9L191.1,379.9L191.1,379.9z
			 M191.1,380.6c-0.7,0-1.1,0.9-1.1,2c0,1.1,0.4,2,1.1,2c0.7,0,1.1-0.8,1.1-2C192.2,381.5,191.9,380.6,191.1,380.6L191.1,380.6
			L191.1,380.6z"/>
	</g>
	<g>
		<path class="st14" d="M144.4,385.2v-9h1.2l2.7,4.6c0.6,1.1,1.1,2,1.5,2.9l0,0c-0.1-1.2-0.1-2.3-0.1-3.7v-3.8h1v9h-1.1l-2.7-4.6
			c-0.6-1-1.2-2-1.6-3l0,0c0.1,1.1,0.1,2.2,0.1,3.7v3.9L144.4,385.2L144.4,385.2z"/>
	</g>
	<g>
		<path class="st15" d="M144.4,358.1v-9h1.2l2.7,4.6c0.6,1.1,1.1,2,1.5,2.9l0,0c-0.1-1.2-0.1-2.3-0.1-3.7v-3.8h1v9h-1.1l-2.7-4.6
			c-0.6-1-1.2-2-1.6-3l0,0c0.1,1.1,0.1,2.2,0.1,3.7v3.9L144.4,358.1L144.4,358.1z"/>
	</g>
	<g>
		<path class="st11" d="M171.5,357.3c0.2,0,0.5,0,0.9-0.1c0.7-0.1,1.3-0.4,1.7-0.8c0.5-0.5,0.9-1.3,1.1-2.3h0
			c-0.5,0.6-1.1,0.9-2,0.9c-1.5,0-2.4-1.2-2.4-2.7c0-1.6,1.1-3.1,2.8-3.1c1.7,0,2.7,1.4,2.7,3.7c0,1.9-0.6,3.3-1.4,4.1
			c-0.6,0.6-1.5,1.1-2.4,1.2c-0.4,0.1-0.8,0.1-1,0.1L171.5,357.3L171.5,357.3z M173.5,350.2c-0.9,0-1.6,0.9-1.6,2.1
			c0,1.1,0.6,1.8,1.6,1.8c0.8,0,1.3-0.4,1.6-0.9c0.1-0.1,0.1-0.2,0.1-0.4C175.2,351.3,174.7,350.2,173.5,350.2L173.5,350.2
			L173.5,350.2z"/>
		<path class="st11" d="M182.7,349.4v0.8l-3.6,7.9H178l3.6-7.7v0h-4.1v-1L182.7,349.4L182.7,349.4z"/>
		<path class="st11" d="M185.7,349.3c1.1,0,1.9,0.9,1.9,2.6c0,1.8-0.9,2.7-2,2.7c-1,0-1.9-0.9-1.9-2.6
			C183.7,350.2,184.6,349.3,185.7,349.3L185.7,349.3L185.7,349.3z M185.7,350c-0.7,0-1.1,0.9-1.1,2c0,1.1,0.4,2,1.1,2
			c0.7,0,1.1-0.8,1.1-2C186.7,350.9,186.5,350,185.7,350L185.7,350z M185.6,358.3l4.9-9h0.7l-4.9,9H185.6z M191.1,352.9
			c1.1,0,1.9,0.9,1.9,2.6c0,1.8-0.9,2.7-2,2.7c-1,0-1.9-0.9-1.9-2.6C189.1,353.8,190,352.9,191.1,352.9L191.1,352.9L191.1,352.9z
			 M191.1,353.6c-0.7,0-1.1,0.9-1.1,2c0,1.1,0.4,2,1.1,2c0.7,0,1.1-0.8,1.1-2C192.2,354.5,191.9,353.6,191.1,353.6L191.1,353.6
			L191.1,353.6z"/>
	</g>
	<g>
		<path class="st11" d="M144.4,371.6v-9h1.2l2.7,4.6c0.6,1.1,1.1,2,1.5,2.9l0,0c-0.1-1.2-0.1-2.3-0.1-3.7v-3.8h1v9h-1.1l-2.7-4.6
			c-0.6-1-1.2-2-1.6-3l0,0c0.1,1.1,0.1,2.2,0.1,3.7v3.9L144.4,371.6L144.4,371.6z"/>
	</g>
	<g>
		<path class="st11" d="M171.5,370.8c0.2,0,0.5,0,0.9-0.1c0.7-0.1,1.3-0.4,1.7-0.8c0.5-0.5,0.9-1.3,1.1-2.3h0
			c-0.5,0.6-1.1,0.9-2,0.9c-1.5,0-2.4-1.2-2.4-2.7c0-1.6,1.1-3.1,2.8-3.1c1.7,0,2.7,1.4,2.7,3.7c0,1.9-0.6,3.3-1.4,4.1
			c-0.6,0.6-1.5,1.1-2.4,1.2c-0.4,0.1-0.8,0.1-1,0.1L171.5,370.8L171.5,370.8z M173.5,363.7c-0.9,0-1.6,0.9-1.6,2.1
			c0,1.1,0.6,1.8,1.6,1.8c0.8,0,1.3-0.4,1.6-0.9c0.1-0.1,0.1-0.2,0.1-0.4C175.2,364.8,174.7,363.7,173.5,363.7L173.5,363.7
			L173.5,363.7z"/>
		<path class="st11" d="M180,371.8c-1.6,0-2.7-1.6-2.8-4.5c0-2.9,1.2-4.5,2.9-4.5c1.7,0,2.7,1.6,2.7,4.4
			C182.9,370.2,181.8,371.8,180,371.8L180,371.8z M180,370.9c1.1,0,1.7-1.4,1.7-3.6c0-2.1-0.5-3.5-1.7-3.5c-1,0-1.7,1.4-1.7,3.5
			C178.3,369.5,179,370.9,180,370.9L180,370.9z"/>
		<path class="st11" d="M185.7,362.8c1.1,0,1.9,0.9,1.9,2.6c0,1.8-0.9,2.7-2,2.7c-1,0-1.9-0.9-1.9-2.6
			C183.7,363.8,184.6,362.8,185.7,362.8L185.7,362.8L185.7,362.8z M185.7,363.5c-0.7,0-1.1,0.9-1.1,2c0,1.1,0.4,2,1.1,2
			c0.7,0,1.1-0.8,1.1-2C186.7,364.4,186.5,363.5,185.7,363.5L185.7,363.5z M185.6,371.8l4.9-9h0.7l-4.9,9H185.6z M191.1,366.4
			c1.1,0,1.9,0.9,1.9,2.6c0,1.8-0.9,2.7-2,2.7c-1,0-1.9-0.9-1.9-2.6C189.1,367.4,190,366.4,191.1,366.4L191.1,366.4L191.1,366.4z
			 M191.1,367.1c-0.7,0-1.1,0.9-1.1,2c0,1.1,0.4,2,1.1,2c0.7,0,1.1-0.8,1.1-2C192.2,368,191.9,367.1,191.1,367.1L191.1,367.1
			L191.1,367.1z"/>
	</g>
	<g>
		<path class="st16" d="M73.8,278.1c-0.3,0.1-0.9,0.4-1.8,0.4c-1.9,0-3.1-1.3-3.1-3.3s1.3-3.5,3.3-3.5c0.7,0,1.3,0.2,1.6,0.3
			l-0.3,0.9c-0.3-0.1-0.7-0.3-1.3-0.3c-1.4,0-2.2,1.1-2.2,2.5c0,1.5,0.9,2.4,2.1,2.4c0.6,0,1.1-0.2,1.4-0.3L73.8,278.1z"/>
		<path class="st16" d="M77.6,278.5c-1.7,0-3-1.3-3-3.3c0-2.2,1.4-3.4,3.1-3.4c1.8,0,3,1.4,3,3.3C80.6,277.4,79,278.5,77.6,278.5
			L77.6,278.5L77.6,278.5z M77.6,277.6c1.1,0,1.9-1.1,1.9-2.5c0-1.1-0.5-2.5-1.8-2.5c-1.3,0-1.9,1.3-1.9,2.5
			C75.7,276.5,76.5,277.6,77.6,277.6L77.6,277.6L77.6,277.6z"/>
		<path class="st16" d="M82.4,271.9l1.2,3.6c0.2,0.6,0.4,1.1,0.5,1.7h0c0.1-0.5,0.3-1.1,0.5-1.7l1.2-3.6H87l-2.4,6.5h-1.1l-2.3-6.5
			H82.4z"/>
		<path class="st16" d="M92.3,276.8c0,0.6,0,1.1,0.1,1.6h-1l-0.1-0.8h0c-0.3,0.5-1,1-1.9,1c-1.2,0-1.9-0.9-1.9-1.9
			c0-1.6,1.3-2.4,3.7-2.4v-0.1c0-0.5-0.1-1.5-1.4-1.5c-0.6,0-1.2,0.2-1.6,0.5l-0.3-0.8c0.5-0.3,1.3-0.6,2-0.6c1.9,0,2.4,1.4,2.4,2.6
			V276.8z M91.2,275c-1.2,0-2.6,0.2-2.6,1.5c0,0.8,0.5,1.1,1,1.1c0.8,0,1.3-0.5,1.5-1.1c0-0.1,0.1-0.3,0.1-0.4V275z"/>
		<path class="st16" d="M94.1,273.9c0-0.8,0-1.4-0.1-2h1l0.1,1.3h0c0.3-0.9,1-1.4,1.7-1.4c0.1,0,0.2,0,0.3,0v1.1c-0.1,0-0.2,0-0.4,0
			c-0.8,0-1.4,0.6-1.5,1.5c0,0.2,0,0.4,0,0.6v3.5h-1.1L94.1,273.9z"/>
		<path class="st16" d="M98.9,271.9l1.3,3.8c0.2,0.4,0.3,0.9,0.4,1.3h0c0.1-0.4,0.2-0.9,0.4-1.4l1.2-3.8h1.2l-1.7,4.6
			c-0.8,2.2-1.4,3.4-2.1,4.1c-0.6,0.5-1.1,0.7-1.4,0.7l-0.3-1c0.3-0.1,0.7-0.3,1-0.6c0.3-0.3,0.7-0.7,0.9-1.3
			c0.1-0.1,0.1-0.2,0.1-0.3c0-0.1,0-0.2-0.1-0.3l-2.3-6H98.9z"/>
		<path class="st16" d="M105.1,270.7c-0.4,0-0.7-0.3-0.7-0.8s0.3-0.7,0.7-0.7c0.4,0,0.7,0.3,0.7,0.7S105.5,270.7,105.1,270.7
			L105.1,270.7z M104.5,278.3v-6.5h1.1v6.5H104.5z"/>
		<path class="st16" d="M107.5,273.6c0-0.7,0-1.2-0.1-1.8h1l0.1,1.1h0c0.3-0.6,1-1.2,2-1.2c0.9,0,2.2,0.5,2.2,2.8v3.9h-1.1v-3.7
			c0-1-0.4-1.9-1.4-1.9c-0.7,0-1.3,0.5-1.5,1.2c-0.1,0.1-0.1,0.4-0.1,0.5v3.9h-1.1V273.6z"/>
		<path class="st16" d="M119.9,277.4c0,1.5-0.3,2.4-0.9,3c-0.6,0.6-1.5,0.8-2.3,0.8c-0.7,0-1.6-0.2-2.1-0.5l0.3-0.9
			c0.4,0.3,1,0.5,1.8,0.5c1.1,0,2-0.6,2-2.3v-0.7h0c-0.3,0.6-1,1.1-2,1.1c-1.5,0-2.6-1.4-2.6-3.2c0-2.2,1.4-3.4,2.8-3.4
			c1.1,0,1.6,0.6,1.9,1.1h0l0-1h1c0,0.5-0.1,1-0.1,1.8L119.9,277.4L119.9,277.4z M118.8,274.4c0-0.2,0-0.4-0.1-0.5
			c-0.2-0.7-0.7-1.3-1.6-1.3c-1.1,0-1.8,0.9-1.8,2.5c0,1.3,0.6,2.3,1.8,2.3c0.7,0,1.3-0.5,1.6-1.2c0.1-0.2,0.1-0.4,0.1-0.6
			C118.8,275.6,118.8,274.4,118.8,274.4z"/>
		<path class="st16" d="M124.4,273.6c0-0.7,0-1.2-0.1-1.8h1l0.1,1h0c0.3-0.6,0.9-1.2,2-1.2c0.8,0,1.5,0.5,1.7,1.3h0
			c0.2-0.4,0.4-0.6,0.7-0.8c0.4-0.3,0.8-0.5,1.4-0.5c0.8,0,2,0.6,2,2.8v3.8h-1.1v-3.7c0-1.3-0.4-2-1.3-2c-0.7,0-1.1,0.5-1.3,1.1
			c-0.1,0.2-0.1,0.4-0.1,0.6v4h-1.1v-3.9c0-1-0.4-1.8-1.3-1.8c-0.7,0-1.2,0.6-1.4,1.2c-0.1,0.2-0.1,0.4-0.1,0.6v3.9h-1.1
			C124.4,278.3,124.4,273.6,124.4,273.6z"/>
		<path class="st16" d="M140.2,276.6c0,0.7,0,1.3,0.1,1.8h-1l-0.1-1.1h0c-0.3,0.5-0.9,1.2-2,1.2c-1,0-2.1-0.6-2.1-2.8v-3.8h1.1v3.6
			c0,1.2,0.4,2.1,1.4,2.1c0.8,0,1.3-0.5,1.5-1.1c0.1-0.2,0.1-0.4,0.1-0.6v-4h1.1L140.2,276.6L140.2,276.6z"/>
		<path class="st16" d="M143.5,270.3v1.6h1.6v0.9h-1.6v3.5c0,0.8,0.2,1.3,0.8,1.3c0.3,0,0.5,0,0.7-0.1l0.1,0.9
			c-0.2,0.1-0.6,0.2-1,0.2c-0.5,0-0.9-0.2-1.2-0.5c-0.3-0.4-0.4-0.9-0.4-1.7v-3.5h-1v-0.9h1v-1.2L143.5,270.3z"/>
		<path class="st16" d="M150.7,276.8c0,0.6,0,1.1,0.1,1.6h-1l-0.1-0.8h0c-0.3,0.5-1,1-1.9,1c-1.2,0-1.9-0.9-1.9-1.9
			c0-1.6,1.3-2.4,3.7-2.4v-0.1c0-0.5-0.1-1.5-1.4-1.5c-0.6,0-1.2,0.2-1.6,0.5l-0.3-0.8c0.5-0.3,1.3-0.6,2-0.6c1.9,0,2.4,1.4,2.4,2.6
			L150.7,276.8L150.7,276.8z M149.6,275c-1.2,0-2.6,0.2-2.6,1.5c0,0.8,0.5,1.1,1,1.1c0.8,0,1.3-0.5,1.5-1.1c0-0.1,0.1-0.3,0.1-0.4
			C149.6,276.2,149.6,275,149.6,275z"/>
		<path class="st16" d="M153.8,270.3v1.6h1.6v0.9h-1.6v3.5c0,0.8,0.2,1.3,0.8,1.3c0.3,0,0.5,0,0.7-0.1l0.1,0.9
			c-0.2,0.1-0.6,0.2-1,0.2c-0.5,0-0.9-0.2-1.2-0.5c-0.3-0.4-0.4-0.9-0.4-1.7v-3.5h-1v-0.9h1v-1.2L153.8,270.3z"/>
		<path class="st16" d="M157.2,270.7c-0.4,0-0.7-0.3-0.7-0.8s0.3-0.7,0.7-0.7c0.4,0,0.7,0.3,0.7,0.7S157.6,270.7,157.2,270.7
			L157.2,270.7z M156.6,278.3v-6.5h1.1v6.5H156.6z"/>
		<path class="st16" d="M162.1,278.5c-1.7,0-3-1.3-3-3.3c0-2.2,1.4-3.4,3.1-3.4c1.8,0,3,1.4,3,3.3
			C165.2,277.4,163.6,278.5,162.1,278.5L162.1,278.5L162.1,278.5z M162.2,277.6c1.1,0,1.9-1.1,1.9-2.5c0-1.1-0.5-2.5-1.8-2.5
			c-1.3,0-1.9,1.3-1.9,2.5C160.3,276.5,161.1,277.6,162.2,277.6L162.2,277.6L162.2,277.6z"/>
		<path class="st16" d="M166.6,273.6c0-0.7,0-1.2-0.1-1.8h1l0.1,1.1h0c0.3-0.6,1-1.2,2-1.2c0.9,0,2.2,0.5,2.2,2.8v3.9h-1.1v-3.7
			c0-1-0.4-1.9-1.4-1.9c-0.7,0-1.3,0.5-1.5,1.2c-0.1,0.1-0.1,0.4-0.1,0.5v3.9h-1.1L166.6,273.6L166.6,273.6z"/>
		<path class="st16" d="M173.6,277.2c0.3,0.2,0.9,0.5,1.5,0.5c0.8,0,1.2-0.4,1.2-1c0-0.6-0.3-0.9-1.1-1.2c-1.1-0.4-1.6-1.1-1.6-1.8
			c0-1,0.8-1.9,2.1-1.9c0.6,0,1.2,0.2,1.5,0.4l-0.3,0.8c-0.2-0.1-0.7-0.4-1.3-0.4c-0.7,0-1,0.4-1,0.9c0,0.5,0.4,0.8,1.2,1.1
			c1.1,0.4,1.6,1,1.6,2c0,1.2-0.9,2-2.3,2c-0.7,0-1.3-0.2-1.7-0.5L173.6,277.2z"/>
	</g>
	<g>
		<path class="st16" d="M41.8,256.3h1.1v4.1h0c0.4-0.7,1.1-1.2,2.1-1.2c1.5,0,2.6,1.3,2.6,3.3c0,2.3-1.4,3.5-2.8,3.5
			c-0.9,0-1.6-0.4-2.1-1.2h0l-0.1,1.1h-1c0-0.4,0.1-1.1,0.1-1.7L41.8,256.3L41.8,256.3z M42.9,263.2c0,0.1,0,0.3,0,0.4
			c0.2,0.8,0.9,1.4,1.7,1.4c1.2,0,1.9-1,1.9-2.5c0-1.3-0.6-2.4-1.8-2.4c-0.8,0-1.5,0.6-1.7,1.4c0,0.1-0.1,0.3-0.1,0.5
			C42.9,262,42.9,263.2,42.9,263.2z"/>
		<path class="st16" d="M53.4,264.3c0,0.6,0,1.1,0.1,1.6h-1l-0.1-0.8h0c-0.3,0.5-1,1-1.9,1c-1.2,0-1.9-0.9-1.9-1.9
			c0-1.6,1.3-2.4,3.7-2.4v-0.1c0-0.5-0.1-1.5-1.4-1.5c-0.6,0-1.2,0.2-1.6,0.5l-0.3-0.8c0.5-0.3,1.3-0.6,2-0.6c1.9,0,2.4,1.4,2.4,2.6
			C53.4,261.8,53.4,264.3,53.4,264.3z M52.3,262.5c-1.2,0-2.6,0.2-2.6,1.5c0,0.8,0.5,1.1,1,1.1c0.8,0,1.3-0.5,1.5-1.1
			c0-0.1,0.1-0.3,0.1-0.4V262.5z"/>
		<path class="st16" d="M55,264.6c0.3,0.2,0.9,0.5,1.5,0.5c0.8,0,1.2-0.4,1.2-1c0-0.6-0.3-0.9-1.1-1.2c-1.1-0.4-1.6-1.1-1.6-1.8
			c0-1,0.8-1.9,2.1-1.9c0.6,0,1.2,0.2,1.5,0.4l-0.3,0.8c-0.2-0.1-0.7-0.4-1.3-0.4c-0.7,0-1,0.4-1,0.9c0,0.5,0.4,0.8,1.2,1.1
			c1.1,0.4,1.6,1,1.6,2c0,1.2-0.9,2-2.3,2c-0.7,0-1.3-0.2-1.7-0.5L55,264.6z"/>
		<path class="st16" d="M60.9,262.8c0,1.6,1,2.2,2.1,2.2c0.8,0,1.3-0.1,1.7-0.3l0.2,0.8c-0.4,0.2-1.1,0.4-2.1,0.4
			c-1.9,0-3-1.3-3-3.3c0-2,1.1-3.5,2.9-3.5c2,0,2.5,1.9,2.5,3.1c0,0.2,0,0.4,0,0.6L60.9,262.8z M64.1,261.9c0-0.7-0.3-1.9-1.5-1.9
			c-1.1,0-1.6,1.1-1.7,1.9H64.1z"/>
		<path class="st16" d="M69.3,261.4c0-0.8,0-1.5-0.1-2.1h1l0.1,1.1h0c0.4-0.8,1.2-1.3,2.2-1.3c1.5,0,2.6,1.3,2.6,3.3
			c0,2.3-1.4,3.5-2.8,3.5c-0.8,0-1.5-0.4-1.9-1h0v3.5h-1.1V261.4z M70.4,263.2c0,0.2,0,0.3,0.1,0.5c0.2,0.8,0.9,1.4,1.7,1.4
			c1.2,0,1.9-1,1.9-2.5c0-1.3-0.6-2.4-1.8-2.4c-0.8,0-1.5,0.6-1.7,1.4c0,0.2-0.1,0.3-0.1,0.5C70.4,262,70.4,263.2,70.4,263.2z"/>
		<path class="st16" d="M80.9,264.3c0,0.6,0,1.1,0.1,1.6h-1l-0.1-0.8h0c-0.3,0.5-1,1-1.9,1c-1.2,0-1.9-0.9-1.9-1.9
			c0-1.6,1.3-2.4,3.7-2.4v-0.1c0-0.5-0.1-1.5-1.4-1.5c-0.6,0-1.2,0.2-1.6,0.5l-0.3-0.8c0.5-0.3,1.3-0.6,2-0.6c1.9,0,2.4,1.4,2.4,2.6
			L80.9,264.3L80.9,264.3z M79.8,262.5c-1.2,0-2.6,0.2-2.6,1.5c0,0.8,0.5,1.1,1,1.1c0.8,0,1.3-0.5,1.5-1.1c0-0.1,0.1-0.3,0.1-0.4
			V262.5z"/>
		<path class="st16" d="M83.3,258.1c-0.4,0-0.7-0.3-0.7-0.8c0-0.4,0.3-0.7,0.7-0.7c0.4,0,0.7,0.3,0.7,0.7
			C84,257.8,83.7,258.1,83.3,258.1L83.3,258.1z M82.7,265.8v-6.5h1.1v6.5H82.7z"/>
		<path class="st16" d="M85.7,261.4c0-0.8,0-1.4-0.1-2h1l0.1,1.3h0c0.3-0.9,1-1.4,1.7-1.4c0.1,0,0.2,0,0.3,0v1.1c-0.1,0-0.2,0-0.4,0
			c-0.8,0-1.4,0.6-1.5,1.5c0,0.2,0,0.4,0,0.6v3.5h-1.1L85.7,261.4z"/>
		<path class="st16" d="M96.9,264.3c0,0.6,0,1.1,0.1,1.6h-1l-0.1-0.8h0c-0.3,0.5-1,1-1.9,1c-1.2,0-1.9-0.9-1.9-1.9
			c0-1.6,1.3-2.4,3.7-2.4v-0.1c0-0.5-0.1-1.5-1.4-1.5c-0.6,0-1.2,0.2-1.6,0.5l-0.3-0.8c0.5-0.3,1.3-0.6,2-0.6c1.9,0,2.4,1.4,2.4,2.6
			L96.9,264.3L96.9,264.3z M95.8,262.5c-1.2,0-2.6,0.2-2.6,1.5c0,0.8,0.5,1.1,1,1.1c0.8,0,1.3-0.5,1.5-1.1c0-0.1,0.1-0.3,0.1-0.4
			V262.5z"/>
		<path class="st16" d="M98.7,261.1c0-0.7,0-1.2-0.1-1.8h1l0.1,1.1h0c0.3-0.6,1-1.2,2-1.2c0.9,0,2.2,0.5,2.2,2.8v3.9h-1.1v-3.7
			c0-1-0.4-1.9-1.4-1.9c-0.7,0-1.3,0.5-1.5,1.2c-0.1,0.1-0.1,0.4-0.1,0.5v3.9h-1.1L98.7,261.1L98.7,261.1z"/>
		<path class="st16" d="M105.8,261.1c0-0.7,0-1.2-0.1-1.8h1l0.1,1.1h0c0.3-0.6,1-1.2,2-1.2c0.9,0,2.2,0.5,2.2,2.8v3.9h-1.1v-3.7
			c0-1-0.4-1.9-1.4-1.9c-0.7,0-1.3,0.5-1.5,1.2c-0.1,0.1-0.1,0.4-0.1,0.5v3.9h-1.1L105.8,261.1L105.8,261.1z"/>
		<path class="st16" d="M115.4,266c-1.7,0-3-1.3-3-3.3c0-2.2,1.4-3.4,3.1-3.4c1.8,0,3,1.4,3,3.3C118.5,264.9,116.9,266,115.4,266
			L115.4,266L115.4,266z M115.4,265.1c1.1,0,1.9-1.1,1.9-2.5c0-1.1-0.5-2.5-1.8-2.5c-1.3,0-1.9,1.3-1.9,2.5
			C113.6,264,114.3,265.1,115.4,265.1L115.4,265.1L115.4,265.1z"/>
		<path class="st16" d="M121.2,257.8v1.6h1.6v0.9h-1.6v3.5c0,0.8,0.2,1.3,0.8,1.3c0.3,0,0.5,0,0.7-0.1l0.1,0.9
			c-0.2,0.1-0.6,0.2-1,0.2c-0.5,0-0.9-0.2-1.2-0.5c-0.3-0.4-0.4-0.9-0.4-1.7v-3.5h-1v-0.9h1v-1.2L121.2,257.8z"/>
		<path class="st16" d="M128.5,264.3c0,0.6,0,1.1,0.1,1.6h-1l-0.1-0.8h0c-0.3,0.5-1,1-1.9,1c-1.2,0-1.9-0.9-1.9-1.9
			c0-1.6,1.3-2.4,3.7-2.4v-0.1c0-0.5-0.1-1.5-1.4-1.5c-0.6,0-1.2,0.2-1.6,0.5l-0.3-0.8c0.5-0.3,1.3-0.6,2-0.6c1.9,0,2.4,1.4,2.4,2.6
			V264.3z M127.4,262.5c-1.2,0-2.6,0.2-2.6,1.5c0,0.8,0.5,1.1,1,1.1c0.8,0,1.3-0.5,1.5-1.1c0-0.1,0.1-0.3,0.1-0.4V262.5z"/>
		<path class="st16" d="M131.6,257.8v1.6h1.6v0.9h-1.6v3.5c0,0.8,0.2,1.3,0.8,1.3c0.3,0,0.5,0,0.7-0.1l0.1,0.9
			c-0.2,0.1-0.6,0.2-1,0.2c-0.5,0-0.9-0.2-1.2-0.5c-0.3-0.4-0.4-0.9-0.4-1.7v-3.5h-1v-0.9h1v-1.2L131.6,257.8z"/>
		<path class="st16" d="M135,258.1c-0.4,0-0.7-0.3-0.7-0.8c0-0.4,0.3-0.7,0.7-0.7s0.7,0.3,0.7,0.7
			C135.7,257.8,135.4,258.1,135,258.1L135,258.1z M134.4,265.8v-6.5h1.1v6.5H134.4z"/>
		<path class="st16" d="M139.9,266c-1.7,0-3-1.3-3-3.3c0-2.2,1.4-3.4,3.1-3.4c1.8,0,3,1.4,3,3.3C143,264.9,141.4,266,139.9,266
			L139.9,266L139.9,266z M140,265.1c1.1,0,1.9-1.1,1.9-2.5c0-1.1-0.5-2.5-1.8-2.5c-1.3,0-1.9,1.3-1.9,2.5
			C138.1,264,138.9,265.1,140,265.1L140,265.1L140,265.1z"/>
		<path class="st16" d="M144.4,261.1c0-0.7,0-1.2-0.1-1.8h1l0.1,1.1h0c0.3-0.6,1-1.2,2-1.2c0.9,0,2.2,0.5,2.2,2.8v3.9h-1.1v-3.7
			c0-1-0.4-1.9-1.4-1.9c-0.7,0-1.3,0.5-1.5,1.2c-0.1,0.1-0.1,0.4-0.1,0.5v3.9h-1.1C144.4,265.8,144.4,261.1,144.4,261.1z"/>
		<path class="st16" d="M151.4,264.6c0.3,0.2,0.9,0.5,1.5,0.5c0.8,0,1.2-0.4,1.2-1c0-0.6-0.3-0.9-1.1-1.2c-1.1-0.4-1.6-1.1-1.6-1.8
			c0-1,0.8-1.9,2.1-1.9c0.6,0,1.2,0.2,1.5,0.4l-0.3,0.8c-0.2-0.1-0.7-0.4-1.3-0.4c-0.7,0-1,0.4-1,0.9c0,0.5,0.4,0.8,1.2,1.1
			c1.1,0.4,1.6,1,1.6,2c0,1.2-0.9,2-2.3,2c-0.7,0-1.3-0.2-1.7-0.5L151.4,264.6z"/>
	</g>
	<g>
		<path class="st16" d="M73.8,289.8c-0.3,0.1-0.9,0.4-1.8,0.4c-1.9,0-3.1-1.3-3.1-3.3s1.3-3.5,3.3-3.5c0.7,0,1.3,0.2,1.6,0.3
			l-0.3,0.9c-0.3-0.1-0.7-0.3-1.3-0.3c-1.4,0-2.2,1.1-2.2,2.5c0,1.5,0.9,2.4,2.1,2.4c0.6,0,1.1-0.2,1.4-0.3L73.8,289.8z"/>
		<path class="st16" d="M77.6,290.2c-1.7,0-3-1.3-3-3.3c0-2.2,1.4-3.4,3.1-3.4c1.8,0,3,1.4,3,3.3C80.6,289.2,79,290.2,77.6,290.2
			L77.6,290.2L77.6,290.2z M77.6,289.3c1.1,0,1.9-1.1,1.9-2.5c0-1.1-0.5-2.5-1.8-2.5c-1.3,0-1.9,1.3-1.9,2.5
			C75.7,288.2,76.5,289.3,77.6,289.3L77.6,289.3L77.6,289.3z"/>
		<path class="st16" d="M82,285.3c0-0.7,0-1.2-0.1-1.8h1l0.1,1h0c0.3-0.6,0.9-1.2,2-1.2c0.8,0,1.5,0.5,1.7,1.3h0
			c0.2-0.4,0.4-0.6,0.7-0.8c0.4-0.3,0.8-0.5,1.4-0.5c0.8,0,2,0.6,2,2.8v3.8h-1.1v-3.7c0-1.3-0.4-2-1.3-2c-0.7,0-1.1,0.5-1.3,1.1
			c-0.1,0.2-0.1,0.4-0.1,0.6v4h-1.1v-3.9c0-1-0.4-1.8-1.3-1.8c-0.7,0-1.2,0.6-1.4,1.2c-0.1,0.2-0.1,0.4-0.1,0.6v3.9H82V285.3z"/>
		<path class="st16" d="M92.7,285.7c0-0.8,0-1.5-0.1-2.1h1l0.1,1.1h0c0.4-0.8,1.2-1.3,2.2-1.3c1.5,0,2.6,1.3,2.6,3.3
			c0,2.3-1.4,3.5-2.8,3.5c-0.8,0-1.5-0.4-1.9-1h0v3.5h-1.1V285.7z M93.8,287.4c0,0.2,0,0.3,0.1,0.5c0.2,0.8,0.9,1.4,1.7,1.4
			c1.2,0,1.9-1,1.9-2.5c0-1.3-0.6-2.4-1.8-2.4c-0.8,0-1.5,0.6-1.7,1.4c0,0.2-0.1,0.3-0.1,0.5C93.8,286.3,93.8,287.4,93.8,287.4z"/>
		<path class="st16" d="M104.3,288.5c0,0.6,0,1.1,0.1,1.6h-1l-0.1-0.8h0c-0.3,0.5-1,1-1.9,1c-1.2,0-1.9-0.9-1.9-1.9
			c0-1.6,1.3-2.4,3.7-2.4v-0.1c0-0.5-0.1-1.5-1.4-1.5c-0.6,0-1.2,0.2-1.6,0.5l-0.3-0.8c0.5-0.3,1.3-0.6,2-0.6c1.9,0,2.4,1.4,2.4,2.6
			V288.5z M103.2,286.7c-1.2,0-2.6,0.2-2.6,1.5c0,0.8,0.5,1.1,1,1.1c0.8,0,1.3-0.5,1.5-1.1c0-0.1,0.1-0.3,0.1-0.4V286.7z"/>
		<path class="st16" d="M107.4,282v1.6h1.6v0.9h-1.6v3.5c0,0.8,0.2,1.3,0.8,1.3c0.3,0,0.5,0,0.7-0.1l0.1,0.9c-0.2,0.1-0.6,0.2-1,0.2
			c-0.5,0-0.9-0.2-1.2-0.5c-0.3-0.4-0.4-0.9-0.4-1.7v-3.5h-1v-0.9h1v-1.2L107.4,282z"/>
		<path class="st16" d="M110.8,282.4c-0.4,0-0.7-0.3-0.7-0.8s0.3-0.7,0.7-0.7c0.4,0,0.7,0.3,0.7,0.7S111.3,282.4,110.8,282.4
			L110.8,282.4z M110.3,290.1v-6.5h1.1v6.5H110.3z"/>
		<path class="st16" d="M113.2,280.6h1.1v4.1h0c0.4-0.7,1.1-1.2,2.1-1.2c1.5,0,2.6,1.3,2.6,3.3c0,2.3-1.4,3.5-2.8,3.5
			c-0.9,0-1.6-0.4-2.1-1.2h0l-0.1,1.1h-1c0-0.4,0.1-1.1,0.1-1.7L113.2,280.6L113.2,280.6z M114.4,287.5c0,0.1,0,0.3,0,0.4
			c0.2,0.8,0.9,1.4,1.7,1.4c1.2,0,1.9-1,1.9-2.5c0-1.3-0.6-2.4-1.8-2.4c-0.8,0-1.5,0.6-1.7,1.4c0,0.1-0.1,0.3-0.1,0.5V287.5z"/>
		<path class="st16" d="M120.5,280.6h1.1v9.5h-1.1V280.6z"/>
		<path class="st16" d="M124.1,287c0,1.6,1,2.2,2.1,2.2c0.8,0,1.3-0.1,1.7-0.3l0.2,0.8c-0.4,0.2-1.1,0.4-2.1,0.4c-1.9,0-3-1.3-3-3.3
			c0-2,1.1-3.5,2.9-3.5c2,0,2.5,1.9,2.5,3c0,0.2,0,0.4,0,0.6L124.1,287z M127.4,286.2c0-0.7-0.3-1.9-1.5-1.9c-1.1,0-1.6,1.1-1.7,1.9
			H127.4z"/>
		<path class="st16" d="M132.6,285.3c0-0.7,0-1.2-0.1-1.8h1l0.1,1h0c0.3-0.6,0.9-1.2,2-1.2c0.8,0,1.5,0.5,1.7,1.3h0
			c0.2-0.4,0.4-0.6,0.7-0.8c0.4-0.3,0.8-0.5,1.4-0.5c0.8,0,2,0.6,2,2.8v3.8h-1.1v-3.7c0-1.3-0.4-2-1.3-2c-0.7,0-1.1,0.5-1.3,1.1
			c-0.1,0.2-0.1,0.4-0.1,0.6v4h-1.1v-3.9c0-1-0.4-1.8-1.3-1.8c-0.7,0-1.2,0.6-1.4,1.2c-0.1,0.2-0.1,0.4-0.1,0.6v3.9h-1.1V285.3z"/>
		<path class="st16" d="M148.4,288.3c0,0.7,0,1.3,0.1,1.8h-1l-0.1-1.1h0c-0.3,0.5-0.9,1.2-2,1.2c-1,0-2.1-0.6-2.1-2.8v-3.8h1.1v3.6
			c0,1.2,0.4,2.1,1.4,2.1c0.8,0,1.3-0.5,1.5-1.1c0.1-0.2,0.1-0.4,0.1-0.6v-4h1.1L148.4,288.3L148.4,288.3z"/>
		<path class="st16" d="M151.6,282v1.6h1.6v0.9h-1.6v3.5c0,0.8,0.2,1.3,0.8,1.3c0.3,0,0.5,0,0.7-0.1l0.1,0.9c-0.2,0.1-0.6,0.2-1,0.2
			c-0.5,0-0.9-0.2-1.2-0.5c-0.3-0.4-0.4-0.9-0.4-1.7v-3.5h-1v-0.9h1v-1.2L151.6,282z"/>
		<path class="st16" d="M158.8,288.5c0,0.6,0,1.1,0.1,1.6h-1l-0.1-0.8h0c-0.3,0.5-1,1-1.9,1c-1.2,0-1.9-0.9-1.9-1.9
			c0-1.6,1.3-2.4,3.7-2.4v-0.1c0-0.5-0.1-1.5-1.4-1.5c-0.6,0-1.2,0.2-1.6,0.5l-0.3-0.8c0.5-0.3,1.3-0.6,2-0.6c1.9,0,2.4,1.4,2.4,2.6
			L158.8,288.5L158.8,288.5z M157.7,286.7c-1.2,0-2.6,0.2-2.6,1.5c0,0.8,0.5,1.1,1,1.1c0.8,0,1.3-0.5,1.5-1.1c0-0.1,0.1-0.3,0.1-0.4
			C157.7,287.9,157.7,286.7,157.7,286.7z"/>
		<path class="st16" d="M161.9,282v1.6h1.6v0.9h-1.6v3.5c0,0.8,0.2,1.3,0.8,1.3c0.3,0,0.5,0,0.7-0.1l0.1,0.9c-0.2,0.1-0.6,0.2-1,0.2
			c-0.5,0-0.9-0.2-1.2-0.5c-0.3-0.4-0.4-0.9-0.4-1.7v-3.5h-1v-0.9h1v-1.2L161.9,282z"/>
		<path class="st16" d="M165.3,282.4c-0.4,0-0.7-0.3-0.7-0.8s0.3-0.7,0.7-0.7c0.4,0,0.7,0.3,0.7,0.7S165.8,282.4,165.3,282.4
			L165.3,282.4z M164.8,290.1v-6.5h1.1v6.5H164.8z"/>
		<path class="st16" d="M170.3,290.2c-1.7,0-3-1.3-3-3.3c0-2.2,1.4-3.4,3.1-3.4c1.8,0,3,1.4,3,3.3
			C173.4,289.2,171.8,290.2,170.3,290.2L170.3,290.2L170.3,290.2z M170.3,289.3c1.1,0,1.9-1.1,1.9-2.5c0-1.1-0.5-2.5-1.8-2.5
			c-1.3,0-1.9,1.3-1.9,2.5C168.5,288.2,169.2,289.3,170.3,289.3L170.3,289.3L170.3,289.3z"/>
		<path class="st16" d="M174.8,285.3c0-0.7,0-1.2-0.1-1.8h1l0.1,1.1h0c0.3-0.6,1-1.2,2-1.2c0.9,0,2.2,0.5,2.2,2.8v3.9h-1.1v-3.7
			c0-1-0.4-1.9-1.4-1.9c-0.7,0-1.3,0.5-1.5,1.2c-0.1,0.1-0.1,0.4-0.1,0.5v3.9h-1.1C174.8,290.1,174.8,285.3,174.8,285.3z"/>
		<path class="st16" d="M181.7,288.9c0.3,0.2,0.9,0.5,1.5,0.5c0.8,0,1.2-0.4,1.2-1c0-0.6-0.3-0.9-1.1-1.2c-1.1-0.4-1.6-1.1-1.6-1.8
			c0-1,0.8-1.9,2.1-1.9c0.6,0,1.2,0.2,1.5,0.4l-0.3,0.8c-0.2-0.1-0.7-0.4-1.3-0.4c-0.7,0-1,0.4-1,0.9c0,0.5,0.4,0.8,1.2,1.1
			c1.1,0.4,1.6,1,1.6,2c0,1.2-0.9,2-2.3,2c-0.7,0-1.3-0.2-1.7-0.5L181.7,288.9z"/>
	</g>
	<g>
		<path class="st16" d="M69.4,297c0-0.7,0-1.2-0.1-1.8h1l0.1,1.1h0c0.3-0.6,1-1.2,2-1.2c0.9,0,2.2,0.5,2.2,2.8v3.9h-1.1V298
			c0-1-0.4-1.9-1.4-1.9c-0.7,0-1.3,0.5-1.5,1.2c-0.1,0.1-0.1,0.4-0.1,0.5v3.9h-1.1L69.4,297L69.4,297z"/>
		<path class="st16" d="M79,301.9c-1.7,0-3-1.3-3-3.3c0-2.2,1.4-3.4,3.1-3.4c1.8,0,3,1.4,3,3.3C82.1,300.9,80.5,301.9,79,301.9
			L79,301.9L79,301.9z M79,301c1.1,0,1.9-1.1,1.9-2.5c0-1.1-0.5-2.5-1.8-2.5c-1.3,0-1.9,1.3-1.9,2.5C77.2,300,77.9,301,79,301
			L79,301L79,301z"/>
		<path class="st16" d="M86.2,297c0-0.7,0-1.2-0.1-1.8h1l0.1,1h0c0.3-0.6,0.9-1.2,2-1.2c0.8,0,1.5,0.5,1.7,1.3h0
			c0.2-0.4,0.4-0.6,0.7-0.8c0.4-0.3,0.8-0.5,1.4-0.5c0.8,0,2,0.6,2,2.8v3.8h-1.1v-3.7c0-1.3-0.4-2-1.3-2c-0.7,0-1.1,0.5-1.3,1.1
			c-0.1,0.2-0.1,0.4-0.1,0.6v4H90v-3.9c0-1-0.4-1.8-1.3-1.8c-0.7,0-1.2,0.6-1.4,1.2c-0.1,0.2-0.1,0.4-0.1,0.6v3.9h-1.1V297z"/>
		<path class="st16" d="M102,300c0,0.7,0,1.3,0.1,1.8h-1l-0.1-1.1h0c-0.3,0.5-0.9,1.2-2,1.2c-1,0-2.1-0.6-2.1-2.8v-3.8h1.1v3.6
			c0,1.2,0.4,2.1,1.4,2.1c0.8,0,1.3-0.5,1.5-1.1c0.1-0.2,0.1-0.4,0.1-0.6v-4h1.1L102,300L102,300z"/>
		<path class="st16" d="M105.2,293.7v1.6h1.6v0.9h-1.6v3.5c0,0.8,0.2,1.3,0.8,1.3c0.3,0,0.5,0,0.7-0.1l0.1,0.9
			c-0.2,0.1-0.6,0.2-1,0.2c-0.5,0-0.9-0.2-1.2-0.5c-0.3-0.4-0.4-0.9-0.4-1.7v-3.5h-1v-0.9h1v-1.2L105.2,293.7z"/>
		<path class="st16" d="M112.4,300.2c0,0.6,0,1.1,0.1,1.6h-1l-0.1-0.8h0c-0.3,0.5-1,1-1.9,1c-1.2,0-1.9-0.9-1.9-1.9
			c0-1.6,1.3-2.4,3.7-2.4v-0.1c0-0.5-0.1-1.5-1.4-1.5c-0.6,0-1.2,0.2-1.6,0.5l-0.3-0.8c0.5-0.3,1.3-0.6,2-0.6c1.9,0,2.4,1.4,2.4,2.6
			L112.4,300.2L112.4,300.2z M111.3,298.5c-1.2,0-2.6,0.2-2.6,1.5c0,0.8,0.5,1.1,1,1.1c0.8,0,1.3-0.5,1.5-1.1c0-0.1,0.1-0.3,0.1-0.4
			V298.5z"/>
		<path class="st16" d="M115.5,293.7v1.6h1.6v0.9h-1.6v3.5c0,0.8,0.2,1.3,0.8,1.3c0.3,0,0.5,0,0.7-0.1l0.1,0.9
			c-0.2,0.1-0.6,0.2-1,0.2c-0.5,0-0.9-0.2-1.2-0.5c-0.3-0.4-0.4-0.9-0.4-1.7v-3.5h-1v-0.9h1v-1.2L115.5,293.7z"/>
		<path class="st16" d="M118.9,294.1c-0.4,0-0.7-0.3-0.7-0.8s0.3-0.7,0.7-0.7c0.4,0,0.7,0.3,0.7,0.7S119.4,294.1,118.9,294.1
			L118.9,294.1z M118.4,301.8v-6.5h1.1v6.5H118.4z"/>
		<path class="st16" d="M123.9,301.9c-1.7,0-3-1.3-3-3.3c0-2.2,1.4-3.4,3.1-3.4c1.8,0,3,1.4,3,3.3
			C127,300.9,125.4,301.9,123.9,301.9L123.9,301.9L123.9,301.9z M123.9,301c1.1,0,1.9-1.1,1.9-2.5c0-1.1-0.5-2.5-1.8-2.5
			c-1.3,0-1.9,1.3-1.9,2.5C122.1,300,122.8,301,123.9,301L123.9,301L123.9,301z"/>
		<path class="st16" d="M128.4,297c0-0.7,0-1.2-0.1-1.8h1l0.1,1.1h0c0.3-0.6,1-1.2,2-1.2c0.9,0,2.2,0.5,2.2,2.8v3.9h-1.1V298
			c0-1-0.4-1.9-1.4-1.9c-0.7,0-1.3,0.5-1.5,1.2c-0.1,0.1-0.1,0.4-0.1,0.5v3.9h-1.1L128.4,297L128.4,297z"/>
		<path class="st16" d="M135.3,300.6c0.3,0.2,0.9,0.5,1.5,0.5c0.8,0,1.2-0.4,1.2-1c0-0.6-0.3-0.9-1.1-1.2c-1.1-0.4-1.6-1.1-1.6-1.8
			c0-1,0.8-1.9,2.1-1.9c0.6,0,1.2,0.2,1.5,0.4l-0.3,0.8c-0.2-0.1-0.7-0.4-1.3-0.4c-0.7,0-1,0.4-1,0.9c0,0.5,0.4,0.8,1.2,1.1
			c1.1,0.4,1.6,1,1.6,2c0,1.2-0.9,2-2.3,2c-0.7,0-1.3-0.2-1.7-0.5L135.3,300.6z"/>
		<path class="st16" d="M145.7,301.9c-1.7,0-3-1.3-3-3.3c0-2.2,1.4-3.4,3.1-3.4c1.8,0,3,1.4,3,3.3
			C148.8,300.9,147.2,301.9,145.7,301.9L145.7,301.9L145.7,301.9z M145.8,301c1.1,0,1.9-1.1,1.9-2.5c0-1.1-0.5-2.5-1.8-2.5
			c-1.3,0-1.9,1.3-1.9,2.5C143.9,300,144.7,301,145.8,301L145.8,301L145.8,301z"/>
		<path class="st16" d="M150.2,292.3h1.1v4.1h0c0.4-0.7,1.1-1.2,2.1-1.2c1.5,0,2.6,1.3,2.6,3.3c0,2.3-1.4,3.5-2.8,3.5
			c-0.9,0-1.6-0.4-2.1-1.2h0l-0.1,1.1h-1c0-0.4,0.1-1.1,0.1-1.7C150.2,300.1,150.2,292.3,150.2,292.3z M151.3,299.2
			c0,0.1,0,0.3,0,0.4c0.2,0.8,0.9,1.4,1.7,1.4c1.2,0,1.9-1,1.9-2.5c0-1.3-0.6-2.4-1.8-2.4c-0.8,0-1.5,0.6-1.7,1.4
			c0,0.1-0.1,0.3-0.1,0.5C151.3,298,151.3,299.2,151.3,299.2z"/>
		<path class="st16" d="M157.3,300.6c0.3,0.2,0.9,0.5,1.5,0.5c0.8,0,1.2-0.4,1.2-1c0-0.6-0.3-0.9-1.1-1.2c-1.1-0.4-1.6-1.1-1.6-1.8
			c0-1,0.8-1.9,2.1-1.9c0.6,0,1.2,0.2,1.5,0.4l-0.3,0.8c-0.2-0.1-0.7-0.4-1.3-0.4c-0.7,0-1,0.4-1,0.9c0,0.5,0.4,0.8,1.2,1.1
			c1.1,0.4,1.6,1,1.6,2c0,1.2-0.9,2-2.3,2c-0.7,0-1.3-0.2-1.7-0.5L157.3,300.6z"/>
		<path class="st16" d="M163.2,298.7c0,1.6,1,2.2,2.1,2.2c0.8,0,1.3-0.1,1.7-0.3l0.2,0.8c-0.4,0.2-1.1,0.4-2.1,0.4
			c-1.9,0-3-1.3-3-3.3c0-2,1.1-3.5,2.9-3.5c2,0,2.5,1.9,2.5,3c0,0.2,0,0.4,0,0.6L163.2,298.7z M166.4,297.9c0-0.7-0.3-1.9-1.5-1.9
			c-1.1,0-1.6,1.1-1.7,1.9H166.4z"/>
		<path class="st16" d="M168.9,297.3c0-0.8,0-1.4-0.1-2h1l0.1,1.3h0c0.3-0.9,1-1.4,1.7-1.4c0.1,0,0.2,0,0.3,0v1.1
			c-0.1,0-0.2,0-0.4,0c-0.8,0-1.4,0.6-1.5,1.5c0,0.2,0,0.4,0,0.6v3.5h-1.1L168.9,297.3z"/>
		<path class="st16" d="M173.8,295.3l1.2,3.6c0.2,0.6,0.4,1.1,0.5,1.7h0c0.1-0.5,0.3-1.1,0.5-1.7l1.2-3.6h1.2l-2.4,6.5H175l-2.3-6.5
			H173.8z"/>
		<path class="st16" d="M180,298.7c0,1.6,1,2.2,2.1,2.2c0.8,0,1.3-0.1,1.7-0.3l0.2,0.8c-0.4,0.2-1.1,0.4-2.1,0.4c-1.9,0-3-1.3-3-3.3
			c0-2,1.1-3.5,2.9-3.5c2,0,2.5,1.9,2.5,3c0,0.2,0,0.4,0,0.6L180,298.7z M183.3,297.9c0-0.7-0.3-1.9-1.5-1.9c-1.1,0-1.6,1.1-1.7,1.9
			H183.3z"/>
		<path class="st16" d="M191.1,292.3v7.8c0,0.6,0,1.2,0.1,1.7h-1l-0.1-1.1h0c-0.3,0.7-1.1,1.3-2.1,1.3c-1.5,0-2.7-1.3-2.7-3.3
			c0-2.2,1.3-3.5,2.8-3.5c1,0,1.6,0.5,1.9,1h0v-3.9H191.1z M190,297.9c0-0.2,0-0.3-0.1-0.5c-0.2-0.7-0.8-1.4-1.6-1.4
			c-1.2,0-1.8,1.1-1.8,2.5c0,1.3,0.6,2.4,1.8,2.4c0.8,0,1.4-0.5,1.6-1.4c0-0.2,0.1-0.3,0.1-0.5C190,299,190,297.9,190,297.9z"/>
	</g>
	<rect x="40.8" y="295" class="st17" width="6.5" height="6.8"/>
	<rect x="56.2" y="295" class="st17" width="6.5" height="6.8"/>
	<rect x="47.3" y="295" class="st17" width="8.9" height="6.8"/>
	<line class="st18" x1="51.8" y1="298.8" x2="51.8" y2="297.9"/>
	<rect x="56.2" y="271.5" class="st19" width="6.8" height="6.5"/>
	<rect x="40.8" y="271.5" class="st19" width="6.8" height="6.5"/>
	<rect x="47.6" y="271.5" class="st19" width="8.6" height="6.5"/>
	<line class="st4" x1="53.1" y1="274.7" x2="50.7" y2="274.7"/>
	<rect x="56.2" y="283.3" class="st20" width="6.8" height="6.5"/>
	<rect x="40.8" y="283.3" class="st20" width="6.8" height="6.5"/>
	<rect x="47.6" y="283.3" class="st20" width="8.6" height="6.5"/>
	<line class="st4" x1="53.1" y1="286.5" x2="50.7" y2="286.5"/>
	<g>
		<line class="st7" x1="217.6" y1="261" x2="236.7" y2="261"/>
		<g>
			<path class="st11" d="M245.4,258.4l1.2,3.6c0.2,0.6,0.4,1.1,0.5,1.7h0c0.1-0.5,0.3-1.1,0.5-1.7l1.2-3.6h1.2l-2.4,6.5h-1.1
				l-2.3-6.5H245.4z"/>
			<path class="st11" d="M255.3,263.3c0,0.6,0,1.1,0.1,1.6h-1l-0.1-0.8h0c-0.3,0.5-1,1-1.9,1c-1.3,0-1.9-0.9-1.9-1.9
				c0-1.6,1.3-2.4,3.7-2.4v-0.1c0-0.5-0.1-1.5-1.4-1.5c-0.6,0-1.2,0.2-1.6,0.5l-0.3-0.8c0.5-0.3,1.3-0.6,2-0.6
				c1.9,0,2.4,1.4,2.4,2.6L255.3,263.3L255.3,263.3z M254.2,261.6c-1.2,0-2.6,0.2-2.6,1.5c0,0.8,0.5,1.1,1,1.1
				c0.8,0,1.3-0.5,1.5-1.1c0-0.1,0.1-0.3,0.1-0.4L254.2,261.6L254.2,261.6z"/>
			<path class="st11" d="M257.1,260.4c0-0.8,0-1.4-0.1-2h1l0.1,1.3h0c0.3-0.9,1-1.4,1.7-1.4c0.1,0,0.2,0,0.3,0v1.1
				c-0.1,0-0.2,0-0.4,0c-0.8,0-1.4,0.6-1.5,1.5c0,0.2,0,0.4,0,0.6v3.5h-1.1L257.1,260.4z"/>
			<path class="st11" d="M261.9,257.2c-0.4,0-0.7-0.3-0.7-0.8s0.3-0.7,0.7-0.7c0.4,0,0.7,0.3,0.7,0.7S262.3,257.2,261.9,257.2
				L261.9,257.2z M261.3,264.9v-6.5h1.1v6.5H261.3z"/>
			<path class="st11" d="M268.7,263.3c0,0.6,0,1.1,0.1,1.6h-1l-0.1-0.8h0c-0.3,0.5-1,1-1.9,1c-1.3,0-1.9-0.9-1.9-1.9
				c0-1.6,1.3-2.4,3.7-2.4v-0.1c0-0.5-0.1-1.5-1.4-1.5c-0.6,0-1.2,0.2-1.6,0.5l-0.3-0.8c0.5-0.3,1.3-0.6,2-0.6
				c1.9,0,2.4,1.4,2.4,2.6L268.7,263.3L268.7,263.3z M267.6,261.6c-1.2,0-2.6,0.2-2.6,1.5c0,0.8,0.5,1.1,1,1.1
				c0.8,0,1.3-0.5,1.5-1.1c0-0.1,0.1-0.3,0.1-0.4L267.6,261.6L267.6,261.6z"/>
			<path class="st11" d="M270.5,255.4h1.1v4.1h0c0.4-0.7,1.1-1.2,2.1-1.2c1.5,0,2.6,1.3,2.6,3.3c0,2.3-1.4,3.5-2.8,3.5
				c-0.9,0-1.6-0.4-2.1-1.2h0l-0.1,1.1h-1c0-0.4,0-1.1,0-1.7L270.5,255.4L270.5,255.4z M271.6,262.3c0,0.1,0,0.3,0,0.4
				c0.2,0.8,0.9,1.4,1.7,1.4c1.2,0,1.9-1,1.9-2.5c0-1.3-0.6-2.4-1.8-2.4c-0.8,0-1.5,0.6-1.7,1.4c0,0.1-0.1,0.3-0.1,0.5L271.6,262.3
				L271.6,262.3z"/>
			<path class="st11" d="M277.7,255.4h1.1v9.5h-1.1V255.4z"/>
			<path class="st11" d="M281.4,261.9c0,1.6,1,2.2,2.1,2.2c0.8,0,1.3-0.1,1.7-0.3l0.2,0.8c-0.4,0.2-1.1,0.4-2.1,0.4
				c-1.9,0-3-1.3-3-3.3c0-2,1.1-3.5,2.9-3.5c2,0,2.5,1.9,2.5,3.1c0,0.2,0,0.4,0,0.6L281.4,261.9z M284.6,261c0-0.7-0.3-1.9-1.5-1.9
				c-1.2,0-1.6,1.1-1.7,1.9H284.6z"/>
			<path class="st11" d="M289.7,260.9v0.9h-3.1v-0.9H289.7z"/>
			<path class="st11" d="M291,255.4h1.1v9.5H291V255.4z"/>
			<path class="st11" d="M294.6,261.9c0,1.6,1,2.2,2.1,2.2c0.8,0,1.3-0.1,1.7-0.3l0.2,0.8c-0.4,0.2-1.1,0.4-2.1,0.4
				c-1.9,0-3-1.3-3-3.3c0-2,1.1-3.5,2.9-3.5c2,0,2.5,1.9,2.5,3.1c0,0.2,0,0.4,0,0.6L294.6,261.9z M297.9,261c0-0.7-0.3-1.9-1.5-1.9
				c-1.1,0-1.6,1.1-1.7,1.9H297.9z"/>
			<path class="st11" d="M300.4,260.2c0-0.7,0-1.2,0-1.8h1l0.1,1.1h0c0.3-0.6,1-1.2,2-1.2c0.9,0,2.2,0.5,2.2,2.8v3.9h-1.1v-3.7
				c0-1-0.4-1.9-1.4-1.9c-0.7,0-1.3,0.5-1.5,1.2c0,0.1-0.1,0.4-0.1,0.5v3.9h-1.1L300.4,260.2L300.4,260.2z"/>
			<path class="st11" d="M312.8,263.9c0,1.5-0.3,2.4-0.9,3c-0.6,0.6-1.5,0.8-2.3,0.8c-0.7,0-1.6-0.2-2.1-0.5l0.3-0.9
				c0.4,0.3,1,0.5,1.8,0.5c1.1,0,2-0.6,2-2.3v-0.7h0c-0.3,0.6-1,1.1-2,1.1c-1.5,0-2.6-1.4-2.6-3.2c0-2.2,1.4-3.4,2.8-3.4
				c1.1,0,1.6,0.6,1.9,1.1h0l0-1h1c0,0.5,0,1,0,1.8L312.8,263.9L312.8,263.9z M311.6,261c0-0.2,0-0.4-0.1-0.5
				c-0.2-0.7-0.7-1.3-1.6-1.3c-1.1,0-1.8,0.9-1.8,2.5c0,1.3,0.6,2.3,1.8,2.3c0.7,0,1.3-0.5,1.6-1.2c0.1-0.2,0.1-0.4,0.1-0.6
				L311.6,261L311.6,261z"/>
			<path class="st11" d="M316,256.9v1.6h1.6v0.9H316v3.5c0,0.8,0.2,1.3,0.8,1.3c0.3,0,0.5,0,0.7-0.1l0.1,0.9c-0.2,0.1-0.6,0.2-1,0.2
				c-0.5,0-0.9-0.2-1.2-0.5c-0.3-0.4-0.4-0.9-0.4-1.7v-3.5h-1v-0.9h1v-1.2L316,256.9z"/>
			<path class="st11" d="M318.8,255.4h1.1v4h0c0.2-0.3,0.5-0.6,0.8-0.8c0.3-0.2,0.7-0.3,1.1-0.3c0.8,0,2.2,0.5,2.2,2.8v3.9H323v-3.7
				c0-1.1-0.4-1.9-1.4-1.9c-0.7,0-1.3,0.5-1.5,1.2c-0.1,0.2-0.1,0.3-0.1,0.6v3.9h-1.1L318.8,255.4L318.8,255.4z"/>
			<path class="st11" d="M328.6,260.4c0-0.8,0-1.4-0.1-2h1l0,1.3h0c0.3-0.9,1-1.4,1.7-1.4c0.1,0,0.2,0,0.3,0v1.1c-0.1,0-0.2,0-0.4,0
				c-0.8,0-1.4,0.6-1.5,1.5c0,0.2,0,0.4,0,0.6v3.5h-1.1L328.6,260.4z"/>
			<path class="st11" d="M333.4,261.9c0,1.6,1,2.2,2.1,2.2c0.8,0,1.3-0.1,1.7-0.3l0.2,0.8c-0.4,0.2-1.1,0.4-2.1,0.4
				c-1.9,0-3-1.3-3-3.3c0-2,1.1-3.5,2.9-3.5c2,0,2.5,1.9,2.5,3.1c0,0.2,0,0.4,0,0.6L333.4,261.9z M336.6,261c0-0.7-0.3-1.9-1.5-1.9
				c-1.2,0-1.6,1.1-1.7,1.9H336.6z"/>
			<path class="st11" d="M344.4,263.9c0,1.5-0.3,2.4-0.9,3c-0.6,0.6-1.5,0.8-2.3,0.8c-0.7,0-1.6-0.2-2.1-0.5l0.3-0.9
				c0.4,0.3,1,0.5,1.8,0.5c1.1,0,2-0.6,2-2.3v-0.7h0c-0.3,0.6-1,1.1-2,1.1c-1.5,0-2.6-1.4-2.6-3.2c0-2.2,1.4-3.4,2.8-3.4
				c1.1,0,1.6,0.6,1.9,1.1h0l0-1h1c0,0.5,0,1,0,1.8L344.4,263.9L344.4,263.9z M343.3,261c0-0.2,0-0.4-0.1-0.5
				c-0.2-0.7-0.7-1.3-1.6-1.3c-1.1,0-1.8,0.9-1.8,2.5c0,1.3,0.6,2.3,1.8,2.3c0.7,0,1.3-0.5,1.6-1.2c0.1-0.2,0.1-0.4,0.1-0.6
				L343.3,261L343.3,261z"/>
			<path class="st11" d="M346.8,257.2c-0.4,0-0.7-0.3-0.7-0.8s0.3-0.7,0.7-0.7c0.4,0,0.7,0.3,0.7,0.7S347.2,257.2,346.8,257.2
				L346.8,257.2z M346.2,264.9v-6.5h1.1v6.5H346.2z"/>
			<path class="st11" d="M351.7,265c-1.7,0-3-1.3-3-3.3c0-2.2,1.4-3.4,3.1-3.4c1.8,0,3,1.4,3,3.3C354.8,264,353.2,265,351.7,265
				L351.7,265L351.7,265z M351.8,264.2c1.1,0,1.9-1.1,1.9-2.5c0-1.1-0.5-2.5-1.9-2.5c-1.3,0-1.9,1.3-1.9,2.5
				C349.9,263.1,350.7,264.2,351.8,264.2L351.8,264.2z"/>
			<path class="st11" d="M356.2,260.2c0-0.7,0-1.2,0-1.8h1l0.1,1.1h0c0.3-0.6,1-1.2,2-1.2c0.9,0,2.2,0.5,2.2,2.8v3.9h-1.1v-3.7
				c0-1-0.4-1.9-1.4-1.9c-0.7,0-1.3,0.5-1.5,1.2c0,0.1-0.1,0.4-0.1,0.5v3.9h-1.1L356.2,260.2L356.2,260.2z"/>
		</g>
	</g>
	<g>
		<g>
			<path class="st11" d="M245,308.7c0-0.7,0-1.2-0.1-1.8h1l0.1,1h0c0.3-0.6,0.9-1.2,2-1.2c0.8,0,1.5,0.5,1.7,1.3h0
				c0.2-0.4,0.4-0.6,0.7-0.8c0.4-0.3,0.8-0.5,1.4-0.5c0.8,0,2,0.6,2,2.8v3.8h-1.1v-3.7c0-1.3-0.4-2-1.3-2c-0.7,0-1.1,0.5-1.3,1.1
				c-0.1,0.2-0.1,0.4-0.1,0.6v4h-1.1v-3.9c0-1-0.4-1.8-1.3-1.8c-0.7,0-1.2,0.6-1.4,1.2c-0.1,0.2-0.1,0.4-0.1,0.6v3.9H245L245,308.7
				L245,308.7z"/>
			<path class="st11" d="M258.2,313.5c-1.7,0-3-1.3-3-3.3c0-2.2,1.4-3.4,3.1-3.4c1.8,0,3,1.4,3,3.3
				C261.2,312.5,259.6,313.5,258.2,313.5L258.2,313.5L258.2,313.5z M258.2,312.7c1.1,0,1.9-1.1,1.9-2.5c0-1.1-0.5-2.5-1.8-2.5
				c-1.3,0-1.9,1.3-1.9,2.5C256.3,311.6,257.1,312.7,258.2,312.7L258.2,312.7z"/>
			<path class="st11" d="M268,303.9v7.8c0,0.6,0,1.2,0.1,1.7h-1l0-1.1h0c-0.3,0.7-1.1,1.3-2.1,1.3c-1.5,0-2.7-1.3-2.7-3.3
				c0-2.2,1.3-3.5,2.8-3.5c1,0,1.6,0.5,1.9,1h0v-3.9H268z M266.9,309.6c0-0.2,0-0.3-0.1-0.5c-0.2-0.7-0.8-1.4-1.6-1.4
				c-1.2,0-1.8,1.1-1.8,2.5c0,1.3,0.6,2.4,1.8,2.4c0.8,0,1.4-0.5,1.6-1.4c0-0.2,0.1-0.3,0.1-0.5V309.6z"/>
			<path class="st11" d="M275,311.6c0,0.7,0,1.3,0.1,1.8h-1l-0.1-1.1h0c-0.3,0.5-0.9,1.2-2,1.2c-1,0-2.1-0.6-2.1-2.8v-3.8h1.1v3.6
				c0,1.2,0.4,2.1,1.4,2.1c0.8,0,1.3-0.5,1.5-1.1c0.1-0.2,0.1-0.4,0.1-0.6v-4h1.1V311.6z"/>
			<path class="st11" d="M276.9,303.9h1.1v9.5h-1.1V303.9z"/>
			<path class="st11" d="M284.2,311.8c0,0.6,0,1.1,0.1,1.6h-1l-0.1-0.8h0c-0.3,0.5-1,1-1.9,1c-1.2,0-1.9-0.9-1.9-1.9
				c0-1.6,1.3-2.4,3.7-2.4v-0.1c0-0.5-0.1-1.5-1.4-1.5c-0.6,0-1.2,0.2-1.6,0.5l-0.3-0.8c0.5-0.3,1.3-0.6,2-0.6
				c1.9,0,2.4,1.4,2.4,2.6L284.2,311.8L284.2,311.8z M283.1,310.1c-1.2,0-2.6,0.2-2.6,1.5c0,0.8,0.5,1.1,1,1.1
				c0.8,0,1.3-0.5,1.5-1.1c0-0.1,0.1-0.3,0.1-0.4L283.1,310.1L283.1,310.1z"/>
			<path class="st11" d="M286,308.9c0-0.8,0-1.4-0.1-2h1l0.1,1.3h0c0.3-0.9,1-1.4,1.7-1.4c0.1,0,0.2,0,0.3,0v1.1c-0.1,0-0.2,0-0.4,0
				c-0.8,0-1.4,0.6-1.5,1.5c0,0.2,0,0.4,0,0.6v3.5H286L286,308.9z"/>
			<path class="st11" d="M292.7,312.2c0.3,0.2,0.9,0.5,1.5,0.5c0.8,0,1.2-0.4,1.2-1c0-0.6-0.3-0.9-1.1-1.2c-1.1-0.4-1.6-1.1-1.6-1.8
				c0-1,0.8-1.9,2.1-1.9c0.6,0,1.2,0.2,1.5,0.4L296,308c-0.2-0.1-0.7-0.4-1.3-0.4c-0.7,0-1,0.4-1,0.9c0,0.5,0.4,0.8,1.2,1.1
				c1.1,0.4,1.6,1,1.6,2c0,1.2-0.9,2-2.3,2c-0.7,0-1.3-0.2-1.7-0.5L292.7,312.2z"/>
			<path class="st11" d="M303.1,311.6c0,0.7,0,1.3,0.1,1.8h-1l-0.1-1.1h0c-0.3,0.5-0.9,1.2-2,1.2c-1,0-2.1-0.6-2.1-2.8v-3.8h1.1v3.6
				c0,1.2,0.4,2.1,1.4,2.1c0.8,0,1.3-0.5,1.5-1.1c0.1-0.2,0.1-0.4,0.1-0.6v-4h1.1L303.1,311.6L303.1,311.6z"/>
			<path class="st11" d="M305,303.9h1.1v4.1h0c0.4-0.7,1.1-1.2,2.1-1.2c1.5,0,2.6,1.3,2.6,3.3c0,2.3-1.4,3.5-2.8,3.5
				c-0.9,0-1.6-0.4-2.1-1.2h0l-0.1,1.1h-1c0-0.4,0-1.1,0-1.7L305,303.9L305,303.9z M306.1,310.8c0,0.1,0,0.3,0,0.4
				c0.2,0.8,0.9,1.4,1.7,1.4c1.2,0,1.9-1,1.9-2.5c0-1.3-0.6-2.4-1.8-2.4c-0.8,0-1.5,0.6-1.7,1.4c0,0.1-0.1,0.3-0.1,0.5L306.1,310.8
				L306.1,310.8z"/>
			<path class="st11" d="M314.8,309.4v0.9h-3.1v-0.9H314.8z"/>
			<path class="st11" d="M316,312.2c0.3,0.2,0.9,0.5,1.5,0.5c0.8,0,1.2-0.4,1.2-1c0-0.6-0.3-0.9-1.1-1.2c-1.1-0.4-1.6-1.1-1.6-1.8
				c0-1,0.8-1.9,2.1-1.9c0.6,0,1.2,0.2,1.5,0.4l-0.3,0.8c-0.2-0.1-0.7-0.4-1.3-0.4c-0.7,0-1,0.4-1,0.9c0,0.5,0.4,0.8,1.2,1.1
				c1.1,0.4,1.6,1,1.6,2c0,1.2-0.9,2-2.3,2c-0.7,0-1.3-0.2-1.7-0.5L316,312.2z"/>
			<path class="st11" d="M322.5,305.4v1.6h1.6v0.9h-1.6v3.5c0,0.8,0.2,1.3,0.8,1.3c0.3,0,0.5,0,0.7-0.1l0.1,0.9
				c-0.2,0.1-0.6,0.2-1,0.2c-0.5,0-0.9-0.2-1.2-0.5c-0.3-0.4-0.4-0.9-0.4-1.7v-3.5h-1v-0.9h1v-1.2L322.5,305.4z"/>
			<path class="st11" d="M325.4,308.9c0-0.8,0-1.4-0.1-2h1l0,1.3h0c0.3-0.9,1-1.4,1.7-1.4c0.1,0,0.2,0,0.3,0v1.1c-0.1,0-0.2,0-0.4,0
				c-0.8,0-1.4,0.6-1.5,1.5c0,0.2,0,0.4,0,0.6v3.5h-1.1L325.4,308.9z"/>
			<path class="st11" d="M334.7,311.6c0,0.7,0,1.3,0.1,1.8h-1l-0.1-1.1h0c-0.3,0.5-0.9,1.2-2,1.2c-1,0-2.1-0.6-2.1-2.8v-3.8h1.1v3.6
				c0,1.2,0.4,2.1,1.4,2.1c0.8,0,1.3-0.5,1.5-1.1c0.1-0.2,0.1-0.4,0.1-0.6v-4h1.1L334.7,311.6L334.7,311.6z"/>
			<path class="st11" d="M341,313.2c-0.3,0.1-0.9,0.4-1.8,0.4c-1.9,0-3.1-1.3-3.1-3.3s1.3-3.5,3.3-3.5c0.7,0,1.2,0.2,1.6,0.3
				l-0.3,0.9c-0.3-0.1-0.7-0.3-1.3-0.3c-1.4,0-2.2,1.1-2.2,2.5c0,1.5,0.9,2.4,2.1,2.4c0.6,0,1.1-0.2,1.4-0.3L341,313.2z"/>
			<path class="st11" d="M343.8,305.4v1.6h1.6v0.9h-1.6v3.5c0,0.8,0.2,1.3,0.8,1.3c0.3,0,0.5,0,0.7-0.1l0.1,0.9
				c-0.2,0.1-0.6,0.2-1,0.2c-0.5,0-0.9-0.2-1.2-0.5c-0.3-0.4-0.4-0.9-0.4-1.7v-3.5h-1v-0.9h1v-1.2L343.8,305.4z"/>
			<path class="st11" d="M351.9,311.6c0,0.7,0,1.3,0.1,1.8h-1l-0.1-1.1h0c-0.3,0.5-0.9,1.2-2,1.2c-1,0-2.1-0.6-2.1-2.8v-3.8h1.1v3.6
				c0,1.2,0.4,2.1,1.4,2.1c0.8,0,1.3-0.5,1.5-1.1c0.1-0.2,0.1-0.4,0.1-0.6v-4h1.1L351.9,311.6L351.9,311.6z"/>
			<path class="st11" d="M353.7,308.9c0-0.8,0-1.4,0-2h1l0.1,1.3h0c0.3-0.9,1-1.4,1.7-1.4c0.1,0,0.2,0,0.3,0v1.1c-0.1,0-0.2,0-0.4,0
				c-0.8,0-1.4,0.6-1.5,1.5c0,0.2,0,0.4,0,0.6v3.5h-1.1L353.7,308.9z"/>
			<path class="st11" d="M358.5,310.4c0,1.6,1,2.2,2.1,2.2c0.8,0,1.3-0.1,1.7-0.3l0.2,0.8c-0.4,0.2-1.1,0.4-2.1,0.4
				c-1.9,0-3-1.3-3-3.3c0-2,1.1-3.5,2.9-3.5c2,0,2.5,1.9,2.5,3.1c0,0.2,0,0.4,0,0.6L358.5,310.4z M361.7,309.5
				c0-0.7-0.3-1.9-1.5-1.9c-1.2,0-1.6,1.1-1.7,1.9H361.7z"/>
		</g>
		<rect x="217" y="301.5" class="st8" width="20.4" height="15.9"/>
	</g>
	<g>
		<g>
			<path class="st11" d="M245.4,280l1.2,3.6c0.2,0.6,0.4,1.1,0.5,1.7h0c0.1-0.5,0.3-1.1,0.5-1.7l1.2-3.6h1.2l-2.4,6.5h-1.1l-2.3-6.5
				H245.4z"/>
			<path class="st11" d="M255.3,284.9c0,0.6,0,1.1,0.1,1.6h-1l-0.1-0.8h0c-0.3,0.5-1,1-1.9,1c-1.3,0-1.9-0.9-1.9-1.9
				c0-1.6,1.3-2.4,3.7-2.4v-0.1c0-0.5-0.1-1.5-1.4-1.5c-0.6,0-1.2,0.2-1.6,0.5l-0.3-0.8c0.5-0.3,1.3-0.6,2-0.6
				c1.9,0,2.4,1.4,2.4,2.6L255.3,284.9L255.3,284.9z M254.2,283.1c-1.2,0-2.6,0.2-2.6,1.5c0,0.8,0.5,1.1,1,1.1
				c0.8,0,1.3-0.5,1.5-1.1c0-0.1,0.1-0.3,0.1-0.4L254.2,283.1L254.2,283.1z"/>
			<path class="st11" d="M257.1,282c0-0.8,0-1.4-0.1-2h1l0.1,1.3h0c0.3-0.9,1-1.4,1.7-1.4c0.1,0,0.2,0,0.3,0v1.1c-0.1,0-0.2,0-0.4,0
				c-0.8,0-1.4,0.6-1.5,1.5c0,0.2,0,0.4,0,0.6v3.5h-1.1L257.1,282z"/>
			<path class="st11" d="M261.9,278.8c-0.4,0-0.7-0.3-0.7-0.8c0-0.4,0.3-0.7,0.7-0.7c0.4,0,0.7,0.3,0.7,0.7
				C262.6,278.4,262.3,278.8,261.9,278.8L261.9,278.8z M261.3,286.4V280h1.1v6.5H261.3z"/>
			<path class="st11" d="M268.7,284.9c0,0.6,0,1.1,0.1,1.6h-1l-0.1-0.8h0c-0.3,0.5-1,1-1.9,1c-1.3,0-1.9-0.9-1.9-1.9
				c0-1.6,1.3-2.4,3.7-2.4v-0.1c0-0.5-0.1-1.5-1.4-1.5c-0.6,0-1.2,0.2-1.6,0.5l-0.3-0.8c0.5-0.3,1.3-0.6,2-0.6
				c1.9,0,2.4,1.4,2.4,2.6L268.7,284.9L268.7,284.9z M267.6,283.1c-1.2,0-2.6,0.2-2.6,1.5c0,0.8,0.5,1.1,1,1.1
				c0.8,0,1.3-0.5,1.5-1.1c0-0.1,0.1-0.3,0.1-0.4L267.6,283.1L267.6,283.1z"/>
			<path class="st11" d="M270.5,276.9h1.1v4.1h0c0.4-0.7,1.1-1.2,2.1-1.2c1.5,0,2.6,1.3,2.6,3.3c0,2.3-1.4,3.5-2.8,3.5
				c-0.9,0-1.6-0.4-2.1-1.2h0l-0.1,1.1h-1c0-0.4,0-1.1,0-1.7L270.5,276.9L270.5,276.9z M271.6,283.8c0,0.1,0,0.3,0,0.4
				c0.2,0.8,0.9,1.4,1.7,1.4c1.2,0,1.9-1,1.9-2.5c0-1.3-0.6-2.4-1.8-2.4c-0.8,0-1.5,0.6-1.7,1.4c0,0.1-0.1,0.3-0.1,0.5L271.6,283.8
				L271.6,283.8z"/>
			<path class="st11" d="M277.7,276.9h1.1v9.5h-1.1V276.9z"/>
			<path class="st11" d="M281.4,283.4c0,1.6,1,2.2,2.1,2.2c0.8,0,1.3-0.1,1.7-0.3l0.2,0.8c-0.4,0.2-1.1,0.4-2.1,0.4
				c-1.9,0-3-1.3-3-3.3c0-2,1.1-3.5,2.9-3.5c2,0,2.5,1.9,2.5,3.1c0,0.2,0,0.4,0,0.6L281.4,283.4z M284.6,282.5
				c0-0.7-0.3-1.9-1.5-1.9c-1.2,0-1.6,1.1-1.7,1.9H284.6z"/>
			<path class="st11" d="M289.7,282.4v0.9h-3.1v-0.9H289.7z"/>
			<path class="st11" d="M291,276.9h1.1v9.5H291V276.9z"/>
			<path class="st11" d="M294.6,283.4c0,1.6,1,2.2,2.1,2.2c0.8,0,1.3-0.1,1.7-0.3l0.2,0.8c-0.4,0.2-1.1,0.4-2.1,0.4
				c-1.9,0-3-1.3-3-3.3c0-2,1.1-3.5,2.9-3.5c2,0,2.5,1.9,2.5,3.1c0,0.2,0,0.4,0,0.6L294.6,283.4z M297.9,282.5
				c0-0.7-0.3-1.9-1.5-1.9c-1.1,0-1.6,1.1-1.7,1.9H297.9z"/>
			<path class="st11" d="M300.4,281.7c0-0.7,0-1.2,0-1.8h1l0.1,1.1h0c0.3-0.6,1-1.2,2-1.2c0.9,0,2.2,0.5,2.2,2.8v3.9h-1.1v-3.7
				c0-1-0.4-1.9-1.4-1.9c-0.7,0-1.3,0.5-1.5,1.2c0,0.1-0.1,0.4-0.1,0.5v3.9h-1.1L300.4,281.7L300.4,281.7z"/>
			<path class="st11" d="M312.8,285.5c0,1.5-0.3,2.4-0.9,3c-0.6,0.6-1.5,0.8-2.3,0.8c-0.7,0-1.6-0.2-2.1-0.5l0.3-0.9
				c0.4,0.3,1,0.5,1.8,0.5c1.1,0,2-0.6,2-2.3v-0.7h0c-0.3,0.6-1,1.1-2,1.1c-1.5,0-2.6-1.4-2.6-3.2c0-2.2,1.4-3.4,2.8-3.4
				c1.1,0,1.6,0.6,1.9,1.1h0l0-1h1c0,0.5,0,1,0,1.8L312.8,285.5L312.8,285.5z M311.6,282.5c0-0.2,0-0.4-0.1-0.5
				c-0.2-0.7-0.7-1.3-1.6-1.3c-1.1,0-1.8,0.9-1.8,2.5c0,1.3,0.6,2.3,1.8,2.3c0.7,0,1.3-0.5,1.6-1.2c0.1-0.2,0.1-0.4,0.1-0.6
				L311.6,282.5L311.6,282.5z"/>
			<path class="st11" d="M316,278.4v1.6h1.6v0.9H316v3.5c0,0.8,0.2,1.3,0.8,1.3c0.3,0,0.5,0,0.7-0.1l0.1,0.9c-0.2,0.1-0.6,0.2-1,0.2
				c-0.5,0-0.9-0.2-1.2-0.5c-0.3-0.4-0.4-0.9-0.4-1.7v-3.5h-1V280h1v-1.2L316,278.4z"/>
			<path class="st11" d="M318.8,276.9h1.1v4h0c0.2-0.3,0.5-0.6,0.8-0.8c0.3-0.2,0.7-0.3,1.1-0.3c0.8,0,2.2,0.5,2.2,2.8v3.9H323v-3.7
				c0-1.1-0.4-1.9-1.4-1.9c-0.7,0-1.3,0.5-1.5,1.2c-0.1,0.2-0.1,0.3-0.1,0.6v3.9h-1.1L318.8,276.9L318.8,276.9z"/>
			<path class="st11" d="M328.5,285.2c0.3,0.2,0.9,0.5,1.5,0.5c0.8,0,1.2-0.4,1.2-1c0-0.6-0.3-0.9-1.1-1.2c-1.1-0.4-1.6-1.1-1.6-1.8
				c0-1,0.8-1.9,2.1-1.9c0.6,0,1.2,0.2,1.5,0.4l-0.3,0.8c-0.2-0.1-0.7-0.4-1.3-0.4c-0.7,0-1,0.4-1,0.9c0,0.5,0.4,0.8,1.2,1.1
				c1.1,0.4,1.6,1,1.6,2c0,1.2-0.9,2-2.3,2c-0.7,0-1.3-0.2-1.7-0.5L328.5,285.2z"/>
			<path class="st11" d="M335,278.4v1.6h1.6v0.9H335v3.5c0,0.8,0.2,1.3,0.8,1.3c0.3,0,0.5,0,0.7-0.1l0.1,0.9c-0.2,0.1-0.6,0.2-1,0.2
				c-0.5,0-0.9-0.2-1.2-0.5c-0.3-0.4-0.4-0.9-0.4-1.7v-3.5h-1V280h1v-1.2L335,278.4z"/>
			<path class="st11" d="M338.4,283.4c0,1.6,1,2.2,2.1,2.2c0.8,0,1.3-0.1,1.7-0.3l0.2,0.8c-0.4,0.2-1.1,0.4-2.1,0.4
				c-1.9,0-3-1.3-3-3.3c0-2,1.1-3.5,2.9-3.5c2,0,2.5,1.9,2.5,3.1c0,0.2,0,0.4,0,0.6L338.4,283.4z M341.7,282.5
				c0-0.7-0.3-1.9-1.5-1.9c-1.1,0-1.6,1.1-1.7,1.9H341.7z"/>
			<path class="st11" d="M344.2,281.7c0-0.7,0-1.2,0-1.8h1l0.1,1h0c0.3-0.6,0.9-1.2,2-1.2c0.8,0,1.5,0.5,1.7,1.3h0
				c0.2-0.4,0.4-0.6,0.7-0.8c0.4-0.3,0.8-0.5,1.3-0.5c0.8,0,2,0.6,2,2.8v3.8h-1.1v-3.7c0-1.3-0.4-2-1.3-2c-0.7,0-1.1,0.5-1.3,1.1
				c0,0.2-0.1,0.4-0.1,0.6v4h-1.1v-3.9c0-1-0.4-1.8-1.3-1.8c-0.7,0-1.2,0.6-1.4,1.2c-0.1,0.2-0.1,0.4-0.1,0.6v3.9h-1.1V281.7z"/>
			<path class="st11" d="M357.4,282.4v0.9h-3.2v-0.9H357.4z"/>
			<path class="st11" d="M358.8,276.9h1.1v9.5h-1.1V276.9z"/>
			<path class="st11" d="M364.3,286.6c-1.7,0-3-1.3-3-3.3c0-2.2,1.4-3.4,3.1-3.4c1.8,0,3,1.4,3,3.3
				C367.3,285.5,365.7,286.6,364.3,286.6L364.3,286.6L364.3,286.6z M364.3,285.7c1.1,0,1.9-1.1,1.9-2.5c0-1.1-0.5-2.5-1.9-2.5
				c-1.3,0-1.9,1.3-1.9,2.5C362.4,284.6,363.2,285.7,364.3,285.7L364.3,285.7z"/>
			<path class="st11" d="M371.3,286.6c-1.7,0-3-1.3-3-3.3c0-2.2,1.4-3.4,3.1-3.4c1.8,0,3,1.4,3,3.3
				C374.3,285.5,372.7,286.6,371.3,286.6L371.3,286.6L371.3,286.6z M371.3,285.7c1.1,0,1.9-1.1,1.9-2.5c0-1.1-0.5-2.5-1.8-2.5
				c-1.3,0-1.9,1.3-1.9,2.5C369.4,284.6,370.2,285.7,371.3,285.7L371.3,285.7z"/>
			<path class="st11" d="M375.8,282.1c0-0.8,0-1.5-0.1-2.1h1l0.1,1.1h0c0.4-0.8,1.2-1.3,2.2-1.3c1.5,0,2.6,1.3,2.6,3.3
				c0,2.3-1.4,3.5-2.8,3.5c-0.8,0-1.5-0.4-1.9-1h0v3.5h-1.1L375.8,282.1L375.8,282.1z M376.9,283.8c0,0.2,0,0.3,0.1,0.5
				c0.2,0.8,0.9,1.4,1.7,1.4c1.2,0,1.9-1,1.9-2.5c0-1.3-0.6-2.4-1.8-2.4c-0.8,0-1.5,0.6-1.7,1.4c0,0.2-0.1,0.3-0.1,0.5L376.9,283.8
				L376.9,283.8z"/>
		</g>
		<g>
			<path class="st7" d="M240.4,287.9h-13.3c-2.6,4.5-8.4,6.1-13,3.5c-4.5-2.6-6.1-8.4-3.5-13c2.6-4.5,8.4-6.1,13-3.5
				c1.4,0.8,2.6,2,3.5,3.5h13.3"/>
			<rect x="237.8" y="281.7" width="1.1" height="3"/>
			<rect x="237.8" y="281.7" class="st21" width="1.1" height="3"/>
			<rect x="232.2" y="281.7" width="1.1" height="3"/>
			<rect x="232.2" y="281.7" class="st21" width="1.1" height="3"/>
			<rect x="226.6" y="281.7" width="1.1" height="3"/>
			<rect x="226.6" y="281.7" class="st21" width="1.1" height="3"/>
		</g>
	</g>
	<g>
		<path d="M220.5,342.7c0.6-0.1,1.4-0.2,2.2-0.2c1.2,0,2.1,0.2,2.6,0.7c0.4,0.4,0.7,1,0.7,1.7c0,1.2-0.8,2-1.7,2.3v0
			c0.7,0.2,1.1,0.9,1.3,1.8c0.3,1.3,0.5,2.1,0.7,2.5h-1.2c-0.1-0.3-0.3-1-0.6-2.2c-0.3-1.2-0.8-1.7-1.8-1.8h-1.1v3.9h-1.2
			L220.5,342.7L220.5,342.7z M221.7,346.8h1.2c1.2,0,2-0.7,2-1.7c0-1.2-0.8-1.7-2.1-1.7c-0.6,0-0.9,0.1-1.2,0.1V346.8z"/>
		<path d="M230.1,347.1v-0.8h6.9v0.8H230.1z M230.1,349.7v-0.8h6.9v0.8H230.1z"/>
		<path d="M242.8,348.8l-0.9,2.8h-1.2l3.1-9h1.4l3.1,9H247l-1-2.8H242.8z M245.8,347.9l-0.9-2.6c-0.2-0.6-0.3-1.1-0.5-1.6h0
			c-0.1,0.5-0.3,1.1-0.4,1.6l-0.9,2.6L245.8,347.9L245.8,347.9z"/>
		<path d="M255,351.8c-1.7,0-3.1-1.3-3.1-3.3c0-2.2,1.4-3.4,3.2-3.4c1.9,0,3.1,1.4,3.1,3.3C258.2,350.7,256.6,351.8,255,351.8
			L255,351.8L255,351.8z M255,350.9c1.1,0,2-1.1,2-2.5c0-1.1-0.5-2.5-1.9-2.5c-1.4,0-2,1.3-2,2.5C253.1,349.8,253.9,350.9,255,350.9
			L255,350.9z"/>
		<path d="M259.7,347.2c0-0.8,0-1.4-0.1-2h1l0.1,1.3h0c0.3-0.9,1-1.4,1.8-1.4c0.1,0,0.2,0,0.3,0v1.1c-0.1,0-0.3,0-0.4,0
			c-0.8,0-1.4,0.6-1.6,1.5c0,0.2,0,0.4,0,0.6v3.5h-1.2L259.7,347.2z"/>
		<path d="M273.8,351.2c-0.5,0.2-1.6,0.5-2.8,0.5c-1.4,0-2.5-0.3-3.4-1.2c-0.8-0.7-1.3-2-1.3-3.4c0-2.7,1.9-4.7,4.9-4.7
			c1,0,1.9,0.2,2.3,0.4l-0.3,0.9c-0.5-0.2-1.1-0.4-2-0.4c-2.2,0-3.6,1.4-3.6,3.6c0,2.3,1.4,3.6,3.5,3.6c0.8,0,1.3-0.1,1.6-0.2v-2.7
			h-1.8v-0.9h3V351.2z"/>
		<path d="M276.1,351.8c-0.5,0-0.8-0.4-0.8-0.8c0-0.5,0.3-0.8,0.8-0.8c0.5,0,0.8,0.3,0.8,0.8C276.9,351.4,276.6,351.8,276.1,351.8
			L276.1,351.8z"/>
		<path d="M283.2,351.6v-3.8l-2.9-5.2h1.3l1.3,2.5c0.3,0.7,0.6,1.2,0.9,1.9h0c0.2-0.6,0.6-1.2,0.9-1.9l1.3-2.5h1.3l-3,5.2v3.8H283.2
			z"/>
		<path d="M290.8,347.1v-0.8h6.9v0.8H290.8z M290.8,349.7v-0.8h6.9v0.8H290.8z"/>
		<path d="M308.4,351.3c-0.4,0.2-1.3,0.4-2.4,0.4c-2.5,0-4.4-1.6-4.4-4.6c0-2.8,1.9-4.7,4.7-4.7c1.1,0,1.8,0.2,2.1,0.4l-0.3,0.9
			c-0.4-0.2-1.1-0.4-1.8-0.4c-2.1,0-3.5,1.4-3.5,3.7c0,2.2,1.3,3.6,3.5,3.6c0.7,0,1.4-0.1,1.9-0.4L308.4,351.3z"/>
		<path d="M315.3,351.8c-1.7,0-3.1-1.3-3.1-3.3c0-2.2,1.4-3.4,3.2-3.4c1.9,0,3.1,1.4,3.1,3.3C318.5,350.7,316.8,351.8,315.3,351.8
			L315.3,351.8L315.3,351.8z M315.3,350.9c1.1,0,2-1.1,2-2.5c0-1.1-0.5-2.5-1.9-2.5c-1.4,0-2,1.3-2,2.5
			C313.4,349.8,314.2,350.9,315.3,350.9L315.3,350.9z"/>
		<path d="M320,347.2c0-0.8,0-1.4-0.1-2h1l0.1,1.3h0c0.3-0.9,1-1.4,1.8-1.4c0.1,0,0.2,0,0.3,0v1.1c-0.1,0-0.3,0-0.4,0
			c-0.8,0-1.4,0.6-1.6,1.5c0,0.2,0,0.4,0,0.6v3.5H320L320,347.2z"/>
		<path d="M328.4,342.6v5.4c0,2,0.9,2.9,2.1,2.9c1.3,0,2.2-0.9,2.2-2.9v-5.4h1.2v5.3c0,2.8-1.5,3.9-3.4,3.9c-1.8,0-3.2-1-3.2-3.9
			v-5.3L328.4,342.6L328.4,342.6z"/>
		<path d="M336.4,351.8c-0.5,0-0.8-0.4-0.8-0.8c0-0.5,0.3-0.8,0.8-0.8c0.5,0,0.8,0.3,0.8,0.8C337.2,351.4,336.9,351.8,336.4,351.8
			L336.4,351.8z"/>
		<path d="M341,345.6c0.3-1.1,0.9-2.6,1.2-3.2l0.7-0.1c-0.3,0.8-0.6,2.2-0.8,3.1L341,345.6z M342.9,345.6c0.3-1.1,0.9-2.6,1.2-3.2
			l0.7-0.1c-0.3,0.8-0.6,2.2-0.8,3.1L342.9,345.6z"/>
		<path d="M346.2,346.9c0-0.7,0-1.2-0.1-1.8h1l0.1,1.1h0c0.3-0.6,1.1-1.2,2.1-1.2c0.9,0,2.3,0.5,2.3,2.8v3.9h-1.2v-3.7
			c0-1-0.4-1.9-1.5-1.9c-0.8,0-1.4,0.5-1.6,1.2c-0.1,0.1-0.1,0.4-0.1,0.5v3.9h-1.2L346.2,346.9L346.2,346.9z"/>
		<path d="M355,343.6v1.6h1.7v0.9H355v3.5c0,0.8,0.2,1.3,0.9,1.3c0.3,0,0.5,0,0.7-0.1l0.1,0.9c-0.2,0.1-0.6,0.2-1,0.2
			c-0.5,0-1-0.2-1.3-0.5c-0.3-0.4-0.5-0.9-0.5-1.7V346h-1v-0.9h1v-1.2L355,343.6z"/>
		<path d="M359.5,342.3c-0.3,1.1-0.9,2.6-1.2,3.2l-0.7,0.1c0.3-0.8,0.6-2.2,0.8-3.1L359.5,342.3z M361.5,342.3
			c-0.3,1.1-0.9,2.6-1.2,3.2l-0.7,0.1c0.3-0.8,0.6-2.2,0.8-3.1L361.5,342.3z"/>
		<path d="M365.2,347.1v-0.8h6.9v0.8H365.2z M365.2,349.7v-0.8h6.9v0.8H365.2z"/>
		<path d="M220.5,362.9c0-0.7,0-1.2-0.1-1.8h1l0.1,1.1h0c0.3-0.6,1.1-1.2,2.1-1.2c0.9,0,2.3,0.5,2.3,2.8v3.9h-1.2v-3.7
			c0-1-0.4-1.9-1.5-1.9c-0.8,0-1.4,0.5-1.6,1.2c-0.1,0.1-0.1,0.4-0.1,0.5v3.9h-1.2L220.5,362.9L220.5,362.9z"/>
		<path d="M233.3,365.9c0,0.7,0,1.3,0.1,1.8h-1l-0.1-1.1h0c-0.3,0.5-1,1.2-2.1,1.2c-1,0-2.2-0.6-2.2-2.8v-3.8h1.2v3.6
			c0,1.2,0.4,2.1,1.4,2.1c0.8,0,1.3-0.5,1.6-1.1c0.1-0.2,0.1-0.4,0.1-0.6v-4h1.2L233.3,365.9L233.3,365.9z"/>
		<path d="M239.9,367.4c-0.3,0.1-1,0.4-1.9,0.4c-2,0-3.2-1.3-3.2-3.3c0-2,1.4-3.5,3.5-3.5c0.7,0,1.3,0.2,1.6,0.3l-0.3,0.9
			c-0.3-0.1-0.7-0.3-1.4-0.3c-1.5,0-2.3,1.1-2.3,2.5c0,1.5,1,2.4,2.2,2.4c0.7,0,1.1-0.2,1.4-0.3L239.9,367.4z"/>
		<path d="M241.3,358.2h1.2v9.5h-1.2V358.2z"/>
		<path d="M245.1,364.6c0,1.6,1,2.2,2.2,2.2c0.8,0,1.4-0.1,1.8-0.3l0.2,0.8c-0.4,0.2-1.1,0.4-2.2,0.4c-2,0-3.2-1.3-3.2-3.3
			c0-2,1.2-3.5,3.1-3.5c2.1,0,2.7,1.9,2.7,3.1c0,0.2,0,0.4,0,0.6L245.1,364.6z M248.5,363.8c0-0.7-0.3-1.9-1.6-1.9
			c-1.2,0-1.7,1.1-1.8,1.9H248.5z"/>
		<path d="M253.8,367.8c-1.7,0-3.1-1.3-3.1-3.3c0-2.2,1.4-3.4,3.2-3.4c1.9,0,3.1,1.4,3.1,3.3C257,366.8,255.3,367.8,253.8,367.8
			L253.8,367.8L253.8,367.8z M253.8,366.9c1.1,0,2-1.1,2-2.5c0-1.1-0.5-2.5-1.9-2.5c-1.4,0-2,1.3-2,2.5
			C251.8,365.9,252.6,366.9,253.8,366.9L253.8,366.9z"/>
		<path d="M259.9,359.6v1.6h1.7v0.9h-1.7v3.5c0,0.8,0.2,1.3,0.9,1.3c0.3,0,0.5,0,0.7-0.1l0.1,0.9c-0.2,0.1-0.6,0.2-1,0.2
			c-0.5,0-1-0.2-1.3-0.5c-0.3-0.4-0.5-0.9-0.5-1.7v-3.5h-1v-0.9h1V360L259.9,359.6z"/>
		<path d="M263.5,360c-0.4,0-0.7-0.3-0.7-0.8s0.3-0.7,0.8-0.7c0.5,0,0.7,0.3,0.7,0.7S263.9,360,263.5,360L263.5,360z M262.9,367.7
			v-6.5h1.2v6.5H262.9z"/>
		<path d="M271.6,358.2v7.8c0,0.6,0,1.2,0.1,1.7h-1.1l-0.1-1.1h0c-0.4,0.7-1.1,1.3-2.2,1.3c-1.6,0-2.8-1.3-2.8-3.3
			c0-2.2,1.3-3.5,2.9-3.5c1,0,1.7,0.5,2,1h0v-3.9L271.6,358.2L271.6,358.2z M270.4,363.8c0-0.2,0-0.3-0.1-0.5
			c-0.2-0.7-0.8-1.4-1.7-1.4c-1.2,0-1.9,1.1-1.9,2.5c0,1.3,0.7,2.4,1.9,2.4c0.8,0,1.5-0.5,1.7-1.4c0-0.2,0.1-0.3,0.1-0.5V363.8z"/>
		<path d="M274.2,364.6c0,1.6,1,2.2,2.2,2.2c0.8,0,1.4-0.1,1.8-0.3l0.2,0.8c-0.4,0.2-1.1,0.4-2.2,0.4c-2,0-3.2-1.3-3.2-3.3
			c0-2,1.2-3.5,3.1-3.5c2.1,0,2.7,1.9,2.7,3.1c0,0.2,0,0.4,0,0.6L274.2,364.6z M277.7,363.8c0-0.7-0.3-1.9-1.6-1.9
			c-1.2,0-1.7,1.1-1.8,1.9H277.7z"/>
		<path d="M280.1,366.5c0.4,0.2,1,0.5,1.6,0.5c0.8,0,1.2-0.4,1.2-1c0-0.6-0.3-0.9-1.2-1.2c-1.2-0.4-1.7-1.1-1.7-1.8
			c0-1,0.9-1.9,2.2-1.9c0.7,0,1.2,0.2,1.6,0.4l-0.3,0.8c-0.3-0.1-0.7-0.4-1.3-0.4c-0.7,0-1.1,0.4-1.1,0.9c0,0.5,0.4,0.8,1.2,1.1
			c1.1,0.4,1.7,1,1.7,2c0,1.2-0.9,2-2.4,2c-0.7,0-1.4-0.2-1.8-0.5L280.1,366.5z"/>
		<path d="M286.1,367.8c-0.5,0-0.8-0.4-0.8-0.8c0-0.5,0.3-0.8,0.8-0.8c0.5,0,0.8,0.3,0.8,0.8C286.9,367.4,286.6,367.8,286.1,367.8
			L286.1,367.8z"/>
		<path d="M293.5,361.7c0.3-1.1,0.9-2.6,1.2-3.2l0.8-0.1c-0.3,0.8-0.6,2.2-0.8,3.1L293.5,361.7z M295.5,361.7
			c0.3-1.1,0.9-2.6,1.2-3.2l0.7-0.1c-0.3,0.8-0.6,2.2-0.8,3.1L295.5,361.7z"/>
		<path d="M298.8,358.8c0.6-0.1,1.3-0.2,2.2-0.2c1.2,0,2,0.3,2.5,0.7c0.5,0.4,0.8,1.1,0.8,1.9c0,0.8-0.2,1.5-0.7,1.9
			c-0.6,0.7-1.6,1-2.8,1c-0.3,0-0.7,0-0.9-0.1v3.6h-1.2V358.8z M300,363.1c0.3,0.1,0.6,0.1,1,0.1c1.4,0,2.3-0.7,2.3-1.9
			c0-1.2-0.8-1.8-2.1-1.8c-0.5,0-0.9,0.1-1.1,0.1L300,363.1L300,363.1z"/>
		<path d="M308,360.1L308,360.1l-1.5,0.8l-0.2-0.9l1.9-1h1v8.7H308V360.1z"/>
		<path d="M314.2,358.4c-0.3,1.1-0.9,2.6-1.2,3.2l-0.7,0.1c0.3-0.8,0.6-2.2,0.8-3.1L314.2,358.4z M316.2,358.4
			c-0.3,1.1-0.9,2.6-1.2,3.2l-0.7,0.1c0.3-0.8,0.6-2.2,0.8-3.1L316.2,358.4z"/>
		<path d="M319.9,363.2v-0.8h6.9v0.8H319.9z M319.9,365.8V365h6.9v0.8H319.9z"/>
		<path d="M331.1,363.3c0-0.8,0-1.5-0.1-2.1h1.1l0.1,1.1h0c0.5-0.8,1.2-1.3,2.3-1.3c1.6,0,2.8,1.3,2.8,3.3c0,2.3-1.4,3.5-2.9,3.5
			c-0.9,0-1.6-0.4-2-1h0v3.5h-1.2L331.1,363.3L331.1,363.3z M332.3,365c0,0.2,0,0.3,0.1,0.5c0.2,0.8,0.9,1.4,1.8,1.4
			c1.2,0,2-1,2-2.5c0-1.3-0.7-2.4-1.9-2.4c-0.8,0-1.6,0.6-1.8,1.4c0,0.2-0.1,0.3-0.1,0.5V365z"/>
		<path d="M343.3,366.1c0,0.6,0,1.1,0.1,1.6h-1.1l-0.1-0.8h0c-0.3,0.5-1.1,1-2,1c-1.3,0-2-0.9-2-1.9c0-1.6,1.4-2.4,3.9-2.4v-0.1
			c0-0.5-0.1-1.5-1.5-1.5c-0.6,0-1.2,0.2-1.7,0.5l-0.3-0.8c0.5-0.3,1.3-0.6,2.1-0.6c2,0,2.5,1.4,2.5,2.6L343.3,366.1L343.3,366.1z
			 M342.1,364.4c-1.3,0-2.7,0.2-2.7,1.5c0,0.8,0.5,1.1,1.1,1.1c0.9,0,1.4-0.5,1.6-1.1c0-0.1,0.1-0.3,0.1-0.4L342.1,364.4
			L342.1,364.4z"/>
		<path d="M345.7,360c-0.4,0-0.7-0.3-0.7-0.8s0.3-0.7,0.8-0.7c0.5,0,0.7,0.3,0.7,0.7S346.2,360,345.7,360L345.7,360z M345.2,367.7
			v-6.5h1.2v6.5H345.2z"/>
		<path d="M348.3,363.2c0-0.8,0-1.4-0.1-2h1l0.1,1.3h0c0.3-0.9,1-1.4,1.8-1.4c0.1,0,0.2,0,0.3,0v1.1c-0.1,0-0.3,0-0.4,0
			c-0.8,0-1.4,0.6-1.6,1.5c0,0.2,0,0.4,0,0.6v3.5h-1.2L348.3,363.2z"/>
		<path d="M353.2,360c-0.4,0-0.7-0.3-0.7-0.8s0.3-0.7,0.8-0.7c0.5,0,0.7,0.3,0.7,0.7S353.7,360,353.2,360L353.2,360z M352.7,367.7
			v-6.5h1.2v6.5H352.7z"/>
		<path d="M355.8,362.9c0-0.7,0-1.2-0.1-1.8h1l0.1,1.1h0c0.3-0.6,1.1-1.2,2.1-1.2c0.9,0,2.3,0.5,2.3,2.8v3.9h-1.2v-3.7
			c0-1-0.4-1.9-1.5-1.9c-0.8,0-1.4,0.5-1.6,1.2c-0.1,0.1-0.1,0.4-0.1,0.5v3.9h-1.2V362.9z"/>
		<path d="M368.8,366.7c0,1.5-0.3,2.4-0.9,3c-0.6,0.6-1.6,0.8-2.4,0.8c-0.8,0-1.6-0.2-2.2-0.5l0.3-0.9c0.4,0.3,1.1,0.5,1.9,0.5
			c1.2,0,2.1-0.6,2.1-2.3v-0.7h0c-0.3,0.6-1.1,1.1-2.1,1.1c-1.6,0-2.8-1.4-2.8-3.2c0-2.2,1.4-3.4,2.9-3.4c1.1,0,1.7,0.6,2,1.1h0l0-1
			h1c0,0.5-0.1,1-0.1,1.8L368.8,366.7L368.8,366.7z M367.6,363.7c0-0.2,0-0.4-0.1-0.5c-0.2-0.7-0.8-1.3-1.6-1.3
			c-1.1,0-1.9,0.9-1.9,2.5c0,1.3,0.7,2.3,1.9,2.3c0.7,0,1.4-0.5,1.6-1.2c0.1-0.2,0.1-0.4,0.1-0.6L367.6,363.7L367.6,363.7z"/>
		<path d="M221.2,380.7c0,1.6,1,2.2,2.2,2.2c0.8,0,1.4-0.1,1.8-0.3l0.2,0.8c-0.4,0.2-1.1,0.4-2.2,0.4c-2,0-3.2-1.3-3.2-3.3
			c0-2,1.2-3.5,3-3.5c2.1,0,2.7,1.9,2.7,3.1c0,0.2,0,0.4,0,0.6L221.2,380.7z M224.6,379.8c0-0.7-0.3-1.9-1.6-1.9
			c-1.2,0-1.7,1.1-1.8,1.9H224.6z"/>
		<path d="M227.2,374.2h1.2v9.5h-1.2V374.2z"/>
		<path d="M231,380.7c0,1.6,1,2.2,2.2,2.2c0.8,0,1.4-0.1,1.8-0.3l0.2,0.8c-0.4,0.2-1.1,0.4-2.2,0.4c-2,0-3.2-1.3-3.2-3.3
			c0-2,1.2-3.5,3.1-3.5c2.1,0,2.7,1.9,2.7,3.1c0,0.2,0,0.4,0,0.6L231,380.7z M234.4,379.8c0-0.7-0.3-1.9-1.6-1.9
			c-1.2,0-1.7,1.1-1.8,1.9H234.4z"/>
		<path d="M237,379c0-0.7,0-1.2-0.1-1.8h1l0.1,1h0c0.4-0.6,1-1.2,2-1.2c0.9,0,1.5,0.5,1.8,1.3h0c0.2-0.4,0.5-0.6,0.7-0.8
			c0.4-0.3,0.8-0.5,1.4-0.5c0.9,0,2.1,0.6,2.1,2.8v3.8h-1.2v-3.7c0-1.3-0.5-2-1.4-2c-0.7,0-1.2,0.5-1.4,1.1
			c-0.1,0.2-0.1,0.4-0.1,0.6v4h-1.2v-3.9c0-1-0.5-1.8-1.4-1.8c-0.7,0-1.3,0.6-1.5,1.2c-0.1,0.2-0.1,0.4-0.1,0.6v3.9H237L237,379
			L237,379z"/>
		<path d="M248.9,380.7c0,1.6,1,2.2,2.2,2.2c0.8,0,1.4-0.1,1.8-0.3l0.2,0.8c-0.4,0.2-1.1,0.4-2.2,0.4c-2,0-3.2-1.3-3.2-3.3
			c0-2,1.2-3.5,3.1-3.5c2.1,0,2.7,1.9,2.7,3.1c0,0.2,0,0.4,0,0.6L248.9,380.7z M252.3,379.8c0-0.7-0.3-1.9-1.6-1.9
			c-1.2,0-1.7,1.1-1.8,1.9H252.3z"/>
		<path d="M254.9,379c0-0.7,0-1.2-0.1-1.8h1l0.1,1.1h0c0.3-0.6,1.1-1.2,2.1-1.2c0.9,0,2.3,0.5,2.3,2.8v3.9h-1.2V380
			c0-1-0.4-1.9-1.5-1.9c-0.8,0-1.4,0.5-1.6,1.2c-0.1,0.1-0.1,0.4-0.1,0.5v3.9h-1.2L254.9,379L254.9,379z"/>
		<path d="M263.7,375.7v1.6h1.7v0.9h-1.7v3.5c0,0.8,0.2,1.3,0.9,1.3c0.3,0,0.5,0,0.7-0.1l0.1,0.9c-0.2,0.1-0.6,0.2-1,0.2
			c-0.5,0-1-0.2-1.3-0.5c-0.3-0.4-0.5-0.9-0.5-1.7v-3.5h-1v-0.9h1v-1.2L263.7,375.7z"/>
		<path d="M271.8,376.1L271.8,376.1l-1.5,0.8L270,376l1.9-1h1v8.7h-1.1V376.1z"/>
		<path d="M276.9,383.9c-0.5,0-0.8-0.4-0.8-0.8c0-0.5,0.3-0.8,0.8-0.8s0.8,0.3,0.8,0.8C277.8,383.5,277.4,383.9,276.9,383.9
			L276.9,383.9z"/>
	</g>
</g>
</svg>
