<svg id="图层_1" data-name="图层 1" xmlns="http://www.w3.org/2000/svg" viewBox="0 0 400 400"><defs><style>.cls-1{fill:#e60012;}.cls-19,.cls-2,.cls-20,.cls-21{font-size:20px;}.cls-2,.cls-7{fill:#fff;}.cls-10,.cls-11,.cls-12,.cls-13,.cls-16,.cls-17,.cls-19,.cls-2,.cls-20,.cls-21,.cls-3,.cls-4,.cls-5,.cls-8,.cls-9{font-family:ArialMT, Arial;}.cls-10,.cls-11,.cls-12,.cls-13,.cls-16,.cls-3,.cls-4,.cls-5,.cls-8,.cls-9{isolation:isolate;}.cls-10,.cls-11,.cls-12,.cls-13,.cls-3,.cls-4,.cls-5,.cls-8,.cls-9{font-size:20.51px;}.cls-19,.cls-3{fill:#09fefe;}.cls-11,.cls-20,.cls-4{fill:#ffaadc;}.cls-10,.cls-13,.cls-4,.cls-5{letter-spacing:-0.06em;}.cls-5,.cls-8{fill:#ff870a;}.cls-14,.cls-6{fill:none;}.cls-14,.cls-15,.cls-6,.cls-7{stroke:#000;stroke-miterlimit:1.52;}.cls-6,.cls-7{stroke-width:0.19px;}.cls-10,.cls-9{fill:#80db9e;}.cls-12,.cls-13,.cls-21{fill:#0a0bff;}.cls-14{stroke-width:0.5px;}.cls-15{fill:#231815;stroke-width:0.25px;}.cls-16{font-size:14px;}.cls-17{font-size:18px;}.cls-18{letter-spacing:-0.04em;}</style></defs><circle class="cls-1" cx="149.03" cy="182.71" r="15.54"/><text class="cls-2" transform="translate(139.62 190.67)">F</text><text class="cls-2" transform="translate(150.92 185.86)">-</text><g id="ID000002"><text class="cls-3" transform="translate(49.04 132.22)">G</text></g><g id="ID000003"><text class="cls-3" transform="translate(49.04 152.89)">G</text></g><g id="ID000004"><text class="cls-3" transform="translate(49.04 173.57)">G</text></g><g id="ID000005"><text class="cls-3" transform="translate(49.61 194.24)">C</text></g><g id="ID000006"><text class="cls-3" transform="translate(49.04 214.92)">G</text></g><g id="ID000007"><text class="cls-4" transform="translate(60.51 256.27)">A</text></g><g id="ID000008"><text class="cls-3" transform="translate(90.96 214.92)">C</text></g><g id="ID000009"><text class="cls-3" transform="translate(90.39 194.24)">G</text></g><g id="ID000010"><text class="cls-3" transform="translate(90.96 173.57)">C</text></g><g id="ID000011"><text class="cls-3" transform="translate(90.96 152.89)">C</text></g><g id="ID000012"><text class="cls-3" transform="translate(90.96 132.22)">C</text></g><g id="ID000013"><text class="cls-5" transform="translate(101.87 106.37)">A</text></g><g id="ID000014"><text class="cls-5" transform="translate(117.38 85.69)">A</text></g><g id="ID000017"><line class="cls-6" x1="65.29" y1="143.59" x2="90.1" y2="143.59"/></g><g id="ID000018"><line class="cls-6" x1="65.29" y1="164.26" x2="90.1" y2="164.26"/></g><g id="ID000019"><line class="cls-6" x1="65.29" y1="184.94" x2="90.1" y2="184.94"/></g><g id="ID000020"><line class="cls-6" x1="65.29" y1="205.62" x2="90.1" y2="205.62"/></g><g id="ID000021"><line class="cls-6" x1="74.13" y1="242.23" x2="215.65" y2="143.16"/></g><g id="ID000022"><polygon class="cls-7" points="128.63 203.25 128.48 203.03 128.31 202.84 128.13 202.65 127.93 202.47 127.72 202.31 127.51 202.16 127.29 202.02 127.05 201.9 126.81 201.79 126.57 201.7 126.32 201.62 126.06 201.56 125.8 201.52 125.54 201.49 125.28 201.48 125.02 201.49 124.76 201.51 124.5 201.55 124.24 201.61 123.99 201.68 123.74 201.77 123.5 201.87 123.27 201.99 123.04 202.12 122.82 202.27 122.61 202.43 122.42 202.6 122.23 202.79 122.06 202.98 121.9 203.19 121.75 203.41 121.62 203.63 121.5 203.87 121.4 204.11 121.31 204.36 121.24 204.61 121.18 204.87 121.14 205.13 121.12 205.39 121.11 205.65 121.12 205.91 121.15 206.17 121.19 206.43 121.25 206.69 121.33 206.94 121.42 207.18 121.53 207.42 121.65 207.66 121.79 207.88 121.94 208.09 122.1 208.3 122.28 208.49 122.47 208.68 122.67 208.85 122.87 209 123.09 209.15 123.32 209.28 123.56 209.39 123.8 209.49 124.05 209.57 124.3 209.64 124.56 209.69 124.82 209.73 125.08 209.75 125.34 209.75 125.61 209.74 125.87 209.71 126.13 209.66 126.38 209.59 126.63 209.51 126.87 209.42 127.11 209.31 127.34 209.18 127.56 209.04 127.78 208.89 127.98 208.72 128.17 208.54 128.35 208.35 128.52 208.15 128.67 207.94 128.81 207.71 128.94 207.48 129.05 207.25 129.14 207 129.22 206.75 129.29 206.5 129.34 206.24 129.37 205.98 129.38 205.72 129.38 205.45 129.36 205.19 129.32 204.93 129.27 204.68 129.21 204.42 129.12 204.17 129.02 203.93 128.91 203.69 128.78 203.47 128.63 203.25"/></g><g id="ID000024"><text class="cls-8" transform="translate(96.13 354.48)">U</text></g><g id="ID000025"><text class="cls-9" transform="translate(116.24 333.81)">G</text></g><g id="ID000026"><text class="cls-10" transform="translate(117.38 313.13)">A</text></g><g id="ID000027"><text class="cls-9" transform="translate(116.24 292.46)">G</text></g><g id="ID000030"><text class="cls-9" transform="translate(116.24 271.78)">G</text></g><g id="ID000031"><text class="cls-9" transform="translate(116.81 251.1)">C</text></g><g id="ID000032"><text class="cls-9" transform="translate(116.81 230.43)">C</text></g><g id="ID000033"><text class="cls-4" transform="translate(200.08 199.41)">A</text></g><g id="ID000036"><text class="cls-8" transform="translate(178.84 220.09)">U</text></g><g id="ID000037"><text class="cls-9" transform="translate(157.59 230.43)">G</text></g><g id="ID000038"><text class="cls-9" transform="translate(157.59 251.1)">G</text></g><g id="ID000039"><text class="cls-9" transform="translate(158.16 271.78)">C</text></g><g id="ID000040"><text class="cls-9" transform="translate(158.16 292.46)">C</text></g><g id="ID000041"><text class="cls-9" transform="translate(158.16 313.13)">U</text></g><g id="ID000042"><text class="cls-9" transform="translate(158.16 333.81)">C</text></g><g id="ID000043"><text class="cls-11" transform="translate(173.67 354.48)">U</text></g><g id="ID000044"><text class="cls-5" transform="translate(194.91 354.48)">A</text></g><g id="ID000045"><text class="cls-8" transform="translate(215.02 354.48)">C</text></g><g id="ID000048"><text class="cls-8" transform="translate(235.7 354.73)">U</text></g><g id="ID000049"><text class="cls-8" transform="translate(255.8 354.48)">G</text></g><g id="ID000050"><line class="cls-6" x1="132.49" y1="324.51" x2="157.3" y2="324.51"/></g><g id="ID000051"><line class="cls-6" x1="132.49" y1="303.83" x2="157.3" y2="303.83"/></g><g id="ID000052"><line class="cls-6" x1="132.49" y1="283.15" x2="157.3" y2="283.15"/></g><g id="ID000053"><line class="cls-6" x1="132.49" y1="262.48" x2="157.3" y2="262.48"/></g><g id="ID000054"><line class="cls-6" x1="132.49" y1="241.8" x2="157.3" y2="241.8"/></g><g id="ID000055"><line class="cls-6" x1="132.49" y1="221.12" x2="157.3" y2="221.12"/></g><g id="ID000056"><line class="cls-6" x1="205.56" y1="198.27" x2="182.44" y2="337.02"/></g><g id="ID000057"><polygon class="cls-7" points="191.48 257.58 190.12 265.74 198.28 267.1 199.64 258.94 191.48 257.58"/></g><g id="ID000058"><polygon class="cls-7" points="192.43 277.03 192.69 277.06 192.96 277.08 193.22 277.08 193.48 277.07 193.74 277.04 194 276.99 194.25 276.92 194.5 276.84 194.75 276.75 194.99 276.64 195.22 276.51 195.44 276.37 195.65 276.21 195.85 276.05 196.04 275.87 196.22 275.68 196.39 275.47 196.54 275.26 196.68 275.04 196.81 274.81 196.92 274.57 197.01 274.33 197.09 274.08 197.16 273.82 197.2 273.56 197.23 273.3 197.25 273.04 197.25 272.78 197.23 272.52 197.19 272.26 197.14 272 197.07 271.75 196.99 271.5 196.89 271.25 196.77 271.02 196.64 270.79 196.5 270.57 196.34 270.36 196.17 270.16 195.99 269.97 195.79 269.8 195.59 269.63 195.37 269.48 195.15 269.35 194.91 269.23 194.68 269.12 194.43 269.03 194.18 268.95 193.92 268.89 193.66 268.85 193.4 268.82 193.14 268.81 192.88 268.82 192.62 268.84 192.36 268.88 192.1 268.94 191.85 269.01 191.6 269.1 191.36 269.2 191.13 269.32 190.9 269.45 190.68 269.6 190.48 269.76 190.28 269.94 190.09 270.12 189.92 270.32 189.76 270.53 189.61 270.75 189.48 270.97 189.36 271.21 189.26 271.45 189.17 271.69 189.1 271.95 189.05 272.2 189.01 272.46 188.99 272.72 188.98 272.99 188.99 273.25 189.02 273.51 189.06 273.77 189.12 274.02 189.2 274.27 189.29 274.52 189.4 274.76 189.52 274.99 189.66 275.22 189.81 275.43 189.97 275.63 190.15 275.83 190.34 276.01 190.54 276.18 190.75 276.34 190.97 276.48 191.2 276.61 191.43 276.73 191.68 276.82 191.92 276.91 192.18 276.98 192.43 277.03"/></g><g id="ID000060"><text class="cls-5" transform="translate(138.35 75.6)">A</text></g><g id="ID000061"><text class="cls-8" transform="translate(163.33 75.35)">C</text></g><g id="ID000062"><text class="cls-8" transform="translate(189.18 80.52)">U</text></g><g id="ID000063"><text class="cls-12" transform="translate(214.45 80.52)">G</text></g><g id="ID000064"><text class="cls-12" transform="translate(235.7 80.52)">C</text></g><g id="ID000065"><text class="cls-12" transform="translate(256.37 80.52)">C</text></g><g id="ID000066"><text class="cls-12" transform="translate(277.05 80.52)">C</text></g><g id="ID000067"><text class="cls-12" transform="translate(297.73 80.52)">U</text></g><g id="ID000068"><text class="cls-12" transform="translate(317.83 70.19)">G</text></g><g id="ID000069"><text class="cls-13" transform="translate(339.64 85.69)">A</text></g><g id="ID000072"><text class="cls-13" transform="translate(339.64 111.54)">A</text></g><g id="ID000073"><text class="cls-13" transform="translate(318.97 127.05)">A</text></g><g id="ID000074"><text class="cls-13" transform="translate(298.29 121.88)">A</text></g><g id="ID000075"><text class="cls-12" transform="translate(276.48 121.88)">G</text></g><g id="ID000076"><text class="cls-12" transform="translate(255.8 121.88)">G</text></g><g id="ID000077"><text class="cls-12" transform="translate(235.13 121.88)">G</text></g><g id="ID000078"><text class="cls-12" transform="translate(215.02 121.88)">C</text></g><g id="ID000079"><text class="cls-11" transform="translate(215.02 147.72)">U</text></g><g id="ID000080"><text class="cls-8" transform="translate(209.28 173.57)">G</text></g><g id="ID000081"><line class="cls-6" x1="222.43" y1="79.49" x2="222.43" y2="104.3"/></g><g id="ID000082"><line class="cls-6" x1="243.1" y1="79.49" x2="243.1" y2="104.3"/></g><g id="ID000083"><line class="cls-6" x1="263.78" y1="79.49" x2="263.78" y2="104.3"/></g><g id="ID000084"><line class="cls-6" x1="284.46" y1="79.49" x2="284.46" y2="104.3"/></g><g id="ID000085"><line class="cls-6" x1="305.13" y1="79.49" x2="305.13" y2="104.3"/></g><g id="ID000086"><line class="cls-6" x1="325.81" y1="69.15" x2="325.81" y2="109.47"/></g><g id="ID000087"><polygon class="cls-7" points="325.81 78.56 321.16 86.62 330.46 86.62 325.81 78.56"/></g><g id="ID000088"><polygon class="cls-7" points="329.94 98.82 329.94 90.55 321.67 90.55 321.67 98.82 329.94 98.82"/></g><g id="ID000090"><line class="cls-14" x1="59.02" y1="213.64" x2="65.35" y2="238.95"/></g><g id="ID000091"><polygon class="cls-15" points="64.22 221.39 63.05 223.59 62.96 225.53 63.14 227.4 63.23 231.2 61.52 227.8 60.8 226.07 59.81 224.4 57.74 223.01 64.22 221.39"/></g><g id="ID000092"><line class="cls-14" x1="70.21" y1="254.73" x2="100.68" y2="337.42"/></g><g id="ID000093"><polygon points="88.93 293.91 87.82 296.7 87.96 299.03 88.42 301.24 89.02 305.78 86.53 301.93 85.45 299.95 84.05 298.09 81.39 296.69 88.93 293.91"/></g><g id="ID000013-2" data-name="ID000013"><text class="cls-16" transform="translate(97.75 290.25)">10</text></g><g id="ID000013-3" data-name="ID000013"><text class="cls-16" transform="translate(105.06 71.01)">20</text></g><g id="ID000013-4" data-name="ID000013"><text class="cls-16" transform="translate(351.81 75.35)">30</text></g><g id="ID000013-5" data-name="ID000013"><text class="cls-16" transform="translate(216.64 202.03)">40</text></g><g id="ID000013-6" data-name="ID000013"><text class="cls-16" transform="translate(213.8 369.45)">50</text></g><text class="cls-17" transform="translate(39.1 112.36)">5<tspan class="cls-18" x="10.01" y="0">’</tspan></text><text class="cls-17" transform="translate(277.57 359.39)">3<tspan class="cls-18" x="10.01" y="0">’</tspan></text><text class="cls-19" transform="translate(13.51 173.81)">PK</text><text class="cls-20" transform="translate(208.63 236.17)">PK</text><text class="cls-21" transform="translate(267.61 50)">P2</text></svg>