<svg id="图层_1" data-name="图层 1" xmlns="http://www.w3.org/2000/svg" viewBox="0 0 400 400"><defs><style>.cls-1,.cls-10,.cls-11,.cls-12,.cls-15,.cls-16,.cls-17,.cls-18,.cls-19,.cls-2,.cls-20,.cls-23,.cls-25,.cls-27,.cls-28,.cls-30,.cls-31,.cls-32,.cls-8,.cls-9{isolation:isolate;}.cls-1,.cls-3{font-size:19.25px;}.cls-1,.cls-11,.cls-16,.cls-17,.cls-2,.cls-23,.cls-24,.cls-25,.cls-26,.cls-27,.cls-29,.cls-3,.cls-32,.cls-44,.cls-45{fill:#0a0000;}.cls-1,.cls-10,.cls-11,.cls-12,.cls-15,.cls-16,.cls-17,.cls-18,.cls-19,.cls-2,.cls-20,.cls-23,.cls-24,.cls-25,.cls-26,.cls-27,.cls-28,.cls-29,.cls-3,.cls-30,.cls-31,.cls-32,.cls-45,.cls-8,.cls-9{font-family:ArialMT, Arial;}.cls-10,.cls-11,.cls-12,.cls-15,.cls-16,.cls-17,.cls-18,.cls-19,.cls-2,.cls-20,.cls-8,.cls-9{font-size:12.03px;}.cls-21,.cls-22,.cls-35,.cls-4,.cls-6{fill:none;}.cls-13,.cls-14,.cls-21,.cls-22,.cls-35,.cls-4,.cls-7{stroke:#0a0000;}.cls-4{stroke-width:1.44px;}.cls-5{fill:#d1e3c0;}.cls-6{stroke:#5c5c5c;}.cls-22,.cls-6{stroke-width:0.5px;}.cls-10,.cls-12,.cls-18,.cls-20,.cls-28,.cls-30,.cls-31,.cls-7,.cls-9{fill:#c6241e;}.cls-13,.cls-14,.cls-21,.cls-35,.cls-7{stroke-width:0.72px;}.cls-13,.cls-15,.cls-19,.cls-8{fill:#807b87;}.cls-15,.cls-16,.cls-9{letter-spacing:-0.02em;}.cls-11,.cls-12{letter-spacing:-0.06em;}.cls-14{fill:#fff;}.cls-17,.cls-19,.cls-20{letter-spacing:-0.02em;}.cls-18{letter-spacing:-0.06em;}.cls-23,.cls-24{font-size:8.58px;}.cls-25,.cls-26{font-size:13px;}.cls-27,.cls-29{font-size:15.7px;}.cls-28,.cls-30,.cls-31,.cls-32{font-size:9.81px;}.cls-30{letter-spacing:-0.02em;}.cls-31{letter-spacing:-0.06em;}.cls-33{fill:#0b0404;}.cls-34{fill:#221f20;}.cls-35{stroke-miterlimit:10;}.cls-36{fill:#c72d2c;}.cls-37{fill:#807c88;}.cls-38{fill:gray;}.cls-39{fill:#c12b2a;}.cls-40{fill:#0d0909;}.cls-41{fill:#eccbd2;}.cls-42{fill:#d1e2af;}.cls-43{fill:#cfd6e7;}.cls-45{font-size:20px;}</style></defs><g id="text1052"><text class="cls-1" transform="translate(120.03 199.27)"><tspan xml:space="preserve">   </tspan></text><text class="cls-2" transform="translate(120.03 199.27)">C</text><text class="cls-3" transform="translate(128.72 199.27)"> </text></g><path class="cls-4" d="M137,383h6.24"/><path class="cls-4" d="M137,370.84h6.24"/><path class="cls-5" d="M125.59,354.4h29V363h-29Z"/><path class="cls-4" d="M137,358.71h6.24"/><path class="cls-5" d="M125.59,342.27h29v8.64h-29Z"/><path class="cls-4" d="M137,346.58h6.24"/><path class="cls-5" d="M125.59,330.14h29v8.63h-29Z"/><path class="cls-4" d="M137,334.45h6.24"/><path class="cls-5" d="M125.59,318h29v8.64h-29Z"/><path class="cls-4" d="M137,322.33h6.24"/><path class="cls-4" d="M137,310.2h6.24"/><path class="cls-4" d="M137,298.07h6.24"/><path class="cls-5" d="M81.19,237.84h0l12.16-28.77,9.32,3.94L90.51,241.78Z"/><path class="cls-4" d="M90.72,228.3l2.43-5.75"/><path class="cls-4" d="M79.54,223.58,82,217.83"/><path class="cls-4" d="M68.37,218.86l2.43-5.75"/><path class="cls-4" d="M143,193.48l6.19.71"/><path class="cls-4" d="M144.34,181.43l6.19.71"/><path class="cls-4" d="M124.29,168.12l-3.06-5.44"/><path class="cls-5" d="M115.57,187.67h0L100,160l8.82-5,15.58,27.68Z"/><path class="cls-4" d="M113.72,174.07l-3.06-5.44"/><path class="cls-5" d="M105,193.62h0L89.42,166l8.82-5,15.58,27.68Z"/><path class="cls-4" d="M103.15,180l-3.06-5.43"/><path class="cls-4" d="M92.58,186l-3.06-5.43"/><path class="cls-4" d="M134.92,121l5.69-2.57"/><path class="cls-4" d="M129.94,109.93l5.69-2.56"/><path class="cls-5" d="M111.26,99.49h0l28.93-13,4.15,9.23-28.92,13Z"/><path class="cls-4" d="M125,98.87l5.69-2.56"/><path class="cls-5" d="M188.86,136.09h0l-.7,28.49-9.57-.23.7-28.5Z"/><path class="cls-4" d="M183.8,147.1l-.15,6.23"/><path class="cls-5" d="M201,136.39h0l-.71,28.49-9.57-.23.71-28.5Z"/><path class="cls-4" d="M195.93,147.4l-.16,6.23"/><path class="cls-5" d="M213.11,136.69h0l-.7,28.49-9.57-.24.7-28.49Z"/><path class="cls-4" d="M208.05,147.7l-.15,6.23"/><path class="cls-5" d="M225.24,137h0l-.71,28.5-9.57-.24.71-28.49Z"/><path class="cls-4" d="M220.18,148l-.16,6.23"/><path class="cls-4" d="M232.3,148.3l-.15,6.23"/><path class="cls-4" d="M180.56,212.52l3.67,5"/><path class="cls-5" d="M186.86,192h0l18.89,26-8.2,5.95-18.88-26Z"/><path class="cls-4" d="M190.37,205.39l3.67,5.05"/><path class="cls-4" d="M200.19,198.27l3.66,5"/><path class="cls-6" d="M60.11,155.54a47.93,47.93,0,0,1,25.44,10.33"/><path class="cls-6" d="M186.36,168.49a40.09,40.09,0,0,1-21.19,18.44"/><path class="cls-6" d="M236.44,194.73a23.18,23.18,0,0,1-22.38,21"/><path class="cls-7" d="M113.67,391.55a4.11,4.11,0,1,1-4.1-4.1A4.09,4.09,0,0,1,113.67,391.55Z"/><path class="cls-7" d="M125.8,391.55a4.1,4.1,0,1,1-4.1-4.1A4.1,4.1,0,0,1,125.8,391.55Z"/><path class="cls-7" d="M134.38,383a4.11,4.11,0,1,1-4.11-4.1,4.11,4.11,0,0,1,4.11,4.1Z"/><path class="cls-7" d="M134.38,370.84a4.11,4.11,0,1,1-4.11-4.1A4.11,4.11,0,0,1,134.38,370.84Z"/><g id="text1002"><text class="cls-1" transform="translate(125.93 363.03)"><tspan xml:space="preserve">   </tspan></text><text class="cls-8" transform="translate(125.93 363.03)">R</text><text class="cls-3" transform="translate(134.62 363.03)"> </text></g><g id="text1004"><text class="cls-1" transform="translate(125.93 350.9)"><tspan xml:space="preserve">   </tspan></text><text class="cls-8" transform="translate(125.93 350.9)">U</text><text class="cls-3" transform="translate(134.62 350.9)"> </text></g><g id="text1006"><text class="cls-1" transform="translate(126.26 338.78)"><tspan xml:space="preserve">   </tspan></text><text class="cls-9" transform="translate(126.26 338.78)">Y</text><text class="cls-3" transform="translate(134.29 338.78)"> </text></g><g id="text1008"><text class="cls-1" transform="translate(126.26 326.65)"><tspan xml:space="preserve">   </tspan></text><text class="cls-9" transform="translate(126.26 326.65)">Y</text><text class="cls-3" transform="translate(134.29 326.65)"> </text></g><g id="text1010"><text class="cls-1" transform="translate(125.93 314.52)"><tspan xml:space="preserve">   </tspan></text><text class="cls-10" transform="translate(125.93 314.52)">U</text><text class="cls-3" transform="translate(134.62 314.52)"> </text></g><g id="text1012"><text class="cls-1" transform="translate(125.93 302.39)"><tspan xml:space="preserve">   </tspan></text><text class="cls-10" transform="translate(125.93 302.39)">C</text><text class="cls-3" transform="translate(134.62 302.39)"> </text></g><g id="text1014"><text class="cls-1" transform="translate(114.34 298.8)"><tspan xml:space="preserve">   </tspan></text><text class="cls-10" transform="translate(114.34 298.8)">R</text><text class="cls-3" transform="translate(123.03 298.8)"> </text></g><g id="text1016"><text class="cls-1" transform="translate(103.53 292.69)"><tspan xml:space="preserve">   </tspan></text><text class="cls-10" transform="translate(103.53 292.69)">G</text><text class="cls-3" transform="translate(112.89 292.69)"> </text></g><g id="text1018"><text class="cls-1" transform="translate(94.71 284.36)"><tspan xml:space="preserve">   </tspan></text><text class="cls-10" transform="translate(94.71 284.36)">G</text><text class="cls-3" transform="translate(104.07 284.36)"> </text></g><g id="text1020"><text class="cls-1" transform="translate(88.01 274.25)"><tspan xml:space="preserve">   </tspan></text><text class="cls-10" transform="translate(88.01 274.25)">G</text><text class="cls-3" transform="translate(97.37 274.25)"> </text></g><g id="text1022"><text class="cls-1" transform="translate(84.11 262.89)"><tspan xml:space="preserve">   </tspan></text><text class="cls-8" transform="translate(84.11 262.89)">C</text><text class="cls-3" transform="translate(92.8 262.89)"> </text></g><g id="text1024"><text class="cls-1" transform="translate(82.55 250.86)"><tspan xml:space="preserve">   </tspan></text><text class="cls-2" transform="translate(82.55 250.86)">R</text><text class="cls-3" transform="translate(91.24 250.86)"> </text></g><g id="text1026"><text class="cls-1" transform="translate(83.43 238.79)"><tspan xml:space="preserve">   </tspan></text><text class="cls-2" transform="translate(83.43 238.79)">G</text><text class="cls-3" transform="translate(92.79 238.79)"> </text></g><g id="text1028"><text class="cls-1" transform="translate(72.25 234.07)"><tspan xml:space="preserve">   </tspan></text><text class="cls-10" transform="translate(72.25 234.07)">G</text><text class="cls-3" transform="translate(81.61 234.07)"> </text></g><g id="text1030"><text class="cls-1" transform="translate(61.08 229.35)"><tspan xml:space="preserve">   </tspan></text><text class="cls-10" transform="translate(61.08 229.35)">G</text><text class="cls-3" transform="translate(70.44 229.35)"> </text></g><g id="text1032"><text class="cls-1" transform="translate(49.84 232.97)"><tspan xml:space="preserve">   </tspan></text><text class="cls-2" transform="translate(49.84 232.97)">U</text><text class="cls-3" transform="translate(58.53 232.97)"> </text></g><g id="text1034"><text class="cls-1" transform="translate(38.1 228.85)"><tspan xml:space="preserve">   </tspan></text><text class="cls-10" transform="translate(38.1 228.85)">G</text><text class="cls-3" transform="translate(47.46 228.85)"> </text></g><path class="cls-7" d="M40.29,214.35a4.11,4.11,0,1,1-4.1-4.11A4.11,4.11,0,0,1,40.29,214.35Z"/><g id="text1036"><text class="cls-1" transform="translate(33.08 206.57)"><tspan xml:space="preserve">   </tspan></text><text class="cls-11" transform="translate(33.08 206.57)">A</text><text class="cls-3" transform="translate(41.11 206.57)"> </text></g><g id="text1038"><text class="cls-1" transform="translate(41.12 197.49)"><tspan xml:space="preserve">   </tspan></text><text class="cls-12" transform="translate(41.12 197.49)">A</text><text class="cls-3" transform="translate(49.15 197.49)"> </text></g><g id="text1040"><text class="cls-1" transform="translate(52.69 195.12)"><tspan xml:space="preserve">   </tspan></text><text class="cls-8" transform="translate(52.69 195.12)">U</text><text class="cls-3" transform="translate(61.38 195.12)"> </text></g><g id="text1042"><text class="cls-1" transform="translate(63.59 200.43)"><tspan xml:space="preserve">   </tspan></text><text class="cls-10" transform="translate(63.59 200.43)">U</text><text class="cls-3" transform="translate(72.28 200.43)"> </text></g><g id="text1044"><text class="cls-1" transform="translate(69.06 211.26)"><tspan xml:space="preserve">   </tspan></text><text class="cls-10" transform="translate(69.06 211.26)">C</text><text class="cls-3" transform="translate(77.75 211.26)"> </text></g><g id="text1046"><text class="cls-1" transform="translate(80.23 215.98)"><tspan xml:space="preserve">   </tspan></text><text class="cls-2" transform="translate(80.23 215.98)">C</text><text class="cls-3" transform="translate(88.92 215.98)"> </text></g><g id="text1048"><text class="cls-1" transform="translate(91.41 220.7)"><tspan xml:space="preserve">   </tspan></text><text class="cls-2" transform="translate(91.41 220.7)">C</text><text class="cls-3" transform="translate(100.1 220.7)"> </text></g><path class="cls-7" d="M107.67,207.1a4.11,4.11,0,1,1-4.11-4.1A4.11,4.11,0,0,1,107.67,207.1Z"/><g id="text1050"><text class="cls-1" transform="translate(109.26 204.15)"><tspan xml:space="preserve">   </tspan></text><text class="cls-12" transform="translate(109.26 204.15)">A</text><text class="cls-3" transform="translate(117.29 204.15)"> </text></g><g id="text1054"><text class="cls-1" transform="translate(131.95 197.04)"><tspan xml:space="preserve">   </tspan></text><text class="cls-2" transform="translate(131.95 197.04)">C</text><text class="cls-3" transform="translate(140.64 197.04)"> </text></g><g id="text1056"><text class="cls-1" transform="translate(133 184.98)"><tspan xml:space="preserve">   </tspan></text><text class="cls-10" transform="translate(133 184.98)">G</text><text class="cls-3" transform="translate(142.36 184.98)"> </text></g><g id="text1058"><text class="cls-1" transform="translate(122.89 178.28)"><tspan xml:space="preserve">   </tspan></text><text class="cls-2" transform="translate(122.89 178.28)">G</text><text class="cls-3" transform="translate(132.25 178.28)"> </text></g><g id="text1060"><text class="cls-1" transform="translate(112.66 184.23)"><tspan xml:space="preserve">   </tspan></text><text class="cls-8" transform="translate(112.66 184.23)">C</text><text class="cls-3" transform="translate(121.35 184.23)"> </text></g><g id="text1062"><text class="cls-1" transform="translate(101.76 190.18)"><tspan xml:space="preserve">   </tspan></text><text class="cls-2" transform="translate(101.76 190.18)">G</text><text class="cls-3" transform="translate(111.12 190.18)"> </text></g><g id="text1064"><text class="cls-1" transform="translate(91.19 196.13)"><tspan xml:space="preserve">   </tspan></text><text class="cls-10" transform="translate(91.19 196.13)">G</text><text class="cls-3" transform="translate(100.55 196.13)"> </text></g><g id="text1066"><text class="cls-1" transform="translate(93.11 208.15)"><tspan xml:space="preserve">   </tspan></text><text class="cls-10" transform="translate(93.11 208.15)">U</text><text class="cls-3" transform="translate(101.8 208.15)"> </text></g><g id="text1068"><text class="cls-1" transform="translate(91.18 220.13)"><tspan xml:space="preserve">   </tspan></text><text class="cls-2" transform="translate(91.18 220.13)">R</text><text class="cls-3" transform="translate(99.87 220.13)"> </text></g><path class="cls-13" d="M94.36,226.73a4.11,4.11,0,1,1-4.1-4.1A4.1,4.1,0,0,1,94.36,226.73Z"/><path class="cls-14" d="M86.17,235.69a4.1,4.1,0,1,1-4.1-4.1A4.09,4.09,0,0,1,86.17,235.69Z"/><path class="cls-14" d="M75.77,241.92a4.11,4.11,0,1,1-4.1-4.1A4.1,4.1,0,0,1,75.77,241.92Z"/><path class="cls-14" d="M64,244.91a4.11,4.11,0,1,1-4.11-4.1A4.11,4.11,0,0,1,64,244.91Z"/><path class="cls-14" d="M51.9,244.41a4.11,4.11,0,1,1-4.11-4.1A4.1,4.1,0,0,1,51.9,244.41Z"/><path class="cls-14" d="M40.43,240.46a4.11,4.11,0,1,1-4.1-4.1,4.11,4.11,0,0,1,4.1,4.1Z"/><path class="cls-14" d="M30.57,233.4a4.1,4.1,0,1,1-4.1-4.11A4.11,4.11,0,0,1,30.57,233.4Z"/><path class="cls-14" d="M23.15,223.8a4.1,4.1,0,1,1-4.1-4.1A4.09,4.09,0,0,1,23.15,223.8Z"/><path class="cls-14" d="M18.79,212.48a4.1,4.1,0,1,1-4.1-4.1A4.09,4.09,0,0,1,18.79,212.48Z"/><path class="cls-14" d="M17.86,200.39a4.11,4.11,0,1,1-4.1-4.11A4.11,4.11,0,0,1,17.86,200.39Z"/><path class="cls-14" d="M20.43,188.53a4.11,4.11,0,1,1-4.1-4.1A4.11,4.11,0,0,1,20.43,188.53Z"/><path class="cls-14" d="M26.29,177.91a4.11,4.11,0,1,1-4.1-4.1A4.1,4.1,0,0,1,26.29,177.91Z"/><path class="cls-14" d="M34.94,169.41a4.11,4.11,0,1,1-4.1-4.1,4.1,4.1,0,0,1,4.1,4.1Z"/><path class="cls-7" d="M45.67,163.75a4.11,4.11,0,1,1-4.11-4.11A4.11,4.11,0,0,1,45.67,163.75Z"/><g id="text1070"><text class="cls-1" transform="translate(49.45 165.71)"><tspan xml:space="preserve">   </tspan></text><text class="cls-12" transform="translate(49.45 165.71)">A</text><text class="cls-3" transform="translate(57.47 165.71)"> </text></g><g id="text1072"><text class="cls-1" transform="translate(60.85 166.86)"><tspan xml:space="preserve">   </tspan></text><text class="cls-10" transform="translate(60.85 166.86)">G</text><text class="cls-3" transform="translate(70.21 166.86)"> </text></g><g id="text1074"><text class="cls-1" transform="translate(72.76 171.43)"><tspan xml:space="preserve">   </tspan></text><text class="cls-9" transform="translate(72.76 171.43)">Y</text><text class="cls-3" transform="translate(80.79 171.43)"> </text></g><g id="text1076"><text class="cls-1" transform="translate(81.89 179.02)"><tspan xml:space="preserve">   </tspan></text><text class="cls-10" transform="translate(81.89 179.02)">C</text><text class="cls-3" transform="translate(90.58 179.02)"> </text></g><g id="text1078"><text class="cls-1" transform="translate(92.46 173.07)"><tspan xml:space="preserve">   </tspan></text><text class="cls-2" transform="translate(92.46 173.07)">C</text><text class="cls-3" transform="translate(101.15 173.07)"> </text></g><g id="text1080"><text class="cls-1" transform="translate(102.69 167.12)"><tspan xml:space="preserve">   </tspan></text><text class="cls-8" transform="translate(102.69 167.12)">G</text><text class="cls-3" transform="translate(112.05 167.12)"> </text></g><g id="text1082"><text class="cls-1" transform="translate(113.6 161.16)"><tspan xml:space="preserve">   </tspan></text><text class="cls-8" transform="translate(113.6 161.16)">C</text><text class="cls-3" transform="translate(122.29 161.16)"> </text></g><g id="text1084"><text class="cls-1" transform="translate(112.76 149.04)"><tspan xml:space="preserve">   </tspan></text><text class="cls-10" transform="translate(112.76 149.04)">G</text><text class="cls-3" transform="translate(122.12 149.04)"> </text></g><g id="text1086"><text class="cls-1" transform="translate(117.22 137.52)"><tspan xml:space="preserve">   </tspan></text><text class="cls-12" transform="translate(117.22 137.52)">A</text><text class="cls-3" transform="translate(125.24 137.52)"> </text></g><g id="text1088"><text class="cls-1" transform="translate(124.47 128.06)"><tspan xml:space="preserve">   </tspan></text><text class="cls-8" transform="translate(124.47 128.06)">R</text><text class="cls-3" transform="translate(133.16 128.06)"> </text></g><g id="text1090"><text class="cls-1" transform="translate(119.49 117)"><tspan xml:space="preserve">   </tspan></text><text class="cls-2" transform="translate(119.49 117)">C</text><text class="cls-3" transform="translate(128.18 117)"> </text></g><path class="cls-13" d="M123,101.62a4.11,4.11,0,1,1-4.11-4.1A4.11,4.11,0,0,1,123,101.62Z"/><path class="cls-14" d="M110.83,101.37a4.11,4.11,0,1,1-4.11-4.1A4.11,4.11,0,0,1,110.83,101.37Z"/><path class="cls-14" d="M99.47,97.12A4.11,4.11,0,1,1,95.36,93a4.11,4.11,0,0,1,4.11,4.1Z"/><path class="cls-14" d="M90.15,89.36a4.11,4.11,0,1,1-4.1-4.1A4.11,4.11,0,0,1,90.15,89.36Z"/><path class="cls-14" d="M83.93,78.94a4.11,4.11,0,1,1-4.1-4.1,4.11,4.11,0,0,1,4.1,4.1Z"/><path class="cls-14" d="M81.5,67.06A4.1,4.1,0,1,1,77.4,63,4.09,4.09,0,0,1,81.5,67.06Z"/><path class="cls-14" d="M83.15,55A4.11,4.11,0,1,1,79,50.94,4.11,4.11,0,0,1,83.15,55Z"/><path class="cls-14" d="M88.67,44.25a4.1,4.1,0,1,1-4.1-4.1A4.11,4.11,0,0,1,88.67,44.25Z"/><path class="cls-14" d="M97.46,35.89a4.11,4.11,0,1,1-4.1-4.1A4.11,4.11,0,0,1,97.46,35.89Z"/><path class="cls-13" d="M108.52,30.9a4.11,4.11,0,1,1-4.1-4.1A4.09,4.09,0,0,1,108.52,30.9Z"/><path class="cls-13" d="M120.6,29.86a4.1,4.1,0,1,1-4.1-4.1A4.1,4.1,0,0,1,120.6,29.86Z"/><path class="cls-13" d="M132.35,32.88a4.1,4.1,0,1,1-4.1-4.1A4.11,4.11,0,0,1,132.35,32.88Z"/><path class="cls-13" d="M142.44,39.61a4.11,4.11,0,1,1-4.1-4.1A4.1,4.1,0,0,1,142.44,39.61Z"/><path class="cls-13" d="M149.73,49.3a4.1,4.1,0,1,1-4.1-4.1A4.09,4.09,0,0,1,149.73,49.3Z"/><path class="cls-7" d="M153.41,60.86a4.1,4.1,0,1,1-4.1-4.1A4.1,4.1,0,0,1,153.41,60.86Z"/><path class="cls-7" d="M153.05,73a4.1,4.1,0,1,1-4.09-4.1A4.09,4.09,0,0,1,153.05,73Z"/><path class="cls-7" d="M148.71,84.31a4.11,4.11,0,1,1-4.1-4.1A4.11,4.11,0,0,1,148.71,84.31Z"/><g id="text1092"><text class="cls-1" transform="translate(132.41 97.87)"><tspan xml:space="preserve">   </tspan></text><text class="cls-2" transform="translate(132.41 97.87)">R</text><text class="cls-3" transform="translate(141.1 97.87)"> </text></g><g id="text1094"><text class="cls-1" transform="translate(137.39 108.93)"><tspan xml:space="preserve">   </tspan></text><text class="cls-8" transform="translate(137.39 108.93)">R</text><text class="cls-3" transform="translate(146.08 108.93)"> </text></g><g id="text1096"><text class="cls-1" transform="translate(142.71 119.99)"><tspan xml:space="preserve">   </tspan></text><text class="cls-15" transform="translate(142.71 119.99)">Y</text><text class="cls-3" transform="translate(150.73 119.99)"> </text></g><path class="cls-7" d="M162.94,116.26a4.11,4.11,0,1,1-4.1-4.1A4.1,4.1,0,0,1,162.94,116.26Z"/><g id="text1098"><text class="cls-1" transform="translate(165.29 125.38)"><tspan xml:space="preserve">   </tspan></text><text class="cls-10" transform="translate(165.29 125.38)">G</text><text class="cls-3" transform="translate(174.65 125.38)"> </text></g><g id="text1100"><text class="cls-1" transform="translate(174.71 133.78)"><tspan xml:space="preserve">   </tspan></text><text class="cls-12" transform="translate(174.71 133.78)">A</text><text class="cls-3" transform="translate(182.73 133.78)"> </text></g><g id="text1102"><text class="cls-1" transform="translate(179.62 144.72)"><tspan xml:space="preserve">   </tspan></text><text class="cls-8" transform="translate(179.62 144.72)">U</text><text class="cls-3" transform="translate(188.31 144.72)"> </text></g><g id="text1104"><text class="cls-1" transform="translate(192.08 145.02)"><tspan xml:space="preserve">   </tspan></text><text class="cls-16" transform="translate(192.08 145.02)">Y</text><text class="cls-3" transform="translate(200.1 145.02)"> </text></g><g id="text1106"><text class="cls-1" transform="translate(204.2 145.32)"><tspan xml:space="preserve">   </tspan></text><text class="cls-17" transform="translate(204.2 145.32)">Y</text><text class="cls-3" transform="translate(212.23 145.32)"> </text></g><g id="text1108"><text class="cls-1" transform="translate(215.66 145.62)"><tspan xml:space="preserve">   </tspan></text><text class="cls-8" transform="translate(215.66 145.62)">G</text><text class="cls-3" transform="translate(225.02 145.62)"> </text></g><g id="text1110"><text class="cls-1" transform="translate(227.79 145.92)"><tspan xml:space="preserve">   </tspan></text><text class="cls-10" transform="translate(227.79 145.92)">G</text><text class="cls-3" transform="translate(237.15 145.92)"> </text></g><g id="text1112"><text class="cls-1" transform="translate(237.57 138.3)"><tspan xml:space="preserve">   </tspan></text><text class="cls-10" transform="translate(237.57 138.3)">U</text><text class="cls-3" transform="translate(246.26 138.3)"> </text></g><g id="text1114"><text class="cls-1" transform="translate(249.35 137.96)"><tspan xml:space="preserve">   </tspan></text><text class="cls-2" transform="translate(249.35 137.96)">G</text><text class="cls-3" transform="translate(258.71 137.96)"> </text></g><path class="cls-7" d="M268,140.7a4.1,4.1,0,1,1-4.09-4.1A4.09,4.09,0,0,1,268,140.7Z"/><g id="text1116"><text class="cls-1" transform="translate(263.14 156.6)"><tspan xml:space="preserve">   </tspan></text><text class="cls-10" transform="translate(263.14 156.6)">R</text><text class="cls-3" transform="translate(271.83 156.6)"> </text></g><g id="text1118"><text class="cls-1" transform="translate(259.32 168)"><tspan xml:space="preserve">   </tspan></text><text class="cls-18" transform="translate(259.32 168)">A</text><text class="cls-3" transform="translate(267.35 168)"> </text></g><g id="text1120"><text class="cls-1" transform="translate(249.12 174.56)"><tspan xml:space="preserve">   </tspan></text><text class="cls-19" transform="translate(249.12 174.56)">Y</text><text class="cls-3" transform="translate(257.14 174.56)"> </text></g><g id="text1122"><text class="cls-1" transform="translate(236.7 173.61)"><tspan xml:space="preserve">   </tspan></text><text class="cls-8" transform="translate(236.7 173.61)">U</text><text class="cls-3" transform="translate(245.39 173.61)"> </text></g><g id="text1124"><text class="cls-1" transform="translate(227.64 165.55)"><tspan xml:space="preserve">   </tspan></text><text class="cls-10" transform="translate(227.64 165.55)">C</text><text class="cls-3" transform="translate(236.33 165.55)"> </text></g><g id="text1126"><text class="cls-1" transform="translate(215.51 165.25)"><tspan xml:space="preserve">   </tspan></text><text class="cls-8" transform="translate(215.51 165.25)">C</text><text class="cls-3" transform="translate(224.2 165.25)"> </text></g><g id="text1128"><text class="cls-1" transform="translate(203.39 164.95)"><tspan xml:space="preserve">   </tspan></text><text class="cls-2" transform="translate(203.39 164.95)">R</text><text class="cls-3" transform="translate(212.08 164.95)"> </text></g><g id="text1130"><text class="cls-1" transform="translate(191.26 164.65)"><tspan xml:space="preserve">   </tspan></text><text class="cls-2" transform="translate(191.26 164.65)">R</text><text class="cls-3" transform="translate(199.95 164.65)"> </text></g><g id="text1132"><text class="cls-1" transform="translate(179.14 164.35)"><tspan xml:space="preserve">   </tspan></text><text class="cls-2" transform="translate(179.14 164.35)">R</text><text class="cls-3" transform="translate(187.83 164.35)"> </text></g><g id="text1134"><text class="cls-1" transform="translate(173.36 175.02)"><tspan xml:space="preserve">   </tspan></text><text class="cls-10" transform="translate(173.36 175.02)">R</text><text class="cls-3" transform="translate(182.05 175.02)"> </text></g><g id="text1136"><text class="cls-1" transform="translate(164.21 182.98)"><tspan xml:space="preserve">   </tspan></text><text class="cls-10" transform="translate(164.21 182.98)">C</text><text class="cls-3" transform="translate(172.9 182.98)"> </text></g><g id="text1138"><text class="cls-1" transform="translate(152.85 187.22)"><tspan xml:space="preserve">   </tspan></text><text class="cls-10" transform="translate(152.85 187.22)">C</text><text class="cls-3" transform="translate(161.54 187.22)"> </text></g><g id="text1140"><text class="cls-1" transform="translate(151.13 199.27)"><tspan xml:space="preserve">   </tspan></text><text class="cls-2" transform="translate(151.13 199.27)">G</text><text class="cls-3" transform="translate(160.49 199.27)"> </text></g><g id="text1142"><text class="cls-1" transform="translate(162.9 204.15)"><tspan xml:space="preserve">   </tspan></text><text class="cls-12" transform="translate(162.9 204.15)">A</text><text class="cls-3" transform="translate(170.92 204.15)"> </text></g><g id="text1144"><text class="cls-1" transform="translate(172.28 211.42)"><tspan xml:space="preserve">   </tspan></text><text class="cls-10" transform="translate(172.28 211.42)">C</text><text class="cls-3" transform="translate(180.97 211.42)"> </text></g><g id="text1146"><text class="cls-1" transform="translate(182.09 204.29)"><tspan xml:space="preserve">   </tspan></text><text class="cls-10" transform="translate(182.09 204.29)">R</text><text class="cls-3" transform="translate(190.78 204.29)"> </text></g><g id="text1148"><text class="cls-1" transform="translate(191.57 197.16)"><tspan xml:space="preserve">   </tspan></text><text class="cls-10" transform="translate(191.57 197.16)">G</text><text class="cls-3" transform="translate(200.92 197.16)"> </text></g><g id="text1150"><text class="cls-1" transform="translate(195.99 185.74)"><tspan xml:space="preserve">   </tspan></text><text class="cls-8" transform="translate(195.99 185.74)">U</text><text class="cls-3" transform="translate(204.67 185.74)"> </text></g><g id="text1152"><text class="cls-1" transform="translate(206.94 179.88)"><tspan xml:space="preserve">   </tspan></text><text class="cls-18" transform="translate(206.94 179.88)">A</text><text class="cls-3" transform="translate(214.96 179.88)"> </text></g><path class="cls-7" d="M226.89,178.2a4.1,4.1,0,1,1-4.09-4.09A4.1,4.1,0,0,1,226.89,178.2Z"/><g id="text1154"><text class="cls-1" transform="translate(225.9 192.33)"><tspan xml:space="preserve">   </tspan></text><text class="cls-18" transform="translate(225.9 192.33)">A</text><text class="cls-3" transform="translate(233.93 192.33)"> </text></g><g id="text1156"><text class="cls-1" transform="translate(224.09 204.41)"><tspan xml:space="preserve">   </tspan></text><text class="cls-10" transform="translate(224.09 204.41)">G</text><text class="cls-3" transform="translate(233.45 204.41)"> </text></g><g id="text1158"><text class="cls-1" transform="translate(215.57 212.7)"><tspan xml:space="preserve">   </tspan></text><text class="cls-10" transform="translate(215.57 212.7)">U</text><text class="cls-3" transform="translate(224.26 212.7)"> </text></g><g id="text1160"><text class="cls-1" transform="translate(203.45 213.05)"><tspan xml:space="preserve">   </tspan></text><text class="cls-10" transform="translate(203.45 213.05)">C</text><text class="cls-3" transform="translate(212.14 213.05)"> </text></g><g id="text1162"><text class="cls-1" transform="translate(193.96 220.18)"><tspan xml:space="preserve">   </tspan></text><text class="cls-20" transform="translate(193.96 220.18)">Y</text><text class="cls-3" transform="translate(201.99 220.18)"> </text></g><g id="text1164"><text class="cls-1" transform="translate(183.48 227.31)"><tspan xml:space="preserve">   </tspan></text><text class="cls-10" transform="translate(183.48 227.31)">G</text><text class="cls-3" transform="translate(192.84 227.31)"> </text></g><g id="text1166"><text class="cls-1" transform="translate(187.4 238.79)"><tspan xml:space="preserve">   </tspan></text><text class="cls-10" transform="translate(187.4 238.79)">G</text><text class="cls-3" transform="translate(196.75 238.79)"> </text></g><g id="text1168"><text class="cls-1" transform="translate(189.27 250.86)"><tspan xml:space="preserve">   </tspan></text><text class="cls-12" transform="translate(189.27 250.86)">A</text><text class="cls-3" transform="translate(197.3 250.86)"> </text></g><g id="text1170"><text class="cls-1" transform="translate(187.39 262.89)"><tspan xml:space="preserve">   </tspan></text><text class="cls-10" transform="translate(187.39 262.89)">U</text><text class="cls-3" transform="translate(196.08 262.89)"> </text></g><g id="text1172"><text class="cls-1" transform="translate(182.81 274.25)"><tspan xml:space="preserve">   </tspan></text><text class="cls-10" transform="translate(182.81 274.25)">G</text><text class="cls-3" transform="translate(192.17 274.25)"> </text></g><g id="text1174"><text class="cls-1" transform="translate(176.45 284.36)"><tspan xml:space="preserve">   </tspan></text><text class="cls-10" transform="translate(176.45 284.36)">R</text><text class="cls-3" transform="translate(185.14 284.36)"> </text></g><g id="text1176"><text class="cls-1" transform="translate(167.63 292.69)"><tspan xml:space="preserve">   </tspan></text><text class="cls-10" transform="translate(167.63 292.69)">R</text><text class="cls-3" transform="translate(176.32 292.69)"> </text></g><g id="text1178"><text class="cls-1" transform="translate(157.49 298.8)"><tspan xml:space="preserve">   </tspan></text><text class="cls-12" transform="translate(157.49 298.8)">A</text><text class="cls-3" transform="translate(165.51 298.8)"> </text></g><g id="text1180"><text class="cls-1" transform="translate(145.23 302.39)"><tspan xml:space="preserve">   </tspan></text><text class="cls-10" transform="translate(145.23 302.39)">G</text><text class="cls-3" transform="translate(154.59 302.39)"> </text></g><g id="text1182"><text class="cls-1" transform="translate(145.9 314.52)"><tspan xml:space="preserve">   </tspan></text><text class="cls-11" transform="translate(145.9 314.52)">A</text><text class="cls-3" transform="translate(153.92 314.52)"> </text></g><g id="text1184"><text class="cls-1" transform="translate(145.57 326.65)"><tspan xml:space="preserve">   </tspan></text><text class="cls-10" transform="translate(145.57 326.65)">R</text><text class="cls-3" transform="translate(154.26 326.65)"> </text></g><g id="text1186"><text class="cls-1" transform="translate(145.57 338.78)"><tspan xml:space="preserve">   </tspan></text><text class="cls-10" transform="translate(145.57 338.78)">R</text><text class="cls-3" transform="translate(154.26 338.78)"> </text></g><g id="text1188"><text class="cls-1" transform="translate(145.57 350.9)"><tspan xml:space="preserve">   </tspan></text><text class="cls-10" transform="translate(145.57 350.9)">R</text><text class="cls-3" transform="translate(154.26 350.9)"> </text></g><path class="cls-7" d="M154,358.71a4.1,4.1,0,1,1-4.09-4.1A4.09,4.09,0,0,1,154,358.71Z"/><g id="text1190"><text class="cls-1" transform="translate(145.57 375.16)"><tspan xml:space="preserve">   </tspan></text><text class="cls-8" transform="translate(145.57 375.16)">R</text><text class="cls-3" transform="translate(154.26 375.16)"> </text></g><path class="cls-7" d="M154,383a4.1,4.1,0,1,1-4.09-4.1A4.1,4.1,0,0,1,154,383Z"/><path class="cls-7" d="M162.59,391.55a4.11,4.11,0,1,1-4.07-4.07A4.1,4.1,0,0,1,162.59,391.55Z"/><path class="cls-7" d="M174.72,391.55a4.1,4.1,0,1,1-4.1-4.1A4.1,4.1,0,0,1,174.72,391.55Z"/><path class="cls-21" d="M97.44,391.55h6.06"/><path class="cls-22" d="M67,156.7l1.53-6.23"/><path class="cls-22" d="M234.17,202.74l5.76,2.83"/><path class="cls-22" d="M251.25,172.24l-2.91-5"/><path class="cls-22" d="M182.4,174.46l5,4"/><g id="text1192"><text class="cls-23" transform="translate(58.63 146.14)"><tspan xml:space="preserve">   </tspan></text><text class="cls-23" transform="translate(58.63 146.14)">pk_1</text><text class="cls-24" transform="translate(79.51 146.14)"> </text></g><g id="text1194"><text class="cls-23" transform="translate(242.09 213.54)"><tspan xml:space="preserve">   </tspan></text><text class="cls-23" transform="translate(242.09 213.54)">pk_2</text><text class="cls-24" transform="translate(262.96 213.54)"> </text></g><g id="text1196"><text class="cls-23" transform="translate(117.74 215.98)"><tspan xml:space="preserve">   </tspan></text><text class="cls-23" transform="translate(117.74 215.98)">pk_2</text><text class="cls-24" transform="translate(138.61 215.98)"> </text></g><g id="text1198"><text class="cls-23" transform="translate(183.72 189.67) rotate(-47.57)"><tspan xml:space="preserve">   </tspan></text><text class="cls-23" transform="translate(183.72 189.67) rotate(-47.57)">pk_1</text><text class="cls-24" transform="translate(197.8 174.26) rotate(-47.57)"> </text></g><g id="text1200"><text class="cls-1" transform="translate(86.04 395.87)"><tspan xml:space="preserve">   </tspan></text><text class="cls-2" transform="translate(86.04 395.87)">5&apos;</text><text class="cls-3" transform="translate(95.03 395.87)"> </text></g><g id="text1202"><text class="cls-25" transform="translate(325.2 267.86)"><tspan xml:space="preserve">   </tspan></text><text class="cls-25" transform="translate(325.2 267.86)">pk_1</text><text class="cls-26" transform="translate(359.24 267.86)"> </text></g><path class="cls-4" d="M345.7,285.86h5.09"/><path class="cls-5" d="M336.42,292.23h23.65v7H336.42Z"/><path class="cls-4" d="M345.7,295.75h5.09"/><path class="cls-6" d="M335.33,280.92V300.7"/><path class="cls-6" d="M361.16,300.7V280.92"/><g id="text1204"><text class="cls-27" transform="translate(336.42 289.38)"><tspan xml:space="preserve">   </tspan></text><text class="cls-28" transform="translate(336.42 289.38)">G</text><text class="cls-29" transform="translate(344.05 289.38)"> </text></g><g id="text1206"><text class="cls-27" transform="translate(336.97 299.27)"><tspan xml:space="preserve">   </tspan></text><text class="cls-30" transform="translate(336.97 299.27)">Y</text><text class="cls-29" transform="translate(343.51 299.27)"> </text></g><g id="text1208"><text class="cls-27" transform="translate(352.71 299.27)"><tspan xml:space="preserve">   </tspan></text><text class="cls-28" transform="translate(352.71 299.27)">R</text><text class="cls-29" transform="translate(359.8 299.27)"> </text></g><g id="text1210"><text class="cls-27" transform="translate(352.71 289.38)"><tspan xml:space="preserve">   </tspan></text><text class="cls-28" transform="translate(352.71 289.38)">C</text><text class="cls-29" transform="translate(359.8 289.38)"> </text></g><g id="text1212"><text class="cls-25" transform="translate(325.53 319.7)"><tspan xml:space="preserve">   </tspan></text><text class="cls-25" transform="translate(325.53 319.7)">pk_2</text><text class="cls-26" transform="translate(359.57 319.7)"> </text></g><path class="cls-4" d="M346,337.7h5.09"/><path class="cls-4" d="M346,347.59h5.09"/><path class="cls-6" d="M335.67,332.76v19.78"/><path class="cls-6" d="M361.49,352.54V332.76"/><g id="text1214"><text class="cls-27" transform="translate(337.3 341.23)"><tspan xml:space="preserve">   </tspan></text><text class="cls-31" transform="translate(337.3 341.23)">A</text><text class="cls-29" transform="translate(343.85 341.23)"> </text></g><g id="text1216"><text class="cls-27" transform="translate(337.03 351.12)"><tspan xml:space="preserve">   </tspan></text><text class="cls-32" transform="translate(337.03 351.12)">C</text><text class="cls-29" transform="translate(344.12 351.12)"> </text></g><g id="text1218"><text class="cls-27" transform="translate(352.77 351.12)"><tspan xml:space="preserve">   </tspan></text><text class="cls-28" transform="translate(352.77 351.12)">G</text><text class="cls-29" transform="translate(360.4 351.12)"> </text></g><g id="text1220"><text class="cls-27" transform="translate(353.05 341.23)"><tspan xml:space="preserve">   </tspan></text><text class="cls-28" transform="translate(353.05 341.23)">U</text><text class="cls-29" transform="translate(360.13 341.23)"> </text></g><path class="cls-6" d="M130.52,197.49A48.32,48.32,0,0,1,110,208.15"/><path class="cls-22" d="M121.59,204l5.76,2.83"/><path class="cls-33" d="M324.49,135.88l.94-.09a1.79,1.79,0,0,0,.45,1,1.22,1.22,0,0,0,.87.31,1.51,1.51,0,0,0,.79-.21,1.61,1.61,0,0,0,.55-.58,3.76,3.76,0,0,0,.36-1,5.3,5.3,0,0,0,.15-1.26,2,2,0,0,0,0-.21,2.19,2.19,0,0,1-.8.8,2,2,0,0,1-1.09.31,2.15,2.15,0,0,1-1.67-.76,2.88,2.88,0,0,1-.68-2,2.91,2.91,0,0,1,.72-2.06,2.31,2.31,0,0,1,1.79-.78,2.44,2.44,0,0,1,1.43.44,2.73,2.73,0,0,1,1,1.26,6.54,6.54,0,0,1,.33,2.36,8,8,0,0,1-.33,2.56,3,3,0,0,1-1,1.45,2.49,2.49,0,0,1-1.54.5,2.13,2.13,0,0,1-1.53-.55A2.35,2.35,0,0,1,324.49,135.88Zm4-3.71a2.14,2.14,0,0,0-.44-1.41,1.38,1.38,0,0,0-1.09-.52,1.47,1.47,0,0,0-1.14.56,2.22,2.22,0,0,0-.47,1.46,1.9,1.9,0,0,0,.45,1.31,1.48,1.48,0,0,0,1.14.5,1.42,1.42,0,0,0,1.11-.5A2.08,2.08,0,0,0,328.5,132.17Z"/><path class="cls-33" d="M330.57,133.68a7.89,7.89,0,0,1,.3-2.4,2.85,2.85,0,0,1,.87-1.4,2.15,2.15,0,0,1,1.46-.49,2.34,2.34,0,0,1,1.14.27,2.27,2.27,0,0,1,.81.79,4.35,4.35,0,0,1,.49,1.25,8.66,8.66,0,0,1,.18,2,8.19,8.19,0,0,1-.29,2.39,2.93,2.93,0,0,1-.87,1.41,2.39,2.39,0,0,1-3.29-.37A5.79,5.79,0,0,1,330.57,133.68Zm1,0a5.62,5.62,0,0,0,.46,2.76,1.32,1.32,0,0,0,2.31,0,5.55,5.55,0,0,0,.46-2.75,5.62,5.62,0,0,0-.46-2.76,1.39,1.39,0,0,0-1.17-.68,1.29,1.29,0,0,0-1.1.6A5.67,5.67,0,0,0,331.58,133.68Z"/><path class="cls-33" d="M337,131.44a2.7,2.7,0,0,1,.43-1.53,1.42,1.42,0,0,1,1.25-.63,1.58,1.58,0,0,1,1.25.56,2.51,2.51,0,0,1,.49,1.66,2.48,2.48,0,0,1-.5,1.65,1.56,1.56,0,0,1-1.23.57,1.53,1.53,0,0,1-1.2-.56A2.61,2.61,0,0,1,337,131.44Zm1.71-1.43a.72.72,0,0,0-.61.33,2.06,2.06,0,0,0-.25,1.2,1.89,1.89,0,0,0,.25,1.13.75.75,0,0,0,.61.32.77.77,0,0,0,.62-.32,2.16,2.16,0,0,0,.24-1.2,1.89,1.89,0,0,0-.25-1.13A.73.73,0,0,0,338.66,130Zm0,8.14,4.43-8.87h.81l-4.42,8.87Zm3.52-2.28a2.64,2.64,0,0,1,.43-1.54,1.41,1.41,0,0,1,1.25-.63,1.56,1.56,0,0,1,1.24.57,3,3,0,0,1,0,3.3,1.59,1.59,0,0,1-1.23.58,1.51,1.51,0,0,1-1.21-.57A2.6,2.6,0,0,1,342.18,135.87Zm1.71-1.44a.74.74,0,0,0-.62.33A2.17,2.17,0,0,0,343,136a2,2,0,0,0,.24,1.12.76.76,0,0,0,.61.32.75.75,0,0,0,.62-.32,2.14,2.14,0,0,0,.25-1.2,2,2,0,0,0-.25-1.13A.75.75,0,0,0,343.89,134.43Z"/><path class="cls-34" d="M320.64,132.38a3.26,3.26,0,1,1-3.26-3.26,3.27,3.27,0,0,1,3.26,3.26"/><path class="cls-35" d="M317.38,129.12a3.26,3.26,0,1,1-3.26,3.26A3.26,3.26,0,0,1,317.38,129.12Z"/><path class="cls-33" d="M324.49,124.26l.94-.09a1.76,1.76,0,0,0,.45,1,1.23,1.23,0,0,0,.87.32,1.43,1.43,0,0,0,.79-.22,1.54,1.54,0,0,0,.55-.58,3.67,3.67,0,0,0,.36-1,5.3,5.3,0,0,0,.15-1.26,1.79,1.79,0,0,0,0-.21,2.19,2.19,0,0,1-.8.8,2.09,2.09,0,0,1-1.09.31,2.19,2.19,0,0,1-1.67-.76,2.89,2.89,0,0,1-.68-2,2.94,2.94,0,0,1,.72-2.06,2.34,2.34,0,0,1,1.79-.77,2.44,2.44,0,0,1,1.43.44,2.75,2.75,0,0,1,1,1.25,6.61,6.61,0,0,1,.33,2.37,8.07,8.07,0,0,1-.33,2.56,3,3,0,0,1-1,1.45,2.49,2.49,0,0,1-1.54.5,2.17,2.17,0,0,1-1.53-.55A2.36,2.36,0,0,1,324.49,124.26Zm4-3.7a2.14,2.14,0,0,0-.44-1.41,1.38,1.38,0,0,0-1.09-.52,1.44,1.44,0,0,0-1.14.56,2.21,2.21,0,0,0-.47,1.46,1.87,1.87,0,0,0,.45,1.3,1.45,1.45,0,0,0,1.14.5,1.39,1.39,0,0,0,1.11-.5A2.05,2.05,0,0,0,328.5,120.56Z"/><path class="cls-33" d="M330.64,118.9v-1h5.18v.8a11.58,11.58,0,0,0-1.51,2.27,14.21,14.21,0,0,0-1.16,2.92,10.72,10.72,0,0,0-.38,2.31h-1a11.18,11.18,0,0,1,.37-2.4,13.46,13.46,0,0,1,1-2.71,11.6,11.6,0,0,1,1.41-2.2Z"/><path class="cls-33" d="M337,119.83a2.76,2.76,0,0,1,.43-1.54,1.42,1.42,0,0,1,1.25-.63,1.59,1.59,0,0,1,1.25.57,2.51,2.51,0,0,1,.49,1.66,2.44,2.44,0,0,1-.5,1.64,1.54,1.54,0,0,1-1.23.58,1.51,1.51,0,0,1-1.2-.57A2.6,2.6,0,0,1,337,119.83Zm1.71-1.43a.72.72,0,0,0-.61.33,2,2,0,0,0-.25,1.2,1.85,1.85,0,0,0,.25,1.12.73.73,0,0,0,.61.33.75.75,0,0,0,.62-.33,2.16,2.16,0,0,0,.24-1.2,1.89,1.89,0,0,0-.25-1.13A.72.72,0,0,0,338.66,118.4Zm0,8.13,4.43-8.87h.81l-4.42,8.87Zm3.52-2.28a2.62,2.62,0,0,1,.43-1.53,1.41,1.41,0,0,1,1.25-.63,1.58,1.58,0,0,1,1.24.56,3,3,0,0,1,0,3.31,1.58,1.58,0,0,1-1.23.57,1.51,1.51,0,0,1-1.21-.57A2.6,2.6,0,0,1,342.18,124.25Zm1.71-1.43a.74.74,0,0,0-.62.33,2.16,2.16,0,0,0-.24,1.2,2,2,0,0,0,.24,1.12.75.75,0,0,0,.61.33.74.74,0,0,0,.62-.33,2.12,2.12,0,0,0,.25-1.2,1.92,1.92,0,0,0-.25-1.12A.75.75,0,0,0,343.89,122.82Z"/><path class="cls-36" d="M320.64,120.77a3.26,3.26,0,1,1-3.26-3.27,3.26,3.26,0,0,1,3.26,3.27"/><path class="cls-35" d="M317.38,117.51a3.26,3.26,0,1,1-3.26,3.26A3.26,3.26,0,0,1,317.38,117.51Z"/><path class="cls-33" d="M364,118.9v-1h5.18v.8a11.58,11.58,0,0,0-1.51,2.27,14.8,14.8,0,0,0-1.16,2.92,11.39,11.39,0,0,0-.37,2.31h-1a10.58,10.58,0,0,1,.37-2.4,12.85,12.85,0,0,1,1-2.71,12.12,12.12,0,0,1,1.41-2.2Z"/><path class="cls-33" d="M370.18,124l1-.09a2,2,0,0,0,.52,1.18,1.4,1.4,0,0,0,1,.4,1.53,1.53,0,0,0,1.21-.56,2.2,2.2,0,0,0,.49-1.48,2,2,0,0,0-.46-1.39,1.76,1.76,0,0,0-2.09-.29,1.64,1.64,0,0,0-.59.58l-.92-.14.78-4.31h4v1h-3.18l-.43,2.27a2.45,2.45,0,0,1,1.5-.53,2.31,2.31,0,0,1,1.76.76,2.74,2.74,0,0,1,.72,2,3.13,3.13,0,0,1-.63,2,2.72,2.72,0,0,1-3.88.38A2.47,2.47,0,0,1,370.18,124Z"/><path class="cls-33" d="M376.56,119.83a2.68,2.68,0,0,1,.43-1.54,1.42,1.42,0,0,1,1.25-.63,1.57,1.57,0,0,1,1.24.57,3,3,0,0,1,0,3.3,1.57,1.57,0,0,1-1.23.58,1.52,1.52,0,0,1-1.21-.57A2.6,2.6,0,0,1,376.56,119.83Zm1.7-1.43a.73.73,0,0,0-.61.33,2.11,2.11,0,0,0-.24,1.2,1.94,1.94,0,0,0,.24,1.12.75.75,0,0,0,.61.33.74.74,0,0,0,.62-.33,2.16,2.16,0,0,0,.24-1.2,2,2,0,0,0-.24-1.13A.74.74,0,0,0,378.26,118.4Zm0,8.13,4.42-8.87h.82l-4.43,8.87Zm3.51-2.28a2.7,2.7,0,0,1,.43-1.53,1.44,1.44,0,0,1,1.26-.63,1.59,1.59,0,0,1,1.24.56,2.46,2.46,0,0,1,.49,1.66,2.41,2.41,0,0,1-.5,1.65,1.56,1.56,0,0,1-1.23.57,1.51,1.51,0,0,1-1.2-.57A2.6,2.6,0,0,1,381.78,124.25Zm1.71-1.43a.72.72,0,0,0-.61.33,2.06,2.06,0,0,0-.25,1.2,1.87,1.87,0,0,0,.25,1.12.72.72,0,0,0,.61.33.74.74,0,0,0,.62-.33,2.13,2.13,0,0,0,.24-1.2,1.85,1.85,0,0,0-.25-1.12A.72.72,0,0,0,383.49,122.82Z"/><path class="cls-37" d="M360.25,122.77A3.27,3.27,0,1,1,357,119.5a3.26,3.26,0,0,1,3.26,3.27"/><path class="cls-35" d="M357,119.5a3.27,3.27,0,1,1-3.26,3.27A3.26,3.26,0,0,1,357,119.5Z"/><path class="cls-35" d="M357,131.12a3.26,3.26,0,1,1-3.26,3.26A3.26,3.26,0,0,1,357,131.12Z"/><path class="cls-33" d="M364,135.62l1-.09a2.06,2.06,0,0,0,.53,1.19,1.42,1.42,0,0,0,1,.39,1.5,1.5,0,0,0,1.21-.56,2.18,2.18,0,0,0,.49-1.48,2,2,0,0,0-.46-1.39,1.59,1.59,0,0,0-1.24-.51,1.74,1.74,0,0,0-.86.22,1.69,1.69,0,0,0-.58.58l-.92-.14.78-4.3h4v1H365.7l-.44,2.27a2.55,2.55,0,0,1,1.51-.53,2.35,2.35,0,0,1,1.76.76,2.74,2.74,0,0,1,.72,2,3.11,3.11,0,0,1-.64,2,2.71,2.71,0,0,1-3.87.38A2.52,2.52,0,0,1,364,135.62Z"/><path class="cls-33" d="M370.18,133.68a7.93,7.93,0,0,1,.29-2.4,3,3,0,0,1,.87-1.4,2.19,2.19,0,0,1,1.46-.49,2.32,2.32,0,0,1,1.14.27,2.11,2.11,0,0,1,.81.79,4.24,4.24,0,0,1,.49,1.25,8.08,8.08,0,0,1,.18,2,8.28,8.28,0,0,1-.28,2.39,2.94,2.94,0,0,1-.88,1.4,2.15,2.15,0,0,1-1.46.49,2.19,2.19,0,0,1-1.83-.86A5.77,5.77,0,0,1,370.18,133.68Zm1,0a5.41,5.41,0,0,0,.47,2.75,1.31,1.31,0,0,0,2.3,0,8.31,8.31,0,0,0,0-5.51,1.38,1.38,0,0,0-1.16-.68,1.28,1.28,0,0,0-1.1.6A5.54,5.54,0,0,0,371.18,133.68Z"/><path class="cls-33" d="M376.56,131.44a2.62,2.62,0,0,1,.43-1.53,1.41,1.41,0,0,1,1.25-.64,1.57,1.57,0,0,1,1.24.57,3,3,0,0,1,0,3.3,1.57,1.57,0,0,1-1.23.58,1.52,1.52,0,0,1-1.21-.57A2.6,2.6,0,0,1,376.56,131.44Zm1.7-1.43a.73.73,0,0,0-.61.33,2.16,2.16,0,0,0-.24,1.2,1.94,1.94,0,0,0,.24,1.12.75.75,0,0,0,.61.33.74.74,0,0,0,.62-.33,2.16,2.16,0,0,0,.24-1.2,1.94,1.94,0,0,0-.24-1.12A.75.75,0,0,0,378.26,130Zm0,8.13,4.42-8.87h.82l-4.43,8.87Zm3.51-2.28a2.7,2.7,0,0,1,.43-1.53,1.44,1.44,0,0,1,1.26-.63,1.59,1.59,0,0,1,1.24.56,2.46,2.46,0,0,1,.49,1.66,2.4,2.4,0,0,1-.5,1.65,1.57,1.57,0,0,1-1.23.58,1.52,1.52,0,0,1-1.2-.58A2.6,2.6,0,0,1,381.78,135.86Zm1.71-1.43a.72.72,0,0,0-.61.33,2.06,2.06,0,0,0-.25,1.2,1.87,1.87,0,0,0,.25,1.12.72.72,0,0,0,.61.33.74.74,0,0,0,.62-.33,2.14,2.14,0,0,0,.24-1.19,1.86,1.86,0,0,0-.25-1.13A.72.72,0,0,0,383.49,134.43Z"/><path class="cls-33" d="M324.61,103.3V97.2h.89v.87a2,2,0,0,1,1.84-1,2.31,2.31,0,0,1,1,.2,1.48,1.48,0,0,1,.66.52,2,2,0,0,1,.3.76,5.71,5.71,0,0,1,.06,1v3.75h-1V99.58a2.78,2.78,0,0,0-.12-.94,1,1,0,0,0-.4-.5,1.23,1.23,0,0,0-.67-.19,1.52,1.52,0,0,0-1.07.42,2.16,2.16,0,0,0-.45,1.59v3.34Z"/><path class="cls-33" d="M334.63,103.3v-.9a2.08,2.08,0,0,1-1.84,1,2.39,2.39,0,0,1-1-.2,1.63,1.63,0,0,1-.66-.52,2,2,0,0,1-.3-.77,5.49,5.49,0,0,1-.06-1V97.2h1v3.38a6.34,6.34,0,0,0,.06,1.09,1,1,0,0,0,.4.63,1.13,1.13,0,0,0,.73.24,1.52,1.52,0,0,0,.83-.24,1.29,1.29,0,0,0,.55-.65,3.33,3.33,0,0,0,.16-1.19V97.19h1v6.1h-.87Z"/><path class="cls-33" d="M340.83,101.07l1,.14a2.67,2.67,0,0,1-.81,1.63,2.24,2.24,0,0,1-1.59.59,2.4,2.4,0,0,1-1.9-.81,3.41,3.41,0,0,1-.72-2.35,4.57,4.57,0,0,1,.3-1.73,2.26,2.26,0,0,1,.95-1.11,2.63,2.63,0,0,1,1.37-.37,2.29,2.29,0,0,1,1.54.51A2.35,2.35,0,0,1,341.7,99l-1,.14a1.72,1.72,0,0,0-.48-.93,1.15,1.15,0,0,0-.82-.31,1.5,1.5,0,0,0-1.2.56,2.8,2.8,0,0,0-.46,1.77,2.85,2.85,0,0,0,.45,1.79,1.41,1.41,0,0,0,1.16.56,1.3,1.3,0,0,0,.95-.38A1.83,1.83,0,0,0,340.83,101.07Z"/><path class="cls-33" d="M342.62,103.3V94.89h1v8.41Z"/><path class="cls-33" d="M349.15,101.32l1,.14a2.43,2.43,0,0,1-2.56,2,2.59,2.59,0,0,1-2-.82,3.31,3.31,0,0,1-.75-2.31,3.45,3.45,0,0,1,.76-2.39,2.47,2.47,0,0,1,2-.85,2.42,2.42,0,0,1,1.9.84,3.38,3.38,0,0,1,.74,2.35v.27h-4.35a2.31,2.31,0,0,0,.55,1.53,1.59,1.59,0,0,0,1.23.53,1.51,1.51,0,0,0,.94-.3A2,2,0,0,0,349.15,101.32Zm-3.31-1.65h3.33a2.17,2.17,0,0,0-.39-1.16,1.53,1.53,0,0,0-1.25-.6,1.55,1.55,0,0,0-1.16.48A1.9,1.9,0,0,0,345.84,99.67Z"/><path class="cls-33" d="M351,100.25a3.22,3.22,0,0,1,.9-2.51,2.63,2.63,0,0,1,1.82-.68,2.55,2.55,0,0,1,2,.83,3.26,3.26,0,0,1,.76,2.27,4.29,4.29,0,0,1-.34,1.86,2.46,2.46,0,0,1-1,1,2.69,2.69,0,0,1-1.4.37,2.55,2.55,0,0,1-2-.82A3.38,3.38,0,0,1,351,100.25Zm1,0a2.66,2.66,0,0,0,.49,1.76,1.56,1.56,0,0,0,2.44,0,2.73,2.73,0,0,0,.49-1.79,2.67,2.67,0,0,0-.49-1.72,1.55,1.55,0,0,0-1.22-.58,1.51,1.51,0,0,0-1.22.58A2.65,2.65,0,0,0,352,100.24Z"/><path class="cls-33" d="M359.73,102.38l.14.91a3.7,3.7,0,0,1-.75.1,1.62,1.62,0,0,1-.83-.18,1,1,0,0,1-.41-.47,3.87,3.87,0,0,1-.12-1.22V98H357v-.8h.73V95.69l1-.62V97.2h1V98h-1v3.56a1.79,1.79,0,0,0,.05.57.45.45,0,0,0,.16.2.64.64,0,0,0,.34.07Z"/><path class="cls-33" d="M360.73,96.05V94.88h1v1.17Zm0,7.25V97.2h1v6.1Z"/><path class="cls-33" d="M366.92,103.3v-.77a1.78,1.78,0,0,1-1.62.9A2.2,2.2,0,0,1,364,103a2.58,2.58,0,0,1-.9-1.12,4.1,4.1,0,0,1-.32-1.66,4.53,4.53,0,0,1,.29-1.65,2.3,2.3,0,0,1,.87-1.14,2.19,2.19,0,0,1,1.29-.4,1.92,1.92,0,0,1,.94.23,2.15,2.15,0,0,1,.67.6v-3h1v8.41h-.92Zm-3.11-3a2.69,2.69,0,0,0,.47,1.75,1.38,1.38,0,0,0,1.11.58,1.35,1.35,0,0,0,1.1-.55,2.64,2.64,0,0,0,.46-1.69,3,3,0,0,0-.46-1.84,1.39,1.39,0,0,0-1.14-.59,1.35,1.35,0,0,0-1.1.56A2.86,2.86,0,0,0,363.81,100.25Z"/><path class="cls-33" d="M373.41,101.32l1,.14a2.43,2.43,0,0,1-2.56,2,2.59,2.59,0,0,1-2-.82,3.31,3.31,0,0,1-.75-2.31,3.49,3.49,0,0,1,.75-2.39,2.5,2.5,0,0,1,2-.85,2.42,2.42,0,0,1,1.91.84,3.43,3.43,0,0,1,.74,2.35v.27h-4.35a2.31,2.31,0,0,0,.54,1.53,1.61,1.61,0,0,0,1.24.53,1.46,1.46,0,0,0,.93-.3A2,2,0,0,0,373.41,101.32Zm-3.31-1.65h3.32a2.09,2.09,0,0,0-.38-1.16,1.53,1.53,0,0,0-1.25-.6,1.59,1.59,0,0,0-1.17.48A1.94,1.94,0,0,0,370.1,99.67Z"/><path class="cls-33" d="M331.63,116.78v-8.43h.9v.78a2.31,2.31,0,0,1,.71-.69,2,2,0,0,1,1-.23,2.24,2.24,0,0,1,1.32.4,2.61,2.61,0,0,1,.86,1.13,4.43,4.43,0,0,1,.28,1.61,4.26,4.26,0,0,1-.31,1.68,2.56,2.56,0,0,1-.93,1.15,2.3,2.3,0,0,1-1.29.4,1.72,1.72,0,0,1-.88-.22,2,2,0,0,1-.64-.55v3Zm.87-5.35a2.78,2.78,0,0,0,.46,1.74,1.4,1.4,0,0,0,1.11.56,1.41,1.41,0,0,0,1.13-.58,2.88,2.88,0,0,0,.47-1.81,2.84,2.84,0,0,0-.46-1.75,1.36,1.36,0,0,0-1.1-.58,1.43,1.43,0,0,0-1.12.62A2.88,2.88,0,0,0,332.5,111.43Z"/><path class="cls-33" d="M337.88,114.45v-6.1h.89v.93a2.43,2.43,0,0,1,.62-.86,1,1,0,0,1,.63-.21,1.79,1.79,0,0,1,1,.34l-.35.94a1.34,1.34,0,0,0-.71-.2.86.86,0,0,0-.57.2,1.14,1.14,0,0,0-.36.56,4.22,4.22,0,0,0-.16,1.21v3.19Z"/><path class="cls-33" d="M345.57,112.47l1,.14a2.61,2.61,0,0,1-.9,1.45,2.56,2.56,0,0,1-1.66.52,2.61,2.61,0,0,1-2-.82,3.31,3.31,0,0,1-.74-2.31,3.49,3.49,0,0,1,.75-2.39,2.5,2.5,0,0,1,2-.85,2.42,2.42,0,0,1,1.91.84,3.42,3.42,0,0,1,.74,2.34c0,.07,0,.16,0,.28h-4.35a2.36,2.36,0,0,0,.55,1.53,1.59,1.59,0,0,0,1.23.53,1.52,1.52,0,0,0,.95-.3A2,2,0,0,0,345.57,112.47Zm-3.31-1.65h3.32a2.15,2.15,0,0,0-.38-1.16,1.53,1.53,0,0,0-1.25-.6,1.59,1.59,0,0,0-1.17.48A1.89,1.89,0,0,0,342.26,110.82Z"/><path class="cls-33" d="M347.4,112.61l1-.14a1.48,1.48,0,0,0,.46.94,1.54,1.54,0,0,0,1,.32,1.44,1.44,0,0,0,1-.29.86.86,0,0,0,.32-.68.64.64,0,0,0-.29-.55,4.26,4.26,0,0,0-1-.35,8.53,8.53,0,0,1-1.49-.5,1.48,1.48,0,0,1-.63-.58,1.68,1.68,0,0,1,0-1.57,1.65,1.65,0,0,1,.47-.58,2.56,2.56,0,0,1,.62-.3,3,3,0,0,1,.85-.12,3.12,3.12,0,0,1,1.19.21,1.74,1.74,0,0,1,.76.56,2.3,2.3,0,0,1,.33,1l-1,.14a1.13,1.13,0,0,0-.38-.75,1.35,1.35,0,0,0-.87-.26,1.57,1.57,0,0,0-1,.23.7.7,0,0,0-.29.56.6.6,0,0,0,.12.36.83.83,0,0,0,.37.27l.86.27a12,12,0,0,1,1.45.48,1.39,1.39,0,0,1,.65.54,1.55,1.55,0,0,1,.24.89,1.82,1.82,0,0,1-.28,1,1.91,1.91,0,0,1-.83.7,2.79,2.79,0,0,1-1.21.25,2.58,2.58,0,0,1-1.72-.5A2.36,2.36,0,0,1,347.4,112.61Z"/><path class="cls-33" d="M357.38,112.47l1,.14a2.45,2.45,0,0,1-2.56,2,2.59,2.59,0,0,1-2-.82,3.31,3.31,0,0,1-.75-2.31,3.45,3.45,0,0,1,.76-2.39,2.47,2.47,0,0,1,2-.85,2.44,2.44,0,0,1,1.91.84,3.42,3.42,0,0,1,.73,2.34v.28h-4.35a2.31,2.31,0,0,0,.55,1.53,1.59,1.59,0,0,0,1.23.53,1.49,1.49,0,0,0,.94-.3A2,2,0,0,0,357.38,112.47Zm-3.31-1.65h3.33a2.14,2.14,0,0,0-.39-1.16,1.52,1.52,0,0,0-1.25-.6,1.55,1.55,0,0,0-1.16.48A1.9,1.9,0,0,0,354.07,110.82Z"/><path class="cls-33" d="M359.58,114.45v-6.1h.9v.86a2,2,0,0,1,1.83-1,2.17,2.17,0,0,1,1,.2,1.44,1.44,0,0,1,.65.52,2.09,2.09,0,0,1,.31.76,7.18,7.18,0,0,1,0,1v3.76h-1v-3.71a3.15,3.15,0,0,0-.11-.95,1,1,0,0,0-.4-.5,1.26,1.26,0,0,0-.68-.19,1.5,1.5,0,0,0-1.06.42,2.16,2.16,0,0,0-.45,1.59v3.34Z"/><path class="cls-33" d="M367.92,113.53l.14.91a3.52,3.52,0,0,1-.74.1,1.68,1.68,0,0,1-.83-.18,1,1,0,0,1-.42-.47,4,4,0,0,1-.11-1.22v-3.52h-.74v-.8H366v-1.51l1-.62v2.13h1v.8h-1v3.56a2.16,2.16,0,0,0,.05.57.47.47,0,0,0,.17.2.64.64,0,0,0,.34.07Z"/><path class="cls-33" d="M324.24,167.84v-6.1h.89v.87a2.06,2.06,0,0,1,1.84-1,2.39,2.39,0,0,1,1,.2,1.44,1.44,0,0,1,.65.52,2.17,2.17,0,0,1,.31.76,7.35,7.35,0,0,1,.05,1v3.75h-1v-3.71a2.89,2.89,0,0,0-.11-.95,1,1,0,0,0-.4-.5,1.25,1.25,0,0,0-.68-.18,1.54,1.54,0,0,0-1.07.42,2.16,2.16,0,0,0-.44,1.59v3.33Z"/><path class="cls-33" d="M334.27,167.84v-.9a2.11,2.11,0,0,1-1.85,1,2.23,2.23,0,0,1-1-.2,1.68,1.68,0,0,1-.66-.52,2.14,2.14,0,0,1-.3-.77,5.44,5.44,0,0,1-.06-1v-3.78h1v3.38a7.62,7.62,0,0,0,.06,1.09,1.1,1.1,0,0,0,.4.63,1.13,1.13,0,0,0,.74.24,1.51,1.51,0,0,0,.82-.24,1.25,1.25,0,0,0,.55-.65,3.33,3.33,0,0,0,.16-1.19v-3.26h1v6.09h-.87Z"/><path class="cls-33" d="M340.47,165.61l1,.14a2.73,2.73,0,0,1-.81,1.64A2.28,2.28,0,0,1,339,168a2.41,2.41,0,0,1-1.9-.81,3.46,3.46,0,0,1-.72-2.35,4.42,4.42,0,0,1,.31-1.73,2.24,2.24,0,0,1,.94-1.11,2.74,2.74,0,0,1,1.38-.37,2.28,2.28,0,0,1,1.53.51,2.36,2.36,0,0,1,.77,1.44l-1,.14a1.79,1.79,0,0,0-.48-.93,1.24,1.24,0,0,0-.83-.31,1.46,1.46,0,0,0-1.19.56,2.74,2.74,0,0,0-.46,1.77,2.92,2.92,0,0,0,.44,1.79,1.43,1.43,0,0,0,1.16.56,1.37,1.37,0,0,0,1-.37A2,2,0,0,0,340.47,165.61Z"/><path class="cls-33" d="M342.25,167.84v-8.41h1v8.41Z"/><path class="cls-33" d="M348.78,165.87l1,.13a2.67,2.67,0,0,1-.9,1.46,2.9,2.9,0,0,1-3.69-.31,3.31,3.31,0,0,1-.75-2.31,3.42,3.42,0,0,1,.76-2.38,2.5,2.5,0,0,1,2-.86,2.44,2.44,0,0,1,1.91.84,3.45,3.45,0,0,1,.74,2.35c0,.06,0,.15,0,.28h-4.35a2.41,2.41,0,0,0,.55,1.53,1.63,1.63,0,0,0,1.23.53,1.49,1.49,0,0,0,.94-.3A2,2,0,0,0,348.78,165.87Zm-3.31-1.65h3.33a2.27,2.27,0,0,0-.38-1.17,1.63,1.63,0,0,0-2.42-.12A1.9,1.9,0,0,0,345.47,164.22Z"/><path class="cls-33" d="M350.62,164.79a3.27,3.27,0,0,1,.89-2.51,2.63,2.63,0,0,1,1.82-.68,2.55,2.55,0,0,1,2,.83,3.27,3.27,0,0,1,.76,2.28,4.13,4.13,0,0,1-.34,1.85,2.44,2.44,0,0,1-1,1,2.76,2.76,0,0,1-1.41.38,2.52,2.52,0,0,1-2-.83A3.36,3.36,0,0,1,350.62,164.79Zm1,0a2.71,2.71,0,0,0,.49,1.75,1.56,1.56,0,0,0,2.44,0,2.73,2.73,0,0,0,.49-1.79,2.57,2.57,0,0,0-.49-1.71,1.56,1.56,0,0,0-2.44,0A2.72,2.72,0,0,0,351.62,164.79Z"/><path class="cls-33" d="M359.36,166.92l.14.92a3.62,3.62,0,0,1-.75.09,1.62,1.62,0,0,1-.83-.18,1,1,0,0,1-.41-.47,3.87,3.87,0,0,1-.12-1.22v-3.52h-.73v-.8h.73v-1.51l1-.62v2.13h1v.8h-1v3.56a1.66,1.66,0,0,0,.06.57.45.45,0,0,0,.16.2.64.64,0,0,0,.34.07A3.64,3.64,0,0,0,359.36,166.92Z"/><path class="cls-33" d="M360.36,160.59v-1.17h1v1.17Zm0,7.25v-6.1h1v6.1Z"/><path class="cls-33" d="M366.56,167.84v-.77a1.81,1.81,0,0,1-1.63.9,2.15,2.15,0,0,1-1.27-.4,2.48,2.48,0,0,1-.91-1.12,4.1,4.1,0,0,1-.32-1.66,4.57,4.57,0,0,1,.29-1.65,2.36,2.36,0,0,1,.87-1.14,2.22,2.22,0,0,1,1.3-.4,1.89,1.89,0,0,1,.93.23,2.05,2.05,0,0,1,.67.6v-3h1v8.42Zm-3.12-3.05a2.75,2.75,0,0,0,.47,1.75,1.42,1.42,0,0,0,1.12.59,1.39,1.39,0,0,0,1.1-.56,2.64,2.64,0,0,0,.45-1.69,3,3,0,0,0-.46-1.84,1.41,1.41,0,0,0-1.13-.59,1.37,1.37,0,0,0-1.11.56A2.93,2.93,0,0,0,363.44,164.79Z"/><path class="cls-33" d="M373,165.87l1,.13a2.45,2.45,0,0,1-2.56,2,2.59,2.59,0,0,1-2-.83,3.31,3.31,0,0,1-.75-2.31,3.42,3.42,0,0,1,.76-2.38,2.48,2.48,0,0,1,2-.86,2.42,2.42,0,0,1,1.9.84,3.4,3.4,0,0,1,.74,2.35v.28h-4.35a2.35,2.35,0,0,0,.55,1.53,1.63,1.63,0,0,0,1.23.53,1.49,1.49,0,0,0,.94-.3A2,2,0,0,0,373,165.87Zm-3.31-1.65h3.33a2.18,2.18,0,0,0-.39-1.17,1.53,1.53,0,0,0-1.25-.6,1.59,1.59,0,0,0-1.17.48A1.94,1.94,0,0,0,369.73,164.22Z"/><path class="cls-33" d="M331.33,171.74v-1.17h1v1.17Zm0,7.25v-6.1h1V179Z"/><path class="cls-33" d="M337.53,179v-.77a1.79,1.79,0,0,1-1.62.9,2.18,2.18,0,0,1-1.28-.4,2.58,2.58,0,0,1-.9-1.12,3.94,3.94,0,0,1-.32-1.66,4.33,4.33,0,0,1,.29-1.65,2.3,2.3,0,0,1,.87-1.14,2.17,2.17,0,0,1,1.29-.4,2,2,0,0,1,.94.23,1.9,1.9,0,0,1,.66.6v-3h1V179h-.92Zm-3.11-3.05a2.69,2.69,0,0,0,.47,1.75,1.35,1.35,0,0,0,2.21,0,2.66,2.66,0,0,0,.45-1.69,3,3,0,0,0-.46-1.84,1.38,1.38,0,0,0-1.13-.59,1.35,1.35,0,0,0-1.1.56A2.86,2.86,0,0,0,334.42,175.94Z"/><path class="cls-33" d="M344,177l1,.14a2.74,2.74,0,0,1-4.59,1.15,3.31,3.31,0,0,1-.74-2.31,3.49,3.49,0,0,1,.75-2.39,2.5,2.5,0,0,1,2-.85,2.42,2.42,0,0,1,1.91.84,3.43,3.43,0,0,1,.74,2.35c0,.06,0,.15,0,.27h-4.35a2.36,2.36,0,0,0,.55,1.53,1.59,1.59,0,0,0,1.23.53,1.43,1.43,0,0,0,.94-.3A2,2,0,0,0,344,177Zm-3.31-1.65H344a2.09,2.09,0,0,0-.38-1.16,1.53,1.53,0,0,0-1.25-.6,1.59,1.59,0,0,0-1.17.48A1.89,1.89,0,0,0,340.71,175.36Z"/><path class="cls-33" d="M346.21,179v-6.1h.9v.87a2.05,2.05,0,0,1,1.84-1,2.31,2.31,0,0,1,.95.2,1.38,1.38,0,0,1,.65.52,2,2,0,0,1,.31.76,6,6,0,0,1,.05,1V179h-1v-3.71a2.84,2.84,0,0,0-.12-.95,1,1,0,0,0-.4-.5,1.22,1.22,0,0,0-.67-.18,1.52,1.52,0,0,0-1.07.42,2.16,2.16,0,0,0-.45,1.59V179Z"/><path class="cls-33" d="M354.56,178.07l.14.91a3.7,3.7,0,0,1-.75.1,1.62,1.62,0,0,1-.83-.18,1,1,0,0,1-.41-.47,3.91,3.91,0,0,1-.12-1.22v-3.52h-.73v-.8h.73v-1.51l1-.62v2.13h1v.8h-1v3.56a1.62,1.62,0,0,0,.06.57.45.45,0,0,0,.16.2.66.66,0,0,0,.34.07A3.64,3.64,0,0,0,354.56,178.07Z"/><path class="cls-33" d="M355.56,171.74v-1.17h1v1.17Zm0,7.25v-6.1h1V179Z"/><path class="cls-33" d="M360.15,178.07l.14.91a3.7,3.7,0,0,1-.74.1,1.57,1.57,0,0,1-.83-.18,1,1,0,0,1-.42-.47,3.91,3.91,0,0,1-.12-1.22v-3.52h-.73v-.8h.73v-1.51l1-.62v2.13h1v.8h-1v3.56a2.05,2.05,0,0,0,.05.57.41.41,0,0,0,.17.2.62.62,0,0,0,.33.07A3.64,3.64,0,0,0,360.15,178.07Z"/><path class="cls-33" d="M361.16,181.34l-.14-1a2,2,0,0,0,.58.1,1,1,0,0,0,.54-.12,1,1,0,0,0,.34-.32,6.52,6.52,0,0,0,.31-.77l.09-.26-2.22-6.12h1l1.22,3.52c.16.45.3.92.43,1.41a13.38,13.38,0,0,1,.4-1.37l1.23-3.56h1l-2.17,6.21a13.08,13.08,0,0,1-.56,1.37,2.06,2.06,0,0,1-.61.75,1.42,1.42,0,0,1-.83.24A2,2,0,0,1,361.16,181.34Z"/><path class="cls-33" d="M346.92,210.47v-1h5.18v.8a11.15,11.15,0,0,0-1.52,2.27,14.8,14.8,0,0,0-1.16,2.92,11.39,11.39,0,0,0-.37,2.31h-1a10.58,10.58,0,0,1,.37-2.4,12.64,12.64,0,0,1,1-2.71,11.29,11.29,0,0,1,1.41-2.2Z"/><path class="cls-33" d="M353.07,215.58l1-.09a2,2,0,0,0,.52,1.18,1.39,1.39,0,0,0,1,.4,1.53,1.53,0,0,0,1.21-.56,2.2,2.2,0,0,0,.49-1.48,2,2,0,0,0-.46-1.39,1.76,1.76,0,0,0-2.09-.29,1.64,1.64,0,0,0-.59.58l-.92-.14.78-4.31h4v1h-3.18l-.43,2.27a2.52,2.52,0,0,1,1.5-.53,2.31,2.31,0,0,1,1.76.76,2.74,2.74,0,0,1,.72,2,3.18,3.18,0,0,1-.63,2,2.72,2.72,0,0,1-3.88.38A2.58,2.58,0,0,1,353.07,215.58Z"/><path class="cls-33" d="M359.45,211.4a2.64,2.64,0,0,1,.43-1.54,1.42,1.42,0,0,1,1.25-.63,1.57,1.57,0,0,1,1.24.57,3,3,0,0,1,0,3.3,1.57,1.57,0,0,1-1.23.58,1.51,1.51,0,0,1-1.21-.57A2.6,2.6,0,0,1,359.45,211.4Zm1.7-1.44a.73.73,0,0,0-.61.33,2.17,2.17,0,0,0-.24,1.21,2,2,0,0,0,.24,1.12.76.76,0,0,0,.61.32.75.75,0,0,0,.62-.32,2.06,2.06,0,0,0,.25-1.2,2,2,0,0,0-.25-1.13A.75.75,0,0,0,361.15,210Zm0,8.14,4.42-8.87h.82L362,218.1Zm3.51-2.28a2.64,2.64,0,0,1,.44-1.54,1.42,1.42,0,0,1,1.25-.62,1.56,1.56,0,0,1,1.24.56,2.46,2.46,0,0,1,.49,1.66,2.43,2.43,0,0,1-.5,1.65,1.56,1.56,0,0,1-1.23.57,1.51,1.51,0,0,1-1.2-.57A2.6,2.6,0,0,1,364.67,215.82Zm1.71-1.43a.72.72,0,0,0-.61.33,2.06,2.06,0,0,0-.25,1.2,1.87,1.87,0,0,0,.25,1.12.72.72,0,0,0,.61.33A.75.75,0,0,0,367,217a2.16,2.16,0,0,0,.24-1.2,1.94,1.94,0,0,0-.24-1.12A.73.73,0,0,0,366.38,214.39Z"/><path class="cls-38" d="M323.72,215.78v-8.41h1.08L329,214v-6.62h1v8.41H329l-4.24-6.61v6.61Z"/><path class="cls-39" d="M323.72,192.05v-8.41h1.08l4.24,6.62v-6.62h1v8.41H329l-4.24-6.61v6.61Z"/><path class="cls-33" d="M347,192.11l.94-.1a1.74,1.74,0,0,0,.46,1,1.2,1.2,0,0,0,.86.31,1.48,1.48,0,0,0,.79-.21,1.67,1.67,0,0,0,.56-.59,3.67,3.67,0,0,0,.36-1,5.86,5.86,0,0,0,.14-1.26v-.21a2.27,2.27,0,0,1-.8.8,2,2,0,0,1-1.1.31,2.17,2.17,0,0,1-1.66-.76,2.84,2.84,0,0,1-.68-2,2.93,2.93,0,0,1,.71-2.06,2.35,2.35,0,0,1,1.8-.78,2.42,2.42,0,0,1,1.42.45,2.69,2.69,0,0,1,1,1.25,6.33,6.33,0,0,1,.34,2.36,8.14,8.14,0,0,1-.33,2.57,3.12,3.12,0,0,1-1,1.45,2.49,2.49,0,0,1-1.54.5,2.21,2.21,0,0,1-1.53-.55A2.38,2.38,0,0,1,347,192.11Zm4-3.71a2.09,2.09,0,0,0-.44-1.41,1.34,1.34,0,0,0-1.08-.52,1.44,1.44,0,0,0-1.14.56,2.16,2.16,0,0,0-.48,1.46,1.83,1.83,0,0,0,.46,1.3,1.44,1.44,0,0,0,1.13.5,1.37,1.37,0,0,0,1.11-.5A2,2,0,0,0,351,188.4Z"/><path class="cls-33" d="M353.14,186.74v-1h5.18v.8a11.58,11.58,0,0,0-1.52,2.27,14.8,14.8,0,0,0-1.16,2.92,11.39,11.39,0,0,0-.37,2.31h-1a10.58,10.58,0,0,1,.37-2.4,13.42,13.42,0,0,1,1-2.71,12.68,12.68,0,0,1,1.41-2.2Z"/><path class="cls-33" d="M359.45,187.67a2.68,2.68,0,0,1,.43-1.54,1.42,1.42,0,0,1,1.25-.63,1.57,1.57,0,0,1,1.24.57,3,3,0,0,1,0,3.3,1.57,1.57,0,0,1-1.23.58,1.51,1.51,0,0,1-1.21-.57A2.6,2.6,0,0,1,359.45,187.67Zm1.7-1.43a.73.73,0,0,0-.61.33,2.13,2.13,0,0,0-.24,1.2,1.94,1.94,0,0,0,.24,1.12.75.75,0,0,0,.61.33.74.74,0,0,0,.62-.33,2.06,2.06,0,0,0,.25-1.2,1.92,1.92,0,0,0-.25-1.12A.73.73,0,0,0,361.15,186.24Zm0,8.13,4.42-8.87h.82L362,194.37Zm3.51-2.28a2.63,2.63,0,0,1,.44-1.53,1.41,1.41,0,0,1,1.25-.63,1.59,1.59,0,0,1,1.24.56,2.46,2.46,0,0,1,.49,1.66,2.41,2.41,0,0,1-.5,1.65,1.57,1.57,0,0,1-1.23.58,1.52,1.52,0,0,1-1.2-.58A2.6,2.6,0,0,1,364.67,192.09Zm1.71-1.43a.72.72,0,0,0-.61.33,2.06,2.06,0,0,0-.25,1.2,1.87,1.87,0,0,0,.25,1.12.72.72,0,0,0,.61.33.75.75,0,0,0,.62-.33,2.12,2.12,0,0,0,.24-1.19A2,2,0,0,0,367,191,.75.75,0,0,0,366.38,190.66Z"/><path class="cls-33" d="M323.72,203.92v-8.41h1.08l4.24,6.61v-6.61h1v8.41H329l-4.24-6.62v6.62Z"/><path class="cls-33" d="M347,204l.94-.1a1.74,1.74,0,0,0,.46,1,1.2,1.2,0,0,0,.86.31A1.48,1.48,0,0,0,350,205a1.73,1.73,0,0,0,.56-.58,3.76,3.76,0,0,0,.36-1,5.86,5.86,0,0,0,.14-1.26V202a2.27,2.27,0,0,1-.8.8,2,2,0,0,1-1.1.31,2.13,2.13,0,0,1-1.66-.76,2.83,2.83,0,0,1-.68-2,2.9,2.9,0,0,1,.71-2.06,2.35,2.35,0,0,1,1.8-.78,2.41,2.41,0,0,1,1.42.44,2.69,2.69,0,0,1,1,1.25,6.37,6.37,0,0,1,.34,2.36,8.1,8.1,0,0,1-.33,2.57,3.07,3.07,0,0,1-1,1.45,2.49,2.49,0,0,1-1.54.5,2.21,2.21,0,0,1-1.53-.55A2.35,2.35,0,0,1,347,204Zm4-3.71a2.09,2.09,0,0,0-.44-1.41,1.34,1.34,0,0,0-1.08-.52,1.47,1.47,0,0,0-1.14.56,2.18,2.18,0,0,0-.48,1.46,1.85,1.85,0,0,0,.46,1.31,1.47,1.47,0,0,0,1.13.5,1.4,1.4,0,0,0,1.11-.5A2,2,0,0,0,351,200.26Z"/><path class="cls-33" d="M353.07,201.77a7.93,7.93,0,0,1,.29-2.4,2.93,2.93,0,0,1,.87-1.4,2.19,2.19,0,0,1,1.46-.49,2.34,2.34,0,0,1,1.14.27,2.19,2.19,0,0,1,.81.79,4.4,4.4,0,0,1,.49,1.24,8.67,8.67,0,0,1,.19,2,7.87,7.87,0,0,1-.3,2.39,2.85,2.85,0,0,1-.87,1.4,2.15,2.15,0,0,1-1.46.49,2.2,2.2,0,0,1-1.83-.85A5.8,5.8,0,0,1,353.07,201.77Zm1,0a5.5,5.5,0,0,0,.46,2.76,1.31,1.31,0,0,0,2.3,0,5.43,5.43,0,0,0,.46-2.75,5.5,5.5,0,0,0-.46-2.76,1.37,1.37,0,0,0-1.16-.68,1.28,1.28,0,0,0-1.1.6A5.67,5.67,0,0,0,354.08,201.77Z"/><path class="cls-33" d="M359.45,199.53a2.62,2.62,0,0,1,.43-1.53,1.42,1.42,0,0,1,1.25-.63,1.56,1.56,0,0,1,1.24.56,2.46,2.46,0,0,1,.5,1.66,2.48,2.48,0,0,1-.5,1.65,1.59,1.59,0,0,1-1.23.57,1.53,1.53,0,0,1-1.21-.56A2.61,2.61,0,0,1,359.45,199.53Zm1.7-1.43a.73.73,0,0,0-.61.33,2.16,2.16,0,0,0-.24,1.2,1.94,1.94,0,0,0,.24,1.12.75.75,0,0,0,.61.33.74.74,0,0,0,.62-.33,2,2,0,0,0,.25-1.19,1.94,1.94,0,0,0-.25-1.13A.75.75,0,0,0,361.15,198.1Zm0,8.14,4.42-8.87h.82L362,206.24Zm3.51-2.29a2.63,2.63,0,0,1,.44-1.53,1.41,1.41,0,0,1,1.25-.63,1.57,1.57,0,0,1,1.24.57,2.44,2.44,0,0,1,.49,1.66,2.38,2.38,0,0,1-.5,1.64,1.54,1.54,0,0,1-1.23.58,1.51,1.51,0,0,1-1.2-.57A2.61,2.61,0,0,1,364.67,204Zm1.71-1.43a.72.72,0,0,0-.61.33,2.07,2.07,0,0,0-.25,1.21,1.87,1.87,0,0,0,.25,1.12.74.74,0,0,0,.61.32.77.77,0,0,0,.62-.32,2.16,2.16,0,0,0,.24-1.2,2,2,0,0,0-.24-1.13A.75.75,0,0,0,366.38,202.52Z"/><path class="cls-40" d="M295.37,43.39l1,.14a2.64,2.64,0,0,1-.8,1.63,2.28,2.28,0,0,1-1.59.59,2.41,2.41,0,0,1-1.91-.82,3.43,3.43,0,0,1-.71-2.34,4.57,4.57,0,0,1,.3-1.73,2.18,2.18,0,0,1,.95-1.11,2.63,2.63,0,0,1,1.37-.37,2.18,2.18,0,0,1,2.3,1.95l-1,.14a1.65,1.65,0,0,0-.48-.93,1.15,1.15,0,0,0-.82-.31,1.47,1.47,0,0,0-1.2.56,2.8,2.8,0,0,0-.45,1.77,2.88,2.88,0,0,0,.44,1.79,1.41,1.41,0,0,0,1.16.55,1.33,1.33,0,0,0,1-.37A1.94,1.94,0,0,0,295.37,43.39Z"/><path class="cls-40" d="M296.76,42.56a3.19,3.19,0,0,1,.9-2.5,2.57,2.57,0,0,1,1.82-.68,2.51,2.51,0,0,1,1.95.82,3.22,3.22,0,0,1,.76,2.28,4.28,4.28,0,0,1-.33,1.85,2.43,2.43,0,0,1-1,1.05,2.72,2.72,0,0,1-1.4.37,2.54,2.54,0,0,1-2-.82A3.4,3.4,0,0,1,296.76,42.56Zm1,0a2.68,2.68,0,0,0,.49,1.76,1.57,1.57,0,0,0,2.44,0,2.75,2.75,0,0,0,.49-1.79,2.65,2.65,0,0,0-.49-1.72,1.57,1.57,0,0,0-2.44,0A2.65,2.65,0,0,0,297.77,42.56Z"/><path class="cls-40" d="M304.86,45.61l-2.19-6.1h1.05L305,43.16c.14.4.26.81.38,1.23.08-.32.2-.7.36-1.16L307,39.51h1l-2.19,6.1Z"/><path class="cls-40" d="M312.51,44.86a3.9,3.9,0,0,1-1,.69,3.06,3.06,0,0,1-1.09.2,2.11,2.11,0,0,1-1.48-.49,1.68,1.68,0,0,1-.51-1.26,1.74,1.74,0,0,1,.19-.82,1.72,1.72,0,0,1,.51-.59,2.22,2.22,0,0,1,.71-.34,6,6,0,0,1,.88-.16,8.78,8.78,0,0,0,1.76-.35v-.27a1.18,1.18,0,0,0-.27-.89,1.6,1.6,0,0,0-1.13-.36,1.66,1.66,0,0,0-1,.26,1.63,1.63,0,0,0-.49.91l-1-.13a2.54,2.54,0,0,1,.43-1,1.91,1.91,0,0,1,.87-.62,3.83,3.83,0,0,1,1.33-.21,3.43,3.43,0,0,1,1.21.18,1.56,1.56,0,0,1,.68.46,1.65,1.65,0,0,1,.31.71,6.34,6.34,0,0,1,.05,1v1.38a16,16,0,0,0,.06,1.82,2.32,2.32,0,0,0,.24.73h-1A2.12,2.12,0,0,1,312.51,44.86Zm-.07-2.32a6.65,6.65,0,0,1-1.61.4,3.91,3.91,0,0,0-.86.2.87.87,0,0,0-.39.34.88.88,0,0,0-.14.5.9.9,0,0,0,.3.69,1.21,1.21,0,0,0,.87.28,2,2,0,0,0,1-.26,1.63,1.63,0,0,0,.66-.72,2.76,2.76,0,0,0,.16-1Z"/><path class="cls-40" d="M314.93,45.61v-6.1h.89v.94a2.45,2.45,0,0,1,.62-.86,1,1,0,0,1,.63-.21,1.83,1.83,0,0,1,1,.33l-.35.95a1.36,1.36,0,0,0-.71-.21.87.87,0,0,0-.57.21,1.12,1.12,0,0,0-.36.56,4.22,4.22,0,0,0-.16,1.21v3.18Z"/><path class="cls-40" d="M318.88,48l-.14-1a2.28,2.28,0,0,0,.58.09,1,1,0,0,0,.54-.12.87.87,0,0,0,.34-.32,6.52,6.52,0,0,0,.31-.77l.09-.25-2.22-6.13h1.05L320.65,43c.16.44.3.91.43,1.4a14,14,0,0,1,.4-1.36l1.23-3.57h1l-2.17,6.21A12.59,12.59,0,0,1,321,47.1a2.08,2.08,0,0,1-.62.75,1.37,1.37,0,0,1-.82.24A1.78,1.78,0,0,1,318.88,48Z"/><path class="cls-40" d="M324.56,38.37V37.2h1v1.17Zm0,7.24v-6.1h1v6.1Z"/><path class="cls-40" d="M327,45.61v-6.1h.9v.87a2,2,0,0,1,1.83-1,2.32,2.32,0,0,1,1,.19,1.58,1.58,0,0,1,.65.52,2.22,2.22,0,0,1,.31.77,7.18,7.18,0,0,1,.05,1v3.75h-1V41.9a3.07,3.07,0,0,0-.11-.94,1,1,0,0,0-.4-.5,1.18,1.18,0,0,0-.68-.19,1.5,1.5,0,0,0-1.06.42,2.11,2.11,0,0,0-.45,1.59v3.33Z"/><path class="cls-40" d="M333.05,46.12l1,.13a1,1,0,0,0,.33.7,1.6,1.6,0,0,0,1,.29,1.68,1.68,0,0,0,1-.29,1.41,1.41,0,0,0,.5-.81,7.39,7.39,0,0,0,.07-1.33,2,2,0,0,1-1.61.8,2.16,2.16,0,0,1-1.86-.91,3.56,3.56,0,0,1-.66-2.17,4.23,4.23,0,0,1,.3-1.61,2.48,2.48,0,0,1,.88-1.14,2.24,2.24,0,0,1,1.34-.4,2.05,2.05,0,0,1,1.7.89v-.76H338v5.28a5.3,5.3,0,0,1-.27,2,2,2,0,0,1-.88.94,2.84,2.84,0,0,1-1.46.35,2.67,2.67,0,0,1-1.68-.5A1.68,1.68,0,0,1,333.05,46.12Zm.8-3.67a2.71,2.71,0,0,0,.46,1.76,1.4,1.4,0,0,0,1.14.55,1.45,1.45,0,0,0,1.15-.54,2.73,2.73,0,0,0,.46-1.73,2.56,2.56,0,0,0-.48-1.69,1.43,1.43,0,0,0-1.14-.57,1.39,1.39,0,0,0-1.13.56A2.55,2.55,0,0,0,333.85,42.45Z"/><path class="cls-40" d="M342.56,45.61v-6.1h.87v.86a2.07,2.07,0,0,1,.72-.72,2,2,0,0,1,1-.27,1.78,1.78,0,0,1,1.05.28,1.53,1.53,0,0,1,.59.79,2.05,2.05,0,0,1,1.79-1.07,1.73,1.73,0,0,1,1.33.5,2.23,2.23,0,0,1,.47,1.55v4.18h-1V41.77a3.12,3.12,0,0,0-.09-.89.85.85,0,0,0-.35-.44,1,1,0,0,0-.59-.17,1.31,1.31,0,0,0-1,.43,1.93,1.93,0,0,0-.41,1.37v3.54h-1v-4a1.8,1.8,0,0,0-.24-1,.89.89,0,0,0-.78-.35,1.39,1.39,0,0,0-.77.23,1.34,1.34,0,0,0-.51.67,4.16,4.16,0,0,0-.16,1.28v3.16Z"/><path class="cls-40" d="M355.68,45.61v-.9a2.12,2.12,0,0,1-1.85,1,2.24,2.24,0,0,1-1-.21,1.68,1.68,0,0,1-.66-.52,2.07,2.07,0,0,1-.3-.77,5.44,5.44,0,0,1-.06-1V39.51h1v3.38A6,6,0,0,0,352.9,44a1.06,1.06,0,0,0,.39.64,1.19,1.19,0,0,0,.74.23,1.59,1.59,0,0,0,.82-.23,1.34,1.34,0,0,0,.55-.65,3.37,3.37,0,0,0,.16-1.19V39.51h1v6.1Z"/><path class="cls-40" d="M360.25,44.7l.13.91a3.46,3.46,0,0,1-.74.09,1.62,1.62,0,0,1-.83-.18.91.91,0,0,1-.41-.46,4,4,0,0,1-.12-1.23V40.32h-.74v-.8h.74V38l1-.62v2.13h1v.8h-1v3.56a1.59,1.59,0,0,0,.06.56.42.42,0,0,0,.16.21.75.75,0,0,0,.34.07Z"/><path class="cls-40" d="M365,44.86a3.61,3.61,0,0,1-1,.69,3.06,3.06,0,0,1-1.09.2,2.11,2.11,0,0,1-1.48-.49,1.68,1.68,0,0,1-.51-1.26,1.74,1.74,0,0,1,.19-.82,1.72,1.72,0,0,1,.51-.59,2.22,2.22,0,0,1,.71-.34,6,6,0,0,1,.88-.16,8.63,8.63,0,0,0,1.76-.35v-.27a1.18,1.18,0,0,0-.27-.89,1.59,1.59,0,0,0-1.12-.36,1.7,1.7,0,0,0-1,.26,1.63,1.63,0,0,0-.49.91l-1-.13a2.54,2.54,0,0,1,.43-1,1.91,1.91,0,0,1,.87-.62,3.91,3.91,0,0,1,1.33-.21,3.43,3.43,0,0,1,1.21.18,1.56,1.56,0,0,1,.68.46,1.65,1.65,0,0,1,.31.71,6.34,6.34,0,0,1,.05,1v1.38a16,16,0,0,0,.06,1.82,2.32,2.32,0,0,0,.24.73h-1A2.65,2.65,0,0,1,365,44.86Zm-.07-2.32a6.52,6.52,0,0,1-1.61.4,4.07,4.07,0,0,0-.86.2.87.87,0,0,0-.39.34,1,1,0,0,0-.14.5.9.9,0,0,0,.3.69,1.21,1.21,0,0,0,.87.28,2,2,0,0,0,1-.26,1.67,1.67,0,0,0,.65-.72,2.57,2.57,0,0,0,.16-1Z"/><path class="cls-40" d="M369.54,44.7l.14.91a3.53,3.53,0,0,1-.74.09,1.57,1.57,0,0,1-.83-.18.93.93,0,0,1-.42-.46,4,4,0,0,1-.12-1.23V40.32h-.73v-.8h.73V38l1-.62v2.13h1v.8h-1v3.56a2,2,0,0,0,.05.56.39.39,0,0,0,.17.21.75.75,0,0,0,.34.07Z"/><path class="cls-40" d="M370.54,38.37V37.2h1v1.17Zm0,7.24v-6.1h1v6.1Z"/><path class="cls-40" d="M372.61,42.56a3.19,3.19,0,0,1,.9-2.5,2.59,2.59,0,0,1,1.82-.68,2.54,2.54,0,0,1,2,.82,3.27,3.27,0,0,1,.76,2.28,4.13,4.13,0,0,1-.34,1.85,2.43,2.43,0,0,1-1,1.05,2.69,2.69,0,0,1-1.4.37,2.52,2.52,0,0,1-2-.82A3.41,3.41,0,0,1,372.61,42.56Zm1,0a2.68,2.68,0,0,0,.49,1.76,1.57,1.57,0,0,0,2.44,0,2.75,2.75,0,0,0,.49-1.79,2.59,2.59,0,0,0-.49-1.72,1.57,1.57,0,0,0-2.44,0A2.69,2.69,0,0,0,373.62,42.56Z"/><path class="cls-40" d="M379.2,45.61v-6.1h.9v.87a2,2,0,0,1,1.83-1,2.32,2.32,0,0,1,1,.19,1.58,1.58,0,0,1,.65.52,2,2,0,0,1,.31.77,7.18,7.18,0,0,1,0,1v3.75h-1V41.9a2.79,2.79,0,0,0-.11-.94,1,1,0,0,0-.4-.5,1.18,1.18,0,0,0-.68-.19,1.48,1.48,0,0,0-1.06.42,2.11,2.11,0,0,0-.45,1.59v3.33Z"/><path class="cls-40" d="M385.06,43.78l1-.14a1.47,1.47,0,0,0,.45.94,1.58,1.58,0,0,0,1,.32,1.49,1.49,0,0,0,1-.29.9.9,0,0,0,.32-.68.63.63,0,0,0-.3-.55,4.08,4.08,0,0,0-1-.35,8.35,8.35,0,0,1-1.48-.5,1.4,1.4,0,0,1-.63-.57,1.74,1.74,0,0,1,0-1.58,1.66,1.66,0,0,1,.48-.57,2.24,2.24,0,0,1,.62-.31,2.94,2.94,0,0,1,.84-.12,3.17,3.17,0,0,1,1.2.21,1.65,1.65,0,0,1,.75.56,2.17,2.17,0,0,1,.34,1l-1,.14a1.15,1.15,0,0,0-.38-.74,1.3,1.3,0,0,0-.88-.27,1.45,1.45,0,0,0-.95.24.67.67,0,0,0-.29.55.6.6,0,0,0,.12.36.86.86,0,0,0,.37.28l.86.26a12,12,0,0,1,1.45.48,1.44,1.44,0,0,1,.65.54,1.54,1.54,0,0,1,.24.88,1.83,1.83,0,0,1-.29,1,1.77,1.77,0,0,1-.82.7,2.8,2.8,0,0,1-1.22.25,2.58,2.58,0,0,1-1.71-.49A2.42,2.42,0,0,1,385.06,43.78Z"/><path class="cls-40" d="M268.27,34.62h-.92V26.21h1v3a1.92,1.92,0,0,1,1.59-.82,2.38,2.38,0,0,1,1,.23,2,2,0,0,1,.78.64,3.06,3.06,0,0,1,.49,1,4.13,4.13,0,0,1,.17,1.24,3.61,3.61,0,0,1-.74,2.42,2.25,2.25,0,0,1-1.77.85,1.82,1.82,0,0,1-1.61-.89v.76Zm0-3.1a3.32,3.32,0,0,0,.29,1.59,1.38,1.38,0,0,0,2.38.21,2.82,2.82,0,0,0,.47-1.76,2.83,2.83,0,0,0-.45-1.76,1.36,1.36,0,0,0-1.1-.57,1.42,1.42,0,0,0-1.12.59A2.69,2.69,0,0,0,268.24,31.52Z"/><path class="cls-40" d="M277.4,33.86a3.38,3.38,0,0,1-1,.69,2.82,2.82,0,0,1-1.09.21,2,2,0,0,1-1.47-.5,1.62,1.62,0,0,1-.52-1.25,1.74,1.74,0,0,1,.2-.82,1.55,1.55,0,0,1,.51-.59,2.12,2.12,0,0,1,.71-.34,5.52,5.52,0,0,1,.87-.16,9.53,9.53,0,0,0,1.77-.35v-.27a1.14,1.14,0,0,0-.28-.89,1.55,1.55,0,0,0-1.12-.36,1.66,1.66,0,0,0-1,.26,1.58,1.58,0,0,0-.49.91l-1-.13a2.3,2.3,0,0,1,.43-1.05,1.84,1.84,0,0,1,.87-.62,3.81,3.81,0,0,1,1.32-.21,3.39,3.39,0,0,1,1.21.18A1.67,1.67,0,0,1,278,29a1.78,1.78,0,0,1,.31.71,6.34,6.34,0,0,1,.05,1v1.38a16,16,0,0,0,.06,1.82,2.3,2.3,0,0,0,.23.73h-1A2.42,2.42,0,0,1,277.4,33.86Zm-.07-2.31a7.25,7.25,0,0,1-1.61.39,3.41,3.41,0,0,0-.87.21.91.91,0,0,0-.39.34.9.9,0,0,0-.13.49.89.89,0,0,0,.3.69,1.2,1.2,0,0,0,.87.28,2,2,0,0,0,1-.26,1.56,1.56,0,0,0,.65-.72,2.57,2.57,0,0,0,.16-1Z"/><path class="cls-40" d="M279.45,32.78l1-.14a1.61,1.61,0,0,0,2.5,1,.91.91,0,0,0,.32-.68.66.66,0,0,0-.29-.56,4.41,4.41,0,0,0-1-.35,8.87,8.87,0,0,1-1.48-.49,1.42,1.42,0,0,1-.63-.58,1.64,1.64,0,0,1-.21-.82,1.67,1.67,0,0,1,.18-.76,1.53,1.53,0,0,1,.47-.57,2,2,0,0,1,.63-.3,2.55,2.55,0,0,1,.84-.13,3.12,3.12,0,0,1,1.19.21,1.74,1.74,0,0,1,.76.56,2.36,2.36,0,0,1,.33,1l-1,.14a1.12,1.12,0,0,0-.37-.74,1.3,1.3,0,0,0-.88-.27,1.5,1.5,0,0,0-1,.24.69.69,0,0,0-.29.55.6.6,0,0,0,.12.36,1,1,0,0,0,.37.28l.86.26a13.29,13.29,0,0,1,1.45.48,1.61,1.61,0,0,1,.66.54,1.63,1.63,0,0,1,.23.89,1.79,1.79,0,0,1-.28,1,1.87,1.87,0,0,1-.83.71,2.94,2.94,0,0,1-1.21.25,2.58,2.58,0,0,1-1.71-.5A2.35,2.35,0,0,1,279.45,32.78Z"/><path class="cls-40" d="M289.43,32.65l1,.13a2.45,2.45,0,0,1-2.56,2,2.59,2.59,0,0,1-2-.83,3.31,3.31,0,0,1-.75-2.31,3.46,3.46,0,0,1,.76-2.39,2.51,2.51,0,0,1,2-.85,2.42,2.42,0,0,1,1.9.84,3.4,3.4,0,0,1,.74,2.35v.27H286.1a2.36,2.36,0,0,0,.54,1.54,1.66,1.66,0,0,0,1.24.53,1.51,1.51,0,0,0,.94-.3A2,2,0,0,0,289.43,32.65ZM286.12,31h3.32a2.1,2.1,0,0,0-.38-1.17,1.53,1.53,0,0,0-1.25-.6,1.59,1.59,0,0,0-1.17.48A1.9,1.9,0,0,0,286.12,31Z"/><path class="cls-40" d="M294.71,37V28.52h.9v.79a2.27,2.27,0,0,1,.72-.7,1.92,1.92,0,0,1,1-.23,2.22,2.22,0,0,1,1.32.41,2.43,2.43,0,0,1,.86,1.13,4.39,4.39,0,0,1,.29,1.61,4.3,4.3,0,0,1-.32,1.68,2.61,2.61,0,0,1-.93,1.15,2.38,2.38,0,0,1-1.28.4,1.86,1.86,0,0,1-.89-.22,2,2,0,0,1-.64-.55v3Zm.88-5.36a2.75,2.75,0,0,0,.45,1.74,1.39,1.39,0,0,0,1.11.57,1.42,1.42,0,0,0,1.13-.59,2.88,2.88,0,0,0,.47-1.81,2.86,2.86,0,0,0-.46-1.75,1.39,1.39,0,0,0-1.1-.58,1.43,1.43,0,0,0-1.12.62A2.9,2.9,0,0,0,295.59,31.6Z"/><path class="cls-40" d="M304.76,33.86a3.27,3.27,0,0,1-1.05.69,2.74,2.74,0,0,1-1.08.21,2.07,2.07,0,0,1-1.48-.5,1.64,1.64,0,0,1-.51-1.25,1.74,1.74,0,0,1,.19-.82,1.55,1.55,0,0,1,.51-.59,2.22,2.22,0,0,1,.71-.34,6,6,0,0,1,.88-.16,9.38,9.38,0,0,0,1.76-.35c0-.15,0-.24,0-.27a1.18,1.18,0,0,0-.28-.89,1.59,1.59,0,0,0-1.12-.36,1.7,1.7,0,0,0-1,.26,1.63,1.63,0,0,0-.49.91l-1-.13a2.54,2.54,0,0,1,.43-1.05,1.84,1.84,0,0,1,.87-.62,3.87,3.87,0,0,1,1.33-.21,3.43,3.43,0,0,1,1.21.18,1.56,1.56,0,0,1,.68.46,1.65,1.65,0,0,1,.31.71,6.34,6.34,0,0,1,.05,1v1.38a16,16,0,0,0,.06,1.82,2.32,2.32,0,0,0,.24.73h-1A2.18,2.18,0,0,1,304.76,33.86Zm-.06-2.31a7.36,7.36,0,0,1-1.62.39,3.42,3.42,0,0,0-.86.21.81.81,0,0,0-.39.34.91.91,0,0,0-.14.49.89.89,0,0,0,.3.69,1.22,1.22,0,0,0,.88.28,2,2,0,0,0,1-.26,1.56,1.56,0,0,0,.65-.72,2.76,2.76,0,0,0,.16-1Z"/><path class="cls-40" d="M307.23,27.37V26.21h1v1.16Zm0,7.25v-6.1h1v6.1Z"/><path class="cls-40" d="M309.67,34.62v-6.1h.89v.94a2.49,2.49,0,0,1,.62-.87,1,1,0,0,1,.62-.21,1.85,1.85,0,0,1,1,.34l-.35,1a1.36,1.36,0,0,0-.71-.21.92.92,0,0,0-.57.2,1.12,1.12,0,0,0-.36.57,4.2,4.2,0,0,0-.16,1.2v3.19Z"/><path class="cls-40" d="M320.3,33.86a3.24,3.24,0,0,1-1,.69,2.82,2.82,0,0,1-1.09.21,2.07,2.07,0,0,1-1.48-.5,1.64,1.64,0,0,1-.51-1.25,1.74,1.74,0,0,1,.19-.82,1.55,1.55,0,0,1,.51-.59,2.22,2.22,0,0,1,.71-.34,6,6,0,0,1,.88-.16,9.38,9.38,0,0,0,1.76-.35v-.27a1.18,1.18,0,0,0-.27-.89,1.57,1.57,0,0,0-1.12-.36,1.7,1.7,0,0,0-1,.26,1.57,1.57,0,0,0-.48.91l-1-.13a2.54,2.54,0,0,1,.43-1.05,1.83,1.83,0,0,1,.88-.62,3.73,3.73,0,0,1,1.32-.21,3.43,3.43,0,0,1,1.21.18,1.56,1.56,0,0,1,.68.46,1.65,1.65,0,0,1,.31.71,6.34,6.34,0,0,1,.05,1v1.38a16,16,0,0,0,.06,1.82,2.32,2.32,0,0,0,.24.73h-1A2.18,2.18,0,0,1,320.3,33.86Zm-.07-2.31a7.1,7.1,0,0,1-1.61.39,3.31,3.31,0,0,0-.86.21.81.81,0,0,0-.39.34.83.83,0,0,0-.14.49.89.89,0,0,0,.3.69,1.21,1.21,0,0,0,.87.28,2,2,0,0,0,1-.26,1.62,1.62,0,0,0,.65-.72,2.79,2.79,0,0,0,.15-1Z"/><path class="cls-40" d="M322.72,34.62v-6.1h.89v.87a2.06,2.06,0,0,1,1.84-1,2.32,2.32,0,0,1,1,.2,1.5,1.5,0,0,1,.65.52,2.15,2.15,0,0,1,.31.77,7.18,7.18,0,0,1,.05,1v3.75h-1V30.91a3.19,3.19,0,0,0-.11-.95,1.08,1.08,0,0,0-.4-.5,1.25,1.25,0,0,0-.68-.18,1.52,1.52,0,0,0-1.07.42,2.16,2.16,0,0,0-.44,1.59v3.33Z"/><path class="cls-40" d="M328.94,34.62v-6.1h.89v.87a2.06,2.06,0,0,1,1.84-1,2.32,2.32,0,0,1,1,.2,1.5,1.5,0,0,1,.65.52,2,2,0,0,1,.3.77,5.58,5.58,0,0,1,.06,1v3.75h-1V30.91a3.19,3.19,0,0,0-.11-.95,1.08,1.08,0,0,0-.4-.5,1.25,1.25,0,0,0-.68-.18,1.52,1.52,0,0,0-1.07.42,2.16,2.16,0,0,0-.44,1.59v3.33Z"/><path class="cls-40" d="M334.8,31.57a3.21,3.21,0,0,1,.89-2.51,2.63,2.63,0,0,1,1.82-.68,2.55,2.55,0,0,1,2,.83,3.27,3.27,0,0,1,.76,2.28,4.13,4.13,0,0,1-.34,1.85,2.35,2.35,0,0,1-1,1,2.7,2.7,0,0,1-1.4.38,2.54,2.54,0,0,1-2-.83A3.36,3.36,0,0,1,334.8,31.57Zm1,0a2.71,2.71,0,0,0,.49,1.75,1.56,1.56,0,0,0,2.44,0,2.73,2.73,0,0,0,.49-1.79,2.57,2.57,0,0,0-.49-1.71,1.53,1.53,0,0,0-1.22-.59,1.55,1.55,0,0,0-1.22.58A2.72,2.72,0,0,0,335.8,31.57Z"/><path class="cls-40" d="M343.54,33.7l.14.91a3.1,3.1,0,0,1-.75.1,1.62,1.62,0,0,1-.83-.18,1,1,0,0,1-.41-.47,3.87,3.87,0,0,1-.12-1.22V29.32h-.73v-.8h.73V27l1-.62v2.12h1v.8h-1v3.56a2.05,2.05,0,0,0,.05.57.37.37,0,0,0,.17.2.57.57,0,0,0,.33.08Z"/><path class="cls-40" d="M348.3,33.86a3.38,3.38,0,0,1-1.05.69,2.82,2.82,0,0,1-1.09.21,2,2,0,0,1-1.47-.5,1.62,1.62,0,0,1-.52-1.25,1.74,1.74,0,0,1,.2-.82,1.55,1.55,0,0,1,.51-.59,2.17,2.17,0,0,1,.7-.34,6,6,0,0,1,.88-.16,9.38,9.38,0,0,0,1.76-.35c0-.15,0-.24,0-.27a1.14,1.14,0,0,0-.28-.89,1.57,1.57,0,0,0-1.12-.36,1.66,1.66,0,0,0-1,.26,1.58,1.58,0,0,0-.49.91l-1-.13a2.42,2.42,0,0,1,.44-1.05,1.84,1.84,0,0,1,.87-.62,3.81,3.81,0,0,1,1.32-.21,3.39,3.39,0,0,1,1.21.18,1.67,1.67,0,0,1,.69.46,1.64,1.64,0,0,1,.3.71,5.2,5.2,0,0,1,0,1v1.38a16,16,0,0,0,.06,1.82,2.32,2.32,0,0,0,.24.73h-1A2.42,2.42,0,0,1,348.3,33.86Zm-.07-2.31a7.36,7.36,0,0,1-1.62.39,3.42,3.42,0,0,0-.86.21.81.81,0,0,0-.39.34.91.91,0,0,0-.14.49.89.89,0,0,0,.3.69,1.22,1.22,0,0,0,.88.28,2,2,0,0,0,1-.26,1.56,1.56,0,0,0,.65-.72,2.57,2.57,0,0,0,.16-1Z"/><path class="cls-40" d="M352.83,33.7l.14.91a3,3,0,0,1-.74.1,1.6,1.6,0,0,1-.83-.18,1,1,0,0,1-.42-.47,3.87,3.87,0,0,1-.12-1.22V29.32h-.73v-.8h.73V27l1-.62v2.12h1v.8h-1v3.56a2.05,2.05,0,0,0,0,.57.42.42,0,0,0,.17.2.63.63,0,0,0,.34.08Z"/><path class="cls-40" d="M353.83,27.37V26.21h1v1.16Zm0,7.25v-6.1h1v6.1Z"/><path class="cls-40" d="M355.91,31.57a3.21,3.21,0,0,1,.89-2.51,2.63,2.63,0,0,1,1.82-.68,2.55,2.55,0,0,1,2,.83,3.27,3.27,0,0,1,.76,2.28,4.13,4.13,0,0,1-.34,1.85,2.35,2.35,0,0,1-1,1,2.7,2.7,0,0,1-1.4.38,2.52,2.52,0,0,1-2-.83A3.36,3.36,0,0,1,355.91,31.57Zm1,0a2.71,2.71,0,0,0,.48,1.75,1.54,1.54,0,0,0,1.23.59,1.51,1.51,0,0,0,1.21-.59,2.73,2.73,0,0,0,.49-1.79,2.57,2.57,0,0,0-.49-1.71,1.53,1.53,0,0,0-1.21-.59,1.56,1.56,0,0,0-1.23.58A2.72,2.72,0,0,0,356.92,31.57Z"/><path class="cls-40" d="M362.49,34.62v-6.1h.9v.87a2,2,0,0,1,1.83-1,2.32,2.32,0,0,1,1,.2,1.5,1.5,0,0,1,.65.52,2,2,0,0,1,.31.77,7.18,7.18,0,0,1,.05,1v3.75h-1V30.91a2.89,2.89,0,0,0-.11-.95,1.08,1.08,0,0,0-.4-.5,1.24,1.24,0,0,0-.67-.18,1.5,1.5,0,0,0-1.07.42,2.11,2.11,0,0,0-.45,1.59v3.33h-1Z"/><path class="cls-40" d="M368.35,32.78l1-.14a1.47,1.47,0,0,0,.45.94,1.85,1.85,0,0,0,2.05,0,.91.91,0,0,0,.32-.68.64.64,0,0,0-.3-.56,4.08,4.08,0,0,0-1-.35,8.55,8.55,0,0,1-1.48-.49,1.42,1.42,0,0,1-.63-.58,1.64,1.64,0,0,1-.21-.82,1.8,1.8,0,0,1,.17-.76,1.66,1.66,0,0,1,.48-.57,2,2,0,0,1,.62-.3,2.61,2.61,0,0,1,.85-.13,3.16,3.16,0,0,1,1.19.21,1.65,1.65,0,0,1,.75.56,2.22,2.22,0,0,1,.34,1l-1,.14a1.09,1.09,0,0,0-.38-.74,1.3,1.3,0,0,0-.88-.27,1.47,1.47,0,0,0-.95.24.67.67,0,0,0-.29.55.6.6,0,0,0,.12.36.93.93,0,0,0,.37.28l.86.26a14.1,14.1,0,0,1,1.45.48,1.58,1.58,0,0,1,.65.54,1.55,1.55,0,0,1,.24.89,1.8,1.8,0,0,1-.29,1,1.85,1.85,0,0,1-.82.71,3,3,0,0,1-1.22.25,2.58,2.58,0,0,1-1.71-.5A2.39,2.39,0,0,1,368.35,32.78Z"/><path class="cls-40" d="M295.37,53.66l1,.13a2.67,2.67,0,0,1-.8,1.64,2.28,2.28,0,0,1-1.59.59A2.41,2.41,0,0,1,292,55.2a3.45,3.45,0,0,1-.71-2.34,4.57,4.57,0,0,1,.3-1.73,2.18,2.18,0,0,1,.95-1.11,2.63,2.63,0,0,1,1.37-.37,2.18,2.18,0,0,1,2.3,1.94l-1,.14a1.65,1.65,0,0,0-.48-.92,1.16,1.16,0,0,0-.82-.32,1.48,1.48,0,0,0-1.2.57,2.8,2.8,0,0,0-.45,1.77,2.88,2.88,0,0,0,.44,1.79,1.41,1.41,0,0,0,1.16.55,1.33,1.33,0,0,0,1-.37A1.94,1.94,0,0,0,295.37,53.66Z"/><path class="cls-40" d="M296.76,52.83a3.23,3.23,0,0,1,.9-2.51,2.61,2.61,0,0,1,1.82-.67,2.51,2.51,0,0,1,1.95.82,3.22,3.22,0,0,1,.76,2.28,4.28,4.28,0,0,1-.33,1.85,2.43,2.43,0,0,1-1,1,2.72,2.72,0,0,1-1.4.37,2.57,2.57,0,0,1-2-.82A3.4,3.4,0,0,1,296.76,52.83Zm1,0a2.68,2.68,0,0,0,.49,1.76,1.56,1.56,0,0,0,2.44,0,2.7,2.7,0,0,0,.49-1.78,2.65,2.65,0,0,0-.49-1.72,1.57,1.57,0,0,0-2.44,0A2.63,2.63,0,0,0,297.77,52.83Z"/><path class="cls-40" d="M303.35,55.88v-6.1h.88v.86a2.07,2.07,0,0,1,.72-.72,2,2,0,0,1,1-.27,1.82,1.82,0,0,1,1.06.28,1.44,1.44,0,0,1,.58.78,2.07,2.07,0,0,1,1.8-1.06,1.7,1.7,0,0,1,1.33.5,2.2,2.2,0,0,1,.47,1.54v4.19h-1V52a3.16,3.16,0,0,0-.09-.9.86.86,0,0,0-.35-.43,1,1,0,0,0-.59-.17,1.33,1.33,0,0,0-1,.43,2,2,0,0,0-.4,1.37v3.54h-1v-4a1.89,1.89,0,0,0-.23-1,.9.9,0,0,0-.79-.35,1.38,1.38,0,0,0-.76.23,1.24,1.24,0,0,0-.51.67,3.87,3.87,0,0,0-.16,1.28v3.16Z"/><path class="cls-40" d="M312.65,58.22V49.78h.89v.79a2.14,2.14,0,0,1,.72-.69,1.8,1.8,0,0,1,1-.23,2.22,2.22,0,0,1,1.32.4,2.37,2.37,0,0,1,.86,1.13,4.39,4.39,0,0,1,.29,1.61,4.3,4.3,0,0,1-.32,1.68,2.55,2.55,0,0,1-.93,1.15,2.35,2.35,0,0,1-1.28.4,1.86,1.86,0,0,1-.89-.22,2.14,2.14,0,0,1-.64-.55v3Zm.87-5.36a2.8,2.8,0,0,0,.45,1.75,1.39,1.39,0,0,0,2.24,0,2.84,2.84,0,0,0,.47-1.81,2.77,2.77,0,0,0-.46-1.75,1.35,1.35,0,0,0-1.1-.58,1.41,1.41,0,0,0-1.12.61A2.92,2.92,0,0,0,313.52,52.86Z"/><path class="cls-40" d="M322.69,55.12a3.72,3.72,0,0,1-1,.7,3,3,0,0,1-1.09.2,2.07,2.07,0,0,1-1.48-.5,1.64,1.64,0,0,1-.51-1.25,1.74,1.74,0,0,1,.19-.82,1.63,1.63,0,0,1,.51-.59,2.22,2.22,0,0,1,.71-.34,5.7,5.7,0,0,1,.88-.16,9.38,9.38,0,0,0,1.76-.35v-.27a1.23,1.23,0,0,0-.27-.9,1.63,1.63,0,0,0-1.12-.35,1.67,1.67,0,0,0-1,.26,1.6,1.6,0,0,0-.49.91l-1-.14a2.66,2.66,0,0,1,.43-1.05,2,2,0,0,1,.87-.61,3.87,3.87,0,0,1,1.33-.21,3.43,3.43,0,0,1,1.21.18,1.48,1.48,0,0,1,.68.46,1.66,1.66,0,0,1,.31.7,6.6,6.6,0,0,1,.05,1v1.38a16,16,0,0,0,.06,1.82,2.32,2.32,0,0,0,.24.73h-1A2.42,2.42,0,0,1,322.69,55.12Zm-.06-2.31a6.83,6.83,0,0,1-1.62.39,3.42,3.42,0,0,0-.86.21.87.87,0,0,0-.39.34,1,1,0,0,0,.16,1.19,1.26,1.26,0,0,0,.87.28,2,2,0,0,0,1-.26,1.67,1.67,0,0,0,.65-.72,2.82,2.82,0,0,0,.16-1.05Z"/><path class="cls-40" d="M327.23,55l.14.91a3.46,3.46,0,0,1-.74.09,1.57,1.57,0,0,1-.83-.18,1,1,0,0,1-.42-.46,4,4,0,0,1-.12-1.23V50.59h-.73v-.81h.73v-1.5l1-.62v2.12h1v.81h-1v3.55a2.05,2.05,0,0,0,.05.57.37.37,0,0,0,.17.2.63.63,0,0,0,.34.08Z"/><path class="cls-40" d="M328.23,48.64V47.47h1v1.17Zm0,7.24v-6.1h1v6.1Z"/><path class="cls-40" d="M331.57,55.88h-.92V47.47h1v3a1.92,1.92,0,0,1,1.6-.82,2.36,2.36,0,0,1,1,.22,2.15,2.15,0,0,1,.79.64,2.86,2.86,0,0,1,.48,1,4.18,4.18,0,0,1,.18,1.24,3.61,3.61,0,0,1-.74,2.42,2.26,2.26,0,0,1-1.77.86,1.85,1.85,0,0,1-1.62-.9v.76Zm0-3.09a3.25,3.25,0,0,0,.29,1.58,1.38,1.38,0,0,0,2.38.21,2.79,2.79,0,0,0,.47-1.75,2.84,2.84,0,0,0-.45-1.77,1.39,1.39,0,0,0-1.1-.57,1.42,1.42,0,0,0-1.12.59A2.72,2.72,0,0,0,331.54,52.79Z"/><path class="cls-40" d="M336.87,55.88V47.47h1v8.41Z"/><path class="cls-40" d="M343.4,53.91l1,.14a2.63,2.63,0,0,1-.89,1.45,2.58,2.58,0,0,1-1.67.52,2.62,2.62,0,0,1-2-.83,3.34,3.34,0,0,1-.74-2.31,3.42,3.42,0,0,1,.76-2.38,2.47,2.47,0,0,1,2-.85,2.44,2.44,0,0,1,1.9.83,3.45,3.45,0,0,1,.74,2.35v.28h-4.35a2.35,2.35,0,0,0,.55,1.53,1.63,1.63,0,0,0,1.23.53,1.51,1.51,0,0,0,.94-.3A2,2,0,0,0,343.4,53.91Zm-3.31-1.65h3.32A2,2,0,0,0,343,51.1a1.54,1.54,0,0,0-1.25-.61,1.6,1.6,0,0,0-1.17.49A1.9,1.9,0,0,0,340.09,52.26Z"/><path class="cls-40" d="M348.71,55.88v-6.1h.87v.86a2.1,2.1,0,0,1,.73-.72,2,2,0,0,1,1-.27,1.84,1.84,0,0,1,1.06.28,1.49,1.49,0,0,1,.58.78,2.07,2.07,0,0,1,1.8-1.06,1.7,1.7,0,0,1,1.33.5,2.2,2.2,0,0,1,.46,1.54v4.19h-1V52a2.76,2.76,0,0,0-.1-.9.84.84,0,0,0-.34-.43,1,1,0,0,0-.59-.17,1.33,1.33,0,0,0-1,.43,1.93,1.93,0,0,0-.4,1.37v3.54h-1v-4a1.8,1.8,0,0,0-.24-1,.89.89,0,0,0-.78-.35,1.36,1.36,0,0,0-.76.23,1.28,1.28,0,0,0-.51.67,3.87,3.87,0,0,0-.16,1.28v3.16Z"/><path class="cls-40" d="M361.83,55.88V55A2.11,2.11,0,0,1,360,56a2.18,2.18,0,0,1-1-.21,1.55,1.55,0,0,1-.66-.52,1.92,1.92,0,0,1-.31-.77,5.44,5.44,0,0,1-.06-1V49.78h1v3.38a6.34,6.34,0,0,0,.06,1.09,1.09,1.09,0,0,0,.39.64,1.21,1.21,0,0,0,.74.23,1.57,1.57,0,0,0,.83-.24,1.29,1.29,0,0,0,.54-.64,3.4,3.4,0,0,0,.17-1.2V49.78h1v6.1Z"/><path class="cls-40" d="M366.4,55l.14.91a3.62,3.62,0,0,1-.75.09,1.56,1.56,0,0,1-.82-.18,1,1,0,0,1-.42-.46,4,4,0,0,1-.12-1.23V50.59h-.73v-.81h.73v-1.5l1-.62v2.12h1v.81h-1v3.55a2.05,2.05,0,0,0,.05.57.37.37,0,0,0,.17.2A.59.59,0,0,0,366,55Z"/><path class="cls-40" d="M371.16,55.12a3.62,3.62,0,0,1-1.05.7A3,3,0,0,1,369,56a2,2,0,0,1-1.47-.5,1.65,1.65,0,0,1-.52-1.25,1.74,1.74,0,0,1,.2-.82,1.63,1.63,0,0,1,.51-.59,2.12,2.12,0,0,1,.71-.34,5.47,5.47,0,0,1,.88-.16,9.24,9.24,0,0,0,1.75-.35c0-.15,0-.24,0-.27a1.18,1.18,0,0,0-.28-.9,1.6,1.6,0,0,0-1.12-.35,1.66,1.66,0,0,0-1,.26,1.54,1.54,0,0,0-.49.91l-1-.14a2.53,2.53,0,0,1,.44-1.05,1.9,1.9,0,0,1,.87-.61,3.81,3.81,0,0,1,1.32-.21,3.39,3.39,0,0,1,1.21.18,1.58,1.58,0,0,1,.69.46,1.65,1.65,0,0,1,.3.7,5.14,5.14,0,0,1,.06,1v1.38a13.8,13.8,0,0,0,.06,1.82,2.08,2.08,0,0,0,.23.73h-1A2.42,2.42,0,0,1,371.16,55.12Zm-.07-2.31a6.85,6.85,0,0,1-1.61.39,3.2,3.2,0,0,0-.86.21,1,1,0,0,0-.4.34.93.93,0,0,0-.14.49.9.9,0,0,0,.31.7,1.24,1.24,0,0,0,.87.28,2,2,0,0,0,1-.26,1.56,1.56,0,0,0,.65-.72,2.62,2.62,0,0,0,.16-1.05Z"/><path class="cls-40" d="M375.7,55l.13.91a3.46,3.46,0,0,1-.74.09,1.6,1.6,0,0,1-.83-.18,1,1,0,0,1-.41-.46,4,4,0,0,1-.12-1.23V50.59H373v-.81h.74v-1.5l1-.62v2.12h1v.81h-1v3.55a2.05,2.05,0,0,0,.05.57.48.48,0,0,0,.17.2.63.63,0,0,0,.34.08Z"/><path class="cls-40" d="M376.7,48.64V47.47h1v1.17Zm0,7.24v-6.1h1v6.1Z"/><path class="cls-40" d="M378.77,52.83a3.27,3.27,0,0,1,.89-2.51,2.63,2.63,0,0,1,1.83-.67,2.54,2.54,0,0,1,1.95.82,3.22,3.22,0,0,1,.76,2.28,4.13,4.13,0,0,1-.34,1.85,2.46,2.46,0,0,1-1,1,2.74,2.74,0,0,1-1.4.37,2.56,2.56,0,0,1-2-.82A3.4,3.4,0,0,1,378.77,52.83Zm1,0a2.74,2.74,0,0,0,.48,1.76,1.54,1.54,0,0,0,1.23.58,1.5,1.5,0,0,0,1.22-.59,2.76,2.76,0,0,0,.48-1.78,2.59,2.59,0,0,0-.49-1.72,1.5,1.5,0,0,0-1.21-.58,1.54,1.54,0,0,0-1.23.58A2.69,2.69,0,0,0,379.78,52.83Z"/><path class="cls-40" d="M385.36,55.88v-6.1h.89v.87a2,2,0,0,1,1.83-1,2.32,2.32,0,0,1,1,.2,1.6,1.6,0,0,1,.66.52,2.21,2.21,0,0,1,.3.77,6.75,6.75,0,0,1,.06,1v3.75h-1V52.17a2.84,2.84,0,0,0-.12-1,1,1,0,0,0-.4-.49,1.15,1.15,0,0,0-.67-.19,1.5,1.5,0,0,0-1.07.42,2.16,2.16,0,0,0-.45,1.59v3.33Z"/><path class="cls-40" d="M391.21,54.05l1-.14a1.45,1.45,0,0,0,.46.93,1.84,1.84,0,0,0,2,0,.9.9,0,0,0,.32-.68.62.62,0,0,0-.29-.55,3.83,3.83,0,0,0-1-.35,8.53,8.53,0,0,1-1.49-.5,1.54,1.54,0,0,1-.63-.58,1.64,1.64,0,0,1-.21-.82,1.61,1.61,0,0,1,.66-1.33,1.79,1.79,0,0,1,.62-.3,2.84,2.84,0,0,1,.84-.12,3.12,3.12,0,0,1,1.19.21,1.6,1.6,0,0,1,.76.56,2.25,2.25,0,0,1,.33.95l-1,.13a1.13,1.13,0,0,0-.38-.74,1.35,1.35,0,0,0-.87-.26,1.57,1.57,0,0,0-1,.23.71.71,0,0,0-.29.55.61.61,0,0,0,.12.37.83.83,0,0,0,.37.27l.86.27a10.4,10.4,0,0,1,1.45.48,1.39,1.39,0,0,1,.65.54,1.54,1.54,0,0,1,.24.88,1.85,1.85,0,0,1-1.11,1.68,2.79,2.79,0,0,1-1.21.25,2.56,2.56,0,0,1-1.72-.5A2.36,2.36,0,0,1,391.21,54.05Z"/><path class="cls-40" d="M291.59,66.15v-6.1h.9v.87a2,2,0,0,1,1.83-1,2.32,2.32,0,0,1,1,.2,1.5,1.5,0,0,1,.65.52,2,2,0,0,1,.31.76,7.35,7.35,0,0,1,.05,1v3.75h-1V62.44a3.19,3.19,0,0,0-.11-.95,1,1,0,0,0-.4-.5,1.25,1.25,0,0,0-.68-.18,1.48,1.48,0,0,0-1.06.42,2.11,2.11,0,0,0-.45,1.59v3.33Z"/><path class="cls-40" d="M297.45,63.1a3.27,3.27,0,0,1,.89-2.51,2.64,2.64,0,0,1,1.83-.68,2.53,2.53,0,0,1,1.95.83,3.22,3.22,0,0,1,.76,2.28,4.13,4.13,0,0,1-.34,1.85,2.44,2.44,0,0,1-1,1,2.75,2.75,0,0,1-1.4.38,2.56,2.56,0,0,1-2-.82A3.4,3.4,0,0,1,297.45,63.1Zm1,0a2.69,2.69,0,0,0,.49,1.75,1.56,1.56,0,0,0,2.44,0,2.73,2.73,0,0,0,.49-1.79,2.57,2.57,0,0,0-.49-1.71,1.53,1.53,0,0,0-1.21-.59,1.54,1.54,0,0,0-1.23.58A2.74,2.74,0,0,0,298.45,63.1Z"/><path class="cls-40" d="M307.15,66.15v-6.1H308v.86a2.07,2.07,0,0,1,.72-.72,2,2,0,0,1,1-.27,1.78,1.78,0,0,1,1.05.28,1.5,1.5,0,0,1,.59.78,2.05,2.05,0,0,1,1.79-1.06,1.7,1.7,0,0,1,1.33.5A2.21,2.21,0,0,1,315,62v4.18h-1V62.31a3.21,3.21,0,0,0-.09-.9.93.93,0,0,0-.35-.44,1.07,1.07,0,0,0-.59-.16,1.31,1.31,0,0,0-1,.43,1.93,1.93,0,0,0-.41,1.37v3.54h-1v-4a1.84,1.84,0,0,0-.24-1,.89.89,0,0,0-.79-.34,1.38,1.38,0,0,0-.76.23,1.29,1.29,0,0,0-.51.67,3.87,3.87,0,0,0-.16,1.28v3.16Z"/><path class="cls-40" d="M320.27,66.15v-.9a2.11,2.11,0,0,1-1.85,1,2.23,2.23,0,0,1-1-.2,1.68,1.68,0,0,1-.66-.52,2.14,2.14,0,0,1-.3-.77,5.49,5.49,0,0,1-.06-1V60.05h1v3.38a7.62,7.62,0,0,0,.06,1.09,1.16,1.16,0,0,0,.4.64,1.21,1.21,0,0,0,.74.23,1.51,1.51,0,0,0,.82-.24,1.29,1.29,0,0,0,.55-.65,3.33,3.33,0,0,0,.16-1.19V60.05h1v6.09h-.87Z"/><path class="cls-40" d="M324.84,65.23l.13.92a3.46,3.46,0,0,1-.74.09,1.62,1.62,0,0,1-.83-.18,1,1,0,0,1-.41-.47,3.87,3.87,0,0,1-.12-1.22V60.85h-.73v-.8h.73V58.54l1-.61v2.12h1v.8h-1v3.56a1.75,1.75,0,0,0,.05.57.45.45,0,0,0,.16.2.64.64,0,0,0,.34.07A3.64,3.64,0,0,0,324.84,65.23Z"/><path class="cls-40" d="M329.59,65.39a3.24,3.24,0,0,1-1,.69,2.82,2.82,0,0,1-1.09.21,2,2,0,0,1-1.47-.5,1.62,1.62,0,0,1-.52-1.25,1.74,1.74,0,0,1,.19-.82,1.76,1.76,0,0,1,.51-.6,2.3,2.3,0,0,1,.71-.33,6,6,0,0,1,.88-.16,8.5,8.5,0,0,0,1.76-.36c0-.14,0-.23,0-.26a1.23,1.23,0,0,0-.28-.9,1.62,1.62,0,0,0-1.12-.35,1.7,1.7,0,0,0-1,.26,1.54,1.54,0,0,0-.48.91l-1-.14a2.66,2.66,0,0,1,.43-1,2,2,0,0,1,.87-.61,3.86,3.86,0,0,1,1.33-.22,3.41,3.41,0,0,1,1.21.19,1.58,1.58,0,0,1,.69.46,1.79,1.79,0,0,1,.3.7,6.6,6.6,0,0,1,.05,1V63.6a16,16,0,0,0,.06,1.82,2.41,2.41,0,0,0,.24.73h-1A2.18,2.18,0,0,1,329.59,65.39Zm-.06-2.31a7.36,7.36,0,0,1-1.62.39,3.42,3.42,0,0,0-.86.21.87.87,0,0,0-.39.34,1,1,0,0,0,.16,1.19,1.27,1.27,0,0,0,.88.27,1.9,1.9,0,0,0,1-.26,1.57,1.57,0,0,0,.65-.72,2.72,2.72,0,0,0,.16-1Z"/><path class="cls-40" d="M334.13,65.23l.14.92a3.53,3.53,0,0,1-.74.09,1.57,1.57,0,0,1-.83-.18,1,1,0,0,1-.42-.47,3.87,3.87,0,0,1-.12-1.22V60.85h-.73v-.8h.73V58.54l1-.61v2.12h1v.8h-1v3.56a2.11,2.11,0,0,0,.05.57.41.41,0,0,0,.17.2.6.6,0,0,0,.33.07A3.64,3.64,0,0,0,334.13,65.23Z"/><path class="cls-40" d="M335.13,58.91V57.74h1v1.17Zm0,7.24v-6.1h1v6.1Z"/><path class="cls-40" d="M337.2,63.1a3.23,3.23,0,0,1,.9-2.51,2.62,2.62,0,0,1,1.82-.68,2.55,2.55,0,0,1,2,.83,3.26,3.26,0,0,1,.75,2.28,4.28,4.28,0,0,1-.33,1.85,2.4,2.4,0,0,1-1,1,2.7,2.7,0,0,1-1.4.38,2.53,2.53,0,0,1-2-.82A3.41,3.41,0,0,1,337.2,63.1Zm1,0a2.69,2.69,0,0,0,.49,1.75,1.56,1.56,0,0,0,2.44,0,2.73,2.73,0,0,0,.49-1.79,2.57,2.57,0,0,0-.49-1.71,1.53,1.53,0,0,0-1.22-.59,1.55,1.55,0,0,0-1.22.58A2.74,2.74,0,0,0,338.21,63.1Z"/><path class="cls-40" d="M343.79,66.15v-6.1h.89v.87a2.06,2.06,0,0,1,1.84-1,2.36,2.36,0,0,1,1,.2,1.5,1.5,0,0,1,.65.52,2,2,0,0,1,.31.76,7.35,7.35,0,0,1,.05,1v3.75h-1V62.44a2.89,2.89,0,0,0-.11-.95,1,1,0,0,0-.4-.5,1.25,1.25,0,0,0-.68-.18,1.52,1.52,0,0,0-1.07.42,2.16,2.16,0,0,0-.44,1.59v3.33Z"/><path class="cls-40" d="M349.65,64.31l1-.13a1.47,1.47,0,0,0,.45.93,1.51,1.51,0,0,0,1,.33,1.49,1.49,0,0,0,1-.29.89.89,0,0,0,.33-.68.64.64,0,0,0-.3-.56,4.08,4.08,0,0,0-1-.35,8.55,8.55,0,0,1-1.48-.49,1.48,1.48,0,0,1-.63-.58,1.64,1.64,0,0,1-.21-.82,1.59,1.59,0,0,1,.17-.75,1.61,1.61,0,0,1,.48-.58,1.89,1.89,0,0,1,.62-.3,2.57,2.57,0,0,1,.85-.13,3.07,3.07,0,0,1,1.18.21,1.63,1.63,0,0,1,.76.56,2.22,2.22,0,0,1,.34,1l-1,.14a1.15,1.15,0,0,0-.38-.74,1.3,1.3,0,0,0-.88-.27,1.52,1.52,0,0,0-1,.24.7.7,0,0,0-.28.55.56.56,0,0,0,.12.36.84.84,0,0,0,.37.28l.86.26a14.1,14.1,0,0,1,1.45.48,1.64,1.64,0,0,1,.65.54,1.58,1.58,0,0,1,.24.89,1.8,1.8,0,0,1-.29,1,1.85,1.85,0,0,1-.82.71,3,3,0,0,1-1.22.25,2.6,2.6,0,0,1-1.71-.5A2.27,2.27,0,0,1,349.65,64.31Z"/><path class="cls-40" d="M291.23,76.52a3.23,3.23,0,0,1,.89-2.5,2.58,2.58,0,0,1,1.83-.68,2.54,2.54,0,0,1,1.95.82,3.27,3.27,0,0,1,.76,2.28,4.24,4.24,0,0,1-.34,1.85,2.46,2.46,0,0,1-1,1,2.74,2.74,0,0,1-1.4.37,2.52,2.52,0,0,1-2-.82A3.36,3.36,0,0,1,291.23,76.52Zm1,0a2.74,2.74,0,0,0,.49,1.76,1.57,1.57,0,0,0,2.44,0,2.75,2.75,0,0,0,.49-1.79,2.59,2.59,0,0,0-.49-1.72,1.57,1.57,0,0,0-2.44,0A2.69,2.69,0,0,0,292.23,76.52Z"/><path class="cls-40" d="M298.71,79.57h-.92V71.16h1v3a1.89,1.89,0,0,1,1.59-.82,2.24,2.24,0,0,1,1,.23,2.09,2.09,0,0,1,.78.63,3.27,3.27,0,0,1,.49,1,4.18,4.18,0,0,1,.17,1.24,3.54,3.54,0,0,1-.74,2.42,2.23,2.23,0,0,1-1.77.86,1.82,1.82,0,0,1-1.61-.9v.76Zm0-3.09a3.25,3.25,0,0,0,.29,1.58,1.4,1.4,0,0,0,1.26.8,1.38,1.38,0,0,0,1.12-.59,2.73,2.73,0,0,0,.47-1.75,2.79,2.79,0,0,0-.45-1.76,1.36,1.36,0,0,0-1.1-.57,1.41,1.41,0,0,0-1.12.58A2.74,2.74,0,0,0,298.68,76.48Z"/><path class="cls-40" d="M303.67,77.74l1-.14a1.47,1.47,0,0,0,.45.94,1.58,1.58,0,0,0,1,.32,1.49,1.49,0,0,0,1-.29.88.88,0,0,0,.33-.68.64.64,0,0,0-.29-.55,4.41,4.41,0,0,0-1-.35,8.35,8.35,0,0,1-1.48-.5,1.42,1.42,0,0,1-.63-.58,1.6,1.6,0,0,1-.21-.81,1.73,1.73,0,0,1,.17-.76,1.8,1.8,0,0,1,.48-.58,1.89,1.89,0,0,1,.62-.3,3,3,0,0,1,.85-.12,3.16,3.16,0,0,1,1.19.21,1.58,1.58,0,0,1,.75.56,2.17,2.17,0,0,1,.34,1l-1,.14a1.15,1.15,0,0,0-.38-.74,1.3,1.3,0,0,0-.88-.27,1.49,1.49,0,0,0-.95.24.67.67,0,0,0-.29.55.6.6,0,0,0,.12.36.93.93,0,0,0,.37.28l.86.26a10.4,10.4,0,0,1,1.45.48,1.44,1.44,0,0,1,.65.54,1.55,1.55,0,0,1,.24.89,1.85,1.85,0,0,1-1.11,1.67,2.8,2.8,0,0,1-1.22.25,2.58,2.58,0,0,1-1.71-.49A2.42,2.42,0,0,1,303.67,77.74Z"/><path class="cls-40" d="M313.65,77.6l1,.14a2.74,2.74,0,0,1-4.59,1.15,3.37,3.37,0,0,1-.74-2.32,3.47,3.47,0,0,1,.75-2.38,2.5,2.5,0,0,1,2-.85,2.45,2.45,0,0,1,1.91.83,3.45,3.45,0,0,1,.74,2.35c0,.06,0,.16,0,.28h-4.35a2.42,2.42,0,0,0,.55,1.53,1.6,1.6,0,0,0,1.24.53,1.53,1.53,0,0,0,.94-.3A2,2,0,0,0,313.65,77.6ZM310.34,76h3.32a2.09,2.09,0,0,0-.38-1.16,1.53,1.53,0,0,0-1.25-.6,1.59,1.59,0,0,0-1.17.48A1.85,1.85,0,0,0,310.34,76Z"/><path class="cls-40" d="M315.85,79.57V73.48h.89v.93a2.43,2.43,0,0,1,.62-.86,1,1,0,0,1,.63-.21,1.83,1.83,0,0,1,1,.33l-.35,1a1.36,1.36,0,0,0-.71-.21.87.87,0,0,0-.57.21,1.05,1.05,0,0,0-.36.56,4.22,4.22,0,0,0-.16,1.21v3.18Z"/><path class="cls-40" d="M321.45,79.57l-2.19-6.09h1.05l1.24,3.65c.14.39.26.8.38,1.23.09-.33.21-.71.36-1.16l1.3-3.72h1l-2.19,6.09Z"/><path class="cls-40" d="M329.36,77.6l1,.14a2.64,2.64,0,0,1-.9,1.45,2.56,2.56,0,0,1-1.66.52,2.64,2.64,0,0,1-2-.82,3.37,3.37,0,0,1-.74-2.32,3.47,3.47,0,0,1,.75-2.38,2.49,2.49,0,0,1,2-.85,2.46,2.46,0,0,1,1.91.83,3.45,3.45,0,0,1,.74,2.35c0,.06,0,.16,0,.28H326a2.36,2.36,0,0,0,.55,1.53,1.59,1.59,0,0,0,1.23.53,1.49,1.49,0,0,0,.94-.3A2,2,0,0,0,329.36,77.6ZM326.05,76h3.32a2.09,2.09,0,0,0-.38-1.16,1.53,1.53,0,0,0-1.25-.6,1.59,1.59,0,0,0-1.17.48A1.85,1.85,0,0,0,326.05,76Z"/><path class="cls-40" d="M335.32,79.57V78.8a1.79,1.79,0,0,1-1.63.91,2.2,2.2,0,0,1-1.28-.4,2.58,2.58,0,0,1-.9-1.12,4.16,4.16,0,0,1-.32-1.66,4.63,4.63,0,0,1,.29-1.66,2.4,2.4,0,0,1,.87-1.14,2.29,2.29,0,0,1,1.3-.39,1.78,1.78,0,0,1,.93.23,1.94,1.94,0,0,1,.67.6v-3h1v8.41Zm-3.12-3a2.77,2.77,0,0,0,.47,1.75,1.39,1.39,0,0,0,1.12.58,1.35,1.35,0,0,0,1.09-.55,2.6,2.6,0,0,0,.46-1.69,3.07,3.07,0,0,0-.46-1.85,1.4,1.4,0,0,0-1.14-.58,1.35,1.35,0,0,0-1.1.56A2.93,2.93,0,0,0,332.2,76.53Z"/><rect class="cls-41" x="280.1" y="62.2" width="5.69" height="5.93"/><rect class="cls-42" x="280.1" y="41.6" width="5.93" height="5.69"/><rect class="cls-43" x="280.1" y="51.96" width="5.93" height="5.69"/><path class="cls-44" d="M281.28,232.13v-8.41H285a5,5,0,0,1,1.7.22,1.85,1.85,0,0,1,.93.8A2.42,2.42,0,0,1,288,226a2.13,2.13,0,0,1-.57,1.51,2.89,2.89,0,0,1-1.78.78,2.59,2.59,0,0,1,.67.42,5.49,5.49,0,0,1,.92,1.11l1.44,2.3h-1.38l-1.1-1.75c-.33-.51-.59-.9-.8-1.16a2.74,2.74,0,0,0-.56-.57,1.87,1.87,0,0,0-.51-.22,3,3,0,0,0-.62,0H282.4v3.74Zm1.13-4.73h2.37a3.64,3.64,0,0,0,1.18-.15,1.22,1.22,0,0,0,.65-.5,1.34,1.34,0,0,0,.22-.75,1.24,1.24,0,0,0-.43-1,2,2,0,0,0-1.35-.38h-2.64v2.75Z"/><path class="cls-44" d="M298.27,227.2h-5.55v-1h5.55Zm0,2.54h-5.55v-1h5.55Z"/><path class="cls-44" d="M302.17,232.13l3.23-8.41h1.23l3.38,8.41h-1.26l-1-2.55h-3.51l-.92,2.55Zm2.42-3.47h2.86l-.87-2.31c-.26-.71-.46-1.29-.59-1.74a10.37,10.37,0,0,1-.46,1.6Z"/><path class="cls-44" d="M313.67,229.08a3.13,3.13,0,0,1,.94-2.51,2.83,2.83,0,0,1,1.92-.68,2.73,2.73,0,0,1,2.05.83,3.11,3.11,0,0,1,.8,2.27,4,4,0,0,1-.36,1.85,2.46,2.46,0,0,1-1,1,3,3,0,0,1-1.47.37,2.73,2.73,0,0,1-2.07-.82A3.24,3.24,0,0,1,313.67,229.08Zm1.05,0a2.62,2.62,0,0,0,.52,1.76,1.71,1.71,0,0,0,2.57,0,2.67,2.67,0,0,0,.51-1.79,2.54,2.54,0,0,0-.51-1.72,1.71,1.71,0,0,0-2.57,0A2.59,2.59,0,0,0,314.72,229.07Z"/><path class="cls-44" d="M320.56,232.13V226h.92V227a2.4,2.4,0,0,1,.66-.86,1.13,1.13,0,0,1,.66-.21,2,2,0,0,1,1.06.34l-.36.94a1.62,1.62,0,0,0-.75-.2,1,1,0,0,0-.6.2,1.09,1.09,0,0,0-.38.57,3.87,3.87,0,0,0-.18,1.2v3.19Z"/><path class="cls-44" d="M331.81,228.83v-1h3.55V231a5.84,5.84,0,0,1-1.69,1,5,5,0,0,1-1.79.33,4.66,4.66,0,0,1-2.24-.53,3.43,3.43,0,0,1-1.53-1.53,4.74,4.74,0,0,1-.52-2.24,5.09,5.09,0,0,1,.52-2.29,3.43,3.43,0,0,1,1.47-1.58,4.66,4.66,0,0,1,2.22-.51,4.52,4.52,0,0,1,1.64.29,2.82,2.82,0,0,1,1.16.83,3.69,3.69,0,0,1,.64,1.38l-1,.27a3.11,3.11,0,0,0-.46-1,2,2,0,0,0-.8-.59,2.88,2.88,0,0,0-1.15-.22,3.45,3.45,0,0,0-1.31.23,2.49,2.49,0,0,0-.9.62,3,3,0,0,0-.52.83,4.46,4.46,0,0,0-.32,1.69,4.22,4.22,0,0,0,.38,1.88,2.5,2.5,0,0,0,1.13,1.12,3.35,3.35,0,0,0,1.56.37,3.56,3.56,0,0,0,1.39-.28,3.39,3.39,0,0,0,1-.6v-1.57Z"/><path class="cls-44" d="M337.16,232.13V231h1.17v1.17Z"/><path class="cls-44" d="M345.89,232.13v-3.57l-3.23-4.85H344l1.64,2.56c.31.47.6.94.87,1.42.27-.44.57-.93.93-1.49l1.62-2.49h1.29L347,228.56v3.57Z"/><path class="cls-44" d="M359.9,227.2h-5.55v-1h5.55Zm0,2.54h-5.55v-1h5.55Z"/><path class="cls-44" d="M370.72,229.17l1.13.28a3.74,3.74,0,0,1-1.26,2.09,3.48,3.48,0,0,1-2.22.72,4,4,0,0,1-2.21-.55,3.47,3.47,0,0,1-1.3-1.6,5.82,5.82,0,0,1-.44-2.25,5,5,0,0,1,.5-2.29,3.44,3.44,0,0,1,1.43-1.49,4.15,4.15,0,0,1,2-.51,3.43,3.43,0,0,1,2.12.65,3.38,3.38,0,0,1,1.2,1.81l-1.11.25a2.6,2.6,0,0,0-.84-1.33,2.33,2.33,0,0,0-1.4-.42,2.72,2.72,0,0,0-1.62.47,2.42,2.42,0,0,0-.91,1.24,4.86,4.86,0,0,0-.27,1.61,5,5,0,0,0,.32,1.86,2.3,2.3,0,0,0,1,1.19,2.69,2.69,0,0,0,1.43.4,2.38,2.38,0,0,0,1.58-.54A2.71,2.71,0,0,0,370.72,229.17Z"/><path class="cls-44" d="M376,229.08a3.13,3.13,0,0,1,.94-2.51,2.83,2.83,0,0,1,1.91-.68,2.74,2.74,0,0,1,2.06.83,3.11,3.11,0,0,1,.79,2.27,4,4,0,0,1-.35,1.85,2.46,2.46,0,0,1-1,1,3,3,0,0,1-1.47.37,2.71,2.71,0,0,1-2.07-.82A3.24,3.24,0,0,1,376,229.08Zm1.05,0a2.62,2.62,0,0,0,.51,1.76,1.66,1.66,0,0,0,1.29.58,1.63,1.63,0,0,0,1.29-.58,2.67,2.67,0,0,0,.51-1.79,2.49,2.49,0,0,0-.52-1.72,1.61,1.61,0,0,0-1.28-.58,1.65,1.65,0,0,0-1.29.58A2.59,2.59,0,0,0,377,229.07Z"/><path class="cls-44" d="M382.84,232.13V226h.92V227a2.52,2.52,0,0,1,.66-.86,1.13,1.13,0,0,1,.66-.21,2,2,0,0,1,1.06.34l-.36.94a1.62,1.62,0,0,0-.75-.2,1,1,0,0,0-.6.2,1.09,1.09,0,0,0-.38.57,3.87,3.87,0,0,0-.18,1.2v3.19Z"/><path class="cls-44" d="M286.76,237.8h1.13v4.85a5.8,5.8,0,0,1-.29,2,2.5,2.5,0,0,1-1,1.21,3.67,3.67,0,0,1-2,.47,4,4,0,0,1-1.93-.41,2.28,2.28,0,0,1-1.07-1.18,5.5,5.5,0,0,1-.32-2.11V237.8h1.12v4.83a4.89,4.89,0,0,0,.2,1.61,1.6,1.6,0,0,0,.7.8,2.47,2.47,0,0,0,1.2.27,2.31,2.31,0,0,0,1.74-.55,3.17,3.17,0,0,0,.52-2.13V237.8Z"/><path class="cls-44" d="M289.87,246.21V245H291v1.17Z"/><text class="cls-45" transform="translate(7.09 21.88)">FMN Riboswitch</text></svg>