<?xml version="1.0" encoding="utf-8"?>
<!-- Generator: Adobe Illustrator 26.3.1, SVG Export Plug-In . SVG Version: 6.00 Build 0)  -->
<svg version="1.1" id="Layer_1" xmlns="http://www.w3.org/2000/svg" xmlns:xlink="http://www.w3.org/1999/xlink" x="0px" y="0px"
	 viewBox="0 0 400 400" style="enable-background:new 0 0 400 400;" xml:space="preserve">
<style type="text/css">
	.st0{fill:none;stroke:#000000;stroke-width:2.9224;stroke-miterlimit:8.1176;}
	.st1{fill:#D7EFC5;}
	.st2{fill:#D90000;stroke:#000000;stroke-width:1.4612;stroke-miterlimit:8.1176;}
	.st3{font-family:'ArialMT';}
	.st4{font-size:14.7057px;}
	.st5{fill:#807B88;}
	.st6{font-size:9.191px;}
	.st7{fill:#D90000;}
	.st8{fill:#807B88;stroke:#000000;stroke-width:1.4612;stroke-miterlimit:8.1176;}
	.st9{fill:#FFFFFF;stroke:#000000;stroke-width:1.4612;stroke-miterlimit:8.1176;}
	.st10{stroke:#000000;stroke-width:1.4612;stroke-miterlimit:8.1176;}
	.st11{fill:none;stroke:#000000;stroke-width:1.4612;stroke-miterlimit:8.1176;}
	.st12{fill:#070000;}
	.st13{fill:#221E1F;}
	.st14{fill:none;stroke:#060000;stroke-width:0.72;stroke-miterlimit:10;}
	.st15{fill:#C62B2B;}
	.st16{fill:#7F7B86;}
	.st17{fill:#0A0303;}
	.st18{fill:#D0E1AE;}
	.st19{fill:#060000;}
</style>
<g id="viewport-20230505042315092" transform="matrix(1.42456636624946,0,0,1.42456636624946,-58.9277846611699,6.888931591714243)">
	<path class="st0" d="M160.11,105.84h3.34"/>
	<path class="st0" d="M160.11,99.34h3.34"/>
	<path class="st0" d="M160.11,78.08h3.34"/>
	<path class="st0" d="M160.11,71.58h3.34"/>
	<path class="st1" d="M154.01,62.76L154.01,62.76h15.55v4.63h-15.55V62.76z"/>
	<path class="st0" d="M160.11,65.08h3.34"/>
	<path class="st1" d="M154.01,56.26L154.01,56.26h15.55v4.63h-15.55V56.26z"/>
	<path class="st0" d="M160.11,58.57h3.34"/>
	<path class="st0" d="M160.11,52.07h3.34"/>
	<path class="st1" d="M154.01,43.25L154.01,43.25h15.55v4.63h-15.55V43.25z"/>
	<path class="st0" d="M160.11,45.57h3.34"/>
	<path class="st0" d="M160.11,39.06h3.34"/>
	<path class="st0" d="M160.11,32.56h3.34"/>
	<path class="st1" d="M154.01,23.74L154.01,23.74h15.55v4.63h-15.55V23.74z"/>
	<path class="st0" d="M160.11,26.06h3.34"/>
	<path class="st1" d="M173.73,103.52L173.73,103.52h15.55v4.63h-15.55V103.52z"/>
	<path class="st0" d="M179.83,105.84h3.34"/>
	<path class="st1" d="M173.73,97.02L173.73,97.02h15.55v4.63h-15.55V97.02z"/>
	<path class="st0" d="M179.83,99.34h3.34"/>
	<path class="st0" d="M179.83,92.83h3.34"/>
	<path class="st1" d="M173.73,84.02L173.73,84.02h15.55v4.63h-15.55V84.02z"/>
	<path class="st0" d="M179.83,86.33h3.34"/>
	<path class="st1" d="M173.73,77.51L173.73,77.51h15.55v4.63h-15.55V77.51z"/>
	<path class="st0" d="M179.83,79.83h3.34"/>
	<path class="st0" d="M179.83,73.32h3.34"/>
	<path class="st0" d="M179.83,47.63h3.34"/>
	<path class="st0" d="M179.83,41.13h3.34"/>
	<path class="st0" d="M179.83,34.62h3.34"/>
	<path class="st0" d="M195.97,118.63v3.34"/>
	<path class="st0" d="M202.47,118.63v3.34"/>
	<path class="st0" d="M208.97,118.63v3.34"/>
	<path class="st0" d="M215.48,118.63v3.34"/>
	<path class="st0" d="M221.98,118.63v3.34"/>
	<path class="st0" d="M228.48,118.63v3.34"/>
	<path class="st0" d="M234.99,118.63v3.34"/>
	<path class="st1" d="M198.48,158.46L198.48,158.46v15.16h-5.02v-15.16H198.48z"/>
	<path class="st0" d="M195.97,164.37v3.34"/>
	<path class="st1" d="M204.98,158.46L204.98,158.46v15.16h-5.02v-15.16H204.98z"/>
	<path class="st0" d="M202.47,164.37v3.34"/>
	<path class="st1" d="M211.48,158.46L211.48,158.46v15.16h-5.02v-15.16H211.48z"/>
	<path class="st0" d="M208.97,164.37v3.34"/>
	<path class="st1" d="M217.99,158.46L217.99,158.46v15.16h-5.02v-15.16H217.99z"/>
	<path class="st0" d="M215.48,164.37v3.34"/>
	<path class="st1" d="M224.49,158.46L224.49,158.46v15.16h-5.02v-15.16H224.49z"/>
	<path class="st0" d="M221.98,164.37v3.34"/>
	<path class="st0" d="M228.48,164.37v3.34"/>
	<path class="st0" d="M267.12,164.37v3.34"/>
	<path class="st1" d="M276.14,158.46L276.14,158.46v15.16h-5.02v-15.16H276.14z"/>
	<path class="st0" d="M273.63,164.37v3.34"/>
	<path class="st1" d="M282.64,158.46L282.64,158.46v15.16h-5.02v-15.16H282.64z"/>
	<path class="st0" d="M280.13,164.37v3.34"/>
	<path class="st1" d="M289.14,158.46L289.14,158.46v15.16h-5.02v-15.16H289.14z"/>
	<path class="st0" d="M286.63,164.37v3.34"/>
	<path class="st1" d="M295.65,158.46L295.65,158.46v15.16h-5.02v-15.16H295.65z"/>
	<path class="st0" d="M293.14,164.37v3.34"/>
	<path class="st0" d="M299.64,164.37v3.34"/>
	<path class="st0" d="M306.14,164.37v3.34"/>
	<path class="st0" d="M41.81-15.37"/>
	<path class="st0" d="M41.81-15.37"/>
	<path class="st0" d="M41.81-15.37"/>
	<path class="st0" d="M41.81-15.37"/>
	<path class="st0" d="M41.81-15.37"/>
	<path class="st0" d="M41.81-15.37"/>
	<path class="st0" d="M41.81-15.37"/>
	<path class="st0" d="M41.81-15.37"/>
	<path class="st0" d="M41.81-15.37"/>
	<path class="st0" d="M41.81-15.37"/>
	<path class="st0" d="M41.81-15.37"/>
	<path class="st0" d="M41.81-15.37"/>
	<path class="st0" d="M41.81-15.37"/>
	<path class="st0" d="M41.81-15.37"/>
	<path class="st0" d="M41.81-15.37"/>
	<path class="st0" d="M41.81-15.37"/>
	<path class="st0" d="M41.81-15.37"/>
	<path class="st0" d="M41.81-15.37"/>
	<path class="st0" d="M41.81-15.37"/>
	<path class="st0" d="M41.81-15.37"/>
	<path class="st0" d="M41.81-15.37"/>
	<path class="st0" d="M41.81-15.37"/>
	<path class="st0" d="M41.81-15.37"/>
	<path class="st0" d="M41.81-15.37"/>
	<path class="st0" d="M41.81-15.37"/>
	<path class="st0" d="M41.81-15.37"/>
	<path class="st0" d="M41.81-15.37"/>
	<path class="st0" d="M41.81-15.37"/>
	<path class="st0" d="M41.81-15.37"/>
	<path class="st0" d="M41.81-15.37"/>
	<path class="st0" d="M41.81-15.37"/>
	<path class="st0" d="M41.81-15.37"/>
	<path class="st0" d="M41.81-15.37"/>
	<path class="st0" d="M41.81-15.37"/>
	<path class="st0" d="M41.81-15.37"/>
	<path class="st0" d="M41.81-15.37"/>
	<path class="st0" d="M41.81-15.37"/>
	<path class="st0" d="M41.81-15.37"/>
	<path class="st0" d="M41.81-15.37"/>
	<path class="st0" d="M41.81-15.37"/>
	<path class="st0" d="M41.81-15.37"/>
	<path class="st0" d="M41.81-15.37"/>
	<path class="st0" d="M41.81-15.37"/>
	<path class="st0" d="M41.81-15.37"/>
	<path class="st0" d="M41.81-15.37"/>
	<path class="st0" d="M41.81-15.37"/>
	<path class="st0" d="M41.81-15.37"/>
	<path class="st0" d="M41.81-15.37"/>
	<path class="st0" d="M41.81-15.37"/>
	<path class="st0" d="M41.81-15.37"/>
	<path class="st0" d="M41.81-15.37"/>
	<path class="st0" d="M41.81-15.37"/>
	<path class="st0" d="M41.81-15.37"/>
	<path class="st0" d="M41.81-15.37"/>
	<path class="st0" d="M41.81-15.37"/>
	<path class="st0" d="M41.81-15.37"/>
	<path class="st0" d="M41.81-15.37"/>
	<path class="st0" d="M41.81-15.37"/>
	<path class="st0" d="M41.81-15.37"/>
	<path class="st0" d="M41.81-15.37"/>
	<path class="st0" d="M41.81-15.37"/>
	<path class="st0" d="M41.81-15.37"/>
	<path class="st0" d="M41.81-15.37"/>
	<path class="st0" d="M41.81-15.37"/>
	<path class="st0" d="M41.81-15.37"/>
	<path class="st0" d="M41.81-15.37"/>
	<path class="st0" d="M41.81-15.37"/>
	<path class="st0" d="M41.81-15.37"/>
	<path class="st0" d="M41.81-15.37"/>
	<path class="st0" d="M41.81-15.37"/>
	<path class="st0" d="M41.81-15.37"/>
	<path class="st0" d="M41.81-15.37"/>
	<path class="st0" d="M41.81-15.37"/>
	<path class="st0" d="M41.81-15.37"/>
	<path class="st0" d="M41.81-15.37"/>
	<path class="st0" d="M41.81-15.37"/>
	<path class="st0" d="M41.81-15.37"/>
	<path class="st0" d="M41.81-15.37"/>
	<path class="st0" d="M41.81-15.37"/>
	<path class="st0" d="M41.81-15.37"/>
	<path class="st0" d="M41.81-15.37"/>
	<path class="st0" d="M41.81-15.37"/>
	<path class="st0" d="M41.81-15.37"/>
	<path class="st0" d="M41.81-15.37"/>
	<path class="st0" d="M41.81-15.37"/>
	<path class="st0" d="M41.81-15.37"/>
	<path class="st0" d="M41.81-15.37"/>
	<path class="st0" d="M41.81-15.37"/>
	<path class="st0" d="M41.81-15.37"/>
	<path class="st0" d="M41.81-15.37"/>
	<path class="st0" d="M41.81-15.37"/>
	<path class="st0" d="M41.81-15.37"/>
	<path class="st0" d="M41.81-15.37"/>
	<path class="st0" d="M41.81-15.37"/>
	<path class="st0" d="M41.81-15.37"/>
	<path class="st0" d="M41.81-15.37"/>
	<path class="st0" d="M41.81-15.37"/>
	<path class="st0" d="M41.81-15.37"/>
	<path class="st0" d="M41.81-15.37"/>
	<path class="st0" d="M41.81-15.37"/>
	<path class="st0" d="M41.81-15.37"/>
	<path class="st0" d="M41.81-15.37"/>
	<path class="st0" d="M41.81-15.37"/>
	<path class="st0" d="M41.81-15.37"/>
	<path class="st0" d="M41.81-15.37"/>
	<path class="st0" d="M41.81-15.37"/>
	<path class="st0" d="M41.81-15.37"/>
	<path class="st0" d="M41.81-15.37"/>
	<path class="st0" d="M41.81-15.37"/>
	<path class="st0" d="M41.81-15.37"/>
	<path class="st0" d="M41.81-15.37"/>
	<path class="st0" d="M41.81-15.37"/>
	<path class="st0" d="M41.81-15.37"/>
	<path class="st0" d="M41.81-15.37"/>
	<path class="st0" d="M41.81-15.37"/>
	<path class="st0" d="M41.81-15.37"/>
	<path class="st0" d="M41.81-15.37"/>
	<path class="st0" d="M41.81-15.37"/>
	<path class="st0" d="M41.81-15.37"/>
	<path class="st0" d="M41.81-15.37"/>
	<path class="st0" d="M41.81-15.37"/>
	<path class="st0" d="M41.81-15.37"/>
	<path class="st0" d="M41.81-15.37"/>
	<path class="st0" d="M41.81-15.37"/>
	<path class="st0" d="M41.81-15.37"/>
	<path class="st0" d="M41.81-15.37"/>
	<path class="st0" d="M41.81-15.37"/>
	<path class="st0" d="M41.81-15.37"/>
	<path class="st0" d="M41.81-15.37"/>
	<path class="st0" d="M41.81-15.37"/>
	<path class="st0" d="M41.81-15.37"/>
	<path class="st0" d="M41.81-15.37"/>
	<path class="st0" d="M41.81-15.37"/>
	<path class="st0" d="M41.81-15.37"/>
	<path class="st0" d="M41.81-15.37"/>
	<path class="st0" d="M41.81-15.37"/>
	<path class="st0" d="M41.81-15.37"/>
	<path class="st0" d="M41.81-15.37"/>
	<path class="st0" d="M41.81-15.37"/>
	<path class="st0" d="M41.81-15.37"/>
	<path class="st0" d="M41.81-15.37"/>
	<path class="st0" d="M41.81-15.37"/>
	<path class="st0" d="M41.81-15.37"/>
	<path class="st0" d="M41.81-15.37"/>
	<path class="st0" d="M41.81-15.37"/>
	<path class="st0" d="M41.81-15.37"/>
	<path class="st0" d="M41.81-15.37"/>
	<path class="st0" d="M41.81-15.37"/>
	<path class="st0" d="M41.81-15.37"/>
	<path class="st0" d="M41.81-15.37"/>
	<path class="st0" d="M41.81-15.37"/>
	<path class="st0" d="M41.81-15.37"/>
	<path class="st0" d="M41.81-15.37"/>
	<path class="st0" d="M41.81-15.37"/>
	<path class="st0" d="M41.81-15.37"/>
	<path class="st0" d="M41.81-15.37"/>
	<path class="st0" d="M41.81-15.37"/>
	<path class="st0" d="M41.81-15.37"/>
	<path class="st0" d="M41.81-15.37"/>
	<path class="st0" d="M41.81-15.37"/>
	<path class="st0" d="M41.81-15.37"/>
	<path class="st0" d="M41.81-15.37"/>
	<path class="st0" d="M41.81-15.37"/>
	<path class="st0" d="M41.81-15.37"/>
	<path class="st0" d="M41.81-15.37"/>
	<path class="st0" d="M41.81-15.37"/>
	<path class="st0" d="M41.81-15.37"/>
	<path class="st0" d="M41.81-15.37"/>
	<path class="st0" d="M41.81-15.37"/>
	<path class="st0" d="M41.81-15.37"/>
	<path class="st0" d="M41.81-15.37"/>
	<path class="st0" d="M41.81-15.37"/>
	<path class="st0" d="M41.81-15.37"/>
	<path class="st0" d="M41.81-15.37"/>
	<path class="st0" d="M41.81-15.37"/>
	<path class="st0" d="M41.81-15.37"/>
	<path class="st0" d="M41.81-15.37"/>
	<path class="st0" d="M41.81-15.37"/>
	<path class="st0" d="M41.81-15.37"/>
	<path class="st0" d="M41.81-15.37"/>
	<path class="st0" d="M41.81-15.37"/>
	<path class="st0" d="M41.81-15.37"/>
	<path class="st0" d="M41.81-15.37"/>
	<path class="st0" d="M41.81-15.37"/>
	<path class="st0" d="M41.81-15.37"/>
	<path class="st0" d="M41.81-15.37"/>
	<path class="st0" d="M41.81-15.37"/>
	<path class="st0" d="M41.81-15.37"/>
	<path class="st0" d="M41.81-15.37"/>
	<path class="st0" d="M41.81-15.37"/>
	<path class="st0" d="M41.81-15.37"/>
	<path class="st0" d="M41.81-15.37"/>
	<path class="st0" d="M41.81-15.37"/>
	<path class="st0" d="M41.81-15.37"/>
	<path class="st0" d="M41.81-15.37"/>
	<path class="st0" d="M41.81-15.37"/>
	<path class="st0" d="M41.81-15.37"/>
	<path class="st0" d="M41.81-15.37"/>
	<path class="st0" d="M41.81-15.37"/>
	<path class="st0" d="M41.81-15.37"/>
	<path class="st0" d="M41.81-15.37"/>
	<path class="st0" d="M41.81-15.37"/>
	<path class="st0" d="M41.81-15.37"/>
	<path class="st0" d="M41.81-15.37"/>
	<path class="st0" d="M41.81-15.37"/>
	<path class="st0" d="M41.81-15.37"/>
	<path class="st0" d="M41.81-15.37"/>
	<path class="st0" d="M41.81-15.37"/>
	<path class="st0" d="M41.81-15.37"/>
	<path class="st0" d="M41.81-15.37"/>
	<path class="st0" d="M41.81-15.37"/>
	<path class="st0" d="M41.81-15.37"/>
	<path class="st0" d="M41.81-15.37"/>
	<path class="st0" d="M41.81-15.37"/>
	<path class="st0" d="M41.81-15.37"/>
	<path class="st0" d="M41.81-15.37"/>
	<path class="st0" d="M41.81-15.37"/>
	<path class="st0" d="M41.81-15.37"/>
	<path class="st0" d="M41.81-15.37"/>
	<path class="st0" d="M41.81-15.37"/>
	<path class="st0" d="M41.81-15.37"/>
	<path class="st0" d="M41.81-15.37"/>
	<path class="st0" d="M41.81-15.37"/>
	<path class="st0" d="M41.81-15.37"/>
	<path class="st0" d="M41.81-15.37"/>
	<path class="st0" d="M41.81-15.37"/>
	<path class="st0" d="M41.81-15.37"/>
	<path class="st0" d="M41.81-15.37"/>
	<path class="st0" d="M41.81-15.37"/>
	<path class="st0" d="M41.81-15.37"/>
	<path class="st0" d="M41.81-15.37"/>
	<path class="st0" d="M41.81-15.37"/>
	<path class="st0" d="M41.81-15.37"/>
	<path class="st0" d="M41.81-15.37"/>
	<path class="st0" d="M41.81-15.37"/>
	<path class="st0" d="M41.81-15.37"/>
	<path class="st0" d="M41.81-15.37"/>
	<path class="st0" d="M41.81-15.37"/>
	<path class="st0" d="M41.81-15.37"/>
	<path class="st0" d="M41.81-15.37"/>
	<path class="st0" d="M41.81-15.37"/>
	<path class="st0" d="M41.81-15.37"/>
	<path class="st0" d="M41.81-15.37"/>
	<path class="st0" d="M41.81-15.37"/>
	<path class="st0" d="M41.81-15.37"/>
	<path class="st0" d="M41.81-15.37"/>
	<path class="st0" d="M41.81-15.37"/>
	<path class="st0" d="M41.81-15.37"/>
	<path class="st0" d="M41.81-15.37"/>
	<path class="st0" d="M41.81-15.37"/>
	<path class="st0" d="M41.81-15.37"/>
	<path class="st0" d="M41.81-15.37"/>
	<path class="st0" d="M41.81-15.37"/>
	<path class="st0" d="M41.81-15.37"/>
	<path class="st0" d="M41.81-15.37"/>
	<path class="st0" d="M41.81-15.37"/>
	<path class="st0" d="M41.81-15.37"/>
	<path class="st0" d="M41.81-15.37"/>
	<path class="st0" d="M41.81-15.37"/>
	<path class="st0" d="M41.81-15.37"/>
	<path class="st0" d="M41.81-15.37"/>
	<path class="st0" d="M41.81-15.37"/>
	<path class="st0" d="M41.81-15.37"/>
	<path class="st0" d="M41.81-15.37"/>
	<path class="st0" d="M41.81-15.37"/>
	<path class="st0" d="M41.81-15.37"/>
	<path class="st0" d="M41.81-15.37"/>
	<path class="st0" d="M41.81-15.37"/>
	<path class="st0" d="M41.81-15.37"/>
	<path class="st0" d="M41.81-15.37"/>
	<path class="st0" d="M41.81-15.37"/>
	<path class="st0" d="M41.81-15.37"/>
	<path class="st0" d="M41.81-15.37"/>
	<path class="st0" d="M41.81-15.37"/>
	<path class="st0" d="M41.81-15.37"/>
	<path class="st0" d="M41.81-15.37"/>
	<path class="st0" d="M41.81-15.37"/>
	<path class="st0" d="M41.81-15.37"/>
	<path class="st0" d="M41.81-15.37"/>
	<path class="st0" d="M41.81-15.37"/>
	<path class="st0" d="M41.81-15.37"/>
	<path class="st0" d="M41.81-15.37"/>
	<path class="st0" d="M41.81-15.37"/>
	<path class="st0" d="M41.81-15.37"/>
	<path class="st0" d="M41.81-15.37"/>
	<path class="st0" d="M41.81-15.37"/>
	<path class="st0" d="M41.81-15.37"/>
	<path class="st0" d="M41.81-15.37"/>
	<path class="st0" d="M41.81-15.37"/>
	<path class="st0" d="M41.81-15.37"/>
	<path class="st0" d="M41.81-15.37"/>
	<path class="st0" d="M41.81-15.37"/>
	<path class="st0" d="M41.81-15.37"/>
	<path class="st0" d="M41.81-15.37"/>
	<path class="st0" d="M41.81-15.37"/>
	<path class="st0" d="M41.81-15.37"/>
	<path class="st0" d="M41.81-15.37"/>
	<path class="st0" d="M41.81-15.37"/>
	<path class="st0" d="M41.81-15.37"/>
	<path class="st0" d="M41.81-15.37"/>
	<path class="st0" d="M41.81-15.37"/>
	<path class="st0" d="M41.81-15.37"/>
	<path class="st0" d="M41.81-15.37"/>
	<path class="st0" d="M41.81-15.37"/>
	<path class="st0" d="M41.81-15.37"/>
	<path class="st0" d="M41.81-15.37"/>
	<path class="st0" d="M41.81-15.37"/>
	<path class="st0" d="M41.81-15.37"/>
	<path class="st0" d="M41.81-15.37"/>
	<path class="st0" d="M41.81-15.37"/>
	<path class="st0" d="M41.81-15.37"/>
	<path class="st0" d="M41.81-15.37"/>
	<path class="st0" d="M41.81-15.37"/>
	<path class="st0" d="M41.81-15.37"/>
	<path class="st0" d="M41.81-15.37"/>
	<path class="st0" d="M41.81-15.37"/>
	<path class="st0" d="M41.81-15.37"/>
	<path class="st0" d="M41.81-15.37"/>
	<path class="st0" d="M41.81-15.37"/>
	<path class="st0" d="M41.81-15.37"/>
	<path class="st0" d="M41.81-15.37"/>
	<path class="st0" d="M41.81-15.37"/>
	<path class="st0" d="M41.81-15.37"/>
	<path class="st0" d="M41.81-15.37"/>
	<path class="st0" d="M41.81-15.37"/>
	<path class="st0" d="M41.81-15.37"/>
	<path class="st0" d="M41.81-15.37"/>
	<path class="st0" d="M41.81-15.37"/>
	<path class="st0" d="M41.81-15.37"/>
	<path class="st0" d="M41.81-15.37"/>
	<path class="st0" d="M41.81-15.37"/>
	<path class="st0" d="M41.81-15.37"/>
	<path class="st0" d="M41.81-15.37"/>
	<path class="st0" d="M41.81-15.37"/>
	<path class="st2" d="M63.07,110.44c0,1.22-0.99,2.2-2.2,2.2s-2.2-0.98-2.2-2.2c0-1.22,0.99-2.2,2.2-2.2
		C62.09,108.24,63.07,109.22,63.07,110.44z"/>
	<path class="st2" d="M69.58,110.44c0,1.22-0.99,2.2-2.2,2.2s-2.2-0.98-2.2-2.2c0-1.22,0.99-2.2,2.2-2.2
		C68.59,108.24,69.58,109.23,69.58,110.44z"/>
	<path class="st2" d="M76.08,110.44c0,1.22-0.98,2.2-2.2,2.2s-2.2-0.98-2.2-2.2s0.98-2.2,2.2-2.2S76.08,109.22,76.08,110.44z"/>
	<path class="st2" d="M82.58,110.44c0,1.22-0.98,2.2-2.2,2.2s-2.2-0.98-2.2-2.2s0.98-2.2,2.2-2.2S82.58,109.22,82.58,110.44z"/>
	<path class="st2" d="M89.09,110.44c0,1.22-0.99,2.2-2.2,2.2s-2.2-0.98-2.2-2.2c0-1.22,0.99-2.2,2.2-2.2
		C88.1,108.24,89.08,109.23,89.09,110.44z"/>
	<path class="st2" d="M95.59,110.44c0,1.22-0.98,2.2-2.2,2.2s-2.2-0.98-2.2-2.2s0.98-2.2,2.2-2.2S95.59,109.22,95.59,110.44z"/>
	<path class="st2" d="M102.09,110.44c0,1.22-0.98,2.2-2.2,2.2s-2.2-0.98-2.2-2.2s0.98-2.2,2.2-2.2S102.09,109.22,102.09,110.44z"/>
	<path class="st2" d="M108.6,110.44c0,1.22-0.99,2.2-2.2,2.2s-2.2-0.98-2.2-2.2c0-1.22,0.99-2.2,2.2-2.2
		C107.61,108.24,108.59,109.23,108.6,110.44z"/>
	<path class="st2" d="M115.1,110.44c0,1.22-0.99,2.2-2.2,2.2s-2.2-0.98-2.2-2.2c0-1.22,0.99-2.2,2.2-2.2
		C114.11,108.24,115.1,109.23,115.1,110.44z"/>
	<text transform="matrix(0.702 0 0 0.702 117.2507 112.7541)" class="st3 st4">   </text>
	<text transform="matrix(0.702 0 0 0.702 117.2507 112.7541)" class="st5 st3 st6">A</text>
	<text transform="matrix(0.702 0 0 0.702 121.5536 112.7541)" class="st3 st4"> </text>
	<path class="st2" d="M128.1,110.44c0,1.22-0.99,2.2-2.2,2.2c-1.21,0-2.2-0.98-2.2-2.2c0-1.22,0.99-2.2,2.2-2.2
		C127.12,108.24,128.1,109.23,128.1,110.44z"/>
	<text transform="matrix(0.702 0 0 0.702 130.2566 112.7541)" class="st3 st4">   </text>
	<text transform="matrix(0.702 0 0 0.702 130.2566 112.7541)" class="st7 st3 st6">A</text>
	<text transform="matrix(0.702 0 0 0.702 134.5596 112.7541)" class="st3 st4"> </text>
	<text transform="matrix(0.702 0 0 0.702 136.4016 112.7541)" class="st3 st4">   </text>
	<text transform="matrix(0.702 0 0 0.702 136.4016 112.7541)" class="st7 st3 st6">G</text>
	<text transform="matrix(0.702 0 0 0.702 141.4199 112.7541)" class="st3 st4"> </text>
	<text transform="matrix(0.702 0 0 0.702 143.0857 112.7541)" class="st3 st4">   </text>
	<text transform="matrix(0.702 0 0 0.702 143.0857 112.7541)" class="st7 st3 st6">C</text>
	<text transform="matrix(0.702 0 0 0.702 147.7448 112.7541)" class="st3 st4"> </text>
	<text transform="matrix(0.702 0 0 0.702 149.4085 112.7541)" class="st3 st4">   </text>
	<text transform="matrix(0.702 0 0 0.702 149.4085 112.7541)" class="st7 st3 st6">G</text>
	<text transform="matrix(0.702 0 0 0.702 154.4265 112.7541)" class="st3 st4"> </text>
	<text transform="matrix(0.702 0 0 0.702 154.1876 108.1564)" class="st3 st4">   </text>
	<text transform="matrix(0.702 0 0 0.702 154.1876 108.1564)" class="st7 st3 st6">C</text>
	<text transform="matrix(0.702 0 0 0.702 158.8467 108.1564)" class="st3 st4"> </text>
	<text transform="matrix(0.702 0 0 0.702 154.1876 101.6536)" class="st3 st4">   </text>
	<text transform="matrix(0.702 0 0 0.702 154.1876 101.6536)" class="st7 st3 st6">C</text>
	<text transform="matrix(0.702 0 0 0.702 158.8467 101.6536)" class="st3 st4"> </text>
	<path class="st2" d="M153.9,94.96c0,1.22-0.98,2.2-2.2,2.2s-2.2-0.98-2.2-2.2c0-1.22,0.98-2.2,2.2-2.2S153.9,93.75,153.9,94.96z"/>
	<text transform="matrix(0.702 0 0 0.702 147.4109 91.0257)" class="st3 st4">   </text>
	<text transform="matrix(0.702 0 0 0.702 147.4109 91.0257)" class="st7 st3 st6">G</text>
	<text transform="matrix(0.702 0 0 0.702 152.4289 91.0257)" class="st3 st4"> </text>
	<text transform="matrix(0.702 0 0 0.702 149.375 84.7721)" class="st3 st4">   </text>
	<text transform="matrix(0.702 0 0 0.702 149.375 84.7721)" class="st5 st3 st6">R</text>
	<text transform="matrix(0.702 0 0 0.702 154.0337 84.7721)" class="st3 st4"> </text>
	<text transform="matrix(0.702 0 0 0.702 154.1876 80.3978)" class="st3 st4">   </text>
	<text transform="matrix(0.702 0 0 0.702 154.1876 80.3978)" class="st3 st6">R</text>
	<text transform="matrix(0.702 0 0 0.702 158.8467 80.3978)" class="st3 st4"> </text>
	<text transform="matrix(0.702 0 0 0.702 154.1876 73.8947)" class="st3 st4">   </text>
	<text transform="matrix(0.702 0 0 0.702 154.1876 73.8947)" class="st7 st3 st6">C</text>
	<text transform="matrix(0.702 0 0 0.702 158.8467 73.8947)" class="st3 st4"> </text>
	<text transform="matrix(0.702 0 0 0.702 154.1876 67.3915)" class="st3 st4">   </text>
	<text transform="matrix(0.702 0 0 0.702 154.1876 67.3915)" class="st5 st3 st6">U</text>
	<text transform="matrix(0.702 0 0 0.702 158.8467 67.3915)" class="st3 st4"> </text>
	<path class="st2" d="M158.72,58.57c0,1.22-0.98,2.2-2.2,2.2s-2.2-0.98-2.2-2.2s0.98-2.2,2.2-2.2
		C157.73,56.37,158.72,57.36,158.72,58.57z"/>
	<text transform="matrix(0.702 0 0 0.702 154.3648 54.3852)" class="st3 st4">   </text>
	<text transform="matrix(0.702 0 0 0.702 154.3648 54.3852)" class="st5 st3 st6">A</text>
	<text transform="matrix(0.702 0 0 0.702 158.6675 54.3852)" class="st3 st4"> </text>
	<text transform="matrix(0.702 0 0 0.702 154.1876 47.8821)" class="st3 st4">   </text>
	<text transform="matrix(0.702 0 0 0.702 154.1876 47.8821)" class="st5 st3 st6">R</text>
	<text transform="matrix(0.702 0 0 0.702 158.8467 47.8821)" class="st3 st4"> </text>
	<path class="st2" d="M158.72,39.06c0,1.22-0.98,2.2-2.2,2.2s-2.2-0.98-2.2-2.2s0.98-2.2,2.2-2.2
		C157.73,36.86,158.72,37.85,158.72,39.06L158.72,39.06z"/>
	<path class="st8" d="M158.72,32.56c0,1.22-0.98,2.2-2.2,2.2s-2.2-0.98-2.2-2.2s0.98-2.2,2.2-2.2
		C157.73,30.36,158.72,31.34,158.72,32.56z"/>
	<path class="st8" d="M158.72,26.06c0,1.22-0.98,2.2-2.2,2.2s-2.2-0.98-2.2-2.2s0.98-2.2,2.2-2.2
		C157.73,23.86,158.72,24.84,158.72,26.06z"/>
	<path class="st8" d="M153.81,21.79c0,1.22-0.98,2.2-2.2,2.2s-2.2-0.98-2.2-2.2c0-1.22,0.98-2.2,2.2-2.2S153.81,20.58,153.81,21.79z
		"/>
	<path class="st9" d="M151.78,15.61c0,1.22-0.99,2.2-2.2,2.2c-1.21,0-2.2-0.98-2.2-2.2s0.99-2.2,2.2-2.2
		C150.8,13.41,151.78,14.4,151.78,15.61z"/>
	<path class="st9" d="M153.22,9.27c0,1.22-0.99,2.2-2.2,2.2c-1.21,0-2.2-0.98-2.2-2.2s0.99-2.2,2.2-2.2
		C152.24,7.07,153.22,8.05,153.22,9.27z"/>
	<path class="st9" d="M157.71,4.56c0,1.22-0.98,2.2-2.2,2.2c-1.21,0-2.2-0.98-2.2-2.2s0.98-2.2,2.2-2.2
		C156.73,2.36,157.71,3.35,157.71,4.56z"/>
	<path class="st10" d="M163.98,2.83c0,1.22-0.98,2.2-2.2,2.2s-2.2-0.98-2.2-2.2s0.98-2.2,2.2-2.2C163,0.63,163.98,1.62,163.98,2.83
		L163.98,2.83z"/>
	<path class="st10" d="M170.25,4.56c0,1.22-0.98,2.2-2.2,2.2c-1.21,0-2.2-0.98-2.2-2.2s0.98-2.2,2.2-2.2
		C169.26,2.36,170.25,3.35,170.25,4.56z"/>
	<path class="st10" d="M174.74,9.27c0,1.22-0.99,2.2-2.2,2.2c-1.21,0-2.19-0.98-2.2-2.2c0-1.22,0.99-2.2,2.2-2.2
		C173.75,7.07,174.74,8.06,174.74,9.27z"/>
	<path class="st9" d="M176.18,15.61c0,1.22-0.98,2.2-2.2,2.2s-2.2-0.98-2.2-2.2s0.98-2.2,2.2-2.2
		C175.19,13.41,176.18,14.4,176.18,15.61z"/>
	<path class="st9" d="M174.15,21.79c0,1.22-0.98,2.2-2.2,2.2s-2.2-0.98-2.2-2.2c0-1.22,0.98-2.2,2.2-2.2S174.15,20.58,174.15,21.79z
		"/>
	<path class="st8" d="M169.24,26.06c0,1.22-0.99,2.2-2.2,2.2c-1.21,0-2.19-0.98-2.2-2.2c0-1.22,0.99-2.2,2.2-2.2
		C168.26,23.86,169.24,24.85,169.24,26.06z"/>
	<path class="st9" d="M169.24,32.56c0,1.22-0.99,2.2-2.2,2.2c-1.21,0-2.19-0.98-2.2-2.2c0-1.22,0.99-2.2,2.2-2.2
		C168.26,30.37,169.24,31.35,169.24,32.56z"/>
	<path class="st2" d="M169.24,39.06c0,1.22-0.99,2.2-2.2,2.2c-1.21,0-2.19-0.98-2.2-2.2c0-1.22,0.99-2.2,2.2-2.2
		C168.26,36.87,169.24,37.85,169.24,39.06z"/>
	<text transform="matrix(0.702 0 0 0.702 164.8937 47.8821)" class="st3 st4">   </text>
	<text transform="matrix(0.702 0 0 0.702 164.8937 47.8821)" class="st5 st3 st6">Y</text>
	<text transform="matrix(0.702 0 0 0.702 169.1966 47.8821)" class="st3 st4"> </text>
	<text transform="matrix(0.702 0 0 0.702 164.7165 54.3852)" class="st3 st4">   </text>
	<text transform="matrix(0.702 0 0 0.702 164.7165 54.3852)" class="st3 st6">U</text>
	<text transform="matrix(0.702 0 0 0.702 169.3756 54.3852)" class="st3 st4"> </text>
	<path class="st2" d="M169.24,58.57c0,1.22-0.99,2.2-2.2,2.2c-1.21,0-2.19-0.98-2.2-2.2c0-1.22,0.99-2.2,2.2-2.2
		C168.26,56.38,169.24,57.36,169.24,58.57z"/>
	<text transform="matrix(0.702 0 0 0.702 164.8937 67.3915)" class="st3 st4">   </text>
	<text transform="matrix(0.702 0 0 0.702 164.8937 67.3915)" class="st5 st3 st6">A</text>
	<text transform="matrix(0.702 0 0 0.702 169.1966 67.3915)" class="st3 st4"> </text>
	<text transform="matrix(0.702 0 0 0.702 164.5355 73.8947)" class="st3 st4">   </text>
	<text transform="matrix(0.702 0 0 0.702 164.5355 73.8947)" class="st7 st3 st6">G</text>
	<text transform="matrix(0.702 0 0 0.702 169.5538 73.8947)" class="st3 st4"> </text>
	<text transform="matrix(0.702 0 0 0.702 164.7165 80.3978)" class="st3 st4">   </text>
	<text transform="matrix(0.702 0 0 0.702 164.7165 80.3978)" class="st5 st3 st6">U</text>
	<text transform="matrix(0.702 0 0 0.702 169.3756 80.3978)" class="st3 st4"> </text>
	<text transform="matrix(0.702 0 0 0.702 171.1627 79.5443)" class="st3 st4">   </text>
	<text transform="matrix(0.702 0 0 0.702 171.1627 79.5443)" class="st5 st3 st6">U</text>
	<text transform="matrix(0.702 0 0 0.702 175.8218 79.5443)" class="st3 st4"> </text>
	<text transform="matrix(0.702 0 0 0.702 176.8779 82.2902)" class="st3 st4">   </text>
	<text transform="matrix(0.702 0 0 0.702 176.8779 82.2902)" class="st7 st3 st6">G</text>
	<text transform="matrix(0.702 0 0 0.702 181.8962 82.2902)" class="st3 st4"> </text>
	<text transform="matrix(0.702 0 0 0.702 180.7308 87.7739)" class="st3 st4">   </text>
	<text transform="matrix(0.702 0 0 0.702 180.7308 87.7739)" class="st7 st3 st6">A</text>
	<text transform="matrix(0.702 0 0 0.702 185.0338 87.7739)" class="st3 st4"> </text>
	<text transform="matrix(0.702 0 0 0.702 180.5536 94.2767)" class="st3 st4">   </text>
	<text transform="matrix(0.702 0 0 0.702 180.5536 94.2767)" class="st7 st3 st6">C</text>
	<text transform="matrix(0.702 0 0 0.702 185.2127 94.2767)" class="st3 st4"> </text>
	<text transform="matrix(0.702 0 0 0.702 176.8779 99.7609)" class="st3 st4">   </text>
	<text transform="matrix(0.702 0 0 0.702 176.8779 99.7609)" class="st7 st3 st6">G</text>
	<text transform="matrix(0.702 0 0 0.702 181.8962 99.7609)" class="st3 st4"> </text>
	<text transform="matrix(0.702 0 0 0.702 171.3409 102.507)" class="st3 st4">   </text>
	<text transform="matrix(0.702 0 0 0.702 171.3409 102.507)" class="st7 st3 st6">A</text>
	<text transform="matrix(0.702 0 0 0.702 175.6439 102.507)" class="st3 st4"> </text>
	<text transform="matrix(0.702 0 0 0.702 164.5355 101.6536)" class="st3 st4">   </text>
	<text transform="matrix(0.702 0 0 0.702 164.5355 101.6536)" class="st7 st3 st6">G</text>
	<text transform="matrix(0.702 0 0 0.702 169.5538 101.6536)" class="st3 st4"> </text>
	<text transform="matrix(0.702 0 0 0.702 164.5355 108.1564)" class="st3 st4">   </text>
	<text transform="matrix(0.702 0 0 0.702 164.5355 108.1564)" class="st7 st3 st6">G</text>
	<text transform="matrix(0.702 0 0 0.702 169.5538 108.1564)" class="st3 st4"> </text>
	<text transform="matrix(0.702 0 0 0.702 169.4924 112.7541)" class="st3 st4">   </text>
	<text transform="matrix(0.702 0 0 0.702 169.4924 112.7541)" class="st3 st6">A</text>
	<text transform="matrix(0.702 0 0 0.702 173.7954 112.7541)" class="st3 st4"> </text>
	<text transform="matrix(0.702 0 0 0.702 173.9126 108.1564)" class="st3 st4">   </text>
	<text transform="matrix(0.702 0 0 0.702 173.9126 108.1564)" class="st5 st3 st6">R</text>
	<text transform="matrix(0.702 0 0 0.702 178.5718 108.1564)" class="st3 st4"> </text>
	<text transform="matrix(0.702 0 0 0.702 173.9126 101.6536)" class="st3 st4">   </text>
	<text transform="matrix(0.702 0 0 0.702 173.9126 101.6536)" class="st7 st3 st6">R</text>
	<text transform="matrix(0.702 0 0 0.702 178.5718 101.6536)" class="st3 st4"> </text>
	<text transform="matrix(0.702 0 0 0.702 173.9126 95.1501)" class="st3 st4">   </text>
	<text transform="matrix(0.702 0 0 0.702 173.9126 95.1501)" class="st3 st6">R</text>
	<text transform="matrix(0.702 0 0 0.702 178.5718 95.1501)" class="st3 st4"> </text>
	<text transform="matrix(0.702 0 0 0.702 173.7324 88.6473)" class="st3 st4">   </text>
	<text transform="matrix(0.702 0 0 0.702 173.7324 88.6473)" class="st5 st3 st6">G</text>
	<text transform="matrix(0.702 0 0 0.702 178.7503 88.6473)" class="st3 st4"> </text>
	<text transform="matrix(0.702 0 0 0.702 173.9126 82.1438)" class="st3 st4">   </text>
	<text transform="matrix(0.702 0 0 0.702 173.9126 82.1438)" class="st5 st3 st6">R</text>
	<text transform="matrix(0.702 0 0 0.702 178.5718 82.1438)" class="st3 st4"> </text>
	<path class="st8" d="M178.44,73.32c0,1.22-0.98,2.2-2.2,2.2s-2.2-0.98-2.2-2.2s0.98-2.2,2.2-2.2S178.44,72.11,178.44,73.32z"/>
	<text transform="matrix(0.702 0 0 0.702 168.6397 71.8343)" class="st3 st4">   </text>
	<text transform="matrix(0.702 0 0 0.702 168.6397 71.8343)" class="st3 st6">U</text>
	<text transform="matrix(0.702 0 0 0.702 173.2988 71.8343)" class="st3 st4"> </text>
	<path class="st2" d="M170.21,63.73c0,1.22-0.98,2.2-2.2,2.2s-2.2-0.98-2.2-2.2c0-1.22,0.98-2.2,2.2-2.2S170.21,62.51,170.21,63.73z
		"/>
	<text transform="matrix(0.702 0 0 0.702 165.8561 59.5413)" class="st3 st4">   </text>
	<text transform="matrix(0.702 0 0 0.702 165.8561 59.5413)" class="st7 st3 st6">A</text>
	<text transform="matrix(0.702 0 0 0.702 170.1595 59.5413)" class="st3 st4"> </text>
	<text transform="matrix(0.702 0 0 0.702 168.6397 53.7511)" class="st3 st4">   </text>
	<text transform="matrix(0.702 0 0 0.702 168.6397 53.7511)" class="st7 st3 st6">U</text>
	<text transform="matrix(0.702 0 0 0.702 173.2988 53.7511)" class="st3 st4"> </text>
	<text transform="matrix(0.702 0 0 0.702 173.9126 49.9448)" class="st3 st4">   </text>
	<text transform="matrix(0.702 0 0 0.702 173.9126 49.9448)" class="st7 st3 st6">C</text>
	<text transform="matrix(0.702 0 0 0.702 178.5718 49.9448)" class="st3 st4"> </text>
	<text transform="matrix(0.702 0 0 0.702 173.7324 43.4416)" class="st3 st4">   </text>
	<text transform="matrix(0.702 0 0 0.702 173.7324 43.4416)" class="st7 st3 st6">G</text>
	<text transform="matrix(0.702 0 0 0.702 178.7503 43.4416)" class="st3 st4"> </text>
	<text transform="matrix(0.702 0 0 0.702 174.0902 36.9385)" class="st3 st4">   </text>
	<text transform="matrix(0.702 0 0 0.702 174.0902 36.9385)" class="st7 st3 st6">A</text>
	<text transform="matrix(0.702 0 0 0.702 178.3932 36.9385)" class="st3 st4"> </text>
	<text transform="matrix(0.702 0 0 0.702 172.0446 30.7099)" class="st3 st4">   </text>
	<text transform="matrix(0.702 0 0 0.702 172.0446 30.7099)" class="st5 st3 st6">R</text>
	<text transform="matrix(0.702 0 0 0.702 176.7037 30.7099)" class="st3 st4"> </text>
	<path class="st2" d="M180.45,23.18c0,1.22-0.98,2.2-2.2,2.2s-2.2-0.98-2.2-2.2c0-1.22,0.98-2.2,2.2-2.2S180.45,21.96,180.45,23.18z
		"/>
	<path class="st2" d="M186.96,23.18c0,1.22-0.98,2.2-2.2,2.2s-2.2-0.98-2.2-2.2c0-1.22,0.98-2.2,2.2-2.2S186.96,21.96,186.96,23.18z
		"/>
	<path class="st8" d="M190.84,28.39c0,1.22-0.98,2.2-2.2,2.2s-2.2-0.98-2.2-2.2c0-1.22,0.98-2.2,2.2-2.2
		C189.85,26.19,190.84,27.18,190.84,28.39L190.84,28.39z"/>
	<text transform="matrix(0.702 0 0 0.702 184.4415 36.9385)" class="st3 st4">   </text>
	<text transform="matrix(0.702 0 0 0.702 184.4415 36.9385)" class="st7 st3 st6">U</text>
	<text transform="matrix(0.702 0 0 0.702 189.1009 36.9385)" class="st3 st4"> </text>
	<text transform="matrix(0.702 0 0 0.702 184.4415 43.4416)" class="st3 st4">   </text>
	<text transform="matrix(0.702 0 0 0.702 184.4415 43.4416)" class="st7 st3 st6">C</text>
	<text transform="matrix(0.702 0 0 0.702 189.1009 43.4416)" class="st3 st4"> </text>
	<text transform="matrix(0.702 0 0 0.702 184.2612 49.9448)" class="st3 st4">   </text>
	<text transform="matrix(0.702 0 0 0.702 184.2612 49.9448)" class="st7 st3 st6">G</text>
	<text transform="matrix(0.702 0 0 0.702 189.2792 49.9448)" class="st3 st4"> </text>
	<text transform="matrix(0.702 0 0 0.702 190.751 50.3558)" class="st3 st4">   </text>
	<text transform="matrix(0.702 0 0 0.702 190.751 50.3558)" class="st5 st3 st6">G</text>
	<text transform="matrix(0.702 0 0 0.702 195.7696 50.3558)" class="st3 st4"> </text>
	<text transform="matrix(0.702 0 0 0.702 196.4216 53.8419)" class="st3 st4">   </text>
	<text transform="matrix(0.702 0 0 0.702 196.4216 53.8419)" class="st7 st3 st6">C</text>
	<text transform="matrix(0.702 0 0 0.702 201.0803 53.8419)" class="st3 st4"> </text>
	<text transform="matrix(0.702 0 0 0.702 199.3727 59.5413)" class="st3 st4">   </text>
	<text transform="matrix(0.702 0 0 0.702 199.3727 59.5413)" class="st7 st3 st6">G</text>
	<text transform="matrix(0.702 0 0 0.702 204.3907 59.5413)" class="st3 st4"> </text>
	<text transform="matrix(0.702 0 0 0.702 199.3727 66.0441)" class="st3 st4">   </text>
	<text transform="matrix(0.702 0 0 0.702 199.3727 66.0441)" class="st7 st3 st6">G</text>
	<text transform="matrix(0.702 0 0 0.702 204.3907 66.0441)" class="st3 st4"> </text>
	<text transform="matrix(0.702 0 0 0.702 196.4216 71.7428)" class="st3 st4">   </text>
	<text transform="matrix(0.702 0 0 0.702 196.4216 71.7428)" class="st7 st3 st6">R</text>
	<text transform="matrix(0.702 0 0 0.702 201.0803 71.7428)" class="st3 st4"> </text>
	<text transform="matrix(0.702 0 0 0.702 190.9319 75.2297)" class="st3 st4">   </text>
	<text transform="matrix(0.702 0 0 0.702 190.9319 75.2297)" class="st5 st3 st6">U</text>
	<text transform="matrix(0.702 0 0 0.702 195.5914 75.2297)" class="st3 st4"> </text>
	<text transform="matrix(0.702 0 0 0.702 184.2612 75.6407)" class="st3 st4">   </text>
	<text transform="matrix(0.702 0 0 0.702 184.2612 75.6407)" class="st3 st6">G</text>
	<text transform="matrix(0.702 0 0 0.702 189.2792 75.6407)" class="st3 st4"> </text>
	<text transform="matrix(0.702 0 0 0.702 184.619 82.1438)" class="st3 st4">   </text>
	<text transform="matrix(0.702 0 0 0.702 184.619 82.1438)" class="st5 st3 st6">Y</text>
	<text transform="matrix(0.702 0 0 0.702 188.922 82.1438)" class="st3 st4"> </text>
	<text transform="matrix(0.702 0 0 0.702 184.4415 88.6473)" class="st3 st4">   </text>
	<text transform="matrix(0.702 0 0 0.702 184.4415 88.6473)" class="st5 st3 st6">C</text>
	<text transform="matrix(0.702 0 0 0.702 189.1009 88.6473)" class="st3 st4"> </text>
	<text transform="matrix(0.702 0 0 0.702 184.619 95.1501)" class="st3 st4">   </text>
	<text transform="matrix(0.702 0 0 0.702 184.619 95.1501)" class="st3 st6">Y</text>
	<text transform="matrix(0.702 0 0 0.702 188.922 95.1501)" class="st3 st4"> </text>
	<text transform="matrix(0.702 0 0 0.702 184.619 101.6536)" class="st3 st4">   </text>
	<text transform="matrix(0.702 0 0 0.702 184.619 101.6536)" class="st7 st3 st6">Y</text>
	<text transform="matrix(0.702 0 0 0.702 188.922 101.6536)" class="st3 st4"> </text>
	<text transform="matrix(0.702 0 0 0.702 184.619 108.1564)" class="st3 st4">   </text>
	<text transform="matrix(0.702 0 0 0.702 184.619 108.1564)" class="st5 st3 st6">Y</text>
	<text transform="matrix(0.702 0 0 0.702 188.922 108.1564)" class="st3 st4"> </text>
	<text transform="matrix(0.702 0 0 0.702 193.6391 117.3533)" class="st3 st4">   </text>
	<text transform="matrix(0.702 0 0 0.702 193.6391 117.3533)" class="st5 st3 st6">C</text>
	<text transform="matrix(0.702 0 0 0.702 198.2985 117.3533)" class="st3 st4"> </text>
	<text transform="matrix(0.702 0 0 0.702 199.9616 117.3533)" class="st3 st4">   </text>
	<text transform="matrix(0.702 0 0 0.702 199.9616 117.3533)" class="st7 st3 st6">G</text>
	<text transform="matrix(0.702 0 0 0.702 204.9795 117.3533)" class="st3 st4"> </text>
	<text transform="matrix(0.702 0 0 0.702 206.4644 117.3533)" class="st3 st4">   </text>
	<text transform="matrix(0.702 0 0 0.702 206.4644 117.3533)" class="st7 st3 st6">G</text>
	<text transform="matrix(0.702 0 0 0.702 211.4823 117.3533)" class="st3 st4"> </text>
	<path class="st2" d="M217.68,115.04c0,1.22-0.98,2.2-2.2,2.2s-2.2-0.98-2.2-2.2s0.98-2.2,2.2-2.2
		C216.69,112.84,217.68,113.82,217.68,115.04z"/>
	<path class="st8" d="M224.18,115.04c0,1.22-0.98,2.2-2.2,2.2s-2.2-0.98-2.2-2.2s0.98-2.2,2.2-2.2S224.18,113.82,224.18,115.04z"/>
	<path class="st9" d="M230.68,115.04c0,1.22-0.98,2.2-2.2,2.2s-2.2-0.98-2.2-2.2s0.98-2.2,2.2-2.2
		C229.7,112.84,230.68,113.82,230.68,115.04z"/>
	<path class="st10" d="M237.19,115.04c0,1.22-0.99,2.2-2.2,2.2c-1.21,0-2.19-0.98-2.2-2.2c0-1.22,0.99-2.2,2.2-2.2
		C236.2,112.84,237.18,113.83,237.19,115.04z"/>
	<path class="st2" d="M243.42,113.17c0,1.22-0.99,2.2-2.2,2.2c-1.21,0-2.19-0.98-2.2-2.2c0-1.22,0.99-2.2,2.2-2.2
		S243.41,111.96,243.42,113.17z"/>
	<path class="st2" d="M248.63,117.05c0,1.22-0.99,2.2-2.2,2.2c-1.21,0-2.19-0.98-2.2-2.2c0-1.22,0.99-2.2,2.2-2.2
		C247.65,114.86,248.63,115.84,248.63,117.05z"/>
	<path class="st2" d="M248.63,123.55c0,1.22-0.99,2.2-2.2,2.2c-1.21,0-2.19-0.98-2.2-2.2c0-1.22,0.99-2.2,2.2-2.2
		C247.65,121.36,248.63,122.34,248.63,123.55z"/>
	<path class="st2" d="M243.42,127.43c0,1.22-0.99,2.2-2.2,2.2c-1.21,0-2.19-0.98-2.2-2.2c0-1.22,0.99-2.2,2.2-2.2
		C242.43,125.24,243.41,126.22,243.42,127.43z"/>
	<path class="st9" d="M237.19,125.57c0,1.22-0.99,2.2-2.2,2.2c-1.21,0-2.19-0.98-2.2-2.2c0-1.22,0.99-2.2,2.2-2.2
		S237.18,124.35,237.19,125.57z"/>
	<text transform="matrix(0.702 0 0 0.702 226.1551 127.8821)" class="st3 st4">   </text>
	<text transform="matrix(0.702 0 0 0.702 226.1551 127.8821)" class="st5 st3 st6">C</text>
	<text transform="matrix(0.702 0 0 0.702 230.8132 127.8821)" class="st3 st4"> </text>
	<path class="st8" d="M224.18,125.57c0,1.22-0.98,2.2-2.2,2.2s-2.2-0.98-2.2-2.2c0-1.22,0.98-2.2,2.2-2.2
		S224.18,124.35,224.18,125.57z"/>
	<path class="st2" d="M217.68,125.57c0,1.22-0.98,2.2-2.2,2.2s-2.2-0.98-2.2-2.2c0-1.22,0.98-2.2,2.2-2.2
		C216.69,123.37,217.68,124.35,217.68,125.57z"/>
	<text transform="matrix(0.702 0 0 0.702 206.8222 127.8821)" class="st3 st4">   </text>
	<text transform="matrix(0.702 0 0 0.702 206.8222 127.8821)" class="st7 st3 st6">Y</text>
	<text transform="matrix(0.702 0 0 0.702 211.1259 127.8821)" class="st3 st4"> </text>
	<text transform="matrix(0.702 0 0 0.702 200.1419 127.8821)" class="st3 st4">   </text>
	<text transform="matrix(0.702 0 0 0.702 200.1419 127.8821)" class="st7 st3 st6">C</text>
	<text transform="matrix(0.702 0 0 0.702 204.8013 127.8821)" class="st3 st4"> </text>
	<text transform="matrix(0.702 0 0 0.702 193.4581 127.8821)" class="st3 st4">   </text>
	<text transform="matrix(0.702 0 0 0.702 193.4581 127.8821)" class="st5 st3 st6">G</text>
	<text transform="matrix(0.702 0 0 0.702 198.4767 127.8821)" class="st3 st4"> </text>
	<text transform="matrix(0.702 0 0 0.702 189.2175 132.4805)" class="st3 st4">   </text>
	<text transform="matrix(0.702 0 0 0.702 189.2175 132.4805)" class="st5 st3 st6">Y</text>
	<text transform="matrix(0.702 0 0 0.702 193.5205 132.4805)" class="st3 st4"> </text>
	<text transform="matrix(0.702 0 0 0.702 189.2175 138.984)" class="st3 st4">   </text>
	<text transform="matrix(0.702 0 0 0.702 189.2175 138.984)" class="st5 st3 st6">Y</text>
	<text transform="matrix(0.702 0 0 0.702 193.5205 138.984)" class="st3 st4"> </text>
	<text transform="matrix(0.702 0 0 0.702 189.2175 145.4875)" class="st3 st4">   </text>
	<text transform="matrix(0.702 0 0 0.702 189.2175 145.4875)" class="st7 st3 st6">A</text>
	<text transform="matrix(0.702 0 0 0.702 193.5205 145.4875)" class="st3 st4"> </text>
	<text transform="matrix(0.702 0 0 0.702 189.0406 151.9903)" class="st3 st4">   </text>
	<text transform="matrix(0.702 0 0 0.702 189.0406 151.9903)" class="st5 st3 st6">R</text>
	<text transform="matrix(0.702 0 0 0.702 193.6994 151.9903)" class="st3 st4"> </text>
	<path class="st2" d="M193.57,156.18c0,1.22-0.98,2.2-2.2,2.2s-2.2-0.98-2.2-2.2s0.98-2.2,2.2-2.2S193.57,154.96,193.57,156.18z"/>
	<path class="st2" d="M198.17,160.78c0,1.21-0.99,2.2-2.2,2.2c-1.21,0-2.19-0.98-2.2-2.2c0-1.22,0.99-2.2,2.2-2.2
		C197.18,158.58,198.17,159.56,198.17,160.78z"/>
	<text transform="matrix(0.702 0 0 0.702 200.3194 163.0916)" class="st3 st4">   </text>
	<text transform="matrix(0.702 0 0 0.702 200.3194 163.0916)" class="st5 st3 st6">Y</text>
	<text transform="matrix(0.702 0 0 0.702 204.6224 163.0916)" class="st3 st4"> </text>
	<path class="st2" d="M211.17,160.78c0,1.22-0.98,2.2-2.2,2.2s-2.2-0.98-2.2-2.2s0.98-2.2,2.2-2.2S211.17,159.56,211.17,160.78
		L211.17,160.78z"/>
	<path class="st2" d="M217.68,160.78c0,1.22-0.98,2.2-2.2,2.2s-2.2-0.98-2.2-2.2s0.98-2.2,2.2-2.2
		C216.69,158.58,217.68,159.56,217.68,160.78L217.68,160.78z"/>
	<path class="st2" d="M224.18,160.78c0,1.22-0.98,2.2-2.2,2.2c-1.21,0-2.2-0.98-2.2-2.2s0.98-2.2,2.2-2.2
		S224.18,159.56,224.18,160.78L224.18,160.78z"/>
	<path class="st9" d="M230.68,160.78c0,1.22-0.98,2.2-2.2,2.2s-2.2-0.98-2.2-2.2s0.98-2.2,2.2-2.2S230.68,159.56,230.68,160.78
		L230.68,160.78z"/>
	<path class="st9" d="M233.39,154.86c0,1.22-0.98,2.2-2.2,2.2c-1.21,0-2.2-0.98-2.2-2.2s0.98-2.2,2.2-2.2
		C232.4,152.66,233.39,153.65,233.39,154.86z"/>
	<path class="st2" d="M237.85,150.13c0,1.22-0.98,2.2-2.2,2.2s-2.2-0.98-2.2-2.2s0.98-2.2,2.2-2.2
		C236.86,147.93,237.85,148.91,237.85,150.13z"/>
	<text transform="matrix(0.702 0 0 0.702 239.2361 149.3867)" class="st3 st4">   </text>
	<text transform="matrix(0.702 0 0 0.702 239.2361 149.3867)" class="st5 st3 st6">Y</text>
	<text transform="matrix(0.702 0 0 0.702 243.5391 149.3867)" class="st3 st4"> </text>
	<text transform="matrix(0.702 0 0 0.702 245.6526 148.3304)" class="st3 st4">   </text>
	<text transform="matrix(0.702 0 0 0.702 245.6526 148.3304)" class="st7 st3 st6">A</text>
	<text transform="matrix(0.702 0 0 0.702 249.9556 148.3304)" class="st3 st4"> </text>
	<text transform="matrix(0.702 0 0 0.702 252.069 149.3867)" class="st3 st4">   </text>
	<text transform="matrix(0.702 0 0 0.702 252.069 149.3867)" class="st7 st3 st6">A</text>
	<text transform="matrix(0.702 0 0 0.702 256.372 149.3867)" class="st3 st4"> </text>
	<text transform="matrix(0.702 0 0 0.702 257.8095 152.4428)" class="st3 st4">   </text>
	<text transform="matrix(0.702 0 0 0.702 257.8095 152.4428)" class="st7 st3 st6">A</text>
	<text transform="matrix(0.702 0 0 0.702 262.1125 152.4428)" class="st3 st4"> </text>
	<path class="st2" d="M266.62,154.86c0,1.21-0.99,2.2-2.2,2.2c-1.21,0-2.19-0.98-2.2-2.2c0-1.22,0.99-2.2,2.2-2.2
		C265.63,152.67,266.62,153.65,266.62,154.86z"/>
	<path class="st8" d="M269.32,160.78c0,1.21-0.99,2.2-2.2,2.2c-1.21,0-2.19-0.98-2.2-2.2c0-1.22,0.99-2.2,2.2-2.2
		C268.34,158.58,269.32,159.56,269.32,160.78z"/>
	<path class="st2" d="M275.83,160.78c0,1.21-0.99,2.2-2.2,2.2c-1.21,0-2.19-0.98-2.2-2.2c0-1.22,0.99-2.2,2.2-2.2
		S275.83,159.56,275.83,160.78z"/>
	<path class="st2" d="M282.33,160.78c0,1.21-0.99,2.2-2.2,2.2s-2.19-0.98-2.2-2.2c0-1.22,0.99-2.2,2.2-2.2
		C281.35,158.58,282.33,159.56,282.33,160.78z"/>
	<path class="st2" d="M288.83,160.78c0,1.22-0.98,2.2-2.2,2.2c-1.21,0-2.2-0.98-2.2-2.2s0.98-2.2,2.2-2.2
		C287.85,158.58,288.83,159.56,288.83,160.78z"/>
	<path class="st2" d="M295.34,160.78c0,1.22-0.98,2.2-2.2,2.2c-1.21,0-2.2-0.98-2.2-2.2s0.98-2.2,2.2-2.2
		C294.35,158.58,295.34,159.56,295.34,160.78z"/>
	<text transform="matrix(0.702 0 0 0.702 297.3117 163.0916)" class="st3 st4">   </text>
	<text transform="matrix(0.702 0 0 0.702 297.3117 163.0916)" class="st5 st3 st6">R</text>
	<text transform="matrix(0.702 0 0 0.702 301.9704 163.0916)" class="st3 st4"> </text>
	<text transform="matrix(0.702 0 0 0.702 303.8145 163.0916)" class="st3 st4">   </text>
	<text transform="matrix(0.702 0 0 0.702 303.8145 163.0916)" class="st5 st3 st6">R</text>
	<text transform="matrix(0.702 0 0 0.702 308.4739 163.0916)" class="st3 st4"> </text>
	<text transform="matrix(0.702 0 0 0.702 309.8628 161.2229)" class="st3 st4">   </text>
	<text transform="matrix(0.702 0 0 0.702 309.8628 161.2229)" class="st7 st3 st6">G</text>
	<text transform="matrix(0.702 0 0 0.702 314.8814 161.2229)" class="st3 st4"> </text>
	<text transform="matrix(0.702 0 0 0.702 315.2612 165.1042)" class="st3 st4">   </text>
	<text transform="matrix(0.702 0 0 0.702 315.2612 165.1042)" class="st5 st3 st6">U</text>
	<text transform="matrix(0.702 0 0 0.702 319.9193 165.1042)" class="st3 st4"> </text>
	<text transform="matrix(0.702 0 0 0.702 315.0802 171.6077)" class="st3 st4">   </text>
	<text transform="matrix(0.702 0 0 0.702 315.0802 171.6077)" class="st5 st3 st6">G</text>
	<text transform="matrix(0.702 0 0 0.702 320.0982 171.6077)" class="st3 st4"> </text>
	<text transform="matrix(0.702 0 0 0.702 310.2206 175.4891)" class="st3 st4">   </text>
	<text transform="matrix(0.702 0 0 0.702 310.2206 175.4891)" class="st7 st3 st6">A</text>
	<text transform="matrix(0.702 0 0 0.702 314.5236 175.4891)" class="st3 st4"> </text>
	<text transform="matrix(0.702 0 0 0.702 303.992 173.6211)" class="st3 st4">   </text>
	<text transform="matrix(0.702 0 0 0.702 303.992 173.6211)" class="st5 st3 st6">Y</text>
	<text transform="matrix(0.702 0 0 0.702 308.295 173.6211)" class="st3 st4"> </text>
	<text transform="matrix(0.702 0 0 0.702 297.4892 173.6211)" class="st3 st4">   </text>
	<text transform="matrix(0.702 0 0 0.702 297.4892 173.6211)" class="st5 st3 st6">Y</text>
	<text transform="matrix(0.702 0 0 0.702 301.7922 173.6211)" class="st3 st4"> </text>
	<path class="st2" d="M295.34,171.3c0,1.22-0.98,2.2-2.2,2.2c-1.21,0-2.2-0.98-2.2-2.2s0.98-2.2,2.2-2.2
		C294.35,169.1,295.34,170.09,295.34,171.3z"/>
	<path class="st2" d="M288.83,171.3c0,1.22-0.98,2.2-2.2,2.2c-1.21,0-2.2-0.98-2.2-2.2s0.98-2.2,2.2-2.2
		C287.85,169.1,288.83,170.09,288.83,171.3z"/>
	<path class="st2" d="M282.33,171.3c0,1.21-0.99,2.2-2.2,2.2s-2.19-0.98-2.2-2.2c0-1.22,0.99-2.2,2.2-2.2
		C281.35,169.11,282.33,170.09,282.33,171.3z"/>
	<path class="st2" d="M275.83,171.3c0,1.21-0.99,2.2-2.2,2.2c-1.21,0-2.19-0.98-2.2-2.2c0-1.22,0.99-2.2,2.2-2.2
		C274.84,169.11,275.83,170.09,275.83,171.3z"/>
	<path class="st8" d="M269.32,171.3c0,1.21-0.99,2.2-2.2,2.2c-1.21,0-2.19-0.98-2.2-2.2c0-1.22,0.99-2.2,2.2-2.2
		C268.34,169.11,269.32,170.09,269.32,171.3z"/>
	<path class="st2" d="M267.91,177.65c0,1.22-0.98,2.2-2.2,2.2c-1.21,0-2.2-0.98-2.2-2.2s0.98-2.2,2.2-2.2
		C266.92,175.45,267.91,176.44,267.91,177.65L267.91,177.65z"/>
	<text transform="matrix(0.702 0 0 0.702 260.1149 185.4853)" class="st3 st4">   </text>
	<text transform="matrix(0.702 0 0 0.702 260.1149 185.4853)" class="st7 st3 st6">A</text>
	<text transform="matrix(0.702 0 0 0.702 264.4179 185.4853)" class="st3 st4"> </text>
	<text transform="matrix(0.702 0 0 0.702 254.8618 189.5518)" class="st3 st4">   </text>
	<text transform="matrix(0.702 0 0 0.702 254.8618 189.5518)" class="st5 st3 st6">C</text>
	<text transform="matrix(0.702 0 0 0.702 259.5219 189.5518)" class="st3 st4"> </text>
	<text transform="matrix(0.702 0 0 0.702 248.904 191.7064)" class="st3 st4">   </text>
	<text transform="matrix(0.702 0 0 0.702 248.904 191.7064)" class="st7 st3 st6">A</text>
	<text transform="matrix(0.702 0 0 0.702 253.207 191.7064)" class="st3 st4"> </text>
	<text transform="matrix(0.702 0 0 0.702 242.2236 191.7064)" class="st3 st4">   </text>
	<text transform="matrix(0.702 0 0 0.702 242.2236 191.7064)" class="st7 st3 st6">R</text>
	<text transform="matrix(0.702 0 0 0.702 246.8824 191.7064)" class="st3 st4"> </text>
	<text transform="matrix(0.702 0 0 0.702 236.2658 189.5518)" class="st3 st4">   </text>
	<text transform="matrix(0.702 0 0 0.702 236.2658 189.5518)" class="st7 st3 st6">A</text>
	<text transform="matrix(0.702 0 0 0.702 240.5688 189.5518)" class="st3 st4"> </text>
	<text transform="matrix(0.702 0 0 0.702 230.8324 185.4853)" class="st3 st4">   </text>
	<text transform="matrix(0.702 0 0 0.702 230.8324 185.4853)" class="st5 st3 st6">G</text>
	<text transform="matrix(0.702 0 0 0.702 235.8504 185.4853)" class="st3 st4"> </text>
	<path class="st9" d="M232.1,177.65c0,1.21-0.99,2.2-2.2,2.2c-1.21,0-2.19-0.98-2.2-2.2c0-1.22,0.99-2.2,2.2-2.2
		C231.12,175.46,232.1,176.44,232.1,177.65z"/>
	<path class="st9" d="M230.68,171.3c0,1.22-0.98,2.2-2.2,2.2s-2.2-0.98-2.2-2.2s0.98-2.2,2.2-2.2S230.68,170.09,230.68,171.3
		L230.68,171.3z"/>
	<path class="st2" d="M224.18,171.3c0,1.22-0.98,2.2-2.2,2.2c-1.21,0-2.2-0.98-2.2-2.2s0.98-2.2,2.2-2.2S224.18,170.09,224.18,171.3
		L224.18,171.3z"/>
	<path class="st2" d="M217.68,171.3c0,1.22-0.98,2.2-2.2,2.2s-2.2-0.98-2.2-2.2s0.98-2.2,2.2-2.2
		C216.69,169.1,217.68,170.09,217.68,171.3L217.68,171.3z"/>
	<path class="st2" d="M211.17,171.3c0,1.22-0.98,2.2-2.2,2.2s-2.2-0.98-2.2-2.2s0.98-2.2,2.2-2.2S211.17,170.09,211.17,171.3
		L211.17,171.3z"/>
	<text transform="matrix(0.702 0 0 0.702 200.1419 173.6211)" class="st3 st4">   </text>
	<text transform="matrix(0.702 0 0 0.702 200.1419 173.6211)" class="st5 st3 st6">R</text>
	<text transform="matrix(0.702 0 0 0.702 204.8013 173.6211)" class="st3 st4"> </text>
	<path class="st2" d="M198.17,171.3c0,1.21-0.99,2.2-2.2,2.2c-1.21,0-2.19-0.98-2.2-2.2c0-1.22,0.99-2.2,2.2-2.2
		C197.18,169.11,198.17,170.09,198.17,171.3z"/>
	<path class="st2" d="M193.57,175.9c0,1.22-0.98,2.2-2.2,2.2s-2.2-0.98-2.2-2.2s0.98-2.2,2.2-2.2S193.57,174.69,193.57,175.9z"/>
	<text transform="matrix(0.702 0 0 0.702 189.0406 184.7216)" class="st3 st4">   </text>
	<text transform="matrix(0.702 0 0 0.702 189.0406 184.7216)" class="st7 st3 st6">R</text>
	<text transform="matrix(0.702 0 0 0.702 193.6994 184.7216)" class="st3 st4"> </text>
	<path class="st2" d="M193.57,188.91c0,1.22-0.98,2.2-2.2,2.2s-2.2-0.98-2.2-2.2s0.98-2.2,2.2-2.2S193.57,187.69,193.57,188.91z"/>
	<path class="st2" d="M193.57,195.41c0,1.22-0.98,2.2-2.2,2.2s-2.2-0.98-2.2-2.2s0.98-2.2,2.2-2.2S193.57,194.2,193.57,195.41z"/>
	<path class="st2" d="M193.57,201.92c0,1.22-0.98,2.2-2.2,2.2c-1.21,0-2.2-0.98-2.2-2.2s0.98-2.2,2.2-2.2
		S193.57,200.7,193.57,201.92L193.57,201.92z"/>
	<path class="st2" d="M193.57,208.42c0,1.22-0.98,2.2-2.2,2.2s-2.2-0.98-2.2-2.2s0.98-2.2,2.2-2.2S193.57,207.2,193.57,208.42z"/>
	<path class="st2" d="M193.57,214.92c0,1.22-0.98,2.2-2.2,2.2s-2.2-0.98-2.2-2.2s0.98-2.2,2.2-2.2S193.57,213.71,193.57,214.92z"/>
	<path class="st2" d="M193.57,221.43c0,1.22-0.98,2.2-2.2,2.2c-1.21,0-2.2-0.98-2.2-2.2s0.98-2.2,2.2-2.2
		S193.57,220.21,193.57,221.43L193.57,221.43z"/>
	<path class="st2" d="M193.57,227.93c0,1.22-0.98,2.2-2.2,2.2s-2.2-0.98-2.2-2.2s0.98-2.2,2.2-2.2S193.57,226.71,193.57,227.93z"/>
	<text transform="matrix(0.702 0 0 0.702 189.0406 236.7461)" class="st3 st4">   </text>
	<text transform="matrix(0.702 0 0 0.702 189.0406 236.7461)" class="st5 st3 st6">R</text>
	<text transform="matrix(0.702 0 0 0.702 193.6994 236.7461)" class="st3 st4"> </text>
	<path class="st2" d="M193.57,240.93c0,1.22-0.98,2.2-2.2,2.2s-2.2-0.98-2.2-2.2s0.98-2.2,2.2-2.2S193.57,239.72,193.57,240.93z"/>
	<path class="st11" d="M54.37,110.44h3.25"/>
	<text transform="matrix(0.702 0 0 0.702 48.261 112.7541)" class="st3 st4">   </text>
	<text transform="matrix(0.702 0 0 0.702 48.261 112.7541)" class="st3 st6">5&apos;</text>
	<text transform="matrix(0.702 0 0 0.702 53.0806 112.7541)" class="st3 st4"> </text>
</g>
<g>
	<path class="st12" d="M19.62,373.98l0.84-0.08c0.07,0.42,0.2,0.72,0.41,0.9c0.2,0.19,0.45,0.28,0.77,0.28
		c0.27,0,0.5-0.06,0.71-0.19c0.2-0.13,0.37-0.3,0.49-0.52c0.13-0.22,0.23-0.51,0.32-0.87c0.08-0.37,0.13-0.74,0.13-1.12
		c0-0.04,0-0.1-0.01-0.18c-0.17,0.29-0.41,0.53-0.71,0.71s-0.63,0.27-0.98,0.27c-0.58,0-1.08-0.23-1.48-0.67
		c-0.41-0.45-0.61-1.04-0.61-1.78c0-0.76,0.21-1.37,0.64-1.84c0.42-0.46,0.96-0.69,1.6-0.69c0.46,0,0.89,0.13,1.27,0.39
		c0.38,0.26,0.67,0.63,0.87,1.12c0.2,0.48,0.3,1.19,0.3,2.1c0,0.96-0.1,1.72-0.3,2.28c-0.19,0.57-0.49,1-0.88,1.29
		c-0.39,0.3-0.85,0.44-1.37,0.44c-0.56,0-1.01-0.16-1.37-0.49C19.9,375.02,19.69,374.57,19.62,373.98z M23.19,370.68
		c0-0.53-0.13-0.95-0.39-1.26c-0.27-0.31-0.58-0.47-0.96-0.47c-0.4,0-0.73,0.17-1.02,0.5c-0.28,0.33-0.43,0.77-0.43,1.3
		c0,0.48,0.14,0.86,0.4,1.16c0.27,0.3,0.61,0.45,1.01,0.45s0.73-0.15,0.99-0.45C23.06,371.62,23.19,371.21,23.19,370.68z"/>
	<path class="st12" d="M25.04,372.02c0-0.88,0.09-1.6,0.26-2.14s0.43-0.96,0.78-1.25s0.78-0.43,1.3-0.43c0.39,0,0.73,0.08,1.02,0.24
		s0.53,0.39,0.72,0.7c0.19,0.3,0.33,0.68,0.44,1.11c0.11,0.44,0.16,1.03,0.16,1.77c0,0.88-0.09,1.59-0.26,2.13s-0.43,0.96-0.78,1.25
		c-0.34,0.29-0.78,0.43-1.3,0.43c-0.69,0-1.23-0.26-1.63-0.77C25.27,374.44,25.04,373.43,25.04,372.02z M25.94,372.02
		c0,1.23,0.14,2.05,0.42,2.46c0.28,0.4,0.62,0.6,1.02,0.6c0.41,0,0.75-0.2,1.02-0.61c0.27-0.4,0.41-1.22,0.41-2.46
		c0-1.23-0.14-2.05-0.41-2.46s-0.62-0.61-1.04-0.61c-0.4,0-0.73,0.18-0.98,0.54C26.09,369.95,25.94,370.79,25.94,372.02z"/>
	<path class="st12" d="M30.73,370.02c0-0.54,0.13-0.99,0.38-1.37c0.26-0.38,0.62-0.56,1.11-0.56c0.45,0,0.82,0.17,1.11,0.5
		c0.29,0.34,0.44,0.83,0.44,1.48c0,0.63-0.15,1.12-0.44,1.47c-0.3,0.34-0.66,0.51-1.1,0.51c-0.43,0-0.79-0.17-1.07-0.51
		C30.87,371.22,30.73,370.71,30.73,370.02z M32.25,368.75c-0.22,0-0.4,0.1-0.55,0.29c-0.14,0.2-0.22,0.55-0.22,1.07
		c0,0.47,0.07,0.81,0.22,1s0.33,0.29,0.54,0.29c0.22,0,0.4-0.1,0.55-0.29c0.15-0.2,0.22-0.55,0.22-1.07c0-0.48-0.07-0.81-0.22-1.01
		C32.65,368.85,32.46,368.75,32.25,368.75z M32.25,376l3.94-7.9h0.73l-3.94,7.9H32.25z M35.38,373.97c0-0.54,0.13-0.99,0.38-1.37
		c0.26-0.37,0.63-0.56,1.11-0.56c0.45,0,0.82,0.17,1.11,0.5c0.3,0.34,0.44,0.83,0.44,1.48c0,0.63-0.15,1.12-0.44,1.46
		c-0.3,0.34-0.66,0.51-1.1,0.51c-0.43,0-0.79-0.17-1.07-0.51C35.53,375.16,35.38,374.65,35.38,373.97z M36.9,372.69
		c-0.22,0-0.4,0.1-0.55,0.29c-0.15,0.2-0.22,0.55-0.22,1.07c0,0.47,0.07,0.8,0.22,1c0.15,0.19,0.33,0.29,0.54,0.29
		c0.23,0,0.41-0.1,0.55-0.29c0.14-0.2,0.22-0.55,0.22-1.07c0-0.48-0.07-0.81-0.22-1.01C37.31,372.79,37.12,372.69,36.9,372.69z"/>
</g>
<path class="st13" d="M16.19,372.65c0,1.61-1.3,2.91-2.9,2.91c-1.61,0-2.91-1.3-2.91-2.91s1.3-2.91,2.91-2.91
	C14.89,369.74,16.19,371.04,16.19,372.65"/>
<circle class="st14" cx="13.28" cy="372.65" r="2.91"/>
<g>
	<path class="st12" d="M19.62,363.63l0.84-0.08c0.07,0.42,0.2,0.72,0.41,0.9c0.2,0.19,0.45,0.28,0.77,0.28
		c0.27,0,0.5-0.06,0.71-0.19c0.2-0.13,0.37-0.3,0.49-0.52c0.13-0.21,0.23-0.51,0.32-0.87c0.08-0.37,0.13-0.74,0.13-1.12
		c0-0.04,0-0.1-0.01-0.18c-0.17,0.29-0.41,0.53-0.71,0.71s-0.63,0.27-0.98,0.27c-0.58,0-1.08-0.23-1.48-0.67
		c-0.41-0.45-0.61-1.04-0.61-1.78c0-0.76,0.21-1.37,0.64-1.84c0.42-0.46,0.96-0.69,1.6-0.69c0.46,0,0.89,0.13,1.27,0.39
		c0.38,0.26,0.67,0.64,0.87,1.12c0.2,0.48,0.3,1.19,0.3,2.1c0,0.96-0.1,1.72-0.3,2.28c-0.19,0.57-0.49,1-0.88,1.29
		c-0.39,0.3-0.85,0.44-1.37,0.44c-0.56,0-1.01-0.16-1.37-0.49C19.9,364.67,19.69,364.22,19.62,363.63z M23.19,360.33
		c0-0.53-0.13-0.95-0.39-1.26c-0.27-0.31-0.58-0.46-0.96-0.46c-0.4,0-0.73,0.17-1.02,0.5c-0.28,0.33-0.43,0.77-0.43,1.3
		c0,0.48,0.14,0.87,0.4,1.16c0.27,0.3,0.61,0.45,1.01,0.45s0.73-0.15,0.99-0.45C23.06,361.27,23.19,360.86,23.19,360.33z"/>
	<path class="st12" d="M25.1,358.85v-0.88h4.61v0.71c-0.45,0.51-0.9,1.18-1.35,2.03c-0.44,0.84-0.79,1.71-1.03,2.6
		c-0.18,0.63-0.29,1.32-0.34,2.06h-0.9c0.01-0.59,0.12-1.3,0.33-2.14c0.21-0.83,0.51-1.64,0.9-2.42c0.4-0.77,0.81-1.43,1.26-1.96
		L25.1,358.85L25.1,358.85L25.1,358.85z"/>
	<path class="st12" d="M30.73,359.67c0-0.54,0.13-0.99,0.38-1.36c0.26-0.38,0.62-0.56,1.11-0.56c0.45,0,0.82,0.17,1.11,0.5
		c0.29,0.34,0.44,0.83,0.44,1.48c0,0.63-0.15,1.12-0.44,1.47c-0.3,0.34-0.66,0.51-1.1,0.51c-0.43,0-0.79-0.17-1.07-0.51
		C30.87,360.87,30.73,360.36,30.73,359.67z M32.25,358.4c-0.22,0-0.4,0.1-0.55,0.29c-0.14,0.19-0.22,0.55-0.22,1.07
		c0,0.47,0.07,0.81,0.22,1s0.33,0.29,0.54,0.29c0.22,0,0.4-0.1,0.55-0.29s0.22-0.55,0.22-1.07c0-0.48-0.07-0.81-0.22-1.01
		C32.65,358.5,32.46,358.4,32.25,358.4z M32.25,365.65l3.94-7.9h0.73l-3.94,7.9H32.25z M35.38,363.62c0-0.54,0.13-0.99,0.38-1.37
		c0.26-0.37,0.63-0.56,1.11-0.56c0.45,0,0.82,0.17,1.11,0.5c0.3,0.34,0.44,0.83,0.44,1.48c0,0.63-0.15,1.12-0.44,1.46
		c-0.3,0.34-0.66,0.51-1.1,0.51c-0.43,0-0.79-0.17-1.07-0.51C35.53,364.8,35.38,364.29,35.38,363.62z M36.9,362.34
		c-0.22,0-0.4,0.1-0.55,0.29c-0.15,0.2-0.22,0.55-0.22,1.07c0,0.47,0.07,0.8,0.22,1c0.15,0.19,0.33,0.29,0.54,0.29
		c0.23,0,0.41-0.1,0.55-0.29s0.22-0.55,0.22-1.07c0-0.48-0.07-0.81-0.22-1.01C37.31,362.44,37.12,362.34,36.9,362.34z"/>
</g>
<path class="st15" d="M16.19,362.3c0,1.61-1.3,2.91-2.91,2.91s-2.91-1.3-2.91-2.91s1.3-2.91,2.91-2.91S16.19,360.69,16.19,362.3"/>
<circle class="st14" cx="13.28" cy="362.3" r="2.91"/>
<g>
	<path class="st12" d="M54.85,358.85v-0.88h4.62v0.71c-0.46,0.51-0.9,1.18-1.35,2.03c-0.45,0.84-0.79,1.71-1.03,2.6
		c-0.17,0.63-0.29,1.32-0.34,2.06h-0.9c0.01-0.59,0.12-1.3,0.33-2.14c0.21-0.83,0.51-1.64,0.9-2.42c0.39-0.78,0.81-1.43,1.26-1.96
		L54.85,358.85L54.85,358.85L54.85,358.85z"/>
	<path class="st12" d="M60.33,363.4l0.9-0.08c0.07,0.47,0.22,0.82,0.47,1.06c0.24,0.23,0.55,0.35,0.9,0.35
		c0.43,0,0.79-0.17,1.08-0.5s0.43-0.77,0.43-1.32c0-0.52-0.14-0.94-0.41-1.24s-0.64-0.45-1.1-0.45c-0.29,0-0.54,0.07-0.76,0.2
		c-0.22,0.13-0.4,0.3-0.53,0.52l-0.82-0.12l0.69-3.84h3.53v0.88h-2.84l-0.39,2.02c0.43-0.32,0.87-0.47,1.34-0.47
		c0.62,0,1.14,0.23,1.56,0.68c0.43,0.45,0.64,1.03,0.64,1.74c0,0.68-0.19,1.26-0.56,1.76c-0.46,0.6-1.08,0.91-1.87,0.91
		c-0.65,0-1.17-0.19-1.59-0.57C60.63,364.54,60.39,364.03,60.33,363.4z"/>
	<path class="st12" d="M66.02,359.67c0-0.54,0.13-0.99,0.38-1.36c0.26-0.38,0.62-0.56,1.11-0.56c0.45,0,0.82,0.17,1.11,0.5
		c0.29,0.34,0.44,0.83,0.44,1.48c0,0.63-0.15,1.12-0.45,1.47c-0.3,0.34-0.66,0.51-1.1,0.51c-0.43,0-0.79-0.17-1.07-0.51
		C66.17,360.87,66.02,360.36,66.02,359.67z M67.54,358.4c-0.22,0-0.4,0.1-0.55,0.29c-0.14,0.19-0.22,0.55-0.22,1.07
		c0,0.47,0.07,0.81,0.22,1c0.15,0.19,0.33,0.29,0.54,0.29c0.22,0,0.4-0.1,0.55-0.29c0.15-0.19,0.22-0.55,0.22-1.07
		c0-0.48-0.07-0.81-0.22-1.01C67.94,358.5,67.76,358.4,67.54,358.4z M67.55,365.65l3.94-7.9h0.73l-3.94,7.9H67.55z M70.68,363.62
		c0-0.54,0.13-0.99,0.38-1.37c0.26-0.37,0.63-0.56,1.12-0.56c0.44,0,0.81,0.17,1.11,0.5c0.3,0.34,0.44,0.83,0.44,1.48
		c0,0.63-0.15,1.12-0.44,1.46c-0.3,0.34-0.66,0.51-1.1,0.51c-0.43,0-0.79-0.17-1.07-0.51C70.82,364.8,70.68,364.29,70.68,363.62z
		 M72.2,362.34c-0.22,0-0.4,0.1-0.55,0.29c-0.14,0.2-0.22,0.55-0.22,1.07c0,0.47,0.07,0.8,0.22,1c0.15,0.19,0.33,0.29,0.54,0.29
		c0.23,0,0.41-0.1,0.55-0.29s0.22-0.55,0.22-1.07c0-0.48-0.07-0.81-0.22-1.01C72.6,362.44,72.42,362.34,72.2,362.34z"/>
</g>
<g>
	<path class="st16" d="M51.49,362.29c0,1.61-1.3,2.91-2.91,2.91c-1.6,0-2.9-1.3-2.9-2.91c0-1.61,1.3-2.91,2.9-2.91
		C50.18,359.38,51.49,360.69,51.49,362.29"/>
	<circle class="st14" cx="48.58" cy="362.29" r="2.91"/>
</g>
<circle class="st14" cx="48.58" cy="372.65" r="2.91"/>
<g>
	<path class="st12" d="M54.79,373.75l0.9-0.08c0.07,0.47,0.22,0.82,0.47,1.06c0.24,0.24,0.55,0.35,0.9,0.35
		c0.43,0,0.79-0.17,1.08-0.5s0.43-0.77,0.43-1.32c0-0.52-0.14-0.94-0.41-1.24s-0.64-0.45-1.1-0.45c-0.29,0-0.54,0.07-0.76,0.2
		c-0.22,0.13-0.4,0.3-0.52,0.52l-0.82-0.12l0.69-3.84h3.53v0.88h-2.83l-0.39,2.02c0.43-0.32,0.87-0.47,1.34-0.47
		c0.62,0,1.14,0.23,1.57,0.68c0.42,0.45,0.64,1.03,0.64,1.74c0,0.68-0.19,1.26-0.56,1.76c-0.46,0.61-1.08,0.91-1.87,0.91
		c-0.65,0-1.18-0.19-1.59-0.57C55.08,374.88,54.85,374.38,54.79,373.75z"/>
	<path class="st12" d="M60.33,372.02c0-0.88,0.09-1.6,0.26-2.14s0.43-0.96,0.78-1.25s0.78-0.43,1.3-0.43c0.38,0,0.73,0.08,1.02,0.24
		s0.53,0.39,0.72,0.7c0.19,0.3,0.33,0.68,0.44,1.11c0.11,0.44,0.16,1.03,0.16,1.77c0,0.88-0.09,1.59-0.26,2.13
		c-0.18,0.54-0.43,0.96-0.78,1.25c-0.34,0.29-0.78,0.43-1.3,0.43c-0.69,0-1.23-0.26-1.63-0.76
		C60.57,374.44,60.33,373.42,60.33,372.02z M61.23,372.02c0,1.24,0.14,2.06,0.41,2.46c0.28,0.4,0.62,0.61,1.02,0.61
		c0.41,0,0.75-0.2,1.02-0.61c0.27-0.4,0.42-1.22,0.42-2.46c0-1.23-0.14-2.05-0.41-2.46c-0.27-0.4-0.62-0.61-1.04-0.61
		c-0.4,0-0.73,0.18-0.98,0.54C61.38,369.94,61.23,370.79,61.23,372.02z"/>
	<path class="st12" d="M66.02,370.02c0-0.54,0.13-0.99,0.38-1.36c0.26-0.38,0.62-0.56,1.11-0.56c0.45,0,0.82,0.17,1.11,0.5
		c0.29,0.34,0.44,0.83,0.44,1.48c0,0.63-0.15,1.12-0.45,1.46s-0.66,0.51-1.1,0.51c-0.43,0-0.79-0.17-1.07-0.51
		S66.02,370.7,66.02,370.02z M67.54,368.75c-0.22,0-0.4,0.1-0.55,0.29c-0.14,0.19-0.22,0.55-0.22,1.07c0,0.47,0.07,0.81,0.22,1
		c0.15,0.19,0.33,0.29,0.54,0.29c0.22,0,0.4-0.1,0.55-0.29c0.15-0.19,0.22-0.55,0.22-1.07c0-0.48-0.07-0.81-0.22-1.01
		C67.94,368.84,67.76,368.75,67.54,368.75z M67.55,376l3.94-7.9h0.73l-3.94,7.9H67.55z M70.68,373.96c0-0.54,0.13-0.99,0.38-1.37
		c0.26-0.37,0.63-0.56,1.12-0.56c0.44,0,0.81,0.17,1.11,0.5c0.3,0.34,0.44,0.83,0.44,1.48c0,0.63-0.15,1.12-0.44,1.47
		c-0.3,0.34-0.66,0.51-1.1,0.51c-0.43,0-0.79-0.17-1.07-0.51C70.82,375.15,70.68,374.64,70.68,373.96z M72.2,372.69
		c-0.22,0-0.4,0.1-0.55,0.29c-0.14,0.2-0.22,0.55-0.22,1.07c0,0.47,0.07,0.8,0.22,1c0.15,0.19,0.33,0.29,0.54,0.29
		c0.23,0,0.41-0.1,0.55-0.29c0.14-0.2,0.22-0.55,0.22-1.07c0-0.48-0.07-0.81-0.22-1.01C72.6,372.79,72.42,372.69,72.2,372.69z"/>
</g>
<g>
	<path class="st12" d="M9.47,348.87v-5.43h0.79v0.77c0.38-0.6,0.92-0.89,1.64-0.89c0.31,0,0.59,0.06,0.85,0.18s0.46,0.27,0.58,0.46
		c0.13,0.19,0.22,0.42,0.27,0.68c0.03,0.17,0.05,0.47,0.05,0.9v3.34h-0.9v-3.31c0-0.38-0.03-0.66-0.1-0.84
		c-0.07-0.18-0.19-0.33-0.35-0.45c-0.17-0.11-0.37-0.17-0.6-0.17c-0.37,0-0.69,0.12-0.95,0.37c-0.27,0.25-0.4,0.72-0.4,1.42v2.97
		L9.47,348.87L9.47,348.87z"/>
	<path class="st12" d="M18.41,348.87v-0.8c-0.4,0.62-0.95,0.92-1.64,0.92c-0.31,0-0.59-0.06-0.86-0.18
		c-0.27-0.12-0.46-0.28-0.59-0.46c-0.13-0.19-0.22-0.41-0.27-0.68c-0.04-0.18-0.05-0.47-0.05-0.86v-3.37h0.88v3.01
		c0,0.48,0.02,0.8,0.05,0.97c0.05,0.24,0.17,0.43,0.35,0.57s0.4,0.21,0.66,0.21s0.51-0.07,0.74-0.21c0.23-0.14,0.39-0.33,0.49-0.58
		c0.1-0.24,0.14-0.6,0.14-1.06v-2.91h0.88v5.43L18.41,348.87L18.41,348.87L18.41,348.87z"/>
	<path class="st12" d="M23.93,346.88l0.86,0.12c-0.09,0.62-0.33,1.1-0.72,1.46c-0.39,0.35-0.86,0.52-1.42,0.52
		c-0.7,0-1.27-0.24-1.7-0.73c-0.43-0.49-0.64-1.18-0.64-2.09c0-0.59,0.09-1.1,0.27-1.54s0.46-0.77,0.84-0.99
		c0.38-0.22,0.79-0.33,1.23-0.33c0.56,0,1.02,0.15,1.37,0.45c0.36,0.3,0.58,0.73,0.68,1.28l-0.86,0.12
		c-0.08-0.37-0.22-0.64-0.43-0.83c-0.2-0.18-0.45-0.28-0.74-0.28c-0.44,0-0.79,0.17-1.06,0.5c-0.27,0.33-0.41,0.86-0.41,1.58
		c0,0.73,0.13,1.26,0.4,1.59s0.61,0.5,1.03,0.5c0.34,0,0.62-0.11,0.85-0.33S23.87,347.34,23.93,346.88z"/>
	<path class="st12" d="M25.52,348.87v-7.5h0.88v7.5H25.52z"/>
	<path class="st12" d="M31.35,347.11l0.88,0.12c-0.14,0.56-0.41,0.99-0.8,1.3s-0.88,0.46-1.48,0.46c-0.76,0-1.36-0.24-1.8-0.74
		c-0.44-0.49-0.67-1.17-0.67-2.06c0-0.91,0.23-1.62,0.67-2.13c0.45-0.51,1.03-0.76,1.75-0.76c0.69,0,1.26,0.25,1.7,0.74
		c0.44,0.49,0.66,1.19,0.66,2.09c0,0.05,0,0.14-0.01,0.25h-3.88c0.03,0.6,0.2,1.05,0.49,1.36c0.29,0.32,0.66,0.47,1.1,0.47
		c0.32,0,0.6-0.09,0.84-0.27C31.02,347.79,31.21,347.5,31.35,347.11z M28.39,345.64h2.96c-0.04-0.46-0.15-0.81-0.34-1.04
		c-0.29-0.36-0.66-0.54-1.11-0.54c-0.41,0-0.76,0.14-1.04,0.43C28.58,344.78,28.42,345.16,28.39,345.64z"/>
	<path class="st12" d="M32.98,346.15c0-1.01,0.27-1.75,0.8-2.24c0.44-0.4,0.98-0.6,1.62-0.6c0.71,0,1.29,0.24,1.74,0.74
		c0.45,0.49,0.67,1.17,0.67,2.03c0,0.7-0.1,1.25-0.3,1.65s-0.49,0.71-0.87,0.93c-0.38,0.22-0.8,0.33-1.25,0.33
		c-0.72,0-1.31-0.24-1.75-0.73C33.2,347.77,32.98,347.06,32.98,346.15z M33.87,346.15c0,0.7,0.15,1.22,0.44,1.57
		c0.29,0.35,0.65,0.52,1.09,0.52s0.8-0.17,1.09-0.52c0.29-0.35,0.43-0.88,0.43-1.59c0-0.67-0.15-1.18-0.44-1.53
		c-0.29-0.35-0.65-0.52-1.08-0.52c-0.44,0-0.8,0.17-1.09,0.52C34.02,344.93,33.87,345.45,33.87,346.15z"/>
	<path class="st12" d="M40.77,348.05l0.12,0.81c-0.25,0.05-0.47,0.08-0.66,0.08c-0.32,0-0.57-0.05-0.74-0.16
		c-0.17-0.11-0.3-0.25-0.37-0.42s-0.1-0.54-0.1-1.09v-3.14h-0.65v-0.71h0.65v-1.34l0.88-0.55v1.89h0.88v0.71H39.9v3.17
		c0,0.26,0.02,0.43,0.05,0.51c0.03,0.07,0.08,0.13,0.15,0.18s0.17,0.07,0.3,0.07C40.48,348.07,40.61,348.06,40.77,348.05z"/>
	<path class="st12" d="M41.66,342.41v-1.04h0.88v1.04H41.66z M41.66,348.87v-5.43h0.88v5.43H41.66z"/>
	<path class="st12" d="M47.18,348.87v-0.68c-0.33,0.54-0.81,0.81-1.45,0.81c-0.41,0-0.79-0.12-1.14-0.36s-0.62-0.57-0.81-1
		c-0.19-0.43-0.28-0.92-0.28-1.48c0-0.54,0.08-1.03,0.26-1.48c0.17-0.44,0.43-0.78,0.77-1.02s0.73-0.35,1.15-0.35
		c0.31,0,0.59,0.07,0.83,0.2c0.24,0.14,0.44,0.32,0.59,0.54v-2.68h0.88v7.5L47.18,348.87L47.18,348.87L47.18,348.87z M44.4,346.15
		c0,0.7,0.14,1.22,0.42,1.56c0.28,0.35,0.61,0.52,0.99,0.52c0.39,0,0.71-0.17,0.98-0.49c0.27-0.33,0.4-0.83,0.4-1.51
		c0-0.74-0.14-1.29-0.41-1.64s-0.61-0.52-1.01-0.52c-0.39,0-0.72,0.17-0.98,0.5C44.53,344.9,44.4,345.43,44.4,346.15z"/>
	<path class="st12" d="M52.96,347.11l0.88,0.12c-0.14,0.56-0.41,0.99-0.8,1.3s-0.89,0.46-1.48,0.46c-0.76,0-1.36-0.24-1.8-0.74
		c-0.45-0.49-0.67-1.17-0.67-2.06c0-0.91,0.22-1.62,0.67-2.13c0.45-0.51,1.03-0.76,1.75-0.76c0.69,0,1.26,0.25,1.7,0.74
		c0.44,0.5,0.66,1.19,0.66,2.09c0,0.05,0,0.14-0.01,0.25h-3.88c0.03,0.6,0.19,1.05,0.49,1.36c0.29,0.32,0.66,0.47,1.1,0.47
		c0.33,0,0.61-0.09,0.84-0.27C52.65,347.79,52.83,347.5,52.96,347.11z M50.01,345.64h2.96c-0.04-0.46-0.15-0.81-0.34-1.04
		c-0.29-0.36-0.66-0.54-1.11-0.54c-0.41,0-0.76,0.14-1.04,0.43C50.19,344.78,50.04,345.16,50.01,345.64z"/>
</g>
<g>
	<path class="st12" d="M57.97,350.34v-7.52h0.8v0.7c0.19-0.27,0.4-0.48,0.64-0.62c0.24-0.14,0.53-0.2,0.86-0.2
		c0.44,0,0.83,0.12,1.17,0.36c0.34,0.24,0.59,0.57,0.77,1.01c0.17,0.44,0.26,0.91,0.26,1.43c0,0.56-0.09,1.06-0.28,1.5
		c-0.19,0.45-0.46,0.79-0.83,1.02c-0.36,0.24-0.74,0.36-1.14,0.36c-0.29,0-0.56-0.07-0.79-0.19c-0.23-0.13-0.42-0.29-0.57-0.49v2.65
		L57.97,350.34L57.97,350.34z M58.75,345.57c0,0.7,0.14,1.22,0.41,1.55s0.6,0.5,0.98,0.5c0.39,0,0.73-0.17,1.01-0.52
		c0.28-0.35,0.42-0.88,0.42-1.61c0-0.69-0.14-1.21-0.41-1.56s-0.6-0.52-0.98-0.52s-0.71,0.18-1,0.55
		C58.89,344.33,58.75,344.87,58.75,345.57z"/>
	<path class="st12" d="M63.54,348.26v-5.43h0.8v0.83c0.2-0.39,0.38-0.65,0.55-0.77s0.35-0.18,0.56-0.18c0.29,0,0.59,0.1,0.89,0.3
		l-0.31,0.85c-0.21-0.12-0.42-0.18-0.63-0.18c-0.19,0-0.36,0.06-0.51,0.18c-0.15,0.12-0.26,0.29-0.32,0.5
		c-0.1,0.33-0.15,0.68-0.15,1.07v2.84h-0.88V348.26z"/>
	<path class="st12" d="M70.39,346.5l0.88,0.12c-0.14,0.56-0.41,0.99-0.8,1.29c-0.39,0.31-0.88,0.46-1.48,0.46
		c-0.76,0-1.36-0.24-1.81-0.73c-0.44-0.49-0.67-1.18-0.67-2.06c0-0.91,0.23-1.62,0.67-2.13c0.45-0.5,1.03-0.76,1.75-0.76
		c0.69,0,1.26,0.25,1.7,0.74c0.44,0.5,0.66,1.19,0.66,2.09c0,0.06,0,0.14-0.01,0.25H67.4c0.03,0.6,0.2,1.05,0.49,1.37
		c0.3,0.32,0.66,0.47,1.1,0.47c0.33,0,0.61-0.09,0.84-0.27C70.08,347.18,70.26,346.89,70.39,346.5z M67.44,345.03h2.96
		c-0.04-0.46-0.15-0.81-0.34-1.04c-0.29-0.36-0.66-0.54-1.11-0.54c-0.41,0-0.76,0.14-1.04,0.43
		C67.63,344.17,67.47,344.55,67.44,345.03z"/>
	<path class="st12" d="M72.02,346.62l0.86-0.12c0.05,0.36,0.18,0.64,0.4,0.83c0.22,0.19,0.53,0.29,0.93,0.29
		c0.4,0,0.7-0.09,0.89-0.26c0.2-0.17,0.29-0.38,0.29-0.61c0-0.21-0.09-0.37-0.27-0.49c-0.12-0.08-0.42-0.19-0.89-0.31
		c-0.64-0.17-1.08-0.32-1.32-0.44c-0.24-0.12-0.43-0.3-0.56-0.52c-0.13-0.22-0.19-0.46-0.19-0.73c0-0.24,0.05-0.46,0.15-0.67
		c0.1-0.21,0.25-0.38,0.43-0.51c0.14-0.11,0.32-0.2,0.55-0.27c0.23-0.07,0.48-0.11,0.75-0.11c0.4,0,0.76,0.06,1.06,0.18
		c0.3,0.12,0.53,0.29,0.67,0.5c0.15,0.21,0.24,0.49,0.3,0.84l-0.86,0.12c-0.04-0.28-0.15-0.5-0.33-0.66
		c-0.19-0.16-0.45-0.24-0.78-0.24c-0.4,0-0.68,0.07-0.85,0.21c-0.17,0.14-0.26,0.3-0.26,0.49c0,0.12,0.03,0.23,0.1,0.32
		c0.07,0.1,0.18,0.18,0.33,0.25c0.09,0.03,0.34,0.11,0.77,0.24c0.61,0.17,1.04,0.32,1.29,0.43s0.44,0.27,0.58,0.48
		c0.14,0.21,0.21,0.47,0.21,0.79c0,0.31-0.08,0.6-0.25,0.87s-0.41,0.48-0.73,0.63c-0.32,0.15-0.68,0.22-1.08,0.22
		c-0.67,0-1.18-0.15-1.53-0.44C72.35,347.64,72.12,347.2,72.02,346.62z"/>
	<path class="st12" d="M80.92,346.5l0.88,0.12c-0.14,0.56-0.41,0.99-0.8,1.29c-0.39,0.31-0.88,0.46-1.48,0.46
		c-0.76,0-1.36-0.24-1.8-0.73c-0.45-0.49-0.67-1.18-0.67-2.06c0-0.91,0.23-1.62,0.68-2.13c0.45-0.5,1.03-0.76,1.75-0.76
		c0.69,0,1.26,0.25,1.7,0.74c0.44,0.5,0.66,1.19,0.66,2.09c0,0.06,0,0.14-0.01,0.25h-3.88c0.03,0.6,0.19,1.05,0.49,1.37
		c0.29,0.32,0.66,0.47,1.1,0.47c0.33,0,0.6-0.09,0.83-0.27C80.6,347.18,80.79,346.89,80.92,346.5z M77.97,345.03h2.96
		c-0.04-0.46-0.15-0.81-0.34-1.04c-0.29-0.36-0.66-0.54-1.11-0.54c-0.41,0-0.76,0.14-1.04,0.43C78.15,344.17,78,344.55,77.97,345.03
		z"/>
	<path class="st12" d="M82.88,348.26v-5.43h0.8v0.77c0.38-0.6,0.92-0.89,1.64-0.89c0.31,0,0.59,0.06,0.85,0.18
		c0.26,0.12,0.45,0.27,0.58,0.46s0.22,0.42,0.27,0.68c0.03,0.17,0.05,0.47,0.05,0.9v3.34h-0.9v-3.31c0-0.38-0.03-0.65-0.1-0.84
		c-0.07-0.19-0.19-0.33-0.36-0.45c-0.17-0.11-0.37-0.17-0.6-0.17c-0.37,0-0.68,0.12-0.95,0.38c-0.27,0.25-0.4,0.72-0.4,1.42v2.97
		L82.88,348.26L82.88,348.26z"/>
	<path class="st12" d="M90.31,347.44l0.12,0.81c-0.25,0.06-0.47,0.08-0.66,0.08c-0.32,0-0.56-0.05-0.74-0.16
		c-0.18-0.11-0.3-0.25-0.37-0.42c-0.07-0.17-0.11-0.54-0.11-1.09v-3.13H87.9v-0.71h0.65v-1.34l0.88-0.55v1.89h0.88v0.71h-0.88v3.17
		c0,0.26,0.02,0.43,0.05,0.51c0.03,0.08,0.08,0.14,0.15,0.18c0.07,0.04,0.17,0.07,0.3,0.07C90.03,347.46,90.16,347.45,90.31,347.44z
		"/>
</g>
<g>
	<path class="st17" d="M23.19,330.48l0.86,0.12c-0.09,0.62-0.33,1.1-0.72,1.46c-0.39,0.35-0.86,0.53-1.42,0.53
		c-0.7,0-1.27-0.24-1.7-0.73c-0.43-0.49-0.64-1.18-0.64-2.09c0-0.59,0.09-1.1,0.27-1.54c0.19-0.44,0.46-0.77,0.84-0.99
		c0.38-0.22,0.79-0.33,1.23-0.33c0.56,0,1.01,0.15,1.37,0.45c0.36,0.3,0.58,0.73,0.68,1.28l-0.86,0.12
		c-0.08-0.37-0.22-0.64-0.43-0.83c-0.2-0.19-0.45-0.28-0.74-0.28c-0.44,0-0.79,0.17-1.06,0.5c-0.27,0.33-0.41,0.86-0.41,1.58
		c0,0.73,0.13,1.26,0.4,1.59c0.26,0.33,0.61,0.5,1.03,0.5c0.34,0,0.63-0.11,0.85-0.33C22.98,331.27,23.13,330.93,23.19,330.48z"/>
	<path class="st17" d="M24.42,329.74c0-1.01,0.27-1.75,0.8-2.24c0.44-0.4,0.98-0.6,1.63-0.6c0.71,0,1.29,0.24,1.74,0.74
		c0.45,0.49,0.68,1.17,0.68,2.03c0,0.7-0.1,1.25-0.3,1.65c-0.2,0.4-0.49,0.71-0.87,0.93c-0.38,0.22-0.8,0.33-1.25,0.33
		c-0.73,0-1.31-0.24-1.76-0.73C24.65,331.36,24.42,330.66,24.42,329.74z M25.32,329.74c0,0.7,0.14,1.22,0.43,1.57
		s0.65,0.52,1.09,0.52c0.43,0,0.79-0.17,1.08-0.52c0.29-0.35,0.43-0.88,0.43-1.59c0-0.67-0.15-1.18-0.44-1.53s-0.65-0.52-1.08-0.52
		c-0.44,0-0.8,0.17-1.09,0.52C25.47,328.52,25.32,329.04,25.32,329.74z"/>
	<path class="st17" d="M31.64,332.46l-1.95-5.43h0.94l1.11,3.25c0.12,0.35,0.23,0.72,0.33,1.1c0.08-0.29,0.19-0.63,0.33-1.03
		l1.15-3.31h0.9l-1.95,5.43h-0.86V332.46z"/>
	<path class="st17" d="M38.46,331.78c-0.32,0.29-0.63,0.5-0.93,0.62s-0.63,0.18-0.97,0.18c-0.57,0-1.01-0.15-1.31-0.44
		c-0.31-0.29-0.46-0.67-0.46-1.12c0-0.27,0.06-0.51,0.17-0.73c0.12-0.22,0.27-0.4,0.45-0.53c0.19-0.13,0.4-0.23,0.63-0.3
		c0.17-0.05,0.43-0.09,0.78-0.14c0.71-0.09,1.23-0.19,1.57-0.32c0-0.13,0-0.21,0-0.24c0-0.38-0.08-0.64-0.25-0.8
		c-0.23-0.21-0.56-0.31-1-0.31c-0.41,0-0.72,0.08-0.91,0.23c-0.2,0.15-0.34,0.42-0.44,0.81l-0.88-0.12c0.08-0.39,0.21-0.7,0.39-0.94
		s0.44-0.42,0.78-0.55c0.34-0.13,0.73-0.19,1.18-0.19c0.44,0,0.8,0.05,1.08,0.16c0.28,0.11,0.48,0.25,0.61,0.41
		c0.13,0.17,0.22,0.38,0.27,0.63c0.03,0.16,0.04,0.44,0.04,0.85v1.23c0,0.86,0.02,1.4,0.05,1.62s0.11,0.44,0.21,0.65h-0.9
		C38.55,332.26,38.49,332.04,38.46,331.78z M38.4,329.72c-0.32,0.14-0.8,0.26-1.44,0.35c-0.36,0.05-0.62,0.12-0.77,0.19
		s-0.27,0.17-0.35,0.3c-0.08,0.13-0.12,0.28-0.12,0.44c0,0.25,0.09,0.45,0.27,0.62c0.18,0.17,0.44,0.25,0.78,0.25
		s0.64-0.08,0.9-0.23c0.27-0.16,0.46-0.37,0.58-0.64c0.1-0.21,0.14-0.52,0.14-0.93L38.4,329.72z"/>
	<path class="st17" d="M40.62,332.46v-5.43h0.8v0.83c0.2-0.39,0.38-0.64,0.55-0.77c0.17-0.12,0.35-0.19,0.56-0.19
		c0.3,0,0.59,0.1,0.89,0.3l-0.31,0.84c-0.21-0.12-0.42-0.18-0.63-0.18c-0.19,0-0.36,0.06-0.51,0.18c-0.15,0.12-0.26,0.29-0.32,0.5
		c-0.1,0.33-0.15,0.68-0.15,1.07v2.84h-0.88V332.46z"/>
	<path class="st17" d="M44.13,334.55l-0.12-0.85c0.19,0.05,0.37,0.08,0.52,0.08c0.2,0,0.36-0.03,0.48-0.1s0.22-0.16,0.3-0.29
		c0.06-0.09,0.15-0.32,0.27-0.69c0.02-0.05,0.04-0.13,0.08-0.23l-1.98-5.46h0.94l1.09,3.14c0.14,0.4,0.27,0.82,0.38,1.25
		c0.1-0.41,0.22-0.82,0.36-1.22l1.1-3.18h0.88l-1.93,5.53c-0.21,0.6-0.38,1-0.5,1.23c-0.16,0.3-0.34,0.52-0.55,0.67
		c-0.2,0.14-0.45,0.21-0.73,0.21C44.54,334.66,44.35,334.63,44.13,334.55z"/>
	<path class="st17" d="M49.2,326v-1.04h0.88V326H49.2z M49.2,332.46v-5.43h0.88v5.43H49.2z"/>
	<path class="st17" d="M51.37,332.46v-5.43h0.8v0.77c0.38-0.6,0.92-0.89,1.64-0.89c0.31,0,0.6,0.06,0.85,0.18
		c0.26,0.12,0.46,0.27,0.58,0.46c0.13,0.19,0.22,0.42,0.27,0.68c0.03,0.17,0.05,0.47,0.05,0.9v3.34h-0.9v-3.31
		c0-0.38-0.03-0.66-0.1-0.84c-0.07-0.19-0.19-0.33-0.36-0.44c-0.17-0.11-0.37-0.17-0.6-0.17c-0.37,0-0.69,0.12-0.95,0.38
		c-0.27,0.25-0.4,0.72-0.4,1.42v2.97L51.37,332.46L51.37,332.46z"/>
	<path class="st17" d="M56.76,332.91l0.88,0.12c0.04,0.28,0.14,0.49,0.3,0.62c0.22,0.17,0.51,0.26,0.88,0.26
		c0.4,0,0.71-0.09,0.93-0.26s0.37-0.41,0.44-0.72c0.05-0.19,0.07-0.58,0.06-1.19c-0.38,0.48-0.86,0.72-1.44,0.72
		c-0.71,0-1.27-0.27-1.66-0.81s-0.58-1.18-0.58-1.94c0-0.52,0.09-1,0.27-1.43c0.18-0.44,0.44-0.78,0.78-1.02s0.74-0.36,1.2-0.36
		c0.61,0,1.11,0.27,1.51,0.8v-0.67h0.8v4.7c0,0.85-0.08,1.44-0.25,1.8c-0.16,0.35-0.42,0.63-0.78,0.84
		c-0.35,0.2-0.79,0.31-1.31,0.31c-0.62,0-1.11-0.15-1.49-0.44C56.93,333.93,56.75,333.49,56.76,332.91z M57.48,329.64
		c0,0.71,0.14,1.24,0.41,1.57c0.27,0.33,0.61,0.49,1.02,0.49c0.4,0,0.74-0.16,1.02-0.49c0.27-0.33,0.41-0.84,0.41-1.54
		c0-0.67-0.14-1.17-0.42-1.51s-0.62-0.51-1.02-0.51c-0.39,0-0.73,0.17-1,0.5C57.61,328.49,57.48,328.99,57.48,329.64z"/>
	<path class="st17" d="M65.24,332.46v-5.43h0.77v0.76c0.16-0.26,0.38-0.48,0.65-0.64s0.57-0.24,0.92-0.24c0.38,0,0.7,0.08,0.94,0.25
		s0.42,0.4,0.52,0.7c0.41-0.63,0.95-0.95,1.6-0.95c0.52,0,0.91,0.15,1.19,0.45c0.28,0.3,0.41,0.76,0.41,1.38v3.73h-0.88v-3.42
		c0-0.37-0.03-0.63-0.09-0.8c-0.06-0.16-0.16-0.29-0.31-0.39c-0.15-0.1-0.33-0.15-0.52-0.15c-0.36,0-0.67,0.13-0.9,0.38
		c-0.24,0.25-0.36,0.66-0.36,1.22v3.16H68.3v-3.53c0-0.41-0.07-0.72-0.21-0.92s-0.38-0.31-0.7-0.31c-0.24,0-0.47,0.07-0.68,0.2
		c-0.21,0.14-0.36,0.34-0.45,0.6s-0.14,0.64-0.14,1.14v2.82h-0.88V332.46L65.24,332.46z"/>
	<path class="st17" d="M76.93,332.46v-0.8c-0.4,0.61-0.95,0.92-1.64,0.92c-0.31,0-0.59-0.06-0.85-0.18
		c-0.27-0.12-0.46-0.28-0.59-0.46c-0.13-0.19-0.22-0.41-0.27-0.68c-0.04-0.18-0.05-0.47-0.05-0.86v-3.37h0.88v3.01
		c0,0.48,0.02,0.8,0.05,0.97c0.05,0.24,0.17,0.43,0.35,0.57c0.18,0.14,0.4,0.21,0.66,0.21c0.26,0,0.51-0.07,0.74-0.21
		c0.23-0.14,0.39-0.33,0.49-0.58c0.09-0.24,0.14-0.6,0.14-1.06v-2.91h0.88v5.43L76.93,332.46L76.93,332.46z"/>
	<path class="st17" d="M81,331.64l0.12,0.81c-0.24,0.05-0.47,0.08-0.66,0.08c-0.32,0-0.56-0.05-0.74-0.16
		c-0.18-0.11-0.3-0.25-0.37-0.42c-0.07-0.17-0.11-0.54-0.11-1.09v-3.13h-0.65v-0.71h0.65v-1.34l0.88-0.55v1.89H81v0.71h-0.88v3.17
		c0,0.26,0.02,0.43,0.05,0.51c0.03,0.08,0.08,0.14,0.15,0.18c0.07,0.04,0.17,0.07,0.3,0.07C80.71,331.66,80.84,331.65,81,331.64z"/>
	<path class="st17" d="M85.24,331.78c-0.32,0.29-0.63,0.5-0.93,0.62s-0.63,0.18-0.97,0.18c-0.57,0-1.01-0.15-1.31-0.44
		c-0.31-0.29-0.46-0.67-0.46-1.12c0-0.27,0.06-0.51,0.17-0.73c0.12-0.22,0.27-0.4,0.46-0.53s0.4-0.23,0.63-0.3
		c0.17-0.05,0.43-0.09,0.78-0.14c0.71-0.09,1.23-0.19,1.57-0.32c0-0.13,0-0.21,0-0.24c0-0.38-0.08-0.64-0.25-0.8
		c-0.23-0.21-0.56-0.31-1-0.31c-0.41,0-0.72,0.08-0.91,0.23c-0.2,0.15-0.34,0.42-0.44,0.81l-0.88-0.12c0.08-0.39,0.21-0.7,0.39-0.94
		c0.18-0.24,0.44-0.42,0.78-0.55c0.34-0.13,0.73-0.19,1.18-0.19c0.44,0,0.8,0.05,1.08,0.16c0.28,0.11,0.48,0.25,0.61,0.41
		c0.13,0.17,0.22,0.38,0.27,0.63c0.03,0.16,0.04,0.44,0.04,0.85v1.23c0,0.86,0.02,1.4,0.05,1.62c0.03,0.23,0.11,0.44,0.21,0.65h-0.9
		C85.33,332.26,85.27,332.04,85.24,331.78z M85.18,329.72c-0.32,0.14-0.8,0.26-1.44,0.35c-0.36,0.05-0.62,0.12-0.77,0.19
		c-0.15,0.07-0.27,0.17-0.35,0.3c-0.08,0.13-0.12,0.28-0.12,0.44c0,0.25,0.09,0.45,0.27,0.62c0.18,0.17,0.44,0.25,0.78,0.25
		s0.64-0.08,0.9-0.23c0.26-0.16,0.46-0.37,0.58-0.64c0.1-0.21,0.14-0.52,0.14-0.93L85.18,329.72z"/>
	<path class="st17" d="M89.29,331.64l0.12,0.81c-0.24,0.05-0.47,0.08-0.66,0.08c-0.32,0-0.56-0.05-0.74-0.16
		c-0.18-0.11-0.3-0.25-0.37-0.42c-0.07-0.17-0.11-0.54-0.11-1.09v-3.13h-0.65v-0.71h0.65v-1.34l0.88-0.55v1.89h0.88v0.71h-0.88v3.17
		c0,0.26,0.02,0.43,0.05,0.51c0.03,0.08,0.08,0.14,0.15,0.18c0.07,0.04,0.17,0.07,0.3,0.07C89,331.66,89.13,331.65,89.29,331.64z"/>
	<path class="st17" d="M90.18,326v-1.04h0.88V326H90.18z M90.18,332.46v-5.43h0.88v5.43H90.18z"/>
	<path class="st17" d="M92.02,329.74c0-1.01,0.27-1.75,0.8-2.24c0.44-0.4,0.98-0.6,1.63-0.6c0.71,0,1.29,0.24,1.74,0.74
		c0.45,0.49,0.68,1.17,0.68,2.03c0,0.7-0.1,1.25-0.3,1.65c-0.2,0.4-0.49,0.71-0.87,0.93s-0.8,0.33-1.25,0.33
		c-0.73,0-1.31-0.24-1.75-0.73C92.25,331.36,92.02,330.66,92.02,329.74z M92.92,329.74c0,0.7,0.14,1.22,0.43,1.57
		c0.29,0.35,0.65,0.52,1.09,0.52c0.43,0,0.8-0.17,1.09-0.52c0.29-0.35,0.43-0.88,0.43-1.59c0-0.67-0.15-1.18-0.44-1.53
		c-0.29-0.35-0.65-0.52-1.08-0.52c-0.44,0-0.8,0.17-1.09,0.52C93.07,328.52,92.92,329.04,92.92,329.74z"/>
	<path class="st17" d="M97.9,332.46v-5.43h0.8v0.77c0.38-0.6,0.92-0.89,1.63-0.89c0.31,0,0.6,0.06,0.85,0.18
		c0.26,0.12,0.46,0.27,0.58,0.46c0.13,0.19,0.22,0.42,0.27,0.68c0.03,0.17,0.05,0.47,0.05,0.9v3.34h-0.9v-3.31
		c0-0.38-0.03-0.66-0.1-0.84c-0.07-0.18-0.19-0.33-0.36-0.44c-0.17-0.11-0.37-0.17-0.6-0.17c-0.37,0-0.68,0.12-0.95,0.38
		c-0.27,0.25-0.4,0.72-0.4,1.42v2.97L97.9,332.46L97.9,332.46z"/>
	<path class="st17" d="M103.11,330.82l0.86-0.12c0.05,0.36,0.18,0.64,0.4,0.83c0.22,0.19,0.53,0.29,0.93,0.29
		c0.4,0,0.7-0.09,0.89-0.26s0.29-0.38,0.29-0.61c0-0.21-0.09-0.37-0.27-0.49c-0.12-0.08-0.42-0.19-0.89-0.31
		c-0.64-0.17-1.08-0.32-1.32-0.44c-0.24-0.12-0.43-0.3-0.56-0.52c-0.13-0.22-0.19-0.46-0.19-0.73c0-0.24,0.05-0.47,0.15-0.67
		c0.1-0.21,0.25-0.38,0.43-0.52c0.14-0.11,0.32-0.19,0.55-0.27c0.23-0.08,0.48-0.11,0.75-0.11c0.4,0,0.76,0.06,1.06,0.19
		c0.3,0.12,0.53,0.29,0.67,0.5c0.15,0.21,0.25,0.49,0.3,0.85l-0.86,0.12c-0.04-0.28-0.15-0.5-0.34-0.66
		c-0.19-0.16-0.45-0.24-0.78-0.24c-0.4,0-0.68,0.07-0.85,0.21c-0.17,0.14-0.26,0.3-0.26,0.49c0,0.12,0.03,0.23,0.11,0.32
		c0.07,0.1,0.18,0.18,0.33,0.25c0.09,0.03,0.34,0.11,0.77,0.24c0.61,0.17,1.04,0.32,1.29,0.43s0.44,0.27,0.58,0.48
		c0.14,0.21,0.21,0.47,0.21,0.79c0,0.31-0.08,0.6-0.25,0.87s-0.41,0.48-0.73,0.63c-0.32,0.15-0.68,0.22-1.08,0.22
		c-0.67,0-1.18-0.15-1.53-0.44C103.43,331.84,103.21,331.4,103.11,330.82z"/>
</g>
<g>
	<path class="st17" d="M9.49,320.23H8.67v-7.5h0.88v2.67c0.37-0.49,0.85-0.73,1.42-0.73c0.32,0,0.62,0.07,0.9,0.2
		c0.28,0.14,0.52,0.32,0.7,0.57c0.18,0.24,0.33,0.54,0.43,0.88c0.1,0.35,0.15,0.71,0.15,1.1c0,0.93-0.22,1.65-0.66,2.16
		s-0.97,0.76-1.58,0.76s-1.09-0.27-1.44-0.8L9.49,320.23L9.49,320.23z M9.47,317.47c0,0.65,0.09,1.12,0.26,1.41
		c0.28,0.47,0.65,0.71,1.12,0.71c0.38,0,0.72-0.17,1-0.52c0.28-0.35,0.42-0.87,0.42-1.56c0-0.71-0.14-1.23-0.4-1.57
		c-0.27-0.34-0.59-0.51-0.98-0.51s-0.72,0.18-1,0.52C9.61,316.3,9.47,316.81,9.47,317.47z"/>
	<path class="st17" d="M17.63,319.56c-0.32,0.29-0.63,0.5-0.94,0.62c-0.3,0.12-0.62,0.18-0.97,0.18c-0.57,0-1.01-0.14-1.32-0.44
		c-0.3-0.29-0.46-0.67-0.46-1.12c0-0.27,0.06-0.51,0.17-0.73s0.27-0.4,0.46-0.53s0.4-0.23,0.63-0.3c0.17-0.05,0.43-0.09,0.78-0.14
		c0.71-0.09,1.23-0.2,1.57-0.32c0-0.13,0.01-0.21,0.01-0.24c0-0.38-0.08-0.64-0.25-0.79c-0.22-0.21-0.56-0.31-1-0.31
		c-0.41,0-0.72,0.08-0.91,0.23c-0.2,0.15-0.34,0.42-0.43,0.81l-0.88-0.12c0.08-0.39,0.2-0.7,0.39-0.93
		c0.18-0.24,0.44-0.42,0.78-0.55c0.34-0.13,0.73-0.19,1.18-0.19c0.44,0,0.8,0.05,1.08,0.16c0.28,0.11,0.48,0.25,0.61,0.41
		c0.13,0.17,0.22,0.37,0.27,0.63c0.03,0.16,0.04,0.44,0.04,0.85v1.23c0,0.86,0.02,1.4,0.05,1.62c0.04,0.23,0.1,0.44,0.21,0.65h-0.9
		C17.72,320.04,17.66,319.81,17.63,319.56z M17.57,317.49c-0.32,0.14-0.8,0.25-1.44,0.35c-0.36,0.05-0.62,0.12-0.77,0.19
		c-0.15,0.07-0.27,0.17-0.35,0.3c-0.08,0.13-0.12,0.28-0.12,0.44c0,0.25,0.09,0.45,0.27,0.62c0.18,0.17,0.44,0.25,0.78,0.25
		s0.64-0.08,0.9-0.23c0.27-0.15,0.46-0.37,0.58-0.64c0.09-0.21,0.14-0.52,0.14-0.93L17.57,317.49z"/>
	<path class="st17" d="M19.46,318.6l0.86-0.12c0.05,0.36,0.18,0.64,0.4,0.83c0.22,0.19,0.53,0.29,0.93,0.29s0.7-0.09,0.89-0.26
		c0.19-0.17,0.29-0.38,0.29-0.61c0-0.21-0.09-0.37-0.26-0.49c-0.12-0.08-0.42-0.19-0.89-0.31c-0.64-0.17-1.08-0.32-1.32-0.44
		s-0.43-0.3-0.56-0.52s-0.19-0.46-0.19-0.73c0-0.24,0.05-0.46,0.16-0.67c0.11-0.21,0.25-0.38,0.43-0.51
		c0.14-0.11,0.32-0.2,0.56-0.27c0.23-0.07,0.48-0.11,0.75-0.11c0.4,0,0.76,0.06,1.06,0.19c0.3,0.12,0.53,0.29,0.67,0.5
		c0.15,0.21,0.25,0.49,0.3,0.84l-0.86,0.12c-0.04-0.28-0.15-0.5-0.33-0.66c-0.19-0.16-0.45-0.24-0.78-0.24
		c-0.4,0-0.68,0.07-0.85,0.21s-0.26,0.3-0.26,0.49c0,0.12,0.04,0.23,0.11,0.32c0.07,0.1,0.18,0.18,0.33,0.25
		c0.09,0.03,0.34,0.11,0.77,0.24c0.61,0.17,1.05,0.32,1.29,0.43s0.44,0.27,0.58,0.48c0.14,0.21,0.21,0.47,0.21,0.79
		c0,0.31-0.08,0.6-0.25,0.87s-0.42,0.48-0.73,0.63c-0.32,0.15-0.68,0.22-1.08,0.22c-0.67,0-1.18-0.15-1.53-0.44
		C19.78,319.61,19.55,319.18,19.46,318.6z"/>
	<path class="st17" d="M28.35,318.47l0.88,0.12c-0.14,0.56-0.41,0.99-0.8,1.3s-0.88,0.46-1.48,0.46c-0.76,0-1.36-0.24-1.8-0.73
		c-0.45-0.49-0.67-1.17-0.67-2.06c0-0.91,0.23-1.62,0.68-2.13c0.45-0.5,1.03-0.76,1.75-0.76c0.69,0,1.26,0.25,1.7,0.74
		s0.66,1.19,0.66,2.09c0,0.06,0,0.14-0.01,0.25h-3.88c0.03,0.6,0.19,1.05,0.49,1.37c0.29,0.32,0.66,0.47,1.1,0.47
		c0.33,0,0.61-0.09,0.84-0.27C28.04,319.15,28.21,318.86,28.35,318.47z M25.4,317h2.96c-0.04-0.46-0.15-0.81-0.34-1.04
		c-0.29-0.36-0.66-0.54-1.11-0.54c-0.41,0-0.76,0.14-1.04,0.43C25.58,316.14,25.43,316.53,25.4,317z"/>
	<path class="st17" d="M33.06,322.31v-7.52h0.8v0.7c0.19-0.27,0.4-0.48,0.64-0.62c0.24-0.14,0.53-0.21,0.86-0.21
		c0.44,0,0.83,0.12,1.17,0.36c0.34,0.24,0.59,0.57,0.77,1.01c0.17,0.43,0.26,0.91,0.26,1.43c0,0.56-0.09,1.06-0.28,1.5
		c-0.19,0.45-0.47,0.79-0.83,1.02c-0.36,0.24-0.74,0.35-1.14,0.35c-0.29,0-0.56-0.07-0.79-0.19c-0.23-0.13-0.42-0.29-0.57-0.49v2.64
		L33.06,322.31L33.06,322.31z M33.84,317.54c0,0.7,0.14,1.22,0.41,1.55s0.6,0.5,0.98,0.5c0.39,0,0.73-0.17,1.01-0.52
		c0.28-0.35,0.42-0.88,0.42-1.61c0-0.69-0.14-1.21-0.41-1.56s-0.6-0.52-0.98-0.52s-0.71,0.18-1,0.55
		C33.98,316.31,33.84,316.84,33.84,317.54z"/>
	<path class="st17" d="M42.02,319.56c-0.32,0.29-0.63,0.5-0.94,0.62c-0.3,0.12-0.62,0.18-0.97,0.18c-0.57,0-1.01-0.14-1.31-0.44
		c-0.3-0.29-0.46-0.67-0.46-1.12c0-0.27,0.06-0.51,0.17-0.73c0.11-0.22,0.27-0.4,0.45-0.53c0.19-0.13,0.4-0.23,0.63-0.3
		c0.17-0.05,0.43-0.09,0.78-0.14c0.71-0.09,1.23-0.2,1.57-0.32c0-0.13,0.01-0.21,0.01-0.24c0-0.38-0.08-0.64-0.25-0.79
		c-0.23-0.21-0.56-0.31-1-0.31c-0.41,0-0.72,0.08-0.91,0.23c-0.19,0.15-0.34,0.42-0.44,0.81l-0.88-0.12
		c0.08-0.39,0.21-0.7,0.39-0.93c0.18-0.24,0.44-0.42,0.78-0.55c0.34-0.13,0.73-0.19,1.18-0.19c0.44,0,0.8,0.05,1.08,0.16
		c0.27,0.11,0.48,0.25,0.61,0.41c0.13,0.17,0.22,0.37,0.27,0.63c0.03,0.16,0.05,0.44,0.05,0.85v1.23c0,0.86,0.02,1.4,0.05,1.62
		c0.04,0.23,0.1,0.44,0.21,0.65h-0.9C42.1,320.04,42.04,319.81,42.02,319.56z M41.96,317.49c-0.32,0.14-0.8,0.25-1.44,0.35
		c-0.36,0.05-0.62,0.12-0.77,0.19s-0.27,0.17-0.35,0.3c-0.08,0.13-0.12,0.28-0.12,0.44c0,0.25,0.09,0.45,0.27,0.62
		c0.18,0.17,0.44,0.25,0.78,0.25s0.64-0.08,0.9-0.23c0.26-0.15,0.46-0.37,0.58-0.64c0.09-0.21,0.14-0.52,0.14-0.93L41.96,317.49z"/>
	<path class="st17" d="M44.21,313.78v-1.04h0.88v1.04H44.21z M44.21,320.23v-5.43h0.88v5.43H44.21z"/>
	<path class="st17" d="M46.38,320.23v-5.43h0.8v0.83c0.2-0.39,0.38-0.65,0.55-0.77s0.35-0.19,0.56-0.19c0.29,0,0.59,0.1,0.89,0.3
		l-0.31,0.84c-0.21-0.12-0.42-0.18-0.63-0.18c-0.19,0-0.36,0.06-0.51,0.18c-0.15,0.12-0.26,0.29-0.32,0.5
		c-0.1,0.33-0.14,0.68-0.14,1.07v2.84L46.38,320.23L46.38,320.23L46.38,320.23z"/>
	<path class="st17" d="M55.86,319.56c-0.32,0.29-0.63,0.5-0.93,0.62s-0.62,0.18-0.97,0.18c-0.57,0-1.01-0.14-1.31-0.44
		c-0.31-0.29-0.46-0.67-0.46-1.12c0-0.27,0.06-0.51,0.17-0.73c0.11-0.22,0.27-0.4,0.45-0.53c0.19-0.13,0.4-0.23,0.63-0.3
		c0.17-0.05,0.43-0.09,0.78-0.14c0.71-0.09,1.23-0.2,1.57-0.32c0-0.13,0.01-0.21,0.01-0.24c0-0.38-0.08-0.64-0.25-0.79
		c-0.23-0.21-0.56-0.31-1-0.31c-0.41,0-0.72,0.08-0.91,0.23c-0.2,0.15-0.34,0.42-0.44,0.81l-0.88-0.12c0.08-0.39,0.21-0.7,0.39-0.93
		c0.18-0.24,0.44-0.42,0.78-0.55c0.34-0.13,0.73-0.19,1.18-0.19c0.44,0,0.8,0.05,1.08,0.16c0.28,0.11,0.48,0.25,0.61,0.41
		c0.13,0.17,0.22,0.37,0.27,0.63c0.03,0.16,0.04,0.44,0.04,0.85v1.23c0,0.86,0.02,1.4,0.05,1.62c0.04,0.23,0.11,0.44,0.21,0.65h-0.9
		C55.95,320.04,55.89,319.81,55.86,319.56z M55.8,317.49c-0.32,0.14-0.8,0.25-1.44,0.35c-0.36,0.05-0.62,0.12-0.77,0.19
		s-0.27,0.17-0.35,0.3c-0.08,0.13-0.12,0.28-0.12,0.44c0,0.25,0.09,0.45,0.27,0.62c0.18,0.17,0.44,0.25,0.78,0.25
		s0.64-0.08,0.9-0.23c0.27-0.15,0.46-0.37,0.58-0.64c0.09-0.21,0.14-0.52,0.14-0.93L55.8,317.49z"/>
	<path class="st17" d="M58.02,320.23v-5.43h0.8v0.77c0.38-0.6,0.92-0.89,1.64-0.89c0.31,0,0.59,0.06,0.85,0.18s0.45,0.27,0.58,0.46
		s0.22,0.42,0.27,0.68c0.03,0.17,0.05,0.47,0.05,0.9v3.34h-0.9v-3.31c0-0.38-0.03-0.65-0.1-0.84c-0.07-0.18-0.19-0.33-0.35-0.45
		c-0.17-0.11-0.37-0.17-0.6-0.17c-0.37,0-0.68,0.12-0.95,0.37s-0.4,0.72-0.4,1.42v2.97L58.02,320.23L58.02,320.23L58.02,320.23z"/>
	<path class="st17" d="M63.56,320.23v-5.43h0.8v0.77c0.38-0.6,0.92-0.89,1.64-0.89c0.31,0,0.59,0.06,0.85,0.18
		c0.26,0.12,0.45,0.27,0.58,0.46s0.22,0.42,0.27,0.68c0.03,0.17,0.05,0.47,0.05,0.9v3.34h-0.9v-3.31c0-0.38-0.03-0.65-0.1-0.84
		c-0.07-0.18-0.19-0.33-0.36-0.45c-0.17-0.11-0.37-0.17-0.6-0.17c-0.37,0-0.69,0.12-0.95,0.37c-0.27,0.25-0.4,0.72-0.4,1.42v2.97
		L63.56,320.23L63.56,320.23L63.56,320.23z"/>
	<path class="st17" d="M68.78,317.51c0-1.01,0.26-1.75,0.8-2.24c0.44-0.4,0.99-0.6,1.62-0.6c0.71,0,1.29,0.25,1.74,0.73
		c0.45,0.49,0.68,1.17,0.68,2.03c0,0.7-0.1,1.25-0.3,1.65c-0.2,0.4-0.49,0.71-0.87,0.93s-0.8,0.33-1.25,0.33
		c-0.73,0-1.31-0.24-1.75-0.73C69,319.13,68.78,318.43,68.78,317.51z M69.68,317.51c0,0.7,0.14,1.22,0.43,1.57
		c0.29,0.35,0.65,0.52,1.09,0.52c0.43,0,0.8-0.17,1.09-0.52c0.29-0.35,0.43-0.88,0.43-1.59c0-0.67-0.14-1.18-0.44-1.53
		c-0.29-0.35-0.65-0.52-1.08-0.52c-0.44,0-0.8,0.17-1.09,0.52C69.82,316.29,69.68,316.81,69.68,317.51z"/>
	<path class="st17" d="M76.57,319.42l0.12,0.81c-0.25,0.05-0.47,0.08-0.66,0.08c-0.32,0-0.57-0.05-0.74-0.16
		c-0.17-0.11-0.3-0.25-0.37-0.42c-0.07-0.17-0.1-0.54-0.1-1.09v-3.13h-0.65v-0.71h0.65v-1.34l0.88-0.55v1.89h0.88v0.71H75.7v3.17
		c0,0.26,0.02,0.43,0.04,0.51c0.03,0.08,0.08,0.14,0.15,0.18c0.07,0.04,0.17,0.07,0.3,0.07C76.28,319.43,76.41,319.43,76.57,319.42z
		"/>
	<path class="st17" d="M80.81,319.56c-0.32,0.29-0.63,0.5-0.93,0.62s-0.62,0.18-0.97,0.18c-0.57,0-1.01-0.14-1.32-0.44
		c-0.3-0.29-0.46-0.67-0.46-1.12c0-0.27,0.06-0.51,0.17-0.73s0.27-0.4,0.45-0.53c0.19-0.13,0.4-0.23,0.63-0.3
		c0.17-0.05,0.44-0.09,0.78-0.14c0.71-0.09,1.23-0.2,1.57-0.32c0-0.13,0.01-0.21,0.01-0.24c0-0.38-0.08-0.64-0.25-0.79
		c-0.22-0.21-0.56-0.31-1-0.31c-0.41,0-0.72,0.08-0.91,0.23c-0.2,0.15-0.34,0.42-0.44,0.81l-0.88-0.12c0.08-0.39,0.21-0.7,0.39-0.93
		c0.18-0.24,0.44-0.42,0.78-0.55c0.34-0.13,0.73-0.19,1.18-0.19c0.44,0,0.8,0.05,1.08,0.16c0.27,0.11,0.48,0.25,0.61,0.41
		c0.13,0.17,0.22,0.37,0.27,0.63c0.03,0.16,0.04,0.44,0.04,0.85v1.23c0,0.86,0.02,1.4,0.05,1.62c0.04,0.23,0.11,0.44,0.21,0.65h-0.9
		C80.9,320.04,80.84,319.81,80.81,319.56z M80.75,317.49c-0.32,0.14-0.8,0.25-1.44,0.35c-0.36,0.05-0.62,0.12-0.77,0.19
		s-0.27,0.17-0.35,0.3c-0.08,0.13-0.12,0.28-0.12,0.44c0,0.25,0.09,0.45,0.27,0.62c0.18,0.17,0.44,0.25,0.78,0.25
		s0.64-0.08,0.9-0.23c0.26-0.15,0.46-0.37,0.58-0.64c0.09-0.21,0.14-0.52,0.14-0.93L80.75,317.49z"/>
	<path class="st17" d="M84.85,319.42l0.12,0.81c-0.25,0.05-0.47,0.08-0.66,0.08c-0.32,0-0.57-0.05-0.74-0.16
		c-0.17-0.11-0.3-0.25-0.37-0.42c-0.07-0.17-0.11-0.54-0.11-1.09v-3.13h-0.64v-0.71h0.65v-1.34l0.88-0.55v1.89h0.88v0.71h-0.88v3.17
		c0,0.26,0.02,0.43,0.04,0.51c0.03,0.08,0.08,0.14,0.15,0.18c0.07,0.04,0.17,0.07,0.3,0.07C84.57,319.43,84.7,319.43,84.85,319.42z"
		/>
	<path class="st17" d="M85.75,313.78v-1.04h0.88v1.04H85.75z M85.75,320.23v-5.43h0.88v5.43H85.75z"/>
	<path class="st17" d="M87.59,317.51c0-1.01,0.27-1.75,0.8-2.24c0.44-0.4,0.98-0.6,1.62-0.6c0.71,0,1.29,0.25,1.74,0.73
		c0.45,0.49,0.68,1.17,0.68,2.03c0,0.7-0.1,1.25-0.3,1.65s-0.49,0.71-0.87,0.93c-0.38,0.22-0.8,0.33-1.25,0.33
		c-0.72,0-1.31-0.24-1.75-0.73C87.82,319.13,87.59,318.43,87.59,317.51z M88.49,317.51c0,0.7,0.14,1.22,0.43,1.57
		c0.29,0.35,0.65,0.52,1.09,0.52s0.8-0.17,1.09-0.52c0.29-0.35,0.43-0.88,0.43-1.59c0-0.67-0.15-1.18-0.44-1.53
		c-0.29-0.35-0.65-0.52-1.08-0.52c-0.44,0-0.8,0.17-1.09,0.52C88.63,316.29,88.49,316.81,88.49,317.51z"/>
	<path class="st17" d="M93.46,320.23v-5.43h0.8v0.77c0.38-0.6,0.92-0.89,1.64-0.89c0.31,0,0.6,0.06,0.85,0.18
		c0.26,0.12,0.45,0.27,0.58,0.46c0.13,0.19,0.22,0.42,0.27,0.68c0.03,0.17,0.05,0.47,0.05,0.9v3.34h-0.9v-3.31
		c0-0.38-0.03-0.65-0.1-0.84c-0.07-0.18-0.19-0.33-0.35-0.45c-0.17-0.11-0.37-0.17-0.6-0.17c-0.37,0-0.69,0.12-0.95,0.37
		c-0.27,0.25-0.4,0.72-0.4,1.42v2.97L93.46,320.23L93.46,320.23L93.46,320.23z"/>
	<path class="st17" d="M98.68,318.6l0.86-0.12c0.05,0.36,0.18,0.64,0.4,0.83c0.22,0.19,0.53,0.29,0.93,0.29
		c0.4,0,0.7-0.09,0.89-0.26s0.29-0.38,0.29-0.61c0-0.21-0.09-0.37-0.26-0.49c-0.12-0.08-0.42-0.19-0.89-0.31
		c-0.64-0.17-1.08-0.32-1.32-0.44c-0.25-0.12-0.43-0.3-0.56-0.52c-0.13-0.22-0.19-0.46-0.19-0.73c0-0.24,0.05-0.46,0.15-0.67
		c0.1-0.21,0.25-0.38,0.43-0.51c0.14-0.11,0.32-0.2,0.55-0.27c0.23-0.07,0.48-0.11,0.75-0.11c0.4,0,0.76,0.06,1.06,0.19
		c0.3,0.12,0.53,0.29,0.67,0.5s0.24,0.49,0.3,0.84l-0.86,0.12c-0.04-0.28-0.15-0.5-0.34-0.66c-0.18-0.16-0.44-0.24-0.78-0.24
		c-0.4,0-0.68,0.07-0.85,0.21c-0.17,0.14-0.25,0.3-0.25,0.49c0,0.12,0.03,0.23,0.1,0.32c0.07,0.1,0.18,0.18,0.33,0.25
		c0.09,0.03,0.34,0.11,0.77,0.24c0.61,0.17,1.04,0.32,1.29,0.43s0.44,0.27,0.58,0.48c0.14,0.21,0.21,0.47,0.21,0.79
		c0,0.31-0.08,0.6-0.25,0.87s-0.41,0.48-0.73,0.63c-0.32,0.15-0.68,0.22-1.08,0.22c-0.67,0-1.18-0.15-1.53-0.44
		C99,319.61,98.78,319.18,98.68,318.6z"/>
</g>
<rect x="9.58" y="327.1" class="st18" width="5.29" height="5.07"/>
<g>
	<path class="st19" d="M10.75,392.44v-7.49h3.32c0.66,0,1.17,0.07,1.51,0.2c0.35,0.14,0.62,0.37,0.83,0.71s0.31,0.72,0.31,1.13
		c0,0.53-0.17,0.98-0.51,1.35c-0.34,0.36-0.87,0.6-1.58,0.7c0.26,0.13,0.46,0.25,0.6,0.37c0.29,0.27,0.56,0.6,0.82,1l1.29,2.04
		h-1.23l-0.98-1.56c-0.29-0.45-0.52-0.8-0.71-1.03c-0.19-0.24-0.35-0.41-0.5-0.5c-0.15-0.1-0.3-0.16-0.45-0.2
		c-0.11-0.02-0.29-0.04-0.55-0.04h-1.17v3.33L10.75,392.44L10.75,392.44z M11.75,388.23h2.12c0.45,0,0.8-0.05,1.06-0.14
		c0.25-0.09,0.44-0.24,0.57-0.44s0.2-0.42,0.2-0.67c0-0.35-0.13-0.64-0.38-0.86c-0.26-0.22-0.66-0.34-1.21-0.34h-2.36V388.23
		L11.75,388.23z"/>
	<path class="st19" d="M25.89,388.04h-4.94v-0.86h4.94V388.04z M25.89,390.31h-4.94v-0.86h4.94V390.31z"/>
	<path class="st19" d="M29.37,392.44l2.87-7.49h1.1l3.02,7.49h-1.13l-0.85-2.27h-3.13l-0.81,2.27H29.37z M31.53,389.35h2.55
		l-0.78-2.06c-0.23-0.64-0.41-1.15-0.52-1.55c-0.1,0.48-0.23,0.96-0.41,1.43L31.53,389.35z"/>
	<path class="st19" d="M39.62,389.72c0-1.01,0.28-1.75,0.84-2.23c0.46-0.4,1.03-0.6,1.71-0.6c0.74,0,1.35,0.25,1.83,0.73
		c0.47,0.49,0.71,1.17,0.71,2.03c0,0.7-0.1,1.25-0.31,1.65c-0.21,0.4-0.52,0.71-0.91,0.93c-0.4,0.22-0.84,0.33-1.31,0.33
		c-0.76,0-1.38-0.24-1.84-0.73C39.85,391.34,39.62,390.64,39.62,389.72z M40.55,389.72c0,0.69,0.15,1.22,0.46,1.56
		c0.3,0.35,0.69,0.52,1.15,0.52c0.46,0,0.84-0.17,1.14-0.52c0.31-0.35,0.46-0.88,0.46-1.6c0-0.67-0.15-1.18-0.46-1.53
		c-0.31-0.35-0.69-0.52-1.14-0.52c-0.46,0-0.85,0.17-1.15,0.52S40.55,389.02,40.55,389.72z"/>
	<path class="st19" d="M45.76,392.44v-5.43h0.82v0.83c0.21-0.39,0.41-0.64,0.59-0.77c0.18-0.12,0.38-0.19,0.59-0.19
		c0.31,0,0.63,0.1,0.95,0.3l-0.32,0.84c-0.22-0.12-0.45-0.18-0.67-0.18c-0.2,0-0.38,0.06-0.54,0.18c-0.15,0.12-0.27,0.29-0.34,0.51
		c-0.1,0.33-0.15,0.68-0.15,1.07v2.84H45.76L45.76,392.44z"/>
	<path class="st19" d="M55.78,389.5v-0.88h3.17v2.77c-0.48,0.39-0.99,0.68-1.51,0.87c-0.52,0.19-1.05,0.3-1.6,0.3
		c-0.73,0-1.4-0.16-2-0.47s-1.05-0.77-1.36-1.36c-0.31-0.6-0.46-1.26-0.46-2c0-0.73,0.15-1.41,0.46-2.04
		c0.31-0.63,0.74-1.1,1.31-1.41s1.23-0.46,1.98-0.46c0.54,0,1.03,0.09,1.47,0.26c0.44,0.18,0.78,0.42,1.03,0.74
		c0.25,0.32,0.44,0.73,0.57,1.23l-0.92,0.25c-0.11-0.38-0.25-0.68-0.42-0.9s-0.4-0.39-0.71-0.52c-0.31-0.13-0.65-0.19-1.02-0.19
		c-0.45,0-0.84,0.07-1.17,0.2c-0.33,0.14-0.6,0.32-0.8,0.55c-0.2,0.23-0.35,0.47-0.46,0.74c-0.19,0.46-0.29,0.97-0.29,1.51
		c0,0.67,0.11,1.23,0.34,1.68s0.56,0.79,1,1c0.44,0.22,0.9,0.33,1.39,0.33c0.43,0,0.84-0.08,1.25-0.25s0.71-0.35,0.92-0.53v-1.4
		L55.78,389.5L55.78,389.5z"/>
	<path class="st19" d="M60.55,392.44v-1.04h1.04v1.04H60.55z"/>
	<path class="st19" d="M68.33,392.44v-3.18l-2.88-4.32h1.2l1.46,2.28c0.28,0.42,0.54,0.84,0.78,1.27c0.24-0.39,0.51-0.83,0.83-1.33
		l1.45-2.22h1.15l-2.98,4.32v3.18H68.33L68.33,392.44z"/>
	<path class="st19" d="M80.81,388.04h-4.94v-0.86h4.94V388.04z M80.81,390.31h-4.94v-0.86h4.94V390.31z"/>
	<path class="st19" d="M90.46,389.8l1,0.25c-0.21,0.81-0.58,1.44-1.12,1.86c-0.54,0.43-1.2,0.64-1.98,0.64
		c-0.81,0-1.46-0.17-1.97-0.49c-0.51-0.33-0.89-0.8-1.15-1.43c-0.26-0.62-0.4-1.29-0.4-2.01c0-0.78,0.15-1.46,0.45-2.04
		c0.3-0.58,0.72-1.02,1.27-1.32c0.55-0.3,1.15-0.45,1.81-0.45c0.75,0,1.38,0.19,1.89,0.57c0.51,0.38,0.86,0.92,1.07,1.61l-0.98,0.23
		c-0.17-0.54-0.42-0.94-0.75-1.19s-0.74-0.37-1.25-0.37c-0.57,0-1.06,0.14-1.44,0.41c-0.39,0.27-0.66,0.65-0.81,1.11
		c-0.15,0.46-0.23,0.94-0.23,1.43c0,0.63,0.09,1.19,0.28,1.66c0.19,0.48,0.47,0.83,0.86,1.06c0.39,0.24,0.81,0.35,1.27,0.35
		c0.55,0,1.02-0.16,1.41-0.48C90.06,390.9,90.33,390.43,90.46,389.8z"/>
	<path class="st19" d="M95.12,389.72c0-1.01,0.28-1.75,0.84-2.23c0.46-0.4,1.03-0.6,1.7-0.6c0.75,0,1.36,0.25,1.83,0.73
		c0.47,0.49,0.71,1.17,0.71,2.03c0,0.7-0.1,1.25-0.31,1.65c-0.21,0.4-0.52,0.71-0.91,0.93c-0.4,0.22-0.84,0.33-1.31,0.33
		c-0.76,0-1.37-0.24-1.84-0.73C95.35,391.34,95.12,390.64,95.12,389.72z M96.05,389.72c0,0.69,0.15,1.22,0.46,1.56
		c0.3,0.35,0.69,0.52,1.15,0.52c0.46,0,0.84-0.17,1.14-0.52c0.31-0.35,0.46-0.88,0.46-1.6c0-0.67-0.15-1.18-0.46-1.53
		c-0.3-0.35-0.68-0.52-1.14-0.52c-0.46,0-0.84,0.17-1.15,0.52C96.21,388.5,96.05,389.02,96.05,389.72z"/>
	<path class="st19" d="M101.26,392.44v-5.43h0.82v0.83c0.21-0.39,0.41-0.64,0.59-0.77c0.18-0.12,0.38-0.19,0.59-0.19
		c0.31,0,0.63,0.1,0.95,0.3l-0.32,0.84c-0.22-0.12-0.45-0.18-0.67-0.18c-0.2,0-0.38,0.06-0.54,0.18s-0.27,0.29-0.34,0.51
		c-0.1,0.33-0.16,0.68-0.16,1.07v2.84H101.26L101.26,392.44z"/>
	<path class="st19" d="M111.98,384.96h1v5c0,0.87-0.08,1.56-0.26,2.07c-0.17,0.51-0.48,0.93-0.92,1.25
		c-0.44,0.32-1.02,0.48-1.75,0.48c-0.7,0-1.27-0.14-1.72-0.42c-0.45-0.28-0.76-0.68-0.95-1.21c-0.19-0.53-0.28-1.25-0.28-2.17v-5h1
		v4.97c0,0.75,0.06,1.3,0.18,1.65c0.12,0.35,0.33,0.63,0.62,0.82c0.29,0.19,0.65,0.29,1.07,0.29c0.73,0,1.24-0.19,1.55-0.57
		s0.46-1.11,0.46-2.19L111.98,384.96L111.98,384.96L111.98,384.96L111.98,384.96z"/>
	<path class="st19" d="M114.75,393.61v-1.2h1.04v1.2H114.75z"/>
</g>
</svg>
