<svg id="图层_1" data-name="图层 1" xmlns="http://www.w3.org/2000/svg" viewBox="0 0 400 400"><defs><style>.cls-1,.cls-2,.cls-4,.cls-7,.cls-8{isolation:isolate;font-size:14.76px;}.cls-1,.cls-12,.cls-2{fill:#0a0bff;}.cls-1,.cls-11,.cls-12,.cls-13,.cls-15,.cls-16,.cls-2,.cls-4,.cls-7,.cls-8{font-family:ArialMT, Arial;}.cls-1,.cls-7{letter-spacing:-0.06em;}.cls-10,.cls-3,.cls-6{fill:none;}.cls-10,.cls-3,.cls-5,.cls-6,.cls-9{stroke:#000;stroke-miterlimit:1.11;}.cls-3,.cls-5,.cls-9{stroke-width:0.14px;}.cls-6{stroke-width:1.03px;}.cls-11,.cls-7,.cls-8{fill:#80db9e;}.cls-15,.cls-9{fill:#fff;}.cls-11,.cls-12{font-size:18.21px;}.cls-13{font-size:20px;}.cls-14{fill:red;}.cls-15{font-size:9.1px;}.cls-16{font-size:12.75px;fill:#231815;}.cls-17{letter-spacing:-0.04em;}.cls-18{letter-spacing:-0.04em;}</style></defs><g id="ID000002"><text class="cls-1" transform="translate(211.92 377.15)">A</text></g><g id="ID000003"><text class="cls-2" transform="translate(211.51 362.34)">U</text></g><g id="ID000004"><text class="cls-2" transform="translate(211.1 347.52)">G</text></g><g id="ID000005"><text class="cls-2" transform="translate(211.1 332.71)">G</text></g><g id="ID000006"><text class="cls-2" transform="translate(211.1 317.9)">G</text></g><g id="ID000007"><text class="cls-1" transform="translate(211.92 303.09)">A</text></g><g id="ID000008"><line class="cls-3" x1="226.71" y1="296.43" x2="236.58" y2="296.43"/></g><g id="ID000009"><text class="cls-4" transform="translate(236.59 303.09)">30</text></g><g id="ID000010"><text class="cls-2" transform="translate(211.1 288.28)">G</text></g><g id="ID000011"><text class="cls-2" transform="translate(211.51 273.47)">U</text></g><g id="ID000012"><text class="cls-1" transform="translate(211.92 258.66)">A</text></g><g id="ID000013"><text class="cls-2" transform="translate(240.72 236.44)">G</text></g><g id="ID000014"><text class="cls-2" transform="translate(181.48 258.66)">G</text></g><g id="ID000015"><text class="cls-1" transform="translate(182.3 273.47)">A</text></g><g id="ID000016"><text class="cls-2" transform="translate(181.89 288.28)">U</text></g><g id="ID000017"><text class="cls-2" transform="translate(181.89 303.09)">U</text></g><g id="ID000018"><text class="cls-2" transform="translate(181.89 317.9)">C</text></g><g id="ID000019"><text class="cls-2" transform="translate(181.89 332.71)">U</text></g><g id="ID000020"><text class="cls-2" transform="translate(181.89 347.52)">C</text></g><g id="ID000021"><text class="cls-1" transform="translate(182.3 362.34)">A</text></g><g id="ID000022"><text class="cls-2" transform="translate(181.89 377.15)">U</text></g><g id="ID000023"><line class="cls-3" x1="177.34" y1="370.48" x2="167.47" y2="370.48"/></g><g id="ID000024"><text class="cls-4" transform="translate(151.05 377.15)">50</text></g><g id="ID000025"><line class="cls-3" x1="210.91" y1="370.48" x2="193.14" y2="370.48"/></g><g id="ID000026"><line class="cls-3" x1="210.91" y1="355.67" x2="193.14" y2="355.67"/></g><g id="ID000027"><line class="cls-3" x1="210.91" y1="340.86" x2="193.14" y2="340.86"/></g><g id="ID000028"><polygon class="cls-5" points="199.06 326.05 199.07 326.24 199.09 326.42 199.12 326.61 199.16 326.79 199.21 326.97 199.28 327.15 199.35 327.32 199.44 327.49 199.53 327.65 199.64 327.81 199.76 327.95 199.88 328.09 200.02 328.22 200.16 328.35 200.31 328.46 200.47 328.56 200.63 328.66 200.8 328.74 200.97 328.81 201.15 328.88 201.33 328.93 201.51 328.96 201.7 328.99 201.89 329.01 202.07 329.01 202.26 329 202.45 328.98 202.63 328.95 202.82 328.9 203 328.85 203.17 328.78 203.34 328.7 203.51 328.61 203.67 328.51 203.82 328.4 203.97 328.29 204.1 328.16 204.23 328.02 204.35 327.88 204.47 327.73 204.57 327.57 204.66 327.41 204.74 327.24 204.81 327.06 204.87 326.88 204.92 326.7 204.95 326.52 204.97 326.33 204.99 326.14 204.99 325.95 204.97 325.77 204.95 325.58 204.92 325.39 204.87 325.21 204.81 325.04 204.74 324.86 204.66 324.69 204.57 324.53 204.47 324.37 204.35 324.22 204.23 324.07 204.1 323.94 203.97 323.81 203.82 323.69 203.67 323.58 203.51 323.48 203.34 323.39 203.17 323.32 203 323.25 202.82 323.19 202.63 323.15 202.45 323.12 202.26 323.1 202.07 323.09 201.89 323.09 201.7 323.1 201.51 323.13 201.33 323.17 201.15 323.22 200.97 323.28 200.8 323.35 200.63 323.44 200.47 323.53 200.31 323.63 200.16 323.75 200.02 323.87 199.88 324 199.76 324.14 199.64 324.29 199.53 324.45 199.44 324.61 199.35 324.77 199.28 324.95 199.21 325.12 199.16 325.3 199.12 325.49 199.09 325.67 199.07 325.86 199.06 326.05"/></g><g id="ID000029"><line class="cls-3" x1="210.91" y1="311.24" x2="193.14" y2="311.24"/></g><g id="ID000030"><line class="cls-3" x1="210.91" y1="296.43" x2="193.14" y2="296.43"/></g><g id="ID000031"><polygon class="cls-5" points="199.06 281.62 199.07 281.8 199.09 281.99 199.12 282.18 199.16 282.36 199.21 282.54 199.28 282.72 199.35 282.89 199.44 283.06 199.53 283.22 199.64 283.37 199.76 283.52 199.88 283.66 200.02 283.79 200.16 283.92 200.31 284.03 200.47 284.13 200.63 284.23 200.8 284.31 200.97 284.38 201.15 284.44 201.33 284.5 201.51 284.53 201.7 284.56 201.89 284.57 202.07 284.58 202.26 284.57 202.45 284.55 202.63 284.52 202.82 284.47 203 284.42 203.17 284.35 203.34 284.27 203.51 284.18 203.67 284.08 203.82 283.97 203.97 283.86 204.1 283.73 204.23 283.59 204.35 283.45 204.47 283.3 204.57 283.14 204.66 282.97 204.74 282.8 204.81 282.63 204.87 282.45 204.92 282.27 204.95 282.08 204.97 281.9 204.99 281.71 204.99 281.52 204.97 281.33 204.95 281.15 204.92 280.96 204.87 280.78 204.81 280.6 204.74 280.43 204.66 280.26 204.57 280.09 204.47 279.94 204.35 279.79 204.23 279.64 204.1 279.5 203.97 279.38 203.82 279.26 203.67 279.15 203.51 279.05 203.34 278.96 203.17 278.88 203 278.82 202.82 278.76 202.63 278.72 202.45 278.68 202.26 278.66 202.07 278.65 201.89 278.66 201.7 278.67 201.51 278.7 201.33 278.74 201.15 278.79 200.97 278.85 200.8 278.92 200.63 279 200.47 279.1 200.31 279.2 200.16 279.32 200.02 279.44 199.88 279.57 199.76 279.71 199.64 279.86 199.53 280.01 199.44 280.18 199.35 280.34 199.28 280.51 199.21 280.69 199.16 280.87 199.12 281.06 199.09 281.24 199.07 281.43 199.06 281.62"/></g><g id="ID000032"><line class="cls-3" x1="210.91" y1="266.81" x2="193.14" y2="266.81"/></g><g id="ID000033"><line class="cls-3" x1="210.91" y1="251.99" x2="193.14" y2="251.99"/></g><g id="ID000034"><polygon class="cls-5" points="199.06 252 199.07 252.18 199.09 252.37 199.12 252.56 199.16 252.74 199.21 252.92 199.28 253.1 199.35 253.27 199.44 253.44 199.53 253.6 199.64 253.75 199.76 253.9 199.88 254.04 200.02 254.17 200.16 254.29 200.31 254.41 200.47 254.51 200.63 254.6 200.8 254.69 200.97 254.76 201.15 254.82 201.33 254.87 201.51 254.91 201.7 254.94 201.89 254.95 202.07 254.96 202.26 254.95 202.45 254.93 202.63 254.89 202.82 254.85 203 254.79 203.17 254.73 203.34 254.65 203.51 254.56 203.67 254.46 203.82 254.35 203.97 254.23 204.1 254.11 204.23 253.97 204.35 253.83 204.47 253.68 204.57 253.52 204.66 253.35 204.74 253.18 204.81 253.01 204.87 252.83 204.92 252.65 204.95 252.46 204.97 252.28 204.99 252.09 204.99 251.9 204.97 251.71 204.95 251.53 204.92 251.34 204.87 251.16 204.81 250.98 204.74 250.81 204.66 250.64 204.57 250.47 204.47 250.31 204.35 250.16 204.23 250.02 204.1 249.88 203.97 249.76 203.82 249.64 203.67 249.53 203.51 249.43 203.34 249.34 203.17 249.26 203 249.19 202.82 249.14 202.63 249.09 202.45 249.06 202.26 249.04 202.07 249.03 201.89 249.04 201.7 249.05 201.51 249.08 201.33 249.12 201.15 249.17 200.97 249.23 200.8 249.3 200.63 249.38 200.47 249.48 200.31 249.58 200.16 249.7 200.02 249.82 199.88 249.95 199.76 250.09 199.64 250.24 199.53 250.39 199.44 250.55 199.35 250.72 199.28 250.89 199.21 251.07 199.16 251.25 199.12 251.43 199.09 251.62 199.07 251.81 199.06 252"/></g><g id="ID000035"><line class="cls-6" x1="243.6" y1="224.59" x2="208.58" y2="160.92"/></g><g id="ID000036"><polygon class="cls-5" points="224.58 199.22 225.34 195.99 224.8 193.47 223.93 191.13 222.53 186.26 225.88 190.05 227.39 192.04 229.23 193.84 232.37 194.94 224.58 199.22"/></g><g id="ID000038"><text class="cls-7" transform="translate(182.3 129.07)">A</text></g><g id="ID000039"><text class="cls-8" transform="translate(181.89 114.26)">C</text></g><g id="ID000040"><text class="cls-8" transform="translate(181.89 99.45)">C</text></g><g id="ID000041"><text class="cls-8" transform="translate(181.89 84.63)">C</text></g><g id="ID000042"><text class="cls-8" transform="translate(181.89 69.82)">U</text></g><g id="ID000043"><line class="cls-3" x1="197.09" y1="63.16" x2="206.96" y2="63.16"/></g><g id="ID000044"><text class="cls-4" transform="translate(206.96 69.82)">10</text></g><g id="ID000045"><text class="cls-8" transform="translate(174.48 55.01)">U</text></g><g id="ID000046"><text class="cls-8" transform="translate(159.67 55.01)">C</text></g><g id="ID000047"><text class="cls-8" transform="translate(151.85 69.82)">G</text></g><g id="ID000048"><text class="cls-8" transform="translate(151.85 84.63)">G</text></g><g id="ID000049"><text class="cls-8" transform="translate(151.85 99.45)">G</text></g><g id="ID000050"><text class="cls-8" transform="translate(151.85 114.26)">G</text></g><g id="ID000051"><text class="cls-8" transform="translate(152.27 129.07)">C</text></g><g id="ID000052"><text class="cls-8" transform="translate(118.53 206.82)">G</text></g><g id="ID000053"><text class="cls-8" transform="translate(152.27 240.15)">C</text></g><g id="ID000054"><line class="cls-6" x1="161.53" y1="151.3" x2="183.28" y2="126.83"/></g><g id="ID000055"><polygon class="cls-5" points="165.81 139.8 169.1 139.43 171.3 138.08 173.22 136.48 177.32 133.53 174.88 137.96 173.51 140.05 172.43 142.38 172.45 145.71 165.81 139.8"/></g><g id="ID000056"><line class="cls-3" x1="181.29" y1="122.4" x2="163.52" y2="122.4"/></g><g id="ID000057"><polygon class="cls-5" points="169.44 122.4 169.45 122.59 169.47 122.78 169.5 122.96 169.54 123.15 169.59 123.33 169.66 123.5 169.73 123.67 169.82 123.84 169.91 124 170.02 124.16 170.14 124.31 170.26 124.44 170.4 124.58 170.54 124.7 170.69 124.81 170.84 124.92 171.01 125.01 171.18 125.1 171.35 125.17 171.53 125.23 171.71 125.28 171.89 125.32 172.08 125.34 172.26 125.36 172.45 125.36 172.64 125.35 172.83 125.33 173.01 125.3 173.19 125.26 173.37 125.2 173.55 125.13 173.72 125.06 173.89 124.97 174.05 124.87 174.2 124.76 174.34 124.64 174.48 124.51 174.61 124.38 174.73 124.23 174.84 124.08 174.95 123.92 175.04 123.76 175.12 123.59 175.19 123.41 175.25 123.24 175.29 123.05 175.33 122.87 175.35 122.68 175.37 122.5 175.37 122.31 175.35 122.12 175.33 121.93 175.29 121.75 175.25 121.57 175.19 121.39 175.12 121.21 175.04 121.04 174.95 120.88 174.84 120.72 174.73 120.57 174.61 120.43 174.48 120.29 174.34 120.16 174.2 120.04 174.05 119.94 173.89 119.84 173.72 119.75 173.55 119.67 173.37 119.6 173.19 119.55 173.01 119.5 172.83 119.47 172.64 119.45 172.45 119.44 172.26 119.44 172.08 119.46 171.89 119.48 171.71 119.52 171.53 119.57 171.35 119.63 171.18 119.71 171.01 119.79 170.84 119.88 170.69 119.99 170.54 120.1 170.4 120.23 170.26 120.36 170.14 120.5 170.02 120.64 169.91 120.8 169.82 120.96 169.73 121.13 169.66 121.3 169.59 121.48 169.54 121.66 169.5 121.84 169.47 122.03 169.45 122.21 169.44 122.4"/></g><g id="ID000058"><line class="cls-3" x1="181.29" y1="107.59" x2="163.52" y2="107.59"/></g><g id="ID000059"><line class="cls-3" x1="181.29" y1="92.78" x2="163.52" y2="92.78"/></g><g id="ID000060"><line class="cls-3" x1="181.29" y1="77.97" x2="163.52" y2="77.97"/></g><g id="ID000061"><polyline class="cls-3" points="181.39 186.44 127.97 196.45 128.46 195.97"/></g><g id="ID000062"><polygon class="cls-9" points="160.83 187.28 155.01 188.37 156.1 194.19 161.93 193.1 160.83 187.28"/></g><g id="ID000063"><polygon class="cls-9" points="147.99 192.7 148.03 192.89 148.08 193.07 148.14 193.24 148.22 193.42 148.3 193.58 148.4 193.75 148.5 193.9 148.62 194.05 148.74 194.19 148.88 194.32 149.02 194.45 149.17 194.56 149.32 194.67 149.49 194.76 149.65 194.84 149.83 194.92 150 194.98 150.19 195.03 150.37 195.07 150.56 195.1 150.74 195.11 150.93 195.12 151.12 195.11 151.31 195.09 151.49 195.06 151.67 195.01 151.85 194.96 152.03 194.89 152.2 194.82 152.37 194.73 152.53 194.63 152.68 194.52 152.83 194.41 152.97 194.28 153.1 194.14 153.22 194 153.33 193.85 153.43 193.69 153.52 193.53 153.61 193.36 153.68 193.18 153.74 193 153.78 192.82 153.82 192.64 153.85 192.45 153.86 192.26 153.86 192.08 153.85 191.89 153.83 191.7 153.79 191.52 153.75 191.34 153.69 191.16 153.62 190.98 153.54 190.81 153.45 190.65 153.35 190.49 153.24 190.34 153.12 190.19 152.99 190.06 152.85 189.93 152.7 189.81 152.55 189.7 152.39 189.6 152.23 189.51 152.06 189.43 151.88 189.36 151.7 189.31 151.52 189.26 151.34 189.23 151.15 189.21 150.96 189.19 150.77 189.2 150.59 189.21 150.4 189.24 150.22 189.27 150.03 189.32 149.85 189.38 149.68 189.46 149.51 189.54 149.35 189.63 149.19 189.74 149.04 189.85 148.9 189.97 148.76 190.1 148.64 190.24 148.52 190.39 148.41 190.54 148.32 190.7 148.23 190.87 148.15 191.04 148.09 191.22 148.03 191.4 147.99 191.58 147.96 191.77 147.94 191.95 147.94 192.14 147.94 192.33 147.96 192.52 147.99 192.7"/></g><g id="ID000064"><line class="cls-3" x1="151.67" y1="200.16" x2="130.2" y2="200.16"/></g><g id="ID000065"><polygon class="cls-5" points="147.75 197.19 141.82 197.19 141.82 203.12 147.75 203.12 147.75 197.19"/></g><g id="ID000066"><polygon class="cls-5" points="134.12 200.16 134.13 200.34 134.14 200.53 134.17 200.72 134.22 200.9 134.27 201.08 134.33 201.26 134.41 201.43 134.49 201.6 134.59 201.76 134.7 201.91 134.81 202.06 134.94 202.2 135.07 202.33 135.21 202.46 135.36 202.57 135.52 202.67 135.68 202.77 135.85 202.85 136.03 202.92 136.2 202.99 136.38 203.04 136.57 203.07 136.75 203.1 136.94 203.12 137.13 203.12 137.32 203.11 137.5 203.09 137.69 203.06 137.87 203.01 138.05 202.96 138.23 202.89 138.4 202.81 138.56 202.72 138.72 202.62 138.88 202.51 139.02 202.4 139.16 202.27 139.29 202.13 139.41 201.99 139.52 201.84 139.62 201.68 139.72 201.51 139.79 201.34 139.87 201.17 139.92 200.99 139.97 200.81 140.01 200.63 140.03 200.44 140.04 200.25 140.04 200.06 140.03 199.88 140.01 199.69 139.97 199.5 139.92 199.32 139.87 199.14 139.79 198.97 139.72 198.8 139.62 198.64 139.52 198.48 139.41 198.33 139.29 198.18 139.16 198.05 139.02 197.92 138.88 197.8 138.72 197.69 138.56 197.59 138.4 197.5 138.23 197.43 138.05 197.36 137.87 197.3 137.69 197.26 137.5 197.23 137.32 197.2 137.13 197.19 136.94 197.2 136.75 197.21 136.57 197.24 136.38 197.28 136.2 197.33 136.03 197.39 135.85 197.46 135.68 197.55 135.52 197.64 135.36 197.75 135.21 197.86 135.07 197.98 134.94 198.11 134.81 198.25 134.7 198.4 134.59 198.56 134.49 198.72 134.41 198.88 134.33 199.06 134.27 199.23 134.22 199.41 134.17 199.6 134.14 199.78 134.13 199.97 134.12 200.16"/></g><g id="ID000067"><line class="cls-3" x1="181.29" y1="233.48" x2="163.52" y2="233.48"/></g><g id="ID000068"><polygon class="cls-5" points="169.44 233.48 169.45 233.67 169.47 233.86 169.5 234.04 169.54 234.23 169.59 234.41 169.66 234.58 169.73 234.75 169.82 234.92 169.91 235.08 170.02 235.24 170.14 235.39 170.26 235.53 170.4 235.66 170.54 235.78 170.69 235.89 170.84 236 171.01 236.09 171.18 236.18 171.35 236.25 171.53 236.31 171.71 236.36 171.89 236.4 172.08 236.43 172.26 236.44 172.45 236.44 172.64 236.43 172.83 236.41 173.01 236.38 173.19 236.34 173.37 236.28 173.55 236.21 173.72 236.14 173.89 236.05 174.05 235.95 174.2 235.84 174.34 235.72 174.48 235.59 174.61 235.46 174.73 235.31 174.84 235.16 174.95 235 175.04 234.84 175.12 234.67 175.19 234.49 175.25 234.32 175.29 234.13 175.33 233.95 175.35 233.76 175.37 233.58 175.37 233.39 175.35 233.2 175.33 233.01 175.29 232.83 175.25 232.65 175.19 232.47 175.12 232.29 175.04 232.12 174.95 231.96 174.84 231.8 174.73 231.65 174.61 231.51 174.48 231.37 174.34 231.24 174.2 231.12 174.05 231.01 173.89 230.92 173.72 230.83 173.55 230.75 173.37 230.68 173.19 230.63 173.01 230.58 172.83 230.55 172.64 230.53 172.45 230.52 172.26 230.52 172.08 230.54 171.89 230.56 171.71 230.6 171.53 230.65 171.35 230.71 171.18 230.79 171.01 230.87 170.84 230.96 170.69 231.07 170.54 231.18 170.4 231.31 170.26 231.44 170.14 231.58 170.02 231.72 169.91 231.88 169.82 232.04 169.73 232.21 169.66 232.38 169.59 232.56 169.54 232.74 169.5 232.92 169.47 233.11 169.45 233.29 169.44 233.48"/></g><g id="ID000070"><text class="cls-2" transform="translate(199.99 162.39)">G</text></g><g id="ID000071"><text class="cls-2" transform="translate(181.48 162.39)">G</text></g><g id="ID000072"><text class="cls-1" transform="translate(182.3 177.2)">A</text></g><g id="ID000073"><text class="cls-1" transform="translate(182.3 192.01)">A</text></g><g id="ID000074"><text class="cls-2" transform="translate(181.89 206.82)">C</text></g><g id="ID000075"><text class="cls-2" transform="translate(181.48 221.63)">G</text></g><g id="ID000076"><line class="cls-3" x1="197.09" y1="214.97" x2="206.96" y2="214.97"/></g><g id="ID000077"><text class="cls-4" transform="translate(206.96 221.63)">40</text></g><g id="ID000078"><text class="cls-2" transform="translate(181.48 240.15)">G</text></g><g id="ID000079"><text class="cls-8" transform="translate(152.27 221.63)">C</text></g><g id="ID000080"><text class="cls-8" transform="translate(151.85 206.82)">G</text></g><g id="ID000081"><text class="cls-8" transform="translate(152.27 192.01)">U</text></g><g id="ID000082"><text class="cls-8" transform="translate(152.27 177.2)">U</text></g><g id="ID000083"><text class="cls-8" transform="translate(152.27 162.39)">C</text></g><g id="ID000084"><line class="cls-3" x1="201.1" y1="159.43" x2="191.84" y2="166.84"/></g><g id="ID000085"><polygon class="cls-5" points="201.79 158.87 201.67 158.73 201.54 158.6 201.4 158.47 201.25 158.35 201.1 158.25 200.94 158.15 200.77 158.06 200.6 157.98 200.43 157.92 200.25 157.86 200.06 157.82 199.88 157.79 199.69 157.77 199.5 157.76 199.31 157.77 199.13 157.78 198.94 157.81 198.76 157.85 198.58 157.9 198.4 157.97 198.23 158.04 198.06 158.13 197.9 158.22 197.74 158.33 197.59 158.44 197.45 158.57 197.32 158.7 197.19 158.84 197.08 158.99 196.97 159.15 196.88 159.31 196.79 159.47 196.72 159.65 196.66 159.82 196.61 160 196.57 160.19 196.54 160.38 196.52 160.56 196.52 160.75 196.53 160.94 196.54 161.13 196.58 161.31 196.62 161.49 196.67 161.67 196.74 161.85 196.82 162.02 196.9 162.19 197 162.35 197.11 162.5 197.23 162.65 197.35 162.79 197.49 162.92 197.63 163.04 197.78 163.15 197.94 163.25 198.1 163.35 198.27 163.43 198.45 163.5 198.62 163.56 198.81 163.61 198.99 163.65 199.18 163.67 199.36 163.69 199.55 163.69 199.74 163.68 199.93 163.65 200.11 163.62 200.29 163.57 200.47 163.52 200.65 163.45 200.82 163.37 200.98 163.28 201.14 163.18 201.29 163.07 201.44 162.95 201.57 162.82 201.7 162.68 201.82 162.54 201.93 162.38 202.03 162.23 202.12 162.06 202.2 161.89 202.27 161.72 202.33 161.54 202.37 161.35 202.41 161.17 202.43 160.98 202.44 160.79 202.44 160.61 202.43 160.42 202.4 160.23 202.36 160.05 202.31 159.87 202.25 159.69 202.18 159.51 202.1 159.35 202.01 159.18 201.91 159.03 201.79 158.87"/></g><g id="ID000086"><polygon class="cls-5" points="193 169.7 197.63 166 193.93 161.37 189.3 165.07 193 169.7"/></g><g id="ID000087"><line class="cls-3" x1="181.29" y1="155.73" x2="163.52" y2="155.73"/></g><g id="ID000088"><line class="cls-3" x1="181.29" y1="170.54" x2="163.52" y2="170.54"/></g><g id="ID000089"><line class="cls-3" x1="181.29" y1="185.35" x2="163.52" y2="185.35"/></g><g id="ID000090"><line class="cls-3" x1="181.29" y1="200.16" x2="163.52" y2="200.16"/></g><g id="ID000091"><line class="cls-3" x1="181.29" y1="214.97" x2="163.52" y2="214.97"/></g><g id="ID000093"><line class="cls-10" x1="128.46" y1="204.35" x2="153.41" y2="229.29"/></g><g id="ID000094"><polygon class="cls-5" points="140.58 210.19 140.76 213.5 141.98 215.77 143.46 217.78 146.17 222.06 141.89 219.35 139.88 217.87 137.62 216.65 134.3 216.47 140.58 210.19"/></g><g id="ID000095"><line class="cls-6" x1="155.26" y1="127.85" x2="126.6" y2="194.71"/></g><g id="ID000096"><polygon class="cls-5" points="146.96 158.49 143.95 159.89 142.29 161.86 140.98 163.99 138.02 168.09 138.94 163.11 139.57 160.7 139.86 158.13 138.79 154.99 146.96 158.49"/></g><g id="ID000097"><line class="cls-6" x1="221.58" y1="248.44" x2="241.72" y2="233.33"/></g><g id="ID000098"><polygon class="cls-5" points="225.03 240.29 228.34 240.59 230.76 239.7 232.96 238.52 237.57 236.44 234.29 240.29 232.54 242.07 231.01 244.15 230.37 247.4 225.03 240.29"/></g><text class="cls-11" transform="translate(206.88 103.62)">P1</text><text class="cls-12" transform="translate(147.7 318.48)">P2</text><text class="cls-13" transform="translate(3.91 22.29)">Glutamine-II Riboswitch</text><rect class="cls-14" x="163.57" y="203.49" width="16.39" height="8.19"/><text class="cls-15" transform="translate(164.47 211.26)">Gln</text><text class="cls-16" transform="translate(142.63 215.26)">5<tspan class="cls-17" x="7.09" y="0">’</tspan></text><text class="cls-16" transform="translate(140.8 241.66)">3<tspan class="cls-17" x="7.09" y="0">’</tspan></text><text class="cls-16" transform="translate(222.74 387.33)">5<tspan class="cls-18" x="7.09" y="0">’</tspan></text><text class="cls-16" transform="translate(175.4 387.33)">3<tspan class="cls-17" x="7.09" y="0">’</tspan></text></svg>