<?xml version="1.0" encoding="UTF-8"?><svg id="_图层_1" xmlns="http://www.w3.org/2000/svg" viewBox="0 0 400 400"><defs><style>.cls-1,.cls-2,.cls-3,.cls-4,.cls-5,.cls-6,.cls-7,.cls-8,.cls-9,.cls-10,.cls-11,.cls-12,.cls-13,.cls-14,.cls-15,.cls-16{font-family:ArialMT, Arial;}.cls-1,.cls-2,.cls-3,.cls-6,.cls-7,.cls-8,.cls-10,.cls-11,.cls-12,.cls-14{font-size:15.55px;isolation:isolate;}.cls-1,.cls-8,.cls-14{letter-spacing:-.06em;}.cls-1,.cls-9,.cls-11{fill:#0a0bff;}.cls-17,.cls-18,.cls-19{stroke-width:.14px;}.cls-17,.cls-18,.cls-19,.cls-20{stroke:#000;stroke-miterlimit:1.11;}.cls-17,.cls-20{fill:none;}.cls-18,.cls-16{fill:#fff;}.cls-3,.cls-6,.cls-15{fill:#ffaadc;}.cls-3,.cls-10{letter-spacing:-.06em;}.cls-4,.cls-9,.cls-13{font-size:20px;}.cls-4,.cls-12,.cls-14{fill:#80db9e;}.cls-5{fill:#231815;font-size:14px;}.cls-7,.cls-8,.cls-10{fill:#ffdf5c;}.cls-20{stroke-width:.5px;}.cls-21{letter-spacing:-.04em;}.cls-22{fill:red;}.cls-15{font-size:21px;}.cls-16{font-size:10px;}</style></defs><g><g id="ID000002"><text class="cls-12" transform="translate(45.99 312.07) scale(1.02 1)"><tspan x="0" y="0">C</tspan></text></g><g id="ID000003"><text class="cls-12" transform="translate(45.55 296.85) scale(1.02 1)"><tspan x="0" y="0">G</tspan></text></g><g id="ID000004"><text class="cls-12" transform="translate(45.99 281.62) scale(1.02 1)"><tspan x="0" y="0">U</tspan></text></g><g id="ID000005"><text class="cls-12" transform="translate(45.99 266.4) scale(1.02 1)"><tspan x="0" y="0">U</tspan></text></g><g id="ID000006"><text class="cls-12" transform="translate(45.55 251.18) scale(1.02 1)"><tspan x="0" y="0">G</tspan></text></g><g id="ID000007"><text class="cls-1" transform="translate(46.42 190.28) scale(1.02 1)"><tspan x="0" y="0">A</tspan></text></g><g id="ID000008"><text class="cls-8" transform="translate(112.15 243.56) scale(1.02 1)"><tspan x="0" y="0">A</tspan></text></g><g id="ID000009"><text class="cls-7" transform="translate(95.81 243.56) scale(1.02 1)"><tspan x="0" y="0">G</tspan></text></g><g id="ID000010"><text class="cls-12" transform="translate(76.92 251.18) scale(1.02 1)"><tspan x="0" y="0">C</tspan></text></g><g id="ID000011"><text class="cls-14" transform="translate(77.35 266.4) scale(1.02 1)"><tspan x="0" y="0">A</tspan></text></g><g id="ID000012"><text class="cls-14" transform="translate(77.35 281.62) scale(1.02 1)"><tspan x="0" y="0">A</tspan></text></g><g id="ID000013"><text class="cls-12" transform="translate(76.92 296.85) scale(1.02 1)"><tspan x="0" y="0">C</tspan></text></g><g id="ID000014"><text class="cls-12" transform="translate(76.48 312.07) scale(1.02 1)"><tspan x="0" y="0">G</tspan></text></g><g id="ID000015"><text class="cls-12" transform="translate(76.92 327.29) scale(1.02 1)"><tspan x="0" y="0">C</tspan></text></g><g id="ID000016"><line class="cls-17" x1="92.93" y1="320.44" x2="103.24" y2="320.44"/></g><g id="ID000017"><text class="cls-2" transform="translate(103.24 327.29) scale(1.02 1)"><tspan x="0" y="0">60</tspan></text></g><g id="ID000018"><text class="cls-12" transform="translate(76.48 342.52) scale(1.02 1)"><tspan x="0" y="0">G</tspan></text></g><g id="ID000019"><line class="cls-17" x1="57.88" y1="305.22" x2="76.44" y2="305.22"/></g><g id="ID000020"><polyline class="cls-17" points="57.22 287.27 59.42 286.19 80.99 208.33"/></g><g id="ID000021"><polygon class="cls-19" points="71.32 254.82 72.95 248.94 66.98 247.34 65.35 253.22 71.32 254.82"/></g><g id="ID000022"><polygon class="cls-19" points="72.08 240.51 71.89 240.46 71.7 240.43 71.5 240.41 71.3 240.4 71.11 240.4 70.91 240.42 70.72 240.45 70.53 240.49 70.34 240.54 70.15 240.6 69.97 240.68 69.8 240.76 69.63 240.86 69.46 240.97 69.31 241.09 69.16 241.21 69.02 241.35 68.89 241.49 68.77 241.65 68.66 241.81 68.56 241.97 68.47 242.14 68.39 242.32 68.32 242.5 68.27 242.69 68.23 242.88 68.2 243.07 68.18 243.26 68.17 243.45 68.18 243.65 68.2 243.84 68.23 244.03 68.28 244.22 68.33 244.4 68.4 244.58 68.48 244.76 68.57 244.93 68.67 245.1 68.78 245.26 68.9 245.41 69.04 245.55 69.18 245.69 69.32 245.81 69.48 245.93 69.65 246.04 69.82 246.13 69.99 246.22 70.17 246.29 70.36 246.35 70.55 246.4 70.74 246.44 70.93 246.47 71.13 246.49 71.33 246.49 71.52 246.48 71.72 246.46 71.91 246.42 72.1 246.38 72.29 246.32 72.47 246.25 72.65 246.17 72.82 246.07 72.99 245.97 73.15 245.86 73.3 245.74 73.44 245.61 73.58 245.47 73.7 245.32 73.82 245.16 73.93 245 74.02 244.83 74.1 244.65 74.18 244.47 74.24 244.29 74.29 244.1 74.32 243.91 74.35 243.72 74.36 243.53 74.36 243.34 74.34 243.14 74.32 242.95 74.28 242.76 74.23 242.58 74.17 242.39 74.1 242.21 74.01 242.04 73.92 241.87 73.81 241.71 73.69 241.55 73.56 241.41 73.43 241.27 73.28 241.14 73.13 241.01 72.97 240.9 72.8 240.8 72.63 240.71 72.45 240.63 72.27 240.56 72.08 240.51"/></g><g id="ID000023"><line class="cls-17" x1="57.88" y1="289.99" x2="76.44" y2="289.99"/></g><g id="ID000024"><line class="cls-17" x1="57.88" y1="274.77" x2="76.44" y2="274.77"/></g><g id="ID000025"><line class="cls-17" x1="57.88" y1="259.55" x2="76.44" y2="259.55"/></g><g id="ID000026"><line class="cls-17" x1="57.88" y1="244.32" x2="76.44" y2="244.32"/></g><g id="ID000027"><line class="cls-17" x1="57.88" y1="183.43" x2="76.44" y2="183.43"/></g><g id="ID000028"><polygon class="cls-18" points="70.25 183.43 70.24 183.24 70.22 183.05 70.19 182.86 70.15 182.67 70.09 182.48 70.03 182.3 69.95 182.12 69.86 181.95 69.76 181.79 69.65 181.63 69.53 181.47 69.39 181.33 69.25 181.19 69.11 181.07 68.95 180.95 68.79 180.84 68.62 180.75 68.44 180.66 68.26 180.59 68.07 180.52 67.89 180.47 67.69 180.43 67.5 180.41 67.3 180.39 67.11 180.39 66.91 180.4 66.72 180.42 66.52 180.45 66.33 180.5 66.14 180.55 65.96 180.62 65.78 180.7 65.61 180.79 65.44 180.9 65.28 181.01 65.13 181.13 64.99 181.26 64.85 181.4 64.72 181.55 64.61 181.7 64.5 181.87 64.41 182.04 64.32 182.21 64.25 182.39 64.19 182.57 64.14 182.76 64.1 182.95 64.08 183.14 64.06 183.33 64.06 183.53 64.08 183.72 64.1 183.91 64.14 184.1 64.19 184.29 64.25 184.47 64.32 184.65 64.41 184.83 64.5 184.99 64.61 185.16 64.72 185.31 64.85 185.46 64.99 185.6 65.13 185.73 65.28 185.85 65.44 185.97 65.61 186.07 65.78 186.16 65.96 186.24 66.14 186.31 66.33 186.37 66.52 186.41 66.72 186.44 66.91 186.47 67.11 186.48 67.3 186.47 67.5 186.46 67.69 186.43 67.89 186.39 68.07 186.34 68.26 186.28 68.44 186.2 68.62 186.11 68.79 186.02 68.95 185.91 69.11 185.79 69.25 185.67 69.39 185.53 69.53 185.39 69.65 185.24 69.76 185.08 69.86 184.91 69.95 184.74 70.03 184.56 70.09 184.38 70.15 184.2 70.19 184.01 70.22 183.82 70.24 183.62 70.25 183.43"/></g><g id="ID000029"><line class="cls-17" x1="141.72" y1="188.88" x2="120.19" y2="231.27"/></g><g id="ID000030"><polygon class="cls-18" points="132.34 214.16 135.1 208.71 129.57 205.99 126.8 211.43 132.34 214.16"/></g><g id="ID000031"><polyline class="cls-17" points="99.19 242.16 90.35 259.55 88.81 259.55"/></g><g id="ID000032"><polygon class="cls-19" points="97.95 244.59 97.78 244.51 97.59 244.44 97.4 244.38 97.21 244.34 97.02 244.3 96.83 244.28 96.63 244.27 96.43 244.27 96.24 244.29 96.04 244.31 95.85 244.35 95.66 244.4 95.48 244.47 95.29 244.54 95.12 244.62 94.95 244.72 94.78 244.83 94.63 244.94 94.48 245.07 94.34 245.2 94.21 245.35 94.09 245.5 93.97 245.66 93.87 245.82 93.78 245.99 93.7 246.17 93.63 246.35 93.58 246.54 93.53 246.73 93.5 246.92 93.48 247.11 93.48 247.3 93.48 247.5 93.5 247.69 93.53 247.88 93.57 248.07 93.63 248.25 93.69 248.44 93.77 248.61 93.86 248.78 93.96 248.95 94.07 249.11 94.19 249.26 94.32 249.41 94.46 249.54 94.61 249.67 94.77 249.79 94.93 249.89 95.1 249.99 95.28 250.08 95.46 250.15 95.64 250.22 95.83 250.27 96.02 250.31 96.22 250.34 96.41 250.35 96.61 250.36 96.8 250.35 97 250.33 97.19 250.3 97.38 250.25 97.57 250.19 97.76 250.13 97.93 250.05 98.11 249.96 98.27 249.85 98.43 249.74 98.59 249.62 98.73 249.49 98.87 249.35 99 249.2 99.11 249.05 99.22 248.89 99.31 248.72 99.4 248.54 99.47 248.37 99.54 248.18 99.59 247.99 99.62 247.81 99.65 247.61 99.66 247.42 99.66 247.23 99.65 247.03 99.63 246.84 99.59 246.65 99.54 246.47 99.48 246.28 99.41 246.1 99.32 245.93 99.23 245.76 99.12 245.6 99.01 245.44 98.88 245.29 98.75 245.15 98.6 245.02 98.45 244.9 98.29 244.78 98.13 244.68 97.95 244.59"/></g><g id="ID000033"><polygon class="cls-19" points="94.36 258.48 97.12 253.03 91.59 250.31 88.82 255.76 94.36 258.48"/></g><g id="ID000034"><polyline class="cls-17" points="113.54 189.52 113.18 309.02 88.41 318.28"/></g><g id="ID000035"><polygon class="cls-19" points="113.35 252.32 113.55 252.31 113.74 252.29 113.94 252.26 114.13 252.22 114.31 252.17 114.5 252.1 114.68 252.03 114.85 251.94 115.02 251.84 115.19 251.73 115.34 251.61 115.49 251.48 115.62 251.34 115.75 251.2 115.87 251.05 115.98 250.88 116.08 250.72 116.17 250.55 116.24 250.37 116.31 250.18 116.36 250 116.4 249.81 116.43 249.62 116.45 249.43 116.45 249.23 116.44 249.04 116.42 248.85 116.39 248.66 116.34 248.47 116.28 248.28 116.22 248.1 116.13 247.93 116.04 247.76 115.94 247.59 115.83 247.44 115.7 247.29 115.57 247.14 115.43 247.01 115.28 246.88 115.12 246.77 114.96 246.66 114.78 246.57 114.61 246.49 114.42 246.41 114.24 246.35 114.05 246.3 113.86 246.27 113.66 246.24 113.47 246.23 113.27 246.23 113.07 246.24 112.88 246.26 112.69 246.3 112.5 246.35 112.31 246.41 112.13 246.48 111.95 246.56 111.78 246.66 111.61 246.76 111.45 246.87 111.3 247 111.16 247.13 111.03 247.27 110.9 247.42 110.79 247.58 110.68 247.74 110.59 247.91 110.51 248.09 110.44 248.27 110.38 248.45 110.33 248.64 110.3 248.83 110.28 249.02 110.27 249.22 110.27 249.41 110.28 249.6 110.31 249.79 110.35 249.98 110.4 250.17 110.47 250.35 110.54 250.53 110.63 250.7 110.73 250.87 110.83 251.03 110.95 251.19 111.08 251.33 111.22 251.47 111.36 251.6 111.52 251.72 111.68 251.83 111.85 251.93 112.02 252.02 112.2 252.1 112.38 252.16 112.57 252.22 112.76 252.26 112.96 252.29 113.15 252.31 113.35 252.32"/></g><g id="ID000037"><text class="cls-11" transform="translate(45.99 171.25) scale(1.02 1)"><tspan x="0" y="0">C</tspan></text></g><g id="ID000038"><text class="cls-11" transform="translate(45.99 156.03) scale(1.02 1)"><tspan x="0" y="0">C</tspan></text></g><g id="ID000039"><text class="cls-11" transform="translate(45.99 140.81) scale(1.02 1)"><tspan x="0" y="0">C</tspan></text></g><g id="ID000040"><text class="cls-1" transform="translate(46.42 125.58) scale(1.02 1)"><tspan x="0" y="0">A</tspan></text></g><g id="ID000041"><line class="cls-17" x1="41.38" y1="118.73" x2="31.07" y2="118.73"/></g><g id="ID000042"><text class="cls-2" transform="translate(13.5 125.58) scale(1.02 1)"><tspan x="0" y="0">10</tspan></text></g><g id="ID000043"><text class="cls-11" transform="translate(45.55 110.36) scale(1.02 1)"><tspan x="0" y="0">G</tspan></text></g><g id="ID000044"><text class="cls-11" transform="translate(45.55 95.13) scale(1.02 1)"><tspan x="0" y="0">G</tspan></text></g><g id="ID000045"><text class="cls-1" transform="translate(54.15 79.91) scale(1.02 1)"><tspan x="0" y="0">A</tspan></text></g><g id="ID000046"><text class="cls-1" transform="translate(69.62 79.91) scale(1.02 1)"><tspan x="0" y="0">A</tspan></text></g><g id="ID000047"><text class="cls-1" transform="translate(77.35 95.13) scale(1.02 1)"><tspan x="0" y="0">A</tspan></text></g><g id="ID000048"><text class="cls-11" transform="translate(76.92 110.36) scale(1.02 1)"><tspan x="0" y="0">C</tspan></text></g><g id="ID000049"><text class="cls-11" transform="translate(76.92 125.58) scale(1.02 1)"><tspan x="0" y="0">U</tspan></text></g><g id="ID000050"><text class="cls-11" transform="translate(76.48 140.81) scale(1.02 1)"><tspan x="0" y="0">G</tspan></text></g><g id="ID000051"><text class="cls-11" transform="translate(76.48 156.03) scale(1.02 1)"><tspan x="0" y="0">G</tspan></text></g><g id="ID000052"><text class="cls-11" transform="translate(76.48 171.25) scale(1.02 1)"><tspan x="0" y="0">G</tspan></text></g><g id="ID000053"><line class="cls-17" x1="92.93" y1="164.4" x2="103.24" y2="164.4"/></g><g id="ID000054"><text class="cls-2" transform="translate(103.24 171.25) scale(1.02 1)"><tspan x="0" y="0">20</tspan></text></g><g id="ID000055"><text class="cls-11" transform="translate(76.92 190.28) scale(1.02 1)"><tspan x="0" y="0">C</tspan></text></g><g id="ID000056"><text class="cls-7" transform="translate(76.48 209.31) scale(1.02 1)"><tspan x="0" y="0">G</tspan></text></g><g id="ID000057"><text class="cls-7" transform="translate(107.41 190.28) scale(1.02 1)"><tspan x="0" y="0">G</tspan></text></g><g id="ID000058"><text class="cls-8" transform="translate(123.75 190.28) scale(1.02 1)"><tspan x="0" y="0">A</tspan></text></g><g id="ID000059"><line class="cls-17" x1="57.88" y1="164.4" x2="76.44" y2="164.4"/></g><g id="ID000060"><line class="cls-17" x1="57.88" y1="149.18" x2="76.44" y2="149.18"/></g><g id="ID000061"><line class="cls-17" x1="57.88" y1="133.96" x2="76.44" y2="133.96"/></g><g id="ID000062"><line class="cls-17" x1="57.88" y1="118.73" x2="76.44" y2="118.73"/></g><g id="ID000063"><line class="cls-17" x1="57.88" y1="103.51" x2="76.44" y2="103.51"/></g><g id="ID000064"><line class="cls-17" x1="57.88" y1="88.28" x2="76.44" y2="88.28"/></g><g id="ID000065"><polygon class="cls-18" points="59.12 88.28 65.14 91.71 65.14 84.86 59.12 88.28"/></g><g id="ID000066"><polygon class="cls-18" points="74.27 85.24 68.08 85.24 68.08 91.33 74.27 91.33 74.27 85.24"/></g><g id="ID000068"><text class="cls-8" transform="translate(139.22 190.28) scale(1.02 1)"><tspan x="0" y="0">A</tspan></text></g><g id="ID000069"><text class="cls-7" transform="translate(153.81 190.28) scale(1.02 1)"><tspan x="0" y="0">G</tspan></text></g><g id="ID000070"><text class="cls-7" transform="translate(192.92 190.28) scale(1.02 1)"><tspan x="0" y="0">U</tspan></text></g><g id="ID000071"><text class="cls-10" transform="translate(208.82 190.28) scale(1.02 1)"><tspan x="0" y="0">A</tspan></text></g><g id="ID000072"><text class="cls-3" transform="translate(224.28 190.28) scale(1.02 1)"><tspan x="0" y="0">A</tspan></text></g><g id="ID000073"><text class="cls-6" transform="translate(238.88 190.28) scale(1.02 1)"><tspan x="0" y="0">G</tspan></text></g><g id="ID000074"><line class="cls-17" x1="245.02" y1="173.28" x2="245.02" y2="163.13"/></g><g id="ID000075"><text class="cls-2" transform="translate(236.23 159.33) scale(1.02 1)"><tspan x="0" y="0">30</tspan></text></g><g id="ID000076"><text class="cls-6" transform="translate(254.34 190.28) scale(1.02 1)"><tspan x="0" y="0">G</tspan></text></g><g id="ID000077"><text class="cls-6" transform="translate(270.25 190.28) scale(1.02 1)"><tspan x="0" y="0">U</tspan></text></g><g id="ID000078"><text class="cls-6" transform="translate(285.71 190.28) scale(1.02 1)"><tspan x="0" y="0">C</tspan></text></g><g id="ID000079"><text class="cls-6" transform="translate(301.18 190.28) scale(1.02 1)"><tspan x="0" y="0">C</tspan></text></g><g id="ID000080"><text class="cls-3" transform="translate(317.08 190.28) scale(1.02 1)"><tspan x="0" y="0">A</tspan></text></g><g id="ID000081"><text class="cls-6" transform="translate(332.11 190.28) scale(1.02 1)"><tspan x="0" y="0">U</tspan></text></g><g id="ID000082"><text class="cls-6" transform="translate(347.58 190.28) scale(1.02 1)"><tspan x="0" y="0">U</tspan></text></g><g id="ID000083"><text class="cls-6" transform="translate(362.61 190.28) scale(1.02 1)"><tspan x="0" y="0">G</tspan></text></g><g id="ID000084"><text class="cls-6" transform="translate(378.51 197.89) scale(1.02 1)"><tspan x="0" y="0">C</tspan></text></g><g id="ID000085"><text class="cls-3" transform="translate(378.95 216.92) scale(1.02 1)"><tspan x="0" y="0">A</tspan></text></g><g id="ID000086"><line class="cls-17" x1="384.21" y1="220.22" x2="384.21" y2="230.37"/></g><g id="ID000087"><text class="cls-2" transform="translate(375.43 248.33) scale(1.02 1)"><tspan x="0" y="0">40</tspan></text></g><g id="ID000088"><text class="cls-6" transform="translate(363.05 220.73) scale(1.02 1)"><tspan x="0" y="0">C</tspan></text></g><g id="ID000089"><text class="cls-6" transform="translate(347.58 220.73) scale(1.02 1)"><tspan x="0" y="0">U</tspan></text></g><g id="ID000090"><text class="cls-6" transform="translate(332.11 220.73) scale(1.02 1)"><tspan x="0" y="0">C</tspan></text></g><g id="ID000091"><text class="cls-6" transform="translate(316.64 220.73) scale(1.02 1)"><tspan x="0" y="0">C</tspan></text></g><g id="ID000092"><text class="cls-6" transform="translate(300.74 220.73) scale(1.02 1)"><tspan x="0" y="0">G</tspan></text></g><g id="ID000093"><text class="cls-6" transform="translate(285.27 220.73) scale(1.02 1)"><tspan x="0" y="0">G</tspan></text></g><g id="ID000094"><text class="cls-6" transform="translate(269.8 220.73) scale(1.02 1)"><tspan x="0" y="0">G</tspan></text></g><g id="ID000095"><text class="cls-6" transform="translate(254.78 220.73) scale(1.02 1)"><tspan x="0" y="0">C</tspan></text></g><g id="ID000096"><text class="cls-6" transform="translate(239.31 220.73) scale(1.02 1)"><tspan x="0" y="0">C</tspan></text></g><g id="ID000097"><text class="cls-6" transform="translate(223.85 220.73) scale(1.02 1)"><tspan x="0" y="0">U</tspan></text></g><g id="ID000098"><line class="cls-17" x1="229.55" y1="224.03" x2="229.55" y2="234.18"/></g><g id="ID000099"><text class="cls-2" transform="translate(220.77 252.14) scale(1.02 1)"><tspan x="0" y="0">50</tspan></text></g><g id="ID000100"><text class="cls-7" transform="translate(142.21 243.56) scale(1.02 1)"><tspan x="0" y="0">G</tspan></text></g><g id="ID000101"><text class="cls-8" transform="translate(127.62 243.56) scale(1.02 1)"><tspan x="0" y="0">A</tspan></text></g><g id="ID000102"><line class="cls-17" x1="166.14" y1="183.43" x2="192.43" y2="183.43"/></g><g id="ID000103"><polygon class="cls-19" points="171.25 183.43 177.27 186.86 177.27 180.01 171.25 183.43"/></g><g id="ID000104"><polygon class="cls-19" points="186.4 180.39 180.21 180.39 180.21 186.48 186.4 186.48 186.4 180.39"/></g><g id="ID000105"><line class="cls-17" x1="193.84" y1="187.3" x2="137.66" y2="232.84"/></g><g id="ID000106"><polygon class="cls-18" points="171.25 205.62 171.12 205.47 170.98 205.34 170.83 205.21 170.67 205.09 170.51 204.98 170.34 204.89 170.17 204.8 169.99 204.72 169.8 204.66 169.61 204.6 169.42 204.56 169.23 204.53 169.03 204.52 168.84 204.51 168.64 204.52 168.45 204.54 168.25 204.57 168.06 204.61 167.87 204.67 167.69 204.74 167.51 204.82 167.34 204.91 167.17 205.01 167.01 205.12 166.85 205.24 166.71 205.37 166.57 205.5 166.44 205.65 166.33 205.81 166.22 205.97 166.12 206.14 166.04 206.31 165.96 206.49 165.9 206.67 165.85 206.86 165.81 207.05 165.78 207.24 165.77 207.43 165.76 207.62 165.78 207.82 165.8 208.01 165.83 208.2 165.88 208.39 165.94 208.57 166.01 208.75 166.1 208.93 166.19 209.1 166.29 209.26 166.41 209.42 166.53 209.57 166.67 209.71 166.81 209.84 166.96 209.96 167.12 210.08 167.29 210.18 167.46 210.27 167.64 210.35 167.82 210.42 168.01 210.48 168.2 210.53 168.39 210.57 168.58 210.59 168.78 210.6 168.98 210.6 169.17 210.58 169.37 210.56 169.56 210.52 169.75 210.47 169.93 210.41 170.12 210.34 170.29 210.25 170.46 210.16 170.63 210.05 170.79 209.94 170.94 209.81 171.08 209.68 171.21 209.53 171.33 209.38 171.44 209.23 171.55 209.06 171.64 208.89 171.72 208.71 171.79 208.53 171.84 208.35 171.89 208.16 171.92 207.97 171.94 207.78 171.95 207.58 171.95 207.39 171.93 207.2 171.9 207.01 171.86 206.82 171.8 206.63 171.74 206.45 171.66 206.27 171.57 206.1 171.48 205.93 171.37 205.77 171.25 205.62"/></g><g id="ID000107"><polygon class="cls-18" points="162.23 216.87 167 213 163.07 208.3 158.29 212.17 162.23 216.87"/></g><g id="ID000108"><polyline class="cls-17" points="210.65 188.5 206.35 194.85 206.35 194.85 206.35 194.85 206.35 194.85 153.34 233.11"/></g><g id="ID000109"><polygon class="cls-18" points="183.76 207.38 178.77 210.98 182.43 215.9 187.41 212.29 183.76 207.38"/></g><g id="ID000110"><polygon class="cls-18" points="173.36 218.66 180.28 217.91 176.17 212.39 173.36 218.66"/></g><g id="ID000111"><line class="cls-17" x1="229.55" y1="189.52" x2="229.55" y2="207.79"/></g><g id="ID000112"><line class="cls-17" x1="245.02" y1="189.52" x2="245.02" y2="207.79"/></g><g id="ID000113"><line class="cls-17" x1="260.48" y1="189.52" x2="260.48" y2="207.79"/></g><g id="ID000114"><polygon class="cls-19" points="275.95 201.7 276.15 201.69 276.34 201.67 276.54 201.64 276.73 201.6 276.92 201.55 277.1 201.48 277.28 201.4 277.45 201.31 277.62 201.22 277.78 201.11 277.94 200.99 278.09 200.86 278.22 200.72 278.35 200.57 278.47 200.42 278.58 200.26 278.68 200.09 278.76 199.92 278.84 199.74 278.9 199.56 278.96 199.37 279 199.18 279.02 198.99 279.04 198.8 279.04 198.61 279.03 198.41 279.01 198.22 278.98 198.03 278.93 197.84 278.87 197.66 278.8 197.48 278.72 197.3 278.63 197.13 278.53 196.97 278.41 196.81 278.29 196.66 278.16 196.52 278.01 196.39 277.86 196.26 277.7 196.15 277.54 196.04 277.37 195.95 277.19 195.87 277.01 195.79 276.82 195.73 276.63 195.68 276.44 195.65 276.24 195.62 276.05 195.61 275.85 195.61 275.66 195.62 275.46 195.65 275.27 195.68 275.08 195.73 274.89 195.79 274.71 195.87 274.53 195.95 274.36 196.04 274.2 196.15 274.04 196.26 273.89 196.39 273.75 196.52 273.61 196.66 273.49 196.81 273.38 196.97 273.27 197.13 273.18 197.3 273.1 197.48 273.03 197.66 272.97 197.84 272.92 198.03 272.89 198.22 272.87 198.41 272.86 198.61 272.86 198.8 272.88 198.99 272.9 199.18 272.94 199.37 273 199.56 273.06 199.74 273.14 199.92 273.22 200.09 273.32 200.26 273.43 200.42 273.55 200.57 273.68 200.72 273.82 200.86 273.96 200.99 274.12 201.11 274.28 201.22 274.45 201.31 274.62 201.4 274.8 201.48 274.99 201.55 275.17 201.6 275.37 201.64 275.56 201.67 275.75 201.69 275.95 201.7"/></g><g id="ID000115"><line class="cls-17" x1="291.42" y1="189.52" x2="291.42" y2="207.79"/></g><g id="ID000116"><line class="cls-17" x1="306.88" y1="189.52" x2="306.88" y2="207.79"/></g><g id="ID000118"><line class="cls-20" x1="51.69" y1="238.24" x2="51.69" y2="189.52"/></g><g id="ID000119"><polygon class="cls-19" points="47.05 218.95 49.37 216.42 50.14 213.88 50.53 211.34 51.69 206.27 52.85 211.34 53.24 213.88 54.01 216.42 56.33 218.95 47.05 218.95"/></g><g id="ID000120"><line class="cls-20" x1="223.6" y1="215.55" x2="154.3" y2="235.04"/></g><g id="ID000121"><polygon class="cls-19" points="195.18 228.29 192.07 226.79 189.38 226.76 186.79 227.09 181.52 227.39 186.16 224.89 188.53 223.83 190.79 222.4 192.64 219.51 195.18 228.29"/></g><g id="ID000122"><polyline class="cls-20" points="88.49 200.53 94.22 198.65 94.22 198.65 105.82 191.04 105.82 191.04 109.18 187.74"/></g><g id="ID000123"><polygon points="93.16 193.86 96.59 194.36 99.16 193.58 101.52 192.49 106.46 190.63 102.81 194.39 100.88 196.12 99.16 198.16 98.31 201.46 93.16 193.86"/></g></g><text class="cls-15" transform="translate(301.73 246.56)"><tspan x="0" y="0">P3</tspan></text><text class="cls-4" transform="translate(11.57 285.29)"><tspan x="0" y="0">P1</tspan></text><text class="cls-9" transform="translate(9.57 154.29)"><tspan x="0" y="0">P2</tspan></text><rect class="cls-22" x="58" y="293" width="18" height="9"/><text class="cls-16" transform="translate(58.99 301.53)"><tspan x="0" y="0">Gln</tspan></text><text class="cls-5" transform="translate(36 326.92)"><tspan x="0" y="0">5</tspan><tspan class="cls-21" x="7.79" y="0">’</tspan></text><text class="cls-5" transform="translate(88 354.92)"><tspan x="0" y="0">3</tspan><tspan class="cls-21" x="7.79" y="0">’</tspan></text><text class="cls-13" transform="translate(3.99 20.29)"><tspan x="0" y="0">Glutamine-I Riboswitch</tspan></text></svg>