<?xml version="1.0" encoding="UTF-8"?><svg id="_图层_1" xmlns="http://www.w3.org/2000/svg" viewBox="0 0 383.43 315.34"><defs><style>.cls-1,.cls-2,.cls-3,.cls-4,.cls-5,.cls-6,.cls-7,.cls-8,.cls-9,.cls-10,.cls-11,.cls-12,.cls-13,.cls-14,.cls-15,.cls-16{font-family:ArialMT, Arial;}.cls-1,.cls-2,.cls-3,.cls-6,.cls-7,.cls-8,.cls-10,.cls-11,.cls-12,.cls-14{font-size:15.55px;isolation:isolate;}.cls-1,.cls-8,.cls-14{letter-spacing:-.06em;}.cls-1,.cls-9,.cls-11{fill:#0a0bff;}.cls-17,.cls-18,.cls-19{stroke-width:.14px;}.cls-17,.cls-18,.cls-19,.cls-20{stroke:#000;stroke-miterlimit:1.11;}.cls-17,.cls-20{fill:none;}.cls-18,.cls-16{fill:#fff;}.cls-3,.cls-6,.cls-15{fill:#ffaadc;}.cls-3,.cls-10{letter-spacing:-.06em;}.cls-4,.cls-9,.cls-13{font-size:20px;}.cls-4,.cls-12,.cls-14{fill:#80db9e;}.cls-5{fill:#231815;font-size:14px;}.cls-7,.cls-8,.cls-10{fill:#ffdf5c;}.cls-20{stroke-width:.5px;}.cls-21{letter-spacing:-.04em;}.cls-22{fill:red;}.cls-15{font-size:21px;}.cls-16{font-size:10px;}</style></defs><g><g id="ID000002"><text class="cls-12" transform="translate(36.42 267.94) scale(1.02 1)"><tspan x="0" y="0">C</tspan></text></g><g id="ID000003"><text class="cls-12" transform="translate(35.98 252.72) scale(1.02 1)"><tspan x="0" y="0">G</tspan></text></g><g id="ID000004"><text class="cls-12" transform="translate(36.42 237.49) scale(1.02 1)"><tspan x="0" y="0">U</tspan></text></g><g id="ID000005"><text class="cls-12" transform="translate(36.42 222.27) scale(1.02 1)"><tspan x="0" y="0">U</tspan></text></g><g id="ID000006"><text class="cls-12" transform="translate(35.98 207.05) scale(1.02 1)"><tspan x="0" y="0">G</tspan></text></g><g id="ID000007"><text class="cls-1" transform="translate(36.85 146.15) scale(1.02 1)"><tspan x="0" y="0">A</tspan></text></g><g id="ID000008"><text class="cls-8" transform="translate(102.58 199.43) scale(1.02 1)"><tspan x="0" y="0">A</tspan></text></g><g id="ID000009"><text class="cls-7" transform="translate(86.24 199.43) scale(1.02 1)"><tspan x="0" y="0">G</tspan></text></g><g id="ID000010"><text class="cls-12" transform="translate(67.35 207.05) scale(1.02 1)"><tspan x="0" y="0">C</tspan></text></g><g id="ID000011"><text class="cls-14" transform="translate(67.79 222.27) scale(1.02 1)"><tspan x="0" y="0">A</tspan></text></g><g id="ID000012"><text class="cls-14" transform="translate(67.79 237.49) scale(1.02 1)"><tspan x="0" y="0">A</tspan></text></g><g id="ID000013"><text class="cls-12" transform="translate(67.35 252.72) scale(1.02 1)"><tspan x="0" y="0">C</tspan></text></g><g id="ID000014"><text class="cls-12" transform="translate(66.91 267.94) scale(1.02 1)"><tspan x="0" y="0">G</tspan></text></g><g id="ID000015"><text class="cls-12" transform="translate(67.35 283.16) scale(1.02 1)"><tspan x="0" y="0">C</tspan></text></g><g id="ID000016"><line class="cls-17" x1="83.36" y1="276.31" x2="93.67" y2="276.31"/></g><g id="ID000017"><text class="cls-2" transform="translate(93.67 283.16) scale(1.02 1)"><tspan x="0" y="0">60</tspan></text></g><g id="ID000018"><text class="cls-12" transform="translate(66.91 298.39) scale(1.02 1)"><tspan x="0" y="0">G</tspan></text></g><g id="ID000019"><line class="cls-17" x1="48.31" y1="261.09" x2="66.87" y2="261.09"/></g><g id="ID000020"><polyline class="cls-17" points="47.65 243.14 49.85 242.06 71.42 164.2"/></g><g id="ID000021"><polygon class="cls-19" points="61.75 210.69 63.38 204.81 57.41 203.21 55.78 209.09 61.75 210.69"/></g><g id="ID000022"><polygon class="cls-19" points="62.51 196.38 62.32 196.33 62.13 196.3 61.93 196.28 61.73 196.27 61.54 196.27 61.34 196.29 61.15 196.32 60.96 196.36 60.77 196.41 60.58 196.47 60.4 196.55 60.23 196.63 60.06 196.73 59.89 196.84 59.74 196.96 59.59 197.08 59.45 197.22 59.32 197.36 59.2 197.52 59.09 197.68 58.99 197.84 58.9 198.01 58.82 198.19 58.75 198.37 58.7 198.56 58.66 198.75 58.63 198.94 58.61 199.13 58.6 199.32 58.61 199.52 58.63 199.71 58.66 199.9 58.71 200.09 58.76 200.27 58.83 200.45 58.91 200.63 59 200.8 59.1 200.97 59.21 201.13 59.33 201.28 59.47 201.42 59.61 201.56 59.75 201.68 59.91 201.8 60.08 201.91 60.25 202 60.42 202.09 60.6 202.16 60.79 202.22 60.98 202.27 61.17 202.31 61.36 202.34 61.56 202.36 61.76 202.36 61.95 202.35 62.15 202.33 62.34 202.29 62.53 202.24 62.72 202.19 62.9 202.12 63.08 202.04 63.25 201.94 63.42 201.84 63.58 201.73 63.73 201.61 63.87 201.48 64.01 201.34 64.14 201.19 64.25 201.03 64.36 200.87 64.45 200.7 64.53 200.52 64.61 200.34 64.67 200.16 64.72 199.97 64.75 199.78 64.78 199.59 64.79 199.4 64.79 199.21 64.77 199.01 64.75 198.82 64.71 198.63 64.66 198.45 64.6 198.26 64.53 198.08 64.44 197.91 64.35 197.74 64.24 197.58 64.12 197.42 64 197.27 63.86 197.14 63.71 197 63.56 196.88 63.4 196.77 63.23 196.67 63.06 196.58 62.88 196.5 62.7 196.43 62.51 196.38"/></g><g id="ID000023"><line class="cls-17" x1="48.31" y1="245.86" x2="66.87" y2="245.86"/></g><g id="ID000024"><line class="cls-17" x1="48.31" y1="230.64" x2="66.87" y2="230.64"/></g><g id="ID000025"><line class="cls-17" x1="48.31" y1="215.42" x2="66.87" y2="215.42"/></g><g id="ID000026"><line class="cls-17" x1="48.31" y1="200.19" x2="66.87" y2="200.19"/></g><g id="ID000027"><line class="cls-17" x1="48.31" y1="139.3" x2="66.87" y2="139.3"/></g><g id="ID000028"><polygon class="cls-18" points="60.68 139.3 60.67 139.11 60.65 138.92 60.62 138.72 60.58 138.54 60.52 138.35 60.46 138.17 60.38 137.99 60.29 137.82 60.19 137.65 60.08 137.5 59.96 137.34 59.82 137.2 59.68 137.06 59.54 136.94 59.38 136.82 59.22 136.71 59.05 136.62 58.87 136.53 58.69 136.46 58.5 136.39 58.32 136.34 58.12 136.3 57.93 136.27 57.73 136.26 57.54 136.26 57.34 136.27 57.15 136.29 56.95 136.32 56.76 136.37 56.57 136.42 56.39 136.49 56.21 136.57 56.04 136.66 55.87 136.77 55.71 136.88 55.56 137 55.42 137.13 55.28 137.27 55.15 137.42 55.04 137.57 54.93 137.74 54.84 137.91 54.75 138.08 54.68 138.26 54.62 138.44 54.57 138.63 54.53 138.82 54.51 139.01 54.49 139.2 54.49 139.4 54.51 139.59 54.53 139.78 54.57 139.97 54.62 140.16 54.68 140.34 54.75 140.52 54.84 140.7 54.93 140.86 55.04 141.03 55.15 141.18 55.28 141.33 55.42 141.47 55.56 141.6 55.71 141.72 55.87 141.84 56.04 141.94 56.21 142.03 56.39 142.11 56.57 142.18 56.76 142.24 56.95 142.28 57.15 142.31 57.34 142.34 57.54 142.34 57.73 142.34 57.93 142.33 58.12 142.3 58.32 142.26 58.5 142.21 58.69 142.14 58.87 142.07 59.05 141.98 59.22 141.89 59.38 141.78 59.54 141.66 59.68 141.54 59.82 141.4 59.96 141.26 60.08 141.11 60.19 140.95 60.29 140.78 60.38 140.61 60.46 140.43 60.52 140.25 60.58 140.07 60.62 139.88 60.65 139.69 60.67 139.49 60.68 139.3"/></g><g id="ID000029"><line class="cls-17" x1="132.15" y1="144.75" x2="110.62" y2="187.14"/></g><g id="ID000030"><polygon class="cls-18" points="122.77 170.03 125.53 164.58 120 161.86 117.23 167.3 122.77 170.03"/></g><g id="ID000031"><polyline class="cls-17" points="89.62 198.03 80.79 215.42 79.24 215.42"/></g><g id="ID000032"><polygon class="cls-19" points="88.38 200.46 88.21 200.38 88.02 200.31 87.84 200.25 87.64 200.21 87.45 200.17 87.26 200.15 87.06 200.14 86.86 200.14 86.67 200.16 86.47 200.18 86.28 200.22 86.09 200.27 85.91 200.34 85.73 200.41 85.55 200.49 85.38 200.59 85.21 200.7 85.06 200.81 84.91 200.94 84.77 201.07 84.64 201.22 84.52 201.37 84.4 201.53 84.3 201.69 84.21 201.86 84.13 202.04 84.06 202.22 84.01 202.41 83.96 202.6 83.93 202.79 83.91 202.98 83.91 203.17 83.91 203.37 83.93 203.56 83.96 203.75 84 203.94 84.06 204.12 84.12 204.3 84.2 204.48 84.29 204.65 84.39 204.82 84.5 204.98 84.62 205.13 84.75 205.28 84.89 205.41 85.04 205.54 85.2 205.66 85.36 205.76 85.53 205.86 85.71 205.95 85.89 206.02 86.07 206.09 86.26 206.14 86.45 206.18 86.65 206.21 86.84 206.22 87.04 206.23 87.23 206.22 87.43 206.2 87.62 206.17 87.81 206.12 88 206.06 88.19 206 88.36 205.92 88.54 205.83 88.7 205.72 88.86 205.61 89.02 205.49 89.16 205.36 89.3 205.22 89.43 205.07 89.54 204.92 89.65 204.76 89.74 204.59 89.83 204.41 89.9 204.23 89.97 204.05 90.02 203.86 90.05 203.68 90.08 203.48 90.09 203.29 90.09 203.1 90.08 202.9 90.06 202.71 90.02 202.52 89.97 202.34 89.91 202.15 89.84 201.97 89.75 201.8 89.66 201.63 89.55 201.47 89.44 201.31 89.31 201.16 89.18 201.02 89.03 200.89 88.88 200.77 88.72 200.65 88.56 200.55 88.38 200.46"/></g><g id="ID000033"><polygon class="cls-19" points="84.79 214.35 87.55 208.9 82.02 206.18 79.25 211.62 84.79 214.35"/></g><g id="ID000034"><polyline class="cls-17" points="103.97 145.39 103.61 264.89 78.84 274.15"/></g><g id="ID000035"><polygon class="cls-19" points="103.78 208.19 103.98 208.18 104.17 208.16 104.37 208.13 104.56 208.09 104.75 208.04 104.93 207.97 105.11 207.9 105.28 207.81 105.45 207.71 105.62 207.6 105.77 207.48 105.92 207.35 106.05 207.21 106.18 207.07 106.3 206.92 106.41 206.75 106.51 206.59 106.6 206.41 106.67 206.24 106.74 206.05 106.79 205.87 106.83 205.68 106.86 205.49 106.88 205.3 106.88 205.1 106.87 204.91 106.85 204.72 106.82 204.53 106.77 204.34 106.72 204.15 106.65 203.97 106.56 203.8 106.47 203.63 106.37 203.46 106.26 203.3 106.13 203.15 106 203.01 105.86 202.88 105.71 202.75 105.55 202.64 105.39 202.53 105.21 202.44 105.04 202.36 104.85 202.28 104.67 202.22 104.48 202.17 104.29 202.14 104.09 202.11 103.9 202.1 103.7 202.1 103.5 202.11 103.31 202.13 103.12 202.17 102.93 202.22 102.74 202.28 102.56 202.35 102.38 202.43 102.21 202.53 102.04 202.63 101.88 202.74 101.73 202.87 101.59 203 101.46 203.14 101.33 203.29 101.22 203.45 101.11 203.61 101.02 203.78 100.94 203.96 100.87 204.14 100.81 204.32 100.76 204.51 100.73 204.7 100.71 204.89 100.7 205.08 100.7 205.28 100.71 205.47 100.74 205.66 100.78 205.85 100.83 206.04 100.9 206.22 100.97 206.4 101.06 206.57 101.16 206.74 101.26 206.9 101.38 207.05 101.51 207.2 101.65 207.34 101.79 207.47 101.95 207.59 102.11 207.7 102.28 207.8 102.45 207.89 102.63 207.97 102.81 208.03 103 208.09 103.19 208.13 103.39 208.16 103.58 208.18 103.78 208.19"/></g><g id="ID000037"><text class="cls-11" transform="translate(36.42 127.12) scale(1.02 1)"><tspan x="0" y="0">C</tspan></text></g><g id="ID000038"><text class="cls-11" transform="translate(36.42 111.9) scale(1.02 1)"><tspan x="0" y="0">C</tspan></text></g><g id="ID000039"><text class="cls-11" transform="translate(36.42 96.67) scale(1.02 1)"><tspan x="0" y="0">C</tspan></text></g><g id="ID000040"><text class="cls-1" transform="translate(36.85 81.45) scale(1.02 1)"><tspan x="0" y="0">A</tspan></text></g><g id="ID000041"><line class="cls-17" x1="31.81" y1="74.6" x2="21.5" y2="74.6"/></g><g id="ID000042"><text class="cls-2" transform="translate(3.93 81.45) scale(1.02 1)"><tspan x="0" y="0">10</tspan></text></g><g id="ID000043"><text class="cls-11" transform="translate(35.98 66.23) scale(1.02 1)"><tspan x="0" y="0">G</tspan></text></g><g id="ID000044"><text class="cls-11" transform="translate(35.98 51) scale(1.02 1)"><tspan x="0" y="0">G</tspan></text></g><g id="ID000045"><text class="cls-1" transform="translate(44.58 35.78) scale(1.02 1)"><tspan x="0" y="0">A</tspan></text></g><g id="ID000046"><text class="cls-1" transform="translate(60.05 35.78) scale(1.02 1)"><tspan x="0" y="0">A</tspan></text></g><g id="ID000047"><text class="cls-1" transform="translate(67.79 51) scale(1.02 1)"><tspan x="0" y="0">A</tspan></text></g><g id="ID000048"><text class="cls-11" transform="translate(67.35 66.23) scale(1.02 1)"><tspan x="0" y="0">C</tspan></text></g><g id="ID000049"><text class="cls-11" transform="translate(67.35 81.45) scale(1.02 1)"><tspan x="0" y="0">U</tspan></text></g><g id="ID000050"><text class="cls-11" transform="translate(66.91 96.67) scale(1.02 1)"><tspan x="0" y="0">G</tspan></text></g><g id="ID000051"><text class="cls-11" transform="translate(66.91 111.9) scale(1.02 1)"><tspan x="0" y="0">G</tspan></text></g><g id="ID000052"><text class="cls-11" transform="translate(66.91 127.12) scale(1.02 1)"><tspan x="0" y="0">G</tspan></text></g><g id="ID000053"><line class="cls-17" x1="83.36" y1="120.27" x2="93.67" y2="120.27"/></g><g id="ID000054"><text class="cls-2" transform="translate(93.67 127.12) scale(1.02 1)"><tspan x="0" y="0">20</tspan></text></g><g id="ID000055"><text class="cls-11" transform="translate(67.35 146.15) scale(1.02 1)"><tspan x="0" y="0">C</tspan></text></g><g id="ID000056"><text class="cls-7" transform="translate(66.91 165.18) scale(1.02 1)"><tspan x="0" y="0">G</tspan></text></g><g id="ID000057"><text class="cls-7" transform="translate(97.84 146.15) scale(1.02 1)"><tspan x="0" y="0">G</tspan></text></g><g id="ID000058"><text class="cls-8" transform="translate(114.18 146.15) scale(1.02 1)"><tspan x="0" y="0">A</tspan></text></g><g id="ID000059"><line class="cls-17" x1="48.31" y1="120.27" x2="66.87" y2="120.27"/></g><g id="ID000060"><line class="cls-17" x1="48.31" y1="105.05" x2="66.87" y2="105.05"/></g><g id="ID000061"><line class="cls-17" x1="48.31" y1="89.82" x2="66.87" y2="89.82"/></g><g id="ID000062"><line class="cls-17" x1="48.31" y1="74.6" x2="66.87" y2="74.6"/></g><g id="ID000063"><line class="cls-17" x1="48.31" y1="59.38" x2="66.87" y2="59.38"/></g><g id="ID000064"><line class="cls-17" x1="48.31" y1="44.15" x2="66.87" y2="44.15"/></g><g id="ID000065"><polygon class="cls-18" points="49.55 44.15 55.57 47.58 55.57 40.73 49.55 44.15"/></g><g id="ID000066"><polygon class="cls-18" points="64.7 41.11 58.51 41.11 58.51 47.2 64.7 47.2 64.7 41.11"/></g><g id="ID000068"><text class="cls-8" transform="translate(129.65 146.15) scale(1.02 1)"><tspan x="0" y="0">A</tspan></text></g><g id="ID000069"><text class="cls-7" transform="translate(144.24 146.15) scale(1.02 1)"><tspan x="0" y="0">G</tspan></text></g><g id="ID000070"><text class="cls-7" transform="translate(183.35 146.15) scale(1.02 1)"><tspan x="0" y="0">U</tspan></text></g><g id="ID000071"><text class="cls-10" transform="translate(199.25 146.15) scale(1.02 1)"><tspan x="0" y="0">A</tspan></text></g><g id="ID000072"><text class="cls-3" transform="translate(214.71 146.15) scale(1.02 1)"><tspan x="0" y="0">A</tspan></text></g><g id="ID000073"><text class="cls-6" transform="translate(229.31 146.15) scale(1.02 1)"><tspan x="0" y="0">G</tspan></text></g><g id="ID000074"><line class="cls-17" x1="235.45" y1="129.15" x2="235.45" y2="119"/></g><g id="ID000075"><text class="cls-2" transform="translate(226.66 115.2) scale(1.02 1)"><tspan x="0" y="0">30</tspan></text></g><g id="ID000076"><text class="cls-6" transform="translate(244.77 146.15) scale(1.02 1)"><tspan x="0" y="0">G</tspan></text></g><g id="ID000077"><text class="cls-6" transform="translate(260.68 146.15) scale(1.02 1)"><tspan x="0" y="0">U</tspan></text></g><g id="ID000078"><text class="cls-6" transform="translate(276.14 146.15) scale(1.02 1)"><tspan x="0" y="0">C</tspan></text></g><g id="ID000079"><text class="cls-6" transform="translate(291.61 146.15) scale(1.02 1)"><tspan x="0" y="0">C</tspan></text></g><g id="ID000080"><text class="cls-3" transform="translate(307.51 146.15) scale(1.02 1)"><tspan x="0" y="0">A</tspan></text></g><g id="ID000081"><text class="cls-6" transform="translate(322.54 146.15) scale(1.02 1)"><tspan x="0" y="0">U</tspan></text></g><g id="ID000082"><text class="cls-6" transform="translate(338.01 146.15) scale(1.02 1)"><tspan x="0" y="0">U</tspan></text></g><g id="ID000083"><text class="cls-6" transform="translate(353.04 146.15) scale(1.02 1)"><tspan x="0" y="0">G</tspan></text></g><g id="ID000084"><text class="cls-6" transform="translate(368.94 153.76) scale(1.02 1)"><tspan x="0" y="0">C</tspan></text></g><g id="ID000085"><text class="cls-3" transform="translate(369.38 172.79) scale(1.02 1)"><tspan x="0" y="0">A</tspan></text></g><g id="ID000086"><line class="cls-17" x1="374.64" y1="176.09" x2="374.64" y2="186.24"/></g><g id="ID000087"><text class="cls-2" transform="translate(365.86 204.2) scale(1.02 1)"><tspan x="0" y="0">40</tspan></text></g><g id="ID000088"><text class="cls-6" transform="translate(353.48 176.6) scale(1.02 1)"><tspan x="0" y="0">C</tspan></text></g><g id="ID000089"><text class="cls-6" transform="translate(338.01 176.6) scale(1.02 1)"><tspan x="0" y="0">U</tspan></text></g><g id="ID000090"><text class="cls-6" transform="translate(322.54 176.6) scale(1.02 1)"><tspan x="0" y="0">C</tspan></text></g><g id="ID000091"><text class="cls-6" transform="translate(307.07 176.6) scale(1.02 1)"><tspan x="0" y="0">C</tspan></text></g><g id="ID000092"><text class="cls-6" transform="translate(291.17 176.6) scale(1.02 1)"><tspan x="0" y="0">G</tspan></text></g><g id="ID000093"><text class="cls-6" transform="translate(275.7 176.6) scale(1.02 1)"><tspan x="0" y="0">G</tspan></text></g><g id="ID000094"><text class="cls-6" transform="translate(260.23 176.6) scale(1.02 1)"><tspan x="0" y="0">G</tspan></text></g><g id="ID000095"><text class="cls-6" transform="translate(245.21 176.6) scale(1.02 1)"><tspan x="0" y="0">C</tspan></text></g><g id="ID000096"><text class="cls-6" transform="translate(229.74 176.6) scale(1.02 1)"><tspan x="0" y="0">C</tspan></text></g><g id="ID000097"><text class="cls-6" transform="translate(214.28 176.6) scale(1.02 1)"><tspan x="0" y="0">U</tspan></text></g><g id="ID000098"><line class="cls-17" x1="219.98" y1="179.9" x2="219.98" y2="190.05"/></g><g id="ID000099"><text class="cls-2" transform="translate(211.2 208.01) scale(1.02 1)"><tspan x="0" y="0">50</tspan></text></g><g id="ID000100"><text class="cls-7" transform="translate(132.64 199.43) scale(1.02 1)"><tspan x="0" y="0">G</tspan></text></g><g id="ID000101"><text class="cls-8" transform="translate(118.05 199.43) scale(1.02 1)"><tspan x="0" y="0">A</tspan></text></g><g id="ID000102"><line class="cls-17" x1="156.57" y1="139.3" x2="182.86" y2="139.3"/></g><g id="ID000103"><polygon class="cls-19" points="161.68 139.3 167.7 142.73 167.7 135.88 161.68 139.3"/></g><g id="ID000104"><polygon class="cls-19" points="176.83 136.26 170.64 136.26 170.64 142.35 176.83 142.35 176.83 136.26"/></g><g id="ID000105"><line class="cls-17" x1="184.27" y1="143.17" x2="128.09" y2="188.71"/></g><g id="ID000106"><polygon class="cls-18" points="161.68 161.49 161.55 161.34 161.41 161.21 161.26 161.08 161.1 160.96 160.94 160.85 160.77 160.76 160.6 160.67 160.42 160.59 160.23 160.53 160.04 160.47 159.85 160.43 159.66 160.4 159.46 160.39 159.27 160.38 159.07 160.39 158.88 160.41 158.68 160.44 158.49 160.48 158.3 160.54 158.12 160.61 157.94 160.69 157.77 160.78 157.6 160.88 157.44 160.99 157.28 161.11 157.14 161.24 157 161.37 156.87 161.52 156.76 161.68 156.65 161.84 156.55 162.01 156.47 162.18 156.39 162.36 156.33 162.54 156.28 162.73 156.24 162.92 156.21 163.11 156.2 163.3 156.2 163.49 156.21 163.69 156.23 163.88 156.26 164.07 156.31 164.26 156.37 164.44 156.44 164.62 156.53 164.8 156.62 164.97 156.72 165.13 156.84 165.29 156.96 165.43 157.1 165.58 157.24 165.71 157.39 165.83 157.55 165.94 157.72 166.05 157.89 166.14 158.07 166.22 158.25 166.29 158.44 166.35 158.63 166.4 158.82 166.44 159.01 166.46 159.21 166.47 159.41 166.47 159.6 166.45 159.8 166.43 159.99 166.39 160.18 166.34 160.36 166.28 160.55 166.21 160.72 166.12 160.89 166.03 161.06 165.92 161.22 165.81 161.37 165.68 161.51 165.55 161.64 165.4 161.76 165.25 161.87 165.09 161.98 164.93 162.07 164.76 162.15 164.58 162.22 164.4 162.27 164.22 162.32 164.03 162.35 163.84 162.37 163.65 162.38 163.45 162.38 163.26 162.36 163.07 162.33 162.88 162.29 162.69 162.23 162.5 162.17 162.32 162.09 162.14 162 161.97 161.91 161.8 161.8 161.64 161.68 161.49"/></g><g id="ID000107"><polygon class="cls-18" points="152.66 172.74 157.43 168.87 153.5 164.17 148.73 168.04 152.66 172.74"/></g><g id="ID000108"><polyline class="cls-17" points="201.08 144.37 196.78 150.72 196.78 150.72 196.78 150.72 196.78 150.72 143.77 188.98"/></g><g id="ID000109"><polygon class="cls-18" points="174.19 163.25 169.2 166.85 172.86 171.76 177.84 168.16 174.19 163.25"/></g><g id="ID000110"><polygon class="cls-18" points="163.79 174.53 170.71 173.78 166.6 168.26 163.79 174.53"/></g><g id="ID000111"><line class="cls-17" x1="219.98" y1="145.39" x2="219.98" y2="163.66"/></g><g id="ID000112"><line class="cls-17" x1="235.45" y1="145.39" x2="235.45" y2="163.66"/></g><g id="ID000113"><line class="cls-17" x1="250.91" y1="145.39" x2="250.91" y2="163.66"/></g><g id="ID000114"><polygon class="cls-19" points="266.38 157.57 266.58 157.56 266.77 157.54 266.97 157.51 267.16 157.47 267.35 157.42 267.53 157.35 267.71 157.27 267.88 157.18 268.05 157.09 268.21 156.98 268.37 156.86 268.52 156.73 268.65 156.59 268.78 156.44 268.9 156.29 269.01 156.13 269.11 155.96 269.19 155.79 269.27 155.61 269.33 155.43 269.39 155.24 269.43 155.05 269.45 154.86 269.47 154.67 269.47 154.48 269.46 154.28 269.44 154.09 269.41 153.9 269.36 153.71 269.3 153.53 269.23 153.35 269.15 153.17 269.06 153 268.96 152.84 268.84 152.68 268.72 152.53 268.59 152.39 268.44 152.25 268.29 152.13 268.14 152.02 267.97 151.91 267.8 151.82 267.62 151.73 267.44 151.66 267.25 151.6 267.06 151.55 266.87 151.52 266.67 151.49 266.48 151.48 266.28 151.48 266.09 151.49 265.89 151.52 265.7 151.55 265.51 151.6 265.32 151.66 265.14 151.73 264.96 151.82 264.79 151.91 264.63 152.02 264.47 152.13 264.32 152.25 264.18 152.39 264.04 152.53 263.92 152.68 263.81 152.84 263.7 153 263.61 153.17 263.53 153.35 263.46 153.53 263.4 153.71 263.35 153.9 263.32 154.09 263.3 154.28 263.29 154.48 263.29 154.67 263.31 154.86 263.33 155.05 263.37 155.24 263.43 155.43 263.49 155.61 263.57 155.79 263.65 155.96 263.75 156.13 263.86 156.29 263.98 156.44 264.11 156.59 264.25 156.73 264.39 156.86 264.55 156.98 264.71 157.09 264.88 157.18 265.05 157.27 265.23 157.35 265.42 157.42 265.6 157.47 265.8 157.51 265.99 157.54 266.18 157.56 266.38 157.57"/></g><g id="ID000115"><line class="cls-17" x1="281.85" y1="145.39" x2="281.85" y2="163.66"/></g><g id="ID000116"><line class="cls-17" x1="297.31" y1="145.39" x2="297.31" y2="163.66"/></g><g id="ID000118"><line class="cls-20" x1="42.12" y1="194.1" x2="42.12" y2="145.39"/></g><g id="ID000119"><polygon class="cls-19" points="37.48 174.82 39.8 172.28 40.57 169.75 40.96 167.21 42.12 162.14 43.28 167.21 43.67 169.75 44.44 172.28 46.76 174.82 37.48 174.82"/></g><g id="ID000120"><line class="cls-20" x1="214.03" y1="171.42" x2="144.73" y2="190.91"/></g><g id="ID000121"><polygon class="cls-19" points="185.61 184.16 182.5 182.66 179.81 182.63 177.22 182.96 171.95 183.26 176.59 180.76 178.96 179.7 181.22 178.27 183.07 175.38 185.61 184.16"/></g><g id="ID000122"><polyline class="cls-20" points="78.92 156.4 84.65 154.52 84.65 154.52 96.25 146.91 96.25 146.91 99.61 143.61"/></g><g id="ID000123"><polygon points="83.59 149.73 87.02 150.23 89.59 149.45 91.95 148.36 96.89 146.5 93.24 150.26 91.31 151.99 89.59 154.03 88.74 157.33 83.59 149.73"/></g></g><text class="cls-15" transform="translate(292.16 202.43)"><tspan x="0" y="0">P3</tspan></text><text class="cls-13" transform="translate(136.31 17.16)"><tspan x="0" y="0">Glutamine-I riboswitch</tspan></text><text class="cls-4" transform="translate(2 241.16)"><tspan x="0" y="0">P1</tspan></text><text class="cls-9" transform="translate(0 110.16)"><tspan x="0" y="0">P2</tspan></text><rect class="cls-22" x="48.43" y="248.87" width="18" height="9"/><text class="cls-16" transform="translate(49.42 257.4)"><tspan x="0" y="0">Gln</tspan></text><text class="cls-5" transform="translate(26.43 282.79)"><tspan x="0" y="0">5</tspan><tspan class="cls-21" x="7.79" y="0">’</tspan></text><text class="cls-5" transform="translate(78.43 310.79)"><tspan x="0" y="0">3</tspan><tspan class="cls-21" x="7.79" y="0">’</tspan></text></svg>