<svg id="图层_1" data-name="图层 1" xmlns="http://www.w3.org/2000/svg" viewBox="0 0 400 400"><defs><style>.cls-1,.cls-11,.cls-12,.cls-13,.cls-14,.cls-15,.cls-16,.cls-2,.cls-3,.cls-5,.cls-6,.cls-7,.cls-8{isolation:isolate;font-size:10.15px;}.cls-1,.cls-19,.cls-8{fill:#80db9e;}.cls-1,.cls-11,.cls-12,.cls-13,.cls-14,.cls-15,.cls-16,.cls-18,.cls-19,.cls-2,.cls-20,.cls-21,.cls-23,.cls-24,.cls-3,.cls-5,.cls-6,.cls-7,.cls-8{font-family:ArialMT, Arial;}.cls-2,.cls-3{fill:#0a0bff;}.cls-3,.cls-6,.cls-8{letter-spacing:-0.06em;}.cls-17,.cls-4{fill:none;}.cls-10,.cls-17,.cls-4,.cls-9{stroke:#000;stroke-miterlimit:1.11;}.cls-10,.cls-4,.cls-9{stroke-width:0.14px;}.cls-6,.cls-7{fill:#ffdf5c;}.cls-10,.cls-23{fill:#fff;}.cls-11,.cls-12,.cls-20{fill:#ffaadc;}.cls-12,.cls-14,.cls-16{letter-spacing:-0.06em;}.cls-13,.cls-14{fill:#c2c2ff;}.cls-15,.cls-16,.cls-21{fill:#09fefe;}.cls-17{stroke-width:0.56px;}.cls-18{font-size:21px;}.cls-19,.cls-20,.cls-21{font-size:18.63px;}.cls-22{fill:red;}.cls-23{font-size:6.21px;}.cls-24{font-size:13.04px;fill:#231815;}</style></defs><g id="ID000002"><text class="cls-1" transform="translate(318.85 315.29)">G</text></g><g id="ID000003"><text class="cls-1" transform="translate(308.38 315.29)">G</text></g><g id="ID000004"><text class="cls-1" transform="translate(298.2 315.29)">C</text></g><g id="ID000005"><text class="cls-1" transform="translate(287.72 315.29)">U</text></g><g id="ID000006"><text class="cls-1" transform="translate(277.25 315.29)">C</text></g><g id="ID000007"><text class="cls-1" transform="translate(266.78 315.29)">U</text></g><g id="ID000008"><text class="cls-1" transform="translate(256.03 315.29)">G</text></g><g id="ID000009"><text class="cls-2" transform="translate(245.56 315.29)">G</text></g><g id="ID000010"><text class="cls-3" transform="translate(235.66 315.29)">A</text></g><g id="ID000011"><text class="cls-2" transform="translate(224.62 315.29)">G</text></g><g id="ID000012"><line class="cls-4" x1="228.57" y1="317.56" x2="228.57" y2="324.54"/></g><g id="ID000013"><text class="cls-5" transform="translate(222.93 336.89)">10</text></g><g id="ID000014"><text class="cls-6" transform="translate(214.72 294.35)">A</text></g><g id="ID000015"><text class="cls-7" transform="translate(224.62 294.35)">G</text></g><g id="ID000016"><text class="cls-7" transform="translate(235.09 294.35)">G</text></g><g id="ID000017"><line class="cls-4" x1="239.04" y1="282.66" x2="239.04" y2="275.67"/></g><g id="ID000018"><text class="cls-5" transform="translate(233.4 273.06)">80</text></g><g id="ID000019"><text class="cls-6" transform="translate(246.13 294.35)">A</text></g><g id="ID000020"><text class="cls-1" transform="translate(256.32 294.35)">C</text></g><g id="ID000021"><text class="cls-8" transform="translate(267.06 294.35)">A</text></g><g id="ID000022"><text class="cls-1" transform="translate(276.97 294.35)">G</text></g><g id="ID000023"><text class="cls-8" transform="translate(288 294.35)">A</text></g><g id="ID000024"><text class="cls-1" transform="translate(297.91 294.35)">G</text></g><g id="ID000025"><text class="cls-1" transform="translate(308.66 294.35)">U</text></g><g id="ID000026"><text class="cls-1" transform="translate(319.13 294.35)">C</text></g><g id="ID000027"><line class="cls-4" x1="322.8" y1="306.39" x2="322.8" y2="293.82"/></g><g id="ID000028"><polygon class="cls-9" points="312.33 298.01 312.2 298.01 312.06 298.03 311.93 298.05 311.8 298.08 311.68 298.12 311.55 298.16 311.43 298.21 311.31 298.27 311.2 298.34 311.09 298.42 310.98 298.5 310.88 298.59 310.79 298.68 310.7 298.79 310.63 298.89 310.55 299 310.48 299.12 310.43 299.24 310.37 299.36 310.33 299.48 310.3 299.61 310.27 299.74 310.25 299.87 310.24 300 310.24 300.14 310.24 300.27 310.26 300.4 310.28 300.53 310.31 300.66 310.35 300.79 310.4 300.91 310.45 301.04 310.52 301.15 310.59 301.26 310.66 301.37 310.75 301.48 310.84 301.57 310.93 301.67 311.04 301.75 311.14 301.83 311.25 301.9 311.37 301.97 311.49 302.02 311.61 302.07 311.74 302.11 311.87 302.15 312 302.17 312.13 302.19 312.26 302.2 312.4 302.2 312.53 302.19 312.66 302.17 312.79 302.15 312.92 302.11 313.05 302.07 313.17 302.02 313.29 301.97 313.4 301.9 313.52 301.83 313.62 301.75 313.73 301.67 313.82 301.57 313.91 301.48 314 301.37 314.07 301.26 314.14 301.15 314.21 301.04 314.26 300.91 314.31 300.79 314.35 300.66 314.38 300.53 314.4 300.4 314.42 300.27 314.42 300.14 314.42 300 314.41 299.87 314.39 299.74 314.37 299.61 314.33 299.48 314.29 299.36 314.23 299.24 314.18 299.12 314.11 299 314.04 298.89 313.95 298.79 313.87 298.68 313.77 298.59 313.68 298.5 313.57 298.42 313.46 298.34 313.35 298.27 313.23 298.21 313.11 298.16 312.98 298.12 312.86 298.08 312.73 298.05 312.6 298.03 312.46 298.01 312.33 298.01"/></g><g id="ID000029"><line class="cls-4" x1="301.86" y1="306.39" x2="301.86" y2="293.82"/></g><g id="ID000030"><line class="cls-4" x1="291.39" y1="306.39" x2="291.39" y2="293.82"/></g><g id="ID000031"><line class="cls-4" x1="280.92" y1="306.39" x2="280.92" y2="293.82"/></g><g id="ID000032"><line class="cls-4" x1="270.45" y1="306.39" x2="270.45" y2="293.82"/></g><g id="ID000033"><line class="cls-4" x1="259.98" y1="306.39" x2="259.98" y2="293.82"/></g><g id="ID000034"><line class="cls-4" x1="249.51" y1="306.39" x2="249.51" y2="293.82"/></g><g id="ID000035"><polygon class="cls-10" points="249.51 305.55 251.87 301.47 247.15 301.47 249.51 305.55"/></g><g id="ID000036"><polygon class="cls-10" points="247.42 295.29 247.42 299.48 251.6 299.48 251.6 295.29 247.42 295.29"/></g><g id="ID000037"><line class="cls-4" x1="239.04" y1="306.39" x2="239.04" y2="293.82"/></g><g id="ID000038"><polygon class="cls-10" points="241.13 304.92 241.13 300.73 236.95 300.73 236.95 304.92 241.13 304.92"/></g><g id="ID000039"><polygon class="cls-10" points="239.04 294.66 236.68 298.74 241.4 298.74 239.04 294.66"/></g><g id="ID000040"><line class="cls-4" x1="228.57" y1="306.39" x2="228.57" y2="293.82"/></g><g id="ID000041"><polygon class="cls-10" points="228.57 298.01 228.44 298.01 228.31 298.03 228.17 298.05 228.04 298.08 227.92 298.12 227.79 298.16 227.67 298.21 227.55 298.27 227.44 298.34 227.33 298.42 227.22 298.5 227.13 298.59 227.03 298.68 226.94 298.79 226.87 298.89 226.79 299 226.72 299.12 226.66 299.24 226.61 299.36 226.57 299.48 226.53 299.61 226.51 299.74 226.49 299.87 226.48 300 226.48 300.14 226.48 300.27 226.5 300.4 226.52 300.53 226.55 300.66 226.59 300.79 226.64 300.91 226.69 301.04 226.76 301.15 226.83 301.26 226.9 301.37 226.99 301.48 227.08 301.57 227.17 301.67 227.28 301.75 227.38 301.83 227.5 301.9 227.61 301.97 227.73 302.02 227.85 302.07 227.98 302.11 228.11 302.15 228.24 302.17 228.37 302.19 228.5 302.2 228.64 302.2 228.77 302.19 228.9 302.17 229.03 302.15 229.16 302.11 229.29 302.07 229.41 302.02 229.53 301.97 229.65 301.9 229.76 301.83 229.87 301.75 229.97 301.67 230.06 301.57 230.15 301.48 230.24 301.37 230.31 301.26 230.38 301.15 230.45 301.04 230.5 300.91 230.55 300.79 230.59 300.66 230.62 300.53 230.64 300.4 230.66 300.27 230.66 300.14 230.66 300 230.65 299.87 230.63 299.74 230.6 299.61 230.57 299.48 230.53 299.36 230.47 299.24 230.42 299.12 230.35 299 230.28 298.89 230.19 298.79 230.11 298.68 230.01 298.59 229.92 298.5 229.81 298.42 229.7 298.34 229.59 298.27 229.47 298.21 229.35 298.16 229.22 298.12 229.1 298.08 228.97 298.05 228.84 298.03 228.7 298.01 228.57 298.01"/></g><g id="ID000043"><text class="cls-3" transform="translate(209.72 315.29)">A</text></g><g id="ID000044"><text class="cls-11" transform="translate(173.33 315.26)">G</text></g><g id="ID000045"><text class="cls-12" transform="translate(173.9 325.73)">A</text></g><g id="ID000046"><text class="cls-12" transform="translate(173.9 336.2)">A</text></g><g id="ID000047"><text class="cls-11" transform="translate(173.62 346.67)">C</text></g><g id="ID000048"><text class="cls-11" transform="translate(173.62 357.14)">C</text></g><g id="ID000049"><text class="cls-11" transform="translate(173.33 367.61)">G</text></g><g id="ID000050"><text class="cls-13" transform="translate(173.62 378.08)">U</text></g><g id="ID000051"><text class="cls-13" transform="translate(173.62 388.55)">U</text></g><g id="ID000052"><text class="cls-13" transform="translate(168.38 399.02)">U</text></g><g id="ID000053"><line class="cls-4" x1="179.03" y1="394.31" x2="186.01" y2="394.31"/></g><g id="ID000054"><text class="cls-5" transform="translate(186 399.02)">20</text></g><g id="ID000055"><text class="cls-14" transform="translate(158.19 399.02)">A</text></g><g id="ID000056"><text class="cls-14" transform="translate(152.96 388.55)">A</text></g><g id="ID000057"><text class="cls-13" transform="translate(152.67 378.08)">U</text></g><g id="ID000058"><text class="cls-11" transform="translate(152.67 367.61)">C</text></g><g id="ID000059"><text class="cls-11" transform="translate(152.39 357.14)">G</text></g><g id="ID000060"><text class="cls-11" transform="translate(152.39 346.67)">G</text></g><g id="ID000061"><text class="cls-11" transform="translate(152.67 336.2)">U</text></g><g id="ID000062"><text class="cls-11" transform="translate(152.67 325.73)">C</text></g><g id="ID000064"><polygon class="cls-10" points="201.91 280.03 206 282.38 205.99 277.67 201.91 280.03"/></g><g id="ID000065"><line class="cls-4" x1="173.03" y1="312.3" x2="161.15" y2="321.51"/></g><g id="ID000066"><polygon class="cls-9" points="165.71 318.48 165.81 318.56 165.92 318.64 166.03 318.71 166.15 318.78 166.27 318.83 166.39 318.88 166.52 318.92 166.65 318.95 166.78 318.98 166.91 318.99 167.05 319 167.18 319 167.31 318.99 167.44 318.97 167.57 318.94 167.7 318.91 167.83 318.87 167.95 318.82 168.07 318.76 168.19 318.69 168.3 318.62 168.4 318.54 168.5 318.45 168.6 318.36 168.69 318.26 168.77 318.16 168.85 318.05 168.92 317.94 168.98 317.82 169.03 317.7 169.08 317.57 169.12 317.45 169.15 317.32 169.17 317.19 169.18 317.05 169.19 316.92 169.18 316.79 169.17 316.65 169.15 316.52 169.12 316.39 169.09 316.27 169.04 316.14 168.99 316.02 168.93 315.9 168.86 315.79 168.79 315.68 168.71 315.57 168.62 315.47 168.52 315.38 168.42 315.29 168.32 315.21 168.21 315.13 168.09 315.07 167.97 315.01 167.85 314.96 167.73 314.91 167.6 314.88 167.47 314.85 167.34 314.83 167.21 314.81 167.07 314.81 166.94 314.82 166.81 314.83 166.68 314.85 166.55 314.88 166.42 314.92 166.3 314.97 166.18 315.02 166.06 315.09 165.94 315.16 165.84 315.23 165.73 315.31 165.63 315.4 165.54 315.5 165.45 315.6 165.38 315.71 165.3 315.82 165.24 315.94 165.18 316.06 165.13 316.18 165.09 316.3 165.05 316.43 165.03 316.56 165.01 316.69 165 316.83 165 316.96 165.01 317.09 165.02 317.22 165.05 317.36 165.08 317.48 165.12 317.61 165.17 317.73 165.22 317.85 165.29 317.97 165.36 318.08 165.44 318.19 165.52 318.29 165.61 318.39 165.71 318.48"/></g><g id="ID000067"><line class="cls-4" x1="173.09" y1="331.49" x2="160.53" y2="331.49"/></g><g id="ID000068"><line class="cls-4" x1="173.09" y1="341.96" x2="160.53" y2="341.96"/></g><g id="ID000069"><line class="cls-4" x1="173.09" y1="352.43" x2="160.53" y2="352.43"/></g><g id="ID000070"><line class="cls-4" x1="173.09" y1="362.9" x2="160.53" y2="362.9"/></g><g id="ID000074"><text class="cls-15" transform="translate(152.39 294.79)">G</text></g><g id="ID000075"><text class="cls-15" transform="translate(152.67 284.32)">C</text></g><g id="ID000076"><line class="cls-4" x1="149.36" y1="279.61" x2="142.38" y2="279.61"/></g><g id="ID000077"><text class="cls-5" transform="translate(131.09 284.32)">30</text></g><g id="ID000078"><text class="cls-15" transform="translate(152.67 273.85)">C</text></g><g id="ID000079"><text class="cls-15" transform="translate(152.39 263.38)">G</text></g><g id="ID000080"><text class="cls-16" transform="translate(152.96 252.91)">A</text></g><g id="ID000081"><text class="cls-15" transform="translate(173.62 252.91)">C</text></g><g id="ID000082"><line class="cls-4" x1="181.26" y1="248.2" x2="188.24" y2="248.2"/></g><g id="ID000083"><text class="cls-5" transform="translate(188.24 252.91)">70</text></g><g id="ID000084"><text class="cls-16" transform="translate(173.9 263.38)">A</text></g><g id="ID000085"><text class="cls-15" transform="translate(173.33 273.85)">G</text></g><g id="ID000086"><text class="cls-15" transform="translate(173.33 284.32)">G</text></g><g id="ID000087"><text class="cls-15" transform="translate(173.62 294.79)">C</text></g><g id="ID000088"><text class="cls-6" transform="translate(184.16 294.29)">A</text></g><g id="ID000089"><text class="cls-6" transform="translate(194.39 294.28)">A</text></g><g id="ID000090"><text class="cls-6" transform="translate(204.25 294.35)">A</text></g><g id="ID000091"><line class="cls-4" x1="160.53" y1="290.08" x2="173.09" y2="290.08"/></g><g id="ID000092"><line class="cls-4" x1="160.53" y1="279.61" x2="173.09" y2="279.61"/></g><g id="ID000093"><line class="cls-4" x1="160.53" y1="269.14" x2="173.09" y2="269.14"/></g><g id="ID000094"><line class="cls-4" x1="177.28" y1="228.83" x2="177.28" y2="244.01"/></g><g id="ID000095"><polygon class="cls-9" points="177.28 238.51 177.41 238.51 177.55 238.5 177.68 238.47 177.81 238.45 177.93 238.41 178.06 238.36 178.18 238.31 178.3 238.25 178.41 238.18 178.52 238.11 178.63 238.02 178.72 237.94 178.82 237.84 178.91 237.74 178.99 237.63 179.06 237.52 179.13 237.41 179.19 237.29 179.24 237.17 179.28 237.04 179.32 236.91 179.34 236.78 179.36 236.65 179.37 236.52 179.37 236.39 179.37 236.25 179.35 236.12 179.33 235.99 179.3 235.86 179.26 235.73 179.21 235.61 179.16 235.49 179.09 235.37 179.02 235.26 178.95 235.15 178.86 235.05 178.77 234.95 178.68 234.86 178.57 234.77 178.47 234.69 178.36 234.62 178.24 234.56 178.12 234.5 178 234.45 177.87 234.41 177.74 234.38 177.61 234.35 177.48 234.33 177.35 234.33 177.21 234.33 177.08 234.33 176.95 234.35 176.82 234.38 176.69 234.41 176.56 234.45 176.44 234.5 176.32 234.56 176.21 234.62 176.09 234.69 175.99 234.77 175.88 234.86 175.79 234.95 175.7 235.05 175.62 235.15 175.54 235.26 175.47 235.37 175.4 235.49 175.35 235.61 175.3 235.73 175.26 235.86 175.23 235.99 175.21 236.12 175.19 236.25 175.19 236.39 175.19 236.52 175.2 236.65 175.22 236.78 175.25 236.91 175.28 237.04 175.32 237.17 175.38 237.29 175.43 237.41 175.5 237.52 175.57 237.63 175.66 237.74 175.74 237.84 175.84 237.94 175.93 238.02 176.04 238.11 176.15 238.18 176.26 238.25 176.38 238.31 176.5 238.36 176.63 238.41 176.75 238.45 176.88 238.47 177.01 238.5 177.15 238.51 177.28 238.51"/></g><g id="ID000096"><line class="cls-4" x1="157" y1="225" x2="174.5" y2="245.07"/></g><g id="ID000097"><polygon class="cls-9" points="163.19 232.35 164.15 236.97 167.67 233.84 163.19 232.35"/></g><g id="ID000098"><polygon class="cls-9" points="171.57 238.63 168.79 235.5 165.66 238.28 168.44 241.41 171.57 238.63"/></g><g id="ID000099"><line class="cls-4" x1="159.12" y1="238.24" x2="174.5" y2="255.54"/></g><g id="ID000100"><polygon class="cls-10" points="162.05 244.68 164.83 247.81 167.96 245.03 165.18 241.9 162.05 244.68"/></g><g id="ID000101"><polygon class="cls-10" points="170.43 250.96 169.48 246.34 165.96 249.47 170.43 250.96"/></g><g id="ID000103"><text class="cls-16" transform="translate(152.96 240.82)">A</text></g><g id="ID000104"><text class="cls-15" transform="translate(173.33 223.35)">G</text></g><g id="ID000105"><text class="cls-15" transform="translate(173.33 212.88)">G</text></g><g id="ID000106"><text class="cls-16" transform="translate(173.9 202.41)">A</text></g><g id="ID000107"><text class="cls-15" transform="translate(173.33 191.94)">G</text></g><g id="ID000108"><text class="cls-15" transform="translate(173.62 181.47)">C</text></g><g id="ID000109"><text class="cls-16" transform="translate(173.9 165.39)">A</text></g><g id="ID000110"><line class="cls-4" x1="184.26" y1="161.67" x2="191.24" y2="161.67"/></g><g id="ID000111"><text class="cls-5" transform="translate(191.24 166.39)">40</text></g><g id="ID000112"><text class="cls-16" transform="translate(152.96 171)">A</text></g><g id="ID000113"><text class="cls-16" transform="translate(152.96 181.47)">A</text></g><g id="ID000114"><text class="cls-15" transform="translate(152.67 191.94)">C</text></g><g id="ID000115"><text class="cls-15" transform="translate(152.67 202.41)">U</text></g><g id="ID000116"><text class="cls-15" transform="translate(152.67 212.88)">C</text></g><g id="ID000117"><text class="cls-15" transform="translate(152.67 223.35)">U</text></g><g id="ID000118"><line class="cls-4" x1="173.09" y1="208.17" x2="160.53" y2="208.17"/></g><g id="ID000119"><line class="cls-4" x1="173.09" y1="197.7" x2="160.53" y2="197.7"/></g><g id="ID000120"><line class="cls-4" x1="173.09" y1="187.23" x2="160.53" y2="187.23"/></g><g id="ID000121"><line class="cls-4" x1="173.53" y1="174.89" x2="160.09" y2="168.16"/></g><g id="ID000122"><polygon class="cls-10" points="171.12 173.68 171.17 173.56 171.22 173.44 171.26 173.31 171.29 173.18 171.32 173.05 171.33 172.92 171.34 172.78 171.34 172.65 171.33 172.52 171.31 172.39 171.28 172.26 171.25 172.13 171.2 172 171.15 171.88 171.09 171.76 171.03 171.65 170.96 171.53 170.88 171.43 170.79 171.33 170.7 171.23 170.6 171.14 170.49 171.06 170.38 170.99 170.27 170.92 170.15 170.85 170.03 170.8 169.91 170.76 169.78 170.72 169.65 170.69 169.52 170.67 169.38 170.65 169.25 170.65 169.12 170.65 168.99 170.66 168.86 170.69 168.73 170.71 168.6 170.75 168.47 170.8 168.35 170.85 168.23 170.91 168.12 170.98 168.01 171.05 167.91 171.13 167.81 171.22 167.71 171.32 167.63 171.42 167.54 171.52 167.47 171.63 167.4 171.75 167.34 171.87 167.29 171.99 167.25 172.11 167.21 172.24 167.19 172.37 167.16 172.5 167.15 172.64 167.15 172.77 167.16 172.9 167.17 173.03 167.19 173.16 167.22 173.29 167.26 173.42 167.31 173.54 167.37 173.67 167.43 173.78 167.5 173.9 167.57 174 167.66 174.11 167.75 174.21 167.84 174.3 167.94 174.38 168.05 174.46 168.16 174.54 168.28 174.6 168.4 174.66 168.52 174.71 168.65 174.75 168.78 174.78 168.91 174.81 169.04 174.83 169.17 174.84 169.3 174.84 169.44 174.83 169.57 174.81 169.7 174.79 169.83 174.75 169.96 174.71 170.08 174.66 170.2 174.61 170.31 174.54 170.43 174.47 170.53 174.39 170.64 174.31 170.73 174.22 170.82 174.12 170.91 174.02 170.99 173.91 171.06 173.8 171.12 173.68"/></g><g id="ID000123"><polygon class="cls-10" points="161.57 171.24 165.31 173.12 167.19 169.37 163.44 167.5 161.57 171.24"/></g><g id="ID000125"><text class="cls-16" transform="translate(173.9 150.06)">A</text></g><g id="ID000126"><text class="cls-15" transform="translate(173.33 139.59)">G</text></g><g id="ID000127"><text class="cls-15" transform="translate(173.62 129.12)">C</text></g><g id="ID000128"><text class="cls-15" transform="translate(173.62 118.65)">U</text></g><g id="ID000129"><text class="cls-15" transform="translate(173.62 108.18)">C</text></g><g id="ID000130"><text class="cls-15" transform="translate(173.62 97.71)">U</text></g><g id="ID000131"><text class="cls-15" transform="translate(173.33 87.24)">G</text></g><g id="ID000132"><text class="cls-15" transform="translate(173.62 76.77)">C</text></g><g id="ID000133"><text class="cls-15" transform="translate(173.33 66.3)">G</text></g><g id="ID000134"><text class="cls-13" transform="translate(173.33 55.83)">G</text></g><g id="ID000135"><line class="cls-4" x1="184.26" y1="51.12" x2="191.24" y2="51.12"/></g><g id="ID000136"><text class="cls-5" transform="translate(191.24 55.83)">50</text></g><g id="ID000137"><text class="cls-14" transform="translate(168.66 45.36)">A</text></g><g id="ID000138"><text class="cls-14" transform="translate(158.19 45.36)">A</text></g><g id="ID000139"><text class="cls-14" transform="translate(152.96 55.83)">A</text></g><g id="ID000140"><text class="cls-15" transform="translate(152.67 66.3)">C</text></g><g id="ID000141"><text class="cls-15" transform="translate(152.39 76.77)">G</text></g><g id="ID000142"><text class="cls-15" transform="translate(152.67 87.24)">C</text></g><g id="ID000143"><text class="cls-16" transform="translate(152.96 97.71)">A</text></g><g id="ID000144"><text class="cls-15" transform="translate(152.39 108.18)">G</text></g><g id="ID000145"><text class="cls-16" transform="translate(152.96 118.65)">A</text></g><g id="ID000146"><text class="cls-15" transform="translate(152.39 129.12)">G</text></g><g id="ID000147"><line class="cls-4" x1="149.36" y1="124.41" x2="142.38" y2="124.41"/></g><g id="ID000148"><text class="cls-5" transform="translate(131.09 129.12)">60</text></g><g id="ID000149"><text class="cls-15" transform="translate(152.67 139.59)">U</text></g><g id="ID000150"><text class="cls-15" transform="translate(152.39 150.06)">G</text></g><g id="ID000151"><text class="cls-16" transform="translate(152.96 160.53)">A</text></g><g id="ID000152"><line class="cls-4" x1="173.09" y1="145.35" x2="160.53" y2="145.35"/></g><g id="ID000153"><polygon class="cls-10" points="171.63 143.26 167.44 143.26 167.44 147.44 171.63 147.44 171.63 143.26"/></g><g id="ID000154"><polygon class="cls-10" points="161.37 145.35 165.45 147.71 165.45 143 161.37 145.35"/></g><g id="ID000155"><polygon class="cls-9" points="164.72 134.88 164.72 135.01 164.73 135.15 164.75 135.28 164.78 135.41 164.82 135.53 164.87 135.66 164.92 135.78 164.98 135.9 165.05 136.01 165.12 136.12 165.21 136.23 165.29 136.33 165.39 136.42 165.49 136.51 165.6 136.59 165.71 136.66 165.82 136.73 165.94 136.79 166.06 136.84 166.19 136.88 166.32 136.92 166.45 136.94 166.58 136.96 166.71 136.97 166.84 136.97 166.98 136.97 167.11 136.95 167.24 136.93 167.37 136.9 167.5 136.86 167.62 136.81 167.74 136.76 167.86 136.69 167.97 136.62 168.08 136.55 168.18 136.46 168.28 136.37 168.37 136.28 168.46 136.18 168.53 136.07 168.61 135.96 168.67 135.84 168.73 135.72 168.78 135.6 168.82 135.47 168.85 135.34 168.88 135.21 168.9 135.08 168.9 134.95 168.9 134.81 168.9 134.68 168.88 134.55 168.85 134.42 168.82 134.29 168.78 134.16 168.73 134.04 168.67 133.92 168.61 133.81 168.53 133.69 168.46 133.59 168.37 133.49 168.28 133.39 168.18 133.3 168.08 133.21 167.97 133.14 167.86 133.07 167.74 133 167.62 132.95 167.5 132.9 167.37 132.86 167.24 132.83 167.11 132.81 166.98 132.79 166.84 132.79 166.71 132.79 166.58 132.8 166.45 132.82 166.32 132.84 166.19 132.88 166.06 132.93 165.94 132.98 165.82 133.03 165.71 133.1 165.6 133.18 165.49 133.26 165.39 133.34 165.29 133.44 165.21 133.53 165.12 133.64 165.05 133.75 164.98 133.86 164.92 133.98 164.87 134.1 164.82 134.23 164.78 134.35 164.75 134.49 164.73 134.62 164.72 134.75 164.72 134.88"/></g><g id="ID000156"><line class="cls-4" x1="173.09" y1="124.41" x2="160.53" y2="124.41"/></g><g id="ID000157"><line class="cls-4" x1="173.09" y1="113.94" x2="160.53" y2="113.94"/></g><g id="ID000158"><line class="cls-4" x1="173.09" y1="103.47" x2="160.53" y2="103.47"/></g><g id="ID000159"><line class="cls-4" x1="173.09" y1="93" x2="160.53" y2="93"/></g><g id="ID000160"><line class="cls-4" x1="173.09" y1="82.53" x2="160.53" y2="82.53"/></g><g id="ID000161"><line class="cls-4" x1="173.09" y1="72.06" x2="160.53" y2="72.06"/></g><g id="ID000162"><line class="cls-4" x1="173.09" y1="61.59" x2="160.53" y2="61.59"/></g><g id="ID000168"><line class="cls-17" x1="160" y1="236" x2="174.14" y2="221.74"/></g><g id="ID000169"><polygon points="163.97 227 166.32 226.95 167.95 226.13 169.4 225.13 172.48 223.31 170.47 226.27 169.38 227.66 168.47 229.24 168.28 231.58 163.97 227"/></g><text class="cls-18" transform="translate(1.96 20.56)">Glycine Riboswitch</text><text class="cls-19" transform="translate(280.69 273.27)">P1</text><text class="cls-20" transform="translate(119.16 349.19)">P2</text><text class="cls-21" transform="translate(113.57 179.47)">P3</text><rect class="cls-22" x="161.48" y="212.66" width="11.18" height="6.83"/><text class="cls-23" transform="translate(162.1 217.96)">Gly</text><text class="cls-24" transform="translate(332.33 318.57)">5&apos;</text><text class="cls-24" transform="translate(330.47 290.62)">3&apos;</text><g id="ID000170"><line class="cls-17" x1="209" y1="311.32" x2="183" y2="311.32"/></g><g id="ID000171"><polygon points="203 308.18 201.25 309.75 199.51 310.27 197.76 310.53 194.28 311.32 197.76 312.1 199.51 312.37 201.25 312.89 203 314.46 203 308.18"/></g><line class="cls-4" x1="213" y1="306" x2="213" y2="280"/><line class="cls-4" x1="213" y1="280" x2="184" y2="280"/><g id="ID000170-2" data-name="ID000170"><line class="cls-17" x1="155.98" y1="318.34" x2="155.98" y2="297"/></g><g id="ID000171-2" data-name="ID000171"><polygon points="152.84 311.34 154.41 309.6 154.93 307.85 155.19 306.11 155.98 302.62 156.76 306.11 157.03 307.85 157.55 309.6 159.12 311.34 152.84 311.34"/></g></svg>