<?xml version="1.0" encoding="utf-8"?>
<!-- Generator: Adobe Illustrator 25.4.1, SVG Export Plug-In . SVG Version: 6.00 Build 0)  -->
<svg version="1.1" id="图层_1" xmlns="http://www.w3.org/2000/svg" xmlns:xlink="http://www.w3.org/1999/xlink" x="0px" y="0px"
	 viewBox="0 0 400 400" style="enable-background:new 0 0 400 400;" xml:space="preserve">
<style type="text/css">
	.st0{fill:none;stroke:#000000;stroke-width:0.5;}
	.st1{fill:#FF870A;}
	.st2{font-family:'ArialMT';}
	.st3{font-size:9.24px;}
	.st4{fill:#80DB9E;}
	.st5{font-size:7.2731px;}
	.st6{font-size:14px;}
	.st7{font-size:10.9096px;}
	.st8{fill:#FFAADC;}
	.st9{fill:none;stroke:#000000;}
	.st10{stroke:#000000;stroke-width:0.5;}
	.st11{fill:#FFFFFF;stroke:#000000;stroke-width:0.5;}
	.st12{fill:#09FEFE;}
	.st13{font-size:9.2449px;}
	.st14{fill:#0A0BFF;}
	.st15{fill:none;stroke:#FF0B0C;stroke-width:0.5;stroke-miterlimit:10;}
	.st16{font-size:8px;}
	.st17{fill:none;stroke:#251E1C;stroke-miterlimit:10;}
	.st18{font-size:20px;}
</style>
<g id="ID000204">
	<line class="st0" x1="152.3" y1="168.3" x2="267.4" y2="145.3"/>
</g>
<g id="ID000071">
	<g>
		<g transform="translate(181.737,259.026)">
			<g transform="rotate(-0.0)">
				<text transform="matrix(1 0 0 1 -36.7659 -63.2645)" class="st1 st2 st3">G</text>
			</g>
		</g>
	</g>
</g>
<g id="ID000071_00000042723834305584145200000005489636367902942636_">
	<g>
		<g transform="translate(181.737,259.026)">
			<g transform="rotate(-0.0)">
				<text transform="matrix(1 0 0 1 -14.3553 -34.6765)" class="st1 st2 st3">G</text>
			</g>
		</g>
	</g>
</g>
<g id="ID000074">
	<g>
		<g transform="translate(194.234,259.026)">
			<g transform="rotate(-0.0)">
				<text transform="matrix(1 0 0 1 -49.2864 -15.6746)" class="st4 st2 st3">C</text>
			</g>
		</g>
	</g>
</g>
<g id="ID000077">
	<g>
		<g transform="translate(194.234,265.275)">
			<g transform="rotate(-0.0)">
				<text transform="matrix(1 0 0 1 -27.2805 -31.405)" class="st1 st2 st3">A</text>
			</g>
		</g>
	</g>
</g>
<g id="ID000079">
	<line class="st0" x1="152.4" y1="191.4" x2="164" y2="191.4"/>
</g>
<g id="ID000273">
	<g>
		<g transform="translate(173.926,315.265)">
			<g transform="rotate(-0.0)">
				<text transform="matrix(1 0 0 1 -40.9897 -14.144)" class="st4 st2 st3">A</text>
			</g>
		</g>
	</g>
</g>
<g id="ID000274">
	<g>
		<g transform="translate(181.737,312.141)">
			<g transform="rotate(-0.0)">
				<text transform="matrix(1 0 0 1 -36.7659 -15.8335)" class="st4 st2 st3">G</text>
			</g>
		</g>
	</g>
</g>
<g id="ID000275">
	<g>
		<g transform="translate(181.737,304.330)">
			<g transform="rotate(-0.0)">
				<text transform="matrix(1 0 0 1 -36.7659 -20.0576)" class="st4 st2 st3">U</text>
			</g>
		</g>
	</g>
</g>
<g id="ID000277">
	<g>
		<g transform="translate(181.737,296.519)">
			<g transform="rotate(-0.0)">
				<text transform="matrix(1 0 0 1 -37.0208 -24.2848)" class="st4 st2 st3">U</text>
			</g>
		</g>
	</g>
</g>
<g id="ID000278">
	<g>
		<g transform="translate(181.737,290.270)">
			<g transform="rotate(-0.0)">
				<text transform="matrix(1 0 0 1 -37.0208 -27.6627)" class="st4 st2 st3">U</text>
			</g>
		</g>
	</g>
</g>
<g id="ID000279">
	<line class="st0" x1="141.6" y1="258.2" x2="135.2" y2="258.2"/>
</g>
<g id="ID000280">
	<g transform="translate(173.405,290.270)">
		<g transform="rotate(-0.0)">
			<text transform="matrix(1 0 0 1 -48.0038 -29.4742)" class="st2 st5">10</text>
		</g>
	</g>
</g>
<g id="ID000281">
	<g>
		<g transform="translate(181.737,284.021)">
			<g transform="rotate(-0.0)">
				<text transform="matrix(1 0 0 1 -37.0208 -31.0416)" class="st4 st2 st3">G</text>
			</g>
		</g>
	</g>
</g>
<g id="ID000283">
	<g>
		<g transform="translate(181.737,271.524)">
			<g transform="rotate(-0.0)">
				<text transform="matrix(1 0 0 1 -36.3709 -56.5055)" class="st1 st2 st3">U</text>
			</g>
		</g>
	</g>
</g>
<g id="ID000284">
	<g>
		<g transform="translate(194.234,271.524)">
			<g transform="rotate(-0.0)">
				<text transform="matrix(1 0 0 1 -29.7497 -56.5055)" class="st1 st2 st3">A</text>
			</g>
		</g>
	</g>
</g>
<g id="ID000284_00000067220351782696101890000017043637260054507428_">
	<g>
		<g transform="translate(194.234,271.524)">
			<g transform="rotate(-0.0)">
				<text transform="matrix(1 0 0 1 -29.7639 -67.4143)" class="st1 st2 st3">A</text>
			</g>
		</g>
	</g>
</g>
<g id="ID000284_00000022551892272581317650000009439519970700099472_">
	<g>
		<g transform="translate(194.234,271.524)">
			<g transform="rotate(-0.0)">
				<text transform="matrix(1 0 0 1 -48.7732 -65.987)" class="st1 st2 st3">A</text>
			</g>
		</g>
	</g>
</g>
<g id="ID000285">
	<g>
		<g transform="translate(194.234,277.772)">
			<g transform="rotate(-0.0)">
				<text transform="matrix(1 0 0 1 -30.008 -34.4215)" class="st4 st2 st3">G</text>
			</g>
		</g>
	</g>
</g>
<g id="ID000286">
	<g>
		<g transform="translate(194.234,284.021)">
			<g transform="rotate(-0.0)">
				<text transform="matrix(1 0 0 1 -30.008 -31.0416)" class="st4 st2 st3">C</text>
			</g>
		</g>
	</g>
</g>
<g id="ID000287">
	<g>
		<g transform="translate(194.234,290.270)">
			<g transform="rotate(-0.0)">
				<text transform="matrix(1 0 0 1 -30.5212 -27.6627)" class="st4 st2 st3">A</text>
			</g>
		</g>
	</g>
</g>
<g id="ID000288">
	<g>
		<g transform="translate(194.234,296.519)">
			<g transform="rotate(-0.0)">
				<text transform="matrix(1 0 0 1 -30.5212 -24.2848)" class="st4 st2 st3">A</text>
			</g>
		</g>
	</g>
</g>
<g id="ID000289">
	<g>
		<g transform="translate(194.234,304.330)">
			<g transform="rotate(-0.0)">
				<text transform="matrix(1 0 0 1 -30.2629 -20.0576)" class="st4 st2 st3">A</text>
			</g>
		</g>
	</g>
</g>
<g id="ID000290">
	<g>
		<g transform="translate(194.234,312.141)">
			<g transform="rotate(-0.0)">
				<text transform="matrix(1 0 0 1 -30.2629 -15.8335)" class="st4 st2 st3">C</text>
			</g>
		</g>
	</g>
</g>
<g id="ID000291">
	<line class="st0" x1="151.9" y1="291.9" x2="163.5" y2="291.9"/>
</g>
<g id="ID000293">
	<line class="st0" x1="151.9" y1="267.9" x2="163.5" y2="267.9"/>
</g>
<g id="ID000294">
	<line class="st0" x1="151.9" y1="258.2" x2="163.5" y2="258.2"/>
</g>
<g id="ID000295">
	<line class="st0" x1="151.9" y1="248.6" x2="163.5" y2="248.6"/>
</g>
<g id="ID000296">
	<line class="st0" x1="151.9" y1="239" x2="163.5" y2="239"/>
</g>
<g>
	<text transform="matrix(1 0 0 1 103.8719 265.615)" class="st4 st2 st6">P1</text>
</g>
<text transform="matrix(1 0 0 1 108.0712 298.8367)" class="st2 st7">5’</text>
<g id="ID000078_3_">
	<line class="st0" x1="151.9" y1="280.3" x2="163.5" y2="280.3"/>
</g>
<g id="ID000273_00000142169050577575377720000017537420458248031645_">
	<g>
		<g transform="translate(173.926,315.265)">
			<g transform="rotate(-0.0)">
				<text transform="matrix(1 0 0 1 -53.1766 -14.145)" class="st4 st2 st3">A</text>
			</g>
		</g>
	</g>
</g>
<g id="ID000070_00000106861664843112305560000018179199384333661119_">
	<g>
		<g transform="translate(181.737,265.275)">
			<g transform="rotate(-0.0)">
				<text transform="matrix(1 0 0 1 -43.596 -106.5178)" class="st1 st2 st3">U</text>
			</g>
		</g>
	</g>
</g>
<g id="ID000070_00000072260827076577543450000017084316365211499956_">
	<g>
		<g transform="translate(181.737,265.275)">
			<g transform="rotate(-0.0)">
				<text transform="matrix(1 0 0 1 -11.7298 -133.6902)" class="st1 st2 st3">U</text>
			</g>
		</g>
	</g>
</g>
<g id="ID000070_00000057116654473881095580000016018442215852978353_">
	<g>
		<g transform="translate(181.737,265.275)">
			<g transform="rotate(-0.0)">
				<text transform="matrix(1 0 0 1 -43.2903 -95.1009)" class="st1 st2 st3">U</text>
			</g>
		</g>
	</g>
</g>
<g id="ID000283_00000043435939229216221670000015982231714796291214_">
	<g>
		<g transform="translate(181.737,271.524)">
			<g transform="rotate(-0.0)">
				<text transform="matrix(1 0 0 1 -36.7654 -217.1912)" class="st8 st2 st3">A</text>
			</g>
		</g>
	</g>
</g>
<g id="ID000283_00000155839781406525082370000008763728518096399264_">
	<g>
		<g transform="translate(181.737,271.524)">
			<g transform="rotate(-0.0)">
				<text transform="matrix(1 0 0 1 -15.2278 -216.9968)" class="st8 st2 st3">A</text>
			</g>
		</g>
	</g>
</g>
<g id="ID000074_00000055690964906518874520000007123331776187472269_">
	<g>
		<g transform="translate(194.234,259.026)">
			<g transform="rotate(-0.0)">
				<text transform="matrix(1 0 0 1 -29.8577 -63.7884)" class="st1 st2 st3">C</text>
			</g>
		</g>
	</g>
</g>
<g id="ID000109">
	<line class="st9" x1="148.5" y1="234.8" x2="148.5" y2="217.1"/>
</g>
<g id="ID000110">
	<polygon class="st10" points="146.9,227.8 147.7,226.9 148,226 148.1,225 148.5,223.2 148.9,225 149.1,226 149.4,226.9 
		150.2,227.8 	"/>
</g>
<g id="ID000340">
	<line class="st0" x1="152.4" y1="201.3" x2="164" y2="201.3"/>
</g>
<g id="ID000341">
	<polygon class="st11" points="153.8,203.3 157.6,203.3 157.6,199.4 153.8,199.4 	"/>
</g>
<g id="ID000342">
	<polygon class="st11" points="163.2,201.3 159.5,199.2 159.5,203.5 	"/>
</g>
<g id="ID000340_00000065781915833995954460000004460993974201634709_">
	<line class="st0" x1="164" y1="211.2" x2="152.4" y2="211.4"/>
</g>
<g id="ID000341_00000183229131417757037540000002779994989799748228_">
	<polygon class="st11" points="162.6,209.3 158.8,209.3 158.8,213.2 162.7,213.1 	"/>
</g>
<g id="ID000121_00000041262445257389730760000000818574207218917804_">
	<polygon class="st11" points="153.6,211.4 153.6,211.5 153.6,211.6 153.7,211.7 153.7,211.9 153.7,212 153.8,212.1 153.8,212.2 
		153.9,212.4 154,212.5 154,212.6 154.1,212.7 154.2,212.8 154.3,212.9 154.4,213 154.5,213 154.6,213.1 154.7,213.2 154.8,213.2 
		155,213.3 155.1,213.3 155.2,213.4 155.3,213.4 155.5,213.4 155.6,213.4 155.7,213.4 155.9,213.4 156,213.4 156.1,213.4 
		156.2,213.4 156.4,213.3 156.5,213.3 156.6,213.2 156.7,213.2 156.8,213.1 156.9,213 157.1,212.9 157.1,212.8 157.2,212.8 
		157.3,212.7 157.4,212.5 157.5,212.4 157.5,212.3 157.6,212.2 157.6,212.1 157.7,212 157.7,211.8 157.7,211.7 157.8,211.6 
		157.8,211.4 157.8,211.3 157.8,211.2 157.7,211 157.7,210.9 157.7,210.8 157.7,210.7 157.6,210.5 157.5,210.4 157.5,210.3 
		157.4,210.2 157.3,210.1 157.2,210 157.2,209.9 157.1,209.8 157,209.7 156.9,209.6 156.7,209.6 156.6,209.5 156.5,209.5 
		156.4,209.4 156.3,209.4 156.1,209.3 156,209.3 155.9,209.3 155.7,209.3 155.6,209.3 155.5,209.3 155.3,209.3 155.2,209.3 
		155.1,209.4 155,209.4 154.8,209.5 154.7,209.5 154.6,209.6 154.5,209.7 154.4,209.8 154.3,209.8 154.2,209.9 154.1,210 154,210.1 
		154,210.2 153.9,210.4 153.8,210.5 153.8,210.6 153.7,210.7 153.7,210.8 153.7,211 153.6,211.1 153.6,211.2 	"/>
</g>
<g id="ID000071_00000062160868718157135520000015897252264488128414_">
	<g>
		<g transform="translate(181.737,259.026)">
			<g transform="rotate(-0.0)">
				<text transform="matrix(1 0 0 1 -36.7659 -73.8368)" class="st1 st2 st3">G</text>
			</g>
		</g>
	</g>
</g>
<g id="ID000079_00000008116653862605760830000012305489093064875702_">
	<line class="st0" x1="152.4" y1="180.8" x2="164" y2="180.8"/>
</g>
<g id="ID000074_00000145740498555254479600000009406274064775564447_">
	<g>
		<g transform="translate(194.234,259.026)">
			<g transform="rotate(-0.0)">
				<text transform="matrix(1 0 0 1 -29.8572 -74.3602)" class="st1 st2 st3">C</text>
			</g>
		</g>
	</g>
</g>
<g id="ID000071_00000002345754907713774170000005977880140162210216_">
	<g>
		<g transform="translate(181.737,259.026)">
			<g transform="rotate(-0.0)">
				<text transform="matrix(1 0 0 1 -36.7659 -84.2336)" class="st1 st2 st3">G</text>
			</g>
		</g>
	</g>
</g>
<g id="ID000074_00000052080114719379391350000007824979953155479950_">
	<g>
		<g transform="translate(194.234,259.026)">
			<g transform="rotate(-0.0)">
				<text transform="matrix(1 0 0 1 -29.8577 -84.7576)" class="st1 st2 st3">U</text>
			</g>
		</g>
	</g>
</g>
<g id="ID000071_00000007394922945814888140000012397565632627523495_">
	<g>
		<g transform="translate(181.737,259.026)">
			<g transform="rotate(-0.0)">
				<text transform="matrix(1 0 0 1 -36.7659 -108.1083)" class="st1 st2 st3">C</text>
			</g>
		</g>
	</g>
</g>
<g id="ID000079_00000123439195180491914980000003774126897251290288_">
	<line class="st0" x1="152.4" y1="146.6" x2="164" y2="146.6"/>
</g>
<g id="ID000074_00000164479050220660017930000007725485288665521804_">
	<g>
		<g transform="translate(194.234,259.026)">
			<g transform="rotate(-0.0)">
				<text transform="matrix(1 0 0 1 -29.8577 -108.6316)" class="st1 st2 st3">G</text>
			</g>
		</g>
	</g>
</g>
<g id="ID000063">
	<polygon class="st0" points="159.5,171.3 159.5,171.2 159.5,171 159.5,170.9 159.5,170.8 159.5,170.7 159.4,170.6 159.4,170.4 
		159.3,170.3 159.2,170.2 159.2,170.1 159.1,170 159,169.9 158.9,169.9 158.8,169.8 158.7,169.7 158.6,169.6 158.5,169.6 
		158.4,169.5 158.3,169.5 158.2,169.4 158.1,169.4 158,169.4 157.8,169.4 157.7,169.4 157.6,169.4 157.5,169.4 157.4,169.4 
		157.2,169.4 157.1,169.4 157,169.5 156.9,169.5 156.8,169.6 156.7,169.6 156.6,169.7 156.5,169.7 156.4,169.8 156.3,169.9 
		156.2,170 156.1,170.1 156,170.2 156,170.3 155.9,170.4 155.9,170.5 155.8,170.6 155.8,170.7 155.7,170.9 155.7,171 155.7,171.1 
		155.7,171.2 155.7,171.3 155.7,171.5 155.7,171.6 155.7,171.7 155.8,171.8 155.8,171.9 155.9,172 155.9,172.2 156,172.3 156,172.4 
		156.1,172.5 156.2,172.6 156.3,172.6 156.4,172.7 156.5,172.8 156.6,172.9 156.7,172.9 156.8,173 156.9,173.1 157,173.1 
		157.1,173.1 157.2,173.2 157.4,173.2 157.5,173.2 157.6,173.2 157.7,173.2 157.8,173.2 158,173.2 158.1,173.1 158.2,173.1 
		158.3,173.1 158.4,173 158.5,173 158.6,172.9 158.7,172.8 158.8,172.8 158.9,172.7 159,172.6 159.1,172.5 159.2,172.4 159.2,172.3 
		159.3,172.2 159.4,172.1 159.4,172 159.5,171.9 159.5,171.8 159.5,171.6 159.5,171.5 159.5,171.4 	"/>
</g>
<g id="ID000071_00000057867837011637325310000008770948015629123222_">
	<g>
		<g transform="translate(181.737,259.026)">
			<g transform="rotate(-0.0)">
				<text transform="matrix(1 0 0 1 -36.7659 -117.3752)" class="st1 st2 st3">C</text>
			</g>
		</g>
	</g>
</g>
<g id="ID000079_00000013169020713971621950000017183724879747077518_">
	<line class="st0" x1="152.4" y1="137.3" x2="164" y2="137.3"/>
</g>
<g id="ID000074_00000176751806581862866360000003119695367492833671_">
	<g>
		<g transform="translate(194.234,259.026)">
			<g transform="rotate(-0.0)">
				<text transform="matrix(1 0 0 1 -29.8577 -117.8993)" class="st1 st2 st3">G</text>
			</g>
		</g>
	</g>
</g>
<g id="ID000070_00000182493638472019221150000015267588869614845354_">
	<g>
		<g transform="translate(181.737,265.275)">
			<g transform="rotate(-0.0)">
				<text transform="matrix(1 0 0 1 -11.6024 -153.5573)" class="st1 st2 st3">U</text>
			</g>
		</g>
	</g>
</g>
<g id="ID000071_00000078037183740402744240000014828172213788628381_">
	<g>
		<g transform="translate(181.737,259.026)">
			<g transform="rotate(-0.0)">
				<text transform="matrix(1 0 0 1 -36.639 -137.2424)" class="st1 st2 st3">G</text>
			</g>
		</g>
	</g>
</g>
<g id="ID000071_00000116216713138187026270000004328128433832562821_">
	<g>
		<g transform="translate(181.737,259.026)">
			<g transform="rotate(-0.0)">
				<text transform="matrix(1 0 0 1 -12.0228 -156.8337)" class="st1 st2 st3">G</text>
			</g>
		</g>
	</g>
</g>
<g id="ID000079_00000073683313435233190060000010617394681805179292_">
	<line class="st0" x1="152.6" y1="117.4" x2="164.1" y2="117.4"/>
</g>
<g id="ID000074_00000170966603291824689400000003845667636576861588_">
	<g>
		<g transform="translate(194.234,259.026)">
			<g transform="rotate(-0.0)">
				<text transform="matrix(1 0 0 1 -29.7302 -137.7659)" class="st1 st2 st3">C</text>
			</g>
		</g>
	</g>
</g>
<g id="ID000071_00000049917849244351979370000015701419500101961113_">
	<g>
		<g transform="translate(181.737,259.026)">
			<g transform="rotate(-0.0)">
				<text transform="matrix(1 0 0 1 -36.1487 -165.1566)" class="st8 st2 st3">C</text>
			</g>
		</g>
	</g>
</g>
<g id="ID000079_00000152234192805320184620000013654685708848739462_">
	<line class="st0" x1="153" y1="89.5" x2="164.6" y2="89.5"/>
</g>
<g id="ID000074_00000130615033008039380450000016337414618448233398_">
	<g>
		<g transform="translate(194.234,259.026)">
			<g transform="rotate(-0.0)">
				<text transform="matrix(1 0 0 1 -29.2405 -165.6799)" class="st8 st2 st3">G</text>
			</g>
		</g>
	</g>
</g>
<g id="ID000071_00000160903528532631396110000001347484904901597111_">
	<g>
		<g transform="translate(181.737,259.026)">
			<g transform="rotate(-0.0)">
				<text transform="matrix(1 0 0 1 -36.1487 -174.4241)" class="st8 st2 st3">G</text>
			</g>
		</g>
	</g>
</g>
<g id="ID000074_00000111172603137747597580000005835699077460798121_">
	<g>
		<g transform="translate(194.234,259.026)">
			<g transform="rotate(-0.0)">
				<text transform="matrix(1 0 0 1 -29.2405 -174.9475)" class="st8 st2 st3">U</text>
			</g>
		</g>
	</g>
</g>
<g id="ID000071_00000029766555155740345120000015987602686394462389_">
	<g>
		<g transform="translate(181.737,259.026)">
			<g transform="rotate(-0.0)">
				<text transform="matrix(1 0 0 1 -36.2762 -184.3319)" class="st8 st2 st3">U</text>
			</g>
		</g>
	</g>
</g>
<g id="ID000071_00000072277250225640126780000012306217752900989863_">
	<g>
		<g transform="translate(181.737,259.026)">
			<g transform="rotate(-0.0)">
				<text transform="matrix(1 0 0 1 -25.7278 -211.8386)" class="st8 st2 st3">U</text>
			</g>
		</g>
	</g>
</g>
<g id="ID000074_00000083070465315023849060000006128091509518512513_">
	<g>
		<g transform="translate(194.234,259.026)">
			<g transform="rotate(-0.0)">
				<text transform="matrix(1 0 0 1 -29.3674 -184.8557)" class="st8 st2 st3">G</text>
			</g>
		</g>
	</g>
</g>
<g id="ID000071_00000043451129990880435810000004955094455248094857_">
	<g>
		<g transform="translate(181.737,259.026)">
			<g transform="rotate(-0.0)">
				<text transform="matrix(1 0 0 1 -36.2762 -193.5994)" class="st8 st2 st3">C</text>
			</g>
		</g>
	</g>
</g>
<g id="ID000079_00000044141169133592521720000004412653812491394730_">
	<line class="st0" x1="152.9" y1="61.1" x2="164.5" y2="61.1"/>
</g>
<g id="ID000074_00000157989886511568207720000016001354323932798083_">
	<g>
		<g transform="translate(194.234,259.026)">
			<g transform="rotate(-0.0)">
				<text transform="matrix(1 0 0 1 -29.3674 -194.1229)" class="st8 st2 st3">G</text>
			</g>
		</g>
	</g>
</g>
<g id="ID000063_00000023248264303120183220000010714083331589632695_">
	<polygon class="st0" points="160.1,81 160.1,80.9 160.1,80.8 160.1,80.7 160.1,80.5 160,80.4 160,80.3 159.9,80.2 159.9,80.1 
		159.8,80 159.8,79.9 159.7,79.8 159.6,79.7 159.5,79.6 159.4,79.5 159.3,79.5 159.2,79.4 159.1,79.3 159,79.3 158.9,79.2 
		158.8,79.2 158.7,79.2 158.5,79.1 158.4,79.1 158.3,79.1 158.2,79.1 158.1,79.1 157.9,79.1 157.8,79.1 157.7,79.2 157.6,79.2 
		157.5,79.3 157.3,79.3 157.2,79.4 157.1,79.4 157,79.5 156.9,79.6 156.9,79.7 156.8,79.7 156.7,79.8 156.6,79.9 156.6,80 
		156.5,80.1 156.4,80.3 156.4,80.4 156.4,80.5 156.3,80.6 156.3,80.7 156.3,80.8 156.3,81 156.3,81.1 156.3,81.2 156.3,81.3 
		156.3,81.5 156.4,81.6 156.4,81.7 156.4,81.8 156.5,81.9 156.6,82 156.6,82.1 156.7,82.2 156.8,82.3 156.9,82.4 156.9,82.5 
		157,82.6 157.1,82.6 157.2,82.7 157.3,82.8 157.5,82.8 157.6,82.8 157.7,82.9 157.8,82.9 157.9,82.9 158.1,82.9 158.2,83 158.3,83 
		158.4,82.9 158.5,82.9 158.7,82.9 158.8,82.9 158.9,82.8 159,82.8 159.1,82.7 159.2,82.7 159.3,82.6 159.4,82.5 159.5,82.4 
		159.6,82.4 159.7,82.3 159.8,82.2 159.8,82.1 159.9,82 159.9,81.9 160,81.7 160,81.6 160.1,81.5 160.1,81.4 160.1,81.3 160.1,81.2 
			"/>
</g>
<g id="ID000063_00000065796918868190546400000003201088720730010773_">
	<polygon class="st0" points="160.1,72.2 160.1,72.1 160.1,72 160.1,71.8 160.1,71.7 160,71.6 160,71.5 159.9,71.4 159.9,71.3 
		159.8,71.2 159.8,71.1 159.7,71 159.6,70.9 159.5,70.8 159.4,70.7 159.3,70.6 159.2,70.6 159.1,70.5 159,70.5 158.9,70.4 
		158.8,70.4 158.7,70.3 158.5,70.3 158.4,70.3 158.3,70.3 158.2,70.3 158.1,70.3 157.9,70.3 157.8,70.3 157.7,70.4 157.6,70.4 
		157.5,70.4 157.3,70.5 157.2,70.5 157.1,70.6 157,70.7 156.9,70.8 156.9,70.8 156.8,70.9 156.7,71 156.6,71.1 156.6,71.2 
		156.5,71.3 156.4,71.4 156.4,71.6 156.4,71.7 156.3,71.8 156.3,71.9 156.3,72 156.3,72.1 156.3,72.3 156.3,72.4 156.3,72.5 
		156.3,72.6 156.4,72.8 156.4,72.9 156.4,73 156.5,73.1 156.6,73.2 156.6,73.3 156.7,73.4 156.8,73.5 156.9,73.6 156.9,73.7 
		157,73.7 157.1,73.8 157.2,73.9 157.3,73.9 157.5,74 157.6,74 157.7,74.1 157.8,74.1 157.9,74.1 158.1,74.1 158.2,74.1 158.3,74.1 
		158.4,74.1 158.5,74.1 158.7,74.1 158.8,74 158.9,74 159,74 159.1,73.9 159.2,73.8 159.3,73.8 159.4,73.7 159.5,73.6 159.6,73.5 
		159.7,73.4 159.8,73.4 159.8,73.3 159.9,73.1 159.9,73 160,72.9 160,72.8 160.1,72.7 160.1,72.6 160.1,72.5 160.1,72.3 	"/>
</g>
<g id="ID000074_00000098193431738361614100000002964852904559164857_">
	<g transform="translate(194.234,259.026)">
		<g transform="rotate(-0.0)">
			<text transform="matrix(1 0 0 1 -48.9045 54.8997)" class="st12 st2 st13">G</text>
		</g>
	</g>
</g>
<g id="ID000274_00000163050971651096578140000001478828531679014026_">
	<g transform="translate(181.737,312.141)">
		<g transform="rotate(-0.0)">
			<text transform="matrix(1 0 0 1 -36.3841 54.7407)" class="st12 st2 st13">U</text>
		</g>
	</g>
</g>
<g id="ID000275_00000005227100503929231930000009375170740465787288_">
	<g transform="translate(181.737,304.330)">
		<g transform="rotate(-0.0)">
			<text transform="matrix(1 0 0 1 -36.3841 50.5176)" class="st12 st2 st13">U</text>
		</g>
	</g>
</g>
<g id="ID000277_00000145780351330041156330000004429070998188735117_">
	<g transform="translate(181.737,296.519)">
		<g transform="rotate(-0.0)">
			<text transform="matrix(1 0 0 1 -36.639 46.2895)" class="st12 st2 st13">U</text>
		</g>
	</g>
</g>
<g id="ID000278_00000079474189841126350890000014490976556223160972_">
	<g transform="translate(181.737,290.270)">
		<g transform="rotate(-0.0)">
			<text transform="matrix(1 0 0 1 -36.639 42.9115)" class="st12 st2 st13">C</text>
		</g>
	</g>
</g>
<g id="ID000278_00000124858328397135595020000011421419025671781506_">
	<g transform="translate(181.737,290.270)">
		<g transform="rotate(-0.0)">
			<text transform="matrix(1 0 0 1 -36.4886 87.6674)" class="st12 st2 st13">C</text>
		</g>
	</g>
</g>
<g id="ID000278_00000120527372561092021200000010474564592430944952_">
	<g transform="translate(181.737,290.270)">
		<g transform="rotate(-0.0)">
			<text transform="matrix(1 0 0 1 -16.8851 86.7787)" class="st12 st2 st13">C</text>
		</g>
	</g>
</g>
<g id="ID000281_00000073703483236704959990000011894512934658897851_">
	<g transform="translate(181.737,284.021)">
		<g transform="rotate(-0.0)">
			<text transform="matrix(1 0 0 1 -36.639 39.5326)" class="st12 st2 st13">G</text>
		</g>
	</g>
</g>
<g id="ID000285_00000177460833396196042540000010748195998873302172_">
	<g transform="translate(194.234,277.772)">
		<g transform="rotate(-0.0)">
			<text transform="matrix(1 0 0 1 -29.6262 36.1537)" class="st12 st2 st13">C</text>
		</g>
	</g>
</g>
<g id="ID000286_00000044863270407976345150000012564280976509003663_">
	<g transform="translate(194.234,284.021)">
		<g transform="rotate(-0.0)">
			<text transform="matrix(1 0 0 1 -29.6262 39.5326)" class="st12 st2 st13">C</text>
		</g>
	</g>
</g>
<g id="ID000287_00000181066232150921879900000013166079333282841764_">
	<g transform="translate(194.234,290.270)">
		<g transform="rotate(-0.0)">
			<text transform="matrix(1 0 0 1 -30.1395 42.9115)" class="st12 st2 st13">G</text>
		</g>
	</g>
</g>
<g id="ID000288_00000144333751604862242620000002937621506390568123_">
	<g transform="translate(194.234,296.519)">
		<g transform="rotate(-0.0)">
			<text transform="matrix(1 0 0 1 -30.1395 46.2895)" class="st12 st2 st13">A</text>
		</g>
	</g>
</g>
<g id="ID000289_00000167386985800436667180000007614564072492816281_">
	<g transform="translate(194.234,304.330)">
		<g transform="rotate(-0.0)">
			<text transform="matrix(1 0 0 1 -29.8811 50.5176)" class="st12 st2 st13">A</text>
		</g>
	</g>
</g>
<g id="ID000290_00000035490392376697939900000000552215319551750280_">
	<g transform="translate(194.234,312.141)">
		<g transform="rotate(-0.0)">
			<text transform="matrix(1 0 0 1 -29.8811 54.7407)" class="st12 st2 st13">A</text>
		</g>
	</g>
</g>
<g id="ID000290_00000056424608326926143740000012224408188681387172_">
	<g transform="translate(194.234,312.141)">
		<g transform="rotate(-0.0)">
			<text transform="matrix(1 0 0 1 -38.0954 70.4107)" class="st12 st2 st13">A</text>
		</g>
	</g>
</g>
<g id="ID000293_00000078006470515129900120000006930523925656435369_">
	<line class="st0" x1="152.3" y1="338.4" x2="163.8" y2="338.4"/>
</g>
<g id="ID000294_00000143614921553826709200000003786935214626790588_">
	<line class="st0" x1="152.3" y1="328.8" x2="163.8" y2="328.8"/>
</g>
<g id="ID000295_00000092431876176571895490000007935045515016580789_">
	<line class="st0" x1="152.3" y1="319.2" x2="163.8" y2="319.2"/>
</g>
<g id="ID000296_00000010269305200343181340000014294241047720367765_">
	<line class="st0" x1="152.3" y1="309.6" x2="163.8" y2="309.6"/>
</g>
<g id="ID000291_00000183962182394663217770000010845930761982140582_">
	<line class="st0" x1="152.3" y1="351.4" x2="163.9" y2="351.4"/>
</g>
<g id="ID000292">
	<polygon class="st10" points="160,351.4 160,351.3 160,351.2 160,351.1 159.9,350.9 159.9,350.8 159.9,350.7 159.8,350.6 
		159.8,350.5 159.7,350.4 159.6,350.3 159.6,350.2 159.5,350.1 159.4,350 159.3,349.9 159.2,349.9 159.1,349.8 159,349.7 
		158.9,349.7 158.8,349.6 158.7,349.6 158.5,349.6 158.4,349.5 158.3,349.5 158.2,349.5 158,349.5 157.9,349.5 157.8,349.5 
		157.7,349.5 157.6,349.6 157.4,349.6 157.3,349.7 157.2,349.7 157.1,349.8 157,349.8 156.9,349.9 156.8,350 156.7,350.1 
		156.6,350.1 156.6,350.2 156.5,350.3 156.4,350.4 156.4,350.5 156.3,350.7 156.3,350.8 156.2,350.9 156.2,351 156.2,351.1 
		156.2,351.2 156.2,351.4 156.2,351.5 156.2,351.6 156.2,351.7 156.2,351.9 156.2,352 156.3,352.1 156.3,352.2 156.4,352.3 
		156.4,352.4 156.5,352.5 156.6,352.6 156.6,352.7 156.7,352.8 156.8,352.9 156.9,353 157,353 157.1,353.1 157.2,353.2 157.3,353.2 
		157.4,353.2 157.6,353.3 157.7,353.3 157.8,353.3 157.9,353.3 158,353.4 158.2,353.3 158.3,353.3 158.4,353.3 158.5,353.3 
		158.7,353.3 158.8,353.2 158.9,353.2 159,353.1 159.1,353.1 159.2,353 159.3,352.9 159.4,352.8 159.5,352.8 159.6,352.7 
		159.6,352.6 159.7,352.5 159.8,352.4 159.8,352.3 159.9,352.1 159.9,352 159.9,351.9 160,351.8 160,351.7 160,351.5 	"/>
</g>
<g id="ID000109_00000153667799297841445980000010027078339244074910_">
	<line class="st9" x1="165.8" y1="296.9" x2="150.4" y2="305.6"/>
</g>
<g id="ID000110_00000183949476451178296910000006953148696119858106_">
	<polygon class="st10" points="160.5,301.8 159.3,301.5 158.3,301.7 157.5,302 155.7,302.6 157.1,301.3 157.8,300.7 158.5,300.1 
		158.9,298.9 	"/>
</g>
<line class="st0" x1="123.5" y1="292.5" x2="123.5" y2="286.1"/>
<g transform="translate(173.405,290.270)">
	<g transform="rotate(-0.0)">
		<text transform="matrix(1 0 0 1 -51.7562 -5.9976)" class="st2 st5">5</text>
	</g>
</g>
<text transform="matrix(1 0 0 1 119.7303 341.5458)" class="st12 st2 st6">P2</text>
<g>
	<text transform="matrix(1 0 0 1 107.3788 199.5995)" class="st1 st2 st6">P1a</text>
</g>
<g>
	<text transform="matrix(1 0 0 1 110.9637 77.871)" class="st8 st2 st6">P1b</text>
</g>
<g id="ID000280_00000165951006525591236000000017046208732801124773_">
	<g transform="translate(173.405,290.270)">
		<g transform="rotate(-0.0)">
			<text transform="matrix(1 0 0 1 -39.6064 -143.6838)" class="st2 st5">20</text>
		</g>
	</g>
</g>
<line class="st0" x1="180.3" y1="61.1" x2="173.9" y2="61.1"/>
<g transform="translate(173.405,290.270)">
	<g transform="rotate(-0.0)">
		<text transform="matrix(1 0 0 1 8.6002 -226.6549)" class="st2 st5">30</text>
	</g>
</g>
<line class="st0" x1="178.7" y1="170" x2="172.3" y2="170"/>
<g transform="translate(173.405,290.270)">
	<g transform="rotate(-0.0)">
		<text transform="matrix(1 0 0 1 6.9914 -117.6988)" class="st2 st5">40</text>
	</g>
</g>
<line class="st0" x1="177.8" y1="267.9" x2="171.4" y2="267.9"/>
<g transform="translate(173.405,290.270)">
	<g transform="rotate(-0.0)">
		<text transform="matrix(1 0 0 1 6.1286 -19.8433)" class="st2 st5">50</text>
	</g>
</g>
<line class="st0" x1="170.4" y1="381.3" x2="164" y2="381.3"/>
<g transform="translate(173.405,290.270)">
	<g transform="rotate(-0.0)">
		<text transform="matrix(1 0 0 1 -1.2791 93.5424)" class="st2 st5">60</text>
	</g>
</g>
<g id="ID000109_00000091700547492101727240000011921734182747742859_">
	<line class="st9" x1="148.6" y1="111.7" x2="148.6" y2="95.6"/>
</g>
<g id="ID000110_00000047054235610966558370000011403394770076453005_">
	<polygon class="st10" points="147.1,105.3 147.8,104.5 148.1,103.6 148.2,102.8 148.6,101.1 149,102.8 149.1,103.6 149.4,104.5 
		150.1,105.3 	"/>
</g>
<g id="ID000109_00000105386702510489329400000014157359884944175489_">
	<line class="st9" x1="148.7" y1="133.5" x2="148.7" y2="124.1"/>
</g>
<g id="ID000110_00000129923044033229463630000006444553223083589280_">
	<polygon class="st10" points="147.8,129.8 148.3,129.3 148.4,128.8 148.5,128.3 148.7,127.3 148.9,128.3 149,128.8 149.2,129.3 
		149.6,129.8 	"/>
</g>
<g id="ID000079_00000149352288954463732850000014862609810569267129_">
	<line class="st0" x1="152.7" y1="121.6" x2="169.3" y2="128.7"/>
</g>
<line class="st0" x1="180.4" y1="97.4" x2="189.9" y2="97.4"/>
<g id="ID000079_00000110471936873587068270000012620665984155048358_">
	<line class="st0" x1="185.4" y1="101.1" x2="185.4" y2="133.5"/>
</g>
<g id="ID000079_00000039814136782804849580000004843667746721658241_">
	<line class="st0" x1="172.9" y1="137.3" x2="189.9" y2="137.3"/>
</g>
<polygon class="st10" points="181.1,97.4 181.1,97.2 181.1,97.1 181.1,97 181,96.9 181,96.8 181,96.6 180.9,96.5 180.9,96.4 
	180.8,96.3 180.7,96.2 180.6,96.1 180.6,96 180.5,95.9 180.4,95.9 180.3,95.8 180.2,95.7 180.1,95.7 180,95.6 179.9,95.6 
	179.7,95.5 179.6,95.5 179.5,95.5 179.4,95.4 179.3,95.4 179.1,95.4 179,95.4 178.9,95.4 178.8,95.5 178.7,95.5 178.5,95.5 
	178.4,95.6 178.3,95.6 178.2,95.7 178.1,95.7 178,95.8 177.9,95.9 177.8,96 177.7,96.1 177.7,96.2 177.6,96.3 177.5,96.4 
	177.5,96.5 177.4,96.6 177.4,96.7 177.3,96.8 177.3,96.9 177.3,97 177.3,97.2 177.2,97.3 177.2,97.4 177.3,97.5 177.3,97.7 
	177.3,97.8 177.3,97.9 177.4,98 177.4,98.1 177.5,98.2 177.5,98.3 177.6,98.4 177.7,98.5 177.7,98.6 177.8,98.7 177.9,98.8 
	178,98.9 178.1,99 178.2,99 178.3,99.1 178.4,99.1 178.5,99.2 178.7,99.2 178.8,99.2 178.9,99.3 179,99.3 179.1,99.3 179.3,99.3 
	179.4,99.3 179.5,99.2 179.6,99.2 179.7,99.2 179.9,99.2 180,99.1 180.1,99 180.2,99 180.3,98.9 180.4,98.8 180.5,98.8 180.6,98.7 
	180.6,98.6 180.7,98.5 180.8,98.4 180.9,98.3 180.9,98.2 181,98.1 181,98 181,97.8 181.1,97.7 181.1,97.6 181.1,97.5 "/>
<g id="ID000341_00000095337880149365290820000009381432928259859597_">
	<polygon class="st10" points="176.6,135.3 172.8,135.4 172.8,139.2 176.7,139.2 	"/>
</g>
<g id="ID000063_00000035524136258376215380000011786876430237905581_">
	<polygon class="st10" points="163,125.1 163,125 162.9,124.9 162.9,124.8 162.9,124.6 162.9,124.5 162.8,124.4 162.8,124.3 
		162.7,124.2 162.6,124.1 162.6,124 162.5,123.9 162.4,123.8 162.3,123.7 162.2,123.6 162.1,123.6 162,123.5 161.9,123.4 
		161.8,123.4 161.7,123.3 161.6,123.3 161.5,123.3 161.4,123.2 161.2,123.2 161.1,123.2 161,123.2 160.9,123.2 160.8,123.2 
		160.6,123.2 160.5,123.3 160.4,123.3 160.3,123.4 160.2,123.4 160.1,123.5 160,123.5 159.9,123.6 159.8,123.7 159.7,123.8 
		159.6,123.8 159.5,123.9 159.4,124 159.4,124.1 159.3,124.2 159.3,124.4 159.2,124.5 159.2,124.6 159.1,124.7 159.1,124.8 
		159.1,124.9 159.1,125.1 159.1,125.2 159.1,125.3 159.1,125.4 159.1,125.6 159.2,125.7 159.2,125.8 159.3,125.9 159.3,126 
		159.4,126.1 159.4,126.2 159.5,126.3 159.6,126.4 159.7,126.5 159.8,126.6 159.9,126.7 160,126.7 160.1,126.8 160.2,126.9 
		160.3,126.9 160.4,126.9 160.5,127 160.6,127 160.8,127 160.9,127 161,127.1 161.1,127.1 161.2,127 161.4,127 161.5,127 161.6,127 
		161.7,126.9 161.8,126.9 161.9,126.8 162,126.8 162.1,126.7 162.2,126.6 162.3,126.5 162.4,126.5 162.5,126.4 162.6,126.3 
		162.6,126.2 162.7,126.1 162.8,126 162.8,125.8 162.9,125.7 162.9,125.6 162.9,125.5 162.9,125.4 163,125.2 	"/>
</g>
<g id="ID000079_00000114045380303377758720000005715043479105868203_">
	<line class="st0" x1="189.9" y1="97.4" x2="189.9" y2="137.3"/>
</g>
<g id="ID000079_00000049932595693947104620000000853083483220577942_">
	<line class="st0" x1="159.6" y1="133.5" x2="185.4" y2="133.5"/>
</g>
<g id="ID000079_00000139982469721950735120000002820746986032554632_">
	<line class="st0" x1="177.6" y1="101.1" x2="185.4" y2="101.1"/>
</g>
<g id="ID000279_00000051367512900928267530000010277827645286430340_">
	<line class="st0" x1="160.1" y1="133.5" x2="152.4" y2="137"/>
</g>
<polygon class="st10" points="187.2,116.4 187.2,116.3 187.2,116.2 187.2,116.1 187.2,115.9 187.1,115.8 187.1,115.7 187.1,115.6 
	187,115.5 186.9,115.4 186.9,115.3 186.8,115.2 186.7,115.1 186.6,115 186.5,114.9 186.4,114.9 186.3,114.8 186.2,114.7 
	186.1,114.7 186,114.6 185.9,114.6 185.8,114.5 185.7,114.5 185.5,114.5 185.4,114.5 185.3,114.5 185.2,114.5 185,114.5 
	184.9,114.5 184.8,114.6 184.7,114.6 184.6,114.6 184.5,114.7 184.4,114.8 184.3,114.8 184.2,114.9 184.1,115 184,115 183.9,115.1 
	183.8,115.2 183.7,115.3 183.7,115.4 183.6,115.5 183.6,115.6 183.5,115.8 183.5,115.9 183.4,116 183.4,116.1 183.4,116.2 
	183.4,116.4 183.4,116.5 183.4,116.6 183.4,116.7 183.4,116.8 183.5,117 183.5,117.1 183.6,117.2 183.6,117.3 183.7,117.4 
	183.7,117.5 183.8,117.6 183.9,117.7 184,117.8 184.1,117.9 184.2,118 184.3,118 184.4,118.1 184.5,118.1 184.6,118.2 184.7,118.2 
	184.8,118.3 184.9,118.3 185,118.3 185.2,118.3 185.3,118.3 185.4,118.3 185.5,118.3 185.7,118.3 185.8,118.3 185.9,118.3 
	186,118.2 186.1,118.2 186.2,118.1 186.3,118.1 186.4,118 186.5,117.9 186.6,117.8 186.7,117.7 186.8,117.7 186.9,117.6 
	186.9,117.5 187,117.4 187.1,117.2 187.1,117.1 187.1,117 187.2,116.9 187.2,116.8 187.2,116.7 187.2,116.5 "/>
<g id="ID000079_00000015315938134801123720000000791201751061143178_">
	<line class="st0" x1="131.9" y1="148.4" x2="144.2" y2="148.4"/>
</g>
<g id="ID000079_00000084496185231367826660000000513089200307401615_">
	<line class="st0" x1="131.9" y1="148.1" x2="131.9" y2="167.3"/>
</g>
<g id="ID000079_00000031888135381200930120000014507560579635526061_">
	<line class="st0" x1="131.9" y1="167.3" x2="137.7" y2="167.3"/>
</g>
<polygon class="st10" points="133.8,158.7 133.8,158.6 133.8,158.5 133.8,158.4 133.7,158.2 133.7,158.1 133.7,158 133.6,157.9 
	133.6,157.8 133.5,157.7 133.4,157.6 133.4,157.5 133.3,157.4 133.2,157.3 133.1,157.2 133,157.2 132.9,157.1 132.8,157 132.7,157 
	132.6,156.9 132.5,156.9 132.3,156.8 132.2,156.8 132.1,156.8 132,156.8 131.9,156.8 131.7,156.8 131.6,156.8 131.5,156.8 
	131.4,156.9 131.3,156.9 131.1,156.9 131,157 130.9,157.1 130.8,157.1 130.7,157.2 130.6,157.3 130.5,157.3 130.4,157.4 
	130.4,157.5 130.3,157.6 130.2,157.7 130.2,157.8 130.1,157.9 130.1,158.1 130,158.2 130,158.3 130,158.4 130,158.5 130,158.7 
	130,158.8 130,158.9 130,159 130,159.1 130,159.3 130.1,159.4 130.1,159.5 130.2,159.6 130.2,159.7 130.3,159.8 130.4,159.9 
	130.4,160 130.5,160.1 130.6,160.2 130.7,160.3 130.8,160.3 130.9,160.4 131,160.4 131.1,160.5 131.3,160.5 131.4,160.6 
	131.5,160.6 131.6,160.6 131.7,160.6 131.9,160.6 132,160.6 132.1,160.6 132.2,160.6 132.3,160.6 132.5,160.6 132.6,160.5 
	132.7,160.5 132.8,160.4 132.9,160.4 133,160.3 133.1,160.2 133.2,160.1 133.3,160.1 133.4,160 133.4,159.9 133.5,159.8 
	133.6,159.7 133.6,159.5 133.7,159.4 133.7,159.3 133.7,159.2 133.8,159.1 133.8,159 133.8,158.8 "/>
<g id="ID000352">
	<line class="st9" x1="167.9" y1="153.5" x2="167.9" y2="164"/>
</g>
<g id="ID000353">
	<polygon class="st10" points="168.4,158.1 168.2,158.4 168.1,158.7 168,159 167.9,159.6 167.7,159 167.7,158.7 167.6,158.4 
		167.3,158.1 	"/>
</g>
<g id="ID000074_00000098912391084695103260000009359716357141194406_">
	<g>
		<g transform="translate(194.234,259.026)">
			<g transform="rotate(-0.0)">
				<text transform="matrix(1 0 0 1 52.8742 -18.4681)" class="st14 st2 st3">G</text>
			</g>
		</g>
	</g>
</g>
<g id="ID000278_00000178922474543406561040000015460657545714784642_">
	<g>
		<g transform="translate(181.737,290.270)">
			<g transform="rotate(-0.0)">
				<text transform="matrix(1 0 0 1 65.1398 -30.4553)" class="st14 st2 st3">C</text>
			</g>
		</g>
	</g>
</g>
<g id="ID000281_00000086678160052706402390000007725081234150003328_">
	<g>
		<g transform="translate(181.737,284.021)">
			<g transform="rotate(-0.0)">
				<text transform="matrix(1 0 0 1 65.1398 -33.8341)" class="st14 st2 st3">G</text>
			</g>
		</g>
	</g>
</g>
<g id="ID000285_00000147912599869716455120000007141689062978403253_">
	<g>
		<g transform="translate(194.234,277.772)">
			<g transform="rotate(-0.0)">
				<text transform="matrix(1 0 0 1 72.1525 -37.214)" class="st14 st2 st3">G</text>
			</g>
		</g>
	</g>
</g>
<g id="ID000286_00000064311468343173290640000009272340162214003883_">
	<g>
		<g transform="translate(194.234,284.021)">
			<g transform="rotate(-0.0)">
				<text transform="matrix(1 0 0 1 72.1525 -33.8341)" class="st14 st2 st3">A</text>
			</g>
		</g>
	</g>
</g>
<g id="ID000287_00000094591912272737375820000009258030982625467811_">
	<g>
		<g transform="translate(194.234,290.270)">
			<g transform="rotate(-0.0)">
				<text transform="matrix(1 0 0 1 71.6394 -30.4553)" class="st14 st2 st3">G</text>
			</g>
		</g>
	</g>
</g>
<g id="ID000294_00000113333800744331559000000008927791321854908590_">
	<line class="st0" x1="254.1" y1="255.4" x2="265.6" y2="255.4"/>
</g>
<g id="ID000074_00000049916876493782821540000005836795789395431831_">
	<g>
		<g transform="translate(194.234,259.026)">
			<g transform="rotate(-0.0)">
				<text transform="matrix(1 0 0 1 53.3361 -64.6155)" class="st14 st2 st3">G</text>
			</g>
		</g>
	</g>
</g>
<g id="ID000277_00000147923514992725434060000015253656372567645372_">
	<g>
		<g transform="translate(181.737,296.519)">
			<g transform="rotate(-0.0)">
				<text transform="matrix(1 0 0 1 65.6017 -73.2248)" class="st14 st2 st3">A</text>
			</g>
		</g>
	</g>
</g>
<g id="ID000278_00000174574515623510318020000003292383055894379418_">
	<g>
		<g transform="translate(181.737,290.270)">
			<g transform="rotate(-0.0)">
				<text transform="matrix(1 0 0 1 65.6017 -76.6037)" class="st14 st2 st3">A</text>
			</g>
		</g>
	</g>
</g>
<g id="ID000281_00000005988933057745395510000006018839828110008733_">
	<g>
		<g transform="translate(181.737,284.021)">
			<g transform="rotate(-0.0)">
				<text transform="matrix(1 0 0 1 65.6017 -79.9816)" class="st14 st2 st3">G</text>
			</g>
		</g>
	</g>
</g>
<g id="ID000285_00000008111702398976037240000005164535984831314836_">
	<g>
		<g transform="translate(194.234,277.772)">
			<g transform="rotate(-0.0)">
				<text transform="matrix(1 0 0 1 72.6145 -83.3615)" class="st14 st2 st3">C</text>
			</g>
		</g>
	</g>
</g>
<g id="ID000286_00000014618486338418773000000004501414777445461165_">
	<g>
		<g transform="translate(194.234,284.021)">
			<g transform="rotate(-0.0)">
				<text transform="matrix(1 0 0 1 72.6145 -79.9816)" class="st14 st2 st3">C</text>
			</g>
		</g>
	</g>
</g>
<g id="ID000287_00000173145244766505256070000001013194964288302209_">
	<g>
		<g transform="translate(194.234,290.270)">
			<g transform="rotate(-0.0)">
				<text transform="matrix(1 0 0 1 72.1013 -76.6037)" class="st14 st2 st3">U</text>
			</g>
		</g>
	</g>
</g>
<g id="ID000287_00000147903027180425051020000013648236375049023392_">
	<g>
		<g transform="translate(194.234,290.270)">
			<g transform="rotate(-0.0)">
				<text transform="matrix(1 0 0 1 88.4729 -23.5685)" class="st14 st2 st3">U</text>
			</g>
		</g>
	</g>
</g>
<g id="ID000288_00000183930884530659321920000011069162119863774108_">
	<g>
		<g transform="translate(194.234,296.519)">
			<g transform="rotate(-0.0)">
				<text transform="matrix(1 0 0 1 72.1013 -73.2248)" class="st14 st2 st3">G</text>
			</g>
		</g>
	</g>
</g>
<g id="ID000288_00000056402301203718146210000010220513616028746418_">
	<g>
		<g transform="translate(194.234,296.519)">
			<g transform="rotate(-0.0)">
				<text transform="matrix(1 0 0 1 77.9631 -65.4874)" class="st14 st2 st3">G</text>
			</g>
		</g>
	</g>
</g>
<g id="ID000288_00000138547829746974993460000005637158375853072520_">
	<g>
		<g transform="translate(194.234,296.519)">
			<g transform="rotate(-0.0)">
				<text transform="matrix(1 0 0 1 76.7941 -111.4596)" class="st14 st2 st3">G</text>
			</g>
		</g>
	</g>
</g>
<g id="ID000294_00000104685350269454242870000001026404777355599756_">
	<line class="st0" x1="254.5" y1="209.3" x2="266.1" y2="209.3"/>
</g>
<g id="ID000295_00000098203297031762252790000006779217754870802580_">
	<line class="st0" x1="254.5" y1="199.7" x2="266.1" y2="199.7"/>
</g>
<g id="ID000296_00000044165221758805630560000008246618151992203665_">
	<line class="st0" x1="254.5" y1="190" x2="266.1" y2="190"/>
</g>
<g id="ID000074_00000096745561527317787750000004089952948603221932_">
	<g>
		<g transform="translate(194.234,259.026)">
			<g transform="rotate(-0.0)">
				<text transform="matrix(1 0 0 1 54.0666 -92.4632)" class="st14 st2 st3">U</text>
			</g>
		</g>
	</g>
</g>
<g id="ID000281_00000160893049168593130610000001873215160451304613_">
	<g>
		<g transform="translate(181.737,284.021)">
			<g transform="rotate(-0.0)">
				<text transform="matrix(1 0 0 1 66.3322 -107.8303)" class="st14 st2 st3">A</text>
			</g>
		</g>
	</g>
</g>
<g id="ID000285_00000084502253226100004820000001341438606088202928_">
	<g>
		<g transform="translate(194.234,277.772)">
			<g transform="rotate(-0.0)">
				<text transform="matrix(1 0 0 1 73.3449 -111.2096)" class="st14 st2 st3">A</text>
			</g>
		</g>
	</g>
</g>
<g id="ID000286_00000146465564151671027510000005607324675441270434_">
	<g>
		<g transform="translate(194.234,284.021)">
			<g transform="rotate(-0.0)">
				<text transform="matrix(1 0 0 1 73.3449 -107.8303)" class="st14 st2 st3">A</text>
			</g>
		</g>
	</g>
</g>
<g id="ID000074_00000084522161555492742630000001358090803625616262_">
	<g>
		<g transform="translate(194.234,259.026)">
			<g transform="rotate(-0.0)">
				<text transform="matrix(1 0 0 1 53.3361 11.1345)" class="st14 st2 st3">A</text>
			</g>
		</g>
	</g>
</g>
<g id="ID000074_00000162321702199912918690000013779839884613231009_">
	<g>
		<g transform="translate(194.234,259.026)">
			<g transform="rotate(-0.0)">
				<text transform="matrix(1 0 0 1 79.5402 7.2331)" class="st14 st2 st3">A</text>
			</g>
		</g>
	</g>
</g>
<g id="ID000278_00000105402471450981851960000006282515674293035938_">
	<g>
		<g transform="translate(181.737,290.270)">
			<g transform="rotate(-0.0)">
				<text transform="matrix(1 0 0 1 67.1424 -0.8537)" class="st14 st2 st3">A</text>
			</g>
		</g>
	</g>
</g>
<g id="ID000281_00000100372040365783629200000009399809878870260622_">
	<g>
		<g transform="translate(181.737,284.021)">
			<g transform="rotate(-0.0)">
				<text transform="matrix(1 0 0 1 67.1424 -4.2326)" class="st14 st2 st3">C</text>
			</g>
		</g>
	</g>
</g>
<text transform="matrix(1 0 0 1 292.1004 264.3256)" class="st2 st7">3’</text>
<g id="ID000285_00000086682350744872763160000017281509100729748373_">
	<g>
		<g transform="translate(194.234,277.772)">
			<g transform="rotate(-0.0)">
				<text transform="matrix(1 0 0 1 73.3361 -131.3415)" class="st14 st2 st3">A</text>
			</g>
		</g>
	</g>
</g>
<g id="ID000286_00000022553792072942835690000006595555921547547056_">
	<g>
		<g transform="translate(194.234,284.021)">
			<g transform="rotate(-0.0)">
				<text transform="matrix(1 0 0 1 73.3361 -127.9621)" class="st14 st2 st3">A</text>
			</g>
		</g>
	</g>
</g>
<g id="ID000109_00000051376269392304464660000013885643083680957578_">
	<line class="st9" x1="251.3" y1="158.7" x2="251.3" y2="144"/>
</g>
<g id="ID000110_00000136408427556612168660000010769480309776345262_">
	<polygon class="st10" points="249.9,152.9 250.6,152.1 250.8,151.3 250.9,150.6 251.3,149 251.6,150.6 251.7,151.3 252,152.1 
		252.6,152.9 	"/>
</g>
<line class="st0" x1="265.6" y1="247.7" x2="254.8" y2="247.7"/>
<polygon class="st11" points="264.3,245.8 260.4,245.8 260.4,249.6 264.3,249.6 "/>
<polygon class="st11" points="254.8,247.7 258.6,249.9 258.6,245.5 "/>
<line class="st0" x1="254.5" y1="237.4" x2="266.1" y2="237.2"/>
<polygon class="st11" points="255.9,239.3 259.8,239.2 259.7,235.4 255.9,235.4 "/>
<polygon class="st11" points="264.9,237.2 264.9,237.1 264.9,236.9 264.9,236.8 264.8,236.7 264.8,236.5 264.7,236.4 264.7,236.3 
	264.6,236.2 264.6,236.1 264.5,236 264.4,235.9 264.3,235.8 264.2,235.7 264.1,235.6 264,235.5 263.9,235.4 263.8,235.4 
	263.7,235.3 263.6,235.2 263.4,235.2 263.3,235.2 263.2,235.1 263.1,235.1 262.9,235.1 262.8,235.1 262.7,235.1 262.5,235.1 
	262.4,235.2 262.3,235.2 262.1,235.2 262,235.3 261.9,235.3 261.8,235.4 261.7,235.4 261.6,235.5 261.5,235.6 261.4,235.7 
	261.3,235.8 261.2,235.9 261.1,236 261,236.1 261,236.2 260.9,236.3 260.9,236.5 260.8,236.6 260.8,236.7 260.8,236.8 260.8,237 
	260.7,237.1 260.7,237.2 260.8,237.4 260.8,237.5 260.8,237.6 260.8,237.8 260.9,237.9 260.9,238 261,238.1 261,238.2 261.1,238.3 
	261.2,238.5 261.3,238.6 261.4,238.6 261.5,238.7 261.6,238.8 261.7,238.9 261.8,239 261.9,239 262,239.1 262.1,239.1 262.3,239.2 
	262.4,239.2 262.5,239.2 262.6,239.2 262.8,239.3 262.9,239.2 263,239.2 263.2,239.2 263.3,239.2 263.4,239.2 263.5,239.1 
	263.7,239.1 263.8,239 263.9,238.9 264,238.9 264.1,238.8 264.2,238.7 264.3,238.6 264.4,238.5 264.5,238.4 264.6,238.3 
	264.6,238.2 264.7,238.1 264.7,238 264.8,237.8 264.8,237.7 264.8,237.6 264.9,237.4 264.9,237.3 "/>
<g id="ID000109_00000144322219482124173510000006040213073694518152_">
	<line class="st9" x1="250.5" y1="232.9" x2="250.5" y2="225"/>
</g>
<g id="ID000110_00000092457248737157153390000003014061294248492416_">
	<polygon class="st10" points="249.8,229.7 250.2,229.3 250.3,228.9 250.3,228.5 250.5,227.7 250.7,228.5 250.8,228.9 250.9,229.3 
		251.3,229.7 	"/>
</g>
<g id="ID000109_00000014634711932581186390000007965691238459898532_">
	<line class="st9" x1="251.3" y1="185.1" x2="251.3" y2="177.2"/>
</g>
<g id="ID000110_00000160880119684469641350000016987525878240728717_">
	<polygon class="st10" points="250.5,182 250.9,181.6 251,181.2 251.1,180.8 251.3,179.9 251.4,180.8 251.5,181.2 251.6,181.6 
		252,182 	"/>
</g>
<line class="st0" x1="254.2" y1="221" x2="265.7" y2="220.8"/>
<polygon class="st11" points="258,222.9 261.9,222.8 261.8,219 258,219.1 "/>
<line class="st0" x1="266.7" y1="173" x2="255.1" y2="173.2"/>
<polygon class="st11" points="265.3,171.1 261.5,171.1 261.5,175 265.4,174.9 "/>
<polygon class="st11" points="256.3,173.2 256.3,173.3 256.4,173.4 256.4,173.6 256.4,173.7 256.4,173.8 256.5,173.9 256.5,174.1 
	256.6,174.2 256.7,174.3 256.7,174.4 256.8,174.5 256.9,174.6 257,174.7 257.1,174.8 257.2,174.9 257.3,174.9 257.4,175 
	257.5,175.1 257.7,175.1 257.8,175.1 257.9,175.2 258,175.2 258.2,175.2 258.3,175.2 258.4,175.2 258.6,175.2 258.7,175.2 
	258.8,175.2 259,175.2 259.1,175.1 259.2,175.1 259.3,175 259.4,175 259.6,174.9 259.7,174.8 259.8,174.7 259.9,174.7 260,174.6 
	260,174.5 260.1,174.4 260.2,174.2 260.3,174.1 260.3,174 260.4,173.9 260.4,173.8 260.4,173.6 260.5,173.5 260.5,173.4 
	260.5,173.2 260.5,173.1 260.5,173 260.5,172.9 260.4,172.7 260.4,172.6 260.4,172.5 260.3,172.4 260.3,172.2 260.2,172.1 
	260.1,172 260,171.9 260,171.8 259.9,171.7 259.8,171.6 259.7,171.5 259.6,171.5 259.5,171.4 259.3,171.3 259.2,171.3 259.1,171.2 
	259,171.2 258.8,171.1 258.7,171.1 258.6,171.1 258.5,171.1 258.3,171.1 258.2,171.1 258.1,171.1 257.9,171.2 257.8,171.2 
	257.7,171.2 257.6,171.3 257.4,171.3 257.3,171.4 257.2,171.5 257.1,171.6 257,171.6 256.9,171.7 256.8,171.8 256.7,171.9 
	256.7,172 256.6,172.2 256.5,172.3 256.5,172.4 256.4,172.5 256.4,172.6 256.4,172.8 256.4,172.9 256.3,173 "/>
<line class="st0" x1="266.5" y1="163.1" x2="255" y2="163.3"/>
<polygon class="st11" points="265.2,161.2 261.3,161.3 261.4,165.1 265.2,165.1 "/>
<polygon class="st11" points="256.2,163.3 256.2,163.4 256.2,163.6 256.2,163.7 256.3,163.8 256.3,163.9 256.3,164.1 256.4,164.2 
	256.4,164.3 256.5,164.4 256.6,164.5 256.7,164.6 256.8,164.7 256.8,164.8 256.9,164.9 257.1,165 257.2,165.1 257.3,165.1 
	257.4,165.2 257.5,165.2 257.6,165.3 257.8,165.3 257.9,165.3 258,165.4 258.2,165.4 258.3,165.4 258.4,165.4 258.5,165.4 
	258.7,165.3 258.8,165.3 258.9,165.3 259.1,165.2 259.2,165.2 259.3,165.1 259.4,165 259.5,165 259.6,164.9 259.7,164.8 
	259.8,164.7 259.9,164.6 260,164.5 260,164.4 260.1,164.3 260.2,164.1 260.2,164 260.2,163.9 260.3,163.8 260.3,163.6 260.3,163.5 
	260.3,163.4 260.3,163.2 260.3,163.1 260.3,163 260.3,162.9 260.2,162.7 260.2,162.6 260.2,162.5 260.1,162.4 260,162.2 260,162.1 
	259.9,162 259.8,161.9 259.7,161.8 259.6,161.7 259.5,161.7 259.4,161.6 259.3,161.5 259.2,161.4 259.1,161.4 258.9,161.3 
	258.8,161.3 258.7,161.3 258.6,161.2 258.4,161.2 258.3,161.2 258.2,161.2 258,161.2 257.9,161.3 257.8,161.3 257.7,161.3 
	257.5,161.4 257.4,161.4 257.3,161.5 257.2,161.5 257.1,161.6 257,161.7 256.9,161.8 256.8,161.9 256.7,162 256.6,162.1 
	256.5,162.2 256.5,162.3 256.4,162.4 256.3,162.5 256.3,162.6 256.3,162.8 256.2,162.9 256.2,163 256.2,163.2 "/>
<polygon class="st10" points="263,209.3 263,209.2 263,209.1 263,208.9 262.9,208.8 262.9,208.7 262.8,208.6 262.8,208.4 
	262.7,208.3 262.7,208.2 262.6,208.1 262.5,208 262.4,207.9 262.3,207.8 262.2,207.7 262.1,207.6 262,207.6 261.9,207.5 
	261.8,207.4 261.7,207.4 261.5,207.4 261.4,207.3 261.3,207.3 261.2,207.3 261,207.3 260.9,207.3 260.8,207.3 260.6,207.3 
	260.5,207.3 260.4,207.3 260.2,207.4 260.1,207.4 260,207.5 259.9,207.5 259.8,207.6 259.7,207.7 259.6,207.8 259.5,207.8 
	259.4,207.9 259.3,208 259.2,208.1 259.1,208.3 259.1,208.4 259,208.5 259,208.6 258.9,208.7 258.9,208.9 258.9,209 258.9,209.1 
	258.8,209.3 258.8,209.4 258.9,209.5 258.9,209.6 258.9,209.8 258.9,209.9 259,210 259,210.2 259.1,210.3 259.1,210.4 259.2,210.5 
	259.3,210.6 259.4,210.7 259.5,210.8 259.6,210.9 259.7,211 259.8,211 259.9,211.1 260,211.2 260.1,211.2 260.2,211.3 260.4,211.3 
	260.5,211.4 260.6,211.4 260.7,211.4 260.9,211.4 261,211.4 261.1,211.4 261.3,211.4 261.4,211.3 261.5,211.3 261.6,211.3 
	261.8,211.2 261.9,211.2 262,211.1 262.1,211 262.2,210.9 262.3,210.9 262.4,210.8 262.5,210.7 262.6,210.6 262.7,210.5 
	262.7,210.3 262.8,210.2 262.8,210.1 262.9,210 262.9,209.9 262.9,209.7 263,209.6 263,209.5 "/>
<g id="ID000109_00000105406310798015369350000012006630540557958790_">
	<line class="st9" x1="251.3" y1="144" x2="266.8" y2="144"/>
</g>
<g id="ID000110_00000031902614715743874070000014162286184680163235_">
	<polygon class="st10" points="257.4,142.6 258.2,143.3 259,143.5 259.8,143.6 261.4,144 259.8,144.3 259,144.4 258.2,144.7 
		257.4,145.4 	"/>
</g>
<line class="st0" x1="281" y1="142.8" x2="274.6" y2="142.8"/>
<g transform="translate(173.405,290.270)">
	<g transform="rotate(-0.0)">
		<text transform="matrix(1 0 0 1 109.2945 -144.8933)" class="st2 st5">80</text>
	</g>
</g>
<line class="st0" x1="281.5" y1="236.1" x2="275.1" y2="236.1"/>
<g transform="translate(173.405,290.270)">
	<g transform="rotate(-0.0)">
		<text transform="matrix(1 0 0 1 109.8206 -51.6046)" class="st2 st5">90</text>
	</g>
</g>
<g id="ID000279_00000004518296308903185030000005333089889425627275_">
	<line class="st0" x1="244.7" y1="267.1" x2="238.3" y2="267.1"/>
</g>
<g id="ID000280_00000035530314665047608610000016982359934092497563_">
	<g transform="translate(173.405,290.270)">
		<g transform="rotate(-0.0)">
			<text transform="matrix(1 0 0 1 55.0715 -20.5663)" class="st2 st5">70</text>
		</g>
	</g>
</g>
<g>
	<text transform="matrix(1 0 0 1 285.3761 199.7053)" class="st14 st2 st6">P3</text>
</g>
<polygon class="st10" points="213,156.1 213,156 212.9,155.9 212.9,155.8 212.9,155.6 212.8,155.5 212.7,155.4 212.7,155.3 
	212.6,155.2 212.5,155.1 212.4,155 212.3,155 212.2,154.9 212.1,154.8 212,154.7 211.9,154.7 211.8,154.6 211.6,154.6 211.5,154.6 
	211.4,154.5 211.2,154.5 211.1,154.5 211,154.5 210.8,154.5 210.7,154.5 210.6,154.5 210.4,154.5 210.3,154.6 210.2,154.6 
	210,154.7 209.9,154.7 209.8,154.8 209.7,154.8 209.6,154.9 209.5,155 209.4,155.1 209.3,155.2 209.2,155.3 209.1,155.4 209,155.5 
	209,155.6 208.9,155.7 208.8,155.8 208.8,155.9 208.8,156.1 208.7,156.2 208.7,156.3 208.7,156.4 208.7,156.5 208.7,156.7 
	208.7,156.8 208.8,156.9 208.8,157 208.8,157.1 208.9,157.2 209,157.4 209,157.5 209.1,157.6 209.2,157.7 209.3,157.7 209.4,157.8 
	209.5,157.9 209.6,158 209.7,158.1 209.8,158.1 209.9,158.2 210,158.2 210.2,158.3 210.3,158.3 210.4,158.3 210.6,158.3 
	210.7,158.3 210.8,158.3 211,158.3 211.1,158.3 211.2,158.3 211.4,158.3 211.5,158.2 211.6,158.2 211.8,158.1 211.9,158.1 212,158 
	212.1,158 212.2,157.9 212.3,157.8 212.4,157.7 212.5,157.6 212.6,157.5 212.7,157.4 212.7,157.3 212.8,157.2 212.9,157.1 
	212.9,157 212.9,156.8 213,156.7 213,156.6 213,156.5 213,156.4 213,156.2 "/>
<g id="ID000204_00000163754357340313946140000009005193377770300346_">
	<line class="st0" x1="175.8" y1="224.2" x2="244.2" y2="263.5"/>
</g>
<g id="ID000109_00000168114445368640938870000005329820079170922888_">
	<line class="st9" x1="173.8" y1="310.2" x2="244.2" y2="289.4"/>
</g>
<g id="ID000110_00000120518093160008393300000015677807412301961132_">
	<polygon class="st10" points="202.2,299.7 204.7,300 207,299.7 209.2,299.2 213.8,298.4 209.5,300.2 207.4,301 205.3,302 
		203.4,303.7 	"/>
</g>
<g id="ID000342_00000124874138086545617560000000251739051645817018_">
	<polygon class="st11" points="210.7,244.5 208.8,240.6 206.4,244.3 	"/>
</g>
<g id="ID000294_00000021104977090948163890000008365142449237378435_">
	<line class="st0" x1="227.1" y1="227.7" x2="270.7" y2="227.7"/>
</g>
<g id="ID000294_00000003803425759008285770000006268460250009299902_">
	<line class="st0" x1="227.1" y1="277.6" x2="246.3" y2="277.6"/>
</g>
<g id="ID000294_00000032649838806314026660000015626333220041608836_">
	<line class="st0" x1="227.1" y1="228" x2="227.1" y2="277.9"/>
</g>
<circle class="st15" cx="171.1" cy="221.1" r="4.4"/>
<circle class="st15" cx="270.6" cy="237.2" r="4.4"/>
<circle class="st15" cx="249.8" cy="246.8" r="4.4"/>
<circle class="st15" cx="205" cy="337.5" r="5"/>
<text transform="matrix(1 0 0 1 215.9577 336.5787)" class="st2 st16">Nucleotide directly</text>
<text transform="matrix(1 0 0 1 215.9577 346.1786)" class="st2 st16">contacts guanidinium</text>
<rect x="195.6" y="323.8" class="st17" width="109.9" height="27.6"/>
<text transform="matrix(1 0 0 1 7.4699 23.374)" class="st2 st18">Guanidine-I Riboswitch</text>
</svg>
