<?xml version="1.0" encoding="utf-8"?>
<!-- Generator: Adobe Illustrator 25.4.1, SVG Export Plug-In . SVG Version: 6.00 Build 0)  -->
<svg version="1.1" id="图层_1" xmlns="http://www.w3.org/2000/svg" xmlns:xlink="http://www.w3.org/1999/xlink" x="0px" y="0px"
	 viewBox="0 0 400 400" style="enable-background:new 0 0 400 400;" xml:space="preserve">
<style type="text/css">
	.st0{fill:#0A0000;}
	.st1{font-family:'ArialMT';}
	.st2{font-size:20px;}
	.st3{fill:#0D0407;}
	.st4{fill:#211F20;}
	.st5{fill:none;stroke:#0D0407;stroke-width:0.72;stroke-miterlimit:10;}
	.st6{fill:#BB332E;}
	.st7{fill:#807C88;}
	.st8{fill:#808080;}
	.st9{fill:#B6302C;}
	.st10{fill:#0E0609;}
	.st11{fill:#E9C9CF;}
	.st12{fill:none;stroke:#0D0407;stroke-width:1.944;stroke-miterlimit:10;}
	.st13{fill:#CCDDAC;}
	.st14{fill:#CED5E5;}
	.st15{fill:none;stroke:#0D0407;stroke-width:1.5;stroke-miterlimit:10;}
	.st16{enable-background:new    ;}
	.st17{font-size:18px;}
	.st18{fill:#D1E3BF;}
	.st19{fill:none;stroke:#0A0000;stroke-width:1.44;stroke-miterlimit:10;}
	.st20{fill:none;stroke:#0A0000;stroke-width:0.72;stroke-miterlimit:10;}
	.st21{fill:#807B87;}
	.st22{fill:#C6261E;}
	.st23{fill:#808080;stroke:#827B88;stroke-width:0.25;stroke-miterlimit:10;}
	.st24{fill:none;stroke:#0A0000;stroke-width:1.5;stroke-miterlimit:10;}
	.st25{fill:#251E1C;stroke:#0A0000;stroke-width:0.25;stroke-miterlimit:10;}
	.st26{font-size:10.8082px;}
	.st27{font-size:12.6096px;}
	.st28{fill:none;stroke:#807B87;stroke-miterlimit:10;}
	.st29{fill:none;stroke:#807B87;stroke-width:0.5;stroke-miterlimit:10;}
	.st30{stroke:#0A0000;stroke-width:0.25;stroke-miterlimit:10;}
</style>
<text transform="matrix(1 0 0 1 20.7599 39.4562)" class="st0 st1 st2">Guanidine-IV riboswitch</text>
<g>
	<path class="st3" d="M252.6,228.6c0.2,0,0.3,0,0.6,0c0.4-0.1,0.8-0.2,1.1-0.5c0.4-0.3,0.6-0.8,0.7-1.5l0,0
		c-0.3,0.4-0.7,0.6-1.3,0.6c-1,0-1.6-0.8-1.6-1.7c0-1.1,0.7-2,1.8-2s1.8,0.9,1.8,2.4c0,1.2-0.4,2.1-0.9,2.6c-0.4,0.4-1,0.7-1.6,0.8
		c-0.3,0-0.5,0.1-0.7,0L252.6,228.6L252.6,228.6z M253.9,224c-0.6,0-1,0.6-1,1.4c0,0.7,0.4,1.2,1,1.2c0.5,0,0.9-0.3,1.1-0.6
		c0-0.1,0.1-0.2,0.1-0.3C255,224.7,254.7,224,253.9,224L253.9,224z"/>
	<path class="st3" d="M258.1,229.2c-1,0-1.8-1-1.8-2.9s0.8-2.9,1.9-2.9s1.8,1.1,1.8,2.8C260,228.1,259.3,229.2,258.1,229.2
		L258.1,229.2z M258.2,228.6c0.7,0,1.1-0.9,1.1-2.3s-0.3-2.3-1.1-2.3c-0.7,0-1.1,0.9-1.1,2.3S257.5,228.6,258.2,228.6L258.2,228.6z"
		/>
	<path class="st3" d="M261.8,223.4c0.7,0,1.2,0.6,1.2,1.7c0,1.2-0.6,1.8-1.3,1.8c-0.7,0-1.2-0.6-1.3-1.7
		C260.5,224,261.1,223.4,261.8,223.4L261.8,223.4L261.8,223.4z M261.8,223.8c-0.4,0-0.7,0.6-0.7,1.3s0.2,1.3,0.7,1.3
		s0.7-0.5,0.7-1.3C262.5,224.4,262.3,223.8,261.8,223.8L261.8,223.8z M261.7,229.2l3.2-5.8h0.5l-3.2,5.8H261.7z M265.3,225.7
		c0.7,0,1.2,0.6,1.2,1.7c0,1.2-0.6,1.8-1.3,1.8c-0.7,0-1.2-0.6-1.3-1.7C264,226.3,264.6,225.7,265.3,225.7L265.3,225.7L265.3,225.7z
		 M265.3,226.2c-0.4,0-0.7,0.6-0.7,1.3s0.2,1.3,0.7,1.3s0.7-0.5,0.7-1.3S265.8,226.2,265.3,226.2L265.3,226.2z"/>
</g>
<path class="st4" d="M249.4,226.6c0,1.3-1.1,2.4-2.4,2.4s-2.4-1.1-2.4-2.4s1.1-2.4,2.4-2.4C248.4,224.1,249.4,225.2,249.4,226.6"/>
<circle class="st5" cx="247" cy="226.6" r="2.4"/>
<g>
	<path class="st3" d="M252.6,220c0.2,0,0.3,0,0.6,0c0.4-0.1,0.8-0.2,1.1-0.5c0.4-0.3,0.6-0.8,0.7-1.5l0,0c-0.3,0.4-0.7,0.6-1.3,0.6
		c-1,0-1.6-0.8-1.6-1.7c0-1.1,0.7-2,1.8-2s1.8,0.9,1.8,2.4c0,1.2-0.4,2.1-0.9,2.6c-0.4,0.4-1,0.7-1.6,0.8c-0.3,0-0.5,0.1-0.7,0
		L252.6,220L252.6,220z M253.9,215.4c-0.6,0-1,0.6-1,1.4c0,0.7,0.4,1.2,1,1.2c0.5,0,0.9-0.3,1.1-0.6c0-0.1,0.1-0.2,0.1-0.3
		C255,216.1,254.7,215.4,253.9,215.4L253.9,215.4z"/>
	<path class="st3" d="M259.9,214.9v0.5l-2.3,5.1h-0.7l2.3-5l0,0h-2.6v-0.6H259.9L259.9,214.9z"/>
	<path class="st3" d="M261.8,214.8c0.7,0,1.2,0.6,1.2,1.7c0,1.2-0.6,1.8-1.3,1.8c-0.7,0-1.2-0.6-1.3-1.7
		C260.5,215.5,261.1,214.8,261.8,214.8L261.8,214.8L261.8,214.8z M261.8,215.3c-0.4,0-0.7,0.6-0.7,1.3s0.2,1.3,0.7,1.3
		s0.7-0.5,0.7-1.3S262.3,215.3,261.8,215.3L261.8,215.3z M261.7,220.6l3.2-5.8h0.5l-3.2,5.8H261.7z M265.3,217.1
		c0.7,0,1.2,0.6,1.2,1.7c0,1.2-0.6,1.8-1.3,1.8c-0.7,0-1.2-0.6-1.3-1.7C264,217.8,264.6,217.1,265.3,217.1L265.3,217.1L265.3,217.1z
		 M265.3,217.6c-0.4,0-0.7,0.6-0.7,1.3s0.2,1.3,0.7,1.3s0.7-0.5,0.7-1.3C266,218.2,265.8,217.6,265.3,217.6L265.3,217.6z"/>
</g>
<path class="st6" d="M249.4,218c0,1.3-1.1,2.4-2.4,2.4s-2.4-1.1-2.4-2.4s1.1-2.4,2.4-2.4S249.4,216.7,249.4,218"/>
<circle class="st5" cx="247" cy="218" r="2.4"/>
<g>
	<path class="st3" d="M284.9,214.9v0.5l-2.3,5.1h-0.7l2.3-5l0,0h-2.6v-0.6H284.9L284.9,214.9z"/>
	<path class="st3" d="M288.8,215.6h-2l-0.2,1.4c0.1,0,0.2,0,0.4,0c0.4,0,0.8,0.1,1.2,0.3c0.4,0.2,0.8,0.7,0.8,1.5
		c0,1.1-0.8,1.9-2,1.9c-0.6,0-1.1-0.2-1.3-0.3l0.2-0.6c0.2,0.1,0.7,0.3,1.2,0.3c0.7,0,1.3-0.5,1.3-1.2s-0.5-1.3-1.5-1.3
		c-0.3,0-0.6,0-0.7,0.1l0.3-2.7h2.6L288.8,215.6L288.8,215.6z"/>
	<path class="st3" d="M291,214.8c0.7,0,1.2,0.6,1.2,1.7c0,1.2-0.6,1.8-1.3,1.8s-1.2-0.6-1.3-1.7C289.7,215.5,290.3,214.8,291,214.8
		L291,214.8L291,214.8z M291,215.3c-0.4,0-0.7,0.6-0.7,1.3s0.2,1.3,0.7,1.3s0.7-0.5,0.7-1.3S291.5,215.3,291,215.3L291,215.3z
		 M290.9,220.6l3.2-5.8h0.5l-3.2,5.8H290.9z M294.5,217.1c0.7,0,1.2,0.6,1.2,1.7c0,1.2-0.6,1.8-1.3,1.8s-1.2-0.6-1.3-1.7
		C293.2,217.8,293.8,217.1,294.5,217.1L294.5,217.1L294.5,217.1z M294.5,217.6c-0.4,0-0.7,0.6-0.7,1.3s0.2,1.3,0.7,1.3
		s0.7-0.5,0.7-1.3C295.2,218.2,295,217.6,294.5,217.6L294.5,217.6z"/>
</g>
<path class="st7" d="M278.6,218c0,1.3-1.1,2.4-2.4,2.4s-2.4-1.1-2.4-2.4s1.1-2.4,2.4-2.4S278.6,216.7,278.6,218"/>
<circle class="st5" cx="276.2" cy="218" r="2.4"/>
<g>
	<path class="st3" d="M284.6,224.1h-2l-0.2,1.4c0.1,0,0.2,0,0.4,0c0.4,0,0.8,0.1,1.2,0.3c0.4,0.2,0.8,0.7,0.8,1.5
		c0,1.1-0.8,1.9-2,1.9c-0.6,0-1.1-0.2-1.3-0.3l0.2-0.6c0.2,0.1,0.7,0.3,1.2,0.3c0.7,0,1.3-0.5,1.3-1.2s-0.5-1.3-1.5-1.3
		c-0.3,0-0.6,0-0.7,0.1l0.3-2.7h2.6L284.6,224.1L284.6,224.1z"/>
	<path class="st3" d="M287.3,229.2c-1,0-1.8-1-1.8-2.9s0.8-2.9,1.9-2.9s1.8,1.1,1.8,2.8C289.2,228.1,288.5,229.2,287.3,229.2
		L287.3,229.2z M287.4,228.6c0.7,0,1.1-0.9,1.1-2.3s-0.3-2.3-1.1-2.3c-0.7,0-1.1,0.9-1.1,2.3C286.2,227.7,286.7,228.6,287.4,228.6
		L287.4,228.6z"/>
	<path class="st3" d="M291,223.4c0.7,0,1.2,0.6,1.2,1.7c0,1.2-0.6,1.8-1.3,1.8s-1.2-0.6-1.3-1.7C289.7,224,290.3,223.4,291,223.4
		L291,223.4L291,223.4z M291,223.8c-0.4,0-0.7,0.6-0.7,1.3s0.2,1.3,0.7,1.3s0.7-0.5,0.7-1.3C291.7,224.4,291.5,223.8,291,223.8
		L291,223.8z M290.9,229.2l3.2-5.8h0.5l-3.2,5.8H290.9z M294.5,225.7c0.7,0,1.2,0.6,1.2,1.7c0,1.2-0.6,1.8-1.3,1.8s-1.2-0.6-1.3-1.7
		C293.2,226.3,293.8,225.7,294.5,225.7L294.5,225.7L294.5,225.7z M294.5,226.2c-0.4,0-0.7,0.6-0.7,1.3s0.2,1.3,0.7,1.3
		s0.7-0.5,0.7-1.3S295,226.2,294.5,226.2L294.5,226.2z"/>
</g>
<g>
	<path class="st3" d="M247,200.6c0-0.4,0-0.8,0-1.1h0.6v0.7l0,0c0.2-0.4,0.7-0.8,1.3-0.8s1.4,0.3,1.4,1.8v2.5h-0.6v-2.4
		c0-0.7-0.2-1.2-0.9-1.2c-0.5,0-0.8,0.4-1,0.8c0,0.1,0,0.2,0,0.4v2.5h-0.7L247,200.6L247,200.6z"/>
	<path class="st3" d="M254.9,202.5c0,0.4,0,0.8,0,1.1h-0.6v-0.7l0,0c-0.2,0.3-0.6,0.8-1.3,0.8c-0.6,0-1.4-0.4-1.4-1.8v-2.4h0.7v2.3
		c0,0.8,0.2,1.3,0.9,1.3c0.5,0,0.8-0.4,1-0.7c0-0.1,0.1-0.2,0.1-0.4v-2.6h0.7L254.9,202.5L254.9,202.5z"/>
	<path class="st3" d="M259,203.5c-0.2,0.1-0.6,0.2-1.1,0.2c-1.2,0-2-0.9-2-2.1s0.8-2.2,2.1-2.2c0.4,0,0.8,0.1,1,0.2l-0.2,0.6
		c-0.2-0.1-0.4-0.2-0.8-0.2c-0.9,0-1.4,0.7-1.4,1.6c0,1,0.6,1.6,1.4,1.6c0.4,0,0.7-0.1,0.9-0.2L259,203.5z"/>
	<path class="st3" d="M259.8,197.5h0.7v6.1h-0.7V197.5z"/>
	<path class="st3" d="M262.2,201.7c0,1,0.6,1.5,1.4,1.5c0.5,0,0.8-0.1,1.1-0.2l0.1,0.5c-0.3,0.1-0.7,0.3-1.3,0.3c-1.2,0-2-0.9-2-2.1
		c0-1.3,0.7-2.3,1.9-2.3c1.3,0,1.6,1.2,1.6,2c0,0.2,0,0.3,0,0.4L262.2,201.7z M264.3,201.1c0-0.5-0.2-1.2-1-1.2
		c-0.7,0-1.1,0.7-1.1,1.2H264.3z"/>
	<path class="st3" d="M267.5,203.7c-1.1,0-1.9-0.8-1.9-2.2s0.9-2.2,2-2.2s1.9,0.9,1.9,2.1C269.5,203.1,268.5,203.7,267.5,203.7
		L267.5,203.7z M267.5,203.2c0.7,0,1.2-0.7,1.2-1.6c0-0.7-0.3-1.6-1.2-1.6c-0.8,0-1.2,0.8-1.2,1.6
		C266.3,202.5,266.8,203.2,267.5,203.2L267.5,203.2z"/>
	<path class="st3" d="M271.3,198.5v1h1v0.6h-1v2.3c0,0.5,0.1,0.8,0.5,0.8c0.2,0,0.3,0,0.4-0.1v0.6c-0.1,0.1-0.4,0.1-0.6,0.1
		c-0.3,0-0.6-0.1-0.8-0.3c-0.2-0.2-0.3-0.6-0.3-1.1v-2.3h-0.6v-0.6h0.6v-0.8L271.3,198.5z"/>
	<path class="st3" d="M273.5,198.7c-0.3,0-0.5-0.2-0.5-0.5s0.2-0.5,0.5-0.5s0.5,0.2,0.5,0.5S273.8,198.7,273.5,198.7L273.5,198.7z
		 M273.1,203.7v-4.2h0.7v4.2H273.1z"/>
	<path class="st3" d="M278.5,197.5v5.1c0,0.4,0,0.8,0,1.1h-0.7V203l0,0c-0.2,0.5-0.7,0.8-1.4,0.8c-1,0-1.7-0.9-1.7-2.1
		c0-1.4,0.8-2.2,1.8-2.2c0.6,0,1,0.3,1.2,0.6l0,0v-2.5h0.8L278.5,197.5L278.5,197.5z M277.8,201.2c0-0.1,0-0.2,0-0.3
		c-0.1-0.5-0.5-0.9-1-0.9c-0.7,0-1.2,0.7-1.2,1.6c0,0.9,0.4,1.6,1.2,1.6c0.5,0,0.9-0.3,1.1-0.9c0-0.1,0-0.2,0-0.3L277.8,201.2
		L277.8,201.2z"/>
	<path class="st3" d="M280.1,201.7c0,1,0.6,1.5,1.4,1.5c0.5,0,0.8-0.1,1.1-0.2l0.1,0.5c-0.3,0.1-0.7,0.3-1.3,0.3c-1.2,0-2-0.9-2-2.1
		c0-1.3,0.7-2.3,1.9-2.3c1.3,0,1.6,1.2,1.6,2c0,0.2,0,0.3,0,0.4L280.1,201.7z M282.2,201.1c0-0.5-0.2-1.2-1-1.2
		c-0.7,0-1.1,0.7-1.1,1.2H282.2z"/>
</g>
<g>
	<path class="st3" d="M252.2,209c0-0.5,0-1,0-1.4h0.7v0.7l0,0c0.3-0.5,0.8-0.8,1.4-0.8c1,0,1.7,0.9,1.7,2.1c0,1.5-0.9,2.2-1.8,2.2
		c-0.5,0-1-0.2-1.2-0.7l0,0v2.3h-0.7V209L252.2,209L252.2,209z M252.9,210.2c0,0.1,0,0.2,0,0.3c0.1,0.5,0.6,0.9,1.1,0.9
		c0.8,0,1.2-0.7,1.2-1.6c0-0.8-0.4-1.6-1.2-1.6c-0.5,0-1,0.4-1.1,0.9c0,0.1,0,0.2,0,0.3V210.2z"/>
	<path class="st3" d="M256.9,209c0-0.5,0-0.9,0-1.3h0.6v0.8l0,0c0.2-0.6,0.6-0.9,1.1-0.9c0.1,0,0.1,0,0.2,0v0.7c-0.1,0-0.2,0-0.3,0
		c-0.5,0-0.9,0.4-1,1c0,0.1,0,0.2,0,0.4v2.2h-0.7L256.9,209z"/>
	<path class="st3" d="M260,209.9c0,1,0.6,1.5,1.4,1.5c0.5,0,0.8-0.1,1.1-0.2l0.1,0.5c-0.3,0.1-0.7,0.3-1.3,0.3c-1.2,0-2-0.9-2-2.1
		c0-1.3,0.7-2.3,1.9-2.3c1.3,0,1.6,1.2,1.6,2c0,0.2,0,0.3,0,0.4L260,209.9z M262.1,209.4c0-0.5-0.2-1.2-1-1.2
		c-0.7,0-1.1,0.7-1.1,1.2H262.1z"/>
	<path class="st3" d="M263.6,211.1c0.2,0.1,0.6,0.3,1,0.3c0.5,0,0.8-0.3,0.8-0.6c0-0.4-0.2-0.6-0.7-0.8c-0.7-0.3-1.1-0.7-1.1-1.2
		c0-0.7,0.5-1.2,1.4-1.2c0.4,0,0.8,0.1,1,0.3l-0.2,0.5c-0.2-0.1-0.4-0.2-0.8-0.2s-0.7,0.3-0.7,0.6c0,0.4,0.2,0.5,0.7,0.7
		c0.7,0.3,1,0.6,1,1.3s-0.6,1.3-1.5,1.3c-0.4,0-0.8-0.1-1.1-0.3L263.6,211.1z"/>
	<path class="st3" d="M267.4,209.9c0,1,0.6,1.5,1.4,1.5c0.5,0,0.8-0.1,1.1-0.2l0.1,0.5c-0.3,0.1-0.7,0.3-1.3,0.3c-1.2,0-2-0.9-2-2.1
		c0-1.3,0.7-2.3,1.9-2.3c1.3,0,1.6,1.2,1.6,2c0,0.2,0,0.3,0,0.4L267.4,209.9z M269.5,209.4c0-0.5-0.2-1.2-1-1.2
		c-0.7,0-1.1,0.7-1.1,1.2H269.5z"/>
	<path class="st3" d="M271.1,208.8c0-0.4,0-0.8,0-1.1h0.6v0.7l0,0c0.2-0.4,0.7-0.8,1.3-0.8s1.4,0.3,1.4,1.8v2.5h-0.7v-2.4
		c0-0.7-0.2-1.2-0.9-1.2c-0.5,0-0.8,0.4-1,0.8c0,0.1,0,0.2,0,0.4v2.5h-0.7V208.8L271.1,208.8z"/>
	<path class="st3" d="M276.5,206.7v1h1v0.6h-1v2.3c0,0.5,0.1,0.8,0.5,0.8c0.2,0,0.3,0,0.4-0.1v0.6c-0.1,0.1-0.4,0.1-0.6,0.1
		c-0.3,0-0.6-0.1-0.8-0.3c-0.2-0.2-0.3-0.6-0.3-1.1v-2.3h-0.6v-0.6h0.6v-0.8L276.5,206.7z"/>
</g>
<g>
	<path class="st3" d="M304,200.6c0-0.4,0-0.8,0-1.1h0.6v0.7l0,0c0.2-0.4,0.7-0.8,1.3-0.8s1.4,0.3,1.4,1.8v2.5h-0.6v-2.4
		c0-0.7-0.2-1.2-0.9-1.2c-0.5,0-0.8,0.4-1,0.8c0,0.1,0,0.2,0,0.4v2.5h-0.7L304,200.6L304,200.6z"/>
	<path class="st3" d="M311.9,202.5c0,0.4,0,0.8,0,1.1h-0.6v-0.7l0,0c-0.2,0.3-0.6,0.8-1.3,0.8c-0.6,0-1.4-0.4-1.4-1.8v-2.4h0.7v2.3
		c0,0.8,0.2,1.3,0.9,1.3c0.5,0,0.8-0.4,1-0.7c0-0.1,0.1-0.2,0.1-0.4v-2.6h0.7L311.9,202.5L311.9,202.5z"/>
	<path class="st3" d="M316,203.5c-0.2,0.1-0.6,0.2-1.1,0.2c-1.2,0-2-0.9-2-2.1s0.8-2.2,2.1-2.2c0.4,0,0.8,0.1,1,0.2l-0.2,0.6
		c-0.2-0.1-0.4-0.2-0.8-0.2c-0.9,0-1.4,0.7-1.4,1.6c0,1,0.6,1.6,1.4,1.6c0.4,0,0.7-0.1,0.9-0.2L316,203.5z"/>
	<path class="st3" d="M316.8,197.5h0.7v6.1h-0.7V197.5z"/>
	<path class="st3" d="M319.2,201.7c0,1,0.6,1.5,1.4,1.5c0.5,0,0.8-0.1,1.1-0.2l0.1,0.5c-0.3,0.1-0.7,0.3-1.3,0.3c-1.2,0-2-0.9-2-2.1
		c0-1.3,0.7-2.3,1.9-2.3c1.3,0,1.6,1.2,1.6,2c0,0.2,0,0.3,0,0.4L319.2,201.7z M321.3,201.1c0-0.5-0.2-1.2-1-1.2
		c-0.7,0-1.1,0.7-1.1,1.2H321.3z"/>
	<path class="st3" d="M324.5,203.7c-1.1,0-1.9-0.8-1.9-2.2s0.9-2.2,2-2.2s1.9,0.9,1.9,2.1C326.5,203.1,325.5,203.7,324.5,203.7
		L324.5,203.7z M324.5,203.2c0.7,0,1.2-0.7,1.2-1.6c0-0.7-0.3-1.6-1.2-1.6c-0.8,0-1.2,0.8-1.2,1.6
		C323.3,202.5,323.8,203.2,324.5,203.2L324.5,203.2z"/>
	<path class="st3" d="M328.3,198.5v1h1v0.6h-1v2.3c0,0.5,0.1,0.8,0.5,0.8c0.2,0,0.3,0,0.4-0.1v0.6c-0.1,0.1-0.4,0.1-0.6,0.1
		c-0.3,0-0.6-0.1-0.8-0.3c-0.2-0.2-0.3-0.6-0.3-1.1v-2.3h-0.6v-0.6h0.6v-0.8L328.3,198.5z"/>
	<path class="st3" d="M330.5,198.7c-0.3,0-0.5-0.2-0.5-0.5s0.2-0.5,0.5-0.5s0.5,0.2,0.5,0.5S330.8,198.7,330.5,198.7L330.5,198.7z
		 M330.1,203.7v-4.2h0.7v4.2H330.1z"/>
	<path class="st3" d="M335.5,197.5v5.1c0,0.4,0,0.8,0,1.1h-0.7V203l0,0c-0.2,0.5-0.7,0.8-1.4,0.8c-1,0-1.7-0.9-1.7-2.1
		c0-1.4,0.8-2.2,1.8-2.2c0.6,0,1,0.3,1.2,0.6l0,0v-2.5h0.8L335.5,197.5L335.5,197.5z M334.8,201.2c0-0.1,0-0.2,0-0.3
		c-0.1-0.5-0.5-0.9-1-0.9c-0.7,0-1.2,0.7-1.2,1.6c0,0.9,0.4,1.6,1.2,1.6c0.5,0,0.9-0.3,1.1-0.9c0-0.1,0-0.2,0-0.3v-0.8L334.8,201.2
		L334.8,201.2z"/>
	<path class="st3" d="M337.1,201.7c0,1,0.6,1.5,1.4,1.5c0.5,0,0.8-0.1,1.1-0.2l0.1,0.5c-0.3,0.1-0.7,0.3-1.3,0.3c-1.2,0-2-0.9-2-2.1
		c0-1.3,0.7-2.3,1.9-2.3c1.3,0,1.6,1.2,1.6,2c0,0.2,0,0.3,0,0.4L337.1,201.7z M339.2,201.1c0-0.5-0.2-1.2-1-1.2
		c-0.7,0-1.1,0.7-1.1,1.2H339.2z"/>
</g>
<g>
	<path class="st3" d="M309.6,206.9c-0.3,0-0.5-0.2-0.5-0.5s0.2-0.5,0.5-0.5s0.5,0.2,0.5,0.5S309.9,206.9,309.6,206.9L309.6,206.9z
		 M309.2,211.9v-4.2h0.7v4.2H309.2z"/>
	<path class="st3" d="M314.6,205.7v5.1c0,0.4,0,0.8,0,1.1h-0.7v-0.7l0,0c-0.2,0.5-0.7,0.8-1.4,0.8c-1,0-1.7-0.9-1.7-2.1
		c0-1.4,0.8-2.2,1.8-2.2c0.6,0,1,0.3,1.2,0.6l0,0v-2.5L314.6,205.7L314.6,205.7z M313.9,209.4c0-0.1,0-0.2,0-0.3
		c-0.1-0.5-0.5-0.9-1-0.9c-0.7,0-1.2,0.7-1.2,1.6s0.4,1.6,1.2,1.6c0.5,0,0.9-0.3,1.1-0.9c0-0.1,0-0.2,0-0.3v-0.8L313.9,209.4
		L313.9,209.4z"/>
	<path class="st3" d="M316.2,209.9c0,1,0.6,1.5,1.4,1.5c0.5,0,0.8-0.1,1.1-0.2l0.1,0.5c-0.3,0.1-0.7,0.3-1.3,0.3c-1.2,0-2-0.9-2-2.1
		c0-1.3,0.7-2.3,1.9-2.3c1.3,0,1.6,1.2,1.6,2c0,0.2,0,0.3,0,0.4L316.2,209.9z M318.3,209.4c0-0.5-0.2-1.2-1-1.2
		c-0.7,0-1.1,0.7-1.1,1.2H318.3z"/>
	<path class="st3" d="M319.9,208.8c0-0.4,0-0.8,0-1.1h0.6v0.7l0,0c0.2-0.4,0.7-0.8,1.3-0.8s1.4,0.3,1.4,1.8v2.5h-0.7v-2.4
		c0-0.7-0.2-1.2-0.9-1.2c-0.5,0-0.8,0.4-1,0.8c0,0.1,0,0.2,0,0.4v2.5h-0.7L319.9,208.8L319.9,208.8z"/>
	<path class="st3" d="M325.3,206.7v1h1v0.6h-1v2.3c0,0.5,0.1,0.8,0.5,0.8c0.2,0,0.3,0,0.4-0.1v0.6c-0.1,0.1-0.4,0.1-0.6,0.1
		c-0.3,0-0.6-0.1-0.8-0.3c-0.2-0.2-0.3-0.6-0.3-1.1v-2.3h-0.6v-0.6h0.6v-0.8L325.3,206.7z"/>
	<path class="st3" d="M327.5,206.9c-0.3,0-0.5-0.2-0.5-0.5s0.2-0.5,0.5-0.5s0.5,0.2,0.5,0.5S327.8,206.9,327.5,206.9L327.5,206.9z
		 M327.2,211.9v-4.2h0.7v4.2H327.2z"/>
	<path class="st3" d="M330,206.7v1h1v0.6h-1v2.3c0,0.5,0.1,0.8,0.5,0.8c0.2,0,0.3,0,0.4-0.1v0.6c-0.1,0.1-0.4,0.1-0.6,0.1
		c-0.3,0-0.6-0.1-0.8-0.3c-0.2-0.2-0.3-0.6-0.3-1.1v-2.3h-0.5v-0.6h0.6v-0.8L330,206.7z"/>
	<path class="st3" d="M332.2,207.7l0.9,2.5c0.1,0.3,0.2,0.6,0.3,0.9l0,0c0.1-0.3,0.2-0.6,0.3-0.9l0.8-2.5h0.8l-1.1,3
		c-0.5,1.4-0.9,2.2-1.4,2.6c-0.4,0.3-0.7,0.4-0.9,0.5l-0.2-0.6c0.2-0.1,0.4-0.2,0.6-0.4s0.4-0.5,0.6-0.8c0-0.1,0.1-0.1,0.1-0.2
		c0,0,0-0.1-0.1-0.2l-1.5-3.9C331.4,207.7,332.2,207.7,332.2,207.7z"/>
</g>
<g>
	<path class="st3" d="M329.5,234.8v0.5l-2.3,5.1h-0.7l2.3-5l0,0h-2.6v-0.6H329.5L329.5,234.8z"/>
	<path class="st3" d="M333.5,235.5h-2l-0.2,1.4c0.1,0,0.2,0,0.4,0c0.4,0,0.8,0.1,1.2,0.3c0.4,0.2,0.8,0.7,0.8,1.5
		c0,1.1-0.8,1.9-2,1.9c-0.6,0-1.1-0.2-1.3-0.3l0.2-0.6c0.2,0.1,0.7,0.3,1.2,0.3c0.7,0,1.3-0.5,1.3-1.2s-0.5-1.3-1.5-1.3
		c-0.3,0-0.6,0-0.8,0.1l0.3-2.7h2.6L333.5,235.5L333.5,235.5z"/>
	<path class="st3" d="M335.7,234.7c0.7,0,1.2,0.6,1.2,1.7c0,1.2-0.6,1.8-1.3,1.8c-0.7,0-1.2-0.6-1.3-1.7
		C334.4,235.4,335,234.7,335.7,234.7L335.7,234.7L335.7,234.7z M335.7,235.2c-0.4,0-0.7,0.6-0.7,1.3s0.2,1.3,0.7,1.3
		s0.7-0.5,0.7-1.3C336.4,235.8,336.2,235.2,335.7,235.2L335.7,235.2z M335.6,240.5l3.2-5.8h0.5l-3.2,5.8H335.6z M339.2,237.1
		c0.7,0,1.2,0.6,1.2,1.7c0,1.2-0.6,1.8-1.3,1.8c-0.7,0-1.2-0.6-1.3-1.7C337.9,237.7,338.5,237.1,339.2,237.1L339.2,237.1
		L339.2,237.1z M339.1,237.5c-0.4,0-0.7,0.6-0.7,1.3s0.2,1.3,0.7,1.3s0.7-0.5,0.7-1.3C339.9,238.1,339.7,237.5,339.1,237.5
		L339.1,237.5z"/>
</g>
<g>
	<path class="st8" d="M309,240.4v-5.8h0.8l1.8,2.9c0.4,0.7,0.7,1.3,1,1.9l0,0c-0.1-0.8-0.1-1.5-0.1-2.4v-2.4h0.7v5.8h-0.7l-1.8-3
		c-0.4-0.6-0.8-1.3-1-1.9l0,0c0,0.7,0,1.4,0,2.4v2.5H309L309,240.4z"/>
</g>
<g>
	<path class="st9" d="M309,223v-5.8h0.8l1.8,2.9c0.4,0.7,0.7,1.3,1,1.9l0,0c-0.1-0.8-0.1-1.5-0.1-2.4v-2.4h0.7v5.8h-0.7l-1.8-3
		c-0.4-0.6-0.8-1.3-1-1.9l0,0c0,0.7,0,1.4,0,2.4v2.5H309L309,223z"/>
</g>
<g>
	<path class="st3" d="M326.5,222.4c0.2,0,0.3,0,0.6,0c0.4-0.1,0.8-0.2,1.1-0.5c0.4-0.3,0.6-0.8,0.7-1.5l0,0
		c-0.3,0.4-0.7,0.6-1.3,0.6c-1,0-1.6-0.8-1.6-1.7c0-1.1,0.7-2,1.8-2s1.8,0.9,1.8,2.4c0,1.2-0.4,2.1-0.9,2.6c-0.4,0.4-1,0.7-1.6,0.8
		c-0.3,0-0.5,0.1-0.7,0L326.5,222.4L326.5,222.4z M327.8,217.8c-0.6,0-1,0.6-1,1.4c0,0.7,0.4,1.2,1,1.2c0.5,0,0.9-0.2,1.1-0.6
		c0-0.1,0.1-0.2,0.1-0.3C328.9,218.6,328.6,217.8,327.8,217.8L327.8,217.8L327.8,217.8z"/>
	<path class="st3" d="M333.8,217.3v0.5l-2.3,5.1h-0.8l2.3-5l0,0h-2.6v-0.6H333.8L333.8,217.3z"/>
	<path class="st3" d="M335.7,217.2c0.7,0,1.2,0.6,1.2,1.7c0,1.2-0.6,1.8-1.3,1.8c-0.7,0-1.2-0.6-1.3-1.7
		C334.4,217.9,335,217.3,335.7,217.2L335.7,217.2L335.7,217.2z M335.7,217.7c-0.4,0-0.7,0.6-0.7,1.3s0.2,1.3,0.7,1.3
		s0.7-0.5,0.7-1.3C336.4,218.3,336.2,217.7,335.7,217.7L335.7,217.7z M335.6,223.1l3.2-5.8h0.5l-3.2,5.8H335.6z M339.2,219.6
		c0.7,0,1.2,0.6,1.2,1.7c0,1.2-0.6,1.8-1.3,1.8c-0.7,0-1.2-0.6-1.3-1.7C337.9,220.2,338.5,219.6,339.2,219.6L339.2,219.6
		L339.2,219.6z M339.1,220c-0.4,0-0.7,0.6-0.7,1.3s0.2,1.3,0.7,1.3s0.7-0.5,0.7-1.3C339.9,220.6,339.7,220,339.1,220L339.1,220z"/>
</g>
<g>
	<path class="st3" d="M309,231.7v-5.8h0.8l1.8,2.9c0.4,0.7,0.7,1.3,1,1.9l0,0c-0.1-0.8-0.1-1.5-0.1-2.4v-2.4h0.7v5.8h-0.7l-1.8-3
		c-0.4-0.6-0.8-1.3-1-1.9l0,0c0,0.7,0,1.4,0,2.4v2.5H309L309,231.7z"/>
</g>
<g>
	<path class="st3" d="M326.5,231.2c0.2,0,0.3,0,0.6,0c0.4-0.1,0.8-0.2,1.1-0.5c0.4-0.3,0.6-0.8,0.7-1.5l0,0
		c-0.3,0.4-0.7,0.6-1.3,0.6c-1,0-1.6-0.8-1.6-1.7c0-1.1,0.7-2,1.8-2s1.8,0.9,1.8,2.4c0,1.2-0.4,2.1-0.9,2.6c-0.4,0.4-1,0.7-1.6,0.8
		c-0.3,0-0.5,0.1-0.7,0L326.5,231.2L326.5,231.2z M327.8,226.6c-0.6,0-1,0.6-1,1.4c0,0.7,0.4,1.2,1,1.2c0.5,0,0.9-0.2,1.1-0.6
		c0-0.1,0.1-0.2,0.1-0.3C328.9,227.3,328.6,226.6,327.8,226.6L327.8,226.6L327.8,226.6z"/>
	<path class="st3" d="M332,231.8c-1,0-1.8-1-1.8-2.9s0.8-2.9,1.9-2.9s1.8,1.1,1.8,2.8C333.9,230.7,333.2,231.8,332,231.8L332,231.8z
		 M332,231.2c0.7,0,1.1-0.9,1.1-2.3s-0.3-2.3-1.1-2.3c-0.7,0-1.1,0.9-1.1,2.3S331.3,231.2,332,231.2L332,231.2z"/>
	<path class="st3" d="M335.7,226c0.7,0,1.2,0.6,1.2,1.7c0,1.2-0.6,1.8-1.3,1.8c-0.7,0-1.2-0.6-1.3-1.7
		C334.4,226.6,335,226,335.7,226L335.7,226L335.7,226z M335.7,226.4c-0.4,0-0.7,0.6-0.7,1.3s0.2,1.3,0.7,1.3s0.7-0.5,0.7-1.3
		C336.4,227,336.2,226.4,335.7,226.4L335.7,226.4z M335.6,231.8l3.2-5.8h0.5l-3.2,5.8H335.6z M339.2,228.3c0.7,0,1.2,0.6,1.2,1.7
		c0,1.2-0.6,1.8-1.3,1.8c-0.7,0-1.2-0.6-1.3-1.7C337.9,228.9,338.5,228.3,339.2,228.3L339.2,228.3L339.2,228.3z M339.1,228.8
		c-0.4,0-0.7,0.6-0.7,1.3s0.2,1.3,0.7,1.3s0.7-0.5,0.7-1.3C339.9,229.3,339.7,228.8,339.1,228.8L339.1,228.8z"/>
</g>
<g>
	<path class="st10" d="M263.4,171.3c-0.2,0.1-0.6,0.2-1.1,0.2c-1.2,0-2-0.9-2-2.1s0.8-2.2,2.1-2.2c0.4,0,0.8,0.1,1,0.2l-0.2,0.6
		c-0.2-0.1-0.4-0.2-0.8-0.2c-0.9,0-1.4,0.7-1.4,1.6c0,1,0.6,1.6,1.4,1.6c0.4,0,0.7-0.1,0.9-0.2L263.4,171.3z"/>
	<path class="st10" d="M265.8,171.5c-1.1,0-1.9-0.8-1.9-2.2s0.9-2.2,2-2.2s1.9,0.9,1.9,2.1C267.8,170.8,266.8,171.5,265.8,171.5
		L265.8,171.5z M265.8,170.9c0.7,0,1.2-0.7,1.2-1.6c0-0.7-0.3-1.6-1.2-1.6c-0.8,0-1.2,0.8-1.2,1.6
		C264.6,170.3,265.1,170.9,265.8,170.9L265.8,170.9z"/>
	<path class="st10" d="M268.9,167.2l0.8,2.3c0.1,0.4,0.2,0.7,0.3,1.1l0,0c0.1-0.3,0.2-0.7,0.3-1.1l0.8-2.3h0.8l-1.6,4.2h-0.6
		l-1.5-4.2H268.9z"/>
	<path class="st10" d="M275.3,170.4c0,0.4,0,0.7,0.1,1h-0.7l-0.1-0.5l0,0c-0.2,0.3-0.7,0.6-1.2,0.6c-0.8,0-1.2-0.6-1.2-1.2
		c0-1,0.9-1.6,2.4-1.6v-0.1c0-0.3-0.1-1-0.9-1c-0.4,0-0.8,0.1-1,0.3l-0.2-0.5c0.3-0.2,0.8-0.4,1.3-0.4c1.2,0,1.5,0.9,1.5,1.7
		L275.3,170.4L275.3,170.4z M274.6,169.3c-0.8,0-1.7,0.1-1.7,0.9c0,0.5,0.3,0.7,0.7,0.7c0.5,0,0.9-0.3,1-0.7c0-0.1,0-0.2,0-0.2
		V169.3z"/>
	<path class="st10" d="M276.5,168.5c0-0.5,0-0.9,0-1.3h0.6v0.8l0,0c0.2-0.6,0.6-0.9,1.1-0.9c0.1,0,0.1,0,0.2,0v0.7
		c-0.1,0-0.2,0-0.3,0c-0.5,0-0.9,0.4-1,1c0,0.1,0,0.2,0,0.4v2.2h-0.7L276.5,168.5z"/>
	<path class="st10" d="M279.6,167.2l0.9,2.5c0.1,0.3,0.2,0.6,0.3,0.9l0,0c0.1-0.3,0.2-0.6,0.3-0.9l0.8-2.5h0.8l-1.1,3
		c-0.5,1.4-0.9,2.2-1.4,2.6c-0.4,0.3-0.7,0.4-0.9,0.5l-0.2-0.6c0.2-0.1,0.4-0.2,0.6-0.4s0.4-0.5,0.6-0.8c0-0.1,0.1-0.1,0.1-0.2
		c0,0,0-0.1-0.1-0.2l-1.5-3.9C278.8,167.2,279.6,167.2,279.6,167.2z"/>
	<path class="st10" d="M283.6,166.5c-0.3,0-0.5-0.2-0.5-0.5s0.2-0.5,0.5-0.5s0.5,0.2,0.5,0.5C284.1,166.2,283.9,166.5,283.6,166.5
		L283.6,166.5z M283.2,171.4v-4.2h0.7v4.2H283.2z"/>
	<path class="st10" d="M285.2,168.4c0-0.4,0-0.8,0-1.1h0.6v0.7l0,0c0.2-0.4,0.7-0.8,1.3-0.8c0.6,0,1.4,0.3,1.4,1.8v2.5h-0.7v-2.4
		c0-0.7-0.2-1.2-0.9-1.2c-0.5,0-0.8,0.4-1,0.8c0,0.1,0,0.2,0,0.4v2.5h-0.7L285.2,168.4L285.2,168.4z"/>
	<path class="st10" d="M293.1,170.8c0,1-0.2,1.5-0.6,1.9s-1,0.5-1.5,0.5s-1-0.1-1.3-0.3l0.2-0.6c0.3,0.2,0.7,0.3,1.2,0.3
		c0.7,0,1.3-0.4,1.3-1.5v-0.5l0,0c-0.2,0.4-0.7,0.7-1.3,0.7c-1,0-1.7-0.9-1.7-2c0-1.4,0.9-2.2,1.8-2.2c0.7,0,1.1,0.4,1.2,0.7l0,0
		v-0.6h0.6c0,0.3,0,0.6,0,1.1L293.1,170.8L293.1,170.8z M292.4,168.9c0-0.1,0-0.2,0-0.3c-0.1-0.4-0.5-0.8-1-0.8
		c-0.7,0-1.2,0.6-1.2,1.6c0,0.8,0.4,1.5,1.2,1.5c0.5,0,0.9-0.3,1-0.8c0-0.1,0.1-0.3,0.1-0.4L292.4,168.9L292.4,168.9z"/>
	<path class="st10" d="M296.1,168.4c0-0.4,0-0.8,0-1.1h0.6v0.7l0,0c0.2-0.4,0.6-0.8,1.3-0.8c0.5,0,0.9,0.3,1.1,0.8l0,0
		c0.1-0.2,0.3-0.4,0.5-0.5c0.2-0.2,0.5-0.3,0.9-0.3c0.5,0,1.3,0.4,1.3,1.8v2.5h-0.7v-2.4c0-0.8-0.3-1.3-0.9-1.3
		c-0.4,0-0.7,0.3-0.9,0.7c0,0.1-0.1,0.3-0.1,0.4v2.6h-0.7V169c0-0.7-0.3-1.1-0.8-1.1c-0.4,0-0.8,0.4-0.9,0.8c0,0.1-0.1,0.2-0.1,0.4
		v2.5H296L296.1,168.4L296.1,168.4z"/>
	<path class="st10" d="M306.3,170.3c0,0.4,0,0.8,0,1.1h-0.6v-0.7l0,0c-0.2,0.3-0.6,0.8-1.3,0.8c-0.6,0-1.4-0.4-1.4-1.8v-2.4h0.7v2.3
		c0,0.8,0.2,1.3,0.9,1.3c0.5,0,0.8-0.4,1-0.7c0-0.1,0.1-0.2,0.1-0.4v-2.6h0.7L306.3,170.3L306.3,170.3z"/>
	<path class="st10" d="M308.4,166.2v1h1v0.6h-1v2.3c0,0.5,0.1,0.8,0.5,0.8c0.2,0,0.3,0,0.4-0.1v0.6c-0.1,0.1-0.4,0.1-0.6,0.1
		c-0.3,0-0.6-0.1-0.8-0.3c-0.2-0.2-0.3-0.6-0.3-1.1v-2.3H307v-0.6h0.6v-0.8L308.4,166.2z"/>
	<path class="st10" d="M313,170.4c0,0.4,0,0.7,0.1,1h-0.7l-0.1-0.5l0,0c-0.2,0.3-0.7,0.6-1.2,0.6c-0.8,0-1.2-0.6-1.2-1.2
		c0-1,0.9-1.6,2.4-1.6v-0.1c0-0.3-0.1-1-0.9-1c-0.4,0-0.8,0.1-1,0.3l-0.2-0.5c0.3-0.2,0.8-0.4,1.3-0.4c1.2,0,1.5,0.9,1.5,1.7
		L313,170.4L313,170.4z M312.3,169.3c-0.8,0-1.7,0.1-1.7,0.9c0,0.5,0.3,0.7,0.7,0.7c0.5,0,0.9-0.3,1-0.7c0-0.1,0-0.2,0-0.2V169.3
		L312.3,169.3z"/>
	<path class="st10" d="M315.1,166.2v1h1v0.6h-1v2.3c0,0.5,0.1,0.8,0.5,0.8c0.2,0,0.3,0,0.4-0.1v0.6c-0.1,0.1-0.4,0.1-0.6,0.1
		c-0.3,0-0.6-0.1-0.8-0.3c-0.2-0.2-0.3-0.6-0.3-1.1v-2.3h-0.6v-0.6h0.6v-0.8L315.1,166.2z"/>
	<path class="st10" d="M317.3,166.5c-0.3,0-0.5-0.2-0.5-0.5s0.2-0.5,0.5-0.5s0.5,0.2,0.5,0.5C317.7,166.2,317.5,166.5,317.3,166.5
		L317.3,166.5z M316.9,171.4v-4.2h0.7v4.2H316.9z"/>
	<path class="st10" d="M320.5,171.5c-1.1,0-1.9-0.8-1.9-2.2s0.9-2.2,2-2.2s1.9,0.9,1.9,2.1C322.4,170.8,321.4,171.5,320.5,171.5
		L320.5,171.5z M320.5,170.9c0.7,0,1.2-0.7,1.2-1.6c0-0.7-0.3-1.6-1.2-1.6c-0.8,0-1.2,0.8-1.2,1.6
		C319.3,170.3,319.8,170.9,320.5,170.9L320.5,170.9z"/>
	<path class="st10" d="M323.4,168.4c0-0.4,0-0.8,0-1.1h0.6v0.7l0,0c0.2-0.4,0.7-0.8,1.3-0.8s1.4,0.3,1.4,1.8v2.5H326v-2.4
		c0-0.7-0.2-1.2-0.9-1.2c-0.5,0-0.8,0.4-1,0.8c0,0.1-0.1,0.2-0.1,0.4v2.5h-0.7L323.4,168.4L323.4,168.4z"/>
	<path class="st10" d="M327.8,170.7c0.2,0.1,0.6,0.3,1,0.3c0.5,0,0.8-0.3,0.8-0.6c0-0.4-0.2-0.6-0.7-0.8c-0.7-0.3-1.1-0.7-1.1-1.2
		c0-0.7,0.5-1.2,1.4-1.2c0.4,0,0.8,0.1,1,0.3L330,168c-0.2-0.1-0.4-0.2-0.8-0.2s-0.7,0.3-0.7,0.6c0,0.4,0.2,0.5,0.7,0.7
		c0.7,0.3,1,0.6,1,1.3s-0.6,1.3-1.5,1.3c-0.4,0-0.8-0.1-1.1-0.3L327.8,170.7z"/>
</g>
<g>
	<path class="st10" d="M242.7,157.2h0.7v2.6l0,0c0.3-0.5,0.7-0.8,1.4-0.8c1,0,1.7,0.9,1.7,2.1c0,1.5-0.9,2.2-1.8,2.2
		c-0.6,0-1-0.2-1.3-0.8l0,0v0.7h-0.6c0-0.3,0-0.7,0-1.1L242.7,157.2L242.7,157.2z M243.4,161.6c0,0.1,0,0.2,0,0.3
		c0.1,0.5,0.6,0.9,1.1,0.9c0.8,0,1.2-0.6,1.2-1.6c0-0.8-0.4-1.6-1.2-1.6c-0.5,0-1,0.4-1.1,0.9c0,0.1,0,0.2,0,0.3V161.6z"/>
	<path class="st10" d="M250.2,162.3c0,0.4,0,0.7,0.1,1h-0.7l-0.1-0.5l0,0c-0.2,0.3-0.7,0.6-1.2,0.6c-0.8,0-1.2-0.6-1.2-1.2
		c0-1,0.9-1.6,2.4-1.6v-0.1c0-0.3-0.1-1-0.9-1c-0.4,0-0.8,0.1-1,0.3l-0.2-0.5c0.3-0.2,0.8-0.4,1.3-0.4c1.2,0,1.5,0.9,1.5,1.7
		L250.2,162.3L250.2,162.3z M249.5,161.2c-0.8,0-1.7,0.1-1.7,0.9c0,0.5,0.3,0.7,0.7,0.7c0.5,0,0.9-0.3,1-0.7c0-0.1,0-0.2,0-0.2
		V161.2z"/>
	<path class="st10" d="M251.2,162.6c0.2,0.1,0.6,0.3,1,0.3c0.5,0,0.8-0.3,0.8-0.6c0-0.4-0.2-0.6-0.7-0.8c-0.7-0.3-1.1-0.7-1.1-1.2
		c0-0.7,0.5-1.2,1.4-1.2c0.4,0,0.8,0.1,1,0.3l-0.2,0.5c-0.2-0.1-0.4-0.2-0.8-0.2s-0.7,0.3-0.7,0.6c0,0.4,0.2,0.5,0.7,0.7
		c0.7,0.3,1,0.6,1,1.3s-0.6,1.3-1.5,1.3c-0.4,0-0.8-0.1-1.1-0.3L251.2,162.6z"/>
	<path class="st10" d="M255,161.4c0,1,0.6,1.5,1.4,1.5c0.5,0,0.8-0.1,1.1-0.2l0.1,0.5c-0.3,0.1-0.7,0.3-1.3,0.3c-1.2,0-2-0.9-2-2.1
		c0-1.3,0.7-2.3,1.9-2.3c1.3,0,1.6,1.2,1.6,2c0,0.2,0,0.3,0,0.4L255,161.4z M257.1,160.8c0-0.5-0.2-1.2-1-1.2
		c-0.7,0-1.1,0.7-1.1,1.2H257.1z"/>
	<path class="st10" d="M260.5,160.5c0-0.5,0-1,0-1.4h0.7v0.7l0,0c0.3-0.5,0.8-0.8,1.4-0.8c1,0,1.7,0.9,1.7,2.1
		c0,1.5-0.9,2.2-1.8,2.2c-0.5,0-1-0.2-1.2-0.7l0,0v2.3h-0.7v-4.4L260.5,160.5L260.5,160.5z M261.2,161.6c0,0.1,0,0.2,0,0.3
		c0.1,0.5,0.6,0.9,1.1,0.9c0.8,0,1.2-0.7,1.2-1.6c0-0.8-0.4-1.6-1.2-1.6c-0.5,0-1,0.4-1.1,0.9c0,0.1,0,0.2,0,0.3V161.6z"/>
	<path class="st10" d="M268,162.3c0,0.4,0,0.7,0.1,1h-0.7l-0.1-0.5l0,0c-0.2,0.3-0.7,0.6-1.2,0.6c-0.8,0-1.2-0.6-1.2-1.2
		c0-1,0.9-1.6,2.4-1.6v-0.1c0-0.3-0.1-1-0.9-1c-0.4,0-0.8,0.1-1,0.3l-0.2-0.5c0.3-0.2,0.8-0.4,1.3-0.4c1.2,0,1.5,0.9,1.5,1.7
		L268,162.3L268,162.3z M267.3,161.2c-0.8,0-1.7,0.1-1.7,0.9c0,0.5,0.3,0.7,0.7,0.7c0.5,0,0.9-0.3,1-0.7c0-0.1,0-0.2,0-0.2V161.2z"
		/>
	<path class="st10" d="M269.5,158.4c-0.3,0-0.5-0.2-0.5-0.5s0.2-0.5,0.5-0.5s0.5,0.2,0.5,0.5S269.8,158.4,269.5,158.4L269.5,158.4z
		 M269.1,163.3v-4.2h0.7v4.2H269.1z"/>
	<path class="st10" d="M271.1,160.4c0-0.5,0-0.9,0-1.3h0.6v0.8l0,0c0.2-0.6,0.6-0.9,1.1-0.9c0.1,0,0.1,0,0.2,0v0.7
		c-0.1,0-0.2,0-0.3,0c-0.5,0-0.9,0.4-1,1c0,0.1,0,0.2,0,0.4v2.2H271L271.1,160.4z"/>
	<path class="st10" d="M278.3,162.3c0,0.4,0,0.7,0.1,1h-0.7v-0.5l0,0c-0.2,0.3-0.7,0.6-1.2,0.6c-0.8,0-1.2-0.6-1.2-1.2
		c0-1,0.9-1.6,2.4-1.6v-0.1c0-0.3-0.1-1-0.9-1c-0.4,0-0.8,0.1-1,0.3l-0.2-0.5c0.3-0.2,0.8-0.4,1.3-0.4c1.2,0,1.5,0.9,1.5,1.7
		L278.3,162.3L278.3,162.3z M277.6,161.2c-0.8,0-1.7,0.1-1.7,0.9c0,0.5,0.3,0.7,0.7,0.7c0.5,0,0.9-0.3,1-0.7c0-0.1,0-0.2,0-0.2
		V161.2L277.6,161.2z"/>
	<path class="st10" d="M279.5,160.3c0-0.4,0-0.8,0-1.1h0.6v0.7l0,0c0.2-0.4,0.7-0.8,1.3-0.8s1.4,0.3,1.4,1.8v2.5h-0.7V161
		c0-0.7-0.2-1.2-0.9-1.2c-0.5,0-0.8,0.4-1,0.8c0,0.1,0,0.2,0,0.4v2.5h-0.7L279.5,160.3L279.5,160.3z"/>
	<path class="st10" d="M284.1,160.3c0-0.4,0-0.8,0-1.1h0.6v0.7l0,0c0.2-0.4,0.7-0.8,1.3-0.8s1.4,0.3,1.4,1.8v2.5h-0.7V161
		c0-0.7-0.2-1.2-0.9-1.2c-0.5,0-0.8,0.4-1,0.8c0,0.1,0,0.2,0,0.4v2.5h-0.7V160.3L284.1,160.3z"/>
	<path class="st10" d="M290.3,163.4c-1.1,0-1.9-0.8-1.9-2.2s0.9-2.2,2-2.2s1.9,0.9,1.9,2.1C292.2,162.7,291.2,163.4,290.3,163.4
		L290.3,163.4z M290.3,162.8c0.7,0,1.2-0.7,1.2-1.6c0-0.7-0.3-1.6-1.2-1.6c-0.8,0-1.2,0.8-1.2,1.6
		C289.1,162.2,289.6,162.8,290.3,162.8L290.3,162.8z"/>
	<path class="st10" d="M294,158.1v1h1v0.6h-1v2.3c0,0.5,0.1,0.8,0.5,0.8c0.2,0,0.3,0,0.4-0.1v0.6c-0.1,0.1-0.4,0.1-0.6,0.1
		c-0.3,0-0.6-0.1-0.8-0.3s-0.3-0.6-0.3-1.1v-2.3h-0.5v-0.6h0.6v-0.8L294,158.1z"/>
	<path class="st10" d="M298.7,162.3c0,0.4,0,0.7,0.1,1h-0.7l-0.1-0.5l0,0c-0.2,0.3-0.7,0.6-1.2,0.6c-0.8,0-1.2-0.6-1.2-1.2
		c0-1,0.9-1.6,2.4-1.6v-0.1c0-0.3-0.1-1-0.9-1c-0.4,0-0.8,0.1-1,0.3l-0.2-0.5c0.3-0.2,0.8-0.4,1.3-0.4c1.2,0,1.5,0.9,1.5,1.7
		L298.7,162.3L298.7,162.3z M298,161.2c-0.8,0-1.7,0.1-1.7,0.9c0,0.5,0.3,0.7,0.7,0.7c0.5,0,0.9-0.3,1-0.7c0-0.1,0-0.2,0-0.2V161.2z
		"/>
	<path class="st10" d="M300.7,158.1v1h1v0.6h-1v2.3c0,0.5,0.1,0.8,0.5,0.8c0.2,0,0.3,0,0.4-0.1v0.6c-0.1,0.1-0.4,0.1-0.6,0.1
		c-0.3,0-0.6-0.1-0.8-0.3c-0.2-0.2-0.3-0.6-0.3-1.1v-2.3h-0.6v-0.6h0.6v-0.8L300.7,158.1z"/>
	<path class="st10" d="M302.9,158.4c-0.3,0-0.5-0.2-0.5-0.5s0.2-0.5,0.5-0.5s0.5,0.2,0.5,0.5S303.2,158.4,302.9,158.4L302.9,158.4z
		 M302.6,163.3v-4.2h0.7v4.2H302.6z"/>
	<path class="st10" d="M306.1,163.4c-1.1,0-1.9-0.8-1.9-2.2s0.9-2.2,2-2.2s1.9,0.9,1.9,2.1C308.1,162.7,307.1,163.4,306.1,163.4
		L306.1,163.4z M306.1,162.8c0.7,0,1.2-0.7,1.2-1.6c0-0.7-0.3-1.6-1.2-1.6c-0.8,0-1.2,0.8-1.2,1.6
		C304.9,162.2,305.4,162.8,306.1,162.8L306.1,162.8z"/>
	<path class="st10" d="M309,160.3c0-0.4,0-0.8,0-1.1h0.6v0.7l0,0c0.2-0.4,0.7-0.8,1.3-0.8s1.4,0.3,1.4,1.8v2.5h-0.6V161
		c0-0.7-0.2-1.2-0.9-1.2c-0.5,0-0.8,0.4-1,0.8c0,0.1-0.1,0.2-0.1,0.4v2.5H309V160.3L309,160.3z"/>
	<path class="st10" d="M313.5,162.6c0.2,0.1,0.6,0.3,1,0.3c0.5,0,0.8-0.3,0.8-0.6c0-0.4-0.2-0.6-0.7-0.8c-0.7-0.3-1.1-0.7-1.1-1.2
		c0-0.7,0.5-1.2,1.4-1.2c0.4,0,0.8,0.1,1,0.3l-0.2,0.5c-0.2-0.1-0.4-0.2-0.8-0.2s-0.7,0.3-0.7,0.6c0,0.4,0.2,0.5,0.8,0.7
		c0.7,0.3,1,0.6,1,1.3s-0.6,1.3-1.5,1.3c-0.4,0-0.8-0.1-1.1-0.3L313.5,162.6z"/>
</g>
<g>
	<path class="st10" d="M263.4,178.8c-0.2,0.1-0.6,0.2-1.1,0.2c-1.2,0-2-0.9-2-2.1s0.8-2.2,2.1-2.2c0.4,0,0.8,0.1,1,0.2l-0.2,0.6
		c-0.2-0.1-0.4-0.2-0.8-0.2c-0.9,0-1.4,0.7-1.4,1.6c0,1,0.6,1.6,1.4,1.6c0.4,0,0.7-0.1,0.9-0.2L263.4,178.8z"/>
	<path class="st10" d="M265.8,179.1c-1.1,0-1.9-0.8-1.9-2.2s0.9-2.2,2-2.2s1.9,0.9,1.9,2.1C267.8,178.4,266.8,179.1,265.8,179.1
		L265.8,179.1z M265.8,178.5c0.7,0,1.2-0.7,1.2-1.6c0-0.7-0.3-1.6-1.2-1.6c-0.8,0-1.2,0.8-1.2,1.6
		C264.6,177.8,265.1,178.5,265.8,178.5L265.8,178.5z"/>
	<path class="st10" d="M268.7,175.9c0-0.4,0-0.8,0-1.1h0.6v0.7l0,0c0.2-0.4,0.6-0.8,1.3-0.8c0.5,0,0.9,0.3,1.1,0.8l0,0
		c0.1-0.2,0.3-0.4,0.5-0.5c0.2-0.2,0.5-0.3,0.9-0.3c0.5,0,1.3,0.4,1.3,1.8v2.5h-0.7v-2.4c0-0.8-0.3-1.3-0.9-1.3
		c-0.4,0-0.7,0.3-0.9,0.7c0,0.1-0.1,0.3-0.1,0.4v2.6h-0.7v-2.5c0-0.7-0.3-1.1-0.8-1.1c-0.4,0-0.8,0.4-0.9,0.8c0,0.1-0.1,0.2-0.1,0.4
		v2.5h-0.6V175.9L268.7,175.9z"/>
	<path class="st10" d="M275.6,176.2c0-0.5,0-1,0-1.4h0.7v0.7l0,0c0.3-0.5,0.8-0.8,1.4-0.8c1,0,1.7,0.9,1.7,2.1
		c0,1.5-0.9,2.2-1.8,2.2c-0.5,0-1-0.2-1.2-0.7l0,0v2.3h-0.7L275.6,176.2L275.6,176.2z M276.3,177.3c0,0.1,0,0.2,0,0.3
		c0.1,0.5,0.6,0.9,1.1,0.9c0.8,0,1.2-0.7,1.2-1.6c0-0.8-0.4-1.6-1.2-1.6c-0.5,0-1,0.4-1.1,0.9c0,0.1,0,0.2,0,0.3V177.3z"/>
	<path class="st10" d="M283.1,178c0,0.4,0,0.7,0.1,1h-0.7l-0.1-0.5l0,0c-0.2,0.3-0.7,0.6-1.2,0.6c-0.8,0-1.2-0.6-1.2-1.2
		c0-1,0.9-1.6,2.4-1.6v-0.1c0-0.3-0.1-1-0.9-1c-0.4,0-0.8,0.1-1,0.3l-0.2-0.5c0.3-0.2,0.8-0.4,1.3-0.4c1.2,0,1.5,0.9,1.5,1.7
		L283.1,178L283.1,178z M282.4,176.9c-0.8,0-1.7,0.1-1.7,0.9c0,0.5,0.3,0.7,0.7,0.7c0.5,0,0.9-0.3,1-0.7c0-0.1,0-0.2,0-0.2V176.9
		L282.4,176.9z"/>
	<path class="st10" d="M285.1,173.8v1h1v0.6h-1v2.3c0,0.5,0.1,0.8,0.5,0.8c0.2,0,0.3,0,0.4-0.1v0.6c-0.1,0.1-0.4,0.1-0.6,0.1
		c-0.3,0-0.6-0.1-0.8-0.3c-0.2-0.2-0.3-0.6-0.3-1.1v-2.3h-0.6v-0.6h0.6V174L285.1,173.8z"/>
	<path class="st10" d="M287.3,174c-0.3,0-0.5-0.2-0.5-0.5s0.2-0.5,0.5-0.5s0.5,0.2,0.5,0.5S287.6,174,287.3,174L287.3,174z
		 M286.9,179v-4.2h0.7v4.2H286.9z"/>
	<path class="st10" d="M288.9,172.8h0.7v2.6l0,0c0.3-0.5,0.7-0.8,1.4-0.8c1,0,1.7,0.9,1.7,2.1c0,1.5-0.9,2.2-1.8,2.2
		c-0.6,0-1-0.2-1.3-0.8l0,0v0.7H289c0-0.3,0-0.7,0-1.1L288.9,172.8L288.9,172.8z M289.6,177.3c0,0.1,0,0.2,0,0.3
		c0.1,0.5,0.6,0.9,1.1,0.9c0.8,0,1.2-0.6,1.2-1.6c0-0.8-0.4-1.6-1.2-1.6c-0.5,0-1,0.4-1.1,0.9c0,0.1,0,0.2,0,0.3V177.3L289.6,177.3z
		"/>
	<path class="st10" d="M293.5,172.8h0.7v6.1h-0.7V172.8z"/>
	<path class="st10" d="M295.9,177c0,1,0.6,1.5,1.4,1.5c0.5,0,0.8-0.1,1.1-0.2l0.1,0.5c-0.3,0.1-0.7,0.3-1.3,0.3c-1.2,0-2-0.9-2-2.1
		c0-1.3,0.7-2.3,1.9-2.3c1.3,0,1.6,1.2,1.6,2c0,0.2,0,0.3,0,0.4L295.9,177z M298,176.5c0-0.5-0.2-1.2-1-1.2c-0.7,0-1.1,0.7-1.1,1.2
		H298z"/>
	<path class="st10" d="M301.4,175.9c0-0.4,0-0.8,0-1.1h0.6v0.7l0,0c0.2-0.4,0.6-0.8,1.3-0.8c0.5,0,0.9,0.3,1.1,0.8l0,0
		c0.1-0.2,0.3-0.4,0.5-0.5c0.2-0.2,0.5-0.3,0.9-0.3c0.5,0,1.3,0.4,1.3,1.8v2.5h-0.7v-2.4c0-0.8-0.3-1.3-0.9-1.3
		c-0.4,0-0.7,0.3-0.9,0.7c0,0.1-0.1,0.3-0.1,0.4v2.6h-0.7v-2.5c0-0.7-0.3-1.1-0.8-1.1c-0.4,0-0.8,0.4-0.9,0.8c0,0.1-0.1,0.2-0.1,0.4
		v2.5h-0.7L301.4,175.9L301.4,175.9z"/>
	<path class="st10" d="M311.6,177.8c0,0.4,0,0.8,0,1.1H311v-0.7l0,0c-0.2,0.3-0.6,0.8-1.3,0.8c-0.6,0-1.4-0.4-1.4-1.8v-2.4h0.7v2.3
		c0,0.8,0.2,1.3,0.9,1.3c0.5,0,0.8-0.4,1-0.7c0-0.1,0.1-0.2,0.1-0.4v-2.5h0.7L311.6,177.8L311.6,177.8z"/>
	<path class="st10" d="M313.6,173.8v1h1v0.6h-1v2.3c0,0.5,0.1,0.8,0.5,0.8c0.2,0,0.3,0,0.4-0.1v0.6c-0.1,0.1-0.4,0.1-0.6,0.1
		c-0.3,0-0.6-0.1-0.8-0.3c-0.2-0.2-0.3-0.6-0.3-1.1v-2.3h-0.6v-0.6h0.6V174L313.6,173.8z"/>
	<path class="st10" d="M318.3,178c0,0.4,0,0.7,0.1,1h-0.7l-0.1-0.5l0,0c-0.2,0.3-0.7,0.6-1.2,0.6c-0.8,0-1.2-0.6-1.2-1.2
		c0-1,0.9-1.6,2.4-1.6v-0.1c0-0.3-0.1-1-0.9-1c-0.4,0-0.8,0.1-1,0.3l-0.2-0.5c0.3-0.2,0.8-0.4,1.3-0.4c1.2,0,1.5,0.9,1.5,1.7
		L318.3,178L318.3,178z M317.6,176.9c-0.8,0-1.7,0.1-1.7,0.9c0,0.5,0.3,0.7,0.7,0.7c0.5,0,0.9-0.3,1-0.7c0-0.1,0-0.2,0-0.2V176.9
		L317.6,176.9z"/>
	<path class="st10" d="M320.3,173.8v1h1v0.6h-1v2.3c0,0.5,0.1,0.8,0.5,0.8c0.2,0,0.3,0,0.4-0.1v0.6c-0.1,0.1-0.4,0.1-0.6,0.1
		c-0.3,0-0.6-0.1-0.8-0.3c-0.2-0.2-0.3-0.6-0.3-1.1v-2.3h-0.6v-0.6h0.6V174L320.3,173.8z"/>
	<path class="st10" d="M322.5,174c-0.3,0-0.5-0.2-0.5-0.5s0.2-0.5,0.5-0.5s0.5,0.2,0.5,0.5S322.8,174,322.5,174L322.5,174z
		 M322.2,179v-4.2h0.7v4.2H322.2z"/>
	<path class="st10" d="M325.7,179.1c-1.1,0-1.9-0.8-1.9-2.2s0.9-2.2,2-2.2s1.9,0.9,1.9,2.1C327.7,178.4,326.7,179.1,325.7,179.1
		L325.7,179.1z M325.7,178.5c0.7,0,1.2-0.7,1.2-1.6c0-0.7-0.3-1.6-1.2-1.6c-0.8,0-1.2,0.8-1.2,1.6
		C324.5,177.8,325,178.5,325.7,178.5L325.7,178.5z"/>
	<path class="st10" d="M328.6,175.9c0-0.4,0-0.8,0-1.1h0.6v0.7l0,0c0.2-0.4,0.7-0.8,1.3-0.8s1.4,0.3,1.4,1.8v2.5h-0.7v-2.4
		c0-0.7-0.2-1.2-0.9-1.2c-0.5,0-0.8,0.4-1,0.8c0,0.1-0.1,0.2-0.1,0.4v2.5h-0.7L328.6,175.9L328.6,175.9z"/>
	<path class="st10" d="M333.1,178.2c0.2,0.1,0.6,0.3,1,0.3c0.5,0,0.8-0.3,0.8-0.6c0-0.4-0.2-0.6-0.7-0.8c-0.7-0.3-1.1-0.7-1.1-1.2
		c0-0.7,0.5-1.2,1.4-1.2c0.4,0,0.8,0.1,1,0.3l-0.2,0.5c-0.2-0.1-0.4-0.2-0.8-0.2s-0.7,0.3-0.7,0.6c0,0.4,0.2,0.5,0.7,0.7
		c0.7,0.3,1,0.6,1,1.3s-0.6,1.3-1.5,1.3c-0.4,0-0.8-0.1-1.1-0.3L333.1,178.2z"/>
</g>
<g>
	<path class="st10" d="M260.5,183.5c0-0.4,0-0.8,0-1.1h0.6v0.7l0,0c0.2-0.4,0.7-0.8,1.3-0.8s1.4,0.3,1.4,1.8v2.5h-0.7v-2.4
		c0-0.7-0.2-1.2-0.9-1.2c-0.5,0-0.8,0.4-1,0.8c0,0.1,0,0.2,0,0.4v2.5h-0.7L260.5,183.5L260.5,183.5z"/>
	<path class="st10" d="M266.7,186.6c-1.1,0-1.9-0.8-1.9-2.2s0.9-2.2,2-2.2s1.9,0.9,1.9,2.1C268.7,186,267.7,186.6,266.7,186.6
		L266.7,186.6z M266.7,186.1c0.7,0,1.2-0.7,1.2-1.6c0-0.7-0.3-1.6-1.2-1.6c-0.8,0-1.2,0.8-1.2,1.6
		C265.5,185.4,266,186.1,266.7,186.1L266.7,186.1z"/>
	<path class="st10" d="M271.4,183.5c0-0.4,0-0.8,0-1.1h0.6v0.7l0,0c0.2-0.4,0.6-0.8,1.3-0.8c0.5,0,0.9,0.3,1.1,0.8l0,0
		c0.1-0.2,0.3-0.4,0.5-0.5c0.2-0.2,0.5-0.3,0.9-0.3c0.5,0,1.3,0.4,1.3,1.8v2.5h-0.7v-2.4c0-0.8-0.3-1.3-0.9-1.3
		c-0.4,0-0.7,0.3-0.9,0.7c0,0.1-0.1,0.3-0.1,0.4v2.6h-0.7v-2.5c0-0.7-0.3-1.1-0.8-1.1c-0.4,0-0.8,0.4-0.9,0.8c0,0.1-0.1,0.2-0.1,0.4
		v2.5h-0.7L271.4,183.5L271.4,183.5z"/>
	<path class="st10" d="M281.6,185.4c0,0.4,0,0.8,0,1.1H281v-0.7l0,0c-0.2,0.3-0.6,0.8-1.3,0.8c-0.6,0-1.4-0.4-1.4-1.8v-2.4h0.7v2.3
		c0,0.8,0.2,1.3,0.9,1.3c0.5,0,0.8-0.4,1-0.7c0-0.1,0.1-0.2,0.1-0.4v-2.6h0.7L281.6,185.4L281.6,185.4z"/>
	<path class="st10" d="M283.7,181.4v1h1v0.6h-1v2.3c0,0.5,0.1,0.8,0.5,0.8c0.2,0,0.3,0,0.4-0.1v0.6c-0.1,0.1-0.4,0.1-0.6,0.1
		c-0.3,0-0.6-0.1-0.8-0.3c-0.2-0.2-0.3-0.6-0.3-1.1V183h-0.6v-0.6h0.6v-0.8L283.7,181.4z"/>
	<path class="st10" d="M288.3,185.5c0,0.4,0,0.7,0.1,1h-0.7l-0.1-0.5l0,0c-0.2,0.3-0.7,0.6-1.2,0.6c-0.8,0-1.2-0.6-1.2-1.2
		c0-1,0.9-1.6,2.4-1.6l0,0c0-0.3-0.1-1-0.9-1c-0.4,0-0.8,0.1-1,0.3l-0.2-0.5c0.3-0.2,0.8-0.4,1.3-0.4c1.2,0,1.5,0.9,1.5,1.7
		L288.3,185.5L288.3,185.5z M287.6,184.4c-0.8,0-1.7,0.1-1.7,0.9c0,0.5,0.3,0.7,0.7,0.7c0.5,0,0.9-0.3,1-0.7c0-0.1,0-0.2,0-0.2
		V184.4L287.6,184.4z"/>
	<path class="st10" d="M290.3,181.4v1h1v0.6h-1v2.3c0,0.5,0.1,0.8,0.5,0.8c0.2,0,0.3,0,0.4-0.1v0.6c-0.1,0.1-0.4,0.1-0.6,0.1
		c-0.3,0-0.6-0.1-0.8-0.3c-0.2-0.2-0.3-0.6-0.3-1.1V183h-0.6v-0.6h0.6v-0.8L290.3,181.4z"/>
	<path class="st10" d="M292.5,181.6c-0.3,0-0.5-0.2-0.5-0.5s0.2-0.5,0.5-0.5s0.5,0.2,0.5,0.5S292.8,181.6,292.5,181.6L292.5,181.6z
		 M292.2,186.6v-4.2h0.7v4.2H292.2z"/>
	<path class="st10" d="M295.7,186.6c-1.1,0-1.9-0.8-1.9-2.2s0.9-2.2,2-2.2s1.9,0.9,1.9,2.1C297.7,186,296.7,186.6,295.7,186.6
		L295.7,186.6z M295.8,186.1c0.7,0,1.2-0.7,1.2-1.6c0-0.7-0.3-1.6-1.2-1.6c-0.8,0-1.2,0.8-1.2,1.6
		C294.6,185.4,295.1,186.1,295.8,186.1L295.8,186.1z"/>
	<path class="st10" d="M298.6,183.5c0-0.4,0-0.8,0-1.1h0.6v0.7l0,0c0.2-0.4,0.7-0.8,1.3-0.8s1.4,0.3,1.4,1.8v2.5h-0.7v-2.4
		c0-0.7-0.2-1.2-0.9-1.2c-0.5,0-0.8,0.4-1,0.8c0,0.1,0,0.2,0,0.4v2.5h-0.7L298.6,183.5L298.6,183.5z"/>
	<path class="st10" d="M303.1,185.8c0.2,0.1,0.6,0.3,1,0.3c0.5,0,0.8-0.3,0.8-0.6c0-0.4-0.2-0.6-0.7-0.8c-0.7-0.3-1.1-0.7-1.1-1.2
		c0-0.7,0.5-1.2,1.4-1.2c0.4,0,0.8,0.1,1,0.3l-0.2,0.5c-0.2-0.1-0.4-0.2-0.8-0.2s-0.7,0.3-0.7,0.6c0,0.4,0.2,0.5,0.7,0.7
		c0.7,0.3,1,0.6,1,1.3s-0.6,1.3-1.5,1.3c-0.4,0-0.8-0.1-1.1-0.3L303.1,185.8z"/>
	<path class="st10" d="M309.8,186.6c-1.1,0-1.9-0.8-1.9-2.2s0.9-2.2,2-2.2s1.9,0.9,1.9,2.1C311.8,186,310.8,186.6,309.8,186.6
		L309.8,186.6z M309.9,186.1c0.7,0,1.2-0.7,1.2-1.6c0-0.7-0.3-1.6-1.2-1.6c-0.8,0-1.2,0.8-1.2,1.6
		C308.7,185.4,309.2,186.1,309.9,186.1L309.9,186.1z"/>
	<path class="st10" d="M312.7,180.4h0.7v2.6l0,0c0.3-0.5,0.7-0.8,1.4-0.8c1,0,1.7,0.9,1.7,2.1c0,1.5-0.9,2.2-1.8,2.2
		c-0.6,0-1-0.2-1.3-0.8l0,0v0.7h-0.7c0-0.3,0-0.7,0-1.1V180.4L312.7,180.4z M313.5,184.9c0,0.1,0,0.2,0,0.3c0.1,0.5,0.6,0.9,1.1,0.9
		c0.8,0,1.2-0.6,1.2-1.6c0-0.8-0.4-1.6-1.2-1.6c-0.5,0-1,0.4-1.1,0.9c0,0.1,0,0.2,0,0.3V184.9L313.5,184.9z"/>
	<path class="st10" d="M317.3,185.8c0.2,0.1,0.6,0.3,1,0.3c0.5,0,0.8-0.3,0.8-0.6c0-0.4-0.2-0.6-0.7-0.8c-0.7-0.3-1.1-0.7-1.1-1.2
		c0-0.7,0.5-1.2,1.4-1.2c0.4,0,0.8,0.1,1,0.3l-0.2,0.5c-0.2-0.1-0.4-0.2-0.8-0.2s-0.7,0.3-0.7,0.6c0,0.4,0.2,0.5,0.8,0.7
		c0.7,0.3,1,0.6,1,1.3s-0.6,1.3-1.5,1.3c-0.4,0-0.8-0.1-1.1-0.3L317.3,185.8z"/>
	<path class="st10" d="M321.1,184.6c0,1,0.6,1.5,1.4,1.5c0.5,0,0.8-0.1,1.1-0.2l0.1,0.5c-0.3,0.1-0.7,0.3-1.3,0.3
		c-1.2,0-2-0.9-2-2.1c0-1.3,0.7-2.3,1.9-2.3c1.3,0,1.6,1.2,1.6,2c0,0.2,0,0.3,0,0.4L321.1,184.6z M323.2,184c0-0.5-0.2-1.2-1-1.2
		c-0.7,0-1.1,0.7-1.1,1.2H323.2z"/>
	<path class="st10" d="M324.8,183.7c0-0.5,0-0.9,0-1.3h0.6v0.8l0,0c0.2-0.6,0.6-0.9,1.1-0.9c0.1,0,0.1,0,0.2,0v0.7
		c-0.1,0-0.2,0-0.3,0c-0.5,0-0.9,0.4-1,1c0,0.1,0,0.2,0,0.4v2.2h-0.7L324.8,183.7z"/>
	<path class="st10" d="M328,182.4l0.8,2.3c0.1,0.4,0.2,0.7,0.3,1.1l0,0c0.1-0.3,0.2-0.7,0.3-1.1l0.8-2.3h0.8l-1.6,4.2h-0.7l-1.5-4.2
		H328z"/>
	<path class="st10" d="M332,184.6c0,1,0.6,1.5,1.4,1.5c0.5,0,0.8-0.1,1.1-0.2l0.1,0.5c-0.3,0.1-0.7,0.3-1.3,0.3c-1.2,0-2-0.9-2-2.1
		c0-1.3,0.7-2.3,1.9-2.3c1.3,0,1.6,1.2,1.6,2c0,0.2,0,0.3,0,0.4L332,184.6z M334.1,184c0-0.5-0.2-1.2-1-1.2c-0.7,0-1.1,0.7-1.1,1.2
		H334.1z"/>
	<path class="st10" d="M339.2,180.4v5.1c0,0.4,0,0.8,0,1.1h-0.7v-0.7l0,0c-0.2,0.5-0.7,0.8-1.4,0.8c-1,0-1.7-0.9-1.7-2.1
		c0-1.4,0.8-2.2,1.8-2.2c0.6,0,1,0.3,1.2,0.6l0,0v-2.5C338.5,180.4,339.2,180.4,339.2,180.4z M338.5,184.1c0-0.1,0-0.2,0-0.3
		c-0.1-0.5-0.5-0.9-1-0.9c-0.7,0-1.2,0.7-1.2,1.6c0,0.9,0.4,1.6,1.2,1.6c0.5,0,0.9-0.3,1.1-0.9c0-0.1,0-0.2,0-0.3L338.5,184.1
		L338.5,184.1z"/>
</g>
<rect x="242.1" y="182.2" class="st11" width="4.2" height="4.4"/>
<rect x="252" y="182.2" class="st11" width="4.2" height="4.4"/>
<rect x="246.3" y="182.2" class="st11" width="5.7" height="4.4"/>
<line class="st12" x1="249.1" y1="184.6" x2="249.1" y2="184.1"/>
<rect x="252" y="167" class="st13" width="4.4" height="4.2"/>
<rect x="242.1" y="167" class="st13" width="4.4" height="4.2"/>
<rect x="246.4" y="167" class="st13" width="5.5" height="4.2"/>
<line class="st5" x1="250" y1="169.1" x2="248.4" y2="169.1"/>
<rect x="252" y="174.6" class="st14" width="4.4" height="4.2"/>
<rect x="242.1" y="174.6" class="st14" width="4.4" height="4.2"/>
<rect x="246.4" y="174.6" class="st14" width="5.5" height="4.2"/>
<line class="st5" x1="250" y1="176.7" x2="248.4" y2="176.7"/>
<g>
	<line class="st15" x1="249.4" y1="254.7" x2="261.7" y2="254.7"/>
	<g>
		<path class="st3" d="M267.3,253l0.8,2.3c0.1,0.4,0.2,0.7,0.3,1.1l0,0c0.1-0.3,0.2-0.7,0.3-1.1l0.8-2.3h0.8l-1.6,4.2H268l-1.5-4.2
			H267.3z"/>
		<path class="st3" d="M273.7,256.2c0,0.4,0,0.7,0.1,1h-0.7l-0.1-0.5l0,0c-0.2,0.3-0.7,0.6-1.2,0.6c-0.8,0-1.2-0.6-1.2-1.2
			c0-1,0.9-1.6,2.4-1.6v-0.1c0-0.3-0.1-1-0.9-1c-0.4,0-0.8,0.1-1,0.3l-0.2-0.5c0.3-0.2,0.8-0.4,1.3-0.4c1.2,0,1.5,0.9,1.5,1.7
			L273.7,256.2L273.7,256.2z M273,255.1c-0.8,0-1.7,0.1-1.7,0.9c0,0.5,0.3,0.7,0.7,0.7c0.5,0,0.9-0.3,1-0.7c0-0.1,0-0.2,0-0.2V255.1
			z"/>
		<path class="st3" d="M274.9,254.4c0-0.5,0-0.9,0-1.3h0.6v0.8l0,0c0.2-0.6,0.6-0.9,1.1-0.9c0.1,0,0.1,0,0.2,0v0.7
			c-0.1,0-0.2,0-0.3,0c-0.5,0-0.9,0.4-1,1c0,0.1,0,0.2,0,0.4v2.2h-0.7L274.9,254.4z"/>
		<path class="st3" d="M278,252.3c-0.3,0-0.5-0.2-0.5-0.5s0.2-0.5,0.5-0.5s0.5,0.2,0.5,0.5S278.3,252.3,278,252.3L278,252.3z
			 M277.6,257.2V253h0.7v4.2H277.6z"/>
		<path class="st3" d="M282.4,256.2c0,0.4,0,0.7,0.1,1h-0.7l-0.1-0.5l0,0c-0.2,0.3-0.7,0.6-1.2,0.6c-0.8,0-1.2-0.6-1.2-1.2
			c0-1,0.9-1.6,2.4-1.6v-0.1c0-0.3-0.1-1-0.9-1c-0.4,0-0.8,0.1-1,0.3l-0.2-0.5c0.3-0.2,0.8-0.4,1.3-0.4c1.2,0,1.5,0.9,1.5,1.7
			L282.4,256.2L282.4,256.2z M281.6,255.1c-0.8,0-1.7,0.1-1.7,0.9c0,0.5,0.3,0.7,0.7,0.7c0.5,0,0.9-0.3,1-0.7c0-0.1,0-0.2,0-0.2
			V255.1z"/>
		<path class="st3" d="M283.5,251.1h0.7v2.6l0,0c0.3-0.5,0.7-0.8,1.4-0.8c1,0,1.7,0.9,1.7,2.1c0,1.5-0.9,2.2-1.8,2.2
			c-0.6,0-1-0.2-1.3-0.8l0,0v0.7h-0.7c0-0.3,0-0.7,0-1.1L283.5,251.1L283.5,251.1z M284.2,255.6c0,0.1,0,0.2,0,0.3
			c0.1,0.5,0.6,0.9,1.1,0.9c0.8,0,1.2-0.6,1.2-1.6c0-0.8-0.4-1.6-1.2-1.6c-0.5,0-1,0.4-1.1,0.9c0,0.1,0,0.2,0,0.3V255.6L284.2,255.6
			z"/>
		<path class="st3" d="M288.2,251.1h0.7v6.1h-0.7V251.1z"/>
		<path class="st3" d="M290.5,255.3c0,1,0.6,1.5,1.4,1.5c0.5,0,0.8-0.1,1.1-0.2l0.1,0.5c-0.3,0.1-0.7,0.3-1.3,0.3
			c-1.2,0-2-0.9-2-2.1c0-1.3,0.7-2.3,1.9-2.3c1.3,0,1.6,1.2,1.6,2c0,0.2,0,0.3,0,0.4L290.5,255.3z M292.7,254.7c0-0.5-0.2-1.2-1-1.2
			c-0.7,0-1.1,0.7-1.1,1.2H292.7z"/>
		<path class="st3" d="M295.9,254.6v0.6h-2v-0.6H295.9z"/>
		<path class="st3" d="M296.8,251.1h0.7v6.1h-0.7V251.1z"/>
		<path class="st3" d="M299.1,255.3c0,1,0.6,1.5,1.4,1.5c0.5,0,0.8-0.1,1.1-0.2l0.1,0.5c-0.3,0.1-0.7,0.3-1.3,0.3
			c-1.2,0-2-0.9-2-2.1c0-1.3,0.7-2.3,1.9-2.3c1.3,0,1.6,1.2,1.6,2c0,0.2,0,0.3,0,0.4L299.1,255.3z M301.3,254.7c0-0.5-0.2-1.2-1-1.2
			c-0.7,0-1.1,0.7-1.1,1.2H301.3z"/>
		<path class="st3" d="M302.9,254.2c0-0.4,0-0.8,0-1.1h0.6v0.7l0,0c0.2-0.4,0.7-0.8,1.3-0.8s1.4,0.3,1.4,1.8v2.5h-0.7v-2.4
			c0-0.7-0.2-1.2-0.9-1.2c-0.5,0-0.8,0.4-1,0.8c0,0.1-0.1,0.2-0.1,0.4v2.5h-0.7L302.9,254.2L302.9,254.2z"/>
		<path class="st3" d="M310.8,256.6c0,1-0.2,1.5-0.6,1.9s-1,0.5-1.5,0.5s-1-0.1-1.3-0.3l0.2-0.6c0.3,0.2,0.7,0.3,1.2,0.3
			c0.7,0,1.3-0.4,1.3-1.5v-0.5l0,0c-0.2,0.4-0.7,0.7-1.3,0.7c-1,0-1.7-0.9-1.7-2c0-1.4,0.9-2.2,1.8-2.2c0.7,0,1.1,0.4,1.2,0.7l0,0
			V253h0.6c0,0.3,0,0.6,0,1.1L310.8,256.6L310.8,256.6z M310.1,254.7c0-0.1,0-0.2,0-0.3c-0.1-0.4-0.5-0.8-1-0.8
			c-0.7,0-1.2,0.6-1.2,1.6c0,0.8,0.4,1.5,1.2,1.5c0.5,0,0.9-0.3,1-0.8c0-0.1,0.1-0.3,0.1-0.4v-0.8H310.1L310.1,254.7z"/>
		<path class="st3" d="M312.9,252v1h1v0.6h-1v2.3c0,0.5,0.1,0.8,0.5,0.8c0.2,0,0.3,0,0.4-0.1v0.6c-0.1,0.1-0.4,0.1-0.6,0.1
			c-0.3,0-0.6-0.1-0.8-0.3c-0.2-0.2-0.3-0.6-0.3-1.1v-2.3h-0.6V253h0.6v-0.8L312.9,252z"/>
		<path class="st3" d="M314.8,251.1h0.7v2.6l0,0c0.1-0.2,0.3-0.4,0.5-0.5s0.5-0.2,0.7-0.2c0.5,0,1.4,0.3,1.4,1.8v2.5h-0.7v-2.4
			c0-0.7-0.2-1.2-0.9-1.2c-0.5,0-0.8,0.3-1,0.8c0,0.1-0.1,0.2-0.1,0.4v2.5h-0.7L314.8,251.1L314.8,251.1z"/>
		<path class="st3" d="M321.1,254.4c0-0.5,0-0.9,0-1.3h0.6v0.8l0,0c0.2-0.6,0.6-0.9,1.1-0.9c0.1,0,0.1,0,0.2,0v0.7
			c-0.1,0-0.2,0-0.3,0c-0.5,0-0.9,0.4-1,1c0,0.1,0,0.2,0,0.4v2.2H321L321.1,254.4z"/>
		<path class="st3" d="M324.1,255.3c0,1,0.6,1.5,1.4,1.5c0.5,0,0.8-0.1,1.1-0.2l0.1,0.5c-0.3,0.1-0.7,0.3-1.3,0.3
			c-1.2,0-2-0.9-2-2.1c0-1.3,0.7-2.3,1.9-2.3c1.3,0,1.6,1.2,1.6,2c0,0.2,0,0.3,0,0.4L324.1,255.3z M326.3,254.7c0-0.5-0.2-1.2-1-1.2
			c-0.7,0-1.1,0.7-1.1,1.2H326.3z"/>
		<path class="st3" d="M331.3,256.6c0,1-0.2,1.5-0.6,1.9s-1,0.5-1.5,0.5s-1-0.1-1.3-0.3l0.2-0.6c0.3,0.2,0.7,0.3,1.2,0.3
			c0.7,0,1.3-0.4,1.3-1.5v-0.5l0,0c-0.2,0.4-0.7,0.7-1.3,0.7c-1,0-1.7-0.9-1.7-2c0-1.4,0.9-2.2,1.8-2.2c0.7,0,1.1,0.4,1.2,0.7l0,0
			V253h0.6c0,0.3,0,0.6,0,1.1L331.3,256.6L331.3,256.6z M330.6,254.7c0-0.1,0-0.2,0-0.3c-0.1-0.4-0.5-0.8-1-0.8
			c-0.7,0-1.2,0.6-1.2,1.6c0,0.8,0.4,1.5,1.2,1.5c0.5,0,0.9-0.3,1-0.8c0-0.1,0.1-0.3,0.1-0.4v-0.8H330.6L330.6,254.7z"/>
		<path class="st3" d="M332.8,252.3c-0.3,0-0.5-0.2-0.5-0.5s0.2-0.5,0.5-0.5s0.5,0.2,0.5,0.5S333.1,252.3,332.8,252.3L332.8,252.3z
			 M332.5,257.2V253h0.7v4.2H332.5z"/>
		<path class="st3" d="M336,257.3c-1.1,0-1.9-0.8-1.9-2.2s0.9-2.2,2-2.2s1.9,0.9,1.9,2.1C338,256.6,337,257.3,336,257.3L336,257.3z
			 M336,256.8c0.7,0,1.2-0.7,1.2-1.6c0-0.7-0.3-1.6-1.2-1.6c-0.8,0-1.2,0.8-1.2,1.6C334.8,256.1,335.3,256.8,336,256.8L336,256.8z"
			/>
		<path class="st3" d="M338.9,254.2c0-0.4,0-0.8,0-1.1h0.6v0.7l0,0c0.2-0.4,0.7-0.8,1.3-0.8c0.6,0,1.4,0.3,1.4,1.8v2.5h-0.7v-2.4
			c0-0.7-0.2-1.2-0.9-1.2c-0.5,0-0.8,0.4-1,0.8c0,0.1-0.1,0.2-0.1,0.4v2.5h-0.7L338.9,254.2L338.9,254.2z"/>
	</g>
</g>
<path class="st3" d="M245.4,268.7c0.4-0.1,0.9-0.1,1.4-0.1c0.8,0,1.3,0.2,1.7,0.5c0.3,0.3,0.5,0.6,0.5,1.1c0,0.8-0.5,1.3-1.1,1.5
	l0,0c0.4,0.2,0.7,0.6,0.9,1.2c0.2,0.8,0.3,1.4,0.4,1.6h-0.8c-0.1-0.2-0.2-0.7-0.4-1.4c-0.2-0.8-0.5-1.1-1.2-1.1h-0.7v2.5h-0.8
	L245.4,268.7L245.4,268.7z M246.2,271.3h0.8c0.8,0,1.3-0.4,1.3-1.1c0-0.8-0.5-1.1-1.3-1.1c-0.4,0-0.6,0-0.7,0.1L246.2,271.3
	L246.2,271.3z"/>
<path class="st3" d="M251.6,271.5V271h4.5v0.5H251.6z M251.6,273.2v-0.5h4.5v0.5H251.6z"/>
<path class="st3" d="M259.8,272.6l-0.6,1.8h-0.7l2-5.8h0.9l2,5.8h-0.9l-0.6-1.8H259.8z M261.8,272l-0.6-1.7
	c-0.1-0.4-0.2-0.7-0.3-1.1l0,0c-0.1,0.3-0.2,0.7-0.3,1.1L260,272H261.8L261.8,272z"/>
<path class="st3" d="M267.7,274.5c-1.1,0-2-0.8-2-2.2s0.9-2.2,2.1-2.2s2,0.9,2,2.1C269.8,273.9,268.7,274.5,267.7,274.5L267.7,274.5
	L267.7,274.5z M267.7,274c0.7,0,1.3-0.7,1.3-1.6c0-0.7-0.4-1.6-1.3-1.6s-1.3,0.8-1.3,1.6C266.5,273.3,267,274,267.7,274L267.7,274z"
	/>
<path class="st3" d="M270.8,271.6c0-0.5,0-0.9,0-1.3h0.7v0.8l0,0c0.2-0.6,0.7-0.9,1.2-0.9c0.1,0,0.1,0,0.2,0v0.7c-0.1,0-0.2,0-0.3,0
	c-0.5,0-0.9,0.4-1,1c0,0.1,0,0.2,0,0.4v2.2h-0.8L270.8,271.6L270.8,271.6z"/>
<path class="st3" d="M279.9,274.2c-0.3,0.1-1,0.3-1.8,0.3c-0.9,0-1.6-0.2-2.2-0.8c-0.5-0.5-0.8-1.3-0.8-2.2c0-1.7,1.2-3,3.2-3
	c0.7,0,1.2,0.1,1.5,0.3l-0.2,0.6c-0.3-0.1-0.7-0.3-1.3-0.3c-1.4,0-2.3,0.9-2.3,2.3c0,1.5,0.9,2.4,2.2,2.4c0.5,0,0.8-0.1,1-0.2V272
	H278v-0.6h1.9L279.9,274.2L279.9,274.2z"/>
<path class="st3" d="M285.9,274.4V272l-1.9-3.4h0.9l0.8,1.6c0.2,0.4,0.4,0.8,0.6,1.2l0,0c0.2-0.4,0.4-0.8,0.6-1.2l0.8-1.6h0.8
	l-1.9,3.3v2.5H285.9L285.9,274.4z"/>
<path class="st3" d="M290.8,271.5V271h4.5v0.5H290.8z M290.8,273.2v-0.5h4.5v0.5H290.8z"/>
<path class="st3" d="M302.2,274.3c-0.3,0.1-0.8,0.3-1.5,0.3c-1.6,0-2.9-1-2.9-3c0-1.8,1.2-3.1,3-3.1c0.7,0,1.2,0.2,1.4,0.3l-0.2,0.6
	c-0.3-0.1-0.7-0.2-1.2-0.2c-1.4,0-2.3,0.9-2.3,2.4c0,1.4,0.8,2.3,2.2,2.3c0.5,0,0.9-0.1,1.2-0.2L302.2,274.3z"/>
<path class="st3" d="M306.7,274.5c-1.1,0-2-0.8-2-2.2s0.9-2.2,2.1-2.2s2,0.9,2,2.1C308.7,273.9,307.7,274.5,306.7,274.5L306.7,274.5
	L306.7,274.5z M306.7,274c0.7,0,1.3-0.7,1.3-1.6c0-0.7-0.4-1.6-1.3-1.6s-1.3,0.8-1.3,1.6C305.4,273.3,305.9,274,306.7,274L306.7,274
	z"/>
<path class="st3" d="M309.7,271.6c0-0.5,0-0.9,0-1.3h0.7v0.8l0,0c0.2-0.6,0.7-0.9,1.2-0.9c0.1,0,0.1,0,0.2,0v0.7c-0.1,0-0.2,0-0.3,0
	c-0.5,0-0.9,0.4-1,1c0,0.1,0,0.2,0,0.4v2.2h-0.8V271.6z"/>
<path class="st3" d="M315.1,268.6v3.5c0,1.3,0.6,1.9,1.4,1.9c0.9,0,1.4-0.6,1.4-1.9v-3.5h0.8v3.4c0,1.8-0.9,2.5-2.2,2.5
	c-1.2,0-2.1-0.7-2.1-2.5v-3.4H315.1L315.1,268.6z"/>
<text transform="matrix(1 0 0 1 50.2484 107.1354)" class="st16"><tspan x="0" y="0" class="st1 st17">mepA </tspan><tspan x="0" y="21.6" class="st1 st17"> Motif</tspan></text>
<g>
	<rect x="183.8" y="338.8" class="st18" width="32" height="9.5"/>
	<line class="st19" x1="196.4" y1="343.6" x2="203.3" y2="343.6"/>
	<rect x="85.8" y="351.9" class="st18" width="32" height="9.5"/>
	<line class="st19" x1="98.3" y1="356.7" x2="105.3" y2="356.7"/>
	<rect x="85.8" y="338.5" class="st18" width="32" height="9.5"/>
	<line class="st19" x1="98.3" y1="343.3" x2="105.3" y2="343.3"/>
	<rect x="85.8" y="325.2" class="st18" width="32" height="9.5"/>
	<line class="st19" x1="98.3" y1="330" x2="105.3" y2="330"/>
	<rect x="85.8" y="311.8" class="st18" width="32" height="9.5"/>
	<line class="st19" x1="98.3" y1="316.6" x2="105.3" y2="316.6"/>
	<rect x="85.8" y="298.4" class="st18" width="32" height="9.5"/>
	<line class="st19" x1="98.3" y1="303.1" x2="105.3" y2="303.1"/>
	<circle class="st0" cx="189" cy="343.6" r="4.5"/>
	<circle class="st20" cx="189" cy="343.6" r="4.5"/>
	<g>
		<path class="st21" d="M108.9,361.6V352h4.2c0.8,0,1.5,0.1,1.9,0.3c0.5,0.2,0.8,0.5,1.1,0.9c0.3,0.4,0.4,0.9,0.4,1.4
			c0,0.6-0.2,1.3-0.6,1.7c-0.5,0.5-1.1,0.7-2,0.9c0.4,0.2,0.6,0.4,0.7,0.5c0.4,0.4,0.7,0.7,1.1,1.3l1.6,2.6h-1.5l-1.3-2
			c-0.4-0.5-0.6-1-0.9-1.4c-0.3-0.3-0.5-0.5-0.6-0.6c-0.2-0.1-0.4-0.2-0.5-0.3c-0.2,0-0.4,0-0.7,0h-1.4v4.2H108.9L108.9,361.6z
			 M110.2,356c0,0.1,0.1,0.2,0.2,0.2h2.5c0.5,0,1-0.1,1.4-0.2c0.4-0.1,0.5-0.3,0.7-0.5c0.2-0.3,0.3-0.5,0.3-0.8
			c0-0.5-0.2-0.8-0.5-1.1c-0.4-0.3-0.8-0.5-1.5-0.5l-3,0C110.2,353.3,110.2,355.4,110.2,356z"/>
	</g>
	<g>
		<path class="st0" d="M208.9,76.7l1.3,0.4c-0.3,1-0.7,1.8-1.4,2.3c-0.7,0.5-1.5,0.8-2.5,0.8c-1,0-1.9-0.2-2.5-0.6s-1.2-1-1.4-1.8
			c-0.4-0.8-0.5-1.6-0.5-2.5c0-1,0.2-1.9,0.5-2.6c0.4-0.7,0.9-1.3,1.6-1.7c0.7-0.4,1.4-0.5,2.3-0.5c1,0,1.7,0.3,2.4,0.7
			c0.6,0.5,1.1,1.2,1.4,2.1l-1.3,0.3c-0.2-0.7-0.5-1.2-1-1.5c-0.5-0.4-0.9-0.5-1.6-0.5s-1.4,0.2-1.8,0.5c-0.5,0.4-0.8,0.8-1,1.4
			c-0.2,0.6-0.3,1.2-0.3,1.8c0,0.8,0.1,1.5,0.4,2.1c0.3,0.6,0.6,1.1,1.1,1.4c0.5,0.3,1,0.5,1.6,0.5c0.7,0,1.3-0.2,1.8-0.6
			C208.4,78.2,208.7,77.5,208.9,76.7z"/>
	</g>
	<g>
		<path class="st22" d="M161.8,96.9v-1.1h4.1v3.5c-0.6,0.5-1.3,0.9-1.9,1.1c-0.6,0.3-1.4,0.4-2,0.4c-0.9,0-1.8-0.2-2.5-0.6
			c-0.7-0.5-1.4-1-1.7-1.7c-0.4-0.7-0.5-1.6-0.5-2.5c0-0.9,0.2-1.8,0.5-2.6c0.4-0.8,0.9-1.4,1.7-1.8c0.7-0.4,1.5-0.5,2.5-0.5
			c0.7,0,1.4,0.1,1.9,0.4c0.5,0.2,1,0.5,1.4,0.9c0.4,0.4,0.5,0.9,0.7,1.5l-1.2,0.3c-0.2-0.5-0.4-0.9-0.5-1.2
			c-0.2-0.3-0.5-0.5-0.9-0.6c-0.4-0.2-0.8-0.3-1.4-0.3s-1.1,0.1-1.5,0.3c-0.5,0.2-0.7,0.5-1,0.7c-0.3,0.3-0.5,0.6-0.6,0.9
			c-0.3,0.6-0.4,1.3-0.4,1.9c0,0.8,0.2,1.5,0.5,2.2c0.3,0.5,0.7,1,1.3,1.3c0.5,0.3,1.2,0.5,1.8,0.5c0.5,0,1.1-0.1,1.6-0.4
			c0.5-0.2,0.9-0.5,1.2-0.6v-1.8L161.8,96.9L161.8,96.9z"/>
	</g>
	<g>
		<path class="st22" d="M151.4,113.4l3.7-9.5h1.4l3.9,9.5h-1.4l-1.1-2.9h-4l-1,2.9H151.4z M154.1,109.4h3.2l-1-2.6
			c-0.3-0.8-0.5-1.4-0.7-2c-0.1,0.6-0.3,1.3-0.5,1.8L154.1,109.4z"/>
	</g>
	<g>
		<path class="st21" d="M89.7,361.5v-4.1l-3.7-5.5h1.5l1.9,2.9c0.4,0.5,0.6,1.1,1,1.6c0.3-0.5,0.6-1.1,1.1-1.7l1.8-2.8h1.4l-3.8,5.5
			v4.1H89.7z"/>
	</g>
	<circle class="st22" cx="210.7" cy="343.6" r="4.5"/>
	<circle class="st20" cx="210.7" cy="343.6" r="4.5"/>
	<circle class="st22" cx="224.9" cy="81.5" r="4.5"/>
	<circle class="st20" cx="224.9" cy="81.5" r="4.5"/>
	<g>
		<path class="st21" d="M112.5,317.5v-1.1h4.1v3.5c-0.6,0.5-1.3,0.9-1.9,1.1c-0.6,0.3-1.4,0.4-2,0.4c-0.9,0-1.8-0.2-2.5-0.6
			c-0.7-0.4-1.4-1-1.7-1.7s-0.5-1.6-0.5-2.5c0-0.9,0.2-1.8,0.5-2.6s0.9-1.4,1.7-1.8c0.7-0.4,1.5-0.5,2.5-0.5c0.7,0,1.4,0.1,1.9,0.4
			c0.5,0.2,1,0.5,1.4,0.9c0.4,0.4,0.5,0.9,0.7,1.5l-1.2,0.3c-0.2-0.5-0.4-0.9-0.5-1.2s-0.5-0.5-0.9-0.6c-0.4-0.2-0.8-0.3-1.4-0.3
			c-0.5,0-1.1,0.1-1.5,0.3c-0.5,0.2-0.7,0.5-1,0.7c-0.3,0.3-0.5,0.6-0.6,0.9c-0.3,0.6-0.4,1.3-0.4,1.9c0,0.8,0.2,1.5,0.5,2.2
			c0.3,0.5,0.7,1,1.3,1.3s1.2,0.5,1.8,0.5c0.5,0,1.1-0.1,1.6-0.4c0.5-0.2,0.9-0.5,1.2-0.6v-1.8L112.5,317.5L112.5,317.5z"/>
	</g>
	<g>
		<path class="st0" d="M112.1,304.4v-1.1h4.1v3.5c-0.6,0.5-1.3,0.9-1.9,1.1c-0.6,0.3-1.4,0.4-2,0.4c-0.9,0-1.8-0.2-2.5-0.6
			s-1.4-1-1.7-1.7s-0.5-1.6-0.5-2.5c0-0.9,0.2-1.8,0.5-2.6c0.4-0.8,0.9-1.4,1.7-1.8c0.7-0.4,1.5-0.5,2.5-0.5c0.7,0,1.4,0.1,1.9,0.4
			c0.5,0.2,1,0.5,1.4,0.9s0.5,0.9,0.7,1.5l-1.2,0.3c-0.2-0.5-0.4-0.9-0.5-1.2c-0.2-0.3-0.5-0.5-0.9-0.6c-0.4-0.2-0.8-0.3-1.4-0.3
			c-0.5,0-1.1,0.1-1.5,0.3s-0.7,0.5-1,0.7s-0.5,0.6-0.6,0.9c-0.3,0.6-0.4,1.3-0.4,1.9c0,0.8,0.2,1.5,0.5,2.2c0.3,0.5,0.7,1,1.3,1.3
			c0.5,0.3,1.2,0.5,1.8,0.5c0.5,0,1.1-0.1,1.6-0.4c0.5-0.2,0.9-0.5,1.2-0.6v-1.8L112.1,304.4L112.1,304.4z"/>
	</g>
	<g>
		<path class="st0" d="M98.1,281l1.3,0.4c-0.3,1-0.7,1.8-1.4,2.3c-0.7,0.5-1.5,0.8-2.5,0.8c-1,0-1.9-0.2-2.5-0.6
			c-0.6-0.5-1.2-1-1.4-1.8c-0.3-0.8-0.5-1.6-0.5-2.5c0-1,0.2-1.9,0.5-2.6c0.4-0.7,0.9-1.3,1.6-1.7c0.7-0.4,1.4-0.5,2.3-0.5
			c1,0,1.7,0.3,2.4,0.7c0.6,0.5,1.1,1.2,1.4,2.1l-1.3,0.3c-0.2-0.7-0.5-1.2-1-1.5c-0.5-0.4-0.9-0.5-1.6-0.5c-0.7,0-1.4,0.2-1.8,0.5
			c-0.5,0.4-0.8,0.8-1,1.4s-0.3,1.2-0.3,1.8c0,0.8,0.1,1.5,0.4,2.1c0.3,0.6,0.6,1.1,1.1,1.4c0.5,0.3,1,0.5,1.6,0.5
			c0.7,0,1.3-0.2,1.8-0.6C97.6,282.4,97.9,281.8,98.1,281z"/>
	</g>
	<g>
		<g>
			<path class="st23" d="M94.6,318l1.3,0.4c-0.3,1-0.7,1.8-1.4,2.3c-0.7,0.5-1.5,0.8-2.5,0.8s-1.9-0.2-2.5-0.6
				c-0.6-0.5-1.2-1-1.4-1.8c-0.4-0.8-0.5-1.6-0.5-2.5c0-1,0.2-1.9,0.5-2.6c0.4-0.7,0.9-1.3,1.6-1.7c0.7-0.4,1.4-0.5,2.3-0.5
				c1,0,1.7,0.3,2.4,0.7c0.6,0.5,1.1,1.2,1.4,2.1l-1.3,0.3c-0.2-0.7-0.5-1.2-1-1.5c-0.5-0.4-0.9-0.5-1.6-0.5s-1.4,0.2-1.8,0.5
				c-0.5,0.4-0.8,0.8-1,1.4c-0.2,0.6-0.3,1.2-0.3,1.8c0,0.8,0.1,1.5,0.4,2.1c0.3,0.6,0.6,1.1,1.1,1.4c0.5,0.3,1,0.5,1.6,0.5
				c0.7,0,1.3-0.2,1.8-0.6C94,319.4,94.4,318.8,94.6,318z"/>
		</g>
	</g>
	<g>
		<path class="st21" d="M94.2,304.6l1.3,0.4c-0.3,1-0.7,1.8-1.4,2.3c-0.7,0.5-1.5,0.8-2.5,0.8c-1,0-1.9-0.2-2.5-0.6
			c-0.6-0.5-1.2-1-1.4-1.8c-0.4-0.8-0.5-1.6-0.5-2.5c0-1,0.2-1.9,0.5-2.6c0.4-0.7,0.9-1.3,1.6-1.7c0.7-0.4,1.4-0.5,2.3-0.5
			c1,0,1.7,0.3,2.4,0.7c0.6,0.5,1.1,1.2,1.4,2.1l-1.3,0.3c-0.2-0.7-0.5-1.2-1-1.5c-0.5-0.4-0.9-0.5-1.6-0.5s-1.4,0.2-1.8,0.5
			c-0.5,0.4-0.8,0.8-1,1.4c-0.2,0.6-0.3,1.2-0.3,1.8c0,0.8,0.1,1.5,0.4,2.1c0.3,0.5,0.6,1.1,1.1,1.4c0.5,0.3,1,0.5,1.6,0.5
			c0.7,0,1.3-0.2,1.8-0.6C93.6,305.9,94,305.3,94.2,304.6z"/>
	</g>
	<path class="st24" d="M111.9,361.9c0,1.8,1.8,3.3,4,3.3h7.9h52h7.9c2.2,0,4-1.5,4-3.3"/>
	<path class="st24" d="M87.9,361.9c0,1.7-1.4,3.2-3.2,3.2h-6.3"/>
	<g>
		<path class="st0" d="M68.7,367.3l1.3-0.1c0.1,0.6,0.3,1.1,0.6,1.4c0.4,0.3,0.7,0.5,1.2,0.5c0.5,0,1.1-0.2,1.4-0.6
			c0.4-0.5,0.5-1,0.5-1.7c0-0.6-0.2-1.2-0.5-1.5c-0.4-0.4-0.9-0.5-1.4-0.5c-0.4,0-0.7,0.1-1,0.3c-0.3,0.2-0.5,0.4-0.7,0.6l-1.1-0.2
			l0.9-4.9h4.8v1.1h-3.9l-0.5,2.5c0.5-0.4,1.2-0.6,1.8-0.6c0.8,0,1.5,0.3,2.1,0.9c0.5,0.5,0.9,1.4,0.9,2.3c0,0.9-0.3,1.6-0.7,2.3
			c-0.6,0.8-1.4,1.2-2.5,1.2c-0.9,0-1.5-0.3-2.2-0.7C69.1,368.7,68.8,368.1,68.7,367.3z"/>
		<path class="st0" d="M77,362l0.9-1.8h1.5L78,362H77z"/>
	</g>
	<text transform="matrix(1 0 0 1 131.1854 361.5855)" class="st25 st1 st26">2-11nts</text>
	<text transform="matrix(1 0 0 1 86.0062 348.3453)" class="st23 st1 st27">U</text>
	<g>
		<path class="st0" d="M108.5,348.1v-9.5h4.2c0.8,0,1.5,0.1,1.9,0.3c0.5,0.2,0.8,0.5,1.1,0.9c0.3,0.5,0.4,0.9,0.4,1.4
			c0,0.6-0.2,1.3-0.6,1.7c-0.5,0.5-1.1,0.7-2,0.9c0.4,0.2,0.6,0.4,0.7,0.5c0.4,0.4,0.7,0.7,1.1,1.3l1.6,2.6h-1.5l-1.3-2
			c-0.4-0.5-0.6-1-0.9-1.4c-0.3-0.3-0.5-0.5-0.6-0.6c-0.2-0.1-0.4-0.2-0.5-0.3c-0.2,0-0.4,0-0.7,0h-1.4v4.2L108.5,348.1L108.5,348.1
			z M109.7,342.8h2.7c0.5,0,1-0.1,1.4-0.2c0.4-0.1,0.5-0.3,0.7-0.5c0.2-0.3,0.3-0.5,0.3-0.8c0-0.5-0.2-0.8-0.5-1.1
			c-0.4-0.3-0.8-0.5-1.5-0.5h-3L109.7,342.8L109.7,342.8z"/>
	</g>
	<g>
		<path class="st0" d="M87.4,335v-9.5h4.2c0.8,0,1.5,0.1,1.9,0.3c0.5,0.2,0.8,0.5,1.1,0.9c0.3,0.5,0.4,0.9,0.4,1.4
			c0,0.6-0.2,1.3-0.6,1.7c-0.5,0.5-1.1,0.7-2,0.9c0.4,0.2,0.6,0.4,0.7,0.5c0.4,0.4,0.7,0.7,1.1,1.3l1.6,2.6h-1.5l-1.3-2
			c-0.4-0.5-0.6-1-0.9-1.4c-0.3-0.3-0.5-0.5-0.6-0.6c-0.2-0.1-0.4-0.2-0.5-0.3c-0.2,0-0.4,0-0.7,0h-1.4v4.2L87.4,335L87.4,335z
			 M88.7,329.7h2.7c0.5,0,1-0.1,1.4-0.2c0.4-0.1,0.5-0.3,0.7-0.5c0.2-0.3,0.3-0.5,0.3-0.8c0-0.5-0.2-0.8-0.5-1.1
			c-0.4-0.3-0.8-0.5-1.5-0.5h-3L88.7,329.7L88.7,329.7z"/>
	</g>
	<g>
		<path class="st21" d="M111.6,335V331l-3.7-5.5h1.5l1.9,2.9c0.4,0.5,0.6,1.1,1,1.6c0.3-0.5,0.6-1.1,1.1-1.7l1.8-2.8h1.4l-3.8,5.5
			v4.1H111.6z"/>
	</g>
	<g>
		<path class="st0" d="M83.7,296.2v-9.5h4.2c0.8,0,1.5,0.1,1.9,0.3c0.5,0.2,0.8,0.5,1.1,0.9c0.3,0.5,0.4,0.9,0.4,1.4
			c0,0.6-0.2,1.3-0.6,1.7c-0.5,0.5-1.1,0.7-2,0.9c0.4,0.2,0.6,0.4,0.7,0.5c0.4,0.4,0.7,0.7,1.1,1.3l1.6,2.6h-1.5l-1.3-2
			c-0.4-0.5-0.6-1-0.9-1.4c-0.3-0.3-0.5-0.5-0.6-0.6c-0.2-0.1-0.4-0.2-0.5-0.3c-0.2,0-0.4,0-0.7,0H85v4.2L83.7,296.2L83.7,296.2z
			 M84.9,290.8h2.7c0.5,0,1-0.1,1.4-0.2c0.4-0.1,0.5-0.3,0.7-0.5c0.2-0.3,0.3-0.5,0.3-0.8c0-0.5-0.2-0.8-0.5-1.1
			c-0.4-0.3-0.8-0.5-1.5-0.5h-3L84.9,290.8L84.9,290.8z"/>
	</g>
	<g>
		<path class="st22" d="M115,292.4v-1.1h4.1v3.5c-0.6,0.5-1.3,0.9-1.9,1.1c-0.6,0.3-1.4,0.4-2,0.4c-0.9,0-1.8-0.2-2.5-0.6
			c-0.7-0.5-1.4-1-1.7-1.7s-0.5-1.6-0.5-2.5s0.2-1.8,0.5-2.6c0.4-0.8,0.9-1.4,1.7-1.8c0.7-0.4,1.5-0.5,2.5-0.5
			c0.7,0,1.4,0.1,1.9,0.4c0.5,0.2,1,0.5,1.4,0.9s0.5,0.9,0.7,1.5l-1.2,0.3c-0.2-0.5-0.4-0.9-0.5-1.2s-0.5-0.5-0.9-0.6
			c-0.4-0.2-0.8-0.3-1.4-0.3c-0.5,0-1.1,0.1-1.5,0.3c-0.5,0.2-0.7,0.5-1,0.7c-0.3,0.3-0.5,0.6-0.6,0.9c-0.3,0.6-0.4,1.3-0.4,1.9
			c0,0.8,0.2,1.5,0.5,2.2c0.3,0.5,0.7,1,1.3,1.3s1.2,0.5,1.8,0.5c0.5,0,1.1-0.1,1.6-0.4c0.5-0.2,0.9-0.5,1.2-0.6v-1.8L115,292.4
			L115,292.4z"/>
	</g>
	<g>
		<path class="st22" d="M110.5,281l1.3,0.4c-0.3,1-0.7,1.8-1.4,2.3c-0.7,0.5-1.5,0.8-2.5,0.8s-1.9-0.2-2.5-0.6s-1.2-1-1.4-1.8
			s-0.5-1.6-0.5-2.5c0-1,0.2-1.9,0.5-2.6s0.9-1.3,1.6-1.7c0.7-0.4,1.4-0.5,2.3-0.5c1,0,1.7,0.3,2.4,0.7c0.6,0.5,1.1,1.2,1.4,2.1
			l-1.3,0.3c-0.2-0.7-0.5-1.2-1-1.5c-0.5-0.4-0.9-0.5-1.6-0.5c-0.7,0-1.4,0.2-1.8,0.5c-0.5,0.4-0.8,0.8-1,1.4
			c-0.2,0.6-0.3,1.2-0.3,1.8c0,0.8,0.1,1.5,0.4,2.1c0.3,0.6,0.6,1.1,1.1,1.4c0.5,0.3,1,0.5,1.6,0.5c0.7,0,1.3-0.2,1.8-0.6
			C110,282.4,110.3,281.8,110.5,281z"/>
	</g>
	<rect x="183.9" y="351.4" class="st18" width="32" height="9.5"/>
	<line class="st19" x1="196.5" y1="356.1" x2="203.3" y2="356.1"/>
	<g>
		<path class="st21" d="M210,360.9v-4.1l-3.7-5.5h1.5l1.9,2.9c0.4,0.5,0.6,1.1,1,1.6c0.3-0.5,0.6-1.1,1.1-1.7l1.8-2.8h1.4l-3.8,5.5
			v4.1H210z"/>
	</g>
	<g>
		<path class="st21" d="M185.4,361.2v-9.5h4.2c0.8,0,1.5,0.1,1.9,0.3c0.5,0.2,0.8,0.5,1.1,0.9c0.3,0.4,0.4,0.9,0.4,1.4
			c0,0.6-0.2,1.3-0.6,1.7c-0.5,0.5-1.1,0.7-2,0.9c0.4,0.2,0.6,0.4,0.7,0.5c0.4,0.4,0.7,0.7,1.1,1.3l1.6,2.6h-1.5l-1.3-2
			c-0.4-0.5-0.6-1-0.9-1.4c-0.3-0.3-0.5-0.5-0.6-0.6c-0.2-0.1-0.4-0.2-0.5-0.3c-0.2,0-0.4,0-0.7,0h-1.4v4.2H185.4L185.4,361.2z
			 M186.7,355.6c0,0.1,0.1,0.2,0.2,0.2h2.5c0.5,0,1-0.1,1.4-0.2c0.4-0.1,0.5-0.3,0.7-0.5s0.3-0.5,0.3-0.8c0-0.5-0.2-0.8-0.5-1.1
			c-0.4-0.3-0.8-0.5-1.5-0.5l-3,0C186.7,352.9,186.7,355,186.7,355.6z"/>
	</g>
	<rect x="183.9" y="326.7" class="st18" width="32" height="9.5"/>
	<line class="st19" x1="196.5" y1="331.5" x2="203.4" y2="331.5"/>
	<g>
		<path class="st21" d="M210,336.2v-4.1l-3.7-5.5h1.5l1.9,2.9c0.4,0.5,0.6,1.1,1,1.6c0.3-0.5,0.6-1.1,1.1-1.7l1.8-2.8h1.4l-3.8,5.5
			v4.1H210z"/>
	</g>
	<g>
		<path class="st21" d="M185.5,336.5V327h4.2c0.8,0,1.5,0.1,1.9,0.3c0.5,0.2,0.8,0.5,1.1,0.9c0.3,0.4,0.4,0.9,0.4,1.4
			c0,0.6-0.2,1.3-0.6,1.7c-0.5,0.5-1.1,0.7-2,0.9c0.4,0.2,0.6,0.4,0.7,0.5c0.4,0.4,0.7,0.7,1.1,1.3l1.6,2.6h-1.5l-1.3-2
			c-0.4-0.5-0.6-1-0.9-1.4c-0.3-0.3-0.5-0.5-0.6-0.6c-0.2-0.1-0.4-0.2-0.5-0.3c-0.2,0-0.4,0-0.7,0h-1.4v4.2H185.5L185.5,336.5z
			 M186.7,331c0,0.1,0.1,0.2,0.2,0.2h2.5c0.5,0,1-0.1,1.4-0.2c0.4-0.1,0.5-0.3,0.7-0.5c0.2-0.3,0.3-0.5,0.3-0.8
			c0-0.5-0.2-0.8-0.5-1.1c-0.4-0.3-0.8-0.5-1.5-0.5l-3,0C186.8,328.2,186.7,330.3,186.7,331z"/>
	</g>
	<rect x="183.8" y="315.2" class="st18" width="32" height="9.5"/>
	<line class="st19" x1="196.4" y1="319.9" x2="203.3" y2="319.9"/>
	<circle class="st22" cx="189" cy="319.9" r="4.5"/>
	<circle class="st20" cx="189" cy="319.9" r="4.5"/>
	<circle class="st22" cx="210.7" cy="319.9" r="4.5"/>
	<circle class="st20" cx="210.7" cy="319.9" r="4.5"/>
	<rect x="183.8" y="303.5" class="st18" width="32" height="9.5"/>
	<line class="st19" x1="196.3" y1="308.3" x2="203.3" y2="308.3"/>
	<g>
		<path class="st21" d="M206.9,313.2v-9.5h4.2c0.8,0,1.5,0.1,1.9,0.3c0.5,0.2,0.8,0.5,1.1,0.9c0.3,0.4,0.4,0.9,0.4,1.4
			c0,0.6-0.2,1.3-0.6,1.7c-0.5,0.5-1.1,0.7-2,0.9c0.4,0.2,0.6,0.4,0.7,0.5c0.4,0.4,0.7,0.7,1.1,1.3l1.6,2.6h-1.5l-1.3-2
			c-0.4-0.5-0.6-1-0.9-1.4c-0.3-0.3-0.5-0.5-0.6-0.6c-0.2-0.1-0.4-0.2-0.5-0.3c-0.2,0-0.4,0-0.7,0h-1.4v4.2H206.9L206.9,313.2z
			 M208.2,307.6c0,0.1,0.1,0.2,0.2,0.2h2.5c0.5,0,1-0.1,1.4-0.2c0.4-0.1,0.5-0.3,0.7-0.5c0.2-0.3,0.3-0.5,0.3-0.8
			c0-0.5-0.2-0.8-0.5-1.1c-0.4-0.3-0.8-0.5-1.5-0.5l-3,0C208.2,304.9,208.2,306.9,208.2,307.6z"/>
	</g>
	<g>
		<path class="st21" d="M187.7,313.1V309l-3.7-5.5h1.5l1.9,2.9c0.4,0.5,0.6,1.1,1,1.6c0.3-0.5,0.6-1.1,1.1-1.7l1.8-2.8h1.4L189,309
			v4.1H187.7z"/>
	</g>
	<rect x="183.8" y="291.6" class="st18" width="32" height="9.5"/>
	<line class="st19" x1="196.4" y1="296.4" x2="203.3" y2="296.4"/>
	<circle class="st22" cx="189" cy="296.4" r="4.5"/>
	<circle class="st20" cx="189" cy="296.4" r="4.5"/>
	<circle class="st22" cx="210.7" cy="296.4" r="4.5"/>
	<circle class="st20" cx="210.7" cy="296.4" r="4.5"/>
	<line class="st19" x1="196.7" y1="284.5" x2="203.5" y2="284.5"/>
	<line class="st19" x1="196.7" y1="271.1" x2="203.5" y2="271.1"/>
	<line class="st19" x1="196.7" y1="257.7" x2="203.5" y2="257.7"/>
	<circle class="st0" cx="189.3" cy="284.5" r="4.5"/>
	<circle class="st20" cx="189.3" cy="284.5" r="4.5"/>
	<circle class="st0" cx="189.3" cy="271.1" r="4.5"/>
	<circle class="st20" cx="189.3" cy="271.1" r="4.5"/>
	<circle class="st21" cx="189.3" cy="257.7" r="4.5"/>
	<circle class="st20" cx="189.3" cy="257.7" r="4.5"/>
	<circle class="st0" cx="210.9" cy="257.7" r="4.5"/>
	<circle class="st20" cx="210.9" cy="257.7" r="4.5"/>
	<circle class="st0" cx="210.9" cy="271.1" r="4.5"/>
	<circle class="st20" cx="210.9" cy="271.1" r="4.5"/>
	<circle class="st0" cx="210.9" cy="284.5" r="4.5"/>
	<circle class="st20" cx="210.9" cy="284.5" r="4.5"/>
	<line class="st19" x1="196.7" y1="245.7" x2="203.6" y2="245.7"/>
	<rect x="184.1" y="227.6" class="st18" width="32" height="9.5"/>
	<line class="st19" x1="196.7" y1="232.3" x2="203.6" y2="232.3"/>
	<circle class="st0" cx="189.3" cy="245.7" r="4.5"/>
	<circle class="st20" cx="189.3" cy="245.7" r="4.5"/>
	<circle class="st22" cx="189.3" cy="232.3" r="4.5"/>
	<circle class="st20" cx="189.3" cy="232.3" r="4.5"/>
	<circle class="st22" cx="211" cy="232.3" r="4.5"/>
	<circle class="st20" cx="211" cy="232.3" r="4.5"/>
	<circle class="st22" cx="211" cy="245.7" r="4.5"/>
	<circle class="st20" cx="211" cy="245.7" r="4.5"/>
	<rect x="183.8" y="215.9" class="st18" width="32" height="9.5"/>
	<line class="st19" x1="196.3" y1="220.6" x2="203.3" y2="220.6"/>
	<g>
		<path class="st21" d="M206.9,225.5v-9.5h4.2c0.8,0,1.5,0.1,1.9,0.3c0.5,0.2,0.8,0.5,1.1,0.9c0.3,0.4,0.4,0.9,0.4,1.4
			c0,0.6-0.2,1.3-0.6,1.7c-0.5,0.5-1.1,0.7-2,0.9c0.4,0.2,0.6,0.4,0.7,0.5c0.4,0.4,0.7,0.7,1.1,1.3l1.6,2.6h-1.5l-1.3-2
			c-0.4-0.5-0.6-1-0.9-1.4c-0.3-0.3-0.5-0.5-0.6-0.6c-0.2-0.1-0.4-0.2-0.5-0.3c-0.2,0-0.4,0-0.7,0h-1.4v4.2L206.9,225.5L206.9,225.5
			z M208.2,220c0,0.1,0.1,0.2,0.2,0.2h2.5c0.5,0,1-0.1,1.4-0.2c0.4-0.1,0.5-0.3,0.7-0.5c0.2-0.3,0.3-0.5,0.3-0.8
			c0-0.5-0.2-0.8-0.5-1.1c-0.4-0.3-0.8-0.5-1.5-0.5l-3,0C208.2,217.2,208.2,219.3,208.2,220z"/>
	</g>
	<g>
		<path class="st21" d="M187.7,225.4v-4.1l-3.7-5.5h1.5l1.9,2.9c0.4,0.5,0.6,1.1,1,1.6c0.3-0.5,0.6-1.1,1.1-1.7l1.8-2.8h1.4
			l-3.8,5.5v4.1H187.7z"/>
	</g>
	<rect x="183.8" y="203.9" class="st18" width="32" height="9.5"/>
	<line class="st19" x1="196.4" y1="208.7" x2="203.3" y2="208.7"/>
	<g>
		<path class="st21" d="M209.9,213.4v-4.1l-3.7-5.5h1.5l1.9,2.9c0.4,0.5,0.6,1.1,1,1.6c0.3-0.5,0.6-1.1,1.1-1.7l1.8-2.8h1.4
			l-3.8,5.5v4.1H209.9z"/>
	</g>
	<g>
		<path class="st21" d="M185.4,213.7v-9.5h4.2c0.8,0,1.5,0.1,1.9,0.3c0.5,0.2,0.8,0.5,1.1,0.9c0.3,0.4,0.4,0.9,0.4,1.4
			c0,0.6-0.2,1.3-0.6,1.7c-0.5,0.5-1.1,0.7-2,0.9c0.4,0.2,0.6,0.4,0.7,0.5c0.4,0.4,0.7,0.7,1.1,1.3l1.6,2.6h-1.5l-1.3-2
			c-0.4-0.5-0.6-1-0.9-1.4c-0.3-0.3-0.5-0.5-0.6-0.6c-0.2-0.1-0.4-0.2-0.5-0.3c-0.2,0-0.4,0-0.7,0h-1.4v4.2L185.4,213.7L185.4,213.7
			z M186.7,208.2c0,0.1,0.1,0.2,0.2,0.2h2.5c0.5,0,1-0.1,1.4-0.2c0.4-0.1,0.5-0.3,0.7-0.5c0.2-0.3,0.3-0.5,0.3-0.8
			c0-0.5-0.2-0.8-0.5-1.1c-0.4-0.3-0.8-0.5-1.5-0.5l-3,0C186.7,205.4,186.7,207.5,186.7,208.2z"/>
	</g>
	<rect x="183.8" y="191.8" class="st18" width="32" height="9.5"/>
	<line class="st19" x1="196.3" y1="196.6" x2="203.3" y2="196.6"/>
	<g>
		<path class="st0" d="M206.9,201.5v-9.5h4.2c0.8,0,1.5,0.1,1.9,0.3c0.5,0.2,0.8,0.5,1.1,0.9c0.3,0.4,0.4,0.9,0.4,1.4
			c0,0.6-0.2,1.3-0.6,1.7c-0.5,0.5-1.1,0.7-2,0.9c0.4,0.2,0.6,0.4,0.7,0.5c0.4,0.4,0.7,0.7,1.1,1.3l1.6,2.6h-1.5l-1.3-2
			c-0.4-0.5-0.6-1-0.9-1.4c-0.3-0.3-0.5-0.5-0.6-0.6c-0.2-0.1-0.4-0.2-0.5-0.3c-0.2,0-0.4,0-0.7,0h-1.4v4.2L206.9,201.5L206.9,201.5
			z M208.2,195.9c0,0.1,0.1,0.2,0.2,0.2h2.5c0.5,0,1-0.1,1.4-0.2c0.4-0.1,0.5-0.3,0.7-0.5c0.2-0.3,0.3-0.5,0.3-0.8
			c0-0.5-0.2-0.8-0.5-1.1c-0.4-0.3-0.8-0.5-1.5-0.5l-3,0C208.2,193.2,208.2,195.2,208.2,195.9z"/>
	</g>
	<g>
		<path class="st0" d="M187.7,201.4v-4.1l-3.7-5.5h1.5l1.9,2.9c0.4,0.5,0.6,1.1,1,1.6c0.3-0.5,0.6-1.1,1.1-1.7l1.8-2.8h1.4l-3.8,5.5
			v4.1H187.7z"/>
	</g>
	<rect x="183.8" y="179.8" class="st18" width="32" height="9.5"/>
	<line class="st19" x1="196.4" y1="184.5" x2="203.3" y2="184.5"/>
	<circle class="st22" cx="189" cy="184.5" r="4.5"/>
	<circle class="st20" cx="189" cy="184.5" r="4.5"/>
	<circle class="st22" cx="210.7" cy="184.5" r="4.5"/>
	<circle class="st20" cx="210.7" cy="184.5" r="4.5"/>
	<rect x="183.8" y="168.8" class="st18" width="32" height="9.5"/>
	<line class="st19" x1="196.3" y1="173.6" x2="203.3" y2="173.6"/>
	<g>
		<path class="st22" d="M206.9,178.4v-9.5h4.2c0.8,0,1.5,0.1,1.9,0.3c0.5,0.2,0.8,0.5,1.1,0.9c0.3,0.4,0.4,0.9,0.4,1.4
			c0,0.6-0.2,1.3-0.6,1.7c-0.5,0.5-1.1,0.7-2,0.9c0.4,0.2,0.6,0.4,0.7,0.5c0.4,0.4,0.7,0.7,1.1,1.3l1.6,2.6h-1.5l-1.3-2
			c-0.4-0.5-0.6-1-0.9-1.4c-0.3-0.3-0.5-0.5-0.6-0.6c-0.2-0.1-0.4-0.2-0.5-0.3c-0.2,0-0.4,0-0.7,0h-1.4v4.2L206.9,178.4L206.9,178.4
			z M208.2,172.9c0,0.1,0.1,0.2,0.2,0.2h2.5c0.5,0,1-0.1,1.4-0.2c0.4-0.1,0.5-0.3,0.7-0.5c0.2-0.3,0.3-0.5,0.3-0.8
			c0-0.5-0.2-0.8-0.5-1.1c-0.4-0.3-0.8-0.5-1.5-0.5l-3,0C208.2,170.1,208.2,172.2,208.2,172.9z"/>
	</g>
	<g>
		<path class="st22" d="M187.7,178.3v-4.1l-3.7-5.5h1.5l1.9,2.9c0.4,0.5,0.6,1.1,1,1.6c0.3-0.5,0.6-1.1,1.1-1.7l1.8-2.8h1.4
			l-3.8,5.5v4.1H187.7z"/>
	</g>
	<rect x="183.8" y="157.6" class="st18" width="32" height="9.5"/>
	<line class="st19" x1="196.3" y1="162.3" x2="203.3" y2="162.3"/>
	<g>
		<path class="st22" d="M210.5,163.2v-1.1h4.1v3.5c-0.6,0.5-1.3,0.9-1.9,1.1c-0.6,0.3-1.4,0.4-2,0.4c-0.9,0-1.8-0.2-2.5-0.6
			c-0.7-0.4-1.4-1-1.7-1.7c-0.4-0.7-0.5-1.6-0.5-2.5c0-0.9,0.2-1.8,0.5-2.6c0.4-0.8,0.9-1.4,1.7-1.8c0.7-0.4,1.5-0.5,2.5-0.5
			c0.7,0,1.4,0.1,1.9,0.4c0.5,0.2,1,0.5,1.4,0.9s0.5,0.9,0.7,1.5l-1.2,0.3c-0.2-0.5-0.4-0.9-0.5-1.2c-0.2-0.3-0.5-0.5-0.9-0.6
			c-0.4-0.2-0.8-0.3-1.4-0.3c-0.5,0-1.1,0.1-1.5,0.3s-0.7,0.5-1,0.7s-0.5,0.6-0.6,0.9c-0.3,0.6-0.4,1.3-0.4,1.9
			c0,0.8,0.2,1.5,0.5,2.2c0.3,0.5,0.7,1,1.3,1.3c0.5,0.3,1.2,0.5,1.8,0.5c0.5,0,1.1-0.1,1.6-0.4c0.5-0.2,0.9-0.5,1.2-0.6v-1.8
			L210.5,163.2L210.5,163.2z"/>
	</g>
	<g>
		<path class="st0" d="M192.6,163.8l1.3,0.4c-0.3,1-0.7,1.8-1.4,2.3c-0.7,0.5-1.5,0.8-2.5,0.8c-1,0-1.9-0.2-2.5-0.6
			c-0.6-0.5-1.2-1-1.4-1.8c-0.4-0.8-0.5-1.6-0.5-2.5c0-1,0.2-1.9,0.5-2.6c0.4-0.7,0.9-1.3,1.6-1.7c0.7-0.4,1.4-0.5,2.3-0.5
			c1,0,1.7,0.3,2.4,0.7c0.6,0.5,1.1,1.2,1.4,2.1l-1.3,0.3c-0.2-0.7-0.5-1.2-1-1.5c-0.5-0.4-0.9-0.5-1.6-0.5s-1.4,0.2-1.8,0.5
			c-0.5,0.4-0.8,0.8-1,1.4c-0.2,0.6-0.3,1.2-0.3,1.8c0,0.8,0.1,1.5,0.4,2.1c0.3,0.6,0.6,1.1,1.1,1.4c0.5,0.3,1,0.5,1.6,0.5
			c0.7,0,1.3-0.2,1.8-0.6C192,165.2,192.4,164.6,192.6,163.8z"/>
	</g>
	<text transform="matrix(1 0 0 1 218.2552 360.9097)" class="st23 st1 st27">U</text>
	<text transform="matrix(1 0 0 1 229.4319 361.4273)" class="st23 st1 st27">U</text>
	<text transform="matrix(1 0 0 1 240.1033 357.1402)" class="st23 st1 st27">U</text>
	<text transform="matrix(1 0 0 1 241.0989 343.8433)" class="st0 st1 st27">U</text>
	<text transform="matrix(1 0 0 1 241.0994 315.8892)" class="st23 st1 st27">U</text>
	<text transform="matrix(1 0 0 1 241.0994 328.8716)" class="st23 st1 st27">U</text>
	<g>
		<path class="st0" d="M175.4,155.8v-9.5h4.2c0.8,0,1.5,0.1,1.9,0.3c0.5,0.2,0.8,0.5,1.1,0.9c0.3,0.4,0.4,0.9,0.4,1.4
			c0,0.6-0.2,1.3-0.6,1.7c-0.5,0.5-1.1,0.7-2,0.9c0.4,0.2,0.6,0.4,0.7,0.5c0.4,0.4,0.7,0.7,1.1,1.3l1.6,2.6h-1.5l-1.3-2
			c-0.4-0.5-0.6-1-0.9-1.4c-0.3-0.3-0.5-0.5-0.6-0.6c-0.2-0.1-0.4-0.2-0.5-0.3c-0.2,0-0.4,0-0.7,0h-1.4v4.2L175.4,155.8L175.4,155.8
			z M176.7,150.3c0,0.1,0.1,0.2,0.2,0.2h2.5c0.5,0,1-0.1,1.4-0.2c0.4-0.1,0.5-0.3,0.7-0.5s0.3-0.5,0.3-0.8c0-0.5-0.2-0.8-0.5-1.1
			c-0.4-0.3-0.8-0.5-1.5-0.5l-3,0C176.7,147.5,176.7,149.6,176.7,150.3z"/>
	</g>
	<text transform="matrix(1 0 0 1 153.0545 131.5855)" class="st0 st1 st27">U</text>
	<text transform="matrix(1 0 0 1 161.137 146.3023)" class="st23 st1 st27">U</text>
	<g>
		<path class="st22" d="M172.5,83v-1.1h4.1v3.5c-0.6,0.5-1.3,0.9-1.9,1.1c-0.6,0.3-1.4,0.4-2,0.4c-0.9,0-1.8-0.2-2.5-0.6
			c-0.7-0.5-1.4-1-1.7-1.7c-0.4-0.7-0.5-1.6-0.5-2.5c0-0.9,0.2-1.8,0.5-2.6c0.4-0.8,0.9-1.4,1.7-1.8c0.7-0.4,1.5-0.5,2.5-0.5
			c0.7,0,1.4,0.1,1.9,0.4c0.5,0.2,1,0.5,1.4,0.9c0.4,0.4,0.5,0.9,0.7,1.5l-1.2,0.3c-0.2-0.5-0.4-0.9-0.5-1.2
			c-0.2-0.3-0.5-0.5-0.9-0.6c-0.4-0.2-0.8-0.3-1.4-0.3s-1.1,0.1-1.5,0.3c-0.5,0.2-0.7,0.5-1,0.7c-0.3,0.3-0.5,0.6-0.6,0.9
			c-0.3,0.6-0.4,1.3-0.4,1.9c0,0.8,0.2,1.5,0.5,2.2c0.3,0.5,0.7,1,1.3,1.3c0.5,0.3,1.2,0.5,1.8,0.5c0.5,0,1.1-0.1,1.6-0.4
			c0.5-0.2,0.9-0.5,1.2-0.6v-1.8L172.5,83L172.5,83z"/>
	</g>
	<g>
		<path class="st0" d="M187.5,80.1V76l-3.7-5.5h1.5l1.9,2.9c0.4,0.5,0.6,1.1,1,1.6c0.3-0.5,0.6-1.1,1.1-1.7l1.8-2.8h1.4l-3.8,5.5
			v4.1H187.5z"/>
	</g>
	<text transform="matrix(1 0 0 1 233.0067 98.607)" class="st23 st1 st27">U</text>
	<circle class="st22" cx="241.1" cy="108.6" r="4.5"/>
	<circle class="st20" cx="241.1" cy="108.6" r="4.5"/>
	<g>
		<path class="st0" d="M239.2,125.7v-1.1h4.1v3.5c-0.6,0.5-1.3,0.9-1.9,1.1c-0.6,0.3-1.4,0.4-2,0.4c-0.9,0-1.8-0.2-2.5-0.6
			c-0.7-0.5-1.4-1-1.7-1.7c-0.4-0.7-0.5-1.6-0.5-2.5c0-0.9,0.2-1.8,0.5-2.6c0.4-0.8,0.9-1.4,1.7-1.8c0.7-0.4,1.5-0.5,2.5-0.5
			c0.7,0,1.4,0.1,1.9,0.4c0.5,0.2,1,0.5,1.4,0.9c0.4,0.4,0.5,0.9,0.7,1.5l-1.2,0.3c-0.2-0.5-0.4-0.9-0.5-1.2
			c-0.2-0.3-0.5-0.5-0.9-0.6c-0.4-0.2-0.8-0.3-1.4-0.3s-1.1,0.1-1.5,0.3c-0.5,0.2-0.7,0.5-1,0.7c-0.3,0.3-0.5,0.6-0.6,0.9
			c-0.3,0.6-0.4,1.3-0.4,1.9c0,0.8,0.2,1.5,0.5,2.2c0.3,0.5,0.7,1,1.3,1.3c0.5,0.3,1.2,0.5,1.8,0.5c0.5,0,1.1-0.1,1.6-0.4
			c0.5-0.2,0.9-0.5,1.2-0.6v-1.8L239.2,125.7L239.2,125.7z"/>
	</g>
	<g>
		<path class="st0" d="M216,155.8l3.7-9.5h1.4l3.9,9.5h-1.4l-1.1-2.9h-4l-1,2.9H216z M218.7,151.9h3.2l-1-2.6
			c-0.3-0.8-0.5-1.4-0.7-2c-0.1,0.6-0.3,1.3-0.5,1.8L218.7,151.9z"/>
	</g>
	<g>
		<g>
			<path class="st23" d="M229.4,143.7l3.7-9.5h1.4l3.9,9.5h-1.4l-1.1-2.9h-4l-1,2.9H229.4z M232.1,139.7h3.2l-1-2.6
				c-0.3-0.8-0.5-1.4-0.7-2c-0.1,0.6-0.3,1.3-0.5,1.8L232.1,139.7z"/>
		</g>
	</g>
	<path class="st28" d="M116.3,271.6c-17.2-4-33.4,2.9-36.4,15.5c-0.7,3.1-0.6,6.3,0.3,9.3"/>
	<path class="st28" d="M195.3,65.4c-0.9-0.1-1.8-0.1-2.7-0.1c-17.8,0-33.1,13.7-40,33.4"/>
	<rect x="92.1" y="179.3" class="st18" width="9.5" height="32"/>
	<line class="st19" x1="96.9" y1="192.8" x2="96.9" y2="199.7"/>
	<g>
		<path class="st0" d="M93.3,210.6V201h4.2c0.8,0,1.5,0.1,1.9,0.3c0.5,0.2,0.8,0.5,1.1,0.9c0.3,0.4,0.4,0.9,0.4,1.4
			c0,0.6-0.2,1.3-0.6,1.7c-0.5,0.5-1.1,0.7-2,0.9c0.4,0.2,0.6,0.4,0.7,0.5c0.4,0.4,0.7,0.7,1.1,1.3l1.6,2.6h-1.5l-1.3-2
			c-0.4-0.5-0.6-1-0.9-1.4c-0.3-0.3-0.5-0.5-0.6-0.6c-0.2-0.1-0.4-0.2-0.5-0.3c-0.2,0-0.4,0-0.7,0h-1.4v4.2H93.3L93.3,210.6z
			 M94.6,205c0,0.1,0.1,0.2,0.2,0.2h2.5c0.5,0,1-0.1,1.4-0.2s0.5-0.3,0.7-0.5c0.2-0.3,0.3-0.5,0.3-0.8c0-0.5-0.2-0.8-0.5-1.1
			c-0.4-0.3-0.8-0.5-1.5-0.5l-3,0C94.6,202.3,94.6,204.4,94.6,205z"/>
	</g>
	<g>
		<path class="st0" d="M96.2,190.6v-4.1l-3.7-5.5h1.5l1.9,2.9c0.4,0.5,0.6,1.1,1,1.6c0.3-0.5,0.6-1.1,1.1-1.7l1.8-2.8h1.4l-3.8,5.5
			v4.1H96.2z"/>
	</g>
	<line class="st19" x1="109.2" y1="192.8" x2="109.2" y2="199.7"/>
	<line class="st19" x1="120.7" y1="192.8" x2="120.7" y2="199.7"/>
	<g>
		<path class="st22" d="M109.4,185.2v-1.1h4.1v3.5c-0.6,0.5-1.3,0.9-1.9,1.1c-0.6,0.3-1.4,0.4-2,0.4c-0.9,0-1.8-0.2-2.5-0.6
			c-0.7-0.5-1.4-1-1.7-1.7c-0.4-0.7-0.5-1.6-0.5-2.5s0.2-1.8,0.5-2.6c0.4-0.8,0.9-1.4,1.7-1.8c0.7-0.4,1.5-0.5,2.5-0.5
			c0.7,0,1.4,0.1,1.9,0.4c0.5,0.2,1,0.5,1.4,0.9c0.4,0.4,0.5,0.9,0.7,1.5l-1.2,0.3c-0.2-0.5-0.4-0.9-0.5-1.2
			c-0.2-0.3-0.5-0.5-0.9-0.6c-0.4-0.2-0.8-0.3-1.4-0.3s-1.1,0.1-1.5,0.3c-0.5,0.2-0.7,0.5-1,0.7c-0.3,0.3-0.5,0.6-0.6,0.9
			c-0.3,0.6-0.4,1.3-0.4,1.9c0,0.8,0.2,1.5,0.5,2.2c0.3,0.5,0.7,1,1.3,1.3c0.5,0.3,1.2,0.5,1.8,0.5c0.5,0,1.1-0.1,1.6-0.4
			c0.5-0.2,0.9-0.5,1.2-0.6v-1.8L109.4,185.2L109.4,185.2z"/>
	</g>
	<g>
		<path class="st22" d="M120.9,185.2v-1.1h4.1v3.5c-0.6,0.5-1.3,0.9-1.9,1.1c-0.6,0.3-1.4,0.4-2,0.4c-0.9,0-1.8-0.2-2.5-0.6
			c-0.7-0.5-1.4-1-1.7-1.7c-0.4-0.7-0.5-1.6-0.5-2.5s0.2-1.8,0.5-2.6c0.4-0.8,0.9-1.4,1.7-1.8c0.7-0.4,1.5-0.5,2.5-0.5
			c0.7,0,1.4,0.1,1.9,0.4c0.5,0.2,1,0.5,1.4,0.9c0.4,0.4,0.5,0.9,0.7,1.5l-1.2,0.3c-0.2-0.5-0.4-0.9-0.5-1.2
			c-0.2-0.3-0.5-0.5-0.9-0.6c-0.4-0.2-0.8-0.3-1.4-0.3c-0.5,0-1.1,0.1-1.5,0.3c-0.5,0.2-0.7,0.5-1,0.7c-0.3,0.3-0.5,0.6-0.6,0.9
			c-0.3,0.6-0.4,1.3-0.4,1.9c0,0.8,0.2,1.5,0.5,2.2c0.3,0.5,0.7,1,1.3,1.3c0.5,0.3,1.2,0.5,1.8,0.5c0.5,0,1.1-0.1,1.6-0.4
			c0.5-0.2,0.9-0.5,1.2-0.6v-1.8L120.9,185.2L120.9,185.2z"/>
	</g>
	<g>
		<path class="st0" d="M112.1,207.2l1.3,0.4c-0.3,1-0.7,1.8-1.4,2.3s-1.5,0.8-2.5,0.8c-1,0-1.9-0.2-2.5-0.6c-0.6-0.5-1.2-1-1.4-1.8
			c-0.4-0.8-0.5-1.6-0.5-2.5c0-1,0.2-1.9,0.5-2.6c0.4-0.7,0.9-1.3,1.6-1.7c0.7-0.4,1.4-0.5,2.3-0.5c1,0,1.7,0.3,2.4,0.7
			c0.6,0.5,1.1,1.2,1.4,2.1L112,204c-0.2-0.7-0.5-1.2-1-1.5c-0.5-0.4-0.9-0.5-1.6-0.5s-1.4,0.2-1.8,0.5s-0.8,0.8-1,1.4
			c-0.2,0.6-0.3,1.2-0.3,1.8c0,0.8,0.1,1.5,0.4,2.1c0.3,0.6,0.6,1.1,1.1,1.4c0.5,0.3,1,0.5,1.6,0.5c0.7,0,1.3-0.2,1.8-0.6
			C111.7,208.6,112,208,112.1,207.2z"/>
	</g>
	<g>
		<path class="st22" d="M123.5,207.2l1.3,0.4c-0.3,1-0.7,1.8-1.4,2.3s-1.5,0.8-2.5,0.8s-1.9-0.2-2.5-0.6c-0.6-0.5-1.2-1-1.4-1.8
			c-0.4-0.8-0.5-1.6-0.5-2.5c0-1,0.2-1.9,0.5-2.6c0.4-0.7,0.9-1.3,1.6-1.7c0.7-0.4,1.4-0.5,2.3-0.5c1,0,1.7,0.3,2.4,0.7
			c0.6,0.5,1.1,1.2,1.4,2.1l-1.3,0.3c-0.2-0.7-0.5-1.2-1-1.5c-0.5-0.4-0.9-0.5-1.6-0.5s-1.4,0.2-1.8,0.5c-0.5,0.4-0.8,0.8-1,1.4
			c-0.2,0.6-0.3,1.2-0.3,1.8c0,0.8,0.1,1.5,0.4,2.1c0.3,0.6,0.6,1.1,1.1,1.4c0.5,0.3,1,0.5,1.6,0.5c0.7,0,1.3-0.2,1.8-0.6
			C123,208.6,123.3,208,123.5,207.2z"/>
	</g>
	<line class="st28" x1="90.4" y1="174.8" x2="125" y2="174.8"/>
	<line class="st28" x1="90.4" y1="214.3" x2="125" y2="214.3"/>
	<path class="st29" d="M165.9,76.4c-7.3-1.1-14.5-3.3-21.9-3.8c-7.4-0.6-15.4,0.7-21,5.5c-9.4,8.1-8.8,22.7-5.5,34.6
		c2,7.2,4.3,16-1.2,21.1c-2.3,2.1-5.4,3-7.7,5.1c-4.2,3.8-4.1,10.2-3.8,15.8c0.4,6.7,0.8,13.5,1.3,20.2"/>
	<path class="st29" d="M106.1,214.6c0.9,7.9,1.9,15.8,2.8,23.6c0.3,2.7,0.6,5.6-0.4,8.2c-1.4,3.5-5,5.3-8,7.5
		c-6.6,5-11.1,13-12,21.4"/>
	<text transform="matrix(1 0 0 1 65.2376 331.1998)" class="st30 st1 st26">P1</text>
	<text transform="matrix(1 0 0 1 129.5477 197.564)" class="st30 st1 st26">P2</text>
	<text transform="matrix(1 0 0 1 124.7492 256.7542)" class="st30 st1 st26">Terminator</text>
</g>
</svg>
