<?xml version="1.0" encoding="utf-8"?>
<!-- Generator: Adobe Illustrator 25.4.1, SVG Export Plug-In . SVG Version: 6.00 Build 0)  -->
<svg version="1.1" id="图层_1" xmlns="http://www.w3.org/2000/svg" xmlns:xlink="http://www.w3.org/1999/xlink" x="0px" y="0px"
	 viewBox="0 0 400 400" style="enable-background:new 0 0 400 400;" xml:space="preserve">
<style type="text/css">
	.st0{fill:#0A0000;}
	.st1{fill:none;stroke:#E5E5E4;stroke-width:7.2;stroke-linecap:round;stroke-linejoin:round;stroke-miterlimit:10;}
	.st2{fill:#D1E3BF;}
	.st3{fill:none;stroke:#0A0000;stroke-width:1.44;stroke-miterlimit:10;}
	.st4{fill:#F0D5D7;}
	.st5{fill:#C7D5E4;}
	.st6{fill:#807C88;}
	.st7{fill:#C6281E;}
	.st8{fill:none;stroke:#0A0000;stroke-width:0.72;stroke-miterlimit:10;}
	.st9{fill:none;stroke:#0A0000;stroke-width:1.5;stroke-miterlimit:10;}
	.st10{fill:none;stroke:#0A0000;stroke-width:0.5;stroke-miterlimit:10;}
	.st11{fill:#221F20;}
	.st12{fill:#C72D2C;}
	.st13{fill:#808080;}
	.st14{fill:#C12B2A;}
	.st15{fill:#0B0404;}
	.st16{fill:#ECCBD2;}
	.st17{fill:none;stroke:#0A0000;stroke-width:1.944;stroke-miterlimit:10;}
	.st18{fill:#D1E2AF;}
	.st19{fill:#CFD6E7;}
	.st20{fill:none;stroke:#0A0000;stroke-width:0.5;}
	.st21{font-family:'ArialMT';}
	.st22{font-size:20px;}
</style>
<g>
	<path class="st0" d="M57.5,133l1.2,6.2c0.3,1.3,0.4,2.2,0.6,3.1l0,0c0.3-0.7,0.6-1.6,1.3-2.9l3.1-6.5h2.2l-4.4,8.9
		c-1.3,2.5-2.5,4.6-4.1,6.1c-1.3,1.3-2.8,1.9-3.3,2l-0.4-1.7c0.4-0.1,1.3-0.4,2.2-1.2c0.7-0.6,1.6-1.6,2.3-2.8
		c0.1-0.1,0.1-0.3,0-0.6l-2.3-10.9L57.5,133L57.5,133z"/>
	<path class="st0" d="M65.4,144.7l3.2-17.1h2l-2,10.7l0,0c0.3-0.4,0.7-0.9,1-1.2l4.1-4.1h2.5l-5.1,4.8l3.5,6.8h-2.2l-2.8-5.8
		l-1.5,1.3l-0.9,4.5C67.3,144.7,65.4,144.7,65.4,144.7z"/>
	<path class="st0" d="M76.5,144.7l3.2-17.1h2l-2,10.7l0,0c0.3-0.4,0.7-0.9,1-1.2l4.1-4.1h2.5l-5.1,4.8l3.5,6.8h-2l-2.8-5.8l-1.5,1.3
		l-0.9,4.5C78.5,144.7,76.5,144.7,76.5,144.7z"/>
	<path class="st0" d="M98.8,144.1c-0.9,0.4-2.3,0.7-4.2,0.7c-4.1,0-6.5-2.6-6.5-6.7c0-3.1,1.2-6,3.5-7.8c1.7-1.5,3.8-2.2,6.1-2.2
		c1.7,0,3.1,0.4,3.5,0.7l-0.6,1.6c-0.6-0.3-1.7-0.7-3.2-0.7c-1.7,0-3.3,0.6-4.6,1.9c-1.5,1.5-2.5,3.8-2.5,6.2c0,2.9,1.3,5.4,4.9,5.4
		c1.2,0,2.6-0.3,3.5-0.7L98.8,144.1z"/>
	<path class="st0" d="M107,137.5v1.6h-6v-1.6H107z"/>
	<path class="st0" d="M111.6,128.5v16.3h-2.2v-16.3H111.6z"/>
	<path class="st0" d="M117.3,128.5v16.3h-2.2v-16.3H117.3z"/>
	<path class="st0" d="M123.1,128.5v16.3h-2.2v-16.3H123.1z"/>
</g>
<line class="st1" x1="246" y1="278.1" x2="246" y2="220.1"/>
<line class="st1" x1="246" y1="180.3" x2="246" y2="151.4"/>
<g>
	<path class="st0" d="M36.2,257.6h-3.9l-0.4,2.6c0.3,0,0.4,0,0.9,0c0.9,0,1.6,0.1,2.3,0.6c0.9,0.4,1.5,1.3,1.5,2.8
		c0,2-1.6,3.6-3.9,3.6c-1.2,0-2-0.3-2.6-0.6l0.3-1c0.4,0.3,1.3,0.6,2.3,0.6c1.3,0,2.5-0.9,2.5-2.3c0-1.5-0.9-2.3-3.1-2.3
		c-0.6,0-1,0-1.5,0.1l0.7-4.9h4.9C36.2,256.4,36.2,257.6,36.2,257.6z"/>
	<path class="st0" d="M38.1,259.6c0.4-1.3,1-3.1,1.5-3.8l0.9-0.1c-0.3,1-0.7,2.6-1,3.8L38.1,259.6z"/>
</g>
<g>
	<path class="st0" d="M33.1,217.5c-2,0-3.5-1.9-3.5-5.4s1.6-5.4,3.6-5.4c2.2,0,3.5,2,3.5,5.2C36.7,215.5,35.4,217.5,33.1,217.5
		L33.1,217.5z M33.2,216.3c1.5,0,2.2-1.7,2.2-4.4s-0.6-4.2-2.2-4.2c-1.3,0-2.2,1.6-2.2,4.2C31,214.7,31.7,216.3,33.2,216.3
		L33.2,216.3z"/>
	<path class="st0" d="M41.8,212.4v1h-3.9v-1H41.8z"/>
	<path class="st0" d="M43.2,215.8c0.4,0.3,1.3,0.6,2.3,0.6c1.7,0,2.3-1.2,2.3-2c0-1.5-1.3-2-2.8-2h-0.7v-1H45c1,0,2.3-0.6,2.3-1.7
		c0-0.9-0.6-1.6-1.9-1.6c-0.9,0-1.6,0.4-2,0.7l-0.4-1c0.6-0.4,1.6-0.9,2.8-0.9c2,0,3.1,1.2,3.1,2.5c0,1.2-0.7,2-1.9,2.5l0,0
		c1.3,0.3,2.3,1.2,2.3,2.6c0,1.7-1.3,3.2-3.8,3.2c-1.2,0-2.2-0.4-2.8-0.7L43.2,215.8z"/>
	<path class="st0" d="M37.4,227.7c0-0.9,0-1.5,0-2.2h1.2l0.1,1.3l0,0c0.4-0.7,1.3-1.5,2.6-1.5c1,0,2.8,0.6,2.8,3.3v4.6h-1.5v-4.5
		c0-1.3-0.4-2.3-1.7-2.3c-0.9,0-1.6,0.7-1.9,1.5c0,0.1-0.1,0.4-0.1,0.7v4.6h-1.5C37.4,233.3,37.4,227.7,37.4,227.7z"/>
	<path class="st0" d="M48,223.7v1.9h2v1h-2v4.2c0,1,0.3,1.5,1,1.5c0.4,0,0.6,0,0.9-0.1v1c-0.3,0.1-0.7,0.1-1.3,0.1
		c-0.7,0-1.2-0.3-1.6-0.6c-0.4-0.4-0.6-1.2-0.6-2v-4.1h-1.2v-1h1.2v-1.5L48,223.7z"/>
</g>
<g>
	<path class="st0" d="M124.3,302.5v-0.9l1.2-1c2.6-2.6,3.9-3.9,3.9-5.5c0-1-0.4-2-2-2c-1,0-1.7,0.4-2.2,0.9l-0.4-1
		c0.7-0.6,1.7-1,2.9-1c2.2,0,3.2,1.6,3.2,3.1c0,1.9-1.5,3.5-3.6,5.7l-0.9,0.7l0,0h4.6v1.2L124.3,302.5L124.3,302.5z"/>
	<path class="st0" d="M136.3,297.7v1h-3.9v-1H136.3z"/>
	<path class="st0" d="M137.8,300.9c0.4,0.3,1.3,0.6,2.3,0.6c1.7,0,2.3-1.2,2.3-2c0-1.5-1.3-2-2.8-2h-0.7v-1h0.7c1,0,2.3-0.6,2.3-1.7
		c0-0.9-0.6-1.6-1.9-1.6c-0.9,0-1.6,0.4-2,0.7l-0.4-1c0.6-0.4,1.6-0.9,2.8-0.9c2,0,3.1,1.2,3.1,2.5c0,1.2-0.7,2-1.9,2.5l0,0
		c1.3,0.3,2.3,1.2,2.3,2.6c0,1.7-1.3,3.2-3.8,3.2c-1.2,0-2.2-0.4-2.8-0.7L137.8,300.9z"/>
	<path class="st0" d="M151,296.8c0-0.9,0-1.5,0-2.2h1.3l0.1,1.3l0,0c0.4-0.7,1.3-1.5,2.6-1.5c1,0,2.8,0.6,2.8,3.3v4.6h-1.5V298
		c0-1.3-0.4-2.3-1.7-2.3c-0.9,0-1.6,0.7-1.9,1.5c0,0.1-0.1,0.4-0.1,0.7v4.6h-1.5v-5.7L151,296.8L151,296.8z"/>
	<path class="st0" d="M161.6,292.9v1.9h2v1h-2v4.2c0,1,0.3,1.5,1,1.5c0.4,0,0.6,0,0.9-0.1v1c-0.3,0.1-0.7,0.1-1.3,0.1
		c-0.7,0-1.2-0.3-1.6-0.6c-0.4-0.4-0.6-1.2-0.6-2v-4.2h-0.9v-1h1.2v-1.5L161.6,292.9z"/>
</g>
<g>
	<path class="st0" d="M30,161.7c0.4,0.3,1.3,0.6,2.3,0.6c1.7,0,2.3-1.2,2.3-2c0-1.5-1.3-2-2.8-2h-0.6v-1H32c1,0,2.3-0.6,2.3-1.7
		c0-0.9-0.6-1.6-1.9-1.6c-0.9,0-1.6,0.4-2,0.7l-0.4-1c0.6-0.4,1.6-0.9,2.8-0.9c2,0,3.1,1.2,3.1,2.5c0,1.2-0.7,2-1.9,2.5l0,0
		c1.3,0.3,2.3,1.2,2.3,2.6c0,1.7-1.3,3.2-3.8,3.2c-1.2,0-2.2-0.4-2.8-0.7L30,161.7z"/>
	<path class="st0" d="M41.8,158.5v1h-3.9v-1H41.8z"/>
	<path class="st0" d="M49.8,152.9v0.9l-4.5,9.6h-1.5l4.5-9.3l0,0h-5.1v-1.2H49.8L49.8,152.9z"/>
	<path class="st0" d="M37.4,173.8c0-0.9,0-1.5,0-2.2h1.2v1.3l0,0c0.4-0.7,1.3-1.5,2.6-1.5c1,0,2.8,0.6,2.8,3.3v4.6h-1.5v-4.5
		c0-1.3-0.4-2.3-1.7-2.3c-0.9,0-1.6,0.7-1.9,1.5c0,0.1-0.1,0.4-0.1,0.7v4.6h-1.5C37.4,179.4,37.4,173.8,37.4,173.8z"/>
	<path class="st0" d="M48,169.7v1.9h2v1h-2v4.2c0,1,0.3,1.5,1,1.5c0.4,0,0.6,0,0.9-0.1v1c-0.3,0.1-0.7,0.1-1.3,0.1
		c-0.7,0-1.2-0.3-1.6-0.6c-0.4-0.4-0.6-1.2-0.6-2v-4.2h-1.2v-1h1.2V170L48,169.7z"/>
</g>
<g>
	<path class="st0" d="M193.1,293.3L193.1,293.3l-1.9,1l-0.3-1l2.3-1.2h1.2v10.5h-1.3V293.3L193.1,293.3z"/>
	<path class="st0" d="M202.1,297.7v1h-3.9v-1H202.1z"/>
	<path class="st0" d="M203.6,300.9c0.4,0.3,1.3,0.6,2.3,0.6c1.7,0,2.3-1.2,2.3-2c0-1.5-1.3-2-2.8-2h-0.7v-1h0.7c1,0,2.3-0.6,2.3-1.7
		c0-0.9-0.6-1.6-1.9-1.6c-0.9,0-1.6,0.4-2,0.7l-0.4-1c0.6-0.4,1.6-0.9,2.8-0.9c2,0,3.1,1.2,3.1,2.5c0,1.2-0.7,2-1.9,2.5l0,0
		c1.3,0.3,2.3,1.2,2.3,2.6c0,1.7-1.3,3.2-3.8,3.2c-1.2,0-2.2-0.4-2.8-0.7L203.6,300.9z"/>
	<path class="st0" d="M211.8,300.9c0.4,0.3,1.3,0.6,2.3,0.6c1.7,0,2.3-1.2,2.3-2c0-1.5-1.3-2-2.8-2H213v-1h0.7c1,0,2.3-0.6,2.3-1.7
		c0-0.9-0.6-1.6-1.9-1.6c-0.9,0-1.6,0.4-2,0.7l-0.4-1c0.6-0.4,1.6-0.9,2.8-0.9c2,0,3.1,1.2,3.1,2.5c0,1.2-0.7,2-1.9,2.5l0,0
		c1.3,0.3,2.3,1.2,2.3,2.6c0,1.7-1.3,3.2-3.8,3.2c-1.2,0-2.2-0.4-2.8-0.7L211.8,300.9z"/>
	<path class="st0" d="M225.1,296.8c0-0.9,0-1.5,0-2.2h1.3l0.1,1.3l0,0c0.4-0.7,1.3-1.5,2.6-1.5c1,0,2.8,0.6,2.8,3.3v4.6h-1.5V298
		c0-1.3-0.4-2.3-1.7-2.3c-0.9,0-1.6,0.7-1.9,1.5c0,0.1-0.1,0.4-0.1,0.7v4.6h-1.5C225.1,302.5,225.1,296.8,225.1,296.8z"/>
	<path class="st0" d="M235.7,292.9v1.9h2v1h-2v4.2c0,1,0.3,1.5,1,1.5c0.4,0,0.6,0,0.9-0.1v1c-0.3,0.1-0.7,0.1-1.3,0.1
		c-0.7,0-1.2-0.3-1.6-0.6c-0.4-0.4-0.6-1.2-0.6-2v-4.2h-1.2v-1h1.2v-1.5L235.7,292.9z"/>
</g>
<g>
	<path class="st0" d="M213.7,251.8c0.4,0.3,1.2,0.6,1.9,0.6c1,0,1.7-0.6,1.7-1.5c0-0.7-0.4-1.2-1.6-1.6c-1.3-0.4-2.2-1.2-2.2-2.3
		c0-1.3,1-2.2,2.6-2.2c0.9,0,1.5,0.1,1.7,0.4l-0.3,0.9c-0.3-0.1-0.7-0.4-1.6-0.4c-1.2,0-1.6,0.7-1.6,1.2c0,0.7,0.4,1.2,1.6,1.6
		c1.3,0.6,2,1.2,2,2.3c0,1.3-0.9,2.3-2.9,2.3c-0.7,0-1.6-0.3-2-0.6L213.7,251.8z"/>
	<path class="st0" d="M219.7,245.1c0.6-0.1,1.5-0.1,2.2-0.1c1.5,0,2.6,0.3,3.3,1s1.2,1.6,1.2,2.9s-0.4,2.5-1.2,3.2
		c-0.7,0.7-2,1.2-3.6,1.2c-0.7,0-1.3,0-1.9-0.1C219.7,253.1,219.7,245.1,219.7,245.1z M220.9,252.4c0.3,0,0.6,0,1,0
		c2.2,0,3.5-1.3,3.5-3.5c0-1.9-1-3.2-3.3-3.2c-0.6,0-1,0-1.2,0.1V252.4L220.9,252.4z"/>
</g>
<g>
	<path class="st0" d="M217.8,187.9h-3.9l-0.4,2.6c0.3,0,0.4,0,0.9,0c0.9,0,1.6,0.1,2.3,0.6c0.9,0.4,1.5,1.3,1.5,2.8
		c0,2-1.6,3.6-3.9,3.6c-1.2,0-2-0.3-2.6-0.6l0.3-1c0.4,0.3,1.3,0.6,2.3,0.6c1.3,0,2.5-0.9,2.5-2.3s-0.9-2.3-3.1-2.3
		c-0.6,0-1,0-1.5,0.1l0.7-4.9h4.9V187.9L217.8,187.9z"/>
	<path class="st0" d="M223.5,192.2v1h-3.9v-1H223.5z"/>
	<path class="st0" d="M227.8,188L227.8,188l-1.9,0.9l-0.3-1l2.3-1.2h1.2v10.5h-1.3V188L227.8,188z"/>
	<path class="st0" d="M236.2,197.3c-2,0-3.5-1.9-3.5-5.4s1.6-5.4,3.6-5.4c2.2,0,3.5,2,3.5,5.2C239.9,195.3,238.6,197.3,236.2,197.3
		L236.2,197.3z M236.4,196.1c1.5,0,2.2-1.7,2.2-4.4s-0.6-4.2-2.2-4.2c-1.3,0-2.2,1.6-2.2,4.2C234.2,194.5,234.9,196.1,236.4,196.1
		L236.4,196.1z"/>
	<path class="st0" d="M227.4,207.5c0-0.9,0-1.5,0-2.2h1.3l0.1,1.3l0,0c0.4-0.7,1.3-1.5,2.6-1.5c1,0,2.8,0.6,2.8,3.3v4.6h-1.5v-4.5
		c0-1.3-0.4-2.3-1.7-2.3c-0.9,0-1.6,0.7-1.9,1.5c0,0.1-0.1,0.4-0.1,0.7v4.6h-1.5v-5.7h-0.1V207.5z"/>
	<path class="st0" d="M238,203.6v1.9h2v1h-2v4.2c0,1,0.3,1.5,1,1.5c0.4,0,0.6,0,0.9-0.1v1c-0.3,0.1-0.7,0.1-1.3,0.1
		c-0.7,0-1.2-0.3-1.6-0.6c-0.4-0.4-0.6-1.2-0.6-2v-4.2h-1.2v-1h1.2v-1.5L238,203.6z"/>
</g>
<g>
	<path class="st0" d="M205.2,168.8c0.3,0.1,0.9,0.4,1.5,0.4c0.7,0,1.2-0.4,1.2-0.9c0-0.4-0.3-0.7-1-1c-1-0.4-1.6-1-1.6-1.6
		c0-0.9,0.7-1.7,2-1.7c0.6,0,1.2,0.1,1.5,0.3l-0.3,0.7c-0.3-0.1-0.6-0.3-1.2-0.3c-0.6,0-1,0.3-1,0.7s0.3,0.7,1.2,1
		c1,0.4,1.6,0.9,1.6,1.7c0,1-0.9,1.7-2.2,1.7c-0.6,0-1.2-0.1-1.6-0.4L205.2,168.8L205.2,168.8z"/>
	<path class="st0" d="M211.3,162.7v1.5h1.5v0.9h-1.5v3.2c0,0.7,0.1,1.2,0.7,1.2c0.3,0,0.4,0,0.6,0v0.9c-0.1,0-0.6,0.1-0.9,0.1
		c-0.4,0-0.9-0.1-1.2-0.4c-0.3-0.3-0.4-0.9-0.4-1.6v-3.2h-0.9v-0.9h0.9v-1L211.3,162.7z"/>
	<path class="st0" d="M218.1,168.5c0,0.4,0,1,0.1,1.5h-1l-0.1-0.7l0,0c-0.3,0.4-1,0.9-1.7,0.9c-1.2,0-1.7-0.9-1.7-1.7
		c0-1.5,1.3-2.2,3.5-2.2v-0.1c0-0.4-0.1-1.3-1.3-1.3c-0.6,0-1.2,0.1-1.6,0.4l-0.3-0.7c0.4-0.3,1.2-0.4,1.9-0.4
		c1.7,0,2.2,1.2,2.2,2.3v2.2h0V168.5z M217.1,167c-1.2,0-2.5,0.1-2.5,1.3c0,0.7,0.4,1,1,1c0.7,0,1.3-0.4,1.5-1c0-0.1,0-0.3,0-0.3
		V167z"/>
	<path class="st0" d="M219.8,165.9c0-0.7,0-1.3,0-1.9h0.9v1.2l0,0c0.3-0.7,0.9-1.3,1.6-1.3c0.1,0,0.1,0,0.3,0v1c-0.1,0-0.3,0-0.4,0
		c-0.7,0-1.3,0.6-1.5,1.3c0,0.1,0,0.3,0,0.4v3.1h-1L219.8,165.9z"/>
	<path class="st0" d="M225.1,162.7v1.5h1.5v0.9h-1.5v3.2c0,0.7,0.1,1.2,0.7,1.2c0.3,0,0.4,0,0.6,0v0.9c-0.1,0-0.6,0.1-0.9,0.1
		c-0.4,0-0.9-0.1-1.2-0.4c-0.3-0.3-0.4-0.9-0.4-1.6v-3.2H223v-0.9h0.9v-1L225.1,162.7z"/>
</g>
<rect x="74" y="175.5" class="st2" width="10.5" height="35.4"/>
<line class="st3" x1="79.2" y1="197.2" x2="79.2" y2="189.3"/>
<rect x="88.4" y="175.5" class="st4" width="10.5" height="35.4"/>
<line class="st3" x1="93.6" y1="197.2" x2="93.6" y2="189.3"/>
<rect x="102.9" y="175.5" class="st2" width="10.5" height="35.4"/>
<line class="st3" x1="108.1" y1="197.2" x2="108.1" y2="189.3"/>
<rect x="117.4" y="175.5" class="st4" width="10.5" height="35.4"/>
<line class="st3" x1="122.7" y1="197.2" x2="122.7" y2="189.3"/>
<rect x="156.7" y="272.5" class="st5" width="35" height="10.9"/>
<line class="st3" x1="170.2" y1="278.1" x2="178" y2="278.1"/>
<line class="st3" x1="170.2" y1="263.5" x2="178" y2="263.5"/>
<line class="st3" x1="170.2" y1="249" x2="178" y2="249"/>
<line class="st3" x1="170.2" y1="234.6" x2="178" y2="234.6"/>
<rect x="156.7" y="214.7" class="st2" width="35" height="10.9"/>
<line class="st3" x1="170.2" y1="220.1" x2="178" y2="220.1"/>
<rect x="156.7" y="200.2" class="st4" width="35" height="10.9"/>
<line class="st3" x1="170.2" y1="205.6" x2="178" y2="205.6"/>
<rect x="156.7" y="185.7" class="st4" width="35" height="10.9"/>
<line class="st3" x1="170.2" y1="191.2" x2="178" y2="191.2"/>
<line class="st3" x1="64.7" y1="253.1" x2="64.7" y2="245.2"/>
<line class="st3" x1="79.2" y1="253.1" x2="79.2" y2="245.2"/>
<g>
	<path class="st6" d="M64,211v-4.6l-3.5-6.2h1.6l1.6,3.1c0.4,0.9,0.7,1.5,1,2.2l0,0c0.3-0.7,0.7-1.5,1.2-2.2l1.6-3.1h1.6l-3.6,6.2
		v4.6H64z"/>
</g>
<g>
	<path class="st7" d="M83.3,210.7c-0.4,0.3-1.6,0.6-2.9,0.6c-3.1,0-5.4-1.9-5.4-5.5c0-3.3,2.3-5.7,5.7-5.7c1.3,0,2.2,0.3,2.6,0.4
		l-0.3,1.2c-0.6-0.3-1.3-0.4-2.2-0.4c-2.5,0-4.2,1.6-4.2,4.5c0,2.6,1.6,4.4,4.2,4.4c0.9,0,1.7-0.1,2.3-0.4L83.3,210.7z"/>
</g>
<g>
	<path class="st7" d="M97.8,210.7c-0.4,0.3-1.6,0.6-2.9,0.6c-3.1,0-5.4-1.9-5.4-5.5c0-3.3,2.3-5.7,5.7-5.7c1.3,0,2.2,0.3,2.6,0.4
		l-0.3,1.2c-0.6-0.3-1.3-0.4-2.2-0.4c-2.5,0-4.2,1.6-4.2,4.5c0,2.6,1.6,4.4,4.2,4.4c0.9,0,1.7-0.1,2.3-0.4L97.8,210.7z"/>
</g>
<g>
	<path class="st6" d="M112.4,210.5c-0.6,0.3-1.9,0.6-3.3,0.6c-1.6,0-3.1-0.4-4.1-1.5c-0.9-0.9-1.5-2.3-1.5-4.1
		c0-3.2,2.2-5.7,5.8-5.7c1.3,0,2.3,0.3,2.8,0.4l-0.3,1.2c-0.6-0.3-1.3-0.4-2.3-0.4c-2.6,0-4.4,1.6-4.4,4.4s1.6,4.4,4.2,4.4
		c0.9,0,1.6-0.1,1.9-0.3v-3.2H109v-1.2h3.6v5.4L112.4,210.5L112.4,210.5z"/>
</g>
<g>
	<path class="st7" d="M126.9,210.5c-0.6,0.3-1.9,0.6-3.3,0.6c-1.6,0-3.1-0.4-4.1-1.5c-0.9-0.9-1.5-2.3-1.5-4.1
		c0-3.2,2.2-5.7,5.8-5.7c1.3,0,2.3,0.3,2.8,0.4l-0.3,1.2c-0.6-0.3-1.3-0.4-2.3-0.4c-2.6,0-4.4,1.6-4.4,4.4s1.6,4.4,4.2,4.4
		c0.9,0,1.6-0.1,1.9-0.3v-3.2h-2.2v-1.2h3.6L126.9,210.5L126.9,210.5z"/>
</g>
<g>
	<path class="st7" d="M130.9,217.8l-1.2,3.3h-1.5l3.6-10.9h1.7l3.6,10.9h-1.5l-1.2-3.3H130.9z M134.4,216.6l-1-3.1
		c-0.3-0.7-0.4-1.3-0.6-2l0,0c-0.1,0.6-0.3,1.3-0.6,2l-1,3.2L134.4,216.6L134.4,216.6z"/>
</g>
<g>
	<path class="st7" d="M136.9,235.4c-0.4,0.3-1.6,0.6-2.9,0.6c-3.1,0-5.4-1.9-5.4-5.5c0-3.3,2.3-5.7,5.7-5.7c1.3,0,2.2,0.3,2.6,0.4
		l-0.3,1.2c-0.6-0.3-1.3-0.4-2.2-0.4c-2.5,0-4.2,1.6-4.2,4.5c0,2.6,1.6,4.4,4.2,4.4c0.9,0,1.7-0.1,2.3-0.4L136.9,235.4z"/>
</g>
<g>
	<path class="st7" d="M137.2,249.6c-0.6,0.3-1.9,0.6-3.3,0.6c-1.6,0-3.1-0.4-4.1-1.5c-0.9-0.9-1.5-2.3-1.5-4.1
		c0-3.2,2.2-5.7,5.8-5.7c1.3,0,2.3,0.3,2.8,0.4l-0.3,1.2c-0.6-0.3-1.3-0.4-2.3-0.4c-2.6,0-4.4,1.6-4.4,4.4c0,2.8,1.6,4.4,4.2,4.4
		c0.9,0,1.6-0.1,1.9-0.3v-3.1h-2.2v-1.2h3.6C137.2,244.4,137.2,249.6,137.2,249.6z"/>
</g>
<g>
	<path class="st7" d="M130.9,261.2l-1.2,3.3h-1.5l3.6-10.9h1.7l3.6,10.9h-1.5l-1.2-3.3H130.9z M134.4,260.1l-1-3.1
		c-0.3-0.7-0.4-1.3-0.6-2l0,0c-0.1,0.6-0.3,1.3-0.6,2l-1,3.2L134.4,260.1L134.4,260.1z"/>
</g>
<g>
	<path class="st7" d="M166.1,283c-0.6,0.3-1.9,0.6-3.3,0.6c-1.6,0-3.1-0.4-4.1-1.5c-0.9-0.9-1.5-2.3-1.5-4.1c0-3.2,2.2-5.7,5.8-5.7
		c1.3,0,2.3,0.3,2.8,0.4l-0.3,1.2c-0.6-0.3-1.3-0.4-2.3-0.4c-2.6,0-4.4,1.6-4.4,4.4s1.6,4.4,4.2,4.4c0.9,0,1.6-0.1,1.9-0.3v-3.1
		h-2.2v-1.2h3.6v5.2h-0.2V283z"/>
</g>
<g>
	<path class="st6" d="M161,268.9v-4.5l-3.5-6.2h1.6l1.6,3.1c0.4,0.9,0.7,1.5,1,2.2l0,0c0.3-0.7,0.7-1.5,1.2-2.2l1.6-3.1h1.6
		l-3.6,6.2v4.6C162.5,268.9,161,268.9,161,268.9z"/>
</g>
<g>
	<path class="st6" d="M158.7,243.8c0.7-0.1,1.7-0.3,2.6-0.3c1.5,0,2.5,0.3,3.2,0.9c0.6,0.4,0.9,1.2,0.9,2c0,1.5-0.9,2.3-2,2.8l0,0
		c0.9,0.3,1.3,1,1.6,2.2c0.3,1.5,0.6,2.6,0.9,2.9h-1.5c-0.1-0.3-0.4-1.3-0.7-2.6c-0.3-1.5-0.9-2-2.2-2.2h-1.3v4.6h-1.5
		C158.7,254.5,158.7,243.8,158.7,243.8z M160.1,248.7h1.5c1.5,0,2.5-0.9,2.5-2c0-1.5-1-2-2.5-2c-0.7,0-1.2,0-1.5,0.1V248.7z"/>
</g>
<g>
	<path class="st6" d="M165.9,239.7c-0.4,0.3-1.6,0.6-2.9,0.6c-3.1,0-5.4-1.9-5.4-5.5c0-3.3,2.3-5.7,5.7-5.7c1.3,0,2.2,0.3,2.6,0.4
		l-0.3,1.2c-0.6-0.3-1.3-0.4-2.2-0.4c-2.5,0-4.2,1.6-4.2,4.5c0,2.6,1.6,4.4,4.2,4.4c0.9,0,1.7-0.1,2.3-0.4L165.9,239.7z"/>
</g>
<g>
	<path class="st6" d="M165.9,225.2c-0.4,0.3-1.6,0.6-2.9,0.6c-3.1,0-5.4-1.9-5.4-5.5c0-3.3,2.3-5.7,5.7-5.7c1.3,0,2.2,0.3,2.6,0.4
		l-0.3,1.2c-0.6-0.3-1.3-0.4-2.2-0.4c-2.5,0-4.2,1.6-4.2,4.5c0,2.6,1.6,4.4,4.2,4.4c0.9,0,1.7-0.1,2.3-0.4L165.9,225.2z"/>
</g>
<g>
	<path class="st7" d="M166.1,210.5c-0.6,0.3-1.9,0.6-3.3,0.6c-1.6,0-3.1-0.4-4.1-1.5c-0.9-0.9-1.5-2.3-1.5-4.1
		c0-3.2,2.2-5.7,5.8-5.7c1.3,0,2.3,0.3,2.8,0.4l-0.3,1.2c-0.6-0.3-1.3-0.4-2.3-0.4c-2.6,0-4.4,1.6-4.4,4.4s1.6,4.4,4.2,4.4
		c0.9,0,1.6-0.1,1.9-0.3v-3.2h-2.2v-1.2h3.6v5.4L166.1,210.5L166.1,210.5z"/>
</g>
<g>
	<path class="st7" d="M159.3,185.7v6.4c0,2.5,1,3.5,2.5,3.5c1.6,0,2.6-1,2.6-3.5v-6.4h1.5v6.4c0,3.3-1.7,4.6-4.1,4.6
		c-2.2,0-3.9-1.3-3.9-4.6v-6.4H159.3L159.3,185.7z"/>
</g>
<g>
	<path class="st7" d="M149.5,182.9l-1.2,3.3h-1.5l3.6-10.9h1.7l3.6,10.9h-1.5l-1.2-3.3C153.5,182.9,149.5,182.9,149.5,182.9z
		 M153.2,181.8l-1-3.1c-0.3-0.7-0.4-1.3-0.6-2l0,0c-0.1,0.6-0.3,1.3-0.6,2l-1,3.2L153.2,181.8L153.2,181.8z"/>
</g>
<g>
	<path class="st7" d="M141.3,186c-0.4,0.3-1.6,0.6-2.9,0.6c-3.1,0-5.4-1.9-5.4-5.5c0-3.3,2.3-5.7,5.7-5.7c1.3,0,2.2,0.3,2.6,0.4
		L141,177c-0.6-0.3-1.3-0.4-2.2-0.4c-2.5,0-4.2,1.6-4.2,4.5c0,2.6,1.6,4.4,4.2,4.4c0.9,0,1.7-0.1,2.3-0.4L141.3,186z"/>
</g>
<g>
	<path class="st7" d="M126.7,186c-0.4,0.3-1.6,0.6-2.9,0.6c-3.1,0-5.4-1.9-5.4-5.5c0-3.3,2.3-5.7,5.7-5.7c1.3,0,2.2,0.3,2.6,0.4
		l-0.3,1.2c-0.6-0.3-1.3-0.4-2.2-0.4c-2.5,0-4.2,1.6-4.2,4.5c0,2.6,1.6,4.4,4.2,4.4c0.9,0,1.7-0.1,2.3-0.4L126.7,186z"/>
</g>
<g>
	<path class="st6" d="M112.2,186c-0.4,0.3-1.6,0.6-2.9,0.6c-3.1,0-5.4-1.9-5.4-5.5c0-3.3,2.3-5.7,5.7-5.7c1.3,0,2.2,0.3,2.6,0.4
		l-0.3,1.2c-0.6-0.3-1.3-0.4-2.2-0.4c-2.5,0-4.2,1.6-4.2,4.5c0,2.6,1.6,4.4,4.2,4.4c0.9,0,1.7-0.1,2.3-0.4L112.2,186z"/>
</g>
<g>
	<path class="st7" d="M98,185.8c-0.6,0.3-1.9,0.6-3.3,0.6c-1.6,0-3.1-0.4-4.1-1.5c-0.9-0.9-1.5-2.3-1.5-4.1c0-3.2,2.2-5.7,5.8-5.7
		c1.3,0,2.3,0.3,2.8,0.4l-0.3,1.2c-0.6-0.3-1.3-0.4-2.3-0.4c-2.6,0-4.4,1.6-4.4,4.4s1.6,4.4,4.2,4.4c0.9,0,1.6-0.1,1.9-0.3v-3.2
		h-2.2v-1.2h3.6v5.4L98,185.8L98,185.8z"/>
</g>
<g>
	<path class="st7" d="M83.5,185.8c-0.6,0.3-1.9,0.6-3.3,0.6c-1.6,0-3.1-0.4-4.1-1.5c-0.9-0.9-1.5-2.3-1.5-4.1c0-3.2,2.2-5.7,5.8-5.7
		c1.3,0,2.3,0.3,2.8,0.4l-0.3,1.2c-0.6-0.3-1.3-0.4-2.3-0.4c-2.6,0-4.4,1.6-4.4,4.4s1.6,4.4,4.2,4.4c0.9,0,1.6-0.1,1.9-0.3v-3.2
		h-2.2v-1.2h3.6C83.5,180.6,83.5,185.8,83.5,185.8z"/>
</g>
<g>
	<path class="st0" d="M137,156.9c-0.6,0.3-1.9,0.6-3.3,0.6c-1.6,0-3.1-0.4-4.1-1.5c-0.9-0.9-1.5-2.3-1.5-4.1c0-3.2,2.2-5.7,5.8-5.7
		c1.3,0,2.3,0.3,2.8,0.4l-0.3,1.2c-0.6-0.3-1.3-0.4-2.3-0.4c-2.6,0-4.4,1.6-4.4,4.4c0,2.8,1.6,4.4,4.2,4.4c0.9,0,1.6-0.1,1.9-0.3
		v-3.2h-2.2v-1.2h3.6L137,156.9L137,156.9z"/>
</g>
<g>
	<path class="st6" d="M145.3,154l-1.2,3.3h-1.5l3.6-10.9h1.7l3.6,10.9H150l-1.2-3.3H145.3z M148.8,152.9l-1-3.1
		c-0.3-0.7-0.4-1.3-0.6-2l0,0c-0.1,0.6-0.3,1.3-0.6,2l-1,3.2L148.8,152.9L148.8,152.9z"/>
</g>
<g>
	<path class="st6" d="M165.8,157.1c-0.4,0.3-1.6,0.6-2.9,0.6c-3.1,0-5.4-1.9-5.4-5.5c0-3.3,2.3-5.7,5.7-5.7c1.3,0,2.2,0.3,2.6,0.4
		l-0.3,1.2c-0.6-0.3-1.3-0.4-2.2-0.4c-2.5,0-4.2,1.6-4.2,4.5c0,2.6,1.6,4.4,4.2,4.4c0.9,0,1.7-0.1,2.3-0.4L165.8,157.1z"/>
</g>
<g>
	<path class="st7" d="M174.2,154l-1.2,3.3h-1.5l3.6-10.9h1.7l3.6,10.9h-1.5L178,154H174.2z M177.7,152.9l-1-3.1
		c-0.3-0.7-0.4-1.3-0.6-2l0,0c-0.1,0.6-0.3,1.3-0.6,2l-1,3.2L177.7,152.9L177.7,152.9z"/>
</g>
<g>
	<path class="st7" d="M184.4,164.2l-1.2,3.3h-1.5l3.6-10.9h1.7l3.6,10.9h-1.5l-1.2-3.3H184.4z M188,163.2l-1-3.1
		c-0.3-0.7-0.4-1.3-0.6-2l0,0c-0.1,0.6-0.3,1.3-0.6,2l-1,3.2L188,163.2L188,163.2z"/>
</g>
<g>
	<path class="st7" d="M190.6,181.6c-0.6,0.3-1.9,0.6-3.3,0.6c-1.6,0-3.1-0.4-4.1-1.5c-0.9-0.9-1.5-2.3-1.5-4.1
		c0-3.2,2.2-5.7,5.8-5.7c1.3,0,2.3,0.3,2.8,0.4l-0.3,1.2c-0.6-0.3-1.3-0.4-2.3-0.4c-2.6,0-4.4,1.6-4.4,4.4c0,2.8,1.6,4.4,4.2,4.4
		c0.9,0,1.6-0.1,1.9-0.3v-3.2h-2.2v-1.2h3.6v5.4L190.6,181.6L190.6,181.6z"/>
</g>
<g>
	<path class="st7" d="M184.4,193.1l-1.2,3.3h-1.5l3.6-10.9h1.7l3.6,10.9h-1.5l-1.2-3.3H184.4z M188,192.1l-1-3.1
		c-0.3-0.7-0.4-1.3-0.6-2l0,0c-0.1,0.6-0.3,1.3-0.6,2l-1,3.2L188,192.1L188,192.1z"/>
</g>
<g>
	<path class="st7" d="M190.5,210.7c-0.4,0.3-1.6,0.6-2.9,0.6c-3.1,0-5.4-1.9-5.4-5.5c0-3.3,2.3-5.7,5.7-5.7c1.3,0,2.2,0.3,2.6,0.4
		l-0.3,1.2c-0.6-0.3-1.3-0.4-2.2-0.4c-2.5,0-4.2,1.6-4.2,4.5c0,2.6,1.6,4.4,4.2,4.4c0.9,0,1.7-0.1,2.3-0.4L190.5,210.7z"/>
</g>
<g>
	<path class="st6" d="M190.6,225c-0.6,0.3-1.9,0.6-3.3,0.6c-1.6,0-3.1-0.4-4.1-1.5c-0.9-0.9-1.5-2.3-1.5-4.1c0-3.2,2.2-5.7,5.8-5.7
		c1.3,0,2.3,0.3,2.8,0.4l-0.3,1.2c-0.6-0.3-1.3-0.4-2.3-0.4c-2.6,0-4.4,1.6-4.4,4.4c0,2.8,1.6,4.4,4.2,4.4c0.9,0,1.6-0.1,1.9-0.3
		v-3.2h-2.2v-1.2h3.6v5.4L190.6,225L190.6,225z"/>
</g>
<g>
	<path class="st7" d="M183.2,229.3c0.7-0.1,1.7-0.3,2.6-0.3c1.5,0,2.5,0.3,3.2,0.9c0.6,0.4,0.9,1.2,0.9,2c0,1.5-0.9,2.3-2,2.8l0,0
		c0.9,0.3,1.3,1,1.6,2.2c0.3,1.5,0.6,2.6,0.9,2.9h-1.5c-0.1-0.3-0.4-1.3-0.7-2.6c-0.3-1.5-0.9-2-2.2-2.2h-1.3v4.6h-1.5
		C183.2,240,183.2,229.3,183.2,229.3z M184.7,234.2h1.5c1.5,0,2.5-0.9,2.5-2c0-1.5-1-2-2.5-2c-0.7,0-1.2,0-1.5,0.1V234.2z"/>
</g>
<g>
	<path class="st6" d="M185.7,254.5v-4.6l-3.5-6.2h1.6l1.6,3.1c0.4,0.9,0.7,1.5,1,2.2l0,0c0.3-0.7,0.7-1.5,1.2-2.2l1.6-3.1h1.6
		l-3.6,6.2v4.6C187.2,254.5,185.7,254.5,185.7,254.5z"/>
</g>
<circle class="st7" cx="186.4" cy="263.5" r="4.5"/>
<circle class="st8" cx="186.4" cy="263.5" r="4.5"/>
<g>
	<path class="st0" d="M190.5,283.1c-0.4,0.3-1.6,0.6-2.9,0.6c-3.1,0-5.4-1.9-5.4-5.5c0-3.3,2.3-5.7,5.7-5.7c1.3,0,2.2,0.3,2.6,0.4
		l-0.3,1.2c-0.6-0.3-1.3-0.4-2.2-0.4c-2.5,0-4.2,1.6-4.2,4.5c0,2.6,1.6,4.4,4.2,4.4c0.9,0,1.7-0.1,2.3-0.4L190.5,283.1z"/>
</g>
<g>
	<path class="st7" d="M242.9,272.7c0.7-0.1,1.7-0.3,2.6-0.3c1.5,0,2.5,0.3,3.2,0.9c0.6,0.4,0.9,1.2,0.9,2c0,1.5-0.9,2.3-2,2.8l0,0
		c0.9,0.3,1.3,1,1.6,2.2c0.3,1.5,0.6,2.6,0.9,2.9h-1.5c-0.1-0.3-0.4-1.3-0.7-2.6c-0.3-1.5-0.9-2-2.2-2.2h-1.3v4.6h-1.5
		C242.9,283.4,242.9,272.7,242.9,272.7z M244.2,277.6h1.5c1.5,0,2.5-0.9,2.5-2c0-1.5-1-2-2.5-2c-0.7,0-1.2,0-1.5,0.1V277.6z"/>
</g>
<g>
	<path class="st7" d="M242.9,258.3c0.7-0.1,1.7-0.3,2.6-0.3c1.5,0,2.5,0.3,3.2,0.9c0.6,0.4,0.9,1.2,0.9,2c0,1.5-0.9,2.3-2,2.8l0,0
		c0.9,0.3,1.3,1,1.6,2.2c0.3,1.5,0.6,2.6,0.9,2.9h-1.5c-0.1-0.3-0.4-1.3-0.7-2.6c-0.3-1.5-0.9-2-2.2-2.2h-1.3v4.6h-1.5
		C242.9,268.9,242.9,258.3,242.9,258.3z M244.2,263.2h1.5c1.5,0,2.5-0.9,2.5-2c0-1.5-1-2-2.5-2c-0.7,0-1.2,0-1.5,0.1V263.2z"/>
</g>
<g>
	<path class="st7" d="M242.9,243.8c0.7-0.1,1.7-0.3,2.6-0.3c1.5,0,2.5,0.3,3.2,0.9c0.6,0.4,0.9,1.2,0.9,2c0,1.5-0.9,2.3-2,2.8l0,0
		c0.9,0.3,1.3,1,1.6,2.2c0.3,1.5,0.6,2.6,0.9,2.9h-1.5c-0.1-0.3-0.4-1.3-0.7-2.6c-0.3-1.5-0.9-2-2.2-2.2h-1.3v4.6h-1.5
		C242.9,254.5,242.9,243.8,242.9,243.8z M244.2,248.7h1.5c1.5,0,2.5-0.9,2.5-2c0-1.5-1-2-2.5-2c-0.7,0-1.2,0-1.5,0.1V248.7z"/>
</g>
<g>
	<path class="st7" d="M242.9,229.3c0.7-0.1,1.7-0.3,2.6-0.3c1.5,0,2.5,0.3,3.2,0.9c0.6,0.4,0.9,1.2,0.9,2c0,1.5-0.9,2.3-2,2.8l0,0
		c0.9,0.3,1.3,1,1.6,2.2c0.3,1.5,0.6,2.6,0.9,2.9h-1.5c-0.1-0.3-0.4-1.3-0.7-2.6c-0.3-1.5-0.9-2-2.2-2.2h-1.3v4.6h-1.5
		C242.9,240,242.9,229.3,242.9,229.3z M244.2,234.2h1.5c1.5,0,2.5-0.9,2.5-2c0-1.5-1-2-2.5-2c-0.7,0-1.2,0-1.5,0.1V234.2z"/>
</g>
<g>
	<path class="st6" d="M242.9,214.9c0.7-0.1,1.7-0.3,2.6-0.3c1.5,0,2.5,0.3,3.2,0.9c0.6,0.4,0.9,1.2,0.9,2c0,1.5-0.9,2.3-2,2.8l0,0
		c0.9,0.3,1.3,1,1.6,2.2c0.3,1.5,0.6,2.6,0.9,2.9h-1.5c-0.1-0.3-0.4-1.3-0.7-2.6c-0.3-1.5-0.9-2-2.2-2.2h-1.3v4.6h-1.5
		C242.9,225.5,242.9,214.9,242.9,214.9z M244.2,219.8h1.5c1.5,0,2.5-0.9,2.5-2c0-1.5-1-2-2.5-2c-0.7,0-1.2,0-1.5,0.1V219.8z"/>
</g>
<g>
	<path class="st6" d="M244.1,182.3l-1.2,3.3h-1.5l3.6-10.9h1.7l3.6,10.9H249l-1.2-3.3C247.9,182.3,244.1,182.3,244.1,182.3z
		 M247.6,181.2l-1-3.1c-0.3-0.7-0.4-1.3-0.6-2l0,0c-0.1,0.6-0.3,1.3-0.6,2l-1,3.2L247.6,181.2L247.6,181.2z"/>
</g>
<g>
	<path class="st7" d="M243.4,160.4v6.4c0,2.5,1,3.5,2.5,3.5c1.6,0,2.6-1,2.6-3.5v-6.4h1.5v6.4c0,3.3-1.7,4.6-4.1,4.6
		c-2.2,0-3.9-1.3-3.9-4.6v-6.4H243.4L243.4,160.4z"/>
</g>
<g>
	<path class="st7" d="M250.3,156.3c-0.6,0.3-1.9,0.6-3.3,0.6c-1.6,0-3.1-0.4-4.1-1.5c-0.9-0.9-1.5-2.3-1.5-4.1
		c0-3.2,2.2-5.7,5.8-5.7c1.3,0,2.3,0.3,2.8,0.4l-0.3,1.2c-0.6-0.3-1.3-0.4-2.3-0.4c-2.6,0-4.4,1.6-4.4,4.4s1.6,4.4,4.2,4.4
		c0.9,0,1.6-0.1,1.9-0.3v-3.2H247v-1h3.6v5.2L250.3,156.3L250.3,156.3z"/>
</g>
<path class="st9" d="M186.4,284.9c0,1.9,1.6,3.3,3.3,3.3h6.8h39.1h6.8c1.9,0,3.3-1.6,3.3-3.3"/>
<path class="st9" d="M132.8,273.7v-7.3v18.4c0,1.9,1.6,3.3,3.3,3.3h6.8h8.4h6.8c1.9,0,3.3-1.6,3.3-3.3"/>
<polyline class="st9" points="246,205.6 246,212.8 246,194.8 246,187.6 "/>
<path class="st9" d="M42.3,261.5h15.1h21.8c1.2,1.5,2.3,2.8,3.8,3.8c8.9,6.8,21.6,5.1,28.5-3.8c6.8-8.9,5.1-21.6-3.8-28.5
	c-8.9-6.8-21.6-5.1-28.5,3.8H57.9c-1.9,0-3.3-1.6-3.3-3.3v-6.8v-10.9V209c0-1.9,1.6-3.3,3.3-3.3"/>
<line class="st10" x1="238" y1="249" x2="229.9" y2="249"/>
<line class="st10" x1="238" y1="165.8" x2="229.9" y2="165.8"/>
<path class="st9" d="M64.7,180.9H72H57.9c-1.9,0-3.3-1.6-3.3-3.3v-6.8v-8.4v-6.8c0-1.9,1.6-3.3,3.3-3.3h68.4"/>
<g>
	<path class="st0" d="M60.2,266.7c0.9-0.1,1.9-0.3,3.3-0.3c1.7,0,3.1,0.4,3.8,1.2c0.7,0.6,1.2,1.6,1.2,2.9c0,1.2-0.3,2.2-1,2.9
		c-0.9,1-2.5,1.5-4.2,1.5c-0.6,0-1,0-1.5-0.1v5.4h-1.7L60.2,266.7L60.2,266.7z M62,273.1c0.4,0.1,0.9,0.1,1.5,0.1
		c2.2,0,3.3-1,3.3-2.9c0-1.7-1.3-2.6-3.2-2.6c-0.7,0-1.3,0.1-1.6,0.1C62,267.9,62,273.1,62,273.1z"/>
	<path class="st0" d="M74.2,268.6L74.2,268.6l-2.3,1.2l-0.3-1.3l2.9-1.6H76V280h-1.7L74.2,268.6L74.2,268.6z"/>
</g>
<g>
	<path class="st0" d="M195.7,219.1c0.9-0.1,1.9-0.3,3.3-0.3c1.7,0,3.1,0.4,3.8,1.2c0.7,0.6,1.2,1.6,1.2,2.9c0,1.2-0.3,2.2-1,2.9
		c-0.9,1-2.5,1.5-4.2,1.5c-0.6,0-1,0-1.5-0.1v5.4h-1.7L195.7,219.1L195.7,219.1z M197.5,225.6c0.4,0.1,0.9,0.1,1.5,0.1
		c2.2,0,3.3-1,3.3-2.9c0-1.7-1.3-2.6-3.2-2.6c-0.7,0-1.3,0.1-1.6,0.1C197.5,220.4,197.5,225.6,197.5,225.6z"/>
	<path class="st0" d="M206.2,230.6c0.4,0.3,1.6,0.9,2.9,0.9c2.3,0,2.9-1.5,2.9-2.5c0-1.9-1.6-2.6-3.3-2.6h-1V225h1
		c1.3,0,2.9-0.7,2.9-2.2c0-1-0.7-2-2.3-2c-1,0-2,0.4-2.6,0.9l-0.4-1.3c0.7-0.4,2-1,3.5-1c2.6,0,3.8,1.6,3.8,3.1
		c0,1.3-0.9,2.5-2.5,3.1l0,0c1.6,0.3,2.9,1.5,2.9,3.3c0,2-1.6,3.9-4.8,3.9c-1.5,0-2.8-0.4-3.3-0.9L206.2,230.6z"/>
</g>
<g>
	<path class="st0" d="M104.7,160.4c0.9-0.1,1.9-0.3,3.3-0.3c1.7,0,3.1,0.4,3.8,1.2c0.7,0.6,1.2,1.6,1.2,2.9c0,1.2-0.3,2.2-1,2.9
		c-0.9,1-2.5,1.5-4.2,1.5c-0.6,0-1,0-1.5-0.1v5.4h-1.7L104.7,160.4L104.7,160.4z M106.4,167c0.4,0.1,0.9,0.1,1.5,0.1
		c2.2,0,3.3-1,3.3-2.9c0-1.7-1.3-2.6-3.2-2.6c-0.7,0-1.3,0.1-1.6,0.1C106.4,161.7,106.4,167,106.4,167z"/>
	<path class="st0" d="M114.7,173.8v-1l1.5-1.3c3.3-3.2,4.8-4.8,4.8-6.8c0-1.3-0.6-2.6-2.6-2.6c-1.2,0-2.2,0.6-2.8,1.2L115,162
		c0.9-0.7,2.2-1.3,3.6-1.3c2.8,0,3.9,1.9,3.9,3.8c0,2.5-1.7,4.4-4.5,7l-1,1l0,0h5.8v1.5h-8.1V173.8z"/>
</g>
<g>
	<path class="st0" d="M275.3,243.9c0.2,0,0.3,0,0.6,0c0.4-0.1,0.8-0.2,1.1-0.5c0.4-0.3,0.6-0.8,0.7-1.5l0,0
		c-0.3,0.4-0.7,0.6-1.3,0.6c-1,0-1.6-0.8-1.6-1.7c0-1.1,0.7-2,1.8-2s1.8,0.9,1.8,2.4c0,1.2-0.4,2.1-0.9,2.6c-0.4,0.4-1,0.7-1.6,0.8
		c-0.3,0-0.5,0.1-0.7,0L275.3,243.9L275.3,243.9z M276.6,239.3c-0.6,0-1,0.6-1,1.4c0,0.7,0.4,1.2,1,1.2c0.5,0,0.9-0.3,1.1-0.6
		c0-0.1,0.1-0.2,0.1-0.3C277.7,240,277.4,239.3,276.6,239.3L276.6,239.3z"/>
	<path class="st0" d="M280.8,244.5c-1,0-1.8-1-1.8-2.9s0.8-2.9,1.9-2.9s1.8,1.1,1.8,2.8C282.7,243.4,282,244.5,280.8,244.5
		L280.8,244.5z M280.9,243.9c0.7,0,1.1-0.9,1.1-2.3s-0.3-2.3-1.1-2.3c-0.7,0-1.1,0.9-1.1,2.3S280.2,243.9,280.9,243.9L280.9,243.9z"
		/>
	<path class="st0" d="M284.5,238.7c0.7,0,1.2,0.6,1.2,1.7c0,1.2-0.6,1.8-1.3,1.8c-0.7,0-1.2-0.6-1.3-1.7
		C283.2,239.3,283.8,238.7,284.5,238.7L284.5,238.7L284.5,238.7z M284.5,239.1c-0.4,0-0.7,0.6-0.7,1.3s0.2,1.3,0.7,1.3
		s0.7-0.5,0.7-1.3C285.2,239.7,285,239.1,284.5,239.1L284.5,239.1z M284.4,244.5l3.2-5.8h0.5l-3.2,5.8H284.4z M288,241
		c0.7,0,1.2,0.6,1.2,1.7c0,1.2-0.6,1.8-1.3,1.8c-0.7,0-1.2-0.6-1.3-1.7C286.7,241.6,287.3,241,288,241L288,241L288,241z M288,241.5
		c-0.4,0-0.7,0.6-0.7,1.3s0.2,1.3,0.7,1.3s0.7-0.5,0.7-1.3S288.5,241.5,288,241.5L288,241.5z"/>
</g>
<path class="st11" d="M272.1,241.9c0,1.3-1.1,2.4-2.4,2.4s-2.4-1.1-2.4-2.4s1.1-2.4,2.4-2.4C271.1,239.4,272.1,240.5,272.1,241.9"/>
<circle class="st8" cx="269.7" cy="241.9" r="2.4"/>
<g>
	<path class="st0" d="M275.3,235.3c0.2,0,0.3,0,0.6,0c0.4-0.1,0.8-0.2,1.1-0.5c0.4-0.3,0.6-0.8,0.7-1.5l0,0
		c-0.3,0.4-0.7,0.6-1.3,0.6c-1,0-1.6-0.8-1.6-1.7c0-1.1,0.7-2,1.8-2s1.8,0.9,1.8,2.4c0,1.2-0.4,2.1-0.9,2.6c-0.4,0.4-1,0.7-1.6,0.8
		c-0.3,0-0.5,0.1-0.7,0L275.3,235.3L275.3,235.3z M276.6,230.7c-0.6,0-1,0.6-1,1.4c0,0.7,0.4,1.2,1,1.2c0.5,0,0.9-0.3,1.1-0.6
		c0-0.1,0.1-0.2,0.1-0.3C277.7,231.4,277.4,230.7,276.6,230.7L276.6,230.7z"/>
	<path class="st0" d="M282.6,230.2v0.5l-2.3,5.1h-0.7l2.3-5l0,0h-2.6v-0.6H282.6L282.6,230.2z"/>
	<path class="st0" d="M284.5,230.1c0.7,0,1.2,0.6,1.2,1.7c0,1.2-0.6,1.8-1.3,1.8c-0.7,0-1.2-0.6-1.3-1.7
		C283.2,230.8,283.8,230.1,284.5,230.1L284.5,230.1L284.5,230.1z M284.5,230.6c-0.4,0-0.7,0.6-0.7,1.3s0.2,1.3,0.7,1.3
		s0.7-0.5,0.7-1.3S285,230.6,284.5,230.6L284.5,230.6z M284.4,235.9l3.2-5.8h0.5l-3.2,5.8H284.4z M288,232.4c0.7,0,1.2,0.6,1.2,1.7
		c0,1.2-0.6,1.8-1.3,1.8c-0.7,0-1.2-0.6-1.3-1.7C286.7,233.1,287.3,232.4,288,232.4L288,232.4L288,232.4z M288,232.9
		c-0.4,0-0.7,0.6-0.7,1.3s0.2,1.3,0.7,1.3s0.7-0.5,0.7-1.3C288.7,233.5,288.5,232.9,288,232.9L288,232.9z"/>
</g>
<path class="st12" d="M272.1,233.3c0,1.3-1.1,2.4-2.4,2.4s-2.4-1.1-2.4-2.4s1.1-2.4,2.4-2.4C271,230.9,272.1,232,272.1,233.3"/>
<circle class="st8" cx="269.7" cy="233.3" r="2.4"/>
<g>
	<path class="st0" d="M307.6,230.2v0.5l-2.3,5.1h-0.7l2.3-5l0,0h-2.6v-0.6H307.6L307.6,230.2z"/>
	<path class="st0" d="M311.5,230.9h-2l-0.2,1.4c0.1,0,0.2,0,0.4,0c0.4,0,0.8,0.1,1.2,0.3c0.4,0.2,0.8,0.7,0.8,1.5
		c0,1.1-0.8,1.9-2,1.9c-0.6,0-1.1-0.2-1.3-0.3l0.2-0.6c0.2,0.1,0.7,0.3,1.2,0.3c0.7,0,1.3-0.5,1.3-1.2s-0.5-1.3-1.5-1.3
		c-0.3,0-0.6,0-0.7,0.1l0.3-2.7h2.6L311.5,230.9L311.5,230.9z"/>
	<path class="st0" d="M313.7,230.1c0.7,0,1.2,0.6,1.2,1.7c0,1.2-0.6,1.8-1.3,1.8s-1.2-0.6-1.3-1.7
		C312.4,230.8,313,230.1,313.7,230.1L313.7,230.1L313.7,230.1z M313.7,230.6c-0.4,0-0.7,0.6-0.7,1.3s0.2,1.3,0.7,1.3
		s0.7-0.5,0.7-1.3S314.2,230.6,313.7,230.6L313.7,230.6z M313.6,235.9l3.2-5.8h0.5l-3.2,5.8H313.6z M317.2,232.4
		c0.7,0,1.2,0.6,1.2,1.7c0,1.2-0.6,1.8-1.3,1.8s-1.2-0.6-1.3-1.7C315.9,233.1,316.5,232.4,317.2,232.4L317.2,232.4L317.2,232.4z
		 M317.2,232.9c-0.4,0-0.7,0.6-0.7,1.3s0.2,1.3,0.7,1.3s0.7-0.5,0.7-1.3C317.9,233.5,317.7,232.9,317.2,232.9L317.2,232.9z"/>
</g>
<path class="st6" d="M301.3,233.3c0,1.3-1.1,2.4-2.4,2.4s-2.4-1.1-2.4-2.4s1.1-2.4,2.4-2.4C300.2,230.9,301.3,232,301.3,233.3"/>
<circle class="st8" cx="298.9" cy="233.3" r="2.4"/>
<g>
	<path class="st0" d="M307.3,239.4h-2l-0.2,1.4c0.1,0,0.2,0,0.4,0c0.4,0,0.8,0.1,1.2,0.3c0.4,0.2,0.8,0.7,0.8,1.5
		c0,1.1-0.8,1.9-2,1.9c-0.6,0-1.1-0.2-1.3-0.3l0.2-0.6c0.2,0.1,0.7,0.3,1.2,0.3c0.7,0,1.3-0.5,1.3-1.2s-0.5-1.3-1.5-1.3
		c-0.3,0-0.6,0-0.7,0.1l0.3-2.7h2.6L307.3,239.4L307.3,239.4z"/>
	<path class="st0" d="M310,244.5c-1,0-1.8-1-1.8-2.9s0.8-2.9,1.9-2.9s1.8,1.1,1.8,2.8C311.9,243.4,311.2,244.5,310,244.5L310,244.5z
		 M310.1,243.9c0.7,0,1.1-0.9,1.1-2.3s-0.3-2.3-1.1-2.3c-0.7,0-1.1,0.9-1.1,2.3C308.9,243,309.4,243.9,310.1,243.9L310.1,243.9z"/>
	<path class="st0" d="M313.7,238.7c0.7,0,1.2,0.6,1.2,1.7c0,1.2-0.6,1.8-1.3,1.8s-1.2-0.6-1.3-1.7
		C312.4,239.3,313,238.7,313.7,238.7L313.7,238.7L313.7,238.7z M313.7,239.1c-0.4,0-0.7,0.6-0.7,1.3s0.2,1.3,0.7,1.3
		s0.7-0.5,0.7-1.3C314.4,239.7,314.2,239.1,313.7,239.1L313.7,239.1z M313.6,244.5l3.2-5.8h0.5l-3.2,5.8H313.6z M317.2,241
		c0.7,0,1.2,0.6,1.2,1.7c0,1.2-0.6,1.8-1.3,1.8s-1.2-0.6-1.3-1.7C315.9,241.6,316.5,241,317.2,241L317.2,241L317.2,241z
		 M317.2,241.5c-0.4,0-0.7,0.6-0.7,1.3s0.2,1.3,0.7,1.3s0.7-0.5,0.7-1.3S317.7,241.5,317.2,241.5L317.2,241.5z"/>
</g>
<g>
	<path class="st0" d="M269.7,215.9c0-0.4,0-0.8,0-1.1h0.6v0.7l0,0c0.2-0.4,0.7-0.8,1.3-0.8s1.4,0.3,1.4,1.8v2.5h-0.6v-2.4
		c0-0.7-0.2-1.2-0.9-1.2c-0.5,0-0.8,0.4-1,0.8c0,0.1,0,0.2,0,0.4v2.5h-0.7L269.7,215.9L269.7,215.9z"/>
	<path class="st0" d="M277.6,217.8c0,0.4,0,0.8,0,1.1H277v-0.7l0,0c-0.2,0.3-0.6,0.8-1.3,0.8c-0.6,0-1.4-0.4-1.4-1.8v-2.4h0.7v2.3
		c0,0.8,0.2,1.3,0.9,1.3c0.5,0,0.8-0.4,1-0.7c0-0.1,0.1-0.2,0.1-0.4v-2.6h0.7L277.6,217.8L277.6,217.8z"/>
	<path class="st0" d="M281.7,218.8c-0.2,0.1-0.6,0.2-1.1,0.2c-1.2,0-2-0.9-2-2.1s0.8-2.2,2.1-2.2c0.4,0,0.8,0.1,1,0.2l-0.2,0.6
		c-0.2-0.1-0.4-0.2-0.8-0.2c-0.9,0-1.4,0.7-1.4,1.6c0,1,0.6,1.6,1.4,1.6c0.4,0,0.7-0.1,0.9-0.2L281.7,218.8z"/>
	<path class="st0" d="M282.5,212.8h0.7v6.1h-0.7V212.8z"/>
	<path class="st0" d="M284.9,217c0,1,0.6,1.5,1.4,1.5c0.5,0,0.8-0.1,1.1-0.2l0.1,0.5c-0.3,0.1-0.7,0.3-1.3,0.3c-1.2,0-2-0.9-2-2.1
		c0-1.3,0.7-2.3,1.9-2.3c1.3,0,1.6,1.2,1.6,2c0,0.2,0,0.3,0,0.4L284.9,217z M287,216.4c0-0.5-0.2-1.2-1-1.2c-0.7,0-1.1,0.7-1.1,1.2
		H287z"/>
	<path class="st0" d="M290.2,219c-1.1,0-1.9-0.8-1.9-2.2s0.9-2.2,2-2.2s1.9,0.9,1.9,2.1C292.2,218.4,291.2,219,290.2,219L290.2,219z
		 M290.2,218.5c0.7,0,1.2-0.7,1.2-1.6c0-0.7-0.3-1.6-1.2-1.6c-0.8,0-1.2,0.8-1.2,1.6C289,217.8,289.5,218.5,290.2,218.5L290.2,218.5
		z"/>
	<path class="st0" d="M294,213.8v1h1v0.6h-1v2.3c0,0.5,0.1,0.8,0.5,0.8c0.2,0,0.3,0,0.4-0.1v0.6c-0.1,0.1-0.4,0.1-0.6,0.1
		c-0.3,0-0.6-0.1-0.8-0.3c-0.2-0.2-0.3-0.6-0.3-1.1v-2.3h-0.6v-0.6h0.6V214L294,213.8z"/>
	<path class="st0" d="M296.2,214c-0.3,0-0.5-0.2-0.5-0.5s0.2-0.5,0.5-0.5s0.5,0.2,0.5,0.5S296.5,214,296.2,214L296.2,214z
		 M295.8,219v-4.2h0.7v4.2H295.8z"/>
	<path class="st0" d="M301.2,212.8v5.1c0,0.4,0,0.8,0,1.1h-0.7v-0.7l0,0c-0.2,0.5-0.7,0.8-1.4,0.8c-1,0-1.7-0.9-1.7-2.1
		c0-1.4,0.8-2.2,1.8-2.2c0.6,0,1,0.3,1.2,0.6l0,0v-2.5h0.8L301.2,212.8L301.2,212.8z M300.5,216.5c0-0.1,0-0.2,0-0.3
		c-0.1-0.5-0.5-0.9-1-0.9c-0.7,0-1.2,0.7-1.2,1.6c0,0.9,0.4,1.6,1.2,1.6c0.5,0,0.9-0.3,1.1-0.9c0-0.1,0-0.2,0-0.3L300.5,216.5
		L300.5,216.5z"/>
	<path class="st0" d="M302.8,217c0,1,0.6,1.5,1.4,1.5c0.5,0,0.8-0.1,1.1-0.2l0.1,0.5c-0.3,0.1-0.7,0.3-1.3,0.3c-1.2,0-2-0.9-2-2.1
		c0-1.3,0.7-2.3,1.9-2.3c1.3,0,1.6,1.2,1.6,2c0,0.2,0,0.3,0,0.4L302.8,217z M304.9,216.4c0-0.5-0.2-1.2-1-1.2
		c-0.7,0-1.1,0.7-1.1,1.2H304.9z"/>
</g>
<g>
	<path class="st0" d="M274.9,224.3c0-0.5,0-1,0-1.4h0.7v0.7l0,0c0.3-0.5,0.8-0.8,1.4-0.8c1,0,1.7,0.9,1.7,2.1c0,1.5-0.9,2.2-1.8,2.2
		c-0.5,0-1-0.2-1.2-0.7l0,0v2.3H275v-4.4L274.9,224.3L274.9,224.3z M275.6,225.5c0,0.1,0,0.2,0,0.3c0.1,0.5,0.6,0.9,1.1,0.9
		c0.8,0,1.2-0.7,1.2-1.6c0-0.8-0.4-1.6-1.2-1.6c-0.5,0-1,0.4-1.1,0.9c0,0.1,0,0.2,0,0.3V225.5z"/>
	<path class="st0" d="M279.6,224.3c0-0.5,0-0.9,0-1.3h0.6v0.8l0,0c0.2-0.6,0.6-0.9,1.1-0.9c0.1,0,0.1,0,0.2,0v0.7
		c-0.1,0-0.2,0-0.3,0c-0.5,0-0.9,0.4-1,1c0,0.1,0,0.2,0,0.4v2.2h-0.7L279.6,224.3z"/>
	<path class="st0" d="M282.7,225.2c0,1,0.6,1.5,1.4,1.5c0.5,0,0.8-0.1,1.1-0.2l0.1,0.5c-0.3,0.1-0.7,0.3-1.3,0.3c-1.2,0-2-0.9-2-2.1
		c0-1.3,0.7-2.3,1.9-2.3c1.3,0,1.6,1.2,1.6,2c0,0.2,0,0.3,0,0.4L282.7,225.2z M284.8,224.7c0-0.5-0.2-1.2-1-1.2
		c-0.7,0-1.1,0.7-1.1,1.2H284.8z"/>
	<path class="st0" d="M286.3,226.4c0.2,0.1,0.6,0.3,1,0.3c0.5,0,0.8-0.3,0.8-0.6c0-0.4-0.2-0.6-0.7-0.8c-0.7-0.3-1.1-0.7-1.1-1.2
		c0-0.7,0.5-1.2,1.4-1.2c0.4,0,0.8,0.1,1,0.3l-0.2,0.5c-0.2-0.1-0.4-0.2-0.8-0.2s-0.7,0.3-0.7,0.6c0,0.4,0.2,0.5,0.7,0.7
		c0.7,0.3,1,0.6,1,1.3s-0.6,1.3-1.5,1.3c-0.4,0-0.8-0.1-1.1-0.3L286.3,226.4z"/>
	<path class="st0" d="M290.1,225.2c0,1,0.6,1.5,1.4,1.5c0.5,0,0.8-0.1,1.1-0.2l0.1,0.5c-0.3,0.1-0.7,0.3-1.3,0.3c-1.2,0-2-0.9-2-2.1
		c0-1.3,0.7-2.3,1.9-2.3c1.3,0,1.6,1.2,1.6,2c0,0.2,0,0.3,0,0.4L290.1,225.2z M292.2,224.7c0-0.5-0.2-1.2-1-1.2
		c-0.7,0-1.1,0.7-1.1,1.2H292.2z"/>
	<path class="st0" d="M293.8,224.1c0-0.4,0-0.8,0-1.1h0.6v0.7l0,0c0.2-0.4,0.7-0.8,1.3-0.8s1.4,0.3,1.4,1.8v2.5h-0.7v-2.4
		c0-0.7-0.2-1.2-0.9-1.2c-0.5,0-0.8,0.4-1,0.8c0,0.1,0,0.2,0,0.4v2.5h-0.7L293.8,224.1L293.8,224.1z"/>
	<path class="st0" d="M299.2,222v1h1v0.6h-1v2.3c0,0.5,0.1,0.8,0.5,0.8c0.2,0,0.3,0,0.4-0.1v0.6c-0.1,0.1-0.4,0.1-0.6,0.1
		c-0.3,0-0.6-0.1-0.8-0.3c-0.2-0.2-0.3-0.6-0.3-1.1v-2.3h-0.6V223h0.6v-0.8L299.2,222z"/>
</g>
<g>
	<path class="st0" d="M326.7,215.9c0-0.4,0-0.8,0-1.1h0.6v0.7l0,0c0.2-0.4,0.7-0.8,1.3-0.8s1.4,0.3,1.4,1.8v2.5h-0.6v-2.4
		c0-0.7-0.2-1.2-0.9-1.2c-0.5,0-0.8,0.4-1,0.8c0,0.1,0,0.2,0,0.4v2.5h-0.7L326.7,215.9L326.7,215.9z"/>
	<path class="st0" d="M334.6,217.8c0,0.4,0,0.8,0,1.1H334v-0.7l0,0c-0.2,0.3-0.6,0.8-1.3,0.8c-0.6,0-1.4-0.4-1.4-1.8v-2.4h0.7v2.3
		c0,0.8,0.2,1.3,0.9,1.3c0.5,0,0.8-0.4,1-0.7c0-0.1,0.1-0.2,0.1-0.4v-2.6h0.7L334.6,217.8L334.6,217.8z"/>
	<path class="st0" d="M338.7,218.8c-0.2,0.1-0.6,0.2-1.1,0.2c-1.2,0-2-0.9-2-2.1s0.8-2.2,2.1-2.2c0.4,0,0.8,0.1,1,0.2l-0.2,0.6
		c-0.2-0.1-0.4-0.2-0.8-0.2c-0.9,0-1.4,0.7-1.4,1.6c0,1,0.6,1.6,1.4,1.6c0.4,0,0.7-0.1,0.9-0.2L338.7,218.8z"/>
	<path class="st0" d="M339.5,212.8h0.7v6.1h-0.7V212.8z"/>
	<path class="st0" d="M341.9,217c0,1,0.6,1.5,1.4,1.5c0.5,0,0.8-0.1,1.1-0.2l0.1,0.5c-0.3,0.1-0.7,0.3-1.3,0.3c-1.2,0-2-0.9-2-2.1
		c0-1.3,0.7-2.3,1.9-2.3c1.3,0,1.6,1.2,1.6,2c0,0.2,0,0.3,0,0.4L341.9,217z M344,216.4c0-0.5-0.2-1.2-1-1.2c-0.7,0-1.1,0.7-1.1,1.2
		H344z"/>
	<path class="st0" d="M347.2,219c-1.1,0-1.9-0.8-1.9-2.2s0.9-2.2,2-2.2s1.9,0.9,1.9,2.1C349.2,218.4,348.2,219,347.2,219L347.2,219z
		 M347.2,218.5c0.7,0,1.2-0.7,1.2-1.6c0-0.7-0.3-1.6-1.2-1.6c-0.8,0-1.2,0.8-1.2,1.6C346,217.8,346.5,218.5,347.2,218.5L347.2,218.5
		z"/>
	<path class="st0" d="M351,213.8v1h1v0.6h-1v2.3c0,0.5,0.1,0.8,0.5,0.8c0.2,0,0.3,0,0.4-0.1v0.6c-0.1,0.1-0.4,0.1-0.6,0.1
		c-0.3,0-0.6-0.1-0.8-0.3c-0.2-0.2-0.3-0.6-0.3-1.1v-2.3h-0.6v-0.6h0.6V214L351,213.8z"/>
	<path class="st0" d="M353.2,214c-0.3,0-0.5-0.2-0.5-0.5s0.2-0.5,0.5-0.5s0.5,0.2,0.5,0.5S353.5,214,353.2,214L353.2,214z
		 M352.8,219v-4.2h0.7v4.2H352.8z"/>
	<path class="st0" d="M358.2,212.8v5.1c0,0.4,0,0.8,0,1.1h-0.7v-0.7l0,0c-0.2,0.5-0.7,0.8-1.4,0.8c-1,0-1.7-0.9-1.7-2.1
		c0-1.4,0.8-2.2,1.8-2.2c0.6,0,1,0.3,1.2,0.6l0,0v-2.5h0.8L358.2,212.8L358.2,212.8z M357.5,216.5c0-0.1,0-0.2,0-0.3
		c-0.1-0.5-0.5-0.9-1-0.9c-0.7,0-1.2,0.7-1.2,1.6c0,0.9,0.4,1.6,1.2,1.6c0.5,0,0.9-0.3,1.1-0.9c0-0.1,0-0.2,0-0.3v-0.8L357.5,216.5
		L357.5,216.5z"/>
	<path class="st0" d="M359.8,217c0,1,0.6,1.5,1.4,1.5c0.5,0,0.8-0.1,1.1-0.2l0.1,0.5c-0.3,0.1-0.7,0.3-1.3,0.3c-1.2,0-2-0.9-2-2.1
		c0-1.3,0.7-2.3,1.9-2.3c1.3,0,1.6,1.2,1.6,2c0,0.2,0,0.3,0,0.4L359.8,217z M361.9,216.4c0-0.5-0.2-1.2-1-1.2
		c-0.7,0-1.1,0.7-1.1,1.2H361.9z"/>
</g>
<g>
	<path class="st0" d="M332.3,222.2c-0.3,0-0.5-0.2-0.5-0.5s0.2-0.5,0.5-0.5s0.5,0.2,0.5,0.5S332.6,222.2,332.3,222.2L332.3,222.2z
		 M331.9,227.2V223h0.7v4.2H331.9z"/>
	<path class="st0" d="M337.3,221v5.1c0,0.4,0,0.8,0,1.1h-0.7v-0.7l0,0c-0.2,0.5-0.7,0.8-1.4,0.8c-1,0-1.7-0.9-1.7-2.1
		c0-1.4,0.8-2.2,1.8-2.2c0.6,0,1,0.3,1.2,0.6l0,0v-2.5L337.3,221L337.3,221z M336.6,224.7c0-0.1,0-0.2,0-0.3c-0.1-0.5-0.5-0.9-1-0.9
		c-0.7,0-1.2,0.7-1.2,1.6s0.4,1.6,1.2,1.6c0.5,0,0.9-0.3,1.1-0.9c0-0.1,0-0.2,0-0.3v-0.8L336.6,224.7L336.6,224.7z"/>
	<path class="st0" d="M338.9,225.2c0,1,0.6,1.5,1.4,1.5c0.5,0,0.8-0.1,1.1-0.2l0.1,0.5c-0.3,0.1-0.7,0.3-1.3,0.3c-1.2,0-2-0.9-2-2.1
		c0-1.3,0.7-2.3,1.9-2.3c1.3,0,1.6,1.2,1.6,2c0,0.2,0,0.3,0,0.4L338.9,225.2z M341,224.7c0-0.5-0.2-1.2-1-1.2
		c-0.7,0-1.1,0.7-1.1,1.2H341z"/>
	<path class="st0" d="M342.6,224.1c0-0.4,0-0.8,0-1.1h0.6v0.7l0,0c0.2-0.4,0.7-0.8,1.3-0.8s1.4,0.3,1.4,1.8v2.5h-0.7v-2.4
		c0-0.7-0.2-1.2-0.9-1.2c-0.5,0-0.8,0.4-1,0.8c0,0.1,0,0.2,0,0.4v2.5h-0.7L342.6,224.1L342.6,224.1z"/>
	<path class="st0" d="M348,222v1h1v0.6h-1v2.3c0,0.5,0.1,0.8,0.5,0.8c0.2,0,0.3,0,0.4-0.1v0.6c-0.1,0.1-0.4,0.1-0.6,0.1
		c-0.3,0-0.6-0.1-0.8-0.3c-0.2-0.2-0.3-0.6-0.3-1.1v-2.3h-0.6V223h0.6v-0.8L348,222z"/>
	<path class="st0" d="M350.2,222.2c-0.3,0-0.5-0.2-0.5-0.5s0.2-0.5,0.5-0.5s0.5,0.2,0.5,0.5S350.5,222.2,350.2,222.2L350.2,222.2z
		 M349.9,227.2V223h0.7v4.2H349.9z"/>
	<path class="st0" d="M352.7,222v1h1v0.6h-1v2.3c0,0.5,0.1,0.8,0.5,0.8c0.2,0,0.3,0,0.4-0.1v0.6c-0.1,0.1-0.4,0.1-0.6,0.1
		c-0.3,0-0.6-0.1-0.8-0.3c-0.2-0.2-0.3-0.6-0.3-1.1v-2.3h-0.5V223h0.6v-0.8L352.7,222z"/>
	<path class="st0" d="M354.9,223l0.9,2.5c0.1,0.3,0.2,0.6,0.3,0.9l0,0c0.1-0.3,0.2-0.6,0.3-0.9l0.8-2.5h0.8l-1.1,3
		c-0.5,1.4-0.9,2.2-1.4,2.6c-0.4,0.3-0.7,0.4-0.9,0.5l-0.2-0.6c0.2-0.1,0.4-0.2,0.6-0.4s0.4-0.5,0.6-0.8c0-0.1,0.1-0.1,0.1-0.2
		c0,0,0-0.1-0.1-0.2l-1.5-3.9C354.1,223,354.9,223,354.9,223z"/>
</g>
<g>
	<path class="st0" d="M352.2,250.1v0.5l-2.3,5.1h-0.7l2.3-5l0,0h-2.6v-0.6H352.2L352.2,250.1z"/>
	<path class="st0" d="M356.2,250.8h-2l-0.2,1.4c0.1,0,0.2,0,0.4,0c0.4,0,0.8,0.1,1.2,0.3c0.4,0.2,0.8,0.7,0.8,1.5
		c0,1.1-0.8,1.9-2,1.9c-0.6,0-1.1-0.2-1.3-0.3l0.2-0.6c0.2,0.1,0.7,0.3,1.2,0.3c0.7,0,1.3-0.5,1.3-1.2s-0.5-1.3-1.5-1.3
		c-0.3,0-0.6,0-0.8,0.1l0.3-2.7h2.6L356.2,250.8L356.2,250.8z"/>
	<path class="st0" d="M358.4,250c0.7,0,1.2,0.6,1.2,1.7c0,1.2-0.6,1.8-1.3,1.8c-0.7,0-1.2-0.6-1.3-1.7
		C357.1,250.7,357.7,250,358.4,250L358.4,250L358.4,250z M358.4,250.5c-0.4,0-0.7,0.6-0.7,1.3s0.2,1.3,0.7,1.3s0.7-0.5,0.7-1.3
		C359.1,251.1,358.9,250.5,358.4,250.5L358.4,250.5z M358.3,255.8l3.2-5.8h0.5l-3.2,5.8H358.3z M361.9,252.4c0.7,0,1.2,0.6,1.2,1.7
		c0,1.2-0.6,1.8-1.3,1.8c-0.7,0-1.2-0.6-1.3-1.7C360.6,253,361.2,252.4,361.9,252.4L361.9,252.4L361.9,252.4z M361.8,252.8
		c-0.4,0-0.7,0.6-0.7,1.3s0.2,1.3,0.7,1.3s0.7-0.5,0.7-1.3C362.6,253.4,362.4,252.8,361.8,252.8L361.8,252.8z"/>
</g>
<g>
	<path class="st13" d="M331.7,255.7v-5.8h0.8l1.8,2.9c0.4,0.7,0.7,1.3,1,1.9l0,0c-0.1-0.8-0.1-1.5-0.1-2.4v-2.4h0.7v5.8h-0.7l-1.8-3
		c-0.4-0.6-0.8-1.3-1-1.9l0,0c0,0.7,0,1.4,0,2.4v2.5H331.7L331.7,255.7z"/>
</g>
<g>
	<path class="st14" d="M331.7,238.3v-5.8h0.8l1.8,2.9c0.4,0.7,0.7,1.3,1,1.9l0,0c-0.1-0.8-0.1-1.5-0.1-2.4v-2.4h0.7v5.8h-0.7l-1.8-3
		c-0.4-0.6-0.8-1.3-1-1.9l0,0c0,0.7,0,1.4,0,2.4v2.5H331.7L331.7,238.3z"/>
</g>
<g>
	<path class="st0" d="M349.2,237.7c0.2,0,0.3,0,0.6,0c0.4-0.1,0.8-0.2,1.1-0.5c0.4-0.3,0.6-0.8,0.7-1.5l0,0
		c-0.3,0.4-0.7,0.6-1.3,0.6c-1,0-1.6-0.8-1.6-1.7c0-1.1,0.7-2,1.8-2s1.8,0.9,1.8,2.4c0,1.2-0.4,2.1-0.9,2.6c-0.4,0.4-1,0.7-1.6,0.8
		c-0.3,0-0.5,0.1-0.7,0L349.2,237.7L349.2,237.7z M350.5,233.1c-0.6,0-1,0.6-1,1.4c0,0.7,0.4,1.2,1,1.2c0.5,0,0.9-0.2,1.1-0.6
		c0-0.1,0.1-0.2,0.1-0.3C351.6,233.9,351.3,233.1,350.5,233.1L350.5,233.1L350.5,233.1z"/>
	<path class="st0" d="M356.5,232.6v0.5l-2.3,5.1h-0.8l2.3-5l0,0h-2.6v-0.6H356.5L356.5,232.6z"/>
	<path class="st0" d="M358.4,232.5c0.7,0,1.2,0.6,1.2,1.7c0,1.2-0.6,1.8-1.3,1.8c-0.7,0-1.2-0.6-1.3-1.7
		C357.1,233.2,357.7,232.6,358.4,232.5L358.4,232.5L358.4,232.5z M358.4,233c-0.4,0-0.7,0.6-0.7,1.3s0.2,1.3,0.7,1.3
		s0.7-0.5,0.7-1.3C359.1,233.6,358.9,233,358.4,233L358.4,233z M358.3,238.4l3.2-5.8h0.5l-3.2,5.8H358.3z M361.9,234.9
		c0.7,0,1.2,0.6,1.2,1.7c0,1.2-0.6,1.8-1.3,1.8c-0.7,0-1.2-0.6-1.3-1.7C360.6,235.5,361.2,234.9,361.9,234.9L361.9,234.9
		L361.9,234.9z M361.8,235.3c-0.4,0-0.7,0.6-0.7,1.3s0.2,1.3,0.7,1.3s0.7-0.5,0.7-1.3C362.6,235.9,362.4,235.3,361.8,235.3
		L361.8,235.3z"/>
</g>
<g>
	<path class="st0" d="M331.7,247v-5.8h0.8l1.8,2.9c0.4,0.7,0.7,1.3,1,1.9l0,0c-0.1-0.8-0.1-1.5-0.1-2.4v-2.4h0.7v5.8h-0.7l-1.8-3
		c-0.4-0.6-0.8-1.3-1-1.9l0,0c0,0.7,0,1.4,0,2.4v2.5H331.7L331.7,247z"/>
</g>
<g>
	<path class="st0" d="M349.2,246.5c0.2,0,0.3,0,0.6,0c0.4-0.1,0.8-0.2,1.1-0.5c0.4-0.3,0.6-0.8,0.7-1.5l0,0
		c-0.3,0.4-0.7,0.6-1.3,0.6c-1,0-1.6-0.8-1.6-1.7c0-1.1,0.7-2,1.8-2s1.8,0.9,1.8,2.4c0,1.2-0.4,2.1-0.9,2.6c-0.4,0.4-1,0.7-1.6,0.8
		c-0.3,0-0.5,0.1-0.7,0L349.2,246.5L349.2,246.5z M350.5,241.9c-0.6,0-1,0.6-1,1.4c0,0.7,0.4,1.2,1,1.2c0.5,0,0.9-0.2,1.1-0.6
		c0-0.1,0.1-0.2,0.1-0.3C351.6,242.6,351.3,241.9,350.5,241.9L350.5,241.9L350.5,241.9z"/>
	<path class="st0" d="M354.7,247.1c-1,0-1.8-1-1.8-2.9s0.8-2.9,1.9-2.9s1.8,1.1,1.8,2.8C356.6,246,355.9,247.1,354.7,247.1
		L354.7,247.1z M354.7,246.5c0.7,0,1.1-0.9,1.1-2.3s-0.3-2.3-1.1-2.3c-0.7,0-1.1,0.9-1.1,2.3S354,246.5,354.7,246.5L354.7,246.5z"/>
	<path class="st0" d="M358.4,241.3c0.7,0,1.2,0.6,1.2,1.7c0,1.2-0.6,1.8-1.3,1.8c-0.7,0-1.2-0.6-1.3-1.7
		C357.1,241.9,357.7,241.3,358.4,241.3L358.4,241.3L358.4,241.3z M358.4,241.7c-0.4,0-0.7,0.6-0.7,1.3s0.2,1.3,0.7,1.3
		s0.7-0.5,0.7-1.3C359.1,242.3,358.9,241.7,358.4,241.7L358.4,241.7z M358.3,247.1l3.2-5.8h0.5l-3.2,5.8H358.3z M361.9,243.6
		c0.7,0,1.2,0.6,1.2,1.7c0,1.2-0.6,1.8-1.3,1.8c-0.7,0-1.2-0.6-1.3-1.7C360.6,244.2,361.2,243.6,361.9,243.6L361.9,243.6
		L361.9,243.6z M361.8,244.1c-0.4,0-0.7,0.6-0.7,1.3s0.2,1.3,0.7,1.3s0.7-0.5,0.7-1.3C362.6,244.6,362.4,244.1,361.8,244.1
		L361.8,244.1z"/>
</g>
<g>
	<path class="st15" d="M286.1,186.6c-0.2,0.1-0.6,0.2-1.1,0.2c-1.2,0-2-0.9-2-2.1s0.8-2.2,2.1-2.2c0.4,0,0.8,0.1,1,0.2l-0.2,0.6
		c-0.2-0.1-0.4-0.2-0.8-0.2c-0.9,0-1.4,0.7-1.4,1.6c0,1,0.6,1.6,1.4,1.6c0.4,0,0.7-0.1,0.9-0.2L286.1,186.6z"/>
	<path class="st15" d="M288.5,186.8c-1.1,0-1.9-0.8-1.9-2.2s0.9-2.2,2-2.2s1.9,0.9,1.9,2.1C290.5,186.1,289.5,186.8,288.5,186.8
		L288.5,186.8z M288.5,186.2c0.7,0,1.2-0.7,1.2-1.6c0-0.7-0.3-1.6-1.2-1.6c-0.8,0-1.2,0.8-1.2,1.6
		C287.3,185.6,287.8,186.2,288.5,186.2L288.5,186.2z"/>
	<path class="st15" d="M291.6,182.5l0.8,2.3c0.1,0.4,0.2,0.7,0.3,1.1l0,0c0.1-0.3,0.2-0.7,0.3-1.1l0.8-2.3h0.8l-1.6,4.2h-0.6
		l-1.5-4.2H291.6z"/>
	<path class="st15" d="M298,185.7c0,0.4,0,0.7,0.1,1h-0.7l-0.1-0.5l0,0c-0.2,0.3-0.7,0.6-1.2,0.6c-0.8,0-1.2-0.6-1.2-1.2
		c0-1,0.9-1.6,2.4-1.6v-0.1c0-0.3-0.1-1-0.9-1c-0.4,0-0.8,0.1-1,0.3l-0.2-0.5c0.3-0.2,0.8-0.4,1.3-0.4c1.2,0,1.5,0.9,1.5,1.7
		L298,185.7L298,185.7z M297.3,184.6c-0.8,0-1.7,0.1-1.7,0.9c0,0.5,0.3,0.7,0.7,0.7c0.5,0,0.9-0.3,1-0.7c0-0.1,0-0.2,0-0.2V184.6z"
		/>
	<path class="st15" d="M299.2,183.8c0-0.5,0-0.9,0-1.3h0.6v0.8l0,0c0.2-0.6,0.6-0.9,1.1-0.9c0.1,0,0.1,0,0.2,0v0.7
		c-0.1,0-0.2,0-0.3,0c-0.5,0-0.9,0.4-1,1c0,0.1,0,0.2,0,0.4v2.2h-0.7L299.2,183.8z"/>
	<path class="st15" d="M302.3,182.5l0.9,2.5c0.1,0.3,0.2,0.6,0.3,0.9l0,0c0.1-0.3,0.2-0.6,0.3-0.9l0.8-2.5h0.8l-1.1,3
		c-0.5,1.4-0.9,2.2-1.4,2.6c-0.4,0.3-0.7,0.4-0.9,0.5l-0.2-0.6c0.2-0.1,0.4-0.2,0.6-0.4s0.4-0.5,0.6-0.8c0-0.1,0.1-0.1,0.1-0.2
		c0,0,0-0.1-0.1-0.2l-1.5-3.9C301.5,182.5,302.3,182.5,302.3,182.5z"/>
	<path class="st15" d="M306.3,181.8c-0.3,0-0.5-0.2-0.5-0.5s0.2-0.5,0.5-0.5s0.5,0.2,0.5,0.5C306.8,181.5,306.6,181.8,306.3,181.8
		L306.3,181.8z M305.9,186.7v-4.2h0.7v4.2H305.9z"/>
	<path class="st15" d="M307.9,183.7c0-0.4,0-0.8,0-1.1h0.6v0.7l0,0c0.2-0.4,0.7-0.8,1.3-0.8c0.6,0,1.4,0.3,1.4,1.8v2.5h-0.7v-2.4
		c0-0.7-0.2-1.2-0.9-1.2c-0.5,0-0.8,0.4-1,0.8c0,0.1,0,0.2,0,0.4v2.5h-0.7L307.9,183.7L307.9,183.7z"/>
	<path class="st15" d="M315.8,186.1c0,1-0.2,1.5-0.6,1.9s-1,0.5-1.5,0.5s-1-0.1-1.3-0.3l0.2-0.6c0.3,0.2,0.7,0.3,1.2,0.3
		c0.7,0,1.3-0.4,1.3-1.5v-0.5l0,0c-0.2,0.4-0.7,0.7-1.3,0.7c-1,0-1.7-0.9-1.7-2c0-1.4,0.9-2.2,1.8-2.2c0.7,0,1.1,0.4,1.2,0.7l0,0
		v-0.6h0.6c0,0.3,0,0.6,0,1.1L315.8,186.1L315.8,186.1z M315.1,184.2c0-0.1,0-0.2,0-0.3c-0.1-0.4-0.5-0.8-1-0.8
		c-0.7,0-1.2,0.6-1.2,1.6c0,0.8,0.4,1.5,1.2,1.5c0.5,0,0.9-0.3,1-0.8c0-0.1,0.1-0.3,0.1-0.4L315.1,184.2L315.1,184.2z"/>
	<path class="st15" d="M318.8,183.7c0-0.4,0-0.8,0-1.1h0.6v0.7l0,0c0.2-0.4,0.6-0.8,1.3-0.8c0.5,0,0.9,0.3,1.1,0.8l0,0
		c0.1-0.2,0.3-0.4,0.5-0.5c0.2-0.2,0.5-0.3,0.9-0.3c0.5,0,1.3,0.4,1.3,1.8v2.5h-0.7v-2.4c0-0.8-0.3-1.3-0.9-1.3
		c-0.4,0-0.7,0.3-0.9,0.7c0,0.1-0.1,0.3-0.1,0.4v2.6h-0.7v-2.5c0-0.7-0.3-1.1-0.8-1.1c-0.4,0-0.8,0.4-0.9,0.8c0,0.1-0.1,0.2-0.1,0.4
		v2.5h-0.7L318.8,183.7L318.8,183.7z"/>
	<path class="st15" d="M329,185.6c0,0.4,0,0.8,0,1.1h-0.6V186l0,0c-0.2,0.3-0.6,0.8-1.3,0.8c-0.6,0-1.4-0.4-1.4-1.8v-2.4h0.7v2.3
		c0,0.8,0.2,1.3,0.9,1.3c0.5,0,0.8-0.4,1-0.7c0-0.1,0.1-0.2,0.1-0.4v-2.6h0.7L329,185.6L329,185.6z"/>
	<path class="st15" d="M331.1,181.5v1h1v0.6h-1v2.3c0,0.5,0.1,0.8,0.5,0.8c0.2,0,0.3,0,0.4-0.1v0.6c-0.1,0.1-0.4,0.1-0.6,0.1
		c-0.3,0-0.6-0.1-0.8-0.3c-0.2-0.2-0.3-0.6-0.3-1.1v-2.3h-0.6v-0.6h0.6v-0.8L331.1,181.5z"/>
	<path class="st15" d="M335.7,185.7c0,0.4,0,0.7,0.1,1h-0.7l-0.1-0.5l0,0c-0.2,0.3-0.7,0.6-1.2,0.6c-0.8,0-1.2-0.6-1.2-1.2
		c0-1,0.9-1.6,2.4-1.6v-0.1c0-0.3-0.1-1-0.9-1c-0.4,0-0.8,0.1-1,0.3l-0.2-0.5c0.3-0.2,0.8-0.4,1.3-0.4c1.2,0,1.5,0.9,1.5,1.7
		L335.7,185.7L335.7,185.7z M335,184.6c-0.8,0-1.7,0.1-1.7,0.9c0,0.5,0.3,0.7,0.7,0.7c0.5,0,0.9-0.3,1-0.7c0-0.1,0-0.2,0-0.2V184.6
		L335,184.6z"/>
	<path class="st15" d="M337.8,181.5v1h1v0.6h-1v2.3c0,0.5,0.1,0.8,0.5,0.8c0.2,0,0.3,0,0.4-0.1v0.6c-0.1,0.1-0.4,0.1-0.6,0.1
		c-0.3,0-0.6-0.1-0.8-0.3c-0.2-0.2-0.3-0.6-0.3-1.1v-2.3h-0.6v-0.6h0.6v-0.8L337.8,181.5z"/>
	<path class="st15" d="M340,181.8c-0.3,0-0.5-0.2-0.5-0.5s0.2-0.5,0.5-0.5s0.5,0.2,0.5,0.5C340.4,181.5,340.2,181.8,340,181.8
		L340,181.8z M339.6,186.7v-4.2h0.7v4.2H339.6z"/>
	<path class="st15" d="M343.2,186.8c-1.1,0-1.9-0.8-1.9-2.2s0.9-2.2,2-2.2s1.9,0.9,1.9,2.1C345.1,186.1,344.1,186.8,343.2,186.8
		L343.2,186.8z M343.2,186.2c0.7,0,1.2-0.7,1.2-1.6c0-0.7-0.3-1.6-1.2-1.6c-0.8,0-1.2,0.8-1.2,1.6
		C342,185.6,342.5,186.2,343.2,186.2L343.2,186.2z"/>
	<path class="st15" d="M346.1,183.7c0-0.4,0-0.8,0-1.1h0.6v0.7l0,0c0.2-0.4,0.7-0.8,1.3-0.8s1.4,0.3,1.4,1.8v2.5h-0.7v-2.4
		c0-0.7-0.2-1.2-0.9-1.2c-0.5,0-0.8,0.4-1,0.8c0,0.1-0.1,0.2-0.1,0.4v2.5H346L346.1,183.7L346.1,183.7z"/>
	<path class="st15" d="M350.5,186c0.2,0.1,0.6,0.3,1,0.3c0.5,0,0.8-0.3,0.8-0.6c0-0.4-0.2-0.6-0.7-0.8c-0.7-0.3-1.1-0.7-1.1-1.2
		c0-0.7,0.5-1.2,1.4-1.2c0.4,0,0.8,0.1,1,0.3l-0.2,0.5c-0.2-0.1-0.4-0.2-0.8-0.2s-0.7,0.3-0.7,0.6c0,0.4,0.2,0.5,0.7,0.7
		c0.7,0.3,1,0.6,1,1.3s-0.6,1.3-1.5,1.3c-0.4,0-0.8-0.1-1.1-0.3L350.5,186z"/>
</g>
<g>
	<path class="st15" d="M265.4,172.5h0.7v2.6l0,0c0.3-0.5,0.7-0.8,1.4-0.8c1,0,1.7,0.9,1.7,2.1c0,1.5-0.9,2.2-1.8,2.2
		c-0.6,0-1-0.2-1.3-0.8l0,0v0.7h-0.6c0-0.3,0-0.7,0-1.1L265.4,172.5L265.4,172.5z M266.1,176.9c0,0.1,0,0.2,0,0.3
		c0.1,0.5,0.6,0.9,1.1,0.9c0.8,0,1.2-0.6,1.2-1.6c0-0.8-0.4-1.6-1.2-1.6c-0.5,0-1,0.4-1.1,0.9c0,0.1,0,0.2,0,0.3V176.9z"/>
	<path class="st15" d="M272.9,177.6c0,0.4,0,0.7,0.1,1h-0.7l-0.1-0.5l0,0c-0.2,0.3-0.7,0.6-1.2,0.6c-0.8,0-1.2-0.6-1.2-1.2
		c0-1,0.9-1.6,2.4-1.6v-0.1c0-0.3-0.1-1-0.9-1c-0.4,0-0.8,0.1-1,0.3l-0.2-0.5c0.3-0.2,0.8-0.4,1.3-0.4c1.2,0,1.5,0.9,1.5,1.7
		L272.9,177.6L272.9,177.6z M272.2,176.5c-0.8,0-1.7,0.1-1.7,0.9c0,0.5,0.3,0.7,0.7,0.7c0.5,0,0.9-0.3,1-0.7c0-0.1,0-0.2,0-0.2
		V176.5z"/>
	<path class="st15" d="M273.9,177.9c0.2,0.1,0.6,0.3,1,0.3c0.5,0,0.8-0.3,0.8-0.6c0-0.4-0.2-0.6-0.7-0.8c-0.7-0.3-1.1-0.7-1.1-1.2
		c0-0.7,0.5-1.2,1.4-1.2c0.4,0,0.8,0.1,1,0.3l-0.2,0.5c-0.2-0.1-0.4-0.2-0.8-0.2s-0.7,0.3-0.7,0.6c0,0.4,0.2,0.5,0.7,0.7
		c0.7,0.3,1,0.6,1,1.3s-0.6,1.3-1.5,1.3c-0.4,0-0.8-0.1-1.1-0.3L273.9,177.9z"/>
	<path class="st15" d="M277.7,176.7c0,1,0.6,1.5,1.4,1.5c0.5,0,0.8-0.1,1.1-0.2l0.1,0.5c-0.3,0.1-0.7,0.3-1.3,0.3
		c-1.2,0-2-0.9-2-2.1c0-1.3,0.7-2.3,1.9-2.3c1.3,0,1.6,1.2,1.6,2c0,0.2,0,0.3,0,0.4L277.7,176.7z M279.8,176.1c0-0.5-0.2-1.2-1-1.2
		c-0.7,0-1.1,0.7-1.1,1.2H279.8z"/>
	<path class="st15" d="M283.2,175.8c0-0.5,0-1,0-1.4h0.7v0.7l0,0c0.3-0.5,0.8-0.8,1.4-0.8c1,0,1.7,0.9,1.7,2.1
		c0,1.5-0.9,2.2-1.8,2.2c-0.5,0-1-0.2-1.2-0.7l0,0v2.3h-0.7v-4.4L283.2,175.8L283.2,175.8z M283.9,176.9c0,0.1,0,0.2,0,0.3
		c0.1,0.5,0.6,0.9,1.1,0.9c0.8,0,1.2-0.7,1.2-1.6c0-0.8-0.4-1.6-1.2-1.6c-0.5,0-1,0.4-1.1,0.9c0,0.1,0,0.2,0,0.3V176.9z"/>
	<path class="st15" d="M290.7,177.6c0,0.4,0,0.7,0.1,1h-0.7l-0.1-0.5l0,0c-0.2,0.3-0.7,0.6-1.2,0.6c-0.8,0-1.2-0.6-1.2-1.2
		c0-1,0.9-1.6,2.4-1.6v-0.1c0-0.3-0.1-1-0.9-1c-0.4,0-0.8,0.1-1,0.3l-0.2-0.5c0.3-0.2,0.8-0.4,1.3-0.4c1.2,0,1.5,0.9,1.5,1.7
		L290.7,177.6L290.7,177.6z M290,176.5c-0.8,0-1.7,0.1-1.7,0.9c0,0.5,0.3,0.7,0.7,0.7c0.5,0,0.9-0.3,1-0.7c0-0.1,0-0.2,0-0.2V176.5z
		"/>
	<path class="st15" d="M292.2,173.7c-0.3,0-0.5-0.2-0.5-0.5s0.2-0.5,0.5-0.5s0.5,0.2,0.5,0.5S292.5,173.7,292.2,173.7L292.2,173.7z
		 M291.8,178.6v-4.2h0.7v4.2H291.8z"/>
	<path class="st15" d="M293.8,175.7c0-0.5,0-0.9,0-1.3h0.6v0.8l0,0c0.2-0.6,0.6-0.9,1.1-0.9c0.1,0,0.1,0,0.2,0v0.7
		c-0.1,0-0.2,0-0.3,0c-0.5,0-0.9,0.4-1,1c0,0.1,0,0.2,0,0.4v2.2h-0.7L293.8,175.7z"/>
	<path class="st15" d="M301,177.6c0,0.4,0,0.7,0.1,1h-0.7v-0.5l0,0c-0.2,0.3-0.7,0.6-1.2,0.6c-0.8,0-1.2-0.6-1.2-1.2
		c0-1,0.9-1.6,2.4-1.6v-0.1c0-0.3-0.1-1-0.9-1c-0.4,0-0.8,0.1-1,0.3l-0.2-0.5c0.3-0.2,0.8-0.4,1.3-0.4c1.2,0,1.5,0.9,1.5,1.7
		L301,177.6L301,177.6z M300.3,176.5c-0.8,0-1.7,0.1-1.7,0.9c0,0.5,0.3,0.7,0.7,0.7c0.5,0,0.9-0.3,1-0.7c0-0.1,0-0.2,0-0.2V176.5
		L300.3,176.5z"/>
	<path class="st15" d="M302.2,175.6c0-0.4,0-0.8,0-1.1h0.6v0.7l0,0c0.2-0.4,0.7-0.8,1.3-0.8s1.4,0.3,1.4,1.8v2.5h-0.7v-2.4
		c0-0.7-0.2-1.2-0.9-1.2c-0.5,0-0.8,0.4-1,0.8c0,0.1,0,0.2,0,0.4v2.5h-0.7L302.2,175.6L302.2,175.6z"/>
	<path class="st15" d="M306.8,175.6c0-0.4,0-0.8,0-1.1h0.6v0.7l0,0c0.2-0.4,0.7-0.8,1.3-0.8s1.4,0.3,1.4,1.8v2.5h-0.7v-2.4
		c0-0.7-0.2-1.2-0.9-1.2c-0.5,0-0.8,0.4-1,0.8c0,0.1,0,0.2,0,0.4v2.5h-0.7L306.8,175.6L306.8,175.6z"/>
	<path class="st15" d="M313,178.7c-1.1,0-1.9-0.8-1.9-2.2s0.9-2.2,2-2.2s1.9,0.9,1.9,2.1C314.9,178,313.9,178.7,313,178.7L313,178.7
		z M313,178.1c0.7,0,1.2-0.7,1.2-1.6c0-0.7-0.3-1.6-1.2-1.6c-0.8,0-1.2,0.8-1.2,1.6C311.8,177.5,312.3,178.1,313,178.1L313,178.1z"
		/>
	<path class="st15" d="M316.7,173.4v1h1v0.6h-1v2.3c0,0.5,0.1,0.8,0.5,0.8c0.2,0,0.3,0,0.4-0.1v0.6c-0.1,0.1-0.4,0.1-0.6,0.1
		c-0.3,0-0.6-0.1-0.8-0.3s-0.3-0.6-0.3-1.1V175h-0.5v-0.6h0.6v-0.8L316.7,173.4z"/>
	<path class="st15" d="M321.4,177.6c0,0.4,0,0.7,0.1,1h-0.7l-0.1-0.5l0,0c-0.2,0.3-0.7,0.6-1.2,0.6c-0.8,0-1.2-0.6-1.2-1.2
		c0-1,0.9-1.6,2.4-1.6v-0.1c0-0.3-0.1-1-0.9-1c-0.4,0-0.8,0.1-1,0.3l-0.2-0.5c0.3-0.2,0.8-0.4,1.3-0.4c1.2,0,1.5,0.9,1.5,1.7
		L321.4,177.6L321.4,177.6z M320.7,176.5c-0.8,0-1.7,0.1-1.7,0.9c0,0.5,0.3,0.7,0.7,0.7c0.5,0,0.9-0.3,1-0.7c0-0.1,0-0.2,0-0.2
		V176.5z"/>
	<path class="st15" d="M323.4,173.4v1h1v0.6h-1v2.3c0,0.5,0.1,0.8,0.5,0.8c0.2,0,0.3,0,0.4-0.1v0.6c-0.1,0.1-0.4,0.1-0.6,0.1
		c-0.3,0-0.6-0.1-0.8-0.3c-0.2-0.2-0.3-0.6-0.3-1.1V175H322v-0.6h0.6v-0.8L323.4,173.4z"/>
	<path class="st15" d="M325.6,173.7c-0.3,0-0.5-0.2-0.5-0.5s0.2-0.5,0.5-0.5s0.5,0.2,0.5,0.5S325.9,173.7,325.6,173.7L325.6,173.7z
		 M325.3,178.6v-4.2h0.7v4.2H325.3z"/>
	<path class="st15" d="M328.8,178.7c-1.1,0-1.9-0.8-1.9-2.2s0.9-2.2,2-2.2s1.9,0.9,1.9,2.1C330.8,178,329.8,178.7,328.8,178.7
		L328.8,178.7z M328.8,178.1c0.7,0,1.2-0.7,1.2-1.6c0-0.7-0.3-1.6-1.2-1.6c-0.8,0-1.2,0.8-1.2,1.6
		C327.6,177.5,328.1,178.1,328.8,178.1L328.8,178.1z"/>
	<path class="st15" d="M331.7,175.6c0-0.4,0-0.8,0-1.1h0.6v0.7l0,0c0.2-0.4,0.7-0.8,1.3-0.8s1.4,0.3,1.4,1.8v2.5h-0.6v-2.4
		c0-0.7-0.2-1.2-0.9-1.2c-0.5,0-0.8,0.4-1,0.8c0,0.1-0.1,0.2-0.1,0.4v2.5h-0.7L331.7,175.6L331.7,175.6z"/>
	<path class="st15" d="M336.2,177.9c0.2,0.1,0.6,0.3,1,0.3c0.5,0,0.8-0.3,0.8-0.6c0-0.4-0.2-0.6-0.7-0.8c-0.7-0.3-1.1-0.7-1.1-1.2
		c0-0.7,0.5-1.2,1.4-1.2c0.4,0,0.8,0.1,1,0.3l-0.2,0.5c-0.2-0.1-0.4-0.2-0.8-0.2s-0.7,0.3-0.7,0.6c0,0.4,0.2,0.5,0.8,0.7
		c0.7,0.3,1,0.6,1,1.3s-0.6,1.3-1.5,1.3c-0.4,0-0.8-0.1-1.1-0.3L336.2,177.9z"/>
</g>
<g>
	<path class="st15" d="M286.1,194.1c-0.2,0.1-0.6,0.2-1.1,0.2c-1.2,0-2-0.9-2-2.1s0.8-2.2,2.1-2.2c0.4,0,0.8,0.1,1,0.2l-0.2,0.6
		c-0.2-0.1-0.4-0.2-0.8-0.2c-0.9,0-1.4,0.7-1.4,1.6c0,1,0.6,1.6,1.4,1.6c0.4,0,0.7-0.1,0.9-0.2L286.1,194.1z"/>
	<path class="st15" d="M288.5,194.4c-1.1,0-1.9-0.8-1.9-2.2s0.9-2.2,2-2.2s1.9,0.9,1.9,2.1C290.5,193.7,289.5,194.4,288.5,194.4
		L288.5,194.4z M288.5,193.8c0.7,0,1.2-0.7,1.2-1.6c0-0.7-0.3-1.6-1.2-1.6c-0.8,0-1.2,0.8-1.2,1.6
		C287.3,193.1,287.8,193.8,288.5,193.8L288.5,193.8z"/>
	<path class="st15" d="M291.4,191.2c0-0.4,0-0.8,0-1.1h0.6v0.7l0,0c0.2-0.4,0.6-0.8,1.3-0.8c0.5,0,0.9,0.3,1.1,0.8l0,0
		c0.1-0.2,0.3-0.4,0.5-0.5c0.2-0.2,0.5-0.3,0.9-0.3c0.5,0,1.3,0.4,1.3,1.8v2.5h-0.7v-2.4c0-0.8-0.3-1.3-0.9-1.3
		c-0.4,0-0.7,0.3-0.9,0.7c0,0.1-0.1,0.3-0.1,0.4v2.6h-0.7v-2.5c0-0.7-0.3-1.1-0.8-1.1c-0.4,0-0.8,0.4-0.9,0.8c0,0.1-0.1,0.2-0.1,0.4
		v2.5h-0.6L291.4,191.2L291.4,191.2z"/>
	<path class="st15" d="M298.3,191.5c0-0.5,0-1,0-1.4h0.7v0.7l0,0c0.3-0.5,0.8-0.8,1.4-0.8c1,0,1.7,0.9,1.7,2.1
		c0,1.5-0.9,2.2-1.8,2.2c-0.5,0-1-0.2-1.2-0.7l0,0v2.3h-0.7L298.3,191.5L298.3,191.5z M299,192.6c0,0.1,0,0.2,0,0.3
		c0.1,0.5,0.6,0.9,1.1,0.9c0.8,0,1.2-0.7,1.2-1.6c0-0.8-0.4-1.6-1.2-1.6c-0.5,0-1,0.4-1.1,0.9c0,0.1,0,0.2,0,0.3V192.6z"/>
	<path class="st15" d="M305.8,193.3c0,0.4,0,0.7,0.1,1h-0.7l-0.1-0.5l0,0c-0.2,0.3-0.7,0.6-1.2,0.6c-0.8,0-1.2-0.6-1.2-1.2
		c0-1,0.9-1.6,2.4-1.6v-0.1c0-0.3-0.1-1-0.9-1c-0.4,0-0.8,0.1-1,0.3l-0.2-0.5c0.3-0.2,0.8-0.4,1.3-0.4c1.2,0,1.5,0.9,1.5,1.7
		L305.8,193.3L305.8,193.3z M305.1,192.2c-0.8,0-1.7,0.1-1.7,0.9c0,0.5,0.3,0.7,0.7,0.7c0.5,0,0.9-0.3,1-0.7c0-0.1,0-0.2,0-0.2
		V192.2L305.1,192.2z"/>
	<path class="st15" d="M307.8,189.1v1h1v0.6h-1v2.3c0,0.5,0.1,0.8,0.5,0.8c0.2,0,0.3,0,0.4-0.1v0.6c-0.1,0.1-0.4,0.1-0.6,0.1
		c-0.3,0-0.6-0.1-0.8-0.3c-0.2-0.2-0.3-0.6-0.3-1.1v-2.3h-0.6v-0.6h0.6v-0.8L307.8,189.1z"/>
	<path class="st15" d="M310,189.3c-0.3,0-0.5-0.2-0.5-0.5s0.2-0.5,0.5-0.5s0.5,0.2,0.5,0.5S310.3,189.3,310,189.3L310,189.3z
		 M309.6,194.3v-4.2h0.7v4.2H309.6z"/>
	<path class="st15" d="M311.6,188.1h0.7v2.6l0,0c0.3-0.5,0.7-0.8,1.4-0.8c1,0,1.7,0.9,1.7,2.1c0,1.5-0.9,2.2-1.8,2.2
		c-0.6,0-1-0.2-1.3-0.8l0,0v0.7h-0.6c0-0.3,0-0.7,0-1.1L311.6,188.1L311.6,188.1z M312.3,192.6c0,0.1,0,0.2,0,0.3
		c0.1,0.5,0.6,0.9,1.1,0.9c0.8,0,1.2-0.6,1.2-1.6c0-0.8-0.4-1.6-1.2-1.6c-0.5,0-1,0.4-1.1,0.9c0,0.1,0,0.2,0,0.3V192.6L312.3,192.6z
		"/>
	<path class="st15" d="M316.2,188.1h0.7v6.1h-0.7V188.1z"/>
	<path class="st15" d="M318.6,192.3c0,1,0.6,1.5,1.4,1.5c0.5,0,0.8-0.1,1.1-0.2l0.1,0.5c-0.3,0.1-0.7,0.3-1.3,0.3
		c-1.2,0-2-0.9-2-2.1c0-1.3,0.7-2.3,1.9-2.3c1.3,0,1.6,1.2,1.6,2c0,0.2,0,0.3,0,0.4L318.6,192.3z M320.7,191.8c0-0.5-0.2-1.2-1-1.2
		c-0.7,0-1.1,0.7-1.1,1.2H320.7z"/>
	<path class="st15" d="M324.1,191.2c0-0.4,0-0.8,0-1.1h0.6v0.7l0,0c0.2-0.4,0.6-0.8,1.3-0.8c0.5,0,0.9,0.3,1.1,0.8l0,0
		c0.1-0.2,0.3-0.4,0.5-0.5c0.2-0.2,0.5-0.3,0.9-0.3c0.5,0,1.3,0.4,1.3,1.8v2.5h-0.7v-2.4c0-0.8-0.3-1.3-0.9-1.3
		c-0.4,0-0.7,0.3-0.9,0.7c0,0.1-0.1,0.3-0.1,0.4v2.6h-0.7v-2.5c0-0.7-0.3-1.1-0.8-1.1c-0.4,0-0.8,0.4-0.9,0.8c0,0.1-0.1,0.2-0.1,0.4
		v2.5H324L324.1,191.2L324.1,191.2z"/>
	<path class="st15" d="M334.3,193.1c0,0.4,0,0.8,0,1.1h-0.6v-0.7l0,0c-0.2,0.3-0.6,0.8-1.3,0.8c-0.6,0-1.4-0.4-1.4-1.8v-2.4h0.7v2.3
		c0,0.8,0.2,1.3,0.9,1.3c0.5,0,0.8-0.4,1-0.7c0-0.1,0.1-0.2,0.1-0.4v-2.5h0.7L334.3,193.1L334.3,193.1z"/>
	<path class="st15" d="M336.3,189.1v1h1v0.6h-1v2.3c0,0.5,0.1,0.8,0.5,0.8c0.2,0,0.3,0,0.4-0.1v0.6c-0.1,0.1-0.4,0.1-0.6,0.1
		c-0.3,0-0.6-0.1-0.8-0.3c-0.2-0.2-0.3-0.6-0.3-1.1v-2.3h-0.6v-0.6h0.6v-0.8L336.3,189.1z"/>
	<path class="st15" d="M341,193.3c0,0.4,0,0.7,0.1,1h-0.7l-0.1-0.5l0,0c-0.2,0.3-0.7,0.6-1.2,0.6c-0.8,0-1.2-0.6-1.2-1.2
		c0-1,0.9-1.6,2.4-1.6v-0.1c0-0.3-0.1-1-0.9-1c-0.4,0-0.8,0.1-1,0.3l-0.2-0.5c0.3-0.2,0.8-0.4,1.3-0.4c1.2,0,1.5,0.9,1.5,1.7
		L341,193.3L341,193.3z M340.3,192.2c-0.8,0-1.7,0.1-1.7,0.9c0,0.5,0.3,0.7,0.7,0.7c0.5,0,0.9-0.3,1-0.7c0-0.1,0-0.2,0-0.2V192.2
		L340.3,192.2z"/>
	<path class="st15" d="M343,189.1v1h1v0.6h-1v2.3c0,0.5,0.1,0.8,0.5,0.8c0.2,0,0.3,0,0.4-0.1v0.6c-0.1,0.1-0.4,0.1-0.6,0.1
		c-0.3,0-0.6-0.1-0.8-0.3c-0.2-0.2-0.3-0.6-0.3-1.1v-2.3h-0.6v-0.6h0.6v-0.8L343,189.1z"/>
	<path class="st15" d="M345.2,189.3c-0.3,0-0.5-0.2-0.5-0.5s0.2-0.5,0.5-0.5s0.5,0.2,0.5,0.5S345.5,189.3,345.2,189.3L345.2,189.3z
		 M344.9,194.3v-4.2h0.7v4.2H344.9z"/>
	<path class="st15" d="M348.4,194.4c-1.1,0-1.9-0.8-1.9-2.2s0.9-2.2,2-2.2s1.9,0.9,1.9,2.1C350.4,193.7,349.4,194.4,348.4,194.4
		L348.4,194.4z M348.4,193.8c0.7,0,1.2-0.7,1.2-1.6c0-0.7-0.3-1.6-1.2-1.6c-0.8,0-1.2,0.8-1.2,1.6
		C347.2,193.1,347.7,193.8,348.4,193.8L348.4,193.8z"/>
	<path class="st15" d="M351.3,191.2c0-0.4,0-0.8,0-1.1h0.6v0.7l0,0c0.2-0.4,0.7-0.8,1.3-0.8s1.4,0.3,1.4,1.8v2.5h-0.7v-2.4
		c0-0.7-0.2-1.2-0.9-1.2c-0.5,0-0.8,0.4-1,0.8c0,0.1-0.1,0.2-0.1,0.4v2.5h-0.7L351.3,191.2L351.3,191.2z"/>
	<path class="st15" d="M355.8,193.5c0.2,0.1,0.6,0.3,1,0.3c0.5,0,0.8-0.3,0.8-0.6c0-0.4-0.2-0.6-0.7-0.8c-0.7-0.3-1.1-0.7-1.1-1.2
		c0-0.7,0.5-1.2,1.4-1.2c0.4,0,0.8,0.1,1,0.3l-0.2,0.5c-0.2-0.1-0.4-0.2-0.8-0.2s-0.7,0.3-0.7,0.6c0,0.4,0.2,0.5,0.7,0.7
		c0.7,0.3,1,0.6,1,1.3s-0.6,1.3-1.5,1.3c-0.4,0-0.8-0.1-1.1-0.3L355.8,193.5z"/>
</g>
<g>
	<path class="st15" d="M283.2,198.8c0-0.4,0-0.8,0-1.1h0.6v0.7l0,0c0.2-0.4,0.7-0.8,1.3-0.8s1.4,0.3,1.4,1.8v2.5h-0.7v-2.4
		c0-0.7-0.2-1.2-0.9-1.2c-0.5,0-0.8,0.4-1,0.8c0,0.1,0,0.2,0,0.4v2.5h-0.7L283.2,198.8L283.2,198.8z"/>
	<path class="st15" d="M289.4,201.9c-1.1,0-1.9-0.8-1.9-2.2s0.9-2.2,2-2.2s1.9,0.9,1.9,2.1C291.4,201.3,290.4,201.9,289.4,201.9
		L289.4,201.9z M289.4,201.4c0.7,0,1.2-0.7,1.2-1.6c0-0.7-0.3-1.6-1.2-1.6c-0.8,0-1.2,0.8-1.2,1.6
		C288.2,200.7,288.7,201.4,289.4,201.4L289.4,201.4z"/>
	<path class="st15" d="M294.1,198.8c0-0.4,0-0.8,0-1.1h0.6v0.7l0,0c0.2-0.4,0.6-0.8,1.3-0.8c0.5,0,0.9,0.3,1.1,0.8l0,0
		c0.1-0.2,0.3-0.4,0.5-0.5c0.2-0.2,0.5-0.3,0.9-0.3c0.5,0,1.3,0.4,1.3,1.8v2.5h-0.7v-2.4c0-0.8-0.3-1.3-0.9-1.3
		c-0.4,0-0.7,0.3-0.9,0.7c0,0.1-0.1,0.3-0.1,0.4v2.6h-0.7v-2.5c0-0.7-0.3-1.1-0.8-1.1c-0.4,0-0.8,0.4-0.9,0.8c0,0.1-0.1,0.2-0.1,0.4
		v2.5H294L294.1,198.8L294.1,198.8z"/>
	<path class="st15" d="M304.3,200.7c0,0.4,0,0.8,0,1.1h-0.6v-0.7l0,0c-0.2,0.3-0.6,0.8-1.3,0.8c-0.6,0-1.4-0.4-1.4-1.8v-2.4h0.7v2.3
		c0,0.8,0.2,1.3,0.9,1.3c0.5,0,0.8-0.4,1-0.7c0-0.1,0.1-0.2,0.1-0.4v-2.6h0.7L304.3,200.7L304.3,200.7z"/>
	<path class="st15" d="M306.4,196.7v1h1v0.6h-1v2.3c0,0.5,0.1,0.8,0.5,0.8c0.2,0,0.3,0,0.4-0.1v0.6c-0.1,0.1-0.4,0.1-0.6,0.1
		c-0.3,0-0.6-0.1-0.8-0.3c-0.2-0.2-0.3-0.6-0.3-1.1v-2.3H305v-0.6h0.6v-0.8L306.4,196.7z"/>
	<path class="st15" d="M311,200.8c0,0.4,0,0.7,0.1,1h-0.7l-0.1-0.5l0,0c-0.2,0.3-0.7,0.6-1.2,0.6c-0.8,0-1.2-0.6-1.2-1.2
		c0-1,0.9-1.6,2.4-1.6l0,0c0-0.3-0.1-1-0.9-1c-0.4,0-0.8,0.1-1,0.3l-0.2-0.5c0.3-0.2,0.8-0.4,1.3-0.4c1.2,0,1.5,0.9,1.5,1.7
		L311,200.8L311,200.8z M310.3,199.7c-0.8,0-1.7,0.1-1.7,0.9c0,0.5,0.3,0.7,0.7,0.7c0.5,0,0.9-0.3,1-0.7c0-0.1,0-0.2,0-0.2V199.7
		L310.3,199.7z"/>
	<path class="st15" d="M313,196.7v1h1v0.6h-1v2.3c0,0.5,0.1,0.8,0.5,0.8c0.2,0,0.3,0,0.4-0.1v0.6c-0.1,0.1-0.4,0.1-0.6,0.1
		c-0.3,0-0.6-0.1-0.8-0.3c-0.2-0.2-0.3-0.6-0.3-1.1v-2.3h-0.6v-0.6h0.6v-0.8L313,196.7z"/>
	<path class="st15" d="M315.2,196.9c-0.3,0-0.5-0.2-0.5-0.5s0.2-0.5,0.5-0.5s0.5,0.2,0.5,0.5S315.5,196.9,315.2,196.9L315.2,196.9z
		 M314.9,201.9v-4.2h0.7v4.2H314.9z"/>
	<path class="st15" d="M318.4,201.9c-1.1,0-1.9-0.8-1.9-2.2s0.9-2.2,2-2.2s1.9,0.9,1.9,2.1C320.4,201.3,319.4,201.9,318.4,201.9
		L318.4,201.9z M318.5,201.4c0.7,0,1.2-0.7,1.2-1.6c0-0.7-0.3-1.6-1.2-1.6c-0.8,0-1.2,0.8-1.2,1.6
		C317.3,200.7,317.8,201.4,318.5,201.4L318.5,201.4z"/>
	<path class="st15" d="M321.3,198.8c0-0.4,0-0.8,0-1.1h0.6v0.7l0,0c0.2-0.4,0.7-0.8,1.3-0.8s1.4,0.3,1.4,1.8v2.5h-0.7v-2.4
		c0-0.7-0.2-1.2-0.9-1.2c-0.5,0-0.8,0.4-1,0.8c0,0.1,0,0.2,0,0.4v2.5h-0.7L321.3,198.8L321.3,198.8z"/>
	<path class="st15" d="M325.8,201.1c0.2,0.1,0.6,0.3,1,0.3c0.5,0,0.8-0.3,0.8-0.6c0-0.4-0.2-0.6-0.7-0.8c-0.7-0.3-1.1-0.7-1.1-1.2
		c0-0.7,0.5-1.2,1.4-1.2c0.4,0,0.8,0.1,1,0.3l-0.2,0.5c-0.2-0.1-0.4-0.2-0.8-0.2s-0.7,0.3-0.7,0.6c0,0.4,0.2,0.5,0.7,0.7
		c0.7,0.3,1,0.6,1,1.3s-0.6,1.3-1.5,1.3c-0.4,0-0.8-0.1-1.1-0.3L325.8,201.1z"/>
	<path class="st15" d="M332.5,201.9c-1.1,0-1.9-0.8-1.9-2.2s0.9-2.2,2-2.2s1.9,0.9,1.9,2.1C334.5,201.3,333.5,201.9,332.5,201.9
		L332.5,201.9z M332.6,201.4c0.7,0,1.2-0.7,1.2-1.6c0-0.7-0.3-1.6-1.2-1.6c-0.8,0-1.2,0.8-1.2,1.6
		C331.4,200.7,331.9,201.4,332.6,201.4L332.6,201.4z"/>
	<path class="st15" d="M335.4,195.7h0.7v2.6l0,0c0.3-0.5,0.7-0.8,1.4-0.8c1,0,1.7,0.9,1.7,2.1c0,1.5-0.9,2.2-1.8,2.2
		c-0.6,0-1-0.2-1.3-0.8l0,0v0.7h-0.7c0-0.3,0-0.7,0-1.1L335.4,195.7L335.4,195.7z M336.2,200.2c0,0.1,0,0.2,0,0.3
		c0.1,0.5,0.6,0.9,1.1,0.9c0.8,0,1.2-0.6,1.2-1.6c0-0.8-0.4-1.6-1.2-1.6c-0.5,0-1,0.4-1.1,0.9c0,0.1,0,0.2,0,0.3V200.2L336.2,200.2z
		"/>
	<path class="st15" d="M340,201.1c0.2,0.1,0.6,0.3,1,0.3c0.5,0,0.8-0.3,0.8-0.6c0-0.4-0.2-0.6-0.7-0.8c-0.7-0.3-1.1-0.7-1.1-1.2
		c0-0.7,0.5-1.2,1.4-1.2c0.4,0,0.8,0.1,1,0.3l-0.2,0.5c-0.2-0.1-0.4-0.2-0.8-0.2s-0.7,0.3-0.7,0.6c0,0.4,0.2,0.5,0.8,0.7
		c0.7,0.3,1,0.6,1,1.3s-0.6,1.3-1.5,1.3c-0.4,0-0.8-0.1-1.1-0.3L340,201.1z"/>
	<path class="st15" d="M343.8,199.9c0,1,0.6,1.5,1.4,1.5c0.5,0,0.8-0.1,1.1-0.2l0.1,0.5c-0.3,0.1-0.7,0.3-1.3,0.3
		c-1.2,0-2-0.9-2-2.1c0-1.3,0.7-2.3,1.9-2.3c1.3,0,1.6,1.2,1.6,2c0,0.2,0,0.3,0,0.4L343.8,199.9z M345.9,199.3c0-0.5-0.2-1.2-1-1.2
		c-0.7,0-1.1,0.7-1.1,1.2H345.9z"/>
	<path class="st15" d="M347.5,199c0-0.5,0-0.9,0-1.3h0.6v0.8l0,0c0.2-0.6,0.6-0.9,1.1-0.9c0.1,0,0.1,0,0.2,0v0.7c-0.1,0-0.2,0-0.3,0
		c-0.5,0-0.9,0.4-1,1c0,0.1,0,0.2,0,0.4v2.2h-0.7L347.5,199z"/>
	<path class="st15" d="M350.7,197.7l0.8,2.3c0.1,0.4,0.2,0.7,0.3,1.1l0,0c0.1-0.3,0.2-0.7,0.3-1.1l0.8-2.3h0.8l-1.6,4.2h-0.7
		l-1.5-4.2H350.7z"/>
	<path class="st15" d="M354.7,199.9c0,1,0.6,1.5,1.4,1.5c0.5,0,0.8-0.1,1.1-0.2l0.1,0.5c-0.3,0.1-0.7,0.3-1.3,0.3
		c-1.2,0-2-0.9-2-2.1c0-1.3,0.7-2.3,1.9-2.3c1.3,0,1.6,1.2,1.6,2c0,0.2,0,0.3,0,0.4L354.7,199.9z M356.8,199.3c0-0.5-0.2-1.2-1-1.2
		c-0.7,0-1.1,0.7-1.1,1.2H356.8z"/>
	<path class="st15" d="M361.9,195.7v5.1c0,0.4,0,0.8,0,1.1h-0.7v-0.7l0,0c-0.2,0.5-0.7,0.8-1.4,0.8c-1,0-1.7-0.9-1.7-2.1
		c0-1.4,0.8-2.2,1.8-2.2c0.6,0,1,0.3,1.2,0.6l0,0v-2.5C361.2,195.7,361.9,195.7,361.9,195.7z M361.2,199.4c0-0.1,0-0.2,0-0.3
		c-0.1-0.5-0.5-0.9-1-0.9c-0.7,0-1.2,0.7-1.2,1.6c0,0.9,0.4,1.6,1.2,1.6c0.5,0,0.9-0.3,1.1-0.9c0-0.1,0-0.2,0-0.3L361.2,199.4
		L361.2,199.4z"/>
</g>
<rect x="264.8" y="197.5" class="st16" width="4.2" height="4.4"/>
<rect x="274.7" y="197.5" class="st16" width="4.2" height="4.4"/>
<rect x="269" y="197.5" class="st16" width="5.7" height="4.4"/>
<line class="st17" x1="271.8" y1="199.9" x2="271.8" y2="199.4"/>
<rect x="274.7" y="182.3" class="st18" width="4.4" height="4.2"/>
<rect x="264.8" y="182.3" class="st18" width="4.4" height="4.2"/>
<rect x="269.1" y="182.3" class="st18" width="5.5" height="4.2"/>
<line class="st8" x1="272.7" y1="184.4" x2="271.1" y2="184.4"/>
<rect x="274.7" y="189.9" class="st19" width="4.4" height="4.2"/>
<rect x="264.8" y="189.9" class="st19" width="4.4" height="4.2"/>
<rect x="269.1" y="189.9" class="st19" width="5.5" height="4.2"/>
<line class="st8" x1="272.7" y1="192" x2="271.1" y2="192"/>
<g>
	<line class="st9" x1="279.7" y1="281.1" x2="292" y2="281.1"/>
	<g>
		<path class="st0" d="M297.6,279.4l0.8,2.3c0.1,0.4,0.2,0.7,0.3,1.1l0,0c0.1-0.3,0.2-0.7,0.3-1.1l0.8-2.3h0.8l-1.6,4.2h-0.7
			l-1.5-4.2H297.6z"/>
		<path class="st0" d="M304,282.6c0,0.4,0,0.7,0.1,1h-0.7l-0.1-0.5l0,0c-0.2,0.3-0.7,0.6-1.2,0.6c-0.8,0-1.2-0.6-1.2-1.2
			c0-1,0.9-1.6,2.4-1.6v-0.1c0-0.3-0.1-1-0.9-1c-0.4,0-0.8,0.1-1,0.3l-0.2-0.5c0.3-0.2,0.8-0.4,1.3-0.4c1.2,0,1.5,0.9,1.5,1.7
			L304,282.6L304,282.6z M303.3,281.5c-0.8,0-1.7,0.1-1.7,0.9c0,0.5,0.3,0.7,0.7,0.7c0.5,0,0.9-0.3,1-0.7c0-0.1,0-0.2,0-0.2V281.5z"
			/>
		<path class="st0" d="M305.2,280.8c0-0.5,0-0.9,0-1.3h0.6v0.8l0,0c0.2-0.6,0.6-0.9,1.1-0.9c0.1,0,0.1,0,0.2,0v0.7
			c-0.1,0-0.2,0-0.3,0c-0.5,0-0.9,0.4-1,1c0,0.1,0,0.2,0,0.4v2.2h-0.7L305.2,280.8z"/>
		<path class="st0" d="M308.3,278.7c-0.3,0-0.5-0.2-0.5-0.5s0.2-0.5,0.5-0.5s0.5,0.2,0.5,0.5S308.6,278.7,308.3,278.7L308.3,278.7z
			 M307.9,283.6v-4.2h0.7v4.2H307.9z"/>
		<path class="st0" d="M312.7,282.6c0,0.4,0,0.7,0.1,1h-0.7l-0.1-0.5l0,0c-0.2,0.3-0.7,0.6-1.2,0.6c-0.8,0-1.2-0.6-1.2-1.2
			c0-1,0.9-1.6,2.4-1.6v-0.1c0-0.3-0.1-1-0.9-1c-0.4,0-0.8,0.1-1,0.3l-0.2-0.5c0.3-0.2,0.8-0.4,1.3-0.4c1.2,0,1.5,0.9,1.5,1.7
			L312.7,282.6L312.7,282.6z M311.9,281.5c-0.8,0-1.7,0.1-1.7,0.9c0,0.5,0.3,0.7,0.7,0.7c0.5,0,0.9-0.3,1-0.7c0-0.1,0-0.2,0-0.2
			V281.5z"/>
		<path class="st0" d="M313.8,277.5h0.7v2.6l0,0c0.3-0.5,0.7-0.8,1.4-0.8c1,0,1.7,0.9,1.7,2.1c0,1.5-0.9,2.2-1.8,2.2
			c-0.6,0-1-0.2-1.3-0.8l0,0v0.7h-0.7c0-0.3,0-0.7,0-1.1L313.8,277.5L313.8,277.5z M314.5,282c0,0.1,0,0.2,0,0.3
			c0.1,0.5,0.6,0.9,1.1,0.9c0.8,0,1.2-0.6,1.2-1.6c0-0.8-0.4-1.6-1.2-1.6c-0.5,0-1,0.4-1.1,0.9c0,0.1,0,0.2,0,0.3V282L314.5,282z"/>
		<path class="st0" d="M318.5,277.5h0.7v6.1h-0.7V277.5z"/>
		<path class="st0" d="M320.8,281.7c0,1,0.6,1.5,1.4,1.5c0.5,0,0.8-0.1,1.1-0.2l0.1,0.5c-0.3,0.1-0.7,0.3-1.3,0.3
			c-1.2,0-2-0.9-2-2.1c0-1.3,0.7-2.3,1.9-2.3c1.3,0,1.6,1.2,1.6,2c0,0.2,0,0.3,0,0.4L320.8,281.7z M323,281.1c0-0.5-0.2-1.2-1-1.2
			c-0.7,0-1.1,0.7-1.1,1.2H323z"/>
		<path class="st0" d="M326.2,281v0.6h-2V281H326.2z"/>
		<path class="st0" d="M327.1,277.5h0.7v6.1h-0.7V277.5z"/>
		<path class="st0" d="M329.4,281.7c0,1,0.6,1.5,1.4,1.5c0.5,0,0.8-0.1,1.1-0.2l0.1,0.5c-0.3,0.1-0.7,0.3-1.3,0.3
			c-1.2,0-2-0.9-2-2.1c0-1.3,0.7-2.3,1.9-2.3c1.3,0,1.6,1.2,1.6,2c0,0.2,0,0.3,0,0.4L329.4,281.7z M331.6,281.1c0-0.5-0.2-1.2-1-1.2
			c-0.7,0-1.1,0.7-1.1,1.2H331.6z"/>
		<path class="st0" d="M333.2,280.6c0-0.4,0-0.8,0-1.1h0.6v0.7l0,0c0.2-0.4,0.7-0.8,1.3-0.8s1.4,0.3,1.4,1.8v2.5h-0.7v-2.4
			c0-0.7-0.2-1.2-0.9-1.2c-0.5,0-0.8,0.4-1,0.8c0,0.1-0.1,0.2-0.1,0.4v2.5h-0.7L333.2,280.6L333.2,280.6z"/>
		<path class="st0" d="M341.1,283c0,1-0.2,1.5-0.6,1.9s-1,0.5-1.5,0.5s-1-0.1-1.3-0.3l0.2-0.6c0.3,0.2,0.7,0.3,1.2,0.3
			c0.7,0,1.3-0.4,1.3-1.5v-0.5l0,0c-0.2,0.4-0.7,0.7-1.3,0.7c-1,0-1.7-0.9-1.7-2c0-1.4,0.9-2.2,1.8-2.2c0.7,0,1.1,0.4,1.2,0.7l0,0
			v-0.6h0.6c0,0.3,0,0.6,0,1.1L341.1,283L341.1,283z M340.4,281.1c0-0.1,0-0.2,0-0.3c-0.1-0.4-0.5-0.8-1-0.8c-0.7,0-1.2,0.6-1.2,1.6
			c0,0.8,0.4,1.5,1.2,1.5c0.5,0,0.9-0.3,1-0.8c0-0.1,0.1-0.3,0.1-0.4v-0.8L340.4,281.1L340.4,281.1z"/>
		<path class="st0" d="M343.2,278.4v1h1v0.6h-1v2.3c0,0.5,0.1,0.8,0.5,0.8c0.2,0,0.3,0,0.4-0.1v0.6c-0.1,0.1-0.4,0.1-0.6,0.1
			c-0.3,0-0.6-0.1-0.8-0.3c-0.2-0.2-0.3-0.6-0.3-1.1V280h-0.6v-0.6h0.6v-0.8L343.2,278.4z"/>
		<path class="st0" d="M345.1,277.5h0.7v2.6l0,0c0.1-0.2,0.3-0.4,0.5-0.5s0.5-0.2,0.7-0.2c0.5,0,1.4,0.3,1.4,1.8v2.5h-0.7v-2.4
			c0-0.7-0.2-1.2-0.9-1.2c-0.5,0-0.8,0.3-1,0.8c0,0.1-0.1,0.2-0.1,0.4v2.5H345L345.1,277.5L345.1,277.5z"/>
		<path class="st0" d="M351.4,280.8c0-0.5,0-0.9,0-1.3h0.6v0.8l0,0c0.2-0.6,0.6-0.9,1.1-0.9c0.1,0,0.1,0,0.2,0v0.7
			c-0.1,0-0.2,0-0.3,0c-0.5,0-0.9,0.4-1,1c0,0.1,0,0.2,0,0.4v2.2h-0.7L351.4,280.8z"/>
		<path class="st0" d="M354.4,281.7c0,1,0.6,1.5,1.4,1.5c0.5,0,0.8-0.1,1.1-0.2l0.1,0.5c-0.3,0.1-0.7,0.3-1.3,0.3
			c-1.2,0-2-0.9-2-2.1c0-1.3,0.7-2.3,1.9-2.3c1.3,0,1.6,1.2,1.6,2c0,0.2,0,0.3,0,0.4L354.4,281.7z M356.6,281.1c0-0.5-0.2-1.2-1-1.2
			c-0.7,0-1.1,0.7-1.1,1.2H356.6z"/>
		<path class="st0" d="M361.6,283c0,1-0.2,1.5-0.6,1.9s-1,0.5-1.5,0.5s-1-0.1-1.3-0.3l0.2-0.6c0.3,0.2,0.7,0.3,1.2,0.3
			c0.7,0,1.3-0.4,1.3-1.5v-0.5l0,0c-0.2,0.4-0.7,0.7-1.3,0.7c-1,0-1.7-0.9-1.7-2c0-1.4,0.9-2.2,1.8-2.2c0.7,0,1.1,0.4,1.2,0.7l0,0
			v-0.6h0.6c0,0.3,0,0.6,0,1.1L361.6,283L361.6,283z M360.9,281.1c0-0.1,0-0.2,0-0.3c-0.1-0.4-0.5-0.8-1-0.8c-0.7,0-1.2,0.6-1.2,1.6
			c0,0.8,0.4,1.5,1.2,1.5c0.5,0,0.9-0.3,1-0.8c0-0.1,0.1-0.3,0.1-0.4v-0.8L360.9,281.1L360.9,281.1z"/>
		<path class="st0" d="M363.1,278.7c-0.3,0-0.5-0.2-0.5-0.5s0.2-0.5,0.5-0.5s0.5,0.2,0.5,0.5S363.4,278.7,363.1,278.7L363.1,278.7z
			 M362.8,283.6v-4.2h0.7v4.2H362.8z"/>
		<path class="st0" d="M366.3,283.7c-1.1,0-1.9-0.8-1.9-2.2s0.9-2.2,2-2.2s1.9,0.9,1.9,2.1C368.3,283,367.3,283.7,366.3,283.7
			L366.3,283.7z M366.3,283.2c0.7,0,1.2-0.7,1.2-1.6c0-0.7-0.3-1.6-1.2-1.6c-0.8,0-1.2,0.8-1.2,1.6
			C365.1,282.5,365.6,283.2,366.3,283.2L366.3,283.2z"/>
		<path class="st0" d="M369.2,280.6c0-0.4,0-0.8,0-1.1h0.6v0.7l0,0c0.2-0.4,0.7-0.8,1.3-0.8c0.6,0,1.4,0.3,1.4,1.8v2.5h-0.7v-2.4
			c0-0.7-0.2-1.2-0.9-1.2c-0.5,0-0.8,0.4-1,0.8c0,0.1-0.1,0.2-0.1,0.4v2.5h-0.7L369.2,280.6L369.2,280.6z"/>
	</g>
</g>
<g>
	<g>
		<path class="st0" d="M284.9,266.2l0.8,2.3c0.1,0.4,0.2,0.7,0.3,1.1l0,0c0.1-0.3,0.2-0.7,0.3-1.1l0.8-2.3h0.8l-1.6,4.2h-0.7
			l-1.5-4.2C284.1,266.2,284.9,266.2,284.9,266.2z"/>
		<path class="st0" d="M291.3,269.4c0,0.4,0,0.7,0.1,1h-0.7l-0.1-0.5l0,0c-0.2,0.3-0.7,0.6-1.2,0.6c-0.8,0-1.2-0.6-1.2-1.2
			c0-1,0.9-1.6,2.4-1.6v-0.1c0-0.3-0.1-1-0.9-1c-0.4,0-0.8,0.1-1,0.3l-0.2-0.5c0.3-0.2,0.8-0.4,1.3-0.4c1.2,0,1.5,0.9,1.5,1.7
			L291.3,269.4L291.3,269.4z M290.6,268.3c-0.8,0-1.7,0.1-1.7,0.9c0,0.5,0.3,0.7,0.7,0.7c0.5,0,0.9-0.3,1-0.7c0-0.1,0-0.2,0-0.2
			V268.3L290.6,268.3z"/>
		<path class="st0" d="M292.5,267.5c0-0.5,0-0.9,0-1.3h0.6v0.8l0,0c0.2-0.6,0.6-0.9,1.1-0.9c0.1,0,0.1,0,0.2,0v0.7
			c-0.1,0-0.2,0-0.3,0c-0.5,0-0.9,0.4-1,1c0,0.1,0,0.2,0,0.4v2.2h-0.7L292.5,267.5z"/>
		<path class="st0" d="M295.5,265.4c-0.3,0-0.5-0.2-0.5-0.5s0.2-0.5,0.5-0.5s0.5,0.2,0.5,0.5C296,265.2,295.8,265.4,295.5,265.4
			L295.5,265.4z M295.2,270.4v-4.2h0.7v4.2H295.2z"/>
		<path class="st0" d="M299.9,269.4c0,0.4,0,0.7,0.1,1h-0.7l-0.1-0.5l0,0c-0.2,0.3-0.7,0.6-1.2,0.6c-0.8,0-1.2-0.6-1.2-1.2
			c0-1,0.9-1.6,2.4-1.6v-0.1c0-0.3-0.1-1-0.9-1c-0.4,0-0.8,0.1-1,0.3l-0.2-0.5c0.3-0.2,0.8-0.4,1.3-0.4c1.2,0,1.5,0.9,1.5,1.7
			L299.9,269.4L299.9,269.4z M299.2,268.3c-0.8,0-1.7,0.1-1.7,0.9c0,0.5,0.3,0.7,0.7,0.7c0.5,0,0.9-0.3,1-0.7c0-0.1,0-0.2,0-0.2
			V268.3L299.2,268.3z"/>
		<path class="st0" d="M301.1,264.3h0.7v2.6l0,0c0.3-0.5,0.7-0.8,1.4-0.8c1,0,1.7,0.9,1.7,2.1c0,1.5-0.9,2.2-1.8,2.2
			c-0.6,0-1-0.2-1.3-0.8l0,0v0.7h-0.6c0-0.3,0-0.7,0-1.1L301.1,264.3L301.1,264.3z M301.8,268.7c0,0.1,0,0.2,0,0.3
			c0.1,0.5,0.6,0.9,1.1,0.9c0.8,0,1.2-0.6,1.2-1.6c0-0.8-0.4-1.6-1.2-1.6c-0.5,0-1,0.4-1.1,0.9c0,0.1,0,0.2,0,0.3V268.7L301.8,268.7
			z"/>
		<path class="st0" d="M305.8,264.3h0.7v6.1h-0.7V264.3z"/>
		<path class="st0" d="M308.1,268.4c0,1,0.6,1.5,1.4,1.5c0.5,0,0.8-0.1,1.1-0.2l0.1,0.5c-0.3,0.1-0.7,0.3-1.3,0.3
			c-1.2,0-2-0.9-2-2.1c0-1.3,0.7-2.3,1.9-2.3c1.3,0,1.6,1.2,1.6,2c0,0.2,0,0.3,0,0.4L308.1,268.4z M310.2,267.9c0-0.5-0.2-1.2-1-1.2
			c-0.7,0-1.1,0.7-1.1,1.2H310.2z"/>
		<path class="st0" d="M313.5,267.8v0.6h-2v-0.6H313.5z"/>
		<path class="st0" d="M314.4,264.3h0.7v6.1h-0.7V264.3z"/>
		<path class="st0" d="M316.7,268.4c0,1,0.6,1.5,1.4,1.5c0.5,0,0.8-0.1,1.1-0.2l0.1,0.5c-0.3,0.1-0.7,0.3-1.3,0.3
			c-1.2,0-2-0.9-2-2.1c0-1.3,0.7-2.3,1.9-2.3c1.3,0,1.6,1.2,1.6,2c0,0.2,0,0.3,0,0.4L316.7,268.4z M318.8,267.9c0-0.5-0.2-1.2-1-1.2
			c-0.7,0-1.1,0.7-1.1,1.2H318.8z"/>
		<path class="st0" d="M320.4,267.3c0-0.4,0-0.8,0-1.1h0.6v0.7l0,0c0.2-0.4,0.7-0.8,1.3-0.8s1.4,0.3,1.4,1.8v2.5H323V268
			c0-0.7-0.2-1.2-0.9-1.2c-0.5,0-0.8,0.4-1,0.8c0,0.1,0,0.2,0,0.4v2.5h-0.7V267.3L320.4,267.3z"/>
		<path class="st0" d="M328.4,269.8c0,1-0.2,1.5-0.6,1.9s-1,0.5-1.5,0.5s-1-0.1-1.3-0.3l0.2-0.6c0.3,0.2,0.7,0.3,1.2,0.3
			c0.7,0,1.3-0.4,1.3-1.5v-0.5l0,0c-0.2,0.4-0.7,0.7-1.3,0.7c-1,0-1.7-0.9-1.7-2c0-1.4,0.9-2.2,1.8-2.2c0.7,0,1.1,0.4,1.2,0.7l0,0
			v-0.6h0.6c0,0.3,0,0.6,0,1.1L328.4,269.8L328.4,269.8z M327.7,267.9c0-0.1,0-0.2,0-0.3c-0.1-0.4-0.5-0.8-1-0.8
			c-0.7,0-1.2,0.6-1.2,1.6c0,0.8,0.4,1.5,1.2,1.5c0.5,0,0.9-0.3,1-0.8c0-0.1,0.1-0.3,0.1-0.4L327.7,267.9L327.7,267.9z"/>
		<path class="st0" d="M330.5,265.2v1h1v0.6h-1v2.3c0,0.5,0.1,0.8,0.5,0.8c0.2,0,0.3,0,0.4-0.1v0.6c-0.1,0.1-0.4,0.1-0.6,0.1
			c-0.3,0-0.6-0.1-0.8-0.3c-0.2-0.2-0.3-0.6-0.3-1.1v-2.3h-0.6v-0.6h0.6v-0.8L330.5,265.2z"/>
		<path class="st0" d="M332.3,264.3h0.7v2.6l0,0c0.1-0.2,0.3-0.4,0.5-0.5s0.5-0.2,0.7-0.2c0.5,0,1.4,0.3,1.4,1.8v2.5h-0.7v-2.4
			c0-0.7-0.2-1.2-0.9-1.2c-0.5,0-0.8,0.3-1,0.8c0,0.1,0,0.2,0,0.4v2.5h-0.7V264.3z"/>
		<path class="st0" d="M338.5,269.6c0.2,0.1,0.6,0.3,1,0.3c0.5,0,0.8-0.3,0.8-0.6c0-0.4-0.2-0.6-0.7-0.8c-0.7-0.3-1.1-0.7-1.1-1.2
			c0-0.7,0.5-1.2,1.4-1.2c0.4,0,0.8,0.1,1,0.3l-0.2,0.5c-0.2-0.1-0.4-0.2-0.8-0.2s-0.7,0.3-0.7,0.6c0,0.4,0.2,0.5,0.7,0.7
			c0.7,0.3,1,0.6,1,1.3c0,0.7-0.6,1.3-1.5,1.3c-0.4,0-0.8-0.1-1.1-0.3L338.5,269.6z"/>
		<path class="st0" d="M342.8,265.2v1h1v0.6h-1v2.3c0,0.5,0.1,0.8,0.5,0.8c0.2,0,0.3,0,0.4-0.1v0.6c-0.1,0.1-0.4,0.1-0.6,0.1
			c-0.3,0-0.6-0.1-0.8-0.3c-0.2-0.2-0.3-0.6-0.3-1.1v-2.3h-0.6v-0.6h0.6v-0.8L342.8,265.2z"/>
		<path class="st0" d="M345,268.4c0,1,0.6,1.5,1.4,1.5c0.5,0,0.8-0.1,1.1-0.2l0.1,0.5c-0.3,0.1-0.7,0.3-1.3,0.3c-1.2,0-2-0.9-2-2.1
			c0-1.3,0.7-2.3,1.9-2.3c1.3,0,1.6,1.2,1.6,2c0,0.2,0,0.3,0,0.4L345,268.4z M347.1,267.9c0-0.5-0.2-1.2-1-1.2
			c-0.7,0-1.1,0.7-1.1,1.2H347.1z"/>
		<path class="st0" d="M348.7,267.3c0-0.4,0-0.8,0-1.1h0.6v0.7l0,0c0.2-0.4,0.6-0.8,1.3-0.8c0.5,0,0.9,0.3,1.1,0.8l0,0
			c0.1-0.2,0.3-0.4,0.5-0.5c0.2-0.2,0.5-0.3,0.9-0.3c0.5,0,1.3,0.4,1.3,1.8v2.5h-0.7V268c0-0.8-0.3-1.3-0.9-1.3
			c-0.4,0-0.7,0.3-0.9,0.7c0,0.1-0.1,0.3-0.1,0.4v2.6h-0.7v-2.5c0-0.7-0.3-1.1-0.8-1.1c-0.4,0-0.8,0.4-0.9,0.8
			c0,0.1-0.1,0.2-0.1,0.4v2.5h-0.7L348.7,267.3L348.7,267.3z"/>
		<path class="st0" d="M357.3,267.8v0.6h-2v-0.6H357.3z"/>
		<path class="st0" d="M358.1,264.3h0.7v6.1h-0.7V264.3z"/>
		<path class="st0" d="M361.7,270.5c-1.1,0-1.9-0.8-1.9-2.2s0.9-2.2,2-2.2s1.9,0.9,1.9,2.1C363.7,269.8,362.6,270.5,361.7,270.5
			L361.7,270.5z M361.7,269.9c0.7,0,1.2-0.7,1.2-1.6c0-0.7-0.3-1.6-1.2-1.6c-0.8,0-1.2,0.8-1.2,1.6
			C360.5,269.2,361,269.9,361.7,269.9L361.7,269.9z"/>
		<path class="st0" d="M366.2,270.5c-1.1,0-1.9-0.8-1.9-2.2s0.9-2.2,2-2.2s1.9,0.9,1.9,2.1C368.2,269.8,367.2,270.5,366.2,270.5
			L366.2,270.5z M366.2,269.9c0.7,0,1.2-0.7,1.2-1.6c0-0.7-0.3-1.6-1.2-1.6c-0.8,0-1.2,0.8-1.2,1.6
			C365,269.2,365.5,269.9,366.2,269.9L366.2,269.9z"/>
		<path class="st0" d="M369.1,267.6c0-0.5,0-1,0-1.4h0.7v0.7l0,0c0.3-0.5,0.8-0.8,1.4-0.8c1,0,1.7,0.9,1.7,2.1
			c0,1.5-0.9,2.2-1.8,2.2c-0.5,0-1-0.2-1.2-0.7l0,0v2.3h-0.7L369.1,267.6L369.1,267.6z M369.8,268.7c0,0.1,0,0.2,0,0.3
			c0.1,0.5,0.6,0.9,1.1,0.9c0.8,0,1.2-0.7,1.2-1.6c0-0.8-0.4-1.6-1.2-1.6c-0.5,0-1,0.4-1.1,0.9c0,0.1,0,0.2,0,0.3V268.7z"/>
	</g>
	<g>
		<path class="st9" d="M281.7,271.4h-8.6c-1.7,2.9-5.5,3.9-8.4,2.2c-2.9-1.7-3.9-5.5-2.2-8.4c1.7-2.9,5.5-3.9,8.4-2.2
			c0.9,0.5,1.7,1.3,2.2,2.2h8.6"/>
		<rect x="280" y="267.3" class="st0" width="0.7" height="2"/>
		<rect x="280" y="267.3" class="st20" width="0.7" height="2"/>
		<rect x="276.3" y="267.3" class="st0" width="0.7" height="2"/>
		<rect x="276.3" y="267.3" class="st20" width="0.7" height="2"/>
		<rect x="272.7" y="267.3" class="st0" width="0.7" height="2"/>
		<rect x="272.7" y="267.3" class="st20" width="0.7" height="2"/>
	</g>
</g>
<path class="st0" d="M275.7,295.1c0.4-0.1,0.9-0.1,1.4-0.1c0.8,0,1.3,0.2,1.7,0.5c0.3,0.3,0.5,0.6,0.5,1.1c0,0.8-0.5,1.3-1.1,1.5
	l0,0c0.4,0.2,0.7,0.6,0.9,1.2c0.2,0.8,0.3,1.4,0.4,1.6h-0.8c-0.1-0.2-0.2-0.7-0.4-1.4c-0.2-0.8-0.5-1.1-1.2-1.1h-0.7v2.5h-0.8
	L275.7,295.1L275.7,295.1z M276.5,297.7h0.8c0.8,0,1.3-0.4,1.3-1.1c0-0.8-0.5-1.1-1.3-1.1c-0.4,0-0.6,0-0.7,0.1L276.5,297.7
	L276.5,297.7z"/>
<path class="st0" d="M281.9,297.9v-0.5h4.5v0.5H281.9z M281.9,299.6v-0.5h4.5v0.5H281.9z"/>
<path class="st0" d="M290.1,299l-0.6,1.8h-0.7l2-5.8h0.9l2,5.8h-0.9l-0.6-1.8H290.1z M292.1,298.4l-0.6-1.7
	c-0.1-0.4-0.2-0.7-0.3-1.1l0,0c-0.1,0.3-0.2,0.7-0.3,1.1l-0.6,1.7H292.1L292.1,298.4z"/>
<path class="st0" d="M298,300.9c-1.1,0-2-0.8-2-2.2s0.9-2.2,2.1-2.2s2,0.9,2,2.1C300.1,300.3,299,300.9,298,300.9L298,300.9
	L298,300.9z M298,300.4c0.7,0,1.3-0.7,1.3-1.6c0-0.7-0.4-1.6-1.3-1.6s-1.3,0.8-1.3,1.6C296.8,299.7,297.3,300.4,298,300.4L298,300.4
	z"/>
<path class="st0" d="M301.1,298c0-0.5,0-0.9,0-1.3h0.7v0.8l0,0c0.2-0.6,0.7-0.9,1.2-0.9c0.1,0,0.1,0,0.2,0v0.7c-0.1,0-0.2,0-0.3,0
	c-0.5,0-0.9,0.4-1,1c0,0.1,0,0.2,0,0.4v2.2h-0.8L301.1,298L301.1,298z"/>
<path class="st0" d="M310.2,300.6c-0.3,0.1-1,0.3-1.8,0.3c-0.9,0-1.6-0.2-2.2-0.8c-0.5-0.5-0.8-1.3-0.8-2.2c0-1.7,1.2-3,3.2-3
	c0.7,0,1.2,0.1,1.5,0.3l-0.2,0.6c-0.3-0.1-0.7-0.3-1.3-0.3c-1.4,0-2.3,0.9-2.3,2.3c0,1.5,0.9,2.4,2.2,2.4c0.5,0,0.8-0.1,1-0.2v-1.6
	h-1.2v-0.6h1.9L310.2,300.6L310.2,300.6z"/>
<path class="st0" d="M215.6,275.1c-0.3,0-0.5-0.2-0.5-0.5s0.2-0.5,0.5-0.5s0.5,0.2,0.5,0.5S215.9,275.1,215.6,275.1L215.6,275.1z"/>
<path class="st0" d="M316.2,300.8v-2.4l-1.9-3.4h0.9l0.8,1.6c0.2,0.4,0.4,0.8,0.6,1.2l0,0c0.2-0.4,0.4-0.8,0.6-1.2l0.8-1.6h0.8
	l-1.9,3.3v2.5H316.2L316.2,300.8z"/>
<path class="st0" d="M321.1,297.9v-0.5h4.5v0.5H321.1z M321.1,299.6v-0.5h4.5v0.5H321.1z"/>
<path class="st0" d="M332.5,300.7c-0.3,0.1-0.8,0.3-1.5,0.3c-1.6,0-2.9-1-2.9-3c0-1.8,1.2-3.1,3-3.1c0.7,0,1.2,0.2,1.4,0.3l-0.2,0.6
	c-0.3-0.1-0.7-0.2-1.2-0.2c-1.4,0-2.3,0.9-2.3,2.4c0,1.4,0.8,2.3,2.2,2.3c0.5,0,0.9-0.1,1.2-0.2L332.5,300.7z"/>
<path class="st0" d="M337,300.9c-1.1,0-2-0.8-2-2.2s0.9-2.2,2.1-2.2s2,0.9,2,2.1C339,300.3,338,300.9,337,300.9L337,300.9L337,300.9
	z M337,300.4c0.7,0,1.3-0.7,1.3-1.6c0-0.7-0.4-1.6-1.3-1.6s-1.3,0.8-1.3,1.6C335.7,299.7,336.2,300.4,337,300.4L337,300.4z"/>
<path class="st0" d="M340,298c0-0.5,0-0.9,0-1.3h0.7v0.8l0,0c0.2-0.6,0.7-0.9,1.2-0.9c0.1,0,0.1,0,0.2,0v0.7c-0.1,0-0.2,0-0.3,0
	c-0.5,0-0.9,0.4-1,1c0,0.1,0,0.2,0,0.4v2.2H340V298z"/>
<path class="st0" d="M345.4,295v3.5c0,1.3,0.6,1.9,1.4,1.9c0.9,0,1.4-0.6,1.4-1.9V295h0.8v3.4c0,1.8-0.9,2.5-2.2,2.5
	c-1.2,0-2.1-0.7-2.1-2.5V295H345.4L345.4,295z"/>
<path class="st0" d="M254.6,275.1c-0.3,0-0.5-0.2-0.5-0.5s0.2-0.5,0.5-0.5s0.5,0.2,0.5,0.5S254.9,275.1,254.6,275.1L254.6,275.1z"/>
<text transform="matrix(1 0 0 1 29.5677 86.8047)" class="st21 st22">Guanidine-III riboswitch</text>
</svg>
