<svg id="图层_1" data-name="图层 1" xmlns="http://www.w3.org/2000/svg" viewBox="0 0 400 400"><defs><style>.cls-1,.cls-11,.cls-12,.cls-13,.cls-14,.cls-15,.cls-2,.cls-3,.cls-4,.cls-5,.cls-6{isolation:isolate;}.cls-1,.cls-11,.cls-12,.cls-13,.cls-14,.cls-15,.cls-2,.cls-4,.cls-5,.cls-6{font-size:13.82px;}.cls-1,.cls-16,.cls-2{fill:#c2c2ff;}.cls-1,.cls-11,.cls-12,.cls-13,.cls-14,.cls-15,.cls-16,.cls-17,.cls-18,.cls-19,.cls-2,.cls-20,.cls-22,.cls-25,.cls-3,.cls-4,.cls-5,.cls-6{font-family:ArialMT, Arial;}.cls-12,.cls-14,.cls-15,.cls-2,.cls-5{letter-spacing:-0.06em;}.cls-3{font-size:8px;}.cls-19,.cls-4,.cls-5{fill:#09fefe;}.cls-15,.cls-18,.cls-6{fill:#ff870a;}.cls-10,.cls-23,.cls-7{fill:none;}.cls-10,.cls-7,.cls-8,.cls-9{stroke:#000;}.cls-10,.cls-24,.cls-7,.cls-8,.cls-9{stroke-miterlimit:1.14;}.cls-24,.cls-7,.cls-8,.cls-9{stroke-width:0.14px;}.cls-24,.cls-9{fill:#fff;}.cls-10{stroke-width:1.29px;}.cls-11,.cls-12,.cls-17{fill:#ffaadc;}.cls-13,.cls-14,.cls-20{fill:#80db9e;}.cls-16,.cls-17,.cls-18,.cls-19,.cls-20{font-size:16px;}.cls-21{fill:#ff0b0c;}.cls-22{font-size:14px;}.cls-23,.cls-24{stroke:#ff0b0c;}.cls-23{stroke-miterlimit:1.14;stroke-width:0.14px;}.cls-25{font-size:10px;}.cls-26{letter-spacing:-0.04em;}</style></defs><text class="cls-1" transform="translate(208.16 377.45)">G</text><text class="cls-1" transform="translate(208.16 363.51)">G</text><text class="cls-2" transform="translate(208.92 349.56)">A</text><text class="cls-1" transform="translate(208.54 335.62)">U</text><text class="cls-1" transform="translate(208.54 321.67)">C</text><text class="cls-2" transform="translate(208.92 307.73)">A</text><text class="cls-1" transform="translate(208.54 293.78)">U</text><text class="cls-3" transform="translate(200 291.34)">20</text><text class="cls-2" transform="translate(208.92 279.84)">A</text><text class="cls-4" transform="translate(205.05 244.98)">U</text><text class="cls-5" transform="translate(205.44 227.54)">A</text><text class="cls-5" transform="translate(205.44 210.11)">A</text><text class="cls-6" transform="translate(239.92 262.41)">C</text><text class="cls-1" transform="translate(236.43 279.84)">U</text><text class="cls-2" transform="translate(236.81 293.78)">A</text><text class="cls-1" transform="translate(236.43 307.73)">U</text><text class="cls-1" transform="translate(236.05 321.67)">G</text><text class="cls-1" transform="translate(236.05 335.62)">G</text><text class="cls-1" transform="translate(236.43 349.56)">U</text><text class="cls-3" transform="translate(245.93 347.14)">80</text><text class="cls-1" transform="translate(236.43 363.51)">C</text><line class="cls-7" x1="219.11" y1="357.23" x2="235.84" y2="357.23"/><line class="cls-7" x1="219.11" y1="343.29" x2="235.84" y2="343.29"/><polygon class="cls-8" points="230.26 329.34 230.26 329.17 230.24 328.99 230.21 328.81 230.17 328.64 230.12 328.47 230.06 328.31 229.99 328.14 229.91 327.99 229.82 327.83 229.72 327.69 229.61 327.55 229.49 327.42 229.37 327.29 229.23 327.18 229.09 327.07 228.94 326.97 228.79 326.88 228.63 326.81 228.47 326.74 228.3 326.68 228.13 326.63 227.96 326.6 227.78 326.57 227.61 326.56 227.43 326.55 227.25 326.56 227.08 326.58 226.9 326.61 226.73 326.65 226.56 326.71 226.4 326.77 226.24 326.84 226.08 326.93 225.93 327.02 225.78 327.12 225.65 327.23 225.52 327.35 225.4 327.48 225.28 327.62 225.18 327.76 225.08 327.91 225 328.06 224.92 328.22 224.85 328.39 224.8 328.56 224.75 328.73 224.72 328.9 224.7 329.08 224.69 329.25 224.69 329.43 224.7 329.61 224.72 329.78 224.75 329.96 224.8 330.13 224.85 330.3 224.92 330.46 225 330.62 225.08 330.77 225.18 330.92 225.28 331.07 225.4 331.2 225.52 331.33 225.65 331.45 225.78 331.56 225.93 331.66 226.08 331.76 226.24 331.84 226.4 331.91 226.56 331.98 226.73 332.03 226.9 332.07 227.08 332.1 227.25 332.12 227.43 332.13 227.61 332.13 227.78 332.11 227.96 332.09 228.13 332.05 228.3 332 228.47 331.95 228.63 331.88 228.79 331.8 228.94 331.71 229.09 331.61 229.23 331.51 229.37 331.39 229.49 331.27 229.61 331.13 229.72 331 229.82 330.85 229.91 330.7 229.99 330.54 230.06 330.38 230.12 330.21 230.17 330.04 230.21 329.87 230.24 329.69 230.26 329.52 230.26 329.34"/><line class="cls-7" x1="219.11" y1="315.4" x2="235.84" y2="315.4"/><line class="cls-7" x1="219.11" y1="301.45" x2="235.84" y2="301.45"/><line class="cls-7" x1="219.11" y1="287.51" x2="235.84" y2="287.51"/><line class="cls-7" x1="219.11" y1="273.56" x2="235.84" y2="273.56"/><line class="cls-7" x1="204.46" y1="238.7" x2="180.76" y2="238.7"/><polygon class="cls-8" points="189.82 238.7 189.83 238.88 189.84 239.05 189.87 239.23 189.91 239.4 189.96 239.57 190.02 239.74 190.09 239.9 190.17 240.06 190.26 240.21 190.37 240.35 190.47 240.49 190.59 240.62 190.72 240.75 190.85 240.86 190.99 240.97 191.14 241.07 191.29 241.16 191.45 241.24 191.62 241.31 191.78 241.36 191.95 241.41 192.13 241.45 192.3 241.47 192.48 241.49 192.66 241.49 192.83 241.48 193.01 241.46 193.18 241.43 193.35 241.39 193.52 241.34 193.69 241.27 193.85 241.2 194.01 241.12 194.16 241.02 194.3 240.92 194.44 240.81 194.57 240.69 194.69 240.56 194.8 240.42 194.91 240.28 195 240.13 195.09 239.98 195.17 239.82 195.23 239.65 195.29 239.49 195.33 239.31 195.37 239.14 195.39 238.97 195.4 238.79 195.4 238.61 195.39 238.43 195.37 238.26 195.33 238.09 195.29 237.91 195.23 237.75 195.17 237.58 195.09 237.42 195 237.27 194.91 237.12 194.8 236.97 194.69 236.84 194.57 236.71 194.44 236.59 194.3 236.48 194.16 236.38 194.01 236.28 193.85 236.2 193.69 236.13 193.52 236.06 193.35 236.01 193.18 235.97 193.01 235.94 192.83 235.92 192.66 235.91 192.48 235.91 192.3 235.93 192.13 235.95 191.95 235.99 191.78 236.04 191.62 236.09 191.45 236.16 191.29 236.24 191.14 236.33 190.99 236.43 190.85 236.53 190.72 236.65 190.59 236.78 190.47 236.91 190.37 237.05 190.26 237.19 190.17 237.34 190.09 237.5 190.02 237.66 189.96 237.83 189.91 238 189.87 238.17 189.84 238.35 189.83 238.52 189.82 238.7"/><polyline class="cls-7" points="207.55 226.26 206.56 228.24 182.15 228.24 154.26 228.24 151.24 225.21"/><polygon class="cls-9" points="200.77 228.24 200.76 228.06 200.75 227.89 200.72 227.71 200.68 227.54 200.63 227.37 200.57 227.2 200.5 227.04 200.42 226.88 200.33 226.73 200.23 226.59 200.12 226.45 200 226.32 199.87 226.19 199.74 226.08 199.6 225.97 199.45 225.87 199.3 225.78 199.14 225.7 198.97 225.64 198.81 225.58 198.64 225.53 198.47 225.49 198.29 225.47 198.11 225.46 197.94 225.45 197.76 225.46 197.58 225.48 197.41 225.51 197.24 225.55 197.07 225.6 196.9 225.67 196.74 225.74 196.59 225.83 196.44 225.92 196.29 226.02 196.15 226.13 196.02 226.25 195.9 226.38 195.79 226.52 195.68 226.66 195.59 226.81 195.5 226.96 195.43 227.12 195.36 227.29 195.3 227.46 195.26 227.63 195.23 227.8 195.2 227.98 195.19 228.15 195.19 228.33 195.2 228.51 195.23 228.68 195.26 228.85 195.3 229.03 195.36 229.19 195.43 229.36 195.5 229.52 195.59 229.67 195.68 229.82 195.79 229.97 195.9 230.1 196.02 230.23 196.15 230.35 196.29 230.46 196.44 230.56 196.59 230.66 196.74 230.74 196.9 230.81 197.07 230.88 197.24 230.93 197.41 230.97 197.58 231 197.76 231.02 197.94 231.03 198.11 231.03 198.29 231.01 198.47 230.99 198.64 230.95 198.81 230.9 198.97 230.85 199.14 230.78 199.3 230.7 199.45 230.61 199.6 230.51 199.74 230.41 199.87 230.29 200 230.17 200.12 230.03 200.23 229.9 200.33 229.75 200.42 229.6 200.5 229.44 200.57 229.28 200.63 229.11 200.68 228.94 200.72 228.77 200.75 228.59 200.76 228.42 200.77 228.24"/><polygon class="cls-9" points="187.11 228.24 192.54 231.38 192.54 225.1 187.11 228.24"/><polyline class="cls-10" points="204.47 203.87 147.29 204.15 147.29 195.47"/><polygon class="cls-8" points="180.55 208.17 178.21 206.09 175.88 205.4 173.56 205.06 168.91 204.04 173.55 202.97 175.87 202.61 178.19 201.9 180.5 199.8 180.55 208.17"/><line class="cls-10" x1="247.84" y1="226.82" x2="245.46" y2="250.58"/><polygon class="cls-8" points="251.27 234.49 248.96 236.59 248.04 238.84 247.46 241.12 245.95 245.64 245.38 240.91 245.26 238.56 244.8 236.18 242.95 233.66 251.27 234.49"/><polyline class="cls-7" points="179.13 277.51 182.15 280.53 210.04 280.53 234.45 280.53 237.47 277.51"/><polygon class="cls-8" points="189.68 280.53 189.69 280.71 189.71 280.89 189.73 281.06 189.77 281.24 189.82 281.4 189.88 281.57 189.95 281.73 190.03 281.89 190.13 282.04 190.23 282.19 190.34 282.33 190.45 282.46 190.58 282.58 190.71 282.7 190.85 282.81 191 282.9 191.16 282.99 191.31 283.07 191.48 283.14 191.64 283.2 191.81 283.25 191.99 283.28 192.16 283.31 192.34 283.32 192.52 283.32 192.69 283.31 192.87 283.3 193.04 283.26 193.22 283.22 193.38 283.17 193.55 283.11 193.71 283.03 193.87 282.95 194.02 282.86 194.16 282.75 194.3 282.64 194.43 282.52 194.55 282.39 194.66 282.26 194.77 282.12 194.87 281.97 194.95 281.81 195.03 281.65 195.09 281.49 195.15 281.32 195.19 281.15 195.23 280.98 195.25 280.8 195.26 280.62 195.26 280.45 195.25 280.27 195.23 280.09 195.19 279.92 195.15 279.75 195.09 279.58 195.03 279.42 194.95 279.26 194.87 279.1 194.77 278.95 194.66 278.81 194.55 278.68 194.43 278.55 194.3 278.43 194.16 278.31 194.02 278.21 193.87 278.12 193.71 278.04 193.55 277.96 193.38 277.9 193.22 277.85 193.04 277.8 192.87 277.77 192.69 277.75 192.52 277.75 192.34 277.75 192.16 277.76 191.99 277.79 191.81 277.82 191.64 277.87 191.48 277.93 191.31 278 191.16 278.08 191 278.17 190.85 278.26 190.71 278.37 190.58 278.49 190.45 278.61 190.34 278.74 190.23 278.88 190.13 279.03 190.03 279.18 189.95 279.34 189.88 279.5 189.82 279.66 189.77 279.83 189.73 280.01 189.71 280.18 189.69 280.36 189.68 280.53"/><polygon class="cls-8" points="203.35 280.53 197.91 277.4 197.91 283.67 203.35 280.53"/><polyline class="cls-7" points="165.18 291.45 168.21 294.48 206.56 294.48 234.45 294.48 237.47 291.45"/><polygon class="cls-8" points="180.97 294.48 180.97 294.66 180.99 294.83 181.02 295.01 181.06 295.18 181.11 295.35 181.17 295.52 181.24 295.68 181.32 295.84 181.41 295.99 181.51 296.13 181.62 296.27 181.74 296.4 181.86 296.53 182 296.64 182.14 296.75 182.29 296.85 182.44 296.94 182.6 297.02 182.76 297.08 182.93 297.14 183.1 297.19 183.27 297.23 183.45 297.25 183.62 297.26 183.8 297.27 183.98 297.26 184.15 297.24 184.33 297.21 184.5 297.17 184.67 297.12 184.83 297.05 185 296.98 185.15 296.89 185.3 296.8 185.45 296.7 185.58 296.59 185.71 296.47 185.84 296.34 185.95 296.2 186.05 296.06 186.15 295.91 186.24 295.76 186.31 295.6 186.38 295.43 186.43 295.26 186.48 295.09 186.51 294.92 186.53 294.74 186.54 294.57 186.54 294.39 186.53 294.21 186.51 294.04 186.48 293.87 186.43 293.69 186.38 293.52 186.31 293.36 186.24 293.2 186.15 293.05 186.05 292.9 185.95 292.76 185.84 292.62 185.71 292.49 185.58 292.37 185.45 292.26 185.3 292.16 185.15 292.06 185 291.98 184.83 291.91 184.67 291.84 184.5 291.79 184.33 291.75 184.15 291.72 183.98 291.7 183.8 291.69 183.62 291.69 183.45 291.71 183.27 291.73 183.1 291.77 182.93 291.82 182.76 291.87 182.6 291.94 182.44 292.02 182.29 292.11 182.14 292.21 182 292.31 181.86 292.43 181.74 292.56 181.62 292.69 181.51 292.83 181.41 292.97 181.32 293.12 181.24 293.28 181.17 293.44 181.11 293.61 181.06 293.78 181.02 293.95 180.99 294.13 180.97 294.3 180.97 294.48"/><polygon class="cls-8" points="194.63 294.48 189.2 291.34 189.2 297.62 194.63 294.48"/><text class="cls-1" transform="translate(142.3 196.17)">U</text><text class="cls-1" transform="translate(142.3 182.22)">C</text><text class="cls-1" transform="translate(141.92 168.28)">G</text><text class="cls-1" transform="translate(142.3 154.33)">C</text><text class="cls-1" transform="translate(141.92 140.39)">G</text><text class="cls-1" transform="translate(142.3 126.44)">U</text><text class="cls-3" transform="translate(133.35 123.94)">30</text><text class="cls-1" transform="translate(141.92 112.5)">G</text><text class="cls-11" transform="translate(124.49 105.53)">G</text><text class="cls-12" transform="translate(139.2 95.07)">A</text><text class="cls-11" transform="translate(138.82 81.12)">U</text><text class="cls-1" transform="translate(170.19 112.5)">C</text><text class="cls-2" transform="translate(170.57 126.44)">A</text><text class="cls-3" transform="translate(179.82 123.85)">40</text><text class="cls-1" transform="translate(170.19 140.39)">C</text><text class="cls-1" transform="translate(169.81 154.33)">G</text><text class="cls-1" transform="translate(170.19 168.28)">C</text><text class="cls-2" transform="translate(170.57 182.22)">A</text><text class="cls-2" transform="translate(170.57 196.17)">A</text><text class="cls-13" transform="translate(141.92 227.54)">G</text><text class="cls-13" transform="translate(142.3 262.41)">U</text><text class="cls-13" transform="translate(142.3 279.84)">U</text><line class="cls-7" x1="152.87" y1="189.89" x2="169.6" y2="189.89"/><polygon class="cls-8" points="164.02 189.89 164.02 189.72 164 189.54 163.97 189.36 163.94 189.19 163.88 189.02 163.82 188.86 163.75 188.69 163.67 188.54 163.58 188.38 163.48 188.24 163.37 188.1 163.25 187.97 163.13 187.84 162.99 187.73 162.85 187.62 162.71 187.52 162.55 187.43 162.39 187.35 162.23 187.29 162.06 187.23 161.89 187.18 161.72 187.15 161.54 187.12 161.37 187.11 161.19 187.1 161.01 187.11 160.84 187.13 160.66 187.16 160.49 187.2 160.32 187.26 160.16 187.32 160 187.39 159.84 187.48 159.69 187.57 159.55 187.67 159.41 187.78 159.28 187.91 159.16 188.03 159.04 188.17 158.94 188.31 158.84 188.46 158.76 188.61 158.68 188.77 158.62 188.94 158.56 189.11 158.51 189.28 158.48 189.45 158.46 189.63 158.45 189.8 158.45 189.98 158.46 190.16 158.48 190.33 158.51 190.51 158.56 190.68 158.62 190.85 158.68 191.01 158.76 191.17 158.84 191.32 158.94 191.47 159.04 191.62 159.16 191.75 159.28 191.88 159.41 192 159.55 192.11 159.69 192.21 159.84 192.31 160 192.39 160.16 192.47 160.32 192.53 160.49 192.58 160.66 192.62 160.84 192.65 161.01 192.67 161.19 192.68 161.37 192.68 161.54 192.66 161.72 192.64 161.89 192.6 162.06 192.56 162.23 192.5 162.39 192.43 162.55 192.35 162.71 192.26 162.85 192.16 162.99 192.06 163.13 191.94 163.25 191.82 163.37 191.69 163.48 191.55 163.58 191.4 163.67 191.25 163.75 191.09 163.82 190.93 163.88 190.76 163.94 190.59 163.97 190.42 164 190.25 164.02 190.07 164.02 189.89"/><line class="cls-7" x1="152.87" y1="175.95" x2="169.6" y2="175.95"/><polygon class="cls-8" points="164.02 175.95 164.02 175.77 164 175.59 163.97 175.42 163.94 175.25 163.88 175.08 163.82 174.91 163.75 174.75 163.67 174.59 163.58 174.44 163.48 174.29 163.37 174.16 163.25 174.02 163.13 173.9 162.99 173.78 162.85 173.68 162.71 173.58 162.55 173.49 162.39 173.41 162.23 173.34 162.06 173.28 161.89 173.24 161.72 173.2 161.54 173.18 161.37 173.16 161.19 173.16 161.01 173.17 160.84 173.19 160.66 173.22 160.49 173.26 160.32 173.31 160.16 173.38 160 173.45 159.84 173.53 159.69 173.63 159.55 173.73 159.41 173.84 159.28 173.96 159.16 174.09 159.04 174.22 158.94 174.37 158.84 174.51 158.76 174.67 158.68 174.83 158.62 174.99 158.56 175.16 158.51 175.33 158.48 175.51 158.46 175.68 158.45 175.86 158.45 176.04 158.46 176.21 158.48 176.39 158.51 176.56 158.56 176.73 158.62 176.9 158.68 177.06 158.76 177.22 158.84 177.38 158.94 177.53 159.04 177.67 159.16 177.81 159.28 177.94 159.41 178.06 159.55 178.17 159.69 178.27 159.84 178.36 160 178.45 160.16 178.52 160.32 178.58 160.49 178.64 160.66 178.68 160.84 178.71 161.01 178.73 161.19 178.74 161.37 178.73 161.54 178.72 161.72 178.69 161.89 178.66 162.06 178.61 162.23 178.55 162.39 178.48 162.55 178.41 162.71 178.32 162.85 178.22 162.99 178.11 163.13 178 163.25 177.87 163.37 177.74 163.48 177.6 163.58 177.46 163.67 177.3 163.75 177.15 163.82 176.98 163.88 176.82 163.94 176.65 163.97 176.47 164 176.3 164.02 176.12 164.02 175.95"/><line class="cls-7" x1="152.87" y1="162" x2="169.6" y2="162"/><line class="cls-7" x1="152.87" y1="148.06" x2="169.6" y2="148.06"/><line class="cls-7" x1="152.87" y1="134.11" x2="169.6" y2="134.11"/><line class="cls-7" x1="152.87" y1="120.17" x2="169.6" y2="120.17"/><line class="cls-7" x1="152.87" y1="106.22" x2="169.6" y2="106.22"/><polyline class="cls-7" points="138.23 88.79 126.37 88.79 126.37 19.07 272.8 19.07 272.8 88.79 260.94 88.79"/><polygon class="cls-9" points="193.17 19.07 193.18 19.24 193.19 19.42 193.22 19.59 193.26 19.77 193.31 19.94 193.37 20.1 193.44 20.27 193.52 20.42 193.61 20.57 193.71 20.72 193.82 20.86 193.94 20.99 194.07 21.11 194.2 21.23 194.34 21.34 194.49 21.44 194.64 21.52 194.8 21.6 194.96 21.67 195.13 21.73 195.3 21.78 195.47 21.81 195.65 21.84 195.82 21.85 196 21.86 196.18 21.85 196.35 21.83 196.53 21.8 196.7 21.75 196.87 21.7 197.04 21.64 197.2 21.57 197.35 21.48 197.5 21.39 197.65 21.29 197.78 21.17 197.91 21.05 198.04 20.93 198.15 20.79 198.25 20.65 198.35 20.5 198.44 20.34 198.51 20.18 198.58 20.02 198.63 19.85 198.68 19.68 198.71 19.51 198.74 19.33 198.75 19.16 198.75 18.98 198.74 18.8 198.71 18.63 198.68 18.45 198.63 18.28 198.58 18.11 198.51 17.95 198.44 17.79 198.35 17.63 198.25 17.48 198.15 17.34 198.04 17.21 197.91 17.08 197.78 16.96 197.65 16.85 197.5 16.74 197.35 16.65 197.2 16.57 197.04 16.49 196.87 16.43 196.7 16.38 196.53 16.34 196.35 16.31 196.18 16.29 196 16.28 195.82 16.28 195.65 16.3 195.47 16.32 195.3 16.36 195.13 16.4 194.96 16.46 194.8 16.53 194.64 16.61 194.49 16.7 194.34 16.8 194.2 16.9 194.07 17.02 193.94 17.14 193.82 17.27 193.71 17.41 193.61 17.56 193.52 17.71 193.44 17.87 193.37 18.03 193.31 18.2 193.26 18.37 193.22 18.54 193.19 18.71 193.18 18.89 193.17 19.07"/><polygon class="cls-9" points="206 16.28 200.42 16.28 200.42 21.86 206 21.86 206 16.28"/><line class="cls-7" x1="149.38" y1="74.85" x2="180.06" y2="74.85"/><polygon class="cls-8" points="168.34 74.85 162.91 71.71 162.91 77.98 168.34 74.85"/><polyline class="cls-7" points="138.23 74.85 133.35 74.85 133.35 29.52 265.82 29.52 265.82 74.85 260.94 74.85"/><polygon class="cls-9" points="193.17 29.52 193.18 29.7 193.19 29.88 193.22 30.05 193.26 30.23 193.31 30.4 193.37 30.56 193.44 30.72 193.52 30.88 193.61 31.03 193.71 31.18 193.82 31.32 193.94 31.45 194.07 31.57 194.2 31.69 194.34 31.8 194.49 31.89 194.64 31.98 194.8 32.06 194.96 32.13 195.13 32.19 195.3 32.23 195.47 32.27 195.65 32.3 195.82 32.31 196 32.31 196.18 32.31 196.35 32.29 196.53 32.26 196.7 32.21 196.87 32.16 197.04 32.1 197.2 32.02 197.35 31.94 197.5 31.85 197.65 31.74 197.78 31.63 197.91 31.51 198.04 31.39 198.15 31.25 198.25 31.11 198.35 30.96 198.44 30.8 198.51 30.64 198.58 30.48 198.63 30.31 198.68 30.14 198.71 29.97 198.74 29.79 198.75 29.61 198.75 29.44 198.74 29.26 198.71 29.08 198.68 28.91 198.63 28.74 198.58 28.57 198.51 28.41 198.44 28.25 198.35 28.09 198.25 27.94 198.15 27.8 198.04 27.67 197.91 27.54 197.78 27.42 197.65 27.31 197.5 27.2 197.35 27.11 197.2 27.03 197.04 26.95 196.87 26.89 196.7 26.84 196.53 26.8 196.35 26.76 196.18 26.75 196 26.74 195.82 26.74 195.65 26.75 195.47 26.78 195.3 26.82 195.13 26.86 194.96 26.92 194.8 26.99 194.64 27.07 194.49 27.16 194.34 27.25 194.2 27.36 194.07 27.48 193.94 27.6 193.82 27.73 193.71 27.87 193.61 28.02 193.52 28.17 193.44 28.33 193.37 28.49 193.31 28.66 193.26 28.82 193.22 29 193.19 29.17 193.18 29.35 193.17 29.52"/><polygon class="cls-9" points="206 26.74 200.42 26.74 200.42 32.31 206 32.31 206 26.74"/><line class="cls-7" x1="152.87" y1="221.27" x2="169.6" y2="221.27"/><polygon class="cls-8" points="164.02 221.27 164.02 221.09 164 220.91 163.97 220.74 163.94 220.57 163.88 220.4 163.82 220.23 163.75 220.07 163.67 219.91 163.58 219.76 163.48 219.62 163.37 219.48 163.25 219.34 163.13 219.22 162.99 219.1 162.85 219 162.71 218.9 162.55 218.81 162.39 218.73 162.23 218.66 162.06 218.6 161.89 218.56 161.72 218.52 161.54 218.5 161.37 218.48 161.19 218.48 161.01 218.49 160.84 218.51 160.66 218.54 160.49 218.58 160.32 218.63 160.16 218.7 160 218.77 159.84 218.85 159.69 218.95 159.55 219.05 159.41 219.16 159.28 219.28 159.16 219.41 159.04 219.54 158.94 219.69 158.84 219.84 158.76 219.99 158.68 220.15 158.62 220.31 158.56 220.48 158.51 220.65 158.48 220.83 158.46 221 158.45 221.18 158.45 221.36 158.46 221.53 158.48 221.71 158.51 221.88 158.56 222.05 158.62 222.22 158.68 222.39 158.76 222.55 158.84 222.7 158.94 222.85 159.04 222.99 159.16 223.13 159.28 223.26 159.41 223.38 159.55 223.49 159.69 223.59 159.84 223.68 160 223.77 160.16 223.84 160.32 223.9 160.49 223.96 160.66 224 160.84 224.03 161.01 224.05 161.19 224.06 161.37 224.05 161.54 224.04 161.72 224.01 161.89 223.98 162.06 223.93 162.23 223.87 162.39 223.81 162.55 223.73 162.71 223.64 162.85 223.54 162.99 223.43 163.13 223.32 163.25 223.19 163.37 223.06 163.48 222.92 163.58 222.78 163.67 222.62 163.75 222.47 163.82 222.31 163.88 222.14 163.94 221.97 163.97 221.8 164 221.62 164.02 221.44 164.02 221.27"/><line class="cls-7" x1="152.87" y1="256.13" x2="169.6" y2="256.13"/><polygon class="cls-9" points="154.82 256.13 154.83 256.31 154.84 256.48 154.87 256.66 154.91 256.83 154.96 257 155.02 257.17 155.09 257.33 155.17 257.49 155.26 257.64 155.36 257.78 155.47 257.92 155.59 258.06 155.72 258.18 155.85 258.3 155.99 258.4 156.14 258.5 156.29 258.59 156.45 258.67 156.61 258.74 156.78 258.79 156.95 258.84 157.13 258.88 157.3 258.9 157.48 258.92 157.65 258.92 157.83 258.91 158.01 258.89 158.18 258.86 158.35 258.82 158.52 258.77 158.69 258.7 158.85 258.63 159 258.55 159.15 258.45 159.3 258.35 159.44 258.24 159.57 258.12 159.69 257.99 159.8 257.86 159.91 257.71 160 257.56 160.09 257.41 160.16 257.25 160.23 257.08 160.29 256.92 160.33 256.75 160.36 256.57 160.39 256.4 160.4 256.22 160.4 256.04 160.39 255.87 160.36 255.69 160.33 255.52 160.29 255.34 160.23 255.18 160.16 255.01 160.09 254.85 160 254.7 159.91 254.55 159.8 254.41 159.69 254.27 159.57 254.14 159.44 254.02 159.3 253.91 159.15 253.81 159 253.72 158.85 253.63 158.69 253.56 158.52 253.5 158.35 253.44 158.18 253.4 158.01 253.37 157.83 253.35 157.65 253.34 157.48 253.34 157.3 253.36 157.13 253.38 156.95 253.42 156.78 253.47 156.61 253.53 156.45 253.59 156.29 253.67 156.14 253.76 155.99 253.86 155.85 253.97 155.72 254.08 155.59 254.21 155.47 254.34 155.36 254.48 155.26 254.62 155.17 254.78 155.09 254.93 155.02 255.09 154.96 255.26 154.91 255.43 154.87 255.6 154.84 255.78 154.83 255.95 154.82 256.13"/><polygon class="cls-9" points="167.65 253.34 162.07 253.34 162.07 258.92 167.65 258.92 167.65 253.34"/><text class="cls-12" transform="translate(153.14 67.18)">A</text><text class="cls-11" transform="translate(166.7 67.18)">U</text><text class="cls-11" transform="translate(180.27 81.12)">G</text><text class="cls-11" transform="translate(180.27 95.07)">G</text><text class="cls-11" transform="translate(208.54 95.07)">C</text><text class="cls-3" transform="translate(219.35 92.63)">60</text><text class="cls-11" transform="translate(208.54 81.12)">C</text><text class="cls-11" transform="translate(215.13 67.18)">G</text><text class="cls-11" transform="translate(229.46 67.18)">U</text><text class="cls-12" transform="translate(243.78 67.18)">A</text><polyline class="cls-7" points="157.75 55.32 157.75 39.98 248.39 39.98 248.39 55.32"/><polygon class="cls-9" points="196.66 42.77 202.23 42.77 202.23 37.2 196.66 37.2 196.66 42.77"/><polygon class="cls-9" points="209.49 39.98 209.48 39.81 209.46 39.63 209.43 39.46 209.4 39.28 209.35 39.11 209.28 38.95 209.21 38.78 209.13 38.63 209.04 38.48 208.94 38.33 208.83 38.19 208.71 38.06 208.59 37.94 208.46 37.82 208.31 37.71 208.17 37.61 208.01 37.52 207.85 37.45 207.69 37.38 207.52 37.32 207.35 37.27 207.18 37.24 207 37.21 206.83 37.2 206.65 37.2 206.47 37.2 206.3 37.22 206.13 37.25 205.95 37.3 205.78 37.35 205.62 37.41 205.46 37.48 205.3 37.57 205.15 37.66 205.01 37.77 204.87 37.88 204.74 38 204.62 38.12 204.5 38.26 204.4 38.4 204.3 38.55 204.22 38.71 204.14 38.87 204.07 39.03 204.02 39.2 203.98 39.37 203.94 39.54 203.92 39.72 203.91 39.9 203.91 40.07 203.92 40.25 203.94 40.42 203.98 40.6 204.02 40.77 204.07 40.94 204.14 41.1 204.22 41.26 204.3 41.42 204.4 41.57 204.5 41.71 204.62 41.84 204.74 41.97 204.87 42.09 205.01 42.2 205.15 42.31 205.3 42.4 205.46 42.48 205.62 42.56 205.78 42.62 205.95 42.67 206.13 42.71 206.3 42.74 206.47 42.76 206.65 42.77 206.83 42.77 207 42.76 207.18 42.73 207.35 42.69 207.52 42.65 207.69 42.59 207.85 42.52 208.01 42.44 208.17 42.35 208.31 42.26 208.46 42.15 208.59 42.03 208.71 41.91 208.83 41.78 208.94 41.64 209.04 41.49 209.13 41.34 209.21 41.18 209.28 41.02 209.35 40.85 209.4 40.68 209.43 40.51 209.46 40.34 209.48 40.16 209.49 39.98"/><line class="cls-7" x1="191.22" y1="74.85" x2="207.95" y2="74.85"/><line class="cls-7" x1="191.22" y1="88.79" x2="207.95" y2="88.79"/><polyline class="cls-7" points="189.58 92.73 192.61 95.76 213.53 95.76 248.39 95.76 251.42 92.73"/><polygon class="cls-9" points="223.71 95.76 229.15 98.9 229.15 92.63 223.71 95.76"/><polygon class="cls-9" points="237.38 95.76 237.37 95.59 237.35 95.41 237.32 95.24 237.28 95.06 237.24 94.89 237.18 94.73 237.1 94.56 237.02 94.41 236.93 94.26 236.83 94.11 236.72 93.97 236.6 93.84 236.48 93.72 236.34 93.6 236.2 93.49 236.06 93.39 235.9 93.31 235.75 93.23 235.58 93.16 235.41 93.1 235.24 93.05 235.07 93.02 234.9 92.99 234.72 92.98 234.54 92.97 234.37 92.98 234.19 93 234.01 93.03 233.84 93.08 233.67 93.13 233.51 93.19 233.35 93.27 233.19 93.35 233.04 93.44 232.9 93.54 232.76 93.66 232.63 93.78 232.51 93.9 232.39 94.04 232.29 94.18 232.19 94.33 232.11 94.49 232.03 94.65 231.97 94.81 231.91 94.98 231.87 95.15 231.83 95.32 231.81 95.5 231.8 95.67 231.8 95.85 231.81 96.03 231.83 96.2 231.87 96.38 231.91 96.55 231.97 96.72 232.03 96.88 232.11 97.04 232.19 97.2 232.29 97.34 232.39 97.49 232.51 97.62 232.63 97.75 232.76 97.87 232.9 97.98 233.04 98.09 233.19 98.18 233.35 98.26 233.51 98.34 233.67 98.4 233.84 98.45 234.01 98.49 234.19 98.52 234.37 98.54 234.54 98.55 234.72 98.55 234.9 98.54 235.07 98.51 235.24 98.47 235.41 98.43 235.58 98.37 235.75 98.3 235.9 98.22 236.06 98.13 236.2 98.04 236.34 97.93 236.48 97.81 236.6 97.69 236.72 97.56 236.83 97.42 236.93 97.27 237.02 97.12 237.1 96.96 237.18 96.8 237.24 96.63 237.28 96.46 237.32 96.29 237.35 96.12 237.37 95.94 237.38 95.76"/><polyline class="cls-7" points="220.5 55.32 220.5 46.96 234.45 46.96 234.45 55.32"/><polygon class="cls-8" points="220.22 46.96 225.66 50.09 225.66 43.82 220.22 46.96"/><polygon class="cls-8" points="233.89 44.17 228.31 44.17 228.31 49.75 233.89 49.75 233.89 44.17"/><text class="cls-13" transform="translate(156.25 293.78)">U</text><text class="cls-13" transform="translate(170.19 279.84)">C</text><text class="cls-3" transform="translate(180.97 277.51)">50</text><text class="cls-13" transform="translate(170.19 262.41)">U</text><text class="cls-14" transform="translate(170.57 244.98)">A</text><text class="cls-13" transform="translate(170.19 227.54)">C</text><text class="cls-1" transform="translate(219 182.22)">C</text><text class="cls-1" transform="translate(218.61 168.28)">G</text><text class="cls-1" transform="translate(218.61 154.33)">G</text><text class="cls-1" transform="translate(218.61 140.39)">G</text><text class="cls-1" transform="translate(219 126.44)">C</text><text class="cls-2" transform="translate(219.38 112.5)">A</text><text class="cls-12" transform="translate(250.76 81.12)">A</text><text class="cls-12" transform="translate(250.76 95.07)">A</text><text class="cls-1" transform="translate(246.89 112.5)">U</text><text class="cls-1" transform="translate(246.5 126.44)">G</text><text class="cls-1" transform="translate(246.89 140.39)">U</text><text class="cls-1" transform="translate(246.89 154.33)">C</text><text class="cls-3" transform="translate(257.45 152.23)">70</text><text class="cls-1" transform="translate(246.89 168.28)">C</text><text class="cls-1" transform="translate(246.5 182.22)">G</text><text class="cls-15" transform="translate(243.78 227.54)">A</text><line class="cls-7" x1="229.57" y1="175.95" x2="246.3" y2="175.95"/><line class="cls-7" x1="229.57" y1="162" x2="246.3" y2="162"/><line class="cls-7" x1="229.57" y1="148.06" x2="246.3" y2="148.06"/><polygon class="cls-8" points="240.72 134.11 240.72 133.94 240.7 133.76 240.67 133.58 240.63 133.41 240.58 133.24 240.52 133.08 240.45 132.91 240.37 132.76 240.28 132.6 240.18 132.46 240.07 132.32 239.95 132.19 239.82 132.06 239.69 131.95 239.55 131.84 239.4 131.74 239.25 131.65 239.09 131.57 238.93 131.51 238.76 131.45 238.59 131.4 238.42 131.37 238.24 131.34 238.06 131.33 237.89 131.32 237.71 131.33 237.54 131.35 237.36 131.38 237.19 131.42 237.02 131.48 236.85 131.54 236.69 131.61 236.54 131.7 236.39 131.79 236.24 131.89 236.11 132 235.98 132.13 235.85 132.25 235.74 132.39 235.64 132.53 235.54 132.68 235.45 132.83 235.38 132.99 235.31 133.16 235.26 133.33 235.21 133.5 235.18 133.67 235.16 133.85 235.15 134.02 235.15 134.2 235.16 134.38 235.18 134.55 235.21 134.73 235.26 134.9 235.31 135.07 235.38 135.23 235.45 135.39 235.54 135.54 235.64 135.69 235.74 135.84 235.85 135.97 235.98 136.1 236.11 136.22 236.24 136.33 236.39 136.43 236.54 136.53 236.69 136.61 236.85 136.69 237.02 136.75 237.19 136.8 237.36 136.84 237.54 136.87 237.71 136.89 237.89 136.9 238.06 136.9 238.24 136.88 238.42 136.86 238.59 136.82 238.76 136.78 238.93 136.72 239.09 136.65 239.25 136.57 239.4 136.48 239.55 136.38 239.69 136.28 239.82 136.16 239.95 136.04 240.07 135.91 240.18 135.77 240.28 135.62 240.37 135.47 240.45 135.31 240.52 135.15 240.58 134.98 240.63 134.81 240.67 134.64 240.7 134.47 240.72 134.29 240.72 134.11"/><line class="cls-7" x1="229.57" y1="120.17" x2="246.3" y2="120.17"/><line class="cls-7" x1="229.57" y1="106.22" x2="246.3" y2="106.22"/><line class="cls-10" x1="171.47" y1="194.06" x2="151" y2="217.1"/><polygon class="cls-8" points="162.41 210.62 159.3 210.97 157.24 212.24 155.43 213.74 151.56 216.52 153.87 212.35 155.15 210.39 156.17 208.19 156.15 205.06 162.41 210.62"/><line class="cls-10" x1="179.27" y1="217.47" x2="219.9" y2="179.74"/><polygon class="cls-8" points="203.95 189.25 207.08 189.2 209.25 188.13 211.19 186.8 215.31 184.41 212.62 188.34 211.15 190.17 209.92 192.26 209.64 195.38 203.95 189.25"/><line class="cls-10" x1="212.97" y1="268.01" x2="210.6" y2="244.25"/><polygon class="cls-8" points="208.81 269.31 210.66 266.79 211.12 264.41 211.24 262.06 211.82 257.33 213.32 261.85 213.9 264.13 214.82 266.37 217.14 268.48 208.81 269.31"/><line class="cls-10" x1="147.29" y1="226.85" x2="147.29" y2="250.55"/><polygon class="cls-8" points="151.47 234.05 149.38 236.38 148.69 238.7 148.34 241.02 147.29 245.67 146.25 241.02 145.9 238.7 145.2 236.38 143.11 234.05 151.47 234.05"/><line class="cls-10" x1="251.45" y1="181.51" x2="248.82" y2="215.71"/><polygon class="cls-8" points="254.66 194.29 252.4 196.45 251.53 198.72 251 201 249.6 205.56 248.91 200.84 248.74 198.5 248.23 196.13 246.32 193.65 254.66 194.29"/><text class="cls-16" transform="translate(183.76 329.34)">P1</text><text class="cls-16" transform="translate(109.1 155.73)">P2</text><text class="cls-16" transform="translate(269.9 155.73)">P3</text><text class="cls-17" transform="translate(104.77 91.35)">L2</text><text class="cls-17" transform="translate(275.9 91.16)">L3</text><text class="cls-18" transform="translate(257.83 238.7)">J3/1</text><text class="cls-19" transform="translate(213.91 200.94)">J1/2</text><text class="cls-20" transform="translate(105.94 262.41)">J2/3</text><rect class="cls-21" x="204.4" y="250.32" width="13.27" height="12.38"/><text class="cls-22" transform="translate(205.76 261.41)">G</text><line class="cls-23" x1="219" y1="256.64" x2="237.96" y2="256.64"/><line class="cls-23" x1="183.24" y1="256.64" x2="201.32" y2="256.64"/><polygon class="cls-24" points="199.27 256.53 199.27 256.35 199.25 256.18 199.22 256 199.19 255.83 199.14 255.67 199.08 255.5 199.01 255.34 198.93 255.19 198.84 255.04 198.74 254.89 198.63 254.75 198.51 254.62 198.39 254.5 198.25 254.39 198.12 254.28 197.97 254.18 197.82 254.1 197.66 254.02 197.5 253.95 197.34 253.89 197.17 253.85 197 253.81 196.82 253.78 196.65 253.77 196.47 253.77 196.3 253.78 196.12 253.8 195.95 253.83 195.78 253.87 195.61 253.92 195.45 253.98 195.29 254.06 195.14 254.14 194.99 254.23 194.84 254.33 194.71 254.44 194.58 254.56 194.46 254.69 194.35 254.82 194.24 254.96 194.15 255.11 194.06 255.26 193.99 255.42 193.92 255.58 193.87 255.75 193.82 255.92 193.79 256.09 193.77 256.26 193.76 256.44 193.76 256.62 193.77 256.79 193.79 256.96 193.82 257.13 193.87 257.3 193.92 257.47 193.99 257.63 194.06 257.79 194.15 257.94 194.24 258.09 194.35 258.23 194.46 258.37 194.58 258.49 194.71 258.61 194.84 258.72 194.99 258.82 195.14 258.92 195.29 259 195.45 259.07 195.61 259.13 195.78 259.19 195.95 259.23 196.12 259.26 196.3 259.28 196.47 259.29 196.65 259.28 196.82 259.27 197 259.24 197.17 259.21 197.34 259.16 197.5 259.1 197.66 259.04 197.82 258.96 197.97 258.87 198.12 258.77 198.25 258.67 198.39 258.55 198.51 258.43 198.63 258.3 198.74 258.16 198.84 258.02 198.93 257.87 199.01 257.71 199.08 257.55 199.14 257.39 199.19 257.22 199.22 257.05 199.25 256.88 199.27 256.7 199.27 256.53"/><polygon class="cls-24" points="186.16 256.53 191.54 259.63 191.54 253.42 186.16 256.53"/><text class="cls-25" transform="translate(211.03 386.96)">5<tspan class="cls-26" x="5.56" y="0">’</tspan></text><text class="cls-25" transform="translate(237.96 373.57)">3<tspan class="cls-26" x="5.56" y="0">’</tspan></text></svg>