<svg id="图层_1" data-name="图层 1" xmlns="http://www.w3.org/2000/svg" viewBox="0 0 400 400"><defs><style>.cls-1,.cls-11,.cls-12,.cls-13,.cls-14,.cls-15,.cls-2,.cls-3,.cls-4,.cls-5,.cls-6{isolation:isolate;}.cls-1,.cls-11,.cls-12,.cls-13,.cls-14,.cls-15,.cls-2,.cls-4,.cls-5,.cls-6{font-size:13.82px;}.cls-1,.cls-16,.cls-2{fill:#c2c2ff;}.cls-1,.cls-11,.cls-12,.cls-13,.cls-14,.cls-15,.cls-16,.cls-17,.cls-18,.cls-19,.cls-2,.cls-20,.cls-22,.cls-25,.cls-27,.cls-3,.cls-4,.cls-5,.cls-6{font-family:ArialMT, Arial;}.cls-12,.cls-14,.cls-15,.cls-2,.cls-5{letter-spacing:-0.06em;}.cls-3{font-size:8px;}.cls-19,.cls-4,.cls-5{fill:#09fefe;}.cls-15,.cls-18,.cls-6{fill:#ff870a;}.cls-10,.cls-23,.cls-7{fill:none;}.cls-10,.cls-7,.cls-8,.cls-9{stroke:#000;}.cls-10,.cls-23,.cls-24,.cls-7,.cls-8,.cls-9{stroke-miterlimit:1.14;}.cls-23,.cls-24,.cls-7,.cls-8,.cls-9{stroke-width:0.14px;}.cls-24,.cls-9{fill:#fff;}.cls-10{stroke-width:1.29px;}.cls-11,.cls-12,.cls-17{fill:#ffaadc;}.cls-13,.cls-14,.cls-20{fill:#80db9e;}.cls-16,.cls-17,.cls-18,.cls-19,.cls-20{font-size:16px;}.cls-21{fill:#ff0b0c;}.cls-22{font-size:14px;}.cls-23,.cls-24{stroke:#ff0b0c;}.cls-25{font-size:10px;}.cls-26{letter-spacing:-0.04em;}.cls-27{font-size:20px;}</style></defs><text class="cls-1" transform="translate(224.16 381.45)">G</text><text class="cls-1" transform="translate(224.16 367.51)">G</text><text class="cls-2" transform="translate(224.92 353.56)">A</text><text class="cls-1" transform="translate(224.54 339.62)">U</text><text class="cls-1" transform="translate(224.54 325.67)">C</text><text class="cls-2" transform="translate(224.92 311.73)">A</text><text class="cls-1" transform="translate(224.54 297.78)">U</text><text class="cls-3" transform="translate(216 295.34)">20</text><text class="cls-2" transform="translate(224.92 283.84)">A</text><text class="cls-4" transform="translate(221.05 248.98)">U</text><text class="cls-5" transform="translate(221.44 231.54)">A</text><text class="cls-5" transform="translate(221.44 214.11)">A</text><text class="cls-6" transform="translate(255.92 266.41)">C</text><text class="cls-1" transform="translate(252.43 283.84)">U</text><text class="cls-2" transform="translate(252.81 297.78)">A</text><text class="cls-1" transform="translate(252.43 311.73)">U</text><text class="cls-1" transform="translate(252.05 325.67)">G</text><text class="cls-1" transform="translate(252.05 339.62)">G</text><text class="cls-1" transform="translate(252.43 353.56)">U</text><text class="cls-3" transform="translate(261.93 351.14)">80</text><text class="cls-1" transform="translate(252.43 367.51)">C</text><line class="cls-7" x1="235.11" y1="361.23" x2="251.84" y2="361.23"/><line class="cls-7" x1="235.11" y1="347.29" x2="251.84" y2="347.29"/><polygon class="cls-8" points="246.26 333.34 246.26 333.17 246.24 332.99 246.21 332.81 246.17 332.64 246.12 332.47 246.06 332.31 245.99 332.14 245.91 331.99 245.82 331.83 245.72 331.69 245.61 331.55 245.49 331.42 245.37 331.29 245.23 331.18 245.09 331.07 244.94 330.97 244.79 330.88 244.63 330.81 244.47 330.74 244.3 330.68 244.13 330.63 243.96 330.6 243.78 330.57 243.61 330.56 243.43 330.55 243.25 330.56 243.08 330.58 242.9 330.61 242.73 330.65 242.56 330.71 242.4 330.77 242.24 330.84 242.08 330.93 241.93 331.02 241.78 331.12 241.65 331.23 241.52 331.35 241.4 331.48 241.28 331.62 241.18 331.76 241.08 331.91 241 332.06 240.92 332.22 240.85 332.39 240.8 332.56 240.75 332.73 240.72 332.9 240.7 333.08 240.69 333.25 240.69 333.43 240.7 333.61 240.72 333.78 240.75 333.96 240.8 334.13 240.85 334.3 240.92 334.46 241 334.62 241.08 334.77 241.18 334.92 241.28 335.07 241.4 335.2 241.52 335.33 241.65 335.45 241.78 335.56 241.93 335.66 242.08 335.76 242.24 335.84 242.4 335.91 242.56 335.98 242.73 336.03 242.9 336.07 243.08 336.1 243.25 336.12 243.43 336.13 243.61 336.13 243.78 336.11 243.96 336.09 244.13 336.05 244.3 336 244.47 335.95 244.63 335.88 244.79 335.8 244.94 335.71 245.09 335.61 245.23 335.51 245.37 335.39 245.49 335.27 245.61 335.13 245.72 335 245.82 334.85 245.91 334.7 245.99 334.54 246.06 334.38 246.12 334.21 246.17 334.04 246.21 333.87 246.24 333.69 246.26 333.52 246.26 333.34"/><line class="cls-7" x1="235.11" y1="319.4" x2="251.84" y2="319.4"/><line class="cls-7" x1="235.11" y1="305.45" x2="251.84" y2="305.45"/><line class="cls-7" x1="235.11" y1="291.51" x2="251.84" y2="291.51"/><line class="cls-7" x1="235.11" y1="277.56" x2="251.84" y2="277.56"/><line class="cls-7" x1="220.46" y1="242.7" x2="196.76" y2="242.7"/><polygon class="cls-8" points="205.82 242.7 205.83 242.88 205.84 243.05 205.87 243.23 205.91 243.4 205.96 243.57 206.02 243.74 206.09 243.9 206.17 244.06 206.26 244.21 206.37 244.35 206.47 244.49 206.59 244.62 206.72 244.75 206.85 244.86 206.99 244.97 207.14 245.07 207.29 245.16 207.45 245.24 207.62 245.31 207.78 245.36 207.95 245.41 208.13 245.45 208.3 245.47 208.48 245.49 208.66 245.49 208.83 245.48 209.01 245.46 209.18 245.43 209.35 245.39 209.52 245.34 209.69 245.27 209.85 245.2 210.01 245.12 210.16 245.02 210.3 244.92 210.44 244.81 210.57 244.69 210.69 244.56 210.8 244.42 210.91 244.28 211 244.13 211.09 243.98 211.17 243.82 211.23 243.65 211.29 243.49 211.33 243.31 211.37 243.14 211.39 242.97 211.4 242.79 211.4 242.61 211.39 242.43 211.37 242.26 211.33 242.09 211.29 241.91 211.23 241.75 211.17 241.58 211.09 241.42 211 241.27 210.91 241.12 210.8 240.97 210.69 240.84 210.57 240.71 210.44 240.59 210.3 240.48 210.16 240.38 210.01 240.28 209.85 240.2 209.69 240.13 209.52 240.06 209.35 240.01 209.18 239.97 209.01 239.94 208.83 239.92 208.66 239.91 208.48 239.91 208.3 239.93 208.13 239.95 207.95 239.99 207.78 240.04 207.62 240.09 207.45 240.16 207.29 240.24 207.14 240.33 206.99 240.43 206.85 240.53 206.72 240.65 206.59 240.78 206.47 240.91 206.37 241.05 206.26 241.19 206.17 241.34 206.09 241.5 206.02 241.66 205.96 241.83 205.91 242 205.87 242.17 205.84 242.35 205.83 242.52 205.82 242.7"/><polyline class="cls-7" points="223.55 230.26 222.56 232.24 198.15 232.24 170.26 232.24 167.24 229.21"/><polygon class="cls-9" points="216.77 232.24 216.76 232.06 216.75 231.89 216.72 231.71 216.68 231.54 216.63 231.37 216.57 231.2 216.5 231.04 216.42 230.88 216.33 230.73 216.23 230.59 216.12 230.45 216 230.32 215.87 230.19 215.74 230.08 215.6 229.97 215.45 229.87 215.3 229.78 215.14 229.7 214.97 229.64 214.81 229.58 214.64 229.53 214.47 229.49 214.29 229.47 214.11 229.46 213.94 229.45 213.76 229.46 213.58 229.48 213.41 229.51 213.24 229.55 213.07 229.6 212.9 229.67 212.74 229.74 212.59 229.83 212.44 229.92 212.29 230.02 212.15 230.13 212.02 230.25 211.9 230.38 211.79 230.52 211.68 230.66 211.59 230.81 211.5 230.96 211.43 231.12 211.36 231.29 211.3 231.46 211.26 231.63 211.23 231.8 211.2 231.98 211.19 232.15 211.19 232.33 211.2 232.51 211.23 232.68 211.26 232.85 211.3 233.03 211.36 233.19 211.43 233.36 211.5 233.52 211.59 233.67 211.68 233.82 211.79 233.97 211.9 234.1 212.02 234.23 212.15 234.35 212.29 234.46 212.44 234.56 212.59 234.66 212.74 234.74 212.9 234.81 213.07 234.88 213.24 234.93 213.41 234.97 213.58 235 213.76 235.02 213.94 235.03 214.11 235.03 214.29 235.01 214.47 234.99 214.64 234.95 214.81 234.9 214.97 234.85 215.14 234.78 215.3 234.7 215.45 234.61 215.6 234.51 215.74 234.41 215.87 234.29 216 234.17 216.12 234.03 216.23 233.9 216.33 233.75 216.42 233.6 216.5 233.44 216.57 233.28 216.63 233.11 216.68 232.94 216.72 232.77 216.75 232.59 216.76 232.42 216.77 232.24"/><polygon class="cls-9" points="203.11 232.24 208.54 235.38 208.54 229.1 203.11 232.24"/><polyline class="cls-10" points="220.47 207.87 163.29 208.15 163.29 199.47"/><polygon class="cls-8" points="196.55 212.17 194.21 210.09 191.88 209.4 189.56 209.06 184.91 208.04 189.55 206.97 191.87 206.61 194.19 205.9 196.5 203.8 196.55 212.17"/><line class="cls-10" x1="263.84" y1="230.82" x2="261.46" y2="254.58"/><polygon class="cls-8" points="267.27 238.49 264.96 240.59 264.04 242.84 263.46 245.12 261.95 249.64 261.38 244.91 261.26 242.56 260.8 240.18 258.95 237.66 267.27 238.49"/><polyline class="cls-7" points="195.13 281.51 198.15 284.53 226.04 284.53 250.45 284.53 253.47 281.51"/><polygon class="cls-8" points="205.68 284.53 205.69 284.71 205.71 284.89 205.73 285.06 205.77 285.24 205.82 285.4 205.88 285.57 205.95 285.73 206.03 285.89 206.13 286.04 206.23 286.19 206.34 286.33 206.45 286.46 206.58 286.58 206.71 286.7 206.85 286.81 207 286.9 207.16 286.99 207.31 287.07 207.48 287.14 207.64 287.2 207.81 287.25 207.99 287.28 208.16 287.31 208.34 287.32 208.52 287.32 208.69 287.31 208.87 287.3 209.04 287.26 209.22 287.22 209.38 287.17 209.55 287.11 209.71 287.03 209.87 286.95 210.02 286.86 210.16 286.75 210.3 286.64 210.43 286.52 210.55 286.39 210.66 286.26 210.77 286.12 210.87 285.97 210.95 285.81 211.03 285.65 211.09 285.49 211.15 285.32 211.19 285.15 211.23 284.98 211.25 284.8 211.26 284.62 211.26 284.45 211.25 284.27 211.23 284.09 211.19 283.92 211.15 283.75 211.09 283.58 211.03 283.42 210.95 283.26 210.87 283.1 210.77 282.95 210.66 282.81 210.55 282.68 210.43 282.55 210.3 282.43 210.16 282.31 210.02 282.21 209.87 282.12 209.71 282.04 209.55 281.96 209.38 281.9 209.22 281.85 209.04 281.8 208.87 281.77 208.69 281.75 208.52 281.75 208.34 281.75 208.16 281.76 207.99 281.79 207.81 281.82 207.64 281.87 207.48 281.93 207.31 282 207.16 282.08 207 282.17 206.85 282.26 206.71 282.37 206.58 282.49 206.45 282.61 206.34 282.74 206.23 282.88 206.13 283.03 206.03 283.18 205.95 283.34 205.88 283.5 205.82 283.66 205.77 283.83 205.73 284.01 205.71 284.18 205.69 284.36 205.68 284.53"/><polygon class="cls-8" points="219.35 284.53 213.91 281.4 213.91 287.67 219.35 284.53"/><polyline class="cls-7" points="181.18 295.45 184.21 298.48 222.56 298.48 250.45 298.48 253.47 295.45"/><polygon class="cls-8" points="196.97 298.48 196.97 298.66 196.99 298.83 197.02 299.01 197.06 299.18 197.11 299.35 197.17 299.52 197.24 299.68 197.32 299.84 197.41 299.99 197.51 300.13 197.62 300.27 197.74 300.4 197.86 300.53 198 300.64 198.14 300.75 198.29 300.85 198.44 300.94 198.6 301.02 198.76 301.08 198.93 301.14 199.1 301.19 199.27 301.23 199.45 301.25 199.62 301.26 199.8 301.27 199.98 301.26 200.15 301.24 200.33 301.21 200.5 301.17 200.67 301.12 200.83 301.05 201 300.98 201.15 300.89 201.3 300.8 201.45 300.7 201.58 300.59 201.71 300.47 201.84 300.34 201.95 300.2 202.05 300.06 202.15 299.91 202.24 299.76 202.31 299.6 202.38 299.43 202.43 299.26 202.48 299.09 202.51 298.92 202.53 298.74 202.54 298.57 202.54 298.39 202.53 298.21 202.51 298.04 202.48 297.87 202.43 297.69 202.38 297.52 202.31 297.36 202.24 297.2 202.15 297.05 202.05 296.9 201.95 296.76 201.84 296.62 201.71 296.49 201.58 296.37 201.45 296.26 201.3 296.16 201.15 296.06 201 295.98 200.83 295.91 200.67 295.84 200.5 295.79 200.33 295.75 200.15 295.72 199.98 295.7 199.8 295.69 199.62 295.69 199.45 295.71 199.27 295.73 199.1 295.77 198.93 295.82 198.76 295.87 198.6 295.94 198.44 296.02 198.29 296.11 198.14 296.21 198 296.31 197.86 296.43 197.74 296.56 197.62 296.69 197.51 296.83 197.41 296.97 197.32 297.12 197.24 297.28 197.17 297.44 197.11 297.61 197.06 297.78 197.02 297.95 196.99 298.13 196.97 298.3 196.97 298.48"/><polygon class="cls-8" points="210.63 298.48 205.2 295.34 205.2 301.62 210.63 298.48"/><text class="cls-1" transform="translate(158.3 200.17)">U</text><text class="cls-1" transform="translate(158.3 186.22)">C</text><text class="cls-1" transform="translate(157.92 172.28)">G</text><text class="cls-1" transform="translate(158.3 158.33)">C</text><text class="cls-1" transform="translate(157.92 144.39)">G</text><text class="cls-1" transform="translate(158.3 130.44)">U</text><text class="cls-3" transform="translate(149.35 127.94)">30</text><text class="cls-1" transform="translate(157.92 116.5)">G</text><text class="cls-11" transform="translate(140.49 109.53)">G</text><text class="cls-12" transform="translate(155.2 99.07)">A</text><text class="cls-11" transform="translate(154.82 85.12)">U</text><text class="cls-1" transform="translate(186.19 116.5)">C</text><text class="cls-2" transform="translate(186.57 130.44)">A</text><text class="cls-3" transform="translate(195.82 127.85)">40</text><text class="cls-1" transform="translate(186.19 144.39)">C</text><text class="cls-1" transform="translate(185.81 158.33)">G</text><text class="cls-1" transform="translate(186.19 172.28)">C</text><text class="cls-2" transform="translate(186.57 186.22)">A</text><text class="cls-2" transform="translate(186.57 200.17)">A</text><text class="cls-13" transform="translate(157.92 231.54)">G</text><text class="cls-13" transform="translate(158.3 266.41)">U</text><text class="cls-13" transform="translate(158.3 283.84)">U</text><line class="cls-7" x1="168.87" y1="193.89" x2="185.6" y2="193.89"/><polygon class="cls-8" points="180.02 193.89 180.02 193.72 180 193.54 179.97 193.36 179.94 193.19 179.88 193.02 179.82 192.86 179.75 192.69 179.67 192.54 179.58 192.38 179.48 192.24 179.37 192.1 179.25 191.97 179.13 191.84 178.99 191.73 178.85 191.62 178.71 191.52 178.55 191.43 178.39 191.35 178.23 191.29 178.06 191.23 177.89 191.18 177.72 191.15 177.54 191.12 177.37 191.11 177.19 191.1 177.01 191.11 176.84 191.13 176.66 191.16 176.49 191.2 176.32 191.26 176.16 191.32 176 191.39 175.84 191.48 175.69 191.57 175.55 191.67 175.41 191.78 175.28 191.91 175.16 192.03 175.04 192.17 174.94 192.31 174.84 192.46 174.76 192.61 174.68 192.77 174.62 192.94 174.56 193.11 174.51 193.28 174.48 193.45 174.46 193.63 174.45 193.8 174.45 193.98 174.46 194.16 174.48 194.33 174.51 194.51 174.56 194.68 174.62 194.85 174.68 195.01 174.76 195.17 174.84 195.32 174.94 195.47 175.04 195.62 175.16 195.75 175.28 195.88 175.41 196 175.55 196.11 175.69 196.21 175.84 196.31 176 196.39 176.16 196.47 176.32 196.53 176.49 196.58 176.66 196.62 176.84 196.65 177.01 196.67 177.19 196.68 177.37 196.68 177.54 196.66 177.72 196.64 177.89 196.6 178.06 196.56 178.23 196.5 178.39 196.43 178.55 196.35 178.71 196.26 178.85 196.16 178.99 196.06 179.13 195.94 179.25 195.82 179.37 195.69 179.48 195.55 179.58 195.4 179.67 195.25 179.75 195.09 179.82 194.93 179.88 194.76 179.94 194.59 179.97 194.42 180 194.25 180.02 194.07 180.02 193.89"/><line class="cls-7" x1="168.87" y1="179.95" x2="185.6" y2="179.95"/><polygon class="cls-8" points="180.02 179.95 180.02 179.77 180 179.59 179.97 179.42 179.94 179.25 179.88 179.08 179.82 178.91 179.75 178.75 179.67 178.59 179.58 178.44 179.48 178.29 179.37 178.16 179.25 178.02 179.13 177.9 178.99 177.78 178.85 177.68 178.71 177.58 178.55 177.49 178.39 177.41 178.23 177.34 178.06 177.28 177.89 177.24 177.72 177.2 177.54 177.18 177.37 177.16 177.19 177.16 177.01 177.17 176.84 177.19 176.66 177.22 176.49 177.26 176.32 177.31 176.16 177.38 176 177.45 175.84 177.53 175.69 177.63 175.55 177.73 175.41 177.84 175.28 177.96 175.16 178.09 175.04 178.22 174.94 178.37 174.84 178.51 174.76 178.67 174.68 178.83 174.62 178.99 174.56 179.16 174.51 179.33 174.48 179.51 174.46 179.68 174.45 179.86 174.45 180.04 174.46 180.21 174.48 180.39 174.51 180.56 174.56 180.73 174.62 180.9 174.68 181.06 174.76 181.22 174.84 181.38 174.94 181.53 175.04 181.67 175.16 181.81 175.28 181.94 175.41 182.06 175.55 182.17 175.69 182.27 175.84 182.36 176 182.45 176.16 182.52 176.32 182.58 176.49 182.64 176.66 182.68 176.84 182.71 177.01 182.73 177.19 182.74 177.37 182.73 177.54 182.72 177.72 182.69 177.89 182.66 178.06 182.61 178.23 182.55 178.39 182.48 178.55 182.41 178.71 182.32 178.85 182.22 178.99 182.11 179.13 182 179.25 181.87 179.37 181.74 179.48 181.6 179.58 181.46 179.67 181.3 179.75 181.15 179.82 180.98 179.88 180.82 179.94 180.65 179.97 180.47 180 180.3 180.02 180.12 180.02 179.95"/><line class="cls-7" x1="168.87" y1="166" x2="185.6" y2="166"/><line class="cls-7" x1="168.87" y1="152.06" x2="185.6" y2="152.06"/><line class="cls-7" x1="168.87" y1="138.11" x2="185.6" y2="138.11"/><line class="cls-7" x1="168.87" y1="124.17" x2="185.6" y2="124.17"/><line class="cls-7" x1="168.87" y1="110.22" x2="185.6" y2="110.22"/><polyline class="cls-7" points="154.23 92.79 142.37 92.79 142.37 23.07 288.8 23.07 288.8 92.79 276.94 92.79"/><polygon class="cls-9" points="209.17 23.07 209.18 23.24 209.19 23.42 209.22 23.59 209.26 23.77 209.31 23.94 209.37 24.1 209.44 24.27 209.52 24.42 209.61 24.57 209.71 24.72 209.82 24.86 209.94 24.99 210.07 25.11 210.2 25.23 210.34 25.34 210.49 25.44 210.64 25.52 210.8 25.6 210.96 25.67 211.13 25.73 211.3 25.78 211.47 25.81 211.65 25.84 211.82 25.85 212 25.86 212.18 25.85 212.35 25.83 212.53 25.8 212.7 25.75 212.87 25.7 213.04 25.64 213.2 25.57 213.35 25.48 213.5 25.39 213.65 25.29 213.78 25.17 213.91 25.05 214.04 24.93 214.15 24.79 214.25 24.65 214.35 24.5 214.44 24.34 214.51 24.18 214.58 24.02 214.63 23.85 214.68 23.68 214.71 23.51 214.74 23.33 214.75 23.16 214.75 22.98 214.74 22.8 214.71 22.63 214.68 22.45 214.63 22.28 214.58 22.11 214.51 21.95 214.44 21.79 214.35 21.63 214.25 21.48 214.15 21.34 214.04 21.21 213.91 21.08 213.78 20.96 213.65 20.85 213.5 20.74 213.35 20.65 213.2 20.57 213.04 20.49 212.87 20.43 212.7 20.38 212.53 20.34 212.35 20.31 212.18 20.29 212 20.28 211.82 20.28 211.65 20.3 211.47 20.32 211.3 20.36 211.13 20.4 210.96 20.46 210.8 20.53 210.64 20.61 210.49 20.7 210.34 20.8 210.2 20.9 210.07 21.02 209.94 21.14 209.82 21.27 209.71 21.41 209.61 21.56 209.52 21.71 209.44 21.87 209.37 22.03 209.31 22.2 209.26 22.37 209.22 22.54 209.19 22.71 209.18 22.89 209.17 23.07"/><polygon class="cls-9" points="222 20.28 216.42 20.28 216.42 25.86 222 25.86 222 20.28"/><line class="cls-7" x1="165.38" y1="78.85" x2="196.06" y2="78.85"/><polygon class="cls-8" points="184.34 78.85 178.91 75.71 178.91 81.98 184.34 78.85"/><polyline class="cls-7" points="154.23 78.85 149.35 78.85 149.35 33.52 281.82 33.52 281.82 78.85 276.94 78.85"/><polygon class="cls-9" points="209.17 33.52 209.18 33.7 209.19 33.88 209.22 34.05 209.26 34.23 209.31 34.4 209.37 34.56 209.44 34.72 209.52 34.88 209.61 35.03 209.71 35.18 209.82 35.32 209.94 35.45 210.07 35.57 210.2 35.69 210.34 35.8 210.49 35.9 210.64 35.98 210.8 36.06 210.96 36.13 211.13 36.19 211.3 36.23 211.47 36.27 211.65 36.3 211.82 36.31 212 36.31 212.18 36.31 212.35 36.29 212.53 36.26 212.7 36.21 212.87 36.16 213.04 36.1 213.2 36.02 213.35 35.94 213.5 35.85 213.65 35.74 213.78 35.63 213.91 35.51 214.04 35.38 214.15 35.25 214.25 35.11 214.35 34.96 214.44 34.8 214.51 34.64 214.58 34.48 214.63 34.31 214.68 34.14 214.71 33.97 214.74 33.79 214.75 33.61 214.75 33.44 214.74 33.26 214.71 33.08 214.68 32.91 214.63 32.74 214.58 32.57 214.51 32.41 214.44 32.25 214.35 32.09 214.25 31.94 214.15 31.8 214.04 31.67 213.91 31.54 213.78 31.42 213.65 31.31 213.5 31.2 213.35 31.11 213.2 31.03 213.04 30.95 212.87 30.89 212.7 30.84 212.53 30.8 212.35 30.76 212.18 30.75 212 30.74 211.82 30.74 211.65 30.75 211.47 30.78 211.3 30.82 211.13 30.86 210.96 30.92 210.8 30.99 210.64 31.07 210.49 31.16 210.34 31.25 210.2 31.36 210.07 31.48 209.94 31.6 209.82 31.73 209.71 31.87 209.61 32.02 209.52 32.17 209.44 32.33 209.37 32.49 209.31 32.66 209.26 32.83 209.22 33 209.19 33.17 209.18 33.35 209.17 33.52"/><polygon class="cls-9" points="222 30.74 216.42 30.74 216.42 36.31 222 36.31 222 30.74"/><line class="cls-7" x1="168.87" y1="225.27" x2="185.6" y2="225.27"/><polygon class="cls-8" points="180.02 225.27 180.02 225.09 180 224.91 179.97 224.74 179.94 224.57 179.88 224.4 179.82 224.23 179.75 224.07 179.67 223.91 179.58 223.76 179.48 223.62 179.37 223.48 179.25 223.34 179.13 223.22 178.99 223.1 178.85 223 178.71 222.9 178.55 222.81 178.39 222.73 178.23 222.66 178.06 222.6 177.89 222.56 177.72 222.52 177.54 222.5 177.37 222.48 177.19 222.48 177.01 222.49 176.84 222.51 176.66 222.54 176.49 222.58 176.32 222.63 176.16 222.7 176 222.77 175.84 222.85 175.69 222.95 175.55 223.05 175.41 223.16 175.28 223.28 175.16 223.41 175.04 223.54 174.94 223.69 174.84 223.84 174.76 223.99 174.68 224.15 174.62 224.31 174.56 224.48 174.51 224.65 174.48 224.83 174.46 225 174.45 225.18 174.45 225.36 174.46 225.53 174.48 225.71 174.51 225.88 174.56 226.05 174.62 226.22 174.68 226.39 174.76 226.55 174.84 226.7 174.94 226.85 175.04 226.99 175.16 227.13 175.28 227.26 175.41 227.38 175.55 227.49 175.69 227.59 175.84 227.68 176 227.77 176.16 227.84 176.32 227.9 176.49 227.96 176.66 228 176.84 228.03 177.01 228.05 177.19 228.06 177.37 228.05 177.54 228.04 177.72 228.01 177.89 227.98 178.06 227.93 178.23 227.87 178.39 227.81 178.55 227.73 178.71 227.64 178.85 227.54 178.99 227.43 179.13 227.32 179.25 227.19 179.37 227.06 179.48 226.92 179.58 226.78 179.67 226.62 179.75 226.47 179.82 226.31 179.88 226.14 179.94 225.97 179.97 225.8 180 225.62 180.02 225.44 180.02 225.27"/><line class="cls-7" x1="168.87" y1="260.13" x2="185.6" y2="260.13"/><polygon class="cls-9" points="170.82 260.13 170.83 260.31 170.84 260.48 170.87 260.66 170.91 260.83 170.96 261 171.02 261.17 171.09 261.33 171.17 261.49 171.26 261.64 171.36 261.78 171.47 261.92 171.59 262.06 171.72 262.18 171.85 262.3 171.99 262.4 172.14 262.5 172.29 262.59 172.45 262.67 172.61 262.74 172.78 262.79 172.95 262.84 173.13 262.88 173.3 262.9 173.48 262.92 173.65 262.92 173.83 262.91 174.01 262.89 174.18 262.86 174.35 262.82 174.52 262.77 174.69 262.7 174.85 262.63 175 262.55 175.15 262.45 175.3 262.35 175.44 262.24 175.57 262.12 175.69 261.99 175.8 261.86 175.91 261.71 176 261.56 176.09 261.41 176.16 261.25 176.23 261.08 176.29 260.92 176.33 260.75 176.36 260.57 176.39 260.4 176.4 260.22 176.4 260.04 176.39 259.87 176.36 259.69 176.33 259.52 176.29 259.35 176.23 259.18 176.16 259.01 176.09 258.85 176 258.7 175.91 258.55 175.8 258.41 175.69 258.27 175.57 258.14 175.44 258.02 175.3 257.91 175.15 257.81 175 257.71 174.85 257.63 174.69 257.56 174.52 257.5 174.35 257.44 174.18 257.4 174.01 257.37 173.83 257.35 173.65 257.34 173.48 257.35 173.3 257.36 173.13 257.38 172.95 257.42 172.78 257.47 172.61 257.52 172.45 257.59 172.29 257.67 172.14 257.76 171.99 257.86 171.85 257.97 171.72 258.08 171.59 258.21 171.47 258.34 171.36 258.48 171.26 258.62 171.17 258.77 171.09 258.93 171.02 259.09 170.96 259.26 170.91 259.43 170.87 259.6 170.84 259.78 170.83 259.95 170.82 260.13"/><polygon class="cls-9" points="183.65 257.34 178.07 257.34 178.07 262.92 183.65 262.92 183.65 257.34"/><text class="cls-12" transform="translate(169.14 71.18)">A</text><text class="cls-11" transform="translate(182.7 71.18)">U</text><text class="cls-11" transform="translate(196.27 85.12)">G</text><text class="cls-11" transform="translate(196.27 99.07)">G</text><text class="cls-11" transform="translate(224.54 99.07)">C</text><text class="cls-3" transform="translate(235.35 96.63)">60</text><text class="cls-11" transform="translate(224.54 85.12)">C</text><text class="cls-11" transform="translate(231.13 71.18)">G</text><text class="cls-11" transform="translate(245.46 71.18)">U</text><text class="cls-12" transform="translate(259.78 71.18)">A</text><polyline class="cls-7" points="173.75 59.32 173.75 43.98 264.39 43.98 264.39 59.32"/><polygon class="cls-9" points="212.66 46.77 218.23 46.77 218.23 41.2 212.66 41.2 212.66 46.77"/><polygon class="cls-9" points="225.49 43.98 225.48 43.81 225.46 43.63 225.43 43.46 225.4 43.28 225.35 43.11 225.28 42.95 225.21 42.78 225.13 42.63 225.04 42.48 224.94 42.33 224.83 42.19 224.71 42.06 224.59 41.94 224.46 41.82 224.31 41.71 224.17 41.61 224.01 41.52 223.85 41.45 223.69 41.38 223.52 41.32 223.35 41.27 223.18 41.24 223 41.21 222.83 41.2 222.65 41.2 222.47 41.2 222.3 41.22 222.13 41.25 221.95 41.3 221.78 41.35 221.62 41.41 221.46 41.48 221.3 41.57 221.15 41.66 221.01 41.77 220.87 41.88 220.74 42 220.62 42.12 220.5 42.26 220.4 42.4 220.3 42.55 220.22 42.71 220.14 42.87 220.07 43.03 220.02 43.2 219.98 43.37 219.94 43.54 219.92 43.72 219.91 43.9 219.91 44.07 219.92 44.25 219.94 44.42 219.98 44.6 220.02 44.77 220.07 44.94 220.14 45.1 220.22 45.26 220.3 45.42 220.4 45.57 220.5 45.71 220.62 45.84 220.74 45.97 220.87 46.09 221.01 46.2 221.15 46.31 221.3 46.4 221.46 46.48 221.62 46.56 221.78 46.62 221.95 46.67 222.13 46.71 222.3 46.74 222.47 46.76 222.65 46.77 222.83 46.77 223 46.76 223.18 46.73 223.35 46.69 223.52 46.65 223.69 46.59 223.85 46.52 224.01 46.44 224.17 46.35 224.31 46.26 224.46 46.15 224.59 46.03 224.71 45.91 224.83 45.78 224.94 45.64 225.04 45.49 225.13 45.34 225.21 45.18 225.28 45.02 225.35 44.85 225.4 44.68 225.43 44.51 225.46 44.34 225.48 44.16 225.49 43.98"/><line class="cls-7" x1="207.22" y1="78.85" x2="223.95" y2="78.85"/><line class="cls-7" x1="207.22" y1="92.79" x2="223.95" y2="92.79"/><polyline class="cls-7" points="205.58 96.73 208.61 99.76 229.53 99.76 264.39 99.76 267.42 96.73"/><polygon class="cls-9" points="239.71 99.76 245.15 102.9 245.15 96.63 239.71 99.76"/><polygon class="cls-9" points="253.38 99.76 253.37 99.59 253.35 99.41 253.32 99.24 253.28 99.06 253.24 98.89 253.18 98.73 253.1 98.56 253.02 98.41 252.93 98.26 252.83 98.11 252.72 97.97 252.6 97.84 252.48 97.72 252.34 97.6 252.2 97.49 252.06 97.39 251.9 97.31 251.75 97.23 251.58 97.16 251.41 97.1 251.24 97.05 251.07 97.02 250.9 96.99 250.72 96.98 250.54 96.97 250.37 96.98 250.19 97 250.01 97.03 249.84 97.08 249.67 97.13 249.51 97.19 249.35 97.27 249.19 97.35 249.04 97.44 248.9 97.54 248.76 97.66 248.63 97.78 248.51 97.9 248.39 98.04 248.29 98.18 248.19 98.33 248.11 98.49 248.03 98.65 247.97 98.81 247.91 98.98 247.87 99.15 247.83 99.32 247.81 99.5 247.8 99.67 247.8 99.85 247.81 100.03 247.83 100.2 247.87 100.38 247.91 100.55 247.97 100.72 248.03 100.88 248.11 101.04 248.19 101.2 248.29 101.34 248.39 101.49 248.51 101.62 248.63 101.75 248.76 101.87 248.9 101.98 249.04 102.09 249.19 102.18 249.35 102.26 249.51 102.34 249.67 102.4 249.84 102.45 250.01 102.49 250.19 102.52 250.37 102.54 250.54 102.55 250.72 102.55 250.9 102.54 251.07 102.51 251.24 102.47 251.41 102.43 251.58 102.37 251.75 102.3 251.9 102.22 252.06 102.13 252.2 102.04 252.34 101.93 252.48 101.81 252.6 101.69 252.72 101.56 252.83 101.42 252.93 101.27 253.02 101.12 253.1 100.96 253.18 100.8 253.24 100.63 253.28 100.46 253.32 100.29 253.35 100.12 253.37 99.94 253.38 99.76"/><polyline class="cls-7" points="236.5 59.32 236.5 50.96 250.45 50.96 250.45 59.32"/><polygon class="cls-8" points="236.22 50.96 241.66 54.09 241.66 47.82 236.22 50.96"/><polygon class="cls-8" points="249.89 48.17 244.31 48.17 244.31 53.75 249.89 53.75 249.89 48.17"/><text class="cls-13" transform="translate(172.25 297.78)">U</text><text class="cls-13" transform="translate(186.19 283.84)">C</text><text class="cls-3" transform="translate(196.97 281.51)">50</text><text class="cls-13" transform="translate(186.19 266.41)">U</text><text class="cls-14" transform="translate(186.57 248.98)">A</text><text class="cls-13" transform="translate(186.19 231.54)">C</text><text class="cls-1" transform="translate(235 186.22)">C</text><text class="cls-1" transform="translate(234.61 172.28)">G</text><text class="cls-1" transform="translate(234.61 158.33)">G</text><text class="cls-1" transform="translate(234.61 144.39)">G</text><text class="cls-1" transform="translate(235 130.44)">C</text><text class="cls-2" transform="translate(235.38 116.5)">A</text><text class="cls-12" transform="translate(266.76 85.12)">A</text><text class="cls-12" transform="translate(266.76 99.07)">A</text><text class="cls-1" transform="translate(262.89 116.5)">U</text><text class="cls-1" transform="translate(262.5 130.44)">G</text><text class="cls-1" transform="translate(262.89 144.39)">U</text><text class="cls-1" transform="translate(262.89 158.33)">C</text><text class="cls-3" transform="translate(273.45 156.23)">70</text><text class="cls-1" transform="translate(262.89 172.28)">C</text><text class="cls-1" transform="translate(262.5 186.22)">G</text><text class="cls-15" transform="translate(259.78 231.54)">A</text><line class="cls-7" x1="245.57" y1="179.95" x2="262.3" y2="179.95"/><line class="cls-7" x1="245.57" y1="166" x2="262.3" y2="166"/><line class="cls-7" x1="245.57" y1="152.06" x2="262.3" y2="152.06"/><polygon class="cls-8" points="256.72 138.11 256.72 137.94 256.7 137.76 256.67 137.58 256.63 137.41 256.58 137.24 256.52 137.08 256.45 136.91 256.37 136.76 256.28 136.6 256.18 136.46 256.07 136.32 255.95 136.19 255.82 136.06 255.69 135.95 255.55 135.84 255.4 135.74 255.25 135.65 255.09 135.57 254.93 135.51 254.76 135.45 254.59 135.4 254.42 135.37 254.24 135.34 254.06 135.33 253.89 135.32 253.71 135.33 253.54 135.35 253.36 135.38 253.19 135.42 253.02 135.48 252.85 135.54 252.69 135.61 252.54 135.7 252.39 135.79 252.24 135.89 252.11 136 251.98 136.13 251.85 136.25 251.74 136.39 251.64 136.53 251.54 136.68 251.45 136.83 251.38 136.99 251.31 137.16 251.26 137.33 251.21 137.5 251.18 137.67 251.16 137.85 251.15 138.02 251.15 138.2 251.16 138.38 251.18 138.55 251.21 138.73 251.26 138.9 251.31 139.07 251.38 139.23 251.45 139.39 251.54 139.54 251.64 139.69 251.74 139.84 251.85 139.97 251.98 140.1 252.11 140.22 252.24 140.33 252.39 140.43 252.54 140.53 252.69 140.61 252.85 140.69 253.02 140.75 253.19 140.8 253.36 140.84 253.54 140.87 253.71 140.89 253.89 140.9 254.06 140.9 254.24 140.88 254.42 140.86 254.59 140.82 254.76 140.78 254.93 140.72 255.09 140.65 255.25 140.57 255.4 140.48 255.55 140.38 255.69 140.28 255.82 140.16 255.95 140.04 256.07 139.91 256.18 139.77 256.28 139.62 256.37 139.47 256.45 139.31 256.52 139.15 256.58 138.98 256.63 138.81 256.67 138.64 256.7 138.47 256.72 138.29 256.72 138.11"/><line class="cls-7" x1="245.57" y1="124.17" x2="262.3" y2="124.17"/><line class="cls-7" x1="245.57" y1="110.22" x2="262.3" y2="110.22"/><line class="cls-10" x1="187.47" y1="198.06" x2="167" y2="221.1"/><polygon class="cls-8" points="178.41 214.62 175.3 214.97 173.24 216.24 171.43 217.74 167.56 220.52 169.87 216.35 171.15 214.39 172.17 212.19 172.15 209.06 178.41 214.62"/><line class="cls-10" x1="195.27" y1="221.47" x2="235.9" y2="183.74"/><polygon class="cls-8" points="219.95 193.25 223.08 193.2 225.25 192.13 227.19 190.8 231.31 188.41 228.62 192.34 227.15 194.17 225.92 196.26 225.64 199.38 219.95 193.25"/><line class="cls-10" x1="228.97" y1="272.01" x2="226.6" y2="248.25"/><polygon class="cls-8" points="224.81 273.31 226.66 270.79 227.12 268.41 227.24 266.06 227.82 261.33 229.32 265.85 229.9 268.13 230.82 270.37 233.14 272.48 224.81 273.31"/><line class="cls-10" x1="163.29" y1="230.85" x2="163.29" y2="254.55"/><polygon class="cls-8" points="167.47 238.05 165.38 240.38 164.69 242.7 164.34 245.02 163.29 249.67 162.25 245.02 161.9 242.7 161.2 240.38 159.11 238.05 167.47 238.05"/><line class="cls-10" x1="267.45" y1="185.51" x2="264.82" y2="219.71"/><polygon class="cls-8" points="270.66 198.29 268.4 200.45 267.52 202.72 267 205 265.6 209.56 264.91 204.84 264.74 202.5 264.23 200.13 262.32 197.65 270.66 198.29"/><text class="cls-16" transform="translate(199.76 333.34)">P1</text><text class="cls-16" transform="translate(125.1 159.73)">P2</text><text class="cls-16" transform="translate(285.9 159.73)">P3</text><text class="cls-17" transform="translate(120.77 95.35)">L2</text><text class="cls-17" transform="translate(291.9 95.16)">L3</text><text class="cls-18" transform="translate(273.83 242.7)">J3/1</text><text class="cls-19" transform="translate(229.91 204.94)">J1/2</text><text class="cls-20" transform="translate(121.94 266.41)">J2/3</text><rect class="cls-21" x="220.4" y="254.32" width="13.27" height="12.38"/><text class="cls-22" transform="translate(221.76 265.41)">G</text><line class="cls-23" x1="235" y1="260.64" x2="253.96" y2="260.64"/><line class="cls-23" x1="199.24" y1="260.64" x2="217.32" y2="260.64"/><polygon class="cls-24" points="215.27 260.53 215.27 260.35 215.25 260.18 215.22 260 215.19 259.83 215.14 259.67 215.08 259.5 215.01 259.34 214.93 259.19 214.84 259.04 214.74 258.89 214.63 258.75 214.51 258.62 214.39 258.5 214.25 258.39 214.12 258.28 213.97 258.18 213.82 258.1 213.66 258.02 213.5 257.95 213.34 257.89 213.17 257.85 213 257.81 212.82 257.79 212.65 257.77 212.47 257.77 212.3 257.78 212.12 257.8 211.95 257.83 211.78 257.87 211.61 257.92 211.45 257.98 211.29 258.06 211.14 258.14 210.99 258.23 210.84 258.33 210.71 258.44 210.58 258.56 210.46 258.69 210.35 258.82 210.24 258.96 210.15 259.11 210.06 259.26 209.99 259.42 209.92 259.58 209.87 259.75 209.82 259.92 209.79 260.09 209.77 260.26 209.76 260.44 209.76 260.62 209.77 260.79 209.79 260.96 209.82 261.13 209.87 261.3 209.92 261.47 209.99 261.63 210.06 261.79 210.15 261.94 210.24 262.09 210.35 262.23 210.46 262.37 210.58 262.49 210.71 262.61 210.84 262.72 210.99 262.82 211.14 262.92 211.29 263 211.45 263.07 211.61 263.13 211.78 263.19 211.95 263.23 212.12 263.26 212.3 263.28 212.47 263.29 212.65 263.28 212.82 263.27 213 263.24 213.17 263.21 213.34 263.16 213.5 263.1 213.66 263.04 213.82 262.96 213.97 262.87 214.12 262.77 214.25 262.67 214.39 262.55 214.51 262.43 214.63 262.3 214.74 262.16 214.84 262.02 214.93 261.87 215.01 261.71 215.08 261.55 215.14 261.39 215.19 261.22 215.22 261.05 215.25 260.88 215.27 260.7 215.27 260.53"/><polygon class="cls-24" points="202.16 260.53 207.54 263.63 207.54 257.42 202.16 260.53"/><text class="cls-25" transform="translate(227.03 390.96)">5<tspan class="cls-26" x="5.56" y="0">’</tspan></text><text class="cls-25" transform="translate(253.96 377.57)">3<tspan class="cls-26" x="5.56" y="0">’</tspan></text><text class="cls-27" transform="translate(1.72 19.69)">Guanine-I Riboswitch</text></svg>