<svg id="图层_1" data-name="图层 1" xmlns="http://www.w3.org/2000/svg" xmlns:xlink="http://www.w3.org/1999/xlink" viewBox="0 0 400 400"><defs><style>.cls-1,.cls-20,.cls-21,.cls-25,.cls-27,.cls-28,.cls-3,.cls-39,.cls-40,.cls-5,.cls-9{fill:none;}.cls-2{clip-path:url(#clip-path);}.cls-28,.cls-3,.cls-39,.cls-40,.cls-5,.cls-9{stroke:#251e1c;}.cls-20,.cls-21,.cls-25,.cls-27,.cls-28,.cls-3,.cls-39,.cls-40,.cls-5,.cls-9{stroke-miterlimit:10;}.cls-3{stroke-width:1.04px;}.cls-4{fill:#fff;}.cls-5{stroke-width:0.97px;}.cls-6{fill:#e1ebc8;}.cls-7{fill:#f2dede;}.cls-8{fill:#b8131f;}.cls-9{stroke-width:0.49px;}.cls-10,.cls-12,.cls-41{font-size:10.32px;}.cls-10,.cls-18{fill:#837f89;}.cls-10,.cls-12,.cls-13,.cls-29{font-family:Arial-BoldMT, Arial;font-weight:700;}.cls-11,.cls-12,.cls-41,.cls-42{fill:#251e1c;}.cls-13{font-size:10.33px;fill:#a82026;}.cls-14{font-size:12.93px;font-family:ArialNarrow-Italic, Arial;}.cls-14,.cls-24,.cls-26{fill:#080000;}.cls-14,.cls-34,.cls-37{font-style:italic;}.cls-15{letter-spacing:-0.02em;}.cls-16{letter-spacing:-0.01em;}.cls-17{letter-spacing:-0.02em;}.cls-19{letter-spacing:-0.02em;}.cls-20,.cls-21{stroke:#bab9b7;}.cls-20{stroke-width:0.83px;}.cls-21{stroke-linecap:round;stroke-width:5.07px;}.cls-22{letter-spacing:0.26em;}.cls-23{letter-spacing:-0.01em;}.cls-24,.cls-44{font-size:20px;}.cls-24,.cls-26,.cls-30,.cls-32,.cls-41,.cls-42,.cls-44{font-family:ArialMT, Arial;}.cls-25{stroke:#080000;stroke-width:0.47px;}.cls-26{font-size:9.49px;}.cls-27{stroke:#262122;}.cls-27,.cls-39{stroke-width:0.42px;}.cls-28{stroke-width:1.01px;}.cls-29{font-size:10.32px;}.cls-29,.cls-34,.cls-37{fill:#262122;}.cls-30,.cls-32{font-size:10.32px;}.cls-30{fill:#262223;}.cls-31{letter-spacing:-0.09em;}.cls-32{fill:#272424;}.cls-33{letter-spacing:-0.07em;}.cls-34,.cls-37{font-size:10.36px;font-family:Arial-ItalicMT, Arial;}.cls-35,.cls-37{letter-spacing:-0.01em;}.cls-36{letter-spacing:-0.02em;}.cls-38{letter-spacing:0em;}.cls-40{stroke-width:0.47px;}.cls-42{font-size:10px;}.cls-43{letter-spacing:-0.04em;}.cls-45{letter-spacing:-0.02em;}</style><clipPath id="clip-path"><rect class="cls-1" x="32.57" y="19.99" width="781" height="347.23"/></clipPath></defs><g class="cls-2"><path class="cls-3" d="M110.1,276.29a11.22,11.22,0,1,1-11.22-11.22A11.22,11.22,0,0,1,110.1,276.29Z"/><rect class="cls-4" x="91.55" y="263.6" width="14.78" height="6.91"/><line class="cls-3" x1="90.67" y1="269.14" x2="90.67" y2="220.81"/><rect class="cls-4" x="97.41" y="228" width="18.93" height="64.16"/><rect class="cls-4" x="114.02" y="264.18" width="14.78" height="6.9"/><path class="cls-3" d="M251.11,273.93a11.22,11.22,0,1,1-11.22-11.22A11.22,11.22,0,0,1,251.11,273.93Z"/><rect class="cls-4" x="232.55" y="261.24" width="14.78" height="6.9"/></g><g class="cls-2"><line class="cls-5" x1="132.78" y1="287.12" x2="138.13" y2="287.12"/><line class="cls-5" x1="132.78" y1="276.72" x2="138.13" y2="276.72"/><line class="cls-5" x1="132.78" y1="266.32" x2="138.13" y2="266.32"/><rect class="cls-6" x="123.02" y="252.21" width="24.87" height="7.41"/><line class="cls-5" x1="132.78" y1="255.91" x2="138.13" y2="255.91"/><rect class="cls-6" x="123.02" y="241.8" width="24.87" height="7.41"/><line class="cls-5" x1="132.78" y1="245.51" x2="138.13" y2="245.51"/><rect class="cls-6" x="123.02" y="231.4" width="24.87" height="7.41"/><line class="cls-5" x1="132.78" y1="235.11" x2="138.13" y2="235.11"/><line class="cls-5" x1="132.78" y1="224.71" x2="138.13" y2="224.71"/><rect class="cls-6" x="123.02" y="210.59" width="24.87" height="7.41"/><line class="cls-5" x1="132.78" y1="214.3" x2="138.13" y2="214.3"/><line class="cls-5" x1="132.78" y1="203.9" x2="138.13" y2="203.9"/><rect class="cls-6" x="123.02" y="189.79" width="24.87" height="7.41"/><line class="cls-5" x1="132.78" y1="193.5" x2="138.13" y2="193.5"/><rect class="cls-6" x="123.02" y="179.39" width="24.87" height="7.41"/><line class="cls-5" x1="132.78" y1="183.09" x2="138.13" y2="183.09"/><rect class="cls-6" x="123.02" y="168.98" width="24.87" height="7.41"/><line class="cls-5" x1="132.78" y1="172.69" x2="138.13" y2="172.69"/><rect class="cls-6" x="123.02" y="158.58" width="24.87" height="7.41"/><line class="cls-5" x1="132.78" y1="162.28" x2="138.13" y2="162.28"/><rect class="cls-6" x="123.02" y="148.18" width="24.87" height="7.41"/><line class="cls-5" x1="132.78" y1="151.88" x2="138.13" y2="151.88"/><line class="cls-5" x1="132.78" y1="141.48" x2="138.13" y2="141.48"/><line class="cls-5" x1="132.78" y1="131.08" x2="138.13" y2="131.08"/><line class="cls-5" x1="132.78" y1="120.67" x2="138.13" y2="120.67"/><rect class="cls-6" x="123.02" y="106.56" width="24.87" height="7.41"/><line class="cls-5" x1="132.78" y1="110.27" x2="138.13" y2="110.27"/><rect class="cls-6" x="123.02" y="96.16" width="24.87" height="7.41"/><line class="cls-5" x1="132.78" y1="99.87" x2="138.13" y2="99.87"/><line class="cls-5" x1="132.78" y1="89.46" x2="138.13" y2="89.46"/><rect class="cls-7" x="123.02" y="75.36" width="24.87" height="7.41"/><line class="cls-5" x1="132.78" y1="79.06" x2="138.13" y2="79.06"/><rect class="cls-7" x="123.02" y="64.95" width="24.87" height="7.41"/><line class="cls-5" x1="132.78" y1="68.66" x2="138.13" y2="68.66"/><rect class="cls-7" x="123.02" y="54.55" width="24.87" height="7.41"/><line class="cls-5" x1="132.78" y1="58.26" x2="138.13" y2="58.26"/><path class="cls-8" d="M130.55,287.12a3.52,3.52,0,1,1-3.52-3.51,3.52,3.52,0,0,1,3.52,3.51"/><path class="cls-9" d="M130.55,287.12a3.52,3.52,0,1,1-3.52-3.51A3.52,3.52,0,0,1,130.55,287.12Z"/></g><text class="cls-10" transform="translate(123.31 280.42)">R</text><text class="cls-10" transform="translate(123.31 270.02)">R</text><text class="cls-10" transform="translate(123.31 259.62)">R</text><g class="cls-2"><path class="cls-8" d="M130.55,245.51A3.52,3.52,0,1,1,127,242a3.52,3.52,0,0,1,3.52,3.52"/><path class="cls-9" d="M130.55,245.51A3.52,3.52,0,1,1,127,242,3.52,3.52,0,0,1,130.55,245.51Z"/><path class="cls-11" d="M130.55,235.43a3.52,3.52,0,1,1-3.52-3.51,3.52,3.52,0,0,1,3.52,3.51"/><path class="cls-9" d="M130.55,235.43a3.52,3.52,0,1,1-3.52-3.51A3.52,3.52,0,0,1,130.55,235.43Z"/><path class="cls-11" d="M130.55,224.71a3.52,3.52,0,1,1-3.52-3.53,3.51,3.51,0,0,1,3.52,3.53"/><path class="cls-9" d="M130.55,224.71a3.52,3.52,0,1,1-3.52-3.53A3.51,3.51,0,0,1,130.55,224.71Z"/></g><text class="cls-10" transform="translate(123.31 218.01)">C</text><text class="cls-10" transform="translate(123.59 207.6)">A</text><text class="cls-10" transform="translate(123.59 197.2)">Y</text><text class="cls-10" transform="translate(123.02 186.8)">G</text><text class="cls-12" transform="translate(123.59 176.4)">A</text><text class="cls-12" transform="translate(123.59 165.99)">A</text><text class="cls-12" transform="translate(123.02 155.59)">G</text><text class="cls-13" transform="translate(123.02 145.18)">G</text><text class="cls-13" transform="translate(123.02 134.78)">G</text><text class="cls-13" transform="translate(123.02 124.38)">G</text><text class="cls-12" transform="translate(123.59 113.98)">Y</text><text class="cls-12" transform="translate(123.31 103.57)">R</text><text class="cls-10" transform="translate(123.31 93.17)">C</text><text class="cls-13" transform="translate(123.59 82.77)">A</text><text class="cls-13" transform="translate(123.31 72.36)">C</text><text class="cls-13" transform="translate(123.31 61.96)">C</text><text class="cls-13" transform="translate(117.72 53.37)">A</text><text class="cls-13" transform="translate(118.73 43.05)">C</text><text class="cls-12" transform="translate(126.53 36.16)">C</text><g class="cls-2"><path class="cls-8" d="M144.18,32.45a3.52,3.52,0,1,1-3.52-3.51,3.53,3.53,0,0,1,3.52,3.51"/><path class="cls-9" d="M144.18,32.45a3.52,3.52,0,1,1-3.52-3.51A3.53,3.53,0,0,1,144.18,32.45Z"/></g><text class="cls-10" transform="translate(145.01 43.04)">Y</text><text class="cls-12" transform="translate(145.73 53.37)">G</text><text class="cls-13" transform="translate(139.86 61.96)">G</text><text class="cls-13" transform="translate(139.86 72.36)">G</text><text class="cls-13" transform="translate(140.15 82.76)">U</text><text class="cls-13" transform="translate(140.15 93.17)">R</text><text class="cls-12" transform="translate(140.43 103.57)">Y</text><text class="cls-10" transform="translate(140.15 113.97)">R</text><g class="cls-2"><path class="cls-11" d="M147.4,120.67a3.52,3.52,0,1,1-3.52-3.52,3.52,3.52,0,0,1,3.52,3.52"/><path class="cls-9" d="M147.4,120.67a3.52,3.52,0,1,1-3.52-3.52A3.52,3.52,0,0,1,147.4,120.67Z"/></g><text class="cls-10" transform="translate(140.43 134.78)">Y</text><text class="cls-10" transform="translate(140.43 145.18)">Y</text><text class="cls-13" transform="translate(140.43 155.59)">Y</text><text class="cls-12" transform="translate(140.15 165.99)">U</text><text class="cls-13" transform="translate(140.15 176.4)">U</text><text class="cls-13" transform="translate(140.43 186.8)">Y</text><text class="cls-10" transform="translate(140.15 207.6)">U</text><text class="cls-10" transform="translate(139.86 218.01)">G</text><g class="cls-2"><path class="cls-8" d="M147.4,224.71a3.52,3.52,0,1,1-3.52-3.53,3.52,3.52,0,0,1,3.52,3.53"/><path class="cls-9" d="M147.4,224.71a3.52,3.52,0,1,1-3.52-3.53A3.52,3.52,0,0,1,147.4,224.71Z"/></g><text class="cls-13" transform="translate(140.15 280.42)">U</text><text class="cls-12" transform="translate(140.15 290.83)">U</text><text class="cls-12" transform="translate(147.5 298.19)">U</text><text class="cls-13" transform="translate(157.91 298.19)">U</text><text class="cls-12" transform="translate(168.31 298.19)">U</text><text class="cls-14" transform="translate(44.63 137.98)"><tspan class="cls-15">T</tspan><tspan class="cls-16" x="6.27" y="0">erm</tspan><tspan class="cls-15" x="23.95" y="0">in</tspan><tspan class="cls-16" x="31.78" y="0">a</tspan><tspan class="cls-17" x="37.49" y="0">to</tspan><tspan x="45.92" y="0">r</tspan></text><g class="cls-2"><path class="cls-8" d="M147.4,193.35a3.52,3.52,0,1,1-3.52-3.52,3.53,3.53,0,0,1,3.52,3.52"/><path class="cls-9" d="M147.4,193.35a3.52,3.52,0,1,1-3.52-3.52A3.53,3.53,0,0,1,147.4,193.35Z"/><path class="cls-11" d="M147.24,245.47a3.52,3.52,0,1,1-3.52-3.52,3.53,3.53,0,0,1,3.52,3.52"/><path class="cls-9" d="M147.24,245.47a3.52,3.52,0,1,1-3.52-3.52A3.53,3.53,0,0,1,147.24,245.47Z"/><path class="cls-18" d="M147.12,255.64a3.52,3.52,0,1,1-3.52-3.52,3.52,3.52,0,0,1,3.52,3.52"/><path class="cls-9" d="M147.12,255.64a3.52,3.52,0,1,1-3.52-3.52A3.52,3.52,0,0,1,147.12,255.64Z"/><path class="cls-4" d="M147.17,266.29a3.52,3.52,0,1,1-3.52-3.52,3.52,3.52,0,0,1,3.52,3.52"/><path class="cls-4" d="M147.17,266.29a3.52,3.52,0,1,1-3.52-3.52,3.52,3.52,0,0,1,3.52,3.52"/><path class="cls-9" d="M147.17,266.29a3.52,3.52,0,1,1-3.52-3.52A3.52,3.52,0,0,1,147.17,266.29Z"/></g><text class="cls-10" transform="translate(178.26 298.19)">U</text><g class="cls-2"><rect class="cls-7" x="121.94" y="316.49" width="18.83" height="7.41"/></g><text class="cls-14" transform="translate(36.99 152.35)"><tspan class="cls-19">C</tspan><tspan class="cls-17" x="7.46" y="0">on</tspan><tspan class="cls-19" x="18.84" y="0">f</tspan><tspan class="cls-15" x="21.59" y="0">igu</tspan><tspan class="cls-19" x="35.12" y="0">rat</tspan><tspan class="cls-15" x="46.91" y="0">io</tspan><tspan x="54.75" y="0">n</tspan></text><g class="cls-2"><path class="cls-20" d="M256.84,33.91a14.24,14.24,0,0,0-17.06-2.14c-4.84,3-7.26,8.66-7.7,14.18s.78,11,1.66,16.49a137.51,137.51,0,0,1,.42,40.81c-.81,5.82-1.95,12,.39,17.36s9.88,9.13,14.66,5.52"/><line class="cls-21" x1="252.28" y1="120" x2="252.28" y2="132.18"/><line class="cls-21" x1="260.9" y1="31.87" x2="252.29" y2="40.49"/><path class="cls-11" d="M224.41,190.62a3.52,3.52,0,1,1-3.52-3.52,3.53,3.53,0,0,1,3.52,3.52"/><path class="cls-9" d="M223.89,190.62a3.52,3.52,0,1,1-3.52-3.52A3.53,3.53,0,0,1,223.89,190.62Z"/></g><text class="cls-10" transform="translate(196.36 194.33)"><tspan class="cls-22">R</tspan><tspan x="10.11" y="0">R</tspan></text><g class="cls-2"><rect class="cls-6" x="253.41" y="179.39" width="24.87" height="7.41"/><line class="cls-5" x1="263.17" y1="183.1" x2="268.53" y2="183.1"/><rect class="cls-6" x="253.41" y="168.99" width="24.87" height="7.41"/><line class="cls-5" x1="263.17" y1="172.69" x2="268.53" y2="172.69"/><rect class="cls-6" x="253.41" y="158.58" width="24.87" height="7.41"/><line class="cls-5" x1="263.17" y1="162.29" x2="268.53" y2="162.29"/><rect class="cls-6" x="253.41" y="106.57" width="24.87" height="7.41"/><line class="cls-5" x1="263.17" y1="110.27" x2="268.53" y2="110.27"/><rect class="cls-6" x="253.41" y="96.16" width="24.87" height="7.41"/><line class="cls-5" x1="263.17" y1="99.87" x2="268.53" y2="99.87"/><line class="cls-5" x1="263.17" y1="89.47" x2="268.53" y2="89.47"/><rect class="cls-7" x="253.41" y="75.36" width="24.87" height="7.41"/><line class="cls-5" x1="263.17" y1="79.06" x2="268.53" y2="79.06"/><rect class="cls-7" x="253.41" y="64.95" width="24.87" height="7.41"/><line class="cls-5" x1="263.17" y1="68.66" x2="268.53" y2="68.66"/><rect class="cls-7" x="253.41" y="54.55" width="24.87" height="7.41"/><line class="cls-5" x1="263.17" y1="58.26" x2="268.53" y2="58.26"/></g><text class="cls-10" transform="translate(253.41 186.8)">G</text><text class="cls-12" transform="translate(253.99 176.4)">A</text><text class="cls-12" transform="translate(253.99 165.99)">A</text><text class="cls-12" transform="translate(248.23 155.59)">G</text><text class="cls-13" transform="translate(248.23 145.19)">G</text><text class="cls-13" transform="translate(248.23 134.78)">G</text><text class="cls-13" transform="translate(248.23 124.38)">G</text><text class="cls-12" transform="translate(253.99 113.98)">Y</text><text class="cls-12" transform="translate(253.7 103.57)">R</text><text class="cls-10" transform="translate(253.7 93.17)">C</text><text class="cls-13" transform="translate(253.99 82.77)">A</text><text class="cls-13" transform="translate(253.7 72.36)">C</text><text class="cls-13" transform="translate(253.7 61.96)">C</text><text class="cls-13" transform="translate(248.12 53.37)">A</text><text class="cls-13" transform="translate(249.12 43.04)">C</text><text class="cls-12" transform="translate(256.92 36.16)">C</text><g class="cls-2"><path class="cls-8" d="M274.57,32.46a3.52,3.52,0,1,1-3.52-3.52,3.53,3.53,0,0,1,3.52,3.52"/><path class="cls-9" d="M274.57,32.46a3.52,3.52,0,1,1-3.52-3.52A3.53,3.53,0,0,1,274.57,32.46Z"/></g><text class="cls-10" transform="translate(275.41 43.04)">Y</text><text class="cls-12" transform="translate(276.12 53.37)">G</text><text class="cls-13" transform="translate(270.26 61.96)">G</text><text class="cls-13" transform="translate(270.26 72.36)">G</text><text class="cls-13" transform="translate(270.55 82.77)">U</text><text class="cls-13" transform="translate(270.55 93.17)">R</text><text class="cls-12" transform="translate(270.83 103.57)">Y</text><text class="cls-10" transform="translate(270.55 113.98)">R</text><g class="cls-2"><path class="cls-11" d="M283,120.67a3.52,3.52,0,1,1-3.52-3.51,3.53,3.53,0,0,1,3.52,3.51"/><path class="cls-9" d="M283,120.67a3.52,3.52,0,1,1-3.52-3.51A3.53,3.53,0,0,1,283,120.67Z"/></g><text class="cls-10" transform="translate(276.01 134.78)">Y</text><text class="cls-10" transform="translate(276.01 145.19)">Y</text><text class="cls-13" transform="translate(276.01 155.59)">Y</text><text class="cls-12" transform="translate(270.54 165.99)">U</text><text class="cls-13" transform="translate(270.54 176.4)">U</text><text class="cls-13" transform="translate(270.83 186.8)">Y</text><g class="cls-2"><rect class="cls-6" x="227.68" y="200.19" width="24.87" height="7.41"/><rect class="cls-6" x="227.68" y="189.78" width="24.87" height="7.41"/><rect class="cls-6" x="227.68" y="210.8" width="24.87" height="7.41"/><line class="cls-5" x1="237.44" y1="214.5" x2="242.79" y2="214.5"/><line class="cls-5" x1="237.44" y1="204.1" x2="242.79" y2="204.1"/><line class="cls-5" x1="237.44" y1="193.7" x2="242.79" y2="193.7"/></g><text class="cls-10" transform="translate(227.97 197.93)">R</text><text class="cls-10" transform="translate(227.97 208.24)">U</text><text class="cls-10" transform="translate(245.1 207.9)">A</text><text class="cls-10" transform="translate(227.68 218.55)">R</text><text class="cls-10" transform="translate(244.82 218.21)">C</text><text class="cls-10" transform="translate(245.1 197.59)">Y</text><text class="cls-14" transform="translate(308.22 137.99)"><tspan class="cls-19">A</tspan><tspan class="cls-15" x="6.88" y="0">p</tspan><tspan class="cls-23" x="12.57" y="0">tame</tspan><tspan x="35.36" y="0">r</tspan></text><text class="cls-24" transform="translate(196.36 230.48)">P1</text><text class="cls-24" transform="translate(290.99 93.17)">P2</text><g class="cls-2"><rect class="cls-25" x="33.07" y="306.59" width="337.21" height="59.24"/></g><text class="cls-26" transform="translate(63.58 322.92)">covariation</text><g class="cls-2"><line class="cls-27" x1="69.91" y1="357.37" x2="72.21" y2="348.66"/><line class="cls-27" x1="114.81" y1="357.37" x2="117.1" y2="348.66"/><line class="cls-28" x1="41.96" y1="337.43" x2="61.05" y2="337.43"/><rect class="cls-6" x="41.96" y="316.49" width="18.83" height="7.41"/></g><text class="cls-13" transform="translate(226.39 333.71)">N</text><text class="cls-12" transform="translate(264.61 333.71)">N</text><text class="cls-10" transform="translate(300.16 333.71)">N</text><text class="cls-26" transform="translate(235.67 333.76)">97%</text><text class="cls-26" transform="translate(273.64 333.76)">90%</text><text class="cls-26" transform="translate(309.15 333.76)">75%</text><text class="cls-26" transform="translate(63.58 339.52)">variable length connector</text><text class="cls-29" transform="translate(41.45 356.18)">R</text><text class="cls-30" transform="translate(51.81 356.18) scale(1 1.05)">=</text><text class="cls-29" transform="translate(58.03 356.18)"><tspan xml:space="preserve"> A</tspan><tspan class="cls-31" x="10.32" y="0"> </tspan><tspan x="12.28" y="0" xml:space="preserve"> G</tspan></text><text class="cls-29" transform="translate(87.19 356.18)">Y</text><text class="cls-32" transform="translate(96.98 356.18) scale(1 1.05)">=</text><text class="cls-29" transform="translate(103.47 356.11)"><tspan xml:space="preserve"> C</tspan><tspan class="cls-33" x="10.32" y="0"> </tspan><tspan x="12.5" y="0" xml:space="preserve"> U</tspan></text><text class="cls-26" transform="translate(218.24 322.56)">nucleotide identity</text><text class="cls-26" transform="translate(235.67 356.99)">97%</text><text class="cls-26" transform="translate(273.64 356.99)">90%</text><text class="cls-26" transform="translate(309.15 356.99)">75%</text><text class="cls-26" transform="translate(345.4 356.99)">50%</text><g class="cls-2"><path class="cls-8" d="M233.84,353.59a3.52,3.52,0,1,1-3.51-3.52,3.51,3.51,0,0,1,3.51,3.52"/><path class="cls-9" d="M233.84,353.59a3.52,3.52,0,1,1-3.51-3.52A3.51,3.51,0,0,1,233.84,353.59Z"/><path class="cls-11" d="M272.06,353.59a3.52,3.52,0,1,1-3.52-3.52,3.51,3.51,0,0,1,3.52,3.52"/><path class="cls-9" d="M272.06,353.59a3.52,3.52,0,1,1-3.52-3.52A3.51,3.51,0,0,1,272.06,353.59Z"/></g><text class="cls-26" transform="translate(218.23 345.91)">nucleotide present</text><g class="cls-2"><path class="cls-18" d="M307.61,353.59a3.52,3.52,0,1,1-3.52-3.52,3.51,3.51,0,0,1,3.52,3.52"/><path class="cls-9" d="M307.61,353.59a3.52,3.52,0,1,1-3.52-3.52A3.51,3.51,0,0,1,307.61,353.59Z"/><path class="cls-4" d="M343.78,353.59a3.52,3.52,0,1,1-3.52-3.52,3.52,3.52,0,0,1,3.52,3.52"/><path class="cls-9" d="M343.78,353.59a3.52,3.52,0,1,1-3.52-3.52A3.52,3.52,0,0,1,343.78,353.59Z"/></g><text class="cls-34" transform="translate(186.92 76.24)"><tspan class="cls-35">po</tspan><tspan class="cls-36" x="11.21" y="0">s</tspan><tspan class="cls-35" x="16.22" y="0">sibl</tspan><tspan x="31.14" y="0">e</tspan></text><text class="cls-37" transform="translate(179 86.59)">pseudokno<tspan class="cls-38" x="49.28" y="0">t</tspan></text><text class="cls-26" transform="translate(143.55 322.56)">no covariation</text><g class="cls-2"><line class="cls-3" x1="231.67" y1="266.78" x2="231.67" y2="220.38"/><line class="cls-28" x1="248.29" y1="230.55" x2="248.29" y2="222.24"/><path class="cls-8" d="M147.4,235.43a3.52,3.52,0,1,1-3.52-3.51,3.53,3.53,0,0,1,3.52,3.51"/><path class="cls-9" d="M147.4,235.43a3.52,3.52,0,1,1-3.52-3.51A3.53,3.53,0,0,1,147.4,235.43Z"/><rect class="cls-4" x="238.41" y="225.64" width="18.93" height="64.16"/><path class="cls-11" d="M252.28,224.79a3.52,3.52,0,1,1-3.52-3.52,3.52,3.52,0,0,1,3.52,3.52"/><path class="cls-9" d="M252.28,224.79a3.52,3.52,0,1,1-3.52-3.52A3.52,3.52,0,0,1,252.28,224.79Z"/><path class="cls-11" d="M255.73,235.72a3.52,3.52,0,1,1-3.51-3.51,3.51,3.51,0,0,1,3.51,3.51"/><path class="cls-9" d="M255.73,235.72a3.52,3.52,0,1,1-3.51-3.51A3.51,3.51,0,0,1,255.73,235.72Z"/><path class="cls-8" d="M255.73,245.51a3.52,3.52,0,1,1-3.51-3.52,3.52,3.52,0,0,1,3.51,3.52"/><path class="cls-9" d="M255.73,245.51a3.52,3.52,0,1,1-3.51-3.52A3.52,3.52,0,0,1,255.73,245.51Z"/></g><text class="cls-10" transform="translate(248.11 280.42)">R</text><text class="cls-10" transform="translate(248.11 270.02)">R</text><text class="cls-10" transform="translate(248.11 259.62)">R</text><g class="cls-2"><path class="cls-8" d="M248,284.53a3.52,3.52,0,1,1-3.52-3.51,3.53,3.53,0,0,1,3.52,3.51"/><path class="cls-9" d="M248,284.53a3.52,3.52,0,1,1-3.52-3.51A3.53,3.53,0,0,1,248,284.53Z"/><line class="cls-5" x1="237.44" y1="224.91" x2="242.79" y2="224.91"/><path class="cls-11" d="M82.81,190.8a3.52,3.52,0,1,1-3.52-3.52,3.52,3.52,0,0,1,3.52,3.52"/><path class="cls-9" d="M82.81,190.8a3.52,3.52,0,1,1-3.52-3.52A3.52,3.52,0,0,1,82.81,190.8Z"/></g><text class="cls-10" transform="translate(86.71 208.24)">U</text><text class="cls-10" transform="translate(86.42 218.55)">R</text><g class="cls-2"><line class="cls-3" x1="121.6" y1="287.43" x2="97.16" y2="287.43"/><line class="cls-39" x1="96.94" y1="209.13" x2="120.24" y2="209.13"/></g><text class="cls-10" transform="translate(55.1 194.5)"><tspan class="cls-22">R</tspan><tspan x="10.11" y="0">R</tspan></text><text class="cls-10" transform="translate(86.71 197.93)">R</text><g class="cls-2"><path class="cls-4" d="M102.07,248a7,7,0,0,1-6.84,7.23H68.91a7.24,7.24,0,0,1,0-14.45H95.23a7,7,0,0,1,6.84,7.22"/><path class="cls-40" d="M102.07,248a7,7,0,0,1-6.84,7.23H68.91a7.24,7.24,0,0,1,0-14.45H95.23A7,7,0,0,1,102.07,248Z"/></g><text class="cls-41" transform="translate(66 251.39)">0-24 nt</text><g class="cls-2"><line class="cls-39" x1="96.66" y1="228.55" x2="96.66" y2="189.71"/><line class="cls-39" x1="119.96" y1="228.55" x2="119.96" y2="189.71"/></g><text class="cls-10" transform="translate(277.67 207.66)">U</text><text class="cls-10" transform="translate(277.38 218.06)">G</text><g class="cls-2"><path class="cls-8" d="M284.91,224.76a3.52,3.52,0,1,1-3.52-3.52,3.51,3.51,0,0,1,3.52,3.52"/><path class="cls-9" d="M284.91,224.76a3.52,3.52,0,1,1-3.52-3.52A3.51,3.51,0,0,1,284.91,224.76Z"/></g><text class="cls-13" transform="translate(277.67 280.48)">U</text><text class="cls-12" transform="translate(277.67 290.89)">U</text><g class="cls-2"><path class="cls-8" d="M284.91,193.4a3.52,3.52,0,1,1-3.52-3.51,3.52,3.52,0,0,1,3.52,3.51"/><path class="cls-9" d="M284.91,193.4a3.52,3.52,0,1,1-3.52-3.51A3.52,3.52,0,0,1,284.91,193.4Z"/><path class="cls-11" d="M284.75,245.47a3.52,3.52,0,1,1-3.51-3.52,3.52,3.52,0,0,1,3.51,3.52"/><path class="cls-9" d="M284.75,245.47a3.52,3.52,0,1,1-3.51-3.52A3.52,3.52,0,0,1,284.75,245.47Z"/><path class="cls-18" d="M284.64,255.7a3.52,3.52,0,1,1-3.52-3.52,3.52,3.52,0,0,1,3.52,3.52"/><path class="cls-9" d="M284.64,255.7a3.52,3.52,0,1,1-3.52-3.52A3.52,3.52,0,0,1,284.64,255.7Z"/><path class="cls-4" d="M284.68,266.34a3.52,3.52,0,1,1-3.51-3.52,3.51,3.51,0,0,1,3.51,3.52"/><path class="cls-4" d="M284.68,266.34a3.52,3.52,0,1,1-3.51-3.52,3.51,3.51,0,0,1,3.51,3.52"/><path class="cls-9" d="M284.68,266.34a3.52,3.52,0,1,1-3.51-3.52A3.51,3.51,0,0,1,284.68,266.34Z"/><path class="cls-8" d="M284.91,235.43a3.52,3.52,0,1,1-3.52-3.51,3.52,3.52,0,0,1,3.52,3.51"/><path class="cls-9" d="M284.91,235.43a3.52,3.52,0,1,1-3.52-3.51A3.52,3.52,0,0,1,284.91,235.43Z"/></g><text class="cls-12" transform="translate(285.02 298.24)">U</text><text class="cls-13" transform="translate(295.43 298.24)">U</text><text class="cls-12" transform="translate(305.83 298.24)">U</text><text class="cls-10" transform="translate(315.77 298.24)">U</text><g class="cls-2"><path class="cls-4" d="M243.9,248a7,7,0,0,1-6.84,7.23H210.74a7.24,7.24,0,0,1,0-14.45h26.32A7,7,0,0,1,243.9,248"/><path class="cls-40" d="M243.9,248a7,7,0,0,1-6.84,7.23H210.74a7.24,7.24,0,0,1,0-14.45h26.32A7,7,0,0,1,243.9,248Z"/></g><text class="cls-41" transform="translate(207.83 251.39)">0-24 nt</text><text class="cls-14" transform="translate(290.99 152.35)"><tspan class="cls-19">C</tspan><tspan class="cls-17" x="7.46" y="0">on</tspan><tspan class="cls-19" x="18.84" y="0">f</tspan><tspan class="cls-15" x="21.59" y="0">igu</tspan><tspan class="cls-19" x="35.12" y="0">rat</tspan><tspan class="cls-15" x="46.91" y="0">io</tspan><tspan x="54.75" y="0">n</tspan></text><text class="cls-42" transform="translate(44.63 200)">5<tspan class="cls-43" x="5.56" y="0">’</tspan></text><text class="cls-42" transform="translate(188.69 304.17)">3<tspan class="cls-43" x="5.56" y="0">’</tspan></text><text class="cls-42" transform="translate(326.69 304.17)">3<tspan class="cls-43" x="5.56" y="0">’</tspan></text><text class="cls-42" transform="translate(186.92 200)">5<tspan class="cls-43" x="5.56" y="0">’</tspan></text><text class="cls-44" transform="translate(4.81 19.99)">HMP-P<tspan class="cls-45" x="64.44" y="0">P</tspan><tspan x="77.42" y="0" xml:space="preserve"> Riboswitch</tspan></text></svg>