<?xml version="1.0" encoding="UTF-8"?><svg id="_图层_1" xmlns="http://www.w3.org/2000/svg" viewBox="0 0 321.38 385.48"><defs><style>.cls-1,.cls-2,.cls-3,.cls-4,.cls-5,.cls-6,.cls-7,.cls-8,.cls-9,.cls-10,.cls-11,.cls-12,.cls-13,.cls-14,.cls-15,.cls-16,.cls-17,.cls-18,.cls-19{font-family:ArialMT, Arial;}.cls-1,.cls-2,.cls-3,.cls-4,.cls-7,.cls-8,.cls-9,.cls-10,.cls-12,.cls-14,.cls-15{font-size:9.14px;isolation:isolate;}.cls-1,.cls-4,.cls-18{fill:#ffaadc;}.cls-2,.cls-4,.cls-8,.cls-9,.cls-14{letter-spacing:-.06em;}.cls-2,.cls-10,.cls-13{fill:#0a0bff;}.cls-3,.cls-6,.cls-14{fill:#80db9e;}.cls-20,.cls-21,.cls-22{stroke-width:.14px;}.cls-20,.cls-21,.cls-22,.cls-23{stroke:#000;stroke-miterlimit:1.11;}.cls-20,.cls-19{fill:#fff;}.cls-5,.cls-9,.cls-12{fill:#ffdf5c;}.cls-5,.cls-17,.cls-18{font-size:21px;}.cls-6,.cls-13,.cls-16{font-size:20px;}.cls-24{stroke:red;stroke-miterlimit:10;}.cls-24,.cls-22,.cls-23{fill:none;}.cls-25{letter-spacing:-.07em;}.cls-7,.cls-8,.cls-17{fill:#09fefe;}.cls-11{fill:#231815;font-size:14px;}.cls-26{letter-spacing:-.04em;}.cls-23{stroke-width:.61px;}.cls-27{fill:red;}.cls-19{font-size:10px;}</style></defs><g id="ID000000"><g><g id="ID000002"><text class="cls-3" transform="translate(115.96 367.03)"><tspan x="0" y="0">G</tspan></text></g><g id="ID000003"><text class="cls-3" transform="translate(115.96 358.19)"><tspan x="0" y="0">G</tspan></text></g><g id="ID000004"><text class="cls-3" transform="translate(116.22 349.34)"><tspan x="0" y="0">C</tspan></text></g><g id="ID000005"><text class="cls-3" transform="translate(116.22 340.5)"><tspan x="0" y="0">C</tspan></text></g><g id="ID000006"><text class="cls-3" transform="translate(115.96 331.66)"><tspan x="0" y="0">G</tspan></text></g><g id="ID000007"><text class="cls-14" transform="translate(116.47 322.82)"><tspan x="0" y="0">A</tspan></text></g><g id="ID000008"><text class="cls-3" transform="translate(116.22 313.97)"><tspan x="0" y="0">C</tspan></text></g><g id="ID000009"><text class="cls-3" transform="translate(115.96 305.13)"><tspan x="0" y="0">G</tspan></text></g><g id="ID000010"><text class="cls-3" transform="translate(115.96 296.29)"><tspan x="0" y="0">G</tspan></text></g><g id="ID000011"><text class="cls-14" transform="translate(116.47 287.45)"><tspan x="0" y="0">A</tspan></text></g><g id="ID000012"><line class="cls-22" x1="113.62" y1="283.47" x2="107.73" y2="283.47"/></g><g id="ID000013"><text class="cls-15" transform="translate(97.57 287.45)"><tspan x="0" y="0">10</tspan></text></g><g id="ID000014"><text class="cls-3" transform="translate(115.96 278.6)"><tspan x="0" y="0">G</tspan></text></g><g id="ID000015"><text class="cls-14" transform="translate(143 287.45)"><tspan x="0" y="0">A</tspan></text></g><g id="ID000016"><text class="cls-3" transform="translate(133.65 287.45)"><tspan x="0" y="0">G</tspan></text></g><g id="ID000017"><text class="cls-3" transform="translate(133.91 296.29)"><tspan x="0" y="0">C</tspan></text></g><g id="ID000018"><text class="cls-3" transform="translate(133.91 305.13)"><tspan x="0" y="0">C</tspan></text></g><g id="ID000019"><text class="cls-3" transform="translate(133.65 313.97)"><tspan x="0" y="0">G</tspan></text></g><g id="ID000020"><text class="cls-3" transform="translate(133.91 322.82)"><tspan x="0" y="0">U</tspan></text></g><g id="ID000021"><text class="cls-3" transform="translate(133.91 331.66)"><tspan x="0" y="0">C</tspan></text></g><g id="ID000022"><line class="cls-22" x1="143.1" y1="327.68" x2="148.99" y2="327.68"/></g><g id="ID000023"><text class="cls-15" transform="translate(148.99 331.66)"><tspan x="0" y="0">170</tspan></text></g><g id="ID000024"><text class="cls-3" transform="translate(133.65 340.5)"><tspan x="0" y="0">G</tspan></text></g><g id="ID000025"><text class="cls-3" transform="translate(133.65 349.34)"><tspan x="0" y="0">G</tspan></text></g><g id="ID000026"><text class="cls-3" transform="translate(133.91 358.19)"><tspan x="0" y="0">U</tspan></text></g><g id="ID000027"><text class="cls-3" transform="translate(133.91 367.03)"><tspan x="0" y="0">C</tspan></text></g><g id="ID000028"><line class="cls-22" x1="123.06" y1="363.05" x2="133.67" y2="363.05"/></g><g id="ID000029"><polygon class="cls-21" points="130.13 354.21 130.13 354.1 130.12 353.99 130.1 353.87 130.07 353.77 130.04 353.66 130 353.55 129.96 353.45 129.91 353.35 129.85 353.25 129.79 353.16 129.72 353.07 129.64 352.99 129.56 352.91 129.48 352.84 129.39 352.77 129.29 352.71 129.2 352.65 129.1 352.6 128.99 352.56 128.89 352.52 128.78 352.49 128.67 352.47 128.56 352.45 128.45 352.44 128.33 352.44 128.22 352.45 128.11 352.46 128 352.48 127.89 352.51 127.78 352.54 127.68 352.58 127.58 352.63 127.48 352.68 127.38 352.74 127.29 352.8 127.2 352.87 127.12 352.95 127.04 353.03 126.97 353.12 126.9 353.21 126.84 353.3 126.79 353.4 126.74 353.5 126.7 353.6 126.66 353.71 126.64 353.82 126.62 353.93 126.6 354.04 126.59 354.15 126.59 354.27 126.6 354.38 126.62 354.49 126.64 354.6 126.66 354.71 126.7 354.81 126.74 354.92 126.79 355.02 126.84 355.12 126.9 355.21 126.97 355.3 127.04 355.39 127.12 355.47 127.2 355.55 127.29 355.62 127.38 355.68 127.48 355.74 127.58 355.79 127.68 355.84 127.78 355.88 127.89 355.91 128 355.94 128.11 355.96 128.22 355.97 128.33 355.98 128.45 355.98 128.56 355.97 128.67 355.95 128.78 355.93 128.89 355.9 128.99 355.86 129.1 355.82 129.2 355.77 129.29 355.71 129.39 355.65 129.48 355.58 129.56 355.51 129.64 355.43 129.72 355.35 129.79 355.26 129.85 355.17 129.91 355.07 129.96 354.97 130 354.87 130.04 354.76 130.07 354.65 130.1 354.54 130.12 354.43 130.13 354.32 130.13 354.21"/></g><g id="ID000030"><line class="cls-22" x1="123.06" y1="345.37" x2="133.67" y2="345.37"/></g><g id="ID000031"><line class="cls-22" x1="123.06" y1="336.52" x2="133.67" y2="336.52"/></g><g id="ID000032"><line class="cls-22" x1="123.06" y1="327.68" x2="133.67" y2="327.68"/></g><g id="ID000033"><line class="cls-22" x1="123.06" y1="318.84" x2="133.67" y2="318.84"/></g><g id="ID000034"><line class="cls-22" x1="123.06" y1="310" x2="133.67" y2="310"/></g><g id="ID000035"><line class="cls-22" x1="123.06" y1="301.15" x2="133.67" y2="301.15"/></g><g id="ID000036"><line class="cls-22" x1="123.06" y1="292.31" x2="133.67" y2="292.31"/></g><g id="ID000037"><line class="cls-22" x1="123.06" y1="283.47" x2="133.67" y2="283.47"/></g><g id="ID000038"><polygon class="cls-21" points="130.13 283.47 130.13 283.35 130.12 283.24 130.1 283.13 130.07 283.02 130.04 282.91 130 282.81 129.96 282.71 129.91 282.61 129.85 282.51 129.79 282.42 129.72 282.33 129.64 282.25 129.56 282.17 129.48 282.09 129.39 282.03 129.29 281.96 129.2 281.91 129.1 281.86 128.99 281.81 128.89 281.78 128.78 281.75 128.67 281.72 128.56 281.71 128.45 281.7 128.33 281.7 128.22 281.7 128.11 281.72 128 281.74 127.89 281.76 127.78 281.79 127.68 281.84 127.58 281.88 127.48 281.93 127.38 281.99 127.29 282.06 127.2 282.13 127.12 282.21 127.04 282.29 126.97 282.37 126.9 282.46 126.84 282.56 126.79 282.66 126.74 282.76 126.7 282.86 126.66 282.97 126.64 283.08 126.62 283.19 126.6 283.3 126.59 283.41 126.59 283.52 126.6 283.63 126.62 283.75 126.64 283.86 126.66 283.96 126.7 284.07 126.74 284.18 126.79 284.28 126.84 284.38 126.9 284.47 126.97 284.56 127.04 284.65 127.12 284.73 127.2 284.8 127.29 284.87 127.38 284.94 127.48 285 127.58 285.05 127.68 285.1 127.78 285.14 127.89 285.17 128 285.2 128.11 285.22 128.22 285.23 128.33 285.23 128.45 285.23 128.56 285.22 128.67 285.21 128.78 285.18 128.89 285.15 128.99 285.12 129.1 285.08 129.2 285.03 129.29 284.97 129.39 284.91 129.48 284.84 129.56 284.77 129.64 284.69 129.72 284.6 129.79 284.51 129.85 284.42 129.91 284.33 129.96 284.23 130 284.12 130.04 284.02 130.07 283.91 130.1 283.8 130.12 283.69 130.13 283.58 130.13 283.47"/></g><g id="ID000039"><line class="cls-22" x1="123.06" y1="274.62" x2="133.67" y2="274.62"/></g><g id="ID000040"><polygon class="cls-20" points="124.29 276.39 127.83 276.39 127.83 272.86 124.29 272.86 124.29 276.39"/></g><g id="ID000041"><polygon class="cls-20" points="132.43 274.62 132.43 274.51 132.41 274.4 132.4 274.29 132.37 274.18 132.34 274.07 132.3 273.97 132.26 273.86 132.21 273.76 132.15 273.67 132.08 273.57 132.02 273.49 131.94 273.4 131.86 273.32 131.78 273.25 131.69 273.18 131.59 273.12 131.5 273.06 131.4 273.01 131.29 272.97 131.19 272.93 131.08 272.9 130.97 272.88 130.86 272.87 130.74 272.86 130.63 272.86 130.52 272.86 130.41 272.87 130.3 272.89 130.19 272.92 130.08 272.95 129.98 272.99 129.88 273.04 129.78 273.09 129.68 273.15 129.59 273.22 129.5 273.29 129.42 273.36 129.34 273.44 129.27 273.53 129.2 273.62 129.14 273.72 129.09 273.81 129.04 273.91 129 274.02 128.96 274.13 128.93 274.23 128.91 274.34 128.9 274.46 128.89 274.57 128.89 274.68 128.9 274.79 128.91 274.9 128.93 275.01 128.96 275.12 129 275.23 129.04 275.33 129.09 275.43 129.14 275.53 129.2 275.63 129.27 275.72 129.34 275.8 129.42 275.88 129.5 275.96 129.59 276.03 129.68 276.1 129.78 276.16 129.88 276.21 129.98 276.26 130.08 276.29 130.19 276.33 130.3 276.35 130.41 276.37 130.52 276.39 130.63 276.39 130.74 276.39 130.86 276.38 130.97 276.37 131.08 276.34 131.19 276.31 131.29 276.28 131.4 276.23 131.5 276.18 131.59 276.13 131.69 276.06 131.78 276 131.86 275.92 131.94 275.84 132.02 275.76 132.08 275.67 132.15 275.58 132.21 275.48 132.26 275.38 132.3 275.28 132.34 275.18 132.37 275.07 132.4 274.96 132.41 274.85 132.43 274.74 132.43 274.62"/></g><g id="ID000043"><text class="cls-1" transform="translate(202.18 258.71)"><tspan x="0" y="0">G</tspan></text></g><g id="ID000044"><text class="cls-1" transform="translate(202.18 249.86)"><tspan x="0" y="0">G</tspan></text></g><g id="ID000045"><text class="cls-1" transform="translate(202.18 241.02)"><tspan x="0" y="0">G</tspan></text></g><g id="ID000046"><text class="cls-4" transform="translate(185 241.02)"><tspan x="0" y="0">A</tspan></text></g><g id="ID000047"><text class="cls-1" transform="translate(184.75 249.86)"><tspan x="0" y="0">C</tspan></text></g><g id="ID000048"><text class="cls-1" transform="translate(184.75 258.71)"><tspan x="0" y="0">U</tspan></text></g><g id="ID000049"><line class="cls-22" x1="182.16" y1="254.73" x2="176.26" y2="254.73"/></g><g id="ID000050"><text class="cls-15" transform="translate(161.02 258.71)"><tspan x="0" y="0">140</tspan></text></g><g id="ID000051"><text class="cls-7" transform="translate(188.92 289.66)"><tspan x="0" y="0">G</tspan></text></g><g id="ID000052"><line class="cls-23" x1="261.9" y1="258.89" x2="209.26" y2="254.99"/></g><g id="ID000053"><polygon class="cls-21" points="238.32 259.8 236.95 258.37 235.52 257.82 234.06 257.49 231.17 256.61 234.16 256.17 235.65 256.06 237.15 255.72 238.72 254.51 238.32 259.8"/></g><g id="ID000054"><polygon class="cls-21" points="195.13 254.73 195.13 254.84 195.14 254.95 195.16 255.06 195.18 255.17 195.21 255.28 195.25 255.38 195.3 255.49 195.35 255.59 195.41 255.68 195.47 255.78 195.54 255.86 195.61 255.95 195.69 256.03 195.78 256.1 195.87 256.17 195.96 256.23 196.06 256.29 196.16 256.34 196.26 256.38 196.37 256.42 196.48 256.45 196.59 256.47 196.7 256.48 196.81 256.49 196.92 256.5 197.03 256.49 197.15 256.48 197.26 256.46 197.37 256.43 197.47 256.4 197.58 256.36 197.68 256.31 197.78 256.26 197.87 256.2 197.96 256.13 198.05 256.06 198.13 255.99 198.21 255.91 198.28 255.82 198.35 255.73 198.41 255.64 198.47 255.54 198.51 255.44 198.56 255.33 198.59 255.23 198.62 255.12 198.64 255.01 198.65 254.89 198.66 254.78 198.66 254.67 198.65 254.56 198.64 254.45 198.62 254.34 198.59 254.23 198.56 254.12 198.51 254.02 198.47 253.92 198.41 253.82 198.35 253.72 198.28 253.63 198.21 253.55 198.13 253.47 198.05 253.39 197.96 253.32 197.87 253.25 197.78 253.2 197.68 253.14 197.58 253.1 197.47 253.06 197.37 253.02 197.26 253 197.15 252.98 197.03 252.96 196.92 252.96 196.81 252.96 196.7 252.97 196.59 252.99 196.48 253.01 196.37 253.04 196.26 253.07 196.16 253.12 196.06 253.17 195.96 253.22 195.87 253.29 195.78 253.35 195.69 253.43 195.61 253.51 195.54 253.59 195.47 253.68 195.41 253.77 195.35 253.87 195.3 253.97 195.25 254.07 195.21 254.18 195.18 254.28 195.16 254.39 195.14 254.5 195.13 254.61 195.13 254.73"/></g><g id="ID000055"><line class="cls-22" x1="202.2" y1="245.88" x2="191.59" y2="245.88"/></g><g id="ID000056"><line class="cls-22" x1="202.2" y1="237.04" x2="191.59" y2="237.04"/></g><g id="ID000057"><polygon class="cls-21" points="195.13 237.04 195.13 237.15 195.14 237.26 195.16 237.38 195.18 237.49 195.21 237.59 195.25 237.7 195.3 237.8 195.35 237.9 195.41 238 195.47 238.09 195.54 238.18 195.61 238.26 195.69 238.34 195.78 238.41 195.87 238.48 195.96 238.54 196.06 238.6 196.16 238.65 196.26 238.69 196.37 238.73 196.48 238.76 196.59 238.78 196.7 238.8 196.81 238.81 196.92 238.81 197.03 238.8 197.15 238.79 197.26 238.77 197.37 238.75 197.47 238.71 197.58 238.67 197.68 238.63 197.78 238.57 197.87 238.51 197.96 238.45 198.05 238.38 198.13 238.3 198.21 238.22 198.28 238.13 198.35 238.04 198.41 237.95 198.47 237.85 198.51 237.75 198.56 237.65 198.59 237.54 198.62 237.43 198.64 237.32 198.65 237.21 198.66 237.1 198.66 236.98 198.65 236.87 198.64 236.76 198.62 236.65 198.59 236.54 198.56 236.44 198.51 236.33 198.47 236.23 198.41 236.13 198.35 236.04 198.28 235.95 198.21 235.86 198.13 235.78 198.05 235.7 197.96 235.63 197.87 235.57 197.78 235.51 197.68 235.46 197.58 235.41 197.47 235.37 197.37 235.34 197.26 235.31 197.15 235.29 197.03 235.28 196.92 235.27 196.81 235.27 196.7 235.28 196.59 235.3 196.48 235.32 196.37 235.35 196.26 235.39 196.16 235.43 196.06 235.48 195.96 235.54 195.87 235.6 195.78 235.67 195.69 235.74 195.61 235.82 195.54 235.9 195.47 235.99 195.41 236.08 195.35 236.18 195.3 236.28 195.25 236.38 195.21 236.49 195.18 236.6 195.16 236.71 195.14 236.82 195.13 236.93 195.13 237.04"/></g><g id="ID000058"><line class="cls-22" x1="188.94" y1="285.68" x2="178.32" y2="285.68"/></g><g id="ID000059"><polygon class="cls-21" points="181.86 285.68 181.86 285.79 181.87 285.9 181.89 286.01 181.92 286.12 181.95 286.23 181.99 286.33 182.03 286.44 182.08 286.54 182.14 286.63 182.2 286.73 182.27 286.81 182.35 286.9 182.43 286.98 182.51 287.05 182.6 287.12 182.7 287.18 182.79 287.24 182.89 287.29 183 287.33 183.1 287.37 183.21 287.4 183.32 287.42 183.43 287.44 183.55 287.44 183.66 287.45 183.77 287.44 183.88 287.43 183.99 287.41 184.1 287.38 184.21 287.35 184.31 287.31 184.41 287.26 184.51 287.21 184.61 287.15 184.7 287.08 184.79 287.01 184.87 286.94 184.95 286.86 185.02 286.77 185.09 286.68 185.15 286.59 185.2 286.49 185.25 286.39 185.29 286.28 185.33 286.18 185.35 286.07 185.38 285.96 185.39 285.85 185.4 285.73 185.4 285.62 185.39 285.51 185.38 285.4 185.35 285.29 185.33 285.18 185.29 285.07 185.25 284.97 185.2 284.87 185.15 284.77 185.09 284.67 185.02 284.58 184.95 284.5 184.87 284.42 184.79 284.34 184.7 284.27 184.61 284.2 184.51 284.15 184.41 284.09 184.31 284.05 184.21 284.01 184.1 283.97 183.99 283.95 183.88 283.93 183.77 283.91 183.66 283.91 183.55 283.91 183.43 283.92 183.32 283.94 183.21 283.96 183.1 283.99 183 284.02 182.89 284.07 182.79 284.12 182.7 284.17 182.6 284.24 182.51 284.3 182.43 284.38 182.35 284.46 182.27 284.54 182.2 284.63 182.14 284.72 182.08 284.82 182.03 284.92 181.99 285.02 181.95 285.13 181.92 285.23 181.89 285.34 181.87 285.45 181.86 285.56 181.86 285.68"/></g><g id="ID000060"><line class="cls-22" x1="189" y1="284.98" x2="140.67" y2="275.32"/></g><g id="ID000061"><polygon class="cls-20" points="169.35 281.05 166.36 278.42 165.58 282.33 169.35 281.05"/></g><g id="ID000062"><polygon class="cls-20" points="160.5 281.09 163.97 281.78 164.66 278.31 161.2 277.62 160.5 281.09"/></g><g id="ID000064"><text class="cls-1" transform="translate(202.18 232.18)"><tspan x="0" y="0">G</tspan></text></g><g id="ID000065"><text class="cls-1" transform="translate(202.18 223.33)"><tspan x="0" y="0">G</tspan></text></g><g id="ID000066"><text class="cls-1" transform="translate(202.44 214.49)"><tspan x="0" y="0">U</tspan></text></g><g id="ID000067"><text class="cls-4" transform="translate(202.69 205.65)"><tspan x="0" y="0">A</tspan></text></g><g id="ID000068"><line class="cls-22" x1="211.63" y1="201.67" x2="217.53" y2="201.67"/></g><g id="ID000069"><text class="cls-15" transform="translate(217.53 205.65)"><tspan x="0" y="0">120</tspan></text></g><g id="ID000070"><text class="cls-1" transform="translate(202.44 196.81)"><tspan x="0" y="0">U</tspan></text></g><g id="ID000071"><text class="cls-1" transform="translate(202.18 187.96)"><tspan x="0" y="0">G</tspan></text></g><g id="ID000072"><text class="cls-1" transform="translate(202.18 179.12)"><tspan x="0" y="0">G</tspan></text></g><g id="ID000073"><text class="cls-1" transform="translate(202.18 170.28)"><tspan x="0" y="0">G</tspan></text></g><g id="ID000074"><text class="cls-1" transform="translate(202.18 161.44)"><tspan x="0" y="0">G</tspan></text></g><g id="ID000075"><text class="cls-4" transform="translate(202.69 152.59)"><tspan x="0" y="0">A</tspan></text></g><g id="ID000076"><text class="cls-4" transform="translate(185 130.49)"><tspan x="0" y="0">A</tspan></text></g><g id="ID000077"><text class="cls-1" transform="translate(184.75 152.59)"><tspan x="0" y="0">U</tspan></text></g><g id="ID000078"><text class="cls-4" transform="translate(185 161.44)"><tspan x="0" y="0">A</tspan></text></g><g id="ID000079"><text class="cls-1" transform="translate(184.75 170.28)"><tspan x="0" y="0">C</tspan></text></g><g id="ID000080"><line class="cls-22" x1="182.16" y1="166.3" x2="176.26" y2="166.3"/></g><g id="ID000081"><text class="cls-15" transform="translate(161.02 170.28)"><tspan x="0" y="0">130</tspan></text></g><g id="ID000082"><text class="cls-1" transform="translate(184.75 179.12)"><tspan x="0" y="0">C</tspan></text></g><g id="ID000083"><text class="cls-1" transform="translate(184.75 187.96)"><tspan x="0" y="0">C</tspan></text></g><g id="ID000084"><text class="cls-4" transform="translate(185 196.81)"><tspan x="0" y="0">A</tspan></text></g><g id="ID000085"><text class="cls-1" transform="translate(184.75 205.65)"><tspan x="0" y="0">U</tspan></text></g><g id="ID000086"><text class="cls-4" transform="translate(185 214.49)"><tspan x="0" y="0">A</tspan></text></g><g id="ID000087"><text class="cls-1" transform="translate(184.75 223.33)"><tspan x="0" y="0">C</tspan></text></g><g id="ID000088"><text class="cls-1" transform="translate(184.75 232.18)"><tspan x="0" y="0">C</tspan></text></g><g id="ID000089"><line class="cls-22" x1="202.2" y1="228.2" x2="191.59" y2="228.2"/></g><g id="ID000090"><line class="cls-22" x1="202.2" y1="219.36" x2="191.59" y2="219.36"/></g><g id="ID000091"><line class="cls-22" x1="202.2" y1="210.51" x2="191.59" y2="210.51"/></g><g id="ID000092"><line class="cls-22" x1="202.2" y1="201.67" x2="191.59" y2="201.67"/></g><g id="ID000093"><line class="cls-22" x1="202.2" y1="192.83" x2="191.59" y2="192.83"/></g><g id="ID000094"><line class="cls-22" x1="202.2" y1="183.98" x2="191.59" y2="183.98"/></g><g id="ID000095"><line class="cls-22" x1="202.2" y1="175.14" x2="191.59" y2="175.14"/></g><g id="ID000096"><line class="cls-22" x1="202.2" y1="166.3" x2="191.59" y2="166.3"/></g><g id="ID000097"><line class="cls-22" x1="202.2" y1="157.45" x2="191.59" y2="157.45"/></g><g id="ID000098"><polygon class="cls-20" points="201.49 157.45 198.04 155.47 198.04 159.44 201.49 157.45"/></g><g id="ID000099"><polygon class="cls-20" points="192.83 159.22 196.36 159.22 196.36 155.69 192.83 155.69 192.83 159.22"/></g><g id="ID000100"><line class="cls-22" x1="140.63" y1="165.41" x2="202.31" y2="149.5"/></g><g id="ID000101"><polygon class="cls-21" points="167.53 158.47 167.56 158.58 167.6 158.68 167.65 158.79 167.7 158.89 167.75 158.98 167.82 159.08 167.89 159.16 167.96 159.25 168.04 159.33 168.13 159.4 168.22 159.47 168.31 159.53 168.41 159.59 168.51 159.64 168.61 159.68 168.72 159.72 168.83 159.75 168.93 159.77 169.05 159.79 169.16 159.8 169.27 159.8 169.38 159.79 169.49 159.78 169.6 159.76 169.71 159.74 169.82 159.7 169.93 159.66 170.03 159.62 170.13 159.56 170.22 159.5 170.31 159.44 170.4 159.37 170.48 159.29 170.56 159.21 170.63 159.12 170.7 159.03 170.76 158.94 170.81 158.84 170.86 158.74 170.91 158.64 170.94 158.53 170.97 158.42 170.99 158.31 171 158.2 171.01 158.09 171.01 157.98 171 157.86 170.99 157.75 170.97 157.64 170.94 157.53 170.91 157.43 170.87 157.32 170.82 157.22 170.76 157.12 170.7 157.03 170.64 156.94 170.56 156.85 170.49 156.77 170.4 156.69 170.32 156.62 170.23 156.56 170.13 156.5 170.03 156.45 169.93 156.4 169.82 156.36 169.72 156.33 169.61 156.3 169.5 156.28 169.39 156.27 169.27 156.26 169.16 156.26 169.05 156.27 168.94 156.29 168.83 156.31 168.72 156.34 168.62 156.38 168.51 156.42 168.41 156.47 168.31 156.53 168.22 156.59 168.13 156.66 168.05 156.73 167.97 156.81 167.89 156.89 167.82 156.98 167.76 157.07 167.7 157.17 167.65 157.27 167.6 157.37 167.56 157.48 167.53 157.58 167.51 157.69 167.49 157.8 167.48 157.92 167.48 158.03 167.48 158.14 167.49 158.25 167.51 158.36 167.53 158.47"/></g><g id="ID000102"><polygon class="cls-21" points="174.97 154.73 171.54 155.61 172.43 159.03 175.85 158.15 174.97 154.73"/></g><g id="ID000103"><line class="cls-22" x1="139.76" y1="172.7" x2="185.49" y2="128.95"/></g><g id="ID000104"><polygon class="cls-20" points="159.31 154 163.17 153.06 160.42 150.18 159.31 154"/></g><g id="ID000105"><polygon class="cls-20" points="165.57 148.01 165.49 147.93 165.4 147.86 165.31 147.79 165.22 147.73 165.12 147.67 165.02 147.62 164.92 147.58 164.81 147.54 164.7 147.51 164.59 147.49 164.48 147.48 164.37 147.47 164.26 147.47 164.15 147.47 164.03 147.48 163.92 147.5 163.81 147.53 163.71 147.56 163.6 147.6 163.5 147.65 163.4 147.7 163.31 147.76 163.22 147.83 163.13 147.9 163.05 147.97 162.97 148.06 162.9 148.14 162.83 148.23 162.77 148.33 162.72 148.43 162.67 148.53 162.63 148.63 162.59 148.74 162.56 148.85 162.54 148.96 162.53 149.07 162.52 149.18 162.52 149.29 162.53 149.4 162.54 149.52 162.56 149.63 162.59 149.73 162.63 149.84 162.67 149.95 162.72 150.05 162.77 150.14 162.83 150.24 162.9 150.33 162.97 150.41 163.05 150.5 163.13 150.57 163.22 150.64 163.31 150.71 163.41 150.77 163.51 150.82 163.61 150.87 163.71 150.91 163.82 150.94 163.93 150.97 164.04 150.98 164.15 151 164.26 151 164.38 151 164.49 150.99 164.6 150.97 164.71 150.95 164.82 150.92 164.92 150.88 165.03 150.84 165.13 150.79 165.22 150.73 165.32 150.67 165.41 150.6 165.49 150.53 165.57 150.45 165.65 150.37 165.71 150.28 165.78 150.19 165.84 150.09 165.89 149.99 165.93 149.89 165.97 149.78 166 149.67 166.03 149.57 166.04 149.46 166.05 149.34 166.06 149.23 166.05 149.12 166.04 149.01 166.02 148.9 166 148.79 165.97 148.68 165.93 148.57 165.88 148.47 165.83 148.37 165.77 148.28 165.71 148.18 165.64 148.1 165.57 148.01"/></g><g id="ID000106"><line class="cls-22" x1="188.05" y1="130.04" x2="188.05" y2="145.07"/></g><g id="ID000107"><polygon class="cls-21" points="188.05 132.96 186.06 136.41 190.04 136.41 188.05 132.96"/></g><g id="ID000108"><polygon class="cls-21" points="188.05 141.63 188.16 141.62 188.27 141.61 188.39 141.59 188.5 141.57 188.6 141.54 188.71 141.5 188.81 141.45 188.91 141.4 189.01 141.35 189.1 141.28 189.19 141.21 189.27 141.14 189.35 141.06 189.42 140.97 189.49 140.88 189.55 140.79 189.61 140.69 189.66 140.59 189.7 140.49 189.74 140.38 189.77 140.27 189.79 140.16 189.81 140.05 189.82 139.94 189.82 139.83 189.81 139.72 189.8 139.61 189.78 139.5 189.76 139.39 189.72 139.28 189.68 139.17 189.64 139.07 189.58 138.97 189.52 138.88 189.46 138.79 189.39 138.7 189.31 138.62 189.23 138.54 189.14 138.47 189.05 138.4 188.96 138.34 188.86 138.29 188.76 138.24 188.66 138.2 188.55 138.16 188.44 138.13 188.33 138.11 188.22 138.1 188.11 138.09 187.99 138.09 187.88 138.1 187.77 138.11 187.66 138.13 187.55 138.16 187.45 138.2 187.34 138.24 187.24 138.29 187.14 138.34 187.05 138.4 186.96 138.47 186.87 138.54 186.79 138.62 186.71 138.7 186.64 138.79 186.58 138.88 186.52 138.97 186.47 139.07 186.42 139.17 186.38 139.28 186.35 139.39 186.32 139.5 186.3 139.61 186.29 139.72 186.28 139.83 186.28 139.94 186.29 140.05 186.31 140.16 186.33 140.27 186.36 140.38 186.4 140.49 186.44 140.59 186.49 140.69 186.55 140.79 186.61 140.88 186.68 140.97 186.75 141.06 186.83 141.14 186.91 141.21 187 141.28 187.09 141.35 187.19 141.4 187.29 141.45 187.39 141.5 187.5 141.54 187.61 141.57 187.72 141.59 187.83 141.61 187.94 141.62 188.05 141.63"/></g><g id="ID000110"><text class="cls-10" transform="translate(115.96 267.55)"><tspan x="0" y="0">G</tspan></text></g><g id="ID000111"><text class="cls-10" transform="translate(107.38 263.13)"><tspan x="0" y="0">C</tspan></text></g><g id="ID000112"><text class="cls-10" transform="translate(115.96 258.71)"><tspan x="0" y="0">G</tspan></text></g><g id="ID000113"><text class="cls-10" transform="translate(116.22 249.86)"><tspan x="0" y="0">C</tspan></text></g><g id="ID000114"><text class="cls-10" transform="translate(115.96 241.02)"><tspan x="0" y="0">G</tspan></text></g><g id="ID000115"><text class="cls-10" transform="translate(116.22 232.18)"><tspan x="0" y="0">C</tspan></text></g><g id="ID000116"><text class="cls-10" transform="translate(116.22 223.33)"><tspan x="0" y="0">C</tspan></text></g><g id="ID000117"><text class="cls-10" transform="translate(116.22 214.49)"><tspan x="0" y="0">C</tspan></text></g><g id="ID000118"><text class="cls-10" transform="translate(115.96 205.65)"><tspan x="0" y="0">G</tspan></text></g><g id="ID000119"><line class="cls-22" x1="113.62" y1="201.67" x2="107.73" y2="201.67"/></g><g id="ID000120"><text class="cls-15" transform="translate(97.57 205.65)"><tspan x="0" y="0">20</tspan></text></g><g id="ID000121"><text class="cls-2" transform="translate(116.47 196.81)"><tspan x="0" y="0">A</tspan></text></g><g id="ID000122"><text class="cls-10" transform="translate(115.96 187.96)"><tspan x="0" y="0">G</tspan></text></g><g id="ID000123"><text class="cls-2" transform="translate(116.47 179.12)"><tspan x="0" y="0">A</tspan></text></g><g id="ID000124"><text class="cls-10" transform="translate(116.22 170.28)"><tspan x="0" y="0">U</tspan></text></g><g id="ID000125"><text class="cls-10" transform="translate(133.65 170.28)"><tspan x="0" y="0">G</tspan></text></g><g id="ID000126"><text class="cls-10" transform="translate(133.65 179.12)"><tspan x="0" y="0">G</tspan></text></g><g id="ID000127"><text class="cls-10" transform="translate(133.91 187.96)"><tspan x="0" y="0">C</tspan></text></g><g id="ID000128"><line class="cls-22" x1="143.1" y1="183.98" x2="148.99" y2="183.98"/></g><g id="ID000129"><text class="cls-15" transform="translate(148.99 187.96)"><tspan x="0" y="0">70</tspan></text></g><g id="ID000130"><text class="cls-10" transform="translate(133.65 196.81)"><tspan x="0" y="0">G</tspan></text></g><g id="ID000131"><text class="cls-2" transform="translate(134.16 205.65)"><tspan x="0" y="0">A</tspan></text></g><g id="ID000132"><text class="cls-10" transform="translate(133.65 214.49)"><tspan x="0" y="0">G</tspan></text></g><g id="ID000133"><text class="cls-10" transform="translate(133.65 223.33)"><tspan x="0" y="0">G</tspan></text></g><g id="ID000134"><text class="cls-10" transform="translate(133.65 232.18)"><tspan x="0" y="0">G</tspan></text></g><g id="ID000135"><text class="cls-10" transform="translate(133.91 241.02)"><tspan x="0" y="0">C</tspan></text></g><g id="ID000136"><text class="cls-10" transform="translate(133.65 249.86)"><tspan x="0" y="0">G</tspan></text></g><g id="ID000137"><text class="cls-10" transform="translate(133.91 258.71)"><tspan x="0" y="0">C</tspan></text></g><g id="ID000138"><text class="cls-10" transform="translate(133.91 267.55)"><tspan x="0" y="0">C</tspan></text></g><g id="ID000139"><text class="cls-12" transform="translate(279.56 280.81)"><tspan x="0" y="0">G</tspan></text></g><g id="ID000140"><line class="cls-22" x1="289.01" y1="276.83" x2="294.9" y2="276.83"/></g><g id="ID000141"><text class="cls-15" transform="translate(294.9 280.81)"><tspan x="0" y="0">80</tspan></text></g><g id="ID000142"><line class="cls-22" x1="123.06" y1="263.57" x2="133.67" y2="263.57"/></g><g id="ID000143"><polygon class="cls-21" points="130.13 263.57 130.13 263.46 130.12 263.35 130.1 263.24 130.07 263.13 130.04 263.02 130 262.91 129.96 262.81 129.91 262.71 129.85 262.61 129.79 262.52 129.72 262.43 129.64 262.35 129.56 262.27 129.48 262.2 129.39 262.13 129.29 262.07 129.2 262.01 129.1 261.96 128.99 261.92 128.89 261.88 128.78 261.85 128.67 261.83 128.56 261.81 128.45 261.8 128.33 261.8 128.22 261.81 128.11 261.82 128 261.84 127.89 261.87 127.78 261.9 127.68 261.94 127.58 261.99 127.48 262.04 127.38 262.1 127.29 262.16 127.2 262.23 127.12 262.31 127.04 262.39 126.97 262.48 126.9 262.57 126.84 262.66 126.79 262.76 126.74 262.86 126.7 262.97 126.66 263.07 126.64 263.18 126.62 263.29 126.6 263.4 126.59 263.51 126.59 263.63 126.6 263.74 126.62 263.85 126.64 263.96 126.66 264.07 126.7 264.17 126.74 264.28 126.79 264.38 126.84 264.48 126.9 264.57 126.97 264.66 127.04 264.75 127.12 264.83 127.2 264.91 127.29 264.98 127.38 265.04 127.48 265.1 127.58 265.15 127.68 265.2 127.78 265.24 127.89 265.27 128 265.3 128.11 265.32 128.22 265.33 128.33 265.34 128.45 265.34 128.56 265.33 128.67 265.31 128.78 265.29 128.89 265.26 128.99 265.22 129.1 265.18 129.2 265.13 129.29 265.07 129.39 265.01 129.48 264.94 129.56 264.87 129.64 264.79 129.72 264.71 129.79 264.62 129.85 264.53 129.91 264.43 129.96 264.33 130 264.23 130.04 264.12 130.07 264.01 130.1 263.9 130.12 263.79 130.13 263.68 130.13 263.57"/></g><g id="ID000144"><line class="cls-22" x1="123.06" y1="254.73" x2="133.67" y2="254.73"/></g><g id="ID000145"><line class="cls-22" x1="123.04" y1="255.01" x2="279.59" y2="267.71"/></g><g id="ID000146"><polygon class="cls-20" points="203.61 261.54 200.33 259.28 200.01 263.25 203.61 261.54"/></g><g id="ID000147"><line class="cls-22" x1="123.06" y1="245.88" x2="133.67" y2="245.88"/></g><g id="ID000148"><line class="cls-22" x1="123.06" y1="237.04" x2="133.67" y2="237.04"/></g><g id="ID000149"><line class="cls-22" x1="123.06" y1="228.2" x2="133.67" y2="228.2"/></g><g id="ID000150"><line class="cls-22" x1="123.06" y1="219.36" x2="133.67" y2="219.36"/></g><g id="ID000151"><line class="cls-22" x1="123.06" y1="210.51" x2="133.67" y2="210.51"/></g><g id="ID000152"><line class="cls-22" x1="123.06" y1="201.67" x2="133.67" y2="201.67"/></g><g id="ID000153"><polygon class="cls-20" points="123.76 201.67 127.21 203.66 127.21 199.68 123.76 201.67"/></g><g id="ID000154"><polygon class="cls-20" points="132.43 199.9 128.89 199.9 128.89 203.44 132.43 203.44 132.43 199.9"/></g><g id="ID000155"><line class="cls-22" x1="123.06" y1="192.83" x2="133.67" y2="192.83"/></g><g id="ID000156"><polygon class="cls-20" points="124.29 194.6 127.83 194.6 127.83 191.06 124.29 191.06 124.29 194.6"/></g><g id="ID000157"><polygon class="cls-20" points="132.96 192.83 129.51 190.84 129.51 194.82 132.96 192.83"/></g><g id="ID000158"><line class="cls-22" x1="123.06" y1="183.98" x2="133.67" y2="183.98"/></g><g id="ID000159"><polygon class="cls-21" points="130.13 183.98 130.13 183.87 130.12 183.76 130.1 183.65 130.07 183.54 130.04 183.43 130 183.33 129.96 183.22 129.91 183.12 129.85 183.03 129.79 182.93 129.72 182.85 129.64 182.76 129.56 182.68 129.48 182.61 129.39 182.54 129.29 182.48 129.2 182.42 129.1 182.38 128.99 182.33 128.89 182.29 128.78 182.26 128.67 182.24 128.56 182.23 128.45 182.22 128.33 182.22 128.22 182.22 128.11 182.23 128 182.25 127.89 182.28 127.78 182.31 127.68 182.35 127.58 182.4 127.48 182.45 127.38 182.51 127.29 182.58 127.2 182.65 127.12 182.72 127.04 182.8 126.97 182.89 126.9 182.98 126.84 183.08 126.79 183.17 126.74 183.27 126.7 183.38 126.66 183.49 126.64 183.59 126.62 183.7 126.6 183.82 126.59 183.93 126.59 184.04 126.6 184.15 126.62 184.26 126.64 184.37 126.66 184.48 126.7 184.59 126.74 184.69 126.79 184.79 126.84 184.89 126.9 184.99 126.97 185.08 127.04 185.16 127.12 185.24 127.2 185.32 127.29 185.39 127.38 185.46 127.48 185.52 127.58 185.57 127.68 185.62 127.78 185.65 127.89 185.69 128 185.71 128.11 185.73 128.22 185.75 128.33 185.75 128.45 185.75 128.56 185.74 128.67 185.73 128.78 185.7 128.89 185.67 128.99 185.64 129.1 185.59 129.2 185.54 129.29 185.49 129.39 185.42 129.48 185.36 129.56 185.28 129.64 185.2 129.72 185.12 129.79 185.03 129.85 184.94 129.91 184.84 129.96 184.74 130 184.64 130.04 184.54 130.07 184.43 130.1 184.32 130.12 184.21 130.13 184.1 130.13 183.98"/></g><g id="ID000160"><line class="cls-22" x1="123.06" y1="175.14" x2="133.67" y2="175.14"/></g><g id="ID000161"><polygon class="cls-21" points="130.13 175.14 130.13 175.03 130.12 174.92 130.1 174.81 130.07 174.7 130.04 174.59 130 174.48 129.96 174.38 129.91 174.28 129.85 174.18 129.79 174.09 129.72 174 129.64 173.92 129.56 173.84 129.48 173.77 129.39 173.7 129.29 173.64 129.2 173.58 129.1 173.53 128.99 173.49 128.89 173.45 128.78 173.42 128.67 173.4 128.56 173.38 128.45 173.37 128.33 173.37 128.22 173.38 128.11 173.39 128 173.41 127.89 173.44 127.78 173.47 127.68 173.51 127.58 173.56 127.48 173.61 127.38 173.67 127.29 173.73 127.2 173.8 127.12 173.88 127.04 173.96 126.97 174.05 126.9 174.14 126.84 174.23 126.79 174.33 126.74 174.43 126.7 174.54 126.66 174.64 126.64 174.75 126.62 174.86 126.6 174.97 126.59 175.09 126.59 175.2 126.6 175.31 126.62 175.42 126.64 175.53 126.66 175.64 126.7 175.75 126.74 175.85 126.79 175.95 126.84 176.05 126.9 176.14 126.97 176.23 127.04 176.32 127.12 176.4 127.2 176.48 127.29 176.55 127.38 176.61 127.48 176.67 127.58 176.73 127.68 176.77 127.78 176.81 127.89 176.85 128 176.87 128.11 176.89 128.22 176.9 128.33 176.91 128.45 176.91 128.56 176.9 128.67 176.88 128.78 176.86 128.89 176.83 128.99 176.79 129.1 176.75 129.2 176.7 129.29 176.64 129.39 176.58 129.48 176.51 129.56 176.44 129.64 176.36 129.72 176.28 129.79 176.19 129.85 176.1 129.91 176 129.96 175.9 130 175.8 130.04 175.69 130.07 175.58 130.1 175.48 130.12 175.37 130.13 175.25 130.13 175.14"/></g><g id="ID000163"><text class="cls-7" transform="translate(189.18 298.5)"><tspan x="0" y="0">U</tspan></text></g><g id="ID000164"><text class="cls-7" transform="translate(189.18 307.34)"><tspan x="0" y="0">C</tspan></text></g><g id="ID000165"><text class="cls-8" transform="translate(189.43 316.18)"><tspan x="0" y="0">A</tspan></text></g><g id="ID000166"><text class="cls-7" transform="translate(189.18 325.03)"><tspan x="0" y="0">C</tspan></text></g><g id="ID000167"><text class="cls-7" transform="translate(188.92 333.87)"><tspan x="0" y="0">G</tspan></text></g><g id="ID000168"><text class="cls-7" transform="translate(188.92 342.71)"><tspan x="0" y="0">G</tspan></text></g><g id="ID000169"><text class="cls-8" transform="translate(189.43 351.56)"><tspan x="0" y="0">A</tspan></text></g><g id="ID000170"><text class="cls-7" transform="translate(188.92 360.4)"><tspan x="0" y="0">G</tspan></text></g><g id="ID000171"><text class="cls-7" transform="translate(188.92 369.24)"><tspan x="0" y="0">G</tspan></text></g><g id="ID000172"><line class="cls-22" x1="198.37" y1="365.26" x2="204.26" y2="365.26"/></g><g id="ID000173"><text class="cls-15" transform="translate(204.26 369.24)"><tspan x="0" y="0">150</tspan></text></g><g id="ID000174"><text class="cls-7" transform="translate(184.75 378.08)"><tspan x="0" y="0">U</tspan></text></g><g id="ID000175"><text class="cls-7" transform="translate(175.91 378.08)"><tspan x="0" y="0">C</tspan></text></g><g id="ID000176"><text class="cls-7" transform="translate(171.49 369.24)"><tspan x="0" y="0">U</tspan></text></g><g id="ID000177"><text class="cls-7" transform="translate(171.49 360.4)"><tspan x="0" y="0">C</tspan></text></g><g id="ID000178"><text class="cls-7" transform="translate(171.49 351.56)"><tspan x="0" y="0">U</tspan></text></g><g id="ID000179"><text class="cls-7" transform="translate(171.49 342.71)"><tspan x="0" y="0">C</tspan></text></g><g id="ID000180"><text class="cls-7" transform="translate(171.49 333.87)"><tspan x="0" y="0">C</tspan></text></g><g id="ID000181"><text class="cls-7" transform="translate(171.23 325.03)"><tspan x="0" y="0">G</tspan></text></g><g id="ID000182"><text class="cls-7" transform="translate(171.49 316.18)"><tspan x="0" y="0">U</tspan></text></g><g id="ID000183"><text class="cls-7" transform="translate(171.23 307.34)"><tspan x="0" y="0">G</tspan></text></g><g id="ID000184"><line class="cls-22" x1="168.89" y1="303.36" x2="163" y2="303.36"/></g><g id="ID000185"><text class="cls-15" transform="translate(147.75 307.34)"><tspan x="0" y="0">160</tspan></text></g><g id="ID000186"><text class="cls-7" transform="translate(171.23 298.5)"><tspan x="0" y="0">G</tspan></text></g><g id="ID000187"><text class="cls-8" transform="translate(171.74 289.66)"><tspan x="0" y="0">A</tspan></text></g><g id="ID000188"><text class="cls-3" transform="translate(133.65 278.6)"><tspan x="0" y="0">G</tspan></text></g><g id="ID000189"><polygon class="cls-21" points="181.86 294.52 181.86 294.63 181.87 294.74 181.89 294.85 181.92 294.96 181.95 295.07 181.99 295.18 182.03 295.28 182.08 295.38 182.14 295.48 182.2 295.57 182.27 295.66 182.35 295.74 182.43 295.82 182.51 295.89 182.6 295.96 182.7 296.02 182.79 296.08 182.89 296.13 183 296.17 183.1 296.21 183.21 296.24 183.32 296.26 183.43 296.28 183.55 296.29 183.66 296.29 183.77 296.28 183.88 296.27 183.99 296.25 184.1 296.22 184.21 296.19 184.31 296.15 184.41 296.1 184.51 296.05 184.61 295.99 184.7 295.93 184.79 295.86 184.87 295.78 184.95 295.7 185.02 295.61 185.09 295.52 185.15 295.43 185.2 295.33 185.25 295.23 185.29 295.13 185.33 295.02 185.35 294.91 185.38 294.8 185.39 294.69 185.4 294.58 185.4 294.46 185.39 294.35 185.38 294.24 185.35 294.13 185.33 294.02 185.29 293.92 185.25 293.81 185.2 293.71 185.15 293.61 185.09 293.52 185.02 293.43 184.95 293.34 184.87 293.26 184.79 293.18 184.7 293.11 184.61 293.05 184.51 292.99 184.41 292.94 184.31 292.89 184.21 292.85 184.1 292.82 183.99 292.79 183.88 292.77 183.77 292.76 183.66 292.75 183.55 292.75 183.43 292.76 183.32 292.78 183.21 292.8 183.1 292.83 183 292.87 182.89 292.91 182.79 292.96 182.7 293.02 182.6 293.08 182.51 293.15 182.43 293.22 182.35 293.3 182.27 293.38 182.2 293.47 182.14 293.56 182.08 293.66 182.03 293.76 181.99 293.86 181.95 293.97 181.92 294.08 181.89 294.19 181.87 294.3 181.86 294.41 181.86 294.52"/></g><g id="ID000190"><line class="cls-22" x1="188.94" y1="303.36" x2="178.32" y2="303.36"/></g><g id="ID000191"><line class="cls-22" x1="188.94" y1="312.21" x2="178.32" y2="312.21"/></g><g id="ID000192"><line class="cls-22" x1="188.94" y1="321.05" x2="178.32" y2="321.05"/></g><g id="ID000193"><line class="cls-22" x1="188.94" y1="329.89" x2="178.32" y2="329.89"/></g><g id="ID000194"><line class="cls-22" x1="188.94" y1="338.73" x2="178.32" y2="338.73"/></g><g id="ID000195"><line class="cls-22" x1="188.94" y1="347.58" x2="178.32" y2="347.58"/></g><g id="ID000196"><line class="cls-22" x1="188.94" y1="356.42" x2="178.32" y2="356.42"/></g><g id="ID000198"><text class="cls-10" transform="translate(115.96 159.22)"><tspan x="0" y="0">G</tspan></text></g><g id="ID000199"><text class="cls-2" transform="translate(116.47 150.38)"><tspan x="0" y="0">A</tspan></text></g><g id="ID000200"><text class="cls-10" transform="translate(104.91 148.17)"><tspan x="0" y="0">G</tspan></text></g><g id="ID000201"><text class="cls-10" transform="translate(116.22 139.33)"><tspan x="0" y="0">U</tspan></text></g><g id="ID000202"><text class="cls-2" transform="translate(116.47 130.49)"><tspan x="0" y="0">A</tspan></text></g><g id="ID000203"><text class="cls-10" transform="translate(115.96 121.64)"><tspan x="0" y="0">G</tspan></text></g><g id="ID000204"><line class="cls-22" x1="113.62" y1="117.66" x2="107.73" y2="117.66"/></g><g id="ID000205"><text class="cls-15" transform="translate(97.57 121.64)"><tspan x="0" y="0">30</tspan></text></g><g id="ID000206"><text class="cls-10" transform="translate(115.96 112.8)"><tspan x="0" y="0">G</tspan></text></g><g id="ID000207"><text class="cls-10" transform="translate(116.22 103.95)"><tspan x="0" y="0">C</tspan></text></g><g id="ID000208"><text class="cls-10" transform="translate(116.22 95.11)"><tspan x="0" y="0">U</tspan></text></g><g id="ID000209"><text class="cls-10" transform="translate(115.96 86.27)"><tspan x="0" y="0">G</tspan></text></g><g id="ID000210"><text class="cls-10" transform="translate(116.22 77.43)"><tspan x="0" y="0">U</tspan></text></g><g id="ID000211"><text class="cls-10" transform="translate(116.22 68.58)"><tspan x="0" y="0">C</tspan></text></g><g id="ID000212"><text class="cls-10" transform="translate(116.22 59.74)"><tspan x="0" y="0">C</tspan></text></g><g id="ID000213"><text class="cls-10" transform="translate(116.22 50.9)"><tspan x="0" y="0">C</tspan></text></g><g id="ID000214"><text class="cls-2" transform="translate(116.47 42.06)"><tspan x="0" y="0">A</tspan></text></g><g id="ID000215"><text class="cls-10" transform="translate(116.22 33.21)"><tspan x="0" y="0">U</tspan></text></g><g id="ID000216"><line class="cls-22" x1="113.62" y1="29.23" x2="107.73" y2="29.23"/></g><g id="ID000217"><text class="cls-15" transform="translate(97.57 33.21)"><tspan x="0" y="0">40</tspan></text></g><g id="ID000218"><text class="cls-10" transform="translate(116.22 22.16)"><tspan x="0" y="0">C</tspan></text></g><g id="ID000219"><text class="cls-10" transform="translate(133.91 22.16)"><tspan x="0" y="0">U</tspan></text></g><g id="ID000220"><text class="cls-10" transform="translate(133.91 33.21)"><tspan x="0" y="0">C</tspan></text></g><g id="ID000221"><text class="cls-10" transform="translate(133.65 42.06)"><tspan x="0" y="0">G</tspan></text></g><g id="ID000222"><text class="cls-10" transform="translate(133.65 50.9)"><tspan x="0" y="0">G</tspan></text></g><g id="ID000223"><text class="cls-10" transform="translate(133.65 59.74)"><tspan x="0" y="0">G</tspan></text></g><g id="ID000224"><text class="cls-10" transform="translate(133.65 68.58)"><tspan x="0" y="0">G</tspan></text></g><g id="ID000225"><text class="cls-2" transform="translate(134.16 77.43)"><tspan x="0" y="0">A</tspan></text></g><g id="ID000226"><text class="cls-10" transform="translate(133.91 86.27)"><tspan x="0" y="0">C</tspan></text></g><g id="ID000227"><text class="cls-10" transform="translate(133.65 95.11)"><tspan x="0" y="0">G</tspan></text></g><g id="ID000228"><line class="cls-22" x1="143.1" y1="91.13" x2="148.99" y2="91.13"/></g><g id="ID000229"><text class="cls-15" transform="translate(148.99 95.11)"><tspan x="0" y="0">60</tspan></text></g><g id="ID000230"><text class="cls-10" transform="translate(133.65 103.95)"><tspan x="0" y="0">G</tspan></text></g><g id="ID000231"><text class="cls-10" transform="translate(133.91 112.8)"><tspan x="0" y="0">C</tspan></text></g><g id="ID000232"><text class="cls-10" transform="translate(133.91 121.64)"><tspan x="0" y="0">U</tspan></text></g><g id="ID000233"><text class="cls-10" transform="translate(133.65 130.49)"><tspan x="0" y="0">G</tspan></text></g><g id="ID000234"><text class="cls-2" transform="translate(134.16 139.33)"><tspan x="0" y="0">A</tspan></text></g><g id="ID000235"><text class="cls-2" transform="translate(134.16 150.38)"><tspan x="0" y="0">A</tspan></text></g><g id="ID000236"><text class="cls-2" transform="translate(134.16 159.22)"><tspan x="0" y="0">A</tspan></text></g><g id="ID000237"><line class="cls-22" x1="123.06" y1="155.24" x2="133.67" y2="155.24"/></g><g id="ID000238"><polygon class="cls-20" points="123.76 155.24 127.21 157.23 127.21 153.26 123.76 155.24"/></g><g id="ID000239"><polygon class="cls-20" points="132.43 153.48 128.89 153.48 128.89 157.01 132.43 157.01 132.43 153.48"/></g><g id="ID000240"><line class="cls-22" x1="123.06" y1="146.4" x2="133.67" y2="146.4"/></g><g id="ID000241"><polygon class="cls-20" points="130.13 144.63 126.59 144.63 126.59 148.17 130.13 148.17 130.13 144.63"/></g><g id="ID000242"><line class="cls-22" x1="111.23" y1="141.98" x2="116.76" y2="137.56"/></g><g id="ID000243"><polygon class="cls-21" points="110.4 142.64 114.34 142.04 111.85 138.93 110.4 142.64"/></g><g id="ID000244"><polygon class="cls-21" points="116.06 135.85 113.3 138.06 115.51 140.82 118.27 138.61 116.06 135.85"/></g><g id="ID000245"><line class="cls-22" x1="123.06" y1="135.35" x2="133.67" y2="135.35"/></g><g id="ID000246"><polygon class="cls-20" points="124.29 135.35 124.3 135.46 124.31 135.57 124.33 135.68 124.35 135.79 124.38 135.9 124.42 136.01 124.47 136.11 124.52 136.21 124.57 136.3 124.64 136.4 124.71 136.48 124.78 136.57 124.86 136.65 124.95 136.72 125.04 136.79 125.13 136.85 125.23 136.91 125.33 136.96 125.43 137 125.54 137.04 125.65 137.07 125.75 137.09 125.87 137.11 125.98 137.11 126.09 137.12 126.2 137.11 126.31 137.1 126.42 137.08 126.53 137.05 126.64 137.02 126.75 136.98 126.85 136.93 126.95 136.88 127.04 136.82 127.13 136.76 127.22 136.68 127.3 136.61 127.38 136.53 127.45 136.44 127.52 136.35 127.58 136.26 127.63 136.16 127.68 136.06 127.72 135.95 127.76 135.85 127.79 135.74 127.81 135.63 127.82 135.52 127.83 135.4 127.83 135.29 127.82 135.18 127.81 135.07 127.79 134.96 127.76 134.85 127.72 134.74 127.68 134.64 127.63 134.54 127.58 134.44 127.52 134.35 127.45 134.25 127.38 134.17 127.3 134.09 127.22 134.01 127.13 133.94 127.04 133.88 126.95 133.82 126.85 133.76 126.75 133.72 126.64 133.68 126.53 133.64 126.42 133.62 126.31 133.6 126.2 133.58 126.09 133.58 125.98 133.58 125.87 133.59 125.75 133.61 125.65 133.63 125.54 133.66 125.43 133.7 125.33 133.74 125.23 133.79 125.13 133.85 125.04 133.91 124.95 133.98 124.86 134.05 124.78 134.13 124.71 134.21 124.64 134.3 124.57 134.39 124.52 134.49 124.47 134.59 124.42 134.69 124.38 134.8 124.35 134.9 124.33 135.01 124.31 135.12 124.3 135.24 124.29 135.35"/></g><g id="ID000247"><polygon class="cls-20" points="132.43 133.58 128.89 133.58 128.89 137.12 132.43 137.12 132.43 133.58"/></g><g id="ID000248"><line class="cls-22" x1="123.06" y1="126.51" x2="133.67" y2="126.51"/></g><g id="ID000249"><polygon class="cls-20" points="124.29 128.27 127.83 128.27 127.83 124.74 124.29 124.74 124.29 128.27"/></g><g id="ID000250"><polygon class="cls-20" points="132.96 126.51 129.51 124.52 129.51 128.49 132.96 126.51"/></g><g id="ID000251"><polygon class="cls-21" points="130.13 117.66 130.13 117.55 130.12 117.44 130.1 117.33 130.07 117.22 130.04 117.11 130 117 129.96 116.9 129.91 116.8 129.85 116.71 129.79 116.61 129.72 116.53 129.64 116.44 129.56 116.36 129.48 116.29 129.39 116.22 129.29 116.16 129.2 116.1 129.1 116.05 128.99 116.01 128.89 115.97 128.78 115.94 128.67 115.92 128.56 115.9 128.45 115.9 128.33 115.89 128.22 115.9 128.11 115.91 128 115.93 127.89 115.96 127.78 115.99 127.68 116.03 127.58 116.08 127.48 116.13 127.38 116.19 127.29 116.25 127.2 116.33 127.12 116.4 127.04 116.48 126.97 116.57 126.9 116.66 126.84 116.75 126.79 116.85 126.74 116.95 126.7 117.06 126.66 117.16 126.64 117.27 126.62 117.38 126.6 117.49 126.59 117.61 126.59 117.72 126.6 117.83 126.62 117.94 126.64 118.05 126.66 118.16 126.7 118.27 126.74 118.37 126.79 118.47 126.84 118.57 126.9 118.67 126.97 118.76 127.04 118.84 127.12 118.92 127.2 119 127.29 119.07 127.38 119.13 127.48 119.19 127.58 119.25 127.68 119.29 127.78 119.33 127.89 119.37 128 119.39 128.11 119.41 128.22 119.43 128.33 119.43 128.45 119.43 128.56 119.42 128.67 119.4 128.78 119.38 128.89 119.35 128.99 119.31 129.1 119.27 129.2 119.22 129.29 119.16 129.39 119.1 129.48 119.03 129.56 118.96 129.64 118.88 129.72 118.8 129.79 118.71 129.85 118.62 129.91 118.52 129.96 118.42 130 118.32 130.04 118.21 130.07 118.11 130.1 118 130.12 117.89 130.13 117.77 130.13 117.66"/></g><g id="ID000252"><line class="cls-22" x1="123.06" y1="108.82" x2="133.67" y2="108.82"/></g><g id="ID000253"><line class="cls-22" x1="123.06" y1="99.98" x2="133.67" y2="99.98"/></g><g id="ID000254"><polygon class="cls-21" points="130.13 91.13 130.13 91.02 130.12 90.91 130.1 90.8 130.07 90.69 130.04 90.58 130 90.48 129.96 90.37 129.91 90.27 129.85 90.18 129.79 90.08 129.72 90 129.64 89.91 129.56 89.83 129.48 89.76 129.39 89.69 129.29 89.63 129.2 89.57 129.1 89.52 128.99 89.48 128.89 89.44 128.78 89.41 128.67 89.39 128.56 89.38 128.45 89.37 128.33 89.36 128.22 89.37 128.11 89.38 128 89.4 127.89 89.43 127.78 89.46 127.68 89.5 127.58 89.55 127.48 89.6 127.38 89.66 127.29 89.73 127.2 89.8 127.12 89.87 127.04 89.95 126.97 90.04 126.9 90.13 126.84 90.22 126.79 90.32 126.74 90.42 126.7 90.53 126.66 90.63 126.64 90.74 126.62 90.85 126.6 90.97 126.59 91.08 126.59 91.19 126.6 91.3 126.62 91.41 126.64 91.52 126.66 91.63 126.7 91.74 126.74 91.84 126.79 91.94 126.84 92.04 126.9 92.14 126.97 92.23 127.04 92.31 127.12 92.39 127.2 92.47 127.29 92.54 127.38 92.61 127.48 92.66 127.58 92.72 127.68 92.76 127.78 92.8 127.89 92.84 128 92.86 128.11 92.88 128.22 92.9 128.33 92.9 128.45 92.9 128.56 92.89 128.67 92.88 128.78 92.85 128.89 92.82 128.99 92.79 129.1 92.74 129.2 92.69 129.29 92.64 129.39 92.57 129.48 92.51 129.56 92.43 129.64 92.35 129.72 92.27 129.79 92.18 129.85 92.09 129.91 91.99 129.96 91.89 130 91.79 130.04 91.69 130.07 91.58 130.1 91.47 130.12 91.36 130.13 91.25 130.13 91.13"/></g><g id="ID000255"><line class="cls-22" x1="123.06" y1="82.29" x2="133.67" y2="82.29"/></g><g id="ID000256"><line class="cls-22" x1="123.06" y1="73.45" x2="133.67" y2="73.45"/></g><g id="ID000257"><line class="cls-22" x1="123.06" y1="64.6" x2="133.67" y2="64.6"/></g><g id="ID000258"><line class="cls-22" x1="123.06" y1="55.76" x2="133.67" y2="55.76"/></g><g id="ID000259"><line class="cls-22" x1="123.06" y1="46.92" x2="133.67" y2="46.92"/></g><g id="ID000260"><line class="cls-22" x1="122.52" y1="27.36" x2="134.2" y2="20.05"/></g><g id="ID000261"><polygon class="cls-20" points="129.86 22.77 129.8 22.68 129.73 22.59 129.66 22.5 129.58 22.42 129.49 22.35 129.41 22.28 129.31 22.22 129.22 22.16 129.12 22.11 129.01 22.06 128.91 22.02 128.8 21.99 128.69 21.97 128.58 21.95 128.47 21.94 128.36 21.94 128.24 21.94 128.13 21.95 128.02 21.97 127.91 22 127.8 22.03 127.7 22.07 127.6 22.11 127.5 22.16 127.4 22.22 127.31 22.29 127.22 22.36 127.14 22.43 127.06 22.51 126.99 22.6 126.92 22.69 126.86 22.78 126.8 22.88 126.75 22.98 126.71 23.08 126.67 23.19 126.64 23.3 126.62 23.4 126.6 23.52 126.59 23.63 126.59 23.74 126.6 23.85 126.61 23.96 126.63 24.07 126.66 24.18 126.69 24.29 126.73 24.39 126.78 24.5 126.83 24.6 126.89 24.69 126.96 24.78 127.03 24.87 127.11 24.95 127.19 25.03 127.27 25.1 127.36 25.17 127.46 25.23 127.56 25.28 127.66 25.33 127.76 25.37 127.87 25.4 127.98 25.43 128.09 25.45 128.2 25.47 128.31 25.47 128.42 25.47 128.53 25.47 128.65 25.45 128.76 25.43 128.87 25.4 128.97 25.37 129.08 25.32 129.18 25.28 129.27 25.22 129.37 25.16 129.46 25.09 129.54 25.02 129.63 24.94 129.7 24.86 129.77 24.77 129.84 24.68 129.9 24.59 129.95 24.49 129.99 24.38 130.03 24.28 130.07 24.17 130.09 24.06 130.11 23.95 130.12 23.84 130.13 23.73 130.13 23.62 130.12 23.5 130.1 23.39 130.08 23.28 130.05 23.18 130.01 23.07 129.97 22.97 129.92 22.87 129.86 22.77"/></g><g id="ID000262"><line class="cls-22" x1="121.87" y1="20.82" x2="134.85" y2="35.43"/></g><g id="ID000263"><polygon class="cls-21" points="129.54 29.45 129.62 29.37 129.69 29.29 129.77 29.2 129.83 29.11 129.89 29.02 129.94 28.92 129.99 28.82 130.03 28.71 130.06 28.6 130.09 28.5 130.11 28.39 130.12 28.27 130.13 28.16 130.13 28.05 130.12 27.94 130.1 27.83 130.08 27.72 130.05 27.61 130.02 27.5 129.97 27.4 129.92 27.3 129.87 27.2 129.81 27.11 129.74 27.02 129.66 26.93 129.59 26.85 129.5 26.78 129.41 26.71 129.32 26.64 129.23 26.58 129.13 26.53 129.02 26.49 128.92 26.45 128.81 26.42 128.7 26.39 128.59 26.37 128.48 26.36 128.37 26.36 128.25 26.36 128.14 26.37 128.03 26.39 127.92 26.41 127.81 26.45 127.71 26.48 127.61 26.53 127.51 26.58 127.41 26.64 127.32 26.7 127.23 26.77 127.14 26.84 127.07 26.92 126.99 27.01 126.92 27.1 126.86 27.19 126.8 27.29 126.75 27.39 126.71 27.49 126.67 27.6 126.64 27.71 126.62 27.81 126.6 27.93 126.59 28.04 126.59 28.15 126.6 28.26 126.61 28.37 126.63 28.48 126.65 28.59 126.69 28.7 126.73 28.81 126.77 28.91 126.83 29.01 126.89 29.1 126.95 29.19 127.02 29.28 127.1 29.36 127.18 29.44 127.26 29.51 127.35 29.58 127.45 29.64 127.55 29.7 127.65 29.75 127.75 29.79 127.86 29.82 127.97 29.85 128.08 29.87 128.19 29.89 128.3 29.9 128.41 29.9 128.52 29.89 128.63 29.88 128.75 29.85 128.85 29.83 128.96 29.79 129.06 29.75 129.17 29.7 129.26 29.65 129.36 29.59 129.45 29.52 129.54 29.45"/></g><g id="ID000265"><text class="cls-2" transform="translate(231.43 39.84)"><tspan x="0" y="0">A</tspan></text></g><g id="ID000266"><text class="cls-10" transform="translate(230.92 48.69)"><tspan x="0" y="0">G</tspan></text></g><g id="ID000267"><text class="cls-10" transform="translate(244.18 73.01)"><tspan x="0" y="0">G</tspan></text></g><g id="ID000268"><text class="cls-10" transform="translate(235.34 73.01)"><tspan x="0" y="0">G</tspan></text></g><g id="ID000269"><text class="cls-10" transform="translate(226.5 73.01)"><tspan x="0" y="0">G</tspan></text></g><g id="ID000270"><text class="cls-2" transform="translate(218.16 73.01)"><tspan x="0" y="0">A</tspan></text></g><g id="ID000271"><text class="cls-10" transform="translate(208.82 73.01)"><tspan x="0" y="0">G</tspan></text></g><g id="ID000272"><text class="cls-10" transform="translate(199.97 73.01)"><tspan x="0" y="0">G</tspan></text></g><g id="ID000273"><text class="cls-2" transform="translate(191.64 73.01)"><tspan x="0" y="0">A</tspan></text></g><g id="ID000274"><line class="cls-22" x1="194.68" y1="63.13" x2="194.68" y2="57.24"/></g><g id="ID000275"><text class="cls-15" transform="translate(189.6 55.03)"><tspan x="0" y="0">50</tspan></text></g><g id="ID000276"><text class="cls-2" transform="translate(182.79 73.01)"><tspan x="0" y="0">A</tspan></text></g><g id="ID000277"><text class="cls-12" transform="translate(213.49 123.85)"><tspan x="0" y="0">U</tspan></text></g><g id="ID000278"><text class="cls-12" transform="translate(200.23 90.69)"><tspan x="0" y="0">C</tspan></text></g><g id="ID000279"><text class="cls-12" transform="translate(209.07 90.69)"><tspan x="0" y="0">C</tspan></text></g><g id="ID000280"><text class="cls-12" transform="translate(217.91 90.69)"><tspan x="0" y="0">U</tspan></text></g><g id="ID000281"><text class="cls-12" transform="translate(226.76 90.69)"><tspan x="0" y="0">C</tspan></text></g><g id="ID000282"><text class="cls-12" transform="translate(235.6 90.69)"><tspan x="0" y="0">C</tspan></text></g><g id="ID000283"><text class="cls-12" transform="translate(244.44 90.69)"><tspan x="0" y="0">C</tspan></text></g><g id="ID000284"><line class="cls-22" x1="247.74" y1="92.61" x2="247.74" y2="98.5"/></g><g id="ID000285"><text class="cls-15" transform="translate(240.12 108.94)"><tspan x="0" y="0">100</tspan></text></g><g id="ID000286"><line class="cls-22" x1="231.76" y1="38.13" x2="197.4" y2="66.76"/></g><g id="ID000287"><polygon class="cls-20" points="216.57 48.48 213.86 50.75 216.12 53.46 218.84 51.2 216.57 48.48"/></g><g id="ID000288"><polygon class="cls-20" points="211.45 55.05 211.53 55.13 211.61 55.21 211.69 55.29 211.78 55.35 211.88 55.42 211.97 55.47 212.07 55.52 212.18 55.57 212.28 55.6 212.39 55.64 212.5 55.66 212.61 55.67 212.72 55.68 212.84 55.69 212.95 55.68 213.06 55.67 213.17 55.65 213.28 55.62 213.39 55.59 213.49 55.55 213.59 55.51 213.69 55.45 213.79 55.39 213.88 55.33 213.97 55.26 214.05 55.18 214.13 55.1 214.2 55.02 214.27 54.93 214.33 54.83 214.38 54.73 214.43 54.63 214.47 54.53 214.51 54.42 214.54 54.31 214.56 54.2 214.57 54.09 214.58 53.98 214.58 53.87 214.57 53.76 214.56 53.64 214.54 53.53 214.51 53.42 214.48 53.32 214.44 53.21 214.39 53.11 214.33 53.01 214.27 52.92 214.21 52.83 214.14 52.74 214.06 52.66 213.98 52.58 213.89 52.51 213.8 52.45 213.7 52.39 213.6 52.34 213.5 52.29 213.4 52.25 213.29 52.21 213.18 52.19 213.07 52.17 212.96 52.15 212.85 52.15 212.74 52.15 212.62 52.16 212.51 52.18 212.4 52.2 212.29 52.23 212.19 52.26 212.08 52.31 211.98 52.36 211.89 52.41 211.79 52.47 211.7 52.54 211.62 52.61 211.54 52.69 211.46 52.78 211.39 52.86 211.33 52.96 211.27 53.05 211.22 53.15 211.17 53.25 211.14 53.36 211.1 53.47 211.08 53.58 211.06 53.69 211.05 53.8 211.04 53.91 211.05 54.02 211.06 54.14 211.08 54.25 211.1 54.36 211.13 54.46 211.17 54.57 211.21 54.67 211.26 54.77 211.32 54.87 211.39 54.96 211.45 55.05"/></g><g id="ID000289"><line class="cls-22" x1="235.11" y1="48.19" x2="238.26" y2="65.55"/></g><g id="ID000290"><polygon class="cls-21" points="235.96 52.86 235.85 52.89 235.74 52.92 235.64 52.96 235.53 53 235.43 53.05 235.33 53.11 235.24 53.17 235.15 53.24 235.07 53.31 234.99 53.39 234.91 53.48 234.85 53.56 234.78 53.66 234.73 53.75 234.67 53.85 234.63 53.96 234.59 54.06 234.56 54.17 234.54 54.28 234.52 54.39 234.51 54.5 234.51 54.61 234.51 54.73 234.52 54.84 234.54 54.95 234.57 55.06 234.6 55.17 234.64 55.27 234.68 55.37 234.73 55.47 234.79 55.57 234.86 55.66 234.93 55.75 235 55.83 235.08 55.91 235.17 55.98 235.26 56.05 235.35 56.11 235.45 56.17 235.55 56.22 235.65 56.26 235.76 56.3 235.87 56.33 235.98 56.35 236.09 56.36 236.2 56.37 236.31 56.37 236.43 56.37 236.54 56.35 236.65 56.33 236.76 56.31 236.86 56.27 236.97 56.23 237.07 56.19 237.17 56.13 237.26 56.07 237.35 56.01 237.44 55.94 237.52 55.86 237.6 55.78 237.67 55.69 237.74 55.6 237.8 55.51 237.85 55.41 237.9 55.31 237.94 55.2 237.98 55.09 238 54.99 238.02 54.88 238.04 54.76 238.04 54.65 238.04 54.54 238.04 54.43 238.02 54.32 238 54.21 237.97 54.1 237.93 53.99 237.89 53.89 237.84 53.79 237.79 53.69 237.73 53.59 237.66 53.5 237.59 53.42 237.51 53.34 237.43 53.26 237.34 53.19 237.25 53.13 237.15 53.07 237.05 53.02 236.95 52.97 236.84 52.93 236.74 52.9 236.63 52.87 236.52 52.85 236.41 52.84 236.29 52.84 236.18 52.84 236.07 52.85 235.96 52.86"/></g><g id="ID000291"><polygon class="cls-21" points="239.15 60.55 238.52 57.07 235.04 57.71 235.67 61.19 239.15 60.55"/></g><g id="ID000292"><line class="cls-22" x1="233.84" y1="48.19" x2="230.69" y2="65.55"/></g><g id="ID000293"><polygon class="cls-21" points="232.99 52.86 232.88 52.85 232.77 52.84 232.66 52.84 232.55 52.84 232.43 52.85 232.32 52.87 232.21 52.9 232.11 52.93 232 52.97 231.9 53.02 231.8 53.07 231.71 53.13 231.61 53.19 231.53 53.26 231.44 53.34 231.37 53.42 231.29 53.5 231.23 53.59 231.16 53.69 231.11 53.79 231.06 53.89 231.02 53.99 230.98 54.1 230.95 54.21 230.93 54.32 230.92 54.43 230.91 54.54 230.91 54.65 230.92 54.76 230.93 54.88 230.95 54.99 230.98 55.09 231.01 55.2 231.05 55.31 231.1 55.41 231.15 55.51 231.21 55.6 231.28 55.69 231.35 55.78 231.43 55.86 231.51 55.94 231.6 56.01 231.69 56.07 231.78 56.13 231.88 56.19 231.98 56.23 232.09 56.27 232.2 56.31 232.31 56.33 232.42 56.35 232.53 56.37 232.64 56.37 232.75 56.37 232.86 56.36 232.97 56.35 233.08 56.33 233.19 56.3 233.3 56.26 233.4 56.22 233.5 56.17 233.6 56.11 233.69 56.05 233.78 55.98 233.87 55.91 233.95 55.83 234.02 55.75 234.1 55.66 234.16 55.57 234.22 55.47 234.27 55.37 234.31 55.27 234.35 55.17 234.39 55.06 234.41 54.95 234.43 54.84 234.44 54.73 234.45 54.61 234.44 54.5 234.43 54.39 234.42 54.28 234.39 54.17 234.36 54.06 234.32 53.96 234.28 53.85 234.23 53.75 234.17 53.66 234.11 53.56 234.04 53.48 233.96 53.39 233.88 53.31 233.8 53.24 233.71 53.17 233.62 53.11 233.52 53.05 233.42 53 233.32 52.96 233.21 52.92 233.1 52.89 232.99 52.86"/></g><g id="ID000294"><polygon class="cls-21" points="233.28 61.19 233.91 57.71 230.43 57.07 229.8 60.55 233.28 61.19"/></g><g id="ID000295"><line class="cls-22" x1="232.78" y1="47.81" x2="222.91" y2="65.92"/></g><g id="ID000296"><polygon class="cls-21" points="229.79 53.3 229.69 53.25 229.59 53.2 229.48 53.16 229.37 53.13 229.27 53.11 229.15 53.09 229.04 53.08 228.93 53.08 228.82 53.08 228.71 53.1 228.6 53.11 228.49 53.14 228.38 53.17 228.27 53.21 228.17 53.26 228.07 53.31 227.98 53.37 227.88 53.43 227.8 53.5 227.71 53.58 227.64 53.66 227.56 53.75 227.5 53.84 227.43 53.93 227.38 54.03 227.33 54.13 227.29 54.23 227.25 54.34 227.22 54.45 227.2 54.56 227.19 54.67 227.18 54.78 227.18 54.89 227.18 55 227.2 55.11 227.22 55.23 227.24 55.33 227.28 55.44 227.32 55.55 227.37 55.65 227.42 55.75 227.48 55.84 227.55 55.93 227.62 56.02 227.69 56.1 227.78 56.18 227.86 56.25 227.95 56.31 228.05 56.37 228.15 56.43 228.25 56.47 228.35 56.52 228.46 56.55 228.57 56.58 228.68 56.6 228.79 56.61 228.9 56.62 229.02 56.62 229.13 56.61 229.24 56.59 229.35 56.57 229.46 56.54 229.56 56.51 229.67 56.46 229.77 56.41 229.87 56.36 229.96 56.3 230.05 56.23 230.13 56.16 230.22 56.08 230.29 56 230.36 55.91 230.43 55.82 230.48 55.72 230.54 55.62 230.58 55.52 230.62 55.41 230.65 55.31 230.68 55.2 230.7 55.09 230.71 54.97 230.71 54.86 230.71 54.75 230.7 54.64 230.68 54.53 230.66 54.42 230.63 54.31 230.59 54.2 230.55 54.1 230.5 54 230.44 53.9 230.38 53.81 230.31 53.72 230.23 53.64 230.15 53.56 230.07 53.48 229.98 53.42 229.89 53.35 229.79 53.3"/></g><g id="ID000297"><polygon class="cls-21" points="227.45 61.29 229.14 58.18 226.04 56.49 224.34 59.59 227.45 61.29"/></g><g id="ID000298"><line class="cls-22" x1="247.74" y1="72.56" x2="247.74" y2="83.17"/></g><g id="ID000299"><line class="cls-22" x1="238.9" y1="72.56" x2="238.9" y2="83.17"/></g><g id="ID000300"><line class="cls-22" x1="230.05" y1="72.56" x2="230.05" y2="83.17"/></g><g id="ID000301"><line class="cls-22" x1="221.21" y1="72.56" x2="221.21" y2="83.17"/></g><g id="ID000302"><line class="cls-22" x1="212.37" y1="72.56" x2="212.37" y2="83.17"/></g><g id="ID000303"><line class="cls-22" x1="203.53" y1="72.56" x2="203.53" y2="83.17"/></g><g id="ID000304"><line class="cls-23" x1="215.48" y1="116.59" x2="204.84" y2="90"/></g><g id="ID000305"><polygon class="cls-21" points="208.79 107.01 209.47 105.15 209.34 103.62 208.99 102.17 208.52 99.19 210.23 101.68 210.98 102.96 211.94 104.17 213.72 105.04 208.79 107.01"/></g><g id="ID000306"><line class="cls-22" x1="216.32" y1="116.37" x2="212.84" y2="90.22"/></g><g id="ID000307"><polygon class="cls-20" points="215.12 107.32 215.23 107.31 215.34 107.28 215.44 107.25 215.55 107.21 215.65 107.16 215.75 107.11 215.85 107.05 215.94 106.99 216.03 106.92 216.11 106.84 216.19 106.76 216.26 106.68 216.33 106.59 216.39 106.5 216.45 106.4 216.5 106.3 216.54 106.19 216.58 106.09 216.6 105.98 216.63 105.87 216.64 105.76 216.65 105.65 216.65 105.53 216.65 105.42 216.63 105.31 216.61 105.2 216.59 105.09 216.55 104.98 216.51 104.88 216.46 104.78 216.41 104.68 216.35 104.58 216.28 104.49 216.21 104.41 216.14 104.32 216.05 104.25 215.97 104.18 215.88 104.11 215.78 104.05 215.68 104 215.58 103.95 215.48 103.91 215.37 103.87 215.26 103.84 215.15 103.82 215.04 103.81 214.93 103.8 214.82 103.8 214.71 103.81 214.59 103.83 214.48 103.85 214.38 103.88 214.27 103.91 214.17 103.96 214.06 104 213.97 104.06 213.87 104.12 213.78 104.19 213.7 104.26 213.62 104.34 213.54 104.42 213.47 104.51 213.41 104.6 213.35 104.7 213.29 104.8 213.25 104.9 213.21 105 213.18 105.11 213.15 105.22 213.13 105.33 213.12 105.44 213.12 105.55 213.12 105.67 213.13 105.78 213.14 105.89 213.17 106 213.2 106.11 213.24 106.21 213.28 106.31 213.33 106.42 213.39 106.51 213.45 106.61 213.52 106.69 213.59 106.78 213.67 106.86 213.75 106.93 213.84 107 213.94 107.06 214.03 107.12 214.13 107.17 214.24 107.22 214.34 107.25 214.45 107.29 214.56 107.31 214.67 107.33 214.78 107.34 214.89 107.34 215.01 107.34 215.12 107.32"/></g><g id="ID000308"><polygon class="cls-20" points="212.29 99.49 212.76 103 216.26 102.53 215.8 99.03 212.29 99.49"/></g><g id="ID000309"><line class="cls-22" x1="217.26" y1="116.37" x2="220.74" y2="90.22"/></g><g id="ID000310"><polygon class="cls-20" points="218.46 107.32 218.58 107.34 218.69 107.34 218.8 107.34 218.91 107.33 219.02 107.31 219.13 107.29 219.24 107.25 219.35 107.22 219.45 107.17 219.55 107.12 219.64 107.06 219.74 107 219.83 106.93 219.91 106.86 219.99 106.78 220.06 106.69 220.13 106.61 220.19 106.51 220.25 106.42 220.3 106.31 220.35 106.21 220.38 106.11 220.41 106 220.44 105.89 220.45 105.78 220.46 105.67 220.47 105.55 220.46 105.44 220.45 105.33 220.43 105.22 220.4 105.11 220.37 105 220.33 104.9 220.29 104.8 220.23 104.7 220.18 104.6 220.11 104.51 220.04 104.42 219.96 104.34 219.88 104.26 219.8 104.19 219.71 104.12 219.61 104.06 219.52 104 219.42 103.96 219.31 103.91 219.2 103.88 219.1 103.85 218.99 103.83 218.88 103.81 218.76 103.8 218.65 103.8 218.54 103.81 218.43 103.82 218.32 103.84 218.21 103.87 218.1 103.91 218 103.95 217.9 104 217.8 104.05 217.7 104.11 217.61 104.18 217.53 104.25 217.44 104.32 217.37 104.41 217.3 104.49 217.23 104.58 217.17 104.68 217.12 104.78 217.07 104.88 217.03 104.98 217 105.09 216.97 105.2 216.95 105.31 216.93 105.42 216.93 105.53 216.93 105.65 216.94 105.76 216.95 105.87 216.98 105.98 217.01 106.09 217.04 106.19 217.08 106.3 217.13 106.4 217.19 106.5 217.25 106.59 217.32 106.68 217.39 106.76 217.47 106.84 217.55 106.92 217.64 106.99 217.73 107.05 217.83 107.11 217.93 107.16 218.03 107.21 218.14 107.25 218.24 107.28 218.35 107.31 218.46 107.32"/></g><g id="ID000311"><polygon class="cls-20" points="217.79 99.03 217.32 102.53 220.82 103 221.29 99.49 217.79 99.03"/></g><g id="ID000312"><line class="cls-22" x1="218.1" y1="116.59" x2="228.74" y2="90"/></g><g id="ID000313"><polygon class="cls-20" points="221.91 107.07 222.02 107.11 222.12 107.14 222.23 107.16 222.35 107.18 222.46 107.19 222.57 107.2 222.68 107.19 222.79 107.18 222.9 107.16 223.01 107.14 223.12 107.11 223.23 107.07 223.33 107.02 223.43 106.97 223.52 106.91 223.62 106.85 223.71 106.78 223.79 106.71 223.87 106.63 223.94 106.54 224.01 106.45 224.07 106.36 224.13 106.26 224.18 106.16 224.22 106.06 224.26 105.95 224.29 105.84 224.31 105.73 224.33 105.62 224.33 105.51 224.34 105.4 224.33 105.29 224.32 105.17 224.3 105.06 224.27 104.96 224.24 104.85 224.2 104.74 224.15 104.64 224.1 104.54 224.04 104.45 223.98 104.36 223.9 104.27 223.83 104.19 223.75 104.11 223.66 104.04 223.57 103.97 223.48 103.91 223.38 103.85 223.28 103.81 223.17 103.76 223.07 103.73 222.96 103.7 222.85 103.68 222.74 103.67 222.62 103.66 222.51 103.66 222.4 103.67 222.29 103.68 222.18 103.7 222.07 103.73 221.96 103.77 221.86 103.81 221.76 103.86 221.66 103.91 221.57 103.97 221.47 104.04 221.39 104.11 221.31 104.19 221.23 104.27 221.16 104.36 221.1 104.45 221.04 104.54 220.98 104.64 220.94 104.74 220.9 104.85 220.86 104.96 220.84 105.07 220.82 105.18 220.81 105.29 220.8 105.4 220.8 105.51 220.81 105.62 220.83 105.73 220.85 105.84 220.88 105.95 220.92 106.06 220.96 106.16 221.01 106.26 221.07 106.36 221.13 106.45 221.2 106.54 221.27 106.63 221.35 106.71 221.43 106.78 221.52 106.85 221.61 106.92 221.71 106.97 221.81 107.02 221.91 107.07"/></g><g id="ID000314"><polygon class="cls-20" points="223.29 98.86 221.98 102.14 225.26 103.46 226.58 100.17 223.29 98.86"/></g><g id="ID000315"><line class="cls-23" x1="249.4" y1="89.83" x2="281.45" y2="149.91"/></g><g id="ID000316"><polygon class="cls-21" points="266.38 116.02 265.9 117.95 266.21 119.46 266.7 120.86 267.51 123.77 265.53 121.49 264.65 120.29 263.56 119.2 261.7 118.52 266.38 116.02"/></g><g id="ID000318"><text class="cls-9" transform="translate(280.06 271.97)"><tspan x="0" y="0">A</tspan></text></g><g id="ID000319"><text class="cls-9" transform="translate(280.06 263.13)"><tspan x="0" y="0">A</tspan></text></g><g id="ID000320"><text class="cls-12" transform="translate(279.56 254.29)"><tspan x="0" y="0">G</tspan></text></g><g id="ID000321"><text class="cls-12" transform="translate(279.56 245.44)"><tspan x="0" y="0">G</tspan></text></g><g id="ID000322"><text class="cls-12" transform="translate(261.87 236.6)"><tspan x="0" y="0">G</tspan></text></g><g id="ID000323"><line class="cls-22" x1="259.53" y1="232.62" x2="253.64" y2="232.62"/></g><g id="ID000324"><text class="cls-15" transform="translate(239.07 236.6)"><tspan class="cls-25" x="0" y="0">1</tspan><tspan x="4.4" y="0">10</tspan></text></g><g id="ID000325"><text class="cls-12" transform="translate(262.13 245.44)"><tspan x="0" y="0">C</tspan></text></g><g id="ID000326"><text class="cls-12" transform="translate(262.13 254.29)"><tspan x="0" y="0">C</tspan></text></g><g id="ID000327"><text class="cls-12" transform="translate(262.13 263.13)"><tspan x="0" y="0">U</tspan></text></g><g id="ID000328"><line class="cls-22" x1="279.58" y1="259.15" x2="268.96" y2="259.15"/></g><g id="ID000329"><line class="cls-22" x1="279.58" y1="250.31" x2="268.96" y2="250.31"/></g><g id="ID000330"><line class="cls-23" x1="280.61" y1="238.96" x2="267.93" y2="226.28"/></g><g id="ID000331"><polygon class="cls-21" points="274.48 236.58 274.37 234.6 273.64 233.24 272.76 232.05 271.14 229.49 273.7 231.11 274.89 231.99 276.25 232.72 278.23 232.83 274.48 236.58"/></g><g id="ID000332"><line class="cls-22" x1="279.58" y1="241.46" x2="268.96" y2="241.46"/></g><g id="ID000334"><text class="cls-12" transform="translate(261.87 227.76)"><tspan x="0" y="0">G</tspan></text></g><g id="ID000335"><text class="cls-12" transform="translate(262.13 218.91)"><tspan x="0" y="0">U</tspan></text></g><g id="ID000336"><text class="cls-12" transform="translate(261.87 210.07)"><tspan x="0" y="0">G</tspan></text></g><g id="ID000337"><text class="cls-12" transform="translate(262.13 201.23)"><tspan x="0" y="0">C</tspan></text></g><g id="ID000338"><text class="cls-9" transform="translate(262.38 192.39)"><tspan x="0" y="0">A</tspan></text></g><g id="ID000339"><text class="cls-12" transform="translate(261.87 183.54)"><tspan x="0" y="0">G</tspan></text></g><g id="ID000340"><line class="cls-22" x1="259.53" y1="179.56" x2="253.64" y2="179.56"/></g><g id="ID000341"><text class="cls-15" transform="translate(243.48 183.54)"><tspan x="0" y="0">90</tspan></text></g><g id="ID000342"><text class="cls-9" transform="translate(262.38 174.7)"><tspan x="0" y="0">A</tspan></text></g><g id="ID000343"><text class="cls-12" transform="translate(261.87 165.86)"><tspan x="0" y="0">G</tspan></text></g><g id="ID000344"><text class="cls-12" transform="translate(262.13 157.01)"><tspan x="0" y="0">U</tspan></text></g><g id="ID000345"><text class="cls-12" transform="translate(279.56 157.01)"><tspan x="0" y="0">G</tspan></text></g><g id="ID000346"><text class="cls-12" transform="translate(279.81 165.86)"><tspan x="0" y="0">C</tspan></text></g><g id="ID000347"><text class="cls-12" transform="translate(279.81 174.7)"><tspan x="0" y="0">U</tspan></text></g><g id="ID000348"><text class="cls-12" transform="translate(279.81 183.54)"><tspan x="0" y="0">C</tspan></text></g><g id="ID000349"><text class="cls-12" transform="translate(279.81 192.39)"><tspan x="0" y="0">U</tspan></text></g><g id="ID000350"><text class="cls-12" transform="translate(279.56 201.23)"><tspan x="0" y="0">G</tspan></text></g><g id="ID000351"><text class="cls-12" transform="translate(279.81 210.07)"><tspan x="0" y="0">C</tspan></text></g><g id="ID000352"><text class="cls-9" transform="translate(280.06 218.91)"><tspan x="0" y="0">A</tspan></text></g><g id="ID000353"><text class="cls-12" transform="translate(279.81 227.76)"><tspan x="0" y="0">U</tspan></text></g><g id="ID000354"><polygon class="cls-21" points="276.04 223.78 276.03 223.66 276.02 223.55 276.01 223.44 275.98 223.33 275.95 223.23 275.91 223.12 275.87 223.02 275.81 222.92 275.76 222.82 275.69 222.73 275.62 222.64 275.55 222.56 275.47 222.48 275.38 222.4 275.29 222.34 275.2 222.27 275.1 222.22 275 222.17 274.9 222.12 274.79 222.09 274.69 222.06 274.58 222.03 274.47 222.02 274.35 222.01 274.24 222.01 274.13 222.01 274.02 222.03 273.91 222.05 273.8 222.07 273.69 222.11 273.59 222.15 273.48 222.19 273.38 222.25 273.29 222.3 273.2 222.37 273.11 222.44 273.03 222.52 272.95 222.6 272.88 222.68 272.81 222.77 272.75 222.87 272.7 222.97 272.65 223.07 272.61 223.17 272.57 223.28 272.54 223.39 272.52 223.5 272.51 223.61 272.5 223.72 272.5 223.83 272.51 223.94 272.52 224.06 272.54 224.17 272.57 224.28 272.61 224.38 272.65 224.49 272.7 224.59 272.75 224.68 272.81 224.78 272.88 224.87 272.95 224.96 273.03 225.04 273.11 225.11 273.2 225.18 273.29 225.25 273.38 225.31 273.48 225.36 273.59 225.41 273.69 225.45 273.8 225.48 273.91 225.51 274.02 225.53 274.13 225.54 274.24 225.55 274.35 225.54 274.47 225.53 274.58 225.52 274.69 225.5 274.79 225.47 274.9 225.43 275 225.39 275.1 225.34 275.2 225.28 275.29 225.22 275.38 225.15 275.47 225.08 275.55 225 275.62 224.91 275.69 224.83 275.76 224.73 275.81 224.64 275.87 224.54 275.91 224.43 275.95 224.33 275.98 224.22 276.01 224.11 276.02 224 276.03 223.89 276.04 223.78"/></g><g id="ID000355"><line class="cls-22" x1="268.96" y1="214.93" x2="279.58" y2="214.93"/></g><g id="ID000356"><line class="cls-22" x1="268.96" y1="206.09" x2="279.58" y2="206.09"/></g><g id="ID000357"><line class="cls-22" x1="268.96" y1="197.25" x2="279.58" y2="197.25"/></g><g id="ID000358"><line class="cls-22" x1="268.96" y1="188.41" x2="279.58" y2="188.41"/></g><g id="ID000359"><line class="cls-22" x1="268.96" y1="179.56" x2="279.58" y2="179.56"/></g><g id="ID000360"><line class="cls-22" x1="268.96" y1="170.72" x2="279.58" y2="170.72"/></g><g id="ID000361"><line class="cls-22" x1="268.96" y1="161.88" x2="279.58" y2="161.88"/></g><g id="ID000362"><polygon class="cls-21" points="276.04 153.03 276.03 152.92 276.02 152.81 276.01 152.7 275.98 152.59 275.95 152.48 275.91 152.38 275.87 152.27 275.81 152.17 275.76 152.08 275.69 151.99 275.62 151.9 275.55 151.81 275.47 151.73 275.38 151.66 275.29 151.59 275.2 151.53 275.1 151.47 275 151.43 274.9 151.38 274.79 151.34 274.69 151.31 274.58 151.29 274.47 151.28 274.35 151.27 274.24 151.27 274.13 151.27 274.02 151.28 273.91 151.3 273.8 151.33 273.69 151.36 273.59 151.4 273.48 151.45 273.38 151.5 273.29 151.56 273.2 151.63 273.11 151.7 273.03 151.77 272.95 151.85 272.88 151.94 272.81 152.03 272.75 152.13 272.7 152.22 272.65 152.32 272.61 152.43 272.57 152.54 272.54 152.64 272.52 152.75 272.51 152.87 272.5 152.98 272.5 153.09 272.51 153.2 272.52 153.31 272.54 153.42 272.57 153.53 272.61 153.64 272.65 153.74 272.7 153.84 272.75 153.94 272.81 154.04 272.88 154.13 272.95 154.21 273.03 154.29 273.11 154.37 273.2 154.44 273.29 154.51 273.38 154.57 273.48 154.62 273.59 154.67 273.69 154.71 273.8 154.74 273.91 154.76 274.02 154.78 274.13 154.8 274.24 154.8 274.35 154.8 274.47 154.79 274.58 154.78 274.69 154.75 274.79 154.72 274.9 154.69 275 154.64 275.1 154.59 275.2 154.54 275.29 154.47 275.38 154.41 275.47 154.33 275.55 154.25 275.62 154.17 275.69 154.08 275.76 153.99 275.81 153.89 275.87 153.79 275.91 153.69 275.95 153.59 275.98 153.48 276.01 153.37 276.02 153.26 276.03 153.15 276.04 153.03"/></g><g id="ID000364"><polyline class="cls-23" points="174.79 282.14 174.79 274.62 140.74 274.62"/></g><g id="ID000365"><polygon class="cls-21" points="160.71 277.28 159.24 275.95 157.76 275.51 156.29 275.29 153.34 274.62 156.29 273.96 157.76 273.74 159.24 273.3 160.71 271.97 160.71 277.28"/></g><g id="ID000366"><line class="cls-23" x1="236.17" y1="47.81" x2="246.05" y2="65.92"/></g><g id="ID000367"><polygon class="cls-21" points="242.03 53.01 241.57 54.94 241.88 56.44 242.4 57.84 243.23 60.75 241.23 58.48 240.33 57.29 239.24 56.21 237.37 55.55 242.03 53.01"/></g><g id="ID000368"><line class="cls-23" x1="140.73" y1="263.89" x2="279.59" y2="276.51"/></g><g id="ID000369"><polygon class="cls-21" points="207.46 267.29 208.81 268.75 210.24 269.32 211.69 269.68 214.56 270.6 211.57 271 210.08 271.08 208.57 271.39 206.98 272.58 207.46 267.29"/></g><g id="ID000370"><line class="cls-23" x1="183.4" y1="66.47" x2="139.65" y2="20.74"/></g><g id="ID000371"><polygon class="cls-21" points="161.64 47.57 161.58 45.58 160.88 44.21 160.02 43 158.47 40.41 160.98 42.08 162.16 42.99 163.5 43.75 165.48 43.9 161.64 47.57"/></g><g id="ID000372"><line class="cls-23" x1="188.55" y1="258.23" x2="191.97" y2="282.18"/></g><g id="ID000373"><polygon class="cls-21" points="192.47 266.91 191.37 268.56 191.14 270.08 191.13 271.57 190.89 274.58 189.81 271.75 189.39 270.33 188.74 268.93 187.22 267.66 192.47 266.91"/></g><g id="ID000374"><line class="cls-23" x1="203.53" y1="145.85" x2="190.26" y2="129.27"/></g><g id="ID000375"><polygon class="cls-21" points="196.66 141.52 196.78 139.54 196.2 138.11 195.45 136.82 194.13 134.11 196.49 135.99 197.58 137.01 198.85 137.88 200.81 138.2 196.66 141.52"/></g><g id="ID000376"><line class="cls-23" x1="279.95" y1="225.36" x2="268.59" y2="231.04"/></g><g id="ID000377"><polygon class="cls-21" points="278.09 229.25 276.18 228.73 274.66 228.99 273.25 229.45 270.31 230.18 272.65 228.26 273.87 227.41 274.99 226.35 275.72 224.51 278.09 229.25"/></g><g id="ID000378"><polygon class="cls-21" points="173.82 .05 175.29 1.38 176.76 1.82 178.24 2.04 181.19 2.7 178.24 3.37 176.76 3.59 175.29 4.03 173.82 5.36 173.82 .05"/></g><g id="ID000379"><polyline class="cls-23" points="119.54 14.64 119.63 2.7 233.89 2.7 234.41 32.33"/></g><g id="ID000380"><polygon class="cls-21" points="236.75 14.52 235.45 16.02 235.04 17.5 234.84 18.98 234.23 21.94 233.52 19 233.27 17.53 232.8 16.07 231.45 14.62 236.75 14.52"/></g><g id="ID000381"><line class="cls-23" x1="262.5" y1="151.04" x2="219.71" y2="121.87"/></g><g id="ID000382"><polygon class="cls-21" points="242.05 140.31 241.58 138.38 240.61 137.18 239.52 136.17 237.45 133.96 240.26 135.07 241.61 135.72 243.07 136.19 245.04 135.92 242.05 140.31"/></g></g></g><text class="cls-13" transform="translate(70.54 112.34)"><tspan x="0" y="0">P2</tspan></text><text class="cls-5" transform="translate(295.7 216.61)"><tspan x="0" y="0">P3</tspan></text><text class="cls-18" transform="translate(153.7 209.61)"><tspan x="0" y="0">P4</tspan></text><text class="cls-6" transform="translate(80.54 321.34)"><tspan x="0" y="0">P1</tspan></text><text class="cls-17" transform="translate(204.7 329.61)"><tspan x="0" y="0">P5</tspan></text><text class="cls-16" transform="translate(0 17.35)"><tspan class="cls-26" x="0" y="0">L</tspan><tspan x="10.38" y="0">ysine </tspan><tspan x="0" y="24">riboswitch</tspan></text><g><rect class="cls-27" x="91.97" y="266.05" width="18" height="9"/><text class="cls-19" transform="translate(93.96 273.58)"><tspan class="cls-26" x="0" y="0">L</tspan><tspan x="5.19" y="0">ys</tspan></text></g><g><line class="cls-27" x1="109.97" y1="272.05" x2="125.97" y2="269.05"/><g><line class="cls-24" x1="109.97" y1="272.05" x2="124.58" y2="269.31"/><polygon class="cls-27" points="121.97 271.42 121.72 270.99 124.53 269.32 121.3 268.79 121.38 268.29 125.97 269.05 121.97 271.42"/></g></g><text class="cls-11" transform="translate(110.81 380.93)"><tspan x="0" y="0">5</tspan><tspan class="cls-26" x="7.79" y="0">’</tspan></text><text class="cls-11" transform="translate(136.81 380.93)"><tspan x="0" y="0">3</tspan><tspan class="cls-26" x="7.79" y="0">’</tspan></text></svg>