<svg id="图层_1" data-name="图层 1" xmlns="http://www.w3.org/2000/svg" viewBox="0 0 400 400"><defs><style>.cls-1,.cls-11,.cls-12,.cls-13,.cls-14,.cls-15,.cls-16,.cls-2,.cls-4,.cls-7,.cls-8,.cls-9{isolation:isolate;font-size:8.39px;}.cls-1,.cls-2,.cls-21{fill:#80db9e;}.cls-1,.cls-11,.cls-12,.cls-13,.cls-14,.cls-15,.cls-16,.cls-18,.cls-19,.cls-2,.cls-20,.cls-21,.cls-22,.cls-23,.cls-26,.cls-28,.cls-4,.cls-7,.cls-8,.cls-9{font-family:ArialMT, Arial;}.cls-12,.cls-14,.cls-15,.cls-2,.cls-8{letter-spacing:-0.06em;}.cls-10,.cls-29,.cls-3,.cls-30{fill:none;}.cls-10,.cls-29,.cls-3,.cls-30,.cls-5,.cls-6{stroke:#000;stroke-miterlimit:1.11;}.cls-3,.cls-5,.cls-6{stroke-width:0.14px;}.cls-26,.cls-6{fill:#fff;}.cls-20,.cls-7,.cls-8{fill:#ffaadc;}.cls-14,.cls-22,.cls-9{fill:#09fefe;}.cls-10{stroke-width:0.61px;}.cls-11,.cls-12,.cls-18{fill:#0a0bff;}.cls-13,.cls-15,.cls-19{fill:#ffdf5c;}.cls-16{letter-spacing:-0.07em;}.cls-17{letter-spacing:0em;}.cls-18,.cls-21{font-size:18.37px;}.cls-19,.cls-20,.cls-22{font-size:19.29px;}.cls-23{font-size:20px;}.cls-24{letter-spacing:-0.04em;}.cls-25{fill:red;}.cls-26{font-size:5.41px;letter-spacing:-0.04em;}.cls-27{letter-spacing:0em;}.cls-28{font-size:13.04px;fill:#231815;}.cls-29{stroke-width:0.13px;}.cls-30{stroke-width:0.13px;}</style></defs><g id="ID000002"><text class="cls-1" transform="translate(123.3 374.48)">G</text></g><g id="ID000003"><text class="cls-1" transform="translate(123.3 366.36)">G</text></g><g id="ID000004"><text class="cls-1" transform="translate(123.53 358.23)">C</text></g><g id="ID000005"><text class="cls-1" transform="translate(123.53 350.11)">C</text></g><g id="ID000006"><text class="cls-1" transform="translate(123.3 341.99)">G</text></g><g id="ID000007"><text class="cls-2" transform="translate(123.76 333.86)">A</text></g><g id="ID000008"><text class="cls-1" transform="translate(123.53 325.74)">C</text></g><g id="ID000009"><text class="cls-1" transform="translate(123.3 317.62)">G</text></g><g id="ID000010"><text class="cls-1" transform="translate(123.3 309.5)">G</text></g><g id="ID000011"><text class="cls-2" transform="translate(123.76 301.37)">A</text></g><g id="ID000012"><line class="cls-3" x1="121.15" y1="297.72" x2="115.73" y2="297.72"/></g><g id="ID000013"><text class="cls-4" transform="translate(106.4 301.37)">10</text></g><g id="ID000014"><text class="cls-1" transform="translate(123.3 293.25)">G</text></g><g id="ID000015"><text class="cls-2" transform="translate(148.13 301.37)">A</text></g><g id="ID000016"><text class="cls-1" transform="translate(139.54 301.37)">G</text></g><g id="ID000017"><text class="cls-1" transform="translate(139.78 309.5)">C</text></g><g id="ID000018"><text class="cls-1" transform="translate(139.78 317.62)">C</text></g><g id="ID000019"><text class="cls-1" transform="translate(139.54 325.74)">G</text></g><g id="ID000020"><text class="cls-1" transform="translate(139.78 333.86)">U</text></g><g id="ID000021"><text class="cls-1" transform="translate(139.78 341.99)">C</text></g><g id="ID000022"><line class="cls-3" x1="148.22" y1="338.33" x2="153.64" y2="338.33"/></g><g id="ID000023"><text class="cls-4" transform="translate(153.64 341.99)">170</text></g><g id="ID000024"><text class="cls-1" transform="translate(139.54 350.11)">G</text></g><g id="ID000025"><text class="cls-1" transform="translate(139.54 358.23)">G</text></g><g id="ID000026"><text class="cls-1" transform="translate(139.78 366.36)">U</text></g><g id="ID000027"><text class="cls-1" transform="translate(139.78 374.48)">C</text></g><g id="ID000028"><line class="cls-3" x1="129.81" y1="370.83" x2="139.56" y2="370.83"/></g><g id="ID000029"><polygon class="cls-5" points="136.31 362.7 136.31 362.6 136.3 362.5 136.28 362.39 136.26 362.3 136.23 362.2 136.19 362.1 136.15 362 136.1 361.91 136.05 361.82 135.99 361.74 135.93 361.66 135.86 361.58 135.79 361.51 135.71 361.44 135.63 361.38 135.54 361.32 135.45 361.27 135.36 361.23 135.26 361.19 135.17 361.15 135.07 361.12 134.97 361.1 134.87 361.09 134.76 361.08 134.66 361.08 134.56 361.08 134.45 361.09 134.35 361.11 134.25 361.14 134.15 361.17 134.06 361.2 133.96 361.25 133.87 361.3 133.79 361.35 133.7 361.41 133.62 361.48 133.55 361.55 133.47 361.62 133.41 361.7 133.35 361.78 133.29 361.87 133.24 361.96 133.2 362.05 133.16 362.15 133.13 362.25 133.1 362.35 133.08 362.45 133.07 362.55 133.06 362.65 133.06 362.75 133.07 362.86 133.08 362.96 133.1 363.06 133.13 363.16 133.16 363.26 133.2 363.35 133.24 363.45 133.29 363.54 133.35 363.62 133.41 363.71 133.47 363.79 133.55 363.86 133.62 363.93 133.7 364 133.79 364.06 133.87 364.11 133.96 364.16 134.06 364.2 134.15 364.24 134.25 364.27 134.35 364.29 134.45 364.31 134.56 364.32 134.66 364.33 134.76 364.33 134.87 364.32 134.97 364.3 135.07 364.28 135.17 364.25 135.26 364.22 135.36 364.18 135.45 364.13 135.54 364.08 135.63 364.03 135.71 363.96 135.79 363.9 135.86 363.82 135.93 363.75 135.99 363.67 136.05 363.58 136.1 363.49 136.15 363.4 136.19 363.31 136.23 363.21 136.26 363.11 136.28 363.01 136.3 362.91 136.31 362.81 136.31 362.7"/></g><g id="ID000030"><line class="cls-3" x1="129.81" y1="354.58" x2="139.56" y2="354.58"/></g><g id="ID000031"><line class="cls-3" x1="129.81" y1="346.46" x2="139.56" y2="346.46"/></g><g id="ID000032"><line class="cls-3" x1="129.81" y1="338.33" x2="139.56" y2="338.33"/></g><g id="ID000033"><line class="cls-3" x1="129.81" y1="330.21" x2="139.56" y2="330.21"/></g><g id="ID000034"><line class="cls-3" x1="129.81" y1="322.09" x2="139.56" y2="322.09"/></g><g id="ID000035"><line class="cls-3" x1="129.81" y1="313.96" x2="139.56" y2="313.96"/></g><g id="ID000036"><line class="cls-3" x1="129.81" y1="305.84" x2="139.56" y2="305.84"/></g><g id="ID000037"><line class="cls-3" x1="129.81" y1="297.72" x2="139.56" y2="297.72"/></g><g id="ID000038"><polygon class="cls-5" points="136.31 297.72 136.31 297.61 136.3 297.51 136.28 297.41 136.26 297.31 136.23 297.21 136.19 297.11 136.15 297.02 136.1 296.93 136.05 296.84 135.99 296.75 135.93 296.67 135.86 296.6 135.79 296.52 135.71 296.46 135.63 296.39 135.54 296.34 135.45 296.29 135.36 296.24 135.26 296.2 135.17 296.17 135.07 296.14 134.97 296.12 134.87 296.1 134.76 296.09 134.66 296.09 134.56 296.1 134.45 296.11 134.35 296.13 134.25 296.15 134.15 296.18 134.06 296.22 133.96 296.26 133.87 296.31 133.79 296.36 133.7 296.42 133.62 296.49 133.55 296.56 133.47 296.63 133.41 296.71 133.35 296.8 133.29 296.88 133.24 296.97 133.2 297.06 133.16 297.16 133.13 297.26 133.1 297.36 133.08 297.46 133.07 297.56 133.06 297.67 133.06 297.77 133.07 297.87 133.08 297.97 133.1 298.07 133.13 298.17 133.16 298.27 133.2 298.37 133.24 298.46 133.29 298.55 133.35 298.64 133.41 298.72 133.47 298.8 133.55 298.88 133.62 298.94 133.7 299.01 133.79 299.07 133.87 299.12 133.96 299.17 134.06 299.21 134.15 299.25 134.25 299.28 134.35 299.31 134.45 299.32 134.56 299.34 134.66 299.34 134.76 299.34 134.87 299.33 134.97 299.32 135.07 299.3 135.17 299.27 135.26 299.23 135.36 299.19 135.45 299.15 135.54 299.1 135.63 299.04 135.71 298.98 135.79 298.91 135.86 298.84 135.93 298.76 135.99 298.68 136.05 298.6 136.1 298.51 136.15 298.42 136.19 298.32 136.23 298.22 136.26 298.13 136.28 298.02 136.3 297.92 136.31 297.82 136.31 297.72"/></g><g id="ID000039"><line class="cls-3" x1="129.81" y1="289.59" x2="139.56" y2="289.59"/></g><g id="ID000040"><polygon class="cls-6" points="130.95 291.22 134.2 291.22 134.2 287.97 130.95 287.97 130.95 291.22"/></g><g id="ID000041"><polygon class="cls-6" points="138.42 289.59 138.42 289.49 138.41 289.39 138.39 289.29 138.37 289.19 138.34 289.09 138.31 288.99 138.26 288.89 138.22 288.8 138.16 288.71 138.1 288.63 138.04 288.55 137.97 288.47 137.9 288.4 137.82 288.33 137.74 288.27 137.65 288.21 137.56 288.16 137.47 288.12 137.38 288.08 137.28 288.04 137.18 288.01 137.08 287.99 136.98 287.98 136.88 287.97 136.77 287.97 136.67 287.97 136.57 287.99 136.47 288 136.37 288.03 136.27 288.06 136.17 288.1 136.08 288.14 135.99 288.19 135.9 288.24 135.81 288.3 135.73 288.37 135.66 288.44 135.59 288.51 135.52 288.59 135.46 288.67 135.4 288.76 135.35 288.85 135.31 288.94 135.27 289.04 135.24 289.14 135.21 289.24 135.19 289.34 135.18 289.44 135.17 289.54 135.17 289.64 135.18 289.75 135.19 289.85 135.21 289.95 135.24 290.05 135.27 290.15 135.31 290.25 135.35 290.34 135.4 290.43 135.46 290.51 135.52 290.6 135.59 290.68 135.66 290.75 135.73 290.82 135.81 290.89 135.9 290.95 135.99 291 136.08 291.05 136.17 291.09 136.27 291.13 136.37 291.16 136.47 291.18 136.57 291.2 136.67 291.21 136.77 291.22 136.88 291.22 136.98 291.21 137.08 291.19 137.18 291.17 137.28 291.14 137.38 291.11 137.47 291.07 137.56 291.03 137.65 290.97 137.74 290.92 137.82 290.85 137.9 290.79 137.97 290.71 138.04 290.64 138.1 290.56 138.16 290.47 138.22 290.38 138.26 290.29 138.31 290.2 138.34 290.1 138.37 290 138.39 289.9 138.41 289.8 138.42 289.7 138.42 289.59"/></g><g id="ID000043"><text class="cls-7" transform="translate(202.5 274.97)">G</text></g><g id="ID000044"><text class="cls-7" transform="translate(202.5 266.85)">G</text></g><g id="ID000045"><text class="cls-7" transform="translate(202.5 258.72)">G</text></g><g id="ID000046"><text class="cls-8" transform="translate(186.72 258.72)">A</text></g><g id="ID000047"><text class="cls-7" transform="translate(186.49 266.85)">C</text></g><g id="ID000048"><text class="cls-7" transform="translate(186.49 274.97)">U</text></g><g id="ID000049"><line class="cls-3" x1="184.1" y1="271.32" x2="178.69" y2="271.32"/></g><g id="ID000050"><text class="cls-4" transform="translate(164.68 274.97)">140</text></g><g id="ID000051"><text class="cls-9" transform="translate(188.31 293.4)">G</text></g><g id="ID000052"><line class="cls-10" x1="257.41" y1="272.49" x2="208.92" y2="272.21"/></g><g id="ID000053"><polygon class="cls-5" points="235.86 274.8 234.51 273.57 233.16 273.16 231.81 272.95 229.1 272.32 231.82 271.73 233.17 271.54 234.53 271.14 235.89 269.93 235.86 274.8"/></g><g id="ID000054"><polygon class="cls-5" points="196.02 271.32 196.02 271.42 196.03 271.52 196.05 271.62 196.07 271.72 196.1 271.82 196.13 271.92 196.17 272.01 196.22 272.11 196.27 272.19 196.33 272.28 196.4 272.36 196.47 272.44 196.54 272.51 196.62 272.58 196.7 272.64 196.78 272.7 196.87 272.75 196.97 272.79 197.06 272.83 197.16 272.87 197.26 272.89 197.36 272.92 197.46 272.93 197.56 272.94 197.67 272.94 197.77 272.94 197.87 272.92 197.97 272.91 198.07 272.88 198.17 272.85 198.27 272.81 198.36 272.77 198.45 272.72 198.54 272.67 198.63 272.61 198.7 272.54 198.78 272.47 198.85 272.4 198.92 272.32 198.98 272.24 199.03 272.15 199.09 272.06 199.13 271.97 199.17 271.87 199.2 271.77 199.22 271.67 199.25 271.57 199.26 271.47 199.26 271.37 199.26 271.26 199.26 271.16 199.25 271.06 199.22 270.96 199.2 270.86 199.17 270.76 199.13 270.67 199.09 270.57 199.03 270.48 198.98 270.39 198.92 270.31 198.85 270.23 198.78 270.16 198.7 270.09 198.63 270.02 198.54 269.96 198.45 269.91 198.36 269.86 198.27 269.82 198.17 269.78 198.07 269.75 197.97 269.73 197.87 269.71 197.77 269.7 197.67 269.69 197.56 269.69 197.46 269.7 197.36 269.72 197.26 269.74 197.16 269.76 197.06 269.8 196.97 269.84 196.87 269.88 196.78 269.94 196.7 269.99 196.62 270.06 196.54 270.12 196.47 270.19 196.4 270.27 196.33 270.35 196.27 270.44 196.22 270.53 196.17 270.62 196.13 270.71 196.1 270.81 196.07 270.91 196.05 271.01 196.03 271.11 196.02 271.21 196.02 271.32"/></g><g id="ID000055"><line class="cls-3" x1="202.51" y1="263.19" x2="192.77" y2="263.19"/></g><g id="ID000056"><line class="cls-3" x1="202.51" y1="255.07" x2="192.77" y2="255.07"/></g><g id="ID000057"><polygon class="cls-5" points="196.02 255.07 196.02 255.17 196.03 255.28 196.05 255.38 196.07 255.48 196.1 255.58 196.13 255.67 196.17 255.77 196.22 255.86 196.27 255.95 196.33 256.03 196.4 256.11 196.47 256.19 196.54 256.26 196.62 256.33 196.7 256.39 196.78 256.45 196.87 256.5 196.97 256.55 197.06 256.59 197.16 256.62 197.26 256.65 197.36 256.67 197.46 256.68 197.56 256.69 197.67 256.69 197.77 256.69 197.87 256.68 197.97 256.66 198.07 256.64 198.17 256.61 198.27 256.57 198.36 256.53 198.45 256.48 198.54 256.42 198.63 256.36 198.7 256.3 198.78 256.23 198.85 256.15 198.92 256.07 198.98 255.99 199.03 255.91 199.09 255.81 199.13 255.72 199.17 255.63 199.2 255.53 199.22 255.43 199.25 255.33 199.26 255.22 199.26 255.12 199.26 255.02 199.26 254.91 199.25 254.81 199.22 254.71 199.2 254.61 199.17 254.51 199.13 254.42 199.09 254.33 199.03 254.24 198.98 254.15 198.92 254.06 198.85 253.99 198.78 253.91 198.7 253.84 198.63 253.78 198.54 253.72 198.45 253.66 198.36 253.61 198.27 253.57 198.17 253.53 198.07 253.5 197.97 253.48 197.87 253.46 197.77 253.45 197.67 253.45 197.56 253.45 197.46 253.46 197.36 253.47 197.26 253.49 197.16 253.52 197.06 253.55 196.97 253.59 196.87 253.64 196.78 253.69 196.7 253.75 196.62 253.81 196.54 253.88 196.47 253.95 196.4 254.03 196.33 254.11 196.27 254.19 196.22 254.28 196.17 254.37 196.13 254.47 196.1 254.56 196.07 254.66 196.05 254.76 196.03 254.86 196.02 254.97 196.02 255.07"/></g><g id="ID000058"><line class="cls-3" x1="188.33" y1="289.75" x2="178.58" y2="289.75"/></g><g id="ID000059"><polygon class="cls-5" points="181.83 289.75 181.83 289.85 181.84 289.95 181.86 290.06 181.88 290.16 181.91 290.25 181.95 290.35 181.99 290.45 182.04 290.54 182.09 290.63 182.15 290.71 182.21 290.79 182.28 290.87 182.35 290.94 182.43 291.01 182.51 291.07 182.6 291.13 182.69 291.18 182.78 291.23 182.88 291.26 182.97 291.3 183.07 291.33 183.17 291.35 183.28 291.36 183.38 291.37 183.48 291.37 183.58 291.37 183.69 291.36 183.79 291.34 183.89 291.31 183.99 291.28 184.08 291.25 184.18 291.2 184.27 291.15 184.36 291.1 184.44 291.04 184.52 290.98 184.6 290.91 184.67 290.83 184.73 290.75 184.79 290.67 184.85 290.58 184.9 290.49 184.94 290.4 184.98 290.3 185.01 290.2 185.04 290.11 185.06 290 185.07 289.9 185.08 289.8 185.08 289.7 185.07 289.59 185.06 289.49 185.04 289.39 185.01 289.29 184.98 289.19 184.94 289.1 184.9 289 184.85 288.91 184.79 288.83 184.73 288.74 184.67 288.66 184.6 288.59 184.52 288.52 184.44 288.45 184.36 288.39 184.27 288.34 184.18 288.29 184.08 288.25 183.99 288.21 183.89 288.18 183.79 288.16 183.69 288.14 183.58 288.13 183.48 288.12 183.38 288.13 183.28 288.13 183.17 288.15 183.07 288.17 182.97 288.2 182.88 288.23 182.78 288.27 182.69 288.31 182.6 288.37 182.51 288.42 182.43 288.49 182.35 288.55 182.28 288.63 182.21 288.7 182.15 288.78 182.09 288.87 182.04 288.96 181.99 289.05 181.95 289.14 181.91 289.24 181.88 289.34 181.86 289.44 181.84 289.54 181.83 289.64 181.83 289.75"/></g><line class="cls-3" x1="186.96" y1="293.58" x2="145.56" y2="293.73"/><g id="ID000061"><polygon class="cls-6" points="170.12 293.68 167.24 291.99 167.21 295.33 170.12 293.68"/></g><g id="ID000062"><polygon class="cls-6" points="162.83 295.12 165.8 295.14 165.82 292.17 162.85 292.15 162.83 295.12"/></g><g id="ID000064"><text class="cls-7" transform="translate(202.5 250.6)">G</text></g><g id="ID000065"><text class="cls-7" transform="translate(202.5 242.48)">G</text></g><g id="ID000066"><text class="cls-7" transform="translate(202.73 234.36)">U</text></g><g id="ID000067"><text class="cls-8" transform="translate(202.96 226.23)">A</text></g><g id="ID000068"><line class="cls-3" x1="211.18" y1="222.58" x2="216.59" y2="222.58"/></g><g id="ID000069"><text class="cls-4" transform="translate(216.6 226.23)">120</text></g><g id="ID000070"><text class="cls-7" transform="translate(202.73 218.11)">U</text></g><g id="ID000071"><text class="cls-7" transform="translate(202.5 209.99)">G</text></g><g id="ID000072"><text class="cls-7" transform="translate(202.5 201.86)">G</text></g><g id="ID000073"><text class="cls-7" transform="translate(202.5 193.74)">G</text></g><g id="ID000074"><text class="cls-7" transform="translate(202.5 185.62)">G</text></g><g id="ID000075"><text class="cls-8" transform="translate(202.96 177.49)">A</text></g><g id="ID000076"><text class="cls-8" transform="translate(202.72 169.19)">A</text></g><g id="ID000077"><text class="cls-7" transform="translate(186.49 177.49)">U</text></g><g id="ID000078"><text class="cls-8" transform="translate(186.72 185.62)">A</text></g><g id="ID000079"><text class="cls-7" transform="translate(186.49 193.74)">C</text></g><g id="ID000080"><line class="cls-3" x1="184.1" y1="190.08" x2="178.69" y2="190.08"/></g><g id="ID000081"><text class="cls-4" transform="translate(164.68 193.74)">130</text></g><g id="ID000082"><text class="cls-7" transform="translate(186.49 201.86)">C</text></g><g id="ID000083"><text class="cls-7" transform="translate(186.49 209.99)">C</text></g><g id="ID000084"><text class="cls-8" transform="translate(186.72 218.11)">A</text></g><g id="ID000085"><text class="cls-7" transform="translate(186.49 226.23)">U</text></g><g id="ID000086"><text class="cls-8" transform="translate(186.72 234.36)">A</text></g><g id="ID000087"><text class="cls-7" transform="translate(186.49 242.48)">C</text></g><g id="ID000088"><text class="cls-7" transform="translate(186.49 250.6)">C</text></g><g id="ID000089"><line class="cls-3" x1="202.51" y1="246.95" x2="192.77" y2="246.95"/></g><g id="ID000090"><line class="cls-3" x1="202.51" y1="238.82" x2="192.77" y2="238.82"/></g><g id="ID000091"><line class="cls-3" x1="202.51" y1="230.7" x2="192.77" y2="230.7"/></g><g id="ID000092"><line class="cls-3" x1="202.51" y1="222.58" x2="192.77" y2="222.58"/></g><g id="ID000093"><line class="cls-3" x1="202.51" y1="214.45" x2="192.77" y2="214.45"/></g><g id="ID000094"><line class="cls-3" x1="202.51" y1="206.33" x2="192.77" y2="206.33"/></g><g id="ID000095"><line class="cls-3" x1="202.51" y1="198.21" x2="192.77" y2="198.21"/></g><g id="ID000096"><line class="cls-3" x1="202.51" y1="190.08" x2="192.77" y2="190.08"/></g><g id="ID000097"><line class="cls-3" x1="202.51" y1="181.96" x2="192.77" y2="181.96"/></g><g id="ID000098"><polygon class="cls-6" points="201.86 181.96 198.7 180.13 198.7 183.79 201.86 181.96"/></g><g id="ID000099"><polygon class="cls-6" points="193.9 183.59 197.15 183.59 197.15 180.34 193.9 180.34 193.9 183.59"/></g><g id="ID000100"><line class="cls-3" x1="154.18" y1="178.25" x2="203.54" y2="177.54"/></g><g id="ID000101"><polygon class="cls-5" points="174.55 178.01 174.56 178.12 174.57 178.22 174.58 178.32 174.61 178.42 174.64 178.52 174.68 178.62 174.72 178.71 174.77 178.8 174.82 178.89 174.88 178.97 174.94 179.05 175.01 179.13 175.09 179.2 175.17 179.27 175.25 179.33 175.34 179.38 175.43 179.43 175.52 179.48 175.62 179.52 175.72 179.55 175.81 179.57 175.91 179.59 176.02 179.61 176.12 179.62 176.22 179.62 176.33 179.61 176.43 179.6 176.53 179.58 176.63 179.55 176.73 179.52 176.82 179.48 176.92 179.44 177.01 179.39 177.09 179.33 177.18 179.27 177.26 179.2 177.33 179.13 177.4 179.06 177.47 178.98 177.53 178.89 177.58 178.81 177.63 178.71 177.67 178.62 177.71 178.53 177.74 178.43 177.76 178.33 177.78 178.22 177.79 178.12 177.8 178.02 177.8 177.92 177.79 177.81 177.78 177.71 177.75 177.61 177.73 177.51 177.69 177.41 177.65 177.32 177.61 177.23 177.56 177.14 177.5 177.05 177.44 176.97 177.37 176.89 177.3 176.82 177.22 176.75 177.14 176.68 177.06 176.63 176.97 176.57 176.88 176.53 176.78 176.48 176.68 176.45 176.59 176.42 176.49 176.4 176.38 176.38 176.28 176.37 176.18 176.37 176.07 176.37 175.97 176.38 175.87 176.4 175.77 176.42 175.67 176.45 175.57 176.48 175.48 176.52 175.39 176.57 175.3 176.62 175.21 176.68 175.13 176.75 175.06 176.81 174.98 176.89 174.91 176.96 174.85 177.05 174.79 177.13 174.74 177.22 174.7 177.31 174.66 177.41 174.62 177.51 174.6 177.6 174.57 177.71 174.56 177.81 174.55 177.91 174.55 178.01"/></g><g id="ID000102"><polygon class="cls-5" points="182 176.28 178.75 176.33 178.8 179.58 182.05 179.53 182 176.28"/></g><line class="cls-3" x1="163.84" y1="198.15" x2="164" y2="165"/><polygon class="cls-6" points="163.99 187.97 165.85 184.82 162.16 184.74 163.99 187.97"/><polygon class="cls-6" points="164.03 179.95 163.92 179.95 163.82 179.96 163.72 179.97 163.62 179.99 163.52 180.02 163.42 180.05 163.32 180.09 163.23 180.14 163.14 180.19 163.05 180.25 162.97 180.31 162.89 180.38 162.82 180.45 162.75 180.53 162.69 180.61 162.63 180.69 162.58 180.78 162.53 180.87 162.49 180.97 162.46 181.07 162.43 181.17 162.41 181.27 162.39 181.37 162.38 181.47 162.38 181.58 162.38 181.68 162.4 181.78 162.41 181.89 162.44 181.99 162.47 182.09 162.5 182.19 162.55 182.28 162.6 182.38 162.65 182.46 162.71 182.55 162.78 182.63 162.85 182.71 162.92 182.78 163 182.85 163.08 182.92 163.17 182.97 163.26 183.03 163.35 183.07 163.45 183.11 163.55 183.15 163.65 183.18 163.75 183.2 163.85 183.21 163.96 183.22 164.06 183.22 164.17 183.22 164.27 183.21 164.37 183.19 164.47 183.17 164.57 183.14 164.67 183.1 164.76 183.06 164.85 183.01 164.94 182.96 165.03 182.9 165.11 182.83 165.18 182.76 165.25 182.69 165.32 182.61 165.38 182.52 165.44 182.44 165.48 182.35 165.53 182.25 165.56 182.16 165.6 182.06 165.62 181.96 165.64 181.86 165.65 181.75 165.66 181.65 165.66 181.54 165.65 181.44 165.63 181.34 165.61 181.24 165.59 181.13 165.55 181.04 165.51 180.94 165.47 180.84 165.42 180.75 165.36 180.67 165.3 180.58 165.23 180.5 165.16 180.43 165.08 180.35 165 180.29 164.91 180.23 164.82 180.17 164.73 180.12 164.64 180.08 164.54 180.04 164.44 180.01 164.34 179.99 164.24 179.97 164.13 179.96 164.03 179.95"/><g id="ID000106"><line class="cls-3" x1="202.94" y1="165.9" x2="190.2" y2="171.23"/></g><g id="ID000107"><polygon class="cls-5" points="200.47 166.93 196.84 166.47 198.25 169.84 200.47 166.93"/></g><g id="ID000108"><polygon class="cls-5" points="193.12 170 193.17 170.1 193.22 170.19 193.27 170.28 193.33 170.36 193.39 170.44 193.46 170.51 193.54 170.59 193.62 170.65 193.7 170.71 193.79 170.77 193.88 170.82 193.97 170.86 194.07 170.9 194.16 170.94 194.26 170.96 194.37 170.98 194.47 170.99 194.57 171 194.67 171 194.78 170.99 194.88 170.98 194.98 170.96 195.08 170.94 195.18 170.9 195.27 170.87 195.37 170.82 195.46 170.77 195.54 170.72 195.63 170.65 195.71 170.59 195.78 170.52 195.85 170.44 195.91 170.36 195.97 170.28 196.03 170.19 196.08 170.1 196.12 170 196.16 169.91 196.19 169.81 196.21 169.71 196.23 169.61 196.24 169.51 196.25 169.4 196.25 169.3 196.24 169.2 196.22 169.09 196.2 168.99 196.18 168.9 196.14 168.8 196.1 168.7 196.06 168.61 196 168.52 195.95 168.44 195.88 168.35 195.82 168.28 195.75 168.2 195.67 168.13 195.59 168.07 195.5 168.01 195.41 167.96 195.32 167.91 195.23 167.87 195.13 167.83 195.03 167.8 194.93 167.78 194.83 167.76 194.73 167.75 194.62 167.75 194.52 167.75 194.42 167.76 194.32 167.78 194.22 167.8 194.12 167.83 194.02 167.87 193.93 167.91 193.83 167.96 193.75 168.01 193.66 168.07 193.58 168.13 193.5 168.2 193.43 168.27 193.36 168.35 193.3 168.43 193.24 168.52 193.19 168.61 193.15 168.7 193.1 168.8 193.07 168.89 193.04 168.99 193.02 169.09 193.01 169.19 193 169.3 193 169.4 193 169.5 193.01 169.61 193.03 169.71 193.06 169.81 193.09 169.91 193.12 170"/></g><g id="ID000110"><text class="cls-11" transform="translate(123.3 283.09)">G</text></g><g id="ID000111"><text class="cls-11" transform="translate(115.41 279.03)">C</text></g><g id="ID000112"><text class="cls-11" transform="translate(123.3 274.97)">G</text></g><g id="ID000113"><text class="cls-11" transform="translate(123.53 266.85)">C</text></g><g id="ID000114"><text class="cls-11" transform="translate(123.3 258.72)">G</text></g><g id="ID000115"><text class="cls-11" transform="translate(123.53 250.6)">C</text></g><g id="ID000116"><text class="cls-11" transform="translate(123.53 242.48)">C</text></g><g id="ID000117"><text class="cls-11" transform="translate(123.53 234.36)">C</text></g><g id="ID000118"><text class="cls-11" transform="translate(123.3 226.23)">G</text></g><g id="ID000119"><line class="cls-3" x1="121.15" y1="222.58" x2="115.73" y2="222.58"/></g><g id="ID000120"><text class="cls-4" transform="translate(106.4 226.23)">20</text></g><g id="ID000121"><text class="cls-12" transform="translate(123.76 218.11)">A</text></g><g id="ID000122"><text class="cls-11" transform="translate(123.3 209.99)">G</text></g><g id="ID000123"><text class="cls-12" transform="translate(123.76 201.86)">A</text></g><g id="ID000124"><text class="cls-11" transform="translate(123.53 193.74)">U</text></g><g id="ID000125"><text class="cls-11" transform="translate(139.54 193.74)">G</text></g><g id="ID000126"><text class="cls-11" transform="translate(139.54 201.86)">G</text></g><g id="ID000127"><text class="cls-11" transform="translate(139.78 209.99)">C</text></g><g id="ID000128"><line class="cls-3" x1="148.22" y1="206.33" x2="153.64" y2="206.33"/></g><g id="ID000129"><text class="cls-4" transform="translate(153.64 209.99)">70</text></g><g id="ID000130"><text class="cls-11" transform="translate(139.54 218.11)">G</text></g><g id="ID000131"><text class="cls-12" transform="translate(140.01 226.23)">A</text></g><g id="ID000132"><text class="cls-11" transform="translate(139.54 234.36)">G</text></g><g id="ID000133"><text class="cls-11" transform="translate(139.54 242.48)">G</text></g><g id="ID000134"><text class="cls-11" transform="translate(139.54 250.6)">G</text></g><g id="ID000135"><text class="cls-11" transform="translate(139.78 258.72)">C</text></g><g id="ID000136"><text class="cls-11" transform="translate(139.54 266.85)">G</text></g><g id="ID000137"><text class="cls-11" transform="translate(139.78 274.97)">C</text></g><g id="ID000138"><text class="cls-11" transform="translate(139.78 283.09)">C</text></g><g id="ID000139"><text class="cls-13" transform="translate(273.58 292.28)">G</text></g><g id="ID000140"><line class="cls-3" x1="282.26" y1="288.62" x2="287.67" y2="288.62"/></g><g id="ID000141"><text class="cls-4" transform="translate(287.67 292.28)">80</text></g><g id="ID000142"><line class="cls-3" x1="129.81" y1="279.44" x2="139.56" y2="279.44"/></g><g id="ID000143"><polygon class="cls-5" points="136.31 279.44 136.31 279.34 136.3 279.23 136.28 279.13 136.26 279.03 136.23 278.93 136.19 278.84 136.15 278.74 136.1 278.65 136.05 278.56 135.99 278.48 135.93 278.39 135.86 278.32 135.79 278.25 135.71 278.18 135.63 278.12 135.54 278.06 135.45 278.01 135.36 277.96 135.26 277.92 135.17 277.89 135.07 277.86 134.97 277.84 134.87 277.82 134.76 277.82 134.66 277.81 134.56 277.82 134.45 277.83 134.35 277.85 134.25 277.87 134.15 277.9 134.06 277.94 133.96 277.98 133.87 278.03 133.79 278.09 133.7 278.15 133.62 278.21 133.55 278.28 133.47 278.36 133.41 278.44 133.35 278.52 133.29 278.61 133.24 278.69 133.2 278.79 133.16 278.88 133.13 278.98 133.1 279.08 133.08 279.18 133.07 279.29 133.06 279.39 133.06 279.49 133.07 279.59 133.08 279.7 133.1 279.8 133.13 279.9 133.16 280 133.2 280.09 133.24 280.18 133.29 280.27 133.35 280.36 133.41 280.44 133.47 280.52 133.55 280.6 133.62 280.67 133.7 280.73 133.79 280.79 133.87 280.85 133.96 280.89 134.06 280.94 134.15 280.98 134.25 281.01 134.35 281.03 134.45 281.05 134.56 281.06 134.66 281.06 134.76 281.06 134.87 281.05 134.97 281.04 135.07 281.02 135.17 280.99 135.26 280.96 135.36 280.92 135.45 280.87 135.54 280.82 135.63 280.76 135.71 280.7 135.79 280.63 135.86 280.56 135.93 280.48 135.99 280.4 136.05 280.32 136.1 280.23 136.15 280.14 136.19 280.04 136.23 279.95 136.26 279.85 136.28 279.75 136.3 279.64 136.31 279.54 136.31 279.44"/></g><g id="ID000144"><line class="cls-3" x1="129.81" y1="271.32" x2="139.56" y2="271.32"/></g><g id="ID000145"><line class="cls-3" x1="133.73" y1="276.6" x2="250.69" y2="276.2"/></g><g id="ID000146"><polygon class="cls-6" points="203.81 276.4 200.64 274.58 200.65 278.24 203.81 276.4"/></g><g id="ID000147"><line class="cls-3" x1="129.81" y1="263.19" x2="139.56" y2="263.19"/></g><g id="ID000148"><line class="cls-3" x1="129.81" y1="255.07" x2="139.56" y2="255.07"/></g><g id="ID000149"><line class="cls-3" x1="129.81" y1="246.95" x2="139.56" y2="246.95"/></g><g id="ID000150"><line class="cls-3" x1="129.81" y1="238.82" x2="139.56" y2="238.82"/></g><g id="ID000151"><line class="cls-3" x1="129.81" y1="230.7" x2="139.56" y2="230.7"/></g><g id="ID000152"><line class="cls-3" x1="129.81" y1="222.58" x2="139.56" y2="222.58"/></g><g id="ID000153"><polygon class="cls-6" points="130.46 222.58 133.63 224.41 133.63 220.75 130.46 222.58"/></g><g id="ID000154"><polygon class="cls-6" points="138.42 220.95 135.17 220.95 135.17 224.2 138.42 224.2 138.42 220.95"/></g><g id="ID000155"><line class="cls-3" x1="129.81" y1="214.45" x2="139.56" y2="214.45"/></g><g id="ID000156"><polygon class="cls-6" points="130.95 216.08 134.2 216.08 134.2 212.83 130.95 212.83 130.95 216.08"/></g><g id="ID000157"><polygon class="cls-6" points="138.91 214.45 135.74 212.63 135.74 216.28 138.91 214.45"/></g><g id="ID000158"><line class="cls-3" x1="129.81" y1="206.33" x2="139.56" y2="206.33"/></g><g id="ID000159"><polygon class="cls-5" points="136.31 206.33 136.31 206.23 136.3 206.12 136.28 206.02 136.26 205.92 136.23 205.82 136.19 205.73 136.15 205.63 136.1 205.54 136.05 205.45 135.99 205.37 135.93 205.29 135.86 205.21 135.79 205.14 135.71 205.07 135.63 205.01 135.54 204.95 135.45 204.9 135.36 204.85 135.26 204.81 135.17 204.78 135.07 204.75 134.97 204.73 134.87 204.72 134.76 204.71 134.66 204.71 134.56 204.71 134.45 204.72 134.35 204.74 134.25 204.76 134.15 204.79 134.06 204.83 133.96 204.88 133.87 204.92 133.79 204.98 133.7 205.04 133.62 205.1 133.55 205.17 133.47 205.25 133.41 205.33 133.35 205.41 133.29 205.5 133.24 205.59 133.2 205.68 133.16 205.77 133.13 205.87 133.1 205.97 133.08 206.07 133.07 206.18 133.06 206.28 133.06 206.38 133.07 206.49 133.08 206.59 133.1 206.69 133.13 206.79 133.16 206.89 133.2 206.98 133.24 207.07 133.29 207.16 133.35 207.25 133.41 207.34 133.47 207.41 133.55 207.49 133.62 207.56 133.7 207.62 133.79 207.68 133.87 207.74 133.96 207.79 134.06 207.83 134.15 207.87 134.25 207.9 134.35 207.92 134.45 207.94 134.56 207.95 134.66 207.96 134.76 207.95 134.87 207.94 134.97 207.93 135.07 207.91 135.17 207.88 135.26 207.85 135.36 207.81 135.45 207.76 135.54 207.71 135.63 207.65 135.71 207.59 135.79 207.52 135.86 207.45 135.93 207.37 135.99 207.29 136.05 207.21 136.1 207.12 136.15 207.03 136.19 206.93 136.23 206.84 136.26 206.74 136.28 206.64 136.3 206.54 136.31 206.43 136.31 206.33"/></g><g id="ID000160"><line class="cls-3" x1="129.81" y1="198.21" x2="139.56" y2="198.21"/></g><g id="ID000161"><polygon class="cls-5" points="136.31 198.21 136.31 198.1 136.3 198 136.28 197.9 136.26 197.8 136.23 197.7 136.19 197.6 136.15 197.51 136.1 197.42 136.05 197.33 135.99 197.24 135.93 197.16 135.86 197.09 135.79 197.01 135.71 196.95 135.63 196.88 135.54 196.83 135.45 196.78 135.36 196.73 135.26 196.69 135.17 196.66 135.07 196.63 134.97 196.61 134.87 196.59 134.76 196.58 134.66 196.58 134.56 196.59 134.45 196.6 134.35 196.62 134.25 196.64 134.15 196.67 134.06 196.71 133.96 196.75 133.87 196.8 133.79 196.85 133.7 196.91 133.62 196.98 133.55 197.05 133.47 197.12 133.41 197.2 133.35 197.29 133.29 197.37 133.24 197.46 133.2 197.56 133.16 197.65 133.13 197.75 133.1 197.85 133.08 197.95 133.07 198.05 133.06 198.16 133.06 198.26 133.07 198.36 133.08 198.46 133.1 198.56 133.13 198.66 133.16 198.76 133.2 198.86 133.24 198.95 133.29 199.04 133.35 199.13 133.41 199.21 133.47 199.29 133.55 199.37 133.62 199.44 133.7 199.5 133.79 199.56 133.87 199.61 133.96 199.66 134.06 199.71 134.15 199.74 134.25 199.77 134.35 199.8 134.45 199.81 134.56 199.83 134.66 199.83 134.76 199.83 134.87 199.82 134.97 199.81 135.07 199.79 135.17 199.76 135.26 199.72 135.36 199.69 135.45 199.64 135.54 199.59 135.63 199.53 135.71 199.47 135.79 199.4 135.86 199.33 135.93 199.25 135.99 199.17 136.05 199.09 136.1 199 136.15 198.91 136.19 198.81 136.23 198.71 136.26 198.62 136.28 198.51 136.3 198.41 136.31 198.31 136.31 198.21"/></g><g id="ID000163"><text class="cls-9" transform="translate(188.55 301.53)">U</text></g><g id="ID000164"><text class="cls-9" transform="translate(188.55 309.65)">C</text></g><g id="ID000165"><text class="cls-14" transform="translate(188.78 317.77)">A</text></g><g id="ID000166"><text class="cls-9" transform="translate(188.55 325.9)">C</text></g><g id="ID000167"><text class="cls-9" transform="translate(188.31 334.02)">G</text></g><g id="ID000168"><text class="cls-9" transform="translate(188.31 342.14)">G</text></g><g id="ID000169"><text class="cls-14" transform="translate(188.78 350.26)">A</text></g><g id="ID000170"><text class="cls-9" transform="translate(188.31 358.39)">G</text></g><g id="ID000171"><text class="cls-9" transform="translate(188.31 366.51)">G</text></g><g id="ID000172"><line class="cls-3" x1="196.99" y1="362.86" x2="202.41" y2="362.86"/></g><g id="ID000173"><text class="cls-4" transform="translate(202.41 366.51)">150</text></g><g id="ID000174"><text class="cls-9" transform="translate(184.49 374.63)">U</text></g><g id="ID000175"><text class="cls-9" transform="translate(176.36 374.63)">C</text></g><g id="ID000176"><text class="cls-9" transform="translate(172.3 366.51)">U</text></g><g id="ID000177"><text class="cls-9" transform="translate(172.3 358.39)">C</text></g><g id="ID000178"><text class="cls-9" transform="translate(172.3 350.26)">U</text></g><g id="ID000179"><text class="cls-9" transform="translate(172.3 342.14)">C</text></g><g id="ID000180"><text class="cls-9" transform="translate(172.3 334.02)">C</text></g><g id="ID000181"><text class="cls-9" transform="translate(172.07 325.9)">G</text></g><g id="ID000182"><text class="cls-9" transform="translate(172.3 317.77)">U</text></g><g id="ID000183"><text class="cls-9" transform="translate(172.07 309.65)">G</text></g><g id="ID000184"><line class="cls-3" x1="171.92" y1="322.99" x2="166.5" y2="322.99"/></g><g id="ID000185"><text class="cls-4" transform="translate(152.5 326.65)">160</text></g><g id="ID000186"><text class="cls-9" transform="translate(172.07 301.53)">G</text></g><g id="ID000187"><text class="cls-14" transform="translate(172.53 293.4)">A</text></g><g id="ID000188"><text class="cls-1" transform="translate(139.54 293.25)">G</text></g><g id="ID000189"><polygon class="cls-5" points="181.83 297.87 181.83 297.97 181.84 298.08 181.86 298.18 181.88 298.28 181.91 298.38 181.95 298.48 181.99 298.57 182.04 298.66 182.09 298.75 182.15 298.83 182.21 298.92 182.28 298.99 182.35 299.06 182.43 299.13 182.51 299.19 182.6 299.25 182.69 299.3 182.78 299.35 182.88 299.39 182.97 299.42 183.07 299.45 183.17 299.47 183.28 299.49 183.38 299.49 183.48 299.5 183.58 299.49 183.69 299.48 183.79 299.46 183.89 299.44 183.99 299.41 184.08 299.37 184.18 299.33 184.27 299.28 184.36 299.22 184.44 299.16 184.52 299.1 184.6 299.03 184.67 298.95 184.73 298.88 184.79 298.79 184.85 298.7 184.9 298.62 184.94 298.52 184.98 298.43 185.01 298.33 185.04 298.23 185.06 298.13 185.07 298.02 185.08 297.92 185.08 297.82 185.07 297.72 185.06 297.61 185.04 297.51 185.01 297.41 184.98 297.31 184.94 297.22 184.9 297.13 184.85 297.04 184.79 296.95 184.73 296.87 184.67 296.79 184.6 296.71 184.52 296.64 184.44 296.58 184.36 296.52 184.27 296.46 184.18 296.42 184.08 296.37 183.99 296.34 183.89 296.31 183.79 296.28 183.69 296.26 183.58 296.25 183.48 296.25 183.38 296.25 183.28 296.26 183.17 296.27 183.07 296.29 182.97 296.32 182.88 296.35 182.78 296.39 182.69 296.44 182.6 296.49 182.51 296.55 182.43 296.61 182.35 296.68 182.28 296.75 182.21 296.83 182.15 296.91 182.09 296.99 182.04 297.08 181.99 297.17 181.95 297.27 181.91 297.36 181.88 297.46 181.86 297.56 181.84 297.67 181.83 297.77 181.83 297.87"/></g><g id="ID000190"><line class="cls-3" x1="188.33" y1="305.99" x2="178.58" y2="305.99"/></g><g id="ID000191"><line class="cls-3" x1="188.33" y1="314.12" x2="178.58" y2="314.12"/></g><g id="ID000192"><line class="cls-3" x1="188.33" y1="322.24" x2="178.58" y2="322.24"/></g><g id="ID000193"><line class="cls-3" x1="188.33" y1="330.36" x2="178.58" y2="330.36"/></g><g id="ID000194"><line class="cls-3" x1="188.33" y1="338.49" x2="178.58" y2="338.49"/></g><g id="ID000195"><line class="cls-3" x1="188.33" y1="346.61" x2="178.58" y2="346.61"/></g><g id="ID000196"><line class="cls-3" x1="188.33" y1="354.73" x2="178.58" y2="354.73"/></g><g id="ID000198"><text class="cls-11" transform="translate(123.3 183.59)">G</text></g><g id="ID000199"><text class="cls-12" transform="translate(123.76 175.46)">A</text></g><g id="ID000200"><text class="cls-11" transform="translate(113.14 173.43)">G</text></g><g id="ID000201"><text class="cls-11" transform="translate(123.53 165.31)">U</text></g><g id="ID000202"><text class="cls-12" transform="translate(123.76 157.19)">A</text></g><g id="ID000203"><text class="cls-11" transform="translate(123.3 149.06)">G</text></g><g id="ID000204"><line class="cls-3" x1="121.15" y1="145.41" x2="115.73" y2="145.41"/></g><g id="ID000205"><text class="cls-4" transform="translate(106.4 149.06)">30</text></g><g id="ID000206"><text class="cls-11" transform="translate(123.3 140.94)">G</text></g><g id="ID000207"><text class="cls-11" transform="translate(123.53 132.81)">C</text></g><g id="ID000208"><text class="cls-11" transform="translate(123.53 124.69)">U</text></g><g id="ID000209"><text class="cls-11" transform="translate(123.3 116.57)">G</text></g><g id="ID000210"><text class="cls-11" transform="translate(123.53 108.44)">U</text></g><g id="ID000211"><text class="cls-11" transform="translate(123.53 100.32)">C</text></g><g id="ID000212"><text class="cls-11" transform="translate(123.53 92.2)">C</text></g><g id="ID000213"><text class="cls-11" transform="translate(123.53 84.08)">C</text></g><g id="ID000214"><text class="cls-12" transform="translate(123.76 75.95)">A</text></g><g id="ID000215"><text class="cls-11" transform="translate(123.53 67.83)">U</text></g><g id="ID000216"><line class="cls-3" x1="121.15" y1="64.17" x2="115.73" y2="64.17"/></g><g id="ID000217"><text class="cls-4" transform="translate(106.4 67.83)">40</text></g><g id="ID000218"><text class="cls-11" transform="translate(123.53 57.67)">C</text></g><g id="ID000219"><text class="cls-11" transform="translate(139.78 57.67)">U</text></g><g id="ID000220"><text class="cls-11" transform="translate(139.78 67.83)">C</text></g><g id="ID000221"><text class="cls-11" transform="translate(139.54 75.95)">G</text></g><g id="ID000222"><text class="cls-11" transform="translate(139.54 84.08)">G</text></g><g id="ID000223"><text class="cls-11" transform="translate(139.54 92.2)">G</text></g><g id="ID000224"><text class="cls-11" transform="translate(139.54 100.32)">G</text></g><g id="ID000225"><text class="cls-12" transform="translate(140.01 108.44)">A</text></g><g id="ID000226"><text class="cls-11" transform="translate(139.78 116.57)">C</text></g><g id="ID000227"><text class="cls-11" transform="translate(139.54 124.69)">G</text></g><g id="ID000228"><line class="cls-3" x1="148.22" y1="121.04" x2="153.64" y2="121.04"/></g><g id="ID000229"><text class="cls-4" transform="translate(153.64 124.69)">60</text></g><g id="ID000230"><text class="cls-11" transform="translate(139.54 132.81)">G</text></g><g id="ID000231"><text class="cls-11" transform="translate(139.78 140.94)">C</text></g><g id="ID000232"><text class="cls-11" transform="translate(139.78 149.06)">U</text></g><g id="ID000233"><text class="cls-11" transform="translate(139.54 157.19)">G</text></g><g id="ID000234"><text class="cls-12" transform="translate(140.01 165.31)">A</text></g><g id="ID000235"><text class="cls-12" transform="translate(140.01 175.46)">A</text></g><g id="ID000236"><text class="cls-12" transform="translate(140.01 183.59)">A</text></g><g id="ID000237"><line class="cls-3" x1="129.81" y1="179.93" x2="139.56" y2="179.93"/></g><g id="ID000238"><polygon class="cls-6" points="130.46 179.93 133.63 181.76 133.63 178.1 130.46 179.93"/></g><g id="ID000239"><polygon class="cls-6" points="138.42 178.31 135.17 178.31 135.17 181.56 138.42 181.56 138.42 178.31"/></g><g id="ID000240"><line class="cls-3" x1="129.81" y1="171.81" x2="139.56" y2="171.81"/></g><g id="ID000241"><polygon class="cls-6" points="136.31 170.18 133.06 170.18 133.06 173.43 136.31 173.43 136.31 170.18"/></g><g id="ID000242"><line class="cls-3" x1="118.95" y1="167.75" x2="124.03" y2="163.68"/></g><g id="ID000243"><polygon class="cls-5" points="118.19 168.35 121.8 167.8 119.52 164.95 118.19 168.35"/></g><g id="ID000244"><polygon class="cls-5" points="123.39 162.11 120.85 164.14 122.88 166.68 125.42 164.65 123.39 162.11"/></g><g id="ID000245"><line class="cls-3" x1="129.81" y1="161.65" x2="139.56" y2="161.65"/></g><g id="ID000246"><polygon class="cls-6" points="130.95 161.65 130.95 161.75 130.96 161.86 130.98 161.96 131 162.06 131.03 162.16 131.06 162.26 131.11 162.35 131.15 162.44 131.21 162.53 131.26 162.62 131.33 162.7 131.4 162.77 131.47 162.85 131.55 162.91 131.63 162.98 131.72 163.03 131.81 163.08 131.9 163.13 131.99 163.17 132.09 163.2 132.19 163.23 132.29 163.25 132.39 163.27 132.5 163.28 132.6 163.28 132.7 163.27 132.8 163.26 132.91 163.24 133.01 163.22 133.1 163.19 133.2 163.15 133.29 163.11 133.39 163.06 133.47 163 133.56 162.94 133.64 162.88 133.71 162.81 133.78 162.74 133.85 162.66 133.91 162.57 133.97 162.49 134.02 162.4 134.06 162.3 134.1 162.21 134.13 162.11 134.16 162.01 134.18 161.91 134.19 161.81 134.2 161.7 134.2 161.6 134.19 161.5 134.18 161.4 134.16 161.29 134.13 161.19 134.1 161.1 134.06 161 134.02 160.91 133.97 160.82 133.91 160.73 133.85 160.65 133.78 160.57 133.71 160.49 133.64 160.42 133.56 160.36 133.47 160.3 133.39 160.25 133.29 160.2 133.2 160.15 133.1 160.12 133.01 160.09 132.91 160.06 132.8 160.04 132.7 160.03 132.6 160.03 132.5 160.03 132.39 160.04 132.29 160.05 132.19 160.07 132.09 160.1 131.99 160.13 131.9 160.17 131.81 160.22 131.72 160.27 131.63 160.33 131.55 160.39 131.47 160.46 131.4 160.53 131.33 160.61 131.26 160.69 131.21 160.77 131.15 160.86 131.11 160.95 131.06 161.05 131.03 161.15 131 161.24 130.98 161.34 130.96 161.45 130.95 161.55 130.95 161.65"/></g><g id="ID000247"><polygon class="cls-6" points="138.42 160.03 135.17 160.03 135.17 163.28 138.42 163.28 138.42 160.03"/></g><g id="ID000248"><line class="cls-3" x1="129.81" y1="153.53" x2="139.56" y2="153.53"/></g><g id="ID000249"><polygon class="cls-6" points="130.95 155.15 134.2 155.15 134.2 151.91 130.95 151.91 130.95 155.15"/></g><g id="ID000250"><polygon class="cls-6" points="138.91 153.53 135.74 151.7 135.74 155.36 138.91 153.53"/></g><g id="ID000251"><polygon class="cls-5" points="136.31 145.41 136.31 145.3 136.3 145.2 136.28 145.1 136.26 145 136.23 144.9 136.19 144.8 136.15 144.71 136.1 144.62 136.05 144.53 135.99 144.44 135.93 144.36 135.86 144.28 135.79 144.21 135.71 144.15 135.63 144.08 135.54 144.03 135.45 143.97 135.36 143.93 135.26 143.89 135.17 143.85 135.07 143.83 134.97 143.81 134.87 143.79 134.76 143.78 134.66 143.78 134.56 143.79 134.45 143.8 134.35 143.81 134.25 143.84 134.15 143.87 134.06 143.91 133.96 143.95 133.87 144 133.79 144.05 133.7 144.11 133.62 144.18 133.55 144.25 133.47 144.32 133.41 144.4 133.35 144.48 133.29 144.57 133.24 144.66 133.2 144.75 133.16 144.85 133.13 144.95 133.1 145.05 133.08 145.15 133.07 145.25 133.06 145.35 133.06 145.46 133.07 145.56 133.08 145.66 133.1 145.76 133.13 145.86 133.16 145.96 133.2 146.06 133.24 146.15 133.29 146.24 133.35 146.33 133.41 146.41 133.47 146.49 133.55 146.56 133.62 146.63 133.7 146.7 133.79 146.76 133.87 146.81 133.96 146.86 134.06 146.9 134.15 146.94 134.25 146.97 134.35 147 134.45 147.01 134.56 147.03 134.66 147.03 134.76 147.03 134.87 147.02 134.97 147.01 135.07 146.99 135.17 146.96 135.26 146.92 135.36 146.88 135.45 146.84 135.54 146.79 135.63 146.73 135.71 146.67 135.79 146.6 135.86 146.53 135.93 146.45 135.99 146.37 136.05 146.28 136.1 146.2 136.15 146.1 136.19 146.01 136.23 145.91 136.26 145.81 136.28 145.71 136.3 145.61 136.31 145.51 136.31 145.41"/></g><g id="ID000252"><line class="cls-3" x1="129.81" y1="137.28" x2="139.56" y2="137.28"/></g><g id="ID000253"><line class="cls-3" x1="129.81" y1="129.16" x2="139.56" y2="129.16"/></g><g id="ID000254"><polygon class="cls-5" points="136.31 121.04 136.31 120.93 136.3 120.83 136.28 120.73 136.26 120.63 136.23 120.53 136.19 120.43 136.15 120.34 136.1 120.25 136.05 120.16 135.99 120.07 135.93 119.99 135.86 119.92 135.79 119.84 135.71 119.78 135.63 119.71 135.54 119.66 135.45 119.6 135.36 119.56 135.26 119.52 135.17 119.48 135.07 119.46 134.97 119.44 134.87 119.42 134.76 119.41 134.66 119.41 134.56 119.42 134.45 119.43 134.35 119.45 134.25 119.47 134.15 119.5 134.06 119.54 133.96 119.58 133.87 119.63 133.79 119.68 133.7 119.74 133.62 119.81 133.55 119.88 133.47 119.95 133.41 120.03 133.35 120.11 133.29 120.2 133.24 120.29 133.2 120.38 133.16 120.48 133.13 120.58 133.1 120.68 133.08 120.78 133.07 120.88 133.06 120.98 133.06 121.09 133.07 121.19 133.08 121.29 133.1 121.39 133.13 121.49 133.16 121.59 133.2 121.69 133.24 121.78 133.29 121.87 133.35 121.96 133.41 122.04 133.47 122.12 133.55 122.19 133.62 122.26 133.7 122.33 133.79 122.39 133.87 122.44 133.96 122.49 134.06 122.53 134.15 122.57 134.25 122.6 134.35 122.63 134.45 122.64 134.56 122.66 134.66 122.66 134.76 122.66 134.87 122.65 134.97 122.64 135.07 122.61 135.17 122.59 135.26 122.55 135.36 122.51 135.45 122.47 135.54 122.42 135.63 122.36 135.71 122.3 135.79 122.23 135.86 122.16 135.93 122.08 135.99 122 136.05 121.91 136.1 121.83 136.15 121.73 136.19 121.64 136.23 121.54 136.26 121.44 136.28 121.34 136.3 121.24 136.31 121.14 136.31 121.04"/></g><g id="ID000255"><line class="cls-3" x1="129.81" y1="112.91" x2="139.56" y2="112.91"/></g><g id="ID000256"><line class="cls-3" x1="129.81" y1="104.79" x2="139.56" y2="104.79"/></g><g id="ID000257"><line class="cls-3" x1="129.81" y1="96.67" x2="139.56" y2="96.67"/></g><g id="ID000258"><line class="cls-3" x1="129.81" y1="88.54" x2="139.56" y2="88.54"/></g><g id="ID000259"><line class="cls-3" x1="129.81" y1="80.42" x2="139.56" y2="80.42"/></g><g id="ID000260"><line class="cls-3" x1="129.32" y1="62.45" x2="140.05" y2="55.74"/></g><g id="ID000261"><polygon class="cls-6" points="136.06 58.23 136.01 58.15 135.94 58.07 135.88 57.99 135.8 57.92 135.73 57.85 135.65 57.78 135.56 57.73 135.47 57.67 135.38 57.63 135.28 57.59 135.19 57.55 135.09 57.52 134.99 57.5 134.89 57.48 134.78 57.48 134.68 57.47 134.58 57.48 134.47 57.49 134.37 57.5 134.27 57.52 134.17 57.55 134.08 57.59 133.98 57.63 133.89 57.68 133.8 57.73 133.72 57.79 133.64 57.85 133.56 57.92 133.49 58 133.42 58.08 133.36 58.16 133.3 58.24 133.25 58.33 133.21 58.43 133.17 58.52 133.13 58.62 133.1 58.72 133.08 58.82 133.07 58.92 133.06 59.02 133.06 59.13 133.07 59.23 133.08 59.33 133.1 59.43 133.12 59.53 133.15 59.63 133.19 59.73 133.23 59.82 133.28 59.91 133.34 60 133.4 60.08 133.46 60.16 133.53 60.24 133.61 60.31 133.69 60.38 133.77 60.44 133.85 60.49 133.95 60.54 134.04 60.59 134.13 60.63 134.23 60.66 134.33 60.68 134.43 60.7 134.54 60.71 134.64 60.72 134.74 60.72 134.84 60.71 134.95 60.7 135.05 60.68 135.15 60.65 135.25 60.62 135.34 60.58 135.44 60.54 135.53 60.49 135.61 60.43 135.69 60.37 135.77 60.3 135.85 60.23 135.92 60.16 135.98 60.08 136.04 59.99 136.09 59.9 136.14 59.81 136.19 59.72 136.22 59.62 136.25 59.52 136.28 59.42 136.29 59.32 136.31 59.22 136.31 59.12 136.31 59.01 136.3 58.91 136.28 58.81 136.26 58.71 136.24 58.61 136.2 58.51 136.16 58.42 136.12 58.32 136.06 58.23"/></g><g id="ID000262"><line class="cls-3" x1="128.72" y1="56.45" x2="140.65" y2="69.87"/></g><g id="ID000263"><polygon class="cls-5" points="135.76 64.37 135.84 64.3 135.91 64.23 135.97 64.15 136.03 64.06 136.09 63.98 136.14 63.88 136.18 63.79 136.22 63.69 136.25 63.6 136.28 63.5 136.29 63.4 136.31 63.29 136.31 63.19 136.31 63.09 136.3 62.98 136.29 62.88 136.27 62.78 136.24 62.68 136.21 62.58 136.17 62.49 136.12 62.4 136.07 62.31 136.01 62.22 135.95 62.14 135.88 62.06 135.81 61.99 135.73 61.92 135.65 61.85 135.57 61.79 135.48 61.74 135.39 61.69 135.29 61.65 135.2 61.62 135.1 61.59 135 61.56 134.9 61.55 134.79 61.54 134.69 61.53 134.59 61.54 134.49 61.55 134.38 61.56 134.28 61.58 134.18 61.61 134.09 61.65 133.99 61.69 133.9 61.74 133.81 61.79 133.73 61.85 133.65 61.91 133.57 61.98 133.5 62.05 133.43 62.13 133.37 62.21 133.31 62.3 133.26 62.39 133.21 62.48 133.17 62.57 133.14 62.67 133.11 62.77 133.09 62.87 133.07 62.97 133.06 63.08 133.06 63.18 133.07 63.28 133.08 63.38 133.09 63.49 133.12 63.59 133.15 63.68 133.19 63.78 133.23 63.88 133.28 63.97 133.33 64.05 133.39 64.14 133.45 64.22 133.52 64.29 133.6 64.36 133.68 64.43 133.76 64.49 133.85 64.55 133.94 64.6 134.03 64.64 134.13 64.68 134.22 64.72 134.32 64.74 134.42 64.76 134.53 64.78 134.63 64.78 134.73 64.78 134.84 64.78 134.94 64.76 135.04 64.74 135.14 64.72 135.24 64.69 135.33 64.65 135.43 64.6 135.51 64.56 135.6 64.5 135.69 64.44 135.76 64.37"/></g><g id="ID000265"><text class="cls-12" transform="translate(123.87 48.92)">A</text></g><g id="ID000266"><text class="cls-11" transform="translate(313.65 127.44)">G</text></g><g id="ID000267"><text class="cls-11" transform="translate(305.83 127.38)">G</text></g><g id="ID000268"><text class="cls-11" transform="translate(297.71 127.38)">G</text></g><g id="ID000269"><text class="cls-11" transform="translate(289.59 127.38)">G</text></g><g id="ID000270"><text class="cls-12" transform="translate(281.93 127.38)">A</text></g><g id="ID000271"><text class="cls-11" transform="translate(273.34 127.38)">G</text></g><g id="ID000272"><text class="cls-11" transform="translate(265.22 127.38)">G</text></g><g id="ID000273"><text class="cls-12" transform="translate(257.56 127.38)">A</text></g><g id="ID000274"><line class="cls-3" x1="262.71" y1="119.23" x2="264.01" y2="113.98"/></g><g id="ID000275"><text class="cls-4" transform="translate(262.69 111.87)">50</text></g><g id="ID000276"><text class="cls-12" transform="translate(249.44 127.38)">A</text></g><g id="ID000277"><text class="cls-13" transform="translate(257.64 143.59)">U</text></g><g id="ID000278"><text class="cls-13" transform="translate(265.45 143.63)">C</text></g><g id="ID000279"><text class="cls-13" transform="translate(273.58 143.63)">C</text></g><g id="ID000280"><text class="cls-13" transform="translate(281.7 143.63)">U</text></g><g id="ID000281"><text class="cls-13" transform="translate(289.82 143.63)">C</text></g><g id="ID000282"><text class="cls-13" transform="translate(297.94 143.63)">C</text></g><g id="ID000283"><text class="cls-13" transform="translate(306.07 143.63)">C</text></g><g id="ID000284"><line class="cls-3" x1="314.39" y1="140.1" x2="319.81" y2="140.1"/></g><g id="ID000285"><text class="cls-4" transform="translate(322.1 143.39)">100</text></g><g id="ID000286"><line class="cls-3" x1="260.91" y1="120.11" x2="260.62" y2="49.11"/></g><g id="ID000287"><polygon class="cls-6" points="262.39 84.46 262.38 81.22 259.13 81.23 259.14 84.48 262.39 84.46"/></g><g id="ID000288"><polygon class="cls-6" points="260.73 77 260.63 77 260.53 77.01 260.43 77.03 260.32 77.05 260.23 77.08 260.13 77.12 260.04 77.16 259.94 77.2 259.86 77.26 259.77 77.32 259.69 77.38 259.61 77.45 259.54 77.52 259.48 77.6 259.41 77.69 259.36 77.77 259.3 77.86 259.26 77.95 259.22 78.05 259.19 78.15 259.16 78.25 259.14 78.35 259.12 78.45 259.12 78.55 259.12 78.65 259.12 78.76 259.13 78.86 259.15 78.96 259.18 79.06 259.21 79.16 259.24 79.25 259.29 79.35 259.34 79.44 259.39 79.53 259.45 79.61 259.52 79.69 259.59 79.77 259.66 79.84 259.74 79.9 259.82 79.96 259.91 80.02 260 80.07 260.1 80.11 260.19 80.15 260.29 80.18 260.39 80.21 260.49 80.23 260.59 80.24 260.69 80.25 260.8 80.25 260.9 80.24 261 80.22 261.1 80.2 261.2 80.18 261.3 80.15 261.4 80.11 261.49 80.06 261.58 80.01 261.67 79.96 261.75 79.89 261.83 79.83 261.9 79.76 261.97 79.68 262.04 79.6 262.1 79.52 262.15 79.43 262.2 79.34 262.24 79.24 262.28 79.15 262.31 79.05 262.33 78.95 262.35 78.85 262.36 78.74 262.36 78.64 262.36 78.54 262.35 78.44 262.34 78.33 262.32 78.23 262.29 78.13 262.25 78.04 262.21 77.94 262.17 77.85 262.12 77.76 262.06 77.67 262 77.59 261.93 77.51 261.86 77.44 261.78 77.37 261.7 77.31 261.61 77.25 261.52 77.2 261.43 77.15 261.34 77.11 261.24 77.08 261.14 77.05 261.04 77.03 260.94 77.01 260.84 77 260.73 77"/></g><g id="ID000289"><line class="cls-3" x1="317.37" y1="114.52" x2="301.17" y2="114.38"/></g><g id="ID000290"><polygon class="cls-5" points="313.01 114.49 313.01 114.38 313 114.28 312.98 114.18 312.96 114.08 312.93 113.98 312.9 113.88 312.86 113.79 312.81 113.69 312.76 113.61 312.7 113.52 312.64 113.44 312.57 113.36 312.5 113.29 312.42 113.22 312.34 113.16 312.25 113.1 312.16 113.05 312.07 113 311.98 112.96 311.88 112.92 311.78 112.9 311.68 112.87 311.58 112.86 311.47 112.85 311.37 112.85 311.27 112.85 311.17 112.86 311.06 112.88 310.96 112.9 310.87 112.93 310.77 112.97 310.67 113.01 310.58 113.06 310.5 113.11 310.41 113.17 310.33 113.23 310.25 113.3 310.18 113.38 310.12 113.46 310.05 113.54 310 113.63 309.94 113.72 309.9 113.81 309.86 113.9 309.83 114 309.8 114.1 309.78 114.2 309.77 114.3 309.76 114.41 309.76 114.51 309.76 114.61 309.78 114.72 309.8 114.82 309.82 114.92 309.85 115.02 309.89 115.11 309.93 115.2 309.98 115.3 310.04 115.38 310.1 115.47 310.16 115.55 310.23 115.62 310.31 115.69 310.39 115.76 310.47 115.82 310.56 115.87 310.65 115.92 310.74 115.97 310.84 116 310.94 116.03 311.04 116.06 311.14 116.08 311.24 116.09 311.34 116.1 311.45 116.1 311.55 116.09 311.65 116.07 311.75 116.05 311.85 116.03 311.95 115.99 312.05 115.96 312.14 115.91 312.23 115.86 312.31 115.8 312.4 115.74 312.48 115.67 312.55 115.6 312.62 115.53 312.68 115.45 312.74 115.36 312.8 115.27 312.84 115.18 312.89 115.09 312.92 114.99 312.95 114.89 312.98 114.79 312.99 114.69 313 114.59 313.01 114.49"/></g><g id="ID000291"><polygon class="cls-5" points="305.52 116.05 308.77 116.08 308.8 112.83 305.55 112.8 305.52 116.05"/></g><g id="ID000298"><line class="cls-3" x1="309.1" y1="126.98" x2="309.1" y2="136.72"/></g><g id="ID000299"><line class="cls-3" x1="300.98" y1="126.98" x2="300.98" y2="136.72"/></g><g id="ID000300"><line class="cls-3" x1="292.85" y1="126.98" x2="292.85" y2="136.72"/></g><g id="ID000301"><line class="cls-3" x1="284.73" y1="126.98" x2="284.73" y2="136.72"/></g><g id="ID000302"><line class="cls-3" x1="276.61" y1="126.98" x2="276.61" y2="136.72"/></g><g id="ID000303"><line class="cls-3" x1="268.48" y1="126.98" x2="268.48" y2="136.72"/></g><g id="ID000306"><line class="cls-3" x1="260.92" y1="150.27" x2="276.95" y2="150.36"/></g><g id="ID000307"><polygon class="cls-6" points="263.79 150.28 263.79 150.39 263.8 150.49 263.81 150.59 263.84 150.69 263.86 150.79 263.9 150.89 263.94 150.98 263.99 151.07 264.04 151.16 264.1 151.25 264.16 151.33 264.23 151.41 264.3 151.48 264.38 151.55 264.46 151.61 264.55 151.67 264.63 151.72 264.73 151.77 264.82 151.81 264.92 151.84 265.02 151.87 265.12 151.89 265.22 151.91 265.32 151.91 265.43 151.92 265.53 151.91 265.63 151.9 265.73 151.88 265.83 151.86 265.93 151.83 266.03 151.79 266.12 151.75 266.21 151.7 266.3 151.65 266.39 151.59 266.47 151.53 266.54 151.46 266.62 151.38 266.68 151.31 266.74 151.22 266.8 151.13 266.85 151.04 266.89 150.95 266.93 150.86 266.97 150.76 266.99 150.66 267.01 150.56 267.03 150.46 267.03 150.35 267.04 150.25 267.03 150.15 267.02 150.05 267 149.94 266.97 149.84 266.94 149.75 266.9 149.65 266.86 149.56 266.81 149.47 266.75 149.38 266.69 149.3 266.63 149.22 266.56 149.14 266.48 149.07 266.4 149.01 266.32 148.94 266.23 148.89 266.14 148.84 266.05 148.8 265.95 148.76 265.85 148.73 265.75 148.71 265.65 148.69 265.55 148.67 265.45 148.67 265.34 148.67 265.24 148.68 265.14 148.69 265.04 148.71 264.94 148.74 264.84 148.77 264.74 148.81 264.65 148.86 264.56 148.91 264.48 148.96 264.39 149.03 264.31 149.09 264.24 149.16 264.17 149.24 264.11 149.32 264.05 149.41 264 149.5 263.95 149.59 263.91 149.68 263.87 149.78 263.84 149.88 263.82 149.98 263.8 150.08 263.79 150.18 263.79 150.28"/></g><g id="ID000308"><polygon class="cls-6" points="271.27 148.7 268.02 148.68 268 151.93 271.25 151.95 271.27 148.7"/></g><g id="ID000315"><line class="cls-10" x1="308.99" y1="144.53" x2="309.23" y2="174.56"/></g><g id="ID000316"><polygon class="cls-5" points="311.53 156.09 310.33 157.45 309.93 158.81 309.74 160.16 309.15 162.88 308.52 160.17 308.31 158.82 307.89 157.47 306.66 156.13 311.53 156.09"/></g><g id="ID000318"><text class="cls-15" transform="translate(274.04 284.16)">A</text></g><g id="ID000319"><text class="cls-15" transform="translate(274.04 276.03)">A</text></g><g id="ID000320"><text class="cls-13" transform="translate(273.58 267.91)">G</text></g><g id="ID000321"><text class="cls-13" transform="translate(273.58 259.79)">G</text></g><g id="ID000322"><text class="cls-13" transform="translate(257.33 251.66)">G</text></g><g id="ID000323"><line class="cls-3" x1="255.18" y1="248.01" x2="249.76" y2="248.01"/></g><g id="ID000324"><text class="cls-16" transform="translate(236.38 251.66)">1<tspan class="cls-17" x="4.04" y="0">10</tspan></text></g><g id="ID000325"><text class="cls-13" transform="translate(257.56 259.79)">C</text></g><g id="ID000326"><text class="cls-13" transform="translate(257.56 267.91)">C</text></g><g id="ID000327"><text class="cls-13" transform="translate(257.56 276.03)">U</text></g><g id="ID000328"><line class="cls-3" x1="273.59" y1="272.38" x2="263.85" y2="272.38"/></g><g id="ID000329"><line class="cls-3" x1="273.59" y1="264.25" x2="263.85" y2="264.25"/></g><g id="ID000330"><line class="cls-10" x1="274.54" y1="253.83" x2="262.89" y2="242.18"/></g><g id="ID000331"><polygon class="cls-5" points="268.91 251.65 268.81 249.83 268.14 248.58 267.33 247.48 265.85 245.14 268.19 246.62 269.29 247.43 270.54 248.1 272.36 248.2 268.91 251.65"/></g><g id="ID000332"><line class="cls-3" x1="273.59" y1="256.13" x2="263.85" y2="256.13"/></g><g id="ID000334"><text class="cls-13" transform="translate(257.33 243.54)">G</text></g><g id="ID000335"><text class="cls-13" transform="translate(257.56 235.42)">U</text></g><g id="ID000336"><text class="cls-13" transform="translate(257.33 227.29)">G</text></g><g id="ID000337"><text class="cls-13" transform="translate(257.56 219.17)">C</text></g><g id="ID000338"><text class="cls-15" transform="translate(257.8 211.05)">A</text></g><g id="ID000339"><text class="cls-13" transform="translate(257.33 202.93)">G</text></g><g id="ID000340"><line class="cls-3" x1="255.18" y1="199.27" x2="249.76" y2="199.27"/></g><g id="ID000341"><text class="cls-4" transform="translate(240.43 202.93)">90</text></g><g id="ID000342"><text class="cls-15" transform="translate(257.8 194.8)">A</text></g><g id="ID000343"><text class="cls-13" transform="translate(257.33 186.68)">G</text></g><g id="ID000344"><text class="cls-13" transform="translate(257.56 178.56)">U</text></g><g id="ID000345"><text class="cls-13" transform="translate(273.58 178.56)">G</text></g><g id="ID000346"><text class="cls-13" transform="translate(273.81 186.68)">C</text></g><g id="ID000347"><text class="cls-13" transform="translate(273.81 194.8)">U</text></g><g id="ID000348"><text class="cls-13" transform="translate(273.81 202.93)">C</text></g><g id="ID000349"><text class="cls-13" transform="translate(273.81 211.05)">U</text></g><g id="ID000350"><text class="cls-13" transform="translate(273.58 219.17)">G</text></g><g id="ID000351"><text class="cls-13" transform="translate(273.81 227.29)">C</text></g><g id="ID000352"><text class="cls-15" transform="translate(274.04 235.42)">A</text></g><g id="ID000353"><text class="cls-13" transform="translate(273.81 243.54)">U</text></g><g id="ID000354"><polygon class="cls-5" points="270.34 239.88 270.34 239.78 270.33 239.68 270.31 239.58 270.29 239.48 270.26 239.38 270.23 239.28 270.19 239.19 270.14 239.09 270.09 239.01 270.03 238.92 269.96 238.84 269.89 238.76 269.82 238.69 269.74 238.62 269.66 238.56 269.58 238.5 269.49 238.45 269.39 238.41 269.3 238.37 269.2 238.33 269.1 238.31 269 238.28 268.9 238.27 268.8 238.26 268.69 238.26 268.59 238.26 268.49 238.28 268.39 238.29 268.29 238.32 268.19 238.35 268.09 238.39 268 238.43 267.91 238.48 267.82 238.53 267.74 238.59 267.65 238.66 267.58 238.73 267.51 238.8 267.44 238.88 267.38 238.96 267.32 239.05 267.27 239.14 267.23 239.23 267.19 239.33 267.16 239.43 267.13 239.53 267.12 239.63 267.1 239.73 267.1 239.83 267.1 239.94 267.1 240.04 267.12 240.14 267.13 240.24 267.16 240.34 267.19 240.44 267.23 240.54 267.27 240.63 267.32 240.72 267.38 240.81 267.44 240.89 267.51 240.97 267.58 241.04 267.65 241.11 267.74 241.18 267.82 241.24 267.91 241.29 268 241.34 268.09 241.38 268.19 241.42 268.29 241.45 268.39 241.47 268.49 241.49 268.59 241.5 268.69 241.51 268.8 241.51 268.9 241.5 269 241.49 269.1 241.46 269.2 241.44 269.3 241.4 269.39 241.36 269.49 241.32 269.58 241.26 269.66 241.21 269.74 241.15 269.82 241.08 269.89 241.01 269.96 240.93 270.03 240.85 270.09 240.76 270.14 240.68 270.19 240.58 270.23 240.49 270.26 240.39 270.29 240.29 270.31 240.19 270.33 240.09 270.34 239.99 270.34 239.88"/></g><g id="ID000355"><line class="cls-3" x1="263.85" y1="231.76" x2="273.59" y2="231.76"/></g><g id="ID000356"><line class="cls-3" x1="263.85" y1="223.64" x2="273.59" y2="223.64"/></g><g id="ID000357"><line class="cls-3" x1="263.85" y1="215.51" x2="273.59" y2="215.51"/></g><g id="ID000358"><line class="cls-3" x1="263.85" y1="207.39" x2="273.59" y2="207.39"/></g><g id="ID000359"><line class="cls-3" x1="263.85" y1="199.27" x2="273.59" y2="199.27"/></g><g id="ID000360"><line class="cls-3" x1="263.85" y1="191.15" x2="273.59" y2="191.15"/></g><g id="ID000361"><line class="cls-3" x1="263.85" y1="183.02" x2="273.59" y2="183.02"/></g><g id="ID000362"><polygon class="cls-5" points="270.34 174.9 270.34 174.8 270.33 174.69 270.31 174.59 270.29 174.49 270.26 174.39 270.23 174.29 270.19 174.2 270.14 174.11 270.09 174.02 270.03 173.94 269.96 173.85 269.89 173.78 269.82 173.71 269.74 173.64 269.66 173.57 269.58 173.52 269.49 173.47 269.39 173.42 269.3 173.38 269.2 173.35 269.1 173.32 269 173.3 268.9 173.28 268.8 173.28 268.69 173.27 268.59 173.28 268.49 173.29 268.39 173.31 268.29 173.33 268.19 173.36 268.09 173.4 268 173.44 267.91 173.49 267.82 173.55 267.74 173.61 267.65 173.67 267.58 173.74 267.51 173.82 267.44 173.9 267.38 173.98 267.32 174.06 267.27 174.15 267.23 174.25 267.19 174.34 267.16 174.44 267.13 174.54 267.12 174.64 267.1 174.74 267.1 174.85 267.1 174.95 267.1 175.05 267.12 175.16 267.13 175.26 267.16 175.36 267.19 175.46 267.23 175.55 267.27 175.64 267.32 175.73 267.38 175.82 267.44 175.9 267.51 175.98 267.58 176.06 267.65 176.13 267.74 176.19 267.82 176.25 267.91 176.31 268 176.35 268.09 176.4 268.19 176.43 268.29 176.47 268.39 176.49 268.49 176.51 268.59 176.52 268.69 176.52 268.8 176.52 268.9 176.51 269 176.5 269.1 176.48 269.2 176.45 269.3 176.42 269.39 176.38 269.49 176.33 269.58 176.28 269.66 176.22 269.74 176.16 269.82 176.09 269.89 176.02 269.96 175.94 270.03 175.86 270.09 175.78 270.14 175.69 270.19 175.6 270.23 175.5 270.26 175.41 270.29 175.31 270.31 175.21 270.33 175.1 270.34 175 270.34 174.9"/></g><g id="ID000364"><polyline class="cls-10" points="171.5 289.5 172 289.59 146.06 289.59"/></g><g id="ID000365"><polygon class="cls-5" points="164.4 292.03 163.05 290.81 161.69 290.41 160.34 290.2 157.63 289.59 160.34 288.98 161.69 288.78 163.05 288.38 164.4 287.16 164.4 292.03"/></g><g id="ID000368"><line class="cls-10" x1="145.78" y1="282.65" x2="246.99" y2="282.46"/></g><g id="ID000369"><polygon class="cls-5" points="201.64 280.33 202.87 281.44 204.1 281.8 205.34 281.99 207.81 282.54 205.34 283.1 204.11 283.28 202.88 283.65 201.65 284.77 201.64 280.33"/></g><line class="cls-10" x1="190.26" y1="275.03" x2="190.42" y2="287.05"/><g id="ID000373"><polygon class="cls-5" points="192.84 278.18 191.56 279.64 191.15 281.09 190.95 282.54 190.34 285.44 189.65 282.56 189.41 281.12 188.96 279.68 187.64 278.25 192.84 278.18"/></g><g id="ID000376"><line class="cls-10" x1="273.94" y1="241.34" x2="263.5" y2="246.55"/></g><g id="ID000377"><polygon class="cls-5" points="272.23 244.91 270.48 244.43 269.08 244.67 267.78 245.1 265.09 245.76 267.24 244.01 268.36 243.22 269.38 242.25 270.05 240.56 272.23 244.91"/></g><g id="ID000378"><polygon class="cls-5" points="220.44 44.37 221.79 45.59 223.15 45.99 224.5 46.19 227.21 46.8 224.5 47.41 223.15 47.62 221.79 48.02 220.44 49.24 220.44 44.37"/></g><polyline class="cls-10" points="130 46.78 130.14 46.8 316.15 46.8 317 46.76"/><g id="ID000381"><line class="cls-10" x1="261.45" y1="171.7" x2="261.08" y2="145.15"/></g><g id="ID000382"><polygon class="cls-5" points="258.86 160.42 260.06 159.04 260.44 157.68 260.62 156.32 261.18 153.61 261.84 156.3 262.06 157.65 262.5 159 263.74 160.33 258.86 160.42"/></g><text class="cls-18" transform="translate(81.57 140.52)">P2</text><text class="cls-19" transform="translate(288.4 233.3)">P3</text><text class="cls-20" transform="translate(157.96 229.87)">P4</text><text class="cls-21" transform="translate(90.76 332.51)">P1</text><text class="cls-22" transform="translate(202.81 330.11)">P5</text><text class="cls-23" transform="translate(7.03 20.29)"><tspan class="cls-24">L</tspan><tspan x="10.38" y="0">ysine Riboswitch</tspan></text><rect class="cls-25" x="130.26" y="281.78" width="9.74" height="4.87"/><text class="cls-26" transform="translate(131.33 285.86)">L<tspan class="cls-27" x="2.81" y="0">ys</tspan></text><text class="cls-28" transform="translate(116.42 387.33)">5&apos;</text><text class="cls-28" transform="translate(142.42 387.33)">3&apos;</text><line class="cls-3" x1="187" y1="293.55" x2="189" y2="295.55"/><line class="cls-3" x1="164" y1="198" x2="147" y2="198"/><line class="cls-3" x1="164" y1="165" x2="203" y2="165"/><line class="cls-3" x1="154" y1="178" x2="154" y2="190"/><line class="cls-3" x1="154" y1="190" x2="146" y2="190"/><line class="cls-10" x1="246.5" y1="282.5" x2="246.5" y2="289.5"/><line class="cls-10" x1="246.5" y1="289.5" x2="272.5" y2="289.5"/><line class="cls-3" x1="133.71" y1="276.45" x2="130.29" y2="273.55"/><line class="cls-29" x1="250.7" y1="276.23" x2="250.7" y2="282.57"/><line class="cls-30" x1="250.6" y1="282.5" x2="273.4" y2="282.5"/><line class="cls-10" x1="280.5" y1="174.5" x2="309.5" y2="174.5"/><line class="cls-3" x1="277" y1="150.32" x2="277" y2="143.67"/><line class="cls-3" x1="261" y1="150.15" x2="261" y2="144.85"/><g id="ID000306-2" data-name="ID000306"><line class="cls-3" x1="261" y1="155.95" x2="284.93" y2="156.04"/></g><g id="ID000307-2" data-name="ID000307"><polygon class="cls-6" points="269.2 155.97 269.2 156.07 269.21 156.17 269.23 156.28 269.25 156.38 269.27 156.47 269.31 156.57 269.35 156.67 269.4 156.76 269.45 156.85 269.51 156.93 269.57 157.01 269.64 157.09 269.71 157.16 269.79 157.23 269.87 157.29 269.96 157.35 270.05 157.41 270.14 157.45 270.23 157.49 270.33 157.53 270.43 157.55 270.53 157.57 270.63 157.59 270.74 157.6 270.84 157.6 270.94 157.6 271.04 157.59 271.14 157.57 271.25 157.55 271.34 157.51 271.44 157.48 271.53 157.44 271.63 157.39 271.71 157.34 271.8 157.28 271.88 157.21 271.95 157.14 272.03 157.07 272.09 156.99 272.15 156.91 272.21 156.82 272.26 156.73 272.31 156.64 272.35 156.54 272.38 156.44 272.4 156.34 272.42 156.24 272.44 156.14 272.44 156.04 272.44 155.93 272.44 155.83 272.43 155.73 272.41 155.63 272.38 155.53 272.35 155.43 272.31 155.33 272.27 155.24 272.22 155.15 272.17 155.06 272.1 154.98 272.04 154.9 271.97 154.83 271.89 154.75 271.81 154.69 271.73 154.63 271.64 154.57 271.55 154.53 271.46 154.48 271.36 154.44 271.26 154.41 271.16 154.39 271.06 154.37 270.96 154.36 270.86 154.35 270.75 154.35 270.65 154.36 270.55 154.38 270.45 154.4 270.35 154.42 270.25 154.46 270.15 154.5 270.06 154.54 269.97 154.59 269.89 154.65 269.8 154.71 269.73 154.78 269.65 154.85 269.58 154.93 269.52 155.01 269.46 155.09 269.41 155.18 269.36 155.27 269.32 155.37 269.28 155.46 269.25 155.56 269.23 155.66 269.21 155.76 269.2 155.87 269.2 155.97"/></g><g id="ID000308-2" data-name="ID000308"><polygon class="cls-6" points="276.68 154.39 273.43 154.37 273.41 157.62 276.66 157.63 276.68 154.39"/></g><line class="cls-3" x1="285" y1="156.01" x2="285" y2="144"/><line class="cls-3" x1="261.12" y1="155.98" x2="261.12" y2="150.38"/><g id="ID000306-3" data-name="ID000306"><line class="cls-3" x1="261.05" y1="160.62" x2="293.3" y2="160.74"/></g><g id="ID000307-3" data-name="ID000307"><polygon class="cls-6" points="277.57 160.67 277.57 160.77 277.58 160.87 277.59 160.98 277.62 161.08 277.64 161.18 277.68 161.27 277.72 161.37 277.77 161.46 277.82 161.55 277.88 161.63 277.94 161.72 278.01 161.79 278.08 161.87 278.16 161.93 278.24 162 278.33 162.05 278.42 162.11 278.51 162.15 278.6 162.19 278.7 162.23 278.8 162.25 278.9 162.28 279 162.29 279.11 162.3 279.21 162.3 279.31 162.3 279.41 162.29 279.51 162.27 279.62 162.25 279.71 162.22 279.81 162.18 279.9 162.14 280 162.09 280.08 162.04 280.17 161.98 280.25 161.91 280.32 161.84 280.39 161.77 280.46 161.69 280.52 161.61 280.58 161.52 280.63 161.43 280.68 161.34 280.71 161.24 280.75 161.14 280.77 161.04 280.79 160.94 280.81 160.84 280.81 160.74 280.81 160.63 280.81 160.53 280.8 160.43 280.78 160.33 280.75 160.23 280.72 160.13 280.68 160.03 280.64 159.94 280.59 159.85 280.53 159.76 280.47 159.68 280.41 159.6 280.34 159.53 280.26 159.46 280.18 159.39 280.1 159.33 280.01 159.28 279.92 159.23 279.83 159.18 279.73 159.15 279.63 159.11 279.53 159.09 279.43 159.07 279.33 159.06 279.23 159.05 279.12 159.05 279.02 159.06 278.92 159.08 278.82 159.1 278.72 159.12 278.62 159.16 278.52 159.2 278.43 159.24 278.34 159.29 278.26 159.35 278.17 159.41 278.1 159.48 278.02 159.55 277.95 159.63 277.89 159.71 277.83 159.79 277.78 159.88 277.73 159.97 277.69 160.06 277.65 160.16 277.62 160.26 277.6 160.36 277.58 160.46 277.57 160.57 277.57 160.67"/></g><g id="ID000308-3" data-name="ID000308"><polygon class="cls-6" points="285.05 159.09 281.8 159.07 281.78 162.32 285.03 162.34 285.05 159.09"/></g><line class="cls-3" x1="293.37" y1="160.71" x2="293.37" y2="144"/><line class="cls-3" x1="261" y1="161" x2="261" y2="156"/><line class="cls-3" x1="301.23" y1="114.45" x2="301.23" y2="121.25"/><line class="cls-3" x1="317.35" y1="114.45" x2="317.35" y2="120.45"/><g id="ID000289-2" data-name="ID000289"><line class="cls-3" x1="317.35" y1="108.56" x2="293" y2="108.43"/></g><g id="ID000290-2" data-name="ID000290"><polygon class="cls-5" points="307.98 108.53 307.98 108.42 307.97 108.32 307.95 108.22 307.93 108.12 307.9 108.02 307.87 107.92 307.83 107.83 307.78 107.74 307.73 107.65 307.67 107.56 307.61 107.48 307.54 107.4 307.47 107.33 307.39 107.26 307.31 107.2 307.22 107.14 307.13 107.09 307.04 107.04 306.95 107 306.85 106.97 306.75 106.94 306.65 106.92 306.55 106.9 306.45 106.89 306.34 106.89 306.24 106.89 306.14 106.9 306.04 106.92 305.94 106.94 305.84 106.97 305.74 107.01 305.65 107.05 305.55 107.1 305.47 107.15 305.38 107.21 305.3 107.28 305.23 107.34 305.15 107.42 305.09 107.5 305.02 107.58 304.97 107.67 304.92 107.76 304.87 107.85 304.83 107.94 304.8 108.04 304.77 108.14 304.75 108.24 304.74 108.34 304.73 108.45 304.73 108.55 304.74 108.65 304.75 108.76 304.77 108.86 304.79 108.96 304.82 109.06 304.86 109.15 304.9 109.25 304.95 109.34 305.01 109.42 305.07 109.51 305.13 109.59 305.2 109.66 305.28 109.73 305.36 109.8 305.44 109.86 305.53 109.91 305.62 109.96 305.71 110.01 305.81 110.04 305.91 110.08 306.01 110.1 306.11 110.12 306.21 110.13 306.31 110.14 306.42 110.14 306.52 110.13 306.62 110.11 306.72 110.09 306.82 110.07 306.92 110.03 307.02 110 307.11 109.95 307.2 109.9 307.29 109.84 307.37 109.78 307.45 109.72 307.52 109.64 307.59 109.57 307.65 109.49 307.71 109.4 307.77 109.31 307.82 109.22 307.86 109.13 307.89 109.03 307.92 108.94 307.95 108.83 307.96 108.73 307.98 108.63 307.98 108.53"/></g><g id="ID000291-2" data-name="ID000291"><polygon class="cls-5" points="300.49 110.09 303.74 110.12 303.77 106.87 300.52 106.84 300.49 110.09"/></g><line class="cls-3" x1="293.09" y1="108.49" x2="293.09" y2="121"/><line class="cls-3" x1="317.32" y1="108.49" x2="317.32" y2="114.49"/><g id="ID000289-3" data-name="ID000289"><line class="cls-3" x1="317.33" y1="102.62" x2="285" y2="102.48"/></g><g id="ID000290-3" data-name="ID000290"><polygon class="cls-5" points="302.96 102.58 302.96 102.48 302.95 102.37 302.94 102.27 302.92 102.17 302.89 102.07 302.85 101.97 302.81 101.88 302.77 101.79 302.71 101.7 302.66 101.61 302.59 101.53 302.53 101.45 302.45 101.38 302.38 101.31 302.29 101.25 302.21 101.19 302.12 101.14 302.03 101.09 301.93 101.05 301.84 101.02 301.74 100.99 301.64 100.97 301.53 100.95 301.43 100.94 301.33 100.94 301.23 100.94 301.12 100.95 301.02 100.97 300.92 101 300.82 101.03 300.73 101.06 300.63 101.1 300.54 101.15 300.45 101.2 300.37 101.26 300.29 101.33 300.21 101.4 300.14 101.47 300.07 101.55 300.01 101.63 299.95 101.72 299.9 101.81 299.86 101.9 299.82 102 299.79 102.09 299.76 102.19 299.74 102.3 299.72 102.4 299.72 102.5 299.72 102.6 299.72 102.71 299.73 102.81 299.75 102.91 299.78 103.01 299.81 103.11 299.85 103.2 299.89 103.3 299.94 103.39 299.99 103.47 300.06 103.56 300.12 103.64 300.19 103.71 300.27 103.78 300.35 103.85 300.43 103.91 300.52 103.97 300.61 104.01 300.7 104.06 300.8 104.1 300.89 104.13 300.99 104.15 301.1 104.17 301.2 104.18 301.3 104.19 301.4 104.19 301.51 104.18 301.61 104.17 301.71 104.15 301.81 104.12 301.91 104.09 302 104.05 302.1 104 302.19 103.95 302.27 103.9 302.35 103.83 302.43 103.77 302.51 103.7 302.58 103.62 302.64 103.54 302.7 103.45 302.75 103.37 302.8 103.28 302.84 103.18 302.88 103.08 302.91 102.99 302.93 102.89 302.95 102.78 302.96 102.68 302.96 102.58"/></g><g id="ID000291-3" data-name="ID000291"><polygon class="cls-5" points="295.48 104.14 298.73 104.17 298.75 100.92 295.51 100.89 295.48 104.14"/></g><line class="cls-3" x1="285.12" y1="102.54" x2="285.12" y2="121"/><line class="cls-3" x1="317.31" y1="102.54" x2="317.31" y2="108.54"/><line class="cls-10" x1="317.5" y1="46.5" x2="317.5" y2="120.5"/><line class="cls-3" x1="261" y1="49" x2="130.25" y2="49"/><g id="ID000378-2" data-name="ID000378"><polygon class="cls-5" points="214.85 51.69 213.5 52.91 212.15 53.31 210.79 53.52 208.09 54.13 210.79 54.74 212.15 54.94 213.5 55.35 214.85 56.56 214.85 51.69"/></g><polyline class="cls-10" points="249 54.11 248.92 54.13 146.47 54.13 146 54.08"/><line class="cls-10" x1="248.5" y1="54.5" x2="248.5" y2="122.5"/></svg>