<svg id="图层_1" data-name="图层 1" xmlns="http://www.w3.org/2000/svg" xmlns:xlink="http://www.w3.org/1999/xlink" viewBox="0 0 400 400"><defs><style>.cls-1,.cls-14,.cls-16,.cls-20,.cls-25,.cls-27,.cls-3,.cls-30,.cls-35,.cls-40,.cls-41,.cls-42,.cls-43,.cls-5{fill:none;}.cls-2{fill:#ebcad1;}.cls-14,.cls-16,.cls-3,.cls-5{stroke:#060000;}.cls-14,.cls-20,.cls-25,.cls-27,.cls-3,.cls-30,.cls-35,.cls-40,.cls-41,.cls-42,.cls-43,.cls-5{stroke-miterlimit:10;}.cls-3{stroke-width:1.94px;}.cls-4{fill:#d0e1ae;}.cls-43,.cls-5{stroke-width:0.72px;}.cls-6{fill:#ced5e5;}.cls-7{fill:#070000;}.cls-8{fill:#221e1f;}.cls-9{fill:#c62b2b;}.cls-10{fill:#7f7b86;}.cls-11{fill:gray;}.cls-12{fill:#c0292a;}.cls-13{fill:#0a0303;}.cls-14{stroke-width:1.5px;}.cls-15{fill:#060000;}.cls-16{stroke-width:0.5px;}.cls-17{clip-path:url(#clip-path);}.cls-18,.cls-21,.cls-23,.cls-28,.cls-39,.cls-45{fill:#231815;}.cls-19{fill:#6cb94f;}.cls-20,.cls-25,.cls-27,.cls-30,.cls-35,.cls-40,.cls-41,.cls-42{stroke:#231815;}.cls-20{stroke-width:1.04px;}.cls-21,.cls-22,.cls-23,.cls-28,.cls-31,.cls-38{font-size:11.13px;}.cls-21,.cls-22,.cls-23,.cls-31,.cls-33,.cls-34,.cls-37,.cls-38,.cls-39,.cls-45{font-family:Arial-BoldMT, Arial;font-weight:700;}.cls-22,.cls-31{fill:#736b63;}.cls-23{letter-spacing:0.87em;}.cls-24{letter-spacing:0em;}.cls-25{stroke-width:1.19px;}.cls-26,.cls-38{fill:#857f8a;}.cls-27{stroke-width:0.59px;}.cls-28,.cls-46{font-family:ArialMT, Arial;}.cls-29,.cls-33,.cls-34,.cls-37{fill:#d80916;}.cls-30{stroke-width:0.6px;}.cls-31{letter-spacing:0.24em;}.cls-32{letter-spacing:0em;}.cls-33{font-size:11.22px;}.cls-34{font-size:11.23px;}.cls-35{stroke-width:1.19px;}.cls-36{fill:#f4b189;}.cls-37{font-size:11.13px;}.cls-39{font-size:12.69px;}.cls-40{stroke-width:0.71px;}.cls-41{stroke-width:1.16px;}.cls-42{stroke-width:0.85px;}.cls-43{stroke:#241c1d;}.cls-44{fill:#241c1d;}.cls-45{font-size:13.15px;}.cls-46{font-size:15px;fill:#fff;}</style><clipPath id="clip-path"><rect class="cls-1" x="-4245.31" y="-5163.93" width="7889.17" height="5916.88"/></clipPath></defs><rect class="cls-2" x="241.46" y="89.02" width="5.87" height="6.12"/><rect class="cls-2" x="255.37" y="89.02" width="5.87" height="6.12"/><rect class="cls-2" x="247.33" y="89.02" width="8.04" height="6.12"/><line class="cls-3" x1="251.35" y1="92.48" x2="251.35" y2="91.67"/><rect class="cls-4" x="255.37" y="67.74" width="6.13" height="5.87"/><rect class="cls-4" x="241.46" y="67.74" width="6.13" height="5.87"/><rect class="cls-4" x="247.59" y="67.74" width="7.78" height="5.87"/><line class="cls-5" x1="252.58" y1="70.67" x2="250.38" y2="70.67"/><rect class="cls-6" x="255.37" y="78.44" width="6.13" height="5.87"/><rect class="cls-6" x="241.46" y="78.44" width="6.13" height="5.87"/><rect class="cls-6" x="247.59" y="78.44" width="7.78" height="5.87"/><line class="cls-5" x1="252.58" y1="81.37" x2="250.38" y2="81.37"/><path class="cls-7" d="M301.2,167.16l1-.1a1.9,1.9,0,0,0,.47,1.05,1.23,1.23,0,0,0,.89.32,1.5,1.5,0,0,0,.82-.22,1.64,1.64,0,0,0,.57-.6,3.52,3.52,0,0,0,.37-1,5.64,5.64,0,0,0,.15-1.3v-.21a2.38,2.38,0,0,1-.82.82,2.18,2.18,0,0,1-1.14.32,2.23,2.23,0,0,1-1.72-.78,3,3,0,0,1-.7-2.06,3.05,3.05,0,0,1,.74-2.13,2.39,2.39,0,0,1,1.85-.8,2.61,2.61,0,0,1,1.48.45,2.83,2.83,0,0,1,1,1.3,6.67,6.67,0,0,1,.35,2.44,8.18,8.18,0,0,1-.35,2.64,3.09,3.09,0,0,1-1,1.5,2.55,2.55,0,0,1-1.59.52,2.25,2.25,0,0,1-1.59-.57A2.48,2.48,0,0,1,301.2,167.16Zm4.14-3.83a2.22,2.22,0,0,0-.45-1.46,1.46,1.46,0,0,0-1.12-.54,1.5,1.5,0,0,0-1.18.59,2.2,2.2,0,0,0-.49,1.5,1.92,1.92,0,0,0,.47,1.35,1.49,1.49,0,0,0,1.17.52,1.47,1.47,0,0,0,1.15-.52A2.14,2.14,0,0,0,305.34,163.33Z"/><path class="cls-7" d="M307.48,164.89a8.06,8.06,0,0,1,.31-2.48,3.06,3.06,0,0,1,.9-1.45,2.28,2.28,0,0,1,1.5-.5,2.37,2.37,0,0,1,1.18.28,2.32,2.32,0,0,1,.84.81,4.51,4.51,0,0,1,.51,1.29,9.2,9.2,0,0,1,.19,2,8.35,8.35,0,0,1-.3,2.47,3.13,3.13,0,0,1-.9,1.45,2.49,2.49,0,0,1-3.4-.38A6,6,0,0,1,307.48,164.89Zm1,0a5.65,5.65,0,0,0,.48,2.85,1.35,1.35,0,0,0,2.37,0,8.67,8.67,0,0,0,0-5.69,1.41,1.41,0,0,0-1.2-.7,1.29,1.29,0,0,0-1.13.62A5.73,5.73,0,0,0,308.53,164.89Z"/><path class="cls-7" d="M314.07,162.57a2.72,2.72,0,0,1,.45-1.58,1.47,1.47,0,0,1,1.29-.65,1.61,1.61,0,0,1,1.28.58,3.12,3.12,0,0,1,0,3.42,1.65,1.65,0,0,1-1.27.59,1.55,1.55,0,0,1-1.25-.59A2.65,2.65,0,0,1,314.07,162.57Zm1.76-1.47a.75.75,0,0,0-.63.34,2.17,2.17,0,0,0-.25,1.24,2,2,0,0,0,.25,1.16.76.76,0,0,0,1.27,0,2.19,2.19,0,0,0,.25-1.24,2,2,0,0,0-.25-1.16A.76.76,0,0,0,315.83,161.1Zm0,8.4,4.57-9.16h.84l-4.57,9.16Zm3.63-2.36a2.77,2.77,0,0,1,.44-1.58,1.49,1.49,0,0,1,1.3-.65,1.63,1.63,0,0,1,1.28.58,2.54,2.54,0,0,1,.51,1.72,2.46,2.46,0,0,1-.52,1.69,1.6,1.6,0,0,1-1.27.6,1.56,1.56,0,0,1-1.24-.59A2.69,2.69,0,0,1,319.47,167.14Zm1.76-1.47a.77.77,0,0,0-.63.33,2.19,2.19,0,0,0-.26,1.25,2,2,0,0,0,.26,1.16.78.78,0,0,0,1.27,0,2.19,2.19,0,0,0,.25-1.24,1.92,1.92,0,0,0-.26-1.17A.76.76,0,0,0,321.23,165.67Z"/><path class="cls-8" d="M297.23,165.61a3.37,3.37,0,1,1-3.36-3.37,3.37,3.37,0,0,1,3.36,3.37"/><circle class="cls-5" cx="293.86" cy="165.61" r="3.37"/><path class="cls-7" d="M301.2,155.16l1-.09a1.84,1.84,0,0,0,.47,1,1.24,1.24,0,0,0,.89.33,1.5,1.5,0,0,0,.82-.22,1.64,1.64,0,0,0,.57-.6,3.64,3.64,0,0,0,.37-1,5.64,5.64,0,0,0,.15-1.3v-.21a2.38,2.38,0,0,1-.82.82,2.18,2.18,0,0,1-1.14.32,2.23,2.23,0,0,1-1.72-.78,3,3,0,0,1-.7-2.06,3,3,0,0,1,.74-2.13,2.4,2.4,0,0,1,1.85-.81,2.54,2.54,0,0,1,1.48.46,2.78,2.78,0,0,1,1,1.3,6.67,6.67,0,0,1,.35,2.44,8.18,8.18,0,0,1-.35,2.64,3.09,3.09,0,0,1-1,1.5,2.6,2.6,0,0,1-1.59.51,2.29,2.29,0,0,1-1.59-.56A2.51,2.51,0,0,1,301.2,155.16Zm4.14-3.82a2.22,2.22,0,0,0-.45-1.46,1.42,1.42,0,0,0-1.12-.54,1.52,1.52,0,0,0-1.18.58,2.25,2.25,0,0,0-.49,1.51,1.92,1.92,0,0,0,.47,1.35,1.52,1.52,0,0,0,1.17.52,1.47,1.47,0,0,0,1.15-.52A2.14,2.14,0,0,0,305.34,151.34Z"/><path class="cls-7" d="M307.56,149.62v-1h5.34v.82a12.24,12.24,0,0,0-1.56,2.35,14.32,14.32,0,0,0-1.2,3,12.05,12.05,0,0,0-.39,2.39h-1a10.79,10.79,0,0,1,.39-2.48,13.48,13.48,0,0,1,1-2.8,12.2,12.2,0,0,1,1.46-2.27h-4Z"/><path class="cls-7" d="M314.07,150.58a2.7,2.7,0,0,1,.45-1.58,1.47,1.47,0,0,1,1.29-.65,1.61,1.61,0,0,1,1.28.58,2.54,2.54,0,0,1,.51,1.72,2.51,2.51,0,0,1-.51,1.69,1.62,1.62,0,0,1-1.27.6,1.58,1.58,0,0,1-1.25-.59A2.69,2.69,0,0,1,314.07,150.58Zm1.76-1.47a.75.75,0,0,0-.63.34,2.14,2.14,0,0,0-.25,1.24,2,2,0,0,0,.25,1.16.77.77,0,0,0,.63.33.76.76,0,0,0,.64-.34,2.13,2.13,0,0,0,.25-1.23,2,2,0,0,0-.25-1.17A.77.77,0,0,0,315.83,149.11Zm0,8.4,4.57-9.16h.84l-4.57,9.16Zm3.63-2.36a2.77,2.77,0,0,1,.44-1.58,1.46,1.46,0,0,1,1.3-.65,1.63,1.63,0,0,1,1.28.58,2.54,2.54,0,0,1,.51,1.72,2.46,2.46,0,0,1-.52,1.69,1.6,1.6,0,0,1-1.27.6,1.56,1.56,0,0,1-1.24-.59A2.71,2.71,0,0,1,319.47,155.15Zm1.76-1.48a.78.78,0,0,0-.63.34,2.17,2.17,0,0,0-.26,1.24,2,2,0,0,0,.26,1.16.76.76,0,0,0,1.27,0,2.17,2.17,0,0,0,.25-1.24,1.89,1.89,0,0,0-.26-1.16A.74.74,0,0,0,321.23,153.67Z"/><path class="cls-9" d="M297.23,153.62a3.37,3.37,0,1,1-3.37-3.37,3.37,3.37,0,0,1,3.37,3.37"/><circle class="cls-5" cx="293.86" cy="153.62" r="3.37"/><path class="cls-7" d="M342,149.62v-1h5.35v.82a11.79,11.79,0,0,0-1.57,2.35,14.84,14.84,0,0,0-1.19,3,11.37,11.37,0,0,0-.39,2.39h-1a11.28,11.28,0,0,1,.38-2.48,13.52,13.52,0,0,1,1.05-2.8,11.7,11.7,0,0,1,1.45-2.27h-4Z"/><path class="cls-7" d="M348.38,154.9l1-.09A2,2,0,0,0,350,156a1.45,1.45,0,0,0,1,.41,1.57,1.57,0,0,0,1.25-.58,2.25,2.25,0,0,0,.5-1.53,2.05,2.05,0,0,0-.48-1.44,1.65,1.65,0,0,0-1.27-.52,1.7,1.7,0,0,0-.88.23,1.78,1.78,0,0,0-.62.6l-.94-.15.8-4.45h4.1v1h-3.29l-.45,2.35a2.56,2.56,0,0,1,1.56-.55,2.36,2.36,0,0,1,1.81.79,2.78,2.78,0,0,1,.74,2,3.22,3.22,0,0,1-.65,2,2.81,2.81,0,0,1-4,.39A2.62,2.62,0,0,1,348.38,154.9Z"/><path class="cls-7" d="M355,150.58a2.7,2.7,0,0,1,.45-1.58,1.45,1.45,0,0,1,1.28-.65,1.63,1.63,0,0,1,1.29.58,2.54,2.54,0,0,1,.51,1.72,2.46,2.46,0,0,1-.52,1.69,1.6,1.6,0,0,1-1.27.6,1.57,1.57,0,0,1-1.24-.59A2.69,2.69,0,0,1,355,150.58Zm1.76-1.47a.75.75,0,0,0-.63.34,2.14,2.14,0,0,0-.25,1.24,2,2,0,0,0,.25,1.16.77.77,0,0,0,.63.33.76.76,0,0,0,.64-.34,2.13,2.13,0,0,0,.25-1.23,2,2,0,0,0-.25-1.17A.8.8,0,0,0,356.73,149.11Zm0,8.4,4.56-9.16h.85l-4.57,9.16Zm3.63-2.36a2.77,2.77,0,0,1,.44-1.58,1.46,1.46,0,0,1,1.29-.65,1.6,1.6,0,0,1,1.28.58,3.1,3.1,0,0,1,0,3.41,1.61,1.61,0,0,1-1.27.6,1.58,1.58,0,0,1-1.25-.59A2.71,2.71,0,0,1,360.37,155.15Zm1.76-1.48a.78.78,0,0,0-.64.34,2.28,2.28,0,0,0-.25,1.24,2,2,0,0,0,.26,1.16.74.74,0,0,0,.62.34.78.78,0,0,0,.65-.34,2.25,2.25,0,0,0,.25-1.24,2,2,0,0,0-.26-1.16A.75.75,0,0,0,362.13,153.67Z"/><path class="cls-10" d="M338.13,153.62a3.37,3.37,0,1,1-3.37-3.37,3.37,3.37,0,0,1,3.37,3.37"/><circle class="cls-5" cx="334.76" cy="153.62" r="3.37"/><circle class="cls-5" cx="334.76" cy="165.61" r="3.37"/><path class="cls-7" d="M342,166.9l1-.1a2,2,0,0,0,.54,1.22,1.42,1.42,0,0,0,1,.41,1.58,1.58,0,0,0,1.24-.57,2.25,2.25,0,0,0,.5-1.54,2,2,0,0,0-.47-1.43,1.64,1.64,0,0,0-1.28-.53,1.72,1.72,0,0,0-.88.23,1.75,1.75,0,0,0-.61.6l-.94-.14.8-4.45H347v1h-3.28l-.45,2.35a2.6,2.6,0,0,1,1.55-.55,2.38,2.38,0,0,1,1.82.79,2.84,2.84,0,0,1,.74,2,3.29,3.29,0,0,1-.65,2,2.82,2.82,0,0,1-4,.39A2.66,2.66,0,0,1,342,166.9Z"/><path class="cls-7" d="M348.38,164.89a8.33,8.33,0,0,1,.3-2.48,3.15,3.15,0,0,1,.91-1.45,2.28,2.28,0,0,1,1.5-.5,2.37,2.37,0,0,1,1.18.28,2.32,2.32,0,0,1,.84.81,4.51,4.51,0,0,1,.5,1.29,8.58,8.58,0,0,1,.19,2,8.4,8.4,0,0,1-.3,2.47,3.11,3.11,0,0,1-.9,1.45,2.48,2.48,0,0,1-3.4-.39A5.94,5.94,0,0,1,348.38,164.89Zm1,0a5.65,5.65,0,0,0,.48,2.85,1.36,1.36,0,0,0,2.38,0,8.67,8.67,0,0,0,0-5.69,1.42,1.42,0,0,0-1.2-.71,1.34,1.34,0,0,0-1.14.62A5.87,5.87,0,0,0,349.42,164.88Z"/><path class="cls-7" d="M355,162.57a2.7,2.7,0,0,1,.45-1.58,1.43,1.43,0,0,1,1.28-.65,1.63,1.63,0,0,1,1.29.58,2.54,2.54,0,0,1,.51,1.72,2.46,2.46,0,0,1-.52,1.69,1.6,1.6,0,0,1-1.27.6,1.57,1.57,0,0,1-1.24-.59A2.69,2.69,0,0,1,355,162.57Zm1.76-1.47a.75.75,0,0,0-.63.34,2.14,2.14,0,0,0-.25,1.24,2,2,0,0,0,.25,1.16.78.78,0,0,0,1.27,0,2.19,2.19,0,0,0,.25-1.24,2,2,0,0,0-.25-1.17A.8.8,0,0,0,356.73,161.1Zm0,8.4,4.56-9.16h.85l-4.57,9.16Zm3.63-2.36a2.77,2.77,0,0,1,.44-1.58,1.46,1.46,0,0,1,1.29-.65,1.6,1.6,0,0,1,1.28.58,2.48,2.48,0,0,1,.51,1.71,2.52,2.52,0,0,1-.51,1.7,1.61,1.61,0,0,1-1.27.6,1.58,1.58,0,0,1-1.25-.59A2.69,2.69,0,0,1,360.37,167.14Zm1.76-1.48a.78.78,0,0,0-.64.34,2.29,2.29,0,0,0-.25,1.25,2,2,0,0,0,.26,1.15.74.74,0,0,0,.62.34.78.78,0,0,0,.65-.34,2.25,2.25,0,0,0,.25-1.24,2,2,0,0,0-.26-1.16A.75.75,0,0,0,362.13,165.66Z"/><path class="cls-7" d="M301.33,133.51v-6.29h.92v.89a2.11,2.11,0,0,1,1.89-1,2.31,2.31,0,0,1,1,.2,1.56,1.56,0,0,1,.68.53,2.21,2.21,0,0,1,.31.79,6.13,6.13,0,0,1,.06,1v3.87h-1v-3.83a3,3,0,0,0-.12-1,1.08,1.08,0,0,0-.41-.51,1.25,1.25,0,0,0-.7-.19,1.56,1.56,0,0,0-1.1.43,2.19,2.19,0,0,0-.46,1.64v3.44Z"/><path class="cls-7" d="M311.68,133.51v-.93a2.16,2.16,0,0,1-1.91,1.07,2.38,2.38,0,0,1-1-.21,1.64,1.64,0,0,1-.68-.54,2,2,0,0,1-.31-.79,5.6,5.6,0,0,1-.07-1v-3.91h1v3.49a5.61,5.61,0,0,0,.07,1.13,1.08,1.08,0,0,0,.4.66,1.22,1.22,0,0,0,.77.24,1.56,1.56,0,0,0,.85-.25,1.32,1.32,0,0,0,.56-.67,3.51,3.51,0,0,0,.17-1.23v-3.37h1v6.3Z"/><path class="cls-7" d="M318.08,131.22l1,.14a2.75,2.75,0,0,1-.83,1.69,2.37,2.37,0,0,1-1.64.6,2.51,2.51,0,0,1-2-.84,3.57,3.57,0,0,1-.74-2.42,4.69,4.69,0,0,1,.32-1.79,2.28,2.28,0,0,1,1-1.14,2.73,2.73,0,0,1,1.42-.38,2.36,2.36,0,0,1,1.59.52,2.46,2.46,0,0,1,.79,1.49l-1,.14a1.8,1.8,0,0,0-.5-1,1.23,1.23,0,0,0-.85-.32,1.49,1.49,0,0,0-1.23.58,2.84,2.84,0,0,0-.48,1.83,3,3,0,0,0,.46,1.84,1.45,1.45,0,0,0,1.2.58,1.41,1.41,0,0,0,1-.38A2,2,0,0,0,318.08,131.22Z"/><path class="cls-7" d="M319.93,133.51v-8.68h1v8.68Z"/><path class="cls-7" d="M326.67,131.48l1,.14a2.69,2.69,0,0,1-.92,1.5,3,3,0,0,1-3.81-.32,3.44,3.44,0,0,1-.77-2.38A3.6,3.6,0,0,1,323,128a2.58,2.58,0,0,1,2-.87,2.49,2.49,0,0,1,2,.86,3.51,3.51,0,0,1,.77,2.42c0,.07,0,.16,0,.29h-4.49a2.4,2.4,0,0,0,.56,1.58,1.67,1.67,0,0,0,1.28.55,1.6,1.6,0,0,0,1-.31A2.17,2.17,0,0,0,326.67,131.48Zm-3.42-1.71h3.44a2.21,2.21,0,0,0-.4-1.2A1.58,1.58,0,0,0,325,128a1.61,1.61,0,0,0-1.21.5A2,2,0,0,0,323.25,129.77Z"/><path class="cls-7" d="M328.56,130.36a3.34,3.34,0,0,1,.93-2.59,2.71,2.71,0,0,1,1.88-.69,2.61,2.61,0,0,1,2,.85,3.35,3.35,0,0,1,.78,2.35,4.2,4.2,0,0,1-.35,1.91,2.54,2.54,0,0,1-1,1.08,2.82,2.82,0,0,1-1.45.39,2.64,2.64,0,0,1-2-.85A3.5,3.5,0,0,1,328.56,130.36Zm1,0a2.73,2.73,0,0,0,.51,1.81,1.61,1.61,0,0,0,2.52,0,2.87,2.87,0,0,0,.5-1.84,2.76,2.76,0,0,0-.5-1.78,1.59,1.59,0,0,0-1.26-.6,1.56,1.56,0,0,0-1.26.6A2.73,2.73,0,0,0,329.6,130.36Z"/><path class="cls-7" d="M337.59,132.57l.14.94a3.78,3.78,0,0,1-.76.1,1.69,1.69,0,0,1-.86-.19,1,1,0,0,1-.43-.48,4.14,4.14,0,0,1-.12-1.26V128h-.76v-.83h.76v-1.55l1-.64v2.2h1V128h-1v3.68a2.3,2.3,0,0,0,.05.59.43.43,0,0,0,.18.2.61.61,0,0,0,.34.08Z"/><path class="cls-7" d="M338.62,126v-1.21h1V126Zm0,7.48v-6.29h1v6.29Z"/><path class="cls-7" d="M345,133.51v-.79a1.84,1.84,0,0,1-1.67.93,2.24,2.24,0,0,1-1.32-.41,2.65,2.65,0,0,1-.94-1.16,4.21,4.21,0,0,1-.33-1.71,4.65,4.65,0,0,1,.3-1.71,2.51,2.51,0,0,1,.9-1.18,2.33,2.33,0,0,1,1.34-.41,1.9,1.9,0,0,1,1,.24,2.07,2.07,0,0,1,.69.62v-3.11h1v8.69Zm-3.22-3.14a2.87,2.87,0,0,0,.49,1.81,1.44,1.44,0,0,0,1.15.6,1.4,1.4,0,0,0,1.14-.58,2.72,2.72,0,0,0,.46-1.74,3.1,3.1,0,0,0-.47-1.9,1.43,1.43,0,0,0-1.17-.61,1.38,1.38,0,0,0-1.14.58A3,3,0,0,0,341.8,130.37Z"/><path class="cls-7" d="M351.72,131.48l1,.14a2.75,2.75,0,0,1-.92,1.5,3,3,0,0,1-3.81-.32,3.39,3.39,0,0,1-.77-2.38A3.56,3.56,0,0,1,348,128a2.58,2.58,0,0,1,2-.87,2.5,2.5,0,0,1,2,.86,3.51,3.51,0,0,1,.76,2.42v.29h-4.49a2.4,2.4,0,0,0,.56,1.58,1.67,1.67,0,0,0,1.28.55,1.6,1.6,0,0,0,1-.31A2.17,2.17,0,0,0,351.72,131.48Zm-3.42-1.71h3.43a2.13,2.13,0,0,0-.39-1.2,1.58,1.58,0,0,0-1.29-.62,1.61,1.61,0,0,0-1.21.5A1.92,1.92,0,0,0,348.3,129.77Z"/><path class="cls-7" d="M308.58,147.44v-8.71h.92v.81a2.4,2.4,0,0,1,.74-.72,2.08,2.08,0,0,1,1-.23,2.3,2.3,0,0,1,1.36.41,2.58,2.58,0,0,1,.89,1.17,4.49,4.49,0,0,1,.3,1.66,4.42,4.42,0,0,1-.33,1.74,2.57,2.57,0,0,1-1,1.18,2.34,2.34,0,0,1-1.33.41,1.83,1.83,0,0,1-.91-.22,2,2,0,0,1-.66-.57v3.07Zm.9-5.53a2.87,2.87,0,0,0,.47,1.8,1.43,1.43,0,0,0,2.31,0,3,3,0,0,0,.48-1.87,2.88,2.88,0,0,0-.47-1.81,1.39,1.39,0,0,0-1.13-.6,1.48,1.48,0,0,0-1.16.64A3,3,0,0,0,309.48,141.91Z"/><path class="cls-7" d="M315,145v-6.29H316v1a2.63,2.63,0,0,1,.64-.89,1.1,1.1,0,0,1,.65-.21,1.86,1.86,0,0,1,1,.34l-.35,1a1.49,1.49,0,0,0-.74-.21.93.93,0,0,0-.59.21,1.12,1.12,0,0,0-.37.58,4.09,4.09,0,0,0-.17,1.24V145Z"/><path class="cls-7" d="M323,143l1,.14a2.73,2.73,0,0,1-.92,1.5,3,3,0,0,1-3.81-.32,3.38,3.38,0,0,1-.78-2.38,3.61,3.61,0,0,1,.79-2.47,2.58,2.58,0,0,1,2-.87,2.53,2.53,0,0,1,2,.86,3.52,3.52,0,0,1,.76,2.43v.28h-4.5a2.44,2.44,0,0,0,.57,1.58,1.67,1.67,0,0,0,1.28.55,1.54,1.54,0,0,0,1-.31A2.1,2.1,0,0,0,323,143Zm-3.42-1.71H323a2.3,2.3,0,0,0-.39-1.2,1.58,1.58,0,0,0-1.29-.62,1.65,1.65,0,0,0-1.21.5A2,2,0,0,0,319.55,141.28Z"/><path class="cls-7" d="M324.86,143.13l1-.14a1.46,1.46,0,0,0,.46,1,1.57,1.57,0,0,0,1.08.34,1.53,1.53,0,0,0,1-.3.89.89,0,0,0,.34-.7.64.64,0,0,0-.31-.57,4.22,4.22,0,0,0-1-.37,8.15,8.15,0,0,1-1.54-.51,1.51,1.51,0,0,1-.65-.6,1.69,1.69,0,0,1-.21-.84,1.72,1.72,0,0,1,.18-.78,1.69,1.69,0,0,1,.49-.6,2.24,2.24,0,0,1,.64-.31,3,3,0,0,1,.87-.12,3.39,3.39,0,0,1,1.24.21,1.78,1.78,0,0,1,.78.58,2.31,2.31,0,0,1,.34,1l-1,.14a1.17,1.17,0,0,0-.39-.76,1.34,1.34,0,0,0-.91-.28,1.48,1.48,0,0,0-1,.25.71.71,0,0,0-.3.57.63.63,0,0,0,.12.37.79.79,0,0,0,.39.28l.89.28a13.47,13.47,0,0,1,1.49.49,1.55,1.55,0,0,1,.67.56,1.58,1.58,0,0,1,.25.92,1.89,1.89,0,0,1-1.14,1.73,3,3,0,0,1-1.26.26,2.65,2.65,0,0,1-1.77-.52A2.4,2.4,0,0,1,324.86,143.13Z"/><path class="cls-7" d="M335.17,143l1,.14a2.63,2.63,0,0,1-.92,1.5,3,3,0,0,1-3.81-.32,3.38,3.38,0,0,1-.77-2.38,3.6,3.6,0,0,1,.78-2.47,2.58,2.58,0,0,1,2-.87,2.52,2.52,0,0,1,2,.86,3.52,3.52,0,0,1,.76,2.43v.28h-4.49a2.34,2.34,0,0,0,.57,1.58,1.63,1.63,0,0,0,1.27.55,1.52,1.52,0,0,0,1-.31A2.17,2.17,0,0,0,335.17,143Zm-3.42-1.71h3.43a2.13,2.13,0,0,0-.39-1.2,1.58,1.58,0,0,0-1.29-.62,1.65,1.65,0,0,0-1.21.5A2,2,0,0,0,331.75,141.28Z"/><path class="cls-7" d="M337.44,145v-6.29h.92v.89a2.11,2.11,0,0,1,1.9-1,2.31,2.31,0,0,1,1,.2,1.53,1.53,0,0,1,.67.53,2.23,2.23,0,0,1,.32.79,6.13,6.13,0,0,1,.06,1V145h-1.05v-3.83a3,3,0,0,0-.11-1,1,1,0,0,0-.42-.52,1.19,1.19,0,0,0-.69-.19,1.56,1.56,0,0,0-1.11.43,2.23,2.23,0,0,0-.46,1.64V145Z"/><path class="cls-7" d="M346.05,144.08l.15.94a3.26,3.26,0,0,1-.77.1,1.72,1.72,0,0,1-.86-.18,1,1,0,0,1-.42-.49,3.74,3.74,0,0,1-.13-1.26v-3.63h-.76v-.83H344v-1.56l1-.63v2.19h1v.83h-1v3.67a2.24,2.24,0,0,0,0,.59.52.52,0,0,0,.18.21.64.64,0,0,0,.34.07Z"/><path class="cls-7" d="M301,200.16v-6.3h.92v.9a2.1,2.1,0,0,1,1.9-1,2.54,2.54,0,0,1,1,.2,1.6,1.6,0,0,1,.67.54,2.14,2.14,0,0,1,.31.79,6,6,0,0,1,.06,1v3.87h-1v-3.83a3,3,0,0,0-.12-1,.93.93,0,0,0-.41-.51,1.25,1.25,0,0,0-.7-.2,1.57,1.57,0,0,0-1.1.44,2.22,2.22,0,0,0-.46,1.64v3.44Z"/><path class="cls-7" d="M311.3,200.16v-.93a2.18,2.18,0,0,1-1.91,1.07,2.38,2.38,0,0,1-1-.21,1.81,1.81,0,0,1-.68-.54,2.08,2.08,0,0,1-.31-.79,5.9,5.9,0,0,1-.06-1v-3.9h1v3.49a8,8,0,0,0,.06,1.12,1.14,1.14,0,0,0,.41.66,1.22,1.22,0,0,0,.77.24,1.63,1.63,0,0,0,.85-.24,1.35,1.35,0,0,0,.56-.67,3.55,3.55,0,0,0,.17-1.23v-3.37h1v6.29h-.9Z"/><path class="cls-7" d="M317.7,197.86l1,.14a2.81,2.81,0,0,1-.84,1.69,2.33,2.33,0,0,1-1.64.61,2.51,2.51,0,0,1-2-.84,3.6,3.6,0,0,1-.74-2.43,4.64,4.64,0,0,1,.32-1.78,2.35,2.35,0,0,1,1-1.15,2.82,2.82,0,0,1,1.42-.38,2.37,2.37,0,0,1,1.59.53,2.43,2.43,0,0,1,.79,1.48l-1,.15a1.76,1.76,0,0,0-.5-1,1.23,1.23,0,0,0-.85-.32,1.49,1.49,0,0,0-1.23.58,2.83,2.83,0,0,0-.47,1.83,3,3,0,0,0,.45,1.84,1.49,1.49,0,0,0,1.2.58,1.37,1.37,0,0,0,1-.39A2,2,0,0,0,317.7,197.86Z"/><path class="cls-7" d="M319.55,200.16v-8.69h1v8.69Z"/><path class="cls-7" d="M326.29,198.12l1,.15a2.82,2.82,0,0,1-4.73,1.18,3.44,3.44,0,0,1-.77-2.38,3.59,3.59,0,0,1,.78-2.47,2.56,2.56,0,0,1,2-.88,2.52,2.52,0,0,1,2,.86,3.56,3.56,0,0,1,.77,2.43c0,.06,0,.16,0,.29h-4.49a2.43,2.43,0,0,0,.56,1.58,1.7,1.7,0,0,0,1.28.55,1.58,1.58,0,0,0,1-.31A2.16,2.16,0,0,0,326.29,198.12Zm-3.42-1.7h3.43a2.13,2.13,0,0,0-.39-1.2,1.56,1.56,0,0,0-1.29-.62,1.64,1.64,0,0,0-1.21.49A2,2,0,0,0,322.87,196.42Z"/><path class="cls-7" d="M328.18,197a3.32,3.32,0,0,1,.93-2.59,2.85,2.85,0,0,1,3.9.15,3.37,3.37,0,0,1,.78,2.35,4.25,4.25,0,0,1-.35,1.92,2.54,2.54,0,0,1-1,1.08,2.93,2.93,0,0,1-1.45.38,2.59,2.59,0,0,1-2-.85A3.47,3.47,0,0,1,328.18,197Zm1,0a2.73,2.73,0,0,0,.51,1.81,1.62,1.62,0,0,0,2.52,0,2.84,2.84,0,0,0,.5-1.85,2.73,2.73,0,0,0-.5-1.77,1.59,1.59,0,0,0-1.26-.6,1.56,1.56,0,0,0-1.26.6A2.73,2.73,0,0,0,329.22,197Z"/><path class="cls-7" d="M337.21,199.21l.14.95a3.71,3.71,0,0,1-.76.09,1.69,1.69,0,0,1-.86-.18,1,1,0,0,1-.43-.48,4.22,4.22,0,0,1-.12-1.27v-3.63h-.76v-.83h.76v-1.55l1-.64v2.19h1v.83h-1v3.68a1.73,1.73,0,0,0,.06.58.39.39,0,0,0,.17.21.67.67,0,0,0,.35.08Z"/><path class="cls-7" d="M338.24,192.68v-1.21h1v1.21Zm0,7.48v-6.3h1v6.3Z"/><path class="cls-7" d="M344.64,200.16v-.79a1.84,1.84,0,0,1-1.67.93,2.31,2.31,0,0,1-1.32-.41,2.62,2.62,0,0,1-.93-1.16,4,4,0,0,1-.34-1.71,4.65,4.65,0,0,1,.3-1.71,2.42,2.42,0,0,1,.9-1.18,2.33,2.33,0,0,1,1.34-.41,1.9,1.9,0,0,1,1,.24,2,2,0,0,1,.69.62v-3.11h1v8.69ZM341.42,197a2.85,2.85,0,0,0,.49,1.81,1.44,1.44,0,0,0,1.15.6,1.42,1.42,0,0,0,1.14-.57,2.73,2.73,0,0,0,.47-1.75,3.07,3.07,0,0,0-.48-1.9,1.45,1.45,0,0,0-1.17-.6,1.38,1.38,0,0,0-1.14.58A3,3,0,0,0,341.42,197Z"/><path class="cls-7" d="M351.34,198.12l1,.15a2.75,2.75,0,0,1-.92,1.5,2.71,2.71,0,0,1-1.72.53,2.68,2.68,0,0,1-2.09-.85,3.4,3.4,0,0,1-.78-2.38,3.59,3.59,0,0,1,.79-2.47,2.56,2.56,0,0,1,2-.88,2.53,2.53,0,0,1,2,.86,3.56,3.56,0,0,1,.76,2.43v.29H347.9a2.43,2.43,0,0,0,.56,1.58,1.7,1.7,0,0,0,1.28.55,1.6,1.6,0,0,0,1-.31A2.16,2.16,0,0,0,351.34,198.12Zm-3.42-1.7h3.43a2.13,2.13,0,0,0-.39-1.2,1.56,1.56,0,0,0-1.29-.62,1.64,1.64,0,0,0-1.21.49A2,2,0,0,0,347.92,196.42Z"/><path class="cls-7" d="M308.27,204.19V203h1v1.21Zm0,7.48v-6.29h1v6.29Z"/><path class="cls-7" d="M314.67,211.67v-.79a1.85,1.85,0,0,1-1.68.93,2.23,2.23,0,0,1-1.31-.41,2.71,2.71,0,0,1-.94-1.16,4.21,4.21,0,0,1-.33-1.71,4.65,4.65,0,0,1,.3-1.71,2.46,2.46,0,0,1,.9-1.18,2.33,2.33,0,0,1,1.34-.41,1.9,1.9,0,0,1,1,.24,2.06,2.06,0,0,1,.69.62V203h1v8.69Zm-3.22-3.14a2.87,2.87,0,0,0,.49,1.81,1.46,1.46,0,0,0,1.15.6,1.4,1.4,0,0,0,1.14-.58,2.73,2.73,0,0,0,.46-1.75,3.09,3.09,0,0,0-.47-1.89,1.43,1.43,0,0,0-1.17-.61,1.38,1.38,0,0,0-1.14.58A3,3,0,0,0,311.45,208.53Z"/><path class="cls-7" d="M321.37,209.63l1,.15a2.81,2.81,0,0,1-.92,1.5,2.73,2.73,0,0,1-1.72.53,2.68,2.68,0,0,1-2.09-.85,3.38,3.38,0,0,1-.78-2.38,3.56,3.56,0,0,1,.79-2.47,2.59,2.59,0,0,1,2-.88,2.51,2.51,0,0,1,2,.87,3.51,3.51,0,0,1,.76,2.42v.29h-4.49a2.4,2.4,0,0,0,.56,1.58,1.67,1.67,0,0,0,1.28.55,1.6,1.6,0,0,0,1-.31A2.16,2.16,0,0,0,321.37,209.63Zm-3.42-1.7h3.43a2.13,2.13,0,0,0-.39-1.2,1.69,1.69,0,0,0-2.5-.13A2,2,0,0,0,318,207.93Z"/><path class="cls-7" d="M323.64,211.67v-6.29h.92v.89a2.12,2.12,0,0,1,1.9-1,2.31,2.31,0,0,1,1,.21,1.51,1.51,0,0,1,.67.53,2.14,2.14,0,0,1,.31.79,6.13,6.13,0,0,1,.06,1v3.87h-1v-3.83a2.94,2.94,0,0,0-.12-1,1,1,0,0,0-.41-.52,1.25,1.25,0,0,0-.7-.19,1.56,1.56,0,0,0-1.1.43,2.23,2.23,0,0,0-.46,1.64v3.44Z"/><path class="cls-7" d="M332.25,210.73l.14.94a3.71,3.71,0,0,1-.76.09,1.69,1.69,0,0,1-.86-.18,1.07,1.07,0,0,1-.43-.49,4.14,4.14,0,0,1-.12-1.26V206.2h-.75v-.83h.75v-1.55l1-.64v2.2h1v.82h-1v3.68a2.15,2.15,0,0,0,.05.58.51.51,0,0,0,.17.21.7.7,0,0,0,.35.08Z"/><path class="cls-7" d="M333.29,204.19V203h1v1.21Zm0,7.48v-6.29h1v6.29Z"/><path class="cls-7" d="M338,210.73l.14.94a3.71,3.71,0,0,1-.76.09,1.69,1.69,0,0,1-.86-.18,1,1,0,0,1-.43-.49,4.14,4.14,0,0,1-.12-1.26V206.2h-.76v-.83H336v-1.55l1-.64v2.2h1v.82h-1v3.68a1.69,1.69,0,0,0,.06.58.39.39,0,0,0,.17.21.67.67,0,0,0,.35.08Z"/><path class="cls-7" d="M339.07,214.1l-.14-1a2.08,2.08,0,0,0,.6.1,1.13,1.13,0,0,0,.56-.12,1,1,0,0,0,.34-.33,5.11,5.11,0,0,0,.32-.8l.09-.26-2.29-6.33h1.09L340.9,209c.16.46.31.94.44,1.45.12-.47.25-.94.41-1.41l1.28-3.68h1l-2.24,6.41a15,15,0,0,1-.58,1.43,2.19,2.19,0,0,1-.64.77,1.46,1.46,0,0,1-.84.24A1.9,1.9,0,0,1,339.07,214.1Z"/><path class="cls-7" d="M324.36,244.18v-1h5.35V244a11,11,0,0,0-1.56,2.34,14.54,14.54,0,0,0-1.2,3,12.18,12.18,0,0,0-.39,2.39h-1a11.37,11.37,0,0,1,.38-2.48,14.11,14.11,0,0,1,1.05-2.8,11.71,11.71,0,0,1,1.46-2.27Z"/><path class="cls-7" d="M330.71,249.46l1-.1a2,2,0,0,0,.55,1.23,1.45,1.45,0,0,0,1,.41,1.57,1.57,0,0,0,1.25-.58,2.29,2.29,0,0,0,.5-1.53,2.05,2.05,0,0,0-.48-1.44,1.81,1.81,0,0,0-2.15-.29,1.67,1.67,0,0,0-.61.6l-1-.15.8-4.45h4.1v1h-3.29l-.45,2.35a2.58,2.58,0,0,1,1.56-.55,2.38,2.38,0,0,1,1.81.78,2.83,2.83,0,0,1,.75,2,3.23,3.23,0,0,1-.66,2,2.57,2.57,0,0,1-2.16,1.05,2.61,2.61,0,0,1-1.84-.66A2.64,2.64,0,0,1,330.71,249.46Z"/><path class="cls-7" d="M337.3,245.14a2.7,2.7,0,0,1,.45-1.58,1.44,1.44,0,0,1,1.29-.66,1.64,1.64,0,0,1,1.28.59,2.53,2.53,0,0,1,.51,1.71,2.49,2.49,0,0,1-.52,1.7,1.64,1.64,0,0,1-2.51,0A2.71,2.71,0,0,1,337.3,245.14Zm1.76-1.48a.75.75,0,0,0-.63.34,2.17,2.17,0,0,0-.25,1.24,2,2,0,0,0,.25,1.16.76.76,0,0,0,1.27,0,2.17,2.17,0,0,0,.26-1.24,2,2,0,0,0-.26-1.16A.76.76,0,0,0,339.06,243.66Zm0,8.4,4.57-9.16h.84l-4.57,9.16Zm3.63-2.36a2.7,2.7,0,0,1,.45-1.58,1.46,1.46,0,0,1,1.29-.65,1.64,1.64,0,0,1,1.28.59,3.08,3.08,0,0,1,0,3.41,1.62,1.62,0,0,1-1.27.59,1.53,1.53,0,0,1-1.24-.59A2.69,2.69,0,0,1,342.7,249.7Zm1.76-1.47a.74.74,0,0,0-.63.34,2.15,2.15,0,0,0-.26,1.24,2,2,0,0,0,.26,1.16.78.78,0,0,0,1.27,0,2.19,2.19,0,0,0,.25-1.24,1.89,1.89,0,0,0-.26-1.16A.74.74,0,0,0,344.46,248.23Z"/><path class="cls-11" d="M300.41,251.73v-8.68h1.12l4.37,6.83v-6.83h1v8.68h-1.11l-4.37-6.83v6.83Z"/><path class="cls-12" d="M300.41,227.23v-8.69h1.12l4.37,6.84v-6.84h1v8.69h-1.11l-4.37-6.83v6.83Z"/><path class="cls-7" d="M324.43,225.22l1-.1a1.84,1.84,0,0,0,.47,1,1.23,1.23,0,0,0,.89.32,1.5,1.5,0,0,0,.82-.22,1.75,1.75,0,0,0,.58-.6,3.88,3.88,0,0,0,.36-1,5.57,5.57,0,0,0,.15-1.3v-.21a2.33,2.33,0,0,1-.83.82,2,2,0,0,1-1.13.32,2.23,2.23,0,0,1-1.72-.78,3,3,0,0,1-.7-2.06,3.05,3.05,0,0,1,.74-2.13,2.39,2.39,0,0,1,1.85-.8,2.61,2.61,0,0,1,1.48.45,2.83,2.83,0,0,1,1,1.3,6.67,6.67,0,0,1,.35,2.44,8.18,8.18,0,0,1-.35,2.64,3.09,3.09,0,0,1-1,1.5,2.55,2.55,0,0,1-1.59.52,2.25,2.25,0,0,1-1.59-.57A2.43,2.43,0,0,1,324.43,225.22Zm4.14-3.83a2.17,2.17,0,0,0-.46-1.46,1.39,1.39,0,0,0-1.11-.54,1.52,1.52,0,0,0-1.18.58,2.25,2.25,0,0,0-.49,1.51,1.92,1.92,0,0,0,.47,1.35,1.49,1.49,0,0,0,1.17.52,1.47,1.47,0,0,0,1.15-.52A2.12,2.12,0,0,0,328.57,221.39Z"/><path class="cls-7" d="M330.79,219.68v-1h5.34v.82a12.24,12.24,0,0,0-1.56,2.35,14.32,14.32,0,0,0-1.2,3,11.49,11.49,0,0,0-.38,2.39h-1.05a10.87,10.87,0,0,1,.39-2.48,13.48,13.48,0,0,1,1-2.8,12.2,12.2,0,0,1,1.46-2.27Z"/><path class="cls-7" d="M337.3,220.63a2.72,2.72,0,0,1,.45-1.58,1.46,1.46,0,0,1,1.29-.65,1.63,1.63,0,0,1,1.28.58,2.54,2.54,0,0,1,.51,1.72,2.51,2.51,0,0,1-.52,1.7,1.61,1.61,0,0,1-1.26.59,1.57,1.57,0,0,1-1.25-.58A2.7,2.7,0,0,1,337.3,220.63Zm1.76-1.47a.75.75,0,0,0-.63.34,2.17,2.17,0,0,0-.25,1.24,2,2,0,0,0,.25,1.16.76.76,0,0,0,1.27,0,2.17,2.17,0,0,0,.26-1.24,2,2,0,0,0-.26-1.16A.76.76,0,0,0,339.06,219.16Zm0,8.4,4.57-9.16h.84l-4.57,9.16Zm3.63-2.36a2.7,2.7,0,0,1,.45-1.58,1.46,1.46,0,0,1,1.29-.65,1.63,1.63,0,0,1,1.28.58,2.54,2.54,0,0,1,.51,1.72,2.46,2.46,0,0,1-.52,1.69,1.6,1.6,0,0,1-1.27.6,1.56,1.56,0,0,1-1.24-.59A2.69,2.69,0,0,1,342.7,225.2Zm1.76-1.47a.76.76,0,0,0-.63.33,2.19,2.19,0,0,0-.26,1.25,2,2,0,0,0,.26,1.16.78.78,0,0,0,1.27,0,2.19,2.19,0,0,0,.25-1.24,1.94,1.94,0,0,0-.26-1.17A.76.76,0,0,0,344.46,223.73Z"/><path class="cls-7" d="M300.41,239.48V230.8h1.12l4.37,6.83V230.8h1v8.68h-1.11l-4.37-6.83v6.83Z"/><path class="cls-7" d="M324.43,237.47l1-.1a1.84,1.84,0,0,0,.47,1,1.28,1.28,0,0,0,.89.32,1.5,1.5,0,0,0,.82-.22,1.75,1.75,0,0,0,.58-.6,3.88,3.88,0,0,0,.36-1,5.64,5.64,0,0,0,.15-1.3v-.21a2.33,2.33,0,0,1-.83.82,2.12,2.12,0,0,1-1.13.32,2.23,2.23,0,0,1-1.72-.78,3,3,0,0,1-.7-2.06,3.05,3.05,0,0,1,.74-2.13,2.4,2.4,0,0,1,1.85-.81,2.62,2.62,0,0,1,1.48.46,2.83,2.83,0,0,1,1,1.3,6.67,6.67,0,0,1,.35,2.44,8.22,8.22,0,0,1-.35,2.64,3.09,3.09,0,0,1-1,1.5,2.54,2.54,0,0,1-1.59.51,2.29,2.29,0,0,1-1.59-.56A2.45,2.45,0,0,1,324.43,237.47Zm4.14-3.83a2.14,2.14,0,0,0-.46-1.45,1.39,1.39,0,0,0-1.11-.54,1.49,1.49,0,0,0-1.18.58,2.22,2.22,0,0,0-.49,1.5,1.88,1.88,0,0,0,.47,1.35,1.49,1.49,0,0,0,1.17.52,1.44,1.44,0,0,0,1.15-.52A2.12,2.12,0,0,0,328.57,233.64Z"/><path class="cls-7" d="M330.71,235.2a8,8,0,0,1,.31-2.48,3.06,3.06,0,0,1,.9-1.45,2.28,2.28,0,0,1,1.5-.5,2.37,2.37,0,0,1,1.18.28,2.32,2.32,0,0,1,.84.81,4.82,4.82,0,0,1,.51,1.29,9.23,9.23,0,0,1,.18,2,8.4,8.4,0,0,1-.3,2.47,3.06,3.06,0,0,1-.9,1.45,2.27,2.27,0,0,1-1.51.5,2.21,2.21,0,0,1-1.88-.89A5.92,5.92,0,0,1,330.71,235.2Zm1,0a5.65,5.65,0,0,0,.48,2.85,1.44,1.44,0,0,0,1.19.7,1.42,1.42,0,0,0,1.19-.71,8.67,8.67,0,0,0,0-5.69,1.41,1.41,0,0,0-1.2-.7,1.32,1.32,0,0,0-1.14.62A5.84,5.84,0,0,0,331.75,235.2Z"/><path class="cls-7" d="M337.3,232.88a2.72,2.72,0,0,1,.45-1.58,1.46,1.46,0,0,1,1.29-.65,1.64,1.64,0,0,1,1.28.59,2.53,2.53,0,0,1,.51,1.71,2.51,2.51,0,0,1-.52,1.7,1.61,1.61,0,0,1-1.26.59,1.57,1.57,0,0,1-1.25-.58A2.7,2.7,0,0,1,337.3,232.88Zm1.76-1.47a.75.75,0,0,0-.63.34,2.17,2.17,0,0,0-.25,1.24,2,2,0,0,0,.25,1.16.76.76,0,0,0,1.27,0,2.17,2.17,0,0,0,.26-1.24,2,2,0,0,0-.26-1.16A.76.76,0,0,0,339.06,231.41Zm0,8.4,4.57-9.16h.84l-4.57,9.16Zm3.63-2.36a2.7,2.7,0,0,1,.45-1.58,1.46,1.46,0,0,1,1.29-.65,1.63,1.63,0,0,1,1.28.58,2.54,2.54,0,0,1,.51,1.72,2.51,2.51,0,0,1-.52,1.7,1.62,1.62,0,0,1-1.27.59,1.56,1.56,0,0,1-1.24-.59A2.69,2.69,0,0,1,342.7,237.45Zm1.76-1.47a.74.74,0,0,0-.63.34,2.15,2.15,0,0,0-.26,1.24,2,2,0,0,0,.26,1.16.78.78,0,0,0,1.27,0,2.19,2.19,0,0,0,.25-1.24,1.94,1.94,0,0,0-.26-1.17A.76.76,0,0,0,344.46,236Z"/><path class="cls-13" d="M271.14,71.65l1,.14a2.8,2.8,0,0,1-.83,1.69,2.36,2.36,0,0,1-1.65.61,2.48,2.48,0,0,1-2-.84,3.57,3.57,0,0,1-.74-2.43,4.46,4.46,0,0,1,.32-1.78,2.3,2.3,0,0,1,1-1.15,2.8,2.8,0,0,1,1.42-.38,2.41,2.41,0,0,1,1.59.52,2.49,2.49,0,0,1,.79,1.49l-1,.14a1.69,1.69,0,0,0-.49-1,1.19,1.19,0,0,0-.85-.32,1.54,1.54,0,0,0-1.24.57,2.93,2.93,0,0,0-.47,1.83,3,3,0,0,0,.46,1.85,1.49,1.49,0,0,0,1.2.58,1.37,1.37,0,0,0,1-.39A2,2,0,0,0,271.14,71.65Z"/><path class="cls-13" d="M272.57,70.8a3.32,3.32,0,0,1,.93-2.59,2.67,2.67,0,0,1,1.88-.7,2.63,2.63,0,0,1,2,.85,3.35,3.35,0,0,1,.78,2.35,4.34,4.34,0,0,1-.35,1.91,2.44,2.44,0,0,1-1,1.08,2.84,2.84,0,0,1-1.45.39,2.59,2.59,0,0,1-2-.85A3.47,3.47,0,0,1,272.57,70.8Zm1,0a2.75,2.75,0,0,0,.51,1.81,1.62,1.62,0,0,0,2.52,0,2.84,2.84,0,0,0,.5-1.85,2.73,2.73,0,0,0-.5-1.77,1.59,1.59,0,0,0-1.26-.6,1.55,1.55,0,0,0-1.26.6A2.73,2.73,0,0,0,273.61,70.8Z"/><path class="cls-13" d="M280.93,74l-2.26-6.3h1.09L281,71.42c.14.41.27.83.39,1.27.09-.33.21-.73.37-1.2l1.34-3.84h1L281.92,74Z"/><path class="cls-13" d="M288.83,73.17a3.65,3.65,0,0,1-1.08.71,2.94,2.94,0,0,1-1.12.21,2.1,2.1,0,0,1-1.52-.51,1.82,1.82,0,0,1-.33-2.14,1.76,1.76,0,0,1,.52-.62,2.53,2.53,0,0,1,.74-.35,7.76,7.76,0,0,1,.9-.16,8.33,8.33,0,0,0,1.82-.37v-.27a1.21,1.21,0,0,0-.28-.92,1.63,1.63,0,0,0-1.16-.37,1.33,1.33,0,0,0-1.56,1.21l-1-.14a2.66,2.66,0,0,1,.45-1.09,2,2,0,0,1,.9-.63,3.8,3.8,0,0,1,1.36-.22,3.32,3.32,0,0,1,1.25.19,1.54,1.54,0,0,1,.71.48,1.7,1.7,0,0,1,.32.72,6.9,6.9,0,0,1,0,1v1.42a17.31,17.31,0,0,0,.06,1.89,2.29,2.29,0,0,0,.25.75h-1A2.63,2.63,0,0,1,288.83,73.17Zm-.06-2.39a7.15,7.15,0,0,1-1.67.4,4,4,0,0,0-.89.22.86.86,0,0,0-.4.35.9.9,0,0,0-.15.51A1,1,0,0,0,286,73a1.31,1.31,0,0,0,.91.28,2,2,0,0,0,1-.27,1.55,1.55,0,0,0,.67-.74,2.7,2.7,0,0,0,.17-1.08Z"/><path class="cls-13" d="M291.33,74v-6.3h.93v1a2.87,2.87,0,0,1,.63-.89,1.12,1.12,0,0,1,.65-.21,2,2,0,0,1,1,.34l-.36,1a1.48,1.48,0,0,0-.73-.21,1,1,0,0,0-.6.21,1.24,1.24,0,0,0-.37.58,4.5,4.5,0,0,0-.17,1.25V74Z"/><path class="cls-13" d="M295.41,76.37l-.14-1a2.36,2.36,0,0,0,.6.09,1,1,0,0,0,.56-.12.9.9,0,0,0,.34-.33,5.3,5.3,0,0,0,.32-.79l.09-.27-2.29-6.32H296l1.26,3.64c.16.46.31.94.44,1.45.11-.47.25-.94.41-1.41l1.27-3.68h1l-2.25,6.41a13.22,13.22,0,0,1-.57,1.43,2.29,2.29,0,0,1-.64.77,1.46,1.46,0,0,1-.84.24A1.93,1.93,0,0,1,295.41,76.37Z"/><path class="cls-13" d="M301.28,66.47V65.26h1v1.21Zm0,7.48v-6.3h1V74Z"/><path class="cls-13" d="M303.8,74v-6.3h.92v.89a2.11,2.11,0,0,1,1.9-1,2.42,2.42,0,0,1,1,.2,1.57,1.57,0,0,1,.68.54,2.08,2.08,0,0,1,.31.79,5.91,5.91,0,0,1,.06,1v3.87h-1V70.11a2.94,2.94,0,0,0-.12-1,1,1,0,0,0-.41-.52,1.25,1.25,0,0,0-.7-.19,1.57,1.57,0,0,0-1.1.44,2.2,2.2,0,0,0-.46,1.64V74Z"/><path class="cls-13" d="M310,74.47l1,.14a1,1,0,0,0,.34.71,1.53,1.53,0,0,0,1,.31,1.69,1.69,0,0,0,1.08-.3,1.47,1.47,0,0,0,.52-.83,8,8,0,0,0,.07-1.38,2.07,2.07,0,0,1-1.66.83,2.24,2.24,0,0,1-1.92-.94,3.66,3.66,0,0,1-.68-2.25,4.3,4.3,0,0,1,.31-1.66,2.65,2.65,0,0,1,.9-1.18,2.42,2.42,0,0,1,1.39-.41,2.11,2.11,0,0,1,1.75.92v-.78h.93v5.44a5.42,5.42,0,0,1-.29,2.09,2.16,2.16,0,0,1-.9,1,3.05,3.05,0,0,1-1.52.35,2.73,2.73,0,0,1-1.72-.51A1.72,1.72,0,0,1,310,74.47Zm.83-3.78a2.84,2.84,0,0,0,.47,1.81,1.47,1.47,0,0,0,1.18.57,1.5,1.5,0,0,0,1.19-.57,2.77,2.77,0,0,0,.47-1.78,2.64,2.64,0,0,0-.49-1.74,1.47,1.47,0,0,0-1.18-.59,1.44,1.44,0,0,0-1.16.57A2.68,2.68,0,0,0,310.87,70.69Z"/><path class="cls-13" d="M319.86,74v-6.3h.9v.88a2.31,2.31,0,0,1,.75-.74,2,2,0,0,1,1.07-.28,1.94,1.94,0,0,1,1.09.29,1.55,1.55,0,0,1,.6.81,2.13,2.13,0,0,1,1.85-1.1,1.77,1.77,0,0,1,1.38.52,2.3,2.3,0,0,1,.48,1.6V74h-1V70a2.86,2.86,0,0,0-.1-.92.9.9,0,0,0-.36-.46,1.09,1.09,0,0,0-.61-.17,1.38,1.38,0,0,0-1,.44,2,2,0,0,0-.42,1.42V74h-1V69.86a1.93,1.93,0,0,0-.24-1.07.92.92,0,0,0-.81-.36,1.39,1.39,0,0,0-1.32.93,4.1,4.1,0,0,0-.16,1.32V74Z"/><path class="cls-13" d="M333.41,74V73a2.18,2.18,0,0,1-1.91,1.07,2.24,2.24,0,0,1-1-.22,1.7,1.7,0,0,1-.68-.53,2.08,2.08,0,0,1-.31-.79,5.65,5.65,0,0,1-.07-1v-3.9h1v3.49a5.49,5.49,0,0,0,.07,1.12,1.08,1.08,0,0,0,.4.66,1.21,1.21,0,0,0,.76.24,1.64,1.64,0,0,0,.86-.24,1.4,1.4,0,0,0,.56-.67,3.55,3.55,0,0,0,.17-1.23V67.65h1v6.29h-.9Z"/><path class="cls-13" d="M338.13,73l.14.94a3.26,3.26,0,0,1-.77.1,1.72,1.72,0,0,1-.86-.18,1,1,0,0,1-.42-.49,3.74,3.74,0,0,1-.13-1.26V68.48h-.75v-.83h.75V66.1l1-.64v2.19h1v.83h-1v3.67a1.72,1.72,0,0,0,.06.59.39.39,0,0,0,.17.21.67.67,0,0,0,.35.08Z"/><path class="cls-13" d="M343,73.17a3.78,3.78,0,0,1-1.08.71,3,3,0,0,1-1.12.21,2.13,2.13,0,0,1-1.53-.51,1.7,1.7,0,0,1-.53-1.3,1.83,1.83,0,0,1,.2-.84,1.79,1.79,0,0,1,.53-.62,2.59,2.59,0,0,1,.73-.35,7.61,7.61,0,0,1,.91-.16,8.21,8.21,0,0,0,1.81-.37c0-.14,0-.23,0-.27a1.2,1.2,0,0,0-.29-.92,1.6,1.6,0,0,0-1.16-.37,1.67,1.67,0,0,0-1,.27,1.65,1.65,0,0,0-.51.94l-1-.14a2.8,2.8,0,0,1,.45-1.09,2,2,0,0,1,.9-.63,3.86,3.86,0,0,1,1.37-.22,3.39,3.39,0,0,1,1.25.19,1.54,1.54,0,0,1,.71.48,1.69,1.69,0,0,1,.31.72,5.66,5.66,0,0,1,.05,1v1.42a16.33,16.33,0,0,0,.07,1.89,2.53,2.53,0,0,0,.24.75h-1A2.63,2.63,0,0,1,343,73.17ZM343,70.78a7.15,7.15,0,0,1-1.67.4,4,4,0,0,0-.89.22.86.86,0,0,0-.4.35.9.9,0,0,0-.15.51,1,1,0,0,0,.31.72,1.31,1.31,0,0,0,.91.28,2,2,0,0,0,1-.27,1.55,1.55,0,0,0,.67-.74,2.7,2.7,0,0,0,.17-1.08Z"/><path class="cls-13" d="M347.73,73l.14.94a3.26,3.26,0,0,1-.77.1,1.65,1.65,0,0,1-.85-.18,1,1,0,0,1-.43-.49,4,4,0,0,1-.13-1.26V68.48h-.75v-.83h.75V66.1l1-.64v2.19h1v.83h-1v3.67a1.72,1.72,0,0,0,.06.59.39.39,0,0,0,.17.21.67.67,0,0,0,.35.08Z"/><path class="cls-13" d="M348.76,66.47V65.26h1v1.21Zm0,7.48v-6.3h1V74Z"/><path class="cls-13" d="M350.9,70.8a3.35,3.35,0,0,1,.92-2.59,2.7,2.7,0,0,1,1.89-.7,2.59,2.59,0,0,1,2,.85,3.35,3.35,0,0,1,.79,2.35,4.34,4.34,0,0,1-.35,1.91,2.4,2.4,0,0,1-1,1.08,2.78,2.78,0,0,1-1.44.39,2.59,2.59,0,0,1-2-.85A3.47,3.47,0,0,1,350.9,70.8Zm1,0a2.81,2.81,0,0,0,.5,1.81,1.63,1.63,0,0,0,2.53,0,2.9,2.9,0,0,0,.5-1.85A2.67,2.67,0,0,0,355,69a1.62,1.62,0,0,0-2.52,0A2.79,2.79,0,0,0,351.94,70.8Z"/><path class="cls-13" d="M357.7,74v-6.3h.93v.89a2.09,2.09,0,0,1,1.89-1,2.47,2.47,0,0,1,1,.2,1.54,1.54,0,0,1,.67.54,2.08,2.08,0,0,1,.32.79,7.6,7.6,0,0,1,.05,1v3.87h-1V70.11a2.69,2.69,0,0,0-.12-1,1,1,0,0,0-.41-.52,1.25,1.25,0,0,0-.7-.19,1.57,1.57,0,0,0-1.1.44,2.2,2.2,0,0,0-.46,1.64V74Z"/><path class="cls-13" d="M363.75,72.05l1-.14a1.52,1.52,0,0,0,.47,1,1.57,1.57,0,0,0,1.07.33,1.56,1.56,0,0,0,1-.3.91.91,0,0,0,.33-.7.66.66,0,0,0-.3-.57,5.06,5.06,0,0,0-1-.36,9.37,9.37,0,0,1-1.53-.51,1.57,1.57,0,0,1-.65-.6,1.62,1.62,0,0,1-.22-.84,1.71,1.71,0,0,1,.68-1.38,2.24,2.24,0,0,1,.64-.31,2.73,2.73,0,0,1,.87-.13,3.11,3.11,0,0,1,1.23.22,1.71,1.71,0,0,1,.78.58,2.26,2.26,0,0,1,.35,1l-1,.14a1.19,1.19,0,0,0-.39-.76,1.34,1.34,0,0,0-.91-.28,1.6,1.6,0,0,0-1,.24.74.74,0,0,0-.3.57.58.58,0,0,0,.13.38.88.88,0,0,0,.38.28l.89.28a12.49,12.49,0,0,1,1.5.49,1.6,1.6,0,0,1,.67.56,1.65,1.65,0,0,1,.24.91,1.85,1.85,0,0,1-.29,1,2,2,0,0,1-.85.73,3,3,0,0,1-1.26.25,2.71,2.71,0,0,1-1.77-.51A2.44,2.44,0,0,1,363.75,72.05Z"/><path class="cls-13" d="M243.15,62.59h-1V53.91h1V57a2,2,0,0,1,1.65-.84,2.5,2.5,0,0,1,1,.23,2.13,2.13,0,0,1,.82.66,3.24,3.24,0,0,1,.5,1,4.45,4.45,0,0,1,.18,1.28,3.75,3.75,0,0,1-.76,2.5,2.34,2.34,0,0,1-1.83.88,1.88,1.88,0,0,1-1.67-.92v.78Zm0-3.19a3.31,3.31,0,0,0,.3,1.63,1.42,1.42,0,0,0,2.46.22,2.88,2.88,0,0,0,.48-1.81,2.92,2.92,0,0,0-.46-1.82,1.42,1.42,0,0,0-1.13-.59,1.46,1.46,0,0,0-1.16.61A2.71,2.71,0,0,0,243.12,59.4Z"/><path class="cls-13" d="M252.58,61.81a3.54,3.54,0,0,1-1.09.72,3,3,0,0,1-1.12.21,2.1,2.1,0,0,1-1.52-.51,1.86,1.86,0,0,1-.33-2.14,1.76,1.76,0,0,1,.52-.62,2.65,2.65,0,0,1,.74-.35,7.76,7.76,0,0,1,.9-.16,9,9,0,0,0,1.82-.36c0-.15,0-.24,0-.28a1.2,1.2,0,0,0-.29-.92,1.66,1.66,0,0,0-1.16-.37,1.77,1.77,0,0,0-1.06.27,1.7,1.7,0,0,0-.5.94l-1-.14a2.55,2.55,0,0,1,.45-1.08,2,2,0,0,1,.9-.64,3.82,3.82,0,0,1,1.37-.22,3.42,3.42,0,0,1,1.25.19,1.66,1.66,0,0,1,.7.48,1.7,1.7,0,0,1,.32.72,6.9,6.9,0,0,1,.05,1V60a17.08,17.08,0,0,0,.06,1.88,2.83,2.83,0,0,0,.25.76h-1A2.35,2.35,0,0,1,252.58,61.81Zm-.07-2.39a7.07,7.07,0,0,1-1.67.41A3.62,3.62,0,0,0,250,60a.91.91,0,0,0-.4.35.94.94,0,0,0-.14.51,1,1,0,0,0,.3.72,1.29,1.29,0,0,0,.9.28,2,2,0,0,0,1-.27,1.51,1.51,0,0,0,.67-.74,2.7,2.7,0,0,0,.17-1.08Z"/><path class="cls-13" d="M254.69,60.7l1-.14a1.42,1.42,0,0,0,.47,1,1.53,1.53,0,0,0,1.07.34,1.51,1.51,0,0,0,1-.3.91.91,0,0,0,.34-.7.66.66,0,0,0-.3-.57,4.05,4.05,0,0,0-1-.36,8.29,8.29,0,0,1-1.53-.52,1.5,1.5,0,0,1-.65-.59,1.66,1.66,0,0,1-.22-.85,1.71,1.71,0,0,1,.68-1.38,2.12,2.12,0,0,1,.64-.31,3,3,0,0,1,.87-.12,3.34,3.34,0,0,1,1.23.21,1.78,1.78,0,0,1,.78.58,2.31,2.31,0,0,1,.35,1l-1,.14a1.22,1.22,0,0,0-.39-.76,1.34,1.34,0,0,0-.91-.28,1.6,1.6,0,0,0-1,.24.74.74,0,0,0-.3.57.65.65,0,0,0,.13.38.88.88,0,0,0,.38.28l.89.28a12.49,12.49,0,0,1,1.5.49,1.6,1.6,0,0,1,.67.56,1.66,1.66,0,0,1,.24.92,1.82,1.82,0,0,1-.29,1,1.85,1.85,0,0,1-.85.73,3,3,0,0,1-1.26.26,2.61,2.61,0,0,1-1.76-.52A2.41,2.41,0,0,1,254.69,60.7Z"/><path class="cls-13" d="M265,60.56l1,.14a2.63,2.63,0,0,1-.92,1.5,2.66,2.66,0,0,1-1.72.54,2.71,2.71,0,0,1-2.09-.85,3.42,3.42,0,0,1-.77-2.39A3.6,3.6,0,0,1,261.3,57a2.6,2.6,0,0,1,2-.87,2.49,2.49,0,0,1,2,.86,3.52,3.52,0,0,1,.77,2.43c0,.06,0,.15,0,.28h-4.49a2.38,2.38,0,0,0,.56,1.58,1.67,1.67,0,0,0,1.28.55,1.52,1.52,0,0,0,1-.31A2.1,2.1,0,0,0,265,60.56Zm-3.42-1.71H265a2.21,2.21,0,0,0-.4-1.2,1.58,1.58,0,0,0-1.29-.62,1.65,1.65,0,0,0-1.21.5A2,2,0,0,0,261.58,58.85Z"/><path class="cls-13" d="M270.46,65V56.3h.92v.81a2.16,2.16,0,0,1,.74-.71,2,2,0,0,1,1-.24,2.37,2.37,0,0,1,1.36.41,2.58,2.58,0,0,1,.89,1.17,4.49,4.49,0,0,1,.3,1.66,4.39,4.39,0,0,1-.33,1.74,2.6,2.6,0,0,1-1,1.19,2.42,2.42,0,0,1-1.33.41,1.84,1.84,0,0,1-.91-.23,2.14,2.14,0,0,1-.66-.56V65Zm.9-5.53a2.87,2.87,0,0,0,.47,1.8,1.43,1.43,0,0,0,1.14.58,1.46,1.46,0,0,0,1.17-.6,3,3,0,0,0,.48-1.87,2.94,2.94,0,0,0-.47-1.81A1.42,1.42,0,0,0,273,57a1.46,1.46,0,0,0-1.15.64A2.94,2.94,0,0,0,271.36,59.48Z"/><path class="cls-13" d="M280.84,61.81a3.79,3.79,0,0,1-1.09.72,3,3,0,0,1-1.12.21,2.1,2.1,0,0,1-1.52-.51,1.82,1.82,0,0,1-.33-2.14,1.76,1.76,0,0,1,.52-.62,2.53,2.53,0,0,1,.74-.35,7.76,7.76,0,0,1,.9-.16,9.11,9.11,0,0,0,1.82-.36v-.28a1.21,1.21,0,0,0-.28-.92,1.66,1.66,0,0,0-1.16-.37,1.77,1.77,0,0,0-1.06.27,1.7,1.7,0,0,0-.5.94l-1-.14a2.55,2.55,0,0,1,.45-1.08,1.92,1.92,0,0,1,.9-.64,3.77,3.77,0,0,1,1.36-.22,3.39,3.39,0,0,1,1.25.19,1.49,1.49,0,0,1,1,1.2,6.9,6.9,0,0,1,0,1V60a17.08,17.08,0,0,0,.06,1.88,2.27,2.27,0,0,0,.25.76h-1A2.35,2.35,0,0,1,280.84,61.81Zm-.07-2.39a7.2,7.2,0,0,1-1.67.41,3.5,3.5,0,0,0-.89.21.91.91,0,0,0-.4.35,1,1,0,0,0-.15.51.92.92,0,0,0,.31.72,1.29,1.29,0,0,0,.9.28,2.05,2.05,0,0,0,1.05-.27,1.51,1.51,0,0,0,.67-.74,2.7,2.7,0,0,0,.17-1.08Z"/><path class="cls-13" d="M283.38,55.11v-1.2h1v1.2Zm0,7.48V56.3h1v6.29Z"/><path class="cls-13" d="M285.9,62.59V56.3h.92v1a2.6,2.6,0,0,1,.64-.89,1.1,1.1,0,0,1,.65-.21,1.86,1.86,0,0,1,1,.34l-.36,1a1.45,1.45,0,0,0-.73-.21.93.93,0,0,0-.59.21,1.12,1.12,0,0,0-.37.58,4.13,4.13,0,0,0-.17,1.24v3.29Z"/><path class="cls-13" d="M296.88,61.81a3.63,3.63,0,0,1-1.08.72,3,3,0,0,1-1.12.21,2.14,2.14,0,0,1-1.53-.51,1.73,1.73,0,0,1-.53-1.3,1.79,1.79,0,0,1,.73-1.46,2.59,2.59,0,0,1,.73-.35A8,8,0,0,1,295,59a9,9,0,0,0,1.81-.36c0-.15,0-.24,0-.28a1.17,1.17,0,0,0-.29-.92,1.64,1.64,0,0,0-1.15-.37,1.77,1.77,0,0,0-1.06.27,1.59,1.59,0,0,0-.5.94l-1-.14a2.55,2.55,0,0,1,.45-1.08,1.89,1.89,0,0,1,.89-.64,3.86,3.86,0,0,1,1.37-.22,3.39,3.39,0,0,1,1.25.19,1.49,1.49,0,0,1,1,1.2,6.9,6.9,0,0,1,.05,1V60a17.08,17.08,0,0,0,.06,1.88,2.5,2.5,0,0,0,.24.76h-1A2.35,2.35,0,0,1,296.88,61.81Zm-.07-2.39a7.07,7.07,0,0,1-1.67.41,3.62,3.62,0,0,0-.89.21.91.91,0,0,0-.4.35.94.94,0,0,0-.14.51.92.92,0,0,0,.31.72,1.26,1.26,0,0,0,.9.28,2,2,0,0,0,1-.27,1.58,1.58,0,0,0,.68-.74,2.92,2.92,0,0,0,.16-1.08Z"/><path class="cls-13" d="M299.38,62.59V56.3h.92v.89a2.11,2.11,0,0,1,1.89-1,2.47,2.47,0,0,1,1,.2,1.57,1.57,0,0,1,.68.54,2.08,2.08,0,0,1,.31.79,5.91,5.91,0,0,1,.06,1V62.6h-1V58.76a3,3,0,0,0-.12-1,1.06,1.06,0,0,0-.41-.52,1.33,1.33,0,0,0-.7-.19,1.6,1.6,0,0,0-1.1.43,2.24,2.24,0,0,0-.46,1.65V62.6h-1Z"/><path class="cls-13" d="M305.8,62.59V56.3h.92v.89a2.11,2.11,0,0,1,1.9-1,2.47,2.47,0,0,1,1,.2,1.6,1.6,0,0,1,.67.54,2.08,2.08,0,0,1,.32.79,7.6,7.6,0,0,1,0,1V62.6h-1V58.76a3,3,0,0,0-.12-1,1,1,0,0,0-.41-.52,1.32,1.32,0,0,0-.69-.19,1.61,1.61,0,0,0-1.11.43,2.24,2.24,0,0,0-.46,1.65V62.6h-1Z"/><path class="cls-13" d="M311.85,59.45a3.31,3.31,0,0,1,.92-2.59,2.67,2.67,0,0,1,1.88-.7,2.6,2.6,0,0,1,2,.85,3.35,3.35,0,0,1,.78,2.35,4.35,4.35,0,0,1-.34,1.91,2.46,2.46,0,0,1-1,1.08,2.79,2.79,0,0,1-1.45.39,2.64,2.64,0,0,1-2-.85A3.49,3.49,0,0,1,311.85,59.45Zm1,0a2.82,2.82,0,0,0,.5,1.82,1.58,1.58,0,0,0,1.26.6,1.54,1.54,0,0,0,1.26-.61,2.79,2.79,0,0,0,.51-1.84,2.67,2.67,0,0,0-.51-1.77,1.61,1.61,0,0,0-2.52,0A2.81,2.81,0,0,0,312.89,59.44Z"/><path class="cls-13" d="M320.88,61.65l.14.94a4,4,0,0,1-.77.1,1.59,1.59,0,0,1-.86-.19A1,1,0,0,1,319,62a4.14,4.14,0,0,1-.12-1.26V57.13h-.75V56.3h.75V54.74l1-.64v2.2h1v.83h-1V60.8a2.24,2.24,0,0,0,.05.59.46.46,0,0,0,.18.21.64.64,0,0,0,.34.07Z"/><path class="cls-13" d="M325.79,61.81a3.54,3.54,0,0,1-1.09.72,2.94,2.94,0,0,1-1.12.21,2.1,2.1,0,0,1-1.52-.51,1.86,1.86,0,0,1-.33-2.14,1.76,1.76,0,0,1,.52-.62,2.65,2.65,0,0,1,.74-.35,7.76,7.76,0,0,1,.9-.16,9,9,0,0,0,1.82-.36c0-.15,0-.24,0-.28a1.2,1.2,0,0,0-.29-.92,1.66,1.66,0,0,0-1.16-.37,1.74,1.74,0,0,0-1,.27,1.65,1.65,0,0,0-.51.94l-1-.14a2.55,2.55,0,0,1,.45-1.08,2,2,0,0,1,.9-.64,3.82,3.82,0,0,1,1.37-.22,3.39,3.39,0,0,1,1.25.19,1.66,1.66,0,0,1,.7.48,1.59,1.59,0,0,1,.32.72,6.9,6.9,0,0,1,.05,1V60a17.08,17.08,0,0,0,.06,1.88,2.52,2.52,0,0,0,.25.76h-1A2.35,2.35,0,0,1,325.79,61.81Zm-.07-2.39a7.07,7.07,0,0,1-1.67.41,3.62,3.62,0,0,0-.89.21,1,1,0,0,0-.41.35,1,1,0,0,0-.14.51,1,1,0,0,0,.31.72,1.31,1.31,0,0,0,.91.28,2,2,0,0,0,1-.27,1.51,1.51,0,0,0,.67-.74,2.7,2.7,0,0,0,.17-1.08Z"/><path class="cls-13" d="M330.47,61.65l.14.94a3.78,3.78,0,0,1-.76.1,1.59,1.59,0,0,1-.86-.19,1,1,0,0,1-.43-.48,4.14,4.14,0,0,1-.12-1.26V57.13h-.76V56.3h.76V54.74l1-.64v2.2h1v.83h-1V60.8a2.24,2.24,0,0,0,.05.59.39.39,0,0,0,.17.21.68.68,0,0,0,.35.07Z"/><path class="cls-13" d="M331.51,55.11v-1.2h1v1.2Zm0,7.48V56.3h1v6.29Z"/><path class="cls-13" d="M333.64,59.45a3.32,3.32,0,0,1,.93-2.59,2.67,2.67,0,0,1,1.88-.7,2.61,2.61,0,0,1,2,.85,3.35,3.35,0,0,1,.78,2.35,4.35,4.35,0,0,1-.34,1.91,2.46,2.46,0,0,1-1,1.08,2.79,2.79,0,0,1-1.45.39,2.64,2.64,0,0,1-2-.85A3.49,3.49,0,0,1,333.64,59.45Zm1.05,0a2.82,2.82,0,0,0,.5,1.82,1.59,1.59,0,0,0,1.26.6,1.54,1.54,0,0,0,1.26-.61,2.79,2.79,0,0,0,.51-1.84,2.67,2.67,0,0,0-.51-1.77,1.61,1.61,0,0,0-2.52,0A2.75,2.75,0,0,0,334.69,59.44Z"/><path class="cls-13" d="M340.45,62.59V56.3h.92v.89a2.11,2.11,0,0,1,1.89-1,2.47,2.47,0,0,1,1,.2,1.57,1.57,0,0,1,.68.54,2.08,2.08,0,0,1,.31.79,5.91,5.91,0,0,1,.06,1V62.6h-1V58.76a3,3,0,0,0-.12-1,1.06,1.06,0,0,0-.41-.52,1.33,1.33,0,0,0-.7-.19,1.6,1.6,0,0,0-1.1.43,2.24,2.24,0,0,0-.46,1.65V62.6h-1Z"/><path class="cls-13" d="M346.49,60.7l1-.14a1.51,1.51,0,0,0,.47,1,1.57,1.57,0,0,0,1.08.34,1.51,1.51,0,0,0,1-.3.94.94,0,0,0,.34-.7.65.65,0,0,0-.31-.57,3.78,3.78,0,0,0-1-.36,8.29,8.29,0,0,1-1.53-.52,1.44,1.44,0,0,1-.65-.59,1.66,1.66,0,0,1-.22-.85,1.72,1.72,0,0,1,.18-.78,1.69,1.69,0,0,1,.49-.6,2.24,2.24,0,0,1,.64-.31,3,3,0,0,1,.87-.12,3.3,3.3,0,0,1,1.23.21,1.76,1.76,0,0,1,.79.58,2.45,2.45,0,0,1,.34,1l-1,.14a1.13,1.13,0,0,0-.39-.76,1.31,1.31,0,0,0-.91-.28,1.55,1.55,0,0,0-1,.24.74.74,0,0,0-.3.57.64.64,0,0,0,.12.38.86.86,0,0,0,.39.28l.89.28a11.59,11.59,0,0,1,1.49.49,1.63,1.63,0,0,1,.68.56,1.66,1.66,0,0,1,.24.92,1.89,1.89,0,0,1-1.14,1.73,3,3,0,0,1-1.26.26,2.65,2.65,0,0,1-1.77-.52A2.45,2.45,0,0,1,346.49,60.7Z"/><path class="cls-13" d="M271.14,82.25l1,.15a2.78,2.78,0,0,1-.83,1.68,2.36,2.36,0,0,1-1.65.61,2.48,2.48,0,0,1-2-.84,3.54,3.54,0,0,1-.74-2.42,4.51,4.51,0,0,1,.32-1.79,2.24,2.24,0,0,1,1-1.14,2.71,2.71,0,0,1,1.42-.39,2.37,2.37,0,0,1,1.59.53,2.46,2.46,0,0,1,.79,1.48l-1,.15a1.69,1.69,0,0,0-.49-1,1.23,1.23,0,0,0-.85-.32,1.52,1.52,0,0,0-1.24.58A2.89,2.89,0,0,0,268,81.4a3,3,0,0,0,.46,1.84,1.46,1.46,0,0,0,1.2.58,1.41,1.41,0,0,0,1-.38A2,2,0,0,0,271.14,82.25Z"/><path class="cls-13" d="M272.57,81.4a3.33,3.33,0,0,1,.93-2.59,2.72,2.72,0,0,1,1.88-.7,2.64,2.64,0,0,1,2,.86,3.33,3.33,0,0,1,.78,2.35,4.37,4.37,0,0,1-.35,1.91,2.54,2.54,0,0,1-1,1.08,2.83,2.83,0,0,1-1.45.38,2.62,2.62,0,0,1-2-.84A3.52,3.52,0,0,1,272.57,81.4Zm1,0a2.73,2.73,0,0,0,.51,1.81,1.61,1.61,0,0,0,2.52,0,2.81,2.81,0,0,0,.5-1.84,2.74,2.74,0,0,0-.5-1.78,1.62,1.62,0,0,0-2.52,0A2.73,2.73,0,0,0,273.61,81.4Z"/><path class="cls-13" d="M279.38,84.55v-6.3h.9v.89a2.24,2.24,0,0,1,.75-.75,2.07,2.07,0,0,1,1.06-.28,2,2,0,0,1,1.1.29,1.64,1.64,0,0,1,.6.81,2.13,2.13,0,0,1,1.85-1.1,1.82,1.82,0,0,1,1.38.52,2.3,2.3,0,0,1,.48,1.6v4.32h-1v-4a2.9,2.9,0,0,0-.1-.92.84.84,0,0,0-.36-.45,1,1,0,0,0-.6-.18,1.35,1.35,0,0,0-1.05.45,2,2,0,0,0-.42,1.41v3.66h-1V80.46a2,2,0,0,0-.24-1.07.94.94,0,0,0-.81-.35,1.46,1.46,0,0,0-.79.23,1.31,1.31,0,0,0-.53.7,4.06,4.06,0,0,0-.16,1.32v3.26Z"/><path class="cls-13" d="M289,87V78.25h.93v.82a2.29,2.29,0,0,1,.74-.72,1.92,1.92,0,0,1,1-.24,2.26,2.26,0,0,1,1.35.42,2.42,2.42,0,0,1,.89,1.17,4.4,4.4,0,0,1,.3,1.65,4.35,4.35,0,0,1-.33,1.74,2.6,2.6,0,0,1-1,1.19,2.36,2.36,0,0,1-1.32.41,1.8,1.8,0,0,1-.91-.22,2.18,2.18,0,0,1-.67-.57V87Zm.9-5.53a2.77,2.77,0,0,0,.48,1.8,1.41,1.41,0,0,0,1.14.59,1.43,1.43,0,0,0,1.16-.61,2.89,2.89,0,0,0,.49-1.86,2.92,2.92,0,0,0-.47-1.81,1.37,1.37,0,0,0-2.29,0A2.89,2.89,0,0,0,289.87,81.43Z"/><path class="cls-13" d="M299.35,83.77a3.4,3.4,0,0,1-1.08.71,3,3,0,0,1-1.13.21,2.1,2.1,0,0,1-1.52-.51,1.71,1.71,0,0,1-.53-1.29,1.87,1.87,0,0,1,.2-.85,1.65,1.65,0,0,1,.53-.61,2.25,2.25,0,0,1,.73-.35,6,6,0,0,1,.91-.16,9.59,9.59,0,0,0,1.81-.37c0-.15,0-.24,0-.28a1.22,1.22,0,0,0-.29-.92,1.63,1.63,0,0,0-1.15-.36,1.76,1.76,0,0,0-1.06.26,1.65,1.65,0,0,0-.51.94l-1-.14A2.55,2.55,0,0,1,295.7,79a2,2,0,0,1,.9-.64,3.86,3.86,0,0,1,1.37-.22,3.61,3.61,0,0,1,1.25.19,1.77,1.77,0,0,1,.71.48,1.69,1.69,0,0,1,.31.72,7,7,0,0,1,.05,1v1.43a16.11,16.11,0,0,0,.07,1.88,2.53,2.53,0,0,0,.24.75h-1A2.23,2.23,0,0,1,299.35,83.77Zm-.07-2.39a7.6,7.6,0,0,1-1.67.41,3.62,3.62,0,0,0-.89.21.91.91,0,0,0-.4.35.89.89,0,0,0-.14.51,1,1,0,0,0,.3.72,1.29,1.29,0,0,0,.9.28,2,2,0,0,0,1.05-.26,1.57,1.57,0,0,0,.67-.75,2.67,2.67,0,0,0,.17-1.07Z"/><path class="cls-13" d="M304,83.61l.14.94a3.79,3.79,0,0,1-.77.1,1.74,1.74,0,0,1-.86-.19,1,1,0,0,1-.42-.48,4.07,4.07,0,0,1-.13-1.27V79.08h-.75v-.82H302V76.7l1-.64v2.2h1v.82h-1v3.68a1.69,1.69,0,0,0,.06.58.39.39,0,0,0,.17.21.65.65,0,0,0,.35.08Z"/><path class="cls-13" d="M305.07,77.07V75.86h1v1.21Zm0,7.48v-6.3h1v6.3Z"/><path class="cls-13" d="M308.51,84.55h-.95V75.86h1V79a2,2,0,0,1,1.65-.85,2.38,2.38,0,0,1,1,.24,2.14,2.14,0,0,1,.81.65,3.41,3.41,0,0,1,.5,1,4.4,4.4,0,0,1,.18,1.28,3.75,3.75,0,0,1-.76,2.5,2.34,2.34,0,0,1-1.83.88,1.89,1.89,0,0,1-1.67-.93v.79Zm0-3.2a3.35,3.35,0,0,0,.29,1.64,1.42,1.42,0,0,0,2.46.22,3.67,3.67,0,0,0,0-3.63,1.41,1.41,0,0,0-1.13-.59,1.44,1.44,0,0,0-1.16.61A2.76,2.76,0,0,0,308.49,81.35Z"/><path class="cls-13" d="M314,84.55V75.86h1v8.69Z"/><path class="cls-13" d="M320.73,82.51l1,.15A2.82,2.82,0,0,1,317,83.84a3.39,3.39,0,0,1-.77-2.38A3.6,3.6,0,0,1,317,79a2.56,2.56,0,0,1,2-.88,2.52,2.52,0,0,1,2,.86,3.56,3.56,0,0,1,.76,2.43v.29h-4.49a2.36,2.36,0,0,0,.57,1.58,1.68,1.68,0,0,0,1.27.55,1.58,1.58,0,0,0,1-.31A2.08,2.08,0,0,0,320.73,82.51Zm-3.42-1.7h3.43a2.13,2.13,0,0,0-.39-1.2,1.58,1.58,0,0,0-1.29-.62,1.61,1.61,0,0,0-1.21.5A2,2,0,0,0,317.31,80.81Z"/><path class="cls-13" d="M326.21,84.55v-6.3h.9v.89a2.24,2.24,0,0,1,.75-.75,2.13,2.13,0,0,1,1.07-.28,1.9,1.9,0,0,1,1.09.29,1.53,1.53,0,0,1,.6.81,2.16,2.16,0,0,1,1.86-1.1,1.82,1.82,0,0,1,1.38.52,2.35,2.35,0,0,1,.48,1.6v4.32h-1v-4a3.23,3.23,0,0,0-.1-.92.89.89,0,0,0-.36-.45,1,1,0,0,0-.61-.18,1.38,1.38,0,0,0-1.05.45,2,2,0,0,0-.41,1.41v3.66h-1V80.46a1.86,1.86,0,0,0-.25-1.07.91.91,0,0,0-.8-.35,1.52,1.52,0,0,0-.8.23,1.34,1.34,0,0,0-.52.7,4.06,4.06,0,0,0-.16,1.32v3.26h-1Z"/><path class="cls-13" d="M339.76,84.55v-.93a2.16,2.16,0,0,1-1.9,1.07,2.31,2.31,0,0,1-1-.21,1.52,1.52,0,0,1-.68-.54,2.08,2.08,0,0,1-.32-.79,5.9,5.9,0,0,1-.06-1v-3.9h1v3.49a6.84,6.84,0,0,0,.06,1.13,1.09,1.09,0,0,0,.41.66,1.25,1.25,0,0,0,.76.24,1.62,1.62,0,0,0,.85-.25,1.33,1.33,0,0,0,.57-.67,3.55,3.55,0,0,0,.16-1.23V78.25h1v6.3Z"/><path class="cls-13" d="M344.48,83.61l.14.94a3.78,3.78,0,0,1-.76.1,1.69,1.69,0,0,1-.86-.19,1,1,0,0,1-.43-.48,4.17,4.17,0,0,1-.12-1.27V79.08h-.76v-.82h.76V76.7l1-.64v2.2h1v.82h-1v3.68a2.15,2.15,0,0,0,0,.58.39.39,0,0,0,.17.21.67.67,0,0,0,.35.08Z"/><path class="cls-13" d="M349.39,83.77a3.4,3.4,0,0,1-1.08.71,3,3,0,0,1-1.12.21,2.1,2.1,0,0,1-1.52-.51,1.68,1.68,0,0,1-.54-1.29,1.87,1.87,0,0,1,.2-.85,1.75,1.75,0,0,1,.53-.61,2.35,2.35,0,0,1,.73-.35,6.51,6.51,0,0,1,.91-.16,9.73,9.73,0,0,0,1.82-.37v-.28a1.22,1.22,0,0,0-.28-.92,1.66,1.66,0,0,0-1.16-.36,1.78,1.78,0,0,0-1.06.26,1.64,1.64,0,0,0-.5.94l-1-.14a2.55,2.55,0,0,1,.45-1.08,2,2,0,0,1,.9-.64,3.77,3.77,0,0,1,1.36-.22,3.61,3.61,0,0,1,1.25.19,1.49,1.49,0,0,1,1,1.2,7,7,0,0,1,0,1v1.43a17.08,17.08,0,0,0,.06,1.88,2.29,2.29,0,0,0,.25.75h-1A2.47,2.47,0,0,1,349.39,83.77Zm-.07-2.39a7.49,7.49,0,0,1-1.66.41,3.5,3.5,0,0,0-.89.21.86.86,0,0,0-.4.35.9.9,0,0,0-.15.51.92.92,0,0,0,.31.72,1.29,1.29,0,0,0,.9.28,2,2,0,0,0,1.05-.26,1.57,1.57,0,0,0,.67-.75,2.67,2.67,0,0,0,.17-1.07Z"/><path class="cls-13" d="M354.08,83.61l.14.94a3.78,3.78,0,0,1-.76.1,1.69,1.69,0,0,1-.86-.19,1,1,0,0,1-.43-.48,4.17,4.17,0,0,1-.12-1.27V79.08h-.76v-.82h.76V76.7l1-.64v2.2h1v.82h-1v3.68a1.79,1.79,0,0,0,.05.58.39.39,0,0,0,.17.21.67.67,0,0,0,.35.08Z"/><path class="cls-13" d="M355.11,77.07V75.86h1v1.21Zm0,7.48v-6.3h1v6.3Z"/><path class="cls-13" d="M357.25,81.4a3.33,3.33,0,0,1,.93-2.59,2.72,2.72,0,0,1,1.88-.7,2.64,2.64,0,0,1,2,.86,3.33,3.33,0,0,1,.78,2.35,4.23,4.23,0,0,1-.35,1.91,2.54,2.54,0,0,1-1,1.08,2.83,2.83,0,0,1-1.45.38,2.62,2.62,0,0,1-2-.84A3.52,3.52,0,0,1,357.25,81.4Zm1.05,0a2.73,2.73,0,0,0,.5,1.81,1.61,1.61,0,0,0,2.52,0,2.87,2.87,0,0,0,.5-1.84,2.74,2.74,0,0,0-.5-1.78,1.62,1.62,0,0,0-2.52,0A2.73,2.73,0,0,0,358.3,81.4Z"/><path class="cls-13" d="M364.06,84.55v-6.3H365v.9a2.11,2.11,0,0,1,1.89-1,2.31,2.31,0,0,1,1,.21,1.54,1.54,0,0,1,.68.53,2.14,2.14,0,0,1,.31.79,6,6,0,0,1,.06,1v3.87h-1V80.72a3,3,0,0,0-.12-1,1.08,1.08,0,0,0-.41-.51,1.25,1.25,0,0,0-.7-.2,1.53,1.53,0,0,0-1.1.44,2.19,2.19,0,0,0-.47,1.64v3.44Z"/><path class="cls-13" d="M370.1,82.66l1-.15a1.54,1.54,0,0,0,.47,1,1.62,1.62,0,0,0,1.08.34,1.53,1.53,0,0,0,1-.3,1,1,0,0,0,.34-.71.65.65,0,0,0-.31-.57,4.83,4.83,0,0,0-1-.36,9.09,9.09,0,0,1-1.53-.51,1.51,1.51,0,0,1-.65-.6,1.6,1.6,0,0,1-.22-.84,1.72,1.72,0,0,1,.18-.78,1.83,1.83,0,0,1,.5-.6,2.24,2.24,0,0,1,.64-.31,3,3,0,0,1,.87-.13,3.29,3.29,0,0,1,1.23.22,1.65,1.65,0,0,1,.78.58,2.26,2.26,0,0,1,.35,1l-1,.14a1.15,1.15,0,0,0-.39-.76,1.34,1.34,0,0,0-.91-.28,1.53,1.53,0,0,0-1,.25.73.73,0,0,0-.29.56.64.64,0,0,0,.12.38.88.88,0,0,0,.38.28l.89.28a12.49,12.49,0,0,1,1.5.49,1.6,1.6,0,0,1,.67.56,1.57,1.57,0,0,1,.25.91,1.84,1.84,0,0,1-.3,1,1.8,1.8,0,0,1-.85.73,3,3,0,0,1-1.25.26,2.62,2.62,0,0,1-1.77-.52A2.45,2.45,0,0,1,370.1,82.66Z"/><path class="cls-13" d="M267.23,95.15V88.86h.93v.89a2.09,2.09,0,0,1,1.89-1,2.31,2.31,0,0,1,1,.21,1.56,1.56,0,0,1,.68.54,2.28,2.28,0,0,1,.31.78,7.43,7.43,0,0,1,.06,1v3.87h-1V91.32a2.65,2.65,0,0,0-.13-1,1,1,0,0,0-.41-.52,1.22,1.22,0,0,0-.7-.19,1.56,1.56,0,0,0-1.1.43,2.23,2.23,0,0,0-.46,1.64v3.44Z"/><path class="cls-13" d="M273.28,92a3.38,3.38,0,0,1,.92-2.59,2.75,2.75,0,0,1,1.89-.69,2.63,2.63,0,0,1,2,.85,3.35,3.35,0,0,1,.78,2.35,4.34,4.34,0,0,1-.35,1.91,2.57,2.57,0,0,1-1,1.08,2.78,2.78,0,0,1-1.44.39,2.66,2.66,0,0,1-2-.85A3.54,3.54,0,0,1,273.28,92Zm1,0a2.84,2.84,0,0,0,.5,1.82,1.6,1.6,0,0,0,1.27.6,1.57,1.57,0,0,0,1.26-.61,2.87,2.87,0,0,0,.5-1.84,2.72,2.72,0,0,0-.51-1.78,1.57,1.57,0,0,0-1.25-.6,1.6,1.6,0,0,0-1.27.6A2.79,2.79,0,0,0,274.32,92Z"/><path class="cls-13" d="M283.29,95.15V88.86h.9v.88a2.21,2.21,0,0,1,.75-.74,2,2,0,0,1,1.07-.28,1.84,1.84,0,0,1,1.09.29,1.55,1.55,0,0,1,.6.81,2.16,2.16,0,0,1,1.86-1.1,1.75,1.75,0,0,1,1.37.52,2.26,2.26,0,0,1,.48,1.59v4.32h-1v-4a3.41,3.41,0,0,0-.09-.93.93.93,0,0,0-.36-.45,1.12,1.12,0,0,0-.61-.17,1.4,1.4,0,0,0-1.05.44,2.06,2.06,0,0,0-.41,1.41v3.67h-1v-4.1A1.88,1.88,0,0,0,286.6,90a.9.9,0,0,0-.81-.36,1.43,1.43,0,0,0-.79.24,1.36,1.36,0,0,0-.52.69,4.06,4.06,0,0,0-.17,1.32v3.27h-1Z"/><path class="cls-13" d="M296.84,95.15v-.93a2.14,2.14,0,0,1-1.9,1.07,2.38,2.38,0,0,1-1-.21,1.52,1.52,0,0,1-.68-.54,2,2,0,0,1-.32-.79,5.9,5.9,0,0,1-.06-1v-3.9h1v3.49a6.84,6.84,0,0,0,.06,1.13,1.09,1.09,0,0,0,.41.66,1.19,1.19,0,0,0,.76.24,1.59,1.59,0,0,0,.85-.25,1.33,1.33,0,0,0,.57-.67,3.55,3.55,0,0,0,.16-1.23V88.85h1v6.3Z"/><path class="cls-13" d="M301.56,94.21l.15.94a3.32,3.32,0,0,1-.77.1,1.59,1.59,0,0,1-.86-.19,1,1,0,0,1-.43-.48,4.14,4.14,0,0,1-.12-1.26V89.69h-.76v-.83h.76V87.3l1-.64v2.2h1v.83h-1v3.67a2.3,2.3,0,0,0,.05.59.6.6,0,0,0,.18.21.62.62,0,0,0,.34.07Z"/><path class="cls-13" d="M306.47,94.37a3.51,3.51,0,0,1-1.08.72,3.14,3.14,0,0,1-1.12.21,2.14,2.14,0,0,1-1.52-.51,1.82,1.82,0,0,1-.33-2.14,1.76,1.76,0,0,1,.52-.62,2.53,2.53,0,0,1,.74-.35,7.76,7.76,0,0,1,.9-.16,8.33,8.33,0,0,0,1.82-.37v-.28a1.24,1.24,0,0,0-.28-.92,1.66,1.66,0,0,0-1.16-.36,1.7,1.7,0,0,0-1.06.27,1.67,1.67,0,0,0-.5.94l-1-.14a2.66,2.66,0,0,1,.45-1.09,2,2,0,0,1,.9-.63,4.4,4.4,0,0,1,2.62,0,1.5,1.5,0,0,1,1,1.21,6.84,6.84,0,0,1,.05,1v1.43a17.08,17.08,0,0,0,.06,1.88,2.29,2.29,0,0,0,.25.75h-1A2.23,2.23,0,0,1,306.47,94.37ZM306.41,92a7.07,7.07,0,0,1-1.67.41,3.5,3.5,0,0,0-.89.21,1,1,0,0,0-.41.35,1,1,0,0,0-.14.51.92.92,0,0,0,.31.72,1.3,1.3,0,0,0,.9.29,2,2,0,0,0,1.05-.27,1.6,1.6,0,0,0,.67-.74,2.79,2.79,0,0,0,.16-1.08Z"/><path class="cls-13" d="M311.16,94.21l.14.94a3.18,3.18,0,0,1-.76.1,1.59,1.59,0,0,1-.86-.19,1,1,0,0,1-.43-.48,4.14,4.14,0,0,1-.12-1.26V89.69h-.76v-.83h.76V87.3l1-.64v2.2h1v.83h-1v3.67a2.3,2.3,0,0,0,.05.59.56.56,0,0,0,.17.21.68.68,0,0,0,.35.07Z"/><path class="cls-13" d="M312.19,87.67v-1.2h1v1.2Zm0,7.48V88.86h1v6.29Z"/><path class="cls-13" d="M314.33,92a3.34,3.34,0,0,1,.93-2.59,2.71,2.71,0,0,1,1.88-.69,2.63,2.63,0,0,1,2,.85,3.35,3.35,0,0,1,.78,2.35,4.2,4.2,0,0,1-.35,1.91,2.51,2.51,0,0,1-1,1.08,2.78,2.78,0,0,1-1.44.39,2.63,2.63,0,0,1-2-.85A3.5,3.5,0,0,1,314.33,92Zm1,0a2.78,2.78,0,0,0,.51,1.82,1.56,1.56,0,0,0,1.26.6,1.54,1.54,0,0,0,1.26-.61,2.81,2.81,0,0,0,.5-1.84,2.72,2.72,0,0,0-.5-1.78,1.59,1.59,0,0,0-1.26-.6,1.56,1.56,0,0,0-1.26.6A2.73,2.73,0,0,0,315.37,92Z"/><path class="cls-13" d="M321.13,95.15V88.86h.93v.89a2.09,2.09,0,0,1,1.89-1,2.31,2.31,0,0,1,1,.21,1.56,1.56,0,0,1,.68.54,2.09,2.09,0,0,1,.31.78,6.13,6.13,0,0,1,.06,1v3.87h-1V91.32a2.94,2.94,0,0,0-.12-1,1.06,1.06,0,0,0-.41-.52,1.25,1.25,0,0,0-.7-.19,1.52,1.52,0,0,0-1.1.43,2.19,2.19,0,0,0-.47,1.64v3.44Z"/><path class="cls-13" d="M327.18,93.26l1-.14a1.51,1.51,0,0,0,.47,1,1.56,1.56,0,0,0,1.08.34,1.53,1.53,0,0,0,1-.3.91.91,0,0,0,.34-.7.65.65,0,0,0-.31-.57,4,4,0,0,0-1-.37,8.25,8.25,0,0,1-1.53-.51,1.51,1.51,0,0,1-.65-.6,1.69,1.69,0,0,1-.21-.84,1.66,1.66,0,0,1,.67-1.38,2.24,2.24,0,0,1,.64-.31,3,3,0,0,1,.87-.13,3.29,3.29,0,0,1,1.23.22,1.69,1.69,0,0,1,.79.58,2.4,2.4,0,0,1,.34,1l-1,.14a1.17,1.17,0,0,0-.39-.76,1.34,1.34,0,0,0-.91-.28,1.53,1.53,0,0,0-1,.25.7.7,0,0,0-.29.57.63.63,0,0,0,.12.37.86.86,0,0,0,.39.28l.89.28a11.59,11.59,0,0,1,1.49.49,1.48,1.48,0,0,1,.92,1.47,1.84,1.84,0,0,1-.3,1A1.89,1.89,0,0,1,331,95a3,3,0,0,1-1.26.26,2.71,2.71,0,0,1-1.77-.52A2.4,2.4,0,0,1,327.18,93.26Z"/><path class="cls-13" d="M266.86,105.87a3.31,3.31,0,0,1,.92-2.59,2.67,2.67,0,0,1,1.88-.7,2.61,2.61,0,0,1,2,.85,3.35,3.35,0,0,1,.79,2.35,4.34,4.34,0,0,1-.35,1.91,2.51,2.51,0,0,1-1,1.08,2.82,2.82,0,0,1-1.45.39,2.61,2.61,0,0,1-2-.85A3.49,3.49,0,0,1,266.86,105.87Zm1,0a2.76,2.76,0,0,0,.5,1.82,1.62,1.62,0,0,0,2.52,0,2.9,2.9,0,0,0,.51-1.85,2.67,2.67,0,0,0-.51-1.77,1.61,1.61,0,0,0-2.52,0A2.7,2.7,0,0,0,267.9,105.86Z"/><path class="cls-13" d="M274.58,109h-.95v-8.68h1v3.09a2,2,0,0,1,1.65-.84,2.37,2.37,0,0,1,1.05.23,2.19,2.19,0,0,1,.81.66,3.24,3.24,0,0,1,.5,1,4.45,4.45,0,0,1,.18,1.28,3.7,3.7,0,0,1-.76,2.5,2.35,2.35,0,0,1-1.83.89,1.89,1.89,0,0,1-1.67-.93V109Zm0-3.19a3.4,3.4,0,0,0,.29,1.64,1.43,1.43,0,0,0,2.46.21,2.87,2.87,0,0,0,.49-1.81,2.92,2.92,0,0,0-.47-1.82,1.41,1.41,0,0,0-1.13-.59,1.47,1.47,0,0,0-1.16.61A2.78,2.78,0,0,0,274.56,105.82Z"/><path class="cls-13" d="M279.7,107.12l1-.14a1.46,1.46,0,0,0,.46,1,1.57,1.57,0,0,0,1.08.34,1.53,1.53,0,0,0,1-.3.89.89,0,0,0,.34-.7.65.65,0,0,0-.31-.57,3.78,3.78,0,0,0-1-.36,8.29,8.29,0,0,1-1.53-.52,1.5,1.5,0,0,1-.65-.59,1.66,1.66,0,0,1-.22-.85,1.72,1.72,0,0,1,.18-.78,1.65,1.65,0,0,1,.49-.59,1.82,1.82,0,0,1,.64-.31,2.75,2.75,0,0,1,.88-.13,3.28,3.28,0,0,1,1.22.21,1.76,1.76,0,0,1,.79.58,2.5,2.5,0,0,1,.35,1l-1,.14a1.19,1.19,0,0,0-.39-.77,1.34,1.34,0,0,0-.9-.27,1.56,1.56,0,0,0-1,.24.71.71,0,0,0-.3.57.61.61,0,0,0,.12.37.8.8,0,0,0,.39.29l.89.27a11.21,11.21,0,0,1,1.49.5,1.48,1.48,0,0,1,.67.56,1.55,1.55,0,0,1,.25.91,1.87,1.87,0,0,1-1.14,1.73,3,3,0,0,1-1.26.26,2.71,2.71,0,0,1-1.77-.51A2.45,2.45,0,0,1,279.7,107.12Z"/><path class="cls-13" d="M290,107l1,.14a2.82,2.82,0,0,1-4.73,1.19,3.42,3.42,0,0,1-.77-2.39,3.56,3.56,0,0,1,.78-2.46,2.56,2.56,0,0,1,2-.88,2.53,2.53,0,0,1,2,.86,3.52,3.52,0,0,1,.76,2.43v.28h-4.49a2.38,2.38,0,0,0,.56,1.58,1.67,1.67,0,0,0,1.28.55,1.54,1.54,0,0,0,1-.31A2.17,2.17,0,0,0,290,107Zm-3.42-1.7H290a2.14,2.14,0,0,0-.39-1.21,1.58,1.58,0,0,0-1.29-.62,1.65,1.65,0,0,0-1.21.5A2,2,0,0,0,286.59,105.28Z"/><path class="cls-13" d="M292.28,109v-6.29h.92v1a2.74,2.74,0,0,1,.64-.89,1.1,1.1,0,0,1,.65-.21,1.91,1.91,0,0,1,1,.34l-.36,1a1.49,1.49,0,0,0-.74-.21,1,1,0,0,0-.59.21,1.12,1.12,0,0,0-.37.58,4.48,4.48,0,0,0-.17,1.24V109Z"/><path class="cls-13" d="M298.06,109l-2.26-6.29h1.09l1.28,3.77c.14.41.27.83.39,1.27.09-.33.22-.73.38-1.2l1.33-3.84h1L299.05,109Z"/><path class="cls-13" d="M306.23,107l1,.14a2.82,2.82,0,0,1-4.73,1.19,3.42,3.42,0,0,1-.77-2.39,3.56,3.56,0,0,1,.78-2.46,2.56,2.56,0,0,1,2-.88,2.53,2.53,0,0,1,2,.86,3.52,3.52,0,0,1,.76,2.43v.28h-4.49a2.38,2.38,0,0,0,.56,1.58,1.67,1.67,0,0,0,1.28.55,1.54,1.54,0,0,0,1-.31A2.17,2.17,0,0,0,306.23,107Zm-3.42-1.7h3.44a2.22,2.22,0,0,0-.4-1.21,1.58,1.58,0,0,0-1.29-.62,1.65,1.65,0,0,0-1.21.5A2,2,0,0,0,302.81,105.28Z"/><path class="cls-13" d="M312.38,109v-.79a1.83,1.83,0,0,1-1.67.94,2.25,2.25,0,0,1-1.32-.42,2.65,2.65,0,0,1-.94-1.16,4.14,4.14,0,0,1-.33-1.71,4.69,4.69,0,0,1,.3-1.71,2.51,2.51,0,0,1,.9-1.18,2.34,2.34,0,0,1,1.34-.4,1.9,1.9,0,0,1,1,.23,2,2,0,0,1,.69.62v-3.1h1V109Zm-3.22-3.14a2.85,2.85,0,0,0,.49,1.81,1.46,1.46,0,0,0,1.15.6,1.42,1.42,0,0,0,1.14-.57,2.73,2.73,0,0,0,.46-1.75,3.07,3.07,0,0,0-.47-1.9,1.47,1.47,0,0,0-1.18-.61,1.38,1.38,0,0,0-1.13.59A2.89,2.89,0,0,0,309.16,105.87Z"/><path class="cls-7" d="M285.52,275.4l-2.26-6.3h1.09l1.28,3.77c.14.41.27.83.39,1.27.09-.33.21-.73.37-1.2l1.34-3.84h1l-2.26,6.3Z"/><path class="cls-7" d="M293.43,274.62a3.78,3.78,0,0,1-1.08.71,3,3,0,0,1-1.13.21,2.1,2.1,0,0,1-1.52-.51,1.69,1.69,0,0,1-.53-1.29,1.87,1.87,0,0,1,.2-.85,1.73,1.73,0,0,1,.52-.61,2.4,2.4,0,0,1,.74-.35,6.06,6.06,0,0,1,.9-.16,8.2,8.2,0,0,0,1.82-.37c0-.14,0-.24,0-.28a1.24,1.24,0,0,0-.29-.92,1.66,1.66,0,0,0-1.16-.36,1.7,1.7,0,0,0-1.06.27,1.67,1.67,0,0,0-.5.94l-1-.14a2.66,2.66,0,0,1,.45-1.09,2,2,0,0,1,.9-.63,3.82,3.82,0,0,1,1.37-.22,3.39,3.39,0,0,1,1.25.19,1.57,1.57,0,0,1,.7.47,1.63,1.63,0,0,1,.32.73,6.84,6.84,0,0,1,.05,1v1.43a14,14,0,0,0,.07,1.88,2.53,2.53,0,0,0,.24.75h-1A2.29,2.29,0,0,1,293.43,274.62Zm-.07-2.39a7.7,7.7,0,0,1-1.67.4,4,4,0,0,0-.89.22.91.91,0,0,0-.4.35.89.89,0,0,0-.14.51,1,1,0,0,0,.3.72,1.31,1.31,0,0,0,.91.28,2,2,0,0,0,1-.27,1.62,1.62,0,0,0,.68-.74,2.76,2.76,0,0,0,.16-1.08Z"/><path class="cls-7" d="M295.93,275.4v-6.3h.92v1a2.7,2.7,0,0,1,.64-.9,1.1,1.1,0,0,1,.65-.21,1.87,1.87,0,0,1,1,.35l-.36,1a1.56,1.56,0,0,0-.73-.21.93.93,0,0,0-.59.21,1.15,1.15,0,0,0-.37.59,4,4,0,0,0-.17,1.24v3.29Z"/><path class="cls-7" d="M299.87,267.92v-1.21h1v1.21Zm0,7.48v-6.3h1v6.3Z"/><path class="cls-7" d="M306.31,274.62a3.78,3.78,0,0,1-1.08.71,3,3,0,0,1-1.12.21,2.13,2.13,0,0,1-1.53-.51,1.73,1.73,0,0,1-.53-1.29,1.87,1.87,0,0,1,.2-.85,1.65,1.65,0,0,1,.53-.61,2.35,2.35,0,0,1,.73-.35,6,6,0,0,1,.91-.16,8.21,8.21,0,0,0,1.81-.37c0-.14,0-.24,0-.28a1.24,1.24,0,0,0-.29-.92,1.65,1.65,0,0,0-1.15-.36,1.7,1.7,0,0,0-1.06.27,1.61,1.61,0,0,0-.51.94l-1-.14a2.53,2.53,0,0,1,.45-1.09,1.94,1.94,0,0,1,.89-.63,3.86,3.86,0,0,1,1.37-.22,3.39,3.39,0,0,1,1.25.19,1.43,1.43,0,0,1,1,1.2,5.59,5.59,0,0,1,.05,1v1.43a16.11,16.11,0,0,0,.07,1.88,2.53,2.53,0,0,0,.24.75h-1A2.55,2.55,0,0,1,306.31,274.62Zm-.07-2.39a7.7,7.7,0,0,1-1.67.4,4.19,4.19,0,0,0-.89.22.91.91,0,0,0-.4.35,1,1,0,0,0-.14.51,1,1,0,0,0,.31.72,1.28,1.28,0,0,0,.9.28,2,2,0,0,0,1-.27,1.57,1.57,0,0,0,.68-.74,2.76,2.76,0,0,0,.16-1.08Z"/><path class="cls-7" d="M309.73,275.4h-.94v-8.69h1v3.1a2,2,0,0,1,1.65-.85,2.51,2.51,0,0,1,1.05.23,2.19,2.19,0,0,1,.81.66,3.19,3.19,0,0,1,.5,1,4.4,4.4,0,0,1,.18,1.28,3.7,3.7,0,0,1-.76,2.5,2.34,2.34,0,0,1-1.83.88,1.89,1.89,0,0,1-1.67-.93v.79Zm0-3.2a3.38,3.38,0,0,0,.29,1.64,1.43,1.43,0,0,0,2.46.22,2.89,2.89,0,0,0,.49-1.81,3,3,0,0,0-.47-1.83,1.4,1.4,0,0,0-1.13-.58,1.46,1.46,0,0,0-1.16.6A2.79,2.79,0,0,0,309.71,272.2Z"/><path class="cls-7" d="M315.21,275.4v-8.69h1v8.69Z"/><path class="cls-7" d="M322,273.36l1,.14a2.63,2.63,0,0,1-.92,1.5,3,3,0,0,1-3.81-.31,3.4,3.4,0,0,1-.77-2.39,3.56,3.56,0,0,1,.78-2.46,2.56,2.56,0,0,1,2-.88,2.53,2.53,0,0,1,2,.86,3.56,3.56,0,0,1,.76,2.43v.28h-4.49a2.38,2.38,0,0,0,.56,1.58,1.68,1.68,0,0,0,1.28.55,1.52,1.52,0,0,0,1-.31A1.93,1.93,0,0,0,322,273.36Zm-3.42-1.7H322a2.08,2.08,0,0,0-.39-1.2,1.56,1.56,0,0,0-1.29-.62,1.64,1.64,0,0,0-1.21.49A2,2,0,0,0,318.53,271.66Z"/><path class="cls-7" d="M323.82,272.8v-1.07H327v1.07Z"/><path class="cls-7" d="M328.05,275.4v-8.69h1v8.69Z"/><path class="cls-7" d="M334.79,273.36l1,.14a2.63,2.63,0,0,1-.92,1.5,3,3,0,0,1-3.81-.31,3.4,3.4,0,0,1-.77-2.39,3.56,3.56,0,0,1,.78-2.46,2.56,2.56,0,0,1,2-.88,2.53,2.53,0,0,1,2,.86,3.56,3.56,0,0,1,.77,2.43c0,.06,0,.16,0,.28h-4.49a2.34,2.34,0,0,0,.57,1.58,1.63,1.63,0,0,0,1.27.55,1.52,1.52,0,0,0,1-.31A2.07,2.07,0,0,0,334.79,273.36Zm-3.42-1.7h3.43a2.08,2.08,0,0,0-.39-1.2,1.56,1.56,0,0,0-1.29-.62,1.64,1.64,0,0,0-1.21.49A2,2,0,0,0,331.37,271.66Z"/><path class="cls-7" d="M337.06,275.4v-6.3H338v.9a2.12,2.12,0,0,1,1.9-1,2.47,2.47,0,0,1,1,.2,1.54,1.54,0,0,1,.67.54,2.15,2.15,0,0,1,.32.79,6,6,0,0,1,.06,1v3.87h-1.05v-3.83a3.06,3.06,0,0,0-.11-1,1,1,0,0,0-.42-.51,1.19,1.19,0,0,0-.69-.19,1.56,1.56,0,0,0-1.11.43,2.23,2.23,0,0,0-.46,1.64v3.44Z"/><path class="cls-7" d="M343.3,275.92l1,.14a1.07,1.07,0,0,0,.34.72,1.6,1.6,0,0,0,1,.3,1.68,1.68,0,0,0,1.07-.3,1.47,1.47,0,0,0,.52-.83,7.07,7.07,0,0,0,.07-1.38,2.05,2.05,0,0,1-1.66.83,2.24,2.24,0,0,1-1.92-.94,3.73,3.73,0,0,1-.68-2.25,4.3,4.3,0,0,1,.31-1.66,2.6,2.6,0,0,1,.91-1.18,2.37,2.37,0,0,1,1.38-.41,2.12,2.12,0,0,1,1.76.92v-.78h.92v5.44a5.71,5.71,0,0,1-.28,2.09,2.13,2.13,0,0,1-.91,1,3,3,0,0,1-1.51.35,2.74,2.74,0,0,1-1.73-.51A1.74,1.74,0,0,1,343.3,275.92Zm.83-3.78a2.84,2.84,0,0,0,.47,1.81,1.52,1.52,0,0,0,2.37,0,2.72,2.72,0,0,0,.48-1.78,2.67,2.67,0,0,0-.5-1.75,1.49,1.49,0,0,0-1.18-.59,1.47,1.47,0,0,0-1.16.58A2.68,2.68,0,0,0,344.13,272.14Z"/><path class="cls-7" d="M352.13,274.45l.15.95a3.8,3.8,0,0,1-.77.09,1.69,1.69,0,0,1-.86-.18,1,1,0,0,1-.42-.48,3.86,3.86,0,0,1-.13-1.27v-3.63h-.76v-.83h.76v-1.55l1-.64v2.19h1v.83h-1v3.68a2.15,2.15,0,0,0,.05.58.44.44,0,0,0,.17.21.7.7,0,0,0,.35.08Z"/><path class="cls-7" d="M353.12,275.4v-8.69h1v3.12a2.32,2.32,0,0,1,2.92-.59,1.52,1.52,0,0,1,.7.76,3.67,3.67,0,0,1,.21,1.41v4h-1v-4a1.69,1.69,0,0,0-.32-1.16,1.2,1.2,0,0,0-.93-.36,1.63,1.63,0,0,0-.84.24,1.34,1.34,0,0,0-.55.67,3,3,0,0,0-.17,1.16v3.44Z"/><path class="cls-7" d="M283.5,287.36l1-.14a1.57,1.57,0,0,0,.47,1,2,2,0,0,0,2.11,0,.93.93,0,0,0,.33-.71.66.66,0,0,0-.3-.57,5.06,5.06,0,0,0-1-.36,8.47,8.47,0,0,1-1.53-.51,1.51,1.51,0,0,1-.65-.6,1.63,1.63,0,0,1-.22-.85,1.68,1.68,0,0,1,.18-.77,1.71,1.71,0,0,1,.5-.6A2,2,0,0,1,285,283a2.73,2.73,0,0,1,.87-.13,3.11,3.11,0,0,1,1.23.22,1.64,1.64,0,0,1,.78.58,2.26,2.26,0,0,1,.35,1l-1,.14a1.19,1.19,0,0,0-.39-.77,1.39,1.39,0,0,0-.91-.27,1.6,1.6,0,0,0-1,.24.73.73,0,0,0-.29.57.61.61,0,0,0,.12.37.85.85,0,0,0,.39.29l.89.27a11.21,11.21,0,0,1,1.49.5,1.42,1.42,0,0,1,.67.56,1.53,1.53,0,0,1,.25.91,1.89,1.89,0,0,1-1.14,1.73,3,3,0,0,1-1.26.26,2.71,2.71,0,0,1-1.77-.51A2.4,2.4,0,0,1,283.5,287.36Z"/><path class="cls-7" d="M291.87,288.32l.15.94a3.8,3.8,0,0,1-.77.09,1.72,1.72,0,0,1-.86-.18,1,1,0,0,1-.42-.48,3.78,3.78,0,0,1-.13-1.27v-3.63h-.75V283h.75v-1.55l1-.64V283h1v.83h-1v3.68a2.2,2.2,0,0,0,.05.58.46.46,0,0,0,.18.21.63.63,0,0,0,.34.08Z"/><path class="cls-7" d="M297,287.22l1,.15a2.76,2.76,0,0,1-.93,1.5,3,3,0,0,1-3.81-.32,3.44,3.44,0,0,1-.77-2.38,3.59,3.59,0,0,1,.78-2.47,2.58,2.58,0,0,1,2-.88,2.53,2.53,0,0,1,2,.86,3.59,3.59,0,0,1,.76,2.43c0,.06,0,.16,0,.29h-4.49a2.46,2.46,0,0,0,.57,1.58,1.68,1.68,0,0,0,1.27.55,1.58,1.58,0,0,0,1-.31A2.09,2.09,0,0,0,297,287.22Zm-3.42-1.7H297a2.26,2.26,0,0,0-.39-1.2,1.69,1.69,0,0,0-2.5-.13A2,2,0,0,0,293.54,285.52Z"/><path class="cls-7" d="M299.23,289.26V283h.9v.89a2.24,2.24,0,0,1,.75-.75,2.08,2.08,0,0,1,1.07-.28,1.94,1.94,0,0,1,1.09.29,1.55,1.55,0,0,1,.6.81,2.13,2.13,0,0,1,1.85-1.1,1.77,1.77,0,0,1,1.38.52,2.27,2.27,0,0,1,.48,1.59v4.33h-1v-4a2.86,2.86,0,0,0-.1-.92.9.9,0,0,0-.36-.46,1.09,1.09,0,0,0-.61-.17,1.38,1.38,0,0,0-1,.44,2,2,0,0,0-.42,1.42v3.66h-1v-4.09a1.93,1.93,0,0,0-.24-1.07.92.92,0,0,0-.81-.36,1.39,1.39,0,0,0-.79.24,1.36,1.36,0,0,0-.53.7,4.33,4.33,0,0,0-.16,1.31v3.27Z"/><path class="cls-7" d="M308.45,286.66v-1.07h3.15v1.07Z"/><path class="cls-7" d="M312.67,289.26v-8.69h1v8.69Z"/><path class="cls-7" d="M314.88,286.11a3.32,3.32,0,0,1,.93-2.59,2.72,2.72,0,0,1,1.88-.7,2.66,2.66,0,0,1,2,.85,3.37,3.37,0,0,1,.78,2.35,4.35,4.35,0,0,1-.34,1.91,2.6,2.6,0,0,1-1,1.09,2.81,2.81,0,0,1-1.45.38,2.62,2.62,0,0,1-2-.84A3.52,3.52,0,0,1,314.88,286.11Zm1,0a2.75,2.75,0,0,0,.51,1.81,1.62,1.62,0,0,0,2.52,0,2.9,2.9,0,0,0,.5-1.85,2.73,2.73,0,0,0-.5-1.77,1.62,1.62,0,0,0-2.52,0A2.73,2.73,0,0,0,315.92,286.11Z"/><path class="cls-7" d="M321.32,286.11a3.35,3.35,0,0,1,.92-2.59,2.74,2.74,0,0,1,1.89-.7,2.63,2.63,0,0,1,2,.85,3.33,3.33,0,0,1,.79,2.35,4.34,4.34,0,0,1-.35,1.91,2.48,2.48,0,0,1-1,1.09,2.77,2.77,0,0,1-1.44.38,2.62,2.62,0,0,1-2-.84A3.52,3.52,0,0,1,321.32,286.11Zm1,0a2.81,2.81,0,0,0,.5,1.81,1.63,1.63,0,0,0,2.53,0,2.9,2.9,0,0,0,.5-1.85,2.67,2.67,0,0,0-.51-1.77,1.53,1.53,0,0,0-1.25-.6,1.6,1.6,0,0,0-1.27.6A2.79,2.79,0,0,0,322.36,286.11Z"/><path class="cls-7" d="M328.1,291.67V283H329v.81a2.47,2.47,0,0,1,.74-.71,2,2,0,0,1,1-.24,2.37,2.37,0,0,1,1.36.41,2.58,2.58,0,0,1,.89,1.17,4.49,4.49,0,0,1,.3,1.66,4.35,4.35,0,0,1-.33,1.74,2.52,2.52,0,0,1-1,1.18,2.34,2.34,0,0,1-1.33.41,1.83,1.83,0,0,1-.91-.22,2.18,2.18,0,0,1-.67-.57v3.07Zm.9-5.53a2.9,2.9,0,0,0,.47,1.81,1.43,1.43,0,0,0,2.31,0,3,3,0,0,0,.48-1.87,2.86,2.86,0,0,0-.47-1.81,1.39,1.39,0,0,0-1.13-.6,1.48,1.48,0,0,0-1.16.64A2.89,2.89,0,0,0,329,286.14Z"/><path class="cls-14" d="M279.82,276.75h-12A8.61,8.61,0,1,1,264.65,265a8.73,8.73,0,0,1,3.15,3.15h12"/><rect class="cls-15" x="277.42" y="271.08" width="1.01" height="2.73"/><rect class="cls-16" x="277.42" y="271.08" width="1.01" height="2.73"/><rect class="cls-15" x="272.35" y="271.08" width="1.01" height="2.73"/><rect class="cls-16" x="272.35" y="271.08" width="1.01" height="2.73"/><rect class="cls-15" x="267.29" y="271.08" width="1.01" height="2.73"/><rect class="cls-16" x="267.29" y="271.08" width="1.01" height="2.73"/><path class="cls-15" d="M253.55,329.7V321h3.84a5.2,5.2,0,0,1,1.75.23,1.93,1.93,0,0,1,1,.83,2.46,2.46,0,0,1,.36,1.31,2.21,2.21,0,0,1-.6,1.56,3,3,0,0,1-1.83.8,3.33,3.33,0,0,1,.69.43,6.34,6.34,0,0,1,.95,1.16l1.49,2.36h-1.43l-1.14-1.8c-.34-.52-.61-.93-.82-1.2a2.61,2.61,0,0,0-.58-.58,1.64,1.64,0,0,0-.53-.23,3.21,3.21,0,0,0-.63,0H254.7v3.86Zm1.16-4.87h2.45a3.87,3.87,0,0,0,1.22-.16,1.31,1.31,0,0,0,.67-.52,1.38,1.38,0,0,0,.22-.77,1.26,1.26,0,0,0-.44-1,2.07,2.07,0,0,0-1.4-.39h-2.72v2.84Z"/><path class="cls-15" d="M271.09,324.61h-5.73v-1h5.73Zm0,2.63h-5.73v-1h5.73Z"/><path class="cls-15" d="M275.12,329.7l3.33-8.68h1.27l3.5,8.68h-1.31l-1-2.62h-3.63l-.94,2.62Zm2.5-3.57h2.95l-.9-2.39c-.27-.74-.47-1.33-.61-1.8a10.09,10.09,0,0,1-.48,1.66Z"/><path class="cls-15" d="M287,326.56a3.26,3.26,0,0,1,1-2.59,2.91,2.91,0,0,1,2-.7,2.8,2.8,0,0,1,2.12.85,3.22,3.22,0,0,1,.82,2.35,4.22,4.22,0,0,1-.36,1.91,2.62,2.62,0,0,1-1.06,1.08,3,3,0,0,1-1.52.39,2.83,2.83,0,0,1-2.13-.85A3.37,3.37,0,0,1,287,326.56Zm1.09,0a2.66,2.66,0,0,0,.53,1.81,1.66,1.66,0,0,0,1.33.61,1.69,1.69,0,0,0,1.33-.61,2.76,2.76,0,0,0,.53-1.85,2.58,2.58,0,0,0-.54-1.77,1.76,1.76,0,0,0-2.65,0A2.7,2.7,0,0,0,288.08,326.55Z"/><path class="cls-15" d="M294.11,329.7v-6.29h.94v1a2.73,2.73,0,0,1,.68-.89,1.23,1.23,0,0,1,.69-.22,2.06,2.06,0,0,1,1.09.35l-.37,1a1.63,1.63,0,0,0-.77-.21,1,1,0,0,0-.63.21,1.15,1.15,0,0,0-.39.58,4.13,4.13,0,0,0-.18,1.24v3.29Z"/><path class="cls-15" d="M305.72,326.3v-1h3.67v3.21a6.2,6.2,0,0,1-1.74,1,5.15,5.15,0,0,1-1.85.35,4.85,4.85,0,0,1-2.32-.55,3.6,3.6,0,0,1-1.58-1.58,5.08,5.08,0,0,1-.53-2.32,5.27,5.27,0,0,1,.53-2.36,3.5,3.5,0,0,1,1.52-1.63,4.69,4.69,0,0,1,2.29-.53,4.63,4.63,0,0,1,1.7.3,2.76,2.76,0,0,1,1.19.86,3.75,3.75,0,0,1,.66,1.42l-1.07.28a3.19,3.19,0,0,0-.48-1,1.93,1.93,0,0,0-.82-.61,3.07,3.07,0,0,0-1.19-.22,3.67,3.67,0,0,0-1.35.23,2.65,2.65,0,0,0-.93.64,2.81,2.81,0,0,0-.53.85,4.59,4.59,0,0,0-.34,1.75,4.19,4.19,0,0,0,.4,1.94,2.55,2.55,0,0,0,1.16,1.16,3.44,3.44,0,0,0,1.61.38,3.77,3.77,0,0,0,1.44-.28,4.08,4.08,0,0,0,1.07-.62V326.3Z"/><path class="cls-15" d="M311.24,329.7v-1.2h1.21v1.2Z"/><path class="cls-15" d="M320.26,329.7V326l-3.33-5h1.39l1.69,2.64c.33.48.63,1,.9,1.46q.4-.67,1-1.53l1.67-2.57h1.34l-3.46,5v3.68Z"/><path class="cls-15" d="M334.73,324.61H329v-1h5.73Zm0,2.63H329v-1h5.73Z"/><path class="cls-15" d="M345.9,326.65l1.16.29a3.84,3.84,0,0,1-1.3,2.16,3.52,3.52,0,0,1-2.29.75,4.21,4.21,0,0,1-2.28-.57,3.65,3.65,0,0,1-1.34-1.66,6,6,0,0,1-.46-2.33,5.16,5.16,0,0,1,.52-2.36,3.59,3.59,0,0,1,1.48-1.53,4.25,4.25,0,0,1,2.1-.53,3.36,3.36,0,0,1,3.43,2.54l-1.14.26a2.63,2.63,0,0,0-.87-1.37,2.35,2.35,0,0,0-1.45-.43,2.88,2.88,0,0,0-1.67.47,2.51,2.51,0,0,0-.94,1.29,5.11,5.11,0,0,0-.27,1.66,5.36,5.36,0,0,0,.32,1.92,2.37,2.37,0,0,0,1,1.23,2.72,2.72,0,0,0,1.47.41,2.43,2.43,0,0,0,1.63-.56A2.71,2.71,0,0,0,345.9,326.65Z"/><path class="cls-15" d="M351.3,326.56a3.23,3.23,0,0,1,1-2.59,2.91,2.91,0,0,1,2-.7,2.8,2.8,0,0,1,2.12.85,3.22,3.22,0,0,1,.82,2.35,4.22,4.22,0,0,1-.36,1.91,2.62,2.62,0,0,1-1.06,1.08,3,3,0,0,1-1.52.39,2.83,2.83,0,0,1-2.13-.85A3.37,3.37,0,0,1,351.3,326.56Zm1.09,0a2.61,2.61,0,0,0,.53,1.81,1.74,1.74,0,0,0,2.65,0,2.71,2.71,0,0,0,.53-1.85,2.58,2.58,0,0,0-.53-1.77,1.76,1.76,0,0,0-2.65,0A2.64,2.64,0,0,0,352.39,326.55Z"/><path class="cls-15" d="M358.42,329.7v-6.29h.94v1a2.87,2.87,0,0,1,.68-.89,1.23,1.23,0,0,1,.69-.22,2.12,2.12,0,0,1,1.1.35l-.38,1a1.63,1.63,0,0,0-.77-.21,1,1,0,0,0-.62.21,1.11,1.11,0,0,0-.4.58,4.13,4.13,0,0,0-.18,1.24v3.29Z"/><path class="cls-15" d="M259.21,335.56h1.16v5a5.81,5.81,0,0,1-.3,2.07,2.51,2.51,0,0,1-1.07,1.26,3.75,3.75,0,0,1-2,.48,4.14,4.14,0,0,1-2-.42,2.4,2.4,0,0,1-1.11-1.22,5.84,5.84,0,0,1-.33-2.18v-5h1.16v5a4.83,4.83,0,0,0,.21,1.66,1.62,1.62,0,0,0,.72.83,2.5,2.5,0,0,0,1.24.28,2.36,2.36,0,0,0,1.79-.57,3.27,3.27,0,0,0,.54-2.2v-5Z"/><path class="cls-15" d="M262.42,344.25V343h1.21v1.21Z"/><g class="cls-17"><path class="cls-18" d="M122.06,349.48a10,10,0,0,1-10,10H92.81a10,10,0,1,1,0-20.08H112a10,10,0,0,1,10,10"/></g><g class="cls-17"><rect class="cls-19" x="114.2" y="288.28" width="26.84" height="8"/><line class="cls-20" x1="124.73" y1="280.77" x2="130.51" y2="280.77"/><rect class="cls-19" x="114.2" y="265.55" width="26.84" height="7.99"/><line class="cls-20" x1="124.73" y1="269.54" x2="130.51" y2="269.54"/><rect class="cls-19" x="114.2" y="232.26" width="26.84" height="7.99"/><line class="cls-20" x1="124.73" y1="236.26" x2="130.51" y2="236.26"/><line class="cls-20" x1="124.73" y1="225.04" x2="130.51" y2="225.04"/></g><text class="cls-21" transform="translate(114.68 229.04)">A</text><text class="cls-21" transform="translate(114.36 240.26)">G</text><text class="cls-22" transform="translate(133.05 229.04)">Y</text><text class="cls-21" transform="translate(132.73 240.26)">C</text><text class="cls-22" transform="translate(114.67 284.62)">A</text><text class="cls-21" transform="translate(132.73 284.77)">U</text><g class="cls-17"><rect class="cls-19" x="114.2" y="253.96" width="26.84" height="7.99"/><line class="cls-20" x1="124.73" y1="257.96" x2="130.51" y2="257.96"/></g><g class="cls-17"><rect class="cls-19" x="114.2" y="242.69" width="26.84" height="7.99"/></g><text class="cls-23" transform="translate(114.67 261.96)">C<tspan class="cls-24" x="17.75" y="0">G</tspan></text><g class="cls-17"><line class="cls-20" x1="124.74" y1="246.69" x2="130.51" y2="246.69"/></g><g class="cls-17"><line class="cls-20" x1="124.79" y1="292.19" x2="130.57" y2="292.19"/></g><text class="cls-21" transform="translate(114.36 250.68)">G</text><text class="cls-22" transform="translate(132.73 250.68)">C</text><text class="cls-22" transform="translate(114.68 296.19)">U</text><text class="cls-21" transform="translate(132.73 296.19)">A</text><g class="cls-17"><line class="cls-25" x1="124.93" y1="302.86" x2="130.7" y2="302.86"/><line class="cls-25" x1="124.93" y1="313.88" x2="130.7" y2="313.88"/><path class="cls-26" d="M122.53,313.88a3.8,3.8,0,1,1-3.8-3.79,3.8,3.8,0,0,1,3.8,3.79"/><path class="cls-27" d="M122.53,313.88a3.8,3.8,0,1,1-3.8-3.79A3.8,3.8,0,0,1,122.53,313.88Z"/></g><text class="cls-21" transform="translate(114.98 306.86)">Y</text><text class="cls-21" transform="translate(132.74 307.06)">A</text><text class="cls-22" transform="translate(132.43 318.02)">G</text><text class="cls-21" transform="translate(114.67 273.64)">C</text><text class="cls-21" transform="translate(132.43 273.51)">G</text><g class="cls-17"><rect class="cls-19" x="114.07" y="210.07" width="26.83" height="7.99"/><line class="cls-20" x1="124.6" y1="214.07" x2="130.37" y2="214.07"/><rect class="cls-19" x="114.07" y="198.85" width="26.83" height="7.99"/><line class="cls-20" x1="124.6" y1="202.85" x2="130.37" y2="202.85"/></g><text class="cls-21" transform="translate(114.68 206.85)">R</text><text class="cls-21" transform="translate(114.36 218.07)">G</text><text class="cls-28" transform="translate(101.53 319.39)">5´</text><text class="cls-22" transform="translate(133.05 206.85)">Y</text><text class="cls-22" transform="translate(132.73 218.07)">U</text><g class="cls-17"><path class="cls-29" d="M174.15,314a3.83,3.83,0,1,1-3.82-3.83,3.83,3.83,0,0,1,3.82,3.83"/><circle class="cls-30" cx="170.33" cy="314.01" r="3.83" transform="translate(-30.11 18.31) rotate(-5.65)"/></g><text class="cls-21" transform="translate(183.69 300.29)">Y</text><text class="cls-22" transform="translate(186.97 288.82)">Y</text><text class="cls-31" transform="translate(143.52 318.28)">C<tspan class="cls-32" x="10.67" y="0">C</tspan></text><text class="cls-21" transform="translate(176.49 310.7)">G</text><text class="cls-22" transform="translate(187.28 265.4)">Y</text><text class="cls-22" transform="translate(187.09 277.27)">U</text><text class="cls-21" transform="translate(20.67 166.58)">C</text><text class="cls-22" transform="translate(31.91 169.64)">Y</text><text class="cls-21" transform="translate(42.57 165.49)">A</text><text class="cls-21" transform="translate(11.91 158.37)">C</text><text class="cls-33" transform="translate(9.7 148.05)">Y</text><text class="cls-34" transform="translate(12.12 137.02)">G</text><g class="cls-17"><rect class="cls-19" x="73.32" y="129.69" width="7.97" height="26.77"/><line class="cls-35" x1="77.31" y1="145.88" x2="77.31" y2="140.12"/></g><text class="cls-21" transform="translate(20.67 128.55)">A</text><text class="cls-22" transform="translate(31.19 126.93)">U</text><text class="cls-21" transform="translate(41.47 129.91)">C</text><text class="cls-21" transform="translate(73.57 138.52)">A</text><text class="cls-21" transform="translate(73.26 155.9)">U</text><g class="cls-17"><rect class="cls-19" x="61.94" y="129.69" width="7.98" height="26.77"/><line class="cls-35" x1="66.12" y1="145.88" x2="66.12" y2="140.12"/><rect class="cls-36" x="50.59" y="129.69" width="7.97" height="26.77"/><line class="cls-35" x1="54.57" y1="145.88" x2="54.57" y2="140.12"/></g><text class="cls-37" transform="translate(50.52 138.52)">C</text><text class="cls-22" transform="translate(62.18 138.52)">C</text><text class="cls-37" transform="translate(50.64 156.03)">G</text><text class="cls-21" transform="translate(61.87 155.9)">G</text><text class="cls-38" transform="translate(104.55 203.5)">Y</text><g class="cls-17"><path class="cls-18" d="M102,194.45a3.83,3.83,0,1,1-3.83-3.83,3.83,3.83,0,0,1,3.83,3.83"/><path class="cls-30" d="M102,194.45a3.83,3.83,0,1,1-3.83-3.83A3.83,3.83,0,0,1,102,194.45Z"/><path class="cls-29" d="M92.52,185.81A3.83,3.83,0,1,1,88.7,182a3.83,3.83,0,0,1,3.82,3.83"/><circle class="cls-30" cx="88.7" cy="185.81" r="3.83" transform="translate(-17.88 9.64) rotate(-5.65)"/></g><text class="cls-22" transform="translate(78.81 180.48)">Y</text><text class="cls-22" transform="translate(74.13 169.02)">A</text><text class="cls-22" transform="translate(145.11 204.04)">Y</text><g class="cls-17"><path class="cls-26" d="M165,191.16a3.8,3.8,0,1,1-3.8-3.79,3.8,3.8,0,0,1,3.8,3.79"/><path class="cls-27" d="M165,191.16a3.8,3.8,0,1,1-3.8-3.79A3.8,3.8,0,0,1,165,191.16Z"/><path class="cls-26" d="M175.67,180.48a3.8,3.8,0,1,1-3.8-3.79,3.8,3.8,0,0,1,3.8,3.79"/><path class="cls-27" d="M175.67,180.48a3.8,3.8,0,1,1-3.8-3.79A3.8,3.8,0,0,1,175.67,180.48Z"/><path class="cls-18" d="M181.16,167.33a3.83,3.83,0,1,1-3.82-3.83,3.83,3.83,0,0,1,3.82,3.83"/><circle class="cls-30" cx="177.34" cy="167.33" r="3.83" transform="translate(-15.63 18.29) rotate(-5.65)"/><path class="cls-18" d="M183.63,151.44a3.83,3.83,0,1,1-3.83-3.82,3.83,3.83,0,0,1,3.83,3.82"/><path class="cls-30" d="M183.63,151.44a3.83,3.83,0,1,1-3.83-3.82A3.83,3.83,0,0,1,183.63,151.44Z"/><path class="cls-18" d="M181.16,136.1a3.83,3.83,0,1,1-3.82-3.82,3.82,3.82,0,0,1,3.82,3.82"/><path class="cls-30" d="M181.16,136.1a3.83,3.83,0,1,1-3.82-3.82A3.82,3.82,0,0,1,181.16,136.1Z"/><path class="cls-18" d="M165,110.35a3.83,3.83,0,1,1-3.82-3.82,3.83,3.83,0,0,1,3.82,3.82"/><path class="cls-30" d="M165,110.35a3.83,3.83,0,1,1-3.82-3.82A3.83,3.83,0,0,1,165,110.35Z"/><path class="cls-29" d="M175.39,122.05a3.83,3.83,0,1,1-3.82-3.83,3.83,3.83,0,0,1,3.82,3.83"/><path class="cls-30" d="M175.39,122.05a3.83,3.83,0,1,1-3.82-3.83A3.83,3.83,0,0,1,175.39,122.05Z"/></g><text class="cls-22" transform="translate(78.88 126.8)">C</text><g class="cls-17"><path class="cls-18" d="M97.62,111.17a3.83,3.83,0,1,1-3.83-3.82,3.84,3.84,0,0,1,3.83,3.82"/><path class="cls-30" d="M97.62,111.17a3.83,3.83,0,1,1-3.83-3.82A3.84,3.84,0,0,1,97.62,111.17Z"/></g><text class="cls-39" transform="translate(148.75 264.47)">P1</text><text class="cls-21" transform="translate(101.76 106.6)">C</text><text class="cls-21" transform="translate(113 103.04)">C</text><text class="cls-39" transform="translate(56.22 120.22)">P2</text><text class="cls-39" transform="translate(118.95 53.33)">P3</text><g class="cls-17"><polygon class="cls-40" points="173.16 33.02 177.66 33.02 177.66 75.2 142.18 75.2 142.18 33.02 146.84 33.02 173.16 33.02"/><line class="cls-20" x1="156.95" y1="65.56" x2="162.72" y2="65.58"/><path class="cls-41" d="M150.65,70.8V63.63l0-1.57A13.64,13.64,0,1,1,173.44,52c0,4.29-.92,6.93-4,9.44l-.09,2.08v7.16"/><path class="cls-42" d="M124.83,97.77a31.22,31.22,0,0,1,31.21,6.5"/><line class="cls-43" x1="142.11" y1="75.12" x2="140.98" y2="86.7"/><polygon class="cls-44" points="138.86 84.86 140.37 93.95 143.61 85.32 138.86 84.86"/></g><text class="cls-45" transform="translate(146.76 28.06)">85%</text><text class="cls-46" transform="translate(89.9 354.1)">101</text></svg>