<svg id="图层_1" data-name="图层 1" xmlns="http://www.w3.org/2000/svg" xmlns:xlink="http://www.w3.org/1999/xlink" viewBox="0 0 400 400"><defs><style>.cls-1,.cls-14,.cls-16,.cls-20,.cls-28,.cls-3,.cls-30,.cls-34,.cls-41,.cls-43,.cls-44,.cls-45,.cls-46,.cls-5{fill:none;}.cls-2{fill:#ebcad1;}.cls-14,.cls-16,.cls-3,.cls-5{stroke:#060000;}.cls-14,.cls-20,.cls-28,.cls-3,.cls-30,.cls-41,.cls-43,.cls-44,.cls-45,.cls-46,.cls-5{stroke-miterlimit:10;}.cls-3{stroke-width:1.94px;}.cls-4{fill:#d0e1ae;}.cls-46,.cls-5{stroke-width:0.72px;}.cls-6{fill:#ced5e5;}.cls-7{fill:#070000;}.cls-8{fill:#221e1f;}.cls-9{fill:#c62b2b;}.cls-10{fill:#7f7b86;}.cls-11{fill:gray;}.cls-12{fill:#c0292a;}.cls-13{fill:#0a0303;}.cls-14{stroke-width:1.5px;}.cls-15{fill:#060000;}.cls-16{stroke-width:0.5px;}.cls-17{clip-path:url(#clip-path);}.cls-18,.cls-21,.cls-22,.cls-26,.cls-31,.cls-32,.cls-42,.cls-48{fill:#231815;}.cls-19{fill:#6cb94f;}.cls-20,.cls-28,.cls-30,.cls-34,.cls-41,.cls-43,.cls-44,.cls-45{stroke:#231815;}.cls-20{stroke-width:1.04px;}.cls-21,.cls-22,.cls-23,.cls-24,.cls-25,.cls-26,.cls-27,.cls-31,.cls-32,.cls-35,.cls-36,.cls-37,.cls-39,.cls-40,.cls-42,.cls-48,.cls-49{isolation:isolate;}.cls-21,.cls-22,.cls-23,.cls-24,.cls-26,.cls-27,.cls-31,.cls-32,.cls-35,.cls-39,.cls-40{font-size:11.13px;}.cls-21,.cls-22,.cls-23,.cls-24,.cls-26,.cls-27,.cls-31,.cls-35,.cls-36,.cls-37,.cls-39,.cls-40,.cls-42,.cls-48{font-family:Arial-BoldMT, Arial;font-weight:700;}.cls-21,.cls-24{letter-spacing:-0.04em;}.cls-23,.cls-24,.cls-27,.cls-35{fill:#736b63;}.cls-23,.cls-31,.cls-40{letter-spacing:-0.02em;}.cls-26{letter-spacing:0.87em;}.cls-28{stroke-width:1.19px;}.cls-29,.cls-40{fill:#857f8a;}.cls-30{stroke-width:0.59px;}.cls-32,.cls-49,.cls-50,.cls-51{font-family:ArialMT, Arial;}.cls-33,.cls-36,.cls-37,.cls-39{fill:#d80916;}.cls-34{stroke-miterlimit:10;stroke-width:0.6px;}.cls-35{letter-spacing:0.24em;}.cls-36{font-size:11.22px;letter-spacing:-0.02em;}.cls-37{font-size:11.23px;}.cls-38{fill:#f4b189;}.cls-41{stroke-width:0.6px;}.cls-42{font-size:12.69px;}.cls-43{stroke-width:0.71px;}.cls-44{stroke-width:1.16px;}.cls-45{stroke-width:0.85px;}.cls-46{stroke:#241c1d;}.cls-47{fill:#241c1d;}.cls-48{font-size:13.15px;}.cls-49{font-size:15px;fill:#fff;}.cls-50{font-size:20px;}.cls-51{font-size:10px;}</style><clipPath id="clip-path"><rect class="cls-1" x="-4245.31" y="-5141.74" width="7889.17" height="5916.88"/></clipPath></defs><rect class="cls-2" x="241.46" y="111.21" width="5.87" height="6.12"/><rect class="cls-2" x="255.37" y="111.21" width="5.87" height="6.12"/><rect class="cls-2" x="247.33" y="111.21" width="8.04" height="6.12"/><line class="cls-3" x1="251.35" y1="114.67" x2="251.35" y2="113.86"/><rect class="cls-4" x="255.37" y="89.93" width="6.13" height="5.87"/><rect class="cls-4" x="241.46" y="89.93" width="6.13" height="5.87"/><rect class="cls-4" x="247.59" y="89.93" width="7.78" height="5.87"/><line class="cls-5" x1="252.58" y1="92.86" x2="250.38" y2="92.86"/><rect class="cls-6" x="255.37" y="100.63" width="6.13" height="5.87"/><rect class="cls-6" x="241.46" y="100.63" width="6.13" height="5.87"/><rect class="cls-6" x="247.59" y="100.63" width="7.78" height="5.87"/><line class="cls-5" x1="252.58" y1="103.56" x2="250.38" y2="103.56"/><path class="cls-7" d="M301.2,189.35l1-.1a1.87,1.87,0,0,0,.47,1.05,1.21,1.21,0,0,0,.89.32,1.49,1.49,0,0,0,.82-.22,1.72,1.72,0,0,0,.57-.6,3.54,3.54,0,0,0,.37-1,5.7,5.7,0,0,0,.15-1.3v-.21a2.3,2.3,0,0,1-.82.82,2.18,2.18,0,0,1-1.14.32,2.23,2.23,0,0,1-1.72-.78,3,3,0,0,1-.7-2.06,3.07,3.07,0,0,1,.74-2.13,2.38,2.38,0,0,1,1.85-.8,2.61,2.61,0,0,1,1.48.45,2.86,2.86,0,0,1,1,1.3,6.51,6.51,0,0,1,.35,2.44,8.17,8.17,0,0,1-.35,2.64,3.07,3.07,0,0,1-1,1.5,2.55,2.55,0,0,1-1.59.52,2.28,2.28,0,0,1-1.59-.57A2.49,2.49,0,0,1,301.2,189.35Zm4.14-3.83a2.19,2.19,0,0,0-.45-1.46,1.43,1.43,0,0,0-1.12-.54,1.49,1.49,0,0,0-1.18.59,2.21,2.21,0,0,0-.49,1.5,2,2,0,0,0,.47,1.35,1.49,1.49,0,0,0,1.17.52,1.47,1.47,0,0,0,1.15-.52,2.14,2.14,0,0,0,.45-1.44Z"/><path class="cls-7" d="M307.48,187.08a8,8,0,0,1,.31-2.48,3.1,3.1,0,0,1,.9-1.45,2.27,2.27,0,0,1,1.5-.5,2.42,2.42,0,0,1,1.18.28,2.33,2.33,0,0,1,.84.81,4.34,4.34,0,0,1,.51,1.29,9,9,0,0,1,.19,2,8.58,8.58,0,0,1-.3,2.47,3.1,3.1,0,0,1-.9,1.45,2.49,2.49,0,0,1-3.4-.38A5.94,5.94,0,0,1,307.48,187.08Zm1,0a5.68,5.68,0,0,0,.48,2.85,1.36,1.36,0,0,0,1.83.54,1.34,1.34,0,0,0,.54-.54,8.67,8.67,0,0,0,0-5.69,1.41,1.41,0,0,0-1.2-.7,1.3,1.3,0,0,0-1.13.62,5.73,5.73,0,0,0-.47,2.92Z"/><path class="cls-7" d="M314.07,184.76a2.69,2.69,0,0,1,.45-1.58,1.48,1.48,0,0,1,1.29-.65,1.63,1.63,0,0,1,1.28.58,3.12,3.12,0,0,1,0,3.42,1.67,1.67,0,0,1-1.27.59,1.55,1.55,0,0,1-1.25-.59A2.66,2.66,0,0,1,314.07,184.76Zm1.76-1.47a.77.77,0,0,0-.63.34,2.22,2.22,0,0,0-.25,1.24,2,2,0,0,0,.25,1.16.76.76,0,0,0,1.05.22.77.77,0,0,0,.22-.22,2.22,2.22,0,0,0,.25-1.24,2,2,0,0,0-.25-1.16.77.77,0,0,0-.64-.34Zm0,8.4,4.57-9.16h.84l-4.57,9.16Zm3.63-2.36a2.76,2.76,0,0,1,.44-1.58,1.49,1.49,0,0,1,1.3-.65,1.63,1.63,0,0,1,1.28.58,2.58,2.58,0,0,1,.51,1.72,2.45,2.45,0,0,1-.52,1.69,1.61,1.61,0,0,1-1.27.6,1.54,1.54,0,0,1-1.24-.59,2.66,2.66,0,0,1-.49-1.77Zm1.76-1.47a.76.76,0,0,0-.63.33,2.18,2.18,0,0,0-.26,1.25,2,2,0,0,0,.26,1.16.78.78,0,0,0,1.09.18.77.77,0,0,0,.18-.18,2.22,2.22,0,0,0,.25-1.24,1.91,1.91,0,0,0-.26-1.17.74.74,0,0,0-.62-.33Z"/><path class="cls-8" d="M297.23,187.8a3.37,3.37,0,1,1-3.37-3.37h0a3.36,3.36,0,0,1,3.36,3.37"/><circle class="cls-5" cx="293.86" cy="187.8" r="3.37"/><path class="cls-7" d="M301.2,177.35l1-.09a1.83,1.83,0,0,0,.47,1,1.26,1.26,0,0,0,.89.33,1.49,1.49,0,0,0,.82-.22,1.72,1.72,0,0,0,.57-.6,3.54,3.54,0,0,0,.37-1,5.7,5.7,0,0,0,.15-1.3v-.21a2.3,2.3,0,0,1-.82.82,2.18,2.18,0,0,1-1.14.32,2.23,2.23,0,0,1-1.72-.78,3.41,3.41,0,0,1,0-4.19,2.38,2.38,0,0,1,1.85-.81,2.52,2.52,0,0,1,1.48.46,2.8,2.8,0,0,1,1,1.3,6.51,6.51,0,0,1,.35,2.44,8.17,8.17,0,0,1-.35,2.64,3.07,3.07,0,0,1-1,1.5,2.6,2.6,0,0,1-1.59.51,2.31,2.31,0,0,1-1.59-.56A2.52,2.52,0,0,1,301.2,177.35Zm4.14-3.82a2.19,2.19,0,0,0-.45-1.46,1.43,1.43,0,0,0-1.12-.54,1.52,1.52,0,0,0-1.18.58,2.23,2.23,0,0,0-.49,1.51,2,2,0,0,0,.47,1.35,1.49,1.49,0,0,0,1.17.52,1.47,1.47,0,0,0,1.15-.52,2.14,2.14,0,0,0,.45-1.44Z"/><path class="cls-7" d="M307.56,171.81v-1h5.34v.82a12.3,12.3,0,0,0-1.56,2.35,14.69,14.69,0,0,0-1.2,3,12,12,0,0,0-.39,2.39h-1a10.43,10.43,0,0,1,.39-2.48,13.16,13.16,0,0,1,1-2.8,12,12,0,0,1,1.46-2.27h-4Z"/><path class="cls-7" d="M314.07,172.77a2.69,2.69,0,0,1,.45-1.58,1.48,1.48,0,0,1,1.29-.65,1.63,1.63,0,0,1,1.28.58,2.58,2.58,0,0,1,.51,1.72,2.5,2.5,0,0,1-.51,1.69,1.64,1.64,0,0,1-1.27.6,1.55,1.55,0,0,1-1.25-.59A2.66,2.66,0,0,1,314.07,172.77Zm1.76-1.47a.77.77,0,0,0-.63.34,2.14,2.14,0,0,0-.25,1.24,2,2,0,0,0,.25,1.16.76.76,0,0,0,.63.33.77.77,0,0,0,.64-.34,2.11,2.11,0,0,0,.25-1.23,2,2,0,0,0-.25-1.17.79.79,0,0,0-.64-.33Zm0,8.4,4.57-9.16h.84l-4.57,9.16Zm3.63-2.36a2.76,2.76,0,0,1,.44-1.58,1.47,1.47,0,0,1,1.3-.65,1.63,1.63,0,0,1,1.28.58,2.58,2.58,0,0,1,.51,1.72,2.45,2.45,0,0,1-.52,1.69,1.61,1.61,0,0,1-1.27.6,1.54,1.54,0,0,1-1.24-.59,2.73,2.73,0,0,1-.49-1.77Zm1.76-1.48a.77.77,0,0,0-.63.34,2.15,2.15,0,0,0-.26,1.24,2,2,0,0,0,.26,1.16.76.76,0,0,0,1.05.22.77.77,0,0,0,.22-.22,2.22,2.22,0,0,0,.25-1.24,1.88,1.88,0,0,0-.26-1.16.75.75,0,0,0-.62-.34Z"/><path class="cls-9" d="M297.23,175.81a3.37,3.37,0,1,1-3.37-3.37h0a3.37,3.37,0,0,1,3.37,3.37"/><circle class="cls-5" cx="293.86" cy="175.81" r="3.37"/><path class="cls-7" d="M342,171.81v-1h5.35v.82a11.89,11.89,0,0,0-1.57,2.35,15.25,15.25,0,0,0-1.19,3,11.36,11.36,0,0,0-.39,2.39h-1a10.94,10.94,0,0,1,.38-2.48,13.88,13.88,0,0,1,1.05-2.8,11.51,11.51,0,0,1,1.45-2.27H342Z"/><path class="cls-7" d="M348.38,177.09l1-.09a2,2,0,0,0,.62,1.19,1.45,1.45,0,0,0,1,.41,1.57,1.57,0,0,0,1.25-.58,2.24,2.24,0,0,0,.5-1.53,2,2,0,0,0-.48-1.44,1.65,1.65,0,0,0-1.27-.52,1.61,1.61,0,0,0-.88.23,1.78,1.78,0,0,0-.62.6l-.94-.15.8-4.45h4.1v1h-3.29l-.45,2.35a2.57,2.57,0,0,1,1.56-.55,2.36,2.36,0,0,1,1.81.79,2.78,2.78,0,0,1,.74,2,3.28,3.28,0,0,1-.65,2,2.81,2.81,0,0,1-3.95.43l-.05,0A2.61,2.61,0,0,1,348.38,177.09Z"/><path class="cls-7" d="M355,172.77a2.69,2.69,0,0,1,.45-1.58,1.43,1.43,0,0,1,1.28-.65,1.63,1.63,0,0,1,1.29.58,2.58,2.58,0,0,1,.51,1.72,2.45,2.45,0,0,1-.52,1.69,1.61,1.61,0,0,1-1.27.6,1.57,1.57,0,0,1-1.24-.59A2.66,2.66,0,0,1,355,172.77Zm1.76-1.47a.77.77,0,0,0-.63.34,2.14,2.14,0,0,0-.25,1.24,2,2,0,0,0,.25,1.16.76.76,0,0,0,.63.33.77.77,0,0,0,.64-.34,2.11,2.11,0,0,0,.25-1.23,2,2,0,0,0-.25-1.17.82.82,0,0,0-.67-.33Zm0,8.4,4.56-9.16h.85l-4.57,9.16Zm3.63-2.36a2.76,2.76,0,0,1,.44-1.58,1.46,1.46,0,0,1,1.29-.65,1.61,1.61,0,0,1,1.28.58,3.11,3.11,0,0,1,0,3.41,1.64,1.64,0,0,1-1.27.6,1.55,1.55,0,0,1-1.25-.59,2.73,2.73,0,0,1-.51-1.77Zm1.76-1.48a.77.77,0,0,0-.64.34,2.22,2.22,0,0,0-.25,1.24,2,2,0,0,0,.26,1.16.75.75,0,0,0,.62.34.8.8,0,0,0,.65-.34,2.22,2.22,0,0,0,.25-1.24,2,2,0,0,0-.26-1.16.74.74,0,0,0-.65-.34Z"/><path class="cls-10" d="M338.13,175.81a3.37,3.37,0,1,1-3.37-3.37h0a3.37,3.37,0,0,1,3.37,3.37"/><circle class="cls-5" cx="334.76" cy="175.81" r="3.37"/><circle class="cls-5" cx="334.76" cy="187.8" r="3.37"/><path class="cls-7" d="M342,189.09l1-.1a2,2,0,0,0,.54,1.22,1.45,1.45,0,0,0,1,.41,1.57,1.57,0,0,0,1.24-.57,2.25,2.25,0,0,0,.5-1.54,2,2,0,0,0-.47-1.43,1.64,1.64,0,0,0-1.28-.53,1.81,1.81,0,0,0-.88.23,1.75,1.75,0,0,0-.61.6l-.94-.14.8-4.45H347v1h-3.28l-.45,2.35a2.57,2.57,0,0,1,1.55-.55,2.38,2.38,0,0,1,1.82.79,2.83,2.83,0,0,1,.74,2,3.28,3.28,0,0,1-.65,2,2.83,2.83,0,0,1-4,.42l0,0A2.71,2.71,0,0,1,342,189.09Z"/><path class="cls-7" d="M348.38,187.08a8.31,8.31,0,0,1,.3-2.48,3.12,3.12,0,0,1,.91-1.45,2.27,2.27,0,0,1,1.5-.5,2.42,2.42,0,0,1,1.18.28,2.33,2.33,0,0,1,.84.81,4.61,4.61,0,0,1,.5,1.29,8.43,8.43,0,0,1,.19,2,8.58,8.58,0,0,1-.3,2.47,3.1,3.1,0,0,1-.9,1.45,2.47,2.47,0,0,1-3.4-.39A6,6,0,0,1,348.38,187.08Zm1,0a5.68,5.68,0,0,0,.48,2.85,1.36,1.36,0,0,0,2.38,0,8.67,8.67,0,0,0,0-5.69,1.42,1.42,0,0,0-1.2-.71,1.35,1.35,0,0,0-1.14.62,5.86,5.86,0,0,0-.48,2.92Z"/><path class="cls-7" d="M355,184.76a2.69,2.69,0,0,1,.45-1.58,1.43,1.43,0,0,1,1.28-.65,1.63,1.63,0,0,1,1.29.58,2.58,2.58,0,0,1,.51,1.72,2.45,2.45,0,0,1-.52,1.69,1.61,1.61,0,0,1-1.27.6,1.57,1.57,0,0,1-1.24-.59A2.66,2.66,0,0,1,355,184.76Zm1.76-1.47a.77.77,0,0,0-.63.34,2.14,2.14,0,0,0-.25,1.24,2,2,0,0,0,.25,1.16.78.78,0,0,0,1.09.18.77.77,0,0,0,.18-.18,2.22,2.22,0,0,0,.25-1.24,2,2,0,0,0-.25-1.17.82.82,0,0,0-.67-.33Zm0,8.4,4.56-9.16h.85l-4.57,9.16Zm3.63-2.36a2.76,2.76,0,0,1,.44-1.58,1.46,1.46,0,0,1,1.29-.65,1.61,1.61,0,0,1,1.28.58,2.46,2.46,0,0,1,.51,1.71,2.54,2.54,0,0,1-.51,1.7,1.64,1.64,0,0,1-1.27.6,1.55,1.55,0,0,1-1.25-.59,2.73,2.73,0,0,1-.51-1.77Zm1.76-1.48a.77.77,0,0,0-.64.34,2.26,2.26,0,0,0-.25,1.25,2,2,0,0,0,.26,1.15.75.75,0,0,0,.62.34.8.8,0,0,0,.65-.34,2.22,2.22,0,0,0,.25-1.24,2,2,0,0,0-.26-1.16.74.74,0,0,0-.65-.34Z"/><path class="cls-7" d="M301.33,155.7v-6.29h.92v.89a2.13,2.13,0,0,1,1.89-1,2.29,2.29,0,0,1,1,.2,1.54,1.54,0,0,1,.68.53,2.25,2.25,0,0,1,.31.79,5.6,5.6,0,0,1,.06,1v3.87h-1v-3.83a2.81,2.81,0,0,0-.12-1,1,1,0,0,0-.41-.51,1.23,1.23,0,0,0-.7-.19,1.56,1.56,0,0,0-1.1.43,2.19,2.19,0,0,0-.46,1.64v3.44Z"/><path class="cls-7" d="M311.68,155.7v-.93a2.16,2.16,0,0,1-1.91,1.07,2.46,2.46,0,0,1-1-.21,1.64,1.64,0,0,1-.68-.54,2.07,2.07,0,0,1-.31-.79,5.61,5.61,0,0,1-.07-1v-3.91h1v3.49a6.07,6.07,0,0,0,.07,1.13,1.09,1.09,0,0,0,.4.66,1.24,1.24,0,0,0,.77.24,1.59,1.59,0,0,0,.85-.25,1.32,1.32,0,0,0,.56-.67,3.42,3.42,0,0,0,.17-1.23v-3.37h1v6.3Z"/><path class="cls-7" d="M318.08,153.41l1,.14a2.75,2.75,0,0,1-.83,1.69,2.36,2.36,0,0,1-1.64.6,2.49,2.49,0,0,1-2-.84,3.58,3.58,0,0,1-.74-2.42,4.76,4.76,0,0,1,.32-1.79,2.27,2.27,0,0,1,1-1.14,2.73,2.73,0,0,1,1.42-.38,2.35,2.35,0,0,1,1.59.52,2.48,2.48,0,0,1,.79,1.49l-1,.14a1.8,1.8,0,0,0-.5-1,1.22,1.22,0,0,0-.85-.32,1.48,1.48,0,0,0-1.23.58,2.89,2.89,0,0,0-.48,1.83,3,3,0,0,0,.46,1.84,1.45,1.45,0,0,0,1.2.58,1.42,1.42,0,0,0,1-.38A2,2,0,0,0,318.08,153.41Z"/><path class="cls-7" d="M319.93,155.7V147h1v8.68Z"/><path class="cls-7" d="M326.67,153.67l1,.14a2.66,2.66,0,0,1-.92,1.5,3,3,0,0,1-3.81-.32,3.43,3.43,0,0,1-.77-2.38,3.62,3.62,0,0,1,.83-2.42,2.59,2.59,0,0,1,2-.87,2.48,2.48,0,0,1,2,.86,3.52,3.52,0,0,1,.77,2.42v.29h-4.49a2.39,2.39,0,0,0,.56,1.58,1.68,1.68,0,0,0,1.28.55,1.63,1.63,0,0,0,1-.31A2.11,2.11,0,0,0,326.67,153.67ZM323.25,152h3.44a2.16,2.16,0,0,0-.4-1.2,1.73,1.73,0,0,0-2.5-.07,2,2,0,0,0-.54,1.27Z"/><path class="cls-7" d="M328.56,152.55a3.32,3.32,0,0,1,.93-2.59,2.72,2.72,0,0,1,1.88-.69,2.61,2.61,0,0,1,2,.85,3.35,3.35,0,0,1,.78,2.35,4.33,4.33,0,0,1-.35,1.91,2.54,2.54,0,0,1-1,1.08,2.84,2.84,0,0,1-1.45.39,2.61,2.61,0,0,1-2-.85A3.47,3.47,0,0,1,328.56,152.55Zm1,0a2.72,2.72,0,0,0,.51,1.81,1.61,1.61,0,0,0,2.26.26,2.13,2.13,0,0,0,.26-.26,2.87,2.87,0,0,0,.5-1.84,2.76,2.76,0,0,0-.5-1.78,1.59,1.59,0,0,0-1.26-.6,1.55,1.55,0,0,0-1.26.6,2.77,2.77,0,0,0-.47,1.81Z"/><path class="cls-7" d="M337.59,154.76l.14.94a3.86,3.86,0,0,1-.76.1,1.7,1.7,0,0,1-.86-.19,1.05,1.05,0,0,1-.43-.48,4.46,4.46,0,0,1-.12-1.26v-3.68h-.76v-.83h.76v-1.55l1-.64v2.2h1v.82h-1v3.68a2.32,2.32,0,0,0,.05.59.49.49,0,0,0,.18.2.57.57,0,0,0,.34.08Z"/><path class="cls-7" d="M338.62,148.19V147h1v1.21Zm0,7.48v-6.29h1v6.29Z"/><path class="cls-7" d="M345,155.7v-.79a1.83,1.83,0,0,1-1.67.93,2.24,2.24,0,0,1-1.32-.41,2.67,2.67,0,0,1-.94-1.16,4.17,4.17,0,0,1-.33-1.71,4.57,4.57,0,0,1,.3-1.71,2.46,2.46,0,0,1,.9-1.18,2.35,2.35,0,0,1,1.34-.41,1.92,1.92,0,0,1,1,.24,2,2,0,0,1,.69.62V147h1v8.69Zm-3.22-3.14a2.9,2.9,0,0,0,.49,1.81,1.45,1.45,0,0,0,1.15.6,1.39,1.39,0,0,0,1.14-.58,2.7,2.7,0,0,0,.46-1.74,3.1,3.1,0,0,0-.47-1.9,1.43,1.43,0,0,0-1.17-.61,1.36,1.36,0,0,0-1.14.58,3,3,0,0,0-.44,1.84Z"/><path class="cls-7" d="M351.72,153.67l1,.14a2.75,2.75,0,0,1-.92,1.5A3,3,0,0,1,348,155a3.38,3.38,0,0,1-.77-2.38,3.53,3.53,0,0,1,.78-2.42,2.59,2.59,0,0,1,2-.87,2.51,2.51,0,0,1,2,.86,3.48,3.48,0,0,1,.76,2.42v.29h-4.49a2.39,2.39,0,0,0,.56,1.58,1.68,1.68,0,0,0,1.28.55,1.63,1.63,0,0,0,1-.31A2.12,2.12,0,0,0,351.72,153.67ZM348.3,152h3.43a2.15,2.15,0,0,0-.39-1.2,1.68,1.68,0,0,0-2.5-.12,1.91,1.91,0,0,0-.54,1.32Z"/><path class="cls-7" d="M308.58,169.63v-8.71h.92v.81a2.31,2.31,0,0,1,.74-.72,2,2,0,0,1,1-.23,2.27,2.27,0,0,1,1.36.41,2.59,2.59,0,0,1,.89,1.17,4.48,4.48,0,0,1,.3,1.66,4.31,4.31,0,0,1-.33,1.74,2.5,2.5,0,0,1-1,1.18,2.35,2.35,0,0,1-1.33.41,1.8,1.8,0,0,1-.91-.22,2,2,0,0,1-.66-.57v3.07Zm.9-5.53a2.86,2.86,0,0,0,.47,1.8,1.43,1.43,0,0,0,2,.31,1.52,1.52,0,0,0,.31-.31,3,3,0,0,0,.48-1.87,2.89,2.89,0,0,0-.47-1.81,1.39,1.39,0,0,0-1.13-.6,1.48,1.48,0,0,0-1.16.64,3,3,0,0,0-.5,1.84Z"/><path class="cls-7" d="M315,167.19V160.9h1v1a2.7,2.7,0,0,1,.64-.89,1.1,1.1,0,0,1,.65-.21,1.79,1.79,0,0,1,1,.34l-.35,1a1.48,1.48,0,0,0-.74-.21.91.91,0,0,0-.59.21,1.12,1.12,0,0,0-.37.58,4,4,0,0,0-.17,1.24v3.23Z"/><path class="cls-7" d="M323,165.19l1,.14a2.75,2.75,0,0,1-.92,1.5,3,3,0,0,1-3.81-.32,3.38,3.38,0,0,1-.78-2.38,3.63,3.63,0,0,1,.79-2.47,2.59,2.59,0,0,1,2-.87,2.54,2.54,0,0,1,2,.86,3.5,3.5,0,0,1,.76,2.43v.28h-4.5a2.45,2.45,0,0,0,.57,1.58,1.68,1.68,0,0,0,1.28.55,1.51,1.51,0,0,0,1-.31A2.18,2.18,0,0,0,323,165.19Zm-3.42-1.71H323a2.34,2.34,0,0,0-.39-1.2,1.6,1.6,0,0,0-1.29-.62,1.62,1.62,0,0,0-1.21.5,2,2,0,0,0-.56,1.31Z"/><path class="cls-7" d="M324.86,165.32l1-.14a1.46,1.46,0,0,0,.46,1,1.62,1.62,0,0,0,1.08.34,1.56,1.56,0,0,0,1-.3.91.91,0,0,0,.34-.7.64.64,0,0,0-.31-.57,4,4,0,0,0-1-.37,8.43,8.43,0,0,1-1.54-.51,1.51,1.51,0,0,1-.65-.6,1.77,1.77,0,0,1-.21-.84,1.75,1.75,0,0,1,.18-.78,1.59,1.59,0,0,1,.49-.6,2.23,2.23,0,0,1,.64-.31,3.2,3.2,0,0,1,.87-.12,3.3,3.3,0,0,1,1.24.21,1.8,1.8,0,0,1,.78.58,2.21,2.21,0,0,1,.34,1l-1,.14a1.17,1.17,0,0,0-.39-.76,1.35,1.35,0,0,0-.91-.28,1.48,1.48,0,0,0-1,.25.68.68,0,0,0-.3.57.63.63,0,0,0,.12.37.79.79,0,0,0,.39.28l.89.28a13,13,0,0,1,1.49.49,1.58,1.58,0,0,1,.67.56,1.56,1.56,0,0,1,.25.92,1.89,1.89,0,0,1-1.14,1.73,3.06,3.06,0,0,1-1.26.26,2.68,2.68,0,0,1-1.77-.52A2.39,2.39,0,0,1,324.86,165.32Z"/><path class="cls-7" d="M335.17,165.19l1,.14a2.66,2.66,0,0,1-.92,1.5,3,3,0,0,1-3.81-.32,3.38,3.38,0,0,1-.77-2.38,3.57,3.57,0,0,1,.78-2.47,2.59,2.59,0,0,1,2-.87,2.51,2.51,0,0,1,2,.86,3.5,3.5,0,0,1,.76,2.43v.28h-4.49a2.35,2.35,0,0,0,.57,1.58,1.66,1.66,0,0,0,1.27.55,1.51,1.51,0,0,0,1-.31A2.18,2.18,0,0,0,335.17,165.19Zm-3.42-1.71h3.43a2.15,2.15,0,0,0-.39-1.2,1.6,1.6,0,0,0-1.29-.62,1.62,1.62,0,0,0-1.21.5,2,2,0,0,0-.54,1.31Z"/><path class="cls-7" d="M337.44,167.19V160.9h.92v.89a2.09,2.09,0,0,1,1.9-1,2.29,2.29,0,0,1,1,.2,1.51,1.51,0,0,1,.67.53,2.09,2.09,0,0,1,.32.79,5.6,5.6,0,0,1,.06,1v3.88h-1.05v-3.83a3,3,0,0,0-.11-1,1,1,0,0,0-.42-.52,1.22,1.22,0,0,0-.69-.19,1.58,1.58,0,0,0-1.11.43,2.24,2.24,0,0,0-.46,1.64v3.47Z"/><path class="cls-7" d="M346.05,166.27l.15.94a3.32,3.32,0,0,1-.77.1,1.82,1.82,0,0,1-.86-.18,1,1,0,0,1-.42-.49,3.84,3.84,0,0,1-.13-1.26v-3.63h-.76v-.83H344v-1.56l1-.63v2.19h1v.83h-1v3.67a2,2,0,0,0,0,.59.52.52,0,0,0,.18.21.65.65,0,0,0,.34.07Z"/><path class="cls-7" d="M301,222.35v-6.3h.92v.9a2.09,2.09,0,0,1,1.9-1,2.66,2.66,0,0,1,1,.2,1.54,1.54,0,0,1,.67.54,2.07,2.07,0,0,1,.31.79,5.6,5.6,0,0,1,.06,1v3.87h-1v-3.83a2.81,2.81,0,0,0-.12-1,.94.94,0,0,0-.41-.51,1.24,1.24,0,0,0-.7-.2,1.57,1.57,0,0,0-1.1.44,2.19,2.19,0,0,0-.46,1.64v3.44Z"/><path class="cls-7" d="M311.3,222.35v-.93a2.2,2.2,0,0,1-1.91,1.07,2.46,2.46,0,0,1-1-.21,1.8,1.8,0,0,1-.68-.54,2.07,2.07,0,0,1-.31-.79,5.6,5.6,0,0,1-.06-1v-3.9h1v3.49a7,7,0,0,0,.06,1.12,1.18,1.18,0,0,0,.41.66,1.24,1.24,0,0,0,.77.24,1.61,1.61,0,0,0,.85-.24,1.36,1.36,0,0,0,.56-.67,3.42,3.42,0,0,0,.17-1.23v-3.37h1v6.29h-.86Z"/><path class="cls-7" d="M317.7,220.05l1,.14a2.82,2.82,0,0,1-.84,1.69,2.31,2.31,0,0,1-1.64.61,2.5,2.5,0,0,1-2-.84,3.6,3.6,0,0,1-.74-2.43,4.71,4.71,0,0,1,.32-1.78,2.39,2.39,0,0,1,1-1.15,2.82,2.82,0,0,1,1.42-.38,2.26,2.26,0,0,1,2.38,2l-1,.15a1.74,1.74,0,0,0-.5-1,1.22,1.22,0,0,0-.85-.32,1.48,1.48,0,0,0-1.23.58,2.82,2.82,0,0,0-.47,1.83A3,3,0,0,0,315,221a1.49,1.49,0,0,0,1.2.58,1.39,1.39,0,0,0,1-.39A2,2,0,0,0,317.7,220.05Z"/><path class="cls-7" d="M319.55,222.35v-8.69h1v8.69Z"/><path class="cls-7" d="M326.29,220.31l1,.15a2.81,2.81,0,0,1-3.49,1.92,2.77,2.77,0,0,1-1.24-.74,3.43,3.43,0,0,1-.77-2.38,3.57,3.57,0,0,1,.78-2.47,2.56,2.56,0,0,1,2-.88,2.51,2.51,0,0,1,2,.86,3.56,3.56,0,0,1,.77,2.43v.29h-4.49a2.39,2.39,0,0,0,.56,1.58,1.68,1.68,0,0,0,1.28.55,1.63,1.63,0,0,0,1-.31A2.11,2.11,0,0,0,326.29,220.31Zm-3.42-1.7h3.43a2.15,2.15,0,0,0-.39-1.2,1.58,1.58,0,0,0-1.29-.62,1.67,1.67,0,0,0-1.21.49A2,2,0,0,0,322.87,218.61Z"/><path class="cls-7" d="M328.18,219.19a3.32,3.32,0,0,1,.93-2.59,2.85,2.85,0,0,1,3.9.15,3.37,3.37,0,0,1,.78,2.35,4.34,4.34,0,0,1-.35,1.92,2.54,2.54,0,0,1-1,1.08,2.93,2.93,0,0,1-1.45.38,2.61,2.61,0,0,1-2-.85A3.49,3.49,0,0,1,328.18,219.19Zm1,0a2.72,2.72,0,0,0,.51,1.81,1.62,1.62,0,0,0,2.28.24,1.36,1.36,0,0,0,.24-.24,2.83,2.83,0,0,0,.5-1.85,2.72,2.72,0,0,0-.5-1.77,1.59,1.59,0,0,0-1.26-.6,1.55,1.55,0,0,0-1.26.6,2.77,2.77,0,0,0-.47,1.81Z"/><path class="cls-7" d="M337.21,221.4l.14.95a3.22,3.22,0,0,1-.76.09,1.71,1.71,0,0,1-.86-.18,1.05,1.05,0,0,1-.43-.48,4.53,4.53,0,0,1-.12-1.27v-3.63h-.76v-.83h.76V214.5l1-.64v2.19h1v.83h-1v3.68a1.91,1.91,0,0,0,.06.58.39.39,0,0,0,.17.21.62.62,0,0,0,.35.08Z"/><path class="cls-7" d="M338.24,214.87v-1.21h1v1.21Zm0,7.48v-6.3h1v6.3Z"/><path class="cls-7" d="M344.64,222.35v-.79a1.83,1.83,0,0,1-1.67.93,2.31,2.31,0,0,1-1.32-.41,2.58,2.58,0,0,1-.93-1.16,4,4,0,0,1-.34-1.71,4.57,4.57,0,0,1,.3-1.71,2.4,2.4,0,0,1,.9-1.18,2.35,2.35,0,0,1,1.34-.41,1.92,1.92,0,0,1,1,.24,2,2,0,0,1,.69.62v-3.11h1v8.69Zm-3.22-3.16a2.84,2.84,0,0,0,.49,1.81,1.45,1.45,0,0,0,1.15.6,1.42,1.42,0,0,0,1.14-.57,2.72,2.72,0,0,0,.47-1.75,3.1,3.1,0,0,0-.48-1.9,1.44,1.44,0,0,0-1.17-.6,1.36,1.36,0,0,0-1.14.58A3,3,0,0,0,341.42,219.19Z"/><path class="cls-7" d="M351.34,220.31l1,.15a2.52,2.52,0,0,1-2.64,2,2.66,2.66,0,0,1-2.09-.85,3.44,3.44,0,0,1-.78-2.38,3.63,3.63,0,0,1,.79-2.47,2.73,2.73,0,0,1,4,0,3.6,3.6,0,0,1,.76,2.43v.29H347.9a2.39,2.39,0,0,0,.56,1.58,1.68,1.68,0,0,0,1.28.55,1.63,1.63,0,0,0,1-.31A2.11,2.11,0,0,0,351.34,220.31Zm-3.42-1.7h3.43a2.15,2.15,0,0,0-.39-1.2,1.58,1.58,0,0,0-1.29-.62,1.67,1.67,0,0,0-1.21.49,2,2,0,0,0-.54,1.33Z"/><path class="cls-7" d="M308.27,226.38v-1.19h1v1.21Zm0,7.48v-6.29h1v6.29Z"/><path class="cls-7" d="M314.67,233.86v-.79A1.84,1.84,0,0,1,313,234a2.26,2.26,0,0,1-1.31-.41,2.67,2.67,0,0,1-.94-1.16,4.17,4.17,0,0,1-.33-1.71,4.57,4.57,0,0,1,.3-1.71,2.46,2.46,0,0,1,.9-1.18,2.35,2.35,0,0,1,1.34-.41,1.92,1.92,0,0,1,1,.24,2,2,0,0,1,.69.62v-3.09h1v8.69Zm-3.22-3.14a2.9,2.9,0,0,0,.49,1.81,1.45,1.45,0,0,0,1.15.6,1.39,1.39,0,0,0,1.14-.58,2.71,2.71,0,0,0,.46-1.75,3.08,3.08,0,0,0-.47-1.89,1.43,1.43,0,0,0-1.17-.61,1.36,1.36,0,0,0-1.14.58A3,3,0,0,0,311.45,230.72Z"/><path class="cls-7" d="M321.37,231.82l1,.15a2.81,2.81,0,0,1-.92,1.5,2.72,2.72,0,0,1-1.72.53,2.66,2.66,0,0,1-2.09-.85,3.38,3.38,0,0,1-.78-2.38,3.56,3.56,0,0,1,.79-2.47,2.59,2.59,0,0,1,2-.88,2.52,2.52,0,0,1,2,.87,3.48,3.48,0,0,1,.76,2.42V231h-4.49a2.39,2.39,0,0,0,.56,1.58,1.68,1.68,0,0,0,1.28.55,1.63,1.63,0,0,0,1-.31A2.21,2.21,0,0,0,321.37,231.82Zm-3.42-1.7h3.43a2.15,2.15,0,0,0-.39-1.2,1.7,1.7,0,0,0-2.38-.24l-.12.11a2,2,0,0,0-.49,1.33Z"/><path class="cls-7" d="M323.64,233.86v-6.29h.92v.89a2.12,2.12,0,0,1,1.9-1,2.3,2.3,0,0,1,1,.21,1.51,1.51,0,0,1,.67.53,2.07,2.07,0,0,1,.31.79,5.6,5.6,0,0,1,.06,1v3.87h-1V230a2.81,2.81,0,0,0-.12-1,1,1,0,0,0-.41-.52,1.23,1.23,0,0,0-.7-.19,1.56,1.56,0,0,0-1.1.43,2.24,2.24,0,0,0-.46,1.64v3.44Z"/><path class="cls-7" d="M332.25,232.92l.14.94a3.22,3.22,0,0,1-.76.09,1.71,1.71,0,0,1-.86-.18,1.13,1.13,0,0,1-.43-.49,4.46,4.46,0,0,1-.12-1.26v-3.63h-.75v-.83h.75V226l1-.64v2.2h1v.82h-1v3.68a2.28,2.28,0,0,0,0,.58.58.58,0,0,0,.17.21.72.72,0,0,0,.35.08Z"/><path class="cls-7" d="M333.29,226.38v-1.19h1v1.21Zm0,7.48v-6.29h1v6.29Z"/><path class="cls-7" d="M338,232.92l.14.94a3.22,3.22,0,0,1-.76.09,1.71,1.71,0,0,1-.86-.18,1,1,0,0,1-.43-.49A4.46,4.46,0,0,1,336,232v-3.63h-.76v-.83H336V226l1-.64v2.2h1v.82h-1v3.68a1.91,1.91,0,0,0,.06.58.39.39,0,0,0,.17.21.62.62,0,0,0,.35.08Z"/><path class="cls-7" d="M339.07,236.29l-.14-1a2,2,0,0,0,.6.1,1.09,1.09,0,0,0,.56-.12,1,1,0,0,0,.34-.33,4.94,4.94,0,0,0,.32-.8l.09-.26-2.29-6.33h1.09l1.26,3.64c.16.46.31.94.44,1.45.12-.47.25-.94.41-1.41l1.28-3.68h1L341.79,234a14.75,14.75,0,0,1-.58,1.43,2.17,2.17,0,0,1-.64.77,1.47,1.47,0,0,1-.84.24A2.12,2.12,0,0,1,339.07,236.29Z"/><path class="cls-7" d="M324.36,266.37v-1h5.35v.82a11.1,11.1,0,0,0-1.56,2.34,14.69,14.69,0,0,0-1.2,3,12,12,0,0,0-.39,2.39h-1a10.94,10.94,0,0,1,.38-2.48,13.88,13.88,0,0,1,1.05-2.8,12,12,0,0,1,1.46-2.27Z"/><path class="cls-7" d="M330.71,271.65l1-.1a2,2,0,0,0,.55,1.23,1.45,1.45,0,0,0,1,.41,1.57,1.57,0,0,0,1.25-.58,2.29,2.29,0,0,0,.5-1.53,2,2,0,0,0-.48-1.44,1.82,1.82,0,0,0-2.15-.29,1.67,1.67,0,0,0-.61.6l-1-.15.8-4.45h4.1v1h-3.29l-.45,2.35a2.6,2.6,0,0,1,1.56-.55,2.38,2.38,0,0,1,1.81.78,2.83,2.83,0,0,1,.75,2,3.21,3.21,0,0,1-.66,2,2.55,2.55,0,0,1-2.16,1.05,2.31,2.31,0,0,1-2.52-2.33Z"/><path class="cls-7" d="M337.3,267.33a2.69,2.69,0,0,1,.45-1.58,1.43,1.43,0,0,1,1.29-.66,1.64,1.64,0,0,1,1.28.59,2.56,2.56,0,0,1,.51,1.71,2.48,2.48,0,0,1-.52,1.7,1.64,1.64,0,0,1-2.31.2,1.89,1.89,0,0,1-.2-.2A2.69,2.69,0,0,1,337.3,267.33Zm1.76-1.48a.77.77,0,0,0-.63.34,2.22,2.22,0,0,0-.25,1.24,2,2,0,0,0,.25,1.16.76.76,0,0,0,1.05.22.77.77,0,0,0,.22-.22,2.15,2.15,0,0,0,.26-1.24,2,2,0,0,0-.26-1.16A.77.77,0,0,0,339.06,265.85Zm0,8.4,4.57-9.16h.84l-4.57,9.16Zm3.63-2.36a2.69,2.69,0,0,1,.45-1.58,1.46,1.46,0,0,1,1.29-.65,1.64,1.64,0,0,1,1.28.59,3.07,3.07,0,0,1,0,3.41,1.6,1.6,0,0,1-1.27.59,1.54,1.54,0,0,1-1.24-.59,2.66,2.66,0,0,1-.5-1.77Zm1.76-1.47a.77.77,0,0,0-.63.34,2.15,2.15,0,0,0-.26,1.24,2,2,0,0,0,.26,1.16.78.78,0,0,0,1.09.18.77.77,0,0,0,.18-.18,2.22,2.22,0,0,0,.25-1.24,1.88,1.88,0,0,0-.26-1.16.75.75,0,0,0-.62-.34Z"/><path class="cls-11" d="M300.41,273.92v-8.68h1.12l4.37,6.83v-6.83h1v8.68h-1.11l-4.37-6.83v6.83Z"/><path class="cls-12" d="M300.41,249.42v-8.69h1.12l4.37,6.84v-6.84h1v8.69h-1.11l-4.37-6.83v6.83Z"/><path class="cls-7" d="M324.43,247.41l1-.1a1.83,1.83,0,0,0,.47,1,1.21,1.21,0,0,0,.89.32,1.49,1.49,0,0,0,.82-.22,1.75,1.75,0,0,0,.58-.6,3.63,3.63,0,0,0,.36-1,5.7,5.7,0,0,0,.15-1.3v-.21a2.33,2.33,0,0,1-.83.82,2,2,0,0,1-1.13.32,2.23,2.23,0,0,1-1.72-.78,3,3,0,0,1-.7-2.06,3.07,3.07,0,0,1,.74-2.13,2.38,2.38,0,0,1,1.85-.8,2.61,2.61,0,0,1,1.48.45,2.86,2.86,0,0,1,1,1.3,6.51,6.51,0,0,1,.35,2.44,8.17,8.17,0,0,1-.35,2.64,3.14,3.14,0,0,1-1,1.5,2.55,2.55,0,0,1-1.59.52,2.28,2.28,0,0,1-1.59-.57A2.42,2.42,0,0,1,324.43,247.41Zm4.14-3.83a2.13,2.13,0,0,0-.46-1.46,1.42,1.42,0,0,0-1.11-.54,1.52,1.52,0,0,0-1.18.58,2.23,2.23,0,0,0-.49,1.51,2,2,0,0,0,.47,1.35,1.49,1.49,0,0,0,1.17.52,1.47,1.47,0,0,0,1.15-.52A2.14,2.14,0,0,0,328.57,243.58Z"/><path class="cls-7" d="M330.79,241.87v-1h5.34v.82a12.3,12.3,0,0,0-1.56,2.35,14.69,14.69,0,0,0-1.2,3,11.34,11.34,0,0,0-.38,2.39h-1.05a10.43,10.43,0,0,1,.39-2.48,13.16,13.16,0,0,1,1-2.8,12,12,0,0,1,1.46-2.27Z"/><path class="cls-7" d="M337.3,242.82a2.69,2.69,0,0,1,.45-1.58,1.46,1.46,0,0,1,1.29-.65,1.63,1.63,0,0,1,1.28.58,2.58,2.58,0,0,1,.51,1.72,2.53,2.53,0,0,1-.52,1.7,1.61,1.61,0,0,1-1.26.59,1.57,1.57,0,0,1-1.25-.58A2.71,2.71,0,0,1,337.3,242.82Zm1.76-1.47a.77.77,0,0,0-.63.34,2.22,2.22,0,0,0-.25,1.24,2,2,0,0,0,.25,1.16.76.76,0,0,0,1.05.22.77.77,0,0,0,.22-.22,2.15,2.15,0,0,0,.26-1.24,2,2,0,0,0-.26-1.16A.77.77,0,0,0,339.06,241.35Zm0,8.4,4.57-9.16h.84l-4.57,9.16Zm3.63-2.36a2.69,2.69,0,0,1,.45-1.58,1.46,1.46,0,0,1,1.29-.65,1.63,1.63,0,0,1,1.28.58,2.58,2.58,0,0,1,.51,1.72,2.45,2.45,0,0,1-.52,1.69,1.61,1.61,0,0,1-1.27.6,1.54,1.54,0,0,1-1.24-.59,2.66,2.66,0,0,1-.49-1.77Zm1.76-1.47a.76.76,0,0,0-.63.33,2.18,2.18,0,0,0-.26,1.25,2,2,0,0,0,.26,1.16.78.78,0,0,0,1.09.18.77.77,0,0,0,.18-.18,2.22,2.22,0,0,0,.25-1.24,1.91,1.91,0,0,0-.26-1.17.74.74,0,0,0-.62-.33Z"/><path class="cls-7" d="M300.41,261.67V253h1.12l4.37,6.83V253h1v8.68h-1.11l-4.37-6.83v6.83Z"/><path class="cls-7" d="M324.43,259.66l1-.1a1.83,1.83,0,0,0,.47,1,1.25,1.25,0,0,0,.89.32,1.49,1.49,0,0,0,.82-.22,1.75,1.75,0,0,0,.58-.6,3.63,3.63,0,0,0,.36-1,5.7,5.7,0,0,0,.15-1.3v-.21a2.33,2.33,0,0,1-.83.82,2.15,2.15,0,0,1-1.13.32,2.23,2.23,0,0,1-1.72-.78,3,3,0,0,1-.7-2.06,3.07,3.07,0,0,1,.74-2.13,2.38,2.38,0,0,1,1.85-.81,2.62,2.62,0,0,1,1.48.46,2.86,2.86,0,0,1,1,1.3,6.51,6.51,0,0,1,.35,2.44,8.17,8.17,0,0,1-.35,2.64,3.14,3.14,0,0,1-1,1.5,2.6,2.6,0,0,1-1.59.51,2.31,2.31,0,0,1-1.59-.56A2.42,2.42,0,0,1,324.43,259.66Zm4.14-3.83a2.12,2.12,0,0,0-.46-1.45,1.42,1.42,0,0,0-1.11-.54,1.48,1.48,0,0,0-1.18.58,2.21,2.21,0,0,0-.49,1.5,1.87,1.87,0,0,0,.47,1.35,1.49,1.49,0,0,0,1.17.52,1.45,1.45,0,0,0,1.15-.52A2.14,2.14,0,0,0,328.57,255.83Z"/><path class="cls-7" d="M330.71,257.39a8,8,0,0,1,.31-2.48,3.1,3.1,0,0,1,.9-1.45,2.27,2.27,0,0,1,1.5-.5,2.42,2.42,0,0,1,1.18.28,2.33,2.33,0,0,1,.84.81,5,5,0,0,1,.51,1.29,9.6,9.6,0,0,1,.18,2,8.58,8.58,0,0,1-.3,2.47,3.1,3.1,0,0,1-.9,1.45,2.29,2.29,0,0,1-1.51.5,2.22,2.22,0,0,1-1.88-.89A5.91,5.91,0,0,1,330.71,257.39Zm1,0a5.68,5.68,0,0,0,.48,2.85,1.45,1.45,0,0,0,1.19.7,1.41,1.41,0,0,0,1.19-.71,8.67,8.67,0,0,0,0-5.69,1.41,1.41,0,0,0-1.2-.7,1.33,1.33,0,0,0-1.14.62,5.79,5.79,0,0,0-.48,2.93Z"/><path class="cls-7" d="M337.3,255.07a2.69,2.69,0,0,1,.45-1.58,1.46,1.46,0,0,1,1.29-.65,1.64,1.64,0,0,1,1.28.59,2.56,2.56,0,0,1,.51,1.71,2.53,2.53,0,0,1-.52,1.7,1.61,1.61,0,0,1-1.26.59,1.57,1.57,0,0,1-1.25-.58A2.71,2.71,0,0,1,337.3,255.07Zm1.76-1.47a.77.77,0,0,0-.63.34,2.22,2.22,0,0,0-.25,1.24,2,2,0,0,0,.25,1.16.76.76,0,0,0,1.05.22.77.77,0,0,0,.22-.22,2.15,2.15,0,0,0,.26-1.24,2,2,0,0,0-.26-1.16A.77.77,0,0,0,339.06,253.6Zm0,8.4,4.57-9.16h.84L339.9,262Zm3.63-2.36a2.69,2.69,0,0,1,.45-1.58,1.46,1.46,0,0,1,1.29-.65,1.63,1.63,0,0,1,1.28.58,2.58,2.58,0,0,1,.51,1.72,2.53,2.53,0,0,1-.52,1.7,1.6,1.6,0,0,1-1.27.59,1.54,1.54,0,0,1-1.24-.59,2.66,2.66,0,0,1-.49-1.77Zm1.76-1.47a.77.77,0,0,0-.63.34,2.15,2.15,0,0,0-.26,1.24,2,2,0,0,0,.26,1.16.78.78,0,0,0,1.09.18.77.77,0,0,0,.18-.18,2.22,2.22,0,0,0,.25-1.24,1.91,1.91,0,0,0-.26-1.17.76.76,0,0,0-.62-.31Z"/><path class="cls-13" d="M271.14,93.84l1,.14a2.81,2.81,0,0,1-.83,1.69,2.33,2.33,0,0,1-1.65.61,2.49,2.49,0,0,1-2-.84,3.55,3.55,0,0,1-.74-2.43,4.32,4.32,0,0,1,.32-1.78,2.3,2.3,0,0,1,1-1.15,2.82,2.82,0,0,1,1.42-.38,2.4,2.4,0,0,1,1.59.52,2.48,2.48,0,0,1,.79,1.49l-1,.14a1.73,1.73,0,0,0-.49-1,1.18,1.18,0,0,0-.85-.32,1.56,1.56,0,0,0-1.24.57,3,3,0,0,0-.47,1.83,3,3,0,0,0,.46,1.85,1.49,1.49,0,0,0,1.2.58,1.39,1.39,0,0,0,1-.39A2,2,0,0,0,271.14,93.84Z"/><path class="cls-13" d="M272.57,93a3.32,3.32,0,0,1,.93-2.59,2.67,2.67,0,0,1,1.88-.7,2.61,2.61,0,0,1,2,.85,3.35,3.35,0,0,1,.78,2.35,4.33,4.33,0,0,1-.35,1.91,2.43,2.43,0,0,1-1,1.08,2.84,2.84,0,0,1-1.45.39,2.61,2.61,0,0,1-2-.85A3.44,3.44,0,0,1,272.57,93Zm1,0a2.74,2.74,0,0,0,.51,1.81,1.62,1.62,0,0,0,2.28.24,1.36,1.36,0,0,0,.24-.24,2.83,2.83,0,0,0,.5-1.85,2.72,2.72,0,0,0-.5-1.77,1.59,1.59,0,0,0-1.26-.6,1.55,1.55,0,0,0-1.26.6,2.77,2.77,0,0,0-.47,1.81Z"/><path class="cls-13" d="M280.93,96.19l-2.26-6.3h1.09L281,93.61c.14.41.27.83.39,1.27.09-.33.21-.73.37-1.2l1.34-3.84h1l-2.18,6.35Z"/><path class="cls-13" d="M288.83,95.36a3.55,3.55,0,0,1-1.08.71,3.09,3.09,0,0,1-1.12.21,2.12,2.12,0,0,1-1.52-.51,1.82,1.82,0,0,1-.33-2.14,1.73,1.73,0,0,1,.52-.62,2.64,2.64,0,0,1,.74-.35c.3-.07.6-.12.9-.16a8.65,8.65,0,0,0,1.82-.37v-.27a1.18,1.18,0,0,0-.28-.92,1.62,1.62,0,0,0-1.16-.37,1.33,1.33,0,0,0-1.54,1.08.51.51,0,0,0,0,.13l-1-.14a2.69,2.69,0,0,1,.45-1.09,2,2,0,0,1,.9-.63,3.73,3.73,0,0,1,1.36-.22,3.34,3.34,0,0,1,1.25.19,1.58,1.58,0,0,1,.71.48,1.74,1.74,0,0,1,.32.72,8.34,8.34,0,0,1,0,1v1.42q0,.94.06,1.89a2.21,2.21,0,0,0,.25.75h-1A2.47,2.47,0,0,1,288.83,95.36ZM288.77,93a7.39,7.39,0,0,1-1.67.4,4,4,0,0,0-.89.22.8.8,0,0,0-.4.35.92.92,0,0,0-.15.51,1,1,0,0,0,.34.74,1.35,1.35,0,0,0,.91.28,2,2,0,0,0,1-.27,1.6,1.6,0,0,0,.67-.74,2.66,2.66,0,0,0,.17-1.08Z"/><path class="cls-13" d="M291.33,96.19v-6.3h.93v1a2.94,2.94,0,0,1,.63-.89,1.1,1.1,0,0,1,.65-.21,2,2,0,0,1,1,.34l-.36,1a1.44,1.44,0,0,0-.73-.21,1,1,0,0,0-.6.21,1.23,1.23,0,0,0-.37.58,4.43,4.43,0,0,0-.17,1.25v3.23Z"/><path class="cls-13" d="M295.41,98.56l-.14-1a2.08,2.08,0,0,0,.6.09,1.09,1.09,0,0,0,.56-.12.9.9,0,0,0,.34-.33,5.44,5.44,0,0,0,.32-.79l.09-.27-2.29-6.32H296l1.26,3.64c.16.46.31.94.44,1.45.11-.47.25-.94.41-1.41l1.27-3.68h1l-2.25,6.41a12.52,12.52,0,0,1-.57,1.43,2.26,2.26,0,0,1-.64.77,1.47,1.47,0,0,1-.84.24A1.92,1.92,0,0,1,295.41,98.56Z"/><path class="cls-13" d="M301.28,88.66V87.45h1v1.21Zm0,7.48v-6.3h1v6.35Z"/><path class="cls-13" d="M303.8,96.19v-6.3h.92v.89a2.09,2.09,0,0,1,1.9-1,2.32,2.32,0,0,1,1,.2,1.56,1.56,0,0,1,.68.54,2.07,2.07,0,0,1,.31.79,5.6,5.6,0,0,1,.06,1v3.87h-1V92.3a2.81,2.81,0,0,0-.12-1,1,1,0,0,0-.41-.52,1.23,1.23,0,0,0-.7-.19,1.57,1.57,0,0,0-1.1.44,2.19,2.19,0,0,0-.46,1.64v3.52Z"/><path class="cls-13" d="M310,96.66l1,.14a1,1,0,0,0,.34.71,1.51,1.51,0,0,0,1,.31,1.68,1.68,0,0,0,1.08-.3,1.47,1.47,0,0,0,.52-.83,8,8,0,0,0,.07-1.38,2.08,2.08,0,0,1-1.66.83,2.24,2.24,0,0,1-1.92-.94,3.64,3.64,0,0,1-.68-2.25,4.29,4.29,0,0,1,.31-1.66,2.62,2.62,0,0,1,.9-1.18,2.38,2.38,0,0,1,1.39-.41,2.1,2.1,0,0,1,1.75.92v-.78H315v5.44a5.49,5.49,0,0,1-.29,2.09,2.18,2.18,0,0,1-.9,1,3,3,0,0,1-1.52.35,2.72,2.72,0,0,1-1.72-.51A1.73,1.73,0,0,1,310,96.66Zm.83-3.78a2.83,2.83,0,0,0,.47,1.81,1.5,1.5,0,0,0,1.18.57,1.53,1.53,0,0,0,1.19-.57,2.8,2.8,0,0,0,.47-1.78,2.63,2.63,0,0,0-.49-1.74,1.49,1.49,0,0,0-1.18-.59,1.44,1.44,0,0,0-1.16.57,2.65,2.65,0,0,0-.44,1.73Z"/><path class="cls-13" d="M319.86,96.19v-6.3h.9v.88a2.41,2.41,0,0,1,.75-.74,2.19,2.19,0,0,1,2.16,0,1.57,1.57,0,0,1,.6.81,2.13,2.13,0,0,1,1.85-1.1,1.74,1.74,0,0,1,1.38.52,2.29,2.29,0,0,1,.48,1.6v4.32h-1v-4a2.86,2.86,0,0,0-.1-.92.91.91,0,0,0-.36-.46,1,1,0,0,0-.61-.17,1.36,1.36,0,0,0-1,.44,2,2,0,0,0-.42,1.42v3.69h-1V92.05a1.92,1.92,0,0,0-.24-1.07.92.92,0,0,0-.81-.36,1.4,1.4,0,0,0-1.32.93,4.19,4.19,0,0,0-.16,1.32v3.32Z"/><path class="cls-13" d="M333.41,96.19v-1a2.2,2.2,0,0,1-1.91,1.07,2.28,2.28,0,0,1-1-.22,1.77,1.77,0,0,1-.68-.53,2.07,2.07,0,0,1-.31-.79,5.61,5.61,0,0,1-.07-1v-3.9h1v3.49a6,6,0,0,0,.07,1.12,1.09,1.09,0,0,0,.4.66,1.23,1.23,0,0,0,.76.24,1.64,1.64,0,0,0,.86-.24,1.41,1.41,0,0,0,.56-.67,3.42,3.42,0,0,0,.17-1.23V89.84h1v6.29h-.9Z"/><path class="cls-13" d="M338.13,95.19l.14.94a3.32,3.32,0,0,1-.77.1,1.82,1.82,0,0,1-.86-.18,1,1,0,0,1-.42-.49,3.84,3.84,0,0,1-.13-1.26V90.67h-.75v-.83h.75V88.29l1-.64v2.19h1v.83h-1v3.67a1.94,1.94,0,0,0,.06.59.39.39,0,0,0,.17.21.62.62,0,0,0,.35.08Z"/><path class="cls-13" d="M343,95.36a3.68,3.68,0,0,1-1.08.71,3.09,3.09,0,0,1-1.12.21,2.13,2.13,0,0,1-1.53-.51,1.68,1.68,0,0,1-.53-1.3,1.89,1.89,0,0,1,.2-.84,1.77,1.77,0,0,1,.53-.62,2.73,2.73,0,0,1,.73-.35,6.93,6.93,0,0,1,.91-.16,8.55,8.55,0,0,0,1.81-.37v-.27a1.19,1.19,0,0,0-.29-.92,1.62,1.62,0,0,0-1.16-.37,1.7,1.7,0,0,0-1,.27,1.65,1.65,0,0,0-.51.94l-1-.14a2.75,2.75,0,0,1,.45-1.09,2,2,0,0,1,.9-.63,3.75,3.75,0,0,1,1.37-.22,3.34,3.34,0,0,1,1.25.19,1.58,1.58,0,0,1,.71.48,1.72,1.72,0,0,1,.31.72,5.59,5.59,0,0,1,.05,1v1.42a17.06,17.06,0,0,0,.07,1.89,2.53,2.53,0,0,0,.24.75h-1A2.55,2.55,0,0,1,343,95.36ZM343,93a7.39,7.39,0,0,1-1.67.4,4,4,0,0,0-.89.22.8.8,0,0,0-.4.35.92.92,0,0,0-.15.51,1,1,0,0,0,.31.72,1.35,1.35,0,0,0,.91.28,2,2,0,0,0,1-.27,1.6,1.6,0,0,0,.67-.74,2.66,2.66,0,0,0,.17-1.08Z"/><path class="cls-13" d="M347.73,95.19l.14.94a3.32,3.32,0,0,1-.77.1,1.67,1.67,0,0,1-.85-.18,1,1,0,0,1-.43-.49,4.13,4.13,0,0,1-.13-1.26V90.67h-.75v-.83h.75V88.29l1-.64v2.19h1v.83h-1v3.67a1.94,1.94,0,0,0,.06.59.39.39,0,0,0,.17.21.62.62,0,0,0,.35.08Z"/><path class="cls-13" d="M348.76,88.66V87.45h1v1.21Zm0,7.48v-6.3h1v6.35Z"/><path class="cls-13" d="M350.9,93a3.34,3.34,0,0,1,.92-2.59,2.69,2.69,0,0,1,1.89-.7,2.61,2.61,0,0,1,2,.85,3.34,3.34,0,0,1,.79,2.35,4.33,4.33,0,0,1-.35,1.91,2.38,2.38,0,0,1-1,1.08,2.81,2.81,0,0,1-1.44.39,2.61,2.61,0,0,1-2-.85A3.49,3.49,0,0,1,350.9,93Zm1,0a2.79,2.79,0,0,0,.5,1.81,1.63,1.63,0,0,0,2.29.24,1.36,1.36,0,0,0,.24-.24,2.9,2.9,0,0,0,.5-1.85,2.67,2.67,0,0,0-.43-1.76,1.62,1.62,0,0,0-2.28-.24,1.36,1.36,0,0,0-.24.24,2.84,2.84,0,0,0-.54,1.8Z"/><path class="cls-13" d="M357.7,96.19v-6.3h.93v.89a2.07,2.07,0,0,1,1.89-1,2.48,2.48,0,0,1,1,.2,1.54,1.54,0,0,1,.67.54,2.09,2.09,0,0,1,.32.79,6.7,6.7,0,0,1,.05,1v3.87h-1V92.3a2.81,2.81,0,0,0-.12-1,1,1,0,0,0-.41-.52,1.23,1.23,0,0,0-.7-.19,1.57,1.57,0,0,0-1.1.44,2.19,2.19,0,0,0-.46,1.64v3.52Z"/><path class="cls-13" d="M363.75,94.24l1-.14a1.52,1.52,0,0,0,.47,1,1.86,1.86,0,0,0,2.07,0,.9.9,0,0,0,.33-.7.65.65,0,0,0-.3-.57,4.42,4.42,0,0,0-1-.36,10.17,10.17,0,0,1-1.53-.51,1.51,1.51,0,0,1-.65-.6,1.67,1.67,0,0,1-.22-.84,1.74,1.74,0,0,1,.68-1.38,2.23,2.23,0,0,1,.64-.31,2.82,2.82,0,0,1,.87-.13,3,3,0,0,1,1.23.22,1.66,1.66,0,0,1,.78.58,2.35,2.35,0,0,1,.35,1l-1,.14a1.2,1.2,0,0,0-.39-.76,1.35,1.35,0,0,0-.91-.28,1.6,1.6,0,0,0-1,.24.74.74,0,0,0-.3.57.58.58,0,0,0,.13.38.88.88,0,0,0,.38.28l.89.28a11.42,11.42,0,0,1,1.5.49,1.58,1.58,0,0,1,.67.56,1.62,1.62,0,0,1,.24.91,1.88,1.88,0,0,1-.29,1,2,2,0,0,1-.85.73,3,3,0,0,1-1.26.25,2.73,2.73,0,0,1-1.77-.51A2.42,2.42,0,0,1,363.75,94.24Z"/><path class="cls-13" d="M243.15,84.78h-1V76.1h1v3.09a2,2,0,0,1,1.65-.84,2.44,2.44,0,0,1,1,.23,2.11,2.11,0,0,1,.82.66,3.35,3.35,0,0,1,.5,1,4.65,4.65,0,0,1,.18,1.28,3.81,3.81,0,0,1-.76,2.5,2.33,2.33,0,0,1-1.83.88A1.88,1.88,0,0,1,243,84v.78Zm0-3.19a3.27,3.27,0,0,0,.3,1.63,1.43,1.43,0,0,0,2.46.22,2.83,2.83,0,0,0,.48-1.81,2.93,2.93,0,0,0-.46-1.82,1.43,1.43,0,0,0-1.13-.59,1.45,1.45,0,0,0-1.16.61,2.71,2.71,0,0,0-.52,1.76Z"/><path class="cls-13" d="M252.58,84a3.76,3.76,0,0,1-1.09.72,3.09,3.09,0,0,1-1.12.21,2.12,2.12,0,0,1-1.52-.51,1.85,1.85,0,0,1-.33-2.14,1.73,1.73,0,0,1,.52-.62,3,3,0,0,1,.74-.35c.3-.07.6-.12.9-.16a9.31,9.31,0,0,0,1.82-.36v-.28a1.19,1.19,0,0,0-.29-.92,1.64,1.64,0,0,0-1.16-.37,1.81,1.81,0,0,0-1.06.27,1.7,1.7,0,0,0-.5.94l-1-.14a2.52,2.52,0,0,1,.45-1.08,2,2,0,0,1,.9-.64,3.75,3.75,0,0,1,1.37-.22,3.34,3.34,0,0,1,1.25.19,1.69,1.69,0,0,1,.7.48,1.74,1.74,0,0,1,.32.72,6.7,6.7,0,0,1,.05,1v1.45c0,.63,0,1.25.06,1.88a3,3,0,0,0,.25.76h-1A2.23,2.23,0,0,1,252.58,84Zm-.07-2.39a7.41,7.41,0,0,1-1.67.41,3.39,3.39,0,0,0-.84.17.91.91,0,0,0-.4.35,1,1,0,0,0-.14.51,1,1,0,0,0,.3.72,1.33,1.33,0,0,0,.9.28,2,2,0,0,0,1-.27,1.51,1.51,0,0,0,.67-.74A2.66,2.66,0,0,0,252.5,82Z"/><path class="cls-13" d="M254.69,82.89l1-.14a1.43,1.43,0,0,0,.47,1,1.53,1.53,0,0,0,1.07.34,1.5,1.5,0,0,0,1-.3.91.91,0,0,0,.34-.7.65.65,0,0,0-.3-.57,4.42,4.42,0,0,0-1-.36,8.11,8.11,0,0,1-1.53-.52,1.49,1.49,0,0,1-.65-.59,1.68,1.68,0,0,1-.22-.85,1.74,1.74,0,0,1,.68-1.38,2.11,2.11,0,0,1,.64-.31,3.49,3.49,0,0,1,2.1.09,1.8,1.8,0,0,1,.78.58,2.35,2.35,0,0,1,.35,1l-1,.14a1.2,1.2,0,0,0-.39-.76,1.35,1.35,0,0,0-.91-.28,1.6,1.6,0,0,0-1,.24.74.74,0,0,0-.3.57.65.65,0,0,0,.13.38.88.88,0,0,0,.38.28l.89.28a11.42,11.42,0,0,1,1.5.49,1.58,1.58,0,0,1,.67.56,1.67,1.67,0,0,1,.24.92,1.89,1.89,0,0,1-1.14,1.73,3.06,3.06,0,0,1-1.26.26,2.64,2.64,0,0,1-1.76-.52A2.4,2.4,0,0,1,254.69,82.89Z"/><path class="cls-13" d="M265,82.75l1,.14a2.54,2.54,0,0,1-2.64,2,2.73,2.73,0,0,1-2.09-.85,3.41,3.41,0,0,1-.77-2.39,3.6,3.6,0,0,1,.8-2.5,2.59,2.59,0,0,1,2-.87,2.48,2.48,0,0,1,2,.86,3.49,3.49,0,0,1,.77,2.43v.28h-4.49a2.39,2.39,0,0,0,.56,1.58,1.68,1.68,0,0,0,1.28.55,1.51,1.51,0,0,0,1-.31A2,2,0,0,0,265,82.75ZM261.58,81H265a2.16,2.16,0,0,0-.4-1.2,1.6,1.6,0,0,0-1.29-.62,1.62,1.62,0,0,0-1.21.5A2,2,0,0,0,261.58,81Z"/><path class="cls-13" d="M270.46,87.19v-8.7h.92v.81a2.18,2.18,0,0,1,.74-.71,2,2,0,0,1,1-.24,2.36,2.36,0,0,1,1.36.41,2.59,2.59,0,0,1,.89,1.17,4.48,4.48,0,0,1,.3,1.66,4.31,4.31,0,0,1-.33,1.74,2.58,2.58,0,0,1-1,1.19,2.42,2.42,0,0,1-1.33.41,1.92,1.92,0,0,1-.91-.23,2.1,2.1,0,0,1-.66-.56v3Zm.9-5.53a2.88,2.88,0,0,0,.47,1.8A1.43,1.43,0,0,0,273,84a1.46,1.46,0,0,0,1.17-.6,3,3,0,0,0,.48-1.87,3,3,0,0,0-.47-1.81,1.44,1.44,0,0,0-1.15-.57,1.48,1.48,0,0,0-1.15.64,2.93,2.93,0,0,0-.49,1.84Z"/><path class="cls-13" d="M280.84,84a4,4,0,0,1-1.09.72,3.09,3.09,0,0,1-1.12.21,2.12,2.12,0,0,1-1.52-.51,1.82,1.82,0,0,1-.33-2.14,1.73,1.73,0,0,1,.52-.62,2.64,2.64,0,0,1,.74-.35c.3-.07.6-.12.9-.16a9.31,9.31,0,0,0,1.82-.36v-.28a1.18,1.18,0,0,0-.28-.92,1.64,1.64,0,0,0-1.16-.37,1.81,1.81,0,0,0-1.06.27,1.7,1.7,0,0,0-.5.94l-1-.14a2.52,2.52,0,0,1,.45-1.08,1.87,1.87,0,0,1,.9-.64,3.73,3.73,0,0,1,1.36-.22,3.34,3.34,0,0,1,1.25.19,1.49,1.49,0,0,1,1,1.2,8.34,8.34,0,0,1,0,1v1.45c0,.63,0,1.25.06,1.88a2.27,2.27,0,0,0,.25.76h-1A2.34,2.34,0,0,1,280.84,84Zm-.07-2.39a7.41,7.41,0,0,1-1.67.41,3.49,3.49,0,0,0-.89.21.91.91,0,0,0-.4.35.92.92,0,0,0-.15.51.91.91,0,0,0,.31.72,1.33,1.33,0,0,0,.9.28,2,2,0,0,0,1.05-.27,1.51,1.51,0,0,0,.67-.74,2.66,2.66,0,0,0,.17-1.08Z"/><path class="cls-13" d="M283.38,77.3V76.1h1v1.2Zm0,7.48V78.49h1v6.29Z"/><path class="cls-13" d="M285.9,84.78V78.49h.92v1a2.7,2.7,0,0,1,.64-.89,1.1,1.1,0,0,1,.65-.21,1.79,1.79,0,0,1,1,.34l-.36,1a1.44,1.44,0,0,0-.73-.21.91.91,0,0,0-.59.21,1.12,1.12,0,0,0-.37.58,4,4,0,0,0-.17,1.24v3.29Z"/><path class="cls-13" d="M296.88,84a3.58,3.58,0,0,1-1.08.72,3.09,3.09,0,0,1-1.12.21,2.13,2.13,0,0,1-1.53-.51,1.76,1.76,0,0,1-.53-1.3,1.78,1.78,0,0,1,.73-1.46,2.73,2.73,0,0,1,.73-.35,7,7,0,0,1,.92-.12,9.36,9.36,0,0,0,1.81-.36v-.28a1.19,1.19,0,0,0-.29-.92,1.6,1.6,0,0,0-1.15-.37,1.81,1.81,0,0,0-1.06.27,1.58,1.58,0,0,0-.5.94l-1-.14a2.52,2.52,0,0,1,.45-1.08,1.89,1.89,0,0,1,.89-.64,3.75,3.75,0,0,1,1.37-.22,3.34,3.34,0,0,1,1.25.19,1.49,1.49,0,0,1,1,1.2,6.7,6.7,0,0,1,.05,1v1.41c0,.63,0,1.25.06,1.88a2.59,2.59,0,0,0,.24.76h-1A2.4,2.4,0,0,1,296.88,84Zm-.07-2.39a7.41,7.41,0,0,1-1.67.41,3.49,3.49,0,0,0-.89.21.91.91,0,0,0-.4.35,1,1,0,0,0-.14.51.91.91,0,0,0,.31.72,1.23,1.23,0,0,0,.9.28,2,2,0,0,0,1-.27,1.62,1.62,0,0,0,.68-.74,3,3,0,0,0,.16-1.08Z"/><path class="cls-13" d="M299.38,84.78V78.49h.92v.89a2.13,2.13,0,0,1,1.89-1,2.48,2.48,0,0,1,1,.2,1.56,1.56,0,0,1,.68.54,2.07,2.07,0,0,1,.31.79,5.6,5.6,0,0,1,.06,1v3.88h-1V81a2.81,2.81,0,0,0-.12-1,1.06,1.06,0,0,0-.41-.52,1.32,1.32,0,0,0-.7-.19,1.6,1.6,0,0,0-1.1.43,2.23,2.23,0,0,0-.46,1.65v3.47h-1.07Z"/><path class="cls-13" d="M305.8,84.78V78.49h.92v.89a2.09,2.09,0,0,1,1.9-1,2.48,2.48,0,0,1,1,.2,1.54,1.54,0,0,1,.67.54,2.09,2.09,0,0,1,.32.79,8.34,8.34,0,0,1,0,1v3.88h-1V81a2.81,2.81,0,0,0-.12-1,1,1,0,0,0-.41-.52,1.31,1.31,0,0,0-.69-.19,1.63,1.63,0,0,0-1.11.43,2.23,2.23,0,0,0-.46,1.65v3.47h-1Z"/><path class="cls-13" d="M311.85,81.64a3.31,3.31,0,0,1,.92-2.59,2.67,2.67,0,0,1,1.88-.7,2.61,2.61,0,0,1,2,.85,3.35,3.35,0,0,1,.78,2.35,4.32,4.32,0,0,1-.34,1.91,2.48,2.48,0,0,1-1,1.08,2.84,2.84,0,0,1-1.45.39,2.61,2.61,0,0,1-2-.85A3.49,3.49,0,0,1,311.85,81.64Zm1,0a2.8,2.8,0,0,0,.5,1.82,1.58,1.58,0,0,0,1.26.6,1.56,1.56,0,0,0,1.26-.61,2.81,2.81,0,0,0,.51-1.84,2.67,2.67,0,0,0-.51-1.77,1.61,1.61,0,0,0-2.52,0,2.84,2.84,0,0,0-.46,1.79Z"/><path class="cls-13" d="M320.88,83.84l.14.94a4,4,0,0,1-.77.1,1.6,1.6,0,0,1-.86-.19,1,1,0,0,1-.39-.5,4.46,4.46,0,0,1-.12-1.26V79.32h-.75v-.83h.75V76.93l1-.64v2.2h1v.83h-1V83a2.32,2.32,0,0,0,.05.59.46.46,0,0,0,.18.21.65.65,0,0,0,.34.07Z"/><path class="cls-13" d="M325.79,84a3.76,3.76,0,0,1-1.09.72,3.09,3.09,0,0,1-1.12.21,2.12,2.12,0,0,1-1.52-.51,1.85,1.85,0,0,1-.33-2.14,1.73,1.73,0,0,1,.52-.62,3,3,0,0,1,.74-.35c.3-.07.6-.12.9-.16a9.31,9.31,0,0,0,1.82-.36v-.28a1.19,1.19,0,0,0-.29-.92,1.64,1.64,0,0,0-1.16-.37,1.77,1.77,0,0,0-1,.27,1.65,1.65,0,0,0-.51.94l-1-.14a2.52,2.52,0,0,1,.45-1.08,2,2,0,0,1,.9-.64,3.75,3.75,0,0,1,1.37-.22,3.34,3.34,0,0,1,1.25.19,1.69,1.69,0,0,1,.7.48,1.51,1.51,0,0,1,.32.72,6.7,6.7,0,0,1,.05,1v1.45c0,.63,0,1.25.06,1.88a2.61,2.61,0,0,0,.25.76h-1A2.33,2.33,0,0,1,325.79,84Zm-.07-2.39a7.41,7.41,0,0,1-1.67.41,3.49,3.49,0,0,0-.89.21,1,1,0,0,0-.24,1.58,1.35,1.35,0,0,0,.91.28,2,2,0,0,0,1-.27,1.51,1.51,0,0,0,.67-.74,2.66,2.66,0,0,0,.17-1.08Z"/><path class="cls-13" d="M330.47,83.84l.14.94a3.86,3.86,0,0,1-.76.1,1.6,1.6,0,0,1-.86-.19,1.05,1.05,0,0,1-.43-.48,4.46,4.46,0,0,1-.12-1.26V79.32h-.76v-.83h.76V76.93l1-.64v2.2h1v.83h-1V83a2.32,2.32,0,0,0,.05.59.39.39,0,0,0,.17.21.71.71,0,0,0,.35.07Z"/><path class="cls-13" d="M331.51,77.3V76.1h1v1.2Zm0,7.48V78.49h1v6.29Z"/><path class="cls-13" d="M333.64,81.64a3.32,3.32,0,0,1,.93-2.59,2.67,2.67,0,0,1,1.88-.7,2.61,2.61,0,0,1,2,.85,3.35,3.35,0,0,1,.78,2.35,4.32,4.32,0,0,1-.34,1.91,2.48,2.48,0,0,1-1,1.08,2.84,2.84,0,0,1-1.45.39,2.61,2.61,0,0,1-2-.85A3.5,3.5,0,0,1,333.64,81.64Zm1.05,0a2.8,2.8,0,0,0,.5,1.82,1.62,1.62,0,0,0,1.26.6,1.56,1.56,0,0,0,1.26-.61,2.81,2.81,0,0,0,.51-1.84,2.67,2.67,0,0,0-.51-1.77,1.61,1.61,0,0,0-2.52,0,2.72,2.72,0,0,0-.5,1.79Z"/><path class="cls-13" d="M340.45,84.78V78.49h.92v.89a2.13,2.13,0,0,1,1.89-1,2.48,2.48,0,0,1,1,.2,1.56,1.56,0,0,1,.68.54,2.07,2.07,0,0,1,.31.79,5.6,5.6,0,0,1,.06,1v3.88h-1V81a2.81,2.81,0,0,0-.12-1,1.06,1.06,0,0,0-.41-.52,1.32,1.32,0,0,0-.7-.19,1.6,1.6,0,0,0-1.1.43,2.23,2.23,0,0,0-.46,1.65v3.47h-1.07Z"/><path class="cls-13" d="M346.49,82.89l1-.14a1.47,1.47,0,0,0,.47,1,1.62,1.62,0,0,0,1.08.34,1.5,1.5,0,0,0,1-.3.94.94,0,0,0,.34-.7.64.64,0,0,0-.31-.57,3.52,3.52,0,0,0-1-.36,8.11,8.11,0,0,1-1.53-.52,1.43,1.43,0,0,1-.65-.59,1.68,1.68,0,0,1-.22-.85,1.75,1.75,0,0,1,.18-.78,1.59,1.59,0,0,1,.49-.6,2.23,2.23,0,0,1,.64-.31,3.49,3.49,0,0,1,2.1.09,1.76,1.76,0,0,1,.79.58,2.53,2.53,0,0,1,.34,1l-1,.14a1.15,1.15,0,0,0-.39-.76,1.35,1.35,0,0,0-.91-.28,1.54,1.54,0,0,0-1,.24.74.74,0,0,0-.3.57.64.64,0,0,0,.12.38.83.83,0,0,0,.39.28L349,81a11.29,11.29,0,0,1,1.49.49,1.61,1.61,0,0,1,.68.56,1.67,1.67,0,0,1,.24.92,1.89,1.89,0,0,1-1.14,1.73A3.06,3.06,0,0,1,349,85a2.68,2.68,0,0,1-1.77-.52A2.47,2.47,0,0,1,346.49,82.89Z"/><path class="cls-13" d="M271.14,104.44l1,.15a2.78,2.78,0,0,1-.83,1.68,2.33,2.33,0,0,1-1.65.61,2.49,2.49,0,0,1-2-.84,3.53,3.53,0,0,1-.74-2.42,4.4,4.4,0,0,1,.32-1.79,2.19,2.19,0,0,1,1-1.14,2.74,2.74,0,0,1,1.42-.39,2.26,2.26,0,0,1,2.38,2l-1,.15a1.73,1.73,0,0,0-.49-1,1.22,1.22,0,0,0-.85-.32,1.53,1.53,0,0,0-1.24.58,2.93,2.93,0,0,0-.46,1.87,3,3,0,0,0,.46,1.84,1.47,1.47,0,0,0,1.2.58,1.42,1.42,0,0,0,1-.38A1.94,1.94,0,0,0,271.14,104.44Z"/><path class="cls-13" d="M272.57,103.59a3.32,3.32,0,0,1,.93-2.59,2.71,2.71,0,0,1,1.88-.7,2.66,2.66,0,0,1,2,.86,3.33,3.33,0,0,1,.78,2.35,4.33,4.33,0,0,1-.35,1.91,2.54,2.54,0,0,1-1,1.08,2.83,2.83,0,0,1-1.45.38,2.6,2.6,0,0,1-2-.84A3.51,3.51,0,0,1,272.57,103.59Zm1,0a2.72,2.72,0,0,0,.51,1.81,1.61,1.61,0,0,0,2.26.26,2.13,2.13,0,0,0,.26-.26,2.81,2.81,0,0,0,.5-1.84,2.76,2.76,0,0,0-.5-1.78,1.62,1.62,0,0,0-2.28-.24,1.36,1.36,0,0,0-.24.24,2.77,2.77,0,0,0-.47,1.81Z"/><path class="cls-13" d="M279.38,106.74v-6.3h.9v.89a2.24,2.24,0,0,1,.75-.75,2.08,2.08,0,0,1,1.06-.28,2,2,0,0,1,1.1.29,1.62,1.62,0,0,1,.6.81,2.13,2.13,0,0,1,1.85-1.1,1.83,1.83,0,0,1,1.38.52,2.29,2.29,0,0,1,.48,1.6v4.32h-1v-4a2.86,2.86,0,0,0-.1-.92.81.81,0,0,0-.36-.45,1,1,0,0,0-.6-.18,1.36,1.36,0,0,0-1.05.45,2,2,0,0,0-.42,1.41v3.66h-1v-4.06a2,2,0,0,0-.24-1.07,1,1,0,0,0-.81-.35,1.48,1.48,0,0,0-.79.23,1.29,1.29,0,0,0-.53.7,3.92,3.92,0,0,0-.16,1.32v3.26Z"/><path class="cls-13" d="M289,109.19v-8.75h.93v.82a2.31,2.31,0,0,1,.74-.72,2,2,0,0,1,1-.24,2.25,2.25,0,0,1,1.35.42,2.46,2.46,0,0,1,.89,1.17,4.46,4.46,0,0,1,.3,1.65,4.31,4.31,0,0,1-.33,1.74,2.58,2.58,0,0,1-1,1.19,2.39,2.39,0,0,1-1.32.41,1.8,1.8,0,0,1-.91-.22,2.17,2.17,0,0,1-.67-.57v3.1Zm.9-5.53a2.8,2.8,0,0,0,.48,1.8,1.4,1.4,0,0,0,1.14.59,1.43,1.43,0,0,0,1.16-.61,2.92,2.92,0,0,0,.49-1.86,2.89,2.89,0,0,0-.47-1.81,1.37,1.37,0,0,0-1.9-.39,1.32,1.32,0,0,0-.39.39,2.86,2.86,0,0,0-.54,1.85Z"/><path class="cls-13" d="M299.35,106a3.55,3.55,0,0,1-1.08.71,3.1,3.1,0,0,1-1.13.21,2.12,2.12,0,0,1-1.52-.51,1.74,1.74,0,0,1-.53-1.29,1.9,1.9,0,0,1,.2-.85,1.73,1.73,0,0,1,.53-.61,2.24,2.24,0,0,1,.73-.35,5.59,5.59,0,0,1,.91-.16,10.2,10.2,0,0,0,1.81-.37v-.28a1.23,1.23,0,0,0-.29-.92,1.64,1.64,0,0,0-1.15-.36,1.73,1.73,0,0,0-1.06.26,1.65,1.65,0,0,0-.51.94l-1-.14a2.64,2.64,0,0,1,.44-1,2,2,0,0,1,.9-.64,3.75,3.75,0,0,1,1.37-.22,3.55,3.55,0,0,1,1.25.19,1.46,1.46,0,0,1,1,1.2,6.7,6.7,0,0,1,.05,1v1.43a16.88,16.88,0,0,0,.07,1.88,2.53,2.53,0,0,0,.24.75h-1A2.17,2.17,0,0,1,299.35,106Zm-.07-2.39a7.41,7.41,0,0,1-1.67.41,3.49,3.49,0,0,0-.89.21.91.91,0,0,0-.4.35.84.84,0,0,0-.14.51,1,1,0,0,0,.3.72,1.33,1.33,0,0,0,.9.28,2,2,0,0,0,1.05-.26,1.58,1.58,0,0,0,.67-.75,2.61,2.61,0,0,0,.17-1.07Z"/><path class="cls-13" d="M304,105.8l.14.94a4,4,0,0,1-.77.1,1.72,1.72,0,0,1-.86-.19,1,1,0,0,1-.42-.48,4.16,4.16,0,0,1-.13-1.27v-3.63h-.75v-.82H302V98.89l1-.64v2.2h1v.82h-1V105a1.91,1.91,0,0,0,.06.58.39.39,0,0,0,.17.21.62.62,0,0,0,.35.08Z"/><path class="cls-13" d="M305.07,99.26V98.05h1v1.21Zm0,7.48v-6.3h1v6.3Z"/><path class="cls-13" d="M308.51,106.74h-.95V98.05h1v3.14a2,2,0,0,1,1.65-.85,2.45,2.45,0,0,1,1,.24,2.14,2.14,0,0,1,.81.65,3.35,3.35,0,0,1,.5,1,4.6,4.6,0,0,1,.18,1.28,3.81,3.81,0,0,1-.76,2.5,2.33,2.33,0,0,1-1.83.88,1.91,1.91,0,0,1-1.67-.93v.79Zm0-3.2a3.42,3.42,0,0,0,.29,1.64,1.43,1.43,0,0,0,2.46.22,3.67,3.67,0,0,0,0-3.63,1.38,1.38,0,0,0-1.13-.59,1.43,1.43,0,0,0-1.16.61,2.78,2.78,0,0,0-.48,1.75Z"/><path class="cls-13" d="M314,106.74V98.05h1v8.69Z"/><path class="cls-13" d="M320.73,104.7l1,.15a2.81,2.81,0,0,1-3.49,1.92A2.77,2.77,0,0,1,317,106a3.38,3.38,0,0,1-.77-2.38,3.59,3.59,0,0,1,.77-2.46,2.56,2.56,0,0,1,2-.88,2.51,2.51,0,0,1,2,.86,3.6,3.6,0,0,1,.76,2.43v.29h-4.49a2.35,2.35,0,0,0,.57,1.58,1.66,1.66,0,0,0,1.27.55,1.63,1.63,0,0,0,1-.31A2.05,2.05,0,0,0,320.73,104.7Zm-3.42-1.7h3.43a2.15,2.15,0,0,0-.39-1.2,1.68,1.68,0,0,0-2.5-.12A2,2,0,0,0,317.31,103Z"/><path class="cls-13" d="M326.21,106.74v-6.3h.9v.89a2.24,2.24,0,0,1,.75-.75,2.11,2.11,0,0,1,1.07-.28,1.85,1.85,0,0,1,1.09.29,1.48,1.48,0,0,1,.6.81,2.17,2.17,0,0,1,1.86-1.1,1.83,1.83,0,0,1,1.38.52,2.37,2.37,0,0,1,.48,1.6v4.32h-1v-4a3.17,3.17,0,0,0-.1-.92.89.89,0,0,0-.36-.45,1,1,0,0,0-.61-.18,1.36,1.36,0,0,0-1,.45,2,2,0,0,0-.41,1.41v3.66h-1v-4.06a1.83,1.83,0,0,0-.25-1.07.89.89,0,0,0-.8-.35,1.52,1.52,0,0,0-.8.23,1.3,1.3,0,0,0-.52.7,3.92,3.92,0,0,0-.16,1.32v3.26h-1.07Z"/><path class="cls-13" d="M339.76,106.74v-.93a2.17,2.17,0,0,1-1.9,1.07,2.46,2.46,0,0,1-1-.21,1.56,1.56,0,0,1-.68-.54,2.09,2.09,0,0,1-.32-.79,5.6,5.6,0,0,1-.06-1v-3.9h1v3.49a7.07,7.07,0,0,0,.06,1.13,1.1,1.1,0,0,0,.41.66,1.29,1.29,0,0,0,.76.24,1.59,1.59,0,0,0,.85-.25,1.34,1.34,0,0,0,.57-.67,3.42,3.42,0,0,0,.16-1.23v-3.37h1v6.3Z"/><path class="cls-13" d="M344.48,105.8l.14.94a3.86,3.86,0,0,1-.76.1,1.7,1.7,0,0,1-.86-.19,1.05,1.05,0,0,1-.43-.48,4.19,4.19,0,0,1-.12-1.27v-3.63h-.76v-.82h.76V98.89l1-.64v2.2h1v.82h-1V105a1.88,1.88,0,0,0,0,.58.39.39,0,0,0,.17.21.62.62,0,0,0,.35.08Z"/><path class="cls-13" d="M349.39,106a3.55,3.55,0,0,1-1.08.71,3.09,3.09,0,0,1-1.12.21,2.12,2.12,0,0,1-1.52-.51,1.66,1.66,0,0,1-.54-1.29,1.9,1.9,0,0,1,.2-.85,1.83,1.83,0,0,1,.53-.61,2.24,2.24,0,0,1,.73-.35,5.59,5.59,0,0,1,.91-.16,10.13,10.13,0,0,0,1.82-.37v-.28a1.18,1.18,0,0,0-.28-.92,1.68,1.68,0,0,0-1.16-.36,1.73,1.73,0,0,0-1.06.26,1.64,1.64,0,0,0-.5.94l-1-.14a2.52,2.52,0,0,1,.45-1.08,2,2,0,0,1,.9-.64,3.73,3.73,0,0,1,1.36-.22,3.55,3.55,0,0,1,1.25.19,1.49,1.49,0,0,1,1,1.2,8.34,8.34,0,0,1,0,1v1.43c0,.63,0,1.25.06,1.88a2.21,2.21,0,0,0,.25.75h-1A2.42,2.42,0,0,1,349.39,106Zm-.07-2.39a7.33,7.33,0,0,1-1.66.41,3.49,3.49,0,0,0-.89.21.8.8,0,0,0-.4.35.92.92,0,0,0-.15.51.91.91,0,0,0,.31.72,1.33,1.33,0,0,0,.9.28,2,2,0,0,0,1.05-.26,1.58,1.58,0,0,0,.67-.75,2.61,2.61,0,0,0,.17-1.07Z"/><path class="cls-13" d="M354.08,105.8l.14.94a3.86,3.86,0,0,1-.76.1,1.7,1.7,0,0,1-.86-.19,1.05,1.05,0,0,1-.43-.48,4.19,4.19,0,0,1-.12-1.27v-3.63h-.76v-.82h.76V98.89l1-.64v2.2h1v.82h-1V105a1.63,1.63,0,0,0,.05.58.39.39,0,0,0,.17.21.62.62,0,0,0,.35.08Z"/><path class="cls-13" d="M355.11,99.26V98.05h1v1.21Zm0,7.48v-6.3h1v6.3Z"/><path class="cls-13" d="M357.25,103.59a3.32,3.32,0,0,1,.93-2.59,2.71,2.71,0,0,1,1.88-.7,2.66,2.66,0,0,1,2,.86,3.33,3.33,0,0,1,.78,2.35,4.33,4.33,0,0,1-.35,1.91,2.54,2.54,0,0,1-1,1.08,2.83,2.83,0,0,1-1.45.38,2.6,2.6,0,0,1-2-.84A3.51,3.51,0,0,1,357.25,103.59Zm1.05,0a2.73,2.73,0,0,0,.5,1.81,1.61,1.61,0,0,0,2.26.26,2.13,2.13,0,0,0,.26-.26,2.87,2.87,0,0,0,.5-1.84,2.76,2.76,0,0,0-.5-1.78,1.62,1.62,0,0,0-2.28-.24,1.36,1.36,0,0,0-.24.24A2.72,2.72,0,0,0,358.3,103.59Z"/><path class="cls-13" d="M364.06,106.74v-6.3H365v.9a2.13,2.13,0,0,1,1.89-1,2.3,2.3,0,0,1,1,.21,1.54,1.54,0,0,1,.68.53,2.07,2.07,0,0,1,.31.79,5.6,5.6,0,0,1,.06,1v3.87h-1v-3.83a2.81,2.81,0,0,0-.12-1,1,1,0,0,0-.41-.51,1.24,1.24,0,0,0-.7-.2,1.51,1.51,0,0,0-1.1.44,2.2,2.2,0,0,0-.47,1.64v3.44Z"/><path class="cls-13" d="M370.1,104.85l1-.15a1.57,1.57,0,0,0,.47,1,1.62,1.62,0,0,0,1.08.34,1.56,1.56,0,0,0,1-.3A1,1,0,0,0,374,105a.64.64,0,0,0-.31-.57,4.42,4.42,0,0,0-1-.36,9.16,9.16,0,0,1-1.53-.51,1.51,1.51,0,0,1-.65-.6,1.55,1.55,0,0,1-.22-.84,1.75,1.75,0,0,1,.18-.78,1.81,1.81,0,0,1,.5-.6,2.23,2.23,0,0,1,.64-.31,2.87,2.87,0,0,1,.87-.13,3.23,3.23,0,0,1,1.23.22,1.66,1.66,0,0,1,.78.58,2.35,2.35,0,0,1,.35,1l-1,.14a1.17,1.17,0,0,0-.39-.76,1.35,1.35,0,0,0-.91-.28,1.48,1.48,0,0,0-1,.25.73.73,0,0,0-.29.56.64.64,0,0,0,.12.38.88.88,0,0,0,.38.28l.89.28a11.42,11.42,0,0,1,1.5.49,1.58,1.58,0,0,1,.67.56,1.62,1.62,0,0,1,.25.91,1.89,1.89,0,0,1-.3,1,1.83,1.83,0,0,1-.85.73,3.15,3.15,0,0,1-1.25.26,2.63,2.63,0,0,1-1.77-.52A2.47,2.47,0,0,1,370.1,104.85Z"/><path class="cls-13" d="M267.23,117.34v-6.29h.93v.89a2.07,2.07,0,0,1,1.89-1,2.3,2.3,0,0,1,1,.21,1.56,1.56,0,0,1,.68.54,2.2,2.2,0,0,1,.31.78,8.39,8.39,0,0,1,.06,1v3.87h-1v-3.83a2.6,2.6,0,0,0-.13-1,1,1,0,0,0-.41-.52,1.23,1.23,0,0,0-.7-.19,1.56,1.56,0,0,0-1.1.43,2.24,2.24,0,0,0-.46,1.64v3.44Z"/><path class="cls-13" d="M273.28,114.19a3.38,3.38,0,0,1,.92-2.59,2.75,2.75,0,0,1,1.89-.69,2.61,2.61,0,0,1,2,.85,3.35,3.35,0,0,1,.78,2.35,4.33,4.33,0,0,1-.35,1.91,2.6,2.6,0,0,1-1,1.08,2.81,2.81,0,0,1-1.44.39,2.7,2.7,0,0,1-2-.85A3.52,3.52,0,0,1,273.28,114.19Zm1,0a2.8,2.8,0,0,0,.5,1.82,1.61,1.61,0,0,0,1.27.6,1.59,1.59,0,0,0,1.26-.61,2.87,2.87,0,0,0,.5-1.84,2.74,2.74,0,0,0-.51-1.78,1.56,1.56,0,0,0-1.25-.6,1.58,1.58,0,0,0-1.27.6,2.76,2.76,0,0,0-.46,1.81Z"/><path class="cls-13" d="M283.29,117.34v-6.29h.9v.88a2.21,2.21,0,0,1,.75-.74,2,2,0,0,1,1.07-.28,1.83,1.83,0,0,1,1.09.29,1.57,1.57,0,0,1,.6.81,2.17,2.17,0,0,1,1.86-1.1,1.72,1.72,0,0,1,1.37.52,2.23,2.23,0,0,1,.48,1.59v4.32h-1v-4a3.63,3.63,0,0,0-.09-.93A1,1,0,0,0,290,112a1.17,1.17,0,0,0-.61-.17,1.38,1.38,0,0,0-1.05.44,2,2,0,0,0-.41,1.41v3.67h-1v-4.1a1.92,1.92,0,0,0-.29-1,.92.92,0,0,0-.81-.36,1.39,1.39,0,0,0-.79.24,1.37,1.37,0,0,0-.52.69,3.93,3.93,0,0,0-.17,1.32v3.27h-1Z"/><path class="cls-13" d="M296.84,117.34v-.93a2.13,2.13,0,0,1-1.9,1.07,2.46,2.46,0,0,1-1-.21,1.56,1.56,0,0,1-.68-.54,2.09,2.09,0,0,1-.32-.79,5.6,5.6,0,0,1-.06-1V111h1v3.49a7.07,7.07,0,0,0,.06,1.13,1.1,1.1,0,0,0,.41.66,1.23,1.23,0,0,0,.76.24,1.59,1.59,0,0,0,.85-.25,1.34,1.34,0,0,0,.57-.67,3.42,3.42,0,0,0,.16-1.23V111h1v6.3Z"/><path class="cls-13" d="M301.56,116.4l.15.94a3.32,3.32,0,0,1-.77.1,1.6,1.6,0,0,1-.86-.19,1.05,1.05,0,0,1-.43-.48,4.46,4.46,0,0,1-.12-1.26v-3.63h-.76v-.83h.76v-1.56l1-.64v2.2h1v.83h-1v3.67a2.32,2.32,0,0,0,.05.59.6.6,0,0,0,.18.21.65.65,0,0,0,.34.07Z"/><path class="cls-13" d="M306.47,116.56a3.58,3.58,0,0,1-1.08.72,3.09,3.09,0,0,1-1.12.21,2.16,2.16,0,0,1-1.52-.51,1.82,1.82,0,0,1-.33-2.14,1.73,1.73,0,0,1,.52-.62,2.64,2.64,0,0,1,.74-.35c.3-.07.6-.12.9-.16a8.65,8.65,0,0,0,1.82-.37v-.28a1.28,1.28,0,0,0-.28-.92,1.68,1.68,0,0,0-1.16-.36,1.72,1.72,0,0,0-1.06.27,1.7,1.7,0,0,0-.5.94l-1-.14a2.69,2.69,0,0,1,.45-1.09,2,2,0,0,1,.9-.63,4.34,4.34,0,0,1,2.62,0,1.51,1.51,0,0,1,1,1.21,6.7,6.7,0,0,1,.05,1v1.43c0,.63,0,1.25.06,1.88a2.21,2.21,0,0,0,.25.75h-1A2.28,2.28,0,0,1,306.47,116.56Zm-.06-2.37a7.41,7.41,0,0,1-1.67.41,3.49,3.49,0,0,0-.89.21.91.91,0,0,0-.55.86.91.91,0,0,0,.31.72,1.27,1.27,0,0,0,.9.29,2,2,0,0,0,1.05-.27,1.6,1.6,0,0,0,.67-.74,2.84,2.84,0,0,0,.16-1.08Z"/><path class="cls-13" d="M311.16,116.4l.14.94a3.23,3.23,0,0,1-.76.1,1.6,1.6,0,0,1-.86-.19,1.05,1.05,0,0,1-.43-.48,4.46,4.46,0,0,1-.12-1.26v-3.63h-.76v-.83h.76v-1.56l1-.64v2.2h1v.83h-1v3.67a2.32,2.32,0,0,0,.05.59.68.68,0,0,0,.17.21.71.71,0,0,0,.35.07Z"/><path class="cls-13" d="M312.19,109.86v-1.2h1v1.2Zm0,7.48v-6.29h1v6.29Z"/><path class="cls-13" d="M314.33,114.19a3.32,3.32,0,0,1,.93-2.59,2.72,2.72,0,0,1,1.88-.69,2.61,2.61,0,0,1,2,.85,3.35,3.35,0,0,1,.78,2.35,4.33,4.33,0,0,1-.35,1.91,2.54,2.54,0,0,1-1,1.08,2.81,2.81,0,0,1-1.44.39,2.61,2.61,0,0,1-2-.85A3.52,3.52,0,0,1,314.33,114.19Zm1,0a2.75,2.75,0,0,0,.51,1.82,1.61,1.61,0,0,0,2.52,0,2.81,2.81,0,0,0,.5-1.84,2.71,2.71,0,0,0-.5-1.78,1.59,1.59,0,0,0-1.26-.6,1.55,1.55,0,0,0-1.26.6,2.77,2.77,0,0,0-.47,1.81Z"/><path class="cls-13" d="M321.13,117.34v-6.29h.93v.89a2.07,2.07,0,0,1,1.89-1,2.3,2.3,0,0,1,1,.21,1.56,1.56,0,0,1,.68.54,2,2,0,0,1,.31.78,5.6,5.6,0,0,1,.06,1v3.87h-1v-3.83a2.81,2.81,0,0,0-.12-1,1.06,1.06,0,0,0-.41-.52,1.23,1.23,0,0,0-.7-.19,1.5,1.5,0,0,0-1.1.43,2.2,2.2,0,0,0-.47,1.64v3.44Z"/><path class="cls-13" d="M327.18,115.45l1-.14a1.47,1.47,0,0,0,.47,1,1.85,1.85,0,0,0,2.08,0,.91.91,0,0,0,.34-.7.64.64,0,0,0-.31-.57,4,4,0,0,0-1-.37,8.08,8.08,0,0,1-1.53-.51,1.51,1.51,0,0,1-.65-.6,1.77,1.77,0,0,1-.21-.84,1.63,1.63,0,0,1,.67-1.38,2.23,2.23,0,0,1,.64-.31,2.87,2.87,0,0,1,.87-.13,3.23,3.23,0,0,1,1.23.22,1.69,1.69,0,0,1,.79.58,2.38,2.38,0,0,1,.34,1l-1,.14a1.17,1.17,0,0,0-.39-.76,1.35,1.35,0,0,0-.91-.28,1.48,1.48,0,0,0-1,.25.7.7,0,0,0-.29.57.63.63,0,0,0,.12.37.83.83,0,0,0,.39.28l.89.28a10.82,10.82,0,0,1,1.49.49,1.48,1.48,0,0,1,.92,1.47,1.71,1.71,0,0,1-1.13,1.64,3.06,3.06,0,0,1-1.26.26,2.74,2.74,0,0,1-1.77-.52A2.43,2.43,0,0,1,327.18,115.45Z"/><path class="cls-13" d="M266.86,128.06a3.31,3.31,0,0,1,.92-2.59,2.67,2.67,0,0,1,1.88-.7,2.61,2.61,0,0,1,2,.85,3.34,3.34,0,0,1,.79,2.35,4.33,4.33,0,0,1-.35,1.91,2.54,2.54,0,0,1-1,1.08,2.84,2.84,0,0,1-1.45.39,2.61,2.61,0,0,1-2-.85A3.49,3.49,0,0,1,266.86,128.06Zm1,0a2.74,2.74,0,0,0,.5,1.82,1.62,1.62,0,0,0,2.28.24,1.36,1.36,0,0,0,.24-.24,2.89,2.89,0,0,0,.51-1.85,2.67,2.67,0,0,0-.51-1.77,1.61,1.61,0,0,0-2.52,0,2.7,2.7,0,0,0-.46,1.79Z"/><path class="cls-13" d="M274.58,131.19h-.95v-8.68h1v3.09a2,2,0,0,1,1.65-.84,2.27,2.27,0,0,1,1.05.23,2.17,2.17,0,0,1,.81.66,3.35,3.35,0,0,1,.5,1,4.65,4.65,0,0,1,.18,1.28,3.68,3.68,0,0,1-.76,2.5,2.34,2.34,0,0,1-1.83.89,1.91,1.91,0,0,1-1.67-.93v.8Zm0-3.19a3.42,3.42,0,0,0,.29,1.64,1.44,1.44,0,0,0,1.91.68,1.47,1.47,0,0,0,.55-.47,2.9,2.9,0,0,0,.49-1.81,2.93,2.93,0,0,0-.47-1.82,1.38,1.38,0,0,0-1.13-.59,1.48,1.48,0,0,0-1.16.61,2.8,2.8,0,0,0-.5,1.77Z"/><path class="cls-13" d="M279.7,129.31l1-.14a1.46,1.46,0,0,0,.46,1,1.62,1.62,0,0,0,1.08.34,1.56,1.56,0,0,0,1-.3.91.91,0,0,0,.34-.7.64.64,0,0,0-.31-.57,3.52,3.52,0,0,0-1-.36,8.11,8.11,0,0,1-1.53-.52,1.49,1.49,0,0,1-.65-.59,1.68,1.68,0,0,1-.22-.85,1.75,1.75,0,0,1,.18-.78,1.56,1.56,0,0,1,.49-.59,1.9,1.9,0,0,1,.64-.31,2.61,2.61,0,0,1,.88-.13,3.17,3.17,0,0,1,1.22.21,1.76,1.76,0,0,1,.79.58,2.35,2.35,0,0,1,.35,1l-1,.14A1.2,1.2,0,0,0,283,126a1.33,1.33,0,0,0-.9-.27,1.54,1.54,0,0,0-1,.24.68.68,0,0,0-.3.57.63.63,0,0,0,.12.37.81.81,0,0,0,.39.29l.89.27a10.86,10.86,0,0,1,1.49.5,1.46,1.46,0,0,1,.67.56,1.55,1.55,0,0,1,.25.91,1.88,1.88,0,0,1-1.14,1.73,3.06,3.06,0,0,1-1.26.26,2.73,2.73,0,0,1-1.77-.51A2.46,2.46,0,0,1,279.7,129.31Z"/><path class="cls-13" d="M290,129.19l1,.14a2.82,2.82,0,0,1-3.49,1.93,2.77,2.77,0,0,1-1.24-.74,3.41,3.41,0,0,1-.77-2.39,3.53,3.53,0,0,1,.78-2.46,2.73,2.73,0,0,1,4,0,3.5,3.5,0,0,1,.76,2.43v.28h-4.49a2.39,2.39,0,0,0,.56,1.58,1.68,1.68,0,0,0,1.28.55,1.51,1.51,0,0,0,1-.31A2.18,2.18,0,0,0,290,129.19Zm-3.42-1.7H290a2.1,2.1,0,0,0-.39-1.21,1.6,1.6,0,0,0-1.29-.62,1.62,1.62,0,0,0-1.21.5,2,2,0,0,0-.52,1.31Z"/><path class="cls-13" d="M292.28,131.19V124.9h.92v1a2.7,2.7,0,0,1,.64-.89,1.1,1.1,0,0,1,.65-.21,1.88,1.88,0,0,1,1,.34l-.36,1a1.48,1.48,0,0,0-.74-.21,1,1,0,0,0-.59.21,1.12,1.12,0,0,0-.37.58,4.7,4.7,0,0,0-.17,1.24v3.23Z"/><path class="cls-13" d="M298.06,131.19l-2.26-6.29h1.09l1.28,3.77c.14.41.27.83.39,1.27.09-.33.22-.73.38-1.2l1.33-3.84h1l-2.22,6.29Z"/><path class="cls-13" d="M306.23,129.19l1,.14a2.82,2.82,0,0,1-3.49,1.93,2.77,2.77,0,0,1-1.24-.74,3.41,3.41,0,0,1-.77-2.39,3.53,3.53,0,0,1,.78-2.46,2.73,2.73,0,0,1,4,0,3.5,3.5,0,0,1,.76,2.43v.28h-4.49a2.39,2.39,0,0,0,.56,1.58,1.68,1.68,0,0,0,1.28.55,1.51,1.51,0,0,0,1-.31A2.18,2.18,0,0,0,306.23,129.19Zm-3.42-1.7h3.44a2.21,2.21,0,0,0-.4-1.21,1.6,1.6,0,0,0-1.29-.62,1.62,1.62,0,0,0-1.21.5,2,2,0,0,0-.54,1.31Z"/><path class="cls-13" d="M312.38,131.19v-.79a1.82,1.82,0,0,1-1.67.94,2.3,2.3,0,0,1-1.32-.42,2.67,2.67,0,0,1-.94-1.16,4.17,4.17,0,0,1-.33-1.71,4.57,4.57,0,0,1,.3-1.71,2.46,2.46,0,0,1,.9-1.18,2.29,2.29,0,0,1,1.34-.4,1.84,1.84,0,0,1,1,.23,2,2,0,0,1,.69.62v-3.1h1v8.68Zm-3.22-3.14a2.84,2.84,0,0,0,.49,1.81,1.45,1.45,0,0,0,1.15.6,1.42,1.42,0,0,0,1.14-.57,2.71,2.71,0,0,0,.46-1.75,3.09,3.09,0,0,0-.47-1.9,1.45,1.45,0,0,0-1.18-.61,1.38,1.38,0,0,0-1.13.59,2.84,2.84,0,0,0-.46,1.84Z"/><path class="cls-7" d="M285.52,297.59l-2.26-6.3h1.09l1.28,3.77c.14.41.27.83.39,1.27.09-.33.21-.73.37-1.2l1.34-3.84h1l-2.26,6.3Z"/><path class="cls-7" d="M293.43,296.81a3.68,3.68,0,0,1-1.08.71,3.1,3.1,0,0,1-1.13.21,2.12,2.12,0,0,1-1.52-.51,1.68,1.68,0,0,1-.53-1.29,1.9,1.9,0,0,1,.2-.85,1.7,1.7,0,0,1,.52-.61,2.29,2.29,0,0,1,.74-.35,5.67,5.67,0,0,1,.9-.16,8.06,8.06,0,0,0,1.82-.37v-.28a1.23,1.23,0,0,0-.29-.92,1.68,1.68,0,0,0-1.16-.36,1.72,1.72,0,0,0-1.06.27,1.7,1.7,0,0,0-.5.94l-1-.14a2.69,2.69,0,0,1,.45-1.09,2,2,0,0,1,.9-.63,3.75,3.75,0,0,1,1.37-.22,3.34,3.34,0,0,1,1.25.19,1.58,1.58,0,0,1,.7.47,1.51,1.51,0,0,1,.32.73,6.7,6.7,0,0,1,.05,1V295a13.08,13.08,0,0,0,.07,1.88,2.53,2.53,0,0,0,.24.75h-1A2.28,2.28,0,0,1,293.43,296.81Zm-.07-2.39a8,8,0,0,1-1.67.4,4,4,0,0,0-.89.22.91.91,0,0,0-.4.35.84.84,0,0,0-.14.51,1,1,0,0,0,.3.72,1.35,1.35,0,0,0,.91.28,2,2,0,0,0,1-.27,1.62,1.62,0,0,0,.68-.74,2.84,2.84,0,0,0,.16-1.08Z"/><path class="cls-7" d="M295.93,297.59v-6.3h.92v1a2.74,2.74,0,0,1,.64-.9,1.1,1.1,0,0,1,.65-.21,1.89,1.89,0,0,1,1,.35l-.36,1a1.55,1.55,0,0,0-.73-.21.91.91,0,0,0-.59.21,1.15,1.15,0,0,0-.37.59,4,4,0,0,0-.17,1.24v3.29Z"/><path class="cls-7" d="M299.87,290.11V288.9h1v1.21Zm0,7.48v-6.3h1v6.3Z"/><path class="cls-7" d="M306.31,296.81a3.68,3.68,0,0,1-1.08.71,3.09,3.09,0,0,1-1.12.21,2.13,2.13,0,0,1-1.53-.51,1.75,1.75,0,0,1-.53-1.29,1.9,1.9,0,0,1,.2-.85,1.73,1.73,0,0,1,.53-.61,2.24,2.24,0,0,1,.73-.35,5.59,5.59,0,0,1,.91-.16,8.55,8.55,0,0,0,1.81-.37v-.28a1.23,1.23,0,0,0-.29-.92,1.64,1.64,0,0,0-1.15-.36,1.72,1.72,0,0,0-1.06.27,1.65,1.65,0,0,0-.51.94l-1-.14a2.56,2.56,0,0,1,.45-1.09,1.94,1.94,0,0,1,.89-.63,3.75,3.75,0,0,1,1.37-.22,3.34,3.34,0,0,1,1.25.19,1.45,1.45,0,0,1,1,1.2,5.59,5.59,0,0,1,.05,1V295a16.88,16.88,0,0,0,.07,1.88,2.53,2.53,0,0,0,.24.75h-1A2.45,2.45,0,0,1,306.31,296.81Zm-.07-2.39a8,8,0,0,1-1.67.4,4,4,0,0,0-.89.22.91.91,0,0,0-.4.35,1,1,0,0,0-.14.51,1,1,0,0,0,.31.72,1.33,1.33,0,0,0,.9.28,2,2,0,0,0,1-.27,1.62,1.62,0,0,0,.68-.74,2.84,2.84,0,0,0,.16-1.08Z"/><path class="cls-7" d="M309.73,297.59h-.94V288.9h1V292a2,2,0,0,1,1.65-.85,2.55,2.55,0,0,1,1.05.23,2.17,2.17,0,0,1,.81.66,3.35,3.35,0,0,1,.5,1,4.6,4.6,0,0,1,.18,1.28,3.68,3.68,0,0,1-.76,2.5,2.33,2.33,0,0,1-1.83.88,1.91,1.91,0,0,1-1.67-.93v.82Zm0-3.2A3.42,3.42,0,0,0,310,296a1.43,1.43,0,0,0,2.46.22,2.9,2.9,0,0,0,.49-1.81,3,3,0,0,0-.47-1.83,1.4,1.4,0,0,0-1.13-.58,1.47,1.47,0,0,0-1.16.6,2.75,2.75,0,0,0-.5,1.76Z"/><path class="cls-7" d="M315.21,297.59V288.9h1v8.69Z"/><path class="cls-7" d="M322,295.55l1,.14a2.66,2.66,0,0,1-.92,1.5,3,3,0,0,1-3.81-.31,3.39,3.39,0,0,1-.77-2.39,3.53,3.53,0,0,1,.78-2.46,2.73,2.73,0,0,1,4,0,3.6,3.6,0,0,1,.76,2.43v.28h-4.49a2.39,2.39,0,0,0,.56,1.58,1.68,1.68,0,0,0,1.28.55,1.51,1.51,0,0,0,1-.31A2,2,0,0,0,322,295.55Zm-3.42-1.7H322a2.07,2.07,0,0,0-.39-1.2,1.54,1.54,0,0,0-1.29-.62,1.67,1.67,0,0,0-1.21.49,2,2,0,0,0-.58,1.33Z"/><path class="cls-7" d="M323.82,295v-1.07H327V295Z"/><path class="cls-7" d="M328.05,297.59V288.9h1v8.69Z"/><path class="cls-7" d="M334.79,295.55l1,.14a2.66,2.66,0,0,1-.92,1.5,3,3,0,0,1-3.81-.31,3.39,3.39,0,0,1-.77-2.39,3.53,3.53,0,0,1,.78-2.46,2.73,2.73,0,0,1,4,0,3.56,3.56,0,0,1,.77,2.43v.28h-4.49a2.35,2.35,0,0,0,.57,1.58,1.66,1.66,0,0,0,1.27.55,1.51,1.51,0,0,0,1-.31A2.08,2.08,0,0,0,334.79,295.55Zm-3.42-1.7h3.43a2.07,2.07,0,0,0-.39-1.2,1.56,1.56,0,0,0-1.29-.62,1.67,1.67,0,0,0-1.21.49,2,2,0,0,0-.54,1.33Z"/><path class="cls-7" d="M337.06,297.59v-6.3H338v.9a2.12,2.12,0,0,1,1.9-1,2.48,2.48,0,0,1,1,.2,1.54,1.54,0,0,1,.67.54,2.09,2.09,0,0,1,.32.79,5.6,5.6,0,0,1,.06,1v3.87H340.9v-3.83a3,3,0,0,0-.11-1,1.05,1.05,0,0,0-.42-.51,1.22,1.22,0,0,0-.69-.19,1.58,1.58,0,0,0-1.11.43,2.24,2.24,0,0,0-.46,1.64v3.44Z"/><path class="cls-7" d="M343.3,298.11l1,.14a1.11,1.11,0,0,0,.34.72,1.62,1.62,0,0,0,1,.3,1.69,1.69,0,0,0,1.07-.3,1.47,1.47,0,0,0,.52-.83,7.1,7.1,0,0,0,.07-1.38,2.06,2.06,0,0,1-1.66.83,2.24,2.24,0,0,1-1.92-.94,3.78,3.78,0,0,1-.68-2.25,4.29,4.29,0,0,1,.31-1.66,2.64,2.64,0,0,1,.91-1.18,2.35,2.35,0,0,1,1.38-.41,2.14,2.14,0,0,1,1.76.92v-.78h.92v5.44a5.68,5.68,0,0,1-.28,2.09,2.2,2.2,0,0,1-.91,1,2.92,2.92,0,0,1-1.51.35,2.73,2.73,0,0,1-1.73-.51A1.72,1.72,0,0,1,343.3,298.11Zm.83-3.78a2.83,2.83,0,0,0,.47,1.81,1.52,1.52,0,0,0,2.14.23,1.67,1.67,0,0,0,.23-.23,2.75,2.75,0,0,0,.48-1.78,2.68,2.68,0,0,0-.5-1.75,1.49,1.49,0,0,0-1.18-.59,1.47,1.47,0,0,0-1.16.58,2.71,2.71,0,0,0-.48,1.73Z"/><path class="cls-7" d="M352.13,296.64l.15.95a3.31,3.31,0,0,1-.77.09,1.71,1.71,0,0,1-.86-.18,1,1,0,0,1-.42-.48,3.87,3.87,0,0,1-.13-1.27v-3.63h-.76v-.83h.76v-1.55l1-.64v2.19h1v.83h-1v3.68a2.28,2.28,0,0,0,0,.58.39.39,0,0,0,.17.21.72.72,0,0,0,.35.08Z"/><path class="cls-7" d="M353.12,297.59V288.9h1V292a2.31,2.31,0,0,1,2.92-.59,1.53,1.53,0,0,1,.7.76,3.75,3.75,0,0,1,.21,1.41v4h-1v-4a1.66,1.66,0,0,0-.32-1.16,1.19,1.19,0,0,0-.93-.36,1.55,1.55,0,0,0-.84.24,1.34,1.34,0,0,0-.55.67,3.06,3.06,0,0,0-.17,1.16v3.44Z"/><path class="cls-7" d="M283.5,309.55l1-.14a1.59,1.59,0,0,0,.47,1,2,2,0,0,0,2.11,0,.94.94,0,0,0,.33-.71.65.65,0,0,0-.3-.57,4.42,4.42,0,0,0-1-.36,8.08,8.08,0,0,1-1.53-.51,1.51,1.51,0,0,1-.65-.6,1.59,1.59,0,0,1-.22-.85,1.71,1.71,0,0,1,.68-1.37,1.92,1.92,0,0,1,.61-.25,2.82,2.82,0,0,1,.87-.13,3,3,0,0,1,1.23.22,1.66,1.66,0,0,1,.78.58,2.35,2.35,0,0,1,.35,1l-1,.14a1.2,1.2,0,0,0-.39-.77,1.4,1.4,0,0,0-.91-.27,1.6,1.6,0,0,0-1,.24.7.7,0,0,0-.29.57.63.63,0,0,0,.12.37.87.87,0,0,0,.39.29l.89.27a10.86,10.86,0,0,1,1.49.5,1.41,1.41,0,0,1,.67.56,1.55,1.55,0,0,1,.25.91,1.89,1.89,0,0,1-1.14,1.73,3.06,3.06,0,0,1-1.26.26,2.73,2.73,0,0,1-1.77-.51A2.4,2.4,0,0,1,283.5,309.55Z"/><path class="cls-7" d="M291.87,310.51l.15.94a3.31,3.31,0,0,1-.77.09,1.82,1.82,0,0,1-.86-.18,1,1,0,0,1-.42-.48,3.62,3.62,0,0,1-.13-1.27V306h-.75v-.79h.75v-1.55l1-.64v2.19h1V306h-1v3.68a2.28,2.28,0,0,0,.05.58.46.46,0,0,0,.18.21.57.57,0,0,0,.34.08Z"/><path class="cls-7" d="M297,309.41l1,.15a2.76,2.76,0,0,1-.93,1.5,3,3,0,0,1-3.81-.32,3.43,3.43,0,0,1-.77-2.38,3.57,3.57,0,0,1,.78-2.47,2.73,2.73,0,0,1,4,0,3.6,3.6,0,0,1,.76,2.43v.29h-4.49a2.45,2.45,0,0,0,.57,1.58,1.66,1.66,0,0,0,1.27.55,1.63,1.63,0,0,0,1-.31A2.1,2.1,0,0,0,297,309.41Zm-3.42-1.7H297a2.23,2.23,0,0,0-.39-1.2,1.7,1.7,0,0,0-2.38-.24l-.12.11a2,2,0,0,0-.57,1.33Z"/><path class="cls-7" d="M299.23,311.45v-6.26h.9v.89a2.24,2.24,0,0,1,.75-.75,2.19,2.19,0,0,1,2.16,0,1.57,1.57,0,0,1,.6.81,2.13,2.13,0,0,1,1.85-1.1,1.74,1.74,0,0,1,1.38.52,2.23,2.23,0,0,1,.48,1.59v4.33h-1v-4a2.86,2.86,0,0,0-.1-.92.91.91,0,0,0-.36-.46,1,1,0,0,0-.61-.17,1.36,1.36,0,0,0-1,.44,2,2,0,0,0-.42,1.42v3.66h-1v-4.09a1.92,1.92,0,0,0-.24-1.07.92.92,0,0,0-.81-.36,1.39,1.39,0,0,0-.79.24,1.32,1.32,0,0,0-.53.7,4.48,4.48,0,0,0-.16,1.31v3.27Z"/><path class="cls-7" d="M308.45,308.85v-1.07h3.15v1.07Z"/><path class="cls-7" d="M312.67,311.45v-8.69h1v8.69Z"/><path class="cls-7" d="M314.88,308.3a3.32,3.32,0,0,1,.93-2.59,2.71,2.71,0,0,1,1.88-.7,2.66,2.66,0,0,1,2,.85,3.37,3.37,0,0,1,.78,2.35,4.32,4.32,0,0,1-.34,1.91,2.63,2.63,0,0,1-1,1.09,2.74,2.74,0,0,1-1.45.38,2.6,2.6,0,0,1-2-.84A3.52,3.52,0,0,1,314.88,308.3Zm1,0a2.74,2.74,0,0,0,.51,1.81,1.62,1.62,0,0,0,2.28.24,1.36,1.36,0,0,0,.24-.24,2.9,2.9,0,0,0,.5-1.85,2.72,2.72,0,0,0-.5-1.77,1.62,1.62,0,0,0-2.28-.24,1.36,1.36,0,0,0-.24.24,2.77,2.77,0,0,0-.47,1.81Z"/><path class="cls-7" d="M321.32,308.3a3.34,3.34,0,0,1,.92-2.59,2.69,2.69,0,0,1,1.89-.7,2.61,2.61,0,0,1,2,.85,3.3,3.3,0,0,1,.79,2.35,4.33,4.33,0,0,1-.35,1.91,2.4,2.4,0,0,1-1,1.09,2.7,2.7,0,0,1-1.44.38,2.6,2.6,0,0,1-2-.84A3.53,3.53,0,0,1,321.32,308.3Zm1,0a2.79,2.79,0,0,0,.5,1.81,1.63,1.63,0,0,0,2.29.24,1.36,1.36,0,0,0,.24-.24,2.9,2.9,0,0,0,.5-1.85,2.67,2.67,0,0,0-.51-1.77,1.53,1.53,0,0,0-1.25-.6,1.58,1.58,0,0,0-1.27.6,2.76,2.76,0,0,0-.46,1.81Z"/><path class="cls-7" d="M328.1,313.86v-8.67h.9V306a2.39,2.39,0,0,1,.74-.71,2,2,0,0,1,1-.24,2.36,2.36,0,0,1,1.36.41,2.59,2.59,0,0,1,.89,1.17,4.48,4.48,0,0,1,.3,1.66A4.31,4.31,0,0,1,333,310a2.5,2.5,0,0,1-1,1.18,2.35,2.35,0,0,1-1.33.41,1.8,1.8,0,0,1-.91-.22,2.17,2.17,0,0,1-.67-.57v3.07Zm.9-5.53a2.9,2.9,0,0,0,.47,1.81,1.43,1.43,0,0,0,2,.31,1.52,1.52,0,0,0,.31-.31,3,3,0,0,0,.48-1.87,2.83,2.83,0,0,0-.47-1.81,1.39,1.39,0,0,0-1.13-.6,1.48,1.48,0,0,0-1.16.64A2.91,2.91,0,0,0,329,308.33Z"/><path class="cls-14" d="M279.82,298.94h-12a8.61,8.61,0,1,1-3.18-11.75h0a8.73,8.73,0,0,1,3.15,3.15h12"/><rect class="cls-15" x="277.42" y="293.27" width="1.01" height="2.73"/><rect class="cls-16" x="277.42" y="293.27" width="1.01" height="2.73"/><rect class="cls-15" x="272.35" y="293.27" width="1.01" height="2.73"/><rect class="cls-16" x="272.35" y="293.27" width="1.01" height="2.73"/><rect class="cls-15" x="267.29" y="293.27" width="1.01" height="2.73"/><rect class="cls-16" x="267.29" y="293.27" width="1.01" height="2.73"/><path class="cls-15" d="M253.55,351.89v-8.7h3.84a5.21,5.21,0,0,1,1.75.23,1.94,1.94,0,0,1,1,.83,2.42,2.42,0,0,1,.36,1.31,2.2,2.2,0,0,1-.6,1.56,3,3,0,0,1-1.83.8,3.07,3.07,0,0,1,.69.43,6.6,6.6,0,0,1,.95,1.16l1.49,2.36h-1.43l-1.14-1.8c-.34-.52-.61-.93-.82-1.2a2.66,2.66,0,0,0-.58-.58,1.48,1.48,0,0,0-.53-.23,3.32,3.32,0,0,0-.63,0H254.7v3.86Zm1.16-4.87h2.45a3.9,3.9,0,0,0,1.22-.16,1.32,1.32,0,0,0,.67-.52,1.41,1.41,0,0,0,.22-.77,1.28,1.28,0,0,0-.44-1,2.05,2.05,0,0,0-1.4-.39h-2.72V347Z"/><path class="cls-15" d="M271.09,346.8h-5.73v-1h5.73Zm0,2.63h-5.73v-1h5.73Z"/><path class="cls-15" d="M275.12,351.89l3.33-8.68h1.27l3.5,8.68h-1.31l-1-2.62h-3.63l-.94,2.62Zm2.5-3.57h2.95l-.9-2.39c-.27-.74-.47-1.33-.61-1.8a9.55,9.55,0,0,1-.48,1.66Z"/><path class="cls-15" d="M287,348.75a3.26,3.26,0,0,1,1-2.59,2.87,2.87,0,0,1,2-.7,2.8,2.8,0,0,1,2.12.85,3.22,3.22,0,0,1,.82,2.35,4.17,4.17,0,0,1-.36,1.91,2.63,2.63,0,0,1-1.06,1.08A3,3,0,0,1,290,352a2.83,2.83,0,0,1-2.13-.85A3.37,3.37,0,0,1,287,348.75Zm1.09,0a2.67,2.67,0,0,0,.53,1.81,1.66,1.66,0,0,0,1.33.61,1.71,1.71,0,0,0,1.33-.61,2.78,2.78,0,0,0,.53-1.85,2.56,2.56,0,0,0-.54-1.77,1.76,1.76,0,0,0-2.48-.17l-.17.17a2.7,2.7,0,0,0-.54,1.8Z"/><path class="cls-15" d="M294.11,351.89V345.6h.94v1a2.68,2.68,0,0,1,.68-.89,1.2,1.2,0,0,1,.69-.22,2,2,0,0,1,1.09.35l-.37,1a1.62,1.62,0,0,0-.77-.21,1,1,0,0,0-.63.21,1.16,1.16,0,0,0-.39.58,4.33,4.33,0,0,0-.18,1.24V352Z"/><path class="cls-15" d="M305.72,348.49v-1h3.67v3.21a6.16,6.16,0,0,1-1.74,1,5.11,5.11,0,0,1-1.85.35,4.93,4.93,0,0,1-2.32-.55,3.65,3.65,0,0,1-1.58-1.58,5.06,5.06,0,0,1-.53-2.32,5.19,5.19,0,0,1,.53-2.36,3.53,3.53,0,0,1,1.52-1.63,4.68,4.68,0,0,1,2.29-.53,4.48,4.48,0,0,1,1.7.3,2.69,2.69,0,0,1,1.19.86,3.7,3.7,0,0,1,.66,1.42l-1.07.28a3.08,3.08,0,0,0-.48-1,2,2,0,0,0-.82-.61,3,3,0,0,0-1.19-.22,3.65,3.65,0,0,0-1.35.23,2.58,2.58,0,0,0-.93.64,2.7,2.7,0,0,0-.53.85,4.58,4.58,0,0,0-.34,1.75,4.2,4.2,0,0,0,.4,1.94,2.6,2.6,0,0,0,1.16,1.16,3.35,3.35,0,0,0,1.61.38,3.77,3.77,0,0,0,1.44-.28,3.94,3.94,0,0,0,1.07-.62v-1.67Z"/><path class="cls-15" d="M311.24,351.89v-1.2h1.21v1.2Z"/><path class="cls-15" d="M320.26,351.89v-3.7l-3.33-5h1.39l1.69,2.64c.33.48.63,1,.9,1.46.27-.45.6-1,1-1.53l1.67-2.57h1.34l-3.46,5v3.68Z"/><path class="cls-15" d="M334.73,346.8H329v-1h5.73Zm0,2.63H329v-1h5.73Z"/><path class="cls-15" d="M345.9,348.84l1.16.29a3.85,3.85,0,0,1-1.3,2.16,3.51,3.51,0,0,1-2.29.75,4.23,4.23,0,0,1-2.28-.57,3.69,3.69,0,0,1-1.34-1.66,6,6,0,0,1-.46-2.33,5.06,5.06,0,0,1,.52-2.36,3.58,3.58,0,0,1,1.48-1.53,4.18,4.18,0,0,1,2.1-.53,3.36,3.36,0,0,1,3.43,2.54l-1.14.26a2.6,2.6,0,0,0-.87-1.37,2.34,2.34,0,0,0-1.45-.43,2.84,2.84,0,0,0-1.67.47,2.48,2.48,0,0,0-.94,1.29,5.2,5.2,0,0,0-.27,1.66,5.49,5.49,0,0,0,.32,1.92,2.38,2.38,0,0,0,1,1.23,2.72,2.72,0,0,0,1.47.41,2.43,2.43,0,0,0,1.63-.56A2.69,2.69,0,0,0,345.9,348.84Z"/><path class="cls-15" d="M351.3,348.75a3.23,3.23,0,0,1,1-2.59,2.87,2.87,0,0,1,2-.7,2.8,2.8,0,0,1,2.12.85,3.22,3.22,0,0,1,.82,2.35,4.17,4.17,0,0,1-.36,1.91,2.63,2.63,0,0,1-1.06,1.08,3,3,0,0,1-1.52.39,2.83,2.83,0,0,1-2.13-.85A3.37,3.37,0,0,1,351.3,348.75Zm1.09,0a2.57,2.57,0,0,0,.53,1.81,1.74,1.74,0,0,0,2.45.2l.2-.2a2.67,2.67,0,0,0,.53-1.85,2.55,2.55,0,0,0-.53-1.77,1.76,1.76,0,0,0-2.48-.17l-.17.17a2.63,2.63,0,0,0-.53,1.8Z"/><path class="cls-15" d="M358.42,351.89V345.6h.94v1a3,3,0,0,1,.68-.89,1.2,1.2,0,0,1,.69-.22,2.08,2.08,0,0,1,1.1.35l-.38,1a1.62,1.62,0,0,0-.77-.21,1,1,0,0,0-.62.21,1.13,1.13,0,0,0-.4.58,4.33,4.33,0,0,0-.18,1.24V352Z"/><path class="cls-15" d="M259.21,357.75h1.16v5a5.84,5.84,0,0,1-.3,2.07,2.49,2.49,0,0,1-1.07,1.26,3.77,3.77,0,0,1-2,.48,4.19,4.19,0,0,1-2-.42,2.4,2.4,0,0,1-1.11-1.22,5.78,5.78,0,0,1-.33-2.18v-5h1.16v5a4.68,4.68,0,0,0,.21,1.66,1.63,1.63,0,0,0,.72.83,2.54,2.54,0,0,0,1.24.28,2.34,2.34,0,0,0,1.79-.57,3.25,3.25,0,0,0,.54-2.2v-5Z"/><path class="cls-15" d="M262.42,366.44v-1.25h1.21v1.21Z"/><g class="cls-17"><path class="cls-18" d="M122.06,371.67a10,10,0,0,1-10,10H92.81a10,10,0,1,1,0-20.08H112a10,10,0,0,1,10,10"/></g><g class="cls-17"><rect class="cls-19" x="114.2" y="310.47" width="26.84" height="8"/><line class="cls-20" x1="124.73" y1="302.96" x2="130.51" y2="302.96"/><rect class="cls-19" x="114.2" y="287.74" width="26.84" height="7.99"/><line class="cls-20" x1="124.73" y1="291.73" x2="130.51" y2="291.73"/><rect class="cls-19" x="114.2" y="254.45" width="26.84" height="7.99"/><line class="cls-20" x1="124.73" y1="258.45" x2="130.51" y2="258.45"/><line class="cls-20" x1="124.73" y1="247.23" x2="130.51" y2="247.23"/></g><text class="cls-21" transform="translate(114.68 251.23)">A</text><text class="cls-22" transform="translate(114.36 262.45)">G</text><text class="cls-23" transform="translate(133.05 251.23)">Y</text><text class="cls-22" transform="translate(132.73 262.45)">C</text><text class="cls-24" transform="translate(114.67 306.81)">A</text><text class="cls-22" transform="translate(132.73 306.96)">U</text><g class="cls-17"><rect class="cls-19" x="114.2" y="276.15" width="26.84" height="7.99"/><line class="cls-20" x1="124.73" y1="280.15" x2="130.51" y2="280.15"/></g><g class="cls-17"><rect class="cls-19" x="114.2" y="264.88" width="26.84" height="7.99"/></g><g class="cls-25"><text class="cls-26" transform="translate(114.67 284.15)">C</text><text class="cls-22" transform="translate(132.42 284.15)">G</text></g><g class="cls-17"><line class="cls-20" x1="124.74" y1="268.88" x2="130.51" y2="268.88"/></g><g class="cls-17"><line class="cls-20" x1="124.79" y1="314.38" x2="130.57" y2="314.38"/></g><text class="cls-22" transform="translate(114.36 272.87)">G</text><text class="cls-27" transform="translate(132.73 272.87)">C</text><text class="cls-27" transform="translate(114.68 318.38)">U</text><text class="cls-21" transform="translate(132.73 318.38)">A</text><g class="cls-17"><line class="cls-28" x1="124.93" y1="325.05" x2="130.7" y2="325.05"/><line class="cls-28" x1="124.93" y1="336.07" x2="130.7" y2="336.07"/><path class="cls-29" d="M122.53,336.07a3.8,3.8,0,1,1-3.81-3.79h0a3.8,3.8,0,0,1,3.8,3.79"/><path class="cls-30" d="M122.53,336.07a3.8,3.8,0,1,1-3.81-3.79h0A3.8,3.8,0,0,1,122.53,336.07Z"/></g><text class="cls-31" transform="translate(114.98 329.05)">Y</text><text class="cls-21" transform="translate(132.74 329.25)">A</text><text class="cls-27" transform="translate(132.43 340.21)">G</text><text class="cls-22" transform="translate(114.67 295.83)">C</text><text class="cls-22" transform="translate(132.43 295.7)">G</text><g class="cls-17"><rect class="cls-19" x="114.07" y="232.26" width="26.83" height="7.99"/><line class="cls-20" x1="124.6" y1="236.26" x2="130.37" y2="236.26"/><rect class="cls-19" x="114.07" y="221.04" width="26.83" height="7.99"/><line class="cls-20" x1="124.6" y1="225.04" x2="130.37" y2="225.04"/></g><text class="cls-22" transform="translate(114.68 229.04)">R</text><text class="cls-22" transform="translate(114.36 240.26)">G</text><text class="cls-32" transform="translate(101.53 341.58)">5´</text><text class="cls-23" transform="translate(133.05 229.04)">Y</text><text class="cls-27" transform="translate(132.73 240.26)">U</text><g class="cls-17"><path class="cls-33" d="M174.15,336.19a3.83,3.83,0,1,1-3.83-3.83h0a3.83,3.83,0,0,1,3.82,3.83"/><circle class="cls-34" cx="170.31" cy="336.21" r="3.83" transform="translate(-32.27 18.4) rotate(-5.65)"/></g><text class="cls-31" transform="translate(183.69 322.48)">Y</text><text class="cls-23" transform="translate(186.97 311.01)">Y</text><g class="cls-25"><text class="cls-35" transform="translate(143.52 340.47)">C</text><text class="cls-27" transform="translate(154.19 340.47)">C</text></g><text class="cls-22" transform="translate(176.49 332.89)">G</text><text class="cls-23" transform="translate(187.28 287.59)">Y</text><text class="cls-27" transform="translate(187.09 299.46)">U</text><text class="cls-22" transform="translate(20.67 188.77)">C</text><text class="cls-23" transform="translate(31.91 191.83)">Y</text><text class="cls-21" transform="translate(42.57 187.68)">A</text><text class="cls-22" transform="translate(11.91 180.56)">C</text><text class="cls-36" transform="translate(9.7 170.24)">Y</text><text class="cls-37" transform="translate(12.12 159.21)">G</text><g class="cls-17"><rect class="cls-19" x="73.32" y="151.88" width="7.97" height="26.77"/><line class="cls-28" x1="77.31" y1="168.07" x2="77.31" y2="162.31"/></g><text class="cls-21" transform="translate(20.67 150.74)">A</text><text class="cls-27" transform="translate(31.19 149.12)">U</text><text class="cls-22" transform="translate(41.47 152.1)">C</text><text class="cls-21" transform="translate(73.57 160.71)">A</text><text class="cls-22" transform="translate(73.26 178.09)">U</text><g class="cls-17"><rect class="cls-19" x="61.94" y="151.88" width="7.98" height="26.77"/><line class="cls-28" x1="66.12" y1="168.07" x2="66.12" y2="162.31"/><rect class="cls-38" x="50.59" y="151.88" width="7.97" height="26.77"/><line class="cls-28" x1="54.57" y1="168.07" x2="54.57" y2="162.31"/></g><text class="cls-39" transform="translate(50.52 160.71)">C</text><text class="cls-27" transform="translate(62.18 160.71)">C</text><text class="cls-39" transform="translate(50.64 178.22)">G</text><text class="cls-22" transform="translate(61.87 178.09)">G</text><text class="cls-40" transform="translate(104.55 225.69)">Y</text><g class="cls-17"><path class="cls-18" d="M102,216.64a3.83,3.83,0,1,1-3.83-3.83,3.83,3.83,0,0,1,3.83,3.83h0"/><path class="cls-41" d="M102,216.64a3.83,3.83,0,1,1-3.83-3.83,3.83,3.83,0,0,1,3.83,3.83Z"/><path class="cls-33" d="M92.52,208a3.83,3.83,0,1,1-3.85-3.81h0A3.83,3.83,0,0,1,92.52,208"/><circle class="cls-34" cx="88.68" cy="208" r="3.83"/></g><text class="cls-23" transform="translate(78.81 202.67)">Y</text><text class="cls-24" transform="translate(74.13 191.21)">A</text><text class="cls-23" transform="translate(145.11 226.23)">Y</text><g class="cls-17"><path class="cls-29" d="M165,213.35a3.8,3.8,0,1,1-3.81-3.79h0a3.8,3.8,0,0,1,3.8,3.79"/><path class="cls-30" d="M165,213.35a3.8,3.8,0,1,1-3.81-3.79h0A3.8,3.8,0,0,1,165,213.35Z"/><path class="cls-29" d="M175.67,202.67a3.8,3.8,0,1,1-3.81-3.79h0a3.8,3.8,0,0,1,3.8,3.79"/><path class="cls-30" d="M175.67,202.67a3.8,3.8,0,1,1-3.81-3.79h0A3.8,3.8,0,0,1,175.67,202.67Z"/><path class="cls-18" d="M181.16,189.52a3.83,3.83,0,1,1-3.83-3.83h0a3.83,3.83,0,0,1,3.82,3.83"/><circle class="cls-34" cx="177.32" cy="189.54" r="3.83"/><path class="cls-18" d="M183.63,173.63a3.83,3.83,0,1,1-3.84-3.82h0a3.83,3.83,0,0,1,3.83,3.82"/><path class="cls-41" d="M183.63,173.63a3.83,3.83,0,1,1-3.84-3.82h0A3.83,3.83,0,0,1,183.63,173.63Z"/><path class="cls-18" d="M181.16,158.29a3.83,3.83,0,1,1-3.84-3.82h0a3.82,3.82,0,0,1,3.82,3.82h0"/><path class="cls-41" d="M181.16,158.29a3.83,3.83,0,1,1-3.84-3.82h0a3.82,3.82,0,0,1,3.82,3.82Z"/><path class="cls-18" d="M165,132.54a3.83,3.83,0,1,1-3.84-3.82h0a3.83,3.83,0,0,1,3.82,3.82"/><path class="cls-41" d="M165,132.54a3.83,3.83,0,1,1-3.84-3.82h0A3.83,3.83,0,0,1,165,132.54Z"/><path class="cls-33" d="M175.39,144.24a3.83,3.83,0,1,1-3.83-3.83h0a3.83,3.83,0,0,1,3.82,3.83"/><path class="cls-41" d="M175.39,144.24a3.83,3.83,0,1,1-3.83-3.83h0A3.83,3.83,0,0,1,175.39,144.24Z"/></g><text class="cls-27" transform="translate(78.88 148.99)">C</text><g class="cls-17"><path class="cls-18" d="M97.62,133.36a3.83,3.83,0,1,1-3.84-3.82h0a3.83,3.83,0,0,1,3.83,3.82"/><path class="cls-41" d="M97.62,133.36a3.83,3.83,0,1,1-3.84-3.82h0A3.83,3.83,0,0,1,97.62,133.36Z"/></g><text class="cls-42" transform="translate(148.75 286.66)">P1</text><text class="cls-22" transform="translate(101.76 128.79)">C</text><text class="cls-22" transform="translate(113 125.23)">C</text><text class="cls-42" transform="translate(56.22 142.41)">P2</text><text class="cls-42" transform="translate(118.95 75.52)">P3</text><g class="cls-17"><polygon class="cls-43" points="173.16 55.21 177.66 55.21 177.66 97.39 142.18 97.39 142.18 55.21 146.84 55.21 173.16 55.21"/><line class="cls-20" x1="156.95" y1="87.75" x2="162.72" y2="87.77"/><path class="cls-44" d="M150.65,93V84.25a13.64,13.64,0,1,1,22.79-10.06c0,4.29-.92,6.93-4,9.44l-.09,2.08v7.16"/><path class="cls-45" d="M124.83,120a31.21,31.21,0,0,1,31.21,6.5"/><line class="cls-46" x1="142.11" y1="97.31" x2="140.98" y2="108.89"/><polygon class="cls-47" points="138.86 107.05 140.37 116.14 143.61 107.51 138.86 107.05"/></g><text class="cls-48" transform="translate(146.76 50.25)">85%</text><text class="cls-49" transform="translate(89.9 376.29)">101</text><text class="cls-50" transform="translate(6.56 21.35)"><tspan xml:space="preserve">Mg  -II Riboswitch</tspan></text><text class="cls-51" transform="translate(33.78 14.47)">2+</text></svg>