<svg id="图层_1" data-name="图层 1" xmlns="http://www.w3.org/2000/svg" xmlns:xlink="http://www.w3.org/1999/xlink" viewBox="0 0 400 400"><defs><style>.cls-1,.cls-14,.cls-16,.cls-24,.cls-31,.cls-38,.cls-39,.cls-43,.cls-45,.cls-54,.cls-56,.cls-6,.cls-7{fill:none;}.cls-2{clip-path:url(#clip-path);}.cls-3,.cls-32,.cls-33,.cls-37,.cls-8{fill:#231815;}.cls-4{fill:#6cb94f;}.cls-18,.cls-5{fill:#d71119;}.cls-14,.cls-16,.cls-24,.cls-31,.cls-38,.cls-39,.cls-6,.cls-7{stroke:#231815;}.cls-14,.cls-16,.cls-24,.cls-31,.cls-38,.cls-39,.cls-43,.cls-45,.cls-54,.cls-6,.cls-7{stroke-miterlimit:10;}.cls-6{stroke-width:0.59px;}.cls-7{stroke-width:1.04px;}.cls-10,.cls-17,.cls-18,.cls-19,.cls-32,.cls-8{font-size:8.56px;}.cls-10,.cls-17,.cls-18,.cls-19,.cls-20,.cls-21,.cls-33,.cls-37,.cls-8{font-family:Arial-BoldMT, Arial;font-weight:700;}.cls-9{letter-spacing:0.96em;}.cls-10,.cls-15,.cls-19,.cls-20,.cls-21{fill:#d80916;}.cls-10{letter-spacing:0.94em;}.cls-11{letter-spacing:0em;}.cls-12{letter-spacing:0.88em;}.cls-13{letter-spacing:0.94em;}.cls-14{stroke-width:1.19px;}.cls-16{stroke-width:0.59px;}.cls-17{fill:#736b63;}.cls-20,.cls-21,.cls-37{font-size:8.56px;}.cls-21{letter-spacing:0.93em;}.cls-22{letter-spacing:0em;}.cls-23{letter-spacing:0.93em;}.cls-24{stroke-width:1.19px;}.cls-25{letter-spacing:0.94em;}.cls-26{fill:#a3cbe2;}.cls-27{letter-spacing:0.86em;}.cls-28{fill:#857f8a;}.cls-29,.cls-41{fill:#fff;}.cls-30{fill:#f4b189;}.cls-31{stroke-width:1.16px;}.cls-32,.cls-41{font-family:ArialMT, Arial;}.cls-33{font-size:9.76px;}.cls-34{letter-spacing:1.01em;}.cls-35{letter-spacing:0.32em;}.cls-36{letter-spacing:0.89em;}.cls-38{stroke-width:0.83px;}.cls-39,.cls-45{stroke-width:0.72px;}.cls-40{letter-spacing:0.29em;}.cls-41{font-size:12.51px;}.cls-42{fill:#ebcad1;}.cls-43,.cls-45,.cls-54,.cls-56{stroke:#060000;}.cls-43{stroke-width:1.94px;}.cls-44{fill:#d0e1ae;}.cls-46{fill:#ced5e5;}.cls-47{fill:#070000;}.cls-48{fill:#221e1f;}.cls-49{fill:#c62b2b;}.cls-50{fill:#7f7b86;}.cls-51{fill:gray;}.cls-52{fill:#c0292a;}.cls-53{fill:#0a0303;}.cls-54{stroke-width:1.5px;}.cls-55{fill:#060000;}.cls-56{stroke-width:0.5px;}</style><clipPath id="clip-path"><rect class="cls-1" x="-2606" y="-3898.27" width="6065.56" height="4549.17"/></clipPath></defs><g class="cls-2"><path class="cls-3" d="M171.12,301.13a7.72,7.72,0,0,1-7.71,7.72H148.63a7.72,7.72,0,0,1,0-15.44h14.78a7.72,7.72,0,0,1,7.71,7.72"/></g><g class="cls-2"><rect class="cls-4" x="59.32" y="147.85" width="20.62" height="6.15"/><rect class="cls-4" x="59.29" y="130.71" width="20.63" height="6.15"/><path class="cls-5" d="M88.25,48a2.92,2.92,0,1,1-2.91,2.92A2.91,2.91,0,0,1,88.25,48"/><path class="cls-6" d="M88.25,48a2.92,2.92,0,1,1-2.91,2.92A2.91,2.91,0,0,1,88.25,48Z"/><rect class="cls-4" x="59.24" y="139.32" width="20.63" height="6.15"/><line class="cls-7" x1="67.26" y1="133.75" x2="71.7" y2="133.75"/></g><g class="cls-2"><line class="cls-7" x1="67.27" y1="142.36" x2="71.7" y2="142.36"/></g><text class="cls-8" transform="translate(59.38 154.06)"><tspan class="cls-9">Y</tspan><tspan x="13.96" y="0">R</tspan></text><g class="cls-2"><rect class="cls-4" x="59.29" y="96.18" width="20.63" height="6.15"/></g><text class="cls-10" transform="translate(59.62 145.44)">Y<tspan class="cls-11" x="13.72" y="0">R</tspan></text><g class="cls-2"><line class="cls-7" x1="67.38" y1="99.25" x2="71.82" y2="99.25"/></g><g class="cls-2"><rect class="cls-4" x="59.29" y="122.04" width="20.63" height="6.15"/></g><text class="cls-8" transform="translate(59.75 102.32)"><tspan class="cls-12">R</tspan><tspan x="13.73" y="0">Y</tspan></text><g class="cls-2"><line class="cls-7" x1="67.38" y1="125.11" x2="71.82" y2="125.11"/></g><g class="cls-2"><rect class="cls-4" x="59.33" y="113.37" width="20.62" height="6.15"/></g><text class="cls-8" transform="translate(59.75 128.18)"><tspan class="cls-13">Y</tspan><tspan x="13.73" y="0">R</tspan></text><g class="cls-2"><line class="cls-14" x1="67.43" y1="116.44" x2="71.86" y2="116.44"/><line class="cls-14" x1="67.32" y1="108.02" x2="71.76" y2="108.02"/><path class="cls-15" d="M79.63,133.71a2.92,2.92,0,1,1-2.91-2.92,2.91,2.91,0,0,1,2.91,2.92"/><path class="cls-16" d="M79.63,133.71a2.92,2.92,0,1,1-2.91-2.92A2.91,2.91,0,0,1,79.63,133.71Z"/><path class="cls-15" d="M65.59,133.71a2.92,2.92,0,1,1-2.91-2.92,2.91,2.91,0,0,1,2.91,2.92"/><path class="cls-16" d="M65.59,133.71a2.92,2.92,0,1,1-2.91-2.92A2.91,2.91,0,0,1,65.59,133.71Z"/><line class="cls-7" x1="67.38" y1="90.51" x2="71.82" y2="90.51"/></g><text class="cls-17" transform="translate(59.62 119.53)">R</text><text class="cls-8" transform="translate(59.75 93.58)"><tspan class="cls-12">R</tspan><tspan x="13.73" y="0">C</tspan></text><text class="cls-8" transform="translate(73.82 119.53)">Y</text><g class="cls-2"><line class="cls-7" x1="67.27" y1="151.2" x2="71.7" y2="151.2"/></g><text class="cls-8" transform="translate(73.65 111.17)">R</text><text class="cls-8" transform="translate(59.79 111.17)">Y</text><g class="cls-2"><path class="cls-5" d="M41.52,174.62a2.92,2.92,0,1,1,2.91-2.92,2.91,2.91,0,0,1-2.91,2.92"/><path class="cls-6" d="M41.52,174.62a2.92,2.92,0,1,1,2.91-2.92A2.91,2.91,0,0,1,41.52,174.62Z"/></g><text class="cls-18" transform="translate(80.36 159.54)">A</text><text class="cls-17" transform="translate(88.72 165.87)">Y</text><text class="cls-8" transform="translate(93.71 172.73)">A</text><text class="cls-17" transform="translate(96.53 182.3)">Y</text><text class="cls-19" transform="translate(93.87 191.88)">R</text><text class="cls-17" transform="translate(88.39 201.34)">R</text><g class="cls-2"><rect class="cls-4" x="65.13" y="234.81" width="20.63" height="6.15"/><line class="cls-7" x1="73.23" y1="237.88" x2="77.67" y2="237.88"/><rect class="cls-4" x="65.13" y="209.22" width="20.63" height="6.15"/><line class="cls-7" x1="73.23" y1="212.29" x2="77.67" y2="212.29"/><rect class="cls-4" x="65.13" y="200.59" width="20.63" height="6.15"/><line class="cls-7" x1="73.23" y1="203.66" x2="77.67" y2="203.66"/></g><text class="cls-19" transform="translate(65.72 206.73)">Y</text><text class="cls-20" transform="translate(65.49 215.36)">R</text><text class="cls-20" transform="translate(79.37 206.73)">R</text><text class="cls-20" transform="translate(79.61 215.36)">Y</text><g class="cls-2"><rect class="cls-4" x="65.13" y="225.9" width="20.63" height="6.15"/><line class="cls-7" x1="73.23" y1="228.98" x2="77.67" y2="228.98"/></g><text class="cls-21" transform="translate(65.72 232.05)">Y<tspan class="cls-22" x="13.65" y="0">R</tspan></text><g class="cls-2"><rect class="cls-4" x="65.13" y="217.23" width="20.63" height="6.15"/><line class="cls-7" x1="73.23" y1="220.31" x2="77.67" y2="220.31"/></g><text class="cls-8" transform="translate(65.49 223.38)"><tspan class="cls-23">R</tspan><tspan x="14.12" y="0">Y</tspan></text><text class="cls-17" transform="translate(65.25 241.01)">G</text><text class="cls-17" transform="translate(79.37 240.91)">C</text><text class="cls-8" transform="translate(56.12 206.12)">U</text><g class="cls-2"><path class="cls-5" d="M40.73,185.2a2.92,2.92,0,1,1,2.91-2.92,2.91,2.91,0,0,1-2.91,2.92"/><path class="cls-6" d="M40.73,185.2a2.92,2.92,0,1,1,2.91-2.92A2.91,2.91,0,0,1,40.73,185.2Z"/></g><text class="cls-17" transform="translate(43.23 166.82)">Y</text><text class="cls-18" transform="translate(50.47 159.98)">G</text><g class="cls-2"><line class="cls-24" x1="101.47" y1="262.72" x2="101.47" y2="258.29"/><line class="cls-24" x1="92.86" y1="262.72" x2="92.86" y2="258.29"/></g><text class="cls-17" transform="translate(98.53 257.02)">G</text><text class="cls-8" transform="translate(98.77 270.42)">C</text><text class="cls-8" transform="translate(89.8 256.97)">U</text><text class="cls-19" transform="translate(89.8 270.42)">A</text><g class="cls-2"><path class="cls-5" d="M61.58,246.7a2.92,2.92,0,1,1,2.91-2.92,2.91,2.91,0,0,1-2.91,2.92"/><path class="cls-6" d="M61.58,246.7a2.92,2.92,0,1,1,2.91-2.92A2.91,2.91,0,0,1,61.58,246.7Z"/></g><text class="cls-8" transform="translate(54.05 255.48)">A</text><text class="cls-17" transform="translate(54.26 263.48)">A</text><text class="cls-8" transform="translate(59.12 272.19)">Y</text><g class="cls-2"><rect class="cls-4" x="66.23" y="279.82" width="20.63" height="6.15"/><line class="cls-7" x1="74.33" y1="282.9" x2="78.77" y2="282.9"/></g><g class="cls-2"><line class="cls-14" x1="74.37" y1="300.1" x2="78.81" y2="300.1"/></g><text class="cls-17" transform="translate(66.7 285.97)"><tspan class="cls-25">Y</tspan><tspan x="13.74" y="0">R</tspan></text><g class="cls-2"><line class="cls-14" x1="74.27" y1="291.67" x2="78.71" y2="291.67"/><line class="cls-7" x1="74.33" y1="274.16" x2="78.77" y2="274.16"/></g><g class="cls-2"><path class="cls-5" d="M69.4,294.24a2.91,2.91,0,1,1,2.91-2.91,2.91,2.91,0,0,1-2.91,2.91"/></g><text class="cls-17" transform="translate(66.7 277.23)">Y</text><text class="cls-8" transform="translate(80.44 277.23)">G</text><g class="cls-2"><path class="cls-6" d="M69.4,294.24a2.91,2.91,0,1,1,2.91-2.91A2.91,2.91,0,0,1,69.4,294.24Z"/><path class="cls-5" d="M69.4,302.83a2.92,2.92,0,1,1,2.91-2.92,2.91,2.91,0,0,1-2.91,2.92"/><path class="cls-6" d="M69.4,302.83a2.92,2.92,0,1,1,2.91-2.92A2.91,2.91,0,0,1,69.4,302.83Z"/><path class="cls-5" d="M83.61,294.24a2.91,2.91,0,1,1,2.91-2.91,2.91,2.91,0,0,1-2.91,2.91"/><path class="cls-6" d="M83.61,294.24a2.91,2.91,0,1,1,2.91-2.91A2.91,2.91,0,0,1,83.61,294.24Z"/><path class="cls-5" d="M83.61,302.83a2.92,2.92,0,1,1,2.91-2.92,2.92,2.92,0,0,1-2.91,2.92"/><path class="cls-6" d="M83.61,302.83a2.92,2.92,0,1,1,2.91-2.92A2.92,2.92,0,0,1,83.61,302.83Z"/><path class="cls-5" d="M89.38,311.2a2.92,2.92,0,1,1,2.91-2.91,2.91,2.91,0,0,1-2.91,2.91"/><path class="cls-6" d="M89.38,311.2a2.92,2.92,0,1,1,2.91-2.91A2.91,2.91,0,0,1,89.38,311.2Z"/></g><text class="cls-17" transform="translate(60.86 311.24)">Y</text><g class="cls-2"><path class="cls-5" d="M63.71,319.09a2.91,2.91,0,1,1,2.91-2.91,2.91,2.91,0,0,1-2.91,2.91"/><path class="cls-6" d="M63.71,319.09a2.91,2.91,0,1,1,2.91-2.91A2.91,2.91,0,0,1,63.71,319.09Z"/></g><text class="cls-17" transform="translate(86.44 319.3)">Y</text><g class="cls-2"><rect class="cls-26" x="66.29" y="328.21" width="20.63" height="6.15"/><line class="cls-7" x1="74.39" y1="331.29" x2="78.82" y2="331.29"/><rect class="cls-4" x="66.29" y="319.59" width="20.63" height="6.15"/><line class="cls-7" x1="74.39" y1="322.66" x2="78.82" y2="322.66"/></g><text class="cls-17" transform="translate(67.04 325.73)">Y</text><text class="cls-20" transform="translate(66.56 334.36)">G</text><text class="cls-17" transform="translate(80.61 325.73)">R</text><text class="cls-20" transform="translate(80.85 334.36)">Y</text><g class="cls-2"><rect class="cls-26" x="66.29" y="336.23" width="20.63" height="6.15"/><line class="cls-7" x1="74.39" y1="339.31" x2="78.82" y2="339.31"/></g><text class="cls-19" transform="translate(61.19 349.19)">A</text><text class="cls-20" transform="translate(66.56 342.37)"><tspan class="cls-27">G</tspan><tspan x="14.04" y="0">C</tspan></text><text class="cls-19" transform="translate(60.55 357.31)">A</text><text class="cls-17" transform="translate(65.72 365.5)">Y</text><g class="cls-2"><path class="cls-5" d="M76.61,368.51a2.91,2.91,0,1,1,2.91-2.91,2.91,2.91,0,0,1-2.91,2.91"/><path class="cls-6" d="M76.61,368.51a2.91,2.91,0,1,1,2.91-2.91A2.91,2.91,0,0,1,76.61,368.51Z"/><path class="cls-28" d="M85.24,365.25a2.92,2.92,0,1,1,2.91-2.92,2.92,2.92,0,0,1-2.91,2.92"/><path class="cls-6" d="M85.24,365.25a2.92,2.92,0,1,1,2.91-2.92A2.92,2.92,0,0,1,85.24,365.25Z"/></g><text class="cls-17" transform="translate(87.09 357.31)">R</text><text class="cls-8" transform="translate(85.28 348.84)">G</text><g class="cls-2"><path class="cls-5" d="M122.77,284.87a2.91,2.91,0,1,1,2.92-2.91,2.91,2.91,0,0,1-2.92,2.91"/></g><text class="cls-8" transform="translate(104.78 277.99)">R</text><text class="cls-17" transform="translate(111.04 282.59)">A</text><g class="cls-2"><path class="cls-6" d="M122.77,284.87a2.91,2.91,0,1,1,2.92-2.91A2.91,2.91,0,0,1,122.77,284.87Z"/><path class="cls-29" d="M132.8,277.75a2.91,2.91,0,1,1-2.91,2.91,2.91,2.91,0,0,1,2.91-2.91"/><path class="cls-6" d="M132.8,277.75a2.91,2.91,0,1,1-2.91,2.91A2.91,2.91,0,0,1,132.8,277.75Z"/></g><text class="cls-17" transform="translate(137.22 278.53)">U</text><g class="cls-2"><rect class="cls-4" x="143.49" y="250.68" width="6.15" height="20.62"/><rect class="cls-4" x="160.63" y="250.65" width="6.15" height="20.63"/><rect class="cls-4" x="152.02" y="250.6" width="6.15" height="20.63"/><line class="cls-7" x1="163.75" y1="258.63" x2="163.75" y2="263.06"/><line class="cls-7" x1="155.13" y1="258.63" x2="155.13" y2="263.06"/><path class="cls-15" d="M163.78,271a2.92,2.92,0,1,1,2.92-2.92,2.92,2.92,0,0,1-2.92,2.92"/><path class="cls-16" d="M163.78,271a2.92,2.92,0,1,1,2.92-2.92A2.92,2.92,0,0,1,163.78,271Z"/><path class="cls-15" d="M163.78,257A2.92,2.92,0,1,1,166.7,254a2.91,2.91,0,0,1-2.92,2.91"/><path class="cls-16" d="M163.78,257A2.92,2.92,0,1,1,166.7,254,2.91,2.91,0,0,1,163.78,257Z"/><line class="cls-7" x1="146.3" y1="258.63" x2="146.3" y2="263.06"/><line class="cls-7" x1="172.39" y1="258.73" x2="172.39" y2="263.17"/><path class="cls-15" d="M172.42,271.1a2.92,2.92,0,1,1,2.92-2.92,2.92,2.92,0,0,1-2.92,2.92"/><path class="cls-16" d="M172.42,271.1a2.92,2.92,0,1,1,2.92-2.92A2.92,2.92,0,0,1,172.42,271.1Z"/><path class="cls-15" d="M172.42,257.06a2.92,2.92,0,1,1,2.92-2.92,2.92,2.92,0,0,1-2.92,2.92"/><path class="cls-16" d="M172.42,257.06a2.92,2.92,0,1,1,2.92-2.92A2.92,2.92,0,0,1,172.42,257.06Z"/><rect class="cls-30" x="222.84" y="250.45" width="6.13" height="20.58"/><line class="cls-24" x1="225.77" y1="262.95" x2="225.77" y2="258.52"/><rect class="cls-4" x="214.11" y="250.45" width="6.13" height="20.58"/><line class="cls-24" x1="217.17" y1="262.95" x2="217.17" y2="258.52"/><rect class="cls-4" x="205.38" y="250.45" width="6.13" height="20.58"/><line class="cls-24" x1="208.56" y1="262.95" x2="208.56" y2="258.52"/></g><text class="cls-19" transform="translate(222.95 257.25)">U</text><text class="cls-19" transform="translate(222.95 270.66)">A</text><text class="cls-8" transform="translate(213.99 257.2)">R</text><text class="cls-8" transform="translate(214.23 270.66)">Y</text><text class="cls-17" transform="translate(205.43 257.07)">Y</text><text class="cls-17" transform="translate(205.19 270.66)">R</text><g class="cls-2"><rect class="cls-4" x="231.64" y="250.61" width="6.13" height="20.58"/><line class="cls-24" x1="234.7" y1="263.1" x2="234.7" y2="258.68"/><path class="cls-15" d="M234.72,251.2a2.92,2.92,0,1,1-2.91,2.92,2.91,2.91,0,0,1,2.91-2.92"/><path class="cls-6" d="M234.72,251.2a2.92,2.92,0,1,1-2.91,2.92A2.91,2.91,0,0,1,234.72,251.2Z"/><path class="cls-15" d="M234.72,264.87a2.91,2.91,0,1,1-2.91,2.91,2.91,2.91,0,0,1,2.91-2.91"/><path class="cls-6" d="M234.72,264.87a2.91,2.91,0,1,1-2.91,2.91A2.91,2.91,0,0,1,234.72,264.87Z"/></g><text class="cls-19" transform="translate(239.31 275.27)">A</text><text class="cls-17" transform="translate(175.24 278.27)">R</text><text class="cls-17" transform="translate(192.43 282.02)">Y</text><text class="cls-17" transform="translate(199.56 277.95)">Y</text><text class="cls-19" transform="translate(247.58 259.43)">A</text><text class="cls-17" transform="translate(247.34 269.12)">G</text><text class="cls-17" transform="translate(239.07 251.76)">G</text><g class="cls-2"><path class="cls-5" d="M186.8,282.3a2.92,2.92,0,1,1,2.91-2.92,2.91,2.91,0,0,1-2.91,2.92"/><path class="cls-6" d="M186.8,282.3a2.92,2.92,0,1,1,2.91-2.92A2.91,2.91,0,0,1,186.8,282.3Z"/></g><g class="cls-2"><line class="cls-7" x1="151.81" y1="166.93" x2="156.25" y2="166.93"/><line class="cls-7" x1="151.81" y1="158.3" x2="156.25" y2="158.3"/><line class="cls-7" x1="151.81" y1="149.39" x2="156.24" y2="149.39"/></g><text class="cls-8" transform="translate(176.02 250.41)">R</text><text class="cls-17" transform="translate(183.38 246.11)">A</text><text class="cls-17" transform="translate(191.8 246.12)">A</text><text class="cls-17" transform="translate(199.22 249.67)">R</text><g class="cls-2"><line class="cls-31" x1="146.82" y1="170.81" x2="146.82" y2="146.12"/><line class="cls-31" x1="161.18" y1="170.74" x2="161.18" y2="146.12"/></g><text class="cls-32" transform="translate(136.15 175.78)">5´</text><text class="cls-33" transform="translate(166.62 161.71)">P1</text><g class="cls-2"><line class="cls-7" x1="151.84" y1="140.86" x2="156.27" y2="140.86"/></g><text class="cls-17" transform="translate(144 143.72)"><tspan class="cls-34">Y</tspan><tspan x="14.33" y="0">R</tspan></text><g class="cls-2"><line class="cls-7" x1="151.84" y1="132.01" x2="156.27" y2="132.01"/></g><text class="cls-8" transform="translate(144 134.87)"><tspan class="cls-34">Y</tspan><tspan x="14.33" y="0">R</tspan></text><g class="cls-2"><rect class="cls-4" x="136.25" y="109.98" width="6.13" height="20.58"/><line class="cls-24" x1="139.46" y1="122.43" x2="139.46" y2="118.01"/><line class="cls-24" x1="130.59" y1="122.43" x2="130.59" y2="118.01"/></g><text class="cls-8" transform="translate(127.48 116.66)"><tspan class="cls-35">A</tspan><tspan x="8.96" y="0">C</tspan></text><text class="cls-8" transform="translate(136.2 130.19)">G</text><g class="cls-2"><path class="cls-5" d="M130.53,124.26a2.92,2.92,0,1,1-2.91,2.92,2.92,2.92,0,0,1,2.91-2.92"/><path class="cls-6" d="M130.53,124.26a2.92,2.92,0,1,1-2.91,2.92A2.92,2.92,0,0,1,130.53,124.26Z"/><path class="cls-29" d="M166.35,120.81a2.92,2.92,0,1,1-2.91,2.91,2.9,2.9,0,0,1,2.91-2.91"/><path class="cls-6" d="M166.35,120.81a2.92,2.92,0,1,1-2.91,2.91A2.9,2.9,0,0,1,166.35,120.81Z"/><path class="cls-3" d="M166.37,110.86a2.92,2.92,0,1,1-2.91,2.91,2.91,2.91,0,0,1,2.91-2.91"/><path class="cls-6" d="M166.37,110.86a2.92,2.92,0,1,1-2.91,2.91A2.91,2.91,0,0,1,166.37,110.86Z"/></g><text class="cls-17" transform="translate(144.97 111.82)">G</text><text class="cls-17" transform="translate(154.88 112.03)">R</text><g class="cls-2"><line class="cls-7" x1="114.44" y1="88.46" x2="118.88" y2="88.46"/></g><text class="cls-8" transform="translate(106.72 91.54)">A</text><text class="cls-17" transform="translate(120.53 91.54)">U</text><g class="cls-2"><line class="cls-7" x1="114.44" y1="105.7" x2="118.87" y2="105.7"/></g><text class="cls-17" transform="translate(106.72 108.77)"><tspan class="cls-36">U</tspan><tspan x="13.8" y="0">R</tspan></text><g class="cls-2"><line class="cls-7" x1="114.44" y1="97.08" x2="118.87" y2="97.08"/></g><text class="cls-17" transform="translate(106.48 100.16)"><tspan class="cls-36">G</tspan><tspan x="14.28" y="0">Y</tspan></text><text class="cls-8" transform="translate(112.48 130.15)">A</text><text class="cls-18" transform="translate(119.99 130.25)">U</text><g class="cls-2"><path class="cls-29" d="M130.63,97.75a2.92,2.92,0,1,1-2.91,2.92,2.91,2.91,0,0,1,2.91-2.92"/></g><text class="cls-8" transform="translate(106.32 116.98)">G</text><text class="cls-8" transform="translate(106.32 124.87)">G</text><g class="cls-2"><path class="cls-6" d="M130.63,97.75a2.92,2.92,0,1,1-2.91,2.92A2.91,2.91,0,0,1,130.63,97.75Z"/><rect class="cls-26" x="106.38" y="76.99" width="20.63" height="6.15"/><line class="cls-7" x1="114.48" y1="80.06" x2="118.91" y2="80.06"/></g><text class="cls-20" transform="translate(106.37 83.13)">G</text><text class="cls-37" transform="translate(120.58 83.13)">C</text><text class="cls-8" transform="translate(126.16 75.4)">R</text><text class="cls-18" transform="translate(128.33 66.31)">A</text><text class="cls-18" transform="translate(107.62 55.71)">Y</text><text class="cls-17" transform="translate(115.95 53.92)">A</text><text class="cls-18" transform="translate(123.96 58.13)">A</text><g class="cls-2"><rect class="cls-4" x="90.63" y="55.08" width="6.13" height="20.58"/><line class="cls-24" x1="93.69" y1="63.15" x2="93.69" y2="67.58"/></g><text class="cls-8" transform="translate(90.59 61.76)">G</text><text class="cls-17" transform="translate(90.75 75.69)">C</text><g class="cls-2"><rect class="cls-4" x="99.53" y="55.08" width="6.13" height="20.58"/><line class="cls-24" x1="102.59" y1="63.15" x2="102.59" y2="67.58"/></g><text class="cls-17" transform="translate(99.49 61.76)">C</text><text class="cls-8" transform="translate(99.65 75.69)">G</text><g class="cls-2"><path class="cls-5" d="M83.51,83.19a2.92,2.92,0,1,1-2.91,2.92,2.91,2.91,0,0,1,2.91-2.92"/><path class="cls-6" d="M83.51,83.19a2.92,2.92,0,1,1-2.91,2.92A2.91,2.91,0,0,1,83.51,83.19Z"/></g><text class="cls-17" transform="translate(86.6 83.29)">U</text><text class="cls-33" transform="translate(128.71 141.7)">P2</text><text class="cls-33" transform="translate(92.9 98.32)">P3</text><text class="cls-33" transform="translate(92.8 47.36)">P4</text><text class="cls-33" transform="translate(43.93 129.61)">P5</text><text class="cls-33" transform="translate(50.68 227.33)">P6</text><text class="cls-33" transform="translate(152.5 245.12)">P7</text><text class="cls-33" transform="translate(49.74 286.94)">P8</text><g class="cls-2"><path class="cls-38" d="M87.1,240.89a19.17,19.17,0,0,1,6.47,8.5"/><line class="cls-7" x1="46.92" y1="199.34" x2="43.92" y2="196.06"/><path class="cls-31" d="M53.16,200.17l-4.06,3.74-.87.83a10.49,10.49,0,1,1-17.59-7.65c2.43-2.24,4.4-3.09,7.43-2.64l1.22-1,4.11-3.78"/><path class="cls-38" d="M58.61,88c-.37-.19-.74-.39-1.1-.6A24.12,24.12,0,1,1,84,47.13l.47.36"/></g><text class="cls-33" transform="translate(9.72 210.79)">P9</text><g class="cls-2"><path class="cls-39" d="M104.34,249.14a22.44,22.44,0,0,1,39.14-.12"/></g><text class="cls-17" transform="translate(143.29 257.7)"><tspan class="cls-40">C</tspan><tspan x="8.63" y="0">C</tspan></text><text class="cls-8" transform="translate(143.1 271.07)">G</text><text class="cls-17" transform="translate(151.71 271.08)">G</text><text class="cls-41" transform="translate(145.9 305.95)">971</text><rect class="cls-42" x="256.75" y="87.02" width="5.87" height="6.12"/><rect class="cls-42" x="270.66" y="87.02" width="5.87" height="6.12"/><rect class="cls-42" x="262.62" y="87.02" width="8.04" height="6.12"/><line class="cls-43" x1="266.64" y1="90.49" x2="266.64" y2="89.67"/><rect class="cls-44" x="270.66" y="65.74" width="6.13" height="5.87"/><rect class="cls-44" x="256.75" y="65.74" width="6.13" height="5.87"/><rect class="cls-44" x="262.88" y="65.74" width="7.78" height="5.87"/><line class="cls-45" x1="267.87" y1="68.68" x2="265.66" y2="68.68"/><rect class="cls-46" x="270.66" y="76.44" width="6.13" height="5.87"/><rect class="cls-46" x="256.75" y="76.44" width="6.13" height="5.87"/><rect class="cls-46" x="262.88" y="76.44" width="7.78" height="5.87"/><line class="cls-45" x1="267.87" y1="79.38" x2="265.66" y2="79.38"/><path class="cls-47" d="M316.49,165.16l1-.09a1.77,1.77,0,0,0,.47,1,1.24,1.24,0,0,0,.89.33,1.59,1.59,0,0,0,.82-.22,1.64,1.64,0,0,0,.57-.6,3.64,3.64,0,0,0,.37-1,5.7,5.7,0,0,0,.15-1.3v-.22a2.36,2.36,0,0,1-.83.83,2.14,2.14,0,0,1-1.13.31,2.23,2.23,0,0,1-1.72-.78,3,3,0,0,1-.7-2.06,3.05,3.05,0,0,1,.74-2.13,2.42,2.42,0,0,1,1.85-.8,2.55,2.55,0,0,1,1.47.45,2.84,2.84,0,0,1,1,1.3,6.74,6.74,0,0,1,.34,2.44,8.28,8.28,0,0,1-.34,2.65,3.13,3.13,0,0,1-1,1.5,2.55,2.55,0,0,1-1.58.51,2.25,2.25,0,0,1-1.59-.57A2.43,2.43,0,0,1,316.49,165.16Zm4.14-3.82a2.15,2.15,0,0,0-.46-1.46,1.39,1.39,0,0,0-1.11-.54,1.49,1.49,0,0,0-1.18.58,2.24,2.24,0,0,0-.49,1.5,1.88,1.88,0,0,0,.47,1.35,1.49,1.49,0,0,0,1.17.52,1.44,1.44,0,0,0,1.15-.52A2.1,2.1,0,0,0,320.63,161.34Z"/><path class="cls-47" d="M322.77,162.89a8.06,8.06,0,0,1,.31-2.48A3,3,0,0,1,324,159a2.24,2.24,0,0,1,1.5-.51,2.48,2.48,0,0,1,1.18.28,2.32,2.32,0,0,1,.84.81,5.1,5.1,0,0,1,.51,1.29,9.29,9.29,0,0,1,.18,2,8.35,8.35,0,0,1-.3,2.47,3.06,3.06,0,0,1-.9,1.45,2.23,2.23,0,0,1-1.51.51,2.25,2.25,0,0,1-1.88-.89A5.88,5.88,0,0,1,322.77,162.89Zm1,0a5.51,5.51,0,0,0,.49,2.85,1.39,1.39,0,0,0,1.18.7,1.43,1.43,0,0,0,1.19-.7,8.7,8.7,0,0,0,0-5.7,1.41,1.41,0,0,0-1.2-.7,1.34,1.34,0,0,0-1.14.62A5.87,5.87,0,0,0,323.81,162.89Z"/><path class="cls-47" d="M329.36,160.58a2.7,2.7,0,0,1,.45-1.58,1.44,1.44,0,0,1,1.28-.66,1.64,1.64,0,0,1,1.29.59,2.53,2.53,0,0,1,.51,1.71,2.49,2.49,0,0,1-.52,1.7,1.59,1.59,0,0,1-1.27.59,1.56,1.56,0,0,1-1.24-.58A2.69,2.69,0,0,1,329.36,160.58Zm1.76-1.48a.78.78,0,0,0-.63.34,2.2,2.2,0,0,0-.25,1.25,1.94,1.94,0,0,0,.25,1.15.76.76,0,0,0,1.27,0,2.15,2.15,0,0,0,.25-1.23,2,2,0,0,0-.25-1.17A.76.76,0,0,0,331.12,159.1Zm0,8.4,4.56-9.16h.85L332,167.5Zm3.63-2.35a2.8,2.8,0,0,1,.44-1.59,1.49,1.49,0,0,1,1.3-.65,1.64,1.64,0,0,1,1.28.59,2.53,2.53,0,0,1,.51,1.71,2.51,2.51,0,0,1-.52,1.7,1.63,1.63,0,0,1-1.27.59,1.53,1.53,0,0,1-1.24-.59A2.68,2.68,0,0,1,334.76,165.15Zm1.76-1.48a.76.76,0,0,0-.64.34,2.25,2.25,0,0,0-.25,1.24,2,2,0,0,0,.26,1.16.78.78,0,0,0,.62.34.79.79,0,0,0,.65-.34,2.28,2.28,0,0,0,.25-1.24,2,2,0,0,0-.26-1.16A.74.74,0,0,0,336.52,163.67Z"/><path class="cls-48" d="M312.52,163.62a3.37,3.37,0,1,1-3.36-3.37,3.37,3.37,0,0,1,3.36,3.37"/><circle class="cls-45" cx="309.15" cy="163.62" r="3.37"/><path class="cls-47" d="M316.49,153.17l1-.1a1.84,1.84,0,0,0,.47,1.05,1.23,1.23,0,0,0,.89.32,1.5,1.5,0,0,0,.82-.22,1.64,1.64,0,0,0,.57-.6,3.52,3.52,0,0,0,.37-1,5.57,5.57,0,0,0,.15-1.3v-.21a2.36,2.36,0,0,1-.83.83,2.14,2.14,0,0,1-1.13.31,2.23,2.23,0,0,1-1.72-.78,3,3,0,0,1-.7-2.06,3.05,3.05,0,0,1,.74-2.13,2.42,2.42,0,0,1,1.85-.8,2.55,2.55,0,0,1,1.47.45,2.84,2.84,0,0,1,1,1.3,6.7,6.7,0,0,1,.34,2.44,8.17,8.17,0,0,1-.34,2.64,3,3,0,0,1-1,1.5,2.5,2.5,0,0,1-1.58.52,2.25,2.25,0,0,1-1.59-.57A2.43,2.43,0,0,1,316.49,153.17Zm4.14-3.83a2.17,2.17,0,0,0-.46-1.46,1.41,1.41,0,0,0-1.11-.53,1.49,1.49,0,0,0-1.18.58,2.2,2.2,0,0,0-.49,1.5,1.9,1.9,0,0,0,.47,1.35,1.49,1.49,0,0,0,1.17.52,1.44,1.44,0,0,0,1.15-.52A2.14,2.14,0,0,0,320.63,149.34Z"/><path class="cls-47" d="M322.84,147.63v-1h5.35v.82a12.24,12.24,0,0,0-1.56,2.35,14.32,14.32,0,0,0-1.2,3,12.18,12.18,0,0,0-.39,2.39h-1a10.87,10.87,0,0,1,.39-2.48,13.48,13.48,0,0,1,1-2.8,11.71,11.71,0,0,1,1.46-2.27Z"/><path class="cls-47" d="M329.36,148.59a2.75,2.75,0,0,1,.45-1.59,1.45,1.45,0,0,1,1.28-.65,1.64,1.64,0,0,1,1.29.59,3.08,3.08,0,0,1,0,3.41,1.62,1.62,0,0,1-1.27.59,1.56,1.56,0,0,1-1.24-.58A2.69,2.69,0,0,1,329.36,148.59Zm1.76-1.48a.75.75,0,0,0-.63.34,2.17,2.17,0,0,0-.25,1.24,2,2,0,0,0,.25,1.16.76.76,0,0,0,1.27,0,2.19,2.19,0,0,0,.25-1.24,2,2,0,0,0-.25-1.16A.76.76,0,0,0,331.12,147.11Zm0,8.4,4.56-9.16h.85L332,155.51Zm3.63-2.36a2.77,2.77,0,0,1,.44-1.58,1.49,1.49,0,0,1,1.3-.65,1.63,1.63,0,0,1,1.28.58,2.54,2.54,0,0,1,.51,1.72,2.51,2.51,0,0,1-.52,1.7,1.63,1.63,0,0,1-1.27.59,1.56,1.56,0,0,1-1.24-.59A2.69,2.69,0,0,1,334.76,153.15Zm1.76-1.47a.76.76,0,0,0-.64.34,2.23,2.23,0,0,0-.25,1.24,2,2,0,0,0,.26,1.16.77.77,0,0,0,.62.33.78.78,0,0,0,.65-.33,2.28,2.28,0,0,0,.25-1.24,2,2,0,0,0-.26-1.17A.76.76,0,0,0,336.52,151.68Z"/><path class="cls-49" d="M312.52,151.62a3.37,3.37,0,1,1-3.37-3.37,3.37,3.37,0,0,1,3.37,3.37"/><circle class="cls-45" cx="309.15" cy="151.62" r="3.37"/><path class="cls-47" d="M357.32,147.63v-1h5.35v.82a11.79,11.79,0,0,0-1.57,2.35,14.84,14.84,0,0,0-1.19,3,10.85,10.85,0,0,0-.39,2.39h-1a11.46,11.46,0,0,1,.39-2.48,13,13,0,0,1,1.05-2.8,11.7,11.7,0,0,1,1.45-2.27Z"/><path class="cls-47" d="M363.67,152.91l1-.1a2.07,2.07,0,0,0,.54,1.22,1.46,1.46,0,0,0,1.05.42,1.6,1.6,0,0,0,1.25-.58,2.3,2.3,0,0,0,.5-1.54,2,2,0,0,0-.48-1.43,1.62,1.62,0,0,0-1.27-.53,1.76,1.76,0,0,0-.89.23,1.84,1.84,0,0,0-.61.6l-.94-.14.8-4.45h4.1v1h-3.29L365,150a2.63,2.63,0,0,1,1.56-.55,2.41,2.41,0,0,1,1.81.79,2.84,2.84,0,0,1,.74,2,3.29,3.29,0,0,1-.65,2,2.8,2.8,0,0,1-4,.4A2.64,2.64,0,0,1,363.67,152.91Z"/><path class="cls-47" d="M370.26,148.59a2.83,2.83,0,0,1,.44-1.59,1.48,1.48,0,0,1,1.29-.65,1.64,1.64,0,0,1,1.29.59,2.51,2.51,0,0,1,.51,1.71,2.56,2.56,0,0,1-.52,1.7,1.63,1.63,0,0,1-1.27.59,1.56,1.56,0,0,1-1.24-.58A2.69,2.69,0,0,1,370.26,148.59Zm1.76-1.48a.74.74,0,0,0-.63.34,2.15,2.15,0,0,0-.26,1.24,2,2,0,0,0,.26,1.16.76.76,0,0,0,1.27,0,2.19,2.19,0,0,0,.25-1.24,2.05,2.05,0,0,0-.25-1.16A.78.78,0,0,0,372,147.11Zm0,8.4,4.56-9.16h.85l-4.57,9.16Zm3.63-2.36a2.77,2.77,0,0,1,.44-1.58,1.48,1.48,0,0,1,1.29-.65,1.6,1.6,0,0,1,1.28.58,2.49,2.49,0,0,1,.51,1.72,2.56,2.56,0,0,1-.51,1.7,1.63,1.63,0,0,1-1.27.59,1.58,1.58,0,0,1-1.25-.59A2.69,2.69,0,0,1,375.66,153.15Zm1.76-1.47a.76.76,0,0,0-.64.34,2.14,2.14,0,0,0-.25,1.24,2.1,2.1,0,0,0,.25,1.16.77.77,0,0,0,.63.33.76.76,0,0,0,.64-.33,2.17,2.17,0,0,0,.26-1.24,2,2,0,0,0-.26-1.17A.77.77,0,0,0,377.42,151.68Z"/><path class="cls-50" d="M353.42,151.62a3.37,3.37,0,1,1-3.37-3.37,3.37,3.37,0,0,1,3.37,3.37"/><circle class="cls-45" cx="350.05" cy="151.62" r="3.37"/><circle class="cls-45" cx="350.05" cy="163.62" r="3.37"/><path class="cls-47" d="M357.24,164.9l1.05-.1a2,2,0,0,0,.54,1.23,1.45,1.45,0,0,0,1,.41,1.6,1.6,0,0,0,1.25-.58,2.29,2.29,0,0,0,.5-1.53,2.1,2.1,0,0,0-.47-1.44,1.78,1.78,0,0,0-2.16-.29,1.73,1.73,0,0,0-.61.59l-.95-.14.81-4.45h4.09v1h-3.28L358.6,162a2.53,2.53,0,0,1,1.55-.55,2.41,2.41,0,0,1,1.82.78,2.86,2.86,0,0,1,.74,2,3.31,3.31,0,0,1-.65,2,2.58,2.58,0,0,1-2.17,1.05,2.61,2.61,0,0,1-1.84-.66A2.64,2.64,0,0,1,357.24,164.9Z"/><path class="cls-47" d="M363.67,162.89a8.42,8.42,0,0,1,.3-2.48,3.22,3.22,0,0,1,.9-1.45,2.31,2.31,0,0,1,1.51-.5,2.51,2.51,0,0,1,1.18.28,2.22,2.22,0,0,1,.83.81,4.24,4.24,0,0,1,.51,1.29,8.64,8.64,0,0,1,.19,2,8.35,8.35,0,0,1-.3,2.47,3.06,3.06,0,0,1-.9,1.45,2.24,2.24,0,0,1-1.51.5,2.26,2.26,0,0,1-1.89-.88A6,6,0,0,1,363.67,162.89Zm1,0a5.65,5.65,0,0,0,.48,2.85,1.43,1.43,0,0,0,1.19.7,1.4,1.4,0,0,0,1.18-.71,5.63,5.63,0,0,0,.48-2.84,5.79,5.79,0,0,0-.47-2.85,1.41,1.41,0,0,0-1.21-.7,1.31,1.31,0,0,0-1.13.62A5.84,5.84,0,0,0,364.71,162.89Z"/><path class="cls-47" d="M370.26,160.57a2.79,2.79,0,0,1,.44-1.58,1.48,1.48,0,0,1,1.29-.65,1.67,1.67,0,0,1,1.29.58,3.1,3.1,0,0,1,0,3.42,1.63,1.63,0,0,1-1.27.59,1.56,1.56,0,0,1-1.24-.58A2.7,2.7,0,0,1,370.26,160.57ZM372,159.1a.74.74,0,0,0-.63.34,2.17,2.17,0,0,0-.26,1.24,2,2,0,0,0,.26,1.16.75.75,0,0,0,.63.34.78.78,0,0,0,.64-.34,2.17,2.17,0,0,0,.25-1.24,2.05,2.05,0,0,0-.25-1.16A.78.78,0,0,0,372,159.1Zm0,8.4,4.56-9.16h.85l-4.57,9.16Zm3.63-2.36a2.77,2.77,0,0,1,.44-1.58,1.48,1.48,0,0,1,1.29-.65,1.63,1.63,0,0,1,1.28.58,2.51,2.51,0,0,1,.51,1.72,2.56,2.56,0,0,1-.51,1.7,1.63,1.63,0,0,1-1.27.59,1.55,1.55,0,0,1-1.25-.59A2.69,2.69,0,0,1,375.66,165.14Zm1.76-1.47a.77.77,0,0,0-.64.33,2.23,2.23,0,0,0-.25,1.25,2.1,2.1,0,0,0,.25,1.16.77.77,0,0,0,.63.33.76.76,0,0,0,.64-.33,2.17,2.17,0,0,0,.26-1.24,2,2,0,0,0-.26-1.17A.77.77,0,0,0,377.42,163.67Z"/><path class="cls-47" d="M316.62,131.52v-6.3h.92v.89a2.09,2.09,0,0,1,1.89-1,2.47,2.47,0,0,1,1,.2,1.64,1.64,0,0,1,.68.54,2.08,2.08,0,0,1,.31.79,6,6,0,0,1,.06,1v3.87h-1v-3.84a2.94,2.94,0,0,0-.12-1,1.06,1.06,0,0,0-.41-.52,1.25,1.25,0,0,0-.7-.19,1.54,1.54,0,0,0-1.1.43,2.2,2.2,0,0,0-.47,1.65v3.44Z"/><path class="cls-47" d="M327,131.52v-.93a2.19,2.19,0,0,1-1.91,1.07,2.24,2.24,0,0,1-1-.22,1.63,1.63,0,0,1-.68-.53,2.08,2.08,0,0,1-.31-.79,5.74,5.74,0,0,1-.07-1v-3.9h1v3.49a6.69,6.69,0,0,0,.06,1.12,1.14,1.14,0,0,0,.41.66,1.21,1.21,0,0,0,.76.24,1.64,1.64,0,0,0,.86-.24,1.4,1.4,0,0,0,.56-.67,3.59,3.59,0,0,0,.17-1.23v-3.37h1v6.29H327Z"/><path class="cls-47" d="M333.37,129.22l1,.14a2.8,2.8,0,0,1-.83,1.69,2.34,2.34,0,0,1-1.65.61,2.46,2.46,0,0,1-2-.85,3.52,3.52,0,0,1-.74-2.42,4.46,4.46,0,0,1,.32-1.78,2.26,2.26,0,0,1,1-1.15,2.82,2.82,0,0,1,1.42-.38,2.36,2.36,0,0,1,1.59.52,2.49,2.49,0,0,1,.79,1.49l-1,.14a1.69,1.69,0,0,0-.49-1,1.19,1.19,0,0,0-.85-.33,1.52,1.52,0,0,0-1.23.58,2.86,2.86,0,0,0-.48,1.83,3,3,0,0,0,.46,1.85,1.46,1.46,0,0,0,1.2.57,1.33,1.33,0,0,0,1-.38A1.93,1.93,0,0,0,333.37,129.22Z"/><path class="cls-47" d="M335.21,131.52v-8.69h1v8.69Z"/><path class="cls-47" d="M342,129.48l1,.14a2.82,2.82,0,0,1-4.73,1.19,3.42,3.42,0,0,1-.77-2.39,3.56,3.56,0,0,1,.78-2.46,2.56,2.56,0,0,1,2-.88,2.53,2.53,0,0,1,2,.86,3.52,3.52,0,0,1,.76,2.43v.28h-4.49a2.38,2.38,0,0,0,.56,1.58,1.67,1.67,0,0,0,1.28.55,1.54,1.54,0,0,0,1-.31A2.07,2.07,0,0,0,342,129.48Zm-3.42-1.7H342a2.14,2.14,0,0,0-.39-1.21,1.58,1.58,0,0,0-1.29-.62,1.65,1.65,0,0,0-1.21.5A2,2,0,0,0,338.54,127.78Z"/><path class="cls-47" d="M343.85,128.37a3.32,3.32,0,0,1,.93-2.59,2.67,2.67,0,0,1,1.88-.7,2.61,2.61,0,0,1,2,.85,3.35,3.35,0,0,1,.78,2.35,4.34,4.34,0,0,1-.35,1.91,2.4,2.4,0,0,1-1,1.08,2.78,2.78,0,0,1-1.44.39,2.59,2.59,0,0,1-2-.85A3.49,3.49,0,0,1,343.85,128.37Zm1,0a2.76,2.76,0,0,0,.51,1.82,1.56,1.56,0,0,0,1.26.6,1.59,1.59,0,0,0,1.26-.6,2.9,2.9,0,0,0,.5-1.85,2.67,2.67,0,0,0-.51-1.77,1.61,1.61,0,0,0-2.51,0A2.7,2.7,0,0,0,344.89,128.36Z"/><path class="cls-47" d="M352.88,130.57l.14.94a3.18,3.18,0,0,1-.76.1,1.59,1.59,0,0,1-.86-.19,1,1,0,0,1-.43-.48,4.14,4.14,0,0,1-.12-1.26v-3.63h-.76v-.83h.76v-1.56l1-.64v2.2h1v.83h-1v3.67a2.24,2.24,0,0,0,.05.59.48.48,0,0,0,.17.21.68.68,0,0,0,.35.07A4,4,0,0,0,352.88,130.57Z"/><path class="cls-47" d="M353.91,124v-1.21h1V124Zm0,7.48v-6.3h1v6.3Z"/><path class="cls-47" d="M360.31,131.52v-.8a1.83,1.83,0,0,1-1.67.94,2.25,2.25,0,0,1-1.32-.42,2.59,2.59,0,0,1-.94-1.16,4.14,4.14,0,0,1-.33-1.71,4.73,4.73,0,0,1,.3-1.71,2.44,2.44,0,0,1,.9-1.17,2.26,2.26,0,0,1,1.34-.41,1.9,1.9,0,0,1,1,.24,2.06,2.06,0,0,1,.69.62v-3.11h1v8.68h-.95Zm-3.22-3.15a2.79,2.79,0,0,0,.49,1.81,1.41,1.41,0,0,0,2.29,0,2.75,2.75,0,0,0,.46-1.75,3.12,3.12,0,0,0-.47-1.9,1.47,1.47,0,0,0-1.18-.61,1.38,1.38,0,0,0-1.13.59A2.91,2.91,0,0,0,357.09,128.37Z"/><path class="cls-47" d="M367,129.48l1,.14a2.73,2.73,0,0,1-.92,1.5,3,3,0,0,1-3.81-.31,3.42,3.42,0,0,1-.78-2.39,3.52,3.52,0,0,1,.79-2.46,2.56,2.56,0,0,1,2-.88,2.53,2.53,0,0,1,2,.86,3.52,3.52,0,0,1,.76,2.43v.28h-4.49a2.38,2.38,0,0,0,.56,1.58,1.66,1.66,0,0,0,1.27.55,1.52,1.52,0,0,0,1-.31A2,2,0,0,0,367,129.48Zm-3.42-1.7H367a2.22,2.22,0,0,0-.39-1.21,1.61,1.61,0,0,0-1.29-.62,1.65,1.65,0,0,0-1.21.5A2,2,0,0,0,363.59,127.78Z"/><path class="cls-47" d="M323.87,145.44v-8.71h.92v.81a2.47,2.47,0,0,1,.74-.71,2,2,0,0,1,1-.24,2.31,2.31,0,0,1,1.36.42,2.55,2.55,0,0,1,.89,1.17,4.4,4.4,0,0,1,.29,1.65,4.35,4.35,0,0,1-.32,1.74,2.6,2.6,0,0,1-1,1.19,2.47,2.47,0,0,1-1.33.41,1.84,1.84,0,0,1-.91-.23,2,2,0,0,1-.67-.56v3.06Zm.9-5.53a2.87,2.87,0,0,0,.47,1.8,1.43,1.43,0,0,0,1.14.58,1.45,1.45,0,0,0,1.17-.6,3,3,0,0,0,.48-1.87,2.91,2.91,0,0,0-.47-1.8,1.4,1.4,0,0,0-1.14-.6,1.43,1.43,0,0,0-1.15.64A2.89,2.89,0,0,0,324.77,139.91Z"/><path class="cls-47" d="M330.32,143v-6.3h.92v1a2.66,2.66,0,0,1,.64-.9,1.1,1.1,0,0,1,.65-.21,1.9,1.9,0,0,1,1,.35l-.36,1a1.37,1.37,0,0,0-.73-.22.93.93,0,0,0-.59.21,1.09,1.09,0,0,0-.37.59,4,4,0,0,0-.17,1.24V143Z"/><path class="cls-47" d="M338.26,141l1,.15a2.81,2.81,0,0,1-.92,1.5,2.73,2.73,0,0,1-1.72.53,2.7,2.7,0,0,1-2.1-.85,3.45,3.45,0,0,1-.77-2.39,3.56,3.56,0,0,1,.78-2.46,2.58,2.58,0,0,1,2-.88,2.53,2.53,0,0,1,2,.86,3.56,3.56,0,0,1,.76,2.43v.28h-4.5a2.49,2.49,0,0,0,.57,1.59,1.67,1.67,0,0,0,1.27.54,1.52,1.52,0,0,0,1-.31A2.06,2.06,0,0,0,338.26,141Zm-3.42-1.7h3.43a2.23,2.23,0,0,0-.39-1.2,1.59,1.59,0,0,0-1.3-.62,1.61,1.61,0,0,0-1.2.49A2,2,0,0,0,334.84,139.29Z"/><path class="cls-47" d="M340.15,141.13l1-.14a1.57,1.57,0,0,0,.47,1,1.6,1.6,0,0,0,1.08.33,1.53,1.53,0,0,0,1-.3.93.93,0,0,0,.34-.7.67.67,0,0,0-.31-.57,4.36,4.36,0,0,0-1-.36,10,10,0,0,1-1.54-.51,1.64,1.64,0,0,1-.65-.6A1.7,1.7,0,0,1,341,137a2,2,0,0,1,.64-.31,2.73,2.73,0,0,1,.87-.13,3.3,3.3,0,0,1,1.23.21,1.67,1.67,0,0,1,.78.59,2.26,2.26,0,0,1,.35,1l-1,.15a1.17,1.17,0,0,0-.39-.77,1.39,1.39,0,0,0-.91-.27,1.6,1.6,0,0,0-1,.24.7.7,0,0,0-.29.57.61.61,0,0,0,.12.37.87.87,0,0,0,.39.29c.1,0,.39.13.89.27a11.76,11.76,0,0,1,1.49.5,1.42,1.42,0,0,1,.67.56,1.55,1.55,0,0,1,.25.91,1.83,1.83,0,0,1-.3,1,1.88,1.88,0,0,1-.84.73,3.05,3.05,0,0,1-1.26.26,2.69,2.69,0,0,1-1.77-.51A2.42,2.42,0,0,1,340.15,141.13Z"/><path class="cls-47" d="M350.46,141l1,.15a2.82,2.82,0,0,1-4.73,1.18,3.41,3.41,0,0,1-.78-2.39,3.56,3.56,0,0,1,.79-2.46,2.56,2.56,0,0,1,2-.88,2.53,2.53,0,0,1,2,.86,3.56,3.56,0,0,1,.76,2.43v.28H347a2.43,2.43,0,0,0,.56,1.59,1.69,1.69,0,0,0,1.28.54,1.49,1.49,0,0,0,1-.31A2.06,2.06,0,0,0,350.46,141Zm-3.42-1.7h3.43a2.08,2.08,0,0,0-.39-1.2,1.56,1.56,0,0,0-1.29-.62,1.64,1.64,0,0,0-1.21.49A2,2,0,0,0,347,139.29Z"/><path class="cls-47" d="M352.73,143v-6.3h.92v.9a2.1,2.1,0,0,1,1.9-1,2.47,2.47,0,0,1,1,.2,1.6,1.6,0,0,1,.67.54,2.08,2.08,0,0,1,.32.79,7.67,7.67,0,0,1,.05,1V143h-1V139.2a3,3,0,0,0-.12-1,.93.93,0,0,0-.41-.51,1.25,1.25,0,0,0-.7-.2,1.57,1.57,0,0,0-1.1.44,2.2,2.2,0,0,0-.46,1.64V143Z"/><path class="cls-47" d="M361.34,142.08l.14.95a3.71,3.71,0,0,1-.76.09,1.69,1.69,0,0,1-.86-.18,1.07,1.07,0,0,1-.43-.49,4.14,4.14,0,0,1-.12-1.26v-3.63h-.76v-.83h.76v-1.55l1-.64v2.19h1v.83h-1v3.68a2.15,2.15,0,0,0,.05.58.46.46,0,0,0,.18.21.63.63,0,0,0,.34.08Z"/><path class="cls-47" d="M316.24,198.16v-6.29h.92v.89a2.12,2.12,0,0,1,1.89-1,2.31,2.31,0,0,1,1,.21,1.49,1.49,0,0,1,.68.53,2.14,2.14,0,0,1,.31.79,6.13,6.13,0,0,1,.06,1v3.87h-1v-3.83a3,3,0,0,0-.12-1,1.08,1.08,0,0,0-.41-.51,1.25,1.25,0,0,0-.7-.19,1.56,1.56,0,0,0-1.1.43,2.23,2.23,0,0,0-.46,1.64v3.44Z"/><path class="cls-47" d="M326.59,198.16v-.93a2.16,2.16,0,0,1-1.91,1.07,2.38,2.38,0,0,1-1-.21,1.64,1.64,0,0,1-.68-.54,2,2,0,0,1-.31-.79,5.65,5.65,0,0,1-.07-1v-3.9h1v3.49a6.84,6.84,0,0,0,.06,1.13,1.14,1.14,0,0,0,.41.66,1.21,1.21,0,0,0,.76.24,1.65,1.65,0,0,0,.86-.25,1.36,1.36,0,0,0,.56-.67,3.51,3.51,0,0,0,.17-1.23v-3.37h1v6.3Z"/><path class="cls-47" d="M333,195.87l1,.14a2.75,2.75,0,0,1-.83,1.69,2.38,2.38,0,0,1-1.65.6,2.5,2.5,0,0,1-2-.84,3.57,3.57,0,0,1-.74-2.42,4.69,4.69,0,0,1,.32-1.79,2.28,2.28,0,0,1,1-1.14,2.73,2.73,0,0,1,1.42-.38,2.36,2.36,0,0,1,1.59.52,2.46,2.46,0,0,1,.79,1.49l-1,.14a1.83,1.83,0,0,0-.5-1,1.23,1.23,0,0,0-.85-.32,1.49,1.49,0,0,0-1.23.58,2.82,2.82,0,0,0-.48,1.83,3,3,0,0,0,.46,1.84,1.46,1.46,0,0,0,1.2.58,1.41,1.41,0,0,0,1-.38A2,2,0,0,0,333,195.87Z"/><path class="cls-47" d="M334.83,198.16v-8.68h1v8.68Z"/><path class="cls-47" d="M341.58,196.13l1,.14a2.75,2.75,0,0,1-.92,1.5,2.66,2.66,0,0,1-1.72.54,2.71,2.71,0,0,1-2.09-.85,3.42,3.42,0,0,1-.77-2.39,3.6,3.6,0,0,1,.78-2.47,2.58,2.58,0,0,1,2-.87,2.49,2.49,0,0,1,2,.86,3.51,3.51,0,0,1,.77,2.42c0,.07,0,.16,0,.29h-4.49a2.4,2.4,0,0,0,.56,1.58,1.67,1.67,0,0,0,1.28.55,1.49,1.49,0,0,0,1-.31A2.11,2.11,0,0,0,341.58,196.13Zm-3.42-1.71h3.43a2.21,2.21,0,0,0-.39-1.2,1.61,1.61,0,0,0-1.3-.62,1.59,1.59,0,0,0-1.2.5A1.94,1.94,0,0,0,338.16,194.42Z"/><path class="cls-47" d="M343.47,195a3.38,3.38,0,0,1,.92-2.59,2.75,2.75,0,0,1,1.89-.69,2.59,2.59,0,0,1,2,.85,3.31,3.31,0,0,1,.79,2.35,4.2,4.2,0,0,1-.35,1.91,2.45,2.45,0,0,1-1,1.08,2.78,2.78,0,0,1-1.44.39,2.63,2.63,0,0,1-2-.85A3.5,3.5,0,0,1,343.47,195Zm1,0a2.73,2.73,0,0,0,.51,1.81,1.54,1.54,0,0,0,1.26.61,1.57,1.57,0,0,0,1.26-.61A2.87,2.87,0,0,0,348,195a2.7,2.7,0,0,0-.51-1.78,1.61,1.61,0,0,0-2.51,0A2.73,2.73,0,0,0,344.51,195Z"/><path class="cls-47" d="M352.5,197.22l.14.94a3.79,3.79,0,0,1-.77.1,1.58,1.58,0,0,1-.85-.19,1,1,0,0,1-.43-.48,4.14,4.14,0,0,1-.12-1.26v-3.64h-.76v-.82h.76v-1.56l1-.64v2.2h1v.82h-1v3.68a1.8,1.8,0,0,0,.06.59.41.41,0,0,0,.17.2.67.67,0,0,0,.35.08Z"/><path class="cls-47" d="M353.53,190.68v-1.2h1v1.2Zm0,7.48v-6.29h1v6.29Z"/><path class="cls-47" d="M359.93,198.16v-.79a1.84,1.84,0,0,1-1.67.93,2.24,2.24,0,0,1-1.32-.41,2.65,2.65,0,0,1-.94-1.16,4.21,4.21,0,0,1-.33-1.71,4.65,4.65,0,0,1,.3-1.71,2.51,2.51,0,0,1,.9-1.18,2.33,2.33,0,0,1,1.34-.41,1.9,1.9,0,0,1,1,.24,2.17,2.17,0,0,1,.69.62v-3.1h1v8.68ZM356.71,195a2.87,2.87,0,0,0,.49,1.81,1.44,1.44,0,0,0,1.15.6,1.42,1.42,0,0,0,1.14-.58,2.72,2.72,0,0,0,.46-1.74,3.1,3.1,0,0,0-.47-1.9,1.43,1.43,0,0,0-1.17-.61,1.38,1.38,0,0,0-1.14.58A3,3,0,0,0,356.71,195Z"/><path class="cls-47" d="M366.63,196.13l1,.14a2.75,2.75,0,0,1-.92,1.5,2.66,2.66,0,0,1-1.72.54,2.7,2.7,0,0,1-2.09-.85,3.42,3.42,0,0,1-.78-2.39,3.61,3.61,0,0,1,.79-2.47,2.58,2.58,0,0,1,2-.87,2.5,2.5,0,0,1,2,.86,3.51,3.51,0,0,1,.76,2.42c0,.07,0,.16,0,.29h-4.49a2.46,2.46,0,0,0,.57,1.58,1.66,1.66,0,0,0,1.27.55,1.52,1.52,0,0,0,1-.31A2.11,2.11,0,0,0,366.63,196.13Zm-3.42-1.71h3.43a2.13,2.13,0,0,0-.39-1.2,1.61,1.61,0,0,0-1.29-.62,1.59,1.59,0,0,0-1.21.5A1.94,1.94,0,0,0,363.21,194.42Z"/><path class="cls-47" d="M323.56,202.19V201h1v1.2Zm0,7.48v-6.29h1v6.29Z"/><path class="cls-47" d="M330,209.67v-.79a1.84,1.84,0,0,1-1.68.94,2.25,2.25,0,0,1-1.32-.42,2.7,2.7,0,0,1-.93-1.16,4.14,4.14,0,0,1-.33-1.71,4.65,4.65,0,0,1,.3-1.71,2.44,2.44,0,0,1,.9-1.17,2.25,2.25,0,0,1,1.33-.41,2,2,0,0,1,1,.23,2.17,2.17,0,0,1,.69.62V201h1v8.68Zm-3.22-3.14a2.79,2.79,0,0,0,.49,1.81,1.44,1.44,0,0,0,1.15.6,1.42,1.42,0,0,0,1.14-.57,2.75,2.75,0,0,0,.46-1.75,3.12,3.12,0,0,0-.47-1.9,1.43,1.43,0,0,0-1.17-.61,1.4,1.4,0,0,0-1.14.58A3,3,0,0,0,326.74,206.53Z"/><path class="cls-47" d="M336.66,207.64l1,.14a2.73,2.73,0,0,1-.92,1.5A3,3,0,0,1,333,209a3.42,3.42,0,0,1-.78-2.39,3.6,3.6,0,0,1,.78-2.47,2.6,2.6,0,0,1,2-.87,2.53,2.53,0,0,1,2,.86,3.52,3.52,0,0,1,.76,2.43v.28h-4.49a2.38,2.38,0,0,0,.56,1.58,1.66,1.66,0,0,0,1.27.55,1.52,1.52,0,0,0,1-.31A2.11,2.11,0,0,0,336.66,207.64Zm-3.42-1.71h3.43a2.3,2.3,0,0,0-.39-1.2,1.68,1.68,0,0,0-2.5-.12A1.94,1.94,0,0,0,333.24,205.93Z"/><path class="cls-47" d="M338.93,209.67v-6.29h.92v.89a2.11,2.11,0,0,1,1.9-1,2.5,2.5,0,0,1,1,.2,1.6,1.6,0,0,1,.67.54,2.08,2.08,0,0,1,.31.79,5.91,5.91,0,0,1,.06,1v3.88h-1v-3.83a3,3,0,0,0-.12-1,1.06,1.06,0,0,0-.41-.52,1.33,1.33,0,0,0-.7-.19,1.57,1.57,0,0,0-1.1.44,2.2,2.2,0,0,0-.46,1.64v3.44Z"/><path class="cls-47" d="M347.54,208.73l.14.94a3.79,3.79,0,0,1-.77.1,1.58,1.58,0,0,1-.85-.19,1,1,0,0,1-.43-.48,4.14,4.14,0,0,1-.12-1.26v-3.63h-.76v-.83h.76v-1.56l1-.64v2.2h1v.83h-1v3.67a2.24,2.24,0,0,0,.05.59.42.42,0,0,0,.17.2.59.59,0,0,0,.35.08Z"/><path class="cls-47" d="M348.58,202.19V201h1v1.2Zm0,7.48v-6.29h1v6.29Z"/><path class="cls-47" d="M353.32,208.73l.14.94a3.88,3.88,0,0,1-.77.1,1.58,1.58,0,0,1-.85-.19,1,1,0,0,1-.43-.48,4,4,0,0,1-.13-1.26v-3.63h-.75v-.83h.75v-1.56l1-.64v2.2h1v.83h-1v3.67a1.76,1.76,0,0,0,.06.59.37.37,0,0,0,.17.2.59.59,0,0,0,.35.08Z"/><path class="cls-47" d="M354.36,212.1l-.14-1a2.36,2.36,0,0,0,.6.09,1.3,1.3,0,0,0,.56-.11,1.1,1.1,0,0,0,.34-.34,4.7,4.7,0,0,0,.32-.8l.09-.26-2.29-6.32h1.09l1.26,3.63c.16.46.31,1,.44,1.46a14.34,14.34,0,0,1,.41-1.42l1.27-3.67h1l-2.24,6.41a11.87,11.87,0,0,1-.59,1.42,2,2,0,0,1-.63.77,1.4,1.4,0,0,1-.85.25A1.88,1.88,0,0,1,354.36,212.1Z"/><path class="cls-47" d="M339.65,242.18v-1H345V242a12,12,0,0,0-1.57,2.34,15.08,15.08,0,0,0-1.19,3,11.59,11.59,0,0,0-.39,2.39h-1a11.2,11.2,0,0,1,.38-2.47,13.31,13.31,0,0,1,1.05-2.8,11.64,11.64,0,0,1,1.46-2.28Z"/><path class="cls-47" d="M346,247.46l1-.09a2,2,0,0,0,.55,1.22,1.45,1.45,0,0,0,1,.41,1.57,1.57,0,0,0,1.25-.58,2.25,2.25,0,0,0,.5-1.53,2,2,0,0,0-.48-1.43,1.62,1.62,0,0,0-1.27-.53,1.7,1.7,0,0,0-.88.23,1.75,1.75,0,0,0-.61.6l-.95-.14.8-4.45h4.1v1H347.8l-.45,2.35a2.63,2.63,0,0,1,1.56-.55,2.36,2.36,0,0,1,1.81.79,2.8,2.8,0,0,1,.74,2,3.22,3.22,0,0,1-.65,2,2.81,2.81,0,0,1-4,.39A2.64,2.64,0,0,1,346,247.46Z"/><path class="cls-47" d="M352.59,243.14a2.7,2.7,0,0,1,.45-1.58,1.43,1.43,0,0,1,1.28-.65,1.63,1.63,0,0,1,1.29.58,2.54,2.54,0,0,1,.51,1.72,2.46,2.46,0,0,1-.52,1.69,1.6,1.6,0,0,1-1.27.6,1.57,1.57,0,0,1-1.24-.59A2.69,2.69,0,0,1,352.59,243.14Zm1.76-1.48a.78.78,0,0,0-.63.34,2.19,2.19,0,0,0-.25,1.24,2,2,0,0,0,.25,1.16.76.76,0,0,0,1.27,0,2.17,2.17,0,0,0,.25-1.24A2,2,0,0,0,355,242,.78.78,0,0,0,354.35,241.66Zm0,8.4,4.56-9.15h.85l-4.57,9.15Zm3.63-2.35a2.8,2.8,0,0,1,.44-1.59,1.48,1.48,0,0,1,1.3-.64,1.63,1.63,0,0,1,1.28.58,3.13,3.13,0,0,1,0,3.41,1.61,1.61,0,0,1-1.27.6,1.56,1.56,0,0,1-1.24-.59A2.65,2.65,0,0,1,358,247.71Zm1.76-1.48a.78.78,0,0,0-.64.34,2.28,2.28,0,0,0-.25,1.24,2,2,0,0,0,.26,1.16.78.78,0,0,0,.62.34.76.76,0,0,0,.65-.34,2.15,2.15,0,0,0,.25-1.23,2,2,0,0,0-.26-1.17A.74.74,0,0,0,359.75,246.23Z"/><path class="cls-51" d="M315.7,249.73v-8.68h1.12l4.37,6.83v-6.83h1v8.68h-1.11l-4.38-6.83v6.83Z"/><path class="cls-52" d="M315.7,225.23v-8.68h1.12l4.37,6.83v-6.83h1v8.68h-1.11l-4.38-6.83v6.83Z"/><path class="cls-47" d="M339.72,223.22l1-.09a1.77,1.77,0,0,0,.47,1,1.24,1.24,0,0,0,.89.33,1.59,1.59,0,0,0,.82-.22,1.64,1.64,0,0,0,.57-.6,3.64,3.64,0,0,0,.37-1,5.7,5.7,0,0,0,.15-1.3v-.22a2.36,2.36,0,0,1-.83.83,2.15,2.15,0,0,1-1.13.32,2.24,2.24,0,0,1-1.72-.79,3,3,0,0,1-.7-2.06,3.05,3.05,0,0,1,.74-2.13,2.42,2.42,0,0,1,1.85-.8,2.55,2.55,0,0,1,1.47.45,2.76,2.76,0,0,1,1,1.3,6.49,6.49,0,0,1,.35,2.44,8.28,8.28,0,0,1-.34,2.65,3.13,3.13,0,0,1-1,1.5,2.56,2.56,0,0,1-1.59.51,2.24,2.24,0,0,1-1.58-.57A2.43,2.43,0,0,1,339.72,223.22Zm4.14-3.82a2.15,2.15,0,0,0-.46-1.46,1.39,1.39,0,0,0-1.11-.54,1.49,1.49,0,0,0-1.18.58,2.24,2.24,0,0,0-.49,1.5,1.92,1.92,0,0,0,.46,1.35,1.51,1.51,0,0,0,1.18.52,1.45,1.45,0,0,0,1.15-.52A2.1,2.1,0,0,0,343.86,219.4Z"/><path class="cls-47" d="M346.07,217.68v-1h5.35v.83a12.46,12.46,0,0,0-1.56,2.34,14.54,14.54,0,0,0-1.2,3,12.3,12.3,0,0,0-.39,2.39h-1a10.87,10.87,0,0,1,.39-2.48,13.7,13.7,0,0,1,1-2.8,12.36,12.36,0,0,1,1.46-2.27Z"/><path class="cls-47" d="M352.59,218.64a2.7,2.7,0,0,1,.45-1.58,1.44,1.44,0,0,1,1.28-.66,1.64,1.64,0,0,1,1.29.59,2.53,2.53,0,0,1,.51,1.71,2.49,2.49,0,0,1-.52,1.7,1.6,1.6,0,0,1-1.27.6,1.57,1.57,0,0,1-1.24-.59A2.69,2.69,0,0,1,352.59,218.64Zm1.76-1.48a.78.78,0,0,0-.63.34,2.2,2.2,0,0,0-.25,1.25,2,2,0,0,0,.25,1.15.76.76,0,0,0,1.27,0,2.15,2.15,0,0,0,.25-1.23,2,2,0,0,0-.25-1.17A.76.76,0,0,0,354.35,217.16Zm0,8.4,4.56-9.16h.85l-4.57,9.16Zm3.63-2.35a2.8,2.8,0,0,1,.44-1.59,1.49,1.49,0,0,1,1.3-.65,1.64,1.64,0,0,1,1.28.59,3.13,3.13,0,0,1,0,3.41,1.61,1.61,0,0,1-1.27.6,1.56,1.56,0,0,1-1.24-.59A2.67,2.67,0,0,1,358,223.21Zm1.76-1.48a.76.76,0,0,0-.64.34,2.25,2.25,0,0,0-.25,1.24,2,2,0,0,0,.26,1.16.78.78,0,0,0,.62.34.79.79,0,0,0,.65-.34,2.19,2.19,0,0,0,.25-1.24,2,2,0,0,0-.26-1.16A.74.74,0,0,0,359.75,221.73Z"/><path class="cls-47" d="M315.7,237.48V228.8h1.12l4.37,6.83V228.8h1v8.68h-1.11l-4.38-6.83v6.83Z"/><path class="cls-47" d="M339.72,235.47l1-.1a1.81,1.81,0,0,0,.47,1,1.24,1.24,0,0,0,.89.33,1.58,1.58,0,0,0,1.39-.83,3.41,3.41,0,0,0,.37-1,5.55,5.55,0,0,0,.15-1.29v-.22a2.36,2.36,0,0,1-.83.83,2.14,2.14,0,0,1-1.13.31,2.23,2.23,0,0,1-1.72-.78,3,3,0,0,1-.7-2.06,3.05,3.05,0,0,1,.74-2.13,2.42,2.42,0,0,1,1.85-.8,2.55,2.55,0,0,1,1.47.45,2.76,2.76,0,0,1,1,1.3A6.49,6.49,0,0,1,345,233a8.17,8.17,0,0,1-.34,2.64,3,3,0,0,1-1,1.5,2.51,2.51,0,0,1-1.59.52,2.24,2.24,0,0,1-1.58-.57A2.43,2.43,0,0,1,339.72,235.47Zm4.14-3.82a2.17,2.17,0,0,0-.46-1.46,1.39,1.39,0,0,0-1.11-.54,1.49,1.49,0,0,0-1.18.58,2.25,2.25,0,0,0-.49,1.51,1.91,1.91,0,0,0,.46,1.34,1.51,1.51,0,0,0,1.18.52,1.45,1.45,0,0,0,1.15-.52A2.1,2.1,0,0,0,343.86,231.65Z"/><path class="cls-47" d="M346,233.2a8.42,8.42,0,0,1,.3-2.48,3.15,3.15,0,0,1,.91-1.45,2.28,2.28,0,0,1,1.5-.5,2.48,2.48,0,0,1,1.18.28,2.32,2.32,0,0,1,.84.81,4.76,4.76,0,0,1,.5,1.29,8.64,8.64,0,0,1,.19,2,8.35,8.35,0,0,1-.3,2.47,3.06,3.06,0,0,1-.9,1.45,2.48,2.48,0,0,1-3.39-.38A5.88,5.88,0,0,1,346,233.2Zm1,0a5.65,5.65,0,0,0,.48,2.85,1.41,1.41,0,0,0,1.19.7,1.37,1.37,0,0,0,1.18-.71,5.55,5.55,0,0,0,.49-2.84,5.65,5.65,0,0,0-.48-2.85,1.41,1.41,0,0,0-1.2-.7,1.34,1.34,0,0,0-1.14.62A5.87,5.87,0,0,0,347,233.2Z"/><path class="cls-47" d="M352.59,230.89a2.7,2.7,0,0,1,.45-1.58,1.43,1.43,0,0,1,1.28-.65,1.63,1.63,0,0,1,1.29.58,2.53,2.53,0,0,1,.51,1.71,2.47,2.47,0,0,1-.52,1.7,1.6,1.6,0,0,1-1.27.6,1.57,1.57,0,0,1-1.24-.59A2.69,2.69,0,0,1,352.59,230.89Zm1.76-1.48a.78.78,0,0,0-.63.34,2.2,2.2,0,0,0-.25,1.25,2,2,0,0,0,.25,1.15.76.76,0,0,0,1.27,0,2.15,2.15,0,0,0,.25-1.23,2,2,0,0,0-.25-1.17A.76.76,0,0,0,354.35,229.41Zm0,8.4,4.56-9.15h.85l-4.57,9.15Zm3.63-2.35a2.8,2.8,0,0,1,.44-1.59,1.48,1.48,0,0,1,1.3-.64,1.63,1.63,0,0,1,1.28.58,3.13,3.13,0,0,1,0,3.41,1.61,1.61,0,0,1-1.27.6,1.56,1.56,0,0,1-1.24-.59A2.67,2.67,0,0,1,358,235.46Zm1.76-1.48a.76.76,0,0,0-.64.34,2.28,2.28,0,0,0-.25,1.24,2,2,0,0,0,.26,1.16.78.78,0,0,0,.62.34.79.79,0,0,0,.65-.34,2.19,2.19,0,0,0,.25-1.24,2,2,0,0,0-.26-1.16A.75.75,0,0,0,359.75,234Z"/><path class="cls-53" d="M286.43,69.66l1,.14a2.8,2.8,0,0,1-.83,1.69,2.4,2.4,0,0,1-1.65.6,2.48,2.48,0,0,1-2-.84,3.52,3.52,0,0,1-.74-2.42,4.69,4.69,0,0,1,.31-1.79,2.3,2.3,0,0,1,1-1.14,2.71,2.71,0,0,1,1.42-.39,2.34,2.34,0,0,1,1.58.53,2.42,2.42,0,0,1,.8,1.49l-1,.14a1.75,1.75,0,0,0-.49-1,1.25,1.25,0,0,0-.85-.32,1.52,1.52,0,0,0-1.24.58,3.85,3.85,0,0,0,0,3.67,1.45,1.45,0,0,0,1.2.58,1.41,1.41,0,0,0,1-.38A2,2,0,0,0,286.43,69.66Z"/><path class="cls-53" d="M287.86,68.8a3.34,3.34,0,0,1,.93-2.59,2.72,2.72,0,0,1,1.88-.7,2.63,2.63,0,0,1,2,.85,3.33,3.33,0,0,1,.79,2.36,4.37,4.37,0,0,1-.35,1.91,2.54,2.54,0,0,1-1,1.08,2.93,2.93,0,0,1-1.45.38,2.62,2.62,0,0,1-2-.84A3.5,3.5,0,0,1,287.86,68.8Zm1,0a2.73,2.73,0,0,0,.51,1.81,1.61,1.61,0,0,0,2.52,0,2.88,2.88,0,0,0,.5-1.85,2.73,2.73,0,0,0-.5-1.77,1.59,1.59,0,0,0-1.26-.6,1.56,1.56,0,0,0-1.26.6A2.73,2.73,0,0,0,288.9,68.8Z"/><path class="cls-53" d="M296.22,72,294,65.65H295l1.29,3.77c.14.41.26.83.38,1.27.09-.33.22-.73.38-1.2l1.34-3.84h1L297.21,72Z"/><path class="cls-53" d="M304.12,71.17a3.4,3.4,0,0,1-1.08.71,3,3,0,0,1-1.12.21,2.1,2.1,0,0,1-1.52-.51,1.68,1.68,0,0,1-.54-1.29,1.75,1.75,0,0,1,.73-1.46,2.35,2.35,0,0,1,.73-.35,6.51,6.51,0,0,1,.91-.16,9.73,9.73,0,0,0,1.82-.37v-.28a1.22,1.22,0,0,0-.28-.92,1.68,1.68,0,0,0-1.16-.36,1.78,1.78,0,0,0-1.06.26,1.64,1.64,0,0,0-.5.94l-1-.14a2.61,2.61,0,0,1,.45-1.08,1.87,1.87,0,0,1,.9-.64,4,4,0,0,1,1.36-.22,3.61,3.61,0,0,1,1.25.19,1.49,1.49,0,0,1,1,1.2,7,7,0,0,1,.05,1v1.43a17.08,17.08,0,0,0,.06,1.88,2.29,2.29,0,0,0,.25.75h-1.05A2.77,2.77,0,0,1,304.12,71.17Zm-.07-2.39a7,7,0,0,1-1.66.41,3.5,3.5,0,0,0-.89.21.94.94,0,0,0-.41.35,1,1,0,0,0-.14.51.92.92,0,0,0,.31.72,1.3,1.3,0,0,0,.9.29,2,2,0,0,0,1-.27,1.63,1.63,0,0,0,.67-.75,2.67,2.67,0,0,0,.17-1.07Z"/><path class="cls-53" d="M306.62,72v-6.3h.92v1a2.63,2.63,0,0,1,.64-.89,1.11,1.11,0,0,1,.65-.22,1.93,1.93,0,0,1,1,.35l-.36,1a1.5,1.5,0,0,0-.74-.22.94.94,0,0,0-.59.22,1.15,1.15,0,0,0-.37.58,4.42,4.42,0,0,0-.17,1.24V72Z"/><path class="cls-53" d="M310.7,74.38l-.14-1a2,2,0,0,0,.6.1,1.07,1.07,0,0,0,.55-.12.93.93,0,0,0,.35-.33,5.6,5.6,0,0,0,.32-.8l.09-.26-2.29-6.33h1.09l1.26,3.64c.16.46.31.95.44,1.45.11-.47.25-.94.41-1.41l1.27-3.68h1l-2.25,6.42a10.71,10.71,0,0,1-.58,1.42,2.08,2.08,0,0,1-.63.77,1.47,1.47,0,0,1-.85.25A2.19,2.19,0,0,1,310.7,74.38Z"/><path class="cls-53" d="M316.57,64.47v-1.2h1v1.2Zm0,7.48v-6.3h1V72Z"/><path class="cls-53" d="M319.09,72v-6.3H320v.9a2.12,2.12,0,0,1,1.89-1,2.31,2.31,0,0,1,1,.21,1.49,1.49,0,0,1,.68.53,2.14,2.14,0,0,1,.31.79,6,6,0,0,1,.06,1V72h-1V68.12a3,3,0,0,0-.12-1,1,1,0,0,0-.41-.51,1.25,1.25,0,0,0-.7-.2,1.57,1.57,0,0,0-1.1.44,2.22,2.22,0,0,0-.46,1.64V72Z"/><path class="cls-53" d="M325.33,72.47l1,.14a1.07,1.07,0,0,0,.35.72,1.59,1.59,0,0,0,1,.3,1.69,1.69,0,0,0,1.08-.3,1.41,1.41,0,0,0,.52-.83,8,8,0,0,0,.07-1.38,2,2,0,0,1-1.67.83A2.21,2.21,0,0,1,325.8,71a3.65,3.65,0,0,1-.68-2.24,4.27,4.27,0,0,1,.31-1.66,2.65,2.65,0,0,1,.9-1.18,2.36,2.36,0,0,1,1.39-.42,2.09,2.09,0,0,1,1.75.93v-.79h.93V71.1a5.36,5.36,0,0,1-.29,2.08,2.16,2.16,0,0,1-.9,1,3,3,0,0,1-1.52.36A2.78,2.78,0,0,1,326,74,1.74,1.74,0,0,1,325.33,72.47Zm.83-3.78a2.84,2.84,0,0,0,.47,1.81,1.45,1.45,0,0,0,1.18.58,1.47,1.47,0,0,0,1.18-.57,2.72,2.72,0,0,0,.48-1.78A2.65,2.65,0,0,0,329,67a1.5,1.5,0,0,0-1.18-.59,1.43,1.43,0,0,0-1.16.58A2.65,2.65,0,0,0,326.16,68.69Z"/><path class="cls-53" d="M335.15,72v-6.3h.9v.89a2.24,2.24,0,0,1,.75-.75,2.07,2.07,0,0,1,1.06-.28,1.9,1.9,0,0,1,1.09.29,1.58,1.58,0,0,1,.61.82,2.12,2.12,0,0,1,1.85-1.11,1.82,1.82,0,0,1,1.38.52,2.3,2.3,0,0,1,.48,1.6V72h-1V68a2.94,2.94,0,0,0-.1-.92.84.84,0,0,0-.36-.45,1,1,0,0,0-.61-.18,1.34,1.34,0,0,0-1,.45,2,2,0,0,0-.42,1.41V72h-1V67.86a1.86,1.86,0,0,0-.25-1.07.89.89,0,0,0-.8-.35,1.38,1.38,0,0,0-.79.23,1.31,1.31,0,0,0-.53.7,4,4,0,0,0-.16,1.31V72Z"/><path class="cls-53" d="M348.7,72V71a2.19,2.19,0,0,1-1.91,1.07,2.38,2.38,0,0,1-1-.21,1.57,1.57,0,0,1-.68-.54,1.93,1.93,0,0,1-.31-.79,4.82,4.82,0,0,1-.07-1v-3.9h1v3.49a6.84,6.84,0,0,0,.06,1.13,1.14,1.14,0,0,0,.41.66,1.21,1.21,0,0,0,.76.24,1.65,1.65,0,0,0,.86-.25,1.32,1.32,0,0,0,.56-.67,3.51,3.51,0,0,0,.17-1.23V65.65h1V72Z"/><path class="cls-53" d="M353.41,71l.15.94a3.8,3.8,0,0,1-.77.09,1.72,1.72,0,0,1-.86-.18,1,1,0,0,1-.42-.48,3.78,3.78,0,0,1-.13-1.27V66.48h-.75v-.82h.75V64.1l1-.64v2.2h1v.82h-1v3.68a2.15,2.15,0,0,0,.05.58.46.46,0,0,0,.18.21A.63.63,0,0,0,353,71Z"/><path class="cls-53" d="M358.33,71.17a3.4,3.4,0,0,1-1.08.71,3,3,0,0,1-1.13.21,2.1,2.1,0,0,1-1.52-.51,1.68,1.68,0,0,1-.53-1.29,1.87,1.87,0,0,1,.2-.85,1.65,1.65,0,0,1,.53-.61,2.25,2.25,0,0,1,.73-.35,6,6,0,0,1,.91-.16,9.59,9.59,0,0,0,1.81-.37c0-.15,0-.24,0-.28a1.22,1.22,0,0,0-.29-.92,1.66,1.66,0,0,0-1.16-.36,1.74,1.74,0,0,0-1.05.26,1.65,1.65,0,0,0-.51.94l-1-.14a2.61,2.61,0,0,1,.45-1.08,2,2,0,0,1,.9-.64,4.06,4.06,0,0,1,1.37-.22,3.61,3.61,0,0,1,1.25.19,1.46,1.46,0,0,1,1,1.2,5.73,5.73,0,0,1,0,1v1.43a14,14,0,0,0,.07,1.88,2.27,2.27,0,0,0,.24.75h-1A2.23,2.23,0,0,1,358.33,71.17Zm-.07-2.39a7.07,7.07,0,0,1-1.67.41,3.5,3.5,0,0,0-.89.21,1,1,0,0,0-.55.86.92.92,0,0,0,.31.72,1.3,1.3,0,0,0,.9.29,2,2,0,0,0,1.05-.27,1.63,1.63,0,0,0,.67-.75,2.67,2.67,0,0,0,.17-1.07Z"/><path class="cls-53" d="M363,71l.14.94a3.8,3.8,0,0,1-.77.09,1.72,1.72,0,0,1-.86-.18,1,1,0,0,1-.43-.48,4.54,4.54,0,0,1-.12-1.27V66.48h-.75v-.82H361V64.1l1-.64v2.2h1v.82h-1v3.68a2.15,2.15,0,0,0,.05.58.46.46,0,0,0,.18.21.65.65,0,0,0,.35.08Z"/><path class="cls-53" d="M364.05,64.47v-1.2h1v1.2Zm0,7.48v-6.3h1V72Z"/><path class="cls-53" d="M366.19,68.8a3.38,3.38,0,0,1,.92-2.59,2.73,2.73,0,0,1,1.89-.7,2.63,2.63,0,0,1,2,.85,3.38,3.38,0,0,1,.79,2.36,4.37,4.37,0,0,1-.35,1.91,2.57,2.57,0,0,1-1,1.08,2.87,2.87,0,0,1-1.44.38,2.65,2.65,0,0,1-2-.84A3.54,3.54,0,0,1,366.19,68.8Zm1,0a2.73,2.73,0,0,0,.5,1.81,1.56,1.56,0,0,0,1.27.61,1.54,1.54,0,0,0,1.25-.61,2.82,2.82,0,0,0,.51-1.85,2.67,2.67,0,0,0-.51-1.77,1.62,1.62,0,0,0-2.52,0A2.79,2.79,0,0,0,367.23,68.8Z"/><path class="cls-53" d="M373,72v-6.3h.92v.9a2.12,2.12,0,0,1,1.9-1,2.31,2.31,0,0,1,1,.21,1.51,1.51,0,0,1,.67.53,2.15,2.15,0,0,1,.32.79,7.78,7.78,0,0,1,0,1V72h-1V68.12a3,3,0,0,0-.12-1,1.08,1.08,0,0,0-.41-.51,1.25,1.25,0,0,0-.7-.2,1.57,1.57,0,0,0-1.1.44,2.22,2.22,0,0,0-.46,1.64V72Z"/><path class="cls-53" d="M379,70.06l1-.14a1.45,1.45,0,0,0,.47,1,1.53,1.53,0,0,0,1.07.34,1.56,1.56,0,0,0,1-.3.93.93,0,0,0,.33-.7.64.64,0,0,0-.31-.57,4,4,0,0,0-1-.37,7.73,7.73,0,0,1-1.53-.51,1.46,1.46,0,0,1-.65-.6,1.6,1.6,0,0,1-.22-.84,1.71,1.71,0,0,1,.68-1.38,2.12,2.12,0,0,1,.64-.31,3,3,0,0,1,.87-.12,3.34,3.34,0,0,1,1.23.21,1.71,1.71,0,0,1,.78.58,2.39,2.39,0,0,1,.35,1l-1,.14a1.13,1.13,0,0,0-.39-.76,1.35,1.35,0,0,0-.9-.28,1.59,1.59,0,0,0-1,.25.71.71,0,0,0-.3.57.56.56,0,0,0,.13.37.84.84,0,0,0,.38.29l.89.27a13.47,13.47,0,0,1,1.49.49,1.63,1.63,0,0,1,.68.56,1.66,1.66,0,0,1,.24.92,1.89,1.89,0,0,1-1.14,1.73,3,3,0,0,1-1.26.26,2.65,2.65,0,0,1-1.77-.52A2.39,2.39,0,0,1,379,70.06Z"/><path class="cls-53" d="M258.44,60.6h-.95V51.91h1V55a2,2,0,0,1,1.64-.85,2.51,2.51,0,0,1,1.05.23,2.3,2.3,0,0,1,.82.66,3.47,3.47,0,0,1,.5,1,4.45,4.45,0,0,1,.18,1.28,3.73,3.73,0,0,1-.77,2.51,2.32,2.32,0,0,1-1.83.88,1.88,1.88,0,0,1-1.66-.93v.79Zm0-3.2a3.36,3.36,0,0,0,.3,1.64,1.45,1.45,0,0,0,1.3.82,1.47,1.47,0,0,0,1.16-.6,2.91,2.91,0,0,0,.48-1.82,2.94,2.94,0,0,0-.46-1.82,1.41,1.41,0,0,0-1.13-.58,1.45,1.45,0,0,0-1.16.6A2.75,2.75,0,0,0,258.41,57.4Z"/><path class="cls-53" d="M267.87,59.82a3.81,3.81,0,0,1-1.09.71,3,3,0,0,1-1.12.21,2.1,2.1,0,0,1-1.52-.51,1.69,1.69,0,0,1-.53-1.29,1.71,1.71,0,0,1,.72-1.46,2.3,2.3,0,0,1,.74-.35A5.82,5.82,0,0,1,266,57a9,9,0,0,0,1.82-.37v-.28a1.24,1.24,0,0,0-.28-.92,1.66,1.66,0,0,0-1.16-.36,1.7,1.7,0,0,0-1.06.27,1.67,1.67,0,0,0-.5.94l-1-.15a2.67,2.67,0,0,1,.45-1.08,1.84,1.84,0,0,1,.9-.63,3.76,3.76,0,0,1,1.36-.23,3.57,3.57,0,0,1,1.25.19,1.64,1.64,0,0,1,.71.48,1.69,1.69,0,0,1,.32.73,6.84,6.84,0,0,1,.05,1V58a17.08,17.08,0,0,0,.06,1.88,2.29,2.29,0,0,0,.25.75h-1A2.36,2.36,0,0,1,267.87,59.82Zm-.07-2.39a7.15,7.15,0,0,1-1.67.4,4,4,0,0,0-.89.22.93.93,0,0,0-.41.35,1,1,0,0,0-.14.51,1,1,0,0,0,.31.71,1.3,1.3,0,0,0,.9.29,2,2,0,0,0,1.05-.27,1.57,1.57,0,0,0,.67-.75,2.67,2.67,0,0,0,.17-1.07Z"/><path class="cls-53" d="M270,58.7l1-.14a1.51,1.51,0,0,0,.46,1,1.62,1.62,0,0,0,1.08.33,1.53,1.53,0,0,0,1-.3.93.93,0,0,0,.34-.7.65.65,0,0,0-.31-.57,3.78,3.78,0,0,0-1-.36,9.37,9.37,0,0,1-1.53-.51,1.52,1.52,0,0,1-.65-.6,1.66,1.66,0,0,1-.22-.85,1.72,1.72,0,0,1,.18-.78,1.86,1.86,0,0,1,.49-.59,2,2,0,0,1,.65-.31,2.73,2.73,0,0,1,.87-.13,3.37,3.37,0,0,1,1.23.21,1.72,1.72,0,0,1,.78.59,2.26,2.26,0,0,1,.35,1l-1,.15a1.16,1.16,0,0,0-.38-.77,1.39,1.39,0,0,0-.91-.27,1.6,1.6,0,0,0-1,.24.71.71,0,0,0-.3.57.62.62,0,0,0,.13.37.89.89,0,0,0,.38.29l.89.27a12.06,12.06,0,0,1,1.5.5,1.47,1.47,0,0,1,.67.56,1.6,1.6,0,0,1,.24.91,1.82,1.82,0,0,1-.29,1,1.9,1.9,0,0,1-.85.73,3,3,0,0,1-1.26.26,2.66,2.66,0,0,1-1.76-.51A2.39,2.39,0,0,1,270,58.7Z"/><path class="cls-53" d="M280.29,58.56l1,.14a2.52,2.52,0,0,1-2.64,2,2.68,2.68,0,0,1-2.09-.85,3.4,3.4,0,0,1-.77-2.39,3.58,3.58,0,0,1,.78-2.46,2.56,2.56,0,0,1,2-.88,2.52,2.52,0,0,1,2,.86,3.56,3.56,0,0,1,.76,2.43v.28h-4.49a2.43,2.43,0,0,0,.56,1.59,1.69,1.69,0,0,0,1.28.54,1.54,1.54,0,0,0,1-.31A2,2,0,0,0,280.29,58.56Zm-3.42-1.7h3.43a2.08,2.08,0,0,0-.39-1.2,1.56,1.56,0,0,0-1.29-.62,1.64,1.64,0,0,0-1.21.49A2,2,0,0,0,276.87,56.86Z"/><path class="cls-53" d="M285.75,63V54.3h.92v.81a2.36,2.36,0,0,1,.74-.71,2,2,0,0,1,1-.24,2.31,2.31,0,0,1,1.36.42,2.55,2.55,0,0,1,.89,1.17A4.61,4.61,0,0,1,291,57.4a4.35,4.35,0,0,1-.32,1.74,2.62,2.62,0,0,1-1,1.19,2.39,2.39,0,0,1-1.32.41,1.83,1.83,0,0,1-.91-.22,2.18,2.18,0,0,1-.67-.57V63Zm.9-5.53a2.87,2.87,0,0,0,.47,1.8,1.4,1.4,0,0,0,1.14.58,1.48,1.48,0,0,0,1.17-.6,3,3,0,0,0,.48-1.87,2.91,2.91,0,0,0-.47-1.8,1.37,1.37,0,0,0-2.29,0A2.89,2.89,0,0,0,286.65,57.48Z"/><path class="cls-53" d="M296.12,59.82a3.78,3.78,0,0,1-1.08.71,3,3,0,0,1-1.12.21,2.14,2.14,0,0,1-1.53-.51,1.73,1.73,0,0,1-.53-1.29,1.75,1.75,0,0,1,.73-1.46,2.35,2.35,0,0,1,.73-.35,6.51,6.51,0,0,1,.91-.16A8.7,8.7,0,0,0,296,56.6c0-.15,0-.24,0-.28a1.2,1.2,0,0,0-.29-.92,1.63,1.63,0,0,0-1.15-.36,1.7,1.7,0,0,0-1.06.27,1.67,1.67,0,0,0-.51.94l-1-.15a2.67,2.67,0,0,1,.45-1.08,1.79,1.79,0,0,1,.9-.63,3.76,3.76,0,0,1,1.36-.23,3.61,3.61,0,0,1,1.25.19,1.7,1.7,0,0,1,.71.48,1.57,1.57,0,0,1,.31.73,5.32,5.32,0,0,1,.06,1V58a17.08,17.08,0,0,0,.06,1.88,2.29,2.29,0,0,0,.25.75h-1.05A2.63,2.63,0,0,1,296.12,59.82Zm-.07-2.39a7,7,0,0,1-1.66.4,3.88,3.88,0,0,0-.89.22.93.93,0,0,0-.41.35,1,1,0,0,0-.14.51.92.92,0,0,0,.31.71,1.3,1.3,0,0,0,.9.29,2.05,2.05,0,0,0,1-.27,1.63,1.63,0,0,0,.67-.75,2.7,2.7,0,0,0,.16-1.07Z"/><path class="cls-53" d="M298.67,53.12V51.91h1v1.21Zm0,7.48V54.3h1v6.3Z"/><path class="cls-53" d="M301.18,60.6V54.3h.93v1a2.5,2.5,0,0,1,.64-.89,1,1,0,0,1,.64-.22,1.88,1.88,0,0,1,1,.35l-.36,1a1.37,1.37,0,0,0-.73-.22.93.93,0,0,0-.59.21,1.17,1.17,0,0,0-.38.59,4.43,4.43,0,0,0-.16,1.24V60.6Z"/><path class="cls-53" d="M312.17,59.82a3.78,3.78,0,0,1-1.08.71,3,3,0,0,1-1.13.21,2.12,2.12,0,0,1-1.52-.51,1.73,1.73,0,0,1-.53-1.29,1.87,1.87,0,0,1,.2-.85,1.65,1.65,0,0,1,.53-.61,2.35,2.35,0,0,1,.73-.35,6,6,0,0,1,.91-.16,8.85,8.85,0,0,0,1.81-.37c0-.15,0-.24,0-.28a1.24,1.24,0,0,0-.29-.92,1.63,1.63,0,0,0-1.15-.36,1.7,1.7,0,0,0-1.06.27,1.61,1.61,0,0,0-.51.94l-1-.15a2.53,2.53,0,0,1,.44-1.08,1.88,1.88,0,0,1,.9-.63,3.86,3.86,0,0,1,1.37-.23,3.61,3.61,0,0,1,1.25.19,1.7,1.7,0,0,1,.71.48,1.57,1.57,0,0,1,.31.73,5.59,5.59,0,0,1,.05,1V58a16.11,16.11,0,0,0,.07,1.88,2.53,2.53,0,0,0,.24.75h-1A2.36,2.36,0,0,1,312.17,59.82Zm-.07-2.39a7.15,7.15,0,0,1-1.67.4,4,4,0,0,0-.89.22.86.86,0,0,0-.4.35.89.89,0,0,0-.14.51.94.94,0,0,0,.3.71,1.31,1.31,0,0,0,.91.29,2,2,0,0,0,1-.27,1.57,1.57,0,0,0,.67-.75,2.67,2.67,0,0,0,.17-1.07Z"/><path class="cls-53" d="M314.67,60.6V54.3h.92v.9a2.12,2.12,0,0,1,1.89-1,2.31,2.31,0,0,1,1,.21,1.54,1.54,0,0,1,.68.53,2.08,2.08,0,0,1,.31.79,6,6,0,0,1,.06,1V60.6h-1V56.77a3,3,0,0,0-.12-1,1.08,1.08,0,0,0-.41-.51,1.25,1.25,0,0,0-.7-.2,1.55,1.55,0,0,0-1.1.44,2.17,2.17,0,0,0-.47,1.64V60.6Z"/><path class="cls-53" d="M321.09,60.6V54.3H322v.9a2.12,2.12,0,0,1,1.9-1,2.34,2.34,0,0,1,1,.21,1.51,1.51,0,0,1,.67.53,1.93,1.93,0,0,1,.31.79,6,6,0,0,1,.06,1V60.6h-1V56.77a3,3,0,0,0-.12-1,1,1,0,0,0-.41-.51,1.25,1.25,0,0,0-.7-.2,1.57,1.57,0,0,0-1.1.44,2.22,2.22,0,0,0-.46,1.64V60.6Z"/><path class="cls-53" d="M327.14,57.45a3.31,3.31,0,0,1,.92-2.59A2.85,2.85,0,0,1,332,55a3.35,3.35,0,0,1,.78,2.35,4.35,4.35,0,0,1-.34,1.91,2.54,2.54,0,0,1-1,1.09,2.93,2.93,0,0,1-1.45.38,2.59,2.59,0,0,1-2-.85A3.47,3.47,0,0,1,327.14,57.45Zm1,0a2.73,2.73,0,0,0,.5,1.81,1.62,1.62,0,0,0,2.52,0,2.84,2.84,0,0,0,.5-1.85,2.67,2.67,0,0,0-.5-1.77,1.62,1.62,0,0,0-2.52,0A2.73,2.73,0,0,0,328.18,57.45Z"/><path class="cls-53" d="M336.16,59.65l.15.94a3.32,3.32,0,0,1-.77.1,1.69,1.69,0,0,1-.86-.18,1.12,1.12,0,0,1-.43-.49,4.14,4.14,0,0,1-.12-1.26V55.13h-.76V54.3h.76V52.75l1-.64V54.3h1v.83h-1v3.68a2.15,2.15,0,0,0,.05.58.51.51,0,0,0,.17.21.7.7,0,0,0,.35.08Z"/><path class="cls-53" d="M341.08,59.82a3.68,3.68,0,0,1-1.09.71,3,3,0,0,1-1.12.21,2.1,2.1,0,0,1-1.52-.51,1.69,1.69,0,0,1-.53-1.29,1.75,1.75,0,0,1,.2-.85,1.73,1.73,0,0,1,.52-.61,2.35,2.35,0,0,1,.73-.35,6.51,6.51,0,0,1,.91-.16A9,9,0,0,0,341,56.6v-.28a1.24,1.24,0,0,0-.28-.92,1.66,1.66,0,0,0-1.16-.36,1.7,1.7,0,0,0-1.06.27,1.67,1.67,0,0,0-.5.94l-1-.15a2.67,2.67,0,0,1,.45-1.08,1.88,1.88,0,0,1,.9-.63,3.8,3.8,0,0,1,1.36-.23,3.67,3.67,0,0,1,1.26.19,1.73,1.73,0,0,1,.7.48,1.58,1.58,0,0,1,.32.73,6.84,6.84,0,0,1,0,1V58a17.08,17.08,0,0,0,.06,1.88,2.29,2.29,0,0,0,.25.75h-1A2.36,2.36,0,0,1,341.08,59.82ZM341,57.43a7,7,0,0,1-1.66.4,3.88,3.88,0,0,0-.89.22.88.88,0,0,0-.41.35,1,1,0,0,0-.14.51.92.92,0,0,0,.31.71,1.3,1.3,0,0,0,.9.29,2,2,0,0,0,1.05-.27,1.63,1.63,0,0,0,.67-.75,2.7,2.7,0,0,0,.16-1.07Z"/><path class="cls-53" d="M345.76,59.65l.14.94a3.18,3.18,0,0,1-.76.1,1.69,1.69,0,0,1-.86-.18,1.06,1.06,0,0,1-.43-.49,4.14,4.14,0,0,1-.12-1.26V55.13H343V54.3h.76V52.75l1-.64V54.3h1v.83h-1v3.68a1.79,1.79,0,0,0,.05.58.39.39,0,0,0,.17.21.67.67,0,0,0,.35.08Z"/><path class="cls-53" d="M346.79,53.12V51.91h1v1.21Zm0,7.48V54.3h1v6.3Z"/><path class="cls-53" d="M348.93,57.45a3.32,3.32,0,0,1,.93-2.59,2.85,2.85,0,0,1,3.9.15,3.35,3.35,0,0,1,.78,2.35,4.2,4.2,0,0,1-.35,1.91,2.46,2.46,0,0,1-1,1.09,2.93,2.93,0,0,1-1.45.38,2.59,2.59,0,0,1-2-.85A3.47,3.47,0,0,1,348.93,57.45Zm1.05,0a2.73,2.73,0,0,0,.5,1.81,1.59,1.59,0,0,0,1.26.6,1.56,1.56,0,0,0,1.26-.6,2.84,2.84,0,0,0,.5-1.85,2.67,2.67,0,0,0-.5-1.77,1.62,1.62,0,0,0-2.52,0A2.73,2.73,0,0,0,350,57.45Z"/><path class="cls-53" d="M355.74,60.6V54.3h.92v.9a2.12,2.12,0,0,1,1.89-1,2.31,2.31,0,0,1,1,.21,1.54,1.54,0,0,1,.68.53,2.08,2.08,0,0,1,.31.79,6,6,0,0,1,.06,1V60.6h-1V56.77a3,3,0,0,0-.12-1,1.08,1.08,0,0,0-.41-.51,1.25,1.25,0,0,0-.7-.2,1.55,1.55,0,0,0-1.1.44,2.17,2.17,0,0,0-.46,1.64V60.6Z"/><path class="cls-53" d="M361.78,58.7l1-.14a1.57,1.57,0,0,0,.47,1,1.6,1.6,0,0,0,1.08.33,1.51,1.51,0,0,0,1-.3.93.93,0,0,0,.34-.7.65.65,0,0,0-.31-.57,3.93,3.93,0,0,0-1-.36,9.37,9.37,0,0,1-1.53-.51,1.52,1.52,0,0,1-.65-.6A1.66,1.66,0,0,1,362,56a1.85,1.85,0,0,1,.17-.78,1.9,1.9,0,0,1,.5-.59,2,2,0,0,1,.64-.31,2.73,2.73,0,0,1,.87-.13,3.3,3.3,0,0,1,1.23.21,1.62,1.62,0,0,1,.78.59,2.26,2.26,0,0,1,.35,1l-1,.15a1.17,1.17,0,0,0-.39-.77,1.37,1.37,0,0,0-.91-.27,1.6,1.6,0,0,0-1,.24.73.73,0,0,0-.29.57.61.61,0,0,0,.12.37.87.87,0,0,0,.39.29c.1,0,.39.13.89.27a11.21,11.21,0,0,1,1.49.5,1.42,1.42,0,0,1,.67.56,1.53,1.53,0,0,1,.25.91,1.94,1.94,0,0,1-1.14,1.73,3,3,0,0,1-1.26.26,2.67,2.67,0,0,1-1.77-.51A2.47,2.47,0,0,1,361.78,58.7Z"/><path class="cls-53" d="M286.43,80.26l1,.14a2.8,2.8,0,0,1-.83,1.69,2.4,2.4,0,0,1-1.65.61,2.46,2.46,0,0,1-2-.85,3.52,3.52,0,0,1-.74-2.42,4.64,4.64,0,0,1,.31-1.78,2.33,2.33,0,0,1,1-1.15,2.8,2.8,0,0,1,1.42-.38,2.33,2.33,0,0,1,1.58.52,2.44,2.44,0,0,1,.8,1.49l-1,.14a1.83,1.83,0,0,0-.49-1A1.25,1.25,0,0,0,285,77a1.52,1.52,0,0,0-1.24.58,2.93,2.93,0,0,0-.47,1.83,3,3,0,0,0,.46,1.85,1.46,1.46,0,0,0,1.2.57,1.37,1.37,0,0,0,1-.38A2,2,0,0,0,286.43,80.26Z"/><path class="cls-53" d="M287.86,79.41a3.32,3.32,0,0,1,.93-2.59,2.67,2.67,0,0,1,1.88-.7,2.59,2.59,0,0,1,2,.85,3.31,3.31,0,0,1,.79,2.35,4.34,4.34,0,0,1-.35,1.91,2.49,2.49,0,0,1-1,1.08,2.84,2.84,0,0,1-1.45.39,2.63,2.63,0,0,1-2-.85A3.49,3.49,0,0,1,287.86,79.41Zm1,0a2.76,2.76,0,0,0,.51,1.82,1.62,1.62,0,0,0,2.52,0,2.9,2.9,0,0,0,.5-1.85,2.73,2.73,0,0,0-.5-1.77,1.6,1.6,0,0,0-1.26-.61,1.56,1.56,0,0,0-1.26.6A2.75,2.75,0,0,0,288.9,79.4Z"/><path class="cls-53" d="M294.67,82.55V76.26h.9v.88a2.09,2.09,0,0,1,1.81-1,1.82,1.82,0,0,1,1.09.29,1.52,1.52,0,0,1,.61.81,2.13,2.13,0,0,1,1.85-1.1,1.82,1.82,0,0,1,1.38.51,2.35,2.35,0,0,1,.48,1.6v4.32h-1v-4a3.29,3.29,0,0,0-.1-.92.89.89,0,0,0-.36-.45,1.12,1.12,0,0,0-.61-.17,1.33,1.33,0,0,0-1,.44,2,2,0,0,0-.42,1.42v3.66h-1v-4.1A1.89,1.89,0,0,0,298,77.4a.92.92,0,0,0-.81-.36,1.39,1.39,0,0,0-.79.24,1.32,1.32,0,0,0-.53.69,4.14,4.14,0,0,0-.16,1.32v3.27h-1Z"/><path class="cls-53" d="M304.26,85V76.26h.93v.81a2.2,2.2,0,0,1,.74-.72,2,2,0,0,1,1-.23,2.26,2.26,0,0,1,1.36.41,2.52,2.52,0,0,1,.89,1.17,4.49,4.49,0,0,1,.3,1.66,4.42,4.42,0,0,1-.33,1.74,2.57,2.57,0,0,1-1,1.18,2.33,2.33,0,0,1-1.32.41,1.87,1.87,0,0,1-.92-.22,2,2,0,0,1-.66-.57V85Zm.9-5.53a2.87,2.87,0,0,0,.47,1.8,1.43,1.43,0,0,0,2.31,0,3.77,3.77,0,0,0,0-3.68,1.42,1.42,0,0,0-1.14-.6,1.46,1.46,0,0,0-1.15.64A2.94,2.94,0,0,0,305.16,79.44Z"/><path class="cls-53" d="M314.64,81.77a3.63,3.63,0,0,1-1.08.72,3,3,0,0,1-1.13.2,2.1,2.1,0,0,1-1.52-.5,1.73,1.73,0,0,1-.53-1.3,1.8,1.8,0,0,1,.2-.84,1.69,1.69,0,0,1,.53-.62,2.47,2.47,0,0,1,.73-.35,6,6,0,0,1,.91-.16,8.21,8.21,0,0,0,1.81-.37c0-.14,0-.24,0-.28a1.24,1.24,0,0,0-.29-.92,2.11,2.11,0,0,0-2.21-.09,1.61,1.61,0,0,0-.51.94l-1-.14A2.66,2.66,0,0,1,311,77a2,2,0,0,1,.9-.63,3.82,3.82,0,0,1,1.37-.22,3.39,3.39,0,0,1,1.25.19,1.66,1.66,0,0,1,.71.47,1.8,1.8,0,0,1,.31.73,6.84,6.84,0,0,1,.05,1v1.43a14,14,0,0,0,.07,1.88,2.27,2.27,0,0,0,.24.75h-1A2.23,2.23,0,0,1,314.64,81.77Zm-.07-2.39a7.07,7.07,0,0,1-1.67.41A4.16,4.16,0,0,0,312,80a.91.91,0,0,0-.4.35,1,1,0,0,0-.15.51,1,1,0,0,0,.31.72,1.3,1.3,0,0,0,.9.29,2,2,0,0,0,1.05-.27,1.6,1.6,0,0,0,.67-.74,2.76,2.76,0,0,0,.17-1.08Z"/><path class="cls-53" d="M319.33,81.61l.14.94a3.26,3.26,0,0,1-.77.1,1.61,1.61,0,0,1-.86-.19,1,1,0,0,1-.42-.48,3.74,3.74,0,0,1-.13-1.26V77.09h-.75v-.83h.75V74.7l1-.64v2.2h1v.83h-1v3.67a2.24,2.24,0,0,0,.05.59.52.52,0,0,0,.18.21.66.66,0,0,0,.35.07A4,4,0,0,0,319.33,81.61Z"/><path class="cls-53" d="M320.36,75.07v-1.2h1v1.2Zm0,7.48V76.26h1v6.29Z"/><path class="cls-53" d="M323.8,82.55h-.95V73.87h1V77a2,2,0,0,1,1.65-.84,2.35,2.35,0,0,1,1,.23,2.3,2.3,0,0,1,.82.66,3.24,3.24,0,0,1,.5,1,4.45,4.45,0,0,1,.18,1.28,3.75,3.75,0,0,1-.76,2.5,2.34,2.34,0,0,1-1.84.88,1.9,1.9,0,0,1-1.66-.92v.78Zm0-3.19a3.39,3.39,0,0,0,.3,1.64,1.43,1.43,0,0,0,2.46.21A2.87,2.87,0,0,0,327,79.4a2.92,2.92,0,0,0-.47-1.82,1.41,1.41,0,0,0-1.13-.59,1.46,1.46,0,0,0-1.16.61A2.73,2.73,0,0,0,323.77,79.36Z"/><path class="cls-53" d="M329.27,82.55V73.87h1v8.68Z"/><path class="cls-53" d="M336,80.52l1,.14a2.82,2.82,0,0,1-4.73,1.19,3.42,3.42,0,0,1-.77-2.39,3.56,3.56,0,0,1,.78-2.46,2.56,2.56,0,0,1,2-.88,2.52,2.52,0,0,1,2,.86,3.51,3.51,0,0,1,.76,2.42v.29h-4.49a2.38,2.38,0,0,0,.56,1.58,1.67,1.67,0,0,0,1.28.55,1.54,1.54,0,0,0,1-.31A2.17,2.17,0,0,0,336,80.52Zm-3.42-1.7H336a2.14,2.14,0,0,0-.39-1.21,1.58,1.58,0,0,0-1.29-.62,1.65,1.65,0,0,0-1.21.5A2,2,0,0,0,332.6,78.82Z"/><path class="cls-53" d="M341.5,82.55V76.26h.9v.88a2.13,2.13,0,0,1,.75-.74,2,2,0,0,1,1.07-.28,1.84,1.84,0,0,1,1.09.29,1.5,1.5,0,0,1,.6.81,2.15,2.15,0,0,1,1.86-1.1,1.78,1.78,0,0,1,1.37.51,2.3,2.3,0,0,1,.48,1.6v4.32h-1v-4a3.29,3.29,0,0,0-.1-.92.89.89,0,0,0-.36-.45,1.12,1.12,0,0,0-.61-.17,1.37,1.37,0,0,0-1.05.44,2.08,2.08,0,0,0-.41,1.42v3.66h-1v-4.1a1.8,1.8,0,0,0-.25-1.06A.9.9,0,0,0,344,77a1.43,1.43,0,0,0-.79.24,1.36,1.36,0,0,0-.52.69,4.14,4.14,0,0,0-.16,1.32v3.27h-1Z"/><path class="cls-53" d="M355.05,82.55v-.92a2.18,2.18,0,0,1-1.9,1.07,2.32,2.32,0,0,1-1-.22,1.61,1.61,0,0,1-.69-.54,2.11,2.11,0,0,1-.31-.79,5.84,5.84,0,0,1-.06-1v-3.9h1v3.48a6.75,6.75,0,0,0,.06,1.13,1.09,1.09,0,0,0,.41.66,1.17,1.17,0,0,0,.76.24,1.61,1.61,0,0,0,.85-.24,1.37,1.37,0,0,0,.57-.67,3.62,3.62,0,0,0,.16-1.23V76.26h1v6.29Z"/><path class="cls-53" d="M359.77,81.61l.14.94a3.18,3.18,0,0,1-.76.1,1.59,1.59,0,0,1-.86-.19,1,1,0,0,1-.43-.48,4.14,4.14,0,0,1-.12-1.26V77.09H357v-.83h.76V74.7l1-.64v2.2h1v.83h-1v3.67a2.24,2.24,0,0,0,.05.59.43.43,0,0,0,.17.21.68.68,0,0,0,.35.07A3.8,3.8,0,0,0,359.77,81.61Z"/><path class="cls-53" d="M364.68,81.77a3.63,3.63,0,0,1-1.08.72,3,3,0,0,1-1.12.2,2.14,2.14,0,0,1-1.53-.5,1.73,1.73,0,0,1-.53-1.3,1.79,1.79,0,0,1,.73-1.46,2.59,2.59,0,0,1,.73-.35,6.51,6.51,0,0,1,.91-.16,8.21,8.21,0,0,0,1.81-.37c0-.14,0-.24,0-.28a1.2,1.2,0,0,0-.29-.92,1.63,1.63,0,0,0-1.15-.36,1.7,1.7,0,0,0-1.06.27,1.56,1.56,0,0,0-.5.94l-1-.14A2.66,2.66,0,0,1,361,77a1.92,1.92,0,0,1,.9-.63,3.77,3.77,0,0,1,1.36-.22,3.39,3.39,0,0,1,1.25.19,1.6,1.6,0,0,1,.71.47,1.81,1.81,0,0,1,.32.73,6.84,6.84,0,0,1,.05,1v1.43a17.08,17.08,0,0,0,.06,1.88,2.53,2.53,0,0,0,.24.75h-1A2.47,2.47,0,0,1,364.68,81.77Zm-.07-2.39a7,7,0,0,1-1.66.41,4,4,0,0,0-.89.21.94.94,0,0,0-.41.35,1,1,0,0,0-.14.51.92.92,0,0,0,.31.72,1.28,1.28,0,0,0,.9.29,2.05,2.05,0,0,0,1-.27,1.65,1.65,0,0,0,.67-.74,2.79,2.79,0,0,0,.16-1.08Z"/><path class="cls-53" d="M369.37,81.61l.14.94a3.19,3.19,0,0,1-.77.1,1.58,1.58,0,0,1-.85-.19,1,1,0,0,1-.43-.48,4.14,4.14,0,0,1-.12-1.26V77.09h-.76v-.83h.76V74.7l1-.64v2.2h1v.83h-1v3.67a1.76,1.76,0,0,0,.06.59.43.43,0,0,0,.17.21.68.68,0,0,0,.35.07A3.8,3.8,0,0,0,369.37,81.61Z"/><path class="cls-53" d="M370.4,75.07v-1.2h1v1.2Zm0,7.48V76.26h1v6.29Z"/><path class="cls-53" d="M372.54,79.41a3.35,3.35,0,0,1,.92-2.59,2.71,2.71,0,0,1,1.89-.7,2.63,2.63,0,0,1,2,.85,3.35,3.35,0,0,1,.78,2.35,4.34,4.34,0,0,1-.35,1.91,2.45,2.45,0,0,1-1,1.08,2.78,2.78,0,0,1-1.44.39,2.63,2.63,0,0,1-2-.85A3.49,3.49,0,0,1,372.54,79.41Zm1,0a2.82,2.82,0,0,0,.5,1.82,1.6,1.6,0,0,0,1.27.6,1.58,1.58,0,0,0,1.26-.6,2.9,2.9,0,0,0,.5-1.85,2.67,2.67,0,0,0-.51-1.77,1.57,1.57,0,0,0-1.25-.61,1.6,1.6,0,0,0-1.27.6A2.81,2.81,0,0,0,373.58,79.4Z"/><path class="cls-53" d="M379.34,82.55V76.26h.93v.89a2.09,2.09,0,0,1,1.89-1,2.31,2.31,0,0,1,1,.21,1.49,1.49,0,0,1,.68.54,2.28,2.28,0,0,1,.31.78,7.43,7.43,0,0,1,.06,1v3.87h-1V78.72a2.94,2.94,0,0,0-.12-1,1.06,1.06,0,0,0-.41-.52,1.27,1.27,0,0,0-.7-.19,1.56,1.56,0,0,0-1.11.43,2.23,2.23,0,0,0-.46,1.64v3.44Z"/><path class="cls-53" d="M385.39,80.66l1-.14a1.51,1.51,0,0,0,.47,1,1.9,1.9,0,0,0,2.11,0,.91.91,0,0,0,.33-.7.66.66,0,0,0-.3-.57,3.9,3.9,0,0,0-1-.36,8.88,8.88,0,0,1-1.53-.52,1.55,1.55,0,0,1-.65-.59,1.66,1.66,0,0,1-.22-.85,1.72,1.72,0,0,1,.18-.78,1.68,1.68,0,0,1,.5-.59,1.82,1.82,0,0,1,.64-.31,2.73,2.73,0,0,1,.87-.13,3.3,3.3,0,0,1,1.23.21,1.78,1.78,0,0,1,.78.58,2.36,2.36,0,0,1,.35,1l-1,.15a1.22,1.22,0,0,0-.39-.77,1.39,1.39,0,0,0-.91-.28,1.59,1.59,0,0,0-1,.25.7.7,0,0,0-.29.57.55.55,0,0,0,.12.37.89.89,0,0,0,.38.29l.89.27a12.06,12.06,0,0,1,1.5.5,1.47,1.47,0,0,1,.67.56,1.63,1.63,0,0,1,.25.91,1.83,1.83,0,0,1-.3,1,1.9,1.9,0,0,1-.85.73,3,3,0,0,1-1.25.26,2.67,2.67,0,0,1-1.77-.51A2.45,2.45,0,0,1,385.39,80.66Z"/><path class="cls-53" d="M282.52,93.16v-6.3h.92v.89a2.11,2.11,0,0,1,1.9-1,2.47,2.47,0,0,1,1,.2,1.6,1.6,0,0,1,.67.54,2.08,2.08,0,0,1,.32.79,7.21,7.21,0,0,1,.06,1v3.87h-1.05V89.32a2.94,2.94,0,0,0-.12-1,1,1,0,0,0-.41-.52,1.33,1.33,0,0,0-.7-.19,1.57,1.57,0,0,0-1.1.44,2.22,2.22,0,0,0-.46,1.64v3.44Z"/><path class="cls-53" d="M288.57,90a3.35,3.35,0,0,1,.92-2.59,2.69,2.69,0,0,1,1.88-.7,2.6,2.6,0,0,1,2,.85,3.31,3.31,0,0,1,.79,2.35,4.34,4.34,0,0,1-.35,1.91,2.54,2.54,0,0,1-1,1.09,2.88,2.88,0,0,1-1.45.38,2.62,2.62,0,0,1-2-.85A3.47,3.47,0,0,1,288.57,90Zm1,0a2.82,2.82,0,0,0,.5,1.82,1.62,1.62,0,0,0,2.52,0,2.84,2.84,0,0,0,.51-1.85,2.67,2.67,0,0,0-.51-1.77,1.62,1.62,0,0,0-2.52,0A2.78,2.78,0,0,0,289.61,90Z"/><path class="cls-53" d="M298.58,93.16v-6.3h.9v.89a2.24,2.24,0,0,1,.75-.75,2,2,0,0,1,1.07-.28,1.94,1.94,0,0,1,1.09.29,1.6,1.6,0,0,1,.6.81,2.15,2.15,0,0,1,1.86-1.1,1.75,1.75,0,0,1,1.37.52,2.3,2.3,0,0,1,.48,1.6v4.32h-1v-4a2.9,2.9,0,0,0-.1-.92.88.88,0,0,0-.35-.46,1.12,1.12,0,0,0-.61-.17,1.4,1.4,0,0,0-1.05.44,2,2,0,0,0-.41,1.42v3.66h-1V89.07a1.92,1.92,0,0,0-.25-1.07.91.91,0,0,0-.81-.36,1.41,1.41,0,0,0-.79.24,1.36,1.36,0,0,0-.52.69,4.1,4.1,0,0,0-.17,1.32v3.27Z"/><path class="cls-53" d="M312.13,93.16v-.93a2.18,2.18,0,0,1-1.9,1.07,2.32,2.32,0,0,1-1-.22,1.67,1.67,0,0,1-.69-.53,2.25,2.25,0,0,1-.31-.79,6,6,0,0,1-.06-1v-3.9h1v3.49a6.69,6.69,0,0,0,.06,1.12,1.09,1.09,0,0,0,.41.66,1.19,1.19,0,0,0,.76.24,1.61,1.61,0,0,0,.85-.24,1.37,1.37,0,0,0,.57-.67,3.62,3.62,0,0,0,.16-1.23V86.86h1v6.29h-.9Z"/><path class="cls-53" d="M316.85,92.21l.14,1a3.71,3.71,0,0,1-.76.09,1.69,1.69,0,0,1-.86-.18,1.06,1.06,0,0,1-.43-.49,4.14,4.14,0,0,1-.12-1.26V87.69h-.76v-.83h.76V85.31l1-.64v2.19h1v.83h-1v3.67a2.24,2.24,0,0,0,.05.59.39.39,0,0,0,.17.21.67.67,0,0,0,.35.08Z"/><path class="cls-53" d="M321.76,92.38a3.78,3.78,0,0,1-1.08.71,3,3,0,0,1-1.12.21,2.1,2.1,0,0,1-1.52-.51,1.7,1.7,0,0,1-.54-1.3,1.83,1.83,0,0,1,.2-.84,2,2,0,0,1,.53-.62,2.33,2.33,0,0,1,.73-.34,6.51,6.51,0,0,1,.91-.16,9.73,9.73,0,0,0,1.82-.37v-.28a1.18,1.18,0,0,0-.29-.92,1.62,1.62,0,0,0-1.15-.36,1.78,1.78,0,0,0-1.06.26,1.64,1.64,0,0,0-.5.94l-1-.14a2.55,2.55,0,0,1,.45-1.08,1.92,1.92,0,0,1,.9-.64,4,4,0,0,1,1.36-.22,3.39,3.39,0,0,1,1.25.19,1.54,1.54,0,0,1,.71.48,1.7,1.7,0,0,1,.32.72,6.9,6.9,0,0,1,0,1v1.42a17.08,17.08,0,0,0,.06,1.88,2.27,2.27,0,0,0,.25.76h-1A2.36,2.36,0,0,1,321.76,92.38ZM321.69,90a7,7,0,0,1-1.66.4,3.88,3.88,0,0,0-.89.22.88.88,0,0,0-.41.35,1,1,0,0,0-.14.51.92.92,0,0,0,.31.71,1.25,1.25,0,0,0,.9.29,2.05,2.05,0,0,0,1.05-.27,1.65,1.65,0,0,0,.67-.74,2.72,2.72,0,0,0,.16-1.08Z"/><path class="cls-53" d="M326.45,92.21l.14,1a3.72,3.72,0,0,1-.77.09,1.68,1.68,0,0,1-.85-.18,1,1,0,0,1-.43-.49,4,4,0,0,1-.13-1.26V87.69h-.75v-.83h.75V85.31l1-.64v2.19h1v.83h-1v3.67a1.86,1.86,0,0,0,.05.59.39.39,0,0,0,.17.21.67.67,0,0,0,.35.08Z"/><path class="cls-53" d="M327.48,85.68V84.47h1v1.21Zm0,7.48v-6.3h1v6.3Z"/><path class="cls-53" d="M329.62,90a3.32,3.32,0,0,1,.93-2.59,2.67,2.67,0,0,1,1.88-.7,2.59,2.59,0,0,1,2,.85,3.31,3.31,0,0,1,.79,2.35,4.34,4.34,0,0,1-.35,1.91,2.48,2.48,0,0,1-1,1.09,2.87,2.87,0,0,1-1.44.38,2.59,2.59,0,0,1-2-.85A3.47,3.47,0,0,1,329.62,90Zm1,0a2.76,2.76,0,0,0,.51,1.82,1.62,1.62,0,0,0,2.52,0,2.9,2.9,0,0,0,.5-1.85,2.73,2.73,0,0,0-.5-1.77,1.59,1.59,0,0,0-1.26-.6,1.56,1.56,0,0,0-1.26.6A2.72,2.72,0,0,0,330.66,90Z"/><path class="cls-53" d="M336.42,93.16v-6.3h.92v.89a2.11,2.11,0,0,1,1.9-1,2.47,2.47,0,0,1,1,.2,1.64,1.64,0,0,1,.68.54,2.25,2.25,0,0,1,.31.79,6,6,0,0,1,.06,1v3.87h-1V89.32a2.94,2.94,0,0,0-.12-1,1.06,1.06,0,0,0-.41-.52,1.36,1.36,0,0,0-.7-.19,1.53,1.53,0,0,0-1.1.44,2.17,2.17,0,0,0-.47,1.64v3.44Z"/><path class="cls-53" d="M342.47,91.26l1-.14a1.57,1.57,0,0,0,.47,1,1.59,1.59,0,0,0,1.07.33,1.54,1.54,0,0,0,1-.3.93.93,0,0,0,.34-.7.67.67,0,0,0-.31-.57,3.9,3.9,0,0,0-1-.36A8.88,8.88,0,0,1,343.5,90a1.55,1.55,0,0,1-.65-.59,1.66,1.66,0,0,1-.22-.85,1.72,1.72,0,0,1,.18-.78,1.68,1.68,0,0,1,.5-.59,1.82,1.82,0,0,1,.64-.31,2.73,2.73,0,0,1,.87-.13,3.3,3.3,0,0,1,1.23.21,1.78,1.78,0,0,1,.78.58,2.36,2.36,0,0,1,.35,1l-1,.15a1.19,1.19,0,0,0-.39-.77,1.39,1.39,0,0,0-.91-.27,1.6,1.6,0,0,0-1,.24.7.7,0,0,0-.29.57.61.61,0,0,0,.12.37.87.87,0,0,0,.39.29c.09,0,.39.13.89.27a11.21,11.21,0,0,1,1.49.5,1.42,1.42,0,0,1,.67.56,1.55,1.55,0,0,1,.25.91,1.83,1.83,0,0,1-.3,1,1.8,1.8,0,0,1-.85.73,3,3,0,0,1-1.25.26,2.69,2.69,0,0,1-1.77-.51A2.42,2.42,0,0,1,342.47,91.26Z"/><path class="cls-53" d="M282.14,103.87a3.32,3.32,0,0,1,.93-2.59,2.85,2.85,0,0,1,3.9.15,3.37,3.37,0,0,1,.78,2.35,4.4,4.4,0,0,1-.34,1.92,2.63,2.63,0,0,1-1,1.08,2.93,2.93,0,0,1-1.45.38,2.59,2.59,0,0,1-2-.85A3.47,3.47,0,0,1,282.14,103.87Zm1.05,0a2.73,2.73,0,0,0,.5,1.81,1.61,1.61,0,0,0,2.52,0,2.88,2.88,0,0,0,.5-1.85,2.73,2.73,0,0,0-.5-1.77,1.62,1.62,0,0,0-2.52,0A2.73,2.73,0,0,0,283.19,103.87Z"/><path class="cls-53" d="M289.87,107h-.95V98.33h1v3.1a2,2,0,0,1,1.65-.85,2.33,2.33,0,0,1,1,.24,2.1,2.1,0,0,1,.82.65,3.41,3.41,0,0,1,.5,1,4.4,4.4,0,0,1,.18,1.28,3.77,3.77,0,0,1-.76,2.5,2.34,2.34,0,0,1-1.83.88,1.89,1.89,0,0,1-1.67-.93V107Zm0-3.2a3.36,3.36,0,0,0,.3,1.64,1.43,1.43,0,0,0,2.46.22,2.89,2.89,0,0,0,.49-1.81,3,3,0,0,0-.47-1.83,1.4,1.4,0,0,0-1.13-.58,1.46,1.46,0,0,0-1.16.6A2.75,2.75,0,0,0,289.84,103.82Z"/><path class="cls-53" d="M295,105.12l1-.14a1.51,1.51,0,0,0,.46,1,1.62,1.62,0,0,0,1.08.33,1.53,1.53,0,0,0,1-.29.91.91,0,0,0,.34-.71.65.65,0,0,0-.31-.57,4.67,4.67,0,0,0-1-.36,9.37,9.37,0,0,1-1.53-.51,1.52,1.52,0,0,1-.65-.6,1.62,1.62,0,0,1-.22-.84,1.73,1.73,0,0,1,.67-1.38,2,2,0,0,1,.64-.31,2.73,2.73,0,0,1,.87-.13,3.29,3.29,0,0,1,1.23.22,1.69,1.69,0,0,1,.79.58,2.4,2.4,0,0,1,.34,1l-1,.14a1.15,1.15,0,0,0-.39-.76,1.32,1.32,0,0,0-.91-.28,1.55,1.55,0,0,0-1,.24.74.74,0,0,0-.3.57.64.64,0,0,0,.12.38.86.86,0,0,0,.39.28l.88.28a11.34,11.34,0,0,1,1.5.49,1.55,1.55,0,0,1,.67.56,1.57,1.57,0,0,1,.25.91,1.93,1.93,0,0,1-1.15,1.74,2.94,2.94,0,0,1-1.25.26,2.69,2.69,0,0,1-1.77-.52A2.4,2.4,0,0,1,295,105.12Z"/><path class="cls-53" d="M305.3,105l1,.14a2.52,2.52,0,0,1-2.64,2,2.66,2.66,0,0,1-2.09-.85,3.41,3.41,0,0,1-.78-2.39,3.52,3.52,0,0,1,.79-2.46,2.56,2.56,0,0,1,2-.88,2.53,2.53,0,0,1,2,.86,3.56,3.56,0,0,1,.76,2.43v.28h-4.5a2.49,2.49,0,0,0,.57,1.59,1.67,1.67,0,0,0,1.27.54,1.57,1.57,0,0,0,1-.31A2.07,2.07,0,0,0,305.3,105Zm-3.42-1.7h3.43a2.13,2.13,0,0,0-.39-1.2,1.56,1.56,0,0,0-1.29-.62,1.64,1.64,0,0,0-1.21.49A2,2,0,0,0,301.88,103.28Z"/><path class="cls-53" d="M307.57,107v-6.3h.92v1a2.63,2.63,0,0,1,.64-.89,1,1,0,0,1,.65-.22,1.87,1.87,0,0,1,1,.35l-.36,1a1.43,1.43,0,0,0-.73-.21.93.93,0,0,0-.59.21,1.15,1.15,0,0,0-.37.59,4.42,4.42,0,0,0-.17,1.24V107Z"/><path class="cls-53" d="M313.35,107l-2.26-6.3h1.09l1.28,3.77c.14.41.27.83.39,1.27.09-.33.21-.73.37-1.2l1.34-3.84h1l-2.26,6.3Z"/><path class="cls-53" d="M321.52,105l1,.14a2.8,2.8,0,0,1-.92,1.51,2.73,2.73,0,0,1-1.72.53,2.66,2.66,0,0,1-2.09-.85,3.4,3.4,0,0,1-.77-2.39,3.51,3.51,0,0,1,.78-2.46,2.72,2.72,0,0,1,4,0,3.56,3.56,0,0,1,.76,2.43v.28h-4.49a2.43,2.43,0,0,0,.56,1.59,1.69,1.69,0,0,0,1.27.54,1.52,1.52,0,0,0,1-.31A2,2,0,0,0,321.52,105Zm-3.42-1.7h3.43a2.13,2.13,0,0,0-.39-1.2,1.56,1.56,0,0,0-1.29-.62,1.64,1.64,0,0,0-1.21.49A2,2,0,0,0,318.1,103.28Z"/><path class="cls-53" d="M327.67,107v-.79a1.84,1.84,0,0,1-1.67.93,2.31,2.31,0,0,1-1.32-.41,2.71,2.71,0,0,1-.94-1.16,4.21,4.21,0,0,1-.33-1.71,4.65,4.65,0,0,1,.3-1.71,2.42,2.42,0,0,1,.9-1.18,2.33,2.33,0,0,1,1.34-.41,1.9,1.9,0,0,1,1,.24,2,2,0,0,1,.69.62V98.33h1V107Zm-3.22-3.15a2.82,2.82,0,0,0,.49,1.82,1.41,1.41,0,0,0,2.29,0,2.72,2.72,0,0,0,.46-1.74,3.16,3.16,0,0,0-.47-1.91,1.45,1.45,0,0,0-1.18-.6,1.37,1.37,0,0,0-1.13.58A2.93,2.93,0,0,0,324.45,103.87Z"/><path class="cls-47" d="M300.81,273.4l-2.26-6.29h1.09l1.28,3.76c.14.41.27.84.39,1.28.09-.33.21-.73.37-1.2l1.34-3.84h1l-2.26,6.29Z"/><path class="cls-47" d="M308.72,272.62a3.51,3.51,0,0,1-1.08.71,3,3,0,0,1-1.13.21A2.14,2.14,0,0,1,305,273a1.86,1.86,0,0,1-.33-2.14,1.76,1.76,0,0,1,.52-.62,2.53,2.53,0,0,1,.74-.35,7.76,7.76,0,0,1,.9-.16,9.11,9.11,0,0,0,1.82-.36c0-.15,0-.24,0-.28a1.2,1.2,0,0,0-.29-.92,1.66,1.66,0,0,0-1.16-.36,1.32,1.32,0,0,0-1.56,1.2l-1-.14a2.55,2.55,0,0,1,.45-1.08,2,2,0,0,1,.9-.64,3.82,3.82,0,0,1,1.37-.22,3.39,3.39,0,0,1,1.25.19,1.5,1.5,0,0,1,.7.48,1.7,1.7,0,0,1,.32.72,6.9,6.9,0,0,1,.05,1v1.42a17.08,17.08,0,0,0,.06,1.88,2.55,2.55,0,0,0,.25.75h-1A2.23,2.23,0,0,1,308.72,272.62Zm-.07-2.39a7.07,7.07,0,0,1-1.67.41,3.14,3.14,0,0,0-.89.22.84.84,0,0,0-.4.34.94.94,0,0,0-.14.51,1,1,0,0,0,.3.72,1.31,1.31,0,0,0,.91.29,2,2,0,0,0,1-.27,1.57,1.57,0,0,0,.67-.75,2.53,2.53,0,0,0,.17-1.08Z"/><path class="cls-47" d="M311.21,273.4v-6.29h.93v1a2.5,2.5,0,0,1,.64-.89,1.08,1.08,0,0,1,.65-.22,1.9,1.9,0,0,1,1,.35l-.36,1a1.45,1.45,0,0,0-.73-.21.93.93,0,0,0-.59.21,1.21,1.21,0,0,0-.38.58,4.43,4.43,0,0,0-.16,1.24v3.29Z"/><path class="cls-47" d="M315.15,265.92v-1.2h1v1.2Zm0,7.48v-6.29h1v6.29Z"/><path class="cls-47" d="M321.6,272.62a3.4,3.4,0,0,1-1.08.71,3,3,0,0,1-1.13.21,2.14,2.14,0,0,1-1.52-.5,1.73,1.73,0,0,1-.53-1.3,1.8,1.8,0,0,1,.2-.84,1.69,1.69,0,0,1,.53-.62,2.47,2.47,0,0,1,.73-.35,7.61,7.61,0,0,1,.91-.16,9,9,0,0,0,1.81-.36c0-.15,0-.24,0-.28a1.2,1.2,0,0,0-.29-.92,1.58,1.58,0,0,0-2.72.84l-1-.14a2.55,2.55,0,0,1,.45-1.08,2,2,0,0,1,.9-.64,3.86,3.86,0,0,1,1.37-.22,3.39,3.39,0,0,1,1.25.19,1.54,1.54,0,0,1,.71.48,1.69,1.69,0,0,1,.31.72,5.66,5.66,0,0,1,.05,1v1.42a16.11,16.11,0,0,0,.07,1.88,2.53,2.53,0,0,0,.24.75h-1A2.23,2.23,0,0,1,321.6,272.62Zm-.07-2.39a7.07,7.07,0,0,1-1.67.41,3.24,3.24,0,0,0-.89.22.84.84,0,0,0-.4.34.94.94,0,0,0-.14.51.92.92,0,0,0,.31.72,1.28,1.28,0,0,0,.9.29,2,2,0,0,0,1-.27,1.65,1.65,0,0,0,.68-.75,2.72,2.72,0,0,0,.16-1.08Z"/><path class="cls-47" d="M325,273.4h-.95v-8.68h1v3.09a2,2,0,0,1,1.65-.84,2.37,2.37,0,0,1,1.05.23,2.16,2.16,0,0,1,.81.65,3.41,3.41,0,0,1,.5,1,4.4,4.4,0,0,1,.18,1.28,3.7,3.7,0,0,1-.76,2.5,2.34,2.34,0,0,1-1.83.88,1.9,1.9,0,0,1-1.67-.92v.78Zm0-3.19a3.33,3.33,0,0,0,.29,1.63,1.42,1.42,0,0,0,2.46.22,3.67,3.67,0,0,0,0-3.63,1.41,1.41,0,0,0-1.13-.59,1.44,1.44,0,0,0-1.16.61A2.78,2.78,0,0,0,325,270.21Z"/><path class="cls-47" d="M330.5,273.4v-8.68h1v8.68Z"/><path class="cls-47" d="M337.24,271.37l1,.14a2.81,2.81,0,0,1-.92,1.5,3,3,0,0,1-3.81-.32,3.38,3.38,0,0,1-.78-2.38,3.61,3.61,0,0,1,.79-2.47,2.59,2.59,0,0,1,2-.88,2.53,2.53,0,0,1,2,.86,3.56,3.56,0,0,1,.76,2.43v.29H333.8a2.4,2.4,0,0,0,.56,1.58,1.69,1.69,0,0,0,1.28.55,1.6,1.6,0,0,0,1-.31A2.1,2.1,0,0,0,337.24,271.37Zm-3.42-1.71h3.43a2.1,2.1,0,0,0-.39-1.2,1.58,1.58,0,0,0-1.29-.62,1.61,1.61,0,0,0-1.21.5A2,2,0,0,0,333.82,269.66Z"/><path class="cls-47" d="M339.11,270.8v-1.07h3.15v1.07Z"/><path class="cls-47" d="M343.33,273.4v-8.68h1v8.68Z"/><path class="cls-47" d="M350.08,271.37l1,.14a2.69,2.69,0,0,1-.92,1.5,3,3,0,0,1-3.81-.32,3.38,3.38,0,0,1-.78-2.38,3.61,3.61,0,0,1,.79-2.47,2.59,2.59,0,0,1,2-.88,2.53,2.53,0,0,1,2,.86,3.56,3.56,0,0,1,.76,2.43v.29h-4.49a2.4,2.4,0,0,0,.56,1.58,1.7,1.7,0,0,0,1.28.55,1.55,1.55,0,0,0,1-.31A2.11,2.11,0,0,0,350.08,271.37Zm-3.42-1.71h3.43a2.26,2.26,0,0,0-.39-1.2,1.61,1.61,0,0,0-1.29-.62,1.59,1.59,0,0,0-1.21.5A1.94,1.94,0,0,0,346.66,269.66Z"/><path class="cls-47" d="M352.35,273.4v-6.29h.92V268a2.12,2.12,0,0,1,1.9-1,2.31,2.31,0,0,1,1,.21,1.41,1.41,0,0,1,.67.54,2.08,2.08,0,0,1,.32.79,7.6,7.6,0,0,1,.05,1v3.87h-1v-3.83a2.94,2.94,0,0,0-.12-1,1,1,0,0,0-.41-.52,1.21,1.21,0,0,0-.69-.19,1.56,1.56,0,0,0-1.11.43,2.23,2.23,0,0,0-.46,1.64v3.44Z"/><path class="cls-47" d="M358.59,273.92l1,.15a1.06,1.06,0,0,0,.34.71,1.6,1.6,0,0,0,1,.3,1.68,1.68,0,0,0,1.07-.3,1.41,1.41,0,0,0,.52-.83,8,8,0,0,0,.07-1.38,2,2,0,0,1-1.66.83,2.21,2.21,0,0,1-1.92-.94,3.72,3.72,0,0,1-.68-2.24,4.35,4.35,0,0,1,.31-1.67,2.56,2.56,0,0,1,.9-1.17A2.36,2.36,0,0,1,361,267a2.12,2.12,0,0,1,1.76.93v-.79h.92v5.45a5.36,5.36,0,0,1-.29,2.08,2.16,2.16,0,0,1-.9,1A3,3,0,0,1,361,276a2.73,2.73,0,0,1-1.72-.51A1.77,1.77,0,0,1,358.59,273.92Zm.83-3.78a2.84,2.84,0,0,0,.47,1.81,1.48,1.48,0,0,0,1.18.57,1.52,1.52,0,0,0,1.19-.56,2.75,2.75,0,0,0,.47-1.78,2.65,2.65,0,0,0-.49-1.75,1.47,1.47,0,0,0-1.18-.59,1.44,1.44,0,0,0-1.16.58A2.65,2.65,0,0,0,359.42,270.14Z"/><path class="cls-47" d="M367.42,272.46l.14.94a3.18,3.18,0,0,1-.76.1,1.69,1.69,0,0,1-.86-.19,1,1,0,0,1-.43-.48,4.17,4.17,0,0,1-.12-1.27v-3.63h-.76v-.82h.76v-1.56l1-.64v2.2h1v.82h-1v3.68a2.3,2.3,0,0,0,0,.59.41.41,0,0,0,.17.2.7.7,0,0,0,.35.08Z"/><path class="cls-47" d="M368.41,273.4v-8.68h1v3.11a2.19,2.19,0,0,1,1.77-.86,2.3,2.3,0,0,1,1.15.27,1.56,1.56,0,0,1,.7.76,3.74,3.74,0,0,1,.21,1.41v4h-1v-4a1.72,1.72,0,0,0-.32-1.17,1.2,1.2,0,0,0-.93-.36,1.55,1.55,0,0,0-.84.25,1.34,1.34,0,0,0-.56.66,3.3,3.3,0,0,0-.16,1.16v3.44Z"/><path class="cls-47" d="M298.79,285.37l1-.15a1.45,1.45,0,0,0,.47,1,1.53,1.53,0,0,0,1.07.34,1.56,1.56,0,0,0,1-.3.93.93,0,0,0,.33-.71.66.66,0,0,0-.3-.56,4.36,4.36,0,0,0-1-.37,7.73,7.73,0,0,1-1.53-.51,1.46,1.46,0,0,1-.65-.6,1.6,1.6,0,0,1-.22-.84,1.71,1.71,0,0,1,.68-1.38,2.24,2.24,0,0,1,.64-.31,3,3,0,0,1,.87-.13,3.29,3.29,0,0,1,1.23.22,1.71,1.71,0,0,1,.78.58,2.26,2.26,0,0,1,.35,1l-1,.14a1.17,1.17,0,0,0-.39-.76,1.34,1.34,0,0,0-.91-.28,1.6,1.6,0,0,0-1,.24.76.76,0,0,0-.29.57.64.64,0,0,0,.12.38.86.86,0,0,0,.39.28c.1,0,.39.13.88.27a13.3,13.3,0,0,1,1.5.5,1.52,1.52,0,0,1,.92,1.47,1.9,1.9,0,0,1-1.15,1.73,3,3,0,0,1-1.25.26,2.69,2.69,0,0,1-1.77-.51A2.35,2.35,0,0,1,298.79,285.37Z"/><path class="cls-47" d="M307.16,286.32l.15.94a3.8,3.8,0,0,1-.77.09,1.72,1.72,0,0,1-.86-.18.93.93,0,0,1-.42-.48,3.74,3.74,0,0,1-.13-1.26v-3.64h-.75V281h.75v-1.56l1-.64V281h1v.83h-1v3.67a2.24,2.24,0,0,0,.05.59.52.52,0,0,0,.18.21.64.64,0,0,0,.34.07Z"/><path class="cls-47" d="M312.25,285.23l1,.14a2.69,2.69,0,0,1-.93,1.5,2.66,2.66,0,0,1-1.72.54,2.71,2.71,0,0,1-2.09-.85,3.47,3.47,0,0,1-.77-2.39,3.6,3.6,0,0,1,.78-2.47,2.59,2.59,0,0,1,2-.87,2.47,2.47,0,0,1,2,.86,3.51,3.51,0,0,1,.77,2.42c0,.07,0,.16,0,.29H308.8a2.44,2.44,0,0,0,.57,1.58,1.64,1.64,0,0,0,1.27.55,1.52,1.52,0,0,0,1-.31A2.11,2.11,0,0,0,312.25,285.23Zm-3.42-1.71h3.43a2.21,2.21,0,0,0-.4-1.2,1.58,1.58,0,0,0-1.29-.62,1.62,1.62,0,0,0-1.2.5A1.94,1.94,0,0,0,308.83,283.52Z"/><path class="cls-47" d="M314.52,287.26V281h.9v.88a2,2,0,0,1,.75-.74,2,2,0,0,1,1.06-.29,1.9,1.9,0,0,1,1.09.29,1.6,1.6,0,0,1,.61.81,2.13,2.13,0,0,1,1.85-1.1,1.81,1.81,0,0,1,1.38.52,2.35,2.35,0,0,1,.47,1.6v4.32h-1v-4a2.94,2.94,0,0,0-.1-.92.89.89,0,0,0-.36-.45,1,1,0,0,0-.61-.17,1.33,1.33,0,0,0-1,.44,2,2,0,0,0-.42,1.41v3.66h-1v-4.09a1.86,1.86,0,0,0-.25-1.07.91.91,0,0,0-.8-.35,1.46,1.46,0,0,0-.79.23,1.36,1.36,0,0,0-.53.7,4.36,4.36,0,0,0-.16,1.32v3.26Z"/><path class="cls-47" d="M323.73,284.66V283.6h3.15v1.06Z"/><path class="cls-47" d="M328,287.26v-8.68h1v8.68Z"/><path class="cls-47" d="M330.17,284.11a3.34,3.34,0,0,1,.92-2.58,2.71,2.71,0,0,1,1.89-.7,2.63,2.63,0,0,1,2,.85,3.33,3.33,0,0,1,.78,2.35,4.37,4.37,0,0,1-.35,1.91,2.51,2.51,0,0,1-1,1.08,2.78,2.78,0,0,1-1.44.39,2.63,2.63,0,0,1-2-.85A3.5,3.5,0,0,1,330.17,284.11Zm1,0a2.73,2.73,0,0,0,.51,1.81,1.54,1.54,0,0,0,1.26.61,1.57,1.57,0,0,0,1.26-.61,2.88,2.88,0,0,0,.5-1.85,2.73,2.73,0,0,0-.5-1.77,1.59,1.59,0,0,0-1.26-.6,1.56,1.56,0,0,0-1.26.6A2.73,2.73,0,0,0,331.21,284.11Z"/><path class="cls-47" d="M336.61,284.11a3.34,3.34,0,0,1,.92-2.58,2.69,2.69,0,0,1,1.88-.7,2.6,2.6,0,0,1,2,.85,3.34,3.34,0,0,1,.79,2.35,4.37,4.37,0,0,1-.35,1.91,2.57,2.57,0,0,1-1,1.08,2.78,2.78,0,0,1-1.44.39,2.66,2.66,0,0,1-2-.85A3.5,3.5,0,0,1,336.61,284.11Zm1,0a2.79,2.79,0,0,0,.5,1.81,1.58,1.58,0,0,0,1.27.61,1.54,1.54,0,0,0,1.25-.61,2.82,2.82,0,0,0,.51-1.85,2.67,2.67,0,0,0-.51-1.77,1.56,1.56,0,0,0-1.25-.6,1.6,1.6,0,0,0-1.27.6A2.79,2.79,0,0,0,337.65,284.11Z"/><path class="cls-47" d="M343.38,289.68V281h.93v.81a2.29,2.29,0,0,1,.74-.72,2,2,0,0,1,1-.24,2.31,2.31,0,0,1,1.36.42,2.6,2.6,0,0,1,.89,1.17,4.61,4.61,0,0,1,.29,1.65,4.27,4.27,0,0,1-.33,1.75,2.45,2.45,0,0,1-1,1.18,2.39,2.39,0,0,1-1.32.41,1.71,1.71,0,0,1-.91-.23,2.16,2.16,0,0,1-.67-.56v3.06h-1Zm.91-5.53a2.87,2.87,0,0,0,.47,1.8,1.4,1.4,0,0,0,1.14.58,1.46,1.46,0,0,0,1.17-.6,3,3,0,0,0,.48-1.87,2.89,2.89,0,0,0-.47-1.8,1.43,1.43,0,0,0-1.13-.61,1.46,1.46,0,0,0-1.16.64A2.94,2.94,0,0,0,344.29,284.15Z"/><path class="cls-54" d="M295.11,274.75h-12a8.59,8.59,0,1,1,0-8.6h12"/><rect class="cls-55" x="292.71" y="269.08" width="1.01" height="2.73"/><rect class="cls-56" x="292.71" y="269.08" width="1.01" height="2.73"/><rect class="cls-55" x="287.64" y="269.08" width="1.01" height="2.73"/><rect class="cls-56" x="287.64" y="269.08" width="1.01" height="2.73"/><rect class="cls-55" x="282.58" y="269.08" width="1.01" height="2.73"/><rect class="cls-56" x="282.58" y="269.08" width="1.01" height="2.73"/><path class="cls-55" d="M268.84,327.71V319h3.84a5,5,0,0,1,1.75.24,1.91,1.91,0,0,1,1,.82,2.51,2.51,0,0,1,.36,1.31,2.17,2.17,0,0,1-.6,1.56,3,3,0,0,1-1.83.81,2.66,2.66,0,0,1,.69.43,5.85,5.85,0,0,1,.94,1.15l1.49,2.37H275l-1.14-1.81c-.34-.52-.61-.92-.83-1.2a2.62,2.62,0,0,0-.58-.58,1.6,1.6,0,0,0-.52-.23,3.21,3.21,0,0,0-.63,0H270v3.86Zm1.15-4.88h2.46a3.6,3.6,0,0,0,1.22-.16,1.34,1.34,0,0,0,.67-.51,1.43,1.43,0,0,0,.22-.77,1.32,1.32,0,0,0-.44-1,2.07,2.07,0,0,0-1.4-.39H270v2.84Z"/><path class="cls-55" d="M286.37,322.62h-5.72v-1h5.72Zm0,2.63h-5.72v-1h5.72Z"/><path class="cls-55" d="M290.41,327.71l3.33-8.69H295l3.49,8.69h-1.3l-1-2.63h-3.63l-.94,2.63Zm2.5-3.58h2.95l-.9-2.39c-.27-.73-.48-1.33-.61-1.8a11.17,11.17,0,0,1-.48,1.66Z"/><path class="cls-55" d="M302.28,324.56a3.23,3.23,0,0,1,1-2.59,2.91,2.91,0,0,1,2-.7,2.82,2.82,0,0,1,2.12.85,3.23,3.23,0,0,1,.82,2.35,4.19,4.19,0,0,1-.36,1.91,2.57,2.57,0,0,1-1.06,1.08,3,3,0,0,1-1.52.39,2.79,2.79,0,0,1-2.13-.85A3.35,3.35,0,0,1,302.28,324.56Zm1.09,0a2.64,2.64,0,0,0,.53,1.81,1.69,1.69,0,0,0,1.33.6,1.71,1.71,0,0,0,1.33-.6,2.78,2.78,0,0,0,.52-1.85,2.57,2.57,0,0,0-.53-1.77,1.75,1.75,0,0,0-2.65,0A2.71,2.71,0,0,0,303.37,324.56Z"/><path class="cls-55" d="M309.4,327.71v-6.3h.94v1a2.68,2.68,0,0,1,.68-.9,1.21,1.21,0,0,1,.68-.21,2,2,0,0,1,1.1.35l-.37,1a1.63,1.63,0,0,0-.78-.21,1,1,0,0,0-.62.21,1.18,1.18,0,0,0-.39.59,4,4,0,0,0-.18,1.24v3.29Z"/><path class="cls-55" d="M321,324.3v-1h3.67v3.22a6.5,6.5,0,0,1-1.75,1,5.3,5.3,0,0,1-1.84.34,4.85,4.85,0,0,1-2.32-.55,3.55,3.55,0,0,1-1.58-1.58,4.91,4.91,0,0,1-.53-2.31,5.31,5.31,0,0,1,.53-2.37,3.54,3.54,0,0,1,1.52-1.63,4.81,4.81,0,0,1,2.29-.53,4.44,4.44,0,0,1,1.7.31,2.87,2.87,0,0,1,1.19.85,3.75,3.75,0,0,1,.66,1.42l-1.07.29a3.26,3.26,0,0,0-.48-1,2,2,0,0,0-.83-.61,3,3,0,0,0-1.18-.22,3.43,3.43,0,0,0-1.35.24,2.63,2.63,0,0,0-.93.63,3.11,3.11,0,0,0-.54.86,4.53,4.53,0,0,0-.33,1.74,4.23,4.23,0,0,0,.4,1.95,2.6,2.6,0,0,0,1.16,1.16,3.57,3.57,0,0,0,1.61.38,3.82,3.82,0,0,0,1.44-.29,3.59,3.59,0,0,0,1.07-.62v-1.62Z"/><path class="cls-55" d="M326.53,327.71V326.5h1.21v1.21Z"/><path class="cls-55" d="M335.55,327.71V324l-3.33-5h1.39l1.69,2.64q.48.72.9,1.47c.27-.45.59-1,1-1.54l1.67-2.57h1.33l-3.45,5v3.68Z"/><path class="cls-55" d="M350,322.62h-5.73v-1H350Zm0,2.63h-5.73v-1H350Z"/><path class="cls-55" d="M361.19,324.66l1.16.29a3.81,3.81,0,0,1-1.3,2.15,3.52,3.52,0,0,1-2.29.75,4.12,4.12,0,0,1-2.28-.57,3.49,3.49,0,0,1-1.34-1.66,6,6,0,0,1-.46-2.32,5.08,5.08,0,0,1,.52-2.37,3.59,3.59,0,0,1,1.48-1.53,4.25,4.25,0,0,1,2.1-.52,3.56,3.56,0,0,1,2.19.66,3.44,3.44,0,0,1,1.23,1.87l-1.13.26a2.71,2.71,0,0,0-.87-1.37,2.35,2.35,0,0,0-1.45-.43,2.82,2.82,0,0,0-1.67.48,2.44,2.44,0,0,0-.94,1.28,5.2,5.2,0,0,0-.27,1.66,5.08,5.08,0,0,0,.32,1.92,2.34,2.34,0,0,0,1,1.23,2.72,2.72,0,0,0,1.47.41,2.47,2.47,0,0,0,1.63-.55A2.83,2.83,0,0,0,361.19,324.66Z"/><path class="cls-55" d="M366.59,324.56a3.23,3.23,0,0,1,1-2.59,2.91,2.91,0,0,1,2-.7,2.82,2.82,0,0,1,2.12.85,3.23,3.23,0,0,1,.82,2.35,4.19,4.19,0,0,1-.36,1.91,2.57,2.57,0,0,1-1.06,1.08,3,3,0,0,1-1.52.39,2.79,2.79,0,0,1-2.13-.85A3.35,3.35,0,0,1,366.59,324.56Zm1.08,0a2.65,2.65,0,0,0,.54,1.81,1.76,1.76,0,0,0,2.65,0,2.72,2.72,0,0,0,.53-1.85,2.57,2.57,0,0,0-.53-1.77,1.69,1.69,0,0,0-1.32-.61,1.72,1.72,0,0,0-1.33.6A2.66,2.66,0,0,0,367.67,324.56Z"/><path class="cls-55" d="M373.71,327.71v-6.3h.94v1a2.68,2.68,0,0,1,.68-.9,1.22,1.22,0,0,1,.69-.21,2,2,0,0,1,1.09.35l-.37,1a1.63,1.63,0,0,0-.77-.21,1,1,0,0,0-.62.21,1.14,1.14,0,0,0-.4.59,4,4,0,0,0-.18,1.24v3.29Z"/><path class="cls-55" d="M274.5,333.56h1.16v5a5.87,5.87,0,0,1-.3,2.08,2.58,2.58,0,0,1-1.07,1.25,3.78,3.78,0,0,1-2,.48,4.14,4.14,0,0,1-2-.42,2.36,2.36,0,0,1-1.11-1.22,5.78,5.78,0,0,1-.33-2.17v-5H270v5a4.9,4.9,0,0,0,.21,1.67,1.6,1.6,0,0,0,.72.82,2.5,2.5,0,0,0,1.24.29,2.32,2.32,0,0,0,1.79-.58,3.26,3.26,0,0,0,.54-2.19v-5h0Z"/><path class="cls-55" d="M277.71,342.25V341h1.21v1.21Z"/></svg>