<svg id="图层_1" data-name="图层 1" xmlns="http://www.w3.org/2000/svg" xmlns:xlink="http://www.w3.org/1999/xlink" viewBox="0 0 400 400"><defs><style>.cls-1,.cls-22,.cls-23,.cls-3,.cls-4,.cls-7{fill:none;}.cls-2{clip-path:url(#clip-path);}.cls-22,.cls-23,.cls-3,.cls-4,.cls-7{stroke:#000;stroke-miterlimit:10;}.cls-3{stroke-linecap:round;}.cls-10,.cls-5,.cls-9{font-size:12.4px;font-family:Helvetica, Helvetica GBpc-EUC-H;}.cls-10,.cls-6{fill:#d83b2d;}.cls-7{stroke-width:0.9px;}.cls-8,.cls-9{fill:#7d7e81;}.cls-11{letter-spacing:0.34em;}.cls-12{fill:#efcbca;}.cls-13{fill:#bdcde2;}.cls-14{fill:#c3dabb;}.cls-15{fill:#c6dcbb;}.cls-16{fill:#f0cbcb;}.cls-17{fill:#bacbe2;}.cls-18{fill:#c6dcbc;}.cls-19{fill:#de1c31;}.cls-20{fill:#7d7f82;}.cls-21{fill:#fff;}.cls-22{stroke-width:0.5px;}.cls-23{stroke-width:0.72px;}.cls-24{fill:#de1d32;}.cls-25{font-size:20px;font-family:ArialMT, Arial;}.cls-26{letter-spacing:-0.04em;}</style><clipPath id="clip-path"><rect class="cls-1" x="47.19" y="-2.09" width="723.32" height="396.61"/></clipPath></defs><g class="cls-2"><path class="cls-3" d="M114.65,101.83l.08-8.89a23.48,23.48,0,1,1,23.5.21l-.08,8.68"/><line class="cls-4" x1="122.01" y1="97.03" x2="131.3" y2="97.03"/></g><g class="cls-2"><path class="cls-3" d="M258,368.24l-8.89-.08a23.48,23.48,0,1,1,.21-23.5l8.68.08"/></g><line class="cls-4" x1="253.24" y1="360.88" x2="253.24" y2="351.59"/><text class="cls-5" transform="translate(59.35 386.04)">R = A/G</text><text class="cls-5" transform="translate(132.86 386.04)">Y = C/U</text><text class="cls-5" transform="translate(77.14 341.74)">97%</text><g class="cls-2"><path class="cls-6" d="M71.18,337.31a6.74,6.74,0,1,1-6.74-6.7,6.72,6.72,0,0,1,6.74,6.7"/><path class="cls-7" d="M71.18,337.31a6.74,6.74,0,1,1-6.74-6.7A6.72,6.72,0,0,1,71.18,337.31Z"/></g><text class="cls-5" transform="translate(77.14 360.06)">90%</text><g class="cls-2"><path d="M71.18,354.81a6.74,6.74,0,1,1-6.74-6.7,6.72,6.72,0,0,1,6.74,6.7"/><path class="cls-7" d="M71.18,354.81a6.74,6.74,0,1,1-6.74-6.7A6.72,6.72,0,0,1,71.18,354.81Z"/></g><text class="cls-5" transform="translate(150.54 341.75)">75%</text><g class="cls-2"><path class="cls-8" d="M144.57,337.31a6.74,6.74,0,1,1-6.73-6.7,6.71,6.71,0,0,1,6.73,6.7"/><path class="cls-7" d="M144.57,337.31a6.74,6.74,0,1,1-6.73-6.7A6.71,6.71,0,0,1,144.57,337.31Z"/></g><text class="cls-5" transform="translate(150.54 360.06)">50%</text><g class="cls-2"><path class="cls-7" d="M144.5,355.8a6.74,6.74,0,1,1-5.67-7.62A6.73,6.73,0,0,1,144.5,355.8Z"/></g><text class="cls-9" transform="translate(134.46 283.19)">N</text><text class="cls-5" transform="translate(147.98 283.19)">75%</text><text class="cls-10" transform="translate(59.63 283.19)">N</text><text class="cls-5" transform="translate(72.8 283.19)">97%</text><text class="cls-5" transform="translate(59.63 301.49)"><tspan class="cls-11">N</tspan><tspan x="13" y="0">90%</tspan></text><text class="cls-5" transform="translate(58.86 262.87)">Nucleotide identity</text><text class="cls-5" transform="translate(58.86 322.1)">Nucleotide present</text><text class="cls-5" transform="translate(254.99 316.95)">None</text><rect class="cls-12" x="206.44" y="307.59" width="43.12" height="12.76"/><text class="cls-5" transform="translate(255 298.81)">Compatible</text><rect class="cls-13" x="206.44" y="289.62" width="43.12" height="12.76"/><text class="cls-5" transform="translate(255 281.01)">Covary</text><rect class="cls-14" x="206.44" y="271.64" width="43.12" height="12.76"/><text class="cls-5" transform="translate(236.52 263.01)">Mutations</text><text class="cls-5" transform="translate(262.94 353)">Variable</text><text class="cls-5" transform="translate(268.79 367.88)">length</text><g class="cls-2"><rect class="cls-15" x="105.41" y="159.62" width="42.82" height="12.76"/><rect class="cls-15" x="105.41" y="195.45" width="42.82" height="12.76"/><rect class="cls-16" x="105.41" y="213.36" width="42.82" height="12.76"/><line class="cls-4" x1="122.22" y1="219.74" x2="131.43" y2="219.74"/><line class="cls-4" x1="122.22" y1="201.83" x2="131.43" y2="201.83"/><rect class="cls-17" x="105.41" y="177.54" width="42.82" height="12.76"/><line class="cls-4" x1="122.22" y1="183.91" x2="131.43" y2="183.91"/><rect class="cls-18" x="105.28" y="142.89" width="42.82" height="12.76"/><line class="cls-4" x1="122.08" y1="149.27" x2="131.29" y2="149.27"/><rect class="cls-18" x="105.28" y="124.98" width="42.82" height="12.76"/><line class="cls-4" x1="122.08" y1="131.35" x2="131.29" y2="131.35"/><rect class="cls-18" x="105.28" y="107.06" width="42.82" height="12.76"/><line class="cls-4" x1="122.08" y1="113.44" x2="131.29" y2="113.44"/><path class="cls-19" d="M107.18,220.18a16,16,0,0,0,.25,3.23,3.64,3.64,0,0,0,.72,1.41,4,4,0,0,0,1.49,1.1,7.08,7.08,0,0,0,2.77.42,6.42,6.42,0,0,0,2.44-.39,3.87,3.87,0,0,0,1.5-1,3.59,3.59,0,0,0,.77-1.59,17.28,17.28,0,0,0,.2-3.24V213.4h-2.56v7a13.56,13.56,0,0,1-.12,2.16,1.71,1.71,0,0,1-.66,1.09,2.58,2.58,0,0,1-1.65.45,2.77,2.77,0,0,1-1.7-.47,2.13,2.13,0,0,1-.79-1.26,15,15,0,0,1-.09-2.12V213.4h-2.57Z"/><path class="cls-19" d="M107.18,202.27a16.08,16.08,0,0,0,.25,3.23,3.64,3.64,0,0,0,.72,1.41,4,4,0,0,0,1.49,1.09,7.08,7.08,0,0,0,2.77.42,6.64,6.64,0,0,0,2.44-.38,4,4,0,0,0,1.5-1,3.63,3.63,0,0,0,.77-1.6,17.22,17.22,0,0,0,.2-3.23v-6.68h-2.56v7a13.39,13.39,0,0,1-.12,2.16,1.73,1.73,0,0,1-.66,1.1,2.58,2.58,0,0,1-1.65.45,2.77,2.77,0,0,1-1.7-.47,2.16,2.16,0,0,1-.79-1.26,15,15,0,0,1-.09-2.12v-6.89h-2.57Z"/><path class="cls-19" d="M115.56,185.62v1.61a5.58,5.58,0,0,1-1.39.77,4.45,4.45,0,0,1-1.62.32,3.37,3.37,0,0,1-2.64-1.13,5,5,0,0,1-1-3.4,4.51,4.51,0,0,1,1-3.17,3.48,3.48,0,0,1,2.68-1.07,3,3,0,0,1,1.85.55,2.7,2.7,0,0,1,1,1.48l2.55-.48a4.49,4.49,0,0,0-1.71-2.75,6.11,6.11,0,0,0-3.7-1,6.63,6.63,0,0,0-3,.63,5.64,5.64,0,0,0-2.44,2.37,7.39,7.39,0,0,0-.83,3.53,7.72,7.72,0,0,0,.75,3.39,5.22,5.22,0,0,0,2.23,2.39,6.89,6.89,0,0,0,3.47.84,8.66,8.66,0,0,0,3.11-.59,6.92,6.92,0,0,0,2.33-1.38v-5.06h-5.53v2.14Z"/><path class="cls-20" d="M115.56,167.71v1.61a5.58,5.58,0,0,1-1.39.77,4.43,4.43,0,0,1-1.62.31,3.34,3.34,0,0,1-2.64-1.13,5,5,0,0,1-1-3.4,4.5,4.5,0,0,1,1-3.16,3.48,3.48,0,0,1,2.68-1.07,3.07,3.07,0,0,1,1.85.54,2.77,2.77,0,0,1,1,1.48l2.55-.47a4.49,4.49,0,0,0-1.71-2.75,6.11,6.11,0,0,0-3.7-1,6.63,6.63,0,0,0-3,.63,5.64,5.64,0,0,0-2.44,2.37,7.39,7.39,0,0,0-.83,3.53,7.72,7.72,0,0,0,.75,3.39,5.27,5.27,0,0,0,2.23,2.39,6.89,6.89,0,0,0,3.47.84,8.47,8.47,0,0,0,3.11-.6,6.76,6.76,0,0,0,2.33-1.37v-5.07h-5.53v2.15Z"/><path class="cls-19" d="M101,232.1v1.62a5.26,5.26,0,0,1-1.39.76,4.25,4.25,0,0,1-1.62.32,3.37,3.37,0,0,1-2.64-1.13,5,5,0,0,1-1-3.4,4.48,4.48,0,0,1,1-3.16A3.48,3.48,0,0,1,98.06,226a3.07,3.07,0,0,1,1.85.54,2.73,2.73,0,0,1,1,1.48l2.55-.48a4.43,4.43,0,0,0-1.71-2.74,6,6,0,0,0-3.7-1,6.5,6.5,0,0,0-3,.64,5.64,5.64,0,0,0-2.44,2.37,7.36,7.36,0,0,0-.83,3.53,7.72,7.72,0,0,0,.75,3.39,5.37,5.37,0,0,0,2.23,2.39,7,7,0,0,0,3.48.84,8.45,8.45,0,0,0,3.1-.6,6.91,6.91,0,0,0,2.34-1.37V230H98.1v2.14Z"/><path class="cls-19" d="M160.66,232.1v1.62a5.26,5.26,0,0,1-1.39.76,4.25,4.25,0,0,1-1.62.32,3.37,3.37,0,0,1-2.64-1.13,5,5,0,0,1-1-3.4,4.48,4.48,0,0,1,1-3.16,3.48,3.48,0,0,1,2.68-1.07,3.07,3.07,0,0,1,1.85.54,2.73,2.73,0,0,1,1,1.48l2.55-.48a4.47,4.47,0,0,0-1.71-2.74,6,6,0,0,0-3.7-1,6.5,6.5,0,0,0-3.05.64,5.64,5.64,0,0,0-2.44,2.37,7.36,7.36,0,0,0-.83,3.53,7.72,7.72,0,0,0,.75,3.39,5.32,5.32,0,0,0,2.23,2.39,6.89,6.89,0,0,0,3.47.84,8.51,8.51,0,0,0,3.11-.6,6.76,6.76,0,0,0,2.33-1.37V230h-5.53v2.14Z"/><path d="M109.15,145.08h2c1,0,1.66,0,1.87,0a1.54,1.54,0,0,1,1,.5,1.52,1.52,0,0,1,.34,1,1.61,1.61,0,0,1-.26,1,1.41,1.41,0,0,1-.72.54,10.14,10.14,0,0,1-2.31.15h-1.9Zm0,10.56v-5.31h.52a4.09,4.09,0,0,1,1.3.15,1.88,1.88,0,0,1,.77.53,17.72,17.72,0,0,1,1.35,1.87l1.86,2.76H118l-1.55-2.48A14.58,14.58,0,0,0,115,151.1a5.94,5.94,0,0,0-1.38-1.07,4,4,0,0,0,2.52-1.18,3.39,3.39,0,0,0,.84-2.36,3.65,3.65,0,0,0-.56-2,2.84,2.84,0,0,0-1.48-1.22,9.12,9.12,0,0,0-3-.35h-5.4v12.72Z"/><polygon class="cls-20" points="112.97 137.73 112.97 132.4 117.65 125.01 114.69 125.01 111.76 130.04 108.77 125.01 105.75 125.01 110.41 132.38 110.41 137.73 112.97 137.73"/><path class="cls-20" d="M138.15,127.16h2c1,0,1.66,0,1.87,0a1.54,1.54,0,0,1,1,.5,1.51,1.51,0,0,1,.34,1,1.62,1.62,0,0,1-.26,1,1.41,1.41,0,0,1-.72.54,10.14,10.14,0,0,1-2.31.15h-1.9Zm0,10.57v-5.31h.52a4.09,4.09,0,0,1,1.3.15,2,2,0,0,1,.77.52,20.34,20.34,0,0,1,1.35,1.87l1.86,2.77H147l-1.55-2.48a14.58,14.58,0,0,0-1.46-2.06,5.94,5.94,0,0,0-1.38-1.07,4,4,0,0,0,2.52-1.18,3.39,3.39,0,0,0,.84-2.36,3.65,3.65,0,0,0-.56-2,2.84,2.84,0,0,0-1.48-1.22,9.12,9.12,0,0,0-3-.35h-5.4v12.72Z"/><polygon class="cls-20" points="142.47 155.64 142.47 150.31 147.15 142.92 144.19 142.92 141.26 147.96 138.26 142.92 135.25 142.92 139.91 150.29 139.91 155.64 142.47 155.64"/><path class="cls-20" d="M301.48,99.93v1.62a5.39,5.39,0,0,1-1.39.76,4.25,4.25,0,0,1-1.62.32,3.4,3.4,0,0,1-2.64-1.13,5.06,5.06,0,0,1-1-3.4,4.53,4.53,0,0,1,1-3.17,3.5,3.5,0,0,1,2.68-1.06,3,3,0,0,1,1.85.54,2.65,2.65,0,0,1,1,1.48l2.55-.48a4.43,4.43,0,0,0-1.71-2.74,6,6,0,0,0-3.7-1,6.5,6.5,0,0,0-3.05.64A5.59,5.59,0,0,0,293,94.68a7.36,7.36,0,0,0-.83,3.53,7.72,7.72,0,0,0,.75,3.39,5.37,5.37,0,0,0,2.23,2.39,7,7,0,0,0,3.48.84,8.45,8.45,0,0,0,3.1-.6,6.91,6.91,0,0,0,2.34-1.37V97.79h-5.54v2.14Z"/><path class="cls-19" d="M136.18,166.45a16.08,16.08,0,0,0,.25,3.23,3.64,3.64,0,0,0,.72,1.41,4.06,4.06,0,0,0,1.49,1.09,7.08,7.08,0,0,0,2.77.42,6.42,6.42,0,0,0,2.44-.39,3.78,3.78,0,0,0,1.5-1,3.68,3.68,0,0,0,.77-1.6,17.28,17.28,0,0,0,.2-3.24v-6.68h-2.56v7a13.39,13.39,0,0,1-.12,2.16A1.73,1.73,0,0,1,143,170a2.58,2.58,0,0,1-1.65.45,2.71,2.71,0,0,1-1.7-.48,2,2,0,0,1-.78-1.25,13.28,13.28,0,0,1-.1-2.13v-6.89h-2.57Z"/><path class="cls-19" d="M143.28,187.67a2.59,2.59,0,0,1-1.76.65,2.8,2.8,0,0,1-2.26-1,5.32,5.32,0,0,1-.86-3.43,5,5,0,0,1,.87-3.29,2.91,2.91,0,0,1,2.3-1,2.64,2.64,0,0,1,2.68,2.14l2.54-.61a5,5,0,0,0-1.3-2.34,5.28,5.28,0,0,0-3.79-1.38,5.59,5.59,0,0,0-4.31,1.76,6.91,6.91,0,0,0-1.64,4.93,6.6,6.6,0,0,0,1.63,4.73,5.48,5.48,0,0,0,4.16,1.73,5.39,5.39,0,0,0,3.38-1,5.54,5.54,0,0,0,1.91-3.09l-2.49-.79a3.87,3.87,0,0,1-1.06,2"/><path class="cls-19" d="M139,203.17l1.72-4.72,1.75,4.72Zm3.11-7.68h-2.72l-5,12.72h2.72l1.05-2.89h5.09l1.11,2.89h2.79Z"/><path class="cls-19" d="M139,221.09l1.72-4.72,1.75,4.72Zm3.11-7.69h-2.72l-5,12.72h2.72l1.05-2.89h5.09l1.11,2.89h2.79Z"/><path d="M129.05,166a2.35,2.35,0,1,1-2.35-2.34,2.35,2.35,0,0,1,2.35,2.34"/><path class="cls-21" d="M163.51,166.33a6.06,6.06,0,1,1-6.06-6.06,6.06,6.06,0,0,1,6.06,6.06"/><path class="cls-20" d="M172.12,226.21h2a16.58,16.58,0,0,1,1.87,0,1.42,1.42,0,0,1,1.31,1.53,1.64,1.64,0,0,1-.26,1,1.35,1.35,0,0,1-.72.53,9.3,9.3,0,0,1-2.3.16h-1.91Zm0,10.57v-5.31h.53a4.41,4.41,0,0,1,1.29.14,2,2,0,0,1,.77.53,18.94,18.94,0,0,1,1.35,1.87l1.86,2.77H181l-1.55-2.48a14.61,14.61,0,0,0-1.46-2.07,6,6,0,0,0-1.38-1.06,4.09,4.09,0,0,0,2.52-1.18,3.39,3.39,0,0,0,.84-2.36,3.68,3.68,0,0,0-.55-2,3,3,0,0,0-1.49-1.22,9.18,9.18,0,0,0-3-.34h-5.4v12.72Z"/><line class="cls-4" x1="274.23" y1="221.26" x2="283.44" y2="221.26"/><rect class="cls-18" x="257.43" y="196.97" width="42.82" height="12.76"/><line class="cls-4" x1="274.23" y1="203.35" x2="283.44" y2="203.35"/><rect class="cls-18" x="257.43" y="179.06" width="42.82" height="12.76"/><line class="cls-4" x1="274.23" y1="185.44" x2="283.44" y2="185.44"/><rect class="cls-18" x="257.43" y="161.15" width="42.82" height="12.76"/><rect class="cls-18" x="257.29" y="144.41" width="42.82" height="12.76"/><line class="cls-4" x1="274.1" y1="150.79" x2="283.31" y2="150.79"/><rect class="cls-18" x="257.29" y="126.5" width="42.82" height="12.76"/><line class="cls-4" x1="274.1" y1="132.88" x2="283.31" y2="132.88"/><line class="cls-4" x1="274.1" y1="114.97" x2="283.31" y2="114.97"/><polygon points="265.04 139.04 265.04 133.7 269.72 126.32 266.76 126.32 263.82 131.35 260.83 126.32 257.82 126.32 262.48 133.69 262.48 139.04 265.04 139.04"/><path class="cls-20" d="M291.55,168.87l1.72-4.72,1.75,4.72Zm3.11-7.69H292l-5,12.72h2.72l1.05-2.88h5.09L297,173.9h2.79Z"/><path class="cls-19" d="M270.4,221.23a6.06,6.06,0,1,1-6.06-6.06,6.06,6.06,0,0,1,6.06,6.06"/><path class="cls-19" d="M270.4,203.35a6.06,6.06,0,1,1-6.06-6.06,6.06,6.06,0,0,1,6.06,6.06"/><path class="cls-19" d="M299,203.35a6.06,6.06,0,1,1-6.06-6.06,6.06,6.06,0,0,1,6.06,6.06"/><polygon class="cls-20" points="265.04 120.51 265.04 115.18 269.72 107.79 266.76 107.79 263.82 112.83 260.83 107.79 257.82 107.79 262.48 115.16 262.48 120.51 265.04 120.51"/><path class="cls-19" d="M265.25,98.55a6.06,6.06,0,1,1-6.06-6.06,6.07,6.07,0,0,1,6.06,6.06"/><path class="cls-22" d="M265.25,98.55a6.06,6.06,0,1,1-6.06-6.06A6.07,6.07,0,0,1,265.25,98.55Z"/><path class="cls-19" d="M260.09,83.13v1.61a5.58,5.58,0,0,1-1.39.77,4.43,4.43,0,0,1-1.62.31,3.34,3.34,0,0,1-2.64-1.13,5,5,0,0,1-1-3.4,4.5,4.5,0,0,1,1-3.16,3.48,3.48,0,0,1,2.68-1.07,3.07,3.07,0,0,1,1.85.54,2.73,2.73,0,0,1,1,1.48l2.55-.47a4.45,4.45,0,0,0-1.71-2.75,6.09,6.09,0,0,0-3.7-1,6.63,6.63,0,0,0-3.05.63,5.64,5.64,0,0,0-2.44,2.37,7.36,7.36,0,0,0-.83,3.53,7.72,7.72,0,0,0,.75,3.39,5.27,5.27,0,0,0,2.23,2.39,7,7,0,0,0,3.48.84,8.45,8.45,0,0,0,3.1-.6,6.91,6.91,0,0,0,2.34-1.37V81h-5.54v2.15Z"/><path class="cls-19" d="M273.37,71v1.62a5.46,5.46,0,0,1-1.4.76,4.24,4.24,0,0,1-1.61.32,3.37,3.37,0,0,1-2.64-1.13,5,5,0,0,1-1-3.4,4.48,4.48,0,0,1,1-3.17,3.5,3.5,0,0,1,2.67-1.06,3,3,0,0,1,1.85.54,2.65,2.65,0,0,1,1,1.48l2.55-.48a4.43,4.43,0,0,0-1.71-2.74,6,6,0,0,0-3.7-1,6.45,6.45,0,0,0-3,.64,5.54,5.54,0,0,0-2.44,2.37,7.25,7.25,0,0,0-.83,3.53,7.71,7.71,0,0,0,.74,3.39A5.37,5.37,0,0,0,267,75a7,7,0,0,0,3.48.84,8.42,8.42,0,0,0,3.1-.6A6.91,6.91,0,0,0,276,73.88V68.81h-5.54V71Z"/><path class="cls-19" d="M289.41,71v1.62a5.56,5.56,0,0,1-1.39.76,4.25,4.25,0,0,1-1.62.32,3.37,3.37,0,0,1-2.64-1.13,5,5,0,0,1-1-3.4,4.53,4.53,0,0,1,1-3.17,3.51,3.51,0,0,1,2.68-1.06,3.07,3.07,0,0,1,1.85.54,2.7,2.7,0,0,1,1,1.48l2.55-.48a4.43,4.43,0,0,0-1.71-2.74,6,6,0,0,0-3.7-1,6.5,6.5,0,0,0-3.05.64,5.64,5.64,0,0,0-2.44,2.37,7.36,7.36,0,0,0-.83,3.53,7.72,7.72,0,0,0,.75,3.39A5.32,5.32,0,0,0,283.09,75a7,7,0,0,0,3.48.84,8.45,8.45,0,0,0,3.1-.6A6.91,6.91,0,0,0,292,73.88V68.81h-5.54V71Z"/><line class="cls-4" x1="273.72" y1="167.52" x2="282.93" y2="167.52"/><path d="M299,221.26A6.06,6.06,0,1,1,293,215.2a6.06,6.06,0,0,1,6.06,6.06"/><path class="cls-19" d="M83.06,232.1v1.62a5.46,5.46,0,0,1-1.4.76,4.24,4.24,0,0,1-1.61.32,3.37,3.37,0,0,1-2.64-1.13,5,5,0,0,1-1-3.4,4.48,4.48,0,0,1,1-3.17A3.47,3.47,0,0,1,80.07,226a3.1,3.1,0,0,1,1.86.54,2.63,2.63,0,0,1,1,1.48l2.56-.48a4.48,4.48,0,0,0-1.72-2.74,6,6,0,0,0-3.7-1,6.45,6.45,0,0,0-3,.64,5.57,5.57,0,0,0-2.44,2.36,7.32,7.32,0,0,0-.83,3.54,7.64,7.64,0,0,0,.74,3.38,5.35,5.35,0,0,0,2.23,2.4,7,7,0,0,0,3.48.84,8.42,8.42,0,0,0,3.1-.6A6.91,6.91,0,0,0,85.65,235V230H80.12v2.14Z"/><path class="cls-23" d="M164.08,183.44a6.06,6.06,0,1,1-6.06-6.06A6.06,6.06,0,0,1,164.08,183.44Z"/><path class="cls-24" d="M153.24,166.36a15.3,15.3,0,0,0,.25,3.23,3.39,3.39,0,0,0,.72,1.41,3.88,3.88,0,0,0,1.49,1.09,7,7,0,0,0,2.76.42,6.49,6.49,0,0,0,2.45-.38,3.83,3.83,0,0,0,1.49-1,3.48,3.48,0,0,0,.77-1.59,17.12,17.12,0,0,0,.21-3.24v-6.68h-2.57v7a15.08,15.08,0,0,1-.11,2.16,1.78,1.78,0,0,1-.67,1.1,2.58,2.58,0,0,1-1.65.45,2.76,2.76,0,0,1-1.69-.47,2.07,2.07,0,0,1-.79-1.26,15,15,0,0,1-.09-2.12v-6.89h-2.57Z"/><path class="cls-21" d="M118.25,113.66a6.06,6.06,0,1,1-6.06-6.06,6.06,6.06,0,0,1,6.06,6.06"/><path class="cls-23" d="M118.25,113a6.06,6.06,0,1,1-6.06-6.06A6.06,6.06,0,0,1,118.25,113Z"/><path class="cls-21" d="M147.25,113.66a6.06,6.06,0,1,1-6.06-6.06,6.06,6.06,0,0,1,6.06,6.06"/><path class="cls-23" d="M147.25,113.66a6.06,6.06,0,1,1-6.06-6.06A6.06,6.06,0,0,1,147.25,113.66Z"/><path class="cls-24" d="M199,231.15a6.06,6.06,0,1,1-6.06-6.06,6.06,6.06,0,0,1,6.06,6.06"/><path class="cls-23" d="M199,231.15a6.06,6.06,0,1,1-6.06-6.06A6.06,6.06,0,0,1,199,231.15Z"/><path class="cls-24" d="M216.9,231.15a6.06,6.06,0,1,1-6.06-6.06,6.06,6.06,0,0,1,6.06,6.06"/><path class="cls-23" d="M216.9,231.15a6.06,6.06,0,1,1-6.06-6.06A6.06,6.06,0,0,1,216.9,231.15Z"/><path d="M234.81,231.15a6.06,6.06,0,1,1-6.06-6.06,6.06,6.06,0,0,1,6.06,6.06"/><path class="cls-23" d="M234.81,231.15a6.06,6.06,0,1,1-6.06-6.06A6.06,6.06,0,0,1,234.81,231.15Z"/><path class="cls-20" d="M252.72,231.15a6.06,6.06,0,1,1-6.06-6.06,6.06,6.06,0,0,1,6.06,6.06"/><path class="cls-23" d="M252.72,231.15a6.06,6.06,0,1,1-6.06-6.06A6.06,6.06,0,0,1,252.72,231.15Z"/><path class="cls-23" d="M299,220.94a6.06,6.06,0,1,1-6.06-6.06A6.06,6.06,0,0,1,299,220.94Z"/><path class="cls-23" d="M299,203.35a6.06,6.06,0,1,1-6.06-6.06A6.06,6.06,0,0,1,299,203.35Z"/><path class="cls-23" d="M270.4,221.26a6.06,6.06,0,1,1-6.06-6.06A6.06,6.06,0,0,1,270.4,221.26Z"/><path class="cls-23" d="M270.4,203.35a6.06,6.06,0,1,1-6.06-6.06A6.06,6.06,0,0,1,270.4,203.35Z"/><polygon class="cls-20" points="265.47 191.82 265.47 186.48 270.14 179.1 267.19 179.1 264.25 184.13 261.26 179.1 258.25 179.1 262.91 186.46 262.91 191.82 265.47 191.82"/><path class="cls-20" d="M290.86,181.25h2c1,0,1.67,0,1.88,0a1.62,1.62,0,0,1,1,.5,1.57,1.57,0,0,1,.34,1,1.66,1.66,0,0,1-.26.95,1.39,1.39,0,0,1-.72.54,9.45,9.45,0,0,1-2.31.16h-1.9Zm0,10.57v-5.31h.52a4.41,4.41,0,0,1,1.29.14,2,2,0,0,1,.77.53,16.92,16.92,0,0,1,1.36,1.87l1.86,2.77h3.07l-1.56-2.48a14.61,14.61,0,0,0-1.46-2.07,6.15,6.15,0,0,0-1.37-1.07,4,4,0,0,0,2.51-1.17,3.4,3.4,0,0,0,.84-2.37,3.64,3.64,0,0,0-.55-2,2.94,2.94,0,0,0-1.48-1.22,9.26,9.26,0,0,0-3-.34h-5.41v12.72Z"/><path class="cls-20" d="M258.57,168a15.17,15.17,0,0,0,.26,3.23,3.39,3.39,0,0,0,.72,1.41A3.92,3.92,0,0,0,261,173.7a7.08,7.08,0,0,0,2.77.42,6.44,6.44,0,0,0,2.44-.38,3.8,3.8,0,0,0,1.5-1,3.64,3.64,0,0,0,.77-1.59,17.12,17.12,0,0,0,.21-3.24v-6.68h-2.57v7a15.08,15.08,0,0,1-.11,2.16,1.78,1.78,0,0,1-.67,1.1,2.58,2.58,0,0,1-1.65.45,2.79,2.79,0,0,1-1.7-.47,2.1,2.1,0,0,1-.78-1.26,13.13,13.13,0,0,1-.1-2.12v-6.89h-2.57Z"/><polygon class="cls-20" points="265.04 157.17 265.04 151.83 269.72 144.45 266.76 144.45 263.83 149.48 260.83 144.45 257.82 144.45 262.48 151.81 262.48 157.17 265.04 157.17"/><path class="cls-20" d="M290.86,146.6h2c1,0,1.67,0,1.88.05a1.56,1.56,0,0,1,1,.49,1.59,1.59,0,0,1,.34,1,1.66,1.66,0,0,1-.26.95,1.39,1.39,0,0,1-.72.54,9.45,9.45,0,0,1-2.31.16h-1.9Zm0,10.57v-5.31h.52a4.41,4.41,0,0,1,1.29.14,2.09,2.09,0,0,1,.77.53,16.92,16.92,0,0,1,1.36,1.87l1.86,2.77h3.07l-1.56-2.48a14.61,14.61,0,0,0-1.46-2.07,6.12,6.12,0,0,0-1.37-1.06,4.09,4.09,0,0,0,2.51-1.18,3.4,3.4,0,0,0,.84-2.37,3.67,3.67,0,0,0-.55-2,2.94,2.94,0,0,0-1.48-1.22,9.26,9.26,0,0,0-3-.34h-5.41v12.72Z"/><path d="M290.86,128.69h2c1,0,1.67,0,1.88,0a1.62,1.62,0,0,1,1,.5,1.59,1.59,0,0,1,.34,1,1.66,1.66,0,0,1-.26.95,1.39,1.39,0,0,1-.72.54,9.45,9.45,0,0,1-2.31.16h-1.9Zm0,10.57V134h.52a4.41,4.41,0,0,1,1.29.14,2,2,0,0,1,.77.53,16.92,16.92,0,0,1,1.36,1.87l1.86,2.77h3.07l-1.56-2.48a14.61,14.61,0,0,0-1.46-2.07,5.85,5.85,0,0,0-1.37-1.06,4.09,4.09,0,0,0,2.51-1.18,3.4,3.4,0,0,0,.84-2.37,3.64,3.64,0,0,0-.55-2,2.94,2.94,0,0,0-1.48-1.22,9.26,9.26,0,0,0-3-.34h-5.41v12.72Z"/><path class="cls-20" d="M297.14,115.84v1.61a5.58,5.58,0,0,1-1.39.77,4.43,4.43,0,0,1-1.62.31,3.34,3.34,0,0,1-2.64-1.13,5,5,0,0,1-1-3.39,4.51,4.51,0,0,1,1-3.17,3.48,3.48,0,0,1,2.68-1.07,3.07,3.07,0,0,1,1.85.54,2.73,2.73,0,0,1,1,1.48l2.55-.47a4.49,4.49,0,0,0-1.71-2.75,6.11,6.11,0,0,0-3.7-1,6.63,6.63,0,0,0-3.05.63,5.64,5.64,0,0,0-2.44,2.37,7.36,7.36,0,0,0-.83,3.53,7.72,7.72,0,0,0,.75,3.39,5.27,5.27,0,0,0,2.23,2.39,6.89,6.89,0,0,0,3.47.84,8.47,8.47,0,0,0,3.11-.6,6.91,6.91,0,0,0,2.34-1.37v-5.07H294.2v2.15Z"/><path class="cls-20" d="M295.3,81.87a15.9,15.9,0,0,0,.25,3.22,3.57,3.57,0,0,0,.72,1.41,4,4,0,0,0,1.49,1.1,7.08,7.08,0,0,0,2.77.42,6.42,6.42,0,0,0,2.44-.39,3.8,3.8,0,0,0,1.5-1,3.59,3.59,0,0,0,.77-1.59,17.28,17.28,0,0,0,.2-3.24V75.08h-2.56v7a13.56,13.56,0,0,1-.12,2.16,1.71,1.71,0,0,1-.66,1.09,2.58,2.58,0,0,1-1.65.45,2.77,2.77,0,0,1-1.7-.47A2,2,0,0,1,298,84.1a13.37,13.37,0,0,1-.1-2.13V75.08H295.3Z"/></g><text class="cls-25" transform="translate(4.36 20.04)">DUF1646 motif</text><text class="cls-25" transform="translate(70.5 191.56)">P1</text><text class="cls-25" transform="translate(222.85 191.56)">P2</text><text class="cls-25" transform="translate(56.54 233.67)">5<tspan class="cls-26" x="11.12" y="0">’</tspan></text></svg>