<?xml version="1.0" encoding="utf-8"?>
<!-- Generator: Adobe Illustrator 16.0.0, SVG Export Plug-In . SVG Version: 6.00 Build 0)  -->
<!DOCTYPE svg PUBLIC "-//W3C//DTD SVG 1.1//EN" "http://www.w3.org/Graphics/SVG/1.1/DTD/svg11.dtd">
<svg version="1.1" id="图层_1" xmlns="http://www.w3.org/2000/svg" xmlns:xlink="http://www.w3.org/1999/xlink" x="0px" y="0px"
	 width="400px" height="400px" viewBox="0 0 400 400" enable-background="new 0 0 400 400" xml:space="preserve">
<g>
	<path fill="none" stroke="#000000" stroke-width="1.44" d="M118.722,370.896h7.088"/>
	<path fill="#D5ECC3" d="M105.791,352.209L105.791,352.209h32.95v9.816h-32.95V352.209z"/>
	<path fill="none" stroke="#000000" stroke-width="1.44" d="M118.722,357.116h7.088"/>
	<path fill="none" stroke="#000000" stroke-width="1.44" d="M118.722,343.333h7.088"/>
	<path fill="none" stroke="#000000" stroke-width="1.44" d="M118.722,329.553h7.088"/>
	<path fill="#D5ECC3" d="M105.791,310.863L105.791,310.863h32.95v9.816h-32.95V310.863z"/>
	<path fill="none" stroke="#000000" stroke-width="1.44" d="M118.722,315.77h7.088"/>
	<path fill="none" stroke="#000000" stroke-width="1.44" d="M118.722,301.988h7.088"/>
	<path fill="none" stroke="#000000" stroke-width="1.44" d="M118.722,288.21h7.088"/>
	<path fill="none" stroke="#000000" stroke-width="1.44" d="M118.722,274.428h7.088"/>
	<path fill="none" stroke="#000000" stroke-width="1.44" d="M118.722,260.646h7.088"/>
	<path fill="#D5ECC3" d="M105.791,241.958L105.791,241.958h32.95v9.815h-32.95V241.958z"/>
	<path fill="none" stroke="#000000" stroke-width="1.44" d="M118.722,246.863h7.088"/>
	<path fill="#D5ECC3" d="M105.791,228.175L105.791,228.175h32.95v9.817h-32.95V228.175z"/>
	<path fill="none" stroke="#000000" stroke-width="1.44" d="M118.722,233.083h7.088"/>
	<path fill="#D5ECC3" d="M105.791,214.395L105.791,214.395h32.95v9.814h-32.95V214.395z"/>
	<path fill="none" stroke="#000000" stroke-width="1.44" d="M118.722,219.3h7.088"/>
	<path fill="#D5ECC3" d="M105.791,200.611L105.791,200.611h32.95v9.816h-32.95V200.611z"/>
	<path fill="none" stroke="#000000" stroke-width="1.44" d="M118.722,205.52h7.088"/>
	<path fill="#D5ECC3" d="M105.791,186.831L105.791,186.831h32.95v9.816h-32.95V186.831z"/>
	<path fill="none" stroke="#000000" stroke-width="1.44" d="M118.722,191.739h7.088"/>
	<path fill="none" stroke="#000000" stroke-width="1.44" d="M118.722,177.957h7.088"/>
	<path fill="#D5ECC3" d="M105.791,159.268L105.791,159.268h32.95v9.816h-32.95V159.268z"/>
	<path fill="none" stroke="#000000" stroke-width="1.44" d="M118.722,164.176h7.088"/>
	<path fill="#D5ECC3" d="M105.791,145.485L105.791,145.485h32.95v9.818h-32.95V145.485z"/>
	<path fill="none" stroke="#000000" stroke-width="1.44" d="M118.722,150.394h7.088"/>
	<path fill="#D5ECC3" d="M105.791,131.705L105.791,131.705h32.95v9.816h-32.95V131.705z"/>
	<path fill="none" stroke="#000000" stroke-width="1.44" d="M118.722,136.613h7.088"/>
	<path fill="#D5ECC3" d="M105.791,117.922L105.791,117.922h32.95v9.818h-32.95V117.922z"/>
	<path fill="none" stroke="#000000" stroke-width="1.44" d="M118.722,122.832h7.088"/>
	<path fill="#D5ECC3" d="M105.791,104.142L105.791,104.142h32.95v9.816h-32.95V104.142z"/>
	<path fill="none" stroke="#000000" stroke-width="1.44" d="M118.722,109.049h7.088"/>
	<path fill="#D5ECC3" d="M105.791,90.361L105.791,90.361h32.95v9.816h-32.95V90.361z"/>
	<path fill="none" stroke="#000000" stroke-width="1.44" d="M118.722,95.269h7.088"/>
	<path fill="none" stroke="#000000" stroke-width="1.44" d="M118.722,81.486h7.088"/>
	<path fill="#D5ECC3" d="M105.791,62.798L105.791,62.798h32.95v9.816h-32.95V62.798z"/>
	<path fill="none" stroke="#000000" stroke-width="1.44" d="M118.722,67.706h7.088"/>
	<path fill="#D5ECC3" d="M105.791,49.015L105.791,49.015h32.95v9.816h-32.95V49.015z"/>
	<path fill="none" stroke="#000000" stroke-width="1.44" d="M118.722,53.923h7.088"/>
	<text transform="matrix(1 0 0 1 105.7913 375.8066)" font-family="'ArialMT'" font-size="21.8754">   </text>
	<text transform="matrix(1 0 0 1 105.7913 375.8066)" fill="#7F7B86" font-family="'ArialMT'" font-size="13.6721">G</text>
	<text transform="matrix(1 0 0 1 116.426 375.8066)" font-family="'ArialMT'" font-size="21.8754"> </text>
	<path fill="#D70000" stroke="#000000" stroke-width="0.72" d="M115.771,357.116c0,2.573-2.087,4.661-4.662,4.661
		c-2.574,0-4.662-2.088-4.662-4.661c0-2.577,2.087-4.663,4.662-4.663S115.771,354.539,115.771,357.116L115.771,357.116z"/>
	<text transform="matrix(1 0 0 1 106.551 348.2441)" font-family="'ArialMT'" font-size="21.8754">   </text>
	<text transform="matrix(1 0 0 1 106.551 348.2441)" fill="#D70000" font-family="'ArialMT'" font-size="13.6721">Y</text>
	<text transform="matrix(1 0 0 1 115.6692 348.2441)" font-family="'ArialMT'" font-size="21.8754"> </text>
	<text transform="matrix(1 0 0 1 106.1741 334.4609)" font-family="'ArialMT'" font-size="21.8754">   </text>
	<text transform="matrix(1 0 0 1 106.1741 334.4609)" fill="#D70000" font-family="'ArialMT'" font-size="13.6721">U</text>
	<text transform="matrix(1 0 0 1 116.0481 334.4609)" font-family="'ArialMT'" font-size="21.8754"> </text>
	<path fill="#D70000" stroke="#000000" stroke-width="0.72" d="M115.771,315.77c0,2.578-2.087,4.664-4.662,4.664
		c-2.574,0-4.662-2.086-4.662-4.664c0-2.574,2.087-4.658,4.662-4.658C113.684,311.109,115.771,313.195,115.771,315.77z"/>
	<text transform="matrix(1 0 0 1 106.1741 306.8984)" font-family="'ArialMT'" font-size="21.8754">   </text>
	<text transform="matrix(1 0 0 1 106.1741 306.8984)" fill="#D70000" font-family="'ArialMT'" font-size="13.6721">C</text>
	<text transform="matrix(1 0 0 1 116.0481 306.8984)" font-family="'ArialMT'" font-size="21.8754"> </text>
	<text transform="matrix(1 0 0 1 106.551 293.1152)" font-family="'ArialMT'" font-size="21.8754">   </text>
	<text transform="matrix(1 0 0 1 106.551 293.1152)" fill="#D70000" font-family="'ArialMT'" font-size="13.6721">A</text>
	<text transform="matrix(1 0 0 1 115.6692 293.1152)" font-family="'ArialMT'" font-size="21.8754"> </text>
	<text transform="matrix(1 0 0 1 98.4495 304.2656)" font-family="'ArialMT'" font-size="21.8754">   </text>
	<text transform="matrix(1 0 0 1 98.4495 304.2656)" fill="#D70000" font-family="'ArialMT'" font-size="13.6721">A</text>
	<text transform="matrix(1 0 0 1 107.5676 304.2656)" font-family="'ArialMT'" font-size="21.8754"> </text>
	<text transform="matrix(1 0 0 1 84.967 308.5234)" font-family="'ArialMT'" font-size="21.8754">   </text>
	<text transform="matrix(1 0 0 1 84.967 308.5234)" fill="#D70000" font-family="'ArialMT'" font-size="13.6721">C</text>
	<text transform="matrix(1 0 0 1 94.8401 308.5234)" font-family="'ArialMT'" font-size="21.8754"> </text>
	<text transform="matrix(1 0 0 1 72.2356 304.2656)" font-family="'ArialMT'" font-size="21.8754">   </text>
	<text transform="matrix(1 0 0 1 72.2356 304.2656)" fill="#D70000" font-family="'ArialMT'" font-size="13.6721">A</text>
	<text transform="matrix(1 0 0 1 81.3557 304.2656)" font-family="'ArialMT'" font-size="21.8754"> </text>
	<text transform="matrix(1 0 0 1 63.7581 293.1152)" font-family="'ArialMT'" font-size="21.8754">   </text>
	<text transform="matrix(1 0 0 1 63.7581 293.1152)" fill="#7F7B86" font-family="'ArialMT'" font-size="13.6721">U</text>
	<text transform="matrix(1 0 0 1 73.6331 293.1152)" font-family="'ArialMT'" font-size="21.8754"> </text>
	<text transform="matrix(1 0 0 1 63.7581 279.3359)" font-family="'ArialMT'" font-size="21.8754">   </text>
	<text transform="matrix(1 0 0 1 63.7581 279.3359)" fill="#D70000" font-family="'ArialMT'" font-size="13.6721">C</text>
	<text transform="matrix(1 0 0 1 73.6331 279.3359)" font-family="'ArialMT'" font-size="21.8754"> </text>
	<text transform="matrix(1 0 0 1 71.8596 268.1855)" font-family="'ArialMT'" font-size="21.8754">   </text>
	<text transform="matrix(1 0 0 1 71.8596 268.1855)" fill="#D70000" font-family="'ArialMT'" font-size="13.6721">C</text>
	<text transform="matrix(1 0 0 1 81.7327 268.1855)" font-family="'ArialMT'" font-size="21.8754"> </text>
	<text transform="matrix(1 0 0 1 84.967 263.9277)" font-family="'ArialMT'" font-size="21.8754">   </text>
	<text transform="matrix(1 0 0 1 84.967 263.9277)" fill="#D70000" font-family="'ArialMT'" font-size="13.6721">C</text>
	<text transform="matrix(1 0 0 1 94.8401 263.9277)" font-family="'ArialMT'" font-size="21.8754"> </text>
	<text transform="matrix(1 0 0 1 98.0745 268.1855)" font-family="'ArialMT'" font-size="21.8754">   </text>
	<text transform="matrix(1 0 0 1 98.0745 268.1855)" fill="#D70000" font-family="'ArialMT'" font-size="13.6721">C</text>
	<text transform="matrix(1 0 0 1 107.9475 268.1855)" font-family="'ArialMT'" font-size="21.8754"> </text>
	<text transform="matrix(1 0 0 1 105.7913 279.3359)" font-family="'ArialMT'" font-size="21.8754">   </text>
	<text transform="matrix(1 0 0 1 105.7913 279.3359)" fill="#D70000" font-family="'ArialMT'" font-size="13.6721">G</text>
	<text transform="matrix(1 0 0 1 116.426 279.3359)" font-family="'ArialMT'" font-size="21.8754"> </text>
	<text transform="matrix(1 0 0 1 106.1741 265.5527)" font-family="'ArialMT'" font-size="21.8754">   </text>
	<text transform="matrix(1 0 0 1 106.1741 265.5527)" fill="#7F7B86" font-family="'ArialMT'" font-size="13.6721">U</text>
	<text transform="matrix(1 0 0 1 116.0481 265.5527)" font-family="'ArialMT'" font-size="21.8754"> </text>
	<path fill="#D70000" stroke="#000000" stroke-width="0.72" d="M115.771,246.863c0,2.576-2.087,4.664-4.662,4.664
		c-2.574,0-4.662-2.088-4.662-4.664c0-2.574,2.087-4.661,4.662-4.661S115.771,244.289,115.771,246.863z"/>
	<path fill="#D70000" stroke="#000000" stroke-width="0.72" d="M115.771,233.083c0,2.573-2.087,4.663-4.662,4.663
		c-2.574,0-4.662-2.09-4.662-4.663c0-2.575,2.087-4.664,4.662-4.664S115.771,230.508,115.771,233.083z"/>
	<path stroke="#000000" stroke-width="0.72" d="M115.771,219.3c0,2.577-2.087,4.663-4.662,4.663c-2.574,0-4.662-2.086-4.662-4.663
		c0-2.573,2.087-4.659,4.662-4.659S115.771,216.727,115.771,219.3L115.771,219.3z"/>
	<path fill="#D70000" stroke="#000000" stroke-width="0.72" d="M115.771,205.52c0,2.574-2.087,4.664-4.662,4.664
		c-2.574,0-4.662-2.09-4.662-4.664c0-2.572,2.087-4.66,4.662-4.66C113.684,200.857,115.771,202.945,115.771,205.52z"/>
	<path stroke="#000000" stroke-width="0.72" d="M115.771,191.739c0,2.574-2.087,4.661-4.662,4.661c-2.574,0-4.662-2.087-4.662-4.661
		c0-2.577,2.087-4.663,4.662-4.663C113.684,187.077,115.771,189.163,115.771,191.739z"/>
	<path fill="#7F7B86" stroke="#000000" stroke-width="0.72" d="M115.771,177.957c0,2.574-2.087,4.663-4.662,4.663
		c-2.574,0-4.662-2.089-4.662-4.663c0-2.574,2.087-4.662,4.662-4.662C113.684,173.294,115.771,175.382,115.771,177.957z"/>
	<path stroke="#000000" stroke-width="0.72" d="M115.771,164.176c0,2.574-2.087,4.663-4.662,4.663c-2.574,0-4.662-2.088-4.662-4.663
		c0-2.576,2.087-4.662,4.662-4.662S115.771,161.6,115.771,164.176z"/>
	<text transform="matrix(1 0 0 1 106.1741 155.3022)" font-family="'ArialMT'" font-size="21.8754">   </text>
	<text transform="matrix(1 0 0 1 106.1741 155.3022)" fill="#7F7B86" font-family="'ArialMT'" font-size="13.6721">R</text>
	<text transform="matrix(1 0 0 1 116.0481 155.3022)" font-family="'ArialMT'" font-size="21.8754"> </text>
	<path stroke="#000000" stroke-width="0.72" d="M115.771,136.613c0,2.574-2.087,4.662-4.662,4.662c-2.574,0-4.662-2.088-4.662-4.662
		c0-2.574,2.087-4.663,4.662-4.663S115.771,134.039,115.771,136.613L115.771,136.613z"/>
	<path fill="#7F7B86" stroke="#000000" stroke-width="0.72" d="M115.771,122.832c0,2.574-2.087,4.661-4.662,4.661
		c-2.574,0-4.662-2.086-4.662-4.661c0-2.576,2.087-4.662,4.662-4.662S115.771,120.256,115.771,122.832z"/>
	<path fill="#7F7B86" stroke="#000000" stroke-width="0.72" d="M115.771,109.049c0,2.574-2.087,4.663-4.662,4.663
		c-2.574,0-4.662-2.088-4.662-4.663c0-2.575,2.087-4.662,4.662-4.662S115.771,106.475,115.771,109.049z"/>
	<path fill="#7F7B86" stroke="#000000" stroke-width="0.72" d="M115.771,95.269c0,2.574-2.087,4.663-4.662,4.663
		c-2.574,0-4.662-2.089-4.662-4.663c0-2.576,2.087-4.662,4.662-4.662S115.771,92.693,115.771,95.269L115.771,95.269z"/>
	<path fill="#FFFFFF" stroke="#000000" stroke-width="0.72" d="M115.771,81.486c0,2.576-2.087,4.663-4.662,4.663
		c-2.574,0-4.662-2.086-4.662-4.663c0-2.574,2.087-4.663,4.662-4.663C113.684,76.824,115.771,78.912,115.771,81.486z"/>
	<path fill="#FFFFFF" stroke="#000000" stroke-width="0.72" d="M115.771,67.706c0,2.574-2.087,4.662-4.662,4.662
		c-2.574,0-4.662-2.088-4.662-4.662c0-2.576,2.087-4.663,4.662-4.663S115.771,65.13,115.771,67.706z"/>
	<path fill="#FFFFFF" stroke="#000000" stroke-width="0.72" d="M115.771,53.923c0,2.576-2.087,4.662-4.662,4.662
		c-2.574,0-4.662-2.086-4.662-4.662c0-2.575,2.087-4.662,4.662-4.662S115.771,51.349,115.771,53.923z"/>
	<path fill="#D70000" stroke="#000000" stroke-width="0.72" d="M109.571,41.617c0,2.574-2.088,4.663-4.662,4.663
		c-2.575,0-4.662-2.088-4.662-4.663c0-2.576,2.087-4.663,4.662-4.663C107.483,36.954,109.571,39.041,109.571,41.617z"/>
	<path fill="#D70000" stroke="#000000" stroke-width="0.72" d="M114.275,28.662c0,2.576-2.087,4.663-4.663,4.663
		c-2.575,0-4.662-2.087-4.662-4.663c0-2.574,2.087-4.663,4.662-4.663C112.188,24,114.275,26.088,114.275,28.662z"/>
	<path stroke="#000000" stroke-width="0.72" d="M126.928,23.2c0,2.577-2.088,4.663-4.662,4.663c-2.575,0-4.663-2.086-4.663-4.663
		c0-2.574,2.088-4.662,4.663-4.662C124.84,18.538,126.928,20.626,126.928,23.2z"/>
	<path fill="#7F7B86" stroke="#000000" stroke-width="0.72" d="M139.581,28.662c0,2.576-2.087,4.663-4.663,4.663
		c-2.573,0-4.662-2.087-4.662-4.663c0-2.574,2.089-4.663,4.662-4.663C137.493,24,139.581,26.088,139.581,28.662L139.581,28.662z"/>
	<path fill="#FFFFFF" stroke="#000000" stroke-width="0.72" d="M144.284,41.617c-0.001,2.574-2.091,4.66-4.666,4.657
		c-2.572-0.001-4.655-2.086-4.658-4.657c0.003-2.576,2.09-4.66,4.666-4.659C142.197,36.959,144.283,39.044,144.284,41.617z"/>
	<path fill="#FFFFFF" stroke="#000000" stroke-width="0.72" d="M138.084,53.923c0,2.576-2.087,4.662-4.662,4.662
		c-2.574,0-4.663-2.086-4.663-4.662c0-2.575,2.088-4.662,4.663-4.662C135.998,49.261,138.084,51.349,138.084,53.923L138.084,53.923z
		"/>
	<path fill="#FFFFFF" stroke="#000000" stroke-width="0.72" d="M138.084,67.706c0,2.574-2.087,4.662-4.662,4.662
		c-2.574,0-4.663-2.088-4.663-4.662c0-2.576,2.088-4.663,4.663-4.663C135.998,63.043,138.084,65.13,138.084,67.706L138.084,67.706z"
		/>
	<path fill="#FFFFFF" stroke="#000000" stroke-width="0.72" d="M138.084,81.486c0,2.576-2.087,4.663-4.662,4.663
		c-2.574,0-4.663-2.086-4.663-4.663l0,0c0-2.574,2.088-4.663,4.663-4.663C135.998,76.823,138.084,78.912,138.084,81.486z"/>
	<path fill="#FFFFFF" stroke="#000000" stroke-width="0.72" d="M138.084,95.269c0,2.574-2.087,4.663-4.662,4.663
		c-2.574,0-4.663-2.089-4.663-4.663c0-2.576,2.088-4.662,4.663-4.662C135.998,90.607,138.084,92.693,138.084,95.269z"/>
	<path fill="#FFFFFF" stroke="#000000" stroke-width="0.72" d="M138.084,109.049c0,2.574-2.087,4.663-4.662,4.663
		c-2.574,0-4.663-2.088-4.663-4.663c0-2.575,2.088-4.662,4.663-4.662C135.998,104.387,138.084,106.475,138.084,109.049z"/>
	<path fill="#7F7B86" stroke="#000000" stroke-width="0.72" d="M138.084,122.832c0,2.574-2.087,4.661-4.662,4.661
		c-2.574,0-4.663-2.086-4.663-4.661c0-2.576,2.088-4.662,4.663-4.662C135.998,118.17,138.084,120.256,138.084,122.832z"/>
	<path fill="#7F7B86" stroke="#000000" stroke-width="0.72" d="M138.084,136.613c0,2.574-2.087,4.662-4.662,4.662
		c-2.574,0-4.663-2.088-4.663-4.662c0-2.574,2.088-4.663,4.663-4.663C135.998,131.95,138.084,134.039,138.084,136.613z"/>
	<path fill="#7F7B86" stroke="#000000" stroke-width="0.72" d="M138.084,150.394c0,2.576-2.087,4.663-4.662,4.663
		c-2.574,0-4.663-2.087-4.663-4.663c0-2.574,2.088-4.661,4.663-4.661C135.998,145.733,138.084,147.819,138.084,150.394z"/>
	<path fill="#7F7B86" stroke="#000000" stroke-width="0.72" d="M138.084,164.176c0,2.574-2.087,4.663-4.662,4.663
		c-2.574,0-4.663-2.088-4.663-4.663c0-2.576,2.088-4.662,4.663-4.662C135.998,159.514,138.084,161.6,138.084,164.176z"/>
	<path fill="#7F7B86" stroke="#000000" stroke-width="0.72" d="M138.084,177.957c0,2.574-2.087,4.663-4.662,4.663
		c-2.574,0-4.663-2.089-4.663-4.663c0-2.574,2.088-4.662,4.663-4.662C135.998,173.295,138.084,175.382,138.084,177.957z"/>
	<text transform="matrix(1 0 0 1 142.6448 182.8647)" font-family="'ArialMT'" font-size="21.8754">   </text>
	<text transform="matrix(1 0 0 1 142.6448 182.8647)" fill="#7F7B86" font-family="'ArialMT'" font-size="13.6721">Y</text>
	<text transform="matrix(1 0 0 1 151.7639 182.8647)" font-family="'ArialMT'" font-size="21.8754"> </text>
	<text transform="matrix(1 0 0 1 142.2678 196.645)" font-family="'ArialMT'" font-size="21.8754">   </text>
	<text transform="matrix(1 0 0 1 142.2678 196.645)" fill="#7F7B86" font-family="'ArialMT'" font-size="13.6721">R</text>
	<text transform="matrix(1 0 0 1 152.1409 196.645)" font-family="'ArialMT'" font-size="21.8754"> </text>
	<path fill="#D70000" stroke="#000000" stroke-width="0.72" d="M138.084,191.739c0,2.574-2.087,4.661-4.662,4.661
		c-2.574,0-4.663-2.087-4.663-4.661c0-2.577,2.088-4.663,4.663-4.663C135.998,187.076,138.084,189.163,138.084,191.739
		L138.084,191.739z"/>
	<path fill="#D70000" stroke="#000000" stroke-width="0.72" d="M138.084,205.52c0,2.574-2.087,4.664-4.662,4.664
		c-2.574,0-4.663-2.09-4.663-4.664c0-2.572,2.088-4.66,4.663-4.66C135.998,200.859,138.084,202.945,138.084,205.52z"/>
	<path fill="#D70000" stroke="#000000" stroke-width="0.72" d="M138.084,219.3c0,2.577-2.087,4.663-4.662,4.663
		c-2.574,0-4.663-2.086-4.663-4.663c0-2.573,2.088-4.659,4.663-4.659C135.998,214.641,138.084,216.727,138.084,219.3L138.084,219.3z
		"/>
	<path fill="#D70000" stroke="#000000" stroke-width="0.72" d="M138.084,233.083c0,2.573-2.087,4.663-4.662,4.663
		c-2.574,0-4.663-2.09-4.663-4.663c0-2.575,2.088-4.664,4.663-4.664C135.998,228.419,138.084,230.508,138.084,233.083z"/>
	<path fill="#D70000" stroke="#000000" stroke-width="0.72" d="M138.084,246.863c0,2.576-2.087,4.664-4.662,4.664
		c-2.574,0-4.663-2.088-4.663-4.664c0-2.574,2.088-4.661,4.663-4.661C135.998,242.202,138.084,244.289,138.084,246.863z"/>
	<text transform="matrix(1 0 0 1 128.4866 265.5527)" font-family="'ArialMT'" font-size="21.8754">   </text>
	<text transform="matrix(1 0 0 1 128.4866 265.5527)" fill="#D70000" font-family="'ArialMT'" font-size="13.6721">R</text>
	<text transform="matrix(1 0 0 1 138.3596 265.5527)" font-family="'ArialMT'" font-size="21.8754"> </text>
	<text transform="matrix(1 0 0 1 128.4866 279.3359)" font-family="'ArialMT'" font-size="21.8754">   </text>
	<text transform="matrix(1 0 0 1 128.4866 279.3359)" fill="#D70000" font-family="'ArialMT'" font-size="13.6721">C</text>
	<text transform="matrix(1 0 0 1 138.3596 279.3359)" font-family="'ArialMT'" font-size="21.8754"> </text>
	<text transform="matrix(1 0 0 1 128.4866 293.1152)" font-family="'ArialMT'" font-size="21.8754">   </text>
	<text transform="matrix(1 0 0 1 128.4866 293.1152)" fill="#D70000" font-family="'ArialMT'" font-size="13.6721">U</text>
	<text transform="matrix(1 0 0 1 138.3596 293.1152)" font-family="'ArialMT'" font-size="21.8754"> </text>
	<text transform="matrix(1 0 0 1 128.1047 306.8984)" font-family="'ArialMT'" font-size="21.8754">   </text>
	<text transform="matrix(1 0 0 1 128.1047 306.8984)" fill="#D70000" font-family="'ArialMT'" font-size="13.6721">G</text>
	<text transform="matrix(1 0 0 1 138.7385 306.8984)" font-family="'ArialMT'" font-size="21.8754"> </text>
	<path fill="#D70000" stroke="#000000" stroke-width="0.72" d="M138.084,315.77c0,2.578-2.087,4.664-4.662,4.664
		c-2.574,0-4.663-2.086-4.663-4.664c0-2.574,2.088-4.658,4.663-4.658C135.998,311.111,138.084,313.195,138.084,315.77z"/>
	<text transform="matrix(1 0 0 1 128.8625 334.4609)" font-family="'ArialMT'" font-size="21.8754">   </text>
	<text transform="matrix(1 0 0 1 128.8625 334.4609)" fill="#D70000" font-family="'ArialMT'" font-size="13.6721">A</text>
	<text transform="matrix(1 0 0 1 137.9817 334.4609)" font-family="'ArialMT'" font-size="21.8754"> </text>
	<text transform="matrix(1 0 0 1 128.1047 348.2441)" font-family="'ArialMT'" font-size="21.8754">   </text>
	<text transform="matrix(1 0 0 1 128.1047 348.2441)" fill="#7F7B86" font-family="'ArialMT'" font-size="13.6721">G</text>
	<text transform="matrix(1 0 0 1 138.7385 348.2441)" font-family="'ArialMT'" font-size="21.8754"> </text>
	<path fill="#D70000" stroke="#000000" stroke-width="0.72" d="M138.084,357.116c0,2.573-2.087,4.661-4.662,4.661
		c-2.574,0-4.663-2.088-4.663-4.661c0-2.577,2.088-4.663,4.663-4.663C135.998,352.453,138.084,354.539,138.084,357.116z"/>
	<text transform="matrix(1 0 0 1 128.4866 375.8066)" font-family="'ArialMT'" font-size="21.8754">   </text>
	<text transform="matrix(1 0 0 1 128.4866 375.8066)" fill="#7F7B86" font-family="'ArialMT'" font-size="13.6721">C</text>
	<text transform="matrix(1 0 0 1 138.3596 375.8066)" font-family="'ArialMT'" font-size="21.8754"> </text>
	<path fill="none" stroke="#000000" stroke-width="0.72" d="M111.109,377.395c0.001,1.795-1.453,3.246-3.248,3.248l0,0h-6.497"/>
	<text transform="matrix(1 0 0 1 88.4182 385.5488)" font-family="'ArialMT'" font-size="21.8754">   </text>
	<text transform="matrix(1 0 0 1 88.4182 385.5488)" font-family="'ArialMT'" font-size="13.6721">5&apos;</text>
	<text transform="matrix(1 0 0 1 98.6301 385.5488)" font-family="'ArialMT'" font-size="21.8754"> </text>
</g>
<g>
	<path fill="#070000" d="M228.505,336.881l1.227-0.122c0.105,0.607,0.298,1.048,0.594,1.321c0.29,0.275,0.664,0.412,1.122,0.412
		c0.392,0,0.734-0.096,1.035-0.283c0.299-0.186,0.537-0.439,0.72-0.756c0.186-0.314,0.34-0.737,0.469-1.273
		c0.124-0.535,0.189-1.084,0.189-1.642c0-0.06-0.003-0.151-0.007-0.271c-0.254,0.428-0.601,0.778-1.04,1.043
		c-0.439,0.266-0.915,0.396-1.43,0.396c-0.855,0-1.576-0.327-2.168-0.984c-0.597-0.658-0.886-1.525-0.886-2.602
		c0-1.112,0.311-2.008,0.932-2.686c0.62-0.676,1.398-1.016,2.337-1.016c0.677,0,1.297,0.191,1.857,0.572
		c0.561,0.387,0.987,0.928,1.274,1.64c0.292,0.712,0.439,1.735,0.439,3.077c0,1.396-0.145,2.514-0.436,3.34
		c-0.285,0.826-0.718,1.458-1.292,1.895c-0.57,0.433-1.239,0.646-2.004,0.646c-0.818,0-1.481-0.24-1.998-0.714
		C228.92,338.404,228.612,337.74,228.505,336.881z M233.732,332.051c0-0.77-0.195-1.385-0.577-1.837
		c-0.387-0.454-0.854-0.683-1.41-0.683c-0.578,0-1.072,0.246-1.485,0.732c-0.415,0.489-0.622,1.122-0.622,1.899
		c0,0.696,0.198,1.265,0.593,1.702c0.391,0.437,0.885,0.652,1.478,0.652s1.076-0.217,1.453-0.652
		C233.542,333.432,233.732,332.822,233.732,332.051z"/>
	<path fill="#070000" d="M236.434,334.016c0-1.291,0.125-2.334,0.383-3.127c0.254-0.795,0.635-1.402,1.138-1.826
		c0.504-0.424,1.137-0.635,1.897-0.635c0.563,0,1.062,0.117,1.488,0.354c0.428,0.235,0.781,0.577,1.055,1.022
		c0.271,0.444,0.483,0.985,0.641,1.627c0.158,0.639,0.238,1.5,0.238,2.586c0,1.28-0.126,2.321-0.378,3.114
		c-0.256,0.794-0.632,1.404-1.136,1.83c-0.502,0.427-1.138,0.636-1.906,0.636c-1.01,0-1.804-0.371-2.383-1.117
		C236.779,337.561,236.434,336.07,236.434,334.016z M237.748,334.014c0,1.807,0.202,3.004,0.607,3.596
		c0.404,0.592,0.904,0.884,1.497,0.884c0.596,0,1.092-0.296,1.5-0.888c0.401-0.592,0.604-1.789,0.604-3.592
		s-0.202-2.998-0.603-3.592c-0.402-0.592-0.91-0.889-1.52-0.889c-0.591,0-1.066,0.262-1.429,0.783
		C237.968,330.984,237.748,332.216,237.748,334.014z"/>
	<path fill="#070000" d="M244.751,331.098c0-0.783,0.186-1.447,0.562-1.996c0.373-0.55,0.913-0.824,1.623-0.824
		c0.656,0,1.192,0.244,1.624,0.734c0.427,0.491,0.643,1.215,0.643,2.163c0,0.931-0.217,1.644-0.649,2.146
		c-0.437,0.502-0.97,0.75-1.603,0.75c-0.626,0-1.154-0.245-1.571-0.739C244.96,332.84,244.751,332.096,244.751,331.098z
		 M246.971,329.234c-0.32,0-0.589,0.146-0.799,0.429c-0.211,0.284-0.318,0.808-0.318,1.567c0,0.694,0.108,1.181,0.321,1.463
		c0.215,0.283,0.479,0.425,0.796,0.425c0.324,0,0.593-0.144,0.805-0.427c0.212-0.282,0.317-0.809,0.317-1.56
		c0-0.698-0.107-1.188-0.318-1.47C247.558,329.373,247.291,329.234,246.971,329.234z M246.979,339.837l5.763-11.562h1.067
		l-5.769,11.562H246.979z M251.561,336.861c0-0.789,0.188-1.452,0.56-2.002c0.373-0.543,0.917-0.816,1.631-0.816
		c0.65,0,1.191,0.245,1.617,0.734c0.432,0.492,0.644,1.214,0.644,2.164c0,0.929-0.217,1.643-0.65,2.144
		c-0.432,0.5-0.969,0.752-1.604,0.752c-0.631,0-1.151-0.248-1.57-0.743C251.771,338.598,251.561,337.854,251.561,336.861z
		 M253.784,334.997c-0.322,0-0.59,0.144-0.802,0.429c-0.212,0.282-0.317,0.807-0.317,1.568c0,0.689,0.109,1.173,0.32,1.46
		c0.213,0.282,0.479,0.427,0.793,0.427c0.329,0,0.599-0.145,0.811-0.427c0.209-0.285,0.315-0.808,0.315-1.562
		c0-0.697-0.106-1.188-0.321-1.47C254.369,335.139,254.101,334.997,253.784,334.997z"/>
</g>
<path fill="#221E1F" d="M223.496,334.93c0,2.35-1.905,4.256-4.247,4.256c-2.352,0-4.255-1.904-4.255-4.256
	c0-2.349,1.903-4.254,4.255-4.254C221.592,330.676,223.496,332.581,223.496,334.93"/>
<circle fill="none" stroke="#050000" stroke-width="0.72" stroke-miterlimit="10" cx="219.244" cy="334.932" r="4.25"/>
<g>
	<path fill="#070000" d="M228.505,321.746l1.227-0.12c0.105,0.606,0.298,1.045,0.594,1.317c0.29,0.273,0.664,0.41,1.122,0.41
		c0.392,0,0.734-0.092,1.035-0.279c0.299-0.188,0.537-0.438,0.72-0.754c0.186-0.315,0.34-0.739,0.469-1.276
		c0.124-0.534,0.189-1.081,0.189-1.64c0-0.059-0.003-0.15-0.007-0.268c-0.254,0.426-0.601,0.773-1.04,1.04
		c-0.439,0.265-0.915,0.4-1.43,0.4c-0.855,0-1.576-0.332-2.168-0.987c-0.597-0.658-0.886-1.525-0.886-2.602
		c0-1.112,0.311-2.006,0.932-2.687c0.62-0.676,1.398-1.015,2.337-1.015c0.677,0,1.297,0.188,1.857,0.574s0.987,0.929,1.274,1.64
		c0.292,0.709,0.439,1.733,0.439,3.078c0,1.396-0.145,2.51-0.436,3.337c-0.285,0.829-0.718,1.46-1.292,1.891
		c-0.57,0.437-1.239,0.647-2.004,0.647c-0.818,0-1.481-0.237-1.998-0.711C228.923,323.271,228.612,322.605,228.505,321.746z
		 M233.732,316.918c0-0.771-0.195-1.387-0.577-1.839c-0.387-0.455-0.854-0.681-1.41-0.681c-0.578,0-1.072,0.242-1.485,0.731
		c-0.415,0.487-0.622,1.121-0.622,1.899c0,0.697,0.198,1.266,0.593,1.701c0.391,0.438,0.885,0.653,1.478,0.653
		s1.076-0.216,1.453-0.653C233.542,318.293,233.732,317.688,233.732,316.918z"/>
	<path fill="#070000" d="M236.524,314.754v-1.283h6.749v1.038c-0.662,0.742-1.318,1.729-1.974,2.96
		c-0.649,1.229-1.155,2.499-1.508,3.803c-0.26,0.916-0.422,1.92-0.493,3.014h-1.312c0.012-0.861,0.176-1.905,0.482-3.127
		c0.308-1.221,0.748-2.396,1.322-3.532c0.578-1.133,1.189-2.092,1.839-2.866h-5.105L236.524,314.754L236.524,314.754z"/>
	<path fill="#070000" d="M244.751,315.962c0-0.782,0.186-1.448,0.562-1.997c0.373-0.549,0.913-0.82,1.623-0.82
		c0.656,0,1.192,0.244,1.624,0.735c0.427,0.492,0.643,1.213,0.643,2.162c0,0.929-0.217,1.642-0.649,2.146
		c-0.437,0.5-0.97,0.75-1.603,0.75c-0.626,0-1.154-0.246-1.571-0.74C244.96,317.705,244.751,316.958,244.751,315.962z
		 M246.971,314.1c-0.32,0-0.589,0.145-0.799,0.43c-0.211,0.281-0.318,0.805-0.318,1.568c0,0.691,0.108,1.18,0.321,1.461
		c0.215,0.282,0.479,0.424,0.796,0.424c0.324,0,0.593-0.144,0.805-0.426c0.212-0.285,0.317-0.806,0.317-1.562
		c0-0.699-0.107-1.187-0.318-1.47C247.558,314.238,247.291,314.1,246.971,314.1z M246.979,324.701l5.763-11.559h1.067l-5.769,11.559
		H246.979z M251.561,321.727c0-0.785,0.188-1.451,0.56-1.998c0.373-0.545,0.917-0.817,1.631-0.817c0.65,0,1.191,0.245,1.617,0.735
		c0.432,0.492,0.644,1.213,0.644,2.164c0,0.928-0.217,1.642-0.65,2.141c-0.432,0.501-0.969,0.751-1.604,0.751
		c-0.631,0-1.151-0.25-1.57-0.742C251.771,323.463,251.561,322.719,251.561,321.727z M253.784,319.863
		c-0.322,0-0.59,0.143-0.802,0.427c-0.212,0.285-0.317,0.81-0.317,1.567c0,0.69,0.109,1.177,0.32,1.463
		c0.213,0.283,0.479,0.427,0.793,0.427c0.329,0,0.599-0.142,0.811-0.427c0.209-0.284,0.315-0.805,0.315-1.563
		c0-0.697-0.106-1.188-0.321-1.47C254.369,320.003,254.101,319.863,253.784,319.863z"/>
</g>
<path fill="#C42B2B" d="M223.496,319.796c0,2.349-1.905,4.253-4.252,4.253c-2.349,0-4.25-1.902-4.25-4.253s1.9-4.253,4.25-4.253
	C221.594,315.543,223.496,317.445,223.496,319.796"/>
<circle fill="none" stroke="#050000" stroke-width="0.72" stroke-miterlimit="10" cx="219.244" cy="319.796" r="4.251"/>
<g>
	<path fill="#070000" d="M280.027,314.754v-1.283h6.75v1.038c-0.667,0.742-1.322,1.729-1.974,2.96
		c-0.65,1.229-1.153,2.499-1.51,3.803c-0.256,0.916-0.419,1.92-0.49,3.014h-1.315c0.016-0.861,0.176-1.905,0.484-3.127
		c0.308-1.221,0.75-2.396,1.321-3.532c0.575-1.136,1.189-2.092,1.837-2.866h-5.104V314.754z"/>
	<path fill="#070000" d="M288.043,321.416l1.316-0.12c0.099,0.683,0.328,1.199,0.684,1.543c0.358,0.345,0.8,0.519,1.319,0.519
		c0.631,0,1.157-0.242,1.575-0.729s0.63-1.131,0.63-1.936c0-0.769-0.2-1.371-0.601-1.813c-0.397-0.441-0.933-0.664-1.607-0.664
		c-0.418,0-0.792,0.098-1.114,0.29c-0.327,0.197-0.581,0.445-0.771,0.757l-1.193-0.183l1.016-5.616h5.167v1.283h-4.146l-0.567,2.963
		c0.625-0.462,1.276-0.695,1.963-0.695c0.905,0,1.668,0.332,2.289,0.994c0.623,0.662,0.936,1.512,0.936,2.551
		c0,0.989-0.275,1.844-0.823,2.566c-0.671,0.885-1.581,1.328-2.734,1.328c-0.943,0-1.718-0.277-2.318-0.833
		C288.469,323.07,288.125,322.337,288.043,321.416z"/>
	<path fill="#070000" d="M296.361,315.962c0-0.782,0.186-1.448,0.56-1.997c0.373-0.549,0.915-0.82,1.625-0.82
		c0.655,0,1.192,0.244,1.625,0.735c0.425,0.492,0.642,1.213,0.642,2.162c0,0.929-0.218,1.642-0.651,2.146
		c-0.436,0.5-0.968,0.75-1.603,0.75c-0.625,0-1.152-0.246-1.57-0.74C296.569,317.705,296.361,316.958,296.361,315.962z
		 M298.58,314.1c-0.318,0-0.587,0.145-0.798,0.43c-0.211,0.281-0.316,0.805-0.316,1.568c0,0.691,0.107,1.18,0.319,1.461
		c0.214,0.282,0.48,0.424,0.795,0.424c0.326,0,0.594-0.144,0.807-0.426c0.213-0.285,0.317-0.806,0.317-1.562
		c0-0.699-0.107-1.187-0.319-1.47C299.166,314.238,298.899,314.1,298.58,314.1z M298.589,324.701l5.763-11.559h1.066l-5.767,11.559
		H298.589z M303.17,321.727c0-0.785,0.188-1.451,0.56-1.998c0.375-0.545,0.917-0.817,1.632-0.817c0.649,0,1.19,0.245,1.616,0.735
		c0.432,0.492,0.643,1.213,0.643,2.164c0,0.928-0.216,1.642-0.649,2.141c-0.433,0.501-0.967,0.751-1.604,0.751
		c-0.631,0-1.151-0.25-1.568-0.742C303.382,323.463,303.17,322.719,303.17,321.727z M305.394,319.863
		c-0.324,0-0.588,0.143-0.803,0.427c-0.211,0.285-0.318,0.81-0.318,1.567c0,0.69,0.109,1.177,0.321,1.463
		c0.214,0.283,0.477,0.427,0.792,0.427c0.33,0,0.6-0.142,0.811-0.427c0.211-0.284,0.318-0.805,0.318-1.563
		c0-0.697-0.108-1.188-0.322-1.47C305.979,320.003,305.712,319.863,305.394,319.863z"/>
</g>
<g>
	<path fill="#7F7B84" d="M275.105,319.794c0,2.349-1.904,4.25-4.252,4.25c-2.346,0-4.248-1.901-4.248-4.25
		c0-2.351,1.902-4.256,4.248-4.256C273.201,315.538,275.105,317.443,275.105,319.794"/>
	<circle fill="none" stroke="#050000" stroke-width="0.72" stroke-miterlimit="10" cx="270.856" cy="319.792" r="4.25"/>
</g>
<circle fill="none" stroke="#050000" stroke-width="0.72" stroke-miterlimit="10" cx="270.856" cy="334.932" r="4.25"/>
<g>
	<path fill="#070000" d="M279.935,336.549l1.314-0.119c0.099,0.684,0.327,1.195,0.688,1.543c0.355,0.346,0.796,0.518,1.317,0.518
		c0.628,0,1.155-0.242,1.574-0.729c0.42-0.486,0.63-1.129,0.63-1.935c0-0.767-0.198-1.371-0.598-1.812
		c-0.398-0.439-0.937-0.664-1.611-0.664c-0.42,0-0.79,0.1-1.113,0.291c-0.327,0.193-0.581,0.445-0.767,0.758l-1.196-0.186
		l1.015-5.613h5.166v1.283h-4.146l-0.567,2.963c0.625-0.461,1.277-0.695,1.963-0.695c0.906,0,1.672,0.332,2.292,0.992
		c0.62,0.662,0.935,1.512,0.935,2.551c0,0.99-0.275,1.846-0.824,2.566c-0.667,0.885-1.577,1.327-2.732,1.327
		c-0.946,0-1.719-0.276-2.319-0.833C280.364,338.202,280.023,337.468,279.935,336.549z"/>
	<path fill="#070000" d="M288.043,334.014c0-1.293,0.128-2.336,0.383-3.127c0.256-0.795,0.636-1.402,1.139-1.826
		c0.505-0.424,1.137-0.636,1.898-0.636c0.562,0,1.062,0.117,1.49,0.354c0.425,0.236,0.779,0.578,1.052,1.021
		c0.274,0.447,0.485,0.989,0.643,1.63c0.156,0.639,0.235,1.5,0.235,2.586c0,1.28-0.126,2.321-0.377,3.115
		c-0.257,0.794-0.631,1.403-1.136,1.83c-0.502,0.426-1.139,0.637-1.907,0.637c-1.009,0-1.804-0.373-2.381-1.119
		C288.387,337.555,288.043,336.066,288.043,334.014z M289.357,334.008c0,1.809,0.199,3.006,0.604,3.598
		c0.407,0.59,0.905,0.885,1.496,0.885c0.597,0,1.095-0.297,1.5-0.889c0.403-0.594,0.607-1.789,0.607-3.594
		c0-1.802-0.203-2.998-0.604-3.591c-0.4-0.592-0.91-0.888-1.517-0.888c-0.593,0-1.068,0.261-1.431,0.783
		C289.578,330.979,289.357,332.211,289.357,334.008z"/>
	<path fill="#070000" d="M296.361,331.09c0-0.779,0.186-1.445,0.56-1.994c0.373-0.549,0.915-0.822,1.625-0.822
		c0.655,0,1.192,0.246,1.625,0.735c0.425,0.492,0.642,1.216,0.642,2.164c0,0.929-0.218,1.644-0.651,2.144
		c-0.436,0.498-0.968,0.748-1.603,0.748c-0.625,0-1.152-0.242-1.57-0.736C296.569,332.835,296.361,332.091,296.361,331.09z
		 M298.58,329.229c-0.318,0-0.587,0.145-0.798,0.43s-0.316,0.808-0.316,1.57c0,0.689,0.107,1.181,0.319,1.461
		c0.214,0.285,0.48,0.426,0.795,0.426c0.326,0,0.594-0.145,0.807-0.426c0.213-0.285,0.317-0.809,0.317-1.563
		c0-0.696-0.107-1.188-0.319-1.47C299.166,329.369,298.899,329.229,298.58,329.229z M298.589,339.832l5.763-11.559h1.066
		l-5.767,11.559H298.589z M303.17,336.857c0-0.787,0.188-1.453,0.56-2c0.375-0.543,0.917-0.816,1.632-0.816
		c0.649,0,1.19,0.245,1.616,0.734c0.432,0.492,0.643,1.213,0.643,2.162c0,0.931-0.216,1.644-0.649,2.146
		c-0.433,0.499-0.967,0.751-1.604,0.751c-0.631,0-1.151-0.247-1.568-0.744C303.382,338.596,303.17,337.85,303.17,336.857z
		 M305.394,334.992c-0.324,0-0.588,0.145-0.803,0.427c-0.211,0.287-0.318,0.81-0.318,1.569c0,0.689,0.109,1.176,0.321,1.461
		c0.214,0.283,0.477,0.427,0.792,0.427c0.33,0,0.6-0.144,0.811-0.427c0.211-0.285,0.318-0.805,0.318-1.561
		c0-0.697-0.108-1.188-0.322-1.471C305.979,335.134,305.712,334.992,305.394,334.992z"/>
</g>
<g>
	<path fill="#070000" d="M228.665,294.424v-7.947h1.161v1.131c0.553-0.873,1.348-1.309,2.394-1.309c0.452,0,0.868,0.085,1.248,0.258
		c0.38,0.172,0.667,0.397,0.853,0.676c0.188,0.279,0.322,0.611,0.395,0.996c0.044,0.246,0.07,0.686,0.07,1.31v4.884h-1.313v-4.834
		c0-0.549-0.049-0.961-0.148-1.232c-0.097-0.271-0.273-0.486-0.519-0.651c-0.25-0.16-0.544-0.242-0.88-0.242
		c-0.537,0-1.002,0.183-1.394,0.55c-0.394,0.364-0.583,1.053-0.583,2.069v4.342L228.665,294.424L228.665,294.424z"/>
	<path fill="#070000" d="M241.728,294.424v-1.176c-0.587,0.902-1.393,1.354-2.401,1.354c-0.449,0-0.863-0.09-1.253-0.27
		c-0.387-0.18-0.673-0.407-0.859-0.676c-0.188-0.275-0.318-0.608-0.396-1.002c-0.051-0.264-0.08-0.684-0.08-1.258v-4.924h1.283
		v4.403c0,0.702,0.028,1.175,0.08,1.42c0.08,0.354,0.251,0.634,0.512,0.834c0.26,0.2,0.58,0.302,0.964,0.302
		c0.382,0,0.743-0.104,1.077-0.312c0.335-0.205,0.575-0.485,0.71-0.845c0.143-0.356,0.211-0.875,0.211-1.553v-4.254h1.285v7.943
		h-1.135v0.012H241.728z"/>
	<path fill="#070000" d="M249.806,291.521l1.253,0.183c-0.138,0.903-0.489,1.612-1.049,2.128c-0.565,0.514-1.256,0.77-2.077,0.77
		c-1.03,0-1.855-0.354-2.479-1.064c-0.625-0.712-0.937-1.73-0.937-3.061c0-0.856,0.134-1.607,0.402-2.25
		c0.27-0.645,0.679-1.127,1.227-1.447c0.552-0.321,1.149-0.479,1.794-0.479c0.816,0,1.483,0.22,2,0.659
		c0.521,0.438,0.853,1.066,0.999,1.877l-1.254,0.182c-0.118-0.533-0.326-0.938-0.623-1.207c-0.297-0.271-0.659-0.406-1.077-0.406
		c-0.64,0-1.157,0.244-1.554,0.73c-0.399,0.487-0.603,1.256-0.603,2.309c0,1.068,0.196,1.844,0.58,2.328
		c0.387,0.485,0.888,0.727,1.511,0.727c0.498,0,0.914-0.16,1.246-0.482C249.501,292.689,249.714,292.193,249.806,291.521z"/>
	<path fill="#070000" d="M252.135,294.424v-10.963h1.284v10.963H252.135z"/>
	<path fill="#070000" d="M260.65,291.852l1.286,0.183c-0.211,0.813-0.6,1.446-1.164,1.894c-0.568,0.45-1.291,0.674-2.172,0.674
		c-1.108,0-1.986-0.355-2.638-1.074c-0.649-0.717-0.976-1.719-0.976-3.01c0-1.338,0.329-2.375,0.985-3.109
		c0.656-0.74,1.51-1.107,2.556-1.107c1.015,0,1.843,0.363,2.485,1.086c0.641,0.723,0.963,1.748,0.963,3.063
		c0,0.08-0.003,0.201-0.007,0.359h-5.667c0.045,0.869,0.284,1.533,0.713,1.998c0.43,0.461,0.965,0.688,1.605,0.688
		c0.475,0,0.884-0.129,1.225-0.392C260.179,292.844,260.447,292.428,260.65,291.852z M256.332,289.702h4.332
		c-0.059-0.675-0.224-1.181-0.498-1.517c-0.419-0.521-0.962-0.785-1.629-0.785c-0.604,0-1.109,0.207-1.521,0.627
		C256.6,288.441,256.375,289.003,256.332,289.702z"/>
	<path fill="#070000" d="M263.034,290.451c0-1.475,0.388-2.561,1.168-3.27c0.649-0.589,1.439-0.884,2.373-0.884
		c1.041,0,1.889,0.358,2.549,1.076c0.658,0.716,0.987,1.705,0.987,2.965c0,1.022-0.146,1.828-0.438,2.414
		c-0.292,0.584-0.717,1.039-1.272,1.363c-0.556,0.323-1.165,0.485-1.825,0.485c-1.057,0-1.91-0.358-2.563-1.07
		C263.358,292.816,263.034,291.788,263.034,290.451z M264.345,290.443c0,1.021,0.214,1.785,0.637,2.289
		c0.423,0.509,0.954,0.764,1.594,0.764c0.638,0,1.164-0.255,1.589-0.766c0.421-0.512,0.634-1.287,0.634-2.33
		c0-0.983-0.214-1.729-0.638-2.236c-0.425-0.506-0.954-0.758-1.585-0.758c-0.64,0-1.171,0.252-1.594,0.756
		C264.559,288.663,264.345,289.424,264.345,290.443z"/>
	<path fill="#070000" d="M274.427,293.232l0.18,1.185c-0.361,0.082-0.687,0.122-0.968,0.122c-0.465,0-0.829-0.078-1.082-0.232
		c-0.257-0.154-0.44-0.361-0.543-0.609c-0.102-0.252-0.152-0.784-0.152-1.596v-4.582h-0.956v-1.045h0.956v-1.963l1.285-0.806v2.771
		h1.282v1.045h-1.282v4.637c0,0.385,0.021,0.632,0.064,0.742c0.044,0.107,0.12,0.195,0.222,0.26
		c0.098,0.064,0.246,0.097,0.434,0.097C274.005,293.256,274.192,293.246,274.427,293.232z"/>
	<path fill="#070000" d="M275.729,284.982v-1.523h1.284v1.523H275.729z M275.729,294.424v-7.947h1.284v7.947H275.729z"/>
	<path fill="#070000" d="M283.805,294.424v-1.001c-0.479,0.786-1.187,1.179-2.115,1.179c-0.605,0-1.159-0.176-1.665-0.523
		c-0.51-0.352-0.9-0.836-1.178-1.462c-0.279-0.628-0.416-1.345-0.416-2.16c0-0.791,0.125-1.513,0.376-2.156
		c0.254-0.647,0.63-1.141,1.134-1.485c0.503-0.344,1.066-0.517,1.688-0.517c0.457,0,0.862,0.099,1.22,0.3
		c0.356,0.201,0.646,0.461,0.867,0.781v-3.919H285v10.96h-1.195L283.805,294.424L283.805,294.424z M279.743,290.451
		c0,1.02,0.205,1.781,0.615,2.283c0.41,0.507,0.894,0.759,1.452,0.759c0.563,0,1.041-0.24,1.434-0.724
		c0.391-0.479,0.59-1.215,0.59-2.203c0-1.088-0.2-1.89-0.6-2.4c-0.4-0.508-0.894-0.764-1.479-0.764
		c-0.574,0-1.053,0.246-1.434,0.732C279.934,288.623,279.743,289.398,279.743,290.451z"/>
	<path fill="#070000" d="M292.257,291.852l1.288,0.183c-0.21,0.813-0.6,1.446-1.162,1.894c-0.567,0.45-1.294,0.674-2.172,0.674
		c-1.107,0-1.987-0.355-2.637-1.074c-0.651-0.717-0.976-1.719-0.976-3.01c0-1.338,0.325-2.375,0.985-3.109
		c0.656-0.74,1.508-1.107,2.555-1.107c1.011,0,1.844,0.363,2.484,1.086c0.642,0.727,0.963,1.748,0.963,3.063
		c0,0.08-0.004,0.201-0.006,0.359h-5.667c0.043,0.869,0.283,1.533,0.714,1.998c0.431,0.461,0.964,0.688,1.605,0.688
		c0.477,0,0.886-0.129,1.224-0.392C291.793,292.844,292.058,292.428,292.257,291.852z M287.94,289.702h4.334
		c-0.061-0.675-0.225-1.181-0.5-1.517c-0.418-0.521-0.962-0.785-1.629-0.785c-0.602,0-1.11,0.207-1.522,0.627
		C288.21,288.441,287.983,289.003,287.94,289.702z"/>
</g>
<g>
	<path fill="#070000" d="M237.817,311.994v-10.991h1.162v1.024c0.278-0.4,0.59-0.701,0.934-0.901c0.35-0.2,0.771-0.302,1.263-0.302
		c0.646,0,1.217,0.177,1.714,0.525c0.493,0.348,0.866,0.84,1.122,1.477c0.25,0.636,0.375,1.33,0.375,2.091
		c0,0.813-0.136,1.545-0.416,2.192c-0.277,0.654-0.68,1.151-1.213,1.498c-0.53,0.347-1.086,0.519-1.67,0.519
		c-0.428,0-0.813-0.095-1.154-0.283c-0.339-0.187-0.615-0.426-0.836-0.716v3.867H237.817L237.817,311.994z M238.953,305.02
		c0,1.021,0.2,1.779,0.597,2.268c0.396,0.49,0.875,0.734,1.438,0.734c0.577,0,1.065-0.252,1.474-0.76
		c0.405-0.508,0.611-1.293,0.611-2.357c0-1.014-0.2-1.773-0.599-2.277c-0.397-0.504-0.875-0.759-1.432-0.759
		c-0.548,0-1.036,0.271-1.458,0.81C239.161,303.21,238.953,303.994,238.953,305.02z"/>
	<path fill="#070000" d="M245.954,308.949v-7.946h1.164v1.222c0.292-0.572,0.562-0.947,0.811-1.127
		c0.246-0.184,0.519-0.272,0.813-0.272c0.427,0,0.864,0.146,1.307,0.438l-0.451,1.235c-0.309-0.183-0.618-0.271-0.927-0.271
		c-0.273,0-0.522,0.088-0.743,0.267c-0.222,0.179-0.379,0.424-0.472,0.733c-0.143,0.48-0.213,1.002-0.213,1.568v4.152H245.954
		L245.954,308.949z"/>
	<path fill="#070000" d="M255.977,306.377l1.287,0.182c-0.21,0.817-0.601,1.446-1.164,1.896c-0.567,0.447-1.29,0.674-2.169,0.674
		c-1.111,0-1.991-0.355-2.644-1.076c-0.646-0.711-0.972-1.717-0.972-3.01c0-1.333,0.328-2.371,0.984-3.109s1.509-1.104,2.555-1.104
		c1.014,0,1.844,0.362,2.484,1.085c0.645,0.727,0.966,1.748,0.966,3.064c0,0.08-0.005,0.196-0.008,0.356h-5.671
		c0.051,0.871,0.287,1.535,0.719,1.997c0.431,0.462,0.961,0.689,1.604,0.689c0.478,0,0.886-0.127,1.224-0.392
		C255.516,307.366,255.78,306.952,255.977,306.377z M251.659,304.229h4.331c-0.058-0.676-0.223-1.18-0.497-1.517
		c-0.418-0.521-0.961-0.784-1.629-0.784c-0.601,0-1.11,0.211-1.523,0.627C251.934,302.973,251.705,303.532,251.659,304.229z"/>
	<path fill="#070000" d="M258.365,306.559l1.253-0.182c0.07,0.527,0.267,0.938,0.591,1.221c0.323,0.28,0.773,0.424,1.355,0.424
		c0.584,0,1.018-0.125,1.302-0.377c0.286-0.254,0.427-0.549,0.427-0.888c0-0.304-0.13-0.547-0.387-0.719
		c-0.176-0.12-0.614-0.274-1.305-0.457c-0.931-0.249-1.574-0.466-1.936-0.647c-0.357-0.182-0.633-0.431-0.818-0.752
		c-0.186-0.324-0.276-0.68-0.276-1.068c0-0.354,0.076-0.68,0.228-0.983c0.152-0.299,0.363-0.551,0.625-0.751
		c0.201-0.152,0.467-0.285,0.809-0.395c0.344-0.104,0.707-0.159,1.1-0.159c0.59,0,1.105,0.09,1.554,0.272
		c0.443,0.182,0.771,0.426,0.984,0.732c0.213,0.307,0.358,0.718,0.438,1.232l-1.253,0.181c-0.059-0.412-0.22-0.735-0.491-0.966
		c-0.272-0.23-0.651-0.35-1.146-0.35c-0.581,0-0.996,0.104-1.245,0.309c-0.251,0.205-0.372,0.445-0.372,0.72
		c0,0.174,0.05,0.334,0.15,0.474c0.106,0.143,0.269,0.266,0.487,0.357c0.129,0.049,0.501,0.165,1.123,0.349
		c0.897,0.255,1.525,0.462,1.886,0.621c0.361,0.163,0.644,0.396,0.85,0.707s0.311,0.692,0.311,1.153
		c0,0.447-0.123,0.871-0.371,1.268c-0.249,0.396-0.606,0.704-1.073,0.918c-0.47,0.215-0.997,0.325-1.586,0.325
		c-0.977,0-1.72-0.214-2.234-0.647C258.833,308.05,258.506,307.409,258.365,306.559z"/>
	<path fill="#070000" d="M271.373,306.377l1.288,0.182c-0.208,0.817-0.597,1.446-1.164,1.896c-0.563,0.447-1.291,0.674-2.17,0.674
		c-1.11,0-1.986-0.355-2.639-1.076c-0.652-0.711-0.977-1.717-0.977-3.01c0-1.333,0.329-2.371,0.988-3.109
		c0.657-0.738,1.507-1.104,2.555-1.104c1.013,0,1.843,0.362,2.484,1.085c0.641,0.727,0.962,1.748,0.962,3.064
		c0,0.08-0.001,0.196-0.007,0.356h-5.666c0.045,0.871,0.284,1.535,0.715,1.997c0.427,0.462,0.963,0.689,1.606,0.689
		c0.476,0,0.883-0.127,1.221-0.392C270.909,307.366,271.176,306.952,271.373,306.377z M267.058,304.229h4.331
		c-0.06-0.676-0.225-1.18-0.498-1.517c-0.417-0.521-0.961-0.784-1.627-0.784c-0.604,0-1.113,0.211-1.522,0.627
		C267.327,302.973,267.101,303.532,267.058,304.229z"/>
	<path fill="#070000" d="M274.238,308.949v-7.946h1.165v1.129c0.55-0.872,1.348-1.308,2.392-1.308c0.452,0,0.867,0.085,1.247,0.257
		c0.379,0.172,0.665,0.397,0.854,0.676c0.186,0.278,0.318,0.61,0.396,0.996c0.047,0.247,0.071,0.687,0.071,1.31v4.887h-1.315v-4.834
		c0-0.547-0.049-0.956-0.146-1.229c-0.097-0.272-0.275-0.489-0.521-0.651c-0.25-0.16-0.541-0.246-0.88-0.246
		c-0.536,0-1.001,0.186-1.392,0.55c-0.393,0.364-0.584,1.056-0.584,2.071v4.342h-1.286V308.949z"/>
	<path fill="#070000" d="M285.107,307.758l0.18,1.188c-0.361,0.082-0.683,0.125-0.968,0.125c-0.464,0-0.825-0.08-1.081-0.233
		c-0.258-0.155-0.438-0.36-0.539-0.612c-0.105-0.252-0.157-0.783-0.157-1.592v-4.583h-0.956v-1.046h0.956v-1.961l1.283-0.807v2.771
		h1.287v1.046h-1.287v4.635c0,0.383,0.026,0.633,0.068,0.739c0.045,0.112,0.119,0.197,0.22,0.265
		c0.101,0.063,0.246,0.096,0.438,0.096C284.69,307.781,284.878,307.773,285.107,307.758z"/>
</g>
<g>
	<path fill="#0A0303" d="M234.557,226.93l1.25,0.178c-0.136,0.906-0.487,1.615-1.05,2.129c-0.563,0.514-1.256,0.771-2.076,0.771
		c-1.028,0-1.854-0.354-2.479-1.065c-0.624-0.711-0.936-1.731-0.936-3.058c0-0.856,0.135-1.606,0.401-2.252
		c0.272-0.646,0.68-1.128,1.229-1.448c0.549-0.32,1.147-0.481,1.793-0.481c0.816,0,1.481,0.224,2,0.661
		c0.521,0.441,0.85,1.066,0.998,1.88l-1.253,0.179c-0.117-0.533-0.325-0.938-0.623-1.208c-0.297-0.271-0.657-0.405-1.076-0.405
		c-0.641,0-1.157,0.244-1.557,0.73c-0.397,0.484-0.595,1.255-0.595,2.309c0,1.068,0.191,1.844,0.578,2.328
		c0.384,0.485,0.89,0.729,1.508,0.729c0.499,0,0.916-0.16,1.249-0.482C234.252,228.094,234.465,227.598,234.557,226.93z"/>
	<path fill="#0A0303" d="M236.365,225.852c0-1.472,0.39-2.56,1.167-3.269c0.648-0.586,1.439-0.881,2.378-0.881
		c1.036,0,1.885,0.356,2.543,1.073c0.66,0.717,0.991,1.705,0.991,2.969c0,1.021-0.146,1.826-0.438,2.41
		c-0.29,0.59-0.714,1.039-1.271,1.363c-0.56,0.326-1.167,0.487-1.824,0.487c-1.061,0-1.917-0.356-2.565-1.071
		C236.693,228.221,236.365,227.193,236.365,225.852z M237.68,225.848c0,1.021,0.211,1.785,0.634,2.289
		c0.423,0.508,0.956,0.764,1.598,0.764c0.635,0,1.161-0.256,1.586-0.767c0.423-0.509,0.634-1.284,0.634-2.331
		c0-0.982-0.213-1.729-0.637-2.234c-0.429-0.51-0.954-0.762-1.583-0.762c-0.642,0-1.175,0.252-1.598,0.758
		C237.891,224.068,237.68,224.83,237.68,225.848z"/>
	<path fill="#0A0303" d="M246.916,229.822l-2.855-7.943h1.371l1.619,4.758c0.178,0.516,0.338,1.045,0.488,1.602
		c0.113-0.42,0.272-0.924,0.479-1.512l1.682-4.848h1.315l-2.854,7.943H246.916z"/>
	<path fill="#0A0303" d="M256.888,228.838c-0.468,0.43-0.923,0.729-1.362,0.902c-0.44,0.174-0.917,0.264-1.419,0.264
		c-0.834,0-1.474-0.215-1.921-0.641c-0.45-0.43-0.674-0.973-0.674-1.637c0-0.392,0.087-0.746,0.255-1.07
		c0.17-0.316,0.393-0.576,0.664-0.773c0.275-0.195,0.583-0.342,0.926-0.443c0.255-0.069,0.635-0.135,1.143-0.201
		c1.037-0.131,1.803-0.282,2.294-0.465c0.003-0.186,0.005-0.301,0.005-0.351c0-0.552-0.119-0.938-0.36-1.161
		c-0.331-0.307-0.814-0.459-1.461-0.459c-0.601,0-1.047,0.112-1.333,0.336c-0.285,0.225-0.501,0.62-0.638,1.188l-1.286-0.179
		c0.118-0.563,0.303-1.021,0.567-1.369c0.261-0.344,0.641-0.611,1.139-0.799c0.495-0.186,1.069-0.281,1.723-0.281
		c0.645,0,1.173,0.082,1.577,0.24c0.403,0.16,0.703,0.359,0.893,0.603c0.193,0.242,0.326,0.549,0.4,0.916
		c0.044,0.229,0.063,0.644,0.063,1.243v1.8c0,1.253,0.027,2.044,0.08,2.376c0.052,0.332,0.156,0.646,0.311,0.946h-1.315
		C257.02,229.542,256.933,229.215,256.888,228.838z M256.8,225.824c-0.467,0.199-1.168,0.371-2.104,0.513
		c-0.527,0.08-0.901,0.172-1.124,0.271c-0.216,0.102-0.388,0.248-0.507,0.44c-0.122,0.192-0.179,0.409-0.179,0.646
		c0,0.363,0.128,0.664,0.391,0.906c0.258,0.24,0.64,0.36,1.138,0.36c0.494,0,0.935-0.112,1.317-0.34
		c0.387-0.229,0.672-0.539,0.849-0.937c0.141-0.308,0.21-0.762,0.21-1.361L256.8,225.824z"/>
	<path fill="#0A0303" d="M260.042,229.822v-7.943h1.162v1.217c0.291-0.566,0.561-0.943,0.808-1.121
		c0.245-0.183,0.519-0.273,0.814-0.273c0.431,0,0.862,0.146,1.308,0.436l-0.452,1.234c-0.312-0.178-0.617-0.27-0.927-0.27
		c-0.277,0-0.523,0.092-0.744,0.267c-0.219,0.177-0.375,0.424-0.472,0.737c-0.141,0.479-0.213,1-0.213,1.567v4.149H260.042
		L260.042,229.822z"/>
	<path fill="#0A0303" d="M265.183,232.889l-0.178-1.242c0.284,0.08,0.54,0.119,0.756,0.119c0.295,0,0.53-0.05,0.705-0.15
		c0.179-0.102,0.322-0.242,0.438-0.422c0.083-0.137,0.212-0.471,0.403-1.006c0.026-0.074,0.063-0.184,0.118-0.33l-2.896-7.979h1.373
		l1.593,4.59c0.207,0.58,0.394,1.191,0.557,1.836c0.143-0.6,0.316-1.195,0.519-1.783l1.604-4.643h1.28l-2.831,8.09
		c-0.313,0.871-0.558,1.469-0.729,1.799c-0.232,0.438-0.498,0.764-0.798,0.971c-0.299,0.207-0.657,0.312-1.071,0.312
		C265.774,233.051,265.493,232.997,265.183,232.889z"/>
	<path fill="#0A0303" d="M272.593,220.389v-1.525h1.282v1.525H272.593z M272.593,229.822v-7.943h1.282v7.943H272.593z"/>
	<path fill="#0A0303" d="M275.771,229.822v-7.943h1.163v1.126c0.551-0.87,1.348-1.308,2.392-1.308c0.45,0,0.87,0.085,1.245,0.26
		c0.383,0.17,0.667,0.396,0.854,0.676c0.188,0.278,0.32,0.61,0.396,0.996c0.047,0.247,0.073,0.686,0.073,1.311v4.883h-1.315v-4.834
		c0-0.549-0.048-0.959-0.146-1.231c-0.1-0.271-0.276-0.487-0.523-0.647c-0.249-0.164-0.543-0.244-0.878-0.244
		c-0.537,0-1.002,0.184-1.392,0.549c-0.395,0.363-0.585,1.053-0.585,2.072v4.341L275.771,229.822L275.771,229.822z"/>
	<path fill="#0A0303" d="M283.647,230.48l1.283,0.181c0.051,0.414,0.198,0.713,0.433,0.901c0.315,0.254,0.748,0.381,1.292,0.381
		c0.587,0,1.042-0.125,1.361-0.373c0.32-0.252,0.537-0.602,0.649-1.053c0.065-0.279,0.096-0.855,0.091-1.738
		c-0.561,0.697-1.261,1.046-2.099,1.046c-1.042,0-1.851-0.396-2.422-1.183s-0.855-1.733-0.855-2.836
		c0-0.756,0.129-1.455,0.392-2.099c0.264-0.644,0.642-1.136,1.141-1.483c0.498-0.351,1.079-0.524,1.752-0.524
		c0.894,0,1.631,0.389,2.212,1.166v-0.987h1.164v6.867c0,1.236-0.119,2.111-0.358,2.631c-0.239,0.516-0.617,0.921-1.138,1.223
		c-0.518,0.297-1.155,0.449-1.915,0.449c-0.9,0-1.624-0.215-2.181-0.641C283.894,231.982,283.629,231.339,283.647,230.48z
		 M284.693,225.711c0,1.043,0.2,1.809,0.596,2.289c0.397,0.48,0.896,0.721,1.492,0.721c0.592,0,1.09-0.238,1.491-0.716
		c0.401-0.479,0.604-1.228,0.604-2.249c0-0.973-0.208-1.71-0.621-2.207c-0.414-0.494-0.914-0.742-1.494-0.742
		c-0.575,0-1.063,0.243-1.465,0.73C284.894,224.027,284.693,224.752,284.693,225.711z"/>
	<path fill="#0A0303" d="M296.041,229.822v-7.943h1.134v1.114c0.236-0.388,0.554-0.699,0.946-0.938
		c0.396-0.234,0.841-0.354,1.347-0.354c0.56,0,1.018,0.12,1.376,0.366c0.357,0.246,0.611,0.584,0.758,1.024
		c0.6-0.925,1.382-1.392,2.34-1.392c0.755,0,1.33,0.219,1.736,0.654c0.403,0.438,0.604,1.106,0.604,2.017v5.45H305v-5.006
		c0-0.537-0.043-0.926-0.125-1.164c-0.085-0.236-0.23-0.428-0.451-0.568c-0.218-0.148-0.477-0.221-0.769-0.221
		c-0.528,0-0.972,0.188-1.321,0.56c-0.353,0.372-0.525,0.968-0.525,1.785v4.618h-1.283v-5.162c0-0.602-0.103-1.049-0.313-1.35
		c-0.209-0.299-0.55-0.447-1.021-0.447c-0.358,0-0.692,0.099-0.997,0.299c-0.306,0.199-0.525,0.49-0.663,0.876
		c-0.137,0.384-0.204,0.935-0.204,1.66v4.12h-1.287V229.822L296.041,229.822z"/>
	<path fill="#0A0303" d="M313.135,229.822v-1.17c-0.59,0.898-1.391,1.352-2.402,1.352c-0.447,0-0.864-0.092-1.249-0.271
		c-0.388-0.182-0.675-0.404-0.861-0.678c-0.189-0.273-0.321-0.604-0.396-0.998c-0.053-0.268-0.08-0.685-0.08-1.259v-4.922h1.285
		v4.401c0,0.701,0.026,1.175,0.08,1.42c0.079,0.354,0.25,0.634,0.51,0.834c0.261,0.199,0.582,0.304,0.964,0.304
		s0.745-0.106,1.079-0.312s0.571-0.487,0.711-0.844c0.137-0.356,0.208-0.873,0.208-1.554v-4.251h1.285v7.943h-1.135L313.135,229.822
		L313.135,229.822z"/>
	<path fill="#0A0303" d="M319.092,228.637l0.179,1.186c-0.357,0.08-0.682,0.121-0.969,0.121c-0.463,0-0.824-0.077-1.082-0.233
		c-0.258-0.151-0.437-0.356-0.538-0.608c-0.105-0.25-0.155-0.783-0.155-1.593v-4.581h-0.957v-1.048h0.957v-1.961l1.283-0.81v2.771
		h1.286v1.048h-1.286v4.635c0,0.388,0.022,0.635,0.067,0.742c0.043,0.108,0.117,0.197,0.219,0.262
		c0.1,0.063,0.249,0.097,0.438,0.097C318.674,228.659,318.859,228.652,319.092,228.637z"/>
	<path fill="#0A0303" d="M325.293,228.838c-0.47,0.43-0.923,0.729-1.365,0.902c-0.439,0.174-0.916,0.264-1.417,0.264
		c-0.836,0-1.476-0.215-1.922-0.641c-0.451-0.43-0.675-0.973-0.675-1.637c0-0.392,0.086-0.746,0.254-1.07
		c0.172-0.316,0.393-0.576,0.666-0.773c0.274-0.195,0.581-0.342,0.924-0.443c0.255-0.069,0.634-0.135,1.146-0.201
		c1.036-0.131,1.799-0.282,2.292-0.465c0.004-0.186,0.006-0.301,0.006-0.351c0-0.552-0.122-0.938-0.36-1.161
		c-0.328-0.307-0.814-0.459-1.46-0.459c-0.6,0-1.047,0.112-1.331,0.336c-0.286,0.225-0.503,0.62-0.641,1.188l-1.282-0.179
		c0.114-0.563,0.303-1.021,0.564-1.369c0.262-0.344,0.641-0.611,1.137-0.799c0.495-0.186,1.07-0.281,1.724-0.281
		c0.646,0,1.174,0.082,1.578,0.24c0.405,0.16,0.706,0.359,0.894,0.603c0.192,0.242,0.325,0.549,0.399,0.916
		c0.043,0.229,0.063,0.644,0.063,1.243v1.8c0,1.253,0.027,2.044,0.08,2.376c0.048,0.332,0.157,0.646,0.31,0.946h-1.315
		C325.425,229.542,325.331,229.215,325.293,228.838z M325.2,225.824c-0.465,0.199-1.168,0.371-2.102,0.513
		c-0.527,0.08-0.902,0.172-1.125,0.271c-0.217,0.102-0.387,0.248-0.507,0.44c-0.121,0.192-0.181,0.409-0.181,0.646
		c0,0.363,0.128,0.664,0.391,0.906c0.262,0.24,0.638,0.36,1.14,0.36c0.494,0,0.935-0.112,1.317-0.34
		c0.385-0.229,0.672-0.539,0.85-0.937c0.141-0.308,0.208-0.762,0.208-1.361L325.2,225.824z"/>
	<path fill="#0A0303" d="M331.206,228.637l0.18,1.186c-0.359,0.08-0.684,0.121-0.971,0.121c-0.464,0-0.824-0.077-1.078-0.233
		c-0.259-0.151-0.438-0.356-0.542-0.608c-0.102-0.25-0.155-0.783-0.155-1.593v-4.581h-0.955v-1.048h0.955v-1.961l1.285-0.81v2.771
		h1.284v1.048h-1.284v4.635c0,0.388,0.021,0.635,0.066,0.742c0.045,0.108,0.12,0.197,0.22,0.262
		c0.099,0.063,0.246,0.097,0.438,0.097C330.786,228.659,330.972,228.652,331.206,228.637z"/>
	<path fill="#0A0303" d="M332.507,220.389v-1.525h1.286v1.525H332.507z M332.507,229.822v-7.943h1.286v7.943H332.507z"/>
	<path fill="#0A0303" d="M335.209,225.852c0-1.472,0.39-2.56,1.166-3.269c0.647-0.586,1.441-0.881,2.378-0.881
		c1.036,0,1.885,0.356,2.544,1.073c0.657,0.717,0.991,1.705,0.991,2.969c0,1.021-0.146,1.826-0.438,2.41
		c-0.29,0.59-0.714,1.039-1.272,1.363c-0.556,0.326-1.165,0.487-1.823,0.487c-1.061,0-1.915-0.356-2.564-1.071
		C335.538,228.221,335.209,227.193,335.209,225.852z M336.522,225.848c0,1.021,0.209,1.785,0.633,2.289
		c0.421,0.508,0.955,0.764,1.598,0.764c0.635,0,1.161-0.256,1.588-0.767c0.421-0.509,0.632-1.284,0.632-2.331
		c0-0.982-0.213-1.729-0.637-2.234c-0.427-0.51-0.954-0.762-1.583-0.762c-0.643,0-1.176,0.252-1.598,0.758
		C336.735,224.066,336.522,224.83,336.522,225.848z"/>
	<path fill="#0A0303" d="M343.795,229.822v-7.943h1.166v1.126c0.55-0.87,1.346-1.308,2.389-1.308c0.451,0,0.869,0.085,1.246,0.26
		c0.382,0.17,0.667,0.396,0.853,0.676c0.188,0.278,0.323,0.61,0.398,0.996c0.045,0.247,0.069,0.686,0.069,1.311v4.883H348.6v-4.834
		c0-0.549-0.045-0.959-0.146-1.231c-0.102-0.271-0.273-0.487-0.521-0.647c-0.25-0.164-0.542-0.244-0.879-0.244
		c-0.538,0-1.001,0.184-1.392,0.549c-0.393,0.363-0.585,1.053-0.585,2.072v4.341L343.795,229.822L343.795,229.822z"/>
	<path fill="#0A0303" d="M351.424,227.436l1.253-0.18c0.069,0.529,0.268,0.936,0.591,1.217c0.321,0.285,0.775,0.428,1.354,0.428
		c0.584,0,1.02-0.125,1.307-0.379c0.278-0.252,0.425-0.549,0.425-0.887c0-0.304-0.131-0.544-0.389-0.719
		c-0.181-0.12-0.614-0.271-1.303-0.456c-0.933-0.25-1.576-0.464-1.937-0.646c-0.358-0.183-0.631-0.437-0.817-0.754
		c-0.186-0.322-0.277-0.679-0.277-1.066c0-0.354,0.072-0.684,0.229-0.982c0.151-0.304,0.363-0.553,0.624-0.752
		c0.2-0.156,0.467-0.283,0.809-0.395c0.343-0.108,0.707-0.16,1.1-0.16c0.591,0,1.104,0.092,1.553,0.273
		c0.442,0.179,0.771,0.424,0.983,0.729c0.214,0.307,0.359,0.721,0.439,1.236l-1.253,0.182c-0.057-0.415-0.221-0.734-0.492-0.966
		c-0.271-0.231-0.651-0.349-1.146-0.349c-0.583,0-0.996,0.104-1.245,0.307c-0.25,0.205-0.375,0.445-0.375,0.721
		c0,0.178,0.051,0.334,0.156,0.471c0.1,0.146,0.265,0.267,0.485,0.36c0.126,0.05,0.499,0.165,1.121,0.345
		c0.896,0.254,1.524,0.461,1.888,0.623c0.359,0.162,0.645,0.398,0.849,0.706c0.206,0.312,0.309,0.695,0.309,1.152
		c0,0.448-0.123,0.87-0.37,1.269c-0.248,0.398-0.604,0.704-1.073,0.92c-0.465,0.217-0.995,0.324-1.585,0.324
		c-0.977,0-1.721-0.217-2.231-0.646C351.887,228.928,351.564,228.285,351.424,227.436z"/>
</g>
<g>
	<path fill="#0A0303" d="M199.232,215.497h-1.195v-10.962h1.285v3.906c0.544-0.711,1.236-1.068,2.08-1.068
		c0.464,0,0.905,0.102,1.322,0.294c0.415,0.2,0.758,0.474,1.026,0.831c0.271,0.357,0.48,0.789,0.633,1.293
		c0.151,0.502,0.227,1.043,0.227,1.615c0,1.361-0.323,2.414-0.963,3.156c-0.642,0.744-1.412,1.112-2.31,1.112
		c-0.893,0-1.596-0.391-2.104-1.17v0.992H199.232z M199.201,211.463c0,0.954,0.124,1.643,0.373,2.064
		c0.406,0.693,0.953,1.041,1.646,1.041c0.561,0,1.05-0.256,1.459-0.766c0.408-0.513,0.613-1.273,0.613-2.289
		c0-1.035-0.196-1.801-0.59-2.296c-0.394-0.491-0.866-0.741-1.425-0.741c-0.565,0-1.051,0.26-1.461,0.769
		C199.405,209.754,199.201,210.498,199.201,211.463z"/>
	<path fill="#0A0303" d="M211.136,214.512c-0.471,0.426-0.927,0.727-1.37,0.9c-0.44,0.177-0.911,0.268-1.415,0.268
		c-0.835,0-1.476-0.213-1.926-0.642c-0.445-0.427-0.669-0.976-0.669-1.638c0-0.391,0.083-0.746,0.251-1.065
		c0.17-0.323,0.393-0.582,0.667-0.774c0.274-0.195,0.583-0.342,0.925-0.442c0.251-0.07,0.634-0.138,1.142-0.2
		c1.04-0.13,1.804-0.285,2.294-0.464c0.003-0.187,0.007-0.304,0.007-0.354c0-0.549-0.122-0.938-0.361-1.158
		c-0.327-0.307-0.814-0.459-1.458-0.459c-0.604,0-1.052,0.113-1.336,0.336c-0.285,0.223-0.5,0.619-0.637,1.188l-1.281-0.18
		c0.11-0.563,0.297-1.021,0.563-1.368c0.26-0.35,0.64-0.611,1.135-0.798c0.496-0.188,1.07-0.283,1.726-0.283
		c0.646,0,1.171,0.08,1.577,0.238c0.406,0.161,0.699,0.362,0.895,0.604c0.189,0.24,0.325,0.547,0.401,0.916
		c0.04,0.229,0.063,0.643,0.063,1.241v1.8c0,1.252,0.027,2.043,0.079,2.375c0.051,0.33,0.153,0.646,0.309,0.947h-1.313
		C211.261,215.217,211.174,214.889,211.136,214.512z M211.045,211.496c-0.468,0.199-1.167,0.37-2.104,0.511
		c-0.529,0.08-0.901,0.171-1.122,0.272c-0.219,0.1-0.391,0.248-0.512,0.439c-0.119,0.191-0.178,0.408-0.178,0.643
		c0,0.361,0.129,0.662,0.389,0.904c0.258,0.241,0.638,0.361,1.138,0.361c0.497,0,0.937-0.117,1.321-0.341
		c0.387-0.228,0.668-0.542,0.85-0.938c0.137-0.306,0.206-0.76,0.206-1.356L211.045,211.496z"/>
	<path fill="#0A0303" d="M213.804,213.107l1.253-0.18c0.071,0.526,0.269,0.936,0.592,1.217c0.322,0.283,0.772,0.424,1.355,0.424
		c0.586,0,1.018-0.125,1.305-0.377c0.278-0.252,0.424-0.549,0.424-0.885c0-0.307-0.127-0.547-0.384-0.721
		c-0.181-0.123-0.614-0.273-1.308-0.457c-0.931-0.247-1.575-0.464-1.935-0.646c-0.358-0.184-0.631-0.434-0.815-0.756
		c-0.188-0.319-0.276-0.676-0.276-1.065c0-0.354,0.076-0.679,0.229-0.983c0.154-0.301,0.36-0.553,0.622-0.752
		c0.202-0.156,0.466-0.285,0.814-0.394c0.337-0.106,0.701-0.16,1.094-0.16c0.591,0,1.104,0.089,1.552,0.271
		c0.442,0.185,0.772,0.43,0.987,0.734c0.213,0.307,0.36,0.721,0.438,1.234l-1.254,0.182c-0.056-0.415-0.216-0.736-0.49-0.968
		c-0.271-0.231-0.65-0.349-1.145-0.349c-0.581,0-0.997,0.104-1.246,0.309c-0.25,0.201-0.375,0.443-0.375,0.718
		c0,0.175,0.053,0.334,0.156,0.474c0.103,0.145,0.266,0.265,0.484,0.357c0.126,0.053,0.502,0.165,1.121,0.35
		c0.897,0.252,1.528,0.461,1.891,0.621c0.357,0.162,0.642,0.397,0.85,0.707c0.204,0.311,0.305,0.691,0.305,1.153
		c0,0.446-0.121,0.871-0.366,1.267c-0.249,0.398-0.607,0.705-1.075,0.922c-0.469,0.215-0.997,0.324-1.586,0.324
		c-0.979,0-1.72-0.215-2.231-0.646C214.273,214.598,213.944,213.957,213.804,213.107z"/>
	<path fill="#0A0303" d="M226.813,212.928l1.288,0.18c-0.211,0.816-0.597,1.449-1.163,1.897c-0.567,0.447-1.29,0.675-2.171,0.675
		c-1.109,0-1.987-0.359-2.64-1.076c-0.65-0.715-0.975-1.717-0.975-3.011c0-1.335,0.33-2.37,0.988-3.112
		c0.653-0.734,1.508-1.106,2.555-1.106c1.013,0,1.841,0.364,2.485,1.09c0.641,0.724,0.963,1.745,0.963,3.062
		c0,0.08-0.003,0.201-0.01,0.361h-5.666c0.046,0.868,0.283,1.532,0.715,1.996c0.43,0.463,0.966,0.689,1.604,0.689
		c0.479,0,0.885-0.129,1.226-0.393C226.352,213.917,226.613,213.5,226.813,212.928z M222.497,210.777h4.333
		c-0.059-0.674-0.226-1.18-0.5-1.516c-0.42-0.523-0.961-0.785-1.63-0.785c-0.602,0-1.111,0.209-1.52,0.627
		C222.764,209.521,222.539,210.081,222.497,210.777z"/>
	<path fill="#0A0303" d="M233.698,218.545v-10.99h1.163v1.023c0.277-0.402,0.587-0.701,0.934-0.904
		c0.348-0.197,0.77-0.301,1.264-0.301c0.646,0,1.215,0.176,1.71,0.523c0.498,0.353,0.869,0.842,1.123,1.479
		c0.251,0.636,0.377,1.333,0.377,2.091c0,0.813-0.138,1.545-0.415,2.192c-0.278,0.651-0.684,1.151-1.213,1.498
		c-0.531,0.346-1.085,0.521-1.672,0.521c-0.428,0-0.813-0.095-1.154-0.281c-0.339-0.188-0.615-0.43-0.834-0.717v3.866
		L233.698,218.545L233.698,218.545L233.698,218.545z M234.832,211.566c0,1.023,0.202,1.781,0.599,2.271
		c0.396,0.487,0.875,0.731,1.438,0.731c0.574,0,1.064-0.252,1.474-0.76c0.407-0.506,0.612-1.291,0.612-2.357
		c0-1.014-0.201-1.773-0.6-2.277c-0.397-0.504-0.877-0.758-1.432-0.758c-0.549,0-1.034,0.27-1.458,0.809
		C235.043,209.762,234.832,210.542,234.832,211.566z"/>
	<path fill="#0A0303" d="M246.794,214.512c-0.469,0.426-0.924,0.727-1.368,0.9c-0.439,0.177-0.91,0.268-1.418,0.268
		c-0.833,0-1.472-0.213-1.921-0.642c-0.445-0.427-0.671-0.976-0.671-1.638c0-0.391,0.085-0.746,0.254-1.065
		c0.166-0.323,0.392-0.582,0.664-0.774c0.274-0.195,0.581-0.342,0.926-0.442c0.254-0.07,0.635-0.138,1.143-0.2
		c1.038-0.13,1.802-0.285,2.292-0.464c0.005-0.187,0.008-0.304,0.008-0.354c0-0.549-0.12-0.938-0.363-1.158
		c-0.329-0.307-0.815-0.459-1.46-0.459c-0.6,0-1.047,0.113-1.334,0.336c-0.283,0.225-0.499,0.619-0.636,1.188l-1.285-0.18
		c0.117-0.563,0.303-1.021,0.567-1.368c0.263-0.35,0.641-0.611,1.137-0.798c0.497-0.188,1.068-0.283,1.72-0.283
		c0.648,0,1.175,0.08,1.582,0.238c0.402,0.161,0.701,0.362,0.893,0.604c0.191,0.24,0.325,0.547,0.397,0.916
		c0.045,0.229,0.066,0.643,0.066,1.241v1.8c0,1.252,0.028,2.043,0.08,2.375c0.051,0.33,0.151,0.646,0.31,0.947h-1.314
		C246.923,215.217,246.832,214.889,246.794,214.512z M246.704,211.496c-0.468,0.199-1.169,0.37-2.104,0.511
		c-0.528,0.08-0.905,0.171-1.122,0.272c-0.219,0.1-0.393,0.248-0.511,0.439c-0.119,0.191-0.18,0.408-0.18,0.643
		c0,0.361,0.129,0.662,0.391,0.904c0.259,0.241,0.641,0.361,1.14,0.361c0.493,0,0.933-0.117,1.319-0.341s0.668-0.542,0.848-0.938
		c0.137-0.306,0.206-0.76,0.206-1.356L246.704,211.496z"/>
	<path fill="#0A0303" d="M250.001,206.059v-1.522h1.286v1.522H250.001z M250.001,215.497v-7.942h1.286v7.942H250.001z"/>
	<path fill="#0A0303" d="M253.18,215.497v-7.942h1.167v1.217c0.289-0.569,0.561-0.943,0.807-1.123
		c0.247-0.182,0.519-0.272,0.813-0.272c0.43,0,0.862,0.146,1.309,0.438l-0.453,1.232c-0.309-0.179-0.618-0.27-0.924-0.27
		c-0.277,0-0.522,0.089-0.747,0.265c-0.219,0.181-0.376,0.424-0.471,0.737c-0.144,0.479-0.211,1-0.211,1.568v4.148h-1.288l0,0
		L253.18,215.497L253.18,215.497z"/>
	<path fill="#0A0303" d="M267.043,214.512c-0.466,0.426-0.923,0.727-1.363,0.9c-0.443,0.177-0.914,0.268-1.42,0.268
		c-0.833,0-1.475-0.213-1.92-0.642c-0.448-0.427-0.673-0.976-0.673-1.638c0-0.391,0.084-0.746,0.254-1.065
		c0.169-0.323,0.391-0.582,0.666-0.774c0.274-0.195,0.581-0.342,0.924-0.442c0.253-0.07,0.635-0.138,1.145-0.2
		c1.038-0.13,1.799-0.285,2.29-0.464c0.005-0.187,0.007-0.304,0.007-0.354c0-0.549-0.117-0.938-0.36-1.158
		c-0.328-0.307-0.814-0.459-1.459-0.459c-0.603,0-1.048,0.113-1.333,0.336c-0.286,0.223-0.501,0.619-0.637,1.188l-1.285-0.18
		c0.113-0.563,0.302-1.021,0.565-1.368c0.263-0.35,0.641-0.611,1.135-0.798c0.496-0.188,1.07-0.283,1.723-0.283
		c0.648,0,1.174,0.08,1.581,0.238c0.404,0.161,0.702,0.362,0.895,0.604c0.189,0.24,0.324,0.547,0.397,0.916
		c0.042,0.229,0.064,0.643,0.064,1.241v1.8c0,1.252,0.028,2.043,0.077,2.375c0.053,0.33,0.153,0.646,0.31,0.947h-1.312
		C267.17,215.217,267.081,214.889,267.043,214.512z M266.952,211.496c-0.468,0.199-1.168,0.37-2.103,0.511
		c-0.53,0.08-0.905,0.171-1.124,0.272c-0.22,0.1-0.392,0.248-0.512,0.439c-0.119,0.191-0.177,0.408-0.177,0.643
		c0,0.361,0.128,0.662,0.391,0.904c0.258,0.241,0.638,0.361,1.137,0.361c0.495,0,0.937-0.117,1.321-0.341
		c0.387-0.224,0.668-0.542,0.85-0.938c0.136-0.306,0.205-0.76,0.205-1.356L266.952,211.496z"/>
	<path fill="#0A0303" d="M270.191,215.497v-7.942h1.165v1.127c0.553-0.873,1.348-1.309,2.39-1.309c0.452,0,0.869,0.089,1.248,0.261
		c0.38,0.171,0.664,0.396,0.854,0.675c0.187,0.279,0.32,0.609,0.396,0.996c0.047,0.25,0.072,0.686,0.072,1.309v4.888H275v-4.835
		c0-0.549-0.048-0.956-0.147-1.23c-0.099-0.27-0.273-0.488-0.52-0.65c-0.25-0.16-0.546-0.242-0.881-0.242
		c-0.539,0-1.001,0.182-1.394,0.546c-0.394,0.363-0.582,1.056-0.582,2.072v4.341h-1.281v-0.003h-0.004V215.497z"/>
	<path fill="#0A0303" d="M278.296,215.497v-7.942h1.165v1.127c0.552-0.873,1.349-1.309,2.393-1.309c0.451,0,0.867,0.089,1.247,0.261
		c0.381,0.171,0.664,0.396,0.853,0.675c0.188,0.279,0.321,0.609,0.397,0.996c0.045,0.25,0.069,0.686,0.069,1.309v4.888h-1.313
		v-4.835c0-0.549-0.049-0.956-0.148-1.23c-0.097-0.27-0.273-0.488-0.521-0.65c-0.25-0.16-0.54-0.242-0.877-0.242
		c-0.537,0-1.002,0.182-1.396,0.546c-0.391,0.363-0.583,1.056-0.583,2.072v4.341H278.3v-0.003h-0.004V215.497z"/>
	<path fill="#0A0303" d="M285.928,211.525c0-1.473,0.386-2.562,1.163-3.269c0.65-0.589,1.444-0.885,2.377-0.885
		c1.037,0,1.887,0.36,2.546,1.075c0.656,0.717,0.989,1.705,0.989,2.968c0,1.022-0.144,1.825-0.437,2.411
		c-0.293,0.587-0.715,1.041-1.274,1.365c-0.558,0.324-1.165,0.486-1.825,0.486c-1.06,0-1.914-0.359-2.564-1.072
		C286.25,213.895,285.928,212.867,285.928,211.525z M287.241,211.521c0,1.021,0.211,1.783,0.635,2.289
		c0.423,0.506,0.951,0.762,1.595,0.762c0.635,0,1.165-0.256,1.588-0.766c0.424-0.51,0.634-1.283,0.634-2.33
		c0-0.983-0.211-1.73-0.638-2.236c-0.425-0.504-0.951-0.762-1.583-0.762c-0.642,0-1.172,0.252-1.595,0.76
		C287.452,209.738,287.241,210.502,287.241,211.521z"/>
	<path fill="#0A0303" d="M297.322,214.307l0.18,1.187c-0.362,0.079-0.688,0.125-0.97,0.125c-0.465,0-0.83-0.08-1.082-0.233
		c-0.256-0.154-0.437-0.359-0.543-0.611c-0.104-0.25-0.152-0.785-0.152-1.592v-4.58h-0.956v-1.047h0.956v-1.961l1.286-0.809v2.77
		h1.284v1.047h-1.284v4.64c0,0.384,0.022,0.631,0.064,0.735c0.046,0.113,0.12,0.198,0.218,0.266c0.103,0.063,0.247,0.096,0.44,0.096
		C296.9,214.332,297.088,214.322,297.322,214.307z"/>
	<path fill="#0A0303" d="M303.52,214.512c-0.466,0.426-0.921,0.727-1.366,0.9c-0.438,0.177-0.912,0.268-1.417,0.268
		c-0.833,0-1.473-0.213-1.923-0.642c-0.445-0.427-0.67-0.976-0.67-1.638c0-0.391,0.085-0.746,0.252-1.065
		c0.168-0.323,0.394-0.582,0.665-0.774c0.275-0.195,0.582-0.342,0.923-0.442c0.256-0.07,0.637-0.138,1.146-0.2
		c1.039-0.13,1.8-0.285,2.292-0.464c0.006-0.187,0.009-0.304,0.009-0.354c0-0.549-0.12-0.938-0.363-1.158
		c-0.327-0.307-0.814-0.459-1.46-0.459c-0.6,0-1.047,0.113-1.333,0.336c-0.287,0.225-0.501,0.619-0.637,1.188l-1.285-0.18
		c0.114-0.563,0.302-1.021,0.567-1.368c0.261-0.35,0.64-0.611,1.135-0.798c0.497-0.188,1.067-0.283,1.722-0.283
		c0.647,0,1.172,0.08,1.579,0.238c0.403,0.161,0.701,0.362,0.893,0.604c0.192,0.24,0.326,0.547,0.399,0.916
		c0.042,0.229,0.063,0.643,0.063,1.241v1.8c0,1.252,0.027,2.043,0.079,2.375c0.052,0.33,0.154,0.646,0.309,0.947h-1.313
		C303.649,215.217,303.559,214.889,303.52,214.512z M303.431,211.496c-0.469,0.199-1.167,0.37-2.104,0.511
		c-0.528,0.08-0.902,0.171-1.123,0.272c-0.221,0.1-0.391,0.248-0.511,0.439c-0.119,0.191-0.179,0.408-0.179,0.643
		c0,0.361,0.128,0.662,0.39,0.904c0.257,0.241,0.643,0.361,1.141,0.361c0.493,0,0.933-0.117,1.319-0.341
		c0.388-0.224,0.667-0.542,0.849-0.938c0.137-0.306,0.206-0.76,0.206-1.356L303.431,211.496z"/>
	<path fill="#0A0303" d="M309.433,214.307l0.178,1.187c-0.358,0.079-0.684,0.125-0.967,0.125c-0.464,0-0.826-0.08-1.082-0.233
		c-0.256-0.154-0.438-0.359-0.54-0.611c-0.106-0.25-0.159-0.785-0.159-1.592v-4.58h-0.954v-1.047h0.954v-1.961l1.288-0.809v2.77
		h1.284v1.047h-1.284v4.64c0,0.384,0.023,0.631,0.064,0.735c0.044,0.113,0.121,0.198,0.22,0.266
		c0.102,0.063,0.248,0.096,0.438,0.096C309.014,214.332,309.2,214.322,309.433,214.307z"/>
	<path fill="#0A0303" d="M310.735,206.059v-1.522h1.285v1.522H310.735z M310.735,215.497v-7.942h1.285v7.942H310.735z"/>
	<path fill="#0A0303" d="M313.435,211.525c0-1.473,0.39-2.562,1.167-3.269c0.647-0.589,1.441-0.885,2.375-0.885
		c1.037,0,1.886,0.36,2.546,1.075c0.661,0.717,0.991,1.705,0.991,2.968c0,1.022-0.146,1.825-0.438,2.411
		c-0.29,0.587-0.715,1.041-1.272,1.365c-0.557,0.324-1.163,0.486-1.823,0.486c-1.059,0-1.914-0.359-2.565-1.072
		C313.763,213.895,313.435,212.867,313.435,211.525z M314.75,211.521c0,1.021,0.212,1.783,0.635,2.289
		c0.425,0.506,0.955,0.762,1.595,0.762c0.637,0,1.167-0.256,1.588-0.766c0.424-0.51,0.635-1.283,0.635-2.33
		c0-0.983-0.212-1.73-0.638-2.236c-0.427-0.504-0.953-0.762-1.585-0.762c-0.64,0-1.17,0.252-1.595,0.76
		C314.96,209.738,314.75,210.502,314.75,211.521z"/>
	<path fill="#0A0303" d="M322.019,215.497v-7.942h1.165v1.127c0.552-0.873,1.348-1.309,2.389-1.309c0.455,0,0.872,0.089,1.248,0.261
		c0.382,0.171,0.667,0.396,0.855,0.675c0.186,0.279,0.319,0.609,0.396,0.996c0.045,0.25,0.071,0.686,0.071,1.309v4.888h-1.316
		v-4.835c0-0.549-0.045-0.956-0.146-1.23c-0.1-0.27-0.273-0.488-0.519-0.65c-0.252-0.16-0.546-0.242-0.882-0.242
		c-0.538,0-1.002,0.182-1.393,0.546c-0.394,0.363-0.584,1.056-0.584,2.072v4.341h-1.28v-0.003h-0.005V215.497z"/>
	<path fill="#0A0303" d="M329.648,213.107l1.254-0.18c0.069,0.526,0.269,0.936,0.592,1.217c0.321,0.283,0.772,0.424,1.355,0.424
		c0.582,0,1.021-0.125,1.304-0.377c0.281-0.252,0.424-0.549,0.424-0.885c0-0.307-0.127-0.547-0.385-0.721
		c-0.181-0.123-0.615-0.273-1.305-0.457c-0.934-0.247-1.575-0.464-1.934-0.646c-0.359-0.184-0.636-0.434-0.819-0.756
		c-0.188-0.319-0.278-0.676-0.278-1.065c0-0.354,0.076-0.679,0.226-0.983c0.153-0.301,0.363-0.553,0.63-0.752
		c0.197-0.156,0.464-0.285,0.807-0.394c0.341-0.106,0.709-0.16,1.099-0.16c0.588,0,1.104,0.089,1.553,0.271
		c0.444,0.185,0.771,0.43,0.984,0.734c0.211,0.307,0.358,0.721,0.439,1.234l-1.256,0.182c-0.055-0.415-0.218-0.736-0.491-0.968
		c-0.27-0.231-0.65-0.349-1.146-0.349c-0.579,0-0.999,0.104-1.246,0.309c-0.249,0.203-0.372,0.443-0.372,0.718
		c0,0.175,0.05,0.334,0.153,0.474c0.104,0.145,0.269,0.265,0.486,0.357c0.126,0.053,0.5,0.165,1.123,0.35
		c0.896,0.252,1.525,0.461,1.886,0.621c0.36,0.162,0.643,0.397,0.85,0.707c0.207,0.311,0.31,0.691,0.31,1.153
		c0,0.446-0.125,0.871-0.372,1.267c-0.249,0.398-0.602,0.705-1.072,0.922c-0.467,0.215-0.996,0.324-1.586,0.324
		c-0.976,0-1.72-0.215-2.234-0.646C330.118,214.598,329.793,213.957,329.648,213.107z"/>
</g>
<g>
	<path fill="#0A0303" d="M234.557,240.307l1.25,0.18c-0.136,0.908-0.487,1.615-1.05,2.132c-0.563,0.511-1.256,0.769-2.076,0.769
		c-1.028,0-1.854-0.355-2.479-1.064c-0.624-0.715-0.936-1.733-0.936-3.057c0-0.857,0.135-1.608,0.401-2.252
		c0.272-0.646,0.68-1.129,1.229-1.449c0.549-0.319,1.147-0.481,1.793-0.481c0.816,0,1.481,0.224,2,0.664
		c0.521,0.438,0.85,1.063,0.998,1.875l-1.253,0.179c-0.117-0.531-0.325-0.938-0.623-1.207c-0.297-0.27-0.657-0.404-1.076-0.404
		c-0.641,0-1.157,0.244-1.557,0.73c-0.397,0.484-0.595,1.256-0.595,2.309c0,1.068,0.191,1.844,0.578,2.332
		c0.384,0.481,0.89,0.725,1.508,0.725c0.499,0,0.916-0.16,1.249-0.482C234.252,241.475,234.465,240.979,234.557,240.307z"/>
	<path fill="#0A0303" d="M236.365,239.232c0-1.473,0.39-2.561,1.167-3.27c0.648-0.589,1.439-0.881,2.378-0.881
		c1.036,0,1.885,0.357,2.543,1.074c0.66,0.716,0.991,1.705,0.991,2.968c0,1.021-0.146,1.827-0.438,2.411
		c-0.29,0.586-0.714,1.037-1.271,1.365c-0.56,0.322-1.167,0.484-1.824,0.484c-1.061,0-1.917-0.357-2.565-1.07
		C236.693,241.602,236.365,240.572,236.365,239.232z M237.68,239.229c0,1.021,0.211,1.785,0.634,2.291
		c0.423,0.51,0.956,0.762,1.598,0.762c0.635,0,1.161-0.256,1.586-0.764c0.423-0.512,0.634-1.285,0.634-2.332
		c0-0.985-0.213-1.729-0.637-2.233c-0.429-0.509-0.954-0.765-1.583-0.765c-0.642,0-1.175,0.252-1.598,0.76
		C237.891,237.45,237.68,238.208,237.68,239.229z"/>
	<path fill="#0A0303" d="M244.955,243.203v-7.943h1.135v1.114c0.236-0.39,0.554-0.702,0.947-0.938s0.84-0.354,1.345-0.354
		c0.562,0,1.021,0.12,1.38,0.364c0.357,0.246,0.607,0.587,0.757,1.025c0.6-0.924,1.377-1.391,2.34-1.391
		c0.755,0,1.328,0.219,1.736,0.654c0.4,0.437,0.604,1.106,0.604,2.014v5.454h-1.284v-5.007c0-0.539-0.044-0.928-0.124-1.163
		c-0.084-0.237-0.233-0.429-0.454-0.572c-0.216-0.144-0.476-0.217-0.765-0.217c-0.535,0-0.974,0.187-1.324,0.56
		c-0.35,0.371-0.523,0.967-0.523,1.784v4.618h-1.287v-5.162c0-0.6-0.105-1.048-0.311-1.348c-0.21-0.299-0.55-0.449-1.021-0.449
		c-0.358,0-0.689,0.1-0.996,0.301c-0.306,0.198-0.524,0.49-0.663,0.876c-0.137,0.386-0.204,0.938-0.204,1.661v4.123h-1.287V243.203
		L244.955,243.203z"/>
	<path fill="#0A0303" d="M257.063,246.251V235.26h1.164v1.024c0.275-0.402,0.589-0.701,0.936-0.901
		c0.346-0.203,0.767-0.302,1.259-0.302c0.646,0,1.22,0.174,1.712,0.522c0.499,0.349,0.871,0.84,1.123,1.477
		c0.255,0.639,0.378,1.333,0.378,2.094c0,0.811-0.14,1.545-0.418,2.192c-0.276,0.647-0.681,1.149-1.211,1.497
		c-0.526,0.345-1.083,0.52-1.673,0.52c-0.425,0-0.811-0.095-1.15-0.283c-0.342-0.188-0.617-0.429-0.836-0.716v3.867h-1.281l0,0
		H257.063L257.063,246.251z M258.198,239.271c0,1.027,0.201,1.783,0.597,2.273c0.396,0.489,0.878,0.73,1.441,0.73
		c0.572,0,1.064-0.248,1.47-0.76c0.413-0.507,0.616-1.293,0.616-2.354c0-1.019-0.198-1.774-0.597-2.279
		c-0.399-0.507-0.878-0.759-1.433-0.759c-0.548,0-1.037,0.271-1.459,0.807C258.408,237.469,258.198,238.251,258.198,239.271z"/>
	<path fill="#0A0303" d="M270.158,242.219c-0.471,0.428-0.925,0.729-1.367,0.902c-0.438,0.174-0.912,0.262-1.418,0.262
		c-0.833,0-1.475-0.215-1.922-0.641c-0.445-0.428-0.672-0.971-0.672-1.635c0-0.392,0.086-0.746,0.255-1.069
		c0.167-0.32,0.389-0.577,0.666-0.774c0.272-0.195,0.582-0.342,0.923-0.443c0.25-0.069,0.635-0.135,1.146-0.201
		c1.036-0.127,1.798-0.282,2.287-0.465c0.008-0.184,0.009-0.301,0.009-0.35c0-0.55-0.117-0.939-0.358-1.162
		c-0.332-0.307-0.816-0.459-1.461-0.459c-0.604,0-1.048,0.115-1.333,0.336c-0.289,0.223-0.5,0.617-0.638,1.188l-1.286-0.179
		c0.115-0.565,0.302-1.022,0.567-1.368c0.261-0.345,0.64-0.612,1.136-0.8c0.495-0.188,1.068-0.279,1.723-0.279
		c0.647,0,1.173,0.078,1.577,0.238c0.409,0.16,0.702,0.359,0.895,0.603c0.19,0.242,0.323,0.55,0.401,0.916
		c0.037,0.229,0.063,0.644,0.063,1.243v1.8c0,1.253,0.026,2.044,0.079,2.373c0.049,0.332,0.154,0.647,0.308,0.949h-1.313
		C270.287,242.923,270.198,242.596,270.158,242.219z M270.068,239.202c-0.466,0.202-1.168,0.375-2.104,0.517
		c-0.529,0.077-0.903,0.17-1.124,0.268c-0.22,0.103-0.39,0.248-0.508,0.443c-0.122,0.192-0.182,0.404-0.182,0.646
		c0,0.36,0.131,0.661,0.39,0.903c0.263,0.24,0.641,0.36,1.136,0.36c0.5,0,0.938-0.11,1.323-0.339s0.668-0.539,0.849-0.938
		c0.137-0.307,0.206-0.762,0.206-1.356L270.068,239.202z"/>
	<path fill="#0A0303" d="M276.071,242.014l0.18,1.189c-0.358,0.08-0.681,0.123-0.97,0.123c-0.463,0-0.824-0.08-1.081-0.232
		c-0.257-0.156-0.436-0.361-0.539-0.611c-0.104-0.254-0.157-0.783-0.157-1.594v-4.582h-0.955v-1.047h0.955v-1.961l1.286-0.806v2.767
		h1.285v1.047h-1.285v4.637c0,0.387,0.024,0.631,0.067,0.742c0.044,0.107,0.119,0.194,0.218,0.26c0.1,0.064,0.246,0.098,0.44,0.098
		C275.652,242.04,275.838,242.033,276.071,242.014z"/>
	<path fill="#0A0303" d="M277.372,233.768v-1.523h1.286v1.523H277.372z M277.372,243.203v-7.943h1.286v7.943H277.372z"/>
	<path fill="#0A0303" d="M281.718,243.203h-1.195v-10.957h1.284v3.9c0.542-0.713,1.232-1.065,2.076-1.065
		c0.465,0,0.905,0.097,1.323,0.297c0.416,0.194,0.756,0.474,1.027,0.829c0.268,0.354,0.479,0.786,0.629,1.29
		c0.153,0.504,0.228,1.041,0.228,1.612c0,1.363-0.32,2.414-0.962,3.158c-0.642,0.741-1.413,1.114-2.31,1.114
		c-0.895,0-1.593-0.394-2.103-1.173v0.993L281.718,243.203L281.718,243.203z M281.686,239.174c0,0.951,0.124,1.643,0.373,2.064
		c0.403,0.695,0.954,1.039,1.644,1.039c0.563,0,1.051-0.254,1.461-0.766c0.409-0.511,0.614-1.275,0.614-2.287
		c0-1.035-0.198-1.804-0.59-2.295c-0.395-0.494-0.871-0.742-1.429-0.742c-0.563,0-1.049,0.254-1.458,0.766
		C281.887,237.464,281.686,238.206,281.686,239.174z"/>
	<path fill="#0A0303" d="M288.627,243.203v-10.957h1.287v10.957H288.627z"/>
	<path fill="#0A0303" d="M297.14,240.637l1.289,0.18c-0.211,0.813-0.601,1.445-1.163,1.896c-0.568,0.45-1.291,0.675-2.172,0.675
		c-1.109,0-1.989-0.359-2.641-1.074c-0.651-0.717-0.975-1.72-0.975-3.013c0-1.335,0.327-2.37,0.986-3.108
		c0.657-0.738,1.509-1.108,2.556-1.108c1.014,0,1.843,0.364,2.484,1.088c0.642,0.726,0.963,1.747,0.963,3.062
		c0,0.08-0.001,0.201-0.004,0.36h-5.673c0.047,0.869,0.287,1.533,0.718,1.997c0.431,0.463,0.963,0.689,1.606,0.689
		c0.476,0,0.884-0.127,1.223-0.391C296.678,241.626,296.941,241.209,297.14,240.637z M292.823,238.486h4.332
		c-0.059-0.672-0.224-1.18-0.499-1.518c-0.418-0.521-0.96-0.781-1.628-0.781c-0.605,0-1.109,0.207-1.521,0.627
		C293.093,237.229,292.869,237.787,292.823,238.486z"/>
	<path fill="#0A0303" d="M304.059,243.203v-7.943h1.136v1.114c0.236-0.39,0.55-0.702,0.944-0.938
		c0.396-0.236,0.842-0.354,1.348-0.354c0.561,0,1.02,0.12,1.378,0.364c0.358,0.246,0.61,0.587,0.758,1.025
		c0.601-0.924,1.378-1.391,2.34-1.391c0.755,0,1.33,0.219,1.736,0.654c0.401,0.437,0.606,1.106,0.606,2.014v5.454h-1.285v-5.007
		c0-0.539-0.041-0.928-0.125-1.163c-0.084-0.237-0.232-0.429-0.451-0.572c-0.217-0.144-0.475-0.217-0.768-0.217
		c-0.53,0-0.973,0.187-1.322,0.56c-0.349,0.371-0.524,0.967-0.524,1.784v4.618h-1.283v-5.162c0-0.6-0.106-1.048-0.313-1.348
		c-0.21-0.299-0.548-0.449-1.019-0.449c-0.362,0-0.693,0.1-0.999,0.301c-0.307,0.203-0.524,0.49-0.661,0.876
		c-0.141,0.386-0.208,0.938-0.208,1.661v4.123h-1.286L304.059,243.203L304.059,243.203L304.059,243.203z"/>
	<path fill="#0A0303" d="M321.156,243.203v-1.17c-0.594,0.9-1.393,1.352-2.4,1.352c-0.45,0-0.867-0.092-1.251-0.271
		c-0.391-0.18-0.678-0.404-0.863-0.678c-0.188-0.273-0.323-0.604-0.396-0.998c-0.05-0.265-0.08-0.685-0.08-1.258v-4.92h1.285v4.398
		c0,0.703,0.029,1.175,0.079,1.42c0.082,0.354,0.253,0.634,0.515,0.834c0.26,0.199,0.577,0.304,0.963,0.304
		c0.383,0,0.743-0.104,1.075-0.309c0.338-0.21,0.576-0.49,0.714-0.847c0.14-0.359,0.21-0.875,0.21-1.554v-4.251h1.287v7.943h-1.136
		L321.156,243.203L321.156,243.203z"/>
	<path fill="#0A0303" d="M327.112,242.014l0.178,1.189c-0.358,0.08-0.683,0.123-0.968,0.123c-0.464,0-0.827-0.08-1.081-0.232
		c-0.258-0.156-0.437-0.361-0.542-0.611c-0.104-0.254-0.154-0.783-0.154-1.594v-4.582h-0.955v-1.047h0.955v-1.961l1.287-0.806v2.767
		h1.282v1.047h-1.282v4.637c0,0.387,0.021,0.631,0.063,0.742c0.042,0.107,0.12,0.194,0.219,0.26
		c0.102,0.064,0.246,0.098,0.439,0.098C326.694,242.04,326.881,242.033,327.112,242.014z"/>
	<path fill="#0A0303" d="M333.31,242.219c-0.466,0.428-0.924,0.729-1.366,0.902c-0.437,0.174-0.913,0.262-1.417,0.262
		c-0.834,0-1.474-0.215-1.922-0.641c-0.446-0.428-0.673-0.971-0.673-1.635c0-0.392,0.086-0.746,0.254-1.069
		c0.168-0.32,0.391-0.577,0.665-0.774c0.273-0.195,0.581-0.342,0.922-0.443c0.258-0.069,0.638-0.135,1.147-0.201
		c1.038-0.127,1.799-0.282,2.292-0.465c0.005-0.184,0.007-0.301,0.007-0.35c0-0.55-0.119-0.939-0.361-1.162
		c-0.327-0.307-0.813-0.459-1.459-0.459c-0.602,0-1.049,0.115-1.335,0.336c-0.286,0.223-0.502,0.617-0.636,1.188l-1.283-0.179
		c0.114-0.565,0.299-1.022,0.565-1.368c0.262-0.345,0.64-0.612,1.135-0.8c0.497-0.188,1.066-0.279,1.724-0.279
		c0.646,0,1.17,0.078,1.578,0.238c0.404,0.16,0.702,0.359,0.894,0.603c0.189,0.242,0.326,0.55,0.398,0.916
		c0.045,0.229,0.066,0.644,0.066,1.243v1.8c0,1.253,0.026,2.044,0.079,2.373c0.052,0.332,0.152,0.647,0.309,0.949h-1.314
		C333.442,242.923,333.35,242.596,333.31,242.219z M333.222,239.202c-0.469,0.202-1.166,0.375-2.104,0.517
		c-0.525,0.077-0.9,0.17-1.122,0.268c-0.222,0.103-0.389,0.248-0.508,0.443c-0.121,0.192-0.181,0.404-0.181,0.646
		c0,0.36,0.128,0.661,0.392,0.903c0.257,0.24,0.639,0.36,1.139,0.36c0.493,0,0.932-0.11,1.317-0.339s0.67-0.539,0.849-0.938
		c0.138-0.307,0.207-0.762,0.207-1.356L333.222,239.202z"/>
	<path fill="#0A0303" d="M339.222,242.014l0.179,1.189c-0.358,0.08-0.682,0.123-0.966,0.123c-0.464,0-0.827-0.08-1.083-0.232
		c-0.254-0.156-0.437-0.361-0.54-0.611c-0.106-0.254-0.155-0.783-0.155-1.594v-4.582h-0.956v-1.047h0.956v-1.961l1.286-0.806v2.767
		h1.285v1.047h-1.285v4.637c0,0.387,0.022,0.631,0.066,0.742c0.042,0.107,0.12,0.194,0.218,0.26c0.104,0.064,0.25,0.098,0.438,0.098
		C338.803,242.04,338.993,242.033,339.222,242.014z"/>
	<path fill="#0A0303" d="M340.526,233.768v-1.523h1.284v1.523H340.526z M340.526,243.203v-7.943h1.284v7.943H340.526z"/>
	<path fill="#0A0303" d="M343.226,239.232c0-1.473,0.391-2.561,1.168-3.27c0.649-0.589,1.44-0.881,2.376-0.881
		c1.037,0,1.885,0.357,2.545,1.074c0.66,0.716,0.99,1.705,0.99,2.968c0,1.021-0.147,1.827-0.439,2.411
		c-0.29,0.586-0.716,1.037-1.272,1.365c-0.558,0.322-1.164,0.484-1.822,0.484c-1.062,0-1.915-0.357-2.568-1.07
		C343.555,241.602,343.226,240.572,343.226,239.232z M344.543,239.229c0,1.021,0.209,1.785,0.631,2.291
		c0.424,0.51,0.956,0.762,1.599,0.762c0.636,0,1.164-0.256,1.585-0.764c0.424-0.512,0.636-1.285,0.636-2.332
		c0-0.985-0.214-1.729-0.639-2.233c-0.425-0.507-0.953-0.765-1.582-0.765c-0.642,0-1.175,0.252-1.599,0.76
		C344.752,237.45,344.543,238.208,344.543,239.229z"/>
	<path fill="#0A0303" d="M351.812,243.203v-7.943h1.163v1.129c0.552-0.871,1.347-1.31,2.392-1.31c0.451,0,0.868,0.084,1.247,0.259
		c0.382,0.17,0.665,0.396,0.854,0.676c0.187,0.278,0.318,0.612,0.396,0.996c0.043,0.247,0.072,0.686,0.072,1.311v4.884h-1.316
		v-4.835c0-0.549-0.044-0.96-0.147-1.23c-0.099-0.271-0.273-0.488-0.519-0.65c-0.252-0.159-0.545-0.242-0.881-0.242
		c-0.539,0-1.003,0.182-1.392,0.549c-0.396,0.365-0.584,1.057-0.584,2.07v4.34h-1.285V243.203z"/>
	<path fill="#0A0303" d="M359.441,240.814l1.251-0.182c0.072,0.53,0.271,0.938,0.593,1.221c0.323,0.283,0.775,0.424,1.354,0.424
		c0.584,0,1.021-0.125,1.305-0.379c0.283-0.25,0.424-0.547,0.424-0.885c0-0.306-0.125-0.548-0.384-0.72
		c-0.181-0.12-0.614-0.271-1.307-0.457c-0.931-0.247-1.573-0.464-1.934-0.646c-0.358-0.185-0.633-0.437-0.818-0.756
		c-0.188-0.322-0.279-0.676-0.279-1.064c0-0.355,0.076-0.684,0.228-0.98c0.153-0.305,0.363-0.555,0.629-0.756
		c0.195-0.154,0.465-0.283,0.809-0.393c0.342-0.107,0.707-0.16,1.098-0.16c0.59,0,1.104,0.09,1.552,0.271
		c0.445,0.181,0.771,0.426,0.986,0.731c0.21,0.306,0.359,0.722,0.438,1.235l-1.253,0.18c-0.057-0.412-0.219-0.732-0.492-0.963
		c-0.271-0.232-0.65-0.35-1.144-0.35c-0.582,0-1,0.104-1.248,0.31s-0.37,0.442-0.37,0.718c0,0.178,0.047,0.332,0.152,0.473
		c0.102,0.146,0.268,0.266,0.486,0.359c0.124,0.049,0.5,0.162,1.123,0.344c0.894,0.254,1.524,0.461,1.886,0.627
		c0.36,0.16,0.645,0.396,0.85,0.705c0.205,0.313,0.31,0.695,0.31,1.152c0,0.449-0.126,0.871-0.372,1.27
		c-0.248,0.397-0.604,0.701-1.072,0.92c-0.469,0.215-0.996,0.324-1.585,0.324c-0.977,0-1.723-0.218-2.232-0.647
		C359.907,242.309,359.586,241.663,359.441,240.814z"/>
</g>
<g>
	<path fill="#0A0303" d="M229.628,256.584v-7.943h1.164v1.129c0.553-0.873,1.349-1.308,2.39-1.308c0.452,0,0.867,0.085,1.249,0.257
		c0.379,0.172,0.664,0.397,0.854,0.676c0.188,0.28,0.318,0.612,0.396,0.996c0.044,0.248,0.07,0.687,0.07,1.311v4.884h-1.314v-4.835
		c0-0.548-0.05-0.96-0.151-1.23c-0.095-0.271-0.27-0.487-0.517-0.649c-0.25-0.163-0.544-0.243-0.884-0.243
		c-0.535,0-1,0.182-1.389,0.549c-0.394,0.365-0.586,1.057-0.586,2.07v4.343L229.628,256.584L229.628,256.584z"/>
	<path fill="#0A0303" d="M237.258,252.611c0-1.473,0.39-2.559,1.167-3.268c0.648-0.589,1.44-0.883,2.373-0.883
		c1.04,0,1.892,0.357,2.552,1.074c0.657,0.718,0.985,1.705,0.985,2.967c0,1.021-0.144,1.83-0.438,2.411
		c-0.292,0.585-0.715,1.041-1.272,1.366c-0.555,0.324-1.166,0.484-1.827,0.484c-1.055,0-1.909-0.354-2.563-1.068
		C237.583,254.982,237.258,253.954,237.258,252.611z M238.57,252.605c0,1.021,0.213,1.785,0.636,2.293
		c0.42,0.508,0.954,0.76,1.592,0.76c0.639,0,1.166-0.254,1.59-0.766c0.423-0.511,0.634-1.285,0.634-2.328
		c0-0.984-0.214-1.731-0.639-2.237c-0.426-0.507-0.951-0.761-1.585-0.761c-0.638,0-1.172,0.254-1.592,0.758
		C238.783,250.831,238.57,251.589,238.57,252.605z"/>
	<path fill="#0A0303" d="M249.897,256.584v-7.943h1.134v1.116c0.237-0.391,0.552-0.704,0.945-0.937
		c0.395-0.238,0.843-0.356,1.347-0.356c0.561,0,1.019,0.123,1.378,0.368c0.358,0.242,0.611,0.584,0.76,1.021
		c0.599-0.926,1.379-1.391,2.338-1.391c0.758,0,1.329,0.217,1.737,0.652c0.401,0.438,0.606,1.109,0.606,2.017v5.454h-1.286v-5.007
		c0-0.539-0.04-0.929-0.125-1.166c-0.084-0.237-0.232-0.427-0.453-0.569c-0.214-0.146-0.478-0.22-0.765-0.22
		c-0.532,0-0.973,0.187-1.324,0.56c-0.351,0.371-0.524,0.967-0.524,1.785v4.619h-1.287v-5.164c0-0.596-0.105-1.048-0.31-1.348
		c-0.208-0.299-0.548-0.449-1.022-0.449c-0.358,0-0.689,0.1-0.996,0.299c-0.307,0.2-0.523,0.492-0.664,0.877
		c-0.137,0.383-0.203,0.938-0.203,1.659v4.126h-1.287v-0.004H249.897z"/>
	<path fill="#0A0303" d="M266.992,256.584v-1.173c-0.589,0.899-1.391,1.353-2.4,1.353c-0.446,0-0.861-0.093-1.252-0.271
		c-0.388-0.179-0.674-0.405-0.86-0.677c-0.188-0.274-0.32-0.604-0.396-0.998c-0.048-0.266-0.079-0.684-0.079-1.26v-4.922h1.286
		v4.401c0,0.7,0.028,1.175,0.079,1.42c0.079,0.353,0.25,0.633,0.515,0.833c0.259,0.2,0.583,0.303,0.964,0.303
		c0.384,0,0.741-0.105,1.074-0.31c0.334-0.207,0.577-0.489,0.713-0.847c0.142-0.356,0.21-0.875,0.21-1.554v-4.251h1.283v7.943
		h-1.133v0.007L266.992,256.584L266.992,256.584z"/>
	<path fill="#0A0303" d="M272.95,255.395l0.18,1.188c-0.362,0.082-0.686,0.122-0.969,0.122c-0.465,0-0.828-0.08-1.083-0.232
		c-0.254-0.156-0.438-0.359-0.54-0.609c-0.104-0.252-0.154-0.784-0.154-1.596v-4.582h-0.955v-1.045h0.955v-1.965l1.287-0.806v2.771
		h1.283v1.045h-1.283v4.637c0,0.385,0.021,0.632,0.066,0.74c0.042,0.109,0.118,0.197,0.22,0.264
		c0.099,0.063,0.245,0.097,0.436,0.097C272.531,255.421,272.717,255.411,272.95,255.395z"/>
	<path fill="#0A0303" d="M279.148,255.6c-0.466,0.428-0.922,0.729-1.365,0.902c-0.438,0.174-0.913,0.264-1.417,0.264
		c-0.835,0-1.474-0.217-1.92-0.643c-0.449-0.428-0.674-0.973-0.674-1.635c0-0.391,0.086-0.746,0.254-1.066
		c0.168-0.322,0.391-0.58,0.666-0.775c0.273-0.196,0.582-0.344,0.923-0.441c0.254-0.07,0.636-0.139,1.143-0.202
		c1.038-0.128,1.803-0.282,2.293-0.465c0.007-0.185,0.008-0.304,0.008-0.351c0-0.551-0.12-0.938-0.363-1.164
		c-0.326-0.303-0.813-0.457-1.459-0.457c-0.602,0-1.046,0.113-1.333,0.334c-0.286,0.226-0.501,0.621-0.635,1.189l-1.284-0.181
		c0.114-0.563,0.3-1.021,0.563-1.366c0.266-0.348,0.642-0.611,1.137-0.801c0.497-0.184,1.067-0.28,1.723-0.28
		c0.646,0,1.173,0.08,1.58,0.238c0.404,0.157,0.701,0.36,0.892,0.603c0.191,0.243,0.327,0.549,0.4,0.916
		c0.043,0.229,0.063,0.643,0.063,1.241v1.8c0,1.256,0.03,2.043,0.08,2.375c0.051,0.332,0.154,0.648,0.311,0.949h-1.313
		C279.279,256.303,279.187,255.977,279.148,255.6z M279.06,252.583c-0.468,0.202-1.167,0.372-2.104,0.515
		c-0.528,0.08-0.902,0.172-1.123,0.271c-0.219,0.103-0.392,0.247-0.509,0.44c-0.12,0.192-0.18,0.406-0.18,0.646
		c0,0.36,0.128,0.661,0.39,0.903c0.259,0.242,0.639,0.363,1.139,0.363c0.494,0,0.934-0.113,1.317-0.34
		c0.388-0.229,0.668-0.542,0.85-0.938c0.139-0.31,0.207-0.762,0.207-1.358L279.06,252.583z"/>
	<path fill="#0A0303" d="M285.06,255.395l0.179,1.188c-0.359,0.082-0.683,0.122-0.965,0.122c-0.464,0-0.827-0.08-1.082-0.232
		c-0.256-0.156-0.438-0.359-0.542-0.609c-0.104-0.252-0.157-0.784-0.157-1.596v-4.582h-0.954v-1.045h0.954v-1.965l1.288-0.806v2.771
		h1.284v1.045h-1.284v4.637c0,0.385,0.023,0.632,0.064,0.74c0.043,0.109,0.122,0.197,0.22,0.264
		c0.102,0.063,0.247,0.097,0.437,0.097C284.643,255.421,284.831,255.411,285.06,255.395z"/>
	<path fill="#0A0303" d="M286.364,247.146v-1.522h1.285v1.522H286.364z M286.364,256.584v-7.943h1.285v7.943H286.364z"/>
	<path fill="#0A0303" d="M289.064,252.611c0-1.473,0.389-2.559,1.167-3.268c0.648-0.589,1.439-0.883,2.373-0.883
		c1.039,0,1.89,0.357,2.548,1.074c0.661,0.718,0.989,1.705,0.989,2.967c0,1.021-0.145,1.83-0.438,2.411
		c-0.289,0.587-0.714,1.041-1.271,1.366c-0.557,0.322-1.162,0.484-1.824,0.484c-1.059,0-1.913-0.354-2.564-1.068
		C289.393,254.982,289.064,253.954,289.064,252.611z M290.379,252.605c0,1.021,0.211,1.785,0.633,2.293
		c0.426,0.508,0.955,0.76,1.597,0.76c0.638,0,1.166-0.254,1.587-0.766c0.425-0.511,0.636-1.285,0.636-2.328
		c0-0.984-0.213-1.731-0.638-2.237c-0.426-0.507-0.953-0.761-1.585-0.761c-0.641,0-1.17,0.254-1.597,0.758
		C290.589,250.831,290.379,251.589,290.379,252.605z"/>
	<path fill="#0A0303" d="M297.648,256.584v-7.943h1.163v1.129c0.553-0.873,1.348-1.308,2.392-1.308c0.453,0,0.869,0.085,1.248,0.257
		c0.38,0.172,0.664,0.397,0.854,0.676c0.185,0.28,0.319,0.612,0.394,0.996c0.046,0.248,0.073,0.687,0.073,1.311v4.884h-1.315v-4.835
		c0-0.548-0.047-0.96-0.147-1.23c-0.098-0.271-0.274-0.487-0.519-0.649c-0.25-0.163-0.545-0.243-0.882-0.243
		c-0.537,0-1.001,0.182-1.391,0.549c-0.395,0.365-0.585,1.057-0.585,2.07v4.343L297.648,256.584L297.648,256.584z"/>
	<path fill="#0A0303" d="M305.28,254.193l1.251-0.18c0.072,0.53,0.27,0.937,0.591,1.219c0.323,0.281,0.771,0.426,1.355,0.426
		c0.586,0,1.02-0.127,1.303-0.379c0.287-0.254,0.429-0.549,0.429-0.885c0-0.308-0.132-0.547-0.386-0.722
		c-0.182-0.123-0.613-0.272-1.31-0.457c-0.927-0.25-1.574-0.464-1.933-0.647c-0.359-0.18-0.631-0.432-0.817-0.754
		c-0.188-0.321-0.277-0.678-0.277-1.065c0-0.354,0.074-0.681,0.227-0.981c0.152-0.305,0.362-0.555,0.627-0.754
		c0.197-0.156,0.468-0.285,0.81-0.392c0.341-0.108,0.707-0.16,1.098-0.16c0.589,0,1.105,0.091,1.551,0.271
		c0.445,0.183,0.773,0.428,0.988,0.73c0.209,0.311,0.357,0.723,0.437,1.238l-1.254,0.18c-0.056-0.412-0.217-0.732-0.491-0.966
		c-0.27-0.233-0.65-0.349-1.144-0.349c-0.581,0-0.998,0.104-1.247,0.309c-0.252,0.205-0.372,0.441-0.372,0.719
		c0,0.176,0.048,0.334,0.15,0.471c0.106,0.146,0.269,0.267,0.489,0.36c0.124,0.05,0.502,0.164,1.122,0.345
		c0.896,0.254,1.527,0.461,1.883,0.625c0.363,0.16,0.646,0.398,0.854,0.707c0.206,0.31,0.311,0.694,0.311,1.151
		c0,0.449-0.126,0.871-0.375,1.271c-0.246,0.396-0.603,0.701-1.071,0.918c-0.468,0.215-0.997,0.324-1.584,0.324
		c-0.976,0-1.721-0.217-2.233-0.646C305.745,255.686,305.421,255.044,305.28,254.193z"/>
</g>
<rect x="197.109" y="248.839" fill="#E9C8CF" width="7.407" height="7.729"/>
<rect x="214.654" y="248.839" fill="#E9C8CF" width="7.413" height="7.729"/>
<rect x="204.516" y="248.839" fill="#E9C8CF" width="10.141" height="7.729"/>
<line fill="none" stroke="#050000" stroke-width="1.944" stroke-miterlimit="10" x1="209.586" y1="253.217" x2="209.586" y2="252.188"/>
<rect x="214.654" y="221.986" fill="#CEDFAC" width="7.732" height="7.412"/>
<rect x="197.109" y="221.986" fill="#CEDFAC" width="7.73" height="7.412"/>
<rect x="204.84" y="221.986" fill="#CEDFAC" width="9.817" height="7.412"/>
<line fill="none" stroke="#050000" stroke-width="0.72" stroke-miterlimit="10" x1="211.141" y1="225.691" x2="208.355" y2="225.691"/>
<rect x="214.654" y="235.493" fill="#CCD3E3" width="7.732" height="7.409"/>
<rect x="197.109" y="235.493" fill="#CCD3E3" width="7.73" height="7.409"/>
<rect x="204.84" y="235.493" fill="#CCD3E3" width="9.817" height="7.409"/>
<line fill="none" stroke="#050000" stroke-width="0.72" stroke-miterlimit="10" x1="211.141" y1="239.197" x2="208.355" y2="239.197"/>
<g>
	<path fill="#050000" d="M200.952,373.668v-10.96h4.848c0.969,0,1.708,0.099,2.209,0.292c0.51,0.2,0.91,0.544,1.214,1.043
		c0.301,0.499,0.449,1.051,0.449,1.65c0,0.779-0.251,1.433-0.749,1.967c-0.498,0.531-1.271,0.876-2.314,1.018
		c0.384,0.184,0.671,0.365,0.874,0.547c0.421,0.389,0.817,0.873,1.191,1.455l1.882,2.988h-1.802l-1.438-2.281
		c-0.423-0.658-0.767-1.164-1.038-1.511c-0.275-0.349-0.519-0.597-0.732-0.733c-0.216-0.14-0.435-0.238-0.658-0.291
		c-0.164-0.037-0.429-0.052-0.803-0.052h-1.67v4.868H200.952L200.952,373.668z M202.414,367.512h3.096
		c0.657,0,1.173-0.064,1.544-0.199c0.366-0.138,0.648-0.354,0.838-0.649c0.191-0.3,0.287-0.622,0.287-0.976
		c0-0.512-0.188-0.934-0.557-1.266c-0.373-0.326-0.959-0.494-1.767-0.494h-3.444L202.414,367.512L202.414,367.512z"/>
	<path fill="#050000" d="M223.083,367.243h-7.227v-1.255h7.227V367.243z M223.083,370.563h-7.227v-1.256h7.227V370.563z"/>
	<path fill="#050000" d="M228.174,373.668l4.202-10.96h1.605l4.408,10.96h-1.65l-1.249-3.314h-4.578l-1.189,3.314H228.174z
		 M231.328,369.156h3.725l-1.142-3.018c-0.34-0.929-0.595-1.68-0.768-2.272c-0.142,0.706-0.342,1.403-0.601,2.092L231.328,369.156z"
		/>
	<path fill="#050000" d="M243.155,369.691c0-1.471,0.41-2.56,1.228-3.269c0.681-0.589,1.513-0.883,2.496-0.883
		c1.091,0,1.98,0.36,2.676,1.073c0.691,0.717,1.038,1.705,1.038,2.966c0,1.021-0.151,1.827-0.457,2.413
		c-0.306,0.587-0.755,1.044-1.336,1.365c-0.587,0.326-1.227,0.485-1.92,0.485c-1.109,0-2.011-0.354-2.692-1.069
		C243.5,372.063,243.155,371.035,243.155,369.691z M244.527,369.689c0,1.016,0.224,1.783,0.669,2.287
		c0.443,0.508,1.004,0.76,1.681,0.76c0.672,0,1.229-0.254,1.673-0.762c0.448-0.512,0.67-1.291,0.67-2.332
		c0-0.983-0.225-1.73-0.676-2.236c-0.445-0.51-1.005-0.762-1.667-0.762c-0.678,0-1.234,0.252-1.681,0.758
		C244.751,367.907,244.527,368.671,244.527,369.689z"/>
	<path fill="#050000" d="M252.135,373.668v-7.945h1.193v1.217c0.31-0.568,0.596-0.94,0.859-1.125
		c0.264-0.18,0.548-0.275,0.861-0.275c0.458,0,0.917,0.148,1.386,0.439l-0.474,1.232c-0.327-0.18-0.65-0.268-0.977-0.268
		c-0.289,0-0.552,0.088-0.784,0.268c-0.227,0.18-0.395,0.424-0.496,0.736c-0.152,0.479-0.227,1-0.227,1.566v4.153L252.135,373.668
		L252.135,373.668z"/>
	<path fill="#050000" d="M266.792,369.365v-1.283h4.629v4.055c-0.709,0.568-1.445,0.994-2.201,1.276
		c-0.758,0.284-1.535,0.433-2.332,0.433c-1.075,0-2.049-0.229-2.929-0.688c-0.88-0.462-1.542-1.128-1.991-1.997
		c-0.446-0.874-0.671-1.848-0.671-2.922c0-1.065,0.222-2.057,0.669-2.982c0.446-0.926,1.084-1.609,1.922-2.056
		c0.837-0.45,1.798-0.675,2.889-0.675c0.788,0,1.505,0.127,2.144,0.385c0.641,0.262,1.146,0.617,1.503,1.078
		c0.363,0.462,0.641,1.061,0.832,1.798l-1.345,0.356c-0.165-0.556-0.369-0.992-0.61-1.312c-0.242-0.317-0.586-0.574-1.039-0.763
		c-0.448-0.193-0.948-0.285-1.497-0.285c-0.656,0-1.229,0.102-1.706,0.299c-0.48,0.203-0.871,0.471-1.165,0.799
		c-0.29,0.329-0.519,0.689-0.681,1.083c-0.277,0.677-0.421,1.415-0.421,2.202c0,0.979,0.167,1.794,0.503,2.451
		c0.335,0.656,0.822,1.148,1.46,1.467c0.639,0.318,1.315,0.479,2.032,0.479c0.623,0,1.232-0.121,1.823-0.361
		c0.595-0.243,1.044-0.508,1.35-0.78v-2.051L266.792,369.365L266.792,369.365z"/>
	<path fill="#050000" d="M273.758,373.668v-1.525h1.524v1.525H273.758z"/>
	<path fill="#050000" d="M285.145,373.668v-4.645l-4.211-6.32h1.754l2.137,3.33c0.41,0.607,0.788,1.227,1.135,1.851
		c0.348-0.569,0.75-1.215,1.208-1.937l2.114-3.244h1.685l-4.359,6.32v4.645H285.145L285.145,373.668z"/>
	<path fill="#050000" d="M303.395,367.243h-7.229v-1.255h7.229V367.243z M303.395,370.563h-7.229v-1.256h7.229V370.563z"/>
	<path fill="#050000" d="M317.498,369.814l1.466,0.365c-0.302,1.191-0.851,2.102-1.641,2.725c-0.786,0.629-1.75,0.939-2.893,0.939
		c-1.182,0-2.139-0.242-2.878-0.721c-0.743-0.48-1.305-1.175-1.69-2.089c-0.383-0.911-0.578-1.888-0.578-2.935
		c0-1.141,0.221-2.135,0.652-2.983c0.438-0.849,1.058-1.493,1.865-1.935c0.802-0.439,1.686-0.658,2.652-0.658
		c1.098,0,2.021,0.277,2.769,0.836c0.746,0.561,1.265,1.347,1.558,2.356l-1.434,0.335c-0.252-0.791-0.62-1.373-1.104-1.736
		c-0.483-0.359-1.089-0.541-1.821-0.541c-0.84,0-1.546,0.203-2.112,0.604c-0.563,0.4-0.96,0.944-1.189,1.62
		c-0.228,0.676-0.343,1.373-0.343,2.095c0,0.928,0.137,1.736,0.406,2.428c0.271,0.697,0.692,1.207,1.262,1.552
		c0.571,0.346,1.189,0.516,1.856,0.516c0.81,0,1.494-0.229,2.058-0.698C316.922,371.424,317.302,370.73,317.498,369.814z"/>
	<path fill="#050000" d="M324.308,369.691c0-1.471,0.41-2.56,1.229-3.269c0.679-0.589,1.513-0.883,2.492-0.883
		c1.092,0,1.987,0.36,2.677,1.073c0.694,0.717,1.039,1.705,1.039,2.966c0,1.021-0.151,1.827-0.459,2.413
		c-0.306,0.587-0.752,1.044-1.333,1.365c-0.589,0.326-1.229,0.485-1.922,0.485c-1.108,0-2.009-0.354-2.69-1.069
		C324.654,372.063,324.308,371.035,324.308,369.691z M325.68,369.689c0,1.016,0.225,1.783,0.67,2.287
		c0.445,0.508,1.004,0.76,1.679,0.76c0.673,0,1.23-0.254,1.672-0.762c0.45-0.512,0.671-1.291,0.671-2.332
		c0-0.983-0.224-1.73-0.673-2.236c-0.445-0.51-1.001-0.762-1.669-0.762c-0.676,0-1.232,0.252-1.679,0.758
		C325.905,367.907,325.68,368.671,325.68,369.689z"/>
	<path fill="#050000" d="M333.29,373.668v-7.945h1.196v1.217c0.31-0.568,0.596-0.94,0.856-1.125c0.265-0.18,0.55-0.275,0.862-0.275
		c0.457,0,0.916,0.148,1.388,0.439l-0.475,1.232c-0.325-0.18-0.651-0.268-0.977-0.268c-0.29,0-0.552,0.088-0.782,0.268
		c-0.229,0.18-0.396,0.424-0.499,0.736c-0.151,0.479-0.229,1-0.229,1.566v4.153L333.29,373.668L333.29,373.668z"/>
</g>
<path fill="#050000" d="M350.748,363.352h1.463v6.33c0,1.103-0.123,1.976-0.372,2.621c-0.25,0.649-0.7,1.178-1.348,1.582
	c-0.646,0.405-1.499,0.607-2.554,0.607c-1.023,0-1.864-0.178-2.514-0.532c-0.654-0.354-1.116-0.862-1.396-1.535
	c-0.277-0.669-0.415-1.583-0.415-2.745v-6.33h1.462v6.299c0,0.949,0.089,1.648,0.267,2.097c0.175,0.448,0.478,0.796,0.901,1.043
	c0.432,0.239,0.952,0.36,1.567,0.36c1.062,0,1.817-0.24,2.264-0.724c0.452-0.479,0.679-1.401,0.679-2.774v-6.295h-0.005
	L350.748,363.352L350.748,363.352z"/>
</svg>
