<?xml version="1.0" encoding="utf-8"?>
<!-- Generator: Adobe Illustrator 16.0.0, SVG Export Plug-In . SVG Version: 6.00 Build 0)  -->
<!DOCTYPE svg PUBLIC "-//W3C//DTD SVG 1.1//EN" "http://www.w3.org/Graphics/SVG/1.1/DTD/svg11.dtd">
<svg version="1.1" id="图层_1" xmlns="http://www.w3.org/2000/svg" xmlns:xlink="http://www.w3.org/1999/xlink" x="0px" y="0px"
	 width="400px" height="265.333px" viewBox="0 0 400 265.333" enable-background="new 0 0 400 265.333" xml:space="preserve">
<text transform="matrix(1 0 0 1 33.9763 241.7271)" fill="#251E1C" font-family="'ArialMT'" font-size="13.0046">Nucleotide identity: </text>
<text transform="matrix(1 0 0 1 147.4685 241.7271)" fill="#C40018" font-family="'ArialMT'" font-size="13.0046">N</text>
<text transform="matrix(1 0 0 1 156.8596 241.7271)" fill="#251E1C" font-family="'ArialMT'" font-size="13.0046"> 97%  </text>
<text transform="matrix(1 0 0 1 193.7263 241.7271)" fill="#251E1C" font-family="'ArialMT'" font-size="13.0046">N</text>
<text transform="matrix(1 0 0 1 203.1189 241.7271)" fill="#251E1C" font-family="'ArialMT'" font-size="13.0046"> 90%  </text>
<text transform="matrix(1 0 0 1 239.9861 241.7271)" fill="#868687" font-family="'ArialMT'" font-size="13.0046">N</text>
<text transform="matrix(1 0 0 1 249.3777 241.7271)" fill="#251E1C" font-family="'ArialMT'" font-size="13.0046"> 75%</text>
<text transform="matrix(1 0 0 1 33.9763 257.3325)" fill="#251E1C" font-family="'ArialMT'" font-size="13.0046">R=A/G    Y=C/U    M=A/C</text>
<g>
	<text transform="matrix(0.9428 0 0 1 323.8816 202.5513)" fill="#C40018" font-family="'ArialMT'" font-size="14.6302">G</text>
</g>
<g>
	<text transform="matrix(0.9428 0 0 1 297.783 202.5513)" fill="#C40018" font-family="'ArialMT'" font-size="14.6302">G</text>
</g>
<g>
	<text transform="matrix(0.9428 0 0 1 284.9626 202.5513)" fill="#C40018" font-family="'ArialMT'" font-size="14.6302">G</text>
</g>
<g>
	<text transform="matrix(0.9428 0 0 1 180.2522 108.2271)" fill="#C40018" font-family="'ArialMT'" font-size="14.6302">G</text>
</g>
<g>
	<text transform="matrix(0.9428 0 0 1 155.488 82.4214)" fill="#C40018" font-family="'ArialMT'" font-size="14.6302">R</text>
</g>
<g>
	<text transform="matrix(0.9428 0 0 1 129.0725 142.9751)" fill="#C40018" font-family="'ArialMT'" font-size="14.6302">G</text>
</g>
<g>
	<text transform="matrix(0.9428 0 0 1 111.5969 43.0015)" fill="#C40018" font-family="'ArialMT'" font-size="14.6302">G</text>
</g>
<g>
	<text transform="matrix(0.9428 0 0 1 54.2961 71.855)" fill="#C40018" font-family="'ArialMT'" font-size="14.6302">R</text>
</g>
<g>
	<text transform="matrix(0.9428 0 0 1 50.6389 105.5864)" fill="#C40018" font-family="'ArialMT'" font-size="14.6302">G</text>
</g>
<g>
	<text transform="matrix(0.9428 0 0 1 113.9934 188.686)" fill="#C40018" font-family="'ArialMT'" font-size="15.4429">C</text>
</g>
<g>
	<text transform="matrix(0.9428 0 0 1 75.4285 143.3804)" fill="#C40018" font-family="'ArialMT'" font-size="14.6302">G</text>
</g>
<g>
	<text transform="matrix(0.9428 0 0 1 114.8484 149.1196)" fill="#C40018" font-family="'ArialMT'" font-size="14.6302">G</text>
</g>
<g>
	<text transform="matrix(0.9428 0 0 1 89.5305 162.5093)" fill="#C40018" font-family="'ArialMT'" font-size="14.6302">G</text>
</g>
<g>
	<text transform="matrix(0.9428 0 0 1 89.5305 175.4722)" fill="#C40018" font-family="'ArialMT'" font-size="14.6302">A</text>
</g>
<g>
	<text transform="matrix(0.9428 0 0 1 89.5305 201.3931)" fill="#C40018" font-family="'ArialMT'" font-size="14.6302">A</text>
</g>
<g>
	<text transform="matrix(0.9428 0 0 1 219.238 202.5513)" fill="#C40018" font-family="'ArialMT'" font-size="14.6302">C</text>
</g>
<g>
	<text transform="matrix(0.9428 0 0 1 180.6228 82.4214)" fill="#C40018" font-family="'ArialMT'" font-size="14.6302">C</text>
</g>
<g>
	<text transform="matrix(0.9428 0 0 1 155.488 108.2271)" fill="#C40018" font-family="'ArialMT'" font-size="14.6302">C</text>
</g>
<g>
	<text transform="matrix(0.9428 0 0 1 140.8577 134.0337)" fill="#C40018" font-family="'ArialMT'" font-size="14.6302">C</text>
</g>
<g>
	<text transform="matrix(0.9428 0 0 1 95.3411 42.5942)" fill="#C40018" font-family="'ArialMT'" font-size="14.6302">C</text>
</g>
<g>
	<text transform="matrix(0.9428 0 0 1 79.0857 47.4722)" fill="#C40018" font-family="'ArialMT'" font-size="14.6302">C</text>
</g>
<g>
	<text transform="matrix(0.9428 0 0 1 49.8254 89.3306)" fill="#C40018" font-family="'ArialMT'" font-size="15.4429">C</text>
</g>
<g>
	<text transform="matrix(0.9428 0 0 1 113.863 201.8755)" fill="#C40018" font-family="'ArialMT'" font-size="14.6302">U</text>
</g>
<g>
	<text transform="matrix(0.9428 0 0 1 113.863 175.4966)" fill="#C40018" font-family="'ArialMT'" font-size="15.4429">U</text>
</g>
<g>
	<text transform="matrix(0.9428 0 0 1 114.2903 162.3091)" fill="#C40018" font-family="'ArialMT'" font-size="15.4429">C</text>
</g>
<g>
	<text transform="matrix(0.9428 0 0 1 89.6018 149.5483)" fill="#C40018" font-family="'ArialMT'" font-size="14.6302">C</text>
</g>
<g>
	<text transform="matrix(0.9428 0 0 1 89.6018 188.4321)" fill="#C40018" font-family="'ArialMT'" font-size="14.6302">G</text>
</g>
<g>
	<text transform="matrix(0.9428 0 0 1 138.8254 202.5513)" fill="#C40018" font-family="'ArialMT'" font-size="14.6302">W</text>
</g>
<g>
	<text transform="matrix(0.9428 0 0 1 125.925 202.5513)" fill="#C40018" font-family="'ArialMT'" font-size="14.6302">Y</text>
</g>
<g>
	<text transform="matrix(0.9428 0 0 1 167.7537 82.4214)" fill="#C40018" font-family="'ArialMT'" font-size="14.6302">U</text>
</g>
<g>
	<text transform="matrix(0.9428 0 0 1 64.8621 57.6313)" fill="#C40018" font-family="'ArialMT'" font-size="14.6302">U</text>
</g>
<g>
	<text transform="matrix(0.9428 0 0 1 53.4836 122.2485)" fill="#C40018" font-family="'ArialMT'" font-size="14.6302">U</text>
</g>
<g>
	<text transform="matrix(0.9428 0 0 1 62.4241 135.2524)" fill="#C40018" font-family="'ArialMT'" font-size="14.6302">U</text>
</g>
<g>
	<text transform="matrix(0.9428 0 0 1 336.7009 202.5513)" fill="#251E1C" font-family="'ArialMT'" font-size="14.6302">A</text>
</g>
<g>
	<text transform="matrix(0.9428 0 0 1 310.6013 202.5513)" fill="#C40018" font-family="'ArialMT'" font-size="14.6302">A</text>
</g>
<g>
	<text transform="matrix(0.9428 0 0 1 271.6833 202.5513)" fill="#C40018" font-family="'ArialMT'" font-size="14.6302">A</text>
</g>
<g>
	<text transform="matrix(0.9428 0 0 1 258.4031 202.5513)" fill="#C40018" font-family="'ArialMT'" font-size="14.6302">A</text>
</g>
<g>
	<text transform="matrix(0.9428 0 0 1 245.1228 202.5513)" fill="#C40018" font-family="'ArialMT'" font-size="14.6302">A</text>
</g>
<g>
	<text transform="matrix(0.9428 0 0 1 231.8425 202.5513)" fill="#C40018" font-family="'ArialMT'" font-size="14.6302">A</text>
</g>
<g>
	<text transform="matrix(0.9428 0 0 1 205.9587 202.5513)" fill="#C40018" font-family="'ArialMT'" font-size="14.6302">A</text>
</g>
<g>
	<text transform="matrix(0.9428 0 0 1 192.678 202.5513)" fill="#C40018" font-family="'ArialMT'" font-size="14.6302">A</text>
</g>
<g>
	<text transform="matrix(0.9428 0 0 1 179.3982 202.5513)" fill="#C40018" font-family="'ArialMT'" font-size="14.6302">A</text>
</g>
<g>
	<text transform="matrix(0.9428 0 0 1 166.1169 202.5513)" fill="#C40018" font-family="'ArialMT'" font-size="14.6302">A</text>
</g>
<g>
	<text transform="matrix(0.9428 0 0 1 152.8376 202.5513)" fill="#C40018" font-family="'ArialMT'" font-size="14.6302">A</text>
</g>
<g>
	<text transform="matrix(0.9428 0 0 1 167.55 108.2271)" fill="#C40018" font-family="'ArialMT'" font-size="14.6302">A</text>
</g>
<g>
	<text transform="matrix(0.9428 0 0 1 148.5789 121.4351)" fill="#C40018" font-family="'ArialMT'" font-size="14.6302">A</text>
</g>
<g>
	<text transform="matrix(0.9428 0 0 1 149.3923 67.7915)" fill="#C40018" font-family="'ArialMT'" font-size="14.6302">A</text>
</g>
<g>
	<text transform="matrix(0.9428 0 0 1 140.4519 55.1938)" fill="#C40018" font-family="'ArialMT'" font-size="14.6302">A</text>
</g>
<g>
	<text transform="matrix(0.9428 0 0 1 126.6335 46.2524)" fill="#868687" font-family="'ArialMT'" font-size="14.6302">R</text>
</g>
<g>
	<text transform="matrix(0.9428 0 0 1 18.1267 201.9009)" fill="#251E1C" font-family="'ArialMT'" font-size="10.5662">5’</text>
</g>
<line fill="none" stroke="#251E1C" stroke-miterlimit="10" x1="101.637" y1="184.022" x2="112.005" y2="184.022"/>
<line fill="none" stroke="#251E1C" stroke-miterlimit="10" x1="101.637" y1="170.206" x2="112.005" y2="170.206"/>
<line fill="none" stroke="#251E1C" stroke-miterlimit="10" x1="101.637" y1="157.2" x2="112.005" y2="157.2"/>
<line fill="none" stroke="#251E1C" stroke-miterlimit="10" x1="101.637" y1="144.602" x2="112.005" y2="144.602"/>
<line fill="none" stroke="#251E1C" stroke-miterlimit="10" x1="101.637" y1="196.214" x2="112.005" y2="196.214"/>
<line fill="none" stroke="#251E1C" stroke-miterlimit="10" x1="162.397" y1="85.875" x2="162.397" y2="96.241"/>
<line fill="none" stroke="#251E1C" stroke-miterlimit="10" x1="174.589" y1="85.875" x2="174.589" y2="96.241"/>
<line fill="none" stroke="#251E1C" stroke-width="2" stroke-miterlimit="10" x1="199.379" y1="85.875" x2="199.379" y2="96.241"/>
<g>
	<text transform="matrix(0.9428 0 0 1 92.4968 213.2798)" fill="#251E1C" font-family="'ArialMT'" font-size="10.5662">1</text>
</g>
<g>
	<text transform="matrix(0.9428 0 0 1 92.9036 136.4722)" fill="#251E1C" font-family="'ArialMT'" font-size="10.5662">5</text>
</g>
<g>
	<text transform="matrix(0.9428 0 0 1 60.3923 88.9243)" fill="#251E1C" font-family="'ArialMT'" font-size="10.5662">10</text>
</g>
<g>
	<text transform="matrix(0.9428 0 0 1 110.3782 53.9741)" fill="#251E1C" font-family="'ArialMT'" font-size="10.5662">15</text>
</g>
<g>
	<text transform="matrix(0.9428 0 0 1 167.6799 69.4175)" fill="#251E1C" font-family="'ArialMT'" font-size="10.5662">20</text>
</g>
<g>
	<text transform="matrix(0.9428 0 0 1 141.2644 107.2114)" fill="#251E1C" font-family="'ArialMT'" font-size="10.5662">30</text>
</g>
<g>
	<text transform="matrix(0.9428 0 0 1 125.4153 162.0747)" fill="#251E1C" font-family="'ArialMT'" font-size="10.5662">35</text>
</g>
<g>
	<text transform="matrix(0.9428 0 0 1 138.4192 213.2798)" fill="#251E1C" font-family="'ArialMT'" font-size="10.5662">40</text>
</g>
<g>
	<text transform="matrix(0.9428 0 0 1 204.6609 213.2798)" fill="#251E1C" font-family="'ArialMT'" font-size="10.5662">45</text>
</g>
<g>
	<text transform="matrix(0.9428 0 0 1 271.3103 213.2798)" fill="#251E1C" font-family="'ArialMT'" font-size="10.5662">50</text>
</g>
<g>
	<text transform="matrix(0.9428 0 0 1 335.9275 214.0923)" fill="#251E1C" font-family="'ArialMT'" font-size="10.5662">55</text>
</g>
<g>
	<g>
		<line fill="none" stroke="#251E1C" stroke-miterlimit="10" x1="55.67" y1="14.556" x2="61.67" y2="14.556"/>
		
			<line fill="none" stroke="#251E1C" stroke-miterlimit="10" stroke-dasharray="11.4969,11.4969" x1="73.167" y1="14.556" x2="297.357" y2="14.556"/>
		<line fill="none" stroke="#251E1C" stroke-miterlimit="10" x1="303.105" y1="14.556" x2="309.105" y2="14.556"/>
	</g>
</g>
<g>
	<g>
		<line fill="none" stroke="#251E1C" stroke-miterlimit="10" x1="309.511" y1="14.556" x2="309.511" y2="20.556"/>
		
			<line fill="none" stroke="#251E1C" stroke-miterlimit="10" stroke-dasharray="11.6601,11.6601" x1="309.511" y1="32.217" x2="309.511" y2="166.307"/>
		<line fill="none" stroke="#251E1C" stroke-miterlimit="10" x1="309.511" y1="172.137" x2="309.511" y2="178.137"/>
	</g>
</g>
<line fill="none" stroke="#251E1C" stroke-miterlimit="10" x1="285.535" y1="184.428" x2="331.614" y2="184.428"/>
<line fill="none" stroke="#251E1C" stroke-miterlimit="10" x1="187.187" y1="85.875" x2="187.187" y2="96.241"/>
<g>
	<g>
		<defs>
			<rect id="SVGID_1_" x="10" y="3.99" width="98.348" height="86.155"/>
		</defs>
		<clipPath id="SVGID_2_">
			<use xlink:href="#SVGID_1_"  overflow="visible"/>
		</clipPath>
		<circle clip-path="url(#SVGID_2_)" fill="none" stroke="#251E1C" stroke-miterlimit="10" cx="104.588" cy="85.573" r="58.216"/>
	</g>
</g>
<g>
	<text transform="matrix(0.9428 0 0 1 377.7849 202.3071)" fill="#251E1C" font-family="'ArialMT'" font-size="10.5662">3’</text>
</g>
<g>
	<g>
		<line fill="none" stroke="#251E1C" stroke-miterlimit="10" x1="55.109" y1="17.66" x2="55.109" y2="23.66"/>
		<line fill="none" stroke="#251E1C" stroke-miterlimit="10" x1="55.109" y1="37.004" x2="55.109" y2="43.004"/>
	</g>
</g>
<text transform="matrix(1 0 0 1 76.6472 201.4946)" fill="#C40018" font-family="'ArialMT'" font-size="14.6302">U</text>
<text transform="matrix(1 0 0 1 63.8997 201.4946)" fill="#C40018" font-family="'ArialMT'" font-size="14.6302">R</text>
<text transform="matrix(1 0 0 1 47.1477 201.4946)" fill="#C40018" font-family="'ArialMT'" font-size="14.6302">W</text>
<text transform="matrix(1 0 0 1 33.8987 201.4946)" fill="#251E1C" font-family="'ArialMT'" font-size="14.6302">Y</text>
<circle fill="none" stroke="#251E1C" stroke-miterlimit="10" cx="219.1" cy="89.14" r="24.573"/>
<rect x="191.621" y="69.113" fill="#FFFFFF" stroke="#FFFFFF" stroke-miterlimit="10" width="19.688" height="33.061"/>
<g>
	<text transform="matrix(0.9428 0 0 1 192.6853 82.4214)" fill="#C40018" font-family="'ArialMT'" font-size="14.6302">W</text>
</g>
<line fill="none" stroke="#251E1C" stroke-width="2" stroke-miterlimit="10" x1="192.807" y1="102.743" x2="198.566" y2="102.743"/>
<g>
	<text transform="matrix(0.9428 0 0 1 348.9314 201.9009)" fill="#251E1C" font-family="'ArialMT'" font-size="14.6302">M</text>
</g>
<rect x="283.91" y="187.75" fill="none" stroke="#448F43" stroke-width="2" stroke-miterlimit="10" width="79.977" height="17.405"/>
<g>
	<text transform="matrix(0.9428 0 0 1 365.1863 202.3071)" fill="#C40018" font-family="'ArialMT'" font-size="14.6302">R</text>
</g>
<text transform="matrix(1 0 0 1 247.739 92.1753)" fill="#251E1C" font-family="'ArialMT'" font-size="12.1918">variable</text>
<g>
	<text transform="matrix(1 0 0 1 65.2683 173.4536)" fill="#CB5453" font-family="'ArialMT'" font-size="15.4429">P1</text>
</g>
<g>
	<text transform="matrix(1 0 0 1 177.0266 127.1245)" fill="#E0A733" font-family="'ArialMT'" font-size="15.4429">P1a</text>
</g>
<g>
	<text transform="matrix(1 0 0 1 283.0955 51.5356)" fill="#4F84C1" font-family="'ArialMT'" font-size="15.4429">PK</text>
</g>
<text transform="matrix(1 0 0 1 298.5388 220.188)" fill="#448F43" font-family="'ArialMT'" font-size="14.6302">RBS</text>
</svg>
