<svg id="图层_1" data-name="图层 1" xmlns="http://www.w3.org/2000/svg" viewBox="0 0 400 400"><defs><style>.cls-1,.cls-12,.cls-2,.cls-3,.cls-4,.cls-5,.cls-8{isolation:isolate;}.cls-1,.cls-12,.cls-2,.cls-4,.cls-5,.cls-8{font-size:12.65px;}.cls-1,.cls-15,.cls-2{fill:#ffaadc;}.cls-1,.cls-12,.cls-13,.cls-15,.cls-16,.cls-18,.cls-19,.cls-2,.cls-3,.cls-4,.cls-5,.cls-8{font-family:ArialMT, Arial;}.cls-12,.cls-2,.cls-5{letter-spacing:-0.06em;}.cls-3{font-size:10px;}.cls-4,.cls-5{fill:#09fefe;}.cls-10,.cls-6{fill:none;}.cls-10,.cls-11,.cls-6,.cls-7,.cls-9{stroke:#000;stroke-miterlimit:1.67;}.cls-6,.cls-7,.cls-9{stroke-width:0.21px;}.cls-12,.cls-16,.cls-8{fill:#0a0bff;}.cls-9{fill:#fff;}.cls-10{stroke-width:0.5px;}.cls-11{stroke-width:0.25px;}.cls-13{font-size:14px;}.cls-14{letter-spacing:-0.04em;}.cls-15,.cls-16,.cls-19{font-size:20px;}.cls-17{fill:#ff0b0c;}.cls-18{font-size:12px;}</style></defs><g id="ID000002"><text class="cls-1" transform="translate(159.16 385.84)">G</text></g><g id="ID000003"><text class="cls-1" transform="translate(159.16 373.41)">G</text></g><g id="ID000004"><text class="cls-1" transform="translate(159.16 361)">G</text></g><g id="ID000005"><text class="cls-2" transform="translate(159.86 348.57)">A</text></g><g id="ID000006"><text class="cls-2" transform="translate(159.86 336.15)">A</text></g><g id="ID000007"><text class="cls-1" transform="translate(159.51 323.73)">C</text></g><g id="ID000008"><text class="cls-1" transform="translate(159.51 311.31)">U</text></g><g id="ID000009"><text class="cls-1" transform="translate(159.16 298.89)">G</text></g><g id="ID000010"><text class="cls-2" transform="translate(159.86 286.47)">A</text></g><g id="ID000011"><text class="cls-1" transform="translate(149.85 280.26)">G</text></g><g id="ID000013"><text class="cls-3" transform="translate(146.44 336.15)">10</text></g><g id="ID000014"><text class="cls-4" transform="translate(184 270.95)">G</text></g><g id="ID000015"><text class="cls-5" transform="translate(184.7 286.47)">A</text></g><g id="ID000016"><text class="cls-1" transform="translate(184.36 298.89)">C</text></g><g id="ID000017"><text class="cls-2" transform="translate(184.7 311.31)">A</text></g><g id="ID000018"><text class="cls-1" transform="translate(184 323.73)">G</text></g><g id="ID000019"><text class="cls-1" transform="translate(184.36 336.15)">U</text></g><g id="ID000020"><text class="cls-1" transform="translate(184.36 348.57)">U</text></g><g id="ID000021"><text class="cls-1" transform="translate(184.36 361)">C</text></g><g id="ID000024"><text class="cls-1" transform="translate(184.36 373.41)">C</text></g><g id="ID000025"><text class="cls-1" transform="translate(184.36 385.84)">C</text></g><g id="ID000026"><text class="cls-2" transform="translate(184.7 398.26)">A</text></g><g id="ID000027"><line class="cls-6" x1="169.05" y1="380.25" x2="183.96" y2="380.25"/></g><g id="ID000028"><line class="cls-6" x1="168.53" y1="382.47" x2="184.48" y2="390.44"/></g><g id="ID000029"><polygon class="cls-7" points="178.72 387.57 178.79 387.42 178.85 387.28 178.89 387.13 178.93 386.97 178.96 386.82 178.98 386.66 178.99 386.5 178.98 386.35 178.97 386.19 178.95 386.03 178.92 385.88 178.88 385.73 178.83 385.58 178.77 385.43 178.7 385.29 178.62 385.15 178.53 385.02 178.44 384.89 178.33 384.78 178.22 384.66 178.11 384.56 177.98 384.46 177.85 384.37 177.72 384.29 177.58 384.22 177.43 384.15 177.29 384.1 177.13 384.05 176.98 384.02 176.82 383.99 176.67 383.98 176.51 383.97 176.35 383.98 176.2 383.99 176.04 384.01 175.89 384.05 175.74 384.09 175.59 384.15 175.44 384.21 175.3 384.28 175.17 384.36 175.04 384.45 174.91 384.55 174.79 384.65 174.68 384.76 174.58 384.88 174.48 385.01 174.4 385.14 174.32 385.27 174.25 385.42 174.19 385.56 174.13 385.71 174.09 385.86 174.06 386.01 174.03 386.17 174.02 386.33 174.02 386.49 174.03 386.64 174.04 386.8 174.07 386.95 174.11 387.11 174.15 387.26 174.21 387.41 174.27 387.55 174.35 387.69 174.43 387.82 174.52 387.95 174.62 388.07 174.73 388.19 174.84 388.3 174.96 388.4 175.09 388.5 175.22 388.58 175.36 388.66 175.5 388.73 175.64 388.79 175.79 388.84 175.95 388.88 176.1 388.91 176.26 388.93 176.41 388.94 176.57 388.94 176.73 388.93 176.89 388.91 177.04 388.88 177.19 388.84 177.34 388.79 177.49 388.73 177.63 388.67 177.77 388.59 177.9 388.51 178.03 388.41 178.15 388.31 178.27 388.2 178.37 388.09 178.47 387.97 178.56 387.84 178.65 387.7 178.72 387.57"/></g><g id="ID000030"><line class="cls-6" x1="169.05" y1="367.82" x2="183.96" y2="367.82"/></g><g id="ID000031"><line class="cls-6" x1="169.05" y1="355.4" x2="183.96" y2="355.4"/></g><g id="ID000032"><line class="cls-6" x1="169.05" y1="342.98" x2="183.96" y2="342.98"/></g><g id="ID000033"><line class="cls-6" x1="169.05" y1="330.56" x2="183.96" y2="330.56"/></g><g id="ID000034"><line class="cls-6" x1="169.05" y1="318.14" x2="183.96" y2="318.14"/></g><g id="ID000035"><line class="cls-6" x1="169.05" y1="305.72" x2="183.96" y2="305.72"/></g><g id="ID000036"><line class="cls-6" x1="169.05" y1="293.3" x2="183.96" y2="293.3"/></g><g id="ID000037"><line class="cls-6" x1="169.05" y1="280.88" x2="183.96" y2="280.88"/></g><g id="ID000038"><polygon class="cls-7" points="178.99 280.88 178.98 280.72 178.97 280.57 178.94 280.41 178.91 280.26 178.86 280.11 178.81 279.96 178.75 279.81 178.67 279.67 178.59 279.54 178.5 279.41 178.41 279.28 178.3 279.17 178.19 279.06 178.07 278.95 177.94 278.86 177.81 278.77 177.68 278.69 177.53 278.62 177.39 278.56 177.24 278.51 177.09 278.47 176.93 278.43 176.78 278.41 176.62 278.4 176.46 278.4 176.31 278.4 176.15 278.42 175.99 278.45 175.84 278.49 175.69 278.53 175.54 278.59 175.4 278.65 175.26 278.73 175.13 278.81 175 278.9 174.88 279 174.76 279.11 174.65 279.22 174.55 279.35 174.46 279.47 174.37 279.61 174.29 279.74 174.23 279.88 174.17 280.03 174.12 280.18 174.08 280.33 174.05 280.49 174.03 280.64 174.02 280.8 174.02 280.96 174.03 281.12 174.05 281.27 174.08 281.43 174.12 281.58 174.17 281.73 174.23 281.88 174.29 282.02 174.37 282.16 174.46 282.29 174.55 282.42 174.65 282.54 174.76 282.65 174.88 282.76 175 282.86 175.13 282.95 175.26 283.03 175.4 283.11 175.54 283.17 175.69 283.23 175.84 283.27 175.99 283.31 176.15 283.34 176.31 283.36 176.46 283.37 176.62 283.36 176.78 283.35 176.93 283.33 177.09 283.3 177.24 283.25 177.39 283.2 177.53 283.14 177.68 283.07 177.81 282.99 177.94 282.9 178.07 282.81 178.19 282.7 178.3 282.6 178.41 282.48 178.5 282.35 178.59 282.22 178.67 282.09 178.75 281.95 178.81 281.8 178.86 281.66 178.91 281.5 178.94 281.35 178.97 281.19 178.98 281.04 178.99 280.88"/></g><g id="ID000039"><line class="cls-6" x1="169.05" y1="265.36" x2="183.96" y2="265.36"/></g><g id="ID000040"><polygon class="cls-7" points="178.99 265.36 178.98 265.2 178.97 265.04 178.94 264.88 178.91 264.73 178.86 264.58 178.81 264.43 178.75 264.29 178.67 264.15 178.59 264.01 178.5 263.88 178.41 263.76 178.3 263.64 178.19 263.53 178.07 263.43 177.94 263.33 177.81 263.24 177.68 263.17 177.53 263.1 177.39 263.03 177.24 262.98 177.09 262.94 176.93 262.91 176.78 262.89 176.62 262.87 176.46 262.87 176.31 262.88 176.15 262.9 175.99 262.92 175.84 262.96 175.69 263.01 175.54 263.06 175.4 263.13 175.26 263.2 175.13 263.29 175 263.38 174.88 263.48 174.76 263.58 174.65 263.7 174.55 263.82 174.46 263.95 174.37 264.08 174.29 264.22 174.23 264.36 174.17 264.5 174.12 264.65 174.08 264.81 174.05 264.96 174.03 265.12 174.02 265.28 174.02 265.43 174.03 265.59 174.05 265.75 174.08 265.9 174.12 266.06 174.17 266.2 174.23 266.35 174.29 266.49 174.37 266.63 174.46 266.76 174.55 266.89 174.65 267.01 174.76 267.13 174.88 267.23 175 267.33 175.13 267.42 175.26 267.51 175.4 267.58 175.54 267.65 175.69 267.7 175.84 267.75 175.99 267.79 176.15 267.81 176.31 267.83 176.46 267.84 176.62 267.84 176.78 267.82 176.93 267.8 177.09 267.77 177.24 267.73 177.39 267.68 177.53 267.62 177.68 267.55 177.81 267.47 177.94 267.38 178.07 267.28 178.19 267.18 178.3 267.07 178.41 266.95 178.5 266.83 178.59 266.7 178.67 266.56 178.75 266.42 178.81 266.28 178.86 266.13 178.91 265.98 178.94 265.82 178.97 265.67 178.98 265.51 178.99 265.36"/></g><g id="ID000042"><text class="cls-1" transform="translate(159.51 270.95)">C</text></g><g id="ID000043"><text class="cls-2" transform="translate(159.86 258.53)">A</text></g><g id="ID000044"><text class="cls-1" transform="translate(159.16 202.63)">G</text></g><g id="ID000045"><text class="cls-1" transform="translate(159.16 190.21)">G</text></g><g id="ID000046"><text class="cls-1" transform="translate(159.51 177.79)">C</text></g><g id="ID000047"><text class="cls-2" transform="translate(159.86 165.37)">A</text></g><g id="ID000048"><text class="cls-1" transform="translate(134.68 152.95)">C</text></g><g id="ID000049"><text class="cls-2" transform="translate(135.02 165.37)">A</text></g><g id="ID000050"><text class="cls-1" transform="translate(134.32 177.79)">G</text></g><g id="ID000051"><text class="cls-1" transform="translate(134.68 190.21)">C</text></g><g id="ID000052"><text class="cls-8" transform="translate(134.68 202.63)">C</text></g><g id="ID000053"><text class="cls-8" transform="translate(134.32 215.05)">G</text></g><g id="ID000056"><line class="cls-6" x1="161.62" y1="248.62" x2="141.71" y2="213.78"/></g><g id="ID000057"><polygon class="cls-9" points="155.65 232.12 153.18 227.81 148.87 230.27 151.33 234.59 155.65 232.12"/></g><g id="ID000058"><polygon class="cls-9" points="146.47 221.88 146.44 227.47 151.29 224.7 146.47 221.88"/></g><g id="ID000059"><line class="cls-6" x1="159.11" y1="197.04" x2="144.21" y2="197.04"/></g><g id="ID000060"><line class="cls-6" x1="159.11" y1="184.62" x2="144.21" y2="184.62"/></g><g id="ID000061"><line class="cls-6" x1="159.11" y1="172.2" x2="144.21" y2="172.2"/></g><g id="ID000062"><line class="cls-10" x1="164.08" y1="154.81" x2="164.08" y2="105.75"/></g><g id="ID000063"><polygon class="cls-11" points="160.35 134.42 162.22 132.35 162.84 130.28 163.15 128.21 164.08 124.07 165.01 128.21 165.32 130.28 165.94 132.35 167.81 134.42 160.35 134.42"/></g><g id="ID000064"><polyline class="cls-6" points="134.27 135.02 108.19 135.43 108.19 172.2 134.27 172.2"/></g><g id="ID000065"><polygon class="cls-7" points="108.19 148.1 108.03 148.11 107.88 148.12 107.72 148.15 107.56 148.18 107.41 148.23 107.27 148.28 107.12 148.34 106.98 148.42 106.85 148.5 106.72 148.59 106.59 148.68 106.47 148.79 106.36 148.9 106.26 149.02 106.17 149.15 106.08 149.28 106 149.41 105.93 149.56 105.87 149.7 105.82 149.85 105.78 150 105.74 150.16 105.72 150.31 105.71 150.47 105.71 150.63 105.71 150.78 105.73 150.94 105.76 151.1 105.8 151.25 105.84 151.4 105.9 151.55 105.96 151.69 106.04 151.83 106.12 151.96 106.21 152.09 106.31 152.21 106.42 152.33 106.53 152.44 106.65 152.54 106.78 152.63 106.91 152.72 107.05 152.8 107.19 152.86 107.34 152.92 107.49 152.97 107.64 153.01 107.8 153.04 107.95 153.06 108.11 153.07 108.27 153.07 108.42 153.06 108.58 153.04 108.74 153.01 108.89 152.97 109.04 152.92 109.19 152.86 109.33 152.8 109.47 152.72 109.6 152.63 109.72 152.54 109.84 152.44 109.96 152.33 110.07 152.21 110.17 152.09 110.26 151.96 110.34 151.83 110.42 151.69 110.48 151.55 110.54 151.4 110.58 151.25 110.62 151.1 110.65 150.94 110.67 150.78 110.67 150.63 110.67 150.47 110.66 150.31 110.64 150.16 110.6 150 110.56 149.85 110.51 149.7 110.45 149.56 110.38 149.41 110.3 149.28 110.21 149.15 110.12 149.02 110.01 148.9 109.9 148.79 109.79 148.68 109.66 148.59 109.53 148.5 109.4 148.42 109.26 148.34 109.11 148.28 108.96 148.23 108.81 148.18 108.66 148.15 108.5 148.12 108.35 148.11 108.19 148.1"/></g><g id="ID000066"><polygon class="cls-7" points="110.67 159.53 110.67 154.56 105.7 154.56 105.7 159.53 110.67 159.53"/></g><g id="ID000068"><text class="cls-2" transform="translate(159.86 106.37)">A</text></g><g id="ID000069"><text class="cls-1" transform="translate(159.51 93.95)">U</text></g><g id="ID000070"><text class="cls-1" transform="translate(159.16 81.53)">G</text></g><g id="ID000071"><text class="cls-2" transform="translate(159.86 69.11)">A</text></g><g id="ID000074"><text class="cls-1" transform="translate(159.51 56.69)">C</text></g><g id="ID000075"><text class="cls-1" transform="translate(159.51 44.27)">C</text></g><g id="ID000076"><text class="cls-2" transform="translate(150.55 31.85)">A</text></g><g id="ID000077"><text class="cls-1" transform="translate(156.06 19.43)">G</text></g><g id="ID000078"><text class="cls-2" transform="translate(172.28 13.22)">A</text></g><g id="ID000079"><text class="cls-1" transform="translate(187.11 19.43)">G</text></g><g id="ID000080"><text class="cls-1" transform="translate(193.67 31.85)">C</text></g><g id="ID000081"><text class="cls-1" transform="translate(184 44.27)">G</text></g><g id="ID000082"><text class="cls-1" transform="translate(184 56.69)">G</text></g><g id="ID000083"><text class="cls-1" transform="translate(184.36 69.11)">U</text></g><g id="ID000086"><text class="cls-1" transform="translate(184.36 81.53)">C</text></g><g id="ID000087"><text class="cls-2" transform="translate(184.7 93.95)">A</text></g><g id="ID000088"><text class="cls-1" transform="translate(184.36 106.37)">U</text></g><g id="ID000089"><text class="cls-1" transform="translate(134.32 140.53)">G</text></g><g id="ID000090"><line class="cls-6" x1="169.05" y1="100.78" x2="183.96" y2="100.78"/></g><g id="ID000091"><line class="cls-6" x1="169.05" y1="88.36" x2="183.96" y2="88.36"/></g><g id="ID000092"><line class="cls-6" x1="169.05" y1="75.94" x2="183.96" y2="75.94"/></g><g id="ID000093"><line class="cls-6" x1="169.05" y1="63.52" x2="183.96" y2="63.52"/></g><g id="ID000094"><line class="cls-6" x1="169.05" y1="51.1" x2="183.96" y2="51.1"/></g><g id="ID000095"><line class="cls-6" x1="169.05" y1="38.68" x2="183.96" y2="38.68"/></g><g id="ID000097"><text class="cls-8" transform="translate(134.32 227.47)">G</text></g><g id="ID000098"><text class="cls-8" transform="translate(305.11 264.73)">G</text></g><g id="ID000099"><text class="cls-8" transform="translate(305.46 277.15)">C</text></g><g id="ID000100"><text class="cls-8" transform="translate(305.46 289.58)">U</text></g><g id="ID000101"><text class="cls-8" transform="translate(305.11 302)">G</text></g><g id="ID000102"><text class="cls-8" transform="translate(305.46 314.42)">C</text></g><g id="ID000103"><text class="cls-8" transform="translate(305.11 326.84)">G</text></g><g id="ID000104"><text class="cls-12" transform="translate(299.59 339.26)">A</text></g><g id="ID000105"><text class="cls-12" transform="translate(287.18 339.26)">A</text></g><g id="ID000106"><text class="cls-12" transform="translate(280.96 326.84)">A</text></g><g id="ID000109"><text class="cls-8" transform="translate(280.27 314.42)">G</text></g><g id="ID000110"><text class="cls-8" transform="translate(280.61 302)">C</text></g><g id="ID000111"><text class="cls-8" transform="translate(280.27 289.58)">G</text></g><g id="ID000112"><text class="cls-8" transform="translate(280.27 277.15)">G</text></g><g id="ID000113"><text class="cls-8" transform="translate(280.61 264.73)">C</text></g><g id="ID000114"><text class="cls-12" transform="translate(280.96 215.05)">A</text></g><g id="ID000115"><line class="cls-6" x1="305.06" y1="259.14" x2="290.15" y2="259.14"/></g><g id="ID000116"><line class="cls-6" x1="305.06" y1="271.57" x2="290.15" y2="271.57"/></g><g id="ID000117"><polygon class="cls-7" points="295.12 283.99 295.12 284.14 295.14 284.3 295.16 284.45 295.2 284.61 295.24 284.76 295.3 284.91 295.36 285.05 295.43 285.19 295.51 285.33 295.6 285.46 295.7 285.58 295.81 285.7 295.92 285.81 296.04 285.91 296.16 286.01 296.29 286.1 296.43 286.18 296.57 286.25 296.72 286.31 296.87 286.36 297.02 286.4 297.17 286.43 297.33 286.45 297.49 286.47 297.64 286.47 297.8 286.46 297.96 286.44 298.11 286.42 298.26 286.38 298.42 286.33 298.56 286.28 298.71 286.21 298.85 286.14 298.98 286.05 299.11 285.96 299.23 285.86 299.35 285.76 299.45 285.64 299.56 285.52 299.65 285.39 299.73 285.26 299.81 285.12 299.88 284.98 299.94 284.83 299.99 284.69 300.03 284.53 300.06 284.38 300.08 284.22 300.09 284.06 300.09 283.91 300.08 283.75 300.06 283.59 300.03 283.44 299.99 283.29 299.94 283.14 299.88 282.99 299.81 282.85 299.73 282.71 299.65 282.58 299.56 282.45 299.45 282.33 299.35 282.21 299.23 282.11 299.11 282.01 298.98 281.92 298.85 281.83 298.71 281.76 298.56 281.69 298.42 281.64 298.26 281.59 298.11 281.55 297.96 281.53 297.8 281.51 297.64 281.5 297.49 281.5 297.33 281.52 297.17 281.54 297.02 281.57 296.87 281.61 296.72 281.67 296.57 281.73 296.43 281.8 296.29 281.88 296.16 281.96 296.04 282.06 295.92 282.16 295.81 282.27 295.7 282.39 295.6 282.51 295.51 282.64 295.43 282.78 295.36 282.92 295.3 283.06 295.24 283.21 295.2 283.36 295.16 283.51 295.14 283.67 295.12 283.83 295.12 283.99"/></g><g id="ID000118"><line class="cls-6" x1="305.06" y1="296.41" x2="290.15" y2="296.41"/></g><g id="ID000119"><line class="cls-6" x1="305.06" y1="308.83" x2="290.15" y2="308.83"/></g><g id="ID000120"><line class="cls-6" x1="305.06" y1="321.25" x2="290.15" y2="321.25"/></g><g id="ID000121"><polygon class="cls-9" points="304.06 321.25 299.22 318.45 299.22 324.04 304.06 321.25"/></g><g id="ID000122"><polygon class="cls-9" points="291.89 323.73 296.86 323.73 296.86 318.76 291.89 318.76 291.89 323.73"/></g><g id="ID000123"><polyline class="cls-6" points="290.15 209.63 306.51 210.16 305.15 210.44"/></g><g id="ID000124"><polygon class="cls-9" points="292.54 212.19 297.5 212.35 297.67 207.39 292.7 207.22 292.54 212.19"/></g><g id="ID000125"><polygon class="cls-9" points="304.78 210.11 300.04 207.16 299.85 212.74 304.78 210.11"/></g><g id="ID000127"><text class="cls-12" transform="translate(280.96 202.63)">A</text></g><g id="ID000128"><text class="cls-8" transform="translate(280.61 190.21)">C</text></g><g id="ID000129"><text class="cls-12" transform="translate(280.96 177.79)">A</text></g><g id="ID000130"><text class="cls-8" transform="translate(280.27 165.37)">G</text></g><g id="ID000133"><text class="cls-12" transform="translate(280.96 152.95)">A</text></g><g id="ID000134"><text class="cls-8" transform="translate(280.61 140.53)">U</text></g><g id="ID000135"><text class="cls-8" transform="translate(280.27 128.11)">G</text></g><g id="ID000136"><text class="cls-12" transform="translate(271.65 115.69)">A</text></g><g id="ID000137"><text class="cls-8" transform="translate(265.09 103.27)">U</text></g><g id="ID000138"><text class="cls-12" transform="translate(273.2 75.94)">A</text></g><g id="ID000139"><text class="cls-8" transform="translate(285.18 69.26)">C</text></g><g id="ID000140"><text class="cls-12" transform="translate(299.85 69.11)">A</text></g><g id="ID000141"><text class="cls-8" transform="translate(313.57 76.09)">C</text></g><g id="ID000144"><text class="cls-8" transform="translate(319.68 89.75)">G</text></g><g id="ID000145"><text class="cls-8" transform="translate(319.05 103.27)">C</text></g><g id="ID000146"><text class="cls-12" transform="translate(315.12 115.69)">A</text></g><g id="ID000147"><text class="cls-4" transform="translate(305.46 128.11)">C</text></g><g id="ID000148"><text class="cls-5" transform="translate(305.81 140.53)">A</text></g><g id="ID000149"><text class="cls-4" transform="translate(305.46 152.95)">U</text></g><g id="ID000150"><text class="cls-4" transform="translate(305.46 165.37)">C</text></g><g id="ID000151"><text class="cls-4" transform="translate(305.46 177.79)">U</text></g><g id="ID000152"><text class="cls-4" transform="translate(305.11 190.21)">G</text></g><g id="ID000153"><text class="cls-4" transform="translate(305.46 202.63)">U</text></g><g id="ID000156"><text class="cls-4" transform="translate(305.11 215.05)">G</text></g><g id="ID000157"><text class="cls-4" transform="translate(184 258.53)">G</text></g><g id="ID000158"><line class="cls-6" x1="290.15" y1="197.04" x2="305.06" y2="197.04"/></g><g id="ID000159"><line class="cls-6" x1="290.15" y1="184.62" x2="305.06" y2="184.62"/></g><g id="ID000160"><line class="cls-6" x1="290.15" y1="172.2" x2="305.06" y2="172.2"/></g><g id="ID000161"><line class="cls-6" x1="290.15" y1="159.78" x2="305.06" y2="159.78"/></g><g id="ID000162"><line class="cls-6" x1="290.15" y1="147.36" x2="305.06" y2="147.36"/></g><g id="ID000163"><line class="cls-6" x1="290.15" y1="134.94" x2="305.06" y2="134.94"/></g><g id="ID000164"><line class="cls-6" x1="290.15" y1="122.52" x2="305.06" y2="122.52"/></g><g id="ID000166"><line class="cls-10" x1="164.08" y1="247.97" x2="164.08" y2="202.01"/></g><g id="ID000167"><polygon class="cls-7" points="160.35 229.13 162.22 227.06 162.84 224.99 163.15 222.92 164.08 218.78 165.01 222.92 165.32 224.99 165.94 227.06 167.81 229.13 160.35 229.13"/></g><g id="ID000168"><polyline class="cls-10" points="139.24 226.85 139.24 237.41 310.02 237.41 310.02 254.18"/></g><g id="ID000169"><polygon class="cls-7" points="220.49 233.68 222.56 235.55 224.63 236.17 226.7 236.48 230.84 237.41 226.7 238.34 224.63 238.65 222.56 239.27 220.49 241.13 220.49 233.68"/></g><g id="ID000170"><polyline class="cls-10" points="188.92 105.75 188.92 119.41 157.87 119.41 139.24 119.41 139.24 129.97"/></g><g id="ID000171"><polygon class="cls-11" points="177.54 123.14 175.47 121.28 173.4 120.66 171.33 120.34 167.19 119.41 171.33 118.48 173.4 118.17 175.47 117.55 177.54 115.69 177.54 123.14"/></g><g id="ID000172"><polyline class="cls-10" points="285.18 254.18 285.18 231.2 285.18 214.43"/></g><g id="ID000173"><polygon class="cls-7" points="281.46 250.86 283.32 248.79 283.94 246.72 284.25 244.65 285.18 240.51 286.11 244.65 286.42 246.72 287.05 248.79 288.91 250.86 281.46 250.86"/></g><g id="ID000174"><polyline class="cls-10" points="310.02 214.43 310.02 224.99 188.92 224.99 188.92 247.97"/></g><g id="ID000175"><polygon class="cls-7" points="253.61 228.71 251.54 226.85 249.47 226.23 247.4 225.92 243.26 224.99 247.4 224.06 249.47 223.75 251.54 223.12 253.61 221.26 253.61 228.71"/></g><g id="ID000013-2" data-name="ID000013"><text class="cls-3" transform="translate(121.23 213.78)">45</text></g><g id="ID000013-3" data-name="ID000013"><text class="cls-3" transform="translate(121.47 152.95)">40</text></g><g id="ID000013-4" data-name="ID000013"><text class="cls-3" transform="translate(169.55 22.94)">30</text></g><g id="ID000013-5" data-name="ID000013"><text class="cls-3" transform="translate(170.06 177.94)">20</text></g><g id="ID000013-6" data-name="ID000013"><text class="cls-3" transform="translate(195.56 299.04)">90</text></g><g id="ID000013-7" data-name="ID000013"><text class="cls-3" transform="translate(195.98 361)">95</text></g><g id="ID000013-8" data-name="ID000013"><text class="cls-3" transform="translate(249.94 103.27)">70</text></g><g id="ID000013-9" data-name="ID000013"><text class="cls-3" transform="translate(267.38 264.74)">60</text></g><g id="ID000137-2" data-name="ID000137"><text class="cls-8" transform="translate(263.14 89.6)">U</text></g><g id="ID000013-10" data-name="ID000013"><text class="cls-3" transform="translate(317.15 139.01)">80</text></g><g id="ID000013-11" data-name="ID000013"><text class="cls-3" transform="translate(317.56 202.01)">85</text></g><g id="ID000013-12" data-name="ID000013"><text class="cls-3" transform="translate(317.15 300.51)">50</text></g><g id="ID000013-13" data-name="ID000013"><text class="cls-3" transform="translate(324.81 74.56)">75</text></g><text class="cls-13" transform="translate(151.11 398.26)">5<tspan class="cls-14" x="7.79" y="0">’</tspan></text><text class="cls-13" transform="translate(195.98 398.26)">3<tspan class="cls-14" x="7.79" y="0">’</tspan></text><text class="cls-15" transform="translate(125.22 353.81)">P1</text><text class="cls-15" transform="translate(126.76 81.68)">P2</text><text class="cls-16" transform="translate(248.44 159.78)">P4</text><text class="cls-16" transform="translate(250.41 308.83)">P3</text><circle class="cls-17" cx="358.4" cy="310.14" r="4.42"/><rect class="cls-17" x="354.64" y="318.76" width="7.53" height="7.53"/><polygon class="cls-17" points="361.88 340.8 358.49 339.08 355.15 340.91 355.73 337.15 352.96 334.54 356.71 333.93 358.34 330.49 360.08 333.87 363.85 334.36 361.18 337.06 361.88 340.8"/><polygon class="cls-17" points="362.87 352.81 358.43 355.4 353.96 352.85 353.94 347.7 358.38 345.11 362.85 347.66 362.87 352.81"/><text class="cls-18" transform="translate(368.54 314.57)">C1</text><text class="cls-18" transform="translate(369.14 326.99)">C2</text><text class="cls-18" transform="translate(369.13 340.91)">C3</text><text class="cls-18" transform="translate(369.14 353.81)">C4</text><polygon class="cls-17" points="180.97 201.28 176.53 203.87 172.06 201.31 172.03 196.17 176.48 193.58 180.95 196.13 180.97 201.28"/><circle class="cls-17" cx="321.98" cy="259.95" r="4.42"/><circle class="cls-17" cx="200.4" cy="253.74" r="4.42"/><rect class="cls-17" x="124.51" y="218.78" width="7.53" height="7.53"/><circle class="cls-17" cx="116.78" cy="221.88" r="4.42"/><polygon class="cls-17" points="157.79 291.57 154.4 289.85 151.06 291.68 151.64 287.92 148.87 285.31 152.62 284.7 154.25 281.26 155.99 284.64 159.76 285.13 157.09 287.83 157.79 291.57"/><polygon class="cls-17" points="120.26 215.09 116.86 213.38 113.52 215.2 114.1 211.44 111.33 208.84 115.09 208.22 116.71 204.78 118.45 208.16 122.23 208.65 119.55 211.35 120.26 215.09"/><rect class="cls-17" x="206.66" y="249.97" width="7.53" height="7.53"/><rect class="cls-17" x="197.3" y="262.87" width="7.53" height="7.53"/><text class="cls-19" transform="translate(2.87 19.58)">NiCo riboswitch</text></svg>