<svg id="_图层_1" data-name=" 图层 1" xmlns="http://www.w3.org/2000/svg" viewBox="0 0 400 400"><defs><style>.cls-1{fill:#e0ebc8;}.cls-18,.cls-2,.cls-22,.cls-27,.cls-28{fill:none;stroke:#000;}.cls-18,.cls-2,.cls-22,.cls-28{stroke-miterlimit:10;}.cls-2{stroke-width:0.62px;}.cls-10,.cls-11,.cls-12,.cls-13,.cls-14,.cls-16,.cls-17,.cls-23,.cls-24,.cls-25,.cls-26,.cls-29,.cls-3,.cls-30,.cls-31,.cls-32,.cls-33,.cls-34,.cls-35,.cls-36,.cls-4,.cls-5,.cls-6,.cls-7,.cls-8,.cls-9{isolation:isolate;}.cls-10,.cls-11,.cls-12,.cls-13,.cls-14,.cls-16,.cls-17,.cls-23,.cls-25,.cls-30,.cls-35,.cls-4,.cls-5,.cls-6,.cls-7,.cls-8,.cls-9{font-size:12.5px;}.cls-19,.cls-35,.cls-4,.cls-5,.cls-6{fill:#877e8b;}.cls-10,.cls-11,.cls-12,.cls-13,.cls-14,.cls-16,.cls-17,.cls-23,.cls-25,.cls-29,.cls-30,.cls-31,.cls-32,.cls-33,.cls-34,.cls-35,.cls-4,.cls-5,.cls-6,.cls-7,.cls-8,.cls-9{font-family:Arial-BoldMT, Arial;font-weight:700;}.cls-11,.cls-16,.cls-5{letter-spacing:-0.02em;}.cls-6{letter-spacing:0.97em;}.cls-10,.cls-11,.cls-13,.cls-14,.cls-17,.cls-20,.cls-7,.cls-8{fill:#d3090f;}.cls-7{letter-spacing:0.29em;}.cls-12,.cls-8{letter-spacing:-0.04em;}.cls-13{letter-spacing:0.28em;}.cls-14{letter-spacing:0.26em;}.cls-15{fill:#fadde0;}.cls-17{letter-spacing:0.19em;}.cls-18{stroke-width:0.31px;}.cls-21{fill:#fff;}.cls-22{stroke-width:0.86px;}.cls-23{fill:#d42917;}.cls-24,.cls-26,.cls-29,.cls-31{font-size:13.17px;}.cls-24,.cls-26,.cls-36{font-family:ArialMT, Arial;}.cls-25{fill:#89808d;}.cls-26,.cls-31{fill:#202020;}.cls-27,.cls-28{stroke-width:0.43px;}.cls-30{letter-spacing:-0.05em;}.cls-32,.cls-33,.cls-34{font-size:15px;}.cls-32{letter-spacing:-0.01em;}.cls-34{letter-spacing:0.01em;}.cls-35{letter-spacing:0.88em;}.cls-36{font-size:20px;}</style></defs><rect class="cls-1" x="222.15" y="209.18" width="29.46" height="9.73"/><line class="cls-2" x1="233.63" y1="214.06" x2="240.12" y2="214.06"/><rect class="cls-1" x="222.15" y="196.59" width="29.46" height="9.73"/><line class="cls-2" x1="233.63" y1="201.45" x2="240.12" y2="201.45"/><rect class="cls-1" x="222.15" y="183.99" width="29.46" height="9.72"/><line class="cls-2" x1="233.63" y1="188.85" x2="240.12" y2="188.85"/><rect class="cls-1" x="146.47" y="288.35" width="30.21" height="8.98"/><line class="cls-2" x1="158.33" y1="292.82" x2="164.82" y2="292.82"/><rect class="cls-1" x="146.47" y="300.94" width="30.21" height="8.98"/><line class="cls-2" x1="158.33" y1="305.43" x2="164.82" y2="305.43"/><rect class="cls-1" x="146.47" y="326.15" width="30.21" height="8.98"/><line class="cls-2" x1="158.33" y1="330.63" x2="164.82" y2="330.63"/><line class="cls-2" x1="233.63" y1="272.01" x2="240.12" y2="272.01"/><rect class="cls-1" x="221.76" y="254.93" width="30.2" height="8.98"/><line class="cls-2" x1="233.63" y1="259.42" x2="240.12" y2="259.42"/><g class="cls-3"><text class="cls-4" transform="translate(146.9 297.31)">R</text></g><g class="cls-3"><text class="cls-5" transform="translate(147.24 309.91)">Y</text></g><g class="cls-3"><text class="cls-6" transform="translate(146.9 335.13)">Y</text><text class="cls-4" transform="translate(167.65 335.13)">R</text></g><g class="cls-3"><text class="cls-5" transform="translate(167.71 297.31)">Y</text></g><g class="cls-3"><text class="cls-4" transform="translate(167.36 309.91)">R</text></g><g class="cls-3"><text class="cls-4" transform="translate(175.87 285.43)">U</text></g><g class="cls-3"><text class="cls-7" transform="translate(200.86 285.43)">C</text><text class="cls-8" transform="translate(213.49 285.43)">A</text></g><g class="cls-3"><text class="cls-9" transform="translate(222.11 263.9)">C</text></g><g class="cls-3"><text class="cls-10" transform="translate(222.11 276.51)">C</text></g><g class="cls-3"><text class="cls-4" transform="translate(221.76 218.46)">G</text></g><g class="cls-3"><text class="cls-9" transform="translate(222.11 205.85)">G</text></g><g class="cls-3"><text class="cls-4" transform="translate(222.47 193.26)">G</text></g><g class="cls-3"><text class="cls-8" transform="translate(214.29 183.63)">A</text></g><g class="cls-3"><text class="cls-8" transform="translate(251.76 171.04)">A</text></g><g class="cls-3"><text class="cls-4" transform="translate(242.22 193.26)">C</text></g><g class="cls-3"><text class="cls-9" transform="translate(242.92 205.85)">C</text></g><g class="cls-3"><text class="cls-8" transform="translate(220.72 160.62)">A</text></g><g class="cls-3"><text class="cls-8" transform="translate(232.7 156.6)">A</text></g><g class="cls-3"><text class="cls-8" transform="translate(244.67 160.62)">A</text></g><g class="cls-3"><text class="cls-11" transform="translate(242.57 218.46)">Y</text></g><g class="cls-3"><text class="cls-10" transform="translate(242.22 263.9)">G</text></g><g class="cls-3"><text class="cls-4" transform="translate(242.22 276.51)">G</text></g><rect class="cls-1" x="108.08" y="254.62" width="30.21" height="8.98"/><line class="cls-2" x1="119.94" y1="259.1" x2="126.44" y2="259.1"/><rect class="cls-1" x="108.08" y="242.01" width="30.21" height="8.98"/><line class="cls-2" x1="119.94" y1="246.51" x2="126.44" y2="246.51"/><rect class="cls-1" x="108.08" y="229.4" width="30.21" height="8.98"/><line class="cls-2" x1="119.94" y1="233.9" x2="126.44" y2="233.9"/><rect class="cls-1" x="108.08" y="216.82" width="30.21" height="8.98"/><g class="cls-3"><text class="cls-12" transform="translate(276.39 285.43)">A</text></g><g class="cls-3"><text class="cls-13" transform="translate(288.33 285.43)">R</text><text class="cls-14" transform="translate(300.92 285.43)">G</text><text class="cls-13" transform="translate(313.87 285.43)">U</text><text class="cls-11" transform="translate(326.46 285.43)">Y</text></g><g class="cls-3"><text class="cls-4" transform="translate(339.21 285.43)">C</text></g><g class="cls-3"><text class="cls-11" transform="translate(352.21 285.43)">Y</text></g><line class="cls-2" x1="119.94" y1="221.29" x2="126.44" y2="221.29"/><rect class="cls-15" x="108.08" y="118.17" width="30.21" height="8.98"/><line class="cls-2" x1="119.94" y1="122.65" x2="126.44" y2="122.65"/><rect class="cls-1" x="108.08" y="95.18" width="30.21" height="8.98"/><line class="cls-2" x1="119.94" y1="99.67" x2="126.44" y2="99.67"/><rect class="cls-1" x="108.08" y="82.58" width="30.21" height="8.98"/><line class="cls-2" x1="119.94" y1="87.07" x2="126.44" y2="87.07"/><rect class="cls-1" x="108.08" y="69.98" width="30.21" height="8.98"/><line class="cls-2" x1="119.94" y1="74.46" x2="126.44" y2="74.46"/><g class="cls-3"><text class="cls-16" transform="translate(108.77 225.79)">Y</text></g><g class="cls-3"><text class="cls-9" transform="translate(108.42 238.38)">R</text></g><g class="cls-3"><text class="cls-11" transform="translate(108.77 250.99)">Y</text></g><g class="cls-3"><text class="cls-4" transform="translate(108.07 263.6)">G</text></g><g class="cls-3"><text class="cls-10" transform="translate(108.42 127.13)">C</text></g><g class="cls-3"><text class="cls-10" transform="translate(48.6 285.41)">R</text></g><g class="cls-3"><text class="cls-4" transform="translate(61.59 285.43)">G</text></g><g class="cls-3"><text class="cls-7" transform="translate(74.56 285.43)">R</text><text class="cls-17" transform="translate(87.16 285.43)">A</text><text class="cls-10" transform="translate(99.06 285.43)">G</text></g><g class="cls-3"><text class="cls-9" transform="translate(102.9 115.66)">G</text></g><path d="M117.23,99.67A4.27,4.27,0,1,1,113,95.4a4.27,4.27,0,0,1,4.27,4.27"/><path class="cls-18" d="M117.23,99.67A4.27,4.27,0,1,1,113,95.4,4.27,4.27,0,0,1,117.23,99.67Z"/><path d="M117.23,87.07A4.27,4.27,0,1,1,113,82.81a4.26,4.26,0,0,1,4.27,4.26"/><path class="cls-18" d="M117.23,87.07A4.27,4.27,0,1,1,113,82.81,4.26,4.26,0,0,1,117.23,87.07Z"/><path class="cls-19" d="M117.23,74.46A4.27,4.27,0,1,1,113,70.19a4.26,4.26,0,0,1,4.27,4.27"/><path class="cls-18" d="M117.23,74.46A4.27,4.27,0,1,1,113,70.19,4.26,4.26,0,0,1,117.23,74.46Z"/><path class="cls-19" d="M137.68,74.46a4.27,4.27,0,1,1-4.26-4.27,4.26,4.26,0,0,1,4.26,4.27"/><path class="cls-18" d="M137.68,74.46a4.27,4.27,0,1,1-4.26-4.27A4.26,4.26,0,0,1,137.68,74.46Z"/><path d="M137.68,87.07a4.27,4.27,0,1,1-4.26-4.26,4.26,4.26,0,0,1,4.26,4.26"/><path class="cls-18" d="M137.68,87.07a4.27,4.27,0,1,1-4.26-4.26A4.26,4.26,0,0,1,137.68,87.07Z"/><path d="M137.68,99.67a4.27,4.27,0,1,1-4.26-4.27,4.27,4.27,0,0,1,4.26,4.27"/><path class="cls-18" d="M137.68,99.67a4.27,4.27,0,1,1-4.26-4.27A4.27,4.27,0,0,1,137.68,99.67Z"/><g class="cls-3"><text class="cls-9" transform="translate(140.71 103.1)">G</text></g><path d="M159.88,104.86a4.28,4.28,0,1,1-4.28-4.26,4.27,4.27,0,0,1,4.28,4.26"/><path class="cls-18" d="M159.88,104.86a4.28,4.28,0,1,1-4.28-4.26A4.27,4.27,0,0,1,159.88,104.86Z"/><g class="cls-3"><text class="cls-10" transform="translate(128.53 127.13)">G</text></g><g class="cls-3"><text class="cls-4" transform="translate(141.06 128.34)">U</text></g><g class="cls-3"><text class="cls-4" transform="translate(151.42 121.94)">C</text></g><g class="cls-3"><text class="cls-9" transform="translate(34.72 285.1)">5´</text></g><g class="cls-3"><text class="cls-9" transform="translate(138.29 285.41)">R</text></g><rect class="cls-1" x="146.85" y="338.37" width="29.46" height="9.73"/><g class="cls-3"><text class="cls-9" transform="translate(128.89 225.79)">R</text></g><g class="cls-3"><text class="cls-16" transform="translate(129.22 238.38)">Y</text></g><g class="cls-3"><text class="cls-10" transform="translate(128.89 250.99)">R</text></g><g class="cls-3"><text class="cls-4" transform="translate(128.89 263.59)">C</text></g><g class="cls-3"><text class="cls-4" transform="translate(128.89 276.19)">R</text></g><line class="cls-2" x1="158.33" y1="343.24" x2="164.82" y2="343.24"/><path class="cls-19" d="M151.34,347.5a4.27,4.27,0,1,0-4.27-4.26,4.27,4.27,0,0,0,4.27,4.26"/><path class="cls-18" d="M151.34,347.5a4.27,4.27,0,1,0-4.27-4.26A4.27,4.27,0,0,0,151.34,347.5Z"/><path class="cls-19" d="M171.81,347.5a4.27,4.27,0,1,0-4.28-4.26,4.27,4.27,0,0,0,4.28,4.26"/><rect class="cls-1" x="146.85" y="313.16" width="29.46" height="9.73"/><line class="cls-2" x1="158.33" y1="318.03" x2="164.82" y2="318.03"/><path class="cls-20" d="M151.34,322.29a4.27,4.27,0,1,0-4.27-4.26,4.27,4.27,0,0,0,4.27,4.26"/><path class="cls-18" d="M151.34,322.29a4.27,4.27,0,1,0-4.27-4.26A4.27,4.27,0,0,0,151.34,322.29Z"/><path class="cls-20" d="M171.81,322.29a4.27,4.27,0,1,0-4.28-4.26,4.27,4.27,0,0,0,4.28,4.26"/><path class="cls-18" d="M171.81,322.29a4.27,4.27,0,1,0-4.28-4.26A4.27,4.27,0,0,0,171.81,322.29Z"/><g class="cls-3"><text class="cls-8" transform="translate(188.18 285.43)">A</text></g><path class="cls-20" d="M222.17,167.73a4.28,4.28,0,1,1-4.27-4.27,4.27,4.27,0,0,1,4.27,4.27"/><path class="cls-18" d="M222.17,167.73a4.28,4.28,0,1,1-4.27-4.27A4.27,4.27,0,0,1,222.17,167.73Z"/><g class="cls-3"><text class="cls-4" transform="translate(251 184.38)">G</text></g><path class="cls-21" d="M219.6,219.31a4.27,4.27,0,1,1-4.28,4.27,4.27,4.27,0,0,1,4.28-4.27"/><path class="cls-18" d="M219.6,219.31a4.27,4.27,0,1,1-4.28,4.27A4.27,4.27,0,0,1,219.6,219.31Z"/><path d="M259.71,214a4.27,4.27,0,1,1-4.28,4.26,4.27,4.27,0,0,1,4.28-4.26"/><path class="cls-18" d="M259,214a4.27,4.27,0,1,1-4.27,4.26A4.27,4.27,0,0,1,259,214Z"/><g class="cls-3"><text class="cls-4" transform="translate(254.47 246.07)">G</text></g><path class="cls-21" d="M256.25,276.51a4.27,4.27,0,1,1-4.28,4.27,4.28,4.28,0,0,1,4.28-4.27"/><path class="cls-18" d="M256.25,276.51a4.27,4.27,0,1,1-4.28,4.27A4.28,4.28,0,0,1,256.25,276.51Z"/><path class="cls-20" d="M268.89,276.51a4.27,4.27,0,1,1-4.27,4.27,4.29,4.29,0,0,1,4.27-4.27"/><path class="cls-18" d="M268.89,276.51a4.27,4.27,0,1,1-4.27,4.27A4.29,4.29,0,0,1,268.89,276.51Z"/><rect class="cls-15" x="107.73" y="204.73" width="30.21" height="8.98"/><line class="cls-2" x1="119.58" y1="209.21" x2="126.08" y2="209.21"/><rect class="cls-15" x="107.73" y="129.63" width="30.21" height="8.98"/><line class="cls-2" x1="119.58" y1="134.11" x2="126.08" y2="134.11"/><g class="cls-3"><text class="cls-10" transform="translate(97.65 209.21)">U</text></g><g class="cls-3"><text class="cls-10" transform="translate(108.08 213.71)">C</text></g><g class="cls-3"><text class="cls-8" transform="translate(88.88 198.95)">A</text></g><g class="cls-3"><text class="cls-10" transform="translate(81.82 187.93)">G</text></g><g class="cls-3"><text class="cls-10" transform="translate(79.31 175.98)">G</text></g><g class="cls-3"><text class="cls-10" transform="translate(81.82 162.96)">G</text></g><path class="cls-20" d="M148.34,138.6a4.28,4.28,0,1,1-4.27-4.27,4.27,4.27,0,0,1,4.27,4.27"/><path class="cls-18" d="M148.34,138.6a4.28,4.28,0,1,1-4.27-4.27A4.27,4.27,0,0,1,148.34,138.6Z"/><g class="cls-3"><text class="cls-10" transform="translate(158.2 175.99)">R</text></g><g class="cls-3"><text class="cls-8" transform="translate(154.18 187.95)">A</text></g><g class="cls-3"><text class="cls-10" transform="translate(148.35 198.96)">G</text></g><g class="cls-3"><text class="cls-10" transform="translate(128.19 213.73)">G</text></g><g class="cls-3"><text class="cls-11" transform="translate(139.79 209.24)">Y</text></g><path class="cls-22" d="M111.3,67.72V53.78a19,19,0,1,1,23.07,0V67.72"/><g class="cls-3"><text class="cls-4" transform="translate(88.88 152.49)">U</text></g><g class="cls-3"><text class="cls-10" transform="translate(97.65 144.47)">U</text></g><g class="cls-3"><text class="cls-10" transform="translate(108.08 138.59)">C</text></g><g class="cls-3"><text class="cls-9" transform="translate(128.19 138.59)">G</text></g><g class="cls-3"><text class="cls-10" transform="translate(149.18 152.5)">C</text></g><g class="cls-3"><text class="cls-10" transform="translate(154.88 162.56)">C</text></g><line class="cls-2" x1="119.17" y1="60.98" x2="126.49" y2="60.98"/><path class="cls-22" d="M173.11,350.53v13.93a18.95,18.95,0,1,1-23.07,0V350.53"/><line class="cls-2" x1="165.24" y1="357.28" x2="157.9" y2="357.28"/><g class="cls-3"><text class="cls-23" transform="translate(172.45 59.91)">N</text></g><g class="cls-3"><text class="cls-24" transform="translate(188.23 59.91) scale(0.95 1)">97%</text></g><g class="cls-3"><text class="cls-25" transform="translate(228.51 59.91)">N</text></g><g class="cls-3"><text class="cls-24" transform="translate(243.51 59.91) scale(0.95 1)">75%</text></g><g class="cls-3"><text class="cls-26" transform="translate(311.58 43.25) scale(0.95 1)">covariation</text></g><g class="cls-3"><text class="cls-9" transform="translate(172.43 75.1)">N</text></g><g class="cls-3"><text class="cls-24" transform="translate(188.23 75.1) scale(0.95 1)">90%</text></g><g class="cls-3"><text class="cls-24" transform="translate(188.23 119.46) scale(0.95 1)">90%</text></g><g class="cls-3"><text class="cls-24" transform="translate(188.23 105.02) scale(0.95 1)">97%</text></g><g class="cls-3"><text class="cls-24" transform="translate(243.51 105.02) scale(0.95 1)">75%</text></g><g class="cls-3"><text class="cls-24" transform="translate(243.51 119.46) scale(0.95 1)">50%</text></g><g class="cls-3"><text class="cls-26" transform="translate(170.88 44.37) scale(0.95 1)">Nucleotide identity</text></g><g class="cls-3"><text class="cls-26" transform="translate(169.67 90) scale(0.95 1)">Nucleotide present</text></g><rect class="cls-27" x="166.21" y="30.85" width="226.32" height="95.76"/><line class="cls-28" x1="315.08" y1="75.36" x2="318.04" y2="64.14"/><line class="cls-28" x1="373.77" y1="75.6" x2="376.74" y2="64.38"/><path class="cls-22" d="M331.77,113h-14a18.9,18.9,0,1,1,0-23h14"/><line class="cls-2" x1="325.01" y1="105.19" x2="325.01" y2="97.88"/><g class="cls-3"><text class="cls-26" transform="translate(338.91 90.71) scale(0.95 1)">variable</text></g><g class="cls-3"><text class="cls-26" transform="translate(344.49 105.35) scale(0.95 1)">length</text></g><g class="cls-3"><text class="cls-26" transform="translate(342.49 119.96) scale(0.95 1)">hairpin</text></g><g class="cls-3"><text class="cls-26" transform="translate(311.58 58.25) scale(0.95 1)">no covariation</text></g><rect class="cls-1" x="279.3" y="35.27" width="30.21" height="8.98"/><rect class="cls-15" x="279.3" y="50.29" width="30.21" height="8.98"/><path class="cls-20" d="M177,96a4.27,4.27,0,1,1-4.28,4.26A4.27,4.27,0,0,1,177,96"/><g class="cls-3"><text class="cls-9" transform="translate(279.43 74.69)">R</text></g><g class="cls-3"><text class="cls-29" transform="translate(292.83 74.68) scale(0.95 1)">=</text></g><g class="cls-3"><text class="cls-12" transform="translate(300.86 74.69)"><tspan xml:space="preserve"> A</tspan></text><text class="cls-30" transform="translate(313.36 74.69)"> </text><text class="cls-9" transform="translate(316.17 74.69)"><tspan xml:space="preserve"> G</tspan></text></g><g class="cls-3"><text class="cls-16" transform="translate(338.54 74.69)">Y</text></g><g class="cls-3"><text class="cls-31" transform="translate(351.18 74.68) scale(0.95 1)">=</text></g><g class="cls-3"><text class="cls-9" transform="translate(359.58 74.6)"><tspan xml:space="preserve"> C</tspan></text><text class="cls-9" transform="translate(372.08 74.6)"> </text><text class="cls-9" transform="translate(375.65 74.6)"><tspan xml:space="preserve"> U</tspan></text></g><path class="cls-18" d="M177,96a4.27,4.27,0,1,1-4.28,4.26A4.27,4.27,0,0,1,177,96Z"/><path d="M177,110a4.27,4.27,0,1,1-4.28,4.27A4.27,4.27,0,0,1,177,110"/><path class="cls-18" d="M177,110a4.27,4.27,0,1,1-4.28,4.27A4.27,4.27,0,0,1,177,110Z"/><path class="cls-19" d="M233,96a4.27,4.27,0,1,1-4.28,4.26A4.27,4.27,0,0,1,233,96"/><path class="cls-18" d="M233,96a4.27,4.27,0,1,1-4.28,4.26A4.27,4.27,0,0,1,233,96Z"/><path class="cls-21" d="M233,110a4.27,4.27,0,1,1-4.28,4.27A4.27,4.27,0,0,1,233,110"/><path class="cls-18" d="M233,110a4.27,4.27,0,1,1-4.28,4.27A4.27,4.27,0,0,1,233,110Z"/><g class="cls-3"><text class="cls-32" transform="translate(84.4 244.76)">P</text><text class="cls-33" transform="translate(94.57 244.76)">1</text></g><g class="cls-3"><text class="cls-34" transform="translate(75.88 92.1)">P1</text><text class="cls-33" transform="translate(94.56 92.1)">a</text></g><g class="cls-3"><text class="cls-32" transform="translate(119.71 324.28)">P</text><text class="cls-33" transform="translate(129.88 324.28)">2</text></g><g class="cls-3"><text class="cls-32" transform="translate(197.01 206.53)">P</text><text class="cls-33" transform="translate(207.18 206.53)">3</text></g><rect class="cls-1" x="108.45" y="266.85" width="29.46" height="9.72"/><line class="cls-2" x1="119.94" y1="271.71" x2="126.44" y2="271.71"/><path class="cls-20" d="M113,276a4.27,4.27,0,1,0-4.27-4.27A4.27,4.27,0,0,0,113,276"/><path class="cls-18" d="M113,276a4.27,4.27,0,1,0-4.27-4.27A4.27,4.27,0,0,0,113,276Z"/><path class="cls-20" d="M133.41,276a4.27,4.27,0,1,0-4.27-4.27,4.27,4.27,0,0,0,4.27,4.27"/><path class="cls-18" d="M133.41,276a4.27,4.27,0,1,0-4.27-4.27A4.27,4.27,0,0,0,133.41,276Z"/><rect class="cls-1" x="108.45" y="94.79" width="29.46" height="9.73"/><line class="cls-2" x1="119.94" y1="99.67" x2="126.44" y2="99.67"/><path class="cls-20" d="M113,103.93a4.27,4.27,0,1,0-4.27-4.26,4.27,4.27,0,0,0,4.27,4.26"/><path class="cls-18" d="M113,103.93a4.27,4.27,0,1,0-4.27-4.26A4.27,4.27,0,0,0,113,103.93Z"/><path class="cls-20" d="M133.41,103.93a4.27,4.27,0,1,0-4.27-4.26,4.28,4.28,0,0,0,4.27,4.26"/><path class="cls-18" d="M133.41,103.93a4.27,4.27,0,1,0-4.27-4.26A4.28,4.28,0,0,0,133.41,103.93Z"/><rect class="cls-1" x="108.45" y="82.19" width="29.46" height="9.73"/><line class="cls-2" x1="119.94" y1="87.07" x2="126.44" y2="87.07"/><path class="cls-20" d="M113,91.33a4.27,4.27,0,1,0-4.27-4.27A4.27,4.27,0,0,0,113,91.33"/><path class="cls-18" d="M113,91.33a4.27,4.27,0,1,0-4.27-4.27A4.27,4.27,0,0,0,113,91.33Z"/><path class="cls-20" d="M133.41,91.33a4.27,4.27,0,1,0-4.27-4.27,4.27,4.27,0,0,0,4.27,4.27"/><path class="cls-18" d="M133.41,91.33a4.27,4.27,0,1,0-4.27-4.27A4.27,4.27,0,0,0,133.41,91.33Z"/><rect class="cls-1" x="146.85" y="300.56" width="29.46" height="9.73"/><line class="cls-2" x1="158.33" y1="305.43" x2="164.82" y2="305.43"/><path class="cls-20" d="M151.34,309.69a4.27,4.27,0,1,0-4.27-4.26,4.27,4.27,0,0,0,4.27,4.26"/><path class="cls-18" d="M151.34,309.69a4.27,4.27,0,1,0-4.27-4.26A4.27,4.27,0,0,0,151.34,309.69Z"/><path class="cls-20" d="M171.81,309.69a4.27,4.27,0,1,0-4.28-4.26,4.27,4.27,0,0,0,4.28,4.26"/><path class="cls-18" d="M171.81,309.69a4.27,4.27,0,1,0-4.28-4.26A4.27,4.27,0,0,0,171.81,309.69Z"/><rect class="cls-1" x="146.85" y="325.76" width="29.46" height="9.73"/><line class="cls-2" x1="158.33" y1="330.63" x2="164.82" y2="330.63"/><path class="cls-20" d="M151.34,334.9a4.27,4.27,0,1,0-4.27-4.27,4.28,4.28,0,0,0,4.27,4.27"/><path class="cls-18" d="M151.34,334.9a4.27,4.27,0,1,0-4.27-4.27A4.28,4.28,0,0,0,151.34,334.9Z"/><path class="cls-20" d="M171.81,334.9a4.27,4.27,0,1,0-4.28-4.27,4.27,4.27,0,0,0,4.28,4.27"/><path class="cls-18" d="M171.81,334.9a4.27,4.27,0,1,0-4.28-4.27A4.27,4.27,0,0,0,171.81,334.9Z"/><rect class="cls-1" x="222.33" y="241.96" width="29.46" height="9.73"/><line class="cls-2" x1="233.81" y1="246.82" x2="240.31" y2="246.82"/><g class="cls-3"><text class="cls-35" transform="translate(221.96 251.23)">G</text><text class="cls-4" transform="translate(242.71 251.23)">C</text></g><g class="cls-3"><text class="cls-4" transform="translate(215.33 240.43)">U</text></g><path class="cls-20" d="M267.54,229.24a4.28,4.28,0,1,1-4.27-4.26,4.27,4.27,0,0,1,4.27,4.26"/><path class="cls-18" d="M267.54,229.24a4.28,4.28,0,1,1-4.27-4.26A4.27,4.27,0,0,1,267.54,229.24Z"/><text class="cls-36" transform="translate(3.19 16.86)">ppGpp Riboswitch</text></svg>