<svg id="图层_1" data-name="图层 1" xmlns="http://www.w3.org/2000/svg" viewBox="0 0 400 400"><defs><style>.cls-1{fill:#ff0b0c;}.cls-12,.cls-13,.cls-14,.cls-2,.cls-3,.cls-4,.cls-5,.cls-6,.cls-7,.cls-8{isolation:isolate;font-size:24.42px;}.cls-2,.cls-20,.cls-3{fill:#c2c2ff;}.cls-12,.cls-13,.cls-14,.cls-18,.cls-2,.cls-20,.cls-21,.cls-22,.cls-23,.cls-24,.cls-3,.cls-4,.cls-5,.cls-6,.cls-7,.cls-8{font-family:ArialMT, Arial;}.cls-13,.cls-2,.cls-6{letter-spacing:-0.06em;}.cls-22,.cls-4{fill:#09fefe;}.cls-23,.cls-5,.cls-6{fill:#80db9e;}.cls-21,.cls-7,.cls-8{fill:#ff870a;}.cls-14,.cls-7{letter-spacing:-0.06em;}.cls-15,.cls-17,.cls-25,.cls-27,.cls-28,.cls-9{fill:none;}.cls-10,.cls-11,.cls-15,.cls-16,.cls-17,.cls-9{stroke:#000;}.cls-10,.cls-11,.cls-15,.cls-16,.cls-17,.cls-25,.cls-26,.cls-27,.cls-28,.cls-9{stroke-miterlimit:1.14;}.cls-10,.cls-11,.cls-25,.cls-26,.cls-9{stroke-width:0.14px;}.cls-10,.cls-26{fill:#fff;}.cls-12,.cls-13,.cls-14,.cls-24{fill:#ffaadc;}.cls-15{stroke-width:1.5px;}.cls-16{stroke-width:0.14px;}.cls-18{font-size:18px;}.cls-19{letter-spacing:-0.04em;}.cls-20,.cls-21,.cls-22,.cls-23,.cls-24{font-size:20px;}.cls-25,.cls-26,.cls-27,.cls-28{stroke:#ff0b0c;}.cls-27,.cls-28{stroke-width:0.14px;}.cls-28{stroke-dasharray:1.98 1.98;}</style></defs><rect class="cls-1" x="152.58" y="170.61" width="48.2" height="22.33"/><g id="ID000002"><text class="cls-2" transform="translate(191.86 324.92)">A</text></g><g id="ID000003"><text class="cls-3" transform="translate(190.5 300.31)">G</text></g><g id="ID000004"><text class="cls-2" transform="translate(191.86 275.69)">A</text></g><g id="ID000005"><text class="cls-3" transform="translate(190.5 251.08)">G</text></g><g id="ID000006"><text class="cls-3" transform="translate(190.5 226.46)">G</text></g><g id="ID000007"><text class="cls-4" transform="translate(301.95 195.69)">U</text></g><g id="ID000008"><text class="cls-4" transform="translate(301.95 171.08)">U</text></g><g id="ID000009"><text class="cls-5" transform="translate(80.41 146.46)">C</text></g><g id="ID000010"><text class="cls-6" transform="translate(99.55 171.08)">A</text></g><g id="ID000011"><text class="cls-5" transform="translate(98.88 195.69)">C</text></g><g id="ID000012"><text class="cls-3" transform="translate(141.95 226.46)">C</text></g><g id="ID000013"><text class="cls-3" transform="translate(141.95 251.08)">C</text></g><g id="ID000014"><text class="cls-3" transform="translate(141.95 275.69)">U</text></g><g id="ID000015"><text class="cls-3" transform="translate(141.95 300.31)">C</text></g><g id="ID000016"><text class="cls-3" transform="translate(141.95 324.92)">U</text></g><g id="ID000017"><text class="cls-7" transform="translate(241.09 324.92)">A</text></g><g id="ID000018"><text class="cls-8" transform="translate(240.41 300.31)">U</text></g><g id="ID000019"><text class="cls-7" transform="translate(241.09 275.69)">A</text></g><g id="ID000020"><text class="cls-7" transform="translate(259.55 263.38)">A</text></g><g id="ID000021"><line class="cls-9" x1="190.15" y1="313.85" x2="160.62" y2="313.85"/></g><g id="ID000022"><line class="cls-9" x1="190.15" y1="289.23" x2="160.62" y2="289.23"/></g><g id="ID000023"><line class="cls-9" x1="190.15" y1="264.62" x2="160.62" y2="264.62"/></g><g id="ID000024"><line class="cls-9" x1="209.85" y1="264.62" x2="239.38" y2="264.62"/></g><g id="ID000025"><polygon class="cls-10" points="211.82 264.62 221.41 270.15 221.41 259.08 211.82 264.62"/></g><g id="ID000026"><polygon class="cls-10" points="235.94 259.69 226.09 259.69 226.09 269.54 235.94 269.54 235.94 259.69"/></g><g id="ID000027"><line class="cls-9" x1="190.15" y1="240" x2="160.62" y2="240"/></g><g id="ID000028"><line class="cls-9" x1="190.15" y1="215.38" x2="160.62" y2="215.38"/></g><g id="ID000029"><line class="cls-9" x1="209.85" y1="215.38" x2="239.38" y2="215.38"/></g><g id="ID000030"><polygon class="cls-10" points="211.82 215.38 221.41 220.92 221.41 209.85 211.82 215.38"/></g><g id="ID000031"><polygon class="cls-10" points="235.94 215.38 235.93 215.07 235.9 214.76 235.85 214.45 235.78 214.15 235.69 213.85 235.59 213.56 235.46 213.27 235.32 212.99 235.16 212.72 234.98 212.47 234.79 212.22 234.58 211.99 234.36 211.77 234.12 211.56 233.87 211.38 233.61 211.2 233.34 211.04 233.06 210.91 232.77 210.79 232.48 210.68 232.18 210.6 231.87 210.54 231.56 210.49 231.25 210.47 230.94 210.46 230.63 210.48 230.31 210.51 230.01 210.57 229.7 210.64 229.41 210.73 229.11 210.84 228.83 210.97 228.55 211.12 228.29 211.29 228.03 211.47 227.79 211.66 227.56 211.88 227.35 212.1 227.15 212.34 226.96 212.59 226.79 212.86 226.64 213.13 226.5 213.41 226.39 213.7 226.29 214 226.21 214.3 226.15 214.61 226.12 214.92 226.09 215.23 226.09 215.54 226.12 215.85 226.15 216.16 226.21 216.47 226.29 216.77 226.39 217.07 226.5 217.36 226.64 217.64 226.79 217.91 226.96 218.18 227.15 218.43 227.35 218.67 227.56 218.89 227.79 219.1 228.03 219.3 228.29 219.48 228.55 219.65 228.83 219.8 229.11 219.93 229.41 220.04 229.7 220.13 230.01 220.2 230.31 220.26 230.63 220.29 230.94 220.31 231.25 220.3 231.56 220.28 231.87 220.23 232.18 220.17 232.48 220.09 232.77 219.98 233.06 219.86 233.34 219.72 233.61 219.57 233.87 219.4 234.12 219.21 234.36 219 234.58 218.78 234.79 218.55 234.98 218.3 235.16 218.05 235.32 217.78 235.46 217.5 235.59 217.22 235.69 216.92 235.78 216.62 235.85 216.32 235.9 216.01 235.93 215.7 235.94 215.38"/></g><g id="ID000032"><line class="cls-9" x1="300.92" y1="184.62" x2="259.08" y2="184.62"/></g><g id="ID000033"><polygon class="cls-11" points="291.32 184.62 291.31 184.3 291.28 183.99 291.23 183.68 291.17 183.38 291.08 183.08 290.97 182.78 290.85 182.5 290.7 182.22 290.54 181.95 290.36 181.7 290.17 181.45 289.96 181.22 289.74 181 289.5 180.79 289.26 180.6 289 180.43 288.73 180.28 288.44 180.14 288.16 180.02 287.86 179.91 287.56 179.83 287.25 179.77 286.94 179.72 286.63 179.7 286.32 179.69 286.01 179.71 285.7 179.74 285.39 179.8 285.09 179.87 284.79 179.96 284.5 180.07 284.21 180.2 283.94 180.35 283.67 180.52 283.42 180.7 283.18 180.9 282.95 181.11 282.73 181.33 282.53 181.57 282.35 181.82 282.18 182.09 282.02 182.36 281.89 182.64 281.77 182.93 281.68 183.23 281.6 183.53 281.54 183.84 281.5 184.15 281.48 184.46 281.48 184.77 281.5 185.08 281.54 185.39 281.6 185.7 281.68 186 281.77 186.3 281.89 186.59 282.02 186.87 282.18 187.14 282.35 187.41 282.53 187.66 282.73 187.9 282.95 188.12 283.18 188.34 283.42 188.53 283.67 188.71 283.94 188.88 284.21 189.03 284.5 189.16 284.79 189.27 285.09 189.36 285.39 189.43 285.7 189.49 286.01 189.52 286.32 189.54 286.63 189.53 286.94 189.51 287.25 189.46 287.56 189.4 287.86 189.32 288.16 189.21 288.44 189.09 288.73 188.96 289 188.8 289.26 188.63 289.5 188.44 289.74 188.23 289.96 188.01 290.17 187.78 290.36 187.53 290.54 187.28 290.7 187.01 290.85 186.73 290.97 186.44 291.08 186.15 291.17 185.85 291.23 185.55 291.28 185.24 291.31 184.93 291.32 184.62"/></g><g id="ID000034"><polygon class="cls-11" points="268.68 189.54 278.52 189.54 278.52 179.69 268.68 179.69 268.68 189.54"/></g><g id="ID000035"><line class="cls-9" x1="300.92" y1="160" x2="259.08" y2="160"/></g><g id="ID000036"><polygon class="cls-11" points="291.32 160 291.31 159.69 291.28 159.38 291.23 159.07 291.17 158.76 291.08 158.46 290.97 158.17 290.85 157.88 290.7 157.61 290.54 157.34 290.36 157.08 290.17 156.84 289.96 156.6 289.74 156.38 289.5 156.18 289.26 155.99 289 155.82 288.73 155.66 288.44 155.52 288.16 155.4 287.86 155.3 287.56 155.22 287.25 155.15 286.94 155.11 286.63 155.08 286.32 155.08 286.01 155.09 285.7 155.13 285.39 155.18 285.09 155.25 284.79 155.35 284.5 155.46 284.21 155.59 283.94 155.74 283.67 155.9 283.42 156.08 283.18 156.28 282.95 156.49 282.73 156.72 282.53 156.96 282.35 157.21 282.18 157.47 282.02 157.74 281.89 158.03 281.77 158.32 281.68 158.61 281.6 158.91 281.54 159.22 281.5 159.53 281.48 159.84 281.48 160.16 281.5 160.47 281.54 160.78 281.6 161.09 281.68 161.39 281.77 161.68 281.89 161.97 282.02 162.26 282.18 162.53 282.35 162.79 282.53 163.04 282.73 163.28 282.95 163.51 283.18 163.72 283.42 163.92 283.67 164.1 283.94 164.26 284.21 164.41 284.5 164.54 284.79 164.65 285.09 164.75 285.39 164.82 285.7 164.87 286.01 164.91 286.32 164.92 286.63 164.92 286.94 164.89 287.25 164.85 287.56 164.78 287.86 164.7 288.16 164.6 288.44 164.48 288.73 164.34 289 164.18 289.26 164.01 289.5 163.82 289.74 163.62 289.96 163.4 290.17 163.16 290.36 162.92 290.54 162.66 290.7 162.39 290.85 162.12 290.97 161.83 291.08 161.54 291.17 161.24 291.23 160.93 291.28 160.62 291.31 160.31 291.32 160"/></g><g id="ID000037"><polygon class="cls-11" points="268.68 164.92 278.52 164.92 278.52 155.08 268.68 155.08 268.68 164.92"/></g><g id="ID000038"><line class="cls-9" x1="190.49" y1="137.92" x2="117.21" y2="157.46"/></g><g id="ID000039"><polygon class="cls-10" points="166.21 144.4 155.51 141.52 158.37 152.22 166.21 144.4"/></g><g id="ID000040"><polygon class="cls-10" points="142.91 150.61 143 150.91 143.1 151.2 143.23 151.49 143.38 151.76 143.54 152.03 143.72 152.29 143.91 152.53 144.12 152.76 144.35 152.98 144.58 153.18 144.83 153.37 145.09 153.54 145.37 153.7 145.65 153.83 145.94 153.95 146.23 154.05 146.53 154.13 146.84 154.19 147.15 154.24 147.46 154.26 147.77 154.26 148.09 154.25 148.4 154.21 148.7 154.15 149.01 154.08 149.3 153.98 149.59 153.87 149.88 153.74 150.15 153.59 150.42 153.42 150.67 153.24 150.91 153.04 151.14 152.83 151.35 152.6 151.55 152.36 151.74 152.1 151.9 151.84 152.05 151.57 152.19 151.28 152.3 150.99 152.4 150.7 152.47 150.39 152.53 150.09 152.57 149.78 152.58 149.46 152.58 149.15 152.56 148.84 152.52 148.53 152.46 148.22 152.38 147.92 152.28 147.63 152.16 147.34 152.02 147.06 151.87 146.78 151.7 146.52 151.51 146.27 151.31 146.03 151.09 145.81 150.86 145.6 150.62 145.4 150.36 145.22 150.09 145.06 149.82 144.92 149.53 144.79 149.24 144.68 148.94 144.59 148.64 144.52 148.33 144.46 148.02 144.43 147.71 144.42 147.4 144.43 147.08 144.45 146.78 144.5 146.47 144.56 146.17 144.65 145.87 144.75 145.59 144.88 145.31 145.02 145.04 145.18 144.78 145.35 144.53 145.54 144.3 145.75 144.08 145.97 143.87 146.2 143.68 146.45 143.5 146.71 143.34 146.98 143.2 147.26 143.08 147.54 142.97 147.84 142.89 148.14 142.82 148.44 142.78 148.75 142.75 149.06 142.74 149.38 142.75 149.69 142.78 150 142.83 150.31 142.91 150.61"/></g><g id="ID000041"><line class="cls-9" x1="160.17" y1="212.45" x2="239.83" y2="187.55"/></g><g id="ID000042"><polygon class="cls-11" points="187.79 203.82 198.59 206.24 195.29 195.67 187.79 203.82"/></g><g id="ID000043"><polygon class="cls-11" points="210.81 196.62 210.71 196.33 210.58 196.04 210.44 195.76 210.29 195.49 210.12 195.23 209.93 194.98 209.72 194.75 209.5 194.52 209.27 194.31 209.02 194.12 208.76 193.94 208.5 193.78 208.22 193.64 207.93 193.52 207.64 193.41 207.34 193.32 207.03 193.26 206.72 193.21 206.41 193.18 206.1 193.17 205.79 193.18 205.48 193.21 205.17 193.26 204.87 193.33 204.57 193.42 204.27 193.52 203.99 193.65 203.71 193.79 203.44 193.95 203.18 194.13 202.94 194.32 202.71 194.53 202.49 194.76 202.28 194.99 202.09 195.24 201.92 195.5 201.77 195.77 201.63 196.05 201.51 196.34 201.41 196.64 201.32 196.94 201.26 197.24 201.22 197.55 201.19 197.86 201.19 198.18 201.2 198.49 201.24 198.8 201.29 199.11 201.37 199.41 201.46 199.71 201.57 200 201.7 200.28 201.85 200.56 202.01 200.82 202.19 201.08 202.39 201.32 202.6 201.55 202.83 201.76 203.07 201.97 203.32 202.15 203.59 202.32 203.86 202.47 204.14 202.6 204.43 202.72 204.73 202.82 205.03 202.9 205.34 202.95 205.65 202.99 205.96 203.01 206.27 203.01 206.58 202.99 206.89 202.95 207.2 202.89 207.5 202.81 207.8 202.72 208.09 202.6 208.37 202.46 208.64 202.31 208.91 202.14 209.16 201.96 209.4 201.75 209.62 201.54 209.83 201.31 210.03 201.07 210.21 200.81 210.38 200.55 210.52 200.27 210.65 199.99 210.76 199.69 210.86 199.4 210.93 199.09 210.98 198.78 211.02 198.47 211.03 198.16 211.03 197.85 211 197.54 210.96 197.23 210.89 196.92 210.81 196.62"/></g><g id="ID000045"><text class="cls-12" transform="translate(191.18 72.62)">C</text></g><g id="ID000046"><text class="cls-12" transform="translate(191.18 97.23)">U</text></g><g id="ID000047"><text class="cls-13" transform="translate(191.86 121.85)">A</text></g><g id="ID000048"><text class="cls-12" transform="translate(190.5 146.46)">G</text></g><g id="ID000049"><text class="cls-7" transform="translate(259.55 238.77)">A</text></g><g id="ID000050"><text class="cls-7" transform="translate(241.09 226.46)">A</text></g><g id="ID000051"><text class="cls-7" transform="translate(241.09 195.69)">A</text></g><g id="ID000052"><text class="cls-7" transform="translate(241.09 171.08)">A</text></g><g id="ID000053"><text class="cls-12" transform="translate(240.41 146.46)">C</text></g><g id="ID000054"><text class="cls-12" transform="translate(240.41 121.85)">U</text></g><g id="ID000055"><text class="cls-14" transform="translate(241.09 97.23)">A</text></g><g id="ID000056"><text class="cls-14" transform="translate(241.09 72.62)">A</text></g><g id="ID000057"><line class="cls-9" x1="209.85" y1="61.54" x2="239.38" y2="61.54"/></g><g id="ID000058"><polygon class="cls-11" points="229.54 61.54 229.53 61.23 229.5 60.91 229.45 60.61 229.38 60.3 229.29 60 229.19 59.71 229.06 59.42 228.92 59.15 228.76 58.88 228.58 58.62 228.39 58.37 228.18 58.14 227.96 57.92 227.72 57.72 227.47 57.53 227.21 57.35 226.94 57.2 226.66 57.06 226.37 56.94 226.08 56.84 225.78 56.75 225.47 56.69 225.16 56.65 224.85 56.62 224.54 56.62 224.22 56.63 223.91 56.66 223.61 56.72 223.3 56.79 223 56.89 222.71 57 222.43 57.13 222.15 57.27 221.89 57.44 221.63 57.62 221.39 57.82 221.16 58.03 220.95 58.26 220.75 58.49 220.56 58.75 220.39 59.01 220.24 59.28 220.1 59.56 219.99 59.85 219.89 60.15 219.81 60.45 219.75 60.76 219.72 61.07 219.69 61.38 219.69 61.7 219.72 62.01 219.75 62.32 219.81 62.62 219.89 62.92 219.99 63.22 220.1 63.51 220.24 63.79 220.39 64.07 220.56 64.33 220.75 64.58 220.95 64.82 221.16 65.05 221.39 65.26 221.63 65.46 221.89 65.64 222.15 65.8 222.43 65.95 222.71 66.08 223 66.19 223.3 66.28 223.61 66.36 223.91 66.41 224.22 66.45 224.54 66.46 224.85 66.46 225.16 66.43 225.47 66.39 225.78 66.32 226.08 66.24 226.37 66.14 226.66 66.02 226.94 65.88 227.21 65.72 227.47 65.55 227.72 65.36 227.96 65.16 228.18 64.94 228.39 64.7 228.58 64.46 228.76 64.2 228.92 63.93 229.06 63.66 229.19 63.37 229.29 63.08 229.38 62.77 229.45 62.47 229.5 62.16 229.53 61.85 229.54 61.54"/></g><g id="ID000059"><line class="cls-9" x1="209.85" y1="86.15" x2="239.38" y2="86.15"/></g><g id="ID000060"><line class="cls-9" x1="209.85" y1="110.77" x2="239.38" y2="110.77"/></g><g id="ID000061"><line class="cls-9" x1="209.85" y1="135.38" x2="239.38" y2="135.38"/></g><g id="ID000063"><polyline class="cls-15" points="310.77 150.15 310.77 18.46 200 18.46 200 51.69"/></g><g id="ID000064"><polygon class="cls-16" points="263.59 25.85 259.49 22.15 255.38 20.92 251.28 20.31 243.08 18.46 251.28 16.62 255.38 16 259.49 14.77 263.59 11.08 263.59 25.85"/></g><g id="ID000065"><line class="cls-15" x1="209.49" y1="212.75" x2="301.28" y2="187.25"/></g><g id="ID000066"><polygon class="cls-16" points="239 196.89 243.95 199.34 248.23 199.43 252.35 198.93 260.75 198.51 253.33 202.49 249.55 204.18 245.92 206.46 242.96 211.12 239 196.89"/></g><g id="ID000067"><polyline class="cls-15" points="150.77 323.69 150.77 363.08 249.23 363.08 249.23 323.69"/></g><g id="ID000068"><polygon class="cls-16" points="191.79 355.69 195.9 359.38 200 360.62 204.1 361.23 212.31 363.08 204.1 364.92 200 365.54 195.9 366.77 191.79 370.46 191.79 355.69"/></g><g id="ID000069"><polyline class="cls-15" points="107.69 194.46 107.69 215.38 140.92 215.38"/></g><g id="ID000070"><polygon class="cls-16" points="116.1 208 120.2 211.69 124.31 212.92 128.41 213.54 136.62 215.38 128.41 217.23 124.31 217.85 120.2 219.08 116.1 222.77 116.1 208"/></g><path class="cls-17" d="M87.94,127.39c-3.43-29.5,27.59-59,102.55,6.38"/><text class="cls-18" transform="translate(194.84 342.02)">5<tspan class="cls-19" x="10.01" y="0">’</tspan></text><text class="cls-18" transform="translate(244.65 51.06)">3<tspan class="cls-19" x="10.01" y="0">’</tspan></text><text class="cls-18" transform="translate(258.22 144.42)">31</text><text class="cls-18" transform="translate(173.09 118.97)">10</text><text class="cls-18" transform="translate(207.65 322.15)">1</text><text class="cls-18" transform="translate(121.6 273.31)">20</text><text class="cls-20" transform="translate(108.61 305.42)">S1</text><text class="cls-21" transform="translate(286.4 278.64)">L3</text><text class="cls-22" transform="translate(330.22 182.27)">L1</text><text class="cls-23" transform="translate(59.88 174.65)">L2</text><text class="cls-24" transform="translate(158.61 84.31)">S2</text><text class="cls-18" transform="translate(152.58 185.38)">PreQ</text><text class="cls-18" transform="translate(194.6 191.38) scale(0.58)">1</text><g id="ID000038-2" data-name="ID000038"><line class="cls-25" x1="202.36" y1="172.22" x2="242.26" y2="161.58"/></g><g id="ID000039-2" data-name="ID000039"><polygon class="cls-26" points="209.49 170.27 220.18 173.15 217.33 162.45 209.49 170.27"/></g><g id="ID000040-2" data-name="ID000040"><polygon class="cls-26" points="231.47 164.42 231.38 164.12 231.28 163.83 231.15 163.54 231 163.27 230.84 163 230.66 162.74 230.47 162.5 230.26 162.27 230.03 162.05 229.8 161.85 229.55 161.66 229.28 161.49 229.01 161.33 228.73 161.2 228.44 161.08 228.15 160.98 227.85 160.9 227.54 160.84 227.23 160.79 226.92 160.77 226.61 160.77 226.29 160.78 225.98 160.82 225.68 160.88 225.37 160.95 225.08 161.05 224.78 161.16 224.5 161.29 224.23 161.44 223.96 161.61 223.71 161.79 223.47 161.99 223.24 162.2 223.03 162.43 222.83 162.67 222.64 162.93 222.48 163.19 222.33 163.46 222.19 163.75 222.08 164.04 221.99 164.33 221.91 164.64 221.85 164.94 221.81 165.25 221.8 165.57 221.8 165.88 221.82 166.19 221.86 166.5 221.92 166.81 222 167.11 222.1 167.4 222.22 167.69 222.36 167.97 222.51 168.25 222.68 168.51 222.87 168.76 223.07 169 223.29 169.22 223.52 169.43 223.76 169.63 224.02 169.81 224.28 169.97 224.56 170.11 224.85 170.24 225.14 170.35 225.44 170.44 225.74 170.51 226.05 170.57 226.36 170.6 226.67 170.61 226.99 170.6 227.3 170.58 227.6 170.53 227.91 170.47 228.21 170.38 228.51 170.28 228.79 170.15 229.07 170.01 229.34 169.85 229.6 169.68 229.85 169.49 230.08 169.28 230.3 169.06 230.51 168.83 230.7 168.58 230.88 168.32 231.03 168.05 231.18 167.78 231.3 167.49 231.41 167.19 231.49 166.89 231.56 166.59 231.6 166.28 231.63 165.97 231.64 165.66 231.63 165.34 231.6 165.03 231.55 164.72 231.47 164.42"/></g><g id="ID000061-2" data-name="ID000061"><line class="cls-25" x1="119.78" y1="187.25" x2="149.32" y2="187.25"/></g><line class="cls-27" x1="202.36" y1="176.55" x2="203.36" y2="176.61"/><line class="cls-28" x1="205.34" y1="176.72" x2="299.29" y2="182.16"/><line class="cls-27" x1="300.28" y1="182.21" x2="301.28" y2="182.27"/></svg>