<svg id="图层_1" data-name="图层 1" xmlns="http://www.w3.org/2000/svg" viewBox="0 0 400 400"><defs><style>.cls-1,.cls-10,.cls-11,.cls-12,.cls-13,.cls-14,.cls-16,.cls-17,.cls-18,.cls-19,.cls-2,.cls-20,.cls-21,.cls-24,.cls-3,.cls-4,.cls-7,.cls-8,.cls-9{isolation:isolate;}.cls-1,.cls-10,.cls-11,.cls-12,.cls-13,.cls-14,.cls-16,.cls-17,.cls-18,.cls-19,.cls-2,.cls-20,.cls-21,.cls-3,.cls-7,.cls-8,.cls-9{font-size:10.86px;}.cls-1,.cls-2,.cls-32{fill:#0a0bff;}.cls-1,.cls-10,.cls-11,.cls-12,.cls-13,.cls-14,.cls-16,.cls-17,.cls-18,.cls-19,.cls-2,.cls-20,.cls-21,.cls-24,.cls-26,.cls-27,.cls-28,.cls-29,.cls-3,.cls-30,.cls-31,.cls-32,.cls-33,.cls-34,.cls-36,.cls-4,.cls-7,.cls-8,.cls-9{font-family:ArialMT, Arial;}.cls-11,.cls-12,.cls-17,.cls-18,.cls-2,.cls-7,.cls-9{letter-spacing:-0.06em;}.cls-3,.cls-33,.cls-7{fill:#80db9e;}.cls-36,.cls-4{font-size:6px;}.cls-22,.cls-23,.cls-37,.cls-5{fill:none;}.cls-15,.cls-22,.cls-5,.cls-6{stroke:#000;}.cls-15,.cls-22,.cls-37,.cls-38,.cls-5,.cls-6{stroke-miterlimit:1.14;}.cls-15,.cls-37,.cls-38,.cls-5,.cls-6{stroke-width:0.14px;}.cls-29,.cls-8,.cls-9{fill:#c2c2ff;}.cls-10,.cls-34{fill:#ffaadc;}.cls-11,.cls-20,.cls-30{fill:#09fefe;}.cls-12,.cls-14,.cls-28{fill:#797979;}.cls-13,.cls-26{fill:#e809e8;}.cls-15{fill:#fff;}.cls-16,.cls-17,.cls-31{fill:#ffdf5c;}.cls-18,.cls-19,.cls-21,.cls-27{fill:#ff870a;}.cls-21{letter-spacing:-0.06em;}.cls-22{stroke-width:1.03px;}.cls-23{stroke:#251e1c;stroke-miterlimit:10;stroke-width:0.5px;}.cls-24{font-size:10px;}.cls-25{letter-spacing:-0.04em;}.cls-26,.cls-27,.cls-28,.cls-29,.cls-30,.cls-31,.cls-32,.cls-33,.cls-34{font-size:14px;}.cls-35,.cls-38{fill:#ff0b0c;}.cls-36{fill:#251e1c;}.cls-37,.cls-38{stroke:#ff0b0c;}.cls-39,.cls-40{font-size:20px;fill:#322d2e;font-family:Arial-BoldMT, Arial;font-weight:700;}.cls-40{letter-spacing:0em;}</style></defs><text class="cls-1" transform="translate(134.6 240.13)">G</text><text class="cls-2" transform="translate(135.2 229.04)">A</text><text class="cls-1" transform="translate(134.6 217.94)">G</text><text class="cls-1" transform="translate(134.9 206.85)">C</text><text class="cls-2" transform="translate(113.01 184.66)">A</text><text class="cls-2" transform="translate(113.01 173.56)">A</text><text class="cls-3" transform="translate(104.24 159.7)">C</text><text class="cls-2" transform="translate(135.2 173.56)">A</text><text class="cls-1" transform="translate(134.6 184.66)">G</text><text class="cls-1" transform="translate(112.41 206.85)">G</text><text class="cls-4" transform="translate(105.89 205.09)">20</text><text class="cls-1" transform="translate(112.71 217.94)">C</text><text class="cls-1" transform="translate(112.71 229.04)">U</text><text class="cls-1" transform="translate(112.71 240.13)">C</text><line class="cls-5" x1="134.38" y1="235.14" x2="121.07" y2="235.14"/><line class="cls-5" x1="134.38" y1="224.04" x2="121.07" y2="224.04"/><line class="cls-5" x1="134.38" y1="212.95" x2="121.07" y2="212.95"/><line class="cls-5" x1="134.38" y1="201.85" x2="121.07" y2="201.85"/><line class="cls-5" x1="121.07" y1="179.67" x2="134.38" y2="179.67"/><polygon class="cls-6" points="129.94 179.66 129.94 179.52 129.92 179.38 129.9 179.25 129.87 179.11 129.83 178.97 129.78 178.84 129.73 178.71 129.66 178.59 129.59 178.47 129.51 178.35 129.42 178.24 129.33 178.13 129.23 178.03 129.12 177.94 129.01 177.86 128.89 177.78 128.77 177.71 128.65 177.65 128.51 177.59 128.38 177.55 128.25 177.51 128.11 177.48 127.97 177.46 127.83 177.45 127.69 177.45 127.55 177.45 127.41 177.47 127.27 177.49 127.13 177.53 127 177.57 126.86 177.62 126.74 177.68 126.61 177.74 126.49 177.82 126.38 177.9 126.27 177.99 126.17 178.08 126.07 178.19 125.98 178.29 125.89 178.41 125.82 178.53 125.75 178.65 125.69 178.78 125.64 178.91 125.59 179.04 125.56 179.18 125.53 179.31 125.51 179.45 125.5 179.59 125.5 179.74 125.51 179.88 125.53 180.02 125.56 180.15 125.59 180.29 125.64 180.42 125.69 180.56 125.75 180.68 125.82 180.81 125.89 180.92 125.98 181.04 126.07 181.15 126.17 181.25 126.27 181.34 126.38 181.43 126.49 181.51 126.61 181.59 126.74 181.65 126.86 181.71 127 181.76 127.13 181.8 127.27 181.84 127.41 181.86 127.55 181.88 127.69 181.88 127.83 181.88 127.97 181.87 128.11 181.85 128.25 181.82 128.38 181.78 128.51 181.74 128.65 181.68 128.77 181.62 128.89 181.55 129.01 181.47 129.12 181.39 129.23 181.29 129.33 181.2 129.42 181.09 129.51 180.98 129.59 180.87 129.66 180.74 129.73 180.62 129.78 180.49 129.83 180.36 129.87 180.22 129.9 180.09 129.92 179.95 129.94 179.81 129.94 179.66"/><line class="cls-5" x1="121.07" y1="168.57" x2="134.38" y2="168.57"/><polygon class="cls-6" points="129.94 168.57 129.94 168.43 129.92 168.29 129.9 168.15 129.87 168.01 129.83 167.88 129.78 167.75 129.73 167.62 129.66 167.49 129.59 167.37 129.51 167.25 129.42 167.14 129.33 167.04 129.23 166.94 129.12 166.85 129.01 166.76 128.89 166.69 128.77 166.61 128.65 166.55 128.51 166.5 128.38 166.45 128.25 166.41 128.11 166.38 127.97 166.37 127.83 166.35 127.69 166.35 127.55 166.36 127.41 166.37 127.27 166.4 127.13 166.43 127 166.47 126.86 166.52 126.74 166.58 126.61 166.65 126.49 166.72 126.38 166.8 126.27 166.89 126.17 166.99 126.07 167.09 125.98 167.2 125.89 167.31 125.82 167.43 125.75 167.55 125.69 167.68 125.64 167.81 125.59 167.94 125.56 168.08 125.53 168.22 125.51 168.36 125.5 168.5 125.5 168.64 125.51 168.78 125.53 168.92 125.56 169.06 125.59 169.19 125.64 169.33 125.69 169.46 125.75 169.59 125.82 169.71 125.89 169.83 125.98 169.94 126.07 170.05 126.17 170.15 126.27 170.25 126.38 170.34 126.49 170.42 126.61 170.49 126.74 170.56 126.86 170.62 127 170.67 127.13 170.71 127.27 170.74 127.41 170.77 127.55 170.78 127.69 170.79 127.83 170.79 127.97 170.78 128.11 170.75 128.25 170.73 128.38 170.69 128.51 170.64 128.65 170.59 128.77 170.53 128.89 170.46 129.01 170.38 129.12 170.29 129.23 170.2 129.33 170.1 129.42 170 129.51 169.89 129.59 169.77 129.66 169.65 129.73 169.52 129.78 169.4 129.83 169.26 129.87 169.13 129.9 168.99 129.92 168.85 129.94 168.71 129.94 168.57"/><text class="cls-3" transform="translate(104.39 145.83)">U</text><text class="cls-3" transform="translate(104.39 134.73)">U</text><text class="cls-7" transform="translate(104.69 123.64)">A</text><text class="cls-4" transform="translate(97.86 121.67)">10</text><text class="cls-8" transform="translate(140.14 90.35)">G</text><text class="cls-8" transform="translate(140.14 101.45)">G</text><text class="cls-9" transform="translate(140.74 112.54)">A</text><text class="cls-8" transform="translate(140.45 123.64)">U</text><text class="cls-8" transform="translate(140.45 134.73)">U</text><text class="cls-8" transform="translate(140.45 145.83)">U</text><text class="cls-10" transform="translate(141.3 159.7)">U</text><text class="cls-11" transform="translate(176.8 145.83)">A</text><text class="cls-9" transform="translate(162.93 145.83)">A</text><text class="cls-9" transform="translate(162.93 134.73)">A</text><text class="cls-9" transform="translate(162.93 123.64)">A</text><text class="cls-8" transform="translate(162.63 112.54)">U</text><text class="cls-8" transform="translate(162.63 101.45)">U</text><text class="cls-8" transform="translate(162.63 90.35)">C</text><text class="cls-4" transform="translate(170.2 88.69)">90</text><text class="cls-12" transform="translate(162.93 79.26)">A</text><text class="cls-13" transform="translate(157.09 68.16)">U</text><text class="cls-13" transform="translate(145.99 68.16)">C</text><text class="cls-13" transform="translate(134.9 68.16)">C</text><text class="cls-13" transform="translate(123.5 68.16)">G</text><text class="cls-13" transform="translate(112.71 68.16)">C</text><text class="cls-13" transform="translate(101.61 68.16)">C</text><text class="cls-14" transform="translate(90.22 68.16)">G</text><text class="cls-14" transform="translate(79.12 68.16)">G</text><text class="cls-12" transform="translate(68.63 68.16)">A</text><text class="cls-4" transform="translate(66.81 74.14)">100</text><text class="cls-14" transform="translate(56.93 68.16)">G</text><polyline class="cls-5" points="112.28 138.85 119.4 135.29 138.82 135.29 155.46 135.29 162.59 138.85"/><polygon class="cls-6" points="124.01 135.29 124.01 135.43 124.02 135.57 124.05 135.71 124.08 135.84 124.12 135.98 124.17 136.11 124.22 136.24 124.29 136.36 124.36 136.49 124.44 136.6 124.53 136.71 124.62 136.82 124.72 136.92 124.83 137.01 124.94 137.09 125.06 137.17 125.18 137.24 125.3 137.3 125.43 137.36 125.57 137.4 125.7 137.44 125.84 137.47 125.98 137.49 126.12 137.5 126.26 137.5 126.4 137.5 126.54 137.48 126.68 137.46 126.82 137.42 126.95 137.38 127.08 137.33 127.21 137.27 127.33 137.21 127.45 137.13 127.57 137.05 127.68 136.96 127.78 136.87 127.88 136.76 127.97 136.66 128.05 136.54 128.13 136.43 128.2 136.3 128.26 136.18 128.31 136.04 128.35 135.91 128.39 135.77 128.42 135.64 128.43 135.5 128.44 135.36 128.44 135.22 128.43 135.07 128.42 134.94 128.39 134.8 128.35 134.66 128.31 134.53 128.26 134.4 128.2 134.27 128.13 134.15 128.05 134.03 127.97 133.91 127.88 133.81 127.78 133.7 127.68 133.61 127.57 133.52 127.45 133.44 127.33 133.36 127.21 133.3 127.08 133.24 126.95 133.19 126.82 133.15 126.68 133.11 126.54 133.09 126.4 133.07 126.26 133.07 126.12 133.07 125.98 133.08 125.84 133.1 125.7 133.13 125.57 133.17 125.43 133.21 125.3 133.27 125.18 133.33 125.06 133.4 124.94 133.48 124.83 133.56 124.72 133.66 124.62 133.75 124.53 133.86 124.44 133.97 124.36 134.09 124.29 134.21 124.22 134.33 124.17 134.46 124.12 134.59 124.08 134.73 124.05 134.87 124.02 135 124.01 135.15 124.01 135.29"/><polygon class="cls-6" points="134.21 133.07 129.78 133.07 129.78 137.5 134.21 137.5 134.21 133.07"/><polyline class="cls-5" points="112.28 127.75 119.4 124.19 138.82 124.19 155.46 124.19 162.59 127.75"/><polygon class="cls-6" points="124.01 124.19 124.01 124.33 124.02 124.47 124.05 124.61 124.08 124.75 124.12 124.88 124.17 125.02 124.22 125.14 124.29 125.27 124.36 125.39 124.44 125.51 124.53 125.62 124.62 125.72 124.72 125.82 124.83 125.91 124.94 126 125.06 126.08 125.18 126.15 125.3 126.21 125.43 126.26 125.57 126.31 125.7 126.35 125.84 126.38 125.98 126.4 126.12 126.41 126.26 126.41 126.4 126.4 126.54 126.39 126.68 126.36 126.82 126.33 126.95 126.29 127.08 126.24 127.21 126.18 127.33 126.11 127.45 126.04 127.57 125.96 127.68 125.87 127.78 125.77 127.88 125.67 127.97 125.56 128.05 125.45 128.13 125.33 128.2 125.21 128.26 125.08 128.31 124.95 128.35 124.82 128.39 124.68 128.42 124.54 128.43 124.4 128.44 124.26 128.44 124.12 128.43 123.98 128.42 123.84 128.39 123.7 128.35 123.56 128.31 123.43 128.26 123.3 128.2 123.17 128.13 123.05 128.05 122.93 127.97 122.82 127.88 122.71 127.78 122.61 127.68 122.51 127.57 122.42 127.45 122.34 127.33 122.27 127.21 122.2 127.08 122.14 126.95 122.09 126.82 122.05 126.68 122.02 126.54 121.99 126.4 121.98 126.26 121.97 126.12 121.97 125.98 121.98 125.84 122 125.7 122.03 125.57 122.07 125.43 122.12 125.3 122.17 125.18 122.23 125.06 122.31 124.94 122.38 124.83 122.47 124.72 122.56 124.62 122.66 124.53 122.76 124.44 122.88 124.36 122.99 124.29 123.11 124.22 123.24 124.17 123.37 124.12 123.5 124.08 123.63 124.05 123.77 124.02 123.91 124.01 124.05 124.01 124.19"/><polygon class="cls-6" points="134.21 121.97 129.78 121.97 129.78 126.41 134.21 126.41 134.21 121.97"/><polyline class="cls-5" points="112.28 116.66 119.4 113.1 138.82 113.1 155.46 113.1 162.59 116.66"/><polygon class="cls-15" points="124.01 113.1 124.01 113.24 124.02 113.38 124.05 113.52 124.08 113.65 124.12 113.79 124.17 113.92 124.22 114.05 124.29 114.17 124.36 114.3 124.44 114.41 124.53 114.52 124.62 114.63 124.72 114.73 124.83 114.82 124.94 114.9 125.06 114.98 125.18 115.05 125.3 115.11 125.43 115.17 125.57 115.22 125.7 115.25 125.84 115.28 125.98 115.3 126.12 115.31 126.26 115.31 126.4 115.31 126.54 115.29 126.68 115.27 126.82 115.23 126.95 115.19 127.08 115.14 127.21 115.08 127.33 115.02 127.45 114.94 127.57 114.86 127.68 114.77 127.78 114.68 127.88 114.58 127.97 114.47 128.05 114.35 128.13 114.24 128.2 114.11 128.26 113.98 128.31 113.86 128.35 113.72 128.39 113.58 128.42 113.45 128.43 113.31 128.44 113.17 128.44 113.03 128.43 112.89 128.42 112.75 128.39 112.61 128.35 112.47 128.31 112.34 128.26 112.21 128.2 112.08 128.13 111.96 128.05 111.84 127.97 111.72 127.88 111.62 127.78 111.51 127.68 111.42 127.57 111.33 127.45 111.25 127.33 111.17 127.21 111.11 127.08 111.05 126.95 111 126.82 110.96 126.68 110.92 126.54 110.9 126.4 110.88 126.26 110.88 126.12 110.88 125.98 110.89 125.84 110.91 125.7 110.94 125.57 110.98 125.43 111.02 125.3 111.08 125.18 111.14 125.06 111.21 124.94 111.29 124.83 111.37 124.72 111.47 124.62 111.56 124.53 111.67 124.44 111.78 124.36 111.9 124.29 112.02 124.22 112.14 124.17 112.27 124.12 112.4 124.08 112.54 124.05 112.68 124.02 112.81 124.01 112.95 124.01 113.1"/><polygon class="cls-15" points="134.21 110.88 129.78 110.88 129.78 115.31 134.21 115.31 134.21 110.88"/><line class="cls-5" x1="148.8" y1="85.36" x2="162.12" y2="85.36"/><polygon class="cls-6" points="157.68 96.45 157.68 96.31 157.66 96.17 157.64 96.03 157.61 95.9 157.57 95.76 157.52 95.63 157.46 95.5 157.4 95.37 157.33 95.25 157.25 95.14 157.16 95.03 157.07 94.92 156.97 94.82 156.86 94.73 156.75 94.65 156.63 94.57 156.51 94.5 156.38 94.44 156.25 94.38 156.12 94.33 155.98 94.3 155.84 94.27 155.71 94.25 155.56 94.24 155.43 94.23 155.28 94.24 155.14 94.26 155 94.28 154.87 94.31 154.73 94.36 154.6 94.41 154.47 94.47 154.35 94.53 154.23 94.61 154.12 94.69 154.01 94.78 153.9 94.87 153.81 94.97 153.72 95.08 153.63 95.19 153.56 95.31 153.49 95.44 153.43 95.56 153.38 95.69 153.33 95.83 153.29 95.97 153.27 96.1 153.25 96.24 153.24 96.38 153.24 96.52 153.25 96.66 153.27 96.8 153.29 96.94 153.33 97.08 153.38 97.21 153.43 97.34 153.49 97.47 153.56 97.59 153.63 97.71 153.72 97.83 153.81 97.93 153.9 98.03 154.01 98.13 154.12 98.22 154.23 98.3 154.35 98.38 154.47 98.44 154.6 98.5 154.73 98.55 154.87 98.59 155 98.63 155.14 98.65 155.28 98.67 155.43 98.67 155.56 98.67 155.71 98.66 155.84 98.64 155.98 98.61 156.12 98.57 156.25 98.53 156.38 98.47 156.51 98.41 156.63 98.34 156.75 98.26 156.86 98.17 156.97 98.08 157.07 97.98 157.16 97.88 157.25 97.77 157.33 97.65 157.4 97.53 157.46 97.41 157.52 97.28 157.57 97.15 157.61 97.01 157.64 96.87 157.66 96.73 157.68 96.59 157.68 96.45"/><line class="cls-5" x1="148.8" y1="107.55" x2="162.12" y2="107.55"/><line class="cls-5" x1="148.8" y1="118.64" x2="162.12" y2="118.64"/><line class="cls-5" x1="148.8" y1="129.74" x2="162.12" y2="129.74"/><line class="cls-5" x1="148.8" y1="140.83" x2="162.12" y2="140.83"/><text class="cls-16" transform="translate(112.71 254)">C</text><text class="cls-16" transform="translate(112.71 265.1)">C</text><text class="cls-16" transform="translate(112.71 276.19)">C</text><text class="cls-16" transform="translate(112.41 287.29)">G</text><text class="cls-16" transform="translate(112.41 298.38)">G</text><text class="cls-16" transform="translate(112.71 309.48)">C</text><text class="cls-16" transform="translate(112.41 320.57)">G</text><text class="cls-4" transform="translate(105.89 318.85)">30</text><text class="cls-16" transform="translate(112.71 331.67)">U</text><text class="cls-16" transform="translate(112.41 342.76)">G</text><text class="cls-16" transform="translate(107.16 353.85)">U</text><text class="cls-16" transform="translate(118.25 387.14)">C</text><text class="cls-16" transform="translate(131.82 387.14)">G</text><text class="cls-17" transform="translate(140.74 376.04)">A</text><text class="cls-17" transform="translate(143.52 364.95)">A</text><text class="cls-16" transform="translate(140.45 353.85)">C</text><text class="cls-4" transform="translate(148.53 352.51)">40</text><text class="cls-16" transform="translate(134.9 342.76)">C</text><text class="cls-17" transform="translate(135.2 331.67)">A</text><text class="cls-16" transform="translate(134.9 320.57)">U</text><text class="cls-16" transform="translate(134.6 309.48)">G</text><text class="cls-16" transform="translate(134.9 298.38)">C</text><text class="cls-16" transform="translate(134.9 287.29)">C</text><text class="cls-16" transform="translate(134.6 276.19)">G</text><text class="cls-16" transform="translate(134.6 265.1)">G</text><text class="cls-16" transform="translate(134.6 254)">G</text><text class="cls-14" transform="translate(190.37 231.81)">C</text><text class="cls-4" transform="translate(198.71 229.92)">50</text><text class="cls-14" transform="translate(190.37 217.94)">C</text><line class="cls-5" x1="121.07" y1="249.01" x2="134.38" y2="249.01"/><line class="cls-5" x1="121.07" y1="260.1" x2="134.38" y2="260.1"/><line class="cls-5" x1="121.07" y1="271.2" x2="134.38" y2="271.2"/><line class="cls-5" x1="121.07" y1="282.29" x2="134.38" y2="282.29"/><line class="cls-5" x1="121.07" y1="293.39" x2="134.38" y2="293.39"/><line class="cls-5" x1="121.07" y1="304.48" x2="134.38" y2="304.48"/><polygon class="cls-6" points="129.94 315.58 129.94 315.44 129.92 315.3 129.9 315.16 129.87 315.02 129.83 314.88 129.78 314.75 129.73 314.62 129.66 314.5 129.59 314.38 129.51 314.26 129.42 314.15 129.33 314.05 129.23 313.95 129.12 313.86 129.01 313.77 128.89 313.69 128.77 313.62 128.65 313.56 128.51 313.5 128.38 313.46 128.25 313.42 128.11 313.39 127.97 313.37 127.83 313.36 127.69 313.36 127.55 313.37 127.41 313.38 127.27 313.4 127.13 313.44 127 313.48 126.86 313.53 126.74 313.59 126.61 313.66 126.49 313.73 126.38 313.81 126.27 313.9 126.17 314 126.07 314.1 125.98 314.21 125.89 314.32 125.82 314.44 125.75 314.56 125.69 314.69 125.64 314.82 125.59 314.95 125.56 315.09 125.53 315.23 125.51 315.37 125.5 315.51 125.5 315.65 125.51 315.79 125.53 315.93 125.56 316.07 125.59 316.2 125.64 316.34 125.69 316.47 125.75 316.59 125.82 316.72 125.89 316.84 125.98 316.95 126.07 317.06 126.17 317.16 126.27 317.25 126.38 317.34 126.49 317.43 126.61 317.5 126.74 317.57 126.86 317.62 127 317.67 127.13 317.72 127.27 317.75 127.41 317.77 127.55 317.79 127.69 317.8 127.83 317.79 127.97 317.78 128.11 317.76 128.25 317.73 128.38 317.7 128.51 317.65 128.65 317.6 128.77 317.53 128.89 317.46 129.01 317.38 129.12 317.3 129.23 317.21 129.33 317.11 129.42 317 129.51 316.89 129.59 316.78 129.66 316.66 129.73 316.53 129.78 316.4 129.83 316.27 129.87 316.13 129.9 316 129.92 315.86 129.94 315.72 129.94 315.58"/><line class="cls-5" x1="121.07" y1="326.67" x2="134.38" y2="326.67"/><line class="cls-5" x1="121.07" y1="337.77" x2="134.38" y2="337.77"/><text class="cls-12" transform="translate(190.67 204.08)">A</text><text class="cls-12" transform="translate(190.67 190.21)">A</text><text class="cls-18" transform="translate(201.77 179.11)">A</text><text class="cls-19" transform="translate(212.56 179.11)">C</text><text class="cls-19" transform="translate(223.66 179.11)">C</text><text class="cls-19" transform="translate(231.98 145.83)">C</text><text class="cls-19" transform="translate(223.35 156.92)">G</text><text class="cls-4" transform="translate(223.93 148.36)">80</text><text class="cls-19" transform="translate(212.26 156.92)">G</text><text class="cls-19" transform="translate(201.47 156.92)">U</text><text class="cls-20" transform="translate(190.37 145.83)">C</text><line class="cls-5" x1="194.29" y1="180.77" x2="194.29" y2="145.27"/><polygon class="cls-6" points="194.29 160.8 194.15 160.81 194.01 160.82 193.87 160.84 193.74 160.88 193.6 160.91 193.47 160.96 193.34 161.02 193.21 161.08 193.09 161.16 192.98 161.24 192.87 161.32 192.76 161.42 192.66 161.52 192.57 161.62 192.49 161.74 192.41 161.85 192.34 161.97 192.27 162.1 192.22 162.23 192.17 162.36 192.14 162.5 192.11 162.64 192.09 162.78 192.07 162.92 192.07 163.06 192.08 163.2 192.1 163.34 192.12 163.48 192.15 163.61 192.19 163.75 192.25 163.88 192.3 164.01 192.37 164.13 192.44 164.25 192.53 164.37 192.62 164.48 192.71 164.58 192.81 164.68 192.92 164.77 193.03 164.85 193.15 164.93 193.28 165 193.4 165.06 193.53 165.11 193.67 165.15 193.8 165.19 193.94 165.21 194.08 165.23 194.22 165.24 194.36 165.24 194.5 165.23 194.64 165.21 194.78 165.19 194.92 165.15 195.05 165.11 195.18 165.06 195.31 165 195.43 164.93 195.55 164.85 195.66 164.77 195.77 164.68 195.87 164.58 195.97 164.48 196.06 164.37 196.14 164.25 196.21 164.13 196.28 164.01 196.34 163.88 196.39 163.75 196.43 163.61 196.46 163.48 196.49 163.34 196.5 163.2 196.51 163.06 196.51 162.92 196.5 162.78 196.48 162.64 196.45 162.5 196.41 162.36 196.37 162.23 196.31 162.1 196.25 161.97 196.18 161.85 196.1 161.74 196.01 161.62 195.92 161.52 195.82 161.42 195.72 161.32 195.61 161.24 195.49 161.16 195.37 161.08 195.25 161.02 195.12 160.96 194.98 160.91 194.85 160.88 194.71 160.84 194.57 160.82 194.43 160.81 194.29 160.8"/><line class="cls-5" x1="205.39" y1="169.68" x2="205.39" y2="156.37"/><line class="cls-5" x1="216.48" y1="169.68" x2="216.48" y2="156.37"/><line class="cls-5" x1="227.58" y1="169.68" x2="227.58" y2="156.37"/><text class="cls-19" transform="translate(240.3 179.11)">C</text><text class="cls-21" transform="translate(251.69 179.11)">A</text><text class="cls-19" transform="translate(262.49 179.11)">U</text><text class="cls-21" transform="translate(273.88 179.11)">A</text><text class="cls-4" transform="translate(274.44 184.66)">60</text><text class="cls-19" transform="translate(284.38 179.11)">G</text><text class="cls-19" transform="translate(295.47 179.11)">G</text><text class="cls-19" transform="translate(306.57 179.11)">G</text><text class="cls-14" transform="translate(317.96 187.43)">C</text><text class="cls-14" transform="translate(329.06 195.75)">U</text><text class="cls-13" transform="translate(339.85 187.43)">G</text><text class="cls-13" transform="translate(339.85 176.34)">G</text><text class="cls-13" transform="translate(340.15 165.24)">C</text><text class="cls-13" transform="translate(339.85 154.15)">G</text><text class="cls-13" transform="translate(339.85 143.05)">G</text><text class="cls-4" transform="translate(332.9 142.29)">70</text><text class="cls-13" transform="translate(340.15 131.96)">U</text><text class="cls-19" transform="translate(306.87 156.92)">C</text><text class="cls-19" transform="translate(295.77 156.92)">C</text><text class="cls-19" transform="translate(284.68 156.92)">C</text><text class="cls-19" transform="translate(273.58 156.92)">U</text><text class="cls-19" transform="translate(262.19 156.92)">G</text><text class="cls-19" transform="translate(251.39 156.92)">U</text><text class="cls-19" transform="translate(240 156.92)">G</text><line class="cls-5" x1="244.22" y1="169.68" x2="244.22" y2="156.37"/><line class="cls-5" x1="255.31" y1="169.68" x2="255.31" y2="156.37"/><polygon class="cls-6" points="266.41 160.8 266.27 160.81 266.13 160.82 265.99 160.84 265.85 160.88 265.72 160.91 265.58 160.96 265.45 161.02 265.33 161.08 265.21 161.16 265.09 161.24 264.98 161.32 264.88 161.42 264.78 161.52 264.69 161.62 264.6 161.74 264.52 161.85 264.45 161.97 264.39 162.1 264.34 162.23 264.29 162.36 264.25 162.5 264.22 162.64 264.2 162.78 264.19 162.92 264.19 163.06 264.2 163.2 264.21 163.34 264.24 163.48 264.27 163.61 264.31 163.75 264.36 163.88 264.42 164.01 264.49 164.13 264.56 164.25 264.64 164.37 264.73 164.48 264.83 164.58 264.93 164.68 265.04 164.77 265.15 164.85 265.27 164.93 265.39 165 265.52 165.06 265.65 165.11 265.78 165.15 265.92 165.19 266.06 165.21 266.2 165.23 266.34 165.24 266.48 165.24 266.62 165.23 266.76 165.21 266.9 165.19 267.03 165.15 267.17 165.11 267.3 165.06 267.43 165 267.55 164.93 267.67 164.85 267.78 164.77 267.89 164.68 267.99 164.58 268.09 164.48 268.18 164.37 268.26 164.25 268.33 164.13 268.4 164.01 268.45 163.88 268.51 163.75 268.55 163.61 268.58 163.48 268.61 163.34 268.62 163.2 268.63 163.06 268.63 162.92 268.61 162.78 268.59 162.64 268.56 162.5 268.53 162.36 268.48 162.23 268.43 162.1 268.37 161.97 268.3 161.85 268.22 161.74 268.13 161.62 268.04 161.52 267.94 161.42 267.83 161.32 267.73 161.24 267.61 161.16 267.49 161.08 267.36 161.02 267.23 160.96 267.1 160.91 266.97 160.88 266.83 160.84 266.69 160.82 266.55 160.81 266.41 160.8"/><line class="cls-5" x1="277.5" y1="169.68" x2="277.5" y2="156.37"/><line class="cls-5" x1="288.6" y1="169.68" x2="288.6" y2="156.37"/><line class="cls-5" x1="299.69" y1="169.68" x2="299.69" y2="156.37"/><line class="cls-5" x1="310.79" y1="169.68" x2="310.79" y2="156.37"/><polyline class="cls-22" points="143.25 249.01 194.29 249.01 194.29 231.26"/><polygon class="cls-6" points="165.08 245.68 166.92 247.34 168.77 247.9 170.62 248.18 174.32 249.01 170.62 249.84 168.77 250.12 166.92 250.67 165.08 252.34 165.08 245.68"/><polyline class="cls-22" points="108.31 114.2 108.31 85.36 139.93 85.36"/><polygon class="cls-6" points="120.42 82.03 122.27 83.69 124.12 84.25 125.97 84.53 129.66 85.36 125.97 86.19 124.12 86.47 122.27 87.02 120.42 88.69 120.42 82.03"/><polyline class="cls-22" points="135.68 198.72 124.95 187.99 119.77 182.8"/><polygon class="cls-6" points="122.62 190.36 122.49 187.88 121.57 186.18 120.46 184.68 118.44 181.47 121.64 183.5 123.14 184.61 124.84 185.53 127.33 185.66 122.62 190.36"/><polyline class="cls-22" points="135.68 182.8 124.95 193.53 119.77 198.72"/><polygon class="cls-6" points="127.33 195.86 124.84 195.99 123.14 196.91 121.64 198.02 118.44 200.05 120.46 196.84 121.57 195.34 122.49 193.64 122.62 191.16 127.33 195.86"/><polyline class="cls-22" points="339.63 127.01 310.79 127.33 310.79 147.49"/><polygon class="cls-6" points="314.12 133.71 312.45 135.56 311.9 137.41 311.62 139.26 310.79 142.96 309.96 139.26 309.68 137.41 309.12 135.56 307.46 133.71 314.12 133.71"/><path class="cls-23" d="M110.8,354.82c-8.52,14.17,2.21,25.85,7.37,28.34"/><line class="cls-23" x1="145.43" y1="235.14" x2="157.68" y2="235.14"/><line class="cls-23" x1="43.04" y1="64.49" x2="55.3" y2="64.49"/><text class="cls-24" transform="translate(159.95 239.03)">5<tspan class="cls-25" x="5.56" y="0">’</tspan></text><text class="cls-24" transform="translate(34.9 68.29)">3<tspan class="cls-25" x="5.56" y="0">’</tspan></text><line class="cls-23" x1="103.03" y1="58.62" x2="164.05" y2="58.62"/><line class="cls-23" x1="348.93" y1="186.02" x2="348.93" y2="125"/><line class="cls-23" x1="133.54" y1="58.39" x2="133.54" y2="41.54"/><line class="cls-23" x1="365.36" y1="156.37" x2="365.36" y2="41.54"/><line class="cls-23" x1="348.51" y1="156.37" x2="365.36" y2="156.37"/><line class="cls-23" x1="133.5" y1="41.54" x2="365.36" y2="41.54"/><text class="cls-26" transform="translate(341.01 55.65)">P5</text><text class="cls-27" transform="translate(249.74 198.72)">P4</text><text class="cls-28" transform="translate(57.51 55.82)">RBS</text><text class="cls-28" transform="translate(312.88 210)">J4/5</text><text class="cls-29" transform="translate(176.79 107.55)">P2</text><text class="cls-30" transform="translate(180.58 135.29)">J4/2</text><text class="cls-31" transform="translate(84.48 289.37)">P3</text><text class="cls-32" transform="translate(84.48 210)">P1</text><text class="cls-28" transform="translate(206.3 237.17)">J3/4</text><text class="cls-33" transform="translate(73.62 142.29)">J1/2</text><text class="cls-34" transform="translate(147.4 165.37)">J2/1</text><rect class="cls-35" x="116.29" y="152.14" width="15.79" height="7.12"/><text class="cls-36" transform="translate(116.1 156.92)">PreQ</text><text class="cls-36" transform="translate(130.1 158.92) scale(0.58)">1</text><line class="cls-37" x1="132.59" y1="155.7" x2="141.61" y2="155.7"/><polygon class="cls-38" points="132.59 155.7 136.99 158.24 136.99 153.17 132.59 155.7"/><polygon class="cls-38" points="139.41 153.5 139.27 153.51 139.13 153.52 139 153.54 138.86 153.57 138.72 153.61 138.59 153.66 138.47 153.72 138.34 153.78 138.22 153.85 138.11 153.93 138 154.02 137.89 154.11 137.8 154.21 137.7 154.32 137.62 154.43 137.54 154.54 137.47 154.66 137.41 154.79 137.36 154.92 137.31 155.05 137.27 155.18 137.25 155.32 137.22 155.46 137.21 155.6 137.21 155.74 137.22 155.88 137.23 156.02 137.26 156.15 137.29 156.29 137.33 156.42 137.38 156.55 137.44 156.68 137.51 156.8 137.58 156.92 137.66 157.04 137.75 157.14 137.84 157.25 137.94 157.34 138.05 157.43 138.16 157.51 138.28 157.59 138.4 157.66 138.53 157.72 138.66 157.77 138.79 157.81 138.93 157.85 139.06 157.88 139.2 157.89 139.34 157.9 139.48 157.9 139.62 157.89 139.76 157.88 139.9 157.85 140.03 157.81 140.16 157.77 140.29 157.72 140.42 157.66 140.54 157.59 140.66 157.51 140.77 157.43 140.88 157.34 140.98 157.25 141.07 157.14 141.16 157.04 141.24 156.92 141.32 156.8 141.38 156.68 141.44 156.55 141.49 156.42 141.53 156.29 141.57 156.15 141.59 156.02 141.61 155.88 141.61 155.74 141.61 155.6 141.6 155.46 141.58 155.32 141.55 155.18 141.51 155.05 141.47 154.92 141.41 154.79 141.35 154.66 141.28 154.54 141.2 154.43 141.12 154.32 141.03 154.21 140.93 154.11 140.83 154.02 140.72 153.93 140.6 153.85 140.48 153.78 140.36 153.72 140.23 153.66 140.1 153.61 139.97 153.57 139.83 153.54 139.69 153.52 139.55 153.51 139.41 153.5"/><line class="cls-37" x1="111.95" y1="155.78" x2="116.16" y2="155.78"/><text class="cls-28" transform="translate(174.32 76.9)">J2/5</text><text class="cls-39" transform="translate(1.7 18.19) scale(0.94 1)">PreQ</text><text class="cls-40" transform="translate(46.52 24.85) scale(0.55 0.58)">1</text><text class="cls-39" transform="translate(52.61 18.19) scale(0.94 1)">-III Riboswitch</text></svg>