<svg id="图层_1" data-name="图层 1" xmlns="http://www.w3.org/2000/svg" viewBox="0 0 400 400"><defs><style>.cls-1,.cls-32{fill:#ff0b0c;}.cls-10,.cls-12,.cls-13,.cls-14,.cls-15,.cls-16,.cls-17,.cls-18,.cls-2,.cls-3,.cls-6,.cls-7,.cls-8,.cls-9{isolation:isolate;font-size:12.99px;}.cls-2,.cls-24,.cls-3{fill:#0a0bff;}.cls-10,.cls-12,.cls-13,.cls-14,.cls-15,.cls-16,.cls-17,.cls-18,.cls-2,.cls-21,.cls-23,.cls-24,.cls-25,.cls-26,.cls-27,.cls-28,.cls-29,.cls-3,.cls-30,.cls-6,.cls-7,.cls-8,.cls-9{font-family:ArialMT, Arial;}.cls-12,.cls-15,.cls-3,.cls-6{letter-spacing:-0.06em;}.cls-19,.cls-20,.cls-31,.cls-4{fill:none;}.cls-11,.cls-19,.cls-20,.cls-4,.cls-5{stroke:#000;}.cls-11,.cls-19,.cls-20,.cls-31,.cls-32,.cls-4,.cls-5{stroke-miterlimit:1.14;}.cls-11,.cls-31,.cls-32,.cls-4,.cls-5{stroke-width:0.14px;}.cls-5{fill:#fff;}.cls-23,.cls-6,.cls-7{fill:#c2c2ff;}.cls-12,.cls-27,.cls-8{fill:#80db9e;}.cls-10,.cls-28,.cls-9{fill:#ffdf5c;}.cls-10,.cls-14,.cls-17{letter-spacing:-0.06em;}.cls-13,.cls-15,.cls-26{fill:#ffaadc;}.cls-14,.cls-18,.cls-29{fill:#09fefe;}.cls-16,.cls-17,.cls-25{fill:#ff870a;}.cls-19{stroke-width:1.11px;}.cls-20{stroke-width:0.75px;}.cls-21{font-size:12px;}.cls-22{letter-spacing:-0.04em;}.cls-23,.cls-24,.cls-25,.cls-26,.cls-27,.cls-28,.cls-29{font-size:16px;}.cls-30{font-size:8px;fill:#251e1c;}.cls-31,.cls-32{stroke:#ff0b0c;}</style></defs><rect class="cls-1" x="126.43" y="117.91" width="21.06" height="9.45"/><text class="cls-2" transform="translate(158.15 258.56)">G</text><text class="cls-2" transform="translate(158.15 271.36)">G</text><text class="cls-3" transform="translate(158.87 284.16)">A</text><text class="cls-3" transform="translate(158.87 296.96)">A</text><text class="cls-2" transform="translate(158.51 309.76)">C</text><text class="cls-2" transform="translate(158.51 322.56)">C</text><text class="cls-2" transform="translate(158.15 335.36)">G</text><text class="cls-2" transform="translate(158.51 348.16)">C</text><text class="cls-2" transform="translate(164.55 360.96)">G</text><text class="cls-3" transform="translate(152.47 373.76)">A</text><text class="cls-3" transform="translate(139.67 373.76)">A</text><text class="cls-3" transform="translate(126.87 360.96)">A</text><text class="cls-2" transform="translate(132.55 348.16)">G</text><text class="cls-2" transform="translate(132.91 335.36)">C</text><text class="cls-2" transform="translate(132.55 322.56)">G</text><text class="cls-2" transform="translate(132.55 309.76)">G</text><text class="cls-2" transform="translate(132.91 296.96)">U</text><text class="cls-2" transform="translate(132.91 284.16)">U</text><text class="cls-2" transform="translate(132.91 271.36)">C</text><text class="cls-2" transform="translate(132.91 258.56)">C</text><line class="cls-4" x1="158.08" y1="252.8" x2="142.72" y2="252.8"/><line class="cls-4" x1="158.08" y1="265.6" x2="142.72" y2="265.6"/><line class="cls-4" x1="158.08" y1="278.4" x2="142.72" y2="278.4"/><line class="cls-4" x1="158.08" y1="291.2" x2="142.72" y2="291.2"/><line class="cls-4" x1="158.08" y1="304" x2="142.72" y2="304"/><line class="cls-4" x1="158.08" y1="316.8" x2="142.72" y2="316.8"/><line class="cls-4" x1="158.08" y1="329.6" x2="142.72" y2="329.6"/><line class="cls-4" x1="158.08" y1="342.4" x2="142.72" y2="342.4"/><line class="cls-4" x1="164.48" y1="355.2" x2="136.32" y2="355.2"/><polygon class="cls-5" points="157.05 355.2 152.06 352.32 152.06 358.08 157.05 355.2"/><polygon class="cls-5" points="144.51 357.76 149.63 357.76 149.63 352.64 144.51 352.64 144.51 357.76"/><text class="cls-6" transform="translate(133.27 242.56)">A</text><text class="cls-7" transform="translate(132.91 229.76)">C</text><text class="cls-7" transform="translate(132.55 216.96)">G</text><text class="cls-6" transform="translate(133.27 204.16)">A</text><text class="cls-7" transform="translate(132.91 191.36)">C</text><text class="cls-7" transform="translate(132.55 178.56)">G</text><text class="cls-6" transform="translate(133.27 165.76)">A</text><text class="cls-7" transform="translate(132.91 152.96)">U</text><text class="cls-6" transform="translate(133.27 140.16)">A</text><text class="cls-8" transform="translate(104.11 127.36)">C</text><text class="cls-8" transform="translate(104.11 114.56)">U</text><text class="cls-8" transform="translate(104.11 101.76)">U</text><text class="cls-7" transform="translate(158.15 140.16)">G</text><text class="cls-6" transform="translate(158.87 152.96)">A</text><text class="cls-7" transform="translate(158.51 165.76)">U</text><text class="cls-7" transform="translate(158.51 178.56)">C</text><text class="cls-7" transform="translate(158.15 191.36)">G</text><text class="cls-7" transform="translate(158.51 204.16)">U</text><text class="cls-7" transform="translate(158.51 216.96)">C</text><text class="cls-7" transform="translate(158.15 229.76)">G</text><text class="cls-7" transform="translate(158.51 242.56)">U</text><text class="cls-9" transform="translate(209.71 242.56)">U</text><text class="cls-10" transform="translate(222.87 239.36)">A</text><text class="cls-9" transform="translate(222.51 226.56)">U</text><line class="cls-4" x1="142.72" y1="236.8" x2="158.08" y2="236.8"/><line class="cls-4" x1="142.72" y1="224" x2="158.08" y2="224"/><line class="cls-4" x1="142.72" y1="211.2" x2="158.08" y2="211.2"/><line class="cls-4" x1="142.72" y1="198.4" x2="158.08" y2="198.4"/><line class="cls-4" x1="142.72" y1="185.6" x2="158.08" y2="185.6"/><line class="cls-4" x1="142.72" y1="172.8" x2="158.08" y2="172.8"/><line class="cls-4" x1="142.72" y1="160" x2="158.08" y2="160"/><line class="cls-4" x1="142.72" y1="147.2" x2="158.08" y2="147.2"/><line class="cls-4" x1="142.72" y1="134.4" x2="158.08" y2="134.4"/><polygon class="cls-11" points="152.96 134.4 152.96 134.24 152.94 134.08 152.91 133.91 152.88 133.76 152.83 133.6 152.78 133.45 152.71 133.3 152.64 133.16 152.55 133.02 152.46 132.88 152.36 132.75 152.25 132.63 152.14 132.52 152.01 132.41 151.88 132.31 151.75 132.22 151.61 132.14 151.46 132.07 151.31 132.01 151.16 131.96 151 131.91 150.84 131.88 150.68 131.86 150.52 131.84 150.36 131.84 150.2 131.85 150.04 131.87 149.88 131.89 149.72 131.93 149.56 131.98 149.41 132.04 149.26 132.11 149.12 132.18 148.98 132.27 148.85 132.36 148.72 132.47 148.6 132.58 148.49 132.69 148.39 132.82 148.29 132.95 148.2 133.09 148.13 133.23 148.06 133.37 147.99 133.53 147.94 133.68 147.9 133.84 147.87 134 147.85 134.16 147.84 134.32 147.84 134.48 147.85 134.64 147.87 134.81 147.9 134.96 147.94 135.12 147.99 135.28 148.06 135.43 148.13 135.57 148.2 135.72 148.29 135.85 148.39 135.98 148.49 136.11 148.6 136.22 148.72 136.34 148.85 136.44 148.98 136.53 149.12 136.62 149.26 136.69 149.41 136.76 149.56 136.82 149.72 136.87 149.88 136.91 150.04 136.93 150.2 136.95 150.36 136.96 150.52 136.96 150.68 136.94 150.84 136.92 151 136.89 151.16 136.84 151.31 136.79 151.46 136.73 151.61 136.66 151.75 136.57 151.88 136.49 152.01 136.39 152.14 136.28 152.25 136.17 152.36 136.05 152.46 135.92 152.55 135.78 152.64 135.65 152.71 135.5 152.78 135.35 152.83 135.2 152.88 135.04 152.91 134.88 152.94 134.72 152.96 134.56 152.96 134.4"/><polyline class="cls-4" points="113.38 106.51 121.6 102.4 176 102.4 184.22 106.51"/><polygon class="cls-11" points="142.91 102.4 142.92 102.56 142.93 102.72 142.96 102.89 142.99 103.04 143.04 103.2 143.1 103.35 143.16 103.5 143.24 103.64 143.32 103.78 143.41 103.92 143.51 104.05 143.62 104.17 143.74 104.28 143.86 104.39 143.99 104.48 144.12 104.58 144.26 104.66 144.41 104.73 144.56 104.79 144.71 104.84 144.87 104.89 145.03 104.92 145.19 104.94 145.35 104.96 145.51 104.96 145.68 104.95 145.84 104.93 146 104.91 146.15 104.87 146.31 104.82 146.46 104.76 146.61 104.69 146.75 104.62 146.89 104.53 147.02 104.44 147.15 104.33 147.27 104.22 147.38 104.11 147.48 103.98 147.58 103.85 147.67 103.72 147.75 103.57 147.82 103.43 147.88 103.28 147.93 103.12 147.97 102.96 148 102.81 148.02 102.64 148.03 102.48 148.03 102.32 148.02 102.16 148 102 147.97 101.84 147.93 101.68 147.88 101.53 147.82 101.37 147.75 101.23 147.67 101.08 147.58 100.95 147.48 100.82 147.38 100.69 147.27 100.58 147.15 100.47 147.02 100.36 146.89 100.27 146.75 100.18 146.61 100.11 146.46 100.04 146.31 99.98 146.15 99.93 146 99.89 145.84 99.87 145.68 99.85 145.51 99.84 145.35 99.84 145.19 99.86 145.03 99.88 144.87 99.91 144.71 99.95 144.56 100.01 144.41 100.07 144.26 100.14 144.12 100.22 143.99 100.31 143.86 100.41 143.74 100.52 143.62 100.63 143.51 100.75 143.41 100.88 143.32 101.02 143.24 101.16 143.16 101.3 143.1 101.45 143.04 101.6 142.99 101.76 142.96 101.92 142.93 102.08 142.92 102.24 142.91 102.4"/><polygon class="cls-11" points="154.69 99.84 149.57 99.84 149.57 104.96 154.69 104.96 154.69 99.84"/><polyline class="cls-4" points="113.38 93.71 121.6 89.6 176 89.6 184.22 93.71"/><polygon class="cls-11" points="142.91 89.6 142.92 89.76 142.93 89.92 142.96 90.08 142.99 90.24 143.04 90.4 143.1 90.55 143.16 90.7 143.24 90.84 143.32 90.98 143.41 91.12 143.51 91.25 143.62 91.37 143.74 91.48 143.86 91.59 143.99 91.69 144.12 91.78 144.26 91.86 144.41 91.93 144.56 91.99 144.71 92.05 144.87 92.09 145.03 92.12 145.19 92.14 145.35 92.16 145.51 92.16 145.68 92.15 145.84 92.13 146 92.11 146.15 92.07 146.31 92.02 146.46 91.96 146.61 91.89 146.75 91.82 146.89 91.73 147.02 91.64 147.15 91.53 147.27 91.42 147.38 91.31 147.48 91.18 147.58 91.05 147.67 90.92 147.75 90.77 147.82 90.63 147.88 90.47 147.93 90.32 147.97 90.16 148 90 148.02 89.84 148.03 89.68 148.03 89.52 148.02 89.36 148 89.19 147.97 89.04 147.93 88.88 147.88 88.72 147.82 88.57 147.75 88.43 147.67 88.28 147.58 88.15 147.48 88.02 147.38 87.89 147.27 87.78 147.15 87.67 147.02 87.56 146.89 87.47 146.75 87.38 146.61 87.31 146.46 87.24 146.31 87.18 146.15 87.13 146 87.09 145.84 87.07 145.68 87.05 145.51 87.04 145.35 87.04 145.19 87.06 145.03 87.08 144.87 87.11 144.71 87.16 144.56 87.21 144.41 87.27 144.26 87.34 144.12 87.42 143.99 87.52 143.86 87.61 143.74 87.72 143.62 87.83 143.51 87.95 143.41 88.08 143.32 88.22 143.24 88.36 143.16 88.5 143.1 88.65 143.04 88.8 142.99 88.96 142.96 89.11 142.93 89.28 142.92 89.44 142.91 89.6"/><polygon class="cls-11" points="154.69 87.04 149.57 87.04 149.57 92.16 154.69 92.16 154.69 87.04"/><text class="cls-12" transform="translate(104.47 88.96)">A</text><text class="cls-13" transform="translate(158.51 37.76)">U</text><text class="cls-13" transform="translate(158.51 50.56)">U</text><text class="cls-13" transform="translate(158.51 63.36)">U</text><text class="cls-13" transform="translate(158.51 76.16)">C</text><text class="cls-13" transform="translate(158.51 88.96)">C</text><text class="cls-13" transform="translate(158.51 101.76)">U</text><text class="cls-13" transform="translate(158.51 114.56)">U</text><text class="cls-13" transform="translate(158.51 127.36)">U</text><text class="cls-14" transform="translate(194.07 127.36)">A</text><text class="cls-15" transform="translate(184.47 114.56)">A</text><text class="cls-15" transform="translate(184.47 101.76)">A</text><text class="cls-13" transform="translate(183.75 88.96)">G</text><text class="cls-13" transform="translate(183.75 76.16)">G</text><text class="cls-15" transform="translate(184.47 63.36)">A</text><text class="cls-13" transform="translate(183.75 50.56)">G</text><text class="cls-15" transform="translate(184.47 37.76)">A</text><line class="cls-4" x1="168.32" y1="44.8" x2="183.68" y2="44.8"/><polygon class="cls-5" points="170.11 47.36 175.23 47.36 175.23 42.24 170.11 42.24 170.11 47.36"/><polygon class="cls-5" points="182.65 44.8 177.66 41.92 177.66 47.68 182.65 44.8"/><line class="cls-4" x1="168.32" y1="57.6" x2="183.68" y2="57.6"/><line class="cls-4" x1="168.32" y1="70.4" x2="183.68" y2="70.4"/><line class="cls-4" x1="168.32" y1="83.2" x2="183.68" y2="83.2"/><line class="cls-4" x1="168.32" y1="96" x2="183.68" y2="96"/><line class="cls-4" x1="168.32" y1="108.8" x2="183.68" y2="108.8"/><text class="cls-9" transform="translate(222.51 213.76)">U</text><text class="cls-10" transform="translate(222.87 200.96)">A</text><text class="cls-9" transform="translate(222.51 188.16)">C</text><text class="cls-16" transform="translate(222.51 175.36)">U</text><text class="cls-16" transform="translate(234.95 175.36)">G</text><text class="cls-16" transform="translate(247.75 175.36)">G</text><text class="cls-16" transform="translate(260.91 175.36)">C</text><text class="cls-16" transform="translate(273.71 178.56)">U</text><text class="cls-16" transform="translate(286.51 168.96)">U</text><text class="cls-16" transform="translate(286.51 156.16)">C</text><text class="cls-16" transform="translate(273.35 146.56)">G</text><text class="cls-16" transform="translate(260.55 149.76)">G</text><text class="cls-16" transform="translate(248.11 149.76)">C</text><text class="cls-16" transform="translate(235.31 149.76)">C</text><text class="cls-17" transform="translate(222.87 149.76)">A</text><text class="cls-18" transform="translate(206.51 140.16)">C</text><polyline class="cls-4" points="222.08 195.2 208 195.2 208 138.02 207.81 138.24"/><polygon class="cls-5" points="210.56 172.5 210.56 167.38 205.44 167.38 205.44 172.5 210.56 172.5"/><polygon class="cls-5" points="208 160.72 207.84 160.73 207.68 160.74 207.51 160.77 207.36 160.8 207.2 160.85 207.05 160.91 206.9 160.97 206.75 161.04 206.62 161.13 206.48 161.22 206.35 161.32 206.23 161.43 206.12 161.54 206.01 161.67 205.91 161.8 205.82 161.93 205.74 162.07 205.67 162.22 205.61 162.37 205.56 162.52 205.51 162.68 205.48 162.84 205.46 163 205.44 163.16 205.44 163.32 205.45 163.49 205.47 163.65 205.49 163.81 205.53 163.96 205.58 164.12 205.64 164.27 205.71 164.42 205.78 164.56 205.87 164.7 205.96 164.83 206.06 164.96 206.18 165.08 206.29 165.19 206.42 165.29 206.55 165.39 206.69 165.48 206.83 165.56 206.97 165.63 207.13 165.69 207.28 165.74 207.44 165.78 207.59 165.81 207.76 165.83 207.92 165.84 208.08 165.84 208.24 165.83 208.41 165.81 208.56 165.78 208.72 165.74 208.88 165.69 209.03 165.63 209.17 165.56 209.31 165.48 209.45 165.39 209.58 165.29 209.71 165.19 209.82 165.08 209.94 164.96 210.04 164.83 210.13 164.7 210.22 164.56 210.29 164.42 210.36 164.27 210.42 164.12 210.47 163.96 210.51 163.81 210.53 163.65 210.55 163.49 210.56 163.32 210.56 163.16 210.54 163 210.52 162.84 210.49 162.68 210.44 162.52 210.39 162.37 210.33 162.22 210.26 162.07 210.18 161.93 210.09 161.8 209.99 161.67 209.88 161.54 209.77 161.43 209.65 161.32 209.52 161.22 209.38 161.13 209.25 161.04 209.1 160.97 208.95 160.91 208.8 160.85 208.64 160.8 208.49 160.77 208.32 160.74 208.16 160.73 208 160.72"/><polyline class="cls-4" points="222.08 182.4 214.4 182.4 214.4 138.02 214.59 138.24"/><polygon class="cls-11" points="214.4 157.65 214.24 157.66 214.08 157.67 213.91 157.7 213.76 157.73 213.6 157.78 213.45 157.83 213.3 157.9 213.16 157.97 213.02 158.06 212.88 158.15 212.75 158.25 212.63 158.36 212.52 158.47 212.41 158.6 212.31 158.72 212.22 158.86 212.14 159 212.07 159.15 212.01 159.3 211.96 159.45 211.91 159.61 211.88 159.77 211.86 159.93 211.84 160.09 211.84 160.25 211.85 160.41 211.87 160.57 211.89 160.74 211.93 160.89 211.98 161.05 212.04 161.2 212.11 161.35 212.18 161.49 212.27 161.63 212.36 161.76 212.47 161.89 212.58 162.01 212.69 162.12 212.82 162.22 212.95 162.32 213.09 162.41 213.23 162.49 213.37 162.56 213.53 162.62 213.68 162.67 213.84 162.71 214 162.74 214.16 162.76 214.32 162.77 214.48 162.77 214.64 162.76 214.81 162.74 214.96 162.71 215.12 162.67 215.28 162.62 215.43 162.56 215.57 162.49 215.72 162.41 215.85 162.32 215.98 162.22 216.11 162.12 216.22 162.01 216.34 161.89 216.44 161.76 216.53 161.63 216.62 161.49 216.69 161.35 216.76 161.2 216.82 161.05 216.87 160.89 216.91 160.74 216.93 160.57 216.95 160.41 216.96 160.25 216.96 160.09 216.94 159.93 216.92 159.77 216.89 159.61 216.84 159.45 216.79 159.3 216.73 159.15 216.66 159 216.57 158.86 216.49 158.72 216.39 158.6 216.28 158.47 216.17 158.36 216.05 158.25 215.92 158.15 215.78 158.06 215.65 157.97 215.5 157.9 215.35 157.83 215.2 157.78 215.04 157.73 214.88 157.7 214.72 157.67 214.56 157.66 214.4 157.65"/><line class="cls-4" x1="227.2" y1="164.48" x2="227.2" y2="149.12"/><line class="cls-4" x1="240" y1="164.48" x2="240" y2="149.12"/><line class="cls-4" x1="252.8" y1="164.48" x2="252.8" y2="149.12"/><line class="cls-4" x1="265.6" y1="164.48" x2="265.6" y2="149.12"/><line class="cls-19" x1="168.32" y1="236.8" x2="209.28" y2="236.8"/><polygon class="cls-11" points="184.53 232.96 186.67 234.88 188.8 235.52 190.93 235.84 195.2 236.8 190.93 237.76 188.8 238.08 186.67 238.72 184.53 240.64 184.53 232.96"/><polyline class="cls-19" points="132.48 134.4 108.8 134.4 108.8 126.72"/><polygon class="cls-11" points="124.91 138.24 122.77 136.32 120.64 135.68 118.51 135.36 114.24 134.4 118.51 133.44 120.64 133.12 122.77 132.48 124.91 130.56 124.91 138.24"/><polyline class="cls-19" points="108.8 78.08 108.8 32 158.08 32"/><polygon class="cls-11" points="104.96 59.31 106.88 57.17 107.52 55.04 107.84 52.91 108.8 48.64 109.76 52.91 110.08 55.04 110.72 57.17 112.64 59.31 104.96 59.31"/><line class="cls-20" x1="169.78" y1="254.15" x2="180.68" y2="254.15"/><line class="cls-20" x1="194.55" y1="32" x2="205.45" y2="32"/><text class="cls-21" transform="translate(183.68 258.72)">5<tspan class="cls-22" x="6.67" y="0">’</tspan></text><text class="cls-21" transform="translate(208 37.76)">3<tspan class="cls-22" x="6.67" y="0">’</tspan></text><text class="cls-21" transform="translate(161.16 373.76)">10</text><text class="cls-21" transform="translate(119.57 258.56)">20</text><text class="cls-21" transform="translate(90.29 127.52)">30</text><text class="cls-21" transform="translate(167.56 118.06)">40</text><text class="cls-21" transform="translate(167.43 246.78)">50</text><text class="cls-21" transform="translate(259.18 185.6)">60</text><text class="cls-21" transform="translate(202.76 126.72)">70</text><text class="cls-23" transform="translate(102.28 203.41)">P2</text><text class="cls-24" transform="translate(102.28 316.8)">P1</text><text class="cls-25" transform="translate(242.52 200)">P4</text><text class="cls-26" transform="translate(200 66.71)">P3</text><text class="cls-27" transform="translate(69 109.44)">J2/3</text><text class="cls-28" transform="translate(230.83 252.8)">J2/4</text><text class="cls-29" transform="translate(214.4 115.95)">J4/3</text><text class="cls-30" transform="translate(126.24 124.08)">PreQ</text><text class="cls-30" transform="translate(144.91 126.75) scale(0.58)">1</text><line class="cls-31" x1="148.12" y1="122.79" x2="158.87" y2="122.79"/><polygon class="cls-32" points="153.1 125.67 153.11 119.91 148.12 122.78 153.1 125.67"/><polygon class="cls-32" points="156.6 120.23 156.44 120.23 156.28 120.25 156.12 120.27 155.96 120.31 155.8 120.36 155.65 120.41 155.5 120.48 155.36 120.55 155.22 120.64 155.08 120.73 154.95 120.83 154.83 120.94 154.72 121.05 154.61 121.17 154.51 121.3 154.43 121.44 154.34 121.58 154.27 121.72 154.21 121.87 154.16 122.03 154.11 122.18 154.08 122.34 154.06 122.5 154.04 122.67 154.04 122.83 154.05 122.99 154.07 123.15 154.09 123.31 154.13 123.47 154.18 123.63 154.24 123.78 154.31 123.92 154.38 124.07 154.47 124.21 154.56 124.34 154.67 124.46 154.78 124.58 154.89 124.7 155.02 124.8 155.15 124.9 155.28 124.98 155.43 125.06 155.57 125.13 155.72 125.19 155.88 125.24 156.04 125.28 156.19 125.32 156.36 125.34 156.52 125.35 156.68 125.35 156.84 125.34 157 125.32 157.16 125.28 157.32 125.24 157.48 125.19 157.63 125.13 157.77 125.06 157.91 124.98 158.05 124.9 158.18 124.8 158.31 124.7 158.43 124.58 158.53 124.46 158.64 124.34 158.73 124.21 158.82 124.07 158.89 123.92 158.96 123.78 159.02 123.63 159.07 123.47 159.11 123.31 159.13 123.15 159.15 122.99 159.16 122.83 159.16 122.67 159.15 122.5 159.12 122.34 159.09 122.18 159.04 122.03 158.99 121.87 158.93 121.72 158.86 121.58 158.78 121.44 158.69 121.3 158.59 121.17 158.48 121.05 158.37 120.94 158.25 120.83 158.12 120.73 157.98 120.64 157.84 120.55 157.7 120.48 157.55 120.41 157.4 120.36 157.24 120.31 157.09 120.27 156.92 120.25 156.76 120.23 156.6 120.23"/><line class="cls-31" x1="113.32" y1="122.79" x2="124.91" y2="122.79"/></svg>