<svg id="图层_1" data-name="图层 1" xmlns="http://www.w3.org/2000/svg" viewBox="0 0 400 400"><defs><style>.cls-1,.cls-10,.cls-11,.cls-12,.cls-13,.cls-14,.cls-16,.cls-17,.cls-18,.cls-19,.cls-2,.cls-20,.cls-21,.cls-24,.cls-3,.cls-4,.cls-7,.cls-8,.cls-9{isolation:isolate;}.cls-1,.cls-10,.cls-11,.cls-12,.cls-13,.cls-14,.cls-16,.cls-17,.cls-18,.cls-19,.cls-2,.cls-20,.cls-21,.cls-3,.cls-7,.cls-8,.cls-9{font-size:10.86px;}.cls-1,.cls-2,.cls-32{fill:#0a0bff;}.cls-1,.cls-10,.cls-11,.cls-12,.cls-13,.cls-14,.cls-16,.cls-17,.cls-18,.cls-19,.cls-2,.cls-20,.cls-21,.cls-24,.cls-26,.cls-27,.cls-28,.cls-29,.cls-3,.cls-30,.cls-31,.cls-32,.cls-33,.cls-34,.cls-36,.cls-4,.cls-7,.cls-8,.cls-9{font-family:ArialMT, Arial;}.cls-11,.cls-12,.cls-17,.cls-18,.cls-2,.cls-7,.cls-9{letter-spacing:-0.06em;}.cls-3,.cls-33,.cls-7{fill:#80db9e;}.cls-36,.cls-4{font-size:6px;}.cls-22,.cls-23,.cls-37,.cls-5{fill:none;}.cls-15,.cls-22,.cls-5,.cls-6{stroke:#000;}.cls-15,.cls-22,.cls-37,.cls-38,.cls-5,.cls-6{stroke-miterlimit:1.14;}.cls-15,.cls-37,.cls-38,.cls-5,.cls-6{stroke-width:0.14px;}.cls-29,.cls-8,.cls-9{fill:#c2c2ff;}.cls-10,.cls-34{fill:#ffaadc;}.cls-11,.cls-20,.cls-30{fill:#09fefe;}.cls-12,.cls-14,.cls-28{fill:#797979;}.cls-13,.cls-26{fill:#e809e8;}.cls-15{fill:#fff;}.cls-16,.cls-17,.cls-31{fill:#ffdf5c;}.cls-18,.cls-19,.cls-21,.cls-27{fill:#ff870a;}.cls-21{letter-spacing:-0.06em;}.cls-22{stroke-width:1.03px;}.cls-23{stroke:#251e1c;stroke-miterlimit:10;stroke-width:0.5px;}.cls-24{font-size:10px;}.cls-25{letter-spacing:-0.04em;}.cls-26,.cls-27,.cls-28,.cls-29,.cls-30,.cls-31,.cls-32,.cls-33,.cls-34{font-size:14px;}.cls-35,.cls-38{fill:#ff0b0c;}.cls-36{fill:#251e1c;}.cls-37,.cls-38{stroke:#ff0b0c;}</style></defs><text class="cls-1" transform="translate(130.6 230.13)">G</text><text class="cls-2" transform="translate(131.2 219.04)">A</text><text class="cls-1" transform="translate(130.6 207.94)">G</text><text class="cls-1" transform="translate(130.9 196.85)">C</text><text class="cls-2" transform="translate(109.01 174.66)">A</text><text class="cls-2" transform="translate(109.01 163.56)">A</text><text class="cls-3" transform="translate(100.24 149.7)">C</text><text class="cls-2" transform="translate(131.2 163.56)">A</text><text class="cls-1" transform="translate(130.6 174.66)">G</text><text class="cls-1" transform="translate(108.41 196.85)">G</text><text class="cls-4" transform="translate(101.89 195.09)">20</text><text class="cls-1" transform="translate(108.71 207.94)">C</text><text class="cls-1" transform="translate(108.71 219.04)">U</text><text class="cls-1" transform="translate(108.71 230.13)">C</text><line class="cls-5" x1="130.38" y1="225.14" x2="117.07" y2="225.14"/><line class="cls-5" x1="130.38" y1="214.04" x2="117.07" y2="214.04"/><line class="cls-5" x1="130.38" y1="202.95" x2="117.07" y2="202.95"/><line class="cls-5" x1="130.38" y1="191.85" x2="117.07" y2="191.85"/><line class="cls-5" x1="117.07" y1="169.67" x2="130.38" y2="169.67"/><polygon class="cls-6" points="125.94 169.66 125.94 169.52 125.92 169.38 125.9 169.25 125.87 169.11 125.83 168.97 125.78 168.84 125.73 168.71 125.66 168.59 125.59 168.47 125.51 168.35 125.42 168.24 125.33 168.13 125.23 168.03 125.12 167.94 125.01 167.86 124.89 167.78 124.77 167.71 124.64 167.65 124.52 167.59 124.38 167.55 124.25 167.51 124.11 167.48 123.97 167.46 123.83 167.45 123.69 167.45 123.55 167.45 123.41 167.47 123.27 167.49 123.13 167.53 123 167.57 122.86 167.62 122.74 167.68 122.61 167.74 122.49 167.82 122.38 167.9 122.27 167.99 122.17 168.08 122.07 168.19 121.98 168.29 121.89 168.41 121.82 168.53 121.75 168.65 121.69 168.78 121.64 168.91 121.59 169.04 121.56 169.18 121.53 169.31 121.51 169.45 121.5 169.59 121.5 169.74 121.51 169.88 121.53 170.02 121.56 170.15 121.59 170.29 121.64 170.42 121.69 170.56 121.75 170.68 121.82 170.81 121.89 170.92 121.98 171.04 122.07 171.15 122.17 171.25 122.27 171.34 122.38 171.43 122.49 171.51 122.61 171.59 122.74 171.65 122.86 171.71 123 171.76 123.13 171.8 123.27 171.84 123.41 171.86 123.55 171.88 123.69 171.88 123.83 171.88 123.97 171.87 124.11 171.85 124.25 171.82 124.38 171.78 124.52 171.74 124.64 171.68 124.77 171.62 124.89 171.55 125.01 171.47 125.12 171.39 125.23 171.29 125.33 171.2 125.42 171.09 125.51 170.98 125.59 170.87 125.66 170.74 125.73 170.62 125.78 170.49 125.83 170.36 125.87 170.22 125.9 170.09 125.92 169.95 125.94 169.81 125.94 169.66"/><line class="cls-5" x1="117.07" y1="158.57" x2="130.38" y2="158.57"/><polygon class="cls-6" points="125.94 158.57 125.94 158.43 125.92 158.29 125.9 158.15 125.87 158.01 125.83 157.88 125.78 157.75 125.73 157.62 125.66 157.49 125.59 157.37 125.51 157.25 125.42 157.14 125.33 157.04 125.23 156.94 125.12 156.85 125.01 156.76 124.89 156.69 124.77 156.61 124.64 156.55 124.52 156.5 124.38 156.45 124.25 156.41 124.11 156.38 123.97 156.37 123.83 156.35 123.69 156.35 123.55 156.36 123.41 156.37 123.27 156.4 123.13 156.43 123 156.47 122.86 156.52 122.74 156.58 122.61 156.65 122.49 156.72 122.38 156.8 122.27 156.89 122.17 156.99 122.07 157.09 121.98 157.2 121.89 157.31 121.82 157.43 121.75 157.55 121.69 157.68 121.64 157.81 121.59 157.94 121.56 158.08 121.53 158.22 121.51 158.36 121.5 158.5 121.5 158.64 121.51 158.78 121.53 158.92 121.56 159.06 121.59 159.19 121.64 159.33 121.69 159.46 121.75 159.59 121.82 159.71 121.89 159.83 121.98 159.94 122.07 160.05 122.17 160.15 122.27 160.25 122.38 160.34 122.49 160.42 122.61 160.49 122.74 160.56 122.86 160.62 123 160.67 123.13 160.71 123.27 160.74 123.41 160.77 123.55 160.78 123.69 160.79 123.83 160.79 123.97 160.78 124.11 160.75 124.25 160.73 124.38 160.69 124.52 160.64 124.64 160.59 124.77 160.53 124.89 160.46 125.01 160.38 125.12 160.29 125.23 160.2 125.33 160.1 125.42 160 125.51 159.89 125.59 159.77 125.66 159.65 125.73 159.52 125.78 159.4 125.83 159.26 125.87 159.13 125.9 158.99 125.92 158.85 125.94 158.71 125.94 158.57"/><text class="cls-3" transform="translate(100.39 135.83)">U</text><text class="cls-3" transform="translate(100.39 124.73)">U</text><text class="cls-7" transform="translate(100.69 113.64)">A</text><text class="cls-4" transform="translate(93.86 111.67)">10</text><text class="cls-8" transform="translate(136.14 80.35)">G</text><text class="cls-8" transform="translate(136.14 91.45)">G</text><text class="cls-9" transform="translate(136.74 102.54)">A</text><text class="cls-8" transform="translate(136.45 113.64)">U</text><text class="cls-8" transform="translate(136.45 124.73)">U</text><text class="cls-8" transform="translate(136.45 135.83)">U</text><text class="cls-10" transform="translate(137.3 149.7)">U</text><text class="cls-11" transform="translate(172.8 135.83)">A</text><text class="cls-9" transform="translate(158.93 135.83)">A</text><text class="cls-9" transform="translate(158.93 124.73)">A</text><text class="cls-9" transform="translate(158.93 113.64)">A</text><text class="cls-8" transform="translate(158.63 102.54)">U</text><text class="cls-8" transform="translate(158.63 91.45)">U</text><text class="cls-8" transform="translate(158.63 80.35)">C</text><text class="cls-4" transform="translate(166.2 78.69)">90</text><text class="cls-12" transform="translate(158.93 69.26)">A</text><text class="cls-13" transform="translate(153.09 58.16)">U</text><text class="cls-13" transform="translate(141.99 58.16)">C</text><text class="cls-13" transform="translate(130.9 58.16)">C</text><text class="cls-13" transform="translate(119.5 58.16)">G</text><text class="cls-13" transform="translate(108.71 58.16)">C</text><text class="cls-13" transform="translate(97.61 58.16)">C</text><text class="cls-14" transform="translate(86.22 58.16)">G</text><text class="cls-14" transform="translate(75.12 58.16)">G</text><text class="cls-12" transform="translate(64.63 58.16)">A</text><text class="cls-4" transform="translate(62.81 64.14)">100</text><text class="cls-14" transform="translate(52.93 58.16)">G</text><polyline class="cls-5" points="108.28 128.85 115.4 125.29 134.82 125.29 151.46 125.29 158.59 128.85"/><polygon class="cls-6" points="120.01 125.29 120.01 125.43 120.02 125.57 120.05 125.71 120.08 125.84 120.12 125.98 120.17 126.11 120.22 126.24 120.29 126.36 120.36 126.48 120.44 126.6 120.53 126.71 120.62 126.82 120.72 126.92 120.83 127.01 120.94 127.09 121.06 127.17 121.18 127.24 121.3 127.3 121.43 127.36 121.57 127.4 121.7 127.44 121.84 127.47 121.98 127.49 122.12 127.5 122.26 127.5 122.4 127.5 122.54 127.48 122.68 127.46 122.82 127.42 122.95 127.38 123.08 127.33 123.21 127.27 123.33 127.21 123.45 127.13 123.57 127.05 123.68 126.96 123.78 126.87 123.88 126.77 123.97 126.66 124.05 126.54 124.13 126.42 124.2 126.3 124.26 126.17 124.31 126.04 124.35 125.91 124.39 125.77 124.42 125.64 124.43 125.5 124.44 125.36 124.44 125.22 124.43 125.07 124.42 124.94 124.39 124.8 124.35 124.66 124.31 124.53 124.26 124.4 124.2 124.27 124.13 124.15 124.05 124.03 123.97 123.91 123.88 123.81 123.78 123.7 123.68 123.61 123.57 123.52 123.45 123.44 123.33 123.36 123.21 123.3 123.08 123.24 122.95 123.19 122.82 123.15 122.68 123.11 122.54 123.09 122.4 123.07 122.26 123.07 122.12 123.07 121.98 123.08 121.84 123.1 121.7 123.13 121.57 123.17 121.43 123.21 121.3 123.27 121.18 123.33 121.06 123.4 120.94 123.48 120.83 123.56 120.72 123.66 120.62 123.75 120.53 123.86 120.44 123.97 120.36 124.09 120.29 124.21 120.22 124.33 120.17 124.46 120.12 124.59 120.08 124.73 120.05 124.87 120.02 125 120.01 125.14 120.01 125.29"/><polygon class="cls-6" points="130.21 123.07 125.78 123.07 125.78 127.5 130.21 127.5 130.21 123.07"/><polyline class="cls-5" points="108.28 117.75 115.4 114.19 134.82 114.19 151.46 114.19 158.59 117.75"/><polygon class="cls-6" points="120.01 114.19 120.01 114.33 120.02 114.47 120.05 114.61 120.08 114.75 120.12 114.88 120.17 115.02 120.22 115.14 120.29 115.27 120.36 115.39 120.44 115.51 120.53 115.62 120.62 115.72 120.72 115.82 120.83 115.91 120.94 116 121.06 116.08 121.18 116.15 121.3 116.21 121.43 116.26 121.57 116.31 121.7 116.35 121.84 116.38 121.98 116.4 122.12 116.41 122.26 116.41 122.4 116.4 122.54 116.39 122.68 116.36 122.82 116.33 122.95 116.29 123.08 116.24 123.21 116.18 123.33 116.11 123.45 116.04 123.57 115.96 123.68 115.87 123.78 115.77 123.88 115.67 123.97 115.56 124.05 115.45 124.13 115.33 124.2 115.21 124.26 115.08 124.31 114.95 124.35 114.82 124.39 114.68 124.42 114.54 124.43 114.4 124.44 114.26 124.44 114.12 124.43 113.98 124.42 113.84 124.39 113.7 124.35 113.56 124.31 113.43 124.26 113.3 124.2 113.17 124.13 113.05 124.05 112.93 123.97 112.82 123.88 112.71 123.78 112.61 123.68 112.51 123.57 112.42 123.45 112.34 123.33 112.27 123.21 112.2 123.08 112.14 122.95 112.09 122.82 112.05 122.68 112.02 122.54 111.99 122.4 111.98 122.26 111.97 122.12 111.97 121.98 111.98 121.84 112 121.7 112.03 121.57 112.07 121.43 112.12 121.3 112.17 121.18 112.23 121.06 112.31 120.94 112.38 120.83 112.47 120.72 112.56 120.62 112.66 120.53 112.76 120.44 112.88 120.36 112.99 120.29 113.11 120.22 113.24 120.17 113.37 120.12 113.5 120.08 113.63 120.05 113.77 120.02 113.91 120.01 114.05 120.01 114.19"/><polygon class="cls-6" points="130.21 111.97 125.78 111.97 125.78 116.41 130.21 116.41 130.21 111.97"/><polyline class="cls-5" points="108.28 106.66 115.4 103.1 134.82 103.1 151.46 103.1 158.59 106.66"/><polygon class="cls-15" points="120.01 103.1 120.01 103.24 120.02 103.38 120.05 103.52 120.08 103.65 120.12 103.79 120.17 103.92 120.22 104.05 120.29 104.17 120.36 104.3 120.44 104.41 120.53 104.52 120.62 104.63 120.72 104.73 120.83 104.82 120.94 104.9 121.06 104.98 121.18 105.05 121.3 105.11 121.43 105.17 121.57 105.22 121.7 105.25 121.84 105.28 121.98 105.3 122.12 105.31 122.26 105.31 122.4 105.31 122.54 105.29 122.68 105.27 122.82 105.23 122.95 105.19 123.08 105.14 123.21 105.08 123.33 105.02 123.45 104.94 123.57 104.86 123.68 104.77 123.78 104.68 123.88 104.58 123.97 104.47 124.05 104.35 124.13 104.24 124.2 104.11 124.26 103.98 124.31 103.86 124.35 103.72 124.39 103.58 124.42 103.45 124.43 103.31 124.44 103.17 124.44 103.03 124.43 102.89 124.42 102.75 124.39 102.61 124.35 102.47 124.31 102.34 124.26 102.21 124.2 102.08 124.13 101.96 124.05 101.84 123.97 101.72 123.88 101.62 123.78 101.51 123.68 101.42 123.57 101.33 123.45 101.25 123.33 101.17 123.21 101.11 123.08 101.05 122.95 101 122.82 100.96 122.68 100.92 122.54 100.9 122.4 100.88 122.26 100.88 122.12 100.88 121.98 100.89 121.84 100.91 121.7 100.94 121.57 100.98 121.43 101.02 121.3 101.08 121.18 101.14 121.06 101.21 120.94 101.29 120.83 101.37 120.72 101.47 120.62 101.56 120.53 101.67 120.44 101.78 120.36 101.9 120.29 102.02 120.22 102.14 120.17 102.27 120.12 102.4 120.08 102.54 120.05 102.68 120.02 102.81 120.01 102.95 120.01 103.1"/><polygon class="cls-15" points="130.21 100.88 125.78 100.88 125.78 105.31 130.21 105.31 130.21 100.88"/><line class="cls-5" x1="144.8" y1="75.36" x2="158.12" y2="75.36"/><polygon class="cls-6" points="153.68 86.45 153.68 86.31 153.66 86.17 153.64 86.03 153.61 85.9 153.57 85.76 153.52 85.63 153.46 85.5 153.4 85.37 153.33 85.25 153.25 85.14 153.16 85.03 153.07 84.92 152.97 84.82 152.86 84.73 152.75 84.65 152.63 84.57 152.51 84.5 152.38 84.44 152.25 84.38 152.12 84.33 151.98 84.3 151.84 84.27 151.71 84.25 151.56 84.24 151.43 84.23 151.28 84.24 151.14 84.26 151 84.28 150.87 84.31 150.73 84.36 150.6 84.41 150.47 84.47 150.35 84.53 150.23 84.61 150.12 84.69 150.01 84.78 149.9 84.87 149.81 84.97 149.72 85.08 149.63 85.19 149.56 85.31 149.49 85.44 149.43 85.56 149.38 85.69 149.33 85.83 149.29 85.97 149.27 86.1 149.25 86.24 149.24 86.38 149.24 86.52 149.25 86.66 149.27 86.8 149.29 86.94 149.33 87.08 149.38 87.21 149.43 87.34 149.49 87.47 149.56 87.59 149.63 87.71 149.72 87.83 149.81 87.93 149.9 88.03 150.01 88.13 150.12 88.22 150.23 88.3 150.35 88.38 150.47 88.44 150.6 88.5 150.73 88.55 150.87 88.59 151 88.63 151.14 88.65 151.28 88.67 151.43 88.67 151.56 88.67 151.71 88.66 151.84 88.64 151.98 88.61 152.12 88.57 152.25 88.53 152.38 88.47 152.51 88.41 152.63 88.34 152.75 88.26 152.86 88.17 152.97 88.08 153.07 87.98 153.16 87.88 153.25 87.77 153.33 87.65 153.4 87.53 153.46 87.41 153.52 87.28 153.57 87.15 153.61 87.01 153.64 86.87 153.66 86.73 153.68 86.59 153.68 86.45"/><line class="cls-5" x1="144.8" y1="97.55" x2="158.12" y2="97.55"/><line class="cls-5" x1="144.8" y1="108.64" x2="158.12" y2="108.64"/><line class="cls-5" x1="144.8" y1="119.74" x2="158.12" y2="119.74"/><line class="cls-5" x1="144.8" y1="130.83" x2="158.12" y2="130.83"/><text class="cls-16" transform="translate(108.71 244)">C</text><text class="cls-16" transform="translate(108.71 255.1)">C</text><text class="cls-16" transform="translate(108.71 266.19)">C</text><text class="cls-16" transform="translate(108.41 277.29)">G</text><text class="cls-16" transform="translate(108.41 288.38)">G</text><text class="cls-16" transform="translate(108.71 299.48)">C</text><text class="cls-16" transform="translate(108.41 310.57)">G</text><text class="cls-4" transform="translate(101.89 308.85)">30</text><text class="cls-16" transform="translate(108.71 321.67)">U</text><text class="cls-16" transform="translate(108.41 332.76)">G</text><text class="cls-16" transform="translate(103.16 343.85)">U</text><text class="cls-16" transform="translate(114.25 377.14)">C</text><text class="cls-16" transform="translate(127.82 377.14)">G</text><text class="cls-17" transform="translate(136.74 366.04)">A</text><text class="cls-17" transform="translate(139.52 354.95)">A</text><text class="cls-16" transform="translate(136.45 343.85)">C</text><text class="cls-4" transform="translate(144.53 342.51)">40</text><text class="cls-16" transform="translate(130.9 332.76)">C</text><text class="cls-17" transform="translate(131.2 321.67)">A</text><text class="cls-16" transform="translate(130.9 310.57)">U</text><text class="cls-16" transform="translate(130.6 299.48)">G</text><text class="cls-16" transform="translate(130.9 288.38)">C</text><text class="cls-16" transform="translate(130.9 277.29)">C</text><text class="cls-16" transform="translate(130.6 266.19)">G</text><text class="cls-16" transform="translate(130.6 255.1)">G</text><text class="cls-16" transform="translate(130.6 244)">G</text><text class="cls-14" transform="translate(186.37 221.81)">C</text><text class="cls-4" transform="translate(194.71 219.92)">50</text><text class="cls-14" transform="translate(186.37 207.94)">C</text><line class="cls-5" x1="117.07" y1="239.01" x2="130.38" y2="239.01"/><line class="cls-5" x1="117.07" y1="250.1" x2="130.38" y2="250.1"/><line class="cls-5" x1="117.07" y1="261.2" x2="130.38" y2="261.2"/><line class="cls-5" x1="117.07" y1="272.29" x2="130.38" y2="272.29"/><line class="cls-5" x1="117.07" y1="283.39" x2="130.38" y2="283.39"/><line class="cls-5" x1="117.07" y1="294.48" x2="130.38" y2="294.48"/><polygon class="cls-6" points="125.94 305.58 125.94 305.44 125.92 305.3 125.9 305.16 125.87 305.02 125.83 304.88 125.78 304.75 125.73 304.62 125.66 304.5 125.59 304.38 125.51 304.26 125.42 304.15 125.33 304.05 125.23 303.95 125.12 303.86 125.01 303.77 124.89 303.69 124.77 303.62 124.64 303.56 124.52 303.5 124.38 303.46 124.25 303.42 124.11 303.39 123.97 303.37 123.83 303.36 123.69 303.36 123.55 303.37 123.41 303.38 123.27 303.4 123.13 303.44 123 303.48 122.86 303.53 122.74 303.59 122.61 303.66 122.49 303.73 122.38 303.81 122.27 303.9 122.17 304 122.07 304.1 121.98 304.21 121.89 304.32 121.82 304.44 121.75 304.56 121.69 304.69 121.64 304.82 121.59 304.95 121.56 305.09 121.53 305.23 121.51 305.37 121.5 305.51 121.5 305.65 121.51 305.79 121.53 305.93 121.56 306.07 121.59 306.2 121.64 306.34 121.69 306.47 121.75 306.59 121.82 306.72 121.89 306.84 121.98 306.95 122.07 307.06 122.17 307.16 122.27 307.25 122.38 307.34 122.49 307.43 122.61 307.5 122.74 307.57 122.86 307.62 123 307.67 123.13 307.72 123.27 307.75 123.41 307.77 123.55 307.79 123.69 307.8 123.83 307.79 123.97 307.78 124.11 307.76 124.25 307.73 124.38 307.7 124.52 307.65 124.64 307.6 124.77 307.53 124.89 307.46 125.01 307.38 125.12 307.3 125.23 307.21 125.33 307.11 125.42 307 125.51 306.89 125.59 306.78 125.66 306.66 125.73 306.53 125.78 306.4 125.83 306.27 125.87 306.13 125.9 306 125.92 305.86 125.94 305.72 125.94 305.58"/><line class="cls-5" x1="117.07" y1="316.67" x2="130.38" y2="316.67"/><line class="cls-5" x1="117.07" y1="327.77" x2="130.38" y2="327.77"/><text class="cls-12" transform="translate(186.67 194.08)">A</text><text class="cls-12" transform="translate(186.67 180.21)">A</text><text class="cls-18" transform="translate(197.77 169.11)">A</text><text class="cls-19" transform="translate(208.56 169.11)">C</text><text class="cls-19" transform="translate(219.66 169.11)">C</text><text class="cls-19" transform="translate(227.98 135.83)">C</text><text class="cls-19" transform="translate(219.35 146.92)">G</text><text class="cls-4" transform="translate(219.93 138.36)">80</text><text class="cls-19" transform="translate(208.26 146.92)">G</text><text class="cls-19" transform="translate(197.47 146.92)">U</text><text class="cls-20" transform="translate(186.37 135.83)">C</text><line class="cls-5" x1="190.29" y1="170.77" x2="190.29" y2="135.27"/><polygon class="cls-6" points="190.29 150.8 190.15 150.81 190.01 150.82 189.87 150.84 189.74 150.88 189.6 150.91 189.47 150.96 189.34 151.02 189.21 151.08 189.09 151.16 188.98 151.24 188.87 151.32 188.76 151.42 188.66 151.52 188.57 151.62 188.49 151.74 188.41 151.85 188.34 151.97 188.27 152.1 188.22 152.23 188.17 152.36 188.14 152.5 188.11 152.64 188.09 152.78 188.07 152.92 188.07 153.06 188.08 153.2 188.1 153.34 188.12 153.48 188.15 153.61 188.19 153.75 188.25 153.88 188.3 154.01 188.37 154.13 188.44 154.25 188.53 154.37 188.62 154.48 188.71 154.58 188.81 154.68 188.92 154.77 189.03 154.85 189.15 154.93 189.28 155 189.4 155.06 189.53 155.11 189.67 155.15 189.8 155.19 189.94 155.21 190.08 155.23 190.22 155.24 190.36 155.24 190.5 155.23 190.64 155.21 190.78 155.19 190.92 155.15 191.05 155.11 191.18 155.06 191.31 155 191.43 154.93 191.55 154.85 191.66 154.77 191.77 154.68 191.87 154.58 191.97 154.48 192.06 154.37 192.14 154.25 192.21 154.13 192.28 154.01 192.34 153.88 192.39 153.75 192.43 153.61 192.46 153.48 192.49 153.34 192.5 153.2 192.51 153.06 192.51 152.92 192.5 152.78 192.48 152.64 192.45 152.5 192.41 152.36 192.37 152.23 192.31 152.1 192.25 151.97 192.18 151.85 192.1 151.74 192.01 151.62 191.92 151.52 191.82 151.42 191.72 151.32 191.61 151.24 191.49 151.16 191.37 151.08 191.25 151.02 191.12 150.96 190.98 150.91 190.85 150.88 190.71 150.84 190.57 150.82 190.43 150.81 190.29 150.8"/><line class="cls-5" x1="201.39" y1="159.68" x2="201.39" y2="146.37"/><line class="cls-5" x1="212.48" y1="159.68" x2="212.48" y2="146.37"/><line class="cls-5" x1="223.58" y1="159.68" x2="223.58" y2="146.37"/><text class="cls-19" transform="translate(236.3 169.11)">C</text><text class="cls-21" transform="translate(247.69 169.11)">A</text><text class="cls-19" transform="translate(258.49 169.11)">U</text><text class="cls-21" transform="translate(269.88 169.11)">A</text><text class="cls-4" transform="translate(270.44 174.66)">60</text><text class="cls-19" transform="translate(280.38 169.11)">G</text><text class="cls-19" transform="translate(291.47 169.11)">G</text><text class="cls-19" transform="translate(302.57 169.11)">G</text><text class="cls-14" transform="translate(313.96 177.43)">C</text><text class="cls-14" transform="translate(325.06 185.75)">U</text><text class="cls-13" transform="translate(335.85 177.43)">G</text><text class="cls-13" transform="translate(335.85 166.34)">G</text><text class="cls-13" transform="translate(336.15 155.24)">C</text><text class="cls-13" transform="translate(335.85 144.15)">G</text><text class="cls-13" transform="translate(335.85 133.05)">G</text><text class="cls-4" transform="translate(328.9 132.29)">70</text><text class="cls-13" transform="translate(336.15 121.96)">U</text><text class="cls-19" transform="translate(302.87 146.92)">C</text><text class="cls-19" transform="translate(291.77 146.92)">C</text><text class="cls-19" transform="translate(280.68 146.92)">C</text><text class="cls-19" transform="translate(269.58 146.92)">U</text><text class="cls-19" transform="translate(258.19 146.92)">G</text><text class="cls-19" transform="translate(247.39 146.92)">U</text><text class="cls-19" transform="translate(236 146.92)">G</text><line class="cls-5" x1="240.22" y1="159.68" x2="240.22" y2="146.37"/><line class="cls-5" x1="251.31" y1="159.68" x2="251.31" y2="146.37"/><polygon class="cls-6" points="262.41 150.8 262.27 150.81 262.13 150.82 261.99 150.84 261.85 150.88 261.72 150.91 261.58 150.96 261.45 151.02 261.33 151.08 261.21 151.16 261.09 151.24 260.98 151.32 260.88 151.42 260.78 151.52 260.69 151.62 260.6 151.74 260.52 151.85 260.45 151.97 260.39 152.1 260.34 152.23 260.29 152.36 260.25 152.5 260.22 152.64 260.2 152.78 260.19 152.92 260.19 153.06 260.2 153.2 260.21 153.34 260.24 153.48 260.27 153.61 260.31 153.75 260.36 153.88 260.42 154.01 260.49 154.13 260.56 154.25 260.64 154.37 260.73 154.48 260.83 154.58 260.93 154.68 261.04 154.77 261.15 154.85 261.27 154.93 261.39 155 261.52 155.06 261.65 155.11 261.78 155.15 261.92 155.19 262.06 155.21 262.2 155.23 262.34 155.24 262.48 155.24 262.62 155.23 262.76 155.21 262.9 155.19 263.03 155.15 263.17 155.11 263.3 155.06 263.43 155 263.55 154.93 263.67 154.85 263.78 154.77 263.89 154.68 263.99 154.58 264.09 154.48 264.18 154.37 264.26 154.25 264.33 154.13 264.4 154.01 264.45 153.88 264.51 153.75 264.55 153.61 264.58 153.48 264.61 153.34 264.62 153.2 264.63 153.06 264.63 152.92 264.61 152.78 264.59 152.64 264.56 152.5 264.53 152.36 264.48 152.23 264.43 152.1 264.37 151.97 264.3 151.85 264.22 151.74 264.13 151.62 264.04 151.52 263.94 151.42 263.83 151.32 263.73 151.24 263.61 151.16 263.49 151.08 263.36 151.02 263.23 150.96 263.1 150.91 262.97 150.88 262.83 150.84 262.69 150.82 262.55 150.81 262.41 150.8"/><line class="cls-5" x1="273.5" y1="159.68" x2="273.5" y2="146.37"/><line class="cls-5" x1="284.6" y1="159.68" x2="284.6" y2="146.37"/><line class="cls-5" x1="295.69" y1="159.68" x2="295.69" y2="146.37"/><line class="cls-5" x1="306.79" y1="159.68" x2="306.79" y2="146.37"/><polyline class="cls-22" points="139.25 239.01 190.29 239.01 190.29 221.26"/><polygon class="cls-6" points="161.08 235.68 162.92 237.34 164.77 237.9 166.62 238.18 170.32 239.01 166.62 239.84 164.77 240.12 162.92 240.67 161.08 242.34 161.08 235.68"/><polyline class="cls-22" points="104.31 104.2 104.31 75.36 135.93 75.36"/><polygon class="cls-6" points="116.42 72.03 118.27 73.69 120.12 74.25 121.97 74.53 125.66 75.36 121.97 76.19 120.12 76.47 118.27 77.02 116.42 78.69 116.42 72.03"/><polyline class="cls-22" points="131.68 188.72 120.95 177.99 115.77 172.8"/><polygon class="cls-6" points="118.62 180.36 118.49 177.88 117.57 176.18 116.46 174.68 114.44 171.47 117.64 173.5 119.14 174.61 120.84 175.53 123.33 175.66 118.62 180.36"/><polyline class="cls-22" points="131.68 172.8 120.95 183.53 115.77 188.72"/><polygon class="cls-6" points="123.33 185.86 120.84 185.99 119.14 186.91 117.64 188.02 114.44 190.05 116.46 186.84 117.57 185.34 118.49 183.64 118.62 181.16 123.33 185.86"/><polyline class="cls-22" points="335.63 117.01 306.79 117.33 306.79 137.49"/><polygon class="cls-6" points="310.12 123.71 308.45 125.56 307.9 127.41 307.62 129.26 306.79 132.96 305.96 129.26 305.68 127.41 305.12 125.56 303.46 123.71 310.12 123.71"/><path class="cls-23" d="M106.8,344.82c-8.52,14.17,2.21,25.85,7.37,28.34"/><line class="cls-23" x1="141.43" y1="225.14" x2="153.68" y2="225.14"/><line class="cls-23" x1="39.04" y1="54.49" x2="51.3" y2="54.49"/><text class="cls-24" transform="translate(155.95 229.03)">5<tspan class="cls-25" x="5.56" y="0">’</tspan></text><text class="cls-24" transform="translate(30.9 58.29)">3<tspan class="cls-25" x="5.56" y="0">’</tspan></text><line class="cls-23" x1="99.03" y1="48.62" x2="160.05" y2="48.62"/><line class="cls-23" x1="344.93" y1="176.02" x2="344.93" y2="115"/><line class="cls-23" x1="129.54" y1="48.39" x2="129.54" y2="31.54"/><line class="cls-23" x1="361.36" y1="146.37" x2="361.36" y2="31.54"/><line class="cls-23" x1="344.51" y1="146.37" x2="361.36" y2="146.37"/><line class="cls-23" x1="129.5" y1="31.54" x2="361.36" y2="31.54"/><text class="cls-26" transform="translate(337.01 45.65)">P5</text><text class="cls-27" transform="translate(245.74 188.72)">P4</text><text class="cls-28" transform="translate(53.51 45.82)">RBS</text><text class="cls-28" transform="translate(308.88 200)">J4/5</text><text class="cls-29" transform="translate(172.79 97.55)">P2</text><text class="cls-30" transform="translate(176.58 125.29)">J4/2</text><text class="cls-31" transform="translate(80.48 279.37)">P3</text><text class="cls-32" transform="translate(80.48 200)">P1</text><text class="cls-28" transform="translate(202.3 227.17)">J3/4</text><text class="cls-33" transform="translate(69.62 132.29)">J1/2</text><text class="cls-34" transform="translate(143.4 155.37)">J2/1</text><rect class="cls-35" x="112.29" y="142.14" width="15.79" height="7.12"/><text class="cls-36" transform="translate(112.1 146.92)">PreQ</text><text class="cls-36" transform="translate(126.1 148.92) scale(0.58)">1</text><line class="cls-37" x1="128.59" y1="145.7" x2="137.61" y2="145.7"/><polygon class="cls-38" points="128.59 145.7 132.99 148.24 132.99 143.17 128.59 145.7"/><polygon class="cls-38" points="135.41 143.5 135.27 143.51 135.13 143.52 135 143.54 134.86 143.57 134.72 143.61 134.59 143.66 134.47 143.72 134.34 143.78 134.22 143.85 134.11 143.93 134 144.02 133.89 144.11 133.8 144.21 133.7 144.32 133.62 144.43 133.54 144.54 133.47 144.66 133.41 144.79 133.36 144.92 133.31 145.05 133.27 145.18 133.25 145.32 133.22 145.46 133.21 145.6 133.21 145.74 133.22 145.88 133.23 146.02 133.26 146.15 133.29 146.29 133.33 146.42 133.38 146.55 133.44 146.68 133.51 146.8 133.58 146.92 133.66 147.04 133.75 147.14 133.84 147.25 133.94 147.34 134.05 147.43 134.16 147.51 134.28 147.59 134.4 147.66 134.53 147.72 134.66 147.77 134.79 147.81 134.93 147.85 135.06 147.88 135.2 147.89 135.34 147.9 135.48 147.9 135.62 147.89 135.76 147.88 135.9 147.85 136.03 147.81 136.16 147.77 136.29 147.72 136.42 147.66 136.54 147.59 136.66 147.51 136.77 147.43 136.88 147.34 136.98 147.25 137.07 147.14 137.16 147.04 137.24 146.92 137.32 146.8 137.38 146.68 137.44 146.55 137.49 146.42 137.53 146.29 137.57 146.15 137.59 146.02 137.61 145.88 137.61 145.74 137.61 145.6 137.6 145.46 137.58 145.32 137.55 145.18 137.51 145.05 137.47 144.92 137.41 144.79 137.35 144.66 137.28 144.54 137.2 144.43 137.12 144.32 137.03 144.21 136.93 144.11 136.83 144.02 136.72 143.93 136.6 143.85 136.48 143.78 136.36 143.72 136.23 143.66 136.1 143.61 135.97 143.57 135.83 143.54 135.69 143.52 135.55 143.51 135.41 143.5"/><line class="cls-37" x1="107.95" y1="145.78" x2="112.16" y2="145.78"/><text class="cls-28" transform="translate(170.32 66.9)">J2/5</text></svg>