<?xml version="1.0" encoding="utf-8"?>
<!-- Generator: Adobe Illustrator 26.0.0, SVG Export Plug-In . SVG Version: 6.00 Build 0)  -->
<svg version="1.1" id="图层_1" xmlns="http://www.w3.org/2000/svg" xmlns:xlink="http://www.w3.org/1999/xlink" x="0px" y="0px"
	 viewBox="0 0 400 400" style="enable-background:new 0 0 400 400;" xml:space="preserve">
<style type="text/css">
	.st0{fill:#80DB9E;}
	.st1{font-family:'ArialMT';}
	.st2{font-size:21.16px;}
	.st3{fill:#FFAADC;}
	.st4{fill:#09FEFE;}
	.st5{fill:none;stroke:#000000;stroke-width:0.14;stroke-miterlimit:1.11;}
	.st6{fill:#FFFFFF;stroke:#000000;stroke-width:0.14;stroke-miterlimit:1.11;}
	.st7{stroke:#000000;stroke-width:0.14;stroke-miterlimit:1.11;}
	.st8{fill:none;stroke:#000000;stroke-width:0.5;stroke-miterlimit:1.11;}
	.st9{fill:#FF870A;}
	.st10{font-size:21px;}
	.st11{font-size:12px;}
	.st12{font-size:11.9995px;}
	.st13{fill:#FF0B0C;stroke:#FF0B0C;stroke-miterlimit:10;}
	.st14{fill:#FFFFFF;}
	.st15{font-size:16.9322px;}
</style>
<g id="ID000000">
	<g>
		<g id="ID000002">
			<text transform="matrix(1.09 0 0 1 153.5601 176.2451)" class="st0 st1 st2">A</text>
		</g>
		<g id="ID000003">
			<text transform="matrix(1.09 0 0 1 152.2896 155.2251)" class="st0 st1 st2">G</text>
		</g>
		<g id="ID000004">
			<text transform="matrix(1.09 0 0 1 152.9297 134.1948)" class="st0 st1 st2">C</text>
		</g>
		<g id="ID000005">
			<text transform="matrix(1.09 0 0 1 152.2896 113.1748)" class="st0 st1 st2">G</text>
		</g>
		<g id="ID000006">
			<text transform="matrix(1.09 0 0 1 152.9297 92.145)" class="st0 st1 st2">C</text>
		</g>
		<g id="ID000007">
			<text transform="matrix(1.09 0 0 1 152.9297 71.1152)" class="st3 st1 st2">U</text>
		</g>
		<g id="ID000008">
			<text transform="matrix(1.09 0 0 1 180.98 71.1152)" class="st3 st1 st2">G</text>
		</g>
		<g id="ID000009">
			<text transform="matrix(1.09 0 0 1 204.5898 71.1152)" class="st3 st1 st2">C</text>
		</g>
		<g id="ID000010">
			<text transform="matrix(1.09 0 0 1 107.6499 265.6152)" class="st4 st1 st2">A</text>
		</g>
		<g id="ID000011">
			<text transform="matrix(1.09 0 0 1 107.6499 244.5859)" class="st4 st1 st2">A</text>
		</g>
		<g id="ID000012">
			<text transform="matrix(1.09 0 0 1 107.6499 223.5557)" class="st4 st1 st2">A</text>
		</g>
		<g id="ID000013">
			<text transform="matrix(1.09 0 0 1 107.0098 202.5352)" class="st4 st1 st2">C</text>
		</g>
		<g id="ID000014">
			<text transform="matrix(1.09 0 0 1 106.3696 71.1152)" class="st0 st1 st2">G</text>
		</g>
		<g id="ID000015">
			<text transform="matrix(1.09 0 0 1 106.3696 92.145)" class="st0 st1 st2">G</text>
		</g>
		<g id="ID000016">
			<text transform="matrix(1.09 0 0 1 107.0098 113.1748)" class="st0 st1 st2">C</text>
		</g>
		<g id="ID000017">
			<text transform="matrix(1.09 0 0 1 106.3696 134.1948)" class="st0 st1 st2">G</text>
		</g>
		<g id="ID000018">
			<text transform="matrix(1.09 0 0 1 107.0098 155.2251)" class="st0 st1 st2">C</text>
		</g>
		<g id="ID000019">
			<text transform="matrix(1.09 0 0 1 107.0098 176.2451)" class="st0 st1 st2">U</text>
		</g>
		<g id="ID000020">
			<text transform="matrix(1.09 0 0 1 84.0498 176.2451)" class="st0 st1 st2">C</text>
		</g>
		<g id="ID000021">
			<text transform="matrix(1.09 0 0 1 61.73 176.2451)" class="st0 st1 st2">A</text>
		</g>
		<g id="ID000022">
			<line class="st5" x1="152.1" y1="145.8" x2="124.5" y2="145.8"/>
		</g>
		<g id="ID000023">
			<line class="st5" x1="152.1" y1="124.7" x2="124.5" y2="124.7"/>
		</g>
		<g id="ID000024">
			<line class="st5" x1="152.1" y1="103.7" x2="124.5" y2="103.7"/>
		</g>
		<g id="ID000025">
			<line class="st5" x1="152.1" y1="82.7" x2="124.5" y2="82.7"/>
		</g>
		<g id="ID000026">
			<line class="st5" x1="166.1" y1="68.8" x2="231" y2="164.9"/>
		</g>
		<g id="ID000027">
			<polygon class="st6" points="193,108.6 192.8,108.8 192.5,108.9 192.3,109.1 192.1,109.3 191.9,109.5 191.7,109.7 191.6,109.9 
				191.4,110.2 191.3,110.4 191.2,110.6 191.1,110.9 191,111.1 190.9,111.4 190.9,111.7 190.8,111.9 190.8,112.2 190.8,112.5 
				190.9,112.7 190.9,113 191,113.3 191.1,113.5 191.2,113.8 191.3,114 191.4,114.2 191.6,114.5 191.7,114.7 191.9,114.9 
				192.1,115.1 192.3,115.3 192.5,115.5 192.8,115.6 193,115.8 193.3,115.9 193.5,116 193.8,116.1 194.1,116.2 194.3,116.3 
				194.6,116.3 194.9,116.4 195.2,116.4 195.5,116.4 195.8,116.4 196.1,116.4 196.4,116.3 196.7,116.3 196.9,116.2 197.2,116.1 
				197.5,116 197.7,115.8 198,115.7 198.2,115.6 198.4,115.4 198.6,115.2 198.9,115 199,114.8 199.2,114.6 199.4,114.4 199.5,114.1 
				199.6,113.9 199.7,113.6 199.8,113.4 199.9,113.1 200,112.9 200,112.6 200,112.3 200,112.1 200,111.8 200,111.5 199.9,111.3 
				199.8,111 199.7,110.8 199.6,110.5 199.5,110.3 199.4,110 199.2,109.8 199,109.6 198.9,109.4 198.7,109.2 198.4,109 198.2,108.9 
				198,108.7 197.7,108.6 197.5,108.4 197.2,108.3 196.9,108.2 196.7,108.2 196.4,108.1 196.1,108 195.8,108 195.5,108 195.2,108 
				194.9,108 194.6,108.1 194.4,108.1 194.1,108.2 193.8,108.3 193.5,108.4 193.3,108.5 			"/>
		</g>
		<g id="ID000028">
			<polygon class="st6" points="208,122.9 203.2,115.7 195.4,120.1 200.2,127.3 			"/>
		</g>
		<g id="ID000029">
			<line class="st5" x1="212.6" y1="70.1" x2="207.6" y2="184.7"/>
		</g>
		<g id="ID000030">
			<polygon class="st7" points="209.9,131.6 210.2,131.6 210.5,131.6 210.7,131.5 211,131.5 211.3,131.4 211.6,131.3 211.9,131.2 
				212.1,131.1 212.4,131 212.6,130.8 212.9,130.7 213.1,130.5 213.3,130.3 213.5,130.1 213.7,129.9 213.9,129.7 214,129.5 
				214.2,129.3 214.3,129 214.4,128.8 214.5,128.5 214.5,128.3 214.6,128 214.6,127.7 214.6,127.5 214.6,127.2 214.6,126.9 
				214.6,126.7 214.5,126.4 214.4,126.1 214.4,125.9 214.2,125.6 214.1,125.4 214,125.2 213.8,125 213.6,124.7 213.5,124.5 
				213.2,124.3 213,124.2 212.8,124 212.6,123.8 212.3,123.7 212.1,123.6 211.8,123.5 211.5,123.4 211.2,123.3 211,123.2 
				210.7,123.2 210.4,123.2 210.1,123.2 209.8,123.2 209.5,123.2 209.2,123.2 208.9,123.3 208.7,123.4 208.4,123.4 208.1,123.6 
				207.9,123.7 207.6,123.8 207.4,124 207.1,124.1 206.9,124.3 206.7,124.5 206.5,124.7 206.3,124.9 206.2,125.1 206,125.3 
				205.9,125.6 205.8,125.8 205.7,126.1 205.6,126.3 205.5,126.6 205.5,126.9 205.5,127.1 205.5,127.4 205.5,127.7 205.5,127.9 
				205.6,128.2 205.6,128.5 205.7,128.7 205.8,129 205.9,129.2 206.1,129.4 206.2,129.7 206.4,129.9 206.6,130.1 206.8,130.3 
				207,130.5 207.2,130.6 207.4,130.8 207.7,131 207.9,131.1 208.2,131.2 208.4,131.3 208.7,131.4 209,131.5 209.3,131.5 
				209.6,131.5 			"/>
		</g>
		<g id="ID000031">
			<line class="st5" x1="153.1" y1="238.9" x2="123.6" y2="252.4"/>
		</g>
		<g id="ID000032">
			<polygon class="st7" points="149,240.7 138.7,240.2 143.3,248.6 			"/>
		</g>
		<g id="ID000033">
			<polygon class="st7" points="130.9,253.7 139.1,250 135,242.4 126.8,246.2 			"/>
		</g>
		<g id="ID000034">
			<line class="st5" x1="198" y1="256.2" x2="124.5" y2="256.2"/>
		</g>
		<g id="ID000035">
			<polygon class="st7" points="173.2,256.2 164.3,251.4 164.3,260.9 			"/>
		</g>
		<g id="ID000036">
			<polygon class="st7" points="150.7,256.2 150.7,256.4 150.7,256.7 150.8,256.9 150.9,257.2 150.9,257.5 151,257.7 151.1,258 
				151.3,258.2 151.4,258.4 151.6,258.6 151.8,258.9 152,259.1 152.2,259.2 152.4,259.4 152.6,259.6 152.9,259.7 153.1,259.9 
				153.4,260 153.7,260.1 153.9,260.2 154.2,260.2 154.5,260.3 154.8,260.3 155.1,260.4 155.4,260.4 155.7,260.3 155.9,260.3 
				156.2,260.3 156.5,260.2 156.8,260.1 157.1,260 157.3,259.9 157.6,259.8 157.8,259.7 158.1,259.5 158.3,259.3 158.5,259.1 
				158.7,259 158.9,258.8 159.1,258.5 159.2,258.3 159.4,258.1 159.5,257.8 159.6,257.6 159.7,257.3 159.8,257.1 159.8,256.8 
				159.9,256.6 159.9,256.3 159.9,256 159.9,255.8 159.8,255.5 159.8,255.2 159.7,255 159.6,254.7 159.5,254.5 159.4,254.2 
				159.2,254 159.1,253.8 158.9,253.6 158.7,253.3 158.5,253.2 158.3,253 158.1,252.8 157.8,252.6 157.6,252.5 157.3,252.4 
				157.1,252.3 156.8,252.2 156.5,252.1 156.2,252 155.9,252 155.7,252 155.4,251.9 155.1,252 154.8,252 154.5,252 154.2,252.1 
				153.9,252.1 153.7,252.2 153.4,252.3 153.1,252.4 152.9,252.6 152.6,252.7 152.4,252.9 152.2,253.1 152,253.2 151.8,253.4 
				151.6,253.7 151.4,253.9 151.3,254.1 151.1,254.3 151,254.6 150.9,254.8 150.9,255.1 150.8,255.4 150.7,255.6 150.7,255.9 			"/>
		</g>
		<g id="ID000037">
			<line class="st5" x1="152.1" y1="214.1" x2="124.5" y2="214.1"/>
		</g>
		<g id="ID000038">
			<polygon class="st6" points="150.2,214.1 141.3,209.4 141.3,218.8 			"/>
		</g>
		<g id="ID000039">
			<polygon class="st6" points="127.7,214.1 127.8,214.4 127.8,214.6 127.8,214.9 127.9,215.2 128,215.4 128.1,215.7 128.2,215.9 
				128.3,216.1 128.5,216.4 128.6,216.6 128.8,216.8 129,217 129.2,217.2 129.4,217.4 129.7,217.5 129.9,217.7 130.2,217.8 
				130.4,217.9 130.7,218 131,218.1 131.3,218.2 131.5,218.2 131.8,218.3 132.1,218.3 132.4,218.3 132.7,218.3 133,218.3 
				133.3,218.2 133.6,218.2 133.8,218.1 134.1,218 134.4,217.9 134.6,217.7 134.9,217.6 135.1,217.4 135.3,217.3 135.6,217.1 
				135.8,216.9 135.9,216.7 136.1,216.5 136.3,216.3 136.4,216 136.5,215.8 136.7,215.5 136.7,215.3 136.8,215 136.9,214.8 
				136.9,214.5 136.9,214.2 136.9,214 136.9,213.7 136.9,213.4 136.8,213.2 136.7,212.9 136.7,212.7 136.5,212.4 136.4,212.2 
				136.3,211.9 136.1,211.7 135.9,211.5 135.8,211.3 135.6,211.1 135.3,210.9 135.1,210.8 134.9,210.6 134.6,210.5 134.4,210.3 
				134.1,210.2 133.8,210.1 133.6,210 133.3,210 133,209.9 132.7,209.9 132.4,209.9 132.1,209.9 131.8,209.9 131.5,210 131.3,210 
				131,210.1 130.7,210.2 130.4,210.3 130.2,210.4 129.9,210.5 129.7,210.7 129.4,210.8 129.2,211 129,211.2 128.8,211.4 
				128.6,211.6 128.5,211.8 128.3,212.1 128.2,212.3 128.1,212.5 128,212.8 127.9,213 127.8,213.3 127.8,213.6 127.8,213.8 			"/>
		</g>
		<g id="ID000040">
			<polyline class="st8" points="106.2,193.1 46.5,193.1 46.5,61.7 106.2,61.7 			"/>
		</g>
		<g id="ID000041">
			<polygon class="st7" points="39.6,134.4 43,130.9 44.2,127.4 44.7,123.9 46.5,116.9 48.2,123.9 48.8,127.4 49.9,130.9 
				53.4,134.4 			"/>
		</g>
		<g id="ID000042">
			<line class="st5" x1="198.3" y1="174.1" x2="124.3" y2="191"/>
		</g>
		<g id="ID000043">
			<polygon class="st7" points="156.8,183.6 156.9,183.8 157,184.1 157.1,184.3 157.2,184.6 157.4,184.8 157.5,185 157.7,185.2 
				157.9,185.4 158.1,185.6 158.3,185.8 158.6,186 158.8,186.1 159.1,186.2 159.3,186.4 159.6,186.5 159.9,186.6 160.1,186.6 
				160.4,186.7 160.7,186.7 161,186.8 161.3,186.8 161.6,186.8 161.9,186.7 162.2,186.7 162.4,186.6 162.7,186.5 163,186.5 
				163.3,186.3 163.5,186.2 163.8,186.1 164,185.9 164.2,185.8 164.5,185.6 164.7,185.4 164.8,185.2 165,185 165.2,184.8 
				165.3,184.5 165.5,184.3 165.6,184 165.7,183.8 165.7,183.5 165.8,183.3 165.8,183 165.9,182.7 165.9,182.5 165.8,182.2 
				165.8,181.9 165.8,181.7 165.7,181.4 165.6,181.2 165.5,180.9 165.4,180.7 165.2,180.4 165.1,180.2 164.9,180 164.7,179.8 
				164.5,179.6 164.3,179.4 164.1,179.2 163.8,179.1 163.6,178.9 163.3,178.8 163.1,178.7 162.8,178.6 162.5,178.5 162.2,178.5 
				162,178.4 161.7,178.4 161.4,178.4 161.1,178.4 160.8,178.4 160.5,178.4 160.2,178.5 159.9,178.5 159.7,178.6 159.4,178.7 
				159.1,178.8 158.9,179 158.6,179.1 158.4,179.3 158.2,179.4 158,179.6 157.8,179.8 157.6,180 157.4,180.3 157.3,180.5 
				157.1,180.7 157,181 156.9,181.2 156.8,181.5 156.8,181.7 156.7,182 156.7,182.3 156.7,182.5 156.7,182.8 156.7,183.1 
				156.7,183.3 			"/>
		</g>
		<g id="ID000044">
			<line class="st5" x1="152.6" y1="185.2" x2="101.1" y2="169.4"/>
		</g>
		<g id="ID000045">
			<polygon class="st7" points="122.5,176 122.4,176.2 122.3,176.5 122.3,176.8 122.2,177 122.2,177.3 122.2,177.6 122.3,177.8 
				122.3,178.1 122.4,178.3 122.5,178.6 122.6,178.8 122.7,179.1 122.8,179.3 123,179.6 123.1,179.8 123.3,180 123.5,180.2 
				123.7,180.4 123.9,180.6 124.1,180.7 124.4,180.9 124.6,181 124.9,181.1 125.2,181.2 125.4,181.3 125.7,181.4 126,181.4 
				126.3,181.5 126.6,181.5 126.9,181.5 127.2,181.5 127.5,181.5 127.7,181.4 128,181.4 128.3,181.3 128.6,181.2 128.8,181.1 
				129.1,181 129.4,180.8 129.6,180.7 129.8,180.5 130,180.3 130.2,180.1 130.4,179.9 130.6,179.7 130.8,179.5 130.9,179.2 131,179 
				131.1,178.8 131.2,178.5 131.3,178.2 131.4,178 131.4,177.7 131.4,177.5 131.4,177.2 131.4,176.9 131.4,176.7 131.3,176.4 
				131.2,176.1 131.1,175.9 131,175.6 130.9,175.4 130.8,175.2 130.6,174.9 130.4,174.7 130.3,174.5 130.1,174.3 129.8,174.1 
				129.6,174 129.4,173.8 129.1,173.7 128.9,173.5 128.6,173.4 128.3,173.3 128.1,173.3 127.8,173.2 127.5,173.1 127.2,173.1 
				126.9,173.1 126.6,173.1 126.3,173.1 126,173.2 125.8,173.2 125.5,173.3 125.2,173.4 124.9,173.5 124.7,173.6 124.4,173.7 
				124.2,173.9 123.9,174 123.7,174.2 123.5,174.4 123.3,174.6 123.1,174.8 123,175 122.8,175.2 122.7,175.5 122.6,175.7 			"/>
		</g>
		<g id="ID000047">
			<text transform="matrix(1.09 0 0 1 228.1807 71.1152)" class="st3 st1 st2">A</text>
		</g>
		<g id="ID000048">
			<text transform="matrix(1.09 0 0 1 251.1396 71.1152)" class="st3 st1 st2">A</text>
		</g>
		<g id="ID000049">
			<text transform="matrix(1.09 0 0 1 272.8193 71.1152)" class="st3 st1 st2">G</text>
		</g>
		<g id="ID000050">
			<text transform="matrix(1.09 0 0 1 296.4189 71.1152)" class="st3 st1 st2">C</text>
		</g>
		<g id="ID000051">
			<text transform="matrix(1.09 0 0 1 318.7393 65.8652)" class="st3 st1 st2">G</text>
		</g>
		<g id="ID000052">
			<text transform="matrix(1.09 0 0 1 348.7207 76.375)" class="st3 st1 st2">A</text>
		</g>
		<g id="ID000053">
			<text transform="matrix(1.09 0 0 1 347.4395 102.6548)" class="st3 st1 st2">G</text>
		</g>
		<g id="ID000054">
			<text transform="matrix(1.09 0 0 1 325.7607 118.4248)" class="st3 st1 st2">A</text>
		</g>
		<g id="ID000055">
			<text transform="matrix(1.09 0 0 1 295.7793 113.1748)" class="st3 st1 st2">G</text>
		</g>
		<g id="ID000056">
			<text transform="matrix(1.09 0 0 1 273.46 113.1748)" class="st3 st1 st2">C</text>
		</g>
		<g id="ID000057">
			<text transform="matrix(1.09 0 0 1 250.5 113.1748)" class="st3 st1 st2">C</text>
		</g>
		<g id="ID000058">
			<text transform="matrix(1.09 0 0 1 227.54 113.1748)" class="st3 st1 st2">C</text>
		</g>
		<g id="ID000059">
			<line class="st5" x1="235.9" y1="70.1" x2="235.9" y2="95.3"/>
		</g>
		<g id="ID000060">
			<polygon class="st6" points="231.3,73 231.3,81.4 240.5,81.4 240.5,73 			"/>
		</g>
		<g id="ID000061">
			<polygon class="st6" points="235.9,93.6 241,85.4 230.7,85.4 			"/>
		</g>
		<g id="ID000062">
			<line class="st5" x1="258.8" y1="70.1" x2="258.8" y2="95.3"/>
		</g>
		<g id="ID000063">
			<polygon class="st7" points="258.8,86.9 259.1,86.9 259.4,86.9 259.7,86.8 260,86.8 260.3,86.7 260.5,86.6 260.8,86.5 
				261.1,86.4 261.3,86.2 261.6,86.1 261.8,85.9 262,85.7 262.2,85.5 262.4,85.3 262.6,85.1 262.7,84.9 262.9,84.7 263,84.4 
				263.1,84.2 263.2,83.9 263.3,83.7 263.4,83.4 263.4,83.1 263.4,82.9 263.4,82.6 263.4,82.3 263.4,82.1 263.3,81.8 263.3,81.6 
				263.2,81.3 263.1,81.1 263,80.8 262.8,80.6 262.7,80.4 262.5,80.1 262.3,79.9 262.1,79.7 261.9,79.5 261.7,79.4 261.4,79.2 
				261.2,79.1 260.9,78.9 260.7,78.8 260.4,78.7 260.1,78.6 259.9,78.6 259.6,78.5 259.3,78.5 259,78.5 258.7,78.5 258.4,78.5 
				258.1,78.5 257.8,78.6 257.5,78.6 257.3,78.7 257,78.8 256.7,78.9 256.5,79.1 256.2,79.2 256,79.4 255.8,79.5 255.6,79.7 
				255.4,79.9 255.2,80.1 255,80.4 254.9,80.6 254.7,80.8 254.6,81.1 254.5,81.3 254.4,81.6 254.3,81.8 254.3,82.1 254.3,82.3 
				254.2,82.6 254.3,82.9 254.3,83.1 254.3,83.4 254.4,83.7 254.5,83.9 254.6,84.2 254.7,84.4 254.8,84.7 254.9,84.9 255.1,85.1 
				255.3,85.3 255.5,85.5 255.7,85.7 255.9,85.9 256.1,86.1 256.4,86.2 256.6,86.4 256.9,86.5 257.1,86.6 257.4,86.7 257.7,86.8 
				258,86.8 258.3,86.9 258.5,86.9 			"/>
		</g>
		<g id="ID000064">
			<line class="st5" x1="281.8" y1="70.1" x2="281.8" y2="95.3"/>
		</g>
		<g id="ID000065">
			<line class="st5" x1="304.8" y1="70.1" x2="304.8" y2="95.3"/>
		</g>
		<g id="ID000066">
			<line class="st8" x1="235.9" y1="112.1" x2="235.9" y2="163.6"/>
		</g>
		<g id="ID000067">
			<polygon class="st7" points="242.8,130.9 239.3,134.4 238.2,137.9 237.6,141.4 235.9,148.4 234.2,141.4 233.6,137.9 232.4,134.4 
				229,130.9 			"/>
		</g>
		<g id="ID000069">
			<text transform="matrix(1.09 0 0 1 152.2896 349.7158)" class="st9 st1 st2">G</text>
		</g>
		<g id="ID000070">
			<text transform="matrix(1.09 0 0 1 152.2896 328.6855)" class="st9 st1 st2">G</text>
		</g>
		<g id="ID000071">
			<text transform="matrix(1.09 0 0 1 153.5601 307.665)" class="st9 st1 st2">A</text>
		</g>
		<g id="ID000072">
			<text transform="matrix(1.09 0 0 1 152.9297 286.6357)" class="st9 st1 st2">C</text>
		</g>
		<g id="ID000073">
			<text transform="matrix(1.09 0 0 1 152.2896 265.6152)" class="st9 st1 st2">G</text>
		</g>
		<g id="ID000074">
			<text transform="matrix(1.09 0 0 1 153.5601 244.5859)" class="st9 st1 st2">A</text>
		</g>
		<g id="ID000075">
			<text transform="matrix(1.09 0 0 1 152.2896 223.5557)" class="st9 st1 st2">G</text>
		</g>
		<g id="ID000076">
			<text transform="matrix(1.09 0 0 1 152.2896 197.2749)" class="st0 st1 st2">G</text>
		</g>
		<g id="ID000077">
			<text transform="matrix(1.09 0 0 1 228.1807 181.5049)" class="st3 st1 st2">A</text>
		</g>
		<g id="ID000078">
			<text transform="matrix(1.09 0 0 1 204.5889 186.4199)" class="st3 st1 st2">G</text>
		</g>
		<g id="ID000079">
			<text transform="matrix(1.09 0 0 1 200.0293 204.6748)" class="st3 st1 st2">G</text>
		</g>
		<g id="ID000080">
			<text transform="matrix(1.09 0 0 1 198.8496 223.5557)" class="st9 st1 st2">C</text>
		</g>
		<g id="ID000081">
			<text transform="matrix(1.09 0 0 1 198.8496 244.5859)" class="st9 st1 st2">U</text>
		</g>
		<g id="ID000082">
			<text transform="matrix(1.09 0 0 1 198.8496 265.6152)" class="st9 st1 st2">C</text>
		</g>
		<g id="ID000083">
			<text transform="matrix(1.09 0 0 1 198.1997 286.6357)" class="st9 st1 st2">G</text>
		</g>
		<g id="ID000084">
			<text transform="matrix(1.09 0 0 1 198.8496 307.665)" class="st9 st1 st2">U</text>
		</g>
		<g id="ID000085">
			<text transform="matrix(1.09 0 0 1 198.8496 328.6855)" class="st9 st1 st2">C</text>
		</g>
		<g id="ID000086">
			<text transform="matrix(1.09 0 0 1 198.8496 349.7158)" class="st9 st1 st2">C</text>
		</g>
		<g id="ID000087">
			<text transform="matrix(1.09 0 0 1 198.1997 370.7451)" class="st9 st1 st2">G</text>
		</g>
		<g id="ID000088">
			<line class="st5" x1="170.4" y1="277.2" x2="198" y2="277.2"/>
		</g>
		<g id="ID000089">
			<line class="st5" x1="170.4" y1="256.2" x2="198" y2="256.2"/>
		</g>
		<g id="ID000090">
			<line class="st5" x1="170.4" y1="235.1" x2="198" y2="235.1"/>
		</g>
		<g id="ID000091">
			<line class="st5" x1="170.4" y1="214.1" x2="198" y2="214.1"/>
		</g>
	</g>
</g>
<text transform="matrix(1 0 0 1 249.86 36.69)" class="st3 st1 st10">P2</text>
<text transform="matrix(1 0 0 1 240.9996 260.4)" class="st9 st1 st10">P1</text>
<text transform="matrix(1 0 0 1 75.04 41.73)" class="st0 st1 st10">P4</text>
<text transform="matrix(1 0 0 1 32.2625 220.8044)" class="st4 st1 st10">J1/4</text>
<text transform="matrix(1 0 0 1 140.02 371.01)" class="st1 st10">5</text>
<text transform="matrix(1 0 0 1 151.7 371.01)" class="st1 st10">’</text>
<text transform="matrix(1 0 0 1 213.37 392.1)" class="st1 st10">3</text>
<text transform="matrix(1 0 0 1 225.05 392.1)" class="st1 st10">’</text>
<text transform="matrix(1 0 0 1 95.39 293.04)" class="st1 st10">5</text>
<text transform="matrix(1 0 0 1 107.07 293.04)" class="st1 st10">’</text>
<text transform="matrix(1 0 0 1 61.91 152.71)" class="st1 st10">3</text>
<text transform="matrix(1 0 0 1 73.59 152.71)" class="st1 st10">’</text>
<g id="ID000013-2-4-2">
	<text transform="matrix(1.01 0 0 1 235.46 371.0098)" class="st1 st11">39</text>
</g>
<g id="ID000141-4-2">
	<line class="st5" x1="217.1" y1="365.4" x2="230.8" y2="365.8"/>
</g>
<g id="ID000013-2-4-2-2">
	<text transform="matrix(1.0092 -3.996804e-02 3.996804e-02 0.9992 126.4695 327.8195)" class="st1 st11">2</text>
</g>
<g id="ID000141-4-2-2">
	<line class="st5" x1="137.6" y1="323" x2="151.4" y2="322.8"/>
</g>
<g id="ID000013-2-4-2-3">
	<text transform="matrix(1.0098 1.815638e-02 -1.797661e-02 0.9998 151.3693 32.88)" class="st1 st12">14</text>
</g>
<g id="ID000141-4-2-3">
	<line class="st5" x1="158.6" y1="37.2" x2="158.6" y2="51"/>
</g>
<g id="ID000013-2-4-2-4">
	<text transform="matrix(1.01 0 0 1 264.29 186.4199)" class="st1 st11">29</text>
</g>
<g id="ID000141-4-2-4">
	<line class="st5" x1="245.9" y1="180.8" x2="259.6" y2="181.2"/>
</g>
<g id="ID000013-2-4-2-5">
	<text transform="matrix(1.01 0 0 1 64.9302 246.5195)" class="st1 st11">43</text>
</g>
<g id="ID000141-4-2-5">
	<line class="st5" x1="86.7" y1="240.8" x2="104" y2="241.2"/>
</g>
<g id="ID000013-2-4-2-6">
	<text transform="matrix(1.01 0 0 1 73.5898 110.1001)" class="st1 st11">48</text>
</g>
<g id="ID000141-4-2-6">
	<line class="st5" x1="87.3" y1="107.2" x2="104.6" y2="107.6"/>
</g>
<path class="st13" d="M206.4,179.7c2.1,5.1-3.9,12.3-13.2,16.1c-9.4,3.8-18.7,2.7-20.8-2.4s3.9-12.3,13.3-16.1
	S204.3,174.5,206.4,179.7z"/>
<text transform="matrix(0.8325 -0.2329 0.2695 0.963 176.8114 195.1801)" class="st14 st1 st15">SAH</text>
</svg>
