<svg id="svg2403" xmlns="http://www.w3.org/2000/svg" viewBox="0 0 370.22 321.62"><defs><style>.cls-1{fill:#d7efc5;}.cls-2,.cls-20{fill:none;}.cls-13,.cls-18,.cls-2,.cls-20,.cls-3,.cls-4{stroke:#000;}.cls-2{stroke-width:1.44px;}.cls-12,.cls-14,.cls-22,.cls-3,.cls-8{fill:#d90000;}.cls-13,.cls-18,.cls-20,.cls-3,.cls-4{stroke-width:0.72px;}.cls-10,.cls-11,.cls-12,.cls-14,.cls-15,.cls-16,.cls-17,.cls-19,.cls-21,.cls-25,.cls-26,.cls-27,.cls-28,.cls-5,.cls-6,.cls-8,.cls-9{isolation:isolate;}.cls-5,.cls-7{font-size:17.07px;}.cls-10,.cls-11,.cls-12,.cls-14,.cls-15,.cls-16,.cls-17,.cls-19,.cls-21,.cls-26,.cls-27,.cls-28,.cls-5,.cls-6,.cls-7,.cls-8,.cls-9{font-family:ArialMT, Arial;}.cls-10,.cls-11,.cls-12,.cls-14,.cls-15,.cls-16,.cls-17,.cls-19,.cls-6,.cls-8,.cls-9{font-size:10.67px;}.cls-10,.cls-11,.cls-15,.cls-18,.cls-23,.cls-9{fill:#807b88;}.cls-10,.cls-17{letter-spacing:-0.02em;}.cls-11,.cls-12,.cls-16{letter-spacing:-0.06em;}.cls-13,.cls-24{fill:#fff;}.cls-14,.cls-15,.cls-19{letter-spacing:-0.06em;}.cls-21,.cls-26,.cls-27{font-size:10px;}.cls-22,.cls-24{stroke:#251e1c;}.cls-26{letter-spacing:-0.17em;}.cls-27{letter-spacing:-0.1em;}.cls-28{font-size:18.42px;}</style></defs><path class="cls-1" d="M219.49,179.19h24.27v7.66H219.49Z" transform="translate(-15.72 -33.54)"/><path class="cls-2" d="M229,183h5.22" transform="translate(-15.72 -33.54)"/><path class="cls-2" d="M229,172.27h5.22" transform="translate(-15.72 -33.54)"/><path class="cls-2" d="M229,161.52h5.22" transform="translate(-15.72 -33.54)"/><path class="cls-2" d="M229,150.76h5.22" transform="translate(-15.72 -33.54)"/><path class="cls-2" d="M229,140h5.22" transform="translate(-15.72 -33.54)"/><path class="cls-2" d="M212,108.79l2.61-4.79" transform="translate(-15.72 -33.54)"/><path class="cls-2" d="M203.22,103.41l2.61-4.79" transform="translate(-15.72 -33.54)"/><path class="cls-2" d="M194.43,98,197,93.25" transform="translate(-15.72 -33.54)"/><path class="cls-2" d="M185.64,92.66l2.61-4.79" transform="translate(-15.72 -33.54)"/><path class="cls-2" d="M169.61,82.85l2.61-4.79" transform="translate(-15.72 -33.54)"/><path class="cls-2" d="M160.82,77.47l2.61-4.79" transform="translate(-15.72 -33.54)"/><path class="cls-2" d="M152,72.1l2.61-4.79" transform="translate(-15.72 -33.54)"/><path class="cls-1" d="M134.23,74.29h0l13.3-24.42,7.34,4.49L141.56,78.78Z" transform="translate(-15.72 -33.54)"/><path class="cls-2" d="M143.24,66.72l2.61-4.79" transform="translate(-15.72 -33.54)"/><path class="cls-1" d="M125.44,68.91h0l13.3-24.41L146.08,49,132.77,73.4Z" transform="translate(-15.72 -33.54)"/><path class="cls-2" d="M134.45,61.34l2.61-4.79" transform="translate(-15.72 -33.54)"/><path class="cls-2" d="M252.24,123.31l-1.93,5.14" transform="translate(-15.72 -33.54)"/><path class="cls-2" d="M261.67,127.29l-1.93,5.14" transform="translate(-15.72 -33.54)"/><path class="cls-2" d="M67.27,15.3" transform="translate(-15.72 -33.54)"/><path class="cls-2" d="M67.27,15.3" transform="translate(-15.72 -33.54)"/><path class="cls-2" d="M67.27,15.3" transform="translate(-15.72 -33.54)"/><path class="cls-2" d="M67.27,15.3" transform="translate(-15.72 -33.54)"/><path class="cls-2" d="M67.27,15.3" transform="translate(-15.72 -33.54)"/><path class="cls-2" d="M67.27,15.3" transform="translate(-15.72 -33.54)"/><path class="cls-2" d="M67.27,15.3" transform="translate(-15.72 -33.54)"/><path class="cls-2" d="M67.27,15.3" transform="translate(-15.72 -33.54)"/><path class="cls-2" d="M67.27,15.3" transform="translate(-15.72 -33.54)"/><path class="cls-2" d="M67.27,15.3" transform="translate(-15.72 -33.54)"/><path class="cls-2" d="M67.27,15.3" transform="translate(-15.72 -33.54)"/><path class="cls-2" d="M67.27,15.3" transform="translate(-15.72 -33.54)"/><path class="cls-2" d="M67.27,15.3" transform="translate(-15.72 -33.54)"/><path class="cls-2" d="M67.27,15.3" transform="translate(-15.72 -33.54)"/><path class="cls-2" d="M67.27,15.3" transform="translate(-15.72 -33.54)"/><path class="cls-2" d="M67.27,15.3" transform="translate(-15.72 -33.54)"/><path class="cls-2" d="M67.27,15.3" transform="translate(-15.72 -33.54)"/><path class="cls-2" d="M67.27,15.3" transform="translate(-15.72 -33.54)"/><path class="cls-2" d="M67.27,15.3" transform="translate(-15.72 -33.54)"/><path class="cls-2" d="M67.27,15.3" transform="translate(-15.72 -33.54)"/><path class="cls-2" d="M67.27,15.3" transform="translate(-15.72 -33.54)"/><path class="cls-2" d="M67.27,15.3" transform="translate(-15.72 -33.54)"/><path class="cls-2" d="M67.27,15.3" transform="translate(-15.72 -33.54)"/><path class="cls-2" d="M67.27,15.3" transform="translate(-15.72 -33.54)"/><path class="cls-2" d="M67.27,15.3" transform="translate(-15.72 -33.54)"/><path class="cls-2" d="M67.27,15.3" transform="translate(-15.72 -33.54)"/><path class="cls-2" d="M67.27,15.3" transform="translate(-15.72 -33.54)"/><path class="cls-2" d="M67.27,15.3" transform="translate(-15.72 -33.54)"/><path class="cls-2" d="M67.27,15.3" transform="translate(-15.72 -33.54)"/><path class="cls-2" d="M67.27,15.3" transform="translate(-15.72 -33.54)"/><path class="cls-2" d="M67.27,15.3" transform="translate(-15.72 -33.54)"/><path class="cls-2" d="M67.27,15.3" transform="translate(-15.72 -33.54)"/><path class="cls-2" d="M67.27,15.3" transform="translate(-15.72 -33.54)"/><path class="cls-2" d="M67.27,15.3" transform="translate(-15.72 -33.54)"/><path class="cls-2" d="M67.27,15.3" transform="translate(-15.72 -33.54)"/><path class="cls-2" d="M67.27,15.3" transform="translate(-15.72 -33.54)"/><path class="cls-2" d="M67.27,15.3" transform="translate(-15.72 -33.54)"/><path class="cls-2" d="M67.27,15.3" transform="translate(-15.72 -33.54)"/><path class="cls-2" d="M67.27,15.3" transform="translate(-15.72 -33.54)"/><path class="cls-2" d="M67.27,15.3" transform="translate(-15.72 -33.54)"/><path class="cls-2" d="M67.27,15.3" transform="translate(-15.72 -33.54)"/><path class="cls-2" d="M67.27,15.3" transform="translate(-15.72 -33.54)"/><path class="cls-2" d="M67.27,15.3" transform="translate(-15.72 -33.54)"/><path class="cls-2" d="M67.27,15.3" transform="translate(-15.72 -33.54)"/><path class="cls-2" d="M67.27,15.3" transform="translate(-15.72 -33.54)"/><path class="cls-2" d="M67.27,15.3" transform="translate(-15.72 -33.54)"/><path class="cls-2" d="M67.27,15.3" transform="translate(-15.72 -33.54)"/><path class="cls-2" d="M67.27,15.3" transform="translate(-15.72 -33.54)"/><path class="cls-2" d="M67.27,15.3" transform="translate(-15.72 -33.54)"/><path class="cls-2" d="M67.27,15.3" transform="translate(-15.72 -33.54)"/><path class="cls-2" d="M67.27,15.3" transform="translate(-15.72 -33.54)"/><path class="cls-2" d="M67.27,15.3" transform="translate(-15.72 -33.54)"/><path class="cls-2" d="M67.27,15.3" transform="translate(-15.72 -33.54)"/><path class="cls-2" d="M67.27,15.3" transform="translate(-15.72 -33.54)"/><path class="cls-2" d="M67.27,15.3" transform="translate(-15.72 -33.54)"/><path class="cls-2" d="M67.27,15.3" transform="translate(-15.72 -33.54)"/><path class="cls-2" d="M67.27,15.3" transform="translate(-15.72 -33.54)"/><path class="cls-2" d="M67.27,15.3" transform="translate(-15.72 -33.54)"/><path class="cls-2" d="M67.27,15.3" transform="translate(-15.72 -33.54)"/><path class="cls-2" d="M67.27,15.3" transform="translate(-15.72 -33.54)"/><path class="cls-2" d="M67.27,15.3" transform="translate(-15.72 -33.54)"/><path class="cls-2" d="M67.27,15.3" transform="translate(-15.72 -33.54)"/><path class="cls-2" d="M67.27,15.3" transform="translate(-15.72 -33.54)"/><path class="cls-2" d="M67.27,15.3" transform="translate(-15.72 -33.54)"/><path class="cls-2" d="M67.27,15.3" transform="translate(-15.72 -33.54)"/><path class="cls-2" d="M67.27,15.3" transform="translate(-15.72 -33.54)"/><path class="cls-2" d="M67.27,15.3" transform="translate(-15.72 -33.54)"/><path class="cls-2" d="M67.27,15.3" transform="translate(-15.72 -33.54)"/><path class="cls-2" d="M67.27,15.3" transform="translate(-15.72 -33.54)"/><path class="cls-2" d="M67.27,15.3" transform="translate(-15.72 -33.54)"/><path class="cls-2" d="M67.27,15.3" transform="translate(-15.72 -33.54)"/><path class="cls-2" d="M67.27,15.3" transform="translate(-15.72 -33.54)"/><path class="cls-2" d="M67.27,15.3" transform="translate(-15.72 -33.54)"/><path class="cls-2" d="M67.27,15.3" transform="translate(-15.72 -33.54)"/><path class="cls-2" d="M67.27,15.3" transform="translate(-15.72 -33.54)"/><path class="cls-2" d="M67.27,15.3" transform="translate(-15.72 -33.54)"/><path class="cls-2" d="M67.27,15.3" transform="translate(-15.72 -33.54)"/><path class="cls-2" d="M67.27,15.3" transform="translate(-15.72 -33.54)"/><path class="cls-2" d="M67.27,15.3" transform="translate(-15.72 -33.54)"/><path class="cls-2" d="M67.27,15.3" transform="translate(-15.72 -33.54)"/><path class="cls-2" d="M67.27,15.3" transform="translate(-15.72 -33.54)"/><path class="cls-2" d="M67.27,15.3" transform="translate(-15.72 -33.54)"/><path class="cls-2" d="M67.27,15.3" transform="translate(-15.72 -33.54)"/><path class="cls-2" d="M67.27,15.3" transform="translate(-15.72 -33.54)"/><path class="cls-2" d="M67.27,15.3" transform="translate(-15.72 -33.54)"/><path class="cls-2" d="M67.27,15.3" transform="translate(-15.72 -33.54)"/><path class="cls-2" d="M67.27,15.3" transform="translate(-15.72 -33.54)"/><path class="cls-2" d="M67.27,15.3" transform="translate(-15.72 -33.54)"/><path class="cls-2" d="M67.27,15.3" transform="translate(-15.72 -33.54)"/><path class="cls-2" d="M67.27,15.3" transform="translate(-15.72 -33.54)"/><path class="cls-2" d="M67.27,15.3" transform="translate(-15.72 -33.54)"/><path class="cls-2" d="M67.27,15.3" transform="translate(-15.72 -33.54)"/><path class="cls-2" d="M67.27,15.3" transform="translate(-15.72 -33.54)"/><path class="cls-2" d="M67.27,15.3" transform="translate(-15.72 -33.54)"/><path class="cls-2" d="M67.27,15.3" transform="translate(-15.72 -33.54)"/><path class="cls-2" d="M67.27,15.3" transform="translate(-15.72 -33.54)"/><path class="cls-2" d="M67.27,15.3" transform="translate(-15.72 -33.54)"/><path class="cls-2" d="M67.27,15.3" transform="translate(-15.72 -33.54)"/><path class="cls-2" d="M67.27,15.3" transform="translate(-15.72 -33.54)"/><path class="cls-2" d="M67.27,15.3" transform="translate(-15.72 -33.54)"/><path class="cls-2" d="M67.27,15.3" transform="translate(-15.72 -33.54)"/><path class="cls-2" d="M67.27,15.3" transform="translate(-15.72 -33.54)"/><path class="cls-2" d="M67.27,15.3" transform="translate(-15.72 -33.54)"/><path class="cls-2" d="M67.27,15.3" transform="translate(-15.72 -33.54)"/><path class="cls-2" d="M67.27,15.3" transform="translate(-15.72 -33.54)"/><path class="cls-2" d="M67.27,15.3" transform="translate(-15.72 -33.54)"/><path class="cls-2" d="M67.27,15.3" transform="translate(-15.72 -33.54)"/><path class="cls-2" d="M67.27,15.3" transform="translate(-15.72 -33.54)"/><path class="cls-2" d="M67.27,15.3" transform="translate(-15.72 -33.54)"/><path class="cls-2" d="M67.27,15.3" transform="translate(-15.72 -33.54)"/><path class="cls-2" d="M67.27,15.3" transform="translate(-15.72 -33.54)"/><path class="cls-2" d="M67.27,15.3" transform="translate(-15.72 -33.54)"/><path class="cls-2" d="M67.27,15.3" transform="translate(-15.72 -33.54)"/><path class="cls-2" d="M67.27,15.3" transform="translate(-15.72 -33.54)"/><path class="cls-2" d="M67.27,15.3" transform="translate(-15.72 -33.54)"/><path class="cls-2" d="M67.27,15.3" transform="translate(-15.72 -33.54)"/><path class="cls-2" d="M67.27,15.3" transform="translate(-15.72 -33.54)"/><path class="cls-2" d="M67.27,15.3" transform="translate(-15.72 -33.54)"/><path class="cls-2" d="M67.27,15.3" transform="translate(-15.72 -33.54)"/><path class="cls-2" d="M67.27,15.3" transform="translate(-15.72 -33.54)"/><path class="cls-2" d="M67.27,15.3" transform="translate(-15.72 -33.54)"/><path class="cls-2" d="M67.27,15.3" transform="translate(-15.72 -33.54)"/><path class="cls-2" d="M67.27,15.3" transform="translate(-15.72 -33.54)"/><path class="cls-2" d="M67.27,15.3" transform="translate(-15.72 -33.54)"/><path class="cls-2" d="M67.27,15.3" transform="translate(-15.72 -33.54)"/><path class="cls-2" d="M67.27,15.3" transform="translate(-15.72 -33.54)"/><path class="cls-2" d="M67.27,15.3" transform="translate(-15.72 -33.54)"/><path class="cls-2" d="M67.27,15.3" transform="translate(-15.72 -33.54)"/><path class="cls-2" d="M67.27,15.3" transform="translate(-15.72 -33.54)"/><path class="cls-2" d="M67.27,15.3" transform="translate(-15.72 -33.54)"/><path class="cls-2" d="M67.27,15.3" transform="translate(-15.72 -33.54)"/><path class="cls-2" d="M67.27,15.3" transform="translate(-15.72 -33.54)"/><path class="cls-2" d="M67.27,15.3" transform="translate(-15.72 -33.54)"/><path class="cls-2" d="M67.27,15.3" transform="translate(-15.72 -33.54)"/><path class="cls-2" d="M67.27,15.3" transform="translate(-15.72 -33.54)"/><path class="cls-2" d="M67.27,15.3" transform="translate(-15.72 -33.54)"/><path class="cls-2" d="M67.27,15.3" transform="translate(-15.72 -33.54)"/><path class="cls-2" d="M67.27,15.3" transform="translate(-15.72 -33.54)"/><path class="cls-2" d="M67.27,15.3" transform="translate(-15.72 -33.54)"/><path class="cls-2" d="M67.27,15.3" transform="translate(-15.72 -33.54)"/><path class="cls-2" d="M67.27,15.3" transform="translate(-15.72 -33.54)"/><path class="cls-2" d="M67.27,15.3" transform="translate(-15.72 -33.54)"/><path class="cls-2" d="M67.27,15.3" transform="translate(-15.72 -33.54)"/><path class="cls-2" d="M67.27,15.3" transform="translate(-15.72 -33.54)"/><path class="cls-2" d="M67.27,15.3" transform="translate(-15.72 -33.54)"/><path class="cls-2" d="M67.27,15.3" transform="translate(-15.72 -33.54)"/><path class="cls-2" d="M67.27,15.3" transform="translate(-15.72 -33.54)"/><path class="cls-2" d="M67.27,15.3" transform="translate(-15.72 -33.54)"/><path class="cls-2" d="M67.27,15.3" transform="translate(-15.72 -33.54)"/><path class="cls-2" d="M67.27,15.3" transform="translate(-15.72 -33.54)"/><path class="cls-2" d="M67.27,15.3" transform="translate(-15.72 -33.54)"/><path class="cls-2" d="M67.27,15.3" transform="translate(-15.72 -33.54)"/><path class="cls-2" d="M67.27,15.3" transform="translate(-15.72 -33.54)"/><path class="cls-2" d="M67.27,15.3" transform="translate(-15.72 -33.54)"/><path class="cls-2" d="M67.27,15.3" transform="translate(-15.72 -33.54)"/><path class="cls-2" d="M67.27,15.3" transform="translate(-15.72 -33.54)"/><path class="cls-2" d="M67.27,15.3" transform="translate(-15.72 -33.54)"/><path class="cls-2" d="M67.27,15.3" transform="translate(-15.72 -33.54)"/><path class="cls-2" d="M67.27,15.3" transform="translate(-15.72 -33.54)"/><path class="cls-2" d="M67.27,15.3" transform="translate(-15.72 -33.54)"/><path class="cls-2" d="M67.27,15.3" transform="translate(-15.72 -33.54)"/><path class="cls-2" d="M67.27,15.3" transform="translate(-15.72 -33.54)"/><path class="cls-2" d="M67.27,15.3" transform="translate(-15.72 -33.54)"/><path class="cls-2" d="M67.27,15.3" transform="translate(-15.72 -33.54)"/><path class="cls-3" d="M97.89,190.63A3.44,3.44,0,1,1,94.45,187,3.54,3.54,0,0,1,97.89,190.63Z" transform="translate(-15.72 -33.54)"/><path class="cls-4" d="M108,190.63A3.44,3.44,0,1,1,104.6,187,3.54,3.54,0,0,1,108,190.63Z" transform="translate(-15.72 -33.54)"/><path class="cls-4" d="M118.18,190.63a3.44,3.44,0,1,1-3.43-3.64A3.54,3.54,0,0,1,118.18,190.63Z" transform="translate(-15.72 -33.54)"/><path class="cls-3" d="M128.33,190.63A3.44,3.44,0,1,1,124.9,187,3.54,3.54,0,0,1,128.33,190.63Z" transform="translate(-15.72 -33.54)"/><g id="text1002"><text class="cls-5" transform="translate(115.41 160.92) scale(0.94 1)"><tspan xml:space="preserve">   </tspan></text><text class="cls-6" transform="translate(115.41 160.92) scale(0.94 1)">G</text><text class="cls-7" transform="translate(123.24 160.92) scale(0.94 1)"> </text></g><g id="text1004"><text class="cls-5" transform="translate(125.84 160.92) scale(0.94 1)"><tspan xml:space="preserve">   </tspan></text><text class="cls-6" transform="translate(125.84 160.92) scale(0.94 1)">U</text><text class="cls-7" transform="translate(133.11 160.92) scale(0.94 1)"> </text></g><g id="text1006"><text class="cls-5" transform="translate(135.99 160.92) scale(0.94 1)"><tspan xml:space="preserve">   </tspan></text><text class="cls-8" transform="translate(135.99 160.92) scale(0.94 1)">U</text><text class="cls-7" transform="translate(143.26 160.92) scale(0.94 1)"> </text></g><g id="text1008"><text class="cls-5" transform="translate(146.14 160.92) scale(0.94 1)"><tspan xml:space="preserve">   </tspan></text><text class="cls-9" transform="translate(146.14 160.92) scale(0.94 1)">R</text><text class="cls-7" transform="translate(153.41 160.92) scale(0.94 1)"> </text></g><g id="text1010"><text class="cls-5" transform="translate(156.56 160.92) scale(0.94 1)"><tspan xml:space="preserve">   </tspan></text><text class="cls-10" transform="translate(156.56 160.92) scale(0.94 1)">Y</text><text class="cls-7" transform="translate(163.28 160.92) scale(0.94 1)"> </text></g><g id="text1012"><text class="cls-5" transform="translate(166.71 160.92) scale(0.94 1)"><tspan xml:space="preserve">   </tspan></text><text class="cls-11" transform="translate(166.71 160.92) scale(0.94 1)">A</text><text class="cls-7" transform="translate(173.43 160.92) scale(0.94 1)"> </text></g><g id="text1014"><text class="cls-5" transform="translate(176.86 160.92) scale(0.94 1)"><tspan xml:space="preserve">   </tspan></text><text class="cls-12" transform="translate(176.86 160.92) scale(0.94 1)">A</text><text class="cls-7" transform="translate(183.58 160.92) scale(0.94 1)"> </text></g><path class="cls-13" d="M209.52,190.63a3.44,3.44,0,1,1-3.43-3.64A3.54,3.54,0,0,1,209.52,190.63Z" transform="translate(-15.72 -33.54)"/><path class="cls-13" d="M219.67,190.63a3.44,3.44,0,1,1-3.44-3.64A3.54,3.54,0,0,1,219.67,190.63Z" transform="translate(-15.72 -33.54)"/><path class="cls-3" d="M226.84,183a3.44,3.44,0,1,1-3.43-3.64,3.54,3.54,0,0,1,3.43,3.64Z" transform="translate(-15.72 -33.54)"/><g id="text1016"><text class="cls-5" transform="translate(204.06 142.56) scale(0.94 1)"><tspan xml:space="preserve">   </tspan></text><text class="cls-8" transform="translate(204.06 142.56) scale(0.94 1)">U</text><text class="cls-7" transform="translate(211.33 142.56) scale(0.94 1)"> </text></g><g id="text1018"><text class="cls-5" transform="translate(204.06 131.8) scale(0.94 1)"><tspan xml:space="preserve">   </tspan></text><text class="cls-8" transform="translate(204.06 131.8) scale(0.94 1)">C</text><text class="cls-7" transform="translate(211.33 131.8) scale(0.94 1)"> </text></g><g id="text1020"><text class="cls-5" transform="translate(204.06 121.05) scale(0.94 1)"><tspan xml:space="preserve">   </tspan></text><text class="cls-8" transform="translate(204.06 121.05) scale(0.94 1)">C</text><text class="cls-7" transform="translate(211.33 121.05) scale(0.94 1)"> </text></g><g id="text1022"><text class="cls-5" transform="translate(204.06 110.3) scale(0.94 1)"><tspan xml:space="preserve">   </tspan></text><text class="cls-9" transform="translate(204.06 110.3) scale(0.94 1)">C</text><text class="cls-7" transform="translate(211.33 110.3) scale(0.94 1)"> </text></g><g id="text1024"><text class="cls-5" transform="translate(195.38 104.26) scale(0.94 1)"><tspan xml:space="preserve">   </tspan></text><text class="cls-8" transform="translate(195.38 104.26) scale(0.94 1)">G</text><text class="cls-7" transform="translate(203.21 104.26) scale(0.94 1)"> </text></g><g id="text1026"><text class="cls-5" transform="translate(190.86 94.95) scale(0.94 1)"><tspan xml:space="preserve">   </tspan></text><text class="cls-14" transform="translate(190.86 94.95) scale(0.94 1)">A</text><text class="cls-7" transform="translate(197.58 94.95) scale(0.94 1)"> </text></g><path class="cls-3" d="M212.64,113.93a3.44,3.44,0,1,1-3.44-3.63A3.54,3.54,0,0,1,212.64,113.93Z" transform="translate(-15.72 -33.54)"/><g id="text1028"><text class="cls-5" transform="translate(181.34 78.85) scale(0.94 1)"><tspan xml:space="preserve">   </tspan></text><text class="cls-15" transform="translate(181.34 78.85) scale(0.94 1)">A</text><text class="cls-7" transform="translate(188.05 78.85) scale(0.94 1)"> </text></g><g id="text1030"><text class="cls-5" transform="translate(171.99 73.47) scale(0.94 1)"><tspan xml:space="preserve">   </tspan></text><text class="cls-8" transform="translate(171.99 73.47) scale(0.94 1)">G</text><text class="cls-7" transform="translate(179.82 73.47) scale(0.94 1)"> </text></g><g id="text1032"><text class="cls-5" transform="translate(163.2 68.09) scale(0.94 1)"><tspan xml:space="preserve">   </tspan></text><text class="cls-8" transform="translate(163.2 68.09) scale(0.94 1)">G</text><text class="cls-7" transform="translate(171.03 68.09) scale(0.94 1)"> </text></g><g id="text1034"><text class="cls-5" transform="translate(153.66 67.01) scale(0.94 1)"><tspan xml:space="preserve">   </tspan></text><text class="cls-16" transform="translate(153.66 67.01) scale(0.94 1)">A</text><text class="cls-7" transform="translate(160.38 67.01) scale(0.94 1)"> </text></g><g id="text1036"><text class="cls-5" transform="translate(147.45 58.28) scale(0.94 1)"><tspan xml:space="preserve">   </tspan></text><text class="cls-8" transform="translate(147.45 58.28) scale(0.94 1)">U</text><text class="cls-7" transform="translate(154.72 58.28) scale(0.94 1)"> </text></g><g id="text1038"><text class="cls-5" transform="translate(138.66 52.91) scale(0.94 1)"><tspan xml:space="preserve">   </tspan></text><text class="cls-9" transform="translate(138.66 52.91) scale(0.94 1)">U</text><text class="cls-7" transform="translate(145.93 52.91) scale(0.94 1)"> </text></g><g id="text1040"><text class="cls-5" transform="translate(129.87 47.53) scale(0.94 1)"><tspan xml:space="preserve">   </tspan></text><text class="cls-9" transform="translate(129.87 47.53) scale(0.94 1)">C</text><text class="cls-7" transform="translate(137.14 47.53) scale(0.94 1)"> </text></g><g id="text1042"><text class="cls-5" transform="translate(121.08 42.15) scale(0.94 1)"><tspan xml:space="preserve">   </tspan></text><text class="cls-8" transform="translate(121.08 42.15) scale(0.94 1)">R</text><text class="cls-7" transform="translate(128.36 42.15) scale(0.94 1)"> </text></g><g id="text1044"><text class="cls-5" transform="translate(112.57 36.78) scale(0.94 1)"><tspan xml:space="preserve">   </tspan></text><text class="cls-17" transform="translate(112.57 36.78) scale(0.94 1)">Y</text><text class="cls-7" transform="translate(119.29 36.78) scale(0.94 1)"> </text></g><path class="cls-13" d="M125,67.3a3.44,3.44,0,1,1-3.43-3.64A3.54,3.54,0,0,1,125,67.3Z" transform="translate(-15.72 -33.54)"/><path class="cls-13" d="M116.87,60.81a3.44,3.44,0,1,1-3.43-3.64A3.54,3.54,0,0,1,116.87,60.81Z" transform="translate(-15.72 -33.54)"/><path class="cls-18" d="M114.86,50.27a3.44,3.44,0,1,1-3.44-3.64A3.54,3.54,0,0,1,114.86,50.27Z" transform="translate(-15.72 -33.54)"/><path class="cls-3" d="M119.93,41a3.44,3.44,0,1,1-3.43-3.64A3.53,3.53,0,0,1,119.93,41Z" transform="translate(-15.72 -33.54)"/><path class="cls-3" d="M129.55,37.54a3.44,3.44,0,1,1-3.43-3.64A3.54,3.54,0,0,1,129.55,37.54Z" transform="translate(-15.72 -33.54)"/><path class="cls-3" d="M138.9,41.72a3.44,3.44,0,1,1-3.43-3.64A3.54,3.54,0,0,1,138.9,41.72Z" transform="translate(-15.72 -33.54)"/><g id="text1046"><text class="cls-5" transform="translate(120.51 21.7) scale(0.94 1)"><tspan xml:space="preserve">   </tspan></text><text class="cls-6" transform="translate(120.51 21.7) scale(0.94 1)">R</text><text class="cls-7" transform="translate(127.78 21.7) scale(0.94 1)"> </text></g><g id="text1048"><text class="cls-5" transform="translate(129.58 27.07) scale(0.94 1)"><tspan xml:space="preserve">   </tspan></text><text class="cls-17" transform="translate(129.58 27.07) scale(0.94 1)">Y</text><text class="cls-7" transform="translate(136.29 27.07) scale(0.94 1)"> </text></g><g id="text1050"><text class="cls-5" transform="translate(137.81 32.45) scale(0.94 1)"><tspan xml:space="preserve">   </tspan></text><text class="cls-9" transform="translate(137.81 32.45) scale(0.94 1)">G</text><text class="cls-7" transform="translate(145.64 32.45) scale(0.94 1)"> </text></g><g id="text1052"><text class="cls-5" transform="translate(147.15 37.83) scale(0.94 1)"><tspan xml:space="preserve">   </tspan></text><text class="cls-11" transform="translate(147.15 37.83) scale(0.94 1)">A</text><text class="cls-7" transform="translate(153.87 37.83) scale(0.94 1)"> </text></g><g id="text1054"><text class="cls-5" transform="translate(155.94 43.21) scale(0.94 1)"><tspan xml:space="preserve">   </tspan></text><text class="cls-12" transform="translate(155.94 43.21) scale(0.94 1)">A</text><text class="cls-7" transform="translate(162.66 43.21) scale(0.94 1)"> </text></g><g id="text1056"><text class="cls-5" transform="translate(158.45 32.96) scale(0.94 1)"><tspan xml:space="preserve">   </tspan></text><text class="cls-6" transform="translate(158.45 32.96) scale(0.94 1)">G</text><text class="cls-7" transform="translate(166.29 32.96) scale(0.94 1)"> </text></g><g id="text1058"><text class="cls-5" transform="translate(168.48 29.07) scale(0.94 1)"><tspan xml:space="preserve">   </tspan></text><text class="cls-16" transform="translate(168.48 29.07) scale(0.94 1)">A</text><text class="cls-7" transform="translate(175.19 29.07) scale(0.94 1)"> </text></g><g id="text1060"><text class="cls-5" transform="translate(176.99 34.45) scale(0.94 1)"><tspan xml:space="preserve">   </tspan></text><text class="cls-9" transform="translate(176.99 34.45) scale(0.94 1)">U</text><text class="cls-7" transform="translate(184.26 34.45) scale(0.94 1)"> </text></g><g id="text1062"><text class="cls-5" transform="translate(178.26 45.07) scale(0.94 1)"><tspan xml:space="preserve">   </tspan></text><text class="cls-6" transform="translate(178.26 45.07) scale(0.94 1)">G</text><text class="cls-7" transform="translate(186.09 45.07) scale(0.94 1)"> </text></g><g id="text1064"><text class="cls-5" transform="translate(171.7 53.01) scale(0.94 1)"><tspan xml:space="preserve">   </tspan></text><text class="cls-8" transform="translate(171.7 53.01) scale(0.94 1)">C</text><text class="cls-7" transform="translate(178.97 53.01) scale(0.94 1)"> </text></g><g id="text1066"><text class="cls-5" transform="translate(180.49 58.39) scale(0.94 1)"><tspan xml:space="preserve">   </tspan></text><text class="cls-8" transform="translate(180.49 58.39) scale(0.94 1)">C</text><text class="cls-7" transform="translate(187.76 58.39) scale(0.94 1)"> </text></g><g id="text1068"><text class="cls-5" transform="translate(189.28 63.77) scale(0.94 1)"><tspan xml:space="preserve">   </tspan></text><text class="cls-8" transform="translate(189.28 63.77) scale(0.94 1)">U</text><text class="cls-7" transform="translate(196.55 63.77) scale(0.94 1)"> </text></g><g id="text1070"><text class="cls-5" transform="translate(198.07 69.14) scale(0.94 1)"><tspan xml:space="preserve">   </tspan></text><text class="cls-8" transform="translate(198.07 69.14) scale(0.94 1)">U</text><text class="cls-7" transform="translate(205.34 69.14) scale(0.94 1)"> </text></g><g id="text1072"><text class="cls-5" transform="translate(206.92 64.46) scale(0.94 1)"><tspan xml:space="preserve">   </tspan></text><text class="cls-8" transform="translate(206.92 64.46) scale(0.94 1)">G</text><text class="cls-7" transform="translate(214.75 64.46) scale(0.94 1)"> </text></g><g id="text1074"><text class="cls-5" transform="translate(217.35 64.46) scale(0.94 1)"><tspan xml:space="preserve">   </tspan></text><text class="cls-8" transform="translate(217.35 64.46) scale(0.94 1)">U</text><text class="cls-7" transform="translate(224.62 64.46) scale(0.94 1)"> </text></g><g id="text1076"><text class="cls-5" transform="translate(226.76 69.14) scale(0.94 1)"><tspan xml:space="preserve">   </tspan></text><text class="cls-14" transform="translate(226.76 69.14) scale(0.94 1)">A</text><text class="cls-7" transform="translate(233.47 69.14) scale(0.94 1)"> </text></g><g id="text1078"><text class="cls-5" transform="translate(233.05 77.58) scale(0.94 1)"><tspan xml:space="preserve">   </tspan></text><text class="cls-14" transform="translate(233.05 77.58) scale(0.94 1)">A</text><text class="cls-7" transform="translate(239.76 77.58) scale(0.94 1)"> </text></g><g id="text1080"><text class="cls-5" transform="translate(234.96 88.08) scale(0.94 1)"><tspan xml:space="preserve">   </tspan></text><text class="cls-8" transform="translate(234.96 88.08) scale(0.94 1)">C</text><text class="cls-7" transform="translate(242.23 88.08) scale(0.94 1)"> </text></g><g id="text1082"><text class="cls-5" transform="translate(244.39 92.06) scale(0.94 1)"><tspan xml:space="preserve">   </tspan></text><text class="cls-8" transform="translate(244.39 92.06) scale(0.94 1)">C</text><text class="cls-7" transform="translate(251.66 92.06) scale(0.94 1)"> </text></g><g id="text1084"><text class="cls-5" transform="translate(252.86 86.13) scale(0.94 1)"><tspan xml:space="preserve">   </tspan></text><text class="cls-6" transform="translate(252.86 86.13) scale(0.94 1)">R</text><text class="cls-7" transform="translate(260.13 86.13) scale(0.94 1)"> </text></g><g id="text1086"><text class="cls-5" transform="translate(263.21 84.82) scale(0.94 1)"><tspan xml:space="preserve">   </tspan></text><text class="cls-15" transform="translate(263.21 84.82) scale(0.94 1)">A</text><text class="cls-7" transform="translate(269.92 84.82) scale(0.94 1)"> </text></g><g id="text1088"><text class="cls-5" transform="translate(272.78 88.38) scale(0.94 1)"><tspan xml:space="preserve">   </tspan></text><text class="cls-15" transform="translate(272.78 88.38) scale(0.94 1)">A</text><text class="cls-7" transform="translate(279.5 88.38) scale(0.94 1)"> </text></g><path class="cls-4" d="M302.38,125.79a3.44,3.44,0,1,1-3.44-3.64A3.54,3.54,0,0,1,302.38,125.79Z" transform="translate(-15.72 -33.54)"/><path class="cls-4" d="M305.5,136a3.44,3.44,0,1,1-6.87,0h0a3.44,3.44,0,1,1,6.87,0Z" transform="translate(-15.72 -33.54)"/><g id="text1090"><text class="cls-5" transform="translate(281.21 116.95) scale(0.94 1)"><tspan xml:space="preserve">   </tspan></text><text class="cls-6" transform="translate(281.21 116.95) scale(0.94 1)">U</text><text class="cls-7" transform="translate(288.48 116.95) scale(0.94 1)"> </text></g><g id="text1092"><text class="cls-5" transform="translate(275.68 125.77) scale(0.94 1)"><tspan xml:space="preserve">   </tspan></text><text class="cls-15" transform="translate(275.68 125.77) scale(0.94 1)">A</text><text class="cls-7" transform="translate(282.39 125.77) scale(0.94 1)"> </text></g><path class="cls-18" d="M289.29,160.65a3.44,3.44,0,1,1-6.87,0h0a3.44,3.44,0,1,1,6.87,0Z" transform="translate(-15.72 -33.54)"/><path class="cls-4" d="M279.15,161.09a3.44,3.44,0,1,1-3.43-3.64A3.54,3.54,0,0,1,279.15,161.09Z" transform="translate(-15.72 -33.54)"/><path class="cls-3" d="M269.88,156.71a3.44,3.44,0,1,1-3.43-3.64,3.53,3.53,0,0,1,3.43,3.64Z" transform="translate(-15.72 -33.54)"/><path class="cls-3" d="M263.42,148.42a3.44,3.44,0,1,1-6.87,0h0a3.44,3.44,0,1,1,6.87,0Z" transform="translate(-15.72 -33.54)"/><g id="text1094"><text class="cls-5" transform="translate(238.03 108.24) scale(0.94 1)"><tspan xml:space="preserve">   </tspan></text><text class="cls-8" transform="translate(238.03 108.24) scale(0.94 1)">G</text><text class="cls-7" transform="translate(245.86 108.24) scale(0.94 1)"> </text></g><g id="text1096"><text class="cls-5" transform="translate(228.6 104.26) scale(0.94 1)"><tspan xml:space="preserve">   </tspan></text><text class="cls-8" transform="translate(228.6 104.26) scale(0.94 1)">G</text><text class="cls-7" transform="translate(236.44 104.26) scale(0.94 1)"> </text></g><g id="text1098"><text class="cls-5" transform="translate(220.21 110.3) scale(0.94 1)"><tspan xml:space="preserve">   </tspan></text><text class="cls-8" transform="translate(220.21 110.3) scale(0.94 1)">G</text><text class="cls-7" transform="translate(228.04 110.3) scale(0.94 1)"> </text></g><g id="text1100"><text class="cls-5" transform="translate(220.21 121.05) scale(0.94 1)"><tspan xml:space="preserve">   </tspan></text><text class="cls-8" transform="translate(220.21 121.05) scale(0.94 1)">G</text><text class="cls-7" transform="translate(228.04 121.05) scale(0.94 1)"> </text></g><g id="text1102"><text class="cls-5" transform="translate(220.21 131.8) scale(0.94 1)"><tspan xml:space="preserve">   </tspan></text><text class="cls-8" transform="translate(220.21 131.8) scale(0.94 1)">G</text><text class="cls-7" transform="translate(228.04 131.8) scale(0.94 1)"> </text></g><g id="text1104"><text class="cls-5" transform="translate(220.76 142.56) scale(0.94 1)"><tspan xml:space="preserve">   </tspan></text><text class="cls-14" transform="translate(220.76 142.56) scale(0.94 1)">A</text><text class="cls-7" transform="translate(227.48 142.56) scale(0.94 1)"> </text></g><path class="cls-3" d="M243.28,183a3.44,3.44,0,1,1-3.43-3.63A3.55,3.55,0,0,1,243.28,183Z" transform="translate(-15.72 -33.54)"/><path class="cls-13" d="M250.45,190.63A3.44,3.44,0,1,1,247,187,3.54,3.54,0,0,1,250.45,190.63Z" transform="translate(-15.72 -33.54)"/><path class="cls-13" d="M260.6,190.63a3.44,3.44,0,1,1-3.43-3.64A3.54,3.54,0,0,1,260.6,190.63Z" transform="translate(-15.72 -33.54)"/><path class="cls-4" d="M270.75,190.63a3.44,3.44,0,1,1-3.43-3.63A3.55,3.55,0,0,1,270.75,190.63Z" transform="translate(-15.72 -33.54)"/><g id="text1106"><text class="cls-5" transform="translate(258.11 160.92) scale(0.94 1)"><tspan xml:space="preserve">   </tspan></text><text class="cls-9" transform="translate(258.11 160.92) scale(0.94 1)">R</text><text class="cls-7" transform="translate(265.38 160.92) scale(0.94 1)"> </text></g><path class="cls-3" d="M291,190.63a3.44,3.44,0,1,1-3.42-3.63A3.54,3.54,0,0,1,291,190.63Z" transform="translate(-15.72 -33.54)"/><path class="cls-4" d="M301.19,190.63a3.44,3.44,0,1,1-3.43-3.64A3.54,3.54,0,0,1,301.19,190.63Z" transform="translate(-15.72 -33.54)"/><g id="text1108"><text class="cls-5" transform="translate(288.83 160.92) scale(0.94 1)"><tspan xml:space="preserve">   </tspan></text><text class="cls-19" transform="translate(288.83 160.92) scale(0.94 1)">A</text><text class="cls-7" transform="translate(295.55 160.92) scale(0.94 1)"> </text></g><g id="text1110"><text class="cls-5" transform="translate(298.7 160.92) scale(0.94 1)"><tspan xml:space="preserve">   </tspan></text><text class="cls-6" transform="translate(298.7 160.92) scale(0.94 1)">U</text><text class="cls-7" transform="translate(305.97 160.92) scale(0.94 1)"> </text></g><g id="text1112"><text class="cls-5" transform="translate(308.57 160.92) scale(0.94 1)"><tspan xml:space="preserve">   </tspan></text><text class="cls-9" transform="translate(308.57 160.92) scale(0.94 1)">G</text><text class="cls-7" transform="translate(316.4 160.92) scale(0.94 1)"> </text></g><path class="cls-20" d="M84.31,190.63h5.07" transform="translate(-15.72 -33.54)"/><g id="text1114"><text class="cls-5" transform="translate(59.05 160.92) scale(0.94 1)"><tspan xml:space="preserve">   </tspan></text><text class="cls-6" transform="translate(59.05 160.92) scale(0.94 1)">5&apos;</text><text class="cls-7" transform="translate(66.57 160.92) scale(0.94 1)"> </text></g><rect class="cls-1" x="144.67" y="232.39" width="8.78" height="8.78"/><text class="cls-21" transform="translate(160.12 240.7)">Statistically significant basepair with covariation</text><rect class="cls-22" x="144.67" y="251.69" width="8.78" height="8.78"/><text class="cls-21" transform="translate(162.43 260.48)">97% conserved nucleotide</text><rect class="cls-4" x="144.79" y="270.99" width="8.78" height="8.78"/><rect class="cls-23" x="144.47" y="290.3" width="8.78" height="8.78"/><text class="cls-21" transform="translate(160.58 278.63)">90% conserved nucleotide</text><text class="cls-21" transform="translate(161 299.08)">75% conserved nucleotide</text><rect class="cls-24" x="144.47" y="309.6" width="8.78" height="8.78"/><text class="cls-21" transform="translate(162.39 318.38)">50% conserved nucleotide</text><text class="cls-21" transform="translate(42.32 263.38)">Nucleotides</text><text class="cls-21" transform="translate(42.32 275.38)">R:</text><g class="cls-25"><text class="cls-26" transform="translate(52.32 275.38)"><tspan xml:space="preserve"> A</tspan></text></g><g class="cls-25"><text class="cls-21" transform="translate(60.66 275.38)"><tspan xml:space="preserve"> or G</tspan></text></g><text class="cls-27" transform="translate(42.32 287.38)">Y</text><text class="cls-21" transform="translate(48.44 287.38)">: C or U</text><text class="cls-28" transform="translate(0 117.22) scale(1.06 1)">SAM-III riboswitch</text></svg>