<svg id="图层_1" data-name="图层 1" xmlns="http://www.w3.org/2000/svg" viewBox="0 0 400 400">
  <defs>
    <style>
      .cls-1 {
        fill: #ff0b0c;
        stroke: #ff0b0c;
        stroke-miterlimit: 10;
      }

      .cls-2 {
        isolation: isolate;
      }

      .cls-12, .cls-3 {
        fill: #fff;
      }

      .cls-4 {
        fill: #ffaadc;
      }

      .cls-5 {
        fill: #80db9e;
      }

      .cls-6 {
        fill: #09fefe;
      }

      .cls-7 {
        fill: #251e1c;
      }

      .cls-8 {
        fill: #c2c2ff;
      }

      .cls-11, .cls-9 {
        fill: none;
      }

      .cls-10, .cls-11, .cls-12, .cls-9 {
        stroke: #000;
        stroke-miterlimit: 1.11;
      }

      .cls-10, .cls-12, .cls-9 {
        stroke-width: 0.14px;
      }

      .cls-11 {
        stroke-width: 0.5px;
      }
    </style>
  </defs>
  <path class="cls-1" d="M244,253.7c0,5.5-6.8,10.1-15.1,10.1s-15.2-4.5-15.2-10.1,6.8-10.1,15.2-10.1S244,248,244,253.7Z"/>
  <g class="cls-2">
    <path class="cls-3" d="M217,254.74l.94-.08a2.18,2.18,0,0,0,.31,1,1.67,1.67,0,0,0,.76.6,2.69,2.69,0,0,0,1.15.24,2.64,2.64,0,0,0,1-.18,1.44,1.44,0,0,0,.65-.48,1.16,1.16,0,0,0,.21-.67,1.08,1.08,0,0,0-.2-.64,1.56,1.56,0,0,0-.68-.46,12.76,12.76,0,0,0-1.34-.38,6,6,0,0,1-1.45-.49,2,2,0,0,1-.81-.72,1.9,1.9,0,0,1-.26-1,2.1,2.1,0,0,1,.32-1.11,2.05,2.05,0,0,1,1-.78,3.9,3.9,0,0,1,2.85,0,2.12,2.12,0,0,1,1,.82,2.54,2.54,0,0,1,.37,1.23l-1,.07a1.63,1.63,0,0,0-.52-1.12,2,2,0,0,0-1.31-.37,2.07,2.07,0,0,0-1.32.34,1.05,1.05,0,0,0-.41.83.91.91,0,0,0,.29.69,3.74,3.74,0,0,0,1.5.55,9.83,9.83,0,0,1,1.67.5,2.31,2.31,0,0,1,1,.8,2,2,0,0,1,.31,1.11,2.18,2.18,0,0,1-.34,1.17,2.32,2.32,0,0,1-1,.86,3.39,3.39,0,0,1-1.45.3,4.12,4.12,0,0,1-1.71-.31,2.45,2.45,0,0,1-1.09-.92A2.83,2.83,0,0,1,217,254.74Z"/>
    <path class="cls-3" d="M223.54,257.25l2.9-7.8h1.07l3.08,7.8h-1.14l-.87-2.36h-3.15l-.83,2.36Zm2.18-3.2h2.55l-.79-2.16c-.24-.66-.42-1.2-.53-1.62a10,10,0,0,1-.41,1.49Z"/>
    <path class="cls-3" d="M231.35,257.25v-7.8h1.5l1.78,5.52c.17.52.29.9.36,1.16.09-.29.22-.7.4-1.25l1.8-5.43h1.34v7.8h-1v-6.53l-2.18,6.53h-.9l-2.18-6.64v6.64Z"/>
  </g>
  <g class="cls-2">
    <path class="cls-4" d="M286.41,138.91v-15h5.67a14.49,14.49,0,0,1,2.29.14,4.53,4.53,0,0,1,1.85.7,3.78,3.78,0,0,1,1.21,1.45,4.71,4.71,0,0,1,.45,2.06,4.58,4.58,0,0,1-1.22,3.24c-.81.89-2.28,1.33-4.41,1.33H288.4v6.11Zm2-7.88h3.89a4.1,4.1,0,0,0,2.73-.72,2.56,2.56,0,0,0,.81-2,2.79,2.79,0,0,0-.47-1.62,2.2,2.2,0,0,0-1.26-.88,8.27,8.27,0,0,0-1.86-.14H288.4Z"/>
    <path class="cls-4" d="M309.37,137.14v1.77h-9.94a3.29,3.29,0,0,1,.22-1.28,6.86,6.86,0,0,1,1.21-2,18.48,18.48,0,0,1,2.42-2.28,20.56,20.56,0,0,0,3.31-3.18,3.83,3.83,0,0,0,.86-2.22,2.47,2.47,0,0,0-.78-1.85,3.19,3.19,0,0,0-4.18,0,3,3,0,0,0-.81,2.22l-1.9-.2a4.66,4.66,0,0,1,1.47-3.23,5,5,0,0,1,3.41-1.11,4.78,4.78,0,0,1,3.43,1.2,3.94,3.94,0,0,1,1.26,3,4.6,4.6,0,0,1-.37,1.77,7,7,0,0,1-1.23,1.84,30.63,30.63,0,0,1-2.84,2.64,27.47,27.47,0,0,0-2.13,1.9,5.33,5.33,0,0,0-.78,1Z"/>
  </g>
  <g class="cls-2">
    <path class="cls-5" d="M279.07,349.56v-15h5.67a14.49,14.49,0,0,1,2.29.14,4.53,4.53,0,0,1,1.85.7,3.78,3.78,0,0,1,1.21,1.45,4.71,4.71,0,0,1,.45,2.06,4.58,4.58,0,0,1-1.22,3.24c-.81.89-2.28,1.33-4.4,1.33h-3.86v6.11Zm2-7.89H285a4.1,4.1,0,0,0,2.73-.71,2.57,2.57,0,0,0,.81-2,2.79,2.79,0,0,0-.47-1.62,2.27,2.27,0,0,0-1.26-.89,9.15,9.15,0,0,0-1.86-.13h-3.84Z"/>
    <path class="cls-5" d="M299.28,349.56h-1.85V337.8a9.34,9.34,0,0,1-1.74,1.27,12.69,12.69,0,0,1-1.95.95v-1.78a11.11,11.11,0,0,0,2.71-1.76,6.94,6.94,0,0,0,1.64-2h1.19Z"/>
  </g>
  <g class="cls-2">
    <path class="cls-6" d="M53.44,330.48v-15h5.67a14.49,14.49,0,0,1,2.29.14,4.53,4.53,0,0,1,1.85.7,3.74,3.74,0,0,1,1.21,1.46,4.63,4.63,0,0,1,.45,2.05A4.58,4.58,0,0,1,63.69,323c-.81.89-2.28,1.33-4.41,1.33H55.43v6.11Zm2-7.88h3.89a4.1,4.1,0,0,0,2.73-.72,2.56,2.56,0,0,0,.81-2,2.79,2.79,0,0,0-.47-1.62,2.2,2.2,0,0,0-1.26-.88,8.27,8.27,0,0,0-1.86-.14H55.43Z"/>
    <path class="cls-6" d="M66.71,326.51l1.84-.24a4.13,4.13,0,0,0,1.09,2.26,2.68,2.68,0,0,0,1.86.69,3,3,0,0,0,2.2-.9,3.08,3.08,0,0,0,.89-2.24,2.82,2.82,0,0,0-2.94-2.92,5.57,5.57,0,0,0-1.3.2l.2-1.62a1.85,1.85,0,0,0,.3,0,3.78,3.78,0,0,0,2.12-.61,2.11,2.11,0,0,0,1-1.9,2.25,2.25,0,0,0-.69-1.68,2.46,2.46,0,0,0-1.77-.67,2.53,2.53,0,0,0-1.8.68,3.41,3.41,0,0,0-.92,2l-1.85-.33a4.77,4.77,0,0,1,1.54-2.87,4.46,4.46,0,0,1,3-1,4.79,4.79,0,0,1,2.26.53,3.84,3.84,0,0,1,1.59,1.44,3.7,3.7,0,0,1,.54,1.93,3.19,3.19,0,0,1-.52,1.78,3.6,3.6,0,0,1-1.55,1.27,3.44,3.44,0,0,1,2.07,1.28,3.81,3.81,0,0,1,.74,2.42,4.46,4.46,0,0,1-1.43,3.34,5.07,5.07,0,0,1-3.63,1.37,4.76,4.76,0,0,1-3.29-1.18A4.57,4.57,0,0,1,66.71,326.51Z"/>
  </g>
  <g class="cls-2">
    <path class="cls-7" d="M205,386.24l1.32-.15a2.43,2.43,0,0,0,.77,1.42,2,2,0,0,0,1.32.43,2.28,2.28,0,0,0,1.57-.57,1.77,1.77,0,0,0,.64-1.4,1.67,1.67,0,0,0-.59-1.31,2.2,2.2,0,0,0-1.51-.52,4.09,4.09,0,0,0-.93.13l.15-1H208a3,3,0,0,0,1.52-.38,1.3,1.3,0,0,0,.67-1.19,1.32,1.32,0,0,0-.49-1.06,1.94,1.94,0,0,0-1.27-.41,2,2,0,0,0-1.28.42,2,2,0,0,0-.65,1.27l-1.32-.2a2.91,2.91,0,0,1,1.1-1.81,3.49,3.49,0,0,1,2.12-.64,3.91,3.91,0,0,1,1.62.33,2.73,2.73,0,0,1,1.13.91,2.12,2.12,0,0,1,.39,1.21,1.84,1.84,0,0,1-.37,1.12,2.48,2.48,0,0,1-1.11.79,2.53,2.53,0,0,1,1.48.81,2.23,2.23,0,0,1,.53,1.52,2.62,2.62,0,0,1-1,2.09,3.88,3.88,0,0,1-2.58.86,3.69,3.69,0,0,1-2.35-.74A2.75,2.75,0,0,1,205,386.24Z"/>
  </g>
  <g class="cls-2">
    <path class="cls-7" d="M213.7,381.66v-1.23h1.53v1a2,2,0,0,1-.25,1.13,2,2,0,0,1-1.06.72l-.34-.42a1.2,1.2,0,0,0,.63-.41,1.37,1.37,0,0,0,.24-.76Z"/>
  </g>
  <g class="cls-2">
    <path class="cls-7" d="M254.08,386.66l1.51-.1a1.92,1.92,0,0,0,.77,1.26,2.55,2.55,0,0,0,1.48.42,2.64,2.64,0,0,0,1.75-.6,1.93,1.93,0,0,0,.72-1.57,1.77,1.77,0,0,0-.69-1.47,2.85,2.85,0,0,0-1.81-.54,3.13,3.13,0,0,0-1.25.24,2.35,2.35,0,0,0-.88.62l-1.35-.13,1.14-4.56h5.81v1h-4.66l-.64,2.39a4.6,4.6,0,0,1,2.22-.56,4.15,4.15,0,0,1,2.58.8,2.5,2.5,0,0,1,1.05,2.07,2.81,2.81,0,0,1-.92,2.09,4.3,4.3,0,0,1-3.07,1.07,4.6,4.6,0,0,1-2.61-.67A2.5,2.5,0,0,1,254.08,386.66Z"/>
  </g>
  <g class="cls-2">
    <path class="cls-7" d="M263.46,381.66v-1.23H265v1a2,2,0,0,1-.25,1.13,2,2,0,0,1-1.06.72l-.34-.42a1.2,1.2,0,0,0,.63-.41,1.37,1.37,0,0,0,.24-.76Z"/>
  </g>
  <g id="ID000002">
    <g class="cls-2">
      <path class="cls-5" d="M249.24,368.74V367.5h4.6v3.91a8.13,8.13,0,0,1-2.18,1.24,6.78,6.78,0,0,1-2.31.41,6.36,6.36,0,0,1-2.91-.66,4.48,4.48,0,0,1-2-1.93,5.83,5.83,0,0,1-.67-2.81,6.37,6.37,0,0,1,.66-2.87,4.39,4.39,0,0,1,1.91-2,6.13,6.13,0,0,1,2.87-.64,5.81,5.81,0,0,1,2.13.37,3.49,3.49,0,0,1,1.49,1,4.57,4.57,0,0,1,.82,1.73l-1.3.34a3.7,3.7,0,0,0-.6-1.26,2.48,2.48,0,0,0-1-.74,3.82,3.82,0,0,0-1.5-.28,4.62,4.62,0,0,0-1.7.29,3.18,3.18,0,0,0-1.16.77,3.53,3.53,0,0,0-.68,1,5.31,5.31,0,0,0-.42,2.12,5.06,5.06,0,0,0,.5,2.36,3.07,3.07,0,0,0,1.46,1.41,4.54,4.54,0,0,0,2,.46,4.83,4.83,0,0,0,1.82-.35,4.88,4.88,0,0,0,1.35-.74v-2Z"/>
    </g>
  </g>
  <g id="ID000003">
    <g class="cls-2">
      <path class="cls-5" d="M249.24,354.05v-1.24h4.6v3.91a8.13,8.13,0,0,1-2.18,1.24,6.78,6.78,0,0,1-2.31.41,6.36,6.36,0,0,1-2.91-.66,4.48,4.48,0,0,1-2-1.93,5.83,5.83,0,0,1-.67-2.81,6.37,6.37,0,0,1,.66-2.87,4.39,4.39,0,0,1,1.91-2,6.13,6.13,0,0,1,2.87-.64,5.81,5.81,0,0,1,2.13.37,3.49,3.49,0,0,1,1.49,1,4.57,4.57,0,0,1,.82,1.73l-1.3.34a3.7,3.7,0,0,0-.6-1.26,2.48,2.48,0,0,0-1-.74,3.82,3.82,0,0,0-1.5-.28,4.62,4.62,0,0,0-1.7.29,3.18,3.18,0,0,0-1.16.77,3.53,3.53,0,0,0-.68,1,5.31,5.31,0,0,0-.42,2.12,5.06,5.06,0,0,0,.5,2.36,3.12,3.12,0,0,0,1.46,1.41,4.54,4.54,0,0,0,2,.46,4.83,4.83,0,0,0,1.82-.35,4.88,4.88,0,0,0,1.35-.74v-2Z"/>
    </g>
  </g>
  <g id="ID000004">
    <g class="cls-2">
      <path class="cls-5" d="M252.33,339.79l1.44.35a4.69,4.69,0,0,1-1.63,2.63,4.57,4.57,0,0,1-2.87.9,5.19,5.19,0,0,1-2.85-.7,4.35,4.35,0,0,1-1.68-2,7,7,0,0,1-.57-2.82,6,6,0,0,1,.65-2.88,4.4,4.4,0,0,1,1.84-1.86,5.59,5.59,0,0,1,2.63-.64,4.57,4.57,0,0,1,2.75.81,4.16,4.16,0,0,1,1.54,2.27l-1.41.32a3.24,3.24,0,0,0-1.1-1.68,3,3,0,0,0-1.8-.52,3.59,3.59,0,0,0-2.1.58,3.1,3.1,0,0,0-1.18,1.57,6,6,0,0,0-.34,2,6.46,6.46,0,0,0,.4,2.35,2.94,2.94,0,0,0,1.26,1.5,3.6,3.6,0,0,0,1.84.49,3.16,3.16,0,0,0,2-.67A3.43,3.43,0,0,0,252.33,339.79Z"/>
    </g>
  </g>
  <g id="ID000005">
    <g class="cls-2">
      <path class="cls-5" d="M243.81,328.8,248,318.25h1.55L254,328.8h-1.64l-1.26-3.2h-4.54l-1.19,3.2Zm3.13-4.33h3.68l-1.13-2.92c-.35-.89-.6-1.62-.77-2.19a12.13,12.13,0,0,1-.59,2Z"/>
    </g>
  </g>
  <g id="ID000006">
    <g class="cls-2">
      <path class="cls-5" d="M251.71,303.56h1.44v6.09a7.19,7.19,0,0,1-.37,2.53,3.16,3.16,0,0,1-1.34,1.52,4.87,4.87,0,0,1-2.54.59,5.3,5.3,0,0,1-2.49-.51A3,3,0,0,1,245,312.3a6.85,6.85,0,0,1-.41-2.65v-6.09H246v6.09a5.61,5.61,0,0,0,.27,2,1.93,1.93,0,0,0,.9,1,3.28,3.28,0,0,0,1.57.35,3,3,0,0,0,2.26-.7,4,4,0,0,0,.67-2.68Z"/>
    </g>
  </g>
  <g id="ID000007">
    <g class="cls-2">
      <path class="cls-5" d="M251.71,288.87h1.44V295a7.23,7.23,0,0,1-.37,2.53,3.16,3.16,0,0,1-1.34,1.52,4.87,4.87,0,0,1-2.54.58,5.3,5.3,0,0,1-2.49-.51,3,3,0,0,1-1.39-1.47,6.85,6.85,0,0,1-.41-2.65v-6.09H246V295a5.61,5.61,0,0,0,.27,2,1.91,1.91,0,0,0,.9,1,3.17,3.17,0,0,0,1.57.36,3.09,3.09,0,0,0,2.26-.7,4,4,0,0,0,.67-2.68Z"/>
    </g>
  </g>
  <g id="ID000008">
    <g class="cls-2">
      <path class="cls-8" d="M249.24,280.59v-1.24h4.6v3.91a8.13,8.13,0,0,1-2.18,1.24,6.78,6.78,0,0,1-2.31.41,6.36,6.36,0,0,1-2.91-.66,4.48,4.48,0,0,1-2-1.93,5.83,5.83,0,0,1-.67-2.81,6.37,6.37,0,0,1,.66-2.87,4.39,4.39,0,0,1,1.91-2,6.13,6.13,0,0,1,2.87-.64,5.81,5.81,0,0,1,2.13.37,3.58,3.58,0,0,1,1.49,1,4.57,4.57,0,0,1,.82,1.73l-1.3.34a3.7,3.7,0,0,0-.6-1.26,2.48,2.48,0,0,0-1-.74,3.82,3.82,0,0,0-1.5-.28,4.62,4.62,0,0,0-1.7.29,3.18,3.18,0,0,0-1.16.77,3.66,3.66,0,0,0-.68,1,5.31,5.31,0,0,0-.42,2.12,5.06,5.06,0,0,0,.5,2.36,3.07,3.07,0,0,0,1.46,1.41,4.54,4.54,0,0,0,2,.46,4.83,4.83,0,0,0,1.82-.35,4.88,4.88,0,0,0,1.35-.74v-2Z"/>
    </g>
  </g>
  <g id="ID000009">
    <g class="cls-2">
      <path class="cls-5" d="M219,295.28V294h4.6V298a8.24,8.24,0,0,1-2.18,1.23,6.64,6.64,0,0,1-2.32.41,6.34,6.34,0,0,1-2.9-.66,4.51,4.51,0,0,1-2-1.93,5.92,5.92,0,0,1-.66-2.81,6.4,6.4,0,0,1,.66-2.87,4.32,4.32,0,0,1,1.91-2,6.12,6.12,0,0,1,2.86-.65,5.73,5.73,0,0,1,2.13.37,3.55,3.55,0,0,1,1.5,1,4.57,4.57,0,0,1,.82,1.73l-1.3.34a3.7,3.7,0,0,0-.61-1.26,2.47,2.47,0,0,0-1-.74,4,4,0,0,0-1.5-.28,4.58,4.58,0,0,0-1.7.29,3.18,3.18,0,0,0-1.16.77,3.84,3.84,0,0,0-.69,1,5.54,5.54,0,0,0-.41,2.13,5.09,5.09,0,0,0,.5,2.36,3.19,3.19,0,0,0,1.45,1.41,4.75,4.75,0,0,0,2,.46,5.08,5.08,0,0,0,1.83-.35,4.65,4.65,0,0,0,1.34-.75v-2Z"/>
    </g>
  </g>
  <g id="ID000011">
    <g class="cls-2">
      <path d="M197.69,325.56l1.14-.09a2,2,0,0,0,.59,1.21,1.59,1.59,0,0,0,1.11.41,1.75,1.75,0,0,0,1.33-.57,2.15,2.15,0,0,0,.54-1.53,1.91,1.91,0,0,0-.52-1.42,1.83,1.83,0,0,0-1.36-.52,2,2,0,0,0-1,.23,1.74,1.74,0,0,0-.66.6l-1-.13.85-4.41h4.4v1h-3.53l-.48,2.31a3,3,0,0,1,1.68-.54,2.7,2.7,0,0,1,2.75,2.78,3.12,3.12,0,0,1-.7,2,2.87,2.87,0,0,1-2.33,1,2.91,2.91,0,0,1-2-.66A2.53,2.53,0,0,1,197.69,325.56Z"/>
      <path d="M210.27,326.8v1h-5.85a2,2,0,0,1,.13-.73,3.74,3.74,0,0,1,.72-1.14,10.06,10.06,0,0,1,1.42-1.3,12.61,12.61,0,0,0,1.95-1.82,2.19,2.19,0,0,0,.5-1.27,1.39,1.39,0,0,0-.46-1.06,1.68,1.68,0,0,0-1.2-.43,1.73,1.73,0,0,0-1.26.46,1.67,1.67,0,0,0-.47,1.26l-1.12-.11a2.66,2.66,0,0,1,.86-1.85,3,3,0,0,1,2-.63,2.9,2.9,0,0,1,2,.68,2.25,2.25,0,0,1,.74,1.7,2.47,2.47,0,0,1-.22,1,3.62,3.62,0,0,1-.72,1,17.13,17.13,0,0,1-1.67,1.52q-1,.8-1.26,1.08a3.83,3.83,0,0,0-.46.57Z"/>
    </g>
  </g>
  <g id="ID000012">
    <g class="cls-2">
      <path class="cls-5" d="M213.56,314.11l4.17-10.55h1.55l4.44,10.55h-1.64l-1.26-3.2h-4.54l-1.2,3.2Zm3.13-4.33h3.68l-1.13-2.92c-.35-.89-.6-1.62-.77-2.19a12.13,12.13,0,0,1-.59,2Z"/>
    </g>
  </g>
  <g id="ID000013">
    <g class="cls-2">
      <path class="cls-5" d="M221.46,318.25h1.43v6.09a7,7,0,0,1-.37,2.53,3.09,3.09,0,0,1-1.33,1.52,4.87,4.87,0,0,1-2.54.59,5.37,5.37,0,0,1-2.5-.51,3,3,0,0,1-1.38-1.48,6.83,6.83,0,0,1-.42-2.65v-6.09h1.44v6.09a5.89,5.89,0,0,0,.26,2,2,2,0,0,0,.91,1,3.24,3.24,0,0,0,1.56.35,3,3,0,0,0,2.26-.7,3.93,3.93,0,0,0,.68-2.68Z"/>
    </g>
  </g>
  <g id="ID000014">
    <g class="cls-2">
      <path class="cls-5" d="M219,339.35v-1.23h4.6V342a8.28,8.28,0,0,1-2.18,1.24,6.88,6.88,0,0,1-2.32.41,6.22,6.22,0,0,1-2.9-.67,4.48,4.48,0,0,1-2-1.92,6,6,0,0,1-.66-2.81,6.41,6.41,0,0,1,.66-2.88,4.32,4.32,0,0,1,1.91-2,6.12,6.12,0,0,1,2.86-.65,5.94,5.94,0,0,1,2.13.37,3.57,3.57,0,0,1,1.5,1,4.52,4.52,0,0,1,.82,1.72l-1.3.35a3.67,3.67,0,0,0-.61-1.27,2.45,2.45,0,0,0-1-.73A3.82,3.82,0,0,0,219,334a4.39,4.39,0,0,0-1.7.29,3.06,3.06,0,0,0-1.16.77,3.56,3.56,0,0,0-.69,1,5.49,5.49,0,0,0-.41,2.12,5.06,5.06,0,0,0,.5,2.36A3.19,3.19,0,0,0,217,342a4.6,4.6,0,0,0,2,.46,5.08,5.08,0,0,0,1.83-.35,4.66,4.66,0,0,0,1.34-.74v-2Z"/>
    </g>
  </g>
  <g id="ID000015">
    <g class="cls-2">
      <path class="cls-5" d="M221.46,347.64h1.43v6.09a6.91,6.91,0,0,1-.37,2.52,3.11,3.11,0,0,1-1.33,1.53,4.87,4.87,0,0,1-2.54.58,5.37,5.37,0,0,1-2.5-.51,3,3,0,0,1-1.38-1.48,6.74,6.74,0,0,1-.42-2.64v-6.09h1.44v6.08a6,6,0,0,0,.26,2,2,2,0,0,0,.91,1,3.13,3.13,0,0,0,1.56.35,3.07,3.07,0,0,0,2.26-.69,4,4,0,0,0,.68-2.69Z"/>
    </g>
  </g>
  <g id="ID000016">
    <g class="cls-2">
      <path class="cls-5" d="M222.08,369.17l1.44.36a4.75,4.75,0,0,1-1.63,2.62,4.57,4.57,0,0,1-2.87.9,5.28,5.28,0,0,1-2.85-.69,4.39,4.39,0,0,1-1.68-2,7,7,0,0,1-.57-2.83,5.93,5.93,0,0,1,.65-2.87,4.37,4.37,0,0,1,1.84-1.87,5.55,5.55,0,0,1,2.63-.63,4.58,4.58,0,0,1,2.74.8,4.21,4.21,0,0,1,1.55,2.27l-1.41.32a3.27,3.27,0,0,0-1.1-1.67,3,3,0,0,0-1.81-.53,3.65,3.65,0,0,0-2.09.58,3.1,3.1,0,0,0-1.18,1.57,6,6,0,0,0-.34,2,6.25,6.25,0,0,0,.4,2.35,2.94,2.94,0,0,0,1.26,1.5,3.58,3.58,0,0,0,1.84.5,3.17,3.17,0,0,0,2-.68A3.49,3.49,0,0,0,222.08,369.17Z"/>
    </g>
  </g>
  <g id="ID000017">
    <line class="cls-9" x1="242.8" y1="366.3" x2="224.7" y2="366.3"/>
  </g>
  <g id="ID000018">
    <polygon class="cls-10" points="230.7 351.6 230.7 351.8 230.8 351.9 230.8 352.1 230.8 352.3 230.9 352.5 231 352.7 231 352.8 231.1 353 231.2 353.2 231.3 353.3 231.4 353.5 231.6 353.6 231.7 353.7 231.9 353.8 232 354 232.2 354.1 232.3 354.2 232.5 354.2 232.7 354.3 232.9 354.4 233.1 354.4 233.2 354.5 233.4 354.5 233.6 354.5 233.8 354.5 234 354.5 234.2 354.5 234.4 354.4 234.6 354.4 234.8 354.3 234.9 354.3 235.1 354.2 235.3 354.1 235.4 354 235.6 353.9 235.7 353.8 235.9 353.7 236 353.5 236.1 353.4 236.3 353.2 236.4 353.1 236.5 352.9 236.5 352.7 236.6 352.6 236.7 352.4 236.7 352.2 236.8 352 236.8 351.8 236.8 351.7 236.8 351.5 236.8 351.3 236.8 351.1 236.7 350.9 236.7 350.7 236.6 350.6 236.5 350.4 236.5 350.2 236.4 350.1 236.3 349.9 236.1 349.8 236 349.6 235.9 349.5 235.7 349.3 235.6 349.2 235.4 349.1 235.3 349 235.1 348.9 234.9 348.9 234.8 348.8 234.6 348.7 234.4 348.7 234.2 348.7 234 348.6 233.8 348.6 233.6 348.6 233.4 348.6 233.2 348.7 233.1 348.7 232.9 348.8 232.7 348.8 232.5 348.9 232.3 349 232.2 349.1 232 349.2 231.9 349.3 231.7 349.4 231.6 349.5 231.4 349.7 231.3 349.8 231.2 350 231.1 350.1 231 350.3 231 350.5 230.9 350.7 230.8 350.8 230.8 351 230.8 351.2 230.7 351.4 230.7 351.6"/>
  </g>
  <g id="ID000019">
    <line class="cls-9" x1="242.8" y1="336.9" x2="224.7" y2="336.9"/>
  </g>
  <g id="ID000020">
    <line class="cls-9" x1="242.8" y1="322.2" x2="224.7" y2="322.2"/>
  </g>
  <g id="ID000021">
    <line class="cls-9" x1="242.8" y1="307.5" x2="224.7" y2="307.5"/>
  </g>
  <g id="ID000022">
    <polygon class="cls-10" points="230.7 292.8 230.7 293 230.8 293.2 230.8 293.4 230.8 293.5 230.9 293.7 231 293.9 231 294.1 231.1 294.2 231.2 294.4 231.3 294.5 231.4 294.7 231.6 294.8 231.7 295 231.9 295.1 232 295.2 232.2 295.3 232.3 295.4 232.5 295.5 232.7 295.5 232.9 295.6 233.1 295.7 233.2 295.7 233.4 295.7 233.6 295.7 233.8 295.7 234 295.7 234.2 295.7 234.4 295.7 234.6 295.6 234.8 295.6 234.9 295.5 235.1 295.4 235.3 295.3 235.4 295.2 235.6 295.1 235.7 295 235.9 294.9 236 294.8 236.1 294.6 236.3 294.5 236.4 294.3 236.5 294.1 236.5 294 236.6 293.8 236.7 293.6 236.7 293.5 236.8 293.3 236.8 293.1 236.8 292.9 236.8 292.7 236.8 292.5 236.8 292.3 236.7 292.2 236.7 292 236.6 291.8 236.5 291.6 236.5 291.5 236.4 291.3 236.3 291.1 236.1 291 236 290.8 235.9 290.7 235.7 290.6 235.6 290.5 235.4 290.4 235.3 290.3 235.1 290.2 234.9 290.1 234.8 290 234.6 290 234.4 289.9 234.2 289.9 234 289.9 233.8 289.9 233.6 289.9 233.4 289.9 233.2 289.9 233.1 289.9 232.9 290 232.7 290.1 232.5 290.1 232.3 290.2 232.2 290.3 232 290.4 231.9 290.5 231.7 290.6 231.6 290.8 231.4 290.9 231.3 291.1 231.2 291.2 231.1 291.4 231 291.5 231 291.7 230.9 291.9 230.8 292.1 230.8 292.2 230.8 292.4 230.7 292.6 230.7 292.8"/>
  </g>
  <g id="ID000023">
    <line class="cls-11" x1="248.9" y1="272.2" x2="248.9" y2="254.6"/>
  </g>
  <g id="ID000024">
    <polygon class="cls-10" points="244.4 268.3 246.6 265.9 247.4 263.4 247.8 261 248.9 256.1 250 261 250.4 263.4 251.2 265.9 253.4 268.3 244.4 268.3"/>
  </g>
  <g id="ID000025">
    <line class="cls-9" x1="243.2" y1="276.3" x2="220.6" y2="269"/>
  </g>
  <g id="ID000026">
    <polygon class="cls-12" points="229 271.7 229 271.9 228.9 272 228.9 272.2 228.9 272.4 228.8 272.6 228.9 272.8 228.9 273 228.9 273.1 228.9 273.3 229 273.5 229.1 273.7 229.1 273.9 229.2 274 229.3 274.2 229.4 274.3 229.5 274.5 229.7 274.6 229.8 274.8 230 274.9 230.1 275 230.3 275.1 230.4 275.2 230.6 275.3 230.8 275.3 231 275.4 231.1 275.5 231.3 275.5 231.5 275.5 231.7 275.5 231.9 275.5 232.1 275.5 232.3 275.5 232.5 275.5 232.7 275.4 232.9 275.4 233 275.3 233.2 275.2 233.4 275.2 233.5 275.1 233.7 274.9 233.8 274.8 234 274.7 234.1 274.6 234.2 274.4 234.4 274.3 234.5 274.1 234.6 274 234.6 273.8 234.7 273.6 234.8 273.4 234.8 273.3 234.9 273.1 234.9 272.9 234.9 272.7 234.9 272.5 234.9 272.3 234.9 272.2 234.8 272 234.8 271.8 234.7 271.6 234.7 271.4 234.6 271.3 234.5 271.1 234.4 270.9 234.3 270.8 234.1 270.7 234 270.5 233.9 270.4 233.7 270.3 233.6 270.2 233.4 270.1 233.2 270 233.1 269.9 232.9 269.8 232.7 269.8 232.5 269.7 232.3 269.7 232.1 269.7 231.9 269.7 231.7 269.7 231.6 269.7 231.4 269.7 231.2 269.7 231 269.8 230.8 269.9 230.6 269.9 230.5 270 230.3 270.1 230.1 270.2 230 270.3 229.8 270.4 229.7 270.6 229.6 270.7 229.4 270.8 229.3 271 229.2 271.2 229.1 271.3 229.1 271.5 229 271.7"/>
  </g>
  <g id="ID000027">
    <line class="cls-11" x1="126.4" y1="292.8" x2="212.6" y2="292.8"/>
  </g>
  <g id="ID000028">
    <polygon class="cls-10" points="164.4 288.4 167 290.6 169.5 291.3 172 291.7 177 292.8 172 293.9 169.5 294.3 167 295 164.4 297.2 164.4 288.4"/>
  </g>
  <g id="ID000030">
    <g class="cls-2">
      <path class="cls-8" d="M156.07,265.5,160.24,255h1.55l4.44,10.55H164.6l-1.27-3.2h-4.54l-1.19,3.2Zm3.13-4.33h3.69l-1.14-2.92c-.34-.89-.6-1.62-.77-2.19a13.59,13.59,0,0,1-.58,2Z"/>
    </g>
  </g>
  <g id="ID000031">
    <g class="cls-2">
      <path class="cls-8" d="M147.14,264.86v-1.23h4.6v3.91a8.13,8.13,0,0,1-2.18,1.24,6.78,6.78,0,0,1-2.31.41,6.24,6.24,0,0,1-2.91-.67,4.48,4.48,0,0,1-2-1.92,6,6,0,0,1-.66-2.81,6.41,6.41,0,0,1,.66-2.88,4.32,4.32,0,0,1,1.91-2,6.12,6.12,0,0,1,2.86-.65,5.73,5.73,0,0,1,2.13.38,3.47,3.47,0,0,1,1.5,1,4.52,4.52,0,0,1,.82,1.72l-1.3.35a3.67,3.67,0,0,0-.61-1.27,2.45,2.45,0,0,0-1-.73,3.82,3.82,0,0,0-1.5-.28,4.62,4.62,0,0,0-1.7.29,3.06,3.06,0,0,0-1.16.77,3.77,3.77,0,0,0-.69,1,5.49,5.49,0,0,0-.41,2.12,5.06,5.06,0,0,0,.5,2.36,3.19,3.19,0,0,0,1.45,1.41,4.6,4.6,0,0,0,2,.46,5,5,0,0,0,1.83-.35,4.66,4.66,0,0,0,1.34-.74v-2Z"/>
    </g>
  </g>
  <g id="ID000032">
    <g class="cls-2">
      <path class="cls-8" d="M138.26,259.49h1.44v6.09a6.91,6.91,0,0,1-.37,2.52,3.07,3.07,0,0,1-1.34,1.52,4.74,4.74,0,0,1-2.53.59,5.37,5.37,0,0,1-2.5-.51,2.88,2.88,0,0,1-1.38-1.48,6.74,6.74,0,0,1-.42-2.64v-6.09h1.44v6.08a6,6,0,0,0,.26,2,2,2,0,0,0,.9,1,3.28,3.28,0,0,0,1.57.35,3,3,0,0,0,2.26-.7,3.92,3.92,0,0,0,.67-2.68Z"/>
    </g>
  </g>
  <g id="ID000033">
    <g class="cls-2">
      <path class="cls-6" d="M123.76,266.33l1.44.36a4.7,4.7,0,0,1-1.63,2.62,4.57,4.57,0,0,1-2.87.9,5.28,5.28,0,0,1-2.85-.69,4.39,4.39,0,0,1-1.68-2,7,7,0,0,1-.57-2.83,5.93,5.93,0,0,1,.65-2.87,4.37,4.37,0,0,1,1.84-1.87,5.58,5.58,0,0,1,2.63-.63,4.51,4.51,0,0,1,2.74.8,4.18,4.18,0,0,1,1.55,2.27l-1.41.32a3.27,3.27,0,0,0-1.1-1.67,2.92,2.92,0,0,0-1.81-.53,3.57,3.57,0,0,0-2.09.58,3.1,3.1,0,0,0-1.18,1.57,6,6,0,0,0-.34,2,6.25,6.25,0,0,0,.4,2.35,2.94,2.94,0,0,0,1.26,1.5,3.61,3.61,0,0,0,1.84.5,3.17,3.17,0,0,0,2-.68A3.49,3.49,0,0,0,123.76,266.33Z"/>
    </g>
  </g>
  <g id="ID000035">
    <g class="cls-2">
      <path d="M113.82,256.1V254H110v-1l4-5.57h.88v5.57h1.2v1h-1.2v2.06Zm0-3V249.2l-2.77,3.88Z"/>
      <path d="M117.21,251.86a7.54,7.54,0,0,1,.32-2.45,3.07,3.07,0,0,1,1-1.43,2.47,2.47,0,0,1,1.6-.51,2.74,2.74,0,0,1,1.25.28,2.46,2.46,0,0,1,.89.81,4.5,4.5,0,0,1,.55,1.27,8.38,8.38,0,0,1,.2,2,7.75,7.75,0,0,1-.32,2.44,3.16,3.16,0,0,1-1,1.44,2.5,2.5,0,0,1-1.61.51,2.48,2.48,0,0,1-2-.89A5.58,5.58,0,0,1,117.21,251.86Zm1.11,0a5.28,5.28,0,0,0,.51,2.82,1.51,1.51,0,0,0,1.26.7,1.53,1.53,0,0,0,1.26-.7,8.05,8.05,0,0,0,0-5.64,1.52,1.52,0,0,0-1.27-.69,1.41,1.41,0,0,0-1.2.61A5.37,5.37,0,0,0,118.32,251.86Z"/>
    </g>
  </g>
  <g id="ID000036">
    <g class="cls-2">
      <path class="cls-6" d="M108.63,266.33l1.44.36a4.65,4.65,0,0,1-1.63,2.62,4.57,4.57,0,0,1-2.87.9,5.28,5.28,0,0,1-2.85-.69,4.52,4.52,0,0,1-1.68-2,7,7,0,0,1-.57-2.83,6,6,0,0,1,.65-2.87,4.43,4.43,0,0,1,1.84-1.87,5.59,5.59,0,0,1,2.64-.63,4.53,4.53,0,0,1,2.74.8,4.16,4.16,0,0,1,1.54,2.27l-1.41.32a3.21,3.21,0,0,0-1.1-1.67,2.91,2.91,0,0,0-1.8-.53,3.59,3.59,0,0,0-2.1.58,3.1,3.1,0,0,0-1.18,1.57,6.56,6.56,0,0,0,.07,4.37,2.87,2.87,0,0,0,1.25,1.5,3.62,3.62,0,0,0,1.85.5,3.16,3.16,0,0,0,2-.68A3.38,3.38,0,0,0,108.63,266.33Z"/>
    </g>
  </g>
  <g id="ID000037">
    <g class="cls-2">
      <path class="cls-6" d="M92.88,259.49h1.44v6.09A6.91,6.91,0,0,1,94,268.1a3.07,3.07,0,0,1-1.34,1.52,4.74,4.74,0,0,1-2.53.59,5.37,5.37,0,0,1-2.5-.51,2.88,2.88,0,0,1-1.38-1.48,6.74,6.74,0,0,1-.42-2.64v-6.09h1.44v6.08a6,6,0,0,0,.26,2,2,2,0,0,0,.9,1A3.28,3.28,0,0,0,90,269a3,3,0,0,0,2.26-.7,3.92,3.92,0,0,0,.67-2.68Z"/>
    </g>
  </g>
  <g id="ID000038">
    <g class="cls-2">
      <path class="cls-6" d="M75.29,258.55v-1.24h4.6v3.91a7.82,7.82,0,0,1-2.18,1.23,6.55,6.55,0,0,1-2.31.42,6.36,6.36,0,0,1-2.91-.67,4.41,4.41,0,0,1-2-1.92,5.87,5.87,0,0,1-.67-2.82,6.4,6.4,0,0,1,.66-2.87,4.32,4.32,0,0,1,1.91-2,6.13,6.13,0,0,1,2.87-.65,5.72,5.72,0,0,1,2.12.37,3.55,3.55,0,0,1,1.5,1,4.64,4.64,0,0,1,.82,1.73l-1.3.35a3.85,3.85,0,0,0-.6-1.27,2.57,2.57,0,0,0-1-.74,4,4,0,0,0-1.5-.27,4.42,4.42,0,0,0-1.7.29,3.17,3.17,0,0,0-1.16.76,4,4,0,0,0-.69,1,5.49,5.49,0,0,0-.41,2.12,5.09,5.09,0,0,0,.5,2.36,3.17,3.17,0,0,0,1.46,1.41,4.67,4.67,0,0,0,2,.46,5,5,0,0,0,1.83-.35,4.43,4.43,0,0,0,1.34-.75v-2Z"/>
    </g>
  </g>
  <g id="ID000039">
    <g class="cls-2">
      <path class="cls-6" d="M54.73,273.71l4.17-10.55h1.55l4.44,10.55H63.26L62,270.51H57.45l-1.19,3.2Zm3.14-4.33h3.68l-1.14-2.93c-.34-.88-.6-1.61-.77-2.18a12.38,12.38,0,0,1-.58,2Z"/>
    </g>
  </g>
  <g id="ID000040">
    <g class="cls-2">
      <path class="cls-6" d="M54.73,292.07l4.17-10.55h1.55l4.44,10.55H63.26L62,288.88H57.45l-1.19,3.19Zm3.14-4.33h3.68l-1.14-2.92c-.34-.89-.6-1.62-.77-2.19a12.49,12.49,0,0,1-.58,2Z"/>
    </g>
  </g>
  <g id="ID000041">
    <g class="cls-2">
      <path class="cls-6" d="M69.86,303.09,74,292.54h1.55L80,303.09H78.38l-1.26-3.2H72.58l-1.19,3.2ZM73,298.76h3.68l-1.13-2.92c-.35-.89-.6-1.62-.77-2.19a13.14,13.14,0,0,1-.58,2Z"/>
    </g>
  </g>
  <g id="ID000042">
    <g class="cls-2">
      <path class="cls-6" d="M85,299.42l4.17-10.55H90.7l4.45,10.55H93.51l-1.27-3.2H87.7l-1.19,3.2Zm3.13-4.34H91.8l-1.13-2.92c-.35-.88-.61-1.61-.77-2.18a13.52,13.52,0,0,1-.59,2Z"/>
    </g>
  </g>
  <g id="ID000043">
    <g class="cls-2">
      <path class="cls-6" d="M105.55,295.28V294h4.6V298a8.29,8.29,0,0,1-2.19,1.23,6.54,6.54,0,0,1-2.31.41,6.36,6.36,0,0,1-2.91-.66,4.43,4.43,0,0,1-2-1.93,5.81,5.81,0,0,1-.67-2.81,6.28,6.28,0,0,1,.67-2.87,4.3,4.3,0,0,1,1.9-2,6.16,6.16,0,0,1,2.87-.65,5.81,5.81,0,0,1,2.13.37,3.58,3.58,0,0,1,1.49,1,4.57,4.57,0,0,1,.82,1.73l-1.29.34a4.11,4.11,0,0,0-.61-1.26,2.51,2.51,0,0,0-1-.74,4,4,0,0,0-1.49-.28,4.63,4.63,0,0,0-1.71.29,3.27,3.27,0,0,0-1.16.77,3.8,3.8,0,0,0-.68,1,5.36,5.36,0,0,0-.42,2.13,5.09,5.09,0,0,0,.5,2.36,3.21,3.21,0,0,0,1.46,1.41,4.71,4.71,0,0,0,2,.46,5,5,0,0,0,1.82-.35,4.87,4.87,0,0,0,1.35-.75v-2Z"/>
    </g>
  </g>
  <g id="ID000044">
    <g class="cls-2">
      <path class="cls-6" d="M120.67,295.28V294h4.6V298a8.08,8.08,0,0,1-2.18,1.23,6.54,6.54,0,0,1-2.31.41,6.36,6.36,0,0,1-2.91-.66,4.43,4.43,0,0,1-2-1.93,5.81,5.81,0,0,1-.67-2.81,6.4,6.4,0,0,1,.66-2.87,4.32,4.32,0,0,1,1.91-2,6.13,6.13,0,0,1,2.87-.65,5.72,5.72,0,0,1,2.12.37,3.55,3.55,0,0,1,1.5,1,4.57,4.57,0,0,1,.82,1.73l-1.3.34a3.89,3.89,0,0,0-.6-1.26,2.57,2.57,0,0,0-1-.74,4,4,0,0,0-1.5-.28,4.62,4.62,0,0,0-1.7.29,3.18,3.18,0,0,0-1.16.77,4.09,4.09,0,0,0-.69,1,5.54,5.54,0,0,0-.41,2.13,5.09,5.09,0,0,0,.5,2.36,3.17,3.17,0,0,0,1.46,1.41,4.67,4.67,0,0,0,2,.46,5,5,0,0,0,1.83-.35,4.65,4.65,0,0,0,1.34-.75v-2Z"/>
    </g>
  </g>
  <g id="ID000045">
    <line class="cls-9" x1="242.8" y1="248.9" x2="148.32" y2="247.76"/>
  </g>
  <g id="ID000046">
    <polygon class="cls-10" points="180.91 247.96 186.91 251.06 186.71 244.46 180.91 247.96"/>
  </g>
  <g id="ID000047">
    <line class="cls-9" x1="214.55" y1="280.35" x2="145.92" y2="280.47"/>
  </g>
  <g id="ID000048">
    <polygon class="cls-12" points="186.82 277.34 180.81 277.65 180.97 283.5 187.01 283.28 186.82 277.34"/>
  </g>
  <g id="ID000049">
    <polygon class="cls-12" points="171.1 279.7 171.1 279.9 171.1 280 171.1 280.2 171.1 280.4 171.1 280.6 171.1 280.8 171.1 281 171.2 281.2 171.2 281.3 171.3 281.5 171.4 281.7 171.5 281.8 171.6 282 171.7 282.1 171.8 282.3 172 282.4 172.1 282.5 172.3 282.7 172.4 282.8 172.6 282.9 172.8 283 172.9 283 173.1 283.1 173.3 283.2 173.5 283.2 173.7 283.2 173.9 283.2 174 283.3 174.2 283.3 174.4 283.2 174.6 283.2 174.8 283.2 175 283.1 175.2 283.1 175.4 283 175.5 282.9 175.7 282.8 175.8 282.7 176 282.6 176.1 282.5 176.3 282.3 176.4 282.2 176.5 282.1 176.6 281.9 176.7 281.7 176.8 281.6 176.9 281.4 177 281.2 177 281 177.1 280.9 177.1 280.7 177.1 280.5 177.1 280.3 177.1 280.1 177.1 279.9 177.1 279.8 177 279.6 177 279.4 176.9 279.2 176.8 279 176.7 278.9 176.6 278.7 176.5 278.6 176.4 278.4 176.3 278.3 176.1 278.2 176 278 175.8 277.9 175.7 277.8 175.5 277.7 175.3 277.6 175.2 277.6 175 277.5 174.8 277.5 174.6 277.4 174.4 277.4 174.2 277.4 174 277.4 173.8 277.4 173.6 277.4 173.5 277.4 173.3 277.5 173.1 277.5 172.9 277.6 172.7 277.7 172.6 277.8 172.4 277.9 172.2 278 172.1 278.1 172 278.2 171.8 278.4 171.7 278.5 171.6 278.7 171.5 278.8 171.4 279 171.3 279.1 171.2 279.3 171.2 279.5 171.1 279.7"/>
  </g>
  <g id="ID000050">
    <line class="cls-9" x1="120.3" y1="269.3" x2="120.3" y2="286.9"/>
  </g>
  <g id="ID000051">
    <line class="cls-9" x1="105.2" y1="269.3" x2="105.2" y2="286.9"/>
  </g>
  <g id="ID000052">
    <line class="cls-9" x1="90.1" y1="269.3" x2="90.1" y2="286.9"/>
  </g>
  <g id="ID000054">
    <g class="cls-2">
      <path class="cls-8" d="M251.71,244.79h1.44v6.1a7.13,7.13,0,0,1-.37,2.52,3.12,3.12,0,0,1-1.34,1.52,4.87,4.87,0,0,1-2.54.59,5.3,5.3,0,0,1-2.49-.51,2.94,2.94,0,0,1-1.39-1.48,6.79,6.79,0,0,1-.41-2.64v-6.1H246v6.09a5.67,5.67,0,0,0,.27,2,1.94,1.94,0,0,0,.9,1,3.28,3.28,0,0,0,1.57.35,3,3,0,0,0,2.26-.7,4,4,0,0,0,.67-2.68Z"/>
    </g>
  </g>
  <g id="ID000055">
    <g class="cls-2">
      <path class="cls-4" d="M249.24,236.51v-1.23h4.6v3.91a8.13,8.13,0,0,1-2.18,1.24,6.78,6.78,0,0,1-2.31.41,6.24,6.24,0,0,1-2.91-.67,4.41,4.41,0,0,1-2-1.92,5.86,5.86,0,0,1-.67-2.81,6.41,6.41,0,0,1,.66-2.88,4.32,4.32,0,0,1,1.91-2,6.13,6.13,0,0,1,2.87-.65,6,6,0,0,1,2.13.37,3.6,3.6,0,0,1,1.49,1,4.52,4.52,0,0,1,.82,1.72l-1.3.35a3.85,3.85,0,0,0-.6-1.27,2.56,2.56,0,0,0-1-.73,3.82,3.82,0,0,0-1.5-.28,4.42,4.42,0,0,0-1.7.29,3.06,3.06,0,0,0-1.16.77,3.53,3.53,0,0,0-.68,1,5.31,5.31,0,0,0-.42,2.12,5.06,5.06,0,0,0,.5,2.36,3.17,3.17,0,0,0,1.46,1.41,4.54,4.54,0,0,0,2,.46,5,5,0,0,0,1.82-.35,4.88,4.88,0,0,0,1.35-.74v-2Z"/>
    </g>
  </g>
  <g id="ID000056">
    <g class="cls-2">
      <path class="cls-4" d="M252.33,222.26l1.44.35a4.73,4.73,0,0,1-1.63,2.63,4.57,4.57,0,0,1-2.87.9,5.19,5.19,0,0,1-2.85-.7,4.35,4.35,0,0,1-1.68-2,7,7,0,0,1-.57-2.82,6,6,0,0,1,.65-2.88,4.35,4.35,0,0,1,1.84-1.86,5.59,5.59,0,0,1,2.63-.64A4.57,4.57,0,0,1,252,216a4.17,4.17,0,0,1,1.54,2.26l-1.41.33a3.24,3.24,0,0,0-1.1-1.68,3,3,0,0,0-1.8-.52,3.59,3.59,0,0,0-2.1.58,3.11,3.11,0,0,0-1.18,1.56,6.09,6.09,0,0,0-.34,2,6.46,6.46,0,0,0,.4,2.35,2.94,2.94,0,0,0,1.26,1.5,3.6,3.6,0,0,0,1.84.49,3.16,3.16,0,0,0,2-.67A3.43,3.43,0,0,0,252.33,222.26Z"/>
    </g>
  </g>
  <g id="ID000058">
    <g class="cls-2">
      <path d="M263.14,226h-1.08v-6.72a5.73,5.73,0,0,1-1,.72,6.82,6.82,0,0,1-1.14.55v-1a6.74,6.74,0,0,0,1.59-1,3.85,3.85,0,0,0,1-1.15h.7Z"/>
      <path d="M265.93,221.72a7.54,7.54,0,0,1,.32-2.45,2.93,2.93,0,0,1,1-1.43,2.47,2.47,0,0,1,1.6-.51,2.77,2.77,0,0,1,1.25.28,2.43,2.43,0,0,1,.89.8,4.29,4.29,0,0,1,.54,1.28,7.9,7.9,0,0,1,.2,2,7.47,7.47,0,0,1-.32,2.44,3.07,3.07,0,0,1-.95,1.44,2.5,2.5,0,0,1-1.61.5,2.45,2.45,0,0,1-2-.89A5.55,5.55,0,0,1,265.93,221.72Zm1.11,0a5.28,5.28,0,0,0,.51,2.82,1.48,1.48,0,0,0,2.52,0,5.21,5.21,0,0,0,.51-2.81,5.28,5.28,0,0,0-.51-2.82,1.54,1.54,0,0,0-1.27-.69,1.41,1.41,0,0,0-1.2.61A5.35,5.35,0,0,0,267,221.72Z"/>
    </g>
  </g>
  <g id="ID000059">
    <g class="cls-2">
      <path class="cls-4" d="M252.33,207.57l1.44.35a4.67,4.67,0,0,1-1.63,2.62,4.52,4.52,0,0,1-2.87.91,5.27,5.27,0,0,1-2.85-.7,4.35,4.35,0,0,1-1.68-2,7,7,0,0,1-.57-2.82,6,6,0,0,1,.65-2.88,4.29,4.29,0,0,1,1.84-1.86,5.47,5.47,0,0,1,2.63-.64,4.57,4.57,0,0,1,2.75.81,4.14,4.14,0,0,1,1.54,2.26l-1.41.33a3.24,3.24,0,0,0-1.1-1.68,3,3,0,0,0-1.8-.52,3.59,3.59,0,0,0-2.1.58,3.11,3.11,0,0,0-1.18,1.56,6.09,6.09,0,0,0-.34,2,6.5,6.5,0,0,0,.4,2.35,3,3,0,0,0,1.26,1.5,3.6,3.6,0,0,0,1.84.49,3.16,3.16,0,0,0,2-.67A3.46,3.46,0,0,0,252.33,207.57Z"/>
    </g>
  </g>
  <g id="ID000060">
    <g class="cls-2">
      <path class="cls-4" d="M251.71,186h1.44v6.09a7.23,7.23,0,0,1-.37,2.53,3.16,3.16,0,0,1-1.34,1.52,4.87,4.87,0,0,1-2.54.58,5.3,5.3,0,0,1-2.49-.51,3,3,0,0,1-1.39-1.47,6.85,6.85,0,0,1-.41-2.65V186H246v6.08a5.64,5.64,0,0,0,.27,2,1.91,1.91,0,0,0,.9,1,3.17,3.17,0,0,0,1.57.36,3.09,3.09,0,0,0,2.26-.7,4,4,0,0,0,.67-2.69Z"/>
    </g>
  </g>
  <g id="ID000061">
    <g class="cls-2">
      <path class="cls-4" d="M252.33,178.19l1.44.35a4.7,4.7,0,0,1-1.63,2.62,4.57,4.57,0,0,1-2.87.9,5.28,5.28,0,0,1-2.85-.69,4.35,4.35,0,0,1-1.68-2,7,7,0,0,1-.57-2.83,6,6,0,0,1,.65-2.87,4.37,4.37,0,0,1,1.84-1.87,5.58,5.58,0,0,1,2.63-.63,4.63,4.63,0,0,1,2.75.8,4.2,4.2,0,0,1,1.54,2.27l-1.41.32a3.25,3.25,0,0,0-1.1-1.67,3,3,0,0,0-1.8-.53,3.66,3.66,0,0,0-2.1.58A3.1,3.1,0,0,0,246,174.5a6,6,0,0,0-.34,2,6.46,6.46,0,0,0,.4,2.35,2.94,2.94,0,0,0,1.26,1.5,3.61,3.61,0,0,0,1.84.5,3.17,3.17,0,0,0,2-.68A3.44,3.44,0,0,0,252.33,178.19Z"/>
    </g>
  </g>
  <g id="ID000062">
    <g class="cls-2">
      <path class="cls-4" d="M249.24,163.06v-1.24h4.6v3.91a8.13,8.13,0,0,1-2.18,1.24,6.78,6.78,0,0,1-2.31.41,6.36,6.36,0,0,1-2.91-.66,4.48,4.48,0,0,1-2-1.93,5.83,5.83,0,0,1-.67-2.81,6.37,6.37,0,0,1,.66-2.87,4.39,4.39,0,0,1,1.91-2,6.13,6.13,0,0,1,2.87-.64,5.81,5.81,0,0,1,2.13.37,3.49,3.49,0,0,1,1.49,1,4.57,4.57,0,0,1,.82,1.73l-1.3.34a3.85,3.85,0,0,0-.6-1.27,2.56,2.56,0,0,0-1-.73,3.82,3.82,0,0,0-1.5-.28,4.62,4.62,0,0,0-1.7.29,3.18,3.18,0,0,0-1.16.77,3.53,3.53,0,0,0-.68,1,5.31,5.31,0,0,0-.42,2.12,5.06,5.06,0,0,0,.5,2.36,3.07,3.07,0,0,0,1.46,1.41,4.54,4.54,0,0,0,2,.46,4.83,4.83,0,0,0,1.82-.35,4.88,4.88,0,0,0,1.35-.74v-2Z"/>
    </g>
  </g>
  <g id="ID000063">
    <g class="cls-2">
      <path class="cls-4" d="M252.33,148.8l1.44.35a4.73,4.73,0,0,1-1.63,2.63,4.57,4.57,0,0,1-2.87.9,5.28,5.28,0,0,1-2.85-.69,4.43,4.43,0,0,1-1.68-2,7,7,0,0,1-.57-2.82,6,6,0,0,1,.65-2.88,4.4,4.4,0,0,1,1.84-1.86,5.59,5.59,0,0,1,2.63-.64,4.57,4.57,0,0,1,2.75.81,4.16,4.16,0,0,1,1.54,2.27l-1.41.32a3.24,3.24,0,0,0-1.1-1.68,3,3,0,0,0-1.8-.52,3.59,3.59,0,0,0-2.1.58,3.1,3.1,0,0,0-1.18,1.57,6,6,0,0,0-.34,2,6.46,6.46,0,0,0,.4,2.35,2.94,2.94,0,0,0,1.26,1.5,3.61,3.61,0,0,0,1.84.5,3.17,3.17,0,0,0,2-.68A3.43,3.43,0,0,0,252.33,148.8Z"/>
    </g>
  </g>
  <g id="ID000064">
    <g class="cls-2">
      <path class="cls-4" d="M251.37,137.81l4.17-10.55h1.55l4.45,10.55H259.9l-1.27-3.19h-4.54l-1.19,3.19Zm3.14-4.33h3.68l-1.14-2.92c-.34-.89-.6-1.62-.76-2.19a13.64,13.64,0,0,1-.59,2Z"/>
    </g>
  </g>
  <g id="ID000065">
    <g class="cls-2">
      <path class="cls-4" d="M266.84,112.57h1.43v6.1a6.91,6.91,0,0,1-.37,2.52,3.09,3.09,0,0,1-1.33,1.52,4.87,4.87,0,0,1-2.54.59,5.37,5.37,0,0,1-2.5-.51,3,3,0,0,1-1.38-1.48,6.81,6.81,0,0,1-.42-2.64v-6.1h1.44v6.09a5.89,5.89,0,0,0,.26,2,2,2,0,0,0,.91,1,3.24,3.24,0,0,0,1.56.35,3,3,0,0,0,2.26-.7,3.91,3.91,0,0,0,.68-2.68Z"/>
    </g>
  </g>
  <g id="ID000066">
    <g class="cls-2">
      <path class="cls-4" d="M270.62,94.21h1.43v6.09a7,7,0,0,1-.37,2.53,3.09,3.09,0,0,1-1.33,1.52,4.87,4.87,0,0,1-2.54.58,5.3,5.3,0,0,1-2.49-.51,2.94,2.94,0,0,1-1.39-1.48,6.76,6.76,0,0,1-.41-2.64V94.21H265v6.08a6,6,0,0,0,.26,2,2,2,0,0,0,.91,1,3.17,3.17,0,0,0,1.57.35,3,3,0,0,0,2.25-.69,3.94,3.94,0,0,0,.68-2.69Z"/>
    </g>
  </g>
  <g id="ID000067">
    <g class="cls-2">
      <path class="cls-4" d="M256.81,82.25V81h4.59v3.91a7.82,7.82,0,0,1-2.18,1.23,6.55,6.55,0,0,1-2.31.42A6.24,6.24,0,0,1,254,85.9,4.41,4.41,0,0,1,252,84a5.86,5.86,0,0,1-.67-2.81,6.29,6.29,0,0,1,.67-2.88,4.3,4.3,0,0,1,1.9-2,6.16,6.16,0,0,1,2.87-.65,6,6,0,0,1,2.13.37,3.51,3.51,0,0,1,1.49,1,4.52,4.52,0,0,1,.82,1.72l-1.29.35a4.06,4.06,0,0,0-.61-1.27,2.51,2.51,0,0,0-1-.74,4,4,0,0,0-1.49-.27,4.44,4.44,0,0,0-1.71.29,3.25,3.25,0,0,0-1.16.76,3.71,3.71,0,0,0-.68,1,5.31,5.31,0,0,0-.42,2.12,5.06,5.06,0,0,0,.5,2.36,3.21,3.21,0,0,0,1.46,1.41,4.57,4.57,0,0,0,2,.46,5,5,0,0,0,1.82-.35,4.88,4.88,0,0,0,1.35-.74v-2Z"/>
    </g>
  </g>
  <g id="ID000068">
    <g class="cls-2">
      <path class="cls-4" d="M244.77,79l1.44.35A4.72,4.72,0,0,1,244.58,82a4.58,4.58,0,0,1-2.87.91,5.27,5.27,0,0,1-2.85-.7,4.29,4.29,0,0,1-1.68-2,7,7,0,0,1-.57-2.83,6.1,6.1,0,0,1,.64-2.87,4.37,4.37,0,0,1,1.85-1.86,5.44,5.44,0,0,1,2.63-.64,4.52,4.52,0,0,1,2.74.81A4.15,4.15,0,0,1,246,75.06l-1.41.33a3.3,3.3,0,0,0-1.1-1.68,3,3,0,0,0-1.81-.53,3.58,3.58,0,0,0-2.09.59,3.11,3.11,0,0,0-1.18,1.56,6.09,6.09,0,0,0-.34,2,6.29,6.29,0,0,0,.4,2.35,3,3,0,0,0,1.26,1.5,3.57,3.57,0,0,0,1.84.49,3.16,3.16,0,0,0,2-.67A3.52,3.52,0,0,0,244.77,79Z"/>
    </g>
  </g>
  <g id="ID000070">
    <g class="cls-2">
      <path d="M243,67.2v1h-5.85a2,2,0,0,1,.13-.73,3.74,3.74,0,0,1,.72-1.14,10.06,10.06,0,0,1,1.42-1.3,12,12,0,0,0,1.94-1.82,2.14,2.14,0,0,0,.51-1.27,1.39,1.39,0,0,0-.46-1.06,1.68,1.68,0,0,0-1.2-.43,1.72,1.72,0,0,0-1.26.46,1.67,1.67,0,0,0-.47,1.26l-1.12-.11a2.66,2.66,0,0,1,.86-1.85,3,3,0,0,1,2-.63,2.86,2.86,0,0,1,2,.68A2.25,2.25,0,0,1,243,62a2.42,2.42,0,0,1-.22,1,3.53,3.53,0,0,1-.72,1.05,18.54,18.54,0,0,1-1.67,1.52c-.66.53-1.07.89-1.26,1.08a3.83,3.83,0,0,0-.46.57Z"/>
      <path d="M244.18,64a7.53,7.53,0,0,1,.33-2.46,3,3,0,0,1,1-1.43,2.45,2.45,0,0,1,1.6-.5,2.77,2.77,0,0,1,1.25.27,2.43,2.43,0,0,1,.88.81,4,4,0,0,1,.55,1.27,8,8,0,0,1,.2,2,7.8,7.8,0,0,1-.32,2.44,3.08,3.08,0,0,1-.95,1.43,2.5,2.5,0,0,1-1.61.51,2.48,2.48,0,0,1-2-.89A5.56,5.56,0,0,1,244.18,64Zm1.12,0a5.24,5.24,0,0,0,.51,2.81,1.48,1.48,0,0,0,2.52,0,5.26,5.26,0,0,0,.51-2.81,5.23,5.23,0,0,0-.51-2.82,1.52,1.52,0,0,0-1.27-.7,1.41,1.41,0,0,0-1.2.61A5.39,5.39,0,0,0,245.3,64Z"/>
    </g>
  </g>
  <g id="ID000071">
    <g class="cls-2">
      <path class="cls-4" d="M221.12,82.72l4.17-10.55h1.55l4.44,10.55h-1.63l-1.27-3.2h-4.54l-1.19,3.2Zm3.14-4.33h3.68l-1.14-2.93c-.34-.88-.6-1.61-.77-2.18a13.47,13.47,0,0,1-.58,2Z"/>
    </g>
  </g>
  <g id="ID000072">
    <g class="cls-2">
      <path class="cls-4" d="M214.52,86.36l1.43.36a4.69,4.69,0,0,1-1.62,2.62,4.59,4.59,0,0,1-2.87.9,5.31,5.31,0,0,1-2.86-.69,4.43,4.43,0,0,1-1.67-2,6.89,6.89,0,0,1-.58-2.83,6,6,0,0,1,.65-2.87A4.39,4.39,0,0,1,208.85,80a5.52,5.52,0,0,1,2.63-.63,4.58,4.58,0,0,1,2.74.8,4.18,4.18,0,0,1,1.55,2.27l-1.42.32a3.2,3.2,0,0,0-1.09-1.67,3,3,0,0,0-1.81-.53,3.65,3.65,0,0,0-2.09.58,3,3,0,0,0-1.18,1.57,6,6,0,0,0-.34,2,6.25,6.25,0,0,0,.4,2.35,3,3,0,0,0,1.25,1.5,3.64,3.64,0,0,0,1.85.5,3.16,3.16,0,0,0,2-.68A3.44,3.44,0,0,0,214.52,86.36Z"/>
    </g>
  </g>
  <g id="ID000073">
    <g class="cls-2">
      <path class="cls-4" d="M202.55,94.21H204v6.09a7.23,7.23,0,0,1-.37,2.53,3.16,3.16,0,0,1-1.34,1.52,4.87,4.87,0,0,1-2.54.58,5.32,5.32,0,0,1-2.49-.51,2.94,2.94,0,0,1-1.39-1.48,7,7,0,0,1-.41-2.64V94.21h1.43v6.08a5.67,5.67,0,0,0,.27,2,1.91,1.91,0,0,0,.9,1,3.17,3.17,0,0,0,1.57.35,3.09,3.09,0,0,0,2.26-.69,4,4,0,0,0,.67-2.69Z"/>
    </g>
  </g>
  <g id="ID000074">
    <g class="cls-2">
      <path class="cls-4" d="M207,119.42l1.44.35a4.61,4.61,0,0,1-1.63,2.62,4.52,4.52,0,0,1-2.87.91,5.19,5.19,0,0,1-2.85-.7,4.41,4.41,0,0,1-1.68-2,7,7,0,0,1-.57-2.82,6.12,6.12,0,0,1,.65-2.88,4.35,4.35,0,0,1,1.84-1.86,5.48,5.48,0,0,1,2.64-.64,4.54,4.54,0,0,1,2.74.81,4.17,4.17,0,0,1,1.54,2.26l-1.41.33a3.24,3.24,0,0,0-1.1-1.68,3,3,0,0,0-1.8-.52,3.59,3.59,0,0,0-2.1.58,3.11,3.11,0,0,0-1.18,1.56,6.36,6.36,0,0,0-.34,2,6.25,6.25,0,0,0,.41,2.35,2.87,2.87,0,0,0,1.25,1.5,3.61,3.61,0,0,0,1.85.49,3.15,3.15,0,0,0,2-.67A3.43,3.43,0,0,0,207,119.42Z"/>
    </g>
  </g>
  <g id="ID000075">
    <g class="cls-2">
      <path class="cls-4" d="M214.52,134.11l1.43.35a4.72,4.72,0,0,1-1.62,2.63,4.59,4.59,0,0,1-2.87.9,5.22,5.22,0,0,1-2.86-.7,4.33,4.33,0,0,1-1.67-2,6.84,6.84,0,0,1-.58-2.82,6.12,6.12,0,0,1,.65-2.88,4.43,4.43,0,0,1,1.85-1.86,5.53,5.53,0,0,1,2.63-.64,4.52,4.52,0,0,1,2.74.81,4.18,4.18,0,0,1,1.55,2.27l-1.42.32a3.23,3.23,0,0,0-1.09-1.68,3,3,0,0,0-1.81-.52,3.57,3.57,0,0,0-2.09.58,3,3,0,0,0-1.18,1.57,6,6,0,0,0-.34,2,6.25,6.25,0,0,0,.4,2.35,3,3,0,0,0,1.25,1.5,3.63,3.63,0,0,0,1.85.49,3.15,3.15,0,0,0,2-.67A3.44,3.44,0,0,0,214.52,134.11Z"/>
    </g>
  </g>
  <g id="ID000076">
    <g class="cls-2">
      <path class="cls-4" d="M219,148.36v-1.23h4.6V151a8.28,8.28,0,0,1-2.18,1.24,6.88,6.88,0,0,1-2.32.41,6.22,6.22,0,0,1-2.9-.67,4.48,4.48,0,0,1-2-1.92,6,6,0,0,1-.66-2.81,6.41,6.41,0,0,1,.66-2.88,4.32,4.32,0,0,1,1.91-2,6.12,6.12,0,0,1,2.86-.65,5.94,5.94,0,0,1,2.13.37,3.57,3.57,0,0,1,1.5,1,4.52,4.52,0,0,1,.82,1.72l-1.3.35a3.67,3.67,0,0,0-.61-1.27,2.45,2.45,0,0,0-1-.73A3.82,3.82,0,0,0,219,143a4.58,4.58,0,0,0-1.7.29,3.06,3.06,0,0,0-1.16.77,3.56,3.56,0,0,0-.69,1,5.49,5.49,0,0,0-.41,2.12,5.06,5.06,0,0,0,.5,2.36A3.19,3.19,0,0,0,217,151a4.6,4.6,0,0,0,2,.46,5.08,5.08,0,0,0,1.83-.35,4.66,4.66,0,0,0,1.34-.74v-2Z"/>
    </g>
  </g>
  <g id="ID000077">
    <g class="cls-2">
      <path class="cls-4" d="M222.08,163.49l1.44.36a4.75,4.75,0,0,1-1.63,2.62,4.57,4.57,0,0,1-2.87.9,5.28,5.28,0,0,1-2.85-.69,4.39,4.39,0,0,1-1.68-2,7,7,0,0,1-.57-2.83,5.93,5.93,0,0,1,.65-2.87,4.37,4.37,0,0,1,1.84-1.87,5.55,5.55,0,0,1,2.63-.63,4.58,4.58,0,0,1,2.74.8,4.18,4.18,0,0,1,1.55,2.27l-1.41.32a3.27,3.27,0,0,0-1.1-1.67,3,3,0,0,0-1.81-.53,3.57,3.57,0,0,0-2.09.58,3.1,3.1,0,0,0-1.18,1.57,6,6,0,0,0-.34,2,6.25,6.25,0,0,0,.4,2.35,2.94,2.94,0,0,0,1.26,1.5,3.58,3.58,0,0,0,1.84.5,3.17,3.17,0,0,0,2-.68A3.49,3.49,0,0,0,222.08,163.49Z"/>
    </g>
  </g>
  <g id="ID000078">
    <g class="cls-2">
      <path class="cls-4" d="M219,177.75v-1.24h4.6v3.92a8.53,8.53,0,0,1-2.18,1.23,6.64,6.64,0,0,1-2.32.41,6.34,6.34,0,0,1-2.9-.66,4.56,4.56,0,0,1-2-1.93,5.94,5.94,0,0,1-.66-2.81,6.37,6.37,0,0,1,.66-2.87,4.32,4.32,0,0,1,1.91-2,6,6,0,0,1,2.86-.65,5.73,5.73,0,0,1,2.13.37,3.55,3.55,0,0,1,1.5,1,4.57,4.57,0,0,1,.82,1.73l-1.3.34a3.61,3.61,0,0,0-.61-1.26,2.39,2.39,0,0,0-1-.74,3.82,3.82,0,0,0-1.5-.28,4.58,4.58,0,0,0-1.7.29,3.18,3.18,0,0,0-1.16.77,3.7,3.7,0,0,0-.69,1,5.49,5.49,0,0,0-.41,2.12,5.06,5.06,0,0,0,.5,2.36,3.1,3.1,0,0,0,1.45,1.41,4.6,4.6,0,0,0,2,.46,5.07,5.07,0,0,0,1.83-.34,4.9,4.9,0,0,0,1.34-.75v-2Z"/>
    </g>
  </g>
  <g id="ID000079">
    <g class="cls-2">
      <path class="cls-4" d="M219,192.44V191.2h4.6v3.92a8.53,8.53,0,0,1-2.18,1.23,6.64,6.64,0,0,1-2.32.41,6.34,6.34,0,0,1-2.9-.66,4.51,4.51,0,0,1-2-1.93,5.92,5.92,0,0,1-.66-2.81,6.4,6.4,0,0,1,.66-2.87,4.32,4.32,0,0,1,1.91-2,6,6,0,0,1,2.86-.65,5.73,5.73,0,0,1,2.13.37,3.55,3.55,0,0,1,1.5,1,4.57,4.57,0,0,1,.82,1.73l-1.3.34a3.61,3.61,0,0,0-.61-1.26,2.39,2.39,0,0,0-1-.74A4,4,0,0,0,219,187a4.58,4.58,0,0,0-1.7.29,3.18,3.18,0,0,0-1.16.77,3.7,3.7,0,0,0-.69,1,5.54,5.54,0,0,0-.41,2.13,5,5,0,0,0,.5,2.35A3.1,3.1,0,0,0,217,195a4.61,4.61,0,0,0,2,.47,5.08,5.08,0,0,0,1.83-.35,4.65,4.65,0,0,0,1.34-.75v-2Z"/>
    </g>
  </g>
  <g id="ID000080">
    <g class="cls-2">
      <path class="cls-4" d="M219,207.13v-1.24h4.6v3.91a8,8,0,0,1-2.18,1.23,6.65,6.65,0,0,1-2.32.42,6.35,6.35,0,0,1-2.9-.67,4.48,4.48,0,0,1-2-1.92,6,6,0,0,1-.66-2.82,6.4,6.4,0,0,1,.66-2.87,4.32,4.32,0,0,1,1.91-2,6.12,6.12,0,0,1,2.86-.65,5.94,5.94,0,0,1,2.13.37,3.55,3.55,0,0,1,1.5,1,4.64,4.64,0,0,1,.82,1.73l-1.3.35a3.67,3.67,0,0,0-.61-1.27,2.47,2.47,0,0,0-1-.74,4,4,0,0,0-1.5-.27,4.39,4.39,0,0,0-1.7.29,3.17,3.17,0,0,0-1.16.76,3.74,3.74,0,0,0-.69,1.05A5.49,5.49,0,0,0,215,206a5.09,5.09,0,0,0,.5,2.36,3.19,3.19,0,0,0,1.45,1.41,4.75,4.75,0,0,0,2,.46,5.08,5.08,0,0,0,1.83-.35,4.43,4.43,0,0,0,1.34-.75v-2Z"/>
    </g>
  </g>
  <g id="ID000082">
    <g class="cls-2">
      <path d="M198.55,207.39l1.09-.14a2.24,2.24,0,0,0,.64,1.29,1.56,1.56,0,0,0,1.09.4,1.79,1.79,0,0,0,1.3-.52,1.69,1.69,0,0,0,.52-1.27,1.6,1.6,0,0,0-.48-1.2,1.72,1.72,0,0,0-1.25-.47,3.55,3.55,0,0,0-.76.11l.12-.92H201a2.33,2.33,0,0,0,1.25-.35,1.2,1.2,0,0,0,.55-1.08,1.28,1.28,0,0,0-.4-1,1.62,1.62,0,0,0-2.1,0,1.92,1.92,0,0,0-.54,1.16l-1.09-.19a2.75,2.75,0,0,1,.91-1.64,2.64,2.64,0,0,1,1.75-.58,3,3,0,0,1,1.34.3,2.26,2.26,0,0,1,.93.82,2.13,2.13,0,0,1,.32,1.11,1.72,1.72,0,0,1-.31,1,2,2,0,0,1-.91.73,2.09,2.09,0,0,1,1.22.73,2.17,2.17,0,0,1,.44,1.38,2.52,2.52,0,0,1-.85,1.91,3,3,0,0,1-2.13.78,2.83,2.83,0,0,1-1.94-.67A2.62,2.62,0,0,1,198.55,207.39Z"/>
      <path d="M205.42,205.42a7.82,7.82,0,0,1,.32-2.45,3.12,3.12,0,0,1,1-1.43,2.49,2.49,0,0,1,1.6-.5,2.74,2.74,0,0,1,1.25.27,2.38,2.38,0,0,1,.89.81,4.23,4.23,0,0,1,.55,1.27,8.43,8.43,0,0,1,.2,2,7.82,7.82,0,0,1-.32,2.45,3.1,3.1,0,0,1-1,1.43,2.75,2.75,0,0,1-3.62-.38A5.58,5.58,0,0,1,205.42,205.42Zm1.12,0a5.4,5.4,0,0,0,.5,2.82,1.48,1.48,0,0,0,2.52,0,5.28,5.28,0,0,0,.51-2.82,5.21,5.21,0,0,0-.51-2.81,1.51,1.51,0,0,0-1.27-.7,1.38,1.38,0,0,0-1.19.61A5.28,5.28,0,0,0,206.54,205.42Z"/>
    </g>
  </g>
  <g id="ID000083">
    <g class="cls-2">
      <path class="cls-4" d="M219,221.82v-1.24h4.6v3.91a8,8,0,0,1-2.18,1.23,6.65,6.65,0,0,1-2.32.42,6.22,6.22,0,0,1-2.9-.67,4.48,4.48,0,0,1-2-1.92,6,6,0,0,1-.66-2.81,6.41,6.41,0,0,1,.66-2.88,4.32,4.32,0,0,1,1.91-2,6.12,6.12,0,0,1,2.86-.65,5.94,5.94,0,0,1,2.13.37,3.48,3.48,0,0,1,1.5,1,4.52,4.52,0,0,1,.82,1.72l-1.3.35a3.67,3.67,0,0,0-.61-1.27,2.47,2.47,0,0,0-1-.74,4,4,0,0,0-1.5-.27,4.39,4.39,0,0,0-1.7.29,3.17,3.17,0,0,0-1.16.76,3.74,3.74,0,0,0-.69,1.05,5.49,5.49,0,0,0-.41,2.12,5.06,5.06,0,0,0,.5,2.36,3.19,3.19,0,0,0,1.45,1.41,4.6,4.6,0,0,0,2,.46,5.08,5.08,0,0,0,1.83-.35,4.66,4.66,0,0,0,1.34-.74v-2Z"/>
    </g>
  </g>
  <g id="ID000084">
    <g class="cls-2">
      <path class="cls-4" d="M222.08,237l1.44.35a4.75,4.75,0,0,1-1.63,2.63,4.57,4.57,0,0,1-2.87.9,5.19,5.19,0,0,1-2.85-.7,4.29,4.29,0,0,1-1.68-2,7,7,0,0,1-.57-2.82,6,6,0,0,1,.65-2.88,4.4,4.4,0,0,1,1.84-1.86,5.56,5.56,0,0,1,2.63-.64,4.52,4.52,0,0,1,2.74.81,4.18,4.18,0,0,1,1.55,2.27l-1.41.32a3.3,3.3,0,0,0-1.1-1.68,3,3,0,0,0-1.81-.52,3.57,3.57,0,0,0-2.09.58,3.1,3.1,0,0,0-1.18,1.57,6,6,0,0,0-.34,2,6.25,6.25,0,0,0,.4,2.35,2.94,2.94,0,0,0,1.26,1.5,3.57,3.57,0,0,0,1.84.49,3.16,3.16,0,0,0,2-.67A3.49,3.49,0,0,0,222.08,237Z"/>
    </g>
  </g>
  <g id="ID000085">
    <g class="cls-2">
      <path class="cls-8" d="M214.6,268.51v-1.23h4.6v3.91a8.33,8.33,0,0,1-2.19,1.24,6.78,6.78,0,0,1-2.31.41,6.41,6.41,0,0,1-2.91-.66,4.54,4.54,0,0,1-2-1.93,6,6,0,0,1-.67-2.81,6.42,6.42,0,0,1,.67-2.88,4.39,4.39,0,0,1,1.9-2,6.16,6.16,0,0,1,2.87-.65,5.73,5.73,0,0,1,2.13.38,3.49,3.49,0,0,1,1.49,1,4.53,4.53,0,0,1,.83,1.72l-1.3.35a3.85,3.85,0,0,0-.61-1.27,2.49,2.49,0,0,0-1-.73,3.73,3.73,0,0,0-1.49-.28,4.63,4.63,0,0,0-1.71.29,3.1,3.1,0,0,0-1.15.77,3.37,3.37,0,0,0-.69,1,5.31,5.31,0,0,0-.41,2.12,4.94,4.94,0,0,0,.5,2.36,3.14,3.14,0,0,0,1.45,1.41,4.57,4.57,0,0,0,2,.46,4.79,4.79,0,0,0,1.82-.35,4.73,4.73,0,0,0,1.35-.74v-2Z"/>
    </g>
  </g>
  <g id="ID000086">
    <g class="cls-2">
      <path class="cls-8" d="M195.8,272.65,200,262.1h1.54L206,272.65h-1.64l-1.27-3.19h-4.54l-1.19,3.19Zm3.13-4.33h3.68l-1.13-2.92c-.35-.89-.61-1.62-.77-2.19a13.64,13.64,0,0,1-.59,2Z"/>
    </g>
  </g>
  <g id="ID000087">
    <g class="cls-2">
      <path class="cls-8" d="M189.1,262.62h1.44v6.1a7.13,7.13,0,0,1-.37,2.52,3.12,3.12,0,0,1-1.34,1.52,4.85,4.85,0,0,1-2.54.59,5.32,5.32,0,0,1-2.49-.51,2.94,2.94,0,0,1-1.39-1.48,7,7,0,0,1-.41-2.64v-6.1h1.44v6.09a5.72,5.72,0,0,0,.26,2,1.94,1.94,0,0,0,.9,1,3.28,3.28,0,0,0,1.57.35,3,3,0,0,0,2.26-.7,3.92,3.92,0,0,0,.67-2.68Z"/>
    </g>
  </g>
  <g id="ID000088">
    <g class="cls-2">
      <path class="cls-8" d="M169.48,267.92l4.17-10.54h1.55l4.44,10.54H178l-1.26-3.19H172.2l-1.2,3.19Zm3.13-4.33h3.68l-1.13-2.92c-.35-.88-.6-1.61-.77-2.18a13.88,13.88,0,0,1-.59,2Z"/>
    </g>
  </g>
  <g id="ID000089">
    <line class="cls-9" x1="242.8" y1="234" x2="224.7" y2="234"/>
  </g>
  <g id="ID000090">
    <line class="cls-9" x1="242.8" y1="219.3" x2="224.7" y2="219.3"/>
  </g>
  <g id="ID000091">
    <line class="cls-9" x1="242.8" y1="204.7" x2="224.7" y2="204.7"/>
  </g>
  <g id="ID000092">
    <polygon class="cls-10" points="230.7 190 230.7 190.1 230.8 190.3 230.8 190.5 230.8 190.7 230.9 190.9 231 191.1 231 191.2 231.1 191.4 231.2 191.6 231.3 191.7 231.4 191.9 231.6 192 231.7 192.1 231.9 192.2 232 192.4 232.2 192.5 232.3 192.6 232.5 192.6 232.7 192.7 232.9 192.8 233.1 192.8 233.2 192.9 233.4 192.9 233.6 192.9 233.8 192.9 234 192.9 234.2 192.9 234.4 192.8 234.6 192.8 234.8 192.7 234.9 192.7 235.1 192.6 235.3 192.5 235.4 192.4 235.6 192.3 235.7 192.2 235.9 192.1 236 191.9 236.1 191.8 236.3 191.6 236.4 191.5 236.5 191.3 236.5 191.1 236.6 191 236.7 190.8 236.7 190.6 236.8 190.4 236.8 190.2 236.8 190.1 236.8 189.9 236.8 189.7 236.8 189.5 236.7 189.3 236.7 189.1 236.6 189 236.5 188.8 236.5 188.6 236.4 188.5 236.3 188.3 236.1 188.1 236 188 235.9 187.9 235.7 187.7 235.6 187.6 235.4 187.5 235.3 187.4 235.1 187.3 234.9 187.3 234.8 187.2 234.6 187.1 234.4 187.1 234.2 187.1 234 187 233.8 187 233.6 187 233.4 187 233.2 187.1 233.1 187.1 232.9 187.2 232.7 187.2 232.5 187.3 232.3 187.4 232.2 187.5 232 187.6 231.9 187.7 231.7 187.8 231.6 187.9 231.4 188.1 231.3 188.2 231.2 188.4 231.1 188.5 231 188.7 231 188.9 230.9 189 230.8 189.2 230.8 189.4 230.8 189.6 230.7 189.8 230.7 190"/>
  </g>
  <g id="ID000093">
    <line class="cls-9" x1="242.8" y1="175.3" x2="224.7" y2="175.3"/>
  </g>
  <g id="ID000094">
    <line class="cls-9" x1="242.8" y1="160.6" x2="224.7" y2="160.6"/>
  </g>
  <g id="ID000095">
    <line class="cls-9" x1="242.8" y1="145.9" x2="224.7" y2="145.9"/>
  </g>
  <g id="ID000096">
    <line class="cls-9" x1="200.64" y1="237.54" x2="200.64" y2="261.3"/>
  </g>
  <g id="ID000097">
    <polygon class="cls-10" points="200.77 244.52 197.18 250.21 203.89 250.34 200.77 244.52"/>
  </g>
  <g id="ID000098">
    <polygon class="cls-10" points="203.71 257.43 203.61 251.56 197.57 251.77 197.68 257.63 203.71 257.43"/>
  </g>
  <g id="ID000100">
    <line class="cls-11" x1="218" y1="239.9" x2="215.5" y2="261.3"/>
  </g>
  <g id="ID000101">
    <polygon class="cls-10" points="221.8 246.2 219.3 248.4 218.3 250.7 217.6 253.1 215.9 257.9 215.3 252.9 215.2 250.4 214.8 247.9 212.8 245.2 221.8 246.2"/>
  </g>
  <g class="cls-2">
    <path d="M6.66,23.27l1.88-.16A4,4,0,0,0,9.16,25a3.35,3.35,0,0,0,1.51,1.17,5.84,5.84,0,0,0,2.31.44,5.63,5.63,0,0,0,2-.33,2.79,2.79,0,0,0,1.3-.93A2.13,2.13,0,0,0,16.71,24a2,2,0,0,0-.41-1.23,3,3,0,0,0-1.36-.89,25.11,25.11,0,0,0-2.67-.73,14.33,14.33,0,0,1-2.9-.94,4.15,4.15,0,0,1-1.61-1.4A3.45,3.45,0,0,1,7.23,17a3.84,3.84,0,0,1,.65-2.13,4,4,0,0,1,1.89-1.5,7,7,0,0,1,2.75-.52,7.5,7.5,0,0,1,3,.54,4.29,4.29,0,0,1,2,1.59,4.53,4.53,0,0,1,.73,2.36l-1.9.15a3.14,3.14,0,0,0-1-2.16,4.11,4.11,0,0,0-2.62-.72,4.2,4.2,0,0,0-2.63.66,2,2,0,0,0-.83,1.59,1.75,1.75,0,0,0,.58,1.34,8.28,8.28,0,0,0,3,1.07,18.59,18.59,0,0,1,3.33,1A4.51,4.51,0,0,1,18,21.72a3.71,3.71,0,0,1,.62,2.14,4.07,4.07,0,0,1-.68,2.26,4.5,4.5,0,0,1-2,1.65,6.88,6.88,0,0,1-2.89.59,8.59,8.59,0,0,1-3.42-.6A4.78,4.78,0,0,1,7.48,26,5.08,5.08,0,0,1,6.66,23.27Z"/>
    <path d="M19.69,28.1l5.77-15h2.15l6.15,15H31.49l-1.75-4.55H23.45L21.8,28.1ZM24,21.93h5.09l-1.56-4.16c-.48-1.27-.84-2.31-1.07-3.12a19,19,0,0,1-.81,2.87Z"/>
    <path d="M35.29,28.1v-15h3l3.56,10.64c.33,1,.57,1.74.72,2.23.17-.55.44-1.35.8-2.41L47,13.07h2.67v15H47.72V15.52L43.35,28.1h-1.8L37.21,15.3V28.1Z"/>
    <path d="M51.89,23.59V21.73h5.67v1.86Z"/>
    <path d="M64.13,28.1l-5.82-15h2.15L64.37,24c.31.88.58,1.7.79,2.46q.34-1.23.81-2.46L70,13.07h2l-5.89,15Z"/>
    <path d="M74.18,28.1v-15h2v15Z"/>
    <path d="M85.54,28.1v-15h6.67a8.83,8.83,0,0,1,3.05.4,3.32,3.32,0,0,1,1.67,1.43,4.27,4.27,0,0,1,.63,2.27,3.79,3.79,0,0,1-1,2.7,5.24,5.24,0,0,1-3.2,1.39,5.11,5.11,0,0,1,1.2.75,10,10,0,0,1,1.66,2l2.61,4.09h-2.5L94.3,25q-.87-1.35-1.44-2.07a4.25,4.25,0,0,0-1-1,2.86,2.86,0,0,0-.9-.4,5.91,5.91,0,0,0-1.11-.07H87.53V28.1Zm2-8.4h4.28a6.34,6.34,0,0,0,2.13-.28,2.32,2.32,0,0,0,1.17-.9,2.4,2.4,0,0,0,.4-1.35,2.23,2.23,0,0,0-.78-1.75,3.59,3.59,0,0,0-2.44-.69H87.53Z"/>
    <path d="M100.45,15.19V13.07h1.85v2.12Zm0,12.91V17.21h1.85V28.1Z"/>
    <path d="M106.81,28.1H105.1v-15h1.84v5.36a3.68,3.68,0,0,1,3-1.46,4.56,4.56,0,0,1,1.9.4,3.79,3.79,0,0,1,1.47,1.14,5.48,5.48,0,0,1,.91,1.77,7.25,7.25,0,0,1,.33,2.21,6.24,6.24,0,0,1-1.38,4.33,4.34,4.34,0,0,1-3.33,1.53,3.47,3.47,0,0,1-3-1.61Zm0-5.53a5.7,5.7,0,0,0,.53,2.83,2.64,2.64,0,0,0,4.45.38,4.77,4.77,0,0,0,.88-3.13,4.88,4.88,0,0,0-.84-3.15,2.59,2.59,0,0,0-2-1,2.66,2.66,0,0,0-2.09,1.05A4.63,4.63,0,0,0,106.79,22.57Z"/>
    <path d="M116.1,22.66a5.61,5.61,0,0,1,1.68-4.48A5.06,5.06,0,0,1,121.21,17a4.9,4.9,0,0,1,3.67,1.47,5.58,5.58,0,0,1,1.42,4.06,7.22,7.22,0,0,1-.63,3.31,4.42,4.42,0,0,1-1.84,1.87,5.35,5.35,0,0,1-2.62.67,4.89,4.89,0,0,1-3.7-1.47A5.85,5.85,0,0,1,116.1,22.66Zm1.9,0a4.62,4.62,0,0,0,.91,3.13,2.94,2.94,0,0,0,2.3,1,2.9,2.9,0,0,0,2.28-1,4.72,4.72,0,0,0,.91-3.18,4.54,4.54,0,0,0-.91-3.07,3,3,0,0,0-4.58,0A4.61,4.61,0,0,0,118,22.66Z"/>
    <path d="M127.73,24.85l1.82-.29a2.54,2.54,0,0,0,.86,1.69,3,3,0,0,0,2,.58,2.86,2.86,0,0,0,1.89-.52,1.53,1.53,0,0,0,.61-1.21,1.13,1.13,0,0,0-.54-1,8,8,0,0,0-1.89-.62,16.84,16.84,0,0,1-2.81-.89,2.71,2.71,0,0,1-1.6-2.5,2.88,2.88,0,0,1,.34-1.35,3.07,3.07,0,0,1,.9-1,3.72,3.72,0,0,1,1.18-.53A5.46,5.46,0,0,1,132,17a6.4,6.4,0,0,1,2.25.36,3,3,0,0,1,1.43,1,4,4,0,0,1,.64,1.69l-1.8.25a2,2,0,0,0-.72-1.31,2.56,2.56,0,0,0-1.66-.48,3,3,0,0,0-1.82.42,1.23,1.23,0,0,0-.54,1,1,1,0,0,0,.22.64,1.64,1.64,0,0,0,.71.5l1.63.47a22.93,22.93,0,0,1,2.73.85,2.83,2.83,0,0,1,1.22,1,2.75,2.75,0,0,1,.44,1.58,3.08,3.08,0,0,1-.54,1.74,3.5,3.5,0,0,1-1.55,1.26,5.62,5.62,0,0,1-2.3.45,5.16,5.16,0,0,1-3.23-.88A4,4,0,0,1,127.73,24.85Z"/>
    <path d="M141,28.1l-3.33-10.89h1.91l1.73,6.29.65,2.34c0-.12.21-.87.56-2.25l1.74-6.38h1.89l1.63,6.32.55,2.08.62-2.1,1.87-6.3h1.79l-3.4,10.89h-1.92l-1.73-6.52-.42-1.86L142.9,28.1Z"/>
    <path d="M154.14,15.19V13.07H156v2.12Zm0,12.91V17.21H156V28.1Z"/>
    <path d="M162.83,26.45l.26,1.63a6.81,6.81,0,0,1-1.39.17,3.18,3.18,0,0,1-1.56-.32,1.75,1.75,0,0,1-.78-.84,6.56,6.56,0,0,1-.23-2.18V18.65h-1.35V17.21h1.35V14.52L161,13.41v3.8h1.86v1.44H161V25a3,3,0,0,0,.1,1,.74.74,0,0,0,.32.36,1.18,1.18,0,0,0,.63.13A5.74,5.74,0,0,0,162.83,26.45Z"/>
    <path d="M171.74,24.11l1.81.24A4.71,4.71,0,0,1,172,27.29a4.48,4.48,0,0,1-3,1.06,4.71,4.71,0,0,1-3.6-1.46,6,6,0,0,1-1.35-4.19,7.57,7.57,0,0,1,.58-3.09,4.06,4.06,0,0,1,1.78-2A5.29,5.29,0,0,1,169,17a4.5,4.5,0,0,1,2.9.89,4.13,4.13,0,0,1,1.45,2.55l-1.8.28a3,3,0,0,0-.91-1.65,2.32,2.32,0,0,0-1.57-.56,2.91,2.91,0,0,0-2.27,1,4.76,4.76,0,0,0-.87,3.17,4.93,4.93,0,0,0,.84,3.19,2.76,2.76,0,0,0,2.2,1,2.55,2.55,0,0,0,1.81-.67A3.26,3.26,0,0,0,171.74,24.11Z"/>
    <path d="M175.13,28.1v-15H177v5.39A4.1,4.1,0,0,1,180.24,17a4.4,4.4,0,0,1,2.1.47,2.86,2.86,0,0,1,1.28,1.32A6.18,6.18,0,0,1,184,21.2v6.9h-1.85V21.2a2.84,2.84,0,0,0-.6-2,2.22,2.22,0,0,0-1.69-.64,3.07,3.07,0,0,0-1.55.43,2.44,2.44,0,0,0-1,1.15,5.45,5.45,0,0,0-.3,2v6Z"/>
  </g>
  <g id="ID000081">
    <line class="cls-9" x1="145.92" y1="270.45" x2="145.92" y2="280.55"/>
  </g>
  <g id="ID000081-2" data-name="ID000081">
    <line class="cls-9" x1="214.55" y1="280.35" x2="214.55" y2="273.51"/>
  </g>
  <g id="ID000081-3" data-name="ID000081">
    <line class="cls-9" x1="148.32" y1="257.86" x2="148.32" y2="247.76"/>
  </g>
  <g id="ID000081-4" data-name="ID000081">
    <line class="cls-9" x1="211.5" y1="237.54" x2="200.55" y2="237.54"/>
  </g>
</svg>
