<svg id="图层_1" data-name="图层 1" xmlns="http://www.w3.org/2000/svg" viewBox="0 0 400 400">
  <defs>
    <style>
      .cls-1 {
        isolation: isolate;
      }

      .cls-2 {
        fill: #ff870a;
      }

      .cls-3, .cls-6 {
        fill: none;
      }

      .cls-3, .cls-4, .cls-6, .cls-7 {
        stroke: #000;
        stroke-miterlimit: 1.11;
      }

      .cls-3, .cls-4, .cls-7 {
        stroke-width: 0.14px;
      }

      .cls-4, .cls-9 {
        fill: #fff;
      }

      .cls-5 {
        fill: #09fefe;
      }

      .cls-6 {
        stroke-width: 0.5px;
      }

      .cls-8 {
        fill: #ff0b0c;
        stroke: #ff0b0c;
        stroke-miterlimit: 10;
      }
    </style>
  </defs>
  <g id="ID000000">
    <g>
      <g id="ID000002">
        <g class="cls-1">
          <path class="cls-2" d="M212.48,371.73v-1.82h8.45v5.76a16.14,16.14,0,0,1-4,1.82,14.86,14.86,0,0,1-4.25.61,14.05,14.05,0,0,1-5.33-1,7.66,7.66,0,0,1-3.63-2.84,7.37,7.37,0,0,1-1.22-4.14,7.85,7.85,0,0,1,1.22-4.24,7.28,7.28,0,0,1,3.5-2.92,13.64,13.64,0,0,1,5.26-1,13.25,13.25,0,0,1,3.91.54,6.77,6.77,0,0,1,2.74,1.52,6.25,6.25,0,0,1,1.51,2.55l-2.38.51a5.25,5.25,0,0,0-1.12-1.87,4.59,4.59,0,0,0-1.9-1.08,8.49,8.49,0,0,0-2.75-.41,10,10,0,0,0-3.12.43,6,6,0,0,0-2.13,1.13,5.44,5.44,0,0,0-1.26,1.53,6.58,6.58,0,0,0-.76,3.13,6.14,6.14,0,0,0,.92,3.48,5.47,5.47,0,0,0,2.67,2.08,10.29,10.29,0,0,0,3.73.68,11.15,11.15,0,0,0,3.34-.52,9.46,9.46,0,0,0,2.48-1.1v-2.89Z"/>
        </g>
      </g>
      <g id="ID000003">
        <g class="cls-1">
          <path class="cls-2" d="M212.48,349.93v-1.82h8.45v5.77a16.9,16.9,0,0,1-4,1.82,15.21,15.21,0,0,1-4.25.6,13.86,13.86,0,0,1-5.33-1,7.64,7.64,0,0,1-3.63-2.83,7.42,7.42,0,0,1-1.22-4.15,7.82,7.82,0,0,1,1.22-4.23,7.22,7.22,0,0,1,3.5-2.92,13.45,13.45,0,0,1,5.26-1,12.92,12.92,0,0,1,3.91.55,6.66,6.66,0,0,1,2.74,1.52,6.21,6.21,0,0,1,1.51,2.54l-2.38.51a5.2,5.2,0,0,0-1.12-1.86,4.49,4.49,0,0,0-1.9-1.09,8.77,8.77,0,0,0-2.75-.41,10,10,0,0,0-3.12.43,6.12,6.12,0,0,0-2.13,1.13,5.48,5.48,0,0,0-1.26,1.54,6.56,6.56,0,0,0-.76,3.13,6.13,6.13,0,0,0,.92,3.47,5.36,5.36,0,0,0,2.67,2.08,10.29,10.29,0,0,0,3.73.68,11.14,11.14,0,0,0,3.34-.51,9.81,9.81,0,0,0,2.48-1.1v-2.9Z"/>
        </g>
      </g>
      <g id="ID000004">
        <g class="cls-1">
          <path class="cls-2" d="M217,318.69h2.64v9a8.55,8.55,0,0,1-.68,3.72,5.1,5.1,0,0,1-2.46,2.25,10.77,10.77,0,0,1-4.66.86,11.94,11.94,0,0,1-4.58-.75,4.9,4.9,0,0,1-2.54-2.18,8.31,8.31,0,0,1-.76-3.9v-9h2.64v9a7,7,0,0,0,.48,3,3.15,3.15,0,0,0,1.66,1.47,7,7,0,0,0,2.87.52,6.57,6.57,0,0,0,4.15-1c.83-.69,1.24-2,1.24-4Z"/>
        </g>
      </g>
      <g id="ID000005">
        <g class="cls-1">
          <path class="cls-2" d="M218.15,307l2.64.52a6.85,6.85,0,0,1-3,3.86,9.8,9.8,0,0,1-5.27,1.33,11.67,11.67,0,0,1-5.24-1,7,7,0,0,1-3.07-3,8.67,8.67,0,0,1-1.06-4.17,7.58,7.58,0,0,1,1.19-4.24,7.47,7.47,0,0,1,3.39-2.74,12.15,12.15,0,0,1,4.84-.94,9.78,9.78,0,0,1,5,1.19,6.32,6.32,0,0,1,2.84,3.34l-2.6.47a4.88,4.88,0,0,0-2-2.47,6.55,6.55,0,0,0-3.32-.77,7.74,7.74,0,0,0-3.84.86,4.81,4.81,0,0,0-2.17,2.3,7.43,7.43,0,0,0-.63,3,7.7,7.7,0,0,0,.74,3.46,4.77,4.77,0,0,0,2.31,2.21,7.85,7.85,0,0,0,3.39.73,6.81,6.81,0,0,0,3.75-1A5,5,0,0,0,218.15,307Z"/>
        </g>
      </g>
      <g id="ID000006">
        <g class="cls-1">
          <path class="cls-2" d="M202.51,290.65l7.66-15.54H213l8.16,15.54h-3l-2.32-4.71H207.5l-2.19,4.71Zm5.75-6.38H215L212.94,280a34.51,34.51,0,0,1-1.41-3.22,17.12,17.12,0,0,1-1.08,3Z"/>
        </g>
      </g>
      <g id="ID000007">
        <g class="cls-1">
          <path class="cls-2" d="M218.15,263.41l2.64.51a6.9,6.9,0,0,1-3,3.87,9.8,9.8,0,0,1-5.27,1.33,11.67,11.67,0,0,1-5.24-1,7,7,0,0,1-3.07-3,8.61,8.61,0,0,1-1.06-4.16,7.58,7.58,0,0,1,1.19-4.24,7.47,7.47,0,0,1,3.39-2.74,12.15,12.15,0,0,1,4.84-.94,9.88,9.88,0,0,1,5,1.18,6.4,6.4,0,0,1,2.84,3.34l-2.6.48a4.88,4.88,0,0,0-2-2.47,6.55,6.55,0,0,0-3.32-.77,7.74,7.74,0,0,0-3.84.86,4.81,4.81,0,0,0-2.17,2.3,7.43,7.43,0,0,0-.63,3,7.7,7.7,0,0,0,.74,3.46,4.82,4.82,0,0,0,2.31,2.21,7.85,7.85,0,0,0,3.39.73,6.73,6.73,0,0,0,3.75-1A5,5,0,0,0,218.15,263.41Z"/>
        </g>
      </g>
      <g id="ID000008">
        <g class="cls-1">
          <path class="cls-2" d="M202.51,247.06l7.66-15.55H213l8.16,15.55h-3l-2.32-4.71H207.5l-2.19,4.71Zm5.75-6.38H215l-2.08-4.31c-.63-1.31-1.11-2.38-1.41-3.22a17.74,17.74,0,0,1-1.08,3Z"/>
        </g>
      </g>
      <g id="ID000009">
        <g class="cls-1">
          <path class="cls-2" d="M202.51,225.26l7.66-15.54H213l8.16,15.54h-3l-2.32-4.71H207.5l-2.19,4.71Zm5.75-6.38H215l-2.08-4.31a34.51,34.51,0,0,1-1.41-3.22,17.12,17.12,0,0,1-1.08,3Z"/>
        </g>
      </g>
      <g id="ID000010">
        <g class="cls-1">
          <path class="cls-2" d="M268.38,219.17v-1.83h8.45v5.77a16.72,16.72,0,0,1-4,1.82,15.15,15.15,0,0,1-4.24.61,14.07,14.07,0,0,1-5.34-1,7.72,7.72,0,0,1-3.63-2.84,7.42,7.42,0,0,1-1.22-4.15,7.82,7.82,0,0,1,1.22-4.23,7.27,7.27,0,0,1,3.5-2.92,13.49,13.49,0,0,1,5.26-1,12.87,12.87,0,0,1,3.91.55,6.59,6.59,0,0,1,2.74,1.52,6.19,6.19,0,0,1,1.51,2.55l-2.38.5a5.34,5.34,0,0,0-1.11-1.86,4.71,4.71,0,0,0-1.91-1.09,8.77,8.77,0,0,0-2.75-.41,10.31,10.31,0,0,0-3.12.43,6.29,6.29,0,0,0-2.13,1.13,5.48,5.48,0,0,0-1.26,1.54,6.56,6.56,0,0,0-.76,3.13,6.26,6.26,0,0,0,.92,3.48A5.4,5.4,0,0,0,264.7,223a10.08,10.08,0,0,0,3.73.68,11.14,11.14,0,0,0,3.34-.51,9.81,9.81,0,0,0,2.48-1.1v-2.89Z"/>
        </g>
      </g>
      <g id="ID000011">
        <g class="cls-1">
          <path class="cls-2" d="M274.05,241.61l2.64.52a6.87,6.87,0,0,1-3,3.86,9.85,9.85,0,0,1-5.27,1.33,11.68,11.68,0,0,1-5.25-1,7,7,0,0,1-3.07-3,8.66,8.66,0,0,1-1.05-4.17,7.5,7.5,0,0,1,1.19-4.24,7.39,7.39,0,0,1,3.38-2.74,12.15,12.15,0,0,1,4.84-.94,9.88,9.88,0,0,1,5,1.19,6.32,6.32,0,0,1,2.84,3.34l-2.6.47a4.88,4.88,0,0,0-2-2.47,6.55,6.55,0,0,0-3.32-.77,7.85,7.85,0,0,0-3.84.86,4.81,4.81,0,0,0-2.17,2.3,7.42,7.42,0,0,0-.62,3,7.54,7.54,0,0,0,.74,3.46,4.71,4.71,0,0,0,2.3,2.21,7.85,7.85,0,0,0,3.39.73,6.76,6.76,0,0,0,3.75-1A4.93,4.93,0,0,0,274.05,241.61Z"/>
        </g>
      </g>
      <g id="ID000012">
        <g class="cls-1">
          <path class="cls-2" d="M268.38,262.76v-1.82l8.45,0v5.77a16.34,16.34,0,0,1-4,1.82,14.79,14.79,0,0,1-4.24.61,14.07,14.07,0,0,1-5.34-1,7.66,7.66,0,0,1-3.63-2.84,7.39,7.39,0,0,1-1.22-4.14,7.85,7.85,0,0,1,1.22-4.24,7.32,7.32,0,0,1,3.5-2.92,13.67,13.67,0,0,1,5.26-.95,13.2,13.2,0,0,1,3.91.54,6.71,6.71,0,0,1,2.74,1.52,6.19,6.19,0,0,1,1.51,2.55l-2.38.51A5.39,5.39,0,0,0,273,256.3a4.83,4.83,0,0,0-1.91-1.09,8.78,8.78,0,0,0-2.75-.4,10,10,0,0,0-3.12.43,6,6,0,0,0-2.13,1.13,5.3,5.3,0,0,0-1.26,1.53,6.58,6.58,0,0,0-.76,3.13,6.22,6.22,0,0,0,.92,3.48,5.47,5.47,0,0,0,2.67,2.08,10.28,10.28,0,0,0,3.73.67,11.14,11.14,0,0,0,3.34-.51,9.46,9.46,0,0,0,2.48-1.1v-2.89Z"/>
        </g>
      </g>
      <g id="ID000013">
        <g class="cls-1">
          <path class="cls-2" d="M272.91,275.11h2.64v9a8.55,8.55,0,0,1-.68,3.72,5,5,0,0,1-2.46,2.24,10.6,10.6,0,0,1-4.65.87,11.76,11.76,0,0,1-4.59-.76,4.85,4.85,0,0,1-2.54-2.18,8.27,8.27,0,0,1-.76-3.89v-9h2.64v9a7,7,0,0,0,.48,3,3.17,3.17,0,0,0,1.66,1.48,7,7,0,0,0,2.87.52,6.5,6.5,0,0,0,4.15-1c.83-.68,1.24-2,1.24-3.95Z"/>
        </g>
      </g>
      <g id="ID000014">
        <g class="cls-1">
          <path class="cls-2" d="M268.38,306.35v-1.82h8.45v5.76a16,16,0,0,1-4,1.82,14.79,14.79,0,0,1-4.24.61,13.88,13.88,0,0,1-5.34-1,7.7,7.7,0,0,1-3.63-2.83,7.42,7.42,0,0,1-1.22-4.15,7.88,7.88,0,0,1,1.22-4.24,7.32,7.32,0,0,1,3.5-2.92,13.67,13.67,0,0,1,5.26-.95,13.2,13.2,0,0,1,3.91.54,6.71,6.71,0,0,1,2.74,1.53,6.21,6.21,0,0,1,1.51,2.54l-2.38.51a5.48,5.48,0,0,0-1.11-1.87,4.7,4.7,0,0,0-1.91-1.08,8.77,8.77,0,0,0-2.75-.41,10,10,0,0,0-3.12.43,6,6,0,0,0-2.13,1.13,5.34,5.34,0,0,0-1.26,1.54,6.54,6.54,0,0,0-.76,3.12,6.22,6.22,0,0,0,.92,3.48,5.41,5.41,0,0,0,2.67,2.08,10.29,10.29,0,0,0,3.73.68,10.84,10.84,0,0,0,3.34-.52,9.84,9.84,0,0,0,2.48-1.09v-2.9Z"/>
        </g>
      </g>
      <g id="ID000015">
        <g class="cls-1">
          <path class="cls-2" d="M258.41,334.23l7.66-15.54h2.84l8.16,15.54h-3l-2.32-4.7H263.4l-2.19,4.7Zm5.75-6.38h6.76l-2.08-4.3c-.63-1.31-1.1-2.38-1.41-3.23a16.34,16.34,0,0,1-1.08,3Z"/>
        </g>
      </g>
      <g id="ID000016">
        <g class="cls-1">
          <path class="cls-2" d="M274.05,350.58l2.64.52a6.87,6.87,0,0,1-3,3.86,9.85,9.85,0,0,1-5.27,1.33,11.68,11.68,0,0,1-5.25-1,7,7,0,0,1-3.07-3,8.61,8.61,0,0,1-1.05-4.17,7.24,7.24,0,0,1,4.57-7,12.15,12.15,0,0,1,4.84-.94,9.88,9.88,0,0,1,5,1.19,6.32,6.32,0,0,1,2.84,3.34l-2.6.48a4.84,4.84,0,0,0-2-2.47,6.45,6.45,0,0,0-3.32-.78,7.85,7.85,0,0,0-3.84.86,4.79,4.79,0,0,0-2.17,2.31,7.37,7.37,0,0,0-.62,3,7.54,7.54,0,0,0,.74,3.46,4.67,4.67,0,0,0,2.3,2.21,7.86,7.86,0,0,0,3.39.74,6.76,6.76,0,0,0,3.75-1A4.93,4.93,0,0,0,274.05,350.58Z"/>
        </g>
      </g>
      <g id="ID000017">
        <g class="cls-1">
          <path class="cls-2" d="M274.05,372.38l2.64.52a6.94,6.94,0,0,1-3,3.86,9.85,9.85,0,0,1-5.27,1.33,11.68,11.68,0,0,1-5.25-1,7,7,0,0,1-3.07-3,8.6,8.6,0,0,1-1.05-4.16,7.5,7.5,0,0,1,1.19-4.24,7.39,7.39,0,0,1,3.38-2.74,12.15,12.15,0,0,1,4.84-.94,9.78,9.78,0,0,1,5,1.19,6.34,6.34,0,0,1,2.84,3.33l-2.6.48a4.88,4.88,0,0,0-2-2.47,6.55,6.55,0,0,0-3.32-.77,7.74,7.74,0,0,0-3.84.86,4.81,4.81,0,0,0-2.17,2.3,7.42,7.42,0,0,0-.62,3,7.57,7.57,0,0,0,.74,3.46,4.71,4.71,0,0,0,2.3,2.21,7.85,7.85,0,0,0,3.39.73,6.68,6.68,0,0,0,3.75-1A4.91,4.91,0,0,0,274.05,372.38Z"/>
        </g>
      </g>
      <g id="ID000018">
        <line class="cls-3" x1="223" y1="368" x2="256.5" y2="368"/>
      </g>
      <g id="ID000019">
        <line class="cls-3" x1="223" y1="346.2" x2="256.5" y2="346.2"/>
      </g>
      <g id="ID000020">
        <line class="cls-3" x1="223" y1="324.4" x2="256.5" y2="324.4"/>
      </g>
      <g id="ID000021">
        <line class="cls-3" x1="223" y1="302.6" x2="256.5" y2="302.6"/>
      </g>
      <g id="ID000022">
        <line class="cls-3" x1="223" y1="280.9" x2="256.5" y2="280.9"/>
      </g>
      <g id="ID000023">
        <line class="cls-3" x1="223" y1="259.1" x2="256.5" y2="259.1"/>
      </g>
      <g id="ID000024">
        <line class="cls-3" x1="223" y1="237.3" x2="256.5" y2="237.3"/>
      </g>
      <g id="ID000025">
        <polygon class="cls-4" points="225.2 237.3 236.1 242.2 236.1 232.4 225.2 237.3"/>
      </g>
      <g id="ID000026">
        <polygon class="cls-4" points="252.6 232.9 241.5 232.9 241.5 241.6 252.6 241.6 252.6 232.9"/>
      </g>
      <g id="ID000027">
        <line class="cls-3" x1="223" y1="215.5" x2="256.5" y2="215.5"/>
      </g>
      <g id="ID000028">
        <polygon class="cls-4" points="226.9 219.8 238.1 219.8 238.1 211.1 226.9 211.1 226.9 219.8"/>
      </g>
      <g id="ID000029">
        <polygon class="cls-4" points="254.3 215.5 243.4 210.6 243.4 220.4 254.3 215.5"/>
      </g>
      <g id="ID000031">
        <g class="cls-1">
          <path class="cls-2" d="M218.15,198l2.64.52a6.88,6.88,0,0,1-3,3.86,9.8,9.8,0,0,1-5.27,1.33,11.67,11.67,0,0,1-5.24-1,7,7,0,0,1-3.07-3,8.61,8.61,0,0,1-1.06-4.16,7.58,7.58,0,0,1,1.19-4.24,7.47,7.47,0,0,1,3.39-2.74,12.15,12.15,0,0,1,4.84-.94,9.78,9.78,0,0,1,5,1.19,6.32,6.32,0,0,1,2.84,3.34l-2.6.47a4.88,4.88,0,0,0-2-2.47,6.55,6.55,0,0,0-3.32-.77,7.74,7.74,0,0,0-3.84.86,4.81,4.81,0,0,0-2.17,2.3,7.43,7.43,0,0,0-.63,3,7.7,7.7,0,0,0,.74,3.46,4.77,4.77,0,0,0,2.31,2.21,7.85,7.85,0,0,0,3.39.73,6.81,6.81,0,0,0,3.75-1A5,5,0,0,0,218.15,198Z"/>
        </g>
      </g>
      <g id="ID000032">
        <g class="cls-1">
          <path class="cls-5" d="M268.38,23V21.2h8.45V27a16.34,16.34,0,0,1-4,1.82,14.79,14.79,0,0,1-4.24.61,14.07,14.07,0,0,1-5.34-1,7.66,7.66,0,0,1-3.63-2.84,7.39,7.39,0,0,1-1.22-4.14,7.85,7.85,0,0,1,1.22-4.24,7.32,7.32,0,0,1,3.5-2.92,13.49,13.49,0,0,1,5.26-.95,13.2,13.2,0,0,1,3.91.54A6.71,6.71,0,0,1,275,15.37a6.19,6.19,0,0,1,1.51,2.55l-2.38.51A5.39,5.39,0,0,0,273,16.56a4.7,4.7,0,0,0-1.91-1.08,8.49,8.49,0,0,0-2.75-.41,10,10,0,0,0-3.12.43,6,6,0,0,0-2.13,1.13,5.3,5.3,0,0,0-1.26,1.53,6.58,6.58,0,0,0-.76,3.13,6.22,6.22,0,0,0,.92,3.48,5.47,5.47,0,0,0,2.67,2.08,10.29,10.29,0,0,0,3.73.68,11.15,11.15,0,0,0,3.34-.52,9.46,9.46,0,0,0,2.48-1.1V23Z"/>
        </g>
      </g>
      <g id="ID000033">
        <g class="cls-1">
          <path class="cls-5" d="M268.38,44.82V43h8.45v5.77a16.34,16.34,0,0,1-4,1.82,15.15,15.15,0,0,1-4.24.61,14.07,14.07,0,0,1-5.34-1,7.72,7.72,0,0,1-3.63-2.84,7.42,7.42,0,0,1-1.22-4.15A7.82,7.82,0,0,1,259.61,39a7.27,7.27,0,0,1,3.5-2.92,13.49,13.49,0,0,1,5.26-1,13.19,13.19,0,0,1,3.91.55A6.59,6.59,0,0,1,275,37.17a6.19,6.19,0,0,1,1.51,2.55l-2.38.51A5.3,5.3,0,0,0,273,38.36a4.71,4.71,0,0,0-1.91-1.09,8.77,8.77,0,0,0-2.75-.41,10.31,10.31,0,0,0-3.12.43,6.29,6.29,0,0,0-2.13,1.13A5.48,5.48,0,0,0,261.87,40a6.56,6.56,0,0,0-.76,3.13,6.26,6.26,0,0,0,.92,3.48,5.4,5.4,0,0,0,2.67,2.07,10.08,10.08,0,0,0,3.73.68,11.14,11.14,0,0,0,3.34-.51,9.46,9.46,0,0,0,2.48-1.1V44.82Z"/>
        </g>
      </g>
      <g id="ID000034">
        <g class="cls-1">
          <path class="cls-5" d="M274.05,67.26l2.64.52a6.87,6.87,0,0,1-3,3.86A9.85,9.85,0,0,1,268.44,73a11.68,11.68,0,0,1-5.25-1,7,7,0,0,1-3.07-3,8.64,8.64,0,0,1-1.05-4.17,7.5,7.5,0,0,1,1.19-4.24,7.39,7.39,0,0,1,3.38-2.74,12.15,12.15,0,0,1,4.84-.94,9.88,9.88,0,0,1,5,1.19,6.32,6.32,0,0,1,2.84,3.34l-2.6.47a4.88,4.88,0,0,0-2-2.47,6.55,6.55,0,0,0-3.32-.77,7.85,7.85,0,0,0-3.84.86,4.79,4.79,0,0,0-2.17,2.31,7.37,7.37,0,0,0-.62,3,7.54,7.54,0,0,0,.74,3.46,4.71,4.71,0,0,0,2.3,2.21,7.85,7.85,0,0,0,3.39.73,6.76,6.76,0,0,0,3.75-1A4.93,4.93,0,0,0,274.05,67.26Z"/>
        </g>
      </g>
      <g id="ID000035">
        <g class="cls-1">
          <path class="cls-5" d="M272.91,79h2.64v9a8.55,8.55,0,0,1-.68,3.72,5.1,5.1,0,0,1-2.46,2.25,10.75,10.75,0,0,1-4.65.86,12,12,0,0,1-4.59-.75,4.94,4.94,0,0,1-2.54-2.18,8.31,8.31,0,0,1-.76-3.9V79h2.64v9a7,7,0,0,0,.48,3,3.15,3.15,0,0,0,1.66,1.47,7,7,0,0,0,2.87.52,6.57,6.57,0,0,0,4.15-1c.83-.69,1.24-2,1.24-4Z"/>
        </g>
      </g>
      <g id="ID000036">
        <g class="cls-1">
          <path class="cls-5" d="M272.91,100.76h2.64v9a8.55,8.55,0,0,1-.68,3.72,5,5,0,0,1-2.46,2.24,10.6,10.6,0,0,1-4.65.87,11.76,11.76,0,0,1-4.59-.76,4.85,4.85,0,0,1-2.54-2.18,8.27,8.27,0,0,1-.76-3.89v-9h2.64v9a7,7,0,0,0,.48,3,3.17,3.17,0,0,0,1.66,1.48,7,7,0,0,0,2.87.52,6.5,6.5,0,0,0,4.15-1c.83-.68,1.24-2,1.24-4Z"/>
        </g>
      </g>
      <g id="ID000037">
        <g class="cls-1">
          <path class="cls-5" d="M314.3,94.5,322,79h2.84L333,94.5h-3l-2.33-4.7h-8.34l-2.18,4.7Zm5.76-6.38h6.75l-2.08-4.3c-.63-1.31-1.1-2.38-1.41-3.23a16.29,16.29,0,0,1-1.07,3Z"/>
        </g>
      </g>
      <g id="ID000038">
        <g class="cls-1">
          <path class="cls-5" d="M324.28,66.61V64.79h8.44v5.77a16.3,16.3,0,0,1-4,1.81,14.79,14.79,0,0,1-4.24.61,13.88,13.88,0,0,1-5.34-1,7.7,7.7,0,0,1-3.63-2.83A7.42,7.42,0,0,1,314.28,65a7.91,7.91,0,0,1,1.22-4.23,7.29,7.29,0,0,1,3.5-2.93,13.67,13.67,0,0,1,5.26-1,12.87,12.87,0,0,1,3.91.55A6.59,6.59,0,0,1,330.91,59a6.21,6.21,0,0,1,1.51,2.54L330,62a5.34,5.34,0,0,0-1.11-1.86A4.6,4.6,0,0,0,327,59.07a8.76,8.76,0,0,0-2.74-.41,10,10,0,0,0-3.13.43A6.12,6.12,0,0,0,319,60.22a5.48,5.48,0,0,0-1.26,1.54,6.54,6.54,0,0,0-.76,3.12,6.22,6.22,0,0,0,.92,3.48,5.41,5.41,0,0,0,2.67,2.08,10.29,10.29,0,0,0,3.73.68,10.84,10.84,0,0,0,3.34-.52,9.34,9.34,0,0,0,2.48-1.09v-2.9Z"/>
        </g>
      </g>
      <g id="ID000039">
        <g class="cls-1">
          <path class="cls-5" d="M330,45.46l2.63.52a6.89,6.89,0,0,1-3,3.87,9.91,9.91,0,0,1-5.27,1.33,11.47,11.47,0,0,1-5.24-1,7.05,7.05,0,0,1-3.08-3A8.61,8.61,0,0,1,315,43a7.54,7.54,0,0,1,1.19-4.23A7.39,7.39,0,0,1,319.54,36a12.24,12.24,0,0,1,4.83-.94,9.85,9.85,0,0,1,5,1.19,6.32,6.32,0,0,1,2.84,3.34l-2.59.48a4.9,4.9,0,0,0-2-2.47,6.41,6.41,0,0,0-3.31-.78,7.86,7.86,0,0,0-3.85.86A4.88,4.88,0,0,0,318.3,40a7.54,7.54,0,0,0-.62,3,7.71,7.71,0,0,0,.74,3.47,4.78,4.78,0,0,0,2.31,2.21,8,8,0,0,0,3.38.73,6.74,6.74,0,0,0,3.76-1A5,5,0,0,0,330,45.46Z"/>
        </g>
      </g>
      <g id="ID000040">
        <g class="cls-1">
          <path class="cls-5" d="M314.3,29.12,322,13.57h2.84L333,29.12h-3l-2.33-4.71h-8.34l-2.18,4.71Zm5.76-6.39h6.75l-2.08-4.3c-.63-1.31-1.1-2.38-1.41-3.22a16.47,16.47,0,0,1-1.07,3Z"/>
        </g>
      </g>
      <g id="ID000041">
        <polyline class="cls-6" points="211.8 185 211.1 19.3 256.5 19.3"/>
      </g>
      <g id="ID000042">
        <polygon class="cls-7" points="224.5 12.8 229.2 16.1 233.8 17.1 238.5 17.7 247.8 19.3 238.5 21 233.8 21.5 229.2 22.6 224.5 25.9 224.5 12.8"/>
      </g>
      <g id="ID000043">
        <line class="cls-3" x1="223" y1="193.7" x2="256.5" y2="193.7"/>
      </g>
      <g id="ID000044">
        <polygon class="cls-7" points="245.4 193.7 245.4 193.4 245.3 193.1 245.3 192.9 245.2 192.6 245.1 192.3 245 192.1 244.8 191.8 244.7 191.6 244.5 191.3 244.3 191.1 244.1 190.9 243.8 190.7 243.6 190.5 243.3 190.3 243 190.1 242.7 190 242.4 189.8 242.1 189.7 241.8 189.6 241.4 189.5 241.1 189.4 240.7 189.4 240.4 189.3 240 189.3 239.7 189.3 239.3 189.3 239 189.4 238.6 189.4 238.3 189.5 237.9 189.6 237.6 189.7 237.3 189.8 237 189.9 236.7 190 236.4 190.2 236.1 190.4 235.9 190.6 235.6 190.8 235.4 191 235.2 191.2 235 191.4 234.8 191.7 234.7 191.9 234.5 192.2 234.4 192.4 234.3 192.7 234.3 193 234.2 193.3 234.2 193.5 234.2 193.8 234.2 194.1 234.3 194.4 234.3 194.6 234.4 194.9 234.5 195.2 234.7 195.4 234.8 195.7 235 195.9 235.2 196.1 235.4 196.4 235.6 196.6 235.9 196.8 236.1 197 236.4 197.1 236.7 197.3 237 197.5 237.3 197.6 237.6 197.7 237.9 197.8 238.3 197.9 238.6 197.9 239 198 239.3 198 239.7 198 240 198 240.4 198 240.7 198 241.1 197.9 241.4 197.8 241.8 197.7 242.1 197.6 242.4 197.5 242.7 197.4 243 197.2 243.3 197.1 243.6 196.9 243.8 196.7 244.1 196.5 244.3 196.3 244.5 196 244.7 195.8 244.8 195.5 245 195.3 245.1 195 245.2 194.8 245.3 194.5 245.3 194.2 245.4 194 245.4 193.7"/>
      </g>
      <g id="ID000045">
        <line class="cls-3" x1="271.9" y1="27.4" x2="319.5" y2="120.2"/>
      </g>
      <g id="ID000046">
        <polygon class="cls-7" points="290.9 64.5 290.6 64.6 290.3 64.7 290 64.9 289.7 65 289.4 65.2 289.1 65.4 288.9 65.6 288.6 65.8 288.4 66 288.2 66.2 288 66.5 287.9 66.7 287.7 67 287.6 67.2 287.5 67.5 287.5 67.8 287.4 68.1 287.4 68.3 287.4 68.6 287.4 68.9 287.4 69.2 287.5 69.4 287.6 69.7 287.7 70 287.8 70.2 288 70.5 288.1 70.7 288.3 71 288.5 71.2 288.8 71.4 289 71.6 289.2 71.8 289.5 72 289.8 72.1 290.1 72.3 290.4 72.4 290.7 72.5 291.1 72.6 291.4 72.7 291.7 72.8 292.1 72.9 292.4 72.9 292.8 72.9 293.1 72.9 293.5 72.9 293.9 72.9 294.2 72.8 294.5 72.7 294.9 72.6 295.2 72.5 295.5 72.4 295.8 72.3 296.1 72.1 296.4 72 296.7 71.8 297 71.6 297.2 71.4 297.4 71.2 297.6 71 297.8 70.7 298 70.5 298.1 70.2 298.3 70 298.4 69.7 298.4 69.4 298.5 69.2 298.5 68.9 298.6 68.6 298.6 68.3 298.5 68.1 298.5 67.8 298.4 67.5 298.3 67.2 298.2 67 298.1 66.7 297.9 66.5 297.7 66.3 297.5 66 297.3 65.8 297.1 65.6 296.8 65.4 296.6 65.2 296.3 65 296 64.9 295.7 64.7 295.4 64.6 295 64.5 294.7 64.4 294.4 64.3 294 64.3 293.7 64.2 293.3 64.2 293 64.2 292.6 64.2 292.3 64.2 291.9 64.3 291.6 64.3 291.2 64.4 290.9 64.5"/>
      </g>
      <g id="ID000047">
        <polygon class="cls-7" points="305.6 81.5 301.5 73.4 291.1 76.6 295.3 84.7 305.6 81.5"/>
      </g>
      <g id="ID000048">
        <line class="cls-3" x1="278.9" y1="41.1" x2="312.4" y2="41.1"/>
      </g>
      <g id="ID000049">
        <line class="cls-3" x1="278.9" y1="62.9" x2="312.4" y2="62.9"/>
      </g>
      <g id="ID000050">
        <line class="cls-3" x1="278.9" y1="84.7" x2="312.4" y2="84.7"/>
      </g>
      <g id="ID000051">
        <line class="cls-6" x1="323.6" y1="119.6" x2="323.6" y2="93.4"/>
      </g>
      <g id="ID000052">
        <polygon class="cls-7" points="315.2 113.8 319.4 110.1 320.8 106.5 321.5 102.9 323.6 95.6 325.7 102.9 326.4 106.5 327.8 110.1 332 113.8 315.2 113.8"/>
      </g>
      <g id="ID000054">
        <g class="cls-1">
          <path class="cls-5" d="M274.05,132.64l2.64.52a6.87,6.87,0,0,1-3,3.86,9.85,9.85,0,0,1-5.27,1.33,11.68,11.68,0,0,1-5.25-1,7,7,0,0,1-3.07-3,8.66,8.66,0,0,1-1.05-4.17,7.5,7.5,0,0,1,1.19-4.24,7.39,7.39,0,0,1,3.38-2.74,12.15,12.15,0,0,1,4.84-.94,9.88,9.88,0,0,1,5,1.19,6.32,6.32,0,0,1,2.84,3.34l-2.6.47a4.88,4.88,0,0,0-2-2.47,6.55,6.55,0,0,0-3.32-.77,7.85,7.85,0,0,0-3.84.86,4.81,4.81,0,0,0-2.17,2.3,7.42,7.42,0,0,0-.62,3,7.57,7.57,0,0,0,.74,3.46,4.71,4.71,0,0,0,2.3,2.21,7.85,7.85,0,0,0,3.39.73,6.76,6.76,0,0,0,3.75-1A4.93,4.93,0,0,0,274.05,132.64Z"/>
        </g>
      </g>
      <g id="ID000055">
        <g class="cls-1">
          <path class="cls-5" d="M274.05,154.43l2.64.52a6.93,6.93,0,0,1-3,3.87,9.85,9.85,0,0,1-5.27,1.33,11.68,11.68,0,0,1-5.25-1,7,7,0,0,1-3.07-3,8.6,8.6,0,0,1-1.05-4.16,7.25,7.25,0,0,1,4.57-7,12.32,12.32,0,0,1,4.84-.93,9.88,9.88,0,0,1,5,1.18,6.36,6.36,0,0,1,2.84,3.34l-2.6.48a4.88,4.88,0,0,0-2-2.47,6.45,6.45,0,0,0-3.32-.77,7.85,7.85,0,0,0-3.84.85,4.88,4.88,0,0,0-2.17,2.31,7.37,7.37,0,0,0-.62,3,7.58,7.58,0,0,0,.74,3.47,4.75,4.75,0,0,0,2.3,2.21,7.85,7.85,0,0,0,3.39.73,6.68,6.68,0,0,0,3.75-1A4.9,4.9,0,0,0,274.05,154.43Z"/>
        </g>
      </g>
      <g id="ID000056">
        <g class="cls-1">
          <path class="cls-5" d="M272.91,166.14h2.64v9a8.55,8.55,0,0,1-.68,3.72,5.08,5.08,0,0,1-2.46,2.24,10.6,10.6,0,0,1-4.65.87,12,12,0,0,1-4.59-.76,4.9,4.9,0,0,1-2.54-2.18,8.3,8.3,0,0,1-.76-3.89v-9h2.64v9a7,7,0,0,0,.48,3,3.21,3.21,0,0,0,1.66,1.48,7,7,0,0,0,2.87.52,6.5,6.5,0,0,0,4.15-1c.83-.68,1.24-2,1.24-3.95Z"/>
        </g>
      </g>
      <g id="ID000057">
        <g class="cls-1">
          <path class="cls-2" d="M268.38,197.38v-1.82h8.45v5.76a16,16,0,0,1-4,1.82,14.79,14.79,0,0,1-4.24.61,13.88,13.88,0,0,1-5.34-1,7.66,7.66,0,0,1-3.63-2.84,7.37,7.37,0,0,1-1.22-4.14,7.85,7.85,0,0,1,1.22-4.24,7.32,7.32,0,0,1,3.5-2.92,13.67,13.67,0,0,1,5.26-1,13.2,13.2,0,0,1,3.91.54,6.71,6.71,0,0,1,2.74,1.53,6.15,6.15,0,0,1,1.51,2.54l-2.38.51a5.48,5.48,0,0,0-1.11-1.87,4.7,4.7,0,0,0-1.91-1.08,8.49,8.49,0,0,0-2.75-.41,10,10,0,0,0-3.12.43,6,6,0,0,0-2.13,1.13,5.44,5.44,0,0,0-1.26,1.53,6.61,6.61,0,0,0-.76,3.13,6.22,6.22,0,0,0,.92,3.48,5.47,5.47,0,0,0,2.67,2.08,10.29,10.29,0,0,0,3.73.68,11.15,11.15,0,0,0,3.34-.52,9.46,9.46,0,0,0,2.48-1.1v-2.89Z"/>
        </g>
      </g>
      <g id="ID000058">
        <g class="cls-1">
          <path class="cls-5" d="M314.3,225.26,322,209.72h2.84L333,225.26h-3l-2.33-4.71h-8.34l-2.18,4.71Zm5.76-6.38h6.75l-2.08-4.31c-.63-1.3-1.1-2.38-1.41-3.22a16.29,16.29,0,0,1-1.07,3Z"/>
        </g>
      </g>
      <g id="ID000059">
        <g class="cls-1">
          <path class="cls-5" d="M328.8,187.93h2.64v9a8.49,8.49,0,0,1-.68,3.72,5.07,5.07,0,0,1-2.45,2.25,10.83,10.83,0,0,1-4.66.86,11.87,11.87,0,0,1-4.58-.75,4.92,4.92,0,0,1-2.55-2.18,8.44,8.44,0,0,1-.76-3.9v-9h2.64v9a7,7,0,0,0,.48,3,3.29,3.29,0,0,0,1.66,1.48,7.27,7.27,0,0,0,2.88.52,6.59,6.59,0,0,0,4.15-1q1.23-1,1.23-4Z"/>
        </g>
      </g>
      <g id="ID000060">
        <g class="cls-1">
          <path class="cls-5" d="M328.8,166.14h2.64v9a8.55,8.55,0,0,1-.68,3.72,5.06,5.06,0,0,1-2.45,2.24,10.67,10.67,0,0,1-4.66.87,11.86,11.86,0,0,1-4.58-.76,4.92,4.92,0,0,1-2.55-2.18,8.42,8.42,0,0,1-.76-3.89v-9h2.64v9a7,7,0,0,0,.48,3,3.29,3.29,0,0,0,1.66,1.48,7.09,7.09,0,0,0,2.88.52,6.52,6.52,0,0,0,4.15-1c.82-.68,1.23-2,1.23-3.95Z"/>
        </g>
      </g>
      <g id="ID000061">
        <g class="cls-1">
          <path class="cls-5" d="M324.28,153.79V152h8.44v5.77a16.34,16.34,0,0,1-4,1.82,14.79,14.79,0,0,1-4.24.61,14.07,14.07,0,0,1-5.34-1,7.72,7.72,0,0,1-3.63-2.84,7.39,7.39,0,0,1-1.22-4.14A7.91,7.91,0,0,1,315.5,148,7.32,7.32,0,0,1,319,145a13.49,13.49,0,0,1,5.26-.95,13.2,13.2,0,0,1,3.91.54,6.71,6.71,0,0,1,2.74,1.52,6.19,6.19,0,0,1,1.51,2.55l-2.38.51a5.3,5.3,0,0,0-1.11-1.87,4.83,4.83,0,0,0-1.91-1.09,8.76,8.76,0,0,0-2.74-.4,10.36,10.36,0,0,0-3.13.42,6.29,6.29,0,0,0-2.13,1.13,5.48,5.48,0,0,0-1.26,1.54,6.58,6.58,0,0,0-.76,3.13,6.26,6.26,0,0,0,.92,3.48,5.4,5.4,0,0,0,2.67,2.07,10.08,10.08,0,0,0,3.73.68,11.14,11.14,0,0,0,3.34-.51,9.31,9.31,0,0,0,2.48-1.1v-2.89Z"/>
        </g>
      </g>
      <g id="ID000062">
        <g class="cls-1">
          <path class="cls-5" d="M324.28,132v-1.82h8.44v5.76a16,16,0,0,1-4,1.82,14.79,14.79,0,0,1-4.24.61,13.88,13.88,0,0,1-5.34-1,7.7,7.7,0,0,1-3.63-2.83,7.42,7.42,0,0,1-1.22-4.15,8,8,0,0,1,1.22-4.24,7.32,7.32,0,0,1,3.5-2.92,13.67,13.67,0,0,1,5.26-1,12.87,12.87,0,0,1,3.91.55,6.59,6.59,0,0,1,2.74,1.52,6.21,6.21,0,0,1,1.51,2.54l-2.38.51a5.48,5.48,0,0,0-1.11-1.87,4.7,4.7,0,0,0-1.91-1.08,8.76,8.76,0,0,0-2.74-.41,10,10,0,0,0-3.13.43A6,6,0,0,0,319,125.6a5.34,5.34,0,0,0-1.26,1.54,6.54,6.54,0,0,0-.76,3.12,6.22,6.22,0,0,0,.92,3.48,5.41,5.41,0,0,0,2.67,2.08,10.29,10.29,0,0,0,3.73.68,10.84,10.84,0,0,0,3.34-.52,9.67,9.67,0,0,0,2.48-1.09V132Z"/>
        </g>
      </g>
      <g id="ID000063">
        <line class="cls-3" x1="278.9" y1="128.3" x2="312.4" y2="128.3"/>
      </g>
      <g id="ID000064">
        <line class="cls-3" x1="278.9" y1="150.1" x2="312.4" y2="150.1"/>
      </g>
    </g>
  </g>
  <g class="cls-1">
    <path class="cls-5" d="M369,108.11v-15h5.67a14.49,14.49,0,0,1,2.29.14,4.72,4.72,0,0,1,1.86.7,3.72,3.72,0,0,1,1.2,1.46,4.87,4.87,0,0,1-.76,5.29c-.82.89-2.29,1.33-4.41,1.33h-3.86v6.11Zm2-7.88h3.89a4.13,4.13,0,0,0,2.74-.72,2.56,2.56,0,0,0,.81-2,2.72,2.72,0,0,0-.48-1.62,2.25,2.25,0,0,0-1.26-.88,8.22,8.22,0,0,0-1.85-.14h-3.85Z"/>
    <path class="cls-5" d="M382.88,108.11v-15h2v7.45l7.46-7.45H395l-6.31,6.09,6.58,8.94h-2.62l-5.35-7.61-2.46,2.4v5.21Z"/>
  </g>
  <g class="cls-1">
    <path class="cls-2" d="M297.22,334.23V318.81h5.41a11.93,11.93,0,0,1,2.18.15,3.94,3.94,0,0,1,1.77.72,3.66,3.66,0,0,1,1.15,1.49,5,5,0,0,1,.44,2.1A4.94,4.94,0,0,1,307,326.6c-.77.91-2.18,1.36-4.2,1.36h-3.68v6.27Zm1.9-8.09h3.71a3.75,3.75,0,0,0,2.61-.73,2.76,2.76,0,0,0,.77-2.08,3,3,0,0,0-.45-1.65,2.15,2.15,0,0,0-1.2-.91,7,7,0,0,0-1.77-.14h-3.67Z"/>
    <path class="cls-2" d="M316.5,334.23h-1.76V322.17a9.33,9.33,0,0,1-1.67,1.3,11.29,11.29,0,0,1-1.85,1v-1.83a10.74,10.74,0,0,0,2.58-1.81,7,7,0,0,0,1.56-2.06h1.14Z"/>
  </g>
  <g class="cls-1">
    <path d="M195.75,394.22l1.49-.14a3.16,3.16,0,0,0,.76,1.82,2,2,0,0,0,1.45.61,2.16,2.16,0,0,0,1.73-.86,3.52,3.52,0,0,0,.71-2.29,3.15,3.15,0,0,0-.68-2.13,2.41,2.41,0,0,0-3-.44,2.5,2.5,0,0,0-.87.9L196,391.5l1.11-6.62h5.73v1.51h-4.6l-.62,3.47a3.49,3.49,0,0,1,2.18-.81,3.27,3.27,0,0,1,2.54,1.17,4.36,4.36,0,0,1,1,3,5.06,5.06,0,0,1-.91,3,3.77,3.77,0,0,1-5.59.58A4.09,4.09,0,0,1,195.75,394.22Z"/>
    <path d="M205,386.41v-1.84h1.52V386a4.12,4.12,0,0,1-.25,1.7,2.18,2.18,0,0,1-1.05,1.07l-.35-.62a1.27,1.27,0,0,0,.64-.61,2.88,2.88,0,0,0,.23-1.15Z"/>
  </g>
  <g class="cls-1">
    <path d="M275,394.19l1.41-.21a3.65,3.65,0,0,0,.83,1.94,2,2,0,0,0,1.43.59,2.18,2.18,0,0,0,1.68-.77,2.79,2.79,0,0,0,.69-1.92,2.58,2.58,0,0,0-.64-1.8,2.07,2.07,0,0,0-1.62-.7,3.47,3.47,0,0,0-1,.17l.15-1.39.23,0a2.72,2.72,0,0,0,1.63-.53,1.87,1.87,0,0,0,.72-1.62,2,2,0,0,0-.53-1.44,1.73,1.73,0,0,0-1.36-.58,1.85,1.85,0,0,0-1.37.58,3.11,3.11,0,0,0-.71,1.74l-1.41-.28a4.14,4.14,0,0,1,1.18-2.46,3.19,3.19,0,0,1,2.28-.88,3.38,3.38,0,0,1,1.74.46,3,3,0,0,1,1.21,1.23A3.47,3.47,0,0,1,282,388a2.9,2.9,0,0,1-.4,1.52,2.78,2.78,0,0,1-1.18,1.09,2.62,2.62,0,0,1,1.58,1.1,3.57,3.57,0,0,1,.57,2.08,4.06,4.06,0,0,1-1.1,2.86,3.65,3.65,0,0,1-2.78,1.17,3.42,3.42,0,0,1-2.52-1A4.08,4.08,0,0,1,275,394.19Z"/>
    <path d="M284.24,386.41v-1.84h1.51V386a4.33,4.33,0,0,1-.24,1.7,2.27,2.27,0,0,1-1.05,1.07l-.35-.62a1.29,1.29,0,0,0,.63-.61,2.71,2.71,0,0,0,.23-1.15Z"/>
  </g>
  <g class="cls-1">
    <path d="M337.69,243.68l1.54-.14a3.11,3.11,0,0,0,.8,1.83,2.12,2.12,0,0,0,1.51.61,2.29,2.29,0,0,0,1.79-.86,3.42,3.42,0,0,0,.74-2.29,3.06,3.06,0,0,0-.71-2.13,2.34,2.34,0,0,0-1.85-.79,2.44,2.44,0,0,0-1.28.35,2.59,2.59,0,0,0-.9.9L338,241l1.16-6.62h6v1.51h-4.78l-.65,3.46a3.78,3.78,0,0,1,2.26-.8,3.49,3.49,0,0,1,2.65,1.16,4.27,4.27,0,0,1,1.08,3,4.92,4.92,0,0,1-.95,3,4,4,0,0,1-5.81.58A3.93,3.93,0,0,1,337.69,243.68Z"/>
  </g>
  <g class="cls-1">
    <path d="M347.58,235.59V233.7h1.62v1.49a4.27,4.27,0,0,1-.26,1.74,2.39,2.39,0,0,1-1.12,1.1l-.37-.64a1.33,1.33,0,0,0,.67-.63,2.79,2.79,0,0,0,.25-1.17Z"/>
  </g>
  <g class="cls-1">
    <path d="M342.51,15.91,344,15.7a3.55,3.55,0,0,0,.87,1.94,2,2,0,0,0,1.48.59,2.28,2.28,0,0,0,1.75-.77,2.68,2.68,0,0,0,.71-1.91,2.49,2.49,0,0,0-.66-1.8,2.2,2.2,0,0,0-1.68-.71,3.9,3.9,0,0,0-1,.18l.17-1.39.23,0a2.87,2.87,0,0,0,1.69-.53,1.84,1.84,0,0,0,.76-1.63,2,2,0,0,0-.55-1.44,2,2,0,0,0-2.84,0,3,3,0,0,0-.74,1.74l-1.47-.28a4.19,4.19,0,0,1,1.23-2.47,3.38,3.38,0,0,1,2.37-.87,3.71,3.71,0,0,1,1.81.45,3.07,3.07,0,0,1,1.26,1.24,3.35,3.35,0,0,1,.44,1.66,2.88,2.88,0,0,1-.42,1.52,3,3,0,0,1-1.23,1.09,2.73,2.73,0,0,1,1.65,1.09,3.55,3.55,0,0,1,.59,2.08,4,4,0,0,1-1.15,2.86,3.86,3.86,0,0,1-2.89,1.17,3.6,3.6,0,0,1-2.62-1A4,4,0,0,1,342.51,15.91Z"/>
  </g>
  <g class="cls-1">
    <path d="M352.4,7.84V6H354V7.45a4.34,4.34,0,0,1-.26,1.74,2.41,2.41,0,0,1-1.13,1.1l-.37-.64a1.31,1.31,0,0,0,.68-.63,2.84,2.84,0,0,0,.25-1.18Z"/>
  </g>
  <g id="ID000013-2-4">
    <g class="cls-1">
      <path d="M192.12,367.88v-1h5.22v.82a11.5,11.5,0,0,0-1.52,2.32,14,14,0,0,0-1.17,3,11.2,11.2,0,0,0-.38,2.36h-1a11,11,0,0,1,.38-2.45,13.17,13.17,0,0,1,1-2.77,12.3,12.3,0,0,1,1.42-2.25Z"/>
    </g>
  </g>
  <g id="ID000013-2-4-2">
    <g class="cls-1">
      <path d="M287.08,263.49v1h-5.33a1.81,1.81,0,0,1,.12-.73,3.83,3.83,0,0,1,.65-1.15,11.89,11.89,0,0,1,1.29-1.3,11,11,0,0,0,1.78-1.82,2.22,2.22,0,0,0,.46-1.26,1.45,1.45,0,0,0-1.52-1.49,1.51,1.51,0,0,0-1.14.45,1.78,1.78,0,0,0-.43,1.27l-1-.11a2.76,2.76,0,0,1,.78-1.85,2.62,2.62,0,0,1,1.84-.64,2.44,2.44,0,0,1,1.83.69,2.33,2.33,0,0,1,.68,1.7,2.75,2.75,0,0,1-.2,1,3.91,3.91,0,0,1-.66,1.05,15.28,15.28,0,0,1-1.52,1.51c-.6.53-1,.89-1.15,1.08a4.47,4.47,0,0,0-.42.58Z"/>
      <path d="M288.21,257v-1h5.22v.82a11.79,11.79,0,0,0-1.53,2.32,15.36,15.36,0,0,0-1.17,3,11.88,11.88,0,0,0-.38,2.36h-1a11.67,11.67,0,0,1,.38-2.45,13.2,13.2,0,0,1,1-2.77,11.31,11.31,0,0,1,1.42-2.25Z"/>
    </g>
  </g>
  <g id="ID000013-2-4-3">
    <g class="cls-1">
      <path d="M338.08,221.36v-2.05h-3.76v-1l4-5.57h.87v5.57h1.17v1h-1.17v2.05Zm0-3v-3.87l-2.72,3.87Z"/>
      <path d="M341.41,219.1l1.07-.14a2.37,2.37,0,0,0,.62,1.29,1.58,1.58,0,0,0,1.08.39,1.74,1.74,0,0,0,1.78-1.79,1.63,1.63,0,0,0-.48-1.2,1.67,1.67,0,0,0-1.22-.47,3,3,0,0,0-.75.12l.12-.93h.17A2.16,2.16,0,0,0,345,216a1.19,1.19,0,0,0,.54-1.08,1.27,1.27,0,0,0-.39-1,1.41,1.41,0,0,0-1-.38,1.43,1.43,0,0,0-1,.38,1.94,1.94,0,0,0-.54,1.16l-1.06-.19a2.68,2.68,0,0,1,.89-1.64,2.56,2.56,0,0,1,1.72-.58,2.9,2.9,0,0,1,1.31.3,2.27,2.27,0,0,1,.91.82,2.13,2.13,0,0,1,.32,1.11,1.79,1.79,0,0,1-.3,1,2.07,2.07,0,0,1-.9.73,2.07,2.07,0,0,1,1.2.73,2.23,2.23,0,0,1,.42,1.39,2.48,2.48,0,0,1-.83,1.9,2.93,2.93,0,0,1-2.09.79,2.77,2.77,0,0,1-1.9-.68A2.6,2.6,0,0,1,341.41,219.1Z"/>
    </g>
  </g>
  <g id="ID000013-2-4-4">
    <g class="cls-1">
      <path d="M337.5,44.83l1.12-.1a2,2,0,0,0,.57,1.22,1.61,1.61,0,0,0,1.1.41,1.7,1.7,0,0,0,1.3-.58,2.16,2.16,0,0,0,.53-1.52,1.93,1.93,0,0,0-.51-1.42,1.94,1.94,0,0,0-2.27-.29,1.64,1.64,0,0,0-.65.6l-1-.13.84-4.41h4.31v1h-3.46l-.47,2.31a2.84,2.84,0,0,1,1.64-.54,2.61,2.61,0,0,1,1.92.78,2.72,2.72,0,0,1,.78,2,3.08,3.08,0,0,1-.69,2,2.73,2.73,0,0,1-2.27,1,2.83,2.83,0,0,1-1.94-.66A2.55,2.55,0,0,1,337.5,44.83Z"/>
      <path d="M344.24,42.84a7.86,7.86,0,0,1,.31-2.45A3.06,3.06,0,0,1,345.5,39a2.39,2.39,0,0,1,1.57-.51,2.64,2.64,0,0,1,1.22.28,2.47,2.47,0,0,1,.87.8,4.29,4.29,0,0,1,.54,1.28,8.38,8.38,0,0,1,.2,2,7.75,7.75,0,0,1-.32,2.44,3.05,3.05,0,0,1-.94,1.44,2.39,2.39,0,0,1-1.57.51,2.36,2.36,0,0,1-2-.9A5.54,5.54,0,0,1,344.24,42.84Zm1.09,0a5.4,5.4,0,0,0,.5,2.82,1.51,1.51,0,0,0,1.24.7,1.47,1.47,0,0,0,1.23-.71,5.34,5.34,0,0,0,.5-2.81,5.4,5.4,0,0,0-.5-2.82,1.49,1.49,0,0,0-1.25-.69,1.38,1.38,0,0,0-1.17.61A5.48,5.48,0,0,0,345.33,42.84Z"/>
    </g>
  </g>
  <path class="cls-8" d="M312.6,180.3c0,7.4-7.5,13.3-16.9,13.3s-16.9-6-16.9-13.3,7.5-13.3,16.9-13.3S312.6,172.9,312.6,180.3Z"/>
  <g class="cls-1">
    <path class="cls-9" d="M284.05,181l1.07-.12a3.34,3.34,0,0,0,.36,1.32,2,2,0,0,0,.86.84,2.74,2.74,0,0,0,1.32.32,2.63,2.63,0,0,0,1.15-.24,1.62,1.62,0,0,0,.74-.67,1.83,1.83,0,0,0,.24-.92,1.58,1.58,0,0,0-.23-.88,1.79,1.79,0,0,0-.77-.64,15.06,15.06,0,0,0-1.53-.52,6.81,6.81,0,0,1-1.66-.67,2.61,2.61,0,0,1-.92-1,2.91,2.91,0,0,1-.3-1.34,3.19,3.19,0,0,1,.37-1.52,2.38,2.38,0,0,1,1.08-1.07,3.28,3.28,0,0,1,1.57-.37,3.66,3.66,0,0,1,1.69.38,2.68,2.68,0,0,1,1.12,1.14,3.87,3.87,0,0,1,.42,1.69l-1.09.11a2.42,2.42,0,0,0-.59-1.54,2.48,2.48,0,0,0-3,0,1.53,1.53,0,0,0-.48,1.14,1.38,1.38,0,0,0,.34,1,4,4,0,0,0,1.71.77,9.38,9.38,0,0,1,1.91.69,2.81,2.81,0,0,1,1.1,1.09,3.2,3.2,0,0,1,.36,1.53,3.46,3.46,0,0,1-.39,1.62,2.88,2.88,0,0,1-1.13,1.19,3.28,3.28,0,0,1-1.66.42,4,4,0,0,1-1.95-.43,3,3,0,0,1-1.24-1.28A4.2,4.2,0,0,1,284.05,181Z"/>
    <path class="cls-9" d="M291.5,184.42l3.3-10.76H296l3.51,10.76h-1.29l-1-3.26h-3.6l-.94,3.26ZM294,180h2.91l-.89-3c-.28-.9-.48-1.64-.61-2.23a16.56,16.56,0,0,1-.47,2.06Z"/>
    <path class="cls-9" d="M300.42,184.42V173.66h1.71l2,7.62c.19.71.33,1.24.41,1.6.1-.4.25-1,.46-1.73l2.06-7.49h1.53v10.76h-1.1v-9l-2.49,9h-1l-2.49-9.16v9.16Z"/>
  </g>
  <g class="cls-1">
    <path d="M7.18,14.69,9,14.54a3.9,3.9,0,0,0,.59,1.76A3.2,3.2,0,0,0,11,17.41a5.5,5.5,0,0,0,2.2.43,5.13,5.13,0,0,0,1.91-.33,2.59,2.59,0,0,0,1.23-.88,2,2,0,0,0,.41-1.23,1.85,1.85,0,0,0-.39-1.17,2.87,2.87,0,0,0-1.29-.85,23.71,23.71,0,0,0-2.55-.69,13.3,13.3,0,0,1-2.76-.9,3.88,3.88,0,0,1-1.53-1.33,3.23,3.23,0,0,1-.5-1.78,3.63,3.63,0,0,1,.61-2,3.76,3.76,0,0,1,1.8-1.43,6.74,6.74,0,0,1,2.63-.49,7.17,7.17,0,0,1,2.8.51,4.1,4.1,0,0,1,1.87,1.51A4.4,4.4,0,0,1,18.15,9l-1.82.14a3,3,0,0,0-1-2.06,3.88,3.88,0,0,0-2.5-.69,4,4,0,0,0-2.5.63,1.91,1.91,0,0,0-.79,1.52,1.64,1.64,0,0,0,.56,1.27,7.6,7.6,0,0,0,2.86,1,18.91,18.91,0,0,1,3.16.91A4.37,4.37,0,0,1,18,13.21a3.55,3.55,0,0,1,.6,2,3.85,3.85,0,0,1-.66,2.15A4.19,4.19,0,0,1,16,19a6.42,6.42,0,0,1-2.76.57A8.16,8.16,0,0,1,10,19,4.55,4.55,0,0,1,8,17.27,4.87,4.87,0,0,1,7.18,14.69Z"/>
    <path d="M19.59,19.29,25.09,5h2L33,19.29H30.83L29.16,15h-6L21.6,19.29Zm4.13-5.88h4.86l-1.5-4c-.45-1.21-.79-2.2-1-3a18,18,0,0,1-.78,2.73Z"/>
    <path d="M34.45,19.29V5H37.3l3.39,10.13c.31.95.54,1.65.68,2.12.16-.52.42-1.29.76-2.29L45.56,5h2.55V19.29H46.28v-12l-4.16,12H40.41L36.27,7.1V19.29Z"/>
    <path d="M49.62,19.54,53.77,4.73h1.41L51,19.54Z"/>
    <path d="M56.08,14.69l1.78-.15a4.16,4.16,0,0,0,.59,1.76,3.2,3.2,0,0,0,1.44,1.11,5.57,5.57,0,0,0,2.2.43A5.22,5.22,0,0,0,64,17.51a2.65,2.65,0,0,0,1.23-.88,2,2,0,0,0,.41-1.23,1.85,1.85,0,0,0-.39-1.17A2.87,2.87,0,0,0,64,13.38a25.23,25.23,0,0,0-2.55-.69,13.23,13.23,0,0,1-2.77-.9,3.85,3.85,0,0,1-1.52-1.33,3.24,3.24,0,0,1-.51-1.78,3.64,3.64,0,0,1,.62-2A3.76,3.76,0,0,1,59,5.22a6.68,6.68,0,0,1,2.62-.49,7.22,7.22,0,0,1,2.81.51,4.15,4.15,0,0,1,1.87,1.51A4.3,4.3,0,0,1,67,9l-1.81.14a3,3,0,0,0-1-2.06,3.9,3.9,0,0,0-2.5-.69,4,4,0,0,0-2.5.63,1.88,1.88,0,0,0-.79,1.52A1.61,1.61,0,0,0,59,9.82a7.53,7.53,0,0,0,2.85,1,19.1,19.1,0,0,1,3.17.91,4.37,4.37,0,0,1,1.85,1.46,3.62,3.62,0,0,1,.59,2,3.92,3.92,0,0,1-.65,2.15A4.24,4.24,0,0,1,64.94,19a6.49,6.49,0,0,1-2.76.57A8.21,8.21,0,0,1,58.92,19a4.66,4.66,0,0,1-2.06-1.7A4.78,4.78,0,0,1,56.08,14.69Z"/>
    <path d="M68.49,19.29,74,5h2l5.86,14.31H79.73L78.06,15h-6L70.5,19.29Zm4.13-5.88h4.85L76,9.45q-.69-1.81-1-3a17.93,17.93,0,0,1-.77,2.73Z"/>
    <path d="M83.46,19.29V5h1.89v5.87h7.44V5h1.9V19.29h-1.9V12.54H85.35v6.75Z"/>
    <path d="M103.43,19.29V5h6.35a8.45,8.45,0,0,1,2.91.38,3.22,3.22,0,0,1,1.59,1.36,4,4,0,0,1,.6,2.16,3.6,3.6,0,0,1-1,2.57,5,5,0,0,1-3,1.33,5,5,0,0,1,1.14.71,9.68,9.68,0,0,1,1.58,1.91l2.49,3.89h-2.39l-1.89-3c-.55-.86-1-1.51-1.37-2a4.51,4.51,0,0,0-1-1,2.83,2.83,0,0,0-.86-.38,6.3,6.3,0,0,0-1.06-.07h-2.2v6.36Zm1.89-8h4.08a6.1,6.1,0,0,0,2-.27,2.09,2.09,0,0,0,1.11-.85,2.4,2.4,0,0,0,.38-1.29,2.11,2.11,0,0,0-.74-1.67,3.4,3.4,0,0,0-2.32-.65h-4.54Z"/>
    <path d="M117.63,7V5h1.76V7Zm0,12.29V8.92h1.76V19.29Z"/>
    <path d="M123.68,19.29h-1.63V5h1.76v5.1a3.47,3.47,0,0,1,2.84-1.39,4.29,4.29,0,0,1,1.81.38,3.72,3.72,0,0,1,1.41,1.09,4.93,4.93,0,0,1,.86,1.68,6.9,6.9,0,0,1,.32,2.11,5.91,5.91,0,0,1-1.32,4.12,4.14,4.14,0,0,1-3.17,1.46A3.3,3.3,0,0,1,123.68,18Zm0-5.26a5.34,5.34,0,0,0,.51,2.69,2.51,2.51,0,0,0,4.24.36,4.55,4.55,0,0,0,.84-3,4.6,4.6,0,0,0-.81-3,2.42,2.42,0,0,0-1.94-1,2.56,2.56,0,0,0-2,1A4.42,4.42,0,0,0,123.66,14Z"/>
    <path d="M132.53,14.11a5.37,5.37,0,0,1,1.6-4.27,4.83,4.83,0,0,1,3.26-1.15,4.63,4.63,0,0,1,3.5,1.4A5.3,5.3,0,0,1,142.25,14a6.9,6.9,0,0,1-.6,3.15,4.23,4.23,0,0,1-1.75,1.78,5.15,5.15,0,0,1-2.51.64,4.68,4.68,0,0,1-3.52-1.4A5.59,5.59,0,0,1,132.53,14.11Zm1.81,0a4.42,4.42,0,0,0,.87,3,2.79,2.79,0,0,0,2.18,1,2.75,2.75,0,0,0,2.18-1,4.49,4.49,0,0,0,.87-3,4.32,4.32,0,0,0-.87-2.92,2.9,2.9,0,0,0-4.36,0A4.38,4.38,0,0,0,134.34,14.11Z"/>
    <path d="M143.61,16.2l1.73-.28a2.41,2.41,0,0,0,.82,1.6,2.8,2.8,0,0,0,1.87.56,2.74,2.74,0,0,0,1.8-.49,1.48,1.48,0,0,0,.58-1.16,1.06,1.06,0,0,0-.52-.94,8,8,0,0,0-1.79-.59,16.5,16.5,0,0,1-2.68-.85,2.62,2.62,0,0,1-1.14-1,2.7,2.7,0,0,1-.38-1.4,2.56,2.56,0,0,1,.32-1.28,2.89,2.89,0,0,1,.86-1,3.66,3.66,0,0,1,1.12-.51,5.32,5.32,0,0,1,1.52-.21,5.86,5.86,0,0,1,2.14.35,2.84,2.84,0,0,1,1.36,1,3.64,3.64,0,0,1,.61,1.61l-1.72.23a1.88,1.88,0,0,0-.68-1.25,2.47,2.47,0,0,0-1.59-.45,2.9,2.9,0,0,0-1.72.4,1.16,1.16,0,0,0-.52.94,1,1,0,0,0,.21.61,1.55,1.55,0,0,0,.68.47c.17.07.69.22,1.55.45a21.36,21.36,0,0,1,2.6.82,2.67,2.67,0,0,1,1.16.92,2.57,2.57,0,0,1,.42,1.5,3,3,0,0,1-.51,1.66,3.35,3.35,0,0,1-1.48,1.2,5.48,5.48,0,0,1-2.19.43,4.87,4.87,0,0,1-3.08-.84A3.86,3.86,0,0,1,143.61,16.2Z"/>
    <path d="M156.22,19.29,153.05,8.92h1.82l1.65,6,.61,2.22c0-.11.21-.82.54-2.14l1.65-6.07h1.8l1.56,6,.52,2,.59-2,1.78-6h1.71L164,19.29h-1.83l-1.65-6.21-.4-1.77-2.1,8Z"/>
    <path d="M168.76,7V5h1.76V7Zm0,12.29V8.92h1.76V19.29Z"/>
    <path d="M177,17.72l.26,1.55a6.22,6.22,0,0,1-1.33.16,3.07,3.07,0,0,1-1.49-.3,1.77,1.77,0,0,1-.74-.8,6.45,6.45,0,0,1-.21-2.08v-6h-1.29V8.92h1.29V6.35l1.75-1V8.92H177v1.37h-1.76v6.06a3.17,3.17,0,0,0,.09,1,.71.71,0,0,0,.3.34,1.11,1.11,0,0,0,.6.13A5.05,5.05,0,0,0,177,17.72Z"/>
    <path d="M185.52,15.49l1.73.23a4.5,4.5,0,0,1-1.45,2.8,4.26,4.26,0,0,1-2.87,1,4.44,4.44,0,0,1-3.42-1.4,5.63,5.63,0,0,1-1.3-4,7.21,7.21,0,0,1,.56-2.94,3.88,3.88,0,0,1,1.7-1.89,5,5,0,0,1,2.47-.63,4.32,4.32,0,0,1,2.77.85A3.93,3.93,0,0,1,187.08,12l-1.71.26a2.81,2.81,0,0,0-.86-1.57,2.24,2.24,0,0,0-1.5-.53,2.75,2.75,0,0,0-2.16.95,4.56,4.56,0,0,0-.83,3,4.68,4.68,0,0,0,.8,3,2.59,2.59,0,0,0,2.09.95,2.47,2.47,0,0,0,1.73-.63A3.18,3.18,0,0,0,185.52,15.49Z"/>
    <path d="M188.75,19.29V5h1.76v5.13a3.93,3.93,0,0,1,3.11-1.42,4.24,4.24,0,0,1,2,.45,2.64,2.64,0,0,1,1.21,1.26,5.63,5.63,0,0,1,.37,2.32v6.57h-1.76V12.72a2.72,2.72,0,0,0-.57-1.92,2.13,2.13,0,0,0-1.62-.6,2.85,2.85,0,0,0-1.47.4,2.42,2.42,0,0,0-1,1.1,5.2,5.2,0,0,0-.29,1.92v5.67Z"/>
  </g>
</svg>
