<svg id="图层_1" data-name="图层 1" xmlns="http://www.w3.org/2000/svg" viewBox="0 0 400 400"><defs><style>.cls-1,.cls-27{fill:#d7efc5;}.cls-2,.cls-21{fill:none;}.cls-12,.cls-14,.cls-2,.cls-21,.cls-23,.cls-25,.cls-26,.cls-27,.cls-3,.cls-9{stroke:#000;}.cls-2{stroke-width:1.42px;}.cls-11,.cls-13,.cls-17,.cls-20,.cls-3{fill:#d90000;}.cls-12,.cls-14,.cls-21,.cls-3,.cls-9{stroke-width:0.71px;}.cls-10,.cls-11,.cls-13,.cls-15,.cls-16,.cls-17,.cls-18,.cls-19,.cls-20,.cls-4,.cls-5,.cls-7,.cls-8{isolation:isolate;}.cls-4,.cls-6{font-size:13.78px;}.cls-10,.cls-11,.cls-13,.cls-15,.cls-16,.cls-17,.cls-18,.cls-19,.cls-20,.cls-22,.cls-4,.cls-5,.cls-6,.cls-7,.cls-8{font-family:ArialMT, Arial;}.cls-10,.cls-11,.cls-13,.cls-15,.cls-16,.cls-17,.cls-18,.cls-19,.cls-20,.cls-5,.cls-7,.cls-8{font-size:8.62px;}.cls-15,.cls-18,.cls-5,.cls-7,.cls-9{fill:#807b88;}.cls-13,.cls-16,.cls-7{letter-spacing:-0.06em;}.cls-15,.cls-17,.cls-8{letter-spacing:-0.02em;}.cls-14{fill:#fff;}.cls-18,.cls-19,.cls-20{letter-spacing:-0.06em;}.cls-22{font-size:12px;}.cls-23,.cls-25{stroke-width:0.25px;stroke-miterlimit:4;}.cls-24,.cls-25{letter-spacing:-0.06em;}.cls-27{stroke-miterlimit:10;stroke-width:0.51px;}</style></defs><g id="viewport-20230509130702449"><path class="cls-1" d="M66,342.33H86.76v6.19H66Z"/><path class="cls-2" d="M74.15,345.42h4.46"/><path class="cls-1" d="M66,333.65H86.76v6.18H66Z"/><path class="cls-2" d="M74.15,336.74h4.46"/><path class="cls-1" d="M66,305.26H86.76v6.19H66Z"/><path class="cls-2" d="M74.15,308.35h4.46"/><path class="cls-1" d="M66,296.58H86.76v6.18H66Z"/><path class="cls-2" d="M74.15,299.67h4.46"/><path class="cls-1" d="M66,287.89H86.76v6.19H66Z"/><path class="cls-2" d="M74.15,291h4.46"/><path class="cls-1" d="M66,279.21H86.76v6.19H66Z"/><path class="cls-2" d="M74.15,282.3h4.46"/><path class="cls-1" d="M66,227.61H86.76v6.19H66Z"/><path class="cls-2" d="M74.15,230.7h4.46"/><path class="cls-1" d="M66,218.93H86.76v6.18H66Z"/><path class="cls-2" d="M74.15,222h4.46"/><path class="cls-1" d="M66,210.24H86.76v6.19H66Z"/><path class="cls-2" d="M74.15,213.33h4.46"/><path class="cls-1" d="M66,201.56H86.76v6.18H66Z"/><path class="cls-2" d="M74.15,204.65h4.46"/><path class="cls-1" d="M66,192.87H86.76v6.19H66Z"/><path class="cls-2" d="M74.15,196h4.46"/><path class="cls-1" d="M66,184.19H86.76v6.19H66Z"/><path class="cls-2" d="M74.15,187.28h4.46"/><path class="cls-1" d="M66,144.05H86.76v6.19H66Z"/><path class="cls-2" d="M74.15,147.15h4.46"/><path class="cls-1" d="M66,135.37H86.76v6.18H66Z"/><path class="cls-2" d="M74.15,138.46h4.46"/><path class="cls-1" d="M66,126.68H86.76v6.19H66Z"/><path class="cls-2" d="M74.15,129.78h4.46"/><path class="cls-2" d="M74.15,121.09h4.46"/><path class="cls-1" d="M66,109.32H86.76v6.18H66Z"/><path class="cls-2" d="M74.15,112.41h4.46"/><path class="cls-1" d="M66,100.63H86.76v6.19H66Z"/><path class="cls-2" d="M74.15,103.73h4.46"/><path class="cls-1" d="M66,92H86.76v6.18H66Z"/><path class="cls-2" d="M74.15,95h4.46"/><path class="cls-1" d="M66,83.26H86.76v6.19H66Z"/><path class="cls-2" d="M74.15,86.36h4.46"/><path class="cls-1" d="M66,74.58H86.76v6.19H66Z"/><path class="cls-2" d="M74.15,77.67h4.46"/><path class="cls-1" d="M101,342.33h20.76v6.19H101Z"/><path class="cls-2" d="M109.17,345.42h4.47"/><path class="cls-1" d="M101,333.65h20.76v6.18H101Z"/><path class="cls-2" d="M109.17,336.74h4.47"/><path class="cls-1" d="M101,325h20.76v6.19H101Z"/><path class="cls-2" d="M109.17,328.05h4.47"/><path class="cls-1" d="M101,316.28h20.76v6.18H101Z"/><path class="cls-2" d="M109.17,319.37h4.47"/><path class="cls-1" d="M101,307.59h20.76v6.19H101Z"/><path class="cls-2" d="M109.17,310.69h4.47"/><path class="cls-1" d="M101,298.91h20.76v6.19H101Z"/><path class="cls-2" d="M109.17,302h4.47"/><path class="cls-2" d="M109.17,293.32h4.47"/><path class="cls-1" d="M127.37,342.33h20.76v6.19H127.37Z"/><path class="cls-2" d="M135.51,345.42H140"/><path class="cls-2" d="M135.51,336.74H140"/><path class="cls-1" d="M127.37,325h20.76v6.19H127.37Z"/><path class="cls-2" d="M135.51,328.05H140"/><path class="cls-1" d="M301.34,342.33H322.1v6.19H301.34Z"/><path class="cls-2" d="M309.49,345.42H314"/><path class="cls-1" d="M301.34,333.65H322.1v6.18H301.34Z"/><path class="cls-2" d="M309.49,336.74H314"/><path class="cls-1" d="M301.34,325H322.1v6.19H301.34Z"/><path class="cls-2" d="M309.49,328.05H314"/><path class="cls-1" d="M301.34,316.28H322.1v6.18H301.34Z"/><path class="cls-2" d="M309.49,319.37H314"/><path class="cls-1" d="M301.34,307.59H322.1v6.19H301.34Z"/><path class="cls-2" d="M309.49,310.69H314"/><path class="cls-1" d="M301.34,298.91H322.1v6.19H301.34Z"/><path class="cls-2" d="M309.49,302H314"/><path class="cls-1" d="M301.34,290.23H322.1v6.18H301.34Z"/><path class="cls-2" d="M309.49,293.32H314"/><path class="cls-1" d="M353.73,342.33h20.76v6.19H353.73Z"/><path class="cls-2" d="M361.88,345.42h4.46"/><path class="cls-1" d="M353.73,333.65h20.76v6.18H353.73Z"/><path class="cls-2" d="M361.88,336.74h4.46"/><path class="cls-1" d="M353.73,325h20.76v6.19H353.73Z"/><path class="cls-2" d="M361.88,328.05h4.46"/><path class="cls-2" d="M361.88,319.37h4.46"/><path class="cls-2" d="M361.88,310.69h4.46"/><path class="cls-2" d="M361.88,302h4.46"/><path class="cls-2" d="M361.88,293.32h4.46"/><path class="cls-1" d="M353.73,281.54h20.76v6.19H353.73Z"/><path class="cls-2" d="M361.88,284.63h4.46"/><path class="cls-1" d="M353.73,272.86h20.76V279H353.73Z"/><path class="cls-2" d="M361.88,276h4.46"/><path class="cls-3" d="M22.73,351.56a2.94,2.94,0,1,1-2.94-2.93A2.94,2.94,0,0,1,22.73,351.56Z"/><path class="cls-3" d="M31.41,351.56a2.94,2.94,0,1,1-2.93-2.93A2.93,2.93,0,0,1,31.41,351.56Z"/><g id="text1002"><text class="cls-4" transform="translate(34.05 354.66)"><tspan xml:space="preserve">   </tspan></text><text class="cls-5" transform="translate(34.05 354.66)">R</text><text class="cls-6" transform="translate(40.27 354.66)"> </text></g><g id="text1004"><text class="cls-4" transform="translate(42.97 354.66)"><tspan xml:space="preserve">   </tspan></text><text class="cls-7" transform="translate(42.97 354.66)">A</text><text class="cls-6" transform="translate(48.72 354.66)"> </text></g><path class="cls-3" d="M57.47,351.56a2.94,2.94,0,1,1-2.94-2.93A2.95,2.95,0,0,1,57.47,351.56Z"/><path class="cls-3" d="M66.15,351.56a2.94,2.94,0,1,1-2.94-2.93A2.94,2.94,0,0,1,66.15,351.56Z"/><g id="text1006"><text class="cls-4" transform="translate(66.24 348.52)"><tspan xml:space="preserve">   </tspan></text><text class="cls-5" transform="translate(66.24 348.52)">R</text><text class="cls-6" transform="translate(72.46 348.52)"> </text></g><g id="text1008"><text class="cls-4" transform="translate(66.48 339.83)"><tspan xml:space="preserve">   </tspan></text><text class="cls-8" transform="translate(66.48 339.83)">Y</text><text class="cls-6" transform="translate(72.22 339.83)"> </text></g><path class="cls-9" d="M63.68,337.88a2.94,2.94,0,1,1-2.94-2.94A2.94,2.94,0,0,1,63.68,337.88Z"/><path class="cls-9" d="M55.81,334.21a2.94,2.94,0,1,1-2.94-2.93A2.94,2.94,0,0,1,55.81,334.21Z"/><g id="text1010"><text class="cls-4" transform="translate(45.09 329.98)"><tspan xml:space="preserve">   </tspan></text><text class="cls-5" transform="translate(45.09 329.98)">U</text><text class="cls-6" transform="translate(51.31 329.98)"> </text></g><g id="text1012"><text class="cls-4" transform="translate(45.09 321.3)"><tspan xml:space="preserve">   </tspan></text><text class="cls-5" transform="translate(45.09 321.3)">R</text><text class="cls-6" transform="translate(51.31 321.3)"> </text></g><g id="text1014"><text class="cls-4" transform="translate(50 313.97)"><tspan xml:space="preserve">   </tspan></text><text class="cls-7" transform="translate(50 313.97)">A</text><text class="cls-6" transform="translate(55.74 313.97)"> </text></g><path class="cls-9" d="M63.68,307.22a2.94,2.94,0,0,1-5.87,0h0a2.94,2.94,0,1,1,5.87,0Z"/><path class="cls-3" d="M72.29,308.35a2.94,2.94,0,1,1-2.94-2.93A2.94,2.94,0,0,1,72.29,308.35Z"/><g id="text1016"><text class="cls-4" transform="translate(66.24 302.76)"><tspan xml:space="preserve">   </tspan></text><text class="cls-10" transform="translate(66.24 302.76)">R</text><text class="cls-6" transform="translate(72.46 302.76)"> </text></g><g id="text1018"><text class="cls-4" transform="translate(66.24 294.08)"><tspan xml:space="preserve">   </tspan></text><text class="cls-11" transform="translate(66.24 294.08)">R</text><text class="cls-6" transform="translate(72.46 294.08)"> </text></g><g id="text1020"><text class="cls-4" transform="translate(66.24 285.39)"><tspan xml:space="preserve">   </tspan></text><text class="cls-11" transform="translate(66.24 285.39)">R</text><text class="cls-6" transform="translate(72.46 285.39)"> </text></g><g id="text1022"><text class="cls-4" transform="translate(58.35 281.78)"><tspan xml:space="preserve">   </tspan></text><text class="cls-5" transform="translate(58.35 281.78)">R</text><text class="cls-6" transform="translate(64.57 281.78)"> </text></g><g id="text1024"><text class="cls-4" transform="translate(52.02 275.83)"><tspan xml:space="preserve">   </tspan></text><text class="cls-5" transform="translate(52.02 275.83)">R</text><text class="cls-6" transform="translate(58.24 275.83)"> </text></g><path class="cls-12" d="M54,265.07a2.94,2.94,0,1,1-2.94-2.93A2.94,2.94,0,0,1,54,265.07Z"/><g id="text1026"><text class="cls-4" transform="translate(46.77 259.59)"><tspan xml:space="preserve">   </tspan></text><text class="cls-13" transform="translate(46.77 259.59)">A</text><text class="cls-6" transform="translate(52.51 259.59)"> </text></g><g id="text1028"><text class="cls-4" transform="translate(47.7 251.03)"><tspan xml:space="preserve">   </tspan></text><text class="cls-11" transform="translate(47.7 251.03)">G</text><text class="cls-6" transform="translate(54.4 251.03)"> </text></g><g id="text1030"><text class="cls-4" transform="translate(52.02 243.36)"><tspan xml:space="preserve">   </tspan></text><text class="cls-10" transform="translate(52.02 243.36)">U</text><text class="cls-6" transform="translate(58.24 243.36)"> </text></g><g id="text1032"><text class="cls-4" transform="translate(58.58 237.41)"><tspan xml:space="preserve">   </tspan></text><text class="cls-13" transform="translate(58.58 237.41)">A</text><text class="cls-6" transform="translate(64.33 237.41)"> </text></g><g id="text1034"><text class="cls-4" transform="translate(66.24 233.79)"><tspan xml:space="preserve">   </tspan></text><text class="cls-5" transform="translate(66.24 233.79)">R</text><text class="cls-6" transform="translate(72.46 233.79)"> </text></g><path class="cls-3" d="M72.29,222a2.94,2.94,0,1,1-2.94-2.94A2.93,2.93,0,0,1,72.29,222Z"/><path class="cls-3" d="M72.29,213.33a2.94,2.94,0,1,1-2.94-2.93A2.94,2.94,0,0,1,72.29,213.33Z"/><path class="cls-3" d="M72.29,204.65a2.94,2.94,0,1,1-2.94-2.93A2.94,2.94,0,0,1,72.29,204.65Z"/><path class="cls-3" d="M72.29,196A2.94,2.94,0,1,1,69.35,193,2.94,2.94,0,0,1,72.29,196Z"/><path class="cls-3" d="M72.29,187.28a2.94,2.94,0,1,1-2.94-2.93A2.94,2.94,0,0,1,72.29,187.28Z"/><path class="cls-3" d="M63.62,186.74a2.94,2.94,0,1,1-5.87,0h0a2.94,2.94,0,1,1,5.87,0Z"/><path class="cls-12" d="M56,182.63A2.94,2.94,0,1,1,53,179.69,2.92,2.92,0,0,1,56,182.63Z"/><path class="cls-14" d="M50.74,175.7a2.94,2.94,0,1,1-2.93-2.94A2.93,2.93,0,0,1,50.74,175.7Z"/><path class="cls-14" d="M48.89,167.21A2.94,2.94,0,1,1,46,164.28,2.94,2.94,0,0,1,48.89,167.21Z"/><path class="cls-3" d="M50.74,158.73a2.94,2.94,0,1,1-2.93-2.93A2.94,2.94,0,0,1,50.74,158.73Z"/><path class="cls-3" d="M56,151.8A2.94,2.94,0,1,1,53,148.86,2.92,2.92,0,0,1,56,151.8Z"/><path class="cls-3" d="M63.62,147.69a2.94,2.94,0,1,1-2.94-2.94A2.93,2.93,0,0,1,63.62,147.69Z"/><path class="cls-3" d="M72.29,147.15a2.94,2.94,0,1,1-2.94-2.94A2.94,2.94,0,0,1,72.29,147.15Z"/><path class="cls-3" d="M72.29,138.46a2.94,2.94,0,1,1-2.94-2.93A2.94,2.94,0,0,1,72.29,138.46Z"/><g id="text1036"><text class="cls-4" transform="translate(66.48 132.87)"><tspan xml:space="preserve">   </tspan></text><text class="cls-15" transform="translate(66.48 132.87)">Y</text><text class="cls-6" transform="translate(72.22 132.87)"> </text></g><g id="text1038"><text class="cls-4" transform="translate(61.37 139.9)"><tspan xml:space="preserve">   </tspan></text><text class="cls-15" transform="translate(61.37 139.9)">Y</text><text class="cls-6" transform="translate(67.12 139.9)"> </text></g><path class="cls-3" d="M58.93,139.49A2.94,2.94,0,1,1,56,136.55,2.94,2.94,0,0,1,58.93,139.49Z"/><path class="cls-3" d="M50.67,136.8a2.94,2.94,0,1,1-2.94-2.93A2.94,2.94,0,0,1,50.67,136.8Z"/><g id="text1040"><text class="cls-4" transform="translate(39.75 132.87)"><tspan xml:space="preserve">   </tspan></text><text class="cls-13" transform="translate(39.75 132.87)">A</text><text class="cls-6" transform="translate(45.5 132.87)"> </text></g><g id="text1042"><text class="cls-4" transform="translate(39.27 124.19)"><tspan xml:space="preserve">   </tspan></text><text class="cls-11" transform="translate(39.27 124.19)">G</text><text class="cls-6" transform="translate(45.97 124.19)"> </text></g><g id="text1044"><text class="cls-4" transform="translate(44.86 117.16)"><tspan xml:space="preserve">   </tspan></text><text class="cls-7" transform="translate(44.86 117.16)">A</text><text class="cls-6" transform="translate(50.6 117.16)"> </text></g><g id="text1046"><text class="cls-4" transform="translate(52.64 114.48)"><tspan xml:space="preserve">   </tspan></text><text class="cls-11" transform="translate(52.64 114.48)">G</text><text class="cls-6" transform="translate(59.34 114.48)"> </text></g><g id="text1048"><text class="cls-4" transform="translate(61.37 117.16)"><tspan xml:space="preserve">   </tspan></text><text class="cls-16" transform="translate(61.37 117.16)">A</text><text class="cls-6" transform="translate(67.12 117.16)"> </text></g><g id="text1050"><text class="cls-4" transform="translate(66 124.19)"><tspan xml:space="preserve">   </tspan></text><text class="cls-5" transform="translate(66 124.19)">G</text><text class="cls-6" transform="translate(72.7 124.19)"> </text></g><path class="cls-3" d="M72.29,112.41a2.94,2.94,0,1,1-2.94-2.94A2.93,2.93,0,0,1,72.29,112.41Z"/><path class="cls-3" d="M72.29,103.73a2.94,2.94,0,1,1-2.94-2.94A2.94,2.94,0,0,1,72.29,103.73Z"/><path class="cls-3" d="M72.29,95a2.94,2.94,0,1,1-2.94-2.93A2.94,2.94,0,0,1,72.29,95Z"/><g id="text1052"><text class="cls-4" transform="translate(66.24 89.45)"><tspan xml:space="preserve">   </tspan></text><text class="cls-5" transform="translate(66.24 89.45)">R</text><text class="cls-6" transform="translate(72.46 89.45)"> </text></g><path class="cls-3" d="M72.29,77.67a2.94,2.94,0,1,1-2.94-2.93A2.94,2.94,0,0,1,72.29,77.67Z"/><g id="text1054"><text class="cls-4" transform="translate(58.88 75.8)"><tspan xml:space="preserve">   </tspan></text><text class="cls-5" transform="translate(58.88 75.8)">G</text><text class="cls-6" transform="translate(65.58 75.8)"> </text></g><g id="text1056"><text class="cls-4" transform="translate(54.94 68.19)"><tspan xml:space="preserve">   </tspan></text><text class="cls-5" transform="translate(54.94 68.19)">R</text><text class="cls-6" transform="translate(61.16 68.19)"> </text></g><g id="text1058"><text class="cls-4" transform="translate(54.59 59.51)"><tspan xml:space="preserve">   </tspan></text><text class="cls-5" transform="translate(54.59 59.51)">U</text><text class="cls-6" transform="translate(60.81 59.51)"> </text></g><path class="cls-9" d="M64.17,48.48a2.94,2.94,0,1,1-2.94-2.93A2.93,2.93,0,0,1,64.17,48.48Z"/><g id="text1060"><text class="cls-4" transform="translate(64.58 46.04)"><tspan xml:space="preserve">   </tspan></text><text class="cls-5" transform="translate(64.58 46.04)">G</text><text class="cls-6" transform="translate(71.28 46.04)"> </text></g><path class="cls-3" d="M79.32,41A2.94,2.94,0,1,1,76.38,38,2.94,2.94,0,0,1,79.32,41Z"/><g id="text1062"><text class="cls-4" transform="translate(81.73 46.04)"><tspan xml:space="preserve">   </tspan></text><text class="cls-11" transform="translate(81.73 46.04)">U</text><text class="cls-6" transform="translate(87.95 46.04)"> </text></g><g id="text1064"><text class="cls-4" transform="translate(88.18 51.58)"><tspan xml:space="preserve">   </tspan></text><text class="cls-11" transform="translate(88.18 51.58)">G</text><text class="cls-6" transform="translate(94.88 51.58)"> </text></g><path class="cls-3" d="M98,56.42a2.94,2.94,0,1,1-2.93-2.94A2.93,2.93,0,0,1,98,56.42Z"/><g id="text1066"><text class="cls-4" transform="translate(91.6 68.19)"><tspan xml:space="preserve">   </tspan></text><text class="cls-11" transform="translate(91.6 68.19)">R</text><text class="cls-6" transform="translate(97.82 68.19)"> </text></g><g id="text1068"><text class="cls-4" transform="translate(87.66 75.8)"><tspan xml:space="preserve">   </tspan></text><text class="cls-13" transform="translate(87.66 75.8)">A</text><text class="cls-6" transform="translate(93.41 75.8)"> </text></g><g id="text1070"><text class="cls-4" transform="translate(80.3 80.77)"><tspan xml:space="preserve">   </tspan></text><text class="cls-5" transform="translate(80.3 80.77)">R</text><text class="cls-6" transform="translate(86.52 80.77)"> </text></g><g id="text1072"><text class="cls-4" transform="translate(80.54 89.45)"><tspan xml:space="preserve">   </tspan></text><text class="cls-15" transform="translate(80.54 89.45)">Y</text><text class="cls-6" transform="translate(86.29 89.45)"> </text></g><path class="cls-3" d="M86.35,95a2.94,2.94,0,1,1-2.94-2.93A2.94,2.94,0,0,1,86.35,95Z"/><path class="cls-3" d="M86.35,103.73a2.94,2.94,0,1,1-2.94-2.94A2.94,2.94,0,0,1,86.35,103.73Z"/><path class="cls-3" d="M86.35,112.41a2.94,2.94,0,1,1-2.94-2.94A2.93,2.93,0,0,1,86.35,112.41Z"/><g id="text1074"><text class="cls-4" transform="translate(80.54 124.19)"><tspan xml:space="preserve">   </tspan></text><text class="cls-8" transform="translate(80.54 124.19)">Y</text><text class="cls-6" transform="translate(86.29 124.19)"> </text></g><path class="cls-3" d="M86.35,129.78a2.94,2.94,0,1,1-2.94-2.94A2.94,2.94,0,0,1,86.35,129.78Z"/><path class="cls-3" d="M86.35,138.46a2.94,2.94,0,1,1-2.94-2.93A2.94,2.94,0,0,1,86.35,138.46Z"/><path class="cls-3" d="M86.35,147.15a2.94,2.94,0,1,1-2.94-2.94A2.94,2.94,0,0,1,86.35,147.15Z"/><path class="cls-3" d="M93.79,151.63a2.94,2.94,0,1,1-2.94-2.94A2.94,2.94,0,0,1,93.79,151.63Z"/><g id="text1076"><text class="cls-4" transform="translate(92.76 161.81)"><tspan xml:space="preserve">   </tspan></text><text class="cls-5" transform="translate(92.76 161.81)">R</text><text class="cls-6" transform="translate(98.98 161.81)"> </text></g><path class="cls-3" d="M100.58,167.21a2.94,2.94,0,1,1-2.93-2.93A2.93,2.93,0,0,1,100.58,167.21Z"/><path class="cls-9" d="M98.81,175.71a2.94,2.94,0,1,1-2.93-2.93A2.94,2.94,0,0,1,98.81,175.71Z"/><path class="cls-3" d="M93.79,182.8a2.94,2.94,0,1,1-2.94-2.94A2.94,2.94,0,0,1,93.79,182.8Z"/><path class="cls-3" d="M86.35,187.28a2.94,2.94,0,1,1-2.94-2.93A2.94,2.94,0,0,1,86.35,187.28Z"/><path class="cls-3" d="M86.35,196A2.94,2.94,0,1,1,83.41,193,2.94,2.94,0,0,1,86.35,196Z"/><path class="cls-3" d="M86.35,204.65a2.94,2.94,0,1,1-2.94-2.93A2.94,2.94,0,0,1,86.35,204.65Z"/><path class="cls-3" d="M86.35,213.33a2.94,2.94,0,1,1-2.94-2.93A2.94,2.94,0,0,1,86.35,213.33Z"/><path class="cls-3" d="M86.35,222a2.94,2.94,0,1,1-2.94-2.94A2.93,2.93,0,0,1,86.35,222Z"/><g id="text1078"><text class="cls-4" transform="translate(80.54 233.79)"><tspan xml:space="preserve">   </tspan></text><text class="cls-15" transform="translate(80.54 233.79)">Y</text><text class="cls-6" transform="translate(86.29 233.79)"> </text></g><g id="text1080"><text class="cls-4" transform="translate(88.54 235.69)"><tspan xml:space="preserve">   </tspan></text><text class="cls-11" transform="translate(88.54 235.69)">G</text><text class="cls-6" transform="translate(95.24 235.69)"> </text></g><g id="text1082"><text class="cls-4" transform="translate(96.38 240.28)"><tspan xml:space="preserve">   </tspan></text><text class="cls-13" transform="translate(96.38 240.28)">A</text><text class="cls-6" transform="translate(102.13 240.28)"> </text></g><g id="text1084"><text class="cls-4" transform="translate(101.81 247.06)"><tspan xml:space="preserve">   </tspan></text><text class="cls-16" transform="translate(101.81 247.06)">A</text><text class="cls-6" transform="translate(107.56 247.06)"> </text></g><path class="cls-14" d="M110.5,252.16a2.94,2.94,0,1,1-2.9-2.9A2.95,2.95,0,0,1,110.5,252.16Z"/><path class="cls-3" d="M110.5,260.85a2.94,2.94,0,1,1-2.9-2.9A2.94,2.94,0,0,1,110.5,260.85Z"/><path class="cls-3" d="M107.62,269a2.94,2.94,0,1,1-2.93-2.94A2.92,2.92,0,0,1,107.62,269Z"/><path class="cls-3" d="M102.19,275.81a2.94,2.94,0,1,1-2.93-2.93A2.93,2.93,0,0,1,102.19,275.81Z"/><g id="text1086"><text class="cls-4" transform="translate(88.78 283.5)"><tspan xml:space="preserve">   </tspan></text><text class="cls-10" transform="translate(88.78 283.5)">R</text><text class="cls-6" transform="translate(95 283.5)"> </text></g><g id="text1088"><text class="cls-4" transform="translate(80.3 285.39)"><tspan xml:space="preserve">   </tspan></text><text class="cls-5" transform="translate(80.3 285.39)">C</text><text class="cls-6" transform="translate(86.52 285.39)"> </text></g><g id="text1090"><text class="cls-4" transform="translate(80.54 294.08)"><tspan xml:space="preserve">   </tspan></text><text class="cls-17" transform="translate(80.54 294.08)">Y</text><text class="cls-6" transform="translate(86.29 294.08)"> </text></g><g id="text1092"><text class="cls-4" transform="translate(80.54 302.76)"><tspan xml:space="preserve">   </tspan></text><text class="cls-8" transform="translate(80.54 302.76)">Y</text><text class="cls-6" transform="translate(86.29 302.76)"> </text></g><path class="cls-3" d="M86.35,308.35a2.94,2.94,0,1,1-2.94-2.93A2.94,2.94,0,0,1,86.35,308.35Z"/><path class="cls-9" d="M92.78,314.2a2.94,2.94,0,1,1-2.94-2.94A2.94,2.94,0,0,1,92.78,314.2Z"/><g id="text1094"><text class="cls-4" transform="translate(88.87 325.64)"><tspan xml:space="preserve">   </tspan></text><text class="cls-5" transform="translate(88.87 325.64)">G</text><text class="cls-6" transform="translate(95.57 325.64)"> </text></g><g id="text1096"><text class="cls-4" transform="translate(86.96 333.99)"><tspan xml:space="preserve">   </tspan></text><text class="cls-7" transform="translate(86.96 333.99)">A</text><text class="cls-6" transform="translate(92.71 333.99)"> </text></g><g id="text1098"><text class="cls-4" transform="translate(80.06 339.83)"><tspan xml:space="preserve">   </tspan></text><text class="cls-5" transform="translate(80.06 339.83)">G</text><text class="cls-6" transform="translate(86.76 339.83)"> </text></g><g id="text1100"><text class="cls-4" transform="translate(80.54 348.52)"><tspan xml:space="preserve">   </tspan></text><text class="cls-15" transform="translate(80.54 348.52)">Y</text><text class="cls-6" transform="translate(86.29 348.52)"> </text></g><path class="cls-9" d="M92.49,351.56a2.94,2.94,0,1,1-2.93-2.93A2.94,2.94,0,0,1,92.49,351.56Z"/><path class="cls-3" d="M101.17,351.56a2.94,2.94,0,1,1-2.93-2.93A2.93,2.93,0,0,1,101.17,351.56Z"/><path class="cls-12" d="M107.31,345.42a2.94,2.94,0,1,1-2.93-2.93A2.93,2.93,0,0,1,107.31,345.42Z"/><path class="cls-12" d="M107.31,336.74a2.94,2.94,0,1,1-2.93-2.94A2.92,2.92,0,0,1,107.31,336.74Z"/><path class="cls-9" d="M107.31,328.05a2.94,2.94,0,1,1-2.93-2.93A2.93,2.93,0,0,1,107.31,328.05Z"/><path class="cls-12" d="M107.31,319.37a2.94,2.94,0,1,1-2.93-2.93A2.94,2.94,0,0,1,107.31,319.37Z"/><path class="cls-12" d="M107.31,310.69a2.94,2.94,0,1,1-2.93-2.94A2.93,2.93,0,0,1,107.31,310.69Z"/><g id="text1102"><text class="cls-4" transform="translate(101.5 305.1)"><tspan xml:space="preserve">   </tspan></text><text class="cls-15" transform="translate(101.5 305.1)">Y</text><text class="cls-6" transform="translate(107.25 305.1)"> </text></g><path class="cls-9" d="M107.31,293.32a2.94,2.94,0,1,1-2.93-2.94A2.92,2.92,0,0,1,107.31,293.32Z"/><g id="text1104"><text class="cls-4" transform="translate(93.77 292.02)"><tspan xml:space="preserve">   </tspan></text><text class="cls-5" transform="translate(93.77 292.02)">R</text><text class="cls-6" transform="translate(100 292.02)"> </text></g><g id="text1106"><text class="cls-4" transform="translate(88.59 285.05)"><tspan xml:space="preserve">   </tspan></text><text class="cls-5" transform="translate(88.59 285.05)">R</text><text class="cls-6" transform="translate(94.82 285.05)"> </text></g><g id="text1108"><text class="cls-4" transform="translate(86.79 276.61)"><tspan xml:space="preserve">   </tspan></text><text class="cls-7" transform="translate(86.79 276.61)">A</text><text class="cls-6" transform="translate(92.54 276.61)"> </text></g><path class="cls-14" d="M94,265A2.94,2.94,0,1,1,91.08,262,2.94,2.94,0,0,1,94,265Z"/><path class="cls-14" d="M98.68,257.62a2.94,2.94,0,1,1-2.93-2.93A2.94,2.94,0,0,1,98.68,257.62Z"/><path class="cls-14" d="M105.84,252.7a2.94,2.94,0,1,1-2.94-2.93A3,3,0,0,1,105.84,252.7Z"/><path class="cls-14" d="M114.34,251a2.94,2.94,0,1,1-2.91-2.91A2.94,2.94,0,0,1,114.34,251Z"/><path class="cls-9" d="M122.85,252.7a2.94,2.94,0,1,1-2.93-2.94A2.94,2.94,0,0,1,122.85,252.7Z"/><path class="cls-9" d="M130,257.62a2.94,2.94,0,1,1-2.94-2.93A2.94,2.94,0,0,1,130,257.62Z"/><path class="cls-9" d="M134.67,265a2.94,2.94,0,1,1-2.94-2.93A2.94,2.94,0,0,1,134.67,265Z"/><path class="cls-9" d="M136.09,273.52a2.94,2.94,0,1,1-2.94-2.94A2.93,2.93,0,0,1,136.09,273.52Z"/><path class="cls-9" d="M134.05,282a2.94,2.94,0,1,1-2.94-2.94A2.93,2.93,0,0,1,134.05,282Z"/><g id="text1110"><text class="cls-4" transform="translate(123.06 292.02)"><tspan xml:space="preserve">   </tspan></text><text class="cls-7" transform="translate(123.06 292.02)">A</text><text class="cls-6" transform="translate(128.8 292.02)"> </text></g><g id="text1112"><text class="cls-4" transform="translate(115.33 296.41)"><tspan xml:space="preserve">   </tspan></text><text class="cls-5" transform="translate(115.33 296.41)">R</text><text class="cls-6" transform="translate(121.55 296.41)"> </text></g><g id="text1114"><text class="cls-4" transform="translate(115.33 305.1)"><tspan xml:space="preserve">   </tspan></text><text class="cls-5" transform="translate(115.33 305.1)">R</text><text class="cls-6" transform="translate(121.55 305.1)"> </text></g><path class="cls-12" d="M121.37,310.69a2.94,2.94,0,1,1-2.93-2.94A2.93,2.93,0,0,1,121.37,310.69Z"/><path class="cls-12" d="M121.37,319.37a2.94,2.94,0,1,1-2.93-2.93A2.94,2.94,0,0,1,121.37,319.37Z"/><path class="cls-9" d="M121.37,328.05a2.94,2.94,0,1,1-2.93-2.93A2.93,2.93,0,0,1,121.37,328.05Z"/><path class="cls-12" d="M121.37,336.74a2.94,2.94,0,1,1-2.93-2.94A2.92,2.92,0,0,1,121.37,336.74Z"/><path class="cls-12" d="M121.37,345.42a2.94,2.94,0,1,1-2.93-2.93A2.93,2.93,0,0,1,121.37,345.42Z"/><path class="cls-9" d="M127.52,351.56a2.94,2.94,0,1,1-2.94-2.93A2.94,2.94,0,0,1,127.52,351.56Z"/><g id="text1116"><text class="cls-4" transform="translate(127.61 348.52)"><tspan xml:space="preserve">   </tspan></text><text class="cls-5" transform="translate(127.61 348.52)">C</text><text class="cls-6" transform="translate(133.83 348.52)"> </text></g><g id="text1118"><text class="cls-4" transform="translate(127.37 339.83)"><tspan xml:space="preserve">   </tspan></text><text class="cls-10" transform="translate(127.37 339.83)">G</text><text class="cls-6" transform="translate(134.07 339.83)"> </text></g><path class="cls-12" d="M133.66,328.05a2.94,2.94,0,1,1-2.94-2.93A2.94,2.94,0,0,1,133.66,328.05Z"/><path class="cls-12" d="M128.76,320.88a2.94,2.94,0,1,1-2.94-2.93A2.94,2.94,0,0,1,128.76,320.88Z"/><path class="cls-12" d="M129.83,312.27a2.94,2.94,0,1,1-2.93-2.94A2.93,2.93,0,0,1,129.83,312.27Z"/><path class="cls-12" d="M136.34,306.52a2.94,2.94,0,1,1-2.93-2.94A2.93,2.93,0,0,1,136.34,306.52Z"/><path class="cls-9" d="M145,306.52a2.94,2.94,0,1,1-2.94-2.94A2.94,2.94,0,0,1,145,306.52Z"/><path class="cls-3" d="M151.54,312.27a2.94,2.94,0,1,1-2.94-2.94A2.94,2.94,0,0,1,151.54,312.27Z"/><path class="cls-3" d="M152.61,320.88a2.94,2.94,0,1,1-2.93-2.93A2.93,2.93,0,0,1,152.61,320.88Z"/><path class="cls-12" d="M147.72,328.05a2.94,2.94,0,1,1-2.94-2.93,2.94,2.94,0,0,1,2.94,2.93Z"/><g id="text1120"><text class="cls-4" transform="translate(141.67 339.83)"><tspan xml:space="preserve">   </tspan></text><text class="cls-10" transform="translate(141.67 339.83)">C</text><text class="cls-6" transform="translate(147.89 339.83)"> </text></g><g id="text1122"><text class="cls-4" transform="translate(141.43 348.52)"><tspan xml:space="preserve">   </tspan></text><text class="cls-5" transform="translate(141.43 348.52)">G</text><text class="cls-6" transform="translate(148.13 348.52)"> </text></g><g id="text1124"><text class="cls-4" transform="translate(147.81 354.66)"><tspan xml:space="preserve">   </tspan></text><text class="cls-11" transform="translate(147.81 354.66)">U</text><text class="cls-6" transform="translate(154.03 354.66)"> </text></g><g id="text1126"><text class="cls-4" transform="translate(156.49 354.66)"><tspan xml:space="preserve">   </tspan></text><text class="cls-11" transform="translate(156.49 354.66)">U</text><text class="cls-6" transform="translate(162.71 354.66)"> </text></g><g id="text1128"><text class="cls-4" transform="translate(165.41 354.66)"><tspan xml:space="preserve">   </tspan></text><text class="cls-13" transform="translate(165.41 354.66)">A</text><text class="cls-6" transform="translate(171.16 354.66)"> </text></g><path class="cls-14" d="M179.91,351.56a2.94,2.94,0,1,1-2.94-2.93A2.94,2.94,0,0,1,179.91,351.56Z"/><path class="cls-14" d="M188.59,351.56a2.94,2.94,0,1,1-2.94-2.93A2.93,2.93,0,0,1,188.59,351.56Z"/><path class="cls-9" d="M197.28,351.56a2.94,2.94,0,1,1-2.94-2.93A2.95,2.95,0,0,1,197.28,351.56Z"/><path class="cls-12" d="M206,351.56a2.94,2.94,0,1,1-2.93-2.93A2.94,2.94,0,0,1,206,351.56Z"/><path class="cls-3" d="M214.64,351.56a2.94,2.94,0,1,1-2.93-2.93A2.93,2.93,0,0,1,214.64,351.56Z"/><path class="cls-3" d="M223.33,351.56a2.94,2.94,0,1,1-2.94-2.93A2.94,2.94,0,0,1,223.33,351.56Z"/><path class="cls-3" d="M232,351.56a2.94,2.94,0,1,1-2.94-2.93A2.93,2.93,0,0,1,232,351.56Z"/><path class="cls-3" d="M240.7,351.56a2.94,2.94,0,1,1-2.94-2.93A2.94,2.94,0,0,1,240.7,351.56Z"/><path class="cls-3" d="M249.38,351.56a2.94,2.94,0,1,1-2.93-2.93A2.94,2.94,0,0,1,249.38,351.56Z"/><path class="cls-3" d="M258.06,351.56a2.94,2.94,0,1,1-2.93-2.93A2.94,2.94,0,0,1,258.06,351.56Z"/><g id="text1130"><text class="cls-4" transform="translate(260.7 354.66)"><tspan xml:space="preserve">   </tspan></text><text class="cls-5" transform="translate(260.7 354.66)">R</text><text class="cls-6" transform="translate(266.92 354.66)"> </text></g><g id="text1132"><text class="cls-4" transform="translate(269.62 354.66)"><tspan xml:space="preserve">   </tspan></text><text class="cls-18" transform="translate(269.62 354.66)">A</text><text class="cls-6" transform="translate(275.37 354.66)"> </text></g><g id="text1134"><text class="cls-4" transform="translate(277.83 354.66)"><tspan xml:space="preserve">   </tspan></text><text class="cls-10" transform="translate(277.83 354.66)">G</text><text class="cls-6" transform="translate(284.53 354.66)"> </text></g><path class="cls-3" d="M292.8,351.56a2.94,2.94,0,1,1-2.94-2.93A2.93,2.93,0,0,1,292.8,351.56Z"/><g id="text1136"><text class="cls-4" transform="translate(295.2 354.66)"><tspan xml:space="preserve">   </tspan></text><text class="cls-10" transform="translate(295.2 354.66)">G</text><text class="cls-6" transform="translate(301.9 354.66)"> </text></g><path class="cls-3" d="M307.63,345.42a2.94,2.94,0,1,1-2.94-2.93A2.95,2.95,0,0,1,307.63,345.42Z"/><path class="cls-3" d="M307.63,336.74a2.94,2.94,0,1,1-2.94-2.93A2.94,2.94,0,0,1,307.63,336.74Z"/><path class="cls-3" d="M307.63,328.05a2.94,2.94,0,1,1-2.94-2.93A2.95,2.95,0,0,1,307.63,328.05Z"/><path class="cls-3" d="M307.63,319.37a2.94,2.94,0,1,1-2.94-2.93A2.94,2.94,0,0,1,307.63,319.37Z"/><path class="cls-3" d="M307.63,310.69a2.94,2.94,0,1,1-2.94-2.94A2.94,2.94,0,0,1,307.63,310.69Z"/><path class="cls-3" d="M307.63,302a2.94,2.94,0,1,1-2.94-2.93A2.93,2.93,0,0,1,307.63,302Z"/><path class="cls-3" d="M307.63,293.32a2.94,2.94,0,1,1-2.94-2.93A2.94,2.94,0,0,1,307.63,293.32Z"/><path class="cls-14" d="M303.72,285.56a2.94,2.94,0,1,1-2.93-2.93A2.92,2.92,0,0,1,303.72,285.56Z"/><path class="cls-14" d="M306.68,277.4a2.94,2.94,0,1,1-2.93-2.94A2.94,2.94,0,0,1,306.68,277.4Z"/><path class="cls-14" d="M314.66,274a2.94,2.94,0,1,1-2.94-2.93A3,3,0,0,1,314.66,274Z"/><path class="cls-9" d="M322.63,277.4a2.94,2.94,0,1,1-2.93-2.93A2.93,2.93,0,0,1,322.63,277.4Z"/><path class="cls-12" d="M325.59,285.56a2.94,2.94,0,1,1-2.94-2.94A2.93,2.93,0,0,1,325.59,285.56Z"/><path class="cls-3" d="M321.69,293.32a2.94,2.94,0,1,1-2.94-2.94A2.94,2.94,0,0,1,321.69,293.32Z"/><path class="cls-3" d="M321.69,302a2.94,2.94,0,1,1-2.94-2.94,2.94,2.94,0,0,1,2.94,2.94Z"/><path class="cls-3" d="M321.69,310.69a2.94,2.94,0,1,1-2.94-2.94A2.94,2.94,0,0,1,321.69,310.69Z"/><path class="cls-3" d="M321.69,319.37a2.94,2.94,0,1,1-2.94-2.94A2.94,2.94,0,0,1,321.69,319.37Z"/><path class="cls-3" d="M321.69,328.05a2.94,2.94,0,1,1-2.94-2.93A2.94,2.94,0,0,1,321.69,328.05Z"/><path class="cls-3" d="M321.69,336.74a2.94,2.94,0,1,1-2.94-2.94A2.94,2.94,0,0,1,321.69,336.74Z"/><g id="text1138"><text class="cls-4" transform="translate(315.87 348.52)"><tspan xml:space="preserve">   </tspan></text><text class="cls-15" transform="translate(315.87 348.52)">Y</text><text class="cls-6" transform="translate(321.62 348.52)"> </text></g><g id="text1140"><text class="cls-4" transform="translate(322.02 354.66)"><tspan xml:space="preserve">   </tspan></text><text class="cls-19" transform="translate(322.02 354.66)">A</text><text class="cls-6" transform="translate(327.76 354.66)"> </text></g><g id="text1142"><text class="cls-4" transform="translate(330.7 354.66)"><tspan xml:space="preserve">   </tspan></text><text class="cls-20" transform="translate(330.7 354.66)">A</text><text class="cls-6" transform="translate(336.45 354.66)"> </text></g><path class="cls-3" d="M345.19,351.56a2.94,2.94,0,1,1-2.93-2.93A2.93,2.93,0,0,1,345.19,351.56Z"/><g id="text1144"><text class="cls-4" transform="translate(348.07 354.66)"><tspan xml:space="preserve">   </tspan></text><text class="cls-15" transform="translate(348.07 354.66)">Y</text><text class="cls-6" transform="translate(353.81 354.66)"> </text></g><g id="text1146"><text class="cls-4" transform="translate(353.97 348.52)"><tspan xml:space="preserve">   </tspan></text><text class="cls-5" transform="translate(353.97 348.52)">R</text><text class="cls-6" transform="translate(360.19 348.52)"> </text></g><g id="text1148"><text class="cls-4" transform="translate(353.97 339.83)"><tspan xml:space="preserve">   </tspan></text><text class="cls-11" transform="translate(353.97 339.83)">R</text><text class="cls-6" transform="translate(360.19 339.83)"> </text></g><g id="text1150"><text class="cls-4" transform="translate(353.73 331.15)"><tspan xml:space="preserve">   </tspan></text><text class="cls-10" transform="translate(353.73 331.15)">G</text><text class="cls-6" transform="translate(360.43 331.15)"> </text></g><g id="text1152"><text class="cls-4" transform="translate(353.73 322.46)"><tspan xml:space="preserve">   </tspan></text><text class="cls-11" transform="translate(353.73 322.46)">G</text><text class="cls-6" transform="translate(360.43 322.46)"> </text></g><g id="text1154"><text class="cls-4" transform="translate(348.39 329.12)"><tspan xml:space="preserve">   </tspan></text><text class="cls-11" transform="translate(348.39 329.12)">U</text><text class="cls-6" transform="translate(354.61 329.12)"> </text></g><g id="text1156"><text class="cls-4" transform="translate(339.6 330.62)"><tspan xml:space="preserve">   </tspan></text><text class="cls-11" transform="translate(339.6 330.62)">G</text><text class="cls-6" transform="translate(346.3 330.62)"> </text></g><g id="text1158"><text class="cls-4" transform="translate(332.08 326.28)"><tspan xml:space="preserve">   </tspan></text><text class="cls-11" transform="translate(332.08 326.28)">G</text><text class="cls-6" transform="translate(338.78 326.28)"> </text></g><g id="text1160"><text class="cls-4" transform="translate(329.58 318.12)"><tspan xml:space="preserve">   </tspan></text><text class="cls-15" transform="translate(329.58 318.12)">Y</text><text class="cls-6" transform="translate(335.33 318.12)"> </text></g><g id="text1162"><text class="cls-4" transform="translate(332.55 309.96)"><tspan xml:space="preserve">   </tspan></text><text class="cls-20" transform="translate(332.55 309.96)">A</text><text class="cls-6" transform="translate(338.3 309.96)"> </text></g><g id="text1164"><text class="cls-4" transform="translate(339.84 305.62)"><tspan xml:space="preserve">   </tspan></text><text class="cls-5" transform="translate(339.84 305.62)">C</text><text class="cls-6" transform="translate(346.06 305.62)"> </text></g><g id="text1166"><text class="cls-4" transform="translate(348.39 307.13)"><tspan xml:space="preserve">   </tspan></text><text class="cls-11" transform="translate(348.39 307.13)">C</text><text class="cls-6" transform="translate(354.61 307.13)"> </text></g><g id="text1168"><text class="cls-4" transform="translate(353.73 313.78)"><tspan xml:space="preserve">   </tspan></text><text class="cls-5" transform="translate(353.73 313.78)">G</text><text class="cls-6" transform="translate(360.43 313.78)"> </text></g><g id="text1170"><text class="cls-4" transform="translate(353.97 305.1)"><tspan xml:space="preserve">   </tspan></text><text class="cls-11" transform="translate(353.97 305.1)">C</text><text class="cls-6" transform="translate(360.19 305.1)"> </text></g><g id="text1172"><text class="cls-4" transform="translate(353.73 296.41)"><tspan xml:space="preserve">   </tspan></text><text class="cls-11" transform="translate(353.73 296.41)">G</text><text class="cls-6" transform="translate(360.43 296.41)"> </text></g><g id="text1174"><text class="cls-4" transform="translate(353.97 287.73)"><tspan xml:space="preserve">   </tspan></text><text class="cls-5" transform="translate(353.97 287.73)">R</text><text class="cls-6" transform="translate(360.19 287.73)"> </text></g><path class="cls-12" d="M360,276a2.94,2.94,0,1,1-2.93-2.93A2.93,2.93,0,0,1,360,276Z"/><path class="cls-14" d="M356.11,268.19a2.94,2.94,0,1,1-2.94-2.93A2.93,2.93,0,0,1,356.11,268.19Z"/><path class="cls-9" d="M359.08,260a2.94,2.94,0,1,1-2.94-2.94A2.94,2.94,0,0,1,359.08,260Z"/><path class="cls-3" d="M367.05,256.59a2.94,2.94,0,1,1-2.93-2.93A2.93,2.93,0,0,1,367.05,256.59Z"/><path class="cls-3" d="M375,260a2.94,2.94,0,1,1-2.93-2.93A2.93,2.93,0,0,1,375,260Z"/><path class="cls-3" d="M378,268.19a2.94,2.94,0,1,1-2.94-2.93A2.94,2.94,0,0,1,378,268.19Z"/><path class="cls-12" d="M374.08,276a2.94,2.94,0,1,1-2.94-2.94A2.94,2.94,0,0,1,374.08,276Z"/><g id="text1176"><text class="cls-4" transform="translate(368.03 287.73)"><tspan xml:space="preserve">   </tspan></text><text class="cls-5" transform="translate(368.03 287.73)">U</text><text class="cls-6" transform="translate(374.25 287.73)"> </text></g><g id="text1178"><text class="cls-4" transform="translate(368.03 296.41)"><tspan xml:space="preserve">   </tspan></text><text class="cls-11" transform="translate(368.03 296.41)">C</text><text class="cls-6" transform="translate(374.25 296.41)"> </text></g><g id="text1180"><text class="cls-4" transform="translate(367.79 305.1)"><tspan xml:space="preserve">   </tspan></text><text class="cls-11" transform="translate(367.79 305.1)">G</text><text class="cls-6" transform="translate(374.49 305.1)"> </text></g><g id="text1182"><text class="cls-4" transform="translate(368.03 313.78)"><tspan xml:space="preserve">   </tspan></text><text class="cls-5" transform="translate(368.03 313.78)">U</text><text class="cls-6" transform="translate(374.25 313.78)"> </text></g><g id="text1184"><text class="cls-4" transform="translate(368.03 322.46)"><tspan xml:space="preserve">   </tspan></text><text class="cls-11" transform="translate(368.03 322.46)">C</text><text class="cls-6" transform="translate(374.25 322.46)"> </text></g><g id="text1186"><text class="cls-4" transform="translate(368.03 331.15)"><tspan xml:space="preserve">   </tspan></text><text class="cls-10" transform="translate(368.03 331.15)">C</text><text class="cls-6" transform="translate(374.25 331.15)"> </text></g><g id="text1188"><text class="cls-4" transform="translate(368.27 339.83)"><tspan xml:space="preserve">   </tspan></text><text class="cls-17" transform="translate(368.27 339.83)">Y</text><text class="cls-6" transform="translate(374.01 339.83)"> </text></g><g id="text1190"><text class="cls-4" transform="translate(368.03 348.52)"><tspan xml:space="preserve">   </tspan></text><text class="cls-5" transform="translate(368.03 348.52)">U</text><text class="cls-6" transform="translate(374.25 348.52)"> </text></g><path class="cls-3" d="M380.22,351.56a2.94,2.94,0,1,1-2.94-2.93A2.94,2.94,0,0,1,380.22,351.56Z"/><path class="cls-3" d="M388.9,351.56a2.94,2.94,0,1,1-2.93-2.93A2.93,2.93,0,0,1,388.9,351.56Z"/><path class="cls-3" d="M397.59,351.56a2.94,2.94,0,1,1-2.94-2.93A2.94,2.94,0,0,1,397.59,351.56Z"/><path class="cls-21" d="M11.11,351.56h4.34"/><g id="text1192"><text class="cls-4" transform="translate(2.95 354.66)"><tspan xml:space="preserve">   </tspan></text><text class="cls-10" transform="translate(2.95 354.66)">5&apos;</text><text class="cls-6" transform="translate(9.38 354.66)"> </text></g></g><text class="cls-22" transform="translate(124.17 87.17)"><tspan class="cls-23">Colours</tspan><tspan x="0" y="14.4" xml:space="preserve">    Statistically significant basepair with covariation</tspan><tspan x="0" y="28.8" xml:space="preserve">    97% conserved nucleotide</tspan><tspan x="0" y="43.2" xml:space="preserve">    90% conserved nucleotide</tspan><tspan x="0" y="57.6" xml:space="preserve">    75% conserved nucleotide</tspan><tspan x="0" y="72" xml:space="preserve">    50% conserved nucleotide</tspan><tspan class="cls-23"><tspan x="0" y="100.8">Nucleotides</tspan></tspan><tspan class="cls-23" x="0" y="115.2">R</tspan><tspan x="8.67" y="115.2">:</tspan><tspan class="cls-24" x="12" y="115.2" xml:space="preserve"> A</tspan><tspan x="22.01" y="115.2" xml:space="preserve"> or G</tspan><tspan class="cls-25" x="0" y="129.6">Y</tspan><tspan x="7.34" y="129.6">: C or U</tspan></text><rect class="cls-14" x="124.83" y="150.42" width="9" height="9"/><rect class="cls-9" x="124.83" y="136.33" width="9" height="9"/><rect class="cls-26" x="124.83" y="121.32" width="9" height="9"/><rect class="cls-3" x="124.67" y="107.32" width="9" height="9"/><rect class="cls-27" x="124.58" y="92.4" width="9" height="9"/></svg>