<?xml version="1.0" encoding="utf-8"?>
<!-- Generator: Adobe Illustrator 16.0.0, SVG Export Plug-In . SVG Version: 6.00 Build 0)  -->
<!DOCTYPE svg PUBLIC "-//W3C//DTD SVG 1.1//EN" "http://www.w3.org/Graphics/SVG/1.1/DTD/svg11.dtd">
<svg version="1.1" id="图层_1" xmlns="http://www.w3.org/2000/svg" xmlns:xlink="http://www.w3.org/1999/xlink" x="0px" y="0px"
	 width="400px" height="400px" viewBox="0 0 400 400" enable-background="new 0 0 400 400" xml:space="preserve">
<g id="ID000002">
	<g transform="translate(685.194,570.329)">
		<g transform="rotate(-0.0)">
			<text transform="matrix(1 0 0 1 -470.1002 -178.6786)" fill="#FFAADC" font-family="'ArialMT'" font-size="15.3671">G</text>
		</g>
	</g>
</g>
<g id="ID000003">
	<g transform="translate(685.194,550.567)">
		<g transform="rotate(-0.0)">
			<text transform="matrix(1 0 0 1 -470.1002 -174.1012)" fill="#FFAADC" font-family="'ArialMT'" font-size="15.3671">G</text>
		</g>
	</g>
</g>
<g id="ID000004">
	<g transform="translate(685.194,530.804)">
		<g transform="rotate(-0.0)">
			<text transform="matrix(1 0 0 1 -469.6725 -169.5228)" fill="#FFAADC" font-family="'ArialMT'" font-size="15.3671">C</text>
		</g>
	</g>
</g>
<g id="ID000005">
	<g transform="translate(685.194,511.041)">
		<g transform="rotate(-0.0)">
			<text transform="matrix(1 0 0 1 -470.1002 -164.9453)" fill="#FFAADC" font-family="'ArialMT'" font-size="15.3671">G</text>
		</g>
	</g>
</g>
<g id="ID000006">
	<g transform="translate(685.194,491.278)">
		<g transform="rotate(-0.0)">
			<text transform="matrix(1 0 0 1 -469.6725 -160.3688)" fill="#FFAADC" font-family="'ArialMT'" font-size="15.3671">U</text>
		</g>
	</g>
</g>
<g id="ID000007">
	<line fill="none" stroke="#000000" stroke-width="0.5" x1="231.194" y1="324.078" x2="241.317" y2="324.078"/>
</g>
<g id="ID000008">
	<g transform="translate(711.545,491.278)">
		<g transform="rotate(-0.0)">
			<text transform="matrix(1 0 0 1 -470.2266 -160.3688)" font-family="'ArialMT'" font-size="12">10</text>
		</g>
	</g>
</g>
<g id="ID000009">
	<g transform="translate(685.194,471.516)">
		<g transform="rotate(-0.0)">
			<text transform="matrix(1 0 0 1 -470.1002 -155.7894)" fill="#FFAADC" font-family="'ArialMT'" font-size="15.3671">G</text>
		</g>
	</g>
</g>
<g id="ID000010">
	<g transform="translate(645.669,471.516)">
		<g transform="rotate(-0.0)">
			<text transform="matrix(1 0 0 1 -460.9444 -155.7894)" fill="#FFAADC" font-family="'ArialMT'" font-size="15.3671">G</text>
		</g>
	</g>
</g>
<g id="ID000011">
	<g transform="translate(645.669,491.278)">
		<g transform="rotate(-0.0)">
			<text transform="matrix(1 0 0 1 -460.0919 -160.3688)" fill="#FFAADC" font-family="'ArialMT'" font-size="15.3671">A</text>
		</g>
	</g>
</g>
<g id="ID000012">
	<g transform="translate(645.669,511.041)">
		<g transform="rotate(-0.0)">
			<text transform="matrix(1 0 0 1 -460.5162 -164.9453)" fill="#FFAADC" font-family="'ArialMT'" font-size="15.3671">C</text>
		</g>
	</g>
</g>
<g id="ID000013">
	<g transform="translate(645.669,530.804)">
		<g transform="rotate(-0.0)">
			<text transform="matrix(1 0 0 1 -460.9444 -169.5228)" fill="#FFAADC" font-family="'ArialMT'" font-size="15.3671">G</text>
		</g>
	</g>
</g>
<g id="ID000014">
	<g transform="translate(645.669,550.567)">
		<g transform="rotate(-0.0)">
			<text transform="matrix(1 0 0 1 -460.5162 -174.1012)" fill="#FFAADC" font-family="'ArialMT'" font-size="15.3671">C</text>
		</g>
	</g>
</g>
<g id="ID000015">
	<g transform="translate(645.669,570.329)">
		<g transform="rotate(-0.0)">
			<text transform="matrix(1 0 0 1 -460.5162 -178.6786)" fill="#FFAADC" font-family="'ArialMT'" font-size="15.3671">C</text>
		</g>
	</g>
</g>
<g id="ID000016">
	<line fill="none" stroke="#000000" stroke-width="0.5" x1="214.997" y1="384.816" x2="196.775" y2="384.816"/>
</g>
<g id="ID000017">
	<line fill="none" stroke="#000000" stroke-width="0.5" x1="214.997" y1="369.631" x2="196.775" y2="369.631"/>
</g>
<g id="ID000018">
	<line fill="none" stroke="#000000" stroke-width="0.5" x1="214.997" y1="354.447" x2="196.775" y2="354.447"/>
</g>
<g id="ID000019">
	<line fill="none" stroke="#000000" stroke-width="0.5" x1="214.997" y1="339.261" x2="196.775" y2="339.261"/>
</g>
<g id="ID000020">
	<line fill="none" stroke="#000000" stroke-width="0.5" x1="214.997" y1="324.078" x2="196.775" y2="324.078"/>
</g>
<g id="ID000021">
	<line fill="none" stroke="#000000" stroke-width="0.5" x1="214.997" y1="308.891" x2="196.775" y2="308.891"/>
</g>
<g id="ID000022">
	<polygon stroke="#000000" stroke-width="0.5" points="212.871,305.855 206.798,305.855 206.798,311.93 212.871,311.93 	"/>
</g>
<g id="ID000023">
	<polygon stroke="#000000" stroke-width="0.5" points="198.901,308.891 198.907,309.086 198.927,309.277 198.956,309.467 
		198.998,309.654 199.053,309.841 199.119,310.021 199.196,310.197 199.284,310.369 199.384,310.534 199.492,310.692 
		199.612,310.844 199.74,310.987 199.878,311.121 200.023,311.248 200.178,311.365 200.338,311.473 200.504,311.567 
		200.677,311.655 200.854,311.729 201.037,311.792 201.223,311.844 201.411,311.884 201.602,311.91 201.794,311.926 201.987,311.93 
		202.18,311.919 202.371,311.898 202.561,311.865 202.748,311.82 202.932,311.762 203.111,311.693 203.287,311.612 203.458,311.522 
		203.621,311.421 203.777,311.309 203.928,311.186 204.068,311.056 204.202,310.917 204.325,310.771 204.439,310.616 
		204.545,310.452 204.638,310.284 204.72,310.109 204.791,309.931 204.853,309.746 204.9,309.561 204.937,309.371 204.963,309.18 
		204.974,308.987 204.974,308.796 204.963,308.604 204.937,308.411 204.9,308.223 204.853,308.036 204.791,307.854 204.72,307.674 
		204.638,307.5 204.545,307.332 204.439,307.171 204.325,307.015 204.202,306.867 204.068,306.729 203.928,306.596 203.777,306.475 
		203.621,306.363 203.458,306.263 203.287,306.171 203.111,306.091 202.932,306.021 202.748,305.965 202.561,305.919 
		202.371,305.886 202.18,305.864 201.987,305.855 201.794,305.858 201.602,305.872 201.411,305.902 201.223,305.94 201.037,305.991 
		200.854,306.055 200.677,306.129 200.504,306.215 200.338,306.312 200.178,306.418 200.023,306.534 199.878,306.661 
		199.74,306.795 199.612,306.939 199.492,307.091 199.384,307.251 199.284,307.416 199.196,307.587 199.119,307.762 
		199.053,307.945 198.998,308.129 198.956,308.317 198.927,308.507 198.907,308.699 	"/>
</g>
<g id="ID000025">
	<g transform="translate(685.194,451.753)">
		<g transform="rotate(-0.0)">
			<text transform="matrix(1 0 0 1 -470.1002 -151.212)" fill="#FFAADC" font-family="'ArialMT'" font-size="15.3671">G</text>
		</g>
	</g>
</g>
<g id="ID000026">
	<g transform="translate(685.194,431.990)">
		<g transform="rotate(-0.0)">
			<text transform="matrix(1 0 0 1 -469.6725 -146.6326)" fill="#FFAADC" font-family="'ArialMT'" font-size="15.3671">U</text>
		</g>
	</g>
</g>
<g id="ID000027">
	<g transform="translate(685.194,412.228)">
		<g transform="rotate(-0.0)">
			<text transform="matrix(1 0 0 1 -469.6725 -142.0551)" fill="#FFAADC" font-family="'ArialMT'" font-size="15.3671">C</text>
		</g>
	</g>
</g>
<g id="ID000028">
	<g transform="translate(685.194,392.465)">
		<g transform="rotate(-0.0)">
			<text transform="matrix(1 0 0 1 -469.6725 -137.4777)" fill="#FFAADC" font-family="'ArialMT'" font-size="15.3671">C</text>
		</g>
	</g>
</g>
<g id="ID000029">
	<g transform="translate(685.194,372.702)">
		<g transform="rotate(-0.0)">
			<text transform="matrix(1 0 0 1 -470.1002 -132.8983)" fill="#FFAADC" font-family="'ArialMT'" font-size="15.3671">G</text>
		</g>
	</g>
</g>
<g id="ID000030">
	<g transform="translate(685.194,352.939)">
		<g transform="rotate(-0.0)">
			<text transform="matrix(1 0 0 1 -469.6725 -128.3218)" fill="#FFAADC" font-family="'ArialMT'" font-size="15.3671">U</text>
		</g>
	</g>
</g>
<g id="ID000031">
	<g transform="translate(709.898,357.880)">
		<g transform="rotate(-0.0)">
			<text transform="matrix(1 0 0 1 -475.3941 -129.4669)" fill="#09FEFE" font-family="'ArialMT'" font-size="15.3671">U</text>
		</g>
	</g>
</g>
<g id="ID000032">
	<g transform="translate(729.660,352.939)">
		<g transform="rotate(-0.0)">
			<text transform="matrix(1 0 0 1 -479.9734 -128.3218)" fill="#09FEFE" font-family="'ArialMT'" font-size="15.3671">C</text>
		</g>
	</g>
</g>
<g id="ID000033">
	<g transform="translate(744.483,333.177)">
		<g transform="rotate(-0.0)">
			<text transform="matrix(1 0 0 1 -482.982 -123.7444)" fill="#09FEFE" font-family="'ArialMT'" font-size="15.3671">A</text>
		</g>
	</g>
</g>
<g id="ID000034">
	<line fill="none" stroke="#000000" stroke-width="0.5" x1="276.749" y1="202.598" x2="286.873" y2="202.598"/>
</g>
<g id="ID000035">
	<g transform="translate(770.833,333.177)">
		<g transform="rotate(-0.0)">
			<text transform="matrix(1 0 0 1 -483.959 -123.7444)" font-family="'ArialMT'" font-size="12">20</text>
		</g>
	</g>
</g>
<g id="ID000036">
	<g transform="translate(744.483,308.473)">
		<g transform="rotate(-0.0)">
			<text transform="matrix(1 0 0 1 -482.982 -118.0213)" fill="#09FEFE" font-family="'ArialMT'" font-size="15.3671">A</text>
		</g>
	</g>
</g>
<g id="ID000037">
	<g transform="translate(625.906,333.177)">
		<g transform="rotate(-0.0)">
			<text transform="matrix(1 0 0 1 -455.9382 -123.7444)" fill="#09FEFE" font-family="'ArialMT'" font-size="15.3671">U</text>
		</g>
	</g>
</g>
<g id="ID000038">
	<g transform="translate(645.669,352.939)">
		<g transform="rotate(-0.0)">
			<text transform="matrix(1 0 0 1 -460.0919 -128.3218)" fill="#FFAADC" font-family="'ArialMT'" font-size="15.3671">A</text>
		</g>
	</g>
</g>
<g id="ID000039">
	<g transform="translate(645.669,372.702)">
		<g transform="rotate(-0.0)">
			<text transform="matrix(1 0 0 1 -460.5162 -132.8983)" fill="#FFAADC" font-family="'ArialMT'" font-size="15.3671">C</text>
		</g>
	</g>
</g>
<g id="ID000040">
	<g transform="translate(645.669,392.465)">
		<g transform="rotate(-0.0)">
			<text transform="matrix(1 0 0 1 -460.9444 -137.4777)" fill="#FFAADC" font-family="'ArialMT'" font-size="15.3671">G</text>
		</g>
	</g>
</g>
<g id="ID000041">
	<g transform="translate(645.669,412.228)">
		<g transform="rotate(-0.0)">
			<text transform="matrix(1 0 0 1 -460.9444 -142.0551)" fill="#FFAADC" font-family="'ArialMT'" font-size="15.3671">G</text>
		</g>
	</g>
</g>
<g id="ID000042">
	<g transform="translate(645.669,431.990)">
		<g transform="rotate(-0.0)">
			<text transform="matrix(1 0 0 1 -460.9444 -146.6326)" fill="#FFAADC" font-family="'ArialMT'" font-size="15.3671">G</text>
		</g>
	</g>
</g>
<g id="ID000043">
	<g transform="translate(645.669,451.753)">
		<g transform="rotate(-0.0)">
			<text transform="matrix(1 0 0 1 -460.0919 -151.212)" fill="#FFAADC" font-family="'ArialMT'" font-size="15.3671">A</text>
		</g>
	</g>
</g>
<g id="ID000044">
	<line fill="none" stroke="#000000" stroke-width="0.5" x1="180.58" y1="293.708" x2="170.455" y2="293.708"/>
</g>
<g id="ID000045">
	<g transform="translate(619.319,451.753)">
		<g transform="rotate(-0.0)">
			<text transform="matrix(1 0 0 1 -465.9567 -151.212)" font-family="'ArialMT'" font-size="12">50</text>
		</g>
	</g>
</g>
<g id="ID000046">
	<line fill="none" stroke="#000000" stroke-width="0.5" x1="214.997" y1="293.708" x2="196.775" y2="293.708"/>
</g>
<g id="ID000047">
	<polygon stroke="#000000" stroke-width="0.5" points="202.85,293.708 202.855,293.898 202.874,294.092 202.904,294.283 
		202.947,294.47 203.002,294.654 203.067,294.836 203.145,295.012 203.234,295.183 203.332,295.35 203.441,295.508 203.561,295.66 
		203.689,295.803 203.826,295.938 203.972,296.064 204.125,296.181 204.286,296.287 204.453,296.384 204.625,296.469 
		204.803,296.545 204.986,296.606 205.171,296.658 205.359,296.698 205.551,296.727 205.742,296.741 205.934,296.744 
		206.128,296.734 206.319,296.713 206.509,296.681 206.696,296.634 206.881,296.578 207.059,296.507 207.236,296.429 
		207.404,296.338 207.57,296.235 207.727,296.124 207.876,296.003 208.016,295.871 208.148,295.732 208.275,295.583 
		208.388,295.429 208.493,295.268 208.586,295.1 208.668,294.925 208.741,294.746 208.801,294.563 208.85,294.376 208.885,294.188 
		208.908,293.995 208.922,293.804 208.922,293.61 208.908,293.419 208.885,293.227 208.85,293.038 208.801,292.853 208.741,292.668 
		208.668,292.489 208.586,292.316 208.493,292.147 208.388,291.984 208.275,291.829 208.148,291.683 208.016,291.543 
		207.876,291.412 207.727,291.289 207.57,291.179 207.404,291.076 207.236,290.986 207.059,290.906 206.881,290.837 206.696,290.78 
		206.509,290.734 206.319,290.7 206.128,290.679 205.934,290.67 205.742,290.672 205.551,290.689 205.359,290.715 205.171,290.757 
		204.986,290.807 204.803,290.87 204.625,290.945 204.453,291.031 204.286,291.127 204.125,291.233 203.972,291.351 
		203.826,291.477 203.689,291.611 203.561,291.755 203.441,291.906 203.332,292.064 203.234,292.231 203.145,292.401 
		203.067,292.578 203.002,292.759 202.947,292.945 202.904,293.134 202.874,293.323 202.855,293.515 	"/>
</g>
<g id="ID000048">
	<polygon stroke="#000000" stroke-width="0.5" points="202.85,278.521 202.855,278.716 202.874,278.905 202.904,279.097 
		202.947,279.286 203.002,279.471 203.067,279.651 203.145,279.828 203.234,280 203.332,280.164 203.441,280.322 203.561,280.474 
		203.689,280.618 203.826,280.754 203.972,280.88 204.125,280.997 204.286,281.104 204.453,281.199 204.625,281.285 
		204.803,281.358 204.986,281.423 205.171,281.474 205.359,281.513 205.551,281.54 205.742,281.556 205.934,281.56 206.128,281.55 
		206.319,281.528 206.509,281.495 206.696,281.449 206.881,281.391 207.059,281.323 207.236,281.242 207.404,281.151 207.57,281.05 
		207.727,280.939 207.876,280.816 208.016,280.688 208.148,280.547 208.275,280.4 208.388,280.246 208.493,280.082 208.586,279.913 
		208.668,279.739 208.741,279.561 208.801,279.378 208.85,279.193 208.885,279.002 208.908,278.812 208.922,278.617 
		208.922,278.426 208.908,278.233 208.885,278.044 208.85,277.853 208.801,277.666 208.741,277.483 208.668,277.304 
		208.586,277.129 208.493,276.962 208.388,276.8 208.275,276.645 208.148,276.497 208.016,276.358 207.876,276.228 207.727,276.106 
		207.57,275.993 207.404,275.894 207.236,275.801 207.059,275.721 206.881,275.653 206.696,275.595 206.509,275.549 
		206.319,275.516 206.128,275.496 205.934,275.486 205.742,275.489 205.551,275.504 205.359,275.532 205.171,275.57 
		204.986,275.622 204.803,275.687 204.625,275.761 204.453,275.845 204.286,275.941 204.125,276.048 203.972,276.164 
		203.826,276.292 203.689,276.426 203.561,276.569 203.441,276.723 203.332,276.881 203.234,277.046 203.145,277.217 
		203.067,277.396 203.002,277.575 202.947,277.76 202.904,277.947 202.874,278.137 202.855,278.328 	"/>
</g>
<g id="ID000049">
	<line fill="none" stroke="#000000" stroke-width="0.5" x1="214.997" y1="263.338" x2="196.775" y2="263.338"/>
</g>
<g id="ID000050">
	<line fill="none" stroke="#000000" stroke-width="0.5" x1="214.997" y1="248.153" x2="196.775" y2="248.153"/>
</g>
<g id="ID000051">
	<line fill="none" stroke="#000000" stroke-width="0.5" x1="214.997" y1="232.969" x2="196.775" y2="232.969"/>
</g>
<g id="ID000052">
	<line fill="none" stroke="#000000" stroke-width="0.5" x1="226.834" y1="215.862" x2="260.863" y2="204.519"/>
</g>
<g id="ID000053">
	<polygon stroke="#000000" stroke-width="0.5" points="236.36,212.688 243.055,214.058 240.894,207.574 	"/>
</g>
<g id="ID000054">
	<polygon stroke="#000000" stroke-width="0.5" points="249.515,205.1 243.752,207.021 245.673,212.783 251.436,210.864 	"/>
</g>
<g id="ID000055">
	<line fill="none" stroke="#000000" stroke-width="0.5" x1="214.997" y1="217.783" x2="196.775" y2="217.783"/>
</g>
<g id="ID000056">
	<line fill="none" stroke="#000000" stroke-width="0.5" x1="261.087" y1="186.11" x2="196.241" y2="215.291"/>
</g>
<g id="ID000057">
	<polygon fill="#FFFFFF" stroke="#000000" stroke-width="0.5" points="235.033,197.834 234.949,197.66 234.854,197.493 
		234.747,197.333 234.631,197.179 234.506,197.033 234.372,196.895 234.23,196.765 234.078,196.645 233.92,196.534 233.756,196.434 
		233.584,196.346 233.409,196.267 233.228,196.2 233.044,196.145 232.854,196.102 232.665,196.07 232.475,196.05 232.28,196.043 
		232.087,196.048 231.896,196.065 231.706,196.094 231.519,196.136 231.332,196.189 231.151,196.254 230.974,196.331 
		230.803,196.418 230.636,196.516 230.477,196.624 230.325,196.743 230.182,196.87 230.044,197.007 229.918,197.151 
		229.801,197.305 229.692,197.465 229.595,197.631 229.508,197.803 229.433,197.981 229.37,198.162 229.318,198.348 
		229.275,198.537 229.248,198.728 229.23,198.918 229.227,199.111 229.235,199.304 229.255,199.496 229.287,199.685 
		229.332,199.874 229.389,200.057 229.457,200.238 229.536,200.413 229.626,200.584 229.727,200.75 229.837,200.906 
		229.959,201.057 230.088,201.199 230.227,201.331 230.373,201.456 230.528,201.571 230.689,201.678 230.857,201.772 
		231.031,201.855 231.21,201.928 231.392,201.99 231.578,202.037 231.767,202.076 231.96,202.102 232.151,202.115 232.345,202.115 
		232.535,202.105 232.728,202.08 232.918,202.047 233.104,201.998 233.287,201.939 233.466,201.869 233.641,201.788 
		233.811,201.694 233.974,201.591 234.128,201.477 234.276,201.355 234.418,201.223 234.547,201.08 234.671,200.933 
		234.784,200.775 234.885,200.613 234.977,200.444 235.06,200.27 235.127,200.09 235.188,199.905 235.233,199.719 235.268,199.529 
		235.291,199.337 235.301,199.145 235.299,198.952 235.283,198.761 235.259,198.569 235.22,198.38 235.169,198.194 235.106,198.012 
			"/>
</g>
<g id="ID000058">
	<polygon fill="#FFFFFF" stroke="#000000" stroke-width="0.5" points="221.466,203.939 228.264,204.627 225.46,198.395 	"/>
</g>
<g id="ID000059">
	<line fill="none" stroke="#000000" x1="189.137" y1="151.524" x2="177.082" y2="196.73"/>
</g>
<g id="ID000060">
	<polygon stroke="#000000" stroke-width="0.5" points="188.815,170.41 185.963,172.269 184.577,174.518 183.558,176.866 
		181.152,181.463 181.358,176.279 181.642,173.735 181.561,171.095 180.012,168.062 	"/>
</g>
<g id="ID000062">
	<g transform="translate(739.542,288.710)">
		<g transform="rotate(-0.0)">
			<text transform="matrix(1 0 0 1 -482.2607 -113.4424)" fill="#09FEFE" font-family="'ArialMT'" font-size="15.3671">C</text>
		</g>
	</g>
</g>
<g id="ID000063">
	<g transform="translate(724.720,273.888)">
		<g transform="rotate(-0.0)">
			<text transform="matrix(1 0 0 1 -478.8264 -110.0106)" fill="#09FEFE" font-family="'ArialMT'" font-size="15.3671">U</text>
		</g>
	</g>
</g>
<g id="ID000064">
	<g transform="translate(704.957,268.948)">
		<g transform="rotate(-0.0)">
			<text transform="matrix(1 0 0 1 -474.249 -108.865)" fill="#09FEFE" font-family="'ArialMT'" font-size="15.3671">C</text>
		</g>
	</g>
</g>
<g id="ID000065">
	<g transform="translate(685.194,259.066)">
		<g transform="rotate(-0.0)">
			<text transform="matrix(1 0 0 1 -470.1002 -106.5768)" fill="#FF870A" font-family="'ArialMT'" font-size="15.3671">G</text>
		</g>
	</g>
</g>
<g id="ID000066">
	<g transform="translate(685.194,239.304)">
		<g transform="rotate(-0.0)">
			<text transform="matrix(1 0 0 1 -469.6725 -101.9993)" fill="#FF870A" font-family="'ArialMT'" font-size="15.3671">U</text>
		</g>
	</g>
</g>
<g id="ID000067">
	<g transform="translate(685.194,219.541)">
		<g transform="rotate(-0.0)">
			<text transform="matrix(1 0 0 1 -469.6725 -97.4204)" fill="#FF870A" font-family="'ArialMT'" font-size="15.3671">U</text>
		</g>
	</g>
</g>
<g id="ID000068">
	<g transform="translate(685.194,199.778)">
		<g transform="rotate(-0.0)">
			<text transform="matrix(1 0 0 1 -469.6725 -92.8425)" fill="#FF870A" font-family="'ArialMT'" font-size="15.3671">C</text>
		</g>
	</g>
</g>
<g id="ID000069">
	<g transform="translate(685.194,180.015)">
		<g transform="rotate(-0.0)">
			<text transform="matrix(1 0 0 1 -469.6725 -88.2645)" fill="#FF870A" font-family="'ArialMT'" font-size="15.3671">C</text>
		</g>
	</g>
</g>
<g id="ID000070">
	<g transform="translate(685.194,160.253)">
		<g transform="rotate(-0.0)">
			<text transform="matrix(1 0 0 1 -469.6725 -83.6871)" fill="#FF870A" font-family="'ArialMT'" font-size="15.3671">U</text>
		</g>
	</g>
</g>
<g id="ID000071">
	<line fill="none" stroke="#000000" stroke-width="0.5" x1="231.194" y1="69.731" x2="241.317" y2="69.731"/>
</g>
<g id="ID000072">
	<g transform="translate(711.545,160.253)">
		<g transform="rotate(-0.0)">
			<text transform="matrix(1 0 0 1 -470.2266 -83.6871)" font-family="'ArialMT'" font-size="12">30</text>
		</g>
	</g>
</g>
<g id="ID000073">
	<g transform="translate(685.194,140.490)">
		<g transform="rotate(-0.0)">
			<text transform="matrix(1 0 0 1 -469.6725 -79.1091)" fill="#FF870A" font-family="'ArialMT'" font-size="15.3671">C</text>
		</g>
	</g>
</g>
<g id="ID000074">
	<g transform="translate(685.194,115.787)">
		<g transform="rotate(-0.0)">
			<text transform="matrix(1 0 0 1 -470.1002 -73.3861)" fill="#FF870A" font-family="'ArialMT'" font-size="15.3671">G</text>
		</g>
	</g>
</g>
<g id="ID000075">
	<g transform="translate(680.254,91.083)">
		<g transform="rotate(-0.0)">
			<text transform="matrix(1 0 0 1 -468.1036 -67.6636)" fill="#FF870A" font-family="'ArialMT'" font-size="15.3671">A</text>
		</g>
	</g>
</g>
<g id="ID000076">
	<g transform="translate(655.550,91.083)">
		<g transform="rotate(-0.0)">
			<text transform="matrix(1 0 0 1 -462.3815 -67.6636)" fill="#FF870A" font-family="'ArialMT'" font-size="15.3671">A</text>
		</g>
	</g>
</g>
<g id="ID000077">
	<g transform="translate(645.669,115.787)">
		<g transform="rotate(-0.0)">
			<text transform="matrix(1 0 0 1 -460.0919 -73.3861)" fill="#FF870A" font-family="'ArialMT'" font-size="15.3671">A</text>
		</g>
	</g>
</g>
<g id="ID000078">
	<g transform="translate(645.669,140.490)">
		<g transform="rotate(-0.0)">
			<text transform="matrix(1 0 0 1 -460.9444 -79.1091)" fill="#FF870A" font-family="'ArialMT'" font-size="15.3671">G</text>
		</g>
	</g>
</g>
<g id="ID000079">
	<g transform="translate(645.669,160.253)">
		<g transform="rotate(-0.0)">
			<text transform="matrix(1 0 0 1 -460.0919 -83.6871)" fill="#FF870A" font-family="'ArialMT'" font-size="15.3671">A</text>
		</g>
	</g>
</g>
<g id="ID000080">
	<g transform="translate(645.669,180.015)">
		<g transform="rotate(-0.0)">
			<text transform="matrix(1 0 0 1 -460.9444 -88.2645)" fill="#FF870A" font-family="'ArialMT'" font-size="15.3671">G</text>
		</g>
	</g>
</g>
<g id="ID000081">
	<g transform="translate(645.669,199.778)">
		<g transform="rotate(-0.0)">
			<text transform="matrix(1 0 0 1 -460.9444 -92.8425)" fill="#FF870A" font-family="'ArialMT'" font-size="15.3671">G</text>
		</g>
	</g>
</g>
<g id="ID000082">
	<line fill="none" stroke="#000000" stroke-width="0.5" x1="180.58" y1="100.101" x2="170.455" y2="100.101"/>
</g>
<g id="ID000083">
	<g transform="translate(619.319,199.778)">
		<g transform="rotate(-0.0)">
			<text transform="matrix(1 0 0 1 -462.6237 -92.8425)" font-family="'ArialMT'" font-size="12">40</text>
		</g>
	</g>
</g>
<g id="ID000084">
	<g transform="translate(645.669,219.541)">
		<g transform="rotate(-0.0)">
			<text transform="matrix(1 0 0 1 -460.0919 -97.4204)" fill="#FF870A" font-family="'ArialMT'" font-size="15.3671">A</text>
		</g>
	</g>
</g>
<g id="ID000085">
	<g transform="translate(645.669,239.304)">
		<g transform="rotate(-0.0)">
			<text transform="matrix(1 0 0 1 -460.0919 -101.9993)" fill="#FF870A" font-family="'ArialMT'" font-size="15.3671">A</text>
		</g>
	</g>
</g>
<g id="ID000086">
	<g transform="translate(645.669,259.066)">
		<g transform="rotate(-0.0)">
			<text transform="matrix(1 0 0 1 -460.5162 -106.5768)" fill="#FF870A" font-family="'ArialMT'" font-size="15.3671">C</text>
		</g>
	</g>
</g>
<g id="ID000087">
	<line fill="none" stroke="#000000" stroke-width="0.5" x1="214.997" y1="145.655" x2="196.775" y2="145.655"/>
</g>
<g id="ID000088">
	<line fill="none" stroke="#000000" stroke-width="0.5" x1="214.997" y1="130.47" x2="196.775" y2="130.47"/>
</g>
<g id="ID000089">
	<line fill="none" stroke="#000000" stroke-width="0.5" x1="214.997" y1="115.286" x2="196.775" y2="115.286"/>
</g>
<g id="ID000090">
	<line fill="none" stroke="#000000" stroke-width="0.5" x1="214.997" y1="100.101" x2="196.775" y2="100.101"/>
</g>
<g id="ID000091">
	<line fill="none" stroke="#000000" stroke-width="0.5" x1="214.997" y1="84.916" x2="196.775" y2="84.916"/>
</g>
<g id="ID000092">
	<line fill="none" stroke="#000000" stroke-width="0.5" x1="214.997" y1="69.731" x2="196.775" y2="69.731"/>
</g>
<g id="ID000093">
	<line fill="none" stroke="#000000" stroke-width="0.5" x1="214.997" y1="54.546" x2="196.775" y2="54.546"/>
</g>
<g id="ID000094">
	<line fill="none" stroke="#000000" stroke-width="0.5" x1="214.997" y1="35.565" x2="196.775" y2="35.565"/>
</g>
<g id="ID000095">
	<polygon fill="#FFFFFF" stroke="#000000" stroke-width="0.5" points="213.779,35.565 207.861,32.149 207.861,38.982 	"/>
</g>
<g id="ID000096">
	<polygon fill="#FFFFFF" stroke="#000000" stroke-width="0.5" points="198.901,38.603 204.976,38.603 204.976,32.529 
		198.901,32.529 	"/>
</g>
<text transform="matrix(1 0 0 1 7.2095 26.2793)" fill="#251E1C" font-family="'ArialMT'" font-size="20">THF-II Riboswith</text>
<text transform="matrix(1 0 0 1 290.0527 315.7266)" fill="#FFAADC" font-family="'ArialMT'" font-size="20">P1</text>
<text transform="matrix(1 0 0 1 281.8105 106.9355)" fill="#FF870A" font-family="'ArialMT'" font-size="20">P2</text>
<text transform="matrix(1 0 0 1 290.0527 175.2676)" fill="#09FEFE" font-family="'ArialMT'" font-size="20">J1/2</text>
<text transform="matrix(1 0 0 1 104.8735 207.5742)" fill="#09FEFE" font-family="'ArialMT'" font-size="20">J2/1</text>
<text transform="matrix(1 0 0 1 170.4551 396.332)" fill="#424243" font-family="'Arial-BoldMT'" font-size="12">3’</text>
<text transform="matrix(1 0 0 1 232.2637 396.332)" fill="#424243" font-family="'Arial-BoldMT'" font-size="12">5’</text>
<text transform="matrix(1 0 0 1 153.3623 275.4863)" fill="#FF0B0C" font-family="'ArialMT'" font-size="14">RBS</text>
<rect x="183" y="242.334" fill="none" stroke="#C40018" width="14.072" height="91.333"/>
<path fill="#FF0B0C" stroke="#FF0B0C" stroke-miterlimit="10" d="M242.732,180.177c0,6.146-11.407,11.128-25.482,11.128
	c-14.073,0-25.478-4.982-25.478-11.128s11.405-11.127,25.478-11.127C231.325,169.049,242.732,174.031,242.732,180.177z"/>
<text transform="matrix(1 0 0 1 202.8496 186.1099)" fill="#FFFFFF" font-family="'ArialMT'" font-size="14">THF</text>
<line fill="none" stroke="#FF0B0C" stroke-miterlimit="10" x1="191.772" y1="181.462" x2="185.577" y2="193.571"/>
<line fill="none" stroke="#FF0B0C" stroke-miterlimit="10" x1="241.394" y1="181.462" x2="257.979" y2="174.763"/>
</svg>
