<svg id="图层_1" data-name="图层 1" xmlns="http://www.w3.org/2000/svg" viewBox="0 0 400 400"><defs><style>.cls-1,.cls-10,.cls-11,.cls-13,.cls-14,.cls-15,.cls-16,.cls-18,.cls-3,.cls-4,.cls-6,.cls-7{isolation:isolate;}.cls-1,.cls-10,.cls-11,.cls-4,.cls-6,.cls-7{font-size:15.37px;}.cls-1,.cls-13,.cls-4{fill:#ffaadc;}.cls-1,.cls-10,.cls-11,.cls-12,.cls-13,.cls-14,.cls-15,.cls-18,.cls-21,.cls-3,.cls-4,.cls-6,.cls-7{font-family:ArialMT, Arial;}.cls-19,.cls-2,.cls-22,.cls-9{fill:none;}.cls-2,.cls-5,.cls-8,.cls-9{stroke:#000;}.cls-2,.cls-5,.cls-8{stroke-width:0.5px;}.cls-16,.cls-3{font-size:12px;}.cls-11,.cls-4{letter-spacing:-0.06em;}.cls-15,.cls-6,.cls-7{fill:#09fefe;}.cls-7{letter-spacing:-0.06em;}.cls-21,.cls-8{fill:#fff;}.cls-10,.cls-11,.cls-14{fill:#ff870a;}.cls-12,.cls-13,.cls-14,.cls-15{font-size:20px;}.cls-12{fill:#251e1c;}.cls-16{fill:#424243;font-family:Arial-BoldMT, Arial;font-weight:700;}.cls-17{letter-spacing:-0.06em;}.cls-18,.cls-21{font-size:14px;}.cls-18,.cls-20{fill:#ff0b0c;}.cls-19{stroke:#c40018;}.cls-20,.cls-22{stroke:#ff0b0c;stroke-miterlimit:10;}</style></defs><g id="ID000002"><text class="cls-1" transform="translate(215.09 391.65)">G</text></g><g id="ID000003"><text class="cls-1" transform="translate(215.09 376.47)">G</text></g><g id="ID000004"><text class="cls-1" transform="translate(215.52 361.28)">C</text></g><g id="ID000005"><text class="cls-1" transform="translate(215.09 346.1)">G</text></g><g id="ID000006"><text class="cls-1" transform="translate(215.52 330.91)">U</text></g><g id="ID000007"><line class="cls-2" x1="231.19" y1="324.08" x2="241.32" y2="324.08"/></g><g id="ID000008"><text class="cls-3" transform="translate(241.32 330.91)">10</text></g><g id="ID000009"><text class="cls-1" transform="translate(215.09 315.73)">G</text></g><g id="ID000010"><text class="cls-1" transform="translate(184.72 315.73)">G</text></g><g id="ID000011"><text class="cls-4" transform="translate(185.58 330.91)">A</text></g><g id="ID000012"><text class="cls-1" transform="translate(185.15 346.1)">C</text></g><g id="ID000013"><text class="cls-1" transform="translate(184.72 361.28)">G</text></g><g id="ID000014"><text class="cls-1" transform="translate(185.15 376.47)">C</text></g><g id="ID000015"><text class="cls-1" transform="translate(185.15 391.65)">C</text></g><g id="ID000016"><line class="cls-2" x1="215" y1="384.82" x2="196.77" y2="384.82"/></g><g id="ID000017"><line class="cls-2" x1="215" y1="369.63" x2="196.77" y2="369.63"/></g><g id="ID000018"><line class="cls-2" x1="215" y1="354.45" x2="196.77" y2="354.45"/></g><g id="ID000019"><line class="cls-2" x1="215" y1="339.26" x2="196.77" y2="339.26"/></g><g id="ID000020"><line class="cls-2" x1="215" y1="324.08" x2="196.77" y2="324.08"/></g><g id="ID000021"><line class="cls-2" x1="215" y1="308.89" x2="196.77" y2="308.89"/></g><g id="ID000022"><polygon class="cls-5" points="212.87 305.86 206.8 305.86 206.8 311.93 212.87 311.93 212.87 305.86"/></g><g id="ID000023"><polygon class="cls-5" points="198.9 308.89 198.91 309.09 198.93 309.28 198.96 309.47 199 309.65 199.05 309.84 199.12 310.02 199.2 310.2 199.28 310.37 199.38 310.53 199.49 310.69 199.61 310.84 199.74 310.99 199.88 311.12 200.02 311.25 200.18 311.37 200.34 311.47 200.5 311.57 200.68 311.65 200.85 311.73 201.04 311.79 201.22 311.84 201.41 311.88 201.6 311.91 201.79 311.93 201.99 311.93 202.18 311.92 202.37 311.9 202.56 311.87 202.75 311.82 202.93 311.76 203.11 311.69 203.29 311.61 203.46 311.52 203.62 311.42 203.78 311.31 203.93 311.19 204.07 311.06 204.2 310.92 204.32 310.77 204.44 310.62 204.54 310.45 204.64 310.28 204.72 310.11 204.79 309.93 204.85 309.75 204.9 309.56 204.94 309.37 204.96 309.18 204.97 308.99 204.97 308.8 204.96 308.6 204.94 308.41 204.9 308.22 204.85 308.04 204.79 307.85 204.72 307.67 204.64 307.5 204.54 307.33 204.44 307.17 204.32 307.01 204.2 306.87 204.07 306.73 203.93 306.6 203.78 306.48 203.62 306.36 203.46 306.26 203.29 306.17 203.11 306.09 202.93 306.02 202.75 305.96 202.56 305.92 202.37 305.89 202.18 305.86 201.99 305.86 201.79 305.86 201.6 305.87 201.41 305.9 201.22 305.94 201.04 305.99 200.85 306.06 200.68 306.13 200.5 306.21 200.34 306.31 200.18 306.42 200.02 306.53 199.88 306.66 199.74 306.8 199.61 306.94 199.49 307.09 199.38 307.25 199.28 307.42 199.2 307.59 199.12 307.76 199.05 307.94 199 308.13 198.96 308.32 198.93 308.51 198.91 308.7 198.9 308.89"/></g><g id="ID000025"><text class="cls-1" transform="translate(215.09 300.54)">G</text></g><g id="ID000026"><text class="cls-1" transform="translate(215.52 285.36)">U</text></g><g id="ID000027"><text class="cls-1" transform="translate(215.52 270.17)">C</text></g><g id="ID000028"><text class="cls-1" transform="translate(215.52 254.99)">C</text></g><g id="ID000029"><text class="cls-1" transform="translate(215.09 239.8)">G</text></g><g id="ID000030"><text class="cls-1" transform="translate(215.52 224.62)">U</text></g><g id="ID000031"><text class="cls-6" transform="translate(234.5 228.41)">U</text></g><g id="ID000032"><text class="cls-6" transform="translate(249.69 224.62)">C</text></g><g id="ID000033"><text class="cls-7" transform="translate(261.5 209.43)">A</text></g><g id="ID000034"><line class="cls-2" x1="276.75" y1="202.6" x2="286.87" y2="202.6"/></g><g id="ID000035"><text class="cls-3" transform="translate(286.87 209.43)">20</text></g><g id="ID000036"><text class="cls-7" transform="translate(261.5 190.45)">A</text></g><g id="ID000037"><text class="cls-6" transform="translate(169.97 209.43)">U</text></g><g id="ID000038"><text class="cls-4" transform="translate(185.58 224.62)">A</text></g><g id="ID000039"><text class="cls-1" transform="translate(185.15 239.8)">C</text></g><g id="ID000040"><text class="cls-1" transform="translate(184.72 254.99)">G</text></g><g id="ID000041"><text class="cls-1" transform="translate(184.72 270.17)">G</text></g><g id="ID000042"><text class="cls-1" transform="translate(184.72 285.36)">G</text></g><g id="ID000043"><text class="cls-4" transform="translate(185.58 300.54)">A</text></g><g id="ID000044"><line class="cls-2" x1="180.58" y1="293.71" x2="170.46" y2="293.71"/></g><g id="ID000045"><text class="cls-3" transform="translate(153.36 300.54)">50</text></g><g id="ID000046"><line class="cls-2" x1="215" y1="293.71" x2="196.77" y2="293.71"/></g><g id="ID000047"><polygon class="cls-5" points="202.85 293.71 202.85 293.9 202.87 294.09 202.9 294.28 202.95 294.47 203 294.65 203.07 294.84 203.14 295.01 203.23 295.18 203.33 295.35 203.44 295.51 203.56 295.66 203.69 295.8 203.83 295.94 203.97 296.06 204.13 296.18 204.29 296.29 204.45 296.38 204.63 296.47 204.8 296.55 204.99 296.61 205.17 296.66 205.36 296.7 205.55 296.73 205.74 296.74 205.93 296.74 206.13 296.73 206.32 296.71 206.51 296.68 206.7 296.63 206.88 296.58 207.06 296.51 207.24 296.43 207.4 296.34 207.57 296.24 207.73 296.12 207.88 296 208.02 295.87 208.15 295.73 208.28 295.58 208.39 295.43 208.49 295.27 208.59 295.1 208.67 294.93 208.74 294.75 208.8 294.56 208.85 294.38 208.88 294.19 208.91 294 208.92 293.8 208.92 293.61 208.91 293.42 208.88 293.23 208.85 293.04 208.8 292.85 208.74 292.67 208.67 292.49 208.59 292.32 208.49 292.15 208.39 291.98 208.28 291.83 208.15 291.68 208.02 291.54 207.88 291.41 207.73 291.29 207.57 291.18 207.4 291.08 207.24 290.99 207.06 290.91 206.88 290.84 206.7 290.78 206.51 290.73 206.32 290.7 206.13 290.68 205.93 290.67 205.74 290.67 205.55 290.69 205.36 290.71 205.17 290.76 204.99 290.81 204.8 290.87 204.63 290.94 204.45 291.03 204.29 291.13 204.13 291.23 203.97 291.35 203.83 291.48 203.69 291.61 203.56 291.75 203.44 291.91 203.33 292.06 203.23 292.23 203.14 292.4 203.07 292.58 203 292.76 202.95 292.94 202.9 293.13 202.87 293.32 202.85 293.51 202.85 293.71"/></g><g id="ID000048"><polygon class="cls-5" points="202.85 278.52 202.85 278.72 202.87 278.9 202.9 279.1 202.95 279.29 203 279.47 203.07 279.65 203.14 279.83 203.23 280 203.33 280.16 203.44 280.32 203.56 280.47 203.69 280.62 203.83 280.75 203.97 280.88 204.13 281 204.29 281.1 204.45 281.2 204.63 281.29 204.8 281.36 204.99 281.42 205.17 281.47 205.36 281.51 205.55 281.54 205.74 281.56 205.93 281.56 206.13 281.55 206.32 281.53 206.51 281.5 206.7 281.45 206.88 281.39 207.06 281.32 207.24 281.24 207.4 281.15 207.57 281.05 207.73 280.94 207.88 280.82 208.02 280.69 208.15 280.55 208.28 280.4 208.39 280.25 208.49 280.08 208.59 279.91 208.67 279.74 208.74 279.56 208.8 279.38 208.85 279.19 208.88 279 208.91 278.81 208.92 278.62 208.92 278.43 208.91 278.23 208.88 278.04 208.85 277.85 208.8 277.67 208.74 277.48 208.67 277.3 208.59 277.13 208.49 276.96 208.39 276.8 208.28 276.64 208.15 276.5 208.02 276.36 207.88 276.23 207.73 276.11 207.57 275.99 207.4 275.89 207.24 275.8 207.06 275.72 206.88 275.65 206.7 275.6 206.51 275.55 206.32 275.52 206.13 275.5 205.93 275.49 205.74 275.49 205.55 275.5 205.36 275.53 205.17 275.57 204.99 275.62 204.8 275.69 204.63 275.76 204.45 275.85 204.29 275.94 204.13 276.05 203.97 276.16 203.83 276.29 203.69 276.43 203.56 276.57 203.44 276.72 203.33 276.88 203.23 277.05 203.14 277.22 203.07 277.4 203 277.57 202.95 277.76 202.9 277.95 202.87 278.14 202.85 278.33 202.85 278.52"/></g><g id="ID000049"><line class="cls-2" x1="215" y1="263.34" x2="196.77" y2="263.34"/></g><g id="ID000050"><line class="cls-2" x1="215" y1="248.15" x2="196.77" y2="248.15"/></g><g id="ID000051"><line class="cls-2" x1="215" y1="232.97" x2="196.77" y2="232.97"/></g><g id="ID000052"><line class="cls-2" x1="226.83" y1="215.86" x2="260.86" y2="204.52"/></g><g id="ID000053"><polygon class="cls-5" points="236.36 212.69 243.06 214.06 240.89 207.57 236.36 212.69"/></g><g id="ID000054"><polygon class="cls-5" points="249.51 205.1 243.75 207.02 245.67 212.78 251.44 210.86 249.51 205.1"/></g><g id="ID000055"><line class="cls-2" x1="215" y1="217.78" x2="196.77" y2="217.78"/></g><g id="ID000056"><line class="cls-2" x1="261.09" y1="186.11" x2="196.24" y2="215.29"/></g><g id="ID000057"><polygon class="cls-8" points="235.03 197.83 234.95 197.66 234.85 197.49 234.75 197.33 234.63 197.18 234.51 197.03 234.37 196.9 234.23 196.76 234.08 196.65 233.92 196.53 233.76 196.43 233.58 196.35 233.41 196.27 233.23 196.2 233.04 196.15 232.85 196.1 232.66 196.07 232.47 196.05 232.28 196.04 232.09 196.05 231.9 196.06 231.71 196.09 231.52 196.14 231.33 196.19 231.15 196.25 230.97 196.33 230.8 196.42 230.64 196.52 230.48 196.62 230.32 196.74 230.18 196.87 230.04 197.01 229.92 197.15 229.8 197.31 229.69 197.47 229.59 197.63 229.51 197.8 229.43 197.98 229.37 198.16 229.32 198.35 229.28 198.54 229.25 198.73 229.23 198.92 229.23 199.11 229.24 199.3 229.25 199.5 229.29 199.69 229.33 199.87 229.39 200.06 229.46 200.24 229.54 200.41 229.63 200.58 229.73 200.75 229.84 200.91 229.96 201.06 230.09 201.2 230.23 201.33 230.37 201.46 230.53 201.57 230.69 201.68 230.86 201.77 231.03 201.85 231.21 201.93 231.39 201.99 231.58 202.04 231.77 202.08 231.96 202.1 232.15 202.12 232.34 202.12 232.53 202.1 232.73 202.08 232.92 202.05 233.1 202 233.29 201.94 233.47 201.87 233.64 201.79 233.81 201.69 233.97 201.59 234.13 201.48 234.28 201.35 234.42 201.22 234.55 201.08 234.67 200.93 234.78 200.78 234.88 200.61 234.98 200.44 235.06 200.27 235.13 200.09 235.19 199.91 235.23 199.72 235.27 199.53 235.29 199.34 235.3 199.15 235.3 198.95 235.28 198.76 235.26 198.57 235.22 198.38 235.17 198.19 235.11 198.01 235.03 197.83"/></g><g id="ID000058"><polygon class="cls-8" points="221.47 203.94 228.26 204.63 225.46 198.4 221.47 203.94"/></g><g id="ID000059"><line class="cls-9" x1="189.14" y1="151.52" x2="177.08" y2="196.73"/></g><g id="ID000060"><polygon class="cls-5" points="188.81 170.41 185.96 172.27 184.58 174.52 183.56 176.87 181.15 181.46 181.36 176.28 181.64 173.74 181.56 171.09 180.01 168.06 188.81 170.41"/></g><g id="ID000062"><text class="cls-6" transform="translate(257.28 175.27)">C</text></g><g id="ID000063"><text class="cls-6" transform="translate(245.89 163.88)">U</text></g><g id="ID000064"><text class="cls-6" transform="translate(230.71 160.08)">C</text></g><g id="ID000065"><text class="cls-10" transform="translate(215.09 152.49)">G</text></g><g id="ID000066"><text class="cls-10" transform="translate(215.52 137.3)">U</text></g><g id="ID000067"><text class="cls-10" transform="translate(215.52 122.12)">U</text></g><g id="ID000068"><text class="cls-10" transform="translate(215.52 106.94)">C</text></g><g id="ID000069"><text class="cls-10" transform="translate(215.52 91.75)">C</text></g><g id="ID000070"><text class="cls-10" transform="translate(215.52 76.57)">U</text></g><g id="ID000071"><line class="cls-2" x1="231.19" y1="69.73" x2="241.32" y2="69.73"/></g><g id="ID000072"><text class="cls-3" transform="translate(241.32 76.57)">30</text></g><g id="ID000073"><text class="cls-10" transform="translate(215.52 61.38)">C</text></g><g id="ID000074"><text class="cls-10" transform="translate(215.09 42.4)">G</text></g><g id="ID000075"><text class="cls-11" transform="translate(212.15 23.42)">A</text></g><g id="ID000076"><text class="cls-11" transform="translate(193.17 23.42)">A</text></g><g id="ID000077"><text class="cls-11" transform="translate(185.58 42.4)">A</text></g><g id="ID000078"><text class="cls-10" transform="translate(184.72 61.38)">G</text></g><g id="ID000079"><text class="cls-11" transform="translate(185.58 76.57)">A</text></g><g id="ID000080"><text class="cls-10" transform="translate(184.72 91.75)">G</text></g><g id="ID000081"><text class="cls-10" transform="translate(184.72 106.94)">G</text></g><g id="ID000082"><line class="cls-2" x1="180.58" y1="100.1" x2="170.46" y2="100.1"/></g><g id="ID000083"><text class="cls-3" transform="translate(156.7 106.94)">40</text></g><g id="ID000084"><text class="cls-11" transform="translate(185.58 122.12)">A</text></g><g id="ID000085"><text class="cls-11" transform="translate(185.58 137.3)">A</text></g><g id="ID000086"><text class="cls-10" transform="translate(185.15 152.49)">C</text></g><g id="ID000087"><line class="cls-2" x1="215" y1="145.66" x2="196.77" y2="145.66"/></g><g id="ID000088"><line class="cls-2" x1="215" y1="130.47" x2="196.77" y2="130.47"/></g><g id="ID000089"><line class="cls-2" x1="215" y1="115.29" x2="196.77" y2="115.29"/></g><g id="ID000090"><line class="cls-2" x1="215" y1="100.1" x2="196.77" y2="100.1"/></g><g id="ID000091"><line class="cls-2" x1="215" y1="84.92" x2="196.77" y2="84.92"/></g><g id="ID000092"><line class="cls-2" x1="215" y1="69.73" x2="196.77" y2="69.73"/></g><g id="ID000093"><line class="cls-2" x1="215" y1="54.55" x2="196.77" y2="54.55"/></g><g id="ID000094"><line class="cls-2" x1="215" y1="35.56" x2="196.77" y2="35.56"/></g><g id="ID000095"><polygon class="cls-8" points="213.78 35.56 207.86 32.15 207.86 38.98 213.78 35.56"/></g><g id="ID000096"><polygon class="cls-8" points="198.9 38.6 204.98 38.6 204.98 32.53 198.9 32.53 198.9 38.6"/></g><text class="cls-12" transform="translate(3.29 17.48)">THF-II Riboswith</text><text class="cls-13" transform="translate(290.05 315.73)">P1</text><text class="cls-14" transform="translate(281.81 106.94)">P2</text><text class="cls-15" transform="translate(290.05 175.27)">J1/2</text><text class="cls-15" transform="translate(104.87 207.57)">J2/1</text><text class="cls-16" transform="translate(170.46 396.33)">3<tspan class="cls-17" x="6.67" y="0">’</tspan></text><text class="cls-16" transform="translate(232.26 396.33)">5<tspan class="cls-17" x="6.67" y="0">’</tspan></text><text class="cls-18" transform="translate(153.36 275.49)">RBS</text><rect class="cls-19" x="183" y="242.33" width="14.07" height="91.33"/><path class="cls-20" d="M242.73,180.18c0,6.14-11.4,11.12-25.48,11.12s-25.48-5-25.48-11.12,11.41-11.13,25.48-11.13S242.73,174,242.73,180.18Z"/><text class="cls-21" transform="translate(202.85 186.11)">THF</text><line class="cls-22" x1="191.77" y1="181.46" x2="185.58" y2="193.57"/><line class="cls-22" x1="241.39" y1="181.46" x2="257.98" y2="174.76"/></svg>