<?xml version="1.0" encoding="utf-8"?>
<!-- Generator: Adobe Illustrator 25.4.1, SVG Export Plug-In . SVG Version: 6.00 Build 0)  -->
<svg version="1.1" id="图层_1" xmlns="http://www.w3.org/2000/svg" xmlns:xlink="http://www.w3.org/1999/xlink" x="0px" y="0px"
	 viewBox="0 0 400 400" style="enable-background:new 0 0 400 400;" xml:space="preserve">
<style type="text/css">
	.st0{fill:#FFDF5C;}
	.st1{font-family:'ArialMT';}
	.st2{font-size:13.5px;}
	.st3{fill:#324B9A;}
	.st4{font-size:11px;}
	.st5{fill:none;stroke:#000000;stroke-width:0.1429;stroke-miterlimit:1.1429;}
	.st6{stroke:#000000;stroke-width:0.1429;stroke-miterlimit:1.1429;}
	.st7{fill:#FFFFFF;stroke:#000000;stroke-width:0.1429;stroke-miterlimit:1.1429;}
	.st8{fill:#D7A0BE;}
	.st9{fill:none;stroke:#000000;stroke-width:1.2857;stroke-miterlimit:1.1429;}
	.st10{fill:#09FEFE;}
	.st11{fill:#79B18A;}
	.st12{font-size:14px;}
	.st13{font-size:18px;}
	.st14{enable-background:new    ;}
	.st15{fill:#C40018;}
	.st16{fill:#FFFFFF;}
</style>
<g transform="translate(703.532,683.817)">
	<g>
		<g transform="rotate(-0.0)">
			<text transform="matrix(1 0 0 1 -527.2109 -320.432)" class="st0 st1 st2">G</text>
		</g>
	</g>
</g>
<g transform="translate(703.532,655.560)">
	<g>
		<g transform="rotate(-0.0)">
			<text transform="matrix(1 0 0 1 -526.4624 -305.7981)" class="st0 st1 st2">A</text>
		</g>
	</g>
</g>
<g transform="translate(703.532,627.303)">
	<g>
		<g transform="rotate(-0.0)">
			<text transform="matrix(1 0 0 1 -527.2109 -291.1621)" class="st0 st1 st2">G</text>
		</g>
	</g>
</g>
<g transform="translate(703.532,599.046)">
	<g>
		<g transform="rotate(-0.0)">
			<text transform="matrix(1 0 0 1 -526.835 -276.5273)" class="st0 st1 st2">U</text>
		</g>
	</g>
</g>
<g transform="translate(703.532,570.789)">
	<g>
		<g transform="rotate(-0.0)">
			<text transform="matrix(1 0 0 1 -526.4624 -261.8913)" class="st0 st1 st2">A</text>
		</g>
	</g>
</g>
<g transform="translate(668.211,570.789)">
	<g>
		<g transform="rotate(-0.0)">
			<text transform="matrix(1 0 0 1 -508.9168 -261.8913)" class="st3 st1 st2">G</text>
		</g>
	</g>
</g>
<g transform="translate(632.890,570.789)">
	<g>
		<g transform="rotate(-0.0)">
			<text transform="matrix(1 0 0 1 -489.8741 -261.8913)" class="st3 st1 st2">A</text>
		</g>
	</g>
</g>
<g transform="translate(597.569,549.596)">
	<g>
		<g transform="rotate(-0.0)">
			<text transform="matrix(1 0 0 1 -471.58 -250.9142)" class="st3 st1 st2">A</text>
		</g>
	</g>
</g>
<g transform="translate(802.431,535.468)">
	<g>
		<g transform="rotate(-0.0)">
			<text transform="matrix(1 0 0 1 -584.5177 -245.6407)" class="st3 st1 st2">U</text>
		</g>
	</g>
</g>
<g transform="translate(840.107,535.468)">
	<g transform="rotate(-0.0)">
		<text transform="matrix(1 0 0 1 -608.9311 -245.4783)" class="st1 st4">40</text>
	</g>
</g>
<g transform="translate(760.046,570.789)">
	<g>
		<g transform="rotate(-0.0)">
			<text transform="matrix(1 0 0 1 -556.1053 -261.8913)" class="st0 st1 st2">U</text>
		</g>
	</g>
</g>
<g transform="translate(760.046,599.046)">
	<g>
		<g transform="rotate(-0.0)">
			<text transform="matrix(1 0 0 1 -556.4813 -276.5273)" class="st0 st1 st2">G</text>
		</g>
	</g>
</g>
<g transform="translate(760.046,627.303)">
	<g>
		<g transform="rotate(-0.0)">
			<text transform="matrix(1 0 0 1 -556.1053 -291.1621)" class="st0 st1 st2">C</text>
		</g>
	</g>
</g>
<g transform="translate(760.046,655.560)">
	<g>
		<g transform="rotate(-0.0)">
			<text transform="matrix(1 0 0 1 -556.1053 -305.7981)" class="st0 st1 st2">U</text>
		</g>
	</g>
</g>
<g transform="translate(760.046,683.817)">
	<g>
		<g transform="rotate(-0.0)">
			<text transform="matrix(1 0 0 1 -556.1053 -320.432)" class="st0 st1 st2">C</text>
		</g>
	</g>
</g>
<g transform="translate(760.046,712.073)">
	<g>
		<g transform="rotate(-0.0)">
			<text transform="matrix(1 0 0 1 -556.1053 -335.0679)" class="st0 st1 st2">C</text>
		</g>
	</g>
</g>
<g transform="translate(703.532,712.073)">
	<g>
		<g transform="rotate(-0.0)">
			<text transform="matrix(1 0 0 1 -527.2109 -335.0679)" class="st0 st1 st2">G</text>
		</g>
	</g>
</g>
<line class="st5" x1="187" y1="357.3" x2="203.4" y2="357.3"/>
<line class="st5" x1="187" y1="343.6" x2="203.4" y2="343.6"/>
<line class="st5" x1="187" y1="330" x2="203.4" y2="330"/>
<polygon class="st6" points="197.9,316.4 197.9,316.2 197.9,316 197.9,315.9 197.8,315.7 197.8,315.5 197.7,315.4 197.7,315.2 
	197.6,315.1 197.5,314.9 197.4,314.8 197.3,314.6 197.2,314.5 197,314.4 196.9,314.3 196.8,314.2 196.6,314.1 196.5,314 
	196.3,313.9 196.2,313.8 196,313.8 195.8,313.7 195.7,313.7 195.5,313.7 195.3,313.7 195.1,313.7 195,313.7 194.8,313.7 
	194.6,313.7 194.5,313.8 194.3,313.8 194.1,313.9 194,313.9 193.8,314 193.7,314.1 193.5,314.2 193.4,314.3 193.3,314.4 
	193.2,314.6 193.1,314.7 192.9,314.8 192.9,315 192.8,315.1 192.7,315.3 192.6,315.5 192.6,315.6 192.5,315.8 192.5,316 
	192.5,316.1 192.5,316.3 192.5,316.5 192.5,316.6 192.5,316.8 192.5,317 192.6,317.2 192.6,317.3 192.7,317.5 192.8,317.6 
	192.9,317.8 192.9,317.9 193.1,318.1 193.2,318.2 193.3,318.3 193.4,318.4 193.5,318.6 193.7,318.7 193.8,318.7 194,318.8 
	194.1,318.9 194.3,319 194.5,319 194.6,319.1 194.8,319.1 195,319.1 195.1,319.1 195.3,319.1 195.5,319.1 195.7,319.1 195.8,319 
	196,319 196.2,318.9 196.3,318.9 196.5,318.8 196.6,318.7 196.8,318.6 196.9,318.5 197,318.4 197.2,318.3 197.3,318.1 197.4,318 
	197.5,317.9 197.6,317.7 197.7,317.6 197.7,317.4 197.8,317.2 197.8,317.1 197.9,316.9 197.9,316.7 197.9,316.6 "/>
<line class="st5" x1="187" y1="302.8" x2="203.4" y2="302.8"/>
<polyline class="st5" points="164.5,308.2 164.5,323.2 202,323.2 205,320.2 "/>
<polygon class="st7" points="161.8,309.4 161.8,314.9 167.3,314.9 167.3,309.4 "/>
<polygon class="st7" points="164.5,322.8 167.6,317.5 161.5,317.5 "/>
<polyline class="st5" points="135.9,292.6 208.8,292.6 208.8,297.3 "/>
<polygon class="st6" points="166.1,292.6 166.1,292.7 166.1,292.9 166.2,293.1 166.2,293.2 166.2,293.4 166.3,293.6 166.4,293.7 
	166.5,293.9 166.5,294 166.6,294.2 166.7,294.3 166.9,294.4 167,294.6 167.1,294.7 167.3,294.8 167.4,294.9 167.5,295 167.7,295 
	167.9,295.1 168,295.2 168.2,295.2 168.4,295.2 168.5,295.3 168.7,295.3 168.9,295.3 169.1,295.3 169.2,295.2 169.4,295.2 
	169.6,295.2 169.7,295.1 169.9,295.1 170,295 170.2,294.9 170.3,294.8 170.5,294.7 170.6,294.6 170.7,294.5 170.9,294.4 171,294.2 
	171.1,294.1 171.2,294 171.3,293.8 171.3,293.6 171.4,293.5 171.4,293.3 171.5,293.2 171.5,293 171.5,292.8 171.6,292.6 
	171.6,292.5 171.5,292.3 171.5,292.1 171.5,292 171.4,291.8 171.4,291.6 171.3,291.5 171.3,291.3 171.2,291.2 171.1,291 171,290.9 
	170.9,290.7 170.7,290.6 170.6,290.5 170.5,290.4 170.3,290.3 170.2,290.2 170,290.1 169.9,290 169.7,290 169.6,289.9 169.4,289.9 
	169.2,289.9 169.1,289.8 168.9,289.8 168.7,289.8 168.5,289.8 168.4,289.9 168.2,289.9 168,290 167.9,290 167.7,290.1 167.5,290.2 
	167.4,290.2 167.3,290.3 167.1,290.4 167,290.6 166.9,290.7 166.7,290.8 166.6,290.9 166.5,291.1 166.5,291.2 166.4,291.4 
	166.3,291.5 166.2,291.7 166.2,291.9 166.2,292 166.1,292.2 166.1,292.4 "/>
<polygon class="st6" points="179.5,292.6 174.1,289.5 174.1,295.6 "/>
<line class="st5" x1="203.4" y1="370.9" x2="187" y2="370.9"/>
<polygon class="st6" points="192.5,370.9 192.5,371 192.5,371.2 192.5,371.4 192.6,371.6 192.6,371.7 192.7,371.9 192.7,372 
	192.8,372.2 192.9,372.3 193,372.5 193.1,372.6 193.2,372.8 193.3,372.9 193.5,373 193.6,373.1 193.8,373.2 193.9,373.3 
	194.1,373.4 194.2,373.4 194.4,373.5 194.5,373.5 194.7,373.6 194.9,373.6 195.1,373.6 195.2,373.6 195.4,373.6 195.6,373.6 
	195.7,373.5 195.9,373.5 196.1,373.4 196.2,373.4 196.4,373.3 196.6,373.2 196.7,373.1 196.8,373 197,372.9 197.1,372.8 
	197.2,372.7 197.3,372.6 197.4,372.4 197.5,372.3 197.6,372.1 197.7,372 197.8,371.8 197.8,371.6 197.8,371.5 197.9,371.3 
	197.9,371.1 197.9,371 197.9,370.8 197.9,370.6 197.9,370.4 197.8,370.3 197.8,370.1 197.8,369.9 197.7,369.8 197.6,369.6 
	197.5,369.5 197.4,369.3 197.3,369.2 197.2,369.1 197.1,368.9 197,368.8 196.8,368.7 196.7,368.6 196.6,368.5 196.4,368.4 
	196.2,368.4 196.1,368.3 195.9,368.2 195.7,368.2 195.6,368.2 195.4,368.2 195.2,368.2 195.1,368.2 194.9,368.2 194.7,368.2 
	194.5,368.2 194.4,368.3 194.2,368.3 194.1,368.4 193.9,368.5 193.8,368.6 193.6,368.7 193.5,368.8 193.3,368.9 193.2,369 
	193.1,369.1 193,369.3 192.9,369.4 192.8,369.6 192.7,369.7 192.7,369.9 192.6,370 192.6,370.2 192.5,370.4 192.5,370.5 
	192.5,370.7 "/>
<g transform="translate(597.569,514.275)">
	<g>
		<g transform="rotate(-0.0)">
			<text transform="matrix(1 0 0 1 -472.3285 -232.6205)" class="st3 st1 st2">G</text>
		</g>
	</g>
</g>
<g transform="translate(559.893,514.275)">
	<g transform="rotate(-0.0)">
		<text transform="matrix(1 0 0 1 -453.3111 -232.1095)" class="st1 st4">10</text>
	</g>
</g>
<g transform="translate(632.890,493.083)">
	<g>
		<g transform="rotate(-0.0)">
			<text transform="matrix(1 0 0 1 -490.2467 -221.6443)" class="st3 st1 st2">C</text>
		</g>
	</g>
</g>
<g transform="translate(668.211,486.018)">
	<g>
		<g transform="rotate(-0.0)">
			<text transform="matrix(1 0 0 1 -508.9168 -217.9846)" class="st3 st1 st2">G</text>
		</g>
	</g>
</g>
<g transform="translate(703.532,464.826)">
	<g>
		<g transform="rotate(-0.0)">
			<text transform="matrix(1 0 0 1 -526.835 -207.0084)" class="st8 st1 st2">U</text>
		</g>
	</g>
</g>
<g transform="translate(703.532,436.569)">
	<g>
		<g transform="rotate(-0.0)">
			<text transform="matrix(1 0 0 1 -526.835 -192.3735)" class="st8 st1 st2">U</text>
		</g>
	</g>
</g>
<g transform="translate(760.046,436.569)">
	<g>
		<g transform="rotate(-0.0)">
			<text transform="matrix(1 0 0 1 -555.7328 -192.3735)" class="st8 st1 st2">A</text>
		</g>
	</g>
</g>
<g transform="translate(760.046,464.826)">
	<g>
		<g transform="rotate(-0.0)">
			<text transform="matrix(1 0 0 1 -555.7328 -207.0084)" class="st8 st1 st2">A</text>
		</g>
	</g>
</g>
<g transform="translate(788.303,493.083)">
	<g>
		<g transform="rotate(-0.0)">
			<text transform="matrix(1 0 0 1 -570.3691 -221.6443)" class="st3 st1 st2">A</text>
		</g>
	</g>
</g>
<polyline class="st5" points="147.5,259.9 147.5,207.4 159.1,207.4 "/>
<polygon class="st6" points="147.5,230.9 147.3,230.9 147.2,230.9 147,231 146.8,231 146.7,231.1 146.5,231.1 146.3,231.2 
	146.2,231.3 146,231.3 145.9,231.4 145.8,231.6 145.6,231.7 145.5,231.8 145.4,231.9 145.3,232.1 145.2,232.2 145.1,232.4 
	145,232.5 145,232.7 144.9,232.8 144.9,233 144.8,233.2 144.8,233.3 144.8,233.5 144.8,233.7 144.8,233.9 144.8,234 144.9,234.2 
	144.9,234.4 144.9,234.5 145,234.7 145.1,234.8 145.2,235 145.2,235.1 145.3,235.3 145.5,235.4 145.6,235.5 145.7,235.7 
	145.8,235.8 146,235.9 146.1,236 146.3,236.1 146.4,236.1 146.6,236.2 146.7,236.3 146.9,236.3 147.1,236.3 147.3,236.4 
	147.4,236.4 147.6,236.4 147.8,236.4 147.9,236.3 148.1,236.3 148.3,236.3 148.4,236.2 148.6,236.1 148.8,236.1 148.9,236 
	149.1,235.9 149.2,235.8 149.3,235.7 149.5,235.5 149.6,235.4 149.7,235.3 149.8,235.1 149.9,235 150,234.8 150,234.7 150.1,234.5 
	150.1,234.4 150.2,234.2 150.2,234 150.2,233.9 150.2,233.7 150.2,233.5 150.2,233.3 150.2,233.2 150.2,233 150.1,232.8 
	150.1,232.7 150,232.5 149.9,232.4 149.8,232.2 149.7,232.1 149.6,231.9 149.5,231.8 149.4,231.7 149.3,231.6 149.1,231.4 
	149,231.3 148.8,231.3 148.7,231.2 148.5,231.1 148.4,231.1 148.2,231 148,231 147.9,230.9 147.7,230.9 "/>
<polyline class="st5" points="160.7,258.1 161.1,258.5 161.1,248.3 178.2,248.3 177.7,247.8 "/>
<polygon class="st6" points="162.6,248.3 167.9,251.3 167.9,245.2 "/>
<polygon class="st6" points="175.9,245.6 170.5,245.6 170.5,251 175.9,251 "/>
<line class="st5" x1="187" y1="251.7" x2="203.4" y2="251.7"/>
<line class="st9" x1="185.4" y1="234.2" x2="205" y2="214.7"/>
<polygon class="st6" points="195.5,219.1 198.1,218.9 199.9,218 201.5,216.8 204.8,214.7 202.7,218 201.5,219.6 200.6,221.4 
	200.4,224 "/>
<line class="st5" x1="187" y1="238.1" x2="203.4" y2="238.1"/>
<line class="st9" x1="185.4" y1="214.7" x2="205" y2="234.2"/>
<polygon class="st6" points="200.2,224.9 200.4,227.5 201.3,229.3 202.5,230.9 204.6,234.2 201.3,232.1 199.7,230.9 197.9,230 
	195.3,229.8 "/>
<polyline class="st5" points="169.1,204.4 174.8,200.6 222.4,200.6 222.4,259.9 "/>
<polygon class="st7" points="222.4,223.2 219.4,228.5 225.5,228.5 "/>
<polygon class="st7" points="222.4,236.5 222.6,236.5 222.8,236.5 223,236.5 223.1,236.4 223.3,236.4 223.4,236.3 223.6,236.2 
	223.8,236.2 223.9,236.1 224.1,236 224.2,235.9 224.3,235.7 224.4,235.6 224.5,235.5 224.7,235.4 224.8,235.2 224.8,235.1 
	224.9,234.9 225,234.7 225,234.6 225.1,234.4 225.1,234.2 225.1,234.1 225.2,233.9 225.2,233.7 225.2,233.6 225.1,233.4 
	225.1,233.2 225.1,233 225,232.9 224.9,232.7 224.9,232.6 224.8,232.4 224.7,232.3 224.6,232.1 224.5,232 224.4,231.9 224.3,231.7 
	224.1,231.6 224,231.5 223.8,231.4 223.7,231.4 223.5,231.3 223.4,231.2 223.2,231.2 223,231.1 222.9,231.1 222.7,231.1 
	222.5,231.1 222.3,231.1 222.2,231.1 222,231.1 221.8,231.1 221.7,231.2 221.5,231.2 221.3,231.3 221.2,231.4 221,231.4 
	220.9,231.5 220.8,231.6 220.6,231.7 220.5,231.9 220.4,232 220.3,232.1 220.2,232.3 220.1,232.4 220,232.6 219.9,232.7 
	219.9,232.9 219.8,233 219.8,233.2 219.7,233.4 219.7,233.6 219.7,233.7 219.7,233.9 219.7,234.1 219.8,234.2 219.8,234.4 
	219.8,234.6 219.9,234.7 220,234.9 220,235.1 220.1,235.2 220.2,235.4 220.3,235.5 220.4,235.6 220.6,235.7 220.7,235.9 220.8,236 
	221,236.1 221.1,236.2 221.3,236.2 221.4,236.3 221.6,236.4 221.8,236.4 221.9,236.5 222.1,236.5 222.3,236.5 "/>
<g transform="translate(760.046,380.055)">
	<g>
		<g transform="rotate(-0.0)">
			<text transform="matrix(1 0 0 1 -556.1053 -163.1036)" class="st8 st1 st2">C</text>
		</g>
	</g>
</g>
<g transform="translate(774.174,330.606)">
	<g>
		<g transform="rotate(-0.0)">
			<text transform="matrix(1 0 0 1 -563.0722 -144.3411)" class="st10 st1 st2">A</text>
		</g>
	</g>
</g>
<g transform="translate(654.083,344.734)">
	<g>
		<g transform="rotate(-0.0)">
			<text transform="matrix(1 0 0 1 -501.2239 -144.808)" class="st10 st1 st2">C</text>
		</g>
	</g>
</g>
<g transform="translate(668.211,372.991)">
	<g>
		<g transform="rotate(-0.0)">
			<text transform="matrix(1 0 0 1 -508.9168 -159.4439)" class="st10 st1 st2">G</text>
		</g>
	</g>
</g>
<g transform="translate(703.532,380.055)">
	<g>
		<g transform="rotate(-0.0)">
			<text transform="matrix(1 0 0 1 -529.384 -163.1036)" class="st8 st1 st2">G</text>
		</g>
	</g>
</g>
<line class="st5" x1="203.4" y1="210.8" x2="187" y2="210.8"/>
<polygon class="st6" points="187.8,180.3 187.8,180.4 187.8,180.6 187.8,180.8 187.8,180.9 187.8,181.1 187.9,181.3 187.9,181.4 
	188,181.6 188.1,181.8 188.1,181.9 188.2,182.1 188.3,182.2 188.4,182.4 188.5,182.5 188.7,182.6 188.8,182.7 188.9,182.8 
	189.1,182.9 189.2,183 189.4,183.1 189.5,183.2 189.7,183.2 189.9,183.3 190,183.3 190.2,183.3 190.4,183.3 190.5,183.3 
	190.7,183.3 190.9,183.3 191.1,183.3 191.2,183.2 191.4,183.2 191.6,183.1 191.7,183.1 191.9,183 192,182.9 192.2,182.8 
	192.3,182.7 192.4,182.6 192.5,182.4 192.7,182.3 192.8,182.2 192.8,182 192.9,181.9 193,181.7 193.1,181.6 193.1,181.4 
	193.2,181.2 193.2,181.1 193.2,180.9 193.2,180.7 193.2,180.5 193.2,180.4 193.2,180.2 193.2,180 193.1,179.9 193.1,179.7 
	193,179.5 192.9,179.4 192.9,179.2 192.8,179.1 192.7,178.9 192.6,178.8 192.4,178.7 192.3,178.6 192.2,178.5 192,178.4 
	191.9,178.3 191.7,178.2 191.6,178.1 191.4,178 191.3,178 191.1,177.9 190.9,177.9 190.7,177.9 190.6,177.9 190.4,177.9 
	190.2,177.9 190.1,177.9 189.9,178 189.7,178 189.6,178.1 189.4,178.1 189.2,178.2 189.1,178.3 189,178.4 188.8,178.5 188.7,178.6 
	188.6,178.7 188.4,178.9 188.3,179 188.2,179.1 188.1,179.3 188.1,179.4 188,179.6 187.9,179.7 187.9,179.9 187.8,180.1 "/>
<g transform="translate(752.982,295.284)">
	<g>
		<g transform="rotate(-0.0)">
			<text transform="matrix(1 0 0 1 -552.8231 -119.1959)" class="st11 st1 st2">G</text>
		</g>
	</g>
</g>
<g transform="translate(752.982,267.028)">
	<g>
		<g transform="rotate(-0.0)">
			<text transform="matrix(1 0 0 1 -552.4476 -104.562)" class="st11 st1 st2">C</text>
		</g>
	</g>
</g>
<g transform="translate(752.982,238.771)">
	<g>
		<g transform="rotate(-0.0)">
			<text transform="matrix(1 0 0 1 -552.8231 -89.9261)" class="st11 st1 st2">G</text>
		</g>
	</g>
</g>
<g transform="translate(752.982,210.514)">
	<g>
		<g transform="rotate(-0.0)">
			<text transform="matrix(1 0 0 1 -552.8231 -75.2902)" class="st11 st1 st2">G</text>
		</g>
	</g>
</g>
<g transform="translate(790.657,210.514)">
	<g transform="rotate(-0.0)">
		<text transform="matrix(1 0 0 1 -577.3147 -75.1283)" class="st1 st4">20</text>
	</g>
</g>
<g transform="translate(752.982,182.257)">
	<g>
		<g transform="rotate(-0.0)">
			<text transform="matrix(1 0 0 1 -552.4476 -60.6552)" class="st11 st1 st2">C</text>
		</g>
	</g>
</g>
<g transform="translate(752.982,154.000)">
	<g>
		<g transform="rotate(-0.0)">
			<text transform="matrix(1 0 0 1 -552.4476 -46.0203)" class="st11 st1 st2">C</text>
		</g>
	</g>
</g>
<g transform="translate(760.046,118.679)">
	<g>
		<g transform="rotate(-0.0)">
			<text transform="matrix(1 0 0 1 -556.4813 -27.7257)" class="st11 st1 st2">G</text>
		</g>
	</g>
</g>
<g transform="translate(738.853,83.358)">
	<g>
		<g transform="rotate(-0.0)">
			<text transform="matrix(1 0 0 1 -544.7556 -9.432)" class="st11 st1 st2">A</text>
		</g>
	</g>
</g>
<g transform="translate(710.596,83.358)">
	<g>
		<g transform="rotate(-0.0)">
			<text transform="matrix(1 0 0 1 -530.1216 -9.432)" class="st11 st1 st2">A</text>
		</g>
	</g>
</g>
<g transform="translate(689.404,118.679)">
	<g>
		<g transform="rotate(-0.0)">
			<text transform="matrix(1 0 0 1 -519.1454 -27.7257)" class="st11 st1 st2">A</text>
		</g>
	</g>
</g>
<g transform="translate(696.468,154.000)">
	<g>
		<g transform="rotate(-0.0)">
			<text transform="matrix(1 0 0 1 -523.5527 -46.0203)" class="st11 st1 st2">G</text>
		</g>
	</g>
</g>
<g transform="translate(696.468,182.257)">
	<g>
		<g transform="rotate(-0.0)">
			<text transform="matrix(1 0 0 1 -523.5527 -60.6552)" class="st11 st1 st2">G</text>
		</g>
	</g>
</g>
<g transform="translate(696.468,210.514)">
	<g>
		<g transform="rotate(-0.0)">
			<text transform="matrix(1 0 0 1 -523.1763 -75.2902)" class="st11 st1 st2">C</text>
		</g>
	</g>
</g>
<g transform="translate(696.468,238.771)">
	<g>
		<g transform="rotate(-0.0)">
			<text transform="matrix(1 0 0 1 -523.1763 -89.9261)" class="st11 st1 st2">C</text>
		</g>
	</g>
</g>
<g transform="translate(658.792,238.771)">
	<g transform="rotate(-0.0)">
		<text transform="matrix(1 0 0 1 -505.2578 -89.9261)" class="st1 st4">30</text>
	</g>
</g>
<g transform="translate(696.468,267.028)">
	<g>
		<g transform="rotate(-0.0)">
			<text transform="matrix(1 0 0 1 -523.5527 -104.562)" class="st11 st1 st2">G</text>
		</g>
	</g>
</g>
<g transform="translate(696.468,295.284)">
	<g>
		<g transform="rotate(-0.0)">
			<text transform="matrix(1 0 0 1 -523.1763 -119.1959)" class="st11 st1 st2">C</text>
		</g>
	</g>
</g>
<g transform="translate(668.211,316.477)">
	<g>
		<g transform="rotate(-0.0)">
			<text transform="matrix(1 0 0 1 -508.5408 -130.1731)" class="st10 st1 st2">C</text>
		</g>
	</g>
</g>
<line class="st5" x1="200" y1="170" x2="183.6" y2="170"/>
<line class="st5" x1="200" y1="156.3" x2="183.6" y2="156.3"/>
<line class="st5" x1="200" y1="142.7" x2="183.6" y2="142.7"/>
<line class="st5" x1="200" y1="129.1" x2="183.6" y2="129.1"/>
<line class="st5" x1="200" y1="115.5" x2="183.6" y2="115.5"/>
<line class="st5" x1="200" y1="101.9" x2="183.6" y2="101.9"/>
<line class="st5" x1="203.4" y1="84.8" x2="180.2" y2="84.8"/>
<polygon class="st7" points="198.9,84.8 193.6,81.8 193.6,87.9 "/>
<polygon class="st7" points="185.5,87.5 191,87.5 191,82.1 185.5,82.1 "/>
<line class="st9" x1="210.3" y1="205.6" x2="215.7" y2="186.5"/>
<polygon class="st6" points="208.9,196.3 211.5,194.6 212.7,192.6 213.7,190.6 215.9,186.5 215.7,191.1 215.4,193.4 215.4,195.8 
	216.7,198.5 "/>
<line class="st5" x1="172" y1="180.9" x2="208.9" y2="180.9"/>
<text transform="matrix(1 0 0 1 162.5712 382.2955)" class="st1 st12">5’</text>
<text transform="matrix(1 0 0 1 216.7415 382.4632)" class="st1 st12">3’</text>
<text transform="matrix(1 0 0 1 125.9686 353.5586)" class="st0 st1 st13">P1</text>
<g class="st14">
	<text transform="matrix(1 0 0 1 120.9212 196.0245)" class="st10 st1 st13">J2</text>
</g>
<text transform="matrix(1 0 0 1 231.3076 238.0656)" class="st8 st1 st13">P2a</text>
<text transform="matrix(1 0 0 1 121.4995 121.6022)" class="st11 st1 st13">P2b</text>
<text transform="matrix(1 0 0 1 98.5745 309.442)" class="st3 st1 st13">J1</text>
<path class="st15" d="M200,281.2c0,3.8-9.1,6.9-20.4,6.9c-11.3,0-20.4-3.1-20.4-6.9c0-3.8,9.1-6.9,20.4-6.9
	C190.8,274.3,200,277.4,200,281.2z"/>
<text transform="matrix(1 0 0 1 169.4282 284.4852)" class="st16 st1 st4">Xan</text>
<line class="st5" x1="139" y1="279.8" x2="156" y2="279.8"/>
<line class="st5" x1="201" y1="282.2" x2="214.7" y2="282.8"/>
<text transform="matrix(1 0 0 1 30.603 42.5854)" class="st1 st13">Xanthine-I_riboswitch</text>
</svg>
