<svg id="图层_1" data-name="图层 1" xmlns="http://www.w3.org/2000/svg" viewBox="0 0 400 400"><defs><style>.cls-1,.cls-10,.cls-11,.cls-12,.cls-13,.cls-14,.cls-17,.cls-18,.cls-19,.cls-2,.cls-3,.cls-4,.cls-9{isolation:isolate;}.cls-1,.cls-10,.cls-11,.cls-12,.cls-13,.cls-14,.cls-17,.cls-18,.cls-2,.cls-3,.cls-4,.cls-9{font-size:12.44px;}.cls-1,.cls-2,.cls-24{fill:#0a0bff;}.cls-1,.cls-10,.cls-11,.cls-12,.cls-13,.cls-14,.cls-17,.cls-18,.cls-19,.cls-2,.cls-21,.cls-22,.cls-23,.cls-24,.cls-25,.cls-26,.cls-27,.cls-28,.cls-29,.cls-3,.cls-33,.cls-34,.cls-4,.cls-9{font-family:ArialMT, Arial;}.cls-1,.cls-10,.cls-4{letter-spacing:-0.06em;}.cls-28,.cls-3,.cls-4{fill:#ffdf5c;}.cls-15,.cls-5,.cls-7{fill:none;}.cls-15,.cls-16,.cls-5,.cls-6,.cls-7,.cls-8{stroke:#000;stroke-miterlimit:1.96;}.cls-5,.cls-6,.cls-8{stroke-width:0.25px;}.cls-21,.cls-22,.cls-6{fill:#fff;}.cls-7{stroke-width:0.5px;}.cls-10,.cls-23,.cls-9{fill:#ffaadc;}.cls-11,.cls-12,.cls-26{fill:#80db9e;}.cls-11,.cls-14,.cls-18{letter-spacing:-0.06em;}.cls-13,.cls-14,.cls-27{fill:#ff870a;}.cls-15{stroke-width:0.98px;}.cls-16{stroke-width:0.1px;}.cls-17,.cls-18,.cls-25{fill:#c2c2ff;}.cls-19{font-size:12px;}.cls-20{fill:#e60012;}.cls-21{font-size:14px;}.cls-22{font-size:8px;}.cls-23,.cls-24,.cls-25,.cls-26,.cls-27,.cls-28,.cls-29{font-size:18px;}.cls-30{letter-spacing:-0.04em;}.cls-31{font-size:20px;font-family:Arial-ItalicMT, Arial;font-style:italic;}.cls-32{letter-spacing:-0.02em;}.cls-33{font-style:normal;}.cls-34{font-size:11px;}</style></defs><g id="ID000198"><text class="cls-1" transform="translate(121.26 339.2)">A</text></g><g id="ID000199"><text class="cls-1" transform="translate(121.26 327.07)">A</text></g><g id="ID000200"><text class="cls-1" transform="translate(121.26 314.94)">A</text></g><g id="ID000201"><text class="cls-2" transform="translate(120.56 302.81)">G</text></g><g id="ID000202"><text class="cls-2" transform="translate(120.56 290.68)">G</text></g><g id="ID000203"><text class="cls-3" transform="translate(120.56 278.54)">G</text></g><g id="ID000204"><text class="cls-3" transform="translate(120.56 266.41)">G</text></g><g id="ID000205"><text class="cls-4" transform="translate(109.12 254.28)">A</text></g><g id="ID000206"><text class="cls-3" transform="translate(144.83 266.41)">G</text></g><g id="ID000207"><text class="cls-4" transform="translate(145.52 278.54)">A</text></g><g id="ID000208"><text class="cls-2" transform="translate(145.17 290.68)">C</text></g><g id="ID000209"><text class="cls-2" transform="translate(145.17 302.81)">C</text></g><g id="ID000210"><text class="cls-2" transform="translate(145.17 314.94)">U</text></g><g id="ID000211"><text class="cls-2" transform="translate(145.17 327.07)">U</text></g><g id="ID000212"><text class="cls-2" transform="translate(145.17 339.2)">U</text></g><g id="ID000213"><text class="cls-2" transform="translate(145.17 351.33)">C</text></g><g id="ID000214"><text class="cls-2" transform="translate(145.17 363.46)">C</text></g><g id="ID000217"><line class="cls-5" x1="130.26" y1="333.74" x2="144.81" y2="333.74"/></g><g id="ID000218"><line class="cls-5" x1="130.26" y1="321.61" x2="144.81" y2="321.61"/></g><g id="ID000219"><line class="cls-5" x1="130.26" y1="309.48" x2="144.81" y2="309.48"/></g><g id="ID000220"><line class="cls-5" x1="130.26" y1="297.35" x2="144.81" y2="297.35"/></g><g id="ID000221"><line class="cls-5" x1="130.26" y1="285.22" x2="144.81" y2="285.22"/></g><g id="ID000222"><line class="cls-5" x1="130.26" y1="273.08" x2="144.81" y2="273.08"/></g><g id="ID000223"><polygon class="cls-6" points="131.23 273.08 135.96 275.81 135.96 270.36 131.23 273.08"/></g><g id="ID000224"><polygon class="cls-6" points="143.12 270.66 138.26 270.66 138.26 275.51 143.12 275.51 143.12 270.66"/></g><g id="ID000225"><line class="cls-5" x1="130.26" y1="260.95" x2="144.81" y2="260.95"/></g><g id="ID000226"><polygon class="cls-6" points="131.95 260.95 131.96 261.11 131.97 261.26 132 261.41 132.03 261.56 132.08 261.71 132.13 261.86 132.19 262 132.26 262.13 132.34 262.26 132.43 262.39 132.52 262.51 132.63 262.63 132.73 262.74 132.85 262.84 132.97 262.93 133.1 263.01 133.24 263.09 133.37 263.16 133.51 263.22 133.66 263.27 133.81 263.31 133.96 263.34 134.11 263.37 134.26 263.38 134.42 263.38 134.57 263.37 134.73 263.36 134.88 263.33 135.03 263.29 135.17 263.25 135.32 263.19 135.46 263.13 135.59 263.06 135.72 262.97 135.85 262.88 135.97 262.79 136.08 262.68 136.19 262.57 136.29 262.45 136.38 262.33 136.46 262.2 136.54 262.06 136.6 261.93 136.66 261.78 136.71 261.64 136.75 261.49 136.78 261.34 136.8 261.18 136.81 261.03 136.81 260.88 136.8 260.72 136.78 260.57 136.75 260.42 136.71 260.27 136.66 260.12 136.6 259.98 136.54 259.84 136.46 259.71 136.38 259.58 136.29 259.45 136.19 259.33 136.08 259.22 135.97 259.12 135.85 259.02 135.72 258.93 135.59 258.85 135.46 258.78 135.32 258.71 135.17 258.66 135.03 258.62 134.88 258.58 134.73 258.55 134.57 258.54 134.42 258.53 134.26 258.53 134.11 258.54 133.96 258.56 133.81 258.6 133.66 258.64 133.51 258.69 133.37 258.75 133.24 258.81 133.1 258.89 132.97 258.98 132.85 259.07 132.73 259.17 132.63 259.28 132.52 259.39 132.43 259.51 132.34 259.64 132.26 259.77 132.19 259.91 132.13 260.05 132.08 260.2 132.03 260.34 132 260.49 131.97 260.65 131.96 260.8 131.95 260.95"/></g><g id="ID000227"><polygon class="cls-6" points="143.12 258.53 138.26 258.53 138.26 263.38 143.12 263.38 143.12 258.53"/></g><g id="ID000230"><line class="cls-7" x1="149.67" y1="220.31" x2="149.67" y2="256.1"/></g><g id="ID000231"><polygon class="cls-8" points="151.71 238.59 150.69 239.72 150.35 240.86 150.18 242 149.67 244.27 149.15 242 148.98 240.86 148.64 239.72 147.62 238.59 151.71 238.59"/></g><g id="ID000233"><text class="cls-3" transform="translate(108.44 242.15)">G</text></g><g id="ID000234"><text class="cls-3" transform="translate(120.91 220.92)">U</text></g><g id="ID000237"><text class="cls-4" transform="translate(121.26 208.79)">A</text></g><g id="ID000238"><text class="cls-2" transform="translate(120.56 196.66)">G</text></g><g id="ID000239"><text class="cls-2" transform="translate(120.91 184.53)">C</text></g><g id="ID000240"><text class="cls-2" transform="translate(120.56 172.4)">G</text></g><g id="ID000241"><text class="cls-1" transform="translate(145.52 172.4)">A</text></g><g id="ID000242"><text class="cls-2" transform="translate(144.83 184.53)">G</text></g><g id="ID000243"><text class="cls-2" transform="translate(145.17 196.66)">C</text></g><g id="ID000244"><text class="cls-4" transform="translate(145.52 208.79)">A</text></g><g id="ID000247"><text class="cls-4" transform="translate(145.52 220.92)">A</text></g><g id="ID000248"><line class="cls-5" x1="115.68" y1="232.48" x2="123" y2="219.67"/></g><g id="ID000249"><polygon class="cls-8" points="116.21 231.55 120.92 228.8 116.19 226.09 116.21 231.55"/></g><g id="ID000250"><polygon class="cls-8" points="120 220.03 117.59 224.24 121.81 226.65 124.21 222.44 120 220.03"/></g><g id="ID000251"><line class="cls-5" x1="130.26" y1="215.46" x2="144.81" y2="215.46"/></g><g id="ID000252"><polygon class="cls-6" points="131.95 215.46 131.96 215.62 131.97 215.77 132 215.92 132.03 216.07 132.08 216.22 132.13 216.36 132.19 216.5 132.26 216.64 132.34 216.77 132.43 216.9 132.52 217.02 132.63 217.14 132.73 217.24 132.85 217.34 132.97 217.44 133.1 217.52 133.24 217.6 133.37 217.67 133.51 217.73 133.66 217.78 133.81 217.82 133.96 217.85 134.11 217.87 134.26 217.88 134.42 217.89 134.57 217.88 134.73 217.86 134.88 217.84 135.03 217.8 135.17 217.75 135.32 217.7 135.46 217.63 135.59 217.56 135.72 217.48 135.85 217.39 135.97 217.29 136.08 217.19 136.19 217.08 136.29 216.96 136.38 216.84 136.46 216.71 136.54 216.57 136.6 216.44 136.66 216.29 136.71 216.15 136.75 216 136.78 215.84 136.8 215.69 136.81 215.54 136.81 215.38 136.8 215.23 136.78 215.08 136.75 214.93 136.71 214.78 136.66 214.63 136.6 214.49 136.54 214.35 136.46 214.22 136.38 214.09 136.29 213.96 136.19 213.84 136.08 213.73 135.97 213.63 135.85 213.53 135.72 213.44 135.59 213.36 135.46 213.29 135.32 213.22 135.17 213.17 135.03 213.12 134.88 213.09 134.73 213.06 134.57 213.04 134.42 213.03 134.26 213.04 134.11 213.05 133.96 213.07 133.81 213.1 133.66 213.15 133.51 213.19 133.37 213.25 133.24 213.32 133.1 213.4 132.97 213.49 132.85 213.58 132.73 213.68 132.63 213.79 132.52 213.9 132.43 214.02 132.34 214.15 132.26 214.28 132.19 214.42 132.13 214.56 132.08 214.7 132.03 214.85 132 215 131.97 215.15 131.96 215.31 131.95 215.46"/></g><g id="ID000253"><polygon class="cls-6" points="143.12 213.03 138.26 213.03 138.26 217.89 143.12 217.89 143.12 213.03"/></g><g id="ID000254"><line class="cls-5" x1="130.26" y1="191.2" x2="144.81" y2="191.2"/></g><g id="ID000255"><line class="cls-5" x1="130.26" y1="179.07" x2="144.81" y2="179.07"/></g><g id="ID000256"><line class="cls-7" x1="125.4" y1="162.08" x2="125.4" y2="120.23"/></g><g id="ID000257"><polygon class="cls-8" points="123.16 145.2 124.28 143.95 124.65 142.7 124.84 141.45 125.4 138.95 125.97 141.45 126.15 142.7 126.53 143.95 127.65 145.2 123.16 145.2"/></g><g id="ID000258"><line class="cls-5" x1="130.26" y1="166.94" x2="144.81" y2="166.94"/></g><g id="ID000259"><polygon class="cls-6" points="131.23 166.94 135.96 169.67 135.96 164.21 131.23 166.94"/></g><g id="ID000260"><polygon class="cls-6" points="143.12 164.51 138.26 164.51 138.26 169.36 143.12 169.36 143.12 164.51"/></g><g id="ID000262"><text class="cls-9" transform="translate(120.91 120.84)">U</text></g><g id="ID000263"><text class="cls-9" transform="translate(120.91 108.71)">C</text></g><g id="ID000264"><text class="cls-9" transform="translate(120.56 96.58)">G</text></g><g id="ID000265"><text class="cls-9" transform="translate(120.56 84.44)">G</text></g><g id="ID000266"><text class="cls-9" transform="translate(117.53 72.31)">G</text></g><g id="ID000267"><text class="cls-10" transform="translate(127.32 60.18)">A</text></g><g id="ID000270"><text class="cls-10" transform="translate(139.45 60.18)">A</text></g><g id="ID000271"><text class="cls-10" transform="translate(148.55 72.31)">A</text></g><g id="ID000272"><text class="cls-9" transform="translate(145.17 84.44)">C</text></g><g id="ID000273"><text class="cls-9" transform="translate(145.17 96.58)">C</text></g><g id="ID000274"><text class="cls-9" transform="translate(144.83 108.71)">G</text></g><g id="ID000275"><text class="cls-10" transform="translate(145.52 120.84)">A</text></g><g id="ID000276"><line class="cls-5" x1="130.26" y1="115.38" x2="144.81" y2="115.38"/></g><g id="ID000277"><line class="cls-5" x1="130.26" y1="103.25" x2="144.81" y2="103.25"/></g><g id="ID000278"><line class="cls-5" x1="130.26" y1="91.12" x2="144.81" y2="91.12"/></g><g id="ID000279"><line class="cls-5" x1="130.26" y1="78.99" x2="144.81" y2="78.99"/></g><g id="ID000280"><line class="cls-5" x1="127.22" y1="66.85" x2="147.85" y2="66.85"/></g><g id="ID000281"><polygon class="cls-6" points="131.23 66.85 135.96 69.58 135.96 64.13 131.23 66.85"/></g><g id="ID000282"><polygon class="cls-6" points="143.12 64.43 138.26 64.43 138.26 69.28 143.12 69.28 143.12 64.43"/></g><g id="ID000283"><polyline class="cls-7" points="154.01 117.55 155.73 118.41 219.42 142.67 248.22 153.15"/></g><g id="ID000284"><polygon class="cls-8" points="188 128.2 188.8 129.76 189.88 130.58 191.02 131.23 193.25 132.7 190.61 132.32 189.32 132.04 187.97 131.94 186.33 132.57 188 128.2"/></g><g id="ID000286"><text class="cls-11" transform="translate(248.63 160.26)">A</text></g><g id="ID000287"><text class="cls-11" transform="translate(248.63 172.4)">A</text></g><g id="ID000288"><text class="cls-12" transform="translate(248.29 184.53)">C</text></g><g id="ID000289"><text class="cls-11" transform="translate(248.63 196.66)">A</text></g><g id="ID000292"><text class="cls-11" transform="translate(248.63 208.79)">A</text></g><g id="ID000293"><text class="cls-11" transform="translate(248.63 220.92)">A</text></g><g id="ID000294"><text class="cls-12" transform="translate(247.95 233.05)">G</text></g><g id="ID000295"><text class="cls-12" transform="translate(248.29 245.18)">U</text></g><g id="ID000296"><text class="cls-12" transform="translate(248.29 257.31)">C</text></g><g id="ID000297"><text class="cls-12" transform="translate(247.95 269.45)">G</text></g><g id="ID000298"><text class="cls-13" transform="translate(236.16 275.51)">U</text></g><g id="ID000299"><text class="cls-13" transform="translate(224.03 269.45)">C</text></g><g id="ID000300"><text class="cls-14" transform="translate(212.24 275.51)">A</text></g><g id="ID000301"><text class="cls-14" transform="translate(212.24 287.64)">A</text></g><g id="ID000304"><text class="cls-12" transform="translate(272.55 269.45)">C</text></g><g id="ID000305"><text class="cls-12" transform="translate(272.21 257.31)">G</text></g><g id="ID000306"><text class="cls-12" transform="translate(272.21 245.18)">G</text></g><g id="ID000309"><text class="cls-12" transform="translate(272.55 233.05)">C</text></g><g id="ID000310"><text class="cls-12" transform="translate(272.55 220.92)">U</text></g><g id="ID000311"><text class="cls-12" transform="translate(272.55 208.79)">U</text></g><g id="ID000312"><text class="cls-12" transform="translate(272.55 196.66)">U</text></g><g id="ID000313"><text class="cls-12" transform="translate(272.21 184.53)">G</text></g><g id="ID000314"><text class="cls-12" transform="translate(272.55 172.4)">U</text></g><g id="ID000315"><text class="cls-12" transform="translate(272.55 160.26)">U</text></g><g id="ID000316"><line class="cls-5" x1="257.63" y1="154.81" x2="272.19" y2="154.81"/></g><g id="ID000317"><line class="cls-5" x1="257.63" y1="166.94" x2="272.19" y2="166.94"/></g><g id="ID000318"><line class="cls-5" x1="257.63" y1="179.07" x2="272.19" y2="179.07"/></g><g id="ID000319"><line class="cls-5" x1="257.63" y1="191.2" x2="272.19" y2="191.2"/></g><g id="ID000320"><line class="cls-5" x1="257.63" y1="203.33" x2="272.19" y2="203.33"/></g><g id="ID000321"><line class="cls-5" x1="257.63" y1="215.46" x2="272.19" y2="215.46"/></g><g id="ID000322"><line class="cls-5" x1="257.63" y1="227.59" x2="272.19" y2="227.59"/></g><g id="ID000323"><polygon class="cls-8" points="267.34 239.72 267.33 239.57 267.32 239.42 267.3 239.26 267.26 239.11 267.22 238.97 267.17 238.82 267.1 238.68 267.03 238.54 266.95 238.41 266.87 238.28 266.77 238.16 266.67 238.05 266.56 237.94 266.44 237.84 266.32 237.75 266.19 237.66 266.06 237.59 265.92 237.52 265.78 237.46 265.63 237.41 265.48 237.37 265.33 237.33 265.18 237.31 265.03 237.3 264.88 237.3 264.72 237.31 264.57 237.32 264.42 237.35 264.27 237.38 264.12 237.43 263.98 237.49 263.83 237.55 263.7 237.62 263.57 237.7 263.44 237.79 263.32 237.89 263.21 237.99 263.1 238.11 263.01 238.22 262.91 238.35 262.83 238.48 262.76 238.61 262.69 238.75 262.63 238.89 262.58 239.04 262.55 239.19 262.52 239.34 262.5 239.49 262.49 239.65 262.49 239.8 262.5 239.95 262.52 240.11 262.55 240.26 262.58 240.41 262.63 240.55 262.69 240.7 262.76 240.84 262.83 240.97 262.91 241.1 263.01 241.22 263.1 241.34 263.21 241.45 263.32 241.56 263.44 241.66 263.57 241.74 263.7 241.82 263.83 241.9 263.98 241.96 264.12 242.02 264.27 242.06 264.42 242.1 264.57 242.13 264.72 242.14 264.88 242.15 265.03 242.15 265.18 242.13 265.33 242.11 265.48 242.08 265.63 242.04 265.78 241.99 265.92 241.93 266.06 241.86 266.19 241.79 266.32 241.7 266.44 241.61 266.56 241.51 266.67 241.4 266.77 241.28 266.87 241.16 266.95 241.04 267.03 240.9 267.1 240.77 267.17 240.63 267.22 240.48 267.26 240.33 267.3 240.18 267.32 240.03 267.33 239.88 267.34 239.72"/></g><g id="ID000324"><line class="cls-5" x1="257.63" y1="251.85" x2="272.19" y2="251.85"/></g><g id="ID000325"><line class="cls-5" x1="257.63" y1="263.99" x2="272.19" y2="263.99"/></g><g id="ID000326"><line class="cls-15" x1="277.04" y1="295.53" x2="277.04" y2="268.84"/></g><g id="ID000327"><polygon class="cls-16" points="274.73 286.23 275.89 284.94 276.27 283.66 276.47 282.38 277.04 279.81 277.62 282.38 277.81 283.66 278.2 284.94 279.35 286.23 274.73 286.23"/></g><g id="ID000328"><line class="cls-7" x1="277.04" y1="149.95" x2="277.04" y2="123.26"/></g><g id="ID000329"><polygon class="cls-8" points="275.2 138.09 276.12 137.06 276.43 136.04 276.58 135.01 277.04 132.96 277.51 135.01 277.66 136.04 277.97 137.06 278.89 138.09 275.2 138.09"/></g><g id="ID000331"><text class="cls-13" transform="translate(211.9 299.77)">U</text></g><g id="ID000332"><text class="cls-13" transform="translate(224.03 308.87)">U</text></g><g id="ID000333"><text class="cls-13" transform="translate(236.16 302.81)">C</text></g><g id="ID000334"><text class="cls-12" transform="translate(247.95 305.84)">G</text></g><g id="ID000335"><text class="cls-12" transform="translate(248.29 317.97)">U</text></g><g id="ID000336"><text class="cls-12" transform="translate(247.95 330.1)">G</text></g><g id="ID000337"><text class="cls-11" transform="translate(248.63 342.23)">A</text></g><g id="ID000338"><text class="cls-12" transform="translate(247.95 354.36)">G</text></g><g id="ID000339"><text class="cls-12" transform="translate(241.88 366.5)">G</text></g><g id="ID000340"><text class="cls-11" transform="translate(254.7 378.63)">A</text></g><g id="ID000343"><text class="cls-11" transform="translate(266.83 378.63)">A</text></g><g id="ID000344"><text class="cls-11" transform="translate(278.96 366.5)">A</text></g><g id="ID000345"><text class="cls-12" transform="translate(272.55 354.36)">C</text></g><g id="ID000346"><text class="cls-12" transform="translate(272.55 342.23)">U</text></g><g id="ID000347"><text class="cls-12" transform="translate(272.55 330.1)">C</text></g><g id="ID000348"><text class="cls-11" transform="translate(272.9 317.97)">A</text></g><g id="ID000349"><text class="cls-12" transform="translate(272.55 305.84)">C</text></g><g id="ID000350"><line class="cls-5" x1="257.63" y1="300.38" x2="272.19" y2="300.38"/></g><g id="ID000351"><line class="cls-5" x1="257.63" y1="312.51" x2="272.19" y2="312.51"/></g><g id="ID000352"><line class="cls-5" x1="257.63" y1="324.64" x2="272.19" y2="324.64"/></g><g id="ID000353"><line class="cls-5" x1="257.63" y1="336.77" x2="272.19" y2="336.77"/></g><g id="ID000354"><line class="cls-5" x1="257.63" y1="348.91" x2="272.19" y2="348.91"/></g><g id="ID000356"><text class="cls-17" transform="translate(272.21 123.87)">G</text></g><g id="ID000357"><text class="cls-18" transform="translate(272.9 111.74)">A</text></g><g id="ID000358"><text class="cls-17" transform="translate(272.55 99.61)">C</text></g><g id="ID000361"><text class="cls-18" transform="translate(272.9 87.48)">A</text></g><g id="ID000362"><text class="cls-17" transform="translate(272.55 75.35)">U</text></g><g id="ID000363"><text class="cls-18" transform="translate(272.9 63.21)">A</text></g><g id="ID000364"><text class="cls-17" transform="translate(272.55 51.08)">C</text></g><g id="ID000365"><text class="cls-17" transform="translate(275.24 38.95)">G</text></g><g id="ID000366"><text class="cls-18" transform="translate(266.83 26.82)">A</text></g><g id="ID000367"><text class="cls-18" transform="translate(254.7 26.82)">A</text></g><g id="ID000368"><text class="cls-18" transform="translate(245.6 38.95)">A</text></g><g id="ID000369"><text class="cls-17" transform="translate(247.95 51.08)">G</text></g><g id="ID000370"><text class="cls-17" transform="translate(248.29 63.21)">U</text></g><g id="ID000373"><text class="cls-18" transform="translate(248.63 75.35)">A</text></g><g id="ID000374"><text class="cls-17" transform="translate(248.29 87.48)">U</text></g><g id="ID000375"><text class="cls-17" transform="translate(247.95 99.61)">G</text></g><g id="ID000376"><text class="cls-17" transform="translate(248.29 111.74)">U</text></g><g id="ID000377"><text class="cls-17" transform="translate(248.29 123.87)">U</text></g><g id="ID000378"><text class="cls-2" transform="translate(145.17 160.26)">U</text></g><g id="ID000379"><polygon class="cls-8" points="262.49 118.41 262.49 118.57 262.51 118.72 262.53 118.87 262.56 119.02 262.61 119.17 262.66 119.31 262.72 119.45 262.79 119.59 262.87 119.72 262.96 119.85 263.05 119.97 263.16 120.09 263.27 120.19 263.38 120.3 263.5 120.39 263.63 120.47 263.77 120.55 263.9 120.62 264.05 120.68 264.19 120.73 264.34 120.77 264.49 120.8 264.64 120.82 264.8 120.83 264.95 120.84 265.11 120.83 265.26 120.81 265.41 120.79 265.56 120.75 265.71 120.7 265.85 120.65 265.99 120.58 266.13 120.51 266.26 120.43 266.38 120.34 266.5 120.25 266.61 120.14 266.72 120.03 266.82 119.91 266.91 119.79 266.99 119.66 267.07 119.52 267.13 119.38 267.19 119.24 267.24 119.09 267.28 118.95 267.31 118.8 267.33 118.64 267.34 118.49 267.34 118.33 267.33 118.18 267.31 118.03 267.28 117.88 267.24 117.73 267.19 117.58 267.13 117.44 267.07 117.3 266.99 117.17 266.91 117.04 266.82 116.91 266.72 116.79 266.61 116.68 266.5 116.58 266.38 116.48 266.26 116.39 266.13 116.31 265.99 116.24 265.85 116.17 265.71 116.12 265.56 116.07 265.41 116.04 265.26 116.01 265.11 115.99 264.95 115.99 264.8 115.99 264.64 116 264.49 116.02 264.34 116.05 264.19 116.09 264.05 116.14 263.9 116.2 263.77 116.27 263.63 116.35 263.5 116.44 263.38 116.53 263.27 116.63 263.16 116.74 263.05 116.85 262.96 116.97 262.87 117.1 262.79 117.23 262.72 117.37 262.66 117.51 262.61 117.66 262.56 117.8 262.53 117.95 262.51 118.11 262.49 118.26 262.49 118.41"/></g><g id="ID000380"><line class="cls-5" x1="272.19" y1="106.28" x2="257.63" y2="106.28"/></g><g id="ID000381"><line class="cls-5" x1="272.19" y1="94.15" x2="257.63" y2="94.15"/></g><g id="ID000382"><line class="cls-5" x1="272.19" y1="82.02" x2="257.63" y2="82.02"/></g><g id="ID000383"><line class="cls-5" x1="272.19" y1="69.89" x2="257.63" y2="69.89"/></g><g id="ID000384"><line class="cls-5" x1="272.19" y1="57.76" x2="257.63" y2="57.76"/></g><g id="ID000385"><line class="cls-5" x1="272.19" y1="45.62" x2="257.63" y2="45.62"/></g><g id="ID000386"><line class="cls-5" x1="275.22" y1="33.49" x2="254.6" y2="33.49"/></g><g id="ID000387"><polygon class="cls-6" points="271.22 33.49 266.49 30.76 266.49 36.22 271.22 33.49"/></g><g id="ID000388"><polygon class="cls-6" points="259.33 35.92 264.19 35.92 264.19 31.07 259.33 31.07 259.33 35.92"/></g><g id="ID000389"><polyline class="cls-7" points="248.22 120.07 186.06 142.67 154.27 153.27"/></g><g id="ID000390"><polygon class="cls-8" points="220.56 132.23 219.1 131.63 217.88 131.71 216.72 131.94 214.34 132.25 216.36 130.95 217.4 130.38 218.38 129.65 219.12 128.26 220.56 132.23"/></g><g id="ID000236"><text class="cls-19" transform="translate(92.24 242.44)">10</text></g><g id="ID000236-2" data-name="ID000236"><text class="cls-19" transform="translate(111.16 303.1)">5</text></g><g id="ID000236-3" data-name="ID000236"><text class="cls-19" transform="translate(105.01 172.4)">15</text></g><g id="ID000236-4" data-name="ID000236"><text class="cls-19" transform="translate(156.87 84.59)">25</text></g><g id="ID000236-5" data-name="ID000236"><text class="cls-19" transform="translate(157.22 184.53)">90</text></g><g id="ID000236-6" data-name="ID000236"><text class="cls-19" transform="translate(156.89 278.73)">95</text></g><g id="ID000236-7" data-name="ID000236"><text class="cls-19" transform="translate(156.87 339.35)">100</text></g><g id="ID000236-8" data-name="ID000236"><text class="cls-19" transform="translate(232 51.27)">80</text></g><g id="ID000236-9" data-name="ID000236"><text class="cls-19" transform="translate(232.51 111.74)">85</text></g><g id="ID000236-10" data-name="ID000236"><text class="cls-19" transform="translate(232.49 172.55)">30</text></g><g id="ID000236-11" data-name="ID000236"><text class="cls-19" transform="translate(284.13 51.08)">75</text></g><g id="ID000236-12" data-name="ID000236"><text class="cls-19" transform="translate(284.13 111.93)">70</text></g><g id="ID000236-13" data-name="ID000236"><text class="cls-19" transform="translate(284.13 196.81)">65</text></g><g id="ID000236-14" data-name="ID000236"><text class="cls-19" transform="translate(284.59 257.31)">60</text></g><g id="ID000236-15" data-name="ID000236"><text class="cls-19" transform="translate(233 233.82)">35</text></g><g id="ID000236-16" data-name="ID000236"><text class="cls-19" transform="translate(220.56 258.53)">40</text></g><g id="ID000236-17" data-name="ID000236"><text class="cls-19" transform="translate(233.33 354.36)">50</text></g><g id="ID000236-18" data-name="ID000236"><text class="cls-19" transform="translate(284.7 342.23)">55</text></g><circle class="cls-20" cx="191.07" cy="285.22" r="15.54"/><text class="cls-21" transform="translate(178.09 291.82)">Mn</text><text class="cls-22" transform="translate(196.57 284.32)">2+</text><text class="cls-23" transform="translate(85.98 99.61)">P2</text><text class="cls-24" transform="translate(68.72 193.91)">P1.2</text><text class="cls-24" transform="translate(69.75 315.09)">P1.1</text><text class="cls-25" transform="translate(293.84 87.52)">P4</text><text class="cls-26" transform="translate(295.23 215.68)">P3.1</text><text class="cls-26" transform="translate(296.62 317.97)">P3.2</text><text class="cls-27" transform="translate(212.22 330.1)">L3</text><text class="cls-28" transform="translate(87.1 270.36)">L1</text><text class="cls-29" transform="translate(109.1 357.44)">5<tspan class="cls-30" x="10.01" y="0">’</tspan></text><text class="cls-29" transform="translate(156.87 373.21)">3<tspan class="cls-30" x="10.01" y="0">’</tspan></text><text class="cls-31" transform="translate(2.52 18.97)">yybP-yko<tspan class="cls-32" x="82.25" y="0">Y</tspan><tspan x="95.22" y="0"> </tspan><tspan class="cls-33" x="100.78" y="0" xml:space="preserve">Mn   Riboswitch</tspan><tspan x="241.93" y="0"> </tspan></text><text class="cls-34" transform="translate(131.23 11.98)">2+</text></svg>