<?xml version="1.0" encoding="utf-8"?>
<!-- Generator: Adobe Illustrator 27.5.0, SVG Export Plug-In . SVG Version: 6.00 Build 0)  -->
<svg version="1.1" id="_图层_1" xmlns="http://www.w3.org/2000/svg" xmlns:xlink="http://www.w3.org/1999/xlink" x="0px" y="0px"
	 viewBox="0 0 800 400" style="enable-background:new 0 0 800 400;" xml:space="preserve">
<style type="text/css">
	.st0{fill:#FFFFFF;stroke:#FFFFFF;stroke-width:1.5;}
	.st1{fill:none;stroke:#251E1C;stroke-width:1.5;}
	.st2{fill:#251E1C;}
	.st3{font-family:'ArialMT';}
	.st4{font-size:9.71px;}
	.st5{fill:none;stroke:#9DC138;stroke-width:1.5;}
	.st6{fill:none;stroke:#64A5DD;stroke-width:1.5;}
	.st7{fill:none;stroke:#9D9D9D;stroke-width:1.5;}
	.st8{font-size:11.2px;}
	.st9{fill:#74B5AA;}
	.st10{fill:#4B7E7D;}
	.st11{fill:none;stroke:#595858;stroke-width:1.5;}
	.st12{fill:#595858;}
	.st13{fill:#FFFFFF;stroke:#FFFFFF;stroke-width:3;stroke-miterlimit:4;}
	.st14{fill:#FFFFFF;stroke:#FFFFFF;stroke-width:3;}
	.st15{fill:#64AA44;}
	.st16{font-size:12.02px;}
	.st17{fill:#C2007B;}
	.st18{fill:#CC5520;}
	.st19{fill:#21348C;}
	.st20{fill-rule:evenodd;clip-rule:evenodd;}
	.st21{font-size:5.6px;}
	.st22{font-size:7.94px;}
	.st23{font-size:5.67px;}
	.st24{font-size:5.42px;}
	.st25{font-size:5.47px;}
	.st26{fill:none;stroke:#A71527;stroke-width:1.5;stroke-miterlimit:10;}
	.st27{font-family:'Arial-BoldMT';}
	.st28{font-size:20px;}
</style>
<rect x="221.3" y="181.8" class="st0" width="10.6" height="48.8"/>
<path class="st1" d="M275.4,143.7c0,24-22.7,43.6-50.7,43.6S174,167.7,174,143.7s22.7-43.6,50.7-43.6S275.4,119.6,275.4,143.7
	L275.4,143.7z"/>
<rect x="221.3" y="182.3" class="st0" width="10.6" height="42.5"/>
<line class="st1" x1="381.9" y1="224.9" x2="408.9" y2="224.9"/>
<g>
	<text transform="matrix(1.16 0 0 1 130.3203 227.8002)" class="st2 st3 st4">5</text>
	<text transform="matrix(1.16 0 0 1 136.5801 227.8002)" class="st2 st3 st4">’</text>
</g>
<line class="st1" x1="143.9" y1="224.3" x2="219.1" y2="224.3"/>
<line class="st5" x1="233.5" y1="224.4" x2="251.6" y2="224.4"/>
<line class="st1" x1="219.5" y1="187.5" x2="219.5" y2="224.9"/>
<line class="st5" x1="233.8" y1="186.8" x2="233.8" y2="207.1"/>
<line class="st5" x1="233.8" y1="206" x2="233.8" y2="224.7"/>
<path class="st6" d="M387.3,184.9c0,5.6-5.3,10.2-11.9,10.2s-11.9-4.6-11.9-10.2s5.3-10.2,11.9-10.2S387.3,179.3,387.3,184.9z"/>
<line class="st6" x1="368.4" y1="193.3" x2="368.4" y2="224.4"/>
<line class="st1" x1="382.5" y1="193.4" x2="382.5" y2="224.5"/>
<rect x="370.1" y="189.8" class="st0" width="10.6" height="35.1"/>
<line class="st7" x1="368.6" y1="199.8" x2="382.2" y2="199.8"/>
<line class="st7" x1="368.6" y1="205.9" x2="382.2" y2="205.9"/>
<line class="st7" x1="368.6" y1="212.5" x2="382.2" y2="212.5"/>
<line class="st7" x1="368.6" y1="220.1" x2="382.2" y2="220.1"/>
<line class="st7" x1="220.2" y1="214.1" x2="233.2" y2="214.4"/>
<line class="st7" x1="220.1" y1="220.8" x2="233" y2="221"/>
<line class="st7" x1="220.1" y1="194.1" x2="233.1" y2="194.1"/>
<line class="st7" x1="220.1" y1="200.7" x2="233.1" y2="200.7"/>
<line class="st7" x1="220.1" y1="207.2" x2="233.1" y2="207.2"/>
<line class="st1" x1="165.1" y1="184.1" x2="183.5" y2="168.6"/>
<line class="st1" x1="156.6" y1="175.3" x2="176.7" y2="158.7"/>
<line class="st1" x1="233.2" y1="224.4" x2="368.5" y2="224.4"/>
<text transform="matrix(1.16 0 0 1 410.2803 229.4198)" class="st2 st3 st8">AUG</text>
<line class="st1" x1="439.9" y1="224.9" x2="468.8" y2="224.9"/>
<rect x="378.8" y="202" class="st9" width="6.4" height="14.8"/>
<text transform="matrix(1.16 0 0 1 387.5996 213.2401)" class="st10 st3 st8">RBS</text>
<line class="st11" x1="185.1" y1="238.4" x2="201.8" y2="238.4"/>
<rect x="184.3" y="233.5" class="st12" width="1.5" height="9.8"/>
<line class="st11" x1="249.6" y1="238.4" x2="266.3" y2="238.4"/>
<rect x="265.5" y="233.5" class="st12" width="1.5" height="9.8"/>
<line class="st11" x1="323.3" y1="238.4" x2="333.1" y2="238.4"/>
<rect x="322.5" y="233.5" class="st12" width="1.5" height="9.8"/>
<line class="st11" x1="436.1" y1="238.4" x2="446" y2="238.4"/>
<rect x="445.2" y="233.5" class="st12" width="1.5" height="9.8"/>
<text transform="matrix(1 0 0 1 334.99 241.39)" class="st12 st3 st8">Expression platform</text>
<text transform="matrix(1 0 0 1 205.06 241.39)" class="st12 st3 st8">Aptamer</text>
<line class="st1" x1="159.7" y1="109.3" x2="178.4" y2="124.6"/>
<line class="st1" x1="167.3" y1="99.9" x2="186.1" y2="115.3"/>
<line class="st1" x1="219.2" y1="76.2" x2="219.1" y2="100.3"/>
<line class="st1" x1="231.4" y1="75.9" x2="231.1" y2="100.5"/>
<path class="st1" d="M237.2,65.4c0,6.8-5.5,12.3-12.3,12.3s-12.3-5.5-12.3-12.3s5.5-12.3,12.3-12.3l0,0
	C231.7,53.1,237.2,58.6,237.2,65.4L237.2,65.4L237.2,65.4z"/>
<rect x="221.7" y="75.3" transform="matrix(1 -1.570794e-03 1.570794e-03 1 -0.1381 0.3541)" class="st13" width="7.4" height="25.6"/>
<path class="st1" d="M167.8,98.2c0,6.8-5.5,12.3-12.3,12.3s-12.3-5.5-12.3-12.3S148.8,86,155.6,86S167.8,91.4,167.8,98.2z"/>
<rect x="169.2" y="99.2" transform="matrix(0.639 -0.7692 0.7692 0.639 -23.761 173.3597)" class="st14" width="7.4" height="25.6"/>
<path class="st1" d="M165.6,186.1c0,6.8-5.5,12.3-12.3,12.3s-12.3-5.5-12.3-12.3s5.5-12.3,12.3-12.3S165.6,179.3,165.6,186.1z"/>
<rect x="158.2" y="167.5" transform="matrix(0.7696 -0.6385 0.6385 0.7696 -69.8686 148.6141)" class="st14" width="25.6" height="7.4"/>
<line class="st7" x1="219.4" y1="96.9" x2="231" y2="96.8"/>
<line class="st7" x1="219.6" y1="88.9" x2="231.2" y2="88.8"/>
<line class="st7" x1="219.4" y1="80.8" x2="231" y2="80.8"/>
<line class="st7" x1="176.8" y1="121.9" x2="183.2" y2="112.3"/>
<line class="st7" x1="170.3" y1="117.3" x2="176.7" y2="107.6"/>
<line class="st7" x1="164.2" y1="113" x2="170.7" y2="103.3"/>
<line class="st7" x1="179.2" y1="171.4" x2="171.9" y2="162.4"/>
<line class="st7" x1="172.9" y1="176.3" x2="165.5" y2="167.3"/>
<line class="st7" x1="166.8" y1="181.5" x2="159.5" y2="172.6"/>
<line class="st1" x1="289.2" y1="108.8" x2="267.8" y2="119.8"/>
<line class="st1" x1="295.1" y1="119.4" x2="273.1" y2="130.5"/>
<path class="st1" d="M307.1,119.7c-6,3.1-13.4,0.8-16.5-5.3c-3.1-6-0.8-13.4,5.3-16.5s13.4-0.8,16.5,5.3l0,0
	C315.5,109.2,313.1,116.6,307.1,119.7z"/>
<rect x="268.7" y="116.1" transform="matrix(0.8865 -0.4627 0.4627 0.8865 -23.4578 143.8266)" class="st14" width="25.6" height="7.3"/>
<line class="st7" x1="271" y1="118.4" x2="276.4" y2="128.7"/>
<line class="st7" x1="278.2" y1="115" x2="283.6" y2="125.3"/>
<line class="st7" x1="285.2" y1="111" x2="290.6" y2="121.3"/>
<line class="st1" x1="293.7" y1="171.2" x2="273.4" y2="158.2"/>
<line class="st1" x1="287.5" y1="181.7" x2="266.8" y2="168.3"/>
<path class="st1" d="M293.2,192.2c-5.7-3.6-7.4-11.2-3.8-16.9s11.2-7.4,16.9-3.8c5.7,3.6,7.4,11.2,3.8,16.9l0,0
	C306.6,194.1,299,195.8,293.2,192.2C293.3,192.2,293.3,192.2,293.2,192.2L293.2,192.2z"/>
<rect x="276.7" y="157.3" transform="matrix(0.5329 -0.8462 0.8462 0.5329 -12.9657 316.706)" class="st14" width="7.4" height="25.6"/>
<line class="st7" x1="276.2" y1="160.3" x2="270" y2="170.2"/>
<line class="st7" x1="282.8" y1="164.8" x2="276.6" y2="174.6"/>
<line class="st7" x1="289.7" y1="168.9" x2="283.5" y2="178.7"/>
<g>
	<text transform="matrix(1 0 0 1 483.37 152.01)" class="st15 st3 st16">Roseoflavin</text>
	<text transform="matrix(1 0 0 1 492.73 166.44)" class="st15 st3 st16">0.2-1uM</text>
</g>
<g>
	<text transform="matrix(1 0 0 1 599.68 152.01)" class="st17 st3 st16">5FDQD</text>
	<text transform="matrix(1 0 0 1 603.35 166.44)" class="st17 st3 st16">7.5nM</text>
</g>
<g>
	<text transform="matrix(1 0 0 1 500.63 339.49)" class="st18 st3 st16">Ribocil</text>
	<text transform="matrix(1 0 0 1 503.63 353.91)" class="st18 st3 st16">39uM</text>
</g>
<g>
	<text transform="matrix(1 0 0 1 601.08 339.12)" class="st19 st3 st16">Ribocil C</text>
	<text transform="matrix(1 0 0 1 604.75 353.54)" class="st19 st3 st16">1-50nM</text>
</g>
<text transform="matrix(1 0 0 1 194.88 127.03)" class="st15 st3 st16">Roseoflavin</text>
<text transform="matrix(1 0 0 1 204.89 142.31)" class="st17 st3 st16">5FDQD</text>
<text transform="matrix(1 0 0 1 206.64 157.83)" class="st18 st3 st16">Ribocil</text>
<text transform="matrix(1 0 0 1 201.64 172.11)" class="st19 st3 st16">Ribocil C</text>
<polygon class="st20" points="557.9,89.3 545.3,89.3 545.1,89 545.3,88.8 557.9,88.8 557.9,89 557.9,89.3 "/>
<polygon class="st20" points="545.3,89.3 538.9,100.3 538.8,100 538.6,99.8 544.8,89 545.1,89 545.3,89.3 "/>
<polygon class="st20" points="543.6,89.2 538.1,98.6 537.9,98.5 537.7,98.4 543.1,88.9 543.4,89 543.6,89.2 "/>
<polygon class="st20" points="538.9,100.3 526.2,100.3 526,100 526.2,99.8 538.6,99.8 538.8,100 538.9,100.3 "/>
<polygon class="st20" points="525.7,100 519.5,89.3 519.6,89 519.9,89 526.2,99.8 526,100 525.7,100 "/>
<polygon class="st20" points="526.7,98.6 521.2,89.2 521.4,89 521.6,88.9 527.1,98.4 526.9,98.5 526.7,98.6 "/>
<polygon class="st20" points="519.5,88.8 525.9,77.8 526,78.1 526.2,78.3 519.9,89 519.6,89 519.5,88.8 "/>
<polygon class="st20" points="525.9,77.8 538.6,77.8 538.8,78.1 538.6,78.3 526.2,78.3 526,78.1 525.9,77.8 "/>
<polygon class="st20" points="526.9,79.3 537.9,79.3 537.9,79.6 537.9,79.8 526.9,79.8 526.9,79.6 526.9,79.3 "/>
<polygon class="st20" points="538.6,77.8 543.3,69.8 543.5,69.9 543.7,70 539,78.1 538.8,78.1 538.6,77.8 "/>
<text transform="matrix(1 0 0 1 543.18 68.25)" class="st3 st21">N</text>
<polygon class="st20" points="547.7,66.8 557.9,66.8 557.9,67.1 557.9,67.3 547.7,67.3 547.7,67.1 547.7,66.8 "/>
<polygon class="st20" points="543.3,64.4 538.5,56.2 538.8,56.1 539,56 543.7,64.1 543.5,64.3 543.3,64.4 "/>
<polygon class="st20" points="539,78.1 545.3,88.8 545.1,89 544.8,89 538.6,78.3 538.8,78.1 539,78.1 "/>
<polygon class="st20" points="519.5,89.3 509.4,89.3 509.4,89 509.4,88.8 519.5,88.8 519.6,89 519.5,89.3 "/>
<text transform="matrix(1 0 0 1 504.95 90.21)" class="st3 st21">N</text>
<polygon class="st20" points="505.5,92 500.8,100 500.5,100 500.4,99.8 505,91.7 505.3,91.9 505.5,92 "/>
<polygon class="st20" points="499.6,101.8 490.3,101.8 490.3,101.6 490.3,101.3 499.6,101.3 499.6,101.6 499.6,101.8 "/>
<polygon class="st20" points="500.4,100.3 490.3,100.3 490.3,100 490.3,99.8 500.4,99.8 500.5,100 500.4,100.3 "/>
<text transform="matrix(1 0 0 1 485.84 101.2)" class="st3 st21">N</text>
<polygon class="st20" points="486.4,103 481.7,111 481.4,111 481.1,111 485.9,102.7 486.1,102.9 486.4,103 "/>
<polygon class="st20" points="481.9,112 471.4,112 471.4,111.8 471.4,111.5 481.9,111.5 481.9,111.8 481.9,112 "/>
<polygon class="st20" points="481.9,110.5 471.4,110.5 471.4,110.3 471.4,110 481.9,110 481.9,110.3 481.9,110.5 "/>
<text transform="matrix(1 0 0 1 466.56 112.32)" class="st3 st21">O</text>
<polygon class="st20" points="481.7,111 486.4,119 486.1,119.2 485.9,119.3 481.1,111 481.4,111 481.7,111 "/>
<text transform="matrix(1 0 0 1 485.84 123.16)" class="st3 st21">N</text>
<text transform="matrix(1 0 0 1 485.84 127.65)" class="st3 st21">H</text>
<polygon class="st20" points="490.3,121.7 500.4,121.7 500.5,122 500.7,122.3 490.3,122.3 490.3,122 490.3,121.7 "/>
<polygon class="st20" points="501.2,121.1 506.1,129.7 505.9,129.8 505.7,129.9 500.7,121.4 501,121.2 501.2,121.1 "/>
<polygon class="st20" points="499.9,121.9 504.8,130.4 504.6,130.5 504.4,130.7 499.4,122.1 499.6,122 499.9,121.9 "/>
<text transform="matrix(1 0 0 1 504.79 134.29)" class="st3 st21">O</text>
<polygon class="st20" points="500.4,121.7 506.6,111 506.9,111 507,111.3 500.7,122.3 500.5,122 500.4,121.7 "/>
<polygon class="st20" points="507.8,109.2 517.1,109.2 517.1,109.5 517.1,109.7 507.8,109.7 507.8,109.5 507.8,109.2 "/>
<polygon class="st20" points="507,110.8 517.1,110.8 517.1,111 517.1,111.3 507,111.3 506.9,111 507,110.8 "/>
<text transform="matrix(1 0 0 1 517.7 112.17)" class="st3 st21">N</text>
<polygon class="st20" points="521,108.1 525.7,100 526,100 526.2,100.3 521.5,108.3 521.3,108.2 521,108.1 "/>
<polygon class="st20" points="506.6,111 500.4,100.3 500.5,100 500.8,100 507,110.8 506.9,111 506.6,111 "/>
<polygon class="st20" points="505,86.4 500.2,78.1 500.5,78.1 500.8,78.1 505.5,86.1 505.3,86.2 505,86.4 "/>
<polygon class="st20" points="500.2,78.1 506.6,67.1 506.9,67.1 507,67.3 500.8,78.1 500.5,78.1 500.2,78.1 "/>
<polygon class="st20" points="506.6,67.1 500.3,56.2 500.5,56.1 500.8,56.1 507,66.8 506.9,67.1 506.6,67.1 "/>
<polygon class="st20" points="500.3,56 506.6,45.1 506.9,45.1 507,45.4 500.8,56.1 500.5,56.1 500.3,56 "/>
<polygon class="st20" points="506.6,45.1 500.2,34.1 500.5,34.1 500.8,34.1 507,44.8 506.9,45.1 506.6,45.1 "/>
<polygon class="st20" points="500.2,34.1 505,25.8 505.3,26 505.5,26.1 500.8,34.1 500.5,34.1 500.2,34.1 "/>
<text transform="matrix(1 0 0 1 504.79 24.44)" class="st3 st21">O</text>
<text transform="matrix(1 0 0 1 509.16 24.3)" class="st3 st21">H</text>
<polygon class="st20" points="507,44.8 516.9,44 516.9,45.1 516.9,46.2 507,45.4 506.9,45.1 507,44.8 "/>
<text transform="matrix(1 0 0 1 517.54 46.41)" class="st3 st21">O</text>
<text transform="matrix(1 0 0 1 521.9 46.28)" class="st3 st21">H</text>
<polygon class="st20" points="500.5,55.8 500.5,56.4 500.2,56.4 500,56.4 500,55.8 500.2,55.8 500.5,55.8 "/>
<polygon class="st20" points="499.1,55.7 499.1,56.5 498.9,56.5 498.6,56.5 498.6,55.7 498.9,55.7 499.1,55.7 "/>
<polygon class="st20" points="497.8,55.6 497.8,56.6 497.5,56.6 497.3,56.6 497.3,55.6 497.5,55.6 497.8,55.6 "/>
<polygon class="st20" points="496.4,55.4 496.4,56.7 496.1,56.7 495.9,56.7 495.9,55.4 496.1,55.4 496.4,55.4 "/>
<polygon class="st20" points="495,55.3 495,56.9 494.8,56.9 494.5,56.9 494.5,55.3 494.8,55.3 495,55.3 "/>
<polygon class="st20" points="493.7,55.2 493.7,57 493.4,57 493.2,57 493.2,55.2 493.4,55.2 493.7,55.2 "/>
<polygon class="st20" points="492.3,55.1 492.3,57.1 492.1,57.1 491.8,57.1 491.8,55.1 492.1,55.1 492.3,55.1 "/>
<polygon class="st20" points="491,55 491,57.2 490.7,57.2 490.5,57.2 490.5,55 490.7,55 491,55 "/>
<text transform="matrix(1 0 0 1 481.62 57.26)" class="st3 st21">H</text>
<text transform="matrix(1 0 0 1 485.68 57.39)" class="st3 st21">O</text>
<polygon class="st20" points="507,66.8 516.9,65.9 516.9,67.1 516.9,68.2 507,67.3 506.9,67.1 507,66.8 "/>
<text transform="matrix(1 0 0 1 517.54 68.38)" class="st3 st21">O</text>
<text transform="matrix(1 0 0 1 521.9 68.25)" class="st3 st21">H</text>
<text transform="matrix(1 0 0 1 643.33 14.18)" class="st3 st22">F</text>
<polygon class="st20" points="678,90.8 665.2,90.8 665.1,90.6 665.2,90.3 678,90.3 678,90.6 678,90.8 "/>
<polygon class="st20" points="665.2,90.8 658.8,102 658.6,101.7 658.5,101.5 664.8,90.6 665.1,90.6 665.2,90.8 "/>
<polygon class="st20" points="663.5,90.7 658,100.3 657.7,100.2 657.5,100.1 663.1,90.5 663.3,90.6 663.5,90.7 "/>
<polygon class="st20" points="658.8,102 645.8,102 645.7,101.7 645.8,101.5 658.5,101.5 658.6,101.7 658.8,102 "/>
<polygon class="st20" points="645.4,101.7 639.1,90.8 639.2,90.6 639.5,90.6 645.8,101.5 645.7,101.7 645.4,101.7 "/>
<polygon class="st20" points="646.4,100.3 640.8,90.7 641,90.6 641.2,90.5 646.8,100.1 646.6,100.2 646.4,100.3 "/>
<polygon class="st20" points="639.1,90.3 645.5,79.2 645.7,79.5 645.8,79.7 639.5,90.6 639.2,90.6 639.1,90.3 "/>
<polygon class="st20" points="645.5,79.2 658.5,79.2 658.6,79.5 658.5,79.7 645.8,79.7 645.7,79.5 645.5,79.2 "/>
<polygon class="st20" points="646.6,80.7 657.7,80.7 657.7,81 657.7,81.3 646.6,81.3 646.6,81 646.6,80.7 "/>
<polygon class="st20" points="658.5,79.2 663.2,71 663.4,71.2 663.6,71.3 658.9,79.5 658.6,79.5 658.5,79.2 "/>
<text transform="matrix(1 0 0 1 663.11 69.49)" class="st3 st23">N</text>
<polygon class="st20" points="667.7,68.1 678,68.1 678,68.3 678,68.6 667.7,68.6 667.7,68.3 667.7,68.1 "/>
<polygon class="st20" points="663.2,65.6 658.4,57.3 658.6,57.2 658.8,57 663.6,65.3 663.4,65.4 663.2,65.6 "/>
<polygon class="st20" points="658.9,79.5 665.2,90.3 665.1,90.6 664.8,90.6 658.5,79.7 658.6,79.5 658.9,79.5 "/>
<polygon class="st20" points="639.1,90.8 628.9,90.8 628.9,90.6 628.9,90.3 639.1,90.3 639.2,90.6 639.1,90.8 "/>
<text transform="matrix(1 0 0 1 624.34 91.78)" class="st3 st23">N</text>
<polygon class="st20" points="624.9,93.6 620.1,101.7 619.8,101.7 619.7,101.5 624.4,93.3 624.6,93.5 624.9,93.6 "/>
<polygon class="st20" points="619,103.5 609.5,103.5 609.5,103.3 609.5,103 619,103 619,103.3 619,103.5 "/>
<polygon class="st20" points="619.7,102 609.5,102 609.5,101.7 609.5,101.5 619.7,101.5 619.8,101.7 619.7,102 "/>
<text transform="matrix(1 0 0 1 604.95 102.92)" class="st3 st23">N</text>
<polygon class="st20" points="605.5,104.7 600.8,112.9 600.5,112.9 600.2,112.9 605,104.5 605.3,104.6 605.5,104.7 "/>
<polygon class="st20" points="600.9,113.9 590.3,113.9 590.3,113.6 590.3,113.4 600.9,113.4 600.9,113.6 600.9,113.9 "/>
<polygon class="st20" points="600.9,112.4 590.3,112.4 590.3,112.1 590.3,111.8 600.9,111.8 600.9,112.1 600.9,112.4 "/>
<text transform="matrix(1 0 0 1 585.41 114.19)" class="st3 st23">O</text>
<polygon class="st20" points="600.8,112.9 605.5,121 605.3,121.2 605,121.3 600.2,112.9 600.5,112.9 600.8,112.9 "/>
<text transform="matrix(1 0 0 1 604.95 125.19)" class="st3 st23">N</text>
<text transform="matrix(1 0 0 1 604.95 129.74)" class="st3 st23">H</text>
<polygon class="st20" points="609.5,123.8 619.7,123.8 619.8,124 620,124.3 609.5,124.3 609.5,124 609.5,123.8 "/>
<polygon class="st20" points="620.5,123.1 625.5,131.8 625.3,131.9 625.1,132 620.1,123.4 620.3,123.2 620.5,123.1 "/>
<polygon class="st20" points="619.2,123.9 624.2,132.5 624,132.7 623.8,132.8 618.7,124.1 619,124 619.2,123.9 "/>
<text transform="matrix(1 0 0 1 624.18 136.47)" class="st3 st23">O</text>
<polygon class="st20" points="619.7,123.8 626,112.9 626.3,112.9 626.5,113.1 620,124.3 619.8,124 619.7,123.8 "/>
<polygon class="st20" points="627.2,111.1 636.7,111.1 636.7,111.3 636.7,111.6 627.2,111.6 627.2,111.3 627.2,111.1 "/>
<polygon class="st20" points="626.5,112.6 636.7,112.6 636.7,112.9 636.7,113.1 626.5,113.1 626.3,112.9 626.5,112.6 "/>
<text transform="matrix(1 0 0 1 637.26 114.06)" class="st3 st23">N</text>
<polygon class="st20" points="640.7,109.9 645.4,101.7 645.7,101.7 645.8,102 641.1,110.1 640.9,110 640.7,109.9 "/>
<polygon class="st20" points="626,112.9 619.7,102 619.8,101.7 620.1,101.7 626.5,112.6 626.3,112.9 626,112.9 "/>
<polygon class="st20" points="624.4,87.9 619.5,79.5 619.8,79.5 620.1,79.5 624.9,87.6 624.6,87.7 624.4,87.9 "/>
<polygon class="st20" points="619.5,79.5 626,68.3 626.3,68.3 626.6,68.3 620.1,79.5 619.8,79.5 619.5,79.5 "/>
<polygon class="st20" points="626,68.3 619.7,57.4 619.8,57.2 620.1,57.2 626.6,68.3 626.3,68.3 626,68.3 "/>
<polygon class="st20" points="619.7,56.9 626,46 626.3,46 626.5,46.3 620.1,57.2 619.8,57.2 619.7,56.9 "/>
<polygon class="st20" points="619.7,57.4 606.9,57.4 606.9,57.2 606.9,56.9 619.7,56.9 619.8,57.2 619.7,57.4 "/>
<polygon class="st20" points="626,46 619.5,34.9 619.8,34.9 620.1,34.9 626.5,45.8 626.3,46 626,46 "/>
<polygon class="st20" points="619.5,34.9 626.2,23.5 626.3,23.8 626.5,24 620.1,34.9 619.8,34.9 619.5,34.9 "/>
<polygon class="st20" points="621.4,34.8 627,25.2 627.2,25.3 627.4,25.4 621.9,35 621.6,34.9 621.4,34.8 "/>
<polygon class="st20" points="639.5,23.8 646,34.9 645.7,34.9 645.4,34.9 639.1,24 639.2,23.8 639.5,23.8 "/>
<polygon class="st20" points="638.6,25.2 644.1,34.8 643.9,34.9 643.7,35 638.1,25.4 638.3,25.3 638.6,25.2 "/>
<polygon class="st20" points="646,34.9 639.4,46.3 639.2,46 639.1,45.8 645.4,34.9 645.7,34.9 646,34.9 "/>
<polygon class="st20" points="639.4,46.3 626.5,46.3 626.3,46 626.5,45.8 639.1,45.8 639.2,46 639.4,46.3 "/>
<polygon class="st20" points="638.3,44.7 627.2,44.7 627.2,44.5 627.2,44.2 638.3,44.2 638.3,44.5 638.3,44.7 "/>
<polygon class="st20" points="639.1,23.5 643.3,16.2 643.5,16.3 643.8,16.5 639.5,23.8 639.2,23.8 639.1,23.5 "/>
<polygon class="st20" points="626.2,23.5 639.1,23.5 639.2,23.8 639.1,24 626.5,24 626.3,23.8 626.2,23.5 "/>
<polygon class="st20" points="663.6,264.9 657.3,275.8 657.1,275.6 657,275.3 663,264.9 663.3,264.9 663.6,264.9 "/>
<polygon class="st20" points="657.3,275.8 644.8,275.8 644.8,275.6 644.9,275.3 657,275.3 657.1,275.6 657.3,275.8 "/>
<polygon class="st20" points="644.5,275.7 638.3,264.9 638.6,264.9 638.9,264.9 644.9,275.3 644.8,275.6 644.5,275.7 "/>
<polygon class="st20" points="638.3,264.9 643,256.9 643.2,257 643.4,257.1 638.9,264.9 638.6,264.9 638.3,264.9 "/>
<text transform="matrix(1 0 0 1 642.88 255.39)" class="st3 st24">N</text>
<polygon class="st20" points="647.2,254 657.3,254 657.1,254.3 657,254.5 647.2,254.5 647.2,254.3 647.2,254 "/>
<polygon class="st20" points="657.3,254 663.6,264.9 663.3,264.9 663,264.9 657,254.5 657.1,254.3 657.3,254 "/>
<polygon class="st20" points="643,251.6 638.3,243.6 638.6,243.6 638.9,243.6 643.4,251.4 643.2,251.5 643,251.6 "/>
<polygon class="st20" points="638.3,243.6 644.5,232.9 644.8,233 644.9,233.2 638.9,243.6 638.6,243.6 638.3,243.6 "/>
<polygon class="st20" points="644.5,232.9 639.4,221.7 639.7,221.7 640,221.8 644.9,232.7 644.8,233 644.5,232.9 "/>
<polygon class="st20" points="645.5,231.5 641.3,222.2 641.5,222.1 641.8,222 645.9,231.3 645.7,231.4 645.5,231.5 "/>
<polygon class="st20" points="639.4,221.7 646.3,215.5 646.5,215.7 646.6,215.9 640,221.8 639.7,221.7 639.4,221.7 "/>
<text transform="matrix(1 0 0 1 647.03 214.62)" class="st3 st24">N</text>
<polygon class="st20" points="651.5,214.7 659.9,219.5 659.6,219.6 659.3,219.8 651.2,215.1 651.4,214.9 651.5,214.7 "/>
<polygon class="st20" points="659.9,219.5 657.9,229 657.6,228.9 657.4,228.9 659.3,219.8 659.6,219.6 659.9,219.5 "/>
<polygon class="st20" points="658.2,220.4 656.4,228.7 656.2,228.6 655.9,228.6 657.7,220.3 657.9,220.4 658.2,220.4 "/>
<text transform="matrix(1 0 0 1 655.16 232.8)" class="st3 st24">N</text>
<polygon class="st20" points="654.6,232.2 644.9,233.2 644.8,233 644.9,232.7 654.6,231.7 654.6,231.9 654.6,232.2 "/>
<polygon class="st20" points="648.4,210.8 647.4,201.4 647.6,201.3 647.9,201.4 648.9,210.7 648.6,210.8 648.4,210.8 "/>
<polygon class="st20" points="647.3,199.4 654.1,194.4 654.3,194.6 654.4,194.8 647.6,199.8 647.4,199.6 647.3,199.4 "/>
<polygon class="st20" points="647.6,201 655,195.6 655.2,195.8 655.3,196 647.9,201.4 647.6,201.3 647.6,201 "/>
<text transform="matrix(1 0 0 1 655.73 195.16)" class="st3 st24">N</text>
<polygon class="st20" points="657.1,191.3 656.1,182 656.3,181.8 656.6,181.6 657.6,191.3 657.3,191.3 657.1,191.3 "/>
<polygon class="st20" points="654.8,183 645.1,178.7 645.2,178.5 645.3,178.3 655,182.6 654.9,182.8 654.8,183 "/>
<polygon class="st20" points="656.1,182 645.1,177.1 645,176.8 645,176.5 656.6,181.6 656.3,181.8 656.1,182 "/>
<polygon class="st20" points="645.1,177.1 635.3,184.1 635,184 634.8,183.9 645,176.5 645,176.8 645.1,177.1 "/>
<polygon class="st20" points="636.8,184.7 637.8,193.3 637.5,193.4 637.3,193.4 636.4,184.8 636.6,184.7 636.8,184.7 "/>
<polygon class="st20" points="635.3,184.1 636.3,193.5 636,193.5 635.8,193.5 634.8,183.9 635,184 635.3,184.1 "/>
<text transform="matrix(1 0 0 1 634.45 197.39)" class="st3 st24">N</text>
<polygon class="st20" points="638.9,197.1 647.6,201 647.6,201.3 647.4,201.4 638.7,197.6 638.8,197.4 638.9,197.1 "/>
<polygon class="st20" points="644.5,275.5 645,275.7 644.8,275.9 644.7,276.1 644.3,275.9 644.4,275.7 644.5,275.5 "/>
<polygon class="st20" points="643.8,276.5 644.4,276.9 644.3,277.1 644.2,277.3 643.5,277 643.7,276.8 643.8,276.5 "/>
<polygon class="st20" points="643,277.6 643.8,278.1 643.7,278.3 643.6,278.5 642.8,278 642.9,277.8 643,277.6 "/>
<polygon class="st20" points="642.3,278.7 643.2,279.3 643.1,279.5 643,279.7 642.1,279.1 642.2,278.9 642.3,278.7 "/>
<polygon class="st20" points="641.6,279.8 642.7,280.4 642.5,280.6 642.4,280.9 641.3,280.2 641.4,280 641.6,279.8 "/>
<polygon class="st20" points="640.8,280.9 642.1,281.6 642,281.8 641.8,282 640.6,281.3 640.7,281.1 640.8,280.9 "/>
<polygon class="st20" points="640.1,282 641.5,282.8 641.4,283 641.3,283.2 639.8,282.4 640,282.2 640.1,282 "/>
<polygon class="st20" points="639.3,283.1 640.9,284 640.8,284.2 640.7,284.4 639.1,283.5 639.2,283.3 639.3,283.1 "/>
<polygon class="st20" points="638.6,284.1 640.3,285.1 640.2,285.4 640.1,285.6 638.4,284.6 638.5,284.4 638.6,284.1 "/>
<polygon class="st20" points="637.9,285.2 639.8,286.3 639.7,286.5 639.5,286.8 637.6,285.7 637.8,285.5 637.9,285.2 "/>
<polygon class="st20" points="637.7,287.9 628.7,287.9 628.7,287.7 628.7,287.4 637.7,287.4 637.7,287.7 637.7,287.9 "/>
<polygon class="st20" points="638.4,286.5 628.7,286.5 628.7,286.2 628.7,286 638.2,286 638.6,286.2 638.4,286.5 "/>
<text transform="matrix(1 0 0 1 624.34 287.33)" class="st3 st24">N</text>
<polygon class="st20" points="624.8,289.1 620.3,296.9 620,296.9 619.9,296.6 624.4,288.8 624.6,289 624.8,289.1 "/>
<polygon class="st20" points="622,296.7 627.3,305.9 627.1,306 626.9,306.2 621.5,297 621.8,296.9 622,296.7 "/>
<polygon class="st20" points="620.3,296.9 626.4,307.3 626.2,307.5 626.1,307.8 619.9,297.1 620,296.9 620.3,296.9 "/>
<polygon class="st20" points="626.4,307.3 638.4,307.3 638.6,307.5 638.7,307.8 626.1,307.8 626.2,307.5 626.4,307.3 "/>
<polygon class="st20" points="639.2,306.6 644,314.9 643.8,315 643.6,315.2 638.8,306.9 639,306.8 639.2,306.6 "/>
<polygon class="st20" points="637.9,307.4 642.7,315.7 642.5,315.8 642.3,315.9 637.5,307.6 637.7,307.5 637.9,307.4 "/>
<text transform="matrix(1 0 0 1 642.72 319.42)" class="st3 st24">O</text>
<polygon class="st20" points="638.4,307.3 643,299.5 643.2,299.6 643.4,299.7 638.7,307.8 638.6,307.5 638.4,307.3 "/>
<text transform="matrix(1 0 0 1 642.88 297.98)" class="st3 st24">N</text>
<text transform="matrix(1 0 0 1 646.8 297.98)" class="st3 st24">H</text>
<polygon class="st20" points="643,294.2 638.4,286.5 638.6,286.2 639,286.5 643.4,294 643.2,294.1 643,294.2 "/>
<polygon class="st20" points="619.9,297.1 607.8,297.1 607.7,296.9 607.8,296.6 619.9,296.6 620,296.9 619.9,297.1 "/>
<polygon class="st20" points="607.8,297.1 600.5,307.1 600.4,306.8 600.3,306.5 607.4,296.9 607.7,296.9 607.8,297.1 "/>
<polygon class="st20" points="606.1,297 600.1,305.2 599.9,305.1 599.7,304.9 605.7,296.7 605.9,296.9 606.1,297 "/>
<polygon class="st20" points="600.5,307.1 588.4,303.2 588.7,303 588.9,302.8 600.3,306.5 600.4,306.8 600.5,307.1 "/>
<polygon class="st20" points="588.4,303.2 588.4,290.5 588.7,290.7 588.9,290.9 588.9,302.8 588.7,303 588.4,303.2 "/>
<polygon class="st20" points="589.9,301.9 589.9,291.8 590.2,291.8 590.4,291.8 590.4,301.9 590.2,301.9 589.9,301.9 "/>
<polygon class="st20" points="588.4,290.5 598,287.4 598.1,287.7 598.2,287.9 588.9,290.9 588.7,290.7 588.4,290.5 "/>
<text transform="matrix(1 0 0 1 598.7 288.17)" class="st3 st24">S</text>
<polygon class="st20" points="602.6,289.5 607.8,296.6 607.7,296.9 607.4,296.9 602.2,289.8 602.4,289.6 602.6,289.5 "/>
<polygon class="st20" points="561.7,197.4 554.2,203 554.1,202.8 553.9,202.6 561.4,197 561.6,197.2 561.7,197.4 "/>
<text transform="matrix(1 0 0 1 545.74 205.81)" class="st3 st25">H</text>
<text transform="matrix(1 0 0 1 549.71 205.81)" class="st3 st25">N</text>
<polygon class="st20" points="552.2,207.4 553.3,216.8 553.1,217 552.8,216.9 551.7,207.5 551.9,207.4 552.2,207.4 "/>
<polygon class="st20" points="553.3,216.8 562.2,220.6 562,220.8 562,221 553.1,217.3 553.1,217 553.3,216.8 "/>
<polygon class="st20" points="553.4,218.5 561.6,221.9 561.5,222.2 561.4,222.4 553.2,218.9 553.3,218.7 553.4,218.5 "/>
<text transform="matrix(1 0 0 1 562.64 223)" class="st3 st25">N</text>
<polygon class="st20" points="565.1,224.6 566.3,234.3 566,234.2 565.8,234 564.6,224.6 564.9,224.6 565.1,224.6 "/>
<polygon class="st20" points="566.3,234.3 556.3,241.7 556,241.6 556,241.3 565.8,234 566,234.2 566.3,234.3 "/>
<polygon class="st20" points="564.6,233.7 556,240.1 555.8,239.9 555.7,239.7 564.3,233.3 564.4,233.5 564.6,233.7 "/>
<polygon class="st20" points="555.8,241.8 544.4,236.9 544.6,236.7 544.8,236.5 556,241.3 556,241.6 555.8,241.8 "/>
<polygon class="st20" points="544.4,236.9 543.2,227.2 543.5,227.2 543.7,227.1 544.8,236.5 544.6,236.7 544.4,236.9 "/>
<polygon class="st20" points="545.7,235.7 544.7,227 544.9,227 545.2,227 546.2,235.7 546,235.7 545.7,235.7 "/>
<text transform="matrix(1 0 0 1 541.22 225.55)" class="st3 st25">N</text>
<polygon class="st20" points="545.5,222.4 552.8,216.9 553.1,217 553.1,217.3 545.8,222.8 545.6,222.6 545.5,222.4 "/>
<polygon class="st20" points="556.3,241.7 557.8,254 557.5,253.9 557.3,253.8 555.8,241.8 556,241.6 556.3,241.7 "/>
<polygon class="st20" points="557.8,254 550.2,259.7 550,259.5 549.9,259.3 557.3,253.8 557.5,253.9 557.8,254 "/>
<text transform="matrix(1 0 0 1 545.66 262.47)" class="st3 st25">N</text>
<polygon class="st20" points="545,260.5 536.2,256.7 536.1,256.5 536.1,256.2 545.2,260 545.1,260.3 545,260.5 "/>
<polygon class="st20" points="536.2,256.7 526.4,264 526.2,263.9 525.9,263.8 536.1,256.2 536.1,256.5 536.2,256.7 "/>
<polygon class="st20" points="526.4,264 527.9,276 527.6,276.2 527.4,276.4 525.9,263.8 526.2,263.9 526.4,264 "/>
<polygon class="st20" points="527.9,276 539,280.8 539.1,281.1 538.8,281.2 527.4,276.4 527.6,276.2 527.9,276 "/>
<polygon class="st20" points="539,280.8 548.8,273.5 549,273.6 549.3,273.8 539.3,281.2 539.1,281.1 539,280.8 "/>
<polygon class="st20" points="548.8,273.5 547.7,264.1 547.9,264.1 548.1,264.1 549.3,273.8 549,273.6 548.8,273.5 "/>
<polygon class="st20" points="539.3,281.2 536,293.4 535.8,293.5 535.6,293.3 538.8,281.2 539.1,281.1 539.3,281.2 "/>
<polygon class="st20" points="535.1,295.3 526,296.1 526,295.9 526,295.6 535,294.8 535,295 535.1,295.3 "/>
<polygon class="st20" points="535.6,293.8 525.9,294.6 525.8,294.4 525.8,294.1 535.6,293.3 535.8,293.5 535.6,293.8 "/>
<text transform="matrix(1 0 0 1 521.46 295.76)" class="st3 st25">N</text>
<polygon class="st20" points="522.3,297.5 518.4,305.9 518.2,305.9 518,305.6 521.9,297.3 522.1,297.4 522.3,297.5 "/>
<polygon class="st20" points="520.1,305.6 526.3,314.3 526.1,314.4 525.8,314.6 519.7,305.9 519.9,305.7 520.1,305.6 "/>
<polygon class="st20" points="518.4,305.9 525.5,315.7 525.3,316 525.2,316.3 518,306.1 518.2,305.9 518.4,305.9 "/>
<polygon class="st20" points="525.5,315.7 537.6,314.6 537.7,314.9 537.9,315.1 525.2,316.3 525.3,316 525.5,315.7 "/>
<polygon class="st20" points="538.3,313.9 543.8,321.7 543.6,321.8 543.4,321.9 537.9,314.2 538.1,314.1 538.3,313.9 "/>
<polygon class="st20" points="537.1,314.8 542.6,322.5 542.3,322.7 542.2,322.8 536.7,315.1 536.9,315 537.1,314.8 "/>
<text transform="matrix(1 0 0 1 542.87 326.25)" class="st3 st25">O</text>
<polygon class="st20" points="537.6,314.6 541.4,306.3 541.7,306.4 541.9,306.5 537.9,315.1 537.7,314.9 537.6,314.6 "/>
<text transform="matrix(1 0 0 1 541.05 304.75)" class="st3 st25">N</text>
<text transform="matrix(1 0 0 1 545.01 304.75)" class="st3 st25">H</text>
<polygon class="st20" points="540.8,301 535.6,293.8 535.8,293.5 536,293.4 541.2,300.7 541,300.9 540.8,301 "/>
<polygon class="st20" points="518,306.1 505.9,307.2 505.7,307 505.9,306.8 518,305.6 518.2,305.9 518,306.1 "/>
<polygon class="st20" points="505.9,307.2 499.5,318 499.4,317.7 499.2,317.4 505.4,307 505.7,307 505.9,307.2 "/>
<polygon class="st20" points="504.1,307.3 498.9,316.1 498.6,316 498.4,315.9 503.7,307 503.9,307.2 504.1,307.3 "/>
<polygon class="st20" points="499.5,318 487,315.1 487.2,314.9 487.5,314.7 499.2,317.4 499.4,317.7 499.5,318 "/>
<polygon class="st20" points="487,315.1 485.8,302.4 486.1,302.6 486.4,302.8 487.5,314.7 487.2,314.9 487,315.1 "/>
<polygon class="st20" points="488.4,313.7 487.4,303.5 487.7,303.5 487.9,303.5 488.9,313.7 488.6,313.7 488.4,313.7 "/>
<polygon class="st20" points="485.8,302.4 495.1,298.5 495.2,298.7 495.3,298.9 486.4,302.8 486.1,302.6 485.8,302.4 "/>
<text transform="matrix(1 0 0 1 495.79 298.96)" class="st3 st25">S</text>
<polygon class="st20" points="500,300.2 505.9,306.8 505.7,307 505.4,307 499.7,300.5 499.9,300.3 500,300.2 "/>
<line class="st26" x1="440.7" y1="218.4" x2="465.5" y2="230.5"/>
<line class="st26" x1="440.8" y1="230.6" x2="465.5" y2="218.3"/>
<text transform="matrix(1 0 0 1 36.5771 384.8206)" class="st27 st28">Schematic representation of the FMN riboswitch as new antibacterials target</text>
</svg>
