<svg id="图层_1" data-name="图层 1" xmlns="http://www.w3.org/2000/svg" viewBox="0 0 800 400"><defs><style>.cls-1{fill:#91d5da;}.cls-1,.cls-11,.cls-12,.cls-13,.cls-14,.cls-15,.cls-16,.cls-17,.cls-18,.cls-19,.cls-2,.cls-20,.cls-21,.cls-22,.cls-23,.cls-24,.cls-25,.cls-3{stroke:#fff;}.cls-1,.cls-10,.cls-11,.cls-12,.cls-13,.cls-14,.cls-15,.cls-16,.cls-17,.cls-18,.cls-19,.cls-2,.cls-20,.cls-21,.cls-22,.cls-23,.cls-24,.cls-25,.cls-3,.cls-5{stroke-miterlimit:10;}.cls-1,.cls-11,.cls-12,.cls-13,.cls-14,.cls-15,.cls-16,.cls-17,.cls-18,.cls-19,.cls-2,.cls-20,.cls-21,.cls-22,.cls-3{stroke-width:2.5px;}.cls-2{fill:#e4e7cc;}.cls-3{fill:#c0e1dd;}.cls-4,.cls-6{font-size:20px;}.cls-4{fill:#060000;}.cls-4,.cls-6,.cls-8{font-family:ArialMT, Arial;}.cls-10,.cls-5{fill:none;}.cls-5{stroke:#b3b3b3;}.cls-7{letter-spacing:-0.07em;}.cls-8{font-size:16px;}.cls-9{letter-spacing:-0.06em;}.cls-10{stroke:#9d9d9d;}.cls-11{fill:#f6e5d8;}.cls-12{fill:#f4e3d5;}.cls-13{fill:#f0d7c1;}.cls-14{fill:#ebcaad;}.cls-15{fill:#e5ba94;}.cls-16,.cls-23{fill:#dfa577;}.cls-17{fill:#d37c3a;}.cls-18{fill:#a6b7df;}.cls-19,.cls-24{fill:#b7c5e4;}.cls-20{fill:#e0e0e8;}.cls-21{fill:#e0e9f5;}.cls-22,.cls-25{fill:#bdbdbd;}.cls-23,.cls-24{stroke-width:2px;}.cls-25{stroke-width:0.75px;}</style></defs><path class="cls-1" d="M163.55,223.46,204,99.05a130.82,130.82,0,1,1-40.42-6.4Z"/><path class="cls-2" d="M163.55,223.46,184,94.26A118.77,118.77,0,0,1,204,99.05Z"/><path class="cls-3" d="M163.55,223.46V92.65A118,118,0,0,1,184,94.26Z"/><text class="cls-4" transform="translate(87.35 77.46)">NMR, 2</text><text class="cls-4" transform="translate(208.25 77.46)">Cryo-EM, 2</text><line class="cls-5" x1="157.1" y1="78.21" x2="170.6" y2="91.21"/><line class="cls-5" x1="211.6" y1="81.66" x2="195.05" y2="96.16"/><text class="cls-6" transform="translate(120.08 266.72)">X-ra<tspan class="cls-7" x="37.78" y="0">y</tspan><tspan x="46.3" y="0">, 72</tspan></text><text class="cls-8" transform="translate(504.5 44.47)">Heavy atom-MR, 3</text><text class="cls-8" transform="translate(337.75 270.11)">B<tspan class="cls-9" x="10.67" y="0">r</tspan><tspan x="15.12" y="0">, 9</tspan></text><text class="cls-8" transform="translate(334.74 196.46)">Cs, 4</text><text class="cls-8" transform="translate(352.42 155.85)">Os, 3</text><text class="cls-8" transform="translate(298.27 130.21)">SAD-Se-U1A, 3</text><text class="cls-8" transform="translate(393.47 114.17)">Co, 2</text><text class="cls-8" transform="translate(417.92 101.8)">Se, 1</text><text class="cls-8" transform="translate(433.96 74.32)">S<tspan class="cls-9" x="10.67" y="0">r</tspan><tspan x="15.12" y="0">, 1</tspan></text><text class="cls-8" transform="translate(424.64 88.22)">Ba, 1</text><text class="cls-8" transform="translate(365.41 59.03)">MIRAS-Os, I, 1</text><text class="cls-8" transform="translate(351.06 41.53)">MIRAS-I<tspan class="cls-9" x="60.45" y="0">r</tspan><tspan x="64.89" y="0">, Co, I, 1</tspan></text><line class="cls-10" x1="374.54" y1="217.21" x2="381.45" y2="228.79"/><line class="cls-10" x1="384.35" y1="205.62" x2="393.47" y2="226.15"/><path class="cls-11" d="M502.88,225.54,491.49,95.45c4-.35,7.42-.5,11.39-.5Z"/><path class="cls-11" d="M502.88,225.54,480.2,96.93c3.91-.69,7.34-1.14,11.29-1.48Z"/><path class="cls-11" d="M502.88,225.54,469.08,99.4c3.83-1,7.21-1.78,11.12-2.47Z"/><path class="cls-11" d="M502.88,225.54,458.21,102.83c3.73-1.36,7-2.4,10.87-3.43Z"/><path class="cls-11" d="M502.88,225.54,447.69,107.19c3.59-1.68,6.79-3,10.52-4.36Z"/><path class="cls-12" d="M502.88,225.54,428,118.57a123.87,123.87,0,0,1,19.72-11.38Z"/><path class="cls-13" d="M502.88,225.54l-100-83.94a124.11,124.11,0,0,1,25.13-23Z"/><path class="cls-14" d="M502.88,225.54,384.52,170.35a124.39,124.39,0,0,1,18.32-28.75Z"/><path class="cls-15" d="M502.88,225.54l-130.1-11.38a124.38,124.38,0,0,1,11.74-43.81Z"/><path class="cls-16" d="M502.88,225.54l-100,84Q368.07,268,372.78,214.16Z"/><path class="cls-17" d="M502.88,225.54H633.47a130.6,130.6,0,0,1-130.59,130.6c-40,0-74.31-16-100-46.65Z"/><path class="cls-18" d="M502.88,225.54l74.9-107c36.1,25.27,55.69,62.91,55.69,107Z"/><path class="cls-19" d="M502.88,225.54l55.19-118.35a124.22,124.22,0,0,1,19.71,11.38Z"/><path class="cls-20" d="M502.88,225.54l44.66-122.71c3.73,1.35,6.93,2.68,10.53,4.36Z"/><path class="cls-21" d="M502.88,225.54,536.68,99.4c3.83,1,7.13,2.07,10.86,3.43Z"/><path class="cls-22" d="M502.88,225.54V95a124.53,124.53,0,0,1,33.8,4.45Z"/><path class="cls-23" d="M503.62,225.54h87.71a87.72,87.72,0,1,1-87.71-87.72h0Z"/><path class="cls-24" d="M503.62,225.54l22.7-84.73c39,10.45,65,44.38,65,84.73Z"/><path class="cls-25" d="M503.62,225.54V137.82a83.71,83.71,0,0,1,22.7,3Z"/><text class="cls-6" transform="translate(430.86 256.76)">Heavy atom, 54</text><text class="cls-6" transform="translate(513.59 205.62)">MR, 15</text><line class="cls-10" x1="509.76" y1="48.65" x2="517.43" y2="95.11"/><text class="cls-8" transform="translate(579.32 109.63)"><tspan xml:space="preserve"> U1A MR, 2</tspan></text><text class="cls-8" transform="translate(547.47 63.01)">Fragments MR, 1</text><text class="cls-8" transform="translate(565.02 85.82)">Homologus modelling MR, 1</text><text class="cls-8" transform="translate(622.29 164.1)">Simple MR, 11 </text><line class="cls-10" x1="575.94" y1="108.83" x2="568.51" y2="110.43"/><line class="cls-10" x1="562.72" y1="92.34" x2="552.3" y2="102.56"/><line class="cls-10" x1="556.02" y1="66.37" x2="541.99" y2="99.63"/><text class="cls-6" transform="translate(562.72 355.45)">I<tspan class="cls-9" x="5.56" y="0">r</tspan><tspan x="11.11" y="0">, 28</tspan></text><line class="cls-10" x1="472.91" y1="44.65" x2="498.54" y2="93.44"/><line class="cls-10" x1="469.02" y1="60.78" x2="485.17" y2="94.77"/><line class="cls-10" x1="463.92" y1="76.78" x2="475.21" y2="96.66"/><line class="cls-10" x1="458.79" y1="90.03" x2="464.7" y2="100.43"/><line class="cls-10" x1="452.47" y1="102.55" x2="453.77" y2="104.84"/><line class="cls-10" x1="436.04" y1="111.89" x2="437.34" y2="114.17"/></svg>