<svg id="图层_1" data-name="图层 1" xmlns="http://www.w3.org/2000/svg" viewBox="0 0 800 400"><defs><style>.cls-1,.cls-19,.cls-4{fill:none;}.cls-1,.cls-9{stroke:#000;}.cls-1,.cls-11,.cls-19,.cls-3,.cls-4,.cls-5,.cls-9{stroke-miterlimit:10;}.cls-2{font-size:20px;font-family:Arial-BoldMT, Arial;font-weight:700;}.cls-14,.cls-23,.cls-29,.cls-3,.cls-5{fill:#fff;}.cls-3,.cls-4{stroke:#251e1c;}.cls-11,.cls-5{stroke:#fff;}.cls-6{font-size:11.25px;}.cls-10,.cls-13,.cls-15,.cls-18,.cls-20,.cls-21,.cls-24,.cls-26,.cls-28,.cls-6,.cls-7{font-family:ArialMT, Arial;}.cls-14,.cls-7{font-size:18.75px;}.cls-8{letter-spacing:-0.04em;}.cls-9{fill:#251e1c;}.cls-10{font-size:16.88px;}.cls-11{fill:#c50018;}.cls-12{letter-spacing:-0.11em;}.cls-13{font-size:16.98px;}.cls-14,.cls-23,.cls-29{font-family:AdobeSongStd-Light-GBpc-EUC-H, Adobe Song Std;}.cls-15,.cls-23{font-size:18.86px;}.cls-15{letter-spacing:-0.02em;}.cls-16{letter-spacing:-0.04em;}.cls-17{letter-spacing:0em;}.cls-18{font-size:16.98px;}.cls-19{stroke:#ff0b0c;}.cls-20{font-size:11.32px;}.cls-21{font-size:18.75px;}.cls-22{letter-spacing:-0.04em;}.cls-24,.cls-29{font-size:18.47px;}.cls-25{letter-spacing:-0.04em;}.cls-26{font-size:16.63px;}.cls-27{letter-spacing:-0.04em;}.cls-28{font-size:11.08px;}</style></defs><line class="cls-1" x1="780.63" y1="147.76" x2="780.63" y2="135.83"/><text class="cls-2" transform="translate(144.61 358.34)">Riboswitch components and regulation mechanisms</text><circle class="cls-3" cx="194.08" cy="161.51" r="16.06"/><line class="cls-4" x1="186.52" y1="175.42" x2="186.52" y2="270.38"/><line class="cls-4" x1="202.59" y1="175.42" x2="202.59" y2="270.38"/><circle class="cls-3" cx="21.51" cy="215.78" r="16.06"/><line class="cls-4" x1="35.15" y1="223.34" x2="68.19" y2="223.34"/><line class="cls-4" x1="35.15" y1="207.28" x2="68.56" y2="207.28"/><circle class="cls-3" cx="139.48" cy="168.71" r="16.06"/><line class="cls-4" x1="124.51" y1="173.09" x2="100.66" y2="196.95"/><line class="cls-4" x1="135.94" y1="184.39" x2="110.53" y2="209.79"/><circle class="cls-4" cx="88.98" cy="215.78" r="22.36"/><line class="cls-4" x1="80.95" y1="236.37" x2="80.95" y2="270.38"/><line class="cls-4" x1="97.01" y1="236.65" x2="97.01" y2="270.38"/><line class="cls-4" x1="81.33" y1="270.38" x2="37.58" y2="270.38"/><line class="cls-4" x1="96.59" y1="270.38" x2="186.52" y2="270.38"/><line class="cls-4" x1="202.59" y1="270.38" x2="218.07" y2="270.38"/><line class="cls-4" x1="116.39" y1="181.31" x2="127.75" y2="192.68"/><line class="cls-4" x1="43.65" y1="207.28" x2="43.65" y2="223.34"/><line class="cls-4" x1="186.52" y1="187" x2="202.59" y2="187"/><line class="cls-4" x1="51.23" y1="206.94" x2="51.23" y2="223"/><line class="cls-4" x1="58.92" y1="206.94" x2="58.92" y2="223"/><line class="cls-4" x1="111.34" y1="187" x2="122.71" y2="198.36"/><line class="cls-4" x1="105.66" y1="192.04" x2="117.03" y2="203.4"/><line class="cls-4" x1="186.05" y1="210.41" x2="202.12" y2="210.41"/><line class="cls-4" x1="186.05" y1="202.6" x2="202.12" y2="202.6"/><line class="cls-4" x1="186.52" y1="194.8" x2="202.59" y2="194.8"/><line class="cls-4" x1="97.01" y1="239.9" x2="80.95" y2="239.9"/><line class="cls-4" x1="80.95" y1="267.61" x2="97.01" y2="267.61"/><line class="cls-4" x1="80.95" y1="260.86" x2="97.01" y2="260.86"/><line class="cls-4" x1="80.95" y1="253.82" x2="97.01" y2="253.82"/><line class="cls-4" x1="80.95" y1="246.79" x2="97.01" y2="246.79"/><line class="cls-4" x1="186.52" y1="250.11" x2="202.59" y2="250.11"/><line class="cls-4" x1="186.05" y1="241.97" x2="202.12" y2="241.97"/><line class="cls-4" x1="186.73" y1="233.21" x2="202.79" y2="233.21"/><line class="cls-4" x1="186.05" y1="226.01" x2="202.12" y2="226.01"/><line class="cls-4" x1="186.52" y1="218.21" x2="202.59" y2="218.21"/><line class="cls-4" x1="186.52" y1="179.19" x2="202.59" y2="179.19"/><line class="cls-4" x1="186.05" y1="266.38" x2="202.11" y2="266.38"/><line class="cls-4" x1="186.73" y1="258.24" x2="202.79" y2="258.24"/><rect class="cls-5" x="28.48" y="208.22" width="12.12" height="14.14"/><rect class="cls-5" x="61.13" y="208.23" width="12.12" height="14.16"/><rect class="cls-5" x="81.89" y="233.45" width="14.17" height="4.7"/><rect class="cls-5" x="125.86" y="172.17" width="7.7" height="14.15" transform="translate(-88.96 145.51) rotate(-45.34)"/><rect class="cls-5" x="190.69" y="167.5" width="7.7" height="14.17" transform="translate(19.96 369.12) rotate(-90)"/><text class="cls-6" transform="translate(218.07 274.13)">UUUUUU</text><rect class="cls-5" x="100.21" y="195.64" width="12.12" height="14.06" transform="translate(-112.18 134.5) rotate(-45)"/><text class="cls-7" transform="translate(35.67 61.86)"><tspan class="cls-8">T</tspan><tspan x="10.76" y="0">ranscription Control</tspan></text><line class="cls-1" x1="23.14" y1="151.37" x2="23.14" y2="139.52"/><line class="cls-1" x1="151.89" y1="151.04" x2="151.89" y2="139.85"/><line class="cls-9" x1="22.86" y1="139.52" x2="151.89" y2="139.52"/><text class="cls-10" transform="translate(114.7 90.59)">Expression<tspan x="0" y="20.25" xml:space="preserve">  Platform</tspan></text><line class="cls-9" x1="75.24" y1="114.89" x2="226.49" y2="114.89"/><line class="cls-1" x1="75.05" y1="126.73" x2="75.05" y2="114.89"/><line class="cls-1" x1="226.31" y1="126.73" x2="226.31" y2="115.55"/><text class="cls-10" transform="translate(47.83 135.79)">Aptamer</text><circle class="cls-11" cx="88.97" cy="215.78" r="11.23"/><text class="cls-10" transform="translate(12.01 166.93)">Ligand</text><line class="cls-1" x1="58.58" y1="168.06" x2="82.27" y2="206.55"/><text class="cls-10" transform="translate(206.09 250.07)"><tspan class="cls-12">T</tspan><tspan x="8.44" y="0">erminator</tspan></text><text class="cls-13" transform="translate(88.98 294.62)">Anti-terminator</text><text class="cls-7" transform="translate(18.1 278.42)">5<tspan class="cls-8" x="10.43" y="0">’</tspan></text><text class="cls-14" transform="translate(84.28 221.4)">L</text><line class="cls-1" x1="116.14" y1="251.75" x2="166.3" y2="251.75"/><polygon points="109.08 251.75 119.03 255.81 116.67 251.75 119.03 247.69 109.08 251.75"/><polygon points="173.36 251.75 163.41 255.81 165.78 251.75 163.41 247.69 173.36 251.75"/><line class="cls-9" x1="139.48" y1="252.5" x2="139.48" y2="264.4"/><text class="cls-15" transform="translate(333.77 61.96)"> <tspan class="cls-16" x="4.9" y="0">T</tspan><tspan class="cls-17" x="15.72" y="0">ranslation Control</tspan></text><line class="cls-1" x1="312.13" y1="147.67" x2="312.13" y2="135.75"/><line class="cls-1" x1="441.65" y1="147.34" x2="441.65" y2="136.08"/><line class="cls-9" x1="311.84" y1="135.75" x2="441.65" y2="135.75"/><text class="cls-18" transform="translate(404.24 86.52)">Expression<tspan x="0" y="20.37" xml:space="preserve">  Platform</tspan></text><line class="cls-9" x1="364.53" y1="110.97" x2="516.69" y2="110.97"/><line class="cls-1" x1="364.35" y1="122.89" x2="364.35" y2="110.97"/><line class="cls-1" x1="516.51" y1="122.89" x2="516.51" y2="111.64"/><text class="cls-18" transform="translate(336.96 132)">Aptamer</text><circle class="cls-3" cx="313.24" cy="214.47" r="16.16"/><line class="cls-4" x1="326.96" y1="222.07" x2="360.2" y2="222.07"/><line class="cls-4" x1="326.96" y1="205.91" x2="360.56" y2="205.91"/><circle class="cls-3" cx="431.9" cy="167.11" r="16.16"/><line class="cls-4" x1="416.85" y1="171.53" x2="392.85" y2="195.52"/><line class="cls-4" x1="428.34" y1="182.89" x2="402.79" y2="208.44"/><circle class="cls-4" cx="381.11" cy="214.47" r="22.5"/><line class="cls-4" x1="373.03" y1="235.18" x2="373.03" y2="269.4"/><line class="cls-4" x1="389.19" y1="235.46" x2="389.19" y2="269.4"/><line class="cls-4" x1="373.42" y1="269.4" x2="329.4" y2="269.4"/><line class="cls-4" x1="388.77" y1="269.4" x2="479.23" y2="269.4"/><line class="cls-4" x1="495.39" y1="269.4" x2="510.97" y2="269.4"/><line class="cls-4" x1="408.68" y1="179.79" x2="420.11" y2="191.23"/><line class="cls-4" x1="335.51" y1="205.91" x2="335.51" y2="222.07"/><line class="cls-4" x1="343.13" y1="205.57" x2="343.13" y2="221.73"/><line class="cls-4" x1="350.87" y1="205.57" x2="350.87" y2="221.73"/><line class="cls-4" x1="403.6" y1="185.51" x2="415.04" y2="196.94"/><line class="cls-4" x1="397.89" y1="190.58" x2="409.32" y2="202.02"/><line class="cls-4" x1="389.19" y1="238.73" x2="373.03" y2="238.73"/><line class="cls-4" x1="373.03" y1="266.6" x2="389.19" y2="266.6"/><line class="cls-4" x1="373.03" y1="259.81" x2="389.19" y2="259.81"/><line class="cls-4" x1="373.03" y1="252.74" x2="389.19" y2="252.74"/><line class="cls-4" x1="373.03" y1="245.66" x2="389.19" y2="245.66"/><rect class="cls-5" x="320.25" y="206.86" width="12.19" height="14.23"/><rect class="cls-5" x="353.09" y="206.86" width="12.19" height="14.25"/><rect class="cls-5" x="373.98" y="232.24" width="14.27" height="4.72"/><rect class="cls-5" x="418.3" y="170.59" width="7.55" height="14.25" transform="translate(-1.01 353) rotate(-45.34)"/><circle class="cls-3" cx="486.84" cy="206.26" r="16.16"/><line class="cls-4" x1="479.23" y1="220.25" x2="479.23" y2="269.83"/><line class="cls-4" x1="495.39" y1="220.25" x2="495.39" y2="269.8"/><line class="cls-4" x1="479.23" y1="231.9" x2="495.39" y2="231.9"/><line class="cls-4" x1="478.76" y1="255.45" x2="494.92" y2="255.45"/><line class="cls-4" x1="478.76" y1="247.6" x2="494.92" y2="247.6"/><line class="cls-4" x1="479.23" y1="239.75" x2="495.39" y2="239.75"/><line class="cls-4" x1="479.23" y1="263.3" x2="495.39" y2="263.3"/><line class="cls-4" x1="479.23" y1="224.05" x2="495.39" y2="224.05"/><rect class="cls-5" x="483.88" y="211.86" width="6.89" height="14.24" transform="translate(268.35 706.3) rotate(-90)"/><rect class="cls-5" x="390.79" y="195.8" width="12.19" height="14.25" transform="translate(-27.25 340.07) rotate(-45)"/><rect class="cls-19" x="495.39" y="224.35" width="0.77" height="31.4"/><text class="cls-20" transform="translate(500.1 246.47)">RBS</text><circle class="cls-11" cx="381.68" cy="215.19" r="11.3"/><text class="cls-18" transform="translate(379.06 295.29)">Anti-antiRBS</text><text class="cls-18" transform="translate(459.9 180.8)">Anti-RBS</text><text class="cls-21" transform="translate(313.24 274.63)">5<tspan class="cls-22" x="10.43" y="0">’</tspan></text><text class="cls-23" transform="translate(376.75 221.09)">L</text><line class="cls-1" x1="408.83" y1="251.98" x2="459.37" y2="251.98"/><polygon points="401.77 251.98 411.72 256.05 409.36 251.98 411.72 247.92 401.77 251.98"/><polygon points="466.44 251.98 456.49 256.05 458.85 251.98 456.49 247.92 466.44 251.98"/><line class="cls-9" x1="432.34" y1="252.74" x2="432.34" y2="264.71"/><text class="cls-24" transform="translate(590.08 64.62)"><tspan class="cls-25">T</tspan><tspan x="10.6" y="0">ranscription Control</tspan></text><line class="cls-1" x1="618.7" y1="148.56" x2="618.7" y2="136.89"/><line class="cls-9" x1="618.7" y1="136.89" x2="780.63" y2="135.83"/><text class="cls-26" transform="translate(640.56 86.55)">Expression<tspan x="0" y="19.95" xml:space="preserve">  Platform</tspan></text><line class="cls-9" x1="610.67" y1="110.49" x2="746.44" y2="110.49"/><line class="cls-1" x1="610.49" y1="122.16" x2="610.49" y2="110.49"/><line class="cls-1" x1="746.57" y1="122.16" x2="746.57" y2="111.14"/><text class="cls-26" transform="translate(712.06 131.08)">Aptamer</text><text class="cls-21" transform="translate(554.69 271.34)">5<tspan class="cls-27" x="10.43" y="0">’</tspan></text><circle class="cls-3" cx="646.06" cy="212.09" r="15.83"/><line class="cls-4" x1="659.49" y1="219.54" x2="692.04" y2="219.54"/><line class="cls-4" x1="659.49" y1="203.72" x2="692.4" y2="203.72"/><circle class="cls-3" cx="762.26" cy="165.72" r="15.83"/><line class="cls-4" x1="747.52" y1="170.04" x2="724.02" y2="193.54"/><line class="cls-4" x1="758.78" y1="181.17" x2="733.75" y2="206.19"/><circle class="cls-4" cx="712.52" cy="212.09" r="22.03"/><line class="cls-4" x1="704.61" y1="232.38" x2="704.61" y2="265.88"/><line class="cls-4" x1="720.43" y1="232.66" x2="720.43" y2="265.88"/><line class="cls-4" x1="704.99" y1="265.88" x2="624.24" y2="265.88"/><line class="cls-4" x1="720.02" y1="265.88" x2="764.31" y2="265.88"/><line class="cls-4" x1="739.52" y1="178.14" x2="750.71" y2="189.34"/><line class="cls-4" x1="667.87" y1="203.72" x2="667.87" y2="219.54"/><line class="cls-4" x1="675.33" y1="203.38" x2="675.33" y2="219.21"/><line class="cls-4" x1="682.91" y1="203.38" x2="682.91" y2="219.21"/><line class="cls-4" x1="734.55" y1="183.74" x2="745.74" y2="194.93"/><line class="cls-4" x1="728.95" y1="188.71" x2="740.15" y2="199.9"/><line class="cls-4" x1="720.43" y1="235.86" x2="704.61" y2="235.86"/><line class="cls-4" x1="704.61" y1="263.15" x2="720.43" y2="263.15"/><line class="cls-4" x1="704.61" y1="256.5" x2="720.43" y2="256.5"/><line class="cls-4" x1="704.61" y1="249.57" x2="720.43" y2="249.57"/><line class="cls-4" x1="704.61" y1="242.65" x2="720.43" y2="242.65"/><rect class="cls-5" x="652.92" y="204.65" width="11.93" height="13.94"/><rect class="cls-5" x="685.09" y="204.65" width="11.93" height="13.94"/><rect class="cls-5" x="705.54" y="229.5" width="13.97" height="4.63"/><rect class="cls-5" x="748.85" y="169.13" width="7.59" height="13.96" transform="translate(98.33 587.64) rotate(-45.34)"/><line class="cls-4" x1="571.02" y1="265.9" x2="593.16" y2="265.9"/><line class="cls-4" x1="608.99" y1="265.9" x2="624.24" y2="265.9"/><circle class="cls-3" cx="600.61" cy="204.07" r="15.83"/><line class="cls-4" x1="593.16" y1="217.77" x2="593.16" y2="266.32"/><line class="cls-4" x1="608.99" y1="217.77" x2="608.99" y2="266.29"/><line class="cls-4" x1="593.16" y1="229.18" x2="608.99" y2="229.18"/><line class="cls-4" x1="592.7" y1="252.24" x2="608.53" y2="252.24"/><line class="cls-4" x1="592.7" y1="244.55" x2="608.53" y2="244.55"/><line class="cls-4" x1="593.16" y1="236.86" x2="608.99" y2="236.86"/><line class="cls-4" x1="593.16" y1="259.93" x2="608.99" y2="259.93"/><line class="cls-4" x1="593.16" y1="221.49" x2="608.99" y2="221.49"/><rect class="cls-5" x="597.71" y="209.55" width="6.74" height="13.95" transform="translate(384.55 817.6) rotate(-90)"/><rect class="cls-19" x="592.7" y="226.2" width="0.46" height="15.58" transform="translate(1185.86 467.97) rotate(180)"/><circle class="cls-11" cx="712.53" cy="213.15" r="11.06"/><text class="cls-13" transform="translate(630.2 295.5)">Anti-antiSS</text><text class="cls-28" transform="translate(565.47 240.18)">5’SS</text><text class="cls-26" transform="translate(573.08 176.94)">Anti-SS</text><text class="cls-29" transform="translate(708.02 218.59)">L</text><line class="cls-1" x1="632.19" y1="250.68" x2="681.4" y2="250.68"/><polygon points="625.13 250.68 635.08 254.75 632.72 250.68 635.08 246.62 625.13 250.68"/><polygon points="688.46 250.68 678.51 254.75 680.87 250.68 678.51 246.62 688.46 250.68"/><line class="cls-9" x1="655.08" y1="251.43" x2="655.08" y2="263.15"/></svg>