<svg id="图层_1" data-name="图层 1" xmlns="http://www.w3.org/2000/svg" viewBox="0 0 800 400"><defs><style>.cls-1,.cls-15,.cls-3{fill:#fff;}.cls-1,.cls-2{stroke:#251e1c;}.cls-1,.cls-11,.cls-2,.cls-3,.cls-5,.cls-8,.cls-9{stroke-miterlimit:10;}.cls-2,.cls-5,.cls-8{fill:none;}.cls-11,.cls-3{stroke:#fff;}.cls-4{font-size:12px;}.cls-10,.cls-4,.cls-6{font-family:ArialMT, Arial;}.cls-5{stroke:#ff0b0c;}.cls-14,.cls-15,.cls-6{font-size:20px;}.cls-7{letter-spacing:-0.04em;}.cls-8,.cls-9{stroke:#000;}.cls-9{fill:#251e1c;}.cls-10{font-size:18px;}.cls-11{fill:#c50018;}.cls-12{letter-spacing:-0.11em;}.cls-13{letter-spacing:-0.02em;}.cls-14{font-family:Arial-BoldMT, Arial;font-weight:700;}.cls-15{font-family:AdobeSongStd-Light-GBpc-EUC-H, Adobe Song Std;}</style></defs><circle class="cls-1" cx="203.64" cy="169.21" r="17.13"/><line class="cls-2" x1="195.57" y1="184.05" x2="195.57" y2="285.33"/><line class="cls-2" x1="212.7" y1="184.05" x2="212.7" y2="285.33"/><circle class="cls-1" cx="19.58" cy="227.09" r="17.13"/><line class="cls-2" x1="34.13" y1="235.16" x2="69.37" y2="235.16"/><line class="cls-2" x1="34.13" y1="218.02" x2="69.76" y2="218.02"/><circle class="cls-1" cx="145.39" cy="176.89" r="17.13"/><line class="cls-2" x1="129.43" y1="181.57" x2="103.99" y2="207.01"/><line class="cls-2" x1="141.62" y1="193.61" x2="114.52" y2="220.7"/><circle class="cls-2" cx="91.54" cy="227.09" r="23.85"/><line class="cls-2" x1="82.97" y1="249.06" x2="82.97" y2="285.33"/><line class="cls-2" x1="100.1" y1="249.35" x2="100.1" y2="285.33"/><line class="cls-2" x1="83.38" y1="285.33" x2="36.72" y2="285.33"/><line class="cls-2" x1="99.66" y1="285.33" x2="195.57" y2="285.33"/><line class="cls-2" x1="212.7" y1="285.33" x2="229.22" y2="285.33"/><line class="cls-2" x1="120.77" y1="190.33" x2="132.89" y2="202.45"/><line class="cls-2" x1="43.2" y1="218.02" x2="43.2" y2="235.16"/><line class="cls-2" x1="195.57" y1="196.39" x2="212.7" y2="196.39"/><line class="cls-2" x1="51.28" y1="217.66" x2="51.28" y2="234.79"/><line class="cls-2" x1="59.48" y1="217.66" x2="59.48" y2="234.79"/><line class="cls-2" x1="115.39" y1="196.39" x2="127.51" y2="208.51"/><line class="cls-2" x1="109.33" y1="201.77" x2="121.45" y2="213.89"/><line class="cls-2" x1="195.07" y1="221.36" x2="212.2" y2="221.36"/><line class="cls-2" x1="195.07" y1="213.04" x2="212.2" y2="213.04"/><line class="cls-2" x1="195.57" y1="204.72" x2="212.7" y2="204.72"/><line class="cls-2" x1="100.1" y1="252.82" x2="82.97" y2="252.82"/><line class="cls-2" x1="82.97" y1="282.37" x2="100.1" y2="282.37"/><line class="cls-2" x1="82.97" y1="275.17" x2="100.1" y2="275.17"/><line class="cls-2" x1="82.97" y1="267.67" x2="100.1" y2="267.67"/><line class="cls-2" x1="82.97" y1="260.17" x2="100.1" y2="260.17"/><line class="cls-2" x1="195.57" y1="263.7" x2="212.7" y2="263.7"/><line class="cls-2" x1="195.07" y1="255.02" x2="212.2" y2="255.02"/><line class="cls-2" x1="195.79" y1="245.69" x2="212.92" y2="245.69"/><line class="cls-2" x1="195.07" y1="238.01" x2="212.2" y2="238.01"/><line class="cls-2" x1="195.57" y1="229.68" x2="212.7" y2="229.68"/><line class="cls-2" x1="195.57" y1="188.07" x2="212.7" y2="188.07"/><line class="cls-2" x1="195.06" y1="281.06" x2="212.2" y2="281.06"/><line class="cls-2" x1="195.79" y1="272.38" x2="212.92" y2="272.38"/><rect class="cls-3" x="27.02" y="219.03" width="12.92" height="15.08"/><rect class="cls-3" x="61.84" y="219.04" width="12.92" height="15.1"/><rect class="cls-3" x="83.98" y="245.93" width="15.11" height="5.01"/><rect class="cls-3" x="130.87" y="180.58" width="8.22" height="15.1" transform="translate(-93.71 151.89) rotate(-45.34)"/><rect class="cls-3" x="200.02" y="175.6" width="8.22" height="15.11" transform="translate(20.98 387.28) rotate(-90)"/><circle class="cls-1" cx="296.21" cy="225.68" r="17.13"/><line class="cls-2" x1="310.75" y1="233.75" x2="346" y2="233.75"/><line class="cls-2" x1="310.75" y1="216.61" x2="346.39" y2="216.61"/><circle class="cls-1" cx="422.02" cy="175.48" r="17.13"/><line class="cls-2" x1="406.06" y1="180.16" x2="380.62" y2="205.6"/><line class="cls-2" x1="418.25" y1="192.2" x2="391.15" y2="219.3"/><circle class="cls-2" cx="368.16" cy="225.68" r="23.85"/><line class="cls-2" x1="359.6" y1="247.65" x2="359.6" y2="283.92"/><line class="cls-2" x1="376.73" y1="247.94" x2="376.73" y2="283.92"/><line class="cls-2" x1="360.01" y1="283.92" x2="313.34" y2="283.92"/><line class="cls-2" x1="376.29" y1="283.92" x2="472.2" y2="283.92"/><line class="cls-2" x1="489.33" y1="283.92" x2="505.85" y2="283.92"/><line class="cls-2" x1="397.4" y1="188.92" x2="409.52" y2="201.04"/><line class="cls-2" x1="319.82" y1="216.61" x2="319.82" y2="233.75"/><line class="cls-2" x1="327.9" y1="216.25" x2="327.9" y2="233.39"/><line class="cls-2" x1="336.11" y1="216.25" x2="336.11" y2="233.39"/><line class="cls-2" x1="392.02" y1="194.98" x2="404.14" y2="207.1"/><line class="cls-2" x1="385.96" y1="200.36" x2="398.08" y2="212.48"/><line class="cls-2" x1="376.73" y1="251.41" x2="359.6" y2="251.41"/><line class="cls-2" x1="359.6" y1="280.96" x2="376.73" y2="280.96"/><line class="cls-2" x1="359.6" y1="273.76" x2="376.73" y2="273.76"/><line class="cls-2" x1="359.6" y1="266.26" x2="376.73" y2="266.26"/><line class="cls-2" x1="359.6" y1="258.76" x2="376.73" y2="258.76"/><rect class="cls-3" x="303.65" y="217.62" width="12.92" height="15.09"/><rect class="cls-3" x="338.46" y="217.62" width="12.92" height="15.11"/><rect class="cls-3" x="360.61" y="244.53" width="15.13" height="5.01"/><rect class="cls-3" x="407.6" y="179.16" width="8.01" height="15.11" transform="translate(-10.53 348.22) rotate(-45.34)"/><circle class="cls-1" cx="480.26" cy="216.98" r="17.13"/><line class="cls-2" x1="472.2" y1="231.82" x2="472.2" y2="284.37"/><line class="cls-2" x1="489.33" y1="231.82" x2="489.33" y2="284.35"/><line class="cls-2" x1="472.2" y1="244.16" x2="489.33" y2="244.16"/><line class="cls-2" x1="471.7" y1="269.13" x2="488.83" y2="269.13"/><line class="cls-2" x1="471.7" y1="260.81" x2="488.83" y2="260.81"/><line class="cls-2" x1="472.2" y1="252.49" x2="489.33" y2="252.49"/><line class="cls-2" x1="472.2" y1="277.45" x2="489.33" y2="277.45"/><line class="cls-2" x1="472.2" y1="235.84" x2="489.33" y2="235.84"/><rect class="cls-3" x="477.13" y="222.92" width="7.3" height="15.1" transform="translate(250.32 711.24) rotate(-90)"/><text class="cls-4" transform="translate(229.22 289.33)">UUUUUU</text><rect class="cls-3" x="378.43" y="205.9" width="12.92" height="15.1" transform="translate(-38.2 334.68) rotate(-45)"/><rect class="cls-3" x="103.51" y="205.61" width="12.92" height="15" transform="translate(-118.48 140.18) rotate(-45)"/><rect class="cls-5" x="489.33" y="236.16" width="0.82" height="33.29"/><text class="cls-4" transform="translate(494.32 259.62)">RBS</text><text class="cls-6" transform="translate(15.48 62.94)"><tspan class="cls-7">T</tspan><tspan x="11.47" y="0">ranscription Control</tspan></text><line class="cls-8" x1="21.32" y1="158.39" x2="21.32" y2="145.76"/><line class="cls-8" x1="158.63" y1="158.04" x2="158.63" y2="146.11"/><line class="cls-9" x1="21.02" y1="145.76" x2="158.63" y2="145.76"/><text class="cls-10" transform="translate(118.97 93.57)">Expression<tspan x="0" y="21.6" xml:space="preserve">  Platform</tspan></text><line class="cls-9" x1="76.88" y1="119.49" x2="238.2" y2="119.49"/><line class="cls-8" x1="76.69" y1="132.12" x2="76.69" y2="119.49"/><line class="cls-8" x1="238" y1="132.12" x2="238" y2="120.19"/><text class="cls-10" transform="translate(47.65 141.78)">Aptamer</text><circle class="cls-11" cx="91.53" cy="227.09" r="11.98"/><circle class="cls-11" cx="368.77" cy="226.45" r="11.98"/><text class="cls-10" transform="translate(9.44 174.99)">Ligand</text><line class="cls-8" x1="59.12" y1="176.2" x2="84.38" y2="217.25"/><text class="cls-10" transform="translate(216.44 263.67)"><tspan class="cls-12">T</tspan><tspan x="9" y="0">erminator</tspan></text><text class="cls-10" transform="translate(91.54 311.18)">Anti-terminator</text><text class="cls-6" transform="translate(304.2 62.94)"><tspan class="cls-13"> </tspan><tspan class="cls-7" x="5.2" y="0">T</tspan><tspan x="16.67" y="0">ranslation Control</tspan></text><line class="cls-8" x1="295.03" y1="153.8" x2="295.03" y2="141.17"/><line class="cls-8" x1="432.35" y1="153.45" x2="432.35" y2="141.52"/><line class="cls-9" x1="294.73" y1="141.17" x2="432.35" y2="141.17"/><text class="cls-10" transform="translate(392.69 88.98)">Expression<tspan x="0" y="21.6" xml:space="preserve">  Platform</tspan></text><line class="cls-9" x1="350.59" y1="114.9" x2="511.91" y2="114.9"/><line class="cls-8" x1="350.4" y1="127.53" x2="350.4" y2="114.9"/><line class="cls-8" x1="511.72" y1="127.53" x2="511.72" y2="115.6"/><text class="cls-10" transform="translate(321.37 137.19)">Aptamer</text><text class="cls-6" transform="translate(589.91 62.93)"><tspan class="cls-7">T</tspan><tspan x="11.47" y="0">ranscription Control</tspan></text><line class="cls-8" x1="608.99" y1="153.8" x2="608.99" y2="141.17"/><line class="cls-8" x1="784.16" y1="152.08" x2="784.16" y2="140.15"/><line class="cls-9" x1="608.99" y1="141.17" x2="784.31" y2="140.02"/><text class="cls-10" transform="translate(642.4 86.67)">Expression<tspan x="0" y="21.6" xml:space="preserve">  Platform</tspan></text><line class="cls-9" x1="600.3" y1="112.59" x2="747.28" y2="112.59"/><line class="cls-8" x1="600.11" y1="125.22" x2="600.11" y2="112.59"/><line class="cls-8" x1="747.42" y1="125.22" x2="747.42" y2="113.29"/><text class="cls-10" transform="translate(710.07 134.88)">Aptamer</text><text class="cls-10" transform="translate(366 311.37)">Anti-antiRBS</text><text class="cls-10" transform="translate(451.7 189.99)">Anti-RBS</text><text class="cls-14" transform="translate(147.61 364.34)">Riboswitch components and regulation mechanisms</text><text class="cls-6" transform="translate(15.94 293.9)">5<tspan class="cls-7" x="11.12" y="0">’</tspan></text><text class="cls-6" transform="translate(296.21 289.47)">5<tspan class="cls-7" x="11.12" y="0">’</tspan></text><circle class="cls-1" cx="638.61" cy="223.67" r="17.13"/><line class="cls-2" x1="653.15" y1="231.74" x2="688.4" y2="231.74"/><line class="cls-2" x1="653.15" y1="214.61" x2="688.78" y2="214.61"/><circle class="cls-1" cx="764.42" cy="173.47" r="17.13"/><line class="cls-2" x1="748.46" y1="178.15" x2="723.02" y2="203.59"/><line class="cls-2" x1="760.64" y1="190.19" x2="733.55" y2="217.29"/><circle class="cls-2" cx="710.56" cy="223.67" r="23.85"/><line class="cls-2" x1="702" y1="245.64" x2="702" y2="281.91"/><line class="cls-2" x1="719.13" y1="245.94" x2="719.13" y2="281.91"/><line class="cls-2" x1="702.41" y1="281.91" x2="614.99" y2="281.91"/><line class="cls-2" x1="718.68" y1="281.91" x2="766.64" y2="281.91"/><line class="cls-2" x1="739.79" y1="186.92" x2="751.91" y2="199.04"/><line class="cls-2" x1="662.22" y1="214.61" x2="662.22" y2="231.74"/><line class="cls-2" x1="670.3" y1="214.24" x2="670.3" y2="231.38"/><line class="cls-2" x1="678.51" y1="214.24" x2="678.51" y2="231.38"/><line class="cls-2" x1="734.42" y1="192.98" x2="746.54" y2="205.1"/><line class="cls-2" x1="728.35" y1="198.36" x2="740.48" y2="210.48"/><line class="cls-2" x1="719.13" y1="249.4" x2="702" y2="249.4"/><line class="cls-2" x1="702" y1="278.95" x2="719.13" y2="278.95"/><line class="cls-2" x1="702" y1="271.75" x2="719.13" y2="271.75"/><line class="cls-2" x1="702" y1="264.25" x2="719.13" y2="264.25"/><line class="cls-2" x1="702" y1="256.75" x2="719.13" y2="256.75"/><rect class="cls-3" x="646.04" y="215.62" width="12.92" height="15.09"/><rect class="cls-3" x="680.86" y="215.62" width="12.92" height="15.09"/><rect class="cls-3" x="703.01" y="242.52" width="15.13" height="5.01"/><rect class="cls-3" x="749.89" y="177.16" width="8.22" height="15.11" transform="translate(92.61 591.16) rotate(-45.34)"/><line class="cls-2" x1="557.37" y1="281.92" x2="581.34" y2="281.92"/><line class="cls-2" x1="598.48" y1="281.92" x2="614.99" y2="281.92"/><circle class="cls-1" cx="589.41" cy="214.99" r="17.13"/><line class="cls-2" x1="581.34" y1="229.83" x2="581.34" y2="282.38"/><line class="cls-2" x1="598.48" y1="229.83" x2="598.48" y2="282.36"/><line class="cls-2" x1="581.34" y1="242.17" x2="598.48" y2="242.17"/><line class="cls-2" x1="580.84" y1="267.14" x2="597.98" y2="267.14"/><line class="cls-2" x1="580.84" y1="258.82" x2="597.98" y2="258.82"/><line class="cls-2" x1="581.34" y1="250.49" x2="598.48" y2="250.49"/><line class="cls-2" x1="581.34" y1="275.46" x2="598.48" y2="275.46"/><line class="cls-2" x1="581.34" y1="233.85" x2="598.48" y2="233.85"/><rect class="cls-3" x="586.26" y="220.92" width="7.3" height="15.1" transform="translate(361.44 818.38) rotate(-90)"/><rect class="cls-5" x="580.84" y="238.94" width="0.5" height="16.87" transform="translate(1162.18 494.75) rotate(180)"/><circle class="cls-11" cx="710.57" cy="224.82" r="11.98"/><text class="cls-10" transform="translate(621.47 311.37)">Anti-antiSS</text><text class="cls-4" transform="translate(551.37 254.08)">5’SS</text><text class="cls-10" transform="translate(559.6 185.61)">Anti-SS</text><text class="cls-6" transform="translate(539.69 288.9)">5<tspan class="cls-7" x="11.12" y="0">’</tspan></text><text class="cls-15" transform="translate(86.53 233.09)">L</text><text class="cls-15" transform="translate(363.54 232.71)">L</text><text class="cls-15" transform="translate(705.69 230.71)">L</text><line class="cls-8" x1="120.03" y1="265.45" x2="174.48" y2="265.45"/><polygon points="112.97 265.45 122.92 269.52 120.56 265.45 122.92 261.39 112.97 265.45"/><polygon points="181.54 265.45 171.59 269.52 173.95 265.45 171.59 261.39 181.54 265.45"/><line class="cls-9" x1="145.39" y1="266.26" x2="145.39" y2="278.95"/><line class="cls-8" x1="397.13" y1="265.45" x2="451.57" y2="265.45"/><polygon points="390.07 265.45 400.02 269.52 397.66 265.45 400.02 261.39 390.07 265.45"/><polygon points="458.63 265.45 448.68 269.52 451.04 265.45 448.68 261.39 458.63 265.45"/><line class="cls-9" x1="422.49" y1="266.26" x2="422.49" y2="278.95"/><line class="cls-8" x1="623.02" y1="265.45" x2="677.46" y2="265.45"/><polygon points="615.96 265.45 625.9 269.52 623.54 265.45 625.9 261.39 615.96 265.45"/><polygon points="684.52 265.45 674.57 269.52 676.93 265.45 674.57 261.39 684.52 265.45"/><line class="cls-9" x1="648.37" y1="266.26" x2="648.37" y2="278.95"/></svg>