<svg id="图层_1" data-name="图层 1" xmlns="http://www.w3.org/2000/svg" viewBox="0 0 800 500"><defs><style>.cls-1{font-size:30px;}.cls-1,.cls-27{font-family:Arial-BoldMT, Arial;font-weight:700;}.cls-2{letter-spacing:-0.04em;}.cls-3{letter-spacing:-0.06em;}.cls-4{font-size:14px;font-family:ArialMT, Arial;}.cls-5{letter-spacing:-0.06em;}.cls-6{letter-spacing:-0.02em;}.cls-20,.cls-22,.cls-23,.cls-24,.cls-25,.cls-26,.cls-7,.cls-8,.cls-9{fill:none;}.cls-7{stroke:#9dd391;}.cls-10,.cls-11,.cls-12,.cls-13,.cls-14,.cls-15,.cls-16,.cls-17,.cls-18,.cls-20,.cls-22,.cls-23,.cls-24,.cls-25,.cls-26,.cls-7,.cls-8,.cls-9{stroke-miterlimit:10;stroke-width:2px;}.cls-8{stroke:#b6dead;}.cls-9{stroke:#f36e42;}.cls-10{fill:#d5e8f2;}.cls-10,.cls-11,.cls-12,.cls-13,.cls-14,.cls-15,.cls-16,.cls-17,.cls-18{stroke:#fff;}.cls-11{fill:#82b9d9;}.cls-12{fill:#2e8abf;}.cls-13{fill:#fbbf7a;}.cls-14{fill:#faa94d;}.cls-15{fill:#f58b68;}.cls-16{fill:#f36e42;}.cls-17{fill:#b6dead;}.cls-18{fill:#9dd391;}.cls-19{letter-spacing:-0.04em;}.cls-20{stroke:#f58b68;}.cls-21{letter-spacing:-0.04em;}.cls-22{stroke:#fbbf7a;}.cls-23{stroke:#82b9d9;}.cls-24{stroke:#faa94d;}.cls-25{stroke:#2e8abf;}.cls-26{stroke:#d5e8f2;}.cls-27{font-size:20px;}</style></defs><text class="cls-1" transform="translate(395.12 345.73) scale(0.58)">RN<tspan class="cls-2" x="43.33" y="0">A</tspan><tspan x="63.88" y="0" xml:space="preserve"> precursors </tspan></text><text class="cls-1" transform="translate(380.96 28.23) scale(0.58)"><tspan class="cls-3">T</tspan><tspan x="16.67" y="0">-box</tspan></text><text class="cls-4" transform="translate(538.81 81.72)"><tspan xml:space="preserve">AdoCbl  </tspan><tspan class="cls-5" x="53.7" y="0"> </tspan><tspan x="56.81" y="0" xml:space="preserve">AqCbl        FMN</tspan><tspan x="0" y="16.8" xml:space="preserve">MoCo     Wco         </tspan><tspan class="cls-6" x="119.8" y="16.8"> </tspan><tspan x="123.44" y="16.8">THF-I</tspan><tspan x="0" y="33.6" xml:space="preserve">THF-II   </tspan><tspan class="cls-6" x="51.32" y="33.6"> </tspan><tspan x="54.96" y="33.6">TP</tspan><tspan class="cls-6" x="72.85" y="33.6">P</tspan><tspan x="81.94" y="33.6" xml:space="preserve">           HMP-P</tspan><tspan class="cls-6" x="169.83" y="33.6">P</tspan><tspan x="0" y="50.4" xml:space="preserve">SAM-I    SAM-IV      SAM-I/IV</tspan><tspan x="0" y="67.2" xml:space="preserve">SAM-II   SAM-V       SAM-III</tspan><tspan x="0" y="84" xml:space="preserve">SAM-VI  SAM-SAH  SAH</tspan><tspan x="0" y="100.8">NAD</tspan></text><text class="cls-4" transform="translate(568.37 177.86) scale(0.58)">+</text><text class="cls-4" transform="translate(573.13 182.52)"><tspan xml:space="preserve">-I    NAD</tspan></text><text class="cls-4" transform="translate(626.8 177.86) scale(0.58)">+</text><text class="cls-4" transform="translate(631.57 182.52)">-II</text><rect class="cls-7" x="530.81" y="65.72" width="200" height="128"/><rect class="cls-8" x="530.81" y="199.72" width="87" height="139"/><text class="cls-4" transform="translate(539.81 214.72)">Xanthine-I<tspan x="0" y="16.8">Xanthine-II</tspan><tspan x="0" y="33.6">2&apos;-dG-I</tspan><tspan x="0" y="50.4">2&apos;-dG-II</tspan><tspan x="0" y="67.2">2&apos;-dG-III</tspan><tspan x="0" y="84">PreQ</tspan></text><text class="cls-4" transform="translate(572.49 303.38) scale(0.58)">1</text><text class="cls-4" transform="translate(577.02 298.72)">-I<tspan x="-37.21" y="16.8">PreQ</tspan></text><text class="cls-4" transform="translate(572.49 320.18) scale(0.58)">1</text><text class="cls-4" transform="translate(577.02 315.52)">-II<tspan x="-37.21" y="16.8">preQ</tspan></text><text class="cls-4" transform="translate(570.93 336.98) scale(0.58)">1</text><text class="cls-4" transform="translate(575.47 332.32)">-III</text><text class="cls-4" transform="translate(444.81 366.72)">Adenine<tspan x="0" y="16.8">Guanine-I</tspan><tspan x="0" y="33.6">Guanine-II</tspan><tspan x="0" y="50.4">PRP</tspan><tspan class="cls-6" x="28.79" y="50.4">P</tspan><tspan x="0" y="67.2">PR</tspan><tspan class="cls-5" x="19.45" y="67.2">A</tspan><tspan x="0" y="84">AD</tspan><tspan class="cls-6" x="19.45" y="84">P</tspan></text><rect class="cls-9" x="425.81" y="349.72" width="96" height="105"/><path class="cls-10" d="M370.12,204.31,356.47,74.44a124.43,124.43,0,0,1,13.65-.72Z"/><path class="cls-11" d="M370.12,204.31,343,76.57a122.68,122.68,0,0,1,13.5-2.13Z"/><path class="cls-12" d="M370.12,204.31l-87.38-97C300.58,91.19,319.47,81.57,343,76.57Z"/><path class="cls-13" d="M370.12,204.31,250.82,151.2a124.66,124.66,0,0,1,31.92-43.94Z"/><path class="cls-14" d="M370.12,204.31,257,269.61c-21.64-37.48-23.81-78.88-6.2-118.41Z"/><path class="cls-15" d="M370.12,204.31,317,323.62c-26.35-11.74-45.55-29-60-54Z"/><path class="cls-16" d="M370.12,204.31l27.15,127.74c-28.22,6-53.91,3.3-80.27-8.43Z"/><path class="cls-17" d="M370.12,204.31l113.1,65.3c-19.22,33.29-48.35,54.45-86,62.44Z"/><path class="cls-18" d="M370.12,204.31V73.72A130.59,130.59,0,0,1,500.71,204.31c0,24-5.48,44.5-17.49,65.3Z"/><text class="cls-1" transform="translate(399.12 176.32) scale(0.58)">Cofactors</text><text class="cls-1" transform="translate(388.12 261.32) scale(0.58)">RN<tspan class="cls-19" x="43.33" y="0">A</tspan><tspan x="63.88" y="0"> </tspan></text><text class="cls-1" transform="translate(386.12 277.32) scale(0.58)">derivatives</text><text class="cls-1" transform="translate(292.12 119.73) scale(0.58)">Others</text><text class="cls-1" transform="translate(250.12 205.32) scale(0.58)">Elemental </text><text class="cls-1" transform="translate(251.12 223.32) scale(0.58)">ions</text><text class="cls-1" transform="translate(73.81 355.73) scale(0.58)">Signaling molecules</text><text class="cls-4" transform="translate(117.81 376.72)">c-AMP-GM<tspan class="cls-6" x="69.21" y="0">P</tspan><tspan x="0" y="16.8">ppGpp</tspan><tspan x="0" y="33.6">c-di-GM</tspan><tspan class="cls-6" x="49.77" y="33.6">P</tspan><tspan x="0" y="50.4">c-di-GMP-II</tspan><tspan x="0" y="67.2">c-di-AM</tspan><tspan class="cls-6" x="48.22" y="67.2">P</tspan><tspan x="0" y="84">ZT</tspan><tspan class="cls-6" x="17.1" y="84">P</tspan></text><rect class="cls-20" x="102.81" y="361.72" width="103" height="105"/><text class="cls-1" transform="translate(100.81 135.73) scale(0.58)">Amino acids</text><text class="cls-4" transform="translate(116.81 154.72)">Glycine<tspan class="cls-21" x="0" y="16.8">L</tspan><tspan x="7.27" y="16.8">ysine</tspan><tspan x="0" y="33.6">Glutamine-I</tspan><tspan x="0" y="50.4">Glutamine-II</tspan></text><rect class="cls-22" x="103.81" y="138.72" width="96" height="74"/><text class="cls-4" transform="translate(111.31 25.72)">Azaaromatic<tspan x="0" y="16.8">Guanidine-I</tspan><tspan x="0" y="33.6">Guanidine-II</tspan><tspan x="0" y="50.4">Guanidine-III</tspan><tspan x="0" y="67.2">Guanidine-IV</tspan></text><rect class="cls-23" x="102.31" y="9.22" width="96" height="93.5"/><text class="cls-4" transform="translate(101.81 247.47)"><tspan xml:space="preserve">Fluoride  Mg</tspan></text><text class="cls-4" transform="translate(179.62 242.81) scale(0.58)">2+</text><text class="cls-4" transform="translate(188.92 247.47)">-I<tspan x="-87.11" y="16.8">Mg</tspan></text><text class="cls-4" transform="translate(121.26 259.61) scale(0.58)">2+</text><text class="cls-4" transform="translate(130.56 264.27)"><tspan xml:space="preserve">-II    Mn</tspan></text><text class="cls-4" transform="translate(178.01 259.61) scale(0.58)">2+</text><text class="cls-4" transform="translate(101.81 281.07)"><tspan xml:space="preserve">NiCo       Na</tspan></text><text class="cls-4" transform="translate(178.05 276.41) scale(0.58)">+</text><text class="cls-4" transform="translate(182.82 281.07)">-I<tspan x="-81.01" y="16.8">Na</tspan></text><text class="cls-4" transform="translate(119.71 293.21) scale(0.58)">+</text><text class="cls-4" transform="translate(124.47 297.87)"><tspan xml:space="preserve">-I       Li</tspan></text><text class="cls-4" transform="translate(171.15 293.21) scale(0.58)">+</text><text class="cls-4" transform="translate(175.92 297.87)">-I<tspan x="-74.11" y="16.8">Li</tspan></text><text class="cls-4" transform="translate(112.71 310.01) scale(0.58)">+</text><text class="cls-4" transform="translate(117.47 314.67)">-II</text><rect class="cls-24" x="90.81" y="229.97" width="119" height="93.5"/><text class="cls-1" transform="translate(289.8 28.23) scale(0.58)">Sugars</text><text class="cls-4" transform="translate(294.8 50.22)">GlcN6<tspan class="cls-6" x="38.9" y="0">P</tspan></text><rect class="cls-25" x="280.8" y="34.22" width="76" height="21"/><line class="cls-7" x1="504.81" y1="129.72" x2="529.81" y2="129.72"/><line class="cls-7" x1="484.81" y1="144.72" x2="504.81" y2="129.72"/><line class="cls-9" x1="399.98" y1="402.22" x2="424.98" y2="402.22"/><line class="cls-20" x1="206.81" y1="414.22" x2="231.81" y2="414.22"/><line class="cls-8" x1="453.5" y1="305.36" x2="529.81" y2="269.22"/><line class="cls-9" x1="362.81" y1="332.72" x2="399.12" y2="402.22"/><line class="cls-20" x1="280.8" y1="298.97" x2="231.81" y2="414.22"/><line class="cls-24" x1="239.07" y1="207.69" x2="210.7" y2="284.86"/><line class="cls-22" x1="199.81" y1="175.72" x2="224.81" y2="175.72"/><line class="cls-22" x1="224.81" y1="175.72" x2="263.81" y2="129.72"/><line class="cls-25" x1="198.31" y1="48.22" x2="305.68" y2="90.5"/><line class="cls-23" x1="324.31" y1="55.97" x2="349.31" y2="76.72"/><line class="cls-26" x1="362.81" y1="74.72" x2="395.12" y2="31.72"/><text class="cls-27" transform="translate(183 489)"><tspan xml:space="preserve"> Experimentally validated riboswitch classes</tspan></text></svg>