<?xml version="1.0" encoding="UTF-8"?>
<svg id="_图层_1" data-name="图层 1" xmlns="http://www.w3.org/2000/svg" viewBox="0 0 800 400">
  <g isolation="isolate">
    <text transform="translate(408.05 276.77)" font-family="Arial-BoldMT, Arial" font-size="14.25" font-weight="700" isolation="isolate"><tspan x="0" y="0">RN</tspan></text>
    <text transform="translate(428.64 276.77)" font-family="Arial-BoldMT, Arial" font-size="14.25" font-weight="700" isolation="isolate" letter-spacing="-.08em"><tspan x="0" y="0">A</tspan></text>
    <text transform="translate(438.4 276.77)" font-family="Arial-BoldMT, Arial" font-size="14.25" font-weight="700" isolation="isolate"><tspan x="0" y="0" xml:space="preserve"> precursors </tspan></text>
  </g>
  <g isolation="isolate">
    <text transform="translate(396.46 16.72)" font-family="Arial-BoldMT, Arial" font-size="14.25" font-weight="700" isolation="isolate" letter-spacing="-.06em"><tspan x="0" y="0">T</tspan></text>
    <text transform="translate(404.38 16.72)" font-family="Arial-BoldMT, Arial" font-size="14.25" font-weight="700" isolation="isolate"><tspan x="0" y="0">-box</tspan></text>
  </g>
  <g isolation="isolate">
    <text transform="translate(525.74 60.53)" font-family="ArialMT, Arial" font-size="11.47" isolation="isolate"><tspan x="0" y="0" xml:space="preserve">AdoCbl  </tspan></text>
    <text transform="translate(569.73 60.53)" font-family="ArialMT, Arial" font-size="11.47" isolation="isolate" letter-spacing="-.06em"><tspan x="0" y="0"> </tspan></text>
    <text transform="translate(572.27 60.53)" font-family="ArialMT, Arial" font-size="11.47" isolation="isolate"><tspan x="0" y="0" xml:space="preserve">AqCbl        FMN</tspan></text>
    <text transform="translate(525.74 74.29)" font-family="ArialMT, Arial" font-size="11.47" isolation="isolate"><tspan x="0" y="0" xml:space="preserve">MoCo     Wco         </tspan></text>
    <text transform="translate(623.86 74.29)" font-family="ArialMT, Arial" font-size="11.47" isolation="isolate" letter-spacing="-.02em"><tspan x="0" y="0"> </tspan></text>
    <text transform="translate(626.84 74.29)" font-family="ArialMT, Arial" font-size="11.47" isolation="isolate"><tspan x="0" y="0">THF-I</tspan></text>
    <text transform="translate(525.74 88.05)" font-family="ArialMT, Arial" font-size="11.47" isolation="isolate"><tspan x="0" y="0" xml:space="preserve">THF-II   </tspan></text>
    <text transform="translate(567.78 88.05)" font-family="ArialMT, Arial" font-size="11.47" isolation="isolate" letter-spacing="-.02em"><tspan x="0" y="0"> </tspan></text>
    <text transform="translate(570.76 88.05)" font-family="ArialMT, Arial" font-size="11.47" isolation="isolate"><tspan x="0" y="0">T</tspan><tspan x="7" y="0" letter-spacing="-.02em">P</tspan></text>
    <text transform="translate(585.41 88.05)" font-family="ArialMT, Arial" font-size="11.47" isolation="isolate" letter-spacing="-.04em"><tspan x="0" y="0">P</tspan></text>
    <text transform="translate(592.86 88.05)" font-family="ArialMT, Arial" font-size="11.47" isolation="isolate"><tspan x="0" y="0" xml:space="preserve">           HMP-</tspan><tspan x="64.34" y="0" letter-spacing="-.02em">P</tspan></text>
    <text transform="translate(664.84 88.05)" font-family="ArialMT, Arial" font-size="11.47" isolation="isolate" letter-spacing="-.04em"><tspan x="0" y="0">P</tspan></text>
    <text transform="translate(525.74 101.81)" font-family="ArialMT, Arial" font-size="11.47" isolation="isolate"><tspan x="0" y="0" xml:space="preserve">SAM-I    SAM-IV      SAM-I/IV</tspan></text>
    <text transform="translate(525.74 115.57)" font-family="ArialMT, Arial" font-size="11.47" isolation="isolate"><tspan x="0" y="0" xml:space="preserve">SAM-II   SAM-V       SAM-III</tspan></text>
    <text transform="translate(525.74 129.33)" font-family="ArialMT, Arial" font-size="11.47" isolation="isolate"><tspan x="0" y="0" xml:space="preserve">SAM-VI  SAM-SAH  SAH</tspan></text>
    <text transform="translate(525.74 143.09)" font-family="ArialMT, Arial" font-size="11.47" isolation="isolate"><tspan x="0" y="0">NAD</tspan></text>
  </g>
  <text transform="translate(549.95 139.28)" font-family="ArialMT, Arial" font-size="6.65" isolation="isolate"><tspan x="0" y="0">+</tspan></text>
  <g isolation="isolate">
    <text transform="translate(553.85 143.09)" font-family="ArialMT, Arial" font-size="11.47" isolation="isolate"><tspan x="0" y="0" xml:space="preserve">-I    NAD</tspan></text>
  </g>
  <text transform="translate(597.81 139.28)" font-family="ArialMT, Arial" font-size="6.65" isolation="isolate"><tspan x="0" y="0">+</tspan></text>
  <text transform="translate(601.72 143.09)" font-family="ArialMT, Arial" font-size="11.47" isolation="isolate"><tspan x="0" y="0">-II</tspan></text>
  <rect x="519.19" y="47.43" width="163.81" height="104.84" fill="none" stroke="#9dd391" stroke-miterlimit="10" stroke-width="1.64"/>
  <rect x="519.19" y="157.18" width="71.26" height="113.85" fill="none" stroke="#b6dead" stroke-miterlimit="10" stroke-width="1.64"/>
  <g isolation="isolate">
    <text transform="translate(526.56 169.46)" font-family="ArialMT, Arial" font-size="11.47" isolation="isolate"><tspan x="0" y="0">Xanthine-I</tspan></text>
    <text transform="translate(526.56 183.22)" font-family="ArialMT, Arial" font-size="11.47" isolation="isolate"><tspan x="0" y="0">Xanthine-II</tspan></text>
    <text transform="translate(526.56 196.98)" font-family="ArialMT, Arial" font-size="11.47" isolation="isolate"><tspan x="0" y="0">2&apos;-dG-I</tspan></text>
    <text transform="translate(526.56 210.75)" font-family="ArialMT, Arial" font-size="11.47" isolation="isolate"><tspan x="0" y="0">2&apos;-dG-II</tspan></text>
    <text transform="translate(526.56 224.5)" font-family="ArialMT, Arial" font-size="11.47" isolation="isolate"><tspan x="0" y="0">2&apos;-dG-III</tspan></text>
    <text transform="translate(526.56 238.26)" font-family="ArialMT, Arial" font-size="11.47" isolation="isolate"><tspan x="0" y="0">PreQ</tspan></text>
  </g>
  <text transform="translate(553.33 242.08)" font-family="ArialMT, Arial" font-size="6.65" isolation="isolate"><tspan x="0" y="0">1</tspan></text>
  <g isolation="isolate">
    <text transform="translate(557.04 238.26)" font-family="ArialMT, Arial" font-size="11.47" isolation="isolate"><tspan x="0" y="0">-I</tspan></text>
    <text transform="translate(526.56 252.02)" font-family="ArialMT, Arial" font-size="11.47" isolation="isolate"><tspan x="0" y="0">PreQ</tspan></text>
  </g>
  <text transform="translate(553.33 255.84)" font-family="ArialMT, Arial" font-size="6.65" isolation="isolate"><tspan x="0" y="0">1</tspan></text>
  <g isolation="isolate">
    <text transform="translate(557.04 252.02)" font-family="ArialMT, Arial" font-size="11.47" isolation="isolate"><tspan x="0" y="0">-II</tspan></text>
    <text transform="translate(526.56 265.79)" font-family="ArialMT, Arial" font-size="11.47" isolation="isolate"><tspan x="0" y="0">preQ</tspan></text>
  </g>
  <text transform="translate(552.05 269.6)" font-family="ArialMT, Arial" font-size="6.65" isolation="isolate"><tspan x="0" y="0">1</tspan></text>
  <text transform="translate(555.77 265.79)" font-family="ArialMT, Arial" font-size="11.47" isolation="isolate"><tspan x="0" y="0">-III</tspan></text>
  <g isolation="isolate">
    <text transform="translate(448.75 293.96)" font-family="ArialMT, Arial" font-size="11.47" isolation="isolate"><tspan x="0" y="0">Adenine</tspan></text>
    <text transform="translate(448.75 307.72)" font-family="ArialMT, Arial" font-size="11.47" isolation="isolate"><tspan x="0" y="0">Guanine-I</tspan></text>
    <text transform="translate(448.75 321.48)" font-family="ArialMT, Arial" font-size="11.47" isolation="isolate"><tspan x="0" y="0">Guanine-II</tspan></text>
    <text transform="translate(448.75 335.24)" font-family="ArialMT, Arial" font-size="11.47" isolation="isolate"><tspan x="0" y="0">PR</tspan><tspan x="15.93" y="0" letter-spacing="-.02em">P</tspan></text>
    <text transform="translate(472.33 335.24)" font-family="ArialMT, Arial" font-size="11.47" isolation="isolate" letter-spacing="-.04em"><tspan x="0" y="0">P</tspan></text>
    <text transform="translate(448.75 349)" font-family="ArialMT, Arial" font-size="11.47" isolation="isolate"><tspan x="0" y="0">PR</tspan></text>
    <text transform="translate(464.68 349)" font-family="ArialMT, Arial" font-size="11.47" isolation="isolate" letter-spacing="-.12em"><tspan x="0" y="0">A</tspan></text>
    <text transform="translate(448.75 362.76)" font-family="ArialMT, Arial" font-size="11.47" isolation="isolate"><tspan x="0" y="0">AD</tspan></text>
    <text transform="translate(464.68 362.76)" font-family="ArialMT, Arial" font-size="11.47" isolation="isolate" letter-spacing="-.04em"><tspan x="0" y="0">P</tspan></text>
  </g>
  <rect x="433.19" y="280.04" width="78.63" height="86" fill="none" stroke="#f36e42" stroke-miterlimit="10" stroke-width="1.64"/>
  <path d="m387.58,160.94l-11.18-106.37c3.71-.4,7.45-.6,11.18-.59v106.96Z" fill="#d5e8f2" stroke="#fff" stroke-miterlimit="10" stroke-width="1.64"/>
  <path d="m387.58,160.94l-22.21-104.63c3.65-.79,7.34-1.37,11.06-1.74l11.16,106.37Z" fill="#82b9d9" stroke="#fff" stroke-miterlimit="10" stroke-width="1.64"/>
  <path d="m387.58,160.94l-71.57-79.45c14.61-13.2,30.08-21.08,49.36-25.18l22.21,104.63Z" fill="#2e8abf" stroke="#fff" stroke-miterlimit="10" stroke-width="1.64"/>
  <path d="m387.58,160.94l-97.71-43.5c5.96-13.77,14.89-26.06,26.14-35.99l71.57,79.49Z" fill="#fbbf7a" stroke="#fff" stroke-miterlimit="10" stroke-width="1.64"/>
  <path d="m387.58,160.94l-92.65,53.48c-17.72-30.7-19.5-64.61-5.08-96.98l97.73,43.5Z" fill="#faa94d" stroke="#fff" stroke-miterlimit="10" stroke-width="1.64"/>
  <path d="m387.58,160.94l-43.51,97.72c-21.58-9.62-37.31-23.75-49.14-44.23l92.65-53.49Z" fill="#f58b68" stroke="#fff" stroke-miterlimit="10" stroke-width="1.64"/>
  <path d="m387.58,160.94l22.24,104.63c-23.11,4.91-44.15,2.7-65.74-6.9l43.51-97.72Z" fill="#f36e42" stroke="#fff" stroke-miterlimit="10" stroke-width="1.64"/>
  <path d="m387.58,160.94l92.63,53.48c-15.74,27.27-39.6,44.6-70.44,51.14l-22.2-104.63Z" fill="#b6dead" stroke="#fff" stroke-miterlimit="10" stroke-width="1.64"/>
  <path d="m387.58,160.94V53.98c59.07,0,106.96,47.89,106.96,106.96,0,19.66-4.49,36.45-14.33,53.48l-92.63-53.48Z" fill="#9dd391" stroke="#fff" stroke-miterlimit="10" stroke-width="1.64"/>
  <text transform="translate(411.33 138.01)" font-family="Arial-BoldMT, Arial" font-size="14.25" font-weight="700" isolation="isolate"><tspan x="0" y="0">Cofactors</tspan></text>
  <g isolation="isolate">
    <text transform="translate(402.32 207.63)" font-family="Arial-BoldMT, Arial" font-size="14.25" font-weight="700" isolation="isolate"><tspan x="0" y="0">RN</tspan></text>
    <text transform="translate(422.9 207.63)" font-family="Arial-BoldMT, Arial" font-size="14.25" font-weight="700" isolation="isolate" letter-spacing="-.08em"><tspan x="0" y="0">A</tspan></text>
  </g>
  <text transform="translate(400.68 220.74)" font-family="Arial-BoldMT, Arial" font-size="14.25" font-weight="700" isolation="isolate"><tspan x="0" y="0">derivatives</tspan></text>
  <text transform="translate(323.69 91.66)" font-family="Arial-BoldMT, Arial" font-size="14.25" font-weight="700" isolation="isolate"><tspan x="0" y="0">Others</tspan></text>
  <text transform="translate(289.29 161.77)" font-family="Arial-BoldMT, Arial" font-size="14.25" font-weight="700" isolation="isolate"><tspan x="0" y="0">Elemental</tspan></text>
  <text transform="translate(290.11 176.51)" font-family="Arial-BoldMT, Arial" font-size="14.25" font-weight="700" isolation="isolate"><tspan x="0" y="0">ions</tspan></text>
  <text transform="translate(144.89 284.96)" font-family="Arial-BoldMT, Arial" font-size="14.25" font-weight="700" isolation="isolate"><tspan x="0" y="0">Signaling molecules</tspan></text>
  <g isolation="isolate">
    <text transform="translate(180.92 302.15)" font-family="ArialMT, Arial" font-size="11.47" isolation="isolate"><tspan x="0" y="0">c-AMP-GM</tspan></text>
    <text transform="translate(237.61 302.15)" font-family="ArialMT, Arial" font-size="11.47" isolation="isolate" letter-spacing="-.04em"><tspan x="0" y="0">P</tspan></text>
    <text transform="translate(180.92 315.91)" font-family="ArialMT, Arial" font-size="11.47" isolation="isolate"><tspan x="0" y="0">ppGpp</tspan></text>
    <text transform="translate(180.92 329.67)" font-family="ArialMT, Arial" font-size="11.47" isolation="isolate"><tspan x="0" y="0">c-di-GM</tspan></text>
    <text transform="translate(221.69 329.67)" font-family="ArialMT, Arial" font-size="11.47" isolation="isolate" letter-spacing="-.04em"><tspan x="0" y="0">P</tspan></text>
    <text transform="translate(180.92 343.43)" font-family="ArialMT, Arial" font-size="11.47" isolation="isolate"><tspan x="0" y="0">c-di-GMP-II</tspan></text>
    <text transform="translate(180.92 357.19)" font-family="ArialMT, Arial" font-size="11.47" isolation="isolate"><tspan x="0" y="0">c-di-AM</tspan></text>
    <text transform="translate(220.42 357.19)" font-family="ArialMT, Arial" font-size="11.47" isolation="isolate" letter-spacing="-.04em"><tspan x="0" y="0">P</tspan></text>
    <text transform="translate(180.92 370.95)" font-family="ArialMT, Arial" font-size="11.47" isolation="isolate"><tspan x="0" y="0">Z</tspan><tspan x="7" y="0" letter-spacing="-.02em">T</tspan></text>
    <text transform="translate(194.93 370.95)" font-family="ArialMT, Arial" font-size="11.47" isolation="isolate" letter-spacing="-.04em"><tspan x="0" y="0">P</tspan></text>
  </g>
  <rect x="168.64" y="289.87" width="84.36" height="86" fill="none" stroke="#f58b68" stroke-miterlimit="10" stroke-width="1.64"/>
  <text transform="translate(167 104.77)" font-family="Arial-BoldMT, Arial" font-size="14.25" font-weight="700" isolation="isolate"><tspan x="0" y="0">Amino acids</tspan></text>
  <g isolation="isolate">
    <text transform="translate(180.1 120.32)" font-family="ArialMT, Arial" font-size="11.47" isolation="isolate"><tspan x="0" y="0">Glycine</tspan></text>
    <text transform="translate(180.1 134.08)" font-family="ArialMT, Arial" font-size="11.47" isolation="isolate" letter-spacing="-.08em"><tspan x="0" y="0">L</tspan></text>
    <text transform="translate(186.06 134.08)" font-family="ArialMT, Arial" font-size="11.47" isolation="isolate"><tspan x="0" y="0">ysine</tspan></text>
    <text transform="translate(180.1 147.84)" font-family="ArialMT, Arial" font-size="11.47" isolation="isolate"><tspan x="0" y="0">Glutamine-I</tspan></text>
    <text transform="translate(180.1 161.6)" font-family="ArialMT, Arial" font-size="11.47" isolation="isolate"><tspan x="0" y="0">Glutamine-II</tspan></text>
  </g>
  <rect x="169.46" y="107.22" width="78.63" height="60.61" fill="none" stroke="#fbbf7a" stroke-miterlimit="10" stroke-width="1.64"/>
  <g isolation="isolate">
    <text transform="translate(175.6 14.67)" font-family="ArialMT, Arial" font-size="11.47" isolation="isolate"><tspan x="0" y="0">Azaaromatic</tspan></text>
    <text transform="translate(175.6 28.42)" font-family="ArialMT, Arial" font-size="11.47" isolation="isolate"><tspan x="0" y="0">Guanidine-I</tspan></text>
    <text transform="translate(175.6 42.18)" font-family="ArialMT, Arial" font-size="11.47" isolation="isolate"><tspan x="0" y="0">Guanidine-II</tspan></text>
    <text transform="translate(175.6 55.95)" font-family="ArialMT, Arial" font-size="11.47" isolation="isolate"><tspan x="0" y="0">Guanidine-III</tspan></text>
    <text transform="translate(175.6 69.71)" font-family="ArialMT, Arial" font-size="11.47" isolation="isolate"><tspan x="0" y="0">Guanidine-IV</tspan></text>
  </g>
  <rect x="168.23" y="1.15" width="78.63" height="76.58" fill="none" stroke="#82b9d9" stroke-miterlimit="10" stroke-width="1.64"/>
  <g isolation="isolate">
    <text transform="translate(167.82 196.29)" font-family="ArialMT, Arial" font-size="11.47" isolation="isolate"><tspan x="0" y="0" xml:space="preserve">Fluoride  Mg</tspan></text>
  </g>
  <text transform="translate(231.55 192.47)" font-family="ArialMT, Arial" font-size="6.65" isolation="isolate"><tspan x="0" y="0">2+</tspan></text>
  <g isolation="isolate">
    <text transform="translate(239.17 196.29)" font-family="ArialMT, Arial" font-size="11.47" isolation="isolate"><tspan x="0" y="0">-I</tspan></text>
    <text transform="translate(167.82 210.05)" font-family="ArialMT, Arial" font-size="11.47" isolation="isolate"><tspan x="0" y="0">Mg</tspan></text>
  </g>
  <text transform="translate(183.75 206.23)" font-family="ArialMT, Arial" font-size="6.65" isolation="isolate"><tspan x="0" y="0">2+</tspan></text>
  <g isolation="isolate">
    <text transform="translate(191.37 210.05)" font-family="ArialMT, Arial" font-size="11.47" isolation="isolate"><tspan x="0" y="0" xml:space="preserve">-II    Mn</tspan></text>
  </g>
  <text transform="translate(230.23 206.23)" font-family="ArialMT, Arial" font-size="6.65" isolation="isolate"><tspan x="0" y="0">2+</tspan></text>
  <g isolation="isolate">
    <text transform="translate(167.82 223.81)" font-family="ArialMT, Arial" font-size="11.47" isolation="isolate"><tspan x="0" y="0" xml:space="preserve">NiCo       Na</tspan></text>
  </g>
  <text transform="translate(230.26 219.99)" font-family="ArialMT, Arial" font-size="6.65" isolation="isolate"><tspan x="0" y="0">+</tspan></text>
  <g isolation="isolate">
    <text transform="translate(234.17 223.81)" font-family="ArialMT, Arial" font-size="11.47" isolation="isolate"><tspan x="0" y="0">-I</tspan></text>
    <text transform="translate(167.82 237.57)" font-family="ArialMT, Arial" font-size="11.47" isolation="isolate"><tspan x="0" y="0">Na</tspan></text>
  </g>
  <text transform="translate(182.48 233.75)" font-family="ArialMT, Arial" font-size="6.65" isolation="isolate"><tspan x="0" y="0">+</tspan></text>
  <g isolation="isolate">
    <text transform="translate(186.38 237.57)" font-family="ArialMT, Arial" font-size="11.47" isolation="isolate"><tspan x="0" y="0" xml:space="preserve">-I       Li</tspan></text>
  </g>
  <text transform="translate(224.61 233.75)" font-family="ArialMT, Arial" font-size="6.65" isolation="isolate"><tspan x="0" y="0">+</tspan></text>
  <g isolation="isolate">
    <text transform="translate(228.52 237.57)" font-family="ArialMT, Arial" font-size="11.47" isolation="isolate"><tspan x="0" y="0">-I</tspan></text>
    <text transform="translate(167.82 251.33)" font-family="ArialMT, Arial" font-size="11.47" isolation="isolate"><tspan x="0" y="0">Li</tspan></text>
  </g>
  <text transform="translate(176.75 247.51)" font-family="ArialMT, Arial" font-size="6.65" isolation="isolate"><tspan x="0" y="0">+</tspan></text>
  <text transform="translate(180.64 251.33)" font-family="ArialMT, Arial" font-size="11.47" isolation="isolate"><tspan x="0" y="0">-II</tspan></text>
  <rect x="158.81" y="181.96" width="97.47" height="76.58" fill="none" stroke="#faa94d" stroke-miterlimit="10" stroke-width="1.64"/>
  <text transform="translate(321.79 16.72)" font-family="Arial-BoldMT, Arial" font-size="14.25" font-weight="700" isolation="isolate"><tspan x="0" y="0">Sugars</tspan></text>
  <g isolation="isolate">
    <text transform="translate(325.89 34.73)" font-family="ArialMT, Arial" font-size="11.47" isolation="isolate"><tspan x="0" y="0">GlcN6</tspan></text>
    <text transform="translate(357.75 34.73)" font-family="ArialMT, Arial" font-size="11.47" isolation="isolate" letter-spacing="-.04em"><tspan x="0" y="0">P</tspan></text>
  </g>
  <rect x="314.42" y="21.63" width="62.25" height="17.2" fill="none" stroke="#2e8abf" stroke-miterlimit="10" stroke-width="1.64"/>
  <line x1="497.9" y1="99.85" x2="518.37" y2="99.85" fill="none" stroke="#9dd391" stroke-miterlimit="10" stroke-width="1.64"/>
  <line x1="481.51" y1="112.13" x2="497.9" y2="99.85" fill="none" stroke="#9dd391" stroke-miterlimit="10" stroke-width="1.64"/>
  <line x1="412.03" y1="323.04" x2="432.51" y2="323.04" fill="none" stroke="#f36e42" stroke-miterlimit="10" stroke-width="1.64"/>
  <line x1="253.82" y1="332.87" x2="274.3" y2="332.87" fill="none" stroke="#f58b68" stroke-miterlimit="10" stroke-width="1.64"/>
  <line x1="455.87" y1="243.7" x2="518.37" y2="214.1" fill="none" stroke="#b6dead" stroke-miterlimit="10" stroke-width="1.64"/>
  <line x1="381.59" y1="266.11" x2="411.33" y2="323.04" fill="none" stroke="#f36e42" stroke-miterlimit="10" stroke-width="1.64"/>
  <line x1="314.42" y1="238.47" x2="274.3" y2="332.87" fill="none" stroke="#f58b68" stroke-miterlimit="10" stroke-width="1.64"/>
  <line x1="280.24" y1="163.71" x2="257.01" y2="226.91" fill="none" stroke="#faa94d" stroke-miterlimit="10" stroke-width="1.64"/>
  <line x1="248.09" y1="137.52" x2="268.56" y2="137.52" fill="none" stroke="#fbbf7a" stroke-miterlimit="10" stroke-width="1.64"/>
  <line x1="268.56" y1="137.52" x2="300.51" y2="99.85" fill="none" stroke="#fbbf7a" stroke-miterlimit="10" stroke-width="1.64"/>
  <line x1="246.86" y1="33.09" x2="334.8" y2="67.72" fill="none" stroke="#2e8abf" stroke-miterlimit="10" stroke-width="1.64"/>
  <line x1="350.06" y1="39.44" x2="370.53" y2="56.44" fill="none" stroke="#82b9d9" stroke-miterlimit="10" stroke-width="1.64"/>
  <line x1="381.59" y1="54.8" x2="408.05" y2="19.58" fill="none" stroke="#d5e8f2" stroke-miterlimit="10" stroke-width="1.64"/>
  <g isolation="isolate">
    <text transform="translate(234.32 394.11)" font-family="Arial-BoldMT, Arial" font-size="16.38" font-weight="700" isolation="isolate"><tspan x="0" y="0" xml:space="preserve"> Experimentally validated riboswitch classes</tspan></text>
  </g>
</svg>