<svg id="图层_1" data-name="图层 1" xmlns="http://www.w3.org/2000/svg" viewBox="0 0 800 400"><defs><style>.cls-1,.cls-18,.cls-3,.cls-5,.cls-7{fill:none;}.cls-1{stroke:#9d9d9d;}.cls-2{fill:#ff870a;stroke:#ff870a;}.cls-2,.cls-5{stroke-miterlimit:10;}.cls-3{stroke:#231815;}.cls-4{fill:#fff;}.cls-5{stroke:#231714;stroke-width:0.75px;}.cls-6{fill:#231714;}.cls-7{stroke:#251e1c;}.cls-12,.cls-8{font-size:8px;}.cls-8{font-family:ArialMT, Arial;}.cls-17,.cls-9{letter-spacing:-0.04em;}.cls-10,.cls-12,.cls-22{isolation:isolate;}.cls-10,.cls-21{font-size:10px;}.cls-10,.cls-12,.cls-16,.cls-17,.cls-21,.cls-22{fill:#251e1c;}.cls-10,.cls-12,.cls-14,.cls-15,.cls-16,.cls-17,.cls-21,.cls-22{font-family:Arial-BoldMT, Arial;font-weight:700;}.cls-11{letter-spacing:-0.02em;}.cls-13{letter-spacing:-0.11em;}.cls-14,.cls-15{font-size:14px;}.cls-14{fill:#499947;}.cls-15{fill:#c50018;}.cls-16,.cls-17{font-size:18px;}.cls-18{stroke:#0a0bff;stroke-width:2px;}.cls-19{letter-spacing:-0.06em;}.cls-20{fill:#ffaadc;}.cls-22{font-size:6px;}</style></defs><line class="cls-1" x1="658.02" y1="269.17" x2="658.07" y2="277.83"/><line class="cls-1" x1="653.02" y1="269.17" x2="653.07" y2="282.01"/><path class="cls-2" d="M655,233.43a7.13,7.13,0,1,1-7.13-7A7,7,0,0,1,655,233.43Z"/><line class="cls-1" x1="377.14" y1="284.85" x2="377.1" y2="277.39"/><line class="cls-1" x1="385.14" y1="284.85" x2="385.1" y2="277.39"/><path class="cls-3" d="M162.59,83.74q12.72,0,25.43.1"/><path class="cls-3" d="M96.43,83.74q24,0,48,.1"/><path class="cls-3" d="M96.43,102.66q45.82,0,91.59.1"/><path class="cls-3" d="M163.23,66.06q0,9-.1,18"/><path class="cls-3" d="M144.31,66.06q0,9-.1,18"/><path class="cls-3" d="M166.76,61.32c0,4.33-5.77,7.85-12.91,7.85s-12.94-3.5-12.95-7.83,5.77-7.84,12.91-7.85,12.93,3.49,12.95,7.82Z"/><polygon class="cls-4" points="145.02 63 162.39 62.99 162.43 69.97 145.06 69.98 145.02 63"/><path class="cls-3" d="M94.28,59.27a12.93,12.93,0,1,1-13-12.91,12.93,12.93,0,0,1,13,12.91Z"/><polygon class="cls-4" points="72.55 66.05 89.91 66.04 89.95 73.02 72.58 73.03 72.55 66.05"/><line class="cls-5" x1="78.06" y1="188.28" x2="78.06" y2="214.29"/><polygon class="cls-6" points="75.88 212.8 78.06 220.93 80.24 212.8 75.88 212.8"/><path class="cls-5" d="M103.29,200c-14,0-25.23,5.52-25.23,12.33"/><path class="cls-3" d="M99,93a17.73,17.73,0,1,1-17.76-17.7A17.74,17.74,0,0,1,99,93Z"/><polygon class="cls-4" points="72.55 73.57 89.91 73.56 89.95 80.67 72.58 80.68 72.55 73.57"/><rect class="cls-4" x="72.56" y="97.56" width="17.37" height="17.32" transform="translate(-0.16 0.12) rotate(-0.09)"/><line class="cls-1" x1="72.55" y1="72.66" x2="90.03" y2="72.61"/><line class="cls-1" x1="144.79" y1="72.51" x2="162.59" y2="72.47"/><line class="cls-1" x1="144.79" y1="80.51" x2="162.59" y2="80.47"/><polygon class="cls-4" points="93 101.95 92.99 84.58 100.1 84.55 100.11 101.92 93 101.95"/><path class="cls-3" d="M196.54,106.35A12.93,12.93,0,1,1,209.45,93.4a12.92,12.92,0,0,1-12.91,12.95Z"/><polygon class="cls-4" points="189.76 84.62 189.78 101.98 182.8 102.02 182.79 84.65 189.76 84.62"/><path class="cls-7" d="M90,108.57c-.59,18.79,6,19.17,14.4,23.16"/><path class="cls-7" d="M104.43,131.73c14,7,4.29,25.74-1.14,31.82"/><path class="cls-7" d="M103.29,163.55c-15.76,18.84-67.38,10.13-65.83,0"/><path class="cls-7" d="M37.52,108.89c0-6.32,16.11-6.32,16.21,0"/><path class="cls-3" d="M37.57,108.57q0,27.51-.11,55"/><text class="cls-8" transform="translate(75.21 145.49)">5<tspan class="cls-9" x="4.45" y="0">’</tspan></text><text class="cls-8" transform="translate(64.43 157.78)"><tspan xml:space="preserve">U···  3</tspan><tspan class="cls-9" x="22.66" y="0">’</tspan></text><text class="cls-8" transform="translate(56.29 155.47) rotate(18.37)">U</text><text class="cls-8" transform="matrix(0.71, 0.7, -0.7, 0.71, 49.97, 149.09)">U</text><path class="cls-2" d="M161.48,200c0,5.85-10.82,10.6-24.19,10.6S113.1,205.85,113.1,200s10.82-10.6,24.19-10.6S161.48,194.15,161.48,200Z"/><text class="cls-10" transform="translate(116.68 202.73)">c-di-AM<tspan class="cls-11" x="36.66" y="0">P</tspan></text><path class="cls-3" d="M154.28,298.27q-15.22.09-30.48.1"/><path class="cls-3" d="M105.64,298.27q-24,.09-48,.1"/><path class="cls-3" d="M154.28,279.34q-48.28.11-96.63.11"/><path class="cls-3" d="M124.35,297.84q.09,9.11.1,18.23"/><path class="cls-3" d="M105.42,297.84q.1,9.11.1,18.23"/><path class="cls-3" d="M55.49,255.11a12.93,12.93,0,1,1-13-12.91,12.94,12.94,0,0,1,13,12.91Z"/><polygon class="cls-4" points="33.76 261.89 51.13 261.88 51.16 268.85 33.79 268.86 33.76 261.89"/><path class="cls-3" d="M60.22,288.87a17.73,17.73,0,1,1-17.75-17.7,17.72,17.72,0,0,1,17.75,17.7Z"/><polygon class="cls-4" points="33.76 269.41 51.13 269.39 51.16 276.51 33.79 276.52 33.76 269.41"/><line class="cls-1" x1="33.76" y1="268.49" x2="51.24" y2="268.45"/><line class="cls-1" x1="123.8" y1="302.34" x2="105.97" y2="302.3"/><line class="cls-1" x1="123.8" y1="309.64" x2="105.97" y2="309.59"/><polygon class="cls-4" points="61.33 280.19 61.31 297.56 54.2 297.52 54.21 280.16 61.33 280.19"/><path class="cls-3" d="M160.85,275.76c5.43,0,9.83,5.81,9.81,12.94s-4.42,12.92-9.85,12.91S151,295.8,151,288.66s4.42-12.91,9.86-12.9Z"/><polygon class="cls-4" points="149 297.7 149.01 279.85 155.99 279.89 155.98 297.73 149 297.7"/><text class="cls-8" transform="translate(16.6 336.61)">5<tspan class="cls-9" x="4.45" y="0">’</tspan></text><text class="cls-8" transform="translate(211.07 337.55)"><tspan xml:space="preserve">UUUU···  3</tspan><tspan class="cls-9" x="40" y="0">’</tspan></text><line class="cls-3" x1="72.05" y1="68.65" x2="72.05" y2="77.41"/><line class="cls-3" x1="90.42" y1="68.65" x2="90.42" y2="77.41"/><line class="cls-3" x1="33.28" y1="264.48" x2="33.28" y2="273.24"/><line class="cls-3" x1="51.64" y1="264.48" x2="51.64" y2="273.24"/><polygon class="cls-4" points="33.79 301.53 51.16 301.52 51.19 308.5 33.83 308.51 33.79 301.53"/><line class="cls-3" x1="51.68" y1="304.13" x2="51.68" y2="335.06"/><path class="cls-3" d="M204.12,289.07a12.93,12.93,0,1,1-13-12.91,12.92,12.92,0,0,1,13,12.91Z"/><polygon class="cls-4" points="182.39 295.84 199.75 295.83 199.79 302.81 182.42 302.82 182.39 295.84"/><line class="cls-3" x1="181.9" y1="298.32" x2="181.9" y2="334.75"/><path class="cls-3" d="M209.79,334.75c-3.34,0-6.67,0-10-.1"/><line class="cls-1" x1="122.32" y1="334.01" x2="122.36" y2="327.36"/><line class="cls-1" x1="115.02" y1="334.01" x2="115.06" y2="328.86"/><line class="cls-1" x1="107.72" y1="334.01" x2="107.77" y2="327.36"/><path class="cls-3" d="M182.39,334.37q-65.32.11-130.75.11"/><path class="cls-3" d="M128,320.8c0,4.33-5.81,7.83-13,7.82s-12.92-3.53-12.91-7.86,5.81-7.83,13-7.83S128,316.46,128,320.79Z"/><polygon class="cls-4" points="106.27 312.13 123.64 312.14 123.6 319.11 106.24 319.1 106.27 312.13"/><path class="cls-2" d="M59.83,288.68c0,5-7.61,9.1-17,9.1s-17-4.07-17-9.1,7.61-9.09,17-9.09S59.83,283.66,59.83,288.68Z"/><text class="cls-12" transform="translate(25.16 290.81)">c-di-AM<tspan class="cls-11" x="29.33" y="0">P</tspan></text><path class="cls-2" d="M114.89,313.49c-5,0-9.1-7.62-9.1-17s4.07-17,9.1-17,9.09,7.61,9.09,17S119.91,313.49,114.89,313.49Z"/><text class="cls-12" transform="translate(112.76 278.82) rotate(90)">c-di-AM<tspan class="cls-11" x="29.33" y="0">P</tspan></text><line class="cls-1" x1="181.61" y1="102.18" x2="181.65" y2="84.32"/><line class="cls-1" x1="173.61" y1="102.18" x2="173.65" y2="84.32"/><line class="cls-1" x1="165.61" y1="102.18" x2="165.65" y2="84.32"/><line class="cls-1" x1="139.92" y1="102.18" x2="139.97" y2="84.32"/><line class="cls-1" x1="131.92" y1="102.18" x2="131.97" y2="84.32"/><line class="cls-1" x1="123.92" y1="102.18" x2="123.97" y2="84.32"/><line class="cls-1" x1="115.92" y1="102.18" x2="115.97" y2="84.32"/><line class="cls-1" x1="107.92" y1="102.18" x2="107.97" y2="84.32"/><line class="cls-1" x1="99.92" y1="102.18" x2="99.97" y2="84.32"/><line class="cls-1" x1="54.18" y1="110.44" x2="71.22" y2="110.39"/><line class="cls-1" x1="54.18" y1="118.44" x2="71.22" y2="118.39"/><line class="cls-1" x1="54.18" y1="126.44" x2="71.22" y2="126.39"/><line class="cls-1" x1="54.18" y1="134.44" x2="71.22" y2="134.39"/><line class="cls-1" x1="54.18" y1="142.44" x2="71.22" y2="142.39"/><text class="cls-8" transform="translate(209.79 288.68)"><tspan class="cls-13">T</tspan><tspan x="4" y="0">erminator</tspan></text><text class="cls-14" transform="translate(388.5 373.37)">ON</text><text class="cls-15" transform="translate(388.5 33.37)">OFF</text><text class="cls-15" transform="translate(113.5 373.37)">OFF</text><text class="cls-14" transform="translate(113.5 33.37)">ON</text><text class="cls-16" transform="translate(544.67 19.33)">C</text><text class="cls-16" transform="translate(277.12 19.33)">B</text><text class="cls-17" transform="translate(9.61 19.33)">A</text><path class="cls-3" d="M361.87,66.9A12.93,12.93,0,1,1,348.92,54a12.93,12.93,0,0,1,12.95,12.9Z"/><polygon class="cls-4" points="340.14 73.68 357.5 73.67 357.54 80.65 340.17 80.66 340.14 73.68"/><line class="cls-3" x1="339.65" y1="76.15" x2="339.65" y2="134.02"/><line class="cls-7" x1="358.01" y1="76.15" x2="358.01" y2="134.02"/><path class="cls-3" d="M437.7,134.11q-39.87,0-79.69-.28"/><line class="cls-1" x1="143.05" y1="297.81" x2="143.1" y2="279.95"/><line class="cls-1" x1="135.05" y1="297.81" x2="135.1" y2="279.95"/><line class="cls-1" x1="127.05" y1="297.81" x2="127.1" y2="279.95"/><line class="cls-1" x1="101.37" y1="297.81" x2="101.41" y2="279.95"/><line class="cls-1" x1="93.37" y1="297.81" x2="93.41" y2="279.95"/><line class="cls-1" x1="85.37" y1="297.81" x2="85.41" y2="279.95"/><line class="cls-1" x1="77.37" y1="297.81" x2="77.41" y2="279.95"/><line class="cls-1" x1="69.37" y1="297.81" x2="69.41" y2="279.95"/><line class="cls-1" x1="61.37" y1="297.81" x2="61.41" y2="279.95"/><line class="cls-1" x1="33.97" y1="306.67" x2="51.01" y2="306.62"/><line class="cls-1" x1="33.97" y1="314.67" x2="51.01" y2="314.62"/><line class="cls-1" x1="33.97" y1="322.67" x2="51.01" y2="322.62"/><line class="cls-1" x1="33.97" y1="330.67" x2="51.01" y2="330.62"/><line class="cls-1" x1="182.56" y1="300.09" x2="199.6" y2="300.04"/><line class="cls-1" x1="182.56" y1="308.09" x2="199.6" y2="308.04"/><line class="cls-1" x1="182.56" y1="316.09" x2="199.6" y2="316.04"/><line class="cls-1" x1="182.56" y1="324.09" x2="199.6" y2="324.04"/><line class="cls-1" x1="182.56" y1="332.09" x2="199.6" y2="332.04"/><line class="cls-1" x1="340.14" y1="79.06" x2="357.46" y2="79.01"/><line class="cls-1" x1="340.14" y1="87.06" x2="357.46" y2="87.01"/><line class="cls-1" x1="340.14" y1="95.06" x2="357.46" y2="95.01"/><line class="cls-1" x1="340.14" y1="103.06" x2="357.46" y2="103.01"/><line class="cls-1" x1="340.14" y1="128.06" x2="357.46" y2="128.01"/><line class="cls-1" x1="340.14" y1="119.06" x2="357.46" y2="119.01"/><line class="cls-1" x1="340.14" y1="111.06" x2="357.46" y2="111.01"/><path class="cls-3" d="M459.93,78A12.93,12.93,0,1,1,447,65.08,12.93,12.93,0,0,1,459.93,78Z"/><polygon class="cls-4" points="438.19 84.76 455.56 84.75 455.6 91.73 438.23 91.74 438.19 84.76"/><line class="cls-3" x1="437.7" y1="87.23" x2="437.7" y2="134.11"/><line class="cls-7" x1="456.07" y1="87.23" x2="456.07" y2="134.11"/><line class="cls-1" x1="438.19" y1="90.13" x2="455.52" y2="90.09"/><line class="cls-1" x1="438.19" y1="98.13" x2="455.52" y2="98.09"/><line class="cls-1" x1="438.19" y1="106.13" x2="455.52" y2="106.09"/><line class="cls-1" x1="438.19" y1="114.13" x2="455.52" y2="114.09"/><line class="cls-1" x1="438.19" y1="122.13" x2="455.52" y2="122.09"/><path class="cls-3" d="M366.64,134.11a9.89,9.89,0,0,1,19.78,0h0"/><polygon class="cls-4" points="367.24 133.26 385.9 133.25 385.94 135.17 367.27 135.17 367.24 133.26"/><path class="cls-3" d="M456.07,133.83c5.46,0,9.9,4.16,9.91,9.3s-4.41,9.31-9.87,9.33h0"/><line class="cls-7" x1="456.1" y1="152.46" x2="397.86" y2="152.46"/><line class="cls-1" x1="429.92" y1="134.58" x2="429.97" y2="151.91"/><line class="cls-1" x1="421.92" y1="134.58" x2="421.97" y2="151.91"/><line class="cls-1" x1="413.92" y1="134.58" x2="413.97" y2="151.91"/><line class="cls-1" x1="405.92" y1="134.58" x2="405.97" y2="151.91"/><path class="cls-18" d="M71.83,108.57q0,17.82-.1,35.6"/><path class="cls-18" d="M53.73,108.57q0,17.84-.1,35.66"/><line class="cls-18" x1="33.31" y1="304.13" x2="33.31" y2="335.06"/><line class="cls-18" x1="200.26" y1="298.32" x2="200.26" y2="334.75"/><path class="cls-18" d="M33.79,334.75c-3.34,0-6.67,0-10-.1"/><text class="cls-8" transform="translate(366.64 155.62)">3<tspan class="cls-9" x="4.45" y="0">’</tspan><tspan x="5.93" y="0" xml:space="preserve">   GU</tspan><tspan class="cls-19" x="24.6" y="0">A</tspan></text><text class="cls-8" transform="translate(330.02 137.47)">5<tspan class="cls-9" x="4.45" y="0">’</tspan></text><rect class="cls-20" x="415.87" y="149.8" width="20.43" height="5.92"/><text class="cls-8" transform="translate(420.39 155.72)">SD</text><line class="cls-5" x1="358.29" y1="188.28" x2="358.29" y2="214.29"/><polygon class="cls-6" points="356.11 212.8 358.29 220.93 360.47 212.8 356.11 212.8"/><path class="cls-5" d="M383.52,200c-13.95,0-25.23,5.52-25.23,12.33"/><path class="cls-2" d="M420.75,199.67c0,4.18-6.13,7.56-13.71,7.56s-13.71-3.38-13.71-7.56,6.13-7.56,13.71-7.56S420.75,195.49,420.75,199.67Z"/><text class="cls-10" transform="translate(396.91 202.73)">Gnd</text><path class="cls-3" d="M380.3,278.25a12.93,12.93,0,1,1,12.91-12.95,12.93,12.93,0,0,1-12.91,12.95Z"/><polygon class="cls-4" points="373.52 256.52 373.53 273.89 366.56 273.92 366.54 256.55 373.52 256.52"/><line class="cls-3" x1="371.05" y1="256.03" x2="313.18" y2="256.03"/><line class="cls-7" x1="371.05" y1="274.39" x2="313.18" y2="274.39"/><line class="cls-1" x1="368.15" y1="256.52" x2="368.19" y2="273.85"/><line class="cls-1" x1="360.15" y1="256.52" x2="360.19" y2="273.85"/><line class="cls-1" x1="352.15" y1="256.52" x2="352.19" y2="273.85"/><line class="cls-1" x1="344.15" y1="256.52" x2="344.19" y2="273.85"/><line class="cls-1" x1="319.15" y1="256.52" x2="319.19" y2="273.85"/><line class="cls-1" x1="328.15" y1="256.52" x2="328.19" y2="273.85"/><line class="cls-1" x1="336.15" y1="256.52" x2="336.19" y2="273.85"/><text class="cls-8" transform="translate(304.89 256.03)">5<tspan class="cls-9" x="4.45" y="0">’</tspan></text><path class="cls-3" d="M381.1,284.24a12.93,12.93,0,1,1-12.91,12.95,12.93,12.93,0,0,1,12.91-12.95Z"/><polygon class="cls-4" points="387.88 305.98 387.87 288.61 394.84 288.57 394.86 305.94 387.88 305.98"/><line class="cls-3" x1="390.35" y1="306.47" x2="437.23" y2="306.47"/><line class="cls-7" x1="390.35" y1="288.1" x2="478.49" y2="288.1"/><line class="cls-1" x1="393.25" y1="305.98" x2="393.21" y2="288.65"/><line class="cls-1" x1="401.25" y1="305.98" x2="401.21" y2="288.65"/><line class="cls-1" x1="409.25" y1="305.98" x2="409.21" y2="288.65"/><line class="cls-1" x1="417.25" y1="305.98" x2="417.21" y2="288.65"/><line class="cls-1" x1="425.25" y1="305.98" x2="425.21" y2="288.65"/><rect class="cls-20" x="452.21" y="285.14" width="20.43" height="5.92"/><text class="cls-8" transform="translate(456.73 291.06)">SD</text><text class="cls-8" transform="translate(481.49 290.96)"><tspan xml:space="preserve">AUG   3</tspan><tspan class="cls-9" x="28.45" y="0">’</tspan></text><path class="cls-3" d="M313.18,321.89c-5.46,0-9.9-10.59-9.91-23.71s4.41-23.76,9.87-23.79h0"/><line class="cls-3" x1="312.71" y1="321.89" x2="437.23" y2="321.89"/><path class="cls-3" d="M437.23,306.47a7.72,7.72,0,0,1,0,15.42h0"/><path class="cls-2" d="M392.07,297.82c0,3.47-5.09,6.28-11.37,6.28s-11.37-2.81-11.37-6.28,5.09-6.26,11.37-6.26S392.07,294.36,392.07,297.82Z"/><text class="cls-12" transform="translate(372.86 300.19)">Gnd</text><path class="cls-2" d="M392.07,264.65c0,3.47-5.09,6.28-11.37,6.28s-11.37-2.81-11.37-6.28,5.09-6.26,11.37-6.26S392.07,261.19,392.07,264.65Z"/><text class="cls-12" transform="translate(372.86 267.02)">Gnd</text><path class="cls-3" d="M645.37,52.12a12.93,12.93,0,1,1-13-12.9,12.93,12.93,0,0,1,13,12.9Z"/><polygon class="cls-4" points="623.63 58.9 641 58.89 641.04 65.87 623.67 65.88 623.63 58.9"/><line class="cls-3" x1="623.14" y1="61.38" x2="623.14" y2="101.83"/><line class="cls-7" x1="641.51" y1="61.38" x2="641.51" y2="101.83"/><line class="cls-1" x1="623.64" y1="64.28" x2="640.96" y2="64.23"/><line class="cls-1" x1="623.64" y1="72.28" x2="640.96" y2="72.23"/><line class="cls-1" x1="623.64" y1="80.28" x2="640.96" y2="80.23"/><line class="cls-1" x1="623.64" y1="88.28" x2="640.96" y2="88.23"/><line class="cls-1" x1="623.64" y1="96.28" x2="640.96" y2="96.23"/><line class="cls-7" x1="640.96" y1="101.83" x2="712.8" y2="101.83"/><rect class="cls-20" x="686.52" y="98.87" width="20.43" height="5.92"/><text class="cls-8" transform="translate(691.04 104.79)">SD</text><text class="cls-8" transform="translate(614.93 105.43)">5<tspan class="cls-9" x="4.45" y="0">’</tspan></text><text class="cls-8" transform="translate(714.96 105.53)">3<tspan class="cls-9" x="4.45" y="0">’</tspan></text><path class="cls-3" d="M598,175.75a12.93,12.93,0,1,1-12.95-12.91A12.93,12.93,0,0,1,598,175.75Z"/><polygon class="cls-4" points="576.3 182.53 593.66 182.52 593.7 189.5 576.33 189.51 576.3 182.53"/><line class="cls-3" x1="575.8" y1="185" x2="575.8" y2="225.46"/><line class="cls-7" x1="594.17" y1="185" x2="594.17" y2="235.98"/><line class="cls-1" x1="576.3" y1="187.9" x2="593.62" y2="187.86"/><line class="cls-1" x1="576.3" y1="195.9" x2="593.62" y2="195.86"/><line class="cls-1" x1="576.3" y1="203.9" x2="593.62" y2="203.86"/><line class="cls-1" x1="576.3" y1="211.9" x2="593.62" y2="211.86"/><line class="cls-1" x1="576.3" y1="219.9" x2="593.62" y2="219.86"/><line class="cls-7" x1="560.56" y1="169.39" x2="584.38" y2="145.58"/><rect class="cls-20" x="562.81" y="153.98" width="20.43" height="5.92" transform="translate(56.86 451.15) rotate(-45)"/><text class="cls-8" transform="translate(571.08 163.06) rotate(-45)">SD</text><text class="cls-8" transform="translate(567.59 229.06)">5<tspan class="cls-9" x="4.45" y="0">’</tspan></text><text class="cls-8" transform="translate(587.83 145.89)">3<tspan class="cls-9" x="4.45" y="0">’</tspan></text><line class="cls-1" x1="573.87" y1="160.27" x2="578.39" y2="164.73"/><line class="cls-1" x1="570.34" y1="163.8" x2="574.86" y2="168.26"/><line class="cls-7" x1="560.79" y1="168.93" x2="560.79" y2="235.98"/><line class="cls-7" x1="560.4" y1="235.72" x2="594.17" y2="235.72"/><line class="cls-5" x1="626.48" y1="114.62" x2="608.08" y2="133.01"/><polygon class="cls-6" points="607.59 130.42 603.38 137.71 610.67 133.5 607.59 130.42"/><path class="cls-5" d="M627.74,124.4c-3-3.05-11.22.18-18.27,7.23"/><line class="cls-5" x1="690.66" y1="114.62" x2="709.06" y2="133.01"/><polygon class="cls-6" points="706.47 133.5 713.75 137.71 709.55 130.42 706.47 133.5"/><path class="cls-5" d="M704.91,128.86c-5.68-5.68-13-7.55-16.34-4.2"/><path class="cls-2" d="M670.65,232.38a8.56,8.56,0,1,1-8.56-8.36A8.47,8.47,0,0,1,670.65,232.38Z"/><text class="cls-10" transform="translate(641.82 235.01)">preQ</text><text class="cls-21" transform="translate(665.16 238.34) scale(0.58)">1</text><path class="cls-3" d="M751.38,176.07a12.93,12.93,0,1,1-13-12.91,12.92,12.92,0,0,1,13,12.91Z"/><polygon class="cls-4" points="729.65 182.84 747.01 182.84 747.05 189.81 729.68 189.82 729.65 182.84"/><line class="cls-3" x1="729.15" y1="185.32" x2="729.15" y2="225.77"/><line class="cls-7" x1="747.52" y1="185.32" x2="747.52" y2="236.29"/><line class="cls-1" x1="729.65" y1="188.22" x2="746.97" y2="188.17"/><line class="cls-1" x1="729.65" y1="196.22" x2="746.97" y2="196.17"/><line class="cls-1" x1="729.65" y1="204.22" x2="746.97" y2="204.17"/><line class="cls-1" x1="729.65" y1="212.22" x2="746.97" y2="212.17"/><line class="cls-1" x1="729.65" y1="220.22" x2="746.97" y2="220.17"/><line class="cls-7" x1="713.92" y1="169.71" x2="737.73" y2="145.89"/><rect class="cls-20" x="716.16" y="154.29" width="20.43" height="5.92" transform="translate(101.56 559.68) rotate(-45)"/><text class="cls-8" transform="translate(724.43 163.37) rotate(-45)">SD</text><text class="cls-8" transform="translate(720.94 229.38)">5<tspan class="cls-9" x="4.45" y="0">’</tspan></text><text class="cls-8" transform="translate(741.18 146.21)">3<tspan class="cls-9" x="4.45" y="0">’</tspan></text><line class="cls-1" x1="727.22" y1="160.58" x2="731.75" y2="165.04"/><line class="cls-1" x1="723.69" y1="164.12" x2="728.21" y2="168.58"/><line class="cls-7" x1="714.14" y1="169.24" x2="714.14" y2="236.29"/><line class="cls-7" x1="713.76" y1="236.04" x2="747.52" y2="236.04"/><path class="cls-2" d="M584.72,180.11a3.73,3.73,0,1,1-3.73-3.64A3.69,3.69,0,0,1,584.72,180.11Z"/><path class="cls-2" d="M592.93,179.56a4.48,4.48,0,1,1-4.47-4.37A4.42,4.42,0,0,1,592.93,179.56Z"/><text class="cls-22" transform="translate(586.87 181.33)">α</text><path class="cls-2" d="M742.56,167.34a3.64,3.64,0,1,1-3.73,3.64A3.68,3.68,0,0,1,742.56,167.34Z"/><path class="cls-2" d="M735.09,166.06a4.37,4.37,0,1,1-4.47,4.37A4.42,4.42,0,0,1,735.09,166.06Z"/><text class="cls-22" transform="translate(732.77 172.46)">β</text><line class="cls-5" x1="603.39" y1="244.09" x2="621.78" y2="262.49"/><polygon class="cls-6" points="619.19 262.98 626.48 267.18 622.27 259.89 619.19 262.98"/><path class="cls-5" d="M622.51,244.91c-5.06,5.06-6,12.3-2.11,16.19"/><line class="cls-5" x1="713.27" y1="244.09" x2="694.88" y2="262.49"/><polygon class="cls-6" points="694.39 259.89 690.18 267.18 697.47 262.98 694.39 259.89"/><path class="cls-5" d="M699,258.33c2.14-2.14-.08-7.82-5-12.7"/><path class="cls-2" d="M656.37,132a7.13,7.13,0,1,1-7.13-7A7,7,0,0,1,656.37,132Z"/><path class="cls-2" d="M672.07,130.94a8.56,8.56,0,1,1-8.55-8.36A8.46,8.46,0,0,1,672.07,130.94Z"/><text class="cls-10" transform="translate(643.24 133.57)">preQ</text><text class="cls-21" transform="translate(666.58 136.9) scale(0.58)">1</text><path class="cls-3" d="M676.77,289.32a12.93,12.93,0,1,1-12.95-12.91,12.94,12.94,0,0,1,12.95,12.91Z"/><polygon class="cls-4" points="655.04 296.1 672.41 296.09 672.44 303.06 655.07 303.07 655.04 296.1"/><line class="cls-3" x1="654.55" y1="298.57" x2="654.55" y2="339.02"/><line class="cls-7" x1="672.91" y1="298.57" x2="672.91" y2="349.55"/><line class="cls-1" x1="655.04" y1="301.47" x2="672.37" y2="301.43"/><line class="cls-1" x1="655.04" y1="309.47" x2="672.37" y2="309.43"/><line class="cls-1" x1="655.04" y1="317.47" x2="672.37" y2="317.43"/><line class="cls-1" x1="655.04" y1="325.47" x2="672.37" y2="325.43"/><line class="cls-1" x1="655.04" y1="333.47" x2="672.37" y2="333.43"/><line class="cls-7" x1="639.53" y1="266.21" x2="676.95" y2="266.21"/><rect class="cls-20" x="650.68" y="263.25" width="20.43" height="5.92"/><text class="cls-8" transform="translate(655.19 269.17)">SD</text><text class="cls-8" transform="translate(646.34 342.63)">5<tspan class="cls-9" x="4.45" y="0">’</tspan></text><text class="cls-8" transform="translate(680.51 269.17)">3<tspan class="cls-9" x="4.45" y="0">’</tspan></text><line class="cls-7" x1="639.53" y1="266.21" x2="639.53" y2="349.55"/><line class="cls-7" x1="639.15" y1="349.29" x2="672.91" y2="349.29"/><path class="cls-2" d="M668,280.59a3.64,3.64,0,1,1-3.73,3.64A3.69,3.69,0,0,1,668,280.59Z"/><path class="cls-2" d="M660.48,279.31a4.37,4.37,0,1,1-4.47,4.37A4.42,4.42,0,0,1,660.48,279.31Z"/><text class="cls-22" transform="translate(658.16 285.71)">β</text><path class="cls-2" d="M663.84,294.26a3.73,3.73,0,1,1-3.72-3.64A3.68,3.68,0,0,1,663.84,294.26Z"/><path class="cls-2" d="M672.06,293.71a4.48,4.48,0,1,1-4.48-4.37A4.43,4.43,0,0,1,672.06,293.71Z"/><text class="cls-22" transform="translate(665.99 295.48)">α</text><text class="cls-15" transform="translate(648.37 373.37)">OFF</text><text class="cls-14" transform="translate(636.37 33.37)">Full ON</text><text class="cls-14" transform="translate(620.68 192.11)">Partial ON</text></svg>