<svg width="96" height="96" xmlns="http://www.w3.org/2000/svg" xmlns:xlink="http://www.w3.org/1999/xlink" xml:space="preserve" overflow="hidden"><g transform="translate(-592 -312)"><g><path d="M647.33 351.17 648.18 348.65 646.26 346.73 643.74 347.58C643.085 347.211 642.386 346.925 641.66 346.73L640.48 344.38 637.8 344.38 636.61 346.74C635.881 346.937 635.179 347.223 634.52 347.59L632 346.74 630.08 348.66 630.88 351.18C630.496 351.832 630.2 352.531 630 353.26L627.64 354.44 627.64 357.08 630 358.27C630.195 358.996 630.48 359.695 630.85 360.35L630 362.87 632 364.79 634.52 363.93C635.175 364.303 635.873 364.591 636.6 364.79L637.78 367.14 640.46 367.14 641.65 364.83C642.364 364.636 643.052 364.357 643.7 364L646.21 364.86 648.13 362.93 647.28 360.42C647.662 359.76 647.967 359.059 648.19 358.33L650.54 357.15 650.54 354.44 648.18 353.25C647.989 352.522 647.703 351.823 647.33 351.17ZM639.13 359.8C636.921 359.8 635.13 358.009 635.13 355.8 635.13 353.591 636.921 351.8 639.13 351.8 641.326 351.832 643.098 353.604 643.13 355.8 643.13 358.009 641.339 359.8 639.13 359.8Z" fill="#005826" fill-rule="nonzero" fill-opacity="1"/><path d="M647.72 386.79 630.51 386.79C628.917 386.884 627.701 388.252 627.795 389.845 627.881 391.307 629.048 392.474 630.51 392.56L647.72 392.56C649.313 392.466 650.529 391.098 650.435 389.505 650.349 388.043 649.182 386.876 647.72 386.79Z" fill="#005826" fill-rule="nonzero" fill-opacity="1"/><path d="M639.12 402.33C642.385 402.325 645.1 399.815 645.36 396.56L632.87 396.56C633.135 399.816 635.853 402.325 639.12 402.33Z" fill="#005826" fill-rule="nonzero" fill-opacity="1"/><path d="M664.09 356.47 664.09 355.61C663.835 341.96 652.742 331.004 639.09 330.92 625.438 331.004 614.345 341.96 614.09 355.61L614.09 356.47C614.181 359.43 614.77 362.354 615.83 365.12 616.842 367.729 618.312 370.137 620.17 372.23 622.46 374.72 624.96 379.57 626.02 381.73 626.344 382.383 627.011 382.794 627.74 382.79L650.44 382.79C651.169 382.794 651.836 382.383 652.16 381.73 653.22 379.57 655.72 374.73 658.01 372.23 659.868 370.137 661.338 367.729 662.35 365.12 663.41 362.354 663.999 359.43 664.09 356.47ZM658.33 356.38C658.259 358.678 657.81 360.948 657 363.1 656.241 365.038 655.144 366.825 653.76 368.38 651.54 371.022 649.637 373.915 648.09 377L630.09 377C628.56 373.907 626.674 371.004 624.47 368.35 623.086 366.795 621.989 365.008 621.23 363.07 620.403 360.921 619.937 358.651 619.85 356.35L619.85 355.63C620.029 345.13 628.559 336.694 639.06 336.63 649.561 336.694 658.091 345.13 658.27 355.63Z" fill="#005826" fill-rule="nonzero" fill-opacity="1"/><path d="M639.31 327C640.415 327 641.31 326.105 641.31 325L641.31 318C641.31 316.895 640.415 316 639.31 316 638.205 316 637.31 316.895 637.31 318L637.31 325C637.31 326.105 638.205 327 639.31 327Z" fill="#005826" fill-rule="nonzero" fill-opacity="1"/><path d="M615.58 335.79C616.36 336.565 617.62 336.565 618.4 335.79 619.175 335.01 619.175 333.75 618.4 332.97L613.45 328C612.63 327.26 611.365 327.324 610.625 328.144 609.936 328.908 609.938 330.069 610.63 330.83Z" fill="#005826" fill-rule="nonzero" fill-opacity="1"/><path d="M661.66 336.76C662.193 336.76 662.704 336.548 663.08 336.17L668.02 331.17C668.664 330.273 668.459 329.023 667.562 328.379 666.854 327.871 665.899 327.879 665.2 328.4L660.2 333.4C659.425 334.18 659.425 335.44 660.2 336.22 660.594 336.59 661.12 336.785 661.66 336.76Z" fill="#005826" fill-rule="nonzero" fill-opacity="1"/><path d="M608.25 353.5 601.25 353.5C600.145 353.5 599.25 354.395 599.25 355.5 599.25 356.605 600.145 357.5 601.25 357.5L608.25 357.5C609.355 357.5 610.25 356.605 610.25 355.5 610.25 354.395 609.355 353.5 608.25 353.5Z" fill="#005826" fill-rule="nonzero" fill-opacity="1"/><path d="M615.58 375.14 610.63 380.14C609.791 380.858 609.693 382.121 610.412 382.96 611.13 383.799 612.393 383.897 613.232 383.178 613.31 383.111 613.383 383.038 613.45 382.96L618.4 377.96C619.119 377.121 619.021 375.858 618.182 375.14 617.433 374.499 616.329 374.499 615.58 375.14Z" fill="#005826" fill-rule="nonzero" fill-opacity="1"/><path d="M663.08 374.76C662.34 373.94 661.075 373.876 660.255 374.616 659.435 375.356 659.371 376.621 660.111 377.441 660.155 377.489 660.201 377.536 660.25 377.58L665.25 382.58C665.957 383.429 667.218 383.544 668.067 382.837 668.916 382.13 669.03 380.869 668.323 380.02 668.227 379.905 668.119 379.801 668 379.71Z" fill="#005826" fill-rule="nonzero" fill-opacity="1"/><path d="M677 353.43 670 353.43C668.895 353.43 668 354.325 668 355.43 668 356.535 668.895 357.43 670 357.43L677 357.43C678.105 357.43 679 356.535 679 355.43 679 354.325 678.105 353.43 677 353.43Z" fill="#005826" fill-rule="nonzero" fill-opacity="1"/></g></g></svg>