<?xml version="1.0" encoding="utf-8"?>
<!-- Generator: Adobe Illustrator 27.5.0, SVG Export Plug-In . SVG Version: 6.00 Build 0)  -->
<svg version="1.1" id="a" xmlns="http://www.w3.org/2000/svg" xmlns:xlink="http://www.w3.org/1999/xlink" x="0px" y="0px"
	 viewBox="0 0 110.8 57.6" style="enable-background:new 0 0 110.8 57.6;" xml:space="preserve">
<style type="text/css">
	.st0{fill:#005826;}
	.st1{font-family:'Impact';}
	.st2{font-size:26px;}
	.st3{font-size:15px;}
</style>
<path class="st0" d="M59,32.3c0-5.8-4.7-10.4-10.4-10.4H27.2v27.5C16.3,48.7,7.7,39.6,7.7,28.6S17,7.7,28.6,7.7
	c7.7,0,14.5,4.2,18.1,10.4h2.8c2.2,0,4.3,0.5,6.2,1.4C51.9,8.2,41.2,0,28.6,0C12.8,0,0,12.8,0,28.6s12.1,27.8,27.2,28.5l0,0h10.9
	V42.7h10.4C54.4,42.7,59,38.1,59,32.3L59,32.3z M45.4,35.9h-7.2v-7.2h7.2c2,0,3.6,1.6,3.6,3.6S47.4,35.9,45.4,35.9z"/>
<polygon class="st0" points="42.3,45.6 48.2,57.3 60.5,57.3 54.1,45.8 "/>
<text transform="matrix(1.189 0 0 1 62.8366 42.8003)" class="st0 st1 st2">i</text>
<text transform="matrix(1.189 0 0 1 70.3747 42.8005)" class="st0 st1 st2">b</text>
<text transform="matrix(1.189 0 0 1 85.4774 43.1073)" class="st0 st1 st2">o</text>
<text transform="matrix(1.189 0 0 1 61.1762 57.0933)" class="st0 st1 st3">s</text>
<text transform="matrix(1.189 0 0 1 69.676 57.0998)" class="st0 st1 st3">w</text>
<text transform="matrix(1.189 0 0 1 82.1762 57.1001)" class="st0 st1 st3">i</text>
<path class="st0" d="M93.5,57.1h-2c-1.4,0-2.2-0.1-2.5-0.4c-0.3-0.3-0.5-0.9-0.5-1.9v-6h-1.4v-1.5h1.4v-2h3.2v2h1.7v1.5h-1.7v5.9
	c0,0.3,0.1,0.5,0.4,0.6c0.2,0.1,0.5,0.1,0.8,0.1h0.6C93.5,55.5,93.5,57.1,93.5,57.1z"/>
<path class="st0" d="M101.6,54.8c0,0.7-0.4,1.3-1.1,1.6c-0.6,0.3-1.4,0.4-2.6,0.4s-2-0.1-2.6-0.4c-0.7-0.3-1.1-0.9-1.1-1.6V49
	c0-0.7,0.4-1.3,1.1-1.6c0.6-0.3,1.5-0.5,2.6-0.5s1.9,0.1,2.5,0.4c0.7,0.3,1.1,0.8,1.1,1.6v2.3h-3.1v-2.4c0-0.2-0.1-0.3-0.1-0.4
	s-0.2-0.1-0.4-0.1c-0.2,0-0.3,0-0.4,0.1s-0.2,0.2-0.2,0.4v6c0,0.2,0.1,0.3,0.1,0.4s0.2,0.1,0.4,0.1s0.3,0,0.4-0.1s0.1-0.2,0.1-0.4
	v-2.3h3.2L101.6,54.8L101.6,54.8z"/>
<text transform="matrix(1.189 0 0 1 101.8765 56.7935)" class="st0 st1 st3">h</text>
</svg>
