<?xml version="1.0" encoding="utf-8"?>
<!-- Generator: Adobe Illustrator 27.5.0, SVG Export Plug-In . SVG Version: 6.00 Build 0)  -->
<svg version="1.1" id="图层_1" xmlns="http://www.w3.org/2000/svg" xmlns:xlink="http://www.w3.org/1999/xlink" x="0px" y="0px"
	 viewBox="0 0 600 315.7" style="enable-background:new 0 0 600 315.7;" xml:space="preserve">
<style type="text/css">
	.st0{fill:#04562F;}
	.st1{font-family:'Impact';}
	.st2{font-size:140.261px;}
	.st3{font-size:80.9198px;}
</style>
<g>
	<path class="st0" d="M318.3,174.2c0-31.3-25.4-56.1-56.1-56.1H146.7v148.4c-58.8-3.8-105.2-52.9-105.2-112.2S91.7,41.5,154.3,41.5
		c41.5,0,78.2,22.7,97.6,56.1H267c11.9,0,23.2,2.7,33.4,7.6C280,44.2,222.3,0,154.3,0C69.1,0,0,69.1,0,154.3s65.3,150,146.7,153.7
		l0,0h58.8v-77.7h56.1C293.5,230.4,318.3,205.5,318.3,174.2L318.3,174.2z M244.9,193.7h-38.8v-38.8h38.8c10.8,0,19.4,8.6,19.4,19.4
		S255.7,193.7,244.9,193.7z"/>
	<polygon class="st0" points="228.2,246 260,309.1 326.4,309.1 291.9,247.1 	"/>
	<text transform="matrix(1.189 0 0 1 338.9833 230.8936)" class="st0 st1 st2">i</text>
	<text transform="matrix(1.189 0 0 1 379.6483 230.8936)" class="st0 st1 st2">b</text>
	<text transform="matrix(1.189 0 0 1 461.12 232.5479)" class="st0 st1 st2">o</text>
	<text transform="matrix(1.189 0 0 1 330.0233 307.9961)" class="st0 st1 st3">s</text>
	<text transform="matrix(1.189 0 0 1 375.8807 308.0342)" class="st0 st1 st3">w</text>
	<text transform="matrix(1.189 0 0 1 443.3104 308.0342)" class="st0 st1 st3">i</text>
	<path class="st0" d="M504.4,308h-10.8c-7.6,0-11.9-0.5-13.5-2.2c-1.6-1.6-2.7-4.9-2.7-10.2v-32.4h-7.6v-8.1h7.6v-10.8h17.3v10.8
		h9.2v8.1h-9.2v31.8c0,1.6,0.5,2.7,2.2,3.2c1.1,0.5,2.7,0.5,4.3,0.5h3.2C504.4,299.4,504.4,308,504.4,308z"/>
	<path class="st0" d="M548.1,295.6c0,3.8-2.2,7-5.9,8.6c-3.2,1.6-7.6,2.2-14,2.2s-10.8-0.5-14-2.2c-3.8-1.6-5.9-4.9-5.9-8.6v-31.3
		c0-3.8,2.2-7,5.9-8.6c3.2-1.6,8.1-2.7,14-2.7c5.9,0,10.2,0.5,13.5,2.2c3.8,1.6,5.9,4.3,5.9,8.6v12.4h-16.7v-12.9
		c0-1.1-0.5-1.6-0.5-2.2s-1.1-0.5-2.2-0.5c-1.1,0-1.6,0-2.2,0.5c-0.5,0.5-1.1,1.1-1.1,2.2v32.4c0,1.1,0.5,1.6,0.5,2.2
		c0,0.5,1.1,0.5,2.2,0.5c1.1,0,1.6,0,2.2-0.5c0.5-0.5,0.5-1.1,0.5-2.2v-12.4h17.3L548.1,295.6L548.1,295.6z"/>
	<text transform="matrix(1.189 0 0 1 549.5907 306.3809)" class="st0 st1 st3">h</text>
</g>
</svg>
