<svg id="图层_1" data-name="图层 1" xmlns="http://www.w3.org/2000/svg" viewBox="0 0 800 400">
  <defs>
    <style>
      .cls-1, .cls-2, .cls-3 {
        fill: none;
      }

      .cls-1 {
        stroke: #9d9d9d;
      }

      .cls-2, .cls-3 {
        stroke: #251e1c;
      }

      .cls-3 {
        stroke-dasharray: 3.11 3.11;
      }

      .cls-4, .cls-5 {
        isolation: isolate;
      }

      .cls-4 {
        font-size: 18px;
      }

      .cls-10, .cls-12, .cls-13, .cls-14, .cls-15, .cls-4, .cls-5, .cls-8 {
        font-family: ArialMT, Arial;
      }

      .cls-5 {
        font-size: 12px;
        fill: #251e1c;
      }

      .cls-6 {
        letter-spacing: -0.04em;
      }

      .cls-7 {
        letter-spacing: -0.04em;
      }

      .cls-8 {
        font-size: 21px;
      }

      .cls-9 {
        fill: #c50018;
        stroke-width: 1.44px;
      }

      .cls-11, .cls-9 {
        stroke: #c50018;
      }

      .cls-10 {
        font-size: 13.86px;
      }

      .cls-11 {
        fill: #fff;
        stroke-width: 0.25px;
      }

      .cls-12, .cls-14 {
        font-size: 14.03px;
      }

      .cls-13 {
        font-size: 13.03px;
      }

      .cls-14 {
        letter-spacing: -0.06em;
      }

      .cls-15 {
        font-size: 14px;
      }

      .cls-16 {
        letter-spacing: -0.07em;
      }
    </style>
  </defs>
  <line class="cls-1" x1="545.86" y1="153.1" x2="575.56" y2="153.1"/>
  <line class="cls-1" x1="610.7" y1="348.74" x2="610.7" y2="370.91"/>
  <line class="cls-1" x1="589" y1="348.19" x2="588.89" y2="370.37"/>
  <line class="cls-1" x1="630.27" y1="349.29" x2="630.15" y2="371.46"/>
  <line class="cls-1" x1="519.92" y1="289.1" x2="547.74" y2="289.32"/>
  <line class="cls-1" x1="519.92" y1="301.99" x2="547.74" y2="301.99"/>
  <line class="cls-1" x1="519.92" y1="315.97" x2="547.74" y2="316.08"/>
  <line class="cls-1" x1="519.92" y1="330.28" x2="547.74" y2="330.28"/>
  <line class="cls-1" x1="548.45" y1="259.61" x2="576.27" y2="259.82"/>
  <line class="cls-1" x1="548.45" y1="241.69" x2="576.27" y2="241.69"/>
  <line class="cls-1" x1="547.74" y1="221.48" x2="575.56" y2="221.48"/>
  <line class="cls-1" x1="548.45" y1="277.74" x2="576.27" y2="277.74"/>
  <line class="cls-1" x1="545.86" y1="162.06" x2="575.56" y2="162.17"/>
  <line class="cls-1" x1="546.33" y1="138.25" x2="576.27" y2="138.25"/>
  <line class="cls-1" x1="545.74" y1="126.89" x2="574.98" y2="126.89"/>
  <path class="cls-2" d="M547.86,212.2c.12,45.66.59,91.21.59,136.87,0,0-11.32,21.19,14.15,21.63,31.71.43,63.42,1.09,95.14,1.2"/>
  <path class="cls-2" d="M576.27,348.19c0-83.23-.47-166.36-.59-249.59"/>
  <path class="cls-2" d="M519.8,346.55c0-74.82-.47-149.86-.59-224.8,0,0,13.44-14.2,26.53,0v48.61"/>
  <path class="cls-2" d="M657.62,348.85c-27.35-.22-54.94-.88-82.29-1.31"/>
  <path class="cls-2" d="M656.79,349a13.63,13.63,0,0,1,2.12.11"/>
  <path class="cls-3" d="M663.16,349.94c5.19,1.86,8.84,5.9,8.84,10.38,0,5.24-4.72,9.61-11,11"/>
  <text class="cls-4" transform="translate(482.85 319.66) scale(1.09 1)">P1</text>
  <text class="cls-4" transform="translate(588.97 236.76) scale(1.09 1)">P2</text>
  <text class="cls-4" transform="translate(585.95 170.19) scale(1.09 1)">P2a</text>
  <text class="cls-4" transform="translate(607.68 338.55) scale(1.09 1)">P3</text>
  <text class="cls-5" transform="translate(513.73 360.77) scale(1.1 1)">5<tspan class="cls-6" x="6.67" y="0">’</tspan></text>
  <text class="cls-5" transform="translate(581.94 98.66) scale(1.1 1)">3<tspan class="cls-6" x="6.67" y="0">’</tspan></text>
  <line class="cls-1" x1="189.67" y1="152.15" x2="224.12" y2="152.15"/>
  <line class="cls-1" x1="159.6" y1="300.29" x2="191.86" y2="300.53"/>
  <line class="cls-1" x1="159.6" y1="314.33" x2="191.86" y2="314.33"/>
  <line class="cls-1" x1="159.6" y1="329.57" x2="191.86" y2="329.69"/>
  <line class="cls-1" x1="159.6" y1="345.15" x2="191.86" y2="345.15"/>
  <line class="cls-1" x1="192.68" y1="268.17" x2="224.94" y2="268.4"/>
  <line class="cls-1" x1="192.68" y1="248.65" x2="224.94" y2="248.65"/>
  <line class="cls-1" x1="191.86" y1="226.64" x2="224.12" y2="226.64"/>
  <line class="cls-1" x1="192.68" y1="287.92" x2="224.94" y2="287.92"/>
  <line class="cls-1" x1="159.19" y1="248.65" x2="191.72" y2="248.65"/>
  <line class="cls-1" x1="158.91" y1="141.2" x2="189.53" y2="141.2"/>
  <line class="cls-1" x1="189.67" y1="161.9" x2="224.12" y2="162.02"/>
  <line class="cls-1" x1="190.22" y1="135.96" x2="224.94" y2="135.96"/>
  <line class="cls-1" x1="189.53" y1="123.59" x2="223.43" y2="123.59"/>
  <path class="cls-2" d="M192,216.52c0,50.53,1.38,100.5-.23,151,0,0,14.85,22.68,33.18.67,0-91.85-.55-183.57-.69-275.42"/>
  <path class="cls-2" d="M159.87,382.47c0-87.85-.54-176-.68-263.94,0,0,15.38-16.67,30.34,0V175.6"/>
  <text class="cls-4" transform="translate(116.62 333.59) scale(1.16 1)">P1</text>
  <text class="cls-4" transform="translate(105.87 162.17) scale(1.16 1)">L1</text>
  <text class="cls-4" transform="translate(241.16 161.24) scale(1.16 1)">P2</text>
  <text class="cls-4" transform="translate(249.88 338.61) scale(1.16 1)">L2</text>
  <text class="cls-5" transform="translate(144.62 391.48) scale(1.17 1)">5<tspan class="cls-7" x="6.67" y="0">’</tspan></text>
  <text class="cls-5" transform="translate(228.07 90.86) scale(1.17 1)">3<tspan class="cls-7" x="6.67" y="0">’</tspan></text>
  <text class="cls-8" transform="translate(159.2 27.38)">SAM-II</text>
  <text class="cls-8" transform="translate(522.31 26.96)">SAM-V</text>
  <rect class="cls-9" x="529.1" y="184.57" width="36.05" height="13.86"/>
  <text class="cls-10" transform="translate(533.6 195.5) scale(0.95 1)">SAM</text>
  <rect class="cls-9" x="175.1" y="189.57" width="36.05" height="13.86"/>
  <text class="cls-10" transform="translate(179.6 200.5) scale(0.95 1)">SAM</text>
  <ellipse class="cls-11" cx="159.66" cy="197.05" rx="7.34" ry="7.01"/>
  <text class="cls-12" transform="translate(154 202.44) scale(1.04 1)">U</text>
  <ellipse class="cls-11" cx="192.76" cy="221.68" rx="6.65" ry="6.52"/>
  <text class="cls-13" transform="translate(187.63 226.69) scale(1.01 1)">G</text>
  <ellipse class="cls-11" cx="224.49" cy="196.56" rx="7.34" ry="7.01"/>
  <text class="cls-12" transform="translate(218.83 201.95) scale(1.04 1)">U</text>
  <ellipse class="cls-11" cx="224.49" cy="149.88" rx="7.34" ry="7.01"/>
  <text class="cls-14" transform="translate(219.83 154.28) scale(1.04 1)">A</text>
  <ellipse class="cls-11" cx="189.49" cy="167.88" rx="7.34" ry="7.01"/>
  <text class="cls-12" transform="translate(183.83 173.28) scale(1.04 1)">U</text>
  <ellipse class="cls-11" cx="158.49" cy="167.88" rx="7.34" ry="7.01"/>
  <text class="cls-12" transform="translate(152.83 173.28) scale(1.04 1)">U</text>
  <ellipse class="cls-11" cx="519.31" cy="192.26" rx="7.34" ry="7.01"/>
  <text class="cls-12" transform="translate(513.65 197.65) scale(1.04 1)">U</text>
  <ellipse class="cls-11" cx="519.08" cy="164.13" rx="7.34" ry="7.01"/>
  <text class="cls-12" transform="translate(513.42 169.53) scale(1.04 1)">U</text>
  <ellipse class="cls-11" cx="546.08" cy="164.13" rx="7.34" ry="7.01"/>
  <text class="cls-12" transform="translate(540.42 169.53) scale(1.04 1)">U</text>
  <ellipse class="cls-11" cx="576.08" cy="138.46" rx="7.34" ry="7.01"/>
  <text class="cls-14" transform="translate(571.42 142.85) scale(1.04 1)">A</text>
  <ellipse class="cls-11" cx="548.08" cy="216.46" rx="7.34" ry="7.01"/>
  <text class="cls-12" transform="translate(542.42 221.85) scale(1.04 1)">G</text>
  <ellipse class="cls-11" cx="575.14" cy="191.79" rx="7.34" ry="7.01"/>
  <text class="cls-12" transform="translate(569.48 197.18) scale(1.04 1)">U</text>
  <text class="cls-15" transform="translate(132.08 194.38)">10</text>
  <text class="cls-15" transform="translate(135.48 160.8)"><tspan class="cls-16">1</tspan><tspan x="6.75" y="0">1</tspan></text>
  <text class="cls-15" transform="translate(200.56 177.87)">21</text>
  <text class="cls-15" transform="translate(166.85 237.25)">22</text>
  <text class="cls-15" transform="translate(237.23 204.52)">44</text>
  <text class="cls-15" transform="translate(231.64 135.06)">47</text>
  <text class="cls-15" transform="translate(501.15 195.96)">8</text>
  <text class="cls-15" transform="translate(502.12 158.6)">9</text>
  <text class="cls-15" transform="translate(551.85 177.73)">20</text>
  <text class="cls-15" transform="translate(526.32 234.81)">21</text>
  <text class="cls-15" transform="translate(589.21 196.99)">47</text>
  <text class="cls-15" transform="translate(589.43 138.73)">50</text>
</svg>
