<svg id="图层_1" data-name="图层 1" xmlns="http://www.w3.org/2000/svg" viewBox="0 0 800 400"><defs><style>.cls-1,.cls-10,.cls-17,.cls-18,.cls-2,.cls-3,.cls-4{fill:none;}.cls-1{stroke:#c50018;}.cls-10,.cls-2{stroke:#000;}.cls-3{stroke:#9d9d9d;}.cls-4{stroke:#231815;}.cls-5{fill:#fff;}.cls-22,.cls-26,.cls-6,.cls-8,.cls-9{font-size:6px;}.cls-23,.cls-6,.cls-8,.cls-9{font-family:ArialMT, Arial;}.cls-20,.cls-25,.cls-26,.cls-7,.cls-8,.cls-9{isolation:isolate;}.cls-8,.cls-9{fill:#231815;}.cls-9{letter-spacing:-0.08em;}.cls-10,.cls-12,.cls-18{stroke-miterlimit:10;}.cls-10{stroke-width:0.25px;}.cls-11,.cls-15{letter-spacing:-0.04em;}.cls-12{fill:#ff870a;stroke:#ff870a;}.cls-13,.cls-14{font-size:14px;}.cls-13{fill:#499947;}.cls-13,.cls-14,.cls-15,.cls-16,.cls-20,.cls-25,.cls-26{font-family:Arial-BoldMT, Arial;font-weight:700;}.cls-14{fill:#c50018;}.cls-15,.cls-16{font-size:18px;}.cls-15,.cls-16,.cls-20,.cls-25,.cls-26{fill:#251e1c;}.cls-17{stroke:#251e1c;}.cls-18{stroke:#231714;stroke-width:0.75px;}.cls-19{fill:#231714;}.cls-20{font-size:10px;}.cls-21{letter-spacing:-0.02em;}.cls-22{font-family:AdobeSongStd-Light-GBpc-EUC-H, Adobe Song Std;}.cls-23{font-size:8px;}.cls-24{letter-spacing:-0.11em;}.cls-25{font-size:7px;}</style></defs><path class="cls-1" d="M126.83,333.83a13.52,13.52,0,0,1-13.52,13.52"/><path class="cls-2" d="M113.31,347.35a13.52,13.52,0,1,1,13.52-13.52"/><line class="cls-3" x1="110.64" y1="265.52" x2="118.4" y2="265.5"/><line class="cls-3" x1="110.64" y1="270.1" x2="118.4" y2="270.09"/><path class="cls-4" d="M110.29,260.59q0,7.29,0,14.56"/><path class="cls-4" d="M118.76,260.58l-.06,14.95"/><path class="cls-4" d="M121.41,255.06a7.14,7.14,0,1,1-7.15-7.13,7.14,7.14,0,0,1,7.15,7.13Z"/><rect class="cls-5" x="110.91" y="256.07" width="7.15" height="8.11" transform="translate(-0.45 0.2) rotate(-0.1)"/><line class="cls-3" x1="110.82" y1="310.02" x2="118.41" y2="310.01"/><line class="cls-3" x1="110.83" y1="314.53" x2="118.42" y2="314.51"/><path class="cls-4" d="M110.49,305.2q0,7.55,0,15.11"/><path class="cls-4" d="M118.77,305.18l0,15.53"/><rect class="cls-5" x="110.99" y="342.41" width="7.29" height="6.17" transform="translate(-0.59 0.2) rotate(-0.1)"/><rect class="cls-5" x="110.99" y="317.41" width="7.15" height="6.17" transform="translate(-0.56 0.2) rotate(-0.1)"/><line class="cls-3" x1="92.25" y1="319.85" x2="97.82" y2="314.44"/><line class="cls-3" x1="95.45" y1="323.14" x2="101.01" y2="317.73"/><path class="cls-4" d="M88.58,316.55,101,329.42"/><path class="cls-4" d="M94.65,310.65l11,11.41"/><path class="cls-4" d="M92.72,304.84a7.14,7.14,0,1,1-10.1-.14,7.14,7.14,0,0,1,10.1.14Z"/><rect class="cls-5" x="87.7" y="309.24" width="7.15" height="8.11" transform="translate(-192.5 152.17) rotate(-44.17)"/><rect class="cls-5" x="99.6" y="322.48" width="7.15" height="6.17" transform="translate(-198.8 166.04) rotate(-44.57)"/><line class="cls-3" x1="41.91" y1="248.66" x2="49.67" y2="248.65"/><line class="cls-3" x1="41.92" y1="258.24" x2="49.68" y2="258.23"/><line class="cls-3" x1="41.92" y1="253.24" x2="49.68" y2="253.23"/><path class="cls-4" d="M41.58,243.75q0,8.44,0,16.9"/><path class="cls-4" d="M50,243.73l0,17.12"/><path class="cls-4" d="M54.07,267.93a8.33,8.33,0,1,1-8.35-8.31h0A8.32,8.32,0,0,1,54.07,267.93Z"/><rect class="cls-5" x="42.18" y="258.97" width="7.14" height="8.1" transform="translate(-0.46 0.08) rotate(-0.1)"/><rect class="cls-5" x="42.19" y="270.22" width="7.14" height="6.77" transform="translate(-0.4 0.07) rotate(-0.08)"/><path class="cls-4" d="M52.82,287.79c0,2-3.17,3.57-7.11,3.57s-7.14-1.59-7.15-3.56,3.18-3.56,7.12-3.57h0C49.62,284.23,52.81,285.82,52.82,287.79Z"/><path class="cls-4" d="M52.68,238.22a7.14,7.14,0,1,1-7.15-7.12h0A7.15,7.15,0,0,1,52.68,238.22Z"/><rect class="cls-5" x="42.19" y="239.23" width="7.14" height="8.1" transform="translate(-0.42 0.08) rotate(-0.1)"/><line class="cls-3" x1="42.1" y1="293.09" x2="49.69" y2="293.08"/><line class="cls-3" x1="42.1" y1="298.09" x2="49.69" y2="298.08"/><line class="cls-3" x1="42.1" y1="303.09" x2="49.69" y2="303.08"/><line class="cls-3" x1="42.11" y1="307.59" x2="49.69" y2="307.58"/><path class="cls-4" d="M41.77,290.36l0,21.71"/><path class="cls-4" d="M50,290.33q0,11.71,0,23.43"/><circle class="cls-2" cx="42.54" cy="325.06" r="13.52"/><rect class="cls-5" x="42.28" y="310.48" width="7.14" height="6.16" transform="translate(-0.55 0.08) rotate(-0.1)"/><line class="cls-3" x1="22.26" y1="311.71" x2="27.82" y2="306.31"/><line class="cls-3" x1="25.46" y1="315" x2="31.02" y2="309.59"/><path class="cls-4" d="M18.6,308.41l11.55,12"/><path class="cls-4" d="M24.67,302.53l11,11.39"/><path class="cls-4" d="M22.73,296.72a7.13,7.13,0,1,1-10.08-.14A7.13,7.13,0,0,1,22.73,296.72Z"/><rect class="cls-5" x="17.71" y="301.12" width="7.14" height="8.1" transform="translate(-206.62 101.11) rotate(-44.17)"/><rect class="cls-5" x="29.61" y="314.36" width="7.14" height="6.16" transform="translate(-213.23 114.58) rotate(-44.57)"/><path class="cls-1" d="M118.87,361.9l0-15.87"/><line class="cls-3" x1="110.85" y1="359.14" x2="118.44" y2="359.13"/><line class="cls-3" x1="110.85" y1="354.14" x2="118.44" y2="354.13"/><line class="cls-3" x1="110.85" y1="349.14" x2="118.44" y2="349.13"/><path class="cls-4" d="M47.09,361.9l.07-24"/><path class="cls-4" d="M38.55,362q0-12.06.07-24.13"/><rect class="cls-5" x="39.31" y="334.89" width="7.14" height="6.16" transform="translate(-0.59 0.08) rotate(-0.1)"/><text class="cls-6" transform="translate(148.07 333.35) rotate(90)">UUUUUU</text><line class="cls-3" x1="39.09" y1="357.14" x2="46.68" y2="357.13"/><line class="cls-3" x1="39.09" y1="352.14" x2="46.68" y2="352.13"/><line class="cls-3" x1="39.09" y1="342.14" x2="46.68" y2="342.13"/><line class="cls-3" x1="39.09" y1="347.14" x2="46.68" y2="347.13"/><path class="cls-4" d="M110.32,361.9q0-7.66.07-15.33"/><line class="cls-2" x1="118.61" y1="361.9" x2="136.89" y2="361.9"/><line class="cls-2" x1="46.61" y1="361.9" x2="110.76" y2="361.9"/><path class="cls-4" d="M39.09,370.51a4.31,4.31,0,0,1-4.31-4.31h0a4.3,4.3,0,0,1,4.31-4.3"/><line class="cls-2" x1="39.09" y1="370.51" x2="60.15" y2="370.51"/><line class="cls-3" x1="48.63" y1="362.41" x2="48.65" y2="370"/><line class="cls-3" x1="53.63" y1="362.41" x2="53.65" y2="370"/><line class="cls-3" x1="58.63" y1="362.41" x2="58.65" y2="370"/><line class="cls-2" x1="149.91" y1="318.04" x2="149.91" y2="332.98"/><line class="cls-2" x1="140.91" y1="318.04" x2="140.91" y2="358"/><g class="cls-7"><text class="cls-8" transform="translate(154.21 362.98)">3</text><text class="cls-9" transform="translate(158.37 362.98)">’</text></g><path class="cls-2" d="M140.91,358a4,4,0,0,1-4,3.9"/><path class="cls-2" d="M140.91,318c0-3.73,9-3.73,9,0"/><line class="cls-3" x1="41.91" y1="277.66" x2="49.67" y2="277.65"/><line class="cls-3" x1="41.92" y1="282.24" x2="49.68" y2="282.23"/><path class="cls-4" d="M41.58,274.84c0,3.4,0,6.8,0,10.21"/><path class="cls-4" d="M50,274.83l0,10.34"/><rect class="cls-5" x="42.19" y="283.23" width="7.28" height="8.96" transform="translate(-0.54 0.09) rotate(-0.11)"/><path class="cls-4" d="M122.6,282.71a8.33,8.33,0,1,1-8.35-8.31h0A8.33,8.33,0,0,1,122.6,282.71Z"/><polygon class="cls-5" points="110.79 273.75 118.19 273.74 118.2 278.4 110.81 278.4 110.79 273.75"/><rect class="cls-5" x="110.91" y="285" width="7.48" height="6.77" transform="translate(-0.4 0.16) rotate(-0.08)"/><path class="cls-4" d="M121.7,302.57c0,2-3.17,3.57-7.11,3.57s-7.14-1.59-7.15-3.56,3.18-3.56,7.12-3.57h0C118.5,299,121.69,300.6,121.7,302.57Z"/><line class="cls-3" x1="110.79" y1="292.49" x2="118.55" y2="292.48"/><line class="cls-3" x1="110.8" y1="297.08" x2="118.55" y2="297.06"/><path class="cls-4" d="M110.46,289.62c0,3.4,0,6.8,0,10.21"/><path class="cls-4" d="M118.91,289.61l0,10.34"/><rect class="cls-5" x="111.07" y="298.01" width="7.28" height="8.96" transform="translate(-0.57 0.22) rotate(-0.11)"/><line class="cls-10" x1="68.59" y1="283.22" x2="103.17" y2="283.22"/><line class="cls-10" x1="49.34" y1="347.3" x2="68.59" y2="347.3"/><line class="cls-10" x1="55.64" y1="268.88" x2="73.98" y2="268.88"/><line class="cls-10" x1="73.98" y1="354.63" x2="108.56" y2="354.63"/><line class="cls-10" x1="68.59" y1="283.22" x2="68.59" y2="347.35"/><line class="cls-10" x1="73.98" y1="268.88" x2="73.98" y2="354.63"/><text class="cls-6" transform="translate(61.56 372.25)">5<tspan class="cls-11" x="3.34" y="0">’</tspan></text><text class="cls-6" transform="translate(87.6 281.38)">α</text><text class="cls-6" transform="translate(63.23 267.08)">β</text><line class="cls-1" x1="140.91" y1="318.04" x2="140.91" y2="349.96"/><path class="cls-1" d="M350.83,333.83a13.52,13.52,0,0,1-13.52,13.52"/><path class="cls-2" d="M337.31,347.35a13.52,13.52,0,1,1,13.52-13.52"/><line class="cls-3" x1="334.64" y1="265.52" x2="342.4" y2="265.5"/><line class="cls-3" x1="334.64" y1="270.1" x2="342.4" y2="270.09"/><path class="cls-4" d="M334.29,260.59q0,7.29,0,14.56"/><path class="cls-4" d="M342.76,260.58l-.06,14.95"/><path class="cls-4" d="M345.41,255.06a7.14,7.14,0,1,1-7.15-7.13,7.14,7.14,0,0,1,7.15,7.13Z"/><rect class="cls-5" x="334.91" y="256.07" width="7.15" height="8.11" transform="translate(-0.45 0.59) rotate(-0.1)"/><line class="cls-3" x1="334.82" y1="310.02" x2="342.41" y2="310.01"/><line class="cls-3" x1="334.83" y1="314.53" x2="342.42" y2="314.51"/><path class="cls-4" d="M334.49,305.2q0,7.55,0,15.11"/><path class="cls-4" d="M342.77,305.18l0,15.53"/><rect class="cls-5" x="334.99" y="342.41" width="7.29" height="6.17" transform="translate(-0.59 0.58) rotate(-0.1)"/><rect class="cls-5" x="334.99" y="317.41" width="7.15" height="6.17" transform="translate(-0.56 0.59) rotate(-0.1)"/><line class="cls-3" x1="316.25" y1="319.85" x2="321.82" y2="314.44"/><line class="cls-3" x1="319.45" y1="323.14" x2="325.01" y2="317.73"/><path class="cls-4" d="M312.58,316.55,325,329.42"/><path class="cls-4" d="M318.65,310.65l11,11.41"/><path class="cls-4" d="M316.72,304.84a7.14,7.14,0,1,1-10.1-.14,7.14,7.14,0,0,1,10.1.14Z"/><rect class="cls-5" x="311.7" y="309.24" width="7.15" height="8.11" transform="translate(-129.17 308.25) rotate(-44.17)"/><rect class="cls-5" x="323.6" y="322.48" width="7.15" height="6.17" transform="translate(-134.38 323.24) rotate(-44.57)"/><line class="cls-3" x1="265.91" y1="248.66" x2="273.67" y2="248.65"/><line class="cls-3" x1="265.92" y1="258.24" x2="273.68" y2="258.23"/><line class="cls-3" x1="265.92" y1="253.24" x2="273.68" y2="253.23"/><path class="cls-4" d="M265.58,243.75q0,8.44,0,16.9"/><path class="cls-4" d="M274,243.73l0,17.12"/><path class="cls-4" d="M278.07,267.93a8.33,8.33,0,1,1-8.35-8.31h0A8.32,8.32,0,0,1,278.07,267.93Z"/><rect class="cls-5" x="266.18" y="258.97" width="7.14" height="8.1" transform="translate(-0.46 0.47) rotate(-0.1)"/><rect class="cls-5" x="266.19" y="270.22" width="7.14" height="6.77" transform="translate(-0.4 0.39) rotate(-0.08)"/><path class="cls-4" d="M276.82,287.79c0,2-3.17,3.57-7.11,3.57s-7.14-1.59-7.15-3.56,3.18-3.56,7.12-3.57h0C273.62,284.23,276.81,285.82,276.82,287.79Z"/><path class="cls-4" d="M276.68,238.22a7.14,7.14,0,1,1-7.15-7.12h0A7.15,7.15,0,0,1,276.68,238.22Z"/><rect class="cls-5" x="266.19" y="239.23" width="7.14" height="8.1" transform="translate(-0.42 0.47) rotate(-0.1)"/><line class="cls-3" x1="266.1" y1="293.09" x2="273.69" y2="293.08"/><line class="cls-3" x1="266.1" y1="298.09" x2="273.69" y2="298.08"/><line class="cls-3" x1="266.1" y1="303.09" x2="273.69" y2="303.08"/><line class="cls-3" x1="266.11" y1="307.59" x2="273.69" y2="307.58"/><path class="cls-4" d="M265.77,290.36l0,21.71"/><path class="cls-4" d="M274,290.33q0,11.71,0,23.43"/><circle class="cls-2" cx="266.54" cy="325.06" r="13.52"/><rect class="cls-5" x="266.28" y="310.48" width="7.14" height="6.16" transform="translate(-0.55 0.47) rotate(-0.1)"/><line class="cls-3" x1="246.26" y1="311.71" x2="251.82" y2="306.31"/><line class="cls-3" x1="249.46" y1="315" x2="255.02" y2="309.59"/><path class="cls-4" d="M242.6,308.41l11.55,12"/><path class="cls-4" d="M248.67,302.53l11,11.39"/><path class="cls-4" d="M246.73,296.72a7.13,7.13,0,1,1-10.08-.14A7.13,7.13,0,0,1,246.73,296.72Z"/><rect class="cls-5" x="241.71" y="301.12" width="7.14" height="8.1" transform="translate(-143.29 257.19) rotate(-44.17)"/><rect class="cls-5" x="253.61" y="314.36" width="7.14" height="6.16" transform="translate(-148.81 271.78) rotate(-44.57)"/><path class="cls-1" d="M342.87,361.9l0-15.87"/><line class="cls-3" x1="334.85" y1="359.14" x2="342.44" y2="359.13"/><line class="cls-3" x1="334.85" y1="354.14" x2="342.44" y2="354.13"/><line class="cls-3" x1="334.85" y1="349.14" x2="342.44" y2="349.13"/><path class="cls-4" d="M271.09,361.9l.07-24"/><path class="cls-4" d="M262.55,362q0-12.06.07-24.13"/><rect class="cls-5" x="263.31" y="334.89" width="7.14" height="6.16" transform="translate(-0.59 0.47) rotate(-0.1)"/><text class="cls-6" transform="translate(372.07 333.35) rotate(90)">UUUUUU</text><line class="cls-3" x1="263.09" y1="357.14" x2="270.68" y2="357.13"/><line class="cls-3" x1="263.09" y1="352.14" x2="270.68" y2="352.13"/><line class="cls-3" x1="263.09" y1="342.14" x2="270.68" y2="342.13"/><line class="cls-3" x1="263.09" y1="347.14" x2="270.68" y2="347.13"/><path class="cls-4" d="M334.32,361.9q0-7.66.07-15.33"/><line class="cls-2" x1="342.61" y1="361.9" x2="360.89" y2="361.9"/><line class="cls-2" x1="270.61" y1="361.9" x2="334.76" y2="361.9"/><path class="cls-4" d="M263.09,370.51a4.31,4.31,0,0,1-4.31-4.31h0a4.3,4.3,0,0,1,4.31-4.3"/><line class="cls-2" x1="263.09" y1="370.51" x2="284.15" y2="370.51"/><line class="cls-3" x1="272.63" y1="362.41" x2="272.65" y2="370"/><line class="cls-3" x1="277.63" y1="362.41" x2="277.65" y2="370"/><line class="cls-3" x1="282.63" y1="362.41" x2="282.65" y2="370"/><line class="cls-2" x1="373.91" y1="318.04" x2="373.91" y2="332.98"/><line class="cls-2" x1="364.91" y1="318.04" x2="364.91" y2="358"/><g class="cls-7"><text class="cls-8" transform="translate(378.21 362.98)">3</text><text class="cls-9" transform="translate(382.37 362.98)">’</text></g><path class="cls-2" d="M364.91,358a4,4,0,0,1-4,3.9"/><path class="cls-2" d="M364.91,318c0-3.73,9-3.73,9,0"/><line class="cls-3" x1="265.91" y1="277.66" x2="273.67" y2="277.65"/><line class="cls-3" x1="265.92" y1="282.24" x2="273.68" y2="282.23"/><path class="cls-4" d="M265.58,274.84c0,3.4,0,6.8,0,10.21"/><path class="cls-4" d="M274,274.83l0,10.34"/><rect class="cls-5" x="266.19" y="283.23" width="7.28" height="8.96" transform="translate(-0.54 0.51) rotate(-0.11)"/><path class="cls-12" d="M265,287.8c0-1.38,2-2.49,4.51-2.49s4.5,1.12,4.5,2.49-2,2.48-4.5,2.48S265,289.17,265,287.8"/><path class="cls-4" d="M346.6,282.71a8.33,8.33,0,1,1-8.35-8.31h0A8.33,8.33,0,0,1,346.6,282.71Z"/><polygon class="cls-5" points="334.79 273.75 342.19 273.74 342.2 278.4 334.81 278.4 334.79 273.75"/><rect class="cls-5" x="334.91" y="285" width="7.48" height="6.77" transform="translate(-0.4 0.47) rotate(-0.08)"/><path class="cls-4" d="M345.7,302.57c0,2-3.17,3.57-7.11,3.57s-7.14-1.59-7.15-3.56,3.18-3.56,7.12-3.57h0C342.5,299,345.69,300.6,345.7,302.57Z"/><line class="cls-3" x1="334.79" y1="292.49" x2="342.55" y2="292.48"/><line class="cls-3" x1="334.8" y1="297.08" x2="342.55" y2="297.06"/><path class="cls-4" d="M334.46,289.62c0,3.4,0,6.8,0,10.21"/><path class="cls-4" d="M342.91,289.61l0,10.34"/><rect class="cls-5" x="335.07" y="298.01" width="7.28" height="8.96" transform="translate(-0.57 0.64) rotate(-0.11)"/><line class="cls-10" x1="292.59" y1="283.22" x2="327.17" y2="283.22"/><line class="cls-10" x1="273.34" y1="347.3" x2="292.59" y2="347.3"/><line class="cls-10" x1="279.64" y1="268.88" x2="297.98" y2="268.88"/><line class="cls-10" x1="297.98" y1="354.63" x2="332.56" y2="354.63"/><line class="cls-10" x1="292.59" y1="283.22" x2="292.59" y2="347.35"/><line class="cls-10" x1="297.98" y1="268.88" x2="297.98" y2="354.63"/><text class="cls-6" transform="translate(285.56 372.25)">5<tspan class="cls-11" x="3.34" y="0">’</tspan></text><text class="cls-6" transform="translate(311.6 281.38)">α</text><text class="cls-6" transform="translate(287.23 267.08)">β</text><line class="cls-1" x1="364.91" y1="318.04" x2="364.91" y2="349.96"/><path class="cls-1" d="M350.83,132.83a13.52,13.52,0,0,1-13.52,13.52"/><path class="cls-2" d="M337.31,146.35a13.52,13.52,0,1,1,13.52-13.52"/><line class="cls-3" x1="334.64" y1="64.52" x2="342.4" y2="64.5"/><line class="cls-3" x1="334.64" y1="69.1" x2="342.4" y2="69.09"/><path class="cls-4" d="M334.29,59.59q0,7.29,0,14.56"/><path class="cls-4" d="M342.76,59.58l-.06,15"/><path class="cls-4" d="M345.41,54.06a7.14,7.14,0,1,1-7.15-7.13,7.14,7.14,0,0,1,7.15,7.13Z"/><rect class="cls-5" x="334.91" y="55.07" width="7.15" height="8.11" transform="translate(-0.1 0.59) rotate(-0.1)"/><line class="cls-3" x1="334.82" y1="109.02" x2="342.41" y2="109.01"/><line class="cls-3" x1="334.83" y1="113.53" x2="342.42" y2="113.51"/><path class="cls-4" d="M334.49,104.2q0,7.55,0,15.11"/><path class="cls-4" d="M342.77,104.18l0,15.53"/><rect class="cls-5" x="334.99" y="141.41" width="7.29" height="6.17" transform="translate(-0.25 0.58) rotate(-0.1)"/><rect class="cls-5" x="334.99" y="116.41" width="7.15" height="6.17" transform="translate(-0.21 0.59) rotate(-0.1)"/><line class="cls-3" x1="316.25" y1="118.85" x2="321.82" y2="113.44"/><line class="cls-3" x1="319.45" y1="122.14" x2="325.01" y2="116.73"/><path class="cls-4" d="M312.58,115.55,325,128.42"/><path class="cls-4" d="M318.65,109.65l11,11.41"/><path class="cls-4" d="M316.72,103.84a7.14,7.14,0,1,1-10.1-.14,7.14,7.14,0,0,1,10.1.14Z"/><rect class="cls-5" x="311.7" y="108.24" width="7.15" height="8.11" transform="translate(10.89 251.42) rotate(-44.17)"/><rect class="cls-5" x="323.6" y="121.48" width="7.15" height="6.17" transform="translate(6.68 265.43) rotate(-44.57)"/><line class="cls-3" x1="265.91" y1="47.66" x2="273.67" y2="47.65"/><line class="cls-3" x1="265.92" y1="57.24" x2="273.68" y2="57.23"/><line class="cls-3" x1="265.92" y1="52.24" x2="273.68" y2="52.23"/><path class="cls-4" d="M265.58,42.75q0,8.45,0,16.9"/><path class="cls-4" d="M274,42.73l0,17.12"/><path class="cls-4" d="M278.07,66.93a8.33,8.33,0,1,1-8.35-8.31h0A8.32,8.32,0,0,1,278.07,66.93Z"/><rect class="cls-5" x="266.18" y="57.97" width="7.14" height="8.1" transform="translate(-0.11 0.47) rotate(-0.1)"/><rect class="cls-5" x="266.19" y="69.22" width="7.14" height="6.77" transform="translate(-0.11 0.39) rotate(-0.08)"/><path class="cls-4" d="M276.82,86.79c0,2-3.17,3.57-7.11,3.57s-7.14-1.59-7.15-3.56,3.18-3.56,7.12-3.57h0C273.62,83.23,276.81,84.82,276.82,86.79Z"/><path class="cls-4" d="M276.68,37.22a7.14,7.14,0,1,1-7.15-7.12h0A7.15,7.15,0,0,1,276.68,37.22Z"/><rect class="cls-5" x="266.19" y="38.23" width="7.14" height="8.1" transform="translate(-0.07 0.47) rotate(-0.1)"/><line class="cls-3" x1="266.1" y1="92.09" x2="273.69" y2="92.08"/><line class="cls-3" x1="266.1" y1="97.09" x2="273.69" y2="97.08"/><line class="cls-3" x1="266.1" y1="102.09" x2="273.69" y2="102.08"/><line class="cls-3" x1="266.11" y1="106.59" x2="273.69" y2="106.58"/><path class="cls-4" d="M265.77,89.36l0,21.71"/><path class="cls-4" d="M274,89.33q0,11.72,0,23.43"/><circle class="cls-2" cx="266.54" cy="124.06" r="13.52"/><rect class="cls-5" x="266.28" y="109.48" width="7.14" height="6.16" transform="translate(-0.2 0.47) rotate(-0.1)"/><line class="cls-3" x1="246.26" y1="110.71" x2="251.82" y2="105.31"/><line class="cls-3" x1="249.46" y1="114" x2="255.02" y2="108.59"/><path class="cls-4" d="M242.6,107.41l11.55,12"/><path class="cls-4" d="M248.67,101.53l11,11.39"/><path class="cls-4" d="M246.73,95.72a7.13,7.13,0,1,1-10.08-.14A7.13,7.13,0,0,1,246.73,95.72Z"/><rect class="cls-5" x="241.71" y="100.12" width="7.14" height="8.1" transform="translate(-3.24 200.36) rotate(-44.17)"/><rect class="cls-5" x="253.61" y="113.36" width="7.14" height="6.16" transform="translate(-7.75 213.97) rotate(-44.57)"/><path class="cls-1" d="M342.87,160.9l0-15.87"/><line class="cls-3" x1="334.85" y1="158.14" x2="342.44" y2="158.13"/><line class="cls-3" x1="334.85" y1="153.14" x2="342.44" y2="153.13"/><line class="cls-3" x1="334.85" y1="148.14" x2="342.44" y2="148.13"/><path class="cls-4" d="M271.09,160.9l.07-24"/><path class="cls-4" d="M262.55,161q0-12.06.07-24.13"/><rect class="cls-5" x="263.31" y="133.89" width="7.14" height="6.16" transform="translate(-0.24 0.47) rotate(-0.1)"/><text class="cls-6" transform="translate(372.07 132.35) rotate(90)">UUUUUU</text><line class="cls-3" x1="263.09" y1="156.14" x2="270.68" y2="156.13"/><line class="cls-3" x1="263.09" y1="151.14" x2="270.68" y2="151.13"/><line class="cls-3" x1="263.09" y1="141.14" x2="270.68" y2="141.13"/><line class="cls-3" x1="263.09" y1="146.14" x2="270.68" y2="146.13"/><path class="cls-4" d="M334.32,160.9q0-7.67.07-15.33"/><line class="cls-2" x1="342.61" y1="160.9" x2="360.89" y2="160.9"/><line class="cls-2" x1="270.61" y1="160.9" x2="334.76" y2="160.9"/><path class="cls-4" d="M263.09,169.51a4.31,4.31,0,0,1-4.31-4.31h0a4.3,4.3,0,0,1,4.31-4.3"/><line class="cls-2" x1="263.09" y1="169.51" x2="284.15" y2="169.51"/><line class="cls-3" x1="272.63" y1="161.41" x2="272.65" y2="169"/><line class="cls-3" x1="277.63" y1="161.41" x2="277.65" y2="169"/><line class="cls-3" x1="282.63" y1="161.41" x2="282.65" y2="169"/><circle class="cls-2" cx="114.31" cy="132.83" r="13.52"/><text class="cls-13" transform="translate(290.5 388.37)">ON</text><text class="cls-14" transform="translate(67.52 23.37)">OFF</text><text class="cls-15" transform="translate(13.54 24.33)">A</text><text class="cls-16" transform="translate(413.5 24.33)">B</text><line class="cls-3" x1="111.64" y1="64.52" x2="119.4" y2="64.5"/><line class="cls-3" x1="111.64" y1="69.1" x2="119.4" y2="69.09"/><path class="cls-4" d="M111.29,59.59q0,7.71,0,15.41"/><path class="cls-4" d="M119.76,59.58l-.06,15.83"/><path class="cls-4" d="M122.41,54.06a7.14,7.14,0,1,1-7.15-7.13,7.14,7.14,0,0,1,7.15,7.13Z"/><rect class="cls-5" x="111.91" y="55.07" width="7.15" height="8.11" transform="translate(-0.1 0.2) rotate(-0.1)"/><line class="cls-3" x1="111.82" y1="109.02" x2="119.41" y2="109.01"/><line class="cls-3" x1="111.83" y1="113.53" x2="119.42" y2="113.51"/><path class="cls-4" d="M111.49,104.2q0,7.55,0,15.11"/><path class="cls-4" d="M119.77,104.18l0,15.53"/><rect class="cls-5" x="111.99" y="116.41" width="7.15" height="6.17" transform="translate(-0.21 0.2) rotate(-0.1)"/><line class="cls-3" x1="93.25" y1="118.85" x2="98.82" y2="113.44"/><line class="cls-3" x1="96.45" y1="122.14" x2="102.01" y2="116.73"/><path class="cls-4" d="M89.58,115.55,102,128.42"/><path class="cls-4" d="M95.65,109.65l11,11.41"/><path class="cls-4" d="M93.72,103.84a7.14,7.14,0,1,1-10.1-.14,7.14,7.14,0,0,1,10.1.14Z"/><rect class="cls-5" x="88.7" y="108.24" width="7.15" height="8.11" transform="translate(-52.16 96.04) rotate(-44.17)"/><rect class="cls-5" x="100.6" y="121.48" width="7.15" height="6.17" transform="translate(-57.46 108.93) rotate(-44.57)"/><rect class="cls-5" x="111.99" y="122.67" width="24.19" height="28.45"/><line class="cls-2" x1="144.35" y1="121.99" x2="149.55" y2="121.99"/><line class="cls-2" x1="122.35" y1="121.99" x2="136.28" y2="121.99"/><path class="cls-1" d="M144.47,158l.07-35.88"/><path class="cls-1" d="M136,158q0-18.09.08-36.19"/><path class="cls-4" d="M133.33,164.1a7.14,7.14,0,1,1,7.14,7.15,7.14,7.14,0,0,1-7.14-7.15Z"/><rect class="cls-5" x="136.71" y="155" width="7.15" height="8.11"/><line class="cls-3" x1="42.91" y1="47.66" x2="50.67" y2="47.65"/><line class="cls-3" x1="42.92" y1="52.24" x2="50.68" y2="52.23"/><path class="cls-4" d="M42.58,42.75q0,7.8,0,15.6"/><path class="cls-4" d="M51,42.73l0,15.81"/><path class="cls-4" d="M53.68,37.22a7.14,7.14,0,1,1-7.15-7.12h0A7.15,7.15,0,0,1,53.68,37.22Z"/><rect class="cls-5" x="43.19" y="38.23" width="7.14" height="8.1" transform="translate(-0.07 0.08) rotate(-0.1)"/><line class="cls-3" x1="43.1" y1="102.09" x2="50.69" y2="102.08"/><line class="cls-3" x1="43.11" y1="106.59" x2="50.69" y2="106.58"/><path class="cls-4" d="M42.77,97.27l0,13.44"/><path class="cls-4" d="M51,97.25q0,7.75,0,15.51"/><circle class="cls-2" cx="43.54" cy="124.06" r="13.52"/><rect class="cls-5" x="43.28" y="109.48" width="7.14" height="6.16" transform="translate(-0.2 0.08) rotate(-0.1)"/><line class="cls-3" x1="23.26" y1="110.71" x2="28.82" y2="105.31"/><line class="cls-3" x1="26.46" y1="114" x2="32.02" y2="108.59"/><path class="cls-4" d="M19.6,107.41l11.55,12"/><path class="cls-4" d="M25.67,101.53l11,11.39"/><path class="cls-4" d="M23.73,95.72a7.13,7.13,0,1,1-10.08-.14A7.13,7.13,0,0,1,23.73,95.72Z"/><rect class="cls-5" x="18.71" y="100.12" width="7.14" height="8.1" transform="translate(-66.29 44.98) rotate(-44.17)"/><rect class="cls-5" x="30.61" y="113.36" width="7.14" height="6.16" transform="translate(-71.88 57.47) rotate(-44.57)"/><path class="cls-4" d="M48.09,160.9l.07-24"/><path class="cls-4" d="M39.55,161q0-12.06.07-24.13"/><rect class="cls-5" x="40.31" y="133.89" width="7.14" height="6.16" transform="translate(-0.24 0.08) rotate(-0.1)"/><path class="cls-17" d="M111.54,104.27c-9.1-7-8.16-23.46.23-29.87"/><path class="cls-17" d="M119.91,104.27c9.09-7,8.16-23.46-.23-29.87"/><path class="cls-17" d="M42.54,97.27c-9.1-9.1-8.16-30.75.23-39.14"/><path class="cls-17" d="M50.91,97.27c9.09-9.1,8.16-30.75-.23-39.14"/><line class="cls-3" x1="136.49" y1="154.4" x2="144.08" y2="154.38"/><line class="cls-3" x1="136.49" y1="149.4" x2="144.08" y2="149.38"/><line class="cls-3" x1="136.49" y1="144.4" x2="144.08" y2="144.38"/><line class="cls-3" x1="136.49" y1="139.4" x2="144.08" y2="139.38"/><line class="cls-3" x1="136.49" y1="134.4" x2="144.08" y2="134.38"/><line class="cls-3" x1="136.49" y1="124.4" x2="144.08" y2="124.38"/><line class="cls-3" x1="136.49" y1="129.4" x2="144.08" y2="129.38"/><text class="cls-6" transform="translate(150.46 124.38)"><tspan xml:space="preserve">UUU  3</tspan><tspan class="cls-11" x="19.67" y="0">’</tspan></text><line class="cls-3" x1="40.09" y1="156.14" x2="47.68" y2="156.13"/><line class="cls-3" x1="40.09" y1="151.14" x2="47.68" y2="151.13"/><line class="cls-3" x1="40.09" y1="141.14" x2="47.68" y2="141.13"/><line class="cls-3" x1="40.09" y1="146.14" x2="47.68" y2="146.13"/><path class="cls-4" d="M111.32,160.9q0-7.67.07-15.33"/><line class="cls-2" x1="47.61" y1="160.9" x2="111.76" y2="160.9"/><path class="cls-4" d="M40.09,169.51a4.31,4.31,0,0,1-4.31-4.31h0a4.3,4.3,0,0,1,4.31-4.3"/><line class="cls-2" x1="40.09" y1="169.51" x2="61.15" y2="169.51"/><line class="cls-3" x1="49.63" y1="161.41" x2="49.65" y2="169"/><line class="cls-3" x1="54.63" y1="161.41" x2="54.65" y2="169"/><line class="cls-3" x1="59.63" y1="161.41" x2="59.65" y2="169"/><line class="cls-2" x1="373.91" y1="117.04" x2="373.91" y2="131.98"/><line class="cls-2" x1="364.91" y1="117.04" x2="364.91" y2="157"/><g class="cls-7"><text class="cls-8" transform="translate(378.21 161.98)">3</text><text class="cls-9" transform="translate(382.37 161.98)">’</text></g><path class="cls-2" d="M364.91,157a4,4,0,0,1-4,3.9"/><path class="cls-2" d="M364.91,117c0-3.73,9-3.73,9,0"/><line class="cls-18" x1="604.21" y1="315.99" x2="630.23" y2="315.99"/><polygon class="cls-19" points="628.74 318.17 636.87 316 628.74 313.82 628.74 318.17"/><path class="cls-18" d="M613.72,302.49c0,13.95,7.73,13.5,14.55,13.5"/><path class="cls-12" d="M600,287.56c0-4.18,6.14-7.56,13.71-7.56s13.72,3.39,13.72,7.56-6.14,7.57-13.72,7.57S600,291.74,600,287.56"/><text class="cls-20" transform="translate(605.59 290.62)">TP<tspan class="cls-21" x="12.78" y="0">P</tspan></text><line class="cls-18" x1="595.21" y1="121.99" x2="621.23" y2="121.99"/><polygon class="cls-19" points="619.74 124.17 627.87 122 619.74 119.82 619.74 124.17"/><path class="cls-18" d="M604.72,108.49c0,14,7.73,13.5,14.55,13.5"/><path class="cls-12" d="M591,93.56c0-4.18,6.14-7.56,13.71-7.56s13.72,3.39,13.72,7.56-6.14,7.57-13.72,7.57S591,97.74,591,93.56"/><text class="cls-20" transform="translate(596.59 96.62)">TP<tspan class="cls-21" x="12.78" y="0">P</tspan></text><line class="cls-18" x1="187.21" y1="315.99" x2="213.23" y2="315.99"/><polygon class="cls-19" points="211.74 318.17 219.87 316 211.74 313.82 211.74 318.17"/><path class="cls-18" d="M196.72,302.49c0,13.95,7.73,13.5,14.55,13.5"/><path class="cls-12" d="M183,287.56c0-4.18,6.14-7.56,13.71-7.56s13.72,3.39,13.72,7.56-6.14,7.57-13.72,7.57S183,291.74,183,287.56"/><text class="cls-20" transform="translate(188.59 290.62)">Gly</text><line class="cls-18" x1="187.21" y1="121.99" x2="213.23" y2="121.99"/><polygon class="cls-19" points="211.74 124.17 219.87 122 211.74 119.82 211.74 124.17"/><path class="cls-18" d="M196.72,108.49c0,14,7.73,13.5,14.55,13.5"/><path class="cls-12" d="M183,93.56c0-4.18,6.14-7.56,13.71-7.56s13.72,3.39,13.72,7.56-6.14,7.57-13.72,7.57S183,97.74,183,93.56"/><text class="cls-20" transform="translate(188.59 96.62)">Gly</text><line class="cls-3" x1="265.91" y1="76.66" x2="273.67" y2="76.65"/><line class="cls-3" x1="265.92" y1="81.24" x2="273.68" y2="81.23"/><path class="cls-4" d="M265.58,73.84c0,3.4,0,6.8,0,10.21"/><path class="cls-4" d="M274,73.83l0,10.34"/><rect class="cls-5" x="266.19" y="82.23" width="7.28" height="8.96" transform="translate(-0.16 0.51) rotate(-0.11)"/><path class="cls-12" d="M265,86.8c0-1.38,2-2.49,4.51-2.49s4.5,1.12,4.5,2.49-2,2.48-4.5,2.48S265,88.17,265,86.8"/><path class="cls-4" d="M346.6,81.71a8.33,8.33,0,1,1-8.35-8.31h0A8.33,8.33,0,0,1,346.6,81.71Z"/><polygon class="cls-5" points="334.79 72.75 342.19 72.74 342.2 77.4 334.81 77.4 334.79 72.75"/><rect class="cls-5" x="334.91" y="84" width="7.48" height="6.77" transform="translate(-0.12 0.47) rotate(-0.08)"/><path class="cls-4" d="M345.7,101.57c0,2-3.17,3.57-7.11,3.57s-7.14-1.59-7.15-3.56S334.62,98,338.56,98h0C342.5,98,345.69,99.6,345.7,101.57Z"/><line class="cls-3" x1="334.79" y1="91.49" x2="342.55" y2="91.48"/><line class="cls-3" x1="334.8" y1="96.08" x2="342.55" y2="96.06"/><path class="cls-4" d="M334.46,88.62c0,3.4,0,6.8,0,10.21"/><path class="cls-4" d="M342.91,88.61l0,10.34"/><rect class="cls-5" x="335.07" y="97.01" width="7.28" height="8.96" transform="translate(-0.19 0.64) rotate(-0.11)"/><line class="cls-10" x1="292.59" y1="82.22" x2="327.17" y2="82.22"/><line class="cls-10" x1="273.34" y1="146.3" x2="292.59" y2="146.3"/><line class="cls-10" x1="279.64" y1="67.88" x2="297.98" y2="67.88"/><line class="cls-10" x1="297.98" y1="153.63" x2="332.56" y2="153.63"/><line class="cls-10" x1="292.59" y1="82.22" x2="292.59" y2="146.35"/><line class="cls-10" x1="297.98" y1="67.88" x2="297.98" y2="153.63"/><text class="cls-6" transform="translate(285.56 171.25)">5<tspan class="cls-11" x="3.34" y="0">’</tspan></text><text class="cls-6" transform="translate(63.24 171.25)">5<tspan class="cls-11" x="3.34" y="0">’</tspan></text><text class="cls-6" transform="translate(311.6 80.38)">α</text><text class="cls-6" transform="translate(287.23 66.08)">β</text><line class="cls-1" x1="364.91" y1="117.04" x2="364.91" y2="148.96"/><line class="cls-18" x1="492.98" y1="188.43" x2="492.98" y2="214.44"/><polygon class="cls-19" points="490.8 212.95 492.98 221.08 495.16 212.95 490.8 212.95"/><path class="cls-18" d="M518.21,200.15c-14,0-25.23,5.52-25.23,12.33"/><line class="cls-18" x1="678.98" y1="188.43" x2="678.98" y2="214.44"/><polygon class="cls-19" points="676.8 212.95 678.98 221.08 681.16 212.95 676.8 212.95"/><path class="cls-18" d="M704.21,200.15c-14,0-25.23,5.52-25.23,12.33"/><path class="cls-12" d="M707.37,200.93c0-4.18,6.14-7.56,13.72-7.56s13.71,3.39,13.71,7.56-6.13,7.57-13.71,7.57-13.72-3.39-13.72-7.57"/><text class="cls-20" transform="translate(712.95 204)">TP<tspan class="cls-21" x="12.78" y="0">P</tspan></text><path class="cls-12" d="M520.37,200.93c0-4.18,6.14-7.56,13.72-7.56s13.71,3.39,13.71,7.56-6.13,7.57-13.71,7.57-13.72-3.39-13.72-7.57"/><text class="cls-20" transform="translate(525.95 204)">TP<tspan class="cls-21" x="12.78" y="0">P</tspan></text><line class="cls-18" x1="63.98" y1="188.43" x2="63.98" y2="214.44"/><polygon class="cls-19" points="61.8 212.95 63.98 221.08 66.16 212.95 61.8 212.95"/><path class="cls-18" d="M89.21,200.15c-13.95,0-25.23,5.52-25.23,12.33"/><line class="cls-18" x1="288.98" y1="188.43" x2="288.98" y2="214.44"/><polygon class="cls-19" points="286.8 212.95 288.98 221.08 291.16 212.95 286.8 212.95"/><path class="cls-18" d="M314.21,200.15c-13.95,0-25.23,5.52-25.23,12.33"/><path class="cls-12" d="M317.37,200.93c0-4.18,6.14-7.56,13.72-7.56s13.71,3.39,13.71,7.56-6.13,7.57-13.71,7.57-13.72-3.39-13.72-7.57"/><text class="cls-20" transform="translate(322.95 204)">Gly</text><path class="cls-12" d="M91.37,200.93c0-4.18,6.14-7.56,13.72-7.56s13.71,3.39,13.71,7.56-6.13,7.57-13.71,7.57-13.72-3.39-13.72-7.57"/><text class="cls-20" transform="translate(96.95 204)">Gly</text><path class="cls-12" d="M334,302.48c0-1.37,2-2.48,4.5-2.48s4.5,1.11,4.5,2.48-2,2.49-4.5,2.49-4.5-1.11-4.5-2.49"/><path class="cls-12" d="M110,302.48c0-1.37,2-2.48,4.5-2.48s4.5,1.11,4.5,2.48-2,2.49-4.5,2.49-4.5-1.11-4.5-2.49"/><text class="cls-13" transform="translate(67.52 388.37)">ON</text><text class="cls-13" transform="translate(290.5 23.37)">ON</text><circle class="cls-2" cx="654.73" cy="310.2" r="10.45"/><circle class="cls-2" cx="654.73" cy="350.2" r="10.45"/><line class="cls-3" x1="641.8" y1="346.46" x2="641.85" y2="354.04"/><line class="cls-3" x1="636.8" y1="346.46" x2="636.85" y2="354.04"/><line class="cls-3" x1="631.8" y1="346.46" x2="631.85" y2="354.04"/><path class="cls-4" d="M645.33,346l-16.47,0"/><path class="cls-4" d="M645.39,354.31q-8.26,0-16.52,0"/><line class="cls-3" x1="683.82" y1="306.4" x2="683.83" y2="313.98"/><line class="cls-3" x1="678.82" y1="306.4" x2="678.83" y2="313.98"/><line class="cls-3" x1="673.82" y1="306.38" x2="673.83" y2="313.96"/><line class="cls-3" x1="668.82" y1="306.35" x2="668.83" y2="313.93"/><path class="cls-4" d="M719.28,306l-6.15,0"/><path class="cls-4" d="M702.42,306l-4.29,0"/><path class="cls-4" d="M690.26,306l-25.92,0"/><path class="cls-4" d="M688.93,314.28q-12.31,0-24.63,0"/><rect class="cls-5" x="660.11" y="306.29" width="7.11" height="7.48" transform="translate(351.21 972.56) rotate(-89.79)"/><line class="cls-3" x1="678.8" y1="346.46" x2="678.85" y2="354.04"/><line class="cls-3" x1="673.8" y1="346.46" x2="673.85" y2="354.04"/><line class="cls-3" x1="668.8" y1="346.46" x2="668.85" y2="354.04"/><path class="cls-4" d="M682.6,346.05l-18.29.06"/><path class="cls-4" d="M682.66,354.32q-9.17,0-18.34.05"/><rect class="cls-5" x="659.93" y="346.61" width="7.48" height="7.11" transform="translate(-0.51 0.97) rotate(-0.08)"/><rect class="cls-5" x="642.93" y="346.61" width="7.48" height="7.11" transform="translate(-0.51 0.95) rotate(-0.08)"/><path class="cls-4" d="M630.44,350.53a7.15,7.15,0,1,1-7.16-7.13,7.14,7.14,0,0,1,7.16,7.13Z"/><path class="cls-4" d="M695.73,350.16a7.15,7.15,0,1,1-7.16-7.13,7.15,7.15,0,0,1,7.16,7.13Z"/><rect class="cls-5" x="623.93" y="346.61" width="7.48" height="7.11" transform="translate(-0.51 0.92) rotate(-0.08)"/><rect class="cls-5" x="679.93" y="346.61" width="7.48" height="7.11" transform="translate(-0.51 1) rotate(-0.08)"/><line class="cls-3" x1="650.86" y1="281.66" x2="658.61" y2="281.65"/><line class="cls-3" x1="650.86" y1="286.66" x2="658.61" y2="286.65"/><line class="cls-3" x1="650.87" y1="296.24" x2="658.62" y2="296.23"/><line class="cls-3" x1="650.87" y1="291.24" x2="658.62" y2="291.23"/><path class="cls-4" d="M650.52,277.8q0,11.2,0,22.42"/><path class="cls-4" d="M659,277.77l-.05,22.73"/><line class="cls-3" x1="650.86" y1="323.66" x2="658.61" y2="323.65"/><line class="cls-3" x1="650.86" y1="328.66" x2="658.61" y2="328.65"/><line class="cls-3" x1="650.87" y1="338.24" x2="658.62" y2="338.23"/><line class="cls-3" x1="650.87" y1="333.24" x2="658.62" y2="333.23"/><path class="cls-4" d="M650.52,319.8q0,10.4,0,20.8"/><path class="cls-4" d="M659,319.77l-.05,21.08"/><rect class="cls-5" x="651.12" y="297.97" width="7.14" height="8.1" transform="translate(-0.53 1.14) rotate(-0.1)"/><rect class="cls-5" x="651.12" y="313.97" width="7.14" height="8.1" transform="translate(-0.55 1.14) rotate(-0.1)"/><rect class="cls-5" x="651.12" y="338.97" width="7.14" height="8.1" transform="translate(-0.6 1.14) rotate(-0.1)"/><path class="cls-4" d="M661.83,272.28a7.14,7.14,0,1,1-7.15-7.13,7.15,7.15,0,0,1,7.15,7.13Z"/><rect class="cls-5" x="651.07" y="273.46" width="7.41" height="7.11" transform="translate(-0.41 0.97) rotate(-0.08)"/><circle class="cls-2" cx="725.71" cy="290.92" r="10.45"/><circle class="cls-2" cx="725.71" cy="330.92" r="10.45"/><line class="cls-3" x1="754.8" y1="287.12" x2="754.81" y2="294.7"/><line class="cls-3" x1="749.8" y1="287.12" x2="749.81" y2="294.7"/><line class="cls-3" x1="744.8" y1="287.1" x2="744.81" y2="294.68"/><line class="cls-3" x1="739.8" y1="287.07" x2="739.81" y2="294.65"/><path class="cls-4" d="M762.88,286.73l-27.55,0"/><path class="cls-4" d="M759.91,295q-12.31,0-24.63,0"/><rect class="cls-5" x="731.1" y="287.01" width="7.11" height="7.48" transform="translate(441.21 1024.34) rotate(-89.79)"/><line class="cls-3" x1="749.78" y1="327.18" x2="749.83" y2="334.76"/><line class="cls-3" x1="744.78" y1="327.18" x2="744.83" y2="334.76"/><line class="cls-3" x1="739.78" y1="327.18" x2="739.83" y2="334.76"/><path class="cls-4" d="M753.58,326.77l-18.29.06"/><path class="cls-4" d="M753.65,335q-9.18,0-18.35,0"/><rect class="cls-5" x="730.91" y="327.33" width="7.48" height="7.11" transform="translate(-0.48 1.07) rotate(-0.08)"/><rect class="cls-5" x="713.91" y="327.33" width="7.48" height="7.11" transform="translate(-0.48 1.05) rotate(-0.08)"/><path class="cls-4" d="M702.42,331.25a7.14,7.14,0,1,1-7.15-7.13,7.14,7.14,0,0,1,7.15,7.13Z"/><path class="cls-4" d="M766.71,330.88a7.14,7.14,0,1,1-7.15-7.13,7.14,7.14,0,0,1,7.15,7.13Z"/><rect class="cls-5" x="696.91" y="327.33" width="7.48" height="7.11" transform="translate(-0.48 1.02) rotate(-0.08)"/><rect class="cls-5" x="750.91" y="327.33" width="7.48" height="7.11" transform="translate(-0.48 1.1) rotate(-0.08)"/><line class="cls-3" x1="721.84" y1="262.38" x2="729.6" y2="262.37"/><line class="cls-3" x1="721.84" y1="267.38" x2="729.6" y2="267.37"/><line class="cls-3" x1="721.85" y1="276.96" x2="729.6" y2="276.94"/><line class="cls-3" x1="721.85" y1="271.96" x2="729.6" y2="271.94"/><path class="cls-4" d="M721.5,258.51q0,11.22,0,22.43"/><path class="cls-4" d="M730,258.49l-.05,22.72"/><line class="cls-3" x1="721.84" y1="304.38" x2="729.6" y2="304.37"/><line class="cls-3" x1="721.84" y1="309.38" x2="729.6" y2="309.37"/><line class="cls-3" x1="721.85" y1="318.96" x2="729.6" y2="318.94"/><line class="cls-3" x1="721.85" y1="313.96" x2="729.6" y2="313.94"/><path class="cls-4" d="M721.5,300.51q0,10.41,0,20.81"/><path class="cls-4" d="M730,300.49l-.05,21.08"/><rect class="cls-5" x="722.1" y="278.69" width="7.14" height="8.1" transform="translate(-0.49 1.27) rotate(-0.1)"/><rect class="cls-5" x="722.1" y="294.69" width="7.14" height="8.1" transform="translate(-0.52 1.27) rotate(-0.1)"/><rect class="cls-5" x="722.1" y="319.69" width="7.14" height="8.1" transform="translate(-0.56 1.27) rotate(-0.1)"/><path class="cls-4" d="M732.81,253a7.14,7.14,0,1,1-7.15-7.13,7.14,7.14,0,0,1,7.15,7.13Z"/><rect class="cls-5" x="722.05" y="254.18" width="7.41" height="7.11" transform="translate(-0.38 1.07) rotate(-0.08)"/><path class="cls-4" d="M759.91,306Q746,306,732.12,306"/><path class="cls-4" d="M759.91,295c4,0,3.9,11,0,11"/><line class="cls-3" x1="690.06" y1="286.99" x2="697.82" y2="286.98"/><line class="cls-3" x1="690.06" y1="291.99" x2="697.82" y2="291.98"/><line class="cls-3" x1="690.07" y1="301.58" x2="697.82" y2="301.56"/><line class="cls-3" x1="690.07" y1="296.58" x2="697.82" y2="296.56"/><path class="cls-1" d="M689.72,283.13q0,11.22,0,22.43"/><path class="cls-1" d="M698.18,283.11l0,22.72"/><path class="cls-4" d="M701,277.61a7.14,7.14,0,1,1-7.15-7.13,7.14,7.14,0,0,1,7.15,7.13Z"/><rect class="cls-5" x="690.27" y="278.8" width="7.41" height="7.11" transform="translate(-0.42 1.02) rotate(-0.08)"/><line class="cls-3" x1="713.78" y1="327.18" x2="713.83" y2="334.76"/><line class="cls-3" x1="708.78" y1="327.18" x2="708.83" y2="334.76"/><line class="cls-3" x1="703.78" y1="327.18" x2="703.83" y2="334.76"/><path class="cls-4" d="M716.31,326.76l-15.51,0"/><path class="cls-4" d="M716.37,335c-5.19,0-10.37,0-15.56,0"/><line class="cls-3" x1="763.52" y1="268.56" x2="771.28" y2="268.55"/><line class="cls-3" x1="763.52" y1="273.56" x2="771.28" y2="273.55"/><line class="cls-3" x1="763.54" y1="283.15" x2="771.29" y2="283.13"/><line class="cls-3" x1="763.54" y1="278.15" x2="771.29" y2="278.13"/><path class="cls-1" d="M763.19,264.7q0,11.22,0,22.43"/><path class="cls-1" d="M771.65,264.68l0,22.34"/><path class="cls-4" d="M774.5,259.18a7.15,7.15,0,1,1-7.16-7.13,7.15,7.15,0,0,1,7.16,7.13Z"/><rect class="cls-5" x="763.73" y="260.37" width="7.41" height="7.11" transform="translate(-0.39 1.13) rotate(-0.08)"/><text class="cls-22" transform="translate(702.42 307.64)">(U</text><text class="cls-22" transform="translate(709.18 309.64) scale(0.58)">n</text><text class="cls-22" transform="translate(711.03 307.64)">)</text><text class="cls-6" transform="translate(777.74 288.16)">(U</text><text class="cls-6" transform="translate(784.07 290.16) scale(0.58)">n</text><text class="cls-6" transform="translate(786.02 288.16)">) 3<tspan class="cls-11" x="7" y="0">’</tspan></text><path class="cls-4" d="M777.3,286.73l-6.15,0"/><circle class="cls-2" cx="457.58" cy="310.51" r="10.45"/><circle class="cls-2" cx="457.58" cy="350.51" r="10.45"/><line class="cls-3" x1="444.64" y1="346.77" x2="444.69" y2="354.35"/><line class="cls-3" x1="439.64" y1="346.77" x2="439.69" y2="354.35"/><line class="cls-3" x1="434.64" y1="346.77" x2="434.69" y2="354.35"/><path class="cls-4" d="M448.17,346.35l-16.47,0"/><path class="cls-4" d="M448.23,354.62q-8.25,0-16.51,0"/><path class="cls-4" d="M522.37,306.32l-9.34-6.1"/><path class="cls-4" d="M491.77,314.59q-12.31,0-24.63,0"/><line class="cls-3" x1="481.64" y1="346.77" x2="481.69" y2="354.35"/><line class="cls-3" x1="476.64" y1="346.77" x2="476.69" y2="354.35"/><line class="cls-3" x1="471.64" y1="346.77" x2="471.69" y2="354.35"/><path class="cls-4" d="M485.44,346.36l-18.29.06"/><path class="cls-4" d="M485.51,354.63q-9.18,0-18.35.05"/><rect class="cls-5" x="462.78" y="346.92" width="7.48" height="7.11" transform="translate(-0.51 0.68) rotate(-0.08)"/><rect class="cls-5" x="445.78" y="346.92" width="7.48" height="7.11" transform="translate(-0.51 0.66) rotate(-0.08)"/><path class="cls-4" d="M433.28,350.84a7.14,7.14,0,1,1-7.15-7.13,7.15,7.15,0,0,1,7.15,7.13Z"/><path class="cls-4" d="M498.57,350.47a7.14,7.14,0,1,1-7.15-7.13,7.13,7.13,0,0,1,7.15,7.13Z"/><rect class="cls-5" x="426.78" y="346.92" width="7.48" height="7.11" transform="translate(-0.51 0.63) rotate(-0.08)"/><rect class="cls-5" x="482.78" y="346.92" width="7.48" height="7.11" transform="translate(-0.51 0.71) rotate(-0.08)"/><line class="cls-3" x1="453.7" y1="323.97" x2="461.46" y2="323.96"/><line class="cls-3" x1="453.7" y1="328.97" x2="461.46" y2="328.96"/><line class="cls-3" x1="453.71" y1="338.56" x2="461.46" y2="338.54"/><line class="cls-3" x1="453.71" y1="333.56" x2="461.46" y2="333.54"/><path class="cls-4" d="M453.37,320.11q0,10.39,0,20.8"/><path class="cls-4" d="M461.82,320.09l0,21.07"/><rect class="cls-5" x="453.97" y="314.28" width="7.14" height="8.1" transform="translate(-0.55 0.8) rotate(-0.1)"/><rect class="cls-5" x="453.97" y="339.28" width="7.14" height="8.1" transform="translate(-0.6 0.8) rotate(-0.1)"/><circle class="cls-2" cx="528.56" cy="291.23" r="10.45"/><circle class="cls-2" cx="528.56" cy="331.23" r="10.45"/><line class="cls-3" x1="557.65" y1="287.43" x2="557.66" y2="295.01"/><line class="cls-3" x1="552.65" y1="287.43" x2="552.66" y2="295.01"/><line class="cls-3" x1="547.65" y1="287.41" x2="547.66" y2="294.99"/><line class="cls-3" x1="542.65" y1="287.38" x2="542.66" y2="294.96"/><path class="cls-4" d="M565.73,287l-27.56,0"/><path class="cls-4" d="M562.76,295.31q-12.32,0-24.63,0"/><rect class="cls-5" x="533.94" y="287.32" width="7.11" height="7.48" transform="translate(244.47 827.49) rotate(-89.79)"/><line class="cls-3" x1="552.63" y1="327.49" x2="552.68" y2="335.07"/><line class="cls-3" x1="547.63" y1="327.49" x2="547.68" y2="335.07"/><line class="cls-3" x1="542.63" y1="327.49" x2="542.68" y2="335.07"/><path class="cls-4" d="M556.43,327.08l-18.29.06"/><path class="cls-4" d="M556.49,335.35q-9.16,0-18.34,0"/><rect class="cls-5" x="533.76" y="327.64" width="7.48" height="7.11" transform="translate(-0.48 0.79) rotate(-0.08)"/><rect class="cls-5" x="516.76" y="327.64" width="7.48" height="7.11" transform="translate(-0.48 0.76) rotate(-0.08)"/><path class="cls-4" d="M505.27,331.56a7.15,7.15,0,1,1-7.16-7.13,7.14,7.14,0,0,1,7.16,7.13Z"/><path class="cls-4" d="M569.56,331.19a7.15,7.15,0,1,1-7.16-7.13,7.15,7.15,0,0,1,7.16,7.13Z"/><rect class="cls-5" x="499.76" y="327.64" width="7.48" height="7.11" transform="translate(-0.48 0.74) rotate(-0.08)"/><rect class="cls-5" x="553.76" y="327.64" width="7.48" height="7.11" transform="translate(-0.48 0.82) rotate(-0.08)"/><line class="cls-3" x1="524.69" y1="262.69" x2="532.44" y2="262.68"/><line class="cls-3" x1="524.69" y1="267.69" x2="532.44" y2="267.68"/><line class="cls-3" x1="524.7" y1="277.27" x2="532.45" y2="277.26"/><line class="cls-3" x1="524.7" y1="272.27" x2="532.45" y2="272.26"/><path class="cls-4" d="M524.35,258.83q0,11.21,0,22.42"/><path class="cls-4" d="M532.81,258.8l0,22.73"/><line class="cls-3" x1="524.69" y1="304.69" x2="532.44" y2="304.68"/><line class="cls-3" x1="524.69" y1="309.69" x2="532.44" y2="309.68"/><line class="cls-3" x1="524.7" y1="319.27" x2="532.45" y2="319.26"/><line class="cls-3" x1="524.7" y1="314.27" x2="532.45" y2="314.26"/><path class="cls-4" d="M524.35,300.82q0,10.41,0,20.81"/><path class="cls-4" d="M532.81,300.8l0,21.08"/><rect class="cls-5" x="524.95" y="279" width="7.14" height="8.1" transform="translate(-0.49 0.92) rotate(-0.1)"/><rect class="cls-5" x="524.95" y="295" width="7.14" height="8.1" transform="translate(-0.52 0.92) rotate(-0.1)"/><rect class="cls-5" x="524.95" y="320" width="7.14" height="8.1" transform="translate(-0.56 0.92) rotate(-0.1)"/><path class="cls-4" d="M535.66,253.31a7.14,7.14,0,1,1-7.15-7.13,7.15,7.15,0,0,1,7.15,7.13Z"/><rect class="cls-5" x="524.9" y="254.49" width="7.41" height="7.11" transform="translate(-0.38 0.78) rotate(-0.08)"/><path class="cls-4" d="M562.76,306.35q-13.9,0-27.79-.05"/><path class="cls-4" d="M562.76,295.31c4,0,3.89,11,0,11"/><line class="cls-3" x1="516.63" y1="327.49" x2="516.68" y2="335.07"/><line class="cls-3" x1="511.63" y1="327.49" x2="511.68" y2="335.07"/><line class="cls-3" x1="506.63" y1="327.49" x2="506.68" y2="335.07"/><path class="cls-4" d="M519.16,327.07l-15.52.05"/><path class="cls-4" d="M519.22,335.34q-7.79,0-15.57,0"/><line class="cls-3" x1="566.37" y1="268.88" x2="574.13" y2="268.87"/><line class="cls-3" x1="566.37" y1="273.88" x2="574.13" y2="273.87"/><line class="cls-3" x1="566.38" y1="283.46" x2="574.13" y2="283.44"/><line class="cls-3" x1="566.38" y1="278.46" x2="574.13" y2="278.44"/><path class="cls-1" d="M566,265q0,11.22,0,22.43"/><path class="cls-1" d="M574.49,265l0,22.34"/><path class="cls-4" d="M577.34,259.5a7.14,7.14,0,1,1-7.15-7.13,7.14,7.14,0,0,1,7.15,7.13Z"/><rect class="cls-5" x="566.58" y="260.68" width="7.41" height="7.11" transform="translate(-0.39 0.84) rotate(-0.08)"/><text class="cls-22" transform="translate(501.1 301.88)">(U</text><text class="cls-22" transform="translate(507.86 303.87) scale(0.58)">n</text><text class="cls-22" transform="translate(509.71 301.88)">)</text><text class="cls-6" transform="translate(580.59 288.47)">(U</text><text class="cls-6" transform="translate(586.92 290.47) scale(0.58)">n</text><text class="cls-6" transform="translate(588.87 288.47)">) 3<tspan class="cls-11" x="7" y="0">’</tspan></text><path class="cls-4" d="M580.14,287,574,287"/><circle class="cls-2" cx="654.77" cy="106.64" r="10.45"/><circle class="cls-2" cx="654.77" cy="146.64" r="10.45"/><line class="cls-3" x1="641.84" y1="142.91" x2="641.89" y2="150.49"/><line class="cls-3" x1="636.84" y1="142.91" x2="636.89" y2="150.49"/><line class="cls-3" x1="631.84" y1="142.91" x2="631.89" y2="150.49"/><path class="cls-4" d="M645.36,142.48l-16.46.06"/><path class="cls-4" d="M645.43,150.76q-8.26,0-16.52,0"/><line class="cls-3" x1="683.86" y1="102.85" x2="683.87" y2="110.43"/><line class="cls-3" x1="678.86" y1="102.85" x2="678.87" y2="110.43"/><line class="cls-3" x1="673.86" y1="102.82" x2="673.87" y2="110.4"/><line class="cls-3" x1="668.86" y1="102.8" x2="668.87" y2="110.38"/><path class="cls-4" d="M719.32,102.46l-6.15,0"/><path class="cls-4" d="M702.46,102.46l-4.29,0"/><path class="cls-4" d="M690.3,102.46l-25.92,0"/><path class="cls-4" d="M689,110.73q-12.32,0-24.63,0"/><rect class="cls-5" x="660.15" y="102.74" width="7.11" height="7.48" transform="translate(554.8 769.79) rotate(-89.79)"/><line class="cls-3" x1="678.84" y1="142.91" x2="678.89" y2="150.49"/><line class="cls-3" x1="673.84" y1="142.91" x2="673.89" y2="150.49"/><line class="cls-3" x1="668.84" y1="142.91" x2="668.89" y2="150.49"/><path class="cls-4" d="M682.64,142.49l-18.29.07"/><path class="cls-4" d="M682.7,150.76q-9.16,0-18.34.05"/><rect class="cls-5" x="659.97" y="143.06" width="7.48" height="7.11" transform="translate(-0.21 0.97) rotate(-0.08)"/><rect class="cls-5" x="642.97" y="143.06" width="7.48" height="7.11" transform="translate(-0.21 0.95) rotate(-0.08)"/><path class="cls-4" d="M630.48,147a7.15,7.15,0,1,1-7.16-7.13,7.15,7.15,0,0,1,7.16,7.13Z"/><path class="cls-4" d="M695.77,146.6a7.15,7.15,0,1,1-7.16-7.13,7.14,7.14,0,0,1,7.16,7.13Z"/><rect class="cls-5" x="623.97" y="143.06" width="7.48" height="7.11" transform="translate(-0.21 0.92) rotate(-0.08)"/><rect class="cls-5" x="679.97" y="143.06" width="7.48" height="7.11" transform="translate(-0.21 1) rotate(-0.08)"/><line class="cls-3" x1="650.9" y1="78.1" x2="658.65" y2="78.09"/><line class="cls-3" x1="650.9" y1="83.1" x2="658.65" y2="83.09"/><line class="cls-3" x1="650.91" y1="92.69" x2="658.66" y2="92.67"/><line class="cls-3" x1="650.91" y1="87.69" x2="658.66" y2="87.67"/><path class="cls-4" d="M650.56,74.24q0,11.22,0,22.43"/><path class="cls-4" d="M659,74.22l0,22.72"/><line class="cls-3" x1="650.9" y1="120.1" x2="658.65" y2="120.09"/><line class="cls-3" x1="650.9" y1="125.1" x2="658.65" y2="125.09"/><line class="cls-3" x1="650.91" y1="134.69" x2="658.66" y2="134.67"/><line class="cls-3" x1="650.91" y1="129.69" x2="658.66" y2="129.67"/><path class="cls-4" d="M650.56,116.24q0,10.4,0,20.8"/><path class="cls-4" d="M659,116.22l0,21.08"/><rect class="cls-5" x="651.16" y="94.42" width="7.14" height="8.1" transform="translate(-0.17 1.14) rotate(-0.1)"/><rect class="cls-5" x="651.16" y="110.42" width="7.14" height="8.1" transform="translate(-0.2 1.14) rotate(-0.1)"/><rect class="cls-5" x="651.16" y="135.42" width="7.14" height="8.1" transform="translate(-0.24 1.14) rotate(-0.1)"/><path class="cls-4" d="M661.87,68.72a7.14,7.14,0,1,1-7.15-7.13,7.14,7.14,0,0,1,7.15,7.13Z"/><rect class="cls-5" x="651.11" y="69.91" width="7.41" height="7.11" transform="translate(-0.11 0.97) rotate(-0.08)"/><circle class="cls-2" cx="725.75" cy="87.36" r="10.45"/><circle class="cls-2" cx="725.75" cy="127.36" r="10.45"/><path class="cls-4" d="M753.31,77.18l-19.58,0"/><path class="cls-4" d="M760,91.44q-12.32,0-24.63,0"/><polygon class="cls-5" points="730.99 78.1 738.47 78.12 738.42 90.76 730.94 90.74 730.99 78.1"/><line class="cls-3" x1="749.82" y1="123.62" x2="749.87" y2="131.2"/><line class="cls-3" x1="744.82" y1="123.62" x2="744.87" y2="131.2"/><line class="cls-3" x1="739.82" y1="123.62" x2="739.87" y2="131.2"/><path class="cls-4" d="M753.62,123.21l-18.29.06"/><path class="cls-4" d="M753.69,131.48q-9.18,0-18.35.05"/><rect class="cls-5" x="730.95" y="123.77" width="7.48" height="7.11" transform="translate(-0.19 1.07) rotate(-0.08)"/><rect class="cls-5" x="713.95" y="123.77" width="7.48" height="7.11" transform="translate(-0.19 1.05) rotate(-0.08)"/><path class="cls-4" d="M702.46,127.69a7.14,7.14,0,1,1-7.15-7.13,7.15,7.15,0,0,1,7.15,7.13Z"/><path class="cls-4" d="M766.75,127.32a7.14,7.14,0,1,1-7.15-7.13,7.14,7.14,0,0,1,7.15,7.13Z"/><rect class="cls-5" x="696.95" y="123.77" width="7.48" height="7.11" transform="translate(-0.19 1.02) rotate(-0.08)"/><rect class="cls-5" x="750.95" y="123.77" width="7.48" height="7.11" transform="translate(-0.19 1.1) rotate(-0.08)"/><line class="cls-3" x1="725.46" y1="48.79" x2="733.21" y2="48.78"/><line class="cls-3" x1="725.46" y1="53.79" x2="733.21" y2="53.78"/><line class="cls-3" x1="725.46" y1="58.79" x2="733.21" y2="58.78"/><line class="cls-3" x1="725.46" y1="63.79" x2="733.21" y2="63.78"/><line class="cls-3" x1="725.47" y1="73.37" x2="733.22" y2="73.36"/><line class="cls-3" x1="725.47" y1="68.37" x2="733.22" y2="68.36"/><path class="cls-4" d="M725.13,45.23q0,16.07-.06,32.12"/><path class="cls-1" d="M733.58,54.9l-.05,22.73"/><line class="cls-3" x1="721.88" y1="100.82" x2="729.64" y2="100.81"/><line class="cls-3" x1="721.88" y1="105.82" x2="729.64" y2="105.81"/><line class="cls-3" x1="721.89" y1="115.41" x2="729.64" y2="115.39"/><line class="cls-3" x1="721.89" y1="110.41" x2="729.64" y2="110.39"/><path class="cls-4" d="M721.54,97q0,10.4,0,20.8"/><path class="cls-4" d="M730,96.94,730,118"/><rect class="cls-5" x="725.72" y="74.75" width="7.14" height="8.1" transform="translate(-0.14 1.27) rotate(-0.1)"/><rect class="cls-5" x="722.14" y="91.13" width="7.14" height="8.1" transform="translate(-0.17 1.27) rotate(-0.1)"/><rect class="cls-5" x="722.14" y="116.13" width="7.14" height="8.1" transform="translate(-0.21 1.27) rotate(-0.1)"/><path class="cls-4" d="M736.43,39.41a7.14,7.14,0,1,1-7.15-7.13,7.15,7.15,0,0,1,7.15,7.13Z"/><rect class="cls-5" x="725.58" y="40.37" width="7.41" height="7.11" transform="translate(-0.06 1.08) rotate(-0.08)"/><path class="cls-4" d="M760,102.48q-13.89,0-27.79,0"/><path class="cls-4" d="M760,91.44c4,0,3.9,11,0,11"/><line class="cls-3" x1="690.1" y1="83.44" x2="697.86" y2="83.43"/><line class="cls-3" x1="690.1" y1="88.44" x2="697.86" y2="88.43"/><line class="cls-3" x1="690.11" y1="98.02" x2="697.86" y2="98.01"/><line class="cls-3" x1="690.11" y1="93.02" x2="697.86" y2="93.01"/><path class="cls-1" d="M689.76,79.58q0,11.2,0,22.42"/><path class="cls-1" d="M698.22,79.55l-.05,22.73"/><path class="cls-4" d="M701.07,74.06a7.14,7.14,0,1,1-7.15-7.13,7.14,7.14,0,0,1,7.15,7.13Z"/><rect class="cls-5" x="690.31" y="75.24" width="7.41" height="7.11" transform="translate(-0.12 1.02) rotate(-0.08)"/><line class="cls-3" x1="713.82" y1="123.62" x2="713.87" y2="131.2"/><line class="cls-3" x1="708.82" y1="123.62" x2="708.87" y2="131.2"/><line class="cls-3" x1="703.82" y1="123.62" x2="703.87" y2="131.2"/><path class="cls-4" d="M716.35,123.2l-15.51,0"/><path class="cls-4" d="M716.41,131.47q-7.78,0-15.56,0"/><text class="cls-22" transform="translate(702.46 104.09)">(U</text><text class="cls-22" transform="translate(709.22 106.09) scale(0.58)">n</text><text class="cls-22" transform="translate(711.06 104.09)">)</text><text class="cls-6" transform="translate(768.17 78.61)">(U</text><text class="cls-6" transform="translate(774.5 80.6) scale(0.58)">n</text><text class="cls-6" transform="translate(776.44 78.61)">) 3<tspan class="cls-11" x="7" y="0">’</tspan></text><circle class="cls-2" cx="456.77" cy="106.64" r="10.45"/><circle class="cls-2" cx="456.77" cy="146.64" r="10.45"/><line class="cls-3" x1="443.84" y1="142.91" x2="443.89" y2="150.49"/><line class="cls-3" x1="438.84" y1="142.91" x2="438.89" y2="150.49"/><line class="cls-3" x1="433.84" y1="142.91" x2="433.89" y2="150.49"/><path class="cls-4" d="M447.36,142.48l-16.46.06"/><path class="cls-4" d="M447.43,150.76q-8.26,0-16.52,0"/><path class="cls-4" d="M491,110.73q-12.32,0-24.63,0"/><line class="cls-3" x1="480.84" y1="142.91" x2="480.89" y2="150.49"/><line class="cls-3" x1="475.84" y1="142.91" x2="475.89" y2="150.49"/><line class="cls-3" x1="470.84" y1="142.91" x2="470.89" y2="150.49"/><path class="cls-4" d="M484.64,142.49l-18.29.07"/><path class="cls-4" d="M484.7,150.76q-9.17,0-18.34.05"/><rect class="cls-5" x="461.97" y="143.06" width="7.48" height="7.11" transform="translate(-0.21 0.68) rotate(-0.08)"/><rect class="cls-5" x="444.97" y="143.06" width="7.48" height="7.11" transform="translate(-0.21 0.66) rotate(-0.08)"/><path class="cls-4" d="M432.48,147a7.15,7.15,0,1,1-7.16-7.13,7.15,7.15,0,0,1,7.16,7.13Z"/><path class="cls-4" d="M497.77,146.6a7.15,7.15,0,1,1-7.16-7.13,7.14,7.14,0,0,1,7.16,7.13Z"/><rect class="cls-5" x="425.97" y="143.06" width="7.48" height="7.11" transform="translate(-0.21 0.63) rotate(-0.08)"/><rect class="cls-5" x="481.97" y="143.06" width="7.48" height="7.11" transform="translate(-0.21 0.71) rotate(-0.08)"/><line class="cls-3" x1="452.9" y1="120.1" x2="460.65" y2="120.09"/><line class="cls-3" x1="452.9" y1="125.1" x2="460.65" y2="125.09"/><line class="cls-3" x1="452.91" y1="134.69" x2="460.66" y2="134.67"/><line class="cls-3" x1="452.91" y1="129.69" x2="460.66" y2="129.67"/><path class="cls-4" d="M452.56,116.24q0,10.4,0,20.8"/><path class="cls-4" d="M461,116.22l0,21.08"/><rect class="cls-5" x="453.16" y="110.42" width="7.14" height="8.1" transform="translate(-0.2 0.8) rotate(-0.1)"/><rect class="cls-5" x="453.16" y="135.42" width="7.14" height="8.1" transform="translate(-0.24 0.8) rotate(-0.1)"/><circle class="cls-2" cx="527.75" cy="87.36" r="10.45"/><circle class="cls-2" cx="527.75" cy="127.36" r="10.45"/><path class="cls-4" d="M562,91.44q-12.32,0-24.63,0"/><line class="cls-3" x1="551.82" y1="123.62" x2="551.87" y2="131.2"/><line class="cls-3" x1="546.82" y1="123.62" x2="546.87" y2="131.2"/><line class="cls-3" x1="541.82" y1="123.62" x2="541.87" y2="131.2"/><path class="cls-4" d="M555.62,123.21l-18.29.06"/><path class="cls-4" d="M555.69,131.48q-9.18,0-18.35.05"/><rect class="cls-5" x="532.95" y="123.77" width="7.48" height="7.11" transform="translate(-0.19 0.78) rotate(-0.08)"/><rect class="cls-5" x="515.95" y="123.77" width="7.48" height="7.11" transform="translate(-0.19 0.76) rotate(-0.08)"/><path class="cls-4" d="M504.46,127.69a7.14,7.14,0,1,1-7.15-7.13,7.15,7.15,0,0,1,7.15,7.13Z"/><path class="cls-4" d="M568.75,127.32a7.14,7.14,0,1,1-7.15-7.13,7.14,7.14,0,0,1,7.15,7.13Z"/><rect class="cls-5" x="498.95" y="123.77" width="7.48" height="7.11" transform="translate(-0.19 0.74) rotate(-0.08)"/><rect class="cls-5" x="552.95" y="123.77" width="7.48" height="7.11" transform="translate(-0.19 0.81) rotate(-0.08)"/><line class="cls-3" x1="523.88" y1="100.82" x2="531.64" y2="100.81"/><line class="cls-3" x1="523.88" y1="105.82" x2="531.64" y2="105.81"/><line class="cls-3" x1="523.89" y1="115.41" x2="531.64" y2="115.39"/><line class="cls-3" x1="523.89" y1="110.41" x2="531.64" y2="110.39"/><path class="cls-4" d="M523.54,97q0,10.4,0,20.8"/><path class="cls-4" d="M532,96.94,532,118"/><rect class="cls-5" x="524.14" y="91.13" width="7.14" height="8.1" transform="translate(-0.17 0.92) rotate(-0.1)"/><rect class="cls-5" x="524.14" y="116.13" width="7.14" height="8.1" transform="translate(-0.21 0.92) rotate(-0.1)"/><path class="cls-4" d="M562,102.48q-13.89,0-27.79,0"/><path class="cls-4" d="M562,91.44c4,0,3.9,11,0,11"/><line class="cls-3" x1="515.82" y1="123.62" x2="515.87" y2="131.2"/><line class="cls-3" x1="510.82" y1="123.62" x2="510.87" y2="131.2"/><line class="cls-3" x1="505.82" y1="123.62" x2="505.87" y2="131.2"/><path class="cls-4" d="M518.35,123.2l-15.51,0"/><path class="cls-4" d="M518.41,131.47q-7.78,0-15.56,0"/><path class="cls-1" d="M767.76,77.19l-17.77,0"/><path class="cls-4" d="M733.64,45.23q0,5-.06,10"/><text class="cls-23" transform="translate(122.41 181.68)"><tspan class="cls-24">T</tspan><tspan x="4" y="0">erminator</tspan></text><text class="cls-23" transform="translate(674.49 63.19)"><tspan class="cls-24">T</tspan><tspan x="4" y="0">erminator</tspan></text><text class="cls-23" transform="translate(749.63 247.33)"><tspan class="cls-24">T</tspan><tspan x="4" y="0">erminator</tspan></text><text class="cls-23" transform="translate(550.44 247.33)"><tspan class="cls-24">T</tspan><tspan x="4" y="0">erminator</tspan></text><text class="cls-23" transform="translate(674.89 265.46)"><tspan class="cls-24">T</tspan><tspan x="4" y="0">erminator</tspan></text><text class="cls-6" transform="translate(492.3 111.95)">5<tspan class="cls-11" x="3.34" y="0">’</tspan></text><text class="cls-6" transform="translate(690.3 111.95)">5<tspan class="cls-11" x="3.34" y="0">’</tspan></text><text class="cls-6" transform="translate(690.07 315.89)">5<tspan class="cls-11" x="3.34" y="0">’</tspan></text><text class="cls-6" transform="translate(492.92 315.89)">5<tspan class="cls-11" x="3.34" y="0">’</tspan></text><path class="cls-4" d="M486.64,300.25l-19.58,0"/><polygon class="cls-5" points="464.33 301.18 471.81 301.2 471.76 313.83 464.28 313.81 464.33 301.18"/><line class="cls-3" x1="458.79" y1="266.86" x2="466.55" y2="266.85"/><line class="cls-3" x1="458.79" y1="271.86" x2="466.55" y2="271.85"/><line class="cls-3" x1="458.79" y1="276.86" x2="466.55" y2="276.85"/><line class="cls-3" x1="458.79" y1="281.86" x2="466.55" y2="281.85"/><line class="cls-3" x1="458.79" y1="286.86" x2="466.55" y2="286.85"/><line class="cls-3" x1="458.8" y1="296.45" x2="466.55" y2="296.43"/><line class="cls-3" x1="458.8" y1="291.45" x2="466.55" y2="291.43"/><path class="cls-4" d="M458.47,263.78q0,18.33-.06,36.65"/><path class="cls-1" d="M466.91,278l0,22.72"/><rect class="cls-5" x="459.06" y="297.83" width="7.14" height="8.1" transform="translate(-0.53 0.81) rotate(-0.1)"/><path class="cls-4" d="M469.76,258.48a7.14,7.14,0,1,1-7.15-7.13,7.14,7.14,0,0,1,7.15,7.13Z"/><rect class="cls-5" x="459" y="259.67" width="7.41" height="7.11" transform="translate(-0.39 0.68) rotate(-0.08)"/><path class="cls-1" d="M501.1,300.27l-17.77,0"/><path class="cls-4" d="M467,263.78q0,7.22-.06,14.44"/><path class="cls-4" d="M520,102.59l-9.34-6.1"/><text class="cls-22" transform="translate(498.77 98.14)">(U</text><text class="cls-22" transform="translate(505.53 100.14) scale(0.58)">n</text><text class="cls-22" transform="translate(507.38 98.14)">)</text><path class="cls-4" d="M484.31,96.52l-19.58,0"/><polygon class="cls-5" points="462 97.44 469.48 97.46 469.43 110.1 461.95 110.08 462 97.44"/><line class="cls-3" x1="456.46" y1="63.13" x2="464.22" y2="63.12"/><line class="cls-3" x1="456.46" y1="68.13" x2="464.22" y2="68.12"/><line class="cls-3" x1="456.46" y1="73.13" x2="464.22" y2="73.12"/><line class="cls-3" x1="456.46" y1="78.13" x2="464.22" y2="78.12"/><line class="cls-3" x1="456.46" y1="83.13" x2="464.22" y2="83.12"/><line class="cls-3" x1="456.47" y1="92.72" x2="464.22" y2="92.7"/><line class="cls-3" x1="456.47" y1="87.72" x2="464.22" y2="87.7"/><path class="cls-4" d="M456.14,60.05q0,18.32-.06,36.65"/><path class="cls-1" d="M464.58,74.25,464.53,97"/><rect class="cls-5" x="456.6" y="94.09" width="7.26" height="8.1" transform="translate(-0.17 0.79) rotate(-0.1)"/><path class="cls-4" d="M467.43,54.75a7.14,7.14,0,1,1-7.15-7.13,7.13,7.13,0,0,1,7.15,7.13Z"/><rect class="cls-5" x="456.67" y="55.94" width="7.41" height="7.11" transform="translate(-0.09 0.68) rotate(-0.08)"/><path class="cls-1" d="M498.77,96.54,481,96.5"/><path class="cls-4" d="M464.64,60.05q0,7.22-.06,14.44"/><path class="cls-4" d="M554.66,77.25l-19.58,0"/><polygon class="cls-5" points="532.35 78.18 539.83 78.19 539.78 90.83 532.3 90.81 532.35 78.18"/><line class="cls-3" x1="526.81" y1="48.86" x2="534.57" y2="48.85"/><line class="cls-3" x1="526.81" y1="53.86" x2="534.57" y2="53.85"/><line class="cls-3" x1="526.81" y1="58.86" x2="534.57" y2="58.85"/><line class="cls-3" x1="526.81" y1="63.86" x2="534.57" y2="63.85"/><line class="cls-3" x1="526.82" y1="73.45" x2="534.57" y2="73.43"/><line class="cls-3" x1="526.82" y1="68.45" x2="534.57" y2="68.43"/><path class="cls-4" d="M526.49,45.31q0,16.06-.06,32.12"/><path class="cls-1" d="M534.93,55l0,22.72"/><rect class="cls-5" x="527.08" y="74.83" width="7.14" height="8.1" transform="translate(-0.14 0.93) rotate(-0.1)"/><path class="cls-4" d="M537.78,39.48a7.14,7.14,0,1,1-7.15-7.13,7.14,7.14,0,0,1,7.15,7.13Z"/><rect class="cls-5" x="526.94" y="40.44" width="7.41" height="7.11" transform="translate(-0.06 0.78) rotate(-0.08)"/><text class="cls-6" transform="translate(569.52 78.68)">(U</text><text class="cls-6" transform="translate(575.85 80.68) scale(0.58)">n</text><text class="cls-6" transform="translate(577.8 78.68)">) 3<tspan class="cls-11" x="7" y="0">’</tspan></text><path class="cls-1" d="M569.12,77.27l-17.77,0"/><path class="cls-4" d="M535,45.31q0,5-.06,10"/><text class="cls-14" transform="translate(700.33 383.37)">OFF</text><text class="cls-13" transform="translate(471.35 23.37)">ON</text><text class="cls-14" transform="translate(471.35 383.37)">OFF</text><text class="cls-14" transform="translate(700.33 23.37)">OFF</text><path class="cls-12" d="M645.1,106.48c0-3,4.34-5.36,9.71-5.36s9.72,2.4,9.72,5.36-4.35,5.36-9.72,5.36-9.71-2.4-9.71-5.36"/><text class="cls-25" transform="translate(648.92 109.02)">TP<tspan class="cls-21" x="8.94" y="0">P</tspan></text><path class="cls-12" d="M645,309.64c0-3,4.35-5.36,9.72-5.36s9.71,2.4,9.71,5.36-4.34,5.36-9.71,5.36-9.72-2.4-9.72-5.36"/><text class="cls-25" transform="translate(648.79 312.18)">TP<tspan class="cls-21" x="8.94" y="0">P</tspan></text><path class="cls-12" d="M716.05,290.75c0-3,4.35-5.36,9.72-5.36s9.71,2.4,9.71,5.36-4.34,5.36-9.71,5.36-9.72-2.4-9.72-5.36"/><text class="cls-25" transform="translate(719.87 293.29)">TP<tspan class="cls-21" x="8.94" y="0">P</tspan></text><path class="cls-12" d="M518.8,290.75c0-3,4.35-5.36,9.72-5.36s9.71,2.4,9.71,5.36-4.34,5.36-9.71,5.36-9.72-2.4-9.72-5.36"/><text class="cls-25" transform="translate(522.62 293.29)">TP<tspan class="cls-21" x="8.94" y="0">P</tspan></text><text class="cls-26" transform="translate(334 303.87)">Gly</text><text class="cls-26" transform="translate(265.58 289.34)">Gly</text><text class="cls-26" transform="translate(110 303.87)">Gly</text><text class="cls-26" transform="translate(265.04 88.61)">Gly</text></svg>