<?xml version="1.0" encoding="utf-8"?>
<!-- Generator: Adobe Illustrator 25.4.1, SVG Export Plug-In . SVG Version: 6.00 Build 0)  -->
<svg version="1.1" id="图层_1" xmlns="http://www.w3.org/2000/svg" xmlns:xlink="http://www.w3.org/1999/xlink" x="0px" y="0px"
	 viewBox="0 0 800 507" enable-background="new 0 0 800 507" xml:space="preserve">
<g>
	<g>
		<line fill="none" stroke="#9D9D9D" stroke-width="2" x1="351.567" y1="321.744" x2="369.616" y2="321.744"/>
	</g>
	<g>
		<line fill="none" stroke="#9D9D9D" stroke-width="2" x1="351.567" y1="329.843" x2="369.616" y2="329.843"/>
		<line fill="none" stroke="#9D9D9D" stroke-width="2" x1="351.567" y1="338.686" x2="369.616" y2="338.686"/>
		<line fill="none" stroke="#9D9D9D" stroke-width="2" x1="351.567" y1="348.794" x2="369.616" y2="348.794"/>
	</g>
</g>
<g>
	<line fill="none" stroke="#64A5DD" stroke-width="2" x1="351.217" y1="313.022" x2="351.217" y2="355.014"/>
	<line fill="none" stroke="#251E1C" stroke-width="2" x1="369.965" y1="313.186" x2="369.965" y2="355.18"/>
</g>
<g>
	<line fill="none" stroke="#9D9D9D" stroke-width="2" x1="88.342" y1="208.736" x2="98.479" y2="197.072"/>
	<line fill="none" stroke="#9D9D9D" stroke-width="2" x1="81.077" y1="202.103" x2="91.214" y2="190.438"/>
</g>
<g>
	<line fill="none" stroke="#9D9D9D" stroke-width="2" x1="153.223" y1="173.042" x2="168.678" y2="173.013"/>
	<line fill="none" stroke="#9D9D9D" stroke-width="2" x1="152.89" y1="162.375" x2="168.344" y2="162.346"/>
</g>
<g>
	<line fill="none" stroke="#9D9D9D" stroke-width="2" x1="97.442" y1="280.91" x2="87.633" y2="268.969"/>
	<line fill="none" stroke="#9D9D9D" stroke-width="2" x1="88.976" y1="287.407" x2="79.168" y2="275.464"/>
</g>
<g>
	<g>
		<line fill="none" stroke="#9D9D9D" stroke-width="2" x1="154.03" y1="335.777" x2="171.28" y2="336.119"/>
		<line fill="none" stroke="#9D9D9D" stroke-width="2" x1="153.793" y1="344.615" x2="171.04" y2="344.96"/>
	</g>
	<g>
		<line fill="none" stroke="#9D9D9D" stroke-width="2" x1="153.907" y1="309.142" x2="171.157" y2="309.141"/>
		<line fill="none" stroke="#9D9D9D" stroke-width="2" x1="153.907" y1="317.983" x2="171.158" y2="317.982"/>
		<line fill="none" stroke="#9D9D9D" stroke-width="2" x1="153.908" y1="326.626" x2="171.158" y2="326.626"/>
	</g>
</g>
<g>
	<line fill="none" stroke="#251E1C" stroke-width="2" x1="153.02" y1="300.464" x2="153.02" y2="354.47"/>
	<line fill="none" stroke="#9DC138" stroke-width="2" x1="172.049" y1="299.478" x2="172.049" y2="328.727"/>
	<line fill="none" stroke="#9DC138" stroke-width="2" x1="172.049" y1="327.194" x2="172.049" y2="354.196"/>
</g>
<g>
	<line fill="none" stroke="#9D9D9D" stroke-width="2" x1="232.652" y1="266.482" x2="224.423" y2="279.564"/>
	<line fill="none" stroke="#9D9D9D" stroke-width="2" x1="241.849" y1="271.896" x2="233.62" y2="284.978"/>
</g>
<g>
	<line fill="none" stroke="#9D9D9D" stroke-width="2" x1="228.208" y1="205.404" x2="235.366" y2="219.101"/>
	<line fill="none" stroke="#9D9D9D" stroke-width="2" x1="237.518" y1="200.186" x2="244.675" y2="213.883"/>
</g>
<rect x="155.463" y="292.694" fill="#FFFFFF" stroke="#FFFFFF" stroke-width="2" width="14.056" height="11.88"/>
<path fill="none" stroke="#251E1C" stroke-width="2" d="M227.428,241.996c0,32.034-30.226,58.008-67.504,58.008
	c-37.282,0-67.501-25.974-67.501-58.008c0-32.032,30.219-58.011,67.501-58.011C197.202,183.985,227.428,209.964,227.428,241.996z"/>
<rect x="155.106" y="293.48" fill="#FFFFFF" stroke="#FFFFFF" stroke-width="2" width="14.872" height="10.264"/>
<g>
	<line fill="none" stroke="#251E1C" stroke-width="2" x1="80.59" y1="295.861" x2="105.108" y2="275.189"/>
	<line fill="none" stroke="#251E1C" stroke-width="2" x1="69.327" y1="284.121" x2="96.092" y2="262.023"/>
</g>
<g>
	<line fill="none" stroke="#251E1C" stroke-width="2" x1="73.452" y1="196.265" x2="98.282" y2="216.56"/>
	<line fill="none" stroke="#251E1C" stroke-width="2" x1="83.53" y1="183.76" x2="108.569" y2="204.282"/>
</g>
<g>
	<line fill="none" stroke="#251E1C" stroke-width="2" x1="152.689" y1="152.23" x2="152.496" y2="184.299"/>
	<line fill="none" stroke="#251E1C" stroke-width="2" x1="168.819" y1="151.732" x2="168.511" y2="184.588"/>
</g>
<path fill="none" stroke="#251E1C" stroke-width="2" d="M176.593,137.846c0,9.021-7.312,16.334-16.333,16.334
	c-9.02,0-16.333-7.312-16.333-16.334c0-9.021,7.312-16.333,16.333-16.333C169.28,121.513,176.593,128.825,176.593,137.846z"/>
<rect x="155.714" y="151.012" transform="matrix(1 -0.0014 0.0014 1 -0.2179 0.2291)" fill="#FFFFFF" stroke="#FFFFFF" stroke-width="4" width="10.035" height="4.134"/>
<path fill="none" stroke="#251E1C" stroke-width="2" d="M84.259,181.513c0,9.021-7.312,16.332-16.334,16.332
	c-9.02,0-16.333-7.311-16.333-16.332c0-9.02,7.312-16.333,16.333-16.333C76.947,165.18,84.259,172.492,84.259,181.513z"/>
<rect x="74.632" y="188.243" transform="matrix(0.6391 -0.7691 0.7691 0.6391 -118.1231 130.1843)" fill="#FFFFFF" stroke="#FFFFFF" stroke-width="4" width="10.044" height="5.426"/>
<path fill="none" stroke="#251E1C" stroke-width="2" d="M81.259,298.513c0,9.02-7.312,16.332-16.333,16.332
	c-9.021,0-16.333-7.312-16.333-16.332c0-9.021,7.312-16.334,16.333-16.334C73.946,282.179,81.259,289.491,81.259,298.513z"/>
<rect x="75.044" y="283.664" transform="matrix(0.7697 -0.6384 0.6384 0.7697 -166.6238 115.2554)" fill="#FFFFFF" stroke="#FFFFFF" stroke-width="4" width="2.767" height="9.793"/>
<g>
	<line fill="none" stroke="#251E1C" stroke-width="2" x1="245.828" y1="195.564" x2="217.289" y2="210.189"/>
	<line fill="none" stroke="#251E1C" stroke-width="2" x1="253.713" y1="209.644" x2="224.423" y2="224.531"/>
</g>
<path fill="none" stroke="#251E1C" stroke-width="2" d="M269.62,210.133c-8.003,4.162-17.865,1.05-22.027-6.954
	c-4.163-8.002-1.049-17.864,6.954-22.026c8.003-4.163,17.864-1.05,22.027,6.953C280.736,196.108,277.623,205.97,269.62,210.133z"/>
<rect x="247.532" y="197.98" transform="matrix(0.8865 -0.4627 0.4627 0.8865 -65.5906 138.3272)" fill="#FFFFFF" stroke="#FFFFFF" stroke-width="4" width="3.332" height="9.792"/>
<g>
	<line fill="none" stroke="#251E1C" stroke-width="2" x1="251.741" y1="278.628" x2="223.918" y2="260.647"/>
	<line fill="none" stroke="#251E1C" stroke-width="2" x1="243.619" y1="292.59" x2="215.172" y2="274.076"/>
</g>
<path fill="none" stroke="#251E1C" stroke-width="2" d="M251.208,306.579c-7.627-4.818-9.904-14.904-5.087-22.532
	c4.817-7.626,14.905-9.904,22.532-5.086c7.627,4.817,9.904,14.904,5.086,22.532C268.922,309.118,258.835,311.397,251.208,306.579z"
	/>
<rect x="241.536" y="282.521" transform="matrix(0.5328 -0.8462 0.8462 0.5328 -125.8972 341.7148)" fill="#FFFFFF" stroke="#FFFFFF" stroke-width="4" width="10.018" height="4.725"/>
<text transform="matrix(1 0 0 1 498.3726 218.2759)"><tspan x="0" y="0" fill="#64AA44" font-family="'ArialMT'" font-size="16px">Roseoflavin</tspan><tspan x="12.453" y="19.2" fill="#64AA44" font-family="'ArialMT'" font-size="16px">0.2-1uM</tspan></text>
<text transform="matrix(1 0 0 1 653.1943 218.2759)"><tspan x="0" y="0" fill="#C2007B" font-family="'ArialMT'" font-size="16px">5FDQD</tspan><tspan x="4.879" y="19.2" fill="#C2007B" font-family="'ArialMT'" font-size="16px">7.5nM</tspan></text>
<text transform="matrix(1 0 0 1 521.3379 475.8394)"><tspan x="0" y="0" fill="#CC5520" font-family="'ArialMT'" font-size="16px">Ribocil</tspan><tspan x="3.996" y="19.2" fill="#CC5520" font-family="'ArialMT'" font-size="16px">39uM</tspan></text>
<text transform="matrix(1 0 0 1 655.0552 475.3433)"><tspan x="0" y="0" fill="#21348C" font-family="'ArialMT'" font-size="16px">Ribocil C</tspan><tspan x="4.883" y="19.2" fill="#21348C" font-family="'ArialMT'" font-size="16px">1-50nM</tspan></text>
<text transform="matrix(1 0 0 1 120.2612 219.8462)" fill="#64AA44" font-family="'ArialMT'" font-size="16px">Roseoflavin</text>
<text transform="matrix(1 0 0 1 133.5942 240.1792)" fill="#C2007B" font-family="'ArialMT'" font-size="16px">5FDQD</text>
<text transform="matrix(1 0 0 1 135.9277 260.8467)" fill="#CC5520" font-family="'ArialMT'" font-size="16px">Ribocil</text>
<text transform="matrix(1 0 0 1 129.2612 279.8467)" fill="#21348C" font-family="'ArialMT'" font-size="16px">Ribocil C</text>
<g>
	<polygon fill-rule="evenodd" clip-rule="evenodd" points="597.53,134.81 580.763,134.81 580.567,134.472 580.763,134.134 
		597.53,134.134 597.53,134.472 597.53,134.81 	"/>
	<polygon fill-rule="evenodd" clip-rule="evenodd" points="580.763,134.81 572.282,149.432 572.085,149.094 571.89,148.757 
		580.175,134.472 580.567,134.472 580.763,134.81 	"/>
	<polygon fill-rule="evenodd" clip-rule="evenodd" points="578.51,134.641 571.204,147.237 570.91,147.067 570.616,146.899 
		577.923,134.303 578.216,134.472 578.51,134.641 	"/>
	<polygon fill-rule="evenodd" clip-rule="evenodd" points="572.282,149.432 555.318,149.432 555.122,149.094 555.318,148.757 
		571.89,148.757 572.085,149.094 572.282,149.432 	"/>
	<polygon fill-rule="evenodd" clip-rule="evenodd" points="554.73,149.094 546.444,134.81 546.641,134.472 547.033,134.472 
		555.318,148.757 555.122,149.094 554.73,149.094 	"/>
	<polygon fill-rule="evenodd" clip-rule="evenodd" points="556.003,147.237 548.697,134.641 548.991,134.472 549.285,134.303 
		556.592,146.899 556.298,147.067 556.003,147.237 	"/>
	<polygon fill-rule="evenodd" clip-rule="evenodd" points="546.444,134.134 554.926,119.513 555.122,119.85 555.318,120.188 
		547.033,134.472 546.641,134.472 546.444,134.134 	"/>
	<polygon fill-rule="evenodd" clip-rule="evenodd" points="554.926,119.513 571.89,119.513 572.085,119.85 571.89,120.188 
		555.318,120.188 555.122,119.85 554.926,119.513 	"/>
	<polygon fill-rule="evenodd" clip-rule="evenodd" points="556.298,121.539 570.91,121.539 570.91,121.876 570.91,122.214 
		556.298,122.214 556.298,121.876 556.298,121.539 	"/>
	<polygon fill-rule="evenodd" clip-rule="evenodd" points="571.89,119.513 578.095,108.815 578.389,108.984 578.683,109.152 
		572.477,119.85 572.085,119.85 571.89,119.513 	"/>
	<text transform="matrix(1.0047 0 0 1 577.9824 106.7754)" font-family="'ArialMT'" font-size="7.4453px">N</text>
	<polygon fill-rule="evenodd" clip-rule="evenodd" points="583.946,104.891 597.53,104.891 597.53,105.228 597.53,105.566 
		583.946,105.566 583.946,105.228 583.946,104.891 	"/>
	<polygon fill-rule="evenodd" clip-rule="evenodd" points="578.095,101.642 571.792,90.775 572.085,90.606 572.379,90.438 
		578.683,101.304 578.389,101.473 578.095,101.642 	"/>
	<polygon fill-rule="evenodd" clip-rule="evenodd" points="572.477,119.85 580.763,134.134 580.567,134.472 580.175,134.472 
		571.89,120.188 572.085,119.85 572.477,119.85 	"/>
	<polygon fill-rule="evenodd" clip-rule="evenodd" points="546.444,134.81 533.056,134.81 533.056,134.472 533.056,134.134 
		546.444,134.134 546.641,134.472 546.444,134.81 	"/>
	<text transform="matrix(1.0047 0 0 1 527.0903 136.022)" font-family="'ArialMT'" font-size="7.4453px">N</text>
	<polygon fill-rule="evenodd" clip-rule="evenodd" points="527.792,138.396 521.587,149.094 521.196,149.094 521,148.757 
		527.205,138.059 527.499,138.227 527.792,138.396 	"/>
	<polygon fill-rule="evenodd" clip-rule="evenodd" points="520.021,151.458 507.612,151.458 507.612,151.12 507.612,150.782 
		520.021,150.782 520.021,151.12 520.021,151.458 	"/>
	<polygon fill-rule="evenodd" clip-rule="evenodd" points="521,149.432 507.612,149.432 507.612,149.094 507.612,148.757 
		521,148.757 521.196,149.094 521,149.432 	"/>
	<text transform="matrix(1.0047 0 0 1 501.6475 150.6382)" font-family="'ArialMT'" font-size="7.4453px">N</text>
	<polygon fill-rule="evenodd" clip-rule="evenodd" points="502.348,153.019 496.143,163.716 495.751,163.716 495.359,163.716 
		501.76,152.68 502.054,152.849 502.348,153.019 	"/>
	<polygon fill-rule="evenodd" clip-rule="evenodd" points="496.338,165.066 482.376,165.066 482.376,164.729 482.376,164.392 
		496.338,164.392 496.338,164.729 496.338,165.066 	"/>
	<polygon fill-rule="evenodd" clip-rule="evenodd" points="496.338,163.04 482.376,163.04 482.376,162.703 482.376,162.365 
		496.338,162.365 496.338,162.703 496.338,163.04 	"/>
	<text transform="matrix(1.0047 0 0 1 475.9941 165.439)" font-family="'ArialMT'" font-size="7.4453px">O</text>
	<polygon fill-rule="evenodd" clip-rule="evenodd" points="496.143,163.716 502.348,174.414 502.054,174.582 501.76,174.751 
		495.359,163.716 495.751,163.716 496.143,163.716 	"/>
	<text transform="matrix(1.0047 0 0 1 501.6475 179.8848)" font-family="'ArialMT'" font-size="7.4453px">N</text>
	<text transform="matrix(1.0047 0 0 1 501.6475 185.8496)" font-family="'ArialMT'" font-size="7.4453px">H</text>
	<polygon fill-rule="evenodd" clip-rule="evenodd" points="507.612,178 521,178 521.196,178.338 521.392,178.676 507.612,178.676 
		507.612,178.338 507.612,178 	"/>
	<polygon fill-rule="evenodd" clip-rule="evenodd" points="522.077,177.156 528.674,188.529 528.38,188.698 528.086,188.867 
		521.489,177.493 521.783,177.325 522.077,177.156 	"/>
	<polygon fill-rule="evenodd" clip-rule="evenodd" points="520.315,178.169 526.912,189.542 526.618,189.711 526.324,189.879 
		519.727,178.506 520.021,178.338 520.315,178.169 	"/>
	<text transform="matrix(1.0047 0 0 1 526.8799 194.6855)" font-family="'ArialMT'" font-size="7.4453px">O</text>
	<polygon fill-rule="evenodd" clip-rule="evenodd" points="521,178 529.286,163.716 529.677,163.716 529.873,164.053 
		521.392,178.676 521.196,178.338 521,178 	"/>
	<polygon fill-rule="evenodd" clip-rule="evenodd" points="530.852,161.352 543.262,161.352 543.262,161.69 543.262,162.027 
		530.852,162.027 530.852,161.69 530.852,161.352 	"/>
	<polygon fill-rule="evenodd" clip-rule="evenodd" points="529.873,163.378 543.262,163.378 543.262,163.716 543.262,164.053 
		529.873,164.053 529.677,163.716 529.873,163.378 	"/>
	<text transform="matrix(1.0047 0 0 1 544.0586 165.2549)" font-family="'ArialMT'" font-size="7.4453px">N</text>
	<polygon fill-rule="evenodd" clip-rule="evenodd" points="548.525,159.792 554.73,149.094 555.122,149.094 555.318,149.432 
		549.112,160.13 548.818,159.96 548.525,159.792 	"/>
	<polygon fill-rule="evenodd" clip-rule="evenodd" points="529.286,163.716 521,149.432 521.196,149.094 521.587,149.094 
		529.873,163.378 529.677,163.716 529.286,163.716 	"/>
	<polygon fill-rule="evenodd" clip-rule="evenodd" points="527.205,130.886 520.804,119.85 521.196,119.85 521.587,119.85 
		527.792,130.548 527.499,130.716 527.205,130.886 	"/>
	<polygon fill-rule="evenodd" clip-rule="evenodd" points="520.804,119.85 529.286,105.228 529.677,105.228 529.864,105.582 
		521.587,119.85 521.196,119.85 520.804,119.85 	"/>
	<polygon fill-rule="evenodd" clip-rule="evenodd" points="529.286,105.228 520.902,90.775 521.196,90.606 521.587,90.606 
		529.864,104.874 529.677,105.228 529.286,105.228 	"/>
	<polygon fill-rule="evenodd" clip-rule="evenodd" points="520.902,90.438 529.286,75.984 529.677,75.984 529.864,76.338 
		521.587,90.606 521.196,90.606 520.902,90.438 	"/>
	<polygon fill-rule="evenodd" clip-rule="evenodd" points="529.286,75.984 520.804,61.362 521.196,61.362 521.587,61.362 
		529.864,75.63 529.677,75.984 529.286,75.984 	"/>
	<polygon fill-rule="evenodd" clip-rule="evenodd" points="520.804,61.362 527.205,50.327 527.499,50.496 527.792,50.665 
		521.587,61.362 521.196,61.362 520.804,61.362 	"/>
	<text transform="matrix(1.0047 0 0 1 526.8799 48.4663)" font-family="'ArialMT'" font-size="7.4453px">O</text>
	<text transform="matrix(1.0047 0 0 1 532.7002 48.2822)" font-family="'ArialMT'" font-size="7.4453px">H</text>
	<polygon fill-rule="evenodd" clip-rule="evenodd" points="529.864,75.63 543.052,74.465 543.052,75.984 543.052,77.504 
		529.864,76.338 529.677,75.984 529.864,75.63 	"/>
	<text transform="matrix(1.0047 0 0 1 543.8486 77.7061)" font-family="'ArialMT'" font-size="7.4453px">O</text>
	<text transform="matrix(1.0047 0 0 1 549.6621 77.5352)" font-family="'ArialMT'" font-size="7.4453px">H</text>
	<polygon fill-rule="evenodd" clip-rule="evenodd" points="521.144,90.234 521.144,90.979 520.805,90.979 520.466,90.979 
		520.466,90.234 520.805,90.234 521.144,90.234 	"/>
	<polygon fill-rule="evenodd" clip-rule="evenodd" points="519.338,90.074 519.338,91.138 518.999,91.138 518.659,91.138 
		518.659,90.074 518.999,90.074 519.338,90.074 	"/>
	<polygon fill-rule="evenodd" clip-rule="evenodd" points="517.531,89.915 517.531,91.298 517.192,91.298 516.852,91.298 
		516.852,89.915 517.192,89.915 517.531,89.915 	"/>
	<polygon fill-rule="evenodd" clip-rule="evenodd" points="515.725,89.755 515.725,91.457 515.385,91.457 515.046,91.457 
		515.046,89.755 515.385,89.755 515.725,89.755 	"/>
	<polygon fill-rule="evenodd" clip-rule="evenodd" points="513.918,89.596 513.918,91.617 513.579,91.617 513.239,91.617 
		513.239,89.596 513.579,89.596 513.918,89.596 	"/>
	<polygon fill-rule="evenodd" clip-rule="evenodd" points="512.111,89.436 512.111,91.777 511.772,91.777 511.433,91.777 
		511.433,89.436 511.772,89.436 512.111,89.436 	"/>
	<polygon fill-rule="evenodd" clip-rule="evenodd" points="510.304,89.276 510.304,91.937 509.965,91.937 509.626,91.937 
		509.626,89.276 509.965,89.276 510.304,89.276 	"/>
	<polygon fill-rule="evenodd" clip-rule="evenodd" points="508.498,89.117 508.498,92.096 508.159,92.096 507.819,92.096 
		507.819,89.117 508.159,89.117 508.498,89.117 	"/>
	<text transform="matrix(1.0047 0 0 1 496.0371 92.1519)" font-family="'ArialMT'" font-size="7.4453px">H</text>
	<text transform="matrix(1.0047 0 0 1 501.437 92.3296)" font-family="'ArialMT'" font-size="7.4453px">O</text>
	<polygon fill-rule="evenodd" clip-rule="evenodd" points="529.864,104.874 543.052,103.709 543.052,105.228 543.052,106.748 
		529.864,105.582 529.677,105.228 529.864,104.874 	"/>
	<text transform="matrix(1.0047 0 0 1 543.8486 106.9526)" font-family="'ArialMT'" font-size="7.4453px">O</text>
	<text transform="matrix(1.0047 0 0 1 549.6621 106.7754)" font-family="'ArialMT'" font-size="7.4453px">H</text>
</g>
<g>
	<text transform="matrix(1.0047 0 0 1 711.2988 34.8071)" font-family="'ArialMT'" font-size="10.5709px">F</text>
	<polygon fill-rule="evenodd" clip-rule="evenodd" points="757.446,136.872 740.441,136.872 740.243,136.53 740.441,136.187 
		757.446,136.187 757.446,136.53 757.446,136.872 	"/>
	<polygon fill-rule="evenodd" clip-rule="evenodd" points="740.441,136.872 731.84,151.701 731.642,151.358 731.443,151.016 
		739.846,136.53 740.243,136.53 740.441,136.872 	"/>
	<polygon fill-rule="evenodd" clip-rule="evenodd" points="738.157,136.701 730.748,149.475 730.45,149.304 730.151,149.132 
		737.561,136.358 737.859,136.53 738.157,136.701 	"/>
	<polygon fill-rule="evenodd" clip-rule="evenodd" points="731.84,151.701 714.636,151.701 714.438,151.358 714.636,151.016 
		731.443,151.016 731.642,151.358 731.84,151.701 	"/>
	<polygon fill-rule="evenodd" clip-rule="evenodd" points="714.04,151.358 705.638,136.872 705.836,136.53 706.234,136.53 
		714.636,151.016 714.438,151.358 714.04,151.358 	"/>
	<polygon fill-rule="evenodd" clip-rule="evenodd" points="715.332,149.475 707.922,136.701 708.22,136.53 708.518,136.358 
		715.927,149.132 715.63,149.304 715.332,149.475 	"/>
	<polygon fill-rule="evenodd" clip-rule="evenodd" points="705.638,136.187 714.239,121.358 714.438,121.701 714.636,122.043 
		706.234,136.53 705.836,136.53 705.638,136.187 	"/>
	<polygon fill-rule="evenodd" clip-rule="evenodd" points="714.239,121.358 731.443,121.358 731.642,121.701 731.443,122.043 
		714.636,122.043 714.438,121.701 714.239,121.358 	"/>
	<polygon fill-rule="evenodd" clip-rule="evenodd" points="715.63,123.413 730.45,123.413 730.45,123.755 730.45,124.098 
		715.63,124.098 715.63,123.755 715.63,123.413 	"/>
	<polygon fill-rule="evenodd" clip-rule="evenodd" points="731.443,121.358 737.735,110.509 738.033,110.681 738.332,110.852 
		732.039,121.701 731.642,121.701 731.443,121.358 	"/>
	<text transform="matrix(1.0047 0 0 1 737.6211 108.4448)" font-family="'ArialMT'" font-size="7.5507px">N</text>
	<polygon fill-rule="evenodd" clip-rule="evenodd" points="743.67,106.529 757.446,106.529 757.446,106.872 757.446,107.214 
		743.67,107.214 743.67,106.872 743.67,106.529 	"/>
	<polygon fill-rule="evenodd" clip-rule="evenodd" points="737.735,103.235 731.343,92.214 731.642,92.044 731.939,91.872 
		738.332,102.892 738.033,103.063 737.735,103.235 	"/>
	<polygon fill-rule="evenodd" clip-rule="evenodd" points="732.039,121.701 740.441,136.187 740.243,136.53 739.846,136.53 
		731.443,122.043 731.642,121.701 732.039,121.701 	"/>
	<polygon fill-rule="evenodd" clip-rule="evenodd" points="705.638,136.872 692.06,136.872 692.06,136.53 692.06,136.187 
		705.638,136.187 705.836,136.53 705.638,136.872 	"/>
	<text transform="matrix(1.0047 0 0 1 686.0088 138.0986)" font-family="'ArialMT'" font-size="7.5507px">N</text>
	<polygon fill-rule="evenodd" clip-rule="evenodd" points="686.722,140.509 680.429,151.358 680.032,151.358 679.833,151.016 
		686.126,140.167 686.424,140.338 686.722,140.509 	"/>
	<polygon fill-rule="evenodd" clip-rule="evenodd" points="678.84,153.755 666.255,153.755 666.255,153.413 666.255,153.071 
		678.84,153.071 678.84,153.413 678.84,153.755 	"/>
	<polygon fill-rule="evenodd" clip-rule="evenodd" points="679.833,151.701 666.255,151.701 666.255,151.358 666.255,151.016 
		679.833,151.016 680.032,151.358 679.833,151.701 	"/>
	<text transform="matrix(1.0047 0 0 1 660.2061 152.9292)" font-family="'ArialMT'" font-size="7.5507px">N</text>
	<polygon fill-rule="evenodd" clip-rule="evenodd" points="660.917,155.338 654.624,166.187 654.227,166.187 653.83,166.187 
		660.321,154.995 660.619,155.167 660.917,155.338 	"/>
	<polygon fill-rule="evenodd" clip-rule="evenodd" points="654.823,167.557 640.663,167.557 640.663,167.215 640.663,166.873 
		654.823,166.873 654.823,167.215 654.823,167.557 	"/>
	<polygon fill-rule="evenodd" clip-rule="evenodd" points="654.823,165.502 640.663,165.502 640.663,165.16 640.663,164.817 
		654.823,164.817 654.823,165.16 654.823,165.502 	"/>
	<text transform="matrix(1.0047 0 0 1 634.1904 167.9385)" font-family="'ArialMT'" font-size="7.5507px">O</text>
	<polygon fill-rule="evenodd" clip-rule="evenodd" points="654.624,166.187 660.917,177.037 660.619,177.207 660.321,177.379 
		653.83,166.187 654.227,166.187 654.624,166.187 	"/>
	<text transform="matrix(1.0047 0 0 1 660.2061 182.582)" font-family="'ArialMT'" font-size="7.5507px">N</text>
	<text transform="matrix(1.0047 0 0 1 660.2061 188.6382)" font-family="'ArialMT'" font-size="7.5507px">H</text>
	<polygon fill-rule="evenodd" clip-rule="evenodd" points="666.255,180.673 679.833,180.673 680.032,181.017 680.23,181.358 
		666.255,181.358 666.255,181.017 666.255,180.673 	"/>
	<polygon fill-rule="evenodd" clip-rule="evenodd" points="680.925,179.817 687.616,191.351 687.318,191.523 687.02,191.694 
		680.33,180.16 680.627,179.989 680.925,179.817 	"/>
	<polygon fill-rule="evenodd" clip-rule="evenodd" points="679.138,180.845 685.829,192.379 685.53,192.55 685.232,192.721 
		678.542,181.187 678.84,181.017 679.138,180.845 	"/>
	<text transform="matrix(1.0047 0 0 1 685.7959 197.5923)" font-family="'ArialMT'" font-size="7.5507px">O</text>
	<polygon fill-rule="evenodd" clip-rule="evenodd" points="679.833,180.673 688.236,166.187 688.633,166.187 688.831,166.53 
		680.23,181.358 680.032,181.017 679.833,180.673 	"/>
	<polygon fill-rule="evenodd" clip-rule="evenodd" points="689.825,163.79 702.41,163.79 702.41,164.132 702.41,164.475 
		689.825,164.475 689.825,164.132 689.825,163.79 	"/>
	<polygon fill-rule="evenodd" clip-rule="evenodd" points="688.831,165.845 702.41,165.845 702.41,166.187 702.41,166.53 
		688.831,166.53 688.633,166.187 688.831,165.845 	"/>
	<text transform="matrix(1.0047 0 0 1 703.2178 167.7588)" font-family="'ArialMT'" font-size="7.5507px">N</text>
	<polygon fill-rule="evenodd" clip-rule="evenodd" points="707.748,162.208 714.04,151.358 714.438,151.358 714.636,151.701 
		708.344,162.55 708.045,162.378 707.748,162.208 	"/>
	<polygon fill-rule="evenodd" clip-rule="evenodd" points="688.236,166.187 679.833,151.701 680.032,151.358 680.429,151.358 
		688.831,165.845 688.633,166.187 688.236,166.187 	"/>
	<polygon fill-rule="evenodd" clip-rule="evenodd" points="686.126,132.893 679.635,121.701 680.032,121.701 680.429,121.701 
		686.722,132.55 686.424,132.721 686.126,132.893 	"/>
	<polygon fill-rule="evenodd" clip-rule="evenodd" points="679.635,121.701 688.236,106.872 688.633,106.872 689.03,106.872 
		680.429,121.701 680.032,121.701 679.635,121.701 	"/>
	<polygon fill-rule="evenodd" clip-rule="evenodd" points="688.236,106.872 679.833,92.386 680.032,92.044 680.429,92.044 
		689.03,106.872 688.633,106.872 688.236,106.872 	"/>
	<polygon fill-rule="evenodd" clip-rule="evenodd" points="679.833,91.701 688.236,77.214 688.633,77.214 688.831,77.557 
		680.429,92.044 680.032,92.044 679.833,91.701 	"/>
	<polygon fill-rule="evenodd" clip-rule="evenodd" points="679.833,92.386 662.829,92.393 662.829,92.05 662.829,91.707 
		679.833,91.701 680.032,92.044 679.833,92.386 	"/>
	<polygon fill-rule="evenodd" clip-rule="evenodd" points="688.236,77.214 679.634,62.386 680.032,62.386 680.429,62.386 
		688.831,76.873 688.633,77.214 688.236,77.214 	"/>
	<polygon fill-rule="evenodd" clip-rule="evenodd" points="679.634,62.386 688.435,47.214 688.633,47.557 688.831,47.899 
		680.429,62.386 680.032,62.386 679.634,62.386 	"/>
	<polygon fill-rule="evenodd" clip-rule="evenodd" points="682.118,62.215 689.527,49.44 689.825,49.612 690.123,49.783 
		682.713,62.557 682.415,62.386 682.118,62.215 	"/>
	<polygon fill-rule="evenodd" clip-rule="evenodd" points="706.234,47.557 714.835,62.386 714.438,62.386 714.04,62.386 
		705.638,47.899 705.836,47.557 706.234,47.557 	"/>
	<polygon fill-rule="evenodd" clip-rule="evenodd" points="704.942,49.44 712.352,62.215 712.055,62.386 711.756,62.557 
		704.347,49.783 704.644,49.612 704.942,49.44 	"/>
	<polygon fill-rule="evenodd" clip-rule="evenodd" points="714.835,62.386 706.035,77.557 705.836,77.214 705.638,76.873 
		714.04,62.386 714.438,62.386 714.835,62.386 	"/>
	<polygon fill-rule="evenodd" clip-rule="evenodd" points="706.035,77.557 688.831,77.557 688.633,77.214 688.831,76.873 
		705.638,76.873 705.836,77.214 706.035,77.557 	"/>
	<polygon fill-rule="evenodd" clip-rule="evenodd" points="704.644,75.502 689.825,75.502 689.825,75.16 689.825,74.817 
		704.644,74.817 704.644,75.16 704.644,75.502 	"/>
	<polygon fill-rule="evenodd" clip-rule="evenodd" points="705.638,47.214 711.271,37.496 711.568,37.667 711.866,37.838 
		706.234,47.557 705.836,47.557 705.638,47.214 	"/>
	<polygon fill-rule="evenodd" clip-rule="evenodd" points="688.435,47.214 705.638,47.214 705.836,47.557 705.638,47.899 
		688.831,47.899 688.633,47.557 688.435,47.214 	"/>
</g>
<g>
	<polygon fill-rule="evenodd" clip-rule="evenodd" points="738.244,376.565 729.83,391.068 729.64,390.74 729.45,390.412 
		737.484,376.565 737.864,376.565 738.244,376.565 	"/>
	<polygon fill-rule="evenodd" clip-rule="evenodd" points="729.83,391.068 713.194,391.068 713.194,390.74 713.384,390.412 
		729.45,390.412 729.64,390.74 729.83,391.068 	"/>
	<polygon fill-rule="evenodd" clip-rule="evenodd" points="712.909,390.904 704.59,376.565 704.97,376.565 705.351,376.565 
		713.384,390.412 713.194,390.74 712.909,390.904 	"/>
	<polygon fill-rule="evenodd" clip-rule="evenodd" points="704.59,376.565 710.797,365.864 711.082,366.028 711.367,366.191 
		705.351,376.565 704.97,376.565 704.59,376.565 	"/>
	<text transform="matrix(1.0047 0 0 1 710.6865 363.8867)" font-family="'ArialMT'" font-size="7.2185px">N</text>
	<polygon fill-rule="evenodd" clip-rule="evenodd" points="716.47,362.06 729.83,362.06 729.64,362.387 729.45,362.715 
		716.47,362.715 716.47,362.387 716.47,362.06 	"/>
	<polygon fill-rule="evenodd" clip-rule="evenodd" points="729.83,362.06 738.244,376.565 737.864,376.565 737.484,376.565 
		729.45,362.715 729.64,362.387 729.83,362.06 	"/>
	<polygon fill-rule="evenodd" clip-rule="evenodd" points="710.797,358.91 704.59,348.211 704.97,348.211 705.351,348.211 
		711.367,358.582 711.082,358.746 710.797,358.91 	"/>
	<polygon fill-rule="evenodd" clip-rule="evenodd" points="704.59,348.211 712.825,334.015 713.194,334.034 713.395,334.342 
		705.351,348.211 704.97,348.211 704.59,348.211 	"/>
	<polygon fill-rule="evenodd" clip-rule="evenodd" points="712.825,334.015 706.106,318.995 706.503,319.079 706.901,319.163 
		713.397,333.684 713.194,334.034 712.825,334.015 	"/>
	<polygon fill-rule="evenodd" clip-rule="evenodd" points="714.113,332.065 708.589,319.718 708.889,319.583 709.191,319.45 
		714.714,331.799 714.414,331.932 714.113,332.065 	"/>
	<polygon fill-rule="evenodd" clip-rule="evenodd" points="706.106,318.995 715.23,310.818 715.451,311.061 715.67,311.306 
		706.901,319.163 706.503,319.079 706.106,318.995 	"/>
	<text transform="matrix(1.0047 0 0 1 716.2217 309.6216)" font-family="'ArialMT'" font-size="7.2185px">N</text>
	<polygon fill-rule="evenodd" clip-rule="evenodd" points="722.167,309.726 733.341,316.147 732.97,316.31 732.598,316.476 
		721.838,310.292 722.003,310.009 722.167,309.726 	"/>
	<polygon fill-rule="evenodd" clip-rule="evenodd" points="733.341,316.147 730.649,328.751 730.328,328.683 730.006,328.614 
		732.598,316.476 732.97,316.31 733.341,316.147 	"/>
	<polygon fill-rule="evenodd" clip-rule="evenodd" points="731.063,317.366 728.718,328.343 728.397,328.274 728.076,328.206 
		730.419,317.23 730.741,317.298 731.063,317.366 	"/>
	<text transform="matrix(1.0047 0 0 1 727.043 333.8242)" font-family="'ArialMT'" font-size="7.2185px">N</text>
	<polygon fill-rule="evenodd" clip-rule="evenodd" points="726.308,332.992 713.395,334.342 713.194,334.034 713.397,333.684 
		726.24,332.341 726.274,332.666 726.308,332.992 	"/>
	<polygon fill-rule="evenodd" clip-rule="evenodd" points="718.015,304.52 716.701,292.069 717.008,291.847 717.355,292.001 
		718.669,304.451 718.342,304.485 718.015,304.52 	"/>
	<polygon fill-rule="evenodd" clip-rule="evenodd" points="716.577,289.326 725.684,282.739 725.876,283.005 726.07,283.27 
		716.963,289.855 716.77,289.591 716.577,289.326 	"/>
	<polygon fill-rule="evenodd" clip-rule="evenodd" points="716.968,291.471 726.843,284.329 727.037,284.594 727.231,284.858 
		717.355,292.001 717.008,291.847 716.968,291.471 	"/>
	<text transform="matrix(1.0047 0 0 1 727.8008 283.7241)" font-family="'ArialMT'" font-size="7.2185px">N</text>
	<polygon fill-rule="evenodd" clip-rule="evenodd" points="729.601,278.618 728.287,266.167 728.594,265.944 728.902,265.723 
		730.256,278.549 729.928,278.583 729.601,278.618 	"/>
	<polygon fill-rule="evenodd" clip-rule="evenodd" points="726.617,267.577 713.673,261.841 713.807,261.542 713.941,261.243 
		726.885,266.979 726.75,267.278 726.617,267.577 	"/>
	<polygon fill-rule="evenodd" clip-rule="evenodd" points="728.287,266.167 713.609,259.662 713.57,259.286 713.53,258.91 
		728.902,265.723 728.594,265.944 728.287,266.167 	"/>
	<polygon fill-rule="evenodd" clip-rule="evenodd" points="713.609,259.662 700.612,269.061 700.264,268.908 699.917,268.755 
		713.53,258.91 713.57,259.286 713.609,259.662 	"/>
	<polygon fill-rule="evenodd" clip-rule="evenodd" points="702.673,269.796 703.888,281.308 703.561,281.341 703.234,281.376 
		702.019,269.865 702.346,269.831 702.673,269.796 	"/>
	<polygon fill-rule="evenodd" clip-rule="evenodd" points="700.612,269.061 701.926,281.513 701.598,281.546 701.271,281.581 
		699.917,268.755 700.264,268.908 700.612,269.061 	"/>
	<text transform="matrix(1.0047 0 0 1 699.4775 286.686)" font-family="'ArialMT'" font-size="7.2185px">N</text>
	<polygon fill-rule="evenodd" clip-rule="evenodd" points="705.393,286.341 716.968,291.471 717.008,291.847 716.701,292.069 
		705.125,286.939 705.259,286.64 705.393,286.341 	"/>
	<polygon fill-rule="evenodd" clip-rule="evenodd" points="712.868,390.598 713.481,390.95 713.317,391.234 713.152,391.518 
		712.539,391.164 712.703,390.881 712.868,390.598 	"/>
	<polygon fill-rule="evenodd" clip-rule="evenodd" points="711.885,392.045 712.712,392.521 712.548,392.804 712.383,393.088 
		711.557,392.613 711.721,392.328 711.885,392.045 	"/>
	<polygon fill-rule="evenodd" clip-rule="evenodd" points="710.905,393.492 711.944,394.089 711.779,394.372 711.615,394.656 
		710.576,394.06 710.741,393.777 710.905,393.492 	"/>
	<polygon fill-rule="evenodd" clip-rule="evenodd" points="709.924,394.941 711.174,395.659 711.01,395.942 710.846,396.226 
		709.595,395.508 709.759,395.225 709.924,394.941 	"/>
	<polygon fill-rule="evenodd" clip-rule="evenodd" points="708.943,396.388 710.406,397.228 710.242,397.513 710.077,397.796 
		708.614,396.955 708.778,396.672 708.943,396.388 	"/>
	<polygon fill-rule="evenodd" clip-rule="evenodd" points="707.961,397.836 709.636,398.797 709.472,399.081 709.307,399.364 
		707.632,398.402 707.797,398.119 707.961,397.836 	"/>
	<polygon fill-rule="evenodd" clip-rule="evenodd" points="706.981,399.283 708.868,400.367 708.704,400.65 708.539,400.935 
		706.652,399.85 706.816,399.566 706.981,399.283 	"/>
	<polygon fill-rule="evenodd" clip-rule="evenodd" points="706,400.73 708.099,401.938 707.934,402.221 707.77,402.504 
		705.67,401.297 705.834,401.014 706,400.73 	"/>
	<polygon fill-rule="evenodd" clip-rule="evenodd" points="705.018,402.178 707.33,403.506 707.165,403.789 707.001,404.072 
		704.689,402.744 704.854,402.461 705.018,402.178 	"/>
	<polygon fill-rule="evenodd" clip-rule="evenodd" points="704.038,403.625 706.561,405.076 706.397,405.359 706.232,405.643 
		703.708,404.192 703.873,403.908 704.038,403.625 	"/>
	<polygon fill-rule="evenodd" clip-rule="evenodd" points="703.831,407.208 691.8,407.208 691.8,406.882 691.8,406.554 
		703.831,406.554 703.831,406.882 703.831,407.208 	"/>
	<polygon fill-rule="evenodd" clip-rule="evenodd" points="704.781,405.244 691.8,405.244 691.8,404.916 691.8,404.589 
		704.399,404.589 704.97,404.916 704.781,405.244 	"/>
	<text transform="matrix(1.0047 0 0 1 686.0195 406.4141)" font-family="'ArialMT'" font-size="7.2185px">N</text>
	<polygon fill-rule="evenodd" clip-rule="evenodd" points="686.697,408.721 680.68,419.093 680.301,419.093 680.111,418.767 
		686.127,408.394 686.412,408.558 686.697,408.721 	"/>
	<polygon fill-rule="evenodd" clip-rule="evenodd" points="682.865,418.929 689.949,431.142 689.664,431.306 689.378,431.47 
		682.295,419.257 682.581,419.093 682.865,418.929 	"/>
	<polygon fill-rule="evenodd" clip-rule="evenodd" points="680.68,419.093 688.713,432.942 688.524,433.269 688.334,433.597 
		680.111,419.421 680.301,419.093 680.68,419.093 	"/>
	<polygon fill-rule="evenodd" clip-rule="evenodd" points="688.713,432.942 704.781,432.942 704.97,433.269 705.161,433.597 
		688.334,433.597 688.524,433.269 688.713,432.942 	"/>
	<polygon fill-rule="evenodd" clip-rule="evenodd" points="705.826,432.124 712.221,443.15 711.936,443.315 711.652,443.478 
		705.255,432.45 705.54,432.288 705.826,432.124 	"/>
	<polygon fill-rule="evenodd" clip-rule="evenodd" points="704.116,433.106 710.512,444.133 710.227,444.296 709.942,444.46 
		703.545,433.433 703.831,433.269 704.116,433.106 	"/>
	<text transform="matrix(1.0047 0 0 1 710.4834 449.1191)" font-family="'ArialMT'" font-size="7.2185px">O</text>
	<polygon fill-rule="evenodd" clip-rule="evenodd" points="704.781,432.942 710.797,422.57 711.082,422.734 711.367,422.898 
		705.161,433.597 704.97,433.269 704.781,432.942 	"/>
	<text transform="matrix(1.0047 0 0 1 710.6865 420.585)" font-family="'ArialMT'" font-size="7.2185px">N</text>
	<text transform="matrix(1.0047 0 0 1 715.9229 420.585)" font-family="'ArialMT'" font-size="7.2185px">H</text>
	<polygon fill-rule="evenodd" clip-rule="evenodd" points="710.797,415.616 704.781,405.244 704.97,404.916 705.542,405.246 
		711.367,415.289 711.082,415.453 710.797,415.616 	"/>
	<polygon fill-rule="evenodd" clip-rule="evenodd" points="680.111,419.421 664.022,419.421 663.855,419.093 664.022,418.767 
		680.111,418.767 680.301,419.093 680.111,419.421 	"/>
	<polygon fill-rule="evenodd" clip-rule="evenodd" points="664.022,419.421 654.312,432.721 654.186,432.336 654.061,431.95 
		663.448,419.093 663.855,419.093 664.022,419.421 	"/>
	<polygon fill-rule="evenodd" clip-rule="evenodd" points="661.681,419.285 653.699,430.22 653.433,430.027 653.167,429.834 
		661.149,418.9 661.415,419.093 661.681,419.285 	"/>
	<polygon fill-rule="evenodd" clip-rule="evenodd" points="654.312,432.721 638.217,427.516 638.545,427.278 638.875,427.04 
		654.061,431.95 654.186,432.336 654.312,432.721 	"/>
	<polygon fill-rule="evenodd" clip-rule="evenodd" points="638.217,427.516 638.217,410.671 638.545,410.908 638.875,411.146 
		638.875,427.04 638.545,427.278 638.217,427.516 	"/>
	<polygon fill-rule="evenodd" clip-rule="evenodd" points="640.19,425.851 640.19,412.335 640.52,412.335 640.848,412.335 
		640.848,425.851 640.52,425.851 640.19,425.851 	"/>
	<polygon fill-rule="evenodd" clip-rule="evenodd" points="638.217,410.671 651.009,406.534 651.11,406.845 651.211,407.157 
		638.875,411.146 638.545,410.908 638.217,410.671 	"/>
	<text transform="matrix(1.0047 0 0 1 651.8799 407.5225)" font-family="'ArialMT'" font-size="7.2185px">S</text>
	<polygon fill-rule="evenodd" clip-rule="evenodd" points="657.112,409.299 664.022,418.767 663.855,419.093 663.448,419.093 
		656.579,409.684 656.844,409.491 657.112,409.299 	"/>
</g>
<g>
	<polygon fill-rule="evenodd" clip-rule="evenodd" points="602.661,286.762 592.695,294.19 592.497,293.927 592.297,293.662 
		602.263,286.233 602.462,286.497 602.661,286.762 	"/>
	<text transform="matrix(1.0047 0 0 1 581.3931 297.9028)" font-family="'ArialMT'" font-size="7.2755px">H</text>
	<text transform="matrix(1.0047 0 0 1 586.6704 297.9028)" font-family="'ArialMT'" font-size="7.2755px">N</text>
	<polygon fill-rule="evenodd" clip-rule="evenodd" points="589.965,300.019 591.473,312.54 591.167,312.77 590.814,312.619 
		589.307,300.097 589.637,300.058 589.965,300.019 	"/>
	<polygon fill-rule="evenodd" clip-rule="evenodd" points="591.473,312.54 603.234,317.551 603.103,317.854 602.973,318.157 
		591.211,313.147 591.167,312.77 591.473,312.54 	"/>
	<polygon fill-rule="evenodd" clip-rule="evenodd" points="591.57,314.736 602.452,319.37 602.322,319.675 602.191,319.978 
		591.309,315.343 591.439,315.039 591.57,314.736 	"/>
	<text transform="matrix(1.0047 0 0 1 603.8804 320.769)" font-family="'ArialMT'" font-size="7.2755px">N</text>
	<polygon fill-rule="evenodd" clip-rule="evenodd" points="607.176,322.892 608.729,335.792 608.378,335.642 608.025,335.492 
		606.519,322.97 606.847,322.931 607.176,322.892 	"/>
	<polygon fill-rule="evenodd" clip-rule="evenodd" points="608.729,335.792 595.462,345.683 595.11,345.532 595.064,345.154 
		608.025,335.492 608.378,335.642 608.729,335.792 	"/>
	<polygon fill-rule="evenodd" clip-rule="evenodd" points="606.465,335.007 595.035,343.526 594.836,343.263 594.637,342.999 
		606.067,334.478 606.265,334.743 606.465,335.007 	"/>
	<polygon fill-rule="evenodd" clip-rule="evenodd" points="594.803,345.761 579.564,339.271 579.872,339.042 580.176,338.812 
		595.064,345.154 595.11,345.532 594.803,345.761 	"/>
	<polygon fill-rule="evenodd" clip-rule="evenodd" points="579.564,339.271 578.012,326.368 578.34,326.329 578.669,326.29 
		580.176,338.812 579.872,339.042 579.564,339.271 	"/>
	<polygon fill-rule="evenodd" clip-rule="evenodd" points="581.378,337.71 579.986,326.134 580.315,326.095 580.644,326.055 
		582.038,337.632 581.709,337.671 581.378,337.71 	"/>
	<text transform="matrix(1.0047 0 0 1 575.3716 324.1714)" font-family="'ArialMT'" font-size="7.2755px">N</text>
	<polygon fill-rule="evenodd" clip-rule="evenodd" points="581.001,319.935 590.814,312.619 591.167,312.77 591.211,313.147 
		581.399,320.462 581.201,320.198 581.001,319.935 	"/>
	<polygon fill-rule="evenodd" clip-rule="evenodd" points="595.462,345.683 597.433,362.064 597.081,361.914 596.729,361.765 
		594.803,345.761 595.11,345.532 595.462,345.683 	"/>
	<polygon fill-rule="evenodd" clip-rule="evenodd" points="597.433,362.064 587.315,369.606 587.116,369.343 586.917,369.079 
		596.729,361.765 597.081,361.914 597.433,362.064 	"/>
	<text transform="matrix(1.0047 0 0 1 581.2905 373.312)" font-family="'ArialMT'" font-size="7.2755px">N</text>
	<polygon fill-rule="evenodd" clip-rule="evenodd" points="580.381,370.701 568.62,365.691 568.574,365.314 568.53,364.935 
		580.641,370.095 580.511,370.397 580.381,370.701 	"/>
	<polygon fill-rule="evenodd" clip-rule="evenodd" points="568.62,365.691 555.659,375.353 555.306,375.203 554.955,375.054 
		568.53,364.935 568.574,365.314 568.62,365.691 	"/>
	<polygon fill-rule="evenodd" clip-rule="evenodd" points="555.659,375.353 557.585,391.356 557.279,391.585 556.971,391.814 
		554.955,375.054 555.306,375.203 555.659,375.353 	"/>
	<polygon fill-rule="evenodd" clip-rule="evenodd" points="557.585,391.356 572.472,397.698 572.518,398.075 572.123,398.267 
		556.971,391.814 557.279,391.585 557.585,391.356 	"/>
	<polygon fill-rule="evenodd" clip-rule="evenodd" points="572.472,397.698 585.434,388.036 585.786,388.185 586.137,388.335 
		572.808,398.272 572.518,398.075 572.472,397.698 	"/>
	<polygon fill-rule="evenodd" clip-rule="evenodd" points="585.434,388.036 583.926,375.513 584.255,375.474 584.584,375.435 
		586.137,388.335 585.786,388.185 585.434,388.036 	"/>
	<polygon fill-rule="evenodd" clip-rule="evenodd" points="572.808,398.272 568.463,414.54 568.103,414.604 567.842,414.296 
		572.123,398.267 572.518,398.075 572.808,398.272 	"/>
	<polygon fill-rule="evenodd" clip-rule="evenodd" points="567.171,417.009 555.111,418.112 555.081,417.784 555.05,417.456 
		567.112,416.351 567.142,416.681 567.171,417.009 	"/>
	<polygon fill-rule="evenodd" clip-rule="evenodd" points="567.943,414.95 554.929,416.14 554.899,415.811 554.869,415.483 
		567.842,414.296 568.103,414.604 567.943,414.95 	"/>
	<text transform="matrix(1.0047 0 0 1 549.0718 417.625)" font-family="'ArialMT'" font-size="7.2755px">N</text>
	<polygon fill-rule="evenodd" clip-rule="evenodd" points="550.198,419.923 545.039,431.064 544.658,431.099 544.436,430.786 
		549.596,419.646 549.897,419.784 550.198,419.923 	"/>
	<polygon fill-rule="evenodd" clip-rule="evenodd" points="547.215,430.698 555.456,442.306 555.186,442.493 554.915,442.686 
		546.674,431.077 546.945,430.888 547.215,430.698 	"/>
	<polygon fill-rule="evenodd" clip-rule="evenodd" points="545.039,431.064 554.385,444.226 554.224,444.571 554.064,444.917 
		544.498,431.444 544.658,431.099 545.039,431.064 	"/>
	<polygon fill-rule="evenodd" clip-rule="evenodd" points="554.385,444.226 570.51,442.749 570.731,443.061 570.952,443.372 
		554.064,444.917 554.224,444.571 554.385,444.226 	"/>
	<polygon fill-rule="evenodd" clip-rule="evenodd" points="571.483,441.833 578.775,452.103 578.505,452.292 578.234,452.483 
		570.942,442.214 571.211,442.022 571.483,441.833 	"/>
	<polygon fill-rule="evenodd" clip-rule="evenodd" points="569.858,442.974 577.152,453.245 576.879,453.436 576.61,453.626 
		569.317,443.356 569.587,443.165 569.858,442.974 	"/>
	<text transform="matrix(1.0047 0 0 1 577.5679 458.2207)" font-family="'ArialMT'" font-size="7.2755px">O</text>
	<polygon fill-rule="evenodd" clip-rule="evenodd" points="570.51,442.749 575.67,431.608 575.971,431.747 576.271,431.886 
		570.952,443.372 570.731,443.061 570.51,442.749 	"/>
	<text transform="matrix(1.0047 0 0 1 575.1479 429.5908)" font-family="'ArialMT'" font-size="7.2755px">N</text>
	<text transform="matrix(1.0047 0 0 1 580.4243 429.5908)" font-family="'ArialMT'" font-size="7.2755px">H</text>
	<polygon fill-rule="evenodd" clip-rule="evenodd" points="574.793,424.599 567.943,414.95 568.103,414.604 568.463,414.54 
		575.335,424.218 575.065,424.407 574.793,424.599 	"/>
	<polygon fill-rule="evenodd" clip-rule="evenodd" points="544.498,431.444 528.35,432.921 528.151,432.608 528.289,432.263 
		544.436,430.786 544.658,431.099 544.498,431.444 	"/>
	<polygon fill-rule="evenodd" clip-rule="evenodd" points="528.35,432.921 519.838,447.161 519.676,446.788 519.514,446.411 
		527.743,432.646 528.151,432.608 528.35,432.921 	"/>
	<polygon fill-rule="evenodd" clip-rule="evenodd" points="525.988,432.999 518.991,444.706 518.706,444.538 518.421,444.37 
		525.417,432.663 525.703,432.831 525.988,432.999 	"/>
	<polygon fill-rule="evenodd" clip-rule="evenodd" points="519.838,447.161 503.2,443.415 503.507,443.147 503.817,442.876 
		519.514,446.411 519.676,446.788 519.838,447.161 	"/>
	<polygon fill-rule="evenodd" clip-rule="evenodd" points="503.2,443.415 501.639,426.509 501.991,426.716 502.343,426.925 
		503.817,442.876 503.507,443.147 503.2,443.415 	"/>
	<polygon fill-rule="evenodd" clip-rule="evenodd" points="505.026,441.561 503.774,427.997 504.104,427.968 504.434,427.936 
		505.687,441.503 505.357,441.532 505.026,441.561 	"/>
	<polygon fill-rule="evenodd" clip-rule="evenodd" points="501.639,426.509 513.989,421.226 514.121,421.528 514.251,421.833 
		502.343,426.925 501.991,426.716 501.639,426.509 	"/>
	<text transform="matrix(1.0047 0 0 1 514.895 421.8877)" font-family="'ArialMT'" font-size="7.2755px">S</text>
	<polygon fill-rule="evenodd" clip-rule="evenodd" points="520.571,423.503 528.289,432.263 528.151,432.608 527.743,432.646 
		520.072,423.939 520.321,423.722 520.571,423.503 	"/>
</g>
<line fill="none" stroke="#251E1C" stroke-width="2" x1="368.904" y1="355.18" x2="405.153" y2="355.18"/>
<text transform="matrix(1.1637 0 0 1 34.3267 360.9756)" fill="#251E1C" font-family="'ArialMT'" font-size="12.9182px">5’</text>
<line fill="none" stroke="#251E1C" stroke-width="2" x1="52.467" y1="354.358" x2="153.908" y2="354.358"/>
<path fill="none" stroke="#64A5DD" stroke-width="2" d="M376.396,301.932c0,7.5-7.08,13.581-15.803,13.581
	c-8.73,0-15.805-6.081-15.805-13.581c0-7.499,7.075-13.579,15.805-13.579C369.316,288.353,376.396,294.433,376.396,301.932z"/>
<rect x="353.266" y="308.39" fill="#FFFFFF" stroke="#FFFFFF" stroke-width="2" width="14.357" height="8.313"/>
<line fill="none" stroke="#251E1C" stroke-width="2" x1="171.039" y1="354.47" x2="352.149" y2="354.47"/>
<text transform="matrix(1.1637 0 0 1 406.9878 361.1396)" fill="#251E1C" font-family="'ArialMT'" font-size="14.9057px">AUG</text>
<line fill="none" stroke="#251E1C" stroke-width="2" x1="446.34" y1="355.18" x2="484.926" y2="355.18"/>
<rect x="367.34" y="324.64" fill="#74B5AA" width="5.17" height="19.752"/>
<g>
	<text transform="matrix(1.1637 0 0 1 376.7998 339.5986)" fill="#74B5AA" font-family="'ArialMT'" font-size="14.9057px">RBS</text>
</g>
<g>
	<g>
		<line fill="none" stroke="#595858" stroke-width="2" x1="107.195" y1="373.105" x2="129.459" y2="373.105"/>
		<g>
			<rect x="106.195" y="366.605" fill="#595858" width="2" height="13"/>
		</g>
	</g>
</g>
<g>
	<g>
		<line fill="none" stroke="#595858" stroke-width="2" x1="193.056" y1="373.105" x2="215.322" y2="373.105"/>
		<g>
			<rect x="214.322" y="366.605" fill="#595858" width="2" height="13"/>
		</g>
	</g>
</g>
<g>
	<g>
		<line fill="none" stroke="#595858" stroke-width="2" x1="291.207" y1="373.107" x2="304.292" y2="373.107"/>
		<g>
			<rect x="290.207" y="366.607" fill="#595858" width="2" height="13"/>
		</g>
	</g>
</g>
<g>
	<g>
		<line fill="none" stroke="#595858" stroke-width="2" x1="441.415" y1="373.105" x2="454.498" y2="373.105"/>
		<g>
			<rect x="453.498" y="366.605" fill="#595858" width="2" height="13"/>
		</g>
	</g>
</g>
<text transform="matrix(1 0 0 1 306.7666 377.0835)" fill="#595858" font-family="'ArialMT'" font-size="14.9057px">Expression platform</text>
<text transform="matrix(1 0 0 1 133.8145 377.0835)" fill="#595858" font-family="'ArialMT'" font-size="14.9057px">Aptamer</text>
<line fill="none" stroke="#A71527" stroke-width="2" stroke-miterlimit="10" x1="447.509" y1="346.434" x2="480.491" y2="362.566"/>
<line fill="none" stroke="#A71527" stroke-width="2" stroke-miterlimit="10" x1="447.561" y1="362.67" x2="480.439" y2="346.33"/>
<rect x="98.714" y="261.767" transform="matrix(0.7697 -0.6384 0.6384 0.7697 -146.5577 127.0818)" fill="#FFFFFF" stroke="#FFFFFF" stroke-width="4" width="8.273" height="9.793"/>
<rect x="215.719" y="265.836" transform="matrix(0.5328 -0.8462 0.8462 0.5328 -123.8915 311.9787)" fill="#FFFFFF" stroke="#FFFFFF" stroke-width="4" width="9.793" height="4.725"/>
<rect x="217.867" y="213.164" transform="matrix(0.8865 -0.4627 0.4627 0.8865 -75.9829 126.3245)" fill="#FFFFFF" stroke="#FFFFFF" stroke-width="4" width="3.332" height="9.793"/>
<rect x="155.522" y="181.693" transform="matrix(1 -0.0014 0.0014 1 -0.2615 0.2288)" fill="#FFFFFF" stroke="#FFFFFF" stroke-width="4" width="9.991" height="4.134"/>
<rect x="96.802" y="206.412" transform="matrix(0.6391 -0.7691 0.7691 0.6391 -124.0958 153.7936)" fill="#FFFFFF" stroke="#FFFFFF" stroke-width="4" width="10.044" height="5.426"/>
<line fill="none" stroke="#9DC138" stroke-width="2" x1="170.833" y1="354.47" x2="194.947" y2="354.47"/>
</svg>
